<svg width="1727" height="528" viewBox="0 0 1727 528" fill="none" xmlns="http://www.w3.org/2000/svg">
<rect width="1727" height="528" fill="#1E1E1E"/>
<rect width="1727" height="528" fill="white"/>
<g clip-path="url(#clip0_1_15)">
<path d="M439.95 433.621H433.51V429.573H439.95V425.248C439.95 419.138 443.041 416.384 449.671 416.384C451.272 416.389 452.869 416.557 454.436 416.886V420.866C453.09 420.606 451.723 420.472 450.351 420.465C446.691 420.465 445.151 421.925 445.151 425.359V429.562H454.314V433.609H445.106V457.97H439.905L439.95 433.621Z" fill="#0071CA"/>
<path d="M460.508 416.886H465.709V457.981H460.508V416.886Z" fill="#0071CA"/>
<path d="M479.325 445.238C479.883 450.913 484.09 454.391 490.229 454.391C492.118 454.439 493.994 454.063 495.719 453.292C497.444 452.52 498.973 451.372 500.195 449.932L503.722 452.63C500.686 456.51 495.91 458.751 490.095 458.751C480.631 458.751 474.001 452.63 474.001 443.811C474.001 434.992 480.441 428.771 489.626 428.771C498.354 428.771 504.548 434.434 504.548 442.696C504.546 443.539 504.483 444.381 504.358 445.216L479.325 445.238ZM499.269 441.425C498.767 436.196 495.117 433.175 489.671 433.175C484.224 433.175 480.374 436.319 479.448 441.425H499.269Z" fill="#0071CA"/>
<path d="M531.334 457.981L522.483 446.509L513.555 457.959H507.673L519.001 443.365L508.287 429.551H514.113L522.472 440.388L530.765 429.551H536.624L525.91 443.365L537.238 457.959L531.334 457.981Z" fill="#0071CA"/>
<path d="M546.077 417.109C546.707 417.171 547.305 417.415 547.799 417.81C548.292 418.206 548.661 418.735 548.859 419.336C549.057 419.936 549.077 420.581 548.916 421.192C548.754 421.803 548.419 422.355 547.95 422.779C547.482 423.204 546.9 423.483 546.275 423.584C545.65 423.685 545.01 423.603 544.431 423.347C543.852 423.091 543.36 422.673 543.015 422.144C542.669 421.615 542.484 420.996 542.483 420.364C542.494 419.911 542.597 419.465 542.786 419.053C542.975 418.641 543.245 418.271 543.581 417.967C543.918 417.662 544.312 417.429 544.741 417.282C545.17 417.134 545.625 417.075 546.077 417.109ZM543.477 429.573H548.678V457.981H543.477V429.573Z" fill="#0071CA"/>
<path d="M576.1 458.773C570.843 458.773 566.379 456.409 564.459 452.763V457.981H559.258V416.886H564.459V434.802C566.379 431.145 570.843 428.793 576.1 428.793C584.649 428.793 590.966 435.025 590.966 443.777C590.966 452.529 584.615 458.773 576.1 458.773ZM582.539 436.14C581.532 435.146 580.33 434.37 579.009 433.86C577.688 433.35 576.276 433.116 574.861 433.175C573.411 433.081 571.956 433.285 570.588 433.774C569.22 434.264 567.967 435.029 566.907 436.022C565.846 437.014 565.001 438.214 564.423 439.546C563.845 440.878 563.547 442.314 563.547 443.766C563.547 445.218 563.845 446.654 564.423 447.986C565.001 449.318 565.846 450.518 566.907 451.511C567.967 452.503 569.22 453.268 570.588 453.758C571.956 454.248 573.411 454.452 574.861 454.358C576.964 454.328 579.012 453.686 580.755 452.511C582.499 451.336 583.861 449.678 584.676 447.741C585.491 445.805 585.723 443.672 585.343 441.606C584.964 439.54 583.989 437.629 582.539 436.107V436.14Z" fill="#0071CA"/>
<path d="M599.258 416.886H604.459V457.981H599.258V416.886Z" fill="#0071CA"/>
<path d="M618.098 445.238C618.656 450.913 622.863 454.391 628.99 454.391C630.88 454.44 632.756 454.065 634.481 453.293C636.206 452.521 637.735 451.372 638.957 449.932L642.495 452.63C639.448 456.543 634.615 458.773 628.856 458.773C619.381 458.773 612.763 452.652 612.763 443.833C612.763 435.014 619.202 428.793 628.388 428.793C637.127 428.793 643.31 434.457 643.31 442.718C643.311 443.561 643.252 444.403 643.131 445.238H618.098ZM638.031 441.425C637.54 436.196 633.879 433.175 628.432 433.175C622.986 433.175 619.147 436.319 618.22 441.425H638.031Z" fill="#0071CA"/>
<path d="M665.944 450.065C668.176 452.986 671.825 454.525 676.1 454.525C680.564 454.525 683.287 452.842 683.287 450.199C683.287 448.181 681.736 446.999 677.774 446.163L672.819 445.149C666.379 443.8 663.287 441.224 663.287 437.233C663.287 432.238 667.986 428.815 675.564 428.815C681.011 428.815 685.408 430.555 687.941 433.643L684.403 436.475C682.35 434.245 679.203 433.13 675.296 433.13C670.832 433.13 668.488 434.635 668.488 437.166C668.488 439.017 669.906 440.087 674.124 440.979L679.627 442.094C685.821 443.387 688.488 445.918 688.488 449.898C688.488 455.294 683.845 458.817 676.211 458.817C669.828 458.817 664.694 456.454 662.216 452.641L665.944 450.065Z" fill="#0071CA"/>
<path d="M710.151 428.793C719.627 428.626 726.379 435.75 726.256 443.777C726.379 451.805 719.627 458.94 710.151 458.773C700.676 458.94 693.924 451.805 694.057 443.777C693.924 435.75 700.687 428.67 710.151 428.793ZM717.83 436.14C716.822 435.146 715.62 434.37 714.299 433.86C712.978 433.349 711.566 433.116 710.151 433.175C708.701 433.08 707.247 433.285 705.879 433.774C704.511 434.264 703.258 435.029 702.197 436.022C701.137 437.014 700.292 438.214 699.714 439.546C699.136 440.878 698.838 442.314 698.838 443.766C698.838 445.218 699.136 446.654 699.714 447.986C700.292 449.318 701.137 450.518 702.197 451.511C703.258 452.503 704.511 453.268 705.879 453.758C707.247 454.248 708.701 454.452 710.151 454.358C712.252 454.323 714.297 453.678 716.037 452.502C717.777 451.326 719.137 449.67 719.951 447.735C720.765 445.8 720.998 443.67 720.621 441.606C720.245 439.541 719.275 437.63 717.83 436.107V436.14Z" fill="#0071CA"/>
<path d="M734.549 416.886H739.75V457.981H734.549V416.886Z" fill="#0071CA"/>
<path d="M749.66 429.573H754.861V447.089C754.861 451.805 757.897 454.391 763.154 454.391C768.41 454.391 771.457 451.805 771.457 447.089V429.573H776.658V447.412C776.658 454.101 771.268 458.806 763.154 458.806C755.04 458.806 749.66 454.146 749.66 447.412V429.573Z" fill="#0071CA"/>
<path d="M788.857 433.621H782.607V429.573H788.857V421.156H794.069V429.573H803.913V433.621H794.069V450.344C794.069 453.098 795.609 454.28 799.136 454.28C800.781 454.26 802.421 454.092 804.036 453.778V457.658C802.201 458.166 800.303 458.413 798.399 458.394C792.205 458.394 788.857 455.751 788.857 450.645V433.621Z" fill="#0071CA"/>
<path d="M813.991 417.109C814.621 417.171 815.219 417.415 815.712 417.81C816.206 418.206 816.574 418.735 816.773 419.336C816.971 419.936 816.991 420.581 816.829 421.192C816.668 421.803 816.333 422.355 815.864 422.779C815.395 423.204 814.813 423.483 814.189 423.584C813.564 423.685 812.923 423.603 812.345 423.347C811.766 423.091 811.274 422.673 810.928 422.144C810.583 421.615 810.398 420.996 810.397 420.364C810.408 419.911 810.511 419.465 810.7 419.053C810.889 418.641 811.159 418.271 811.495 417.967C811.831 417.662 812.226 417.429 812.655 417.282C813.084 417.134 813.538 417.075 813.991 417.109ZM811.39 429.573H816.591V457.981H811.39V429.573Z" fill="#0071CA"/>
<path d="M841.045 428.793C850.52 428.626 857.272 435.75 857.15 443.777C857.272 451.805 850.52 458.94 841.045 458.773C831.569 458.94 824.817 451.805 824.951 443.777C824.817 435.75 831.569 428.67 841.045 428.793ZM848.723 436.14C847.715 435.146 846.514 434.37 845.193 433.86C843.872 433.349 842.46 433.116 841.045 433.175C839.594 433.08 838.14 433.285 836.772 433.774C835.404 434.264 834.151 435.029 833.091 436.022C832.03 437.014 831.185 438.214 830.607 439.546C830.029 440.878 829.731 442.314 829.731 443.766C829.731 445.218 830.029 446.654 830.607 447.986C831.185 449.318 832.03 450.518 833.091 451.511C834.151 452.503 835.404 453.268 836.772 453.758C838.14 454.248 839.594 454.452 841.045 454.358C843.145 454.323 845.19 453.678 846.93 452.502C848.671 451.326 850.031 449.67 850.845 447.735C851.659 445.8 851.891 443.67 851.515 441.606C851.138 439.541 850.168 437.63 848.723 436.107V436.14Z" fill="#0071CA"/>
<path d="M892.652 457.981H887.451V440.934C887.451 435.549 885.219 433.197 880.275 433.197C874.638 433.197 870.609 436.341 870.609 441.113V458.004H865.409V429.573H870.609V434.401C872.35 430.811 876.368 428.826 881.513 428.826C888.634 428.826 892.674 432.807 892.674 439.831L892.652 457.981Z" fill="#0071CA"/>
<path d="M903.813 450.065C906.045 452.986 909.694 454.525 913.969 454.525C918.433 454.525 921.156 452.842 921.156 450.199C921.156 448.181 919.605 446.999 915.643 446.163L910.688 445.149C904.248 443.8 901.145 441.224 901.145 437.233C901.145 432.238 905.855 428.815 913.422 428.815C918.868 428.815 923.266 430.555 925.799 433.643L922.217 436.475C920.174 434.245 917.016 433.13 913.121 433.13C908.656 433.13 906.301 434.635 906.301 437.166C906.301 439.017 907.73 440.087 911.882 440.979L917.395 442.094C923.589 443.387 926.257 445.918 926.257 449.898C926.257 455.294 921.603 458.817 913.98 458.817C907.607 458.817 902.462 456.454 899.996 452.641L903.813 450.065Z" fill="#0071CA"/>
<path d="M949.282 433.621H942.875V429.573H949.315V425.248C949.315 419.138 952.407 416.384 959.036 416.384C960.637 416.389 962.234 416.557 963.802 416.886V420.866C962.455 420.606 961.088 420.472 959.717 420.465C956.056 420.465 954.516 421.925 954.516 425.359V429.562H963.679V433.609H954.482V457.97H949.282V433.621Z" fill="#0071CA"/>
<path d="M982.719 428.793C992.183 428.626 998.936 435.75 998.813 443.777C998.936 451.805 992.183 458.94 982.719 458.773C973.244 458.94 966.491 451.805 966.614 443.777C966.491 435.75 973.244 428.67 982.719 428.793ZM990.387 436.14C989.384 435.139 988.186 434.355 986.867 433.837C985.548 433.319 984.136 433.078 982.719 433.13C981.269 433.036 979.815 433.24 978.447 433.73C977.079 434.219 975.826 434.984 974.765 435.977C973.705 436.97 972.86 438.169 972.282 439.501C971.704 440.833 971.406 442.27 971.406 443.722C971.406 445.173 971.704 446.61 972.282 447.942C972.86 449.274 973.705 450.473 974.765 451.466C975.826 452.459 977.079 453.224 978.447 453.713C979.815 454.203 981.269 454.407 982.719 454.313C984.821 454.281 986.868 453.638 988.61 452.462C990.351 451.286 991.712 449.628 992.526 447.692C993.339 445.755 993.57 443.624 993.19 441.559C992.81 439.493 991.836 437.583 990.387 436.062V436.14Z" fill="#0071CA"/>
<path d="M1024.69 433.676C1023.79 433.565 1022.88 433.509 1021.97 433.509C1015.84 433.509 1012.31 436.765 1012.31 443.443V457.937H1007.11V429.573H1012.31V434.914C1013.73 431.257 1017.21 429.127 1021.85 429.127C1022.81 429.103 1023.77 429.235 1024.69 429.518V433.676Z" fill="#0071CA"/>
<path d="M1074.57 429.573V454.726C1074.57 464.615 1068.69 470 1058.28 470C1052.4 470 1047.26 468.261 1044.04 465.284L1047.02 461.805C1050.21 464.351 1054.19 465.7 1058.28 465.618C1065.46 465.618 1069.37 461.917 1069.37 454.726V452.15C1067.57 455.74 1063.18 457.981 1057.79 457.981C1049.18 457.981 1042.86 451.983 1042.86 443.387C1042.86 434.791 1049.18 428.793 1057.79 428.793C1063.05 428.793 1067.57 431.09 1069.37 434.747V429.573H1074.57ZM1066.64 436.029C1065.62 435.052 1064.41 434.292 1063.09 433.794C1061.77 433.296 1060.36 433.07 1058.95 433.13C1057.53 433.071 1056.12 433.292 1054.79 433.782C1053.47 434.272 1052.25 435.021 1051.21 435.984C1049.34 437.978 1048.3 440.609 1048.3 443.343C1048.3 446.076 1049.34 448.707 1051.21 450.701C1052.25 451.666 1053.46 452.416 1054.79 452.908C1056.12 453.4 1057.53 453.623 1058.95 453.566C1060.35 453.629 1061.76 453.407 1063.08 452.915C1064.4 452.422 1065.6 451.669 1066.63 450.701C1068.54 448.728 1069.61 446.089 1069.61 443.343C1069.61 440.596 1068.54 437.957 1066.63 435.984L1066.64 436.029Z" fill="#0071CA"/>
<path d="M1102.71 433.676C1101.8 433.565 1100.9 433.509 1099.99 433.509C1093.86 433.509 1090.33 436.765 1090.33 443.443V457.937H1085.13V429.573H1090.33V434.914C1091.75 431.257 1095.22 429.127 1099.86 429.127C1100.83 429.103 1101.79 429.235 1102.71 429.518V433.676Z" fill="#0071CA"/>
<path d="M1121.84 428.793C1131.31 428.626 1138.07 435.75 1137.94 443.777C1138.07 451.805 1131.31 458.94 1121.84 458.773C1112.37 458.94 1105.62 451.805 1105.74 443.777C1105.62 435.75 1112.37 428.67 1121.84 428.793ZM1129.52 436.14C1128.51 435.146 1127.31 434.37 1125.99 433.86C1124.66 433.349 1123.25 433.116 1121.84 433.175C1120.39 433.08 1118.93 433.285 1117.57 433.774C1116.2 434.264 1114.94 435.029 1113.88 436.022C1112.82 437.014 1111.98 438.214 1111.4 439.546C1110.82 440.878 1110.52 442.314 1110.52 443.766C1110.52 445.218 1110.82 446.654 1111.4 447.986C1111.98 449.318 1112.82 450.518 1113.88 451.511C1114.94 452.503 1116.2 453.268 1117.57 453.758C1118.93 454.248 1120.39 454.452 1121.84 454.358C1123.94 454.328 1125.99 453.686 1127.73 452.511C1129.48 451.336 1130.84 449.678 1131.65 447.741C1132.47 445.804 1132.7 443.672 1132.32 441.606C1131.94 439.539 1130.97 437.628 1129.52 436.107V436.14Z" fill="#0071CA"/>
<path d="M1190.26 429.573L1179.99 457.981H1174.29L1165.87 434.97L1157.45 457.981H1151.75L1141.47 429.573H1146.74L1154.73 452.206L1163.02 429.573H1168.71L1177.02 452.206L1185.01 429.573H1190.26Z" fill="#0071CA"/>
<path d="M1199.24 417.109C1199.87 417.171 1200.47 417.415 1200.96 417.81C1201.45 418.206 1201.82 418.735 1202.02 419.336C1202.22 419.936 1202.24 420.581 1202.08 421.192C1201.91 421.803 1201.58 422.355 1201.11 422.779C1200.64 423.204 1200.06 423.483 1199.44 423.584C1198.81 423.685 1198.17 423.603 1197.59 423.347C1197.01 423.091 1196.52 422.673 1196.17 422.144C1195.83 421.615 1195.64 420.996 1195.64 420.364C1195.65 419.911 1195.76 419.465 1195.95 419.053C1196.14 418.641 1196.41 418.271 1196.74 417.967C1197.08 417.662 1197.47 417.429 1197.9 417.282C1198.33 417.134 1198.79 417.075 1199.24 417.109ZM1196.64 429.573H1201.8V457.981H1196.6L1196.64 429.573Z" fill="#0071CA"/>
<path d="M1239.67 457.981H1234.47V440.934C1234.47 435.549 1232.24 433.197 1227.3 433.197C1221.72 433.197 1217.63 436.341 1217.63 441.113V458.004H1212.43V429.573H1217.63V434.401C1219.36 430.811 1223.39 428.826 1228.53 428.826C1235.66 428.826 1239.7 432.807 1239.7 439.831L1239.67 457.981Z" fill="#0071CA"/>
<path d="M1279.43 429.573V454.726C1279.43 464.615 1273.55 470 1263.14 470C1257.26 470 1252.12 468.261 1248.9 465.284L1251.87 461.805C1255.07 464.35 1259.06 465.699 1263.14 465.618C1270.32 465.618 1274.23 461.917 1274.23 454.726V452.15C1272.43 455.74 1268.03 457.981 1262.64 457.981C1254.04 457.981 1247.72 451.983 1247.72 443.387C1247.72 434.791 1254.04 428.793 1262.64 428.793C1267.91 428.793 1272.43 431.09 1274.23 434.747V429.573H1279.43ZM1271.5 436.029C1270.48 435.062 1269.27 434.311 1267.96 433.82C1266.64 433.33 1265.23 433.11 1263.82 433.175C1262.41 433.116 1261 433.338 1259.67 433.828C1258.34 434.318 1257.12 435.066 1256.08 436.029C1254.21 438.023 1253.17 440.654 1253.17 443.387C1253.17 446.121 1254.21 448.751 1256.08 450.745C1257.12 451.71 1258.34 452.459 1259.67 452.951C1260.99 453.443 1262.41 453.667 1263.82 453.611C1265.23 453.673 1266.64 453.452 1267.96 452.959C1269.28 452.467 1270.48 451.714 1271.5 450.745C1273.41 448.768 1274.47 446.131 1274.47 443.387C1274.47 440.643 1273.41 438.006 1271.5 436.029Z" fill="#0071CA"/>
<path d="M1320.41 458.773C1315.15 458.773 1310.69 456.409 1308.77 452.763V457.981H1303.57V416.886H1308.77V434.802C1310.69 431.145 1315.15 428.793 1320.41 428.793C1328.96 428.793 1335.28 435.025 1335.28 443.777C1335.28 452.529 1328.96 458.773 1320.41 458.773ZM1326.85 436.14C1325.84 435.146 1324.64 434.37 1323.32 433.86C1322 433.35 1320.59 433.116 1319.17 433.175C1317.72 433.081 1316.27 433.285 1314.9 433.774C1313.53 434.264 1312.28 435.029 1311.22 436.022C1310.16 437.014 1309.31 438.214 1308.73 439.546C1308.16 440.878 1307.86 442.314 1307.86 443.766C1307.86 445.218 1308.16 446.654 1308.73 447.986C1309.31 449.318 1310.16 450.518 1311.22 451.511C1312.28 452.503 1313.53 453.268 1314.9 453.758C1316.27 454.248 1317.72 454.452 1319.17 454.358C1321.26 454.313 1323.3 453.663 1325.03 452.487C1326.76 451.31 1328.11 449.657 1328.92 447.728C1329.73 445.8 1329.96 443.678 1329.58 441.621C1329.21 439.565 1328.24 437.66 1326.8 436.14H1326.85Z" fill="#0071CA"/>
<path d="M1342.95 429.573H1348.16V447.089C1348.16 451.805 1351.19 454.391 1356.45 454.391C1361.7 454.391 1364.75 451.805 1364.75 447.089V429.573H1369.95V447.412C1369.95 454.101 1364.56 458.806 1356.45 458.806C1348.33 458.806 1342.95 454.146 1342.95 447.412V429.573Z" fill="#0071CA"/>
<path d="M1380.66 450.065C1382.89 452.986 1386.54 454.525 1390.81 454.525C1395.28 454.525 1398 452.842 1398 450.199C1398 448.181 1396.45 446.999 1392.49 446.163L1387.53 445.149C1381.09 443.8 1378 441.224 1378 437.233C1378 432.238 1382.7 428.815 1390.28 428.815C1395.72 428.815 1400.12 430.555 1402.65 433.643L1399.07 436.452C1397.03 434.223 1393.87 433.108 1389.96 433.108C1385.5 433.108 1383.16 434.613 1383.16 437.144C1383.16 438.994 1384.57 440.065 1388.74 440.957L1394.24 442.072C1400.43 443.365 1403.1 445.896 1403.1 449.876C1403.1 455.272 1398.46 458.795 1390.82 458.795C1384.44 458.795 1379.3 456.432 1376.83 452.619L1380.66 450.065Z" fill="#0071CA"/>
<path d="M1413.66 417.109C1414.29 417.171 1414.89 417.415 1415.38 417.81C1415.87 418.206 1416.24 418.735 1416.44 419.336C1416.64 419.936 1416.66 420.581 1416.5 421.192C1416.33 421.803 1416 422.355 1415.53 422.779C1415.06 423.204 1414.48 423.483 1413.86 423.584C1413.23 423.685 1412.59 423.603 1412.01 423.347C1411.43 423.091 1410.94 422.673 1410.6 422.144C1410.25 421.615 1410.07 420.996 1410.06 420.364C1410.07 419.911 1410.18 419.465 1410.37 419.053C1410.56 418.641 1410.83 418.271 1411.16 417.967C1411.5 417.662 1411.89 417.429 1412.32 417.282C1412.75 417.134 1413.21 417.075 1413.66 417.109ZM1411.06 429.573H1416.26V457.981H1411.06V429.573Z" fill="#0071CA"/>
<path d="M1454.09 457.981H1448.89V440.934C1448.89 435.549 1446.66 433.197 1441.7 433.197C1436.12 433.197 1432.05 436.341 1432.05 441.113V458.004H1426.85V429.573H1432.05V434.401C1433.78 430.811 1437.81 428.826 1442.94 428.826C1450.06 428.826 1454.1 432.807 1454.1 439.831L1454.09 457.981Z" fill="#0071CA"/>
<path d="M1467.43 445.238C1467.99 450.913 1472.2 454.391 1478.33 454.391C1480.22 454.439 1482.1 454.063 1483.82 453.292C1485.55 452.52 1487.08 451.372 1488.3 449.932L1491.83 452.63C1488.79 456.51 1484.02 458.751 1478.21 458.751C1468.74 458.751 1462.11 452.63 1462.11 443.811C1462.11 434.992 1468.55 428.771 1477.73 428.771C1486.46 428.771 1492.65 434.434 1492.65 442.696C1492.65 443.539 1492.59 444.381 1492.46 445.216L1467.43 445.238ZM1487.37 441.425C1486.87 436.196 1483.22 433.175 1477.78 433.175C1472.33 433.175 1468.49 436.319 1467.55 441.425H1487.37Z" fill="#0071CA"/>
<path d="M1501.7 450.065C1503.94 452.986 1507.59 454.525 1511.86 454.525C1516.33 454.525 1519.05 452.842 1519.05 450.199C1519.05 448.181 1517.5 446.999 1513.54 446.163L1508.58 445.149C1502.14 443.8 1499.05 441.224 1499.05 437.233C1499.05 432.238 1503.75 428.815 1511.33 428.815C1516.77 428.815 1521.17 430.555 1523.7 433.643L1520.12 436.452C1518.07 434.223 1514.91 433.108 1511.01 433.108C1506.55 433.108 1504.2 434.613 1504.2 437.144C1504.2 438.994 1505.62 440.065 1509.79 440.957L1515.3 442.072C1521.49 443.365 1524.16 445.896 1524.16 449.876C1524.16 455.272 1519.52 458.795 1511.88 458.795C1505.5 458.795 1500.37 456.432 1497.89 452.619L1501.7 450.065Z" fill="#0071CA"/>
<path d="M1532.79 450.065C1535.02 452.986 1538.67 454.525 1542.94 454.525C1547.41 454.525 1550.13 452.842 1550.13 450.199C1550.13 448.181 1548.58 446.999 1544.62 446.163L1539.66 445.149C1533.22 443.8 1530.13 441.224 1530.13 437.233C1530.13 432.238 1534.83 428.815 1542.41 428.815C1547.85 428.815 1552.25 430.555 1554.79 433.643L1551.19 436.452C1549.15 434.223 1545.99 433.108 1542.1 433.108C1537.63 433.108 1535.29 434.613 1535.29 437.144C1535.29 438.994 1536.71 440.065 1540.87 440.957L1546.38 442.072C1552.58 443.365 1555.24 445.896 1555.24 449.876C1555.24 455.272 1550.6 458.795 1542.97 458.795C1536.58 458.795 1531.45 456.432 1528.97 452.619L1532.79 450.065Z" fill="#0071CA"/>
<path d="M1566.23 445.238C1566.78 450.913 1570.99 454.391 1577.12 454.391C1579.01 454.44 1580.89 454.065 1582.61 453.293C1584.34 452.521 1585.87 451.373 1587.1 449.932L1590.62 452.63C1587.59 456.51 1582.75 458.751 1577 458.751C1567.52 458.751 1560.9 452.63 1560.9 443.811C1560.9 434.992 1567.34 428.771 1576.53 428.771C1585.27 428.771 1591.46 434.434 1591.46 442.696C1591.46 443.539 1591.39 444.381 1591.27 445.216L1566.23 445.238ZM1586.16 441.425C1585.67 436.196 1582.02 433.175 1576.56 433.175C1571.1 433.175 1567.27 436.319 1566.35 441.425H1586.16Z" fill="#0071CA"/>
<path d="M1600.47 450.065C1602.7 452.986 1606.35 454.525 1610.62 454.525C1615.09 454.525 1617.8 452.842 1617.8 450.199C1617.8 448.181 1616.26 446.999 1612.3 446.163L1607.34 445.149C1600.9 443.8 1597.8 441.224 1597.8 437.233C1597.8 432.238 1602.51 428.815 1610.08 428.815C1615.53 428.815 1619.93 430.555 1622.46 433.643L1618.87 436.452C1616.83 434.223 1613.67 433.108 1609.77 433.108C1605.31 433.108 1602.96 434.613 1602.96 437.144C1602.96 438.994 1604.38 440.065 1608.54 440.957L1614.05 442.072C1620.24 443.365 1622.9 445.896 1622.9 449.876C1622.9 455.272 1618.26 458.795 1610.62 458.795C1604.25 458.795 1599.1 456.432 1596.63 452.619L1600.47 450.065Z" fill="#0071CA"/>
<path d="M375.206 155.44V343.725C375.206 415.537 332.996 457.703 257.773 457.703C216.4 457.703 180.038 445.606 157.047 424.255L183.833 381.253C204.313 396.695 229.38 405.469 254.045 405.469C294.224 405.469 317.572 382.502 317.572 343.67V327.392C305.451 351.184 279.123 365.388 246.936 365.388C191.768 365.388 150.808 321.126 150.808 258.502C150.808 195.465 192.192 149.542 247.36 149.542C277.862 149.542 305.027 163.311 317.148 186.691V155.44H375.206ZM264.871 202.199C232.695 202.199 211.378 224.742 211.378 257.721C211.378 290.7 232.695 313.255 264.871 313.255C297.047 313.255 318.376 290.712 318.376 257.721C318.376 224.731 297.059 202.199 264.871 202.199Z" fill="#0071CA"/>
<path d="M569.961 210.55C561.42 208.907 552.744 208.067 544.046 208.041C507.684 208.041 491.39 225.166 491.39 265.236V368.365H432.037V155.417H490.073V190.492C500.53 165.853 523.555 151.236 551.925 151.236C559.035 151.236 564.883 152.073 569.905 154.169L569.961 210.55Z" fill="#0071CA"/>
<path d="M701.602 149.597C770.14 149.597 815.698 198.854 815.698 261.902C815.698 324.95 770.14 374.207 701.602 374.207C633.064 374.207 587.963 324.527 587.963 261.902C587.963 198.854 633.064 149.597 701.602 149.597ZM701.602 203.035C668.578 203.035 648.109 226.448 648.109 261.902C648.109 297.356 668.578 320.769 701.602 320.769C734.627 320.769 755.096 297.356 755.096 261.902C755.096 226.448 734.616 203.035 701.602 203.035Z" fill="#0071CA"/>
<path d="M877.127 207.205H837.841V155.44H877.127V129.975C877.127 82.7922 903.455 59 955.699 59C967.772 59.0725 979.81 60.331 991.637 62.7572V112.85C983.792 111.282 975.819 110.446 967.819 110.353C945.665 110.353 936.469 118.28 936.469 136.23V155.44H991.637V207.205H936.469V368.365H877.127V207.205Z" fill="#0071CA"/>
<path d="M1027.57 62.7572H1086.92V368.365H1027.57V62.7572Z" fill="#0071CA"/>
<path d="M1191.4 279.44C1196.83 309.074 1216.89 323.69 1248.66 323.69C1271.22 323.69 1289.62 316.176 1303.83 300.735L1337.68 335.798C1317.2 360.427 1285.43 374.207 1246.57 374.207C1177.61 374.207 1131.61 330.369 1131.61 262.716C1131.61 196.747 1175.5 149.575 1240.69 149.575C1303.8 149.575 1345.6 192.99 1345.6 258.959C1345.57 265.797 1345.16 272.627 1344.35 279.417L1191.4 279.44ZM1286.69 241.02C1284.6 214.262 1268.3 199.69 1241.14 199.69C1213.97 199.69 1196.41 214.307 1191.4 241.02H1286.69Z" fill="#0071CA"/>
<path d="M1548.73 368.365L1485.2 267.332L1421.26 368.365H1351.05L1447.17 219.736L1353.97 76.1138H1422.93L1485.2 173.813L1547.48 76.1138H1616.01L1522.82 219.313L1619.36 368.365H1548.73Z" fill="#00A353"/>
<path d="M163.587 364.753L136.801 407.71C123.662 394.629 112.611 379.611 104.033 363.181L131.813 318.908C139.904 335.775 150.63 351.25 163.587 364.753Z" fill="#00A353"/>
</g>
<defs>
<clipPath id="clip0_1_15">
<rect width="1519" height="411" fill="white" transform="translate(104 59)"/>
</clipPath>
</defs>
</svg>
