<svg version="1.1" id="Слой_1" xmlns="http://www.w3.org/2000/svg" x="0" y="0" viewBox="0 0 2316.5 1449.1" style="enable-background:new 0 0 2316.5 1449.1" xml:space="preserve"><style>.st0{fill:#5eef9c}.st1{fill:#82b378}.st3{fill:#797bf2}.st4,.st6{opacity:.46;fill:#c7dcfb}.st6{fill:#dfebfd}.st8{fill:#78acea}.st12{fill:#afcdfb}.st13{fill:#fff}.st14{fill:#ffb27d}.st15{fill:#233862}.st17{fill:#2b478b}</style><path class="st0" d="M614.5 706.1S461.3 488 401.4 516.2c-60 28.3 213.1 189.9 213.1 189.9zM604.7 647.5s-23.4-164-60.3-157.6c-36.9 6.4 60.3 157.6 60.3 157.6zM475.2 1158.7s14.7-73-42.5-82.2c0 0-38.8-1.4-61.6 13.3 0 0 64.9 37.5 57.2 49.1-7.7 11.6-69.3-46.9-69.3-46.9s-69.6 30.5-85.1 52.5c0 0 82.2 14.6 71.8 24-10.3 9.4-96.6-1.9-96.6-1.9s-55.6 44.8-31.4 80.4c24.2 35.6 51.8 35.4 60.6 29.2 8.7-6.2 51.5-57.3 57-50.4 5.4 7-13.4 50.2-35.7 64.1 0 0 70 23.6 91-6.3 21.1-29.9 11.3-53.1 24.7-71.3 13.4-18.2 28.7-26.7 25.9-14.3-2.7 12.5-30.7 38.7-30.8 62.6-.1 23.9-2.5 41.3 24.8 20.1 27.3-21.1 63.5-69.9 51.7-96.1l-11.7-25.9z"/><path class="st1" d="M248.5 1231.1s163.2-99.6 226.7-72.5c0 0 21.8 19.8 59.3 28.1l9.9 8.5s-45.9-14.3-57.3-10.4c-.1 0-17-68.1-238.6 46.3z"/><path class="st1" d="M534.4 1186.7s50.6 6.5 79.5 52.4l-6.2 4.2s-38.8-42.5-70.1-50.1c-31.3-7.6-3.2-6.5-3.2-6.5z"/><path d="M525.1 945.7s118.5-66.4 63.2-156.4c0 0-44.2-55.3-91.6-69.5 0 0 25.3 134.3 0 137.5-25.3 3.2-17.4-151.7-17.4-151.7s-124.8-60-173.8-55.3c0 0 77.4 131.1 52.1 128-25.3-3.2-112.2-135.9-112.2-135.9s-128-23.7-148.5 52.1 12.6 113.8 31.6 118.5c19 4.7 140.6 3.2 137.5 19-3.2 15.8-85.3 41.1-131.1 26.9 0 0 50.6 124.8 116.9 118.5 66.4-6.3 86.9-47.4 128-50.6 41.1-3.2 71.1 7.9 50.6 19-20.5 11.1-90.1 3.6-123.2 31.8-33.2 28.2-60 45.6 1.6 58.2 61.6 12.6 172.2 4.7 194.3-42.7l22-47.4z" style="fill:#39d881"/><path class="st0" d="M155.4 718.2s331.8 107.4 369.7 227.5c0 0-1.6 53.7 31.6 115.3v23.7s-34.8-80.6-53.7-91.6c0 0 74.2-104.3-347.6-274.9z"/><path class="st1" d="M556.7 1061s51.2 77.7 22 172.3l-13.2-3.5s12.8-104.2-14-156.6c-26.7-52.4 5.2-12.2 5.2-12.2z"/><path class="st3" d="m645.5 390.5-177.3 916.6c-3.6 18.6 10.7 36 29.7 36h93.5l54.1-952.6z"/><path class="st4" d="M1824.1 652.9s-79.8-50.9-37.7-111.3c0 0 33-36.7 66.5-44.7 0 0-22.9 92.4-5.5 95.6 17.5 3.2 18.1-104.8 18.1-104.8s89.2-36.8 123.1-31.5c0 0-59.1 88.1-41.4 86.9 17.7-1.2 83.4-90 83.4-90s89.9-11.4 101.2 42.2c11.3 53.6-13.3 78.6-26.7 81.1-13.4 2.5-97.9-3.4-96.3 7.7 1.6 11.1 57.7 32 90.1 23.9 0 0-40.1 84.8-86 77.7-45.9-7-58.5-36.4-87-40.3-28.4-3.8-49.8 2.7-35.9 11.2 13.8 8.5 62.5 6.1 84.4 27.1 21.9 20.9 39.9 34.1-3.4 40.4-43.4 6.3-119.9-3.6-133.4-37.4l-13.5-33.8z"/><path class="st4" d="M2090.3 509.4s-235 61.5-266.2 143.5c0 0-1 37.4-26.6 78.9l-.9 16.5s27.4-54.6 41-61.6c0 0-47.5-75.4 252.7-177.3z"/><path d="M1797.5 731.8s-38.7 52-22.2 118.9l9.3-1.9s-4.7-73 16-108.3c20.7-35.4-3.1-8.7-3.1-8.7z" style="fill:#c7dcfb"/><path class="st6" d="M1609.4 432.1s-122.5-26.9-97.8-121.3c0 0 24.3-60.7 62.4-86 0 0 13.6 125.5 36.8 121.5 23.2-4-25.3-138.7-25.3-138.7s94.3-86.5 138.8-95.5c0 0-33.3 136.7-11.8 127.1S1775.3 89 1775.3 89s106.8-55.2 145.3 6.3c38.5 61.5 19.3 103.9 3.8 113.2-15.5 9.3-123.5 40.5-116.4 53.6 7 13.1 86.4 13.5 123.1-11.4 0 0-11.2 123.9-71.6 136.1-60.4 12.2-89.5-18.6-126.7-10.4-37.2 8.2-60.7 26-39.6 30.3 21.1 4.3 80.6-20.9 117.5-4.9 36.9 16 65.3 24.2 14.2 51.9-51.1 27.7-151 50.3-183.2 14.4l-32.3-36z"/><path class="st6" d="M1875.2 131.9s-264.5 183.9-265.9 300.2c0 0 15.8 47.1 3 110.4l6.4 21s9.1-80.5 22.9-95.4c0-.1-93.6-72.3 233.6-336.2z"/><path d="M1612.3 542.5s-24.4 82.4 26.7 158.2l10.7-6.7s-39.2-88.7-29.6-142.2c9.7-53.4-7.8-9.3-7.8-9.3z" style="fill:#dfebfd"/><path class="st8" d="m647.7 386.8-117.5 900c-3.9 29.8 19.3 56.3 49.4 56.3H752l-97.2-959.5-7.1 3.2z"/><path d="M647.7 386.8 595.1 1281c-2 33.7 24.8 62 58.5 62h257.1l-263-956.2z" style="fill:#699dee"/><path d="m645.7 394.1 25.6 886.9c-2 33.7 24.8 62 58.5 62h257.1L645.7 394.1z" style="fill:#5288d8"/><path d="M1876.7 1343.1H862.9c-25.3 0-47-18.1-51.6-43L657.1 456.5c-7-38.3 22.4-73.6 61.4-73.6h1001.9c25.3 0 47 18.1 51.6 43l156.4 855.4c5.8 32.1-19 61.8-51.7 61.8z" style="fill:#d7e9ff"/><path class="st3" d="M677.2 566h1121l-28.7-159.3c-2.5-13.8-14.5-23.9-28.6-23.9H655c-5.9 0-10.4 5.4-9.3 11.2l31.5 172z"/><path class="st8" d="M703.4 334.9c-26.8 0-48.6 21.8-48.6 48.6h9.3c0-21.7 17.6-39.3 39.3-39.3 21.7 0 39.3 17.6 39.3 39.3 0 4.3-.7 8.5-2 12.4-3.9 11.5-12.9 20.7-24.4 24.7-3.4 1.2-6.9 1.9-10.6 2.1v9.3c4.3-.2 8.5-.9 12.4-2.2 15.8-5 28.1-17.8 32.3-33.9 1-4 1.6-8.1 1.6-12.4 0-26.8-21.8-48.6-48.6-48.6z"/><path class="st8" d="M718.4 427.1c0 1-.1 1.9-.4 2.8-1.2 4.5-5.3 7.7-10.1 7.7-5.8 0-10.5-4.7-10.5-10.5s4.7-10.5 10.5-10.5c3.4 0 6.4 1.6 8.3 4.1 1.4 1.7 2.2 4 2.2 6.4zM877.6 334.9c-26.8 0-48.6 21.8-48.6 48.6h9.3c0-21.7 17.6-39.3 39.3-39.3 21.7 0 39.3 17.6 39.3 39.3 0 4.3-.7 8.5-2 12.4-3.9 11.5-12.9 20.7-24.4 24.7-3.4 1.2-6.9 1.9-10.6 2.1v9.3c4.3-.2 8.5-.9 12.4-2.2 15.8-5 28.1-17.8 32.3-33.9 1-4 1.6-8.1 1.6-12.4 0-26.8-21.8-48.6-48.6-48.6z"/><path class="st8" d="M892.7 427.1c0 1-.1 1.9-.4 2.8-1.2 4.5-5.3 7.7-10.1 7.7-5.8 0-10.5-4.7-10.5-10.5s4.7-10.5 10.5-10.5c3.4 0 6.4 1.6 8.3 4.1 1.3 1.7 2.2 4 2.2 6.4zM1051.9 334.9c-26.8 0-48.6 21.8-48.6 48.6h9.3c0-21.7 17.6-39.3 39.3-39.3 21.7 0 39.3 17.6 39.3 39.3 0 4.3-.7 8.5-2 12.4-3.9 11.5-12.9 20.7-24.4 24.7-3.4 1.2-6.9 1.9-10.6 2.1v9.3c4.3-.2 8.5-.9 12.4-2.2 15.8-5 28.1-17.8 32.3-33.9 1-4 1.6-8.1 1.6-12.4 0-26.8-21.8-48.6-48.6-48.6z"/><path class="st8" d="M1066.9 427.1c0 1-.1 1.9-.4 2.8-1.2 4.5-5.3 7.7-10.1 7.7-5.8 0-10.5-4.7-10.5-10.5s4.7-10.5 10.5-10.5c3.4 0 6.4 1.6 8.3 4.1 1.4 1.7 2.2 4 2.2 6.4zM1226.1 334.9c-26.8 0-48.6 21.8-48.6 48.6h9.3c0-21.7 17.6-39.3 39.3-39.3 21.7 0 39.3 17.6 39.3 39.3 0 4.3-.7 8.5-2 12.4-3.9 11.5-12.9 20.7-24.4 24.7-3.4 1.2-6.9 1.9-10.6 2.1v9.3c4.3-.2 8.5-.9 12.4-2.2 15.8-5 28.1-17.8 32.3-33.9 1-4 1.6-8.1 1.6-12.4 0-26.8-21.8-48.6-48.6-48.6z"/><path class="st8" d="M1241.2 427.1c0 1-.1 1.9-.4 2.8-1.2 4.5-5.3 7.7-10.1 7.7-5.8 0-10.5-4.7-10.5-10.5s4.7-10.5 10.5-10.5c3.4 0 6.4 1.6 8.3 4.1 1.4 1.7 2.2 4 2.2 6.4zM1400.4 334.9c-26.8 0-48.6 21.8-48.6 48.6h9.3c0-21.7 17.6-39.3 39.3-39.3 21.7 0 39.3 17.6 39.3 39.3 0 4.3-.7 8.5-2 12.4-3.9 11.5-12.9 20.7-24.4 24.7-3.3 1.2-6.9 1.9-10.6 2.1v9.3c4.3-.2 8.5-.9 12.4-2.2 15.8-5 28.1-17.8 32.3-33.9 1.1-4 1.6-8.1 1.6-12.4 0-26.8-21.8-48.6-48.6-48.6z"/><path class="st8" d="M1415.4 427.1c0 1-.1 1.9-.4 2.8-1.2 4.5-5.3 7.7-10.1 7.7-5.8 0-10.5-4.7-10.5-10.5s4.7-10.5 10.5-10.5c3.4 0 6.4 1.6 8.3 4.1 1.4 1.7 2.2 4 2.2 6.4zM1574.6 334.9c-26.8 0-48.6 21.8-48.6 48.6h9.3c0-21.7 17.6-39.3 39.3-39.3 21.7 0 39.3 17.6 39.3 39.3 0 4.3-.7 8.5-2 12.4-3.9 11.5-12.9 20.7-24.4 24.7-3.3 1.2-6.9 1.9-10.6 2.1v9.3c4.3-.2 8.5-.9 12.4-2.2 15.8-5 28.1-17.8 32.3-33.9 1-4 1.6-8.1 1.6-12.4 0-26.8-21.8-48.6-48.6-48.6z"/><path class="st8" d="M1589.7 427.1c0 1-.1 1.9-.4 2.8-1.2 4.5-5.3 7.7-10.1 7.7-5.8 0-10.5-4.7-10.5-10.5s4.7-10.5 10.5-10.5c3.4 0 6.4 1.6 8.3 4.1 1.4 1.7 2.2 4 2.2 6.4zM1748.9 334.9c-26.8 0-48.6 21.8-48.6 48.6h9.3c0-21.7 17.6-39.3 39.3-39.3 21.7 0 39.3 17.6 39.3 39.3 0 4.3-.7 8.5-2 12.4-3.9 11.5-12.9 20.7-24.4 24.7-3.4 1.2-6.9 1.9-10.6 2.1v9.3c4.3-.2 8.5-.9 12.4-2.2 15.8-5 28.1-17.8 32.3-33.9 1-4 1.6-8.1 1.6-12.4 0-26.8-21.8-48.6-48.6-48.6z"/><path class="st8" d="M1763.9 427.1c0 1-.1 1.9-.4 2.8-1.2 4.5-5.3 7.7-10.1 7.7-5.8 0-10.5-4.7-10.5-10.5s4.7-10.5 10.5-10.5c3.4 0 6.4 1.6 8.3 4.1 1.4 1.7 2.2 4 2.2 6.4z"/><path class="st12" d="M1325.5 865.2h-56.7c-6.6 0-12.9-5.4-14.2-11.9l-10.9-56.7c-1.3-6.6 3.1-11.9 9.6-11.9h56.7c6.6 0 12.9 5.4 14.2 11.9l10.9 56.7c1.2 6.6-3.1 11.9-9.6 11.9zM1468.5 865.2h-56.7c-6.6 0-12.9-5.4-14.2-11.9l-10.9-56.7c-1.3-6.6 3.1-11.9 9.6-11.9h56.7c6.6 0 12.9 5.4 14.2 11.9l10.9 56.7c1.2 6.6-3.1 11.9-9.6 11.9z"/><path class="st8" d="M1611.5 865.2h-56.7c-6.6 0-12.9-5.4-14.2-11.9l-10.9-56.7c-1.3-6.6 3.1-11.9 9.6-11.9h56.7c6.6 0 12.9 5.4 14.2 11.9l10.9 56.7c1.2 6.6-3.1 11.9-9.6 11.9z"/><path class="st12" d="M896.5 865.2h-56.7c-6.6 0-12.9-5.4-14.2-11.9l-10.9-56.7c-1.3-6.6 3.1-11.9 9.6-11.9H881c6.6 0 12.9 5.4 14.2 11.9l10.9 56.7c1.2 6.6-3.1 11.9-9.6 11.9z"/><path class="st3" d="M834.3 695.1H810c-2.8 0-5.6-2.3-6.1-5.1l-4.7-24.4c-.5-2.8 1.3-5.1 4.1-5.1h24.4c2.8 0 5.6 2.3 6.1 5.1l4.7 24.4c.5 2.8-1.3 5.1-4.2 5.1z"/><path class="st12" d="M1039.5 865.2h-56.7c-6.6 0-12.9-5.4-14.2-11.9l-10.9-56.7c-1.3-6.6 3.1-11.9 9.6-11.9h56.7c6.6 0 12.9 5.4 14.2 11.9l10.9 56.7c1.2 6.6-3.1 11.9-9.6 11.9zM1182.5 865.2h-56.7c-6.6 0-12.9-5.4-14.2-11.9l-10.9-56.7c-1.3-6.6 3.1-11.9 9.6-11.9h56.7c6.6 0 12.9 5.4 14.2 11.9l10.9 56.7c1.2 6.6-3.1 11.9-9.6 11.9z"/><path class="st8" d="M1754.5 865.2h-56.7c-6.6 0-12.9-5.4-14.2-11.9l-10.9-56.7c-1.3-6.6 3.1-11.9 9.6-11.9h56.7c6.6 0 12.9 5.4 14.2 11.9l10.9 56.7c1.2 6.6-3.1 11.9-9.6 11.9z"/><path class="st12" d="M1301.7 742.2H1245c-6.6 0-12.9-5.4-14.2-11.9l-10.9-56.7c-1.3-6.6 3.1-11.9 9.6-11.9h56.7c6.6 0 12.9 5.4 14.2 11.9l10.9 56.7c1.3 6.5-3 11.9-9.6 11.9zM1444.7 742.2H1388c-6.6 0-12.9-5.4-14.2-11.9l-10.9-56.7c-1.3-6.6 3.1-11.9 9.6-11.9h56.7c6.6 0 12.9 5.4 14.2 11.9l10.9 56.7c1.3 6.5-3 11.9-9.6 11.9z"/><path class="st8" d="M1587.7 742.2H1531c-6.6 0-12.9-5.4-14.2-11.9l-10.9-56.7c-1.3-6.6 3.1-11.9 9.6-11.9h56.7c6.6 0 12.9 5.4 14.2 11.9l10.9 56.7c1.3 6.5-3 11.9-9.6 11.9zM1730.7 742.2H1674c-6.6 0-12.9-5.4-14.2-11.9l-10.9-56.7c-1.3-6.6 3.1-11.9 9.6-11.9h56.7c6.6 0 12.9 5.4 14.2 11.9l10.9 56.7c1.3 6.5-3 11.9-9.6 11.9z"/><path class="st12" d="M1350.6 995.7H1294c-6.6 0-12.9-5.4-14.2-11.9l-10.9-56.7c-1.3-6.6 3.1-11.9 9.6-11.9h56.7c6.6 0 12.9 5.4 14.2 11.9l10.9 56.7c1.2 6.5-3.1 11.9-9.7 11.9zM1493.6 995.7H1437c-6.6 0-12.9-5.4-14.2-11.9l-10.9-56.7c-1.3-6.6 3.1-11.9 9.6-11.9h56.7c6.6 0 12.9 5.4 14.2 11.9l10.9 56.7c1.2 6.5-3.1 11.9-9.7 11.9z"/><path class="st8" d="M1636.6 995.7H1580c-6.6 0-12.9-5.4-14.2-11.9l-10.9-56.7c-1.3-6.6 3.1-11.9 9.6-11.9h56.7c6.6 0 12.9 5.4 14.2 11.9l10.9 56.7c1.2 6.5-3.1 11.9-9.7 11.9z"/><path class="st12" d="M921.6 995.7h-56.7c-6.6 0-12.9-5.4-14.2-11.9l-10.9-56.7c-1.3-6.6 3.1-11.9 9.6-11.9h56.7c6.6 0 12.9 5.4 14.2 11.9l10.9 56.7c1.3 6.5-3 11.9-9.6 11.9zM1064.6 995.7h-56.7c-6.6 0-12.9-5.4-14.2-11.9l-10.9-56.7c-1.3-6.6 3.1-11.9 9.6-11.9h56.7c6.6 0 12.9 5.4 14.2 11.9l10.9 56.7c1.3 6.5-3 11.9-9.6 11.9zM1207.6 995.7h-56.7c-6.6 0-12.9-5.4-14.2-11.9l-10.9-56.7c-1.3-6.6 3.1-11.9 9.6-11.9h56.7c6.6 0 12.9 5.4 14.2 11.9l10.9 56.7c1.3 6.5-3 11.9-9.6 11.9z"/><path class="st8" d="M1779.6 995.7H1723c-6.6 0-12.9-5.4-14.2-11.9l-10.9-56.7c-1.3-6.6 3.1-11.9 9.6-11.9h56.7c6.6 0 12.9 5.4 14.2 11.9l10.9 56.7c1.2 6.5-3.1 11.9-9.7 11.9z"/><path class="st12" d="M1375.8 1126.2h-56.7c-6.6 0-12.9-5.4-14.2-11.9l-10.9-56.7c-1.3-6.6 3.1-11.9 9.6-11.9h56.7c6.6 0 12.9 5.4 14.2 11.9l10.9 56.7c1.3 6.5-3.1 11.9-9.6 11.9zM1518.8 1126.2h-56.7c-6.6 0-12.9-5.4-14.2-11.9l-10.9-56.7c-1.3-6.6 3.1-11.9 9.6-11.9h56.7c6.6 0 12.9 5.4 14.2 11.9l10.9 56.7c1.3 6.5-3.1 11.9-9.6 11.9z"/><path class="st8" d="M1661.8 1126.2h-56.7c-6.6 0-12.9-5.4-14.2-11.9l-10.9-56.7c-1.3-6.6 3.1-11.9 9.6-11.9h56.7c6.6 0 12.9 5.4 14.2 11.9l10.9 56.7c1.3 6.5-3.1 11.9-9.6 11.9z"/><path class="st12" d="M946.8 1126.2h-56.7c-6.6 0-12.9-5.4-14.2-11.9l-10.9-56.7c-1.3-6.6 3.1-11.9 9.6-11.9h56.7c6.6 0 12.9 5.4 14.2 11.9l10.9 56.7c1.3 6.5-3.1 11.9-9.6 11.9z"/><path class="st3" d="M1089.8 1126.2h-56.7c-6.6 0-12.9-5.4-14.2-11.9l-10.9-56.7c-1.3-6.6 3.1-11.9 9.6-11.9h56.7c6.6 0 12.9 5.4 14.2 11.9l10.9 56.7c1.3 6.5-3.1 11.9-9.6 11.9z"/><path class="st12" d="M1232.8 1126.2h-56.7c-6.6 0-12.9-5.4-14.2-11.9l-10.9-56.7c-1.3-6.6 3.1-11.9 9.6-11.9h56.7c6.6 0 12.9 5.4 14.2 11.9l10.9 56.7c1.3 6.5-3.1 11.9-9.6 11.9z"/><path class="st8" d="M1804.8 1126.2h-56.7c-6.6 0-12.9-5.4-14.2-11.9l-10.9-56.7c-1.3-6.6 3.1-11.9 9.6-11.9h56.7c6.6 0 12.9 5.4 14.2 11.9l10.9 56.7c1.3 6.5-3.1 11.9-9.6 11.9z"/><path class="st12" d="M1399.5 1249.2h-56.7c-6.6 0-12.9-5.4-14.2-11.9l-10.9-56.7c-1.3-6.6 3.1-11.9 9.6-11.9h56.7c6.6 0 12.9 5.4 14.2 11.9l10.9 56.7c1.3 6.6-3 11.9-9.6 11.9zM1542.5 1249.2h-56.7c-6.6 0-12.9-5.4-14.2-11.9l-10.9-56.7c-1.3-6.6 3.1-11.9 9.6-11.9h56.7c6.6 0 12.9 5.4 14.2 11.9l10.9 56.7c1.3 6.6-3 11.9-9.6 11.9z"/><path class="st8" d="M1685.5 1249.2h-56.7c-6.6 0-12.9-5.4-14.2-11.9l-10.9-56.7c-1.3-6.6 3.1-11.9 9.6-11.9h56.7c6.6 0 12.9 5.4 14.2 11.9l10.9 56.7c1.3 6.6-3 11.9-9.6 11.9z"/><path class="st12" d="M970.5 1249.2h-56.7c-6.6 0-12.9-5.4-14.2-11.9l-10.9-56.7c-1.3-6.6 3.1-11.9 9.6-11.9H955c6.6 0 12.9 5.4 14.2 11.9l10.9 56.7c1.3 6.6-3 11.9-9.6 11.9zM1113.5 1249.2h-56.7c-6.6 0-12.9-5.4-14.2-11.9l-10.9-56.7c-1.3-6.6 3.1-11.9 9.6-11.9h56.7c6.6 0 12.9 5.4 14.2 11.9l10.9 56.7c1.3 6.6-3 11.9-9.6 11.9zM1256.5 1249.2h-56.7c-6.6 0-12.9-5.4-14.2-11.9l-10.9-56.7c-1.3-6.6 3.1-11.9 9.6-11.9h56.7c6.6 0 12.9 5.4 14.2 11.9l10.9 56.7c1.3 6.6-3 11.9-9.6 11.9zM1006.1 672.7H856c-2.2 0-4-1.8-4-4s1.8-4 4-4h150.1c2.2 0 4 1.8 4 4s-1.8 4-4 4zM1010.7 690.9H860.5c-2.2 0-4-1.8-4-4s1.8-4 4-4h150.1c2.2 0 4 1.8 4 4 .1 2.2-1.7 4-3.9 4z"/><path class="st13" d="M845.1 537.4h-51.5c-4.2 0-7.7-3.5-7.7-7.7s3.5-7.7 7.7-7.7h51.5c4.2 0 7.7 3.5 7.7 7.7s-3.5 7.7-7.7 7.7zM986.5 537.4H935c-4.2 0-7.7-3.5-7.7-7.7s3.5-7.7 7.7-7.7h51.5c4.2 0 7.7 3.5 7.7 7.7-.1 4.2-3.5 7.7-7.7 7.7zM1127.8 537.4h-51.5c-4.2 0-7.7-3.5-7.7-7.7s3.5-7.7 7.7-7.7h51.5c4.2 0 7.7 3.5 7.7 7.7s-3.5 7.7-7.7 7.7zM1269.2 537.4h-51.5c-4.2 0-7.7-3.5-7.7-7.7s3.5-7.7 7.7-7.7h51.5c4.2 0 7.7 3.5 7.7 7.7s-3.5 7.7-7.7 7.7zM1410.6 537.4H1359c-4.2 0-7.7-3.5-7.7-7.7s3.5-7.7 7.7-7.7h51.5c4.2 0 7.7 3.5 7.7 7.7s-3.4 7.7-7.6 7.7zM1551.9 537.4h-51.5c-4.2 0-7.7-3.5-7.7-7.7s3.5-7.7 7.7-7.7h51.5c4.2 0 7.7 3.5 7.7 7.7s-3.5 7.7-7.7 7.7zM1693.3 537.4h-51.5c-4.2 0-7.7-3.5-7.7-7.7s3.5-7.7 7.7-7.7h51.5c4.2 0 7.7 3.5 7.7 7.7s-3.5 7.7-7.7 7.7z"/><path class="st3" d="M1367.4 743.3c-11.4 0-19.7-3.6-24.2-10.6-8.7-13.4-2-32.3 19.9-56 16-17.3 34.6-31 34.8-31.2.7-.5 1.8-.4 2.3.4.5.7.4 1.8-.4 2.3-.7.5-72.5 53.7-53.8 82.7 5.9 9.2 18.6 9.8 28.2 8.7 17.8-2.1 41-11.6 62-25.6 21.8-14.5 37.2-30.8 42.1-44.8 3.3-9.2 2.3-15.7-3-19.3-6.8-4.7-21-4.7-38 0-16.3 4.5-32.6 12.6-42.7 21.1-.7.6-1.7.5-2.3-.2-.6-.7-.5-1.7.2-2.3 10.4-8.8 27.3-17.2 43.9-21.8 18.2-5 33-4.8 40.7.5 4.6 3.2 9 9.7 4.2 23.1-5.2 14.6-21 31.5-43.4 46.4-21.5 14.3-45.2 24-63.5 26.2-2.3.2-4.7.4-7 .4z"/><path class="st14" d="m1664.9 649.9-5.8-11s2.9-19.7-21.7-32.1c0 0-9-3.7-14.1 3.7-4.7 6.8 8.9 5.5 8.2 17.1-.7 11.6 4.8 18.4 12.4 22.1l6.3 7.3 14.7-7.1z"/><path class="st15" d="M1897.7 623.5s-21.2 103.8-137.6 137.8c-36.3 10.6-118.9-109.1-118.9-109.1s2.9-11 21.1-8.5c0 0 80.4 53.2 90.5 59 9 5.1 68-65.9 95-77.4 26.9-11.5 49.9-1.8 49.9-1.8z"/><path transform="rotate(-100.492 1623.02 622.455)" class="st3" d="M1610.2 558h25.6v128.9h-25.6z"/><path class="st14" d="m1530.2 639.7 31.8 7.1-4.7-25.2zM1700.3 603.8l1.5 8c.9 4.9-2.3 9.6-7.2 10.5l-5.9 1.1-4.7-25.2 6.4-1.2c4.6-.9 9.1 2.2 9.9 6.8z"/><path class="st15" d="M2036.7 1276.3s14.4 13.2 11.6 22.5c-2.8 9.4-15.9 15.6-17.6 27.1-1.8 11.4-8.8 17.7-15.1 17.7h-30.2s-4.7-8.1 6.6-10.5c11.3-2.4 15.5-15.9 14.8-28.4-.7-12.5 1.1-29.1 1.1-29.1l24-5.5 4.8 6.2zM1859.5 1310.3s2.6 30-3.7 33.1l-81.1-.2s0-9.4 13-11.4c13-2.1 35.9-9.7 39.8-26.7 3.9-17 32 5.2 32 5.2z"/><path class="st3" d="M1791 886.6s4.3 52.6 9.3 115.8c6.8 85.9 15.1 191.3 15.9 211.3 1.4 34.7 7 90.2 7 90.2s13.4 13.2 40.2 7.6c0 0 23.9-79.2 30.7-163 .1-1.4.2-2.8.3-4.1 6.3-85.3 16.2-265 16.2-265l-119.6 7.2z"/><path d="M1791 886.6s4.3 52.6 9.3 115.8l93.8 146.1c.1-1.4.2-2.8.3-4.1 6.3-85.3 16.2-265 16.2-265l-119.6 7.2z" style="fill:#6c72dd"/><path class="st3" d="M1810.6 892.9s77.1 190.4 127.9 279.9c50.7 89.5 66.6 114.5 66.6 114.5s29.1-11.4 31.7-19.3c0 0-19.4-172.8-53.4-214.9-19.2-23.8-41.7-95.2-42.8-120.2-1.1-25-6.9-74.4-6.9-74.4l-123.1 34.4z"/><path class="st14" d="M1912.1 599.4s-52.2 25.2-82.3 15.8c0 0 7.4-9.3 20.4-16.3-1-6-1.9-11.3-2.3-15.7-1.3-10.3-1.3-16.1-1.3-16.1l20.1-15.8 19.1-15.2c-1.5 42.7 26.3 63.3 26.3 63.3z"/><path class="st17" d="M1787.7 891c.9.8 2 1.2 3.1 1.2 11.3-.2 44.3 6 72.2 3.2 23.6-2.3 44.4-9.1 66.8-18.9 3-1.4 9.8-5 9.7-8.2-.1-3.6-.5-8.8-.9-15.4-.9-13-2.3-31.5-2.7-53.4-.3-16.2-.1-34.4 1-53.6.1-1.3.1-2.6.2-3.9.3-7 .5-14.1.5-21.1.1-22.3-1.5-43.6-4.7-62.7-5.7-33.1-16.3-58.9-32.1-70.4-2.1-1.6-15.1 4.7-27.1 10.5-11 5.4-22 5.9-32.4 3.9l-10.4 9.1c-12.6 11.5-26.5 27.3-32.6 51.3-5.1 20.3-8.1 57-9.7 95.1-.8 17.3-1.4 34.6-1.6 51.2v.6c-.1 1.7-.1 3.4-.1 5.1-.5 42.2 0 75.8.8 76.4z"/><path d="M1886.2 552.4s-13.2 24-38.3 30.8c-1.3-10.3-1.3-16.1-1.3-16.1l20.1-15.8 19.5 1.1z" style="fill:#ed985f"/><path class="st14" d="M1837.4 566.4s49.8 8.1 54.5-22.5c4.7-30.6 14.2-50.2-17.3-56.7-31.6-6.5-39.6 4.3-43.7 14.1-4.1 10-6.3 62.2 6.5 65.1z"/><path d="M1910 483.6c.5-.5 1.5-.9 3.8-1.1 0 0-1.9-1.2-4.3-1.2-.5-3.2-2.2-8.9-7.8-10.3 0 0 3 1.6 3.4 5-6.4-6.6-20.2-11.4-58.4-8.4-50.3 4-33.7 36.2-27.2 40 6.5 3.8 22.9-6.7 35-5.7 12.1 1 14.4 18.5 18.6 20.9 4.1 2.4 2.5-1.8 8.1-4.4 5.6-2.5 6.1 6.7 4.5 12.7-1.6 6 6 13.9 6 13.9l7.7-8.3c7.7-8.3 15-43.6 11.5-51.1-.3-.6-.6-1.3-.9-2z" style="fill:#2c3a64"/><path class="st14" d="M1659 638.3s1.7-6.8-3-9.8c-4.7-3-9-11.3-11-10.2-4.1 2.3 2.2 9.5 1.1 18.5-.4 3.2 6.9 11.5 12.9 1.5z"/><path class="st15" d="M1936 799.5c-.3-16.2-.1-34.4 1-53.6.1-1.3.1-2.6.2-3.9-4.7-23.5-11.9-44.3-22.4-44.9 0-.1-31.4 49.3 21.2 102.4z"/><path class="st14" d="M1977.5 884.5s-2.6 25.4-5.5 30.3c-2.9 4.8-15.1 20.2-20.3 23.2-5.2 3 3.2-20.3 2.1-24.8s-4.3 8.3-6.6 8.6c-2.3.3-1.7-11.2-1.8-15.4-.1-4.2 11.2-14.5 15.1-23.5 4.1-8.9 17 1.6 17 1.6z"/><path class="st17" d="M1900.9 587.5s31.5 14.9 46.6 37.9c23.4 35.6 50.6 165.2 51.1 177.3.5 12-19.8 96.8-19.8 96.8s-20.6-1.4-25.9-11.8c0 0 4.1-87.1 1.5-92.7-2.6-5.6-85.9-116.8-76.6-140.6 9.4-23.7 23.1-66.9 23.1-66.9z"/><path class="st3" d="m1546.5 628.8 1.6 14.9-17.9-4z"/><path class="st0" d="M2228.3 1343.1h-90.8c-4.9-4.1 3.4-13.5 12-14.1 3.7-.3 8.5.5 13.9 1.6 1.2-16.6 8.4-91.2 35.3-88.2 30.2 3.4 0 32.9-8.5 50.3-6.3 12.9-13 31.5-16.1 40.2 2.5.5 5 1.1 7.6 1.5 4-12.3 18.9-53.7 37.9-51.3 22.3 2.8 13.3 19.4-2.5 29.3-11.6 7.2-25.8 17.5-32.6 22.5 5.7.9 11.7 1.6 17.8 1.4 15.4-.3 23 4.3 26 6.8zM155.6 1338.8c-4.8-7.6-19.3-27.2-38.6-24.6-21 2.8 23.2 16.7 36.8 24.6-3 0-5.6-.2-7.5-.9-9.1-3.2-24.6 3-29.5 5.1H203c-.6-2.1-2.1-5.4-6.2-7.9-1.4-.9-4.3-1-7.9-.7 5.1-6 8.7-25.3-5.6-20.4-10.4 3.6-10.4 15.4-9.4 22.4-2.2.3-4.5.7-6.7 1-4.3-21.9-19.5-86-50.2-87.7-31.2-1.7 26.4 66.5 45.6 88.3-2.5.4-4.9.7-7 .8z"/></svg>