<svg xmlns="http://www.w3.org/2000/svg" viewBox="0 0 250 90" style="enable-background:new 0 0 250 90" xml:space="preserve"><path vector-effect="non-scaling-stroke" d="M209.3 32.3c12.6.2 25.9 15.3 40.7 5"/><text transform="translate(195 20)">+14%</text><path d="M0 57.5s13-11.3 27.5-7.7 31.7 18.4 45.4 16.4c0 0 43.4-1.7 54.7-39.7 11.3-38 31.5 26.1 45.9 24.7 14.5-1.4 12.4-25 33.2-19"/><path d="M206.6 32.2c0-1.5 1.2-2.7 2.7-2.7 1.5 0 2.7 1.2 2.7 2.7 0 1.5-1.2 2.7-2.7 2.7-1.4 0-2.7-1.2-2.7-2.7z"/></svg>