<svg xmlns="http://www.w3.org/2000/svg" xmlns:xlink="http://www.w3.org/1999/xlink" viewBox="0 0 750 500" style="enable-background:new 0 0 750 500" xml:space="preserve"><style>.st1{fill:#010a0f;stroke:#010a0f;stroke-width:.6379;stroke-miterlimit:10}.st3{fill:#ffe2df}.st4{fill:#ff8f7e}.st6{fill:#fff}.st7{fill:#ffb3a8}.st8{fill:#00042b}.st9{fill:#06002b}.st10{fill:#cf5f36}.st11{fill:#010a0f}.st15{fill:#adbcff}.st18{fill:#e6ebff}.st19{fill:#08175c}.st24,.st25{fill:none;stroke:#adbcff;stroke-width:1.1919;stroke-miterlimit:10}.st25{fill:#010a0f;stroke:#010a0f;stroke-width:1.2215}.st26{fill:#ffb9ae}.st35{opacity:.37;fill:#1f235b}.st36{fill:none;stroke:#ff5c4c;stroke-width:1.6266;stroke-miterlimit:10}.st37{fill:#ff5c4c}.st38{fill:#1a1a4d;stroke:#1a1a4d;stroke-width:1.2199;stroke-linecap:round;stroke-linejoin:round;stroke-miterlimit:10}</style><pattern x="77.4" y="-2420.3" width="103" height="31.8" patternUnits="userSpaceOnUse" id="Nueva_muestra_de_motivo_7" viewBox="0 -31.8 103 31.8" style="overflow:visible"><path style="fill:none" d="M0-31.8h103V0H0z"/><path class="st1" d="M11.5-25.9c0 3.1-2.5 5.6-5.6 5.6-3.1 0-5.6-2.5-5.6-5.6s2.5-5.6 5.6-5.6c3.1.1 5.6 2.6 5.6 5.6zM37.4-25.9c0 3.1-2.5 5.6-5.6 5.6s-5.6-2.5-5.6-5.6 2.5-5.6 5.6-5.6 5.6 2.6 5.6 5.6zM63.4-25.9c0 3.1-2.5 5.6-5.6 5.6s-5.6-2.5-5.6-5.6 2.5-5.6 5.6-5.6 5.6 2.6 5.6 5.6zM89.3-25.9c0 3.1-2.5 5.6-5.6 5.6-3.1 0-5.6-2.5-5.6-5.6s2.5-5.6 5.6-5.6c3.1.1 5.6 2.6 5.6 5.6zM24.9-9.1c0 3.1-2.5 5.6-5.6 5.6S13.7-6 13.7-9.1c0-3.1 2.5-5.6 5.6-5.6s5.6 2.5 5.6 5.6zM50.8-9.1c0 3.1-2.5 5.6-5.6 5.6S39.6-6 39.6-9.1c0-3.1 2.5-5.6 5.6-5.6s5.6 2.5 5.6 5.6zM76.7-9.1c0 3.1-2.5 5.6-5.6 5.6-3.1 0-5.6-2.5-5.6-5.6 0-3.1 2.5-5.6 5.6-5.6 3.1 0 5.6 2.5 5.6 5.6zM102.7-9.1c0 3.1-2.5 5.6-5.6 5.6-3.1 0-5.6-2.5-5.6-5.6 0-3.1 2.5-5.6 5.6-5.6 3.1 0 5.6 2.5 5.6 5.6z"/></pattern><path d="M534.5 428c1.9 0 1.9-3 0-3-2 0-2 3 0 3z" style="fill:#eaf4ff" id="BACKGROUND"/><g id="OBJECTS"><path class="st3" d="M505.1 26.7C437 26.7 381.8 81.9 381.8 150v168.8l70.1-57.6c16.1 7.7 34.1 12 53.2 12 68.1 0 123.3-55.2 123.3-123.3S573.2 26.7 505.1 26.7z"/><path class="st4" d="m619.7 273.1-135.6-1.2 18.4-80.7c1.3-5.5 17.7-9.4 23.3-9.4h99.3c7.8 0 13.5 7.2 11.8 15.9l-17.2 75.4z"/><path d="M526.7 211.6s-34.8 30.9-40.1 30.2c-5.2-.7-80.2-69.9-80.2-69.9l-16.9-14.8s26.2-6.9 45.5 13.3c0 0 24.8 23.8 36.4 20.9 11.6-2.8 41.3-29.3 41.3-29.3l14 49.6z" style="fill:#ffada1"/><path class="st6" d="M528.3 146s26.4-14.2 41.6.1c16.5 15.4-33.5 71.1-48.7 74.7l-18.3-52.6 25.4-22.2z"/><path class="st6" d="M577.4 140.7s31.7 3.8 34.2 35.8c2.5 32-6.2 97.2-6.2 97.2l-106.4-.9 14.8-85.4c.4-8.2 10.4-39.5 13.2-39.8l44.4-11.1 6 4.2z"/><path class="st7" d="M610.5 220s-6.1 50.7-10.5 53.7c-4.4 2.9-102.5-.2-102.5-.2l-20.9-.8s15.1-23.2 42.9-20.8c0 0 35.3.9 42.2-8.9 6.8-9.8 11.5-30.2 11.5-30.2l37.3 7.2zM560.8 112.6l5.5 21.2-19.9 21.9-3.1-8.1-2.6-19.1 15.9-18.9s3.1 1.5 3.6 2.2c.4.6.6.8.6.8z"/><path class="st8" d="m556.6 109.6-15.9 18.9 1.6 13.1s14.6-9.3 13.2-22.8"/><path class="st9" d="M561.7 100.5s-2.9.9-4.2 4.3l-12.1-19.7s-7.7-3-10.5.5-5.3 5.8-7.8 5.5-5.3-3.5-5.3-3.5-16.6-12.1-12.6-16.1c4-4 33-3.9 41.6-1 8.2 2.8 13.3 6.9 12 30.2"/><path class="st7" d="M557.1 102.3c.4.5 1.1.5 1.4 0 1.1-1.8 3.5-4.4 6 .9 3.3 7.2-5.1 8-5.5 9.1-.8 2.4-3.2 10.4-8.8 14.7-3.4 2.6-9 4.3-14.1 1.4s-6.3.3-15.1-41.9c0 0 2.8 3.1 5.8 3.4 3 .2 6.4-4.6 9.3-6.2 2.4-1.3 6.8-4.4 12 3.5 2.4 3.5 6.9 12.1 9 15.1z"/><path class="st6" d="M528.7 116.5s2.8.6 8.8-1.5c0 0-2.2 5.2-4.8 5-2.7-.3-4-3.5-4-3.5z"/><path class="st10" d="m563.1 102.9-3.5 4.2s-.3-8 3.5-4.2z"/><path class="st8" d="M531.5 106.4c.2.9.8 1.6 1.2 1.4.5-.1.6-.9.4-1.9-.2-.9-.8-1.6-1.2-1.4-.5.1-.7 1-.4 1.9zM525.9 106.9c.2.9.8 1.6 1.2 1.4.5-.1.6-.9.4-1.9-.2-.9-.8-1.6-1.2-1.4-.5.2-.6 1-.4 1.9zM536.6 97.5c1.4.5-1.4-2.8-3.2-2.8-1.8 0-3.2 1.2-3.2 2.8 0 0 3-1.3 6.4 0zM523.9 100.3c1.7-.7 3-.7 3-.7-.6-1.3-2.1-1.9-3.6-1.6"/><path class="st10" d="m528.4 106.2-.8 7.6c0 .1.1.2.2.2l3-.5c.1 0 .2-.1.1-.2l-2.3-7.1c.1-.2-.2-.2-.2 0z"/><path class="st11" d="M544.5 171.2c0 1.2-1 2.1-2.1 2.1-1.2 0-2.1-1-2.1-2.1 0-1.2 1-2.1 2.1-2.1s2.1 1 2.1 2.1zM544.3 180.1c0 1.2-1 2.1-2.1 2.1-1.2 0-2.1-1-2.1-2.1 0-1.2 1-2.1 2.1-2.1 1.1-.1 2.1.9 2.1 2.1z"/><path class="st6" d="m566.7 126 9 13.2-28.3 29-3.1-16zM541.4 136.4c-.5.2-5.8 7.2-5.8 7.2l.4 21.7 8.2-14.4-2.8-14.5z"/><path style="fill:none;stroke:#010a0f;stroke-width:.5833;stroke-miterlimit:10" d="m577 140.4-29.2 28.4-3.5-16.6-8.3 13.1-2-20.6"/><path class="st11" d="m535.9 165.4 9.7-8.3-1.3-4.9z"/><path d="M440.7 115.6H341c-9.1 0-16.5-7.4-16.5-16.5s7.4-16.5 16.5-16.5h99.7c9.1 0 16.5 7.4 16.5 16.5s-7.4 16.5-16.5 16.5z" style="fill:#cfdaff"/><path class="st11" d="M386.2 110.3V91.4l13.5 9.4zM436.1 101.5c0-3.5-2.8-6.3-6.3-6.3s-6.3 2.8-6.3 6.3 2.8 6.3 6.3 6.3c3.5.1 6.3-2.8 6.3-6.3z"/><path class="st4" d="M361.8 101.5c0-3.5-2.8-6.3-6.3-6.3s-6.3 2.8-6.3 6.3 2.8 6.3 6.3 6.3c3.4.1 6.3-2.8 6.3-6.3z"/><path transform="rotate(-180 502.66 270.111)" class="st11" d="M468.4 266.1h68.4v8h-68.4z"/><path style="fill:#adbcff;stroke:#adbcff;stroke-width:1.0988;stroke-miterlimit:10" d="M536.9 266.1h-44.7l3.5 8h41.2z"/><path class="st15" d="M382.9 274.1h107.9l-26.1-74.3H356.9z"/><path class="st11" d="M417.5 239c0-3.7 3-6.8 6.8-6.8 3.7 0 6.8 3 6.8 6.8 0 3.7-3 6.8-6.8 6.8s-6.8-3-6.8-6.8z"/><path style="fill:#010a0f;stroke:#010a0f;stroke-width:1.7498;stroke-miterlimit:10" d="M383.5 274.2h241.3"/><path class="st3" d="M700.8 61.3c0 2.8-2.3 5-5 5-2.8 0-5-2.3-5-5 0-2.8 2.3-5 5-5 2.7-.1 5 2.2 5 5zM660.4 192.4c0 2.4-1.9 4.3-4.3 4.3s-4.3-1.9-4.3-4.3 1.9-4.3 4.3-4.3 4.3 1.9 4.3 4.3z"/><path d="M404.6 54.7c0 4.3-3.5 7.8-7.8 7.8S389 59 389 54.7s3.5-7.8 7.8-7.8 7.8 3.5 7.8 7.8z" style="fill:none;stroke:#ffe2df;stroke-width:1.1665;stroke-miterlimit:10"/><circle class="st3" cx="596.8" cy="45.7" r="4.3"/><circle class="st18" cx="682" cy="148.8" r="33"/><path class="st15" d="m722.6 147.4-34.1-.4c-1.2 0-2.3.7-2.9 1.8l-3.3 6.6c-.2.4-.7.2-.7-.2l-.2-8.3.3-33.2c0-3.3 2.7-5.9 5.9-5.8l35.3.4c3.3 0 5.9 2.7 5.8 5.9l-.3 27.3c.1 3.4-2.6 6-5.8 5.9z"/><path class="st6" d="M696.9 119.3c0 2-1.6 3.6-3.6 3.5-2 0-3.6-1.6-3.5-3.6 0-2 1.6-3.6 3.6-3.5 2 0 3.5 1.6 3.5 3.6z"/><path class="st19" d="m721 120-19.1-.2c-.5 0-1-.5-1-1s.5-1 1-1l19.1.2c.5 0 1 .5 1 1s-.5 1-1 1zM721 122.9l-13.1-.1c-.5 0-1-.5-1-1s.5-1 1-1l13.1.2c.5 0 1 .5 1 1s-.5.9-1 .9z"/><path class="st6" d="m702.5 135.2-10-.1c-.6 0-1-.5-1-1.1 0-.6.5-1 1.1-1l10 .1c.6 0 1 .5 1 1.1-.1.5-.5 1-1.1 1zM709.3 138.6l-17-.2c-.5 0-1-.5-1-1s.5-1 1-1l17 .2c.5 0 1 .5 1 1 0 .6-.5 1-1 1z"/><path class="st3" d="m642.9 160.2 27.8.3c1 0 1.9.6 2.3 1.5l2.5 5.5c.1.3.6.2.6-.1l.3-6.8.3-27.1c0-2.6-2.1-4.8-4.7-4.8l-28.7-.3c-2.6 0-4.8 2.1-4.8 4.7l-.2 22.3c-.2 2.6 2 4.8 4.6 4.8z"/><path d="m656.8 154-5.2-.1c-.2 0-.3-.2-.3-.4l.1-9c0-.2.2-.3.4-.3l5.2.1c.2 0 .3.2.3.4l-.1 9c0 .1-.2.3-.4.3z" style="fill:#607af0"/><path d="m650.3 153.9-5.3-.1c-.2 0-.3-.1-.3-.3l.1-5.3c0-.2.1-.3.3-.3l5.3.1c.2 0 .3.1.3.3l-.1 5.3c0 .2-.1.3-.3.3z" style="fill:#3a4da1"/><path class="st15" d="m663.3 154.1-5.2-.1c-.2 0-.3-.2-.3-.4l.1-14.3c0-.2.2-.3.4-.3l5.2.1c.2 0 .3.2.3.4l-.1 14.3c0 .1-.2.3-.4.3z"/><path d="M669 154.1h-4.2c-.3 0-.6-.3-.6-.6l.2-18.2c0-.3.3-.6.6-.6h4.2c.3 0 .6.3.6.6l-.2 18.2c0 .4-.2.6-.6.6z" style="fill:#d7deff"/><circle transform="rotate(-22.172 645.233 75.443)" class="st18" cx="645.3" cy="75.4" r="23"/><path class="st15" d="m625.9 73.7-1.3 1.6c-.4.4-.3 1.1.1 1.5 1.3 1.2 2.7 2.3 4.3 3 .5.2 1.1.1 1.4-.4l1.1-1.8c.3-.4.7-.6 1.2-.5.8.2 1.6.4 2.4.4.4 0 .8.3.9.8l.7 2.2c.2.5.6.8 1.2.8 1.8-.2 3.6-.7 5.2-1.5.5-.2.7-.8.6-1.3l-.7-2.1c-.1-.4 0-.9.4-1.2.3-.2.7-.5 1-.8.3-.3.6-.5.8-.8.3-.3.8-.4 1.2-.3l2.1.9c.5.2 1.1 0 1.3-.4 1-1.5 1.7-3.2 2.1-5 .1-.5-.2-1.1-.7-1.3l-2.1-.8c-.4-.2-.7-.6-.7-1 0-.9 0-1.7-.2-2.6-.1-.5.2-1 .6-1.2l1.8-.8c.5-.2.8-.8.6-1.4-.6-1.7-1.5-3.3-2.6-4.7-.3-.4-.9-.5-1.3-.3l-2.2 1.1c-.4.2-.8.1-1.1-.1-.6-.5-1.3-1-1.9-1.3-.4-.2-.6-.7-.5-1.2l.5-2c.1-.5-.2-1.1-.7-1.3-1.7-.6-3.5-.9-5.3-.9-.5 0-1 .4-1.1.9l-.4 2.3c-.1.4-.4.8-.8.9-.8.1-1.6.4-2.3.7-.4.2-.9 0-1.2-.3l-1.4-1.6c-.4-.4-1-.5-1.4-.2-.7.5-1.4 1-2.1 1.6-.7.6-1.3 1.2-1.9 1.9-.3.4-.3 1.1.1 1.5l1.5 1.5c.3.3.4.9.2 1.3-.4.8-.8 1.6-1 2.4-.1.5-.6.8-1 .8h-2.1c-.6 0-1 .4-1.1 1-.2 1.8-.1 3.6.3 5.3.1.5.6.9 1.2.9l2.1-.2c.5 0 .9.2 1.1.7.3.8.8 1.6 1.3 2.3.1.1.1.7-.2 1zm1.9-9.1c2.1-10.4 15.7-9.6 16.6 1v.3c-2.1 10.4-15.7 9.6-16.6-1v-.3z"/><path class="st19" d="m647.1 93.8-1 1.3c-.3.4-.3.9.1 1.2 1 1 2.2 1.8 3.4 2.5.4.2.9.1 1.1-.3l.9-1.4c.2-.3.6-.5 1-.4.6.2 1.3.3 1.9.4.3 0 .6.3.7.6l.6 1.8c.1.4.5.7.9.6 1.4-.2 2.9-.6 4.2-1.2.4-.2.6-.6.5-1.1l-.5-1.7c-.1-.4 0-.7.3-1 .3-.2.5-.4.8-.6.2-.2.5-.4.7-.7.2-.3.6-.3 1-.2l1.7.7c.4.2.9 0 1.1-.4.8-1.2 1.3-2.6 1.7-4 .1-.4-.1-.9-.5-1l-1.7-.7c-.3-.1-.6-.5-.5-.8 0-.7 0-1.4-.1-2.1-.1-.4.1-.8.5-.9l1.5-.7c.4-.2.6-.7.5-1.1-.5-1.4-1.2-2.6-2.1-3.8-.3-.3-.7-.4-1.1-.3l-1.8.8c-.3.1-.7.1-.9-.1-.5-.4-1-.8-1.6-1.1-.3-.2-.5-.6-.4-1l.4-1.6c.1-.4-.1-.9-.6-1-1.4-.5-2.8-.7-4.2-.7-.4 0-.8.3-.9.7l-.3 1.8c-.1.3-.3.6-.7.7-.6.1-1.3.3-1.9.5-.3.1-.8 0-1-.3l-1.1-1.3c-.3-.3-.8-.4-1.2-.2-.6.4-1.2.8-1.7 1.3s-1 1-1.5 1.6c-.3.3-.3.9.1 1.2l1.2 1.2c.3.3.3.7.1 1-.3.6-.6 1.3-.8 2-.1.4-.4.6-.8.6h-1.7c-.4 0-.8.3-.9.8-.2 1.4-.1 2.9.2 4.3.1.4.5.7.9.7l1.7-.2c.4 0 .7.2.9.5.3.6.6 1.3 1 1.9.2.5.1.9-.1 1.2zm1.5-7.3c1.7-8.4 12.6-7.7 13.4.8v.3c-1.7 8.4-12.6 7.7-13.4-.8v-.3z"/><path d="M455.3 294.9c0 3.7-3 6.6-6.6 6.6-3.7 0-6.6-3-6.6-6.6s3-6.6 6.6-6.6c3.6 0 6.6 3 6.6 6.6z" style="fill:none;stroke:#adbcff;stroke-width:1.1513;stroke-miterlimit:10"/><path class="st15" d="M351.9 268.2c0 2.3-1.9 4.1-4.1 4.1s-4.1-1.9-4.1-4.1c0-2.3 1.9-4.1 4.1-4.1s4.1 1.8 4.1 4.1z"/><path class="st24" d="M68.2 366.7c0 1.5-1.2 2.8-2.8 2.8-1.5 0-2.8-1.2-2.8-2.8 0-1.5 1.2-2.8 2.8-2.8 1.5 0 2.8 1.3 2.8 2.8zM143.1 475.3c0 3.3-2.7 5.9-5.9 5.9s-5.9-2.7-5.9-5.9c0-3.3 2.7-5.9 5.9-5.9s5.9 2.6 5.9 5.9zM134.8 215.7c0 3.3-2.7 5.9-5.9 5.9-3.3 0-5.9-2.7-5.9-5.9 0-3.3 2.7-5.9 5.9-5.9s5.9 2.6 5.9 5.9z"/><circle class="st18" cx="216.8" cy="329.4" r="128.4"/><path class="st15" d="M127.4 450h152.1L257 337.9c-1.5-7.6-7.5-13-14.4-13H120.7c-9.5 0-16.5 10-14.4 20.5L127.4 450z"/><path class="st25" d="M216.1 420.2c-14.3 8.3-53.2 9.1-53.2 9.1s-16.6-160.9 41-193.1c10.4-4.4 36.1.8 44.4 9.3 3 3.1 8.1 15.2 6.7 19.2l-26.3 81.5"/><path class="st25" d="m248.2 268.2 39 119.2-56.3-49z"/><path class="st26" d="M211.1 272.7c-.1.6-.6.9-1.1.8-2.2-.6-7.6-1.5-9.6 4.4-2 6 5.9 9.4 9.2 10.5 1 .3 1.8 1 2.2 2 1.5 2.9 6 13.9 9.5 23.8 3 8.6 1.8 29.5 1.8 29.5s24.4.6 36.2-4c0 0-16.8-31.1-16.2-38.8 0-.2 14.3-.8 14.4-25.8.1-23.6-17.4-26.7-21.4-27-3.5-.4-19.9-3.4-25 24.6z"/><path class="st11" d="M243.6 300.7s-2.1.6-7 .8c-1.2.1-3.4-.1-5.5-.5-1.2-.3-1.9 1.3-1 2.1 0 0 16.1 14.9 17 10.8.8-3.2-4.9-10.2-3.5-13.2z"/><circle class="st6" cx="208.1" cy="288.5" r="6"/><circle class="st6" cx="208.1" cy="299.9" r="6"/><path class="st26" d="M340.5 314.3s5.4-24.7 7.4-26.3c2-1.6.3 14.8 2.4 14.1 0 .1-7.4 10.6-9.8 12.2z"/><path class="st26" d="M258 390.6c-3.9-3.5-8.1-7.3-12.6-11.6l14.1-26.4c-2.6-5.2-4.7-9.8-5.8-12.7-.7-1.9-.2-4.1.1-4.1 5.9.6 41 41.9 46.9 47.6 1.8 1.8 4.9.2 6-2l33.4-67c.8-1.9 10.9-13.5 17.8-34.3 7.2 5.7 5.3 23.3 3.7 31 0 0-23.6 99-47.9 113 0 0-32.1 3.7-52.3-30.5-2 1.5-3.3 2.6-3.3 2.6-6.1-3.4-4.4-4.9-.1-5.6z"/><path class="st6" d="M192.4 341.6s11.4-5.2 20.7-8.9c9.3-6.3 9.6-14.4 9.6-14.4 21.8-2.6 26.6-.2 26.6-.2 4 4.8 8.9 15.8 8.9 15.8-.6 1.6 19.9 29.7 23 45 2.9 14.5 13.4 59.3 13.4 65l-89 .8s-19.6-83.6-13.2-103.1z"/><pattern id="SVGID_1_" xlink:href="#Nueva_muestra_de_motivo_7" patternTransform="translate(1324.422 885) scale(1.1919)"/><path d="M192.4 341.6s11.4-5.2 20.7-8.9c9.3-6.3 9.6-14.4 9.6-14.4 21.8-2.6 27.4.6 27.4.6 4 4.8 8.1 15 8.1 15-.6 1.6 19.9 29.7 23 45 2.9 14.5 13.4 59.3 13.4 65l-89 .8s-19.6-83.6-13.2-103.1z" style="fill:url(#SVGID_1_)"/><path class="st26" d="M208.2 368.2c2.5-11.4 6.1-29.4 5.9-35.9 0 0-15.4 6.3-19.6 7.8v.2c-3.4 1.3-7.6 3-9.9 4.3-13.7 7.8-9.7 43.2-10.4 57.9-.6 13.5-7.5 46.5 27 47.1 34.4.6 113.7-4 113.7-4s-2.7-17.8-20.6-18.1c-17.9-.3-58.6-3.2-71.9-10.1-13.1-6.8-14.3-31.5-14.2-49.2z"/><path d="M203.4 280.4s1.1-8.4 8.1.4" style="fill:#de5d49"/><path d="M233.7 276.1c3.2.8 5.2 4.1 4.3 7.3-.8 3.2-4.1 5.2-7.3 4.3-3.2-.8-5.2-4.1-4.3-7.3.8-3.2 4.1-5.2 7.3-4.3z" style="fill:#f58c7c"/><path class="st6" d="m254.8 281.1-13.3 1.9s3.6 6.2 7.4 5.3c3.9-.9 5.9-7.2 5.9-7.2z"/><path d="m249 274.1-.4 6.7 3.4-.5c.6-.1.9-.8.6-1.3l-3.6-4.9z" style="fill:#dc6856"/><path class="st11" d="M237.6 267.3c-1.1.9.5-3 2.1-3.5s3.3.1 3.8 1.5c-.1 0-3.2-.2-5.9 2zM255.7 263.5c-1.7-.3-3.9.8-4.1 2.3 0 0 2.4-.7 4.7.1M243.7 273.7c.1 1.2.7 2.1 1.3 2 .6-.1.9-1.1.8-2.2-.1-1.2-.7-2.1-1.3-2-.6 0-.9 1-.8 2.2zM252.3 272.1c.1 1.1.7 2 1.2 1.9.5-.1.9-1 .8-2.1-.1-1.1-.7-2-1.2-1.9-.6 0-.9 1-.8 2.1z"/><path class="st25" d="M249.3 259.7s-22.3 1.5-40.4 7.9c0 0 12.4-57.3 40.4-7.9z"/><path class="st3" d="M139.2 275.8h-102c-9.3 0-16.9-7.6-16.9-16.9 0-9.3 7.6-16.9 16.9-16.9h102c9.3 0 16.9 7.6 16.9 16.9-.1 9.3-7.6 16.9-16.9 16.9z"/><path class="st11" d="M83.4 270.3V251l13.7 9.7z"/><path class="st4" d="M134.5 261.4c0-3.6-2.9-6.5-6.5-6.5s-6.5 2.9-6.5 6.5 2.9 6.5 6.5 6.5 6.5-2.9 6.5-6.5z"/><path class="st11" d="M58.3 261.4c0-3.6-2.9-6.5-6.5-6.5s-6.5 2.9-6.5 6.5 2.9 6.5 6.5 6.5 6.5-2.9 6.5-6.5z"/><path class="st15" d="M434.7 444.3h46.9v6.2h-46.9z"/><path class="st15" d="M486.5 412.7c-2.4 0-4.7.6-6.8 1.7v-2.8h-43.8v19c0 7.7 6.3 14 14 14h15.8c4.6 0 8.7-2.3 11.3-5.7 2.7 2.3 6 3.5 9.6 3.5 8.2 0 14.8-6.6 14.8-14.8-.1-8.3-6.7-14.9-14.9-14.9zm0 28c-3.2 0-6.3-1.2-8.7-3.3 1.2-2 1.8-4.4 1.8-6.9v-14.3c2.1-1.3 4.4-1.9 6.8-1.9 7.3 0 13.2 5.9 13.2 13.2.2 7.3-5.8 13.2-13.1 13.2z"/><path class="st11" d="M218.4 440.4h88.1v10.3h-88.1z"/><path class="st4" d="M218.4 440.4H276l-4.5 10.3h-53.1zM416.7 450.7H277.8l33.5-95.7h138.9z"/><circle transform="rotate(-14.655 363.496 405.584)" class="st11" cx="363.4" cy="405.5" r="8.7"/><path class="st6" d="M163.4 451.1h-19c-5.7 0-10.4-4.7-10.4-10.4v-27.9h39.8v27.9c0 5.7-4.6 10.4-10.4 10.4z"/><path class="st6" d="M163.4 451.1h-19c-5.7 0-10.4-4.7-10.4-10.4v-27.9"/><path class="st11" d="M144.9 381.9c-1.6-1.8-3.2-3.6-4.9-5.2-2.3-2.3-4.6-4.6-7.4-6.3-.9 1.6-2.4 3.1-4.1 2.8-1.9-.2-3.2-2.3-3.7-4.1l-.2.2c-.5.5-.7 1.1-.9 1.8-.3 1.1-.4 2.2-.5 3.3 6.1 4.6 13.9 10.1 21.7 7.5z"/><path class="st11" d="M145.1 382.2c-7.9 2.6-15.7-2.7-21.8-7.5 0 2.6.8 5.2 1.9 7.6 1.6 3.5 3.9 6.7 5.9 10 .3.5.6 1.2.5 1.8 2.2 3.3 3.7 7 4.4 11 0 .2-.3.3-.3.1-.6-3.9-2-7.5-4.2-10.8-.6 1-2.2.6-3.2.1-.1-.1-.2-.1-.4-.2 1.4 2.6 2.7 5.2 4.1 7.8 0 .1 0 .2-.1.2 3.7 3 7.1 6.5 10.3 9.9.1.1-.1.3-.2.2-6.2-6.7-13-13.4-21.6-16.7v.2c1.4 8.7 8.9 16 17.6 17l29.4-.2c-6-10.5-14-21.2-22.3-30.5zM127.8 372.6c1.9.9 3.6-.8 4.6-2.5-.9-.5-1.7-1-2.7-1.3-1.5-.6-3.4-.9-4.7 0 .4 1.6 1.4 3.2 2.8 3.8z"/><path class="st11" d="M131.6 402.1c-1.4-2.7-2.8-5.3-4.2-8-1.1-.6-2.2-1.2-3.4-1.8-.6-.3-1.2-.6-1.8-.6-1.5.1-2 2-1.9 3.6 4.1 1.7 7.8 4.1 11.3 6.8z"/><path class="st4" d="m163.4 391.9 3.3-3.6c1.5-1.6 3.1-3.2 5-4.3.6 1.1 1.6 2.1 2.8 1.9 1.3-.2 2.2-1.6 2.5-2.8l.1.1c.3.3.5.8.6 1.2.2.7.3 1.5.3 2.3-4 3.3-9.3 6.9-14.6 5.2z"/><path class="st4" d="M163.2 392.1c.1 0 .1 0 0 0 5.4 1.8 10.7-1.8 14.8-5.1 0 1.8-.5 3.5-1.3 5.2-1.1 2.4-2.6 4.5-4 6.8-.2.4-.4.8-.4 1.2-1.5 2.2-2.5 4.8-3 7.5 0 .1.2.2.2.1.4-2.6 1.4-5.1 2.9-7.3.4.7 1.5.4 2.2.1.1 0 .2-.1.3-.1-.9 1.8-1.8 3.5-2.8 5.3v.1c-2.5 2-4.8 4.4-7 6.7-.1.1.1.2.1.1 4.2-4.5 8.8-9.1 14.7-11.3v.1c-.9 5.9-6.1 10.8-12 11.5l-19.9-.1c4.2-7.2 9.6-14.5 15.2-20.8zM175 385.6c-1.3.6-2.5-.5-3.1-1.7.6-.3 1.2-.7 1.8-.9 1-.4 2.3-.6 3.2 0-.3 1.1-.9 2.2-1.9 2.6z"/><path class="st4" d="M172.5 405.6c1-1.8 1.9-3.6 2.8-5.4.8-.4 1.5-.8 2.3-1.2.4-.2.8-.4 1.2-.4 1 .1 1.4 1.4 1.3 2.5-2.8 1.1-5.3 2.6-7.6 4.5z"/><path style="fill:#010a0f;stroke:#010a0f;stroke-width:2.3837;stroke-miterlimit:10" d="M77.3 450.7h432"/><circle class="st18" cx="295.5" cy="191.2" r="48.1"/><path class="st19" d="M321.2 220.3h-49.4c-3.2 0-5.9-2.6-5.9-5.9v-64c0-3.2 2.6-5.9 5.9-5.9h49.4c3.2 0 5.9 2.6 5.9 5.9v64c0 3.3-2.7 5.9-5.9 5.9z"/><path d="M312.8 214.1h-36.9c-1.3 0-2.4-1.1-2.4-2.4v-58.8c0-1.3 1.1-2.4 2.4-2.4h42.2c1.3 0 2.4 1.1 2.4 2.4v53.7c-.9 1-6.8 6.6-7.7 7.5z" style="fill:#fff;stroke:#fff;stroke-width:.2543;stroke-miterlimit:10"/><path d="m319.6 206.3-7.6 7.6-.2-4.8c-.1-1.7 1.3-3 3-3l4.8.2z" style="fill:#d8cfce"/><path class="st19" d="M279.9 152.3c-1.3 0-2.4-1.1-2.4-2.4v-7.3c0-1.3 1.1-2.4 2.4-2.4 1.3 0 2.4 1.1 2.4 2.4v7.3c0 1.3-1.1 2.4-2.4 2.4z"/><path class="st35" d="M279.9 155.5c-1.3 0-2.4-1.1-2.4-2.4v-7.3c0-1.3 1.1-2.4 2.4-2.4 1.3 0 2.4 1.1 2.4 2.4v7.3c0 1.3-1.1 2.4-2.4 2.4z"/><path class="st19" d="M295.1 152.3c-1.3 0-2.4-1.1-2.4-2.4v-7.3c0-1.3 1.1-2.4 2.4-2.4 1.3 0 2.4 1.1 2.4 2.4v7.3c0 1.3-1 2.4-2.4 2.4z"/><path class="st35" d="M295.1 155.5c-1.3 0-2.4-1.1-2.4-2.4v-7.3c0-1.3 1.1-2.4 2.4-2.4 1.3 0 2.4 1.1 2.4 2.4v7.3c0 1.3-1 2.4-2.4 2.4z"/><path class="st19" d="M310.4 152.3c-1.3 0-2.4-1.1-2.4-2.4v-7.3c0-1.3 1.1-2.4 2.4-2.4 1.3 0 2.4 1.1 2.4 2.4v7.3c0 1.3-1.1 2.4-2.4 2.4z"/><path class="st35" d="M310.4 155.5c-1.3 0-2.4-1.1-2.4-2.4v-7.3c0-1.3 1.1-2.4 2.4-2.4 1.3 0 2.4 1.1 2.4 2.4v7.3c0 1.3-1.1 2.4-2.4 2.4z"/><path class="st36" d="M283.2 182.1c0 1.4-1.1 2.5-2.5 2.5s-2.5-1.1-2.5-2.5 1.1-2.5 2.5-2.5 2.5 1.1 2.5 2.5zM283.2 192.9c0 1.4-1.1 2.5-2.5 2.5s-2.5-1.1-2.5-2.5 1.1-2.5 2.5-2.5 2.5 1.1 2.5 2.5zM283.2 203.7c0 1.4-1.1 2.5-2.5 2.5s-2.5-1.1-2.5-2.5 1.1-2.5 2.5-2.5 2.5 1.1 2.5 2.5z"/><path class="st37" d="M309.8 182.9h-20.3c-.6 0-1-.5-1-1 0-.6.5-1 1-1h20.3c.6 0 1 .5 1 1 .1.5-.4 1-1 1zM309.8 194h-20.3c-.6 0-1-.5-1-1 0-.6.5-1 1-1h20.3c.6 0 1 .5 1 1 .1.5-.4 1-1 1zM309.8 205.1h-20.3c-.6 0-1-.5-1-1 0-.6.5-1 1-1h20.3c.6 0 1 .5 1 1 .1.6-.4 1-1 1z"/><path class="st38" d="M280.8 183.1c-.2 0-.3-.1-.4-.2l-2.7-3c-.2-.3-.2-.7 0-1 .2-.3.6-.3.9 0l2.2 2.6 3.9-4.4c.2-.3.6-.3.9 0 .2.3.2.7 0 1l-4.3 4.9c-.2 0-.4.1-.5.1zM280.8 194c-.2 0-.3-.1-.4-.2l-2.7-3c-.2-.3-.2-.7 0-1 .2-.3.6-.3.9 0l2.2 2.6 3.9-4.4c.2-.3.6-.3.9 0 .2.3.2.7 0 1l-4.3 4.9c-.2 0-.4.1-.5.1z"/><circle transform="rotate(-66.784 296.943 167.133)" class="st15" cx="296.9" cy="167.1" r="8.8"/><path class="st7" d="m295.1 175.7.3-3.2 4.8-3.7s.5.2.5.3c.1.2.3.2.3.2l.1 5.4c.1 0-2.3 1.7-6 1z"/><path class="st8" d="m300.2 168.8-4.8 3.7-.3 3.2s4-1.4 4.4-4.8"/><path class="st9" d="M302 166.9s-.7.1-1.2.8l-1.9-5.4s-1.7-1.1-2.6-.4c-.9.7-1.6 1.1-2.2.9s-1.1-1.1-1.1-1.1-3.3-3.8-2.2-4.5c1.2-.7 8.1.8 10 2 1.8 1.1 2.8 2.4 1.3 7.9"/><path class="st7" d="M300.7 167.1c.1.1.2.2.3.1.4-.4 1.1-.9 1.4.5.4 1.9-1.6 1.6-1.8 1.9-.3.5-1.3 2.3-2.9 3.1-1 .4-2.4.6-3.5-.4s-1.5-.3-1.4-10.9c0 0 .5.9 1.2 1.1.7.2 1.8-.8 2.6-1 .6-.2 1.9-.7 2.7 1.5.5 1 1.1 3.3 1.4 4.1z"/><path class="st6" d="M293.2 169s.6.3 2.2.1c0 0-.8 1.1-1.4.9-.7-.1-.8-1-.8-1z"/><path class="st10" d="m302.2 167.6-1.1.8s.4-1.9 1.1-.8z"/><path class="st8" d="M294.4 166.7c0 .2.1.4.2.4s.2-.2.2-.4-.1-.4-.2-.4-.2.2-.2.4zM293 166.6c0 .2.1.4.2.4s.2-.2.2-.4-.1-.4-.2-.4-.2.2-.2.4zM296.1 164.9c.3.2-.2-.7-.6-.8-.4-.1-.8.1-.9.5-.1 0 .7-.2 1.5.3zM292.9 164.9c.4-.1.8 0 .8 0-.1-.3-.4-.6-.8-.6"/><path class="st10" d="m293.6 166.6-.6 1.8v.1h.8v-.1l-.2-1.8c.1-.1.1-.1 0 0z"/></g></svg>