<svg version="1.1" id="b3347a10-18dd-4c71-91c3-38a98340ba03" xmlns="http://www.w3.org/2000/svg" x="0" y="0" viewBox="0 0 963.5 774.4" style="enable-background:new 0 0 963.5 774.4" xml:space="preserve"><style>.st0{fill:#3f3d56}.st1{fill:#ffb8b8}.st2{fill:#cfcce0}.st3{fill:#2f2e41}.st4{fill:#575a89}.st5{fill:#797bf2}</style><path class="st0" d="M0 719.5h963.5v2.2H0z"/><path class="st1" d="M604.5 335.8s-43.2 34-21.6 41.7 35.5-27.8 35.5-27.8l-13.9-13.9z"/><path class="st2" d="m606.1 323.5-9.3 15.4s15.4 0 18.5 23.2l12.3-15.4-21.5-23.2z"/><path class="st1" d="m811.3 675.4 1.6 46.3-18.5 10.8-7.7-4.6 1.5-52.5zM701.8 663l3.1 49.4-43.2 18.5 3.1-26.2s12.3-20.1 9.3-41.7h27.7z"/><path class="st3" d="M768.1 291s24.7 64.8 29.3 105 12.3 146.6 12.3 146.6L825.2 680l-43.2 6.2-18.5-138.9-41.7-137.4-9.3 137.4-7.7 125-40.1 1.5-3.1-129.7-17-165.2 9.3-78.7 114.2-9.2zM791.3 724.8s2.5-25.9 21.3-11.4l3.4-2.5 15.4 34s18.5 26.2-13.9 29.3-29.3-29.3-29.3-29.3l-3.1-13.9 1.5-9.1 4.7 2.9zM701.8 693.9c7.7 4.4 12.5 12.7 12.3 21.6 0 15.4-1.5 17-1.5 17l-23.2 6.2s-15.4-1.5-24.7 7.7-55.6 15.4-55.6 3.1 38.6-32.4 38.6-32.4 11.5-19.4 19.6-17.4 11.2 5 11.2 6.6-4.6 12.3-4.6 12.3 26.3-6.2 27.9-24.7z"/><circle class="st1" cx="698.7" cy="62.6" r="38.6"/><path class="st1" d="m727.2 72.6 17 38.6-46.3 66.4s-3.1-72.5-12.3-84.9 41.6-20.1 41.6-20.1z"/><path class="st2" d="m705.6 152.9 7.7-20.1 6.2 1.6 7.7-6.2L738 94.3l15.5 10.8 20 202.2-125 3 17-140.4 15.4-40.1 11.2-14.8 7.3 22.5z"/><path class="st4" d="m741.1 239.3 4.7-139.6s9.2.7 12.3 5.3 54 13.9 54 13.9l-9.3 143.5s38.6 114.2 24.7 120.4-38.6 4.6-38.6 4.6l-47.8-148.1zM666.3 221.6l16.4-94.1-36.4 24.6 9.3 67.9-7.7 46.3S618.6 394.4 627.8 399s20.1 0 20.1 0l18.5-129.7v-47.7z"/><path class="st4" d="m657 149.1-10.8 3.1-4.6 61.7-7.7 54-37 66.4s18.5-12.3 26.2 23.2l40.8-71-6.9-137.4z"/><path class="st1" d="M777.4 323.5s-43.2 34-21.6 41.7 35.5-27.8 35.5-27.8l-13.9-13.9z"/><path class="st2" d="m803.6 340.4-13.9 17-18.5-32.4 7.7-13.9z"/><path class="st4" d="m800.5 124.4 12.3-6.2s9.3 12.3 10.8 23.2 9.3 24.7 9.3 32.4 21.6 80.3 21.6 80.3l-49.4 100.3s-10.8-37-34-40.1l38.6-54-21.6-38.6 12.4-97.3z"/><path class="st3" d="m731 25.9 7.3-2.9S723.1 6.2 701.9 7.7l6-6.6s-14.6-5.8-27.8 9.5c-7 8-15 17.5-20 28.1h-7.8l3.3 7.2-11.5 7.1 11.7-1.3c-.7 3.9-.8 7.9-.3 11.9s2.5 7.6 5.6 10.1c0 0 9-18.7 9-21.6v7.3s7.3-6.6 7.3-10.9l4 5.1 2-8 24.5 8-4-6.6 15.2 2.2-6-8s17.2 9.5 17.9 17.5c.7 8 5.7 15.6 5.7 15.6s13.5-37.5-5.7-48.4z"/><ellipse class="st1" cx="730.3" cy="56.4" rx="4.3" ry="5.4"/><path class="st5" d="M178.6 318.1H45.4v-37.3h69.5z"/><path class="st0" d="M45 313v109.1h432.7V313H45zm168.7 90.8H73.2v-15.4h140.6v15.4zm235.8-28.6H73.2v-15.4h376.3v15.4zm0-28.5H73.2v-15.4h376.3v15.4z"/><path class="st5" d="M178.6 141.7H45.4v-37.4h69.5z"/><path class="st0" d="M45 138.8v109.1h432.7V138.8H45zm168.7 90.7H73.2v-15.4h140.6v15.4zM295 201H73.2v-15.4H295V201zm154.5-28.6H73.2V157h376.3v15.4z"/><path class="st5" d="M178.6 490.9H45.4v-37.3h69.5z"/><path class="st0" d="M45 483.6v109.1h432.7V483.6H45zm250 90.7H73.2V559H295v15.3zm0-28.5H73.2v-15.4H295v15.4zm154.5-28.6H73.2v-15.4h376.3v15.4zM600.3 223.7h-61.5v-61.5h41.7v1.4h-40.2v58.6h58.5v-29.3h1.5z"/><path class="st5" d="M569.2 207.6c-1.4-4.2-19.2-18.5-8.3-20.9l9 11.9 41.2-41.2 4.1 4.1-46 46.1z"/><path class="st0" d="M600.3 397.9h-61.5v-61.5h41.7v1.5h-40.2v58.6h58.5v-29.3h1.5z"/><path class="st5" d="M569.2 381.9c-1.4-4.2-19.2-18.5-8.3-20.9l9 11.9 41.2-41.2 4.1 4.1-46 46.1z"/><path class="st0" d="M600.3 571.4h-61.5v-61.5h41.7v1.5h-40.2V570h58.5v-29.3h1.5z"/><path class="st5" d="M569.2 555.4c-1.4-4.2-19.2-18.5-8.3-20.9l9 11.9 41.2-41.2 4.1 4.1-46 46.1z"/></svg>