<svg data-name="Layer 1" xmlns="http://www.w3.org/2000/svg" width="917.44" height="680.099"><path d="M144.44 235.086a69 69 0 0 1 0-138h628a69 69 0 0 1 0 138Z" fill="#e6e6e6"/><path d="M144.44 106.086a60 60 0 0 0 0 120h628a60 60 0 0 0 0-120Z" fill="#fff"/><path fill="#e6e6e6" d="M208.107 106.087h2v120h-2zM332.94 106.087h2v120h-2zM457.94 106.087h2v120h-2zM581.94 106.087h2v120h-2zM706.94 106.087h2v120h-2zM242.617 148.086a2.896 2.896 0 0 0 0 5.792h58.74a2.896 2.896 0 1 0 0-5.792ZM242.617 163.086a2.896 2.896 0 0 0 0 5.792h58.74a2.896 2.896 0 1 0 0-5.792ZM242.617 178.086a2.896 2.896 0 0 0 0 5.792h58.74a2.896 2.896 0 1 0 0-5.792Z"/><path d="M366.617 148.086a2.896 2.896 0 0 0 0 5.792h58.74a2.896 2.896 0 1 0 0-5.792ZM366.617 163.086a2.896 2.896 0 0 0 0 5.792h58.74a2.896 2.896 0 1 0 0-5.792ZM366.617 178.086a2.896 2.896 0 0 0 0 5.792h58.74a2.896 2.896 0 1 0 0-5.792Z" fill="#7105ff"/><path d="M491.617 148.086a2.896 2.896 0 0 0 0 5.792h58.74a2.896 2.896 0 1 0 0-5.792ZM491.617 163.086a2.896 2.896 0 0 0 0 5.792h58.74a2.896 2.896 0 1 0 0-5.792ZM491.617 178.086a2.896 2.896 0 0 0 0 5.792h58.74a2.896 2.896 0 1 0 0-5.792ZM616.117 148.086a2.896 2.896 0 0 0 0 5.792h58.74a2.896 2.896 0 1 0 0-5.792ZM616.117 163.086a2.896 2.896 0 0 0 0 5.792h58.74a2.896 2.896 0 1 0 0-5.792ZM616.117 178.086a2.896 2.896 0 0 0 0 5.792h58.74a2.896 2.896 0 1 0 0-5.792ZM737.617 148.086a2.896 2.896 0 0 0 0 5.792h58.74a2.896 2.896 0 1 0 0-5.792ZM737.617 163.086a2.896 2.896 0 0 0 0 5.792h58.74a2.896 2.896 0 1 0 0-5.792ZM737.617 178.086a2.896 2.896 0 0 0 0 5.792h58.74a2.896 2.896 0 1 0 0-5.792ZM117.617 148.086a2.896 2.896 0 0 0 0 5.792h58.74a2.896 2.896 0 1 0 0-5.792ZM117.617 163.086a2.896 2.896 0 0 0 0 5.792h58.74a2.896 2.896 0 1 0 0-5.792ZM117.617 178.086a2.896 2.896 0 0 0 0 5.792h58.74a2.896 2.896 0 1 0 0-5.792Z" fill="#e6e6e6"/><circle cx="396.058" cy="47.382" r="47.382" fill="#7105ff"/><path fill="#7105ff" d="m396.058 124.408-14.816-25.661-14.815-25.661H425.688l-14.815 25.661-14.815 25.661z"/><circle cx="396.44" cy="47.086" r="17" fill="#fff"/><path d="M888.643 137.186a28.796 28.796 0 1 0 28.797 28.796 28.796 28.796 0 0 0-28.797-28.796Zm0 53.338a24.542 24.542 0 1 1 24.543-24.542 24.542 24.542 0 0 1-24.543 24.542Z" fill="#e6e6e6"/><path d="M887.052 175.83a1.518 1.518 0 0 1-1.074-.445l-8.204-8.205a1.52 1.52 0 0 1 2.148-2.148l6.952 6.952 12.324-16.804a1.52 1.52 0 0 1 2.45 1.797l-13.37 18.232a1.52 1.52 0 0 1-1.11.617 1.517 1.517 0 0 1-.116.004Z" fill="#7105ff"/><path d="M28.796 137.186a28.796 28.796 0 1 0 28.797 28.796 28.796 28.796 0 0 0-28.797-28.796Zm0 53.338a24.542 24.542 0 1 1 24.542-24.542 24.542 24.542 0 0 1-24.542 24.542Z" fill="#e6e6e6"/><path d="M21.111 175.598a1.52 1.52 0 0 1-1.074-2.594l16.194-16.193a1.52 1.52 0 1 1 2.148 2.149l-16.194 16.193a1.514 1.514 0 0 1-1.074.445Z" fill="#7105ff"/><path d="M36.481 175.598a1.514 1.514 0 0 1-1.074-.445L19.214 158.96a1.52 1.52 0 1 1 2.148-2.149l16.193 16.193a1.52 1.52 0 0 1-1.074 2.594Z" fill="#7105ff"/><path fill="#3f3d56" d="M840.792 666.843H573.391v-2.185h267.797l-.396 2.185z"/><path fill="#ffb8b8" d="M639.812 637.192h18.604v25.301h-18.604zM734.32 637.192h18.604v25.301H734.32zM765.83 427.34a11.04 11.04 0 0 1-10.906-12.75l3.047-19.425.906-5.777h14.14l.743 8.186 2.945 16.823a11.04 11.04 0 0 1-10.875 12.943ZM627.417 425.107a11.04 11.04 0 0 1-10.906-12.75l3.047-19.425.906-5.777h14.14l.743 8.186 2.944 16.824a11.04 11.04 0 0 1-10.874 12.942Z"/><path fill="#2f2e41" d="m755.156 642.401-22.324-.744-36.464-220.27-36.464 221.014-21.58-.744-5.953-254.502h125.018l-2.233 255.246zM657.95 680.06c-18.941.547-33.768-4.573-43.49-16.728a8.03 8.03 0 0 1-.607-9.144 8.028 8.028 0 0 1 7.816-3.843l6.155.72 12.817-6.405c-2.622 15.247 4.51 15.534 21.568 10.423l3.074 15.751a7.735 7.735 0 0 1-7.333 9.225ZM752.458 680.06c-18.941.547-33.768-4.573-43.49-16.728a8.03 8.03 0 0 1-.607-9.144 8.028 8.028 0 0 1 7.816-3.843l6.155.72 12.72-5.367c-2.622 15.246 4.606 14.496 21.665 9.385l3.074 15.751a7.735 7.735 0 0 1-7.333 9.225Z"/><circle cx="688.927" cy="124.468" r="29.766" fill="#ffb8b8"/><path fill="#ffb8b8" d="m718.693 178.792-31.999 1.488-1.488-33.487 27.534-10.418 5.953 42.417z"/><path d="M764.83 397.574c-43.636-8.257-93.35-11.215-126.506 0l10.418-218.782 34.975-10.419 2.605-4.092 29.394-4.837 14.14 4.464 8.93 13.395 38.695 21.58c-19.048 73.684-24.69 140.63-12.65 198.69Z" fill="#3f3d56"/><path d="m785.667 396.085-31.999-3.72c6.67-32.497 3.942-74.767 5.581-117.205 1.04-26.916 6.622-51.411 8.558-81.485 12.136 3.164 18.419 14.433 18.491 27.713.343 62.987 6.293 122.004-.631 174.697ZM646.51 393.109l-31.255-2.233 18.604-105.67 6.298-87.934c-.98-12.824 5.874-20.275 16.027-20.713 22.177 26.262 24.748 62.454 17.86 103.438Z" fill="#3f3d56"/><path d="m698.58 146.354-3.838-10.928a35.842 35.842 0 0 0-28.399-23.551l-24.057-.552 6.68-10.734a32.64 32.64 0 0 1 30.95-15.234l24.042 2.397a21.78 21.78 0 0 1 19.525 23.694l-2.205 23.645a14.893 14.893 0 0 1-22.697 11.263Z" fill="#2f2e41"/></svg>