<svg version="1.1" id="a3264d4e-838f-4e8b-aa0e-ebd578e83807" xmlns="http://www.w3.org/2000/svg" x="0" y="0" viewBox="0 0 917.4 680.1" style="enable-background:new 0 0 917.4 680.1" xml:space="preserve"><style>.st0{fill:#e6e6e6}.st1{fill:#fff}.st2{fill:#797bf2}.st3{fill:#3f3d56}.st4{fill:#ffb8b8}.st5{fill:#2f2e41}</style><path class="st0" d="M144.4 235.1c-38.1 0-69-30.9-69-69s30.9-69 69-69h628c38.1 0 69 30.9 69 69s-30.9 69-69 69h-628z"/><path class="st1" d="M144.4 106.1c-33.1 0-60 26.9-60 60s26.9 60 60 60h628c33.1 0 60-26.9 60-60s-26.9-60-60-60h-628z"/><path class="st0" d="M208.1 106.1h2v120h-2zM332.9 106.1h2v120h-2zM457.9 106.1h2v120h-2zM581.9 106.1h2v120h-2zM706.9 106.1h2v120h-2zM242.6 148.1c-1.6 0-2.9 1.3-2.9 2.9 0 1.6 1.3 2.9 2.9 2.9h58.7c1.6 0 2.9-1.3 2.9-2.9 0-1.6-1.3-2.9-2.9-2.9h-58.7zM242.6 163.1c-1.6 0-2.9 1.3-2.9 2.9 0 1.6 1.3 2.9 2.9 2.9h58.7c1.6 0 2.9-1.3 2.9-2.9 0-1.6-1.3-2.9-2.9-2.9h-58.7zM242.6 178.1c-1.6 0-2.9 1.3-2.9 2.9 0 1.6 1.3 2.9 2.9 2.9h58.7c1.6 0 2.9-1.3 2.9-2.9 0-1.6-1.3-2.9-2.9-2.9h-58.7z"/><path class="st2" d="M366.6 148.1c-1.6 0-2.9 1.3-2.9 2.9 0 1.6 1.3 2.9 2.9 2.9h58.7c1.6 0 2.9-1.3 2.9-2.9 0-1.6-1.3-2.9-2.9-2.9h-58.7zM366.6 163.1c-1.6 0-2.9 1.3-2.9 2.9 0 1.6 1.3 2.9 2.9 2.9h58.7c1.6 0 2.9-1.3 2.9-2.9 0-1.6-1.3-2.9-2.9-2.9h-58.7zM366.6 178.1c-1.6 0-2.9 1.3-2.9 2.9 0 1.6 1.3 2.9 2.9 2.9h58.7c1.6 0 2.9-1.3 2.9-2.9 0-1.6-1.3-2.9-2.9-2.9h-58.7z"/><path class="st0" d="M491.6 148.1c-1.6 0-2.9 1.3-2.9 2.9 0 1.6 1.3 2.9 2.9 2.9h58.7c1.6 0 2.9-1.3 2.9-2.9 0-1.6-1.3-2.9-2.9-2.9h-58.7zM491.6 163.1c-1.6 0-2.9 1.3-2.9 2.9 0 1.6 1.3 2.9 2.9 2.9h58.7c1.6 0 2.9-1.3 2.9-2.9 0-1.6-1.3-2.9-2.9-2.9h-58.7zM491.6 178.1c-1.6 0-2.9 1.3-2.9 2.9 0 1.6 1.3 2.9 2.9 2.9h58.7c1.6 0 2.9-1.3 2.9-2.9 0-1.6-1.3-2.9-2.9-2.9h-58.7zM616.1 148.1c-1.6 0-2.9 1.3-2.9 2.9 0 1.6 1.3 2.9 2.9 2.9h58.7c1.6 0 2.9-1.3 2.9-2.9 0-1.6-1.3-2.9-2.9-2.9h-58.7zM616.1 163.1c-1.6 0-2.9 1.3-2.9 2.9 0 1.6 1.3 2.9 2.9 2.9h58.7c1.6 0 2.9-1.3 2.9-2.9 0-1.6-1.3-2.9-2.9-2.9h-58.7zM616.1 178.1c-1.6 0-2.9 1.3-2.9 2.9 0 1.6 1.3 2.9 2.9 2.9h58.7c1.6 0 2.9-1.3 2.9-2.9 0-1.6-1.3-2.9-2.9-2.9h-58.7zM737.6 148.1c-1.6 0-2.9 1.3-2.9 2.9 0 1.6 1.3 2.9 2.9 2.9h58.7c1.6 0 2.9-1.3 2.9-2.9 0-1.6-1.3-2.9-2.9-2.9h-58.7zM737.6 163.1c-1.6 0-2.9 1.3-2.9 2.9 0 1.6 1.3 2.9 2.9 2.9h58.7c1.6 0 2.9-1.3 2.9-2.9 0-1.6-1.3-2.9-2.9-2.9h-58.7zM737.6 178.1c-1.6 0-2.9 1.3-2.9 2.9 0 1.6 1.3 2.9 2.9 2.9h58.7c1.6 0 2.9-1.3 2.9-2.9 0-1.6-1.3-2.9-2.9-2.9h-58.7zM117.6 148.1c-1.6 0-2.9 1.3-2.9 2.9 0 1.6 1.3 2.9 2.9 2.9h58.7c1.6 0 2.9-1.3 2.9-2.9 0-1.6-1.3-2.9-2.9-2.9h-58.7zM117.6 163.1c-1.6 0-2.9 1.3-2.9 2.9 0 1.6 1.3 2.9 2.9 2.9h58.7c1.6 0 2.9-1.3 2.9-2.9 0-1.6-1.3-2.9-2.9-2.9h-58.7zM117.6 178.1c-1.6 0-2.9 1.3-2.9 2.9 0 1.6 1.3 2.9 2.9 2.9h58.7c1.6 0 2.9-1.3 2.9-2.9 0-1.6-1.3-2.9-2.9-2.9h-58.7z"/><circle class="st2" cx="396.1" cy="47.4" r="47.4"/><path class="st2" d="m396.1 124.4-14.9-25.7-14.8-25.6h59.3l-14.8 25.6z"/><circle class="st1" cx="396.4" cy="47.1" r="17"/><path class="st0" d="M888.6 137.2c-15.9 0-28.8 12.9-28.8 28.8s12.9 28.8 28.8 28.8 28.8-12.9 28.8-28.8-12.9-28.8-28.8-28.8zm0 53.3c-13.6 0-24.5-11-24.5-24.5s11-24.5 24.5-24.5 24.5 11 24.5 24.5c.1 13.5-10.9 24.5-24.5 24.5z"/><path class="st2" d="M887.1 175.8c-.4 0-.8-.2-1.1-.4l-8.2-8.2c-.6-.6-.6-1.6 0-2.1.6-.6 1.6-.6 2.1 0l7 7 12.3-16.8c.5-.7 1.4-.8 2.1-.3.7.5.8 1.4.3 2.1l-13.4 18.2c-.3.4-.7.6-1.1.6v-.1z"/><path class="st0" d="M28.8 137.2C12.9 137.2 0 150.1 0 166s12.9 28.8 28.8 28.8 28.8-12.9 28.8-28.8-12.9-28.8-28.8-28.8zm0 53.3c-13.6 0-24.5-11-24.5-24.5 0-13.6 11-24.5 24.5-24.5 13.6 0 24.5 11 24.5 24.5s-10.9 24.5-24.5 24.5z"/><path class="st2" d="M21.1 175.6c-.8 0-1.5-.7-1.5-1.5 0-.4.2-.8.4-1.1l16.2-16.2c.6-.6 1.6-.6 2.1 0 .6.6.6 1.6 0 2.1l-16.2 16.2c-.2.3-.6.5-1 .5z"/><path class="st2" d="M36.5 175.6c-.4 0-.8-.2-1.1-.4L19.2 159c-.6-.6-.6-1.6 0-2.1.6-.6 1.6-.6 2.1 0L37.6 173c.6.6.6 1.6 0 2.1-.3.3-.7.5-1.1.5z"/><path class="st3" d="M840.8 666.8H573.4v-2.1h267.8z"/><path class="st4" d="M639.8 637.2h18.6v25.3h-18.6zM734.3 637.2h18.6v25.3h-18.6zM765.8 427.3c-6.1 0-11-4.9-11-11 0-.6 0-1.1.1-1.7l3-19.4.9-5.8H773l.7 8.2 2.9 16.8c1.1 6-3 11.7-9 12.8-.5.1-1.1.1-1.8.1zM627.4 425.1c-6.1 0-11-4.9-11-11 0-.6 0-1.1.1-1.7l3-19.4.9-5.8h14.1l.7 8.2 2.9 16.8c1.1 6-3 11.7-9 12.8-.4.1-1 .1-1.7.1z"/><path class="st5" d="m755.2 642.4-22.4-.7-36.4-220.3-36.5 221-21.6-.7-5.9-254.5h125zM657.9 680.1c-18.9.5-33.8-4.6-43.5-16.7-2.1-2.6-2.3-6.3-.6-9.1 1.6-2.7 4.7-4.2 7.8-3.8l6.2.7 12.8-6.4c-2.6 15.2 4.5 15.5 21.6 10.4l3.1 15.8c.8 4.2-1.9 8.3-6.1 9.1-.4-.1-.8-.1-1.3 0zM752.5 680.1c-18.9.5-33.8-4.6-43.5-16.7-2.1-2.6-2.3-6.3-.6-9.1 1.6-2.7 4.7-4.2 7.8-3.8l6.2.7 12.7-5.4c-2.6 15.2 4.6 14.5 21.7 9.4l3.1 15.8c.8 4.2-1.9 8.3-6.1 9.1-.5-.1-.9-.1-1.3 0z"/><circle class="st4" cx="688.9" cy="124.5" r="29.8"/><path class="st4" d="m718.7 178.8-32 1.5-1.5-33.5 27.5-10.4z"/><path class="st3" d="M764.8 397.6c-43.6-8.3-93.4-11.2-126.5 0l10.4-218.8 35-10.4 2.6-4.1 29.4-4.8 14.1 4.5 8.9 13.4 38.7 21.6c-19 73.6-24.6 140.5-12.6 198.6z"/><path class="st3" d="m785.7 396.1-32-3.7c6.7-32.5 3.9-74.8 5.6-117.2 1-26.9 6.6-51.4 8.6-81.5 12.1 3.2 18.4 14.4 18.5 27.7.2 63 6.2 122-.7 174.7zM646.5 393.1l-31.3-2.2 18.6-105.7 6.3-87.9c-1-12.8 5.9-20.3 16-20.7C678.4 202.8 680.9 239 674 280l-27.5 113.1z"/><path class="st5" d="m698.6 146.4-3.8-10.9c-4.4-12.5-15.3-21.5-28.4-23.6l-24.1-.6 6.7-10.7c6.6-10.6 18.6-16.5 30.9-15.2l24 2.4c11.9 1.2 20.6 11.8 19.5 23.7l-2.2 23.6c-.8 8.2-8 14.2-16.2 13.4-2.2-.2-4.5-.9-6.4-2.1z"/></svg>