<svg version="1.1" id="b4e67b16-eb74-42a6-b922-9d4e1a643c89" xmlns="http://www.w3.org/2000/svg" x="0" y="0" viewBox="0 0 1036 784.4" style="enable-background:new 0 0 1036 784.4" xml:space="preserve"><style>.st0{fill:#38383d}.st1{fill:#3f3d56}.st2{fill:#2f2e41}.st3{fill:#ffb9b9}.st6,.st7{fill:#797bf2}.st7{opacity:.3;enable-background:new}</style><path class="st0" d="M678.4 0 489.6 210.7c40.8 31.7 48.3 90.5 16.6 131.3s-90.5 48.3-131.3 16.6c-3.5-2.7-6.8-5.7-9.9-8.8L102 643.3c75.8 58.9 169.2 90.9 265.2 90.7 239.1 0 433-193.9 433-433 .1-112.3-43.6-220.3-121.8-301z"/><circle class="st0" cx="435.4" cy="289.5" r="56.5"/><path class="st1" d="M95.6 394.4h617.2v388.9H95.6z"/><path class="st2" d="M773.4 201.6s-39.8-1.6-40.9 39.2 0 75.8 0 75.8h79.6V243c.1 0-1.6-38.7-38.7-41.4z"/><path class="st3" d="M757.9 274.4s2.4 26.8-5.5 29.1 3.1 36.2 3.1 36.2l31.5 7.1 18.1-36.2-7.9-10.2s-13.4-18.1-7.1-30.7-32.2 4.7-32.2 4.7z"/><path d="M757.9 274.4s2.4 26.8-5.5 29.1 3.1 36.2 3.1 36.2l31.5 7.1 18.1-36.2-7.9-10.2s-13.4-18.1-7.1-30.7-32.2 4.7-32.2 4.7z" style="opacity:.1;enable-background:new"/><circle class="st3" cx="768.9" cy="256.3" r="30.7"/><path class="st3" d="M649.3 361.8S630.4 376 635.9 387s22 48.8 22 48.8 3.1 29.1 16.5 27.6 0-30.7 0-30.7l-16.5-44.9 5.5-8.7-14.1-17.3zM904.4 366.5s21.3 16.5 8.7 22.8-66.1 36.2-66.1 36.2-32.3 24.4-36.2 5.5 21.3-18.1 21.3-18.1 50.4-30.7 52.7-37 19.6-9.4 19.6-9.4z"/><path d="M717 474.4s-10.2 55.9-4.7 87.4c3.2 19.6 2.7 39.6-1.6 59l30.7 3.1s19.7-116.5 30.7-115.7 34.6 117.3 34.6 117.3l33.1-4.7s-10.2-52-5.5-67.7 1.6-72.4-10.2-78.7-107.1 0-107.1 0z" style="fill:#575a89"/><path class="st2" d="M744.5 620.8s-35.4-11.8-38.6-3.1-2.4 105.5-1.6 111.8 3.1 3.1.8 6.3-2.4-3.9-1.6 4.7 1.6 10.2 1.6 10.2-14.2 33.1 11 32.3 13.4-24.4 13.4-24.4 3.9-7.1 1.6-11-3.1-10.2 0-13.4-3.1-9.4-3.9-11.8-3.1-1.6 3.1-9.4 3.1-11.8 2.4-14.2 5.5-16.5 5.5-16.5l6.3-61.5zM804.4 620.8s35.4-11.8 38.6-3.1 2.4 105.5 1.6 111.8-3.1 3.1-.8 6.3 2.4-3.9 1.6 4.7-1.6 10.2-1.6 10.2 14.2 33.1-11 32.3-13.4-24.4-13.4-24.4-3.9-7.1-1.6-11 3.1-10.2 0-13.4 3.1-9.4 3.9-11.8 3.1-1.6-3.1-9.4-3.1-11.8-2.4-14.2-5.5-16.5-5.5-16.5l-6.3-61.5z"/><path class="st6" d="M770.5 328.7s-5.5-16.5-8.7-19.7-5.2-11.3-5.2-11.3-17.6 6.6-22.4 8.1-20.5 1.6-20.5 3.9v50.4s-1.6 10.2 1.6 36.2 12.6 41.7 1.6 52.7-1.6 37.8 3.9 42.5 112.6 29.1 113.4-28.3c0 0-26-45.7-15-60.6s20.5-40.2 20.5-40.2V312s-17.3-5.5-22.8-6.3-18.9-15.7-20.5-15-4.6 0-4.6 0l-.1 11.1-21.2 26.9z"/><path class="st6" d="m724.8 313.8-11-3.9s-13.4 7.1-13.4 8.7-7.9 8.7-11.8 11.8-15 3.9-15 5.5-34.6 26.8-31.5 30.7 13.4 18.1 18.9 18.1 18.9-14.2 21.3-15 26.8-15.7 34.6-13.4 7.9-42.5 7.9-42.5zM824.8 315.4l15-3.1s28.3 21.3 29.1 22 44.9 29.1 42.5 34.6-27.6 13.4-33.9 11-33.1-22-43.3-19.7-9.4-44.8-9.4-44.8z"/><path class="st2" d="M801.6 246.5c3.7-15.7 2.2-19.9 2.2-19.9L756 214.8l-16.7 16.1v16.7l1.7 5.2s6.9-5.2 4.2-12.7c0-.1 53.7 17.7 56.4 6.4z"/><path class="st2" d="m802.2 237.7-4.5 4.9c7.1.1-2.4 57.6.8 66.9l11.8.3v-76.6l-8.1 4.5z"/><ellipse class="st3" cx="739.4" cy="251.6" rx="2.4" ry="5.1"/><ellipse class="st3" cx="800" cy="251.6" rx="2.4" ry="5.1"/><path class="st2" d="m372.7 694.8-1.4-1.5 60.8-60.8-53.8-53.7 1.4-1.5 55.2 55.2z"/><circle class="st6" cx="430" cy="633" r="21"/><circle class="st6" cx="375" cy="694" r="21"/><path class="st2" d="m376.7 578.8-1.4-1.5 60.8-60.8-53.8-53.7 1.4-1.5 55.2 55.2z"/><circle class="st6" cx="383" cy="462" r="21"/><circle class="st6" cx="434" cy="517" r="21"/><circle class="st6" cx="379" cy="578" r="21"/><path class="st7" d="M123 419h104v19H123zM538 634h104v5H538zM538 649h104v5H538zM538 664h104v5H538zM538 679h104v5H538zM538 694h104v5H538zM538 709h104v5H538z"/><path class="st1" d="M66.8 743c6.9 25.6 30.6 41.4 30.6 41.4s12.5-25.6 5.6-51.2-30.6-41.4-30.6-41.4-12.6 25.6-5.6 51.2z"/><path class="st6" d="M76.9 737.5c19 18.5 21.3 46.9 21.3 46.9s-28.4-1.6-47.4-20-21.3-46.9-21.3-46.9 28.4 1.5 47.4 20z"/><path class="st1" d="M0 782h1036v2H0z"/><path class="st1" d="M978.5 720.5c0-9.1-5.6-17.2-14-20.5 11.3-4.4 16.9-17.1 12.5-28.5-4.4-11.3-17.1-16.9-28.5-12.5-11.3 4.4-16.9 17.1-12.5 28.5 2.2 5.8 6.8 10.3 12.5 12.5-11.3 4.4-16.9 17.1-12.5 28.5 2.2 5.8 6.8 10.3 12.5 12.5-11.3 4.4-16.9 17.1-12.5 28.5 4.4 11.3 17.1 16.9 28.5 12.5 11.3-4.4 16.9-17.1 12.5-28.5-2.2-5.8-6.8-10.3-12.5-12.5 8.4-3.3 14-11.4 14-20.5zm-42-41c0-11 8.9-20 20-20 11 0 20 8.9 20 20 0 9.3-6.4 17.4-15.5 19.5-3-.6-6-.6-9 0-9.1-2.1-15.5-10.2-15.5-19.5zm40 82c0 11-8.9 20-20 20-11 0-20-8.9-20-20 0-9.3 6.4-17.4 15.5-19.5 3 .6 6 .6 9 0 9.1 2.2 15.5 10.2 15.5 19.5zM961 740c-3-.6-6-.6-9 0-10.8-2.5-17.5-13.2-15-24 1.7-7.4 7.5-13.3 15-15 3 .6 6 .6 9 0 10.8 2.5 17.5 13.2 15 24-1.7 7.5-7.5 13.3-15 15zM106.5 356.5c-12.2 0-22-9.8-22-22s9.8-22 22-22 22 9.8 22 22-9.9 22-22 22zm0-42c-11 0-20 9-20 20s9 20 20 20 20-9 20-20-9-20-20-20zM573.5 137.5c-12.2 0-22-9.8-22-22s9.8-22 22-22 22 9.8 22 22-9.9 22-22 22zm0-42c-11 0-20 9-20 20s9 20 20 20 20-9 20-20-9-20-20-20z"/></svg>