<svg xmlns="http://www.w3.org/2000/svg" viewBox="0 0 192.8 192.8" style="enable-background:new 0 0 192.8 192.8" xml:space="preserve"><path d="M191.9 52c0 6.7-5.3 12.2-11.9 12.2-6.6 0-11.9-5.5-11.9-12.2 0-6.7 5.3-12.2 11.9-12.2 6.6 0 11.9 5.4 11.9 12.2z" style="fill:#898888"/><path d="M179.7 69.9c-9.6 0-17.4-8-17.4-17.9 0-9.9 7.8-17.9 17.4-17.9.6 0 1.3 0 1.9.1v-3c0-13.9-11.3-25.1-25.1-25.1H26C12.1 6 .9 17.3.9 31.2v130.4c0 13.9 11.3 25.1 25.1 25.1h130.4c13.9 0 25.1-11.3 25.1-25.1V69.8c-.5.1-1.1.1-1.8.1z" style="fill:#d81a22"/><path d="M166.3 102.7c-3.5.3-13.6 1.8-17.4 1.6-7.2-2.4-34.5-12.6-36.2-13.2-1.8-.7-3.3-.8-5.2-.8-7.4-4-21.3-7-22.6-7.3-.4-.1-.2-.7-.3-1.2 0 0-6.1-1.1-11-1.1.9-3.6 2.3-14.3 2.3-17.6.8.5 1.3.7 2.3.8 1.7.2 3.5-1.1 5.7-2 1.1-.5 1.3.2 2-.2 1.5-.9 2.2-3.6 4.3-5.2 1.4-1.1 2.8-.8 3.4-2 1-2.1.5-3.6.1-5.8-.6-3.4-1.3-5.7-4-7.8-2.1-1.7-3.8-2.3-6.5-2.3-3.2 0-8.5 1.5-11.4 8.9-3.3-1.9-4.5-2.8-8-4-6.3-2.3-26.2 2.1-28.4 3.1.2 1 .2 1.9.2 1.9s-2.4.1-3.4 1.5c-4.7 6.8-10 16.3-10 16.3-1.9.4-3.2 1.8-4.1 3.7-.9 2-1.8 2.2-3.8 3.5-1.4.5-.9 2-.1 1.9 1.4-.1 2.7-.9 4.2-2-.8 2.4-3.6 4.1-3.7 5.1.3 1.3 3.3 3.1 7.3.1 1.3-1 2.6-1.8 3.5-3 .5-.6.8-3.2 1.3-5.1.9-.4 7.6-6.5 12.4-11.4 0 0 9.9-2 14.6-2.7 0 0-3.7 1.7-7.3 3-6.1 22.7-5.6 32.7-2.4 33.7-2.5 4.5 3.2 22.9 6.3 30.6l1.5.3s.6 1.7 1.7 4.9c.7 2 1.6 4.5 2.6 7.6-4.5-2.3-19.1 4.2-24.3 5.9 0 0-2.9-2.6-4.6-3.4-1-.4-3-.1-4.2.8-.3-.2-.7-.7-1.4.3-.4.6-.2.8.2 1.1-.2.3-.6.9-.7 1.3-.4-.1-.7-.5-1.2.5-.6 1.1 0 1.1.5 1.3-1.5 3-3.9 4.8-5.3 7.8-.5-.2-.8-.4-1.3.8-.3.9 0 1 .5 1.3-.3.9-.4 1.7-.6 2.4-.1 0-.9-.2-1 .6-.2 1.2 0 1.4.7 1.5v1.7c.4 1.8 2 2.2 2.9 1.4 5-3.8 8.8-6.3 11.6-8.3 7.4-.7 27.7-2.1 33.6-2.6 2.9.2 11.7-7.4 11.8-10 .2-4.9 0-8.2-.3-12-.2-3.1-.6-6.7-.8-11.7l1.4-.4.1-10.5 2.8.1.3-1.2c7.2.8 20.7 2.9 29.7 2.3 1.7-.1 3.3.5 4.4 1.8 2.3 1.9 19.1 3.7 33.1 3.8 1.7 4.7 5.5 5.6 5.5 5.6.3.2.5 0 1.3-.4.4.5.7.7 1.5.3.7-.3.6-.7.4-1.2l.7-.4c.4.4.8.7 1.4.3.6-.4.7-.6.2-1.3 1.4-.9 9.6-7.1 9.6-7.1.3.3.5.5.7.4.2 0 1.1-.6 1.2-.9.1-.2-.1-.5-.4-.8l1.4-1.1c.2.3.4.5.6.4.3-.1.7-.4.9-.8.1-.2-.2-.5-.4-.8l.9-1.1c-.2-1.8-1.9-1.6-3.3-1.5z" style="fill:#fff"/></svg>