<svg version="1.1" id="Layer_1" xmlns="http://www.w3.org/2000/svg" x="0" y="0" viewBox="0 0 192.8 192.8" style="enable-background:new 0 0 192.8 192.8" xml:space="preserve"><style>.st0{fill-rule:evenodd;clip-rule:evenodd}</style><path class="st0" d="M84 25.8c-4.6.9-9.6 3-9.6 3 2.4-3.3 7.4-7.4 7.4-7.4-1.4-2.6-2.6-6.4-2.6-6.4s5.7.3 10.2 1.8c0 0 7.6-4.2 15.6-4.3 0 0-5.8 3.3-8.2 6.4.7.3 5.3 1.7 8.9 3.8 0 0-6.5.2-12.5 1 0 0-2.1 3-3.9 9.7 0 .1-3-3.3-5.3-7.6zM114.8 31.4c-3.9-4.4-9.2-8.6-9.2-8.6 4.8.1 12 2.9 12 2.9 1.4-2.6 2.4-6.3 2.4-6.3s2.7 4.6 4 9.8c0 0 5.7 3.4 10 9.1 0 0-4.5-.9-7.8-.9 0 .7 1.2 6.8.9 11 0 0-3.7-5.9-7.1-10.9 0 0-5.5.1-11.3 1.7.1-.1 3.3-3.8 6.1-7.8zm6.4 28.5c2.9-4.9 6-11.6 6-11.6 1 4.5 1 10.2 1 10.2 2.9-.6 8-3.1 8-3.1s-2.3 6-7.4 10.7c0 0 .5 3.6.6 8.4 0 0-3.6-1.6-6.6-3.4-.6.4-4.2 2.8-10.3 4.1 0 0 2.6-4 4.7-8 0 0-4.2-2.8-7.6-7.4 0 .1 6.5.9 11.6.1z"/><path class="st0" d="M100.6 49.9c4.5 5.5 9 10 9 10-7.4-1.1-13.4-3.2-13.4-3.2-3 4.8-6.3 10.4-6.3 10.4s-1.8-6.1-2.1-12.9c0 0-3.7-1.3-10.5-4 0 0 4.7-2.9 10.4-4.5-.3-.7.5-8.8 1.6-12.2 0 0 3.3 5.4 6 9.4 0 0 5.3-1.8 13.4-3.7.1-.1-4.4 5.6-8.1 10.7zM60.1 70.8c-.4-.8-.9-1.7-1.3-2.6.1-2.9.3-6.7 1.1-9.6 0 0-2.1-1.5-4.4-3.4 0-.3-.1-.7-.1-1 1.3-.5 4-1.4 6.3-2 .3-.7 1.7-5.4 4.6-8.7 0 0 .2 3.2 1 7.5 0 0 4.5-1 9.9-.8 0 0-5 3.9-8.2 8 1.1 4.6 3.4 9.1 3.4 9.1-3.4-1.9-7.1-4.5-7.1-4.5-1.1 1.4-3.7 5.5-5.2 8zm28.6 21c-.6-.1-1.1-.2-1.7-.3-1.9-2-4.7-5.3-6.9-8.8 0 0-8.1-.7-13.7-3.1 0 0 4.7-.9 9.9-3.5-.3-.7-2.3-4.3-3.7-8.8 0 0 4.9 4 8.6 6.3 0 0 4.6-2.7 8.8-6.4 0 0-1.1 5.1-1.6 11 2.7 1.5 5.4 3 8.2 4.5-4.2.6-8.4.5-8.4.5-.3 3.2.2 6.6.5 8.6zm35.1-10.5s-5.6 1.5-11 1.7c0 0 0-3.7-.3-7.7 0 0-2.9 4.1-6.6 8-4.4-.1-9.4-.6-9.4-.6 1.7 1.7 3.4 3.4 5.2 5-3.3 2.8-6.4 4.7-6.4 4.7h1.3c10.5-.2 20.1-4.4 27.2-11.1z"/><path class="st0" d="M56 45.2s3-3.7 6.4-6.7c0 0 1.2 2.1 4 5 0 0 0-3.5.4-9 3.2-2.8 7.5-5.7 7.5-5.7-3.6-.2-6.3-.1-6.3-.1.8-4.2 2.7-8.6 2.7-8.6-7.6 6.2-13 15-14.7 25.1zm77.8 107.4c-5.2 0-8.3-4.4-8.3-9.1 0-5 3.7-8.5 8.5-8.5 5.3 0 8.5 4.2 8.5 8.9-.1 5.4-4.1 8.7-8.7 8.7zm-.3-15.2c-3.2 0-4.2 3.1-4.2 5.2 0 3 1.4 7.5 5.1 7.5 2.7 0 4.2-2.4 4.2-5.2 0-3.1-1.2-7.5-5.1-7.5zM102 150.1c0 .9.2 1.3 1.7 1.6v.6c-1.6-.1-2.7-.2-3.6-.2-1 0-2 .1-3.1.2v-.7c1-.2 1.2-.6 1.2-1.9V137c0-.7-.3-1.1-1.2-1.1v-.7h7.7c4.8 0 6.6 2.3 6.6 5.3 0 3.2-2.5 5.2-5.8 5.2-1.3 0-3.2-.7-3.2-1.2 0-.2.2-.2.4-.2s.6.1.9.1c2.7 0 3.8-1.5 3.8-3.7 0-2.3-1.5-3.2-3.8-3.2l-1.6.2v12.4zm14.3-13.2c0-.7-.3-1.1-1.2-1.1v-.7c1.1.1 2.2.2 3.1.2s2-.1 3.1-.2v.7c-.9 0-1.2.4-1.2 1.1v13.7c0 .7.3 1.1 1.2 1.1v.6c-1.1-.1-2.2-.2-3.1-.2-1 0-2 .1-3.1.2v-.6c.9 0 1.2-.4 1.2-1.1v-13.7zm31.4 0c0-.7-.3-1.1-1.2-1.1v-.7c1.1.1 2.2.2 3.1.2.7 0 1.5 0 2.3-.2l7.2 11.7h.1v-9.5c0-1.4-.9-1.5-1.6-1.5v-.7c.9.1 1.7.2 2.5.2.9 0 1.7-.1 2.6-.2v.7c-.9 0-1.2.4-1.2 1.1v15.4h-2.8l-8.7-13.5h-.1v11.3c0 1.4.9 1.5 1.6 1.5v.7c-.9-.1-1.7-.2-2.5-.2-.9 0-1.7.1-2.6.2v-.7c.9 0 1.2-.4 1.2-1.1l.1-13.6zm20.2 9.5c.5 2.9 2.5 4.3 5.3 4.3 1.6 0 3.9-.5 3.9-2.5 0-1.6-1.7-2-2.9-2.4l-1.9-.6c-2.7-.8-5.5-2-5.5-5.1 0-4.2 4-5.4 8-5.4 1.7 0 3.4.3 5 .9 0 1.9.1 3.6.2 5h-.7c-.6-2.5-2.6-3.6-5-3.6-1.3 0-3.6.4-3.6 2.3 0 1.5 1.3 1.9 2.4 2.2l2.8.8c2.7.8 5.2 1.8 5.2 5.3s-3.6 5.4-7.9 5.4c-2 0-4-.3-5.8-1 0-2.1-.1-4-.2-5.5l.7-.1zm-135.5-9.5c0-.7-.3-1.1-1.2-1.1v-.7c1.1.1 2.2.2 3.1.2s2-.1 3.1-.2v.7c-.9 0-1.2.4-1.2 1.1v5.2h6.3v-5.2c0-.7-.3-1.1-1.2-1.1v-.7c1.1.1 2.2.2 3.1.2 1 0 2-.1 3.1-.2v.7c-.9 0-1.2.4-1.2 1.1v13.7c0 .7.3 1.1 1.2 1.1v.7c-1.1-.1-2.2-.2-3.1-.2-1 0-2 .1-3.1.2v-.7c.9 0 1.2-.4 1.2-1.1v-6h-6.3v6c0 .7.3 1.1 1.2 1.1v.7c-1.1-.1-2.2-.2-3.1-.2-1 0-2 .1-3.1.2v-.7c.9 0 1.2-.4 1.2-1.1v-13.7zm24.9 7.9c.7-1.8 1.5-3.9 2.1-6h.1c.5 2.6 1 4.3 1.5 6h-3.7zm-6.3 7.5c.9-.1 1.8-.2 2.7-.2.9 0 1.8.1 2.7.2v-.7c-.9-.1-1.2-.4-1.2-.8 0-.3.1-.5.2-.9l1.1-3.1h5.1l.8 2.5c.1.3.3.9.3 1.3 0 .6-.3.8-1.3 1v.7c1.1-.1 2.2-.2 3.4-.2 1.1 0 2.2.1 3.3.2v-.7c-.8-.2-1.2-.5-1.6-1.7l-4.8-14.8c-.8.1-1.6.2-2.5.2-.8 0-1.6-.1-2.4-.2v.7c.7 0 1 .4 1 .7 0 .3-.2.6-.3 1l-5.1 13c-.3.7-.6 1.1-1.4 1.2v.6zm22.3-13c0-.7.1-1.5.1-2.5 0-.8-.2-.9-1.2-1v-.7c.8.1 1.7.2 2.7.2.9 0 1.9-.1 2.8-.2l4.6 12.1 4.1-12.1c.9.1 1.8.2 2.7.2.9 0 1.8-.1 2.7-.2v.7c-.9.1-1 .4-1 1.1 0 .7.1 1.9.2 2.8l.8 11.1c.1.7.8.8 1.3.9v.7c-1.1-.1-2.3-.2-3.4-.2s-2.3.1-3.3.2v-.7c1.3-.2 1.6-.4 1.6-1.6 0-.6-.1-1.8-.2-2.7l-.6-7.8h-.1l-4.4 12.8h-2.2l-5-13h-.1l-.2 7.6c0 1.4-.1 2.1-.1 2.8 0 1.3.1 1.6 1.7 1.8v.7c-1-.1-2-.2-3-.2s-1.9.1-2.7.2v-.7c1-.1 1.4-.3 1.5-1.4l.7-10.9zm-46 12.1c-1.8 1.4-4.3 1.9-6 1.9-6.2 0-9.7-4.8-9.7-9.8 0-5.1 3.5-9.9 10.2-9.9 2.4 0 4 .4 4.7.7 0 2 .1 3.9.3 5.8H26c-.5-2.4-2.1-3.7-4.6-3.7-3.3 0-5.8 2.6-5.8 6.9 0 3.3 2.7 7 6.5 7 1.6 0 3.9-.9 5.5-2.2l-.3 3.3zm28.2 10.3c0-.6-.2-.8-.9-.8v-.6c.9.1 1.7.1 2.4.1.8 0 2.1-.1 2.7-.1v.6c-1 0-1.2.5-1.2 1.1v9.9h3.7c1.3 0 1.9-.6 2.2-2.1h.7c-.2 1.3-.5 2.6-.5 3.9h-10v-.6c.7 0 .9-.3.9-.8v-10.6zm12.8.1c0-.6-.2-.8-.9-.8v-.5h10.2c0 1 .1 2.1.2 3.1h-.6c-.2-1.1-.5-1.5-1.6-1.5h-4.3v3.9H74c.9 0 1-.3 1.2-1h.5c-.1.6-.1 1.3-.1 1.9 0 .5.1 1.4.1 1.9h-.5c-.1-.7-.3-1-1.2-1h-2.7v4.2h4.5c1.1 0 1.4-.4 1.8-2.1h.7c-.1 1.3-.2 2.5-.2 3.8H67.4v-.6c.7 0 .9-.3.9-.8v-10.5zm12.4 11.3c.6-.1.8-.4 1-.9l3.9-10c.1-.3.3-.6.3-.8 0-.2-.2-.5-.8-.5v-.5c.6.1 1.3.1 1.9.1.6 0 1.3-.1 1.9-.1l3.7 11.5c.3.9.6 1.1 1.2 1.3v.5c-.8-.1-1.7-.1-2.6-.1-.9 0-1.7.1-2.6.1v-.5c.7-.1 1-.3 1-.8 0-.3-.1-.7-.2-1l-.6-1.9h-3.9l-.9 2.4c-.1.3-.2.5-.2.7 0 .4.3.6.9.6v.5c-.7-.1-1.4-.1-2.1-.1-.7 0-1.4.1-2.1.1l.2-.6zm7.7-5.3c-.4-1.3-.8-2.6-1.2-4.6-.5 1.6-1.1 3.2-1.6 4.6h2.8zm16.2 1.1c0-.8-.4-.8-1.3-.9v-.7c.8.1 1.7.1 2.5.1.9 0 1.8-.1 2.7-.1v.6c-.7 0-1.1.2-1.1 1.1v4.5h-1.2l-.5-1.4c-1.3 1.2-2.6 1.6-4 1.6-3.8 0-6.2-3.1-6.2-6.7 0-4.4 2.9-7 7.3-7 1.4 0 2.9.3 4 .9 0 1 0 2.1.1 3.5h-.6c-.3-1.8-2-2.7-3.6-2.7-2.8 0-4.2 2.1-4.2 4.7 0 2.5 1.4 5.3 3.7 5.3 1.4 0 2.2-.7 2.2-1.6l.2-1.2zm8-7.2c0-.6-.2-.8-.9-.8v-.6c.8.1 1.5.1 2.3.1 1 0 1.9-.1 2.7-.1v.6c-.9 0-1.1.2-1.1 1v7.5c0 2.3.9 2.7 2.6 2.7s2.6-.5 2.6-2.7v-7.5c0-.8-.2-.9-1.1-1v-.6c.8.1 1.6.1 2.7.1.8 0 1.7-.1 2.3-.1v.6c-.7 0-.9.3-.9.8v7.2c0 3.7-1.9 4.9-5.6 4.9-3.6 0-5.6-1.2-5.6-4.6v-7.5zm16.3.1c0-.6-.2-.8-.9-.8v-.5h10.2c0 1.1.1 2 .2 3.1h-.5c-.2-1.1-.5-1.5-1.6-1.5H132v3.8h2.7c.9 0 1-.3 1.2-1h.5c-.1.6-.1 1.3-.1 1.9 0 .5.1 1.4.1 1.9h-.5c-.1-.7-.3-1-1.2-1H132v4.2h4.5c1.1 0 1.4-.4 1.8-2.1h.7c-.1 1.3-.2 2.5-.2 3.8H128v-.6c.7 0 .9-.3.9-.8v-10.4zm-51.6-31.5c4.4-5.1 10.9-8.3 18.2-8.3 7.5 0 14.1 3.4 18.6 8.7l1.2-1.1c-4.7-5.6-11.8-9.2-19.7-9.2-7.7 0-14.6 3.4-19.3 8.8l1 1.1zm16.1-12.8-7.1 1.5-1.8-8.6 7-1.4.3 1.6-4.6 1 .4 1.8 4.4-.9.3 1.6-4.4.9.4 2.1 4.7-1 .4 1.4zm13.5-5.5-4.2-.9-.4 1.9 4.2.9-.3 1.6-4.2-.9-.7 3.5-2.4-.5 1.8-8.6 6.6 1.4-.4 1.6zm10.2 14.7-2.1-2 .3-1.9-3.6-2.5-1.6 1-2.4-1.3 8.5-5.1 2.3 1.6-1.4 10.2zm-.7-9.4-3.2 2 2.6 1.8.6-3.8zm-38.1 5.8c-1.6 1.2-4.2 2.3-6.2 0l-2.8-3.6 1.9-1.5 2.8 3.5c1 1.2 2.2.9 3.2.2 1-.8 1.5-1.9.6-3.2L75 115l1.9-1.5 2.8 3.6c1.7 2.3.6 4.4-1.4 6z"/><path class="st0" d="M125.7 118.1c-7.5-7.9-18.2-12.9-30-12.9-11.9 0-22.7 5.1-30.3 13.2l-1.3-1.3c7.9-8.3 19.1-13.5 31.5-13.5 12.3 0 23.4 5.1 31.3 13.3l-1.2 1.2zm16.5 62.2c-1.8 0-3.3-1.5-3.3-3.3 0-1.8 1.5-3.3 3.3-3.3v.3c-1.6 0-2.9 1.3-2.9 3 0 1.6 1.3 3 2.9 3v.3z"/><path class="st0" d="M140.8 175.1h1.3c.5 0 .8.1 1 .3.2.2.4.5.4.8 0 .5-.3.8-.9.9.3.1.4.1.5.3.1.2.2.3.3.9l.1.3c0 .2.1.3.1.4h-.4c-.1-.2-.1-.2-.1-.5-.1-.8-.2-.8-.3-1-.1-.1-.4-.2-.8-.2h-.8v1.7h-.4v-3.9zm1.4 1.8c.6 0 1-.3 1-.8s-.4-.8-1.1-.8h-.9v1.5l1 .1z"/><path class="st0" d="M142.2 180.3c1.8 0 3.3-1.5 3.3-3.3 0-1.8-1.5-3.3-3.3-3.3v.3c1.6 0 2.9 1.3 2.9 3 0 1.6-1.3 3-2.9 3v.3z"/></svg>