<svg version="1.1" id="Layer_1" xmlns="http://www.w3.org/2000/svg" x="0" y="0" viewBox="0 0 192.8 192.8" style="enable-background:new 0 0 192.8 192.8" xml:space="preserve"><style>.st8{fill:#0a0c0d}</style><path d="M94.9 65.8c-17.6 0-31.7 14.2-31.7 31.7s14.2 31.7 31.7 31.7 31.7-14.2 31.7-31.7c.1-17.5-14.2-31.7-31.7-31.7" style="fill:#fff"/><path d="M27.7 41.5c-.1.3-.1.7 0 1.2l.4.4 33.6 19.6c.3.1.7.1 1.2 0 .1 0 .1-.1.3-.3v-.1c3.1-5.4 7.5-10.4 12.9-14.3 5.6-3.9 11.6-6.3 17.8-7.5h.1c.1 0 .3 0 .4-.1.3-.3.6-.6.4-1L88.1.9c0-.1 0-.3-.1-.4-.3-.4-.6-.5-1-.5-11.9 2.2-23.7 6.9-34.3 14.3-10.7 7.2-19 16.7-25 27.2" style="fill:#a21c81"/><path d="M8.5 115.4c.1.3.6.6.9.6h.6l36.3-13.9c.4-.1.6-.6.6-.9v-.5c-2.3-5.9-3.5-12.3-3.1-19 .4-6.9 2.5-13.2 5.4-18.7v-.1c0-.1 0-.3.1-.4 0-.4-.1-.9-.6-1L14.5 42.9c-.1 0-.3-.1-.4-.1-.4 0-.7.1-1 .6C7.4 54 3.6 66.1 2.8 79c-.8 12.9 1.4 25.2 5.7 36.4" style="fill:#005299"/><path d="M54.8 176.1c.4 0 .7 0 1-.3.1-.1.1-.3.3-.4l11.6-37.2c.1-.4 0-.9-.3-1.2-.1 0-.1-.1-.3-.1H67c-6-1.8-11.8-4.8-16.8-9.4-5-4.5-8.8-9.9-11.3-15.8v-.1c0-.1-.1-.3-.3-.3-.6-.4-1-.4-1.3-.3L1.4 126.4c-.1 0-.3.1-.4.3-.3.3-.3.7-.1 1 4.8 11.1 12 21.5 21.7 30.1 9.5 8.8 20.6 15 32.2 18.3" style="fill:#008acf"/><path d="M130.6 178c.3-.3.4-.6.4-1 0-.1 0-.3-.1-.6l-21.7-32.3c-.3-.3-.6-.6-1-.4-.1 0-.3 0-.4.1 0 0-.1 0-.1.1-5.3 3.7-11.3 6.1-17.8 7.2-6.7 1.2-13.3.6-19.3-1.2h-.5c-.4 0-.7.4-.9.7l-10.4 37.6v.4c0 .4.3.7.7.9 11.6 3.2 24.3 4.2 37 2 12.5-1.9 24.1-6.6 34.1-13.5" style="fill:#009540"/><path d="M180.1 120.1c0-.4-.1-.7-.6-1-.1 0-.3-.1-.6-.1l-38.8-3.1c-.4 0-.7.1-1 .6 0 .1-.1.3-.1.4v.1c-.4 6.3-2.2 12.6-5.4 18.4-3.2 6-7.8 10.8-12.9 14.5h-.1c-.1 0-.1.1-.3.3-.1.4-.1.9 0 1.2l23.1 31.5c0 .1.1.3.4.3.4.1.7.1 1.2 0 9.8-7.2 18.3-16.5 24.6-27.8 6.2-11.2 9.7-23.3 10.5-35.3" style="fill:#fbe800"/><path d="M165.4 45.1c-.3-.3-.7-.3-1.2-.1-.1 0-.3.1-.4.3L137 73.4c-.3.3-.3.7-.1 1.2 0 .1.1.3.1.3l.1.1c4.7 4.2 8.5 9.7 11 15.8 2.5 6.3 3.5 12.7 3.1 19.2v.5c.1.4.6.6.9.6L191 113h.4c.4-.1.6-.6.6-.9.6-12.1-1.2-24.6-6-36.6-4.5-11.9-11.7-22.1-20.6-30.4" style="fill:#f08712"/><path d="M97.3 10.4c-.4 0-.7.3-.9.7v.6l5.7 38.5c0 .4.4.7.7.9h.5c6.3-1 12.7-.7 19.3 1.2 6.4 1.9 12.1 5.1 17 9.4h.1c.1 0 .3.1.4.1.4.1.9 0 1.2-.3L167 32c.1-.1.1-.3.1-.4.1-.4 0-.7-.3-1-9.1-7.9-20.2-14.2-32.5-17.7-12.5-3.8-25-4.4-37-2.5" style="fill:#e5282b"/><path class="st8" d="M94.9 65.4c-17.7 0-32.2 14.5-32.2 32.2s14.5 32.2 32.2 32.2S127 115.3 127 97.6c.2-17.9-14.3-32.2-32.1-32.2m23.5 50.3c.6-1.3.6-2.8.7-4.1-.6.6-1.3 1.2-2 1.8-2.2 1.6-4.7 2.6-6.9 3.1l-6.1-6.7 4.5 7.9c-1.2 2-2.9 4.1-5.1 5.7-.7.6-1.5 1-2.3 1.5 1.2.1 2.6.6 4.1.4-3.1 1.2-6.4 1.8-9.9 1.8s-6.9-.6-9.9-1.8c1.3 0 2.9-.3 4.1-.4-.7-.4-1.6-.9-2.3-1.5-2.2-1.6-3.9-3.7-5.1-5.7l4.5-8-6.3 6.7c-2.3-.4-4.7-1.5-6.9-3.1-.7-.6-1.5-1.2-2-1.8.1 1.2.3 2.8.7 4.1-3.9-5-6.3-11.3-6.3-18.1v-1c.3 1.3 1.2 2.8 1.8 3.8.1-.9.4-1.8.6-2.6.9-2.6 2.2-5 3.8-6.7l8.9 1.8v-.1l-8.6-3.5c-.3-2.3 0-4.8.9-7.5.3-.9.6-1.8 1-2.5-1.2.6-2.6 1.2-3.8 2.2C74.1 75.3 79.9 70.9 87 69c-1.3.7-2.5 2-3.4 2.9.9-.1 1.8-.1 2.8-.1 2.8 0 5.4.6 7.5 1.6l1 9.1h.1l1-9.1c2.2-1 4.7-1.6 7.5-1.6.9 0 1.8 0 2.8.1-.9-.9-2-2.2-3.2-2.9 6.9 1.9 12.7 6.3 16.7 12.1-1.2-1-2.6-1.6-3.8-2.2.4.7.7 1.6 1 2.5.9 2.6 1.2 5.3.9 7.5l-8.3 3.8v.1l8.9-1.8c1.6 1.8 2.9 4.1 3.8 6.7.3.9.6 1.8.6 2.6.6-1.2 1.3-2.5 1.8-3.8v.9c-.1 7-2.5 13.3-6.3 18.3"/><path class="st8" d="m82 93.3 5 15.4h16l5-15.4L95 84z"/></svg>