<svg version="1.1" id="Layer_1" xmlns="http://www.w3.org/2000/svg" x="0" y="0" viewBox="0 0 192.8 192.8" style="enable-background:new 0 0 192.8 192.8" xml:space="preserve"><style>.st3{fill:#e20613}.st4{fill:#1d1d1b}.st7{fill:#fff}.st8{fill:#004f8b}</style><path d="M88.8 10.6c32.8 0 62 14.2 81.9 36.4-16.5-28.1-47-47-81.9-47S23.3 18.9 6.9 47.1C26.8 24.8 56 10.6 88.8 10.6z" style="fill:#999"/><path d="M166.7 134.8c3.6-9 5.4-18.9 5.4-29.2 0-23.5-10-44.5-25.9-58.7 2.9 10 4.4 20.8 4.4 31.8 0 46.3-29.2 84.9-66.2 98 1.3 0 2.4.1 3.7.1 32.9 0 62-16.7 78.6-42z" style="fill:#8d8d8d"/><path d="M179.8 67.8c1.1 5.7 1.7 11.6 1.7 17.6 0 18.2-5.4 35.2-14.9 49.4-16.6 25.2-45.6 42-78.6 42-1.3 0-2.4 0-3.7-.1-31.2-1.1-58.4-17.3-74.5-41.3 13.5 33.7 46.4 57.4 84.8 57.4 50.4 0 91.4-41 91.4-91.4.2-11.9-2.1-23.2-6.2-33.6z" style="fill:#666"/><path class="st3" d="M91.2 44.4c-7.7.3-34.4 2-50.3 15l-5.4 4.4-1.9 7.2-.1.6c-.4 2.1-10 54.9 44.8 93.7l12.2 8.7 14.5-8.7c54.9-39 45.3-91.5 44.8-93.7l-1.3-6.7-5.6-5-.4-.3c-15.6-13.2-42.3-15-50-15.2H91.2z"/><path class="st4" d="M91.2 43.7c-7.9.3-34.7 2-50.7 15.2l-5.6 4.6-1.9 7.3-.1.6c-.4 2.3-10 55.1 45.1 94.4l12.6 9 14.9-9c55.3-39.2 45.7-92.2 45.1-94.4l-1.4-6.9-5.7-5.3-.4-.4c-16-13.2-42.8-14.9-50.7-15.2l-1.2.1z"/><linearGradient id="SVGID_1_" gradientUnits="userSpaceOnUse" x1="33.506" y1="84.852" x2="91.948" y2="84.852" gradientTransform="matrix(1 0 0 -1 0 194)"><stop offset="0" style="stop-color:#bac800"/><stop offset=".102" style="stop-color:#b3c000"/><stop offset=".258" style="stop-color:#9fab00"/><stop offset=".448" style="stop-color:#7f8900"/><stop offset=".664" style="stop-color:#525900"/><stop offset=".9" style="stop-color:#1a1c00"/><stop offset="1" style="stop-color:#000"/></linearGradient><path d="M91.2 45.1c-7.7.3-34.1 1.9-49.8 14.8 0 0-4.9 4-5.2 4.3-.1.4-1.7 6.9-1.7 6.9l-.1.6c-.1.6-.9 4.9-.9 11.5 0 17.9 5.7 53.4 45.4 81.6 0 0 11 7.9 11.9 8.5.1-.1.6-.3 1.1-.7V45.1h-.7z" style="fill:url(#SVGID_1_)"/><linearGradient id="SVGID_2_" gradientUnits="userSpaceOnUse" x1="91.853" y1="85.067" x2="150.251" y2="85.067" gradientTransform="matrix(1 0 0 -1 0 194)"><stop offset="0" style="stop-color:#1d1d1b"/><stop offset=".039" style="stop-color:#291c1b"/><stop offset=".218" style="stop-color:#5d1a1a"/><stop offset=".394" style="stop-color:#881719"/><stop offset=".563" style="stop-color:#a91518"/><stop offset=".724" style="stop-color:#c11417"/><stop offset=".874" style="stop-color:#cf1317"/><stop offset="1" style="stop-color:#d41317"/></linearGradient><path d="M149.4 71.6s-1.1-6-1.3-6.4c-.3-.3-5.3-4.9-5.3-4.9l-.4-.3c-15.6-12.9-42.1-14.6-49.7-14.8h-.6v127.3c3.3-2 12.9-7.7 12.9-7.7 39.8-28.2 45.4-63.7 45.4-81.6-.2-6.9-.9-11-1-11.6z" style="fill:url(#SVGID_2_)"/><path class="st4" d="M91.8 64.7c-1 0-25.6.9-36.8 10l-.1.1v.3c-.1.4-7.7 42.3 36.5 73.6l.4.3.4-.3c44.3-31.5 36.7-73.2 36.5-73.6v-.3l-.1-.1c-11.2-9.1-35.6-10-36.8-10z"/><path class="st3" d="M91.8 64.7c-1 0-25.6.9-36.8 10l-.1.1-.1.3c-.1.4-7.7 42.3 36.7 73.8l.4.3.6-.3c44.3-31.5 36.7-73.3 36.7-73.8v-.3l-.3-.1c-11.3-9.1-35.9-10-37.1-10z"/><path class="st4" d="M91.5 148.8c-44.3-31.4-36.7-73.2-36.7-73.6v-.3l.1-.1c11.2-9.2 35.7-9.9 36.7-10 1 0 25.6.9 36.7 10l.1.1v.1c.1.4 7.6 42.3-36.5 73.6l-.4.3v-.1z"/><path class="st4" d="M129 75.2v-.1l-.3-.3c-11.2-9.2-35.8-10-36.8-10-1.1 0-25.6.9-37 10h-.1l-.1.4c0 .1-.6 3-.6 7.7 0 13.6 4.3 42.7 37.2 66l.4.4.6-.4c44.5-31.4 36.9-73.3 36.7-73.7z"/><path class="st7" d="M91.8 66.2c.4 0 24.8.9 35.7 9.5.1.6.4 3.2.4 7.3 0 13.3-4.2 41.5-36.1 64.5C59.9 124.6 55.7 96.4 55.7 83c0-4.2.4-6.6.4-7.3C67 67 91.4 66.2 91.8 66.2z"/><path class="st8" d="M86.1 70.6v13c.1 3.2 2.6 5.6 5.7 5.6s5.6-2.4 5.7-5.6v-13H86.1z"/><path class="st7" d="M93.8 78.9c0 1-.9 1.9-1.9 1.9-1 0-1.9-.9-1.9-1.9s.9-1.9 1.9-1.9c1.1-.1 1.9.8 1.9 1.9zM90.7 73.5c0 1-.9 1.9-1.9 1.9-1 0-1.9-.9-1.9-1.9s.9-1.9 1.9-1.9c1-.1 1.9.7 1.9 1.9zM97 73.5c0 1-.9 1.9-1.9 1.9-1 0-1.9-.9-1.9-1.9s.9-1.9 1.9-1.9c1-.1 1.9.7 1.9 1.9zM90.7 84.2c0 1-.9 1.9-1.9 1.9-1 0-1.9-.9-1.9-1.9 0-1 .9-1.9 1.9-1.9 1 .1 1.9.9 1.9 1.9zM97 84.2c0 1-.9 1.9-1.9 1.9-1 0-1.9-.9-1.9-1.9 0-1 .9-1.9 1.9-1.9 1 .1 1.9.9 1.9 1.9z"/><path class="st8" d="M86.1 118.3v13c.1 3.2 2.6 5.6 5.7 5.6s5.6-2.4 5.7-5.6v-13H86.1z"/><path class="st7" d="M93.8 126.6c0 1-.9 1.9-1.9 1.9-1 0-1.9-.9-1.9-1.9 0-1 .9-1.9 1.9-1.9 1.1-.1 1.9.8 1.9 1.9zM90.7 121.2c0 1-.9 1.9-1.9 1.9-1 0-1.9-.9-1.9-1.9 0-1 .9-1.9 1.9-1.9 1 0 1.9.9 1.9 1.9zM97 121.2c0 1-.9 1.9-1.9 1.9-1 0-1.9-.9-1.9-1.9 0-1 .9-1.9 1.9-1.9 1 0 1.9.9 1.9 1.9zM90.7 132.1c0 1-.9 1.9-1.9 1.9-1 0-1.9-.9-1.9-1.9s.9-1.9 1.9-1.9c1-.1 1.9.7 1.9 1.9zM97 132.1c0 1-.9 1.9-1.9 1.9-1 0-1.9-.9-1.9-1.9s.9-1.9 1.9-1.9c1-.1 1.9.7 1.9 1.9z"/><path class="st8" d="M70.9 94.4v13c.1 3.2 2.6 5.6 5.7 5.6s5.6-2.4 5.7-5.6v-13H70.9z"/><path class="st7" d="M78.6 102.7c0 1-.9 1.9-1.9 1.9-1 0-1.9-.9-1.9-1.9 0-1 .9-1.9 1.9-1.9 1.1 0 1.9.9 1.9 1.9zM75.5 97.3c0 1-.9 1.9-1.9 1.9-1 0-1.9-.9-1.9-1.9 0-1 .9-1.9 1.9-1.9 1 0 1.9.9 1.9 1.9zM81.8 97.3c0 1-.9 1.9-1.9 1.9-1 0-1.9-.9-1.9-1.9 0-1 .9-1.9 1.9-1.9 1 0 1.9.9 1.9 1.9zM75.5 108.1c0 1-.9 1.9-1.9 1.9-1 0-1.9-.9-1.9-1.9 0-1 .9-1.9 1.9-1.9 1 .1 1.9.9 1.9 1.9zM81.8 108.1c0 1-.9 1.9-1.9 1.9-1 0-1.9-.9-1.9-1.9 0-1 .9-1.9 1.9-1.9 1 .1 1.9.9 1.9 1.9z"/><path class="st8" d="M86.1 94.4v13c.1 3.2 2.6 5.6 5.7 5.6s5.6-2.4 5.7-5.6v-13H86.1z"/><path class="st7" d="M93.8 102.7c0 1-.9 1.9-1.9 1.9-1 0-1.9-.9-1.9-1.9 0-1 .9-1.9 1.9-1.9 1.1 0 1.9.9 1.9 1.9zM90.7 97.3c0 1-.9 1.9-1.9 1.9-1 0-1.9-.9-1.9-1.9 0-1 .9-1.9 1.9-1.9 1 0 1.9.9 1.9 1.9zM97 97.3c0 1-.9 1.9-1.9 1.9-1 0-1.9-.9-1.9-1.9 0-1 .9-1.9 1.9-1.9 1 0 1.9.9 1.9 1.9zM90.7 108.1c0 1-.9 1.9-1.9 1.9-1 0-1.9-.9-1.9-1.9 0-1 .9-1.9 1.9-1.9 1 .1 1.9.9 1.9 1.9zM97 108.1c0 1-.9 1.9-1.9 1.9-1 0-1.9-.9-1.9-1.9 0-1 .9-1.9 1.9-1.9 1 .1 1.9.9 1.9 1.9z"/><path class="st8" d="M101.3 94.4v13c.1 3.2 2.6 5.6 5.7 5.6s5.6-2.4 5.7-5.6v-13h-11.4z"/><path class="st7" d="M108.8 102.7c0 1-.9 1.9-1.9 1.9-1 0-1.9-.9-1.9-1.9 0-1 .9-1.9 1.9-1.9 1.1 0 1.9.9 1.9 1.9zM105.7 97.3c0 1-.9 1.9-1.9 1.9-1 0-1.9-.9-1.9-1.9 0-1 .9-1.9 1.9-1.9 1 0 1.9.9 1.9 1.9zM112.1 97.3c0 1-.9 1.9-1.9 1.9-1 0-1.9-.9-1.9-1.9 0-1 .9-1.9 1.9-1.9 1.1 0 1.9.9 1.9 1.9zM105.7 108.1c0 1-.9 1.9-1.9 1.9-1 0-1.9-.9-1.9-1.9 0-1 .9-1.9 1.9-1.9 1 .1 1.9.9 1.9 1.9zM112.1 108.1c0 1-.9 1.9-1.9 1.9-1 0-1.9-.9-1.9-1.9 0-1 .9-1.9 1.9-1.9 1.1.1 1.9.9 1.9 1.9z"/></svg>