<svg xmlns="http://www.w3.org/2000/svg" viewBox="0 0 192.8 192.8" style="enable-background:new 0 0 192.8 192.8" xml:space="preserve"><radialGradient id="a" cx="134.816" cy="360.988" r="144.816" gradientTransform="translate(0 -306)" gradientUnits="userSpaceOnUse"><stop offset="0" style="stop-color:#a7bdc8"/><stop offset="1" style="stop-color:#465b65"/></radialGradient><path d="M5.4 77.5c3.2-10.3 8.3-18.8 15-19.4 13-1.4 28.3 20.4 31 46.1 2.4 23.7-3 49.8-16.2 51.2-7.9.8-15.4-2.4-21-14.8 8.7 2.4 20-1.2 20-1.2 4-12.7 3.8-36.4 3.8-36.4-8.1-21.5-17-31.4-17-31.4s-8.9 2.1-15.6 5.9z" style="fill:url(#a)"/><radialGradient id="b" cx="134.818" cy="360.988" r="144.819" gradientTransform="translate(0 -306)" gradientUnits="userSpaceOnUse"><stop offset="0" style="stop-color:#a7bdc8"/><stop offset="1" style="stop-color:#465b65"/></radialGradient><path d="M15.7 127.5c-5.1.6-10.3-7.1-11.5-17-1.2-10.1 2-18.6 7.1-19.2s10.3 7.1 11.5 17c1.2 9.9-1.8 18.6-7.1 19.2z" style="fill:url(#b)"/><radialGradient id="c" cx="134.816" cy="360.988" r="144.818" gradientTransform="translate(0 -306)" gradientUnits="userSpaceOnUse"><stop offset="0" style="stop-color:#a7bdc8"/><stop offset="1" style="stop-color:#465b65"/></radialGradient><path d="M132.9 78.1c1 9.3-5.5 17.8-14.8 18.8s-17.6-5.7-18.6-15.2c-1-9.3 5.5-17.8 14.8-18.8 9.1-1 17.4 5.9 18.6 15.2z" style="fill:url(#c)"/><radialGradient id="d" cx="134.817" cy="360.988" r="144.817" gradientTransform="translate(0 -306)" gradientUnits="userSpaceOnUse"><stop offset="0" style="stop-color:#a7bdc8"/><stop offset="1" style="stop-color:#465b65"/></radialGradient><path d="M163.5 74.7c-3.2-28.5-27.7-49.2-54.6-46.1-27 3.2-46.2 28.9-42.8 57.4 2.6 24.5 21.2 43.1 43.5 45.9 0 0-.4-4.9-1-9.7-.6-4.9-1.2-9.7-1.2-9.7l-5.9.6s-6.7-6.5-11.9-14c-4.9-6.9-8.3-15-8.3-15s2.4-8.9 5.9-17c3.4-8.3 7.5-15.8 7.5-15.8s7.9-1.8 16-2.8c8.7-1 17.6-1 17.6-1s6.1 6.1 11.1 13.2c5.1 7.3 9.3 15.8 9.3 15.8s-1 8.1-4.5 16.2c-3.2 8.3-8.9 16.6-8.9 16.6l-5.3.8s.6 4.7 1 9.3c.4 5.1.6 9.9.6 9.9 20.9-7.7 34.7-29.9 31.9-54.6z" style="fill:url(#d)"/><radialGradient id="e" cx="134.817" cy="360.988" r="144.817" gradientTransform="translate(0 -306)" gradientUnits="userSpaceOnUse"><stop offset="0" style="stop-color:#a7bdc8"/><stop offset="1" style="stop-color:#465b65"/></radialGradient><path d="M153.8 32c-12.3-11.1-22.7-19.8-22.5-20.4 0-.2 3 1 7.9 3.6 2.8 1.4 10.1 5.5 18 12.3 12.7 11.3 19.4 23.5 19.2 24.1-.2.6-10.3-8.3-22.6-19.6z" style="fill:url(#e)"/><radialGradient id="f" cx="134.817" cy="360.988" r="144.818" gradientTransform="translate(0 -306)" gradientUnits="userSpaceOnUse"><stop offset="0" style="stop-color:#a7bdc8"/><stop offset="1" style="stop-color:#465b65"/></radialGradient><path d="M64.9 9.7C58.2 12.1 52.6 15 47.3 18c6.9-1.4 20.4-4.2 33-12.3-3.9.6-10.3 2.2-15.4 4z" style="fill:url(#f)"/><radialGradient id="g" cx="134.818" cy="360.988" r="144.82" gradientTransform="translate(0 -306)" gradientUnits="userSpaceOnUse"><stop offset="0" style="stop-color:#a7bdc8"/><stop offset="1" style="stop-color:#465b65"/></radialGradient><path d="M110.2 6.9c-.4-1.4-8.9-2.8-19.8-2.2 2.2.4 4.5 1 6.1 2L72.4 17.4l-28.7 7.5s-1.8-.2-3.6-2C32.5 28.5 27.9 33.8 27.9 35c.2 2.4 19.8-2 42.7-9.9 22.6-7.7 40.5-16 39.6-18.2z" style="fill:url(#g)"/><radialGradient id="h" cx="134.815" cy="360.988" r="144.82" gradientTransform="translate(0 -306)" gradientUnits="userSpaceOnUse"><stop offset="0" style="stop-color:#a7bdc8"/><stop offset="1" style="stop-color:#465b65"/></radialGradient><path d="M175 108.1c3-21 7.3-38.5 9.3-37.6 1.2.4 6.7 18.8 3.6 40.1-2.4 17.8-10.9 36.6-14.6 36.4-1.9-.3-1.3-17.7 1.7-38.9z" style="fill:url(#h)"/><radialGradient id="i" cx="134.818" cy="360.989" r="144.816" gradientTransform="translate(0 -306)" gradientUnits="userSpaceOnUse"><stop offset="0" style="stop-color:#a7bdc8"/><stop offset="1" style="stop-color:#465b65"/></radialGradient><path d="M80.1 187.8c-10.5-2.2-16-6.3-17.4-12.1-3.2-12.7 17.4-24.5 42.9-28.3 23.3-3.6 43.5 3.8 45.5 12.5 1.6 6.7-1.4 12.1-10.5 18 1.4-8.9.4-14.6.4-14.6-13.2-3.4-33.8-5.5-33.8-5.5-22.1 8.3-31.8 16-31.8 16s1 7.7 4.7 14z" style="fill:url(#i)"/><radialGradient id="j" cx="134.817" cy="360.991" r="144.813" gradientTransform="translate(0 -306)" gradientUnits="userSpaceOnUse"><stop offset="0" style="stop-color:#a7bdc8"/><stop offset="1" style="stop-color:#465b65"/></radialGradient><path d="M128.7 176.7c.8 4.5-6.7 9.5-16.8 11.1-9.9 1.6-18.6-.8-19.4-5.3s6.7-9.5 16.8-11.1c9.8-1.6 18.5.6 19.4 5.3z" style="fill:url(#j)"/><path style="fill:none" d="M30.1 4.5h132.5V191H30.1z"/></svg>