<svg xmlns="http://www.w3.org/2000/svg" viewBox="0 0 800 600" style="enable-background:new 0 0 800 600" xml:space="preserve"><style>.st1{fill:#9b6d5c}.st4{fill:#fff}.st5{fill:#5d4298}.st6{fill:#f5ab85}.st7{fill:#9e9ee6}.st8{fill:#78c0c3}.st10{fill:#e67db7}.st11{fill:#8487cd}.st13{fill:#e3eaff}.st14{fill:#6db8ff}.st17{opacity:.2;fill:#424261}.st19{fill:#f9fbfc}.st20{fill:#9570ee}.st23{fill:#ced6ff}.st25{fill:#ffc240}.st30{fill:#0cf}.st31{fill:#ff56a9}.st32{fill:#ffc359}.st36{fill:#fccfb2}.st38{fill:#2b72b6}.st39{fill:#80b3dd}.st40{fill:#202323}</style><g id="OBJECTS"><path d="m168.2 344.4 14.3-14.7c-10-18.3-38.7-32.3-68.7-19-30 13.3-38.9 44.1-32 63.7l20.4-.7s16.5 21.3 23.8 37.7c9.6 21.8 15.4 50.6 15.4 50.6l66-29.3-39.2-88.3z" style="fill:#27aae1"/><path class="st1" d="M126.5 306.6c-1.9.3-2.9.6-5.1 1.3l-6.1-10.9-12.3 4.9 4.7 11.9c-2.4 1.3-3.6 2.2-5.4 3.5.2.6.5 1.1.8 1.7 3.6 7.3 11.8 10.6 18.3 7.3s8.9-11.9 5.3-19.2c-.1-.1-.2-.4-.2-.5z"/><circle transform="rotate(-28.877 122.654 250.724)" class="st1" cx="122.6" cy="250.7" r="10.3"/><path class="st1" d="M123.6 249.6c10.8 19.4 4.3 43.8-14.5 54.2-18.8 10.5-42.9 3.3-53.8-16.1l-4.9-9.8c-10.8-19.4-4.7-43.5 14.1-54s42.5-3.1 53.4 16.3l5.7 9.4z"/><circle transform="rotate(-28.872 56.863 289.254)" class="st1" cx="56.8" cy="289.2" r="10.3"/><path d="M109.1 303.8c-18.8 10.5-42.9 3.3-53.8-16.1l-.9-1.6c-.1-.2-.2-.5-.4-.7l3.9-1.8s10.7 17.2 22.8 10c4.3-2.5 6.8-11.5 14.3-15.8 7.8-4.5 16.1-1.6 20.6-4.1 12.3-6.9 2.6-24.9 2.6-24.9l3.6-2.4c.2.3.3.6.6.9l1.3 2.3c10.7 19.4 4.2 43.7-14.6 54.2z" style="fill:#77564d"/><path d="M46.6 271.6c-5.3-11.1-6.9-34.5 16.4-48.9 24.3-12.5 44.1 0 50.9 10.3 2.2 3.3 7.9 13.6 7.9 13.6l-3.6 2.4S102 216.6 86 232.7c-3.5 3.6-8 7.7-11.8 9.9-4.2 2.3-8.8 4-13.6 5.2-22 5.4-2.7 36-2.7 36l-3.9 1.8c0-.2-5.7-10.5-7.4-14z" style="fill:#4f3934"/><path class="st4" d="m115 276.6-29.4 15.7s10.7 7.6 20.1 2.4c9.3-5.2 10-15.8 9.3-18.1z"/><ellipse transform="scale(-1) rotate(-44.55 -644.342 264.6)" cx="108.4" cy="263.9" rx="4.3" ry="4.6"/><ellipse transform="rotate(135.447 77.075 281.372)" cx="77.1" cy="281.4" rx="4.3" ry="4.6"/><path class="st1" d="M106.7 423.6c-.6 0-1.1 0-1.7-.1-4.8-.5-9-2.9-12-7.1-5.6-7.6-8.9-21-7.2-41.2 0-.3.1-.8.1-1.1l14.2-.5c-1.4 14.5.3 29 4.3 34.4.8 1.1 1.5 1.3 2 1.3 2.8.3 9.2-5.1 15.8-27.2 4.8-16.1 7.1-32.6 7.2-32.8l14 1.9c-.1.7-2.5 17.8-7.6 34.9-3.1 10.4-6.6 18.6-10.4 24.6-6.5 10.5-13.5 12.9-18.7 12.9z"/><path class="st5" d="m562.3 175.1 18.9-7.6c-1.7-20.8-22.3-45.3-55.1-45.3s-53.5 24.5-55.2 45.3l18.8 7.6v96.4h72.6v-96.4z"/><path class="st6" d="M539.2 123.6c-1.9-.4-2.9-.6-5.2-.9l-1.2-12.5-13.2-.5-.5 12.8c-2.7.3-4.2.5-6.3 1-.1.7 0 1.2 0 1.9.3 8.1 6.5 14.4 13.8 14.1 7.3-.4 12.9-7.3 12.6-15.4v-.5z"/><path class="st7" d="M569.6 58.3c0 22.8-20.4 41.4-45.6 41.4-25.2 0-45.6-18.5-45.6-41.4 0-22.6 19.7-42.7 44.8-41.3h1.5c24.9-1.3 44.9 18.7 44.9 41.3z"/><path class="st8" d="M486.9 87.4s-8.4 11.7.8 29.6c-1-9.9-3.8-17.9 3.9-29.6 7.7-11.7-3.4-3.9-4.7 0z"/><path d="M519.6 116.5s9 1.2 14.1 0l-.2-4.3H520l-.4 4.3z" style="opacity:.1;fill:#373737"/><g id="Girl_1_"><g id="Head_5_"><path class="st6" d="M562.5 76.8c.3 20.6-16.1 37.6-36.7 37.9-20.6.3-37.6-16.1-37.9-36.7l-.2-13.9c-.3-20.6 16.1-37.6 36.7-37.9 20.6-.3 37.6 16.1 37.9 36.7l.2 13.9z"/><circle transform="matrix(.9999 -.01644 .01644 .9999 -1.206 8.012)" class="st6" cx="486.7" cy="77.4" r="10"/></g></g><path class="st4" d="m544.2 91.3-32.3-.6s5.5 11.5 16 11.5c10.2 0 15.8-8.6 16.3-10.9z"/><ellipse transform="scale(-1) rotate(-15.408 -572.18 4025.594)" cx="544.6" cy="77.4" rx="4.2" ry="4.5"/><ellipse transform="scale(-1) rotate(-15.409 -572.137 3768.318)" cx="509.8" cy="77.4" rx="4.2" ry="4.5"/><path class="st7" d="M496 10.6c5.4 5.6 5.2 14.4-.4 19.8l-12.2 11.8c-5.6 5.4-14.4 5.2-19.8-.4-5.4-5.6-5.2-14.4.4-19.8 3.1-2.9 9.2-8.8 12.2-11.8 5.6-5.3 14.4-5.2 19.8.4zM552.9 10.4c5.4-5.5 14.3-5.6 19.8-.1 3 3 9.1 8.9 12.1 11.9 5.5 5.4 5.6 14.3.1 19.8-5.4 5.5-14.3 5.6-19.8.1l-12.1-12c-5.4-5.4-5.5-14.2-.1-19.7z"/><path class="st8" d="M558.6 65s7.9 30.2 0 55.3c6.4-6.7 12.2-36.7 0-55.3z"/><path class="st7" d="m526.5 37.8-39.8 41.9s-.5-5-.6-11.7c-.3-12.7.4-31.6 7.2-35.4 10.3-5.8 32.8-12.2 32.8-12.2s27 6.4 32.5 19.5 5.5 36.6 5.5 36.6-24-30.4-37.6-38.7z"/><path class="st10" d="M570.4 8.5s-17.8 8.4-15.5 23.8l8.4 8.3s-3-25.6 7.1-32.1z"/><path class="st11" d="m577.6 15.2 8.2 8.2s.3 16-16.7 21.2c5.2-4.6 12.3-16 8.5-29.4zM497.5 28s.4-15-20.9-18.3l-7 6.7c.1.1 23.2-1 27.9 11.6z"/><path class="st8" d="m492.1 33.5-10.7 10.2s-19.6-5.2-18.5-20.5c4.1 6 15.6 12.7 29.2 10.3z"/><path class="st11" d="M526 22.4s15-1.5 24.8 5c-6.3-.1-23.7 4.2-23.7 4.2s-.3-5.8-1.1-9.2z"/><path class="st8" d="M529.6 35.7s30.4 7.1 39.5 29.4c-1 5.5-2.3 7.9-2.3 7.9s-16.6-30-37.2-37.3z"/><path class="st10" d="M524 31.6s-36.5 8.9-38 35.1l38-35.1z"/><path class="st11" d="M523.3 18.3s1.7 3.4 1.8 8.6l-29.4 3.4c-.1 0 9.5-9.7 27.6-12z"/><path class="st7" d="M519.7 28s4.3-7.4 16.4-3.5c-5.2.1-9.3 2.1-10.2 4-.9 2-5 .9-6.2-.5z"/><path class="st7" d="M519.7 28s-5.7-5.3-13.2-2.6c4.3.3 8.1 3.2 8.3 3.8-.7-.6 4.9-1.2 4.9-1.2z"/><path d="M620.7 478.9c24.1-14.7 31.6-46.1 16.9-70.2-3.3-5.4-7.4-9.9-12.1-13.5 6.1-8.6 13.1-17 21-24.9 3.7-3.7 7.4-7.1 11.2-10.4 1.5 1.3 3 2.6 4.4 4l12.5-7.7c6.4-3.9 14.8-1.9 18.7 4.5l12.4 20.3c3.9 6.4 1.9 14.8-4.5 18.7l-12.5 7.7c2.8 9.5 4.1 19.3 4 29l14.2 4c7.2 2 11.5 9.5 9.5 16.8l-6.4 23c-2 7.2-9.5 11.5-16.8 9.5l-14.2-4c-3.8 6.4-8.3 12.4-13.5 17.8l7.7 12.5c3.9 6.4 1.9 14.8-4.5 18.7l-20.3 12.4c-6.4 3.9-14.8 1.9-18.7-4.5l-7.7-12.5c-7.3 2.2-14.8 3.4-22.3 3.8-4.3-15.3-6.2-31.3-5.6-47.5 9.1-.1 18.3-2.4 26.6-7.5z" style="fill:#489aff"/><path class="st13" d="M599.8 538.1H132.3c-3.8 0-6.9-3.1-6.9-6.9V203c0-3.8 3.1-6.9 6.9-6.9h467.5c3.8 0 6.9 3.1 6.9 6.9v328.2c0 3.8-3.1 6.9-6.9 6.9z"/><path class="st14" d="M594.9 533.6H137.2c-3 0-5.5-2.5-5.5-5.5v-322c0-3 2.5-5.5 5.5-5.5h457.7c3 0 5.5 2.5 5.5 5.5v322.1c0 3-2.4 5.4-5.5 5.4z"/><path d="M576.8 504.2H155.3c-1.9 0-3.4-1.5-3.4-3.4V219.6c0-1.9 1.5-3.4 3.4-3.4h421.4c1.9 0 3.4 1.5 3.4 3.4v281.2c0 1.9-1.5 3.4-3.3 3.4z" style="fill:#2f6dff"/><path class="st13" d="M113.7 520.4c-1.4 2.6-2.2 5.4-2.2 8.6 0 10 8.1 18.1 18.1 18.1h473.2c10 0 18.1-8.1 18.1-18.1 0-3.1-.9-6-2.2-8.6h-505z"/><path d="M113.7 537.5c3.1 5.6 8.9 9.5 15.8 9.5h473.2c6.9 0 12.8-3.9 15.8-9.5H113.7z" style="fill:#c8d6f2"/><path class="st17" d="M585.2 196.1H264v214.7c0 4.7 3.8 8.6 8.6 8.6h334.2V217.6c-.1-11.9-9.7-21.5-21.6-21.5z"/><path d="M649.1 409.7H278.6c-1.5 0-2.8-1.2-2.8-2.8v-233c0-1.5 1.2-2.8 2.8-2.8h370.5c1.5 0 2.8 1.2 2.8 2.8v233c-.1 1.5-1.3 2.8-2.8 2.8z" style="opacity:.21;fill:#e3eaff"/><path class="st19" d="M664.1 393.6H293.6c-1.5 0-2.8-1.2-2.8-2.8v-233c0-1.5 1.2-2.8 2.8-2.8h370.5c1.5 0 2.8 1.2 2.8 2.8v233c0 1.5-1.3 2.8-2.8 2.8z"/><path class="st17" d="M225.1 317.8h-45.4c-1 0-1.7-.8-1.7-1.7v-47.6c0-1 .8-1.7 1.7-1.7h45.4c1 0 1.7.8 1.7 1.7v47.6c0 .9-.8 1.7-1.7 1.7z"/><path class="st14" d="M222.2 391.9h-45.4c-1 0-1.7-.8-1.7-1.7v-47.6c0-1 .8-1.7 1.7-1.7h45.4c1 0 1.7.8 1.7 1.7v47.6c.1 1-.7 1.7-1.7 1.7zM222.2 464.5h-45.4c-1 0-1.7-.8-1.7-1.7v-47.6c0-1 .8-1.7 1.7-1.7h45.4c1 0 1.7.8 1.7 1.7v47.6c.1.9-.7 1.7-1.7 1.7z"/><path class="st20" d="M210.2 433.3c0-6.4-5.2-11.6-11.6-11.6-6.4 0-11.6 5.2-11.6 11.6 0 0-1.6 12.3 11.6 22.1 13.2-9.8 11.6-22.1 11.6-22.1z"/><path class="st19" d="M199.3 441.7c-5.2.4-9.5-3.9-9.1-9.1.3-4.1 3.6-7.4 7.7-7.7 5.2-.4 9.5 3.9 9.1 9.1-.4 4.1-3.7 7.4-7.7 7.7z"/><circle class="st20" cx="198.4" cy="365.7" r="16.1"/><circle class="st19" cx="198.4" cy="365.7" r="13"/><path d="M198.4 352.8c5.9 0 10.8 3.9 12.4 9.3.1.2.3.4.5.4.3 0 .6-.3.5-.7-1.7-5.8-7.1-10-13.4-10-6.3 0-11.7 4.2-13.4 10-.1.3.2.7.5.7.2 0 .4-.2.5-.4 1.5-5.4 6.5-9.3 12.4-9.3z" style="fill:#bb87ee"/><path d="M212.7 366.2c-.8 0-1.4.6-1.5 1.3-.9 6.3-6.3 11.2-12.8 11.2-6.6 0-12-4.9-12.8-11.2-.1-.8-.8-1.3-1.5-1.3-.9 0-1.7.8-1.5 1.7 1.1 7.9 7.8 13.9 15.9 13.9 8.1 0 14.9-6.1 15.9-13.9 0-.9-.7-1.7-1.7-1.7z" style="fill:#7f57ee"/><circle class="st19" cx="198.4" cy="365.7" r="13"/><path class="st20" d="M211 369.9c-.2 0-.4.1-.5.3-1.8 4.9-6.6 8.4-12.1 8.4-5.6 0-10.3-3.5-12.1-8.4-.1-.2-.3-.3-.5-.3-.4 0-.6.4-.5.7 2 5.3 7.1 9.1 13.1 9.1s11.1-3.8 13.1-9.1c.1-.3-.2-.7-.5-.7zM198.3 366.9c-.3 0-.6-.3-.6-.6v-9.1c0-.3.3-.6.6-.6s.6.3.6.6v9.1c0 .3-.2.6-.6.6z"/><path class="st20" d="M197.9 365.9c.2-.3.6-.3.9-.1l5.6 4.8c.3.2.3.6.1.9-.2.3-.6.3-.9.1l-5.6-4.8c-.3-.2-.4-.6-.1-.9z"/><path class="st23" d="M198 353.7h.5v1.2h-.5zM198 376.4h.5v1.2h-.5zM186.2 365.4h1.2v.5h-1.2zM209 365.4h1.2v.5H209z"/><path transform="rotate(-44.976 190.188 357.62)" class="st23" d="M190 357h.5v1.2h-.5z"/><path transform="rotate(-45.001 206.248 373.68)" class="st23" d="M206 373.1h.5v1.2h-.5z"/><path transform="rotate(-134.999 190.18 373.68)" class="st23" d="M190 373.1h.5v1.2h-.5z"/><path transform="rotate(-135.024 206.262 357.616)" class="st23" d="M206 357h.5v1.2h-.5z"/><path class="st13" d="M425.5 370.2H315.2c-.7 0-1.3-.6-1.3-1.3V181.3c0-.7.6-1.3 1.3-1.3h110.2c.7 0 1.3.6 1.3 1.3v187.6c.1.7-.5 1.3-1.2 1.3z"/><path class="st14" d="M405.3 211.4h-71c-.6 0-1-.5-1-1v-14c0-.6.5-1 1-1h71c.6 0 1 .5 1 1v14c0 .6-.4 1-1 1zM357.7 301h-14.5c-3.4 0-6.2-2.8-6.2-6.2 0-3.4 2.8-6.2 6.2-6.2h14.5c3.4 0 6.2 2.8 6.2 6.2 0 3.5-2.8 6.2-6.2 6.2z"/><path class="st20" d="M399.6 301h-14.5c-3.4 0-6.2-2.8-6.2-6.2 0-3.4 2.8-6.2 6.2-6.2h14.5c3.4 0 6.2 2.8 6.2 6.2 0 3.5-2.8 6.2-6.2 6.2z"/><path class="st19" d="M331.7 227.6h78.4V240h-78.4zM331.7 248.5h78.4v12.4h-78.4z"/><path style="fill:#cdd4ff" d="M348.6 268.7h45.1v2.8h-45.1z"/><path class="st20" d="M659.2 335h-141c-8.7 0-15.7-7-15.7-15.7s7-15.7 15.7-15.7h141c8.7 0 15.7 7 15.7 15.7s-7 15.7-15.7 15.7z"/><path class="st13" d="M537.1 201.8h-87.8c-7.1 0-12.9-5.8-12.9-12.9 0-7.1 5.8-12.9 12.9-12.9h87.8c7.1 0 12.9 5.8 12.9 12.9 0 7.1-5.7 12.9-12.9 12.9z"/><circle class="st25" cx="466.2" cy="188.9" r="4"/><circle cx="493.9" cy="188.9" r="4" style="fill:#90c240"/><circle cx="519.4" cy="188.9" r="4" style="fill:#eb4f24"/><circle class="st4" cx="199" cy="293.8" r="9.8"/><path class="st20" d="M209.1 282h-1.7l-2.5-3.5c-.2-.3-.5-.4-.9-.4h-9.9c-.3 0-.7.2-.9.4l-2.5 3.5H189c-2.7 0-4.9 2.2-4.9 4.9v14.2c0 2.7 2.2 4.9 4.9 4.9h20.1c2.7 0 4.9-2.2 4.9-4.9v-14.2c0-2.7-2.2-4.9-4.9-4.9zm-10 19.1c-4 0-7.2-3.2-7.2-7.2s3.2-7.2 7.2-7.2 7.2 3.2 7.2 7.2c0 3.9-3.2 7.2-7.2 7.2z"/><circle class="st14" cx="199.1" cy="293.8" r="4.8"/><path class="st13" d="M554.2 285h-82.4c-1.1 0-2-.9-2-2v-52.7c0-1.1.9-2 2-2h82.4c1.1 0 2 .9 2 2V283c.1 1-.9 2-2 2z"/><path d="M513.1 256.1h-.1c-.4 0-.8-.1-1.1-.3l-33.3-18.5c-1.1-.6-1.5-2-.9-3.1s2-1.5 3.1-.9l32.3 17.9 32.3-17.9c1.1-.6 2.5-.2 3.1.9.6 1.1.2 2.5-.9 3.1l-33.3 18.5c-.4.2-.8.3-1.2.3z" style="fill:#fd4940"/><path d="M681.2 279.1H577.6c-1 0-1.8-.8-1.8-1.8v-135c0-1 .8-1.8 1.8-1.8h103.5c1 0 1.8.8 1.8 1.8v135c.1 1-.7 1.8-1.7 1.8z" style="fill:#544db8"/><path class="st30" d="M599.8 159.1h-7.1c-.4 0-.7-.6-.7-1.4 0-.8.3-1.4.7-1.4h7.1c.4 0 .7.6.7 1.4 0 .8-.3 1.4-.7 1.4zM644 159.1h-40.8c-.4 0-.7-.6-.7-1.4 0-.8.3-1.4.7-1.4H644c.4 0 .7.6.7 1.4 0 .8-.3 1.4-.7 1.4z"/><path class="st31" d="M616.2 164.8h-13c-.4 0-.7-.6-.7-1.4 0-.8.3-1.4.7-1.4h13c.4 0 .7.6.7 1.4-.1.8-.4 1.4-.7 1.4z"/><path class="st13" d="M637.6 164.8h-18.8c-.4 0-.7-.6-.7-1.4 0-.8.3-1.4.7-1.4h18.8c.4 0 .7.6.7 1.4 0 .8-.3 1.4-.7 1.4zM644 192.6h-40.8c-.4 0-.7-.6-.7-1.4 0-.8.3-1.4.7-1.4H644c.4 0 .7.6.7 1.4 0 .8-.3 1.4-.7 1.4z"/><path class="st30" d="M599.8 198.3h-7.1c-.4 0-.7-.6-.7-1.4 0-.8.3-1.4.7-1.4h7.1c.4 0 .7.6.7 1.4 0 .8-.3 1.4-.7 1.4z"/><path class="st13" d="M616.2 198.3h-13c-.4 0-.7-.6-.7-1.4 0-.8.3-1.4.7-1.4h13c.4 0 .7.6.7 1.4-.1.8-.4 1.4-.7 1.4z"/><path class="st31" d="M637.6 198.3h-18.8c-.4 0-.7-.6-.7-1.4 0-.8.3-1.4.7-1.4h18.8c.4 0 .7.6.7 1.4 0 .8-.3 1.4-.7 1.4zM654.1 170.5h-51c-.4 0-.7-.6-.7-1.4 0-.8.3-1.4.7-1.4h51c.4 0 .7.6.7 1.4 0 .8-.3 1.4-.7 1.4z"/><path class="st30" d="M643.9 176.2H631c-.1 0-.2-.1-.2-.2v-2.3c0-.1.1-.2.2-.2h12.9c.1 0 .2.1.2.2v2.3c.1.1-.1.2-.2.2z"/><path class="st13" d="M620.1 176.2h-16.9c-.4 0-.7-.6-.7-1.4 0-.8.3-1.4.7-1.4h16.9c.4 0 .7.6.7 1.4 0 .8-.4 1.4-.7 1.4z"/><path class="st30" d="M629.1 176.2h-6.7c-.4 0-.7-.6-.7-1.4 0-.8.3-1.4.7-1.4h6.7c.4 0 .7.6.7 1.4 0 .8-.3 1.4-.7 1.4z"/><path class="st13" d="M599.8 181.7h-7.1c-.4 0-.7-.6-.7-1.4 0-.8.3-1.4.7-1.4h7.1c.4 0 .7.6.7 1.4 0 .8-.3 1.4-.7 1.4zM654.1 181.7h-51c-.4 0-.7-.6-.7-1.4 0-.8.3-1.4.7-1.4h51c.4 0 .7.6.7 1.4 0 .8-.3 1.4-.7 1.4zM599.8 203.6h-7.1c-.4 0-.7-.6-.7-1.4 0-.8.3-1.4.7-1.4h7.1c.4 0 .7.6.7 1.4 0 .8-.3 1.4-.7 1.4zM649 203.6h-17.9c-.2 0-.3-.1-.3-.3v-2.2c0-.2.1-.3.3-.3H649c.2 0 .3.1.3.3v2.2c0 .2-.2.3-.3.3zM620.1 203.6h-16.9c-.4 0-.7-.6-.7-1.4 0-.8.3-1.4.7-1.4h16.9c.4 0 .7.6.7 1.4 0 .8-.4 1.4-.7 1.4zM629.1 203.6h-6.7c-.4 0-.7-.6-.7-1.4 0-.8.3-1.4.7-1.4h6.7c.4 0 .7.6.7 1.4 0 .8-.3 1.4-.7 1.4z"/><path class="st32" d="M599.8 209.1h-7.1c-.4 0-.7-.6-.7-1.4 0-.8.3-1.4.7-1.4h7.1c.4 0 .7.6.7 1.4 0 .8-.3 1.4-.7 1.4z"/><path class="st30" d="M612 209.1h-8.8c-.4 0-.7-.6-.7-1.4 0-.8.3-1.4.7-1.4h8.8c.4 0 .7.6.7 1.4-.1.8-.4 1.4-.7 1.4zM592.6 187.5c-.4 0-.7-.6-.7-1.4 0-.8.3-1.4.7-1.4h7.1c.4 0 .7.6.7 1.4 0 .8-.3 1.4-.7 1.4"/><path class="st13" d="M651.4 187.5h-20.2c-.2 0-.3-.1-.3-.3V185c0-.2.1-.3.3-.3h20.2c.2 0 .3.1.3.3v2.2c0 .1-.2.3-.3.3z"/><path class="st32" d="M620.1 187.5h-16.9c-.4 0-.7-.6-.7-1.4 0-.8.3-1.4.7-1.4h16.9c.4 0 .7.6.7 1.4 0 .7-.4 1.4-.7 1.4zM629.1 187.5h-6.7c-.4 0-.7-.6-.7-1.4 0-.8.3-1.4.7-1.4h6.7c.4 0 .7.6.7 1.4 0 .7-.3 1.4-.7 1.4z"/><path class="st13" d="M644 215h-40.8c-.4 0-.7-.6-.7-1.4 0-.8.3-1.4.7-1.4H644c.4 0 .7.6.7 1.4 0 .8-.3 1.4-.7 1.4zM616.2 220.7h-13c-.4 0-.7-.6-.7-1.4 0-.8.3-1.4.7-1.4h13c.4 0 .7.6.7 1.4-.1.8-.4 1.4-.7 1.4zM637.6 220.7h-18.8c-.4 0-.7-.6-.7-1.4 0-.8.3-1.4.7-1.4h18.8c.4 0 .7.6.7 1.4 0 .8-.3 1.4-.7 1.4zM644 248.5h-40.8c-.4 0-.7-.6-.7-1.4 0-.8.3-1.4.7-1.4H644c.4 0 .7.6.7 1.4 0 .8-.3 1.4-.7 1.4z"/><path class="st31" d="M599.8 254.2h-7.1c-.4 0-.7-.6-.7-1.4 0-.8.3-1.4.7-1.4h7.1c.4 0 .7.6.7 1.4 0 .8-.3 1.4-.7 1.4z"/><path class="st30" d="M616.2 254.2h-13c-.4 0-.7-.6-.7-1.4 0-.8.3-1.4.7-1.4h13c.4 0 .7.6.7 1.4-.1.8-.4 1.4-.7 1.4z"/><path class="st13" d="M637.6 254.2h-18.8c-.4 0-.7-.6-.7-1.4 0-.8.3-1.4.7-1.4h18.8c.4 0 .7.6.7 1.4 0 .8-.3 1.4-.7 1.4z"/><path class="st31" d="M599.8 226.4h-7.1c-.4 0-.7-.6-.7-1.4 0-.8.3-1.4.7-1.4h7.1c.4 0 .7.6.7 1.4 0 .8-.3 1.4-.7 1.4zM640.2 226.4h-37.4c-.1 0-.3-.1-.3-.3v-2.2c0-.1.1-.3.3-.3h37.4c.1 0 .3.1.3.3v2.2c-.1.2-.2.3-.3.3z"/><path class="st13" d="M599.8 232.1h-7.1c-.4 0-.7-.6-.7-1.4 0-.8.3-1.4.7-1.4h7.1c.4 0 .7.6.7 1.4 0 .8-.3 1.4-.7 1.4zM620.1 232.1h-16.9c-.4 0-.7-.6-.7-1.4 0-.8.3-1.4.7-1.4h16.9c.4 0 .7.6.7 1.4 0 .8-.4 1.4-.7 1.4zM629.1 232.1h-6.7c-.4 0-.7-.6-.7-1.4 0-.8.3-1.4.7-1.4h6.7c.4 0 .7.6.7 1.4 0 .8-.3 1.4-.7 1.4zM599.8 237.6h-7.1c-.4 0-.7-.6-.7-1.4 0-.8.3-1.4.7-1.4h7.1c.4 0 .7.6.7 1.4 0 .8-.3 1.4-.7 1.4zM650 237.6h-47.2c-.2 0-.3-.1-.3-.3v-2.2c0-.2.1-.3.3-.3H650c.2 0 .3.1.3.3v2.2c0 .2-.2.3-.3.3zM599.8 259.5h-7.1c-.4 0-.7-.6-.7-1.4 0-.8.3-1.4.7-1.4h7.1c.4 0 .7.6.7 1.4 0 .7-.3 1.4-.7 1.4zM654.1 259.5h-22.5c-.4 0-.7-.6-.7-1.4 0-.8.3-1.4.7-1.4h22.5c.4 0 .7.6.7 1.4-.1.7-.4 1.4-.7 1.4zM620.1 259.5h-16.9c-.4 0-.7-.6-.7-1.4 0-.8.3-1.4.7-1.4h16.9c.4 0 .7.6.7 1.4 0 .7-.4 1.4-.7 1.4zM629.1 259.5h-6.7c-.4 0-.7-.6-.7-1.4 0-.8.3-1.4.7-1.4h6.7c.4 0 .7.6.7 1.4 0 .7-.3 1.4-.7 1.4z"/><path class="st32" d="M633.8 265h-31.1c-.1 0-.2-.1-.2-.2v-2.3c0-.1.1-.2.2-.2h31.1c.1 0 .2.1.2.2v2.3c0 .1-.1.2-.2.2z"/><path class="st31" d="M652.6 243.3h-21.4c-.2 0-.3-.1-.3-.3v-2.2c0-.2.1-.3.3-.3h21.4c.2 0 .3.1.3.3v2.2c0 .2-.2.3-.3.3z"/><path class="st32" d="M620.1 243.3h-16.9c-.4 0-.7-.6-.7-1.4 0-.8.3-1.4.7-1.4h16.9c.4 0 .7.6.7 1.4 0 .8-.4 1.4-.7 1.4zM629.1 243.3h-6.7c-.4 0-.7-.6-.7-1.4 0-.8.3-1.4.7-1.4h6.7c.4 0 .7.6.7 1.4 0 .8-.3 1.4-.7 1.4z"/><circle cx="674.4" cy="143.4" r="22.6" style="fill:#ff4dd1"/><path class="st19" d="m672.7 141.3-9 3.3 9 3.3v3.4l-12.8-4.9v-3.5l12.8-4.9v3.3zM675.6 137.9l12.8 4.9v3.5l-12.8 4.9v-3.4l9-3.3-9-3.3v-3.3z"/><circle class="st25" cx="525.1" cy="523.8" r="24.5"/><path class="st4" d="M538 522.4c0 1.5-.2 2.9-.7 4.2-.5 1.3-1.2 2.2-2.1 3-.9.7-1.9 1.1-3.1 1.1-.8 0-1.5-.2-2.1-.6-.6-.4-1-.9-1.3-1.5h-.3c-1.1 1.4-2.6 2-4.4 2-1.9 0-3.3-.6-4.4-1.7-1.1-1.1-1.6-2.7-1.6-4.6 0-2.2.7-4 2.1-5.4 1.4-1.4 3.3-2 5.5-2 .9 0 1.9.1 3 .3 1.1.2 2 .4 2.7.6l-.4 7.7c0 1.5.4 2.2 1.2 2.2.7 0 1.2-.5 1.6-1.5.4-1 .6-2.3.6-3.9 0-1.7-.4-3.2-1.1-4.5-.7-1.3-1.7-2.3-3-3-1.3-.7-2.7-1-4.4-1-2.1 0-4 .4-5.6 1.3-1.6.9-2.8 2.1-3.6 3.8-.8 1.7-1.3 3.6-1.3 5.7 0 2.9.8 5.1 2.3 6.7 1.6 1.6 3.8 2.3 6.8 2.3 1.1 0 2.3-.1 3.7-.4 1.3-.2 2.7-.6 4-1.1v3c-2.3 1-4.8 1.4-7.5 1.4-4 0-7.1-1.1-9.4-3.2-2.2-2.1-3.4-5-3.4-8.8 0-2.6.6-5 1.7-7.1 1.1-2.1 2.8-3.8 4.9-5 2.1-1.2 4.6-1.8 7.3-1.8 2.3 0 4.4.5 6.2 1.4 1.8 1 3.2 2.3 4.2 4.1 1.4 2 1.9 4 1.9 6.3zm-16.2 2c0 2.2.9 3.3 2.7 3.3.9 0 1.7-.3 2.2-1 .5-.7.8-1.8.9-3.3l.2-3.5c-.5-.1-1.1-.2-1.8-.2-1.3 0-2.3.4-3.1 1.2-.7 1-1.1 2.1-1.1 3.5z"/><path class="st20" d="M402.1 100.4H248.6c-12.5 0-22.6 10.1-22.6 22.6 0 12.5 10.1 22.6 22.6 22.6h11.3l10.9 10.9 10.9-10.9h120.4c12.5 0 22.6-10.1 22.6-22.6 0-12.5-10.1-22.6-22.6-22.6z"/><path class="st4" d="M358.2 130.2h-101c-1.4 0-2.5-1.1-2.5-2.5s1.1-2.5 2.5-2.5h101c1.4 0 2.5 1.1 2.5 2.5s-1.1 2.5-2.5 2.5zM326.6 116.3h-69.5c-1.4 0-2.5-1.1-2.5-2.5s1.1-2.5 2.5-2.5h69.5c1.4 0 2.5 1.1 2.5 2.5s-1.1 2.5-2.5 2.5z"/><path d="M653 291.1c-13.6 0-24.6 11-24.6 24.6 0 13.6 11 24.6 24.6 24.6 13.6 0 24.6-11 24.6-24.6 0-13.5-11-24.6-24.6-24.6zm-12.4 22.7c0-1.7 1.3-3 3-3s3 1.3 3 3-1.3 3-3 3-3-1.3-3-3zm12.4 15.4c-4 0-7.2-2.9-7.8-6.8h15.5c-.5 3.9-3.7 6.8-7.7 6.8zm9.4-12.3c-1.7 0-3-1.3-3-3s1.3-3 3-3 3 1.3 3 3c.1 1.6-1.3 3-3 3z" style="fill:#fec800"/><path class="st19" d="m287.3 490.9-1.5-2.9 39.1-19.5 49.2.8 53.5-20.1h40.8l43.6-14.6.4.1 34.9 3.9 19.7-10.2 1.5 2.8-20.6 10.7h-.5l-35.1-4-43.6 14.5h-40.8l-53.2 20.1h-.3l-48.8-.8z"/><path class="st20" d="m461.6 489.1-27.6 7.6c-7.6 2.1-12.1 10-10 17.6l5.2 19c2.1 7.6 10 12.1 17.6 10l8.3-2.3 8.2 8.1 2.9-11.1 8.3-2.3c7.6-2.1 12.1-10 10-17.6l-5.2-19c-2.2-7.6-10.1-12.1-17.7-10z"/><circle class="st4" cx="440.2" cy="521.1" r="3.2"/><circle class="st4" cx="454.2" cy="517.3" r="3.2"/><circle class="st4" cx="468.1" cy="513.5" r="3.2"/><circle class="st25" cx="325" cy="469.3" r="5.1"/><circle cx="512.4" cy="436.5" r="5.1" style="fill:#ff4f72"/><path class="st36" d="M674.7 539.4c-19.7-4.2-41.5-19.5-42.5-37.1-1.1-19.3 10.2-38.8 16.2-49.2 1.2-2 2.6-4.5 2.9-5.2 0 0-.2.5-.2 1.3l14.8.9c-.2 2.8-1.6 5.1-4.6 10.4-5.3 9.1-15.1 26.1-14.2 41 .5 8.8 15.5 20.2 30.8 23.4l-3.2 14.5zM716.9 537.8l-3.1-14.5c16.9-3.6 30.1-12 30.6-19.5 1-15-9.4-33.2-15-42.9-3.2-5.7-4.6-8-4.7-10.7l14.8-.9c0-.8-.2-1.3-.2-1.3.3.8 1.8 3.5 3.1 5.6 6.4 11.1 18.2 31.9 16.9 51.3-1.3 17.9-23.7 28.9-42.4 32.9z"/><path class="st5" d="m731.1 466.9 18.4-7.4c-1.6-20.3-21.8-44.1-53.7-44.1-32 0-51.9 23.9-53.6 44.1l18.6 7.4v94.2h70.3v-94.2z"/><path class="st36" d="M708.6 416.7c-1.8-.4-2.8-.6-5.1-.9l-1.2-12.1-12.9-.5-.5 12.5c-2.6.3-4.1.5-6.2 1-.1.6 0 1.2 0 1.9.3 7.9 6.3 14.1 13.5 13.7 7.1-.4 12.6-7.1 12.3-15 .1-.2.1-.5.1-.6z"/><path style="fill:#276c9b" d="m629.6 528.3 66.8 16.1 68.6-16-69.1 30.7z"/><g id="Front_2_"><path transform="rotate(-69.305 722.725 574.42)" class="st36" d="M714.2 564.6h17v19.7h-17z" id="Pants_2_"/></g><path class="st38" d="m717.1 561.3-7.7 20.4-87.5-33c-5.6-2.1-8.5-8.4-6.4-14.1 2.1-5.6 8.4-8.5 14.1-6.4l87.5 33.1z"/><path transform="rotate(110.689 710.892 571.569)" class="st39" d="M698.3 566.8h25.1v9.5h-25.1z"/><g id="Front_1_"><path transform="rotate(-110.689 671.13 574.434)" class="st36" d="M662.6 564.6h17v19.7h-17z" id="Pants_1_"/></g><path class="st38" d="m676.8 561.3 7.7 20.4 87.5-33c5.6-2.1 8.5-8.4 6.4-14.1-2.1-5.6-8.4-8.5-14.1-6.4l-87.5 33.1z"/><path transform="rotate(69.305 682.942 570.098)" class="st39" d="M670.4 565.3h25.1v9.5h-25.1z"/><path class="st4" d="m641.1 573.2-4.7 2.2 10.2 25.8 5.3-2.4z"/><path class="st40" d="m668.7 584.4-.7-.9c4.1-1.9 6-6 4.2-9.9-1.8-3.9-6.2-5.2-10.3-3.3l-.3-1.4-20.4 4.4 10.8 25.6 16.7-14.5z"/><path class="st4" d="m751.3 572.3 4.7 2.1-10.9 25.6-4.6-2.1z"/><path class="st40" d="m724.6 584.4.7-.9c-4.1-1.9-6-6-4.2-9.9 1.8-3.9 6.2-5.2 10.3-3.3l.3-1.4 19.5 3.5-10.8 25.6-15.8-13.6z"/><circle transform="matrix(1 .0046 -.0046 1 1.702 -3.368)" class="st36" cx="733.9" cy="368.8" r="10.1"/><path class="st36" d="M735.3 368.3c0 21.7-17.2 39.3-38.1 39.3-21 0-38.1-17.6-38.2-39.3l.5-10.7c0-21.7 16.7-39.3 37.6-39.3 21 0 37.7 17.6 37.7 39.3l.5 10.7z"/><ellipse transform="matrix(1 .00456 -.00456 1 1.695 -3.002)" class="st36" cx="659.6" cy="370.4" rx="10" ry="10.1"/><path d="M697.5 407.6c-21.2 0-38.5-17.6-38.5-39.3v-2.6l4.3.3s.8 19.7 14.6 19.4c4.8-.1 11.2-6.5 19.6-6.7 8.8-.1 14.4 6.3 19.5 6.3 13.7 0 14-19.9 14-19.9l4.1-.3c0 .3.1 4 .1 4 .1 21.7-16.8 38.8-37.7 38.8z" style="opacity:.9;fill:#af928b"/><path d="M659.2 350.4c.8-12 10.5-32.7 37.2-33.9 26.6.9 37.6 20.9 38.5 32.9.3 3.9.3 15.3.3 15.3l-4.1.3s1.6-35.3-19.7-29.2c-4.7 1.4-10.4 2.7-14.7 2.8-4.6 0-9.3-.8-14.1-2.1-21.3-5.9-19.3 29.4-19.3 29.4l-4.3-.3c0 .1 0-11.3.2-15.2z" style="fill:#706053"/><path d="m666.2 331.8 5.7 5.9s36.3 6.2 53.7.7c8.4-2.7 10.4-5.8 15.4-22.6-19.6 7-20.7 8.5-20.7 8.5s9.7-10.1 18.2-13.8c-9.6-4.5-26.8-3.6-36.7 2.5.6-2.2 3.1-5 15.7-9.5-11.2-.5-39.6.4-43.4 16.1 0 0-3.9-1.6-.3-7-6.1 2.1-14.2 8.2-7.6 19.2z" style="fill:#373737"/><path d="M739.9 543.5c0 1.2-.9 2.2-2 2.2h-85.8c-1.1 0-2-1-2-2.2v-62.8c0-1.2.9-2.2 2-2.2h85.8c1.1 0 2 1 2 2.2v62.8z" style="fill:#c2c7d3"/><path id="XMLID_114_" class="st4" d="m684.7 508.9.3-.3 1.4-1.3h-2.5l-2.4 2.4v-2.4h-1.6v6.5h1.6v-2.4l4.9 4.8v-2.4l-3.3-3.3z"/><path id="XMLID_111_" class="st4" d="M689.1 507.3c-.9 0-1.7.3-2.3.9-.6.6-.9 1.4-.9 2.3s.3 1.7.9 2.3c.6.6 1.4.9 2.3.9.9 0 1.7-.3 2.3-.9.6-.6 1-1.4 1-2.3s-.3-1.7-.9-2.3c-.7-.6-1.5-.9-2.4-.9zm1.2 4.4c-.3.3-.7.5-1.1.5-.5 0-.8-.2-1.2-.5-.3-.3-.5-.7-.5-1.2s.2-.8.5-1.1c.3-.3.7-.5 1.2-.5s.8.2 1.1.5c.3.3.5.7.5 1.1-.1.5-.2.9-.5 1.2z"/><path id="XMLID_110_" class="st4" d="M696.1 507.3h-4.9l1.6 1.6V513.7l1.6-1.6v-3.3h1.6c.5 0 .8.2 1.1.5.3.3.5.7.5 1.1 0 .5-.2.8-.5 1.2-.3.3-.7.5-1.1.5h-.8l-1.6 1.6h2.5c.9 0 1.7-.3 2.3-.9.6-.6 1-1.4 1-2.3s-.3-1.7-.9-2.3c-.7-.6-1.5-.9-2.4-.9z"/><path id="XMLID_109_" class="st4" d="M699.9 510.5c0 .9.3 1.7.9 2.3.6.6 1.4.9 2.3.9h3.3v-1.6h-3.3c-.5 0-.8-.2-1.2-.5l-.3-.3h4.7v-1.6h-6.5v.8z"/><path id="XMLID_108_" class="st4" d="M700.7 508.9h5.7v-1.6H699z"/><path id="XMLID_105_" class="st4" d="M713.4 510.5c0-.9-.3-1.7-.9-2.3-.6-.6-1.4-1-2.3-1h-3.3v6.5h1.6v-2.5l4.9 4.9v-2.5l-2.5-2.5h2.5v-.6zm-4.9-.8v-.8h1.6c.5 0 .8.2 1.1.5l.3.3h-3z"/><path class="st4" d="m716.3 387.9-33.3-.1s5.8 11.8 16.6 11.6c10.6-.2 16.2-9.1 16.7-11.5z"/><ellipse transform="scale(-1) rotate(-16.349 -2600.808 4987.385)" cx="716.5" cy="373.6" rx="4.3" ry="4.6"/><ellipse transform="scale(-1) rotate(-16.349 -2604.911 4737.864)" cx="680.6" cy="374.2" rx="4.3" ry="4.6"/><path class="st1" d="M128.1 209.5c-3.5-2.5-8.3-1.7-10.8 1.7-2.5 3.5-1.7 8.3 1.7 10.8l12.1 8.8 9.1-12.5-12.1-8.8z"/><path class="st6" d="M454.7 142.6c-1.8-3.9-6.4-5.6-10.3-3.9-3.9 1.8-5.6 6.4-3.9 10.3l6.2 13.6 14.1-6.4-6.1-13.6zM613.4 149.7c3.1-2.9 3.3-7.8.4-11-2.9-3.1-7.8-3.3-11-.4l-10.9 10.2 10.6 11.4 10.9-10.2z"/></g></svg>