<svg xmlns="http://www.w3.org/2000/svg" xmlns:xlink="http://www.w3.org/1999/xlink" viewBox="-105 197 400 400" style="enable-background:new -105 197 400 400" xml:space="preserve"><defs><path id="a" d="M63.1 565.7s-165.8-32.2-137.4-235.2 296.4-108.9 321.8-41.8-11.4 149.7-1.6 245.4-182.8 31.6-182.8 31.6z"/></defs><clipPath id="b"><use xlink:href="#a" style="overflow:visible"/></clipPath><path d="M63.1 565.7s-165.8-32.2-137.4-235.2 296.4-108.9 321.8-41.8-11.4 149.7-1.6 245.4-182.8 31.6-182.8 31.6z" style="clip-path:url(#b);fill:#9684ef"/><path d="M-68 104s43 191 111 226 202 7 245-29 0-229 0-229l-356 32z" style="clip-path:url(#b);fill:#7e79cc"/><path d="M-68 548s38-130 87-122 19 143.3 38 160.7C76 604-29 613-29 613l-39-65z" style="clip-path:url(#b);fill:#aba0f9"/></svg>