<svg xmlns="http://www.w3.org/2000/svg" xmlns:xlink="http://www.w3.org/1999/xlink" viewBox="-105 197 400 400" style="enable-background:new -105 197 400 400" xml:space="preserve"><defs><path id="a" d="M-32.8 227.2s154.8-70.5 263.9 62.4 61.6 302.6-15.8 295.6-125-109.9-153.1-120.5S-39 452-75.9 406.9s-53.7-144.5 43.1-179.7z"/></defs><clipPath id="b"><use xlink:href="#a" style="overflow:visible"/></clipPath><path d="M-32.8 227.2s154.8-70.5 263.9 62.4 61.6 302.6-15.8 295.6-125-109.9-153.1-120.5S-39 452-75.9 406.9s-53.7-144.5 43.1-179.7z" style="clip-path:url(#b);fill:#9684ef"/><path d="M-91 132S63 203 51 350s-84 195-84 195l-283-77-26-183 251-153z" style="clip-path:url(#b);fill:#7e79cc"/><path d="M222 235s-60 44-38 103.5S308 398 327 390s20-121 20-121l-125-34z" style="clip-path:url(#b);fill:#aba0f9"/></svg>