<svg xmlns="http://www.w3.org/2000/svg" xmlns:xlink="http://www.w3.org/1999/xlink" viewBox="-105 197 400 400" style="enable-background:new -105 197 400 400" xml:space="preserve"><defs><path id="a" d="M-87.4 376.3s-23.3-41.5 0-60.3 128.9 17.6 176.6 11.3 134.5-35.2 154-44.6c19.5-9.4 57.8 30.8 39.6 79.8s-81.7 149-159.7 150.2c-77.8 1.3-190.3-93-210.5-136.4z"/></defs><clipPath id="b"><use xlink:href="#a" style="overflow:visible"/></clipPath><path d="M-87.4 376.3s-23.3-41.5 0-60.3 128.9 17.6 176.6 11.3 134.5-35.2 154-44.6c19.5-9.4 57.8 30.8 39.6 79.8s-81.7 149-159.7 150.2c-77.8 1.3-190.3-93-210.5-136.4z" style="clip-path:url(#b);fill:#7b63d3"/><path d="M-149.6 371.3s66.6 35.8 214.4 14.5 169.7-88.6 162.2-122c-7.5-33.3-264-53.4-304.3-26.4s-72.3 133.9-72.3 133.9z" style="clip-path:url(#b);fill:#5d4394"/><path d="M88 555.5S47.8 514.6 55.9 475s174.8-12.1 191.7 18.8-101.8 81.8-101.8 81.8L88 555.5z" style="clip-path:url(#b);fill:#9684ef"/></svg>