<svg xmlns="http://www.w3.org/2000/svg" xmlns:xlink="http://www.w3.org/1999/xlink" viewBox="-105 197 400 400" style="enable-background:new -105 197 400 400" xml:space="preserve"><defs><path id="a" d="M26 355.5s39.3 88.2 160 59.7 110.8 78.4 107.2 85.4c-3.6 7-130.8 145.2-273.2 52.3s-147.5-326.2-92.7-341.8 58 65.3 98.7 144.4z"/></defs><clipPath id="b"><use xlink:href="#a" style="overflow:visible"/></clipPath><path d="M26 355.5s39.3 88.2 160 59.7 110.8 78.4 107.2 85.4c-3.6 7-130.8 145.2-273.2 52.3s-147.5-326.2-92.7-341.8 58 65.3 98.7 144.4z" style="clip-path:url(#b);fill:#7b63d3"/><path d="M-148.5 161.9S-145.1 361 1.1 397s183-35 183-35L-5.7 130.3l-142.8 31.6z" style="clip-path:url(#b);fill:#64509b"/><path d="M114.9 633.1s-63.3-67.5-47-116.3 67.5 29.1 67.5 29.1 47.9 50.4 62.4 55.6c14.5 5.1-20.5 58.1-20.5 58.1l-62.4-26.5z" style="clip-path:url(#b);fill:#9684ef"/></svg>