<svg version="1.1" id="Layer_1" xmlns="http://www.w3.org/2000/svg" xmlns:xlink="http://www.w3.org/1999/xlink" x="0" y="0" viewBox="0 0 500 375" style="enable-background:new 0 0 500 375" xml:space="preserve"><style>.st0,.st1{opacity:.1;fill:#e0e0e0}.st1{fill:#ebebeb}.st2,.st3,.st5{opacity:.1;fill:#f9f9f9}.st3,.st5{fill:#f4f4f4}.st5{fill:#efefef}.st9{fill:none;stroke:#3b3b41;stroke-width:1.2;stroke-miterlimit:10}.st10{fill:#4f4f56}.st11,.st12{opacity:.1;fill:#e6e6e6}.st12{fill:none;stroke:#e0e0e0;stroke-width:.5;stroke-miterlimit:10}.st13{opacity:.1;fill:#fff}.st14{fill:none;stroke:#e6e6e6}.st14,.st15,.st16{opacity:.1;stroke-miterlimit:10}.st15{fill:none;stroke:#e0e0e0;stroke-width:.75}.st16{stroke:#ebebeb;stroke-width:.5}.st16,.st17{fill:none}.st19{fill-rule:evenodd;clip-rule:evenodd;fill:#fd82b3}.st22{opacity:.4}.st24{fill:#1a2e35}.st25{fill:#fdf9f8}.st26{fill:none;stroke:#1a2e35;stroke-miterlimit:10}.st27{fill:#fd82b3}.st28{fill:#797bf2}.st30{fill:#fff}.st32{fill:#455a64}.st34{fill:none;stroke:#455a64;stroke-miterlimit:10}</style><path class="st0" d="M434.1 64h11v54h-11z"/><path class="st1" d="M437 76.3h5.3V109H437zM437 67.7h5.3V73H437zM423.4 49.5h11.4v68.6h-11.4z"/><path class="st2" d="M427.9 60.6h2.3v47h-2.3zM423.4 53.7h11.4v1.7h-11.4zM423.4 56.6h11.4v1.7h-11.4zM423.4 109.4h11.4v1.7h-11.4zM423.4 112.3h11.4v1.7h-11.4z"/><path class="st3" d="M403.6 55.4h20v62.7h-20z"/><path class="st0" d="M420.4 65.8c0 2.5-3.1 4.6-6.9 4.6s-6.9-2-6.9-4.6c0-2.5 3.1-4.6 6.9-4.6 3.8 0 6.9 2 6.9 4.6"/><path style="opacity:.1;fill:none;stroke:#e0e0e0;stroke-miterlimit:10" d="M407.8 72.9h11.5v38.2h-11.5z"/><path class="st1" d="M391.3 70.3h12.3v47.9h-12.3z"/><path class="st2" d="M392.2 73.7h10.4v2.4h-10.4zM392.5 78.7h9.9V90h-9.9z"/><path class="st5" d="M361.5 68.9S350 62 353.7 58.5c3.7-3.4 7.2 5.9 7.2 5.9s-4-11.1 1.3-11.6 1.7 11.7 1.7 11.7 3.8-10 7-6.9c3.1 3.2-5.5 13-9.4 11.3"/><path d="M361.5 68.9s-13.2-3.9-11.3-9c1.9-5 9.6 3.4 8 3.6-1.6.3-3.7-3-2-7.2 1.6-4.2 6.3-.3 6.1 4.5-.2 4.8-3.9-.8 1.1-4.2s6.4 4.3 4 6.6c-2.4 2.3.1-3.8 3.5-3.7 3.3.3 4.2 7.6-9.4 9.4z" style="opacity:.1;fill:none;stroke:#e6e6e6;stroke-width:.5;stroke-miterlimit:10"/><path class="st0" d="M379.1 83.6c-.4 8.5-8.1 15.1-17.4 14.7-9.2-.4-16.4-7.6-16-16.2.4-8.5 8.1-15.1 17.4-14.7 9.2.4 16.4 7.7 16 16.2"/><path class="st3" d="M350.7 73c0 .5-.5 1-1.1.9-.6 0-1.1-.5-1-1 0-.5.5-1 1.1-.9.6 0 1 .4 1 1M354.2 83.2c0 .8-.8 1.4-1.7 1.4-.9 0-1.6-.7-1.5-1.5 0-.8.8-1.4 1.7-1.4.8 0 1.5.6 1.5 1.5M364.7 77.5c-.1 1.2-1.2 2.1-2.5 2.1-1.3-.1-2.3-1.1-2.3-2.3.1-1.2 1.2-2.1 2.5-2.1 1.4.1 2.4 1.1 2.3 2.3M364.4 93.2c0 .7-.7 1.2-1.4 1.2-.8 0-1.3-.6-1.3-1.3 0-.7.7-1.2 1.4-1.2s1.3.6 1.3 1.3M374.1 85.2c0 .9-.9 1.7-1.9 1.6-1 0-1.8-.8-1.8-1.8 0-.9.9-1.7 1.9-1.6 1.1.1 1.9.9 1.8 1.8M369.3 72.5c0 .8-.8 1.5-1.7 1.4-.9 0-1.6-.8-1.6-1.6s.8-1.5 1.7-1.4c1 0 1.7.7 1.6 1.6M377.9 74.7c0 .8-.8 1.5-1.7 1.5-.9 0-1.6-.8-1.6-1.6s.8-1.5 1.7-1.5c.9.1 1.6.8 1.6 1.6M377.1 92.6c0 .6-.6 1.1-1.3 1.1-.7 0-1.2-.6-1.2-1.2s.6-1.1 1.3-1.1c.7 0 1.2.6 1.2 1.2M351.5 92.1c0 1-.9 1.7-2 1.7s-1.9-.9-1.8-1.8c0-1 .9-1.7 2-1.7 1 0 1.9.8 1.8 1.8"/><path class="st3" d="m363.8 98.2-1.5-30.8h-1c-5.5 4.3-8.5 9.2-8.9 14.7-.4 6.6 3.2 12.4 5.6 15.6.3.1.7.2 1.1.2-2.4-2.9-6.4-9-6-15.8.3-5.2 3.2-9.9 8.5-14.1l1.5 30.2c.2.1.5 0 .7 0M363.1 67.4l-.3.2c6.5 6.6 9.5 13.2 8.9 19.6-.4 4.4-2.5 8-4.5 10.4.4-.1.8-.2 1.2-.4 1.9-2.5 3.7-5.8 4.1-10 .6-6.5-2.4-13.2-8.8-19.9-.3.1-.4.1-.6.1"/><path class="st5" d="m373.8 123.3-22.6-.2-1.6-13.3-1.1-9.2h28l-1.3 10.9z"/><path class="st2" d="M352.7 110.8c0 .4-.4.7-.9.7s-.9-.3-.9-.7c0-.4.4-.7.9-.7.5-.1.9.3.9.7M359.5 107.4c0 .4-.4.7-.9.7s-.9-.3-.9-.7c0-.4.4-.7.9-.7s.9.3.9.7M373.9 107.1c0 .4-.4.7-.9.7s-.9-.3-.9-.7c0-.4.4-.7.9-.7.5-.1.9.3.9.7M367.9 110.8c0 .4-.4.7-.9.7s-.9-.3-.9-.7c0-.4.4-.7.9-.7s.9.3.9.7"/><path class="st2" d="M375 108.9c-1.1.4-2.8.9-3.8.1-.6-.5-1-1-1.7-1.4-.6-.4-1.3-.7-2-.9-1.7-.4-3.2.2-4.4 1.2-1 .9-2.1 1.8-3.6 1.9-1.6.2-3.2-.5-4.5-1.2-1.4-.7-2.5-1.6-4.2-1.7-.5 0-1 0-1.5.1l.1 1c.4-.1.9-.1 1.3-.1 1.7.1 2.8 1.2 4.2 1.8 1.3.6 2.9 1.1 4.4 1 1.4-.1 2.6-.6 3.6-1.4.7-.5 1.2-1.1 2-1.5.7-.3 1.4-.4 2.2-.3s1.4.5 2 1c.5.4 1 1 1.6 1.3 1.3.8 3 .5 4.3 0 .1 0 .2-.1.4-.1l.1-1.1c-.1.1-.3.2-.5.3"/><path class="st5" d="M378.2 102.4h-31c-1.2 0-2.2-1-2.2-2.2v-1.5c0-1.2 1-2.2 2.2-2.2h31c1.2 0 2.2 1 2.2 2.2v1.5c0 1.3-1 2.2-2.2 2.2"/><path class="st0" d="M347 103H378.8c.7 0 .7-1.1 0-1.1H347c-.7 0-.7 1.1 0 1.1M294.6 117h160.5v11.6H294.6z"/><path class="st0" d="M422.9 127.6h9.4v24.1h-9.4zM320.1 127.6h9.4v24.1h-9.4z"/><path d="M373.9 257.4c1.1.6 2.2 1.3 3.1 2.2l3.3-1.2 3.1 4.9-2.5 2.5c.4 1.2.6 2.4.6 3.7l3.2 1.5-1.3 5.6h-3.5c-.6 1.1-1.3 2.2-2.2 3.1l1.2 3.3-4.9 3.1-2.5-2.5c-1.2.4-2.4.6-3.7.6l-1.5 3.2-5.6-1.3v-3.5c-1.1-.6-2.2-1.3-3.1-2.2l-3.3 1.2-3.1-4.9 2.5-2.5c-.4-1.2-.6-2.4-.6-3.7l-3.2-1.5 1.3-5.6h3.5c.6-1.1 1.3-2.2 2.2-3.1l-1.2-3.3 4.9-3.1 2.5 2.5c1.2-.4 2.4-.6 3.7-.6l1.5-3.2 5.6 1.3v3.5zm-5 6.6c-3.3-.7-6.7 1.4-7.4 4.7-.8 3.3 1.4 6.7 4.7 7.4 3.3.8 6.7-1.4 7.4-4.7.8-3.3-1.3-6.6-4.7-7.4" style="opacity:.1;fill-rule:evenodd;clip-rule:evenodd;fill:#efefef"/><path d="M335.2 186.8c2.3 1.2 4.4 2.7 6.2 4.4l6.6-2.4 6.2 9.8-5 5c.8 2.4 1.2 4.9 1.3 7.5l6.4 3-2.6 11.4h-7c-1.2 2.3-2.7 4.4-4.4 6.2l2.4 6.6-9.8 6.2-5-5c-2.4.8-4.9 1.2-7.5 1.3l-3 6.4-11.4-2.5v-7c-2.3-1.2-4.4-2.7-6.2-4.4l-6.6 2.4-6.2-9.8 5-5c-.8-2.4-1.2-4.9-1.3-7.5l-6.4-3 2.5-11.4h7c1.2-2.3 2.7-4.4 4.4-6.2l-2.4-6.6 9.8-6.2 5 5c2.4-.8 4.9-1.2 7.5-1.3l3-6.4 11.4 2.5.1 7zm-10 13.4c-6.7-1.5-13.4 2.7-14.9 9.5-1.5 6.7 2.7 13.4 9.5 14.9 6.7 1.5 13.4-2.7 14.9-9.5 1.4-6.7-2.8-13.4-9.5-14.9z" style="opacity:.1;fill:none;stroke:#ebebeb;stroke-miterlimit:10"/><path class="st9" d="M235.4 160.4H65.1c-1.8 0-3.3-1.5-3.3-3.3V25c0-1.8 1.5-3.3 3.3-3.3h170.3c1.8 0 3.3 1.5 3.3 3.3v132.1c0 1.8-1.5 3.3-3.3 3.3zM79.4 21.6v138.9M97.1 21.6v138.9M114.8 21.6v138.9M132.5 21.6v138.9M150.2 21.6v138.9M167.9 21.6v138.9M185.7 21.6v138.9M203.4 21.6v138.9M221.1 21.6v138.9M238.4 37.9H62M238.4 55.6H62M238.4 73.3H62M238.4 91H62M238.4 108.8H62M238.4 126.5H62M238.4 144.2H62"/><path transform="rotate(-84.431 149.947 93.291) scale(1.00002)" class="st10" d="M112.2 62.3h75.5v62h-75.5z"/><path class="st11" d="M145.1 99.9s-13.3 1.2-14.7-12c0 0-.4-4-1.5-2.9-1.1 1-.9 3.1-.9 3.1s.5-3.5-.7-3-.6 3.7-.6 3.7-.7-4-1.5-2.7-.3 7.2 4.4 12.5 14.9 4.2 14.9 4.2l.6-2.9zM157 101.4s13.3 1.6 15.1-11.5c0 0 .5-4 1.6-2.9s.8 3.1.8 3.1-.3-3.5.8-2.9.5 3.7.5 3.7.8-3.9 1.5-2.6.1 7.2-4.8 12.4c-4.9 5.2-15.1 3.7-15.1 3.7l-.4-3z"/><path class="st1" d="M163.4 132.5c.1-1 .3-2.8.4-3.8 1.7-17.6-3.5-32.4-11.7-33.2-8.2-.8-16.2 12.8-17.9 30.3-.1 1-.2 2.8-.2 3.9l29.4 2.8z"/><path class="st2" d="M142.7 100.8c2.4.3 10.4 1.4 17.6 1.7l-.6-1.2c-6.3-.2-13.2-1.1-16.1-1.5-.4.3-.7.6-.9 1M139.7 105.6c4 .6 13.2 1.8 20.7 2h1.8c-.1-.4-.2-.8-.4-1.1-7.4 0-17.1-1.3-21.6-1.9-.2.2-.3.6-.5 1M137.3 111c-.1.4-.3.7-.4 1.1 5.1 1.2 16.6 3.5 26.8 3.8 0-.4-.1-.8-.1-1.1-9.9-.3-21.2-2.6-26.3-3.8M164 119.1c-5.3.5-15.5.9-28.7-1.2-.1.4-.2.7-.2 1.1 6.6 1.1 12.4 1.5 17.3 1.6 4.9.1 8.9-.1 11.6-.4.1-.3.1-.7 0-1.1M164 125.4c-11 .2-23.6-2.4-29.4-3.7-.1.4-.1.7-.2 1.1 5.3 1.2 16.3 3.5 26.6 3.7h2.8c.2-.4.2-.8.2-1.1M134 127.7c6 .7 20.3 2.2 29.6 2.5 0-.4.1-.8.1-1.1-9.3-.3-23.7-1.8-29.7-2.5.1.3 0 .7 0 1.1"/><path class="st11" d="M147.9 78s-3.8-7.7-6-7.5-4.3 12.2-3.1 11.7c1.2-.5 9.1-4.2 9.1-4.2M159.8 79.4s5.5-6.6 7.6-6c2.1.7 1.4 12.9.3 12.1-1.1-.7-7.9-6.1-7.9-6.1"/><path class="st1" d="M169.1 88c-.8 6.8-8.6 11.4-17.5 10.4s-15.5-7.4-14.7-14.1c.8-6.8 8.6-11.4 17.5-10.4 9 1 15.5 7.3 14.7 14.1"/><path class="st2" d="M166.5 87.7c-.7 5.6-7.2 9.5-14.6 8.7-7.4-.9-12.9-6.1-12.2-11.8.7-5.6 7.2-9.5 14.6-8.7 7.4.9 12.8 6.2 12.2 11.8"/><path class="st0" d="M158.6 85.5c0 .2-.2.4-.4.3-.2 0-.4-.2-.3-.4 0-.2.2-.4.4-.3.2 0 .4.2.3.4M158.5 87c0 .2-.2.4-.4.3-.2 0-.4-.2-.3-.4 0-.2.2-.4.4-.3.2 0 .4.2.3.4M159.8 86.3c0 .2-.2.4-.4.3-.2 0-.4-.2-.3-.4 0-.2.2-.4.4-.3.1 0 .3.2.3.4M148.4 84.7c0 .2.1.4.3.4s.4-.1.4-.3c0-.2-.1-.4-.3-.4-.2-.1-.4.1-.4.3M148.1 86.1c0 .2.1.4.3.4s.4-.1.4-.3c0-.2-.1-.4-.3-.4-.1 0-.3.1-.4.3M147.1 85.1c0 .2.1.4.3.4s.4-.1.4-.3c0-.2-.1-.4-.3-.4-.2 0-.4.1-.4.3M151.6 87.6c-.4 1.2-.5 4 1.3 4.2s2.4-2.5 2.3-3.8c0-.3-.5-.2-.5.1.1.9-.3 3.4-1.7 3.3-1.5-.2-1.2-2.7-.9-3.6.1-.3-.4-.5-.5-.2M155.3 84.5c-.1.6-.8 1-1.6.9s-1.4-.6-1.4-1.2c.1-.6.8-1 1.6-.9.9 0 1.5.6 1.4 1.2"/><path class="st0" d="M153.5 84.8c-.1.8-.2 1.6-.3 2.3 0 .3.5.4.5.1.1-.8.2-1.6.3-2.3 0-.3-.4-.4-.5-.1M144.6 82.7c-.1.6-.5 1-1.1.9s-1-.5-.9-1.1.5-1 1.1-.9c.6.1 1 .6.9 1.1M163.8 84.9c-.1.6-.5 1-1.1.9s-1-.5-.9-1.1.5-1 1.1-.9c.5.1.9.6.9 1.1"/><path class="st12" d="M148.7 72.6c-.1.2.6 5.5 4.1 6.6s3.9-4 2.8-3.8c-1.2.2.8 3.7 3.3 3.6s2.6-3.5-.1-4.9"/><path transform="rotate(-4.944 105.352 127.407) scale(1.00002)" class="st10" d="M87.8 108.4h35.1v38H87.8z"/><path class="st0" d="m111.9 122.5.7 1s.5 3.6-.1 7.9c0 0 .2 1.4 2 1.8 1.8.5 3.2 2.3 2 4.9-1.2 2.6-7.9 6.5-13.9 1.4s-4.1-15-4.1-15 11.3-4.7 13.4-2"/><path class="st13" d="M114.6 129.3c0 1-.8 1.9-1.9 1.9-1 0-1.9-.8-1.9-1.8s.8-1.9 1.9-1.9c1.1-.1 1.9.8 1.9 1.8"/><path class="st12" d="M114.6 129.3c0 1-.8 1.9-1.9 1.9-1 0-1.9-.8-1.9-1.8s.8-1.9 1.9-1.9c1.1-.1 1.9.8 1.9 1.8z"/><path class="st0" d="M111.9 129.5v-.5c0-.1.1-.1.1-.2l.1-.1s.1 0 .1-.1H112.8c.1 0 .1-.1.1-.1 0-.1-.1-.1-.1-.1-.4 0-.8 0-1.1.4-.2.2-.3.5-.3.7v.2c0 .1.1.1.1.1.3-.1.4-.2.4-.3"/><path class="st13" d="M96.1 129.7c0 1 .8 1.9 1.9 1.8 1 0 1.9-.8 1.9-1.9 0-1-.8-1.8-1.9-1.8s-1.9.8-1.9 1.9"/><path class="st12" d="M96.1 129.7c0 1 .8 1.9 1.9 1.8 1 0 1.9-.8 1.9-1.9 0-1-.8-1.8-1.9-1.8s-1.9.8-1.9 1.9z"/><path class="st0" d="M99.1 129.9c0-.2 0-.3-.1-.5-.1-.3-.3-.6-.6-.7-.2-.1-.5-.1-.7-.1-.1 0-.1.1-.1.1 0 .1.1.1.1.1h.5s.1 0 .1.1.1.1.1.2v.5c0 .1.1.1.1.1.5.3.6.3.6.2"/><path class="st13" d="M105.9 132.9h-.8c-1.1 0-1.9 1.1-1.8 2.4l.1 1.9 4.7-.4-.1-1.7c-.1-1.2-1-2.2-2.1-2.2"/><path class="st13" d="M111.2 129.9c.1 2.7-2.1 5-4.8 5.1h-1.9c-2.7.1-5-2.1-5.1-4.8l-.1-5.7c-.1-2.7 2.1-5 4.8-5.1h1.9c2.7-.1 5 2.1 5.1 4.8l.1 5.7z"/><path class="st12" d="M111.2 129.9c.1 2.7-2.1 5-4.8 5.1h-1.9c-2.7.1-5-2.1-5.1-4.8l-.1-5.7c-.1-2.7 2.1-5 4.8-5.1h1.9c2.7-.1 5 2.1 5.1 4.8l.1 5.7z"/><path class="st0" d="m105.1 126-.6 2.7h1.4zM102 126.5c.4.7-.3 1.4-1 .9l-.1-.1c-.4-.7.3-1.4 1-1 0 .1.1.2.1.2M109.3 126.8c0 .4-.3.7-.7.7-.4 0-.7-.3-.7-.7 0-.4.3-.7.7-.7.4 0 .7.3.7.7M102.6 129.9c0 .8-.7 1.5-1.6 1.4-.8 0-1.5-.7-1.4-1.6 0-.8.7-1.5 1.6-1.4.8.1 1.4.8 1.4 1.6M110.7 129.7c0 .8-.7 1.5-1.6 1.4-.8 0-1.5-.7-1.4-1.6 0-.8.7-1.5 1.6-1.4.8.1 1.4.8 1.4 1.6"/><path class="st13" d="M104.3 130.8c.1.6.6 1 1.2 1s1.1-.5 1.1-1.1l-2.3.1z"/><path class="st12" d="M104.3 130.8c.1.6.6 1 1.2 1s1.1-.5 1.1-1.1l-2.3.1z"/><path class="st2" d="m109.4 138.9-6.8.3c-.2 0-.4-.2-.4-.4l-.1-2.4c0-.2.2-.4.4-.4l1.5-.1c.1 0 .1 0 .2.1l1.5.9c.1.1.3.1.4 0l1.6-1.1c.1 0 .1-.1.2-.1l1.4-.1c.2 0 .4.2.4.4l.1 2.4c0 .3-.2.5-.4.5"/><path class="st2" d="M118.6 145.3c-1.8-3.8-5.3-6.6-9.7-7.2-6.4-1-12.5 3.1-14.3 9.3l24-2.1z"/><path transform="matrix(.9968 -.0801 .0801 .9968 -11.005 8.973)" class="st11" d="M106 137h.7v9.3h-.7z"/><path class="st0" d="M107.8 113.9c0 1.7-1.4 3.2-3.3 3.2-1.8 0-3.4-1.3-3.4-3.1 0-1.7 1.4-3.2 3.3-3.2s3.4 1.4 3.4 3.1"/><path class="st0" d="M102.4 120.4s1.9 3.6 4.9 3.9c2.9.2 3.8.5 4.1 1.3.2.7.5 1.1.9.5s1.1-4.4-.8-6.8c-1.8-2.5-3.4-2.7-4.4-2.9-1-.2-5.1-1-8.2 2.1-2.3 2.3-4.4 6.2-1.3 9.5 0 0 .1.1.7 0s1 .2 1-.4c0-.8 1.5-5.6 3.1-7.2"/><path class="st10" d="M99.7 52.5c.1.2.2.5.3.8.1.8-.6 1.6-1.4 1.6-.8.1-1.6-.6-1.6-1.4 0-.3 0-.5.2-.8l-1.8.1c.1.2.2.5.3.8.1.8-.6 1.6-1.4 1.6-.8.1-1.6-.6-1.6-1.4 0-.3 0-.5.2-.8l-1.9.1c.1.2.2.5.3.8.1.8-.6 1.6-1.4 1.6s-1.6-.6-1.6-1.4c0-.3 0-.5.2-.8l-1.8.1c.2.2.2.5.3.8.1.8-.6 1.6-1.4 1.6s-1.6-.6-1.6-1.4c0-.3 0-.5.2-.8l-1.8.1c.1.2.2.5.3.8.1.8-.6 1.6-1.4 1.6-.8.1-1.6-.6-1.6-1.4 0-.3 0-.5.2-.8l-1.8.1c.1.2.2.5.3.8.1.8-.6 1.6-1.4 1.6-.8.1-1.6-.6-1.6-1.4 0-.3 0-.5.2-.8l-1.1.1 2.2 31.3 26.1-1.8-2.2-31.3h-.9z"/><path class="st14" d="m76.9 60.7 21.8-1.5M76.9 64.2l21.8-1.6M77.4 67.6 99.2 66M77.4 71l21.8-1.5M77.8 74.5l21.8-1.6M78 77.9l21.9-1.6M78.4 81.3l21.8-1.5"/><path transform="rotate(-84.95 194.31 57.174) scale(.99998)" class="st10" d="M175 39.1h38.6v36.1H175z"/><path class="st0" d="M192.5 55.6s1.9-2.1 1.4-5.2-6.1-5.2-6.8-5.1c-.7.1-3.3 0-3.3 0s-3.1-.3-3.8 2.7.4 6.7.4 7.2c.2.6 9.9 3.7 12.1.4"/><path class="st13" d="M183.4 64.1c-.1.9.6 1.8 1.5 1.9l.7.1c.9.1 1.8-.6 1.9-1.5l.3-3.5c.1-.9-.6-1.8-1.5-1.9l-.7-.1c-.9-.1-1.8.6-1.9 1.5l-.3 3.5z"/><path class="st15" d="M183.4 64.1c-.1.9.6 1.8 1.5 1.9l.7.1c.9.1 1.8-.6 1.9-1.5l.3-3.5c.1-.9-.6-1.8-1.5-1.9l-.7-.1c-.9-.1-1.8.6-1.9 1.5l-.3 3.5z"/><path class="st13" d="M194.5 56.7c-.1.9-.8 1.6-1.8 1.5-.9-.1-1.6-.8-1.6-1.7.1-.9.8-1.6 1.8-1.5.9 0 1.6.8 1.6 1.7"/><path class="st0" d="M192.6 58.5c-.5 0-.9-.3-1.3-.6-.3-.4-.5-.9-.5-1.4s.3-1 .6-1.3c.4-.3.9-.5 1.4-.5s1 .3 1.3.6c.3.4.5.9.5 1.4s-.3 1-.6 1.3c-.3.4-.8.5-1.4.5.1 0 .1 0 0 0m.3-3.3c-.4 0-.8.1-1 .3-.3.2-.4.6-.5.9 0 .4.1.7.3 1s.6.4 1 .5c.4 0 .7-.1 1-.3s.4-.6.5-.9c0-.4-.1-.7-.3-1-.3-.3-.6-.4-1-.5"/><path class="st0" d="M192 56.8V56.5c0-.1 0-.1.1-.1 0 0 0-.1.1-.1l.1-.1H192.9c.1 0 .1-.1.1-.1 0-.1 0-.1-.1-.1-.4-.1-.7 0-1 .3-.2.2-.2.4-.3.6v.1c0 .1 0 .1.1.1.3-.2.3-.3.3-.3"/><path class="st13" d="M178.1 55.9c.2.9 1 1.5 1.9 1.3s1.5-1 1.3-1.9-1-1.5-1.9-1.3c-.8.1-1.4 1-1.3 1.9"/><path class="st0" d="M180.1 57.5c-.5.1-1 0-1.4-.3s-.7-.7-.8-1.2 0-1 .3-1.4.7-.7 1.2-.8 1 0 1.4.3.7.7.8 1.2 0 1-.3 1.4c-.2.4-.6.7-1.2.8.1 0 0 0 0 0m-1.5-2.7c-.2.3-.3.7-.2 1 .1.4.3.7.6.9s.7.3 1 .2c.4-.1.7-.3.9-.6s.3-.7.2-1c-.1-.4-.3-.7-.6-.9s-.7-.3-1-.2c-.4.1-.7.3-.9.6"/><path class="st0" d="M180.6 55.7V55.4s0-.1-.1-.1l-.1-.1s-.1 0-.1-.1H179.7c-.1 0-.1 0-.2-.1 0-.1 0-.1.1-.2.3-.1.7-.1 1 .2.2.2.3.4.3.6v.1c0 .1 0 .1-.1.2-.1-.1-.2-.1-.2-.2"/><path class="st13" d="M181.1 56.1c-.2 2.5 1.7 4.7 4.1 4.9l1.5.1c2.5.2 4.7-1.7 4.9-4.2l.4-4.9c.2-2.5-1.7-4.7-4.1-4.9l-1.5-.1c-2.5-.2-4.7 1.7-4.9 4.2l-.4 4.9z"/><path class="st15" d="M181.1 56.1c-.2 2.5 1.7 4.7 4.1 4.9l1.5.1c2.5.2 4.7-1.7 4.9-4.2l.4-4.9c.2-2.5-1.7-4.7-4.1-4.9l-1.5-.1c-2.5-.2-4.7 1.7-4.9 4.2l-.4 4.9z"/><path class="st0" d="M180.9 47.7c.4-.5 1.8-1.2 2.8-1.6.2-4.7 13-6.3 9.8.3 0 0 4.3-1.4 4.8.7 1.2 5.2-11 5.7-14 .9-.7.2-1.7.6-1.9 1.6-.5 1.6-1.2 5.2-1.2 5.2s-.1-.9-.4-1.7c-.3-.7-.5-4.7.1-5.4"/><path class="st0" d="m186.6 53 .4 2.5-1.2-.2zM188.7 56.7c0 .7.6 1.3 1.3 1.3s1.3-.6 1.3-1.3-.6-1.3-1.3-1.3c-.7-.1-1.3.5-1.3 1.3M181.5 56c0 .7.6 1.3 1.3 1.3s1.3-.6 1.3-1.3-.6-1.3-1.3-1.3-1.3.6-1.3 1.3"/><path class="st13" d="M187.1 57.3c-.1.5-.6.9-1.1.8-.5 0-.9-.5-1-1l2.1.2z"/><path class="st12" d="M187.1 57.3c-.1.5-.6.9-1.1.8-.5 0-.9-.5-1-1l2.1.2z"/><path class="st0" d="M189.3 54.2c0 .3.2.6.6.6.3 0 .6-.2.6-.6 0-.3-.2-.6-.6-.6-.3 0-.6.3-.6.6M182.9 53.6c0 .3.2.6.6.6.3 0 .6-.2.6-.6 0-.3-.2-.6-.6-.6-.3 0-.6.3-.6.6M187.5 62.5l-3.8-.3c-1.1-.1-2.1.7-2.2 1.9l-.1.9c0 .4.1.8.2 1.2l7.2.6c.2-.3.4-.7.4-1.1l.1-.9c.1-1.2-.7-2.2-1.8-2.3"/><path class="st0" d="M183.6 65.1c-3.6.2-6.7 2.2-8.6 5.2l-.4 4.5 21.1 1.9c-.5-6.8-5.9-12-12.1-11.6"/><path class="st1" d="M180.3 67.2c.2.3.3.6.5.8.1.1.2.1.3 0l.7-.7.1-.1c.1-.1.1-.2 0-.3-.1-.1-.2-.1-.3 0l-.7.7-.1.1h.3c-.2-.3-.3-.6-.5-.8-.1-.1-.2-.1-.3-.1 0 .2-.1.3 0 .4M182.8 67.6c.2.3.3.6.5.8.1.1.2.1.3 0l.7-.7.1-.1c.1-.1.1-.2 0-.3-.1-.1-.2-.1-.3 0l-.7.7-.1.1h.3c-.2-.3-.3-.6-.5-.8-.1-.1-.2-.1-.3-.1 0 .2-.1.3 0 .4M185.3 67.8c.2.3.3.6.5.8.1.1.2.1.3 0l.7-.7.1-.1c.1-.1.1-.2 0-.3-.1-.1-.2-.1-.3 0l-.7.7-.1.1h.3c-.2-.3-.3-.6-.5-.8-.1-.1-.2-.1-.3-.1v.4M188.1 68.1c.2.3.3.6.5.8.1.1.2.1.3 0l.7-.7.1-.1c.1-.1.1-.2 0-.3-.1-.1-.2-.1-.3 0l-.7.7-.1.1h.3c-.2-.3-.3-.6-.5-.8-.1-.1-.2-.1-.3-.1v.4M190.1 70.1c.2.3.3.6.5.8.1.1.2.1.3 0l.7-.7.1-.1c.1-.1.1-.2 0-.3-.1-.1-.2-.1-.3 0l-.7.7-.1.1h.3c-.2-.3-.3-.6-.5-.8-.1-.1-.2-.1-.3-.1v.4M186.7 70.1c.2.3.3.6.5.8.1.1.2.1.3 0l.7-.7.1-.1c.1-.1.1-.2 0-.3-.1-.1-.2-.1-.3 0l-.7.7-.1.1h.3c-.2-.3-.3-.6-.5-.8-.1-.1-.2-.1-.3-.1-.1.2-.1.3 0 .4M183.6 70c.2.3.3.6.5.8.1.1.2.1.3 0l.7-.7.1-.1c.1-.1.1-.2 0-.3-.1-.1-.2-.1-.3 0l-.7.7-.1.1h.3c-.2-.3-.3-.6-.5-.8-.1-.1-.2-.1-.3-.1v.4M180.6 69.8c.2.3.3.6.5.8.1.1.2.1.3 0l.7-.7.1-.1c.1-.1.1-.2 0-.3-.1-.1-.2-.1-.3 0l-.7.7-.1.1h.3c-.2-.3-.3-.6-.5-.8-.1-.1-.2-.1-.3-.1v.4M177.4 69.1c.2.3.3.6.5.8.1.1.2.1.3 0l.7-.7.1-.1c.1-.1.1-.2 0-.3-.1-.1-.2-.1-.3 0l-.7.7-.1.1h.3c-.2-.3-.3-.6-.5-.8-.1-.1-.2-.1-.3-.1-.1.2-.1.3 0 .4M178.4 71.5c.2.3.3.6.5.8.1.1.2.1.3 0l.7-.7.1-.1c.1-.1.1-.2 0-.3-.1-.1-.2-.1-.3 0l-.7.7-.1.1h.3c-.2-.3-.3-.6-.5-.8-.1-.1-.2-.1-.3-.1 0 .1-.1.3 0 .4M181.8 72c.2.3.3.6.5.8.1.1.2.1.3 0l.7-.7.1-.1c.1-.1.1-.2 0-.3-.1-.1-.2-.1-.3 0l-.7.7-.1.1h.3c-.2-.3-.3-.6-.5-.8-.1-.1-.2-.1-.3-.1v.4M175.1 71.2c.2.3.3.6.5.8.1.1.2.1.3 0l.7-.7.1-.1c.1-.1.1-.2 0-.3-.1-.1-.2-.1-.3 0l-.7.7-.1.1h.3c-.2-.3-.3-.6-.5-.8-.1-.1-.2-.1-.3-.1 0 .2-.1.3 0 .4M185.2 72.5c.2.3.3.6.5.8.1.1.2.1.3 0l.7-.7.1-.1c.1-.1.1-.2 0-.3-.1-.1-.2-.1-.3 0l-.7.7-.1.1h.3c-.2-.3-.3-.6-.5-.8-.1-.1-.2-.1-.3-.1v.4M188.4 72.7c.2.3.3.6.5.8.1.1.2.1.3 0l.7-.7.1-.1c.1-.1.1-.2 0-.3-.1-.1-.2-.1-.3 0l-.7.7-.1.1h.3c-.2-.3-.3-.6-.5-.8-.1-.1-.2-.1-.3-.1v.4M191.9 73c.2.3.3.6.5.8.1.1.2.1.3 0l.7-.7.1-.1c.1-.1.1-.2 0-.3-.1-.1-.2-.1-.3 0l-.7.7-.1.1h.3c-.2-.3-.3-.6-.5-.8-.1-.1-.2-.1-.3-.1 0 .1-.1.3 0 .4M190 74.7c.2.3.3.6.5.8.1.1.2.1.3 0l.7-.7.1-.1c.1-.1.1-.2 0-.3-.1-.1-.2-.1-.3 0l-.7.7-.1.1h.3c-.2-.3-.3-.6-.5-.8-.1-.1-.2-.1-.3-.1 0 .2-.1.3 0 .4M186.5 74.6c.2.3.3.6.5.8.1.1.2.1.3 0l.7-.7.1-.1c.1-.1.1-.2 0-.3-.1-.1-.2-.1-.3 0l-.7.7-.1.1h.3c-.2-.3-.3-.6-.5-.8-.1-.1-.2-.1-.3-.1-.1.2-.1.3 0 .4M183 74.4c.2.3.3.6.5.8.1.1.2.1.3 0l.7-.7.1-.1c.1-.1.1-.2 0-.3-.1-.1-.2-.1-.3 0l-.7.7-.1.1h.3c-.2-.3-.3-.6-.5-.8-.1-.1-.2-.1-.3-.1-.1.2-.1.3 0 .4M179.8 73.9c.2.3.3.6.5.8.1.1.2.1.3 0l.7-.7.1-.1c.1-.1.1-.2 0-.3-.1-.1-.2-.1-.3 0l-.7.7-.1.1h.3c-.2-.3-.3-.6-.5-.8-.1-.1-.2-.1-.3-.1 0 .2-.1.3 0 .4M176.3 73.7c.2.3.3.6.5.8.1.1.2.1.3 0l.7-.7.1-.1c.1-.1.1-.2 0-.3-.1-.1-.2-.1-.3 0l-.7.7-.1.1h.3c-.2-.3-.3-.6-.5-.8-.1-.1-.2-.1-.3-.1v.4"/><path class="st0" d="m206.6 56.9.4.8s-.1 2.9-1.3 6.1c0 0 0 1.1 1.3 1.7 1.3.7 2.1 2.2.8 4.1s-7.1 3.9-11-.9c-3.9-4.9-1-12.2-1-12.2s9.5-2.1 10.8.4"/><path class="st13" d="M207.7 62.5c-.1.8-.9 1.3-1.7 1.2s-1.3-.9-1.2-1.7.9-1.3 1.7-1.2c.8.1 1.3.9 1.2 1.7"/><path class="st12" d="M207.7 62.5c-.1.8-.9 1.3-1.7 1.2s-1.3-.9-1.2-1.7.9-1.3 1.7-1.2c.8.1 1.3.9 1.2 1.7z"/><path class="st0" d="M205.5 62.3s.1-.1 0 0c0-.1 0-.1 0 0V62l.1-.1h.4c.1 0 .2 0 .3.1.1 0 .1 0 .1-.1s0-.1-.1-.1c-.3-.1-.6-.1-.9.1-.2.1-.3.3-.3.5v.1c0 .1 0 .1.1.1.3-.2.3-.2.3-.3"/><path class="st13" d="M193.2 60.1c-.1.8.4 1.6 1.2 1.7.8.1 1.6-.4 1.7-1.2.1-.8-.4-1.6-1.2-1.7-.7-.2-1.5.4-1.7 1.2"/><path class="st12" d="M193.2 60.1c-.1.8.4 1.6 1.2 1.7.8.1 1.6-.4 1.7-1.2.1-.8-.4-1.6-1.2-1.7-.7-.2-1.5.4-1.7 1.2z"/><path class="st0" d="M195.6 60.7v-.4c0-.2-.1-.5-.3-.6s-.4-.2-.6-.2c-.1 0-.1 0-.1.1s0 .1.1.1h.5l.1.1s0 .1.1.1v.4c0 .1 0 .1.1.1 0 .4 0 .3.1.3"/><path class="st13" d="m200.4 64-.6-.1c-.8-.1-1.6.5-1.7 1.3l-.3 2.3 3.7.3.3-2.1c0-.8-.6-1.5-1.4-1.7"/><path class="st13" d="M204.9 62.5c-.3 2.1-2.4 3.6-4.5 3.2l-1.5-.2c-2.1-.3-3.6-2.4-3.2-4.5l.7-4.5c.3-2.1 2.4-3.6 4.5-3.2l1.5.2c2.1.3 3.6 2.4 3.2 4.5l-.7 4.5z"/><path class="st12" d="M204.9 62.5c-.3 2.1-2.4 3.6-4.5 3.2l-1.5-.2c-2.1-.3-3.6-2.4-3.2-4.5l.7-4.5c.3-2.1 2.4-3.6 4.5-3.2l1.5.2c2.1.3 3.6 2.4 3.2 4.5l-.7 4.5z"/><path class="st0" d="m200.8 58.6-.9 2 1.1.2zM198.3 58.5c.2.6-.5 1-.9.6l-.1-.1c-.2-.6.4-1 .9-.6 0 0 .1 0 .1.1M203.9 59.7c-.1.3-.3.5-.6.4s-.5-.3-.4-.6.3-.5.6-.4.5.3.4.6M198.2 61.2c-.2.6-.8 1-1.4.9-.6-.2-1-.8-.9-1.4s.8-1 1.4-.9c.7.2 1.1.8.9 1.4M204.6 62.3c-.2.6-.8 1-1.4.9-.6-.2-1-.8-.9-1.4.2-.6.8-1 1.4-.9.6.1 1 .7.9 1.4"/><path class="st13" d="M199.5 62.1c0 .5.3.9.8.9.5.1.9-.2 1-.7l-1.8-.2z"/><path class="st12" d="M199.5 62.1c0 .5.3.9.8.9.5.1.9-.2 1-.7l-1.8-.2z"/><path class="st0" d="M204.7 49.6c-.2 1.4-1.6 2.3-3 2-1.4-.2-2.4-1.5-2.2-2.9s1.6-2.3 3-2c1.4.2 2.4 1.5 2.2 2.9"/><path class="st0" d="M199.5 53.8s1 3.1 3.2 3.7c2.2.6 2.9 1 3 1.6s.2.9.7.5c.4-.4 1.5-3.2.4-5.4s-2.3-2.6-3-2.9c-.7-.3-3.8-1.5-6.7.4-2.1 1.4-4.3 4.2-2.4 7.2 0 0 .1.1.5.1.5 0 .7.3.8-.2.1-.5 2.1-4 3.5-5"/><path class="st1" d="m201.5 68.9-4-.6c-.5-.1-.9-.6-.8-1.1.1-.5.6-.9 1.1-.8l4 .6c.5.1.9.6.8 1.1-.1.5-.6.9-1.1.8"/><path class="st3" d="M197.5 67.6c-4.4.3-7.8 3.9-8.4 8.5l18.1 1.6V77c-.4-5.5-4.7-9.7-9.7-9.4"/><path class="st1" d="M203.3 72.5c0 .6-.4 1.1-1 1.1s-1.1-.4-1.1-1 .4-1.1 1-1.1 1.1.4 1.1 1"/><path class="st0" d="M199.9 40.2h-6.8c-.6 0-1-.5-1-1v-2.5c0-.6.5-1 1-1h6.8c.6 0 1 .5 1 1v2.5c0 .6-.4 1-1 1"/><path class="st16" d="M198 39.7s-1-4.6-1.1-4.9c-.1-.4 2.4-2.7 1.1-4.1-.5-.6-1.1-.7-1.6-.7s-1 .1-1.6.7c-1.3 1.4 1.3 3.8 1.1 4.1-.1.4-1.1 5-1.1 5"/><path class="st0" d="M160.3 58.2h-6.8c-.6 0-1-.5-1-1v-2.5c0-.6.5-1 1-1h6.8c.6 0 1 .5 1 1v2.5c0 .5-.4 1-1 1"/><path class="st16" d="M158.4 57.7s-1-4.6-1.1-4.9c-.1-.4 2.4-2.7 1.1-4.1-.5-.6-1.1-.7-1.6-.7s-1 .1-1.6.7c-1.3 1.4 1.3 3.8 1.1 4.1-.1.4-1.1 5-1.1 5"/><path class="st0" d="M107.9 109.8h-6.8c-.6 0-1-.5-1-1v-2.5c0-.6.5-1 1-1h6.8c.6 0 1 .5 1 1v2.5c0 .5-.4 1-1 1"/><path class="st16" d="M106 109.3s-1-4.6-1.1-4.9c-.1-.4 2.4-2.7 1.1-4.1-.5-.6-1.1-.7-1.6-.7s-1 .1-1.6.7c-1.3 1.4 1.3 3.8 1.1 4.1-.1.4-1.1 5-1.1 5"/><path class="st0" d="M91.2 57.9h-6.8c-.6 0-1-.5-1-1v-2.5c0-.6.5-1 1-1h6.8c.6 0 1 .5 1 1v2.5c.1.5-.4 1-1 1"/><path class="st16" d="M89.3 57.4s-1-4.6-1.1-4.9c-.1-.4 2.4-2.7 1.1-4.1-.5-.6-1.1-.7-1.6-.7s-1 .1-1.6.7c-1.3 1.4 1.3 3.8 1.1 4.1-.1.4-1.1 5-1.1 5"/><path class="st17" d="M22.5-40h455v455h-455z"/><path class="st17" d="M22.5-40h455v455h-455z"/><path d="M170.3 217.4c1.3.7 2.6 1.6 3.7 2.6l3.9-1.4 3.7 5.8-2.9 2.9c.4 1.4.7 2.9.8 4.4l3.7 1.8-1.5 6.7h-4.1c-.7 1.3-1.6 2.6-2.6 3.7l1.4 3.9-5.8 3.7-2.9-2.9c-1.4.4-2.9.7-4.4.8l-1.8 3.7-6.7-1.5v-4.1c-1.3-.7-2.6-1.6-3.7-2.6l-3.9 1.4-3.7-5.8 2.9-2.9c-.4-1.4-.7-2.9-.8-4.4l-3.7-1.8 1.5-6.7h4.1c.7-1.3 1.6-2.6 2.6-3.7l-1.4-3.9 5.8-3.7 2.9 2.9c1.4-.4 2.9-.7 4.4-.8l1.8-3.7 6.7 1.5v4.1zm-5.9 7.9c-4-.9-7.9 1.6-8.8 5.6-.9 4 1.6 7.9 5.6 8.8 4 .9 7.9-1.6 8.8-5.6.8-4-1.7-7.9-5.6-8.8z" style="opacity:.1;fill:none;stroke:#455a64;stroke-miterlimit:10"/><path class="st19" d="M188.4 149.1c1.6.9 3.1 1.9 4.5 3.2l4.8-1.7 4.5 7.1-3.6 3.6c.5 1.7.9 3.5.9 5.4l4.6 2.2-1.8 8.2h-5.1c-.9 1.6-1.9 3.1-3.2 4.5l1.7 4.8-7.1 4.5-3.6-3.6c-1.7.5-3.5.9-5.4.9l-2.2 4.6-8.2-1.8v-5.1c-1.6-.9-3.1-1.9-4.5-3.2l-4.8 1.7-4.5-7.1 3.6-3.6c-.5-1.7-.9-3.5-.9-5.4l-4.6-2.2 1.8-8.2h5.1c.9-1.6 1.9-3.1 3.2-4.5l-1.7-4.8 7.1-4.5 3.6 3.6c1.7-.5 3.5-.9 5.4-.9l2.2-4.6 8.2 1.8v5.1zm-7.3 9.6c-4.9-1.1-9.7 2-10.8 6.8-1.1 4.9 2 9.7 6.8 10.8 4.9 1.1 9.7-2 10.8-6.8 1.1-4.9-1.9-9.7-6.8-10.8"/><g style="opacity:.7"><defs><path id="SVGID_1_" d="M153.5 142.2h50.6v50.6h-50.6z"/></defs><clipPath id="SVGID_2_"><use xlink:href="#SVGID_1_" style="overflow:visible"/></clipPath><path d="M188.4 149.1c1.6.9 3.1 1.9 4.5 3.2l4.8-1.7 4.5 7.1-3.6 3.6c.5 1.7.9 3.5.9 5.4l4.6 2.2-1.8 8.2h-5.1c-.9 1.6-1.9 3.1-3.2 4.5l1.7 4.8-7.1 4.5-3.6-3.6c-1.7.5-3.5.9-5.4.9l-2.2 4.6-8.2-1.8v-5.1c-1.6-.9-3.1-1.9-4.5-3.2l-4.8 1.7-4.5-7.1 3.6-3.6c-.5-1.7-.9-3.5-.9-5.4l-4.6-2.2 1.8-8.2h5.1c.9-1.6 1.9-3.1 3.2-4.5l-1.7-4.8 7.1-4.5 3.6 3.6c1.7-.5 3.5-.9 5.4-.9l2.2-4.6 8.2 1.8v5.1zm-7.3 9.6c-4.9-1.1-9.7 2-10.8 6.8-1.1 4.9 2 9.7 6.8 10.8 4.9 1.1 9.7-2 10.8-6.8 1.1-4.9-1.9-9.7-6.8-10.8" style="clip-path:url(#SVGID_2_);fill-rule:evenodd;clip-rule:evenodd;fill:#efe6ff"/></g><path class="st19" d="M124.1 186.4c1.1.6 2 1.2 2.9 2l3.1-1.1 2.9 4.6-2.3 2.3c.4 1.1.6 2.3.6 3.5l3 1.4-1.2 5.3h-3.3c-.6 1.1-1.2 2-2 2.9l1.1 3.1-4.6 2.9-2.3-2.3c-1.1.4-2.3.6-3.5.6l-1.4 3-5.3-1.2v-3.3c-1.1-.6-2-1.2-2.9-2l-3.1 1.1-2.9-4.6 2.3-2.3c-.4-1.1-.6-2.3-.6-3.5l-3-1.4 1.2-5.3h3.3c.6-1.1 1.2-2 2-2.9l-1.1-3.1 4.6-2.9 2.3 2.3c1.1-.4 2.3-.6 3.5-.6l1.4-3 5.3 1.2v3.3zm-4.6 6.2c-3.1-.7-6.2 1.3-6.9 4.4-.7 3.1 1.3 6.2 4.4 6.9s6.2-1.3 6.9-4.4c.7-3.1-1.3-6.2-4.4-6.9"/><g class="st22"><defs><path id="SVGID_3_" d="M101.7 182h32.5v32.5h-32.5z"/></defs><clipPath id="SVGID_4_"><use xlink:href="#SVGID_3_" style="overflow:visible"/></clipPath><path d="M124.1 186.4c1.1.6 2 1.2 2.9 2l3.1-1.1 2.9 4.6-2.3 2.3c.4 1.1.6 2.3.6 3.5l3 1.4-1.2 5.3h-3.3c-.6 1.1-1.2 2-2 2.9l1.1 3.1-4.6 2.9-2.3-2.3c-1.1.4-2.3.6-3.5.6l-1.4 3-5.3-1.2v-3.3c-1.1-.6-2-1.2-2.9-2l-3.1 1.1-2.9-4.6 2.3-2.3c-.4-1.1-.6-2.3-.6-3.5l-3-1.4 1.2-5.3h3.3c.6-1.1 1.2-2 2-2.9l-1.1-3.1 4.6-2.9 2.3 2.3c1.1-.4 2.3-.6 3.5-.6l1.4-3 5.3 1.2v3.3zm-4.6 6.2c-3.1-.7-6.2 1.3-6.9 4.4-.7 3.1 1.3 6.2 4.4 6.9s6.2-1.3 6.9-4.4c.7-3.1-1.3-6.2-4.4-6.9" style="clip-path:url(#SVGID_4_);fill-rule:evenodd;clip-rule:evenodd;fill:#efe6ff"/></g><path class="st17" d="M22.5-40h455v455h-455z"/><path class="st24" d="m273.6 125.4 2.7 3.9s1.8 14.7-1.3 32c0 0 .6 5.5 7.9 7.6 7.3 2.2 12.6 9.5 7.5 19.9-5.1 10.5-32.4 25.7-56.2 4.3-23.9-21.3-15-60.8-15-60.8s45.9-18.3 54.4-6.9"/><path class="st25" d="M283.8 152.9c-.1 4.1-3.5 7.4-7.7 7.3-4.2-.1-7.5-3.5-7.4-7.6s3.5-7.4 7.7-7.3c4.2.1 7.5 3.5 7.4 7.6"/><path class="st26" d="M283.8 152.9c-.1 4.1-3.5 7.4-7.7 7.3-4.2-.1-7.5-3.5-7.4-7.6s3.5-7.4 7.7-7.3c4.2.1 7.5 3.5 7.4 7.6z"/><path class="st24" d="M272.7 153.6v-.7c0-.2 0 .1 0 0v-.2c0-.2.1-.4.1-.6 0-.1.1-.2.1-.3s0-.1.1-.2c0 0 0-.1 0 0 0 0 0-.1.1-.1.1-.2.2-.4.4-.7l.1-.1.1-.1.3-.3c.1-.1-.1 0 .1-.1.1 0 .1-.1.2-.1.1-.1.3-.2.4-.2-.1 0 0 0 0 0 .1 0 .1 0 .2-.1.1 0 .2-.1.3-.1.1 0 .2 0 .3-.1H275.8c.5-.1 1 0 1.5 0 .3 0 .6-.3.6-.6s-.3-.5-.6-.6c-1.6-.2-3.3.1-4.3 1.3-.7.8-1.1 1.9-1.2 3v.7c0 .3.3.6.6.6.1.2.3 0 .3-.4"/><path class="st25" d="M208.9 152.6c-.1 4.1 3.2 7.5 7.4 7.6s7.6-3.2 7.7-7.3c.1-4.1-3.2-7.5-7.4-7.6s-7.6 3.2-7.7 7.3"/><path class="st26" d="M208.9 152.6c-.1 4.1 3.2 7.5 7.4 7.6s7.6-3.2 7.7-7.3c.1-4.1-3.2-7.5-7.4-7.6s-7.6 3.2-7.7 7.3z"/><path class="st24" d="M221.1 153.8c.1-.6 0-1.3-.2-1.9-.3-1.2-1.1-2.3-2.2-2.8-.9-.4-2-.5-3-.5-.3 0-.6.2-.6.6 0 .3.3.6.6.6h1.6c.1 0 .2 0 .3.1.2 0 .4.1.5.2-.1-.1.1 0 .1.1.1 0 .1.1.2.1s.1.1.2.1c0 0 .1 0 .1.1h.1c-.1 0-.1-.1 0 0l.3.3.1.1s0 .1.1.1c.1.1-.1-.1 0 0 .2.2.3.4.4.7v.1c0 .1-.1-.1 0 0 0 .1 0 .1.1.2 0 .1.1.2.1.4.1.2.1.4.1.6 0 .2 0-.1 0 0v1.1c0 .3.3.6.6.6.2-.3.5-.6.5-.9"/><path class="st25" d="M256.4 190.3c.1 4.3-3.3 7.8-7.6 7.9l-3.3.1c-4.3.1-7.8-3.3-7.9-7.6l-.3-16c-.1-4.3 3.3-7.8 7.6-7.9l3.3-.1c4.3-.1 7.8 3.3 7.9 7.6l.3 16z"/><path class="st26" d="M256.4 190.3c.1 4.3-3.3 7.8-7.6 7.9l-3.3.1c-4.3.1-7.8-3.3-7.9-7.6l-.3-16c-.1-4.3 3.3-7.8 7.6-7.9l3.3-.1c4.3-.1 7.8 3.3 7.9 7.6l.3 16z"/><path class="st25" d="M269.7 155.2c0 11-9 20-20 20h-7.6c-11 0-20-9-20-20v-23c0-11 9-20 20-20h7.6c11 0 20 9 20 20v23z"/><path class="st26" d="M269.7 155.2c0 11-9 20-20 20h-7.6c-11 0-20-9-20-20v-23c0-11 9-20 20-20h7.6c11 0 20 9 20 20v23z"/><path class="st27" d="m245.7 138.8-2.6 10.9 5.7-.1z"/><path class="st24" d="M233.1 140.5c1.5 2.8-1.5 5.5-4.2 3.7-.2-.1-.3-.3-.4-.5-1.7-2.8 1.2-5.6 3.9-3.9.3.2.5.4.7.7M262.4 142.2c0 1.5-1.3 2.7-2.8 2.7s-2.7-1.3-2.7-2.8 1.3-2.7 2.8-2.7c1.6 0 2.8 1.2 2.7 2.8"/><path class="st27" d="M235 154.3c-.3 3.3-3.1 5.8-6.4 5.5-3.3-.3-5.8-3.1-5.5-6.4.3-3.3 3.1-5.8 6.4-5.5 3.3.3 5.8 3.1 5.5 6.4M267.8 154.3c-.3 3.3-3.1 5.8-6.4 5.5s-5.8-3.1-5.5-6.4c.3-3.3 3.1-5.8 6.4-5.5 3.3.3 5.8 3.1 5.5 6.4"/><path class="st25" d="M242.1 157.9c.3 2.3 2.3 4.1 4.7 4.1s4.4-1.8 4.7-4.1h-9.4z"/><path class="st26" d="M242.1 157.9c.3 2.3 2.3 4.1 4.7 4.1s4.4-1.8 4.7-4.1h-9.4z"/><path class="st24" d="M259.6 94.2c0 9.8-8.4 17.7-18.7 17.7s-18.7-7.9-18.7-17.7 8.4-17.7 18.7-17.7c10.3 0 18.7 7.9 18.7 17.7"/><path class="st24" d="M235.3 115.8s7.5 14.8 19.2 16c11.7 1.2 15.5 2.5 16.3 5.5s1.9 4.4 3.7 2.2c1.8-2.2 4.8-17.5-2.4-27.7-7.2-10.1-13.5-11-17.5-12.1s-20.5-4.6-33.3 7.5c-9.5 9-18.2 24.5-6.1 38 0 0 .5.3 2.8 0s4 .8 4-1.6c.1-2.2 6.8-21.6 13.3-27.8"/><path class="st28" d="M165.3 344.3h190.1c-5.2-83.3-51.8-148.6-108.6-148.6-19.4 0-37.6 7.6-53.4 21-9.1 6.5-24.7 20.4-41.5 47.4-26.3 42.3-28.1 42.4-29.8 54.6-1.8 12.2 4.5 21.6 7.9 24.5.6.5 3.7.8 8.3 1v.1h2.3c6.8.2 16 .1 24.7 0"/><path class="st27" d="M261.1 195c0 2.5-2 4.6-4.6 4.6h-20c-2.5 0-4.5-2-4.5-4.6v-6c0-2.5 2-4.5 4.5-4.5h20c2.5 0 4.6 2 4.6 4.5v6z"/><g class="st22"><defs><path id="SVGID_5_" d="M231.9 184.4H261v15.1h-29.1z"/></defs><clipPath id="SVGID_6_"><use xlink:href="#SVGID_5_" style="overflow:visible"/></clipPath><path d="M261.1 195c0 2.5-2 4.6-4.6 4.6h-20c-2.5 0-4.5-2-4.5-4.6v-6c0-2.5 2-4.5 4.5-4.5h20c2.5 0 4.6 2 4.6 4.5v6z" style="clip-path:url(#SVGID_6_);fill:#671cc9"/></g><path class="st27" d="M238.5 184.4h.9v15.1h-.9zM234.7 199.2l.9.3v-15c-.3.1-.6.1-.9.3v14.4zM242.2 184.4h.9v15.1h-.9zM245.9 184.4h.9v15.1h-.9zM249.6 184.4h.9v15.1h-.9zM253.4 184.4h.9v15.1h-.9zM257.1 199.5c.3 0 .6-.1.9-.2v-14.6c-.3-.1-.6-.2-.9-.2v15z"/><path class="st30" d="M275 233s-3.4-5.3-5-4.9c-1.6.3-2.1 9.2-1.2 8.7.8-.5 6.2-3.8 6.2-3.8M283.6 233s3.4-5.3 5-4.9c1.6.3 2.1 9.2 1.2 8.7-.8-.5-6.2-3.8-6.2-3.8"/><path class="st30" d="M291.2 238.5c0 5-5.3 9-11.8 9s-11.8-4-11.8-9 5.3-9 11.8-9c6.5 0 11.8 4 11.8 9"/><path class="st24" d="M287 235.9c0 .4-.3.8-.8.8-.4 0-.8-.3-.8-.8 0-.4.3-.8.8-.8.4.1.8.4.8.8M283.4 237.6c0 .2-.1.3-.3.3-.2 0-.3-.1-.3-.3s.1-.3.3-.3c.1 0 .3.1.3.3M283.4 238.6c0 .2-.1.3-.3.3-.2 0-.3-.1-.3-.3s.1-.3.3-.3.3.2.3.3M284.2 238c0 .2-.1.3-.3.3-.2 0-.3-.1-.3-.3s.1-.3.3-.3.3.1.3.3M275.8 237.8c0 .2.1.3.3.3.2 0 .3-.1.3-.3s-.1-.3-.3-.3c-.1 0-.3.1-.3.3M275.8 238.9c0 .2.1.3.3.3.2 0 .3-.1.3-.3s-.1-.3-.3-.3c-.2 0-.3.1-.3.3M275 238.2c0 .2.1.3.3.3.2 0 .3-.1.3-.3s-.1-.3-.3-.3c-.2.1-.3.2-.3.3M273 236.1c0 .4-.3.8-.8.8-.4 0-.8-.3-.8-.8 0-.4.3-.8.8-.8s.8.4.8.8M278.4 239.6c-.2.9 0 3 1.3 3s1.5-2 1.3-3c0-.2-.4-.1-.3.1.1.7.1 2.5-1 2.5s-1.1-1.8-1-2.5c.1-.2-.2-.3-.3-.1M280.8 237.1c0-.4-.5-.8-1.1-.8s-1.1.3-1.1.8c0 .4.4.7.9.7v1.4c0 .2.4.2.4 0v-1.4c.6-.1.9-.4.9-.7"/><path class="st30" d="M229.9 230.4c1.9-1.4 3.9-2.8 5.8-4.1.3-.2.6-.4.8-.6.4-.3 0-.8-.3-.6-1.9 1.4-3.9 2.8-5.8 4.1-.3.2-.6.4-.8.6-.4.2 0 .8.3.6M221.4 266.5c.5-2.3.9-4.7 1.4-7 .1-.3.1-.7.2-1 .1-.4-.6-.6-.7-.2-.5 2.3-.9 4.7-1.4 7-.1.3-.1.7-.2 1 0 .5.6.7.7.2M248.4 207.9c1.9 1.5 3.8 3 5.6 4.4.3.2.5.4.8.6.3.3.8-.2.5-.5-1.9-1.5-3.8-3-5.6-4.4-.3-.2-.5-.4-.8-.6-.4-.3-.9.2-.5.5M311.9 243.2c-.2-2.4-.3-4.8-.5-7.1 0-.3 0-.7-.1-1 0-.4-.7-.4-.7 0 .2 2.4.3 4.8.5 7.1 0 .3 0 .7.1 1 0 .5.7.5.7 0M319.2 343.6c-1.7-1.6-3.5-3.3-5.2-4.9l-.7-.7c-.3-.3-.8.2-.5.5 1.7 1.6 3.5 3.3 5.2 4.9l.7.7c.3.3.8-.2.5-.5M328.7 273.9c1-2.2 2-4.3 3-6.5.1-.3.3-.6.4-.9.2-.4-.4-.7-.6-.3-1 2.2-2 4.3-3 6.5-.1.3-.3.6-.4.9-.2.3.4.7.6.3M323.2 294.8c2 1.3 4 2.7 5.9 4 .3.2.6.4.8.6.4.2.7-.3.3-.6-2-1.3-4-2.7-5.9-4-.3-.2-.6-.4-.8-.6-.3-.3-.6.3-.3.6M336.5 308.4c-.5 2.3-.9 4.7-1.4 7-.1.3-.1.7-.2 1-.1.4.6.6.7.2.5-2.3.9-4.7 1.4-7 .1-.3.1-.7.2-1 .1-.4-.6-.6-.7-.2M307.4 326.1c2.3-.6 4.6-1.3 6.9-1.9.3-.1.7-.2 1-.3.4-.1.2-.8-.2-.7-2.3.6-4.6 1.3-6.9 1.9-.3.1-.7.2-1 .3-.4.1-.2.8.2.7M207.5 242.8c1 2.2 2 4.3 3 6.5.1.3.3.6.4.9.2.4.8.1.6-.3-1-2.2-2-4.3-3-6.5-.1-.3-.3-.6-.4-.9-.2-.5-.7-.1-.6.3M170.7 270.7c1.6 1.7 3.3 3.5 4.9 5.2l.7.7c.3.3.8-.2.5-.5-1.6-1.7-3.3-3.5-4.9-5.2l-.7-.7c-.3-.3-.8.1-.5.5M174.9 297.8c1 2.1 2.1 4.3 3.1 6.4.1.3.3.6.4.9.2.4.8.1.6-.3l-3.1-6.4c-.2-.3-.3-.6-.4-.9-.2-.4-.8-.1-.6.3M161.3 259.9l-4.8 5.4c-.2.3-.4.5-.7.8s.2.8.5.5l4.8-5.4c.2-.3.4-.5.7-.8.3-.4-.2-.9-.5-.5M174.1 243.3c.8 2.3 1.5 4.5 2.3 6.8.1.3.2.6.3 1s.8.2.7-.2c-.8-2.3-1.5-4.5-2.3-6.8-.1-.3-.2-.6-.3-1-.2-.4-.9-.2-.7.2M148.5 286.8c-1.1 2.1-2.3 4.2-3.4 6.3-.2.3-.3.6-.5.9-.2.4.4.7.6.3 1.1-2.1 2.3-4.2 3.4-6.3.2-.3.3-.6.5-.9s-.4-.6-.6-.3M133.5 328.4c-1.1 2.1-2.3 4.2-3.4 6.3-.2.3-.3.6-.5.9-.2.4.4.7.6.3 1.1-2.1 2.3-4.2 3.4-6.3.2-.3.3-.6.5-.9s-.4-.7-.6-.3M139.8 309.2c1.2 2.1 2.4 4.1 3.7 6.2.2.3.3.6.5.9.2.4.8 0 .6-.3-1.2-2.1-2.4-4.1-3.7-6.2-.2-.3-.3-.6-.5-.9-.2-.4-.8-.1-.6.3M165.8 282.5c-2.2 1-4.4 2-6.5 2.9-.3.1-.6.3-.9.4-.4.2-.1.8.3.6 2.2-1 4.4-2 6.5-2.9.3-.1.6-.3.9-.4.5-.2.1-.8-.3-.6M159.9 331.2c-2.2 1-4.4 2-6.5 2.9-.3.1-.6.3-.9.4-.4.2-.1.8.3.6 2.2-1 4.4-2 6.5-2.9.3-.1.6-.3.9-.4.4-.2.1-.8-.3-.6M179.9 338.7c-1.5-1.8-3.1-3.7-4.6-5.5-.2-.3-.4-.5-.6-.8-.3-.3-.8.1-.5.5 1.5 1.8 3.1 3.7 4.6 5.5.2.3.4.5.6.8.3.3.7-.2.5-.5M172.1 317c-1.5-1.8-3.1-3.7-4.6-5.5-.2-.3-.4-.5-.6-.8-.3-.3-.8.1-.5.5 1.5 1.8 3.1 3.7 4.6 5.5.2.3.4.5.6.8.3.3.8-.2.5-.5M196.1 220.8c-.3 2.4-.5 4.7-.8 7.1 0 .3-.1.7-.1 1 0 .4.6.4.7 0 .3-2.4.5-4.7.8-7.1 0-.3.1-.7.1-1 0-.5-.6-.5-.7 0M216.4 210.9c1.2 2 2.5 4.1 3.7 6.1.2.3.4.6.5.9.2.4.8 0 .6-.3-1.2-2-2.5-4.1-3.7-6.1-.2-.3-.4-.6-.5-.9-.2-.4-.8-.1-.6.3M249.2 256.6l1 7.1c0 .3.1.7.1 1 .1.4.7.2.7-.2l-1-7.1c0-.3-.1-.7-.1-1-.1-.4-.8-.2-.7.2M267.3 249.1c-1.4 1.9-2.9 3.8-4.3 5.7-.2.3-.4.5-.6.8-.3.3.3.7.6.3 1.4-1.9 2.9-3.8 4.3-5.7.2-.3.4-.5.6-.8s-.4-.6-.6-.3M297.8 250.9c1 2.2 2 4.3 3.1 6.5.1.3.3.6.4.9.2.4.8.1.6-.3-1-2.2-2-4.3-3.1-6.5-.1-.3-.3-.6-.4-.9-.2-.5-.8-.1-.6.3"/><path class="st24" d="M236.9 250c0 .9-.6 1.8-1.4 2.1-.9.3-1.9 0-2.5-.7s-.6-1.7-.2-2.5c.5-.8 1.4-1.2 2.3-1 1.1.1 1.8 1.1 1.8 2.1 0 .4.7.4.7 0 0-1.2-.8-2.3-1.9-2.7-1.1-.4-2.5-.1-3.2.9-.8.9-.9 2.3-.3 3.3.6 1 1.8 1.6 3 1.4 1.4-.2 2.3-1.5 2.3-2.8.1-.5-.6-.5-.6-.1M255.6 231.4c0 .9-.6 1.8-1.4 2.1-.9.3-1.9 0-2.5-.7s-.6-1.7-.2-2.5c.5-.8 1.4-1.2 2.3-1 1 .2 1.8 1.1 1.8 2.1 0 .4.7.4.7 0 0-1.2-.8-2.3-1.9-2.7-1.1-.4-2.5-.1-3.2.9-.8.9-.9 2.3-.3 3.3.6 1 1.8 1.6 3 1.4 1.4-.2 2.3-1.5 2.3-2.8.1-.5-.6-.5-.6-.1M300.4 227.3c0 .9-.6 1.8-1.4 2.1-.9.3-1.9 0-2.5-.7s-.6-1.7-.2-2.5c.5-.8 1.4-1.2 2.3-1 1 .2 1.8 1.1 1.8 2.1 0 .4.7.4.7 0 0-1.2-.8-2.3-1.9-2.7s-2.5-.1-3.2.9c-.8.9-.9 2.3-.3 3.3s1.8 1.6 3 1.4c1.4-.2 2.3-1.5 2.3-2.8.1-.5-.6-.5-.6-.1M323.1 253.7c0 .9-.6 1.8-1.4 2.1-.9.3-1.9 0-2.5-.7s-.6-1.7-.2-2.5c.5-.8 1.4-1.2 2.3-1 1 .1 1.7 1 1.8 2.1 0 .4.7.4.7 0 0-1.2-.8-2.3-1.9-2.7s-2.5-.1-3.2.9c-.8.9-.9 2.3-.3 3.3.6 1 1.8 1.6 3 1.4 1.4-.2 2.3-1.5 2.3-2.8 0-.6-.6-.6-.6-.1M322.3 285.4c0 .9-.6 1.8-1.4 2.1-.9.3-1.9 0-2.5-.7s-.6-1.7-.2-2.5c.5-.8 1.4-1.2 2.3-1 1.1.1 1.8 1 1.8 2.1 0 .4.7.4.7 0 0-1.2-.8-2.3-1.9-2.7-1.1-.4-2.5-.1-3.2.9-.8.9-.9 2.3-.3 3.3s1.8 1.6 3 1.4c1.4-.2 2.3-1.5 2.3-2.8.1-.5-.6-.5-.6-.1M343.2 299.3c0 .9-.6 1.8-1.4 2.1-.9.3-1.9 0-2.5-.7s-.6-1.7-.2-2.5c.5-.8 1.4-1.2 2.3-1 1.1.2 1.8 1.1 1.8 2.1 0 .4.7.4.7 0 0-1.2-.8-2.3-1.9-2.7-1.1-.4-2.5-.1-3.2.9-.8.9-.9 2.3-.3 3.3s1.8 1.6 3 1.4c1.4-.2 2.3-1.5 2.3-2.8.1-.5-.6-.5-.6-.1M320.6 314.1c0 .9-.6 1.8-1.4 2.1-.9.3-1.9 0-2.5-.7s-.6-1.7-.2-2.5c.5-.8 1.4-1.2 2.3-1 1.1.1 1.8 1.1 1.8 2.1 0 .4.7.4.7 0 0-1.2-.8-2.3-1.9-2.7-1.1-.4-2.5-.1-3.2.9-.8.9-.9 2.3-.3 3.3s1.8 1.6 3 1.4c1.4-.2 2.3-1.5 2.3-2.8.1-.5-.5-.5-.6-.1M212.6 228.9c0 .9-.6 1.8-1.4 2.1-.9.3-1.9 0-2.5-.7s-.6-1.7-.2-2.5c.5-.8 1.4-1.2 2.3-1 1 .1 1.8 1 1.8 2.1 0 .4.7.4.7 0 0-1.2-.8-2.3-1.9-2.7-1.1-.4-2.5-.1-3.2.9-.8.9-.9 2.3-.3 3.3.6 1 1.8 1.6 3 1.4 1.4-.2 2.3-1.5 2.3-2.8.1-.6-.6-.6-.6-.1M186.5 238.3c0 .9-.6 1.8-1.4 2.1-.9.3-1.9 0-2.5-.7s-.6-1.7-.2-2.5c.5-.8 1.4-1.2 2.3-1 1.1.2 1.8 1.1 1.8 2.1 0 .4.7.4.7 0 0-1.2-.8-2.3-1.9-2.7-1.1-.4-2.5-.1-3.2.9-.8.9-.9 2.3-.3 3.3.6 1 1.8 1.6 3 1.4 1.4-.2 2.3-1.5 2.3-2.8.1-.5-.6-.5-.6-.1M203.8 258.4c0 .9-.6 1.8-1.4 2.1-.9.3-1.9 0-2.5-.7s-.6-1.7-.2-2.5c.5-.8 1.4-1.2 2.3-1 1 .1 1.8 1 1.8 2.1 0 .4.7.4.7 0 0-1.2-.8-2.3-1.9-2.7-1.1-.4-2.5-.1-3.2.9-.8.9-.9 2.3-.3 3.3.6 1 1.8 1.6 3 1.4 1.4-.2 2.3-1.5 2.3-2.8.1-.6-.6-.6-.6-.1M185 262.2c0 .9-.6 1.8-1.4 2.1-.9.3-1.9 0-2.5-.7s-.6-1.7-.2-2.5c.5-.8 1.4-1.2 2.3-1 1.1.1 1.8 1 1.8 2.1 0 .4.7.4.7 0 0-1.2-.8-2.3-1.9-2.7-1.1-.4-2.5-.1-3.2.9-.8.9-.9 2.3-.3 3.3.6 1 1.8 1.6 3 1.4 1.4-.2 2.3-1.5 2.3-2.8.1-.5-.6-.5-.6-.1M155.6 273.4c0 .9-.6 1.8-1.4 2.1-.9.3-1.9 0-2.5-.7s-.6-1.7-.2-2.5c.5-.8 1.4-1.2 2.3-1 1 .1 1.7 1 1.8 2.1 0 .4.7.4.7 0 0-1.2-.8-2.3-1.9-2.7-1.1-.4-2.5-.1-3.2.9-.8.9-.9 2.3-.3 3.3.6 1 1.8 1.6 3 1.4 1.4-.2 2.3-1.5 2.3-2.8 0-.5-.6-.5-.6-.1M137.9 298.8c0 .9-.6 1.8-1.4 2.1-.9.3-1.9 0-2.5-.7s-.6-1.7-.2-2.5c.5-.8 1.4-1.2 2.3-1 1 .1 1.8 1 1.8 2.1 0 .4.7.4.7 0 0-1.2-.8-2.3-1.9-2.7-1.1-.4-2.5-.1-3.2.9-.8.9-.9 2.3-.3 3.3.6 1 1.8 1.6 3 1.4 1.4-.2 2.3-1.5 2.3-2.8.1-.6-.6-.6-.6-.1M155.6 321.3c0 .9-.6 1.8-1.4 2.1-.9.3-1.9 0-2.5-.7s-.6-1.7-.2-2.5c.5-.8 1.4-1.2 2.3-1 1 .1 1.7 1 1.8 2.1 0 .4.7.4.7 0 0-1.2-.8-2.3-1.9-2.7-1.1-.4-2.5-.1-3.2.9-.8.9-.9 2.3-.3 3.3.6 1 1.8 1.6 3 1.4 1.4-.2 2.3-1.5 2.3-2.8 0-.6-.6-.6-.6-.1M181.8 324.7c0 .9-.6 1.8-1.4 2.1-.9.3-1.9 0-2.5-.7s-.6-1.7-.2-2.5c.5-.8 1.4-1.2 2.3-1 1.1.1 1.8 1 1.8 2.1 0 .4.7.4.7 0 0-1.2-.8-2.3-1.9-2.7-1.1-.4-2.5-.1-3.2.9-.8.9-.9 2.3-.3 3.3.6 1 1.8 1.6 3 1.4 1.4-.2 2.3-1.5 2.3-2.8.1-.6-.6-.6-.6-.1M163.6 341.9c0 .9-.6 1.8-1.4 2.1-.9.3-1.9 0-2.5-.7s-.6-1.7-.2-2.5c.5-.8 1.4-1.2 2.3-1 1 .1 1.8 1 1.8 2.1 0 .4.7.4.7 0 0-1.2-.8-2.3-1.9-2.7-1.1-.4-2.5-.1-3.2.9-.8.9-.9 2.3-.3 3.3.6 1 1.8 1.6 3 1.4 1.4-.2 2.3-1.5 2.3-2.8.1-.6-.6-.6-.6-.1M143.9 337.7c0 .9-.6 1.8-1.4 2.1-.9.3-1.9 0-2.5-.7s-.6-1.7-.2-2.5c.5-.8 1.4-1.2 2.3-1 1.1.1 1.8 1.1 1.8 2.1 0 .4.7.4.7 0 0-1.2-.8-2.3-1.9-2.7-1.1-.4-2.5-.1-3.2.9-.8.9-.9 2.3-.3 3.3.6 1 1.8 1.6 3 1.4 1.4-.2 2.3-1.5 2.3-2.8.1-.5-.6-.5-.6-.1M130.7 320.2c0 .9-.6 1.8-1.4 2.1-.9.3-1.9 0-2.5-.7s-.6-1.7-.2-2.5c.5-.8 1.4-1.2 2.3-1 1 .2 1.8 1.1 1.8 2.1 0 .4.7.4.7 0 0-1.2-.8-2.3-1.9-2.7-1.1-.4-2.5-.1-3.2.9-.8.9-.9 2.3-.3 3.3s1.8 1.6 3 1.4c1.4-.2 2.3-1.5 2.3-2.8.1-.5-.6-.5-.6-.1M161.1 299.3c0 .9-.6 1.8-1.4 2.1-.9.3-1.9 0-2.5-.7s-.6-1.7-.2-2.5c.5-.8 1.4-1.2 2.3-1 1 .2 1.7 1.1 1.8 2.1 0 .4.7.4.7 0 0-1.2-.8-2.3-1.9-2.7-1.1-.4-2.5-.1-3.2.9-.8.9-.9 2.3-.3 3.3.6 1 1.8 1.6 3 1.4 1.4-.2 2.3-1.5 2.3-2.8 0-.5-.6-.5-.6-.1M176.6 287c0 .9-.6 1.8-1.4 2.1-.9.3-1.9 0-2.5-.7s-.6-1.7-.2-2.5c.5-.8 1.4-1.2 2.3-1 1 .1 1.8 1.1 1.8 2.1 0 .4.7.4.7 0 0-1.2-.8-2.3-1.9-2.7-1.1-.4-2.5-.1-3.2.9-.8.9-.9 2.3-.3 3.3.6 1 1.8 1.6 3 1.4 1.4-.2 2.3-1.5 2.3-2.8.1-.5-.6-.5-.6-.1M291.4 264c-.3.9-1 1.5-2 1.6-.9.1-1.8-.5-2.2-1.3-.4-.8-.2-1.9.5-2.5s1.7-.8 2.5-.3c1 .4 1.4 1.5 1.2 2.5-.1.4.5.6.7.2.3-1.2-.1-2.4-1.1-3.1s-2.3-.7-3.3-.1c-1 .7-1.5 1.9-1.2 3.1s1.3 2 2.5 2.1c1.4.1 2.6-.8 3-2.1.1-.4-.5-.6-.6-.1M276.5 209.2c0 .9-.6 1.8-1.4 2.1-.9.3-1.9 0-2.5-.7s-.6-1.7-.2-2.5c.5-.8 1.4-1.2 2.3-1 1.1.1 1.8 1 1.8 2.1 0 .4.7.4.7 0 0-1.2-.8-2.3-1.9-2.7s-2.5-.1-3.2.9c-.8.9-.9 2.3-.3 3.3s1.8 1.6 3 1.4c1.4-.2 2.3-1.5 2.3-2.8.1-.6-.5-.6-.6-.1M230.1 203c0 .9-.6 1.8-1.4 2.1-.9.3-1.9 0-2.5-.7s-.6-1.7-.2-2.5c.5-.8 1.4-1.2 2.3-1 1 .2 1.8 1.1 1.8 2.1 0 .4.7.4.7 0 0-1.2-.8-2.3-1.9-2.7-1.1-.4-2.5-.1-3.2.9-.8.9-.9 2.3-.3 3.3.6 1 1.8 1.6 3 1.4 1.4-.2 2.3-1.5 2.3-2.8.1-.5-.6-.5-.6-.1M341.6 278.8c.1 0 .1 0 .2-.1-.1-.2-.2-.4-.2-.6-.8.2-1.7-.1-2.2-.8-.6-.7-.6-1.7-.2-2.5.2-.3.5-.6.8-.8l-.3-.6c-.3.2-.6.4-.8.7-.8.9-.9 2.3-.3 3.3s1.8 1.6 3 1.4"/><path class="st27" d="M369.8 344.3c.4-1.8.6-3.6.6-5.4 0-14.7-12.2-26.6-27.3-26.6-15.1 0-27.3 11.9-27.3 26.6 0 1.9.2 3.7.6 5.4h53.4z"/><g class="st22"><defs><path id="SVGID_7_" d="M315.9 312.2h54.5v32.1h-54.5z"/></defs><clipPath id="SVGID_8_"><use xlink:href="#SVGID_7_" style="overflow:visible"/></clipPath><path d="M369.8 344.3c.4-1.8.6-3.6.6-5.4 0-14.7-12.2-26.6-27.3-26.6-15.1 0-27.3 11.9-27.3 26.6 0 1.9.2 3.7.6 5.4h53.4z" style="clip-path:url(#SVGID_8_);fill:#671cc9"/></g><path class="st27" d="M354.4 319.5c.4 0 .7.1 1 .1-.9-2.9-3.9-5.2-6.8-6.9-.9-.2-1.8-.3-2.8-.4 3.1 1.5 7.4 4.1 8.6 7.2M349.6 319.5c-1.6-1.4-6.1-4.9-10.7-7-.6.1-1.1.2-1.6.3 4.3 1.6 8.9 5.1 11.1 6.9.3-.1.7-.1 1.2-.2M342 321.6c-3.4-3.2-7.7-5.4-10.8-6.7-.4.2-.7.4-1.1.6 3.1 1.2 7.6 3.4 11.1 6.6.2-.2.5-.4.8-.5M338.5 323.9c-2-1.1-7.7-4.3-12.3-5.8-.3.2-.6.5-.8.7 4.4 1.4 10.2 4.5 12.4 5.8.2-.3.4-.5.7-.7M334.5 329c-4.5-2-10.5-3.8-14.1-4.7-.2.3-.4.5-.5.8 3.6.9 9.7 2.7 14.2 4.7.1-.3.2-.6.4-.8M332.3 334.6c-2.5-.7-10.3-2.9-15.1-3.7l-.3.9c4.8.8 12.7 3 15.2 3.7 0-.3.1-.6.2-.9M331.4 340.2c-4 .3-11.2 0-15.5-.2 0 .3 0 .6.1.9 2.9.1 7 .3 10.7.3 1.8 0 3.4 0 4.8-.1-.1-.3-.1-.6-.1-.9"/><path class="st24" d="M305.2 244.6c3.1 12.3 5 24.9 6.5 37.5.8 6.6 1.4 13.2 1.8 19.8 0 .4.7.4.7 0-1.1-18.1-3.5-36.2-7.4-53.9-.3-1.2-.5-2.4-.8-3.5-.2-.5-.9-.3-.8.1M189.7 244.4c-3 13-4.9 26.3-6.5 39.6-.8 6.8-1.4 13.5-1.8 20.3 0 .4.7.4.7 0 1.1-18.8 3.7-37.5 7.4-56 .3-1.3.5-2.5.8-3.7.1-.4-.5-.6-.6-.2"/><path class="st24" d="M158.4 308c4.2-1 8.5-1.6 12.7-2.1 9.9-1.2 19.9-1.6 29.9-.9 7 .5 13.9 1.4 20.7 3.1.4.1.6-.6.2-.7-19.3-4.6-39.8-4.4-59.3-.9-1.5.3-2.9.5-4.4.9-.5.1-.3.7.2.6"/><path class="st17" d="M22.5-40h455v455h-455z"/><path class="st26" d="m435.2 233.8-7.4 90M431.5 233.8l-7.5 90M433.3 234.8l-53.1-47.6M435.2 231.5 382 183.9"/><path class="st32" d="M385.1 191.4c-1.9 3.6-6.1 5.1-9.4 3.3-3.3-1.7-4.5-6-2.6-9.6s6.1-5.1 9.4-3.3c3.3 1.8 4.5 6 2.6 9.6"/><path class="st26" d="M373 221.3c-2.5 4.9-8.5 6.7-13.4 4.2s-6.7-8.5-4.2-13.4 8.5-6.7 13.4-4.2 6.8 8.5 4.2 13.4z"/><path class="st28" d="M378.6 189.3c-14.1-7.4-32.5-.2-41.1 16.1l51.2 26.8c8.6-16.3 4.1-35.5-10.1-42.9M449.9 344.3c-2.1-12.7-12.9-22.4-25.8-22.4s-23.7 9.7-25.8 22.4h51.6z"/><path class="st32" d="M437.2 232.4c0 2.6-2.1 4.7-4.7 4.7s-4.7-2.1-4.7-4.7 2.1-4.7 4.7-4.7 4.7 2.1 4.7 4.7"/><path class="st17" d="M22.5-40h455v455h-455z"/><path style="fill-rule:evenodd;clip-rule:evenodd;fill:#f9f9f9" d="m344.9 201.5-13.2 17 18.8 9.6 13.4-16.9z"/><path class="st34" d="m344.9 201.5-13.2 17 18.8 9.6 13.4-16.9z"/><path class="st17" d="m345 205.6 13.8 7.1"/><path class="st34" d="m345 205.6 13.8 7.1"/><path class="st17" d="m342.5 207.8 13.9 7.1"/><path class="st34" d="m342.5 207.8 13.9 7.1"/><path class="st17" d="m340.6 210.3 13.8 7.1"/><path class="st34" d="m340.6 210.3 13.8 7.1"/><path class="st17" d="m338.6 212.7 13.9 7.1"/><path class="st34" d="m338.6 212.7 13.9 7.1"/><path class="st17" d="m336.3 215.5 13.9 7.1"/><path class="st34" d="m336.3 215.5 13.9 7.1"/><path class="st24" d="M37.5 345H445.2c5.5 0 11 .1 16.5 0h.7c.9 0 .9-1.4 0-1.4H54.7c-5.5 0-11-.1-16.5 0h-.7c-.8 0-.9 1.4 0 1.4"/><path class="st17" d="M22.5-40h455v455h-455z"/><path class="st17" d="M22.5-40h455v455h-455z"/><path class="st24" d="m181.3 340.1-7-72.5c-.3-2.7 1.9-5.1 4.8-5.1h137.5c2.9 0 5.2 2.6 4.7 5.4l-11.6 72.5c-.4 2.3-2.4 3.9-4.7 3.9H186c-2.4 0-4.5-1.8-4.7-4.2"/><path class="st30" d="M256.2 303.4c0 4.5-3.8 8.2-8.4 8.2s-8.4-3.7-8.4-8.2 3.8-8.2 8.4-8.2 8.4 3.6 8.4 8.2"/><path class="st17" d="M22.5-40h455v455h-455z"/><path class="st32" d="M381.8 350.7c-.7-14.5-11.2-26.1-24-26.1s-23.2 11.5-24 26.1h48z"/><path class="st24" d="M382.1 350.7c-.6-10.3-6.2-20.7-16.1-24.8-9.6-3.9-20.1-.3-26.3 7.7-3.8 4.9-5.8 10.9-6.1 17 0 .2.2.3.3.3h47.8c.4 0 .4-.7 0-.7h-47.8l.3.3c.6-10.1 6.1-20.2 15.7-24.2 9.3-3.8 19.6-.1 25.6 7.7 3.6 4.7 5.5 10.5 5.9 16.5.1.6.8.7.7.2"/><path class="st24" d="M358.5 324.7v26.1c0 .4.7.4.7 0v-26.1c-.1-.5-.7-.5-.7 0"/><path class="st17" d="M22.5-40h455v455h-455z"/><path class="st30" d="M329.4 339.3s-4.5-4.6-1.6-9.4 7.7-8.2 13.9-10.7 13.1-3.1 16.2-2.9c3.1.3 10.1 1.2 16.2 7.6 6 6.3 8 11.3 8.2 12.7.2 1.5.1 2.4-.4 4.2-.6 1.8.1 1.6-.7 1.5 0 0-.5.8-1.1 1.1-.4.2-1.1-.4-1.5-.1s-.5 1.1-.6 1.4c0 0-1.1 2.2-5.2-.4-4.1-2.5-9.9-9.6-10.9-10.8-1-1.2-4.4-5-5.9-4.4s-1.5 0-1.6 5.3-.2 8.7-.7 10.7-2.6 3.7-4.5 2.3c-2-1.4-2.8-7.4-3-8.5s-.6-4.6-.6-4.6 0-1.6-1.2-.9c-.6.3-2.1.4-3.2 1-1.3.8-2.5 2.3-2.5 2.3s.1 0 .3 1.4c.2 1.4 1.9 5.6.5 8.1-1.5 2.5-3.6.2-4.8-1-1.4-1.3-5.3-5.9-5.3-5.9"/><path class="st24" d="M335.9 332.2c1.3 2.7 2.4 5.6 3.1 8.5.4 1.5 1.1 5.1-.8 6.1-1.2.6-2.7-1.1-3.5-1.9-1.3-1.3-2.6-2.7-3.7-4.1-1.3-1.6-2.6-3.3-3.3-5.2-.7-1.8-.5-3.7.3-5.2 2.4-4.8 7.6-8.1 12.3-10.2 8.3-3.7 18.2-5.1 26.6-1 4 1.9 7.2 4.9 10 8.4 1.8 2.2 3.5 4.6 4.5 7.3.8 2.1 1.2 4.6-.3 6.4-.3.3.2.8.5.5 2.8-3.4.3-8.2-1.7-11.3-2.5-3.9-5.7-7.6-9.6-10.2-8.2-5.5-18.4-5.2-27.4-1.9-5.8 2.1-12.4 5.7-15.4 11.5-.8 1.5-1.1 3.3-.6 5.2.6 2.1 1.9 3.9 3.2 5.5 1.3 1.7 2.8 3.3 4.3 4.8.9.9 2.2 2.3 3.6 2.2 1.9-.2 2.2-2.8 2.2-4.3-.1-2.5-1-5-1.9-7.3-.5-1.4-1.1-2.7-1.7-4-.3-.5-.9-.2-.7.2"/><path class="st24" d="M363.8 324.9c4.1 4.2 8.2 8.7 11.5 13.5.7 1 3.8 5.2 1.9 6.3-1.7 1-3.8-.2-5.2-1.3-4.9-3.5-8.1-8.8-12.6-12.7-1.1-.9-3.9-3.3-5.1-1.2-.4.7-.4 1.6-.4 2.3-.1 2.2-.1 4.4-.2 6.6-.1 1.9 0 10-3.6 9.1-1.5-.4-2-1.7-2.5-3.1-.6-1.8-1-3.8-1.3-5.7-.6-3.5-1-7-1.2-10.5v-.6c0-.4-.7-.4-.7 0 .2 2.8.5 5.6.8 8.3.3 2.2.6 4.4 1.2 6.5.4 1.5.8 3.2 1.7 4.5.7.9 2.1 1.5 3.3 1.2 1.4-.4 1.9-2 2.3-3.2 1.1-4.3.7-9 .9-13.4 0-.6 0-1.6.5-2 .9-.6 2.3.5 2.9 1 2.6 1.9 4.7 4.6 6.8 7 1.9 2.1 3.9 4.3 6.2 6 1.6 1.3 3.9 2.8 6 2 2.2-.8 1.3-3.1.5-4.7-1.7-3.4-4.3-6.4-6.8-9.3-2-2.3-4-4.6-6.2-6.8-.1-.1-.2-.2-.3-.4-.2-.2-.7.3-.4.6"/><path class="st24" d="M378.2 343.6c.9.3 2.2.3 2.9-.5 1.1-1.3.4-3.6-.1-5-.9-2.4-2.4-4.6-3.9-6.7-2-2.7-4.1-5.2-6.4-7.7-.3-.3-.8.2-.5.5 3.6 3.8 7.2 7.9 9.5 12.7.7 1.4 1.6 3.5 1.2 5.1-.3 1.2-1.5 1.3-2.5 1-.5-.2-.7.4-.2.6M338.6 337.3c0-.2.1-.3.3-.6.4-.6 1.1-1.1 1.7-1.6 1.4-.9 3-1.6 4.7-1.6.4 0 .4-.7 0-.7-1.8 0-3.7.7-5.1 1.8-.7.5-1.3 1-1.8 1.7-.2.2-.3.5-.4.8-.1.5.5.7.6.2"/><path class="st17" d="M22.5-40h455v455h-455z"/><path class="st28" d="M79.9 329.1c-3.3.8-6.3.3-6.6-1l-7.8-34.2c-.3-1.3 2.2-3 5.5-3.7 3.3-.8 6.8-.4 7.1.9l7.3 34.3c.3 1.3-2.2 3-5.5 3.7"/><g style="opacity:.6"><defs><path id="SVGID_9_" d="M65.5 289.8h20v39.7h-20z"/></defs><clipPath id="SVGID_10_"><use xlink:href="#SVGID_9_" style="overflow:visible"/></clipPath><path d="M79.9 329.1c-3.3.8-6.3.3-6.6-1l-7.8-34.2c-.3-1.3 2.2-3 5.5-3.7 3.3-.8 6.8-.4 7.1.9l7.3 34.3c.3 1.3-2.2 3-5.5 3.7" style="clip-path:url(#SVGID_10_)"/></g><path class="st24" d="M79.7 328.6c-1.3.3-5.3 1.1-5.9-.7-.2-.6-.3-1.3-.4-1.9-.7-2.9-1.3-5.9-2-8.8-1.6-6.9-3.2-13.8-4.8-20.8-.2-.8-.4-1.5-.5-2.3-.3-1.4 1.7-2.2 2.8-2.7 1.6-.7 3.4-1 5.2-1.1.9 0 2.9-.1 3.4.9.2.4.2.9.3 1.3 1.4 6.5 2.8 13 4.2 19.4l2.1 9.9c.2.9.4 1.9.6 2.8.2.8.2 1.2-.5 1.9-1.3 1.2-2.9 1.7-4.5 2.1-.7.2-.4 1.3.3 1.1 1.8-.4 5.9-1.6 5.9-4.1 0-.5-.2-1.1-.3-1.6-.6-3-1.3-5.9-1.9-8.9-1.6-7.4-3.2-14.8-4.7-22.2-.1-.6-.2-1.3-.4-1.9-.6-1.9-3.5-1.8-5.1-1.7-2.6.2-6.5.9-8.2 3.2-.5.7-.5 1.4-.3 2.2 1.5 6.7 3.1 13.5 4.6 20.2l2.4 10.5c.2.9.4 1.7.6 2.6.3 1.3 1.4 1.8 2.6 2 1.6.3 3.2 0 4.7-.3.9-.2.6-1.3-.2-1.1"/><path class="st27" d="m72.3 323.5 1.3 5.9c.4 1.6 3.4 2.4 6.7 1.6 3.3-.8 5.7-2.7 5.4-4.4l-1.3-5.9-12.1 2.8z"/><path class="st24" d="M71.7 323.7c.3 1.5.7 2.9 1 4.4.1.5.2 1.1.4 1.6.3 1.1 1.4 1.7 2.4 1.9 2.9.8 6.5 0 8.9-1.8.8-.6 1.7-1.4 1.8-2.5.1-.6-.1-1.1-.2-1.7-.4-1.7-.7-3.4-1.1-5.1-.1-.3-.4-.5-.7-.4-3.5.8-7.1 1.6-10.6 2.4l-1.5.3c-.7.2-.4 1.3.3 1.1 3.5-.8 7.1-1.6 10.6-2.4l1.5-.3c-.2-.1-.5-.3-.7-.4.3 1.3.6 2.6.8 3.8.1.6.3 1.3.4 1.9.1.7-.2 1.2-.7 1.7-1.9 1.9-5.4 2.7-8 2.3-.9-.1-2-.5-2.3-1.4-.1-.5-.2-.9-.3-1.4-.3-1.5-.7-3-1-4.5-.1-.6-1.2-.3-1 .5"/><path transform="rotate(-12.909 77.49 318.71)" class="st32" d="M71.3 316.7h12.4v4H71.3z"/><path class="st24" d="m83.9 318.8-10.6 2.4c-.5.1-1 .2-1.5.4l.7.4-.9-3.9c-.1.2-.3.5-.4.7 3.5-.8 7.1-1.6 10.6-2.4l1.5-.3c-.2-.1-.5-.3-.7-.4l.9 3.9c.2.7 1.3.4 1.1-.3l-.9-3.9c-.1-.3-.4-.5-.7-.4-3.5.8-7.1 1.6-10.6 2.4l-1.5.3c-.3.1-.5.4-.4.7l.9 3.9c.1.3.4.5.7.4 3.5-.8 7.1-1.6 10.6-2.4.5-.1 1-.2 1.5-.4.7-.2.4-1.3-.3-1.1"/><path transform="rotate(-12.904 78.397 322.66)" class="st32" d="M72.2 320.7h12.4v3.9H72.2z"/><path class="st24" d="M84.8 322.6c-3.5.8-7.1 1.6-10.6 2.4-.5.1-1 .2-1.5.4l.7.4c-.3-1.3-.6-2.5-.9-3.8-.1.2-.3.5-.4.7 3.5-.8 7.1-1.6 10.6-2.4l1.5-.3c-.2-.1-.5-.3-.7-.4.3 1.3.6 2.5.9 3.8.2.7 1.3.4 1.1-.3-.3-1.3-.6-2.5-.9-3.8-.1-.3-.4-.5-.7-.4l-10.6 2.4-1.5.3c-.3.1-.5.4-.4.7.3 1.3.6 2.5.9 3.8.1.3.4.5.7.4 3.5-.8 7.1-1.6 10.6-2.4.5-.1 1-.2 1.5-.4.7-.2.4-1.3-.3-1.1"/><path class="st30" d="m65.7 293.2 3-13.3 8.8 10.6c.2.3-.3.7-1.2.9l-9.3 2c-.7.3-1.3.2-1.3-.2"/><path class="st24" d="M66.3 293.4c.9-3.9 1.8-7.7 2.6-11.6.1-.6.3-1.1.4-1.7-.3.1-.6.2-1 .3 2.2 2.7 4.4 5.4 6.6 8 .5.6 1.1 1.3 1.6 1.9.1.2.3.4.4.5l.1.1c-.1 0-.1-.3-.2-.3s-.3.1-.4.2c-.5.2-1.1.3-1.6.4-1 .2-2.1.4-3.1.7-1.2.3-2.3.5-3.5.8-.4.1-.7.2-1.1.2-.1 0-.2 0-.2.1-.1 0-.3 0-.4.1-.3 0-.2-.1-.2.3-.1-.8-1.2-.8-1.2-.1 0 1.8 4.3.4 5.2.2 2-.4 4-.9 6-1.3.8-.2 2.3-.8 1.6-1.9-.3-.4-.6-.8-.9-1.1l-4.5-5.4c-1.1-1.4-2.2-2.7-3.4-4.1-.3-.3-.9-.1-1 .3-.9 3.9-1.8 7.7-2.6 11.6-.1.6-.3 1.1-.4 1.7-.1.5 1 .8 1.2.1"/><path class="st24" d="m67.7 286.9 5.7-1.3-4.6-5.6z"/><path class="st28" d="M90.2 322.5c-3.4-.7-5.9-2.3-5.6-3.6l6.9-34.4c.3-1.3 3.2-1.8 6.6-1.2 3.4.7 6.4 2.4 6.1 3.7l-7.4 34.3c-.3 1.3-3.2 1.9-6.6 1.2"/><g style="opacity:.3"><defs><path id="SVGID_11_" d="M84.6 283h19.6v39.8H84.6z"/></defs><clipPath id="SVGID_12_"><use xlink:href="#SVGID_11_" style="overflow:visible"/></clipPath><path d="M90.2 322.5c-3.4-.7-5.9-2.3-5.6-3.6l6.9-34.4c.3-1.3 3.2-1.8 6.6-1.2 3.4.7 6.4 2.4 6.1 3.7l-7.4 34.3c-.3 1.3-3.2 1.9-6.6 1.2" style="clip-path:url(#SVGID_12_)"/></g><path class="st24" d="M90.4 321.9c-1.5-.3-3.2-.8-4.5-1.8-.4-.3-.7-.7-.7-1.2 0-.6.3-1.3.4-1.8l1.8-8.7 4.2-20.9c.2-.8.3-1.6.5-2.4.3-1.4 1.9-1.4 3.1-1.4 1.8 0 3.6.3 5.3 1 .9.3 3.1 1.1 3.2 2.3 0 .4-.2.9-.3 1.3-1.4 6.5-2.8 12.9-4.2 19.4l-2.1 9.9c-.2 1-.4 1.9-.6 2.9-.2.8-.2 1.2-1.1 1.5-1.6.5-3.5.2-5-.1-.7-.1-1 1-.3 1.1 1.8.3 6.2 1 7.2-1.3.2-.5.2-1 .4-1.5.7-3 1.3-6 2-9 1.6-7.4 3.2-14.7 4.8-22.1.1-.6.3-1.2.4-1.8.3-2-2.3-3.1-3.8-3.7-1.7-.7-3.4-1-5.2-1.1-1.3 0-2.8 0-3.9.7-.7.5-.8 1.1-1 1.8-1.4 6.9-2.8 13.7-4.1 20.6-.7 3.4-1.4 6.9-2.1 10.3-.2.8-.3 1.7-.5 2.5-.2 1.3.5 2.2 1.5 2.9 1.3.9 2.9 1.4 4.4 1.7.6.2.9-.9.2-1.1"/><path transform="rotate(-78.65 92.242 312.07)" class="st32" d="M90.2 305.9h4v12.4h-4z"/><path class="st24" d="M98.2 314.7c-3.5-.7-7.1-1.4-10.6-2.1l-1.5-.3c.1.2.3.5.4.7.3-1.3.5-2.6.8-4-.2.1-.5.3-.7.4 3.5.7 7.1 1.4 10.7 2.1l1.5.3c-.1-.2-.3-.5-.4-.7-.3 1.3-.5 2.6-.8 4-.1.7 1 1 1.1.3.3-1.3.5-2.6.8-4 .1-.3-.1-.6-.4-.7-3.5-.7-7.1-1.4-10.7-2.1l-1.5-.3c-.3-.1-.6.1-.7.4-.3 1.3-.5 2.6-.8 4-.1.3.1.6.4.7 3.5.7 7.1 1.4 10.7 2.1l1.5.3c.6.2.9-.9.2-1.1"/><path class="st30" d="m92 284 8.2-10.8 3.6 13.3c.1.4-.6.5-1.4.3l-9.3-2c-.7-.1-1.3-.6-1.1-.8"/><path class="st24" d="M92.5 284.3c2.4-3.2 4.8-6.3 7.2-9.5.3-.4.7-.9 1-1.3l-1-.1c.9 3.4 1.8 6.7 2.7 10.1.2.8.4 1.6.7 2.4.1.2.1.5.2.7v.1-.2c.1-.2 0-.2-.1-.2h-.5c-1.6-.2-3.1-.6-4.7-1-1.2-.2-2.3-.5-3.5-.7-.4-.1-.7-.1-1.1-.2h-.2c-.1 0-.2 0-.2-.1-.1 0-.2-.1-.3-.1-.1 0-.1-.1-.2-.1-.1-.2-.1-.1 0 .2.3-.7-.7-1.2-1-.6-.8 1.7 3.6 2.1 4.5 2.3 2 .4 4 .9 6.1 1.3.8.2 2.5.3 2.3-1-.1-.5-.3-1-.4-1.4-.6-2.3-1.2-4.5-1.9-6.8-.5-1.7-.9-3.4-1.4-5.1-.1-.5-.8-.5-1-.1-2.4 3.2-4.8 6.3-7.2 9.5-.3.4-.7.9-1 1.3-.4.6.6 1.1 1 .6"/><path class="st24" d="m96.4 279 5.7 1.1-1.9-7z"/><path class="st27" d="m85.5 314.2-1.2 5.9c-.3 1.7 2.1 3.5 5.5 4.2s6.3-.1 6.7-1.8l1.3-5.9-12.3-2.4z"/><path class="st24" d="m85 314.1-.9 4.4c-.1.5-.2 1-.3 1.6-.2 1.1.5 2 1.3 2.7 2.2 2 5.8 2.7 8.7 2.2 1.1-.2 2.3-.6 3-1.5.3-.5.4-1.1.5-1.6.4-1.7.7-3.4 1.1-5.1.1-.3-.1-.6-.4-.7-3.6-.7-7.1-1.4-10.7-2.1l-1.5-.3c-.7-.1-1 1-.3 1.1 3.6.7 7.1 1.4 10.7 2.1l1.5.3c-.1-.2-.3-.5-.4-.7-.3 1.3-.5 2.6-.8 3.8-.1.6-.3 1.3-.4 1.9-.2.7-.7 1.1-1.4 1.4-2.6.9-6 .2-8.2-1.3-.7-.5-1.5-1.2-1.4-2.1.1-.5.2-.9.3-1.4l.9-4.5c-.1-.6-1.2-.9-1.3-.2"/><path transform="rotate(-78.65 91.474 315.933)" class="st32" d="M89.5 309.7h3.9v12.4h-3.9z"/><path class="st24" d="M97.4 318.5c-3.5-.7-7.1-1.4-10.7-2.1l-1.5-.3c.1.2.3.5.4.7.3-1.3.5-2.6.8-3.8l-.7.4c3.5.7 7.1 1.4 10.6 2.1l1.5.3c-.1-.2-.3-.5-.4-.7-.3 1.3-.5 2.6-.8 3.8-.1.7 1 1 1.1.3.3-1.3.5-2.6.8-3.8.1-.3-.1-.6-.4-.7-3.5-.7-7.1-1.4-10.6-2.1l-1.5-.3c-.3-.1-.6.1-.7.4-.3 1.3-.5 2.6-.8 3.8-.1.3.1.6.4.7 3.6.7 7.1 1.4 10.7 2.1l1.5.3c.7.2 1-.9.3-1.1"/><path class="st32" d="M82.1 327.5c-2.2 0-4-1.8-4-4V264c0-2.2 1.8-4 4-4s4 1.8 4 4v59.5c0 2.2-1.8 4-4 4"/><path class="st26" d="M82.1 327.5c-2.2 0-4-1.8-4-4V264c0-2.2 1.8-4 4-4s4 1.8 4 4v59.5c0 2.2-1.8 4-4 4zM78.1 276.6h8"/><path class="st32" d="M86.6 290c-1.2 0-2.1-.9-2.1-2.1v-17.8c0-1.2.9-2.1 2.1-2.1s2.1.9 2.1 2.1v17.8c.1 1.2-.9 2.1-2.1 2.1"/><path class="st26" d="M86.6 290c-1.2 0-2.1-.9-2.1-2.1v-17.8c0-1.2.9-2.1 2.1-2.1s2.1.9 2.1 2.1v17.8c.1 1.2-.9 2.1-2.1 2.1z"/><path style="fill:#a5a5b7" d="M63.3 309.1h43.5v44.3H63.3z"/><path class="st28" d="M106.8 332.2v-1.6c-4.1-3.7-9.9-10.7-10.4-21.4h-.9c.6 11.8 7 19.3 11.3 23M102.2 353.4c.4-9.1-1.2-16.7-4.3-20.3-1.8-2-5-3.7-9.8.2-4 3.3-7.1 10-8.8 19.5 0 .2-.1.4-.1.6h.9c1.2-7 3.6-15 8.3-18.8 3.5-2.8 6.5-2.9 8.9-.3 2.9 3.3 4.3 10.5 3.9 19.1h1zM67.5 353.4c.5-6.6 4-12.7 10.4-21.6 5.5-7.7 9.2-15.3 10.9-22.7h-.9c-1.7 7-5.2 14.2-10.5 21.6-6.5 9.1-10.2 15.6-10.7 22.7h.8zM63.3 325.5c2.9-.1 6.9-1.1 9.6-5.3 1.7-2.7 2.6-6.4 2.7-11h-.9c-.1 4.2-.9 7.6-2.4 10-2.4 3.9-6.2 4.8-9 4.9v1.4z"/><path style="fill:none;stroke:#3b3b41;stroke-miterlimit:10" d="M63.3 309.1h43.5v44.3H63.3z"/><path class="st17" d="M22.5-40h455v455h-455z"/><path class="st17" d="M22.5-40h455v455h-455z"/></svg>