<svg version="1.1" id="Layer_1" xmlns="http://www.w3.org/2000/svg" xmlns:xlink="http://www.w3.org/1999/xlink" x="0" y="0" viewBox="0 0 500 375" style="enable-background:new 0 0 500 375" xml:space="preserve"><style>.st2{fill:#1a2e35}.st3{fill:#ffa981}.st4{fill:#fff}.st5{fill:none}.st8{opacity:.7}</style><defs><circle id="SVGID_1_" cx="251.5" cy="187.1" r="140"/></defs><clipPath id="SVGID_2_"><use xlink:href="#SVGID_1_" style="overflow:visible"/></clipPath><path style="clip-path:url(#SVGID_2_);fill:#ffe2d7" d="M63.3 47.1h374.2v280.7H63.3z"/><defs><circle id="SVGID_5_" cx="251.5" cy="187.1" r="140"/></defs><clipPath id="SVGID_6_"><use xlink:href="#SVGID_5_" style="overflow:visible"/></clipPath><g style="clip-path:url(#SVGID_6_)"><path class="st2" d="M338.5 262.4H162.3c-.2 0-.3-.2-.3-.3 0-.2.2-.3.3-.3h176.3c.2 0 .3.2.3.3 0 .2-.2.3-.4.3zM247.2 144.3h-6.6c-.2 0-.3-.2-.3-.3l-.4-4.7c-.9-.2-1.8-.7-2.6-1.1l-3.6 3c-.2.1-.3.1-.4 0l-4.7-4.7c-.1-.1-.2-.3 0-.4l3-3.6c-.4-.8-.8-1.7-1.1-2.6l-4.7-.4c-.2 0-.3-.2-.3-.3v-6.5c0-.2.2-.3.3-.3l4.7-.4c.2-.9.7-1.8 1.1-2.6l-3-3.6c-.1-.2-.1-.3 0-.4l4.7-4.7c.1-.1.3-.2.4 0l3.6 3c.8-.4 1.7-.8 2.6-1.1l.4-4.7c0-.2.2-.3.3-.3h6.6c.2 0 .3.2.3.3l.4 4.7c.9.2 1.8.7 2.6 1.1l3.6-3c.2-.1.3-.1.4 0l4.7 4.7c.1.1.2.3 0 .4l-3 3.6c.4.8.8 1.7 1.1 2.6l4.7.4c.2 0 .3.2.3.3v6.5c0 .2-.2.3-.3.3l-4.7.4c-.2.9-.7 1.8-1.1 2.6l3 3.6c.1.2.1.3 0 .4l-4.7 4.7c-.1.1-.3.2-.4 0l-3.6-3c-.8.4-1.7.8-2.6 1.1l-.4 4.7c.1.1-.1.3-.3.3zm-6.3-.7h6l.4-4.6c0-.2.1-.2.2-.3 1-.2 2-.7 2.9-1.1.1-.1.2-.1.4 0l3.6 2.9 4.3-4.2-3-3.5c-.1-.1-.1-.2 0-.4.5-.9.9-1.9 1.2-2.9 0-.2.2-.2.3-.2l4.7-.4v-6l-4.7-.4c-.2 0-.2-.1-.3-.2-.3-1-.7-2-1.2-2.9-.1-.1-.1-.2 0-.4l3-3.5-4.3-4.2-3.6 2.9c-.1.1-.2.1-.4 0-.9-.5-1.9-.9-2.9-1.1-.2 0-.2-.2-.2-.3l-.4-4.6h-6l-.4 4.6c0 .2-.1.2-.2.3-1.1.2-2 .7-2.9 1.1-.1.1-.2.1-.4 0l-3.6-2.9-4.3 4.2 3 3.5c.1.1.1.2 0 .4-.5.9-.9 1.9-1.2 2.9 0 .2-.2.2-.3.2l-4.7.4v6l4.7.4c.2 0 .2.1.3.2.3 1 .7 2 1.2 2.9.1.1.1.2 0 .4l-3 3.5 4.3 4.2 3.6-2.9c.1-.1.2-.1.4 0 .9.5 1.9.9 2.9 1.1.2 0 .2.2.2.3l.4 4.6zm21.2-14.4zm-18.1 4.7c-4.4 0-8-3.6-8-7.9 0-4.4 3.6-7.9 8-7.9s8 3.6 8 7.9c0 4.4-3.6 7.9-8 7.9zm0-15.2c-4.1 0-7.4 3.3-7.4 7.3s3.3 7.3 7.4 7.3 7.4-3.3 7.4-7.3c-.1-4.1-3.4-7.3-7.4-7.3zM326.1 200.7h-3.2c-.2 0-.3-.2-.3-.3l-.2-2.1c-.4-.1-.7-.2-1.1-.4l-1.6 1.4c-.2.1-.3.1-.4 0l-2.2-2.2c-.1-.1-.2-.3 0-.4l1.4-1.6c-.2-.3-.3-.7-.4-1.1l-2.1-.2c-.2 0-.3-.2-.3-.3v-3.1c0-.2.2-.3.3-.3l2.1-.2c.1-.3.2-.7.4-1.1l-1.4-1.6c-.1-.2-.1-.3 0-.4l2.2-2.2c.1-.1.3-.2.4 0l1.6 1.4c.3-.2.7-.3 1.1-.4l.2-2.1c0-.2.2-.3.3-.3h3.2c.2 0 .3.2.3.3l.2 2.1c.4.1.7.2 1.1.4l1.6-1.4c.2-.1.3-.1.4 0l2.2 2.2c.1.1.2.3 0 .4l-1.4 1.6c.2.3.3.7.4 1.1l2.1.2c.2 0 .3.2.3.3v3.1c0 .2-.2.3-.3.3l-2.1.2c-.1.3-.2.7-.4 1.1l1.4 1.6c.1.2.1.3 0 .4l-2.2 2.2c-.1.1-.3.2-.4 0l-1.6-1.4c-.3.2-.7.3-1.1.4l-.2 2.1c0 .1-.2.3-.3.3zm-2.9-.7h2.5l.2-2c0-.2.1-.2.2-.3.5-.2.9-.3 1.4-.6.1-.1.2-.1.4 0l1.6 1.3 1.8-1.8-1.3-1.6c-.1-.1-.1-.2 0-.4.2-.4.4-.9.6-1.3 0-.2.2-.2.3-.2l2-.2v-2.5l-2-.2c-.2 0-.2-.1-.3-.2-.2-.5-.3-.9-.6-1.3-.1-.1-.1-.2 0-.4l1.3-1.6-1.8-1.8-1.6 1.3c-.1.1-.2.1-.4 0-.4-.2-.9-.4-1.4-.6-.2 0-.2-.2-.2-.3l-.2-2h-2.5l-.2 2c0 .2-.1.2-.2.3-.5.2-.9.3-1.4.6-.1.1-.2.1-.4 0l-1.6-1.3-1.8 1.8 1.3 1.6c.1.1.1.2 0 .4-.2.4-.4.9-.6 1.3 0 .2-.2.2-.3.2l-2 .2v2.5l2 .2c.2 0 .2.1.3.2.2.5.3.9.6 1.3.1.1.1.2 0 .4l-1.3 1.6 1.8 1.8 1.6-1.3c.1-.1.2-.1.4 0 .4.2.9.4 1.4.6.2 0 .2.2.2.3l.2 2zm10-6.7zm-8.7 2.4c-2.2 0-4-1.8-4-4s1.8-4 4-4 4 1.8 4 4-1.8 4-4 4zm0-7.3c-1.9 0-3.4 1.5-3.4 3.4s1.5 3.4 3.4 3.4 3.4-1.5 3.4-3.4-1.6-3.4-3.4-3.4zM328.5 143.1h-31.8c-2.3 0-4.1-1.8-4.1-4.1 0-2.1 1.6-3.8 3.8-4.1.5-3.4 3.5-6 7-6 .3 0 .7 0 1 .1.5-4.3 4.2-7.7 8.6-7.7 3 0 5.8 1.6 7.4 4.2.7-.2 1.4-.2 2.1-.2 4.9 0 9 4 9 8.9 0 .6-.1 1.2-.2 1.8.9.7 1.4 1.9 1.4 3-.1 2.3-2 4.1-4.2 4.1zm-25.2-13.5c-3.3 0-6.1 2.5-6.4 5.6 0 .2-.2.3-.3.3-1.9 0-3.4 1.6-3.4 3.4s1.6 3.4 3.4 3.4h31.8c1.9 0 3.4-1.6 3.4-3.4 0-1.1-.5-2-1.2-2.6-.1-.1-.2-.2-.1-.3.2-.6.2-1.2.2-1.9 0-4.6-3.8-8.3-8.4-8.3-.7 0-1.5.1-2.2.2-.2 0-.3 0-.4-.2-1.4-2.5-4.1-4-7-4-4.2 0-7.7 3.3-7.9 7.4 0 .1-.1.2-.2.2-.1.1-.2.1-.2.1-.3.1-.7.1-1.1.1z"/><path class="st2" d="M313.4 148.9c-.2 0-.3-.2-.3-.3v-8.7c0-.2.2-.3.3-.3s.3.2.3.3v8.7c0 .1-.1.3-.3.3zM313.4 138.5c-.2 0-.3-.2-.3-.3v-3.5c0-.2.2-.3.3-.3s.3.2.3.3v3.4c0 .2-.1.4-.3.4zM313.4 133.6c-.2 0-.3-.2-.3-.3v-1.9c0-.2.2-.3.3-.3s.3.2.3.3v1.9c0 .2-.1.3-.3.3z"/><path class="st2" d="M313.4 149.8c-.1 0-.2-.1-.2-.1l-1.6-2c-.1-.2-.1-.3.1-.5.2-.1.3-.1.5.1l1.4 1.7 1.4-1.7c.1-.2.3-.2.5-.1s.2.3.1.5l-1.6 2c-.4.1-.5.1-.6.1zM231.8 244.7H200c-2.3 0-4.1-1.8-4.1-4.1 0-2.1 1.6-3.8 3.8-4.1.5-3.4 3.5-6 7-6 .3 0 .7 0 1 .1.5-4.3 4.2-7.7 8.6-7.7 3 0 5.8 1.6 7.4 4.2.7-.2 1.4-.2 2.1-.2 4.9 0 9 4 9 8.9 0 .6-.1 1.2-.2 1.8.9.7 1.4 1.9 1.4 3-.1 2.3-1.9 4.1-4.2 4.1zm-25.1-13.5c-3.3 0-6.1 2.5-6.4 5.6 0 .2-.2.3-.3.3-1.9 0-3.4 1.6-3.4 3.4s1.6 3.4 3.4 3.4h31.8c1.9 0 3.4-1.6 3.4-3.4 0-1.1-.5-2-1.2-2.6-.1-.1-.2-.2-.1-.3.2-.6.2-1.2.2-1.9 0-4.6-3.8-8.3-8.4-8.3-.7 0-1.5.1-2.2.2-.2 0-.3 0-.4-.2-1.4-2.5-4.1-4-7-4-4.2 0-7.7 3.3-7.9 7.4 0 .1-.1.2-.2.2-.1.1-.2.1-.2.1-.3.1-.8.1-1.1.1z"/><path class="st2" d="M216.7 243c-.2 0-.3-.2-.3-.3V234c0-.2.2-.3.3-.3s.3.2.3.3v8.7c0 .2-.1.3-.3.3zM216.7 248.3c-.2 0-.3-.2-.3-.3v-3.4c0-.2.2-.3.3-.3s.3.2.3.3v3.4c0 .1-.1.3-.3.3zM216.7 251.5c-.2 0-.3-.2-.3-.3v-1.9c0-.2.2-.3.3-.3s.3.2.3.3v1.9c0 .1-.1.3-.3.3z"/><path class="st2" d="M215.1 235.4c-.1 0-.2 0-.2-.1-.2-.1-.2-.3-.1-.5l1.6-2c.1-.1.2-.1.2-.1.1 0 .2.1.2.1l1.6 2c.1.2.1.3-.1.5-.2.1-.3.1-.5-.1l-1.4-1.7-1.4 1.7c.2.1.1.2.1.2z"/><path class="st3" d="M274.8 134.5H165.3v-3.3c0-1.9 1.6-3.4 3.4-3.4h102.6c1.9 0 3.4 1.6 3.4 3.4l.1 3.3z"/><path class="st2" d="M274.8 134.8H165.3c-.2 0-.3-.2-.3-.3v-3.9c0-1.7 1.4-3.1 3.1-3.1h104c1.7 0 3.1 1.4 3.1 3.1v3.9c0 .2-.2.3-.4.3zm-109.2-.7h108.9v-3.6c0-1.4-1.1-2.5-2.5-2.5H168c-1.4 0-2.5 1.1-2.5 2.5v3.6z"/><path class="st4" d="M170.1 135.8h110.7V213H170.1z"/><path class="st2" d="M280.8 213.2H170.1c-.2 0-.3-.2-.3-.3v-77.2c0-.2.2-.3.3-.3h110.7c.2 0 .3.2.3.3v77.2c0 .2-.1.3-.3.3zm-110.4-.6h110V136h-110v76.6z"/><path class="st4" d="M282.5 131.1c0 .9-.7 1.7-1.7 1.7s-1.7-.7-1.7-1.7c0-.9.7-1.7 1.7-1.7s1.7.8 1.7 1.7z"/><path class="st2" d="M280.8 133.1c-1.1 0-2-.9-2-2s.9-2 2-2 2 .9 2 2c.1 1.1-.9 2-2 2zm0-3.3c-.7 0-1.4.6-1.4 1.3 0 .7.6 1.3 1.4 1.3.8 0 1.4-.6 1.4-1.3 0-.7-.7-1.3-1.4-1.3z"/><path class="st4" d="M276.6 131.1c0 .9-.7 1.7-1.7 1.7-.9 0-1.7-.7-1.7-1.7 0-.9.7-1.7 1.7-1.7.8.1 1.7.8 1.7 1.7z"/><path class="st2" d="M274.8 133.1c-1.1 0-2-.9-2-2s.9-2 2-2 2 .9 2 2c.1 1.1-.8 2-2 2zm0-3.3c-.7 0-1.4.6-1.4 1.3 0 .7.6 1.3 1.4 1.3.8 0 1.4-.6 1.4-1.3 0-.7-.6-1.3-1.4-1.3z"/><path class="st4" d="M270.6 131.1c0 .9-.7 1.7-1.7 1.7-.9 0-1.7-.7-1.7-1.7 0-.9.7-1.7 1.7-1.7.9.1 1.7.8 1.7 1.7z"/><path class="st2" d="M268.9 133.1c-1.1 0-2-.9-2-2s.9-2 2-2 2 .9 2 2-.9 2-2 2zm0-3.3c-.7 0-1.4.6-1.4 1.3 0 .7.6 1.3 1.4 1.3.8 0 1.4-.6 1.4-1.3-.1-.7-.7-1.3-1.4-1.3zM277.5 139.7H273c-.3 0-.7-.3-.7-.7s.3-.7.7-.7h4.4c.3 0 .7.3.7.7 0 .5-.3.7-.6.7zM277.5 141.5H273c-.3 0-.7-.3-.7-.7 0-.3.3-.7.7-.7h4.4c.3 0 .7.3.7.7 0 .4-.3.7-.6.7zM277.5 143.2H273c-.3 0-.7-.3-.7-.7 0-.3.3-.7.7-.7h4.4c.3 0 .7.3.7.7 0 .5-.3.7-.6.7zM210.9 185.2h-33.2c-.3 0-.7-.3-.7-.7s.3-.7.7-.7h33.2c.3 0 .7.3.7.7 0 .5-.3.7-.7.7zM210.9 187.8h-33.2c-.3 0-.7-.3-.7-.7s.3-.7.7-.7h33.2c.3 0 .7.3.7.7s-.3.7-.7.7zM203.9 190.5h-26.1c-.3 0-.7-.3-.7-.7s.3-.7.7-.7h26.1c.3 0 .7.3.7.7 0 .4-.3.7-.7.7zM248.1 137.2c-.2 0-.3-.2-.3-.3v-.3c0-.2.2-.3.3-.3s.3.2.3.3v.3c.1.3-.1.3-.3.3zM248.1 209.6c-.2 0-.3-.2-.3-.3v-.7c0-.2.2-.3.3-.3s.3.2.3.3v.7c.1.2-.1.3-.3.3zm0-2.6c-.2 0-.3-.2-.3-.3v-.7c0-.2.2-.3.3-.3s.3.2.3.3v.7c.1.1-.1.3-.3.3zm0-2.7c-.2 0-.3-.2-.3-.3v-.7c0-.2.2-.3.3-.3s.3.2.3.3v.7c.1.1-.1.3-.3.3zm0-2.7c-.2 0-.3-.2-.3-.3v-.7c0-.2.2-.3.3-.3s.3.2.3.3v.7c.1.1-.1.3-.3.3zm0-2.7c-.2 0-.3-.2-.3-.3v-.7c0-.2.2-.3.3-.3s.3.2.3.3v.7c.1.2-.1.3-.3.3zm0-2.6c-.2 0-.3-.2-.3-.3v-.7c0-.2.2-.3.3-.3s.3.2.3.3v.7c.1.1-.1.3-.3.3zm0-2.7c-.2 0-.3-.2-.3-.3v-.7c0-.2.2-.3.3-.3s.3.2.3.3v.7c.1.1-.1.3-.3.3zm0-2.7c-.2 0-.3-.2-.3-.3v-.7c0-.2.2-.3.3-.3s.3.2.3.3v.7c.1.1-.1.3-.3.3zm0-2.7c-.2 0-.3-.2-.3-.3v-.7c0-.2.2-.3.3-.3s.3.2.3.3v.7c.1.2-.1.3-.3.3zm0-2.7c-.2 0-.3-.2-.3-.3v-.7c0-.2.2-.3.3-.3s.3.2.3.3v.7c.1.2-.1.3-.3.3zm0-2.7c-.2 0-.3-.2-.3-.3v-.7c0-.2.2-.3.3-.3s.3.2.3.3v.7c.1.2-.1.3-.3.3zm0-2.7c-.2 0-.3-.2-.3-.3v-.7c0-.2.2-.3.3-.3s.3.2.3.3v.7c.1.2-.1.3-.3.3zm0-2.7c-.2 0-.3-.2-.3-.3v-.7c0-.2.2-.3.3-.3s.3.2.3.3v.7c.1.3-.1.3-.3.3zm0-2.6c-.2 0-.3-.2-.3-.3v-.7c0-.2.2-.3.3-.3s.3.2.3.3v.7c.1.2-.1.3-.3.3zm0-2.7c-.2 0-.3-.2-.3-.3v-.7c0-.2.2-.3.3-.3s.3.2.3.3v.7c.1.2-.1.3-.3.3zm0-2.7c-.2 0-.3-.2-.3-.3v-.7c0-.2.2-.3.3-.3s.3.2.3.3v.7c.1.2-.1.3-.3.3zm0-2.7c-.2 0-.3-.2-.3-.3v-.7c0-.2.2-.3.3-.3s.3.2.3.3v.7c.1.2-.1.3-.3.3zm0-2.6c-.2 0-.3-.2-.3-.3v-.7c0-.2.2-.3.3-.3s.3.2.3.3v.7c.1.1-.1.3-.3.3zm0-2.7c-.2 0-.3-.2-.3-.3v-.7c0-.2.2-.3.3-.3s.3.2.3.3v.7c.1.1-.1.3-.3.3zm0-2.7c-.2 0-.3-.2-.3-.3v-.7c0-.2.2-.3.3-.3s.3.2.3.3v.7c.1.1-.1.3-.3.3zm0-2.6c-.2 0-.3-.2-.3-.3v-.7c0-.2.2-.3.3-.3s.3.2.3.3v.7c.1.1-.1.3-.3.3zm0-2.7c-.2 0-.3-.2-.3-.3v-.7c0-.2.2-.3.3-.3s.3.2.3.3v.7c.1.1-.1.3-.3.3zm0-2.7c-.2 0-.3-.2-.3-.3v-.7c0-.2.2-.3.3-.3s.3.2.3.3v.7c.1.1-.1.3-.3.3zm0-2.7c-.2 0-.3-.2-.3-.3v-.7c0-.2.2-.3.3-.3s.3.2.3.3v.7c.1.1-.1.3-.3.3zm0-2.7c-.2 0-.3-.2-.3-.3v-.7c0-.2.2-.3.3-.3s.3.2.3.3v.7c.1.2-.1.3-.3.3zm0-2.7c-.2 0-.3-.2-.3-.3v-.7c0-.2.2-.3.3-.3s.3.2.3.3v.7c.1.2-.1.3-.3.3zm0-2.7c-.2 0-.3-.2-.3-.3v-.6c0-.2.2-.3.3-.3s.3.2.3.3v.7c.1.1-.1.2-.3.2zM248.1 212c-.2 0-.3-.2-.3-.3v-.3c0-.2.2-.3.3-.3s.3.2.3.3v.3c.1.1-.1.3-.3.3zM171.8 195.9h-.3c-.2 0-.3-.2-.3-.3s.2-.3.3-.3h.3c.2 0 .3.2.3.3s-.2.3-.3.3z"/><path class="st2" d="M276.8 195.9h-.7c-.2 0-.3-.2-.3-.3s.2-.3.3-.3h.7c.2 0 .3.2.3.3s-.1.3-.3.3zm-2.6 0h-.7c-.2 0-.3-.2-.3-.3s.2-.3.3-.3h.7c.2 0 .3.2.3.3s-.2.3-.3.3zm-2.6 0h-.7c-.2 0-.3-.2-.3-.3s.2-.3.3-.3h.7c.2 0 .3.2.3.3s-.2.3-.3.3zm-2.7 0h-.7c-.2 0-.3-.2-.3-.3s.2-.3.3-.3h.7c.2 0 .3.2.3.3.1.2-.1.3-.3.3zm-2.6 0h-.7c-.2 0-.3-.2-.3-.3s.2-.3.3-.3h.7c.2 0 .3.2.3.3s-.1.3-.3.3zm-2.6 0h-.7c-.2 0-.3-.2-.3-.3s.2-.3.3-.3h.7c.2 0 .3.2.3.3s-.1.3-.3.3zm-2.6 0h-.7c-.2 0-.3-.2-.3-.3s.2-.3.3-.3h.7c.2 0 .3.2.3.3s-.2.3-.3.3zm-2.7 0h-.7c-.2 0-.3-.2-.3-.3s.2-.3.3-.3h.7c.2 0 .3.2.3.3.1.2-.1.3-.3.3zm-2.6 0h-.7c-.2 0-.3-.2-.3-.3s.2-.3.3-.3h.7c.2 0 .3.2.3.3s-.1.3-.3.3zm-2.7 0h-.7c-.2 0-.3-.2-.3-.3s.2-.3.3-.3h.7c.2 0 .3.2.3.3s0 .3-.3.3zm-2.6 0h-.7c-.2 0-.3-.2-.3-.3s.2-.3.3-.3h.7c.2 0 .3.2.3.3s-.1.3-.3.3zm-2.6 0h-.7c-.2 0-.3-.2-.3-.3s.2-.3.3-.3h.7c.2 0 .3.2.3.3s-.1.3-.3.3zm-2.6 0h-.7c-.2 0-.3-.2-.3-.3s.2-.3.3-.3h.7c.2 0 .3.2.3.3 0 .2-.2.3-.3.3zm-2.6 0h-.7c-.2 0-.3-.2-.3-.3s.2-.3.3-.3h.7c.2 0 .3.2.3.3 0 .2-.2.3-.3.3zm-2.7 0h-.7c-.2 0-.3-.2-.3-.3s.2-.3.3-.3h.7c.2 0 .3.2.3.3s-.1.3-.3.3zm-2.6 0h-.7c-.2 0-.3-.2-.3-.3s.2-.3.3-.3h.7c.2 0 .3.2.3.3s-.1.3-.3.3zm-2.6 0h-.7c-.2 0-.3-.2-.3-.3s.2-.3.3-.3h.7c.2 0 .3.2.3.3s-.1.3-.3.3zm-2.6 0h-.7c-.2 0-.3-.2-.3-.3s.2-.3.3-.3h.7c.2 0 .3.2.3.3s-.2.3-.3.3zm-2.6 0h-.7c-.2 0-.3-.2-.3-.3s.2-.3.3-.3h.7c.2 0 .3.2.3.3 0 .2-.2.3-.3.3zm-2.7 0h-.7c-.2 0-.3-.2-.3-.3s.2-.3.3-.3h.7c.2 0 .3.2.3.3s-.1.3-.3.3zm-2.7 0h-.7c-.2 0-.3-.2-.3-.3s.2-.3.3-.3h.7c.2 0 .3.2.3.3.1.2 0 .3-.3.3zm-2.6 0h-.6c-.2 0-.3-.2-.3-.3s.2-.3.3-.3h.7c.2 0 .3.2.3.3s-.1.3-.4.3zm-2.6 0h-.7c-.2 0-.3-.2-.3-.3s.2-.3.3-.3h.7c.2 0 .3.2.3.3s-.1.3-.3.3zm-2.6 0h-.7c-.2 0-.3-.2-.3-.3s.2-.3.3-.3h.7c.2 0 .3.2.3.3s-.2.3-.3.3zm-2.6 0h-.7c-.2 0-.3-.2-.3-.3s.2-.3.3-.3h.7c.2 0 .3.2.3.3 0 .2-.2.3-.3.3zm-2.7 0h-.7c-.2 0-.3-.2-.3-.3s.2-.3.3-.3h.7c.2 0 .3.2.3.3.1.2-.1.3-.3.3zm-2.6 0h-.7c-.2 0-.3-.2-.3-.3s.2-.3.3-.3h.7c.2 0 .3.2.3.3s-.1.3-.3.3zm-2.6 0h-.7c-.2 0-.3-.2-.3-.3s.2-.3.3-.3h.7c.2 0 .3.2.3.3s-.1.3-.3.3zm-2.6 0h-.7c-.2 0-.3-.2-.3-.3s.2-.3.3-.3h.7c.2 0 .3.2.3.3s-.2.3-.3.3zm-2.6 0h-.7c-.2 0-.3-.2-.3-.3s.2-.3.3-.3h.7c.2 0 .3.2.3.3 0 .2-.2.3-.3.3zm-2.7 0h-.7c-.2 0-.3-.2-.3-.3s.2-.3.3-.3h.7c.2 0 .3.2.3.3.1.2-.1.3-.3.3zm-2.6 0h-.7c-.2 0-.3-.2-.3-.3s.2-.3.3-.3h.7c.2 0 .3.2.3.3s-.1.3-.3.3zm-2.6 0h-.7c-.2 0-.3-.2-.3-.3s.2-.3.3-.3h.7c.2 0 .3.2.3.3s-.1.3-.3.3zm-2.7 0h-.7c-.2 0-.3-.2-.3-.3s.2-.3.3-.3h.7c.2 0 .3.2.3.3.1.2-.1.3-.3.3zm-2.6 0h-.7c-.2 0-.3-.2-.3-.3s.2-.3.3-.3h.7c.2 0 .3.2.3.3s-.1.3-.3.3zm-2.6 0h-.7c-.2 0-.3-.2-.3-.3s.2-.3.3-.3h.7c.2 0 .3.2.3.3s-.1.3-.3.3zm-2.7 0h-.7c-.2 0-.3-.2-.3-.3s.2-.3.3-.3h.7c.2 0 .3.2.3.3.1.2-.1.3-.3.3zm-2.6 0h-.6c-.2 0-.3-.2-.3-.3s.2-.3.3-.3h.7c.2 0 .3.2.3.3s-.2.3-.4.3zm-2.6 0h-.7c-.2 0-.3-.2-.3-.3s.2-.3.3-.3h.7c.2 0 .3.2.3.3s-.1.3-.3.3zm-2.6 0h-.7c-.2 0-.3-.2-.3-.3s.2-.3.3-.3h.7c.2 0 .3.2.3.3s-.2.3-.3.3zM279.1 195.9h-.3c-.2 0-.3-.2-.3-.3s.2-.3.3-.3h.3c.2 0 .3.2.3.3s-.1.3-.3.3z"/><path class="st4" d="M247.4 194.9h1.5v1.5h-1.5z"/><path class="st2" d="M248.8 196.7h-1.5c-.2 0-.3-.2-.3-.3v-1.5c0-.2.2-.3.3-.3h1.5c.2 0 .3.2.3.3v1.5c0 .1-.1.3-.3.3zm-1.1-.7h.8v-.8h-.8v.8z"/><path class="st3" d="M214.9 106.1h-20.8c-.5 0-.9.4-.9.9v9.6c0 .5.4.9.9.9h9.3l1.1 3.8 1.1-3.8h9.3c.5 0 .9-.4.9-.9V107c0-.5-.4-.9-.9-.9z"/><path class="st2" d="M204.5 121.6c-.2 0-.2-.1-.3-.2l-1-3.5h-9.1c-.7 0-1.2-.6-1.2-1.2V107c0-.7.6-1.2 1.2-1.2h20.8c.7 0 1.2.6 1.2 1.2v9.6c0 .7-.6 1.2-1.2 1.2h-9.1l-1 3.5c0 .2-.1.3-.3.3zm-10.4-15.1c-.3 0-.6.2-.6.6v9.6c0 .3.2.6.6.6h9.3c.2 0 .2.1.3.2l.7 2.6.7-2.6c0-.2.2-.2.3-.2h9.3c.3 0 .6-.2.6-.6V107c0-.3-.2-.6-.6-.6.2.1-20.6.1-20.6.1z"/><path class="st2" d="M212.4 109.5h-15.7c-.3 0-.7-.3-.7-.7 0-.3.3-.7.7-.7h15.7c.3 0 .7.3.7.7-.1.4-.4.7-.7.7zM212.4 111.5h-15.7c-.3 0-.7-.3-.7-.7 0-.3.3-.7.7-.7h15.7c.3 0 .7.3.7.7-.1.3-.4.7-.7.7zM212.4 113.4h-15.7c-.3 0-.7-.3-.7-.7 0-.3.3-.7.7-.7h15.7c.3 0 .7.3.7.7-.1.5-.4.7-.7.7zM208.5 115.5h-11.8c-.3 0-.7-.3-.7-.7 0-.3.3-.7.7-.7h11.8c.3 0 .7.3.7.7 0 .3-.4.7-.7.7zM183.8 207.8h22.6v14.1h-22.6z"/><path class="st2" d="M206.5 222.2h-22.6c-.2 0-.3-.2-.3-.3v-14.1c0-.2.2-.3.3-.3h22.6c.2 0 .3.2.3.3v14.1c0 .2-.2.3-.3.3zm-22.4-.7H206v-13.3h-21.9v13.3z"/><path class="st3" d="M183.8 207.8h22.6v2.1h-22.6z"/><path class="st2" d="M206.5 210.3h-22.6c-.2 0-.3-.2-.3-.3v-2.1c0-.2.2-.3.3-.3h22.6c.2 0 .3.2.3.3v2.1c0 .1-.2.3-.3.3zm-22.4-.7H206v-1.5h-21.9v1.5z"/><path class="st4" d="M191.9 212.1h-5.8c-.2 0-.3-.2-.3-.3s.2-.3.3-.3h5.8c.2 0 .3.2.3.3s-.1.3-.3.3zM199 213.7h-10c-.2 0-.3-.2-.3-.3 0-.2.2-.3.3-.3h10c.2 0 .3.2.3.3 0 .1-.1.3-.3.3zM190.7 215.2h-2.9c-.2 0-.3-.2-.3-.3s.2-.3.3-.3h2.9c.2 0 .3.2.3.3 0 .1-.2.3-.3.3zM195.7 216.9H189c-.2 0-.3-.2-.3-.3s.2-.3.3-.3h6.7c.2 0 .3.2.3.3s-.1.3-.3.3zM191.9 218.5h-5.8c-.2 0-.3-.2-.3-.3s.2-.3.3-.3h5.8c.2 0 .3.2.3.3 0 .2-.1.3-.3.3z"/><path class="st2" d="M242.3 182.1h-19.4c-.2 0-.3-.2-.3-.3s.2-.3.3-.3h19.4c.2 0 .3.2.3.3s-.1.3-.3.3z"/><path class="st2" d="M242.7 191c-.2 0-.3-.2-.3-.3 0-.3-.2-8.6-9.7-8.6-9.7 0-9.7 8.3-9.7 8.6 0 .2-.2.3-.3.3-.2 0-.3-.2-.3-.3 0-.1.1-9.3 10.4-9.3s10.4 9.2 10.4 9.3c-.2.2-.3.3-.5.3z"/><circle class="st3" cx="242.7" cy="190.7" r=".8"/><path class="st2" d="M242.7 191.8c-.7 0-1.1-.5-1.1-1.1 0-.7.5-1.1 1.1-1.1s1.1.5 1.1 1.1c0 .7-.5 1.1-1.1 1.1zm0-1.7c-.2 0-.5.2-.5.5 0 .2.2.5.5.5.2 0 .5-.2.5-.5-.1-.2-.2-.5-.5-.5z"/><path class="st3" d="M221.7 190.7c0-.5.4-.8.8-.8.5 0 .8.4.8.8s-.4.8-.8.8c-.5 0-.8-.4-.8-.8z"/><path class="st2" d="M222.5 191.8c-.7 0-1.1-.5-1.1-1.1 0-.7.5-1.1 1.1-1.1.7 0 1.1.5 1.1 1.1.1.7-.4 1.1-1.1 1.1zm0-1.7c-.2 0-.5.2-.5.5 0 .2.2.5.5.5s.5-.2.5-.5c0-.2-.2-.5-.5-.5z"/><path class="st3" d="M242 181h1.5v1.5H242z"/><path class="st2" d="M243.4 182.8h-1.5c-.2 0-.3-.2-.3-.3V181c0-.2.2-.3.3-.3h1.5c.2 0 .3.2.3.3v1.5c0 .2-.1.3-.3.3zm-1.2-.7h.8v-.8h-.8v.8z"/><path class="st3" d="M231.9 181h1.5v1.5h-1.5z"/><path class="st2" d="M233.3 182.8h-1.5c-.2 0-.3-.2-.3-.3V181c0-.2.2-.3.3-.3h1.5c.2 0 .3.2.3.3v1.5c.1.2 0 .3-.3.3zm-1.1-.7h.8v-.8h-.8v.8z"/><path class="st3" d="M221.8 181h1.5v1.5h-1.5z"/><path class="st2" d="M223.3 182.8h-1.5c-.2 0-.3-.2-.3-.3V181c0-.2.2-.3.3-.3h1.5c.2 0 .3.2.3.3v1.5c0 .2-.2.3-.3.3zm-1.2-.7h.8v-.8h-.8v.8z"/><path class="st3" d="M189.9 154.9V152l-2.2-.2c-.2-.5-.3-.9-.6-1.3l1.5-1.7-2.1-2.1-1.7 1.4c-.4-.2-.9-.4-1.3-.6l-.2-2.2h-2.9l-.2 2.2c-.5.2-.9.3-1.3.6l-1.7-1.4-2.1 2.1 1.5 1.7c-.2.4-.4.8-.6 1.3l-2.2.2v2.9l2.2.2c.2.5.3.9.6 1.3l-1.5 1.7 2.1 2.1 1.7-1.4c.4.2.9.4 1.3.6l.2 2.2h2.9l.2-2.2c.5-.2.9-.3 1.3-.6l1.7 1.4 2.1-2.1-1.5-1.7c.2-.4.4-.8.6-1.3l2.2-.2zm-8.2 2c-1.9 0-3.4-1.6-3.4-3.4s1.6-3.4 3.4-3.4 3.4 1.6 3.4 3.4-1.6 3.4-3.4 3.4z"/><path class="st2" d="M183.1 161.9h-2.9c-.2 0-.3-.2-.3-.3l-.2-2c-.3-.1-.7-.2-1-.4l-1.6 1.3c-.2.1-.3.1-.4 0l-2.1-2.1c-.1-.1-.2-.3 0-.4l1.3-1.6c-.2-.3-.3-.7-.4-1l-2-.2c-.2 0-.3-.2-.3-.3V152c0-.2.2-.3.3-.3l2-.2c.1-.3.2-.7.4-1l-1.3-1.6c-.1-.2-.1-.3 0-.4l2.1-2.1c.1-.1.3-.2.4 0l1.6 1.3c.3-.2.7-.3 1-.4l.2-2c0-.2.2-.3.3-.3h2.9c.2 0 .3.2.3.3l.2 2c.3.1.7.2 1 .4l1.6-1.3c.2-.1.3-.1.4 0l2.1 2.1c.1.1.2.3 0 .4l-1.3 1.6c.2.3.3.7.4 1l2 .2c.2 0 .3.2.3.3v2.9c0 .2-.2.3-.3.3l-2 .2c-.1.3-.2.7-.4 1l1.3 1.6c.1.2.1.3 0 .4l-2.1 2.1c-.1.1-.3.2-.4 0l-1.6-1.3c-.3.2-.7.3-1 .4l-.2 2c.1.1-.1.3-.3.3zm-2.7-.7h2.4l.2-1.9c0-.2.1-.2.2-.3.4-.2.9-.3 1.2-.5.1-.1.2-.1.4 0l1.5 1.2 1.6-1.6-1.2-1.5c-.1-.1-.1-.2 0-.4.2-.4.4-.8.5-1.2 0-.2.2-.2.3-.2l2-.2v-2.4l-2-.2c-.2 0-.2-.1-.3-.2-.2-.4-.3-.9-.5-1.2-.1-.1-.1-.2 0-.4l1.2-1.5-1.6-1.6-1.5 1.2c-.1.1-.2.1-.4 0-.4-.2-.8-.4-1.2-.5-.2 0-.2-.2-.2-.3l-.2-1.9h-2.4l-.2 1.9c0 .2-.1.2-.2.3-.4.2-.9.3-1.2.5-.1.1-.2.1-.4 0l-1.5-1.2-1.6 1.6 1.2 1.5c.1.1.1.2 0 .4-.2.4-.4.8-.5 1.2 0 .2-.2.2-.3.2l-2 .2v2.4l2 .2c.2 0 .2.1.3.2.2.4.3.9.5 1.2.1.1.1.2 0 .4l-1.2 1.5 1.6 1.6 1.5-1.2c.1-.1.2-.1.4 0 .4.2.8.4 1.2.5.2 0 .2.2.2.3l.2 1.9zm9.5-6.3zm-8.2 2.3c-2.1 0-3.8-1.7-3.8-3.8s1.7-3.8 3.8-3.8c2.1 0 3.8 1.7 3.8 3.8s-1.8 3.8-3.8 3.8zm0-6.9c-1.7 0-3.1 1.4-3.1 3.1s1.4 3.1 3.1 3.1 3.1-1.4 3.1-3.1-1.4-3.1-3.1-3.1z"/><path class="st3" d="M199.9 161.6v-2l-1.6-.2c-.1-.3-.2-.7-.4-.9l1-1.1-1.5-1.4-1.1 1c-.2-.2-.6-.2-.9-.4l-.2-1.5h-2l-.2 1.5c-.3.1-.7.2-.9.4l-1.1-1-1.5 1.4 1 1.1c-.2.2-.3.6-.4.9l-1.6.2v2l1.6.2c.1.3.2.7.4.9l-1 1.1 1.5 1.4 1.1-1c.2.2.6.2.9.4l.2 1.5h2l.2-1.5c.3-.1.7-.2.9-.4l1.1 1 1.5-1.4-1-1.1c.2-.2.3-.6.4-.9l1.6-.2zm-5.5 1.3c-1.3 0-2.4-1.1-2.4-2.4 0-1.3 1.1-2.4 2.4-2.4s2.4 1.1 2.4 2.4c-.1 1.3-1.1 2.4-2.4 2.4z"/><path class="st2" d="M195.3 166.4h-2c-.2 0-.3-.2-.3-.3l-.1-1.3c-.2-.1-.4-.2-.6-.2l-1 .8c-.2.1-.3.1-.4 0l-1.5-1.4c-.1-.1-.2-.3 0-.4l.8-1c-.1-.2-.2-.3-.2-.6l-1.3-.1c-.2 0-.3-.2-.3-.3v-2c0-.2.2-.3.3-.3l1.3-.1c.1-.2.2-.4.2-.6l-.8-1c-.1-.2-.1-.3 0-.4l1.5-1.4c.1-.1.3-.2.4 0l1 .8c.2-.1.4-.2.6-.2l.1-1.3c0-.2.2-.3.3-.3h2c.2 0 .3.2.3.3l.1 1.3c.2.1.4.2.6.2l1-.8c.2-.1.3-.1.4 0l1.5 1.4c.1.1.2.3 0 .4l-.8 1c.1.2.2.3.2.6l1.3.1c.2 0 .3.2.3.3v2c0 .2-.2.3-.3.3l-1.3.1c-.1.2-.2.4-.2.6l.8 1c.1.2.1.3 0 .4l-1.5 1.4c-.1.1-.3.2-.4 0l-1-.8c-.2.1-.4.2-.6.2l-.1 1.3c.1.1-.1.3-.3.3zm-1.7-.7h1.5l.1-1.2c0-.2.1-.2.2-.3.3-.1.6-.2.8-.3.1-.1.2-.1.4 0l1 .8 1-1-.8-.9c-.1-.1-.1-.2 0-.4.2-.2.2-.6.3-.8 0-.2.2-.2.3-.2l1.2-.1v-1.4l-1.2-.1c-.2 0-.2-.1-.3-.2-.1-.3-.2-.6-.3-.8-.1-.1-.1-.2 0-.4l.8-.9-1-1-1 .8c-.1.1-.2.1-.4 0-.2-.2-.6-.2-.8-.3-.2 0-.2-.2-.2-.3l-.1-1.2h-1.5l-.1 1.2c0 .2-.1.2-.2.3-.3.1-.6.2-.8.3-.1.1-.2.1-.4 0l-1-.8-1 1 .8.9c.1.1.1.2 0 .4-.2.2-.2.6-.3.8 0 .2-.2.2-.3.2l-1.2.1v1.4l1.2.1c.2 0 .2.1.3.2.1.3.2.6.3.8.1.1.1.2 0 .4l-.8.9 1 1 1-.8c.1-.1.2-.1.4 0 .2.2.6.2.8.3.2 0 .2.2.2.3l.1 1.2zm6.3-4.1zm-5.5 1.6c-1.5 0-2.7-1.2-2.7-2.7s1.2-2.7 2.7-2.7c1.5 0 2.7 1.2 2.7 2.7s-1.3 2.7-2.7 2.7zm0-4.7c-1.1 0-2 .9-2 2s.9 2 2 2 2-.9 2-2-.9-2-2-2zM268.6 201.2h-16.3c-.3 0-.7-.3-.7-.7s.3-.7.7-.7h16.3c.3 0 .7.3.7.7s-.4.7-.7.7zM268.6 203.8h-16.3c-.3 0-.7-.3-.7-.7s.3-.7.7-.7h16.3c.3 0 .7.3.7.7 0 .4-.4.7-.7.7zM261.6 206.4h-9.3c-.3 0-.7-.3-.7-.7 0-.3.3-.7.7-.7h9.3c.3 0 .7.3.7.7-.1.4-.3.7-.7.7z"/><path class="st3" d="M230.8 206.8h-8.6c-1.1 0-2.1-.9-2.1-2.1 0-1.1 1-2.1 2.1-2.1h8.6c1.1 0 2.1.9 2.1 2.1 0 1.2-1 2.1-2.1 2.1z"/><path class="st2" d="M230.8 207.2h-8.6c-1.3 0-2.5-1.1-2.5-2.5 0-1.3 1.1-2.5 2.5-2.5h8.6c1.3 0 2.5 1.1 2.5 2.5s-1.2 2.5-2.5 2.5zm-8.6-4.2c-1 0-1.8.8-1.8 1.8s.8 1.8 1.8 1.8h8.6c1 0 1.8-.8 1.8-1.8s-.8-1.8-1.8-1.8h-8.6z"/><path class="st3" d="M246.8 206.8h-8.6c-1.1 0-2.1-.9-2.1-2.1 0-1.1 1-2.1 2.1-2.1h8.6c1.1 0 2.1.9 2.1 2.1 0 1.2-.9 2.1-2.1 2.1z"/><path class="st2" d="M246.8 207.2h-8.6c-1.3 0-2.5-1.1-2.5-2.5 0-1.3 1.1-2.5 2.5-2.5h8.6c1.3 0 2.5 1.1 2.5 2.5s-1.2 2.5-2.5 2.5zm-8.6-4.2c-1 0-1.8.8-1.8 1.8s.8 1.8 1.8 1.8h8.6c1 0 1.8-.8 1.8-1.8s-.8-1.8-1.8-1.8h-8.6z"/><path class="st4" d="M253.5 162h18.3v18.1h-18.3z"/><path class="st2" d="M271.7 180.4h-18.3c-.2 0-.3-.2-.3-.3V162c0-.2.2-.3.3-.3h18.3c.2 0 .3.2.3.3v18.1c0 .2-.1.3-.3.3zm-17.9-.7h17.6v-17.4h-17.6v17.4z"/><path class="st5" d="m253.5 162 18.2 18.1"/><path class="st2" d="M271.7 180.4c-.1 0-.2 0-.2-.1l-18.3-18.1c-.2-.2-.2-.3 0-.5s.3-.2.5 0l18.3 18.1c.2.2.2.3 0 .5-.1.1-.2.1-.3.1z"/><path class="st5" d="m271.7 162-18.2 18.1"/><path class="st2" d="M253.5 180.4c-.1 0-.2 0-.2-.1-.2-.2-.2-.3 0-.5l18.3-18.1c.2-.2.3-.2.5 0s.2.3 0 .5l-18.3 18.1c-.2.1-.3.1-.3.1z"/><path class="st2" d="M268.9 151.3h22.6v14.1h-22.6z"/><path class="st2" d="M291.5 165.6h-22.6c-.2 0-.3-.2-.3-.3v-14.1c0-.2.2-.3.3-.3h22.6c.2 0 .3.2.3.3v14.1c0 .3-.2.3-.3.3zm-22.3-.6h21.9v-13.3h-21.9V165z"/><path class="st3" d="M268.9 151.3h22.6v2.1h-22.6z"/><path class="st2" d="M291.5 153.8h-22.6c-.2 0-.3-.2-.3-.3v-2.1c0-.2.2-.3.3-.3h22.6c.2 0 .3.2.3.3v2.1c0 .1-.2.3-.3.3zm-22.3-.7h21.9v-1.5h-21.9v1.5z"/><path class="st4" d="M277 155.6h-5.8c-.2 0-.3-.2-.3-.3s.2-.3.3-.3h5.8c.2 0 .3.2.3.3s-.2.3-.3.3zM284.1 157.2h-10c-.2 0-.3-.2-.3-.3s.2-.3.3-.3h10c.2 0 .3.2.3.3 0 .2-.2.3-.3.3zM275.7 158.7h-2.9c-.2 0-.3-.2-.3-.3s.2-.3.3-.3h2.9c.2 0 .3.2.3.3s-.1.3-.3.3zM280.8 160.4h-6.7c-.2 0-.3-.2-.3-.3s.2-.3.3-.3h6.7c.2 0 .3.2.3.3 0 .1-.1.3-.3.3zM277 162h-5.8c-.2 0-.3-.2-.3-.3s.2-.3.3-.3h5.8c.2 0 .3.2.3.3s-.2.3-.3.3zM260.6 141.6v4.2l-1.9 1.8h-4.3v-6z"/><path class="st2" d="M258.7 148h-4.3c-.2 0-.3-.2-.3-.3v-6.1c0-.2.2-.3.3-.3h6.1c.2 0 .3.2.3.3v4.2c0 .1 0 .2-.1.2l-1.9 1.9c.1 0 0 .1-.1.1zm-3.9-.7h3.8l1.7-1.6v-3.8h-5.5v5.4z"/><path class="st4" d="m260.6 145.8-1.9 1.8v-1.8z"/><path class="st2" d="M258.7 148h-.2c-.2-.1-.2-.2-.2-.3v-1.9c0-.2.2-.3.3-.3h1.9c.2 0 .2.1.3.2.1.2 0 .2-.1.3l-1.9 1.9c.1 0 0 .1-.1.1zm.3-1.9v.7l.7-.7h-.7z"/><path class="st4" d="M195.4 174.2v4.1l-1.9 1.9h-4.1v-6z"/><path class="st2" d="M193.5 180.6h-4.3c-.2 0-.3-.2-.3-.3v-6.1c0-.2.2-.3.3-.3h6.1c.2 0 .3.2.3.3v4.2c0 .1 0 .2-.1.2l-1.9 1.9c.2 0 .1.1-.1.1zm-3.8-.7h3.8l1.7-1.6v-3.8h-5.5v5.4z"/><path class="st4" d="m195.4 178.3-1.9 1.9v-1.9z"/><path class="st2" d="M193.5 180.6h-.2c-.2-.1-.2-.2-.2-.3v-1.9c0-.2.2-.3.3-.3h1.9c.2 0 .2.1.3.2.1.2 0 .2-.1.3l-1.9 2c.2-.1.1 0-.1 0zm.4-1.9v.7l.7-.7h-.7z"/><path class="st4" d="M172.3 200.1v4.2l-1.9 1.9h-4.2v-6.1z"/><path class="st2" d="M170.4 206.5h-4.3c-.2 0-.3-.2-.3-.3v-6.1c0-.2.2-.3.3-.3h6.1c.2 0 .3.2.3.3v4.2c0 .1 0 .2-.1.2l-1.9 1.9c.1 0 0 .1-.1.1zm-3.9-.7h3.8l1.7-1.6v-3.8h-5.5v5.4z"/><path class="st4" d="m172.3 204.3-1.9 1.9v-1.9z"/><path class="st2" d="M170.4 206.5h-.2c-.2-.1-.2-.2-.2-.3v-1.9c0-.2.2-.3.3-.3h1.9c.2 0 .2.1.3.2.1.2 0 .2-.1.3l-1.9 1.9c.1 0 0 .1-.1.1zm.4-1.9v.7l.7-.7h-.7z"/><path class="st4" d="M249 174.4c-2.2.2-5.1-2.5-5.1-2.5s-.4.4-.8-.1c-.3-.5-2-1.7-2-2.8-.1-1.1 1.8-2.7 1.8-2.7-1.4.4-1.6-.4-1.6-.4s2.4-2 3.3-2c.3 0 1.8.8 3.1 1.9 1.5 1.1 4.2 5.2 4.2 5.2s9.2 6.6 11.5 8.4c3.1 2.2 6.7 6.2 6.7 6.2s12.2 5.5 15.6 8.4l-4.6 10.7s-11.1-7.4-12.2-9.3c-1.1-1.9-2.2-.7-3.4-2-1.1-1.2-2.2-2.6-2.2-2.6s-2.7-1.1-5.3-3.8c-2.6-2.6-4.9-6.7-6.3-9.1-1.3-2.3-2.7-3.5-2.7-3.5z"/><path class="st2" d="M281.1 205c-.1 0-.2 0-.2-.1-.5-.3-11.2-7.5-12.4-9.3-.6-.9-1.1-1-1.6-1.1-.5-.1-1.1-.2-1.6-.8-1-1.1-1.9-2.3-2.1-2.5-.5-.2-2.9-1.4-5.3-3.8-2.4-2.5-4.6-6.1-6-8.5l-.4-.7c-1.1-2-2.3-3.1-2.6-3.4-2 .1-4.3-1.8-5-2.4-.1.1-.2.1-.4.1s-.4-.1-.7-.4c-.1-.2-.3-.3-.5-.6-.7-.7-1.5-1.5-1.6-2.4-.1-.7.7-1.7 1.2-2.3-.2 0-.4-.1-.6-.2-.3-.2-.4-.6-.4-.7s0-.2.1-.3c.4-.3 2.5-2 3.4-2.1.5-.1 2.1 1 3.4 2 1.4 1.1 3.8 4.7 4.2 5.2.7.5 9.3 6.6 11.5 8.3 2.9 2.1 6.3 5.7 6.7 6.2 1.1.5 12.4 5.6 15.6 8.5.1.1.2.2.1.4l-4.6 10.7c.1.1 0 .1-.2.2.1 0 0 0 0 0zM249 174.1c.1 0 .2 0 .2.1.1.1 1.4 1.2 2.9 3.7l.4.7c1.4 2.4 3.5 6 5.9 8.4 2.5 2.5 5.2 3.8 5.2 3.8.1 0 .1.1.2.1 0 0 1.1 1.4 2.1 2.6.4.5.8.5 1.3.6.7.1 1.4.2 2.1 1.4.8 1.4 8.5 6.7 11.8 8.9l4.3-10.2c-3.5-2.9-15.2-8.2-15.3-8.3-.1 0-.1-.1-.1-.1s-3.7-4-6.6-6.1c-2.3-1.7-11.5-8.4-11.5-8.4l-.1-.1s-2.7-4-4.1-5.2c-1.5-1.1-2.7-1.8-2.9-1.8-.5 0-1.9 1-2.9 1.8l.1.1c.2.1.4.2 1 0 .2-.1.3 0 .4.2.1.2.1.3-.1.4-.7.6-1.7 1.8-1.6 2.5.1.7.8 1.4 1.4 2 .2.2.5.5.6.7 0 .1.1.1.2.1s.2-.1.2-.1c.2-.1.3-.1.5 0-.4-.2 2.3 2.3 4.4 2.2z"/><path class="st4" d="M249.7 172.9s-3.3-.8-3.6-2.9c-.1-.7-.7-1.6-.7-1.6s-3.1-.2-2.9-1.4l4.1-.3s2.3.7 3.6 3"/><path class="st2" d="M249.7 173.2c-.1 0-.1 0 0 0-.2-.1-3.6-.9-3.9-3.3-.1-.5-.4-1-.6-1.2-.6-.1-2.2-.2-2.9-1-.2-.2-.2-.5-.2-.8 0-.2.2-.2.3-.2l4.1-.3h.2c.1 0 2.4.8 3.8 3.1.1.2 0 .3-.1.5-.2.1-.3 0-.5-.1-1.1-2-3-2.7-3.4-2.9l-3.7.3c.4.5 1.7.7 2.5.7.1 0 .2.1.2.2 0 0 .7.9.7 1.6.2 1.9 3.4 2.7 3.4 2.7.2.1.2.2.2.4s.1.3-.1.3z"/><path class="st2" d="M244 172.3c-.1 0-.2 0-.2-.1-.2-.1-.2-.3-.1-.5 0 0 .2-.2.1-.7 0-.2.1-.3.2-.3s.6-.2.6-.6c0-.1 0-.2.1-.2.1-.1.2-.1.2-.2 0 0 .3-.1.4-.2.1-.2 0-.6-.2-1-.1-.2 0-.3.2-.4.2-.1.3 0 .4.2.3.7.4 1.1.2 1.6-.2.3-.4.5-.7.6-.1.5-.4.8-.8 1 0 .5-.2.8-.2.8-.1-.1-.2 0-.2 0z"/><path class="st2" d="M244.9 170.4c-.1 0-.2 0-.2-.1-.3-.2-1.9-1.4-2.1-2.1-.1-.2 0-.3.2-.4.2-.1.3 0 .4.2.1.3 1.1 1.1 1.9 1.8.2.1.2.3.1.5-.1.1-.2.1-.3.1zM244 171.4c-.1 0-.1 0-.2-.1-.5-.3-2-1.3-2.1-2.1 0-.2.2-.3.3-.3s.3.2.3.3c0 .3 1 1.1 1.8 1.6.2.1.2.3.1.5.1.1 0 .1-.2.1zM242.9 166.7c-.2 0-.3-.1-.3-.2s.1-.3.2-.4c.9-.2 1.4-1.1 1.4-1.1.1-.2.3-.2.4-.2.2.1.2.3.2.4 0 0-.7 1.3-1.9 1.5z"/><path class="st2" d="M245.1 166.4c-.1 0-.2 0-.2-.1l-.8-.6c-.2-.1-.2-.2-.2-.4.1-.2.2-.2.4-.2 0 0 .5.2 1 .7.2.1.2.3 0 .5 0 .1-.1.1-.2.1zM314.9 202.5s-7.3-3.1-14.7-4.8c-7.4-1.7-19.4-3.3-19.4-3.3s3.3 33.3 2.5 35.3c-.9 2-6.1 8.8-6.1 8.8s28.2 10.9 33.1 11.8c4.9.9 2.4-16 2.4-16s5-21.5 2.2-31.8z"/><path class="st4" d="M304.7 198.9s.7 1.2-1.1 1.9c-4.6 1.6-9.4.2-8.9-1.6.2-.7 1.3 0 1.2-2.5 0-.3-.2-.7-.3-1.1-.2-.7-.7-1.3-1.1-2-.7-1.1-1.6-2-1.6-2s7.2-4.6 12.6 0c0 .2-1.9 1.1-.8 7.3z"/><path class="st2" d="M299.5 201.8c-2 0-3.8-.5-4.6-1.3-.5-.4-.7-.9-.5-1.5.1-.3.4-.5.6-.6.3-.2.7-.3.7-1.8 0-.2-.1-.6-.2-1-.2-.5-.6-1.1-1.1-1.9-.7-1.1-1.6-1.9-1.6-1.9-.1-.1-.1-.2-.1-.2s.1-.2.2-.2 7.5-4.7 13 0c.1.1.2.2.1.3 0 .1-.1.2-.2.2 0 0-1.7 1.1-.7 6.8.1.2.2.7.1 1.2-.2.5-.7.9-1.3 1.1-1.6.7-3.1.8-4.4.8zm-6-10c.3.3.8 1 1.3 1.6.6.7.9 1.4 1.2 2 .2.5.3.9.3 1.2.1 1.8-.5 2.2-1.1 2.5-.2.1-.2.1-.2.2-.1.2 0 .5.3.7 1.1 1 4.6 1.7 8.2.4.5-.2.8-.4 1-.7s0-.7 0-.7v-.1c-.9-4.8.1-6.6.7-7.2-4.6-3.4-10.3-.7-11.7.1z"/><path id="SVGID_3_" class="st3" d="M313.7 258.2c-2.9 4.6-17.4 6.8-25.2 6.5-7.9-.2-30.6-10.9-32.2-13.1-1.4-2.1-4.9-9 .5-13.2.4-.3.9-.7 1.5-.9 3.7-2 28.3 4.3 28.3 4.3s1.6-1 2-.9c1.7.2 2.9 1.6 6.4 2.5 2.5.7 9.1-2 13.3.3.5.2.9.6 1.3.9 4 3.9 7 9.1 4.1 13.6z"/><path id="SVGID_4_" class="st2" d="M289.5 265.1h-1c-7.9-.2-30.9-11-32.4-13.3-2.2-3.2-4.6-9.7.6-13.7.5-.3 1-.7 1.5-1 3.7-2 26.3 3.7 28.4 4.3.5-.3 1.6-.9 2.2-.8.9.1 1.6.5 2.5 1 1 .5 2.1 1.1 3.9 1.6.8.2 2.3 0 4-.2 2.9-.4 6.6-.9 9.3.6.5.2 1 .6 1.4 1 5.1 4.8 6.5 9.9 4.1 13.9-2.9 4.6-16.7 6.6-24.5 6.6zm-28.7-27.6c-1.1 0-2 .1-2.5.3-.5.2-1 .6-1.4.9-5.9 4.6-.7 12.4-.4 12.8 1.6 2.3 24.2 12.8 31.9 13 8.4.2 22.4-2.2 25-6.4 3.3-5.3-1.7-10.9-4-13-.3-.3-.7-.7-1.2-.9-2.5-1.4-6.1-.9-8.9-.5-1.8.2-3.3.5-4.3.2-1.9-.5-3.1-1.1-4.1-1.6-.8-.4-1.6-.8-2.3-.9-.2 0-1.1.4-1.9.8-.1.1-.2.1-.2 0-7.1-1.9-20-4.7-25.7-4.7zm52.9 20.7z"/><defs><path id="SVGID_9_" d="M313.7 258.2c-2.9 4.6-17.4 6.8-25.2 6.5-7.9-.2-30.6-10.9-32.2-13.1-1.4-2.1-4.9-9 .5-13.2.4-.3.9-.7 1.5-.9 3.7-2 28.3 4.3 28.3 4.3s1.6-1 2-.9c1.7.2 2.9 1.6 6.4 2.5 2.5.7 9.1-2 13.3.3.5.2.9.6 1.3.9 4 3.9 7 9.1 4.1 13.6z"/></defs><clipPath id="SVGID_10_"><use xlink:href="#SVGID_9_" style="overflow:visible"/></clipPath><defs><path id="SVGID_13_" d="M313.7 258.2c-2.9 4.6-17.4 6.8-25.2 6.5-7.9-.2-30.6-10.9-32.2-13.1-1.4-2.1-4.9-9 .5-13.2.4-.3.9-.7 1.5-.9 3.7-2 28.3 4.3 28.3 4.3s1.6-1 2-.9c1.7.2 2.9 1.6 6.4 2.5 2.5.7 9.1-2 13.3.3.5.2.9.6 1.3.9 4 3.9 7 9.1 4.1 13.6z"/></defs><defs><path id="SVGID_14_" d="M289.5 265.1h-1c-7.9-.2-30.9-11-32.4-13.3-2.2-3.2-4.6-9.7.6-13.7.5-.3 1-.7 1.5-1 3.7-2 26.3 3.7 28.4 4.3.5-.3 1.6-.9 2.2-.8.9.1 1.6.5 2.5 1 1 .5 2.1 1.1 3.9 1.6.8.2 2.3 0 4-.2 2.9-.4 6.6-.9 9.3.6.5.2 1 .6 1.4 1 5.1 4.8 6.5 9.9 4.1 13.9-2.9 4.6-16.7 6.6-24.5 6.6zm-28.7-27.6c-1.1 0-2 .1-2.5.3-.5.2-1 .6-1.4.9-5.9 4.6-.7 12.4-.4 12.8 1.6 2.3 24.2 12.8 31.9 13 8.4.2 22.4-2.2 25-6.4 3.3-5.3-1.7-10.9-4-13-.3-.3-.7-.7-1.2-.9-2.5-1.4-6.1-.9-8.9-.5-1.8.2-3.3.5-4.3.2-1.9-.5-3.1-1.1-4.1-1.6-.8-.4-1.6-.8-2.3-.9-.2 0-1.1.4-1.9.8-.1.1-.2.1-.2 0-7.1-1.9-20-4.7-25.7-4.7zm52.9 20.7z"/></defs><clipPath id="SVGID_17_"><use xlink:href="#SVGID_13_" style="overflow:visible"/></clipPath><clipPath id="SVGID_18_" style="clip-path:url(#SVGID_17_)"><use xlink:href="#SVGID_14_" style="overflow:visible"/></clipPath><path d="M308.4 243.8c-4.3-.3-8.2.6-10.9 2.2-3.2 1.9-18.3 9.1-18.3 9.1 0-.7.9-2.4.9-2.4-1.4-1.2-5.2-2.2-5.2-2.2-2.9-2.5-14.3-9.7-18.1-12.1.4-.3.9-.7 1.5-.9 3.7-2 28.3 4.3 28.3 4.3s1.6-1 2-.9c1.7.2 2.9 1.6 6.4 2.5 2.5.8 9.1-1.9 13.4.4z" class="st8" style="opacity:.3;clip-path:url(#SVGID_18_)"/><path class="st4" d="m309.2 262.4.3 1.6s-1 2.7-5.2 3.2c-4.3.4-6.8 1.4-8.8 1.5-2 .1-3.3-.1-3.3-.1l-.4-.7 17.4-5.5z"/><path class="st2" d="M294.2 269.1c-1.1 0-1.8-.1-1.9-.1-.1 0-.2-.1-.2-.2l-.4-.7c-.1-.1-.1-.2 0-.3 0-.1.1-.2.2-.2l17.4-5.6h.2c.1.1.2.1.2.2l.3 1.6v.2c-.1.1-1.1 2.9-5.5 3.4-2.3.2-4.2.7-5.6 1-1.2.2-2.3.5-3.2.6-.6 0-1.1.1-1.5.1zm-1.7-.8c.4 0 1.5.2 3 0 .9-.1 1.9-.2 3.1-.6 1.5-.3 3.4-.7 5.7-1 3.6-.4 4.7-2.5 4.9-2.9l-.2-1.1-16.6 5.3.1.3z"/><path id="SVGID_7_" class="st2" d="m284.5 262.3 7.4 5.7s5.7-.4 10.6-1.6c3.5-.8 6.5-2 6.7-3.5.2-2.4-2.3-3-5.4-2.9-.6 0-1.1.1-1.7.1-4.9.5-11.1-2.2-11.1-2.2l-6.5 4.4z"/><path id="SVGID_8_" class="st2" d="M291.9 268.3c-.1 0-.2 0-.2-.1l-7.4-5.7-.2-.2c0-.1.1-.2.2-.2l6.4-4.3c.1-.1.2-.1.3 0 .1 0 6.2 2.6 11 2.1.7-.1 1.2-.1 1.8-.1 2.5-.1 4.3.3 5.2 1.3.5.6.7 1.2.7 2-.2 1.6-2.5 2.8-7 3.8h-.1c-4.8.9-10.7 1.4-10.7 1.4zm-6.8-6 7 5.4c.9-.1 6-.6 10.4-1.6h.1c5.5-1.2 6.4-2.5 6.5-3.3.1-.7-.1-1.1-.4-1.6-.7-.7-2.3-1.1-4.6-1.1-.5 0-1.1.1-1.7.1-4.6.5-10.2-1.7-11.1-2.1l-6.2 4.2z"/><defs><path id="SVGID_21_" d="m284.5 262.3 7.4 5.7s5.7-.4 10.6-1.6c3.5-.8 6.5-2 6.7-3.5.2-2.4-2.3-3-5.4-2.9-.6 0-1.1.1-1.7.1-4.9.5-11.1-2.2-11.1-2.2l-6.5 4.4z"/></defs><clipPath id="SVGID_22_"><use xlink:href="#SVGID_21_" style="overflow:visible"/></clipPath><defs><path id="SVGID_23_" d="m284.5 262.3 7.4 5.7s5.7-.4 10.6-1.6c3.5-.8 6.5-2 6.7-3.5.2-2.4-2.3-3-5.4-2.9-.6 0-1.1.1-1.7.1-4.9.5-11.1-2.2-11.1-2.2l-6.5 4.4z"/></defs><defs><path id="SVGID_24_" d="M291.9 268.3c-.1 0-.2 0-.2-.1l-7.4-5.7-.2-.2c0-.1.1-.2.2-.2l6.4-4.3c.1-.1.2-.1.3 0 .1 0 6.2 2.6 11 2.1.7-.1 1.2-.1 1.8-.1 2.5-.1 4.3.3 5.2 1.3.5.6.7 1.2.7 2-.2 1.6-2.5 2.8-7 3.8h-.1c-4.8.9-10.7 1.4-10.7 1.4zm-6.8-6 7 5.4c.9-.1 6-.6 10.4-1.6h.1c5.5-1.2 6.4-2.5 6.5-3.3.1-.7-.1-1.1-.4-1.6-.7-.7-2.3-1.1-4.6-1.1-.5 0-1.1.1-1.7.1-4.6.5-10.2-1.7-11.1-2.1l-6.2 4.2z"/></defs><clipPath id="SVGID_25_"><use xlink:href="#SVGID_23_" style="overflow:visible"/></clipPath><clipPath id="SVGID_26_" style="clip-path:url(#SVGID_25_)"><use xlink:href="#SVGID_24_" style="overflow:visible"/></clipPath><path d="M309.2 262.8c-1.3.5-2.9 1.2-4.1 2 0 0-6.9 3.5-17.4-.1l-3.2-2.5 6.4-4.3s6.2 2.7 11.1 2.1c.6-.1 1.1-.1 1.7-.1 3.1-.1 5.7.6 5.5 2.9z" class="st8" style="opacity:.3;clip-path:url(#SVGID_26_)"/><path id="SVGID_11_" class="st4" d="M291.4 264.5c-1.3.2.2 2.9 2 2.1 1.7-.8-.6-2.3-2-2.1z"/><path id="SVGID_12_" class="st2" d="M292.7 267.1c-.5 0-.9-.2-1.3-.5-.6-.5-.9-1.2-.7-1.7.1-.3.4-.6.7-.7 1-.2 2.6.5 2.9 1.5.1.2.2.8-.8 1.3-.3 0-.6.1-.8.1zm-1.2-2.3c-.2 0-.2.1-.2.2-.1.2.1.7.5 1.1.2.2.8.6 1.5.2.3-.2.5-.3.4-.5-.2-.5-1.4-1.1-2.2-1z"/><defs><path id="SVGID_27_" d="M291.4 264.5c-1.3.2.2 2.9 2 2.1 1.7-.8-.6-2.3-2-2.1z"/></defs><clipPath id="SVGID_28_"><use xlink:href="#SVGID_27_" style="overflow:visible"/></clipPath><defs><path id="SVGID_29_" d="M291.4 264.5c-1.3.2.2 2.9 2 2.1 1.7-.8-.6-2.3-2-2.1z"/></defs><defs><path id="SVGID_30_" d="M292.7 267.1c-.5 0-.9-.2-1.3-.5-.6-.5-.9-1.2-.7-1.7.1-.3.4-.6.7-.7 1-.2 2.6.5 2.9 1.5.1.2.2.8-.8 1.3-.3 0-.6.1-.8.1zm-1.2-2.3c-.2 0-.2.1-.2.2-.1.2.1.7.5 1.1.2.2.8.6 1.5.2.3-.2.5-.3.4-.5-.2-.5-1.4-1.1-2.2-1z"/></defs><clipPath id="SVGID_31_"><use xlink:href="#SVGID_29_" style="overflow:visible"/></clipPath><clipPath id="SVGID_32_" style="clip-path:url(#SVGID_31_)"><use xlink:href="#SVGID_30_" style="overflow:visible"/></clipPath><path d="M293.9 266.2c-.9-.1-1.9-.2-2.9-.5-.2-.5-.2-1.1.4-1.1 1.1-.3 3 .8 2.5 1.6z" class="st8" style="opacity:.2;clip-path:url(#SVGID_32_)"/><path id="SVGID_15_" class="st4" d="M302.5 266.4c3.5-.8 6.5-2 6.7-3.5.2-2.4-2.3-3-5.4-2.9-.1 0-3.1 2.9-1.3 6.4z"/><path id="SVGID_16_" class="st2" d="M302.5 266.8c-.1 0-.2-.1-.3-.2-1.9-3.6 1.1-6.5 1.4-6.9.1-.1.2-.1.2-.1 2.5-.1 4.3.3 5.2 1.3.5.6.7 1.2.7 2-.3 1.6-2.6 2.8-7.2 3.9zm1.5-6.6c-.5.6-2.6 2.9-1.3 5.8 5.2-1.2 6.1-2.5 6.2-3.2s-.1-1.1-.4-1.6c-.8-.7-2.3-1-4.5-1z"/><defs><path id="SVGID_33_" d="M302.5 266.4c3.5-.8 6.5-2 6.7-3.5.2-2.4-2.3-3-5.4-2.9-.1 0-3.1 2.9-1.3 6.4z"/></defs><clipPath id="SVGID_34_"><use xlink:href="#SVGID_33_" style="overflow:visible"/></clipPath><defs><path id="SVGID_35_" d="M302.5 266.4c3.5-.8 6.5-2 6.7-3.5.2-2.4-2.3-3-5.4-2.9-.1 0-3.1 2.9-1.3 6.4z"/></defs><defs><path id="SVGID_36_" d="M302.5 266.8c-.1 0-.2-.1-.3-.2-1.9-3.6 1.1-6.5 1.4-6.9.1-.1.2-.1.2-.1 2.5-.1 4.3.3 5.2 1.3.5.6.7 1.2.7 2-.3 1.6-2.6 2.8-7.2 3.9zm1.5-6.6c-.5.6-2.6 2.9-1.3 5.8 5.2-1.2 6.1-2.5 6.2-3.2s-.1-1.1-.4-1.6c-.8-.7-2.3-1-4.5-1z"/></defs><clipPath id="SVGID_37_"><use xlink:href="#SVGID_35_" style="overflow:visible"/></clipPath><clipPath id="SVGID_38_" style="clip-path:url(#SVGID_37_)"><use xlink:href="#SVGID_36_" style="overflow:visible"/></clipPath><path d="M309.2 262.8c-1.3.5-2.9 1.2-4.1 2 0 0-1 .5-2.9 1-1.1-3.2 1.5-5.7 1.6-5.9 3-.1 5.6.6 5.4 2.9z" class="st8" style="opacity:.3;clip-path:url(#SVGID_38_)"/><path class="st4" d="M300 263.4c.2 0 .4-.2.4-.3.1-1.5 1.2-2.7 1.2-2.8.2-.2.2-.4 0-.5-.2-.2-.4-.2-.5 0-.1.1-1.4 1.4-1.5 3.2 0 .2.2.4.4.4z"/><path class="st2" d="M300 263.7v-.3.3c-.4-.1-.7-.3-.7-.7.1-1.9 1.4-3.3 1.6-3.4.2-.2.7-.2 1 0 .2.2.2.3.2.5s-.1.3-.2.5c0 0-1.1 1.1-1.1 2.5 0 .2-.1.3-.2.5-.2 0-.4.1-.6.1zm1.1-3.9.2.2c-.1.1-1.3 1.4-1.4 3 .2-1.6 1.4-2.9 1.4-2.9l-.2-.3z"/><path class="st4" d="M298.5 263.5c.1 0 .1 0 0 0 .2 0 .4-.2.4-.3 0-1.6 1.1-2.9 1.1-2.9.2-.2.1-.4-.1-.5-.2-.2-.4-.1-.5.1-.1.1-1.2 1.6-1.3 3.3.1.1.2.3.4.3z"/><path class="st2" d="M298.6 263.8v-.3.3c-.4 0-.7-.3-.7-.7 0-1.9 1.3-3.4 1.4-3.5.2-.3.7-.3 1-.1.2.1.2.2.2.5 0 .2 0 .3-.2.5 0 0-1 1.2-1.1 2.6 0 .2-.1.3-.2.5-.1.1-.3.2-.4.2zm.9-4 .2.2s-1.1 1.4-1.2 3.1c.1-1.6 1.1-3 1.2-3.1l-.2-.2z"/><path class="st4" d="M296.8 263.3c.2 0 .4-.2.4-.3.1-1.2 1.2-2.9 1.2-2.9.1-.2.1-.4-.1-.5-.2-.1-.4-.1-.5.1-.1.1-1.2 1.8-1.3 3.3-.1.2.1.3.3.3z"/><path class="st2" d="M296.9 263.6c-.1 0-.1 0 0 0v-.3.3c-.4-.1-.7-.4-.7-.7.2-1.6 1.3-3.4 1.4-3.4.2-.3.7-.4 1-.2.2.1.2.2.3.4 0 .2 0 .3-.1.5 0 0-1.1 1.6-1.1 2.8-.2.4-.5.6-.8.6zm0-.6h.3-.3c.2-1.4 1.2-3.1 1.3-3.1h-.1s-1.2 1.7-1.2 3.1c-.1 0 0 0 0 0z"/><path class="st4" d="M295.1 263.2c.2 0 .4-.2.4-.4-.2-1.6 1.1-2.9 1.2-2.9.2-.2.2-.3 0-.5s-.3-.2-.5 0c-.1.1-1.7 1.6-1.4 3.5 0 .1.2.3.3.3z"/><path class="st2" d="M295.1 263.5c-.4 0-.7-.2-.7-.6-.3-2.1 1.5-3.8 1.6-3.8.2-.2.7-.2 1 .1.2.2.2.3.2.5s-.1.3-.2.5c0 0-1.3 1.2-1.1 2.5 0 .2 0 .3-.1.5s-.2.2-.5.2c-.1.1-.1.1-.2.1zm1.1-4.2.2.2c-.1.1-1.6 1.5-1.3 3.2v.3-.3c-.2-1.7 1.2-3.1 1.3-3.2l-.2-.2z"/><path class="st4" d="M293.3 262.7c.2-.1.4-.2.3-.4-.3-1.4 1.1-2.9 1.1-2.9.2-.2.1-.4 0-.5-.2-.2-.4-.1-.5 0s-1.6 1.8-1.2 3.6c.1.1.2.2.3.2z"/><path class="st2" d="M293.3 263.1c-.3 0-.6-.2-.7-.6-.4-1.9 1.2-3.8 1.3-3.8.2-.2.7-.3 1-.1.2.2.2.3.2.5s-.1.3-.2.5c0 0-1.2 1.5-1 2.6.1.2 0 .3-.1.5s-.2.2-.4.3c.1.1 0 .1-.1.1zm1.2-4s-1.5 1.7-1.1 3.3v.3-.3c-.3-1.5 1-3.1 1.1-3.3z"/><path class="st4" d="m255.3 260-.5 1.6s.7 2.8 4.8 3.7 6.6 2 8.6 2.4c2 .3 3.2.2 3.2.2l.5-.6-16.6-7.3z"/><path class="st2" d="M271.4 268.3c-.4 0-1.5 0-3.1-.3-.9-.2-2-.5-3.1-.9-1.4-.5-3.2-1.1-5.5-1.6-4.3-.9-5.1-3.8-5.2-3.9v-.2l.5-1.6c0-.1.1-.2.2-.2h.2l16.7 7.4.2.2c0 .1 0 .2-.1.3l-.5.6c-.1.2-.1.2-.3.2.2 0 .1 0 0 0zm-16.2-6.7c.2.5 1.1 2.6 4.6 3.4 2.3.5 4.1 1.1 5.6 1.6 1.2.4 2.1.7 3 .8 1.6.2 2.6.2 3 .2l.1-.1-16-7-.3 1.1z"/><path id="SVGID_19_" class="st2" d="m280 262.4-7.9 4.9s-5.6-1.1-10.4-2.6c-3.4-1.1-6.3-2.6-6.3-4.2 0-2.4 2.6-2.8 5.6-2.4.6.1 1.1.2 1.7.3 4.8 1.1 11.3-1 11.3-1l6 5z"/><path id="SVGID_20_" class="st2" d="M272 267.7c-.1 0-5.8-1.1-10.5-2.7h-.1c-4.3-1.5-6.5-2.9-6.5-4.5 0-.8.2-1.5.8-2 1-.8 2.7-1.1 5.2-.7.5.1 1.1.2 1.7.3 4.7 1 11.1-1 11.1-1 .1 0 .2 0 .3.1l5.9 5c.1.1.1.2.1.2 0 .1-.1.2-.2.2l-7.8 5.1c.1 0 .1 0 0 0zm-10.2-3.2c4.3 1.5 9.3 2.5 10.2 2.6l7.5-4.7-5.4-4.6c-1.1.3-6.9 1.9-11.3 1-.7-.2-1.2-.2-1.7-.3-2.3-.3-3.9-.1-4.7.6-.4.3-.6.8-.6 1.5-.1.6.7 2 6 3.9 0-.1 0-.1 0 0z"/><defs><path id="SVGID_39_" d="m280 262.4-7.9 4.9s-5.6-1.1-10.4-2.6c-3.4-1.1-6.3-2.6-6.3-4.2 0-2.4 2.6-2.8 5.6-2.4.6.1 1.1.2 1.7.3 4.8 1.1 11.3-1 11.3-1l6 5z"/></defs><clipPath id="SVGID_40_"><use xlink:href="#SVGID_39_" style="overflow:visible"/></clipPath><defs><path id="SVGID_41_" d="m280 262.4-7.9 4.9s-5.6-1.1-10.4-2.6c-3.4-1.1-6.3-2.6-6.3-4.2 0-2.4 2.6-2.8 5.6-2.4.6.1 1.1.2 1.7.3 4.8 1.1 11.3-1 11.3-1l6 5z"/></defs><defs><path id="SVGID_42_" d="M272 267.7c-.1 0-5.8-1.1-10.5-2.7h-.1c-4.3-1.5-6.5-2.9-6.5-4.5 0-.8.2-1.5.8-2 1-.8 2.7-1.1 5.2-.7.5.1 1.1.2 1.7.3 4.7 1 11.1-1 11.1-1 .1 0 .2 0 .3.1l5.9 5c.1.1.1.2.1.2 0 .1-.1.2-.2.2l-7.8 5.1c.1 0 .1 0 0 0zm-10.2-3.2c4.3 1.5 9.3 2.5 10.2 2.6l7.5-4.7-5.4-4.6c-1.1.3-6.9 1.9-11.3 1-.7-.2-1.2-.2-1.7-.3-2.3-.3-3.9-.1-4.7.6-.4.3-.6.8-.6 1.5-.1.6.7 2 6 3.9 0-.1 0-.1 0 0z"/></defs><clipPath id="SVGID_43_"><use xlink:href="#SVGID_41_" style="overflow:visible"/></clipPath><clipPath id="SVGID_44_" style="clip-path:url(#SVGID_43_)"><use xlink:href="#SVGID_42_" style="overflow:visible"/></clipPath><path d="m280 262.4-4.7 2.9c-4.7-1.4-7.8-4.3-9.5-6.6 4.2 0 8.4-1.3 8.4-1.3l5.8 5z" class="st8" style="opacity:.3;clip-path:url(#SVGID_44_)"/><path class="st4" d="M261.7 264.7c-3.4-1.1-6.3-2.6-6.3-4.2 0-2.4 2.6-2.8 5.6-2.4.2.1 2.9 3.3.7 6.6z"/><path class="st2" d="M261.7 265c-4.5-1.5-6.6-2.9-6.6-4.5 0-.8.2-1.5.8-2 1-.8 2.7-1.1 5.2-.7.1 0 .2.1.2.1.1.2 2.9 3.5.7 7-.1.1-.2.1-.3.1zm-2.6-6.7c-1.3 0-2.3.2-2.8.7-.4.3-.6.8-.6 1.5s.7 2 5.8 3.8c1.6-2.7-.2-5.3-.7-5.9-.5-.1-1.1-.1-1.7-.1z"/><path class="st4" d="M264.4 262c-.2 0-.4-.2-.3-.4.1-1.5-1-2.9-1-2.9-.2-.2-.1-.4.1-.5.2-.1.4-.1.5.1.1.1 1.2 1.6 1.1 3.4 0 .1-.1.3-.4.3z"/><path class="st2" d="M264.4 262.3c-.2 0-.4-.1-.5-.2-.1-.2-.2-.3-.2-.5.1-1.4-.9-2.6-.9-2.6-.1-.2-.2-.3-.2-.5s.1-.3.2-.5c.3-.2.7-.2 1 .1.2.2 1.3 1.7 1.1 3.6.3.4-.1.6-.5.6zm-1-3.7c.1.1 1.1 1.5 1.1 3.1.1-1.7-1-3.1-1.1-3.1z"/><path class="st4" d="M265.9 262.3c-.2 0-.4-.2-.3-.4.2-1.6-.8-2.9-.8-2.9-.1-.2-.1-.4.1-.5.2-.1.4-.1.5.1.1.1 1.1 1.6.9 3.4-.1.1-.2.3-.4.3z"/><path class="st2" d="M265.9 262.6s-.1 0 0 0c-.2 0-.4-.1-.6-.2-.1-.2-.2-.3-.2-.5.1-1.4-.7-2.7-.7-2.8-.1-.2-.2-.3-.1-.5 0-.2.2-.3.3-.4.3-.2.7-.1 1 .2.1.1 1.1 1.7 1 3.6 0 .3-.4.6-.7.6zm-.8-3.9c-.1.1 1 1.6.8 3.2.2-1.7-.8-3.2-.8-3.2z"/><path class="st4" d="M267.7 262.3c-.1 0-.1 0 0 0-.2 0-.4-.2-.3-.3 0-1.3-.9-3-.9-3-.1-.2 0-.4.2-.5.2-.1.4 0 .5.2.1.1 1 1.9 1 3.4-.2 0-.3.2-.5.2z"/><path class="st2" d="M267.7 262.6c-.2 0-.4-.1-.5-.2-.2-.2-.2-.3-.2-.5 0-1.1-.8-2.9-.8-2.9-.1-.2-.1-.3-.1-.5s.2-.3.3-.4c.3-.2.7-.1.9.3.1.1 1.1 2 1 3.5.1.4-.3.7-.6.7zm-1-3.9c.1.2 1 1.9.9 3.2.1-1.4-.8-3.2-.9-3.2z"/><path class="st4" d="M269.3 262.3c-.2-.1-.4-.2-.3-.4.4-1.5-.9-2.9-.9-2.9-.2-.2-.1-.4 0-.5.2-.2.4-.1.5 0 .1.1 1.6 1.8 1.1 3.7 0 0-.2.1-.4.1z"/><path class="st2" d="M269.3 262.6h-.2c-.2-.1-.3-.2-.4-.3-.1-.2-.1-.3-.1-.5.4-1.3-.8-2.6-.8-2.7-.2-.2-.2-.3-.2-.5s.1-.3.2-.5c.2-.2.7-.2 1 .1.1.1 1.7 1.9 1.1 3.9 0 .3-.2.5-.6.5zm-.9-4c.1.1 1.4 1.6 1 3.3.4-1.7-1-3.2-1-3.3z"/><path class="st4" d="M271.1 262c-.2-.1-.4-.2-.3-.5.5-1.3-.7-3-.7-3-.1-.2-.1-.4.1-.5s.4-.1.5.1c.1.1 1.4 2 .8 3.7 0 .1-.2.2-.4.2z"/><path class="st2" d="M271.1 262.3h-.2c-.2-.1-.3-.2-.4-.3-.1-.2-.1-.3 0-.5.4-1.1-.7-2.7-.7-2.7-.1-.2-.2-.3-.1-.5 0-.2.2-.3.2-.4.3-.2.7-.2 1 .2.1.1 1.6 2.1.9 4-.1.1-.3.2-.7.2zm-.7-4c-.1.1 1.2 1.9.7 3.4v.1c.6-1.7-.7-3.5-.7-3.5z"/><path class="st4" d="M272.9 264c1.3.3-.4 2.9-2.1 1.9-1.8-1 .8-2.3 2.1-1.9z"/><path class="st2" d="M271.6 266.4c-.3 0-.7-.1-1-.2-.9-.5-.7-1.1-.7-1.4.4-.9 2-1.4 3-1.1.4.1.7.3.7.7.1.6-.2 1.2-.9 1.6-.3.3-.7.4-1.1.4zm.8-2.2c-.7 0-1.6.4-1.8.8-.1.2.1.3.4.6.7.4 1.2.1 1.5-.1.4-.3.7-.7.7-1 0-.1-.1-.2-.2-.2-.3 0-.5-.1-.6-.1z"/><path class="st3" d="M257.9 250.6c2 2.7 7.8 5.7 13.5 8.2.7 1 1.9 2.9 3.6 4.7 3.5 3.6 5 1.6 5 1.6s2.2-.2 5.6-.7c.2.4.7 1.1 1.6.9.4-.1 1.2-.7 2.2-1.5 8.4-1.2 19.7-3.4 22.8-5.7"/><path class="st2" d="M278.7 265.9c-1.1 0-2.5-.7-3.9-2.3-1.7-1.7-2.9-3.6-3.6-4.7-7.3-3.1-11.9-5.9-13.5-8.3-.1-.2-.1-.3.1-.5.2-.1.3-.1.5.1 1.6 2.2 6.2 5 13.3 8 .1 0 .1.1.2.2.6 1 1.9 2.9 3.6 4.6 1.7 1.8 2.9 2.1 3.6 2 .7-.1.9-.4.9-.4l.2-.2s2.3-.2 5.6-.7c.2 0 .2.1.3.2.2.4.7.9 1.3.7.2 0 .7-.2 2-1.4.1 0 .1-.1.2-.1 12.3-1.8 20.3-3.8 22.6-5.7.2-.1.3-.1.5.1.1.2.1.3-.1.5-3 2.5-14.1 4.5-22.8 5.8-1.5 1.2-2 1.5-2.3 1.5-.7.2-1.5-.2-1.9-.9-2.7.3-4.7.6-5.2.7-.2.2-.6.5-1.3.6-.2.2-.2.2-.3.2z"/><path class="st2" d="M271.4 259.1c-.2 0-.2-.1-.3-.2-.3-.9-.4-1.6-.1-2.1.2-.3.6-.5.7-.5 1.6-.7 3.7-.2 4.3 0 1-.4 8.4-3.7 13.4-6.7 5.5-3.3 13.4-5.8 13.5-5.8h.1c3.1-.2 4.7-.2 6.2 1.6.2.2.1.3 0 .5-.2.2-.3.1-.5 0-1.3-1.5-2.7-1.6-5.6-1.3-.6.2-8.1 2.6-13.3 5.7-5.5 3.3-13.5 6.8-13.6 6.8h-.2s-2.4-.7-3.9 0h-.1s-.2 0-.2.2c-.1.2-.2.6.2 1.6.1.2 0 .3-.2.4-.3-.2-.4-.2-.4-.2zM309.1 259.2c-.1 0-.2-.1-.3-.2-.1-.2 0-.3.2-.4 3.2-1.6 3.3-3.7 3.3-3.8 0-.2.2-.3.3-.3.2 0 .3.2.3.3 0 .1 0 2.6-3.6 4.4h-.2z"/><path class="st2" d="M283.9 253.2c-.1 0-.2 0-.2-.1-1-.7-3-1.6-3-1.6-.1 0-.2-.1-.2-.2-1.1-2.5-6.4-6.3-6.5-6.4-.2-.1-.2-.3-.1-.5s.3-.2.5-.1c.2.2 5.4 3.9 6.6 6.5.5.2 2.1 1 3 1.6.2.1.2.3.1.5.1.2 0 .3-.2.3z"/><path class="st2" d="M281.5 251.8c-.2-.1-.3-.2-.3-.4.2-1 .2-2.1-.2-3.4-.1-.2 0-.3.2-.4.2-.1.3 0 .4.2.4 1.3.5 2.6.2 3.7-.1.2-.3.3-.3.3zM280.7 247.1c-.1 0-.2-.1-.3-.2-.2-.5-.5-.9-.7-1.3-.1-.2-.1-.3.1-.5.2-.1.3-.1.5.1.3.4.6.9.8 1.4.1.2 0 .3-.2.4 0 .1-.1.1-.2.1zM290.1 249.8c-.2 0-.2-.1-.3-.2-.4-1.9-2.2-4.3-2.2-4.3-.1-.2-.1-.3.1-.5.2-.1.3-.1.5.1.1.1 1.9 2.5 2.4 4.5-.1.2-.3.3-.5.4zM298 260c-.2 0-.3-.2-.3-.3 0-.2.2-.3.3-.3.7-.1 1.4-.2 2-.2.2 0 .3.1.4.2 0 .2-.1.3-.2.4-.7.2-1.4.2-2.2.2zM296.5 260.1c-4.7-.1-10.1-.7-15.8-1.8-.2 0-.3-.2-.2-.4 0-.2.2-.3.4-.2 5.6 1.1 11 1.6 15.7 1.8.2 0 .3.2.3.3 0 .2-.2.3-.4.3z"/><path class="st4" d="M317.9 221.2s-1 17.1-2.1 18.1-3 1.3-6.5 1.6c-3.5.2-18.9 1.2-18.9 1.2l-1.6-4.9s8.2-.8 11.9-2.1c3.6-1.3 8.4-2.2 8.4-2.2s-.7-4.3-.7-6.1V218"/><path class="st2" d="M290.3 242.4c-.2 0-.2-.1-.3-.2l-1.6-4.9v-.2l.2-.2c.1 0 8.2-.8 11.8-2.1 3.1-1.1 7-2 8.1-2.1-.2-1.1-.7-4.3-.7-5.9V218c0-.2.2-.3.3-.3s.3.2.3.3v8.8c0 1.8.7 6.1.7 6.1 0 .2-.1.3-.2.4-.1 0-4.7.9-8.4 2.2-3.2 1.1-9.7 2-11.5 2.1l1.5 4.3c2-.2 15.5-1 18.7-1.2 3.5-.3 5.2-.6 6.3-1.5.7-.7 1.6-9.7 2-17.8 0-.2.2-.3.3-.3.2 0 .3.2.3.3-.2 2.9-1.1 17.3-2.3 18.3-1.2 1.1-3 1.4-6.7 1.6-3.3.2-18.6 1.1-18.8 1.1z"/><path class="st2" d="M314.9 202.5c3.8 2.3 4.8 7.6 3.6 18.9 0 0 1.1 1.3-.5 2 0 0-6.1-2.3-9-.7-2.9 1.6-2.1-2.1-2.1-2.1s-1.1-10.4 1.4-12.3"/><path class="st4" d="M307.8 223.4c-.2 0-1.1-.4-1.1-1.2 0-.6.3-2 .4-2.3-3.2-9.4.4-13.2.6-13.3s.3-.2.5 0 .2.3 0 .5c0 0-3.4 3.8-.3 12.8v.2c-.1.5-.4 1.8-.4 2.3 0 .3.5.6.7.7.2.1.2.2.2.4-.2-.2-.4-.1-.6-.1z"/><path class="st4" d="M306.8 219.8c-.1 0-.2 0-.2-.1-2.9-2-3.3-6.6-3.3-6.9 0-.2.2-.3.3-.3.2 0 .3.2.3.3 0 .1.3 4.4 3 6.3.2.1.2.3.1.5 0 .2-.2.2-.2.2zM299.4 203.5c-1.6 0-3.4-.2-5.1-1.1-2.9-1.6-1.7-4-1.7-4.1.1-.2.2-.2.4-.2s.2.2.2.4c0 .1-.9 2 1.4 3.2 4.3 2.3 9.7.2 9.8.2.2-.1.3 0 .4.2.1.2 0 .3-.2.4 0 .2-2.3 1-5.2 1z"/><path d="M264.3 245.4h30.5c.7 0 1.4-.1 2-.2l6-1.6c.2-.1.3-.2.3-.4s-.2-.4-.4-.4H263c-.2 0-.4.2-.4.4v.6c0 .9.8 1.6 1.7 1.6z" style="fill:#757575"/><path class="st2" d="M294.8 245.7h-30.5c-1.1 0-2-.9-2-2v-.6c0-.4.3-.7.7-.7h39.7c.4 0 .7.3.7.7 0 .3-.2.6-.6.7l-6 1.6c-.6.2-1.3.3-2 .3zm-31.8-2.5-.1.7c0 .7.6 1.3 1.3 1.3h30.5c.7 0 1.3-.1 2-.2l6-1.6s.1 0 .1-.1c0 0 0-.1-.1-.1H263z"/><path d="M261.2 243.9h30.5c.6 0 .8-.4.7-1l-5.6-21.9c-.2-.6-.7-1-1.2-1h-30.5c-.6 0-.8.4-.7 1l5.6 21.9c.2.6.8 1 1.2 1z" style="fill:#999"/><path class="st2" d="M291.9 244.2h-30.5c-.7 0-1.4-.6-1.6-1.2l-5.6-21.9c-.1-.3 0-.7.2-1s.5-.4.9-.4h30.5c.7 0 1.4.6 1.6 1.2l5.6 21.9c.1.3 0 .7-.2 1-.3.3-.6.4-.9.4zm-36.8-23.8c-.2 0-.2.1-.3.2-.1.1-.1.2-.1.4l5.6 21.9c.1.4.5.7.9.7h30.5c.2 0 .2-.1.3-.2.1-.1.1-.2.1-.4l-5.6-21.9c-.1-.4-.5-.7-.9-.7h-30.5z"/><path class="st2" d="M256.2 221.2h-.6c-.2 0-.3-.2-.3-.3s.2-.3.3-.3h.6c.2 0 .3.2.3.3s-.2.3-.3.3zM260.7 221.2h-3c-.2 0-.3-.2-.3-.3s.2-.3.3-.3h2.9c.2 0 .3.2.3.3.1.2-.1.3-.2.3zM291.1 241.5c-.2 0-.2-.1-.3-.2l-5-19.3c-.1-.4-.5-.7-.9-.7h-23.6c-.2 0-.3-.2-.3-.3s.2-.3.3-.3h23.6c.7 0 1.4.6 1.6 1.2l5 19.3s-.1.2-.4.3zM291.5 243.2c-.2 0-.2-.1-.3-.2l-.2-.5c-.1-.2.1-.3.2-.4.2-.1.3.1.4.2l.2.5c.1.1 0 .3-.3.4z"/><path class="st4" d="M270.5 232.5c0 .2.1.3.1.5.4 1.3 1.6 2.1 2.8 1.8 1.1-.3 1.7-1.6 1.4-2.9-.4-1.3-1.6-2.1-2.8-1.8-.2 0-.2.1-.4.2 0 .9-.4 1.8-1.1 2.2z"/><path class="st2" d="M272.8 235.3c-1.1 0-2.2-.8-2.5-2.1-.1-.2-.1-.4-.1-.6s.1-.2.2-.3c.7-.3 1-1.1.9-2 0-.2.1-.2.2-.3.2-.1.3-.2.5-.2 1.3-.4 2.8.5 3.2 2 .2.7.2 1.6-.2 2.3-.3.6-.8 1-1.4 1.1-.4 0-.6.1-.8.1zm-2-2.6c0 .1 0 .2.1.2.3 1.1 1.4 1.9 2.4 1.6.4-.1.7-.4 1-.8.2-.5.3-1.1.2-1.7-.3-1.1-1.4-1.8-2.4-1.6-.1 0-.1 0-.2.1 0 .9-.4 1.8-1.1 2.2zM283.9 191.6c-2.6-.2-4.1-2.8-5.6-3.2-1.6-.4-2.6-.8-2.6-.8s-.6-1.9-1.4-1.2c-.8.7-1.9 14.8-.8 14.4 1.1-.4 1.1 1.2 1.1 1.2l9.8 8.6 8.3-14.4c-.1-.1-6.1-4.3-8.8-4.6zM203.9 141.6c-.2 0-.3-.2-.3-.3v-.3c0-.2.2-.3.3-.3h.3c.2 0 .3.2.3.3s-.2.3-.3.3c.1.1-.1.3-.3.3zM239.5 141.3h-.7c-.2 0-.3-.2-.3-.3s.2-.3.3-.3h.7c.2 0 .3.2.3.3 0 .1-.2.3-.3.3zm-2.7 0h-.7c-.2 0-.3-.2-.3-.3s.2-.3.3-.3h.7c.2 0 .3.2.3.3 0 .1-.2.3-.3.3zm-2.7 0h-.7c-.2 0-.3-.2-.3-.3s.2-.3.3-.3h.7c.2 0 .3.2.3.3 0 .1-.2.3-.3.3zm-2.7 0h-.7c-.2 0-.3-.2-.3-.3s.2-.3.3-.3h.7c.2 0 .3.2.3.3 0 .1-.2.3-.3.3zm-2.7 0h-.7c-.2 0-.3-.2-.3-.3s.2-.3.3-.3h.7c.2 0 .3.2.3.3 0 .1-.2.3-.3.3zm-2.7 0h-.7c-.2 0-.3-.2-.3-.3s.2-.3.3-.3h.7c.2 0 .3.2.3.3 0 .1-.2.3-.3.3zm-2.7 0h-.7c-.2 0-.3-.2-.3-.3s.2-.3.3-.3h.7c.2 0 .3.2.3.3 0 .1-.2.3-.3.3zm-2.8 0h-.7c-.2 0-.3-.2-.3-.3s.2-.3.3-.3h.7c.2 0 .3.2.3.3 0 .1-.1.3-.3.3zm-2.7 0h-.7c-.2 0-.3-.2-.3-.3s.2-.3.3-.3h.7c.2 0 .3.2.3.3 0 .1-.1.3-.3.3zm-2.7 0h-.7c-.2 0-.3-.2-.3-.3s.2-.3.3-.3h.7c.2 0 .3.2.3.3 0 .1-.2.3-.3.3zm-2.7 0h-.7c-.2 0-.3-.2-.3-.3s.2-.3.3-.3h.7c.2 0 .3.2.3.3 0 .1-.2.3-.3.3zm-2.7 0h-.7c-.2 0-.3-.2-.3-.3s.2-.3.3-.3h.7c.2 0 .3.2.3.3 0 .1-.2.3-.3.3zm-2.7 0h-.7c-.2 0-.3-.2-.3-.3s.2-.3.3-.3h.7c.2 0 .3.2.3.3 0 .1-.2.3-.3.3zM241.8 141.6c-.2 0-.3-.2-.3-.3-.2 0-.3-.2-.3-.3s.2-.3.3-.3h.3c.2 0 .3.2.3.3v.3c.1.1-.1.3-.3.3zM241.8 164.1c-.2 0-.3-.2-.3-.3v-.7c0-.2.2-.3.3-.3.2 0 .3.2.3.3v.7c.1.1-.1.3-.3.3zm0-2.5c-.2 0-.3-.2-.3-.3v-.7c0-.2.2-.3.3-.3.2 0 .3.2.3.3v.7c.1.2-.1.3-.3.3zm0-2.5c-.2 0-.3-.2-.3-.3v-.7c0-.2.2-.3.3-.3.2 0 .3.2.3.3v.7c.1.1-.1.3-.3.3zm0-2.5c-.2 0-.3-.2-.3-.3v-.7c0-.2.2-.3.3-.3.2 0 .3.2.3.3v.7c.1.2-.1.3-.3.3zm0-2.5c-.2 0-.3-.2-.3-.3v-.7c0-.2.2-.3.3-.3.2 0 .3.2.3.3v.7c.1.1-.1.3-.3.3zm0-2.5c-.2 0-.3-.2-.3-.3v-.7c0-.2.2-.3.3-.3.2 0 .3.2.3.3v.7c.1.1-.1.3-.3.3zm0-2.5c-.2 0-.3-.2-.3-.3v-.7c0-.2.2-.3.3-.3.2 0 .3.2.3.3v.7c.1.1-.1.3-.3.3zm0-2.5c-.2 0-.3-.2-.3-.3v-.7c0-.2.2-.3.3-.3.2 0 .3.2.3.3v.7c.1.1-.1.3-.3.3zm0-2.5c-.2 0-.3-.2-.3-.3v-.7c0-.2.2-.3.3-.3.2 0 .3.2.3.3v.7c.1.2-.1.3-.3.3zM241.8 166.3h-.3c-.2 0-.3-.2-.3-.3 0-.2.2-.3.3-.3 0-.2.2-.3.3-.3.2 0 .3.2.3.3v.3c.1.1-.1.3-.3.3zM239.5 166.3h-.7c-.2 0-.3-.2-.3-.3 0-.2.2-.3.3-.3h.7c.2 0 .3.2.3.3 0 .1-.2.3-.3.3zm-2.7 0h-.7c-.2 0-.3-.2-.3-.3 0-.2.2-.3.3-.3h.7c.2 0 .3.2.3.3 0 .1-.2.3-.3.3zm-2.7 0h-.7c-.2 0-.3-.2-.3-.3 0-.2.2-.3.3-.3h.7c.2 0 .3.2.3.3 0 .1-.2.3-.3.3zm-2.7 0h-.7c-.2 0-.3-.2-.3-.3 0-.2.2-.3.3-.3h.7c.2 0 .3.2.3.3 0 .1-.2.3-.3.3zm-2.7 0h-.7c-.2 0-.3-.2-.3-.3 0-.2.2-.3.3-.3h.7c.2 0 .3.2.3.3 0 .1-.2.3-.3.3zm-2.7 0h-.7c-.2 0-.3-.2-.3-.3 0-.2.2-.3.3-.3h.7c.2 0 .3.2.3.3 0 .1-.2.3-.3.3zm-2.7 0h-.7c-.2 0-.3-.2-.3-.3 0-.2.2-.3.3-.3h.7c.2 0 .3.2.3.3 0 .1-.2.3-.3.3zm-2.8 0h-.7c-.2 0-.3-.2-.3-.3 0-.2.2-.3.3-.3h.7c.2 0 .3.2.3.3 0 .1-.1.3-.3.3zm-2.7 0h-.7c-.2 0-.3-.2-.3-.3 0-.2.2-.3.3-.3h.7c.2 0 .3.2.3.3 0 .1-.1.3-.3.3zm-2.7 0h-.7c-.2 0-.3-.2-.3-.3 0-.2.2-.3.3-.3h.7c.2 0 .3.2.3.3 0 .1-.2.3-.3.3zm-2.7 0h-.7c-.2 0-.3-.2-.3-.3 0-.2.2-.3.3-.3h.7c.2 0 .3.2.3.3 0 .1-.2.3-.3.3zm-2.7 0h-.7c-.2 0-.3-.2-.3-.3 0-.2.2-.3.3-.3h.7c.2 0 .3.2.3.3 0 .1-.2.3-.3.3zm-2.7 0h-.7c-.2 0-.3-.2-.3-.3 0-.2.2-.3.3-.3h.7c.2 0 .3.2.3.3 0 .1-.2.3-.3.3zM204.3 166.3h-.3c-.2 0-.3-.2-.3-.3v-.3c0-.2.2-.3.3-.3s.3.2.3.3c.2 0 .3.2.3.3 0 .1-.2.3-.3.3zM203.9 164.1c-.2 0-.3-.2-.3-.3v-.7c0-.2.2-.3.3-.3s.3.2.3.3v.7c.1.1-.1.3-.3.3zm0-2.5c-.2 0-.3-.2-.3-.3v-.7c0-.2.2-.3.3-.3s.3.2.3.3v.7c.1.2-.1.3-.3.3zm0-2.5c-.2 0-.3-.2-.3-.3v-.7c0-.2.2-.3.3-.3s.3.2.3.3v.7c.1.1-.1.3-.3.3zm0-2.5c-.2 0-.3-.2-.3-.3v-.7c0-.2.2-.3.3-.3s.3.2.3.3v.7c.1.2-.1.3-.3.3zm0-2.5c-.2 0-.3-.2-.3-.3v-.7c0-.2.2-.3.3-.3s.3.2.3.3v.7c.1.1-.1.3-.3.3zm0-2.5c-.2 0-.3-.2-.3-.3v-.7c0-.2.2-.3.3-.3s.3.2.3.3v.7c.1.1-.1.3-.3.3zm0-2.5c-.2 0-.3-.2-.3-.3v-.7c0-.2.2-.3.3-.3s.3.2.3.3v.7c.1.1-.1.3-.3.3zm0-2.5c-.2 0-.3-.2-.3-.3v-.7c0-.2.2-.3.3-.3s.3.2.3.3v.7c.1.1-.1.3-.3.3zm0-2.5c-.2 0-.3-.2-.3-.3v-.7c0-.2.2-.3.3-.3s.3.2.3.3v.7c.1.2-.1.3-.3.3z"/><circle class="st3" cx="222.8" cy="140.9" r=".7"/><path class="st2" d="M222.8 141.9c-.5 0-1-.4-1-1 0-.5.4-1 1-1s1 .4 1 1c0 .5-.4 1-1 1zm0-1.3c-.2 0-.3.2-.3.3s.2.3.3.3.3-.2.3-.3-.1-.3-.3-.3z"/><circle class="st3" cx="203.9" cy="153.5" r=".7"/><path class="st2" d="M203.9 154.4c-.5 0-1-.4-1-1s.4-1 1-1c.5 0 1 .4 1 1s-.5 1-1 1zm0-1.3c-.2 0-.3.2-.3.3s.2.3.3.3.3-.2.3-.3-.1-.3-.3-.3z"/><circle class="st3" cx="222.8" cy="166" r=".7"/><path class="st2" d="M222.8 167c-.5 0-1-.4-1-1 0-.5.4-1 1-1s1 .4 1 1c0 .5-.4 1-1 1zm0-1.4c-.2 0-.3.2-.3.3s.2.3.3.3.3-.2.3-.3c.1-.1-.1-.3-.3-.3z"/><circle class="st3" cx="241.8" cy="153.5" r=".7"/><path class="st2" d="M241.8 154.4c-.5 0-1-.4-1-1s.4-1 1-1c.5 0 1 .4 1 1s-.5 1-1 1zm0-1.3c-.2 0-.3.2-.3.3s.2.3.3.3c.2 0 .3-.2.3-.3s-.1-.3-.3-.3z"/><path class="st3" d="M241.1 165.2h1.5v1.5h-1.5z"/><path class="st2" d="M242.6 167h-1.5c-.2 0-.3-.2-.3-.3v-1.5c0-.2.2-.3.3-.3h1.5c.2 0 .3.2.3.3v1.5c0 .2-.2.3-.3.3zm-1.2-.6h.8v-.8h-.8v.8z"/><path class="st3" d="M241.1 140.2h1.5v1.5h-1.5z"/><path class="st2" d="M242.6 142h-1.5c-.2 0-.3-.2-.3-.3v-1.5c0-.2.2-.3.3-.3h1.5c.2 0 .3.2.3.3v1.5c0 .1-.2.3-.3.3zm-1.2-.7h.8v-.8h-.8v.8z"/><path class="st3" d="M203.2 165.2h1.5v1.5h-1.5z"/><path class="st2" d="M204.7 167h-1.5c-.2 0-.3-.2-.3-.3v-1.5c0-.2.2-.3.3-.3h1.5c.2 0 .3.2.3.3v1.5c0 .2-.2.3-.3.3zm-1.2-.6h.8v-.8h-.8v.8z"/><path class="st3" d="M203.2 140.2h1.5v1.5h-1.5z"/><path class="st2" d="M204.7 142h-1.5c-.2 0-.3-.2-.3-.3v-1.5c0-.2.2-.3.3-.3h1.5c.2 0 .3.2.3.3v1.5c0 .1-.2.3-.3.3zm-1.2-.7h.8v-.8h-.8v.8z"/><path class="st4" d="M206.5 143.1h33v20.8h-33z"/><path class="st2" d="M239.5 164.3h-33c-.2 0-.3-.2-.3-.3v-20.8c0-.2.2-.3.3-.3h33c.2 0 .3.2.3.3V164c0 .1-.2.3-.3.3zm-32.7-.7h32.3v-20.1h-32.3v20.1z"/><path class="st3" d="m239.5 157.8-3.7 3.6-9.9-9.8-4.2 4.1-6.7-6.6-8.5 8.5v6.3h33z"/><path class="st2" d="M239.5 164.3h-33c-.2 0-.3-.2-.3-.3v-6.3c0-.1 0-.2.1-.2l8.6-8.5c.2-.2.3-.2.5 0l6.5 6.4 3.9-3.9c.2-.2.3-.2.5 0l9.7 9.6 3.4-3.4c.1-.1.2-.1.3-.1.2.1.2.2.2.3v6.1c-.1.1-.3.3-.4.3zm-32.7-.7h32.3v-5l-3.1 3.1c-.2.2-.3.2-.5 0l-9.7-9.6-3.9 3.9c-.2.2-.3.2-.5 0l-6.5-6.4-8.3 8.2.2 5.8z"/><circle class="st3" cx="232.6" cy="149" r="2.3"/><path class="st2" d="M232.6 151.6c-1.5 0-2.6-1.1-2.6-2.6s1.2-2.6 2.6-2.6c1.5 0 2.6 1.1 2.6 2.6s-1.1 2.6-2.6 2.6zm0-4.5c-1.1 0-2 .9-2 2s.9 2 2 2 2-.9 2-2-.9-2-2-2z"/><path class="st4" d="M282.9 207.6c-.2 0-.3-.2-.3-.3.3-7.1 2.8-11.7 2.9-12 .1-.2.2-.2.4-.2.2.1.2.2.2.4 0 .1-2.5 4.7-2.8 11.6-.1.4-.3.5-.4.5zM281.2 205.8c-.1 0-.2-.1-.2-.2-2.2-2.9-3-6.8-3-7s.1-.3.2-.4c.2 0 .3.1.4.2 0 0 .7 3.9 2.9 6.7.1.2.1.3-.1.5 0 .2-.1.2-.2.2zM300.7 231.4h-.2c-8.3-3.7-12-15.6-12.2-16.2-.1-.2.1-.3.2-.4.2-.1.3.1.4.2 0 .1 3.8 12.3 11.9 15.8.2.1.2.2.2.4 0 .1-.1.2-.3.2z"/><path class="st2" d="M298.7 192.7s-.3 2.7-2.9 2.9c-.2-.7-.7-1.3-1.1-2 1.6-.5 4-.9 4-.9z"/><path class="st4" d="M304.2 192.9s4.3.5 6.2-5.3c1.8-5.8.4-10.2-6.9-12.3-4-1.1-8-.2-9.5 2.8-1.2 2.5-.7 4.7-.9 5.6-.3 1-3.3 1.8-3.3 2.5 0 .6 1.6 1.5 1.6 1.5l-.5 1.5.5.2s-.8 3.3-.5 4.4c.2.8 7.7 1.1 8.3-.9"/><path class="st2" d="M294.6 194.7c-1 0-3.6-.1-3.8-.9-.3-1.1.2-3.5.4-4.3l-.2-.1c-.2-.1-.2-.2-.2-.4l.4-1.2c-.6-.3-1.6-1.1-1.6-1.6s.7-.9 1.6-1.3c.7-.3 1.6-.8 1.7-1.2.1-.2.1-.7.1-1.1 0-1.1 0-2.7.9-4.5 1.5-3 5.5-4.3 9.8-2.9 3.5 1 5.7 2.5 7 4.7 1.1 2.1 1.1 4.7.2 7.9-1.9 6-6.5 5.5-6.5 5.5-.2 0-.3-.2-.3-.3s.2-.3.3-.3c.2 0 4.1.4 5.8-5.1 1-3.1 1-5.6-.1-7.5-1.1-2-3.2-3.4-6.5-4.4-4-1.1-7.8-.1-9.1 2.6-.8 1.6-.8 3.1-.8 4.3 0 .6 0 1-.1 1.3-.2.7-1.1 1.1-2 1.6-.5.2-1.1.6-1.2.8 0 .2.7.7 1.5 1.1.2.1.2.2.2.4l-.4 1.1.2.1c.2.1.2.2.2.4-.2.9-.7 3.4-.5 4.2.3.3 3.5.7 5.9.2 1-.2 1.6-.6 1.7-1.1.1-.2.2-.2.4-.2.2.1.2.2.2.4-.4 1.5-3.4 1.7-4.7 1.8h-.5z"/><path class="st2" d="M296 181.6c-.1 0-.2-.1-.3-.2-.2-.5-1.3-.9-1.6-1-.2-.1-.2-.2-.2-.4.1-.2.2-.2.4-.2s1.6.4 2 1.3c0 .2-.1.4-.3.5.1 0 0 0 0 0zM294.4 183.5c-.1.4 0 .8.2.8s.4-.3.4-.7c.1-.4 0-.8-.2-.8s-.3.3-.4.7zM293.9 190.1c-1.1 0-2.4-.5-2.5-.6-.2-.1-.2-.2-.2-.4.1-.2.2-.2.4-.2.8.3 2.4.7 2.9.4.2-.1.3-.1.5.1.1.2.1.3-.1.5-.3.2-.6.2-1 .2zM292.8 185.4h-.2c-.2 0-.4-.2-.5-.3-.2-.4-.3-1.1-.2-1.9.2-1.1.8-2 1.5-1.8.2 0 .4.2.5.3.2.4.3 1.1.2 1.9-.1 1-.6 1.8-1.3 1.8zm-.1-2.1c-.1.7 0 1.1.1 1.4 0 .1.1.1.1.1.2 0 .6-.4.7-1.3.1-.7 0-1.1-.1-1.4 0-.1-.1-.1-.1-.1-.1-.1-.6.4-.7 1.3z"/><path class="st2" d="M310.6 178.4s-.3-2.5-2.8-4.2c-2.4-1.8-5.3-2.1-5.3-2.1s1.4.6 2 1.4c0 0-3.6-2.7-7.9-.9-4.3 1.8-3.8 6.4-3.8 6.4l.7-1.2s-.1 1.4.7 2c0 0 .5-1.4.9-2 0 0 1.1 3.4 4.3 4.5 0 0-.3-.7-.1-1.6 0 0 1.7 3.7 1.2 5.6l.6 1s2-2 3.6-.3c.9 1-1.8 4.6-2.1 4.6l1.6 2.4s4.1.6 6.5-3.8c2.4-4.4 1.8-6.3 1.8-6.3s.7 1.1.9 1.7c-.2-.4.5-5-2.8-7.2z"/><path class="st4" d="M301 187.4s1.2-4.2 3.9-2.7.7 3.8-.2 4.6c-1 .8-1.7 2.5-2.3 2.5-.7 0-.7-.7-.7-.7"/><path class="st2" d="M302.4 192.1c-.7 0-1.1-.7-1.1-1.1 0-.2.1-.3.2-.4.2 0 .3.1.4.2 0 0 .1.5.4.5.2 0 .7-.6 1-1 .3-.4.7-1 1.1-1.3.4-.3 1.6-1.5 1.5-2.6-.1-.6-.5-1.1-1.2-1.5-.6-.3-1.1-.3-1.6-.2-1.3.5-2 2.7-2 2.7-.1.2-.2.2-.4.2-.2-.1-.2-.2-.2-.4 0-.1.7-2.5 2.4-3.1.7-.2 1.4-.2 2.1.2.9.5 1.5 1.1 1.6 2 .2 1.4-1.1 2.7-1.6 3.2-.4.3-.7.8-1.1 1.2-.6.8-1 1.4-1.5 1.4z"/><path class="st2" d="m301.4 185.3-7.5-1.6c-.2 0-.3-.2-.2-.4 0-.2.2-.3.4-.2l7.5 1.6c.2 0 .3.2.2.4-.1.1-.3.2-.4.2z"/></g></svg>