<svg version="1.1" id="Layer_1" xmlns="http://www.w3.org/2000/svg" xmlns:xlink="http://www.w3.org/1999/xlink" x="0" y="0" viewBox="0 0 500 375" style="enable-background:new 0 0 500 375" xml:space="preserve"><style>.st3{fill:#1a2e35}.st6{fill:#fff}.st7{fill:#757575}.st9{fill:#ffcb39}.st17{opacity:.7}.st22,.st23{opacity:.4;enable-background:new}.st23{opacity:.3}</style><defs><circle id="SVGID_1_" cx="250" cy="187.5" r="140"/></defs><clipPath id="SVGID_2_"><use xlink:href="#SVGID_1_" style="overflow:visible"/></clipPath><path style="clip-path:url(#SVGID_2_);fill:#fcf1de" d="M42.7 34.3h446v303.8h-446z"/><defs><circle id="SVGID_3_" cx="250" cy="187.5" r="140"/></defs><clipPath id="SVGID_4_"><use xlink:href="#SVGID_3_" style="overflow:visible"/></clipPath><g style="clip-path:url(#SVGID_4_)"><defs><path id="SVGID_5_" d="M280.8 155.5s7.6-8.8 18.8-8.8c0 0 .4-6.8 8-8.3s9.1 5.3 9.1 5.3 5.6-2.9 13.2 0 6.1 11.7 6.1 11.7 21.9-.7 25.6 3.3h-98.1c-.1.1 1.9-4.8 17.3-3.2z"/></defs><clipPath id="SVGID_6_"><use xlink:href="#SVGID_5_" style="overflow:visible"/></clipPath><path class="st3" d="M361.5 159.2h-98.1c-.2 0-.2-.1-.3-.2-.1-.1-.1-.2 0-.4s2.3-5.2 17.6-3.5c1.1-1.2 8.4-8.6 18.7-8.8.2-1.6 1.6-7 8.3-8.3 6.6-1.3 8.9 3.6 9.4 5.2 1.6-.7 6.5-2.4 13.1.2 6.7 2.6 6.5 9.7 6.3 11.6 3.4-.1 21.9-.4 25.4 3.4.1.1.2.3.1.5-.2.1-.2.3-.5.3zm-97.3-.9h96c-5.4-3-24.1-2.5-24.3-2.5-.2 0-.2-.1-.3-.2-.1-.1-.1-.2-.1-.3.1-.3 1.4-8.4-5.7-11.2-7.3-2.9-12.8-.1-12.9 0-.1.1-.2.1-.4 0-.1-.1-.2-.2-.2-.3-.1-.2-1.6-6.4-8.6-5-7.2 1.4-7.6 7.6-7.6 7.9 0 .2-.2.4-.4.4-10.9 0-18.4 8.5-18.5 8.6s-.2.2-.3.2c-11.7-1.2-15.5 1.2-16.7 2.4z" style="opacity:.5;clip-path:url(#SVGID_6_);enable-background:new"/><path class="st3" d="M361.5 159.2h-98.1c-.2 0-.2-.1-.3-.2-.1-.1-.1-.2 0-.4s2.3-5.2 17.6-3.5c1.1-1.2 8.4-8.6 18.7-8.8.2-1.6 1.6-7 8.3-8.3 6.6-1.3 8.9 3.6 9.4 5.2 1.6-.7 6.5-2.4 13.1.2 6.7 2.6 6.5 9.7 6.3 11.6 3.4-.1 21.9-.4 25.4 3.4.1.1.2.3.1.5-.2.1-.2.3-.5.3zm-97.3-.9h96c-5.4-3-24.1-2.5-24.3-2.5-.2 0-.2-.1-.3-.2-.1-.1-.1-.2-.1-.3.1-.3 1.4-8.4-5.7-11.2-7.3-2.9-12.8-.1-12.9 0-.1.1-.2.1-.4 0-.1-.1-.2-.2-.2-.3-.1-.2-1.6-6.4-8.6-5-7.2 1.4-7.6 7.6-7.6 7.9 0 .2-.2.4-.4.4-10.9 0-18.4 8.5-18.5 8.6s-.2.2-.3.2c-11.7-1.2-15.5 1.2-16.7 2.4z" id="XMLID_165_"/><defs><path id="SVGID_7_" d="M374.3 213s-6.1-7-15-7c0 0-.2-5.5-6.4-6.6-6.1-1.1-7.3 4.3-7.3 4.3s-4.5-2.4-10.5 0c-6.1 2.4-4.8 9.3-4.8 9.3s-17.4-.6-20.4 2.6H388c.1.1-1.5-3.9-13.7-2.6z"/></defs><clipPath id="SVGID_8_"><use xlink:href="#SVGID_7_" style="overflow:visible"/></clipPath><path class="st3" d="M388.1 216.1h-78.3c-.2 0-.3-.1-.4-.2-.1-.2 0-.3.1-.5 2.8-3 17.4-2.9 20.2-2.8-.2-1.7-.2-7.2 5.2-9.3 5.1-2 9.1-.7 10.4-.2.5-1.4 2.3-5.2 7.6-4.1s6.5 5.3 6.6 6.6c8.1.2 13.8 5.9 14.8 7 12.2-1.2 14 2.7 14.1 2.9.1.2 0 .2-.1.4.1.1-.1.2-.2.2zm-76.9-.8h76c-1.1-1-4.3-2.6-12.9-1.7-.2 0-.2 0-.3-.2-.1-.1-6.1-6.9-14.7-6.9-.2 0-.4-.2-.4-.4s-.3-5.2-6-6.2c-5.6-1.1-6.7 3.8-6.8 3.9 0 .2-.1.2-.2.3-.1.1-.2.1-.4 0-.1 0-4.4-2.2-10.2 0-5.6 2.2-4.6 8.6-4.6 8.8 0 .2 0 .2-.1.3-.1.1-.2.2-.3.2-4.3-.1-15.2 0-19.1 1.9z" style="opacity:.5;clip-path:url(#SVGID_8_);enable-background:new"/><path class="st3" d="M388.1 216.1h-78.3c-.2 0-.3-.1-.4-.2-.1-.2 0-.3.1-.5 2.8-3 17.4-2.9 20.2-2.8-.2-1.7-.2-7.2 5.2-9.3 5.1-2 9.1-.7 10.4-.2.5-1.4 2.3-5.2 7.6-4.1s6.5 5.3 6.6 6.6c8.1.2 13.8 5.9 14.8 7 12.2-1.2 14 2.7 14.1 2.9.1.2 0 .2-.1.4.1.1-.1.2-.2.2zm-76.9-.8h76c-1.1-1-4.3-2.6-12.9-1.7-.2 0-.2 0-.3-.2-.1-.1-6.1-6.9-14.7-6.9-.2 0-.4-.2-.4-.4s-.3-5.2-6-6.2c-5.6-1.1-6.7 3.8-6.8 3.9 0 .2-.1.2-.2.3-.1.1-.2.1-.4 0-.1 0-4.4-2.2-10.2 0-5.6 2.2-4.6 8.6-4.6 8.8 0 .2 0 .2-.1.3-.1.1-.2.2-.3.2-4.3-.1-15.2 0-19.1 1.9z" id="XMLID_164_"/><defs><path id="SVGID_9_" d="M166.6 171.7s3.7-4.2 8.9-4.2c0 0 .2-3.2 3.8-3.9 3.6-.7 4.3 2.5 4.3 2.5s2.6-1.4 6.2 0 2.9 5.6 2.9 5.6 10.3-.3 12.1 1.6h-46.5c.1 0 1.1-2.3 8.3-1.6z"/></defs><clipPath id="SVGID_10_"><use xlink:href="#SVGID_9_" style="overflow:visible"/></clipPath><path class="st3" d="M204.9 173.7h-46.6c-.2 0-.3-.1-.4-.2-.1-.2 0-.2.1-.4.5-.7 2.2-2.4 8.4-1.8.7-.7 4.1-4 8.8-4.2.2-1 1-3.3 4-3.9 3-.6 4.3 1.4 4.7 2.4.9-.3 3.3-1 6.1.2 3.1 1.2 3.3 4.3 3.2 5.5 2.2-.1 10.3-.1 12 1.7.1.2.2.3.1.5s-.2.2-.4.2zm-45.5-.9h43.7c-2.7-.7-8.1-.8-10.3-.7-.1 0-.2-.1-.3-.2-.1-.1-.1-.2-.1-.3 0-.2.7-3.8-2.6-5.1-3.4-1.3-5.9 0-5.9 0-.1.1-.2.1-.4 0-.1-.1-.2-.2-.2-.3 0-.1-.7-2.8-3.8-2.2-3.3.7-3.4 3.5-3.4 3.5 0 .2-.2.4-.4.4-5.1 0-8.6 4-8.6 4-.1.1-.2.2-.3.2-4.6-.4-6.5.2-7.4.7z" style="opacity:.5;clip-path:url(#SVGID_10_);enable-background:new"/><path class="st3" d="M204.9 173.7h-46.6c-.2 0-.3-.1-.4-.2-.1-.2 0-.2.1-.4.5-.7 2.2-2.4 8.4-1.8.7-.7 4.1-4 8.8-4.2.2-1 1-3.3 4-3.9 3-.6 4.3 1.4 4.7 2.4.9-.3 3.3-1 6.1.2 3.1 1.2 3.3 4.3 3.2 5.5 2.2-.1 10.3-.1 12 1.7.1.2.2.3.1.5s-.2.2-.4.2zm-45.5-.9h43.7c-2.7-.7-8.1-.8-10.3-.7-.1 0-.2-.1-.3-.2-.1-.1-.1-.2-.1-.3 0-.2.7-3.8-2.6-5.1-3.4-1.3-5.9 0-5.9 0-.1.1-.2.1-.4 0-.1-.1-.2-.2-.2-.3 0-.1-.7-2.8-3.8-2.2-3.3.7-3.4 3.5-3.4 3.5 0 .2-.2.4-.4.4-5.1 0-8.6 4-8.6 4-.1.1-.2.2-.3.2-4.6-.4-6.5.2-7.4.7z" id="XMLID_163_"/><path class="st6" d="M143.3 329.5s4.9-9.6 16-7.8c0 0 1.6-4.3 6.5-3.5 0 0-2.9-8 4.7-14 7.6-6.1 17.8-.9 17.8-.9s-.7-4.5 3.5-6.1l64.8 2.1s7.1 2 8.7 8.7c0 0 6.2-3.5 14 0s7.8 12.5 7.8 12.5 8.8-.9 9.6 11.2c0 0 5.6-7 13.8 0"/><path class="st3" d="M310.3 332.1c-.1 0-.2 0-.2-.1-2.6-2.2-5.2-3.2-7.7-3-3.4.3-5.5 2.9-5.5 2.9-.1.2-.3.2-.5.2-.2-.1-.2-.2-.3-.4-.2-4.1-1.5-7.1-3.6-8.9-2.5-2.1-5.5-1.9-5.5-1.9-.1 0-.2 0-.3-.1s-.2-.2-.2-.3c0-.1-.1-8.7-7.5-12.1s-13.6-.1-13.6 0c-.1.1-.2.1-.4 0-.1-.1-.2-.2-.2-.3-1.4-6.1-7.7-8.2-8.4-8.4l-64.6-2.1c-3.7 1.6-3.2 5.6-3.2 5.6 0 .2-.1.3-.2.4-.2.1-.3.1-.4 0-.1-.1-10.1-4.9-17.4.8-7.2 5.7-4.7 13.2-4.5 13.5.1.2 0 .3-.1.4-.1.1-.2.2-.4.2-4.5-.7-6 3.1-6 3.3-.1.2-.2.3-.5.2-10.7-1.7-15.6 7.5-15.6 7.5-.1.2-.3.3-.6.2-.2-.1-.3-.3-.2-.6.1-.1 5.1-9.7 16.1-8 .5-1 2.2-3.8 6.1-3.5-.5-2-1.5-8.7 5-13.8 6.6-5.2 15.2-2.2 17.7-1.2 0-1.4.5-4.5 3.8-5.9h.2l64.8 2.1h.1c.3.1 7 2 8.8 8.4 1.6-.7 7.2-2.9 13.9.2 7 3.2 7.9 10.6 8 12.4 1 0 3.4.2 5.6 2 2.1 1.8 3.4 4.7 3.8 8.6.9-.9 2.8-2.3 5.4-2.5 2.7-.2 5.5.8 8.3 3.2.2.2.2.4.1.6.2.4.1.4-.1.4zM163.1 335c-.3-.1-.4-.3-.4-.5.1-.4.2-.7.5-1.2.1-.2.3-.3.6-.2.2.1.3.3.2.6-.2.4-.3.7-.4 1.1-.1 0-.3.2-.5.2z"/><path class="st3" d="M166.7 330c-.2 0-.2-.1-.3-.2-.1-.2-.1-.5.2-.6 3.2-2 7-1.4 8.4-1.1.4-3.1 3.2-4.3 4.5-4.8-1.1-1.4-2.5-3.8-.9-6.1 1.8-2.6 4.8-2 5.9-1.6 1.3-2.4 3-4 5.2-4.9.2-.1.5 0 .6.2.1.2 0 .5-.2.6-2 .8-3.7 2.5-4.9 4.8-.1.2-.3.3-.6.2-.2-.1-3.4-1.5-5.2 1.2-1.8 2.5 1.2 5.4 1.3 5.5s.2.2.1.4-.2.2-.3.3c-.2 0-4.3.9-4.6 4.7 0 .2-.1.2-.2.3-.1.1-.2.1-.3.1-.1 0-4.7-1.3-8.2.9-.3.1-.4.1-.5.1zM191.7 311.1c-.2 0-.4-.2-.4-.3 0-.2.2-.4.3-.5.9-.2 1.7-.2 2.4-.1.2 0 .4.2.4.5s-.2.4-.5.4c-.6-.1-1.2-.1-2.2 0 .1 0 .1 0 0 0zM197.6 311.8h-.2s-.3-.1-.9-.2c-.2-.1-.3-.3-.2-.5.1-.2.3-.3.5-.2.2.1.3.1.5.2.6-2.1 1.8-3.8 3.5-4.7 3.1-1.8 7.1-1.1 8.3-.8l3.7-8.3c.1-.2.2-.2.4-.2h22.4c.2 0 .3.1.4.3l1.6 4.9c.1.2-.1.5-.2.5-.2.1-.5-.1-.5-.2l-1.4-4.7h-21.8l-3.7 8.4c-.1.2-.3.3-.5.2-.1 0-4.7-1.3-8 .6-1.6.9-2.7 2.5-3.2 4.7 0 .1-.1.2-.2.2-.3-.3-.4-.2-.5-.2zM261.6 320.6c-.2 0-.2-.1-.3-.2-2.4-4-6.4-1.7-6.5-1.6-.2.1-.2.1-.4 0s-.2-.2-.2-.3c0-.1-.7-7.6-5.6-10.4-4.9-2.8-10-1.1-10-1.1h-.3l-.2-.2-.9-2.9c-.1-.2.1-.5.2-.5.2-.1.5.1.5.2l.8 2.5c1.4-.3 5.8-1.1 10.2 1.3 4.5 2.5 5.6 8.5 5.9 10.4 1.2-.6 4.4-1.4 6.6 1.5.4-1.2 1.5-3.4 3.7-4.7.2-.1.5-.1.6.2.1.2.1.5-.2.6-2.8 1.7-3.5 5-3.5 5 0 .1-.1.2-.4.2.1 0 .1 0 0 0zM284.1 330c-.1 0-.2 0-.3-.1-1.5-1.4-3.7-1.3-3.8-1.3-.2 0-.2-.1-.3-.2-.1-.1-.1-.2-.1-.4.1-.4 2.6-10.6-6.6-13.3-2.5-.7-4.7-.7-6.5-.1-.2.1-.5 0-.6-.2-.1-.2 0-.5.2-.6 2-.7 4.4-.7 7 .1 8.8 2.6 7.8 11.5 7.3 13.8.8.1 2.5.3 3.8 1.5.2.2.2.4 0 .6.2.2.1.2-.1.2zM285.7 333.8c-.2 0-.4-.2-.4-.4 0-.7-.1-1.1-.2-1.6-.1-.2.1-.5.3-.5.2-.1.5.1.5.3.1.5.2 1.1.2 1.8 0 .2-.2.4-.4.4z"/><path class="st7" d="M258 299.3h-22.5l5.7-10.4h11.3z"/><path class="st3" d="M258 299.7h-22.5c-.2 0-.2-.1-.3-.2-.1-.2-.1-.2 0-.4l5.6-10.5c.1-.2.2-.2.4-.2h11.2c.2 0 .3.1.4.2l5.6 10.5c.1.2.1.3 0 .4 0 .2-.2.2-.4.2zm-21.8-.8h21.1l-5.2-9.7h-10.8l-5.1 9.7z"/><path class="st7" d="M210.8 299.3h-22.5l5.6-10.4h11.3z"/><path class="st3" d="M210.8 299.7h-22.5c-.2 0-.2-.1-.3-.2-.1-.2-.1-.2 0-.4l5.6-10.5c.1-.2.2-.2.4-.2h11.3c.2 0 .3.1.4.2l5.6 10.5c.1.2.1.3 0 .4-.2.2-.4.2-.5.2zm-21.9-.8H210l-5.2-9.7H194l-5.1 9.7z"/><path style="fill:#999" d="M238.4 299.3h-30.5l5.7-10.4h19.1z"/><path class="st3" d="M238.4 299.7h-30.5c-.2 0-.2-.1-.3-.2-.1-.2-.1-.2 0-.4l5.6-10.5c.1-.2.2-.2.4-.2h19.2c.2 0 .3.1.4.2l5.6 10.5c.1.2.1.3 0 .4-.2.2-.3.2-.4.2zm-29.7-.8h29l-5.2-9.7h-18.7l-5.1 9.7z"/><path class="st9" d="M256.5 289.5H237V186.6c0-12 3.4-23.8 9.8-34.1 6.4 10.2 9.8 22 9.8 34.1l-.1 102.9z" id="XMLID_160_"/><defs><path id="SVGID_11_" d="M256.5 289.5H237V186.6c0-12 3.4-23.8 9.8-34.1 6.4 10.2 9.8 22 9.8 34.1l-.1 102.9z"/></defs><clipPath id="SVGID_12_"><use xlink:href="#SVGID_11_" style="overflow:visible"/></clipPath><path class="st6" d="M256.5 183.9c.1.9.1 1.8.1 2.8v103h-19.5V186.6c0-.9 0-1.9.1-2.8l19.3.1z" style="opacity:.3;clip-path:url(#SVGID_12_);enable-background:new"/><defs><path id="SVGID_13_" d="M256.5 289.5H237V186.6c0-12 3.4-23.8 9.8-34.1 6.4 10.2 9.8 22 9.8 34.1l-.1 102.9z"/></defs><clipPath id="SVGID_14_"><use xlink:href="#SVGID_13_" style="overflow:visible"/></clipPath><path d="M243.4 187.3v102.2H237V186.6c0-7.6 1.3-15.1 3.9-22.2 1.6 7.5 2.5 15.2 2.5 22.9z" style="opacity:.2;clip-path:url(#SVGID_14_);enable-background:new"/><defs><path id="SVGID_15_" d="M256.5 289.5H237V186.6c0-12 3.4-23.8 9.8-34.1 6.4 10.2 9.8 22 9.8 34.1l-.1 102.9z"/></defs><clipPath id="SVGID_16_"><use xlink:href="#SVGID_15_" style="overflow:visible"/></clipPath><path d="M256.6 186.6v103H254V187.7c0-12.1-2.5-24-7.1-35.1 3.2 5.2 5.6 10.6 7.3 16.3 1.5 5.7 2.4 11.7 2.4 17.7z" style="opacity:.2;clip-path:url(#SVGID_16_);enable-background:new"/><path class="st3" d="M256.6 290H237c-.2 0-.4-.2-.4-.4v-103c0-12.2 3.4-24 9.8-34.2.2-.2.6-.2.7 0 6.5 10.2 9.8 22.1 9.8 34.2v102.9c.1.3-.1.5-.3.5zm-19.1-.9h18.7V186.6c0-11.8-3.3-23.3-9.3-33.2-6.1 10-9.3 21.5-9.3 33.2l-.1 102.5z"/><path class="st9" d="M209.3 289.5h-19.5V186.6c0-12 3.4-23.8 9.8-34.1 6.4 10.2 9.8 22 9.8 34.1l-.1 102.9z" id="XMLID_161_"/><defs><path id="SVGID_17_" d="M209.3 289.5h-19.5V186.6c0-12 3.4-23.8 9.8-34.1 6.4 10.2 9.8 22 9.8 34.1l-.1 102.9z"/></defs><clipPath id="SVGID_18_"><use xlink:href="#SVGID_17_" style="overflow:visible"/></clipPath><path class="st6" d="M209.2 183.7c.1 1 .1 2 .1 2.9v103h-19.5v-103c0-1 .1-2 .1-2.9h19.3z" style="opacity:.3;clip-path:url(#SVGID_18_);enable-background:new"/><defs><path id="SVGID_19_" d="M209.3 289.5h-19.5V186.6c0-12 3.4-23.8 9.8-34.1 6.4 10.2 9.8 22 9.8 34.1l-.1 102.9z"/></defs><clipPath id="SVGID_20_"><use xlink:href="#SVGID_19_" style="overflow:visible"/></clipPath><path d="M206.9 168.9c1.6 5.7 2.5 11.7 2.5 17.7v103H203V187.3c0-4.6.2-9.1.8-13.6.4-3.1.9-6.2 1.6-9.4.6 1.6 1 3.1 1.5 4.6z" style="opacity:.2;clip-path:url(#SVGID_20_);enable-background:new"/><defs><path id="SVGID_21_" d="M209.3 289.5h-19.5V186.6c0-12 3.4-23.8 9.8-34.1 6.4 10.2 9.8 22 9.8 34.1l-.1 102.9z"/></defs><clipPath id="SVGID_22_"><use xlink:href="#SVGID_21_" style="overflow:visible"/></clipPath><path d="M199.6 152.6c-4.7 11.1-7.1 23.1-7.1 35.1v101.8h-2.6v-103c-.2-11.9 3.3-23.7 9.7-33.9z" style="opacity:.2;clip-path:url(#SVGID_22_);enable-background:new"/><path class="st3" d="M209.3 290h-19.6c-.2 0-.4-.2-.4-.4v-103c0-12.2 3.4-24 9.8-34.2.2-.2.6-.2.7 0 6.5 10.2 9.8 22.1 9.8 34.2v102.9c.2.3 0 .5-.3.5zm-19.1-.9H209V186.6c0-11.8-3.3-23.3-9.3-33.2-6.2 10-9.4 21.5-9.4 33.2v102.5zM256.5 184.1h-19.2c-.2 0-.4-.2-.4-.4s.2-.4.4-.4h19.2c.2 0 .4.2.4.4 0 .3-.2.4-.4.4zM256.5 206H237c-.2 0-.4-.2-.4-.4v-1.5c0-.2.2-.4.4-.4h19.5c.2 0 .4.2.4.4v1.5c.1.2-.1.4-.4.4zm-19-.9h18.7v-.7h-18.7v.7zM256.5 247.5H237c-.2 0-.4-.2-.4-.4v-3.7c0-.2.2-.4.4-.4h19.5c.2 0 .4.2.4.4v3.7c.1.2-.2.4-.4.4zm-19-.8h18.6v-2.9h-18.6v2.9z"/><path class="st3" d="M209.1 184.1h-19.2c-.2 0-.4-.2-.4-.4s.2-.4.4-.4h19.2c.2 0 .4.2.4.4 0 .3-.2.4-.4.4zM209.3 206h-19.5c-.2 0-.4-.2-.4-.4v-1.5c0-.2.2-.4.4-.4h19.5c.2 0 .4.2.4.4v1.5c0 .2-.1.4-.4.4zm-19.1-.8h18.7v-.7h-18.7v.7zM209.3 247.6h-19.5c-.2 0-.4-.2-.4-.4v-3.7c0-.2.2-.4.4-.4h19.5c.2 0 .4.2.4.4v3.7c0 .1-.1.4-.4.4zm-19.1-.9h18.6v-2.9h-18.6v2.9z"/><path class="st9" d="M237.2 289.5H209V141.2c0-17.4 4.9-34.3 14.1-49 9.3 14.7 14.1 31.7 14.1 49v148.3z" id="XMLID_162_"/><defs><path id="SVGID_23_" d="M237.2 289.5H209V141.2c0-17.4 4.9-34.3 14.1-49 9.3 14.7 14.1 31.7 14.1 49v148.3z"/></defs><clipPath id="SVGID_24_"><use xlink:href="#SVGID_23_" style="overflow:visible"/></clipPath><path d="M237 134.3h-27.6c1.1-14.9 5.8-29.4 13.8-42.1 4.6 7.4 8.1 15.3 10.5 23.5 1.7 6.1 2.8 12.3 3.3 18.6z" class="st17" style="opacity:.2;clip-path:url(#SVGID_24_);enable-background:new"/><defs><path id="SVGID_25_" d="M237.2 289.5H209V141.2c0-17.4 4.9-34.3 14.1-49 9.3 14.7 14.1 31.7 14.1 49v148.3z"/></defs><clipPath id="SVGID_26_"><use xlink:href="#SVGID_25_" style="overflow:visible"/></clipPath><path class="st6" d="M228.3 289.5h-10.2V145.8c0-16.8 1.8-33.3 5.2-47.6 3.4 14.2 5.2 30.7 5.2 47.6l-.2 143.7z" style="opacity:.2;clip-path:url(#SVGID_26_)"/><defs><path id="SVGID_27_" d="M237.2 289.5H209V141.2c0-17.4 4.9-34.3 14.1-49 9.3 14.7 14.1 31.7 14.1 49v148.3z"/></defs><clipPath id="SVGID_28_"><use xlink:href="#SVGID_27_" style="overflow:visible"/></clipPath><path d="M237 265.7v23.9h-27.6v-23.8c1.7-1.7 2.7-3.3 2.7-3.3v-32.8c0-11.4 4.5-17.6 11.1-17.6s11.1 6.2 11.1 17.6v32.8s.9 1.5 2.7 3.2z" style="opacity:.2;clip-path:url(#SVGID_28_);enable-background:new"/><path class="st3" d="M237.2 290H209c-.2 0-.4-.2-.4-.4V141.2c0-17.4 4.9-34.4 14.2-49.3.1-.2.2-.2.3-.2.2 0 .2.1.3.2 9.3 14.7 14.2 31.8 14.2 49.3v148.2c0 .1.1.2.1.2-.1.2-.2.4-.5.4zm-27.7-.9h27.3V141.2c0-17.1-4.7-33.8-13.7-48.2-8.9 14.6-13.7 31.3-13.7 48.2l.1 147.9z"/><path class="st3" d="M237.2 162.9H209c-.2 0-.4-.2-.4-.4v-3.8c0-.2.2-.4.4-.4h28.2c.2 0 .4.2.4.4v3.8c0 .2-.1.4-.4.4zm-27.7-.9h27.3v-2.9h-27.3v2.9zM237.2 205.9H209c-.2 0-.4-.2-.4-.4v-13.9c0-.2.2-.4.4-.4h28.2c.2 0 .4.2.4.4v13.9c0 .3-.1.4-.4.4zm-27.7-.8h27.3v-13h-27.3v13zM237.2 269.3H209c-.2 0-.4-.2-.4-.4v-11.2c0-.2.2-.4.4-.4h28.2c.2 0 .4.2.4.4v11.2c0 .2-.1.4-.4.4zm-27.7-.8h27.3v-10.4h-27.3v10.4z"/><path class="st9" d="M233.2 263.9v-15.3h-3.1V286h15.4v-7c0-1.8-.8-3.5-2.3-4.6l-7.4-5.3c-1.6-1.2-2.6-3.1-2.6-5.2z"/><path class="st3" d="M245.5 286.5h-15.4c-.2 0-.4-.2-.4-.4v-37.5c0-.2.2-.4.4-.4h3.1c.2 0 .4.2.4.4v15.3c0 1.9.9 3.7 2.5 5l7.4 5.3c1.6 1.1 2.5 2.9 2.5 4.9v7c-.1.2-.3.4-.5.4zm-15-.8h14.6v-6.5c0-1.6-.8-3.3-2.1-4.2l-7.4-5.3c-1.8-1.4-2.8-3.4-2.8-5.6v-14.9h-2.2l-.1 36.5z"/><path class="st9" d="M213.2 263.9v-15.3h3.1V286h-15.4v-7c0-1.8.8-3.5 2.3-4.6l7.4-5.3c1.6-1.2 2.6-3.1 2.6-5.2z"/><path class="st3" d="M216.3 286.5h-15.4c-.2 0-.4-.2-.4-.4v-7c0-2 .9-3.8 2.5-4.9l7.4-5.3c1.6-1.2 2.5-3 2.5-4.9v-15.3c0-.2.2-.4.4-.4h3.1c.2 0 .4.2.4.4v37.5c-.1.1-.3.3-.5.3zm-15-.8h14.6v-36.6h-2.2V264c0 2.1-1 4.2-2.8 5.6l-7.4 5.3c-1.3 1-2.1 2.5-2.1 4.2l-.1 6.6z"/><path class="st3" d="M245.5 283.2h-44.6c-.2 0-.4-.2-.4-.4s.2-.4.4-.4h44.6c.2 0 .4.2.4.4s-.2.4-.4.4z"/><path class="st9" d="M228.1 289.5h-9.9l-1.7-4.8h13.3z"/><path class="st3" d="M228.1 290h-9.8c-.2 0-.3-.1-.4-.2l-1.7-4.9c-.1-.2 0-.2.1-.4.1-.1.2-.2.3-.2h13.2c.2 0 .2.1.3.2.1.1.1.2.1.4l-1.7 4.9c-.1 0-.3.2-.4.2zm-9.5-.9h9.3l1.4-4h-12l1.3 4z"/><path class="st6" d="M233.2 229.7V286h-20.1v-56.3c0-3.9 1-7.8 2.7-11.3.7-1.4 1.6-2.8 2.5-4 1.1-1.6 2.9-2.3 4.7-2.3s3.5.8 4.7 2.3c1 1.3 1.9 2.6 2.5 4 .5 1 1 2 1.3 3.2 1.3 2.6 1.7 5.4 1.7 8.1z" id="XMLID_1_"/><defs><path id="SVGID_29_" d="M233.2 229.7V286h-20.1v-56.3c0-3.9 1-7.8 2.7-11.3.7-1.4 1.6-2.8 2.5-4 1.1-1.6 2.9-2.3 4.7-2.3s3.5.8 4.7 2.3c1 1.3 1.9 2.6 2.5 4 .5 1 1 2 1.3 3.2 1.3 2.6 1.7 5.4 1.7 8.1z"/></defs><clipPath id="SVGID_30_"><use xlink:href="#SVGID_29_" style="overflow:visible"/></clipPath><path class="st9" d="M233.2 229.7V286h-4.9v-54.9c0-2.7-.2-5.4-.7-7.9-.2-1.1-.4-2-.7-3.1-.3-1.4-.8-2.7-1.3-3.9-.7-1.6-1.5-2.3-2.4-2.3-.9 0-1.8.8-2.4 2.3-.5 1.2-.9 2.5-1.3 3.9-.9 3.4-1.3 7.1-1.3 11.1v54.9H213v-56.3c0-3.9.9-7.8 2.7-11.3.7-1.4 1.6-2.8 2.5-4 1.1-1.6 2.9-2.3 4.7-2.3s3.5.8 4.7 2.3c1 1.3 1.9 2.6 2.5 4 .5 1 1 2 1.3 3.2 1.3 2.5 1.8 5.3 1.8 8z" style="opacity:.3;clip-path:url(#SVGID_30_);enable-background:new"/><path class="st3" d="M233.2 286.4h-20.1c-.2 0-.4-.2-.4-.4v-56.3c0-3.9 1-7.9 2.8-11.5.7-1.4 1.6-2.8 2.5-4.1 1.1-1.6 3-2.5 5.2-2.5 2 0 3.8.9 5.1 2.5 1.1 1.3 1.9 2.7 2.6 4.1.5 1 1 2.1 1.4 3.3.9 2.6 1.4 5.4 1.4 8.3v56.3c0 .1-.2.3-.5.3zm-19.6-.8h19.2v-55.9c0-2.8-.4-5.4-1.3-7.9-.4-1.1-.8-2.1-1.3-3.2-.7-1.4-1.5-2.7-2.5-4-1.1-1.4-2.7-2.1-4.4-2.1-1.8 0-3.4.8-4.4 2.1-.9 1.2-1.8 2.6-2.5 4-1.7 3.4-2.6 7.3-2.6 11.1v55.9h-.2z"/><path class="st6" d="M227.4 229.1c-1.6-5-6.8-5-8.4 0-.7-.4-1.2-.8-1.9-1.1 2.4-7.1 9.7-7.1 12.1 0-.7.3-1.1.7-1.8 1.1z"/><path d="M227.4 229.1c-1.6-5-6.8-5-8.4 0-.7-.4-1.2-.8-1.9-1.1 2.4-7.1 9.7-7.1 12.1 0-.7.3-1.1.7-1.8 1.1z" style="fill:#bfbfbf"/><path class="st3" d="m227.2 229.7-.2-.5c-.7-2.1-2.1-3.4-3.8-3.4-1.6 0-3.1 1.3-3.8 3.4l-.2.5-.5-.3c-.7-.4-1.2-.8-1.8-1.1l-.3-.2.1-.3c1.1-3.5 3.6-5.6 6.5-5.6 2.8 0 5.3 2.1 6.5 5.6l.1.3-.3.2c-.4.2-.8.5-1.2.7-.2.1-.3.2-.5.3l-.6.4zm-9.5-1.9c.4.2.7.4 1.1.7.9-2.2 2.5-3.5 4.4-3.5 1.9 0 3.5 1.3 4.4 3.5 0 0 .1 0 .1-.1.3-.2.7-.4 1-.7-1.1-2.9-3.2-4.7-5.6-4.7-2.3 0-4.4 1.8-5.4 4.8z"/><path class="st9" d="M230.5 218.4h-14.7c.7-1.4 1.6-2.8 2.5-4 1.1-1.6 2.9-2.3 4.7-2.3s3.5.8 4.7 2.3c1.3 1.3 2.1 2.6 2.8 4z"/><path class="st3" d="M230.5 218.9h-14.7c-.2 0-.2-.1-.3-.2-.1-.2-.1-.2 0-.4.7-1.4 1.6-2.8 2.5-4.1 1.1-1.6 3-2.5 5.2-2.5 2 0 3.8.9 5.1 2.5 1 1.3 1.8 2.7 2.5 4.1.1.2.1.3 0 .4 0 .1-.1.2-.3.2zm-13.9-.9h13.2c-.7-1.1-1.4-2.3-2.1-3.4-1.1-1.4-2.7-2.1-4.4-2.1-1.8 0-3.4.8-4.4 2.1-1 1.1-1.6 2.2-2.3 3.4z"/><path class="st6" d="M304.4 277.6c.2 9-4.3 8.3-4.3 8.3-.2-.7-.9-1.7-1.7-2.9-2.3-3.6-5.9-8.6-4.6-11.6.7-1.3 1.7-3.3 2.9-5.2 2.4-3.7 5.2-7.4 5.2-7.4l-11.9-2s-8.4 3.5-15.1 3.8h-.5c-6.1.1-5.2-4.7-5.2-6.2 0-.7 1.6-1.9 3.6-3 2.8-1.7 6.1-3.4 6.1-3.4l-1.8-3.7c-1.2.2-2.3.2-3.1.2-4.6-.5-4-5.1-3.3-7 .2-.6 1.3-1.4 2.8-2.5 4.7-3.1 13.8-7.5 13.8-7.5h13.3l13.2 35.9c.2.1-9.6 5.2-9.4 14.2z"/><g class="st22"><path class="st9" d="M304.4 277.6c.2 9-4.3 8.3-4.3 8.3-.2-.7-.9-1.7-1.7-2.9-2.3-3.6-5.9-8.6-4.6-11.6.7-1.3 1.7-3.3 2.9-5.2 2.4-3.7 5.2-7.4 5.2-7.4l-11.9-2s-8.4 3.5-15.1 3.8h-.5c-6.1.1-5.2-4.7-5.2-6.2 0-.7 1.6-1.9 3.6-3 2.8-1.7 6.1-3.4 6.1-3.4l-1.8-3.7c-1.2.2-2.3.2-3.1.2-4.6-.5-4-5.1-3.3-7 .2-.6 1.3-1.4 2.8-2.5 4.7-3.1 13.8-7.5 13.8-7.5h13.3l13.2 35.9c.2.1-9.6 5.2-9.4 14.2z"/></g><g class="st22"><path class="st9" d="M304.4 277.6c.2 9-4.3 8.3-4.3 8.3-.2-.7-.9-1.7-1.7-2.9.2-.8.2-1.7.2-2.6-.1-3.1-2.6-8.9-2.6-8.9l2.6-4.1c-.4-.4-1-.7-1.8-1.1 2.4-3.7 5.2-7.4 5.2-7.4l-11.9-2s-8.4 3.5-15.1 3.8h-.5c.4-3.4-1-7.5-1.6-9.3 2.8-1.7 6.1-3.4 6.1-3.4l-1.8-3.7c-1.2.2-2.3.2-3.1.2.7-2.9 0-7-.4-9.4 4.7-3.1 13.8-7.5 13.8-7.5h13.3l13.2 35.9s-9.8 5.1-9.6 14.1z"/></g><path class="st3" d="M300.4 286.2h-.3c-.2 0-.2-.2-.3-.2-.3-.9-1.1-2.1-2.2-3.7-2.4-3.7-5.4-8.2-4-11.1 1.6-3.4 6.3-10.1 7.8-12l-11.1-1.8c-1.1.4-8.9 3.5-15.1 3.8-2.2.2-3.8-.3-4.9-1.3-1.4-1.4-1.2-3.4-1.2-4.7v-.6c0-1.6 6.9-5.2 9.5-6.6l-1.5-3c-2.9.5-5 0-6.1-1.4-1.4-1.6-1.1-4.3-.4-6.1.9-2.5 15.2-9.3 16.9-10.2.1 0 .1-.1.2-.1H301c.2 0 .4.2.4.4s-.2.4-.4.4h-13.2c-6.1 2.9-15.7 8-16.4 9.7-.5 1.2-1 3.8.2 5.2 1 1.2 2.9 1.6 5.6 1.1.2 0 .4.1.5.2l1.8 3.7c.1.2 0 .5-.2.6-4.6 2.2-9.4 5.2-9.4 6.1v.7c-.1 1.1-.2 2.9 1 4 .8.8 2.3 1.2 4.3 1.1 6.5-.4 14.9-3.8 15-3.8h.2l11.9 2c.2 0 .2.1.3.2.1.2 0 .3-.1.4s-6.3 8.6-8 12.4c-1.1 2.5 1.8 7 4 10.3.9 1.4 1.7 2.7 2.1 3.6.3 0 1-.1 1.6-.7.9-.8 2-2.7 1.9-7.1-.2-9.2 9.7-14.4 9.8-14.4.2-.1.5 0 .6.2.1.2 0 .5-.2.6-.1.1-9.6 5.1-9.3 13.7.1 3.8-.7 6.5-2.1 7.9-1.1.5-2 .5-2.5.5z"/><path class="st3" d="M302.9 271.7c-.2 0-.3-.1-.4-.2-.5-.9-1.1-1.5-2-1.7-1.3-.4-2.6.3-2.6.3-.2.1-.5 0-.6-.2s0-.5.2-.6c.1 0 1.6-.9 3.3-.4 1 .3 1.9 1 2.5 2.1.1.2 0 .5-.2.6 0 .1-.1.1-.2.1zM304.2 201.3h-2.6v-27.4c0-.4.2-.7.7-.7h1.3c.4 0 .7.2.7.7l-.1 27.4z"/><path class="st3" d="M302.1 143.7h1.6v30.8h-1.6z"/><path class="st7" d="M301.8 140.7h2.1v4.2h-2.1z"/><path class="st3" d="M304 145.3h-2.1c-.2 0-.4-.2-.4-.4v-4.2c0-.2.2-.4.4-.4h2.1c.2 0 .4.2.4.4v4.2c0 .2-.2.4-.4.4zm-1.8-.9h1.3V141h-1.3v3.4z"/><g class="st23"><path class="st6" d="M302.4 195.1c-.2 0-.4-.2-.4-.4v-.6c0-.2.2-.4.4-.4s.4.2.4.4v.6c0 .2-.2.4-.4.4z"/></g><g class="st23"><path class="st6" d="M302.4 193.1c-.2 0-.4-.2-.4-.4V174c0-.2.2-.4.4-.4h1.1c.2 0 .4.2.4.4s-.2.4-.4.4h-.7v18.3c0 .3-.2.4-.4.4z"/></g><g class="st23"><path class="st6" d="M302.8 165.1c-.2 0-.4-.2-.4-.4v-1.1c0-.2.2-.4.4-.4s.4.2.4.4v1.1c0 .2-.2.4-.4.4z"/></g><g class="st23"><path class="st6" d="M302.8 161.9c-.2 0-.4-.2-.4-.4v-15.6c0-.2.2-.4.4-.4s.4.2.4.4v15.6c0 .1-.2.4-.4.4z"/></g><path class="st7" d="M326 260.7h-46.2c-1.7 0-3-1.3-3-3v-54.9c0-1.7 1.3-3 3-3H326c1.7 0 3 1.3 3 3v54.9c0 1.7-1.3 3-3 3z" id="XMLID_159_"/><defs><path id="SVGID_31_" d="M326 260.7h-46.2c-1.7 0-3-1.3-3-3v-54.9c0-1.7 1.3-3 3-3H326c1.7 0 3 1.3 3 3v54.9c0 1.7-1.3 3-3 3z"/></defs><clipPath id="SVGID_32_"><use xlink:href="#SVGID_31_" style="overflow:visible"/></clipPath><path class="st6" d="M278.7 249.8v-46.3c0-1.1 1-2.2 2.2-2.2h42.5c.2 0 .3-.1.4-.2.2-.3-.1-.8-.4-.8h-43.2c-1.4 0-2.5 1.1-2.5 2.5V250c0 .5.7.7.9.3l.1-.1c-.1-.2 0-.3 0-.4z" style="opacity:.2;clip-path:url(#SVGID_32_);enable-background:new"/><defs><path id="SVGID_33_" d="M326 260.7h-46.2c-1.7 0-3-1.3-3-3v-54.9c0-1.7 1.3-3 3-3H326c1.7 0 3 1.3 3 3v54.9c0 1.7-1.3 3-3 3z"/></defs><clipPath id="SVGID_34_"><use xlink:href="#SVGID_33_" style="overflow:visible"/></clipPath><path d="M329 202.8v54.9c0 1.7-1.3 3-3 3h-46.2c-.7 0-1.4-.2-2-.7 1.3-1 2.6-1.4 2.6-1.4h44.5c1.2 0 2.2-1 2.2-2.2V204c.6-1 1.1-1.7 1.7-2.2.2.3.2.6.2 1z" class="st17" style="opacity:.4;clip-path:url(#SVGID_34_);enable-background:new"/><defs><path id="SVGID_35_" d="M326 260.7h-46.2c-1.7 0-3-1.3-3-3v-54.9c0-1.7 1.3-3 3-3H326c1.7 0 3 1.3 3 3v54.9c0 1.7-1.3 3-3 3z"/></defs><clipPath id="SVGID_36_"><use xlink:href="#SVGID_35_" style="overflow:visible"/></clipPath><path d="M329 245.1v12.5c0 1.7-1.3 3-3 3h-27.7l-.3-2c.2-.9 0-4.7 0-4.7-1.8-4.7 0-11.9 0-11.9l11.2-6.9s7.5 4.1 8.9 5.6c1.5 1.6 2.6 11.1 2.6 11.1 1.5-.3 4.1-2.5 6.5-4.7.6-.7 1.3-1.4 1.8-2z" class="st17" style="opacity:.2;clip-path:url(#SVGID_36_);enable-background:new"/><path class="st3" d="M326 261.1h-46.2c-1.9 0-3.4-1.6-3.4-3.4v-54.9c0-1.9 1.6-3.4 3.4-3.4H326c1.9 0 3.4 1.6 3.4 3.4v54.9c.1 1.8-1.5 3.4-3.4 3.4zm-46.2-60.9c-1.5 0-2.6 1.1-2.6 2.6v54.9c0 1.5 1.1 2.6 2.6 2.6H326c1.5 0 2.6-1.1 2.6-2.6v-54.9c0-1.5-1.1-2.6-2.6-2.6h-46.2z"/><path class="st3" d="M327.2 251.2c-.2 0-.4-.2-.4-.4v-1.7c0-.2.2-.4.4-.4s.4.2.4.4v1.7c0 .2-.1.4-.4.4zM327.1 247.3c-.2 0-.4-.2-.4-.4v-43c0-.9-.7-1.6-1.6-1.6h-28.8c-.2 0-.4-.2-.4-.4s.2-.4.4-.4h28.8c1.4 0 2.5 1.1 2.5 2.5v43c-.1.2-.2.3-.5.3zM278.7 211.9c-.2 0-.4-.2-.4-.4V204c0-1.4 1.1-2.5 2.5-2.5h9.3c.2 0 .4.2.4.4s-.2.4-.4.4h-9.3c-.9 0-1.6.7-1.6 1.6v7.5c-.1.3-.3.5-.5.5zM278.7 217.1c-.2 0-.4-.2-.4-.4v-1.5c0-.2.2-.4.4-.4s.4.2.4.4v1.5c0 .1-.2.4-.4.4zM287.9 259.1h-7.1c-1.4 0-2.5-1.1-2.5-2.5v-37.1c0-.2.2-.4.4-.4s.4.2.4.4v37.1c0 .9.7 1.6 1.6 1.6h7.1c.2 0 .4.2.4.4.1.2-.1.5-.3.5zM325.1 259.1H290c-.2 0-.4-.2-.4-.4s.2-.4.4-.4h35.1c.9 0 1.6-.7 1.6-1.6 0-.2.2-.4.4-.4s.4.2.4.4c.1 1.2-1 2.4-2.4 2.4z"/><circle class="st9" cx="302.9" cy="235.1" r="10.6" id="XMLID_158_"/><defs><circle id="SVGID_37_" cx="302.9" cy="235.1" r="10.6"/></defs><clipPath id="SVGID_38_"><use xlink:href="#SVGID_37_" style="overflow:visible"/></clipPath><path d="M313.5 235.1c0 5.8-4.7 10.6-10.6 10.6-2.8 0-5.3-1.1-7.2-2.8.2-.6.7-1.1 1.6-1.8 0 0 6.1 5.2 11.7-.3 4.3-4.3.6-10.5.6-10.5s.6-.7 2.2-.9c1.1 1.6 1.7 3.5 1.7 5.7z" class="st17" style="opacity:.2;clip-path:url(#SVGID_38_);enable-background:new"/><defs><circle id="SVGID_39_" cx="302.9" cy="235.1" r="10.6"/></defs><clipPath id="SVGID_40_"><use xlink:href="#SVGID_39_" style="overflow:visible"/></clipPath><path d="M296.7 237.5c-.2.1-.4.1-.7-.2-.1-.2-.2-.4-.2-.7-.7-4.5 1.6-8.8 6.5-9.2.9-.1 3.2 0 2.9 1.5-.1.4-.4.8-.8 1.1-1.3 1-2.8 1.8-4.1 2.9-.7.6-1.2 1.1-1.7 1.9-.3.4-1.1 2.4-1.9 2.7z" class="st17" style="opacity:.2;clip-path:url(#SVGID_40_);enable-background:new"/><path class="st3" d="M302.9 246.1c-6.1 0-11-4.9-11-11s4.9-11 11-11 11 4.9 11 11-5 11-11 11zm0-21.2c-5.6 0-10.2 4.6-10.2 10.2s4.6 10.2 10.2 10.2 10.2-4.6 10.2-10.2c-.1-5.6-4.6-10.2-10.2-10.2z"/><path class="st3" d="M294.7 235.6c-.2 0-.4-.2-.4-.4 0-4.7 3.8-8.6 8.6-8.6.2 0 .4.2.4.4s-.2.4-.4.4c-4.3 0-7.8 3.5-7.8 7.8 0 .1-.2.4-.4.4zM300.8 243.5c-3.3-.8-5.6-3.4-6.3-6.6-.1-.2.1-.5.3-.5.2-.1.5.1.5.3.6 2.9 2.7 5.2 5.6 6 .2.1.3.3.3.5-.1.1-.3.3-.4.3zM303 243.7c-.2 0-.4-.2-.4-.4s.2-.4.4-.4c4.3 0 7.8-3.5 7.8-7.8 0-2.3-1.1-4.4-2.9-6-.2-.2-.2-.4-.1-.6.2-.2.4-.2.6-.1 2 1.7 3.1 4.1 3.1 6.6.1 4.9-3.8 8.7-8.5 8.7zM306.6 228.2h-.2c-.6-.2-1.2-.5-1.9-.7-.2-.1-.3-.2-.3-.5.1-.2.3-.3.5-.3.7.2 1.4.4 2 .7.2.1.3.3.2.6-.1.1-.2.2-.3.2z"/><path class="st6" d="M295.4 211.2c1.1 0 1.6.7 1.6 1.8v.2h-1.1v-.2c0-.5-.2-.7-.6-.7s-.6.2-.6.7c0 .5.2.9 1 1.6 1 .8 1.2 1.4 1.2 2.2 0 1.1-.6 1.8-1.7 1.8s-1.7-.7-1.7-1.8v-.4h1.1v.5c0 .5.2.7.6.7s.6-.2.6-.7c0-.5-.2-.9-1-1.6-1-.8-1.2-1.4-1.2-2.2.1-1.2.7-1.9 1.8-1.9zM297.3 211.3h3.5v1h-1.1v6.1h-1.1v-6.1h-1.1l-.2-1zM304.5 218.4h-1.1l-.2-1.3h-1.3l-.2 1.3h-1l1.1-7.1h1.6l1.1 7.1zm-2.5-2.2h1.1l-.5-3.6-.6 3.6zM307.4 218.4c-.1-.2-.1-.2-.1-.9v-1.1c0-.7-.2-.9-.7-.9h-.4v2.9H305v-7.1h1.7c1.1 0 1.7.6 1.7 1.6v.6c0 .7-.2 1.1-.7 1.5.6.2.7.8.7 1.6v1.1c0 .3 0 .7.1.8l-1.1-.1zm-1.2-6.1v2.2h.4c.4 0 .7-.2.7-.7v-.8c0-.5-.2-.7-.6-.7h-.5zM308.8 211.3h3.5v1h-1.1v6.1H310v-6.1h-1.1l-.1-1z"/><path class="st3" d="M329.4 222.2h-.2c-.2-.1-.3-.3-.2-.6 1.6-4 6.1-5.4 6.3-5.5.2-.1.5.1.5.2.1.2-.1.5-.2.5s-4.3 1.3-5.7 5c-.2.3-.3.4-.5.4z"/><path class="st6" d="M355.5 339.1c-.5-8.6-.8-17.4-1.2-24.5-.9-14.7-1.6-24.6-2.9-34.5-1.3-10-1.1-25.1-1.8-30.5s-2.6-6.4-4.3-12.7c-1.6-6.3-2.9-18.7-5.6-20.5-2.6-1.7-10.5-5.1-10.5-5.1v35.5c-4.7 7.2-10.2 8.9-10.2 8.9-3.5-10.3-3.1-14.4-6.7-18.2-3.5-3.8-6.1-8.7-11.7-6.6-2.6 1-4.1 2-2.8 11.1 1.3 9 4 11.9 4 11.9.4 3.1-.2 12-1.3 16.6-1.1 4.6 3.1 16.8 5.2 24.6s12.7 23.6 12.7 23.6.4 8.7-.4 17.8c-.1.8-.2 1.7-.2 2.6 0 0 4.9 7.6 10.2 7.6 19.7 0 27.5-7.6 27.5-7.6z"/><g class="st22"><path class="st9" d="M298.8 233.7c.2-.8.2-1.3 0-1.6.5-.5 1.1-.8 2-1.1 5.6-2 8.2 2.9 11.7 6.6.3.3.7.7.9 1.1-3.2-1.2-7.5-1.1-9.2 1.1-2.1 3-6.5-2.3-5.4-6.1z"/></g><g class="st22"><path class="st9" d="m322.9 330.4 1.7 6.5s-2.5-2.5-6.2-8.4c.2-5.7-.1-10.1-.1-10.1s-10.7-15.8-12.7-23.6c-2-7.8-6.2-20-5.2-24.6 1.1-4.6 1.8-13.6 1.3-16.6 0 0-.6-.7-1.3-2.1.5-.4 1.1-.8 1.7-1 0 0 2.9 6.7 2.2 15.7-.7 8.9.8 9.6 3.8 21.2 2.9 11.6 7.8 24.7 10.2 27 2.5 2.5 3.5 13.3 4.6 16z"/></g><g class="st22"><path class="st9" d="M327.2 252.5s3.5.6 4.9 1.3c0 0-6.9 1.8-7.3 3.7-.4 1.9-1.9 3.8-4.5 1.6 0 0-.1-1.5-.4-3.5 1.6-.7 5.8-3 9.5-8.7v-35.4s3.8 1.6 7.1 3.2c-2.4.3-4.8 1.1-5.8 2.6 0 0 .7 2.9 4 4.4 2.5 1.1 0 20.2 0 20.2s4.2 1 5.5 4.8c0 0-6.8.7-9.6 2.9-2.8 2.3-3.4 2.9-3.4 2.9z"/></g><g class="st22"><path class="st9" d="M354.3 314.7c.3 5.7.7 12.6 1 19.6-.9-13.2-3.5-36-3.5-36s-2.4 8.4-2.5 7.5c-.5-2.6 1.1-17.5 1-22.8-.1-2.5.1-8.5.3-14.6.2 4.1.4 8.3 1 11.8 1.1 10 1.8 19.8 2.7 34.5z"/></g><path class="st3" d="M355.5 339.6c-.2 0-.4-.2-.4-.4-.2-4.8-.5-9.7-.7-14.4-.2-3.6-.3-7-.5-10.1-.9-14.2-1.6-24.2-2.9-34.5-.8-5.9-1.1-13.7-1.2-20-.2-4.4-.2-8.3-.6-10.5-.3-2.8-1.1-4.4-2-6.2-.7-1.6-1.6-3.4-2.3-6.3-.5-1.9-.9-4.3-1.4-6.7-1.1-5.5-2.3-12.4-4-13.5-2.1-1.4-7.9-3.9-9.8-4.7v34.5c0 .1 0 .2-.1.2-4.7 7.2-10.2 9-10.5 9.1s-.5-.1-.5-.2c-1.3-3.8-2-6.7-2.7-9.2-1.1-4.1-1.7-6.5-3.9-8.8-.7-.7-1.2-1.4-1.9-2.1-2.7-3.2-5.1-6.1-9.4-4.4-2.2.8-3.8 1.4-2.5 10.6 1.3 8.7 3.8 11.6 3.8 11.6.1.1.1.2.1.2.5 3.2-.2 12.4-1.4 16.8-.8 3.4 1.5 11.4 3.4 18.4.6 2.1 1.2 4.2 1.6 6 2 7.6 12.5 23.3 12.6 23.4.1.1.1.2.1.2s.4 8.8-.5 17.9c-.1.8-.2 1.7-.2 2.6 0 .2-.2.4-.5.4-.2 0-.4-.2-.3-.5.1-.9.2-1.8.2-2.6.8-8.4.5-16.6.5-17.7-1-1.5-10.7-16.1-12.6-23.6-.5-1.8-1.1-3.8-1.6-5.9-2-7.1-4.3-15.2-3.4-18.8 1.1-4.3 1.8-13.1 1.4-16.4-.5-.6-2.8-3.8-4-12-1.3-8.9 0-10.4 3-11.5 4.8-1.8 7.6 1.5 10.3 4.7.6.7 1.2 1.4 1.8 2 2.4 2.5 3 5 4.1 9.3.6 2.3 1.3 5.1 2.5 8.7 1.3-.6 5.7-2.7 9.6-8.5v-35.3c0-.2.1-.2.2-.3.1-.1.2-.1.4 0 .3.2 7.9 3.4 10.6 5.1 2 1.3 3.2 7.8 4.3 14.1.5 2.5.9 4.8 1.4 6.7.7 2.9 1.6 4.6 2.2 6.2.9 2 1.6 3.6 2 6.5.2 2.2.4 6.1.6 10.6.2 6.2.5 14 1.2 19.9 1.3 10.3 2 20.4 2.9 34.5.2 3.1.3 6.5.5 10.1.2 4.7.5 9.6.7 14.4.2.2.1.3-.2.4z"/><path class="st3" d="M324.8 262.8c-.8 0-1.8-.2-2.6-.6-2.4-1.2-3.5-6.1-3.5-6.4-.1-.2.1-.5.3-.5.2-.1.5.1.5.3.3 1.3 1.5 4.9 3.1 5.8 2 1.1 5 0 5.1 0 .2-.1.5 0 .6.2s0 .5-.2.6c-.2.1-1.6.6-3.3.6zM329.4 247.3h-.2c-.2-.1-.3-.3-.2-.6 0-.1.8-1.8 2.9-2.5 2-.6 4.3-.1 7 1.6.2.1.2.4.2.6-.1.2-.4.2-.6.2-2.5-1.5-4.6-2-6.3-1.5-1.7.5-2.4 2-2.4 2-.1.1-.3.2-.4.2zM329.4 227.3c-.1 0-.1 0 0 0-.3-.1-.5-.2-.4-.5 0-.1.6-2.9 4.4-3.7.2-.1.4.1.5.3.1.2-.1.4-.3.5-3.3.6-3.8 2.9-3.8 2.9-.1.4-.2.5-.4.5zM324.9 344.4c-.2 0-.4-.2-.4-.4 0-.1.2-9.5-1.3-12-.7-1.1-.9-2.5-1.2-4-.5-2.6-1.2-5.8-3.8-9.1-.2-.2-.1-.4.1-.6.2-.2.4-.1.6.1 2.7 3.4 3.4 6.8 3.9 9.5.3 1.5.6 2.8 1.1 3.8 1.6 2.7 1.5 12.1 1.5 12.5-.1.1-.2.2-.5.2zM347.6 302.2c-.3-.1-.5-.2-.4-.5 0-.1 1.6-7.9 1.6-15.8v-18.6c0-.2.2-.4.4-.4s.4.2.4.4v18.6c0 8-1.6 15.9-1.6 16 0 .1-.2.3-.4.3zM302.1 254.3c-.2 0-.4-.2-.4-.4 0-.3 0-3.4 1.1-4.4.2-.2.4-.2.6 0 .2.2.2.4 0 .6-.6.6-.7 2.6-.7 3.8-.2.2-.5.4-.6.4zM304.4 244.3c-.3-.1-.4-.3-.3-.5 0-.2 1-3.3 3.6-4.4 1.4-.7 3-.5 4.7.4.2.1.3.3.2.6-.1.2-.3.3-.6.2-1.6-.7-2.9-.9-4.1-.3-2.2 1-3.1 3.8-3.1 3.8 0 .1-.2.2-.4.2zM333.5 255.1c-.1 0-.2 0-.2-.1-1.6-1.4-3.8-1.1-6.5-.7-1.4.2-2.9.4-4.3.3-.2 0-.4-.2-.4-.4s.2-.4.4-.4c1.4 0 2.9-.2 4.2-.3 2.8-.3 5.4-.7 7.3 1 .2.2.2.4 0 .6h-.5z"/></g></svg>