<svg version="1.1" id="Layer_1" xmlns="http://www.w3.org/2000/svg" xmlns:xlink="http://www.w3.org/1999/xlink" x="0" y="0" viewBox="0 0 500 375" style="enable-background:new 0 0 500 375" xml:space="preserve"><style>.st0{clip-path:url(#SVGID_2_)}.st3,.st7,.st8{fill:none;stroke:#1a2e35;stroke-linejoin:round}.st7,.st8{stroke-linecap:round;stroke-miterlimit:10}.st8{fill:#5ae4a7}.st9{opacity:.3;fill-opacity:.7}.st11,.st16{stroke-linecap:round;stroke-linejoin:round;stroke-miterlimit:10}.st11{clip-path:url(#XMLID_2_);fill:#5ae4a7;stroke:#1a2e35}.st16{opacity:.4;fill:none;stroke:#000;stroke-width:2}.st17{opacity:.7}.st18{fill:#fff}.st19{opacity:.4;fill:#5ae4a7}</style><defs><circle id="SVGID_1_" cx="250" cy="187.5" r="140"/></defs><clipPath id="SVGID_2_"><use xlink:href="#SVGID_1_" style="overflow:visible"/></clipPath><g class="st0"><path d="M-65.4 210c-6.3-29.5-4.6-60.7 8.3-92.5 16.6-40.9 52.1-70 92-87 58-24.7 114.9-25.2 162-73.5 14.5-14.9 26.7-32 41.6-46.6 43.8-43.1 107.8-37.8 155.7-3.7C494-22 529.9 119.1 524.3 235.7c-2.5 52.4-27.5 101.1-67.1 135.4-89.5 77.7-241.4 64.6-344.2 24.1C36.3 365-47.4 294.4-65.4 210z" style="fill:#5ae4a7"/><path d="M-65.4 210c-6.3-29.5-4.6-60.7 8.3-92.5 16.6-40.9 52.1-70 92-87 58-24.7 114.9-25.2 162-73.5 14.5-14.9 26.7-32 41.6-46.6 43.8-43.1 107.8-37.8 155.7-3.7C494-22 529.9 119.1 524.3 235.7c-2.5 52.4-27.5 101.1-67.1 135.4-89.5 77.7-241.4 64.6-344.2 24.1C36.3 365-47.4 294.4-65.4 210z" style="opacity:.7;fill:#fff"/></g><g class="st0"><path class="st3" d="M337.1 117.5h-3.5"/><path style="fill:none;stroke:#1a2e35;stroke-linejoin:round;stroke-dasharray:6.9269,6.9269" d="M326.7 117.5H205.5"/><path class="st3" d="M202 117.5h-3.5M338.5 283.6v-3.5"/><path style="fill:none;stroke:#1a2e35;stroke-linejoin:round;stroke-dasharray:6.858,6.858" d="M338.5 273.3V125.8"/><path class="st3" d="M338.5 122.4v-3.5"/><path style="fill:none;stroke:#1a2e35;stroke-linejoin:round;stroke-miterlimit:10" d="M337.1 116.1h2.8v2.8h-2.8z"/><path class="st7" d="m362.2 126-20.6-8.7 8.6 20.6 2.4-7 4.6 4.6 2.6-2.6-4.6-4.6zM322.6 306.9h-20.3c-1.4 0-2.8-1.2-3-2.6l-2.3-14.1c-.2-1.4.7-2.6 2.2-2.6h20.3c1.4 0 2.8 1.2 3 2.6l2.3 14.1c.2 1.4-.8 2.6-2.2 2.6z"/><path class="st7" d="M322.6 306.9c1.4 0 2.6-1.2 2.6-2.6v-16c0-1.4-1.1-2.5-2.4-2.6l-.6-1.6c-.1-.3-.4-.5-.7-.5h-6.6c-.3 0-.6.2-.7.5l-.6 1.6h-11.1c-1.1 0-2.1.7-2.5 1.8M246.4 306.9h-20.3c-1.4 0-2.8-1.2-3-2.6l-2.3-14.1c-.2-1.4.7-2.6 2.2-2.6h20.3c1.4 0 2.8 1.2 3 2.6l2.3 14.1c.2 1.4-.8 2.6-2.2 2.6z"/><path class="st7" d="M246.4 306.9c1.4 0 2.6-1.2 2.6-2.6v-16c0-1.4-1.1-2.5-2.4-2.6l-.6-1.6c-.1-.3-.4-.5-.7-.5h-6.6c-.3 0-.6.2-.7.5l-.6 1.6h-11.1c-1.1 0-2.1.7-2.5 1.8M284.5 306.9h-20.3c-1.4 0-2.8-1.2-3-2.6l-2.3-14.1c-.2-1.4.7-2.6 2.2-2.6h20.3c1.4 0 2.8 1.2 3 2.6l2.3 14.1c.2 1.4-.8 2.6-2.2 2.6z"/><path class="st7" d="M284.5 306.9c1.4 0 2.6-1.2 2.6-2.6v-16c0-1.4-1.1-2.5-2.4-2.6l-.6-1.6c-.1-.3-.4-.5-.7-.5h-6.6c-.3 0-.6.2-.7.5l-.6 1.6h-11.1c-1.1 0-2.1.7-2.5 1.8"/><path class="st8" d="m295.6 149 5.5-6.8c1.3-1.5 1.7-3.6 1.3-5.5l-5.2-24.2c-.4-1.9-2-3.2-3.9-3.2h-10.1c-.7 0-1.4.1-2.1.3l-97.7 40 24.8 128.5c3.5 5.2 101.1-28.5 101.1-28.5 3.2-1.1 5.1-4.4 4.3-7.7l-20-84.1c-.7-3 0-6.3 2-8.8z"/><path class="st9" d="m281.3 112.2 30.9 132.5s-104.5 38.9-99.6 26.9c0 0-24.9-118.4-22.8-118.8 2.2-.4 91.5-40.6 91.5-40.6z"/><defs><path id="XMLID_548_" d="M307.1 242.4 217 271l-22.1-115-1.3-6.5 80.3-38.9c1.6-.8 3.6.2 4.1 2l1.7 6.5 30.1 118.1c.7 2.3-.5 4.5-2.7 5.2z"/></defs><use xlink:href="#XMLID_548_" style="overflow:visible;fill:#fff"/><clipPath id="XMLID_2_"><use xlink:href="#XMLID_548_" style="overflow:visible"/></clipPath><path d="m279.8 119.1-84.2 38.5-1.9-8.2 80.3-38.9c1.6-.8 3.6.2 4.1 2l1.7 6.6z" style="clip-path:url(#XMLID_2_);fill:#1a2e35"/><path class="st11" d="M275.5 116.2c0 1.2-.8 2.1-1.9 2-1-.1-1.9-1.1-1.9-2.3 0-1.2.8-2.1 1.9-2s1.9 1.2 1.9 2.3zM270.7 118.6c0 1.1-.8 1.9-1.7 1.9-1-.1-1.7-1-1.7-2.1s.8-1.9 1.7-1.9c1 .1 1.7 1 1.7 2.1zM266.2 120.7c0 1-.7 1.8-1.6 1.7-.9-.1-1.6-.9-1.6-2 0-1 .7-1.8 1.6-1.7.9.1 1.6 1 1.6 2z"/><path d="M307.1 242.4 217 271l-22.1-115-1.3-6.5 80.3-38.9c1.6-.8 3.6.2 4.1 2l1.7 6.5 30.1 118.1c.7 2.3-.5 4.5-2.7 5.2z" style="opacity:.3;clip-path:url(#XMLID_2_);fill-opacity:.7"/><use xlink:href="#XMLID_548_" style="overflow:visible;fill:none;stroke:#1a2e35;stroke-linecap:round;stroke-linejoin:round;stroke-miterlimit:10"/><path d="m301.8 236.7-88.9 34.9-21.8-113.5-1.2-6.5 79.2-44.5c1.6-.9 3.6 0 4 1.7l1.6 6.4 29.7 116c.7 2.4-.5 4.7-2.6 5.5z" style="fill:#fff;stroke:#1a2e35;stroke-linecap:round;stroke-linejoin:round;stroke-miterlimit:10"/><path d="m274.8 115.3-83 44.4-1.9-8 79.2-44.5c1.6-.9 3.6 0 4 1.7l1.7 6.4z" style="fill:#1a2e35"/><path class="st8" d="M270.6 112.8c0 1.2-.8 2.1-1.8 2.1s-1.8-1-1.8-2.1.8-2.1 1.8-2.1 1.8.9 1.8 2.1zM265.9 115.5c0 1.1-.8 2-1.7 2-.9 0-1.7-.9-1.7-2s.8-2 1.7-2c.9 0 1.7.9 1.7 2zM261.4 117.9c0 1-.7 1.8-1.6 1.8-.9 0-1.6-.8-1.6-1.8s.7-1.8 1.6-1.8c.9-.1 1.6.8 1.6 1.8z"/><path class="st9" d="M273.9 118.2 300 220.7c.1.4-.1.9-.5 1l-2.4 1.1c-.5.2-1.1-.1-1.2-.6l-25.5-101.9c-.1-.5.1-1.1.6-1.3l2-1.1c.3-.2.8-.1.9.3z"/><path d="m271.6 121.2 1.4-.8c.6-.3 1.3 0 1.5.7l2.7 10.7c.1.5-.1 1.1-.6 1.4l-1.8.9c-.4.2-1 0-1.1-.5l-2.8-11.1c0-.5.2-1.1.7-1.3z" style="fill:#bfbfbf;stroke:#1a2e35;stroke-linecap:round;stroke-linejoin:round;stroke-miterlimit:10"/><path class="st16" d="m284.7 236-57.3 23.6M292.4 228.8l-72.7 30.8"/><path class="st9" d="m285.3 197.8-5.9-24.9-15.9 7.6 5.8 24.8zM257 152.7l5.5 23.7 15.9-7.7-5.7-24.3zM272.2 142.3l-4.6-19.8-15.7 8.2 4.6 19.9zM269.9 207.8l5.3 22.9 16.1-7-5.4-23.1z"/><path class="st8" d="m183.4 149.7 24.8 128.5c7.9-9 64.5-50.5 64.5-50.5 4.4-3.2 6.5-8.7 5.3-14l-26.2-112.3c-1-4.3-6.2-6-9.5-3 0 0-52.6 33-58.9 51.3z"/><g class="st17"><path class="st18" d="M273.5 217.8c-.7 0-1.4-.5-1.6-1.3-.4-1.8-.9-3.7-1.3-5.5-.2-.9.3-1.8 1.2-2 .9-.2 1.8.3 2 1.2.4 1.8.9 3.7 1.3 5.5.2.9-.3 1.8-1.2 2-.2 0-.3.1-.4.1z"/></g><g class="st17"><path class="st18" d="M270.1 203c-.8 0-1.4-.5-1.6-1.3L245.8 102s0-.1-.1-.1h-.2c-5.8 3.9-25.6 17.1-34.7 24.4-5.8 4.9-11.2 10.4-17.3 18-.6.7-1.6.8-2.3.3-.7-.6-.8-1.6-.3-2.3 6.3-7.8 11.7-13.5 17.8-18.5 9-7.2 27.4-19.6 35-24.6 1-.6 2.2-.8 3.3-.3 1.1.4 1.9 1.4 2.1 2.5l22.7 99.7c.2.9-.4 1.8-1.2 2-.3-.1-.4-.1-.5-.1z"/></g><path class="st18" d="M203.9 325.7c-.8-7-1.8-16.8-2.8-26.2-1.3-13.6-2.4-26.2-1.8-27.8 1.3-3.6 1-6.2 1-6.2 2.8-.3 4-4.1 4-4.1l-1.5-13.3s.9-25.5-.2-32.7c-1.1-7.2-5.8-12.1-5.9-14-.1-1.9 3.6-10.4 4.8-12.8 1.2-2.4.5-16.1-1.5-20.3-.6-1.2-1.4-1.9-2.2-2.3-2.1-.9-4.4.1-4.4.1-.5 8-2.9 13.3-5.1 17.1-1.9 3.3-3.7 5.5-4 7.2-.7 3.8-9 13.5-10.5 18.5-1.6 5-2.1 22.1-4.5 28.8-1.2 3.2-5.3 13.2-6.4 44-.6 17.7-3.4 33.7-5.6 44.1h46.6z"/><path class="st19" d="M201.7 188.5c-1.2 2.4-4.9 10.9-4.8 12.8.1 1.9 4.7 6.8 5.9 14 1.1 7.2.2 32.7.2 32.7l1.5 13.3s-1.2 3.8-4 4.1c0 0 .3 2.6-1 6.2-.6 1.6.5 14.2 1.8 27.8-1.4-5.9-2.5-10.4-2.5-10.4s-.6 7.2-1.4 12.9c-.8 5.7-2.7 13.8-2.7 13.8s-4.2-39.3-3.2-45.9c1-6.6 3.4-5.5 1.5-8.6-1.8-3.1-13.1-5.9-12-8.2 1.1-2.3 9.9 1.8 10.2 2-.3-.2-5.2-4.1-5.1-5.9 0-1.9 7.8 2.9 7.8 2.9s3.2-1.9 5.6-4.7c2.4-2.7-1.2-28.8-1.8-30.7s-4.8-1.6-6.1-3.2c-1.2-1.6 2.1-2.3 1.5-4.7-.6-2.4-2.3-2.2-2.3-2.2s2.7-4 2.5-7.5c-.2-3.5 4.3-7.7 4-10.2-1.3-9.8-7.1-3.1-8.7-5.8 2.2-3.8 4.5-9.1 5.1-17.1 0 0 2.4-1 4.4-.1.9.4 1.6 1.1 2.2 2.3 1.9 4.4 2.6 18 1.4 20.4z"/><path class="st7" d="M159.3 315.9c1.7-9.6 3.2-21.5 3.7-34.3 1.1-30.7 5.3-40.8 6.4-44 2.5-6.7 3-23.8 4.5-28.8 1.6-5 9.9-14.7 10.5-18.5.7-3.8 8.1-9.4 9.1-24.4 0 0 4.7-2.1 6.7 2.2 2 4.3 2.7 17.9 1.5 20.3-1.2 2.4-4.9 10.9-4.8 12.8.1 1.9 4.7 6.8 5.9 14 1.1 7.2.2 32.7.2 32.7l1.5 13.3s-1.2 3.8-4 4.1c0 0 .3 2.6-1 6.2-.9 2.5 2.1 31.4 4.1 49.5"/><path class="st7" d="M196.8 201.3s-1.5 4.1-4.3 4.1"/><path class="st7" d="M195.9 203.2s.9 5-2.2 8.1M185.5 187.9s3.4-.7 5.6.6M183.1 254s11.2 3.5 12.9 5.3 4.3 6.2 4.3 6.2M191.8 252.3c1.6 1.8 5.3 4 7.1 5.6 1.7 1.6 2.6 5.3 2.6 5.3M199.2 251.4s2.6-1.3 3.9-5.3M196.2 266.3c-2.4 1.2-2.5 15.3-1.2 31.2M197.5 269.2c0 1.6 2.1 13.4 3.1 23.4"/><defs><path id="XMLID_542_" d="M296.5 173.6s-4.6 8.3-4.5 10.2 8.7 15 9 16.5c.2 1.5 6.5 4.4 8.8 5.9 2.3 1.5 5.2-9.5 4.8-17.5-.4-7.9-18.1-15.1-18.1-15.1z"/></defs><use xlink:href="#XMLID_542_" style="overflow:visible;fill:#fff"/><clipPath id="XMLID_3_"><use xlink:href="#XMLID_542_" style="overflow:visible"/></clipPath><path d="M296.5 173.6s-4.6 8.3-4.5 10.2 8.7 15 9 16.5c.2 1.5 6.5 4.4 8.8 5.9 2.3 1.5 5.2-9.5 4.8-17.5-.4-7.9-18.1-15.1-18.1-15.1z" style="opacity:.5;clip-path:url(#XMLID_3_);fill:#5ae4a7"/><use xlink:href="#XMLID_542_" style="overflow:visible;fill:none;stroke:#1a2e35;stroke-linecap:round;stroke-linejoin:round;stroke-miterlimit:10"/><path class="st7" d="M299.6 189.1s4.5-2 9.4 3.4"/><path class="st18" d="m392.3 266.8-27.4 31s-4.5-5.6-10.1-12.5c-8-9.7-18.3-22-21.2-24.2-3.6-2.7-26.7-18.5-33.1-26.4-.9-1.1-1.7-2.1-2.4-3-4.2-5.4-5.1-7.8-7.2-15.3-2.4-8.9-5.1-13.8-5.8-17 0-.1 0-.2-.1-.3-.7-3.6-1.9-14.6-3.5-17.4-1.7-2.9 4.9-4.3 7.4-2.7 2.5 1.6 8.8 9.3 8.4 16 0 0 4.9 12.1 7.4 11.8 0 0-.3-12.1-2-15.1-1-1.8-1.2-3.4-1.3-4.4v-1.1s-7.7-8.3-10-14c-2.3-5.6-6.7-14.3-7.6-22.7 0 0-1-6 2.7-8.8 1.4-1 2.7-1.3 4 .5.5.7 1.1 1.9 1.6 3.4 5.5 15.5 12.3 21.4 12.3 21.4s4.5 1.2 7.8 2.7c.5.2 1 .5 1.6.9 1.4 1 3.2 2.4 5 3.7 2.6 2 5.3 3.9 7.4 4.3 7.1 1.5 10.5 5.1 10.5 5.1s4.7-1 7.2 3.4c2.4 4.2 3.7 5.1 3.7 5.1s1.8 0 3.2 3.1c2.5 5.5 10.1 34.8 10.5 36 3 9.7 12.1 20.1 22.5 29.2 2.6 2.7 5.6 5 8.5 7.3z"/><path class="st19" d="M313.7 169.6zM321.3 181.5s-8.2-1.5-9.8-5.2c-1.6-3.7-8.5-11.7-10.1-12.2-1.6-.5-2.7.6-2.7.6s-2.8-4.5-5-8.4c-2-3.7-12.1-14.7-3.3-15.2.5.7 1.1 1.9 1.6 3.4 5.5 15.5 12.3 21.4 12.3 21.4s4.5 1.2 7.8 2.7c.5.2 1 .5 1.6.9-.2-.1-3.5-.9-2.8.8.7 1.7 6 6.6 8.8 8.7 2.8 2.2 1.6 2.5 1.6 2.5zM383.6 259.7c-4.6-2.5-11.6-6.7-14-10-3.6-5.1-6.3-7.6-8.7-10.6-2.4-2.9-7-5.3-5.9-4.9 1.1.4 5.9 2.1 5.9 2.1s-3.6-4.5-6.4-11.9c-2.8-7.5-7.9-33.8-11.7-36.7-3.8-2.9 0 25.8 0 25.8s-3.7-8.1-5.4-17.5c-1.7-9.4-3.3-14.1-5.4-15.4-2.1-1.3-6 1.4-7.1 0-1.1-1.4.1-1.9-6.3-7.1 2.6 2 5.3 3.9 7.4 4.3 7.1 1.5 10.5 5.1 10.5 5.1s4.7-1 7.2 3.4c2.4 4.2 3.7 5.1 3.7 5.1s1.8 0 3.2 3.1c2.5 5.5 10.1 34.8 10.5 36 3.1 9.6 12.2 20 22.5 29.2zM307.3 212.3c-.3 1.8-2.5-3.4-2.7-2.6-.2.8-.8 3.4-.8 2.6 0-.8-4.7-3.4-5.5-7.3-.8-3.9-1.3-5.5-1.7-6.5-.4-1-1.1.6-1.2-1.7 0-2.1-6.8-4.3-10.4 2.1-.7-3.6-1.9-14.6-3.5-17.4-1.7-2.9 4.9-4.3 7.4-2.7 2.5 1.6 8.8 9.3 8.4 16 0 0 4.9 12.1 7.4 11.8 0 0-.3-12.1-2-15.1-1-1.8-1.2-3.4-1.3-4.4l2.4.3c.7 1.4-.6 3.5 0 4.6.6 1 4.6 8.6 3.3 12.6-1.3 4 .5 5.9.2 7.7zM354.7 285.3c-8-9.7-18.3-22-21.2-24.2-3.6-2.7-26.7-18.5-33.1-26.4-.9-1.1-1.7-2.1-2.4-3 3.4 4.2 7.6 6.3 9.4 7.3 3.2 1.7 12.5 3.2 19 10.3 3.1 3.4 4.9 5.9 8.8 10.2 3.9 4.3 9.5 4.5 12.8 10.4 1.7 2.9 4.4 9.5 6.7 15.4z"/><path class="st7" d="M364.9 297.8s-26.4-32.9-31.4-36.7c-3.6-2.7-26.7-18.5-33.1-26.4-6.4-7.8-7.1-9.5-9.6-18.4-2.4-8.9-5.1-13.8-5.8-17-.7-3.3-2-14.8-3.6-17.7-1.7-2.9 4.9-4.3 7.4-2.7 2.5 1.6 8.8 9.4 8.4 16 0 0 4.9 12.1 7.4 11.8 0 0-.3-12.1-2-15.1s-1.2-5.6-1.2-5.6-7.7-8.3-10-14c-2.3-5.6-6.7-14.3-7.6-22.7 0 0-1-6 2.7-8.8 2-1.5 3.7-1.5 5.6 3.9 5.5 15.5 12.3 21.4 12.3 21.4s4.5 1.1 7.8 2.7 9.9 8.1 13.9 9c7.1 1.5 10.5 5.1 10.5 5.1s4.7-1 7.2 3.4c2.4 4.2 3.7 5.1 3.7 5.1s1.8 0 3.2 3.1c2.5 5.5 10.1 34.8 10.5 36 3.9 12.3 17.5 25.8 31.1 36.4"/><path class="st7" d="M304.3 166s6.7 9.3 11.4 11.1M315.4 179.1c4.5 1.4 7.4 2.3 8.3 5.7.8 3.4 3.3 11.1 4.4 14.2 1.2 3 4 10.7 4 10.7M304.6 206.7s3.1 4 2.3 7.9M303.3 206.1s-.1 4.4 1 7.3M301.4 186.1s2.5 1.3 3.1 2.9M303.2 193.1s1.1 2.4 2.3 3.7c1.2 1.3 1.8 5.6 1.8 5.6M285 199.2s2.7-3 5.4-3.4M297.6 165.4s3.1-2.3 5.5-.7M349.2 198.8c.6 1.7 3.8 17 4.6 19.2M327.5 181.3s2.9-2.1 6.6.5c3.7 2.6 3.7 3.8 5.9 3.2 2.2-.6 3.7 1.2 3.7 1.2M339.3 192.1c.6 3.4 3.1 20.3 4.3 24.5"/></g></svg>