<svg version="1.1" id="Layer_1" xmlns="http://www.w3.org/2000/svg" x="0" y="0" viewBox="0 0 500 320" style="enable-background:new 0 0 500 320" xml:space="preserve"><style>.st0{fill:#f5f6ff}.st1{fill:#e6e8fc}.st2,.st3,.st4{stroke-miterlimit:10}.st2{fill:none;stroke:#b6c2ff;stroke-linecap:round;stroke-linejoin:round}.st3,.st4{fill:#fff;stroke:#cdd2f9}.st4{fill:none;stroke:#fff;stroke-linejoin:round}.st5{fill:#cdd2f9}.st6{fill:#ffc6b0}.st7{fill:#0b0b3a}.st8{fill:#182270}.st9{fill:none;stroke:#2944b7;stroke-width:.75;stroke-linejoin:round;stroke-miterlimit:10}.st10{fill:#ffcbbd}.st11{fill:none;stroke:#e88872;stroke-width:.75;stroke-linejoin:round;stroke-miterlimit:10}.st12{fill:#ff855a}.st13{fill:#212237}.st15{fill:#e62965}.st16{fill:#fff}.st17{fill:none;stroke:#c6205c;stroke-width:.75;stroke-miterlimit:10}.st18{fill:#b6c2ff}.st19{fill:#8693f2}.st20,.st21,.st22{fill:#fff;stroke:#8693f2;stroke-miterlimit:10}.st21,.st22{fill:none}.st22{stroke:#277ef1;stroke-width:1.5}.st24,.st25{opacity:.75;fill:#e0ebfc}.st25{fill:#f5f6ff}.st27{fill:#d4daff}.st28,.st29{fill:none;stroke:#d4daff;stroke-miterlimit:10}.st29{stroke:#f5f6ff;stroke-width:2}.st30{fill:#fa0}.st31{fill:#e58303}.st32{fill:none;stroke:#ffd550;stroke-miterlimit:10}.st33{fill:#ffc41f}.st35{fill:none;stroke:#2944b7;stroke-width:.75;stroke-miterlimit:10}.st38{fill:#202263}.st39{fill:none;stroke:#2944b7;stroke-width:.5;stroke-linejoin:round;stroke-miterlimit:10}.st40{fill:#7105ff}.st41{fill:none;stroke:#5807d8;stroke-width:.5;stroke-miterlimit:10}.st42{fill:#0029b7}.st43{fill:none;stroke:#0029b7;stroke-miterlimit:10}</style><path class="st0" d="M360.3 90.4c0 1.7.3 3.3.8 5 .5 1.5 1.1 3 1.9 4.3l3.3-1.4c.9 1.6 2.1 3 3.4 4.3l-2.1 3c1.2 1.1 2.6 2.1 4.1 3l1.8.9c.2.1.3.1.5.2.7.3 1.4.5 2.1.7l1.4-3.3c.2.1.4.1.6.2.2.1.5.1.7.2 1.3.3 2.7.4 4.1.3l.6 3.5c1.7 0 3.3-.3 5-.8 1.5-.5 3-1.1 4.3-1.9l-1.4-3.3c1.6-.9 3.1-2.1 4.3-3.4l2.9 2c1.1-1.2 2.1-2.6 3-4.1.8-1.4 1.3-2.9 1.7-4.4l-3.3-1.3c.5-1.8.7-3.6.6-5.5l3.5-.6c0-1.7-.3-3.3-.8-5-.5-1.5-1.1-3-1.9-4.3l-3.3 1.4c-.9-1.6-2.1-3.1-3.4-4.3l2-2.9c-1.2-1.1-2.6-2.1-4.1-3-1.4-.8-2.9-1.3-4.4-1.7l-1.3 3.3c-1.8-.5-3.6-.7-5.5-.6l-.6-3.5c-1.7 0-3.3.3-5 .8-1.5.5-3 1.1-4.3 1.9l1.4 3.2c-1.6.9-3.1 2.1-4.3 3.4l-2.9-2c-1.1 1.2-2.1 2.6-3 4.1-.8 1.4-1.3 2.9-1.7 4.4l3.3 1.3c-.5 1.8-.7 3.6-.6 5.5l-3.4.4zm10.4 1.7c-1.6-6.1 1.8-12.4 7.8-14.4 6.6-2.2 13.6 1.6 15.4 8.3 1.6 6.1-1.8 12.4-7.8 14.4-6.6 2.2-13.7-1.6-15.4-8.3z"/><path class="st0" d="M384 82.2c.6.1 1.1.4 1.6.6.5.3.9.6 1.2.9.3.3.6.7.8 1.1.2.4.3.7.3 1.1 0 .1 0 .2-.1.3-.1.1-.2.1-.3.1H385c-.2 0-.3 0-.4-.1-.1-.1-.2-.1-.3-.2l-.2-.2c-.1-.1-.2-.2-.4-.3l-.6-.3c-.2-.1-.5-.1-.9-.1h-.7c-.2 0-.4.1-.6.2-.2.1-.3.2-.4.3-.1.1-.2.3-.2.5s.1.4.2.5c.1.1.3.3.6.4.3.1.7.2 1.2.3.5.1 1.1.2 1.8.4.7.1 1.4.3 1.9.6.5.2 1 .5 1.4.8.4.3.6.7.8 1.2.2.5.3 1 .3 1.6 0 .6-.1 1.1-.3 1.5-.2.5-.5.9-.9 1.2-.4.4-.8.7-1.4.9-.5.2-1.1.4-1.8.5v1.4c0 .1-.1.3-.2.4-.1.1-.2.2-.4.2h-2.6c-.1 0-.3-.1-.4-.2-.1-.1-.2-.2-.2-.4V96c-.6-.1-1.2-.4-1.7-.6-.5-.3-.9-.6-1.3-.9-.4-.3-.6-.7-.8-1.1-.2-.4-.3-.8-.3-1.2 0-.1 0-.2.1-.3.1-.1.2-.1.3-.1h2.6c.2 0 .3 0 .4.1.1 0 .2.1.3.2.1.1.1.1.2.3l.4.4c.2.1.4.2.7.3.3.1.6.1 1 .1.7 0 1.3-.1 1.8-.2.5-.2.7-.4.7-.8 0-.2-.1-.4-.3-.5-.2-.1-.4-.3-.8-.4-.3-.1-.8-.2-1.3-.3-.5-.1-1.2-.2-1.9-.4-1.4-.3-2.4-.8-3-1.5-.6-.7-.9-1.6-.9-2.7 0-.5.1-.9.3-1.3.2-.4.4-.8.7-1.2.3-.4.7-.7 1.2-.9.5-.3 1-.5 1.6-.6v-1.5c0-.1.1-.3.2-.4.1-.1.2-.2.4-.2h2.6c.1 0 .3.1.4.2.1.1.2.2.2.4v1.3z"/><path class="st1" d="M341.9 54.9c1.9-1.5 5-.8 6.1-1.6 1.3-.9 1.2-1.9 1.4-3.3.3-1.6.7-3.2 1.4-4.7 1.3-3.2 4.1-5.2 7.6-5.1 2 0 4 .9 5.4 2.3 1.3 1.3 1.9 4 3.7 4.6 2.4.9 4.7-2.5 7.2-2 1.7.3 3.2 1.5 3.5 3.2.2 1 0 2.1-.1 3.1 0 1.1.2 2.2 1.1 2.8.4.3.9.4 1.3.4 1.2.1 2.4-.3 3.6-.5 1.2-.2 2.5-.3 3.5.4 1.3.9 1.7 2.5 2.3 3.9.7 1.4 1.8 2.8 3.1 3.6 3.2 1.9 7.4.2 10.2 3h-59.5c-1.9 0-4.4-2-4.3-5.1 0-1.5.6-3.5 2.5-5zM154.7 76.8c-4-.7-7.4-1.2-9.2-4.8-1.8-3.6-3-7.6-5.4-10.9-4.2-5.7-12.6-8.5-19.4-5-7.7 4-8.2 16.8-18.3 16.8-2.2 0-4.3-.8-6.5-1.1-4.8-.5-11.3 2.6-12.5 7.6-.3 1.3-1.9 7.4-6.2 7.4-2.7 0-9.4-1.1-12.9 4.1h92c3.4 0 5.6-3.3 5.6-5.6-.1-4.4-3.5-7.8-7.2-8.5z"/><path class="st2" d="M187.1 71.2c.4 1-.1 2.1-1.1 2.5-1 .4-2.1-.1-2.5-1.1-.4-1 .1-2.1 1.1-2.5 1-.4 2.1.1 2.5 1.1zM103.1 54.4c.4 1-.1 2.1-1.1 2.5-1 .4-2.1-.1-2.5-1.1-.4-1 .1-2.1 1.1-2.5 1-.4 2.1.1 2.5 1.1zM29.3 156.8c.4 1-.1 2.1-1.1 2.5-1 .4-2.1-.1-2.5-1.1-.4-1 .1-2.1 1.1-2.5 1-.4 2.1.1 2.5 1.1zM251.2 74c.4 1-.1 2.1-1.1 2.5-1 .4-2.1-.1-2.5-1.1-.4-1 .1-2.1 1.1-2.5 1-.4 2.1.1 2.5 1.1zM423.3 83.1c.4 1-.1 2.1-1.1 2.5-1 .4-2.1-.1-2.5-1.1-.4-1 .1-2.1 1.1-2.5 1-.4 2.2.1 2.5 1.1zM474.3 182.2c.4 1-.1 2.1-1.1 2.5-1 .4-2.1-.1-2.5-1.1-.4-1 .1-2.1 1.1-2.5 1-.4 2.1.1 2.5 1.1zM210.5 43.5v3.8M212.4 45.4h-3.8M259 38.5v3.8M260.8 40.4h-3.7M125.7 124.6v3.7M127.6 126.4h-3.8M58.1 106.1v3.8M59.9 108h-3.7M352.9 72.8v3.8M354.8 74.7H351M44.9 177.5v3.8M46.8 179.4H43M462.4 140v3.8M464.3 141.9h-3.8M403.1 119.4v3.8M405 121.3h-3.8"/><path class="st3" d="M108.5 122.5c0 7.3-5.9 13.1-13.1 13.1-7.3 0-13.1-5.9-13.1-13.1 0-7.3 5.9-13.1 13.1-13.1 7.2 0 13.1 5.9 13.1 13.1z"/><path class="st1" d="M97 116c.6.1 1.1.3 1.5.6.5.3.8.5 1.2.9.3.3.6.7.8 1 .2.4.3.7.3 1 0 .1 0 .2-.1.3-.1.1-.2.1-.3.1H98c-.2 0-.3 0-.4-.1-.1 0-.2-.1-.3-.2l-.2-.2-.3-.3c-.1-.1-.3-.2-.6-.2-.2-.1-.5-.1-.8-.1h-.7c-.2 0-.4.1-.6.2-.2.1-.3.2-.4.3-.1.1-.2.3-.2.5s.1.3.2.5c.1.1.3.2.6.3.3.1.7.2 1.1.3.5.1 1 .2 1.7.4.7.1 1.3.3 1.8.5s.9.5 1.3.8c.3.3.6.7.8 1.1.2.4.3.9.3 1.5 0 .5-.1 1-.3 1.4-.2.4-.5.8-.8 1.2-.4.3-.8.6-1.3.8-.5.2-1.1.4-1.7.5v1.3c0 .1 0 .3-.1.4-.1.1-.2.2-.4.2h-2.5c-.1 0-.3-.1-.4-.2-.1-.1-.2-.2-.2-.4V129c-.6-.1-1.1-.3-1.6-.6s-.9-.5-1.2-.9c-.3-.3-.6-.7-.8-1.1-.2-.4-.3-.8-.3-1.2 0-.1 0-.2.1-.3.1-.1.2-.1.3-.1h2.5c.2 0 .3 0 .4.1.1 0 .2.1.3.2l.2.2c.1.1.2.2.4.3l.6.3c.3.1.6.1.9.1.7 0 1.2-.1 1.7-.2.4-.1.7-.4.7-.8 0-.2-.1-.3-.2-.5-.2-.1-.4-.2-.7-.3-.3-.1-.7-.2-1.2-.3-.5-.1-1.1-.2-1.8-.4-1.3-.3-2.2-.7-2.8-1.4-.6-.6-.9-1.5-.9-2.6 0-.4.1-.9.2-1.3.2-.4.4-.8.7-1.1.3-.3.7-.6 1.1-.9.4-.3.9-.4 1.5-.6v-1.4c0-.1 0-.3.2-.4.1-.1.2-.2.4-.2h2.5c.1 0 .3.1.4.2.1.1.1.2.1.4L97 116z"/><path class="st3" d="M176.9 51.1c0 5-4.1 9.1-9.1 9.1s-9.1-4.1-9.1-9.1 4.1-9.1 9.1-9.1c5-.1 9.1 4 9.1 9.1z"/><path class="st1" d="M168.9 46.5c.4.1.7.2 1.1.4.3.2.6.4.8.6.2.2.4.5.5.7.1.2.2.5.2.7 0 .1 0 .1-.1.2s-.1.1-.2.1h-1.7c-.1 0-.2 0-.3-.1-.1 0-.1-.1-.2-.2l-.1-.1-.2-.2c-.1-.1-.2-.1-.4-.2-.2 0-.3-.1-.6-.1h-.5c-.2 0-.3.1-.4.1-.1 0-.2.1-.3.2-.1.1-.1.2-.1.3 0 .1 0 .2.1.3.1.1.2.2.4.2.2.1.5.1.8.2.3.1.7.2 1.2.2.5.1.9.2 1.3.4.4.1.7.3.9.6.2.2.4.5.5.8.1.3.2.7.2 1.1 0 .4-.1.7-.2 1-.1.3-.3.6-.6.8l-.9.6c-.4.2-.7.3-1.2.3v.9c0 .1 0 .2-.1.2-.1.1-.2.1-.2.1h-1.7c-.1 0-.2 0-.2-.1-.1-.1-.1-.2-.1-.2v-1c-.4-.1-.8-.2-1.1-.4l-.9-.6c-.2-.2-.4-.5-.6-.7-.1-.3-.2-.5-.2-.8 0-.1 0-.1.1-.2s.1-.1.2-.1h2c.1 0 .1.1.2.1l.2.2c.1.1.2.2.3.2.1.1.3.2.4.2.2.1.4.1.7.1.5 0 .8 0 1.2-.1.3-.1.5-.3.5-.5 0-.1-.1-.2-.2-.3-.1-.1-.3-.2-.5-.2-.2-.1-.5-.1-.9-.2l-1.2-.3c-.9-.2-1.5-.5-2-1-.4-.4-.6-1-.6-1.8 0-.3.1-.6.2-.9.1-.3.3-.5.5-.8.2-.2.5-.4.8-.6.3-.2.7-.3 1-.4v-1c0-.1 0-.2.1-.2.1-.1.2-.1.2-.1h1.7c.1 0 .2 0 .2.1.1.1.1.2.1.2l-.1 1.3zM358 265.4c-1.5-23.3.9-56.4 11.2-86.2 10.7-30.9 29.7-58 50.9-50.1 8.1 3 9.2 16.7 5.8 29.3-10.1 37.4-33.4 60-42.3 106.9"/><path class="st4" d="M371.8 265.4c3.6-72.9 44.4-137.5 44.4-137.5"/><path class="st1" d="M117.6 265.4c-12.7-32.2-58-91.5-77.3-61.6-3.8 5.8-.3 15.2 5.6 21.8 17.2 19.4 35.4 13.7 54.9 39.8"/><path class="st4" d="M109.6 265.4C88.1 220 43 200.3 43 200.3"/><path class="st5" d="M126 265.4c7.4-49.4-22-143-60.2-118.5-8.7 5.6-4.6 27.2.4 39.4 12.5 30.7 33.7 38.4 42.2 79.1"/><path class="st4" d="M118.7 265.3c-.7-64.1-49.1-120.5-49.1-120.5"/><path class="st1" d="M162.9 265.4c9.8-38.6 7.8-120.8-33.8-110.9-7.8 1.9-10.6 13.6-9.5 23.9 3.2 30.5 23.1 48.8 23.9 87"/><path class="st4" d="M153.9 265.4c5.6-62.9-23.5-112.2-23.5-112.2"/><path class="st5" d="M384.4 265.4c2.9-29 11.9-65.3 26.3-87 11.5-17.4 29.6-25.1 40.2-14.3 5.9 6 3.7 23.4-5.3 36.5-16 23.2-35 31.4-45.6 64.8"/><path class="st4" d="M391.9 265.4c13.8-65.5 56.4-103.5 56.4-103.5"/><path class="st1" d="M399.3 265.4c9.7-27.2 34.9-58.6 54-64.3 7.7-2.3 19.6-1.5 21.1 7.2 1.2 6.9-5.8 17.4-13.7 23.3-14.5 10.8-28.3 15.2-44.3 33.8"/><path class="st4" d="M409.5 265.4c28.5-50.4 62.9-61.3 62.9-61.3"/><path class="st6" d="M342.6 163.7c.4 2.9.8 5.8 1.2 8.8-5-.1-9.8.3-14.8.4 1.7-1 5.2-2.9 6.4-5.4"/><path class="st7" d="M343.6 176.3h-2.9c0-.3.1-1 0-1.2-.5 0-1.7.1-1.8.1-.1 0-.3.3-.5.5-.3.3-.7.5-1.1.5h-11.4c-1.4 0-1.6-1.5-.1-2.2 1.4-.6 4.3-2 4.5-2.1 4.5.4 11.9-.3 13.4-1.7 1 1.2-.1 6.1-.1 6.1z"/><path class="st6" d="M339.8 117.1c2 25.2 3.4 51.5 3.4 51.5l-7.9-1.1s-8.4-33.8-10.6-50.4M319.8 163.7c.4 2.9.8 5.8 1.2 8.8-5-.1-9.8.3-14.8.4 1.7-1 5.2-2.9 6.4-5.4"/><path class="st7" d="M320.8 176.3h-2.9c0-.3.1-1 0-1.2-.5 0-1.7.1-1.8.1-.1 0-.3.3-.5.5-.3.3-.7.5-1.1.5H303c-1.4 0-1.6-1.5-.1-2.2 1.4-.6 4.3-2 4.5-2.1 4.5.4 11.9-.3 13.4-1.7 1 1.2 0 6.1 0 6.1z"/><path class="st6" d="M324.1 117.1c-1.6 25.2-3.7 51.5-3.7 51.5l-7.9-1.1s-3.5-32.4-3.5-50.4"/><path class="st8" d="M334.6 90.5c7.2 16.7 8.1 35.2 8.1 35.2s-10.3 2.7-18.7 2.7c-8.4 0-17.2-1.3-17.2-1.3s2.2-28.9 5.7-37.7"/><path class="st9" d="M332.5 96.3c4.9 10.2 7.4 30 7.4 30"/><path class="st10" d="m305.8 58 .5 3.4s2.5 1.6 4.5.8c2.2-.9 2.1-2.1 2.1-2.1l-2.6-6.2"/><path class="st10" d="M302.2 52.3c-.4 2 .9 7.5 3.8 7.3 3-.2 5.3-2.7 4.2-6.1-1.2-3.7-6.9-6.3-8-1.2z"/><path class="st11" d="M306.1 59.8c1.5-.2 3.3-1 4.1-3"/><path class="st12" d="M309.7 53.2zM309.7 53.2s0 .1 0 0c-.1.1 0 .1 0 0 0 .1 0 0 0 0z"/><path class="st13" d="M309.8 54.1c-1-.1-1.5-.8-1.8-1.6-.6.5-1.7.4-2.3.2-.6-.3-1-.7-1.3-1.3-.5 1-1.2 1.6-2.3 1.8-.3-1.6.6-3.3 2.1-4.3 1.5-.9 3.5-1.2 5-.4 1.5.8 2.6 2.5 2.8 4.1.1 1-.2 3.1-1.1 3-.5 0-1.1-1.5-1.1-1.5z"/><path class="st10" d="M309.1 54c0-.1 0-.5.4-.7.6-.4 1.2.4 1.3 1 0 .4 0 .8-.2 1.1-.3.5-.7.7-1.1.2"/><path class="st13" d="M305.2 48.4c-.5-.1-.8-.6-.7-1.1.1-.5.5-.9.9-1.2.2-.1.4-.3.7-.3.4-.1.8-.1 1.2 0 .5.1.9.2 1.2.6.4.4.3 1.1 0 1.6s-.9.8-1.5.9"/><path class="st10" d="M306.6 77c-5.2 13.4-19.1 27.8-19.1 27.8l-4.5-3.4s9.7-13.6 14.1-27.5"/><path class="st10" d="M284.1 99.8c-1.2 1.7-5.5 6.2-5.2 6.6.2.4 1.7-1.2 1.9-.9.1.3-2.1 2.9-1.7 3.2.4.4 2.5-2.3 2.5-2.3s-2.1 3.1-1.6 3.3c.3.2 2.1-2.1 2.9-2.9-.7 1-1.7 2.6-1.4 2.8.4.2 1.6-1.3 2.6-2.5-.6.8-1.5 2.2-1.2 2.4.3.2 3.6-3.3 6.5-6.8"/><path d="M281.3 105.3s2-.5 2.7-1.1" style="fill:none;stroke:#e8927e;stroke-width:.75;stroke-miterlimit:10"/><path class="st15" d="M305.3 62c-6 1.8-8.8 12.3-8.8 12.3l6.6 2.8 2.9-13.5"/><path class="st15" d="M305.3 62c1.7.3 2.1.3 3.3-.1 2.2-.7 3.8-1.8 3.8-1.8s6.2-.3 12.3 6.1c3.1 3.3 8.3 12.6 11.4 25.1-11.6 3.7-28.5 6.1-28.5 6.1s-6.1-23.6-5.9-30.7c.2-2.2 3.6-4.7 3.6-4.7z"/><path class="st16" d="m312.3 58.7-3.9 3.3 2.5 3.3 2.6-5.2zM308.4 62l-2.3-1.7-.8 1.7 1.2 3.6z"/><path class="st17" d="M302.8 76.8c-.7-3.5-1.1-6.1-1.1-6.1"/><path class="st18" d="M288 225.7h-55.8s2.3 35.6-8.7 35.6h73.3c-11.2-.1-8.8-35.6-8.8-35.6z"/><path class="st19" d="m231.5 247.1 56.3-11.4c-.1-5.6.2-10 .2-10h-55.8c-.1 0 .7 11.5-.7 21.4z"/><path class="st18" d="M366.5 236.4H153.6c-3.1 0-5.6-2.5-5.6-5.6V95c0-3.1 2.5-5.6 5.6-5.6h212.9c3.1 0 5.6 2.5 5.6 5.6v135.9c0 3-2.5 5.5-5.6 5.5z"/><path class="st20" d="M363.2 231.2H156.9c-1.4 0-2.6-1.2-2.6-2.6V97.2c0-1.4 1.2-2.6 2.6-2.6h206.3c1.4 0 2.6 1.2 2.6 2.6v131.4c0 1.4-1.2 2.6-2.6 2.6z"/><path class="st21" d="M154.3 111.8h211.5"/><path class="st1" d="M340.4 106.5H194.7c-2 0-3.6-1.6-3.6-3.6s1.6-3.6 3.6-3.6h145.7c2 0 3.6 1.6 3.6 3.6s-1.6 3.6-3.6 3.6z"/><path class="st20" d="M164.7 103c0 1.1-.9 1.9-1.9 1.9-1.1 0-1.9-.9-1.9-1.9 0-1.1.9-1.9 1.9-1.9 1 0 1.9.9 1.9 1.9zM173.7 103c0 1.1-.9 1.9-1.9 1.9-1.1 0-1.9-.9-1.9-1.9 0-1.1.9-1.9 1.9-1.9 1 0 1.9.9 1.9 1.9zM182.7 103c0 1.1-.9 1.9-1.9 1.9s-1.9-.9-1.9-1.9c0-1.1.9-1.9 1.9-1.9s1.9.9 1.9 1.9z"/><path class="st22" d="M319.1 161.3H201c-4.5 0-8.1-3.6-8.1-8.1s3.6-8.1 8.1-8.1h118c4.5 0 8.1 3.6 8.1 8.1.1 4.5-3.6 8.1-8 8.1z"/><path d="M319.1 145.1h-13.6v16.2h13.6c4.5 0 8.1-3.6 8.1-8.1 0-4.4-3.7-8.1-8.1-8.1z" style="fill:#277ef1"/><path class="st16" d="m321.4 157.1-2.7-2.7c.5-.7.8-1.6.8-2.5 0-2.3-1.9-4.2-4.2-4.2-2.3 0-4.2 1.9-4.2 4.2s1.9 4.2 4.2 4.2c.7 0 1.3-.2 1.9-.5l2.8 2.8c.2.2.4.3.7.3.2 0 .5-.1.7-.3.2-.2.3-.4.3-.7 0-.1-.1-.4-.3-.6zm-3-5.2c0 1.7-1.4 3-3 3-1.7 0-3-1.4-3-3 0-1.7 1.4-3 3-3s3 1.4 3 3z"/><path class="st24" d="M235 156.7h-33.8c-1.9 0-3.5-1.6-3.5-3.5s1.6-3.5 3.5-3.5H235c1.9 0 3.5 1.6 3.5 3.5 0 2-1.6 3.5-3.5 3.5z"/><path class="st18" d="M213.4 260.2h93.2v5.2h-93.2z"/><path class="st24" d="M244.2 179.2h-22.9c-2.2 0-3.9-1.7-3.9-3.9s1.7-3.9 3.9-3.9h22.9c2.2 0 3.9 1.7 3.9 3.9s-1.7 3.9-3.9 3.9z"/><path class="st22" d="M221.6 176.3h22.3"/><path class="st24" d="M298.8 179.2h-40.6c-2.2 0-3.9-1.7-3.9-3.9s1.7-3.9 3.9-3.9h40.6c2.2 0 3.9 1.7 3.9 3.9-.1 2.2-1.8 3.9-3.9 3.9z"/><path class="st22" d="M262.8 176.3h31.4"/><path class="st20" d="M324.4 118.4h8.5M337.1 118.4h8.5"/><path class="st25" d="M348.7 116h1.2v1.2h-1.2zM350.3 116h1.2v1.2h-1.2zM351.9 116h1.2v1.2h-1.2zM348.7 117.8h1.2v1.2h-1.2zM350.3 117.8h1.2v1.2h-1.2zM351.9 117.8h1.2v1.2h-1.2zM348.7 119.5h1.2v1.2h-1.2zM350.3 119.5h1.2v1.2h-1.2zM351.9 119.5h1.2v1.2h-1.2z"/><path class="st0" d="M360.7 118.4c0 1.6-1.3 2.9-2.9 2.9-1.6 0-2.9-1.3-2.9-2.9s1.3-2.9 2.9-2.9c1.6-.1 2.9 1.3 2.9 2.9z"/><circle class="st19" cx="359.9" cy="99.2" r=".8"/><circle class="st19" cx="359.9" cy="102.9" r=".8"/><circle class="st19" cx="359.9" cy="106.5" r=".8"/><path class="st21" d="M294.2 260.5h-47.8M241.1 260.5h-15.6"/><path class="st0" d="M281.2 217.9H172.3c-2 0-3.7-1.6-3.7-3.7v-74.8c0-2 1.6-3.7 3.7-3.7h108.9c2 0 3.7 1.6 3.7 3.7v74.8c0 2.1-1.6 3.7-3.7 3.7z"/><path class="st20" d="M274.5 213.7H165.6c-2 0-3.7-1.6-3.7-3.7v-74.8c0-2 1.6-3.7 3.7-3.7h108.9c2 0 3.7 1.6 3.7 3.7V210c-.1 2-1.7 3.7-3.7 3.7z"/><path class="st19" d="M275 131.6H165.1c-1.8 0-3.2 1.4-3.2 3.2v5.3h116.3v-5.3c-.1-1.8-1.5-3.2-3.2-3.2z"/><path class="st0" d="M266.6 189.9h-92.2c-.9 0-1.6-.7-1.6-1.6 0-.9.7-1.6 1.6-1.6h92.2c.9 0 1.6.7 1.6 1.6 0 .9-.7 1.6-1.6 1.6zM266.6 195.3h-92.2c-.9 0-1.6-.7-1.6-1.6 0-.9.7-1.6 1.6-1.6h92.2c.9 0 1.6.7 1.6 1.6 0 .9-.7 1.6-1.6 1.6zM266.6 200.8h-92.2c-.9 0-1.6-.7-1.6-1.6 0-.9.7-1.6 1.6-1.6h92.2c.9 0 1.6.7 1.6 1.6 0 .9-.7 1.6-1.6 1.6zM266.6 206.3h-92.2c-.9 0-1.6-.7-1.6-1.6 0-.9.7-1.6 1.6-1.6h92.2c.9 0 1.6.7 1.6 1.6 0 .9-.7 1.6-1.6 1.6zM266.6 184.4h-92.2c-.9 0-1.6-.7-1.6-1.6 0-.9.7-1.6 1.6-1.6h92.2c.9 0 1.6.7 1.6 1.6 0 .9-.7 1.6-1.6 1.6z"/><path class="st18" d="M194.8 151.1c-2.2-3.4-6.1-5.6-10.5-5.6v12.6l10.5-7z" id="XMLID_64_" style="opacity:.75"/><path class="st1" d="m193.9 153-10.5 6.9v-12.6c-6.9 0-12.6 5.6-12.6 12.6s5.6 12.6 12.6 12.6c6.9 0 12.6-5.6 12.6-12.6 0-2.6-.8-4.9-2.1-6.9zM256.6 147.4V160l-10 7.6c2.3 3 5.9 5 10 5 6.9 0 12.6-5.6 12.6-12.6s-5.7-12.6-12.6-12.6z"/><path class="st18" d="M229.5 166.9c1.6-2.1 2.6-4.8 2.6-7.6 0-6.9-5.6-12.6-12.6-12.6v12.6l10 7.6z"/><path class="st1" d="m228.1 167.5-9.9-7.6v-12.6c-6.9 0-12.6 5.6-12.6 12.6 0 6.9 5.6 12.6 12.6 12.6 4 0 7.6-2 9.9-5z"/><path class="st18" d="M242.9 159.3c0 2.9 1 5.5 2.6 7.6l10-7.6v-12.6c-7 0-12.6 5.6-12.6 12.6z"/><path class="st0" d="M355.9 205.2H236.2c-2.2 0-4-1.8-4-4v-85.8c0-2.2 1.8-4 4-4h119.7c2.2 0 4 1.8 4 4v85.8c.1 2.2-1.7 4-4 4z"/><path class="st20" d="M348.5 200.5H228.8c-2.2 0-4-1.8-4-4v-85.8c0-2.2 1.8-4 4-4h119.7c2.2 0 4 1.8 4 4v85.8c0 2.2-1.8 4-4 4z"/><path class="st19" d="M349 106.6H228.2c-1.9 0-3.5 1.6-3.5 3.5v5.8h127.8v-5.8c0-1.9-1.6-3.5-3.5-3.5z"/><path class="st27" d="M322.9 133.1h8.6v6h-8.6z"/><path class="st28" d="M335.4 133.1h5.9M335.4 139.1h12M335.4 137.2h12M335.4 135.3h12"/><path class="st27" d="M322.9 145.7h8.6v6h-8.6z"/><path class="st28" d="M335.4 145.7h5.9M335.4 151.7h12M335.4 149.8h12M335.4 147.9h12"/><path class="st27" d="M322.9 158.3h8.6v6h-8.6z"/><path class="st28" d="M335.4 158.3h5.9M335.4 164.3h12M335.4 162.4h12M335.4 160.5h12"/><path class="st27" d="M322.9 170.9h8.6v6h-8.6z"/><path class="st28" d="M335.4 170.9h5.9M335.4 176.9h12M335.4 175h12M335.4 173.1h12"/><path class="st27" d="M322.9 183.5h8.6v6h-8.6z"/><path class="st28" d="M335.4 183.5h5.9M335.4 189.5h12M335.4 187.6h12M335.4 185.7h12"/><path class="st29" d="M251.6 123.1h74M261.7 126.9h53.8"/><path class="st18" d="M262.7 156.7v31.9h6.4v-36.5zM254.1 162.9l-3.2-2v27.7h6.4v-28zM242.4 155.4l-3.2 2.1v31.1h6.4v-31.1zM297.9 149.3v39.3h6.4v-43.1zM277.6 145.9l-3.2 2.3v40.4h6.4v-40.4zM289.4 154.4l-3.2-2.3v36.5h6.4v-36.1z"/><path class="st28" d="M232 154.9v33.7h85.2"/><path class="st28" d="m230.6 155.8 1.4-1.1 1.4 1.1M316.2 187.5l1.4 1.1-1.4 1M233.6 158.7l8.8-5.6 11.7 7.5 23.5-17.1 11.8 8.5 22.8-13.6"/><path class="st28" d="m309.4 137.9 2.7.5-.7 2.7M239.2 193.2h6.2M251 193.2h6.2M262.9 193.2h6.2M274.7 193.2h6.2M286.6 193.2h6.2M298.4 193.2h6.2"/><path class="st21" d="M55.8 265.4h408.5"/><path class="st30" d="M102.7 218.2c-14.9 0-39.5 41.2-31 47 8.5 5.8 49.2 5.8 58.5 0 9.3-5.8-9.1-47-27.5-47z"/><path class="st30" d="m106.7 225 7-17.6s-.2-2.9-5-3.7c-4.8-.9-4.2 2.9-8.6 2.9-4.4 0-9.5-4.3-13.2-.7L97.2 225h9.5z"/><path class="st31" d="M105.4 234.2c.8.2 1.6.5 2.3.9.7.4 1.2.8 1.7 1.3s.9 1 1.1 1.5c.3.5.4 1 .4 1.5 0 .2-.1.3-.2.4-.1.1-.3.2-.4.2h-3.6c-.3 0-.5 0-.6-.1-.2-.1-.3-.2-.5-.3l-.3-.3c-.1-.1-.3-.3-.5-.4-.2-.1-.5-.3-.8-.4-.3-.1-.7-.2-1.2-.2-.4 0-.7 0-1 .1-.3 0-.6.1-.9.2-.2.1-.5.2-.6.4-.2.2-.2.4-.2.7 0 .3.1.5.3.7.2.2.5.4.9.5.4.2 1 .3 1.6.5.7.1 1.5.3 2.5.5s1.9.5 2.7.8c.8.3 1.4.7 1.9 1.2s.9 1 1.1 1.7c.2.6.4 1.4.4 2.3 0 .8-.1 1.5-.4 2.1-.3.6-.7 1.2-1.2 1.7s-1.2.9-1.9 1.2c-.8.3-1.6.6-2.5.7v2c0 .2-.1.4-.2.5-.1.1-.3.2-.5.2h-3.6c-.2 0-.4-.1-.5-.2-.1-.1-.2-.3-.2-.5v-2c-.9-.2-1.7-.5-2.4-.9s-1.3-.8-1.8-1.3-.9-1-1.2-1.6c-.3-.6-.4-1.1-.4-1.7 0-.2.1-.3.2-.4.1-.1.3-.2.4-.2h3.6c.3 0 .5 0 .6.1.1.1.3.2.4.3.1.1.2.2.3.4.1.2.3.3.6.5.2.2.6.3.9.5.4.1.8.2 1.4.2 1 0 1.8-.1 2.4-.3.7-.2 1-.6 1-1.1 0-.3-.1-.5-.4-.7-.2-.2-.6-.4-1.1-.5-.5-.2-1.1-.3-1.8-.5-.7-.1-1.6-.3-2.6-.6-1.9-.4-3.3-1.1-4.2-2-.9-.9-1.3-2.2-1.3-3.8 0-.6.1-1.3.4-1.9.2-.6.6-1.1 1-1.6.5-.5 1-.9 1.7-1.3s1.4-.7 2.2-.9v-2c0-.2.1-.4.2-.5.1-.1.3-.2.5-.2h3.6c.2 0 .4.1.5.2.1.1.2.3.2.5v1.9z"/><path class="st32" d="M95 221c7.3 3.4 13.8-1.4 13.8-1.4"/><path class="st32" d="M104.7 221.5s5.5-3.1 3.8-8c-2.2-6.7-4.8 8.2-4.8 8.2 5.1 0 2 5.7 6.5 6.7M102.8 222s-7.1-1.2-7.1-6.4c0-7.1 7.7 6.2 7.7 6.2-7.7 4.1-4.4 8-8.3 9.6"/><path class="st30" d="M364.1 213.1c-16.6 0-44 45.9-34.6 52.3 9.5 6.4 54.8 6.4 65.2 0 10.4-6.4-10.1-52.3-30.6-52.3z"/><path class="st30" d="m368.5 220.7 7.8-19.6s-.2-3.2-5.6-4.2c-5.4-1-4.6 3.2-9.5 3.2s-10.6-4.8-14.7-.7l11.5 21.3h10.5z"/><path class="st31" d="M367.2 230.9c.9.2 1.8.5 2.5 1 .7.4 1.4.9 1.9 1.4.5.5 1 1.1 1.3 1.6.3.6.5 1.1.5 1.7 0 .2-.1.3-.2.5-.1.1-.3.2-.4.2h-4c-.3 0-.5 0-.7-.1-.2-.1-.4-.2-.5-.4l-.3-.3c-.1-.1-.3-.3-.6-.4-.2-.2-.6-.3-.9-.4-.4-.1-.8-.2-1.4-.2-.4 0-.8 0-1.1.1-.4.1-.7.1-1 .2-.3.1-.5.3-.7.5-.2.2-.3.5-.3.8 0 .3.1.6.3.8.2.2.5.4 1 .6.5.2 1.1.3 1.8.5.8.2 1.7.4 2.8.6 1.1.2 2.1.5 3 .9.8.3 1.5.8 2.1 1.3.6.5 1 1.1 1.3 1.8.3.7.4 1.5.4 2.5 0 .9-.2 1.7-.5 2.4s-.8 1.4-1.4 1.9c-.6.6-1.3 1-2.2 1.4-.8.4-1.8.6-2.8.8v2.2c0 .2-.1.4-.2.6-.2.2-.4.2-.6.2h-4c-.2 0-.4-.1-.6-.2-.2-.2-.2-.4-.2-.6v-2.3c-1-.2-1.9-.5-2.7-1-.8-.4-1.5-.9-2-1.4-.6-.5-1-1.1-1.3-1.7-.3-.6-.5-1.3-.5-1.9 0-.2.1-.3.2-.5.1-.1.3-.2.4-.2h4c.3 0 .5 0 .7.1.2.1.3.2.5.3l.4.4c.2.2.4.4.7.6.3.2.6.4 1 .5.4.1.9.2 1.6.2 1.1 0 2-.1 2.7-.4.7-.2 1.1-.7 1.1-1.3 0-.3-.1-.6-.4-.8-.3-.2-.7-.4-1.2-.6-.5-.2-1.2-.3-2-.5s-1.8-.4-2.9-.6c-2.1-.5-3.7-1.2-4.6-2.3-1-1.1-1.5-2.5-1.5-4.2 0-.7.1-1.4.4-2.1.3-.7.7-1.3 1.2-1.8.5-.6 1.1-1 1.8-1.4.7-.4 1.6-.7 2.5-1v-2.3c0-.2.1-.4.2-.6.2-.2.4-.2.6-.2h4c.2 0 .4.1.6.2.2.2.2.4.2.6v2.3z"/><path class="st32" d="M355.6 216.2c8.1 3.7 15.4-1.5 15.4-1.5"/><path class="st32" d="M366.4 216.8s6.1-3.4 4.3-8.9c-2.5-7.5-5.4 9.2-5.4 9.2 5.7 0 2.2 6.3 7.3 7.5M364.2 217.3s-8-1.4-7.9-7.1c0-7.9 8.6 6.9 8.6 6.9-8.5 4.6-4.9 8.9-9.3 10.7"/><path class="st33" d="M316 228.9c-12.4 0-32.9 34.3-25.8 39.1 7.1 4.8 40.9 4.8 48.7 0 7.7-4.8-7.6-39.1-22.9-39.1z"/><path class="st33" d="m319.3 234.6 5.8-14.6s-.2-2.4-4.2-3.1c-4-.7-3.5 2.4-7.1 2.4-3.7 0-8-3.6-11-.5l8.6 15.9h7.9z"/><path d="M318.2 242.2c.7.2 1.3.4 1.9.7.6.3 1 .7 1.4 1.1.4.4.7.8.9 1.2.2.4.4.8.4 1.2 0 .1-.1.3-.1.4-.1.1-.2.1-.3.1h-3c-.2 0-.4 0-.5-.1-.1-.1-.3-.2-.4-.3l-.2-.2c-.1-.1-.2-.2-.4-.3-.2-.1-.4-.2-.7-.3-.3-.1-.6-.1-1-.1-.3 0-.6 0-.8.1-.3 0-.5.1-.7.2-.2.1-.4.2-.5.4-.1.2-.2.3-.2.6 0 .2.1.4.2.6.1.2.4.3.7.4.3.1.8.3 1.4.4.6.1 1.3.3 2.1.4.8.2 1.6.4 2.2.6.6.3 1.2.6 1.6 1 .4.4.7.9.9 1.4.2.5.3 1.2.3 1.9 0 .6-.1 1.2-.4 1.8-.2.5-.6 1-1 1.4-.4.4-1 .8-1.6 1-.6.3-1.3.5-2.1.6v1.6c0 .2-.1.3-.2.4-.1.1-.3.2-.4.2h-3c-.2 0-.3-.1-.4-.2-.1-.1-.2-.3-.2-.4v-1.7c-.7-.2-1.4-.4-2-.7-.6-.3-1.1-.7-1.5-1.1-.4-.4-.7-.8-1-1.3-.2-.5-.4-.9-.4-1.4 0-.1 0-.3.1-.4.1-.1.2-.1.3-.1h3c.2 0 .4 0 .5.1.1.1.2.1.4.2l.3.3c.1.1.3.3.5.4.2.1.5.3.8.4.3.1.7.2 1.2.2.8 0 1.5-.1 2-.3.5-.2.8-.5.8-1 0-.2-.1-.4-.3-.6-.2-.2-.5-.3-.9-.4-.4-.1-.9-.3-1.5-.4-.6-.1-1.4-.3-2.2-.5-1.6-.3-2.7-.9-3.5-1.7-.7-.8-1.1-1.8-1.1-3.2 0-.5.1-1.1.3-1.6.2-.5.5-1 .9-1.4.4-.4.8-.8 1.4-1.1.5-.3 1.2-.5 1.9-.7v-1.7c0-.2.1-.3.2-.4.1-.1.3-.2.4-.2h3c.2 0 .3.1.4.2.1.1.2.3.2.4l-.1 1.9z" style="fill:#f2940c"/><path class="st32" d="M309.6 231.2c6.1 2.8 11.5-1.1 11.5-1.1"/><path class="st32" d="M317.6 231.7s4.5-2.6 3.2-6.6c-1.9-5.6-4 6.9-4 6.9 4.3 0 1.7 4.7 5.5 5.6M316 232.1s-5.9-1-5.9-5.3c0-5.9 6.4 5.2 6.4 5.2-6.4 3.4-3.7 6.7-6.9 8"/><path class="st3" d="M457.4 120.1c0 5-4.1 9.1-9.1 9.1s-9.1-4.1-9.1-9.1 4.1-9.1 9.1-9.1 9.1 4.1 9.1 9.1z"/><path class="st1" d="M449.4 115.6c.4.1.7.2 1.1.4.3.2.6.4.8.6.2.2.4.5.5.7.1.2.2.5.2.7 0 .1 0 .1-.1.2s-.1.1-.2.1H450c-.1 0-.2 0-.3-.1-.1 0-.1-.1-.2-.2l-.1-.1-.2-.2c-.1-.1-.2-.1-.4-.2-.2 0-.3-.1-.6-.1h-.5c-.2 0-.3.1-.4.1-.1 0-.2.1-.3.2-.1.1-.1.2-.1.3 0 .1 0 .2.1.3.1.1.2.2.4.2.2.1.5.1.8.2.3.1.7.2 1.2.2.5.1.9.2 1.3.4.4.1.7.3.9.6.2.2.4.5.5.8.1.3.2.7.2 1.1 0 .4-.1.7-.2 1-.1.3-.3.6-.6.8l-.9.6c-.4.2-.7.3-1.2.3v.9c0 .1 0 .2-.1.2-.1.1-.2.1-.2.1h-1.7c-.1 0-.2 0-.2-.1-.1-.1-.1-.2-.1-.2v-1c-.4-.1-.8-.2-1.1-.4l-.9-.6c-.2-.2-.4-.5-.6-.7-.1-.3-.2-.5-.2-.8 0-.1 0-.1.1-.2s.1-.1.2-.1h2c.1 0 .1.1.2.1l.2.2c.1.1.2.2.3.2.1.1.3.2.4.2.2.1.4.1.7.1.5 0 .8 0 1.2-.1.3-.1.5-.3.5-.5 0-.1-.1-.2-.2-.3-.1-.1-.3-.2-.5-.2-.2-.1-.5-.1-.9-.2l-1.2-.3c-.9-.2-1.5-.5-2-1-.4-.4-.6-1-.6-1.8 0-.3.1-.6.2-.9.1-.3.3-.5.5-.8.2-.2.5-.4.8-.6.3-.2.7-.3 1-.4v-1c0-.1 0-.2.1-.2.1-.1.2-.1.2-.1h1.7c.1 0 .2 0 .2.1.1.1.1.2.1.2l-.1 1.3z"/><path class="st8" d="M197.4 247.7s-32.7-3.2-34.6 5.5c-3 13.2 41.3 13.2 41.3 13.2l3.8-8.9-18.2-7.1"/><path class="st10" d="m196.4 268.5-9-.3s-1.4-.5-2.4-3.2c-.9-2.7-.5-2.9-.5-2.9l10.5-1.2"/><path class="st8" d="M207.9 246.5s25 1.5 23.9 12.9c-1.1 11.4-38.3 10.4-38.3 10.4l-2.7-11.3s19.2-4.2 27.4-4.2"/><path class="st8" d="m206.2 245.3 19.2 10.1s-14.3 8.1-28 4.8c-13.7-3.4-15.8-9.5-15.8-9.5l24.6-5.4z"/><path class="st7" d="M188 261.5s-.1.5.2.8c.3.3.9-.1 1.6.5.6.6.9 3.2.7 3.7s-.8.4-.8.8c.1.7.9 1 .9 1s-2 .3-4.6.5c-4.7.3-6.1.3-7.8 0-1.4-.2-3.1-2.8-1.3-4.6 2.7-2.7 8.5-2.5 8.5-2.5l2.6-.2"/><path class="st35" d="M191.3 260.3s17.2-6.5 27-7.1"/><path class="st35" d="M194.9 259s-13-7.7-21.3-8.3"/><path class="st10" d="M200.2 204.8s-2.3 5.9-.4 7.9c1 1 3.9 1.3 5.2.3.9-.7 2.4-5.2 1.9-6.1-2-3.1-6.7-2.1-6.7-2.1z"/><path class="st10" d="m207.6 210.6.4 6.4s-4.1 3.2-7.5-.4l.7-4.2 6.4-1.8z"/><path class="st7" d="M209.1 209.4c.3-1.3 1.2-3.5.3-4.4-.3-.3-.7-.5-1-.9-.3-.3-.5-.7-.7-1.1-.3-.7-.8-1.3-1.4-1.8-.6-.4-1.5-.6-2.2-.3-.3.1-.5.3-.8.3-.3.1-.7 0-1-.1-.9-.2-1.8-.1-2.6.1-1 .3-2 1-2.3 2-.3 1 .4 2.3 1.4 2.3.5 0 1.1-.2 1.5.1l.4.4c.5.5 1.4.7 2 .5.9-.4 1.3-.5 1.5.6.1.8.7 1.5 1.4 1.7.4.2.9.2 1.3.5s.5.9.3 1.3c-.1.2-.2.3-.3.5-.1.5.3.9.6 1.3 1.3-1.4 1.4-2.1 1.6-3z"/><path class="st10" d="M206.4 209.5c.6-.9 1.1-.8 1.5-.4.5.6-.2 1.9-.6 2.2-.7.5-1.3.5-1.4-.1"/><path class="st11" d="M201 213.6c2.2.5 4.1-.9 4.1-.9"/><path class="st15" d="M193.5 218.2s-5.4 1.4-7.4 10.2c-1.2 5.1-2.5 10.3-2.5 10.3s-8.6 1-11.4 1.8l1.1 4.9s16.6 1.5 20.3-2.2c3.7-3.7 2.2-13.4 2.2-13.4"/><path class="st16" d="m202.8 218 6.1-.8 1.4.3s-10.7 30.2-10.9 30.2c-.2 0-4-.6-4-.6l2.8-29.7 1.3-.5 3.3 1.1z"/><path class="st8" d="m202.2 219.5-.6 1.4s-4.6 9.1-4.6 11.3c0 2.2-.7 15-.6 15 .2 0 3.3.4 3.3.4L203 234l.2-13"/><path class="st8" d="M201.2 218.2c-.2.2.2 2.5.5 2.7.3.3 1.3.2 1.6 0 .2-.2 1.4-2.4 1-2.7-.4-.4-2.8-.4-3.1 0z"/><path class="st15" d="M198.7 238.9c5.5-14.7 11.7-21.5 11.7-21.5s6.6.6 8.5 3.9c2.4 4.1-.4 9.9-1 18.1-.6 8.2-1.2 6.1-1.2 6.1s-8.2 3.1-15.5 3.1c0 0-8.4-.3-10.6-1.1v-11.8c0-5.2-1.3-13.5 1.3-16.7 1.2-1.4 6.4-1.8 6.4-1.8l.4 21.7z"/><path class="st19" d="M170.9 248.2H196l-2-15c-.1-.5-.5-.8-1-.8h-23.2c-.6 0-1 .5-.9 1l2 14.8z"/><path class="st18" d="M179.7 240.1c.1 1 .9 1.7 1.8 1.7 1 0 1.7-.8 1.6-1.7-.1-1-.9-1.7-1.8-1.7s-1.6.8-1.6 1.7z"/><path class="st16" d="m207.9 215.6-5 2-2.2-2-1.3 1.2 1 3 2.5-1.7 1.6 2.6 4.3-3.6z"/><path class="st17" d="M211.8 217.9c-2.2 6.2-2.6 11.1-2.6 11.1h-2.7l1.5 2.4s-5.7 2.9-9.3 11.7M196.4 217.7c-.4 4-2 8.1-2 8.1l1.7 1.2-2.1 1.2s3.9 9.7 3.3 14.9"/><path style="fill:none;stroke:#ffa6a4;stroke-width:.75;stroke-miterlimit:10" d="m208.9 217.3-4.4 3.7-1.6-2.9-2.6 1.9-1-3.2"/><path class="st10" d="M194.5 245.8c-1.1-.1-6-.3-6 0s1.6.6 1.5.8c-.1.2-1.4.2-2.1.1-.6-.1-1.6-.1-1.7.2-.1.5 3.3.8 3.3.8 0 .2-3.7-1-3.8-.6-.2.6 3.7 1.5 3.8 1.7 0 0-3.2-1.7-3.3-1.3-.2.4 2.6 2.1 3.6 2.2-.8-.3-2.8-1.9-2.9-1.6-.1.3 1.8 1.5 2.1 1.6 2.6.9 5.2.9 5.2.9"/><path class="st16" d="m195.6 245.3-2.1.3.8 6.6 2.8-.2z"/><path class="st15" d="M210.7 229.8c0 8.3-.5 11.9-.5 11.9s-7.2 2.5-15.9 3.4c.5 3.3 1 7.4 1 7.4s17.1-1.2 21.9-4.7c5.3-3.7 5.9-25.4-.3-28.4"/><path class="st17" d="M195.8 244.7c13.2-2.1 15-3.1 15-3.1s1-8.1.6-12.8"/><path class="st10" d="m121.7 146.6-1.3 6.7s3.8 3.8 7.7.3v-4.5l-6.4-2.5z"/><path class="st10" d="M128 140.3s4 6.1 2 8.2c-1 1.1-4.7 2.1-6.1 1.1-1-.8-2.6-5.6-2.1-6.5 2.1-3.4 6.2-2.8 6.2-2.8z"/><path class="st7" d="M121.1 140.7c.3-2.3 2.7-2.8 7-2.1.6.1 1.6-.2 1.9.3.3.7.2 2.1-.5 2.6-.5.4-.8.4-1.4.5-.8.1-1.7.8-1.3 1.7.1.2.3.6.1.8-.1.1-.4.2-.5.2-.3.1-.3.6-.2.9.2.3.1.6.2.9.4.7-.3 2-1 2.3-.7.3-2.8.8-4.3-.2-1.3-.8-1.9-2.8-1.6-6.1 0-1.1 1.1-1.9 1.6-1.8z"/><path class="st10" d="M127.1 144.8c-.6-1-1.2-.9-1.6-.4-.5.6.2 2.1.6 2.4.8.5 1.4.6 1.5-.1"/><path d="M128 149.6c-1-.3-1.3-1.5-1.3-1.5" style="fill:none;stroke:#e88872;stroke-width:.5;stroke-linejoin:round;stroke-miterlimit:10"/><path class="st10" d="m117.3 260.2-2.2 9 7.5 2.9-15.7-2.1 1.3-10.8"/><path class="st7" d="M115.6 267.4c.5.2.1.5.9 1.5s5.5 2.8 7.7 3.5c2.2.6 1.7 2.5 1 2.5h-11.6c-.9 0-1.5-.7-2.1-.7-.2 0-.5-.1-.7 0-.2.2-.1.7-.1.7h-3.9c-.4 0-.7-.3-.7-.6l.4-5.6s4.8.7 6.1.3c.5-.2 0-.6.2-.8.3-.3 2.3-1 2.8-.8z"/><path class="st38" d="M110.5 198.3c.6 20.9-4 65.9-4 65.9l12.8-.1s7.1-30.9 8.9-46.5c1-9.3 1.5-19.7 1.6-27.6"/><path class="st39" d="M126.5 218.1c-2 15.4-9.7 45.8-9.7 45.8"/><path class="st10" d="m138.5 259.8.4 9.4 7.6 2.9-15.8-2.1-.8-10.8"/><path class="st7" d="M139.4 267.4c.5.2.1.5.9 1.5s5.5 2.8 7.7 3.5c2.2.6 1.7 2.5 1 2.5h-11.6c-.9 0-1.5-.7-2.1-.7-.2 0-.5-.1-.7 0-.2.2-.1.7-.1.7h-3.9c-.4 0-.7-.3-.7-.6l.4-5.6s4.8.7 6.1.3c.5-.2 0-.6.2-.8.3-.3 2.3-1 2.8-.8z"/><path class="st38" d="M139.5 199.3s1.6 23.4 1.6 34.6c0 11.2.7 31.5.7 31.5h-12.9s-3.2-34.5-10.4-58.4c-2.6-8.6-2.9-12.4-1.8-17.2l16.1-4.2 6.7 13.7z"/><path class="st39" d="M134.4 198.6c4.6 31.4 5.5 66.8 5.5 66.8M116.4 200.3c1 5.8 3.4 9.4 4.7 11.7 1.9 7.8 2.3 13.6 3.9 23.8M126.2 203.1c-3.9.7-7.5.1-7.5.1M113.4 202.9c-1.3.2-2.8-.1-2.8-.1"/><path class="st10" d="M136 154.1s-.8-2.7-2.4-3.9c-.8-.6-1-.4-1.4-.6-.7-.4-1.1-.3-1.4.1-.2.2-.7.1-1 .3-.4.3-.1.8-.4.9-1.3.6.1 1.8.1 1.8s-.3-.7-.8-.4c-.3.2 1 2.1 1.9 3.3.5.6.9 1.1.9 1.1"/><path class="st16" d="M136.4 153c-.1-.1-1.2-1.6-1.2-1.6l-4.2 3.9 1.3.8"/><path class="st16" d="m131.9 157.5-1.3-1.3 5.3-4.3 1.2 1.8"/><path class="st40" d="M121 153.1c-2.3-.4-5.1-.2-7.1.8-8.3 4.1-12.9 18.1-13.1 21.5-.6 8.6 9.5 23 9.5 23l5.8-2.7s-6.2-14.7-4.5-19.4c1.7-4.8 9.5-13.2 9.5-13.2"/><path class="st40" d="M120.5 153.1s-7 1.5-9.6 11.6c-1.2 4.5.1 11.8-.2 18-.4 9.6-1.8 17.5-1.8 17.5 12.9 2.6 31.4-.2 31.4-.2s-1.3-10.2-1.8-16.7c-.6-7.4-.4-8.8-.4-14.9 0-13.4-9.5-14.3-9.5-14.3l-8.1-1z"/><path class="st40" d="M119.6 153.2s.7-1.7.8-1.7c1.7-.4 6.7-.2 8 1.1.5.5.3 1.2.4 2.2"/><path class="st41" d="M109.6 196.5c1.5-10.3.9-30.4.9-30.4"/><path class="st40" d="M129 164.1s4.3 17.6 14.2 17.6c9.4-.1 6.8-15.7-7.2-29.8l-8.6 7.2"/><path class="st41" d="M138.1 179.8c-2.9-2.4-5.8-6.5-5.8-6.5M132.3 155.5c8 6 12.1 15 12.1 15"/><path class="st10" d="M315.2 102.9c-.2 2-1.9 7.8-1.5 8.1.4.2 1-1.8 1.3-1.5.3.2-.5 3.4 0 3.6.6.2 1.2-3.1 1.2-3.1s-.4 3.6.1 3.7c.4 0 .9-2.7 1.2-3.8-.2 1.2-.3 3.1.2 3.1.4 0 .8-1.9 1.1-3.3-.1.9-.3 2.6.1 2.6s1.6-4.5 2.5-8.8"/><path class="st10" d="M324.6 73.8c1.6 14.2-4.1 32.9-4.1 32.9l-5.7-1.2s2.3-16.3-.3-30.5"/><path class="st15" d="M318.9 62.3c5.4 3.8 5.9 11.9 5.9 11.9l-10.4 2s-.5-6.3-.6-8.5"/><path class="st17" d="M314.1 76.2c-.3-2.9-1.2-5.5-1.2-5.5M325.3 74.1c-.3-2.9-.8-5.2-.8-5.2"/><circle transform="rotate(-76.119 145.211 95.125)" class="st15" cx="145.2" cy="95.1" r="23.2"/><circle class="st16" cx="145.2" cy="95.1" r="16.8"/><circle class="st15" cx="145.2" cy="95.1" r="11.5"/><circle class="st16" cx="145.2" cy="95.1" r="6"/><path class="st42" d="M146.2 96.1h-3.8l3.8-3.8zM121.6 71.5h-4.4v-1.1h3.3v-3.3h1.1z"/><path class="st42" d="M119.6 69.5h-4.4v-1.1h3.3v-3.3h1.1z"/><path transform="rotate(-45.001 131.965 81.873)" class="st42" d="M131.4 63.3h1.1v37.1h-1.1z"/><path class="st43" d="m367.3 274.8-7.2-96.7M396.7 274.8l-7.2-96.7h-29.4M382.2 274.8l7.3-96.7"/><path class="st43" d="m352.9 274.8 7.2-96.7h29.4M395.5 261.1h-41.6M394.6 249.3h-39.8M393.4 237.1h-37.7M392.3 225.5h-35.7M391.6 213.4h-34.2M390.8 201.4h-32.5M390.2 190.1h-31"/><path class="st10" d="m387.4 134.6 1.5 6.7s-3.7 3.9-7.7.5l-.1-4.5 6.3-2.7z"/><path class="st10" d="M378.8 128.8s-1.8 7 .8 8.4c1.3.7 5.2.5 6.1-1 .7-1.1.7-6.2-.1-6.8-3.1-2.5-6.8-.6-6.8-.6z"/><path d="M386.6 126.8c-1.1-2-3.4-1.6-7-.2-1.4.6-2.9 0-3 .6-.4 1.6.5 3 1.3 3.3.6.2 1.5.2 2.1 0 1.5-.5 2.8.2 2.8 1.1 0 .2-.1.7.1.8h.5c.4 0 .5.5.5.8-.1.4.8.3.7.6-.1.8 1.5 1.9 2.3 2 .7.1 1.1-.5 1.4-1.5.6-1.4 1.5-7.7-1.7-7.5z" style="fill:#f94c43"/><path class="st10" d="M383.2 132.6c.3-1.1.9-1.2 1.4-.9.7.4.4 2.1.2 2.4-.5.8-1.2 1-1.5.4"/><path class="st11" d="M381.1 137.7c1.4 0 2.6-1.4 2.6-1.4"/><path class="st10" d="m409.5 239.3 7.3 5.7-4.1 7 11.1-11.4-7.8-7.6"/><path class="st7" d="M415.4 243.9c-.3.4.2.5.2 1.7s-2.6 5.6-3.9 7.5c-1.3 1.8.2 3 .8 2.6 0 0 8.4-6.7 9.1-7.2.7-.5.7-1.5 1.2-1.9.1-.1.4-.4.5-.4.3.1.5.4.5.4l3.1-2.4c.3-.3.4-.7.1-.9l-3.8-4.1s-3.4 3.5-4.7 4c-.5.2-.3-.5-.7-.5-.2.1-2.2.8-2.4 1.2z"/><path class="st40" d="M404.2 184.2c0 6.9-.1 17.7 1.6 28.7.7 4.4 15.6 23.9 15.6 23.9l-8.9 8.4s-25.8-22.8-25.1-39.4c.7-17.9-2.5-42.1-2.5-42.1"/><path class="st10" d="m379.4 245.1.8 10-7.5 2.8 15.8-2v-10.8"/><path class="st7" d="M379.8 253.3c-.5.2-.1.5-.9 1.5s-5.5 2.8-7.7 3.5c-2.2.6-1.7 2.5-1 2.5h11.6c.9 0 1.5-.7 2.1-.7.2 0 .5-.1.7 0 .2.2.1.7.1.7h3.9c.4 0 .7-.3.7-.6l-.4-5.6s-4.8.7-6.1.3c-.5-.2 0-.6-.2-.8-.3-.4-2.3-1-2.8-.8z"/><path class="st40" d="M375.1 185.2s-1.6 23.4-1.6 34.6c0 11.2 3.2 31.5 3.2 31.5h12.9s-.7-34.5 6.5-58.4c2.6-8.6 2.9-12.4 1.8-17.2l-16.1-4.2-6.7 13.7z"/><path class="st41" d="M379.3 184.5c-4.9 29-.1 66.7-.1 66.7M398.6 187.6c0 3.6-1.1 5.3-3.8 8.1-2 8.4-2.2 16-3.6 23.5"/><path class="st41" d="M392.2 213.5C399.6 228.6 414 243 414 243M388.4 189c3.9.7 7.5.1 7.5.1M401.2 188.7c1.3.2 2.8-.1 2.8-.1"/><path class="st8" d="M380.2 141.1s.4-1.8.7-2c2.4-1.4 6.2-1.9 7.4-1.9l.8 2.4"/><path class="st10" d="M348.1 157.8c-2.1.1-8.3-.6-8.5-.2-.2.4 2 .7 1.8 1-.2.3-3.6.1-3.7.5-.1.6 3.3.6 3.3.6s-3.8.2-3.7.7c0 .4 2.9.4 4 .5-1.2 0-3.2.2-3.2.6 0 .4 2 .4 3.5.6-.9 0-2.7.1-2.7.5s4.8.8 9.3 1.1"/><path class="st16" d="m347.2 164.2-2.4-.1.6-6.8h2.5"/><path class="st8" d="M383.5 139.2c.2 0 2.8-.4 3.1-.4 2.7-.2 7.3 1.7 10.8 10.3 4.5 11.1 7.5 35.9 7.5 35.9s-18.9 3.6-32.1 2.4c-1-17.4-5.2-45 10.7-48.2z"/><path class="st9" d="M376.5 160.8s3.4 11.8 4.1 26.7"/><path class="st8" d="M385.6 138.9s-6.8.2-12 5.6c-3.4 3.5-6 7.8-8.5 9.8-2.9 2.3-18.7 2.6-18.7 2.6l.1 7.8s15.4 2.1 20.5.5c5.2-1.6 11.1-6.1 11.1-6.1"/><path class="st9" d="M372.3 163.3c2.8-1.3 5.8-3.7 5.8-3.7"/></svg>