<svg version="1.1" id="Calque_1" xmlns="http://www.w3.org/2000/svg" x="0" y="0" viewBox="0 0 800 600" style="enable-background:new 0 0 800 600" xml:space="preserve"><style>.st0{fill:#fff;stroke:#671cc9;stroke-width:5;stroke-miterlimit:10}.st1{fill:#efefef}.st3{fill:none;stroke:#671cc9;stroke-width:5;stroke-linecap:round;stroke-miterlimit:10}</style><path class="st0" d="M641.7 432.3H158.3c-7.9 0-14.3-3.7-14.3-8.2V175.9c0-4.5 6.4-8.2 14.3-8.2h483.3c7.9 0 14.3 3.7 14.3 8.2v248.2c.1 4.5-6.3 8.2-14.2 8.2z"/><path id="XMLID_5_" class="st1" d="M183.9 273.8h235.6V300H183.9z"/><path id="XMLID_1_" class="st1" d="M183.9 313.2H578v26.2H183.9z"/><path style="fill:none;stroke:#671cc9;stroke-width:5;stroke-miterlimit:10" d="M144 244h512"/><path class="st3" d="m631.7 196.8-18 18M631.7 214.8l-18-18"/><path class="st0" d="M631.3 408.8h-78c-.2 0-.4-.2-.4-.4v-37.5c0-.2.2-.4.4-.4h78c.2 0 .4.2.4.4v37.5c-.1.2-.2.4-.4.4zM534.5 408.8h-78c-.2 0-.4-.2-.4-.4v-37.5c0-.2.2-.4.4-.4h78c.2 0 .4.2.4.4v37.5c-.1.2-.2.4-.4.4z"/></svg>