<svg version="1.1" id="Calque_1" xmlns="http://www.w3.org/2000/svg" x="0" y="0" viewBox="0 0 800 600" style="enable-background:new 0 0 800 600" xml:space="preserve"><style>.st1{fill:#585868}</style><path d="M190.9 100h418.2c4.9 0 8.9 3.9 8.9 8.9v382.2c0 4.9-4 8.9-8.9 8.9H190.9c-4.9 0-8.9-3.9-8.9-8.9V108.9c0-4.9 4-8.9 8.9-8.9z" style="fill:#323236;stroke:#797bf2;stroke-width:5;stroke-miterlimit:10"/><path class="st1" d="M322 328.4h156v22H322zM322 401.6h156v22H322zM290.4 361.9h219.1v22H290.4z"/><path d="M400 157.3c-36.1 0-65.5 29.4-65.5 65.5 0 15.8 5.6 30.3 15 41.7 0 0 0 .1.1.1 6.8 8.2 15.3 14.4 24.7 18.4.1 0 .2.1.3.1.8.3 1.5.6 2.3.9l.9.3c.7.2 1.3.5 2 .7.4.1.9.3 1.3.4.6.2 1.2.4 1.8.5.5.1 1.1.3 1.6.4.5.1 1.1.3 1.6.4.6.1 1.2.2 1.8.4l1.5.3 2.1.3c.4.1.9.1 1.3.2.8.1 1.6.1 2.4.2.4 0 .7.1 1.1.1 1.2.1 2.3.1 3.5.1 1.2 0 2.4 0 3.5-.1.4 0 .7-.1 1.1-.1.8-.1 1.6-.1 2.4-.2.4 0 .9-.1 1.3-.2l2.1-.3 1.5-.3c.6-.1 1.2-.2 1.8-.4.5-.1 1.1-.2 1.6-.4.5-.1 1.1-.3 1.6-.4.6-.2 1.2-.3 1.8-.5.4-.1.9-.3 1.3-.4.7-.2 1.4-.4 2-.7l.9-.3c.8-.3 1.6-.6 2.3-.9.1 0 .2-.1.3-.1 9.5-4 18-10.3 24.7-18.4 0 0 0-.1.1-.1 9.4-11.3 15-25.9 15-41.7.4-36.1-29-65.5-65.1-65.5zm26.5 120.6c-.9.4-1.7.8-2.5 1.1-.2.1-.4.2-.5.2-.7.3-1.4.6-2.1.8l-.9.3c-.6.2-1.3.4-1.9.6-.4.1-.8.2-1.2.4-.6.2-1.1.3-1.7.5-.5.1-1 .2-1.5.4-.5.1-1 .2-1.5.4-.6.1-1.1.2-1.7.3-.5.1-.9.2-1.4.2-.6.1-1.3.2-1.9.3-.4.1-.8.1-1.2.2-.7.1-1.5.1-2.2.2-.3 0-.7.1-1 .1-1.1.1-2.2.1-3.2.1s-2.2 0-3.2-.1c-.3 0-.7-.1-1-.1-.7-.1-1.5-.1-2.2-.2-.4 0-.8-.1-1.2-.2-.6-.1-1.3-.2-1.9-.3-.5-.1-.9-.2-1.4-.2-.6-.1-1.1-.2-1.7-.3-.5-.1-1-.2-1.5-.4-.5-.1-1-.2-1.5-.4-.6-.2-1.1-.3-1.7-.5-.4-.1-.8-.2-1.2-.4-.6-.2-1.3-.4-1.9-.6l-.9-.3c-.7-.3-1.4-.5-2.1-.8-.2-.1-.4-.2-.5-.2-.8-.3-1.6-.7-2.4-1.1h-.1c-7.6-3.7-14.3-8.9-19.8-15.3 4.2-15.5 16.2-28.1 31.5-33 .3.2.6.4.9.5.2.1.4.2.5.3.7.3 1.3.7 2 1 .5.2 1.1.4 1.6.6.1 0 .2.1.3.1 3 1 6.1 1.6 9.4 1.6s6.5-.6 9.4-1.6c.1 0 .2-.1.3-.1.5-.2 1.1-.4 1.6-.6.7-.3 1.3-.6 2-1 .2-.1.4-.2.5-.3.3-.2.6-.3.9-.5 15.4 5 27.3 17.5 31.5 33-5.4 6.3-12.2 11.6-19.8 15.3zM376 205.4c0-13.2 10.8-24 24-24s24 10.8 24 24c0 8.4-4.4 15.8-10.9 20.1-.9.6-1.8 1.1-2.7 1.5-.1.1-.2.1-.3.2-6.3 2.9-13.8 2.9-20.1 0-.1-.1-.2-.1-.3-.2-.9-.4-1.8-.9-2.7-1.5-6.6-4.3-11-11.7-11-20.1zm73.6 53c-4.9-14.6-16.2-26.4-30.7-32 5.8-5.2 9.4-12.7 9.4-21.1 0-15.6-12.7-28.4-28.4-28.4s-28.4 12.7-28.4 28.4c0 8.4 3.7 15.9 9.4 21.1-14.4 5.6-25.7 17.4-30.7 32-7.2-10-11.5-22.3-11.5-35.6 0-33.7 27.4-61.1 61.1-61.1s61.1 27.4 61.1 61.1c.2 13.3-4.1 25.6-11.3 35.6z" style="fill:#797bf2"/></svg>