<svg version="1.1" id="Calque_1" xmlns="http://www.w3.org/2000/svg" x="0" y="0" viewBox="0 0 800 600" style="enable-background:new 0 0 800 600" xml:space="preserve"><style>.st0{fill:#323236;stroke:#797bf2;stroke-width:5;stroke-miterlimit:10}.st1{fill:#585868}</style><path class="st0" d="M641.7 392.5H158.3c-7.9 0-14.3-3.1-14.3-7V174.7c0-3.8 6.4-7 14.3-7h483.3c7.9 0 14.3 3.1 14.3 7v210.9c.1 3.8-6.3 6.9-14.2 6.9z"/><path id="XMLID_5_" class="st1" d="M311.7 251.6h99.5v22.9h-99.5z"/><path id="XMLID_1_" class="st1" d="M311.7 286.1h163.2V309H311.7z"/><path class="st0" d="M628.2 299.3h-78c-.2 0-.4-.2-.4-.4v-37.5c0-.2.2-.4.4-.4h78c.2 0 .4.2.4.4v37.5c-.1.2-.2.4-.4.4z"/><circle class="st0" cx="227.5" cy="280.1" r="56.1"/></svg>