<svg xmlns="http://www.w3.org/2000/svg" viewBox="0 0 800 600" style="enable-background:new 0 0 800 600" xml:space="preserve"><path d="M630.8 502.9H169.2c-21.4 0-38.8-17.4-38.8-38.8V135.9c0-21.4 17.4-38.8 38.8-38.8h461.6c21.4 0 38.8 17.4 38.8 38.8v328.2c0 21.4-17.4 38.8-38.8 38.8z" style="fill:#323236;stroke:#797bf2;stroke-width:5;stroke-miterlimit:10"/><path d="M517.5 317.9c-1.6-1.4-4.1-1.2-5.5.5-1.4 1.6-1.2 4.1.5 5.5 8.4 7.2 12.9 15.2 12.9 23.2 0 5.4-1.9 9.9-5.9 13.9-6.6 6.6-19 11.6-36.7 14.7-15.9 2.8-35.8 4.2-60.9 4.1-38.8-.1-66.1-3.4-83.2-10.2 6.6-4.7 13.6-10.3 21.2-16.9 2.3 2.7 5.6 4.5 9.2 4.9 7.6.8 14.5-4.9 15.3-12.6.5-5.1.5-10.3 0-15.4 6.8-6.8 13-13.3 18.6-19.4 3.1 5.4 5.3 11 6.4 16.8 1 5 1.2 10.1.7 15.3-.7 7.7 4.9 14.6 12.5 15.3 7.6.8 14.4-4.8 15.2-12.6.8-7.9.4-15.7-1.1-23.4-1.6-8.1-4.4-15.8-8.4-23.2 7.5.2 14.8.8 21.9 1.8 6.5 8.3 10.5 17.2 11.9 26.7.7 5 .7 10.2 0 15.3-1.1 7.6 4.2 14.8 11.8 15.9 7.5 1.1 14.7-4.2 15.8-11.9 1.1-7.8 1.1-15.7 0-23.4-.7-4.6-1.8-9.2-3.3-13.7 3.9 1.5 7.6 3.1 11.1 4.9 1.9 1 4.3.2 5.2-1.7 1-1.9.2-4.3-1.7-5.2-21.4-10.9-51.1-16.9-81.6-16.6 2.1-2.7 4.1-5.4 5.9-8 11.4-16.3 17-29.7 17-40.8 0-7.7-2.7-14.3-7.9-19.5-11-11-29.7-12.7-52.6-4.9-21.9 7.5-45.5 23.1-66.2 43.8-30.1 30-48.7 65.2-48.7 91.9 0 11.1 3.4 20.3 9.7 26.6 5.3 5.3 11.8 7.9 19.5 7.9 8.1 0 17.5-3 28.2-8.9 2.2-1.2 4.4-2.5 6.7-4 17.8 8.6 47.6 12.8 90.8 12.9 24.7 0 46.3-1.4 62.3-4.2 19.6-3.4 33-9 40.9-16.9 5.4-5.4 8.2-12 8.2-19.4 0-10.3-5.5-20.4-15.7-29.1zm-40.7-12c2.5 5.9 4.3 11.9 5.2 18.1 1 6.9 1 14.1 0 21.2-.5 3.4-3.6 5.7-6.9 5.2-3.4-.5-5.7-3.7-5.2-7.1.8-5.9.8-11.8 0-17.5-1.2-8.3-4.2-16.3-8.9-23.8 5.5 1.1 10.8 2.4 15.8 3.9zm-100.3 38.3c-.3 3.2-2.9 5.6-6.1 5.6-1.9 0-3.7-.9-4.8-2.4 3.6-3.3 7.4-6.8 11.2-10.5.1 2.4 0 4.8-.3 7.3zm52.5-21.1c1.3 6.9 1.7 14 1 21.1-.3 3.4-3.3 5.9-6.7 5.6-3.4-.3-5.8-3.4-5.5-6.8.6-5.9.3-11.8-.8-17.5-1.5-7.5-4.4-14.7-8.7-21.4 1.6-1.9 3.2-3.7 4.7-5.5 2-.1 4.1-.1 6.2-.2 4.9 7.7 8.1 16 9.8 24.7zM365.5 233c5.9 2.4 11.4 5.4 16.4 9.1 5.6 4.2 10.7 9.2 15 14.9 1.9 2.6 1.6 6.1-.7 8.2-2.7 2.4-7 2-9.1-.9-3.6-4.8-7.8-8.9-12.4-12.4-6.8-5-14.5-8.6-23.1-10.6 4.6-3 9.2-5.8 13.9-8.3zm-76.6 75.2c6.1 2.1 11.8 4.9 17 8.5 5.8 3.9 11.1 8.7 15.6 14.2 2 2.5 1.9 6-.3 8.2-2.6 2.6-6.8 2.3-9.2-.5-3.8-4.6-8.2-8.6-13-11.8-4.8-3.3-10.1-5.8-15.9-7.6 1.8-3.6 3.7-7.3 5.8-11zm31.5 63.6c-17.6 9.7-30.1 10.5-38.4 2.3-4.9-4.9-7.5-12-7.5-21.1 0-8 2-17 5.6-26.5 5.3 1.6 10.2 3.9 14.5 6.8 4.2 2.8 8 6.3 11.3 10.3 5.2 6.3 14.9 6.8 20.7 1.1 5.1-5.1 5.5-13.1.8-18.7-5-6.1-10.9-11.4-17.3-15.7-5.3-3.6-11.2-6.6-17.3-8.8 3.2-5.1 6.8-10.1 10.7-15.1 8 .4 18.9 2.5 28.9 9.3 4.2 2.8 8 6.3 11.3 10.3 4.9 6 13.7 6.8 19.7 2 6-4.9 6.8-13.7 1.9-19.6-3.1-3.8-6.5-7.2-10.2-10.4-1.6-1.4-4.1-1.2-5.5.4-1.4 1.6-1.2 4.1.4 5.5 3.3 2.8 6.4 6 9.2 9.4 2.2 2.6 1.8 6.5-.8 8.6-2.6 2.1-6.5 1.7-8.7-.9-3.8-4.6-8.2-8.6-13-11.8-7.9-5.3-17.3-8.8-27.4-10.1 3.1-3.6 6.4-7.2 9.8-10.7 5.8 1.4 11.3 3.4 16.5 6 1.9 1 4.3.2 5.2-1.7 1-1.9.2-4.3-1.7-5.2-4.3-2.2-8.8-3.9-13.5-5.3 5.5-5.1 11.1-9.9 16.8-14.2 10.4 1.2 19.6 4.7 27.3 10.5 4.1 3 7.7 6.7 10.8 10.8 4.9 6.6 14.6 7.5 20.6 2 5.3-4.8 6.1-12.9 1.7-18.7-4.8-6.3-10.3-11.9-16.6-16.5-3.8-2.8-7.8-5.2-12-7.4 3.3-1.5 6.5-2.7 9.7-3.8 8.7-3 16.5-4.4 23.4-4.4 8.9 0 16.2 2.5 21.2 7.5 3.8 3.8 5.7 8.4 5.7 14 0 9.4-5.2 21.6-15.6 36.4-5.2 7.4-11.6 16-18.3 22.9-22.9 23.9-51.1 54.6-79.9 70.5z" style="fill:#797bf2"/></svg>