<svg version="1.1" id="Calque_1" xmlns="http://www.w3.org/2000/svg" x="0" y="0" viewBox="0 0 800 600" style="enable-background:new 0 0 800 600" xml:space="preserve"><style>.st0{fill:#fff;stroke:#671cc9;stroke-width:5;stroke-miterlimit:10}.st1{fill:#efefef}</style><path id="XMLID_1_" class="st0" d="M593.3 540.5H206.8c-9.8 0-17.8-7.9-17.8-17.8V77.3c0-9.8 7.9-17.8 17.8-17.8h386.5c9.8 0 17.8 7.9 17.8 17.8v445.5c-.1 9.8-8 17.7-17.8 17.7z"/><circle id="XMLID_2_" class="st0" cx="400" cy="154.4" r="54.5"/><path id="XMLID_3_" class="st0" d="M473.5 500h-147c-21.8 0-39.5-17.7-39.5-39.5s17.7-39.5 39.5-39.5h147c21.8 0 39.5 17.7 39.5 39.5S495.3 500 473.5 500z"/><path id="XMLID_5_" class="st1" d="M267 261.8h267v33H267z"/><path id="XMLID_7_" class="st1" d="M302.5 320.3h195v33h-195z"/></svg>