<svg version="1.1" id="Calque_1" xmlns="http://www.w3.org/2000/svg" x="0" y="0" viewBox="0 0 800 600" style="enable-background:new 0 0 800 600" xml:space="preserve"><style>.st1{fill:none;stroke:#797bf2;stroke-width:5;stroke-miterlimit:10}.st2{fill:#585868}.st3{fill:none;stroke:#797bf2;stroke-width:5;stroke-linecap:round;stroke-linejoin:round;stroke-miterlimit:10}</style><path d="M688.5 530h-577c-9.9 0-18-8.1-18-18V88c0-9.9 8.1-18 18-18h577c9.9 0 18 8.1 18 18v424c0 9.9-8.1 18-18 18z" style="fill:#323236;stroke:#797bf2;stroke-width:5;stroke-miterlimit:10"/><path class="st1" d="M93.5 128h613"/><path class="st2" d="M345 249.3h31.6V269H345zM268.9 249.3h31.6V269h-31.6zM499.3 249.3h31.6V269h-31.6zM345 319.1h31.6v19.7H345zM268.9 319.1h31.6v19.7h-31.6zM422.1 319.1h31.6v19.7h-31.6zM499.3 319.1h31.6v19.7h-31.6zM345 388.4h31.6v19.7H345zM268.9 388.4h31.6v19.7h-31.6zM422.1 388.4h31.6v19.7h-31.6zM499.3 388.4h31.6v19.7h-31.6zM574.4 249.3H606V269h-31.6zM574.4 319.1H606v19.7h-31.6zM574.4 388.4H606v19.7h-31.6zM194 249.3h31.6V269H194zM345 188.5h31.6v19.7H345zM268.9 188.5h31.6v19.7h-31.6zM422.1 188.5h31.6v19.7h-31.6zM499.3 188.5h31.6v19.7h-31.6zM574.4 188.5H606v19.7h-31.6zM194 188.5h31.6v19.7H194zM345 447.8h31.6v19.7H345zM268.9 447.8h31.6v19.7h-31.6zM422.1 447.8h31.6v19.7h-31.6zM499.3 447.8h31.6v19.7h-31.6zM574.4 447.8H606v19.7h-31.6zM194 447.8h31.6v19.7H194zM194 319.1h31.6v19.7H194zM194 388.4h31.6v19.7H194z"/><path class="st3" d="m128.2 107.3-9.3-9.3 9.3-9.2M668.2 88.8l9.3 9.2-9.3 9.3"/><circle class="st1" cx="438.1" cy="258" r="16"/></svg>