<svg version="1.1" id="Calque_1" xmlns="http://www.w3.org/2000/svg" x="0" y="0" viewBox="0 0 800 600" style="enable-background:new 0 0 800 600" xml:space="preserve"><style>.st0{fill:#323236;stroke:#797bf2;stroke-width:5;stroke-miterlimit:10}.st1{fill:#585868}</style><path class="st0" d="M277.7 452H33.6c-7.9 0-14.3-6.4-14.3-14.3V162.3c0-7.9 6.4-14.3 14.3-14.3h244.1c7.9 0 14.3 6.4 14.3 14.3v275.3c.1 8-6.4 14.4-14.3 14.4z"/><path id="XMLID_3_" class="st1" d="M79.2 253.7h160.6V265H79.2z"/><path id="XMLID_4_" class="st1" d="M53.7 294.3h211.6v11.3H53.7z"/><path id="XMLID_6_" class="st1" d="M53.7 325.3h211.6v11.3H53.7z"/><path id="XMLID_7_" class="st1" d="M53.7 356.3h211.6v11.3H53.7z"/><path id="XMLID_8_" class="st1" d="M53.7 387.3h160.6v11.3H53.7z"/><circle class="st0" cx="148.7" cy="164.1" r="48.5"/><path class="st0" d="M766.4 452H522.3c-7.9 0-14.3-6.4-14.3-14.3V162.3c0-7.9 6.4-14.3 14.3-14.3h244.1c7.9 0 14.3 6.4 14.3 14.3v275.3c-.1 8-6.4 14.4-14.3 14.4z"/><path id="XMLID_11_" class="st1" d="M538.6 325.3h211.6v11.3H538.6z"/><path id="XMLID_10_" class="st1" d="M538.6 356.3h211.6v11.3H538.6z"/><path id="XMLID_9_" class="st1" d="M538.6 387.3h160.6v11.3H538.6z"/><path style="fill:none;stroke:#797bf2;stroke-width:5;stroke-miterlimit:10" d="M507.9 286.3 780.6 259"/><path class="st0" d="M564.9 500H234.7c-7.9 0-14.3-6.4-14.3-14.3V114.3c0-7.9 6.4-14.3 14.3-14.3h330.2c7.9 0 14.3 6.4 14.3 14.3v371.3c.1 8-6.3 14.4-14.3 14.4z"/><path id="XMLID_5_" class="st1" d="M264.2 314h262.7v22.6H264.2z"/><path id="XMLID_1_" class="st1" d="M264.2 358h262.7v22.6H264.2z"/><path id="XMLID_2_" class="st1" d="M264.2 402h262.7v22.6H264.2z"/><path style="fill:#fff;stroke:#797bf2;stroke-width:5;stroke-miterlimit:10" d="M220.5 270h358.8"/><path class="st0" d="m324.9 229.8 47-40.7 20 20.4 42-45.4 41 65.7z"/><circle class="st0" cx="371" cy="153.3" r="14.1"/></svg>