<svg version="1.1" id="Calque_1" xmlns="http://www.w3.org/2000/svg" x="0" y="0" viewBox="-599 686 800 600" style="enable-background:new -599 686 800 600" xml:space="preserve"><style>.st0{fill:#fff;stroke:#7f00ff;stroke-width:5;stroke-miterlimit:10}</style><path class="st0" d="M135.2 1071.2H5.9c-8.1 0-14.7-6.6-14.7-14.7V927.3c0-8.1 6.6-14.7 14.7-14.7h129.3c8.1 0 14.7 6.6 14.7 14.7v129.3c0 8-6.6 14.6-14.7 14.6zM-403.9 1071.2h-129.3c-8.1 0-14.7-6.6-14.7-14.7V927.3c0-8.1 6.6-14.7 14.7-14.7h129.3c8.1 0 14.7 6.6 14.7 14.7v129.3c-.1 8-6.6 14.6-14.7 14.6z"/><path class="st0" d="M55.9 1104.5h-195.8c-8.1 0-14.7-6.6-14.7-14.7V894c0-8.1 6.6-14.7 14.7-14.7H55.9c8.1 0 14.7 6.6 14.7 14.7v195.8c0 8.1-6.6 14.7-14.7 14.7zM-258.1 1104.5h-195.8c-8.1 0-14.7-6.6-14.7-14.7V894c0-8.1 6.6-14.7 14.7-14.7h195.8c8.1 0 14.7 6.6 14.7 14.7v195.8c0 8.1-6.6 14.7-14.7 14.7z"/><path class="st0" d="M-56.7 1143h-284.7c-8.1 0-14.7-6.6-14.7-14.7V843.7c0-8.1 6.6-14.7 14.7-14.7h284.7c8.1 0 14.7 6.6 14.7 14.7v284.7c0 8-6.6 14.6-14.7 14.6z"/><circle class="st0" cx="-199" cy="1109.3" r="8.8"/><circle class="st0" cx="-167.5" cy="1109.3" r="8.8"/><circle class="st0" cx="-229.3" cy="1109.3" r="8.8"/></svg>