<svg version="1.1" id="Calque_1" xmlns="http://www.w3.org/2000/svg" x="0" y="0" viewBox="-599 686 800 600" style="enable-background:new -599 686 800 600" xml:space="preserve"><style>.st0{fill:#fff;stroke:#7f00ff;stroke-width:5;stroke-miterlimit:10}</style><path class="st0" d="M-336.9 924.6h-202c-4.7 0-8.5-3.8-8.5-8.5v-66.3c0-4.7 3.8-8.5 8.5-8.5h202c4.7 0 8.5 3.8 8.5 8.5v66.3c0 4.7-3.8 8.5-8.5 8.5zM-98 924.6h-202c-4.7 0-8.5-3.8-8.5-8.5v-66.3c0-4.7 3.8-8.5 8.5-8.5h202c4.7 0 8.5 3.8 8.5 8.5v66.3c0 4.7-3.8 8.5-8.5 8.5zM140.9 924.6h-202c-4.7 0-8.5-3.8-8.5-8.5v-66.3c0-4.7 3.8-8.5 8.5-8.5h202c4.7 0 8.5 3.8 8.5 8.5v66.3c0 4.7-3.8 8.5-8.5 8.5zM-336.9 1027.6h-202c-4.7 0-8.5-3.8-8.5-8.5v-66.3c0-4.7 3.8-8.5 8.5-8.5h202c4.7 0 8.5 3.8 8.5 8.5v66.3c0 4.7-3.8 8.5-8.5 8.5zM-98 1027.6h-202c-4.7 0-8.5-3.8-8.5-8.5v-66.3c0-4.7 3.8-8.5 8.5-8.5h202c4.7 0 8.5 3.8 8.5 8.5v66.3c0 4.7-3.8 8.5-8.5 8.5zM140.9 1027.6h-202c-4.7 0-8.5-3.8-8.5-8.5v-66.3c0-4.7 3.8-8.5 8.5-8.5h202c4.7 0 8.5 3.8 8.5 8.5v66.3c0 4.7-3.8 8.5-8.5 8.5zM-336.9 1130.6h-202c-4.7 0-8.5-3.8-8.5-8.5v-66.3c0-4.7 3.8-8.5 8.5-8.5h202c4.7 0 8.5 3.8 8.5 8.5v66.3c0 4.7-3.8 8.5-8.5 8.5zM-98 1130.6h-202c-4.7 0-8.5-3.8-8.5-8.5v-66.3c0-4.7 3.8-8.5 8.5-8.5h202c4.7 0 8.5 3.8 8.5 8.5v66.3c0 4.7-3.8 8.5-8.5 8.5zM140.9 1130.6h-202c-4.7 0-8.5-3.8-8.5-8.5v-66.3c0-4.7 3.8-8.5 8.5-8.5h202c4.7 0 8.5 3.8 8.5 8.5v66.3c0 4.7-3.8 8.5-8.5 8.5z"/></svg>