<svg version="1.1" id="Calque_1" xmlns="http://www.w3.org/2000/svg" x="0" y="0" viewBox="0 0 800 600" style="enable-background:new 0 0 800 600" xml:space="preserve"><style>.st0,.st1{fill:#323236;stroke:#797bf2;stroke-width:5;stroke-miterlimit:10}.st1{fill:none}</style><path class="st0" d="M370 202.8H126c-5.7 0-10.3-4.6-10.3-10.3v-89c0-5.7 4.6-10.3 10.3-10.3h244c5.7 0 10.3 4.6 10.3 10.3v89c-.1 5.7-4.6 10.3-10.3 10.3z"/><circle class="st0" cx="171.1" cy="147.6" r="27"/><path class="st1" d="M228.7 147.6h117.4"/><path class="st0" d="M674 202.8H430c-5.7 0-10.3-4.6-10.3-10.3v-89c0-5.7 4.6-10.3 10.3-10.3h244c5.7 0 10.3 4.6 10.3 10.3v89c0 5.7-4.6 10.3-10.3 10.3z"/><circle class="st0" cx="475.1" cy="147.6" r="27"/><path class="st1" d="M532.8 147.6h117.3"/><path class="st0" d="M370 354.8H126c-5.7 0-10.3-4.6-10.3-10.3v-89c0-5.7 4.6-10.3 10.3-10.3h244c5.7 0 10.3 4.6 10.3 10.3v89c-.1 5.7-4.6 10.3-10.3 10.3z"/><circle class="st0" cx="171.1" cy="299.6" r="27"/><path class="st1" d="M228.7 299.6h117.4"/><path class="st0" d="M674 354.8H430c-5.7 0-10.3-4.6-10.3-10.3v-89c0-5.7 4.6-10.3 10.3-10.3h244c5.7 0 10.3 4.6 10.3 10.3v89c0 5.7-4.6 10.3-10.3 10.3z"/><circle class="st0" cx="475.1" cy="299.6" r="27"/><path class="st1" d="M532.8 299.6h117.3"/><path class="st0" d="M370 506.8H126c-5.7 0-10.3-4.6-10.3-10.3v-89c0-5.7 4.6-10.3 10.3-10.3h244c5.7 0 10.3 4.6 10.3 10.3v89c-.1 5.7-4.6 10.3-10.3 10.3z"/><circle class="st0" cx="171.1" cy="451.6" r="27"/><path class="st1" d="M228.7 451.6h117.4"/><path class="st0" d="M674 506.8H430c-5.7 0-10.3-4.6-10.3-10.3v-89c0-5.7 4.6-10.3 10.3-10.3h244c5.7 0 10.3 4.6 10.3 10.3v89c0 5.7-4.6 10.3-10.3 10.3z"/><circle class="st0" cx="475.1" cy="451.6" r="27"/><path class="st1" d="M532.8 451.6h117.3"/></svg>