<svg version="1.1" id="Calque_1" xmlns="http://www.w3.org/2000/svg" x="0" y="0" viewBox="0 0 800 600" style="enable-background:new 0 0 800 600" xml:space="preserve"><style>.st0{fill:#fff;stroke:#671cc9;stroke-width:5;stroke-miterlimit:10}</style><path class="st0" d="M271.5 280.7H105.4c-1.6 0-2.9-1.3-2.9-2.9v-166c0-1.6 1.3-2.9 2.9-2.9h166.1c1.6 0 2.9 1.3 2.9 2.9v166.1c0 1.5-1.3 2.8-2.9 2.8zM483 280.7H317c-1.6 0-2.9-1.3-2.9-2.9v-166c0-1.6 1.3-2.9 2.9-2.9h166c1.6 0 2.9 1.3 2.9 2.9v166.1c0 1.5-1.3 2.8-2.9 2.8zM694.6 280.7H528.5c-1.6 0-2.9-1.3-2.9-2.9v-166c0-1.6 1.3-2.9 2.9-2.9h166.1c1.6 0 2.9 1.3 2.9 2.9v166.1c0 1.5-1.3 2.8-2.9 2.8zM271.5 491.1H105.4c-1.6 0-2.9-1.3-2.9-2.9v-166c0-1.6 1.3-2.9 2.9-2.9h166.1c1.6 0 2.9 1.3 2.9 2.9v166.1c0 1.5-1.3 2.8-2.9 2.8zM483 491.1H317c-1.6 0-2.9-1.3-2.9-2.9v-166c0-1.6 1.3-2.9 2.9-2.9h166c1.6 0 2.9 1.3 2.9 2.9v166.1c0 1.5-1.3 2.8-2.9 2.8zM694.6 491.1H528.5c-1.6 0-2.9-1.3-2.9-2.9v-166c0-1.6 1.3-2.9 2.9-2.9h166.1c1.6 0 2.9 1.3 2.9 2.9v166.1c0 1.5-1.3 2.8-2.9 2.8z"/></svg>