<svg version="1.1" id="Calque_1" xmlns="http://www.w3.org/2000/svg" x="0" y="0" viewBox="-599 686 800 600" style="enable-background:new -599 686 800 600" xml:space="preserve"><style>.st0{fill:#fff;stroke:#7f00ff;stroke-width:5;stroke-miterlimit:10}.st1{fill:#7f00ff}</style><path class="st0" d="M-217.5 975.9h-204c-4.7 0-8.5-3.8-8.5-8.5V801.8c0-4.7 3.8-8.5 8.5-8.5h204c4.7 0 8.5 3.8 8.5 8.5v165.6c0 4.7-3.8 8.5-8.5 8.5zM23.5 975.9h-204c-4.7 0-8.5-3.8-8.5-8.5V801.8c0-4.7 3.8-8.5 8.5-8.5h204c4.7 0 8.5 3.8 8.5 8.5v165.6c0 4.7-3.8 8.5-8.5 8.5zM-217.5 1178.7h-204c-4.7 0-8.5-3.8-8.5-8.5v-165.6c0-4.7 3.8-8.5 8.5-8.5h204c4.7 0 8.5 3.8 8.5 8.5v165.6c0 4.7-3.8 8.5-8.5 8.5zM23.5 1178.7h-204c-4.7 0-8.5-3.8-8.5-8.5v-165.6c0-4.7 3.8-8.5 8.5-8.5h204c4.7 0 8.5 3.8 8.5 8.5v165.6c0 4.7-3.8 8.5-8.5 8.5z"/><path class="st1" d="M-372 903.7v-6.6l6-5.5c10.2-9.1 15.1-14.4 15.3-19.8 0-3.8-2.3-6.8-7.7-6.8-4 0-7.5 2-10 3.9l-3.1-7.8c3.5-2.7 9-4.8 15.3-4.8 10.6 0 16.4 6.2 16.4 14.6 0 7.8-5.7 14.1-12.4 20.1l-4.3 3.6v.1h17.6v9H-372zM-312.8 903.7v-11.1h-20.7v-7.1l17.7-28.4h13.4v27.3h5.6v8.2h-5.6v11.1h-10.4zm0-19.3v-10.3c0-2.8.1-5.7.4-8.7h-.3c-1.5 3-2.7 5.7-4.3 8.7l-6.2 10.2v.1h10.4zM-290.4 893c1.9 1 6.4 2.9 10.8 2.9 5.7 0 8.5-2.7 8.5-6.2 0-4.6-4.6-6.7-9.4-6.7h-4.5v-7.8h4.2c3.7-.1 8.3-1.4 8.3-5.4 0-2.8-2.3-4.9-6.9-4.9-3.8 0-7.8 1.7-9.8 2.8l-2.2-7.9c2.8-1.8 8.4-3.5 14.4-3.5 10 0 15.5 5.2 15.5 11.6 0 5-2.8 8.8-8.5 10.8v.1c5.6 1 10.1 5.2 10.1 11.3 0 8.3-7.2 14.3-19.1 14.3-6 0-11.1-1.6-13.9-3.3l2.5-8.1zM-112.5 895.8c1.4.1 2.6.1 4.7 0 3.3-.2 6.7-1.1 9.2-2.9 3-2.1 5-5.1 5.9-8.6l-.2-.1c-2.1 2.2-5.1 3.4-9.3 3.4-7.9 0-14.6-5.5-14.6-14.6s7.3-16.8 17.6-16.8c12 0 17.7 9.2 17.7 20.1 0 9.7-3.1 16.8-8.2 21.5-4.5 4-10.6 6.2-17.8 6.5-1.9.1-3.7.1-5 0v-8.5zm6.6-23.4c0 4 2.2 7.5 6.6 7.5 2.9 0 5-1.4 6-3.1.4-.6.6-1.4.6-2.7 0-5-1.9-9.8-6.8-9.8-3.8-.1-6.5 3.2-6.4 8.1zM-72.7 895.8c1.4.1 2.6.1 4.7 0 3.3-.2 6.7-1.1 9.2-2.9 3-2.1 5-5.1 5.9-8.6l-.2-.1c-2.1 2.2-5.1 3.4-9.3 3.4-7.9 0-14.6-5.5-14.6-14.6s7.3-16.8 17.6-16.8c12 0 17.7 9.2 17.7 20.1 0 9.7-3.1 16.8-8.2 21.5-4.5 4-10.6 6.2-17.8 6.5-1.9.1-3.7.1-5 0v-8.5zm6.6-23.4c0 4 2.2 7.5 6.6 7.5 2.9 0 5-1.4 6-3.1.4-.6.6-1.4.6-2.7 0-5-1.9-9.8-6.8-9.8-3.8-.1-6.5 3.2-6.4 8.1zM-358.1 1071.3h-.1l-8.9 4.2-1.8-8.2 12.3-5.7h9v46.7h-10.6v-37zM-318.2 1071.3h-.1l-8.9 4.2-1.8-8.2 12.3-5.7h9v46.7h-10.6v-37zM-293 1096c0-5.6 3.2-9.5 8.3-11.7v-.2c-4.5-2.3-6.7-6.1-6.7-10.2 0-7.9 7.1-13.1 16.4-13.1 10.9 0 15.4 6.3 15.4 12 0 4-2.2 8-6.7 10.3v.2c4.5 1.7 8.5 5.6 8.5 11.6 0 8.5-7.1 14.1-17.9 14.1-11.9 0-17.3-6.7-17.3-13zm24.1-.3c0-4.1-3-6.5-7.3-7.7-3.6 1-5.7 3.6-5.7 7-.1 3.4 2.5 6.5 6.6 6.5 3.9 0 6.4-2.5 6.4-5.8zm-12.3-22.2c0 3.2 2.9 5.2 6.6 6.3 2.5-.7 4.7-3 4.7-6 0-2.9-1.7-5.7-5.7-5.7-3.7.1-5.6 2.5-5.6 5.4zM-102.1 1071.3h-.1l-8.9 4.2-1.8-8.2 12.3-5.7h9v46.7h-10.6v-37zM-76.9 1096c0-5.6 3.2-9.5 8.3-11.7v-.2c-4.5-2.3-6.7-6.1-6.7-10.2 0-7.9 7.1-13.1 16.4-13.1 10.9 0 15.4 6.3 15.4 12 0 4-2.2 8-6.7 10.3v.2c4.5 1.7 8.5 5.6 8.5 11.6 0 8.5-7.1 14.1-17.9 14.1-11.8 0-17.3-6.7-17.3-13zm24.1-.3c0-4.1-3-6.5-7.3-7.7-3.6 1-5.7 3.6-5.7 7-.1 3.4 2.5 6.5 6.6 6.5 3.9 0 6.4-2.5 6.4-5.8zm-12.2-22.2c0 3.2 2.9 5.2 6.6 6.3 2.5-.7 4.7-3 4.7-6 0-2.9-1.7-5.7-5.7-5.7-3.7.1-5.6 2.5-5.6 5.4z"/></svg>