<svg version="1.1" id="Calque_1" xmlns="http://www.w3.org/2000/svg" x="0" y="0" viewBox="0 0 800 600" style="enable-background:new 0 0 800 600" xml:space="preserve"><style>.st0{fill:#323236;stroke:#797bf2;stroke-width:5;stroke-miterlimit:10}.st1{fill:#585868}.st2{fill:#797bf2}</style><path class="st0" d="M381.5 289.9h-204c-4.7 0-8.5-3.8-8.5-8.5V115.8c0-4.7 3.8-8.5 8.5-8.5h204c4.7 0 8.5 3.8 8.5 8.5v165.6c0 4.7-3.8 8.5-8.5 8.5zM622.5 289.9h-204c-4.7 0-8.5-3.8-8.5-8.5V115.8c0-4.7 3.8-8.5 8.5-8.5h204c4.7 0 8.5 3.8 8.5 8.5v165.6c0 4.7-3.8 8.5-8.5 8.5zM381.5 492.7h-204c-4.7 0-8.5-3.8-8.5-8.5V318.6c0-4.7 3.8-8.5 8.5-8.5h204c4.7 0 8.5 3.8 8.5 8.5v165.6c0 4.7-3.8 8.5-8.5 8.5zM622.5 492.7h-204c-4.7 0-8.5-3.8-8.5-8.5V318.6c0-4.7 3.8-8.5 8.5-8.5h204c4.7 0 8.5 3.8 8.5 8.5v165.6c0 4.7-3.8 8.5-8.5 8.5z"/><path class="st1" d="M216.6 228.7h125.7v17H216.6zM457.6 228.7h125.7v17H457.6zM216.6 435.3h125.7v17H216.6zM457.6 435.3h125.7v17H457.6z"/><path class="st2" d="M268.1 204.8h-8.8V171l-10.5 3.3v-7.1l18.3-6.6h.9v44.2zM303 187.1c-2.3 2.2-5 3.4-8 3.4-3.9 0-7-1.3-9.4-4-2.4-2.7-3.5-6.3-3.5-10.9 0-2.9.6-5.6 1.9-8 1.3-2.4 3-4.3 5.3-5.7 2.3-1.3 4.8-2 7.7-2 2.9 0 5.5.7 7.8 2.2 2.3 1.5 4 3.6 5.3 6.3 1.3 2.7 1.9 5.9 1.9 9.4v3.3c0 7.4-1.8 13.2-5.5 17.4-3.7 4.2-8.9 6.5-15.6 6.7h-2.2v-7.3h1.9c7.7-.4 11.8-3.9 12.4-10.8zm-5.8-3.3c1.4 0 2.6-.4 3.7-1.1 1-.7 1.8-1.6 2.3-2.6v-3.6c0-3-.6-5.3-1.7-6.9s-2.7-2.5-4.6-2.5c-1.8 0-3.2.8-4.3 2.4-1.1 1.6-1.7 3.6-1.7 6.1 0 2.4.6 4.4 1.7 5.9 1 1.5 2.6 2.3 4.6 2.3zM518.1 204.8h-30.3v-6l14.3-15.3c2-2.1 3.4-4 4.4-5.6.9-1.6 1.4-3.1 1.4-4.6 0-2-.5-3.5-1.5-4.6s-2.4-1.7-4.3-1.7c-2 0-3.5.7-4.7 2.1s-1.7 3.2-1.7 5.4h-8.8c0-2.7.6-5.2 1.9-7.4 1.3-2.2 3.1-4 5.5-5.2 2.3-1.3 5-1.9 8-1.9 4.6 0 8.1 1.1 10.6 3.3 2.5 2.2 3.8 5.3 3.8 9.3 0 2.2-.6 4.4-1.7 6.7s-3.1 4.9-5.8 7.9l-10.1 10.6h19v7zM553.3 186.5c0 6.1-1.3 10.8-3.8 14-2.5 3.2-6.2 4.9-11.1 4.9-4.8 0-8.5-1.6-11.1-4.8-2.6-3.2-3.9-7.7-3.9-13.7v-8.1c0-6.2 1.3-10.9 3.8-14.1 2.6-3.2 6.3-4.8 11.1-4.8s8.5 1.6 11.1 4.8c2.6 3.2 3.9 7.7 3.9 13.7v8.1zm-8.8-8.9c0-3.7-.5-6.3-1.5-8-1-1.7-2.6-2.5-4.7-2.5s-3.6.8-4.6 2.4c-1 1.6-1.5 4.1-1.6 7.5v10.8c0 3.6.5 6.3 1.5 8s2.6 2.6 4.7 2.6 3.7-.8 4.6-2.5 1.4-4.3 1.5-7.7v-10.6zM518.1 413.3h-30.3v-6l14.3-15.3c2-2.1 3.4-4 4.4-5.6.9-1.6 1.4-3.1 1.4-4.6 0-2-.5-3.5-1.5-4.6s-2.4-1.7-4.3-1.7c-2 0-3.5.7-4.7 2.1s-1.7 3.2-1.7 5.4h-8.8c0-2.7.6-5.2 1.9-7.4 1.3-2.2 3.1-4 5.5-5.2 2.3-1.3 5-1.9 8-1.9 4.6 0 8.1 1.1 10.6 3.3s3.8 5.3 3.8 9.3c0 2.2-.6 4.4-1.7 6.7s-3.1 4.9-5.8 7.9l-10.1 10.6h19v7zM553.8 413.3h-30.3v-6l14.3-15.3c2-2.1 3.4-4 4.4-5.6.9-1.6 1.4-3.1 1.4-4.6 0-2-.5-3.5-1.5-4.6-1-1.1-2.4-1.7-4.3-1.7-2 0-3.5.7-4.7 2.1-1.1 1.4-1.7 3.2-1.7 5.4h-8.8c0-2.7.6-5.2 1.9-7.4 1.3-2.2 3.1-4 5.5-5.2 2.3-1.3 5-1.9 8-1.9 4.6 0 8.1 1.1 10.6 3.3s3.8 5.3 3.8 9.3c0 2.2-.6 4.4-1.7 6.7s-3.1 4.9-5.8 7.9l-10.1 10.6h19v7zM277.1 413.3h-30.3v-6l14.3-15.3c2-2.1 3.4-4 4.4-5.6.9-1.6 1.4-3.1 1.4-4.6 0-2-.5-3.5-1.5-4.6-1-1.1-2.4-1.7-4.3-1.7-2 0-3.5.7-4.7 2.1-1.1 1.4-1.7 3.2-1.7 5.4h-8.8c0-2.7.6-5.2 1.9-7.4 1.3-2.2 3.1-4 5.5-5.2 2.3-1.3 5-1.9 8-1.9 4.6 0 8.1 1.1 10.6 3.3s3.8 5.3 3.8 9.3c0 2.2-.6 4.4-1.7 6.7s-3.1 4.9-5.8 7.9l-10.1 10.6h19v7zM303.8 413.3H295v-33.8l-10.5 3.3v-7.1l18.3-6.6h.9v44.2z"/></svg>