<svg version="1.1" id="Calque_1" xmlns="http://www.w3.org/2000/svg" x="0" y="0" viewBox="0 0 800 600" style="enable-background:new 0 0 800 600" xml:space="preserve"><style>.st0,.st1{fill:#fff;stroke:#671cc9;stroke-width:5;stroke-miterlimit:10}.st1{fill:none}</style><path class="st0" d="M626.9 203.5h18.7c4.8 0 8.6 3.9 8.6 8.6v307c0 4.8-3.9 8.6-8.6 8.6H344.7c-4.8 0-8.6-3.9-8.6-8.6v-307c0-4.8 3.9-8.6 8.6-8.6H587.6c.4 0 .7-.2 1-.5l12.3-17.3c.5-.7 1.5-.7 2 0l10.8 16.7c.2.3.6.5 1 .5l12.2.6zM145.7 72.3h508.5v85.5H145.7z"/><circle class="st0" cx="410" cy="290.2" r="29.2"/><circle class="st0" cx="206.7" cy="115" r="19.2"/><circle class="st0" cx="410" cy="367.9" r="29.2"/><circle class="st0" cx="410" cy="445.5" r="29.2"/><path class="st1" d="M468 290.2h132M270.1 115h132M468 367.9h132M468 445.5h132"/><path style="fill:#fff;stroke:#671cc9;stroke-width:3;stroke-linecap:round;stroke-linejoin:round;stroke-miterlimit:10" d="m583.5 111.1 7.2 7.9 6.3-7.9"/></svg>