<svg version="1.1" id="Calque_1" xmlns="http://www.w3.org/2000/svg" x="0" y="0" viewBox="-599 686 800 600" style="enable-background:new -599 686 800 600" xml:space="preserve"><style>.st0{fill:#fff;stroke:#7f00ff;stroke-width:5;stroke-miterlimit:10}</style><path class="st0" d="M70.5 1200.8h-539c-10.2 0-18.5-7.6-18.5-16.9V785.6c0-8 7.4-14.4 16.5-14.4h543c9.1 0 16.5 6.5 16.5 14.4v398.3c0 9.3-8.3 16.9-18.5 16.9zM89 820h-576"/><circle class="st0" cx="-448.7" cy="795.5" r="7.3"/><circle class="st0" cx="-418" cy="795.5" r="7.3"/><circle class="st0" cx="-387.4" cy="795.5" r="7.3"/><path class="st0" d="M-253 985.8h-137.7c-11 0-20-9-20-20v-82c0-11 9-20 20-20H-253c11 0 20 9 20 20v82c0 11-9 20-20 20z"/><circle class="st0" cx="-156" cy="919.1" r="25"/><path class="st0" d="M-102 904.8H31M-102 940.8H31M-355.5 940.8l15.5-20.5 11.5 10.2 24-25.7 16 36z"/><circle class="st0" cx="-357.5" cy="895.8" r="9.5"/><path class="st0" d="M-23.3 1149.6H-161c-11 0-20-9-20-20v-82c0-11 9-20 20-20h137.7c11 0 20 9 20 20v82c0 11.1-9 20-20 20z"/><circle class="st0" cx="-416.3" cy="1083" r="25"/><path class="st0" d="M-362.3 1068.6h133M-362.3 1104.6h133M-125.8 1104.6l15.5-20.5 11.5 10.3 24-25.8 16 36z"/><circle class="st0" cx="-127.8" cy="1059.6" r="9.5"/></svg>