<svg version="1.1" id="Calque_1" xmlns="http://www.w3.org/2000/svg" x="0" y="0" viewBox="0 0 800 600" style="enable-background:new 0 0 800 600" xml:space="preserve"><style>.st1{fill:#797bf2}</style><path d="M190.9 127.2h418.2c4.9 0 8.9 3.4 8.9 7.7v330.2c0 4.3-4 7.7-8.9 7.7H190.9c-4.9 0-8.9-3.4-8.9-7.7V134.9c0-4.3 4-7.7 8.9-7.7z" style="fill:#323236;stroke:#797bf2;stroke-width:5;stroke-miterlimit:10"/><path class="st1" d="M411 355h-62.3c-2 0-3.7-1.6-3.7-3.7V289c0-1 .4-1.9 1.1-2.6l49.5-49.5c18.6-18.6 48.8-18.6 67.4 0 18.6 18.6 18.6 48.8 0 67.4l-49.4 49.5c-.7.8-1.6 1.2-2.6 1.2zm-58.6-7.3h57.1l48.3-48.5c15.7-15.7 15.7-41.3 0-57-15.7-15.7-41.3-15.7-57 0l-48.4 48.4v57.1z"/><path class="st1" d="M326.7 377c-.9 0-1.9-.4-2.6-1.1-1.4-1.4-1.4-3.8 0-5.2l102.6-102.6c1.4-1.4 3.8-1.4 5.2 0 1.4 1.4 1.4 3.8 0 5.2L329.3 375.9c-.7.7-1.6 1.1-2.6 1.1z"/><path class="st1" d="M440.3 325.7H378c-2 0-3.7-1.6-3.7-3.7s1.6-3.7 3.7-3.7h62.3c2 0 3.7 1.6 3.7 3.7s-1.6 3.7-3.7 3.7z"/></svg>