<svg version="1.1" id="Calque_1" xmlns="http://www.w3.org/2000/svg" x="0" y="0" viewBox="0 0 800 600" style="enable-background:new 0 0 800 600" xml:space="preserve"><style>.st1{fill:#671cc9}</style><path d="M549.7 429.5H250.3c-19.1 0-34.6-15.5-34.6-34.6V205.1c0-19.1 15.5-34.6 34.6-34.6h299.3c19.1 0 34.6 15.5 34.6 34.6v189.8c.1 19.1-15.4 34.6-34.5 34.6z" style="fill:#fff;stroke:#671cc9;stroke-width:5;stroke-miterlimit:10"/><path class="st1" d="M404.3 290.4c-.8-1-2.3-1.4-3.5-1.4-1.2 0-2.5.6-3.5 1.4l-10.7 11.3c-1.2 1.2-1 3.3.2 4.3.6.6 1.4.8 2.1.8.8 0 1.7-.4 2.3-1l6.6-7v22.9c0 1.7 1.4 3.1 3.1 3.1s3.1-1.4 3.1-3.1v-22.9l6.6 7c1.2 1.2 3.1 1.2 4.3.2 1.2-1.2 1.2-3.1.2-4.3l-10.8-11.3z"/><path class="st1" d="M455.5 282.2c-6-6.4-14.2-10.9-23.1-12.2-4.7-7.8-11.8-13.6-20-16.5-3.7-1.4-7.8-2.1-12.4-2.1-20.8 0-37.7 16.7-38.2 37.3-15.5 1-27.8 14.2-27.8 29.9 0 16.5 13.4 29.9 29.9 29.9h62.5c21.9.2 39.6-17.5 39.6-39.4 0-9.8-3.7-19.5-10.5-26.9zm-29.3 60.4h-62.3c-13.2 0-23.7-10.5-23.7-23.9s10.5-23.7 23.7-23.7h1c1.7 0 3.1-1.4 3.1-3.1v-2.3c0-17.5 14.2-32 32-32 3.7 0 7.2.6 10.3 1.7 7.4 2.5 13.6 7.8 17.5 15.1.4.8 1.4 1.4 2.5 1.7 7.8.8 15.5 4.7 20.6 10.3 5.8 6.2 8.9 14.4 8.9 22.7 0 18.4-15 33.5-33.6 33.5z"/></svg>