<svg xmlns="http://www.w3.org/2000/svg" viewBox="0 0 800 600" style="enable-background:new 0 0 800 600" xml:space="preserve"><path d="M190.9 127.2h418.2c4.9 0 8.9 3.4 8.9 7.7v330.2c0 4.3-4 7.7-8.9 7.7H190.9c-4.9 0-8.9-3.4-8.9-7.7V134.9c0-4.3 4-7.7 8.9-7.7z" style="fill:#323236;stroke:#797bf2;stroke-width:5;stroke-miterlimit:10"/><path d="M479.1 294.9h-9.3c-.9 0-1.6.7-1.6 1.6v10.9h-12.4v-60.5c0-.9-.7-1.6-1.6-1.6H445c-.9 0-1.6.7-1.6 1.6v10.9H431v-10.9c0-.9-.7-1.6-1.6-1.6h-9.3c-.9 0-1.6.7-1.6 1.6v10.9h-12.4v-10.9c0-2-2.7-1.6-4-1.6v-12.9c2.8-.7 5.8-1.2 8.7-1.2 3.7 0 7.1 1.5 10.6 1.5 1.6 0 9.4-.4 9.4-2.7v-20.3c0-.9-.7-1.6-1.6-1.6-1.7 0-5.1 1.5-8.1 1.5-3.3 0-7.1-1.5-11.1-1.5-2.7 0-5.4.4-8 1v-1.7c1.8-.9 3.1-2.8 3.1-4.8 0-7-10.6-7.1-10.6 0 0 2 1.3 4 3.1 4.8v37.9c-1.3 0-4-.5-4 1.6v10.9h-12.4v-10.9c0-.9-.7-1.6-1.6-1.6h-9.3c-.9 0-1.6.7-1.6 1.6v10.9h-12.3v-10.9c0-.9-.7-1.6-1.6-1.6h-9.3c-.9 0-1.6.7-1.6 1.6v60.5h-12.4v-10.9c0-.9-.7-1.6-1.6-1.6h-9.3c-.9 0-1.6.7-1.6 1.6v74.4h62v-32.6c0-24.6 37.2-24.6 37.2 0v32.6h62v-74.4c.5-.9-.2-1.6-1.1-1.6zm-97.7-1.5c0 .9-.7 1.6-1.6 1.6h-9.3c-.9 0-1.6-.7-1.6-1.6v-21.7c0-.9.7-1.6 1.6-1.6h9.3c.9 0 1.6.7 1.6 1.6v21.7zm49.6 0c0 .9-.7 1.6-1.6 1.6h-9.3c-.9 0-1.6-.7-1.6-1.6v-21.7c0-.9.7-1.6 1.6-1.6h9.3c.9 0 1.6.7 1.6 1.6v21.7z" style="fill:none;stroke:#797bf2;stroke-width:5;stroke-miterlimit:10"/></svg>