<svg version="1.1" id="Calque_1" xmlns="http://www.w3.org/2000/svg" x="0" y="0" viewBox="-399 -106 800 600" style="enable-background:new -399 -106 800 600" xml:space="preserve"><style>.st0{fill:#fff;stroke:#7f00ff;stroke-width:5;stroke-miterlimit:10}</style><path class="st0" d="M240.4 273h-465V24.4c0-8.4 6.8-15.1 15.1-15.1h434.7c8.4 0 15.1 6.8 15.1 15.1V273zM-224.6 53h465"/><circle class="st0" cx="-190.6" cy="31.4" r="5.6"/><circle class="st0" cx="-166.3" cy="31.4" r="5.6"/><circle class="st0" cx="-141.9" cy="31.4" r="5.6"/><path class="st0" d="M225.4 371h-435c-7.1 0-12.8-5.7-12.8-12.8V298h460.6v60.2c0 7.1-5.7 12.8-12.8 12.8z"/><path style="fill:#f4f4f4" d="M-190.6 82H45v21h-235.6z"/><circle class="st0" cx="-162" cy="149" r="23"/><path class="st0" d="M-107 149h271M-107 186h221M-107 223H7.9"/></svg>