<svg version="1.1" id="Calque_1" xmlns="http://www.w3.org/2000/svg" x="0" y="0" viewBox="0 0 800 600" style="enable-background:new 0 0 800 600" xml:space="preserve"><style>.st0{fill:#fff;stroke:#671cc9;stroke-width:5;stroke-miterlimit:10}</style><path class="st0" d="M593.8 550.5H206.4c-5.9 0-10.7-4.8-10.7-10.7V60.2c0-5.9 4.8-10.7 10.7-10.7h387.2c5.9 0 10.7 4.8 10.7 10.7v479.7c.1 5.8-4.7 10.6-10.5 10.6z"/><path class="st0" d="M556.4 207.5H243.9c-1.8 0-3.3-1.5-3.3-3.3v-39.5c0-1.8 1.5-3.3 3.3-3.3h312.5c1.8 0 3.3 1.5 3.3 3.3v39.5c-.1 1.8-1.6 3.3-3.3 3.3zM556.4 293H243.9c-1.8 0-3.3-1.5-3.3-3.3v-39.5c0-1.8 1.5-3.3 3.3-3.3h312.5c1.8 0 3.3 1.5 3.3 3.3v39.5c-.1 1.8-1.6 3.3-3.3 3.3zM556.4 380.1H243.9c-1.8 0-3.3-1.5-3.3-3.3v-39.5c0-1.8 1.5-3.3 3.3-3.3h312.5c1.8 0 3.3 1.5 3.3 3.3v39.5c-.1 1.8-1.6 3.3-3.3 3.3z"/><path id="XMLID_4_" style="fill:#efefef" d="M240.6 95.1h159.5v15.3H240.6z"/><circle class="st0" cx="259.8" cy="428.5" r="12.3"/><circle cx="259.8" cy="428.5" r="6" style="fill:#671cc9"/><circle class="st0" cx="373.1" cy="428.5" r="12.3"/><circle class="st0" cx="486.1" cy="428.5" r="12.3"/><path class="st0" d="M450.8 481.5h108.8v40H450.8z"/></svg>