<svg version="1.1" id="Calque_1" xmlns="http://www.w3.org/2000/svg" x="0" y="0" viewBox="-599 686 800 600" style="enable-background:new -599 686 800 600" xml:space="preserve"><style>.st0,.st1,.st2{fill:#fff;stroke:#7f00ff;stroke-width:5;stroke-miterlimit:10}.st1,.st2{stroke-width:4}.st2{stroke-width:2}</style><path class="st0" d="M-322 970.6h-134c-7.7 0-14-6.3-14-14v-134c0-7.7 6.3-14 14-14h134c7.7 0 14 6.3 14 14v134c0 7.7-6.3 14-14 14zM-132 970.6h-134c-7.7 0-14-6.3-14-14v-134c0-7.7 6.3-14 14-14h134c7.7 0 14 6.3 14 14v134c0 7.7-6.3 14-14 14zM58 970.6H-76c-7.7 0-14-6.3-14-14v-134c0-7.7 6.3-14 14-14H58c7.7 0 14 6.3 14 14v134c0 7.7-6.3 14-14 14zM-322 1163.4h-134c-7.7 0-14-6.3-14-14v-134c0-7.7 6.3-14 14-14h134c7.7 0 14 6.3 14 14v134c0 7.7-6.3 14-14 14zM-132 1163.4h-134c-7.7 0-14-6.3-14-14v-134c0-7.7 6.3-14 14-14h134c7.7 0 14 6.3 14 14v134c0 7.7-6.3 14-14 14zM58 1163.4H-76c-7.7 0-14-6.3-14-14v-134c0-7.7 6.3-14 14-14H58c7.7 0 14 6.3 14 14v134c0 7.7-6.3 14-14 14z"/><path class="st0" d="m-7.8 1055.7 7.8 15.8c.2.4.6.7 1.1.8l17.4 2.5c1.2.2 1.7 1.6.8 2.5l-12.6 12.3c-.3.3-.5.8-.4 1.3l3 17.3c.2 1.2-1 2.1-2.1 1.5l-15.5-8.2c-.4-.2-.9-.2-1.3 0l-15.5 8.2c-1 .6-2.3-.3-2.1-1.5l3-17.3c.1-.5-.1-.9-.4-1.3l-12.6-12.3c-.9-.8-.4-2.3.8-2.5l17.4-2.5c.5-.1.9-.3 1.1-.8l7.8-15.8c.3-1.1 1.8-1.1 2.3 0z"/><circle class="st0" cx="-199" cy="1063.4" r="17.3"/><path class="st0" d="M-174.8 1110.6c-.3-13.3-10.9-24.2-24.2-24.2s-24.2 10.9-24.2 24.2c0 0 48.5 6.7 48.4 0zM25 922.3h-67.3c-4.6 0-8.3-3.7-8.3-8.3v-45.3c0-4.6 3.7-8.3 8.3-8.3H25c4.6 0 8.3 3.7 8.3 8.3V914c0 4.6-3.7 8.3-8.3 8.3z"/><circle class="st0" cx="-8.7" cy="891.3" r="17.7"/><path class="st1" d="M15.5 866.5h5.6c1 0 1.9.8 1.9 1.9v5c0 1-.8 1.9-1.9 1.9h-7.5c-1 0-1.9-.8-1.9-1.9v-5c0-1 .8-1.9 1.9-1.9h1.9zM-423.7 1045.2h72.3v20.9h-72.3zM-423.7 1071.9h72.3v20.9h-72.3zM-423.7 1099.5h72.3v20.9h-72.3z"/><circle class="st2" cx="-374.6" cy="1109" r="1.7"/><circle class="st2" cx="-366.2" cy="1109" r="1.7"/><circle class="st0" cx="-209.2" cy="884.9" r="21.1"/><path class="st0" d="m-174.8 919.8-18.7-20.8M-406.2 864.1h37.4v54.5l-18.7-12-18.7 12z"/></svg>