<svg version="1.1" id="Calque_1" xmlns="http://www.w3.org/2000/svg" x="0" y="0" viewBox="0 0 800 600" style="enable-background:new 0 0 800 600" xml:space="preserve"><style>.st1{fill:#797bf2}</style><path d="M667.7 351.9H134.1c-28.7 0-52-23.3-52-52s23.3-52 52-52h533.6c28.7 0 52 23.3 52 52-.1 28.9-23.3 52-52 52z" style="fill:#323236;stroke:#797bf2;stroke-width:5;stroke-miterlimit:10"/><path class="st1" d="M156.3 299.1c-2.8-.8-4.9-1.8-6.2-3s-1.9-2.7-1.9-4.4c0-2 .8-3.6 2.4-4.9 1.6-1.3 3.6-1.9 6.2-1.9 1.7 0 3.3.3 4.6 1 1.4.7 2.4 1.6 3.1 2.8s1.1 2.5 1.1 3.9h-3.3c0-1.5-.5-2.7-1.5-3.6s-2.3-1.3-4.1-1.3c-1.6 0-2.9.4-3.8 1.1-.9.7-1.4 1.7-1.4 3 0 1 .4 1.9 1.3 2.6.9.7 2.4 1.4 4.4 2 2.1.6 3.7 1.2 4.9 1.9s2.1 1.5 2.6 2.5c.6.9.9 2.1.9 3.3 0 2-.8 3.7-2.4 4.9s-3.7 1.8-6.4 1.8c-1.7 0-3.3-.3-4.8-1s-2.7-1.6-3.5-2.7c-.8-1.2-1.2-2.5-1.2-3.9h3.3c0 1.5.6 2.7 1.7 3.6 1.1.9 2.6 1.3 4.5 1.3 1.8 0 3.1-.4 4-1.1s1.4-1.7 1.4-2.9-.4-2.2-1.3-2.9c-.7-.7-2.3-1.4-4.6-2.1zM177.2 310.7c-2.5 0-4.6-.8-6.2-2.5s-2.4-3.9-2.4-6.7v-.6c0-1.9.4-3.5 1.1-5 .7-1.5 1.7-2.6 3-3.4s2.7-1.2 4.1-1.2c2.4 0 4.3.8 5.7 2.4s2 3.9 2 6.9v1.3h-12.7c0 1.8.6 3.3 1.6 4.5 1 1.1 2.3 1.7 3.9 1.7 1.1 0 2.1-.2 2.9-.7.8-.5 1.5-1.1 2.1-1.8l2 1.5c-1.6 2.4-4 3.6-7.1 3.6zm-.4-16.8c-1.3 0-2.4.5-3.3 1.4-.9.9-1.4 2.3-1.6 4h9.4v-.2c-.1-1.6-.5-2.9-1.3-3.8-.8-.9-1.9-1.4-3.2-1.4zM199.8 310.4c-.2-.4-.3-1-.4-2-1.5 1.5-3.3 2.3-5.3 2.3-1.8 0-3.4-.5-4.5-1.6s-1.8-2.4-1.8-4c0-2 .7-3.5 2.2-4.5 1.5-1.1 3.6-1.6 6.3-1.6h3.1v-1.5c0-1.1-.3-2-1-2.7s-1.7-1-3-1c-1.1 0-2.1.3-2.9.9-.8.6-1.2 1.3-1.2 2.1H188c0-.9.3-1.8 1-2.7.7-.9 1.6-1.6 2.7-2.1s2.4-.8 3.7-.8c2.2 0 3.8.5 5.1 1.6 1.2 1.1 1.9 2.6 1.9 4.5v8.6c0 1.7.2 3.1.7 4.1v.3h-3.3v.1zm-5.4-2.5c1 0 2-.3 2.9-.8s1.6-1.2 2-2v-3.8h-2.5c-3.9 0-5.9 1.1-5.9 3.4 0 1 .3 1.8 1 2.4.6.6 1.5.8 2.5.8zM216.5 294.5c-.5-.1-1-.1-1.6-.1-2.1 0-3.5.9-4.3 2.7v13.3h-3.2v-18.7h3.1l.1 2.2c1-1.7 2.5-2.5 4.5-2.5.6 0 1.1.1 1.4.2v2.9zM226.6 308.1c1.1 0 2.1-.3 3-1s1.3-1.6 1.4-2.6h3c-.1 1.1-.4 2.1-1.1 3.1-.7 1-1.6 1.7-2.7 2.3-1.1.6-2.3.9-3.6.9-2.5 0-4.6-.9-6.1-2.6s-2.3-4-2.3-7v-.5c0-1.8.3-3.4 1-4.9.7-1.4 1.6-2.5 2.9-3.3s2.7-1.2 4.4-1.2c2.1 0 3.8.6 5.2 1.9s2.1 2.9 2.2 4.9h-3c-.1-1.2-.6-2.2-1.4-3-.8-.8-1.8-1.2-3.1-1.2-1.6 0-2.9.6-3.8 1.8-.9 1.2-1.3 2.9-1.3 5.1v.6c0 2.2.4 3.8 1.3 5 1.1 1.1 2.4 1.7 4 1.7zM240.9 293.9c1.4-1.7 3.3-2.6 5.5-2.6 4 0 6 2.2 6 6.7v12.4h-3.2V298c0-1.3-.3-2.3-.9-3-.6-.6-1.5-1-2.8-1-1 0-1.9.3-2.7.8-.8.6-1.4 1.3-1.8 2.2v13.3h-3.2v-26.6h3.2v10.2h-.1zM257.3 308.7c0-.6.2-1 .5-1.4s.8-.6 1.5-.6 1.2.2 1.5.6.5.8.5 1.4c0 .5-.2 1-.5 1.3-.3.4-.8.5-1.5.5s-1.2-.2-1.5-.5c-.4-.3-.5-.8-.5-1.3zM266.6 308.7c0-.6.2-1 .5-1.4s.8-.6 1.5-.6 1.2.2 1.5.6.5.8.5 1.4c0 .5-.2 1-.5 1.3-.3.4-.8.5-1.5.5s-1.2-.2-1.5-.5c-.3-.3-.5-.8-.5-1.3zM275.9 308.7c0-.6.2-1 .5-1.4s.8-.6 1.5-.6 1.2.2 1.5.6.5.8.5 1.4c0 .5-.2 1-.5 1.3-.3.4-.8.5-1.5.5s-1.2-.2-1.5-.5-.5-.8-.5-1.3z"/></svg>