<svg version="1.1" id="Layer_1" xmlns="http://www.w3.org/2000/svg" x="0" y="0" viewBox="0 0 456 330" style="enable-background:new 0 0 456 330" xml:space="preserve"><style>.st1,.st2{fill:none;stroke:#671cc9;stroke-width:4;stroke-linecap:round;stroke-miterlimit:10}.st2{fill:#fff}</style><path d="M32.2 307c-6.8 0-12.3-5.5-12.3-12.3V39.3c0-6.8 5.5-12.3 12.3-12.3h391.6c6.8 0 12.3 5.5 12.3 12.3v255.4c0 6.8-5.5 12.3-12.3 12.3H32.2z" style="fill:#fff"/><path class="st1" d="M423.8 28c6.2 0 11.3 5.1 11.3 11.3v255.4c0 6.2-5.1 11.3-11.3 11.3H32.2c-6.2 0-11.3-5.1-11.3-11.3V39.3C20.9 33.1 26 28 32.2 28h391.6"/><circle class="st2" cx="117.6" cy="87.5" r="25"/><path class="st1" d="M159.6 75.5h131M160.1 88.1h90M160.1 100.9h104M92.6 164.5h131M93.1 177.1h90M93.1 189.9h104M284.6 164.5h131M285.1 177.1h90M285.1 189.9h104M92.6 230.5h131M93.1 243.1h90M93.1 255.9h104M284.6 230.5h131M285.1 243.1h90M285.1 255.9h104M75.4 28v278"/><circle class="st2" cx="47.5" cy="53.5" r="15"/><circle class="st2" cx="47.5" cy="107.5" r="11"/><circle class="st2" cx="47.5" cy="145.5" r="11"/><circle class="st2" cx="47.5" cy="183.5" r="11"/><circle class="st2" cx="47.5" cy="221.5" r="11"/></svg>