<svg version="1.1" id="Layer_1" xmlns="http://www.w3.org/2000/svg" x="0" y="0" viewBox="0 0 456 330" style="enable-background:new 0 0 456 330" xml:space="preserve"><style>.st3{fill:none;stroke:#671cc9;stroke-width:4;stroke-linecap:round;stroke-miterlimit:10}</style><path d="M32.2 307c-6.8 0-12.3-5.5-12.3-12.3V39.3c0-6.8 5.5-12.3 12.3-12.3h391.6c6.8 0 12.3 5.5 12.3 12.3v255.4c0 6.8-5.5 12.3-12.3 12.3H32.2z" style="fill:#fff"/><path d="M423.8 28c6.2 0 11.3 5.1 11.3 11.3v255.4c0 6.2-5.1 11.3-11.3 11.3H32.2c-6.2 0-11.3-5.1-11.3-11.3V39.3C20.9 33.1 26 28 32.2 28h391.6" style="fill:none;stroke:#671cc9;stroke-width:4;stroke-miterlimit:10"/><circle cx="91.5" cy="93.3" r="25" style="fill:#fff;stroke:#671cc9;stroke-width:4;stroke-linecap:round;stroke-miterlimit:10"/><path class="st3" d="M133.5 81.3h131M134 93.9h90M134 106.7h104M66.5 170.3h131M67 182.9h90M67 195.7h104M258.5 170.3h131M259 182.9h90M259 195.7h104M66.5 236.3h131M67 248.9h90M67 261.7h104M258.5 236.3h131M259 248.9h90M259 261.7h104"/></svg>