<svg version="1.1" id="Calque_1" xmlns="http://www.w3.org/2000/svg" x="0" y="0" viewBox="0 0 800 600" style="enable-background:new 0 0 800 600" xml:space="preserve"><style>.st1{fill:#671cc9}</style><path d="M190.9 127.2h418.2c4.9 0 8.9 3.4 8.9 7.7v330.2c0 4.3-4 7.7-8.9 7.7H190.9c-4.9 0-8.9-3.4-8.9-7.7V134.9c0-4.3 4-7.7 8.9-7.7z" style="fill:#fff;stroke:#671cc9;stroke-width:5;stroke-miterlimit:10"/><path class="st1" d="M482.9 260.9c-1.3-1.1-2.9-1.3-4.2-.5l-32.3 15.8c-1.6.8-3.4.3-4.7-1.1L403 230.9c-1.6-1.8-4.5-1.8-6 0L358.6 275c-1.1 1.3-3.2 1.8-4.7 1.1l-32.3-15.8c-1.3-.8-3.2-.5-4.2.5-1.3 1.1-1.6 2.6-1.3 4.2l20.5 67.5c1.8 6.3 7.6 10.5 14.2 10.5H449c6.6 0 12.3-4.2 14.2-10.5l20.5-67.5c.7-1.5.2-3.1-.8-4.1zm-27.1 69.3c-.8 2.9-3.7 5-6.6 5H351c-3.2 0-5.8-2.1-6.6-5l-18.1-58.8 24.2 11.8c4.7 2.4 10.5 1.1 14.2-2.9l35.5-41 35.5 40.7c3.4 3.9 9.2 5.3 14.2 2.9l24.2-11.8-18.3 59.1zM457.1 362.6h-114c-2.1 0-3.9 1.8-3.9 3.9 0 2.1 1.8 3.9 3.9 3.9h114c2.1 0 3.9-1.8 3.9-3.9.1-2.1-1.8-3.9-3.9-3.9z"/></svg>