<svg xmlns="http://www.w3.org/2000/svg" viewBox="0 0 800 600" style="enable-background:new 0 0 800 600" xml:space="preserve"><path d="M190.9 127.2h418.2c4.9 0 8.9 3.4 8.9 7.7v330.2c0 4.3-4 7.7-8.9 7.7H190.9c-4.9 0-8.9-3.4-8.9-7.7V134.9c0-4.3 4-7.7 8.9-7.7z" style="fill:#323236;stroke:#797bf2;stroke-width:5;stroke-miterlimit:10"/><path d="M475.1 261.4c-6.5 0-12 5.4-12 12 0 3.5 1.4 6.5 3.8 8.7l-27.2 30.5c-1.1 1.1-2.4 1.6-3.8 1.4-1.4-.3-2.7-1.1-3.5-2.4L406.3 260c3.5-2.2 6-6 6-10.3 0-6.8-5.4-12-12-12s-12 5.4-12 12c0 4.4 2.4 8.2 6 10.3l-26.1 51.4c-.8 1.4-1.9 2.2-3.5 2.4-1.4.3-2.7-.3-3.8-1.4L333.1 282c2.2-2.2 3.8-5.2 3.8-8.7 0-6.8-5.4-12-12-12-6.5 0-12 5.4-12 12 0 6.3 4.6 11.4 10.6 12l10.6 73.2c.3 2.2 2.2 3.8 4.1 3.8h123.5c1.9 0 3.8-1.4 4.1-3.5l10.6-73.2c6-.5 10.6-5.7 10.6-12 .1-6.8-5.4-12.2-11.9-12.2zm-150.2 16c-1.9 0-3.8-1.6-3.8-3.8 0-2.2 1.6-3.8 3.8-3.8 2.2 0 3.8 1.6 3.8 3.8 0 2.2-1.9 3.8-3.8 3.8zm75.1-32.1c1.9 0 3.8 1.6 3.8 3.8s-1.6 3.8-3.8 3.8-3.8-1.6-3.8-3.8 1.9-3.8 3.8-3.8zm58.2 108.8H341.8l-8.7-59.6 21.2 23.4c2.7 3 6.8 4.6 10.9 4.1 4.1-.5 7.6-3 9.5-6.8L400 266l25 49.2c1.9 3.8 5.4 6.3 9.5 6.8s8.2-1.1 10.9-4.1l21.2-23.4-8.4 59.6zm16.9-76.7c-2.2 0-3.8-1.6-3.8-3.8 0-2.2 1.6-3.8 3.8-3.8 2.2 0 3.8 1.6 3.8 3.8 0 2.2-1.6 3.8-3.8 3.8z" style="fill:#797bf2"/></svg>