<svg version="1.1" id="Calque_1" xmlns="http://www.w3.org/2000/svg" x="0" y="0" viewBox="-599 686 800 600" style="enable-background:new -599 686 800 600" xml:space="preserve"><style>.st0,.st1{fill:#fff;stroke:#7f00ff;stroke-width:5;stroke-miterlimit:10}.st1{fill:none}</style><path class="st0" d="M-408.1 735.5H10.1c4.9 0 8.9 5 8.9 11.1v478.8c0 6.1-4 11.1-8.9 11.1h-418.2c-4.9 0-8.9-5-8.9-11.1V746.6c0-6.1 4-11.1 8.9-11.1z"/><circle class="st0" cx="-339.4" cy="830.9" r="29.2"/><circle class="st0" cx="-339.4" cy="908.6" r="29.2"/><circle class="st0" cx="-339.4" cy="986.2" r="29.2"/><path class="st1" d="M-281.4 830.9h256.7M-281.4 908.6h256.7M-281.4 986.2h256.7"/><circle class="st0" cx="-339.4" cy="1063.1" r="29.2"/><circle class="st0" cx="-339.4" cy="1140.8" r="29.2"/><path class="st1" d="M-281.4 1063.1h256.7M-281.4 1140.8h256.7"/></svg>