<svg version="1.1" id="Calque_1" xmlns="http://www.w3.org/2000/svg" x="0" y="0" viewBox="0 0 800 600" style="enable-background:new 0 0 800 600" xml:space="preserve"><style>.st0{fill:#fff;stroke:#671cc9;stroke-width:5;stroke-miterlimit:10}.st1{fill:#efefef}.st2{fill:none;stroke:#671cc9;stroke-width:2;stroke-linecap:round;stroke-linejoin:round;stroke-miterlimit:10}</style><path class="st0" d="M618.2 193.2H181.8c-2.6 0-4.8-2.1-4.8-4.8V76.6c0-2.6 2.1-4.8 4.8-4.8h436.5c2.6 0 4.8 2.1 4.8 4.8v111.8c-.1 2.6-2.2 4.8-4.9 4.8zM618.2 360.7H181.8c-2.6 0-4.8-2.1-4.8-4.8V244.1c0-2.6 2.1-4.8 4.8-4.8h436.5c2.6 0 4.8 2.1 4.8 4.8v111.8c-.1 2.6-2.2 4.8-4.9 4.8zM618.2 528.2H181.8c-2.6 0-4.8-2.1-4.8-4.8V411.6c0-2.6 2.1-4.8 4.8-4.8h436.5c2.6 0 4.8 2.1 4.8 4.8v111.8c-.1 2.6-2.2 4.8-4.9 4.8z"/><path class="st1" d="M207 98h111v17H207zM207 129.2h353v17H207zM207 153.8h232.3v17H207zM207 263.6h111v17H207zM207 294.8h353v17H207zM207 319.4h232.3v17H207zM207 429.2h111v17H207zM207 460.3h353v17H207zM207 485h232.3v17H207z"/><path class="st2" d="m606.5 84.7-9 9.1M606.5 93.8l-9-9.1M606.5 254.5l-9 9.1M606.5 263.6l-9-9.1M606.5 424.2l-9 9.2M606.5 433.4l-9-9.2"/></svg>