<svg version="1.1" id="Calque_1" xmlns="http://www.w3.org/2000/svg" x="0" y="0" viewBox="0 0 800 600" style="enable-background:new 0 0 800 600" xml:space="preserve"><style>.st0{fill:#323236;stroke:#797bf2;stroke-width:5;stroke-miterlimit:10}.st1{fill:#585868}.st3{fill:none;stroke:#797bf2;stroke-width:5;stroke-linecap:round;stroke-miterlimit:10}</style><path class="st0" d="M641.7 531.4H158.3c-7.9 0-14.3-6.4-14.3-14.3V82.9c0-7.9 6.4-14.3 14.3-14.3h483.3c7.9 0 14.3 6.4 14.3 14.3v434.2c.1 7.9-6.3 14.3-14.2 14.3z"/><path id="XMLID_5_" class="st1" d="M189 205.1h235.6v26.2H189z"/><path id="XMLID_1_" class="st1" d="M189 290h394.1v26.2H189z"/><path id="XMLID_2_" class="st1" d="M189 346.3h304v26.2H189z"/><path id="XMLID_3_" class="st1" d="M189 396h358.2v26.2H189z"/><path style="fill:none;stroke:#797bf2;stroke-width:5;stroke-miterlimit:10" d="M144 144.9h512"/><path class="st3" d="m610.3 97.7-18 18M610.3 115.7l-18-18"/><path class="st0" d="M625.6 503.7h-78c-.2 0-.4-.2-.4-.4v-37.5c0-.2.2-.4.4-.4h78c.2 0 .4.2.4.4v37.5c-.1.2-.2.4-.4.4z"/></svg>