<svg version="1.1" id="Calque_1" xmlns="http://www.w3.org/2000/svg" x="0" y="0" viewBox="0 0 800 600" style="enable-background:new 0 0 800 600" xml:space="preserve"><style>.st0{fill:#323236;stroke:#797bf2;stroke-width:5;stroke-miterlimit:10}.st1{fill:#585868}</style><path id="XMLID_3_" class="st0" d="M473.5 479.5h-147c-21.8 0-39.5-17.7-39.5-39.5s17.7-39.5 39.5-39.5h147c21.8 0 39.5 17.7 39.5 39.5s-17.7 39.5-39.5 39.5z"/><path class="st0" d="M415.5 321.5H616c3.6 0 6.5-2.9 6.5-6.5V127c0-3.6-2.9-6.5-6.5-6.5H184c-3.6 0-6.5 2.9-6.5 6.5v188c0 3.6 2.9 6.5 6.5 6.5h202l16 17 13.5-17z"/><path class="st1" d="M215 173.5h224.5v17H215zM215 215.5h368.5v17H215zM215 244.1h308.5v17H215z"/></svg>