<svg xmlns="http://www.w3.org/2000/svg" viewBox="0 0 800 600" style="enable-background:new 0 0 800 600" xml:space="preserve"><path d="M636.7 332H163.3c-17.7 0-32-14.3-32-32s14.3-32 32-32h473.4c17.7 0 32 14.3 32 32s-14.3 32-32 32z" style="fill:#323236;stroke:#797bf2;stroke-width:5;stroke-miterlimit:10"/><path d="M625.2 311.5H172.5c-6.5 0-11.7-5.3-11.7-11.8 0-6.5 5.3-11.8 11.7-11.8h452.7c6.5 0 11.8 5.3 11.8 11.8 0 6.6-5.3 11.8-11.8 11.8z" style="fill:#585868"/><path d="M474.4 311.5H172.5c-6.5 0-11.7-5.3-11.7-11.8 0-6.5 5.3-11.8 11.7-11.8h301.9c6.5 0 11.7 5.3 11.7 11.8.1 6.6-5.2 11.8-11.7 11.8z" style="fill:#797bf2"/></svg>