<svg version="1.1" id="Calque_1" xmlns="http://www.w3.org/2000/svg" x="0" y="0" viewBox="0 0 800 600" style="enable-background:new 0 0 800 600" xml:space="preserve"><style>.st0{fill:#fff;stroke:#671cc9;stroke-width:5;stroke-miterlimit:10}</style><path class="st0" d="M698 353.4H130.6c-8.3 0-15-6.7-15-15v-93c0-8.3 6.7-15 15-15H698c8.3 0 15 6.7 15 15v93c.1 8.3-6.7 15-15 15z"/><path class="st0" d="M648.6 305.1H172.4c-7.3 0-13.2-5.9-13.2-13.2 0-7.3 5.9-13.2 13.2-13.2h476.2c7.3 0 13.2 5.9 13.2 13.2 0 7.3-5.9 13.2-13.2 13.2z"/><circle class="st0" cx="545.3" cy="289.6" r="37.4"/></svg>