<svg version="1.1" id="Calque_1" xmlns="http://www.w3.org/2000/svg" x="0" y="0" viewBox="0 0 800 600" style="enable-background:new 0 0 800 600" xml:space="preserve"><style>.st0{fill:#fff;stroke:#671cc9;stroke-width:5;stroke-miterlimit:10}.st1{fill:#efefef}</style><path class="st0" d="M685.1 475.6H114.9c-6.9 0-12.6-5.6-12.6-12.6V136.9c0-6.9 5.6-12.6 12.6-12.6h570.2c6.9 0 12.6 5.6 12.6 12.6V463c-.1 7-5.7 12.6-12.6 12.6z"/><path id="XMLID_5_" class="st1" d="M153.1 251.9h314.7v22.9H153.1z"/><path id="XMLID_1_" class="st1" d="M153.1 288.8h228v22.9h-228z"/><path id="XMLID_2_" class="st1" d="M153.1 325.6H575v22.9H153.1z"/><path id="XMLID_3_" class="st1" d="M153.1 362.5h475.5v22.9H153.1z"/><path id="XMLID_4_" class="st1" d="M153.1 398.1h314.7V421H153.1z"/><path class="st0" d="M216.1 193.3h-56.4c-3.6 0-6.6-2.9-6.6-6.6v-20.3c0-3.6 2.9-6.6 6.6-6.6h56.4c3.6 0 6.6 2.9 6.6 6.6v20.3c0 3.6-3 6.6-6.6 6.6zM300.6 193.3h-56.4c-3.6 0-6.6-2.9-6.6-6.6v-20.3c0-3.6 2.9-6.6 6.6-6.6h56.4c3.6 0 6.6 2.9 6.6 6.6v20.3c-.1 3.6-3 6.6-6.6 6.6zM521.1 193.3h-56.4c-3.6 0-6.6-2.9-6.6-6.6v-20.3c0-3.6 2.9-6.6 6.6-6.6h56.4c3.6 0 6.6 2.9 6.6 6.6v20.3c0 3.6-3 6.6-6.6 6.6zM644.7 193.3h-97.9c-3.6 0-6.6-2.9-6.6-6.6v-20.3c0-3.6 2.9-6.6 6.6-6.6h97.9c3.6 0 6.6 2.9 6.6 6.6v20.3c0 3.6-3 6.6-6.6 6.6zM438.4 193.3H328.6c-3.6 0-6.6-2.9-6.6-6.6v-20.3c0-3.6 2.9-6.6 6.6-6.6h109.7c3.6 0 6.6 2.9 6.6 6.6v20.3c0 3.6-2.9 6.6-6.5 6.6z"/></svg>