<svg version="1.1" id="Calque_1" xmlns="http://www.w3.org/2000/svg" x="0" y="0" viewBox="0 0 800 600" style="enable-background:new 0 0 800 600" xml:space="preserve"><style>.st0{fill:#323236;stroke:#797bf2;stroke-width:5;stroke-miterlimit:10}.st1{fill:#585868}.st2{fill:#f6f6f6}.st3{fill:none;stroke:#797bf2;stroke-width:5;stroke-miterlimit:10}</style><path class="st0" d="M530.7 464.4H73.2c-6.7 0-12.2-5.5-12.2-12.2v-300c0-6.7 5.5-12.2 12.2-12.2h457.5c6.7 0 12.2 5.5 12.2 12.2v300c0 6.7-5.4 12.2-12.2 12.2z"/><path id="XMLID_32_" class="st1" d="M87.4 217.9h87.8v19H87.4z"/><path id="XMLID_31_" class="st2" d="M195.7 217.9h144.1v19H195.7z"/><path id="XMLID_30_" class="st2" d="M360.2 217.9h144.1v19H360.2z"/><path class="st3" d="M61 191.5h481.9M61 257.8h481.9"/><path id="XMLID_29_" class="st1" d="M87.4 285h87.8v19H87.4z"/><path id="XMLID_28_" class="st2" d="M195.7 285h144.1v19H195.7z"/><path id="XMLID_27_" class="st2" d="M360.2 285h144.1v19H360.2z"/><path class="st3" d="M61 324.9h481.9"/><path id="XMLID_26_" class="st1" d="M87.4 352.1h87.8v19H87.4z"/><path id="XMLID_25_" class="st2" d="M195.7 352.1h144.1v19H195.7z"/><path id="XMLID_24_" class="st2" d="M360.2 352.1h144.1v19H360.2z"/><path class="st3" d="M61 392.1h481.9"/><path id="XMLID_23_" class="st1" d="M87.4 419.2h87.8v19H87.4z"/><path id="XMLID_22_" class="st2" d="M195.7 419.2h144.1v19H195.7z"/><path id="XMLID_21_" class="st2" d="M360.2 419.2h144.1v19H360.2z"/><path class="st0" d="M726.8 493.2H177.2c-6.7 0-12.2-5.5-12.2-12.2V119c0-6.7 5.5-12.2 12.2-12.2h549.6c6.7 0 12.2 5.5 12.2 12.2v362c0 6.7-5.5 12.2-12.2 12.2z"/><path id="XMLID_5_" class="st1" d="M196.4 199.6H301v22.6H196.4z"/><path id="XMLID_12_" class="st1" d="M325.4 199.6H497v22.6H325.4z"/><path id="XMLID_13_" class="st1" d="M521.4 199.6H693v22.6H521.4z"/><path class="st3" d="M165 168.2h574M165 247.2h574"/><path id="XMLID_14_" class="st1" d="M196.4 279.6H301v22.6H196.4z"/><path id="XMLID_2_" class="st1" d="M325.4 279.6H497v22.6H325.4z"/><path id="XMLID_1_" class="st1" d="M521.4 279.6H693v22.6H521.4z"/><path class="st3" d="M165 327.2h574"/><path id="XMLID_17_" class="st1" d="M196.4 359.5H301v22.6H196.4z"/><path id="XMLID_16_" class="st1" d="M325.4 359.5H497v22.6H325.4z"/><path id="XMLID_15_" class="st1" d="M521.4 359.5H693v22.6H521.4z"/><path class="st3" d="M165 407.1h574"/><path id="XMLID_20_" class="st1" d="M196.4 439.5H301v22.6H196.4z"/><path id="XMLID_19_" class="st1" d="M325.4 439.5H497v22.6H325.4z"/><path id="XMLID_18_" class="st1" d="M521.4 439.5H693v22.6H521.4z"/></svg>