<svg version="1.1" id="Calque_1" xmlns="http://www.w3.org/2000/svg" x="0" y="0" viewBox="0 0 800 600" style="enable-background:new 0 0 800 600" xml:space="preserve"><style>.st1{fill:#585868}</style><path id="XMLID_1_" d="M683.4 540.5H116.6c-14.4 0-26.1-7.9-26.1-17.8V77.3c0-9.8 11.6-17.8 26.1-17.8h566.8c14.4 0 26.1 7.9 26.1 17.8v445.5c-.1 9.8-11.7 17.7-26.1 17.7z" style="fill:#323236;stroke:#797bf2;stroke-width:5;stroke-miterlimit:10"/><path id="XMLID_5_" class="st1" d="M158 238.8h483v33H158z"/><path id="XMLID_2_" class="st1" d="M154 107.5h84V123h-84z"/><path id="XMLID_6_" class="st1" d="M257.3 107.5h84V123h-84z"/><path id="XMLID_8_" class="st1" d="M360.7 107.5h84V123h-84z"/><path id="XMLID_7_" class="st1" d="M158 303.8h400v33H158z"/><path id="XMLID_3_" class="st1" d="M158 367.8h292v33H158z"/><path id="XMLID_4_" class="st1" d="M158 433.8h421v33H158z"/><path style="fill:none;stroke:#797bf2;stroke-width:5;stroke-miterlimit:10" d="M154 137.3h84"/></svg>