<svg version="1.1" id="Calque_1" xmlns="http://www.w3.org/2000/svg" x="0" y="0" viewBox="0 0 800 600" style="enable-background:new 0 0 800 600" xml:space="preserve"><style>.st0{fill:#fff;stroke:#671cc9;stroke-width:5;stroke-miterlimit:10}</style><path class="st0" d="M667.7 351.9H134.1c-28.7 0-52-23.3-52-52s23.3-52 52-52h533.6c28.7 0 52 23.3 52 52-.1 28.9-23.3 52-52 52z"/><path class="st0" d="M205.7 337h-65.8c-20.4 0-36.9-16.5-36.9-36.9s16.5-36.9 36.9-36.9h65.8c20.4 0 36.9 16.5 36.9 36.9-.1 20.4-16.6 36.9-36.9 36.9zM368.9 337h-65.8c-20.4 0-36.9-16.5-36.9-36.9s16.5-36.9 36.9-36.9h65.8c20.4 0 36.9 16.5 36.9 36.9S389.3 337 368.9 337zM533.9 337h-65.8c-20.4 0-36.9-16.5-36.9-36.9s16.5-36.9 36.9-36.9h65.8c20.4 0 36.9 16.5 36.9 36.9S554.3 337 533.9 337z"/></svg>