<svg version="1.1" id="Calque_1" xmlns="http://www.w3.org/2000/svg" x="0" y="0" viewBox="-599 686 800 600" style="enable-background:new -599 686 800 600" xml:space="preserve"><style>.st0{fill:#fff;stroke:#7f00ff;stroke-width:5;stroke-miterlimit:10}.st1{fill:#7f00ff}</style><path class="st0" d="M-336.9 1141.2h-202c-4.7 0-8.5-3.8-8.5-8.5V839.2c0-4.7 3.8-8.5 8.5-8.5h202c4.7 0 8.5 3.8 8.5 8.5v293.5c0 4.7-3.8 8.5-8.5 8.5zM-98 1141.2h-202c-4.7 0-8.5-3.8-8.5-8.5V839.2c0-4.7 3.8-8.5 8.5-8.5h202c4.7 0 8.5 3.8 8.5 8.5v293.5c0 4.7-3.8 8.5-8.5 8.5zM140.9 1141.2h-202c-4.7 0-8.5-3.8-8.5-8.5V839.2c0-4.7 3.8-8.5 8.5-8.5h202c4.7 0 8.5 3.8 8.5 8.5v293.5c0 4.7-3.8 8.5-8.5 8.5z"/><path class="st1" d="M-428.3 1007.6c-4.9 4.9-13 4.9-17.9 0-1-1-2.6-1-3.7 0-1 1-1 2.6 0 3.7 3.5 3.5 8 5.2 12.6 5.2s9.1-1.7 12.6-5.2c1-1 1-2.6 0-3.7-1-1-2.6-1-3.6 0z"/><path class="st1" d="M-378.8 1033.3c-6.1-6.7-6.3-23.8-5.6-41.5 2.6-2.5 4.3-6 4.3-9.9 0-3.4-1.3-6.5-3.4-8.9.9-18 1.3-30.1-4.4-41.2-3.9-7.6-10.2-13.9-18.8-18.9-10-5.7-21.3-8.6-32.9-8.1-10.1.4-19.6 5.1-26.1 13-8.4.5-16 5.1-20.2 12.1-.4.6-.7 1.2-1 1.9-5.7 11.1-5.3 23.2-4.4 41.2-2.1 2.4-3.4 5.5-3.4 8.9 0 3.9 1.7 7.4 4.3 9.9.7 17.7.5 34.8-5.6 41.5-.6.6-.8 1.5-.6 2.3s.8 1.5 1.6 1.8c6.8 2.6 13.4 3.5 19.4 3.5 6.2 0 11.7-1 16-2.2 7.5-2 12.8-4.9 14.6-5.9 2.5.4 5 .6 7.5.6 2.6 0 5.1-.2 7.5-.6 1.8 1.1 7.1 3.9 14.6 5.9 5.8 1.6 11.1 2.2 15.9 2.2 8 0 14.7-1.7 19.5-3.5.8-.3 1.4-1 1.6-1.8.4-.8.2-1.7-.4-2.3zm-12.3-46.1v-13.3c3.4 1.1 5.8 4.3 5.8 8 0 3.8-2.5 7-5.9 8 .1-.9.1-1.8.1-2.7zm-91-53.1c.3-.5.6-1.1.9-1.6 3.4-5.9 9.9-9.5 17-9.6.8 0 1.5-.4 2-1 5.6-7.3 13.9-11.6 22.9-12 10.6-.4 21 2.2 30.1 7.5 7.7 4.4 13.3 10.1 16.7 16.7 4.6 8.9 4.7 18.6 4 35.3-.8-.3-1.7-.6-2.6-.8V966c0-1.4-1.2-2.6-2.6-2.6-1.4 0-2.6 1.2-2.6 2.6v5.9c-35.6.4-54.9-16.8-60-22.1-.6-.6-1.5-.9-2.3-.8-.9.2-1.6.7-1.9 1.6-3.8 9.1-10.3 13.9-20.7 15-1.3.1-2.3 1.3-2.3 2.6v.5c-.9.2-1.8.4-2.6.8-.8-16.8-.6-26.5 4-35.4zm-1.3 55.8c-3.4-1.1-5.9-4.3-5.9-8s2.4-6.9 5.8-8v13.3c0 .9 0 1.8.1 2.7zm-6.3 43.8c4.6-7.9 5.4-20.9 4.8-38.8.7.2 1.4.4 2.1.5 2.9 16.6 14.7 30.1 30.3 35.5-7.5 3.2-21.6 7.4-37.2 2.8zm52.4-5.4c-22.6 0-41-18.4-41-41v-16.9c9.7-1.6 16.6-6.4 21-14.5 3.7 3.4 9.7 8.1 18.2 12.1 12.8 6.1 27.2 9.2 42.9 9v10.2c-.1 22.7-18.5 41.1-41.1 41.1zm23.6 5.5c-3.3-.9-6.2-2-8.4-2.9 15.6-5.4 27.3-19 30.3-35.5.7-.1 1.4-.3 2.1-.5-.6 17.8.2 30.9 4.8 38.8-9.1 2.7-18.8 2.8-28.8.1z"/><path class="st1" d="M-468.2 979.6c-1 1-1 2.6 0 3.7 1 1 2.6 1 3.7 0 1.7-1.7 4.4-1.7 6 0 .5.5 1.2.8 1.8.8s1.3-.3 1.8-.8c1-1 1-2.6 0-3.7-3.6-3.7-9.6-3.7-13.3 0zM-406.4 983.2c1-1 1-2.6 0-3.7-3.7-3.7-9.6-3.7-13.3 0-1 1-1 2.6 0 3.7 1 1 2.6 1 3.7 0 1.7-1.7 4.4-1.7 6 0 .5.5 1.2.8 1.8.8s1.3-.3 1.8-.8zM13.3 986.9c1.3 0 2.4.5 3.3 1.4.5.5 1.2.8 1.8.8.7 0 1.3-.3 1.8-.8 1-1 1-2.6 0-3.6-1.9-1.9-4.3-2.9-7-2.9s-5.1 1-7 2.9c-1 1-1 2.6 0 3.6s2.6 1 3.6 0c1.1-.9 2.3-1.4 3.5-1.4zM59.5 984.6c-1 1-1 2.6 0 3.6s2.6 1 3.6 0c1.8-1.8 4.8-1.8 6.6 0 .5.5 1.2.8 1.8.8.7 0 1.3-.3 1.8-.8 1-1 1-2.6 0-3.6-3.7-3.8-9.9-3.8-13.8 0zM66.5 1010c-14.7 14.7-38.5 14.7-53.2 0-1-1-2.6-1-3.6 0s-1 2.6 0 3.6c8.3 8.3 19.3 12.5 30.2 12.5 10.9 0 21.9-4.2 30.2-12.5 1-1 1-2.6 0-3.6s-2.6-1-3.6 0z"/><path class="st1" d="M100.5 989.7c0-7-5-12.8-11.7-14v-43c0-5.6-2.8-10.7-7.4-13.8-4.4-2.9-9.8-3.6-14.7-1.8l-16.1-5.5c-12.4-4.2-25.4-4.6-37.7-1.2-16.1 4.4-25.3 13.8-26.7 27.2-1.3 1.7-2.3 3.5-2.9 5.5l-1.3 3.7c-.7 2 .1 4.1 1.8 5.2 1.8 1.1 4 .9 5.5-.6.5-.5 1.1-.9 1.7-1.3v25.6c-6.6 1.2-11.7 7-11.7 14 0 7.3 5.5 13.3 12.5 14.1 1.8 9.7 6.4 18.7 13.5 25.9 9.3 9.4 21.6 14.6 34.6 14.6 13.1 0 25.4-5.1 34.6-14.3 7.2-7.2 11.9-16.3 13.6-26.1 7-1 12.4-7 12.4-14.2zm-21.9-66.5c3.3 2.2 5.1 5.6 5.1 9.5v33.6c-8-1.2-14.1-8.1-14.1-16.5l-.2-28.2c3.1-.8 6.4-.3 9.2 1.6zm-91 22.9.5-1.5c1.3-3.9 4.2-7 8-8.6 3.8-1.6 8-1.5 11.7.2 7.8 3.6 17.2 1.7 22.9-4.8l.6-.7c.9-1.1.8-2.7-.2-3.6-1.1-.9-2.7-.8-3.6.2l-.6.7c-4.2 4.7-11.1 6.2-16.8 3.5-5-2.3-10.8-2.4-15.9-.2-.5.2-.9.4-1.4.7 3-8 10.2-13.6 21.6-16.7 11.3-3.1 23.3-2.7 34.7 1.2l15.3 5.2.2 13.3c-6.8 9.3-16.7 15.5-28.1 17.7-11.6 2.2-23.4-.1-33.3-6.6-4.9-3.2-11-3.1-15.6 0zm-3.2 43.6c0-4.1 2.8-7.6 6.5-8.7v13.9c0 1.2 0 2.4.1 3.6-3.7-1.1-6.6-4.7-6.6-8.8zm86.5 36.6c-8.3 8.3-19.3 12.8-31 12.8s-22.7-4.6-31-13-12.8-19.5-12.8-31.3v-46c1.5.1 2.9.6 4.2 1.4 11 7.2 24.2 9.8 37 7.3 10.5-2 19.9-7.1 27.1-14.7v7c0 11.2 8.4 20.4 19.2 21.6v23.9c.1 11.7-4.5 22.7-12.7 31zm17.8-27.9c.1-1 .1-2.1.1-3.1v-14.4c3.8 1.1 6.5 4.6 6.5 8.7.1 4.2-2.7 7.8-6.6 8.8zM-136.4 983.5c0-2.5-.7-4.8-2-6.7.5-3.2.8-6.5.8-9.7 0-33.8-27.5-61.3-61.3-61.3s-61.3 27.5-61.3 61.3c0 3.3.3 6.5.8 9.7-1.3 1.9-2 4.3-2 6.7 0 6.2 4.5 11.3 10.5 12.3 3.2 25.9 25.3 46.1 52.1 46.1s48.9-20.2 52.1-46.1c5.7-.9 10.3-6.1 10.3-12.3zm-120.5 0c0-3.5 2.3-6.4 5.4-7.4v14.7c-3.1-.9-5.4-3.8-5.4-7.3zm57.9 53.7c-26.4 0-47.8-21.5-47.8-47.8v-24.2c0-3.6 1.9-6.8 5.1-8.5 3.1-1.7 6.8-1.6 9.8.3 9.8 6.3 21.2 9.6 32.9 9.6s23.1-3.3 32.9-9.6c3-1.9 6.7-2 9.8-.3 3.2 1.7 5.1 4.9 5.1 8.5v24.2c0 26.4-21.4 47.8-47.8 47.8zm45-84.6c-4.7-2.6-10.1-2.4-14.6.5-9.1 5.8-19.6 8.8-30.4 8.8-10.8 0-21.3-3.1-30.4-8.8-4.5-2.9-9.9-3-14.6-.5-4.7 2.6-7.5 7.3-7.5 12.6v6.1c-1.4.3-2.7.8-3.9 1.5-.2-1.9-.3-3.8-.3-5.7 0-31.2 25.4-56.7 56.7-56.7s56.7 25.4 56.7 56.7c0 1.9-.1 3.8-.3 5.7-1.2-.7-2.5-1.2-3.9-1.5v-6.1c0-5.3-2.8-10-7.5-12.6zm7.5 38.3v-14.7c3.1 1 5.4 3.9 5.4 7.4 0 3.4-2.3 6.3-5.4 7.3z"/><circle class="st1" cx="-220.4" cy="989.5" r="3.9"/><circle class="st1" cx="-176.9" cy="989.5" r="3.9"/><path class="st1" d="M-183.9 979.5c-.9.9-.9 2.4 0 3.3.9.9 2.4.9 3.3 0 2.1-2.1 5.4-2.1 7.5 0 .5.5 1.1.7 1.7.7.6 0 1.2-.2 1.7-.7.9-.9.9-2.4 0-3.3-4-3.9-10.3-3.9-14.2 0zM-220.4 976.5c-2.7 0-5.2 1-7.1 2.9-.9.9-.9 2.4 0 3.3.9.9 2.4.9 3.3 0 1-1 2.3-1.6 3.8-1.6 1.4 0 2.8.6 3.8 1.6.5.5 1.1.7 1.7.7.6 0 1.2-.2 1.7-.7.9-.9.9-2.4 0-3.3-2-1.8-4.5-2.9-7.2-2.9zM-189.5 1005c-1.3 0-2.3 1-2.3 2.3 0 3.9-3.2 7.1-7.1 7.1s-7.1-3.2-7.1-7.1c0-1.3-1-2.3-2.3-2.3s-2.3 1-2.3 2.3c0 6.5 5.3 11.8 11.8 11.8 6.5 0 11.8-5.3 11.8-11.8-.2-1.2-1.2-2.3-2.5-2.3z"/></svg>