<svg version="1.1" id="Calque_1" xmlns="http://www.w3.org/2000/svg" x="0" y="0" viewBox="-599 686 800 600" style="enable-background:new -599 686 800 600" xml:space="preserve"><style>.st0{fill:#fff;stroke:#7f00ff;stroke-width:5;stroke-miterlimit:10}.st1{fill:#7f00ff}</style><path class="st0" d="M-336.9 1141.2h-202c-4.7 0-8.5-3.8-8.5-8.5V839.2c0-4.7 3.8-8.5 8.5-8.5h202c4.7 0 8.5 3.8 8.5 8.5v293.5c0 4.7-3.8 8.5-8.5 8.5zM-98 1141.2h-202c-4.7 0-8.5-3.8-8.5-8.5V839.2c0-4.7 3.8-8.5 8.5-8.5h202c4.7 0 8.5 3.8 8.5 8.5v293.5c0 4.7-3.8 8.5-8.5 8.5zM140.9 1141.2h-202c-4.7 0-8.5-3.8-8.5-8.5V839.2c0-4.7 3.8-8.5 8.5-8.5h202c4.7 0 8.5 3.8 8.5 8.5v293.5c0 4.7-3.8 8.5-8.5 8.5z"/><path class="st1" d="M-131.4 982c0-3.9-1.4-7.4-3.7-10.2v-5c0-35.2-28.6-63.9-63.9-63.9s-63.9 28.6-63.9 63.9v5c-2.3 2.8-3.7 6.3-3.7 10.2 0 7.9 5.8 14.5 13.3 15.7 2.7 11.7 12 25.1 27.9 40.1 7.4 7 16.9 10.5 26.4 10.5s19-3.5 26.4-10.5c15.9-15 25.2-28.4 27.9-40.1 7.5-1.2 13.3-7.8 13.3-15.7zm-67.6-73.5c32.2 0 58.3 26.2 58.3 58.3v.7c-1.9-.9-4.1-1.4-6.4-1.5-2.2-8.9-5.7-17.6-10.2-25.6l-.4-.7c-2.4-4.2-6.7-6.9-11.6-7.3-4.8-.3-9.4 1.8-12.3 5.6l-.1.1c-4.1 5.5-10.5 8.7-17.4 8.7-6.9 0-13.2-3.2-17.4-8.7l-.1-.1c-2.9-3.8-7.5-5.9-12.3-5.6-4.9.3-9.2 3-11.6 7.3l-.4.8c-4.6 8-8 16.7-10.2 25.6-2.3 0-4.4.6-6.4 1.5v-.7c.2-32.2 26.3-58.4 58.5-58.4zm-62.1 73.5c0-5.2 3.8-9.5 8.8-10.3-1.2 6.3-1.8 12.8-1.8 19.2v.9c-4-1.3-7-5.2-7-9.8zm84.7 51.8c-12.7 11.9-32.5 11.9-45.2 0-17.6-16.6-26.9-31.4-26.9-42.9 0-16.7 4.3-33.2 12.6-47.7l.4-.8c1.5-2.6 4.1-4.3 7.1-4.5h.6c2.7 0 5.2 1.2 6.9 3.4l.1.1c5.1 6.9 13.3 11 21.8 11s16.7-4.1 21.8-11l.1-.1c1.8-2.4 4.5-3.6 7.5-3.4 3 .2 5.7 1.9 7.1 4.5l.4.7c8.2 14.5 12.6 31 12.6 47.7 0 11.6-9.3 26.4-26.9 43zm32.4-41.9v-.9c0-6.5-.6-12.9-1.8-19.2 5 .8 8.8 5.1 8.8 10.3.1 4.5-2.9 8.3-7 9.8z"/><path class="st1" d="M-194.5 1015.6c-1.2 1.2-2.8 1.9-4.5 1.9-1.7 0-3.3-.7-4.5-1.9-1.1-1.1-2.8-1.1-3.9 0s-1.1 2.8 0 3.9c2.2 2.2 5.2 3.5 8.4 3.5s6.2-1.2 8.4-3.5c1.1-1.1 1.1-2.8 0-3.9-1.1-1-2.8-1-3.9 0z"/><circle class="st1" cx="-229" cy="988.1" r="5.4"/><circle class="st1" cx="-169" cy="988.1" r="5.4"/><path class="st1" d="m-170.9 964.7-8.7 3.3c-1.4.5-2.2 2.1-1.6 3.6.5 1.4 2.1 2.2 3.6 1.6l8.7-3.3c2.8-1.1 5.9.4 7 3.2.4 1.1 1.5 1.8 2.6 1.8.3 0 .6-.1 1-.2 1.4-.5 2.2-2.1 1.6-3.6-1-2.7-3.1-4.9-5.7-6.1-2.8-1.2-5.7-1.3-8.5-.3zM-229 969.9l8.7 3.3c1.4.5 3-.2 3.6-1.6.5-1.4-.2-3-1.6-3.6l-8.7-3.3c-2.7-1-5.7-.9-8.4.3s-4.7 3.4-5.7 6.1c-.5 1.4.2 3 1.6 3.6.3.1.6.2 1 .2 1.1 0 2.2-.7 2.6-1.8.9-2.8 4-4.2 6.9-3.2zM-205.7 1009.1c1.3.7 3 .2 3.8-1.1.7-1.3.2-3-1.1-3.8l-2.2-1.2c-1.9-1.1-4.2-1.3-6.3-.7-2.1.6-3.9 2-4.9 3.9l-.7 1.2c-.7 1.3-2.4 1.8-3.7 1.1-1.3-.7-3-.2-3.8 1.1-.7 1.3-.2 3 1.1 3.8 1.3.7 2.6 1 4 1 2.9 0 5.7-1.5 7.2-4.3l.7-1.2c.3-.6.9-1.1 1.6-1.3.7-.2 1.4-.1 2.1.2l2.2 1.3zM-177.3 1008.6c-1.3.7-3 .2-3.7-1.1l-.7-1.2c-1.1-1.9-2.8-3.3-4.9-3.9s-4.3-.4-6.3.7l-2.2 1.2c-1.3.7-1.8 2.4-1.1 3.8.7 1.3 2.4 1.8 3.8 1.1l2.2-1.2c.6-.3 1.4-.4 2.1-.2.7.2 1.3.7 1.6 1.3l.7 1.2c1.5 2.7 4.3 4.3 7.2 4.3 1.3 0 2.7-.3 4-1 1.3-.7 1.8-2.4 1.1-3.8-.7-1.5-2.4-1.9-3.8-1.2zM5.3 989.9c-1.1 1.1-1.1 2.8 0 3.9s2.8 1.1 3.9 0c2.6-2.6 6.8-2.6 9.4 0 .5.5 1.2.8 2 .8.7 0 1.4-.3 2-.8 1.1-1.1 1.1-2.8 0-3.9-4.8-4.7-12.6-4.7-17.3 0zM57.3 993.8c1.1 1.1 2.8 1.1 3.9 0 2.6-2.6 6.8-2.6 9.4 0 .5.5 1.2.8 2 .8.7 0 1.4-.3 2-.8 1.1-1.1 1.1-2.8 0-3.9-4.7-4.7-12.5-4.7-17.2 0-1.2 1.1-1.2 2.8-.1 3.9zM46 1004.5c-1.5 0-2.8 1.2-2.8 2.8 0 1.5 1.2 2.8 2.8 2.8 1.4 0 2.6 1.2 2.6 2.6 0 1.4-1.2 2.6-2.6 2.6-1.5 0-2.8 1.2-2.8 2.8s1.2 2.8 2.8 2.8c1.4 0 2.6 1.2 2.6 2.6s-1.2 2.6-2.6 2.6c-1.5 0-2.8 1.2-2.8 2.8s1.2 2.8 2.8 2.8c4.5 0 8.1-3.6 8.1-8.1 0-2.1-.8-3.9-2-5.4 1.3-1.4 2-3.3 2-5.4 0-4.7-3.7-8.3-8.1-8.3z"/><path class="st1" d="M109.4 1018.5c-4.2-10.6-13.8-17-17.5-19.2 6.2-1.6 10.9-7.3 10.9-14 0-2.9-.9-5.8-2.5-8.2.9-4.3 1.4-8.8 1.4-13.2 0-34.2-27.8-62-62-62s-62 27.8-62 62c0 4.7.5 9.4 1.6 13.9-1.3 2.2-2.1 4.7-2.1 7.5 0 6.7 4.6 12.4 10.9 14-3.7 2.2-13.3 8.6-17.5 19.2-5.2 13.1-.2 27.1.1 27.7.3.7.8 1.3 1.6 1.6.3.1.7.2 1 .2.4 0 .8-.1 1.2-.3.6-.3 13.9-7 19.1-20 .9-2.3 1.5-4.7 1.9-7 1.8 3.2 4 6.3 6.5 9.1 9.7 10.9 23.6 17.2 38.2 17.2 14.6 0 28.5-6.3 38.2-17.2 2.5-2.8 4.7-5.9 6.5-9.1.4 2.3 1 4.7 1.9 7 5.2 13.1 18.5 19.8 19.1 20 .4.2.8.3 1.2.3.3 0 .7-.1 1-.2.7-.3 1.3-.9 1.6-1.6-.2-.6 4.9-14.7-.3-27.7zm-12.2-33.3c0 4-2.6 7.4-6.2 8.6V988c.8.2 1.6.3 2.4.4h.4c1 0 2-.6 2.5-1.5l.9-1.7zm-114.6.1c0-4 2.6-7.4 6.2-8.5v17.1c-3.6-1.3-6.2-4.7-6.2-8.6zm5.6 40.3c-3 7.6-9.6 12.9-13.5 15.4-1-4.5-2.2-12.8.8-20.4 3-7.6 9.6-12.9 13.5-15.4 1.1 4.4 2.3 12.7-.8 20.4zm97.2-29.8c0 11.2-4.1 21.9-11.5 30.2-8.6 9.7-21.1 15.3-34.1 15.3s-25.4-5.6-34.1-15.3a45.48 45.48 0 0 1-11.5-30.2V975c1.9-.9 4.9-2.8 7.9-5.9 3.3-3.4 7-8.8 8.6-16.9 1.6 2.2 3.6 4.8 6 7.4 9.2 9.7 20 14.8 31.4 14.8 1 0 1.9-.5 2.4-1.4.5-.9.5-2-.1-2.8-3.1-4.8-3.6-9.7-3.4-13.5 1.7 2.9 4 6.4 7.1 10 6 7 16.1 15.7 31.1 20l.2 9.1zm-26.7-32.5c-7-8.1-9.8-15.7-9.9-15.8-.4-1.1-1.4-1.8-2.5-1.8s-2.2.6-2.6 1.7c-.2.5-4.4 10.4-.1 21.3-8.1-1.2-15.7-5.4-22.6-12.7-6.3-6.6-9.6-13.3-9.6-13.4-.6-1.3-2.1-1.9-3.5-1.4-1.1.4-1.7 1.5-1.7 2.6 0 17.5-10.4 24.3-14.2 26.3-.7.4-6.1 1.7-8.1 2.9-.5-3-.7-6.1-.7-9.2 0-31.1 25.3-56.5 56.5-56.5 31.1 0 56.5 25.3 56.5 56.5 0 4.5-.5 8.9-1.6 13.2-.4 1.7-2.2 5.6-2.2 5.6-13.5-2.5-24.8-9-33.7-19.3zm46.4 77.7c-3.8-2.5-10.4-7.7-13.5-15.4-3-7.6-1.8-16-.8-20.4 3.8 2.5 10.4 7.8 13.5 15.4 3 7.6 1.8 15.9.8 20.4zM-462 984.9c-3.1 0-6 1.2-8.2 3.4-1 1-1 2.7 0 3.7s2.7 1 3.7 0c1.2-1.2 2.8-1.9 4.5-1.9 1.7 0 3.3.7 4.5 1.9.5.5 1.2.8 1.9.8s1.3-.3 1.9-.8c1-1 1-2.7 0-3.7-2.3-2.2-5.2-3.4-8.3-3.4zM-406.3 992.8c.7 0 1.3-.3 1.9-.8 1-1 1-2.7 0-3.7-2.2-2.2-5.1-3.4-8.2-3.4-3.1 0-6 1.2-8.2 3.4-1 1-1 2.7 0 3.7s2.7 1 3.7 0c1.2-1.2 2.8-1.9 4.5-1.9s3.3.7 4.5 1.9c.5.5 1.2.8 1.8.8zM-424.5 1007.7c-1.4 0-2.6 1.2-2.6 2.6 0 2.1-1.7 3.8-3.8 3.8s-3.8-1.7-3.8-3.8c0-1.4-1.2-2.6-2.6-2.6-1.4 0-2.6 1.2-2.6 2.6 0 2.1-1.7 3.8-3.8 3.8-2.1 0-3.8-1.7-3.8-3.8 0-1.4-1.2-2.6-2.6-2.6-1.4 0-2.6 1.2-2.6 2.6 0 5 4 9 9 9 2.5 0 4.8-1 6.4-2.7 1.6 1.6 3.9 2.7 6.4 2.7 5 0 9-4 9-9 0-1.4-1.1-2.6-2.6-2.6zM-468.1 998.3h-5.9c-1.4 0-2.6 1.2-2.6 2.6 0 1.4 1.2 2.6 2.6 2.6h5.9c1.4 0 2.6-1.2 2.6-2.6.1-1.4-1.1-2.6-2.6-2.6zM-398 1001c0-1.4-1.2-2.6-2.6-2.6h-5.9c-1.4 0-2.6 1.2-2.6 2.6 0 1.4 1.2 2.6 2.6 2.6h5.9c1.4 0 2.6-1.2 2.6-2.6z"/><path class="st1" d="M-389.4 933.9c-5.5-7.3-12.6-13.3-20.7-17.4-8.5-4.3-17.6-6.5-27.2-6.5-9.6 0-18.8 2.2-27.4 6.6-8.1 4.2-15.3 10.3-20.8 17.6-7.8 10.4-11.8 22.8-11.8 35.8v61.5c0 1.4 1.2 2.6 2.6 2.6h21.7c9.2 9.8 22 15.4 35.5 15.4s26.3-5.6 35.5-15.4h21.9c1.4 0 2.6-1.2 2.6-2.6V970c.2-13.2-4-25.7-11.9-36.1zm-48 110.4c-12.4 0-24.2-5.3-32.4-14.6-7-7.9-10.9-18.1-10.9-28.7v-26.7c28.4-7.2 58.1-7.2 86.6 0v26.8c0 10.6-3.9 20.8-10.9 28.7-8.2 9.2-20 14.5-32.4 14.5zm54.8-15.4h-15.1c5.7-8.1 8.8-17.8 8.8-27.9v-25.4c.3.1.7.2 1 .3.2.1.5.1.7.1 1.1 0 2.2-.7 2.5-1.9.4-1.4-.4-2.8-1.8-3.3-3.6-1.1-7.3-2-11-2.8.5-4.8.6-15.5-6.8-25-.9-1.1-2.5-1.4-3.7-.5-1.1.9-1.4 2.5-.5 3.7 6 7.8 6.2 16.5 5.8 20.7-16-3.1-32.3-4.1-48.4-2.8.2-4.6 1.4-11.6 2-14.4.3-1.4-.6-2.8-2-3.1-1.4-.3-2.8.6-3.1 2-.2 1.1-2 10-2.1 15.9-4.3.4-8.5 1-12.8 1.8.2-5.4 1.4-16.6 7.6-23.3 1-1.1.9-2.7-.1-3.7-1.1-1-2.7-.9-3.7.1-8 8.5-8.9 22.4-9 27.9-4.7 1-9.3 2.1-14 3.5-1.4.4-2.2 1.9-1.8 3.3.4 1.4 1.9 2.2 3.3 1.8.3-.1.6-.2.8-.2v25.3c0 10 3.1 19.7 8.8 27.9H-492V970c0-11.9 3.7-23.2 10.8-32.7 5-6.7 11.5-12.3 19-16.1 7.8-4 16.2-6 25-6 8.7 0 17.1 2 24.8 5.9 7.4 3.8 13.9 9.2 18.9 15.9 7.2 9.5 11 20.9 11 32.9l-.1 59z"/></svg>