<svg version="1.1" id="Calque_1" xmlns="http://www.w3.org/2000/svg" x="0" y="0" viewBox="0 0 800 600" style="enable-background:new 0 0 800 600" xml:space="preserve"><style>.st0{fill:#fff;stroke:#671cc9;stroke-width:5;stroke-miterlimit:10}.st1{fill:#671cc9}</style><path class="st0" d="M638.8 424.9H145.6c-9.4 0-17-7.6-17-17V166.3c0-9.4 7.6-17 17-17h493.2c9.4 0 17 7.6 17 17v241.5c0 9.4-7.6 17.1-17 17.1zM636 413.2l6.7-6.7M628.3 409.9l11-11.1M618 408l19.5-19.4"/><path class="st1" d="m170.7 193 4.5-8.7h2.6l-6 10.9v6.5h-2.3v-6.5l-6-10.9h2.6l4.6 8.7zM178.4 195.1c0-1.3.2-2.4.7-3.4.5-1 1.2-1.8 2.1-2.3.9-.5 1.9-.8 3-.8 1.8 0 3.2.6 4.3 1.8s1.6 2.8 1.6 4.9v.2c0 1.3-.2 2.4-.7 3.4-.5 1-1.2 1.8-2.1 2.3-.9.6-1.9.8-3.1.8-1.7 0-3.2-.6-4.3-1.8s-1.6-2.8-1.6-4.8v-.3zm2.2.3c0 1.4.3 2.6 1 3.4s1.6 1.3 2.7 1.3 2-.4 2.7-1.3c.7-.9 1-2.1 1-3.7 0-1.4-.3-2.6-1-3.4-.7-.9-1.6-1.3-2.7-1.3s-2 .4-2.6 1.3c-.7.8-1.1 2-1.1 3.7zM200.9 200.4c-.9 1-2.1 1.5-3.8 1.5-1.4 0-2.4-.4-3.1-1.2-.7-.8-1.1-2-1.1-3.5v-8.4h2.2v8.3c0 2 .8 2.9 2.4 2.9 1.7 0 2.8-.6 3.4-1.9v-9.4h2.2v12.9H201l-.1-1.2zM212.6 190.7c-.3-.1-.7-.1-1.1-.1-1.4 0-2.4.6-2.9 1.8v9.2h-2.2v-12.9h2.1v1.5c.7-1.2 1.7-1.7 3.1-1.7.4 0 .8.1 1 .2v2zM223.7 185.6v3.1h2.4v1.7h-2.4v8c0 .5.1.9.3 1.2.2.3.6.4 1.1.4.3 0 .6 0 1-.1v1.8c-.6.2-1.1.2-1.7.2-1 0-1.7-.3-2.2-.9-.5-.6-.8-1.4-.8-2.5v-8h-2.3v-1.7h2.3v-3.1h2.3zM234 201.9c-1.7 0-3.2-.6-4.3-1.7-1.1-1.1-1.6-2.7-1.6-4.6v-.4c0-1.3.2-2.4.7-3.4.5-1 1.2-1.8 2.1-2.4.9-.6 1.8-.9 2.9-.9 1.7 0 3 .6 3.9 1.7.9 1.1 1.4 2.7 1.4 4.7v.9h-8.7c0 1.3.4 2.3 1.1 3.1.7.8 1.6 1.2 2.7 1.2.8 0 1.4-.2 2-.5.5-.3 1-.7 1.4-1.3l1.3 1c-1.1 1.8-2.7 2.6-4.9 2.6zm-.3-11.6c-.9 0-1.6.3-2.2 1-.6.6-1 1.6-1.1 2.7h6.5v-.2c-.1-1.1-.4-2-.9-2.6s-1.3-.9-2.3-.9zM245.9 193.5l2.9-4.7h2.6l-4.2 6.4 4.4 6.5H249l-3-4.8-3 4.8h-2.6l4.4-6.5-4.2-6.4h2.6l2.7 4.7zM256.7 185.6v3.1h2.4v1.7h-2.4v8c0 .5.1.9.3 1.2.2.3.6.4 1.1.4.3 0 .6 0 1-.1v1.8c-.6.2-1.1.2-1.7.2-1 0-1.7-.3-2.2-.9-.5-.6-.8-1.4-.8-2.5v-8h-2.3v-1.7h2.3v-3.1h2.3zM269.9 190.3c1-1.2 2.2-1.8 3.8-1.8 2.7 0 4.1 1.5 4.1 4.6v8.5h-2.2v-8.5c0-.9-.2-1.6-.6-2.1-.4-.4-1.1-.7-1.9-.7-.7 0-1.3.2-1.9.6-.5.4-1 .9-1.3 1.5v9.2h-2.2v-18.3h2.2v7zM286.5 201.9c-1.7 0-3.2-.6-4.3-1.7-1.1-1.1-1.6-2.7-1.6-4.6v-.4c0-1.3.2-2.4.7-3.4.5-1 1.2-1.8 2.1-2.4.9-.6 1.8-.9 2.9-.9 1.7 0 3 .6 3.9 1.7.9 1.1 1.4 2.7 1.4 4.7v.9h-8.7c0 1.3.4 2.3 1.1 3.1.7.8 1.6 1.2 2.7 1.2.8 0 1.4-.2 2-.5.5-.3 1-.7 1.4-1.3l1.3 1c-1.1 1.8-2.7 2.6-4.9 2.6zm-.3-11.6c-.9 0-1.6.3-2.2 1-.6.6-1 1.6-1.1 2.7h6.5v-.2c-.1-1.1-.4-2-.9-2.6s-1.3-.9-2.3-.9zM300.3 190.7c-.3-.1-.7-.1-1.1-.1-1.4 0-2.4.6-2.9 1.8v9.2h-2.2v-12.9h2.1v1.5c.7-1.2 1.7-1.7 3.1-1.7.4 0 .8.1 1 .2v2zM307.5 201.9c-1.7 0-3.2-.6-4.3-1.7-1.1-1.1-1.6-2.7-1.6-4.6v-.4c0-1.3.2-2.4.7-3.4.5-1 1.2-1.8 2.1-2.4.9-.6 1.8-.9 2.9-.9 1.7 0 3 .6 3.9 1.7.9 1.1 1.4 2.7 1.4 4.7v.9h-8.7c0 1.3.4 2.3 1.1 3.1.7.8 1.6 1.2 2.7 1.2.8 0 1.4-.2 2-.5.5-.3 1-.7 1.4-1.3l1.3 1c-1.1 1.8-2.8 2.6-4.9 2.6zm-.3-11.6c-.9 0-1.6.3-2.2 1-.6.6-1 1.6-1.1 2.7h6.5v-.2c-.1-1.1-.4-2-.9-2.6s-1.4-.9-2.3-.9zM315.1 200.5c0-.4.1-.7.3-1 .2-.3.6-.4 1-.4s.8.1 1 .4c.2.3.4.6.4 1s-.1.7-.4.9c-.2.2-.6.4-1 .4s-.8-.1-1-.4c-.2-.2-.3-.5-.3-.9zM321.5 200.5c0-.4.1-.7.3-1 .2-.3.6-.4 1-.4s.8.1 1 .4c.2.3.4.6.4 1s-.1.7-.4.9c-.2.2-.6.4-1 .4s-.8-.1-1-.4c-.2-.2-.3-.5-.3-.9zM328 200.5c0-.4.1-.7.3-1 .2-.3.6-.4 1-.4s.8.1 1 .4c.2.3.4.6.4 1s-.1.7-.4.9c-.2.2-.6.4-1 .4s-.8-.1-1-.4c-.2-.2-.3-.5-.3-.9z"/></svg>