<svg version="1.1" id="Calque_1" xmlns="http://www.w3.org/2000/svg" x="0" y="0" viewBox="-599 686 800 600" style="enable-background:new -599 686 800 600" xml:space="preserve"><style>.st1{fill:#fff;stroke:#7f00ff;stroke-width:5;stroke-miterlimit:10}</style><path style="fill:none;stroke:#7f00ff;stroke-width:5;stroke-miterlimit:10" d="M-195.6 705.8v560.4"/><circle class="st1" cx="-195.6" cy="954.4" r="29.1"/><circle class="st1" cx="-195.6" cy="786.9" r="29.1"/><circle class="st1" cx="-195.6" cy="1133" r="29.1"/><path class="st1" d="M-107.5 786.4h199v101.2h-199v-84.4l-18.7-15.7c-.5-.4-.2-1.1.5-1.1h18.2zM-107.5 1133h199v101.2h-199v-84.3l-18.7-15.7c-.5-.4-.2-1.1.5-1.1l18.2-.1zM-290.5 951.5h-199v101.2h199v-84.3l18.7-15.7c.5-.4.2-1.1-.5-1.1l-18.2-.1z"/></svg>