<svg version="1.1" id="Calque_1" xmlns="http://www.w3.org/2000/svg" x="0" y="0" viewBox="0 0 800 600" style="enable-background:new 0 0 800 600" xml:space="preserve"><style>.st0{fill:#fff;stroke:#671cc9;stroke-width:5;stroke-miterlimit:10}.st1{fill:#671cc9}</style><path class="st0" d="M586.5 281.6h-373c-16.6 0-30.1-13.5-30.1-30.1v-56.7c0-16.6 13.5-30.1 30.1-30.1h373c16.6 0 30.1 13.5 30.1 30.1v56.7c0 16.7-13.5 30.1-30.1 30.1z"/><path class="st1" d="M453.6 202.8H230.2c-2.7 0-4.8-2.2-4.8-4.8 0-2.7 2.2-4.8 4.8-4.8h223.4c2.7 0 4.8 2.2 4.8 4.8 0 2.7-2.2 4.8-4.8 4.8zM375.6 224.4H230.2c-2.7 0-4.8-2.2-4.8-4.8 0-2.7 2.2-4.8 4.8-4.8h145.4c2.7 0 4.8 2.2 4.8 4.8 0 2.6-2.1 4.8-4.8 4.8zM418.9 245.9H230.2c-2.7 0-4.8-2.2-4.8-4.8 0-2.7 2.2-4.8 4.8-4.8h188.7c2.7 0 4.8 2.2 4.8 4.8 0 2.7-2.2 4.8-4.8 4.8z"/><path class="st0" d="M586.5 435.2h-373c-16.6 0-30.1-13.5-30.1-30.1v-56.7c0-16.6 13.5-30.1 30.1-30.1h373c16.6 0 30.1 13.5 30.1 30.1v56.7c0 16.6-13.5 30.1-30.1 30.1z"/><path class="st1" d="M453.6 356.4H230.2c-2.7 0-4.8-2.2-4.8-4.8 0-2.7 2.2-4.8 4.8-4.8h223.4c2.7 0 4.8 2.2 4.8 4.8 0 2.6-2.2 4.8-4.8 4.8zM375.6 377.9H230.2c-2.7 0-4.8-2.2-4.8-4.8 0-2.7 2.2-4.8 4.8-4.8h145.4c2.7 0 4.8 2.2 4.8 4.8 0 2.7-2.1 4.8-4.8 4.8zM418.9 399.5H230.2c-2.7 0-4.8-2.2-4.8-4.8 0-2.7 2.2-4.8 4.8-4.8h188.7c2.7 0 4.8 2.2 4.8 4.8 0 2.6-2.2 4.8-4.8 4.8z"/></svg>