<svg version="1.1" id="Calque_1" xmlns="http://www.w3.org/2000/svg" x="0" y="0" viewBox="0 0 800 600" style="enable-background:new 0 0 800 600" xml:space="preserve"><style>.st0{fill:#fff;stroke:#671cc9;stroke-width:5;stroke-miterlimit:10}.st1{fill:#efefef}</style><path id="XMLID_3_" class="st0" d="M473.5 418.4h-147c-21.8 0-39.5-17.7-39.5-39.5s17.7-39.5 39.5-39.5h147c21.8 0 39.5 17.7 39.5 39.5s-17.7 39.5-39.5 39.5z"/><path class="st0" d="M408.1 287.2h105.2c1.9 0 3.4-1.5 3.4-3.4v-98.7c0-1.9-1.5-3.4-3.4-3.4H286.6c-1.9 0-3.4 1.5-3.4 3.4v98.7c0 1.9 1.5 3.4 3.4 3.4h106l8.4 8.9 7.1-8.9z"/><path class="st1" d="M302.9 211.4h136.9v17H302.9zM302.9 239.8H479v17H302.9z"/></svg>