<svg version="1.1" id="Calque_1" xmlns="http://www.w3.org/2000/svg" x="0" y="0" viewBox="-399 -106 800 600" style="enable-background:new -399 -106 800 600" xml:space="preserve"><style>.st0{fill:#fff}</style><path class="st0" d="M-84 52c.5.8.8 1.9.8 3.3 0 2.6-.6 4.7-1.9 6.2-6.6 8.1-13.6 12.1-21.1 12.1-6.5 0-11.6-2.5-15.5-7.5-3.9-5-5.8-12.2-5.8-21.5 0-2.3.1-4.5.3-6.8-4.4.8-9.2 1.4-14.4 1.8-3.5.3-5.8.4-7.1.5-1.3 6.8-3.2 15.1-5.6 25-1.4 5.8-4.1 8.7-8 8.7-4.3 0-6.4-1.9-6.4-5.8 0-.9.2-2.1.5-3.6 2.3-9.1 4.1-16.9 5.4-23.2l-4.8.2c-2.2 0-3.8-.4-4.8-1.1-1-.8-1.5-2-1.5-3.8 0-2.2.6-3.8 1.9-4.9 1.3-1 3.4-1.6 6.3-1.8l5.3-.2c1.7-9.4 2.6-16.6 2.6-21.5 0-3.1-.5-5.3-1.4-6.4-.9-1.1-2.2-1.7-3.7-1.7-4.7 0-9.9 3.9-15.8 11.7-.9 1.1-1.8 1.7-2.9 1.7-.9 0-1.7-.4-2.4-1.3s-1-2-1-3.3c0-2.1.8-4.3 2.5-6.6 2.9-4.1 6.6-7.4 11.1-10 4.5-2.6 9-4 13.6-4 4.3 0 7.7 1.5 10 4.5 2.4 3 3.6 7.6 3.6 13.8 0 5.5-.8 13-2.4 22.5l9.8-.5c4.2-.2 7.8-.5 10.8-1 1.2-7.3 3-14.2 5.5-20.6 2.5-6.4 5.5-11.6 9.2-15.6 3.7-4 7.8-6 12.3-6 3.3 0 6 1.3 7.9 4 1.9 2.6 2.9 6.1 2.9 10.4 0 16.5-8.4 28-25.3 34.4-.2 2.7-.3 5.4-.3 8.3 0 7 .9 12 2.6 14.9 1.7 2.9 4.2 4.4 7.3 4.4 2.7 0 5.2-.7 7.5-2.2 2.3-1.4 4.8-3.9 7.7-7.3.8-.9 1.7-1.4 2.7-1.4.8 0 1.5.5 2 1.2zm-20.2-53.9c-1.6 2.7-3.2 6.3-4.7 10.9-1.5 4.6-2.6 9.6-3.5 15.1 5.3-2.2 9.3-5.3 11.8-9.4 2.5-4.1 3.8-9.3 3.8-15.7 0-1.5-.3-2.7-.8-3.6-.5-.9-1.2-1.3-2-1.3-1.5 0-3 1.4-4.6 4zM-31.8 52c.5.8.8 1.9.8 3.3 0 2.7-.6 4.7-1.9 6.2-2.5 3-5.9 5.8-10.4 8.3-4.5 2.5-9.3 3.8-14.5 3.8-7 0-12.4-1.9-16.3-5.7-3.9-3.8-5.8-9-5.8-15.6 0-4.6 1-8.9 2.9-12.8 1.9-4 4.6-7.1 8-9.5 3.4-2.3 7.3-3.5 11.7-3.5 3.9 0 7 1.1 9.3 3.5 2.3 2.3 3.5 5.4 3.5 9.3 0 4.6-1.7 8.5-5 11.8-3.3 3.3-8.9 5.9-16.8 7.9 1.7 3.1 4.8 4.6 9.5 4.6 3 0 6.4-1 10.3-3.1 3.8-2.1 7.2-4.9 10-8.3.8-.9 1.7-1.4 2.7-1.4.9 0 1.5.5 2 1.2zm-33.5-11.4C-67 43.5-67.8 47-67.8 51v.2c3.9-.9 7-2.3 9.3-4.2 2.3-1.9 3.4-4 3.4-6.5 0-1.3-.4-2.3-1.1-3-.7-.8-1.6-1.2-2.8-1.2-2.5 0-4.5 1.5-6.3 4.3z"/><path class="st0" d="M-37.2 69.1c-2.5-3-3.7-6.9-3.7-11.8 0-5.3 1.2-10.4 3.7-15.2 2.5-4.8 5.8-8.6 9.8-11.5 4.1-2.9 8.5-4.3 13-4.3 1.5 0 2.5.3 3 .8.5.6.9 1.6 1.3 3.1 1.4-.3 2.9-.4 4.4-.4 3.3 0 4.9 1.2 4.9 3.5 0 1.4-.5 4.7-1.5 10-1.5 7.7-2.3 13-2.3 16 0 1 .3 1.8.8 2.4.5.6 1.2.9 2 .9 1.3 0 2.8-.8 4.6-2.5 1.8-1.6 4.2-4.3 7.3-7.9.8-.9 1.7-1.4 2.7-1.4.9 0 1.6.4 2.1 1.2s.8 1.9.8 3.3c0 2.7-.6 4.7-1.9 6.2-2.7 3.4-5.6 6.3-8.7 8.6-3.1 2.3-6 3.5-8.9 3.5-2.2 0-4.2-.8-6-2.3-1.8-1.5-3.2-3.5-4.1-6.1-3.5 5.6-7.8 8.4-13.1 8.4-4.4 0-7.7-1.5-10.2-4.5zm17.7-8.2c1.3-1.7 2.3-4 2.9-6.9l3.7-18.4c-2.8.1-5.4 1.1-7.8 3.2-2.4 2-4.3 4.7-5.7 8-1.4 3.3-2.1 6.9-2.1 10.6 0 2.1.4 3.6 1.3 4.6.8 1 2 1.5 3.5 1.5s2.9-.8 4.2-2.6z"/><path class="st0" d="M66.2 52c.5.8.8 1.9.8 3.3 0 2.7-.6 4.7-1.9 6.2-2.7 3.3-5.7 6.2-9 8.5-3.3 2.4-6.5 3.5-9.7 3.5-5.1 0-8.9-3-11.6-8.9-2.8 3.5-5.3 5.9-7.4 7.1-2.1 1.2-4.5 1.8-7.3 1.8-4.1 0-7.4-1.5-10-4.5-2.6-3-4-7-4-11.8 0-5.3 1.1-10.3 3.4-14.9s5.4-8.3 9.3-11.2c4-2.9 8.4-4.6 13.3-5.1 1.3-12.9 3.7-24 7.3-33.2C43-16.4 47.7-21 53.5-21c2.9 0 5.3 1.3 7.1 3.9 1.9 2.6 2.9 6.5 2.9 11.8C63.5 2.3 61.7 11 58 21s-8.6 20.3-14.7 30.8c.3 3.9.8 6.6 1.8 8.3.9 1.7 2 2.5 3.5 2.5 1.8 0 3.6-.8 5.5-2.4 1.9-1.6 4.4-4.3 7.5-8 .8-.9 1.7-1.4 2.7-1.4.8 0 1.4.5 1.9 1.2zM27.4 62c1.3-1 2.9-3 4.8-5.8-.7-3.6-1-7.6-1-12.1 0-1.6.1-4.2.2-7.8-3.7 1.1-6.7 3.6-9.1 7.3-2.4 3.8-3.7 8-3.7 12.6 0 4.9 1.7 7.3 5 7.3 1.3 0 2.5-.5 3.8-1.5zM48.6-4.3C47.3.2 46.3 6.1 45.3 13.4c-.9 7.3-1.5 14.9-2 22.8C50.9 19.9 54.6 6.8 54.6-3.1c0-2.5-.2-4.5-.7-5.9-.4-1.4-.9-2.1-1.5-2.1-1.3 0-2.5 2.3-3.8 6.8z"/><path class="st0" d="M61.7 69c-2-3.1-3-7.1-3-12.2 0-3 .4-6.8 1.1-11.5.8-4.7 1.8-9.1 3-13.2.6-2.1 1.4-3.6 2.4-4.4 1-.8 2.6-1.2 4.8-1.2 3.4 0 5.1 1.1 5.1 3.4 0 1.7-.6 5.5-1.9 11.6-1.6 7.3-2.4 12.3-2.4 14.9 0 2 .3 3.5.8 4.6.5 1.1 1.4 1.6 2.7 1.6 1.2 0 2.7-.8 4.5-2.5 1.8-1.7 4.2-4.3 7.2-7.9.8-.9 1.7-1.4 2.7-1.4.9 0 1.5.4 2 1.2s.8 1.9.8 3.3c0 2.7-.6 4.7-1.9 6.2-6.6 8.1-12.8 12.1-18.5 12.1-4.2 0-7.4-1.5-9.4-4.6zm4-51c-1.4-1.3-2.1-3.1-2.1-5.5 0-2.3.9-4.3 2.8-5.9 1.8-1.6 4.1-2.3 6.8-2.3 2.5 0 4.5.6 6 1.8 1.5 1.2 2.3 2.9 2.3 5.1 0 2.7-.9 4.8-2.6 6.3-1.7 1.6-4 2.3-6.9 2.3-2.8.1-4.9-.5-6.3-1.8z"/><path class="st0" d="M85.2 69.6c-1-2.7-1.5-6.9-1.5-12.8 0-8.7 1.2-16.9 3.7-24.7.6-1.9 1.6-3.3 3-4.3 1.4-.9 3.3-1.3 5.8-1.3 1.3 0 2.3.2 2.8.5s.8 1 .8 1.9c0 1.1-.5 3.5-1.5 7.2-.7 2.7-1.2 5-1.6 7-.4 2-.7 4.5-1 7.4 2.2-5.7 4.7-10.4 7.4-14 2.7-3.6 5.4-6.2 8-7.7 2.6-1.5 5.1-2.3 7.3-2.3 4.3 0 6.5 2.2 6.5 6.5 0 2.6-.7 7.3-2.2 14.1-1.3 5.8-1.9 9.6-1.9 11.5 0 2.7 1 4 2.9 4 1.3 0 2.9-.8 4.8-2.5 1.8-1.6 4.3-4.3 7.3-7.9.8-.9 1.7-1.4 2.7-1.4.9 0 1.5.4 2 1.2s.8 1.9.8 3.3c0 2.7-.6 4.7-1.9 6.2-2.9 3.5-5.9 6.4-9.3 8.7-3.3 2.3-7 3.4-11.3 3.4-3.4 0-6-1-7.7-3-1.7-2-2.6-4.8-2.6-8.5 0-1.9.5-5.2 1.4-10 .9-4.2 1.3-7.1 1.3-8.7 0-1.1-.4-1.6-1.1-1.6-.9 0-2.1 1.1-3.7 3.3-1.6 2.2-3.2 5.2-4.8 8.9-1.6 3.7-3 7.5-4 11.6-.7 3.1-1.6 5.3-2.5 6.4-1 1.1-2.5 1.6-4.5 1.6-2.5 0-4.3-1.3-5.4-4z"/><path class="st0" d="M186.3 52.3c.5.8.8 1.9.8 3.1 0 1.5-.2 2.7-.7 3.6-.5.9-1.2 1.6-2.2 2.3-5.7 3.9-9.9 6.7-12.6 8.6l-6.4 4.3c-2.5 13.8-5.9 24.6-10 32.5-4.1 7.9-9.3 11.8-15.7 11.8-3.4 0-6.2-1-8.3-3.1-2.1-2.1-3.2-4.9-3.2-8.3 0-4.7 1.9-9.8 5.6-15.3 3.7-5.4 10.7-12.1 21-20.1l.6-3.9c-1.1 1.8-2.6 3.2-4.5 4.1-1.8 1-3.6 1.5-5.5 1.5-4.1 0-7.4-1.5-9.9-4.5s-3.7-6.9-3.7-11.8c0-5.3 1.2-10.4 3.7-15.2 2.5-4.8 5.8-8.6 9.8-11.5 4.1-2.9 8.5-4.3 13-4.3 1.5 0 2.5.3 3 .8.5.6.9 1.6 1.3 3.1 1.3-.3 2.7-.4 4.4-.4 1.7 0 2.8.3 3.5.8s1 1.5 1 3c0 .8 0 1.4-.1 1.9-.3 2.1-1.1 7.3-2.5 15.7-.3 1.6-.5 3.4-.9 5.3-.3 1.9-.6 3.9-.9 6 5.1-4 10.1-7.5 14.8-10.6.9-.5 1.6-.8 2.3-.8 1.2.1 1.8.6 2.3 1.4zm-40 50.6c2.1-4 4.1-10.4 6-19.1-5.1 4.4-8.8 8.4-11.1 11.9-2.3 3.5-3.4 6.6-3.4 9.3 0 1.1.2 2.1.7 2.8.4.7 1.2 1.1 2.2 1.1 1.7 0 3.5-2 5.6-6zm7.1-42.1c1.4-1.9 2.4-4.5 3-8l3.2-17.1c-2.7.1-5.3 1.1-7.6 3.2-2.3 2-4.2 4.7-5.6 8-1.4 3.3-2.1 6.9-2.1 10.6 0 2.1.4 3.6 1.3 4.6.8 1 2 1.5 3.5 1.5 1.4-.1 2.9-1 4.3-2.8zM-57.3 182.1c.3.5.5 1.3.5 2.3 0 1.8-.4 3.2-1.3 4.2-4.5 5.5-9.3 8.3-14.5 8.3-4.4 0-8-1.7-10.6-5.1-2.6-3.4-4-8.3-4-14.7 0-1.6.1-3.1.2-4.7-3 .5-6.3 1-9.9 1.2-2.4.2-4 .3-4.9.3-.9 4.7-2.2 10.4-3.8 17.1-1 4-2.8 6-5.5 6-2.9 0-4.4-1.3-4.4-4 0-.6.1-1.4.3-2.5 1.6-6.3 2.8-11.6 3.7-15.9l-3.3.1c-1.5 0-2.6-.3-3.3-.8-.7-.5-1-1.4-1-2.6 0-1.5.4-2.6 1.3-3.3.9-.7 2.3-1.1 4.3-1.2l3.6-.1c1.2-6.4 1.8-11.3 1.8-14.7 0-2.1-.3-3.6-1-4.4-.6-.8-1.5-1.2-2.5-1.2-3.2 0-6.8 2.7-10.8 8-.6.8-1.3 1.2-2 1.2-.6 0-1.2-.3-1.6-.9-.5-.6-.7-1.3-.7-2.3 0-1.4.6-2.9 1.7-4.5 2-2.8 4.5-5.1 7.6-6.9 3.1-1.8 6.2-2.7 9.3-2.7 3 0 5.3 1 6.9 3 1.6 2 2.4 5.2 2.4 9.5 0 3.8-.5 8.9-1.6 15.4l6.7-.3c2.9-.1 5.3-.4 7.4-.7.8-5 2.1-9.7 3.8-14.1 1.7-4.4 3.8-7.9 6.3-10.7 2.5-2.7 5.3-4.1 8.4-4.1 2.3 0 4.1.9 5.4 2.7 1.3 1.8 2 4.2 2 7.1 0 11.3-5.8 19.2-17.3 23.6-.1 1.8-.2 3.7-.2 5.7 0 4.8.6 8.2 1.8 10.2 1.2 2 2.9 3 5 3 1.9 0 3.6-.5 5.1-1.5 1.6-1 3.3-2.7 5.3-5 .5-.6 1.2-1 1.8-1 .8.2 1.3.4 1.6 1zm-13.8-36.9c-1.1 1.8-2.2 4.3-3.2 7.5s-1.8 6.6-2.4 10.3c3.7-1.5 6.3-3.7 8.1-6.4 1.7-2.8 2.6-6.4 2.6-10.8 0-1-.2-1.9-.5-2.5-.4-.6-.8-.9-1.4-.9-1 0-2.1.9-3.2 2.8zM-21.4 182.1c.3.5.5 1.3.5 2.3 0 1.8-.4 3.2-1.3 4.2-1.7 2.1-4.1 4-7.2 5.7-3.1 1.7-6.4 2.6-9.9 2.6-4.8 0-8.5-1.3-11.2-3.9-2.6-2.6-4-6.2-4-10.7 0-3.2.7-6.1 2-8.8 1.3-2.7 3.2-4.9 5.5-6.5 2.4-1.6 5-2.4 8-2.4 2.6 0 4.8.8 6.4 2.4 1.6 1.6 2.4 3.7 2.4 6.4 0 3.2-1.1 5.9-3.4 8.1-2.3 2.3-6.1 4.1-11.5 5.4 1.1 2.1 3.3 3.2 6.5 3.2 2.1 0 4.4-.7 7-2.2 2.6-1.4 4.9-3.3 6.8-5.7.5-.6 1.2-1 1.8-1 .8.1 1.2.3 1.6.9zm-23-7.8c-1.2 2-1.7 4.3-1.7 7.1v.1c2.7-.6 4.8-1.6 6.4-2.9 1.6-1.3 2.3-2.8 2.3-4.5 0-.9-.2-1.6-.7-2.1-.5-.5-1.1-.8-2-.8-1.7.1-3.1 1.1-4.3 3.1z"/><path class="st0" d="M-25.2 193.8c-1.7-2.1-2.5-4.7-2.5-8.1 0-3.7.8-7.1 2.5-10.4 1.7-3.3 3.9-5.9 6.7-7.9 2.8-2 5.8-3 8.9-3 1 0 1.7.2 2 .6.3.4.6 1.1.9 2.1 1-.2 2-.3 3-.3 2.2 0 3.4.8 3.4 2.4 0 1-.3 3.2-1 6.9-1.1 5.3-1.6 8.9-1.6 11 0 .7.2 1.2.5 1.6.3.4.8.6 1.3.6.9 0 1.9-.6 3.2-1.7 1.2-1.1 2.9-2.9 5-5.4.5-.6 1.2-1 1.8-1 .6 0 1.1.3 1.4.8.3.5.5 1.3.5 2.3 0 1.8-.4 3.2-1.3 4.2-1.9 2.3-3.9 4.3-6 5.9-2.1 1.6-4.1 2.4-6.1 2.4-1.5 0-2.9-.5-4.1-1.5-1.3-1-2.2-2.4-2.8-4.2-2.4 3.8-5.4 5.8-9 5.8-2.7 0-5-1-6.7-3.1zm12.2-5.6c.9-1.2 1.6-2.8 2-4.7l2.5-12.6c-1.9 0-3.7.8-5.3 2.2-1.6 1.4-2.9 3.2-3.9 5.5s-1.4 4.7-1.4 7.3c0 1.4.3 2.5.9 3.2.6.7 1.4 1 2.4 1 .9-.1 1.8-.7 2.8-1.9z"/><path class="st0" d="M45.7 182.1c.3.5.5 1.3.5 2.3 0 1.8-.4 3.2-1.3 4.2-1.9 2.3-3.9 4.2-6.2 5.9-2.2 1.6-4.5 2.4-6.6 2.4-3.5 0-6.1-2-7.9-6.1-1.9 2.4-3.6 4-5 4.9-1.4.8-3.1 1.2-5 1.2-2.8 0-5.1-1-6.9-3.1-1.8-2.1-2.7-4.8-2.7-8.1 0-3.7.8-7 2.3-10.2 1.6-3.1 3.7-5.7 6.4-7.7s5.8-3.2 9.1-3.5c.9-8.9 2.5-16.4 5-22.7 2.4-6.3 5.7-9.4 9.6-9.4 2 0 3.6.9 4.9 2.7 1.3 1.8 2 4.5 2 8.1 0 5.1-1.3 11.1-3.8 17.9-2.5 6.9-5.9 13.9-10.1 21.1.2 2.6.6 4.5 1.2 5.7.6 1.1 1.4 1.7 2.4 1.7 1.2 0 2.5-.5 3.8-1.6 1.3-1.1 3-2.9 5.1-5.5.5-.6 1.2-1 1.8-1 .6 0 1.1.2 1.4.8zm-26.6 6.8c.9-.7 2-2 3.3-3.9-.5-2.5-.7-5.2-.7-8.3 0-1.1 0-2.9.1-5.3-2.5.8-4.6 2.5-6.3 5-1.7 2.6-2.5 5.4-2.5 8.6 0 3.3 1.1 5 3.4 5 .9 0 1.8-.4 2.7-1.1zm14.5-45.4c-.9 3.1-1.6 7.1-2.2 12.1-.6 5-1.1 10.2-1.3 15.6 5.1-11.1 7.7-20.1 7.7-26.9 0-1.7-.1-3.1-.4-4-.3-1-.7-1.4-1.1-1.4-1 0-1.8 1.5-2.7 4.6z"/><path class="st0" d="M42.6 193.7c-1.3-2.1-2-4.9-2-8.4 0-2.1.3-4.7.8-7.9s1.2-6.2 2-9c.4-1.5 1-2.5 1.6-3 .7-.5 1.8-.8 3.3-.8 2.3 0 3.5.8 3.5 2.3 0 1.1-.4 3.8-1.3 7.9-1.1 5-1.6 8.4-1.6 10.2 0 1.4.2 2.4.5 3.2.4.7 1 1.1 1.8 1.1s1.8-.6 3.1-1.7c1.2-1.1 2.9-2.9 4.9-5.4.5-.6 1.2-1 1.8-1 .6 0 1.1.3 1.4.8.3.5.5 1.3.5 2.3 0 1.8-.4 3.2-1.3 4.2-4.5 5.5-8.7 8.3-12.7 8.3-2.8.1-4.9-1-6.3-3.1zm2.7-34.9c-1-.9-1.4-2.1-1.4-3.7s.6-2.9 1.9-4c1.3-1.1 2.8-1.6 4.7-1.6 1.7 0 3.1.4 4.1 1.2 1 .8 1.6 2 1.6 3.5 0 1.8-.6 3.3-1.8 4.4-1.2 1.1-2.8 1.6-4.7 1.6-2-.1-3.4-.5-4.4-1.4z"/><path class="st0" d="M58.7 194.1c-.7-1.8-1.1-4.7-1.1-8.8 0-5.9.8-11.6 2.5-16.9.4-1.3 1.1-2.3 2-2.9.9-.6 2.2-.9 3.9-.9.9 0 1.6.1 1.9.3.4.2.5.7.5 1.3 0 .7-.3 2.4-1 4.9-.5 1.8-.8 3.4-1.1 4.8-.3 1.4-.5 3.1-.7 5.1 1.5-3.9 3.2-7.1 5.1-9.6 1.9-2.5 3.7-4.2 5.5-5.3 1.8-1 3.5-1.6 5-1.6 3 0 4.5 1.5 4.5 4.5 0 1.8-.5 5-1.5 9.7-.9 4-1.3 6.6-1.3 7.9 0 1.8.7 2.7 2 2.7.9 0 2-.6 3.3-1.7 1.3-1.1 2.9-2.9 5-5.4.5-.6 1.2-1 1.8-1 .6 0 1.1.3 1.4.8.3.5.5 1.3.5 2.3 0 1.8-.4 3.2-1.3 4.2-2 2.4-4.1 4.4-6.3 6-2.3 1.6-4.8 2.3-7.7 2.3-2.3 0-4.1-.7-5.3-2-1.2-1.3-1.8-3.3-1.8-5.9 0-1.3.3-3.6 1-6.9.6-2.9.9-4.9.9-6 0-.7-.3-1.1-.8-1.1-.6 0-1.4.8-2.5 2.3-1.1 1.5-2.2 3.6-3.3 6.1-1.1 2.5-2 5.2-2.7 7.9-.5 2.1-1.1 3.6-1.7 4.4-.7.8-1.7 1.1-3.1 1.1-1.7.2-2.9-.7-3.6-2.6z"/><path class="st0" d="M128 182.3c.3.6.5 1.3.5 2.2 0 1.1-.2 1.9-.5 2.5-.3.6-.8 1.1-1.5 1.6-3.9 2.6-6.8 4.6-8.6 5.9l-4.4 2.9c-1.7 9.5-4 16.9-6.8 22.3s-6.4 8.1-10.7 8.1c-2.3 0-4.2-.7-5.7-2.2s-2.2-3.3-2.2-5.7c0-3.2 1.3-6.7 3.8-10.4 2.6-3.7 7.4-8.3 14.4-13.7l.4-2.7c-.8 1.2-1.8 2.2-3 2.8-1.3.7-2.5 1-3.7 1-2.8 0-5.1-1-6.8-3.1-1.7-2.1-2.5-4.7-2.5-8.1 0-3.7.8-7.1 2.5-10.4 1.7-3.3 3.9-5.9 6.7-7.9 2.8-2 5.8-3 8.9-3 1 0 1.7.2 2 .6.3.4.6 1.1.9 2.1.9-.2 1.9-.3 3-.3s2 .2 2.4.5c.5.3.7 1 .7 2 0 .5 0 1-.1 1.3-.2 1.4-.8 5-1.7 10.8-.2 1.1-.4 2.3-.6 3.6-.2 1.3-.4 2.7-.7 4.1 3.5-2.7 6.9-5.2 10.1-7.3.6-.4 1.1-.5 1.6-.5.8.1 1.2.4 1.6 1zM100.6 217c1.4-2.7 2.8-7.1 4.1-13.1-3.5 3-6.1 5.7-7.6 8.2-1.6 2.4-2.3 4.5-2.3 6.4 0 .8.1 1.4.4 1.9.3.5.8.8 1.5.8 1.1-.1 2.4-1.5 3.9-4.2zm4.8-29c1-1.3 1.6-3.1 2.1-5.5l2.2-11.7c-1.9 0-3.6.8-5.2 2.2-1.6 1.4-2.9 3.2-3.8 5.5-1 2.3-1.4 4.7-1.4 7.3 0 1.4.3 2.5.9 3.2s1.4 1 2.4 1c.8 0 1.8-.7 2.8-2zM-35.3 298.3c.2.3.3.8.3 1.4 0 1.1-.3 2-.8 2.6-2.8 3.4-5.8 5.2-9 5.2-2.8 0-5-1.1-6.6-3.2-1.7-2.1-2.5-5.2-2.5-9.2 0-1 0-1.9.1-2.9-1.9.3-3.9.6-6.2.8-1.5.1-2.5.2-3 .2-.6 2.9-1.4 6.5-2.4 10.7-.6 2.5-1.7 3.7-3.4 3.7-1.8 0-2.7-.8-2.7-2.5 0-.4.1-.9.2-1.5 1-3.9 1.7-7.2 2.3-9.9l-2.1.1c-.9 0-1.6-.2-2.1-.5-.4-.3-.6-.9-.6-1.6 0-.9.3-1.6.8-2.1.5-.4 1.4-.7 2.7-.7l2.3-.1c.7-4 1.1-7.1 1.1-9.2 0-1.3-.2-2.3-.6-2.7-.4-.5-.9-.7-1.6-.7-2 0-4.2 1.7-6.8 5-.4.5-.8.7-1.2.7-.4 0-.7-.2-1-.6-.3-.4-.4-.8-.4-1.4 0-.9.4-1.8 1.1-2.8 1.3-1.7 2.8-3.2 4.7-4.3 1.9-1.1 3.8-1.7 5.8-1.7 1.9 0 3.3.6 4.3 1.9 1 1.3 1.5 3.2 1.5 5.9 0 2.4-.3 5.6-1 9.6l4.2-.2c1.8-.1 3.3-.2 4.6-.4.5-3.1 1.3-6.1 2.4-8.8 1.1-2.7 2.4-5 3.9-6.7 1.6-1.7 3.3-2.6 5.3-2.6 1.4 0 2.5.6 3.4 1.7.8 1.1 1.2 2.6 1.2 4.4 0 7.1-3.6 12-10.8 14.7-.1 1.1-.1 2.3-.1 3.5 0 3 .4 5.1 1.1 6.4.7 1.3 1.8 1.9 3.1 1.9 1.2 0 2.2-.3 3.2-.9 1-.6 2.1-1.7 3.3-3.1.3-.4.7-.6 1.2-.6.2 0 .5.2.8.5zm-8.7-23c-.7 1.1-1.4 2.7-2 4.7-.6 2-1.1 4.1-1.5 6.5 2.3-.9 4-2.3 5-4 1.1-1.7 1.6-4 1.6-6.7 0-.7-.1-1.2-.3-1.5-.2-.4-.5-.6-.9-.6-.5-.1-1.2.4-1.9 1.6zM-13 298.3c.2.3.3.8.3 1.4 0 1.1-.3 2-.8 2.6-1.1 1.3-2.5 2.5-4.5 3.5-1.9 1.1-4 1.6-6.2 1.6-3 0-5.3-.8-7-2.4-1.7-1.6-2.5-3.8-2.5-6.7 0-2 .4-3.8 1.2-5.5.8-1.7 2-3 3.4-4s3.1-1.5 5-1.5c1.7 0 3 .5 4 1.5s1.5 2.3 1.5 4c0 2-.7 3.7-2.1 5.1-1.4 1.4-3.8 2.5-7.2 3.4.7 1.3 2.1 2 4.1 2 1.3 0 2.7-.4 4.4-1.3 1.6-.9 3.1-2.1 4.3-3.5.3-.4.7-.6 1.2-.6.4-.1.7.1.9.4zm-14.3-4.9c-.7 1.2-1.1 2.7-1.1 4.4v.1c1.7-.4 3-1 4-1.8s1.5-1.7 1.5-2.8c0-.5-.1-1-.4-1.3-.3-.3-.7-.5-1.2-.5-1.2.1-2.1.7-2.8 1.9z"/><path class="st0" d="M-15.3 305.6c-1.1-1.3-1.6-3-1.6-5 0-2.3.5-4.4 1.6-6.5 1.1-2 2.5-3.7 4.2-4.9s3.6-1.9 5.6-1.9c.6 0 1 .1 1.3.4s.4.7.5 1.3c.6-.1 1.2-.2 1.9-.2 1.4 0 2.1.5 2.1 1.5 0 .6-.2 2-.6 4.3-.7 3.3-1 5.6-1 6.8 0 .4.1.8.3 1 .2.3.5.4.8.4.5 0 1.2-.3 2-1s1.8-1.8 3.1-3.4c.3-.4.7-.6 1.2-.6.4 0 .7.2.9.5.2.3.3.8.3 1.4 0 1.1-.3 2-.8 2.6-1.3 1.5-2.5 2.7-3.8 3.7-1.3 1-2.6 1.5-3.8 1.5-.9 0-1.8-.3-2.6-1-.8-.6-1.4-1.5-1.8-2.6-1.5 2.4-3.3 3.6-5.6 3.6-1.8 0-3.2-.6-4.2-1.9zm7.5-3.5c.6-.7 1-1.7 1.2-2.9l1.6-7.9c-1.2 0-2.3.5-3.3 1.3-1 .9-1.8 2-2.4 3.4-.6 1.4-.9 2.9-.9 4.5 0 .9.2 1.5.5 2 .4.4.8.6 1.5.6.7.1 1.3-.3 1.8-1z"/><path class="st0" d="M28.9 298.3c.2.3.3.8.3 1.4 0 1.1-.3 2-.8 2.6-1.2 1.4-2.5 2.6-3.8 3.7-1.4 1-2.8 1.5-4.1 1.5-2.2 0-3.8-1.3-5-3.8-1.2 1.5-2.2 2.5-3.1 3-.9.5-1.9.8-3.1.8-1.7 0-3.2-.6-4.3-1.9-1.1-1.3-1.7-3-1.7-5.1 0-2.3.5-4.4 1.5-6.3 1-2 2.3-3.5 4-4.8s3.6-2 5.7-2.2c.5-5.5 1.6-10.2 3.1-14.2 1.5-3.9 3.5-5.9 6-5.9 1.2 0 2.2.6 3.1 1.7s1.2 2.8 1.2 5c0 3.2-.8 6.9-2.3 11.2s-3.7 8.7-6.3 13.2c.1 1.7.4 2.8.7 3.5.4.7.9 1.1 1.5 1.1.8 0 1.6-.3 2.3-1 .8-.7 1.9-1.8 3.2-3.4.3-.4.7-.6 1.2-.6.2 0 .5.2.7.5zm-16.6 4.3c.5-.4 1.2-1.3 2.1-2.5-.3-1.5-.4-3.3-.4-5.2 0-.7 0-1.8.1-3.3-1.6.5-2.9 1.5-3.9 3.1s-1.6 3.4-1.6 5.4c0 2.1.7 3.1 2.1 3.1.5 0 1-.2 1.6-.6zm9-28.4c-.5 1.9-1 4.4-1.4 7.5s-.7 6.4-.8 9.7c3.2-7 4.8-12.5 4.8-16.8 0-1.1-.1-1.9-.3-2.5-.2-.6-.4-.9-.7-.9-.5.1-1 1.1-1.6 3z"/><path class="st0" d="M27 305.6c-.8-1.3-1.3-3-1.3-5.2 0-1.3.2-2.9.5-4.9.3-2 .7-3.9 1.3-5.6.3-.9.6-1.5 1-1.9s1.1-.5 2.1-.5c1.5 0 2.2.5 2.2 1.5 0 .7-.3 2.4-.8 5-.7 3.1-1 5.3-1 6.4 0 .9.1 1.5.3 2 .2.5.6.7 1.2.7.5 0 1.2-.4 1.9-1.1.8-.7 1.8-1.8 3.1-3.4.3-.4.7-.6 1.2-.6.4 0 .7.2.9.5.2.3.3.8.3 1.4 0 1.1-.3 2-.8 2.6-2.8 3.4-5.5 5.2-7.9 5.2-2.1-.2-3.4-.8-4.2-2.1zm1.6-21.8c-.6-.6-.9-1.3-.9-2.3s.4-1.8 1.2-2.5c.8-.7 1.8-1 2.9-1 1.1 0 1.9.3 2.6.8.7.5 1 1.2 1 2.2 0 1.1-.4 2-1.1 2.7s-1.7 1-2.9 1c-1.3-.1-2.2-.4-2.8-.9z"/><path class="st0" d="M37 305.8c-.4-1.1-.7-3-.7-5.5 0-3.7.5-7.2 1.6-10.6.3-.8.7-1.4 1.3-1.8s1.4-.6 2.5-.6c.6 0 1 .1 1.2.2.2.1.3.4.3.8 0 .5-.2 1.5-.6 3.1-.3 1.1-.5 2.1-.7 3s-.3 1.9-.4 3.2c.9-2.4 2-4.4 3.2-6 1.2-1.5 2.3-2.6 3.4-3.3 1.1-.7 2.2-1 3.1-1 1.9 0 2.8.9 2.8 2.8 0 1.1-.3 3.1-.9 6-.5 2.5-.8 4.1-.8 4.9 0 1.1.4 1.7 1.2 1.7.6 0 1.2-.3 2-1s1.8-1.8 3.1-3.4c.3-.4.7-.6 1.2-.6.4 0 .7.2.9.5.2.3.3.8.3 1.4 0 1.1-.3 2-.8 2.6-1.2 1.5-2.5 2.8-4 3.7-1.4 1-3 1.5-4.8 1.5-1.5 0-2.6-.4-3.3-1.3-.7-.8-1.1-2.1-1.1-3.7 0-.8.2-2.2.6-4.3.4-1.8.6-3 .6-3.7 0-.5-.2-.7-.5-.7-.4 0-.9.5-1.6 1.4-.7 1-1.4 2.2-2.1 3.8-.7 1.6-1.3 3.2-1.7 5-.3 1.3-.7 2.2-1.1 2.7-.4.5-1.1.7-1.9.7-1.1.2-1.9-.3-2.3-1.5z"/><path class="st0" d="M80.2 298.4c.2.4.3.8.3 1.3 0 .7-.1 1.2-.3 1.5s-.5.7-.9 1c-2.5 1.7-4.2 2.9-5.4 3.7l-2.7 1.8c-1.1 5.9-2.5 10.5-4.3 13.9s-4 5.1-6.7 5.1c-1.5 0-2.6-.4-3.5-1.3-.9-.9-1.4-2.1-1.4-3.5 0-2 .8-4.2 2.4-6.5 1.6-2.3 4.6-5.2 9-8.6l.3-1.7c-.5.8-1.1 1.4-1.9 1.8-.8.4-1.6.6-2.3.6-1.8 0-3.2-.6-4.2-1.9-1.1-1.3-1.6-3-1.6-5 0-2.3.5-4.4 1.6-6.5 1.1-2 2.5-3.7 4.2-4.9s3.6-1.9 5.6-1.9c.6 0 1 .1 1.3.4.2.2.4.7.5 1.3.5-.1 1.2-.2 1.9-.2s1.2.1 1.5.3c.3.2.4.6.4 1.3v.8c-.1.9-.5 3.1-1.1 6.7-.1.7-.2 1.4-.4 2.2-.1.8-.3 1.7-.4 2.6 2.2-1.7 4.3-3.2 6.3-4.5.4-.2.7-.3 1-.3.3 0 .6.2.8.5zm-17.1 21.7c.9-1.7 1.8-4.4 2.6-8.2-2.2 1.9-3.8 3.6-4.7 5.1-1 1.5-1.5 2.8-1.5 4 0 .5.1.9.3 1.2.2.3.5.5.9.5.7-.1 1.5-.9 2.4-2.6zm3-18.1c.6-.8 1-1.9 1.3-3.4l1.4-7.3c-1.2 0-2.3.5-3.2 1.3-1 .9-1.8 2-2.4 3.4-.6 1.4-.9 2.9-.9 4.5 0 .9.2 1.5.5 2 .4.4.8.6 1.5.6.6.1 1.2-.3 1.8-1.1zM-19.5 392.7c.1.2.2.5.2.8 0 .6-.2 1.1-.5 1.5-1.6 1.9-3.3 2.9-5.1 2.9-1.6 0-2.8-.6-3.7-1.8s-1.4-2.9-1.4-5.2c0-.5 0-1.1.1-1.6-1.1.2-2.2.3-3.5.4-.8.1-1.4.1-1.7.1-.3 1.6-.8 3.7-1.4 6-.3 1.4-1 2.1-1.9 2.1-1 0-1.5-.5-1.5-1.4 0-.2 0-.5.1-.9.5-2.2 1-4.1 1.3-5.6h-1.2c-.5 0-.9-.1-1.2-.3s-.4-.5-.4-.9c0-.5.2-.9.5-1.2.3-.2.8-.4 1.5-.4h1.3c.4-2.3.6-4 .6-5.2 0-.8-.1-1.3-.3-1.5s-.5-.4-.9-.4c-1.1 0-2.4.9-3.8 2.8-.2.3-.4.4-.7.4-.2 0-.4-.1-.6-.3-.2-.2-.2-.5-.2-.8 0-.5.2-1 .6-1.6.7-1 1.6-1.8 2.7-2.4 1.1-.6 2.2-1 3.3-1 1 0 1.9.4 2.4 1.1.6.7.9 1.8.9 3.3 0 1.3-.2 3.1-.6 5.4l2.4-.1c1 0 1.9-.1 2.6-.2.3-1.8.7-3.4 1.3-5 .6-1.5 1.3-2.8 2.2-3.8.9-1 1.9-1.4 3-1.4.8 0 1.4.3 1.9 1s.7 1.5.7 2.5c0 4-2 6.8-6.1 8.3 0 .6-.1 1.3-.1 2 0 1.7.2 2.9.6 3.6.4.7 1 1.1 1.8 1.1.7 0 1.3-.2 1.8-.5s1.2-.9 1.9-1.8c.2-.2.4-.3.7-.3.1 0 .3.1.4.3zm-4.9-13c-.4.6-.8 1.5-1.1 2.6-.4 1.1-.6 2.3-.8 3.6 1.3-.5 2.2-1.3 2.8-2.3.6-1 .9-2.2.9-3.8 0-.4-.1-.7-.2-.9-.1-.2-.3-.3-.5-.3-.3.2-.7.5-1.1 1.1zM-6.9 392.7c.1.2.2.5.2.8 0 .6-.2 1.1-.5 1.5-.6.7-1.4 1.4-2.5 2s-2.2.9-3.5.9c-1.7 0-3-.5-3.9-1.4-.9-.9-1.4-2.2-1.4-3.8 0-1.1.2-2.1.7-3.1.5-1 1.1-1.7 1.9-2.3.8-.6 1.8-.8 2.8-.8.9 0 1.7.3 2.2.8.6.6.8 1.3.8 2.3 0 1.1-.4 2.1-1.2 2.9-.8.8-2.1 1.4-4 1.9.4.7 1.2 1.1 2.3 1.1.7 0 1.5-.3 2.5-.8.9-.5 1.7-1.2 2.4-2 .2-.2.4-.3.7-.3.2 0 .4.1.5.3zM-15 390c-.4.7-.6 1.5-.6 2.5.9-.2 1.7-.6 2.2-1s.8-1 .8-1.6c0-.3-.1-.5-.3-.7-.2-.2-.4-.3-.7-.3-.5 0-1 .4-1.4 1.1z"/><path class="st0" d="M-8.2 396.9c-.6-.7-.9-1.7-.9-2.8 0-1.3.3-2.5.9-3.7.6-1.1 1.4-2.1 2.4-2.8 1-.7 2-1 3.1-1 .4 0 .6.1.7.2s.2.4.3.7c.3-.1.7-.1 1.1-.1.8 0 1.2.3 1.2.8 0 .3-.1 1.1-.4 2.4-.4 1.8-.6 3.1-.6 3.9 0 .2.1.4.2.6s.3.2.5.2c.3 0 .7-.2 1.1-.6.4-.4 1-1 1.8-1.9.2-.2.4-.3.7-.3.2 0 .4.1.5.3s.2.5.2.8c0 .6-.2 1.1-.5 1.5-.7.8-1.4 1.5-2.1 2.1-.7.6-1.5.8-2.1.8-.5 0-1-.2-1.5-.5-.4-.4-.8-.9-1-1.5-.8 1.4-1.9 2-3.2 2-1-.1-1.8-.4-2.4-1.1zm4.3-2c.3-.4.6-1 .7-1.7l.9-4.4c-.7 0-1.3.3-1.9.8-.6.5-1 1.1-1.4 1.9-.3.8-.5 1.7-.5 2.6 0 .5.1.9.3 1.1.2.2.5.4.8.4.4-.1.7-.3 1.1-.7z"/><path class="st0" d="M16.7 392.7c.1.2.2.5.2.8 0 .6-.2 1.1-.5 1.5-.7.8-1.4 1.5-2.2 2.1-.8.6-1.6.9-2.3.9-1.2 0-2.2-.7-2.8-2.1-.7.9-1.3 1.4-1.8 1.7-.5.3-1.1.4-1.8.4-1 0-1.8-.4-2.4-1.1-.6-.7-1-1.7-1-2.9 0-1.3.3-2.5.8-3.6s1.3-2 2.3-2.7c1-.7 2-1.1 3.2-1.2.3-3.1.9-5.8 1.7-8 .9-2.2 2-3.3 3.4-3.3.7 0 1.3.3 1.7.9.5.6.7 1.6.7 2.8 0 1.8-.4 3.9-1.3 6.3s-2.1 4.9-3.5 7.4c.1.9.2 1.6.4 2 .2.4.5.6.8.6.4 0 .9-.2 1.3-.6.5-.4 1.1-1 1.8-1.9.2-.2.4-.3.7-.3.4 0 .5.1.6.3zm-9.3 2.4c.3-.2.7-.7 1.2-1.4-.2-.9-.2-1.8-.2-2.9v-1.9c-.9.3-1.6.9-2.2 1.8-.6.9-.9 1.9-.9 3 0 1.2.4 1.8 1.2 1.8.3 0 .6-.1.9-.4zm5.1-16c-.3 1.1-.6 2.5-.8 4.3-.2 1.8-.4 3.6-.5 5.5 1.8-3.9 2.7-7.1 2.7-9.5 0-.6-.1-1.1-.2-1.4-.1-.3-.2-.5-.4-.5s-.5.6-.8 1.6z"/><path class="st0" d="M15.7 396.8c-.5-.7-.7-1.7-.7-2.9 0-.7.1-1.7.3-2.8s.4-2.2.7-3.2c.1-.5.3-.9.6-1.1.2-.2.6-.3 1.2-.3.8 0 1.2.3 1.2.8 0 .4-.2 1.3-.5 2.8-.4 1.8-.6 3-.6 3.6 0 .5.1.9.2 1.1.1.3.3.4.7.4.3 0 .7-.2 1.1-.6s1-1 1.7-1.9c.2-.2.4-.3.7-.3.2 0 .4.1.5.3.1.2.2.5.2.8 0 .6-.2 1.1-.5 1.5-1.6 1.9-3.1 2.9-4.5 2.9-1.1 0-1.9-.3-2.3-1.1zm.9-12.3c-.3-.3-.5-.8-.5-1.3 0-.6.2-1 .7-1.4s1-.6 1.7-.6c.6 0 1.1.1 1.4.4.4.3.6.7.6 1.2 0 .6-.2 1.2-.6 1.5-.4.4-1 .6-1.7.6-.7.1-1.3-.1-1.6-.4z"/><path class="st0" d="M21.3 397c-.3-.6-.4-1.7-.4-3.1 0-2.1.3-4.1.9-6 .1-.5.4-.8.7-1 .3-.2.8-.3 1.4-.3.3 0 .5 0 .7.1.1.1.2.2.2.5s-.1.8-.4 1.7c-.2.6-.3 1.2-.4 1.7-.1.5-.2 1.1-.2 1.8.5-1.4 1.1-2.5 1.8-3.4.7-.9 1.3-1.5 1.9-1.9.6-.4 1.2-.6 1.7-.6 1 0 1.6.5 1.6 1.6 0 .6-.2 1.8-.5 3.4-.3 1.4-.5 2.3-.5 2.8 0 .6.2 1 .7 1 .3 0 .7-.2 1.1-.6.4-.4 1-1 1.8-1.9.2-.2.4-.3.7-.3.2 0 .4.1.5.3.1.2.2.5.2.8 0 .6-.2 1.1-.5 1.5-.7.9-1.4 1.6-2.2 2.1s-1.7.8-2.7.8c-.8 0-1.4-.2-1.9-.7s-.6-1.2-.6-2.1c0-.5.1-1.3.3-2.4.2-1 .3-1.7.3-2.1 0-.3-.1-.4-.3-.4-.2 0-.5.3-.9.8s-.8 1.3-1.2 2.1c-.4.9-.7 1.8-1 2.8-.2.8-.4 1.3-.6 1.5s-.6.4-1.1.4c-.4 0-.8-.3-1.1-.9z"/><path class="st0" d="M45.7 392.8c.1.2.2.5.2.8 0 .4-.1.7-.2.9s-.3.4-.5.6c-1.4.9-2.4 1.6-3 2.1l-1.5 1c-.6 3.3-1.4 5.9-2.4 7.9s-2.2 2.9-3.8 2.9c-.8 0-1.5-.3-2-.8s-.8-1.2-.8-2c0-1.1.4-2.4 1.4-3.7.9-1.3 2.6-2.9 5.1-4.8l.1-.9c-.3.4-.6.8-1.1 1-.4.2-.9.4-1.3.4-1 0-1.8-.4-2.4-1.1-.6-.7-.9-1.7-.9-2.8 0-1.3.3-2.5.9-3.7.6-1.1 1.4-2.1 2.4-2.8 1-.7 2-1 3.1-1 .4 0 .6.1.7.2.1.1.2.4.3.7.3-.1.7-.1 1.1-.1.4 0 .7.1.9.2.2.1.3.4.3.7v.5c-.1.5-.3 1.8-.6 3.8-.1.4-.1.8-.2 1.3s-.1.9-.2 1.5c1.2-1 2.4-1.8 3.6-2.6.2-.1.4-.2.6-.2-.1-.3.1-.2.2 0zM36.1 405c.5-1 1-2.5 1.5-4.6-1.2 1.1-2.1 2-2.7 2.9s-.8 1.6-.8 2.2c0 .3.1.5.2.7s.3.3.5.3c.3 0 .8-.5 1.3-1.5zm1.7-10.2c.3-.5.6-1.1.7-1.9l.8-4.1c-.7 0-1.3.3-1.8.8-.6.5-1 1.1-1.4 1.9-.3.8-.5 1.7-.5 2.6 0 .5.1.9.3 1.1s.5.4.8.4c.4-.1.7-.3 1.1-.8z"/></svg>