<svg version="1.1" id="Calque_1" xmlns="http://www.w3.org/2000/svg" x="0" y="0" viewBox="-599 686 800 600" style="enable-background:new -599 686 800 600" xml:space="preserve"><style>.st2{fill:#f6f6f6}.st3{fill:#fff;stroke:#7f00ff;stroke-width:8;stroke-miterlimit:10}</style><path d="M26.6 1194.1h-451.2c-5.6 0-10.2-4.6-10.2-10.2V788.1c0-5.6 4.6-10.2 10.2-10.2H26.5c5.6 0 10.2 4.6 10.2 10.2v395.8c.1 5.6-4.5 10.2-10.1 10.2z" style="fill:#fff"/><path d="M26.6 1194.1h-451.2c-5.6 0-10.2-4.6-10.2-10.2V788.1c0-5.6 4.6-10.2 10.2-10.2H26.5c5.6 0 10.2 4.6 10.2 10.2v395.8c.1 5.6-4.5 10.2-10.1 10.2z" style="fill:none;stroke:#7f00ff;stroke-width:5;stroke-miterlimit:10;stroke-dasharray:12.0409,12.0409"/><path id="XMLID_1_" class="st2" d="M-356 1085.4h314.1v16.8H-356z"/><path id="XMLID_6_" class="st2" d="M-301.5 1114.4h205.1v16.8h-205.1z"/><g id="XMLID_71_"><g id="XMLID_74_"><path id="XMLID_77_" class="st3" d="m-133.6 917.6-2.9-1.2.8-3.3c5.3-21.7-7.8-38.1-22.5-45.1-9.8-4.5-20.9-5.3-31.1-2-9 2.9-16.8 9-22.9 17.6l-2 2.9-2.9-1.6c-4.9-2.5-9.8-4.1-15.2-4.1-4.9 0-9.4 1.2-13.5 3.3-3.3 2-14.7 9.4-13.9 27v2.9l-2.9.8c-20.1 6.1-28.3 23.4-27 37.7 1.2 16 13.9 33.2 38.9 33.2 41 0 108.6-.4 109.8-.4 16 0 29.5-11.9 32.4-28.7 1.5-12.4-3.8-29.6-25.1-39z"/><path id="XMLID_75_" class="st3" d="M-108.6 956.9c-2.5 16.4-16 28.7-32.4 28.7-1.2 0-68.8.4-109.8.4-25 0-37.7-17.2-38.9-33.2-1.2-14.3 7-31.5 27-37.7l2.9-.8v-2.9c-.8-17.2 10.2-25 13.9-27 4.1-2.5 9-3.3 13.5-3.3 5.3 0 10.2 1.2 15.2 4.1l2.9 1.6 2-2.9c6.1-8.6 13.9-14.3 22.9-17.6 10.2-3.3 21.3-2.9 31.1 2 15.2 7 27.9 23.8 22.5 45.1l-.8 3.3 2.9 1.2c21.4 9.1 26.7 26.3 25.1 39z"/></g><path id="XMLID_72_" class="st3" d="M-232.3 880.7c-4.9 0-9.4 1.2-13.5 3.3-3.3 2-14.7 9.4-13.9 27v2.9l-2.9.8c-20.1 6.1-28.3 23.4-27 37.7 1.2 16 13.9 33.2 38.9 33.2 41 0 108.6-.4 109.8-.4 16 0 29.5-11.9 32.4-28.7 2-13.1-3.3-30.3-24.6-39.7l-2.9-1.2.8-3.3c5.3-21.7-7.8-38.1-22.5-45.1-9.8-4.5-20.9-5.3-31.1-2-9 2.9-16.8 9-22.9 17.6l-2 2.9-2.9-1.6c-5.5-2.2-10.8-3.4-15.7-3.4z"/></g><path style="fill:#fff;stroke:#7f00ff;stroke-width:5;stroke-linecap:round;stroke-linejoin:round;stroke-miterlimit:10" d="m-213.7 1029.5 14.7-18.6 16 18.6"/><path style="fill:none;stroke:#7f00ff;stroke-width:5;stroke-linecap:round;stroke-linejoin:round;stroke-miterlimit:10" d="M-198.3 1016.9v34"/></svg>