<svg version="1.1" id="Calque_1" xmlns="http://www.w3.org/2000/svg" x="0" y="0" viewBox="0 0 800 600" style="enable-background:new 0 0 800 600" xml:space="preserve"><style>.st0{fill:#323236;stroke:#797bf2;stroke-width:2;stroke-miterlimit:10}</style><path class="st0" d="M291.3 223.3H166.8c-6.6 0-12-5.4-12-12v-81c0-6.6 5.4-12 12-12h124.5c6.6 0 12 5.4 12 12v81c0 6.6-5.3 12-12 12z"/><circle class="st0" cx="229.1" cy="170.7" r="26.6"/><path class="st0" d="m242.2 169-15.5-8.9c-1.3-.8-2.9.2-2.9 1.7v17.9c0 1.5 1.7 2.5 2.9 1.7l15.5-8.9c1.3-.8 1.3-2.7 0-3.5zM462.3 223.3H337.7c-6.6 0-12-5.4-12-12v-81c0-6.6 5.4-12 12-12h124.5c6.6 0 12 5.4 12 12v81c.1 6.6-5.3 12-11.9 12z"/><circle class="st0" cx="400" cy="170.7" r="26.6"/><path class="st0" d="m413.1 169-15.5-8.9c-1.3-.8-2.9.2-2.9 1.7v17.9c0 1.5 1.7 2.5 2.9 1.7l15.5-8.9c1.3-.8 1.3-2.7 0-3.5zM633.2 223.3H508.7c-6.6 0-12-5.4-12-12v-81c0-6.6 5.4-12 12-12h124.5c6.6 0 12 5.4 12 12v81c0 6.6-5.4 12-12 12z"/><circle class="st0" cx="570.9" cy="170.7" r="26.6"/><path class="st0" d="m584.1 169-15.5-8.9c-1.3-.8-2.9.2-2.9 1.7v17.9c0 1.5 1.7 2.5 2.9 1.7l15.5-8.9c1.3-.8 1.3-2.7 0-3.5zM291.3 352.5H166.8c-6.6 0-12-5.4-12-12v-81c0-6.6 5.4-12 12-12h124.5c6.6 0 12 5.4 12 12v81c0 6.6-5.3 12-12 12z"/><circle class="st0" cx="229.1" cy="300" r="26.6"/><path class="st0" d="m242.2 298.3-15.5-8.9c-1.3-.8-2.9.2-2.9 1.7V309c0 1.5 1.7 2.5 2.9 1.7l15.5-8.9c1.3-.8 1.3-2.8 0-3.5zM462.3 352.5H337.7c-6.6 0-12-5.4-12-12v-81c0-6.6 5.4-12 12-12h124.5c6.6 0 12 5.4 12 12v81c.1 6.6-5.3 12-11.9 12z"/><circle class="st0" cx="400" cy="300" r="26.6"/><path class="st0" d="m413.1 298.3-15.5-8.9c-1.3-.8-2.9.2-2.9 1.7V309c0 1.5 1.7 2.5 2.9 1.7l15.5-8.9c1.3-.8 1.3-2.8 0-3.5zM633.2 352.5H508.7c-6.6 0-12-5.4-12-12v-81c0-6.6 5.4-12 12-12h124.5c6.6 0 12 5.4 12 12v81c0 6.6-5.4 12-12 12z"/><circle class="st0" cx="570.9" cy="300" r="26.6"/><path class="st0" d="m584.1 298.3-15.5-8.9c-1.3-.8-2.9.2-2.9 1.7V309c0 1.5 1.7 2.5 2.9 1.7l15.5-8.9c1.3-.8 1.3-2.8 0-3.5zM291.3 481.8H166.8c-6.6 0-12-5.4-12-12v-81c0-6.6 5.4-12 12-12h124.5c6.6 0 12 5.4 12 12v81c0 6.6-5.3 12-12 12z"/><circle class="st0" cx="229.1" cy="429.3" r="26.6"/><path class="st0" d="m242.2 427.5-15.5-8.9c-1.3-.8-2.9.2-2.9 1.7v17.9c0 1.5 1.7 2.5 2.9 1.7l15.5-8.9c1.3-.8 1.3-2.7 0-3.5zM462.3 481.8H337.7c-6.6 0-12-5.4-12-12v-81c0-6.6 5.4-12 12-12h124.5c6.6 0 12 5.4 12 12v81c.1 6.6-5.3 12-11.9 12z"/><circle class="st0" cx="400" cy="429.3" r="26.6"/><path class="st0" d="m413.1 427.5-15.5-8.9c-1.3-.8-2.9.2-2.9 1.7v17.9c0 1.5 1.7 2.5 2.9 1.7l15.5-8.9c1.3-.8 1.3-2.7 0-3.5zM633.2 481.8H508.7c-6.6 0-12-5.4-12-12v-81c0-6.6 5.4-12 12-12h124.5c6.6 0 12 5.4 12 12v81c0 6.6-5.4 12-12 12z"/><circle class="st0" cx="570.9" cy="429.3" r="26.6"/><path class="st0" d="m584.1 427.5-15.5-8.9c-1.3-.8-2.9.2-2.9 1.7v17.9c0 1.5 1.7 2.5 2.9 1.7l15.5-8.9c1.3-.8 1.3-2.7 0-3.5z"/></svg>