<svg version="1.1" id="Calque_1" xmlns="http://www.w3.org/2000/svg" x="0" y="0" viewBox="0 0 800 600" style="enable-background:new 0 0 800 600" xml:space="preserve"><style>.st0{fill:#323236;stroke:#797bf2;stroke-width:5;stroke-miterlimit:10}</style><path class="st0" d="M603 471.2H197c-21.6 0-39.1-17.5-39.1-39.1V167.9c0-21.6 17.5-39.1 39.1-39.1h406c21.6 0 39.1 17.5 39.1 39.1v264.2c0 21.6-17.5 39.1-39.1 39.1z"/><circle class="st0" cx="400" cy="300" r="86.7"/><path class="st0" d="m442.8 294.4-50.5-29.1c-4.3-2.5-9.6.6-9.6 5.6v58.4c0 5 5.4 8.1 9.6 5.6l50.5-29.1c4.3-2.7 4.3-8.9 0-11.4z"/></svg>