<svg version="1.1" id="OBJECTS" xmlns="http://www.w3.org/2000/svg" xmlns:xlink="http://www.w3.org/1999/xlink" x="0" y="0" viewBox="0 0 430.3 299.1" style="enable-background:new 0 0 430.3 299.1" xml:space="preserve"><style>.st0{fill:#9092ec}.st1{opacity:.7}.st2,.st3{fill:#d7d9ff}.st3{opacity:.7}.st4{fill:#2a284c}.st5{fill:#91616a}.st6{fill:#fff}.st7{fill:#d98e9d}.st8{fill:#dfc0cd}.st9{fill:#444bcc}.st10{fill:#ead18c}.st12{fill:#e37d75}.st13{fill:#f9e898}.st15{fill:#f4d0e0}.st17{fill:#ea9e42}</style><path class="st0" d="M59.2 59.3c-1.8-.7-3.7-.9-5.6-.7-1.7 1.6-4.7 2-7 2.2-2.3-2.3-5.2-4.4-8.1-5.9-1.9-1-4.2-2-4.8-4.1-1-3.3-6.7-4.7-10.1-3.9-4.3-1.2-9.2.3-12.7 3.2-1.5 1.2.2 4.3 1.5 5.8s3 3.1 2.6 5c-1.6.8-3.8.9-5.5.8-1.1 0-2.1-.3-3.1.1-.9.2-1.7 1.3-1.4 2.2-.7 1.2-1.5 1.8-.7 3 .6.9 1.7 1.6 1.7 2.7 0 .9-.7 1.6-1.5 1.9-.8.4-1.6.6-2.4 1C-.2 74-.2 77.3.1 80c1.5 1.8 1.7 4.9 1 7.1-.3.8-.7 1.7-.4 2.6.3 1 1.5 1.3 2.4 1.6 2.1.5 4.6 1 6.2-.4 4.4-3.6 11.2-1.8 16.8-.5 1.9.4 3.9 1.1 5.1 2.8 1.5 2.2.9 5.2-.4 7.5-1.2 2.3-3 4.4-3.8 6.9-.7 2.4-.5 4.9-.3 7.3.3 3 .6 6.2 2.3 8.7 1.8 2.6 3 6.5 2.8 9.6-.1 2.5-1 5.1-.8 7.6.4 4.6 4.4 8.1 8.5 10.3 4.3 2.3 7.9 6.3 9.4 10.9.7 2.3 1 4.8 1.6 7.1 1.1 4.1 3.6 7.7 6.9 10.4 2.4 1.9 6.3 2.6 9.4 3.1 1.6.3 3.3.5 4.4 1.6.5.5.9 1.1 1.5 1.6 2.5 2.5 7.2 1.5 9.7 3.9.7.6 1.1 1.5 1.7 2.2 1.6 1.9 4.1 3 6.5 2.8-.6 1.9 1.7 4.1 1 5.9-.6 1.5-2.2 2.1-3.4 3.2-2 1.9-2.3 5-1.5 7.6.9 2.6 2.7 4.7 4.5 6.8 3.4 3.8 7.5 5.6 11.2 9.1 3.4 3.2 4.2 8.5 3.4 13.1-.8 4.6-2.8 9-4.2 13.5-2.7 8.4-3.4 17.6-.8 26 2.6 8.4 8.7 15.9 16.8 19.2.9.4 2-.3 2.7-1 .7-.7.8-1.9.3-2.7-1.5-2.7-4.1-5-6-7.4-.6-.8-1.2-1.6-1.2-2.6.1-1.1 1-1.9 1.7-2.7 1-1.3 1.6-2.9 1.6-4.6 0-1.6-.9-3.1-.9-4.6.1-1.5.9-3.2 2.4-3.7.7-.2 1.4-.2 2.1-.5 2.1-.9 1.8-4.2 3.3-5.9.7-.8 1.8-1.2 2.7-1.7 4.1-2 7.5-5.9 7.9-10.4.3-3.6-1-8 1.7-10.4 2.5-2.2 6.4-.7 9.7-1.3 1.3-.2 2.2-1.5 2.9-2.7.6-1.2.7-2.6.5-4-.3-1.7-1-3.3-.8-4.9.2-2.3 2.1-4.2 3.5-6 1.7-2.2 2.9-4.8 3.5-7.5.7-3.1-1.3-6.8-4.1-8.3-2.8-1.5-6.1-1.6-9.3-1.7-3.2-.1-6.6-.3-9.2-2.2-2.4-1.7-3.7-4.4-5.6-6.7-3.2-3.8-7.8-5.9-12.3-8-1.7-.8-3.6-1.6-5.3-1-.7.2-1.3.7-2 .8-2 .4-3.6-1.5-5.3-2.4-3.7-2-8.9.9-9.3 5-1.9.7-5.4.1-6.5-1.6-.8-1.2-1.1-2.9-2.4-3.5-.7-.3-1.6-.2-2.2-.7-1-.8-.2-2.4 0-3.6.3-2-1.2-3.9-3.1-4.8-1.8-.9-4-1-6-1-2-.1-4.2-.2-6-1.1-3.6-1.8-5-6.6-3.5-10.3 1.6-3.7 5.6-5.9 9.6-5.8 3.9.1 8 3 8 6.9 0 1 1.6 1.1 2.5.6.9-.5 1.3-1.5 1.5-2.4.2-1 .2-2 .5-2.9.7-2.2 2.9-3.8 5.2-3.8 2.4 0 4.1-2.4 5.8-4 1.7-1.7 2.7-4.2 2-6.5-.4-1.2-1.2-2.5-.8-3.7.3-1 1.3-1.5 2.2-1.9 2.6-1.1 5.4-1.6 8.2-1.5 2.4.1 3.7-1.4 4.9-3.5.9-1.5 1.3-3.4 2.7-4.4 2.1-1.5 5.1-.2 7.7-.4 3.8-.3 6.8-4.6 5.7-8.2-.5-1.8-1.7-3.2-2.7-4.7-1.4-2.1-2.3-4.5-2.8-6.9-.5-2.3-.6-4.8-2.1-6.5-2.3.1-5.2 0-7.2 1.1-.4-2.4-.9-4.9-2.3-6.8-1.5-1.9-4.3-3-6.4-1.8-2 1.2-2.5 4-2.1 6.3.4 2.3 1.3 4.6 1.3 6.9-.1 2.4-1.7 5-4.1 4.9-1.2 0-2.3-.8-3.2-1.7-1.2-1.2-2.2-2.8-3.8-3.6-1.2-.6-2.6-.6-3.9-.9-4.5-1-7.6-6.1-6.3-10.6 1.2-4.4 6.5-7.2 10.9-5.8 5.3-1.9 7.4-8.6 5.3-13.8-2.1-5.2-7.8-8.4-13.4-8.7-1.6-.1-3.3.1-4.9-.3-4.5-1.1-6.9-6.1-10.8-8.6-2.3-1.6-8.2 0-11.1-1.1zM130.2 43.2c-1.7 2.6.2 6.2 2.7 8.1 2.5 1.9 5.7 3 7.7 5.5 3.2 3.9 2.3 9.8.5 14.5s-4.2 9.6-3.6 14.6c.3 2.4 1.3 4.6 2.5 6.7 1.2 2 2.9 3.9 5.2 4.4 2.9.7 5.8-1 7.9-3 2.2-2 4.1-4.4 6.7-5.7 3.8-1.9 8.7-1.2 12-3.8 4.1-3.3 3.5-9.5 4.6-14.7 1.9-8.6 9.4-15 12.3-23.3.6-1.6 1-3.3.9-5.1-.1-5.6-4.8-10.2-10.1-12.1-6.5-2.3-13.1-.9-19.7-1.2-3.6-.2-7.6-1.7-11.1-.2-5.4 2.3-3.8 7.6-7.4 10.8-3 2.9-8.7.8-11.1 4.5zM276.3 77c-3.1-3-8.2-.1-11.4 2.8-3.2 2.9-6.4 5.7-9.6 8.6-2.4 2.2-5 4.4-8.2 4.9-3.2.5-7-1.5-7.1-4.7 2.2-2.1 6.5 1 8.5-1.2 1.8-2-.8-4.8-3.1-6.1-4.2-2.4-8.5-4.9-13.4-5.6-4.8-.7-10.3 1-12.8 5.1-2.1 3.6-1.7 8.2-3.9 11.8-1.3 2.2-3.5 3.8-5 6-1.5 2.1-2.1 5.3-.3 7.2 1.5 1.5 4 1.5 5.5 3 1.1 1.2 1.5 3.1 3 3.7 1.7.7 3.6-.9 4-2.7.4-1.8-.2-3.7-.5-5.5-.9-5.4 1.9-12.1 7.3-12.9 1.2 0 1.7 1.8 1.1 2.9-.6 1.1-1.6 1.9-2.2 3-1.1 2.1.2 5 2.4 5.6 2.4.6 6.3.1 6 2.5-.3 2.6-5.1.9-6.6 3-.9 1.2-.1 3-.1 4.5 0 3-3.3 4.9-6.3 5.2-3 .2-6-.7-9-.4-3 .3-6.2 2.4-6.1 5.4-4.1 1.9-8.4 3.5-12.8 4.7.2 3.2 6.3 3.5 6.3 6.8 0 1.9-2.4 3-4.4 2.8-1.9-.1-3.9-.9-5.8-.4-3.3.9-4.4 5.4-2.6 8.3 1.8 2.8 5.5 4 8.9 3.7 1.3-.1 2.8-.5 3.6-1.5.8-1 .9-2.4 1.2-3.6.8-2.8 3.1-5.1 5.9-5.7 1.6-.4 3.5-.4 4.4-1.8 3.6 2 6.2 5.8 6.6 9.9 1.2 1.5 3.8-.4 3.5-2.3-.3-1.9-1.9-3.2-3.2-4.6-1.3-1.4-2.4-3.5-1.4-5.1 6.2 1.8 11.2 7.2 12.6 13.5 2.2-.4 3.4-3.4 2.1-5.2.7-1.5 3.1-.6 3.8.8.7 1.5.6 3.3 1.7 4.6 2.9 3.8 10.8-.8 13.2 3.3 1.7 2.9-2.1 6.3-5.5 6.2-3.3-.1-6.4-2-9.7-2.3-3.7-.4-7.3 1.2-10.9 1.6-3.7.4-8.2-1-9-4.6-.2-1-.1-2-.6-2.9-.7-1.2-2.4-1.5-3.8-1.3-6.1.7-12.3 7-17.4 3.5-3.2 6.3-11.1 8.6-15.5 14.2-4.8 6-4.4 15.3.3 21.4 4.6 6.1 12.9 9 20.5 8 1.7-.2 3.6-.6 5.2.1s2.6 2.2 4 3.3c1.3 1.1 3.6 1.7 4.7.3-1.3 3.2-.9 6.9.9 9.8 2 3.1 5.7 5.5 5.6 9.2 0 1.9-1.1 3.6-1.7 5.4-2.4 8.4 7.5 15.2 9.1 23.8.4 2.3.4 5.1 2.4 6.4.9.6 2 .7 3.1.8 5.5.4 12.5-1.3 13.6-6.7.3-1.5.1-3.1.1-4.7.1-4.7 3-9.2 7.2-11.3 1.1-.6 2.4-1 3.3-1.9 2-2 1.6-5.3.5-7.9-1-2.6-2.5-5.2-2.2-8 .6-4.5 5.4-6.8 9-9.5 5.5-4 9.2-10.3 10.2-17-5 1.6-11.2 2.9-15-.7-1.3-1.3-2.1-2.9-2.9-4.6-2.4-5-4.7-9.9-7.1-14.9-.3-.7-.6-1.4-.4-2.1.7-1.8 3.5-.3 4.5 1.3 3.8 5.9 7.2 12 10.2 18.4 6.1-1.1 12-3.7 17-7.4 1.6-1.2 3.2-2.6 3.7-4.5s-.5-4.4-2.4-4.7c-.8-.1-1.5.1-2.3.1-4.6.5-8.6-3-11.7-6.6 2.1-2.3 5.8-1 8.7.3 5.1 2.3 10.4 4 15.9 4.9 1.4.2 2.8.4 4 1.1.9.4 1.6 1.1 2.3 1.7 6.3 5.8 11 13.4 13.4 21.7 2.4.5 4.1-2.4 4.3-4.9s-.1-5.3 1.7-7c1.4-1.4 3.7-1.5 4.9-3.1 1.5-1.9.7-5.1 2.5-6.8 2.3-2.1 5.9.5 7.1 3.3s1.6 6.3 4.2 8c1.4-.2 2.7-.4 4.1-.6 0 6.9 2.4 13.8 6.7 19.3 2.3-1.2 1.3-4.8-.2-7s-2.9-5.5-.8-7.1c2.9 0 4.2 4 7 4.7 2.8.7 5.3-2.6 4.8-5.5-.5-2.8-2.9-4.9-5.4-6.3-2.3-2.5 1-6.4 4.3-7 3.3-.6 6.9.4 9.9-1.1 3.6-1.8 4.8-6.5 4-10.4-.8-3.9-3.1-7.3-5-10.8-1.6-3-2.4-7.7.7-9 .8-.4 1.8-.3 2.7-.4 11.9-.5 21.8-13.1 19.4-24.8-.5-2.2-1.3-4.4-2.9-6-2.8-2.9-7.6-3.6-9.8-7-2.6-4.2.6-9.8 4.8-12.5 4.1-2.7 9.2-3.9 13.1-7 1 0 1.6-1 1.8-2.1.1-.6 0-1.3 0-1.9 0-1.8 1.3-3.5 3-4s3.7.2 4.7 1.8c1.2 1.9.7 4.3-.2 6.3-.9 2-2.1 4-2.3 6.1-.2 2.2 1 4.7 3.2 5 2.7.3 4.4-2.9 4.6-5.5.2-2.7-.3-5.6 1.1-7.9 2.2-3.4 8.2-4.2 8.4-8.3.1-3.3-4-5.2-4.8-8.4-.3-1.3 0-2.6.1-4 .5-4.9-1.7-10.1-5.6-13.1-3.9-3.1-9.3-4.1-14.1-2.5-1.5.5-3 1.3-4.6 1.7-2.3.6-4.7.4-7.1.3-4.3-.3-8.5-.6-12.8-.9-3.8-.3-7.9-.5-11.2 1.3-4.9 2.6-7.7 9.1-13.3 9.7-3.9.5-7.4-2.2-11.1-3.7-5.9-2.3-13.1-1.2-18 2.8-1.9-.9-1.3-3.7-1.9-5.7-.7-2.1-2.9-3.3-5.1-3.5-2.2-.2-4.3.5-6.4 1.1-4.5 1.5-9.6 3.9-10 8.6-.1 1.3.2 2.7-.4 3.9-.8 1.7-2.9 2.3-4.2 3.6-1.6 1.6-1.8 4-1.9 6.3-.1 2.2-.1 4.6-1.4 6.5-1.3 2-8.1 2.9-9.7 1.3zM359.7 206c1 1.5 2.7 2.4 4.4 3.1 2 .9 4.5 1.5 6.3.3 1.2-.8 5.4-6.6 5.7-7.8.6-2.4-.2-2.3-2.6-2.7-4-.9-18.3.6-13.8 7.1z"/><path class="st0" d="M345.6 205.2c5.5 10.1 16.9 16.7 28.4 16.6.8-.8-.4-2.1-1.4-2.5-2.9-1.2-6-1.8-9-2.9-3-1-5.9-2.6-7.7-5.2-.7-1.1-1.2-2.3-1.8-3.5-1.7-3.4-8.6-11.9-12.9-9.8 1.1 2.2 3 4.8 4.4 7.3zM375.7 228.7c-1.5 1.7-2.9 3.7-5 4.2-1.3.3-2.6 0-3.9.3-3.8.9-4.6 5.9-3.8 9.7.9 3.8 2.6 7.7 1.2 11.3-.3.7-.7 1.4-.7 2.2 0 .9.7 1.7 1.4 2.3 3.4 2.6 8.3.7 12.1-1.3 3.8-2 8.3-4.3 12.1-2.2 4 2.2 4.4 7.8 6.9 11.6 2.2 3.4 7 5.4 10.4 3.3 1.2-.7 2-1.8 2.8-2.9 1.7-2.2 3.4-4.5 5.1-6.7 2.3-2.9 4.6-6.1 5-9.8.8-7.1-5.5-12.8-11.2-17.2-.3-2.3-.6-4.6-1.8-6.6-2.3-4-7.1-4.4-5.8 1.2-3.7.1-6.7-5.4-10.9-5.9-4.8-.6-10.7 2.9-13.9 6.5z"/><g class="st1"><path class="st2" d="M190 4.3h-31c-1.3 0-2.4 1.1-2.4 2.4 0 1.3 1.1 2.4 2.4 2.4h31c1.3 0 2.4-1.1 2.4-2.4 0-1.3-1.1-2.4-2.4-2.4z"/><path class="st2" d="M202.3 0h-31c-1.3 0-2.4 1.1-2.4 2.4 0 1.3 1.1 2.4 2.4 2.4h31c1.3 0 2.4-1.1 2.4-2.4-.1-1.3-1.1-2.4-2.4-2.4zM211.5 8.9h-31c-1.3 0-2.4 1.1-2.4 2.4 0 1.3 1.1 2.4 2.4 2.4h31c1.3 0 2.4-1.1 2.4-2.4 0-1.3-1.1-2.4-2.4-2.4z"/></g><g class="st1"><path class="st2" d="M403.2 162.7h25.2c1.1 0 1.9-.9 1.9-1.9 0-1.1-.9-1.9-1.9-1.9h-25.2c-1.1 0-1.9.9-1.9 1.9 0 1.1.8 1.9 1.9 1.9z"/><path class="st2" d="M393.2 166.2h25.2c1.1 0 1.9-.9 1.9-1.9 0-1.1-.9-1.9-1.9-1.9h-25.2c-1.1 0-1.9.9-1.9 1.9 0 1.1.9 1.9 1.9 1.9zM385.7 159h25.2c1.1 0 1.9-.9 1.9-1.9 0-1.1-.9-1.9-1.9-1.9h-25.2c-1.1 0-1.9.9-1.9 1.9 0 1 .8 1.9 1.9 1.9z"/></g><g class="st1"><path class="st2" d="M309.8 268.3h-25.2c-1.1 0-1.9.9-1.9 1.9 0 1.1.9 1.9 1.9 1.9h25.2c1.1 0 1.9-.9 1.9-1.9 0-1-.9-1.9-1.9-1.9z"/><path class="st2" d="M319.7 264.8h-25.2c-1.1 0-1.9.9-1.9 1.9 0 1.1.9 1.9 1.9 1.9h25.2c1.1 0 1.9-.9 1.9-1.9 0-1-.8-1.9-1.9-1.9zM327.3 272.1h-25.2c-1.1 0-1.9.9-1.9 1.9 0 1.1.9 1.9 1.9 1.9h25.2c1.1 0 1.9-.9 1.9-1.9 0-1.1-.9-1.9-1.9-1.9z"/></g><g class="st1"><path class="st2" d="M108.5 2.9H83.3c-1.1 0-1.9.9-1.9 1.9 0 1.1.9 1.9 1.9 1.9h25.2c1.1 0 1.9-.9 1.9-1.9.1-1-.8-1.9-1.9-1.9zM101 6.7H75.8c-1.1 0-1.9.9-1.9 1.9s.9 1.9 1.9 1.9H101c1.1 0 1.9-.9 1.9-1.9s-.8-1.9-1.9-1.9z"/></g><path class="st3" d="M69.7 274.2H44.5c-1.1 0-1.9.9-1.9 1.9 0 1.1.9 1.9 1.9 1.9h25.2c1.1 0 1.9-.9 1.9-1.9 0-1-.8-1.9-1.9-1.9zM29.5 246H11.9c-1.1 0-1.9.9-1.9 1.9 0 1.1.9 1.9 1.9 1.9h17.6c1.1 0 1.9-.9 1.9-1.9 0-1.1-.8-1.9-1.9-1.9zM38.2 242.2H20.7c-1.1 0-1.9.9-1.9 1.9 0 1.1.9 1.9 1.9 1.9h17.6c1.1 0 1.9-.9 1.9-1.9 0-1.1-.9-1.9-2-1.9zM184.4 247.6h-17.6c-1.1 0-1.9.9-1.9 1.9 0 1.1.9 1.9 1.9 1.9h17.6c1.1 0 1.9-.9 1.9-1.9 0-1-.8-1.9-1.9-1.9zM180.7 251.4h-17.6c-1.1 0-1.9.9-1.9 1.9 0 1.1.9 1.9 1.9 1.9h17.6c1.1 0 1.9-.9 1.9-1.9 0-1-.9-1.9-1.9-1.9z"/><path class="st4" d="M55.3 97.8c0 6.9-5.6 12.5-12.5 12.5s-12.5-5.6-12.5-12.5 5.6-12.5 12.5-12.5 12.5 5.6 12.5 12.5z"/><path class="st4" d="M57.4 123.2c-.6-7.5-6.9-13.4-14.5-13.4-7.7 0-13.9 5.9-14.5 13.4h29z"/><circle transform="rotate(-40.043 42.84 100.097)" class="st5" cx="42.8" cy="100.1" r="8.7"/><path class="st5" d="M37.7 100.7c0 1.8-1.5 3.3-3.3 3.3-1.8 0-3.3-1.5-3.3-3.3 0-1.8 1.5-3.3 3.3-3.3 1.8-.1 3.3 1.4 3.3 3.3zM54.7 100.7c0 1.8-1.5 3.3-3.3 3.3-1.8 0-3.3-1.5-3.3-3.3 0-1.8 1.5-3.3 3.3-3.3 1.8-.1 3.3 1.4 3.3 3.3zM42.8 117.8c-1.3 0-2.3-1-2.3-2.3v-8.6H45v8.6c.1 1.2-.9 2.3-2.2 2.3z"/><path class="st6" d="M38.4 100.8v1.4c0 2.4 2 4.4 4.4 4.4 2.4 0 4.4-2 4.4-4.4v-1.4h-8.8z"/><path class="st4" d="M40.7 97.2c0 .5-.4 1-1 1-.5 0-1-.4-1-1 0-.5.4-1 1-1 .5 0 1 .5 1 1zM46.5 97.2c0 .5-.4 1-1 1-.5 0-1-.4-1-1 0-.5.4-1 1-1s1 .5 1 1z"/><path class="st7" d="M94 196.4c-.6-7.5-6.9-13.4-14.5-13.4-7.7 0-13.9 5.9-14.5 13.4h29z"/><path class="st4" d="M69.8 153.4c-2.7 1-4.1 3.9-3.1 6.6l4 11 9.7-3.5-4-11c-.9-2.7-3.9-4-6.6-3.1z"/><path class="st4" d="M90.2 167.2c0 6-4.8 10.8-10.8 10.8-6 0-10.8-4.8-10.8-10.8 0-6 4.8-10.8 10.8-10.8 5.9-.1 10.8 4.8 10.8 10.8z"/><circle transform="rotate(-22.657 79.347 170.135)" class="st8" cx="79.3" cy="170.1" r="10.8"/><path class="st8" d="M73 170.8c0 2.3-1.9 4.1-4.1 4.1-2.3 0-4.1-1.9-4.1-4.1 0-2.3 1.9-4.1 4.1-4.1 2.2 0 4.1 1.8 4.1 4.1zM94 170.8c0 2.3-1.9 4.1-4.1 4.1-2.3 0-4.1-1.9-4.1-4.1 0-2.3 1.9-4.1 4.1-4.1 2.2 0 4.1 1.8 4.1 4.1zM79.3 192c-1.5 0-2.8-1.3-2.8-2.8v-10.7h5.6v10.7c0 1.5-1.2 2.8-2.8 2.8z"/><path class="st6" d="M73.9 171.3v.4c0 3 2.5 5.5 5.5 5.5s5.5-2.5 5.5-5.5v-.4h-11z"/><path class="st9" d="M80.2 173c0 .5-.4.9-.9.9s-.9-.4-.9-.9.4-.9.9-.9.9.4.9.9z"/><path class="st4" d="M77.1 166.4c0 .6-.5 1.1-1.1 1.1-.6 0-1.1-.5-1.1-1.1 0-.6.5-1.1 1.1-1.1.6 0 1.1.5 1.1 1.1zM83.8 166.4c0 .6-.5 1.1-1.1 1.1-.6 0-1.1-.5-1.1-1.1 0-.6.5-1.1 1.1-1.1.6 0 1.1.5 1.1 1.1z"/><path class="st6" d="M79.3 176.2c-2.1 0-3.8-1.7-3.8-3.8v-.5h7.6v.5c.1 2.1-1.7 3.8-3.8 3.8z"/><path class="st10" d="M142.8 246c-.6-7.5-6.9-13.4-14.5-13.4-7.7 0-13.9 5.9-14.5 13.4h29z"/><path class="st4" d="M134.3 204.5c0 3.6-2.9 6.4-6.4 6.4-3.6 0-6.4-2.9-6.4-6.4 0-3.6 2.9-6.4 6.4-6.4 3.5 0 6.4 2.8 6.4 6.4z"/><circle class="st4" cx="127.9" cy="217.3" r="10.8"/><circle class="st7" cx="127.9" cy="219.6" r="10.8"/><path class="st7" d="M121.5 220.3c0 2.3-1.9 4.1-4.1 4.1-2.3 0-4.1-1.9-4.1-4.1 0-2.3 1.9-4.1 4.1-4.1 2.3 0 4.1 1.9 4.1 4.1zM142.5 220.3c0 2.3-1.9 4.1-4.1 4.1-2.3 0-4.1-1.9-4.1-4.1 0-2.3 1.9-4.1 4.1-4.1 2.3 0 4.1 1.9 4.1 4.1zM127.9 241.5c-1.5 0-2.8-1.3-2.8-2.8V228h5.6v10.7c0 1.5-1.3 2.8-2.8 2.8z"/><path class="st6" d="M122.4 221.5v.8c0 3 2.5 5.5 5.5 5.5s5.5-2.5 5.5-5.5v-.8h-11z"/><path class="st4" d="M125.2 216c0 .7-.5 1.2-1.2 1.2s-1.2-.5-1.2-1.2.5-1.2 1.2-1.2c.7.1 1.2.6 1.2 1.2zM132.4 216c0 .7-.5 1.2-1.2 1.2s-1.2-.5-1.2-1.2.5-1.2 1.2-1.2c.7.1 1.2.6 1.2 1.2z"/><circle transform="rotate(-78.1 366.013 149.21)" class="st8" cx="366" cy="149.2" r="11"/><path class="st10" d="M380.5 175.3c-.6-7.5-6.9-13.4-14.5-13.4-7.7 0-13.9 5.9-14.5 13.4h29z"/><path class="st8" d="M359.6 149.9c0 2.3-1.9 4.2-4.2 4.2-2.3 0-4.2-1.9-4.2-4.2 0-2.3 1.9-4.2 4.2-4.2 2.3 0 4.2 1.9 4.2 4.2zM380.9 149.9c0 2.3-1.9 4.2-4.2 4.2-2.3 0-4.2-1.9-4.2-4.2 0-2.3 1.9-4.2 4.2-4.2 2.3 0 4.2 1.9 4.2 4.2z"/><path class="st8" d="M376.7 151.8c.2-.8.3-1.7.3-2.6s-.1-1.8-.3-2.6v-.8c0-5.9-4.8-10.7-10.7-10.7-5.9 0-10.7 4.8-10.7 10.7v.8c-.2.8-.3 1.7-.3 2.6s.1 1.8.3 2.6v1.2h.4c1.6 4.2 5.6 7.1 10.3 7.1 4.7 0 8.7-3 10.3-7.1h.4v-1.2z"/><defs><path id="SVGID_1_" d="M376.7 151.8c.2-.8.3-1.7.3-2.6s-.1-1.8-.3-2.6v-.8c0-5.9-4.8-10.7-10.7-10.7-5.9 0-10.7 4.8-10.7 10.7v.8c-.2.8-.3 1.7-.3 2.6s.1 1.8.3 2.6v1.2h.4c1.6 4.2 5.6 7.1 10.3 7.1 4.7 0 8.7-3 10.3-7.1h.4v-1.2z"/></defs><clipPath id="SVGID_2_"><use xlink:href="#SVGID_1_" style="overflow:visible"/></clipPath><g style="clip-path:url(#SVGID_2_)"><path class="st4" d="M370 134.9c0 6.3-5.1 11.4-11.4 11.4-6.3 0-11.4-5.1-11.4-11.4 0-6.3 5.1-11.4 11.4-11.4 6.3 0 11.4 5.1 11.4 11.4z"/><circle transform="rotate(-13.344 380.332 134.87)" class="st4" cx="380.4" cy="134.9" r="11.4"/></g><path class="st8" d="M366 171.4c-1.6 0-2.8-1.3-2.8-2.8v-10.8h5.7v10.8c0 1.5-1.3 2.8-2.9 2.8z"/><circle class="st4" cx="362.3" cy="147.7" r="1.2"/><circle class="st4" cx="369.7" cy="147.7" r="1.2"/><path class="st6" d="M360.7 150.8v1.8c0 3 2.5 5.5 5.5 5.5s5.5-2.5 5.5-5.5v-1.8h-11z"/><path class="st12" d="M366.1 158c2.2 0 4.2-1.4 5-3.3-.9-.6-1.9-1-3.1-1-2.3 0-4.2 1.5-4.9 3.5 1 .5 2 .8 3 .8z"/><path class="st4" d="M391.7 229.2v13.3c0 5.9 4.8 10.7 10.7 10.7 5.9 0 10.7-4.8 10.7-10.7v-15.3l-21.4 2z"/><path class="st4" d="M413 228c0 6-4.8 10.8-10.8 10.8-6 0-10.8-4.8-10.8-10.8 0-6 4.8-10.8 10.8-10.8 6 0 10.8 4.8 10.8 10.8z"/><path class="st6" d="M416.5 256.2c-.6-7.5-6.9-13.4-14.5-13.4-7.7 0-13.9 5.9-14.5 13.4h29z"/><circle transform="rotate(-80.752 402.18 229.16)" class="st8" cx="402.2" cy="229.2" r="10.8"/><path class="st8" d="M395.8 229.9c0 2.3-1.9 4.1-4.1 4.1-2.3 0-4.1-1.9-4.1-4.1 0-2.3 1.9-4.1 4.1-4.1 2.3-.1 4.1 1.8 4.1 4.1zM416.8 229.9c0 2.3-1.9 4.1-4.1 4.1-2.3 0-4.1-1.9-4.1-4.1 0-2.3 1.9-4.1 4.1-4.1 2.3-.1 4.1 1.8 4.1 4.1zM402.2 251c-1.5 0-2.8-1.3-2.8-2.8v-10.7h5.6v10.7c0 1.6-1.3 2.8-2.8 2.8z"/><path class="st6" d="M396.7 230.3v.4c0 3 2.5 5.5 5.5 5.5s5.5-2.5 5.5-5.5v-.4h-11z"/><path class="st9" d="M392.6 232c0 .5-.4.9-.9.9s-.9-.4-.9-.9.4-.9.9-.9c.5.1.9.5.9.9zM413.1 232c0 .5-.4.9-.9.9s-.9-.4-.9-.9.4-.9.9-.9c.5.1.9.5.9.9z"/><path class="st4" d="M399.6 225.2c0 .7-.6 1.3-1.3 1.3-.7 0-1.3-.6-1.3-1.3 0-.7.6-1.3 1.3-1.3.7 0 1.3.6 1.3 1.3zM407.2 225.2c0 .7-.6 1.3-1.3 1.3-.7 0-1.3-.6-1.3-1.3 0-.7.6-1.3 1.3-1.3.8 0 1.3.6 1.3 1.3zM192.2 114.1v13.3c0 5.9 4.8 10.7 10.7 10.7 5.9 0 10.7-4.8 10.7-10.7V112l-21.4 2.1z"/><path class="st4" d="M213.6 112.9c0 6-4.8 10.8-10.8 10.8-6 0-10.8-4.8-10.8-10.8 0-6 4.8-10.8 10.8-10.8 5.9 0 10.8 4.9 10.8 10.8z"/><circle transform="rotate(-80.752 202.751 114.111)" class="st8" cx="202.8" cy="114.1" r="10.8"/><path class="st8" d="M196.4 114.8c0 2.3-1.9 4.1-4.1 4.1-2.3 0-4.1-1.9-4.1-4.1 0-2.3 1.9-4.1 4.1-4.1 2.2 0 4.1 1.8 4.1 4.1zM217.4 114.8c0 2.3-1.9 4.1-4.1 4.1-2.3 0-4.1-1.9-4.1-4.1 0-2.3 1.9-4.1 4.1-4.1 2.3 0 4.1 1.8 4.1 4.1z"/><path class="st7" d="M217.9 142.3c-.6-7.5-6.9-13.4-14.5-13.4-7.7 0-13.9 5.9-14.5 13.4h29z"/><path class="st8" d="M202.8 136c-1.5 0-2.8-1.3-2.8-2.8v-10.7h5.6v10.7c0 1.5-1.3 2.8-2.8 2.8z"/><path class="st6" d="M197.2 115.3v.4c0 3 2.5 5.5 5.5 5.5s5.5-2.5 5.5-5.5v-.4h-11zM193.1 117c0 .5-.4.9-.9.9s-.9-.4-.9-.9.4-.9.9-.9.9.4.9.9zM213.7 117c0 .5-.4.9-.9.9s-.9-.4-.9-.9.4-.9.9-.9.9.4.9.9z"/><path class="st4" d="M200.1 110.1c0 .7-.6 1.3-1.3 1.3-.7 0-1.3-.6-1.3-1.3 0-.7.6-1.3 1.3-1.3.8.1 1.3.7 1.3 1.3z"/><circle class="st4" cx="206.5" cy="110.1" r="1.3"/><path class="st13" d="M284.5 126.6v13c0 5.8 4.7 10.5 10.5 10.5s10.5-4.7 10.5-10.5V127l-21-.4z"/><path class="st4" d="M309.7 155.3c-.6-7.5-6.9-13.4-14.5-13.4-7.7 0-13.9 5.9-14.5 13.4h29z"/><circle transform="rotate(-76.779 294.773 125.474)" class="st13" cx="294.8" cy="125.5" r="10.6"/><circle transform="rotate(-7.002 294.702 128.625)" class="st8" cx="294.8" cy="128.7" r="10.6"/><path class="st8" d="M288.5 129.3c0 2.2-1.8 4.1-4.1 4.1-2.2 0-4.1-1.8-4.1-4.1 0-2.2 1.8-4.1 4.1-4.1 2.3.1 4.1 1.9 4.1 4.1zM309.1 129.3c0 2.2-1.8 4.1-4.1 4.1-2.2 0-4.1-1.8-4.1-4.1 0-2.2 1.8-4.1 4.1-4.1 2.3.1 4.1 1.9 4.1 4.1zM294.8 150.1c-1.5 0-2.7-1.2-2.7-2.7v-10.5h5.5v10.5c-.1 1.4-1.3 2.7-2.8 2.7z"/><path class="st6" d="M289.4 130.8v.4c0 3 2.4 5.4 5.4 5.4 3 0 5.4-2.4 5.4-5.4v-.4h-10.8z"/><path class="st9" d="M285.3 131.5c0 .5-.4.9-.9.9s-.9-.4-.9-.9.4-.9.9-.9c.6 0 .9.4.9.9zM305.5 131.5c0 .5-.4.9-.9.9s-.9-.4-.9-.9.4-.9.9-.9.9.4.9.9z"/><path class="st13" d="M296.1 114.1h-2.7c-5.1 0-9.3 4.1-9.3 9.3v3.3l6.2-.4a9.6 9.6 0 0 0 8.9-8.3l5.7 9.1.4-3.6c.1-5.3-4.1-9.4-9.2-9.4z"/><path class="st9" d="m291.5 111.4-2.9 4-4.9-.5 2.3 5.3 2.9-4 5 .5z"/><path class="st4" d="M240.3 237.8c-.6-8-7.3-14.2-15.4-14.2-8.1 0-14.8 6.3-15.4 14.2h30.8z"/><circle class="st5" cx="224.8" cy="212" r="10.5"/><path class="st5" d="M219.4 212.8c0 2-1.6 3.6-3.6 3.6s-3.6-1.6-3.6-3.6 1.6-3.6 3.6-3.6 3.6 1.6 3.6 3.6zM237.4 212.8c0 2-1.6 3.6-3.6 3.6s-3.6-1.6-3.6-3.6 1.6-3.6 3.6-3.6 3.6 1.6 3.6 3.6zM225 232h-.3c-1.3 0-2.3-1-2.3-2.3v-9.3h4.8v9.3c0 1.3-1 2.3-2.2 2.3z"/><path class="st6" d="M220.2 214.4c.3 2.4 2.2 4.2 4.7 4.2 2.4 0 4.4-1.8 4.7-4.2h-9.4z"/><path class="st4" d="M222.5 210.2c0 .6-.5 1-1 1s-1-.5-1-1c0-.6.5-1 1-1s1 .4 1 1zM228.8 210.2c0 .6-.5 1-1 1-.6 0-1-.5-1-1 0-.6.5-1 1-1 .5-.1 1 .4 1 1z"/><circle class="st8" cx="156.3" cy="75.8" r="10.8"/><path class="st8" d="M149.9 76.5c0 2.3-1.9 4.1-4.1 4.1-2.3 0-4.1-1.9-4.1-4.1 0-2.3 1.9-4.1 4.1-4.1 2.3-.1 4.1 1.8 4.1 4.1zM170.9 76.5c0 2.3-1.9 4.1-4.1 4.1-2.3 0-4.1-1.9-4.1-4.1 0-2.3 1.9-4.1 4.1-4.1 2.3-.1 4.1 1.8 4.1 4.1z"/><path class="st4" d="M171.2 102.2c-.6-7.5-6.9-13.4-14.5-13.4-7.7 0-13.9 5.9-14.5 13.4h29z"/><path class="st8" d="M166.8 78.4c.2-.8.3-1.7.3-2.6 0-.9-.1-1.8-.3-2.6v-.8c0-5.8-4.7-10.5-10.5-10.5s-10.5 4.7-10.5 10.5v.8c-.2.8-.3 1.7-.3 2.6 0 .9.1 1.8.3 2.6v1.2h.4c1.5 4.1 5.5 7 10.2 7 4.7 0 8.6-2.9 10.2-7h.4v-1.2z"/><defs><path id="SVGID_3_" d="M166.8 78.4c.2-.8.3-1.7.3-2.6 0-.9-.1-1.8-.3-2.6v-.8c0-5.8-4.7-10.5-10.5-10.5s-10.5 4.7-10.5 10.5v.8c-.2.8-.3 1.7-.3 2.6 0 .9.1 1.8.3 2.6v1.2h.4c1.5 4.1 5.5 7 10.2 7 4.7 0 8.6-2.9 10.2-7h.4v-1.2z"/></defs><clipPath id="SVGID_4_"><use xlink:href="#SVGID_3_" style="overflow:visible"/></clipPath><g style="clip-path:url(#SVGID_4_)"><circle transform="rotate(-7.002 148.914 61.648)" class="st4" cx="149" cy="61.7" r="11.2"/><circle transform="rotate(-76.65 170.44 61.664)" class="st4" cx="170.4" cy="61.7" r="11.2"/></g><path class="st8" d="M156.3 97.6c-1.5 0-2.8-1.3-2.8-2.8V84.1h5.6v10.7c0 1.6-1.3 2.8-2.8 2.8z"/><path class="st4" d="M153.8 74.2c0 .7-.5 1.2-1.2 1.2s-1.2-.5-1.2-1.2.5-1.2 1.2-1.2c.7.1 1.2.6 1.2 1.2zM161.1 74.2c0 .7-.5 1.2-1.2 1.2s-1.2-.5-1.2-1.2.5-1.2 1.2-1.2c.7.1 1.2.6 1.2 1.2zM150.5 63.5a6.7 6.7 0 1 1-13.4 0 6.7 6.7 0 0 1 13.4 0zM175.4 63.5a6.7 6.7 0 1 1-13.4 0 6.7 6.7 0 0 1 13.4 0z"/><path class="st6" d="M149.5 76.7v.7a6.7 6.7 0 0 0 13.4 0v-.7h-13.4z"/><path class="st13" d="M337.8 41.8c-2.7 1-4.1 3.9-3.1 6.6l4 11 9.7-3.5-4-11c-.9-2.7-3.9-4.1-6.6-3.1z"/><path class="st13" d="M358.2 55.5c0 6-4.8 10.8-10.8 10.8-6 0-10.8-4.8-10.8-10.8 0-6 4.8-10.8 10.8-10.8 5.9 0 10.8 4.8 10.8 10.8z"/><circle transform="rotate(-22.657 347.354 58.46)" class="st8" cx="347.3" cy="58.5" r="10.8"/><path class="st7" d="M362.4 83.2c-.6-7.5-6.9-13.4-14.5-13.4-7.7 0-13.9 5.9-14.5 13.4h29z"/><path class="st8" d="M341 59.2c0 2.3-1.9 4.1-4.1 4.1-2.3 0-4.1-1.9-4.1-4.1 0-2.3 1.9-4.1 4.1-4.1 2.2-.1 4.1 1.8 4.1 4.1zM362 59.2c0 2.3-1.9 4.1-4.1 4.1-2.3 0-4.1-1.9-4.1-4.1 0-2.3 1.9-4.1 4.1-4.1 2.2-.1 4.1 1.8 4.1 4.1zM344.5 66.8h5.6v13.5h-5.6z"/><path class="st6" d="M341.9 59.6v.4c0 3 2.5 5.5 5.5 5.5s5.5-2.5 5.5-5.5v-.4h-11z"/><path class="st9" d="M348.2 61.3c0 .5-.4.9-.9.9s-.9-.4-.9-.9.4-.9.9-.9c.5.1.9.5.9.9z"/><path class="st4" d="M345.1 54.8c0 .6-.5 1.1-1.1 1.1-.6 0-1.1-.5-1.1-1.1s.5-1.1 1.1-1.1c.6-.1 1.1.4 1.1 1.1zM351.8 54.8c0 .6-.5 1.1-1.1 1.1s-1.1-.5-1.1-1.1.5-1.1 1.1-1.1 1.1.4 1.1 1.1z"/><path class="st6" d="M347.3 64.5c-2.1 0-3.8-1.7-3.8-3.8v-.5h7.6v.5c0 2.1-1.7 3.8-3.8 3.8z"/><circle transform="rotate(-76.656 249.069 93.454)" class="st8" cx="249.1" cy="93.5" r="11"/><path class="st15" d="M242.6 94.2c0 2.3-1.9 4.2-4.2 4.2-2.3 0-4.2-1.9-4.2-4.2 0-2.3 1.9-4.2 4.2-4.2 2.3 0 4.2 1.8 4.2 4.2zM263.9 94.2c0 2.3-1.9 4.2-4.2 4.2-2.3 0-4.2-1.9-4.2-4.2 0-2.3 1.9-4.2 4.2-4.2 2.3 0 4.2 1.8 4.2 4.2z"/><path class="st15" d="M259.7 96.1c.2-.8.3-1.7.3-2.6s-.1-1.8-.3-2.6V90c0-5.9-4.8-10.7-10.7-10.7-5.9 0-10.7 4.8-10.7 10.7v.8c-.2.8-.3 1.7-.3 2.6s.1 1.8.3 2.6v1.2h.4c1.6 4.2 5.6 7.1 10.3 7.1 4.7 0 8.7-3 10.3-7.1h.4v-1.1z"/><path class="st6" d="M264 120.1c-.6-7.5-6.9-13.4-14.5-13.4-7.7 0-13.9 5.9-14.5 13.4h29z"/><defs><path id="SVGID_5_" d="M259.7 96.1c.2-.8.3-1.7.3-2.6s-.1-1.8-.3-2.6V90c0-5.9-4.8-10.7-10.7-10.7-5.9 0-10.7 4.8-10.7 10.7v.8c-.2.8-.3 1.7-.3 2.6s.1 1.8.3 2.6v1.2h.4c1.6 4.2 5.6 7.1 10.3 7.1 4.7 0 8.7-3 10.3-7.1h.4v-1.1z"/></defs><clipPath id="SVGID_6_"><use xlink:href="#SVGID_5_" style="overflow:visible"/></clipPath><g style="clip-path:url(#SVGID_6_)"><path class="st17" d="M253.1 79.2c0 6.3-5.1 11.4-11.4 11.4-6.3 0-11.4-5.1-11.4-11.4 0-6.3 5.1-11.4 11.4-11.4 6.3 0 11.4 5.1 11.4 11.4z"/><circle transform="rotate(-13.344 263.4 79.129)" class="st17" cx="263.4" cy="79.2" r="11.4"/></g><path class="st15" d="M249.1 115.6c-1.6 0-2.8-1.3-2.8-2.8V102h5.7v10.8c-.1 1.5-1.4 2.8-2.9 2.8z"/><circle class="st4" cx="245.4" cy="91.9" r="1.2"/><circle class="st4" cx="252.8" cy="91.9" r="1.2"/><path class="st4" d="m254.9 106.6-5.9 3.5-6-3.5v8.1l6-3.5 5.9 3.5z"/><path class="st6" d="M243.7 95v1.8c0 3 2.5 5.5 5.5 5.5s5.5-2.5 5.5-5.5V95h-11z"/><path class="st12" d="M249.2 102.3c2.2 0 4.2-1.4 5-3.3-.9-.6-1.9-1-3.1-1-2.3 0-4.2 1.5-4.9 3.5.9.5 1.9.8 3 .8z"/></svg>