<svg xmlns="http://www.w3.org/2000/svg" viewBox="0 0 848.6 726" style="enable-background:new 0 0 848.6 726" xml:space="preserve"><style>.st2{fill:#5d4298}.st4{fill:#9b6d5c}.st6{fill:#96685a}.st16,.st9{fill:#fff}.st16{opacity:.2}.st17{fill:#373737}.st18{fill:#c7c9c9}.st21{fill:#6db5b5}.st23{fill:#ec008c}.st24{fill:#5d4495}.st25{fill:#f9ac7f}.st26{fill:#fbc39d}.st27{fill:#fccfb2}.st29{fill:#e0e1e2}.st30{fill:#9e9ccc}.st31{fill:#32f98c}.st32{fill:#8486c1}.st34{fill:#9b4b10}.st41{fill:#e3eaff}.st42{fill:#6db8ff}.st45{opacity:.2;fill:#424261}.st47{fill:#f9fbfc}.st48{fill:#9570ee}.st51{fill:#ced6ff}.st52{fill:#f7d3a9}.st53{fill:#544db8}.st54{fill:#ff8b40}.st56{fill:#ffc240}.st60{fill:#0cf}.st61{fill:#ff56a9}.st62{fill:#ffc359}.st64{fill:#f79a74}.st65{fill:#ff4f72}</style><g id="OBJECTS"><path class="st2" d="m-2636.8 698.9 77.7-31.1c-6.9-84.7-90.5-184.5-224.1-184.5s-217.8 99.8-224.6 184.5l77 31.1v394.6h294V698.9z"/><path d="M-2930.8 1016.9v20.6c45 11.9 87-28.6 87-28.6l207 3v-31.5l-294 7.9v28.6z" style="opacity:7.000000e-002;fill:#2b2b2b"/><path class="st4" d="M-2729.1 489.2c-7.5-1.8-11.9-2.4-21.2-3.7l-4.9-50.8-53.9-2-2.1 52.1c-11.1 1.1-17 2.1-25.9 4.2-.2 2.7 0 5 .1 7.8 1.3 33.1 26.5 58.8 56.2 57.3 29.7-1.5 52.8-29.5 51.5-62.7.1-.4.2-1.7.2-2.2z"/><path d="m-2754.2 444.1 2.3 23.8c-9.5 1.5-20.6 2.9-31.5 2.7-9.5 0-18.7-1.1-27-2.3l1-25.5 55.2 1.3z" style="opacity:.1;fill:#1e1e1e"/><path class="st6" d="M-2589.9 297.3c-.1 23.3-19 42-42.2 41.9-23.2-.1-41.9-19-41.8-42.3.1-23.3 19-42 42.2-41.9 23.1.1 41.9 19 41.8 42.3zM-2900.6 303.8c-.1 23.3-19 42-42.2 41.9-23.2-.1-41.9-19-41.8-42.3.1-23.3 19-42 42.2-41.9 23.2.2 41.9 19.1 41.8 42.3z"/><path class="st4" d="M-2626.3 294.9c.1 90.7-71.7 164.2-159.3 164.3-87.6.1-159.4-73.4-159.5-164.1l1.9-44.7c-.1-90.7 69.8-164.2 157.3-164.3 87.6-.1 157.5 73.4 157.6 164.1l2 44.7z"/><path d="M-2785.6 459.2c-87.6.1-159.4-73.4-159.5-164.1v-7.5c0-1.1.1-2.2 0-3.2l17.4 1.1s3.8 82.3 61.3 81c20.3-.5 46.9-27.3 82.1-27.8 36.8-.5 60.3 26.3 81.6 26.3 57.4-.1 58.8-83.4 58.8-83.4l17.3-1.3c0 1.3.1 2.7.3 4.2V295c0 90.6-71.7 164.2-159.3 164.2z" style="fill:#77564d"/><path d="M-2944.1 220.3c3.2-50.1 43.9-136.6 155.5-141.7 111.1 3.8 157.1 87.5 160.8 137.6 1.2 16.1 1.3 64 1.3 64l-17.3 1.3s6.6-147.5-82.2-122c-19.7 5.7-43.6 11.4-61.6 11.7-19.4 0-39.1-3.2-58.8-8.6-89-24.6-81.1 122.8-81.1 122.8l-17.4-1.1c-.2.1-.3-47.8.8-64z" style="fill:#4f3934"/><path class="st9" d="m-2710.6 374-135.8-2.5s23 48.4 67 48.4c43.4 0 66.8-36.2 68.8-45.9z"/><path d="M-2726 320.5c2.8 10 12.6 16 22.1 13.4 9.4-2.6 14.8-12.8 12.1-22.8-2.8-10-12.6-16-22.1-13.4-9.5 2.7-14.9 12.9-12.1 22.8zM-2872.1 320.5c2.8 10 12.6 16 22.1 13.4 9.4-2.6 14.8-12.8 12.1-22.8-2.8-10-12.6-16-22.1-13.4-9.4 2.7-14.9 12.9-12.1 22.8z"/><path d="M-3106.7 996.2h642c11.6 0 21.8-6.3 27.2-15.7H-3134c5.5 9.3 15.6 15.7 27.3 15.7z" style="fill:#bfbebe"/><path d="M-3138.2 964.7c0 5.7 1.6 11.1 4.2 15.7h696.5c2.7-4.6 4.2-10 4.2-15.7h-704.9z" style="opacity:.2;fill:#d6b4b4"/><path d="M-2736.7 964.7c-2.4 3.5-6.5 5.9-11.1 5.9h-75.9c-4.6 0-8.7-2.3-11.1-5.9h-303.4c0 5.7 1.6 11.1 4.2 15.7h696.5c2.7-4.6 4.2-10 4.2-15.7h-303.4z" style="fill:#cecccc"/><path d="M-2823.7 970.6h75.9c4.6 0 8.7-2.3 11.1-5.9h-98.1c2.4 3.5 6.5 5.9 11.1 5.9z" style="fill:#a0a0a0"/><path d="M-2490 951.7c0 7.2-5.8 13-13 13h-565.5c-7.2 0-13-5.8-13-13V583.8c0-7.2 5.8-13 13-13h565.5c7.2 0 13 5.8 13 13v367.9z" style="fill:#141313"/><path style="opacity:.3;fill:#fff" d="m-2915 570.8 213.1 393.9h109.4l-281.8-393.9z"/><path class="st16" d="M-2490 951.7V831.9l-139.2-261h-209l279.7 393.9h55.5c7.2-.1 13-5.9 13-13.1z"/><circle cx="-2785.7" cy="584.9" r="4.2"/><circle class="st16" cx="-2785.7" cy="584.9" r="1"/><path class="st17" d="M-3047.9 601.3h523.3v333.3h-523.3z"/><path class="st18" d="M-3047.9 601h523.3v24.8h-523.3z"/><circle class="st2" cx="-3033.6" cy="613.5" r="6.1"/><circle cx="-3013.9" cy="613.5" r="6.1" style="fill:#78c2c5"/><circle cx="-2994.2" cy="613.5" r="6.1" style="fill:#fced7e"/><path class="st9" d="M-2937.5 651.7c0 4.1-3.3 7.4-7.4 7.4h-41.1c-4.1 0-7.4-3.3-7.4-7.4 0-4.1 3.3-7.4 7.4-7.4h41.1c4.1 0 7.4 3.4 7.4 7.4z"/><path class="st21" d="M-2914.7 671.8c0 4.1-3.3 7.4-7.4 7.4h-41.1c-4.1 0-7.4-3.3-7.4-7.4 0-4.1 3.3-7.4 7.4-7.4h41.1c4 0 7.4 3.3 7.4 7.4z"/><path class="st9" d="M-2776.9 691.9c0 4.1-3.3 7.4-7.4 7.4h-146.2c-4.1 0-7.4-3.3-7.4-7.4 0-4.1 3.3-7.4 7.4-7.4h146.2c4.1 0 7.4 3.3 7.4 7.4z"/><path class="st2" d="M-2700.5 711.9c0 4.1-3.3 7.4-7.4 7.4h-222.6c-4.1 0-7.4-3.3-7.4-7.4 0-4.1 3.3-7.4 7.4-7.4h222.6c4.1 0 7.4 3.3 7.4 7.4z"/><path class="st18" d="M-2643.2 732c0 4.1-3.3 7.4-7.4 7.4h-279.9c-4.1 0-7.4-3.3-7.4-7.4 0-4.1 3.3-7.4 7.4-7.4h279.9c4.1 0 7.4 3.3 7.4 7.4z"/><path class="st21" d="M-2867 752.1c0 4.1-3.3 7.4-7.4 7.4h-88.8c-4.1 0-7.4-3.3-7.4-7.4 0-4.1 3.3-7.4 7.4-7.4h88.8c4.1-.1 7.4 3.3 7.4 7.4z"/><path class="st18" d="M-2882 772.1c0 4.1-3.3 7.4-7.4 7.4h-41.1c-4.1 0-7.4-3.3-7.4-7.4 0-4.1 3.3-7.4 7.4-7.4h41.1c4.1 0 7.4 3.3 7.4 7.4z"/><path class="st9" d="M-2822.1 772.1c0 4.1-3.3 7.4-7.4 7.4h-41.1c-4.1 0-7.4-3.3-7.4-7.4 0-4.1 3.3-7.4 7.4-7.4h41.1c4.1 0 7.4 3.3 7.4 7.4z"/><path class="st2" d="M-2843.8 792.2c0 4.1-3.3 7.4-7.4 7.4h-79.3c-4.1 0-7.4-3.3-7.4-7.4 0-4.1 3.3-7.4 7.4-7.4h79.3c4.1 0 7.4 3.3 7.4 7.4z"/><path class="st9" d="M-2805.6 812.2c0 4.1-3.3 7.4-7.4 7.4h-117.5c-4.1 0-7.4-3.3-7.4-7.4 0-4.1 3.3-7.4 7.4-7.4h117.5c4.1 0 7.4 3.3 7.4 7.4z"/><path class="st18" d="M-2882 832.3c0 4.1-3.3 7.4-7.4 7.4h-41.1c-4.1 0-7.4-3.3-7.4-7.4 0-4.1 3.3-7.4 7.4-7.4h41.1c4.1 0 7.4 3.3 7.4 7.4z"/><path class="st21" d="M-2882 852.4c0 4.1-3.3 7.4-7.4 7.4h-41.1c-4.1 0-7.4-3.3-7.4-7.4 0-4.1 3.3-7.4 7.4-7.4h41.1c4.1 0 7.4 3.3 7.4 7.4z"/><path class="st2" d="M-2693.1 852.4c0 4.1-3.3 7.4-7.4 7.4h-170c-4.1 0-7.4-3.3-7.4-7.4 0-4.1 3.3-7.4 7.4-7.4h170c4.1 0 7.4 3.3 7.4 7.4z"/><path class="st9" d="M-2623.8 852.4c0 4.1-3.3 7.4-7.4 7.4h-50.6c-4.1 0-7.4-3.3-7.4-7.4 0-4.1 3.3-7.4 7.4-7.4h50.6c4.1 0 7.4 3.3 7.4 7.4z"/><path class="st18" d="M-2914.7 872.4c0 4.1-3.3 7.4-7.4 7.4h-41.1c-4.1 0-7.4-3.3-7.4-7.4 0-4.1 3.3-7.4 7.4-7.4h41.1c4 0 7.4 3.3 7.4 7.4z"/><path class="st2" d="M-2882 892.5c0 4.1-3.3 7.4-7.4 7.4h-41.1c-4.1 0-7.4-3.3-7.4-7.4 0-4.1 3.3-7.4 7.4-7.4h41.1c4.1 0 7.4 3.3 7.4 7.4z"/><path class="st18" d="M-2776.9 912.5c0 4.1-3.3 7.4-7.4 7.4h-146.2c-4.1 0-7.4-3.3-7.4-7.4 0-4.1 3.3-7.4 7.4-7.4h146.2c4.1 0 7.4 3.4 7.4 7.4z"/><path class="st4" d="m-2445 821.9-45 40.1v-44.1z"/><path style="opacity:.1;fill:#2b2b2b" d="m-2490 824.8 30.5 10.1 12.4-11.9-33.1-6.5z"/><path class="st4" d="M-2508.2 745.9c-13 1.5-57.8 4.9-57.8 4.9-7.4.9-13.2 7.7-12.3 15 .9 7.1 7.2 12.3 14.3 11.8.2 0 38-2.7 38.2-2.7-7.4.9-12.6 7.6-11.7 14.9.9 7.3 7.6 12.6 14.9 11.7-7.4.9-12.4 7.5-11.6 14.9.9 7.4 7.7 12.6 15.1 11.7l6.7-.8c1-.1 11.4-1.2 24.8-2.7 14.4-.6 26.3-1 33.7-.3h-.1c29 1.5 28.8-71.3 2.1-78.2-15.6-4.3-36.8-3.2-56.3-.2zM-2980.5 953.5c1.1-13.7 1.7-21.3 1.7-21.3.7-7.7 7.6-14.1 15.4-13.4 7.7.7 13.5 7.6 12.8 15.3.7-7.7 7.5-13.4 15.3-12.8 7.7.7 13.5 7.5 12.8 15.3.7-7.7 7.5-13.3 15.2-12.6 7.7.7 13.4 7.7 12.7 15.4l-.6 7c-.1 1.1-.9 12-2 26.1-.2 15.2.8 20.3.8 20.3 2.5 30.4-73.8 32.5-82 4.7-5.1-16.1-4.5-23.4-2.1-44z"/><path id="Hair" class="st23" d="M-641.8 194.3c-3.3-18.6-16.5-37.3-46.7-39.5v-.1H-695.8v.1c-33.9 2.3-45.9 18.3-48.6 39.3-3 23.6-3.2 114.6-3 124.7 3.1 15.8 10.3 17.7 20.1 27.5 9.7 9.7 22 15.5 35.4 15.5 13 0 22.1-18.7 31.7-28 9.2-8.9 19.2-7.9 22.8-22.2.2-12.8.1-91.9-4.4-117.3z"/><path class="st24" d="m-622.9 341-130.5-2.2v-13.9c0-22.7 27.9-43.8 55.2-43.8h20.6c24.3 0 54.6 21.3 54.6 41.4V341z"/><path class="st25" d="M-702.4 271.9s1 7.4 12.5 7.4 12.5-7.4 12.5-7.4h-25z"/><path class="st26" d="M-682.7 255.5h-14.4c-2.9 0-5.3 2.4-5.3 5.3v22.6c0 6.9 5.6 12.5 12.5 12.5s12.5-5.6 12.5-12.5v-22.6c0-2.9-2.4-5.3-5.3-5.3z"/><g id="Girl_2_"><g id="Head_3_"><path class="st27" d="M-645.7 223.6c.4 25.1-19.6 45.8-44.8 46.3-25.1.4-45.8-19.6-46.3-44.8l-.3-17c-.4-25.1 19.6-45.8 44.8-46.3 25.1-.4 45.8 19.6 46.3 44.8l.3 17z"/><circle transform="matrix(.9999 -.01645 .01645 .9999 -3.79 -12.114)" class="st27" cx="-738.2" cy="224.3" r="12.2"/></g><path d="M-782.8 187.6c0 3.5 2.3 6.4 5.2 6.4l43.1.1c2.9 0 5.2-2.8 5.2-6.4 0-3.5-2.3-6.4-5.2-6.4l-43.1-.1c-2.9 0-5.2 2.8-5.2 6.4z" style="fill:#463272"/><path class="st2" d="M-642 194.2c.1-25.1-20.3-45.4-45.4-45.5h-12c-25.1-.1-45.1 20.2-45.2 45.3l102.6.2z"/><path class="st27" d="m-695.9 187 26.9-.1c.1-6.8-5.1-12.2-11.6-12.2h-3.2c-6.6 0-12 5.5-12.1 12.3z"/><path class="st23" d="M-719 193.8s-9.2 35.8-12.2 74.8l-7.1-1.1s-3.3-48.8 1.3-73.7h18z"/></g><ellipse transform="scale(-1) rotate(-15.408 -1690.34 -4930.748)" cx="-667" cy="228.7" rx="5.2" ry="5.4"/><ellipse transform="scale(-1) rotate(-15.409 -1690.347 -5244.598)" cx="-709.5" cy="228.7" rx="5.2" ry="5.4"/><path class="st9" d="m-703.4 244.7 30.9-1.2s-4.4 9.7-12.1 11.1c-10.4 1.8-18.3-7.5-18.8-9.9z"/><path class="st29" d="M-611.6 411.6H-768c-5 0-9.1-4.1-9.1-9.1v-89.8c0-5 4.1-9.1 9.1-9.1h156.5c5 0 9.1 4.1 9.1 9.1v89.8c-.1 5.1-4.2 9.1-9.2 9.1z"/><path class="st9" d="M-691.9 369.8c-6.7 0-12.2-5.5-12.2-12.2s5.5-12.2 12.2-12.2c6.7 0 12.2 5.5 12.2 12.2s-5.5 12.2-12.2 12.2z"/><path class="st24" d="m-410.9 341-130.5-2.2v-13.9c0-22.7 27.9-43.8 55.2-43.8h20.6c24.3 0 54.6 21.3 54.6 41.4V341z"/><path class="st26" d="M-470.7 255.5h-14.4c-2.9 0-5.3 2.4-5.3 5.3v22.6c0 6.9 5.6 12.5 12.5 12.5s12.5-5.6 12.5-12.5v-22.6c0-2.9-2.4-5.3-5.3-5.3z"/><path class="st25" d="M-490.4 271.9s1 7.4 12.5 7.4 12.5-7.4 12.5-7.4h-25z"/><path class="st29" d="M-399.6 411.6H-556c-5 0-9.1-4.1-9.1-9.1v-89.8c0-5 4.1-9.1 9.1-9.1h156.5c5 0 9.1 4.1 9.1 9.1v89.8c-.1 5.1-4.2 9.1-9.2 9.1z"/><path class="st9" d="M-479.9 369.8c-6.7 0-12.2-5.5-12.2-12.2s5.5-12.2 12.2-12.2c6.7 0 12.2 5.5 12.2 12.2s-5.5 12.2-12.2 12.2z"/><path class="st30" d="M-430.8 213.9c0 24.8-22.1 44.8-49.4 44.8-27.3 0-49.4-20.1-49.4-44.8 0-24.5 21.4-46.3 48.6-44.8h1.6c26.9-1.4 48.6 20.3 48.6 44.8z"/><path class="st31" d="M-520.6 245.5s-9.1 12.7.9 32.1c-1.1-10.7-4.1-19.4 4.3-32.1 8.3-12.7-3.7-4.3-5.2 0z"/><g id="Girl_1_"><g id="Head_1_"><path class="st26" d="M-438.5 233.9c.4 22.3-17.4 40.7-39.8 41.1-22.3.4-40.7-17.4-41.1-39.8l-.2-15.1c-.4-22.3 17.4-40.7 39.8-41.1 22.3-.4 40.7 17.4 41.1 39.8l.2 15.1z"/><circle transform="matrix(.9999 -.01644 .01644 .9999 -3.927 -8.53)" class="st26" cx="-520.7" cy="234.6" r="10.9"/></g></g><path class="st9" d="m-458.4 249.6-35.1-.7s6 12.5 17.3 12.5c11.2.1 17.3-9.2 17.8-11.8z"/><ellipse transform="scale(-1) rotate(-15.408 -1734.356 -3385.33)" cx="-458" cy="234.6" rx="4.6" ry="4.8"/><ellipse transform="scale(-1) rotate(-15.409 -1734.385 -3664.241)" cx="-495.7" cy="234.6" rx="4.6" ry="4.8"/><path class="st30" d="M-510.7 162.2c5.8 6 5.6 15.6-.4 21.4l-13.2 12.8c-6 5.8-15.6 5.6-21.4-.4-5.8-6-5.6-15.6.4-21.4l13.2-12.8c6-5.8 15.6-5.7 21.4.4zM-448.9 162c5.9-6 15.5-6 21.4-.1 3.3 3.2 9.8 9.7 13.1 12.9 6 5.9 6 15.5.1 21.4-5.9 6-15.5 6-21.4.1l-13.1-12.9c-6-5.9-6-15.5-.1-21.4z"/><path class="st31" d="M-442.8 221.2s8.6 32.8 0 59.9c6.9-7.3 13.2-39.7 0-59.9z"/><path class="st30" d="m-477.6 191.7-43.1 45.5s-.5-5.4-.7-12.7c-.3-13.8.4-34.3 7.8-38.4 11.2-6.3 35.6-13.2 35.6-13.2s29.3 7 35.2 21.2c6 14.2 6 39.7 6 39.7s-26.1-33.2-40.8-42.1z"/><path class="st23" d="M-430 160s-19.3 9.1-16.8 25.8l9.1 9c0-.1-3.2-27.8 7.7-34.8z"/><path class="st32" d="m-422.2 167.1 8.9 8.9s.3 17.4-18.1 23c5.7-4.9 13.4-17.3 9.2-31.9zM-509 181.1s.4-16.3-22.6-19.8l-7.6 7.3s25.1-1.2 30.2 12.5z"/><path class="st31" d="m-514.9 187-11.6 11.1s-21.2-5.6-20.1-22.2c4.5 6.5 16.9 13.7 31.7 11.1z"/><path class="st32" d="M-478.1 175s16.2-1.6 26.9 5.4c-6.9-.1-25.7 4.5-25.7 4.5s-.3-6.2-1.2-9.9z"/><path class="st31" d="M-474.3 189.4s32.9 7.7 42.8 31.9c-1.1 6-2.5 8.5-2.5 8.5s-17.9-32.5-40.3-40.4z"/><path class="st23" d="M-480.2 184.9s-39.5 9.7-41.2 38.1l41.2-38.1z"/><path class="st32" d="M-481.1 170.5s1.9 3.6 1.9 9.4l-31.9 3.7s10.4-10.6 30-13.1z"/><path class="st30" d="M-480.2 169.1s4.8-8.4 18.5-3.9c-5.8.1-10.5 2.4-11.5 4.6-1.1 2.1-5.7.9-7-.7z"/><path class="st30" d="M-480.2 169.1s-6.4-6-14.9-2.9c4.9.4 9.2 3.7 9.3 4.3-.8-.7 5.6-1.4 5.6-1.4z"/><path class="st24" d="m-198.9 341-130.5-2.2v-13.9c0-22.7 27.9-43.8 55.2-43.8h20.6c24.3 0 54.6 21.3 54.6 41.4V341z"/><path class="st26" d="M-258.7 255.5h-14.4c-2.9 0-5.3 2.4-5.3 5.3v22.6c0 6.9 5.6 12.5 12.5 12.5s12.5-5.6 12.5-12.5v-22.6c0-2.9-2.4-5.3-5.3-5.3z"/><path class="st25" d="M-278.4 271.9s1 7.4 12.5 7.4 12.5-7.4 12.5-7.4h-25z"/><path class="st29" d="M-187.6 411.6H-344c-5 0-9.1-4.1-9.1-9.1v-89.8c0-5 4.1-9.1 9.1-9.1h156.5c5 0 9.1 4.1 9.1 9.1v89.8c-.1 5.1-4.2 9.1-9.2 9.1z"/><path class="st9" d="M-267.9 369.8c-6.7 0-12.2-5.5-12.2-12.2s5.5-12.2 12.2-12.2c6.7 0 12.2 5.5 12.2 12.2s-5.5 12.2-12.2 12.2z"/><g id="Nerd_1_"><g id="Head_8_"><g id="teen_1_"><ellipse transform="scale(-1) rotate(-2.44 -10676.428 -14667.253)" cx="-312.4" cy="227.4" rx="12.5" ry="12.6" style="fill:#efc3ab"/><path class="st27" d="M-313.1 230.7c1.1 25.8 22.9 45.8 48.7 44.7 25.8-1.1 45.8-22.9 44.7-48.7l-.7-17.4c-.4-10.4.1-25.1-6-32.6-9-11.1-27.3-12.8-42.7-12.1-25.8 1.1-45.8 22.9-44.7 48.7l.7 17.4z"/><ellipse transform="scale(-1) rotate(-2.439 -10584.697 -10297.519)" class="st27" cx="-219.2" cy="225.3" rx="12.5" ry="12.6"/><path class="st17" d="M-223.6 219.9s1.4-.9 2.5-2c0 0 6-14.4 3.2-24.5-1-4.5-4-10.2-7.8-15.8l-11.7 10.5c4.8 6.8 11.4 15.4 13.8 31.8zM-300.7 184.2l-9.2-3.5s-8.9 12.6-4.6 34.4l1.1.4s.5-21.8 12.7-31.3z"/><path class="st17" d="m-226 177.2-11.8 10.5s-46 4.6-67.1-3.9c-10.2-4.1-12.9-6.4-15.5-29.5 14.1 21.2 94.7-34 94.4 22.9z"/></g><circle transform="rotate(8.848 -275.835 239.403)" class="st34" cx="-275.9" cy="239.4" r="1.1"/><path class="st34" d="M-269.3 236.4c-.1.4-.5.7-.9.6-.4-.1-.7-.5-.7-.9.1-.4.5-.7.9-.6.4.1.7.5.7.9z"/><circle transform="rotate(8.885 -266.215 240.943)" class="st34" cx="-266.3" cy="240.9" r="1.1"/><ellipse transform="rotate(8.848 -263.475 236.15)" class="st34" cx="-263.4" cy="236.1" rx="1" ry=".9"/><circle transform="rotate(8.871 -258.857 239.902)" class="st34" cx="-258.9" cy="239.9" r="1.1"/><circle transform="rotate(8.848 -253.444 242.66)" class="st34" cx="-253.4" cy="242.7" r=".9"/><ellipse transform="rotate(8.871 -281.677 242.54)" class="st34" cx="-281.8" cy="242.6" rx="1" ry=".9"/><ellipse transform="rotate(8.859 -281.029 237.493)" class="st34" cx="-280.9" cy="237.4" rx="1" ry=".9"/><ellipse transform="rotate(8.899 -287.869 241.668)" class="st34" cx="-287.8" cy="241.6" rx="1" ry=".9"/></g><path d="M-316.8 223.5v.4c.1.4 2.3 11.5 3.5 14.6 1 2.5 3.9 7.2 7.8 7.2l20.7-.1c7.2 0 9.5-17.7 9.9-21.4.6-1.4 1.9-2.3 3.4-2.3 1.6 0 3 1 3.7 2.5.8 4.1 4.6 21.1 11.7 21.1l20.7-.1c3.9 0 6.4-4.7 7.2-7.2 1-3.1 2.2-14.2 2.2-14.6v-.4c-.2-4.3-3.4-7.9-7.3-7.9h-28l-20.8.2-28 .1c-3.9 0-6.9 3.6-6.7 7.9zm52.4-.8c.8-1.1 2.1-1.8 3.4-1.8h27c2.3 0 3.1 2 3.3 4.5-.2 1.3-.8 9.3-1.6 11.9-.7 2.2-1.4 5.2-4.3 5h-19.7c-4.1 0-7.6-11.4-8.7-17-.2-1.2.2-2.1.6-2.6zm-48.1 2.9c0-2.5 1.1-4.6 3.4-4.6h27c1.3 0 2.7.7 3.6 1.8.4.6 1 1.5.8 2.6-.6 5.7-3 17-7.1 17h-19.7c-3.2-.1-4.2-3.4-5-5.6-1.1-2.7-2.8-9.9-3-11.2z"/></g><path class="st9" d="m-255.8 250.5-31.5-1.3s4.5 9.9 12.4 11.3c10.5 2 18.5-7.5 19.1-10z"/><path d="M-241 234.2c0 1.4-1.1 2.5-2.5 2.5H-255c-1.4 0-2.5-1.1-2.5-2.5s1.1-2.5 2.5-2.5h11.5c1.4-.1 2.5 1.1 2.5 2.5zM-286 234.2c0 1.4-1.1 2.5-2.5 2.5H-300c-1.4 0-2.5-1.1-2.5-2.5s1.1-2.5 2.5-2.5h11.5c1.4-.1 2.5 1.1 2.5 2.5z"/><path id="XMLID_1703_" d="M-883.4 300.1s23.1 2.6 34.5 18.3c11.4 15.7 7.1 38.4 7.1 38.4s-23.1-2.6-34.5-18.3c-11.6-15.7-7.1-38.4-7.1-38.4z" style="fill:#59e293"/><path id="XMLID_1702_" d="M-800 319.5s.6 17.7-9.9 28c-10.5 10.4-28.2 9.5-28.2 9.5s-.6-17.7 9.9-28 28.2-9.5 28.2-9.5z" style="fill:#1ad86c"/><path id="XMLID_1701_" class="st31" d="M-833.6 288.3s15.2 17.4 13.1 36.8c-2.1 19.2-20.7 33-20.7 33s-15.2-17.4-13.1-36.8c2.2-19.4 20.7-33 20.7-33z"/><path id="XMLID_1700_" style="fill:#d7d5d5" d="M-866 353h66.3l-13.2 58.3h-40z"/><path id="XMLID_1699_" style="fill:#f9f9f9" d="M-880.9 353h58.9l-5.9 58.3h-40z"/><path style="fill:none;stroke:#e2e0e1;stroke-width:2;stroke-miterlimit:10" d="M-897 412h763"/><path d="M667.3 519.2c28.3-17.3 37.2-54.3 19.9-82.6-3.9-6.3-8.7-11.6-14.2-15.9 7.2-10.1 15.4-19.9 24.7-29.3 4.3-4.3 8.7-8.4 13.1-12.3 1.8 1.5 3.5 3 5.2 4.7l14.8-9c7.5-4.6 17.4-2.2 22 5.3l14.6 23.9c4.6 7.5 2.2 17.4-5.3 22l-14.8 9c3.3 11.2 4.9 22.7 4.7 34.1l16.7 4.7c8.5 2.4 13.5 11.2 11.1 19.7l-7.5 27c-2.4 8.5-11.2 13.5-19.7 11.1l-16.7-4.6c-4.4 7.5-9.7 14.5-15.9 21l9 14.8c4.6 7.5 2.2 17.4-5.3 22l-23.9 14.6c-7.5 4.6-17.4 2.2-22-5.3l-9-14.8c-8.6 2.6-17.4 4-26.2 4.5-5-18-7.3-36.9-6.6-55.9 10.7.1 21.5-2.7 31.3-8.7z" style="fill:#489aff"/><path class="st41" d="M643.9 588.9H91.4c-3.8 0-6.9-3.1-6.9-6.9V193.5c0-3.8 3.1-6.9 6.9-6.9h552.5c3.8 0 6.9 3.1 6.9 6.9V582c0 3.8-3.1 6.9-6.9 6.9z"/><path class="st42" d="M637.9 583.7H97.4c-3 0-5.5-2.5-5.5-5.5V197.3c0-3 2.5-5.5 5.5-5.5h540.5c3 0 5.5 2.5 5.5 5.5v380.8c0 3.1-2.5 5.6-5.5 5.6z"/><path d="M616.1 549.1h-497c-1.9 0-3.4-1.5-3.4-3.4v-332c0-1.9 1.5-3.4 3.4-3.4h497c1.9 0 3.4 1.5 3.4 3.4v332c0 1.9-1.5 3.4-3.4 3.4z" style="fill:#2f6dff"/><path class="st41" d="M70.7 568.1c-1.6 3-2.6 6.4-2.6 10.1 0 11.7 9.5 21.2 21.2 21.2H646c11.7 0 21.2-9.5 21.2-21.2 0-3.7-1-7.1-2.6-10.1H70.7z"/><path d="M70.7 588.2c3.6 6.6 10.5 11.2 18.6 11.2H646c8.1 0 15-4.6 18.6-11.2H70.7z" style="fill:#c8d6f2"/><path class="st45" d="M625.5 186.5H247.6v252.6c0 5.6 4.5 10.1 10.1 10.1h393.2V211.9c-.1-14-11.4-25.4-25.4-25.4z"/><path d="M701.1 437.8H264.2c-1.5 0-2.8-1.2-2.8-2.8V160c0-1.5 1.2-2.8 2.8-2.8h436.9c1.5 0 2.8 1.2 2.8 2.8v275.1c0 1.5-1.3 2.7-2.8 2.7z" style="opacity:.21;fill:#e3eaff"/><path class="st47" d="M718.8 418.9H281.9c-1.5 0-2.8-1.2-2.8-2.8V141c0-1.5 1.2-2.8 2.8-2.8h436.9c1.5 0 2.8 1.2 2.8 2.8v275.1c0 1.5-1.3 2.8-2.8 2.8z"/><path class="st45" d="M202.1 329.8H148c-1 0-1.7-.8-1.7-1.7v-56.6c0-1 .8-1.7 1.7-1.7h54.1c1 0 1.7.8 1.7 1.7V328c0 1-.8 1.8-1.7 1.8z"/><path class="st42" d="M198.7 417h-54.1c-1 0-1.7-.8-1.7-1.7v-56.6c0-1 .8-1.7 1.7-1.7h54.1c1 0 1.7.8 1.7 1.7v56.6c.1.9-.7 1.7-1.7 1.7zM198.7 502.3h-54.1c-1 0-1.7-.8-1.7-1.7V444c0-1 .8-1.7 1.7-1.7h54.1c1 0 1.7.8 1.7 1.7v56.6c.1.9-.7 1.7-1.7 1.7z"/><path class="st48" d="M184.3 465.7c0-7.6-6.1-13.7-13.7-13.7s-13.7 6.1-13.7 13.7c0 0-1.9 14.5 13.7 26 15.6-11.6 13.7-26 13.7-26z"/><path class="st47" d="M171.4 475.5c-6.1.5-11.2-4.6-10.7-10.7.4-4.8 4.3-8.7 9.1-9.1 6.1-.5 11.2 4.6 10.7 10.7-.4 4.9-4.3 8.8-9.1 9.1z"/><circle class="st48" cx="170.3" cy="386.2" r="18.9"/><circle class="st47" cx="170.3" cy="386.2" r="15.3"/><path d="M170.3 370.9c6.9 0 12.7 4.6 14.6 10.9.1.3.3.4.6.4.4 0 .7-.4.6-.8-2-6.8-8.3-11.8-15.8-11.8s-13.8 5-15.8 11.8c-.1.4.2.8.6.8.3 0 .5-.2.6-.4 1.9-6.3 7.7-10.9 14.6-10.9z" style="fill:#bb87ee"/><path d="M187.3 386.6c-.9 0-1.7.7-1.8 1.6-1 7.5-7.4 13.2-15.1 13.2-7.7 0-14.1-5.7-15.1-13.2-.1-.9-.9-1.6-1.8-1.6-1.1 0-2 1-1.8 2.1 1.2 9.2 9.2 16.4 18.7 16.4 9.6 0 17.5-7.1 18.7-16.4.1-1.1-.7-2.1-1.8-2.1z" style="fill:#7f57ee"/><circle class="st47" cx="170.3" cy="386.2" r="15.3"/><path class="st48" d="M185.2 391.1c-.3 0-.5.2-.6.4-2.2 5.8-7.7 9.9-14.3 9.9-6.5 0-12.1-4.1-14.3-9.9-.1-.2-.3-.4-.6-.4-.4 0-.7.4-.6.8 2.3 6.3 8.4 10.7 15.4 10.7 7.1 0 13.1-4.5 15.4-10.7.3-.4 0-.8-.4-.8zM170.3 387.5c-.4 0-.7-.3-.7-.7V376c0-.4.3-.7.7-.7.4 0 .7.3.7.7v10.7c0 .5-.3.8-.7.8z"/><path class="st48" d="M169.8 386.4c.3-.3.7-.3 1-.1l6.6 5.6c.3.3.3.7.1 1-.3.3-.7.3-1 .1l-6.6-5.6c-.4-.3-.4-.7-.1-1z"/><path class="st51" d="M169.9 371.9h.5v1.5h-.5zM169.9 398.7h.5v1.5h-.5zM156.1 385.8h1.5v.5h-1.5zM182.8 385.8h1.5v.5h-1.5z"/><path transform="rotate(-44.976 160.737 376.593)" class="st51" d="M160.5 375.9h.5v1.5h-.5z"/><path transform="rotate(-45.001 179.632 395.488)" class="st51" d="M179.4 394.8h.5v1.5h-.5z"/><path transform="rotate(-134.999 160.728 395.486)" class="st51" d="M160.5 394.8h.5v1.5h-.5z"/><path transform="rotate(-135.024 179.646 376.59)" class="st51" d="M179.4 375.9h.5v1.5h-.5z"/><path class="st42" d="M198.7 327.9h-54.1c-1 0-1.7-.8-1.7-1.7v-56.6c0-1 .8-1.7 1.7-1.7h54.1c1 0 1.7.8 1.7 1.7v56.6c.1.9-.7 1.7-1.7 1.7z"/><path class="st52" d="m140.2 321.7 4.7-3.3 2.2-7.8-2.4-.5-1.4 2.8 1.4-13.5-2.4.5-2.3 13-2.9 6.2 2.6 1.6M168.2 335.8l.7-5.7 6.9-7 1.6 2.2-2.5 2.9 13.2-3.2v2.9l-12.3 4.7-2.5 4.4z"/><path class="st53" d="m81.7 476.4 25.9 126.4 19.5-2.1-13.3-4.8 4.9-1.4-6.9-118.1z"/><path class="st53" d="M122.9 474.3s32.8 30.7 27.9 67.8c-5.6 29.3-17.5 40.5-17.5 40.5l-3.5-.7 5.4 14.3-15.7-16.8s19.4-26.7 7.3-54.5-38.3-37.7-38.3-37.7 22.5-20.4 24.1-19.9c1.8.5 10.3 7 10.3 7z"/><path class="st54" d="M136.9 316.9s-54 65.5-60.3 78.6c0 0-2.6 4.7-2.6 18.3s4.7 63.9 4.7 63.9l55 3.1s-17.8-61.3-18.3-62.9c-.5-1.6-9.4-11-17.8-13.1l46.1-83.3-6.8-4.6z"/><path class="st52" d="M102.7 398.6s2.3 6.8 3.6 10.9c0 0-11.2-.2-15.2-5.5l4.2-10 7.4 4.6z"/><path class="st52" d="M111.3 377.4s3.3 19.3 0 23.7c-3.3 4.4-14.7-3.1-19.5-10.1-4.7-7-5.7-22.9 2.4-24.2 8.1-1.3 15.2 3.5 17.1 10.6z"/><path class="st54" d="M106.2 413.2s43.3-27.2 46.8-32.8c3.5-5.6 13.3-47.1 13.3-47.1l8.4 2.1s-4.9 46.4-6.3 51.3c-1.4 4.9-44 50.3-53.7 50.3-9.9-.1-13.4-12.7-8.5-23.8z"/><path class="st53" d="M88 367.7s5.7-7.9 15.8-6 12.6-.3 12.6-.3-2.2 11.1-9.2 13.6c-7 2.5-8.8 1.9-8.8 1.9s3.8 3.8 4.7 6.6c.9 2.8-3.2-3.5-4.7-1.3-1.6 2.2 0 7 3.2 6.6 3.2-.3 1.3 2.2 0 4.7s-3.2 5.7-5.1 4.7c-1.9-.9-8.5-4.7-11.1-12.6-2.5-7.8-3.1-15.4 2.6-17.9z"/><path class="st41" d="M437.8 391.4H307.6c-.7 0-1.3-.6-1.3-1.3V168.9c0-.7.6-1.3 1.3-1.3h130.1c.7 0 1.3.6 1.3 1.3V390c.1.8-.5 1.4-1.2 1.4z"/><path class="st42" d="M414 204.6h-83.9c-.6 0-1-.5-1-1v-16.9c0-.6.5-1 1-1H414c.6 0 1 .5 1 1v16.9c0 .5-.4 1-1 1zM357.8 310h-17.1c-4 0-7.3-3.3-7.3-7.3s3.3-7.3 7.3-7.3h17.1c4 0 7.3 3.3 7.3 7.3s-3.2 7.3-7.3 7.3z"/><path class="st48" d="M407.1 310H390c-4 0-7.3-3.3-7.3-7.3s3.3-7.3 7.3-7.3h17.1c4 0 7.3 3.3 7.3 7.3s-3.2 7.3-7.3 7.3z"/><path class="st47" d="M327.2 223.6h92.3v14.5h-92.3zM327.2 248.2h92.3v14.5h-92.3z"/><path style="fill:#cdd4ff" d="M347.1 271.9h53.1v3.3h-53.1z"/><path class="st48" d="M712.6 350H546.7c-10.2 0-18.5-8.3-18.5-18.5s8.3-18.5 18.5-18.5h165.9c10.2 0 18.5 8.3 18.5 18.5s-8.3 18.5-18.5 18.5z"/><path class="st41" d="M568.9 193.2H465.6c-8.4 0-15.2-6.8-15.2-15.2 0-8.4 6.8-15.2 15.2-15.2h103.3c8.4 0 15.2 6.8 15.2 15.2 0 8.4-6.8 15.2-15.2 15.2z"/><circle class="st56" cx="485.5" cy="178.1" r="4.7"/><circle cx="518.1" cy="178.1" r="4.7" style="fill:#90c240"/><circle cx="548.1" cy="178.1" r="4.7" style="fill:#eb4f24"/><circle class="st9" cx="171.1" cy="301.5" r="11.5"/><path class="st48" d="M183 287.6h-2l-2.9-4.1c-.2-.3-.6-.5-1-.5h-11.7c-.4 0-.8.2-1 .5l-2.9 4.1h-2c-3.2 0-5.8 2.6-5.8 5.8v16.7c0 3.2 2.6 5.8 5.8 5.8H183c3.2 0 5.8-2.6 5.8-5.8v-16.7c0-3.2-2.6-5.8-5.8-5.8zM171.2 310c-4.7 0-8.5-3.8-8.5-8.5s3.8-8.5 8.5-8.5 8.5 3.8 8.5 8.5-3.8 8.5-8.5 8.5z"/><circle class="st42" cx="171.2" cy="301.6" r="5.6"/><path class="st41" d="M589.4 291.1h-97.6c-1.1 0-2-.9-2-2v-62.7c0-1.1.9-2 2-2h97.6c1.1 0 2 .9 2 2v62.7c0 1.1-.9 2-2 2z"/><path d="M540.7 257.2h-.2c-.5 0-.9-.1-1.3-.3L500 235.1c-1.3-.7-1.8-2.3-1-3.6.7-1.3 2.3-1.8 3.6-1l38 21.1 38-21.1c1.3-.7 2.9-.3 3.6 1 .7 1.3.3 2.9-1 3.6L542 256.8c-.4.3-.9.4-1.3.4z" style="fill:#fd4940"/><path class="st53" d="M738.7 284.2H616.3c-1 0-1.8-.8-1.8-1.8V123c0-1 .8-1.8 1.8-1.8h122.5c1 0 1.8.8 1.8 1.8v159.4c-.1 1-.9 1.8-1.9 1.8z"/><path class="st60" d="M642.6 143h-8.4c-.4 0-.8-.7-.8-1.6 0-.9.4-1.6.8-1.6h8.4c.4 0 .8.7.8 1.6 0 .9-.3 1.6-.8 1.6zM694.6 143h-48.1c-.4 0-.8-.7-.8-1.6 0-.9.4-1.6.8-1.6h48.1c.4 0 .8.7.8 1.6 0 .9-.3 1.6-.8 1.6z"/><path class="st61" d="M661.9 149.8h-15.3c-.4 0-.8-.7-.8-1.6 0-.9.4-1.6.8-1.6h15.3c.4 0 .8.7.8 1.6 0 .8-.4 1.6-.8 1.6z"/><path class="st41" d="M687.1 149.8H665c-.4 0-.8-.7-.8-1.6 0-.9.4-1.6.8-1.6h22.1c.4 0 .8.7.8 1.6 0 .8-.3 1.6-.8 1.6zM694.6 182.4h-48.1c-.4 0-.8-.7-.8-1.6 0-.9.4-1.6.8-1.6h48.1c.4 0 .8.7.8 1.6 0 .9-.3 1.6-.8 1.6z"/><path class="st60" d="M642.6 189.2h-8.4c-.4 0-.8-.7-.8-1.6 0-.9.4-1.6.8-1.6h8.4c.4 0 .8.7.8 1.6 0 .8-.3 1.6-.8 1.6z"/><path class="st41" d="M661.9 189.2h-15.3c-.4 0-.8-.7-.8-1.6 0-.9.4-1.6.8-1.6h15.3c.4 0 .8.7.8 1.6 0 .8-.4 1.6-.8 1.6z"/><path class="st61" d="M687.1 189.2H665c-.4 0-.8-.7-.8-1.6 0-.9.4-1.6.8-1.6h22.1c.4 0 .8.7.8 1.6 0 .8-.3 1.6-.8 1.6zM706.5 156.5h-60c-.4 0-.8-.7-.8-1.6 0-.9.4-1.6.8-1.6h60c.4 0 .8.7.8 1.6.1.8-.3 1.6-.8 1.6z"/><path class="st60" d="M694.6 163.2h-15.2c-.1 0-.2-.1-.2-.2v-2.8c0-.1.1-.2.2-.2h15.2c.1 0 .2.1.2.2v2.8c0 .1-.1.2-.2.2z"/><path class="st41" d="M666.5 163.2h-19.9c-.4 0-.8-.7-.8-1.6 0-.9.4-1.6.8-1.6h19.9c.4 0 .8.7.8 1.6 0 .9-.4 1.6-.8 1.6z"/><path class="st60" d="M677.1 163.2h-7.9c-.4 0-.8-.7-.8-1.6 0-.9.4-1.6.8-1.6h7.9c.4 0 .8.7.8 1.6 0 .9-.4 1.6-.8 1.6z"/><path class="st41" d="M642.6 169.7h-8.4c-.4 0-.8-.7-.8-1.6 0-.9.4-1.6.8-1.6h8.4c.4 0 .8.7.8 1.6 0 .8-.3 1.6-.8 1.6zM706.5 169.7h-60c-.4 0-.8-.7-.8-1.6 0-.9.4-1.6.8-1.6h60c.4 0 .8.7.8 1.6.1.8-.3 1.6-.8 1.6zM642.6 195.4h-8.4c-.4 0-.8-.7-.8-1.6 0-.9.4-1.6.8-1.6h8.4c.4 0 .8.7.8 1.6 0 .9-.3 1.6-.8 1.6zM700.6 195.4h-21.1c-.2 0-.3-.1-.3-.3v-2.7c0-.2.1-.3.3-.3h21.1c.2 0 .3.1.3.3v2.7c-.1.2-.2.3-.3.3zM666.5 195.4h-19.9c-.4 0-.8-.7-.8-1.6 0-.9.4-1.6.8-1.6h19.9c.4 0 .8.7.8 1.6 0 .9-.4 1.6-.8 1.6zM677.1 195.4h-7.9c-.4 0-.8-.7-.8-1.6 0-.9.4-1.6.8-1.6h7.9c.4 0 .8.7.8 1.6 0 .9-.4 1.6-.8 1.6z"/><path class="st62" d="M642.6 201.9h-8.4c-.4 0-.8-.7-.8-1.6 0-.9.4-1.6.8-1.6h8.4c.4 0 .8.7.8 1.6 0 .8-.3 1.6-.8 1.6z"/><path class="st60" d="M657 201.9h-10.4c-.4 0-.8-.7-.8-1.6 0-.9.4-1.6.8-1.6H657c.4 0 .8.7.8 1.6 0 .8-.4 1.6-.8 1.6zM634.2 176.4c-.4 0-.8-.7-.8-1.6 0-.9.4-1.6.8-1.6h8.4c.4 0 .8.7.8 1.6 0 .9-.4 1.6-.8 1.6"/><path class="st41" d="M703.4 176.4h-23.9c-.2 0-.3-.1-.3-.3v-2.7c0-.2.1-.3.3-.3h23.9c.2 0 .3.1.3.3v2.7c0 .2-.2.3-.3.3z"/><path class="st62" d="M666.5 176.4h-19.9c-.4 0-.8-.7-.8-1.6 0-.9.4-1.6.8-1.6h19.9c.4 0 .8.7.8 1.6 0 .9-.4 1.6-.8 1.6zM677.1 176.4h-7.9c-.4 0-.8-.7-.8-1.6 0-.9.4-1.6.8-1.6h7.9c.4 0 .8.7.8 1.6 0 .9-.4 1.6-.8 1.6z"/><path class="st41" d="M694.6 208.8h-48.1c-.4 0-.8-.7-.8-1.6 0-.9.4-1.6.8-1.6h48.1c.4 0 .8.7.8 1.6 0 .8-.3 1.6-.8 1.6zM661.9 215.5h-15.3c-.4 0-.8-.7-.8-1.6 0-.9.4-1.6.8-1.6h15.3c.4 0 .8.7.8 1.6 0 .9-.4 1.6-.8 1.6zM687.1 215.5H665c-.4 0-.8-.7-.8-1.6 0-.9.4-1.6.8-1.6h22.1c.4 0 .8.7.8 1.6 0 .9-.3 1.6-.8 1.6zM694.6 248.2h-48.1c-.4 0-.8-.7-.8-1.6 0-.9.4-1.6.8-1.6h48.1c.4 0 .8.7.8 1.6 0 .9-.3 1.6-.8 1.6z"/><path class="st61" d="M642.6 254.9h-8.4c-.4 0-.8-.7-.8-1.6 0-.9.4-1.6.8-1.6h8.4c.4 0 .8.7.8 1.6 0 .9-.3 1.6-.8 1.6z"/><path class="st60" d="M661.9 254.9h-15.3c-.4 0-.8-.7-.8-1.6 0-.9.4-1.6.8-1.6h15.3c.4 0 .8.7.8 1.6 0 .9-.4 1.6-.8 1.6z"/><path class="st41" d="M687.1 254.9H665c-.4 0-.8-.7-.8-1.6 0-.9.4-1.6.8-1.6h22.1c.4 0 .8.7.8 1.6 0 .9-.3 1.6-.8 1.6z"/><path class="st61" d="M642.6 222.2h-8.4c-.4 0-.8-.7-.8-1.6 0-.9.4-1.6.8-1.6h8.4c.4 0 .8.7.8 1.6 0 .9-.3 1.6-.8 1.6zM690.2 222.2H646c-.1 0-.3-.1-.3-.3v-2.7c0-.1.1-.3.3-.3h44.2c.1 0 .3.1.3.3v2.7c-.1.2-.2.3-.3.3z"/><path class="st41" d="M642.6 228.9h-8.4c-.4 0-.8-.7-.8-1.6 0-.9.4-1.6.8-1.6h8.4c.4 0 .8.7.8 1.6 0 .9-.3 1.6-.8 1.6zM666.5 228.9h-19.9c-.4 0-.8-.7-.8-1.6 0-.9.4-1.6.8-1.6h19.9c.4 0 .8.7.8 1.6 0 .9-.4 1.6-.8 1.6zM677.1 228.9h-7.9c-.4 0-.8-.7-.8-1.6 0-.9.4-1.6.8-1.6h7.9c.4 0 .8.7.8 1.6 0 .9-.4 1.6-.8 1.6zM642.6 235.4h-8.4c-.4 0-.8-.7-.8-1.6 0-.9.4-1.6.8-1.6h8.4c.4 0 .8.7.8 1.6 0 .9-.3 1.6-.8 1.6zM701.7 235.4H646c-.2 0-.3-.1-.3-.3v-2.6c0-.2.1-.3.3-.3h55.7c.2 0 .3.1.3.3v2.6c0 .2-.1.3-.3.3zM642.6 261.1h-8.4c-.4 0-.8-.7-.8-1.6 0-.9.4-1.6.8-1.6h8.4c.4 0 .8.7.8 1.6 0 .9-.3 1.6-.8 1.6zM706.5 261.1H680c-.4 0-.8-.7-.8-1.6 0-.9.4-1.6.8-1.6h26.5c.4 0 .8.7.8 1.6 0 .9-.4 1.6-.8 1.6zM666.5 261.1h-19.9c-.4 0-.8-.7-.8-1.6 0-.9.4-1.6.8-1.6h19.9c.4 0 .8.7.8 1.6 0 .9-.4 1.6-.8 1.6zM677.1 261.1h-7.9c-.4 0-.8-.7-.8-1.6 0-.9.4-1.6.8-1.6h7.9c.4 0 .8.7.8 1.6 0 .9-.4 1.6-.8 1.6z"/><path class="st62" d="M682.7 267.6H646c-.1 0-.2-.1-.2-.2v-2.8c0-.1.1-.2.2-.2h36.7c.1 0 .2.1.2.2v2.8c0 .1-.1.2-.2.2z"/><path class="st61" d="M704.8 242.1h-25.3c-.2 0-.3-.1-.3-.3v-2.6c0-.2.1-.3.3-.3h25.3c.2 0 .3.1.3.3v2.6c0 .2-.1.3-.3.3z"/><path class="st62" d="M666.5 242.1h-19.9c-.4 0-.8-.7-.8-1.6 0-.9.4-1.6.8-1.6h19.9c.4 0 .8.7.8 1.6 0 .9-.4 1.6-.8 1.6zM677.1 242.1h-7.9c-.4 0-.8-.7-.8-1.6 0-.9.4-1.6.8-1.6h7.9c.4 0 .8.7.8 1.6 0 .9-.4 1.6-.8 1.6z"/><circle cx="730.4" cy="124.6" r="26.5" style="fill:#ff4dd1"/><path class="st47" d="m728.4 122.1-10.5 3.9 10.5 3.8v4l-15.1-5.7V124l15.1-5.7v3.8zM731.9 118.1l15.1 5.7v4.1l-15.1 5.7v-4l10.5-3.8-10.5-3.9v-3.8z"/><circle class="st56" cx="554.8" cy="572.1" r="28.8"/><path class="st9" d="M570 570.5c0 1.8-.3 3.4-.9 4.9-.6 1.5-1.4 2.6-2.4 3.5-1 .8-2.3 1.3-3.6 1.3-.9 0-1.7-.2-2.4-.7-.7-.4-1.2-1-1.5-1.7h-.3c-1.3 1.6-3 2.4-5.1 2.4-2.2 0-3.9-.7-5.2-2-1.3-1.3-1.9-3.1-1.9-5.4 0-2.6.8-4.7 2.5-6.3 1.7-1.6 3.8-2.4 6.5-2.4 1.1 0 2.2.1 3.5.3 1.3.2 2.3.4 3.2.7l-.4 9.1c0 1.7.5 2.6 1.4 2.6.8 0 1.4-.6 1.9-1.7.5-1.2.7-2.7.7-4.6 0-2-.4-3.8-1.2-5.3-.8-1.5-2-2.7-3.5-3.5-1.5-.8-3.2-1.2-5.2-1.2-2.5 0-4.7.5-6.5 1.5-1.9 1-3.3 2.5-4.3 4.5-1 1.9-1.5 4.2-1.5 6.7 0 3.4.9 6.1 2.7 7.9 1.8 1.8 4.5 2.7 8 2.7 1.3 0 2.8-.1 4.3-.4 1.6-.3 3.1-.7 4.7-1.3v3.6c-2.7 1.1-5.6 1.7-8.8 1.7-4.7 0-8.4-1.2-11-3.7-2.6-2.5-4-5.9-4-10.4 0-3.1.7-5.8 2-8.4 1.3-2.5 3.3-4.5 5.8-5.9 2.5-1.4 5.4-2.1 8.6-2.1 2.7 0 5.2.6 7.3 1.7 2.1 1.1 3.8 2.7 5 4.8 1 2 1.6 4.4 1.6 7.1zm-19.1 2.3c0 2.6 1.1 3.9 3.2 3.9 1.1 0 2-.4 2.6-1.2.6-.8.9-2.1 1.1-3.8l.2-4.1c-.6-.1-1.3-.2-2.1-.2-1.6 0-2.8.5-3.6 1.5-.9.9-1.4 2.2-1.4 3.9z"/><path class="st48" d="M410.1 74H229.4c-14.7 0-26.6 11.9-26.6 26.6 0 14.7 11.9 26.6 26.6 26.6h13.3l12.8 12.8 12.8-12.8H410c14.7 0 26.6-11.9 26.6-26.6 0-14.7-11.8-26.6-26.5-26.6z"/><path class="st9" d="M358.4 109H239.5c-1.6 0-3-1.3-3-3 0-1.6 1.3-3 3-3h118.9c1.6 0 3 1.3 3 3s-1.4 3-3 3zM321.2 92.7h-81.7c-1.6 0-3-1.3-3-3 0-1.6 1.3-3 3-3h81.7c1.6 0 3 1.3 3 3s-1.3 3-3 3z"/><path class="st52" d="M657 410.6s-2.2 6.6-3.4 10.5c0 0 10.8-.2 14.6-5.3l-4-9.7-7.2 4.5z"/><path class="st64" d="m655.4 591.5.9 4.1 6 .3-1.3-5z"/><path class="st53" d="M656.3 595.6s-10 5.2-9.9 5.6c.1.3 16.9-1.4 16.9-1.4l-1-3.8-6-.4z"/><path class="st64" d="m705.9 583.2 2.3 3.5 5.7-1.9-3-4.2z"/><path class="st53" d="M708.2 586.7s-7.5 8.5-7.3 8.8c.2.3 15.3-7.4 15.3-7.4l-2.3-3.2-5.7 1.8z"/><path class="st56" d="M644.2 482.4s-17.2 56.1 10.1 110.2h8.1s-16.2-61.1 4-110.7l-22.2.5z"/><path class="st56" d="M659.2 484.4s2.7 58.6 46.5 100.4l7.6-2.7s-35.8-52.2-33.4-105.6l-20.7 7.9z"/><path class="st64" d="M651.3 352.4v-3.5c0-.2 0-.3-.1-.4l-.7-2.5-2 .5-2-1.9c-.8-.8-2.2-.5-2.7.5-.6 1.3-1.3 3-1.5 4.3-.1.5.1 1 .4 1.4l3.1 3.4c.4.5 1.1.7 1.7.5l2.5-.7c.8-.2 1.3-.9 1.3-1.6z"/><path class="st65" d="M680.9 428.2s-22.4-24-23.9-33-4.8-42.4-4.8-42.4l-6.9 1.3s-2.4 47.8-.3 53.3 15.6 33.6 24.3 36.2c8.9 2.6 15.1-6.1 11.6-15.4z"/><path class="st64" d="M649.8 388.6s-5.1 16.8-1.9 21.1c3.2 4.2 15 .4 19.6-6.4 4.6-6.8 5.5-22-2.3-23.3-7.8-1.3-13.6 1.8-15.4 8.6z"/><path class="st65" d="M680.1 487s4.5-48.5 4.5-61.6v-1.7c-3.4-8.5-11.8-8.4-15.1-7.7-3.4.7-16.5 4.9-16.4 5.4-4.5 3.3-8 7.2-8.3 8.1 0 0-12.1 25.3-1.5 55.6l36.8 1.9z"/><path class="st64" d="m615.9 354.8-.6-3.4c0-.1-.1-.3-.1-.4l-1.1-2.3-1.9.8-2.3-1.5c-1-.6-2.3-.1-2.6 1-.4 1.4-.8 3.2-.8 4.5 0 .5.3 1 .7 1.3l3.6 2.8c.5.4 1.2.5 1.8.2l2.3-1.1c.8-.4 1.1-1.1 1-1.9z"/><path class="st65" d="M658.4 424.3s-26.3-19.7-29.3-28.3c-3-8.6-12.1-40.9-12.1-40.9l-6.6 2.5s6.1 47.5 9.1 52.6c3 5.1 21.2 30.3 30.3 31.3 9.1 1 13.6-8.6 8.6-17.2z"/><path class="st53" d="M668.5 379.8s-13.5-5.7-19.9 6.1c-3.4 7.4 7.4.3 9.4 2.7 2 2.4-2.7 7.1-1.3 8.8 1.3 1.7 3.7-3 5.1-.3 1.3 2.7-2 3-4.4 6.1-2.4 3 2 7.4-1.3 10.1-3.4 2.7-12.8 4.7-7.1 19.2 5.7 14.5-9.4 18.2-3 38.1 6.4 19.9 49.9 31 57.9 7.4 8.1-23.6-18.9-29.3-17.2-39.8 1.7-10.4 7.7-13.1-.3-23.6-8.1-10.4-13.1-16.5-10.8-23.2 2.3-6.9-4.1-11.6-7.1-11.6z"/><path d="M705.2 298.4c-16 0-29 13-29 29s13 29 29 29 29-13 29-29-13-29-29-29zm-14.6 26.7c0-2 1.6-3.5 3.5-3.5s3.5 1.6 3.5 3.5c0 2-1.6 3.5-3.5 3.5s-3.5-1.5-3.5-3.5zm14.6 18.1c-4.7 0-8.5-3.5-9.1-8h18.2c-.5 4.5-4.4 8-9.1 8zm11.1-14.6c-2 0-3.5-1.6-3.5-3.5 0-2 1.6-3.5 3.5-3.5 2 0 3.5 1.6 3.5 3.5.1 2-1.5 3.5-3.5 3.5z" style="fill:#fec800"/><path class="st47" d="m275 533.4-1.7-3.4 45.9-23 57.9 1 62.9-23.7h48.1l51.2-17.1h.5l41.1 4.7 23.2-12.1 1.7 3.4-24.2 12.6-.6-.1-41.2-4.7-51.4 17.1h-48l-62.6 23.7h-.4l-57.4-1z"/><path class="st53" d="M443.5 442.4s45.5 73.7 39.8 125l31 .6-13.3-7.7 3.8-.6s-11.4-79.5-22.1-107.7c-11.3-29.5-14.5-18.6-14.5-18.6l-24.7 9z"/><path class="st53" d="M427.1 437.8s2.5 51.2-1.3 70.8c-3.8 19.6-15.2 58.1-15.2 58.1l29.1.6-7.6-5.4-4.8-2.8s20.7-55.6 22.6-82.2c1.9-26.5 5.1-41.7 5.1-41.7l-27.9 2.6z"/><path class="st52" d="m486.5 286.3 4.8-3.3 2.1-7.8-2.4-.5-1.4 2.8L491 264l-2.3.5-2.4 13-2.8 6.2 2.6 1.7M514.6 300.4l.6-5.7 7-7 1.6 2.2-2.6 2.9 13.3-3.2v2.9l-12.3 4.7-2.6 4.4z"/><path class="st42" d="M483.3 281.5s-54 65.5-60.3 78.6c0 0-2.6 4.7-2.6 18.3s4.7 63.9 4.7 63.9l55 3.1s-17.8-61.3-18.3-62.9c-.5-1.6-9.4-11-17.8-13.1l46.1-83.3-6.8-4.6z"/><path class="st52" d="M449.1 363.2s2.3 6.8 3.6 10.9c0 0-11.2-.2-15.2-5.5l4.2-10 7.4 4.6z"/><path class="st52" d="M457.6 342s3.3 19.3 0 23.7c-3.3 4.4-14.7-3.1-19.5-10.1-4.7-7-5.7-22.9 2.4-24.2 8.1-1.3 15.2 3.5 17.1 10.6z"/><path class="st42" d="M452.5 377.8s43.3-27.2 46.8-32.8c3.5-5.6 13.3-47.1 13.3-47.1l8.4 2.1s-4.9 46.4-6.3 51.3c-1.4 4.9-44 50.3-53.7 50.3-9.9-.1-13.4-12.7-8.5-23.8z"/><path class="st53" d="M454.5 337.7s2.2-7.6-2.5-11.4c-4.7-3.8-13-3.2-14.2-1.9 0 2.2 5.1 3.5 3.8 4.7-1.3 1.3-7.9 0-9.5 6.6-1.6 6.6.6 7.9.6 7.9s-3.5 4.1.6 9.8c4.1 5.7 13.4 10.4 15.7 9.8 2.3-.6 1-9.5 1-9.5s-5.4-.6-5.7-4.1c-.3-3.5 2.5-3.8 3.8-2.5 1.3 1.3 1.6 4.1 2.5 3.5.9-.6-.3-7.3-.3-7.3s3.6-2.8 4.2-5.6z"/><path class="st48" d="m480 531.3-32.5 8.9c-8.9 2.5-14.2 11.8-11.8 20.7l6.1 22.4c2.5 8.9 11.8 14.2 20.7 11.8l9.7-2.7 9.6 9.5 3.4-13 9.7-2.7c8.9-2.5 14.2-11.8 11.8-20.7l-6.1-22.4c-2.3-9-11.6-14.3-20.6-11.8z"/><circle class="st9" cx="454.9" cy="569" r="3.7"/><circle class="st9" cx="471.3" cy="564.5" r="3.7"/><circle class="st9" cx="487.7" cy="560" r="3.7"/><circle class="st56" cx="319.3" cy="508" r="6"/><circle class="st65" cx="539.9" cy="469.4" r="6"/></g></svg>