<svg version="1.1" id="Calque_1" xmlns="http://www.w3.org/2000/svg" x="0" y="0" viewBox="224 -163 848.6 726" style="enable-background:new 224 -163 848.6 726" xml:space="preserve"><style>.st2{fill:#5d4298}.st4{fill:#9b6d5c}.st6{fill:#96685a}.st16,.st9{fill:#fff}.st16{opacity:.2;enable-background:new}.st17{fill:#373737}.st18{fill:#c7c9c9}.st21{fill:#6db5b5}.st23{fill:#ec008c}.st24{fill:#5d4495}.st25{fill:#f9ac7f}.st26{fill:#fbc39d}.st27{fill:#fccfb2}.st29{fill:#e0e1e2}.st30{fill:#9e9ccc}.st31{fill:#32f98c}.st32{fill:#8486c1}.st34{fill:#9b4b10}</style><path class="st2" d="m-2412.8 535.9 77.7-31.1c-6.9-84.7-90.5-184.5-224.1-184.5s-217.8 99.8-224.6 184.5l77 31.1v394.6h294V535.9z"/><path d="M-2706.8 853.9v20.6c45 11.9 87-28.6 87-28.6l207 3v-31.5l-294 7.9v28.6z" style="opacity:7.000000e-002;fill:#2b2b2b;enable-background:new"/><path class="st4" d="M-2505.1 326.2c-7.5-1.8-11.9-2.4-21.2-3.7l-4.9-50.8-53.9-2-2.1 52.1c-11.1 1.1-17 2.1-25.9 4.2-.2 2.7 0 5 .1 7.8 1.3 33.1 26.5 58.8 56.2 57.3s52.8-29.5 51.5-62.7c.1-.4.2-1.7.2-2.2z"/><path d="m-2530.2 281.1 2.3 23.8c-9.5 1.5-20.6 2.9-31.5 2.7-9.5 0-18.7-1.1-27-2.3l1-25.5 55.2 1.3z" style="opacity:.1;fill:#1e1e1e;enable-background:new"/><path class="st6" d="M-2365.9 134.3c-.1 23.3-19 42-42.2 41.9s-41.9-19-41.8-42.3c.1-23.3 19-42 42.2-41.9 23.1.1 41.9 19 41.8 42.3zM-2676.6 140.8c-.1 23.3-19 42-42.2 41.9s-41.9-19-41.8-42.3c.1-23.3 19-42 42.2-41.9 23.2.2 41.9 19.1 41.8 42.3z"/><path class="st4" d="M-2402.3 131.9c.1 90.7-71.7 164.2-159.3 164.3-87.6.1-159.4-73.4-159.5-164.1l1.9-44.7c-.1-90.7 69.8-164.2 157.3-164.3 87.6-.1 157.5 73.4 157.6 164.1l2 44.7z"/><path d="M-2561.6 296.2c-87.6.1-159.4-73.4-159.5-164.1v-7.5c0-1.1.1-2.2 0-3.2l17.4 1.1s3.8 82.3 61.3 81c20.3-.5 46.9-27.3 82.1-27.8 36.8-.5 60.3 26.3 81.6 26.3 57.4-.1 58.8-83.4 58.8-83.4l17.3-1.3c0 1.3.1 2.7.3 4.2V132c0 90.6-71.7 164.2-159.3 164.2z" style="fill:#77564d"/><path d="M-2720.1 57.3c3.2-50.1 43.9-136.6 155.5-141.7 111.1 3.8 157.1 87.5 160.8 137.6 1.2 16.1 1.3 64 1.3 64l-17.3 1.3s6.6-147.5-82.2-122c-19.7 5.7-43.6 11.4-61.6 11.7-19.4 0-39.1-3.2-58.8-8.6-89-24.6-81.1 122.8-81.1 122.8l-17.4-1.1c-.2.1-.3-47.8.8-64z" style="fill:#4f3934"/><path class="st9" d="m-2486.6 211-135.8-2.5s23 48.4 67 48.4c43.4 0 66.8-36.2 68.8-45.9z"/><path d="M-2502 157.5c2.8 10 12.6 16 22.1 13.4 9.4-2.6 14.8-12.8 12.1-22.8-2.8-10-12.6-16-22.1-13.4-9.5 2.7-14.9 12.9-12.1 22.8zM-2648.1 157.5c2.8 10 12.6 16 22.1 13.4 9.4-2.6 14.8-12.8 12.1-22.8-2.8-10-12.6-16-22.1-13.4-9.4 2.7-14.9 12.9-12.1 22.8z"/><path d="M-2882.7 833.2h642c11.6 0 21.8-6.3 27.2-15.7H-2910c5.5 9.3 15.6 15.7 27.3 15.7z" style="fill:#bfbebe"/><path d="M-2914.2 801.7c0 5.7 1.6 11.1 4.2 15.7h696.5c2.7-4.6 4.2-10 4.2-15.7h-704.9z" style="opacity:.2;fill:#d6b4b4;enable-background:new"/><path d="M-2512.7 801.7c-2.4 3.5-6.5 5.9-11.1 5.9h-75.9c-4.6 0-8.7-2.3-11.1-5.9h-303.4c0 5.7 1.6 11.1 4.2 15.7h696.5c2.7-4.6 4.2-10 4.2-15.7h-303.4z" style="fill:#cecccc"/><path d="M-2599.7 807.6h75.9c4.6 0 8.7-2.3 11.1-5.9h-98.1c2.4 3.5 6.5 5.9 11.1 5.9z" style="fill:#a0a0a0"/><path d="M-2266 788.7c0 7.2-5.8 13-13 13h-565.5c-7.2 0-13-5.8-13-13V420.8c0-7.2 5.8-13 13-13h565.5c7.2 0 13 5.8 13 13v367.9z" style="fill:#141313"/><path style="opacity:.3;fill:#fff;enable-background:new" d="m-2691 407.8 213.1 393.9h109.4l-281.8-393.9z"/><path class="st16" d="M-2266 788.7V668.9l-139.2-261h-209l279.7 393.9h55.5c7.2-.1 13-5.9 13-13.1z"/><circle cx="-2561.7" cy="421.9" r="4.2"/><circle class="st16" cx="-2561.7" cy="421.9" r="1"/><path class="st17" d="M-2823.9 438.3h523.3v333.3h-523.3z"/><path class="st18" d="M-2823.9 438h523.3v24.8h-523.3z"/><circle class="st2" cx="-2809.6" cy="450.5" r="6.1"/><circle cx="-2789.9" cy="450.5" r="6.1" style="fill:#78c2c5"/><circle cx="-2770.2" cy="450.5" r="6.1" style="fill:#fced7e"/><path class="st9" d="M-2713.5 488.7c0 4.1-3.3 7.4-7.4 7.4h-41.1c-4.1 0-7.4-3.3-7.4-7.4 0-4.1 3.3-7.4 7.4-7.4h41.1c4.1 0 7.4 3.4 7.4 7.4z"/><path class="st21" d="M-2690.7 508.8c0 4.1-3.3 7.4-7.4 7.4h-41.1c-4.1 0-7.4-3.3-7.4-7.4 0-4.1 3.3-7.4 7.4-7.4h41.1c4 0 7.4 3.3 7.4 7.4z"/><path class="st9" d="M-2552.9 528.9c0 4.1-3.3 7.4-7.4 7.4h-146.2c-4.1 0-7.4-3.3-7.4-7.4 0-4.1 3.3-7.4 7.4-7.4h146.2c4.1 0 7.4 3.3 7.4 7.4z"/><path class="st2" d="M-2476.5 548.9c0 4.1-3.3 7.4-7.4 7.4h-222.6c-4.1 0-7.4-3.3-7.4-7.4 0-4.1 3.3-7.4 7.4-7.4h222.6c4.1 0 7.4 3.3 7.4 7.4z"/><path class="st18" d="M-2419.2 569c0 4.1-3.3 7.4-7.4 7.4h-279.9c-4.1 0-7.4-3.3-7.4-7.4 0-4.1 3.3-7.4 7.4-7.4h279.9c4.1 0 7.4 3.3 7.4 7.4z"/><path class="st21" d="M-2643 589.1c0 4.1-3.3 7.4-7.4 7.4h-88.8c-4.1 0-7.4-3.3-7.4-7.4 0-4.1 3.3-7.4 7.4-7.4h88.8c4.1-.1 7.4 3.3 7.4 7.4z"/><path class="st18" d="M-2658 609.1c0 4.1-3.3 7.4-7.4 7.4h-41.1c-4.1 0-7.4-3.3-7.4-7.4 0-4.1 3.3-7.4 7.4-7.4h41.1c4.1 0 7.4 3.3 7.4 7.4z"/><path class="st9" d="M-2598.1 609.1c0 4.1-3.3 7.4-7.4 7.4h-41.1c-4.1 0-7.4-3.3-7.4-7.4 0-4.1 3.3-7.4 7.4-7.4h41.1c4.1 0 7.4 3.3 7.4 7.4z"/><path class="st2" d="M-2619.8 629.2c0 4.1-3.3 7.4-7.4 7.4h-79.3c-4.1 0-7.4-3.3-7.4-7.4 0-4.1 3.3-7.4 7.4-7.4h79.3c4.1 0 7.4 3.3 7.4 7.4z"/><path class="st9" d="M-2581.6 649.2c0 4.1-3.3 7.4-7.4 7.4h-117.5c-4.1 0-7.4-3.3-7.4-7.4 0-4.1 3.3-7.4 7.4-7.4h117.5c4.1 0 7.4 3.3 7.4 7.4z"/><path class="st18" d="M-2658 669.3c0 4.1-3.3 7.4-7.4 7.4h-41.1c-4.1 0-7.4-3.3-7.4-7.4 0-4.1 3.3-7.4 7.4-7.4h41.1c4.1 0 7.4 3.3 7.4 7.4z"/><path class="st21" d="M-2658 689.4c0 4.1-3.3 7.4-7.4 7.4h-41.1c-4.1 0-7.4-3.3-7.4-7.4 0-4.1 3.3-7.4 7.4-7.4h41.1c4.1 0 7.4 3.3 7.4 7.4z"/><path class="st2" d="M-2469.1 689.4c0 4.1-3.3 7.4-7.4 7.4h-170c-4.1 0-7.4-3.3-7.4-7.4 0-4.1 3.3-7.4 7.4-7.4h170c4.1 0 7.4 3.3 7.4 7.4z"/><path class="st9" d="M-2399.8 689.4c0 4.1-3.3 7.4-7.4 7.4h-50.6c-4.1 0-7.4-3.3-7.4-7.4 0-4.1 3.3-7.4 7.4-7.4h50.6c4.1 0 7.4 3.3 7.4 7.4z"/><path class="st18" d="M-2690.7 709.4c0 4.1-3.3 7.4-7.4 7.4h-41.1c-4.1 0-7.4-3.3-7.4-7.4 0-4.1 3.3-7.4 7.4-7.4h41.1c4 0 7.4 3.3 7.4 7.4z"/><path class="st2" d="M-2658 729.5c0 4.1-3.3 7.4-7.4 7.4h-41.1c-4.1 0-7.4-3.3-7.4-7.4 0-4.1 3.3-7.4 7.4-7.4h41.1c4.1 0 7.4 3.3 7.4 7.4z"/><path class="st18" d="M-2552.9 749.5c0 4.1-3.3 7.4-7.4 7.4h-146.2c-4.1 0-7.4-3.3-7.4-7.4 0-4.1 3.3-7.4 7.4-7.4h146.2c4.1 0 7.4 3.4 7.4 7.4z"/><path class="st4" d="m-2221 658.9-45 40.1v-44.1z"/><path style="opacity:.1;fill:#2b2b2b;enable-background:new" d="m-2266 661.8 30.5 10.1 12.4-11.9-33.1-6.5z"/><path class="st4" d="M-2284.2 582.9c-13 1.5-57.8 4.9-57.8 4.9-7.4.9-13.2 7.7-12.3 15 .9 7.1 7.2 12.3 14.3 11.8.2 0 38-2.7 38.2-2.7-7.4.9-12.6 7.6-11.7 14.9.9 7.3 7.6 12.6 14.9 11.7-7.4.9-12.4 7.5-11.6 14.9.9 7.4 7.7 12.6 15.1 11.7l6.7-.8c1-.1 11.4-1.2 24.8-2.7 14.4-.6 26.3-1 33.7-.3h-.1c29 1.5 28.8-71.3 2.1-78.2-15.6-4.3-36.8-3.2-56.3-.2zM-2756.5 790.5c1.1-13.7 1.7-21.3 1.7-21.3.7-7.7 7.6-14.1 15.4-13.4 7.7.7 13.5 7.6 12.8 15.3.7-7.7 7.5-13.4 15.3-12.8 7.7.7 13.5 7.5 12.8 15.3.7-7.7 7.5-13.3 15.2-12.6s13.4 7.7 12.7 15.4l-.6 7c-.1 1.1-.9 12-2 26.1-.2 15.2.8 20.3.8 20.3 2.5 30.4-73.8 32.5-82 4.7-5.1-16.1-4.5-23.4-2.1-44z"/><path id="Hair" class="st23" d="M442.6 71.6C438.3 47.9 421.5 24 383 21.2v-.1H373.7v.1c-43.3 2.9-58.6 23.4-62 50.2-3.8 30.1-4.1 146.3-3.8 159.2 4 20.2 13.1 22.6 25.7 35.1 12.4 12.4 28.1 19.8 45.2 19.8 16.6 0 28.2-23.9 40.5-35.7 11.7-11.4 24.5-10.1 29.1-28.3 0-16.5-.1-117.5-5.8-149.9z"/><path class="st24" d="M466.7 258.8 300.1 256v-17.7c0-29 35.6-55.9 70.5-55.9h26.3c31 0 69.7 27.2 69.7 52.8v23.6h.1z"/><path class="st25" d="M365.2 170.6s1.3 9.4 16 9.4 16-9.4 16-9.4h-32z"/><path class="st26" d="M390.4 149.7H372c-3.7 0-6.8 3.1-6.8 6.8v28.8c0 8.8 7.1 16 16 16s16-7.1 16-16v-28.8c-.1-3.7-3.1-6.8-6.8-6.8z"/><g id="Girl_2_"><g id="Head_3_"><path class="st27" d="M437.6 109c.5 32-25 58.5-57.2 59.1-32 .5-58.5-25-59.1-57.2l-.4-21.7c-.5-32 25-58.5 57.2-59.1 32-.5 58.5 25 59.1 57.2l.4 21.7z"/><circle class="st27" cx="319.5" cy="109.9" r="15.6"/></g><path d="M262.6 63c0 4.5 2.9 8.2 6.6 8.2l55 .1c3.7 0 6.6-3.6 6.6-8.2 0-4.5-2.9-8.2-6.6-8.2l-55-.1c-3.7.1-6.6 3.7-6.6 8.2z" style="fill:#463272"/><path class="st2" d="M442.3 71.5c.1-32-25.9-57.9-57.9-58.1H369c-32-.1-57.6 25.8-57.7 57.8l131 .3z"/><path class="st27" d="m373.5 62.3 34.3-.1c.1-8.7-6.5-15.6-14.8-15.6h-4c-8.5 0-15.4 7-15.5 15.7z"/><path class="st23" d="M344 71s-11.7 45.7-15.6 95.5l-9.1-1.4s-4.2-62.3 1.7-94.1h23z"/></g><ellipse transform="rotate(74.592 410.256 115.418)" cx="410.3" cy="115.4" rx="6.9" ry="6.6"/><ellipse transform="rotate(74.592 356.149 115.425)" cx="356.2" cy="115.4" rx="6.9" ry="6.6"/><path class="st9" d="m363.9 135.9 39.4-1.5s-5.6 12.4-15.4 14.2c-13.2 2.3-23.3-9.6-24-12.7z"/><path class="st29" d="M481.1 348.9H281.5c-6.4 0-11.6-5.2-11.6-11.6V222.7c0-6.4 5.2-11.6 11.6-11.6h199.7c6.4 0 11.6 5.2 11.6 11.6v114.6c-.1 6.5-5.3 11.6-11.7 11.6z"/><path class="st9" d="M378.6 295.6c-8.6 0-15.6-7-15.6-15.6s7-15.6 15.6-15.6 15.6 7 15.6 15.6-7 15.6-15.6 15.6z"/><path class="st24" d="M737.3 258.8 570.7 256v-17.7c0-29 35.6-55.9 70.5-55.9h26.3c31 0 69.7 27.2 69.7 52.8v23.6h.1z"/><path class="st26" d="M660.9 149.7h-18.4c-3.7 0-6.8 3.1-6.8 6.8v28.8c0 8.8 7.1 16 16 16s16-7.1 16-16v-28.8c0-3.7-3.1-6.8-6.8-6.8z"/><path class="st25" d="M635.8 170.6s1.3 9.4 16 9.4 16-9.4 16-9.4h-32z"/><path class="st29" d="M751.7 348.9H552.1c-6.4 0-11.6-5.2-11.6-11.6V222.7c0-6.4 5.2-11.6 11.6-11.6h199.7c6.4 0 11.6 5.2 11.6 11.6v114.6c-.1 6.5-5.3 11.6-11.7 11.6z"/><path class="st9" d="M649.2 295.6c-8.6 0-15.6-7-15.6-15.6s7-15.6 15.6-15.6 15.6 7 15.6 15.6-7.1 15.6-15.6 15.6z"/><path class="st30" d="M711.9 96.6c0 31.7-28.2 57.2-63 57.2s-63-25.7-63-57.2c0-31.3 27.3-59.1 62-57.2h2c34.3-1.7 62 25.9 62 57.2z"/><path class="st31" d="M597.2 136.9s-11.6 16.2 1.1 41c-1.4-13.7-5.2-24.8 5.5-41s-4.6-5.4-6.6 0z"/><g id="Girl_1_"><g id="Head_1_"><path class="st26" d="M702 122.1c.5 28.5-22.2 51.9-50.8 52.5-28.5.5-51.9-22.2-52.5-50.8l-.3-19.3c-.5-28.5 22.2-51.9 50.8-52.5 28.5-.5 51.9 22.2 52.5 50.8l.3 19.3z"/><circle class="st26" cx="597.1" cy="123" r="13.9"/></g></g><path class="st9" d="m676.6 142.2-44.8-.9s7.7 16 22.1 16c14.3.1 22.1-11.8 22.7-15.1z"/><ellipse transform="rotate(74.592 677.168 123.08)" cx="677.2" cy="123.1" rx="6.1" ry="5.9"/><ellipse transform="rotate(74.592 629.023 123.09)" cx="629.1" cy="123.1" rx="6.1" ry="5.9"/><path class="st30" d="M609.9 30.6c7.4 7.7 7.1 19.9-.5 27.3l-16.8 16.3c-7.7 7.4-19.9 7.1-27.3-.5-7.4-7.7-7.1-19.9.5-27.3 4.2-4.1 12.6-12.3 16.8-16.3 7.6-7.4 19.9-7.3 27.3.5zM688.8 30.4c7.5-7.7 19.8-7.7 27.3-.1 4.2 4.1 12.5 12.4 16.7 16.5 7.7 7.5 7.7 19.8.1 27.3-7.5 7.7-19.8 7.7-27.3.1l-16.7-16.5c-7.7-7.5-7.7-19.8-.1-27.3z"/><path class="st31" d="M696.5 105.9s11 41.9 0 76.5c8.9-9.3 16.9-50.7 0-76.5z"/><path class="st30" d="m652.1 68.3-55 58.1s-.6-6.9-.9-16.2c-.4-17.6.5-43.8 10-49 14.3-8 45.4-16.8 45.4-16.8s37.4 8.9 44.9 27.1c7.7 18.1 7.7 50.7 7.7 50.7s-33.3-42.6-52.1-53.9z"/><path class="st23" d="M712.9 27.8s-24.6 11.6-21.4 32.9l11.6 11.5c0-.1-4.1-35.4 9.8-44.4z"/><path class="st32" d="m722.8 36.9 11.4 11.4s.4 22.2-23.1 29.4c7.3-6.4 17.1-22.2 11.7-40.8zM612.1 54.8s.5-20.8-28.8-25.3l-9.7 9.3c-.1 0 31.9-1.5 38.5 16z"/><path class="st31" d="m604.5 62.3-14.8 14.2s-27.1-7.1-25.7-28.3c5.8 8.2 21.6 17.4 40.5 14.1z"/><path class="st32" d="M651.5 47s20.7-2 34.3 6.9c-8.8-.1-32.8 5.7-32.8 5.7s-.4-7.9-1.5-12.6z"/><path class="st31" d="M656.3 65.3s42 9.8 54.6 40.7c-1.4 7.7-3.2 10.8-3.2 10.8s-22.8-41.4-51.4-51.5z"/><path class="st23" d="M648.8 59.6s-50.4 12.4-52.6 48.6l52.6-48.6z"/><path class="st32" d="M647.7 41.2s2.4 4.6 2.4 12l-40.7 4.7s13.2-13.5 38.3-16.7z"/><path class="st30" d="M648.8 39.4s6.1-10.7 23.6-5c-7.4.1-13.4 3.1-14.7 5.9-1.4 2.7-7.2 1.2-8.9-.9zM648.8 39.4s-8.2-7.7-19-3.7c6.3.5 11.7 4.7 11.9 5.5-1.1-.9 7.1-1.8 7.1-1.8z"/><path class="st24" d="M1007.8 258.8 841.3 256v-17.7c0-29 35.6-55.9 70.5-55.9H938c31 0 69.7 27.2 69.7 52.8v23.6h.1z"/><path class="st26" d="M931.5 149.7h-18.4c-3.7 0-6.8 3.1-6.8 6.8v28.8c0 8.8 7.1 16 16 16 8.8 0 16-7.1 16-16v-28.8c0-3.7-3.1-6.8-6.8-6.8z"/><path class="st25" d="M906.4 170.6s1.3 9.4 16 9.4 16-9.4 16-9.4h-32z"/><path class="st29" d="M1022.3 348.9H822.6c-6.4 0-11.6-5.2-11.6-11.6V222.7c0-6.4 5.2-11.6 11.6-11.6h199.7c6.4 0 11.6 5.2 11.6 11.6v114.6c0 6.5-5.3 11.6-11.6 11.6z"/><path class="st9" d="M919.8 295.6c-8.6 0-15.6-7-15.6-15.6s7-15.6 15.6-15.6 15.6 7 15.6 15.6-7.1 15.6-15.6 15.6z"/><g id="Nerd_1_"><g id="Head_8_"><g id="teen_1_"><ellipse transform="rotate(87.56 862.962 113.84)" cx="863" cy="113.8" rx="16.1" ry="16" style="fill:#efc3ab"/><path class="st27" d="M862.1 118.1c1.4 32.9 29.2 58.5 62.2 57.1 32.9-1.4 58.5-29.2 57.1-62.2l-.9-22.2c-.5-13.3.1-32-7.7-41.6C961.3 35 938 32.9 918.3 33.8 885.4 35.2 859.8 63 861.2 96l.9 22.1z"/><ellipse transform="rotate(87.561 981.958 111.151)" class="st27" cx="982" cy="111.2" rx="16.1" ry="16"/><path class="st17" d="M976.3 104.3s1.8-1.1 3.2-2.6c0 0 7.7-18.4 4.1-31.3-1.3-5.7-5.1-13-10-20.2l-14.9 13.4c6.1 8.8 14.5 19.7 17.6 40.7zM877.9 58.7l-11.7-4.5s-11.4 16.1-5.9 43.9l1.4.5c0 .1.6-27.8 16.2-39.9z"/><path class="st17" d="m973.2 49.8-15.1 13.4s-58.7 5.9-85.6-5c-13-5.2-16.5-8.2-19.8-37.7 18.1 27.1 120.9-43.3 120.5 29.3z"/></g><circle class="st34" cx="909.6" cy="129.2" r="1.4"/><path class="st34" d="M918 125.3c-.1.5-.6.9-1.1.8s-.9-.6-.9-1.1c.1-.5.6-.9 1.1-.8s.9.6.9 1.1z"/><circle class="st34" cx="921.8" cy="131.1" r="1.4"/><ellipse transform="rotate(-81.153 925.527 124.942)" class="st34" cx="925.5" cy="124.9" rx="1.1" ry="1.3"/><circle class="st34" cx="931.2" cy="129.8" r="1.4"/><circle class="st34" cx="938.3" cy="133.4" r="1.1"/><ellipse transform="rotate(-81.129 902.01 133.256)" class="st34" cx="902" cy="133.3" rx="1.1" ry="1.3"/><ellipse transform="rotate(-81.141 903.205 126.597)" class="st34" cx="903.2" cy="126.6" rx="1.1" ry="1.3"/><ellipse transform="rotate(-81.101 894.387 131.977)" class="st34" cx="894.4" cy="132" rx="1.1" ry="1.3"/></g><path d="M857.4 108.9v.6c.1.5 2.9 14.7 4.5 18.6 1.3 3.2 5 9.2 10 9.2l26.4-.1c9.2 0 12.1-22.6 12.6-27.3.8-1.8 2.4-2.9 4.3-2.9 2 0 3.8 1.3 4.7 3.2 1 5.2 5.9 26.9 14.9 26.9l26.4-.1c5 0 8.2-6 9.2-9.2 1.3-4 2.8-18.1 2.8-18.6v-.6c-.3-5.5-4.3-10.1-9.3-10.1h-35.8l-26.5.3-35.7.1c-5-.1-8.8 4.5-8.5 10zm66.8-1.1c1-1.4 2.7-2.3 4.3-2.3H963c2.9 0 4 2.6 4.2 5.7-.3 1.7-1 11.9-2 15.2-.9 2.8-1.8 6.6-5.5 6.4h-25.1c-5.2 0-9.7-14.5-11.1-21.7-.3-1.5.2-2.6.7-3.3zm-61.4 3.7c0-3.2 1.4-5.9 4.3-5.9h34.5c1.7 0 3.4.9 4.6 2.3.5.8 1.3 1.9 1 3.3-.8 7.3-3.8 21.7-9.1 21.7H873c-4.1-.1-5.4-4.3-6.4-7.1-1.3-3.4-3.5-12.6-3.8-14.3z"/></g><path class="st9" d="m935.2 143.3-40.2-1.7s5.7 12.6 15.8 14.4c13.4 2.6 23.6-9.5 24.4-12.7z"/><path d="M954.1 122.5c0 1.8-1.4 3.2-3.2 3.2h-14.7c-1.8 0-3.2-1.4-3.2-3.2 0-1.8 1.4-3.2 3.2-3.2h14.7c1.8-.1 3.2 1.4 3.2 3.2zM896.7 122.5c0 1.8-1.4 3.2-3.2 3.2h-14.7c-1.8 0-3.2-1.4-3.2-3.2 0-1.8 1.4-3.2 3.2-3.2h14.7c1.8-.1 3.2 1.4 3.2 3.2z"/><path id="XMLID_1703_" d="M509.1 275.4s23.1 2.6 34.5 18.3c11.4 15.7 7.1 38.4 7.1 38.4s-23.1-2.6-34.5-18.3c-11.6-15.7-7.1-38.4-7.1-38.4z" style="fill:#59e293"/><path id="XMLID_1702_" d="M592.5 294.8s.6 17.7-9.9 28c-10.5 10.4-28.2 9.5-28.2 9.5s-.6-17.7 9.9-28 28.2-9.5 28.2-9.5z" style="fill:#1ad86c"/><path id="XMLID_1701_" class="st31" d="M558.9 263.6s15.2 17.4 13.1 36.8c-2.1 19.2-20.7 33-20.7 33s-15.2-17.4-13.1-36.8c2.2-19.4 20.7-33 20.7-33z"/><path id="XMLID_1700_" style="fill:#d7d5d5" d="M526.5 328.3h66.3l-13.2 58.3h-40z"/><path id="XMLID_1699_" style="fill:#f9f9f9" d="M511.6 328.3h58.9l-5.9 58.3h-40z"/></svg>