<svg version="1.1" id="Layer_1" xmlns="http://www.w3.org/2000/svg" x="0" y="0" viewBox="0 0 100 100" style="enable-background:new 0 0 100 100" xml:space="preserve"><style>.st0{fill:#1c1c1b}.st3{fill:#b18c5d}.st4{fill:#eea1a1}.st5{fill:#3a6}.st6{fill:#ecc8a4}.st7{opacity:.11;fill:#1c1c1b}</style><path class="st0" d="M85.8 71.7c.8 3-1.3 5.5-3.7 6.9-6.4 3.7-14.6 4.9-21.8 5.6-7.9.8-15.9.7-23.8-.1-6.9-.7-14.4-2.2-20-6.5-1.9-1.4-3.1-3.4-2.2-5.7 1-2.5 3.6-3.6 6-4.4.1-.8.1-1.6.1-2.4.1-2.3.1-4.7.3-7 0-.1 0-.1.1-.2-.3-.2-.6-.4-.8-.8-2-1.9-1.7-5.1-1.5-7.6.2-2.9.3-6.4 2.1-8.8 2-2.7 6-3.2 9.1-3.9 4-.9 8.1-1.5 12.3-1.7-2.9-3.4-5.6-6.9-8.3-10.4-.1-.2-.1-.4.1-.5v-.1c.6-3.4 4.8-5.3 7.7-6.5 4.3-1.9 9-2.7 13.8-2.5.2 0 .3.1.4.3.2-.1.5 0 .4.3-.1 4.1-.4 8.2-.6 12.2.7.2 1.3.6 1.8 1.1 1-2.1 3-3.7 5.3-4.1.1 0 .2 0 .2.1.1-.1.1-.1.2-.1.6.2 1 .7 1.2 1.3.1.4.1 1.1-.3 1.3 0 .2-.1.4-.3.4-2.2-.1-4 1-5.3 2.7 0 0 0 .1.1.1l.1-.1c1-.1 2.1-.1 3 .5 1.1.7 1 2.4 2.3 2.8.4.1.3.6-.1.6-.4.1-.9.1-1.4.1.1.1.1.2.2.4 3.1.3 6.1 1 9.1 1.8 2.2.6 4.6 1.2 6.4 2.7 3.5 3 3.4 10.2 3 14.4-.2 2.2-1.1 4.2-2.7 5.3 0 0 0 .1.1.2.3 2.2.5 4.5.6 6.9 2.7.9 6 2.2 6.8 5.4zM82 77.5c2.6-1.6 4.1-4.9 1.9-7.5-1.3-1.5-3.2-2.2-5-2.7 0 1.7-.1 3.3-.3 4.9-.5 3-3.4 3.7-6 4.4-8 2.3-16.3 3.1-24.6 3.1-7.8 0-15.8-.6-23-3.7-2.1-.9-4.5-1.7-4.7-4.3-.1-1.2-.1-2.4 0-3.6-1.9.8-4 1.7-4.9 3.7-1.3 2.8.9 4.5 3 5.9 3.1 1.9 6.5 3.2 10 4 6.8 1.7 14.1 1.9 21.1 1.9 7.4 0 14.8-.5 22-2.3 3.4-.8 7.4-1.8 10.5-3.8zm-6.8-18.1c5.4.1 5-6.7 4.8-10.4-.2-2.2-.3-5.1-1.4-7.1-1.1-2-3.3-3-5.4-3.6-3.5-1.1-7.1-1.7-10.7-2.5.2 1.9-1.8 3.7-3.6 4.3 1.2.3 2.4.4 3.7-.3.4-.2.8.4.4.7-1.7 1-3.5.7-5.4 0-3.5-1.4-6.4-2.7-9.8-.1h-.1c-1.3 1.2-3.3 1.3-5 .6-.3-.1-.1-.7.2-.6 1.3.4 2.5.3 3.6-.1-1.5-1.5-2.9-3-4.3-4.7-6 .7-12.7 1.2-18.3 3.5-3.6 1.5-4.3 4.9-4.6 8.4-.3 2.8-1.1 7.1 1.3 9.2.1.1.1.3 0 .4 3.1 1.9 6-3.3 6.7-5.8.1-.5.8-.3.7.2 0 .2-.1.3-.1.5-.3 1.4.5 3 2.2 2.9 1.5-.1 2.1-1.8 2.4-3 .1-.2.3-.3.5-.2.2-.1.4 0 .4.2-.2 3.2 1.4 6.3 4.9 6.7 4 .4 5.9-3 6.7-6.3 0-.2.1-.2.2-.3.2-.2.5-.1.5.2 0 1.2 1 2.4 2.3 2.3 1.2-.1 2.1-1.3 2.3-2.5 0-.3.3-.4.5-.4.2-.2.5-.1.6.1 1 3.8 3.8 6.8 7.9 6.7 4.3-.2 7.2-3.8 7.3-7.9 0-.3.3-.4.5-.3.2-.1.5 0 .5.2 1 4.1 2.8 9 7.6 9zm-3.8 6c2.5-.2 4.1 2 6.5 1.8v-1.5c-2.4-.1-4.1-1.7-6.4-2.2-3.9-1-5.9 1.5-8.6 3.6-3 2.3-5.9 1.2-8.9-.2-1.3-.6-2.7-1.3-4-1.8-3.7-1.2-6.9.2-9.9 2.2-1.8 1.2-3.6 2.4-5.8 2.2-1.9-.1-3.3-1.1-4.5-2.5-.9-1-1.6-2.3-2.9-3-1.8-1-3.8-.7-5.5.3h-.1c0 .8-.1 1.6-.1 2.4 2.4-3.6 6.7.5 8.7 2.4 6.2 5.8 11.1-2.7 17.5-2.6 2.1 0 4 .9 5.9 1.7l.6.3c3.7 1.6 7.3 2.5 11 .3 2.2-1.3 3.9-3.1 6.5-3.4zm6.4 5c.1-.8.1-1.6.1-2.4-2 .2-3.1-1.3-5-1.7-3.5-.6-5.7 2.4-8.5 3.7-4.5 2.1-8.4.1-12.5-1.6-3.5-1.4-6.4-1.2-9.6.6-2.3 1.3-4.5 2.8-7.1 3-1.7.1-3.1-.4-4.4-1.4-.9-.7-1.7-1.6-2.5-2.4-.7-.7-1.4-1.3-2.3-1.8-1.3-.6-3.4-.5-4.3.9-.1.1-.1.1-.2.1 0 .6 0 1.1-.1 1.7 0 .7-.3 2-.1 2.6.3 1.1 1.7 2.2 2.6 2.7 1.5.9 3.5 1.5 5.2 2 6.2 1.9 12.7 2.3 19.1 2.2 7.1 0 14.2-.6 21.1-2.2 1.5-.4 3.1-.8 4.6-1.3 1.3-.4 2-.6 3-1.7.8-.9.8-1.7.9-3zm0-5.3c-.1-1.8-.2-3.6-.3-5.3-.9.4-1.9.6-3.1.4-4.1-.5-6.1-4.2-7.1-7.8-.6 3.8-3.6 6.8-7.6 7.2-4.1.4-7.9-2.4-8.8-6.4-.5 1.3-1.5 2.3-3 2.3-1 0-2-.6-2.5-1.5-1 3.3-3.5 6.1-7.3 5.6-2.9-.3-5.2-2.7-5.4-5.5-.6 1.1-1.6 1.9-3 1.8-1.1-.1-1.9-.9-2.3-1.8-.7 1.5-1.7 2.9-3 3.7-.9.6-2 .8-3 .5 0 1.8 0 3.7-.1 5.5 1.5-1.1 3.4-1.3 5.2-.7 2.2.8 3 3 4.7 4.4 3.5 2.8 6.7.2 9.8-1.8 2-1.3 4.2-2 6.6-1.9 2.6.2 4.7 1.5 7.1 2.6 2 1 4.3 1.7 6.5.7 1.5-.7 2.4-2.1 3.8-3.1 1.6-1.1 3.5-1.7 5.5-1.5 2.6.3 4.6 2.3 7.3 2.6zM63.5 27.3c.1 0 .1-.4.1-.5 0-.2-.1-.3-.1-.5-.2-.3-.4-.5-.8-.6h-.1c-.2.3-.2.6 0 .9.1.2.2.3.4.4.1 0 .4.4.5.3zm-.7.2c-.3-.2-.6-.5-.7-.8-.1-.3-.1-.6-.1-.9-2.1.7-3.8 2-4.8 4.1-.1.2-.5.1-.4-.2-1.3-.8-2.6-1.3-4.2-1-.7.2-1.3.5-2 .7 1.2.4 2.4 1 3.5.8l.2-.2c.1-.2.3-.1.4 0 .1 0 .1 0 .2-.1.3-.2.6.3.3.5s-.5.3-.8.4c-.6 1.1-1.5 2-2.4 2.8 1.9.2 4.1.2 5-1.7 0-.2.1-.3.3-.3.2-.1.5.1.4.4 0 .1 0 .1-.1.2.7 2 3 2.2 4.9 2.1-.2-.2-.4-.4-.6-.7-.5-.9-.6-1.6-1.6-1.9-.6-.2-1.3-.1-1.9-.1 0 .1-.1.2-.2.1-.2-.2-.3-.4-.4-.6-.1-.1-.1-.2-.1-.3.9-2.1 3-3.3 5.1-3.3zm-1.9 10.6c.8-.9 1.1-2.1.8-3.2-1.8 0-3.6-.5-4.3-2-1.2 1.9-4.1 1.7-6.2 1.4-.2 0-.3-.4-.1-.6 1-.8 1.9-1.7 2.7-2.7-1.1 0-2.1-.5-3.2-.9-2.2.3-2.9 2.4-2.9 4.3s1.2 2.8 2.3 4.1c.9-.4 1.9-.5 3-.4 1.7.1 3.3 1.1 4.9 1.7l.1-.1c1-.4 2.1-.7 2.9-1.6zm-5.7-21.9c-4-.1-7.8.4-11.6 1.7-3.5 1.2-7.7 3-9.4 6.5 4.5 5 8.6 10.4 12.9 15.7 0 .1.1.1.1.2.1 0 .2-.1.2-.1.5-.5 1.1-.9 1.7-1.2-.7-.8-1.5-1.4-2-2.4l-.8 1c-.1.1-.4-.1-.3-.2l.9-1.2c-.3-.9-.2-1.9-.1-2.8.1-.5.2-.9.4-1.4-.1 0-.2 0-.3-.1-.2-.2-.4-.4-.7-.6-.5.6-1.1 1.1-1.6 1.7-.2.2-.4-.1-.2-.2l1.5-1.8c-.9-.9-1.9-1.8-2.8-2.7-.3.4-.7.8-1 1.2-.1.1-.3 0-.2-.2.3-.4.6-.9.9-1.3-.8-1.2-1.8-2.1-2.7-3-.4.4-.8.9-1.2 1.3-.2.2-.4-.1-.2-.2.4-.4.8-.9 1.1-1.4l-1.9-1.9c-.2-.2.1-.5.3-.3.6.6 1.3 1.2 1.9 1.8 1.2-1.5 2.3-3 3.6-4.4.1-.1.3 0 .2.2 0 0 0 .1-.1.1-1 1.6-2.2 3.1-3.4 4.5.9.9 1.9 1.8 2.8 2.7 1.1-1.5 2.3-3 3.6-4.4-.9-.8-1.8-1.5-2.7-2.3-.1-.1-.1-.2 0-.3.1-.1.2-.2.3-.1.9.7 1.9 1.5 2.8 2.2.9-1 1.8-2 2.7-2.9-.5-.4-1-.8-1.5-1.3-.2-.2.1-.4.3-.3.5.4 1 .8 1.6 1.2l1.3-1.3c.2-.2.5.1.3.3-.4.4-.8.9-1.2 1.3.8.6 1.7 1.3 2.5 1.9.3.2-.1.6-.4.4-.8-.6-1.6-1.3-2.4-2l-2.7 3c.1.1.3.2.4.4.7.6 1.5 1.2 2.2 1.8.1.1.2.2.4.3.8-.9 1.7-1.8 2.5-2.6.3-.3.7.1.4.4-.8.9-1.6 1.8-2.3 2.7.1.1.4.5.7.9 0-.1.1-.1.2-.1h.1c.2 0 .3 0 .4.2v.1c0 .2 0 .4-.2.4-.5.1-1.1-.3-1.7-.8-1.3 1.5-2.6 2.9-4 4.3l.7.7s0 .1.1.1c.4-.8 1.1-1.4 1.9-1.6h-.1c-.4-.1-.5-.7 0-.7 1.7-.2 3-1.4 4.7-1.2h.4c.2-4.1.4-8 .7-11.9zm-4.9 9.6-.8-.8-2.1-1.8c-1.3 1.4-2.5 2.8-3.7 4.3.9.9 1.9 1.8 2.8 2.7 1.1-1.4 2.4-2.9 3.8-4.4z"/><path d="M83.9 70c2.2 2.6.7 5.9-1.9 7.5-3.1 1.9-7 2.9-10.6 3.8-7.2 1.8-14.7 2.4-22 2.3-7 0-14.2-.3-21.1-1.9-3.5-.9-6.9-2.1-10-4-2.1-1.3-4.2-3.1-3-5.9.9-2 3-2.8 4.9-3.7-.1 1.2-.1 2.4 0 3.6.2 2.6 2.6 3.4 4.7 4.3 7.2 3.1 15.2 3.7 23 3.7 8.3 0 16.7-.8 24.6-3.1 2.6-.8 5.5-1.4 6-4.4.2-1.6.3-3.2.3-4.9 1.9.5 3.8 1.2 5.1 2.7zM29.2 80.5c.4 0 .4-.6 0-.6-1.3-.1-2.3-.3-3.4-.9-.3-.2-.5.2-.2.4 1 .7 2.3 1.2 3.6 1.1zm-1.7.6c.3 0 .4-.4.1-.5-1.5-.3-2.7-.7-4-1.5-.2-.1-.5.2-.3.4 1.1 1 2.7 1.6 4.2 1.6z" style="fill:#cce7e9"/><path d="M79.9 49c.3 3.7.6 10.5-4.8 10.4-4.8-.1-6.6-4.9-7.5-8.8-.1-.3-.3-.3-.5-.2-.2-.1-.5 0-.5.3-.1 4.1-3 7.8-7.3 7.9-4.2.2-7-2.9-7.9-6.7-.1-.3-.4-.3-.6-.1-.2 0-.5.1-.5.4-.1 1.2-1 2.4-2.3 2.5-1.3.1-2.3-1.1-2.3-2.3 0-.3-.4-.4-.5-.2-.1 0-.2.1-.2.3-.8 3.4-2.7 6.7-6.7 6.3-3.5-.3-5.1-3.5-4.9-6.7 0-.2-.2-.3-.4-.2-.2-.1-.4 0-.5.2-.3 1.3-.8 2.9-2.4 3-1.7.2-2.5-1.4-2.2-2.9 0-.2.1-.3.1-.5.1-.4-.6-.6-.7-.2-.7 2.5-3.6 7.7-6.7 5.8.1-.1.1-.3 0-.4-2.4-2.1-1.6-6.4-1.3-9.2.4-3.5 1-6.9 4.6-8.4 5.6-2.3 12.3-2.9 18.3-3.5 1.4 1.6 2.8 3.2 4.3 4.7-1.1.4-2.3.5-3.6.1-.3-.1-.6.4-.2.6 1.7.7 3.6.5 5-.6h.1c3.4-2.6 6.3-1.3 9.8.1 1.8.7 3.6 1 5.4 0 .4-.2 0-.9-.4-.7-1.3.7-2.5.6-3.7.3 1.8-.7 3.9-2.4 3.6-4.3 3.6.8 7.2 1.4 10.7 2.5 2.1.6 4.3 1.6 5.4 3.6 1 1.8 1.2 4.7 1.3 6.9zm-1.6 6.8c.2-.3-.3-.6-.5-.3-.3.4-.5.7-.9 1-.4.3-.8.4-1.2.6-.2.1-.1.5.2.4 1-.1 1.9-.9 2.4-1.7zm-.1 1.4c.2-.3-.3-.6-.5-.3-.6 1-1.6 1.6-2.8 1.4-.2 0-.3.3-.1.4 1.3.2 2.8-.3 3.4-1.5zM73.5 43c.3-.1 0-.5-.2-.4-7.2 3.6-15.8 3.5-23.7 3.4-8.2-.1-16.2-1.2-23.9-3.9-.2-.1-.3.3-.1.4 8 3 16.5 4 25 4 7.5 0 16 0 22.9-3.5z" style="fill:#f4f4f4"/><path class="st0" d="M77.8 55.5c.2-.3.7 0 .5.3-.5.8-1.4 1.6-2.4 1.8-.2.1-.4-.3-.2-.4l1.2-.6c.4-.4.7-.7.9-1.1z"/><path class="st0" d="M77.7 56.9c.2-.3.7 0 .5.3-.6 1.2-2.1 1.8-3.4 1.5-.2-.1-.1-.4.1-.4 1.2.2 2.2-.5 2.8-1.4z"/><path class="st3" d="M77.8 67.3c-2.4.1-4-2.1-6.5-1.8-2.5.2-4.3 2.1-6.4 3.3-3.7 2.2-7.3 1.4-11-.3l-.6-.3.6-1.3c2.9 1.4 5.9 2.6 8.9.2 2.7-2.2 4.7-4.6 8.6-3.6 2.3.6 4 2.1 6.4 2.2v1.6z"/><path class="st4" d="M77.8 68c0 .8 0 1.6-.1 2.4-.1 1.4-.1 2.2-1.1 3.2s-1.7 1.3-3 1.7c-1.5.5-3 .9-4.6 1.3-6.9 1.6-14 2.2-21.1 2.2-6.4 0-12.9-.4-19.1-2.2-1.7-.5-3.7-1.1-5.2-2-.9-.6-2.3-1.6-2.6-2.7-.2-.7 0-2 .1-2.6 0-.6 0-1.1.1-1.7.1 0 .2 0 .2-.1 1-1.4 3-1.5 4.3-.9.9.4 1.6 1.1 2.3 1.8.8.8 1.6 1.7 2.5 2.4 1.3 1 2.8 1.5 4.4 1.4 2.6-.2 4.9-1.8 7.1-3 3.3-1.8 6.2-2 9.6-.6 4.1 1.7 8 3.7 12.5 1.6 2.8-1.3 5.1-4.3 8.5-3.7 2.1.1 3.2 1.7 5.2 1.5z"/><path class="st4" d="M77.5 59.8c.1 1.8.3 3.6.3 5.3-2.7-.3-4.7-2.3-7.4-2.5-1.9-.2-3.9.4-5.5 1.5-1.3 1-2.2 2.4-3.8 3.1-2.2 1-4.4.2-6.5-.7-2.3-1.1-4.4-2.4-7.1-2.6-2.4-.2-4.6.6-6.6 1.9-3 1.9-6.3 4.5-9.8 1.8-1.7-1.4-2.6-3.6-4.7-4.4-1.8-.7-3.7-.4-5.2.7.1-1.8.1-3.7.1-5.5 1 .3 2.1.1 3-.5 1.3-.8 2.4-2.2 3-3.7.3.9 1.2 1.7 2.3 1.8 1.4.2 2.4-.6 3-1.8.2 2.8 2.5 5.2 5.4 5.5 3.8.4 6.3-2.3 7.3-5.6.5.9 1.4 1.5 2.5 1.5 1.5 0 2.5-1 3-2.3.9 3.9 4.6 6.7 8.8 6.4 4-.3 7-3.4 7.6-7.2 1 3.6 3.1 7.3 7.1 7.8 1.3 0 2.3-.1 3.2-.5zm-47.4 3.4c.2.3.6.1.5-.2-.3-.9-1.3-1.5-2.1-1.5-.2 0-.3.4-.1.4.4.1.7.2 1 .5.4.2.5.5.7.8zm-1 .4c.2.2.6-.1.4-.3-.6-1-1.8-1.6-2.9-1.5-.3 0-.3.5 0 .5 1.1.1 1.9.5 2.5 1.3z"/><path class="st0" d="M73.2 42.6c.2-.1.5.2.2.4-6.9 3.6-15.4 3.5-22.9 3.5-8.5 0-17-1-25-4-.2-.1-.1-.5.1-.4 7.7 2.6 15.8 3.8 23.9 3.9 7.9.1 16.6.1 23.7-3.4z"/><path class="st5" d="M63.6 26.8c0 .1 0 .5-.1.5s-.4-.3-.5-.3c-.2-.1-.3-.3-.4-.4-.2-.3-.2-.7 0-.9h.1c.3.1.6.3.8.6 0 .2.1.3.1.5zM62.8 27.5c-2.1.1-4.2 1.2-5 3.2-.1.1 0 .2.1.3.1.2.3.4.4.6.1.1.2 0 .2-.1.6 0 1.3-.1 1.9.1 1.1.3 1.2 1 1.6 1.9.2.3.3.5.6.7-1.9.1-4.2-.1-4.9-2.1 0-.1.1-.1.1-.2.1-.3-.2-.4-.4-.4s-.3.1-.3.3c-.9 1.9-3.1 2-5 1.7 1-.8 1.8-1.7 2.4-2.8.3-.1.5-.2.8-.4.3-.2 0-.6-.3-.5-.1 0-.1.1-.2.1-.1-.1-.3-.2-.4 0l-.2.2c-1.2.2-2.4-.4-3.5-.8.6-.2 1.3-.6 2-.7 1.5-.4 2.9.1 4.2 1-.1.2.3.4.4.2 1-2 2.7-3.4 4.8-4.1-.1.3-.1.6.1.9.1.4.3.6.6.9z"/><path class="st4" d="M61.7 34.9c.3 1.2.1 2.3-.8 3.2-.8.9-1.9 1.2-2.9 1.6-.1 0-.1.1-.1.1-1.6-.6-3.2-1.6-4.9-1.7-1.1-.1-2 .1-3 .4-1.1-1.3-2.3-2.2-2.3-4.1 0-1.9.7-4 2.9-4.3 1.1.4 2.1.9 3.2.9-.8 1-1.7 1.9-2.7 2.7-.2.1-.1.5.1.6 2.1.3 5 .5 6.2-1.4.7 1.5 2.5 2 4.3 2zm-2 2.5c.2-.3-.3-.6-.5-.3-.3.6-.8 1-1.5 1.3-.3.1-.2.6.1.5.8-.2 1.5-.7 1.9-1.5zm-.3-1.1c.2-.3-.1-.6-.4-.4-.4.3-.7.7-1 1-.2.2.1.5.3.3.4-.2.8-.5 1.1-.9zm-9.7 0c.2.3.7.1.6-.3-.1-.4-.3-.7-.3-1.1 0-.4.1-.8.1-1.2 0-.1-.2-.3-.3-.2-.5.8-.6 2.1-.1 2.8zm.1-4.1c.1-.2 0-.5-.3-.3-.8.5-1.2 1.5-1.1 2.3 0 .4.7.4.7 0-.1-.8.2-1.4.7-2z"/><path class="st0" d="M59.1 37.1c.2-.3.7 0 .5.3-.4.7-1.1 1.3-1.9 1.4-.3.1-.4-.4-.1-.5.7-.1 1.2-.6 1.5-1.2zM59.1 35.9c.3-.2.6.1.4.4-.3.4-.7.7-1.1 1-.2.2-.5-.1-.3-.3.3-.4.6-.8 1-1.1z"/><path class="st6" d="M55.2 16.2c-.3 3.9-.4 7.8-.7 11.7h-.4c-1.8-.1-3 1.1-4.7 1.2-.5 0-.4.6 0 .7h.1c-.8.3-1.5.9-1.9 1.6 0 0 0-.1-.1-.1l-.7-.7c1.4-1.4 2.7-2.9 4-4.3.6.5 1.2.9 1.7.8.2 0 .2-.2.2-.4v-.1c0-.2-.2-.2-.4-.2h-.1c-.1 0-.2.1-.2.1-.3-.3-.6-.8-.7-.9.8-.9 1.6-1.8 2.3-2.7.2-.3-.2-.7-.4-.4-.8.9-1.7 1.7-2.5 2.6-.1-.1-.3-.2-.4-.3-.7-.6-1.5-1.2-2.2-1.8-.1-.1-.3-.2-.4-.4l2.7-3c.8.7 1.6 1.3 2.4 2 .3.2.7-.2.4-.4-.8-.7-1.6-1.3-2.5-1.9.4-.4.8-.9 1.2-1.3.2-.2-.1-.6-.3-.3L50.3 19c-.5-.4-1-.8-1.6-1.2-.2-.1-.5.1-.3.3.5.4 1 .8 1.5 1.3-.9.9-1.8 1.9-2.7 2.9-.9-.8-1.9-1.5-2.8-2.2-.1-.1-.2 0-.3.1l-.2-.1s0-.1.1-.1c.1-.1-.1-.3-.2-.2-1.2 1.4-2.4 2.9-3.6 4.4-.6-.6-1.3-1.2-1.9-1.8-.2-.2-.5.1-.3.3l1.9 1.9c-.4.5-.7.9-1.1 1.4-.1.2.1.4.2.2.4-.4.8-.9 1.2-1.3.9.9 1.9 1.8 2.8 2.8-.3.4-.6.9-.9 1.3-.1.1.1.3.2.2.3-.4.7-.8 1-1.2.9.9 1.9 1.8 2.8 2.7l-1.5 1.8c-.1.2.1.4.2.2.6-.5 1.1-1.1 1.6-1.7.2.2.4.4.7.6.1.1.2.1.3.1-.2.4-.3.9-.4 1.4-.1.9-.1 1.9.1 2.8l-.9 1.2c-.1.2.1.3.3.2l.8-1c.4 1 1.3 1.6 2 2.4-.6.3-1.2.7-1.7 1.2-.1 0-.2.1-.2.1 0-.1 0-.1-.1-.2-4.2-5.2-8.4-10.6-12.9-15.7 1.7-3.5 5.9-5.3 9.4-6.5 3.6-1 7.4-1.5 11.4-1.4z"/><path class="st3" d="m53.9 66.9-.6 1.3c-1.9-.8-3.8-1.7-5.9-1.7-6.4 0-11.3 8.4-17.5 2.6-2.1-1.9-6.3-6-8.7-2.4 0-.8.1-1.6.1-2.4h.1c1.7-.9 3.7-1.3 5.5-.3 1.3.7 2 2 2.9 3 1.2 1.4 2.7 2.3 4.5 2.5 2.2.1 4.1-1 5.8-2.2 3-2.1 6.2-3.4 9.9-2.2 1.3.5 2.6 1.2 3.9 1.8z"/><path class="st0" d="M50.3 36c.1.4-.4.5-.6.3-.5-.7-.5-2 .1-2.7.1-.1.3 0 .3.2-.1.4-.1.8-.1 1.2.1.3.2.7.3 1zM49.5 31.9c.2-.1.4.2.3.3-.5.6-.7 1.2-.7 2 0 .4-.6.4-.7 0-.1-.9.3-1.8 1.1-2.3z"/><path class="st6" d="m49.4 25 .8.8c-1.3 1.4-2.6 2.9-3.9 4.4-.9-.9-1.9-1.8-2.8-2.7 1.2-1.5 2.5-2.9 3.7-4.3.8.7 1.5 1.2 2.2 1.8zM44.1 20.5c.9.8 1.8 1.6 2.7 2.3-1.2 1.4-2.4 2.9-3.6 4.4-.9-.9-1.9-1.8-2.8-2.7 1.2-1.4 2.4-2.9 3.4-4.5l.2.1c0 .3 0 .4.1.4z"/><path class="st0" d="M30.6 63c.1.3-.4.5-.5.2-.2-.3-.3-.6-.6-.9-.3-.2-.6-.4-1-.5-.2-.1-.2-.4.1-.4.8.1 1.8.7 2 1.6zM29.6 63.3c.2.2-.2.5-.4.3-.7-.8-1.5-1.2-2.5-1.3-.3 0-.3-.5 0-.5 1.1 0 2.3.5 2.9 1.5zM29.2 79.9c.4 0 .4.6 0 .6-1.3.1-2.6-.4-3.7-1.1-.3-.2 0-.6.2-.4 1.2.6 2.2.8 3.5.9zM27.6 80.6c.3.1.2.5-.1.5-1.5 0-3.1-.7-4.2-1.6-.2-.2.1-.5.3-.4 1.2.9 2.5 1.2 4 1.5z"/><path class="st7" d="M77.1 58.9c-4.4.6-6.9-1.9-8.8-5.5 0-.9-1.3-1.6-1.8-.6-1.3 2.8-3.3 5.5-6.7 5.7-3.2.2-6.7-1.5-8.2-4.3 0-.1.1-.2.1-.3.3-1-1.2-1.4-1.6-.4-.6 1.5-1.9 1.9-3.3 1.5.2-1-1.2-1.8-1.7-.7-.8 1.7-1.8 3.7-3.7 4.4-3 1.1-6.7-.5-7.7-3.5l-.3-.3v-.4c-.1-.8-1.3-1.1-1.5-.2-.4 2.2-2.6.6-3.8-.2.1-.6-.8-1.1-1.2-.5-1.2 2.1-2.6 4.5-5.3 4.5-.5 0-.7.9-.1 1 3 .4 4.9-2 6.2-4.3.6 1.1 1.7 2 3 2 .8 0 1.7-.4 2.3-1 .7 3.1 3.8 4.7 6.8 4.8 3.3.1 5.1-1.9 6.5-4.6 1.6 1 3.7.4 4.8-1.1 1.2 3.2 5.1 5.1 8.3 5.3 3.9.2 6.6-2.2 8.3-5.4 1.4 3.9 5.4 7.2 9.7 6 .9-.3.7-2-.3-1.9zM78.2 67.4c0 .1 0 .3-.1.4-.1-.2-.2-.4-.5-.5-2.3-1-4.8-1.9-7.4-1.4-2.6.5-4 2.7-6.2 3.9-3.1 1.7-6.7-.2-9.7-1.5-2.5-1.1-5.2-1.9-8-1.6-2.3.2-4.3 1.4-6.2 2.7-1.2.8-2.5 1.6-4 2-2.3.5-4.1-.9-5.7-2.3-2.5-2.1-6.8-5.4-9.3-1.4-.2.4.3.8.6.5 2.8-3.2 6.3.5 8.5 2.4 1.5 1.3 3.1 2.3 5.1 2.3 4.8 0 7.9-4.8 12.9-4.5 4.9.3 9.2 4.5 14.2 3.7 2.3-.3 3.7-1.8 5.4-3.2 3-2.3 6.2-1.4 9.3-.1.4.2.6 0 .8-.2-.3 2.4-.5 4.8-2.7 6.2-2.2 1.4-5.4 2-8 2.5-5.4 1.1-10.8 1.7-16.3 1.7-5.3.1-10.7-.4-15.9-1.3-4.7-.8-10.4-1.6-14-5.2-.4-.4-1.1.1-.8.6 2.7 4.3 8.8 5.2 13.3 6.1 6.3 1.3 12.8 1.9 19.3 1.7 6.2-.2 12.5-.9 18.5-2.6 2.3-.6 5.6-1.5 7-3.5 1.4-1.8 1.2-5 1.5-7.2.4-1-1.4-1.2-1.6-.2zM63.2 39c-.4 0-.7.1-1.1 0 .6-.9.6-2.5.4-3.5-.1-.5-1-.4-.9.1.1.9.4 2.6-.5 3.3-2.6-.4-5-1.9-7.8-2.1-3.8-.3-6.7 4-10.5 2.9-.5-.1-.8.6-.3.8 3.6 1.7 5.8-1.6 9.2-2.3 3.9-.8 7.4 2.6 11.5 2.2.9-.1.9-1.5 0-1.4z"/></svg>