<svg version="1.1" id="Layer_1" xmlns="http://www.w3.org/2000/svg" x="0" y="0" viewBox="0 0 100 100" style="enable-background:new 0 0 100 100" xml:space="preserve"><style>.st0{fill:#ff554c}.st1{fill:#ffceab}.st2{fill:#ffa000}.st3{fill:#371c2a}</style><path class="st0" d="m14.8 50.9.8 16.9s3.4 4.8 17.2 12.5C46.6 88 50 89.5 50 89.5l-.3-26.8-34.9-17v5.2zM53.4 26.7c.5.1 1 .3 1.5.4.8.2.4 1.4-.3 1.2-.6-.2-1.1-.3-1.7-.5-.2.4-.3.7-.5 1.1-.4.9-.7 1.7-1 2.6h1.8c.8 0 .8 1.2 0 1.2h-2.1c0 .3-.1.5-.1.8 0 .4.1 1.2.4 2.1.6-.1 1.2-.3 1.9-.4.8-.2 1.1 1 .3 1.2-.6.1-1.2.2-1.8.4.5 1.3 1.3 2.4 2.2 2.3.4 0 .6.2.6.5.4 0 .9.1 1.4.1v-.1c1.1-3.1 1.1-6.4 1.6-9.6.2-2 .5-4.5 1.8-6 .1-.2.4-.2.6-.2 1.9.5 1.8 2.8 2 4.4.3 3.8.3 7.6.3 11.4 1.3-.2 2.4-.5 3.4-1.1l-.1-.1c-.2-.4-.5-.5-.9-.5-.3 0-.6-.3-.6-.6 0-.4.3-.6.6-.6.8-.1 1.6.4 2 1.1.7-.7 1.2-1.6 1.3-2.9h-2.4c-.8 0-.8-1.2 0-1.2H68c-.1-3.1-.7-6.4-1.8-9.5-.6.4-1.2.8-1.9.9-.8.1-1.1-1.1-.3-1.2.5-.1 1-.3 1.5-.6.1-.1.2-.1.4-.2-.3-.7-.6-1.5-.9-2.1-.2-.4-.4-.9-.7-1.5 0 .1-.1.3-.2.4l-1 1c-.6.6-1.4-.3-.9-.9l1-1c.2-.2.5-.2.7-.1-.2-.3-.4-.6-.6-.8-1.5-1.3-2.5-1-3.7-.1-.9.6-1.6 1.5-2.3 2.5.5.3 1 .6 1.4.8.7.4.1 1.5-.6 1.1l-1.5-.9c-.5.7-.9 1.4-1.3 2.1-.8 1.1-1.4 2.1-1.9 3.1zm11.3 1.8c.6 0 1.1 0 1.6-.2.3-.1.7.1.8.4.1.3-.1.6-.4.8-.6.2-1.3.3-1.9.3-.9-.1-.9-1.4-.1-1.3z"/><path class="st1" d="M50.1 36.6c0-.1-.1-.2-.1-.3-.1-1.1-.1-2.3 0-3.3-.9 1-2.1 1.7-3.5 2 1.6.2 2.9.8 3.7 2.2 0-.2 0-.4-.1-.6z"/><path class="st2" d="M49.7 39c-1.3-4.4-6.7-2.8-10.5-1.8 3.3 1.6 6.8 2.9 10.5 1.8z"/><path class="st0" d="M47.4 33.4c-.3-.3-.7-.6-1.2-.7-.3-.1-.4-.3-.4-.5.1.6.2 1.2.2 1.8l.9-.3c.2-.1.4-.2.5-.3zM40.7 35.4s0 .1-.1.1c.2 0 .4-.1.6-.1H41c-.1.1-.2.1-.3 0zM44.9 34.3c-.3-2.2-.6-4.5-.9-6.7-.2-1.1-.3-2.3-.5-3.4-.1-.5-.1-3.4-1.4-2.2-1.2 1.1-.7 5-.7 6.5.1 2 .2 3.9.1 5.9 1.1 0 2.3 0 3.4-.1zM60.5 27.1c-.6-1.3-1-1.5-1.1-.5-.7.7-.7 3.9-.8 4.7l-.3 3.3c-.2 1.8-.5 3.6-1.1 5.3 1.2.1 2.5.1 3.7 0 0-2.4 0-4.9-.1-7.3 0-1.2-.1-2.4-.2-3.6 0-.7 0-1.3-.1-1.9z"/><path class="st2" d="M75.4 32.3c1-1.3 1.2-3 2-4.4-4 .7-7 3.8-7.6 7.9 2-.8 4.2-1.7 5.6-3.5z"/><path class="st1" d="M75.4 34c-1.8 1.6-4 2.5-6.3 3.2 2.3.4 4.5 1.2 6.4 2.5 2-.9 3.9-1.8 5.8-2.7-1.7-1.3-3.5-2.6-5.3-3.8-.1.4-.3.6-.6.8z"/><path class="st2" d="M71.2 41.5h.3c.9-.4 1.9-.8 2.8-1.2-1.7-1-3.7-1.7-5.7-2 .3 1.6.9 2.8 2.6 3.2z"/><path class="st1" d="M70.9 30.2c-.8-.5-1.5-.9-2.2-1.4.3 1.6.4 3.1.4 4.4.4-1 1-2.1 1.8-3z"/><path class="st0" d="M68.6 37.1c0 .1 0 .1 0 0 0 .1 0 .1 0 0 0 .1 0 .1 0 0zM74.2 64.4c-.3-.2-.5-.6-.8-.8-.2-.3-.4-.5-.6-.8h-3.3c-.3.2-.9 3-1.3 3.5-.8 1.1-2 2-3.5 1.7-2.3-.6-2.1-2.9-2.8-4.6-.1-.4-.1-.8-.2-1.3-1.3-.1-2.5-.1-3.8-.2-.5.4-.2 3.1-.2 3.9 0 1.4.3 2.9-.2 4.2-2.2 5.7-5.2-2.6-6.9-3.1l.3 21.2c10.3-5.9 21-11.2 30.7-18.2.2-5.2.3-10.5.5-15.7-4.2.6-2.3 14-7.9 10.2z"/><path class="st1" d="M67.4 39c-3 3-9.4 2.3-13.6 1.8-.4 3.9-4 6.5-7.9 5.6-.3-.1-.5-.4-.4-.8.6-2.5 2.3-4.4 4.5-5.4-4.5 1.4-8.8-.6-12.8-2.7-.5-.2-.4-1 .1-1.1.7-.1 1.6-.3 2.5-.6-1-.2-1.8-.6-2.5-1.2-.1.1-.3.1-.5-.1-.1-.1-.3-.2-.4-.3-4.5.7-8.2-1.3-11.2-4.2 0 .2-.1.4-.3.5-3 1.4-6.1 2.7-9.2 3.8C27.1 39.4 38.2 45 50 49.2c.1 0 .1.1.1.1.2.1.3.3.3.5v.3c6.4-2.8 12.8-5.2 19.3-7.9-1.4-.7-1.9-1.8-2.3-3.2zM15.3 35.3c0 4.5.1 9.1.1 13.6.2 0 .3.2.4.4.5 2 0 6.3 4.3 4.1 1-.5 1.3-1.9 2.4-2.4 1.4-.6 2.3-.3 3.2.8 1.5 1.7 1.2 5.3 1.3 7.4-.1 1 0 1.9.1 2.9 2.4 1.2 3.8.8 4.4-1.1.9-1 .9-2.4 2.1-3.1 3.9-2.6 5 2.6 5.4 5.4.2 1.2.2 2.5.3 3.7-.1 3.3 2 4.1 6.3 2.5.2-.7.5-1.3.7-2 .7-1.4 1.5-2.2 3-2.5-.1-5-.1-9.9-.2-14.9-11.5-4.1-22.6-9.6-33.8-14.8z"/><path class="st2" d="M35.4 33c-1.1-1.3-1.9-2.9-3.3-3.9-2.1-1.4-4.8-1.6-7.3-1.5 2.7 3.1 6.2 5.8 10.6 5.4z"/><path class="st1" d="M76.9 40.7c.4.3.1.9-.3 1-1.6.6-3.3 1.2-5 1-6.9 2.9-13.9 5.5-20.8 8.5-.1 0-.2.1-.3 0 .1 4.7.1 9.4.2 14.1 2.3.1 1.6 1.7 3.1 2.8 1 0 1.9.1 2.9.1v-2c0-.9-.1-1.8 0-2.7.1-1.2.2-2.5.8-3.5.7-1.2 1.6-1.8 3-1.5 2.3.5 2.1 2.6 2.9 4.4-.2 1.5.6 2 2.3 1.8 1.5 1.1 2.3.9 2.4-.4.5-.7.4-1.6.7-2.4.2-.6.4-1.2.9-1.6 1.4-1.1 2.3-.2 3.5.5.2.2.9 1.3 1 1.3 1.1-.2 2.2-.4 3.3-.5.1-.4.2-.9.2-1.3.6-1.6.3-3.4 1.1-5 .7-1.7 1.9-2.6 3.5-2.6.1-4.9.2-9.8.2-14.7-1.9.9-3.7 1.8-5.6 2.6-.1 0 0 .1 0 .1z"/><path class="st0" d="M37.6 26.5c.3 0 .6.3.6.6 0 .4-.3.6-.6.6-.6.1-1.1.2-1.6.4h-.1c.1.6.2 1.1.4 1.7.1.4.3.9.6 1.4l1.2-.6c.7-.4 1.3.7.6 1.1l-1.2.6c.7 1 1.5 1.9 2.4 2.2.1-.2.2-.3.4-.3.2-3.3-.4-6.6 0-9.9.1-1.2.7-5.1 2.4-5.3 1.5-.2 1.6 1.8 1.8 2.8.5 3.5.9 6.9 1.4 10.4 0-.4.3-.8.8-.7.7.2 1.4.6 1.9 1.2 1.1-1 1.7-2.3 2-3.7-.1 0-.2 0-.4-.1-.5-.4-1.2-.6-1.9-.3s-1.3-.7-.6-1.1c1-.4 2.1-.4 3 .2v-1.2c0-.9-.1-1.7-.2-2.6-.1.3-.4.5-.8.4-.6-.1-1.1 0-1.7.2-.3.1-.7-.1-.8-.4-.1-.3.1-.6.4-.8.8-.3 1.5-.3 2.3-.2.2 0 .3.1.4.3-.2-1.2-.4-2.4-.8-3.5-.1 0-.1.1-.2.1h-2c-.8 0-.8-1.2 0-1.2h1.6c.1 0 .1-.1.2-.1-.4-1-.8-1.9-1.3-2.8-.6.5-1.2.9-1.9 1.1-.8.2-1.1-.9-.3-1.2.6-.2 1.1-.5 1.6-1-.9-1.5-2-2.1-3-2.1-.2.8-.4 1.6-.3 2.5 0 .8-1.2.8-1.2 0s0-1.5.2-2.3c-1.3.5-2.5 1.6-3.5 2.9.8.1 1.5.6 1.8 1.3.4.7-.7 1.3-1.1.6-.2-.4-.6-.7-1.1-.8-.2 0-.3-.1-.4-.3-.7.9-1.2 1.9-1.6 2.7-.4.8-.7 1.6-.9 2.4.6 0 1.2.1 1.7.2.8.2.4 1.4-.3 1.2-.6-.2-1.1-.2-1.7-.2-.1.3-.1.7-.2 1-.1.7-.1 1.4-.1 2.1v.6c.9.1 1.5 0 2.1-.1z"/><path class="st2" d="M46.8 45.2c2.9.3 5.4-1.7 5.7-4.6-.1 0-.1 0-.2.1-2.5.3-4.6 2.1-5.5 4.5z"/><path class="st1" d="M55.2 20.9c-.4-.3-.9-.5-1.3-.7l-1.2-.6c-.1-.1-.4-.2-.6-.3-.1 0-.4.1-.5.1-.3.1-.6.2-.8.3.7 2.2 1.1 4.6 1.1 6.9.9-1.9 2-3.9 3.3-5.7zM50.9 38.8c0 .1.1.3.1.4.1.3-.1.5-.2.6.3-.1.5-.2.8-.2-.3-.2-.5-.5-.7-.8zM35.3 31.1c-.6-1.9-.8-4.1-.6-6.1-1.4.7-2.8 1.3-4.2 2l.9.3c1.8.9 2.8 2.4 3.9 3.8z"/><path class="st3" d="m85 53.1.3-16.2v-.1c0-.3-.2-.4-.4-.5h-.5c-1.9-1.5-3.8-2.9-5.8-4.2.1-.2.3-.5.4-.8.6-1.4.7-3 2-4 .4-.3.1-1.1-.4-1.1-2.8.1-5.2 1.2-7.1 2.9 0-.1-.1-.2-.2-.3-.9-.5-1.8-1.1-2.7-1.6-.1-.1-.3-.1-.4-.1-1-5-3.1-10.1-6.6-12.4-.2-.1-.4-.1-.6 0-1.9 1-3.6 2.8-5.2 4.8-.4-.3-.8-.5-1.2-.7-.7-.4-1.5-1.1-2.3-1.2-.6-.1-1.3.1-2 .4-.1-.1-.1-.3-.2-.4-.8-1.9-2.8-6.6-4.9-7.4-4.1-1.5-9 7.2-10 10.2-.3.8-.5 1.8-.7 2.8l-5.7 2.7c-.2.1-.2.2-.3.3-1.8-.3-3.6-.3-5.4-.2-.6 0-.8.6-.4 1.1.5.6 1 1.2 1.6 1.8-.1 0-.2 0-.3.1-3.1 1.5-6.4 2.8-9.6 3.9-.2.1-.3.2-.4.4-.1.1-.2.2-.2.5.1 11.3.1 22.7.2 34-.1.2 0 .4.2.5C26.5 76.4 38.3 83 49.9 89.1c.7.4 1.3-.7.6-1.1C39 82.3 27.4 75.9 17.2 67.9c0-4.7-.1-9.5-.1-14.2.4 1.1 1 2 2.3 2.2.5.1 1.1 0 1.5-.2 2-.8 1.6-2.3 4.1-2.3 1.5-.6 2.2-.1 2.1 1.4.1 1 .2 1.9.4 2.9.1 1-.1 2.1 0 3.1.1.9.1 1.9.5 2.7.9 1.5 2.4 1.9 3.9 1.1.7-.4 1.3-1.1 1.7-1.7.5-.7.6-1.9 1.2-2.4 3.6-3.5 4-.4 4.4 1.4.6 3 0 7.1 2 9.7.9 1.2 2.5 2.1 4 1.8 3.5-.7 2.7-6 5.8-7l.3 22.6c0 .2.1.4.2.5.2.1.4.2.6.1h.1c10.7-6.2 21.8-11.7 31.9-19l.1-.1c.1-.1.2-.3.2-.5.2-5.5.3-10.9.5-16.4.1-.1.1-.3.1-.5zM52.3 66.8c1.7.6 4.7 8.8 6.9 3.1.5-1.3.2-2.9.2-4.2 0-.7-.3-3.5.2-3.9 1.3.1 2.5.1 3.8.2.1.4.1.8.2 1.3.7 1.7.5 4.1 2.8 4.6 1.5.4 2.7-.5 3.5-1.7.4-.5 1-3.3 1.3-3.5h3.3c.2.3.4.5.6.8.3.2.5.6.8.8 5.6 3.8 3.6-9.6 7.8-10.4-.1 5.2-.3 10.5-.5 15.7-9.7 7-20.3 12.3-30.7 18.2 0-6.9-.1-14-.2-21zm27.9-11.6c-.7 1.6-.4 3.5-1.1 5-.1.4-.2.9-.2 1.3-1.1.2-2.2.4-3.3.5 0 0-.7-1.1-1-1.3-1.2-.8-2.1-1.6-3.5-.5-.5.4-.7 1-.9 1.6-.3.7-.2 1.7-.7 2.4-.2 1.3-1 1.5-2.4.4-1.7.3-2.5-.3-2.3-1.8-.7-1.8-.5-3.9-2.9-4.4-1.4-.3-2.3.4-3 1.5-.6 1.1-.7 2.3-.8 3.5-.1.9 0 1.8 0 2.7v2c-1 0-1.9-.1-2.9-.1-1.4-1.1-.8-2.7-3.1-2.8-.1-4.7-.1-9.4-.2-14.1h.3c6.9-3 13.9-5.6 20.8-8.5 1.7.2 3.4-.4 5-1 .4-.1.7-.7.3-1-.1 0-.1-.1-.2-.1 1.9-.8 3.8-1.7 5.6-2.6 0 4.9-.1 9.8-.2 14.7-1.4.1-2.5 1-3.3 2.6zm-7.4-13.7c-1.7-.4-2.2-1.6-2.6-3.1 2 .3 4 .9 5.7 2-.9.4-1.9.8-2.8 1.2-.1-.1-.2-.1-.3-.1zm-2.5-4.4c0 .1 0 .1 0 0 0 .1 0 .1 0 0 0 .1 0 .1 0 0zm12.8 0c-1.9.9-3.9 1.8-5.8 2.7-2-1.3-4.1-2.1-6.4-2.5 2.2-.8 4.5-1.6 6.3-3.2.3-.2.5-.5.7-.7 1.7 1.1 3.5 2.3 5.2 3.7zM79 27.9c-.8 1.4-1 3.1-2 4.4-1.4 1.8-3.5 2.7-5.7 3.5.7-4.1 3.7-7.2 7.7-7.9zm-6.5 2.3c-.7.9-1.3 2-1.7 3.1 0-1.4-.2-2.9-.4-4.4.6.4 1.4.9 2.1 1.3zm-11.4-12c1.2-.9 2.2-1.2 3.7.1.2.2.4.5.6.8-.2-.1-.5-.1-.7.1l-1 1c-.6.6.3 1.4.9.9l1-1c.1-.1.2-.2.2-.4.3.5.5 1 .7 1.5l.9 2.1c-.1 0-.3.1-.4.2-.4.3-.9.5-1.5.6-.8.1-.4 1.3.3 1.2.7-.1 1.4-.4 1.9-.9 1.1 3 1.7 6.4 1.8 9.5h-2.4c-.8 0-.8 1.2 0 1.2h2.4c-.2 1.2-.6 2.2-1.3 2.9-.4-.7-1.2-1.2-2-1.1-.3 0-.6.3-.6.6s.3.7.6.6c.4 0 .7.1.9.5 0 .1.1.1.1.1-.9.6-2.1.9-3.4 1.1 0-3.8-.1-7.6-.3-11.4-.1-1.6 0-3.9-2-4.4-.2-.1-.5 0-.6.2-1.3 1.6-1.5 4.1-1.8 6-.4 3.3-.5 6.5-1.6 9.6v.1c-.5 0-.9-.1-1.4-.1 0-.3-.2-.6-.6-.5-.8.1-1.6-1-2.2-2.3.6-.1 1.2-.2 1.8-.4.8-.2.4-1.3-.3-1.2-.6.1-1.2.3-1.9.4-.3-.8-.4-1.6-.4-2.1 0-.3.1-.5.1-.8h2.1c.8 0 .8-1.2 0-1.2h-1.8c.2-.9.6-1.7 1-2.6.2-.4.3-.7.5-1.1.6.2 1.1.3 1.7.5.8.2 1.1-1 .3-1.2-.5-.1-1-.3-1.5-.4.5-1 1.1-2 1.7-2.9.4-.6.8-1.3 1.3-2.1l1.5.9c.7.4 1.3-.7.6-1.1-.5-.3-1-.6-1.4-.8.8-1.2 1.6-2.1 2.5-2.7zm1.5 21.6c-1.2.1-2.5.1-3.7 0 .6-1.7.9-3.5 1.1-5.3l.3-3.3c.1-.8.1-3.9.8-4.7.1-.9.5-.8 1.1.5 0 .6.1 1.2.1 1.8.1 1.2.1 2.4.2 3.6 0 2.6.1 5 .1 7.4zM43.1 28.4c-.1-1.6-.6-5.4.7-6.5 1.3-1.2 1.3 1.7 1.4 2.2.2 1.1.3 2.3.5 3.4.3 2.2.6 4.5.9 6.7-1.1.1-2.2.1-3.3 0 0-1.9-.1-3.8-.2-5.8zm4.4 3.8c0 .2.1.4.4.5.5.1.9.4 1.2.7-.2.1-.3.2-.5.3l-.9.3c-.1-.6-.2-1.2-.2-1.8zm5.2 7c0-.1-.1-.3-.1-.4.2.3.4.6.7.8-.3.1-.5.1-.8.2.1-.1.2-.3.2-.6zm-1-2.9c0 .1 0 .2.1.3 0 .2.1.4.1.6-.8-1.4-2.2-2-3.7-2.2 1.4-.4 2.6-1 3.5-2-.1 1-.1 2.2 0 3.3zm-9.4-.9h.5c-.2 0-.4.1-.6.1.1 0 .1 0 .1-.1zm9 3.6c-3.7 1.2-7.2-.2-10.5-1.8 3.8-1 9.2-2.6 10.5 1.8zm2.8 1.7c.1 0 .1 0 .2-.1-.3 2.9-2.9 4.9-5.7 4.6.7-2.4 2.8-4.2 5.5-4.5zm-.7-21.4c.1 0 .3-.1.5-.1.2.1.5.3.6.3l1.2.6c.4.2.9.5 1.3.7-1.3 1.8-2.4 3.8-3.3 5.6 0-2.3-.4-4.7-1.1-6.9.2 0 .5-.1.8-.2zm-12.9-2.5c.1.1.2.2.4.3.5.1.9.3 1.1.8.4.7 1.5.1 1.1-.6-.4-.7-1.1-1.2-1.8-1.3 1-1.3 2.2-2.4 3.5-2.9-.2.7-.2 1.5-.2 2.3 0 .8 1.3.8 1.2 0 0-.9.1-1.7.3-2.5 1 .1 2.1.7 3 2.1-.5.5-1 .8-1.6 1-.8.2-.4 1.4.3 1.2.7-.2 1.4-.6 1.9-1.1.5.9.9 1.8 1.3 2.8-.1 0-.1.1-.2.1h-1.6c-.8 0-.8 1.2 0 1.2h2c.1 0 .1-.1.2-.1.4 1.1.6 2.3.8 3.5-.1-.2-.2-.3-.4-.3-.8-.1-1.6-.1-2.3.2-.3.1-.5.4-.4.8.1.3.4.6.8.4.5-.2 1.1-.3 1.7-.2.3 0 .6-.1.8-.4.1.9.2 1.7.2 2.6v1.2c-.9-.6-2-.7-3-.2-.7.3-.1 1.4.6 1.1.6-.3 1.3-.1 1.9.3-.2-.1-.1-.1 0-.1-.3 1.4-.9 2.7-2 3.7-.5-.6-1.1-1-1.9-1.2-.5-.1-.8.3-.8.7-.5-3.5-.9-6.9-1.4-10.4-.1-1-.2-3.1-1.8-2.8-1.7.2-2.2 4.2-2.4 5.3-.4 3.3.1 6.6 0 9.9-.2 0-.4.1-.4.3-.9-.4-1.7-1.2-2.4-2.2l1.2-.6c.7-.4.1-1.4-.6-1.1l-1.2.6c-.3-.5-.5-1-.6-1.4-.2-.5-.3-1.1-.4-1.7h.1c.5-.2 1.1-.3 1.6-.4.3 0 .6-.3.6-.6s-.3-.6-.6-.6c-.6.1-1.3.2-1.9.4v-.6c0-.7 0-1.4.1-2.1 0-.3.1-.7.2-1 .6-.1 1.1 0 1.7.2.8.2 1.1-1 .3-1.2-.6-.2-1.1-.2-1.7-.2.2-.8.5-1.6.9-2.4.6-.9 1.1-1.8 1.8-2.8zM36.3 25c-.1 2 0 4.2.6 6.1-1.1-1.4-2-2.9-3.9-3.7l-.9-.3c1.4-.8 2.8-1.4 4.2-2.1zm-2.6 4.1c1.4 1 2.3 2.5 3.3 3.9-4.4.4-7.8-2.3-10.7-5.4 2.6 0 5.3.1 7.4 1.5zm-7.1 1.3c.2-.1.3-.3.3-.5 3.1 2.9 6.7 4.9 11.2 4.2.1.1.2.2.4.3.2.1.4.1.5.1.7.6 1.5 1 2.5 1.2-.9.2-1.8.4-2.5.6-.5.1-.6.9-.1 1.1 4 2.1 8.3 4.1 12.8 2.7-2.2 1-3.9 2.9-4.5 5.4-.1.3.1.7.4.8 3.9.9 7.5-1.7 7.9-5.6 4.2.5 10.6 1.2 13.6-1.8.4 1.4.9 2.6 2.3 3.3-6.4 2.6-12.9 5.1-19.3 7.9v-.3c0-.3-.1-.4-.3-.5l-.1-.1c-11.8-4.2-22.9-9.8-34.3-15 3.1-1.2 6.2-2.4 9.2-3.8zm21.5 37.2c-.3.6-.5 1.3-.7 2-4.3 1.6-6.4.7-6.3-2.5-.2-1.2-.1-2.5-.3-3.7-.4-2.8-1.5-8-5.4-5.4-1.2.8-1.3 2.2-2.1 3.1-.5 1.9-2 2.3-4.4 1.1-.1-1-.2-1.9-.1-2.9-.1-2.1.2-5.7-1.3-7.4-1-1.1-1.8-1.4-3.2-.8-1.1.5-1.5 1.9-2.4 2.4-4.3 2.2-3.8-2.1-4.3-4.1-.1-.2-.2-.4-.4-.4 0-4.5-.1-9.1-.1-13.6C28.2 40.5 39.2 46 50.9 50.2c.1 5 .1 9.9.2 14.9-1.5.3-2.3 1.2-3 2.5z"/><path class="st3" d="M66.4 29.7c.7 0 1.3-.1 1.9-.3.3-.1.5-.4.4-.8-.1-.3-.4-.6-.8-.4-.5.2-1 .3-1.6.2-.7 0-.7 1.3.1 1.3z"/></svg>