<svg version="1.1" id="Layer_1" xmlns="http://www.w3.org/2000/svg" x="0" y="0" viewBox="0 0 100 100" style="enable-background:new 0 0 100 100" xml:space="preserve"><style>.st0{fill:#ff748f}.st1{fill:#ffdde1}.st3{fill:#280005}</style><path class="st0" d="M37.3 39.8c-.4 0-.7.1-1.1.1-.7 0-1.3-.1-2-.3-1-.3-2 .1-2 .1-.2.1-.5 0-.6-.2-.1-.2-.1-.5.1-.7.4-.3.5-.7.6-1.4.1-.6.3-1.3.7-2.2.4-.8.9-1.3 1.4-1.6-.7-.7-1.2-1.8-1.4-2.3-.4-.8-1.2-1.6-1.2-1.6-.2-.2-.2-.5-.1-.7.1-.2.4-.3.6-.2 0 0 .6.1 3.2-.9 1.1-.4 2-.5 2.7-.5-.2-.4-.3-1-.4-1.8 0-.6 0-1.1.1-1.6-1.1-.7-2.7-1.4-4.6-1.1-4 .7-11 6.4-13 10.1-.5.9-.7 1.7-.4 2.5.6 1.8 3.2 3.1 5.4 3.9 2.1.7 7 1.8 12 .4zm-1.9-15.9c-.5.7-1.6 1.4-1.7.7-.1-.9 1.7-.7 1.7-.7zm-3.5 9.9c-.5.7-1.6 1.4-1.7.7-.1-.9 1.7-.7 1.7-.7zm-.1-7.7c-.5.7-1.6 1.4-1.7.7 0-.8 1.7-.7 1.7-.7zm-3.5 11.8c-.1-.9 1.7-.7 1.7-.7-.5.8-1.6 1.5-1.7.7zm1.3-8.1c-.5.7-1.6 1.4-1.7.7 0-.9 1.7-.7 1.7-.7zm-2 4c-.5.7-1.6 1.4-1.7.7 0-.9 1.7-.7 1.7-.7zm-4.8-1.3c-.1-.9 1.7-.7 1.7-.7-.6.7-1.6 1.4-1.7.7z"/><path class="st0" d="M47.3 27.3h-.2c-2.5 0-5.9 2.1-7.8 4.9-1.7 2.5-2 5.3-.8 7.8 1.3 2.7 6.1 5.3 12.9 5.1 3.1-.1 5.8-1.2 6.9-3 .8-1.3.8-2.9 0-4.7-2.6-5.7-7.2-10-11-10.1zM41.2 35c.9.1 2 .6 1.4 1.1-.7.6-1.4-1.1-1.4-1.1zm2.5 6.3c-.7.5-1.4-1.1-1.4-1.1.9.1 2 .6 1.4 1.1zm1.1-11.2c-.1 0-.2 0-.3-.1-.2-.2-.1-.4 0-.6 0 0 .5-.4 1.3-.7.2-.1.5.1.5.3.1.2-.1.5-.3.5-.6.2-.9.5-.9.5-.1.1-.2.1-.3.1zm1.8 3.2c-.7.5-1.4-1.1-1.4-1.1.9.1 2 .7 1.4 1.1zm2.3 5.8c-.7.5-1.4-1.1-1.4-1.1.8.1 1.9.7 1.4 1.1zm1.7 4.2c-.7.5-1.4-1.1-1.4-1.1.8.1 1.9.7 1.4 1.1zm2.2-5.8c-.7.5-1.4-1.1-1.4-1.1.9.1 2 .6 1.4 1.1zm3.3 4c-.7.5-1.4-1.1-1.4-1.1.9.1 2 .7 1.4 1.1zm-1.5-7.7c.2-.2.4-.1.6.1.2.2.4.4.5.7.1.2.1.4-.1.6-.1.1-.2.1-.3.1-.1 0-.2-.1-.3-.2-.2-.2-.4-.4-.5-.7-.1-.2-.1-.5.1-.6zm-.4-.4c-.1.1-.2.1-.3.1-.1 0-.2 0-.3-.1-2.9-3.1-5.1-3.9-6.4-3.9-.2 0-.4-.2-.4-.4s.2-.4.4-.4c2.2.1 4.5 1.5 7 4.2.2 0 .2.3 0 .5z"/><path class="st1" d="M36.1 28.9c-1.3.5-2.1.7-2.7.9.2.3.5.7.7 1.1.7 1.5 1.3 2.3 1.8 2.3h.1c.3 0 .5.3.5.5 0 .3-.2.5-.5.5h-.1c-.2 0-1.1.2-1.7 1.4-.4.8-.5 1.4-.6 2-.1.3-.1.6-.2.8.4 0 .9 0 1.4.1.8.2 1.7.3 2.4.2-.6-2.4-.1-4.9 1.4-7.2 2.1-3.2 5.9-5.5 8.9-5.3 1.6.1 3.3.8 5 1.9 0-.1.1-.3.1-.4 0-.1.2-.2.3-.1.1 0 .2.2.1.3-.1.2-.1.4-.2.6.2.1.3.3.5.4.2-.4.4-.9.4-1.2.1-.5.4-1 .6-1.4-.4-.1-.8-.3-1.1-.4-.5-.2-1.1-.5-1.7-.5-.9 0-1.3.2-1.3.3-.1.2-.4.3-.6.2-.2-.1-.4-.3-.3-.6.2-1.3-.4-2.5-.9-3.3-.2-.4-.4-1-.4-1.5-.3.2-.7.5-1.1.8-.5.3-1 .7-1.5 1-1.3 1-1.5 2.3-1.5 2.4 0 .2-.2.4-.5.4-.2 0-.5-.1-.5-.3-.3-.7-1-1.2-2-1.6-.4-.1-.8-.4-1.1-.6 0 .2-.1.5-.2.7-.2.7-.4 1.5-.3 2.3.1 1.6.6 2.2.6 2.2.2.2.2.4.1.6-.1.2-.4.3-.6.2-.2-.1-1.5-.4-3.3.3zm-.6 1.5c-.2.1-.3.2-.3.2h-.1c-.1 0-.1 0-.2-.1s0-.2.1-.3c0 0 .1-.1.4-.2.1-.1.2 0 .3.1-.1.1-.1.2-.2.3zm17.2-3.5c.1-.2.1-.4.1-.4 0-.1.1-.2.3-.2.1 0 .2.1.2.3 0 0 0 .1-.1.4 0 .1-.1.2-.2.2h-.1c-.2-.1-.2-.2-.2-.3zm-4.7-4c.3.7.6 1.6.3 2.4 0 .1-.1.1-.2.1H48c-.1 0-.2-.2-.1-.3.3-.7-.1-1.6-.3-2.1 0-.1 0-.2.1-.3.1 0 .2.1.3.2zm-.7-1.5c.1 0 .2.1.2.2 0 0 0 .3.1.6 0 .1 0 .2-.1.3h-.1c-.1 0-.2-.1-.2-.1-.1-.4-.2-.7-.2-.7l.3-.3zM40.9 24c.1-.1.2-.1.3-.1.6.4 1 .9 1.2 1.6 0 .1 0 .2-.2.3-.1 0-.2-.1-.2-.2-.1-.6-.5-1.1-1-1.4-.2 0-.2-.1-.1-.2zm-1.1-.3c0-.1.1-.2.2-.2 0 0 .2 0 .4.1.1 0 .2.2.1.3 0 .1-.1.1-.2.1h-.1c-.2-.1-.4-.1-.4-.1.1 0 0-.1 0-.2zm-5 13.3-.3.6c0 .1-.1.1-.2.1h-.1c-.1 0-.2-.2-.1-.3 0 0 .1-.3.3-.7.1-.1.2-.1.3-.1.1.2.2.3.1.4zm1.5-1.7c-.3.1-.7.5-1.1 1 0 .1-.1.1-.2.1h-.1c-.1-.1-.1-.2-.1-.3.4-.6.8-1 1.3-1.2.1 0 .2 0 .3.1.1.1 0 .3-.1.3zm2.7-5.8c0 .1-.1.2-.2.2-.9-.2-1.9.1-2.6.4h-.1c-.1 0-.2-.1-.2-.1 0-.1 0-.2.1-.3.7-.3 1.8-.6 2.8-.4.2 0 .2.1.2.2z"/><path d="M77.2 51.6c-.3 0-.5-.2-.5-.5s.2-.5.5-.5c4.1.1 5.9-.1 6.7-.2-4.1-2.6-19.1-8.9-23.9-10.9.1 1.4-.3 2.4-.7 3.1-1.3 2.1-4.2 3.4-7.7 3.5H51c-2.6 0-5.3-.4-7.5-1.2-2.7-1-4.6-2.4-5.6-4.1-1.9.6-3.8.8-5.6.8-3.1 0-5.7-.7-7.1-1.2-.4-.2-.9-.4-1.3-.6-3.6 2.5-6.8 5.4-7.6 6.5.4.1 1.1.2 2.4.3.3 0 .5.3.5.6s-.3.5-.5.5h-.1c-1.3-.1-2.1-.2-2.5-.3-.9 5 .5 10.3 1.7 11.1.1.1.3.1.4-.1 1-.8 1.2-2.3 1.5-3.5.2-1.3.4-2.3 1.3-2.7.6-.3 1.2-.3 1.6 0 .8.4 1.3 1.4 1.8 3.5.4 1.7 1.3 2.9 2.3 3.4.6.3 1.3.3 1.9 0 .8-.4 1.3-1.6 1.7-2.8.5-1.5 1.1-3.3 2.9-2.7 1.4.4 2 1.9 2.5 3.4.6 1.5 1.1 2.9 2.4 3.2 2.2.6 3.9-3.2 4.8-5.3l.3-.6c.6-1.2 2-1.9 3.5-1.7 1.5.2 2.5 1.3 2.7 3 .5 4 1.8 5.6 2.8 6.2 1 .6 2 .4 2.6.2 1.6-.6 1.9-3 2.2-5.2.2-1.8.4-3.2 1.3-3.7.8-.5 1.7-.5 2.4-.2 1.1.5 1.9 1.6 2.2 3.2.8 3.8 2.1 5.1 3 5.6.8.4 1.6.4 2.7 0 2.3-.9 2.6-3 3-4.8.3-1.4.5-2.7 1.6-3.2.9-.4 1.7-.4 2.4-.1 1.1.6 1.8 2.2 2.5 5.5.2 1.1.7 2.5 1.7 2.7.8.2 2-.5 3.1-1.8 1.5-1.8 1.7-7 1.7-8.5-.8.2-2.2.3-4.9.3-.9-.2-1.7-.2-2.5-.2zm-60.8 2.3c-.1-.6-.1-1-.1-1 0-.2.2-.4.4-.5.2 0 .4.2.5.4 0 0 0 .4.1.9 0 .2-.1.4-.4.5h-.1c-.2 0-.3-.1-.4-.3zm1.7 3.3c-.1 0-.2.1-.2.1-.1 0-.3-.1-.3-.2-.3-.5-.6-1.1-.8-1.9-.1-.2.1-.5.3-.5.2-.1.5.1.5.3.2.7.4 1.2.7 1.6 0 .2 0 .5-.2.6zm6-9c-.8-.1-1.6-.1-2.3-.2-.3 0-.5-.3-.5-.6s.3-.5.6-.5c.7.1 1.5.1 2.2.2.3 0 .5.3.5.6s-.2.5-.5.5zm.9 7.3c-.2-.5-.3-.9-.3-.9-.1-.2.1-.5.3-.5.2-.1.5.1.5.3 0 0 .1.4.3.9.1.2 0 .5-.3.5h-.1c-.2 0-.4-.1-.4-.3zm2.7 2.8c-.1.2-.2.3-.4.3h-.1c-.6-.2-1.2-.8-1.6-1.7-.1-.2 0-.5.2-.6.2-.1.5 0 .6.2.4.7.8 1.1 1.2 1.3.1 0 .2.2.1.5zm8.4-1.9c-.2-.5-.3-.9-.3-1-.1-.2.1-.5.3-.5.2-.1.5.1.5.3 0 0 .1.4.3.9.1.2 0 .5-.3.5h-.1c-.2.1-.3 0-.4-.2zm2.7 2.8c-.1.2-.2.3-.4.3h-.1c-.6-.2-1.2-.8-1.7-1.8-.1-.2 0-.5.2-.6.2-.1.5 0 .6.2.4.7.8 1.2 1.2 1.4.2 0 .3.3.2.5zm4.8-9.4c-.1 0-.1 0 0 0-6-.4-11.9-.9-16.9-1.3-.3 0-.5-.3-.5-.6s.3-.5.6-.5c4.9.4 10.9.9 16.8 1.3.3 0 .5.3.5.6s-.3.5-.5.5zm20.3-6.6c.1-.2.3-.3.6-.2 0 0 .5.2 1.3.5.2.1.3.3.2.6-.1.2-.2.3-.4.3h-.2c-.8-.3-1.3-.5-1.3-.5-.2-.3-.3-.5-.2-.7zM50.4 58c-.2-.6-.2-1-.2-1 0-.2.1-.4.4-.5.2 0 .4.1.5.4 0 0 0 .4.2.9.1.2-.1.5-.3.5h-.1c-.3 0-.5-.1-.5-.3zm3.5 3.1c0 .2-.2.3-.4.3h-.1c-1-.2-1.9-.9-2.5-2.1-.1-.2 0-.5.2-.6.2-.1.5 0 .6.2.5.9 1.1 1.5 1.9 1.7.2 0 .4.3.3.5zm10.3-3c-.2 0-.3-.1-.4-.3-.2-.6-.3-1-.3-1 0-.2.1-.4.4-.5.2 0 .4.1.5.4 0 0 .1.4.2.9.1.2-.1.5-.3.5h-.1zm2.7 3c-.1.1-.2.2-.4.2-.1 0-.1 0-.2-.1-.8-.4-1.4-1.1-1.9-2-.1-.2 0-.5.2-.6.2-.1.5 0 .6.2.4.8.9 1.3 1.6 1.7.2.1.2.4.1.6zm2.2-9.8c-6.2-.3-14-.7-22.6-1.3-.3 0-.5-.3-.5-.6s.3-.5.6-.5c8.6.6 16.4 1.1 22.5 1.3.3 0 .5.3.5.6s-.2.5-.5.5zm3.8.2c-.6 0-1.2 0-1.9-.1-.3 0-.5-.3-.5-.5 0-.3.3-.5.6-.5.6 0 1.2 0 1.8.1.3 0 .5.3.5.5 0 .3-.2.5-.5.5zm1.2-4c-.1.2-.2.3-.4.3h-.2c-2.3-1-4.7-2-6.3-2.7l-.2-.2c-.2-.1-.3-.3-.2-.6.1-.2.3-.3.6-.2l.3.1c1.6.7 4 1.7 6.3 2.7.1.2.2.4.1.6zm1.6 1.2c-.2-.1-.3-.3-.2-.6.1-.2.3-.3.6-.2.4.2.9.4 1.3.6.2.1.3.3.2.6-.1.2-.2.3-.4.3H77c-.5-.4-.9-.6-1.3-.7zm2.2 7.2c-.2-.5-.3-.8-.3-.8-.1-.2 0-.5.2-.6.2-.1.5 0 .6.2 0 0 .1.3.3.8.1.2 0 .5-.3.5h-.1c-.2.2-.4.1-.4-.1zm1.3 4.1c-.3 0-.4-.2-.5-.4-.1-.7-.2-1.5-.4-2.3-.1-.2.1-.5.3-.5.2-.1.5.1.5.3.2.9.4 1.7.5 2.4 0 .3-.1.5-.4.5z" style="fill:#ffa0b9"/><path class="st1" d="M79.4 62.8c-1.2-.3-2-1.5-2.5-3.5-.6-2.9-1.2-4.4-2-4.8-.2-.1-.6-.2-1.4.1-.6.3-.8 1.3-1 2.5-.3 1.9-.8 4.4-3.6 5.6-1.3.5-2.5.5-3.6 0-2.1-1.1-3.1-4-3.6-6.3-.3-1.2-.9-2.1-1.6-2.4-.5-.2-1-.2-1.5.1-.4.2-.6 1.7-.8 2.9-.3 2.3-.7 5.2-2.9 6-.5.2-1.1.3-1.6.3-.7 0-1.4-.2-2-.6-1.7-1-2.8-3.4-3.3-7-.2-1.6-1.2-2-1.8-2.1-1-.1-2 .3-2.3 1.1-.1.2-.2.3-.2.5-1 2.1-2.7 5.9-5.3 5.9-.2 0-.5 0-.7-.1-1.8-.5-2.5-2.3-3.1-3.9-.5-1.3-1-2.5-1.9-2.8-.7-.2-1 .3-1.5 2.1-.4 1.4-1 2.9-2.2 3.5-1 .4-1.9.4-2.8 0-1.3-.6-2.4-2.2-2.9-4.1-.4-1.6-.8-2.5-1.3-2.8-.1-.1-.3-.1-.8.1-.3.1-.5 1.1-.7 1.9-.3 1.4-.6 3.1-1.8 4.1-.2.2-.5.3-.7.4.9 8 2.1 15 2.8 15.9 1.6.5 26.7 3.6 41.2 4.6 14.8 1 19.3 0 19.8-.5.2-1 .5-10.7.8-17.8-1.1.9-2.3 1.3-3.2 1.1zM26.5 74.2c0 .2-.2.4-.4.4H26c-1.1-.1-1.7-.2-1.7-.2-.2 0-.4-.2-.4-.5 0-.2.2-.4.5-.4 0 0 .6.1 1.7.2.3 0 .5.3.4.5zm13.1 1.5c0 .2-.2.4-.4.4-4-.4-7.9-.9-10.4-1.2-.2 0-.4-.2-.4-.5 0-.2.2-.4.5-.4 2.6.3 6.4.8 10.4 1.2.1.1.3.3.3.5zm10 1.5c-2.2-.2-4.9-.5-8.1-.9-.2 0-.4-.2-.4-.5 0-.2.2-.4.5-.4 3.2.4 5.9.6 8.1.9.2 0 .4.2.4.5-.1.2-.3.4-.5.4zm5.3.4c-.6 0-1.4-.1-2.5-.2-.2 0-.4-.2-.4-.5 0-.2.2-.4.5-.4 1.1.1 1.9.2 2.5.2.2 0 .4.2.4.4-.1.4-.3.5-.5.5zm25.2.3c0 .2-.2.4-.4.4s-.4-.2-.4-.4l.1-1.3c0-.2.2-.4.4-.4s.4.2.4.4l-.1 1.3zm.2-3.1c0 .2-.2.4-.4.4s-.4-.2-.4-.4l.3-6c0-.2.2-.4.4-.4s.4.2.4.4l-.3 6zm0-10.4c.2 0 .4.2.4.4l-.1 1.9c0 .2-.2.4-.4.4s-.4-.2-.4-.4l.1-1.9c0-.3.2-.5.4-.4z"/><path class="st3" d="M21.8 48c.7.1 1.5.1 2.2.2.3 0 .5-.2.5-.5s-.2-.5-.5-.6c-.8-.1-1.5-.1-2.2-.2-.3 0-.6.2-.6.5.1.3.3.6.6.6zM26.7 48.4c4.9.4 10.9.9 16.8 1.3.3 0 .5-.2.5-.5s-.2-.5-.5-.6c-5.9-.4-11.9-.9-16.8-1.3-.3 0-.5.2-.6.5.1.4.3.6.6.6zM46.5 50c8.6.6 16.4 1.1 22.6 1.3.3 0 .5-.2.5-.5s-.2-.5-.5-.6c-6.1-.2-13.9-.7-22.5-1.3-.3 0-.5.2-.6.5 0 .3.2.6.5.6zM72.9 50.4c-.6 0-1.2 0-1.8-.1-.3 0-.5.2-.6.5 0 .3.2.5.5.5.6 0 1.2 0 1.8.1.3 0 .5-.2.5-.5.1-.2-.1-.5-.4-.5z"/><path class="st3" d="M85.4 50.9v-.2c0-.1.1-.5-.3-.8-3.2-2.4-19.9-9.4-25.3-11.6-.1-.4-.3-.9-.5-1.3-1.4-3-3.2-5.6-5.3-7.4.3-.5.6-1.1.7-1.7.1-.6.7-1.5.9-1.8.1-.2.1-.4 0-.6-.1-.2-.3-.3-.5-.2-.4.1-1-.2-1.5-.4-.6-.3-1.3-.5-2-.6-.5 0-.9 0-1.2.1-.1-1.2-.6-2.3-1-3-.3-.6-.4-1.8-.4-2.2 0-.2-.2-.5-.4-.5-.2-.1-.5.1-.6.3-.2.3-.9.8-1.7 1.3-.5.3-1 .7-1.5 1.1-.8.6-1.3 1.3-1.6 1.9-.5-.5-1.2-.9-2-1.2-.6-.2-1.3-.9-1.5-1.2-.2-.2-.4-.2-.7-.1-.2.1-.3.4-.3.6.1.4 0 .9-.2 1.5-1.2-.7-3-1.4-5.1-1-4.3.7-11.5 6.7-13.8 10.6-.7 1.2-.8 2.3-.5 3.4.5 1.5 2 2.6 3.6 3.5-3.3 2.3-7.5 5.9-7.7 7.2v.3c-1.1 5.1.2 11.2 2 12.5.3 2.7.8 6.9 1.4 10.3 1 6.3 1.6 6.6 1.9 6.8 1 .5 12.7 1.8 16.3 2.2 9.8 1.1 19.3 2 25.4 2.4 4.2.3 7.9.4 11 .4 1.5 0 2.9 0 4.2-.1 4.7-.3 5.5-.9 5.7-1.6.3-1.1.8-16.8.9-19.3 1.7-2.7 1.7-9.3 1.6-9.6zM58.3 37.4c.8 1.8.8 3.4 0 4.7-1.1 1.7-3.7 2.9-6.9 3-6.8.2-11.7-2.4-12.9-5.1-1.2-2.5-.9-5.2.8-7.8 1.8-2.8 5.2-4.9 7.8-4.9h.2c3.8.1 8.4 4.4 11 10.1zm-18.7-15c.3.3.7.5 1.1.6 1.1.4 1.8.9 2 1.6.1.2.3.4.5.3.2 0 .4-.2.5-.4 0 0 .2-1.4 1.5-2.4.5-.4 1-.7 1.5-1 .4-.3.8-.6 1.1-.8.1.5.2 1 .4 1.5.4.8 1.1 2 .9 3.3 0 .3.1.5.3.6.2.1.5 0 .6-.2.1-.1.4-.3 1.3-.3.6 0 1.1.3 1.7.5.4.2.7.3 1.1.4-.2.4-.5 1-.6 1.4-.1.3-.2.8-.4 1.2-.2-.1-.3-.3-.5-.4.1-.2.1-.4.2-.6 0-.1 0-.2-.1-.3-.1 0-.2 0-.3.1 0 .1-.1.3-.1.4-1.7-1.2-3.4-1.8-5-1.9-3-.1-6.8 2.2-8.9 5.3-1.6 2.3-2 4.9-1.4 7.2-.8.1-1.7 0-2.4-.2-.5-.1-.9-.2-1.4-.1.1-.3.1-.5.2-.8.1-.6.3-1.2.6-2 .7-1.3 1.5-1.4 1.7-1.4h.1c.3 0 .5-.2.5-.5s-.2-.5-.5-.5h-.1c-.5 0-1.1-.8-1.8-2.3-.2-.4-.4-.8-.7-1.1.6-.1 1.4-.4 2.7-.9 1.8-.7 3.1-.3 3.1-.3.2.1.5 0 .6-.2.1-.2.1-.5-.1-.6 0 0-.5-.6-.6-2.2-.1-.9.1-1.7.3-2.3.3-.2.3-.5.4-.7zm-19.5 13c-.3-.8-.1-1.6.4-2.5 2.1-3.7 9.1-9.4 13-10.1 1.9-.3 3.5.4 4.6 1.1-.1.5-.1 1-.1 1.6.1.8.2 1.4.4 1.8-.7 0-1.6.1-2.7.5-2.7 1-3.2.9-3.2.9-.2-.1-.5 0-.6.2-.1.2-.1.5.1.7 0 0 .8.8 1.2 1.6.3.6.7 1.7 1.4 2.3-.5.3-1 .8-1.4 1.6-.4.9-.6 1.6-.7 2.2-.2.7-.2 1.1-.6 1.4-.2.2-.3.4-.1.7.1.2.4.3.6.2 0 0 1-.4 2-.1.6.2 1.3.3 2 .3.4 0 .7 0 1.1-.1-5 1.4-9.9.3-11.9-.5-2.3-.7-4.9-2-5.5-3.8zm-4.2 11.9c.5.1 1.2.2 2.5.3h.1c.3 0 .5-.2.5-.5s-.2-.6-.5-.6c-1.3-.1-2-.2-2.4-.3.8-1.1 3.9-4 7.6-6.5.4.2.9.4 1.3.6 1.4.6 4.1 1.2 7.1 1.2 1.8 0 3.7-.2 5.6-.8 1 1.7 2.9 3.1 5.6 4.1 2.2.8 4.9 1.2 7.5 1.2h.6c3.5-.1 6.4-1.4 7.7-3.5.4-.7.8-1.8.7-3.1 4.8 2 19.9 8.3 23.9 10.9-.8.1-2.6.2-6.7.2-.3 0-.5.2-.5.5s.2.5.5.5h2.3c2.7 0 4.1-.1 4.9-.3 0 1.5-.2 6.7-1.7 8.5-1.1 1.3-2.3 2-3.1 1.8-1-.2-1.4-1.6-1.7-2.7-.7-3.4-1.4-5-2.5-5.5-.7-.3-1.4-.3-2.4.1-1.1.5-1.4 1.8-1.6 3.2-.3 1.8-.7 3.9-3 4.8-1 .4-1.9.4-2.7 0-.9-.5-2.2-1.9-3-5.6-.3-1.5-1.1-2.7-2.2-3.2-.8-.3-1.7-.3-2.4.2-.9.5-1.1 1.9-1.3 3.7-.3 2.2-.6 4.6-2.2 5.2-.4.4-1.4.6-2.4 0s-2.3-2.2-2.8-6.2c-.2-1.6-1.2-2.8-2.7-3-1.4-.2-2.9.5-3.5 1.7l-.3.6c-.9 2-2.6 5.8-4.8 5.3-1.2-.3-1.8-1.7-2.4-3.2-.6-1.5-1.2-3-2.5-3.4-1.8-.6-2.4 1.3-2.9 2.7-.4 1.2-.8 2.4-1.7 2.8-.7.3-1.3.3-1.9 0-1-.5-1.9-1.8-2.3-3.4-.5-2.1-1-3.1-1.8-3.5-.5-.2-1-.2-1.6 0-.9.4-1.1 1.4-1.3 2.7-.2 1.3-.5 2.7-1.5 3.5-.2.2-.3.1-.4.1-1.2-.8-2.6-6.1-1.7-11.1zM62 79.9c-14.5-1-39.6-4-41.2-4.6-.6-.8-1.9-7.8-2.8-15.9.2 0 .5-.2.7-.4 1.3-1.1 1.6-2.8 1.8-4.1.2-.8.3-1.8.7-1.9.4-.2.6-.1.8-.1.5.2.9 1.1 1.3 2.8.5 2 1.5 3.5 2.9 4.1.9.4 1.9.5 2.8 0 1.3-.6 1.8-2.1 2.2-3.5.6-1.8.9-2.3 1.5-2.1.9.3 1.4 1.5 1.9 2.8.6 1.6 1.3 3.4 3.1 3.9.2.1.5.1.7.1 2.6 0 4.4-3.8 5.3-5.9.1-.2.2-.4.2-.5.4-.8 1.4-1.3 2.3-1.1.6.1 1.6.5 1.8 2.1.5 3.6 1.6 5.9 3.3 7 .6.4 1.3.6 2 .6.5 0 1-.1 1.6-.3 2.2-.8 2.6-3.7 2.9-6 .2-1.2.4-2.7.8-2.9.5-.3 1-.3 1.5-.1.7.3 1.3 1.2 1.6 2.4.5 2.3 1.5 5.3 3.6 6.3 1.1.5 2.2.6 3.6 0 2.8-1.2 3.3-3.7 3.6-5.6.2-1.2.4-2.2 1-2.5.8-.4 1.2-.2 1.4-.1.8.4 1.4 1.9 2 4.8.4 2.1 1.3 3.3 2.5 3.5 1 .2 2.1-.2 3.2-1.2-.2 7.1-.6 16.8-.8 17.8-.5.6-5 1.6-19.8.6z"/><path class="st3" d="M45.2 32.3s.7 1.6 1.4 1.1c.6-.5-.5-1.1-1.4-1.1zM27.6 33.8s-1.8-.2-1.7.7c.2.7 1.2 0 1.7-.7zM30.2 34.5c.1.7 1.1 0 1.7-.7 0 0-1.8-.2-1.7.7zM28.3 37.9c.1.7 1.1 0 1.7-.7 0 .1-1.8-.1-1.7.7zM29.6 29.8s-1.8-.2-1.7.7c.2.7 1.2 0 1.7-.7zM22.8 32.5c.1.7 1.1 0 1.7-.7-.1 0-1.8-.2-1.7.7zM31.8 26.1s-1.8-.2-1.7.7c.2.7 1.2.1 1.7-.7zM35.4 23.9s-1.8-.2-1.7.7c.1.7 1.2 0 1.7-.7zM51.4 36.4s.7 1.6 1.4 1.1c.6-.5-.5-1-1.4-1.1zM56.1 41.5c.6-.4-.5-1-1.4-1.1 0 0 .7 1.7 1.4 1.1zM49.1 42.2s.7 1.6 1.4 1.1c.6-.4-.5-1-1.4-1.1zM47.4 38s.7 1.6 1.4 1.1c.6-.4-.5-1-1.4-1.1zM42.3 40.2s.7 1.6 1.4 1.1c.6-.5-.5-1-1.4-1.1zM41.2 35s.7 1.6 1.4 1.1c.5-.4-.6-1-1.4-1.1zM79.8 76.2c-.2 0-.4.2-.4.4l-.1 1.3c0 .2.2.4.4.4s.4-.2.4-.4l.1-1.3c0-.2-.2-.4-.4-.4zM80.1 68.4c-.2 0-.4.2-.4.4l-.3 6c0 .2.2.4.4.4s.4-.2.4-.4l.3-6c0-.2-.1-.4-.4-.4zM80.3 64.4c-.2 0-.4.2-.4.4l-.1 1.9c0 .2.2.4.4.4s.4-.2.4-.4l.1-1.9c0-.2-.2-.4-.4-.4zM66.8 60.5c-.6-.4-1.1-.9-1.6-1.7-.1-.2-.4-.3-.6-.2-.2.1-.3.4-.2.6.5.9 1.1 1.6 1.9 2 .1 0 .1.1.2.1s.3-.1.4-.2c.1-.2.1-.5-.1-.6zM64.6 57.6c-.2-.5-.2-.9-.2-.9 0-.2-.2-.4-.5-.4-.2 0-.4.2-.4.5 0 0 .1.4.3 1 .1.2.2.3.4.3h.1c.3-.1.4-.3.3-.5zM53.6 60.6c-.8-.2-1.4-.7-1.9-1.7-.1-.2-.4-.3-.6-.2-.2.1-.3.4-.2.6.6 1.1 1.4 1.8 2.5 2.1h.1c.2 0 .4-.1.4-.3.1-.2-.1-.5-.3-.5zM51.2 57.7c-.1-.5-.2-.9-.2-.9 0-.2-.2-.4-.5-.4-.2 0-.4.2-.4.5 0 0 .1.4.2 1 .1.2.2.3.4.3h.1c.3 0 .5-.2.4-.5zM78.3 57.3c.2.8.4 1.6.4 2.3 0 .2.2.4.4.4s.4-.2.4-.5c-.1-.7-.2-1.6-.5-2.4-.1-.2-.3-.4-.5-.3-.1.1-.2.3-.2.5zM77.9 55.9c.1.2.2.3.4.3h.1c.2-.1.3-.3.3-.5-.2-.5-.3-.8-.3-.8-.1-.2-.3-.3-.6-.2-.2.1-.3.3-.2.6 0-.1.1.2.3.6zM38.6 58.6c-.4-.2-.8-.6-1.2-1.4-.1-.2-.4-.3-.6-.2-.2.1-.3.4-.2.6.5.9 1 1.5 1.7 1.8h.1c.2 0 .3-.1.4-.3.1-.1 0-.4-.2-.5zM36.9 56.2c-.2-.5-.3-.9-.3-.9-.1-.2-.3-.4-.5-.3-.2.1-.4.3-.3.5 0 0 .1.4.3 1 .1.2.2.3.4.3h.1c.3-.2.4-.4.3-.6zM25.5 56.8c.5.9 1 1.5 1.6 1.7h.1c.2 0 .3-.1.4-.3.1-.2 0-.5-.3-.5-.4-.1-.8-.6-1.2-1.3-.1-.2-.4-.3-.6-.2 0 .2-.1.4 0 .6zM25 55.5c.1.2.2.3.4.3h.1c.2-.1.3-.3.3-.5-.2-.5-.3-.9-.3-.9-.1-.2-.3-.4-.5-.3-.2.1-.4.3-.3.5 0 0 .1.4.3.9zM17.8 57.3c.1 0 .2 0 .2-.1.2-.1.2-.4.1-.6-.3-.4-.5-.9-.7-1.6-.1-.2-.3-.4-.5-.3-.2.1-.4.3-.3.5.2.8.5 1.4.8 1.9.2.1.3.2.4.2zM16.9 54.2c.2 0 .4-.3.4-.5-.1-.5-.1-.9-.1-.9 0-.2-.2-.4-.5-.4-.2 0-.4.2-.4.5 0 0 0 .4.1 1 .1.2.2.3.5.3zM75.7 48.7c.4.2.9.4 1.3.6h.2c.2 0 .3-.1.4-.3.1-.2 0-.5-.2-.6-.4-.2-.8-.4-1.3-.6-.2-.1-.5 0-.6.2-.1.3 0 .6.2.7zM67 44.9l.3.1c1.6.7 4 1.7 6.3 2.7h.2c.2 0 .3-.1.4-.3.1-.2 0-.5-.2-.6-2.3-1-4.7-2-6.3-2.7l-.3-.1c-.2-.1-.5 0-.6.2-.1.4 0 .6.2.7zM64.1 43.7s.5.2 1.3.5h.2c.2 0 .3-.1.4-.3.1-.2 0-.5-.2-.6-.8-.3-1.3-.5-1.3-.5-.2-.1-.5 0-.6.2-.1.4 0 .6.2.7zM54.9 76.8c-.6 0-1.4-.1-2.5-.2-.2 0-.4.2-.5.4 0 .2.2.4.4.5 1.1.1 1.9.2 2.5.2.2 0 .4-.2.4-.4.1-.3-.1-.5-.3-.5zM49.7 76.4c-2.1-.2-4.9-.5-8.1-.9-.2 0-.4.1-.5.4 0 .2.1.4.4.5 3.2.4 6 .6 8.1.9.2 0 .4-.2.4-.4.1-.3-.1-.5-.3-.5zM39.2 75.2c-4-.4-7.9-.9-10.4-1.2-.2 0-.4.1-.5.4 0 .2.1.4.4.5 2.6.3 6.5.8 10.4 1.2.2 0 .4-.2.4-.4.1-.2-.1-.4-.3-.5zM26.2 73.7c-1.1-.1-1.7-.2-1.7-.2-.2 0-.4.1-.5.4 0 .2.1.4.4.5 0 0 .6.1 1.7.2h.1c.2 0 .4-.2.4-.4s-.2-.5-.4-.5zM47.6 23c.2.5.6 1.4.3 2.1 0 .1 0 .2.1.3h.1c.1 0 .2-.1.2-.1.3-.8 0-1.8-.3-2.4 0-.1-.2-.2-.3-.1-.1 0-.1.1-.1.2zM47.3 22.4c0 .1.1.1.2.1h.1c.1 0 .2-.2.1-.3-.1-.3-.1-.6-.1-.6 0-.1-.1-.2-.2-.2s-.2.1-.2.2c-.1.1 0 .4.1.8zM40.9 24.3c.5.3.8.8 1 1.4 0 .1.1.2.2.2s.2-.1.2-.3c-.2-.7-.6-1.3-1.2-1.6-.1-.1-.2 0-.3.1s0 .1.1.2zM40 23.9s.1 0 .4.1h.1c.1 0 .2-.1.2-.1 0-.1 0-.2-.1-.3-.3-.1-.4-.1-.4-.1-.1 0-.2.1-.2.2-.2.1-.1.2 0 .2zM52.8 27.2c.1 0 .1 0 0 0 .1 0 .2-.1.3-.2.1-.2.1-.4.1-.4 0-.1 0-.2-.2-.3-.1 0-.2 0-.3.2 0 0 0 .1-.1.4.1.1.1.2.2.3zM38.8 29.3c-1-.2-2.1.1-2.8.4-.1 0-.2.2-.1.3 0 .1.1.1.2.1h.1c.7-.3 1.7-.5 2.6-.4.1 0 .2-.1.2-.2s0-.2-.2-.2zM35.3 30l-.4.2c-.1.1-.1.2-.1.3 0 .1.1.1.2.1h.1s.1-.1.3-.2c.1-.1.1-.2.1-.3 0-.1-.1-.2-.2-.1zM36.1 34.9c-.4.2-.9.6-1.3 1.2-.1.1 0 .2.1.3h.1c.1 0 .1 0 .2-.1.3-.5.7-.9 1.1-1 .1 0 .2-.2.1-.3 0-.1-.1-.1-.3-.1zM34.7 36.8c-.1-.1-.2 0-.3.1-.2.4-.3.7-.3.7 0 .1 0 .2.1.3h.1c.1 0 .2-.1.2-.1s.1-.3.3-.6c.1-.3 0-.4-.1-.4zM55.1 35c.1.1.2.2.3.2.1 0 .2 0 .3-.1.2-.1.2-.4.1-.6-.2-.2-.4-.5-.5-.7-.2-.2-.4-.2-.6-.1-.2.2-.2.4-.1.6.1.3.3.5.5.7zM47.3 28.6c-.2 0-.4.2-.4.4s.2.4.4.4c1.3.1 3.5.8 6.4 3.9.1.1.2.1.3.1.1 0 .2 0 .3-.1.2-.2.2-.4 0-.6-2.5-2.6-4.9-4-7-4.1zM46.3 29c-.1-.2-.3-.4-.5-.3-.8.2-1.2.6-1.3.7-.2.2-.2.4 0 .6.1.1.2.1.3.1.1 0 .2 0 .3-.1 0 0 .3-.3.9-.5.2 0 .3-.3.3-.5z"/></svg>