<svg version="1.1" id="Layer_1" xmlns="http://www.w3.org/2000/svg" x="0" y="0" viewBox="0 0 100 100" style="enable-background:new 0 0 100 100" xml:space="preserve"><style>.st0{fill:#ffceab}.st1{fill:#ff554c}.st2{fill:#371c2a}</style><path class="st0" d="M43.7 59.5c-.8 2.4-2.9 3.8-5.5 3.4-1.2-.2-2.3-.8-3.1-1.8-1-1.2-1.6-4.9-3.5-3.5-1.1.8-1 2.5-2.4 3.3-.7.4-1.5.6-2.3.3-2.1-.8-1.8-3.4-3.1-4.8-2.3-2.5-3.6 3.4-5.5 4.3-1.7.8-2.6-.4-2.9-1.9-.2-1.2 0-2.5 0-3.7 0-1.9-.4-3.1-2.1-1.4-1 1-2.4 3.6-4 3.5-.1 0-.2 0-.4-.1.4 1.4 1 2.7 1.9 4 4.1 5.7 12.4 7.3 19 7.8 8.1.6 17.3.1 24.4-4.3l-1.8-.6c-2.9-1-6.1-2.5-8.7-4.5z"/><path class="st1" d="M11.3 54.5c.8-.9 2.3-3.3 3.8-3.1 1.6.2 1.3 2.6 1.3 3.7s-.9 5.7 1.9 4.4c1-.5 1.7-2.8 2.4-3.7.9-1.1 1.8-2 3.1-1 2 1.6 3 9.3 6.4 3.2.9-1.6 2-3.4 3.7-1.4 1.1 1.3 1.1 3.2 2.4 4.3 2.4 2.1 5.6.8 6.5-2.1-2.6-2.1-4.7-4.7-5.7-7.7-2.9-.1-6.2-.6-8.6-2.4-.9-.7-1.8-1.9-.9-3 1-1.2 3.2-1.5 4.7-1.8 1.6-.3 3.2-.5 4.8-.4.5-2 1.5-3.8 2.7-5.2h-.1c-1.1 0-2.1-.1-3.2-.2-6.7-.4-14.1.1-20.1 3.4-1.7.9-3.1 2.2-4.3 3.6l-.1.1c-2.2 2.8-3.4 6.4-3.1 9.9 0 .6.4.9.9.9.5-.1 1.3-1.2 1.5-1.5zm26.2.9c.4.1.8 0 1.2-.1.3-.1.5.1.6.3.1.3-.1.5-.3.6-.5.2-1 .2-1.5.2-.3 0-.5-.2-.5-.5 0-.2.2-.5.5-.5zm-6.5-3c.6.2 1.1.2 1.7.2.6 0 .6 1 0 1-.7 0-1.3 0-2-.2-.6-.2-.3-1.2.3-1zm5-12.2c.5.3 1 .8 1.2 1.3.3.6-.6 1.1-.9.5-.2-.4-.5-.7-.9-1-.4-.3.1-1.2.6-.8zm-8 .7c.6-.1 1.1-.3 1.7-.4.6-.2.9.8.3 1-.6.1-1.1.3-1.7.4-.6.1-.9-.9-.3-1zm-4.9 7.7c-.3.4-.6.9-.9 1.3-.3.5-1.2 0-.9-.5.3-.4.6-.9.9-1.3.3-.5 1.2 0 .9.5zm.9 3.6c.6-.2 1.3-.4 1.9-.5.6-.2.9.8.3 1-.6.2-1.3.4-1.9.5-.7.1-.9-.9-.3-1zm-2.5-9.5c.4.4 1 .7 1.6.8.3 0 .4.4.3.6-.1.3-.3.4-.6.3-.8-.1-1.5-.5-2-1-.5-.4.2-1.1.7-.7zm-4.6 4.1c.7.1 1.3-.1 1.8-.5s1 .5.5.9c-.7.5-1.5.7-2.3.6-.7-.1-.7-1.1 0-1z"/><path class="st0" d="M86.9 57.2c-1.1-.2-1.2-1.6-1.8-2.3-1.9-2.7-2.7 1.2-3.5 2.7-.7 1.2-1.7 2.5-3.3 2.6-1.4.1-2-.6-2.6-1.8-.3-.6-.3-1.3-.7-1.9-1.5-2.7-2.9-1.6-4.4-.1-1.6 1.6-4.3 4.8-6.7 2.7-1.1-1-1.6-3.3-2.1-4.7-.8-2.1-1.6-2.4-3.5-1-.6.4-1.1 1-1.7 1.4-2.3 1.6-4.6 1.2-4.5-1.9 0-1 .9-3.6-1-3.7-.7 0-1.8 1.4-2.4 1.9-.9.8-2.2 2.3-3.5 2.3-2.7 0-2.2-3.5-1.8-5.2.2-.9 1.2-2.7-.2-2.3-.7.2-1.7 1.8-2.3 2.2-.7.5-1.6 1.1-2.5.8-.3-.1-.5-.2-.7-.4.3 2.8 1.4 5.5 3.5 7.8 3.7 4.2 9.1 6.2 14.4 7.7h.1c.5.1 1 .3 1.5.4 6.2 1.6 12.8 3 19.2 1.8 5.3-1 10.9-4.4 12.4-9.9-.5.5-1.2 1-1.9.9zM36.8 44.6c-2.4-.1-5.1.2-7.2 1.1-.4.2-1.3.5-1.4 1-.1.8 1.2 1.5 1.7 1.8 2.1 1.2 4.6 1.6 7 1.7-.4-1.6-.4-3.4-.1-5.3-.1-.1 0-.2 0-.3z"/><path class="st1" d="M81.4 39.7c-6.3-4.8-16.9-7.4-24.7-7.5-5.7 0-11.8 1.7-15.7 6.1-1.8 2.1-2.9 4.5-3.2 6.9 0 .2.1.4.1.5.6.6 1.3 1.1 1.9 1.7.4-.3.8-.6 1.1-.9l.9-.9c.5-.5 1.4-1.6 2.3-1.4 2.1.6-.4 5-.1 6.3 1.1 4.3 5.4-3 7.8-2.6 3 .4.4 4.7 1.4 6.1 1.7 2.5 5.7-4.2 8.2-2.7 2.7 1.7 1.5 10.1 6.6 6.2 1.6-1.2 3.8-5.1 6.3-4 .9.4 1.2 1.2 1.5 2 .4.8.4 2.1 1 2.8 1.4 1.7 3.1 0 3.9-1.3.7-1.3 1.3-4.8 3.4-4.6 2.9.3 1.8 6.6 5 1.3l.1-.1c.2-5.4-3.9-10.5-7.8-13.9zm-28.5-3.8c.3.5.8.9 1.3 1.1.6.2.3 1.2-.3 1-.8-.3-1.5-.8-1.9-1.5-.3-.6.6-1.1.9-.6zm-3.1 3.9c-.8.4-1.7.5-2.6.2-.6-.2-.4-1.1.3-1 .6.2 1.2.2 1.8-.1.6-.2 1.1.6.5.9zm2.3 3.5c-.4.5-1.2-.2-.7-.7.4-.4.8-.8 1.1-1.2.4-.5 1.2.2.7.7-.3.4-.7.8-1.1 1.2zm3.4 3.5c-.7.1-1.3.1-2 .2-.6.1-.6-.9 0-1 .7-.1 1.3-.1 2-.2s.7.9 0 1zm22.3-6.4c.7 0 1.4.1 2 .3.6.2.3 1.2-.3 1-.6-.2-1.1-.3-1.8-.3-.5 0-.5-1 .1-1zM68 36.2c.5.4.8 1 .9 1.6.2.6-.8.9-1 .3-.1-.5-.3-.8-.7-1.2-.4-.4.3-1.1.8-.7zm-8.1-.9c.6 0 1.2-.1 1.8-.1.6 0 .6 1 0 1s-1.2.1-1.8.1c-.7.1-.7-.9 0-1zm2.2 13.8c-.7-.1-1.4-.3-2.1-.6-.6-.3-.1-1.2.5-.9.5.2 1 .4 1.6.5.3 0 .5.2.5.5 0 .2-.3.5-.5.5zm5.6 3.9c-.6.1-1.1.1-1.6-.1-.6-.2-.3-1.2.3-1 .4.1.7.2 1.1.1.6-.1.8.9.2 1zm2.6-2.3c0-.3-.1-.6-.2-.9-.3-.5.5-1.1.9-.5.3.4.4.9.4 1.4-.1.6-1.1.6-1.1 0zm3.1-4.9c-.5 3.3-5.6 2-7.5 1.4-2.4-.7-8.1-2.6-8.3-5.7-.2-3.8 7.1-2.6 9.1-2 2.2.6 7.1 3.3 6.7 6.3zm1.4-5.2c-.4.5-1.1-.2-.7-.7.5-.5.9-1 1.4-1.5.4-.5 1.1.2.7.7-.5.5-.9 1-1.4 1.5zm3.8 9.7c-.8.2-1.7.4-2.5.7-.6.2-.9-.8-.3-1 .8-.3 1.6-.5 2.5-.7.7-.1 1 .8.3 1zm1.8-3.3c-.9 0-1.7-.2-2.5-.4-.6-.2-.4-1.1.3-1 .7.2 1.5.4 2.3.4.5 0 .5 1-.1 1zm4 .3c.3-.1.5.1.6.3l.6 1.5c.1.3-.1.5-.3.6-.3.1-.5-.1-.6-.3l-.6-1.5c-.2-.2 0-.5.3-.6z"/><path class="st0" d="M66.3 40.4c-1.6-.6-3.3-.9-5-.6-1.2.2-1.4.1-1.9 1.2-.6 1.2-.4 1.3.6 2.1 1.6 1.4 3.8 2.3 5.9 2.9.9.3 1.8.5 2.7.7.6.1 2.1.4 2.6 0 1.1-.8 1-2.1.4-3-1-1.5-3.5-2.8-5.3-3.3z"/><path class="st2" d="M18.2 47.8c.8.1 1.6-.1 2.3-.6.5-.4 0-1.2-.5-.9-.5.4-1.1.6-1.8.5-.6-.1-.6.9 0 1zM24.1 44.5c.3 0 .5-.1.6-.3.1-.2-.1-.6-.3-.6-.6-.1-1.1-.3-1.6-.8s-1.2.3-.7.7c.6.5 1.3.9 2 1zM29.6 41.9c.6-.1 1.1-.3 1.7-.4.6-.2.4-1.1-.3-1-.6.1-1.1.3-1.7.4-.6.1-.3 1.1.3 1zM36.8 41c.4.2.7.6.9 1 .3.6 1.1.1.9-.5-.3-.6-.7-1-1.2-1.3-.6-.4-1.1.5-.6.8zM23.5 48.1c-.3.4-.6.9-.9 1.3-.4.5.5 1 .9.5.3-.4.6-.9.9-1.3.3-.5-.5-1-.9-.5zM25.6 53.1c.6-.2 1.3-.4 1.9-.5.6-.2.4-1.1-.3-1-.6.2-1.3.4-1.9.5-.6.2-.4 1.2.3 1zM32.1 53.4c.6.2 1.3.2 2 .2.6 0 .6-1 0-1s-1.2 0-1.7-.2c-.7-.2-.9.8-.3 1zM38.8 56.4c.5.1 1 0 1.5-.2.3-.1.4-.3.3-.6-.1-.2-.4-.4-.6-.3-.4.2-.8.2-1.2.1-.3 0-.5.3-.5.5 0 .3.2.5.5.5z"/><path class="st2" d="M91.3 53.8c.1-5.3-3.3-10.9-7.9-14.8h-.1c-6.2-4.7-15.9-7.1-23.5-7.6-6.4-.4-13.6 1.5-18 6.1-1.3-.3-2.8-.2-4.2-.2-7.1-.5-16.9.4-23 5.1-.1 0-.2 0-.3.2-.1.1-.2.3-.3.4-1.5 1.3-2.8 3-3.7 4.9-.9 1.6-1.5 3.4-1.6 5.3 0 .8 0 2 .5 3 1.5 9.7 13.1 13.3 22.3 13.9 8.5.6 18.1-.1 25.3-5 9.3 2.7 20.9 4.8 29-1.3 3.6-2.7 5.2-5.9 5.4-9.3.2-.4.2-.6.1-.7zM58 32.3c7.8.1 18.4 2.7 24.7 7.5 4 3.4 8.1 8.4 7.8 13.9l-.1.1c-3.2 5.2-2-1-5-1.3-2.1-.2-2.7 3.3-3.4 4.6-.8 1.3-2.5 3-3.9 1.3-.6-.7-.7-1.9-1-2.8-.3-.8-.7-1.7-1.5-2-2.5-1.1-4.7 2.8-6.3 4-5.1 4-3.9-4.5-6.6-6.2-2.5-1.6-6.5 5.2-8.2 2.7-1-1.4 1.6-5.7-1.4-6.1-2.3-.3-6.7 7-7.8 2.6-.3-1.3 2.2-5.7.1-6.3-.9-.3-1.8.8-2.3 1.4l-.9.9c-.3.3-.7.6-1.1.9-.6-.6-1.3-1.1-1.9-1.7-.1-.2-.1-.3-.1-.5.3-2.4 1.4-4.8 3.2-6.9 3.9-4.5 9.9-6.2 15.7-6.1zM38.1 44.9c-.4 1.9-.3 3.7.1 5.3-2.4-.1-4.9-.5-7-1.7-.5-.3-1.8-1-1.7-1.8.1-.5 1-.8 1.4-1 2.2-.9 4.9-1.2 7.2-1.1v.3zm-.5-6.7c1.1.1 2.1.1 3.2.2h.1c-1.2 1.5-2.1 3.2-2.7 5.2-1.6-.1-3.2.1-4.8.4-1.5.2-3.7.6-4.7 1.8-.9 1.1 0 2.3.9 3 2.4 1.8 5.7 2.3 8.6 2.4 1 3.1 3.1 5.6 5.7 7.7-.9 2.8-4 4.2-6.5 2.1-1.3-1.2-1.3-3-2.4-4.3-1.8-2-2.8-.2-3.7 1.4-3.4 6-4.4-1.7-6.4-3.2-1.3-1-2.3-.1-3.1 1-.7.8-1.4 3.2-2.4 3.7-2.7 1.3-1.9-3.3-1.9-4.4 0-1.1.3-3.5-1.3-3.7-1.5-.2-3 2.2-3.8 3.1-.3.3-1.1 1.4-1.5 1.5-.6 0-.9-.3-1.1-.7-.3-3.5.9-7.1 3.1-9.9l.1-.1c1.2-1.4 2.6-2.7 4.3-3.6 6.2-3.5 13.6-4 20.3-3.6zm-6.4 30.6c-6.6-.5-14.8-2.1-19-7.8-.9-1.3-1.5-2.6-1.9-4 .1 0 .2.1.4.1 1.6.1 3.1-2.5 4-3.5 1.6-1.7 2.1-.5 2.1 1.4 0 1.2-.2 2.5 0 3.7.2 1.5 1.2 2.7 2.9 1.9 1.9-.9 3.2-6.8 5.5-4.3 1.2 1.4 1 4 3.1 4.8.8.3 1.5.2 2.3-.3 1.4-.8 1.3-2.6 2.4-3.3 1.9-1.4 2.5 2.2 3.5 3.5.8 1 1.9 1.6 3.1 1.8 2.7.5 4.7-1 5.5-3.4 2.7 2 5.8 3.4 8.8 4.4l1.8.6c-7.2 4.5-16.4 5-24.5 4.4zM77.7 66c-6.4 1.2-13-.2-19.2-1.8-.5-.1-1-.3-1.5-.4h-.1c-5.3-1.4-10.7-3.4-14.4-7.7-2-2.3-3.2-5-3.5-7.8.2.2.4.3.7.4.9.3 1.8-.2 2.5-.8.6-.4 1.6-2 2.3-2.2 1.4-.4.4 1.4.2 2.3-.4 1.7-.9 5.2 1.8 5.2 1.3 0 2.6-1.5 3.5-2.3.6-.5 1.7-1.9 2.4-1.9 2 .1 1.1 2.7 1 3.7-.1 3.1 2.2 3.6 4.5 1.9.6-.4 1.1-1 1.7-1.4 1.9-1.3 2.7-1 3.5 1 .5 1.3.9 3.7 2.1 4.7 2.5 2.1 5.1-1.1 6.7-2.7 1.5-1.5 2.9-2.5 4.4.1.3.6.4 1.3.7 1.9.6 1.2 1.2 1.9 2.6 1.8 1.5-.1 2.6-1.3 3.3-2.6.9-1.5 1.6-5.3 3.5-2.7.5.7.6 2.2 1.8 2.3.7.1 1.4-.4 1.9-1.1-1.5 5.7-7 9.1-12.4 10.1z"/><path class="st2" d="M67.2 47.1c2 .6 7 1.9 7.5-1.4.5-3-4.5-5.7-6.8-6.3-1.9-.7-9.3-1.9-9.1 2 .2 3.2 6 5 8.4 5.7zM60.7 41c.6-1.2.8-1.1 1.9-1.2 1.7-.2 3.4 0 5 .6 1.8.5 4.3 1.8 5.2 3.4.6.9.6 2.2-.4 3-.5.4-2 .1-2.6 0-.9-.1-1.8-.4-2.7-.7-2-.7-4.2-1.5-5.9-2.9-.9-.9-1.1-.9-.5-2.2zM48.6 40c.9.3 1.7.2 2.6-.2.6-.3.1-1.1-.5-.9-.6.3-1.2.3-1.8.1-.7-.1-.9.8-.3 1zM55.3 37.9c.6.2.9-.7.3-1-.5-.2-1-.6-1.3-1.1-.4-.5-1.2 0-.9.5.5.8 1.1 1.3 1.9 1.6zM79.7 49.3c-.8.2-1.7.4-2.5.7-.6.2-.3 1.2.3 1 .8-.3 1.6-.5 2.5-.7.6-.2.3-1.1-.3-1zM79.2 46.6c.8.2 1.7.4 2.5.4.6 0 .6-1 0-1-.8 0-1.5-.2-2.3-.4-.6-.2-.8.8-.2 1zM86 49.4c.1.2.3.4.6.3.2-.1.4-.4.3-.6l-.6-1.5c-.1-.2-.3-.4-.6-.3-.2.1-.4.4-.3.6l.6 1.5zM76.1 40.6c.5-.5.9-1 1.4-1.5.4-.5-.3-1.2-.7-.7-.5.5-.9 1-1.4 1.5-.4.5.3 1.2.7.7zM79.1 41.4c.6 0 1.2.1 1.8.3.6.2.9-.8.3-1-.7-.2-1.3-.3-2-.3s-.7 1-.1 1zM61.2 36.3c.6 0 1.2-.1 1.8-.1.6 0 .6-1 0-1s-1.2.1-1.8.1c-.6.1-.6 1.1 0 1zM69.3 38.1c.2.6 1.1.4 1-.3-.2-.6-.5-1.2-.9-1.6-.5-.4-1.2.3-.7.7.3.4.5.7.6 1.2zM53.5 43.3c.4-.4.8-.8 1.1-1.2.4-.5-.3-1.2-.7-.7-.4.4-.8.8-1.1 1.2-.5.5.2 1.2.7.7zM54.9 46.9c.7-.1 1.3-.1 2-.2.6-.1.6-1.1 0-1-.7.1-1.3.1-2 .2s-.7 1.1 0 1zM63.4 48.1c-.5-.1-1.1-.2-1.6-.5-.6-.3-1.1.6-.5.9.7.3 1.3.5 2.1.6.3 0 .5-.3.5-.5 0-.3-.2-.5-.5-.5zM68.8 52.1c-.4.1-.8 0-1.1-.1-.6-.2-.9.8-.3 1 .5.2 1.1.2 1.6.1.7-.2.4-1.2-.2-1zM71.4 49.8c.2.3.2.6.2.9 0 .6 1 .6 1 0 0-.5-.1-1-.4-1.4-.3-.5-1.2 0-.8.5z"/></svg>