<svg version="1.1" id="Layer_1" xmlns="http://www.w3.org/2000/svg" x="0" y="0" viewBox="0 0 100 100" style="enable-background:new 0 0 100 100" xml:space="preserve"><style>.st1{fill:#1c1c1b}.st2{fill:#f4f4f4}.st3{fill:#a87536}.st4{fill:#f5bc2a}.st5{fill:#805126}.st6{opacity:.11;fill:#1c1c1b}</style><ellipse cx="50" cy="71.2" rx="35.7" ry="10.1" style="fill:#cce7e9"/><path class="st1" d="M50 81.8c-20.3 0-36.2-4.6-36.2-10.6 0-5.9 15.9-10.6 36.2-10.6s36.2 4.6 36.2 10.6c0 5.9-15.9 10.6-36.2 10.6zm0-20.2c-19.1 0-35.2 4.4-35.2 9.6 0 5.2 16.1 9.6 35.2 9.6s35.2-4.4 35.2-9.6c0-5.2-16.1-9.6-35.2-9.6z"/><path class="st1" d="M77.8 66.7c2.6 4.7-3.7 6.7-7.1 7.6-6.4 1.6-12.9 2.4-19.5 2.6-6.5.2-13.1-.4-19.5-1.7-3-.6-6-1.4-8.7-2.8-1.5-.7-3.3-1.6-3.7-3.2-.1 0-.1-.1-.1-.1-.6-1.2-.1-2.9 1.2-3.4.3-.1.7-.1 1-.1 0-4.5.1-9 .1-13.6 0-4-.2-8.2.3-12.2-.2-.4-.2-.9-.1-1.5.7-2.6 4.8-3.4 7.2-3.3.1 0 .1-.1.2-.1-.3-2.4-.2-5-.2-7.3s.5-4.2 2.4-5.7c4.5-3.6 12.3-3.8 17.8-3.7 3.4 0 6.8.3 10.2 1 2.4.4 5 .9 7 2.5 1.7 1.4 2.3 3.3 2.5 5.4 0 .3.1.6.1.8.1.1.1.3 0 .4.2 1.9.2 3.9.2 5.8.3 0 .6 0 1 .2.1 0 .2.1.2.2 1.3 0 2.7.3 3.8.7 1.5.6 2.1 1.6 2.5 3 .1.1.1.1.1.2v.2s.1.1.1.2c1.1 8.9.9 18.2.6 27.2v.2c.1 0 .2.1.3.2 0 .2.1.2.1.3zm-13.6 7.9c3.1-.5 15.5-1.9 12.9-7.4-.9 0-1.5.8-1.8 1.6.2.3-.2.6-.5.5-.5-.3-1.1-.5-1.7-.1-.5.4-.4 1-.4 1.6 0 .2-.2.3-.4.2-.1.1-.3.2-.5.1-1.2-.6-2.4-.8-3.6-.2-1.1.5-1.6 1.3-2.3 2.2-.1.1-.2.1-.3 0 0 .4-.6.5-.7.1-.6-2-3.3-.3-3.7.5-.1.2-.4.3-.5.1-1.3-1-2.8-.6-3.8.6 0 .1-.1.1-.2.1-.1.1-.2.1-.3.1-.2 0-.3-.1-.4-.3-.7-2-3.2-2.2-4.9-1.8-1.5.4-2.6 1.3-3.6 2.4 0 .1-.1.1-.1.1-.2.1-.4 0-.4-.1-.4-.8-.8-1.5-1.8-1.5-.9-.1-1.6.6-2 1.3-.1.2-.3.1-.4 0 0 .2-.2.3-.4.3-.1 0-.2 0-.3-.2-1.4-2.3-4.2-2.7-6.2-.9-.1.1-.4.1-.5 0-.8-.8-1.6-1-2.6-.6-.1.3-.6.3-.8 0-1.1-2.7-4-3.4-6.4-1.8-.2.1-.3 0-.4-.1-.2 0-.3-.1-.3-.3.1-1-.7-1.9-1.7-1.3-.2.1-.6 0-.5-.3.1-.7 0-1.4-.2-2.1-.1 0-.3 0-.3-.2-.3-.7-1.1-1.1-1.8-.7-.7.4-.8 1.2-.7 2 .4 2.6 5.2 3.9 7.2 4.5 2.2.7 4.5 1.2 6.7 1.6 2.9.5 5.9.9 8.8 1.1 2.1.2 4.3.2 6.4.2 2.6 0 5.1-.1 7.7-.3 2.7-.2 5.2-.6 7.7-1zm12.4-8.1c-.1-.1-.1-.2-.1-.3v-3.4c-8.9 4-18.7 5.6-28.5 5.5-8.5-.1-18.8-.9-25.6-6.7V66c.2.1.3.3.4.4.6.8.9 1.7.9 2.6 1.1-.3 2.3.5 2.2 1.7 2.5-1.7 5.9-.7 7.1 2.1.7-.4 1.4-.3 2.2-.1 1.2.3.8.2 2-.3 2.2-.9 4.5.1 5.7 2.1.6-2.2 3.9-2.4 4.7-.4 1.1-1.5 2.9-2.5 4.8-2.6 1.7-.1 3.9.5 4.5 2.2.9-1.2 2.7-1.5 4-.8 1-1.5 4-2.2 4.8-.3.5-2.8 4.3-3.5 6.5-2.4-.1-.6.3-1.3.8-1.7.5-.4 1.3-.5 1.9-.2.1-.8.8-1.5 1.7-1.8zm-.2-4.5v-1.1c-3.2 2.6-8.1 3.3-12 4.1-4.9 1.1-9.8 1.7-14.8 1.8-9 .2-19.8-1.1-27.2-6.9v1.2c7.9 5.2 16.7 6.5 26 6.5 9.6 0 19.2-1.6 28-5.6zm0-2.1c0-1.8-.1-3.6-.1-5.4-8 4.1-17.9 5-26.8 5.2-9.2.1-18.7-1.2-27-5.5v5.3c7.5 5.3 17.7 6.8 26.7 6.7 4.6-.1 9.2-.6 13.8-1.6 4.2-.9 10-1.7 13.4-4.7zm-.2-6.2v-.6c-8.7 3.4-18.1 5-27.4 4.9-4.7-.1-9.4-.6-14-1.6-4.3-.9-8.6-2-12.3-4.5v1.8c.1-.1.2-.1.3 0 8.5 3.7 17.5 5.3 26.7 5.2 8.8-.1 18.7-1 26.7-5.2zm0-1.4c-.1-3.8-.1-7.7 0-11.5-.9 1.3-2.7 1.9-4.4 2.3-4.3.9-8.7 1.4-13.1 1.8-9 .8-18.2.7-27.1-.9-.3-.1-.2-.6.1-.6 7.3.7 14.6 1.2 21.9.9 3.8-.2 7.7-.5 11.5-1 2.9-.4 10.5-.5 11-4.4-.2-.6-.3-1.2-.7-1.7-.5-.7-1.3-1-2-1.2-.8-.2-1.5-.3-2.3-.4.4 1 .3 2.4-.7 2.9 0 .1-.1.1-.1.2C67 40.4 63.5 41 60 41.5c-4.1.6-8.2.9-12.3.8-5.9 0-14.9.3-19.3-4.5-.1-.1-.1-.1-.1-.2-.7-.5-.5-1.3 0-2-1.8.3-3.8.6-5.1 1.8-3 2.7 2.4 4.2 4.1 4.8.4.1.2.7-.2.6-1.3-.2-3.5-.8-4.7-2 .3 3.5 0 7.1-.1 10.5 7.9 4.6 18.2 5.8 27.2 5.9 9.2.1 18.2-1.6 26.7-4.9zm-6.5-14.5c.8-.4.8-1.8.2-2.4-.4-.5-1.1-.5-1.5 0-.4.4-.4.9-.4 1.4l.1.1c.3.3-.1.7-.4.5-.4-.2-.8-.4-1.3-.2-.4.2-.7.6-.8 1 0 .2-.2.4-.4.4-.9-.2-1.6-.3-2.4 0-.8.3-1.3.8-1.9 1.4 0 .2-.1.4-.2.4s-.2 0-.2-.1c-.9-.7-1.9-.8-2.8-.2 0 .1-.1.1-.2.1-.1.1-.4 0-.4-.1-1.1-.8-2.5-.7-3.4.4-.1.1-.3.1-.4 0 0 0-.1 0-.1-.1-1.5-1.6-3.7-1.5-5.2 0-.1.1-.1.1-.2.1-.1.1-.3.2-.4.1-.6-.4-1.1-.8-1.9-.9-.8-.1-1.5.2-2.1.7-.1.2-.4.4-.6.2-1.4-1.6-3.6-1.9-5.3-.6 0 .2-.3.3-.4.2l-.1-.1c-.5-1-1.9-1.5-2.9-1-.1.1-.2 0-.2-.1-.1 0-.1-.1-.2-.2-.2-.5-.3-1-.8-1.4-.6-.4-1.2-.3-1.8 0-.2.2-.6.2-.6-.2.1-.5.3-2.1-.7-1.9-.7.1-1.4 1.2-.9 1.8 0 .1.1.1 0 .2 2.3 1.8 5.2 2.8 8.2 3.3 3.9.7 8 .6 11.7.6 3.8 0 8.1-.1 12.1-.7 3.1-.5 6.1-1.3 8.7-2.8 0 .2 0 .1.1.1zm-1.6-3.7v-.5c-12.2 4.1-26.1 4.3-38.2-.7 0 .3 0 .7.1 1 12.5 4 25.6 4.3 38.1.2zm0-1.3c0-.8 0-1.6-.1-2.4-12.5 3.7-26.1 3.5-38.3-1.1 0 1 .1 2.1.2 3.1 12.6 4.2 25.6 4.7 38.2.4zm-.1-3.2v-.7c-12.3 3.9-26.3 3.8-38.1-1.6-.1.5-.1 1-.1 1.5 12.4 4.1 25.5 4.5 38.2.8zm-.6 6.9c0-.5.1-1 .4-1.4-5.6 1.8-11.4 2.8-17.3 2.9-7 .1-13.9-1-20.5-3.4v.3c.3.1.6.3.8.5.4.5.4 1.1.3 1.7.6-.3 1.3-.3 1.9 0 .6.3 1.1 1 1.1 1.7 1.1-.5 2.5-.2 3.1.8 1.7-1.6 4.4-1.4 5.9.4 1.2-1.2 3.6-1.3 4.6.1.7-.9 1.7-1.4 2.8-1.5 1.1-.1 2.2.4 3 1.2 1-1.1 2.9-1.2 4-.2.8-.7 2.2-.8 3.1-.1.6-1.6 3-2.5 4.6-1.8.3-.9 1.3-1.5 2.2-1.2zm.5-8.4c-.1-1.1-.2-2.2-.6-3.1-.5-1.3-1.2-2.4-2.7-3.2-4.4-2.4-10.6-2.6-15.5-2.6-5.2 0-11.9.2-16.4 3-1.1.7-1.8 1.6-2.3 2.6-.3.6-.4 1.3-.5 2h.1c12.3 4.5 25.3 5.4 37.9 1.3z"/><path class="st2" d="M77.2 67.2c2.6 5.5-9.9 6.9-12.9 7.4-2.5.4-5.1.8-7.6 1l-.1-1c.1 0 .2-.1.3-.1.1 0 .1 0 .2-.1 1-1.2 2.5-1.5 3.8-.6.2.1.5 0 .5-.1.4-.8 3.1-2.5 3.7-.5.1.4.7.3.7-.1.1.1.2.1.3 0 .7-.8 1.2-1.7 2.3-2.2 1.2-.5 2.5-.3 3.6.2.2.1.4 0 .5-.1.2.1.4 0 .4-.2 0-.6-.1-1.2.4-1.6.5-.5 1.2-.2 1.7.1.3.1.7-.2.5-.5.1-.9.8-1.6 1.7-1.6z"/><path class="st3" d="M76.5 66.2c0 .1 0 .2.1.3-.8.3-1.6 1-1.7 1.8-.6-.3-1.4-.2-1.9.2s-.8 1.1-.8 1.7c-2.2-1.1-6-.4-6.5 2.4-.8-1.9-3.7-1.2-4.8.3-1.4-.7-3.1-.5-4 .8-.6-1.7-2.8-2.3-4.5-2.2-1.9.1-3.7 1-4.8 2.6-.8-2-4.1-1.8-4.7.4-1.2-2-3.5-3-5.7-2.1-1.3.5-.9.7-2 .3-.9-.2-1.5-.3-2.2.1-1.2-2.8-4.6-3.8-7.1-2.1 0-1.2-1.1-1.9-2.2-1.7 0-.9-.3-1.8-.9-2.6-.1-.2-.2-.3-.4-.4V61.6c6.8 5.8 17 6.6 25.6 6.7 9.8.1 19.6-1.5 28.5-5.5-.1 1.1-.1 2.3 0 3.4z"/><path class="st4" d="M76.4 60.8v1.1c-8.8 4-18.4 5.6-28 5.6-9.3 0-18.1-1.3-26-6.5v-1.2c7.3 5.7 18.2 7.1 27.2 6.9 5-.1 10-.8 14.8-1.8 3.8-.8 8.8-1.5 12-4.1z"/><path class="st5" d="M76.2 54.6c0 1.8.1 3.6.1 5.4-3.4 3-9.2 3.7-13.5 4.6-4.5.9-9.1 1.5-13.8 1.6-9 .2-19.2-1.3-26.7-6.7v-5.3c8.2 4.3 17.8 5.7 27 5.5 9-.1 18.9-1 26.9-5.1z"/><path class="st4" d="M76.2 53.1v.6c-8 4.2-17.9 5.1-26.8 5.2-9.3.2-18.2-1.4-26.7-5.2h-.3v-1.8c3.7 2.4 8 3.5 12.3 4.5 4.6 1 9.3 1.5 14 1.6 9.4.1 18.8-1.5 27.5-4.9z"/><path class="st3" d="M76.1 40.8c-.1 3.8 0 7.7 0 11.5-8.5 3.3-17.5 5-26.5 4.9-8.9 0-19.3-1.3-27.2-5.9.1-3.5.3-7.1.1-10.5 1.2 1.2 3.4 1.8 4.7 2 .4.1.6-.5.2-.6-1.7-.6-7.1-2.2-4.1-4.8 1.3-1.2 3.3-1.5 5.1-1.8-.5.6-.6 1.4 0 2 0 .1 0 .1.1.2 4.4 4.8 13.4 4.5 19.3 4.5 4.1 0 8.2-.3 12.3-.8 3.5-.5 7-1.1 10.1-2.9.1 0 .1-.1.1-.2.9-.5 1.1-1.9.7-2.9.8.1 1.6.2 2.3.4.8.2 1.5.6 2 1.2.4.5.5 1.2.7 1.7-.4 3.9-8.1 4-11 4.4-3.8.5-7.7.9-11.5 1-7.3.3-14.6-.2-21.9-.9-.3 0-.4.5-.1.6 8.9 1.6 18.1 1.7 27.1.9 4.4-.4 8.8-.9 13.1-1.8 1.7-.2 3.6-.8 4.4-2.2z"/><path class="st2" d="M69.9 35.4c.5.6.5 2-.2 2.4l-.2.2c-2.6 1.4-5.6 2.3-8.7 2.8l-.1-.4c.2 0 .3-.2.2-.4.6-.6 1.1-1.1 1.9-1.4.9-.3 1.6-.1 2.4 0 .3 0 .4-.2.4-.4.1-.4.4-.8.8-1 .5-.2.9 0 1.3.2.3.2.7-.2.4-.5l-.1-.1c0-.5 0-1 .4-1.4.5-.5 1.2-.5 1.5 0z"/><path class="st4" d="M68.1 33.5v.5c-12.5 4.1-25.6 3.9-38.1-.2 0-.3 0-.7-.1-1 12.1 5 26 4.9 38.2.7z"/><path class="st5" d="M68 30.4c0 .8.1 1.6.1 2.4-12.6 4.2-25.6 3.7-38.2-.4-.1-1-.2-2.1-.2-3.1C42 33.9 55.5 34.1 68 30.4z"/><path class="st4" d="M67.9 28.8v.7c-12.6 3.7-25.8 3.3-38.2-.8 0-.5 0-1 .1-1.5 11.9 5.4 25.8 5.5 38.1 1.6z"/><path class="st3" d="M67.8 35c-.3.4-.4.9-.4 1.4-.9-.2-2 .4-2.3 1.3-1.5-.7-3.9.2-4.6 1.8-.9-.7-2.3-.6-3.1.1-1.1-1-3-.9-4 .2-.8-.9-1.9-1.3-3-1.2v-.7c6-.1 11.8-1.1 17.4-2.9zM67.3 25c.3 1 .5 2 .6 3.1-12.6 4.1-25.6 3.2-37.9-1.3h-.1c.1-.7.3-1.4.5-2l1.4.3c0 .1 0 .2.1.2 10.9 3.9 23.6 3.4 34.6.2.2-.1.3-.2.2-.4l.6-.1z"/><path class="st3" d="m67.3 25-.5.2c0-.2-.2-.4-.4-.3-11.6 3.4-22.8 2.8-34.4.1-.1 0-.2 0-.2.1l-1.4-.3c.4-1 1.2-1.9 2.3-2.6 4.5-2.8 11.3-3 16.4-3 4.8 0 11.1.2 15.5 2.6 1.5.8 2.2 1.9 2.7 3.2z"/><path class="st1" d="M66.7 25.1c0 .2 0 .3-.2.4-11 3.2-23.7 3.7-34.6-.2-.1 0-.1-.1-.1-.2s.1-.1.2-.1c11.6 2.7 22.8 3.3 34.3-.1.2-.1.4.1.4.2z"/><path class="st2" d="m60.7 40.4.1.4c-4.1.6-8.3.7-12.1.7-3.6 0-7.8.1-11.7-.6l.1-.6c.2.1.4 0 .4-.2 1.7-1.3 3.9-1 5.3.6.2.2.5.1.6-.2.6-.5 1.3-.8 2.1-.7.8 0 1.3.4 1.9.9.1.1.3 0 .4-.1.1 0 .1 0 .2-.1 1.5-1.6 3.7-1.7 5.2 0 0 0 .1 0 .1.1.1.1.2.2.4 0 .9-1 2.3-1.2 3.4-.4 0 .2.2.3.4.1.1 0 .2-.1.2-.1.9-.6 1.9-.5 2.8.2h.2zM56.6 74.6l.1 1c-2.6.2-5.1.3-7.7.3-2.2 0-4.3-.1-6.4-.2V75c.2 0 .3-.1.4-.3.1.1.3.1.4 0 .4-.8 1.1-1.4 2-1.3.9.1 1.4.8 1.8 1.5.1.2.3.2.4.1 0 0 .1 0 .1-.1 1-1.2 2.1-2.1 3.6-2.4 1.7-.4 4.3-.1 4.9 1.8 0 .2.2.3.4.3z"/><path class="st3" d="M50.5 37.9v.7c-1 .1-2.1.6-2.8 1.5-1-1.4-3.5-1.3-4.6-.1-1.5-1.8-4.2-2-5.9-.4-.7-1-2.1-1.4-3.1-.8 0-.7-.6-1.4-1.1-1.7-.6-.3-1.3-.3-1.9 0 .1-.6 0-1.2-.3-1.7-.2-.3-.5-.4-.8-.5v-.3c6.6 2.3 13.6 3.4 20.5 3.3z"/><path class="st2" d="M42.6 75v.7c-3-.2-5.9-.6-8.8-1.1-2.3-.4-4.5-.9-6.7-1.6-2-.6-6.7-1.9-7.2-4.5 0-.7.1-1.6.7-2 .7-.4 1.5 0 1.8.7.1.2.2.2.3.2.2.7.3 1.4.2 2.1 0 .3.3.4.5.3 1-.6 1.8.2 1.7 1.3 0 .2.1.3.3.3.1.1.3.2.4.1 2.3-1.6 5.3-.9 6.4 1.8.2.4.7.3.8 0 1-.4 1.9-.2 2.6.6.1.1.4.1.5 0 2.1-1.8 4.8-1.4 6.2.9.1.2.2.2.3.2zM37.1 40.3l-.1.6c-3-.5-5.9-1.5-8.2-3.3v-.2c-.5-.7.2-1.7.9-1.8 1-.2.8 1.4.7 1.9 0 .3.4.4.6.2.6-.3 1.2-.3 1.8 0 .5.3.6.8.8 1.4 0 .1.1.1.2.2 0 .1.1.2.2.1 1.1-.6 2.4-.1 2.9 1 .1-.2.1-.1.2-.1z"/><path class="st6" d="M72.1 35.7c-.3-1.2-2.3-.7-1.9.5 1.6 6.2-19.1 5.2-22 5.1-3.7 0-7.5-.1-11.2-.5-3.3-.3-6.3-1.1-8.6-3.7-.4-.4-1 .1-.8.6 1.4 3 4.9 4 7.9 4.5 5.3.7 10.7.8 16 .9 4.7 0 9.8.4 14.4-.9 3-.8 7.1-2.9 6.2-6.5zM78.8 65.2c0-1.3-1.9-1.3-2 0v.2c-1-.1-2 .7-2.5 1.6-.7 0-1.4.3-1.8.6-.4.3-.7.8-.9 1.3-1.8-1.5-4.8.2-5.8 2.3-.8-.9-2.2-.8-3.3-.4-.7.2-1.5.6-1.9 1.2-1.1-.5-2.5-.4-3.4.4-2.2-2.3-6.6-1.1-9.2.5-1.1-1.5-3.4-1.4-4.7 0-1.4-2.3-5.3-1.9-7.3-.5-.3-.4-.8-.7-1.4-.7-.4 0-.8 0-1.2.2-1.1-2.4-4.8-3-7.2-2-.3-.7-.8-1.1-1.5-1.3 0-1.2-1.7-2.3-2.6-2.8-.4-.2-.8.3-.5.6.4.4.9.8 1.4 1.2.3.3.5.6.6 1-.1 0-.1 0-.2.1-.3.1-.2.5.1.5l.1.1c0 .3.3.4.5.4.4.3.8.6 1.3 1 0 .3.3.6.6.5 2.1-.8 5.9-.7 6.5 2 .1.6 1 .5 1.1 0 .2-.1.4-.2.7-.2.3 0 .6.2.7.5.2.3.6.3.9.1h.2c2.3-1.2 4.6-1.2 6.3.8.3.4.9.1 1-.3.5-.4 1-.7 1.6-.9.8-.1 1.6.2 1.9 1 .3.8 1.5.5 1.4-.2 2.3-1.1 6.2-2.5 8-.3.3.3.7.2.9 0 1.1-.6 2-.6 3.2 0 .3.1.6.1.7-.1l.3-.3c.1-.6 1-.8 1.5-.9.8-.2 1.5-.2 2 .5.4.4.9.2 1.1-.2 1.3-.7 3.2-3.6 4.8-1.8.3.4.8.3 1.1 0 .1 0 .3-.2.3-.4.1-.6.4-1.2.9-1.4.5-.3 1-.1 1.6-.1.6 0 .8-.6.6-1 .1-.1.3-.2.4-.3.4-.2.8-.2 1.2-.2.1.2.1.4.2.6.5 1.6 0 2.7-1.4 3.5-2.2 1.3-5.1 1.9-7.6 2.6-5.3 1.4-10.8 2.2-16.3 2.4-5.3-.2-10.6-.6-15.9-1.6-2.7-.5-5.3-1.1-8-1.9-2.4-.7-7.1-1.4-8-4.1-.1-.4-.7-.3-.7.1 0 2.2 2 3 3.8 3.7 3 1.3 6 2.2 9.2 3 6.6 1.6 13.5 2.3 20.3 2.1 6.7-.2 13.4-1.2 19.8-3.2 2.3-.7 5.1-1.4 6.7-3.3 1.6-2.2-.2-3.8-.2-6.2z"/><path class="st6" d="M68.3 34.6c-.9-.2-1.7.4-2 1.3-.5.1-1 .4-1.4.8-1.5-.2-3.6.4-4.5 1.7-.9-.6-2.5-.5-3.2.3-.8-.5-2.1-.4-2.9.1-.8-.9-2.3-1.1-3.4-.9-1.1.1-2.5.4-3.1 1.3-1.1-1.2-3.4-1.2-4.7-.3-1.5-1.3-4.2-1.4-5.5.1-.6-.7-1.7-1.2-2.6-.9-.6-1-1.8-1.6-3-1.7-.1-.9-.9-1.8-1.9-1.8-.4 0-.5.7-.1.7.4.1.7.3.8.7.1.2.1.4.1.5h-.1c-.4.1-.4.6-.1.8.1.4.5.7.8.3.1-.1.1-.1.1-.2.4.1.7.2 1.1.3.6.3.9.8 1.4 1.2.2.2.5.2.7 0 .8 0 1.5.2 2 1 .2.3.6.3.8.1h.1c1.6-1 3.1-1.2 4.7.1.4.3.8.1 1-.2.6-.2 1.3-.4 2-.3.7.1 1.2.5 1.9.8.2.1.4 0 .6-.2.1 0 .2 0 .3-.1.6-.8 1.7-.8 2.6-.9 1.2-.1 1.9.2 2.7 1 .4.4 1.1.1 1.1-.5.3-.1.6-.2 1-.2.5.1.9.5 1.4.6.4.1.7-.2.8-.5.3-.2.6-.3 1-.3.6 0 .9.3 1.4.5.4.1.7-.2.8-.5.5-.3 1-.7 1.6-1 .8-.3 1.5-.2 2.3-.1.4 0 .7-.3.7-.6.4-.2.8-.3 1.2-.3.4 0 .7-.3.7-.7.1-.4.5-.5.8-.7.6-.3.7-1.2 0-1.3z"/></svg>