<svg version="1.1" id="Layer_1" xmlns="http://www.w3.org/2000/svg" x="0" y="0" viewBox="0 0 100 100" style="enable-background:new 0 0 100 100" xml:space="preserve"><style>.st3{fill:#371c2a}</style><path d="M39.4 31.8c-3.7 1.7-7.4 3.5-11.3 4.7-4.1 1.3-8.9 1.5-12.6 3.8-4.9 3.1-5.2 10.3-3.4 15.2 2.1 5.7 7.2 9.4 12.8 11.3 5.4 1.8 11.7 2.2 17.3 1 3.3-.7 6.3-2.1 8.7-4.5 1.6-1.6 2.8-3.3 4.6-4.6 4.9-3.6 10.4-6.5 15.5-9.6 5.1-3.1 10.3-6.3 15.4-9.4v-.1c0-.1 0-.1.1-.2-9-6.3-18.5-12.6-28.7-17-6 3.3-12.1 6.5-18.4 9.4zm34.8 8.8c-3.9 3.6-9.3 6.3-13.8 9.2-5.1 3.2-10.4 6.3-15.8 9-6.5 3.3-17 6.8-22.3-.6-1.9-2.6-2.5-6.3-.8-9.2.8-1.4 2.2-2.4 3.5-3.3 2-1.5 3.2-3.4 5-5 3-2.6 8.1-2.8 11.7-4.2 5.6-2.2 10.7-5.3 15.4-9.1h.1c0-.3.3-.7.7-.5 3.2 1.2 22.3 8.3 16.3 13.7z" style="fill:#ffceab"/><path d="M28.3 44.5c-1.4 1.5-3.3 2.3-4.8 3.8-2.8 2.8-2.4 7.4.2 10.2 2.2 2.4 5.7 3.2 8.8 3.1 5.8-.2 11.3-3.4 16.2-6.2 4.7-2.6 9.4-5.5 13.9-8.4 2.3-1.5 4.5-3 6.8-4.5.8-.5 2.9-1.5 3.4-2.3.3-1.1.7-2.1 1-3.2-.8-.7-1.6-1.3-2.5-1.9-4.2-3-8.7-5.3-13.6-7l-.1.1c-7.2 5.9-15 9.2-23.8 11.9-2.8.9-3.5 2.3-5.5 4.4zm14.1 11c-5.4-1.2-10.8-1.4-16.3-.7-.7.1-.7-1 0-1.1 5.6-.7 11.1-.5 16.6.7.7.2.4 1.3-.3 1.1zm16-22.2c1.9-.1 3.8.3 5.6 1 .6.3.1 1.2-.6.9-1.6-.7-3.3-1-5-.9-.7.2-.7-.9 0-1zm-4.9 5c3.6-.3 7.1-.1 10.7.7.7.1.4 1.2-.3 1.1-3.4-.7-6.9-.9-10.4-.6-.7-.1-.7-1.2 0-1.2zM42.6 42c5 .5 10 1 15.1 1.5.7.1.7 1.2 0 1.1-5-.5-10-1-15.1-1.5-.7-.1-.7-1.2 0-1.1zm5.4 6.8c.7.1.4 1.2-.3 1.1-5.2-1.1-10.3-1.5-15.6-1.4-.7 0-.7-1.1 0-1.1 5.4-.2 10.6.3 15.9 1.4z" style="fill:#ffa000"/><path d="M56.1 59.8c-2.8 2.1-4.6 5.2-7.6 7-8.6 5.1-22.5 3.4-30.5-2.2-3.7-2.6-6.6-6.9-7.6-11.4-.5 4.3-.3 8.6 2.1 12.4 3.2 5.1 8.5 8.6 14.2 10.1 5.8 1.5 12.3 3 18.1.9 5.4-2 8.8-5.6 12.5-9.7 3.5-3.8 8.3-5.9 12.8-8.2 4.3-2.2 8.4-4.3 12.3-7.2 2.7-2 2.6-1.9 3-5.2.2-1.8.5-3.5.7-5.3L66 53.3c-3.2 2.3-6.7 4.1-9.9 6.5z" style="fill:#7d3838"/><path class="st3" d="M89.5 39.1c-9.5-6.5-19.4-13.3-30-17.8h-.1c-.1-.1-.3-.1-.5 0-6.4 3.6-12.9 6.9-19.5 10-4.8 2.2-9.6 4.2-14.7 5.4-3.7.9-8.1 1.6-10.5 4.8-1.7 2.2-2.5 4.6-2.7 7.1-1 5.1-1.7 10.5.4 15.4 1.9 4.6 6.2 8.5 10.6 10.8 5.2 2.7 11.9 3.9 17.7 4 5 .1 9.7-2.1 13.7-5.1 2-1.5 3.4-3.3 5-5.1 2.4-2.8 5.3-4.7 8.5-6.4 5.6-2.9 11.4-5.4 16.5-9.2 2-1.4 3.7-2.1 4-4.5.4-2.7.7-5.4 1.1-8.1.2-.1.4-.2.6-.4.3-.2.3-.6-.1-.9zm-72.4 1.2c3.7-2.3 8.5-2.5 12.6-3.8 3.9-1.3 7.6-3 11.3-4.7 6.2-2.9 12.3-6.1 18.3-9.4 10.1 4.4 19.6 10.7 28.7 17 0 .1-.1.1-.1.2v.1c-5.1 3.1-10.3 6.3-15.4 9.4-5.1 3.2-10.6 6-15.5 9.6-1.8 1.3-3.1 3-4.6 4.6-2.4 2.4-5.4 3.8-8.7 4.5-5.6 1.1-11.9.8-17.3-1-5.6-1.9-10.7-5.6-12.8-11.3-1.8-4.9-1.5-12.1 3.5-15.2zm70 6.1c-.4 3.2-.4 3.1-3 5.2-3.9 2.9-8 5-12.3 7.2-4.5 2.3-9.4 4.3-12.8 8.2-3.8 4.1-7.1 7.8-12.5 9.7-5.8 2.1-12.4.6-18.1-.9-5.7-1.5-11.1-5-14.2-10.1-2.4-3.8-2.6-8.1-2.1-12.4 1 4.5 3.9 8.8 7.6 11.4 8 5.6 21.9 7.2 30.5 2.1 3-1.8 4.8-4.9 7.6-7 3.1-2.3 6.7-4.2 10-6.2l20.1-12.3c-.4 1.6-.6 3.4-.8 5.1z"/><path class="st3" d="M46 58.8c5.5-2.7 10.7-5.8 15.8-9.1 4.5-2.8 9.8-5.6 13.8-9.2 6-5.4-13.1-12.5-16.5-13.7-.4-.1-.7.2-.7.5h-.1c-4.6 3.8-9.8 6.9-15.4 9.1-3.6 1.4-8.7 1.7-11.7 4.2-1.8 1.6-3 3.5-5 5-1.3.9-2.6 1.9-3.5 3.3-1.6 2.8-1.1 6.6.8 9.2 5.5 7.5 16 4 22.5.7zM25 48.2c1.5-1.4 3.4-2.3 4.8-3.8 1.9-2 2.7-3.4 5.6-4.3 8.8-2.7 16.5-6 23.8-11.9.1 0 .1-.1.1-.1 4.8 1.7 9.4 4 13.6 7 .9.6 1.7 1.2 2.5 1.9-.3 1.1-.7 2.1-1 3.2-.5.7-2.6 1.8-3.4 2.3-2.3 1.5-4.5 3-6.8 4.5-4.5 3-9.1 5.8-13.9 8.4-4.9 2.7-10.4 6-16.2 6.2-3.1.1-6.6-.8-8.8-3.1-2.7-2.9-3.2-7.5-.3-10.3z"/><path class="st3" d="M27.6 54.9c5.5-.7 10.9-.5 16.3.7.7.1 1-.9.3-1.1-5.5-1.2-11-1.4-16.6-.7-.7.1-.7 1.2 0 1.1zM33.5 48.4c5.3-.1 10.5.3 15.6 1.4.7.1 1-.9.3-1.1-5.3-1.1-10.5-1.6-15.9-1.4-.7.1-.7 1.2 0 1.1zM44.1 43.1c5 .5 10 1 15.1 1.5.7.1.7-1 0-1.1-5-.5-10-1-15.1-1.5-.7-.1-.7 1 0 1.1zM54.9 39.4c3.5-.3 6.9-.1 10.4.6.7.1 1-.9.3-1.1-3.5-.7-7.1-.9-10.7-.7-.7.1-.7 1.2 0 1.2zM59.8 34.4c1.7-.1 3.4.2 5 .9.6.3 1.2-.7.6-.9-1.8-.8-3.6-1.1-5.6-1-.7 0-.7 1.1 0 1z"/></svg>