<svg version="1.1" id="Layer_1" xmlns="http://www.w3.org/2000/svg" x="0" y="0" viewBox="0 0 100 100" style="enable-background:new 0 0 100 100" xml:space="preserve"><style>.st0{fill:#1c1c1b}.st2{fill:#f4f4f4}.st3{fill:#eea1a1}.st4{fill:#a87536}.st5{opacity:.11;fill:#1c1c1b}</style><path class="st0" d="M46.1 23c-1.1-.8-2.3-1.9-3.3-3.3-3.5.4-10.1.4-12 3.9-1.1 2-.9 5.4-1.1 7.6-.2 2.5-1.4 6.8 1 8.6l.1.1c1.3.3 2.6-.3 3.4-1.4.9-1.3 1.1-2.9 1.3-4.4 0-.2.1-.3.3-.3.1-.1.3-.2.4 0 .3.6 1.1 1 1.7.8.7-.2 1.1-.9 1.3-1.6 0-.1.1-.2.2-.2.1-.2.4-.2.5.1v.1c.3.8 1.1 1.3 2 1.1.8-.2 1.4-.9 1.8-1.5.1-.1.3-.2.4-.1.2-.2.4 0 .4.2-.3 2.1.6 4.2 3 4.3 2.2.1 3-1.7 3.4-3.5 0-.2.2-.3.4-.2h.2c.6.4 1.2.8 1.9.6.8-.2 1.1-.9 1.3-1.7.1-.3.4-.3.6-.1.2-.1.5 0 .5.2-.2 1.7.5 3.4 2 4.1 1.6.8 3.2 0 4.4-1.1.1-.1.2-.1.2-.1.1-.1.4-.1.5.1.7 1.7 1.5 2.9 3.1 3.8.4.4.8.5 1.2.5.4.1.8.1 1.3 0 .6-.2 1-.6 1.2-1.1.4-.3.6-.8.7-1.4.2-.7.2-1.5.3-2.2.2-2.3.2-4.7.1-7-.2-3.8-2-5.6-5.5-6.6-2.6-.7-5.3-1.2-8-1.5-.1 0-.2-.1-.2-.1-2 1.9-4.6 3.5-6.1 4.4 2.9.7 5.8.9 7.8-1.8.2-.3.8 0 .6.3-1.2 2-3.4 2.8-5.7 2.7-3.1-.1-8.9-3.4-11.6-1.1-.3.2-.6-.1-.4-.4.9-1.1 2.8-1 4.4-.8zm39.4 54.3c1 2.9-.6 6-3 7.8-2.6 2-6.1 2.8-9.2 3.5-3.9.9-7.9 1.3-11.9 1.6-8 .6-16.1.5-24.1-.5-3.6-.5-7.3-1.2-10.8-2.3-3.3-.9-6.9-2-9.8-3.9-1.9-1.3-3.2-3.2-2.3-5.5.9-2.5 3.5-3.6 5.9-4.2.2 0 .3 0 .3.1v-.4c.9-6.8-.9-13.6-.2-20.4.2-2.1.5-4.7 2.2-6.1 2-1.7 5.5-2 8-2.4 0-1.3 0-2.6.1-3.8h-.1c-.4-.1-.6-.3-.9-.5-.1 0-.1-.1 0-.2-1.7-1.5-1.4-3.8-1.2-6 .3-3.1.2-6.6 1.1-9.7 1.3-4.7 8.5-5.3 12.7-5.3-1.9-2.9-2.9-6.3-.4-8.4 2.6-2.3 7.5-1.3 8.3 1.8 1.8-2.9 6.9-2.9 9 .2 1.5 2.2.4 4.5-1.5 6.4 3.7.3 8.5.7 11.5 3 3.1 2.3 2.6 6.8 2.6 10.2 0 2.5.1 6.7-2.6 8 .1.1.1.2.2.3.1 1.5.3 3.2.4 4.8 0 0 .1-.1.2-.1 4.2-.4 8.2 2 9.7 6 .9 2.5.9 5.3.9 7.9.1 3.2.1 6.5-.4 9.7-.2 1.4-.7 2.8-1.6 3.8 2.7.7 5.9 1.7 6.9 4.6zm-1.6 5c1.3-2.1 1.4-4.8-.5-6.6-1.4-1.2-3.3-1.7-5-2.1-.1 0-.1-.1-.2-.1v.1c.1 2 0 3.9-.4 5.9v.1c0 .2-.1.3-.2.4-3.6 2.7-8.3 3.3-12.6 3.9-5 .7-10 1.1-14.9 1.1-5.1 0-10.2-.4-15.2-1.1-4.3-.7-8.8-1.7-12.5-4.2-.2-.1-.2-.3-.1-.4v-.2c0-.9.2-1.7.3-2.6-1.2 0-2.1-.9-1.9-2.4l-.1.1c-2.6.9-5.8 2.2-5.3 5.5.3 2.2 2 3.1 3.9 4 3.4 1.6 7 2.7 10.6 3.6 6.9 1.7 14.1 2.2 21.2 2.2 7.5 0 15.2-.4 22.6-2.1 3.5-.7 8.2-1.7 10.3-5.1zm-4.2-19.1c.1-3.6.3-7.8-.8-11.2-1.3-3.8-5-6-8.9-5.9h-.2c0 .6 0 1.1-.1 1.7-.2 1.2-.7 1.7-1.8 2.2-3.7 1.8-8.3 2-12.3 2.3-5.1.3-10.2.3-15.3-.3-2.9-.4-7.6-.4-9.4-3.2-.1-.1-.2-.2-.2-.3v-3.3c-3 .8-7.3 1-8.6 4.2-1.1 2.6-1 5.8-.9 8.6.2 5.2 1.1 10.5.2 15.7 0 .1-.1.2-.2.3 0 .3.1.6.1.9.9 1 1.7 1.2 2.7.4 1.1-.7 1.7-1.8 2.1-3 .7-2.3 0-4.6-.5-6.9-.2-.3 0-.5.3-.4.2-.1.5 0 .6.3v.1c1.5 1 3.5 1.2 4.9-.2 1.2-1.1 1-2.6 1.7-3.9.1-.1.2-.2.3-.2.1 0 .3 0 .4.2 0 .1.1.2 0 .3.2.9 1.1 1.4 2 1.2.8-.2 1.3-.8 1.8-1.4l.1-.1c.2-.1.5-.1.5.2 0 .1.1.2 0 .3.4 2.1 1.7 4.1 3.9 4.7 2.4.7 4.4-.7 5.9-2.4.1-.1.2-.1.3-.1.2-.2.5 0 .5.3-.9 3.3.9 6.7 4.6 6.8 3.9.1 5.4-3.5 5.6-6.7 0-.3.3-.4.5-.4h.2c.8.2 1.6.1 2.3-.5.6-.6.6-1.6 1.1-2.3.1-.1.2-.2.3-.2.1-.1.3-.1.5 0 1.5 2.2 4.2 1.7 5.3-.5.1-.1.2-.2.3-.2.2-.1.6 0 .6.3.2 3.6.9 8.7 3.5 11.6 2.8 3 5.2.3 5.7-2.4.3-2.3.3-4.5.4-6.6zm-2.5 15.9c.1-1.8.2-3.5.2-5.3-.9.5-2 .5-3.4-.3-3.6-2-4.6-7.8-4.8-11.9-1.4 1.7-4.2 1.8-5.6-.1-.3.9-.6 1.9-1.5 2.4-.6.4-1.4.5-2.2.3.1 4.1-2.9 8.2-7.4 7.4-2.9-.5-5-3.2-4.8-5.9-3.1 3.3-9.6 1.2-10.2-3.4-.7.7-1.6 1.1-2.6 1-.6-.1-1.2-.4-1.6-.9-.4 1.7-.9 3.2-2.8 4-1.3.6-2.8.4-4-.2.8 3.3 1 7.4-2 9.6-.6.4-1.1.6-1.7.7 0 .9 0 1.7-.1 2.6 0 .1 0 .1-.1.2 8.3 4.1 18.1 4.7 27.2 4.7 4.9 0 9.8-.3 14.6-1 4.3-.6 8.8-1.2 12.4-3.8.3 0 .4-.1.4-.1zM65 50c2.3-.7 3.8-1.4 3.7-4-.1-1.8-.1-3.6-.2-5.3v-.1c-2.7.7-5.2-2-5.9-4.4-2.4 3-7.3.9-7.5-2.7-.7 1.1-2.4 1.5-3.4.7-.1 2.2-2.5 3.9-4.7 3.6-1.9-.3-3.4-2.1-3.2-4-.6.6-1.4 1.1-2.2 1.1-.8 0-1.4-.4-1.8-1-.3.7-1 1.3-1.7 1.4-.6.1-1.2-.1-1.7-.5-.1 1.8-.7 3.8-2.2 4.9-.6.5-1.4.8-2.2.8-.1.1-.3.1-.4.1.1 2.6 0 5.1 0 7.7v.1c1.3 1.6 3.9 1.8 5.8 2.1 2.1.4 4.2.6 6.3.7 3.5.2 7.1.2 10.7 0 3.4 0 7.1-.1 10.6-1.2zm-7.3-32.3c4.7-5.3-5.3-9.3-7.3-3.9 0 .3-.1.6-.2.9-.1.4-.8.3-.7-.2 1.6-5.8-9.8-5.8-7.8 1 .9 3 3.2 5.8 5.6 7.7.1 0 .2 0 .3.1.7.2 1.4.3 2.2.5.2 0 .4-.1.5-.2 0-.1.1-.2.2-.2 2.5-1.6 5.2-3.4 7.2-5.7z"/><path d="M83.4 75.7c1.9 1.7 1.8 4.5.5 6.6-2.1 3.4-6.7 4.4-10.3 5.2-7.4 1.7-15 2.1-22.6 2.1-7.1 0-14.3-.6-21.2-2.2-3.6-.9-7.3-2-10.6-3.6-1.9-.9-3.6-1.8-3.9-4-.5-3.3 2.8-4.6 5.3-5.5 0 0 .1 0 .1-.1-.2 1.5.7 2.3 1.9 2.4-.1.9-.3 1.7-.3 2.6v.2c-.1.1-.1.3.1.4 3.7 2.5 8.1 3.5 12.5 4.2 5 .8 10.1 1.1 15.2 1.1 5 0 10-.4 14.9-1.1 4.3-.6 9-1.2 12.6-3.9.2-.1.2-.3.2-.4v-.1c.4-1.9.4-3.9.4-5.9v-.1c0 .1.1.1.2.1 1.7.4 3.6.8 5 2z" style="fill:#cce7e9"/><path class="st2" d="M78.9 52.1c1.1 3.4.9 7.6.8 11.2 0 2.1-.1 4.2-.5 6.3-.5 2.7-3 5.3-5.7 2.4-2.6-2.8-3.3-7.9-3.5-11.6 0-.3-.4-.4-.6-.3-.1 0-.2.1-.3.2-1.1 2.3-3.8 2.7-5.3.5-.1-.2-.4-.2-.5 0-.1 0-.2.1-.3.2-.4.7-.4 1.7-1.1 2.3-.6.6-1.5.7-2.3.5h-.2c-.2 0-.5.1-.5.4-.2 3.2-1.7 6.9-5.6 6.7-3.7-.1-5.5-3.5-4.6-6.8.1-.3-.3-.5-.5-.3-.1 0-.2 0-.3.1-1.5 1.7-3.5 3-5.9 2.4-2.2-.6-3.5-2.6-3.9-4.7v-.3c0-.3-.3-.3-.5-.2 0 0-.1 0-.1.1-.5.6-1.1 1.2-1.8 1.4-.9.2-1.8-.3-2-1.2v-.3c0-.2-.2-.2-.4-.2-.1 0-.2 0-.3.2-.6 1.4-.5 2.8-1.7 3.9-1.4 1.3-3.4 1.2-4.9.2v-.1c-.1-.3-.3-.3-.6-.3-.3-.1-.5.2-.3.4.5 2.3 1.1 4.6.5 6.9-.4 1.2-1 2.3-2.1 3-.9.8-1.8.6-2.7-.4 0-.3-.1-.6-.1-.9.1 0 .2-.1.2-.3.9-5.2 0-10.4-.2-15.7-.1-2.8-.2-6 .9-8.6 1.3-3.1 5.6-3.3 8.6-4.2v3.3c0 .2.1.3.2.3 1.8 2.8 6.4 2.9 9.4 3.2 5.1.6 10.2.6 15.3.3 4.1-.2 8.6-.5 12.3-2.3 1-.5 1.6-1 1.8-2.2.1-.5.1-1.1.1-1.7h.2c3.9.2 7.7 2.3 9 6.2zm-6.8-2c.6 0 1.2-.5 1.1-1.2 0-.6-.6-1.2-1.2-1.1h-.2c-.6 0-1 .7-.9 1.3 0 .6.6 1 1.2 1zm.2 3.7c.3-.2-.1-.6-.3-.4-4.3 2.8-10.2 2.8-15.1 3.2-.1 0-.1.2 0 .2 2.9.1 5.8-.2 8.7-.6 2.4-.4 4.8-.8 6.7-2.4zm-1.5-.9c.7-.1 1.2-.8 1-1.5-.1-.5-.7-.9-1.2-.6-.6-.1-1.2.4-1.2.9 0 .7.7 1.3 1.4 1.2zM55.5 66.6c.5-.3.8-1.1.4-1.6-.4-.4-1.1-.4-1.5 0-.5.1-.8.7-.6 1.1.3.6 1.2.8 1.7.5zm-3.2.6c0-.6-.4-1.2-1-1.3l-.1-.1c-.7-.2-1.4.6-1.4 1.2 0 .7.6 1.3 1.3 1.3.6 0 1.2-.5 1.2-1.1zM48 57.4c.3 0 .3-.5 0-.5-8-.1-15.6-1.5-23.1-4.3-.2-.1-.2.2-.1.3 7.3 3.1 15.3 4.6 23.2 4.5zm-19.5-8.6c.5-.2.8-.8.5-1.3-.2-.4-.7-.7-1.2-.5h-.2c-.5.2-.7.8-.5 1.3.2.5.8.7 1.4.5zM25 50.5c.6-.1 1.2-.6 1.1-1.3-.1-.6-.7-1.2-1.3-1.1h-.1c-.7.1-1.1.7-1 1.4.1.6.7 1.1 1.3 1zm-.5 19.3c.5-.1 1-.6.9-1.1-.1-.5-.5-.8-1-.7-.5-.2-1.1.3-1.1.9 0 .5.6.9 1.2.9zM24 73c.6-.1 1.1-.6 1-1.3-.1-.4-.6-.9-1.1-.9h-.1c-.6 0-1.1.7-1 1.3 0 .6.6.9 1.2.9z"/><path class="st3" d="M77.4 73.9c0 1.8-.1 3.5-.2 5.3-.1 0-.1 0-.2.1-3.6 2.6-8.1 3.2-12.4 3.8-4.9.7-9.7 1-14.6 1-9.2 0-18.9-.6-27.2-4.7 0 0 .1-.1.1-.2.1-.9.1-1.7.1-2.6.5-.1 1.1-.3 1.7-.7 3.1-2.2 2.8-6.2 2-9.6 1.2.7 2.7.8 4 .2 1.9-.8 2.3-2.3 2.8-4 .3.5.9.9 1.6.9 1 .1 1.9-.3 2.6-1 .6 4.6 7 6.7 10.2 3.4-.2 2.8 1.8 5.4 4.8 5.9 4.5.8 7.5-3.3 7.4-7.4.7.2 1.5.1 2.2-.3.9-.5 1.2-1.5 1.5-2.4 1.4 1.9 4.2 1.8 5.6.1.2 4.1 1.2 9.9 4.8 11.9 1.2.7 2.3.7 3.2.3zm-4.6 1.9c.2.2.6-.1.4-.3-.8-1-2.6-1.2-3.5-.2-.2.2 0 .5.3.4.9-.7 2-.7 2.8.1zM68 71.6c.1.3.5.2.5-.1-.1-.9-1.2-1.7-2.1-1.3-.2.1-.2.5.1.4.7-.1 1.4.3 1.5 1zm-1.7.4c.3-.1.2-.5-.1-.5-.4 0-.8 0-1-.4-.2-.4-.1-.8.2-1.1.2-.2-.1-.5-.3-.3-.4.4-.6 1.1-.3 1.6.3.6.9.9 1.5.7zm-26.1-1.8c0-.3-.5-.4-.6-.2-.2.4-.3.7-.7.9-.3.2-.7.3-1.1.1-.3-.1-.4.4-.1.5 1 .4 2.4-.2 2.5-1.3zm-7 0c.3.1.4-.3.2-.5-.8-.5-2 .2-2 1.2 0 .2.4.3.4.1.2-.7.8-1 1.4-.8zm-1.1 3c.3-.1.1-.6-.2-.5-.4.1-.9.4-1.4.3-.4-.1-.7-.5-.5-.9.1-.2-.2-.4-.4-.2-.3.5-.1 1.1.4 1.4.6.5 1.5.3 2.1-.1zm-1 5.7c.2-.6-.2-1.2-.7-1.5-.7-.4-1.5-.1-2.2.2-.2.1 0 .3.1.3.5-.1 1-.3 1.5-.2.5.1.9.5.8 1.1-.1.2.4.4.5.1zm-2.3.3c.2-.3-.1-.6-.4-.4-.7.6-1.7 0-1.4-.9.1-.2-.2-.3-.3-.1-.3.5-.1 1.2.4 1.6.5.4 1.3.3 1.7-.2z"/><path class="st0" d="M73.2 75.5c.2.3-.2.5-.4.3-.8-.8-1.9-.8-2.8-.2-.2.1-.4-.2-.3-.4.9-.9 2.7-.7 3.5.3zM73.2 48.9c0 .6-.5 1.1-1.1 1.2-.6 0-1.2-.4-1.2-1s.3-1.2.9-1.3h.2c.7-.1 1.2.5 1.2 1.1zm-1.1.7c.3 0 .7-.3.6-.6 0-.4-.4-.7-.7-.8-.3.2-.5.4-.5.8-.1.4.2.6.6.6z"/><path class="st4" d="M72.7 48.9c0 .4-.3.6-.6.6-.4 0-.6-.2-.7-.6 0-.4.2-.6.5-.8.5.1.8.4.8.8z"/><path class="st0" d="M72 53.4c.3-.2.6.2.3.4-1.9 1.6-4.3 2-6.7 2.4-2.9.5-5.8.7-8.7.6-.1 0-.1-.2 0-.2 4.9-.4 10.8-.4 15.1-3.2zM71.8 51.4c.2.7-.4 1.4-1 1.5-.7.1-1.4-.5-1.3-1.2 0-.6.6-1 1.2-.9.4-.3 1 .1 1.1.6zm-.5.4c.1-.4-.2-.7-.6-.5-.1.1-.3 0-.3-.1-.2.1-.4.2-.4.4-.1.3.3.7.6.7.3.1.6-.2.7-.5z"/><path class="st4" d="M70.7 51.3c.4-.3.7.1.6.5-.1.3-.4.6-.7.6-.3 0-.6-.4-.6-.7 0-.2.2-.4.4-.4 0 0 .2.1.3 0z"/><path class="st2" d="M70.9 28c.1 2.3.1 4.7-.1 7-.1.7-.1 1.5-.3 2.2-.1.6-.3 1.1-.7 1.4-.3.5-.7.9-1.2 1.1-.4.2-.9.1-1.3 0-.4 0-.8-.1-1.2-.5-1.6-.9-2.4-2.1-3.1-3.8-.1-.2-.4-.3-.5-.1-.1 0-.2 0-.2.1-1.2 1.1-2.8 1.9-4.4 1.1-1.6-.8-2.2-2.5-2-4.1 0-.3-.3-.4-.5-.2-.2-.2-.5-.2-.6.1-.2.7-.5 1.4-1.3 1.7-.8.2-1.3-.2-1.9-.6h-.2c-.2 0-.3.1-.4.2-.4 1.8-1.2 3.5-3.4 3.5-2.4-.1-3.3-2.2-3-4.3 0-.2-.3-.4-.4-.2-.1 0-.3 0-.4.1-.5.6-1 1.3-1.8 1.5-.9.2-1.7-.3-2-1.1V33c0-.2-.4-.2-.5-.1-.1 0-.2.1-.2.2-.2.7-.5 1.4-1.3 1.6-.7.2-1.4-.2-1.7-.8-.1-.2-.3-.1-.4 0-.1 0-.2.1-.3.3-.2 1.5-.3 3.1-1.3 4.4-.8 1.1-2.1 1.6-3.4 1.4 0 0 0-.1-.1-.1-2.4-1.8-1.2-6-1-8.6.2-2.2 0-5.6 1.1-7.6 2-3.5 8.5-3.4 12-3.9 1 1.3 2.2 2.5 3.3 3.3-1.6-.3-3.5-.3-4.5.9-.2.3.1.6.4.4 2.7-2.3 8.5 1 11.6 1.1 2.3.1 4.5-.7 5.7-2.7.2-.4-.3-.7-.6-.3-2 2.7-4.9 2.5-7.8 1.8 1.5-.9 4.1-2.5 6.1-4.4.1.1.1.1.2.1 2.7.3 5.4.8 8 1.5 3.6.9 5.3 2.7 5.6 6.5zm-5.3-3.8c.5-.3.6-1 .3-1.4-.2-.3-.6-.4-.9-.3-.5.1-.9.7-.7 1.2.1.6.8.8 1.3.5zm-2.5-.9c.3-.5.3-1.2-.1-1.6 0 0-.1-.1-.2-.1-.4-.4-1.1-.2-1.5.2-.4.5-.3 1.2.2 1.6.5.5 1.2.4 1.6-.1zm-.2 4.6c.4-.1.2-.7-.2-.6-10.2 2.3-20.4 1.2-29.8-3.4-.2-.1-.3.2-.1.3 9.1 4.9 20 6.3 30.1 3.7zm-10.7 4.8c.6 0 1.1-.4 1-1 0-.4-.3-.7-.7-.9 0 0 0-.1-.1-.1-.6-.1-1.1.3-1.2.9 0 .6.5 1 1 1.1zm-18.3 2.4c.6-.3.8-1.1.4-1.6-.2-.3-.6-.4-.9-.3 0-.1-.1-.1-.2-.1-.6.1-1 .8-.8 1.4.1.6.9.9 1.5.6zm-1.4-5.8c.6-.1 1-.7.7-1.3-.2-.3-.5-.6-.9-.6h-.1c-.6 0-1 .6-1 1.2.1.6.7.9 1.3.7zm-.6 8.8c.6-.4.8-1.3.3-1.9-.5-.5-1.3-.6-1.8-.1-.5.2-.8.9-.5 1.4.4.8 1.4 1 2 .6z"/><path class="st3" d="M68.7 46.1c.1 2.6-1.3 3.3-3.7 4-3.5 1-7.3 1.2-10.9 1.4-3.5.2-7.1.2-10.7 0-2.1-.1-4.2-.4-6.3-.7-1.8-.3-4.5-.6-5.8-2.1v-.1c0-2.6.1-5.1 0-7.7.1 0 .3 0 .4-.1.8 0 1.6-.4 2.2-.8 1.5-1.1 2-3.1 2.2-4.9.4.4 1.1.6 1.7.5.8-.1 1.4-.7 1.7-1.4.4.6 1.1 1 1.8 1 .9 0 1.7-.4 2.2-1.1-.2 1.9 1.3 3.7 3.2 4 2.2.4 4.6-1.3 4.7-3.6 1 .8 2.7.4 3.4-.7.2 3.6 5.1 5.7 7.5 2.7.8 2.4 3.2 5.1 5.9 4.4v.1c.4 1.5.4 3.3.5 5.1zm-2.6-2.9c.1-1.1-1.5-1.8-2.3-1.1-.1.1 0 .4.2.3.4-.2.7-.2 1.1 0 .3.2.5.5.6.9 0 .2.4.1.4-.1zm-.5 2c.4-.1.3-.6-.1-.6-.6.1-1-.5-1-1 0-.2-.3-.3-.4-.1-.3 1 .7 1.9 1.5 1.7zm-25.8-1.4c.2-.2 0-.5-.2-.4-.7.4-1.4-.1-1.3-.9 0-.2-.3-.3-.3-.1-.4 1.1.9 2.1 1.8 1.4zm-.4 3.7c.1.3.5.2.5-.1-.1-1.2-1.9-1.8-2.5-.7-.1.2.2.4.3.3.6-.5 1.4-.3 1.7.5zm-1.5.8c.2-.2-.1-.6-.3-.4-.7.5-1.6.1-1.6-.9 0-.3-.5-.4-.5-.1-.2 1.3 1.3 2.3 2.4 1.4z"/><path class="st0" d="M68.5 71.5c0 .3-.4.3-.5.1-.2-.7-.8-1.1-1.5-1-.3.1-.4-.3-.1-.4.9-.4 2 .4 2.1 1.3zM66.2 71.5c.3 0 .3.4.1.5-.6.2-1.2-.1-1.5-.7-.3-.5-.1-1.2.3-1.6.2-.2.5.1.3.3-.3.3-.4.7-.2 1.1.3.4.7.5 1 .4zM63.9 42.1c.8-.7 2.4 0 2.3 1.1 0 .2-.4.3-.4.1-.1-.4-.2-.7-.6-.9-.3-.2-.7-.2-1.1 0-.2.1-.4-.2-.2-.3zM65.9 22.8c.3.5.2 1.2-.3 1.4-.5.2-1.2 0-1.4-.5-.2-.5.2-1.1.7-1.2.4-.1.8 0 1 .3zm-.6 1.1c.3-.1.4-.4.4-.6-.1-.2-.4-.6-.6-.2-.1.1-.2.1-.3 0-.1.1-.1.3-.1.5s.3.3.6.3z"/><path class="st4" d="M65.7 23.3c.1.3-.1.6-.4.6-.3.1-.6-.1-.6-.4 0-.2 0-.3.1-.5.1.1.2.1.3 0 .1-.3.5 0 .6.3z"/><path class="st0" d="M65.5 44.7c.4-.1.5.5.1.6-.8.1-1.8-.8-1.5-1.6.1-.2.4-.2.4.1 0 .4.4 1 1 .9zM63 21.8c.4.4.5 1.1.1 1.6s-1.1.5-1.6.2c-.5-.4-.6-1.1-.2-1.6.3-.4 1-.6 1.5-.2.1-.1.1-.1.2 0zm-1.2 1.3c.7.6 1.4-.5.8-1V22c-.3-.1-.6-.1-.8.2-.3.3-.3.7 0 .9zM62.7 27.3c.4-.1.6.5.2.6-10.1 2.6-21 1.2-30.2-3.7-.2-.1 0-.3.1-.3 9.5 4.6 19.8 5.8 29.9 3.4z"/><path class="st4" d="M62.7 22.1c.6.5-.1 1.6-.8 1-.3-.2-.4-.7-.1-.9.2-.3.5-.3.9-.1-.1-.1-.1 0 0 0z"/><path class="st3" d="M50.3 13.8c2.1-5.5 12.1-1.5 7.3 3.9-2 2.3-4.7 4.1-7.2 5.7l-.2.2c-.2.1-.4.1-.5.2-.7-.2-1.5-.4-2.2-.5-.1 0-.2 0-.3-.1-2.4-1.9-4.8-4.6-5.6-7.7-1.9-6.9 9.4-6.8 7.8-1-.1.4.6.6.7.2.2-.3.2-.6.2-.9z"/><path class="st0" d="M55.9 64.9c.5.5.2 1.3-.4 1.6-.6.3-1.4.2-1.7-.5-.2-.5.1-1 .6-1.1.4-.4 1.1-.4 1.5 0zm-.5 1.2c.2-.2.4-.6.2-.9-.1-.2-.4-.2-.6-.1 0 .1-.1.1-.2.1h-.2c-.3.1-.4.5-.1.8.2.3.6.3.9.1z"/><path class="st4" d="M55.5 65.2c.2.3.1.7-.2.9-.3.2-.7.2-.9 0-.2-.2-.2-.6.1-.8h.2c.1 0 .1-.1.2-.1.2-.2.5-.1.6 0z"/><path class="st0" d="M53.2 31.7c.1.6-.4 1-1 1s-1-.5-.9-1c.1-.6.6-1 1.2-.9.1 0 .1.1.1.1.3 0 .6.4.6.8zm-1 .5c.3 0 .6-.1.6-.4 0-.3-.3-.6-.6-.5H52c-.3.2-.4.8.2.9z"/><path class="st4" d="M52.8 31.7c0 .3-.3.5-.6.4-.6-.1-.6-.7-.2-1h.2c.3.1.6.4.6.6z"/><path class="st0" d="M51.3 65.9c.6.1 1 .7 1 1.3 0 .7-.6 1.2-1.3 1.1-.7 0-1.3-.5-1.3-1.3 0-.6.7-1.5 1.4-1.2.1 0 .2 0 .2.1zm-.2 1.9c1 0 .8-1.2.2-1.6-.4.1-.8.3-.9.8-.1.5.3.7.7.8z"/><path class="st4" d="M51.2 66.2c.7.4.8 1.6-.2 1.6-.4 0-.8-.3-.8-.7.1-.5.5-.8 1-.9z"/><path class="st0" d="M48 57c.3 0 .3.5 0 .5-7.9 0-15.9-1.5-23.2-4.5-.2-.1-.1-.3.1-.3C32.4 55.4 40 56.9 48 57zM39.6 70c.1-.3.6-.2.6.2-.1 1.1-1.5 1.7-2.5 1.4-.3-.1-.2-.6.1-.5.4.1.8.1 1.1-.1.4-.3.6-.6.7-1zM39.6 43.4c.2-.1.4.2.2.4-.9.7-2.2-.3-1.8-1.4.1-.2.4-.1.3.1-.1.8.6 1.3 1.3.9zM39.8 47.5c0 .3-.4.3-.5.1-.3-.9-1-1-1.7-.5-.2.1-.5 0-.3-.3.7-1.1 2.5-.6 2.5.7zM37.6 47.8c.3-.2.5.2.3.4-1.1 1-2.6 0-2.4-1.4 0-.3.5-.2.5.1-.1 1 .8 1.4 1.6.9zM34.2 33.6c.4.5.2 1.3-.4 1.6-.6.3-1.3 0-1.5-.6-.2-.6.2-1.3.8-1.4.1 0 .2 0 .2.1.3-.1.7 0 .9.3zm-.6 1.1c.3-.1.5-.6.3-.9-.2-.3-.6-.3-.9 0-.1.1-.2.1-.2 0-.2.5.2 1.1.8.9z"/><path class="st4" d="M33.9 33.9c.2.3 0 .8-.3.9-.6.2-.9-.4-.8-.9h.2c.3-.3.7-.3.9 0z"/><path class="st0" d="M33.4 69.7c.2.2.1.6-.2.5-.6-.2-1.3.1-1.4.7 0 .2-.4.2-.4-.1 0-.9 1.2-1.6 2-1.1zM33.2 28c.3.6-.1 1.2-.7 1.3-.6.2-1.2-.2-1.3-.8-.1-.6.4-1.2 1-1.2h.1c.3.1.7.4.9.7zm-.9.9c.3-.1.6-.4.4-.7-.2-.4-.5-.4-.9-.3-.3.4-.2 1.1.5 1z"/><path class="st4" d="M32.7 28.2c.2.3-.1.6-.4.7-.7.1-.8-.6-.4-1 .3-.1.7-.1.8.3z"/><path class="st0" d="M32.2 36.2c.5.6.3 1.5-.3 1.9-.7.5-1.7.2-2-.5-.3-.5 0-1.3.5-1.4.5-.6 1.4-.6 1.8 0zm-.4 1.3c.2-.3.2-.9-.1-1.1-.2-.1-.4-.2-.7-.1 0 .1-.1.2-.2.2h-.1l-.1.1c-.1.1-.1.1-.2.1-.1.1-.2.3-.1.5s.2.4.4.5c.4.1.8.1 1.1-.2zM31.9 72.8c.3-.1.5.3.2.5-.6.4-1.5.6-2.1.2-.4-.3-.7-.9-.4-1.4.1-.2.5 0 .4.2-.2.4.2.8.5.9.5 0 1-.3 1.4-.4z"/><path class="st4" d="M31.7 36.4c.4.2.4.8.1 1.1-.3.3-.7.4-1.1.2-.2-.1-.3-.3-.4-.5 0-.2 0-.4.1-.5.1 0 .1 0 .2-.1l.1-.1h.1c.1 0 .2-.1.2-.2.2-.1.5-.1.7.1z"/><path class="st0" d="M30.4 77.4c.5.3.9.9.7 1.5-.1.3-.6.2-.5-.1.2-.5-.3-1-.8-1.1-.5-.1-1 .1-1.5.2-.2 0-.3-.2-.1-.3.7-.3 1.5-.6 2.2-.2zM29 47.5c.3.5 0 1.1-.5 1.3-.5.2-1.1 0-1.3-.5-.2-.5 0-1.1.5-1.3h.2c.4-.2.9 0 1.1.5zm-.7.8c.7-.3.2-1.2-.4-1.1 0 0 0 .1-.1.1-.5.4-.2 1.3.5 1zM28.5 78.9c.2-.2.6.1.4.4-.4.5-1.2.6-1.7.2-.5-.4-.6-1-.4-1.6.1-.2.4 0 .3.1-.3.9.7 1.5 1.4.9z"/><path class="st4" d="M27.9 47.2c.6-.1 1.1.8.4 1.1-.7.3-1-.6-.4-1.1-.1.1 0 .1 0 0z"/><path class="st0" d="M26.1 49.2c.1.7-.4 1.2-1.1 1.3-.6.1-1.2-.3-1.3-1-.1-.6.3-1.3 1-1.4h.1c.6-.1 1.2.5 1.3 1.1zm-.4.1c0-.5-.4-.8-.9-.9-.7.3-.8 1.5.2 1.5.3.1.7-.2.7-.6z"/><path class="st4" d="M24.8 48.5c.4.1.9.4.9.9 0 .4-.4.6-.7.7-1 0-.9-1.3-.2-1.6z"/><path class="st0" d="M25.4 68.6c.1.6-.3 1-.9 1.1-.6.1-1.2-.3-1.2-1 0-.6.5-1.1 1.1-.9.5.1.9.4 1 .8zm-.9.7c.3-.1.5-.3.4-.6-.1-.3-.4-.4-.7-.3-.1 0-.2 0-.2-.1-.2.1-.3.3-.2.6.1.3.4.4.7.4zM25 71.7c.2.6-.3 1.2-1 1.3-.6.1-1.2-.3-1.3-.9-.1-.6.4-1.3 1-1.3h.1c.5 0 1.1.4 1.2.9zm-1.1.8c.4 0 .7-.3.6-.7-.1-.4-.5-.6-.9-.5h-.1c-.2.2-.3.4-.3.7 0 .3.3.5.7.5z"/><path class="st4" d="M24.9 68.7c.1.3-.1.5-.4.6-.3.1-.6-.1-.7-.4-.1-.3 0-.5.2-.6 0 .1.1.1.2.1.3-.1.6 0 .7.3zM24.5 71.8c.1.4-.3.7-.6.7-.4 0-.7-.2-.7-.6 0-.3.1-.5.3-.7h.1c.4 0 .8.2.9.6z"/><path class="st5" d="M68.6 40.2c-2.4-.4-4-1.8-5.4-3.5 0-.6-1-1-1.5-.4-.9 1.2-2.6 1.1-3.7.4-1.1-.7-1.7-1.9-2.2-3 .2-.5-.4-1.2-.9-.8l-.1.1c-.6.8-1.2 1.3-2.1 1.4-.2-.4-.8-.6-1.1 0-.8 1.5-1.8 2.8-3.7 2.8-1.8 0-3.1-1.5-3.7-3.1.2-.5-.4-1-.8-.6-1 .9-2.3 1.1-3.4.3 0-.5-.7-.5-.9-.1-.3.6-.7 1.2-1.4 1.3-.2-.7-1.1-.7-1.3-.1-.5 1.2-.7 2.2-1.6 3.2-.9.9-1.9 1.5-3.1 1.9-.5.2-.4 1 .1.9 1.5-.1 2.9-.7 4-1.8.8-.8 1.6-2.1 1.8-3.3.9-.1 1.8-.6 2.1-1.4 1 .8 2.4.9 3.5.3.5 1.9 2.2 3.4 4.2 3.6 2 .2 4.5-1.1 5.1-3.1.8 0 1.7-.3 2.3-.8.5 1.6 1.4 3.2 3.1 3.8 1.5.6 3.2.4 4.4-.7 1.1 2.1 3.5 3.5 5.8 3.9 1.1.4 1.5-1 .5-1.2zM57.9 22c-4 5.3-11.8-3.4-16.4 1.7-.4.5.2 1.1.7.7 5.1-4 12.5 4.4 17.1-1.6.6-.8-.8-1.6-1.4-.8zM79.5 79.1c.3-1.7.2-3.5-.3-5.2-.3-.8-1.2-.8-1.6-.4-.1 0-.2-.1-.3 0-2.2.1-4.6-3.2-5.5-4.9-1.2-2.1-1.6-4.3-1.7-6.6 0-.2-.1-.3-.2-.4-.1-.4-.7-.7-1.1-.5-.7.4-1.2.9-2.1 1-.9.1-1.7 0-2.5-.4-.1-.1-.2-.1-.3-.1-.3-.2-.7-.1-.9.3-.3.6-.3 1.3-.8 1.8-.3.3-.7.5-1.2.6-.2-.8-1.5-1-1.7-.1-.7 2.6-1.2 6.6-4.7 6.6-2.7 0-5.2-1.9-6.5-4.2.2-.7-.7-1.5-1.4-.9-2.5 2.5-7.7-.5-8.5-3.5-.1-.3-.4-.4-.6-.3-.2-.1-.6-.1-.7.1-.8.9-1.7 1.3-2.8.8-.1-.7-1.3-.7-1.5 0-.4 1-.7 2.1-1.6 2.9-1 .9-2.4.8-3.6.2-.1 0-.2-.1-.3 0-.5-.2-1.1 0-1.1.6.2 1.4.5 2.8.4 4.3-.1 1.7-.8 5-3.1 4.9-.6 0-.7.9-.1 1 4.7 1 5.3-5.9 4.6-9.4 1.1.5 2.4.6 3.6 0 1.2-.6 2-1.9 2.4-3.2 1.1.6 2.6.4 3.5-.4.6 1.8 2.6 3.1 4.1 3.9 1.9 1 4.1 1.2 5.8-.1.8 2.9 4.4 4.9 7.2 5 4.2.1 5.4-3.6 6.3-7 .8.1 1.5-.1 2.2-.6.6-.4 1.1-1.1 1.3-1.8 1.4.7 3.3.8 4.6 0-.2 2.6.7 5.2 2.2 7.4 1.4 2 3.5 4.8 6.2 4.7h.2l.6 3.6c-8.4 4.2-17.9 4.8-27.1 4.9-9.2.1-19.9.1-28.2-4.4-.5-.3-1 .4-.6.8 3.4 3.1 8.6 4 13 4.7 5.1.7 10.3.9 15.4.9 9.8 0 19.8-.6 28.7-5.1.6-.4.6-1.1.3-1.5z"/></svg>