<svg version="1.1" id="Layer_1" xmlns="http://www.w3.org/2000/svg" x="0" y="0" viewBox="0 0 100 100" style="enable-background:new 0 0 100 100" xml:space="preserve"><style>.st0{fill:#7d3838}.st1{fill:#ffceab}.st2{fill:#371c2a}</style><path class="st0" d="M34.6 39.3c-1.8-1-4-2-6-1.8h-.1c-2.5.7-4.9 1.5-7.4 2.2.7.3 1.5.6 2.2.9 1.3.5 2.5 1.1 3.7 1.7 2.6-.8 5-2 7.6-3zM61.4 37.9c2.2-.6 4.2-1.4 6.2-2.4-.7-.2-1.4-.3-2-.6-1.1-.5-2.2-1.1-3.4-1.6-2.2.7-4.4 1.5-6.6 2.4.8.2 1.6.6 2.5.9 1.2.4 2.3.6 3.3 1.3zM47.8 35.2c-1.7-1-3.9-1.8-5.8-1.5 0 .1-.1.1-.2.1-2.5.8-5.1 1.5-7.7 2.2 2 .5 3.9 1.1 5.6 2.3 2.7-1 5.4-2.1 8.1-3.1zM77.9 39.1c-.7-.4-1.6-.6-2.3-.9-1.2-.6-2.2-1.3-3.6-1.2l-6.3 2.4c2.1.6 4.4 1.1 6.1 2.4 2-1 4-1.9 6.1-2.7zM56.7 39.1c-2-1-4.1-1.7-6.2-2.5-2.6 1-5.1 1.9-7.7 2.9 2.5.3 4.9 1.2 7.1 2.5 2.3-1 4.5-1.9 6.8-2.9zM37.6 40.7c-2.6 1.1-5.1 2.2-7.7 3.3 1.6.3 3.1.7 4.7 1.2 1.1.4 2.3.7 3.2 1.5 2.2-1.2 4.4-2.2 6.8-3-.8-.4-1.5-.9-2.3-1.3-1.5-.8-3.1-1.3-4.7-1.7zM64.3 41.7c-1.3-.4-2.8-1-4.1-.9-.1 0-.2 0-.2-.1-2.2.9-4.4 1.8-6.5 2.8 2.4.6 4.6 1.8 6.8 2.8 2.6-.8 5.1-1.7 7.6-2.9-.5-.4-1.3-.6-1.8-.9-.6-.2-1.2-.6-1.8-.8zM41.3 48.6c1.1.3 2.3.8 3.3 1.1 1.1.4 2.3.6 3.1 1.5 2.7-1.2 5.3-2.4 8-3.7-2.1-1.1-4.6-2.4-7-2.4-2.4 1.1-4.9 2.3-7.4 3.5zM51.6 33.3c.3.1.6.4.9.5.1 0 .1.1.2.1 2-.7 4-1.4 5.9-2.1-1.6-.6-3.2-1.1-4.8-1.6-2.2.5-4.4 1-6.5 1.6.9.3 1.8.6 2.7.8.5.4 1.1.5 1.6.7z"/><path class="st1" d="M52.8 60.4c2.3.4 4.5.8 6.8 1.2l.1-.1c4.5-2.7 8.7-6.3 12.8-9.7-6.6 2.8-13.2 5.6-19.7 8.6z"/><path class="st0" d="M59.6 62.5c-2.7-.5-5.4-.9-8.1-1.4h-.1c-1.2.6-2.5 1.2-3.7 1.8l-.2.2c-.1.2-.4.4-.6.2-1.6-.8-3.1-1.7-4.7-2.5h-.1c-9-2.6-18-5.9-27.1-7.8.2 2.7.4 5.5.7 8.2 14.6 3.5 29.3 7 43.9 10.6v-.1c.4-1.5.2-3.2.2-4.7-.1-1.6-.2-3.1-.2-4.5zM75.4 50.6s-.1 0 0 0c-4.8 3.9-9.6 8.3-14.9 11.5 0 1.8.1 3.7.1 5.5 0 1 .1 2.1 0 3.1 4.5-4.2 9.1-8.2 13.8-12.1 1.7-1.5 3.7-2.8 5.3-4.5.6-.6.4-.2.5-.6.3-1.2-.2-3.1-.4-4.5-1.6.6-3.1 1-4.4 1.6z"/><path class="st0" d="M60.6 49.6c-2.9 1.2-5.8 2.5-8.8 3.6-1.2.5-3.1 1.7-4.5 1.7 0 1.2 0 2.4.1 3.6 0 .8-.1 2.4.1 3.4 8.2-3.9 16.5-7.5 24.9-11 3.1-1.3 6.3-2.7 9.4-4.1 1-.5 1.3-.4 1.5-1.3.6-1.7.2-4.2.1-6.2-7.4 3.7-15.1 7-22.8 10.3z"/><path class="st1" d="m20.6 50.8-4.5 1.5c7.3 1.6 14.4 4 21.6 6.2-5.7-2.8-11.3-5.4-17.1-7.7zM40.6 51.1l5.4 2.4c.3.2.8.5 1.2.5 0 0 .1-.1.5-.2 5.4-1.7 10.7-4.3 15.9-6.5 6.4-2.8 12.9-5.6 19.1-8.7-4.7-1.7-9.5-3.5-14.2-5.2-3.1-1.1-6.2-2.3-9.3-3.4-1.6-.6-3.5-1.7-5.2-1.9h-.1s-.1 0-.3.1c-.6.1-1.2.3-1.7.5-2.4.7-4.9 1.4-7.3 2.1l-29.4 8.7c3.2 1.5 6.5 2.9 9.7 4.4 5.2 2.4 10.5 4.8 15.7 7.2zm-3.5-3.8c-1.1-.9-2.6-1.2-3.9-1.6-1.4-.4-2.8-.7-4.3-1-.2 0-.3-.2-.3-.4-.3-.2-.3-.6 0-.7 3.1-1.3 6.2-2.7 9.3-4 .3-.1.6.1.7.4 1 .3 2.1.6 3.1 1 1.4.6 2.6 1.6 4.1 2.2.5 0 .6.7.1.9-2.8 1-5.5 2.2-8.1 3.6-.4.2-.7-.1-.7-.4zm4.5-8.3c2.8-1 5.6-2.1 8.4-3.1.1-.2.3-.3.5-.2.1 0 .3 0 .3.1 2.3.8 4.7 1.7 6.9 2.8.1 0 .2-.1.2-.1.5-.2.8.6.2.9-.1 0-.1 0-.2.1s-.2.1-.3.1c-2.6 1.1-5.1 2.2-7.7 3.3h-.1c-.1.1-.2.1-.4 0-2.4-1.5-5-2.4-7.9-2.6-.4 0-.5-.4-.4-.7.2-.2.2-.5.5-.6zm15.2 9.1c-3 1.4-6 2.8-9.1 4.1-.4.2-.7-.2-.7-.5-.8-.7-2.1-1-3.1-1.3-1.1-.4-2.4-1-3.6-1.1-.4 0-.5-.4-.4-.7-.1-.2-.1-.4.2-.5 2.6-1.3 5.3-2.6 8.1-3.7.1-.1.2-.2.3-.2h.2c2.7 0 5.7 1.5 8 2.8.2.1.3.4.2.6.1.2.1.4-.1.5zM69 43.9c-2.7 1.4-5.6 2.5-8.5 3.4h-.1c-.1.1-.2.1-.4 0-2.5-1.1-5.2-2.7-7.9-3-.2 0-.3-.2-.4-.3-.1-.2-.1-.5.2-.6 2.8-1.3 5.6-2.5 8.4-3.6.3-.1.4 0 .5.3.7.1 1.3.3 2.1.5.7.2 1.5.3 2.3.6 1 .4 2.8 1.1 3.6 2 .3-.2.7.4.2.7zm3.1-7.9c1.3 0 2.4.6 3.5 1.2s2.3.8 3.3 1.5c.5-.2.8.7.2.9-2.5.9-4.9 2-7.3 3.1-.3.1-.6 0-.6-.3-2-1.3-4.6-1.8-6.9-2.5-.2-.1-.3-.2-.3-.4s0-.4.3-.5c2.5-1 5-1.9 7.6-2.9 0-.1.1-.1.2-.1zm-9.5-3.5c1 .3 2 .8 2.9 1.3 1.1.6 2.1.8 3.3 1.1.1 0 .2.1.3.2.3.2.4.6 0 .8-2.5 1.2-5 2.2-7.6 3-.2.1-.4 0-.5-.2-.9-.7-2-.8-3.1-1.2-1.2-.4-2.3-1-3.5-1.1-.1 0-.2 0-.2-.1-.4 0-.6-.7-.1-.9 2.7-1.1 5.4-2.1 8.1-3 .1 0 .3 0 .4.1zm-16.9-1c2.5-.7 5-1.3 7.4-1.9.1-.2.3-.3.5-.2 2 .6 4 1.2 6 1.9.3.1.3.4.3.6.1.2 0 .5-.3.6-2.5.9-5 1.7-7.5 2.6-.4.2-.7-.4-.5-.7-.2-.1-.3-.2-.6-.3-.5-.2-1-.3-1.5-.5-1.2-.4-2.4-.8-3.6-1.1-.1 0-.2-.1-.2-.1-.4-.2-.4-.8 0-.9zm-13.3 3.9c2.9-.7 5.7-1.4 8.5-2.3 0-.1.1-.2.3-.2 2.5-.6 5.6.6 7.7 2 .3.1.4.7-.1.9-3 1.2-6.1 2.3-9.1 3.5-.2.1-.3 0-.4-.1h-.1c-2-1.5-4.3-2-6.7-2.6-.2 0-.3-.2-.3-.3-.1-.4-.1-.8.2-.9zm-13 4.8c-.5 0-.6-.8-.1-.9 0 0 .1 0 .1-.1 3.1-.9 6.1-1.9 9.2-2.8.2-.1.3 0 .4.1 2.3 0 4.8 1.2 6.7 2.3.3-.1.5.3.5.5 0 .3-.3.5-.6.4-3 1.1-5.9 2.6-9 3.5-.3.1-.6-.2-.6-.5-1-.5-2-1-3-1.4-1.1-.3-2.4-1-3.6-1.1z"/><path class="st0" d="M46.7 62.1c-.2-.8-.1-1.9-.1-2.7-.1-1.6-.1-3.1-.1-4.7-.4-.2-.8-.4-1.1-.5-1.9-.9-3.9-1.8-5.8-2.6-8.4-3.8-16.9-7.7-25.3-11.5.3 1.9.4 3.7.7 5.6.3 2.3 1 2.3 3.1 3.1 3 1.1 5.9 2.4 8.8 3.6 6.7 3 13.3 6.2 19.8 9.7z"/><path class="st2" d="M85.5 38.6c0-.1-.1-.2-.1-.3 0 0-.1 0-.1-.1h-.1c-4.3-1.6-8.7-3.2-13-4.8-5.3-1.9-10.8-4.6-16.3-6-2.3-.6-5.3 1.1-7.6 1.7l-19.5 5.7c-4.6 1.4-9.3 2.7-13.9 4.1-.2.1-.4.4-.3.6-.1.1-.2.2-.2.4.5 2.6.7 5.2.7 7.9 0 .2.1.4.3.4 1.7.6 3.3 1.2 5 1.9-1.6.5-3.2 1-4.8 1.6-.2 0-.4.1-.4.2-.1.1-.1.3-.1.4 0 0 0 .1.1.1.2 2.9.4 5.8.7 8.7-.1.2 0 .5.3.5 14.9 3.6 29.9 7.2 44.8 10.8.4.1.6-.3.5-.6 5.2-4.9 10.6-9.5 16.1-14.1 1.1-1 3.6-2.3 4.4-3.7.7-1.3 0-4-.3-5.6 1.1-.5 2.1-1 3-1.6 1.8-1.2.9-6 .8-8.2zm-39.7-7.7c2.4-.7 4.9-1.4 7.3-2.1.6-.2 1.2-.4 1.7-.5.2 0 .3-.1.3-.1h.1c1.7.2 3.6 1.3 5.2 1.9 3.1 1.1 6.2 2.3 9.3 3.4 4.7 1.7 9.5 3.5 14.2 5.2-6.3 3.1-12.7 5.9-19.1 8.7-5.2 2.2-10.5 4.8-15.9 6.5-.4.1-.6.2-.5.2-.4-.1-.8-.4-1.2-.5l-5.4-2.4C36.5 48.8 31.3 46.4 26 44c-3.2-1.5-6.5-2.9-9.7-4.4 9.9-3 19.7-5.8 29.5-8.7zm15.1 30.6c-.1 0-.1.1 0 0-2.3-.3-4.6-.7-6.9-1.1 6.5-3 13.1-5.8 19.7-8.6-4.1 3.4-8.3 7-12.8 9.7zm-8.3-.4c2.8.5 5.5 1 8.2 1.4 0 1.4.1 2.9.1 4.3 0 1.5.2 3.2-.2 4.7v.1c-14.6-3.5-29.3-7-43.9-10.6-.3-2.7-.5-5.4-.7-8.2 9.1 1.9 18.2 5.2 27.1 7.8h.1c1.6.8 3.1 1.6 4.7 2.5.3.1.5 0 .6-.2.1 0 .2-.1.2-.2 1.3-.5 2.6-1 3.8-1.6zM16.1 45.6c-.2-1.9-.3-3.7-.7-5.6 8.4 3.8 16.9 7.7 25.3 11.5 1.9.9 3.9 1.8 5.8 2.6.4.2.7.4 1.1.5 0 1.6 0 3.1.1 4.7 0 .7-.1 1.8.1 2.7-6.5-3.5-13.1-6.7-19.9-9.7-2.9-1.3-5.9-2.5-8.8-3.6-2-.7-2.7-.7-3-3.1zm22.7 12.9c-7.1-2.2-14.3-4.6-21.6-6.2l4.5-1.5c5.8 2.3 11.5 4.9 17.1 7.7zm42.5-5.1c-.1.4.2 0-.5.6-1.6 1.6-3.5 3-5.3 4.5-4.6 4-9.3 7.9-13.8 12.1.1-1 0-2.1 0-3.1 0-1.8-.1-3.7-.1-5.5 5.3-3.2 10-7.6 14.8-11.4v-.1c1.3-.5 2.8-1 4.2-1.6.5 1.4 1 3.3.7 4.5zm3.2-7.9c-.3.8-.5.8-1.5 1.3-3.1 1.4-6.3 2.7-9.4 4.1-8.3 3.6-16.7 7.1-24.9 11-.3-1-.1-2.6-.1-3.4-.1-1.2-.1-2.4-.1-3.6 1.4 0 3.3-1.2 4.5-1.7 2.9-1.2 5.9-2.4 8.8-3.6 7.7-3.2 15.4-6.5 22.8-10.2.2 1.9.5 4.4-.1 6.1z"/><path class="st2" d="M46.9 32.3c.1.1.1.1.2.1 1.2.4 2.4.8 3.6 1.1.5.2 1.1.3 1.5.5.3.1.4.2.6.3-.2.3 0 .8.5.7 2.5-.9 5-1.7 7.5-2.6.3-.1.4-.4.3-.6.1-.2 0-.5-.3-.6-2-.7-4-1.4-6-1.9-.2-.1-.4.1-.5.2-2.5.6-5 1.2-7.4 1.9-.5.2-.4.8 0 .9zm4.3.5c-.9-.3-1.8-.6-2.7-.8 2.2-.6 4.3-1.1 6.5-1.6 1.6.5 3.2 1 4.8 1.6-2 .7-4 1.4-5.9 2.1 0 0-.1-.1-.2-.1-.3-.1-.6-.3-.9-.5-.5-.4-1.1-.5-1.6-.7zM55.3 36.3c.1.1.1.1.2.1 1.3.1 2.3.7 3.5 1.1 1.1.4 2.1.5 3.1 1.2.1.2.3.3.5.2 2.6-.8 5.2-1.8 7.6-3 .4-.2.2-.6 0-.8 0-.1-.1-.2-.3-.2-1.2-.3-2.2-.5-3.3-1.1-.9-.5-1.9-.9-2.9-1.3-.1-.1-.2-.1-.4-.1-2.7.9-5.5 1.9-8.1 3-.4.2-.3.9.1.9zm11.5-1.4c.6.3 1.3.5 2 .6-2 .9-4.1 1.7-6.2 2.4-1-.7-2.1-.9-3.3-1.3-.8-.3-1.6-.7-2.5-.9l6.6-2.4c1.3.5 2.3 1 3.4 1.6zM65.2 39.5c0 .2.1.4.3.4 2.3.7 4.9 1.2 6.9 2.5.1.2.4.4.6.3 2.4-1.1 4.9-2.2 7.3-3.1.5-.2.3-1.1-.2-.9-.9-.7-2.2-1-3.3-1.5-1.1-.6-2.2-1.1-3.5-1.2H73c-2.5 1-5 1.9-7.6 2.9-.2.1-.3.4-.2.6zm13.9-.4c-2.1.8-4.1 1.7-6.1 2.6-1.8-1.2-4-1.8-6.1-2.4l6.3-2.4c1.4 0 2.4.7 3.6 1.2.7.4 1.6.6 2.3 1zM69.9 43.1c-.8-.9-2.5-1.6-3.6-2-.7-.3-1.5-.4-2.3-.6-.7-.2-1.4-.5-2.1-.5-.1-.2-.2-.4-.5-.3-2.8 1.1-5.6 2.3-8.4 3.6-.3.1-.3.4-.2.6.1.2.2.3.4.3 2.7.3 5.4 2 7.9 3 .1.1.3 0 .4 0h.1c3-.9 5.8-2 8.5-3.4.6-.2.2-.8-.2-.7zm-4.5-1.4c.6.2 1.2.5 1.8.8.4.2 1.3.5 1.8.9-2.4 1.2-5 2.1-7.6 2.9-2.2-1-4.5-2.2-6.8-2.8 2.1-1 4.3-1.9 6.5-2.8.1 0 .1.1.2.1 1.4-.1 2.9.6 4.1.9zM46.9 43.2c-1.4-.6-2.6-1.5-4.1-2.2-1-.4-2-.8-3.1-1 0-.3-.3-.5-.7-.4-3.1 1.3-6.2 2.7-9.3 4-.4.2-.3.5 0 .7 0 .2.1.3.3.4 1.4.3 2.9.6 4.3 1 1.3.4 2.9.7 3.9 1.6 0 .3.3.6.7.4 2.6-1.4 5.3-2.6 8.1-3.6.5-.2.4-.9-.1-.9zm-15.8.8c2.6-1.1 5.1-2.2 7.7-3.3 1.6.4 3.1.9 4.6 1.6.8.4 1.5.9 2.3 1.3-2.3.9-4.6 1.9-6.8 3-.9-.8-2-1.2-3.2-1.5-1.5-.4-3-.8-4.6-1.1zM33.8 36.5c2.4.7 4.7 1.1 6.7 2.6h.1c.1.1.2.1.4.1 3-1.2 6.1-2.3 9.1-3.5.4-.2.4-.7.1-.9-2.1-1.4-5.2-2.6-7.7-2-.1 0-.2.1-.3.2-2.8.9-5.6 1.7-8.5 2.3-.4.1-.4.5-.2.7 0 .3.1.4.3.5zM49 35.2c-2.7 1-5.4 2.1-8.1 3.1-1.7-1.3-3.6-1.8-5.6-2.3 2.6-.6 5.2-1.4 7.7-2.2.1 0 .1-.1.2-.1 1.9-.3 4.1.5 5.8 1.5zM42.9 40.3c2.9.2 5.5 1.1 7.9 2.6.1.1.3.1.4 0h.1c2.6-1.1 5.1-2.2 7.7-3.3.1 0 .2 0 .3-.1.1 0 .1 0 .2-.1.5-.2.3-1.1-.2-.9-.1 0-.2.1-.2.1-2.2-1.2-4.6-2-6.9-2.8-.1-.1-.2-.1-.3-.1-.2-.1-.4 0-.5.2-2.8 1-5.6 2.1-8.4 3.1-.3.1-.3.4-.3.6-.3.3-.1.7.2.7zm8.2 1.7c-2.2-1.4-4.6-2.2-7.1-2.5 2.6-1 5.1-1.9 7.7-2.9 2.1.7 4.2 1.5 6.2 2.5-2.3 1-4.5 1.9-6.8 2.9zM58 47.1c-2.3-1.3-5.3-2.8-8-2.8h-.2c-.2 0-.3.1-.3.2-2.7 1.1-5.4 2.4-8.1 3.7-.2.1-.3.3-.2.5-.1.3 0 .6.4.7 1.1 0 2.5.7 3.6 1.1 1.1.3 2.3.6 3.1 1.3 0 .3.3.7.7.5 3-1.4 6-2.8 9.1-4.1.2-.1.3-.3.2-.4 0-.4 0-.6-.3-.7zm-15.5 1.5c2.5-1.2 4.9-2.3 7.5-3.4 2.3 0 4.9 1.2 7 2.4-2.7 1.2-5.3 2.4-8 3.7-.8-.8-2-1.1-3.1-1.5-1.1-.4-2.3-1-3.4-1.2zM20.6 40.2c1.2.1 2.5.8 3.6 1.2 1 .4 2.1.9 3 1.4 0 .3.2.6.6.5 3.1-.8 6-2.4 9-3.5.3.1.6-.2.6-.4.1-.3-.1-.6-.5-.5-1.9-1.2-4.4-2.4-6.7-2.3-.1-.1-.2-.1-.4-.1-3.1.9-6.1 1.9-9.2 2.8 0 0-.1 0-.1.1-.5 0-.5.8.1.8zm1.7-.5c2.5-.7 4.9-1.5 7.4-2.2h.1c2-.2 4.2.8 6 1.8-2.6 1-5 2.2-7.7 3-1.2-.7-2.4-1.2-3.7-1.7-.6-.3-1.4-.6-2.1-.9z"/></svg>