<svg version="1.1" id="Layer_1" xmlns="http://www.w3.org/2000/svg" x="0" y="0" viewBox="0 0 100 100" style="enable-background:new 0 0 100 100" xml:space="preserve"><style>.st0{fill:#ffa000}</style><path class="st0" d="M11.7 58.1c-.1.2-.2.5-.3.8h.6c3.5-.5 7.5.1 11 .1 11.3 0 22.6.1 34 .2 5.7 0 11.3.1 17 .1 3 0 6.1.3 9 0 1.7-.2 1.8-.2 2.2-1.8.2-1 .2-2 .3-3-13 .2-26 .3-39 .3-5.8 0-11.6 0-17.4-.1-2.9 0-5.8 0-8.7-.1h-4c-.4 0-3.4-.3-3.6-.2-.8.5-.8 2.9-1.1 3.7zM69 39.3c-2.5-2.5-4.9-5.1-7.3-7.7-1.8-1.9-2.5-1.7-4.8-.4l-4.5 2.4c-12.6 6.9-25.2 13.7-38.1 19.9 23.4.3 46.8.3 70.2-.1C79.2 49 74 44.2 69 39.3zM81.5 65.4c-2.5-.4-4.3.1-6.6.6-2 .4-3.5 0-5.4-.7-2.2-.9-4-1.7-6.4-1-1.2.3-2.4 1-3.6 1.3-2 .5-3.5-.1-5.3-.9-2.1-.9-3.6-1.8-6-1-1.2.4-2.2 1.1-3.3 1.6-1.2.5-2.5 1-3.8.8-3.7-.5-4-4.3-8.7-1.3-1.3.9-2.2 1.9-4 1.8-2.1-.1-3.5-2-5.4-2.8-3.8-1.5-8 2.1-11.9.6-.2 1.3-.4 2.6-.8 3.9 0 .1-.1.2-.1.2 1.4.2 3 0 4.4 0 12.7-.1 25.3-.3 38-.3 7 0 14-.1 21-.1h8.3c.8 0 1.7-.2 2.4-.1.3.1.5 0 .6 0 .1-.6 0-1.4 0-2.1-1.3 0-2.3-.4-3.4-.5z"/><path d="M86.7 60.5c-.4-.1-.8-.1-1.1-.2-24.8 0-49.8.3-74.6-.5-.9 2.2-.6 3.4 1 3.6.5.1 1 .2 1.5.2 1 .1 1.9 0 2.9-.2 1.3-.3 2.5-1.1 3.9-1.2 4.3-.4 6.8 5.3 11.2 1.8 1.5-1.2 2.8-2.4 4.8-1.7 2.4.8 3.1 3.1 6.1 2.7 1.6-.2 3-1.4 4.4-2 2.6-1.1 4.3-.8 6.8.3 2.7 1.2 4.5 1.7 7.3.7 1.4-.5 2.8-1.1 4.3-1 1.3.1 2.5.6 3.7 1 2.9 1.1 4.7 1 7.7.3 1.5-.4 2.8-.3 4.3 0 1 .2 2.7.9 3.7.6 3.4-2.7 4-4.1 2.1-4.4z" style="fill:#7d3838"/><path d="M87.2 60.4c.1-1.8.3-3.6.4-5.4v-.2c0-.1-.1-.1-.2-.2-9.3-7.6-18-16-25.9-25-.2-.2-.4-.2-.6-.1-15.8 8.6-31.5 17.3-47.8 25.1-.1.1-.2.2-.2.3-.4 1.7-.9 3.3-1.3 5-1.9.9-3 3-1 4.6.2.1.4.3.6.4-.3 1.7-.7 3.3-1 5-.1.3.1.7.5.6 25.2-.3 50.4.1 75.6-.6.3 0 .5-.2.5-.5 0-.9 0-1.8.1-2.7 1-.2 2.1-.6 2.7-1.4 2.2-2.6.1-4.4-2.4-4.9zm-.9-1.9c-.4 1.7-.5 1.7-2.2 1.8-2.9.3-6.1 0-9 0-5.7 0-11.3-.1-17-.1-11.3-.1-22.6-.1-34-.2-3.5 0-7.5-.5-11.1-.1h-.6c.1-.3.2-.6.3-.8.3-.8.3-3.2 1-3.7.2-.2 3.2.2 3.6.2h4c2.9 0 5.8.1 8.7.1 5.8 0 11.6.1 17.4.1 13 0 26-.1 39-.3.2 1 .1 2-.1 3zm-74 1.3zm45.8-27.6c2.3-1.2 3-1.5 4.8.4 2.4 2.6 4.8 5.2 7.3 7.7 5 5 10.2 9.7 15.6 14.2-23.4.3-46.8.4-70.2.1 12.8-6.3 25.4-13.1 38-20l4.5-2.4zm24.8 36.9h-8.3c-7 0-14 0-21 .1l-38 .3c-1.4 0-3 .3-4.4 0 .1-.1.1-.1.1-.2.3-1.3.5-2.6.8-3.9 3.9 1.4 8.1-2.2 11.9-.6 1.9.8 3.2 2.7 5.4 2.8 1.7.1 2.6-.9 4-1.8 4.7-3 5 .8 8.7 1.3 1.4.2 2.6-.3 3.8-.8 1.1-.5 2.2-1.2 3.3-1.6 2.4-.8 3.9.1 6 1 1.8.8 3.3 1.4 5.3.9 1.3-.3 2.4-1 3.6-1.3 2.5-.7 4.2.1 6.4 1 1.9.7 3.4 1.1 5.4.7 2.3-.5 4.1-.9 6.5-.6 1.1.2 2.2.5 3.3.5 0 .7.1 1.5 0 2.1-.1 0-.3.1-.6 0-.6-.1-1.5.1-2.2.1zm3.1-3.2c-1.1.3-2.7-.4-3.7-.6-1.6-.3-2.8-.3-4.3 0-3 .7-4.8.8-7.7-.3-1.2-.5-2.4-1-3.7-1-1.6-.1-2.9.5-4.3 1-2.8 1-4.6.5-7.3-.7-2.5-1.1-4.2-1.4-6.8-.3-1.4.6-2.9 1.8-4.4 2-3.1.4-3.7-1.9-6.1-2.7-2-.7-3.4.5-4.8 1.7-4.3 3.5-6.9-2.2-11.2-1.8-1.4.1-2.6.9-3.9 1.2-1 .3-1.9.3-2.9.2-.5-.1-1-.2-1.5-.2-1.6-.2-1.9-1.4-1-3.6 24.8.8 49.8.4 74.6.5.4 0 .8.1 1.1.2 1.6.3 1 1.7-2.1 4.4z" style="fill:#371c2a"/></svg>