<svg version="1.1" id="Layer_1" xmlns="http://www.w3.org/2000/svg" x="0" y="0" viewBox="0 0 100 100" style="enable-background:new 0 0 100 100" xml:space="preserve"><style>.st0{fill:#1c1c1b}.st5{fill:#ee9a27}.st7{opacity:.11;fill:#1c1c1b}</style><path class="st0" d="M85.8 65.3c1 2.9-1.3 5-3.6 6.4-6.2 3.7-13.6 4.6-20.7 5.2-8.3.6-16.7.7-24.9-.3-3.9-.5-7.8-1.2-11.6-2.2-3.1-.8-7.4-1.6-9.7-4.1-4.4-4.5 2.3-8.7 6.4-9.7v-1.1c-.6-.3-.9-.9-1.1-1.9-.6-3.5-.1-7.7.4-11.2 0-.1 0-.1.1-.1-1.7-1.7-.9-5.7-.5-7.6.8-4.2 3.5-6.7 7.6-7.7 5.1-1.3 10.8-1.5 16-1.3.1-.6.2-1.1.3-1.6.6-2.4 2.1-4.6 4.6-5.2h.2c-.1-.2.1-.4.3-.2 2.1 1.8 4 3.9 6 5.8l1.5 1.2c6.8-.5 24.8-1 23 10.4-.3 1.7-1.1 3.2-2.3 4.2-1.2 1.1-2.9 1.8-4.6 1.8-2.7.1-4.6-2.1-7.2-2.1-2.2 0-4 1.8-5.8 2.8-3.5 2-6.2.8-9.7-.7-1.6-.7-3.2-1.2-4.9-.7-1.3.4-2.4 1.2-3.7 1.7-2 .8-4.2.9-6.3.3-3.4-1-5.4-3-9.1-1.4-1.4.6-2.7 1.4-4.3 1-.2-.1-.5-.2-.6-.3-.1 2.3-.3 4.6-.3 7 0 1.1 0 2.2.1 3.3.2 1.5 1.2 1.5 2.5 1.5s2.2-.1 3.5.5c1.8.8 3.3 2.4 5.3 2.6 3.4.3 5.1-3.4 8.2-4.1 2.2-.5 3.9.9 5.5 2.2 1.7 1.5 3.4 3 5.9 2.2 2.1-.7 3.6-2.6 5.2-4 1.9-1.6 4.5-2.8 6.8-1.5 1.5.8 2.4 2.5 3.9 3.4 2.3 1.3 5.2.6 7.1-1.2 3.7-3.6 2.9-9.4 2.3-13.9 0-.2 0-.3.2-.4.2-.2.7-.2.7.2.6 3.9 1 9.6-1.2 13.4.2-.3.9-.3.9.3v1.7c3 .5 6.6 2.4 7.6 5.4zm-3.4 5.1c5.7-3.7.3-8.3-4.2-9.6 0 1.9.1 3.8-.3 5.5-.4 1.8-2.1 2.3-3.7 2.8-5.4 2-11.4 2.2-17.1 2.4-6.5.2-13 .2-19.4-.4-5.4-.5-11.1-1.7-15.5-5-.2-.2-.2-.4 0-.6v-.2c-.2-1.3-.3-2.7-.3-4.1-1.7.5-3.2 1.3-4.6 2.3-2.8 2.1-2.9 5.3.3 7.1 3.2 1.8 7.3 2.6 10.9 3.4 7.3 1.6 14.9 2.2 22.4 2.1 7.3 0 14.8-.3 21.9-2 3.2-.6 6.7-1.7 9.6-3.7zm-3-31.5c0-9.2-14.3-8.9-21.2-8.4 1.3 1 2.7 1.9 4 2.8.8 0 1.5.1 2.2.5.3.2.1.7-.3.6-1-.3-1.9-.5-2.9-.2s-1.7.9-2.4 1.7c0 0-.1.1-.1 0-.1.2-.4.3-.6.1-1.3-1.6-3.1-1.5-4.7-.6.1.3-.3.6-.5.3-.8-1-1.7-1.7-3.1-1.8-.9-.1-3.7 0-3.9 1.3 0 .1-.1.2-.3.1-.1 0-.3 0-.3-.1-.4-.6-.8-.9-1.5-1-.7-.1-1.1.2-1.7.5-.1.1-.3-.1-.2-.2.7-1.2 2.6-.9 3.5-.1-1.1-1-1.2-2.8-1.1-4.4-5.1.2-10.4.3-15.3 1.5-2.4.6-4.9 1.7-6.2 3.9-1.2 2.1-1.4 4.6-1.5 7 0 .8 0 1.1.2 1.5v.4c.2.8.8 1.2 1.6 1.4h.1c.4.3.6.4 1.4.1 1-.3 1.9-1 2.9-1.3 1.1-.4 2.2-.4 3.3-.2 2 .4 3.7 1.6 5.7 2.1 3 .7 5.2-.4 7.9-1.6 2.5-1.1 4.7-.7 7.1.4 2 .9 4.1 2 6.3 1.5 1.5-.4 2.8-1.4 4.1-2.2 2.2-1.4 4.2-2.2 6.7-1.1 2.3 1 4.1 2.1 6.7 1.2 2.3-.6 4-3 4.1-5.7zm-2.2 19.2v-.2c-1.1 1.8-2.8 3.1-5.4 3.5-2.8.4-4.7-1.1-6.6-2.9-4.3-4.2-7.5 1.2-10.9 3.5-2.1 1.3-4.4 1.6-6.5.2-2.5-1.6-4.6-5.1-8-3.3-2.1 1.1-3.7 3.4-6.2 3.6-1.3.1-2.5-.4-3.7-1-.8-.4-1.5-1-2.3-1.4-1.7-.9-2.6-.7-4.4-.5-.3 0-.6.1-.9 0 .1.3.1.6.1.9.2.1.3.4.1.5.2 1.4.2 2.9.3 4.4 0 .1 0 .2-.1.3 5 2.5 9.7 4 15.3 4.5 5 .4 10.1.5 15.2.4 5.3 0 10.7-.1 15.9-1.1 1.2-.2 2.3-.5 3.5-.9 2-.6 3.7-1.1 4.3-3.4.6-2.1.3-4.9.3-7.1zM58.5 35.6c.4-1 1.5-1.8 2.6-2.1-1.3-1-2.6-1.9-3.8-3 .4 1.6.8 3.1 1.1 4.7v.2c.1.1.1.2.1.2zm-.9-.8c-.4-1.5-.7-3-1-4.4v-.1c-.8.7-1.6 1.3-2.4 2-.7.6-1.3 1.3-2.1 1.8.4.3.7.6.9 1 1.2-1.3 3.3-1.2 4.6-.3zm-1.3-5.1c-.1 0-.2.1-.3.1-2.5.2-5 .3-7.5.5-.1 1.1.1 2.2.9 3 .9 0 1.7.2 2.5.7.5-.9 1.3-1.6 2-2.2.8-.8 1.6-1.5 2.4-2.1zm-7.7 0c2.3-.4 4.8-.7 7.1-.6-1.5-1.3-3-2.7-4.5-4.2-1.1 1-2.3 3-2.6 4.8zm2.4-4.9-.6-.6h-.1c-1.7.9-2.7 2.1-3.2 3.9-.2.9-.3 1.9-.3 2.8v.6c.2.6.2 1.3 0 1.9.1-.1.3-.1.4 0v.1c.5-.1 1-.2 1.3-.2-1.8-2.2 0-7.4 2.5-8.5zm-.8-1c-.2-.3-.5-.5-.7-.8 0 .1 0 .2-.1.3-1.9 1.1-3.3 2.5-3.9 4.7-.5 1.7-1 4.8.4 6.3.2-.2.5-.3.9-.5-1-1.3-.4-4.5-.1-5.8.4-1.9 1.6-3.6 3.5-4.2z"/><path d="M78.3 60.9c4.4 1.2 9.8 5.8 4.2 9.6-2.9 1.9-6.4 3.1-9.8 3.9-7.1 1.7-14.7 2-21.9 2-7.5 0-15-.5-22.4-2.1-3.6-.8-7.7-1.6-10.9-3.4-3.3-1.8-3.1-5-.3-7.1 1.4-1.1 3-1.8 4.6-2.3 0 1.4.2 2.8.3 4.1v.2c-.2.1-.2.4 0 .6 4.4 3.3 10.1 4.6 15.5 5 6.4.5 13 .5 19.4.4 5.7-.2 11.7-.4 17.1-2.4 1.5-.6 3.3-1.1 3.7-2.8.5-2 .5-3.9.5-5.7z" style="fill:#cce7e9"/><path d="M58.2 30.5c6.9-.4 21.2-.8 21.2 8.4 0 2.7-1.7 5.1-4.3 5.9-2.6.9-4.4-.2-6.7-1.2-2.5-1.1-4.5-.3-6.7 1.1-1.3.8-2.6 1.8-4.1 2.2-2.2.5-4.3-.6-6.3-1.5-2.4-1.1-4.6-1.6-7.1-.4-2.7 1.2-4.8 2.3-7.9 1.6-2-.4-3.7-1.6-5.7-2.1-1.1-.3-2.2-.2-3.3.2-1 .3-1.9 1-2.9 1.3-.8.2-1 .2-1.4-.1h-.1c-.7-.2-1.4-.7-1.6-1.4v-.4c-.2-.4-.2-.7-.2-1.5 0-2.4.2-4.9 1.5-7 1.3-2.2 3.8-3.3 6.2-3.9 5-1.2 10.2-1.3 15.3-1.5-.2 1.6-.1 3.5 1.1 4.4-.9-.9-2.8-1.1-3.5.1-.1.1.1.3.2.2.6-.3 1-.5 1.7-.5.7.1 1.1.5 1.5 1 .1.1.2.1.3.1.1 0 .2 0 .3-.1.2-1.3 3-1.4 3.9-1.3 1.4.1 2.3.8 3.1 1.8.2.2.6 0 .5-.3 1.6-.9 3.4-1 4.7.6.2.2.5.1.6-.1h.1c.7-.7 1.4-1.4 2.4-1.7 1-.3 1.9-.1 2.9.2.4.1.6-.4.3-.6-.6-.4-1.4-.6-2.2-.5-1.1-1.2-2.5-2.1-3.8-3zm13.7 5.7c.3-.1.1-.6-.2-.5-4 1.6-8 2.5-12.3 2.9-.2 0-.2.2 0 .2 4.3.1 8.5-.8 12.5-2.6zm-20.3 4c.3 0 .3-.5 0-.5-9.1.3-17.9-.6-26.6-3.3-.2-.1-.3.3-.1.3 8.5 2.9 17.6 4.2 26.7 3.5z" style="fill:#f8c954"/><path d="M77.8 44.3c-.1.1-.2.3-.1.5.6 4.6 1.4 10.3-2.3 13.9-1.9 1.8-4.8 2.5-7.1 1.2-1.5-.9-2.4-2.5-3.9-3.4-2.3-1.3-5 0-6.8 1.5-1.7 1.4-3.1 3.3-5.2 4-2.5.8-4.1-.7-5.9-2.2-1.6-1.4-3.2-2.7-5.5-2.2-3.1.7-4.8 4.4-8.2 4.1-2-.2-3.5-1.8-5.3-2.6-1.3-.6-2.2-.5-3.5-.5-1.3 0-2.3 0-2.5-1.5-.1-1.1-.1-2.2-.1-3.3 0-2.3.2-4.7.3-7l.6.3c1.6.4 2.9-.4 4.3-1 3.7-1.6 5.7.4 9.1 1.4 2.1.6 4.3.5 6.3-.3 1.2-.5 2.4-1.3 3.7-1.7 1.7-.5 3.3 0 4.9.7 3.4 1.5 6.2 2.7 9.7.7 1.8-1 3.6-2.8 5.8-2.8 2.5 0 4.4 2.3 7.1 2.2 1.7-.2 3.3-.9 4.6-2z" style="fill:#f2ae51"/><path d="M77.3 58v.2c-.1 2.2.3 5-.2 7.1-.6 2.3-2.3 2.7-4.3 3.4-1.1.4-2.3.6-3.5.9-5.2 1-10.6 1.1-15.9 1.1-5 0-10.1 0-15.2-.4-5.6-.4-10.3-2-15.3-4.5.1-.1.1-.2.1-.3 0-1.4-.1-2.9-.3-4.4.2-.1.1-.4-.1-.5 0-.3-.1-.6-.1-.9h.9c1.8-.3 2.7-.4 4.4.5.8.4 1.5 1 2.3 1.4 1.1.6 2.3 1.1 3.7 1 2.5-.3 4.1-2.5 6.2-3.6 3.4-1.8 5.5 1.6 8 3.3 2.1 1.4 4.4 1.2 6.5-.2 3.4-2.2 6.6-7.6 10.9-3.5 1.9 1.9 3.8 3.4 6.6 2.9 2.5-.4 4.2-1.7 5.3-3.5zm-1.4 7.6c.2-.2-.1-.6-.3-.4-.4.2-.7.5-1.1.5-.4 0-.8-.3-.6-.7.1-.2-.1-.4-.3-.2-.4.4-.1 1 .3 1.3.6.4 1.5 0 2-.5zm-.8-1.2c.2 0 .3-.3.2-.5-.5-.8-1.7-1.1-2.4-.4-.2.2.1.6.4.4.2-.2.5-.2.8-.2-.3 0-.4.5 0 .6.2.2.6.2 1 .1zm-8.5.5c.2.2.6 0 .4-.3-.7-1.1-2.6-.8-3.2.2-.2.3.2.5.4.2.6-.8 1.7-.6 2.4-.1zm-1.4-2.5c.2-.6-.2-1.2-.7-1.5-.7-.4-1.6-.2-2.3 0-.3.1-.2.5.1.5.8-.1 2.4-.4 2.3.9 0 .3.5.4.6.1zm-2.7.3c.3-.1.3-.6-.1-.6-.5 0-1.3.2-1.7-.2-.2-.3-.2-.8.2-.9.2-.1.2-.4-.1-.4-.7 0-1 .9-.7 1.5.3.7 1.6.8 2.4.6zM53 68.6c.4.1.6-.5.2-.6-.5-.2-1-.1-1.5-.2-.2-.1-.5-.2-.6-.4-.1-.2 0-.5.2-.6.2-.1.1-.5-.2-.4-.7.2-.8 1-.4 1.5.4.6 1.5.5 2.3.7zm-20.2-1.7c.2.2.6-.1.4-.3-.7-.9-2.3-.6-2.6.5-.1.2.3.4.4.2.4-.8 1.3-1 1.8-.4zm-2.3-1.6c.4-.4.2-1-.2-1.4-.5-.5-1.4-.3-2-.1-.2.1-.1.4.1.4.4-.1 1-.3 1.4-.1.3.2.5.5.3.8-.1.4.2.6.4.4zm-1.6.1c.2-.2 0-.4-.3-.3-.4.2-1 .6-1.4.2-.2-.2-.3-.7.1-.8.2-.1.2-.5-.1-.4-.7.1-.9.9-.5 1.5.5.7 1.7.4 2.2-.2z" style="fill:#b18c5d"/><path class="st0" d="M75.6 65.2c.3-.1.6.2.3.4-.5.5-1.4.8-2 .5-.5-.3-.7-.9-.3-1.3.1-.2.3 0 .3.2-.2.4.3.7.6.7.4 0 .7-.3 1.1-.5zM75.2 64c.1.2 0 .4-.2.5-.4.1-.7.1-1.1 0-.3-.1-.2-.6 0-.6-.3 0-.5 0-.8.2-.3.2-.6-.1-.4-.4.9-.8 2.1-.6 2.5.3zM71.7 35.7c.3-.1.5.4.2.5-3.9 1.8-8.2 2.7-12.5 2.7-.2 0-.2-.2 0-.2 4.3-.4 8.2-1.3 12.3-3zM67 64.6c.2.3-.2.5-.4.3-.7-.6-1.8-.7-2.4.1-.2.2-.6 0-.4-.2.6-1 2.5-1.3 3.2-.2zM64.5 60.9c.5.3.9.9.7 1.5-.1.3-.6.3-.6-.1.1-1.3-1.5-1.1-2.3-.9-.3 0-.4-.4-.1-.5.8-.3 1.6-.5 2.3 0zM62.4 62.1c.4 0 .4.5.1.6-.8.2-2 .1-2.4-.7-.2-.6 0-1.5.7-1.5.2 0 .3.4.1.4-.4.1-.4.6-.2.9.4.5 1.2.2 1.7.3z"/><path class="st5" d="M61.1 33.5c-1.1.4-2.2 1.1-2.6 2.1 0-.1-.1-.1-.1-.1v-.2c-.3-1.6-.7-3.2-1.1-4.7 1.2.9 2.5 1.9 3.8 2.9zM56.7 30.4c.3 1.5.6 3 1 4.4-1.4-.9-3.4-1-4.5.3-.2-.4-.6-.7-.9-1 .8-.5 1.4-1.2 2.1-1.8.7-.7 1.5-1.3 2.3-1.9 0-.1 0 0 0 0zM56.3 29.7c-.8.7-1.6 1.4-2.3 2.1-.7.7-1.5 1.4-2 2.2-.7-.4-1.6-.6-2.5-.7-.8-.8-1-1.9-.9-3 2.5-.1 5-.2 7.5-.5.1 0 .1 0 .2-.1zM55.7 29.2c-2.3-.1-4.8.1-7.1.6.3-1.9 1.5-3.8 2.7-4.8 1.4 1.5 2.9 2.9 4.4 4.2z"/><path class="st0" d="M53.1 67.9c.4.1.2.7-.2.6-.8-.2-1.9 0-2.4-.8-.4-.5-.2-1.3.4-1.5.2-.1.4.3.2.4-.2.1-.3.4-.2.6.1.2.4.3.6.4.6.3 1.1.2 1.6.3zM51.6 39.7c.3 0 .3.5 0 .5-9 .7-18.1-.6-26.7-3.5-.2-.1-.1-.4.1-.3 8.6 2.7 17.5 3.7 26.6 3.3z"/><path d="m50.4 24.1.6.6c-2.5 1.2-4.4 6.4-2.3 8.6-.3 0-.8.1-1.3.2v-.1c-.1-.2-.3-.2-.4 0 .2-.6.2-1.2 0-1.9v-.6c0-.9.1-1.9.3-2.8.4-1.8 1.4-3.1 3.1-4z" style="fill:#fff"/><path class="st5" d="M49.4 23c.2.3.5.6.7.8-1.9.6-3.1 2.3-3.6 4.1-.4 1.3-.9 4.6.1 5.8-.3.1-.6.3-.9.5-1.4-1.5-.9-4.6-.4-6.3.6-2.2 2-3.6 3.9-4.7.3 0 .3-.1.2-.2z"/><path class="st0" d="M33.2 66.5c.2.2-.2.5-.4.3-.5-.6-1.4-.3-1.7.3-.1.2-.5.1-.4-.2.2-1 1.9-1.2 2.5-.4zM30.3 64c.4.3.6 1 .2 1.4-.2.2-.5-.1-.4-.3.2-.3 0-.7-.3-.8-.4-.2-1 0-1.4.1-.3 0-.3-.3-.1-.4.6-.4 1.5-.5 2 0zM28.7 65.1c.2-.1.4.1.3.3-.5.6-1.7.8-2.2.1-.3-.6-.2-1.4.5-1.5.3 0 .3.4.1.4-.3.1-.3.6-.1.8.4.5 1 .1 1.4-.1z"/><path class="st7" d="M78.9 60.6c-.3-1.1-2-.7-1.7.5.3 1.1.5 2.1.5 3.2-.1 2-1.4 2.9-3.1 3.5-2.2.8-4.7 1.4-7 1.8-5.1 1-10.3 1.5-15.5 1.5-5.1 0-10.2-.5-15.2-1.3-2.4-.4-4.8-.9-7.2-1.4-2.2-.5-5.2-.8-6.8-2.4-.4-.4-1.2.1-.8.6 1.2 1.8 3 2.4 5 2.9 3.1.8 6.2 1.5 9.4 2 6.2 1.1 12.6 1.6 18.9 1.4 6.1-.2 12.3-1 18.2-2.7 2.2-.6 4.8-1.3 5.8-3.5.6-1.9 0-4.1-.5-6.1z"/><path class="st7" d="M76.1 58c-1.2 1.2-2.2 2.3-3.9 2.8-2.2.6-3.3-1.2-4.9-2.4-1.2-.9-2.6-1.4-4.1-1.6-.1-.1-.2-.2-.3-.2-3.7-1.4-5.2 2.8-7.6 4.6-4.4 3.3-7.8-.8-11.5-2.7 0-.1-.1-.1-.2-.1h-.1c-.1 0-.2-.1-.2-.1-.1-.1-.2 0-.3 0-3.9-.5-5.9 3.7-9.7 3.7-3.9 0-6.9-3.6-11-2.5-.5.1-.4 1 .1.9 4-.3 7 2.8 10.9 2.9 1.4 0 2.8-.4 4-1.3.6-.4 1-.9 1.5-1.4 1.4-1.3 2.7-1.6 4.6-1.6 2.8 2 5.2 5 8.9 4.8 1.4 0 2.9-.5 4-1.4 1.9-1.4 3.2-5.2 6.2-4.4.4.1.7-.1.9-.4 1.6.6 2.8 1.5 4 2.7.9.9 1.6 1.7 2.9 2 2.8.6 5.1-1.4 6.9-3.3.7-.6-.4-1.7-1.1-1zM77 43.9c-2.1 2.4-5.4.8-7.9.1-1.9-.5-3.8-.7-5.6.2-3 1.5-4.2 3.7-8 2.9-2.4-.5-4.8-1.3-7.2-1.9-.1-.3-.2-.5-.6-.5-3-.4-4.2 2.3-7 2.8-2.8.4-6.1-.9-8.9-2 0 0-.1 0-.1-.1-.3-.1-.6-.2-.9-.4h-.2c-.9-.2-1.9-.3-2.9-.1-.7.1-1.3.3-2 .6-1.1.5-2.7 2.1-4 1.1-.2-.1-.4.1-.4.3.5 1.1 1.5 1.2 2.6.8 1-.4 1.8-1.1 2.8-1.4 1.6-.5 3.2-.3 4.8 0h.1c2.4 1.4 5.1 2.4 7.8 2.7 1.1.1 2.1.1 3.1-.3 1.8-.7 2.7-2.5 4.9-2.3.2 0 .4 0 .5-.2 2.7 1 5.7 2.1 8.5 2.3 2.6.3 4.3-1 6.4-2.4 3.3-2.1 6.2-.3 9.6.2 2 .3 3.9 0 5.4-1.4.8-.6-.2-1.6-.8-1zM64.9 32.7c-1.9-.7-4.5.1-6 1.6-1.6-1.4-4.5-1.4-6.1-.1-2.1-1.1-6.1-2.3-7.5-.1-.7-.9-2.2-1.2-3.2-.5-.3.2-.1.7.3.6.9-.3 1.6 0 2.2.7.2.2.4.2.6.1.2.1.4.2.6 0 1.9-1.8 5-.6 6.9.6.5.3.9-.1.8-.6 1.8-.7 3.3-.4 4.9.8.5.3.9-.1.9-.5.7-.4 1.4-.8 2.2-1 1.1-.3 2-.1 3 0 1-.2 1.1-1.4.4-1.6z"/></svg>