<svg version="1.1" id="Layer_1" xmlns="http://www.w3.org/2000/svg" x="0" y="0" viewBox="302 -180.1 1200 1200" style="enable-background:new 302 -180.1 1200 1200" xml:space="preserve"><style>.st2{fill:#f1c5ad}.st10{opacity:.2;fill:#fff;enable-background:new}.st13{fill:#5d4298}.st17{fill:#9e9dce}.st18{fill:#7ac1c3}.st19{fill:#fff}.st20{fill:#010202}.st21{fill:#e17fb1}.st22{fill:#8386c1}</style><path d="m1051 625.3 77.7-31.1c-6.9-84.7-90.5-184.5-224.1-184.5S686.8 509.5 680 594.2l77 31.1v394.6h294V625.3z" style="fill:#ff834d" id="Body_4_"/><g id="Head_3_"><path d="M757 943.3v20.6c45 11.9 87-28.6 87-28.6l207 3v-31.5l-294 7.9v28.6z" style="opacity:7.000000e-002;fill:#2b2b2b;enable-background:new"/><path class="st2" d="M958.7 415.5c-7.5-1.8-11.9-2.4-21.2-3.7l-4.9-50.8-53.9-2-2.1 52.1c-11.1 1.1-17 2.1-25.9 4.2-.2 2.7 0 5 .1 7.8 1.3 33.1 26.5 58.8 56.2 57.3s52.8-29.5 51.5-62.7c.2-.3.3-1.6.2-2.2z"/><path d="m933.6 370.5 2.3 23.8c-9.5 1.5-20.6 2.9-31.5 2.7-9.5 0-18.7-1.1-27-2.3l1-25.5 55.2 1.3z" style="opacity:.1;fill:#1e1e1e;enable-background:new"/></g><path d="M581.1 922.6h642c11.6 0 21.8-6.3 27.2-15.7H553.9c5.4 9.3 15.5 15.7 27.2 15.7z" style="fill:#bfbebe"/><path d="M549.6 891.1c0 5.7 1.6 11.1 4.2 15.7h696.5c2.7-4.6 4.2-10 4.2-15.7H549.6z" style="opacity:.2;fill:#d6b4b4;enable-background:new"/><path d="M951.2 891.1c-2.4 3.5-6.5 5.9-11.1 5.9h-75.9c-4.6 0-8.7-2.3-11.1-5.9H549.6c0 5.7 1.6 11.1 4.2 15.7h696.5c2.7-4.6 4.2-10 4.2-15.7H951.2z" style="fill:#cecccc"/><path d="M864.1 896.9H940c4.6 0 8.7-2.3 11.1-5.9H853c2.5 3.6 6.5 5.9 11.1 5.9z" style="fill:#a0a0a0"/><path d="M1197.8 878.1c0 7.2-5.8 13-13 13H619.4c-7.2 0-13-5.8-13-13V510.2c0-7.2 5.8-13 13-13h565.5c7.2 0 13 5.8 13 13l-.1 367.9z" style="fill:#141313"/><path style="opacity:.3;fill:#fff;enable-background:new" d="M772.8 497.2 986 891.1h109.4L813.6 497.2z"/><path class="st10" d="M1197.8 878.1V758.2l-139.2-261h-209l279.7 393.9h55.5c7.2 0 13-5.8 13-13z"/><circle cx="902.1" cy="511.3" r="4.2"/><circle class="st10" cx="902.1" cy="511.3" r="1"/><path style="fill:#eeedef" d="M639.9 527.6h523.3v333.3H639.9z"/><path style="fill:#c7c9c9" d="M639.9 527.4h523.3v24.8H639.9z"/><circle class="st13" cx="654.2" cy="539.8" r="6.1"/><circle cx="673.9" cy="539.8" r="6.1" style="fill:#78c2c5"/><circle cx="693.6" cy="539.8" r="6.1" style="fill:#fced7e"/><path class="st2" d="m1242.9 748.3-45.1 40.1v-44.1z"/><path style="opacity:.1;fill:#2b2b2b;enable-background:new" d="m1197.8 751.1 30.5 10.1 12.4-11.8-33-6.5z"/><path class="st2" d="M1179.6 672.3c-13 1.5-57.8 4.9-57.8 4.9-7.4.9-13.2 7.7-12.3 15 .9 7.1 7.2 12.3 14.3 11.8.2 0 38-2.7 38.2-2.7-7.4.9-12.6 7.6-11.7 14.9.9 7.3 7.6 12.6 14.9 11.7-7.4.9-12.4 7.5-11.6 14.9.9 7.4 7.7 12.6 15.1 11.7l6.7-.8c1-.1 11.4-1.2 24.8-2.7 14.4-.6 26.3-1 33.7-.3h-.1c29 1.5 28.8-71.3 2.1-78.2-15.6-4.4-36.7-3.2-56.3-.2z"/><path id="XMLID_292_" class="st17" d="M731.7 164.6c0 90.5 80.6 163.7 180.4 163.7s180.4-73.2 180.4-163.7c0-89.4-78-169-177.2-163.7h-5.9c-98.7-5.3-177.7 74-177.7 163.7z"/><path id="XMLID_291_" class="st18" d="M1059.1 279.4s33.2 46.4-3.4 117.3c4-39 14.9-70.8-15.7-117.3-30-46.1 13.8-15.4 19.1 0z"/><g id="Girl_2_"><g id="Head"><g id="XMLID_340_"><path id="XMLID_290_" class="st2" d="M759.5 237.5c-1.3 81.4 63.7 148.8 145.1 150.2 81.4 1.3 148.8-63.7 150.2-145.1l.8-55.2c1.3-81.4-63.7-148.8-145.1-150.2-81.4-1.3-148.8 63.7-150.2 145.1l-.8 55.2z"/><ellipse id="XMLID_289_" transform="matrix(.01644 -.9999 .9999 .01644 801.852 1294.971)" class="st2" cx="1059.1" cy="239.9" rx="39.8" ry="39.5"/></g></g></g><g id="XMLID_336_"><path id="XMLID_288_" class="st19" d="m832.2 294.8 128.1-2.4S938.5 338 897.2 338c-41.1.1-63.1-33.9-65-43.2z"/><path id="XMLID_287_" class="st20" d="M846.8 244.4c-2.7 9.3-11.9 15.1-20.7 12.7-9-2.4-14.1-11.9-11.4-21.5 2.7-9.3 11.9-15.1 20.7-12.7 8.8 2.4 14.1 12.2 11.4 21.5z"/><ellipse id="XMLID_286_" transform="scale(-1) rotate(-74.592 -315.043 1272.633)" class="st20" cx="969.4" cy="240" rx="17.8" ry="16.7"/></g><path id="XMLID_285_" class="st17" d="M1023-24.6c-21.2 22-20.4 57 1.6 78.3l48.3 46.4c22 21.2 57 20.4 78.3-1.6 21.2-22 20.4-57-1.6-78.3-12.2-11.7-36.3-35-48.3-46.4-22.1-20.9-57.1-20.4-78.3 1.6z"/><path id="XMLID_55_" class="st17" d="M797.7-25.4c-21.5-21.8-56.5-22-78.3-.5-11.9 11.7-35.8 35.3-47.8 47.2-21.8 21.5-22 56.5-.5 78.3 21.5 21.8 56.5 22 78.3.5l47.8-47.2c21.8-21.5 22-56.5.5-78.3z"/><path id="XMLID_45_" class="st18" d="M775.5 190.8s-31.6 119.6 0 218.9c-25.5-26.5-48.6-145.1 0-218.9z"/><path id="XMLID_42_" class="st17" d="m902.5 83.4 157.3 166.1s1.9-19.6 2.4-46.2c1.3-50.1-1.6-125.2-28.4-140.3-40.9-23.1-130-48.3-130-48.3S796.9 40.1 775.2 92.1 753.4 237 753.4 237s95.3-121 149.1-153.6z"/><path id="XMLID_41_" class="st21" d="M728.5-32.6S798.8.6 790 61.6l-33.2 32.6c.1.1 11.8-101.3-28.3-126.8z"/><path id="XMLID_40_" class="st22" d="m699.9-6.3-32.6 32.6s-1.1 63.4 66.1 84.1c-20.5-18.3-48.7-63.6-33.5-116.7z"/><path id="XMLID_39_" class="st22" d="M1016.9 44.6s-1.6-59.4 82.5-72.2l27.9 26.8c-.1-.2-91.6-4.7-110.4 45.4z"/><path id="XMLID_38_" class="st18" d="m1038.4 66.1 42.4 40.6s77.5-20.4 73.5-80.9c-16.4 23.6-61.8 49.9-115.9 40.3z"/><path id="XMLID_36_" class="st22" d="M904.1 22.1s-59.2-5.8-98.2 19.6c25.2-.3 93.9 16.4 93.9 16.4s1.1-22.2 4.3-36z"/><path id="XMLID_35_" class="st18" d="M890.1 74.9S769.9 103 733.8 191.4c4 21.8 9.3 31 9.3 31s65.5-118.6 147-147.5z"/><path id="XMLID_34_" class="st21" d="M912.1 58.4s144.3 35.3 150.4 139l-150.4-139z"/><path id="XMLID_33_" class="st22" d="M915 5.9s-6.9 13.3-7.2 34.2l116.5 13.5c.3.1-37.7-38.7-109.3-47.7z"/><path id="XMLID_29_" class="st17" d="M912.1.9s-17.5-30.5-67.4-14.3c21.2.3 38.5 8.8 41.9 16.7C890.1 11 907 6.4 912.1.9z"/><path id="XMLID_23_" class="st17" d="M912.1.9s23.6-21.8 54.4-10.6c-17.8 1.3-33.4 13.3-34 15.9 2.7-2.9-20.4-5.3-20.4-5.3z"/><path class="st13" d="M896.8 651h-57.2c-11.1 0-20.1-9-20.1-20.1v-20.1h77.3c11.1 0 20.1 9 20.1 20.1 0 11.1-9 20.1-20.1 20.1zM896.8 752.3h-57.2c-11.1 0-20.1-9-20.1-20.1v-20.1h77.3c11.1 0 20.1 9 20.1 20.1 0 11.1-9 20.1-20.1 20.1z"/><path class="st19" d="M1026.9 698.6h-57.2c-11.1 0-20.1-9-20.1-20.1 0-11.1 9-20.1 20.1-20.1h77.3v20.1c0 11.1-9 20.1-20.1 20.1zM1027.4 803.6h-57.2c-11.1 0-20.1-9-20.1-20.1 0-11.1 9-20.1 20.1-20.1h77.3v20.1c0 11.1-9 20.1-20.1 20.1z"/><circle class="st19" cx="793.1" cy="615.6" r="14.2"/><circle class="st13" cx="1075.1" cy="658.4" r="14.2"/><circle class="st19" cx="793.1" cy="712.1" r="14.2"/><circle class="st13" cx="1075.1" cy="761.2" r="14.2"/><path class="st19" d="M639.9 552.2H726v308.6h-86.1z"/><path class="st2" d="M707.3 879.9c1.1-13.7 1.7-21.3 1.7-21.3.7-7.7 7.6-14.1 15.4-13.4 7.7.7 13.5 7.6 12.8 15.3.7-7.7 7.5-13.4 15.3-12.8 7.7.7 13.5 7.5 12.8 15.3.7-7.7 7.5-13.3 15.2-12.6 7.7.7 13.4 7.7 12.7 15.4l-.6 7c-.1 1.1-.9 12-2 26.1-.2 15.2.8 20.3.8 20.3 2.5 30.4-73.8 32.5-82 4.7-5.1-16.2-4.5-23.4-2.1-44z"/></svg>