<svg version="1.1" id="Capa_1" xmlns="http://www.w3.org/2000/svg" x="0" y="0" viewBox="-41 164.9 512 512" style="enable-background:new -41 164.9 512 512" xml:space="preserve"><style>.st1{fill:#7e4ce8}.st2{fill:none;stroke:#7e4ce8;stroke-width:24;stroke-miterlimit:10}</style><path d="M173.6 334.7h237.7c10.6 0 19.2 8.6 19.2 19.2v208.6l6.8-.8v96.6l-87.7-58.9h-176c-10.6 0-19.2-8.6-19.2-19.2V353.9c0-10.6 8.6-19.2 19.2-19.2z" style="fill:#e6d9f9"/><path class="st1" d="M427.4 667.7 365.3 616h-198c-16.4 0-29.8-13.3-29.8-29.8V347.8c0-16.4 13.3-29.8 29.8-29.8h250.5c16.4 0 29.8 13.3 29.8 29.8v310.5c0 4.7-2.8 9.1-7 11.1-1.6.8-3.4 1.1-5.2 1.1-2.9.1-5.7-.9-8-2.8zM167.3 338.4c-5.2 0-9.5 4.3-9.5 9.5v238.4c0 5.2 4.3 9.5 9.5 9.5h205.4l54.6 45.4V347.8c0-5.2-4.3-9.5-9.5-9.5H167.3z"/><path d="M256.4 187.8H18.6C8 187.8-.6 196.4-.6 207v208.6l-6.8-.8v96.6l87.7-58.9h176c10.6 0 19.2-8.6 19.2-19.2V207.1c.1-10.7-8.5-19.3-19.1-19.3z" style="fill:#fff"/><path class="st1" d="M-5.3 523.7c-1.8 0-3.5-.4-5.2-1.1-4.3-2-7-6.4-7-11.1V201c0-16.4 13.3-29.8 29.8-29.8h250.5c16.4 0 29.8 13.3 29.8 29.8v238.4c0 16.4-13.3 29.8-29.8 29.8h-198L2.6 520.9c-2.3 1.8-5.1 2.8-7.9 2.8zm17.6-332.2c-5.2 0-9.5 4.3-9.5 9.5v293.4L57.4 449h205.4c5.2 0 9.5-4.3 9.5-9.5V201c0-5.2-4.3-9.5-9.5-9.5H12.3z"/><path class="st1" d="M156.6 283.2c0 12.8-11.9 20.9-42.7 22.2l-1.3 1.3 5.7 39.5h25.4l2.7-14.9c26-4.6 47-17.4 47-48.6 0-32.3-23.9-51-59-51-22.8-.5-44.7 9.1-59.7 26.4l22.4 24.6c9.3-10.5 22.6-16.5 36.5-16.9 14.8.1 23 6.5 23 17.4zM110.2 365.5h39.5v39h-39.5z"/></svg>