<svg xmlns="http://www.w3.org/2000/svg" xmlns:xlink="http://www.w3.org/1999/xlink" viewBox="0 0 503.4 503.4" style="enable-background:new 0 0 503.4 503.4" xml:space="preserve"><style>.st1{clip-path:url(#SVGID_2_)}.st2{fill:none;stroke:#263238;stroke-miterlimit:10}.st3{fill:#263238}.st4{fill:#fff;stroke-linecap:round;stroke-linejoin:round}.st4,.st5{stroke:#263238;stroke-miterlimit:10}.st5,.st6{fill:#671cc9}.st7{fill:#92e3a9}.st11,.st12,.st13,.st15,.st8{fill:none;stroke:#263238;stroke-linecap:round;stroke-linejoin:round;stroke-miterlimit:10}.st11,.st12,.st13,.st15{fill:#263238}.st12,.st13,.st15{fill:#671cc9}.st13,.st15{fill:#92e3a9}.st15{fill:#4c4c4c}.st17,.st19{fill:#fff}.st19{stroke:#263238;stroke-width:.75;stroke-linecap:round;stroke-linejoin:round;stroke-miterlimit:10}</style><g id="Layer_12"><defs><circle id="SVGID_1_" cx="251.7" cy="251.7" r="251.7"/></defs><clipPath id="SVGID_2_"><use xlink:href="#SVGID_1_" style="overflow:visible"/></clipPath><path style="clip-path:url(#SVGID_2_);fill:#e7d7ff" d="M-2.1-4.3h507.7v507.7H-2.1z"/><g class="st1"><path class="st2" d="M64.5 63.4V419M64.5 49.7v6.8M194 49.7V419M323.5 49.7V419M453 102.3V419M453 49.7v43.8"/></g><g class="st1"><path class="st3" d="M88 100.2h296.5v175.7H88z"/><path class="st4" d="M89.7 105.2h293.1v165.7H89.7z"/><path class="st3" d="M84.7 97.2h301.5v9.4H84.7z"/><circle class="st4" cx="239.6" cy="88.5" r="8.5"/><path class="st5" d="M244.1 88.5c0 2.5-2 4.5-4.5 4.5s-4.5-2-4.5-4.5 2-4.5 4.5-4.5c2.5.1 4.5 2.1 4.5 4.5z"/></g><g class="st1"><path class="st2" d="M142.9 212.8h-36.2V176h61.6v36.8h-18.5M155.3 230.4h49.2v29.3h-49.2zM258.8 176h6.2v36.8h-61.6V176h49.5M208.5 122.3h72.3v36.8h-93.3v-36.8h14.1M299.5 176h61.6v36.7h-61.6zM182.5 140.4s-32.7 4.5-51.9 32.2M161.5 216.7l4.4 12.7M206.2 215.6l-4 11.9M161.1 225.2l4.8 4.2 1.2-5.7M200.3 223.7l1.8 4.8 5-3"/><path class="st2" d="m131.4 167-.8 5.7 6.2-3.9M266.8 193.5h30.9M291.1 189.6l6.9 3.9-6.3 3.8M169.4 193.5h30.8M193.7 189.6l6.8 3.9-6.2 3.8M234 162v9.4M237.8 164.9l-3.8 6.8-3.9-6.2M297.4 204.5h-29.7M274 200.7l-6.6 3.8 6 3.9M206.8 133.8h55.8M206.8 139.1h55.8M206.8 144.5h55.8M112.4 189.6h50.2M112.4 194.9h50.2M112.4 200.3h50.2M209.8 189.6H260M209.8 194.9H260M209.8 200.3H260M303.6 189.6h50.2M303.6 194.9h50.2M303.6 200.3h50.2M161.7 240.3H200M161.7 245.7H200M161.7 251H200"/><path class="st6" d="M331.5 138.5c-.2 0-.3-.1-.4-.2-.1-.2-.1-.5.2-.7l.4-.2-.1.1c-.2.1-.5.1-.7-.2-.1-.2-.1-.5.2-.7l2-1.3-1.8 1c-.2.1-.5.1-.7-.2-.1-.2-.1-.5.2-.7l3.6-2.4-3.4 2c-.2.1-.5.1-.7-.2-.1-.2-.1-.5.1-.7l5.7-3.8-5.5 3.2c-.2.1-.5.1-.7-.2-.1-.2-.1-.5.1-.7l8.5-6.1-8.5 4.9c-.2.1-.5.1-.7-.2-.1-.2-.1-.5.1-.7l6.1-4.2-6 3.5c-.2.1-.5.1-.7-.2-.1-.2-.1-.5.1-.7l3.4-2.3-3.3 1.9c-.2.1-.5.1-.7-.2-.1-.2-.1-.5.1-.7l2.2-1.5-2 1.2c-.2.1-.5.1-.7-.2-.1-.2-.1-.5.1-.7l5.9-4.4-5.9 3.4c-.2.1-.5.1-.7-.2-.1-.2-.1-.5.1-.7l5.3-4-5.2 3c-.2.1-.5.1-.7-.2-.1-.2-.1-.5.1-.7l2.6-1.9-2.4 1.4c-.2.1-.5.1-.7-.2-.1-.2-.1-.5.1-.7l2.1-1.6-1.9 1.1c-.2.1-.5.1-.7-.2-.1-.2-.1-.5.1-.7l1.1-.8-.8.5c-.2.1-.5.1-.6-.1-.2-.2-.2-.5 0-.6l1.6-2.1-1.5.8c-.2.1-.4.1-.6 0-.2-.1-.2-.3-.2-.5l.2-.6c-.2 0-.3-.1-.4-.3-.1-.2-.1-.5.2-.7l.7-.4c.2-.1.4-.1.6 0 .2.1.2.3.2.5l-.1.5 2.7-1.5c.2-.1.5-.1.6.1.2.2.2.5 0 .6l-1.6 2.1 4.8-2.8c.2-.1.5-.1.7.2.1.2.1.5-.1.7l-1.1.8 2.5-1.5c.2-.1.5-.1.7.2.1.2.1.5-.1.7l-2.1 1.6 3.5-2c.2-.1.5-.1.7.2.1.2.1.5-.1.7L335 118l3.9-2.2c.2-.1.5-.1.7.2.1.2.1.5-.1.7l-5.3 4 6.9-4c.2-.1.5-.1.7.2.1.2.1.5-.1.7l-5.9 4.4 7.3-4.2c.2-.1.5-.1.7.2.1.2.1.5-.1.7l-2.2 1.5 2.9-1.7c.2-.1.5-.1.7.2.1.2.1.5-.1.7l-3.4 2.3 4.1-2.4c.2-.1.5-.1.7.2.1.2.1.5-.1.7l-6.1 4.2 6.9-4c.2-.1.5-.1.7.2.1.2.1.5-.1.7l-8.5 6.1 9.5-5.5c.2-.1.5-.1.7.2.1.2.1.5-.1.7l-5.7 3.8 6.2-3.6c.2-.1.5-.1.7.2.1.2.1.5-.2.7l-3.6 2.4 3.9-2.2c.2-.1.5-.1.7.2.1.2.1.5-.2.7l-2 1.3 2.1-1.2c.2-.1.5-.1.7.2.1.2.1.5-.2.7l-.4.2.4-.3c.2-.1.5-.1.7.2.1.2.1.5-.1.7l-5.9 4.1 6.1-3.5c.2-.1.5-.1.7.2.1.2.1.5-.1.7l-.1.1c.2-.1.5-.1.7.2.1.2.1.5-.1.7l-1.1.8 1.1-.6c.2-.1.5-.1.6.1.2.2.2.5 0 .7l-1.9 2.2 1.9-1.1c.2-.1.4-.1.6.1.2.1.2.4.1.6l-.2.5c.2 0 .4.1.5.2.1.2.1.5-.2.7l-1.1.6c-.2.1-.4.1-.6-.1-.2-.1-.2-.4-.1-.6l.2-.4-3.2 1.8c-.2.1-.5.1-.6-.1-.2-.2-.2-.5 0-.7l1.9-2.2-7.4 4.3c-.2.1-.5.1-.7-.2-.1-.2-.1-.5.1-.7l1.1-.8-4.2 2.4c-.2.1-.5.1-.7-.2-.1-.2-.1-.5.1-.7l.1-.1-2.8 1.6c-.2.1-.5.1-.7-.2-.1-.2-.1-.5.1-.7l5.9-4.1-10.5 6c-.2 0-.3.1-.4.1z"/><path class="st2" d="M315.9 152.7c-4.5-4-7.4-9.6-7.4-15.9 0-12 10.4-21.7 23.2-21.7 12.8 0 23.2 9.7 23.2 21.7s-10.4 21.7-23.2 21.7c-3.5 0-6.8-.7-9.8-2M288 132.2h14.7M288 137.2h14.7M288 142.3h14.7M110.9 218.3h25.8M110.9 223.4h25.8M105.6 152.6h25.7M110.9 228.4h25.8M110.9 239h25.8M110.9 244.1h25.8M110.9 249.1h25.8"/><path class="st2" d="m325.5 115.7 6.3 22.7 22.9-5.3M105.8 121.5v25.3h40.6"/><path class="st5" d="M110 125h8.4v21.8H110zM131.5 129.9h8.4v16.8h-8.4zM120.8 118.1h8.4v28.7h-8.4z"/></g><g class="st1"><path class="st6" d="M57 284.2s0-4.2-5.9-10.2c-5.9-5.9-9.8-9.3-9.8-9.3s-3 9.8 2.5 15.7c5.5 5.9 13.2 11.5 13.2 11.5v-7.7zM48.4 310.7s0-4.2-5.9-10.2c-5.9-5.9-9.8-9.3-9.8-9.3s-3 9.8 2.5 15.7c5.5 5.9 13.2 11.5 13.2 11.5v-7.7z"/><path class="st6" d="M56.7 291.4s.4-4.2 7-9.5c6.5-5.3 10.7-8.3 10.7-8.3s1.9 10-4.2 15.3c-6.1 5.3-14.3 10-14.3 10l.8-7.5zM46.3 322.7s.9-4.1 7.9-8.7c7.1-4.6 11.5-7.1 11.5-7.1s.9 10.2-5.8 14.8c-6.6 4.7-15.3 8.4-15.3 8.4l1.7-7.4zM48.2 356.8s0-4.2 5.9-10.2c5.9-5.9 9.8-9.3 9.8-9.3s3 9.8-2.5 15.7c-5.5 5.9-13.2 11.5-13.2 11.5v-7.7z"/><path class="st6" d="M48.1 365.2s.6-4.2-4.4-10.9-8.3-10.6-8.3-10.6-4.3 9.2.3 15.9c4.6 6.7 11.4 13.2 11.4 13.2l1-7.6zM42.3 389.9s0-4.2 5.9-10.2c5.9-5.9 9.8-9.3 9.8-9.3s3 9.8-2.5 15.7c-5.5 5.9-13.2 11.5-13.2 11.5v-7.7z"/><path class="st7" d="M46.2 412.2s-1.1-4.1 3.2-11.4c4.2-7.3 7.1-11.5 7.1-11.5s5.3 8.7 1.5 15.8c-3.8 7.1-9.8 14.4-9.8 14.4l-2-7.3z"/><path class="st8" d="M57.6 283.1c-.3 4.5-.9 9.2-1.6 13.2-2.3 12.1-8.2 20-10.6 30.9-2.3 11 4.4 25.1 2.6 39.2-1.8 14.1-7.3 21.9-5.7 31.3 1.6 9.4 9.8 34.8 9.8 34.8M56.6 294.2l6.4-4.9M56.9 288.6l-2.7-4.8"/><path class="st8" d="M45.7 326.7s5.4-4 10.9-8M48.4 318.3s-4.5-8.8-9.5-14.6M48.4 362.9s4.2-8.2 11.5-15.3M47.4 368.8s-2.7-6.4-5.8-11c-3.1-4.6-3.6-5.2-3.6-5.2M42.3 397.7s2.1-5.4 4.8-9.8c2.7-4.3 6.3-8.2 6.3-8.2M48.2 419.6s-.6-5.1 1.6-9.4c2.2-4.3 4.8-10 5.8-12.2"/><path class="st6" d="M18.1 340.9s-.5-2.7 2.6-7 5.1-6.9 5.1-6.9 2.9 5.8.1 10.1-7 8.6-7 8.6l-.8-4.8zM26.4 356.6s-.5-2.7 2.6-7c3.1-4.4 5.1-6.9 5.1-6.9s2.9 5.8.1 10.1-7 8.6-7 8.6l-.8-4.8z"/><path class="st6" d="M19.2 345.4s-.7-2.6-5.4-5.2-7.6-4-7.6-4-.1 6.5 4.3 9.2c4.4 2.7 10 4.7 10 4.7l-1.3-4.7zM29.1 363.9s-1-2.5-5.9-4.6c-4.9-2.1-8-3.2-8-3.2s.6 6.5 5.2 8.7c4.7 2.2 10.5 3.6 10.5 3.6l-1.8-4.5zM31.6 385.5s-.5-2.7-4.8-5.7c-4.4-3.1-7.1-4.8-7.1-4.8s-.8 6.4 3.3 9.6c4.1 3.1 9.5 5.8 9.5 5.8l-.9-4.9z"/><path class="st6" d="M32.5 390.7s-.8-2.6 1.6-7.3c2.4-4.8 4.1-7.6 4.1-7.6s3.7 5.3 1.5 10-5.7 9.5-5.7 9.5l-1.5-4.6z"/><path class="st7" d="M40 412.2s.3-2.7 4.5-6 6.8-5.2 6.8-5.2 1.2 6.4-2.7 9.7c-3.9 3.4-9.1 6.3-9.1 6.3l.5-4.8zM38.9 405.5s-.5-2.7-4.8-5.7c-4.4-3.1-7.1-4.8-7.1-4.8s-.8 6.4 3.3 9.6c4.1 3.1 9.5 5.8 9.5 5.8l-.9-4.9zM38.8 420s.2-2.7-3.2-6.8c-3.4-4.1-5.7-6.4-5.7-6.4s-2.4 6 .8 10.1 7.7 8 7.7 8l.4-4.9z"/><path class="st8" d="M17.7 340.3c.7 2.8 1.5 5.7 2.5 8.1 2.8 7.4 7.3 11.6 10 18.2s0 16.2 2.6 24.8c2.7 8.6 6.9 12.9 7 19 0 6.1-2.4 22.9-2.4 22.9M19.5 347.1l-4.5-2.3M18.7 343.6l1.2-3.3"/><path class="st8" d="M29.8 366.3s-3.8-1.9-7.7-3.9M27.3 361.4s1.8-6 4.4-10.2M32.1 389.3s-3.5-4.7-8.9-8.4M33.4 392.9s1-4.3 2.4-7.5c1.5-3.2 1.7-3.7 1.7-3.7M39.5 415s3-3.7 4.9-5.1c1.9-1.4 3.2-2.8 3.2-2.8M39.7 410.4s-1.9-3.2-4.1-5.6c-2.1-2.4-4.8-4.5-4.8-4.5M38.4 424.9s-.2-3.3-2-5.7c-1.9-2.5-4.1-5.7-5-7"/></g><g class="st1"><circle transform="rotate(-76.927 440.335 153.106)" cx="440.4" cy="153.1" style="fill:#263238;stroke:#263238;stroke-miterlimit:10" r="36.8"/><circle transform="rotate(-22.957 440.31 153.118)" cx="440.4" cy="153.1" style="fill:#fff;stroke:#263238;stroke-miterlimit:10" r="31.3"/><path class="st2" d="m450 133.1-9.6 20h13.8"/><path class="st5" d="M443.9 153.1c0 1.9-1.6 3.5-3.5 3.5s-3.5-1.6-3.5-3.5 1.6-3.5 3.5-3.5 3.5 1.6 3.5 3.5z"/></g><g class="st1"><path class="st4" d="m241.2 248.3-4.7-6.9s.9-11.1-.1-12.8c-1.1-1.7-18.2-3.7-19.1-2.4-1 1.3 2.6 2.4 2.6 2.4s-2.4 1.1-2.2 2.3c.4 1.8 3.5 2 3.5 2s-2.5 1.7-2.2 2.7c.2.8 2.7 1.5 2.7 1.5s-2.5 1.1-.5 2.6c2 1.4 3.8 3 3.8 3s-1.4 3.1 2.4 5.7 10.5 7.5 10.5 7.5l3.3-7.6z"/><path class="st11" d="m217.8 221.5-3.8-.3v1.2l3 1.7c.1 0 .8-2.9.8-2.6z"/><path class="st4" d="M232.7 229.2c-.2 0-.3 0-.5-.1l-15-4.7c-.8-.2-1.2-1.1-1-1.9.3-.8 1.1-1.2 1.9-1l15 4.7c.8.3 1.2 1.1 1 1.9-.2.7-.8 1.1-1.4 1.1z"/><path class="st11" d="M240.5 232.1c-.2 0-.4 0-.7-.1l-7.8-2.4c-1.1-.3-1.6-1.5-1.3-2.5.3-1.1 1.5-1.6 2.5-1.3l7.8 2.4c1.1.3 1.6 1.5 1.3 2.5-.2.9-1 1.4-1.8 1.4z"/><path class="st4" d="M234.3 234.4s-1.4-4-2.4-6c-1.1-2-3.1-3.7-3.9-5.7-.8-2-3 1.1-2.2 2.6.8 1.5 2.6 3.7 2.6 4.7s.3 1.7-.9 5-1.8 7.1.8 9.8"/><path class="st8" d="m219.8 228.6 8.6 1.5M221.1 232.9c1-.3 6.4 2.2 6.4 2.2M221.7 237.2l4.4 1.5"/><path class="st12" d="M301.3 235s-2.6-1.5-3.7 2.5-4.4 11.2-5.9 12.7L275.9 266s-6.2-4.8-7.6-3c-1.5 1.8-2.4 2.1-2.4 2.1l-24.7-19.3-9.1 13.8s33.5 30.6 36.3 31.5c2.8.9 4.8.6 5.8.1s19.4-14.4 19.4-14.4 11.2-36.2 12.2-37.5c.8-1.3-4.5-4.3-4.5-4.3z"/><path class="st13" d="M268.2 266.1s5 5.8 5 13.1M276.2 268.4s1.5 3.8-.8 12.3"/><path class="st11" d="M312.3 190.3s-10.9-7.1-9.6-13.9c1.3-6.7 25.7-12.2 39.7-7.6 14 4.5 16.9 25.6 15 38.5-1.9 13-3 42.5-3 42.5l-47.6 1.4s4.4-34.6 5.4-45.6c.9-10.8.1-15.3.1-15.3zM287.9 381c1 10.3 2.9 55.9 4 62.7h49.5c-.1-7.8-.2-60.3.9-64.6 1.4-5.4 3.4-23.3 1.2-33.6s-4.8-15.2-4.8-15.2l-51.4-.1.1 4.2c.1.1-.9 31.9.5 46.6z"/><path d="M298.9 350c2.1 1.4 4.1 2.4 4.1 4.4 1 18.1 5 68.8 6.4 87" style="fill:none;stroke:#4c4c4c;stroke-linecap:round;stroke-linejoin:round;stroke-miterlimit:10"/><path class="st4" d="m313.6 234.3 25.1.9s-20.2 31-20 48.1c.2 17.1 3.6 52.4 3.6 52.4s-11 8.7-22.5 7.1c-1.2-.2-1.9-10.4-1.9-10.4s-.7 9.9-1.6 9.8c-6.4-1.1-8.9-7.8-8.9-7.8l1.3-34.2s0-22.4 2.5-28.8c2.5-6.4 19.4-35 19.4-35l3-2.1z"/><path class="st8" d="M312.7 254.1s-7.8 16.1-10.6 25.6-4.1 52.7-4.1 52.7"/><path class="st12" d="M335.7 235s-17.6 26.3-21 35.7c-3.4 9.5-5.7 45.7-5.2 61 .5 15.4 5.3 32.3 5.3 32.3s20.2 4.1 42.7-2.9c0 0-6.2-27.3-9.1-36.2-2.9-8.9-4.2-17.9-4.2-17.9s20.2-64.5 20.1-65.5c0-1-.4-2-2.4-2.6-2-.6-26.2-3.9-26.2-3.9z"/><path class="st12" d="m319.6 335.5 26.1-2.1.4 4.2-11.2 1.4M313.4 237.7s-21 37.1-21.5 43.8c-.5 6.7-3.6 37.6-5.3 47.3-1.7 9.8-9.2 28.7-9.2 28.7s-1.9-8.3-1.4-12c.6-3.7 8.6-24.7 9.5-29.4.9-4.7 2-21.5 1.8-28.8-.2-7.4-.7-12.7.8-18.1 1.5-5.4 13-34.2 13-34.2l16.7-.8-4.4 3.5z"/><path class="st4" d="m308.9 234.6-3.5 16 8.9-7z"/><path class="st4" d="m319.6 226.9-10.7 7.7 4 10.6-.2 8.9 12.1-18z"/><path class="st4" d="M318.9 222.7s-2 14.9-2.7 18.9c-.6 4-3.6 12.5-3.6 12.5s19.1-18.4 20-19.9c.9-1.5 4.2-16.3 4.2-16.3s-12.2 4.6-17.9 4.8z"/><path class="st11" d="M318.4 226.8c2.6 1.6 4.6 1.6 7.6 1.2 3-.5 7.1-3.3 9.9-5.5.6-2.6 1.1-4.6 1.1-4.6s-12.3 4.6-18 4.7c-.1.1-.3 1.8-.6 4.2z"/><path class="st4" d="m325 177.3-14 11.1s-1.4 10.7-1.9 18.2 2.6 12.8 6.7 16.4c4.1 3.6 6.3 3.8 10.3 3.2 4-.6 9.8-5.3 11.9-7.3s6.2-8.1 6.2-8.1 3.2.6 4.2-.9c.9-1.5 1.2-2.3 1.2-2.3s-13.4-7.5-18.9-17.1-5.7-13.2-5.7-13.2z"/><path class="st8" d="M320.7 197s-.4 3-1.4 4.5c-.9 1.5-4.6 2.4-2.6 4 2 1.7 5.3 1.6 5.3 1.6M316.6 210.1s7.5 3.3 12.4-1.1"/><path class="st8" d="M319.1 211.2s1.1 4.2 3.6 3.4c2.5-.8 4.6-4.1 4.6-4.1s-3.2.6-8.2.7z"/><path class="st3" d="M330.1 199c0 1.1-.4 2-1.1 2-.6 0-1.1-.9-1.2-2 0-1.1.4-2 1.1-2 .7 0 1.2.9 1.2 2zM318.3 197.6c0 1.1-.4 2-1.1 2-.6 0-1.1-.9-1.2-2 0-1.1.4-2 1.1-2 .7 0 1.2.9 1.2 2z"/><path class="st8" d="M314.3 193s2.6-2.8 5.7.1M325.8 193.7s5.6-2.2 8 2.7"/><path class="st4" d="m322.6 238.9-9.9 15.2 14.6-7.9z"/><path class="st4" d="m339.4 225.8-16.8 13.1 4.9 13.8 16.1-18.6zM319 303.8s-2.7-.6-6.4-2.8c-3.7-2.2-7.7-1.4-11.1-1.3-3.3.1-5.7.8-5.3 2.2.4 1.3 3.7 1.2 4.7 1.2s2.7 1.6 2.7 1.6l-8.4 2s-2.6 1.8-.6 3.7c2.1 1.9 2.4 1.5 2.4 1.5s3.2 4.9 6.5 5.2c3.4.2 17-3.2 17-3.2l-1.5-10.1z"/><path class="st12" d="M342.7 265.4c.4 2 2.6 31.9 2.6 31.9l-27.6 6.5 1.5 15.7s49.3-5.8 50.3-8.8c.9-3-2.3-55.5-2.1-58.5.2-3 4.3-13.2-7.7-13.2"/><path class="st13" d="M347.3 260.4s8.1-10.4 16.9-10M347.3 264.2s6.9-3.8 13.8-3.8"/></g><g class="st1"><path class="st15" d="M39.1 443.7V385c0-1-.8-1.8-1.8-1.8h-7.2c-1 0-1.8.8-1.8 1.8v58.7h10.8z"/><path class="st11" d="M30.2 443.7V385c0-1-.8-1.8-1.8-1.8h-7.2c-1 0-1.8.8-1.8 1.8v58.7h10.8zM34.2 443.7h128.5c-1.1-2.4-2.5-4.5-4.4-5.7-5.8-3.7-61.3-12.3-61.3-12.3l-57.7-.9-2.8.9s-3.1 4.3-2.8 6.4c.3 1.1.4 6.4.5 11.6z"/><path class="st4" d="M86.6 314.4s-13.5 7.7-18.1 12c-4.6 4.3-12.3 18.4-12.9 27-.6 8.6-7.4 41.4-7.4 41.4s-13.8 27-11.7 31c2.1 4 58.9 0 60.4 0s-1.5-16.9-1.5-16.9 21.5-33.1 22.4-42c.9-8.9-5.5-33.1-6.7-38.6-1.2-5.6-21.8-15.1-24.5-13.9z"/><path class="st8" d="M76 361.2s10.7 10.2 15.2 13.6M70.9 369.1s19.8 6.8 24.9 7.3"/><path class="st4" d="M128.6 280s1.5 11.3 1.2 14.7c-.3 3.4-3.4 15-4.3 17.5-.9 2.5-1.8 5.2-5.2 4.9-3.4-.3-5.5-1.8-5.5-1.8l-3.4 11.3-23.3-13.5 3.1-6.1s-3.4-5.5-4.3-14.7c-.9-9.2 4.3-19.6 11-23.6s18.4-2.5 21.8.3c3.4 2.8 8.9 11 8.9 11z"/><path class="st4" d="M86.9 308.6c1.2.3 27.6 12.3 27.9 15.3.3 3.1 1.5 12.6 1.5 12.6s-8-7.1-17.5-12.3c-9.5-5.2-14.1-8.9-14.1-8.9l2.2-6.7z"/><path class="st12" d="M110.2 254.9s8-3.4 14.4-1.8c6.4 1.5 8.9 8.9 8.9 15s-3.4 13.5-4.6 13.8c-1.2.3-4.3-14.4-10.1-18.7-5.8-4.3-8.6-8.3-8.6-8.3z"/><path class="st12" d="M100.4 256.7s12.6-6.7 23.6 2.8c11 9.5 7.4 19 4.9 22.4-2.5 3.4-2.5 9.8-4.3 11-1.8 1.2-2.1-4.9-4.3-6.1-2.1-1.2-1.8 3.4-4.3 9.5s-13.5 15-19.3 14.4c-5.8-.6-12.9-7.1-16.9-20.5-4-13.5-1.2-27.9 6.1-32.5 7.4-4.7 14.5-1 14.5-1z"/><path class="st8" d="M124.8 262.5s2.4 7-3.8 14.9c-6.2 7.9-14.6 12.2-20.9 8.4-6.2-3.8-6.5-8.1-6.5-8.1"/><path class="st8" d="M83.6 279s-1.4 21.1 11.4 23.3c12.7 2.2 19.8-11.1 19.8-11.1"/><ellipse class="st12" cx="87.7" cy="266.5" rx="12.7" ry="12.9"/><path class="st8" d="M85 264.7s1.6-8.4 6.2-9.5M84.4 265.8s9.2-3.2 13.5.3M83.9 267.4s-4.1 2.7-2.7 8.9"/><path class="st4" d="M122.2 293.8s-.9-9.2-3.7-8.9c-2.8.3-1.5 14.1 0 16.3s3.1.3 3.1.3"/><path style="fill:#b5b5b5;stroke:#263238;stroke-linecap:round;stroke-linejoin:round;stroke-miterlimit:10" d="M381.4 431.2H96.6l9.6-24.2h211.1z"/><path class="st11" d="M99.7 436h277.8v7.6H99.7z"/><path class="st15" d="M96.6 431.2h284.8v9H96.6z"/><path class="st17" d="m203.9 410.1 8.2 13.1h-66.8l6.5-13.1z"/><path class="st17" d="m191.3 414 8.2 13.1h-66.8l6.5-13.1z"/><path class="st4" d="m109.9 342.3 12.9 59.8 50 7.1s15-6.1 16.3-6.1c1.2 0 3.4 3.7 4.3 4.9s2.5 3.1 3.1 4c.6.9.9 5.5 0 6.7-.9 1.2-2.8 4.6-4.6 4.3-1.8-.3 0-5.2 0-5.2s-10.7 4.3-14.1 4.3c-3.4 0-10.1-3.1-10.1-3.1s-57 6.4-60.4 5.2c-3.4-1.2-5.2-3.1-6.4-5.5-1.2-2.5-20.9-68.1-20.9-68.1"/><path class="st4" d="M193.3 407.9c-.9-1.2-3.1-4.9-4.3-4.9-1.2 0-16.3 6.1-16.3 6.1l-28.5-4c1.2 3.5 2.7 9.6 1.4 16.2 11.9-1.2 21.9-2.4 21.9-2.4s6.7 3.1 10.1 3.1c3.4 0 14.1-4.3 14.1-4.3s-1.8 4.9 0 5.2c1.8.3 3.7-3.1 4.6-4.3.9-1.2.6-5.8 0-6.7-.5-.9-2.1-2.7-3-4z"/></g><path style="clip-path:url(#SVGID_2_);fill:none;stroke:#263238;stroke-linecap:round;stroke-linejoin:round;stroke-miterlimit:10" d="M11.8 443.7h485.6"/><g class="st1"><path class="st4" d="M278.6 423.6h54v-1.8l-80.4-12 1.9 1.7z"/><path class="st4" d="M278.6 421.8h54L304 410.1l-49.9-.3z"/><path class="st19" d="M287.4 412.5h5l-2.6-1.1h-4.9zM297.6 416.8l2.6 1.1h5.1l-2.6-1.1zM307 415.2h-5.6l1.5.6h5.6zM295.2 415.8h5.1l-1.5-.6h-5.1zM299 414.1h5.6l-1.6-.6h-5.6zM279.7 412.5h5.1l-2.5-1h-4.9zM289.8 413.5l1.5.6h5.1l-1.6-.6zM314.6 420.7h5.8l-4.3-1.8h-5.8zM302.6 418.9l4.3 1.8h5.1l-4.3-1.8zM295 418.9l4.2 1.8h5.1l-4.3-1.8zM292.3 418.9h-9.8l3.5 1.8h10.6zM295 412.5h5.5l-2.8-1.2-5.3.1zM305.3 416.8l2.6 1.1h5.7l-2.6-1.1zM297.6 417.9l-2.6-1.1h-5l2.5 1.1zM277.1 412.5l-2.3-1-6.7.1 1.7.9zM291.1 415.2h-5l1.4.6h5.1zM282.1 413.5l1.6.6h5l-1.5-.6zM284.9 415.8l-1.4-.6h-8.4l1.2.6zM273.1 414.1h7.9l-1.5-.6h-7.7zM287.3 416.8h-9l2.2 1.1h9.4z"/><path class="st4" d="M278.6 421.8h-2L239.3 368l1.8-.6h24.5z"/><path class="st4" d="m276.6 421.8-24.4-12-13-42.4h24.4z"/></g><g class="st1"><path class="st11" d="M490.2 443.7v-65.3c0-1-.8-1.8-1.8-1.8h-23.8c-1 0-1.8.8-1.8 1.8v65.3h27.4z"/><path class="st15" d="M481.6 443.7v-65.3c0-1-.8-1.8-1.8-1.8H456c-1 0-1.8.8-1.8 1.8v65.3h27.4z"/><path class="st12" d="M386.4 339.6s-10.5 7-11.8 11.3c-1.3 4.3-9.1 28.7-9.9 30.6-.8 1.9-7.3 11.8-7.3 11.8l-34.4 1.6s-15.6-3.5-16.9-3.5-14.8 8.9-15.8 11.3c-1.1 2.4-3.5 5.9-2.4 6.7 1.1.8 2.7-.5 2.7-.5s.5 3.8 7.3 2.4c6.7-1.3 13.4-6.2 13.4-6.2s8.3 4 11.6 3.2c.1 0 .2-.1.3-.1v3.6s45.4 2.4 47.3 1.9c1.9-.5 11.8-12.6 11.8-12.6l11.6-62.3c-.3 0-.8-5.9-7.5.8z"/><path class="st15" d="m323.7 395.9-.7-.9h-.1s-15.6-3.5-16.9-3.5-14.8 8.9-15.8 11.3c-1.1 2.4-3.5 5.9-2.4 6.7 1.1.8 2.7-.5 2.7-.5s.5 3.8 7.3 2.4c6.7-1.3 13.4-6.2 13.4-6.2s8.3 4 11.6 3.2c.1 0 .2-.1.3-.1v3.6l.6-16z"/><path class="st12" d="M387.6 443.7h1.1c-.8-1.9-1.5-3.7-1.8-4.7-.9-2.9-11.2-40.1-12.3-45.6-1.1-5.4-.6-13.2 2.3-24.1 2.9-10.9 9.5-29.7 9.5-29.7l-9.5 13.3s-8 31-8 35 4 24.4 8 34.4c2.3 5.8 7.1 14.8 10.7 21.4z"/><path class="st4" d="M390.7 332.1s-9.9 15.6-12.6 26.3-4.8 20.1-4.8 29.8 10.7 37.1 12.4 40.6c1.6 3.5 19.1 4.6 24.4-12.1 5.4-16.7 7.8-64.7 4.6-75.8-3.3-11-17.3-16.1-24-8.8z"/><path d="M387.9 329.8c-.7 1-9.6 5.9-9.6 5.9l-.3 9.3 2.6-5 4.2 12.3 4.4-22.8-1.3.3z" style="fill:gray;stroke:#263238;stroke-linecap:round;stroke-linejoin:round;stroke-miterlimit:10"/><path class="st12" d="M388.9 443.7H462c-2.4-6.4-11.7-31.4-12-32.5-.3-1.3-7.9-60.2-15.9-71.1-7.9-10.9-26.4-14.9-30.4-12.6 0 0-13.2 26.8-18.2 39.3-5 12.6-8.3 37.4-8.3 41s6.9 26.4 6.9 26.4l4.8 9.5z"/><path class="st8" d="m441.5 424-31.6 9.4 2 4.1 17.5-5.4"/><path class="st4" d="M372.2 283.3s-2.5 7.8-2.6 9.5c-.1 1.6.1 3.6.1 3.6s.1 1-.4 1.8-6.5 6.6-5.8 7.7c.7 1.1 4.8 5.7 4.8 5.7s2.9 13.7 6.7 15.3c3.8 1.6 9.3.6 9.3.6l2 5.4 24-7.9-.4-7.9s2.4-14-.4-24.1c-2.7-10.1-26.7-21.1-37.3-9.7z"/><path class="st3" d="M373 299.4c-.3 1.2-.9 2-1.3 1.9-.5-.1-.6-1.1-.3-2.3s.9-2 1.3-1.9c.5.1.6 1.1.3 2.3z"/><path class="st4" d="M371.3 294.1s3.4-1 4.7 2.7M369 313.5s2.7 2.7 7.4 1"/><path class="st11" d="M387 264.1s-2.1-6-9-7.4c-6.8-1.3-11.7 8.2-10 11.9 1.7 3.7 2.5 4.5-.8 4.7-3.3.2-9.6 8.7-4 14 5.6 5.2 12.2-2.2 12.6.4.3 2.7-.6 5.1 2.6 5.2 3.2.1 8.5-.2 7.7 1.9-.8 2.1-1 6.9 2.1 7.6 3.1.7 5-3 7.1-2.5 2.2.5 5 7.4 3.2 11.2-1.9 3.8-3.2 3.8-3.4 4.7-.2.9 5.7 7.2 11.9 6.1 6.1-1.1 14.1-3.1 15-9.7.9-6.6-1-8 1.5-10.4 2.5-2.3 5-3 4.2-6.8-.7-3.8-3-5-2.3-8 .7-3.1-2.4-17.2-15.5-23.3-13.3-6.1-22.9.4-22.9.4z"/><path class="st4" d="m412.8 317.6-30.2 17.5 2.2 17.3 32.2-25.7zM333.7 399.2s-6.1-2.3-9.9-3.4c-6.6-1.9-12.8-4.7-15.1-4.1-2.3.7-13.6 8.4-13.6 8.4s-4 9.6-3.6 10.9c.3 1.3 2.8-.8 2.8-.8s-1.4 1.8-.1 3.1c1.3 1.3 2.6-1.3 2.6-1.3s-.3 3.3 1.7 3c2-.3 2.2-1.8 2.2-1.8s.1 1.8 1.8 1.8 5.3-6.9 5.3-6.9l6.3.3s5 2.6 7.9 3c3 .3 6.6-1.7 6.6-1.7l4 1 3.3-9.6-2.2-1.9z"/><path class="st8" d="M294.1 410.3s3.4-8.1 3.9-8.7c.5-.5 7.3-4.3 7.3-4.3M296.6 412.1s4.1-8.3 4.5-8.7c.4-.4 5.5-3 5.5-3M300.5 413.3s3.9-7.6 4.6-8c.7-.4 2.4-1.4 2.4-1.4"/><path class="st12" d="M421.3 339.4s-20.8 13.6-20.5 18.8c.3 5.3 2 5.3 2 5.3l-10.6 39.7s-3.3-2.6-3.6.7l-.3 3.3-55.2-9.3-5.6 13.9s22.8 8.9 38.7 14.5c15.9 5.6 32.4 11.9 34 8.9 1.7-3 34.4-51.9 36.4-55.5 2-3.6 2-10.2 2-10.2"/><path class="st8" d="M402.7 363.5s6.3-12.9 21.5-13.9"/></g></g></svg>