<svg version="1.1" id="Layer_1" xmlns="http://www.w3.org/2000/svg" xmlns:xlink="http://www.w3.org/1999/xlink" x="0" y="0" viewBox="0 0 379 379" style="enable-background:new 0 0 379 379" xml:space="preserve"><style>.st2{clip-path:url(#SVGID_2_)}.st3,.st4,.st6,.st7{fill:none;stroke:#1a2e35;stroke-linecap:round;stroke-linejoin:round;stroke-miterlimit:10}.st4,.st6,.st7{fill:#1a2e35}.st6,.st7{fill:#fff}.st7{fill:#ffaa80}.st8{fill:#4a4a4a}.st9{fill:#1a2e35;stroke:#fff;stroke-linecap:round;stroke-linejoin:round;stroke-miterlimit:10}.st12{stroke:#737373}.st12,.st13,.st15{fill:none;stroke-linecap:round;stroke-linejoin:round;stroke-miterlimit:10}.st13{stroke:#1a2e35;stroke-width:3}.st15{stroke:#ffaa80}</style><circle cx="189.5" cy="189.5" r="189.5" style="fill:#fff"/><defs><circle id="SVGID_1_" cx="189.5" cy="189.5" r="171.2"/></defs><clipPath id="SVGID_2_"><use xlink:href="#SVGID_1_" style="overflow:visible"/></clipPath><path style="clip-path:url(#SVGID_2_);fill:#ffe2d7" d="M-234.7-52.6h754.3v754.3h-754.3z"/><g class="st2"><path class="st3" d="M-118.7 277h-40c-2.3 0-4.1-1.8-4.1-4.1v-40c0-2.3 1.8-4.1 4.1-4.1h40c2.3 0 4.1 1.8 4.1 4.1v40c0 2.3-1.9 4.1-4.1 4.1zM-66.4 277h-40c-2.3 0-4.1-1.8-4.1-4.1v-40c0-2.3 1.8-4.1 4.1-4.1h40c2.3 0 4.1 1.8 4.1 4.1v40c0 2.3-1.8 4.1-4.1 4.1zM-14 277h-40c-2.3 0-4.1-1.8-4.1-4.1v-40c0-2.3 1.8-4.1 4.1-4.1h40c2.3 0 4.1 1.8 4.1 4.1v40c0 2.3-1.8 4.1-4.1 4.1zM38.3 277h-40c-2.3 0-4.1-1.8-4.1-4.1v-40c0-2.3 1.8-4.1 4.1-4.1h40c2.3 0 4.1 1.8 4.1 4.1v40c.1 2.3-1.8 4.1-4.1 4.1zM90.7 277h-40c-2.3 0-4.1-1.8-4.1-4.1v-40c0-2.3 1.8-4.1 4.1-4.1h40c2.3 0 4.1 1.8 4.1 4.1v40c0 2.3-1.8 4.1-4.1 4.1zM143.1 277h-40c-2.3 0-4.1-1.8-4.1-4.1v-40c0-2.3 1.8-4.1 4.1-4.1h40c2.3 0 4.1 1.8 4.1 4.1v40c0 2.3-1.9 4.1-4.1 4.1zM195.4 277h-40c-2.3 0-4.1-1.8-4.1-4.1v-40c0-2.3 1.8-4.1 4.1-4.1h40c2.3 0 4.1 1.8 4.1 4.1v40c0 2.3-1.8 4.1-4.1 4.1zM247.8 277h-40c-2.3 0-4.1-1.8-4.1-4.1v-40c0-2.3 1.8-4.1 4.1-4.1h40c2.3 0 4.1 1.8 4.1 4.1v40c0 2.3-1.8 4.1-4.1 4.1zM300.1 277h-40c-2.3 0-4.1-1.8-4.1-4.1v-40c0-2.3 1.8-4.1 4.1-4.1h40c2.3 0 4.1 1.8 4.1 4.1v40c.1 2.3-1.8 4.1-4.1 4.1zM352.5 277h-40c-2.3 0-4.1-1.8-4.1-4.1v-40c0-2.3 1.8-4.1 4.1-4.1h40c2.3 0 4.1 1.8 4.1 4.1v40c0 2.3-1.8 4.1-4.1 4.1zM404.9 277h-40c-2.3 0-4.1-1.8-4.1-4.1v-40c0-2.3 1.8-4.1 4.1-4.1h40c2.3 0 4.1 1.8 4.1 4.1v40c0 2.3-1.9 4.1-4.1 4.1zM457.2 277h-40c-2.3 0-4.1-1.8-4.1-4.1v-40c0-2.3 1.8-4.1 4.1-4.1h40c2.3 0 4.1 1.8 4.1 4.1v40c0 2.3-1.8 4.1-4.1 4.1zM-118.7 328.6h-40c-2.3 0-4.1-1.8-4.1-4.1v-40c0-2.3 1.8-4.1 4.1-4.1h40c2.3 0 4.1 1.8 4.1 4.1v40c0 2.3-1.9 4.1-4.1 4.1zM-66.4 328.6h-40c-2.3 0-4.1-1.8-4.1-4.1v-40c0-2.3 1.8-4.1 4.1-4.1h40c2.3 0 4.1 1.8 4.1 4.1v40c0 2.3-1.8 4.1-4.1 4.1zM-14 328.6h-40c-2.3 0-4.1-1.8-4.1-4.1v-40c0-2.3 1.8-4.1 4.1-4.1h40c2.3 0 4.1 1.8 4.1 4.1v40c0 2.3-1.8 4.1-4.1 4.1zM38.3 328.6h-40c-2.3 0-4.1-1.8-4.1-4.1v-40c0-2.3 1.8-4.1 4.1-4.1h40c2.3 0 4.1 1.8 4.1 4.1v40c.1 2.3-1.8 4.1-4.1 4.1zM90.7 328.6h-40c-2.3 0-4.1-1.8-4.1-4.1v-40c0-2.3 1.8-4.1 4.1-4.1h40c2.3 0 4.1 1.8 4.1 4.1v40c0 2.3-1.8 4.1-4.1 4.1zM143.1 328.6h-40c-2.3 0-4.1-1.8-4.1-4.1v-40c0-2.3 1.8-4.1 4.1-4.1h40c2.3 0 4.1 1.8 4.1 4.1v40c0 2.3-1.9 4.1-4.1 4.1zM195.4 328.6h-40c-2.3 0-4.1-1.8-4.1-4.1v-40c0-2.3 1.8-4.1 4.1-4.1h40c2.3 0 4.1 1.8 4.1 4.1v40c0 2.3-1.8 4.1-4.1 4.1zM247.8 328.6h-40c-2.3 0-4.1-1.8-4.1-4.1v-40c0-2.3 1.8-4.1 4.1-4.1h40c2.3 0 4.1 1.8 4.1 4.1v40c0 2.3-1.8 4.1-4.1 4.1zM300.1 328.6h-40c-2.3 0-4.1-1.8-4.1-4.1v-40c0-2.3 1.8-4.1 4.1-4.1h40c2.3 0 4.1 1.8 4.1 4.1v40c.1 2.3-1.8 4.1-4.1 4.1zM352.5 328.6h-40c-2.3 0-4.1-1.8-4.1-4.1v-40c0-2.3 1.8-4.1 4.1-4.1h40c2.3 0 4.1 1.8 4.1 4.1v40c0 2.3-1.8 4.1-4.1 4.1zM404.9 328.6h-40c-2.3 0-4.1-1.8-4.1-4.1v-40c0-2.3 1.8-4.1 4.1-4.1h40c2.3 0 4.1 1.8 4.1 4.1v40c0 2.3-1.9 4.1-4.1 4.1zM457.2 328.6h-40c-2.3 0-4.1-1.8-4.1-4.1v-40c0-2.3 1.8-4.1 4.1-4.1h40c2.3 0 4.1 1.8 4.1 4.1v40c0 2.3-1.8 4.1-4.1 4.1zM-118.7 380.2h-40c-2.3 0-4.1-1.8-4.1-4.1v-40c0-2.3 1.8-4.1 4.1-4.1h40c2.3 0 4.1 1.8 4.1 4.1v40c0 2.3-1.9 4.1-4.1 4.1zM-66.4 380.2h-40c-2.3 0-4.1-1.8-4.1-4.1v-40c0-2.3 1.8-4.1 4.1-4.1h40c2.3 0 4.1 1.8 4.1 4.1v40c0 2.3-1.8 4.1-4.1 4.1zM-14 380.2h-40c-2.3 0-4.1-1.8-4.1-4.1v-40c0-2.3 1.8-4.1 4.1-4.1h40c2.3 0 4.1 1.8 4.1 4.1v40c0 2.3-1.8 4.1-4.1 4.1zM38.3 380.2h-40c-2.3 0-4.1-1.8-4.1-4.1v-40c0-2.3 1.8-4.1 4.1-4.1h40c2.3 0 4.1 1.8 4.1 4.1v40c.1 2.3-1.8 4.1-4.1 4.1zM90.7 380.2h-40c-2.3 0-4.1-1.8-4.1-4.1v-40c0-2.3 1.8-4.1 4.1-4.1h40c2.3 0 4.1 1.8 4.1 4.1v40c0 2.3-1.8 4.1-4.1 4.1zM143.1 380.2h-40c-2.3 0-4.1-1.8-4.1-4.1v-40c0-2.3 1.8-4.1 4.1-4.1h40c2.3 0 4.1 1.8 4.1 4.1v40c0 2.3-1.9 4.1-4.1 4.1zM195.4 380.2h-40c-2.3 0-4.1-1.8-4.1-4.1v-40c0-2.3 1.8-4.1 4.1-4.1h40c2.3 0 4.1 1.8 4.1 4.1v40c0 2.3-1.8 4.1-4.1 4.1zM247.8 380.2h-40c-2.3 0-4.1-1.8-4.1-4.1v-40c0-2.3 1.8-4.1 4.1-4.1h40c2.3 0 4.1 1.8 4.1 4.1v40c0 2.3-1.8 4.1-4.1 4.1zM300.1 380.2h-40c-2.3 0-4.1-1.8-4.1-4.1v-40c0-2.3 1.8-4.1 4.1-4.1h40c2.3 0 4.1 1.8 4.1 4.1v40c.1 2.3-1.8 4.1-4.1 4.1zM352.5 380.2h-40c-2.3 0-4.1-1.8-4.1-4.1v-40c0-2.3 1.8-4.1 4.1-4.1h40c2.3 0 4.1 1.8 4.1 4.1v40c0 2.3-1.8 4.1-4.1 4.1zM404.9 380.2h-40c-2.3 0-4.1-1.8-4.1-4.1v-40c0-2.3 1.8-4.1 4.1-4.1h40c2.3 0 4.1 1.8 4.1 4.1v40c0 2.3-1.9 4.1-4.1 4.1zM457.2 380.2h-40c-2.3 0-4.1-1.8-4.1-4.1v-40c0-2.3 1.8-4.1 4.1-4.1h40c2.3 0 4.1 1.8 4.1 4.1v40c0 2.3-1.8 4.1-4.1 4.1zM-118.7 431.8h-40c-2.3 0-4.1-1.8-4.1-4.1v-40c0-2.3 1.8-4.1 4.1-4.1h40c2.3 0 4.1 1.8 4.1 4.1v40c0 2.3-1.9 4.1-4.1 4.1zM-66.4 431.8h-40c-2.3 0-4.1-1.8-4.1-4.1v-40c0-2.3 1.8-4.1 4.1-4.1h40c2.3 0 4.1 1.8 4.1 4.1v40c0 2.3-1.8 4.1-4.1 4.1zM-14 431.8h-40c-2.3 0-4.1-1.8-4.1-4.1v-40c0-2.3 1.8-4.1 4.1-4.1h40c2.3 0 4.1 1.8 4.1 4.1v40c0 2.3-1.8 4.1-4.1 4.1zM38.3 431.8h-40c-2.3 0-4.1-1.8-4.1-4.1v-40c0-2.3 1.8-4.1 4.1-4.1h40c2.3 0 4.1 1.8 4.1 4.1v40c.1 2.3-1.8 4.1-4.1 4.1zM90.7 431.8h-40c-2.3 0-4.1-1.8-4.1-4.1v-40c0-2.3 1.8-4.1 4.1-4.1h40c2.3 0 4.1 1.8 4.1 4.1v40c0 2.3-1.8 4.1-4.1 4.1zM143.1 431.8h-40c-2.3 0-4.1-1.8-4.1-4.1v-40c0-2.3 1.8-4.1 4.1-4.1h40c2.3 0 4.1 1.8 4.1 4.1v40c0 2.3-1.9 4.1-4.1 4.1zM195.4 431.8h-40c-2.3 0-4.1-1.8-4.1-4.1v-40c0-2.3 1.8-4.1 4.1-4.1h40c2.3 0 4.1 1.8 4.1 4.1v40c0 2.3-1.8 4.1-4.1 4.1zM247.8 431.8h-40c-2.3 0-4.1-1.8-4.1-4.1v-40c0-2.3 1.8-4.1 4.1-4.1h40c2.3 0 4.1 1.8 4.1 4.1v40c0 2.3-1.8 4.1-4.1 4.1zM300.1 431.8h-40c-2.3 0-4.1-1.8-4.1-4.1v-40c0-2.3 1.8-4.1 4.1-4.1h40c2.3 0 4.1 1.8 4.1 4.1v40c.1 2.3-1.8 4.1-4.1 4.1zM352.5 431.8h-40c-2.3 0-4.1-1.8-4.1-4.1v-40c0-2.3 1.8-4.1 4.1-4.1h40c2.3 0 4.1 1.8 4.1 4.1v40c0 2.3-1.8 4.1-4.1 4.1zM404.9 431.8h-40c-2.3 0-4.1-1.8-4.1-4.1v-40c0-2.3 1.8-4.1 4.1-4.1h40c2.3 0 4.1 1.8 4.1 4.1v40c0 2.3-1.9 4.1-4.1 4.1zM457.2 431.8h-40c-2.3 0-4.1-1.8-4.1-4.1v-40c0-2.3 1.8-4.1 4.1-4.1h40c2.3 0 4.1 1.8 4.1 4.1v40c0 2.3-1.8 4.1-4.1 4.1z"/><g id="XMLID_6_"><path id="XMLID_9_" class="st3" d="M-54.6 206.6V-26.2"/><path id="XMLID_8_" class="st4" d="M-47.5 142.6h8.3v48.2h-8.3z"/><path id="XMLID_7_" class="st4" d="M-70.1 142.6h8.3v48.2h-8.3z"/></g><path id="XMLID_5_" style="fill:none;stroke:#1a2e35;stroke-width:2;stroke-linecap:round;stroke-linejoin:round;stroke-miterlimit:10" d="M-165.4 206.6h624.6"/><g id="XMLID_1_"><path id="XMLID_4_" class="st3" d="M317.5 206.6V-26.2"/><path id="XMLID_3_" class="st4" d="M304 142.6h8.3v48.2H304z"/><path id="XMLID_2_" class="st4" d="M323.9 142.6h8.3v48.2h-8.3z"/></g></g><g class="st2"><path class="st6" d="M-157.2 514.3h-6c-.9 0-1.6-.7-1.6-1.6V502h9.1v10.7c.1.9-.6 1.6-1.5 1.6zM-74.6 514.3h-6c-.9 0-1.6-.7-1.6-1.6V502h9.1v10.7c.1.9-.6 1.6-1.5 1.6zM-67.9 498.6h-101.7l36.7-42.5h88.4z"/><path class="st6" d="M-169.6 498.6h101.2v8.3h-101.2z"/><path class="st6" d="m-68.4 498.6 23.9-42.5v8.9l-23.9 41.9z"/><path class="st4" d="M-134.5 459.6v11.2c0 4 7.8 7.2 17.3 7.2 9.6 0 17.3-3.2 17.3-7.2v-11.2h-34.6z"/><ellipse class="st6" cx="-117.2" cy="459.6" rx="17.3" ry="7.2"/><ellipse class="st7" cx="-117.2" cy="459.6" rx="8.2" ry="3.4"/><path class="st4" d="M-91.2 461.4v11.2c0 4 7.8 7.2 17.3 7.2s17.3-3.2 17.3-7.2v-11.2h-34.6z"/><ellipse class="st6" cx="-73.9" cy="461.4" rx="17.3" ry="7.2"/><ellipse class="st7" cx="-73.9" cy="461.4" rx="8.2" ry="3.4"/><path class="st4" d="M-120.7 475v11.2c0 4 7.8 7.2 17.3 7.2 9.6 0 17.3-3.2 17.3-7.2V475h-34.6z"/><ellipse class="st6" cx="-103.4" cy="475" rx="17.3" ry="7.2"/><path class="st7" d="M-95.2 475c0 1.9-3.7 3.4-8.2 3.4s-8.2-1.5-8.2-3.4 3.7-3.4 8.2-3.4 8.2 1.5 8.2 3.4z"/></g><g class="st2"><path class="st6" d="M285.1 503.2h-296l14.8-42.5h266.4zM-10.9 503.2h295.5v8.3H-10.9z"/><path class="st4" d="M125.4 457c-1.9-.9-4.1-1.3-6.2-1.3H37.7c-5.3 0-10.2 2.5-13.4 6.7-2.2 2.9-3.5 6.5-3.5 10.2v9.2c0 1.8 1.4 3.2 3.2 3.2h101.4v-28z"/><path class="st6" d="M125.4 470.6c0 7.9-.7 14.3-1.7 14.3s-1.7-6.4-1.7-14.3.7-14.3 1.7-14.3 1.7 6.4 1.7 14.3z"/><path class="st8" d="M78.5 455.7h-3.2c-1.2 9.6-1.4 20.7-1.2 29.3h3.2c-.1-8.6 0-19.9 1.2-29.3zM50.1 485v-17.1c0-4.1 1.6-9.1 2.8-12.3h-3.4c-1.2 3.4-2.6 8.1-2.6 12.3V485h3.2zM102.8 455.7h3.2V485h-3.2z"/></g><g class="st2"><path class="st6" d="M330.4 523.2v9.6l61.7 3.1c5 .2 9.2-3.7 9.2-8.8v-1.7c0-5.2-4.5-9.3-9.7-8.7l-61.2 6.5z"/><path class="st4" d="m333.5 520.7 1.5 25.1s-88-1-150.9-18.1l149.4-7z"/><path class="st6" d="m206.4 526.6-22.3 1.1C247 544.8 335 545.8 335 545.8l-.8-13.9c-52.2 4.3-104.6-1.9-127.8-5.3z"/></g><g class="st2"><path class="st9" d="M384.8 498.1c0 3.5-9.4 6.3-21.1 6.3-11.6 0-21.1-2.8-21.1-6.3s9.4-6.3 21.1-6.3c11.7 0 21.1 2.8 21.1 6.3z"/><path class="st9" d="M327.4 471.7s-.3 8.4 10.6 20.4c5.9 5.6 15.1 8.5 25.1 8.5 10.8 0 20.3-2.3 24.5-7.2 0 0 5.2-4 12.6-21.8h-72.8z"/><ellipse class="st9" cx="363.7" cy="471.7" rx="36.4" ry="10.9"/></g><g class="st2"><path class="st9" d="M-94.9 554.5c0 3.5-9.4 6.3-21.1 6.3-11.6 0-21.1-2.8-21.1-6.3s9.4-6.3 21.1-6.3c11.7 0 21.1 2.8 21.1 6.3z"/><path class="st9" d="M-152.3 528.1s-.3 8.4 10.6 20.4c5.9 5.6 15.1 8.5 25.1 8.5 10.8 0 20.3-2.3 24.5-7.2 0 0 5.2-4 12.6-21.8h-72.8z"/><ellipse class="st9" cx="-115.9" cy="528.1" rx="36.4" ry="10.9"/></g><g class="st2"><ellipse class="st6" cx="132.9" cy="610.8" rx="132" ry="69"/><ellipse class="st6" cx="132.9" cy="606.9" rx="149.3" ry="69"/><ellipse class="st6" cx="132.9" cy="603" rx="149.3" ry="69"/><ellipse cx="132.9" cy="603" rx="112.8" ry="52.2" style="fill:#fff;stroke:#1a2e35;stroke-width:.5;stroke-linecap:round;stroke-linejoin:round;stroke-miterlimit:10"/><path class="st6" d="M176.1 594s25.1-23.2 62.8-24.1c37.7-1 40.6 21.2 37.7 27-2.9 5.8-17.4 2.9-33.8 6.8s-58.2 9.2-65.3 3.7c-7.2-5.7-4.3-9.5-1.4-13.4z"/><path class="st3" d="M217.4 584.9s10.9 3.6 15.4 13.6M232.4 583.1s9.1 3.6 13.6 12.2M248.2 579.5s8.6 2.7 15.9 15.4M185.7 594s30.8-19 59.4-17.7"/><path class="st6" d="M176.5 572.9c4.2 2.5 9.5 2.1 13.6-.5 5.4-3.4 15.7-8.4 31.3-10.3 24.1-2.9 21.2-14.5 8.7-19.3-12.6-4.8-37.7-3.9-47.3 6.8-7.8 8.5-14.9 18.3-6.3 23.3z"/><path class="st3" d="M182.5 565s10-19.5 32.6-19.5"/><path class="st3" d="M193.8 552.7s9.5.9 17.2 6.3M214.7 548.2s7.7 1.8 13.1 6.8M188 559.5s8.2 2.3 10 4.5"/><path class="st6" d="M156.7 560.2s2.9-13.5-6.8-23.2-35.7-8.7-40.6-1c-4.8 7.7 18.3 11.6 18.3 22.2s10.6 20.3 20.3 16.4c9.8-3.8 8.8-14.4 8.8-14.4z"/><path class="st3" d="M135.8 535.5s-9.1-.9-17.7 4.1M139.9 543.7s-10-.9-15.9 1.8M141.7 551.8s-7.7.9-10.4 2.7"/><path class="st6" d="M110.2 572.9c-4.2 2.5-9.5 2.1-13.6-.5-5.4-3.4-15.7-8.4-31.3-10.3-24.1-2.9-21.2-14.5-8.7-19.3 12.6-4.8 37.7-3.9 47.3 6.8 7.7 8.5 14.9 18.3 6.3 23.3z"/><path class="st3" d="M68.8 548.2s13.6-4.5 21.8-3.2M84.6 550.9s7.2-2.7 14.5 0M91.4 558.6c1.4 0 7.7-1.8 13.6 0"/><path class="st6" d="M-8.4 589.2s25.1-23.2 62.8-24.1c37.7-1 40.6 21.2 37.7 27-2.9 5.8-17.4 2.9-33.8 6.8S.1 608.1-7 602.6s-4.3-9.6-1.4-13.4z"/><path class="st3" d="M.4 593.5s.5-7.3 14-15.4M16.2 588.1s1.8-6.8 13.6-15.4M33 583.5S36.1 573 45.2 569M57 568.6s-5.4 4.5-6.8 8.6"/><ellipse class="st6" cx="142" cy="582.9" rx="36.7" ry="19.8"/><ellipse class="st6" cx="142" cy="577.7" rx="39.6" ry="19.8"/><ellipse class="st4" cx="142" cy="582" rx="31.6" ry="15.5"/><path class="st4" d="M49.2 586.8v17c0 6 9.9 10.9 22.1 10.9s22.1-4.9 22.1-10.9v-17H49.2z"/><ellipse class="st6" cx="71.3" cy="586.8" rx="22.1" ry="10.9"/><ellipse class="st7" cx="71.3" cy="586.8" rx="10.5" ry="5.2"/><path class="st4" d="M14.9 604v17c0 6 9.9 10.9 22.1 10.9 12.2 0 22.1-4.9 22.1-10.9v-17H14.9z"/><ellipse class="st6" cx="37.1" cy="604" rx="22.1" ry="10.9"/><path class="st7" d="M47.6 604c0 2.9-4.7 5.2-10.5 5.2s-10.5-2.3-10.5-5.2c0-2.9 4.7-5.2 10.5-5.2s10.5 2.4 10.5 5.2z"/><path class="st4" d="M87.2 606.3v17c0 6 9.9 10.9 22.1 10.9 12.2 0 22.1-4.9 22.1-10.9v-17H87.2z"/><ellipse class="st6" cx="109.4" cy="606.3" rx="22.1" ry="10.9"/><path class="st7" d="M119.9 606.3c0 2.9-4.7 5.2-10.5 5.2s-10.5-2.3-10.5-5.2c0-2.9 4.7-5.2 10.5-5.2s10.5 2.3 10.5 5.2z"/><path class="st4" d="M177.4 607.3v17c0 6 9.9 10.9 22.1 10.9 12.2 0 22.1-4.9 22.1-10.9v-17h-44.2z"/><path class="st6" d="M221.7 607.3c0 6-9.9 10.9-22.1 10.9-12.2 0-22.1-4.9-22.1-10.9s9.9-10.9 22.1-10.9c12.2 0 22.1 4.9 22.1 10.9z"/><path class="st7" d="M210.1 607.3c0 2.9-4.7 5.2-10.5 5.2s-10.5-2.3-10.5-5.2c0-2.9 4.7-5.2 10.5-5.2 5.7 0 10.5 2.3 10.5 5.2z"/><path class="st4" d="M53.2 622.3v17c0 6 9.9 10.9 22.1 10.9 12.2 0 22.1-4.9 22.1-10.9v-17H53.2z"/><ellipse class="st6" cx="75.4" cy="622.3" rx="22.1" ry="10.9"/><ellipse class="st7" cx="75.4" cy="622.3" rx="10.5" ry="5.2"/><path class="st4" d="M133.9 616.5v17c0 6 9.9 10.9 22.1 10.9 12.2 0 22.1-4.9 22.1-10.9v-17h-44.2z"/><ellipse class="st6" cx="156" cy="616.5" rx="22.1" ry="10.9"/><ellipse class="st7" cx="156" cy="616.5" rx="10.5" ry="5.2"/><path class="st4" d="M102.8 633.1v17c0 6 9.9 10.9 22.1 10.9s22.1-4.9 22.1-10.9v-17h-44.2z"/><ellipse class="st6" cx="125" cy="633.1" rx="22.1" ry="10.9"/><ellipse class="st7" cx="125" cy="633.1" rx="10.5" ry="5.2"/></g><path style="clip-path:url(#SVGID_2_);fill:none;stroke:#1a2e35;stroke-linecap:round;stroke-linejoin:round;stroke-miterlimit:10" d="M507.5 450.9h-729.2"/><g class="st2"><path class="st4" d="M143.5 184.7S100.3 198 71 206c-29.3 8-41.6 24-45.3 29.8-3.7 5.9-43.2 79.4-43.2 79.4l68.7 41.6-17.1 92.7h221.2l9.5-106.5 5.5 23.6 84-1.7S341 286.6 331.4 261c-9.6-25.6-26.6-33.6-50.6-44.2-24-10.7-83.2-30.9-93.3-33.1-9.9-2.2-44 1-44 1z"/><path class="st12" d="m44.9 352.1 24-54.9M264.9 343l-7.8-25.2"/><path class="st6" d="m148.7 242.3 31.9 67.9 21.2-61.5z"/><path class="st7" d="m163.2 249.8 21.7 57.7-28.1 50s-4.3-39.8-13.5-74c-9.2-34.1-8.2-82.3-6.2-100l26.1 66.3z"/><path class="st7" d="M193 248.1S138.2 398.2 81.8 450.4h42.6S185 360 209 307.8c24-52.2 26.6-102.3 26.6-102.3L193 248.1z"/><path class="st6" d="M138.3 160.1s-3.6-8.3-9.9-4c-6.3 4.3-3.2 22.1 0 30 3.2 7.9 11.1 8.7 11.1 4 0-4.7-1.2-30-1.2-30zM244.4 169.7s4.6-7.8 10.3-2.6.3 22.3-3.9 29.8c-4.2 7.4-12.1 7.2-11.5 2.5.6-4.8 5.1-29.7 5.1-29.7z"/><path class="st4" d="M144.6 133.6s-1.9 68-1.9 82.6c0 14.6 4.5 37.1 23.9 48.6 19.5 11.5 36.7.4 45.6-11.5 8.9-11.9 23.6-70.3 23.6-86.1 0-15.8-1.9-45-20.4-58.9-14.6-10.9-45.6-11.9-58.7 4-9.9 11.9-12.1 21.3-12.1 21.3z"/><path class="st6" d="M137.1 123.4s-2.4 68-2.4 82.6c0 14.6 5.5 37.1 29.6 48.6s45.4.4 56.5-11.5c11.1-11.9 29.2-70.3 29.2-86.1 0-15.8-2.4-45-25.3-58.9-18-10.9-56.5-11.9-72.7 4-12.2 11.9-14.9 21.3-14.9 21.3z"/><path class="st3" d="M202.7 199.6s12.6-7.5 24.5-2M151.3 186.2c14.2-1.2 20.5 10.3 20.5 10.3"/><path class="st13" d="M179.4 181.8s-13-8.7-27.3-4.3M199.1 184.6s13-9.1 32 1.2"/><path class="st3" d="M206.2 201.6s5.1 2 12.2 0M169.9 198.8s-7.1 0-13.8-5.9M203.9 196.5s3.2-6.3 14.2-5.5M173.5 193.7s-2-8.3-8.3-9.5M175 216.2s-1.2 2.8 1.6 5.5c2.8 2.8 9.5 8.3 12.2 6.3 2.8-2 4.3-1.2 7.5-5.1 3.2-4 2.4-7.5 2.4-7.5"/><path class="st3" d="M154.5 222.1s15 11.1 27.7 13c12.6 2 31.2-8.3 31.2-8.3"/><path class="st3" d="M159.6 220.6s-7.9.8-7.9 2.8M209.8 225.3s5.1 1.2 5.1 5.1"/><path class="st7" d="M137.9 122.2s14.2 17.4 55.3 19.4c41.1 2 54.1-9.5 54.1-9.5l-1.2-5.1s.8-2.4 3.2.8c2.4 3.2 4 22.5 5.1 27.7 1.2 5.1-4.3 9.9-7.5 11.1-3.2 1.2-32 12.6-66.4 5.9-24.7-4.8-46.6-16.6-48.6-19-2-2.4-.8-20.5-.8-26.1s7.1-11.5 9.9-11.9l-3.1 6.7z"/><path class="st7" d="M251.8 144.2s-18.6-4.3-24.5 0c-5.9 4.3 0 25.7 4 24.5 3.9-1.2 12.2-1.6 20.5-24.5zM251.8 144.2s2-15 4.3-23.3c2.4-8.3 7.9 5.9 7.9 19.8 0 13.7-12.2 3.5-12.2 3.5z"/><path class="st7" d="m247.2 143 1.8 9.5 6.4-6.8-2.3-7.2zM266.9 369.3s2.8-15.2 10.4-24c7.6-8.8 40.7-8.8 55.6-6.3 14.8 2.5 26.2 19.9 23.7 34.1-2.5 14.2-10.7 29.7-14.5 36-3.8 6.3-12.3 7.9-25.6.9-13.3-6.9-49.6-40.7-49.6-40.7z"/><path class="st6" d="M197.8 424.5s71.9-1.1 97-1.1 44.2-12.3 44.2-25c0-12.8-30.4-35.2-48-37.3-17.6-2.1-48.5 18.6-74.1 26.1s-32.5 3.2-37.8 3.2c-5.3 0-14.4-1.1-22.9 2.1-8.5 3.2-17.1 17.1-20.8 22.9-3.7 5.9-14.4 13.3-12.8 18.6 1.6 5.3 23.4 13.3 33.6 13.3 10.1 0 18.6-5.3 18.6-5.3s-7.5 14.9 1.6 11.2c9.1-3.7 12.3-14.4 16-19.2 2.4-2.9 5.4-9.5 5.4-9.5z"/><path class="st4" d="M130.2 408.3v11.2c0 4 7.8 7.2 17.3 7.2s17.3-3.2 17.3-7.2v-11.2h-34.6z"/><ellipse class="st6" cx="147.5" cy="408.3" rx="17.3" ry="7.2"/><path d="M155.7 408.3c0 1.9-3.7 3.4-8.2 3.4-4.5 0-8.2-1.5-8.2-3.4s3.7-3.4 8.2-3.4c4.5 0 8.2 1.5 8.2 3.4z" style="fill:#5ae4a7;stroke:#1a2e35;stroke-linecap:round;stroke-linejoin:round;stroke-miterlimit:10"/><path class="st3" d="M197.8 424.5s1.1-8.5 0-14.9-4.8-10.7-4.8-10.7M173.5 403.4s-6 7.3-3.5 13.3c2.5 6 8.5 15.8 8.2 18-.3 2.2-3.3 7.5-3.3 7.5"/><path class="st6" d="M129.9 443.5s-12.9-9.2-12.9-13.9c0-4.7 7.9-21.8 10.7-17 2.8 4.7.3 10.7-.3 13.6-.6 2.8 2.8 7.3 2.8 7.3"/><path class="st6" d="M146.3 447.6s-10.4 1.6-14.8 0-6.9-23.7-4.7-27.5c2.2-3.8 5.4.3 6.3 4.4.9 4.1 4.7 14.8 7.6 17"/><path class="st6" d="M146.6 436.5s-12-13.9-14.8-7.9c-2.8 6 10.1 17.7 15.5 20.5 5.4 2.8 11.4-1.6 11.4-1.6"/><path class="st6" d="M165.3 442.2s-15.5-20.5-19.9-14.5c-4.4 6 8.2 19.9 13.6 22.1 5.4 2.2 13.9-7.6 13.9-7.6M143.9 361.4s16 11.6 17.6 14c1.6 2.4 1.6 23.2 1.6 26.8 0 3.6-5.6 6-8.4 4.4-2.8-1.6-4.8-17.6-5.2-22.4-.4-4.8-7.6-17.2-7.6-17.2s-1.6-6.8 2-5.6z"/><path class="st7" d="M-47.2 367.8s-6.4 0-7.2-8c-.8-8 13.2-42.4 18.4-48.8 5.2-6.4 37.6-5.6 51.2-.4C28.8 315.8 35.6 323 40 331c4.4 8 4.7 14.1 4.8 17.6.1 3.5-13.6 14.4-36.8 13.6s-55.2 5.6-55.2 5.6z"/><path class="st6" d="M18.8 333.4S84.7 349 102.7 349s34.4 1.2 37.2 4c2.8 2.8 10.4 19.6 12 24 1.6 4.4-.4 31.6-2 34.8-1.6 3.2-8.4.8-8.4.8l-1.2-5.2s-1.6 5.6-9.2 2.8c0 0-5.2 4.4-7.6 4.4h-3.6s-.8 3.2-6.4 3.2-15.6-4.4-19.2-10.4c-3.6-6-20.4-26.8-21.6-26.4-1.2.4-40.8 8.4-63.1 8.4s-51.2-4.8-58.7-17.6c-7.6-12.8 8-32.8 21.6-40.4 13.5-7.6 46.3 2 46.3 2z"/><path class="st3" d="M127.5 367.8s9.6 13.2 11.2 18.4c1.6 5.2 1.6 21.2 1.6 21.2M111.1 379.8s5.6 9.6 10 16.8c4.4 7.2 10 13.6 10 13.6M95.5 390.1s7.6 9.2 12.8 14c5.2 4.8 11.6 10.4 11.6 10.4"/></g><g class="st2"><path class="st6" d="M473.2 425.1c-31.3 18-53.2 0-53.2 0l-2.6 23.6c-1.6 14.1-1.5 28.4.2 42.4h0c1.4 11 10.7 19.3 21.9 19.3h13.8c11.4 0 21-8.5 22.4-19.9v0c1.7-14.1 1.8-28.3.2-42.4l-2.7-23z"/><ellipse class="st4" cx="446.4" cy="425.4" rx="26.4" ry="9.6"/><path class="st7" d="M435.9 429.5c-4.4-1.4-8.3-3.7-11.6-6.9-2.2-2.1-5.1-4.5-8-6-6.4-3.2-19.7-5.9-19.7-5.9s11.7-2.7 20.8-.5c9 2.1 15.4 11.2 15.4 11.2s-2.7-3.7-6.4-14.9-3.7-35.1-3.7-35.1 9 10.1 13.3 22.4c4.3 12.2 5.3 22.9 5.3 22.9s-1.1-18.6 2.1-29.3c3.2-10.6 12.2-24 12.2-24s.5 23.4-3.2 36.2c-3.7 12.8-5.3 18.6-5.3 18.6s3.2-10.1 11.2-17.6c8-7.5 27.1-13.8 27.1-13.8s-9 16.5-14.9 21.8c-5.9 5.3-11.7 11.2-11.7 11.2s6.4-4.8 17.6-4.8c11.2 0 24.5 7.5 24.5 7.5s-28.5-.2-38.9 4.7c-2.1 1-4.3 1.8-6.6 2.2l-5.8 1c-4.6.8-9.3.5-13.7-.9h0z"/><path class="st3" d="m435.8 424.4-6.6-4.6M442.9 427.9l-9.1-24.2M442.9 427.9l5-32.3M442.9 427.9l17.1-21.2M446.4 427.5l18.1-8.2"/><path class="st15" d="M428.8 466.3c0 14.2-2.2 25.6-4.9 25.6s-4.9-11.5-4.9-25.6c0-14.2 2.2-25.6 4.9-25.6s4.9 11.4 4.9 25.6z"/><ellipse class="st15" cx="446.2" cy="473.4" rx="10.9" ry="30.5"/><ellipse class="st15" cx="467.5" cy="465.7" rx="3.8" ry="26.2"/></g></svg>