<svg xmlns="http://www.w3.org/2000/svg" xmlns:xlink="http://www.w3.org/1999/xlink" viewBox="0 0 369 369" style="enable-background:new 0 0 369 369" xml:space="preserve"><circle cx="184.5" cy="184.5" r="175.8" style="fill:#f42557"/><defs><path id="a" d="m197.2-37.9-54 253.5c-3.3 15.6-.1 31.9 8.9 45.1l14 20.5c11.4 16.7 30.7 26.3 51 25.4l277.5-13.2c37.1-1.8 63.1-37.2 53.7-73.1l-2.9-11.2c-7.8-29.7-37.4-48.3-67.5-42.5l-135.4 26.2c-42.5 8.2-78.8-31-67.4-72.7l35.6-130.4c9.4-34.4-14-69.2-49.5-73.4-30-3.5-57.7 16.3-64 45.8z"/></defs><clipPath id="b"><use xlink:href="#a" style="overflow:visible"/></clipPath><circle cx="184.5" cy="184.5" r="184.5" style="clip-path:url(#b);fill:#fff"/><circle cx="184.5" cy="184.5" r="175.8" style="fill:none;stroke:#f42557;stroke-miterlimit:10"/></svg>