<svg version="1.1" id="OBJECTS" xmlns="http://www.w3.org/2000/svg" xmlns:xlink="http://www.w3.org/1999/xlink" x="0" y="0" viewBox="0 0 158.9 147.9" style="enable-background:new 0 0 158.9 147.9" xml:space="preserve"><style>.st0{fill:#2a334f}</style><defs><path id="SVGID_1_" d="M1192.3-107.6H1389v182h-196.7z"/></defs><clipPath id="SVGID_2_"><use xlink:href="#SVGID_1_" style="overflow:visible"/></clipPath><g style="clip-path:url(#SVGID_2_)"><image style="overflow:visible" width="1160" height="772" xlink:href="612F2400.jpg" transform="translate(277.499 -659.991)"/></g><path class="st0" d="M88 85.2s-9.2-14.7 22.1-29.5c40.1-18.9 28-55.7 28-55.7s30.3 33.8-29.2 68.7c0 0 37.8-12.3 39.5-49.7 0 0 21.2 28-36.1 58.7 0 0 35.7-13.5 42.8-42.2 0 0 13.5 29.3-41.8 48.2 0 0 36.4-6.5 45-34 0 0 9.7 33.7-48.8 40.2 0 0 31.3.4 46.3-18.2 0 0-2 29.7-47.4 22.9 0 0 9.2 3 21.6 2.5 0 0-15 9.6-26 2.7 0 0 4.4 6 20.4 3 0 0-9.3 12.9-25.5 2.8 0 0 1.8 2.6 11.8 5.4 0 0-4.8 4.4-17.9-1.1 0 0-.2 2.4 8.9 4.4 0 0-8.2 5.7-19-2.3-10.8-7.8 5.3-26.8 5.3-26.8z"/><path class="st0" d="M70.9 85.2s9.2-14.7-22.1-29.5C8.6 36.8 20.7 0 20.7 0S-9.6 33.8 49.9 68.7c0 0-37.8-12.3-39.5-49.7 0 0-21.2 28 36.1 58.7 0 0-35.7-13.5-42.8-42.2 0 0-13.5 29.3 41.8 48.2 0 0-36.4-6.5-45-34 0 0-9.7 33.7 48.8 40.2 0 0-31.3.4-46.3-18.2 0 0 2 29.7 47.4 22.9 0 0-9.2 3-21.6 2.5 0 0 15 9.6 26 2.7 0 0-4.4 6-20.4 3 0 0 9.3 12.9 25.5 2.8 0 0-1.8 2.6-11.8 5.4 0 0 4.8 4.4 17.9-1.1 0 0 .2 2.4-8.9 4.4 0 0 8.2 5.7 19-2.3 10.9-7.8-5.2-26.8-5.2-26.8z"/><path d="M101.7 71.8c-5.2-4.4-13.1-3.8-17.9 1l-4.4 4.4-4.6-4.6c-5.1-5.1-13.4-5.1-18.6 0-5.1 5.1-5.1 13.4 0 18.6l4.6 4.6.5.5 18.1 18.1L98 95.7l4.6-4.6c5.4-5.4 5.1-14.3-.9-19.3z" style="fill:#b22842"/><path d="M79.4 92.8c-10.5 0-19.9-3.2-26.8-8.4.5 2.5 1.7 4.8 3.6 6.7l4.6 4.6.5.5 18.1 18.1L98 95.7l4.6-4.6c1.9-1.9 3.1-4.3 3.6-6.7-6.9 5.2-16.3 8.4-26.8 8.4z" style="fill:#991c3a"/><path d="M79.4 115.7c-.3 0-.7-.1-1-.4L55.3 92.1c-3.4-3.4-4.9-8.3-3.9-13.2.3-1.7 1-3.3 1.9-4.8 3.2-4.8 8.6-7.3 14.2-6.6 3.2.4 6.2 2 8.5 4.3l3.4 3.4 3.4-3.4c2.3-2.3 5.2-3.9 8.5-4.3 5.6-.7 11 1.7 14.2 6.6.9 1.4 1.6 3.1 1.9 4.8 1 5-.5 9.8-3.9 13.2l-23.2 23.2c-.2.2-.5.4-.9.4zM67.2 70.2c-4.5-.6-8.8 1.3-11.4 5.1-.8 1.2-1.4 2.7-1.7 4.1-.8 4 .4 8 3.2 10.7l22.2 22.2 22.2-22.2c2.8-2.8 4-6.7 3.2-10.7-.3-1.5-.9-2.9-1.7-4.1-2.6-3.8-6.9-5.7-11.4-5.1-2.6.4-5 1.6-6.9 3.5l-4.4 4.4c-.5.5-1.4.5-1.9 0l-4.4-4.4c-2-1.9-4.4-3.2-7-3.5z" style="fill:#fff"/><path class="st0" d="M26.3 125.6c-.6 0-1 .2-1.3.5-.3.3-.3.8 0 1.3l4.2 10.2-1.7 4.5h-.3L21 126.8c-.2-.5-.5-.8-.8-1s-.8-.3-1.3-.3v-.1h7.4v.2zm9.5 0c-.6 0-1 .2-1.3.5-.3.3-.3.8-.1 1.3l4.2 10.2-1.8 4.5h-.2L32 130.8l-1.9 4.7-.1-.2c1-2.7 1.5-4.4 1.5-5.2 0-.4-.1-.8-.3-1.2l-.8-2c-.1-.3-.4-.6-.7-.9-.3-.2-.8-.4-1.5-.4v-.1h7.5v.1zm3.3-.2h5.7v.1c-.5 0-.9.2-1.2.6-.3.4-.7.9-1 1.7l-3.1 7.7-.1-.2c.5-1.4.9-2.7 1.3-4 .3-1.3.5-2.4.5-3.5 0-.7-.2-1.3-.6-1.6-.4-.4-.9-.6-1.5-.6v-.2zM45.2 130.6v-.1c1.9 0 3.5-.3 4.9-.9v11.1c0 .8.6 1.1 1.7 1.1v.1h-6.6v-.1c1.1 0 1.7-.4 1.7-1.1v-8.9c0-.4-.1-.7-.4-.9-.2-.2-.7-.3-1.3-.3zm3.2-2.8c-.6 0-1.1-.2-1.5-.5-.4-.3-.6-.8-.6-1.3s.2-.9.6-1.3.9-.5 1.5-.5 1.1.2 1.5.5c.4.3.6.8.6 1.3s-.2 1-.6 1.3c-.4.4-.9.5-1.5.5zM53.1 141.9v-.1c1.1 0 1.7-.4 1.7-1.1v-8.9c0-.4-.1-.7-.4-.9-.3-.2-.7-.3-1.3-.3v-.1c1.9 0 3.5-.3 4.9-.9v11.1c0 .8.6 1.1 1.7 1.1v.1h-6.6zm8.7 0v-.1c1.1 0 1.7-.4 1.7-1.1v-7.4c0-.5-.1-.9-.2-1.3-.2-.4-.4-.7-.8-.9-.4-.2-.8-.3-1.3-.3-.9 0-1.7.3-2.4 1v-.1c.4-.6 1-1 1.7-1.4.8-.4 1.6-.6 2.4-.6.4 0 .8 0 1.2.1.4.1.8.3 1.2.5.4.3.7.6 1 1.1.3.5.4 1.1.4 1.9v7.4c0 .8.6 1.1 1.7 1.1v.1h-6.6zM75.3 138.2c-.5 0-1.1-.1-1.8-.3-.6-.2-1.2-.4-1.7-.8s-.9-.8-1.2-1.3-.5-1.2-.5-1.9c0-.9.2-1.7.7-2.3.5-.6 1.1-1.1 1.9-1.5.8-.4 1.7-.6 2.6-.6v.1c-.4 0-.7.2-1.1.5-.3.3-.6.8-.8 1.4-.2.6-.3 1.4-.3 2.2 0 1 .1 1.9.3 2.5.2.6.5 1 .8 1.3s.6.4 1 .4v.3zm0 9.7c-.7 0-1.4-.1-2.2-.2s-1.5-.4-2.1-.7c-.6-.3-.8-.8-.8-1.3 0-.6.3-1.1 1-1.5.7-.3 1.5-.5 2.6-.5-.4.1-.7.3-1 .7-.3.3-.4.7-.4 1.1 0 .3.1.5.3.9.2.3.5.6 1 .9.5.3 1 .4 1.6.5v.1zm1 0v-.1c.8-.1 1.5-.3 2.1-.6s1-.7 1.2-1c.2-.4.3-.7.3-.9 0-.3-.1-.6-.3-.8-.2-.3-.5-.5-1-.7-.5-.2-1.6-.4-3.3-.6-1.7-.2-2.8-.4-3.4-.6s-1-.5-1.2-.8c-.3-.3-.4-.7-.4-1.2 0-.9.5-1.7 1.6-2.3l.1.1c-.1.1-.3.2-.3.3s-.1.3-.1.4c0 .2.1.4.3.6.2.2.4.3.7.4s.7.2 1.1.2 1 .1 1.8.2 1.3.1 1.5.1c1.1.1 2.1.3 2.9.5s1.4.6 1.8 1c.5.5.7 1 .7 1.8 0 1.2-.5 2.1-1.6 2.8-1.1.7-2.6 1.1-4.5 1.2zm0-9.7v-.1c.7 0 1.2-.4 1.6-1.1.4-.7.6-1.7.6-3.1 0-.5 0-1-.1-1.5s-.2-1-.4-1.4c-.2-.4-.5-.7-.8-.9s-.6-.3-.9-.3v-.1c1 0 1.9.2 2.7.6s1.4.9 1.9 1.5.7 1.4.7 2.3c0 .9-.3 1.7-.8 2.4s-1.2 1.2-2.1 1.4c-.8.1-1.6.3-2.4.3zm1.3-9c.1-.6.3-1 .6-1.5s.7-.8 1.1-1c.4-.2.8-.3 1.2-.3.6 0 1.1.1 1.4.4s.5.7.5 1.2-.2.9-.5 1.1-.7.4-1.1.4c0-.5-.1-.8-.4-1.1s-.6-.4-.9-.4c-.4 0-.8.1-1.1.3-.3.3-.6.6-.8.9zM89 141.9h-5.1v-.1c1.2 0 1.8-.4 1.8-1.2v-13.7c0-.8-.6-1.3-1.8-1.3v-.1h6.9v.1c-1.2 0-1.8.4-1.8 1.3v15zm1.2 0v-.1c1.4 0 2.6-.2 3.4-.4s1.5-.7 2.1-1.3c.5-.6 1-1.6 1.4-3h.2l-.1 4.8h-7zM104.9 129.6v.1c-1 .1-1.6.7-2 1.7-.4 1-.6 2.5-.6 4.4 0 4 .9 6 2.6 6.2v.1c-.7 0-1.4-.2-2.1-.4-.7-.3-1.4-.7-1.9-1.2-.6-.5-1-1.2-1.4-2-.3-.8-.5-1.7-.5-2.6 0-.7.1-1.5.4-2.2.2-.7.6-1.4 1.1-2s1.2-1.1 1.9-1.5c.8-.4 1.6-.6 2.5-.6zm1 0c.7 0 1.4.1 2.1.4.7.3 1.3.7 1.9 1.2.6.5 1 1.2 1.4 2s.5 1.7.5 2.6c0 1-.2 1.8-.5 2.6s-.8 1.5-1.4 2c-.6.5-1.2 1-1.9 1.2-.7.3-1.4.4-2.1.4 1.8-.2 2.6-2.2 2.6-6.2 0-1.9-.2-3.4-.6-4.4s-1.1-1.6-2-1.7v-.1zM119.2 141.9l-5.4-11.1c-.1-.3-.3-.5-.5-.6-.2-.1-.5-.2-.9-.2v-.1h5.8v.1c-.4 0-.7.1-.8.4-.1.2-.1.5 0 .9l3.5 7.5-1.6 3.1h-.1zm2.9-5.3-.1-.2c.3-.7.6-1.5.8-2.3.3-.9.4-1.6.4-2.1 0-.4-.1-.8-.3-1.2-.2-.3-.5-.6-.8-.7-.3-.1-.7-.2-1-.2v-.1h5.3v.1c-.3 0-.5 0-.8.1-.2.1-.5.4-.7.8l-2.8 5.8zM133 142.1c-.8 0-1.6-.1-2.3-.4-.7-.3-1.4-.7-2-1.2-.6-.5-1.1-1.2-1.4-2-.3-.8-.5-1.7-.5-2.6 0-1 .2-1.8.5-2.6s.8-1.4 1.4-2c.6-.5 1.2-.9 1.9-1.2.7-.3 1.4-.4 2.1-.4v.1c-.6.1-1.1.3-1.5.8-.4.5-.6 1.1-.8 1.9-.2.8-.3 1.9-.3 3.3 0 .6.1 1.3.2 1.9s.4 1.2.7 1.8.8 1 1.3 1.3c.5.3 1.2.5 1.9.5 1.4 0 2.6-.5 3.7-1.5v.1c-.5.6-1.2 1.2-2.1 1.6s-1.8.6-2.8.6zm-1.3-7.1v-.1c1.1 0 1.9-.1 2.5-.2s1-.3 1.2-.6c.2-.3.4-.8.4-1.5 0-.5-.1-1-.3-1.5-.2-.5-.5-.8-.8-1-.3-.2-.7-.3-1-.4v-.1c.7 0 1.4.1 2 .4.6.2 1.1.6 1.5 1 .4.4.7.9.9 1.4.2.5.3 1 .3 1.5s0 .9-.1 1.3h-6.6z"/></svg>