<svg version="1.1" id="Layer_1" xmlns="http://www.w3.org/2000/svg" x="0" y="0" viewBox="0 0 195.5 139.6" style="enable-background:new 0 0 195.5 139.6" xml:space="preserve"><style>.st0{fill:#fff}</style><path class="st0" d="m34.7 53.4 2.7 3.5.3.4.4.5c1.9-10.4 6.3-19.9 12.6-28-2.1 4-3 8.2-2.6 12.4-4.2 4.9-7.5 10.4-9.5 16.2l1.3 1.6c2-5.2 5-10.2 8.7-14.8 1.4 5.9 5.2 11.6 11.5 16.5-2.7 5.2-4.8 10.5-6.4 15.8l3.6 4.5c1.5-5.9 3.6-12 6.3-17.9 7.1 4.5 15.7 7.6 24.9 9.2-1.3 8.4-2.2 16.8-2.7 24.7-.7-.1-1.4-.3-2.1-.4.7.3 1.4.5 2 .8 1.9.7 3.8 1.4 5.6 2 2.2.8 4.4 1.5 6.6 2.2 9.1.4 18.4-.3 27.1-2.3.2 3 .3 5.8.3 8.6v.1c1.9.3 3.7.5 5.5.8v-2.3c0-2.8-.1-5.6-.3-8.6 5.7-1.7 11.1-3.9 16.1-6.7 4.2-2.3 7.7-4.9 10.7-7.7.4 2.8.7 5.6.7 8.4 0 4.4-.6 8.4-1.7 12.1-2.2 2-4.6 3.9-7.4 5.7h1.6c.4 0 .7 0 1.1-.1 1.4-1 2.6-2.1 3.8-3.2-.4 1.1-.9 2.1-1.4 3h.1c.4 0 .7-.1 1.1-.1 1.6-.2 3.2-.4 4.7-.6 7.9-11.3 12.5-25 12.5-39.8 0-38.5-31.3-69.8-69.8-69.8C89.5 0 77.2 3.6 66.8 9.9l1.3.1-10.4 6.4c-11.2 9.4-19.4 22.3-23 37zM53.9 26c1.5-1.6 3-3.2 4.7-4.7 4.1-2.7 9-4.7 14.3-5.7-2.7 3.3-3.8 6.9-3.5 10.5-7.4 3.6-13.9 8.3-19.1 13.7-.5-4.7.8-9.4 3.6-13.8zm7.8 32.6c-6.1-4.7-9.8-10.2-11.1-15.9C55.9 37 62.3 32 69.6 28c.8 3.6 3.2 7.1 7 10.1-5.7 6.2-10.8 13.2-14.9 20.5zM89 69.8c-8.8-1.5-17.1-4.4-23.9-8.8 3.8-7.5 8.4-14.8 13.7-21.4 4.3 2.8 9.6 4.6 15.2 5.6-2 7.8-3.7 16.2-5 24.6zm7.9-24.2c5.7.6 11.7.3 17.2-.9 2.5 7.7 4.7 16 6.5 24.3-8.7 2-18.1 2.4-27 1.4.9-8.5 2-16.9 3.3-24.8zm-5.6 53.2c.3-7.9 1-16.3 1.8-24.8 9.4 1 19.1.6 28.1-1.5 1.6 8.3 2.8 16.7 3.5 24.5-10.7 2.4-22.2 3-33.4 1.8zM116.9 44c2.9-.9 5.7-2 8.2-3.4 2.1-1.2 3.9-2.5 5.4-3.9 6.1 5.9 11.5 12.6 15.9 19.7-2.4 2.2-5.2 4.3-8.5 6.2-3.9 2.2-8.3 4-12.9 5.3-2.2-8.3-4.9-16.4-8.1-23.9zm34.7-17.7c1.6 2.6 2.7 5.3 3.2 8.1-5.2-4.9-11.6-8.9-18.9-11.7-.7-3.6-2.9-7.1-6.6-10.2 3 .3 5.8 1 8.4 2 5.1 3.2 9.8 7.2 13.9 11.8zm3.6 11c.3 5.7-1.8 11.4-6.2 16.5-4.6-6.8-10.3-13.2-16.8-18.8 2.8-3.2 4.1-6.9 4-10.5 7.3 3.3 13.8 7.6 19 12.8zm-9 51.7c-4.9 2.8-10.3 4.9-15.9 6.6-.8-7.8-2.3-16-4.3-24.3 4.8-1.4 9.3-3.2 13.4-5.6 3.5-1.9 6.4-4.1 8.9-6.4 4 7.2 7 14.7 8.5 22-3 2.8-6.5 5.4-10.6 7.7zm4.6-32.3c4.6-5.3 6.8-11.2 6.5-17.1 3.9 4.4 6.9 9.2 8.9 14.5.5 2.1.9 4.3 1.3 6.5-.4 6.1-2.9 12.2-7.7 17.7-1.6-7.4-4.7-14.7-9-21.6zM161 99.6c-.5.7-1.1 1.5-1.7 2.2 1.2-3.7 1.8-7.8 1.8-12.2 0-2.8-.2-5.5-.7-8.3 4.4-5 6.9-10.6 7.6-16.2.1 1.6.2 3.1.2 4.7 0 10.7-2.7 20.9-7.2 29.8zm2.4-54.2c-1.8-3.2-3.9-6.1-6.5-8.9-.4-2.2-1.2-4.4-2.3-6.5 3.6 4.7 6.6 9.8 8.8 15.4zm-58.3-28.7c.1 0 .1.1.2.1 7.7-3.3 15-4.8 21.5-4.6 3.4 2.8 5.4 6 6 9.2-8.1-2.7-17.2-4-26.9-3.7v.2c9.7.2 18.9 2.1 27 5.2.1 3.3-1.1 6.5-3.6 9.5-7.2-5.7-15.3-10.4-23.8-13.7 0 .1-.1.1-.2.2 8.1 3.7 15.7 8.9 22.5 15-1.4 1.3-3 2.5-4.9 3.6-2.3 1.3-4.8 2.3-7.4 3.1-3.5-7.9-7.4-15.1-11.5-20.9-.1 0-.2 0-.3.1 3.3 6.1 6.4 13.4 9.2 21.5-5 1.1-10.4 1.4-15.6.8 1.4-8.3 3-15.9 4.7-22.3h-.3c-2.5 6.2-4.9 13.7-7.1 21.9-5.1-.9-9.9-2.6-13.8-5.1C86.9 30 93.5 24 100.4 19.4c0 0-.1 0-.1-.1l-.1-.1c-7.6 4.1-14.7 9.7-21.1 16.2-3.5-2.7-5.6-5.9-6.4-9.2 8.1-4 17.2-6.8 26.8-8V18c-9.7.7-18.9 2.9-27 6.5-.3-3.3.8-6.6 3.2-9.5 7.3-1 15.5-.4 24.2 2 0-.1.1-.1.1-.2-8.2-2.9-16-3.9-22.9-3.4 1.4-1.4 3.2-2.8 5.3-4 2.1-1.2 4.3-2.1 6.7-2.9 3.7 1.3 7.8 4.4 12.2 9.5.1 0 .2-.1.3-.1-3.5-5.3-6.9-8.6-9.9-10.1 5-1.2 10.4-1.6 15.6-1.1-1.2 1.8-2.6 5.4-4 11.1h.3c2.3-5.5 4.5-9.1 6.4-10.8 5.5.8 10.8 2.7 14.9 5.5h2.3c-4.6-3.1-10.4-5.1-16.5-6.1h.1c8.3 1 16.1 3.6 23.2 7.4-8-2-18-.7-28.9 4.9zM97.8 4.4c-2.5.2-5 .6-7.3 1.2-.2-.1-.3-.1-.5-.1 2.5-.5 5.2-.9 7.8-1.1zM86.7 6.2c.3 0 .7.1 1 .2-2.6.8-5.1 1.9-7.4 3.2-2.3 1.3-4.3 2.8-5.9 4.4-4.1.6-7.8 1.8-11.2 3.5C70.1 12.2 78 8.3 86.7 6.2zM124.5 131.6c1.9-1.8 3.5-4.7 4.5-8.6-1.6-.2-3.2-.5-4.8-.8-1.5-.3-3-.5-4.5-.8-9.3 1.6-19 1.9-28.4.8-.2-2.5-.3-5.2-.3-8.3-1.9-.6-3.9-1.3-5.8-2 0 3.6.2 6.8.5 9.5-10.8-1.8-21-5.4-29.3-10.8-.9-3.5-1.4-7.4-1.4-11.8-.7-.3-1.3-.7-2-1l-2.2-.2c.1 3.7.6 7.1 1.5 10.2-3.3-2.6-6.1-5.4-8.3-8.3-.4-.9-.9-1.7-1.3-2.6h-1l-3.7-.6c10.5 25.4 35.5 43.3 64.6 43.3 16.3 0 31.3-5.6 43.2-15-2.2-.1-4.3-.2-6.5-.4-4.6 3-9.5 5.5-14.8 7.4zm-.3-9c-.9 5-2.4 8.4-4.2 10.3-8.5 1.9-17.6 2.4-26.3 1.4-.9-1.8-1.6-5.1-2.1-10 10.8 1.3 22.1.7 32.6-1.7zm-38.2 1c.7 4.9 1.7 8.3 3.1 10.2-1.8-.3-3.7-.7-5.5-1.2-8.3-2.5-15.9-6.6-22.4-11.9-1.7-2.2-3.1-4.8-4.1-7.7 8.2 5.2 18.3 8.8 28.9 10.6zm-39.4-19.7c1.8 2.2 4 4.3 6.6 6.2.8 2.2 1.9 4.2 3.1 6-3.8-3.7-7-7.8-9.7-12.2z"/><path class="st0" d="m188.8 77.9 2.3-4.1 3.1-5.5-21-13.4c2.4 5.2 4.1 11.2 5.2 16.8 2.2 10.7 2.6 20.2 2.6 20.2l3.9-7c3.3 11.9-1.8 21.6-14.6 26.3-1.8.7-3.7 1.2-5.8 1.7-2.7.6-5.5 1.2-8.3 1.6-1.6.2-3.3.4-5 .6h-.3c-.4 0-.7.1-1.1.1-2.1.2-4.2.3-6.3.3-1.4 0-2.8.1-4.3.1-2.8 0-5.8-.2-8.7-.4-1.8-.1-3.6-.3-5.4-.5-10.8-1.3-22.1-4-34-8.3-1.9-.7-3.8-1.4-5.7-2.2-3.3-1.3-6.6-2.7-9.9-4.3l-7.7.4c5.7 2.8 11.5 5.3 17.5 7.6 1.9.7 3.8 1.4 5.8 2.1 11.2 3.9 22.7 6.8 33.7 8.6 1.7.3 3.4.6 5.1.8 1.4.2 2.7.3 4.1.5 3.4.4 6.8.6 10 .8 2.1.1 4.2.1 6.3.1 8 0 15.4-.8 21.9-2.3 2.3-.5 4.4-1.2 6.4-1.9 18.8-7.1 21.4-21.9 10.2-38.7zM40.1 92.3l.9.1 2.9.3 6.9.7 3.4.3.9.1 6.2.6-.9-1.4-1.8-2.3-2.5-3.2-3.8-4.8-.6-.7-13.2-16.9-.2-.3-1-1.2-.1-.2-.2-.2-1.6-2-1.3 8.4-.7 4.9c-.2-.2-.4-.3-.5-.5-1.1-.9-2.3-1.8-3.3-2.8C6 50.6 3.1 30.2 25.3 22c1.8-.7 3.7-1.2 5.8-1.7 4.8-1.1 10.3-1.7 16.2-1.9 1.9-1.4 4.6-3.3 7.7-5.2-11.8-.9-22.6-.5-31.6 1.7-2.3.5-4.5 1.2-6.4 1.9-26.8 10-20.8 35.8 11.8 60.7 1.3 1 2.6 1.9 3.9 2.9l-.8 4.6-1 6.5 5.5.5 3.7.3z"/></svg>