<svg version="1.1" id="Layer_1" xmlns="http://www.w3.org/2000/svg" x="0" y="0" viewBox="0 0 328.6 204.1" style="enable-background:new 0 0 328.6 204.1" xml:space="preserve"><style>.st0,.st1,.st2,.st3,.st4,.st5,.st7{fill-rule:evenodd;clip-rule:evenodd;fill:#471b47}.st1,.st2,.st3,.st4,.st5,.st7{fill:#fff}.st2,.st3,.st4,.st5,.st7{fill:#643062}.st3,.st4,.st5,.st7{fill:#676cbf}.st4,.st5,.st7{fill:#797aed}.st5,.st7{fill:#cccfff}.st7{fill:#ccc0cc}</style><path class="st0" d="M196.9 189.9c3.9 0 7.1 3.2 7 7.1-.1 3.9-3.3 7.1-7.3 7.1-3.9 0-7.1-3.2-7-7.1.1-3.9 3.4-7.1 7.3-7.1z"/><path class="st1" d="M196.9 193.6c1.9 0 3.4 1.5 3.4 3.4s-1.6 3.4-3.5 3.4-3.4-1.5-3.4-3.4 1.6-3.4 3.5-3.4z"/><path class="st0" d="M143.4 189.9c3.9 0 7.1 3.2 7 7.1-.1 3.9-3.3 7.1-7.3 7.1-3.9 0-7.1-3.2-7-7.1.1-3.9 3.4-7.1 7.3-7.1z"/><path class="st1" d="M143.3 193.6c1.9 0 3.4 1.5 3.4 3.4s-1.6 3.4-3.5 3.4-3.4-1.5-3.4-3.4c.1-1.9 1.6-3.4 3.5-3.4z"/><path class="st0" d="M136.3 192.6h67.6c3.9 0 7.1-3.2 7.2-7.1l.1-5.7c0-.7-.6-1.3-1.3-1.3h-79.1c-.7 0-1.4.6-1.4 1.3l-.1 5.7c0 4 3.1 7.1 7 7.1z"/><path class="st2" d="M153.5 3.1h41.3c2.9 0 5.5 1.2 7.3 3.1 1.9 1.9 3 4.5 2.9 7.4l-1.4 66.3c-.1 2.9-1.3 5.5-3.2 7.4-1.9 1.9-4.6 3.1-7.5 3.1h-41.3c-2.9 0-5.5-1.2-7.3-3.1-1.9-1.9-3-4.5-2.9-7.4l1.4-66.3c.1-2.9 1.3-5.5 3.2-7.4 1.9-2 4.6-3.1 7.5-3.1zm41.1 3.4h-41.3c-1.9 0-3.7.8-5 2.1-1.3 1.3-2.1 3-2.2 5l-1.4 66.3c0 1.9.7 3.7 2 5 1.2 1.3 3 2.1 4.9 2.1H193c1.9 0 3.7-.8 5-2.1 1.3-1.3 2.1-3 2.2-5l1.4-66.3c0-1.9-.7-3.7-2-5-1.3-1.3-3-2.1-5-2.1z"/><path class="st2" d="M144.6 54.1c3.2 0 5.4 2.6 4.9 5.8-.5 3.2-3.6 5.8-6.8 5.8-3.2 0-5.4-2.6-4.9-5.8.6-3.1 3.6-5.8 6.8-5.8zM202.5 54.1c3.2 0 5.4 2.6 4.9 5.8-.5 3.2-3.6 5.8-6.8 5.8-3.2 0-5.4-2.6-4.9-5.8.5-3.1 3.6-5.8 6.8-5.8z"/><path class="st0" d="M161.5 0h25.3c2.6 0 4.7 2.1 4.7 4.8-.1 2.6-2.2 4.8-4.9 4.8h-25.3c-2.6 0-4.7-2.1-4.7-4.8.1-2.7 2.3-4.8 4.9-4.8z"/><path class="st2" d="M161.6 0H174c1.3 0 2.3 1.1 2.3 2.3 0 1.3-1.1 2.3-2.4 2.3h-12.4c-1.3 0-2.3-1.1-2.3-2.3 0-1.2 1.1-2.3 2.4-2.3z"/><path class="st0" d="M167.1 48.1h12.2c4.5 0 8.1 3.7 8 8.1l-.2 8.1h-28.4l.2-8.1c0-4.5 3.7-8.1 8.2-8.1zm2.1 2.9c-2.9 0-6.1 2.5-5.3 5.2l1.4 5.2h15.1l1.8-5.2c1-2.7-2.2-5.2-5.1-5.2h-7.9z"/><path class="st0" d="M132 60h81.8c5.3 0 9.5 4.3 9.4 9.6L220.9 176c-.1 5.3-4.5 9.6-9.8 9.6h-81.8c-5.3 0-9.5-4.3-9.4-9.6l2.2-106.4c.2-5.3 4.6-9.6 9.9-9.6z"/><path class="st2" d="M187.3 61.3h27.2c3.2 0 5.7 2.6 5.6 5.8-.1 3.2-2.7 5.8-5.9 5.8H187c-3.2 0-5.7-2.6-5.6-5.8.1-3.2 2.8-5.8 5.9-5.8z"/><path class="st3" d="M143.3 82.8h58.3c3.8 0 6.8 3.1 6.7 6.8l-2 95.9h-71.9l2-95.9c0-3.7 3.1-6.8 6.9-6.8z"/><path class="st4" d="M143.3 82.8h58.3c3.8 0 6.8 3.1 6.7 6.8l-1 48.7c-6.1 14.2-20.3 24.3-36.5 24.3s-30-10.1-35.5-24.3l1-48.7c.1-3.7 3.2-6.8 7-6.8z"/><path class="st5" d="m143.1 81.3 58.3-2.3c3.8-.2 6.9 2.8 7 6.6l.1 4.8c-.1-3.8-3.2-6.7-7-6.6L143.2 86c-3.8.2-6.8 3.3-6.7 7.1l-.1-4.8c-.1-3.7 3-6.9 6.7-7z"/><path class="st0" d="m202.2 85.9.6 3.5c.2.9-.1 1.8-.7 2.6-.6.7-1.5 1.1-2.4 1.1h-2c-1 0-1.8-.4-2.4-1.1-.6-.7-.8-1.6-.6-2.6l.7-3.5c.3-1.5 1.6-2.6 3.1-2.6h.7c1.5 0 2.8 1.1 3 2.6z"/><path class="st2" d="m200.2 85.2.4 2.6c.1.7-.1 1.3-.5 1.9-.5.5-1.1.8-1.8.8h-1.5c-.7 0-1.3-.3-1.7-.8-.4-.5-.6-1.2-.4-1.9l.5-2.6c.2-1.1 1.2-1.9 2.3-1.9h.5c1.1 0 2.1.8 2.2 1.9z"/><path class="st1" d="M172.2 93.3c4.2 0 7.6 3.4 7.5 7.7-.1 4.2-3.6 7.7-7.8 7.7-1.7 0-3.2-.5-4.4-1.4.7-1.2 2.3-2.2 4.3-2.8 2.8-.7 5.4-.1 6 1.4.2-.5.2-1.1.1-1.6-.6-2.4-4.4-3.4-8.5-2.3-1.7.5-3.2 1.2-4.4 2.1-.4-.9-.6-2-.6-3.1.1-4.3 3.6-7.7 7.8-7.7z"/><path class="st2" d="M171.5 125.6c2.2 0 4.3.9 5.7 2.4 1.4 1.5 2.3 3.5 2.3 5.7l-.1 5.6c0 .7-.3 1.3-.8 1.8s-1.1.7-1.8.7h-11.3c-.7 0-1.3-.3-1.7-.7-.4-.5-.7-1.1-.7-1.8l.1-5.6c0-2.2 1-4.3 2.5-5.7 1.5-1.5 3.6-2.4 5.8-2.4zm4.3 3.7c-1.1-1.1-2.6-1.8-4.3-1.8-1.7 0-3.3.7-4.4 1.8-1.1 1.1-1.9 2.7-1.9 4.4l-.1 5.6c0 .1.1.3.1.4.1.1.2.2.4.2h11.3c.1 0 .3-.1.4-.2.1-.1.2-.2.2-.4l.1-5.6c0-1.7-.7-3.2-1.8-4.4z"/><path class="st3" d="M166.3 141.8h9.7l-.3 13.2h-9.6z"/><path class="st1" d="M167 142.8h8.3c.4 0 .7-.3.7-.7v-2.3c0-.4-.3-.7-.7-.7H167c-.4 0-.7.3-.7.7v2.3c0 .4.3.7.7.7z"/><path class="st0" d="M130.4 204.1H30.3c-2.4 0-4.4-2-4.4-4.4V180c0-2.4 2-4.4 4.4-4.4h100.1c2.4 0 4.4 2 4.4 4.4v19.7c-.1 2.5-2 4.4-4.4 4.4z"/><path class="st2" d="M25.9 196.3V180c0-2.4 2-4.4 4.4-4.4h45.4c-.1 9.8-7.3 23.7-49.8 20.7z"/><path class="st2" d="M25.9 192h108.9v2.2H25.9z"/><path class="st4" d="M25.9 186.4h108.9v2.2H25.9zM25.9 191.2h108.9v2.2H25.9z"/><path class="st4" d="M68.4 191.1h3.9v3.3c0 1.9 1.5 3.5 3.5 3.5l9.1.1c1.9 0 3.5-1.5 3.5-3.5v-3.3h3.9v5.2c0 2.8-2.4 5.2-5.2 5.1l-13.5-.1c-2.8 0-5.2-2.4-5.1-5.2l-.1-5.1zM39.9 182.8c1.7 0 3.2 1.4 3.2 3.2v4.9c0 1.7-1.4 3.2-3.2 3.2-1.7 0-3.2-1.4-3.2-3.2V186c0-1.7 1.5-3.2 3.2-3.2zM119.4 182.8c1.7 0 3.2 1.4 3.2 3.2v4.9c0 1.7-1.4 3.2-3.2 3.2-1.7 0-3.2-1.4-3.2-3.2V186c0-1.7 1.4-3.2 3.2-3.2z"/><path class="st4" d="M40.6 184.3c1.7 0 3.2 1.4 3.2 3.2v4.9c0 1.7-1.4 3.2-3.2 3.2-1.7 0-3.2-1.4-3.2-3.2v-4.9c0-1.8 1.4-3.2 3.2-3.2zM120 184.3c1.7 0 3.2 1.4 3.2 3.2v4.9c0 1.7-1.4 3.2-3.2 3.2-1.7 0-3.2-1.4-3.2-3.2v-4.9c.1-1.8 1.5-3.2 3.2-3.2z"/><path class="st5" d="M39.7 185.1c.9 0 1.7.8 1.7 1.7v1.2c0 .9-.8 1.7-1.7 1.7-.9 0-1.7-.8-1.7-1.7v-1.2c0-.9.7-1.7 1.7-1.7zM119.3 185.1c.9 0 1.7.8 1.7 1.7v1.2c0 .9-.8 1.7-1.7 1.7-.9 0-1.7-.8-1.7-1.7v-1.2c0-.9.8-1.7 1.7-1.7z"/><path class="st2" d="M145.4 147.1H45.3c-2.4 0-4.4 2-4.4 4.4v19.7c0 2.4 2 4.4 4.4 4.4h100.1c2.4 0 4.4-2 4.4-4.4v-19.7c0-2.4-2-4.4-4.4-4.4z"/><path class="st2" d="M40.9 161.4v9.9c0 2.4 2 4.4 4.4 4.4h100.1c2.4 0 4.4-2 4.4-4.4v-9.9H40.9z"/><path class="st4" d="M40.9 161.4h108.9v2.2H40.9z"/><path class="st4" d="M55.3 165.6c1.7 0 3.1-1.4 3.1-3.2v-4.9c0-1.7-1.4-3.2-3.2-3.2-1.7 0-3.1 1.4-3.1 3.2v4.9c0 1.8 1.5 3.2 3.2 3.2zM134.8 165.6c1.7 0 3.1-1.4 3.1-3.2v-4.9c0-1.7-1.4-3.2-3.2-3.2-1.7 0-3.1 1.4-3.1 3.2v4.9c0 1.8 1.4 3.2 3.2 3.2z"/><path class="st0" d="M55.6 167c1.7 0 3.2-1.4 3.2-3.2V159c0-1.7-1.4-3.2-3.2-3.2-1.7 0-3.2 1.4-3.2 3.2v4.9c.1 1.7 1.5 3.1 3.2 3.1zM135.1 167c1.7 0 3.2-1.4 3.2-3.2V159c0-1.7-1.4-3.2-3.2-3.2-1.7 0-3.2 1.4-3.2 3.2v4.9c0 1.7 1.5 3.1 3.2 3.1z"/><path class="st2" d="M134 161.1c.9 0 1.7-.8 1.7-1.7v-1.2c0-.9-.8-1.7-1.7-1.7-.9 0-1.7.8-1.7 1.7v1.2c0 1 .8 1.7 1.7 1.7zM54.7 161.3c.9 0 1.7-.8 1.7-1.7v-1.2c0-.9-.8-1.7-1.7-1.7-.9 0-1.7.8-1.7 1.7v1.2c0 .9.8 1.7 1.7 1.7z"/><path class="st0" d="M40.9 160.3h108.9v2.2H40.9z"/><path class="st0" d="m107.3 162-3.9-.1-.1 3.3c-.1 1.9-1.7 3.4-3.6 3.4l-9.1-.3c-1.9-.1-3.4-1.7-3.4-3.6l.1-3.3-3.9-.1-.2 5.2c-.1 2.8 2.1 5.3 5 5.4l13.5.5c2.8.1 5.3-2.1 5.4-5l.2-5.4zM231.5 105.6h34.6c2.2 0 4.1 1 5.5 2.6 1.4 1.6 2.3 3.8 2.3 6.2v17.4c0 2.4-.9 4.6-2.3 6.2-1.4 1.6-3.4 2.6-5.5 2.6h-34.6c-2.2 0-4.1-1-5.5-2.6-1.4-1.6-2.3-3.8-2.3-6.2v-17.4c0-2.4.9-4.6 2.3-6.2 1.4-1.6 3.3-2.6 5.5-2.6zm34.6 3.3h-34.6c-1.3 0-2.6.6-3.5 1.6-.9 1-1.4 2.4-1.4 3.9v17.4c0 1.5.6 2.9 1.4 3.9.9 1 2.1 1.6 3.5 1.6h34.6c1.3 0 2.6-.6 3.5-1.6.9-1 1.4-2.4 1.4-3.9v-17.4c0-1.5-.6-2.9-1.4-3.9-1-1-2.2-1.6-3.5-1.6z"/><path class="st0" d="M234.6 101.4H263c2.9 0 5.4 2.4 5.4 5.4 0 2.9-2.4 5.4-5.4 5.4h-28.4c-2.9 0-5.4-2.4-5.4-5.4 0-3 2.4-5.4 5.4-5.4z"/><path class="st2" d="M234.7 101.4h13.9c1.4 0 2.6 1.2 2.6 2.6 0 1.4-1.2 2.6-2.6 2.6h-13.9c-1.4 0-2.6-1.2-2.6-2.6 0-1.5 1.2-2.6 2.6-2.6z"/><path class="st0" d="M319.6 117.7h-7.9c-.6 0-1.1.5-1.1 1.1v15.7c0 .6.5 1.1 1.1 1.1h15.7c.6 0 1.1-.5 1.1-1.1v-7.9c.1-4.8-3.9-8.9-8.9-8.9zM319.6 204.1h-7.9c-.6 0-1.1-.5-1.1-1.1v-15.7c0-.6.5-1.1 1.1-1.1h15.7c.6 0 1.1.5 1.1 1.1v7.9c.1 4.9-3.9 8.9-8.9 8.9z"/><path d="M221.1 119.4h95.8c4.9 0 8.9 4 8.9 8.9v65.6c0 4.9-4 8.9-8.9 8.9h-95.8c-4.9 0-8.9-4-8.9-8.9v-65.6c0-4.9 4-8.9 8.9-8.9z" style="fill-rule:evenodd;clip-rule:evenodd;fill:#4e254f"/><path class="st0" d="M304.6 119.4h5c4.9 0 8.9 4 8.9 8.9v65.6c0 4.9-4 8.9-8.9 8.9h-5c4.9 0 8.9-4 8.9-8.9v-65.6c0-4.9-4-8.9-8.9-8.9z"/><path class="st7" d="M302.9 119.4h5c4.9 0 8.9 4 8.9 8.9v65.6c0 4.9-4 8.9-8.9 8.9h-5c4.9 0 8.9-4 8.9-8.9v-65.6c0-4.9-4-8.9-8.9-8.9z"/><path d="M316.8 140.5v53.4c0 4.9-4 8.9-8.9 8.9h-5c4.9 0 8.9-4 8.9-8.9v-52.8c0 3.8 5 3.3 5-.6z" style="fill-rule:evenodd;clip-rule:evenodd;fill:#d6d0d6"/><path class="st7" d="M316.8 175.4v18.5c0 4.9-4 8.9-8.9 8.9h-5c4.9 0 8.9-4 8.9-8.9v-18.6c0 4.6 5 4.8 5 .1z"/><path class="st0" d="M199.5 119.4h92.8c4.9 0 8.9 4 8.9 8.9v65.6c0 4.9-4 8.9-8.9 8.9h-92.8c-4.9 0-8.9-4-8.9-8.9v-65.6c0-4.9 4-8.9 8.9-8.9z"/><path d="M301.2 167.7v26.2c0 4.9-4 8.9-8.9 8.9h-92.8c-4.9 0-8.9-4-8.9-8.9v-27.5c9.9 10.9 65.1 24.6 110.6 1.3z" style="fill-rule:evenodd;clip-rule:evenodd;fill:#2f1130"/><path class="st5" d="M212.6 119.4h11.2v83.4h-11.2v-83.4zm58.6 0h11.2v83.4h-11.2v-83.4z"/><path class="st2" d="M197.9 117.7h7.9c.6 0 1.1.5 1.1 1.1v15.7c0 .6-.5 1.1-1.1 1.1H190c-.6 0-1.1-.5-1.1-1.1v-7.9c0-4.8 4.1-8.9 9-8.9zM197.9 204.1h7.9c.6 0 1.1-.5 1.1-1.1v-15.7c0-.6-.5-1.1-1.1-1.1H190c-.6 0-1.1.5-1.1 1.1v7.9c0 4.9 4.1 8.9 9 8.9zM295.4 117.7h-7.9c-.6 0-1.1.5-1.1 1.1v15.7c0 .6.5 1.1 1.1 1.1h15.7c.6 0 1.1-.5 1.1-1.1v-7.9c0-4.8-4-8.9-8.9-8.9zM295.4 204.1h-7.9c-.6 0-1.1-.5-1.1-1.1v-15.7c0-.6.5-1.1 1.1-1.1h15.7c.6 0 1.1.5 1.1 1.1v7.9c0 4.9-4 8.9-8.9 8.9z"/><path class="st4" d="M212.3 118.1h8.6c.7 0 1.3.6 1.3 1.3v83.4c0 .7-.6 1.3-1.3 1.3h-8.6c-.7 0-1.3-.6-1.3-1.3v-83.4c0-.7.6-1.3 1.3-1.3z"/><path class="st3" d="M222.2 133.9v16.3c-.8.5-1.7.7-2.7.7h-5.9c-1 0-1.9-.3-2.7-.7v-16.3c.8-.5 1.7-.7 2.7-.7h5.9c1 0 1.9.3 2.7.7zm-2.7 2h-5.9c-.7 0-1.4.3-1.9.8s-.8 1.1-.8 1.9v7.2c0 .7.3 1.4.8 1.9s1.1.8 1.9.8h5.9c.7 0 1.4-.3 1.9-.8s.8-1.1.8-1.9v-7.2c0-.7-.3-1.4-.8-1.9s-1.1-.8-1.9-.8zM222.2 179.4v24.7H211V180c0 4.7 11.2 5.3 11.2-.6z"/><path class="st1" d="M216.6 130.2c1.2 0 2.1-1 2.1-2.1s-1-2.1-2.1-2.1-2.1 1-2.1 2.1.9 2.1 2.1 2.1zM216.6 155.1c1.2 0 2.1-1 2.1-2.1s-1-2.1-2.1-2.1-2.1 1-2.1 2.1.9 2.1 2.1 2.1z"/><circle class="st1" cx="216.6" cy="140.5" r="2.1"/><path class="st1" d="M216.6 167.5c1.2 0 2.1-1 2.1-2.1 0-1.2-1-2.1-2.1-2.1s-2.1 1-2.1 2.1c-.1 1.2.9 2.1 2.1 2.1z"/><path class="st2" d="M213.6 131.8h5.9c1.5 0 2.8.6 3.7 1.6 1 1 1.6 2.3 1.6 3.7v7.2c0 1.5-.6 2.8-1.6 3.7-1 1-2.3 1.6-3.7 1.6h-5.9c-1.5 0-2.8-.6-3.7-1.6-1-1-1.6-2.3-1.6-3.7v-7.2c0-1.5.6-2.8 1.6-3.7.9-1 2.3-1.6 3.7-1.6zm5.9 2.6h-5.9c-.7 0-1.4.3-1.9.8s-.8 1.1-.8 1.9v7.2c0 .7.3 1.4.8 1.9s1.1.8 1.9.8h5.9c.7 0 1.4-.3 1.9-.8s.8-1.1.8-1.9v-7.2c0-.7-.3-1.4-.8-1.9s-1.1-.8-1.9-.8z"/><path class="st2" d="M216.6 142c.9 0 1.6-.7 1.6-1.6v-6.9c0-.9-.7-1.6-1.6-1.6-.9 0-1.6.7-1.6 1.6v6.9c0 .9.7 1.6 1.6 1.6z"/><path class="st4" d="M270.9 118.1h8.6c.7 0 1.3.6 1.3 1.3v83.4c0 .7-.6 1.3-1.3 1.3h-8.6c-.7 0-1.3-.6-1.3-1.3v-83.4c0-.7.6-1.3 1.3-1.3z"/><path class="st1" d="M275.2 130.2c1.2 0 2.1-1 2.1-2.1s-1-2.1-2.1-2.1c-1.2 0-2.1 1-2.1 2.1s.9 2.1 2.1 2.1zM275.2 155.1c1.2 0 2.1-1 2.1-2.1s-1-2.1-2.1-2.1c-1.2 0-2.1 1-2.1 2.1s.9 2.1 2.1 2.1z"/><circle class="st1" cx="275.2" cy="140.5" r="2.1"/><path class="st1" d="M275.2 167.5c1.2 0 2.1-1 2.1-2.1 0-1.2-1-2.1-2.1-2.1-1.2 0-2.1 1-2.1 2.1 0 1.2.9 2.1 2.1 2.1z"/><path class="st3" d="M280.8 179.4v24.7h-11.2V180c0 4.7 11.2 5.3 11.2-.6zM280.8 133.9v16.3c-.8.5-1.7.7-2.7.7h-5.9c-1 0-1.9-.3-2.7-.7v-16.3c.8-.5 1.7-.7 2.7-.7h5.9c1.1 0 2 .3 2.7.7zm-2.6 2h-5.9c-.7 0-1.4.3-1.9.8s-.8 1.1-.8 1.9v7.2c0 .7.3 1.4.8 1.9s1.1.8 1.9.8h5.9c.7 0 1.4-.3 1.9-.8s.8-1.1.8-1.9v-7.2a2.732 2.732 0 0 0-2.7-2.7z"/><path class="st2" d="M272.3 131.8h5.9c1.5 0 2.8.6 3.7 1.6 1 1 1.6 2.3 1.6 3.7v7.2c0 1.5-.6 2.8-1.6 3.7-1 1-2.3 1.6-3.7 1.6h-5.9c-1.5 0-2.8-.6-3.7-1.6-1-1-1.6-2.3-1.6-3.7v-7.2c0-1.5.6-2.8 1.6-3.7.9-1 2.2-1.6 3.7-1.6zm5.9 2.6h-5.9c-.7 0-1.4.3-1.9.8s-.8 1.1-.8 1.9v7.2c0 .7.3 1.4.8 1.9s1.1.8 1.9.8h5.9c.7 0 1.4-.3 1.9-.8s.8-1.1.8-1.9v-7.2a2.732 2.732 0 0 0-2.7-2.7z"/><path class="st2" d="M275.2 142c.9 0 1.6-.7 1.6-1.6v-6.9c0-.9-.7-1.6-1.6-1.6-.9 0-1.6.7-1.6 1.6v6.9c.1.9.8 1.6 1.6 1.6zM114.8 59.2c15.6-4.1 28.2 9.7 28.2 31 0 21.2-12.6 41.8-28.2 45.9l-1.5.3c12-7.4 20.4-24.7 19.4-42.4-1-19-12.2-31.9-25.9-31.1 2.6-1.7 5.3-2.9 8-3.7z"/><path class="st0" d="M114.8 59.2c8.5-2.2 16.1.8 21.2 7.5-2.6 3.4-6 9.4-4.9 17.1-3.7-13.2-13.2-21.6-24.3-20.9 2.6-1.7 5.3-2.9 8-3.7zm16.2 65.6c-4.6 5.6-10.2 9.6-16.2 11.2l-1.5.3c6.4-3.9 11.7-10.6 15.2-18.6 0 .1-1.5 6.1 2.5 7.1z"/><path class="st2" d="M96.2 49.1c20.6 0 35.8 16.9 33.8 37.5l-4.9 50.1c-.6 5.8-5.8 10.5-11.5 10.5H59.5c-5.8 0-10-4.7-9.5-10.5l5-50.2c2-20.6 20.6-37.4 41.2-37.4z"/><path class="st0" d="m127.5 111.6-2.5 25c-.6 5.8-5.8 10.5-11.5 10.5h-54c-5.8 0-10-4.7-9.5-10.5l2.5-25h56c-1.2 12.8 17.9 10.8 19 0z"/><path class="st0" d="M84.7 64.2c15.7 0 27.4 12.9 25.8 28.6l-3.8 38.3c-.4 4.4-4.4 8-8.8 8H56.7c-4.4 0-7.7-3.6-7.2-8l3.8-38.3c1.5-15.7 15.6-28.6 31.4-28.6z"/><path class="st2" d="M98.1 37.2c4.6 0 8.3 3.8 8 8.4l-.3 5.7c-.2 4.6-4.2 8.4-8.9 8.4-4.6 0-8.3-3.8-8-8.4l.3-5.7c.3-4.6 4.3-8.4 8.9-8.4zm-.2 5.9c-2.8 0-5.1 2.3-5.3 5l-.2 3.9c-.1 2.8 2 5 4.8 5s5.1-2.3 5.3-5l.2-3.9c.1-2.8-2.1-5-4.8-5z"/><path class="st4" d="M79.8 62.8c15.7 0 27.4 12.9 25.8 28.6l-3.8 38.3c-.4 4.4-4.4 8-8.8 8H51.8c-4.4 0-7.7-3.6-7.2-8l3.8-38.3C49.9 75.6 64 62.8 79.8 62.8z"/><path class="st3" d="m104.4 103.8-2.6 25.8c-.4 4.4-4.4 8-8.8 8H51.8c-4.4 0-7.7-3.6-7.2-8l2.2-22.4c-1.3 24.5 43 23.8 57.6-3.4z"/><path class="st1" d="M77.1 70.4c2.5 0 4.3 2 4 4.6-.3 2.5-2.6 4.6-5.2 4.6-2.5 0-4.3-2-4-4.6 0-.2.1-.3.1-.5.3 1 1.2 1.6 2.4 1.6 1.6 0 3-1.3 3.2-2.9.2-1.3-.5-2.4-1.6-2.7.4-.1.7-.1 1.1-.1z"/><path class="st5" d="M60.3 71.9c2.5-1.9 5.2-2.3 6.1-.9.9 1.4-.4 4-2.9 5.8-2.5 1.9-5.2 2.3-6.1.9-.9-1.3.4-3.9 2.9-5.8z"/><path class="st1" d="M48.2 92.4h57.1v1.7H48.2z"/><path class="st0" d="m108.6 95 .7 3.5c.2.9-.1 1.8-.7 2.6-.6.7-1.4 1.1-2.4 1.1h-2c-1 0-1.8-.4-2.4-1.1-.6-.7-.8-1.6-.7-2.6l.7-3.5c.3-1.5 1.6-2.5 3.1-2.5h.7c1.4 0 2.7 1 3 2.5z"/><path class="st1" d="m106.6 94.3.5 2.6c.1.7 0 1.3-.5 1.9-.5.5-1.1.8-1.8.8h-1.5c-.7 0-1.3-.3-1.8-.8s-.6-1.2-.5-1.9l.5-2.6c.2-1.1 1.1-1.9 2.3-1.9h.5c1.1.1 2 .8 2.3 1.9z"/><path class="st0" d="M69.1 58c3.2-2 6.7-3.6 10.3-4.6 3.5-1 7.2-1.6 10.9-1.6 1.2 0 2.4.1 3.6.2 8.8.9 16.4 4.9 21.8 10.8 5.4 6 8.6 14 8.6 22.8 0 1.2-.1 2.4-.2 3.7l-1.7-.2c.1-1.2.2-2.3.2-3.5 0-8.4-3-16-8.2-21.7-5.1-5.7-12.3-9.5-20.7-10.3-1.1-.1-2.3-.2-3.5-.2-3.6 0-7.1.5-10.4 1.5-3.5 1-6.8 2.5-9.8 4.4l-.9-1.3z"/><path class="st0" d="m127.2 91 .7 3.5c.2.9-.1 1.8-.7 2.6-.6.7-1.4 1.1-2.4 1.1h-2c-1 0-1.8-.4-2.4-1.1-.6-.7-.8-1.6-.7-2.6l.7-3.5c.3-1.5 1.6-2.5 3.1-2.5h.7c1.4 0 2.7 1 3 2.5z"/><path class="st2" d="m125.2 90.3.5 2.6c.1.7 0 1.3-.5 1.9-.5.5-1.1.8-1.8.8h-1.5c-.7 0-1.3-.3-1.8-.8s-.6-1.2-.5-1.9l.5-2.6c.2-1.1 1.1-1.9 2.3-1.9h.5c1.1.1 2.1.8 2.3 1.9z"/><path class="st4" d="M252.5 52.1c-6.8 0-12.3 5.5-12.3 12.3 0 3.5 1.5 6.8 4.1 9.2l6.5 6.5c1 1 2.5 1 3.5 0l6.5-6.5 1.2-1.2c.1-.1.1-.1.1-.2 1.3-1.6 2.1-3.4 2.5-5.4 1.3-7.7-4.5-14.7-12.1-14.7zm0 17.6c-3.2 0-5.8-2.6-5.8-5.8 0-3.2 2.6-5.8 5.8-5.8s5.8 2.6 5.8 5.8c0 3.2-2.6 5.8-5.8 5.8zM286.2 100.9c2.8 0 5-2.3 5-5 0-2.8-2.3-5-5-5-2.8 0-5 2.3-5 5 0 2.8 2.3 5 5 5zM301.8 104.3c.9 0 1.7-.8 1.7-1.7 0-.9-.8-1.7-1.7-1.7-.9 0-1.7.8-1.7 1.7 0 .9.7 1.7 1.7 1.7zM18.4 145.4c1.8 0 3.3-1.5 3.3-3.3 0-1.8-1.5-3.3-3.3-3.3-1.8 0-3.3 1.5-3.3 3.3 0 1.8 1.5 3.3 3.3 3.3zM121 39.5c1.7 0 3.1-1.4 3.1-3.1 0-1.7-1.4-3.1-3.1-3.1-1.7 0-3.1 1.4-3.1 3.1 0 1.7 1.4 3.1 3.1 3.1zM26.3 159.1c.8 0 1.4-.6 1.4-1.4 0-.8-.6-1.4-1.4-1.4-.8 0-1.4.6-1.4 1.4.1.8.7 1.4 1.4 1.4z"/></svg>