<svg version="1.1" id="Layer_1" xmlns="http://www.w3.org/2000/svg" xmlns:xlink="http://www.w3.org/1999/xlink" x="0" y="0" viewBox="0 0 500 500" style="enable-background:new 0 0 500 500" xml:space="preserve"><style>.st0{fill:#824dd6}.st1{fill:#451493}.st2{fill:#671cc9}.st3{fill:#551ead}.st5{fill:#f99d00}.st6{fill:#fc0}.st9{fill:#e28b00}.st11{fill:#4b219b}.st12{fill:#d9c8fc}.st13{fill:#ebeffa}.st14{fill:#d3d7de}.st15{enable-background:new}.st16{fill:#fcce00}.st17{fill:#fdc801}.st18{fill:#98cafd}.st19{fill:#2061c4}.st20{fill:#976aef}</style><path class="st0" d="m316.1 170.5-3.2-.3v153.2l-3-.5-4.3 17.9s17.7-.5 17.7-15.5v-142c-.1-9.7-4.6-12.3-7.2-12.8z"/><path class="st1" d="m306.5 170.8-175.1-38.3c-3.3-.9-6.8-1.5-10.3-1.5-20.6 0-37.2 8.4-37.2 29s16.7 37.2 37.2 37.2c3.6 0 7.1-.5 10.3-1.5v94.5c0 6.6 4.6 12.4 11.1 13.8l158.2 36.4c8.7 1.9 17-4.8 17-13.8V184.5c-.1-6.6-4.8-12.3-11.2-13.7z"/><path class="st0" d="m271.7 195.7-.9-.3v151l-3-.5-4.3 17.7s17.7-.5 17.7-15.3V208.5c0-5.9-3.9-11.1-9.5-12.8z"/><path class="st2" d="m265.6 197-169-37.4-5.3-20c-6.4 9.9-6.5 17.5-6.5 17.5v154.2c0 6.6 4.6 12.4 11.1 13.8l163.9 38.3c8.7 1.9 17-4.8 17-13.8V210.8c0-6.6-4.7-12.4-11.2-13.8z"/><path class="st0" d="m316.1 170.5-185-40.7c-7.5-1.5-14.8-1.8-21.7-.8-8.1 1.2-14.9 4.3-19.1 10.6-4.1 6.1-3.3 10.9-2 13.8 4.9 10.9 25.7 14.2 28.6 14.7L269.4 202s6.1 1.1 6.4 10.6c0 0 4.2-14.2-4.3-16.8-.2-.1-.4-.2-.6-.2l-152.6-33.9h-.2c-5.2-.7-20.7-4.2-23.6-10.8-.3-.8-1.4-3.1 1.5-7.4 3.2-4.7 8.3-6.9 14.6-7.8 6.1-.9 12.7-.6 19.4.8l183.1 40.3h.2c.6.1 3 .8 3.9 3.5.7 2.1.8-1.5.8-3.9.5-.4.8-1 1-1.7 0-2.1-1.2-3.9-2.9-4.2z"/><path class="st3" d="m291.6 261.1-60.3-14.7c-4.7-1-9.2-.5-13.3 1.2l-.5.2c-.5.2-1 .5-1.5.8l-8.1 4.1 1.4 1.7c-2.9 3.7-4.6 8.3-4.6 13.5v1.3c0 10.3 7.2 19.3 17.3 21.5l60.5 14.7 3.5 4.4s5.3-2.6 7.2-3.6c.1-.1.3-.1.4-.2.1-.1.2-.1.2-.1 2.1-1.2 3.6-3.5 3.6-6.2v-31.6c-.2-3.3-2.5-6.3-5.8-7z"/><path class="st0" d="M280.1 311.1 213.4 295c-10.1-2.2-17.3-11.2-17.3-21.5v-1.3c0-14.1 13-24.5 26.7-21.5l60.3 14.7c3.3.7 5.7 3.7 5.7 7V304c0 4.7-4.3 8.1-8.7 7.1z"/><path class="st3" d="M229 273.7c0 5.8-4.7 10.4-10.4 10.4-5.8 0-10.4-4.7-10.4-10.4 0-5.8 4.7-10.4 10.4-10.4 5.8 0 10.4 4.7 10.4 10.4z"/><defs><path id="SVGID_1_" d="m113.8 160.6 137.1 30.5 35.6-83.8-167.6-40.5z"/></defs><clipPath id="SVGID_2_"><use xlink:href="#SVGID_1_" style="overflow:visible"/></clipPath><g style="clip-path:url(#SVGID_2_)"><path class="st5" d="M247.1 146.5c-1.5-16.3-9.4-30.2-20.5-38.9-3.6-2.8-7.5-5-11.6-6.6-1.5-.6-3-1-4.5-1.4-2.2-.6-4.5-1-6.8-1.1-1.4-.1-2.7-.1-4.1-.1h-.4c-.8 0-1.6 0-2.4.1l-2.4.3-11.3 1 .2 2.4c-17.8 8.4-29.3 29.5-27.1 52.8 1.6 17.4 10.5 32.2 22.8 40.6 2 1.4 4.1 2.6 6.2 3.6 1.4.7 2.9 1.3 4.4 1.8l3 .9.2 2.4 20.3-1.9.7-.8c21.3-6 35.8-29.1 33.3-55.1z"/><path class="st6" d="M233.4 147.8c2.7 28.9-15.4 54.2-40.6 56.6-1.4.1-2.8.2-4.2.2-4.4 0-8.7-.8-12.8-2.2-1.5-.5-3-1.1-4.4-1.8-2.1-1-4.2-2.2-6.2-3.6-12.3-8.4-21.2-23.2-22.8-40.6-2.7-28.9 15.4-54.2 40.6-56.6 2.4-.2 4.7-.2 7 0s4.6.6 6.8 1.1c1.5.4 3 .9 4.5 1.4 4.2 1.6 8.1 3.8 11.6 6.6 11.1 8.6 19 22.6 20.5 38.9z"/><g style="opacity:.31"><path d="M184.5 116c-17.3 1.6-29.9 19.1-28 39 1.9 19.9 17.5 34.7 34.8 33.1 17.3-1.6 29.9-19.1 28-39-1.9-19.9-17.5-34.8-34.8-33.1z" style="fill:#fff"/></g><path class="st9" d="M158.5 155.2c-2-21.4 11.4-40.1 30-41.9h.6c-1.6-.1-3.2-.1-4.8 0-18.6 1.8-32 20.5-30 41.9 2 21.1 18.4 36.9 36.7 35.5-16.6-1.1-30.7-16-32.5-35.5z"/><path class="st5" d="M221.6 148.9c-1.8-19.5-15.9-34.4-32.5-35.5h-.6c-18.6 1.8-32 20.5-30 41.9 1.8 19.5 15.9 34.4 32.5 35.5h.6c18.6-1.8 32-20.6 30-41.9z"/><path d="m191.8 166.5.2 5.1-6.2.2-.2-4.9c-4.4-.1-8.7-1.2-11.4-2.9l3.1-8.1c3 1.7 6.9 2.7 10.3 2.6 2.9-.1 4-.8 3.9-1.9-.1-4.1-17.1-.2-17.5-12.3-.2-5.2 3.3-9.8 10.5-11.1l-.2-5.1 6.2-.2.2 5c3.3.2 6.5 1 9 2.4l-2.9 8c-3.1-1.5-6-2.2-8.7-2.1-3 .1-4 1.1-3.9 2.2.1 3.9 17.1.1 17.5 12 .1 5.2-3.2 9.6-9.9 11.1z" style="fill:#ffd400"/></g><path class="st11" d="m344.2 275.3.1 13.1 46.1 26.8 92.6-53.5-.1-13.1-46.1-26.8"/><path class="st12" d="M426.2 233.5c5.8 3.4 15.2 3.4 21.1 0l15.4 8.9c-5.8 3.4-5.9 8.8-.1 12.2l-61.7 35.6c-5.8-3.4-15.2-3.4-21.1 0l-15.4-8.9c5.8-3.4 5.9-8.8.1-12.2l61.7-35.6zm1.1 36.4c7.6-4.4 7.7-11.6.1-16-7.6-4.4-19.9-4.4-27.6 0-7.6 4.4-7.7 11.6-.1 16 7.6 4.4 20 4.4 27.6 0"/><path class="st2" d="M482.9 248.6 390.3 302l-46.1-26.8 92.6-53.5 46.1 26.9zm-103.1 41.7c5.8-3.4 15.3-3.4 21.1 0l61.7-35.6c-5.8-3.4-5.8-8.8.1-12.2l-15.4-8.9c-5.8 3.4-15.3 3.4-21.1 0l-61.7 35.6c5.8 3.4 5.8 8.8-.1 12.2l15.4 8.9"/><path class="st13" d="m384.2 252.2 46 26.7 14.2-8.1-46.1-26.8z"/><path class="st14" d="m430.3 279 .1 13 14.1-8.1-.1-13.1z"/><path class="st1" d="M390.3 302v13.1l-46-26.8v-13z"/><path class="st11" d="m336.2 257.4.1 13.1 46.1 26.8 92.6-53.5-.1-13.1-46.1-26.7"/><path class="st12" d="M418.2 215.7c5.8 3.4 15.2 3.4 21.1 0l15.4 8.9c-5.8 3.4-5.9 8.8-.1 12.2l-61.7 35.6c-5.8-3.4-15.2-3.4-21.1 0l-15.4-8.9c5.8-3.4 5.9-8.8.1-12.2l61.7-35.6zm1.1 36.4c7.6-4.4 7.7-11.6.1-16-7.6-4.4-19.9-4.4-27.6 0-7.6 4.4-7.7 11.6-.1 16 7.6 4.4 20 4.4 27.6 0"/><path class="st2" d="m474.9 230.8-92.6 53.5-46.1-26.8 92.6-53.5 46.1 26.8zm-103.1 41.7c5.8-3.4 15.3-3.4 21.1 0l61.7-35.6c-5.8-3.4-5.8-8.8.1-12.2l-15.4-8.9c-5.8 3.4-15.3 3.4-21.1 0l-61.7 35.6c5.8 3.4 5.8 8.8-.1 12.2l15.4 8.9"/><path class="st13" d="m376.2 234.3 46 26.8 14.2-8.1-46.1-26.8z"/><path class="st14" d="m422.3 261.1.1 13.1 14.1-8.2-.1-13z"/><path class="st1" d="M382.3 284.2v13.1l-46-26.8v-13.1z"/><g class="st15"><path class="st16" d="M281.5 395.7c-6.5 3.8-10.6 8.5-12.2 13.4v-11.5c1.6-4.9 5.7-9.6 12.2-13.4 17.4-10.1 45.8-10.1 63.3 0 8.8 5.1 13.2 11.7 13.2 18.3V414c0-6.6-4.4-13.3-13.2-18.3-17.6-10.2-45.9-10.2-63.3 0zM269.2 409c-.5 1.6-.8 3.2-.8 4.8v-11.5c0-1.6.3-3.2.8-4.8v10.8c0 .3.1.5 0 .7z"/><path class="st17" d="M358 402.6v11.5c0 6.6-4.4 13.2-13 18.2-17.4 10.1-45.8 10.1-63.3 0-8.8-5.1-13.2-11.8-13.2-18.5v-11.5c0 6.7 4.4 13.4 13.2 18.5 17.5 10.1 45.9 10.1 63.3 0 8.7-5 13-11.6 13-18.2z"/><path class="st16" d="M358 414.1v-11.6 11.6z"/><path class="st5" d="M344.8 384.2c17.5 10.1 17.6 26.5.2 36.7-17.4 10.1-45.8 10.1-63.3 0s-17.6-26.5-.2-36.7c17.4-10.1 45.8-10.1 63.3 0z"/><path class="st9" d="M281.5 390.6c17.4-10.1 45.8-10.1 63.3 0 7.4 4.3 11.7 9.7 12.9 15.2 1.6-7.7-2.6-15.7-12.9-21.6-17.5-10.1-45.9-10.1-63.3 0-10.1 5.9-14.3 13.8-12.7 21.5 1.2-5.6 5.4-10.9 12.7-15.1z"/><path class="st5" d="M370.2 402.7v11.5c0 8.4-5.5 16.8-16.6 23.2-22.2 12.9-58.3 12.9-80.6 0-11.2-6.5-16.8-15-16.8-23.5v-11.5c0 8.5 5.6 17 16.8 23.5 22.3 12.9 58.4 12.9 80.6 0 11.1-6.4 16.6-14.8 16.6-23.2z"/><path class="st6" d="M353.4 379.2c22.3 12.9 22.4 33.8.3 46.7-22.2 12.9-58.3 12.9-80.6 0-22.3-12.9-22.4-33.8-.3-46.7 22.2-12.9 58.3-12.9 80.6 0zm-71.7 41.7c17.5 10.1 45.9 10.1 63.3 0s17.3-26.5-.2-36.7c-17.5-10.1-45.9-10.1-63.3 0s-17.4 26.5.2 36.7"/></g><path class="st6" d="m316.2 415.4-.5 3.6-6.6-.9.5-3.5c-4.7-.8-9.1-2.3-11.7-3.9l4.3-5.1c2.9 1.7 6.9 3.1 10.5 3.6 3.1.4 4.3.1 4.4-.7.4-2.9-18.1-3-16.9-11.6.5-3.7 4.8-6.3 12.6-6l.5-3.6 6.6.9-.5 3.5c3.4.7 6.7 1.8 9.2 3.2l-4.1 5.1c-3.1-1.6-6-2.6-8.9-2.9-3.2-.4-4.4.1-4.5.9-.4 2.7 18.1 2.9 16.9 11.4-.4 3.5-4.4 6.1-11.8 6z"/><g class="st15"><path class="st16" d="M46.7 362c-6.2 3.6-10 8-11.5 12.6v-10.8c1.5-4.6 5.4-9 11.5-12.6 16.4-9.5 43.1-9.5 59.6 0 8.3 4.8 12.4 11 12.4 17.3v10.8c0-6.2-4.2-12.5-12.4-17.3-16.5-9.5-43.2-9.5-59.6 0z"/><path class="st16" d="M35.2 374.6c-.5 1.5-.7 3-.7 4.5v-10.8c0-1.5.3-3 .7-4.5V374c0 .2.1.4 0 .6z"/><path class="st17" d="M118.8 368.6v10.8c0 6.2-4.1 12.4-12.3 17.1-16.4 9.5-43.1 9.5-59.6 0-8.3-4.8-12.5-11.1-12.4-17.4v-10.8c0 6.3 4.1 12.6 12.4 17.4 16.5 9.5 43.2 9.5 59.6 0 8.2-4.7 12.3-10.9 12.3-17.1z"/><path class="st16" d="M118.8 379.4v-10.9 10.9z"/><path class="st18" d="M106.4 351.2c16.5 9.5 16.6 25 .2 34.5-16.4 9.5-43.1 9.5-59.6 0s-16.6-25-.2-34.5c16.4-9.5 43.1-9.5 59.6 0z"/><path class="st19" d="M46.8 357.3c16.4-9.5 43.1-9.5 59.6 0 7 4 11 9.1 12.1 14.3 1.5-7.2-2.5-14.8-12.1-20.4-16.5-9.5-43.2-9.5-59.6 0-9.5 5.5-13.5 13-11.9 20.2 1.1-5.2 5-10.2 11.9-14.1z"/><path class="st5" d="M130.3 368.6v10.8c0 7.9-5.2 15.8-15.6 21.8-20.9 12.1-54.8 12.1-75.9 0-10.5-6-15.8-14.1-15.8-22.1v-10.8c0 8 5.3 16 15.8 22.1 21 12.1 55 12.1 75.9 0 10.4-6 15.6-13.9 15.6-21.8z"/><path class="st6" d="M114.5 346.5c21 12.1 21.1 31.8.2 43.9-20.9 12.1-54.8 12.1-75.9 0-21-12.1-21.1-31.8-.3-43.9 21-12.1 55-12.1 76 0zM47 385.8c16.5 9.5 43.2 9.5 59.6 0s16.3-25-.2-34.5-43.2-9.5-59.6 0-16.4 24.9.2 34.5"/></g><path class="st19" d="M79.4 380.6 79 384l-6.2-.8.4-3.3c-4.4-.8-8.5-2.2-11-3.7l4.1-4.8c2.7 1.6 6.5 2.9 9.9 3.4 3 .4 4.1.1 4.2-.6.4-2.7-17-2.8-15.9-10.9.5-3.5 4.5-5.9 11.8-5.6l.5-3.4 6.2.8-.4 3.3c3.2.7 6.3 1.7 8.7 3l-3.8 4.8c-2.9-1.5-5.7-2.4-8.4-2.8-3-.4-4.1.1-4.2.8-.4 2.6 17 2.8 15.9 10.7-.6 3.3-4.4 5.8-11.4 5.7z"/><g class="st15"><path class="st16" d="M50.2 347.9c-6.2 3.6-10 8-11.5 12.6v-10.8c1.5-4.6 5.4-9 11.5-12.6 16.4-9.5 43.1-9.5 59.6 0 8.3 4.8 12.4 11 12.4 17.3v10.8c0-6.2-4.2-12.5-12.4-17.3-16.5-9.5-43.2-9.5-59.6 0zM38.7 360.5c-.5 1.5-.7 3-.7 4.5v-10.8c0-1.5.3-3 .7-4.5v10.8z"/><path class="st17" d="M122.3 354.5v10.8c0 6.2-4.1 12.4-12.3 17.1-16.4 9.5-43.1 9.5-59.6 0-8.3-4.8-12.5-11.1-12.4-17.4v-10.8c0 6.3 4.1 12.6 12.4 17.4 16.5 9.5 43.2 9.5 59.6 0 8.2-4.7 12.3-10.9 12.3-17.1z"/><path class="st16" d="M122.2 365.3v-10.9.1c.1 3.2 0 7.6 0 10.8z"/><path class="st5" d="M109.8 337.1c16.5 9.5 16.6 25 .2 34.5-16.4 9.5-43.1 9.5-59.6 0s-16.6-25-.2-34.5c16.4-9.5 43.1-9.5 59.6 0z"/><path class="st9" d="M50.2 343.1c16.4-9.5 43.1-9.5 59.6 0 7 4 11 9.1 12.1 14.3 1.5-7.2-2.5-14.8-12.1-20.4-16.5-9.5-43.2-9.5-59.6 0-9.5 5.5-13.5 13-11.9 20.2 1.1-5.1 5.1-10.1 11.9-14.1z"/><path class="st5" d="M133.8 354.5v10.8c0 7.9-5.2 15.8-15.6 21.8-20.9 12.1-54.8 12.1-75.9 0-10.6-6-15.9-14.1-15.9-22.1v-10.8c0 8 5.3 16 15.8 22.1 21 12.1 55 12.1 75.9 0 10.5-6 15.6-13.9 15.7-21.8z"/><path class="st6" d="M117.9 332.4c21 12.1 21.1 31.8.2 43.9-20.9 12.1-54.8 12.1-75.9 0-21-12.1-21.1-31.8-.3-43.9 21-12.1 55-12.1 76 0zm-67.5 39.3c16.5 9.5 43.2 9.5 59.6 0s16.3-25-.2-34.5-43.2-9.5-59.6 0-16.3 24.9.2 34.5"/></g><path class="st19" d="m82.9 366.5-.5 3.4-6.2-.8.4-3.3c-4.4-.8-8.5-2.2-11-3.7l4.1-4.8c2.7 1.6 6.5 2.9 9.9 3.4 3 .4 4.1.1 4.2-.6.4-2.7-17-2.8-15.9-10.9.5-3.5 4.5-5.9 11.8-5.6l.5-3.4 6.2.8-.4 3.3c3.2.7 6.3 1.7 8.7 3l-3.8 4.8c-2.9-1.5-5.7-2.4-8.4-2.8-3-.4-4.1.1-4.2.8-.4 2.6 17 2.8 15.9 10.7-.5 3.3-4.4 5.8-11.3 5.7z"/><g class="st15"><path class="st16" d="M40.8 330.1c-6.2 3.6-10 8-11.5 12.6v-10.8c1.5-4.6 5.4-9 11.5-12.6 16.4-9.5 43.1-9.5 59.6 0 8.3 4.8 12.4 11 12.4 17.3v10.8c0-6.2-4.2-12.5-12.4-17.3-16.5-9.5-43.2-9.5-59.6 0z"/><path class="st16" d="M29.3 342.7c-.5 1.5-.7 3-.7 4.5v-10.8c0-1.5.3-3 .7-4.5v10.8z"/><path class="st17" d="M112.9 336.7v10.8c0 6.2-4.1 12.4-12.3 17.1-16.4 9.5-43.1 9.5-59.6 0-8.3-4.8-12.5-11.1-12.4-17.4v-10.8c0 6.3 4.1 12.6 12.4 17.4 16.5 9.5 43.2 9.5 59.6 0 8.2-4.7 12.3-10.9 12.3-17.1z"/><path class="st16" d="M112.8 347.5v-10.9.1c.1 3.2.1 7.5 0 10.8z"/><path class="st18" d="M100.4 319.3c16.5 9.5 16.6 25 .2 34.5-16.4 9.5-43.1 9.5-59.6 0s-16.6-25-.2-34.5c16.4-9.5 43.1-9.5 59.6 0z"/><path class="st19" d="M40.8 325.3c16.4-9.5 43.1-9.5 59.6 0 7 4 11 9.1 12.1 14.3 1.5-7.2-2.5-14.8-12.1-20.4-16.5-9.5-43.2-9.5-59.6 0-9.5 5.5-13.5 13-11.9 20.2 1.1-5.1 5.1-10.1 11.9-14.1z"/><path class="st5" d="M124.4 336.7v10.8c0 7.9-5.2 15.8-15.6 21.8-20.9 12.1-54.8 12.1-75.9 0-10.6-6.1-15.9-14.1-15.9-22.1v-10.8c0 8 5.3 16 15.8 22.1 21 12.1 55 12.1 75.9 0 10.5-6 15.7-13.9 15.7-21.8z"/><path class="st6" d="M108.5 314.6c21 12.1 21.1 31.8.2 43.9-20.9 12.1-54.8 12.1-75.9 0-21-12.1-21.1-31.8-.3-43.9 21-12.1 55-12.1 76 0zM41 353.8c16.5 9.5 43.2 9.5 59.6 0s16.3-25-.2-34.5-43.2-9.5-59.6 0-16.3 25 .2 34.5"/></g><path class="st19" d="M73.5 348.6 73 352l-6.2-.8.4-3.3c-4.4-.8-8.5-2.2-11-3.7l4.1-4.8c2.7 1.6 6.5 2.9 9.9 3.4 3 .4 4.1.1 4.2-.6.4-2.7-17-2.8-15.9-10.9.5-3.5 4.5-5.9 11.8-5.6l.5-3.4 6.2.8-.4 3.3c3.2.7 6.3 1.7 8.7 3l-3.8 4.8c-2.9-1.5-5.7-2.4-8.4-2.8-3-.4-4.1.1-4.2.8-.4 2.6 17 2.8 15.9 10.7-.5 3.4-4.4 5.8-11.3 5.7z"/><g class="st15"><path class="st16" d="M41.5 313.7c-6.2 3.6-10 8-11.5 12.6v-10.8c1.5-4.6 5.4-9 11.5-12.6 16.4-9.5 43.1-9.5 59.6 0 8.3 4.8 12.4 11 12.4 17.3V331c0-6.2-4.2-12.5-12.4-17.3-16.5-9.5-43.2-9.5-59.6 0zM30 326.3c-.5 1.5-.7 3-.7 4.5V320c0-1.5.3-3 .7-4.5v10.8z"/><path class="st17" d="M113.6 320.3v10.8c0 6.2-4.1 12.4-12.3 17.1-16.4 9.5-43.1 9.5-59.6 0-8.3-4.8-12.5-11.1-12.4-17.4V320c0 6.3 4.1 12.6 12.4 17.4 16.5 9.5 43.2 9.5 59.6 0 8.2-4.7 12.2-10.9 12.3-17.1z"/><path class="st16" d="M113.5 331.1v-10.9.1c.1 3.2 0 7.5 0 10.8z"/><path class="st5" d="M101.1 302.9c16.5 9.5 16.6 25 .2 34.5-16.4 9.5-43.1 9.5-59.6 0s-16.6-25-.2-34.5c16.4-9.5 43.1-9.5 59.6 0z"/><path class="st9" d="M41.5 308.9c16.4-9.5 43.1-9.5 59.6 0 7 4 11 9.1 12.1 14.3 1.5-7.2-2.5-14.8-12.1-20.4-16.5-9.5-43.2-9.5-59.6 0-9.5 5.5-13.5 13-11.9 20.2 1.1-5.1 5.1-10.1 11.9-14.1z"/><path class="st5" d="M125.1 320.3v10.8c0 7.9-5.2 15.8-15.6 21.8-20.9 12.1-54.8 12.1-75.9 0-10.6-6.1-15.9-14.1-15.8-22.1V320c0 8 5.3 16 15.8 22.1 21 12.1 55 12.1 75.9 0 10.3-6 15.5-13.9 15.6-21.8z"/><path class="st6" d="M109.2 298.2c21 12.1 21.1 31.8.2 43.9-20.9 12.1-54.8 12.1-75.9 0-21-12.1-21.1-31.8-.3-43.9 21-12.1 55-12.1 76 0zm-67.5 39.2c16.5 9.5 43.2 9.5 59.6 0s16.3-25-.2-34.5-43.2-9.5-59.6 0-16.3 25 .2 34.5"/></g><path class="st6" d="m74.2 332.2-.5 3.4-6.2-.8.4-3.3c-4.4-.8-8.5-2.2-11-3.7L61 323c2.7 1.6 6.5 2.9 9.9 3.4 3 .4 4.1.1 4.2-.6.4-2.7-17-2.8-15.9-10.9.5-3.5 4.5-5.9 11.8-5.6l.5-3.4 6.2.8-.4 3.3c3.2.7 6.3 1.7 8.7 3l-3.8 4.8c-2.9-1.5-5.7-2.4-8.4-2.8-3-.4-4.1.1-4.2.8-.4 2.6 17 2.8 15.9 10.7-.5 3.4-4.4 5.8-11.3 5.7z"/><path class="st20" d="m179.5 53 1.7 4.5c1.1 2.8 3.3 5 6.1 6.1l4.5 1.7-4.5 1.7c-2.8 1.1-5 3.3-6.1 6.1l-1.7 4.5-1.7-4.5c-1.1-2.8-3.3-5-6.1-6.1l-4.5-1.7 4.5-1.7c2.8-1.1 5-3.3 6.1-6.1l1.7-4.5zM41.2 101.5l1.3 3.3c.8 2 2.4 3.6 4.4 4.4l3.3 1.3-3.3 1.3c-2 .8-3.6 2.4-4.4 4.4l-1.3 3.3-1.3-3.3c-.8-2-2.4-3.6-4.4-4.4l-3.3-1.3 3.3-1.3c2-.8 3.6-2.4 4.4-4.4l1.3-3.3zM297.2 93.2l1.2 3c.7 1.9 2.2 3.4 4.1 4.1l3 1.2-3 1.2c-1.9.7-3.4 2.2-4.1 4.1l-1.2 3-1.2-3c-.7-1.9-2.2-3.4-4.1-4.1l-3-1.2 3-1.2c1.9-.7 3.4-2.2 4.1-4.1l1.2-3zM43.8 213.4l1 2.5c.6 1.5 1.8 2.7 3.3 3.3l2.5 1-2.5 1c-1.5.6-2.7 1.8-3.3 3.3l-1 2.5-1-2.5c-.6-1.5-1.8-2.7-3.3-3.3l-2.5-1 2.5-1c1.5-.6 2.7-1.8 3.3-3.3l1-2.5zM359.3 163.7l1 2.5c.6 1.5 1.8 2.7 3.3 3.3l2.5 1-2.5 1c-1.5.6-2.7 1.8-3.3 3.3l-1 2.5-1-2.5c-.6-1.5-1.8-2.7-3.3-3.3l-2.5-1 2.5-1c1.5-.6 2.7-1.8 3.3-3.3l1-2.5z"/></svg>