<svg xmlns="http://www.w3.org/2000/svg" xmlns:xlink="http://www.w3.org/1999/xlink" viewBox="0 0 500 500" style="enable-background:new 0 0 500 500" xml:space="preserve"><style>.st0{fill:#797bf2}.st12,.st2,.st4,.st8,.st9{fill:none;stroke-miterlimit:10}.st2{stroke:#263238;stroke-linecap:round;stroke-linejoin:round}.st12,.st4,.st8,.st9{stroke:#616161}.st12,.st8,.st9{fill:#797bf2;stroke:#263238;stroke-linecap:round;stroke-linejoin:round}.st12,.st9{fill:#b2b2b2}.st12{fill:none;stroke-width:2}</style><g id="Background_Simple"><path class="st0" d="M448 127.3s-29.1-58.2-93.2-66.8c-64.2-8.6-109 33.4-156.2 54.9-24.7 11.3-53 6.9-79.2 12.4-84 17.5-115.6 126.9-80.6 189.1 30.3 53.9 83.5 81.9 164.6 88.3 81.1 6.5 138 14 210.7-38.8 72.6-52.7 67.8-162.6 33.9-239.1z"/><path d="M448 127.3s-29.1-58.2-93.2-66.8c-64.2-8.6-109 33.4-156.2 54.9-24.7 11.3-53 6.9-79.2 12.4-84 17.5-115.6 126.9-80.6 189.1 30.3 53.9 83.5 81.9 164.6 88.3 81.1 6.5 138 14 210.7-38.8 72.6-52.7 67.8-162.6 33.9-239.1z" style="opacity:.7;fill:#fff"/></g><g id="Plants"><path class="st0" d="M434.8 383.7c3.5-19.9 36.3-57.9 26.8-81.3-9.5-23.4-32.9 51-41.5 51.9-8.6.9-.9-33.7 11.2-66.6 12.1-32.9 21.6-67.5 0-80.4-21.6-13-20.8 89.9-25.9 86.5-5.2-3.5 3.5-46.7-2.6-73.5-6.1-26.8-19.9-5.2-19.9 25.9s9.5 48.4 2.6 51c-6.9 2.6-28.2-7.1-27.7 26.8s26.8 74.4 17.3 69.2c-9.5-5.2-26.8-25.1-23.4 6.9 2.4 22.6 20 44.4 30.1 55.2H428c7-7.2 20.8-22.5 30-40.5 13.1-25.1-26.7-11.3-23.2-31.1z"/><path class="st2" d="M378.6 453.3C370 441 366 426 362 412c-2-9-2-19 5-25 7-5 11 4 15 8 3-2 1-5 1-7-2-16-3-32-3-48 0-10 4-18 8-27 2-3 4-6 7-7s6 0 7 3c2 7 2 14 3 21 2-2 1-5 1-7 4-29 1-57 10-85 1-2 4-4 6-3 7 1 7 10 7 16 4 29-5 57-8 86 0 2-1 4 1 6 1-7 5-14 7-21 1-3 3-7 6-9 2-1 4 0 6 2 4 6 5 12 4 19-3 17-9 31-16 46l-3 9c-1 6-5 13-1 18 7-1 9-9 15-13s8 1 9 5c4 20-3 38-13.1 54.2"/><path class="st2" d="M406.6 449.4s-2.3-46.7 3.5-89.4"/><path class="st2" d="m387.3 419.7 19.3 21 16.9-14.6M401.3 367.1l5.3 26.9 15.2-26.9M410.7 353.1l3.5-25.1"/></g><g id="Window"><path class="st2" d="M70.9 148.3h63V227h-63zM149.6 148.3h63V227h-63zM70.9 239.9h63v78.7h-63zM149.6 239.9h63v78.7h-63zM70.9 331.5h63v78.7h-63zM149.6 331.5h63v78.7h-63zM142.4 66.7h0c-38.7 0-70.1 31.4-70.1 70.1v0h140.3c0-38.7-31.4-70.1-70.2-70.1z"/></g><g id="Character"><path d="M233.1 104.3s0-15-25.8-12-36.5 25.8-44.3 30.5c-7.8 4.8-22.2 9-22.8 16.2-.6 7.2 6 10.2-.6 15.6s-16.8 10.2-14.4 17.4c2.4 7.2 9 14.4 6 19.2-3 4.8-11.4 9.6-3.6 15 7.8 5.4 11.4 6.6 11.4 13.8 0 7.2-3 12 4.2 14.4 7.2 2.4 11.4-2.4 15.6 6.6 4.2 9 8.4 11.4 15.6 9.6 7.2-1.8 17.4-4.8 21-2.4 3.6 2.4 15 9 19.8 5.4 4.8-3.6 9-9 16.2-6s13.2 7.2 16.2 1.8 0-6.6 11.4-9c11.4-2.4 15.6-1.8 15.6-11.4s-.6-12 4.8-16.2c5.4-4.2 10.2-2.4 8.4-12.6-1.8-10.2-5.4-12.6-3.6-22.8 1.8-10.2-3-13.8-6.6-16.8s-7.8-8.4-6.6-13.8c1.2-5.4 10.2-6 1.2-15.6s-13.2-6.6-15-13.8c-1.9-7.1-7.9-22.7-24.1-13.1z" style="fill:#263238;stroke:#263238;stroke-linecap:round;stroke-linejoin:round;stroke-miterlimit:10"/><path class="st4" d="M210.2 122.3c-3.7 5.8-6.5 12.4-12.5 18-8.6 8-30.6 15-31.6 22.5-1.1 7.5 2.7 11.8-4.8 18.2-7.5 6.4-19.3 8-19.3 14.5 0 6.4 3.2 8.6 1.6 13.4M226.1 115.2s-2.7-7-10.2 0c-.6.5-1.1 1.1-1.6 1.7M165.5 145.8c-6.6 1.6-11.8 2.8-12.4 7.4-1.1 9.1.5 15-5.9 17.7-6.4 2.7-15 7-12.3 12.3 2.7 5.4 3.2 7 2.7 9.1M225 106.6s-15-9.6-23.1-1.1c-8 8.6-4.3 19.3-16.6 31.1-3.3 3.2-7.1 5.2-10.9 6.6M277.2 182.6c1.2 1.7 2.5 2.8 3.6 3.3M235.7 120s13.4-4.3 16.6 3.2c3.2 7.5 4.8 20.9 10.7 23.1 5.9 2.1 8.6 5.4 8.6 17.2 0 4.1.7 7.9 1.7 11.2M148.9 215.4c4.3-7 10.2-4.3 10.7-11.8.5-7.5-3.8-9.7.5-14.5 4.3-4.8 11.3-7 11.3-7M154.8 230.4s-3-2.4-5.1-5.7"/><defs><path id="XMLID_10_" d="M303.2 455.3s1.8-24.6-9-49.1c-10.8-24.6-13.2-26.3-13.2-33.5 0-7.2 7.2-15.6 8.4-31.8 1.2-16.2.6-24 .6-24s25.8 40.7 43.7 43.1c18 2.4 28.7-14.4 22.2-37.1-6.6-22.8-35.3-41.3-46.7-56.3-11.4-15-37.1-15-50.3-15-13.2 0-19.8-4.8-22.2-13.8-2.4-9-2.4-26.9-2.4-26.9s-15.6 9.6-41.9-1.2c0 0 2.4 32.9-.6 37.7-3 4.8-7.2 9.6-25.2 9.6s-32.9 3.6-41.3 12c-8.4 8.4-43.1 41.9-52.1 55.1-9 13.2-4.2 27.5 6.6 32.9 10.8 5.4 21.6.6 29.3-6.6 7.8-7.2 32.3-29.9 32.3-29.9s0 13.8 6.6 33.5c6.6 19.8 12 17.4 7.2 31.7-4.8 14.4-14.4 18.6-17.4 37.1s-2.4 32.3-2.4 32.3"/></defs><use xlink:href="#XMLID_10_" style="overflow:visible;fill:#797bf2"/><clipPath id="XMLID_2_"><use xlink:href="#XMLID_10_" style="overflow:visible"/></clipPath><g style="opacity:.2;clip-path:url(#XMLID_2_)"><path d="M263.9 270.3c-.4 0-1.9 1 0 3.9 1.9-2.8.4-3.9 0-3.9zM311.9 270.3c-.4 0-1.9 1 0 3.9 1.9-2.8.4-3.9 0-3.9zM311.9 294.3c-.4 0-1.9 1 0 3.9 1.9-2.8.4-3.9 0-3.9zM263.9 294.3c-.4 0-1.9 1 0 3.9 1.9-2.8.4-3.9 0-3.9zM287.9 282.3c-.4 0-1.9 1 0 3.9 1.9-2.8.4-3.9 0-3.9zM287.9 258.3c-.4 0-1.9 1 0 3.9 1.9-2.8.4-3.9 0-3.9zM265 274.9c3.5.2 3.6-1.6 3.4-2-.3-.4-1.9-1.1-3.4 2zM315.9 274.2c-.5-.5-.9-.9-1.3-1.4-.5.3-1.1.9-1.6 2.1 1.6 0 2.5-.3 2.9-.7zM289 286.9c3.5.2 3.6-1.6 3.4-2-.3-.4-1.9-1.1-3.4 2zM289 262.9c3.5.2 3.6-1.6 3.4-2-.3-.4-1.9-1.1-3.4 2zM307.5 272.9c-.2.4-.1 2.2 3.4 2-1.5-3.1-3.2-2.4-3.4-2zM307.5 296.9c-.1.2-.1.9.5 1.4.5.4 1.4.7 2.9.6l-.3-.6c-1.5-2.4-2.9-1.7-3.1-1.4zM283.5 284.9c-.2.4-.1 2.2 3.4 2-1.5-3.1-3.2-2.4-3.4-2zM283.5 260.9c-.2.4-.1 2.2 3.4 2-1.5-3.1-3.2-2.4-3.4-2zM263.9 342.3c-.4 0-1.9 1 0 3.9 1.9-2.8.4-3.9 0-3.9zM311.9 342.3c-.3 0-1.2.5-.9 1.9.4.5.8.9 1.3 1.3 1.3-2.3 0-3.2-.4-3.2zM263.9 366.3c-.4 0-1.9 1 0 3.9 1.9-2.8.4-3.9 0-3.9zM335.9 354.3c-.4 0-1.9 1 0 3.9 1.9-2.8.4-3.9 0-3.9zM263.9 318.3c-.4 0-1.9 1 0 3.9 1.9-2.8.4-3.9 0-3.9zM311.9 318.3c-.4 0-1.9 1 0 3.9 1.9-2.8.4-3.9 0-3.9zM287.9 330.3c-.4 0-1.9 1 0 3.9 1.9-2.8.4-3.9 0-3.9zM335.9 330.3c-.4 0-1.9 1 0 3.9 1.9-2.8.4-3.9 0-3.9zM287.9 306.3c-.4 0-1.9 1 0 3.9 1.9-2.8.4-3.9 0-3.9zM335.9 306.3c-.4 0-1.9 1 0 3.9 1.9-2.8.4-3.9 0-3.9zM265 346.9c3.5.2 3.6-1.6 3.4-2-.3-.4-1.9-1.1-3.4 2zM313.1 346.5l.4.4c2.9 0 3-1.6 2.8-2-.2-.4-1.7-1.1-3.2 1.6zM267.6 368.5c-.3 0-.7.1-1.2.4-.2.1-.4.3-.6.5-.2.2-.4.5-.5.8v.1c-.1.2-.2.3-.3.5 1.5.1 2.4-.2 2.9-.6l.2-.2c.1-.1.2-.2.2-.4.2-.4.1-.7.1-.8-.1 0-.4-.2-.8-.3zM337 358.9c3.5.2 3.6-1.6 3.4-2-.3-.4-1.9-1.1-3.4 2zM265 322.9c3.5.2 3.6-1.6 3.4-2-.3-.4-1.9-1.1-3.4 2zM316.3 320.9c-.2-.4-1.8-1.1-3.4 2 3.5.2 3.6-1.7 3.4-2zM289 334.9h.9c0-.5.1-1 .1-1.5-.4.3-.7.8-1 1.5zM337 334.9c3.5.2 3.6-1.6 3.4-2-.3-.4-1.9-1.1-3.4 2zM289 310.9c3.5.2 3.6-1.6 3.4-2-.3-.4-1.9-1.1-3.4 2zM337 310.9c3.5.2 3.6-1.6 3.4-2-.3-.4-1.9-1.1-3.4 2zM285.3 358.8c.2-.5.4-1 .5-1.5-1.2-1.2-2.2-.7-2.3-.4-.2.3-.1 1.5 1.8 1.9zM355.5 344.9c-.1.2-.1 1 .7 1.5l.6-1.8c-.7-.2-1.2.1-1.3.3zM331.5 356.9c-.2.4-.1 2.2 3.4 2-1.5-3.1-3.2-2.4-3.4-2zM307.5 320.9c-.2.4-.1 2.2 3.4 2-1.5-3.1-3.2-2.4-3.4-2zM283.5 332.9c-.2.4-.1 2.2 3.4 2-1.5-3.1-3.2-2.4-3.4-2zM331.5 332.9c-.2.4-.1 2.2 3.4 2-1.5-3.1-3.2-2.4-3.4-2zM283.5 308.9c-.2.4-.1 2.2 3.4 2-1.5-3.1-3.2-2.4-3.4-2zM331.5 308.9c-.2.4-.1 2.2 3.4 2-1.5-3.1-3.2-2.4-3.4-2zM315.8 298.3c.6-.5.6-1.2.5-1.4-.2-.3-1.6-1-3.1 1.4l-.3.6c1.6 0 2.4-.3 2.9-.6zM267.8 298.3c.6-.5.6-1.2.5-1.4-.2-.3-1.6-1-3.1 1.4l-.3.6c1.6 0 2.4-.3 2.9-.6zM263.9 414.3c-.4 0-1.9 1 0 3.9 1.9-2.8.4-3.9 0-3.9zM263.9 438.3c-.4 0-1.9 1 0 3.9 1.9-2.8.4-3.9 0-3.9zM287.9 426.3c-.4 0-1.9 1 0 3.9 1.9-2.8.4-3.9 0-3.9zM263.9 390.3c-.4 0-1.9 1 0 3.9 1.9-2.8.4-3.9 0-3.9zM287.9 402.3c-.4 0-1.9 1 0 3.9 1.9-2.8.4-3.9 0-3.9zM265 418.9c3.5.2 3.6-1.6 3.4-2-.3-.4-1.9-1.1-3.4 2zM267.6 440.5h-.2c-.2 0-.5.1-.7.2-.1 0-.2.1-.3.2-.4.3-.7.7-1.1 1.3l-.3.6c1.5.1 2.4-.2 2.9-.6.6-.5.6-1.2.5-1.4-.1 0-.4-.2-.8-.3zM289 430.9c3.5.2 3.6-1.6 3.4-2-.3-.4-1.9-1.1-3.4 2zM265 394.9c3.5.2 3.6-1.6 3.4-2-.3-.4-1.9-1.1-3.4 2zM289 406.9c3.5.2 3.6-1.6 3.4-2-.3-.4-1.9-1.1-3.4 2zM283.5 428.9c-.2.4-.1 2.2 3.4 2-1.5-3.1-3.2-2.4-3.4-2zM283.5 404.9c-.2.4-.1 2.2 3.4 2-1.5-3.1-3.2-2.4-3.4-2zM287.9 450.3c-.4 0-1.9 1 0 3.9 1.9-2.8.4-3.9 0-3.9zM289 454.9c3.5.2 3.6-1.6 3.4-2-.3-.4-1.9-1.1-3.4 2zM283.5 452.9c-.2.4-.1 2.2 3.4 2-1.5-3.1-3.2-2.4-3.4-2zM215.9 222.3c-.4 0-1.9 1 0 3.9 1.9-2.8.4-3.9 0-3.9zM192.5 210.7c0 .5.1 1.3.1 2.2.5-1.1.2-1.9-.1-2.2zM219.6 224.5c-.3 0-.7.1-1.2.4-.2.1-.4.3-.6.5-.2.2-.4.5-.5.8v.1c-.1.2-.2.3-.3.5 1.5.1 2.4-.2 2.9-.6l.2-.2c.1-.1.2-.2.2-.4.2-.4.1-.7.1-.8-.1 0-.4-.2-.8-.3zM193 214.9c3.5.2 3.6-1.6 3.4-2-.3-.4-1.9-1.1-3.4 2zM168.8 271.5c0-.2-.1-.3-.1-.4 0-.1-.1-.1-.1-.2-.1-.1-.2-.2-.2-.3-.1-.1-.2-.1-.2-.2h-.4c-.5.2-1.2 1-.4 2.9.1.3.3.6.6 1 .2-.4.4-.7.6-1 .3-.6.4-1.1.4-1.5-.1-.1-.1-.2-.2-.3zM215.9 270.3c-.4 0-1.9 1 0 3.9 1.9-2.8.4-3.9 0-3.9zM215.9 294.3c-.4 0-1.9 1 0 3.9 1.9-2.8.4-3.9 0-3.9zM168.8 295.5c0-.2-.1-.3-.1-.4 0-.1-.1-.1-.1-.2-.1-.1-.2-.2-.2-.3-.1-.1-.2-.1-.2-.2h-.4c-.5.2-1.2 1-.4 2.9.1.3.3.6.6 1 .2-.4.4-.7.6-1 .3-.6.4-1.1.4-1.5-.1-.1-.1-.2-.2-.3zM191.9 282.3c-.4 0-1.9 1 0 3.9 1.9-2.8.4-3.9 0-3.9zM239.9 282.3c-.4 0-1.9 1 0 3.9 1.9-2.8.4-3.9 0-3.9zM215.9 246.3c-.4 0-1.9 1 0 3.9 1.9-2.8.4-3.9 0-3.9zM191.9 258.3c-.4 0-1.9 1 0 3.9 1.9-2.8.4-3.9 0-3.9zM239.9 258.3c-.4 0-1.9 1 0 3.9 1.9-2.8.4-3.9 0-3.9zM169 274.9c3.5.2 3.6-1.6 3.4-2-.3-.4-1.9-1.1-3.4 2zM217 274.9c3.5.2 3.6-1.6 3.4-2-.3-.4-1.9-1.1-3.4 2zM193 286.9c3.5.2 3.6-1.6 3.4-2-.3-.4-1.9-1.1-3.4 2zM241 286.9c3.5.2 3.6-1.6 3.4-2-.3-.4-1.9-1.1-3.4 2zM217 250.9c3.5.2 3.6-1.6 3.4-2-.3-.4-1.9-1.1-3.4 2zM193 262.9c3.5.2 3.6-1.6 3.4-2-.3-.4-1.9-1.1-3.4 2zM241 262.9c3.5.2 3.6-1.6 3.4-2-.3-.4-1.9-1.1-3.4 2zM196.3 236.9c-.2-.3-1.7-1-3.1 1.5v.5c3.2.1 3.3-1.7 3.1-2zM211.5 272.9c-.2.4-.1 2.2 3.4 2-1.5-3.1-3.2-2.4-3.4-2zM211.5 296.9c-.1.2-.1.9.5 1.4.5.4 1.4.7 2.9.6l-.3-.6c-1.5-2.4-2.9-1.7-3.1-1.4zM187.5 284.9c-.2.4-.1 2.2 3.4 2-1.5-3.1-3.2-2.4-3.4-2zM259.5 272.9c-.2.4-.1 2.2 3.4 2-1.5-3.1-3.2-2.4-3.4-2zM262.6 298.3c-1.4-2.4-2.9-1.7-3.1-1.4-.1.2-.1.9.5 1.4.5.4 1.4.7 2.9.6-.1-.3-.2-.5-.3-.6zM235.5 284.9c-.2.4-.1 2.2 3.4 2-1.5-3.1-3.2-2.4-3.4-2zM211.5 248.9c-.2.4-.1 2.2 3.4 2-1.5-3.1-3.2-2.4-3.4-2zM187.5 260.9c-.2.4-.1 2.2 3.4 2-1.5-3.1-3.2-2.4-3.4-2zM235.5 260.9c-.2.4-.1 2.2 3.4 2-1.5-3.1-3.2-2.4-3.4-2zM237 238.7c-.1-.3-.2-.6-.3-.8-.1-.4-.2-.9-.3-1.3-.5 0-.8.2-.9.4-.2.2-.1 1.3 1.5 1.7zM214.6 226.3c-.2-.3-.4-.6-.5-.8-.2-.2-.4-.4-.6-.5-.5-.3-.9-.4-1.2-.4-.4 0-.7.2-.8.4-.1.1-.1.5.1.8.1.1.1.2.2.4l.2.2c.5.4 1.4.7 2.9.6-.1-.3-.2-.5-.3-.7zM168.8 343.5c0-.2-.1-.3-.1-.4 0-.1-.1-.1-.1-.2-.1-.1-.2-.2-.2-.3-.1-.1-.2-.1-.2-.2h-.4c-.5.2-1.2 1-.4 2.9.1.3.3.6.6 1 .2-.4.4-.7.6-1 .3-.6.4-1.1.4-1.5-.1-.1-.1-.2-.2-.3zM215.9 342.3c-.4 0-1.9 1 0 3.9 1.9-2.8.4-3.9 0-3.9zM215.9 366.3c-.4 0-1.9 1 0 3.9 1.9-2.8.4-3.9 0-3.9zM168.8 367.5c0-.2-.1-.3-.1-.4 0-.1-.1-.1-.1-.2-.1-.1-.2-.2-.2-.3-.1-.1-.2-.1-.2-.2h-.4c-.5.2-1.2 1-.4 2.9.1.3.3.6.6 1 .2-.4.4-.7.6-1 .3-.6.4-1.1.4-1.5-.1-.1-.1-.2-.2-.3zM191.9 354.3c-.4 0-1.9 1 0 3.9 1.9-2.8.4-3.9 0-3.9zM239.9 354.3c-.4 0-1.9 1 0 3.9 1.9-2.8.4-3.9 0-3.9zM168.8 319.5c0-.2-.1-.3-.1-.4 0-.1-.1-.1-.1-.2-.1-.1-.2-.2-.2-.3-.1-.1-.2-.1-.2-.2h-.4c-.5.2-1.2 1-.4 2.9.1.3.3.6.6 1 .2-.4.4-.7.6-1 .3-.6.4-1.1.4-1.5-.1-.1-.1-.2-.2-.3zM215.9 318.3c-.4 0-1.9 1 0 3.9 1.9-2.8.4-3.9 0-3.9zM191.9 330.3c-.4 0-1.9 1 0 3.9 1.9-2.8.4-3.9 0-3.9zM239.9 330.3c-.4 0-1.9 1 0 3.9 1.9-2.8.4-3.9 0-3.9zM191.9 306.3c-.4 0-1.9 1 0 3.9 1.9-2.8.4-3.9 0-3.9zM239.9 306.3c-.4 0-1.9 1 0 3.9 1.9-2.8.4-3.9 0-3.9zM169 346.9c3.5.2 3.6-1.6 3.4-2-.3-.4-1.9-1.1-3.4 2zM217 346.9c3.5.2 3.6-1.6 3.4-2-.3-.4-1.9-1.1-3.4 2zM219.6 368.5c-.3 0-.7.1-1.2.4-.2.1-.4.3-.6.5-.2.2-.4.5-.5.8v.1c-.1.2-.2.3-.3.5 1.5.1 2.4-.2 2.9-.6l.2-.2c.1-.1.2-.2.2-.4.2-.4.1-.7.1-.8-.1 0-.4-.2-.8-.3zM171.6 368.5c-.3 0-.7.1-1.2.4-.2.1-.4.3-.6.5-.2.2-.4.5-.5.8v.1c-.1.2-.2.3-.3.5 1.5.1 2.4-.2 2.9-.6l.2-.2c.1-.1.2-.2.2-.4.2-.4.1-.7.1-.8-.1 0-.4-.2-.8-.3zM193 358.9c3.5.2 3.6-1.6 3.4-2-.3-.4-1.9-1.1-3.4 2zM241 358.9c3.5.2 3.6-1.6 3.4-2-.3-.4-1.9-1.1-3.4 2zM169 322.9c3.5.2 3.6-1.6 3.4-2-.3-.4-1.9-1.1-3.4 2zM217 322.9c3.5.2 3.6-1.6 3.4-2-.3-.4-1.9-1.1-3.4 2zM193 334.9c3.5.2 3.6-1.6 3.4-2-.3-.4-1.9-1.1-3.4 2zM241 334.9c3.5.2 3.6-1.6 3.4-2-.3-.4-1.9-1.1-3.4 2zM193 310.9c3.5.2 3.6-1.6 3.4-2-.3-.4-1.9-1.1-3.4 2zM241 310.9c3.5.2 3.6-1.6 3.4-2-.3-.4-1.9-1.1-3.4 2zM211.5 344.9c-.2.4-.1 2.2 3.4 2-1.5-3.1-3.2-2.4-3.4-2zM187.5 356.9c-.2.4-.1 2.2 3.4 2-1.5-3.1-3.2-2.4-3.4-2zM259.5 344.9c-.2.4-.1 2.2 3.4 2-1.5-3.1-3.2-2.4-3.4-2zM235.5 356.9c-.2.4-.1 2.2 3.4 2-1.5-3.1-3.2-2.4-3.4-2z"/><path d="M173.6 373.3s26 6.7 58.7-18.7c32.7-25.3 45.3-15.3 44 2.7C275 375.3 247 392 235 394c-19.8 3.2-37.4 8.6-61.4-20.7zM211.5 320.9c-.2.4-.1 2.2 3.4 2-1.5-3.1-3.2-2.4-3.4-2zM187.5 332.9c-.2.4-.1 2.2 3.4 2-1.5-3.1-3.2-2.4-3.4-2zM259.5 320.9c-.2.4-.1 2.2 3.4 2-1.5-3.1-3.2-2.4-3.4-2zM235.5 332.9c-.2.4-.1 2.2 3.4 2-1.5-3.1-3.2-2.4-3.4-2zM187.5 308.9c-.2.4-.1 2.2 3.4 2-1.5-3.1-3.2-2.4-3.4-2zM235.5 308.9c-.2.4-.1 2.2 3.4 2-1.5-3.1-3.2-2.4-3.4-2zM219.8 298.3c.6-.5.6-1.2.5-1.4-.2-.3-1.6-1-3.1 1.4l-.3.6c1.6 0 2.4-.3 2.9-.6zM171.8 298.3c.6-.5.6-1.2.5-1.4-.2-.3-1.6-1-3.1 1.4l-.3.6c1.6 0 2.4-.3 2.9-.6zM168.8 415.5c0-.2-.1-.3-.1-.4 0-.1-.1-.1-.1-.2-.1-.1-.2-.2-.2-.3-.1-.1-.2-.1-.2-.2h-.4c-.5.2-1.2 1-.4 2.9.1.3.3.6.6 1 .2-.4.4-.7.6-1 .3-.6.4-1.1.4-1.5-.1-.1-.1-.2-.2-.3zM215.9 414.3c-.4 0-1.9 1 0 3.9 1.9-2.8.4-3.9 0-3.9zM215.9 438.3c-.4 0-1.9 1 0 3.9 1.9-2.8.4-3.9 0-3.9zM168.8 439.5c0-.2-.1-.3-.1-.4 0-.1-.1-.1-.1-.2-.1-.1-.2-.2-.2-.3-.1-.1-.2-.1-.2-.2h-.4c-.5.2-1.2 1-.4 2.9.1.3.3.6.6 1 .2-.4.4-.7.6-1 .3-.6.4-1.1.4-1.5-.1-.1-.1-.2-.2-.3zM191.9 426.3c-.4 0-1.9 1 0 3.9 1.9-2.8.4-3.9 0-3.9zM239.9 426.3c-.4 0-1.9 1 0 3.9 1.9-2.8.4-3.9 0-3.9zM168.8 391.5c0-.2-.1-.3-.1-.4 0-.1-.1-.1-.1-.2-.1-.1-.2-.2-.2-.3-.1-.1-.2-.1-.2-.2h-.4c-.5.2-1.2 1-.4 2.9.1.3.3.6.6 1 .2-.4.4-.7.6-1 .3-.6.4-1.1.4-1.5-.1-.1-.1-.2-.2-.3z"/><path d="M215.9 390.3c-.4 0-1.9 1 0 3.9 1.9-2.8.4-3.9 0-3.9zM191.9 402.3c-.4 0-1.9 1 0 3.9 1.9-2.8.4-3.9 0-3.9zM239.9 402.3c-.4 0-1.9 1 0 3.9 1.9-2.8.4-3.9 0-3.9zM191.9 378.3c-.4 0-1.9 1 0 3.9 1.9-2.8.4-3.9 0-3.9zM239.9 378.3c-.4 0-1.9 1 0 3.9 1.9-2.8.4-3.9 0-3.9zM169 418.9c3.5.2 3.6-1.6 3.4-2-.3-.4-1.9-1.1-3.4 2zM217 418.9c3.5.2 3.6-1.6 3.4-2-.3-.4-1.9-1.1-3.4 2zM219.6 440.5h-.2c-.2 0-.5.1-.7.2-.1 0-.2.1-.3.2-.4.3-.7.7-1.1 1.3l-.3.6c1.5.1 2.4-.2 2.9-.6.6-.5.6-1.2.5-1.4-.1 0-.4-.2-.8-.3zM171.6 440.5h-.2c-.2 0-.5.1-.7.2-.1 0-.2.1-.3.2-.4.3-.7.7-1.1 1.3l-.3.6c1.5.1 2.4-.2 2.9-.6.6-.5.6-1.2.5-1.4-.1 0-.4-.2-.8-.3zM193 430.9c3.5.2 3.6-1.6 3.4-2-.3-.4-1.9-1.1-3.4 2zM241 430.9c3.5.2 3.6-1.6 3.4-2-.3-.4-1.9-1.1-3.4 2zM169 394.9c3.5.2 3.6-1.6 3.4-2-.3-.4-1.9-1.1-3.4 2zM217 394.9c3.5.2 3.6-1.6 3.4-2-.3-.4-1.9-1.1-3.4 2zM193 406.9c3.5.2 3.6-1.6 3.4-2-.3-.4-1.9-1.1-3.4 2zM241 406.9c3.5.2 3.6-1.6 3.4-2-.3-.4-1.9-1.1-3.4 2zM193 382.9c3.5.2 3.6-1.6 3.4-2-.3-.4-1.9-1.1-3.4 2zM241 382.9c3.5.2 3.6-1.6 3.4-2-.3-.4-1.9-1.1-3.4 2zM211.5 416.9c-.2.4-.1 2.2 3.4 2-1.5-3.1-3.2-2.4-3.4-2zM213.5 441c-.1-.1-.2-.1-.3-.2-.3-.1-.5-.2-.7-.2h-.2c-.4 0-.7.2-.8.4-.1.2-.1.9.5 1.4.5.4 1.4.7 2.9.6l-.3-.6c-.4-.8-.8-1.2-1.1-1.4zM187.5 428.9c-.2.4-.1 2.2 3.4 2-1.5-3.1-3.2-2.4-3.4-2zM259.5 416.9c-.2.4-.1 2.2 3.4 2-1.5-3.1-3.2-2.4-3.4-2zM262.6 442.3c-.4-.6-.7-1-1.1-1.3-.1-.1-.2-.1-.3-.2-.3-.1-.5-.2-.7-.2h-.2c-.4 0-.7.2-.8.4-.1.2-.1.9.5 1.4.5.4 1.4.7 2.9.6-.1-.4-.2-.6-.3-.7zM235.5 428.9c-.2.4-.1 2.2 3.4 2-1.5-3.1-3.2-2.4-3.4-2zM211.5 392.9c-.2.4-.1 2.2 3.4 2-1.5-3.1-3.2-2.4-3.4-2zM187.5 404.9c-.2.4-.1 2.2 3.4 2-1.5-3.1-3.2-2.4-3.4-2zM259.5 392.9c-.2.4-.1 2.2 3.4 2-1.5-3.1-3.2-2.4-3.4-2zM235.5 404.9c-.2.4-.1 2.2 3.4 2-1.5-3.1-3.2-2.4-3.4-2zM187.5 380.9c-.2.4-.1 2.2 3.4 2-1.5-3.1-3.2-2.4-3.4-2zM235.5 380.9c-.2.4-.1 2.2 3.4 2-1.5-3.1-3.2-2.4-3.4-2zM214.6 370.3c-.2-.3-.4-.6-.5-.8-.2-.2-.4-.4-.6-.5-.5-.3-.9-.4-1.2-.4-.4 0-.7.2-.8.4-.1.1-.1.5.1.8.1.1.1.2.2.4l.2.2c.5.4 1.4.7 2.9.6-.1-.3-.2-.5-.3-.7zM262.6 370.3c-.2-.3-.4-.6-.5-.8-.2-.2-.4-.4-.6-.5-.5-.3-.9-.4-1.2-.4-.4 0-.7.2-.8.4-.1.1-.1.5.1.8.1.1.1.2.2.4l.2.2c.5.4 1.4.7 2.9.6-.1-.3-.2-.5-.3-.7zM191.9 450.3c-.4 0-1.9 1 0 3.9 1.9-2.8.4-3.9 0-3.9zM239.9 450.3c-.4 0-1.9 1 0 3.9 1.9-2.8.4-3.9 0-3.9zM193 454.9c3.5.2 3.6-1.6 3.4-2-.3-.4-1.9-1.1-3.4 2zM241 454.9c3.5.2 3.6-1.6 3.4-2-.3-.4-1.9-1.1-3.4 2zM187.5 452.9c-.2.4-.1 2.2 3.4 2-1.5-3.1-3.2-2.4-3.4-2zM235.5 452.9c-.2.4-.1 2.2 3.4 2-1.5-3.1-3.2-2.4-3.4-2zM119.9 294.3c-.4 0-1.9 1 0 3.9 1.9-2.8.4-3.9 0-3.9zM143.9 282.3c-.4 0-1.9 1 0 3.9 1.9-2.8.4-3.9 0-3.9zM144.8 259.3c-.6.1-1.2.3-1.8.5 0 .6.2 1.4.9 2.5 1-1.4 1.1-2.4.9-3zM121 274.9c3.5.2 3.6-1.6 3.4-2-.3-.4-1.9-1.1-3.4 2zM145 286.9c3.5.2 3.6-1.6 3.4-2-.3-.4-1.9-1.1-3.4 2zM145 262.9c3.5.2 3.6-1.6 3.4-2-.3-.4-1.9-1.1-3.4 2zM115.5 296.9c-.1.2-.1.9.5 1.4.5.4 1.4.7 2.9.6l-.3-.6c-1.5-2.4-2.9-1.7-3.1-1.4zM163.5 272.9c-.2.4-.1 2.2 3.4 2-1.5-3.1-3.2-2.4-3.4-2zM166.6 298.3c-1.4-2.4-2.9-1.7-3.1-1.4-.1.2-.1.9.5 1.4.5.4 1.4.7 2.9.6-.1-.3-.2-.5-.3-.6zM139.5 284.9c-.2.4-.1 2.2 3.4 2-1.5-3.1-3.2-2.4-3.4-2zM140.2 260.5c-.2.1-.4.1-.5.2-.1.1-.2.1-.2.2-.2.4-.1 2.2 3.4 2-1-2-2-2.4-2.7-2.4zM71.9 342.3c-.4 0-1.9 1 0 3.9 1.9-2.8.4-3.9 0-3.9zM95.9 354.3c-.4 0-1.9 1 0 3.9 1.9-2.8.4-3.9 0-3.9zM119.9 318.3c-.4 0-1.9 1 0 3.9 1.9-2.8.4-3.9 0-3.9zM95.9 330.3c-.4 0-1.9 1 0 3.9 1.9-2.8.4-3.9 0-3.9zM143.9 330.3c-.4 0-1.9 1 0 3.9 1.9-2.8.4-3.9 0-3.9zM95.9 306.3c-.4 0-1.9 1 0 3.9 1.9-2.8.4-3.9 0-3.9zM143.9 306.3c-.4 0-1.9 1 0 3.9 1.9-2.8.4-3.9 0-3.9zM73 346.9c3.5.2 3.6-1.6 3.4-2-.3-.4-1.9-1.1-3.4 2zM97.6 357.8c.9-.3 1.8-.7 2.6-1.1-.5-.3-1.5-.4-2.6 1.1zM76.3 320.9c-.1-.1-.2-.2-.5-.3-.6.8-1.2 1.5-1.7 2.3 2.3-.3 2.4-1.7 2.2-2zM121 322.9c3.5.2 3.6-1.6 3.4-2-.3-.4-1.9-1.1-3.4 2zM97 334.9c3.5.2 3.6-1.6 3.4-2-.3-.4-1.9-1.1-3.4 2zM145 334.9c3.5.2 3.6-1.6 3.4-2-.3-.4-1.9-1.1-3.4 2zM97 310.9c3.5.2 3.6-1.6 3.4-2-.3-.4-1.9-1.1-3.4 2zM145 310.9c3.5.2 3.6-1.6 3.4-2-.3-.4-1.9-1.1-3.4 2zM91.5 356.9c-.2.3-.1 1.8 2.5 2 .3-.1.5-.1.8-.2-1.5-2.9-3.1-2.2-3.3-1.8zM163.5 344.9c-.2.4-.1 2.2 3.4 2-1.5-3.1-3.2-2.4-3.4-2zM115.5 320.9c-.2.4-.1 2.2 3.4 2-1.5-3.1-3.2-2.4-3.4-2zM91.5 332.9c-.2.4-.1 2.2 3.4 2-1.5-3.1-3.2-2.4-3.4-2zM163.5 320.9c-.2.4-.1 2.2 3.4 2-1.5-3.1-3.2-2.4-3.4-2zM91.5 308.9c-.2.4-.1 2.2 3.4 2-1.5-3.1-3.2-2.4-3.4-2zM139.5 308.9c-.2.4-.1 2.2 3.4 2-1.5-3.1-3.2-2.4-3.4-2zM123.8 298.3c.6-.5.6-1.2.5-1.4-.2-.3-1.6-1-3.1 1.4l-.3.6c1.6 0 2.4-.3 2.9-.6zM143.9 426.3c-.4 0-1.9 1 0 3.9 1.9-2.8.4-3.9 0-3.9zM144.7 404.7c-.3.5-.6.9-.8 1.4 0 0 0 .1.1.1.3-.5.5-1 .7-1.5zM145 430.9c3.5.2 3.6-1.6 3.4-2-.3-.4-1.9-1.1-3.4 2zM145 406.9c3.5.2 3.6-1.6 3.4-2-.3-.4-1.9-1.1-3.4 2zM163.5 416.9c-.2.4-.1 2.2 3.4 2-1.5-3.1-3.2-2.4-3.4-2zM166.6 442.3c-.4-.6-.7-1-1.1-1.3-.1-.1-.2-.1-.3-.2-.3-.1-.5-.2-.7-.2h-.2c-.4 0-.7.2-.8.4-.1.2-.1.9.5 1.4.5.4 1.4.7 2.9.6-.1-.4-.2-.6-.3-.7zM139.5 428.9c-.2.4-.1 2.2 3.4 2-1.5-3.1-3.2-2.4-3.4-2zM163.5 392.9c-.2.4-.1 2.2 3.4 2-1.5-3.1-3.2-2.4-3.4-2zM166.6 370.3c-.2-.3-.4-.6-.5-.8-.2-.2-.4-.4-.6-.5-.5-.3-.9-.4-1.2-.4-.4 0-.7.2-.8.4-.1.1-.1.5.1.8.1.1.1.2.2.4l.2.2c.5.4 1.4.7 2.9.6-.1-.3-.2-.5-.3-.7zM143.9 450.3c-.4 0-1.9 1 0 3.9 1.9-2.8.4-3.9 0-3.9zM145 454.9c3.5.2 3.6-1.6 3.4-2-.3-.4-1.9-1.1-3.4 2zM139.5 452.9c-.2.4-.1 2.2 3.4 2-1.5-3.1-3.2-2.4-3.4-2zM69.6 345c.2.6.4 1.2.7 1.8h.6c-.5-.8-.9-1.4-1.3-1.8z"/></g><use xlink:href="#XMLID_10_" style="overflow:visible;fill:none;stroke:#263238;stroke-linecap:round;stroke-linejoin:round;stroke-miterlimit:10"/><path d="M141.5 320.5s.4-8.7 3.9-19" style="fill:#fff;stroke:#263238;stroke-linecap:round;stroke-linejoin:round;stroke-miterlimit:10"/><path class="st2" d="M290 316.9s-1.9-7.6-5.5-14.4M202 383.3l37.7-12.1M219.1 373.3s11.4-5 27.4-7.5"/><defs><path id="XMLID_9_" d="M208.6 297.2c29.9 5.8 41.4-22.9 45.4-45.8-10-1.1-15.2-5.7-17.3-13.5-2.4-9-2.4-26.9-2.4-26.9s-15.6 9.6-41.9-1.2c0 0 2.4 32.9-.6 37.7-2.1 3.3-4.8 6.7-12.3 8.4-.2 10.2 1.9 36 29.1 41.3z"/></defs><use xlink:href="#XMLID_9_" style="overflow:visible;fill:#b2b2b2"/><clipPath id="XMLID_3_"><use xlink:href="#XMLID_9_" style="overflow:visible"/></clipPath><path d="M236.1 234.9c-1.7-9.5-1.7-24-1.7-24s-15.6 9.6-41.9-1.2c0 0 1 13.8.9 24.8 22.6 7.9 35.7 4.6 42.7.4z" style="opacity:.2;clip-path:url(#XMLID_3_)"/><use xlink:href="#XMLID_9_" style="overflow:visible;fill:none;stroke:#263238;stroke-linecap:round;stroke-linejoin:round;stroke-miterlimit:10"/><circle class="st8" cx="253.8" cy="192" r="7.4"/><circle class="st8" cx="174.5" cy="192" r="7.4"/><path class="st9" d="M253.1 166.7s3.7-11.5 8.1-7.4c4.4 4-1.3 19.6-4.4 23.3-3 3.7-6.1 3.7-5.7-1.3.3-5.1 2-14.6 2-14.6z"/><defs><path id="XMLID_8_" d="M176.4 178.3s1 26.8 20.7 39.9c19.7 13.1 34.4 5.6 42.5-5.6 8.1-11.1 13.1-22.2 13.1-38.4s2-23.3-3.5-33.4c-5.6-10.1-24.8-15.2-24.8-15.2s-10.6 13.6-25.8 28.3c-15.1 14.8-22.2 24.4-22.2 24.4z"/></defs><use xlink:href="#XMLID_8_" style="overflow:visible;fill:#b2b2b2"/><clipPath id="XMLID_4_"><use xlink:href="#XMLID_8_" style="overflow:visible"/></clipPath><path d="M224.4 125.7s-10.6 13.6-25.8 28.3c-15.2 14.7-22.2 24.3-22.2 24.3s.3 6.9 3.1 15.3c26.6-20.4 41.2-57 45.1-67.9h-.2z" style="opacity:.2;clip-path:url(#XMLID_4_)"/><use xlink:href="#XMLID_8_" style="overflow:visible;fill:none;stroke:#263238;stroke-linecap:round;stroke-linejoin:round;stroke-miterlimit:10"/><path class="st2" d="m195 175.1 11.4 1.1M229.4 174.8s7.4-1.4 11 0"/><path d="M204.9 169.9c0 2.7-1.2 4.9-2.7 4.9-1.5 0-2.7-2.2-2.7-4.9s1.2-4.9 2.7-4.9c1.5 0 2.7 2.2 2.7 4.9z" style="fill:#263238"/><path class="st2" d="M210.9 187s6.1 4 11.8-1M214 198.4s10.5 4.4 16.5-9.8"/><path class="st12" d="M227.5 170.1s6.4-4.4 12.8-1.7M225.4 159s7.1-7.1 16.9-1.3M210.3 154.6s-6.1-6.1-14.5-.3"/><defs><path id="XMLID_7_" d="M73.2 324.1s-10.8 12-10.8 24.6c0 12.6 7.2 24 26.9 41.9 19.8 18 38.3 31.1 46.1 35.3 7.8 4.2 15.6-1.2 15.6-1.2s12.9 12.9 14.4 9.9-4.5-7.5-5.7-9.3c-1.2-1.8-3.6-3.9-3.6-3.9s6.3.9 8.7 3c2.4 2.1 6.3 5.7 8.1 5.4 1.8-.3 1.8-1.8-.9-5.4-2.7-3.6-6-6-7.8-7.2-1.8-1.2-7.8-4.5-7.8-4.5s8.7-.6 11.7 1.2c3 1.8 11.1 7.2 11.7 4.8.6-2.4.6-3.9-2.4-6.6-3-2.7-9-6-12.6-6.6-3.6-.6-7.2-2.1-7.2-2.1s6.9-2.4 9.3-2.4c2.4 0 12 4.8 14.7 4.2 2.7-.6 1.2-3-.9-4.5s-11.4-5.1-15.3-5.4-25.8 7.2-28.4 7.2c-2.7 0-9.6-9.6-16.8-22.5-7.2-12.9-9.9-32.9-25.2-39.8"/></defs><use xlink:href="#XMLID_7_" style="overflow:visible;fill:#797bf2"/><clipPath id="XMLID_5_"><use xlink:href="#XMLID_7_" style="overflow:visible"/></clipPath><g style="opacity:.2;clip-path:url(#XMLID_5_)"><path d="M71.9 346.3c1.9-2.9.4-3.9 0-3.9.4-.1 1.9 1 0 3.9zM71.9 366.3c.4 0 1.9 1 0 3.9 1.9-2.8.4-3.9 0-3.9zM95.9 354.3c-.4 0-1.9 1 0 3.9 1.9-2.8.4-3.9 0-3.9zM76.3 344.9c-.2-.4-1.8-1.1-3.4 2 3.5.2 3.6-1.7 3.4-2zM76 370.1c.1-.1.2-.2.2-.4.2-.4.1-.7.1-.8-.1-.1-.4-.3-.8-.4-.3 0-.7.1-1.2.4-.2.1-.4.3-.6.5-.2.2-.4.5-.5.8h2.5c.2 0 .3-.1.3-.1zM100.3 356.9c-.2-.4-1.8-1.1-3.4 2 3.5.2 3.6-1.7 3.4-2zM94.9 358.9c-1.5-3.1-3.2-2.3-3.4-2-.2.3-.1 2.2 3.4 2z"/><path d="M71.9 342.3v3.9c1.9-2.8.4-3.9 0-3.9zM71.9 366.3v3.9c1.9-2.8.4-3.9 0-3.9zM119.9 414.3c-.2 0-.6.2-.8.7.6.4 1.1.8 1.7 1.2.3-1.3-.6-1.9-.9-1.9zM143.9 426.3c-.2 0-.8.3-.9 1.1.6 0 1.2-.1 1.8-.2-.2-.6-.7-.9-.9-.9zM119.9 390.3c-.4 0-1.9 1 0 3.9 1.9-2.8.4-3.9 0-3.9zM143.9 406.3c1.9-2.9.4-3.9 0-3.9-.4-.1-1.9 1 0 3.9zM95.9 382.3c1.9-2.9.4-3.9 0-3.9-.4-.1-1.9 1 0 3.9zM124.3 416.9c-.2-.3-1.1-.8-2.2.3.5.4 1.1.8 1.6 1.1.8-.5.8-1.2.6-1.4zM121 394.9c3.5.2 3.6-1.6 3.4-2-.3-.4-1.9-1.1-3.4 2zM145 406.9c3.5.2 3.6-1.6 3.4-2-.3-.4-1.9-1.1-3.4 2zM97 382.9c3.5.2 3.6-1.6 3.4-2-.3-.4-1.9-1.1-3.4 2zM166.5 418.9c-.9-.7-1.7-1.2-2.3-1.6-.2-.1-.4-.3-.7-.4l-.1.1c-.1.2 0 1.9 3.1 1.9zM118.9 394.9c-1.5-3.1-3.2-2.3-3.4-2-.2.3-.1 2.2 3.4 2zM139.5 404.9c-.2.4-.1 2.2 3.4 2-1.5-3.1-3.2-2.4-3.4-2zM91.5 380.9c-.2.4-.1 2.2 3.4 2-1.5-3.1-3.2-2.4-3.4-2zM75.8 370.3h-2.5v.1c-.1.2-.2.3-.3.5 1.5 0 2.3-.3 2.8-.6zM71.9 342.3c-.4 0-1.9 1 0 3.9v-3.9zM71.9 370.3v-3.9c-.4-.1-1.9 1 0 3.9zM70.9 346.9c-1.5-3.1-3.2-2.3-3.4-2-.2.3-.1 2.2 3.4 2zM70 369.5c-.2-.2-.4-.4-.6-.5h-.1c.3.4.6.9 1 1.4h.2c-.1-.4-.3-.7-.5-.9z"/><path d="m70.6 370.3-.3-.1c.1.2.3.4.4.6h.1c0-.1-.1-.3-.2-.5z"/></g><use xlink:href="#XMLID_7_" style="overflow:visible;fill:none;stroke:#263238;stroke-linecap:round;stroke-linejoin:round;stroke-miterlimit:10"/><path class="st9" d="M180.7 400.8c-2.1-1.5-11.4-5.1-15.3-5.4s-25.8 7.2-28.4 7.2c-2.7 0-9.6-9.6-16.8-22.5-4-7.2-6.6-16.5-10.7-24.6-22-3-31.4 9.9-35.8 19.1 4 4.8 9.1 10 15.7 16 19.8 18 38.3 31.1 46.1 35.3 7.8 4.2 15.6-1.2 15.6-1.2s12.9 12.9 14.4 9.9-4.5-7.5-5.7-9.3c-1.2-1.8-3.6-3.9-3.6-3.9s6.3.9 8.7 3c2.4 2.1 6.3 5.7 8.1 5.4 1.8-.3 1.8-1.8-.9-5.4-2.7-3.6-6-6-7.8-7.2-1.8-1.2-7.8-4.5-7.8-4.5s8.7-.6 11.7 1.2c3 1.8 11.1 7.2 11.7 4.8.6-2.4.6-3.9-2.4-6.6-3-2.7-9-6-12.6-6.6-3.6-.6-7.2-2.1-7.2-2.1s6.9-2.4 9.3-2.4c2.4 0 12 4.8 14.7 4.2 2.6-.5 1.1-2.9-1-4.4z"/><defs><path id="XMLID_6_" d="M310.8 335.4c-2.5-5.7-.4-18.2 2.1-36.1 2.5-17.9 5-36.1 5-45.7 0-9.6 1.6-23-1.5-27.3-3.1-4.3-14.6-16-15.4-21.4-.9-5.4 6.9-13.7 6.9-13.7s2.3-4.3 4.3-2 1.1 5.1 0 9.1-2.3 7.1-2.3 7.1 10 3.1 12.6 1.4c2.6-1.7 2.3-11.5 2.2-16.3-.4-9.3-4.1-5.4-6.7-.9-1.2 2.1-8.6.9-4.3-4.6 4.3-5.4 8.3-10.2 12.3-5.9 4 4.3 6.9 12.6 6.9 12.6s2.9-13.6 5.5-21.6c2.6-8 7.3-11.2 8.9-10.6 1.7.6 1.5 3.4-.2 7.3s-5.4 14.7-6.3 18.2c-.9 3.5-1.1 7.6.7 7.3 1.9-.4 8.4-11.7 10.2-16.6 1.9-4.8 4.7-9.3 7.8-11.4 3.2-2 5.8.6 4.5 3.9-1.3 3.4-6 13-8.7 17.7-2.8 4.7-5.2 11.5-5.2 11.5s5.2-5.6 9.7-9.3c4.5-3.7 9.3-4.5 10.8-3.2 1.5 1.3.2 1.5-3.5 4.5s-9.3 6.5-13.8 13.8c-4.5 7.3-6.3 11.7-8 17.1-1.7 5.4-5.4 11.4-5.4 11.4s3.5 28.3 9.5 43.9c6 15.6 16.8 38.4 13.5 54.7-3.3 16.3-9.5 24.7-18.4 27.2-8.8 2.6-15.1-2.8-15.1-2.8"/></defs><use xlink:href="#XMLID_6_" style="overflow:visible;fill:#797bf2"/><clipPath id="XMLID_11_"><use xlink:href="#XMLID_6_" style="overflow:visible"/></clipPath><g style="opacity:.2;clip-path:url(#XMLID_11_)"><path d="M359.9 174.3c.2 0 .6.2.8.7-.2-.4-.6-.7-.8-.7z"/><path d="M359.9 174.3v2.3c.3-.6.5-1.1.8-1.7-.2-.3-.6-.6-.8-.6zM359.9 322.3c1.9-2.9.4-3.9 0-3.9.4-.1 1.9 1 0 3.9zM363.2 322.6c0-.7 0-1.3-.1-2-.6.2-1.4.8-2.1 2.3 1 0 1.7-.1 2.2-.3z"/><path d="M359.9 318.3v3.9c1.9-2.8.4-3.9 0-3.9zM311.9 198.3c-.3 0-1.5.7-.7 2.7.3-.8.5-1.7.8-2.6 0 0 0-.1-.1-.1zM335.9 214.3c1.9-2.9.4-3.9 0-3.9-.4-.1-1.9 1 0 3.9zM359.5 177.5c.1-.3.3-.6.4-.9v-2.3c-.4 0-1.6.9-.4 3.2zM335.9 186.3c-.4 0-1.9 1 0 3.9 1.9-2.8.4-3.9 0-3.9zM316.3 225.7c.2-.4.1-.7.1-.8-.1-.1-.4-.3-.8-.4-.2 0-.3 0-.5.1.4.5.8 1 1.1 1.4 0-.1 0-.2.1-.3zM340.3 212.9c-.2-.4-1.8-1.1-3.4 2 3.5.2 3.6-1.7 3.4-2zM339.9 190.2v-1.6c-.6-.2-1.8 0-2.9 2.3 1.5 0 2.4-.3 2.9-.7zM340.4 165c-.3.5-.5.9-.8 1.4.8-.4.9-1.1.8-1.4zM307.5 200.9c-.2.3-.1 2.1 3.2 2 0-.1.1-.2.1-.3-1.5-2.8-3.1-2.1-3.3-1.7zM331.5 212.9c-.2.4-.1 2.2 3.4 2-1.5-3.1-3.2-2.4-3.4-2zM355.5 176.9c-.2.4-.1 2.2 3.3 2-1.5-3.1-3.1-2.4-3.3-2zM334.9 190.9c-.6-1.1-1.1-1.7-1.6-2-.2.8-.3 1.4-.4 1.9.5 0 1.1.1 2 .1zM332.1 190.3c-.2-.4-.4-.9-.6-1.5-.1.3-.1 1 .6 1.5zM335.9 286.3c1.9-2.9.4-3.9 0-3.9-.4-.1-1.9 1 0 3.9zM335.9 258.3c-.4 0-1.9 1 0 3.9 1.9-2.8.4-3.9 0-3.9zM335.9 234.3c-.4 0-1.9 1 0 3.9 1.9-2.8.4-3.9 0-3.9zM316.4 273c0 .2 0 .4-.1.6.1-.2.1-.5.1-.6zM316.3 296.9c-.2-.3-1.6-1-3.1 1.4h2.5c.8-.5.8-1.2.6-1.4zM337 286.9c3.5.2 3.6-1.6 3.4-2-.3-.4-1.9-1.1-3.4 2zM340.3 260.9c-.2-.4-1.8-1.1-3.4 2 3.5.2 3.6-1.7 3.4-2zM337 238.9c2.5.1 3.3-.8 3.4-1.4 0-.2-.1-.4-.1-.6-.4-.4-1.9-1-3.3 2zM357.4 296.9c-1-.7-1.8-.3-1.9 0-.1.2-.1.9.5 1.4h1.9c-.2-.5-.3-.9-.5-1.4zM331.5 284.9c-.2.4-.1 2.2 3.4 2-1.5-3.1-3.2-2.4-3.4-2zM331.5 260.9c-.2.4-.1 2.2 3.4 2-1.5-3.1-3.2-2.4-3.4-2zM331.5 236.9c-.2.4-.1 2.2 3.4 2-1.5-3.1-3.2-2.4-3.4-2zM335.9 354.3c-.4 0-1.7.9-.3 3.5.2 0 .3.1.5.1 1.6-2.6.2-3.6-.2-3.6zM311.9 322.3c1.9-2.9.4-3.9 0-3.9-.4-.1-1.9 1 0 3.9zM359.9 318.3c-.4 0-1.9 1 0 3.9v-3.9zM335.9 334.3c1.9-2.9.4-3.9 0-3.9-.4-.1-1.9 1 0 3.9zM335.9 306.3c-.4 0-1.9 1 0 3.9 1.9-2.8.4-3.9 0-3.9zM340.3 356.9c-.2-.3-1.6-1-3 1.2.8.1 1.6.1 2.5.1.7-.5.7-1.1.5-1.3zM313 322.9c3.5.2 3.6-1.6 3.4-2-.3-.4-1.9-1.1-3.4 2zM337 334.9c3.5.2 3.6-1.6 3.4-2-.3-.4-1.9-1.1-3.4 2zM340.3 308.9c-.2-.4-1.8-1.1-3.4 2 3.5.2 3.6-1.7 3.4-2zM355.5 344.9c-.2.3-.1 1.4 1.5 1.8.3-.5.5-1 .8-1.5-1.2-1.1-2.1-.6-2.3-.3zM332.1 356.6c.5.2 1.1.5 1.8.7-.8-.7-1.4-.8-1.8-.7zM310.9 322.9c-.3-.6-.6-1.1-.9-1.4 0 .5-.1.9-.1 1.4h1zM358.9 322.9c-1.5-3.1-3.2-2.3-3.4-2-.2.3-.1 2.2 3.4 2zM331.5 332.9c-.2.4-.1 2.2 3.4 2-1.5-3.1-3.2-2.4-3.4-2zM331.5 308.9c-.2.4-.1 2.2 3.4 2-1.5-3.1-3.2-2.4-3.4-2zM313.3 298.3l-.3.6c1.5.1 2.4-.2 2.9-.6h-2.6zM357.9 298.3H356c.4.3 1 .6 2.1.6-.1-.2-.2-.4-.2-.6z"/></g><use xlink:href="#XMLID_6_" style="overflow:visible;fill:none;stroke:#263238;stroke-linecap:round;stroke-linejoin:round;stroke-miterlimit:10"/><path class="st9" d="M353 203.2c4.5-7.3 10.1-10.8 13.8-13.8 3.7-3 5-3.2 3.5-4.5-1.5-1.3-6.3-.6-10.8 3.2-4.5 3.7-9.7 9.3-9.7 9.3s2.4-6.9 5.2-11.5c2.8-4.7 7.4-14.3 8.7-17.7 1.3-3.4-1.3-6-4.5-3.9-3.2 2-6 6.5-7.8 11.4-1.9 4.8-8.4 16.2-10.2 16.6s-1.7-3.7-.7-7.3c.9-3.5 4.7-14.3 6.3-18.2 1.7-3.9 1.9-6.7.2-7.3-1.7-.6-6.3 2.6-8.9 10.6-2.6 8-5.5 21.6-5.5 21.6s-2.9-8.3-6.9-12.6c-4-4.3-8 .5-12.3 5.9-4.3 5.4 3 6.7 4.3 4.6 2.6-4.4 6.3-8.4 6.7.9.2 4.8.4 14.6-2.2 16.3-2.6 1.7-12.6-1.4-12.6-1.4s1.1-3.1 2.3-7.1c1.1-4 2-6.9 0-9.1-2-2.3-4.3 2-4.3 2s-7.7 8.3-6.9 13.7c.9 5.4 12.3 17.1 15.4 21.4 3.1 4.3 1.5 17.7 1.5 27.3 0 9.6-2.5 27.8-5 45.7 0 .2-.1.5-.1.7 3.9 4.1 12 10.1 25.6 9.6 9.1-.3 15.6-4.9 19.9-9.9-2.9-8.6-6.5-17-9.2-24-6-15.6-9.5-43.9-9.5-43.9s3.7-6 5.4-11.4c2-5.4 3.8-9.9 8.3-17.2z"/><path class="st2" d="M325.6 230.6s-1.7-7.1.7-11.5c2.4-4.5 6-5.8 6-5.8"/></g></svg>