<svg version="1.1" id="Calque_1" xmlns="http://www.w3.org/2000/svg" xmlns:xlink="http://www.w3.org/1999/xlink" x="0" y="0" viewBox="-172 295.9 250 250" style="enable-background:new -172 295.9 250 250" xml:space="preserve"><style>.st2{fill:#00749a}.st3{fill:#464342}.st4{fill:#fff}</style><path d="M-172 295.9H78v250h-250v-250z" style="fill:#1fb8db"/><defs><path id="SVGID_1_" d="M-136.8 331.1H42.7v179.6h-179.5z"/></defs><clipPath id="SVGID_2_"><use xlink:href="#SVGID_1_" style="overflow:visible"/></clipPath><g style="clip-path:url(#SVGID_2_)"><path class="st2" d="M322.2 401.8H291v3.3c9.7 0 11.3 2.1 11.3 14.4v22.3c0 12.4-1.6 14.6-11.3 14.6-7.5-1-12.5-5-19.5-12.7l-8-8.7c10.8-1.9 16.5-8.7 16.5-16.4 0-9.6-8.2-16.9-23.5-16.9H226v3.3c9.7 0 11.3 2.1 11.3 14.4v22.3c0 12.4-1.6 14.6-11.3 14.6v3.3h34.6v-3.3c-9.7 0-11.3-2.3-11.3-14.6v-6.3h3l19.3 24.2h50.6c24.9 0 35.7-13.2 35.7-29.1 0-15.7-10.8-28.7-35.7-28.7zm-72.9 28.4V407h7.1c7.8 0 11.3 5.4 11.3 11.7 0 6.1-3.5 11.5-11.3 11.5h-7.1zm73.4 24.1h-1.2c-6.3 0-7.1-1.6-7.1-9.6V407h8.4c18.1 0 21.4 13.2 21.4 23.5-.1 10.6-3.4 23.8-21.5 23.8zM129 436.6l12-35.5c3.5-10.3 1.9-13.2-9.2-13.2v-3.5h32.7v3.5c-11 0-13.6 2.6-17.9 15.3l-19.8 59.5h-2.3l-17.8-54.5-18.1 54.5h-2.3L67 403.2c-4.2-12.7-7-15.3-17.1-15.3v-3.5h38.6v3.5c-10.3 0-13.1 2.4-9.4 13.2l11.7 35.5 17.6-52.2h3.3l17.3 52.2zM188.2 462c-19.1 0-34.8-14.1-34.8-31.3 0-17.1 15.7-31.2 34.8-31.2 19.1 0 34.8 14.1 34.8 31.2 0 17.2-15.7 31.3-34.8 31.3zm0-57.1c-16 0-21.6 14.4-21.6 25.8 0 11.5 5.6 25.8 21.6 25.8 16.2 0 21.8-14.3 21.8-25.8-.1-11.3-5.6-25.8-21.8-25.8z"/><path class="st3" d="M400.8 456.3v3.5H361v-3.5c11.7 0 13.7-3 13.7-20.4v-27.8c0-17.4-2.1-20.2-13.7-20.2v-3.5h36c17.9 0 27.8 9.2 27.8 21.6 0 12-9.9 21.4-27.8 21.4h-9.9v8.5c0 17.4 2.1 20.4 13.7 20.4zm-3.8-65.7h-9.9v30.3h9.9c9.7 0 14.3-6.8 14.3-15 0-8.3-4.5-15.3-14.3-15.3zM544.4 443.4l-.9 3.1c-1.6 5.7-3.5 7.8-15.8 7.8h-2.4c-9 0-10.6-2.1-10.6-14.4v-8c13.6 0 14.6 1.2 14.6 10.3h3.3v-25.9h-3.3c0 9-1 10.3-14.6 10.3V407h9.6c12.4 0 14.3 2.1 15.8 7.8l.9 3.3h2.8l-1.2-16.4h-51.2v3.3c9.7 0 11.3 2.1 11.3 14.4v22.3c0 11.3-1.3 14.2-9 14.6-7.3-1.1-12.3-5.1-19.2-12.6l-8-8.7c10.8-1.9 16.5-8.7 16.5-16.4 0-9.6-8.2-16.9-23.5-16.9h-30.6v3.3c9.7 0 11.3 2.1 11.3 14.4v22.3c0 12.4-1.6 14.6-11.3 14.6v3.3h34.6v-3.3c-9.7 0-11.3-2.3-11.3-14.6v-6.3h3l19.3 24.2H546l1-16.4-2.6.2zm-92.2-13.2V407h7.1c7.8 0 11.3 5.4 11.3 11.7 0 6.1-3.5 11.5-11.3 11.5h-7.1zM579.7 462c-7 0-13.1-3.7-15.7-5.9-.9.9-2.4 3.5-2.8 5.9H558v-24h3.5c1.4 11.5 9.4 18.3 19.7 18.3 5.6 0 10.1-3.1 10.1-8.4 0-4.5-4-8-11.1-11.3l-9.9-4.7c-7-3.3-12.2-9.1-12.2-16.7 0-8.4 7.8-15.5 18.6-15.5 5.7 0 10.6 2.1 13.6 4.5.9-.7 1.7-2.6 2.3-4.7h3.3V420h-3.7c-1.2-8.2-5.7-15-15-15-4.9 0-9.4 2.8-9.4 7.1 0 4.5 3.7 7 12 10.8l9.6 4.7c8.4 4 11.7 10.4 11.7 15.7-.1 11-9.7 18.7-21.4 18.7zM633.3 462c-7 0-13.1-3.7-15.7-5.9-.9.9-2.4 3.5-2.8 5.9h-3.3v-24h3.5c1.4 11.5 9.4 18.3 19.7 18.3 5.6 0 10.1-3.1 10.1-8.4 0-4.5-4-8-11.1-11.3l-9.9-4.7c-7-3.3-12.2-9.1-12.2-16.7 0-8.4 7.8-15.5 18.6-15.5 5.7 0 10.6 2.1 13.6 4.5.9-.7 1.7-2.6 2.3-4.7h3.3V420h-3.7c-1.2-8.2-5.7-15-15-15-4.9 0-9.4 2.8-9.4 7.1 0 4.5 3.7 7 12 10.8l9.6 4.7c8.4 4 11.7 10.4 11.7 15.7 0 11-9.6 18.7-21.3 18.7z"/><path class="st4" d="M-124 420.9c0 30.5 17.7 56.8 43.4 69.3l-36.7-100.7c-4.3 9.6-6.7 20.2-6.7 31.4zM5 417c0-9.5-3.4-16.1-6.4-21.2-3.9-6.3-7.6-11.7-7.6-18.1 0-7.1 5.4-13.7 12.9-13.7.3 0 .7 0 1 .1-13.7-12.6-32-20.2-52-20.2-26.9 0-50.6 13.8-64.3 34.7 1.8.1 3.5.1 5 .1 8.1 0 20.5-1 20.5-1 4.2-.2 4.6 5.9.5 6.3 0 0-4.2.5-8.8.7l28 83.4 16.9-50.5-12-32.9c-4.1-.2-8.1-.7-8.1-.7-4.2-.2-3.7-6.6.5-6.3 0 0 12.7 1 20.3 1 8.1 0 20.5-1 20.5-1 4.2-.2 4.6 5.9.5 6.3 0 0-4.2.5-8.8.7l27.8 82.8 7.7-25.7C2.5 431.2 5 423.6 5 417z"/><path class="st4" d="m-45.6 427.6-23.1 67.1c6.9 2 14.2 3.1 21.8 3.1 9 0 17.6-1.6 25.6-4.4-.2-.3-.4-.7-.5-1.1l-23.8-64.7zM20.6 383.9c.3 2.5.5 5.1.5 7.9 0 7.8-1.5 16.6-5.9 27.6l-23.5 68C14.6 474.1 30 449.3 30 420.9c0-13.4-3.4-26-9.4-37z"/><path class="st4" d="M-47 331.1c-49.5 0-89.8 40.3-89.8 89.8s40.3 89.8 89.8 89.8 89.8-40.3 89.8-89.8S2.5 331.1-47 331.1zm0 175.5c-47.2 0-85.7-38.4-85.7-85.7 0-47.2 38.4-85.7 85.7-85.7 47.2 0 85.7 38.4 85.7 85.7 0 47.2-38.5 85.7-85.7 85.7z"/></g></svg>