<svg height="512" viewBox="0 0 32 32" width="512" xmlns="http://www.w3.org/2000/svg"><path d="M26 32H6a6 6 0 0 1-6-6V6a6 6 0 0 1 6-6h20a6 6 0 0 1 6 6v20a6 6 0 0 1-6 6z" fill="#f5e6fe"/><g fill="#be63f9"><path d="M14.833 19.667H14.5a.165.165 0 0 0-.167.167V21.5c0 .093.073.167.167.167h.333A.165.165 0 0 0 15 21.5v-1.667a.165.165 0 0 0-.167-.166zM11.5 19.667H11v2h.5a.165.165 0 0 0 .167-.167v-1.667a.165.165 0 0 0-.167-.166z"/><path d="M19.167 16.667a2.5 2.5 0 0 1-2.5-2.5v-2.333c0-.953.547-1.78 1.333-2.2A2.934 2.934 0 0 1 18.513 8h-8.68C8.82 8 8 8.82 8 9.833v12.333C8 23.18 8.82 24 9.833 24H19.5c1.013 0 1.833-.82 1.833-1.833v-5.5zm-6.5 4.833c0 .64-.527 1.167-1.167 1.167h-1a.504.504 0 0 1-.5-.5v-3c0-.273.227-.5.5-.5h1c.64 0 1.167.527 1.167 1.167zm3.333 0c0 .64-.527 1.167-1.167 1.167H14.5c-.64 0-1.167-.527-1.167-1.167v-1.667c0-.64.527-1.167 1.167-1.167h.333c.64 0 1.167.527 1.167 1.167zm1.833.167h1a.5.5 0 0 1 0 1h-1a1.168 1.168 0 0 1-1.167-1.167v-1.667c0-.643.523-1.167 1.167-1.167h1a.5.5 0 0 1 0 1h-1a.167.167 0 0 0-.167.167V21.5a.169.169 0 0 0 .167.167z"/></g><path d="M22.167 11.667h-2.333a.5.5 0 0 1-.5-.5v-1.5a1.668 1.668 0 0 1 3.333 0v1.5a.5.5 0 0 1-.5.5zm-1.834-1h1.333v-1a.666.666 0 1 0-1.333 0z" fill="#d9a4fc"/><path d="M22.833 15.333h-3.667a1.168 1.168 0 0 1-1.167-1.167v-2.333c0-.643.523-1.167 1.167-1.167h3.667c.643 0 1.167.523 1.167 1.167v2.333c0 .644-.523 1.167-1.167 1.167z" fill="#d9a4fc"/></svg>