<svg height="512" viewBox="0 0 32 32" width="512" xmlns="http://www.w3.org/2000/svg"><path d="M26 32H6a6 6 0 0 1-6-6V6a6 6 0 0 1 6-6h20a6 6 0 0 1 6 6v20a6 6 0 0 1-6 6z" fill="#fff9dd"/><path d="M10.667 12.5a3.171 3.171 0 0 1 3.167-3.167h6.089A1.832 1.832 0 0 0 18.167 8H10.5a1.835 1.835 0 0 0-1.833 1.833v10.333c0 1.012.822 1.834 1.833 1.834h.167z" fill="#ffe777"/><path d="M21.5 10.667h-7.667A1.835 1.835 0 0 0 12 12.5v9.667c0 1.011.822 1.833 1.833 1.833H21.5a1.835 1.835 0 0 0 1.833-1.833V12.5a1.835 1.835 0 0 0-1.833-1.833zM20.167 22h-5a.5.5 0 0 1 0-1h5a.5.5 0 0 1 0 1zm0-2.667h-5a.5.5 0 0 1 0-1h5a.5.5 0 0 1 0 1zm0-2.333h-5a.5.5 0 0 1 0-1h5a.5.5 0 0 1 0 1zm0-2.667h-5a.5.5 0 0 1 0-1h5a.5.5 0 0 1 0 1z" fill="#ffd200"/></svg>