<svg height="512" viewBox="0 0 32 32" width="512" xmlns="http://www.w3.org/2000/svg"><path d="M26 32H6a6 6 0 0 1-6-6V6a6 6 0 0 1 6-6h20a6 6 0 0 1 6 6v20a6 6 0 0 1-6 6z" fill="#ffe6e2"/><g fill="#fc573b"><path d="M11.333 19.667H11v.667h.333a.33.33 0 0 0 .333-.333.329.329 0 0 0-.333-.334zM14.833 19.667h-.5v2h.5A.165.165 0 0 0 15 21.5v-1.667a.165.165 0 0 0-.167-.166z"/><path d="M17.333 15.333A3.334 3.334 0 0 1 14 12c0-1.32.78-2.493 1.94-3.027.187-.36.413-.687.687-.973H9.833C8.82 8 8 8.82 8 9.833v12.333C8 23.18 8.82 24 9.833 24H19.5c1.013 0 1.833-.82 1.833-1.833v-6.833h-4zm-6 6H11v.833c0 .273-.227.5-.5.5s-.5-.227-.5-.5v-3c0-.273.227-.5.5-.5h.833c.733 0 1.333.6 1.333 1.333a1.336 1.336 0 0 1-1.333 1.334zM16 21.5c0 .64-.527 1.167-1.167 1.167h-1a.504.504 0 0 1-.5-.5v-3c0-.273.227-.5.5-.5h1c.64 0 1.167.527 1.167 1.167zm2.833-1.167a.5.5 0 0 1 0 1h-1.167v.833a.5.5 0 0 1-1 0v-2.333c0-.643.523-1.167 1.167-1.167h1a.5.5 0 0 1 0 1h-1a.167.167 0 0 0-.167.167v.5z"/></g><path d="M21.667 14h-4.333c-1.103 0-2-.897-2-2 0-.972.696-1.784 1.616-1.963A2.844 2.844 0 0 1 19.667 8c.999 0 1.924.532 2.429 1.375A2.33 2.33 0 0 1 24 11.667 2.336 2.336 0 0 1 21.667 14z" fill="#fd907e"/></svg>