<svg height="512" viewBox="0 0 32 32" width="512" xmlns="http://www.w3.org/2000/svg"><path d="M26 32H6a6 6 0 0 1-6-6V6a6 6 0 0 1 6-6h20a6 6 0 0 1 6 6v20a6 6 0 0 1-6 6z" fill="#e3f8fa"/><g fill="#26c6da"><path d="M14.667 19.667h-.333v.667h.333c.186-.001.333-.147.333-.334s-.147-.333-.333-.333zM11.333 19.667H11v.667h.333a.33.33 0 0 0 .333-.333.329.329 0 0 0-.333-.334z"/><path d="M19.5 18.333a5.844 5.844 0 0 1-5.833-5.833c0-1.807.827-3.427 2.127-4.5h-5.96C8.82 8 8 8.82 8 9.833v12.333C8 23.18 8.82 24 9.833 24H19.5c1.013 0 1.833-.82 1.833-1.833V18.04a5.919 5.919 0 0 1-1.833.293zm-8.167 3H11v.833c0 .273-.227.5-.5.5s-.5-.227-.5-.5v-3c0-.273.227-.5.5-.5h.833c.733 0 1.333.6 1.333 1.333a1.336 1.336 0 0 1-1.333 1.334zm3.334 0h-.333v.833c0 .273-.227.5-.5.5s-.5-.227-.5-.5v-3c0-.273.227-.5.5-.5h.833C15.4 18.667 16 19.267 16 20s-.6 1.333-1.333 1.333zm4.166-1.666H18.5v2.5a.5.5 0 0 1-1 0v-2.5h-.333a.5.5 0 0 1 0-1h1.667a.5.5 0 1 1-.001 1z"/></g><path d="M19.5 8c-2.481 0-4.5 2.019-4.5 4.5s2.019 4.5 4.5 4.5 4.5-2.019 4.5-4.5S21.981 8 19.5 8zm1.833 5.167h-1.167v1.167a.667.667 0 0 1-1.334 0v-1.167h-1.167a.667.667 0 0 1 .002-1.334h1.167v-1.167a.667.667 0 0 1 1.334 0v1.167h1.167a.667.667 0 1 1-.002 1.334z" fill="#8ce1eb"/></svg>