<svg height="512" viewBox="0 0 32 32" width="512" xmlns="http://www.w3.org/2000/svg"><path d="M26 32H6a6 6 0 0 1-6-6V6a6 6 0 0 1 6-6h20a6 6 0 0 1 6 6v20a6 6 0 0 1-6 6z" fill="#f5e6fe"/><path d="M20.833 8h-9.667a1.835 1.835 0 0 0-1.833 1.833v12.333c0 1.011.822 1.833 1.833 1.833h9.667a1.835 1.835 0 0 0 1.833-1.833V9.833A1.834 1.834 0 0 0 20.833 8zm-.166 10.833a.5.5 0 0 1-.5.5h-3.5v.513l1.416 1.133a.666.666 0 1 1-.833 1.041l-1.25-1-1.25 1a.666.666 0 1 1-.833-1.041l1.416-1.133v-.513h-3.5a.5.5 0 0 1-.5-.5v-5a.5.5 0 0 1 .5-.5h8.333a.5.5 0 0 1 .5.5v5z" fill="#be63f9"/></svg>