<svg height="512" viewBox="0 0 32 32" width="512" xmlns="http://www.w3.org/2000/svg"><path d="M26 32H6a6 6 0 0 1-6-6V6a6 6 0 0 1 6-6h20a6 6 0 0 1 6 6v20a6 6 0 0 1-6 6z" fill="#e3f8fa"/><path d="M20.833 8h-9.667a1.835 1.835 0 0 0-1.833 1.833v12.333c0 1.011.822 1.833 1.833 1.833h9.667a1.835 1.835 0 0 0 1.833-1.833V9.833A1.834 1.834 0 0 0 20.833 8zm-6.896 12.591a.5.5 0 1 1-.874.486l-.396-.714-.396.714a.5.5 0 0 1-.874-.486l.698-1.257-.698-1.257a.5.5 0 1 1 .874-.486l.396.714.396-.714a.5.5 0 0 1 .874.486l-.698 1.257zm2.896.742h-1.667a.5.5 0 0 1-.5-.5v-3a.5.5 0 0 1 1 0v2.5h1.167a.5.5 0 0 1 0 1zm2.362-2.5h.277c.659 0 1.195.561 1.195 1.25s-.536 1.25-1.195 1.25H18.5a.5.5 0 0 1 0-1h.972c.105 0 .195-.115.195-.25s-.089-.25-.195-.25h-.277c-.659 0-1.195-.561-1.195-1.25s.536-1.25 1.195-1.25h.972a.5.5 0 0 1 0 1h-.972c-.105 0-.195.115-.195.25 0 .136.089.25.195.25z" fill="#26c6da"/></svg>