<svg height="512" viewBox="0 0 32 32" width="512" xmlns="http://www.w3.org/2000/svg"><path d="M26 32H6a6 6 0 0 1-6-6V6a6 6 0 0 1 6-6h20a6 6 0 0 1 6 6v20a6 6 0 0 1-6 6z" fill="#e3f8fa"/><g fill="#26c6da"><path d="M18.667 15.667h-.333v.667h.333a.334.334 0 0 0 0-.667z"/><path d="M22.167 11.333h-7.293l-1.187-1.187a.504.504 0 0 0-.354-.146h-3.5A1.835 1.835 0 0 0 8 11.833v8.333C8 21.178 8.822 22 9.833 22h12.333A1.835 1.835 0 0 0 24 20.167v-7a1.836 1.836 0 0 0-1.833-1.834zM13.5 17.667a.5.5 0 0 1 0 1h-1.667a.5.5 0 0 1-.437-.743l1.254-2.257h-.817a.5.5 0 0 1 0-1H13.5a.5.5 0 0 1 .437.743l-1.254 2.257zm2.667.5a.5.5 0 0 1-1 0v-3a.5.5 0 0 1 1 0zm2.5-.834h-.333v.833a.5.5 0 0 1-1 0v-3a.5.5 0 0 1 .5-.5h.833a1.335 1.335 0 0 1 0 2.667z"/></g></svg>