<svg xmlns="http://www.w3.org/2000/svg" viewBox="0 0 750 500" style="enable-background:new 0 0 750 500" xml:space="preserve"><style>.st0{opacity:.1}.st1{fill:#e0e0e0}.st2{fill:#f5f5f5}.st6{fill:#7879e8}.st7{fill:#263238}.st8{fill:#455a64}.st9{fill:#fafafa}.st11{fill:#ffbe9d}.st12{fill:#eb996e}.st14{opacity:.3}</style><g id="Background_Complete"><g class="st0"><path class="st1" d="M231.4 357.4h20.3v81.1h-20.3zM261.2 375.1h20.3v63.4h-20.3zM291.5 389.6h20.3v48.9h-20.3zM319.6 409.5h20.3v29h-20.3z"/></g><g class="st0"><path class="st2" d="m592.6 126.1 59.4 3c-1.6 32.6-29.8 58.1-62.4 56.4-32.6-1.6-58.1-29.8-56.4-62.4 1.6-32.6 29.8-58.1 62.4-56.4 5.2.3 10.3 1.2 15.3 2.8l-18.3 56.6z"/><path class="st1" d="M623.2 72.2 607 115.4l45.5.7c.1.1-1.3-26.3-29.3-43.9z"/></g><g class="st0"><path class="st1" d="M76.8 293.4v-43.9c24.1 0 43.9 19.8 43.9 43.9 0 24.1-19.8 43.9-43.9 43.9-23.7 0-43.4-19.2-43.9-42.9l43.9-1z"/><path class="st2" d="m66.1 281.5-43.9 1c0-11.4 4.5-23.4 12.5-31.6 8-8.2 19.4-13 30.8-13.3l.6 43.9z"/></g><g class="st0"><path class="st1" d="m669.7 178.1 6.5-11.3 6.5-11.4 6.6 11.4 6.5 11.3h-9v43.7h-8.1v-43.7z"/></g><path style="opacity:.1;fill:#f5f5f5" d="m694.5 140.1 4.1-7 4-7 4 7 4.1 7h-5.6v27h-5v-27z"/></g><g id="Plant"><path class="st6" d="M602.6 342.7c-5.3-3.3-11.3-5.4-17.5-6-2.9-.3-6-.2-8.3 1.5-.5.4-1 .9-.9 1.5.1.4.5.8.8 1 7.2 5.5 18 6.2 25.9 2M602.1 342.2c-4-3.1-7.9-6.2-11.3-9.9-3.4-3.7-6.1-8.2-7.1-13.1-.3-1.5-.4-3.2.6-4.4 9 7 16.1 16.1 17.8 27.4"/><path class="st6" d="M602.5 342.6c-.7-4.9-.9-10 .2-14.8 1.1-4.8 3.8-9.5 7.9-12.2 1.6 3.6.9 7.8-.2 11.6-1.7 5.9-4.4 11.5-7.8 16.5M611.3 358.5c-5.4.7-10 3.5-14 7.1-4 3.6-6.9 8.5-8 13.8 5.3-.3 9.7-4 13-8.2 3.2-4.2 5.4-8.7 9-12.7M613.3 361c-4.3-10.6-2.8-23.5 4-32.7 3 10.8 1.9 23.1-4 32.7M624.9 374.9c-4.9-.3-9.8.9-14 3.3-4.2 2.4-7.7 6.1-9.9 10.5-.3.6-.6 1.3-.2 1.9.3.5 1 .5 1.6.5 4.7-.3 8.9-3.1 12.3-6.4 3.5-3.2 6.5-7 10.3-9.8M624.6 374.2c-2.5-8-2.7-16.8-.4-24.9.9-3.2 2.4-6.6 5.3-8.1.3-.1.5-.2.8-.1.3.1.4.4.5.6 1.1 2.2 1.4 4.7 1.3 7.1-.1 2.4-.6 4.8-1.1 7.2-.9 4.4-1.4 9.2-3.9 13-.6.9-1.1 1.9-1.5 2.9-.5 1-.5 1.3-.9 2.1M655.4 378.8c-2.3-8.7.1-19.3 5.6-26.4.4-.5.9-1.1 1.6-1 1 .1 1.3 1.4 1.2 2.5-.3 8.8-3.3 17.5-8.4 24.9M658.2 380.7c10.6 2.8 22.7.1 31.5-6.4-5.2-2.6-11.4-3.4-17.1-2.1-5.6 1.3-10.8 3.8-14.4 8.5M660.6 374.9c5.9-9.7 17.3-16 28.6-16.5-1.3 4.6-5.1 8.2-9.4 10.3-4.3 2.2-9 3.1-13.7 4-1.8.3-4.3.7-5.5 2.2M656 346.7c1.6-5.5 3.2-11 3.7-16.8.4-5.7-.4-11.7-3.3-16.6-5.5 10.7-6.1 23.2-.5 33.9M674.7 337.3c6.5-11.8 19.7-21.2 33-22.5-5.1 12.9-19.2 22.8-33 22.5M670.6 339.6c9.7 1.5 17.9 7.6 26.9 11.4 1.9.8 4 1.4 6.1 1.2 2.1-.3 4.1-1.7 4.6-3.7.4-1.7-.4-3.5-1.6-4.7-1.2-1.2-2.8-2-4.4-2.7-9.8-4.1-20.4-4.2-30.7-1.7"/><path class="st6" d="M665 346.4c2.2.6 2.9 1.8 4.7 3.2 5.9 5 12.9 8.6 20.4 10.5.8.2 1.8.3 2.2-.4.3-.6-.1-1.4-.5-1.9-3.1-3.9-7.6-6.6-12.3-8.4-4.7-1.8-8.8-3.9-14.4-3.4M658.7 305.5c7.8 7.3 18.9 11.1 29.6 10.1.5 0 1-.1 1.3-.5.7-.8-.1-2.1-1-2.7-8.7-6.8-19.2-9.6-29.9-6.9"/><path class="st6" d="M666.2 302.8c10.4-7.8 24.6-10.1 36.9-6.1-4.7 4.6-11.1 7-17.6 7.7-6.5.7-13 0-19.3-1.6M663.2 284c-.9-8.7-.3-15.5-.9-24.3 0-.7-.2-1.5-.9-1.8-.9-.3-1.7.8-2 1.7-2.6 8-1.2 17.3 3.7 24.2"/><path class="st6" d="M662.6 284.9c5.9-3.6 10.3-8.4 14.4-14 2.8-3.9 5.2-8.5 4.6-13.3-4-.1-7.8 2.1-10.4 5.2-2.6 3-4.1 6.8-5.3 10.6-1.2 3.9-2 7.8-3.3 11.5M676.7 281c12.9-4.8 25-11.9 35.4-20.9-4.2-1.7-9.1-.7-13.3 1-9.7 3.9-17.6 10.5-22.3 19.8M666.6 289.7c6.5.7 13.2 1.2 19.7.1 6.4-1.1 12.4-3.6 18.4-6.1.5-.2 1-.5 1.2-.9.2-.5 0-1.2-.4-1.6-.4-.4-1-.6-1.6-.7-6.5-1.8-13.5-1-19.8 1.2-6.5 2.1-11.7 4.6-17.5 8M629.2 305.8c-4.5-9-4.2-19.5-.3-28.8 2.7 4.1 3 9.4 2.5 14.3s-2 10-2.1 14.9M611.4 296.8c-11.1-.2-22.3 4.5-29.8 12.7 5.6.9 11.3-.6 16.3-3 5.1-2.5 9.5-5.9 14-9.4M599.5 292.8c-5.4-.4-10.7-1.1-15.9.5-5.2 1.6-10 5.2-12.1 10.3 5.1.6 10.3-.7 14.9-2.8 4.6-2.1 8.8-5.1 13.1-8M617.2 293c-4.9-3.2-9.9-6.5-15.6-7.8-5.7-1.3-12.3-.3-16.3 4 4.6 2.7 10.2 3 15.6 3s11.9-.1 17 1.7"/><path class="st6" d="M617.2 293.3c-8.4-8.2-11.6-23-8.2-34.2 6.6 9.9 9.6 22.3 8.2 34.2M640.2 269.9c1.6-3.7 2.7-7.5 4.1-11.3 1.4-3.7 3.2-7.4 5.9-10.4s6.4-5.2 10.4-5.4c-2.5 11.3-10 21.4-20.1 27.1M636.1 274.8c-2.6-3.6-5.6-8.5-9.2-11.2-3.5-2.7-8.2-4.3-12.5-3.3 4.4 7.9 12.7 13.5 21.7 14.5M636.9 270.2c-1.7-4.4-3.4-8.8-4.1-13.4-.7-4.6-.3-9.6 2.1-13.6 4.6 8.7 6.1 18 2.3 27.1M640.3 243.3c2.6-8.6 10.5-15 19-17.9 1.1-.4 2.2-.7 3.3-.5 1.1.2 2.2.9 2.5 2.1.3 1.5-.9 2.8-2 3.8-6.7 5.6-14.5 9.9-22.8 12.5M640.4 236.2c.3-5.6.7-11.2 2.5-16.5 1.8-5.3 5.3-10.2 10.4-12.5.9 5.6-1.6 11.2-4.6 16-3 4.8-6.6 9.4-8.4 14.8M640.2 240c-2.2-6.3-2.4-14.3-6.1-19.7-2.6-3.8-6.8-6.4-9.1-10.5-1.5 3.8-1 8.1.5 11.9 1.6 3.8 4.2 7 7 10s5.2 5.2 7.7 8.3"/><path class="st7" d="M640.3 424.9c-.2 0-.3-41.9-.3-93.5 0-51.7.1-93.5.3-93.5.2 0 .3 41.9.3 93.5 0 51.7-.1 93.5-.3 93.5z"/><path class="st7" d="M676.9 299.5s-.5.2-1.6.6c-1.1.4-2.6.9-4.3 1.5-3.7 1.2-8.7 3-14.1 5.3s-10.5 4.2-13.4 6.7c-1.4 1.2-2.3 2.6-2.7 3.6-.4 1-.5 1.6-.5 1.6v-.4c0-.3.1-.7.3-1.2.4-1 1.2-2.5 2.6-3.8 1.5-1.3 3.5-2.5 5.8-3.6s4.9-2.2 7.6-3.3c5.5-2.2 10.5-4 14.2-5.1 1.8-.6 3.4-1 4.4-1.3 1.1-.5 1.7-.7 1.7-.6z"/><path class="st7" d="M688.9 270s-.1.2-.4.5c-.4.3-.8.8-1.3 1.3-1.2 1.1-2.9 2.7-5 4.6-4.3 3.9-10.2 9.1-16.7 14.9-6.5 5.8-12.2 11.3-16.1 15.5-2 2.1-3.5 3.8-4.5 5-.5.6-.9 1-1.2 1.4-.3.3-.4.5-.5.5 0 0 .1-.2.4-.5.3-.3.6-.8 1.1-1.5 1-1.3 2.5-3 4.4-5.2 3.8-4.3 9.4-9.9 16-15.7 6.5-5.8 12.5-11 16.8-14.7 2.1-1.8 3.9-3.3 5.1-4.4.6-.5 1-.9 1.4-1.2.3-.4.5-.5.5-.5z"/><path class="st7" d="M658.4 297.1c-.2-.1 1.2-3.2 2.5-7.2 1.4-4 2-7.3 2.2-7.3.2 0-.2 3.5-1.6 7.5-.7 2-1.4 3.8-2 5-.6 1.3-1.1 2-1.1 2zM640.3 322.4s-.4-.4-1-1.2c-.7-.9-1.5-2-2.6-3.3-2.2-2.8-5.2-6.7-8.5-10.9-3.4-4.2-6.4-8-8.7-10.7-1.1-1.3-1.9-2.4-2.6-3.3l-.9-1.2 1.1 1.1c.7.7 1.6 1.8 2.8 3.1 2.3 2.7 5.5 6.4 8.8 10.6 3.4 4.2 6.3 8.1 8.4 11 1 1.4 1.9 2.6 2.4 3.4.6.9.9 1.4.8 1.4z"/><path class="st7" d="M632.3 312.1c-.1.1-2.2-2.4-3.4-6.3-.8-2.7-.9-5.2-.8-6.3h.3c-.1.5-.2.7-.3.7 0 0-.1-.3 0-.8h.3c.1 1.1.3 3.5 1.1 6.2 1.1 3.8 3 6.4 2.8 6.5zM621.9 299.1c-.1.1-.8-.8-2.3-1.4-1.6-.6-3.9-.7-6.5-.5-2.6.2-4.9.7-6.6 1.1-1.7.4-2.7.7-2.7.6 0-.1.9-.5 2.6-1.1 1.6-.5 4-1.1 6.6-1.3 2.6-.2 5.1 0 6.7.7 1.7.9 2.3 1.9 2.2 1.9zM619.5 295.9c0 .1-1.4-.5-3.6-1.3s-5.4-1.6-9-1.8c-3.6-.3-6.8 0-9.2.5-2.3.4-3.7.8-3.8.7 0 0 .3-.2 1-.4.6-.2 1.6-.5 2.7-.8 2.3-.5 5.6-.9 9.3-.6 3.6.3 6.9 1.2 9.1 2 1.1.4 2 .8 2.6 1.2.6.3.9.5.9.5zM640.2 282.6c-.2 0-1.3-4-2.6-9.1s-2.2-9.2-2-9.3c.2 0 1.3 4 2.6 9.1s2.2 9.2 2 9.3z"/><path class="st7" d="M640.4 282.6c-.2.1-.9-2.7-2.9-5.5-1.9-2.8-4.4-4.3-4.3-4.4 0-.1.7.2 1.7.9.9.7 2.1 1.8 3.1 3.2 2.1 2.9 2.6 5.8 2.4 5.8zM640.3 402.6c-.1 0-.2-1-.7-2.8-.5-1.8-1.3-4.3-2.8-7.3-2.9-5.9-8.2-13.4-14.9-20.9-3.3-3.8-6.5-7.4-9.3-10.8-2.7-3.4-5-6.7-6.6-9.6-1.6-2.9-2.7-5.3-3.3-7.1-.3-.9-.5-1.6-.7-2-.1-.5-.2-.7-.2-.7.1 0 .4 1 1 2.7.7 1.7 1.8 4.1 3.5 7 1.7 2.8 3.9 6 6.7 9.4 2.7 3.4 6 6.9 9.3 10.7 6.7 7.5 12 15.1 14.8 21.1 1.4 3 2.2 5.6 2.6 7.4.2.9.3 1.6.4 2.1.2.6.2.8.2.8zM673.4 365.3s-.6.4-1.7 1-2.7 1.6-4.5 3c-1.8 1.4-3.8 3.2-5.9 5.4-2.1 2.2-4.2 4.7-6.4 7.5-4.4 5.5-8.4 10.3-10.9 14.2-1.2 1.9-2.1 3.5-2.7 4.7-.6 1.1-.9 1.8-1 1.7 0 0 0-.2.2-.5.1-.3.3-.8.6-1.4.5-1.2 1.4-2.8 2.6-4.8 2.4-4 6.4-8.9 10.8-14.3 2.2-2.7 4.3-5.3 6.5-7.5 2.1-2.2 4.2-4 6.1-5.3 1.9-1.4 3.5-2.3 4.6-2.8.6-.3 1-.5 1.4-.6.1-.3.3-.4.3-.3z"/><path class="st7" d="M674 377.4c0 .1-1.4.3-3.7.5-2.3.3-5.4.7-8.7 1.7-3.3 1.1-6 2.7-7.8 4.1-1.8 1.4-2.6 2.5-2.7 2.5 0 0 .1-.3.5-.8s1-1.2 1.9-2c1.7-1.5 4.5-3.2 7.9-4.3 3.4-1.1 6.6-1.4 8.8-1.6 2.4-.2 3.8-.2 3.8-.1z"/><path class="st7" d="M652.2 384.8c-.2-.1 1.5-2.6 2.7-6 1.2-3.4 1.5-6.4 1.7-6.4.1 0 .1.8-.1 2-.1 1.2-.4 2.9-1.1 4.6-.6 1.8-1.5 3.2-2.1 4.2-.5 1.1-1 1.7-1.1 1.6zM684.1 332.7l-.6.3c-.5.2-1 .5-1.7.8-.8.3-1.7.7-2.7 1.3-1 .5-2.2 1.1-3.5 1.8-.6.4-1.3.7-2 1.1-.7.4-1.4.9-2.1 1.3-1.5.9-2.9 2-4.5 3.1-3.1 2.3-6.3 5.1-9.4 8.3-3.1 3.2-5.7 6.6-8 9.7-1.1 1.6-2.1 3.1-3 4.6-.4.7-.9 1.4-1.3 2.2-.4.7-.7 1.4-1.1 2-.7 1.3-1.2 2.5-1.7 3.6-.5 1-.9 2-1.2 2.7-.3.7-.5 1.3-.7 1.7l-.3.6s0-.2.2-.6c.2-.5.4-1.1.6-1.8.3-.8.6-1.7 1.1-2.8.5-1.1 1-2.3 1.6-3.6.3-.7.7-1.4 1-2.1.4-.7.8-1.4 1.2-2.2.8-1.5 1.9-3.1 2.9-4.7 2.2-3.2 4.9-6.6 8-9.8 3.1-3.2 6.4-6 9.5-8.3 1.6-1.1 3.1-2.2 4.6-3.1.7-.5 1.4-.9 2.1-1.3.7-.4 1.4-.8 2-1.1 1.3-.7 2.5-1.3 3.6-1.8s2-.9 2.8-1.2c.7-.3 1.3-.5 1.8-.7.6.1.8 0 .8 0z"/><path class="st7" d="M657.9 350.3c-.1 0 .2-1 1.4-2.1s3.3-2.2 5.8-2.2c2.5-.1 4.6.6 6.1 1.2s2.3 1.1 2.3 1.1c0 .1-1-.2-2.4-.7-1.5-.5-3.6-1.1-5.9-1-2.3.1-4.4 1-5.5 1.9-1.3.9-1.7 1.8-1.8 1.8zM654 354.3c-.2-.1 1.3-2.3 1.6-5.4.4-3.1-.6-5.5-.4-5.6.1 0 .4.5.7 1.6.3 1 .5 2.5.3 4.1-.2 1.6-.7 3-1.2 3.9-.5 1-1 1.4-1 1.4z"/><path class="st8" d="M611.4 408.6c.9 16 5.7 32.3 13.1 48.7h32.3c7.1-16.3 11.6-32.5 12.4-48.7h-57.8z"/><path class="st9" d="M663.9 434.5c0 .2-10.6.3-23.7.3s-23.7-.1-23.7-.3c0-.2 10.6-.3 23.7-.3s23.7.1 23.7.3zM663.2 440.3c0 .2-10 .3-22.2.3-12.3 0-22.2-.1-22.2-.3 0-.2 10-.3 22.2-.3s22.2.1 22.2.3z"/></g><g id="Chart_2"><path class="st7" d="M577.5 432.8H423.2c-2.2 0-4-1.8-4-4v-67c0-2.2 1.8-4 4-4h154.4c2.2 0 4 1.8 4 4v67c0 2.2-1.8 4-4.1 4z"/><path class="st8" d="M430.6 409.5v2.4h-.2v-2.2h-.6v-.2h.8zM431.1 410.7c0-.8.4-1.2.9-1.2s.9.5.9 1.2c0 .8-.4 1.2-.9 1.2s-.9-.4-.9-1.2zm1.7 0c0-.6-.3-1-.7-1-.4 0-.7.3-.7 1 0 .6.3 1 .7 1 .4 0 .7-.3.7-1zM431.5 397v.2h-1.7v-.2l1-1c.3-.3.3-.4.3-.6 0-.3-.2-.4-.6-.4-.3 0-.5.1-.6.3l-.2-.1c.2-.2.5-.3.8-.3.5 0 .8.2.8.6 0 .2-.1.4-.4.7l-.8.8h1.4zM431.8 396c0-.8.4-1.2.9-1.2s.9.5.9 1.2c0 .8-.4 1.2-.9 1.2s-.9-.5-.9-1.2zm1.7 0c0-.6-.3-1-.7-1-.4 0-.7.3-.7 1 0 .6.3 1 .7 1 .4 0 .7-.4.7-1zM431.5 381.8c0 .4-.3.7-.9.7-.3 0-.7-.1-.9-.3l.1-.2c.2.2.4.3.7.3.4 0 .6-.2.6-.5s-.2-.5-.6-.5h-.2v-.2l.7-.8h-1.2v-.2h1.5v.2l-.7.8c.6 0 .9.3.9.7zM431.8 381.3c0-.8.4-1.2.9-1.2s.9.5.9 1.2c0 .8-.4 1.2-.9 1.2s-.9-.5-.9-1.2zm1.7 0c0-.6-.3-1-.7-1-.4 0-.7.3-.7 1 0 .6.3 1 .7 1 .4-.1.7-.4.7-1zM441 418.5c0-.8.4-1.2.9-1.2s.9.5.9 1.2c0 .8-.4 1.2-.9 1.2s-.9-.4-.9-1.2zm1.7 0c0-.6-.3-1-.7-1-.4 0-.7.3-.7 1 0 .6.3 1 .7 1 .4 0 .7-.4.7-1zM458.6 417.3v2.4h-.2v-2.2h-.6v-.2h.8zM477.1 419.5v.2h-1.7v-.2l1-1c.3-.3.3-.4.3-.6 0-.3-.2-.4-.6-.4-.3 0-.5.1-.6.3l-.2-.1c.2-.2.5-.3.8-.3.5 0 .8.2.8.6 0 .2-.1.4-.4.7l-.8.8h1.4zM494.5 419c0 .4-.3.7-.9.7-.3 0-.7-.1-.9-.3l.1-.2c.2.2.4.3.7.3.4 0 .6-.2.6-.5s-.2-.5-.6-.5h-.2v-.2l.7-.8h-1.2v-.2h1.5v.2l-.7.8c.7.1.9.3.9.7zM512.5 419.1h-.5v.6h-.2v-.6h-1.3v-.2l1.3-1.6h.3l-1.2 1.5h1v-.5h.2v.5h.5v.3zM529.7 419c0 .4-.3.7-.9.7-.3 0-.7-.1-.9-.3l.1-.2c.2.2.4.3.7.3.4 0 .6-.2.6-.5s-.2-.5-.8-.5h-.5l.1-1.2h1.3v.2h-1.1l-.1.8h.3c.9 0 1.2.3 1.2.7zM547.4 419c0 .4-.3.7-.8.7-.6 0-1-.4-1-1.2 0-.8.4-1.2 1.1-1.2.2 0 .4 0 .6.1l-.1.2c-.1-.1-.3-.1-.5-.1-.5 0-.8.3-.8 1v.2c.1-.3.4-.4.7-.4.4 0 .8.3.8.7zm-.3 0c0-.3-.2-.5-.6-.5-.4 0-.6.2-.6.5s.2.5.6.5c.4 0 .6-.2.6-.5zM564.8 417.3v.2l-1 2.2h-.3l1-2.2h-1.2v.4h-.3v-.7h1.8zM564.9 410.8c0 .1-27.4.2-61.3.2s-61.3-.1-61.3-.2 27.4-.2 61.3-.2 61.3.1 61.3.2zM564.9 396c0 .1-27.4.2-61.3.2s-61.3-.1-61.3-.2 27.4-.2 61.3-.2 61.3.1 61.3.2zM564.9 381.2c0 .1-27.4.2-61.3.2s-61.3-.1-61.3-.2 27.4-.2 61.3-.2 61.3.1 61.3.2z"/><path class="st8" d="M442.3 410.6c0 .4-.4.8-.8.8s-.8-.4-.8-.8.4-.8.8-.8c.5 0 .8.4.8.8zM460 410.6c0 .4-.4.8-.8.8s-.8-.4-.8-.8.4-.8.8-.8.8.4.8.8zM477.6 410.6c0 .4-.4.8-.8.8s-.8-.4-.8-.8.4-.8.8-.8.8.4.8.8zM495.2 410.6c0 .4-.4.8-.8.8s-.8-.4-.8-.8.4-.8.8-.8c.5 0 .8.4.8.8zM512.8 410.6c0 .4-.4.8-.8.8s-.8-.4-.8-.8.4-.8.8-.8.8.4.8.8zM548.1 410.6c0 .4-.4.8-.8.8s-.8-.4-.8-.8.4-.8.8-.8.8.4.8.8zM530.5 410.6c0 .4-.4.8-.8.8s-.8-.4-.8-.8.4-.8.8-.8.8.4.8.8zM565.7 410.6c0 .4-.4.8-.8.8s-.8-.4-.8-.8.4-.8.8-.8.8.4.8.8zM450.4 410.8c0 .3-.2.5-.5.5s-.5-.2-.5-.5.2-.5.5-.5c.2 0 .5.3.5.5zM468.1 410.8c0 .3-.2.5-.5.5s-.5-.2-.5-.5.2-.5.5-.5c.2 0 .5.3.5.5zM485.8 410.8c0 .3-.2.5-.5.5s-.5-.2-.5-.5.2-.5.5-.5c.2 0 .5.3.5.5zM503.4 410.8c0 .3-.2.5-.5.5s-.5-.2-.5-.5.2-.5.5-.5.5.3.5.5zM521.1 410.8c0 .3-.2.5-.5.5s-.5-.2-.5-.5.2-.5.5-.5.5.3.5.5zM538.8 410.8c0 .3-.2.5-.5.5s-.5-.2-.5-.5.2-.5.5-.5.5.3.5.5zM556.5 410.8c0 .3-.2.5-.5.5s-.5-.2-.5-.5.2-.5.5-.5.5.3.5.5z"/><path class="st6" d="M461.1 404.3c0 1.1-.9 1.9-1.9 1.9-1.1 0-1.9-.9-1.9-1.9 0-1.1.9-1.9 1.9-1.9 1 0 1.9.8 1.9 1.9zM476.5 395.2c0 1.1-.9 1.9-1.9 1.9-1.1 0-1.9-.9-1.9-1.9 0-1.1.9-1.9 1.9-1.9 1 0 1.9.9 1.9 1.9zM495.6 396c0 1.1-.9 1.9-1.9 1.9-1.1 0-1.9-.9-1.9-1.9 0-1.1.9-1.9 1.9-1.9 1 0 1.9.9 1.9 1.9zM514.2 379.5c0 1.1-.9 1.9-1.9 1.9-1.1 0-1.9-.9-1.9-1.9 0-1.1.9-1.9 1.9-1.9 1 0 1.9.9 1.9 1.9zM531.6 390c0 1.1-.9 1.9-1.9 1.9-1.1 0-1.9-.9-1.9-1.9 0-1.1.9-1.9 1.9-1.9 1 0 1.9.9 1.9 1.9zM549.2 392.8c0 1.1-.9 1.9-1.9 1.9-1.1 0-1.9-.9-1.9-1.9 0-1.1.9-1.9 1.9-1.9 1.1 0 1.9.9 1.9 1.9z"/><path class="st6" d="M565.7 404.3h-.5c-.3 0-.7-.1-1.3-.2-1.1-.2-2.9-.7-4.6-2.2-.9-.7-1.6-1.7-2.3-2.9-.6-1.2-1.4-2.4-2.4-3.7-1-1.2-2.3-2.4-4-2.8-.8-.2-1.8-.2-2.6.1-.9.3-1.7.8-2.4 1.4-1.5 1.3-2.6 3-4.1 4.7-.7.8-1.6 1.6-2.6 2.1-1.1.5-2.3.6-3.5.3-1.2-.3-2.1-1.3-2.6-2.4-.5-1.1-.8-2.3-1.1-3.5-.3-1.2-.5-2.4-1.1-3.6-.3-.6-.6-1.1-1.1-1.4-.5-.3-1.2-.3-1.8-.3-1.3.1-2.5.4-3.9.7-.7.1-1.3.2-2 .2s-1.4-.1-2.1-.4c-.7-.3-1.2-.8-1.7-1.4-.4-.6-.7-1.2-1-1.9-.6-1.3-.9-2.7-1.4-4-.3-.6-.5-1.3-.9-1.9-.4-.6-.9-1-1.5-1.3-.2 0-.3-.1-.5-.1h-.5c-.3 0-.6 0-.9.2-.6.3-1 .9-1.4 1.5-.7 1.2-1.2 2.6-1.6 4.1-.4 1.4-.8 2.9-1.1 4.3-.6 2.4-1.1 4.9-1.7 7.2-.3 1.2-.7 2.4-1.1 3.5-.4 1.1-.9 2.3-1.8 3.2-.5.4-1.1.8-1.7.8-.6 0-1.3-.2-1.8-.5-1.1-.6-1.8-1.6-2.5-2.5-1.3-1.9-2.2-4.1-3-6.1-.8-2-1.8-4-3.4-5.4-1.5-1.4-3.8-1.9-5.7-1.4-1 .2-1.9.7-2.7 1.2-.8.5-1.6 1.1-2.4 1.7-1.5 1.2-2.8 2.6-3.9 4-1.9 1.9-3.8 3.5-5.8 4.8-2 1.4-4 2.5-6 3.2-2 .7-4 1.2-5.8 1-1.8-.2-3.4-.7-4.9-1.2-2.8-1-4.9-2.1-6.3-2.9-.7-.4-1.2-.7-1.6-.9-.4-.2-.5-.3-.5-.3s.2.1.5.3c.4.2.9.5 1.6.9 1.4.7 3.5 1.8 6.3 2.8 1.4.5 3 1 4.8 1.1 1.8.2 3.8-.3 5.7-1 2-.8 3.9-1.9 5.9-3.2 1.9-1.4 3.9-3 5.7-4.8 1.2-1.4 2.5-2.8 4-4 .7-.6 1.5-1.2 2.4-1.7.9-.5 1.8-1 2.8-1.2 2-.5 4.4 0 6 1.5 1.7 1.5 2.6 3.5 3.5 5.6.8 2.1 1.7 4.2 3 6 .6.9 1.4 1.8 2.4 2.4.5.3 1 .5 1.6.5.5 0 1-.3 1.4-.6.8-.8 1.3-1.9 1.7-3 .4-1.1.8-2.3 1.1-3.5.6-2.4 1.1-4.8 1.7-7.2.3-1.5.7-2.9 1.1-4.4.4-1.4.9-2.9 1.7-4.2.4-.6.9-1.3 1.6-1.6.4-.2.8-.3 1.2-.2l.6.1c.2 0 .4.1.6.2.7.3 1.3.8 1.7 1.4.4.6.7 1.3 1 2 .5 1.3.9 2.7 1.4 4 .5 1.2 1.2 2.5 2.4 3 1.2.6 2.6.4 3.9.1 1.3-.2 2.6-.6 3.9-.7.7 0 1.4.1 2 .4.6.3 1 1 1.3 1.5.5 1.2.8 2.5 1.1 3.7.3 1.2.6 2.4 1.1 3.4.5 1.1 1.3 1.9 2.4 2.2 1.1.3 2.2.2 3.2-.3 1-.4 1.8-1.2 2.5-2 1.4-1.6 2.6-3.4 4.1-4.7.8-.6 1.6-1.2 2.6-1.4.9-.3 1.9-.3 2.8-.1 1.8.4 3.1 1.7 4.1 2.9 1 1.2 1.7 2.5 2.4 3.7.6 1.2 1.3 2.2 2.2 2.9 1.7 1.5 3.4 2 4.5 2.2.6.1 1 .2 1.3.2.1-.2.3-.2.3-.2z"/><path class="st7" d="M461.3 371.1c0 .1-6.8.2-15.3.2-8.4 0-15.3-.1-15.3-.2s6.8-.2 15.3-.2c8.5-.1 15.3 0 15.3.2z"/></g><g id="Chart_1"><path class="st7" d="M551.6 345.9h-330c-5.2 0-9.4-4.2-9.4-9.4V52.1c0-5.2 4.2-9.4 9.4-9.4h330c5.2 0 9.4 4.2 9.4 9.4v284.4c-.1 5.2-4.3 9.4-9.4 9.4z"/><path class="st8" d="M560.9 62.5c0 .1-78.1.2-174.3.2-96.3 0-174.4-.1-174.4-.2s78-.2 174.4-.2c96.3 0 174.3.1 174.3.2z"/><ellipse class="st8" cx="231.4" cy="52.3" rx="2.1" ry="2.2"/><ellipse class="st8" cx="238.8" cy="52.3" rx="2.1" ry="2.2"/><path class="st8" d="M248.2 52.3c0 1.2-.9 2.2-2.1 2.2-1.2 0-2.1-1-2.1-2.2 0-1.2.9-2.2 2.1-2.2 1.2.1 2.1 1.1 2.1 2.2zM474.5 193.9c-4.8-.6-9.7 1.1-14.4-.1-10.5-2.5-16.2-17.9-26.9-19.8-7.5-1.3-14.4 4.6-20.3 10.3-5.9 5.7-12.7 11.7-20.2 10.6-12.1-1.8-18.4-20.8-30.5-22.1-3.2-.3-6.4.7-9.6.5-10.3-.4-17.5-11.9-21.8-22.7-2.1-5.3-3.9-10.9-7-15.6-3-4.7-7.6-8.5-12.6-8.5-4.4-.1-8.5 2.7-11.5 6.4s-5 8.3-6.8 12.9c-8.1 20.2-16.1 44.9-21.9 66.1l215.1-.2c-1.4-7-6.8-17.2-11.6-17.8z"/><path class="st6" d="M256.1 317.1c0 .8-.6 1.4-1.4 1.4-.8 0-1.4-.6-1.4-1.4 0-.8.6-1.4 1.4-1.4.7 0 1.4.6 1.4 1.4zM269.4 317.3c0 .1-2.4.3-5.3.3s-5.3-.1-5.3-.3c0-.1 2.4-.3 5.3-.3s5.3.1 5.3.3z"/><path class="st8" d="M288.4 317.1c0 .8-.6 1.4-1.4 1.4-.8 0-1.4-.6-1.4-1.4 0-.8.6-1.4 1.4-1.4.8 0 1.4.6 1.4 1.4zM301.7 317.3c0 .1-2.4.3-5.3.3s-5.3-.1-5.3-.3c0-.1 2.4-.3 5.3-.3s5.3.1 5.3.3z"/><circle class="st6" cx="253.8" cy="114.9" r="1.8"/><path class="st6" d="M272.8 115.1c0 .1-3.1.3-6.9.3-3.8 0-6.9-.1-6.9-.3 0-.1 3.1-.3 6.9-.3 3.8 0 6.9.2 6.9.3z"/><circle class="st8" cx="290.1" cy="114.9" r="1.8"/><path class="st8" d="M309.1 115.1c0 .1-3.1.3-6.9.3-3.8 0-6.9-.1-6.9-.3 0-.1 3.1-.3 6.9-.3 3.8 0 6.9.2 6.9.3z"/><path class="st1" d="M256.3 99.7h-2.9l-.6 1.3h-1.5l2.8-6.2h1.4l2.8 6.2h-1.5l-.5-1.3zm-.4-1.1-1-2.4-1 2.4h2zM263.8 98.3v2.7h-1.4v-2.5c0-.8-.4-1.1-1-1.1-.7 0-1.1.4-1.1 1.3v2.4h-1.4v-4.8h1.3v.6c.4-.4.9-.6 1.6-.6 1.2-.1 2 .5 2 2zM269.3 98.3v2.7H268v-.6c-.3.4-.8.7-1.5.7-1.1 0-1.8-.6-1.8-1.5 0-.8.6-1.4 2.1-1.4h1.1c0-.6-.4-.9-1.1-.9-.5 0-1 .2-1.4.4l-.5-1c.5-.4 1.3-.6 2.1-.6 1.5.1 2.3.7 2.3 2.2zm-1.4 1.2V99h-1c-.7 0-.9.2-.9.6 0 .3.3.6.8.6.6 0 1-.2 1.1-.7zM270.6 94.4h1.4v6.6h-1.4v-6.6zM278 96.2l-2.2 5.1c-.5 1.2-1.1 1.5-2 1.5-.5 0-1-.2-1.3-.4l.5-1c.2.2.5.3.8.3.4 0 .6-.2.8-.6l-2.1-4.8h1.4l1.3 3.3 1.4-3.3h1.4zM281.8 100.8c-.3.2-.7.3-1.1.3-1.1 0-1.8-.6-1.8-1.7v-2h-.7v-1.1h.7v-1.2h1.4v1.2h1.2v1.1h-1.2v2c0 .4.2.6.6.6.2 0 .4-.1.6-.2l.3 1zM282.4 94.8c0-.4.3-.8.9-.8.5 0 .9.3.9.7 0 .5-.3.8-.9.8-.5.1-.9-.3-.9-.7zm.2 1.4h1.4v4.8h-1.4v-4.8zM284.9 98.6c0-1.4 1.1-2.5 2.7-2.5 1 0 1.8.4 2.1 1.2l-1.1.6c-.3-.5-.6-.7-1.1-.7-.7 0-1.3.5-1.3 1.3s.6 1.3 1.3 1.3c.4 0 .8-.2 1.1-.7l1.1.6c-.3.8-1.1 1.2-2.1 1.2-1.6.2-2.7-.8-2.7-2.3zM290.1 100.6l.5-1c.4.3 1.1.5 1.7.5.6 0 .9-.2.9-.4 0-.8-2.9 0-2.9-1.9 0-.9.8-1.6 2.2-1.6.7 0 1.4.2 1.8.4l-.5 1c-.5-.3-.9-.4-1.4-.4-.6 0-.9.2-.9.4 0 .8 2.9 0 2.9 1.9 0 .9-.8 1.5-2.3 1.5-.7.1-1.6-.1-2-.4z"/><path class="st8" d="M254.6 136.4v.7h-2.9v-.6l1.5-1.4c.3-.3.4-.5.4-.7 0-.3-.2-.5-.6-.5-.3 0-.6.1-.8.4l-.7-.4c.3-.4.8-.7 1.5-.7.9 0 1.4.4 1.4 1.1 0 .4-.1.7-.6 1.2l-.9.8h1.7zM255 135.2c0-1.3.7-2 1.7-2s1.7.7 1.7 2-.7 2-1.7 2-1.7-.7-1.7-2zm2.4 0c0-.9-.3-1.3-.8-1.3-.4 0-.8.4-.8 1.3s.3 1.2.8 1.2c.5.1.8-.3.8-1.2zM260.2 136l-.4.4v.8h-.9V133h.9v2.3l1.3-1.2h1l-1.2 1.3 1.4 1.7h-1l-1.1-1.1zM253.2 151.9v3.9h-.9v-3.2h-.8v-.7h1.7zM256.8 154.6c0 .7-.5 1.3-1.6 1.3-.5 0-1.1-.1-1.5-.4l.4-.7c.3.2.7.4 1.1.4.5 0 .7-.2.7-.5s-.2-.5-.9-.5h-1l.2-2.2h2.4v.7H255l-.1.7h.3c1.2-.1 1.6.5 1.6 1.2zM258.6 154.6l-.4.4v.8h-.9v-4.1h.9v2.3l1.3-1.2h1l-1.2 1.3 1.4 1.7h-1l-1.1-1.2zM253.2 170.5v3.9h-.9v-3.2h-.8v-.7h1.7zM253.9 172.5c0-1.3.7-2 1.7-2s1.7.7 1.7 2-.7 2-1.7 2-1.7-.8-1.7-2zm2.4 0c0-.9-.3-1.3-.8-1.3-.4 0-.8.4-.8 1.3s.3 1.2.8 1.2.8-.4.8-1.2zM259.1 173.2l-.4.4v.8h-.9v-4.1h.9v2.3l1.3-1.2h1l-1.2 1.3 1.4 1.7h-1l-1.1-1.2zM254.6 191.8c0 .7-.5 1.3-1.6 1.3-.5 0-1.1-.1-1.5-.4l.4-.7c.3.2.7.3 1.1.3.5 0 .7-.2.7-.5s-.2-.5-.9-.5h-1l.2-2.2h2.4v.7h-1.6l-.1.7h.3c1.2.1 1.6.6 1.6 1.3zM256.5 191.8l-.4.4v.8h-.9v-4.1h.9v2.3l1.3-1.2h1l-1.2 1.3 1.4 1.7h-1l-1.1-1.2zM251.7 209.7c0-1.3.7-2 1.7-2s1.7.7 1.7 2-.7 2-1.7 2-1.7-.7-1.7-2zm2.4 0c0-.9-.3-1.3-.8-1.3-.4 0-.8.4-.8 1.3s.3 1.2.8 1.2.8-.3.8-1.2zM256.9 210.5l-.4.4v.8h-.9v-4.1h.9v2.3l1.3-1.2h1l-1.2 1.3 1.4 1.7h-1l-1.1-1.2zM528.3 136c0 .1-59.5.3-132.9.3s-133-.1-133-.3 59.5-.3 133-.3c73.3 0 132.9.1 132.9.3zM528.3 154.9c0 .1-59.5.3-132.9.3s-133-.1-133-.3 59.5-.3 133-.3c73.3.1 132.9.2 132.9.3zM528.3 173.9c0 .1-59.5.3-132.9.3s-133-.1-133-.3c0-.1 59.5-.3 133-.3 73.3.1 132.9.2 132.9.3zM528.3 192.9c0 .1-59.5.3-132.9.3s-133-.1-133-.3 59.5-.3 133-.3c73.3.1 132.9.2 132.9.3zM528.3 211.9c0 .1-59.5.3-132.9.3s-133-.1-133-.3 59.5-.3 133-.3c73.3.1 132.9.2 132.9.3z"/><path class="st6" d="M263.7 211.9c13.6-1.8 25.4-7.3 35.6-13.1s19-12.5 28.6-18.6c3.8-2.4 8.3-4.9 13.7-4.8 5.5.1 10 2.9 12.7 5.8 2.7 2.9 4.3 6.3 7.7 8.9 1.9 1.5 4.7 2.9 7.8 2.9 4.6 0 8.2-3 12.8-2.9 6 .1 8.8 4.8 14.4 6.1 4.5 1.1 9.7-.3 13.4-2.1 3.8-1.9 7-4.2 11.3-5.6 6.8-2.2 15.3-1.4 22.1.7 6.8 2.1 10.9 7.1 16.2 10.5 7.1 4.4 15.6 11 23 12.2H263.7z"/><path class="st8" d="M274.8 300.2c-13.6 0-24.6-11-24.6-24.6 0-13.6 11-24.6 24.6-24.6 13.6 0 24.6 11 24.6 24.6.1 13.6-11 24.6-24.6 24.6zm0-44.2c-10.8 0-19.6 8.8-19.6 19.6s8.8 19.6 19.6 19.6 19.6-8.8 19.6-19.6c.1-10.8-8.7-19.6-19.6-19.6z"/><path class="st6" d="M274.8 301.2c-2.6 0-5.2-.4-7.7-1.2-2.1-.7-3.3-2.9-2.6-5 .7-2.1 2.9-3.3 5-2.6 9.5 3 19.7-2.4 22.7-11.9 1.4-4.6 1-9.5-1.3-13.8-2.3-4.3-6-7.4-10.7-8.9-2.1-.7-3.3-2.9-2.6-5 .7-2.1 2.9-3.3 5-2.6 6.7 2.1 12.1 6.6 15.4 12.8 3.2 6.2 3.9 13.2 1.8 19.9-3.5 11.2-13.8 18.3-25 18.3z"/><path class="st1" d="M270 278.2h-1.3v1.7h-1.9v-1.7h-4.4v-1.3l3.9-5.2h2l-3.6 4.9h2.2v-1.5h1.8v1.5h1.3v1.6zM276.8 277.3c0 1.5-1.1 2.7-3.4 2.7-1.1 0-2.3-.3-3.1-.9l.8-1.5c.6.5 1.5.7 2.3.7.9 0 1.5-.4 1.5-1.1 0-.6-.4-1.1-1.9-1.1h-2.1l.4-4.6h5v1.5h-3.4l-.1 1.6h.7c2.3.2 3.3 1.3 3.3 2.7zM277.3 273.9c0-1.4.8-2.3 2-2.3s2 .9 2 2.3-.8 2.3-2 2.3-2-.9-2-2.3zm2.9 0c0-.9-.3-1.3-.9-1.3-.5 0-.9.4-.9 1.3s.4 1.3.9 1.3.9-.4.9-1.3zm4-2.2h1.4l-5.6 8.2h-1.4l5.6-8.2zm-1.3 6.1c0-1.4.8-2.3 2-2.3s2 .9 2 2.3-.8 2.3-2 2.3c-1.2-.1-2-1-2-2.3zm2.8 0c0-.9-.3-1.3-.9-1.3-.5 0-.9.4-.9 1.3s.4 1.3.9 1.3c.6 0 .9-.5.9-1.3z"/><path class="st8" d="M349.9 254v.6h-2.3v-.5l1.2-1.1c.3-.3.3-.4.3-.6 0-.2-.2-.4-.5-.4s-.5.1-.6.3l-.5-.3c.2-.3.7-.6 1.2-.6.7 0 1.1.3 1.1.9 0 .3-.1.6-.5.9l-.7.7h1.3zM350.2 253.1c0-1 .5-1.6 1.3-1.6.7 0 1.3.6 1.3 1.6s-.5 1.6-1.3 1.6-1.3-.6-1.3-1.6zm1.8 0c0-.7-.2-1-.6-1-.3 0-.6.3-.6 1s.2 1 .6 1c.4 0 .6-.3.6-1zM354.2 253.7l-.3.3v.6h-.7v-3.2h.7v1.8l1-.9h.8l-1 1 1 1.3h-.8l-.7-.9zM348.8 266v3h-.7v-2.4h-.6v-.6h1.3zM351.6 268.1c0 .5-.4 1-1.2 1-.4 0-.9-.1-1.1-.3l.3-.5c.2.2.5.3.9.3.3 0 .6-.1.6-.4 0-.2-.2-.4-.7-.4h-.8l.2-1.7h1.8v.6h-1.3v.6h.2c.7-.2 1.1.2 1.1.8zM353 268.1l-.3.3v.6h-.7v-3.2h.7v1.8l1-.9h.8l-1 1 1 1.3h-.8l-.7-.9zM348.8 280.4v3h-.7V281h-.6v-.6h1.3zM349.3 281.9c0-1 .5-1.6 1.3-1.6.7 0 1.3.6 1.3 1.6s-.5 1.6-1.3 1.6c-.7-.1-1.3-.6-1.3-1.6zm1.9 0c0-.7-.2-1-.6-1-.3 0-.6.3-.6 1s.2 1 .6 1c.4-.1.6-.3.6-1zM353.4 282.5l-.3.3v.6h-.7v-3.2h.7v1.8l1-.9h.8l-1 1 1 1.3h-.8l-.7-.9zM349.9 296.8c0 .5-.4 1-1.2 1-.4 0-.9-.1-1.1-.3l.3-.5c.2.2.5.3.9.3.3 0 .6-.1.6-.4 0-.2-.2-.4-.7-.4h-.8l.2-1.7h1.8v.6h-1.3v.6h.2c.8-.1 1.1.3 1.1.8zM351.3 296.9l-.3.3v.6h-.7v-3.2h.7v1.8l1-.9h.8l-1 1 1 1.3h-.8l-.7-.9zM347.6 310.7c0-1 .5-1.6 1.3-1.6.7 0 1.3.6 1.3 1.6s-.5 1.6-1.3 1.6c-.7-.1-1.3-.7-1.3-1.6zm1.9 0c0-.7-.2-1-.6-1-.3 0-.6.3-.6 1s.2 1 .6 1c.4-.1.6-.4.6-1zM351.7 311.3l-.3.3v.6h-.7V309h.7v1.8l1-.9h.8l-1 1 1 1.3h-.8l-.7-.9zM529.7 253.7c0 .1-38.9.3-86.9.3-48 0-86.9-.1-86.9-.3 0-.1 38.9-.3 86.9-.3 48 0 86.9.1 86.9.3zM529.7 268.4c0 .1-38.9.3-86.9.3-48 0-86.9-.1-86.9-.3s38.9-.3 86.9-.3c48 0 86.9.1 86.9.3zM529.7 283c0 .1-38.9.3-86.9.3-48 0-86.9-.1-86.9-.3 0-.1 38.9-.3 86.9-.3 48 .1 86.9.2 86.9.3zM529.7 297.7c0 .1-38.9.3-86.9.3-48 0-86.9-.1-86.9-.3 0-.1 38.9-.3 86.9-.3 48 0 86.9.2 86.9.3zM529.7 312.4c0 .1-38.9.3-86.9.3-48 0-86.9-.1-86.9-.3 0-.1 38.9-.3 86.9-.3 48 0 86.9.1 86.9.3z"/><path class="st6" d="M363.4 305.1c-.7 0-1.3-.6-1.3-1.3v-40.5c0-.7.6-1.3 1.3-1.3.7 0 1.3.6 1.3 1.3v40.5c0 .7-.6 1.3-1.3 1.3z"/><path class="st1" d="M371.5 299.3c-.7 0-1.3-.6-1.3-1.3v-21.1c0-.7.6-1.3 1.3-1.3.7 0 1.3.6 1.3 1.3V298c0 .8-.6 1.3-1.3 1.3zM388.6 299.3c-.7 0-1.3-.6-1.3-1.3v-30.9c0-.7.6-1.3 1.3-1.3.7 0 1.3.6 1.3 1.3V298c0 .8-.6 1.3-1.3 1.3zM405.9 303.5c-.7 0-1.3-.6-1.3-1.3v-30.9c0-.7.6-1.3 1.3-1.3.7 0 1.3.6 1.3 1.3v30.9c0 .7-.6 1.3-1.3 1.3zM423.4 303.5c-.7 0-1.3-.6-1.3-1.3v-30.9c0-.7.6-1.3 1.3-1.3.7 0 1.3.6 1.3 1.3v30.9c0 .7-.6 1.3-1.3 1.3zM439.8 308.6c-.7 0-1.3-.6-1.3-1.3v-39.7c0-.7.6-1.3 1.3-1.3.7 0 1.3.6 1.3 1.3v39.7c0 .7-.6 1.3-1.3 1.3z"/><path class="st6" d="M482 302.1c-.7 0-1.3-.6-1.3-1.3v-39.7c0-.7.6-1.3 1.3-1.3.7 0 1.3.6 1.3 1.3v39.7c0 .8-.6 1.3-1.3 1.3z"/><path class="st1" d="M491.6 305.6c-.7 0-1.3-.6-1.3-1.3v-39.7c0-.7.6-1.3 1.3-1.3.7 0 1.3.6 1.3 1.3v39.7c0 .7-.6 1.3-1.3 1.3z"/><path class="st6" d="M464.9 302.1c-.7 0-1.3-.6-1.3-1.3v-39.7c0-.7.6-1.3 1.3-1.3.7 0 1.3.6 1.3 1.3v39.7c0 .8-.6 1.3-1.3 1.3zM397.1 296c-.7 0-1.3-.6-1.3-1.3v-39.4c0-.7.6-1.3 1.3-1.3.7 0 1.3.6 1.3 1.3v39.4c0 .7-.5 1.3-1.3 1.3zM380.3 303.7c-.7 0-1.3-.6-1.3-1.3v-21.1c0-.7.6-1.3 1.3-1.3.7 0 1.3.6 1.3 1.3v21.1c.1.7-.5 1.3-1.3 1.3zM414.4 298.8c-.7 0-1.3-.6-1.3-1.3v-16.4c0-.7.6-1.3 1.3-1.3.7 0 1.3.6 1.3 1.3v16.4c0 .7-.5 1.3-1.3 1.3z"/><path class="st1" d="M472.6 293.9c-.7 0-1.3-.6-1.3-1.3v-16.4c0-.7.6-1.3 1.3-1.3.7 0 1.3.6 1.3 1.3v16.4c0 .7-.6 1.3-1.3 1.3z"/><path class="st6" d="M500.3 298.6c-.7 0-1.3-.6-1.3-1.3v-16.4c0-.7.6-1.3 1.3-1.3.7 0 1.3.6 1.3 1.3v16.4c.1.7-.5 1.3-1.3 1.3z"/><path class="st1" d="M508.3 303.4c-.7 0-1.3-.6-1.3-1.3v-16.4c0-.7.6-1.3 1.3-1.3.7 0 1.3.6 1.3 1.3v16.4c0 .7-.6 1.3-1.3 1.3z"/><path class="st6" d="M517.3 286.4c-.7 0-1.3-.6-1.3-1.3v-16.4c0-.7.6-1.3 1.3-1.3.7 0 1.3.6 1.3 1.3v16.4c.1.7-.5 1.3-1.3 1.3z"/><path class="st1" d="M457.1 298.8c-.7 0-1.3-.6-1.3-1.3v-16.4c0-.7.6-1.3 1.3-1.3.7 0 1.3.6 1.3 1.3v16.4c0 .7-.6 1.3-1.3 1.3z"/><path d="M430.7 295c-.7 0-1.3-.6-1.3-1.3v-16.4c0-.7.6-1.3 1.3-1.3.7 0 1.3.6 1.3 1.3v16.4c0 .7-.6 1.3-1.3 1.3z" style="fill:#5027bd"/><path class="st6" d="M448.2 299c-.7 0-1.3-.6-1.3-1.3v-26.6c0-.7.6-1.3 1.3-1.3.7 0 1.3.6 1.3 1.3v26.6c0 .7-.6 1.3-1.3 1.3z"/><path class="st8" d="M539.9 330.7h.4c.3 0 .7 0 1.2-.1 1-.2 2.5-.6 4.1-1.9.8-.6 1.5-1.5 2.1-2.6.6-1.1 1-2.4 1-3.9V312c0-15.3 0-37.5-.1-64.9v-2.6c0-.9 0-1.7-.1-2.6-.3-1.7-1.1-3.3-2.4-4.6-1.2-1.2-2.9-2.1-4.6-2.4-.9-.2-1.8-.1-2.7-.1H343.3c-2.5 0-5 1.2-6.7 3.1-.8 1-1.4 2.1-1.7 3.3-.3 1.2-.3 2.5-.3 3.8v74.5c0 1.2-.1 2.4.1 3.5s.6 2.2 1.1 3.2c1.2 2 3.1 3.4 5.3 3.9 1.1.3 2.2.3 3.4.3h10.3c36.3 0 68.9 0 96.3.1 27.4 0 49.6.1 64.9.1H538.3c1 .1 1.6.1 1.6.1H516c-15.3 0-37.5 0-64.9.1-27.4 0-60.1 0-96.3.1h-10.3c-1.1 0-2.3 0-3.5-.3-2.3-.6-4.4-2.1-5.6-4.2-.6-1-1-2.2-1.2-3.4-.2-1.2-.1-2.4-.1-3.6v-74.5c0-1.3-.1-2.6.3-3.9.3-1.3 1-2.5 1.8-3.5 1.7-2.1 4.4-3.3 7.1-3.3H538.8c.9 0 1.9 0 2.8.2 1.8.3 3.5 1.3 4.8 2.6 1.3 1.3 2.1 3 2.5 4.8.2.9.1 1.8.1 2.6v2.6c0 27.4-.1 49.6-.1 64.9v10.2c-.1 1.5-.5 2.8-1.1 3.9-.6 1.1-1.4 2-2.2 2.6-1.6 1.3-3.1 1.7-4.1 1.9-.5.1-.9.1-1.2.1-.3.1-.4.1-.4.1zM318.4 330.7s.3 0 1-.1c.6-.1 1.6-.3 2.6-1 1-.6 2.2-1.8 2.8-3.4.3-.8.5-1.8.4-2.8v-3.3c0-9.4 0-23.1-.1-39.9v-39.1c-.1-1.3-.5-2.5-1.3-3.5-.7-1-1.8-1.9-3-2.3-.6-.2-1.2-.4-1.9-.4h-82.8c-1.6 0-3.1.6-4.3 1.5-1.2 1-2 2.4-2.3 3.9-.2.7-.1 1.5-.1 2.3V323.4c0 1.3.2 2.5.8 3.6 1.2 2.2 3.6 3.6 6 3.5h27.6c16.9 0 30.5.1 39.9.1h13.7c.7.1 1 .1 1 .1h-14.7c-9.4 0-23.1 0-39.9.1h-27.6c-2.6.1-5.2-1.4-6.4-3.7-.6-1.2-.9-2.5-.9-3.8V242.5c0-.8 0-1.6.1-2.4.3-1.6 1.2-3.1 2.5-4.2s2.9-1.7 4.6-1.7h82.8c.7.1 1.4.2 2 .5 1.3.5 2.4 1.4 3.2 2.5.8 1.1 1.3 2.4 1.3 3.8v39.1c0 16.9-.1 30.5-.1 39.9v3.3c0 1-.1 2-.5 2.9-.7 1.7-1.9 2.9-2.9 3.5-1.1.6-2 .9-2.7.9-.5.1-.8.1-.8.1zM534.3 76.8h.6c.4 0 1 0 1.8.2 1.5.3 3.9.9 6.3 2.8 1.2.9 2.4 2.2 3.4 3.8 1 1.6 1.7 3.6 2 5.8.1 1.1.1 2.3.1 3.5V104.8c0 23.2 0 56.8.1 98.3v7.9c0 1.3 0 2.7-.1 4-.1 1.3-.4 2.7-.9 4-1 2.6-2.8 4.8-5.1 6.5-1.2.8-2.4 1.5-3.8 1.9-1.4.4-2.8.7-4.2.7H242.9c-4 0-8-1.8-10.7-4.8-1.3-1.5-2.4-3.3-3-5.2-.2-.5-.3-1-.4-1.4-.1-.5-.2-1-.2-1.5l-.1-1.5V94.1c0-1.8-.1-3.6.2-5.4.5-3.6 2.5-6.9 5.3-9.1 1.4-1.1 3-2 4.7-2.5 1.7-.6 3.5-.6 5.2-.6h10.3c54.9 0 104.3 0 145.7.1 41.5 0 75 .1 98.3.1h33.6c1.7 0 2.5.1 2.5.1h-36c-23.2 0-56.8 0-98.3.1-41.5 0-90.9 0-145.7.1H244c-1.7 0-3.4.1-5.1.6-1.6.5-3.2 1.3-4.5 2.4-2.7 2.1-4.6 5.3-5.1 8.8-.3 1.7-.1 3.5-.2 5.3v119.6l.1 1.4c.1.5.1 1 .2 1.4.1.5.2.9.4 1.4.6 1.8 1.6 3.5 2.9 5 2.6 2.9 6.4 4.6 10.3 4.6h291.6c1.4 0 2.8-.3 4.1-.7 1.3-.4 2.5-1.1 3.7-1.8 2.2-1.6 4-3.8 4.9-6.3.5-1.2.8-2.6.9-3.9.1-1.3 0-2.7.1-4v-7.9c0-41.5.1-75.1.1-98.3V92.7c0-1.2 0-2.4-.1-3.5-.2-2.2-1-4.2-2-5.8-1-1.6-2.2-2.9-3.4-3.8-2.4-1.9-4.7-2.5-6.3-2.8-.8-.1-1.4-.2-1.8-.2-.3.2-.5.2-.5.2z"/></g><path class="st7" d="M691.7 457.4c0 .1-142.4.3-318 .3-175.7 0-318-.1-318-.3s142.4-.3 318-.3 318 .1 318 .3z" id="Floor"/><g id="Character"><path class="st8" d="M90.2 421.2 83.7 447l-11.1 19c-.8 1.4-.3 3.1 1.1 3.8.8.4 1.7.4 2.5 0l25-15.5 7.2-25.8-18.2-7.3z"/><path class="st7" d="m76.3 469.8 25-15.5 1.1-3.8-28.8 19.3c0-.1 1.4.7 2.7 0z"/><path class="st8" d="m171 426.8-1.3 20.2s20.1 6.7 20.2 10.4l-39.3.3.8-31.6 19.6.7z"/><path class="st7" d="m150.6 457.8.1-3.2 38 1s1.3.5 1.5 2.1l-39.6.1zM169.3 253l-61.6-3.2-25.5 193.7 24.4 3.1 32.1-160.2 9.4 154 .3 5.6 25.5.6z"/><path class="st8" d="M164.2 442c-.1 0-2.4-35.1-5.1-78.5-2.7-43.3-4.7-78.5-4.6-78.5.1 0 2.4 35.1 5.1 78.5 2.6 43.3 4.7 78.5 4.6 78.5zM121.9 283.7c.1 0-5.9 35.4-13.4 79-7.6 43.6-13.8 78.9-13.9 78.9-.1 0 5.9-35.4 13.4-79s13.7-79 13.9-78.9z"/><path class="st11" d="m56.5 181.5-11.2-16.4c-2.2-3.7-2.9-5.4-2.2-5.8 1-.5.6-.3 5.6 5.8 0 0-7.1-8.8-4-8.1.5.1 1.8 1.4 3.1 2.8-1.7-2.4-2-3.8-1.4-4.3 1-.8 5.4 4.2 7.4 6.6-1.6-2-4.8-5.9-5.2-6.9-.6-1.5 1.2-.9 2.6 0 1.6 1 9.8 8.2 12.3 10.1 1.7 1.3 2.8-.2 2.8-.2 2.1-4.1 5.9-6.1 7.2-6.2 1.3-.1 1.8 1.7.7 2.6-.9.7-2.1 2.4-2.9 3.7-.7 1.1-1.2 2.2-1.4 3.4-.2.8-.3 1.5-.5 2.2l4.5 8.1-14.9 9.5-2.5-6.9z"/><path class="st12" d="M51.1 168.7c-.2.1-1.8-1.7-3.6-4.1-1.8-2.4-3.2-4.4-3-4.5.2-.1 1.8 1.7 3.6 4.1 1.8 2.4 3.1 4.4 3 4.5zM54.6 167.3c-.1.1-2-1.7-4.1-4.1-2.1-2.4-3.7-4.5-3.6-4.6.1-.1 2 1.7 4.1 4.1 2.1 2.4 3.7 4.4 3.6 4.6zM57.4 165.9c-.1.1-1.9-1.6-3.9-3.8-2-2.2-3.6-4.2-3.4-4.3.1-.1 1.9 1.6 3.9 3.8 2.1 2.3 3.6 4.2 3.4 4.3zM57.5 174.7s.4-.4 1.3-.6c.9-.2 2.3-.1 3.4 1l-.4.2c-.1-.5-.2-1.1-.2-1.7-.1-1.9.5-3.5 1.1-4.6.6-1.1 1.2-1.6 1.2-1.5.1.1-.4.6-.9 1.7s-.9 2.6-.9 4.4c0 .6.1 1.1.2 1.6l.2.8-.6-.6c-1-.9-2.2-1.1-3-1-1 .1-1.4.3-1.4.3z"/><path class="st11" d="m120 105.8 4 45.9 10.8 6.4 12-5.8c.1-2.7.2-15.5.2-15.5s9.6-1.5 9.7-11.1c.1-4.6-.6-14.2-1.3-22.9-.8-9.6-9.1-16.8-18.7-16.3-10.1.7-17.6 9.3-16.7 19.3z"/><path class="st12" d="M146.9 136.6s-6 .5-12.5-3.5c0 0 2.9 6.9 12.5 6v-2.5z"/><path class="st7" d="M151.9 109.7c0 .7-.6 1.3-1.3 1.4-.8 0-1.4-.5-1.4-1.2s.6-1.3 1.3-1.4c.8-.1 1.4.5 1.4 1.2zM153.2 107.6c-.2.2-1.2-.6-2.7-.6-1.5 0-2.5.7-2.7.6-.1-.1.1-.4.6-.7.5-.3 1.3-.7 2.2-.7.9 0 1.7.3 2.1.7.5.3.6.7.5.7zM137.5 109.7c0 .7-.6 1.3-1.3 1.4-.8 0-1.4-.5-1.4-1.2s.6-1.3 1.3-1.4c.8-.1 1.4.5 1.4 1.2zM138.8 107.9c-.2.2-1.2-.6-2.7-.6-1.5 0-2.5.7-2.7.6-.1-.1.1-.4.6-.7.5-.3 1.3-.7 2.2-.7.9 0 1.7.3 2.1.7.4.3.6.6.5.7zM144.1 118.8c0-.1.9-.2 2.4-.4.4 0 .7-.1.8-.4.1-.3-.1-.7-.3-1.1-.4-.9-.7-1.9-1.1-2.9-1.5-4.1-2.7-7.4-2.5-7.5.2-.1 1.5 3.2 3.1 7.3.4 1 .7 2 1.1 2.9.1.4.4.9.2 1.5-.1.3-.4.5-.6.5-.2.1-.5.1-.6.1-1.5.1-2.5.1-2.5 0zM139.8 119.8c.2 0 .2 1.6 1.6 2.7 1.4 1.1 3.1 1 3.1 1.2 0 .1-.4.3-1.1.3-.7 0-1.7-.2-2.6-.9-.8-.7-1.2-1.6-1.2-2.3-.1-.6.1-1 .2-1zM139.2 102.2c-.1.4-1.6.2-3.3.4-1.7.2-3.1.7-3.3.3-.1-.2.1-.5.7-.9s1.4-.8 2.5-.9c1-.1 2 .1 2.6.3.5.3.8.6.8.8zM152.7 103.4c-.3.3-1.3 0-2.5 0-1.2-.1-2.2.2-2.5-.1-.1-.2.1-.5.5-.8.4-.3 1.2-.6 2-.5.8 0 1.6.3 2 .7.5.2.6.5.5.7z"/><path class="st7" d="M113.2 93.5c-.1-1.8 1.2-3.7 3-3.8-.7-1.7-.3-3.9 1.1-5.1 1.4-1.2 3.6-1.4 5.2-.5.5-2.1 2.3-3.8 4.4-4.2 2.1-.4 4.4.4 5.7 2.1 1.3-1.6 3.5-2.4 5.6-2.1 2.1.3 3.9 1.8 4.7 3.7 1.8-1.5 4.3-1.9 6.5-1.2 1.4.5 2.6 1.4 3.4 2.6 1.1-.3 2.2-.6 3.3-.5 1.4.1 2.9.9 3.4 2.2.4 1.1 0 2.5-1 3.1 1.7-.4 3.8.8 4.1 2.6.2 1.6-1.1 3.2-2.6 3.6.6.3 1.1 1 1 1.7-.1 1.2-1.2 2-2.2 2.5-2.7 1.2-5.9.8-8.7-.1-2.8-1-5.4-2.4-8.2-3.5-2.8-1-7.5-2.9-10.3-1.9-.4.1-.8.4-1.1.6a7.67 7.67 0 0 0-2.8 4.8v.2c-.4 2.7-.3 5.5-.7 8.2-.4 2.7-1.3 5.5-3.4 7.4-.8.8-2.3 1.3-3 .4-.3-.4-.3-.8-.3-1.3-.4-4.8-1.4-9.1-1.9-13.8-.6-1.2-1.7-2.2-2.6-3.2-1.5-1.1-2.5-2.7-2.6-4.5z"/><path class="st8" d="M141.8 88.7s.2-.4.1-1.3c-.1-.8-.4-2.1-1.5-3.1s-3.1-1.7-5-1c-.9.3-1.9 1-2.4 2.1-.2.6-.2 1.2-.1 1.8.2.6.6 1.1 1.2 1.4.6.2 1.3.2 1.9-.2.6-.4.7-1.1.7-1.7-.1-.6-.4-1.2-.8-1.5-.4-.4-.9-.6-1.4-.8-2-.6-3.9-.1-5.1.8-.6.5-1 1-1.2 1.6-.2.6-.2 1.1-.1 1.5.2.8.7 1.1.7 1.1.1 0-.3-.3-.5-1.1-.1-.4 0-.9.2-1.4.2-.5.6-1 1.2-1.4 1.1-.8 2.9-1.2 4.7-.6.8.3 1.7.9 1.8 1.8 0 .4-.1.9-.4 1.1-.3.3-.9.3-1.3.1-.9-.3-1.2-1.5-.8-2.4.3-.9 1.2-1.5 2-1.8 1.7-.6 3.5-.1 4.6.8 1.1.9 1.5 2.1 1.6 2.8-.1.9-.2 1.4-.1 1.4zM130.1 82.6s-.3-.1-.9-.2c-.6 0-1.4-.1-2.4.1s-2.2.6-3.2 1.6-1.4 2.9-.5 4.3c.1.2.3.4.5.6l.3-.5c-.8-.3-1.7-.1-2.3.3-.6.4-1.1 1.1-1.2 1.7-.3 1.3.2 2.5.7 3.3.6.8 1.2 1.2 1.6 1.5.4.3.7.4.7.4l-.6-.6c-.4-.3-.9-.8-1.4-1.6-.5-.7-.9-1.8-.6-2.9.1-.5.5-1 1-1.4.5-.3 1.2-.5 1.7-.2l1.6.6-1.3-1.1c-.1-.1-.3-.3-.4-.5-.4-.6-.5-1.3-.4-1.9.1-.7.4-1.2.8-1.7.8-.9 1.9-1.4 2.9-1.6 2.2-.2 3.4-.1 3.4-.2zM116.3 92.7c-.1 0-.2.3-.2.9 0 .6.2 1.4.8 2.1.6.7 1.4 1 2 1.1.6.1.9-.1.9-.1 0-.2-1.4-.1-2.5-1.3-1-1.2-.8-2.7-1-2.7zM157.1 87.7s-.3-.3-.9-.7c-.6-.4-1.7-.8-3.1-.8-1.3 0-3 .4-4.3 1.8-.6.6-1.2 1.6-1.1 2.6.1 1.1 1 2.1 2.3 2.1.6-.1 1.2-.5 1.4-1 .2-.5.2-1.1.1-1.6-.3-1.1-1.2-1.7-2.1-2-.9-.3-1.8-.2-2.6 0-.8.3-1.4.7-1.9 1.2-1 .9-1.5 1.9-1.9 2.5-.3.7-.5 1-.5 1s.3-.3.7-.9c.4-.6 1-1.5 2-2.3.9-.8 2.5-1.5 4-1 .7.3 1.5.8 1.7 1.6.2.8-.1 1.8-.9 1.9-.8.1-1.6-.7-1.6-1.5-.1-.8.4-1.6.9-2.2 1.1-1.2 2.7-1.7 3.9-1.7 1.3-.1 2.3.3 2.9.6.7.2 1 .5 1 .4z"/><path class="st11" d="M123.2 110.1c-.2-.1-6.6-1.9-6.4 4.6.2 6.5 6.7 5 6.7 4.8.1-.2-.3-9.4-.3-9.4z"/><path class="st12" d="M121.5 117.1s-.1.1-.3.2c-.2.1-.5.2-.9 0-.7-.2-1.3-1.3-1.4-2.5 0-.6.1-1.2.3-1.6.2-.5.5-.8.8-.9.3-.1.6.1.7.3.1.2.1.3.1.3s.1-.1.1-.4c0-.1-.1-.3-.3-.4-.2-.1-.4-.2-.6-.1-.5.1-.9.5-1.2 1.1-.2.5-.4 1.2-.3 1.8.1 1.3.8 2.5 1.8 2.8.5.1.8 0 1-.2.2-.3.2-.4.2-.4z"/><path class="st6" d="M103.8 193.9c0 1.6 4.7 33.2 4.7 33.2l-9.4 51.5 36.5 1.9 4.3-31.6 4.8 31.6 31.6-3.1-7.2-40 .1-45.8-.4-36.8-13.5-4.6-7-8.2-11.3 7-13.9-8.3-4.4 6L99.1 157c-1.8 3.2 4.7 36.9 4.7 36.9z"/><path d="m123.1 140.7-.5 10 19.2 51.1 7.8-50.2-2.5-9.6-10.1 7.1-13.9-8.4z" style="fill:#fff"/><path class="st7" d="M141.4 203.7s-.2-.2-.5-.6c-.3-.4-.7-1-1.2-1.6-1.1-1.5-2.6-3.6-4.5-6.1-3.8-5.2-8.9-12.4-14.5-20.3-.8-1.1-1.6-2.3-2.4-3.4l-.1-.2.1-.2c1.3-1.9 2.6-3.7 3.8-5.5l.1.4c-3.1-2.3-6-4.4-8.5-6.3l-.1-.1.1-.2c1.5-3.9 2.7-7.1 3.6-9.5.4-1.1.8-1.9 1-2.6.2-.6.4-.9.4-.9l-.3.9c-.2.7-.5 1.5-.9 2.6-.8 2.3-2 5.6-3.5 9.5l-.1-.3c2.5 1.9 5.4 4 8.5 6.2l.2.2-.1.2c-1.2 1.8-2.5 3.6-3.8 5.5v-.3c.8 1.1 1.6 2.2 2.4 3.4 5.6 7.9 10.7 15.1 14.4 20.4 1.8 2.6 3.3 4.7 4.3 6.2.5.7.9 1.3 1.2 1.7.3.7.5.9.4.9z"/><path class="st7" d="M139.8 256.9v-2.2c0-1.5.1-3.4.2-5.8.2-5 .4-11.8.6-19.3.2-7.5.4-14.3.6-19.3.1-2.4.1-4.4.2-5.8 0-.6 0-1.2.1-1.6 0-.4 0-.6.1-.6 0 0 0 .2.1.6v7.4c0 4.9-.2 11.7-.4 19.3-.3 7.5-.6 14.3-.8 19.3-.1 2.4-.3 4.4-.3 5.8 0 .6-.1 1.2-.1 1.6-.3.4-.3.6-.3.6zM142.2 202.2s0-.2.2-.6c.2-.4.4-1 .6-1.6.6-1.5 1.4-3.5 2.4-5.9 2.1-5.1 5-11.9 8.2-19.5.7-1.6 1.3-3.1 2-4.6v.3c-1.6-1.9-3.1-3.7-4.5-5.3l-.1-.2.2-.2c2.4-2.5 4.6-4.8 6.5-6.7v.2c-.9-2.5-1.6-4.5-2.1-6-.2-.7-.4-1.2-.5-1.6-.1-.4-.2-.6-.2-.6s.1.2.3.5c.2.4.4 1 .6 1.6.6 1.5 1.3 3.5 2.2 6v.1l-.1.1c-1.8 1.9-4 4.2-6.4 6.8v-.3c1.4 1.7 2.9 3.5 4.5 5.3l.1.1-.1.2c-.6 1.5-1.3 3-2 4.6-3.2 7.6-6.2 14.4-8.4 19.5-1.1 2.4-1.9 4.4-2.6 5.9-.3.6-.5 1.2-.7 1.6.1.1 0 .3-.1.3z"/><path d="m113.9 159.8 5.6 6.3-3.9 7 24.2 28.7-21.2-30.2 3.8-5.6zM142.8 200.9l13.5-26.4-.4-4.5z" class="st14"/><path class="st7" d="M100.5 160.4s.3.1.7.5c.5.3 1.1.9 1.8 1.6 1.4 1.4 3.1 3.7 4.4 6.5 1.2 2.8 1.7 5.6 1.8 7.6 0 1 0 1.8-.1 2.4-.1.6-.1.9-.2.9s0-1.2-.2-3.2-.7-4.7-1.9-7.4c-1.2-2.8-2.8-5-4.2-6.4-1.2-1.7-2.2-2.5-2.1-2.5zM171 186.1c-.2 0-.7-5.8-1.2-13s-.8-13-.6-13c.2 0 .7 5.8 1.2 13s.7 13 .6 13zM149.6 151.8l-.6.6-1.7 1.7c-1.5 1.4-3.7 3.5-6.7 5.5l-.4.2v-.4c-.1-1.8-.1-3.8-.9-5.7-.3-1-.8-1.9-1.4-2.8-.3-.5-.6-.9-.9-1.4l-.1-.2-.1-.1c-.3-.1.4.1.3.1-.1.1-.2.2-.2.3-.2.2-.3.4-.4.7-.8 1.5-1 3.3-1.3 4.9-.3 1.6-.6 3.2-.8 4.7l-.1.4-.3-.3c-3.3-2.6-6.1-4.8-8.1-6.5-.9-.8-1.7-1.4-2.3-1.9-.5-.4-.8-.7-.8-.7l.9.6c.6.5 1.4 1 2.4 1.8 2.1 1.6 4.9 3.8 8.3 6.3l-.4.2c.2-1.5.4-3.1.7-4.7.3-1.6.6-3.4 1.4-5 .1-.3.3-.5.5-.8.1-.1.2-.2.3-.4h.1c-.1 0 .7.1.4.1l.1.1.1.2c.3.5.7.9 1 1.4.6 1 1.1 1.9 1.4 2.9.7 2 .8 4.1.8 5.8l-.4-.2c3-1.9 5.2-3.9 6.8-5.3.7-.6 1.3-1.2 1.8-1.6.3-.3.6-.5.6-.5z"/><path class="st7" d="M141.4 201.3c-.2 0-1.3-11.6-2.5-25.9-1.2-14.3-2.1-26-1.9-26 .2 0 1.3 11.6 2.5 25.9 1.2 14.4 2.1 26 1.9 26z"/><path d="M107.7 189.9s-.9 25.1-.9 25.2c0 .1-2.2-14.9-2.2-14.9l3.1-10.3z" class="st14"/><path class="st11" d="m211.5 192.2-11.5-8.6 3-5.6 6.7-9.7c.5-.8 1.3-1.3 2.3-1.4l5.9-.9.3 1.8s2.2-1.5 3 .4c.8 1.9-1.9 3.7-1.9 3.7s2.3-.6 2.7 1.7c.4 2.3-1.7 2.6-1.7 2.6 1.7 2.3 0 3.7 0 3.7 2 2.3-.8 4.5-.8 4.5l-7.6 7.7-.4.1z"/><path class="st6" d="m238.6 107.3.8.7-27.3 80.1-2.7-1.2z"/><path class="st11" d="M220.8 182.7c-.9 1.7-2.2 2.7-3.8 3.8-.4.3-.9.6-1.4.7-.5.1-1.1 0-1.4-.4-.2-.3-.3-.7-.3-1.1 0-.8.4-1.5 1-2.1s1.2-1 1.8-1.5"/><path class="st12" d="M216.7 182.2c.1.1-.6.5-1.5 1.4-.4.5-.9 1.1-1 1.9-.1.4 0 .8.2 1.1.2.3.6.4 1 .4.9-.1 1.6-.8 2.3-1.3.7-.5 1.3-1 1.7-1.4.9-.9 1.3-1.6 1.4-1.6.1 0-.2.8-1.1 1.8-.4.5-1 1-1.7 1.6-.3.3-.7.5-1.1.8-.4.3-.9.5-1.4.6-.6 0-1.2-.1-1.5-.6-.3-.5-.3-1-.2-1.5.2-.9.7-1.6 1.2-2 .9-1 1.6-1.3 1.7-1.2z"/><path class="st6" d="M168.8 154.8c3 1 7.7 9.8 7.7 9.8l12.3 36.3s11-17.8 11-18.1c0-.3 14.2 10.4 14.2 10.4l-9.3 18.2-.5 4.7-9 14.6c-2.3 2.5-6.3 3-9.7 2.8-4.3-.2-8-2.9-9.6-6.8l-6.6-18.4-.5-53.5zM93.9 164.2l-10.2 32.6L73 175.4l-16.2 10.3L72 219.3c2.2 5.1 8.6 10.3 13.2 10.3 6.8 0 12.8-4.2 15.2-10.6l10.8-26.4-12-35.7c-2.5 1.9-4.3 4.4-5.3 7.3z"/><path class="st7" d="M83.8 215.9c-.1 0-.2-4.4-.2-9.7 0-5.4.2-9.7.3-9.7.1 0 .2 4.4.2 9.8 0 5.2-.2 9.6-.3 9.6z"/><path class="st7" d="M88.7 210.1c-.1 0-.3-.8-.7-2.2-.4-1.3-.9-3.2-1.4-5.2-.6-2-1.1-3.9-1.6-5.2-.2-.6-.7-.9-1.1-.9-.4 0-.5.2-.5.2s.1-.3.5-.4c.2 0 .5 0 .8.1.3.2.5.4.7.8.5 1.3 1.1 3.1 1.7 5.2.6 2 1 3.9 1.3 5.3.2 1.5.3 2.3.3 2.3z"/><path class="st7" d="m71.5 218.1.3.6c.2.4.5.9.9 1.6.8 1.4 2.1 3.3 4.1 5.2 1 .9 2.2 1.9 3.7 2.7 1.5.7 3.2 1.2 5 1.3 1.8.1 3.8-.2 5.6-1 1.8-.8 3.6-2 5.1-3.5.9-.9 1.8-2 2.4-3 2.9-7.2 5.6-13.4 7.7-17.9 1-2.2 1.8-4 2.4-5.3l.7-1.4c.2-.3.3-.5.3-.5s0 .2-.2.5c-.2.4-.4.9-.6 1.4-.6 1.3-1.3 3.1-2.3 5.3-1.9 4.5-4.6 10.8-7.5 18-.7 1.1-1.5 2.1-2.5 3.1-1.5 1.6-3.3 2.8-5.3 3.6-1.9.8-3.9 1.1-5.8 1-1.9-.1-3.7-.6-5.2-1.4-1.5-.8-2.7-1.8-3.8-2.8-2-2-3.2-4-4-5.4-.4-.7-.6-1.3-.8-1.6-.2-.3-.2-.5-.2-.5z"/><path class="st11" d="m211.9 166.9 5.9-.9s1.1 1.7-3.3 4.1l-2.8 1.7s2 3.8-1.1 9.4"/><path class="st12" d="M210.7 181.1c-.1 0 .4-1 1-2.6.2-.8.5-1.8.5-3 0-1.1-.1-2.5-.6-3.7l-.1-.2.2-.1c.7-.4 1.4-.9 2.2-1.3 1-.6 2-1.1 2.8-1.8.4-.3.7-.7.9-1.1.2-.4.3-.9.1-1.2l.2.1c-1.8.3-3.3.5-4.3.6-1 .1-1.6.2-1.6.1 0 0 .6-.2 1.6-.4s2.5-.5 4.3-.8h.2l.1.1c.3.6.1 1.1-.1 1.6s-.6.9-1 1.3c-.8.8-1.8 1.3-2.8 1.9-.8.4-1.5.9-2.2 1.3l.1-.3c.6 1.4.7 2.7.6 3.9-.1 1.2-.4 2.2-.6 3.1-.1.4-.3.8-.5 1.1-.1.3-.3.6-.4.8l-.6.6z"/><path class="st7" d="M213 192.6s-.4-.2-1-.7c-.7-.5-1.6-1.2-2.8-2-2.4-1.8-5.7-4.2-9.6-7.1l.3-.1c-1.9 3.2-4.1 6.8-6.4 10.7-1 1.7-2 3.4-3 5s-2 3.1-2.7 4.7c-1.5 3.1-2.1 6.2-2.4 8.8-.2 2.6 0 4.7.1 6.2.2 1.4.4 2.2.3 2.2 0 0-.1-.2-.2-.6-.1-.4-.2-.9-.4-1.7-.3-1.4-.5-3.6-.3-6.2s.8-5.8 2.3-8.9c.7-1.6 1.7-3.1 2.7-4.8 1-1.6 2-3.3 3-5 2.3-3.8 4.5-7.4 6.5-10.6l.1-.2.2.2c3.9 2.9 7.1 5.4 9.5 7.2 1.1.9 2 1.6 2.7 2.1.8.5 1.1.8 1.1.8z"/><path class="st7" d="M188.8 201c.1.1-2.8 1.7-4.9 5-2.2 3.3-2.5 6.6-2.7 6.5-.1 0-.1-.8.2-2.1.3-1.3.9-3 2-4.7 1.1-1.7 2.5-2.9 3.5-3.7 1.1-.7 1.9-1 1.9-1zM169.2 170.1s0 .2.1.7c0 .5.1 1.2.1 2 .1 1.7.1 4.2.2 7.2.1 6.1.1 14.5.1 23.8s-.1 17.7-.2 23.8c-.1 3-.1 5.5-.1 7.2 0 .8 0 1.5-.1 2 0 .4 0 .7-.1.7v-9.9c0-6.1 0-14.5.1-23.8 0-9.3.1-17.7.1-23.8v-9.2c-.3-.5-.3-.7-.2-.7z"/><path class="st11" d="M219.4 167.3c-1.1.5-6.3 3.9-6.8 5-.2.4-.3.7-.3 1.1 0 .4.2.8.5 1 .5.3 1.1.2 1.7-.1 2.3-1 4.2-2 6-3.7.5-.5.8-1.1.8-1.8s-.3-1.4-1-1.6"/><path class="st12" d="M220.4 167.3s.4 0 .8.5.5 1.6-.2 2.5c-.3.5-.8.8-1.3 1.3-.5.4-1 .8-1.7 1.2-.6.4-1.3.7-2 1.1-.4.2-.7.3-1.1.5-.4.2-.7.4-1.2.4-.4.1-1 0-1.3-.4-.3-.4-.5-.9-.4-1.3.1-.4.2-.8.4-1.2.2-.4.5-.6.8-.8 1.1-.9 2.2-1.6 3.1-2.2 1.8-1.2 3-1.7 3.1-1.7 0 0-.3.2-.8.5s-1.2.8-2.1 1.4c-.9.6-1.9 1.4-3 2.3-.3.2-.5.5-.7.7-.2.3-.3.6-.3 1 0 .3.1.7.3.9.2.2.5.3.9.2 2.9-1 5.6-2.7 6.9-4.2.6-.8.6-1.8.3-2.2-.2-.4-.5-.5-.5-.5z"/><path class="st11" d="M216.4 177.9c-.7.4-1.5.7-2.2 1.2-.7.5-1.2 1.1-1.6 1.9-.2.5-.3 1.2.1 1.6.2.3.6.4 1 .4s.8-.1 1.1-.2c1.4-.4 2.8-1.1 4-1.9.5-.3 1-.7 1.4-1.2.4-.5.6-1.1.6-1.8 0-.6-.1-1.3-.7-1.5"/><path class="st12" d="M220.2 176.4s.4 0 .6.5c.1.2.2.5.2.9.1.3.1.8-.1 1.2-.3.9-1.1 1.7-2.1 2.3-1 .6-2.1 1.2-3.4 1.6-.6.2-1.3.5-2 .4-.3-.1-.7-.2-.9-.5-.2-.3-.3-.6-.3-1 .1-1.3.9-2.1 1.6-2.7.7-.5 1.4-.8 1.8-1 .4-.2.7-.3.7-.2 0 0-.2.2-.6.4-.4.2-1 .6-1.7 1.1-.3.3-.6.6-.9 1-.3.4-.5.9-.5 1.4 0 .5.3.9.9 1 .5.1 1.1-.2 1.7-.4 1.2-.4 2.3-1 3.3-1.6 1-.6 1.7-1.2 2-2 .2-.4.2-.7.2-1.1 0-.3-.1-.6-.1-.8-.1-.3-.4-.4-.4-.5z"/><path class="st11" d="M221.9 173.5c-.6-2.2-3-1.4-3-1.4-1.6.9-3.1 1.5-4.5 2.6-.5.3-.8.9-1 1.4-.2.5-.2 1.2.2 1.6.4.5 1 .6 1.6.6.6 0 1.1-.3 1.6-.5l3.6-1.5c1-.4 1.7-1.5 1.5-2.6v-.1"/><path class="st12" d="M222 173.6s.2.3.1.9c-.1.6-.6 1.5-1.6 1.9-1 .4-2.1.9-3.3 1.5-.6.3-1.3.6-2.2.6-.4 0-.9-.1-1.2-.4-.4-.3-.6-.7-.6-1.2 0-.4.1-.9.2-1.2.2-.4.4-.7.7-1 .6-.5 1.2-.9 1.8-1.2 1.2-.7 2.2-1.2 3.2-1.6.6-.2 1.2-.2 1.6 0 .5.1.8.4 1 .7.2.3.3.5.3.7 0 .2.1.3 0 .3s-.1-.4-.5-.8c-.2-.2-.5-.4-.9-.5-.4-.1-.9-.1-1.4.1-.9.5-2 1-3.1 1.7-.5.3-1.2.7-1.6 1.2-.4.5-.8 1.1-.7 1.8 0 .7.7 1.1 1.3 1.1.7 0 1.3-.3 2-.5 1.2-.5 2.4-1 3.4-1.4.9-.3 1.4-1.1 1.5-1.6 0-.8-.1-1.1 0-1.1z"/></g></svg>