<svg xmlns="http://www.w3.org/2000/svg" viewBox="0 0 500 500" style="enable-background:new 0 0 500 500" xml:space="preserve"><style>.st0{fill:#e0e0e0}.st1{fill:#ebebeb}.st2{fill:#fff}.st3{fill:#f5f5f5}.st6{fill:#263238}.st7{fill:#5a22c3}.st8{fill:#ffbe9d}.st9{fill:#eb996e}.st10{fill:#455a64}.st13{opacity:.4}.st14{fill:#fafafa}</style><g id="Background_Complete"><circle class="st0" cx="77.7" cy="346" r="15.3"/><circle transform="rotate(-45.001 107.58 345.705)" class="st1" cx="107.6" cy="345.7" r="15.3"/><circle transform="rotate(-45.001 47.841 345.704)" class="st1" cx="47.8" cy="345.7" r="15.3"/><path class="st0" d="M27.5 349h100s-1 41.2-27.9 46.3l-.4 8.8h-45v-8.9c0-.1-26.7-6.9-26.7-46.2z"/><path class="st2" d="M99.6 395.3c0 .1-10.2.3-22.8.3-12.6 0-22.8-.1-22.8-.3s10.2-.3 22.8-.3c12.6 0 22.8.1 22.8.3zM123.6 370.2s-.2 0-.6.1c-.4 0-1.1.1-1.9.2-1.6.1-4.1.3-7.3-.4-1.5-.3-3.3-.9-4.9-2-1.6-1.1-3.2-2.6-4.1-4.7-.5-1-.7-2.2-.7-3.4.1-1.2.4-2.5 1.3-3.5.4-.5.9-1 1.6-1.2.6-.3 1.3-.4 2-.3 1.4.2 2.6 1.2 3.3 2.5.7 1.3.8 2.9.6 4.3-.3 1.5-.9 2.9-1.7 4.2-1.7 2.6-4.3 4.8-7.4 6-3.2 1.2-6.9 1.2-10.2-.1-1.7-.6-3.3-1.6-4.6-2.8-1.3-1.3-2.6-2.7-3.2-4.6-.3-.9-.3-2 0-2.9.3-.9.9-1.8 1.8-2.3 1.9-1 4.2-.2 5.6 1.3 1.4 1.5 2 3.5 2.3 5.5.3 2 .2 4.1-.2 6.1-.8 4-3.1 7.9-6.5 10.5-1.7 1.3-3.7 2.3-5.7 2.8-2.1.5-4.3.7-6.5.4-4.3-.5-8.5-2.5-11.2-5.8-1.4-1.6-2.4-3.6-2.8-5.7-.4-2.1.1-4.3 1.3-6 1.2-1.7 3.1-3 5.3-2.9 2.1.1 4.1 1.4 4.9 3.3.4.9.5 2 .2 3s-.9 1.8-1.6 2.5c-1.4 1.4-3.3 2.2-5.1 2.7-7.3 2-15.1-.2-19.9-5-1.2-1.2-2.1-2.6-2.7-4.1-.6-1.5-.7-3.2-.3-4.8.4-1.5 1.2-2.9 2.5-3.9 1.2-.9 2.8-1.2 4.2-1 1.4.2 2.8.9 3.6 2 .9 1.1 1.3 2.4 1.4 3.7 0 1.3-.4 2.6-1.2 3.6-.7 1-1.7 1.7-2.6 2.3-1.9 1.2-4 1.7-5.9 2.2-1.9.5-3.6.7-5.2.9-3.2.3-5.6.1-7.3 0-1.7-.2-2.5-.4-2.5-.4s.2 0 .6.1c.4.1 1.1.1 1.9.2 1.7.1 4.1.3 7.2-.1 1.6-.2 3.3-.4 5.2-.9 1.8-.5 3.9-1 5.8-2.2.9-.6 1.8-1.3 2.5-2.3.7-.9 1.1-2.1 1.1-3.4 0-1.2-.5-2.5-1.3-3.5s-2.1-1.7-3.4-1.9c-1.3-.2-2.8.1-4 1-1.2.8-1.9 2.2-2.3 3.6-.4 1.5-.3 3 .3 4.5.5 1.5 1.5 2.8 2.6 4 4.7 4.6 12.3 6.8 19.5 4.8 1.8-.5 3.5-1.3 4.9-2.6.7-.6 1.2-1.4 1.4-2.3.2-.9.2-1.8-.2-2.7-.8-1.7-2.6-2.9-4.5-3-.9-.1-1.9.2-2.7.7-.8.5-1.6 1.2-2.1 2-1.1 1.6-1.5 3.7-1.2 5.7.3 2 1.3 3.9 2.6 5.4 2.7 3.2 6.7 5.2 10.9 5.6 2.1.2 4.2.1 6.3-.4 2-.5 3.9-1.5 5.6-2.7 3.3-2.5 5.5-6.3 6.3-10.2.4-2 .5-4 .2-5.9-.3-1.9-.9-3.9-2.2-5.2-1.2-1.4-3.4-2-5-1.2-.8.4-1.3 1.2-1.6 2-.3.9-.3 1.8 0 2.6.5 1.7 1.7 3.2 3 4.4 1.3 1.2 2.9 2.1 4.5 2.7 3.3 1.3 6.8 1.3 9.9.1 3.1-1.1 5.6-3.3 7.3-5.8.8-1.3 1.4-2.7 1.7-4.1.3-1.4.1-2.9-.5-4.1-.7-1.2-1.8-2.1-3.1-2.3-.6-.1-1.3 0-1.8.2-.6.3-1.1.7-1.4 1.1-.8 1-1.2 2.2-1.2 3.3 0 1.2.2 2.3.7 3.3.9 2 2.4 3.5 4 4.6 1.6 1 3.3 1.6 4.8 2 3.1.7 5.6.5 7.2.4.8 0 1.4-.1 1.9-.1.3.3.5.3.5.3z"/><path class="st1" d="M424.4 172.5c-.4 1.3-7.1 11.8-16.7 15.4-9.6 3.6-16.8 7.5-14.1 12.2 2.7 4.7 14.5 2.1 14.5 2.1s-23.9 26-1.4 40.9c27.5 18.1 56.2-46.8 56.2-46.8l-38.5-23.8z"/><path class="st0" d="M458.4 205.3c-.1.1-9.1-5.3-20.2-12.1s-20-12.4-20-12.5c.1-.1 9.1 5.3 20.2 12.1 11.2 6.8 20.1 12.4 20 12.5zM454.2 213.1c-.1.1-9.9-5.6-21.9-12.8-12-7.2-21.7-13.2-21.6-13.3.1-.1 9.9 5.6 21.9 12.8 12 7.2 21.7 13.2 21.6 13.3zM449.1 220.5c-.1.1-11.1-6.3-24.6-14.4-13.5-8.1-24.4-14.8-24.3-14.9.1-.1 11.1 6.3 24.6 14.4 13.5 8.1 24.3 14.7 24.3 14.9zM442.6 229.6c-.1.1-8.6-5.1-19-11.6s-18.8-11.9-18.8-12c.1-.1 8.6 5.1 19 11.6 10.5 6.5 18.9 11.9 18.8 12zM435.1 238.4c-.1.1-8-5-17.7-11.4s-17.5-11.7-17.4-11.9c.1-.1 8 5 17.7 11.4 9.7 6.5 17.5 11.8 17.4 11.9zM425.5 244.5l-1.2-.6c-.8-.4-1.8-1-3.2-1.7-2.7-1.5-6.3-3.6-10.2-6.2-3.9-2.5-7.4-4.9-9.9-6.7-1.2-.9-2.2-1.6-2.9-2.2-.7-.5-1-.8-1-.9 0 0 .4.2 1.1.7.8.5 1.8 1.2 3 2 2.5 1.7 6 4.1 9.9 6.6 3.9 2.5 7.5 4.7 10.1 6.3 1.2.7 2.3 1.4 3.1 1.9.8.5 1.2.8 1.2.8zM402.9 202.9c0 .1-2.6-.7-5.3-2.4-2.8-1.7-4.6-3.7-4.5-3.8.1-.1 2 1.6 4.7 3.3 2.8 1.7 5.2 2.7 5.1 2.9z"/><path class="st0" d="m461.2 195-.3.6c-.3.4-.6.9-1.1 1.6-.9 1.3-2.3 3.3-4 5.6-3.5 4.7-8.3 11.2-13.9 18.2s-10.8 13.2-14.6 17.6c-1.9 2.2-3.5 4-4.6 5.2-.5.6-.9 1-1.3 1.4l-.5.5s.1-.2.4-.5c.3-.4.7-.9 1.2-1.5 1.1-1.3 2.6-3.1 4.5-5.3 3.8-4.5 8.9-10.7 14.5-17.7s10.5-13.4 14-18.1c1.7-2.3 3.1-4.2 4.2-5.5.5-.6.9-1.1 1.1-1.5.2-.4.4-.6.4-.6zM453.4 189.5c.1.1-9.4 12.5-21.3 27.8s-21.6 27.6-21.7 27.5c-.1-.1 9.4-12.5 21.3-27.8 11.8-15.3 21.6-27.6 21.7-27.5zM442.5 183.3l-.3.6c-.2.4-.6 1-1 1.7-.9 1.5-2.2 3.6-3.8 6.2-3.3 5.2-8.3 12.1-14.2 19.4-5.8 7.3-11.4 13.8-15.4 18.5-2 2.3-3.6 4.2-4.8 5.5-.5.6-1 1.1-1.3 1.5l-.5.5s.1-.2.4-.6c.3-.4.7-.9 1.2-1.5 1.1-1.4 2.7-3.3 4.6-5.6 3.9-4.7 9.4-11.2 15.2-18.6 5.8-7.3 10.8-14.2 14.3-19.3 1.7-2.5 3.1-4.6 4-6.1.4-.7.8-1.2 1.1-1.7.4-.3.5-.5.5-.5zM433.6 178.2c.1.1-8 10.9-18.2 24.1-10.2 13.2-18.5 23.8-18.6 23.7-.1-.1 8-10.9 18.2-24.1 10.2-13.2 18.5-23.8 18.6-23.7zM426.9 173.8s-.3.5-.9 1.4c-.3.5-.6 1-1.1 1.6-.5.6-.9 1.3-1.6 2.1-1.2 1.5-2.7 3.2-4.5 5-1.8 1.8-3.9 3.6-6.3 5.4-2.4 1.7-4.8 3.2-7 4.4-2.3 1.2-4.4 2.1-6.2 2.8-.9.4-1.7.6-2.5.9-.7.3-1.4.4-1.9.6-1 .3-1.6.4-1.6.4s.6-.2 1.6-.6c.5-.2 1.1-.4 1.8-.7.7-.3 1.5-.6 2.4-.9 1.8-.7 3.8-1.7 6.1-2.9 2.2-1.2 4.6-2.7 6.9-4.4 2.3-1.7 4.5-3.6 6.3-5.3 1.8-1.8 3.4-3.4 4.6-4.9.6-.7 1.1-1.4 1.6-2 .5-.6.9-1.1 1.2-1.6.7-.8 1.1-1.3 1.1-1.3zM345.7 159.5h127.9V173H345.7z"/><path class="st3" d="M386.2 172.5c-.4 1.3-7.1 11.8-16.7 15.4-9.6 3.6-16.8 7.5-14.1 12.2 2.7 4.7 14.5 2.1 14.5 2.1s-23.9 26-1.4 40.9c27.5 18.1 56.2-46.8 56.2-46.8l-38.5-23.8z"/><path class="st0" d="M420.2 205.3c-.1.1-9.1-5.3-20.2-12.1s-20-12.4-20-12.5c.1-.1 9.1 5.3 20.2 12.1 11.2 6.8 20.1 12.4 20 12.5zM416 213.1c-.1.1-9.9-5.6-21.9-12.8-12-7.2-21.7-13.2-21.6-13.3.1-.1 9.9 5.6 21.9 12.8 12 7.2 21.6 13.2 21.6 13.3zM410.8 220.5c-.1.1-11.1-6.3-24.6-14.4-13.5-8.1-24.4-14.8-24.3-14.9.1-.1 11.1 6.3 24.6 14.4 13.5 8.1 24.4 14.7 24.3 14.9zM404.4 229.6c-.1.1-8.6-5.1-19-11.6s-18.8-11.9-18.8-12c.1-.1 8.6 5.1 19 11.6 10.5 6.5 18.9 11.9 18.8 12zM396.9 238.4c-.1.1-8-5-17.7-11.4s-17.5-11.7-17.4-11.9c.1-.1 8 5 17.7 11.4 9.7 6.5 17.5 11.8 17.4 11.9zM387.3 244.5l-1.2-.6c-.8-.4-1.8-1-3.2-1.7-2.7-1.5-6.3-3.6-10.2-6.2-3.9-2.5-7.4-4.9-9.9-6.7-1.2-.9-2.2-1.6-2.9-2.2-.7-.5-1-.8-1-.9 0 0 .4.2 1.1.7.8.5 1.8 1.2 3 2 2.5 1.7 6 4.1 9.9 6.6 3.9 2.5 7.5 4.7 10.1 6.3 1.2.7 2.3 1.4 3.1 1.9.8.5 1.2.8 1.2.8zM364.7 202.9c0 .1-2.6-.7-5.3-2.4-2.8-1.7-4.6-3.7-4.5-3.8.1-.1 2 1.6 4.7 3.3 2.8 1.7 5.2 2.7 5.1 2.9z"/><path class="st0" d="m423 195-.3.6c-.3.4-.6.9-1.1 1.6-.9 1.3-2.3 3.3-4 5.6-3.5 4.7-8.3 11.2-13.9 18.2s-10.8 13.2-14.6 17.6c-1.9 2.2-3.5 4-4.6 5.2-.5.6-.9 1-1.3 1.4l-.5.5s.1-.2.4-.5c.3-.4.7-.9 1.2-1.5 1.1-1.3 2.6-3.1 4.5-5.3 3.8-4.5 8.9-10.7 14.5-17.7s10.5-13.4 14-18.1c1.7-2.3 3.1-4.2 4.2-5.5.5-.6.9-1.1 1.1-1.5.2-.4.3-.6.4-.6zM415.2 189.5c.1.1-9.4 12.5-21.3 27.8s-21.6 27.6-21.7 27.5c-.1-.1 9.4-12.5 21.3-27.8 11.8-15.3 21.6-27.6 21.7-27.5zM404.3 183.3l-.3.6c-.2.4-.6 1-1 1.7-.9 1.5-2.2 3.6-3.8 6.2-3.3 5.2-8.3 12.1-14.2 19.4-5.8 7.3-11.4 13.8-15.4 18.5-2 2.3-3.6 4.2-4.8 5.5-.5.6-1 1.1-1.3 1.5l-.5.5s.1-.2.4-.6c.3-.4.7-.9 1.2-1.5 1.1-1.4 2.7-3.3 4.6-5.6 3.9-4.7 9.4-11.2 15.2-18.6 5.8-7.3 10.8-14.2 14.3-19.3 1.7-2.5 3.1-4.6 4-6.1.4-.7.8-1.2 1.1-1.7l.5-.5zM395.4 178.2c.1.1-8 10.9-18.2 24.1-10.2 13.2-18.5 23.8-18.6 23.7-.1-.1 8-10.9 18.2-24.1 10.1-13.2 18.5-23.8 18.6-23.7zM388.7 173.8s-.3.5-.9 1.4c-.3.5-.6 1-1.1 1.6-.5.6-.9 1.3-1.6 2.1-1.2 1.5-2.7 3.2-4.5 5-1.8 1.8-3.9 3.6-6.3 5.4-2.4 1.7-4.8 3.2-7 4.4-2.3 1.2-4.4 2.1-6.2 2.8-.9.4-1.7.6-2.5.9-.7.3-1.4.4-1.9.6-1 .3-1.6.4-1.6.4s.6-.2 1.6-.6c.5-.2 1.1-.4 1.8-.7.7-.3 1.5-.6 2.4-.9 1.8-.7 3.8-1.7 6.1-2.9 2.2-1.2 4.6-2.7 6.9-4.4 2.3-1.7 4.5-3.6 6.3-5.3 1.8-1.8 3.4-3.4 4.6-4.9.6-.7 1.1-1.4 1.6-2 .5-.6.9-1.1 1.2-1.6.7-.8 1-1.3 1.1-1.3zM405.6 91.9h8.2v8.2h-8.2z"/><path class="st3" d="M371.8 111H448v48.1h-76.2zM371.8 111s11.7-12.2 40.9-11.7S448 111 448 111h-76.2z"/><path class="st0" d="M447.7 111.8c0 .1-17.1.3-38.3.3-21.1 0-38.3-.1-38.3-.3 0-.1 17.1-.3 38.3-.3 21.1 0 38.3.1 38.3.3zM464.9 118.4h-17.2v-6.6h17.2c1.5 0 2.8 1.2 2.8 2.8v1.1c0 1.4-1.3 2.7-2.8 2.7z"/><path class="st0" d="M354.8 111.8H372v6.6h-17.2c-1.5 0-2.8-1.2-2.8-2.8v-1.1c.1-1.5 1.3-2.7 2.8-2.7zM418.2 94.3h-16.7c-1.1 0-2-.9-2-2v-.8c0-1.1.9-2 2-2h16.7c1.1 0 2 .9 2 2v.8c0 1.1-.9 2-2 2z"/></g><path class="st6" d="M470.5 403.8c0 .1-98.7.3-220.5.3s-220.5-.1-220.5-.3 98.7-.3 220.5-.3 220.5.1 220.5.3z" id="Table"/><g id="Character"><path class="st7" d="M323.9 257.6c-.4 1.7-8.9 79.2-8.9 79.2l-7.7 10.9-2.1 16.8 16 39.6H202.8s-1.9-20.9-1.7-26.5c.2-5.6 3-26.1 3-26.1l-.3-20.8-4.5-90.8 40.1-12.9c24.2-4.2 59.9 14 59.9 14l24.6 16.6z"/><path class="st6" d="M308.5 199.8c5.3-.3 9.3-4.7 12.2-9.1 2.7-4.1 5-8.7 5.1-13.7 0-4.3-1.7-8.4-3.4-12.3-1.7-4.1-3.5-8.2-6.2-11.6-2.7-3.5-6.5-6.3-10.9-6.8"/><path class="st8" d="m246.9 220.5.1-1.3 3.1-75.6 1.7-4.3 37.8-5.2c12.4-1 23 8.6 23.5 21 .5 13.8.5 30.6-1.4 40.8-3.8 20.5-19.7 22.7-19.7 22.7s-.3 5.4-.6 13.1c-.2 5.9-5.4 22.8-11.3 22.9-2.5.1-9.4-2.1-12.7-2.6-20.6-3.1-20.5-31.5-20.5-31.5z"/><path class="st6" d="M306.1 166.9c0 1.4-1.2 2.6-2.6 2.6-1.5 0-2.6-1.1-2.7-2.5 0-1.4 1.2-2.6 2.6-2.6 1.5 0 2.7 1.1 2.7 2.5zM309.2 163.6c-.3.3-2.3-1.2-5.1-1.3-2.8-.1-5 1.3-5.3.9-.1-.2.2-.8 1.1-1.4.9-.6 2.5-1.2 4.2-1.2 1.8.1 3.2.8 4.1 1.4.9.8 1.2 1.4 1 1.6zM278.3 166.7c0 1.4-1.2 2.6-2.6 2.6-1.5 0-2.6-1.1-2.7-2.5 0-1.4 1.2-2.6 2.6-2.6 1.5 0 2.6 1.1 2.7 2.5zM281.2 163.3c-.3.3-2.3-1.2-5.1-1.3-2.8-.1-5 1.3-5.3.9-.1-.2.2-.8 1.1-1.4.9-.6 2.5-1.2 4.2-1.2 1.8.1 3.2.8 4.1 1.4.9.9 1.2 1.5 1 1.6zM291 184.7c0-.2 1.8-.4 4.6-.7.7-.1 1.4-.2 1.6-.7.2-.5-.1-1.3-.4-2.2-.6-1.8-1.3-3.6-2-5.6-2.8-8-4.7-14.5-4.4-14.6.3-.1 2.8 6.3 5.6 14.2.7 2 1.3 3.8 1.9 5.6.3.8.7 1.8.3 2.9-.2.5-.8.9-1.2 1-.5.1-.9.1-1.2.1-3 .2-4.8.2-4.8 0z"/><path class="st9" d="M292 218.5s-13.9.5-27.4-8.1c0 0 6.3 14.4 27 13l.4-4.9zM289.6 191.6c-1-1.4-2.8-2.2-4.5-2-1.2.1-2.5.7-3.3 1.6-.8 1-1 2.4-.3 3.4.7 1.1 2.3 1.4 3.7 1 1.4-.3 2.6-1.2 3.7-2.1.3-.2.6-.5.8-.8.2-.3.3-.8 0-1.1"/><path class="st6" d="M282.5 186.5c.5 0 .4 3.1 3 5.3 2.6 2.3 5.9 2 5.9 2.4 0 .2-.7.6-2.1.6-1.4 0-3.3-.5-4.9-1.9-1.6-1.4-2.2-3.2-2.3-4.5-.1-1.2.2-1.9.4-1.9zM282.3 152.2c-.3.8-3.1.3-6.5.6-3.4.2-6.1 1.1-6.5.4-.2-.3.3-1.1 1.4-1.8 1.1-.7 2.8-1.4 4.9-1.5 2-.2 3.8.2 5 .7 1.2.6 1.8 1.3 1.7 1.6zM308.4 155.3c-.5.6-2.5-.1-4.8-.2-2.4-.2-4.4.3-4.8-.4-.2-.3.1-1 1-1.6.9-.6 2.3-1 3.9-1 1.6.1 3 .7 3.8 1.4.9.8 1.1 1.5.9 1.8zM246.7 166.6s-5.1 2.7-10.4 9.4c-3.3 4.1-5.4 9.4-4.6 14.6 1.1 7.2 7.4 12.3 13.2 16.7 3.3.5 5.8-3.2 6.4-6.5s.1-7 1.6-9.9c1.4-2.7 4.2-4.3 6.1-6.7 3.5-4.4 3.2-10.7 2.4-16.3s0-14 7.2-22c0 .1-17.4 6.9-21.9 20.7z"/><path class="st6" d="M240.6 185.2c3-4.3 2.2-10.7-1.2-14.7-3.5-4-9.1-5.7-14.4-5.3-3.8.3-7.7 1.8-10.2 4.8-2.5 3-3.2 7.5-1.2 10.8 1.1 1.8 3.1 3.5 2.7 5.6-.4 2-2.8 2.8-4.5 3.9-2.9 2-4.1 6.2-3 9.6 1.1 3.4 4.3 6 7.8 6.8 3.5.8 7.3 0 10.3-1.9 0 3.2 3.4 5.7 6.6 5.4 3.2-.3 5.9-2.6 7.6-5.3 2.4-3.8 3.2-8.5 3.1-13-.1-4.5-1.1-9-2.1-13.4"/><path class="st10" d="M245.8 208.4s-.2-.1-.5-.3c-.3-.2-.8-.6-1.3-.9-1.1-.8-2.7-2-4.6-3.7-1.9-1.6-4-3.7-5.9-6.5-1.8-2.7-3.3-6.3-3.4-10.1-.1-1.9.2-3.8.9-5.5.6-1.7 1.7-3.2 2.8-4.4 2.3-2.4 4.9-4 6.9-5.4 2.1-1.4 3.6-2.6 4.7-3.5.5-.5.9-.8 1.1-1.1l.4-.4s-.1.2-.3.5c-.2.3-.6.7-1.1 1.2-1 1-2.5 2.3-4.6 3.7-2 1.5-4.5 3-6.7 5.4-1.1 1.2-2.1 2.6-2.7 4.3-.6 1.6-.9 3.5-.8 5.3.2 3.7 1.5 7.2 3.3 9.9 1.8 2.7 3.9 4.8 5.7 6.5 1.8 1.7 3.4 2.9 4.5 3.8.5.4.9.7 1.2 1 .3 0 .5.2.4.2z"/><path class="st10" d="M231.1 182.3c-.1 0-.6-1.1-1.9-2.5-1.3-1.4-3.5-3.1-6.3-3.8-2.8-.7-5.6-.2-7.4.4-1.8.6-2.8 1.4-2.8 1.3 0 0 .2-.2.7-.5.4-.3 1.1-.7 2.1-1.1 1.8-.8 4.6-1.3 7.6-.6 3 .7 5.2 2.5 6.5 4 .6.8 1.1 1.4 1.3 1.9.2.6.3.9.2.9zM215.1 187.8c-.1 0 .3-1 1.7-1.8.7-.4 1.5-.8 2.6-.9 1-.2 2.1-.2 3.3-.2 2.3.1 4.4.5 5.9.9s2.3.9 2.3.9c0 .1-.9-.2-2.4-.6-1.5-.3-3.5-.7-5.8-.8-2.3-.1-4.4.2-5.7.9-1.4.7-1.8 1.6-1.9 1.6zM211.7 204.1c0-.1 1.4-.1 3.7-.5 2.2-.4 5.3-1.4 8.1-3.4 2.9-2 4.9-4.5 6-6.5 1.2-2 1.6-3.3 1.7-3.3 0 0-.1.4-.3 1-.2.6-.6 1.5-1.1 2.5-1.1 2-3.1 4.6-6 6.7-2.9 2-6.1 3-8.4 3.4-1.1.2-2.1.2-2.7.2-.7 0-1-.1-1-.1zM232.1 182s.6.5 1.9 1.2c1.2.7 3.3 1.4 5.9 1.3 1.3 0 2.7-.3 4.1-.8 1.4-.5 2.8-1.3 4.2-2.4 2.7-2.1 4.9-5.2 6.6-8.8 1.7-3.6 2.7-7.2 3.8-10.5 1.1-3.3 2.1-6.2 3.3-8.5 1.2-2.3 2.4-4.1 3.3-5.2.5-.6.9-1 1.1-1.2l.4-.4s-.5.6-1.4 1.7c-.9 1.1-2 2.9-3.2 5.2-1.1 2.3-2.2 5.2-3.2 8.5s-2.1 6.9-3.8 10.5c-1.7 3.6-4 6.8-6.8 8.9-1.4 1.1-2.8 1.9-4.3 2.4s-2.9.7-4.2.7c-2.6 0-4.7-.7-6-1.5-.3-.2-.6-.4-.8-.5-.2-.2-.4-.3-.6-.5-.1 0-.3-.1-.3-.1z"/><path class="st10" d="M261.5 163.4s-.4.6-.8 1.8c-.5 1.2-.9 2.9-1 5.2-.2 2.2-.1 5-.9 7.9-.8 2.9-2.6 5.9-5.2 8.2-2.6 2.3-5.9 3.6-8.9 3.8-3 .3-5.8-.3-7.9-1.2-2.1-.9-3.6-2-4.6-2.8-.5-.4-.8-.8-1-1-.2-.3-.3-.4-.3-.4s.5.5 1.5 1.3 2.5 1.9 4.6 2.7c2.1.8 4.8 1.4 7.7 1.1 2.9-.3 6.1-1.5 8.6-3.8 2.6-2.2 4.3-5.1 5.1-7.9.8-2.8.7-5.6 1-7.8.2-2.3.7-4.1 1.2-5.2.3-.6.5-1 .7-1.3.1-.5.2-.6.2-.6zM320.7 189.3l.9-.9c.5-.6 1.2-1.6 1.7-2.9.5-1.4.8-3.1.7-5-.1-1.9-.7-4-1.7-6-2-4-4.7-7.1-6.5-9.4-.9-1.2-1.5-2.2-1.9-2.9-.4-.7-.6-1.1-.6-1.2 0 0 .3.4.7 1.1.5.7 1.1 1.7 2.1 2.8 1.8 2.3 4.6 5.3 6.7 9.4 1 2 1.6 4.2 1.7 6.2.1 2-.3 3.8-.8 5.2-.6 1.4-1.3 2.4-1.9 2.9-.3.3-.5.5-.7.6-.2.1-.3.1-.4.1z"/><path class="st10" d="M317.8 195.2c-.1-.1 1.3-1.1 2.5-3.6.6-1.2 1-2.8 1-4.6 0-1.8-.4-3.7-1.2-5.6-.8-1.9-1.8-3.6-2.7-5.2-.9-1.6-1.6-3-2.2-4.3-.6-1.2-1.1-2.2-1.4-2.9-.3-.7-.4-1.1-.4-1.1s.2.4.6 1c.4.8.9 1.7 1.5 2.8.6 1.2 1.4 2.6 2.3 4.2.9 1.6 2 3.3 2.8 5.2.8 1.9 1.2 4 1.2 5.8 0 1.8-.5 3.5-1.1 4.7-.6 1.3-1.4 2.1-1.9 2.7-.3.3-.5.5-.7.6l-.3.3z"/><path d="M245.8 169.3c6.8-11.7 16.4-22.6 29.6-25.7 13.2-3.1 26.6-1 38 6.4v-23l-16.5-53.1-12.8-6.9-30.3 17.3-7.8 63.9-.2 21.1z" style="fill:#e8505b"/><path d="M245.8 169.3c6.8-11.7 16.4-22.6 29.6-25.7 13.2-3.1 26.6-1 38 6.4v-23l-16.5-53.1-12.8-6.9-30.3 17.3-7.8 63.9-.2 21.1z" style="fill:#d1c3fc"/><path class="st6" d="M312.7 127.7s-.3-.1-.7-.3c-.5-.2-1.1-.6-2-1-1.8-.9-4.4-2-7.9-2.9-3.4-.9-7.6-1.7-12.3-1.8-2.3-.1-4.8 0-7.3.3s-5.2.6-7.7 1.4c-5.2 1.6-9.7 4.2-13.6 6.8-3.9 2.7-6.9 5.6-9.2 8.3-2.3 2.7-3.7 5.2-4.6 7-.4.9-.7 1.6-.9 2.1-.2.5-.3.7-.4.7 0 0 .1-.3.3-.8.2-.5.5-1.2.8-2.1.9-1.8 2.2-4.4 4.5-7.1 2.3-2.8 5.4-5.7 9.2-8.5 3.9-2.7 8.5-5.2 13.7-6.9 2.6-.8 5.3-1.2 7.8-1.4 2.6-.2 5-.3 7.4-.2 4.7.1 9 .9 12.4 1.9 3.4 1 6.1 2.2 7.9 3.1.9.4 1.6.9 2 1.1l.6.3z"/><path class="st6" d="M292.7 121.6c-.1 0-2.3-12.1-4.8-27.1-2.5-15-4.4-27.2-4.3-27.2.1 0 2.3 12.1 4.8 27.1 2.6 15 4.5 27.1 4.3 27.2zM272.7 123.7c-.1 0 .1-11.5.5-25.7s.9-25.7 1-25.7c.1 0-.1 11.5-.5 25.7s-.9 25.7-1 25.7zM255.6 133.3v-.6c0-.4 0-.9.1-1.6.1-1.4.2-3.3.4-5.8.4-4.9 1-11.6 2-19 .9-7.4 2-14.1 2.8-18.9.4-2.4.8-4.3 1.1-5.7.1-.6.2-1.1.3-1.5.1-.4.1-.5.1-.5v.5c-.1.4-.1.9-.2 1.6-.2 1.4-.5 3.4-.9 5.7-.7 4.8-1.7 11.5-2.6 18.9-.9 7.4-1.6 14.1-2.1 18.9-.2 2.4-.4 4.3-.6 5.7-.1.6-.1 1.1-.2 1.6-.2.5-.2.7-.2.7zM295.7 125.4c.1 0 0 .9-.1 2.3-.1 1.6-.3 3.5-.4 5.6-.2 2.1-.3 3.9-.4 5.6-.1 1.4-.2 2.3-.3 2.3-.1 0-.1-.9-.1-2.3s.1-3.4.3-5.6c.2-2.2.4-4.1.6-5.6.1-1.4.3-2.3.4-2.3z"/><path class="st7" d="M200.2 352.9c-1.3-1.8-4.6-3.5-6.9-3.7-7.7-.8-14.7 2.5-20.7 7.3l-1.2 2.2c-3.3 2.5-6.7 5.4-7.7 9.5-1 4-1.3 8.6-1.4 12.7 0 1.9.8 4 2.6 6.1 1.4 1.6 3.5 2.5 5.6 2.7 4 .4 8.1-.7 11.7-2.6 3.6-2 6.6-4.8 9.2-7.9 4.7-5.7 8-12.7 9.4-20 .4-2.2.6-4.6-.6-6.3z"/><path d="M200.2 352.9c-1.3-1.8-4.6-3.5-6.9-3.7-7.7-.8-14.7 2.5-20.7 7.3l-1.2 2.2c-3.3 2.5-6.7 5.4-7.7 9.5-1 4-1.3 8.6-1.4 12.7 0 1.9.8 4 2.6 6.1 1.4 1.6 3.5 2.5 5.6 2.7 4 .4 8.1-.7 11.7-2.6 3.6-2 6.6-4.8 9.2-7.9 4.7-5.7 8-12.7 9.4-20 .4-2.2.6-4.6-.6-6.3z" class="st13"/><path class="st7" d="M199.4 239.8c-1.2.4-61.1 85.3-62.7 91-1.6 5.6-10.4 19.1 2 31.7 12.4 12.6 24.5 21.7 24.5 21.7-2.8-21.4 18.3-38.7 33-34.2l-11.2-7.6 25.7-34.2M323.9 257.6s9.4 11.8 11.8 19.4c2 6.5 12.7 36.7 12.7 36.7l19.5 48.3s-3 4.3-3.7 7.9c-.3 1.4-2.8 23.6-8.7 33l-31.2-14-3.9-28-5.4-24.2 5.6-64.8 3.3-14.3zM236.3 227.6s8-7.4 10.2-8.4c0 0 2.5 8.7 10 12.8 7.4 4.1 12.3 8.5 12.3 9.1v10.7s-30.6-8.4-32.5-24.2z"/><path class="st7" d="m241.4 282.2 59.4-3.6-2.7-33.9-2.6-5.8-4-7.2s-.1 3.7-2.8 6.6c-4.9 5.3-12.1 6.4-12.1 6.4l-1.2 7-30.1-12.4s-3.9 41-3.9 41.9"/><path class="st6" d="M276.6 244.7v.5c0 .3-.1.8-.2 1.3-.2 1.2-.5 3-.8 5.2v.1h-.1c-5.5.2-14 .4-24.4.7-1.3 0-2.7.1-4 .1-.7 0-1.4 0-2.1.1-.7 0-1.4 0-2 .3-1.3.4-2.4 1.5-2.8 2.8-.2.7-.3 1.4-.2 2.1v2.3c.1 6.1.3 12.6.4 19.3.5 18.8.7 35.8.7 48.1 0 6.2-.1 11.1-.2 14.6 0 1.7-.1 3-.1 4v1.4-20c0-12.3-.4-29.3-.8-48.1-.1-6.7-.3-13.2-.4-19.3v-2.3c0-.7 0-1.6.3-2.3.5-1.5 1.7-2.6 3.1-3.1.7-.3 1.5-.3 2.2-.3.7 0 1.4 0 2.1-.1 1.4 0 2.7-.1 4-.1 10.5-.2 19-.4 24.4-.5l-.1.1c.4-2.3.7-4 .9-5.2.1-.6.2-1 .3-1.3-.3-.2-.3-.4-.2-.4z"/><circle class="st6" cx="246.7" cy="264.9" r="2.5"/><path class="st6" d="M261 262.1c0 .2-2.9.5-6.3 1.3-3.5.8-6.2 1.7-6.3 1.6-.1-.1 2.6-1.3 6.2-2.1 3.4-.8 6.3-.9 6.4-.8zM256.7 267.2c0 .1-2-.4-4.4-.9-2.4-.5-4.5-.8-4.4-.9 0-.1 2.1-.1 4.5.4s4.3 1.2 4.3 1.4z"/><circle class="st6" cx="246.7" cy="293.6" r="2.5"/><path class="st6" d="M261 290.9c0 .2-2.9.5-6.3 1.3-3.5.8-6.2 1.7-6.3 1.6-.1-.1 2.6-1.3 6.2-2.1 3.4-.8 6.3-1 6.4-.8zM256.7 295.9c0 .1-2-.4-4.4-.9-2.4-.5-4.5-.8-4.4-.9 0-.1 2.1-.1 4.5.4s4.3 1.3 4.3 1.4z"/><circle class="st6" cx="246.7" cy="322.3" r="2.5"/><path class="st6" d="M261 319.6c0 .2-2.9.5-6.3 1.3-3.5.8-6.2 1.7-6.3 1.6-.1-.1 2.6-1.3 6.2-2.1 3.4-.8 6.3-1 6.4-.8zM256.7 324.6c0 .1-2-.4-4.4-.9-2.4-.5-4.5-.8-4.4-.9 0-.1 2.1-.1 4.5.4s4.3 1.3 4.3 1.4zM206.9 316s0-.3.1-.7c.1-.5.3-1.2.5-2.1.4-1.8 1.1-4.4 1.9-7.6.7-3.2 1.6-7 2.2-11.3.6-4.3 1.1-9 .9-14-.2-5-1-9.7-2.4-13.8-1.3-4.1-3.1-7.6-4.9-10.3-1.8-2.7-3.7-4.7-5-5.9-.6-.7-1.2-1.1-1.6-1.4-.4-.3-.6-.5-.5-.5 0 0 .2.1.6.4.4.3 1 .7 1.7 1.3 1.4 1.2 3.3 3.1 5.2 5.8 1.9 2.7 3.7 6.2 5.1 10.4 1.4 4.1 2.2 8.9 2.4 13.9.2 5-.3 9.8-1 14.1-.7 4.3-1.6 8.1-2.3 11.3-.8 3.2-1.5 5.8-2 7.5-.2.8-.4 1.5-.6 2-.2.7-.2.9-.3.9z"/><path class="st6" d="M206 315.1s-.2-.5-.3-1.3c-.2-.9-.4-2.1-.6-3.7-.5-3.1-.9-7.5-.8-12.3.1-4.8.6-9.2 1.1-12.3.3-1.6.5-2.8.7-3.7.2-.9.3-1.3.4-1.3 0 0 0 .5-.2 1.4-.2.9-.4 2.1-.6 3.7-.5 3.1-.9 7.4-1 12.3-.1 4.8.3 9.1.6 12.3.2 1.6.3 2.8.5 3.7.2.7.3 1.2.2 1.2zM149.1 341.2s.6-.1 1.6-.4c1-.3 2.4-.8 4-1.6s3.5-2 5.6-3.3c2.1-1.2 4.5-2.6 7.4-3.1 2.9-.5 5.7.2 7.9 1.3s3.9 2.6 5.3 3.8c1.4 1.3 2.4 2.4 3 3.2.7.8 1 1.3 1 1.3s-.4-.4-1.1-1.2c-.7-.8-1.7-1.8-3.1-3-1.4-1.2-3.1-2.6-5.3-3.7-2.1-1.1-4.8-1.7-7.6-1.2-2.7.5-5.1 1.8-7.2 3-2.1 1.2-4 2.4-5.7 3.2-1.7.8-3.1 1.3-4.1 1.5-.5.1-.9.1-1.2.2h-.5z"/><path class="st6" d="M169.9 320.4s.4.1 1 .4c.3.1.7.3 1.1.5.4.2.9.5 1.4.8 1 .6 2.1 1.5 3.2 2.6s2.2 2.4 3.2 3.9 1.8 3 2.3 4.5c.6 1.5.9 2.8 1.1 4 .1.6.2 1.1.2 1.6.1.5.1.9.1 1.2v1c-.1 0-.1-1.4-.6-3.7-.2-1.1-.7-2.5-1.2-3.9-.6-1.4-1.4-2.9-2.3-4.4-1-1.5-2.1-2.7-3.1-3.8-1.1-1.1-2.1-2-3.1-2.6-2.1-1.4-3.4-2-3.3-2.1z"/><path d="M183 339.6c-3.5-8.3-12.1-14.2-21.1-14.5-1.2 0-2.5 0-3.6.6-1.1.5-1.9 1.7-1.8 2.9.1.6.3 1.2.3 1.7-.1 1.3-1.8 1.8-3.1 2.2-2.5.7-4.8 2.2-6.4 4.2-.9 1-1.6 2.6-.7 3.7.7.9 2 .9 3.1.7 4.1-.7 7.8-2.9 11.6-4.8 3.8-1.8 8-3.3 12.1-2.4 4.5 1 7.9 4.7 10.9 8.2" class="st13"/><path class="st6" d="M315 336.8s-.1.2-.4.4c-.3.3-.7.7-1.1 1.2-.5.5-1.1 1.1-1.9 1.8-.7.7-1.6 1.5-2.6 2.3-1.9 1.7-4.3 3.5-7.1 5.5-2.8 1.9-5.9 3.9-9.4 5.7-3.5 1.8-6.9 3.3-10 4.5-3.2 1.2-6.1 2.1-8.5 2.7-1.2.3-2.4.6-3.3.8-1 .2-1.8.4-2.5.5-.7.1-1.2.2-1.6.3-.4.1-.6.1-.6.1s.2-.1.6-.2c.4-.1 1-.2 1.6-.4.7-.1 1.5-.3 2.5-.6s2.1-.5 3.3-.9c2.5-.7 5.3-1.6 8.5-2.8 3.1-1.2 6.5-2.7 9.9-4.5 3.4-1.8 6.6-3.7 9.4-5.6 2.8-1.9 5.2-3.7 7.1-5.4 1-.8 1.8-1.6 2.6-2.2.8-.7 1.4-1.2 1.9-1.7.5-.4.9-.8 1.2-1.1.2-.3.4-.5.4-.4z"/><path class="st6" d="M324.3 271s0 .2-.1.7c-.1.5-.2 1.1-.3 1.9-.3 1.7-.6 4.1-1.1 7-.9 5.9-2.1 14.2-3.4 23.2-1.2 9.1-2.3 17.3-3.1 23.3-.4 2.9-.7 5.3-.9 7.1-.1.8-.2 1.4-.3 1.9-.1.4-.1.7-.1.7v-.7c0-.5.1-1.1.2-1.9.2-1.7.5-4.1.8-7.1.7-6 1.7-14.2 3-23.3 1.2-9.1 2.5-17.3 3.5-23.2.5-3 .9-5.4 1.3-7 .2-.8.3-1.4.4-1.9 0-.5.1-.7.1-.7zM290.5 369.9l.5-1c.4-.6.9-1.4 1.7-2.5 1.4-2.1 3.5-4.9 5.8-8 2.3-3.1 4.5-5.8 6.2-7.7.8-1 1.5-1.7 2-2.3l.8-.8-.6.9c-.5.6-1.1 1.4-1.8 2.4-1.6 2-3.7 4.7-6 7.8-2.3 3.1-4.4 5.9-5.9 7.9-.7.9-1.3 1.7-1.8 2.4l-.9.9zM354.9 349s-.6-.2-1.6-.7c-1-.4-2.5-1.1-4.4-1.7-3.7-1.3-9.1-2.7-15.2-2.6-1.5.1-2.9.3-4.2.9-1.3.5-2.4 1.4-3.3 2.3-1.9 1.8-3 3.9-3.8 5.7-.8 1.8-1.2 3.4-1.6 4.4-.3 1.1-.5 1.6-.6 1.6 0 0 .1-.6.4-1.7.3-1.1.7-2.6 1.4-4.5s1.9-4 3.8-5.9c1-.9 2.1-1.8 3.5-2.4 1.4-.6 2.9-.9 4.4-.9 6.2-.2 11.6 1.3 15.3 2.7 1.9.7 3.3 1.4 4.3 1.9.5.2.9.5 1.1.6.3.2.5.3.5.3z"/><path class="st6" d="M347.4 333.3c0 .1-1.6.1-4 .5-1.2.2-2.7.6-4.2 1.1-1.5.6-3.2 1.3-4.8 2.3-1.6 1-3 2.1-4.3 3.3-1.2 1.1-2.2 2.3-2.9 3.3-1.5 2-2.2 3.4-2.3 3.4 0 0 .1-.4.4-1 .1-.3.3-.7.6-1.1.3-.4.5-.9.9-1.4.7-1.1 1.7-2.2 2.9-3.4 1.2-1.2 2.7-2.3 4.3-3.4 1.7-1 3.4-1.8 4.9-2.3 1.6-.5 3.1-.9 4.3-1 .6-.1 1.2-.1 1.7-.2h1.3c.8-.1 1.2-.1 1.2-.1z"/><path class="st7" d="M355.4 396.7c-.8-6.5-5.4-12.4-11.4-15.1-4.8-2.1-11.3-2.6-15.9 0-4.5 2.6-10.6 9.1-9.4 14.1l10.4 17.5c5.2 4 13 4.2 18.5.6 5.6-3.6 8.7-10.6 7.8-17.1z"/><path d="M355.4 396.7c-.8-6.5-5.4-12.4-11.4-15.1-4.8-2.1-11.3-2.6-15.9 0-4.5 2.6-10.6 9.1-9.4 14.1l10.4 17.5c5.2 4 13 4.2 18.5.6 5.6-3.6 8.7-10.6 7.8-17.1z" class="st13"/><path class="st6" d="M352.2 409.4s.4-.7 1-1.9c.6-1.3 1.4-3.2 1.8-5.7.4-2.5.3-5.5-.8-8.7-.2-.8-.6-1.6-1-2.4-.4-.8-.8-1.6-1.3-2.3-1-1.5-2.2-2.9-3.7-4.1-1.5-1.2-3.1-2.2-4.8-2.8-1.7-.6-3.4-1-5-1.2-3.3-.3-6.3.3-8.7 1.1-2.4.9-4.1 1.9-5.2 2.8-1.1.8-1.7 1.4-1.7 1.3 0 0 .1-.2.4-.4.3-.2.7-.7 1.2-1.1 1.1-.9 2.9-2.1 5.2-3 2.4-.9 5.4-1.5 8.8-1.3 1.7.2 3.4.5 5.2 1.2 1.7.7 3.4 1.7 4.9 2.9 1.5 1.2 2.8 2.7 3.8 4.2.5.8.9 1.6 1.4 2.3.3.8.7 1.6 1 2.4 1.1 3.2 1.1 6.4.7 8.9-.4 2.5-1.3 4.4-2 5.7-.3.6-.7 1.1-.9 1.4-.2.6-.3.7-.3.7z"/><path class="st6" d="M323.6 384.9c-.1 0-1.4-6.8-2.7-15.3-1.4-8.5-2.3-15.4-2.2-15.4.1 0 1.4 6.8 2.7 15.3 1.4 8.5 2.3 15.4 2.2 15.4z"/><path d="m316.8 344.9 5.3-.4c3.4-5.4 9.1-9.3 15.3-10.6 1.5-.3 3-.5 4.4-.1 1.4.4 2.8 1.4 3.1 2.9.4 1.4-.5 3.2-2 3.5 2.9.8 5.5 2.8 6.9 5.5.3.6.5 1.4.1 1.8-.3.3-.8.3-1.2.3-2.5 0-4.9-.5-7.3-.7-2.5-.1-5 .2-7 1.7-2 1.4-3.1 3.8-4 6-3.3 7.9-5.9 16.7-7.4 25.1-1.2-4.9-1.3-10-2.2-14.6-1.2-6.5-2.5-13.2-4-20.4M201.6 389.1c6.6 7.1 15.5 10.4 25.1 11.9 9.5 1.6 19.3 1 29 .5 2.4-.1 5.2-.6 6.2-2.7.7-1.5.2-3.3-.4-4.9-4.3-11.3-12.7-20.4-20.9-29.2-3-3.2-6.2-6.6-10.4-7.9-4.6-1.4-9.9-.2-14.3-2.2-5.3-2.5-7.4-8.7-9.1-14.3-1.7-5.8-1.7-5.8-3.4-11.5.7 12.5.6 22.6.6 22.6s-3.5 23.2-3 28.4c.5 5.3.6 9.3.6 9.3z" class="st13"/><path class="st6" d="M267.5 246.1s-.5-.1-1.3-.3c-.8-.2-2-.6-3.5-1.1-2.9-1-6.9-2.8-10.9-5.3s-7.3-5.3-9.5-7.4c-1.1-1.1-2-2-2.5-2.6-.6-.7-.9-1-.8-1 0 0 .4.3 1 .9.6.6 1.5 1.5 2.6 2.5 2.3 2.1 5.6 4.8 9.6 7.3s7.9 4.2 10.7 5.4c1.4.6 2.6 1 3.4 1.3.7.1 1.2.3 1.2.3zM295.4 240.6s-.1.3-.4.7c-.3.5-.7 1.1-1.3 1.9-1.2 1.5-3.1 3.4-5.5 5-2.5 1.6-5 2.6-6.8 3-.9.2-1.7.4-2.2.4-.5.1-.8.1-.8 0s1.1-.3 2.9-.8c1.8-.5 4.2-1.5 6.6-3.1 2.4-1.6 4.3-3.4 5.5-4.8 1.2-1.4 1.9-2.4 2-2.3zM300 246.7c.1 0-.9 2.7-3.3 5.3-2.3 2.6-4.8 3.9-4.9 3.8-.1-.1 2.3-1.6 4.5-4.2 2.3-2.4 3.5-4.9 3.7-4.9z"/><path class="st8" d="M247.5 365.6s.2 0 .6-.1c2.2-.4 9.6-1.8 10.8-.6 1.4 1.4 11.4 11.2 11.4 11.2s-1.9 3.1-8.2 0c-6.3-3.1-14.6-10.5-14.6-10.5z"/><path class="st6" d="M233.4 345.8c2.3-1.5 5.3-1 6.9 1.2l30.4 40.3-7.8 5.7-30.7-39.9c-1.8-2.4-1.2-5.7 1.2-7.3z"/><path class="st8" d="M163.9 372.8s36.1 5.9 41.1 6.3c5 .4 18.7 14.9 22.7 16.3 4 1.4 14.7 1.2 14.7 1.2s19.5 1 20.1 0 1.8-.8 0-4.6-4-6.6-4-6.6 5 6.2 6.4 6.4c1.4.2 4.4.6 4.2-2.1-.2-2.7-5.4-13.6-5.4-13.6s-2.2-5.1-6.2-6.2-21.3-9.5-21.3-9.5h-18.5l-21.6-10.3s-13.1-4.2-25.5 9.5c-2.4 2.7-4.2 5.9-5.4 9.4l-1.3 3.8z"/><path class="st9" d="m267.1 384.2-.5-1c-.3-.8-.8-1.8-1.3-2.9-.5-1.3-1.2-2.8-1.8-4.4-.6-1.6-1.5-3.4-3.2-4.6-.8-.6-1.7-1-2.6-1.4-.9-.4-1.7-.8-2.6-1.1-1.6-.7-3.1-1.3-4.4-1.9-1.2-.5-2.2-.9-3-1.2-.7-.3-1.1-.5-1.1-.5s.4.1 1.1.3c.7.2 1.8.6 3 1.1 1.3.5 2.8 1.1 4.4 1.8.8.4 1.7.7 2.6 1.1.9.4 1.8.8 2.7 1.5 1.7 1.3 2.7 3.2 3.3 4.9.6 1.6 1.2 3.1 1.7 4.4.4 1.2.8 2.2 1.1 3 .5.5.6.9.6.9zM248.9 374.2c0-.1.8.5 1.9 1.5 1.1 1 2.6 2.4 4 4.2 1.5 1.7 2.6 3.4 3.4 4.7.8 1.3 1.2 2.1 1.1 2.1-.1 0-.6-.7-1.4-1.9-.9-1.2-2.1-2.9-3.5-4.6-1.4-1.7-2.9-3.2-3.9-4.3-.9-1-1.6-1.6-1.6-1.7zM259.3 396.8s-.3-.1-.8-.3c-.5-.2-1.1-.6-1.9-1.2-1.5-1.1-3.4-2.9-5.3-5.1-1.9-2.1-3.5-4.1-4.7-5.5-1.2-1.4-1.9-2.3-1.8-2.4.1 0 .9.8 2.1 2.2 1.3 1.4 3 3.3 4.8 5.4 1.9 2.1 3.6 4 5.1 5.1 1.5 1.2 2.5 1.7 2.5 1.8zM248.6 396.8c0 .1-.8-.3-1.9-.9-1.1-.6-2.6-1.6-4.2-2.8-1.6-1.2-2.9-2.4-3.8-3.2-.9-.9-1.5-1.5-1.4-1.5.1-.1 2.5 2 5.6 4.3 3 2.3 5.7 3.9 5.7 4.1z"/><path class="st8" d="M307.8 411.8s-3.2-4.9-3.6-6.7c-.4-1.8 0-10.1-5.8-8.8v.6c.1.7 0 17.7 0 17.7l9.4-2.8z"/><path class="st7" d="M232.9 420.6s-5.4 49.7 52.8 48.3c47.5-1.2 46.6-47.5 46.6-47.5l-99.4-.8z"/><ellipse class="st7" cx="281.8" cy="421.1" rx="54.3" ry="13.1"/><ellipse class="st13" cx="282.6" cy="420.6" rx="49.8" ry="8.3"/><path class="st6" d="m334.2 424.9-.2.2c-.2.1-.4.2-.7.4-.6.4-1.5.9-2.7 1.5-2.4 1.2-5.9 2.7-10.5 3.9-4.6 1.2-10.2 2.2-16.4 3.1-6.2.8-13.1 1.1-20.4 1-7.2-.1-14.1-.3-20.4-.8-6.3-.6-11.8-1.5-16.5-2.6-4.6-1.1-8.3-2.4-10.7-3.3-1.2-.5-2.2-.9-2.8-1.2-.3-.1-.5-.2-.7-.3l-.2-.1s.1 0 .3.1c.2.1.4.2.7.3.7.3 1.6.7 2.8 1.1 2.5.9 6.1 2.1 10.7 3.2s10.2 1.9 16.4 2.4c6.2.5 13.1.7 20.3.8 7.2.1 14.1-.2 20.3-1 6.2-.8 11.8-1.8 16.3-2.9 4.6-1.2 8.1-2.6 10.5-3.8 1.2-.6 2.1-1.1 2.7-1.4.3-.2.5-.3.7-.4.5-.2.5-.3.5-.2z"/><path class="st8" d="M301 419.5s5.9-19.9 8-22.6c1.7-2.2 13.7-11.2 17.8-14.3 1-.8 2.2-1.3 3.4-1.6 4.1-1.1 8.1-1.8 14.8 1.1 7.2 3.1 9.1 9.9 9.1 9.9l-22.4 13.9-.9 9.4-18-4.6s.2-1-.5-2.7c.1-.1-5.6 13.8-11.3 11.5z"/><path class="st3" d="M279.4 405.4c-2.3-3-4.2-5.9-5.7-8.3-1.5-2.5-2.6-4.5-3.3-6-.7-1.4-1.1-2.2-1.2-2.2-.1 0 .3.9.9 2.3.6 1.5 1.7 3.6 3.1 6.1 1.5 2.5 3.3 5.4 5.6 8.5 2.2 3.1 4.9 6.4 7.7 9.8 3.9 4.7 7.5 9.1 10.4 12.9h.8c-2.9-4-6.6-8.5-10.6-13.3-2.8-3.5-5.4-6.8-7.7-9.8zM265.1 391.1c-.1 0 .3.8.9 2.3.6 1.5 1.6 3.6 2.7 6.3 2.2 5.3 5.1 12.7 7.5 21.1.8 2.8 1.6 5.5 2.6 8.1h.8c-1-2.6-1.8-5.4-2.6-8.3-2.5-8.4-5.4-15.9-7.8-21.1-1.2-2.6-2.2-4.7-2.9-6.2-.7-1.4-1.1-2.2-1.2-2.2zM267.1 388.7s.3.8 1.1 2.3c.7 1.4 1.8 3.5 3.2 6.1 2.8 5.1 6.6 12.2 11.3 19.7 2.7 4.4 5.4 8.4 8 11.9h.8c-2.5-3.6-5.3-7.8-8.1-12.3-4.7-7.5-8.6-14.5-11.5-19.5-1.4-2.4-2.5-4.4-3.4-6-.9-1.4-1.4-2.2-1.4-2.2zM310.8 422.9c-2-4.9-5.3-8.9-8.9-12.1-3.6-3.2-7.4-5.7-11-8-3.6-2.3-7-4.3-9.9-6.4-5.9-4.2-10-8.4-12.6-11.5-1.3-1.5-2.3-2.8-2.9-3.6-.3-.4-.5-.7-.7-1l-.3-.3s.1.1.2.4c.2.3.4.6.7 1 .6.9 1.5 2.1 2.8 3.7 2.6 3.1 6.6 7.5 12.5 11.7 2.9 2.1 6.3 4.2 9.9 6.5 3.6 2.3 7.4 4.8 10.9 8s6.7 7.1 8.6 11.9c.6 1.4 1 2.8 1.3 4.2.3 0 .5-.1.8-.1-.3-1.5-.8-3-1.4-4.4z"/><path class="st3" d="M309 426.2c-1.1-2.8-2.8-6-5.3-9.1-2.5-3.1-5.7-6.1-9.3-9-3.6-2.8-7.2-5.3-10.4-7.6s-6-4.5-8.3-6.4c-2.3-1.9-4-3.7-5.1-4.9-1.1-1.2-1.7-1.9-1.8-1.9 0 0 .1.2.4.6.2.4.6.9 1.2 1.5 1.1 1.3 2.7 3.1 4.9 5.1 2.2 2 5 4.2 8.2 6.6 3.2 2.3 6.8 4.8 10.3 7.7 3.6 2.8 6.7 5.8 9.2 8.8 2.5 3 4.3 6.1 5.4 8.9.2.4.3.8.5 1.3h.5c0-.6-.2-1.1-.4-1.6zM282.8 421.6c-3.8-7-7.1-13.5-9.4-18.2-1.1-2.3-2-4.2-2.7-5.6-.6-1.3-1-2-1.1-2 0 0 .2.8.8 2.1.6 1.4 1.4 3.3 2.5 5.7 2.2 4.8 5.3 11.3 9.2 18.4 1.3 2.4 2.6 4.7 3.8 6.8h.9c-1.3-2.3-2.6-4.7-4-7.2z"/><path class="st3" d="M290.8 412.6c-6.3-6.2-11.6-12.3-15.3-16.7-1.8-2.2-3.3-4.1-4.3-5.4-1-1.3-1.6-2-1.6-1.9 0 0 .4.8 1.4 2.1.9 1.3 2.3 3.2 4.1 5.5 3.6 4.6 8.8 10.7 15.1 17 3.2 3.1 6.4 5.9 9.1 8.6 2.1 2.1 3.9 4.2 5.2 6.3h.7c-1.4-2.2-3.2-4.5-5.4-6.7-2.7-2.9-5.9-5.7-9-8.8zM274.4 426.4c-1.3-4-2.2-7.9-3.1-11.4-1.6-7-3.1-12.7-4.7-16.5-1.5-3.8-2.9-5.6-2.9-5.6s0 .1.2.4c.1.3.3.6.6 1.1.5 1 1.2 2.4 1.9 4.2 1.5 3.7 2.9 9.4 4.5 16.5.8 3.5 1.7 7.4 3 11.5.3.8.5 1.6.8 2.3h.7c-.4-.8-.7-1.7-1-2.5z"/><path class="st6" d="M314.7 414.3H315.6c.6 0 1.5.1 2.7.3 2.3.4 5.6.8 9.6 2.1 1 .4 2 .8 3 1.3.5.3 1 .7 1.4 1.2.4.5.5 1.3.3 1.9-.2.7-.8 1.1-1.3 1.5-.5.3-1.1.7-1.7.9-1.2.5-2.5 1-3.8 1.3-5.3 1.5-11.3 2.6-17.6 3.4-12.6 1.5-24.1 1.2-32.4.9-4.1-.2-7.5-.4-9.8-.5-1.1-.1-2-.1-2.7-.2-.3 0-.5 0-.7-.1h-.2H263.3c.7 0 1.5.1 2.7.1 2.4.1 5.7.2 9.8.3 8.3.2 19.8.4 32.4-1 6.3-.7 12.2-1.9 17.5-3.3 1.3-.3 2.6-.8 3.8-1.3.6-.2 1.1-.5 1.7-.9.5-.3 1-.7 1.1-1.2.1-.5.1-1.1-.2-1.6-.3-.4-.8-.8-1.2-1.1-1-.5-2-1-2.9-1.3-3.9-1.3-7.3-1.9-9.5-2.3-1.1-.2-2-.3-2.6-.4h-1.2z"/><path class="st9" d="M319.5 402c.1.1-1.8 1.6-3.9 3.5-2.1 2-3.7 3.7-3.8 3.6-.1-.1 1.3-2 3.5-4 2.1-2 4.2-3.2 4.2-3.1zM319.1 409.9c-.1.1-1.4-.7-3.2-.7-1.8 0-3.1.9-3.2.8 0 0 .2-.4.8-.7.5-.3 1.4-.6 2.4-.6s1.9.2 2.4.5c.6.3.8.6.8.7z"/></g><g id="Shelves"><path class="st10" d="M137.7 203.5c-.6.5-32.3 14.7-32.3 14.7s8.7 18.5 25.7 10.3c15.4-7.6 6.6-25 6.6-25z"/><path class="st10" d="M137.3 101.1c.7 0 1.3 24.6 1.3 55s-.6 55-1.3 55c-.7 0-1.3-24.6-1.3-55s.6-55 1.3-55zM114.8 175.3c-.6.5-32.3 14.7-32.3 14.7s8.7 18.5 25.7 10.3c15.4-7.5 6.6-25 6.6-25z"/><path class="st10" d="M114.4 99.2c.7 0 1.3 18.7 1.3 41.8 0 23.1-.6 41.8-1.3 41.8-.7 0-1.3-18.7-1.3-41.8 0-23.1.6-41.8 1.3-41.8zM87 147.6c-.6.5-32.3 14.7-32.3 14.7s8.7 18.5 25.7 10.3c15.5-7.6 6.6-25 6.6-25z"/><path class="st10" d="M86.7 102c.7 0 1.3 11.9 1.3 26.6 0 14.7-.6 26.6-1.3 26.6-.7 0-1.3-11.9-1.3-26.6 0-14.7.5-26.6 1.3-26.6z"/><circle class="st10" cx="175.1" cy="176.1" r="32.4"/><path class="st10" d="m173.8 147.4-2.5-41.7h11.9l-3.3 41.7z"/><path class="st6" d="M188.7 198.9s-.1.1-.2.1c-.2.1-.4.2-.7.4-.3.2-.6.4-1.1.6-.5.2-1 .4-1.5.7-2.3 1-6 2-10.5 1.9-4.5-.1-10.1-1.3-15-4.8-2.5-1.7-4.8-4-6.5-6.8-1.8-2.8-3.1-5.9-3.9-9.3-.7-3.4-.8-6.9-.3-10.1.5-3.3 1.7-6.3 3.2-8.9 3.1-5.2 7.7-8.6 11.8-10.5 4.2-1.9 7.9-2.5 10.4-2.5h1.7c.5 0 .9.1 1.2.1.3 0 .6.1.8.1h.3-1.1c-.3 0-.7-.1-1.2-.1h-1.7c-2.5.1-6.2.7-10.2 2.6-4 1.9-8.5 5.3-11.5 10.4-1.5 2.5-2.7 5.5-3.1 8.7-.5 3.2-.4 6.6.3 9.9.7 3.3 2 6.5 3.8 9.2 1.7 2.7 4 5 6.4 6.7 4.9 3.4 10.3 4.7 14.8 4.8 4.5.1 8.1-.8 10.4-1.8.6-.2 1.1-.5 1.5-.6.4-.2.8-.4 1.1-.5.3-.1.5-.2.7-.3h.1z"/><path class="st10" d="m45.2 51.8 11.4 41.5h48.6l11.5-41.5z"/><path class="st6" d="M114.4 60c0 .1-15 .3-33.5.3s-33.5-.1-33.5-.3c0-.1 15-.3 33.5-.3 18.5.1 33.5.2 33.5.3z"/><path class="st6" d="M123.3 62.5h-9.9l1.6-4.3h8.4c1.2 0 2.2 1 2.2 2.2-.1 1.1-1.1 2.1-2.3 2.1zM38.5 62.5h9.9l-1.6-4.3h-8.4c-1.2 0-2.2 1-2.2 2.2.1 1.1 1.1 2.1 2.3 2.1z"/><path class="st7" d="M32.9 92.7h181.5v13H32.9z"/></g><g id="Kitchen_tools"><path class="st7" d="M449.1 277.4c-2.8-1.1-5.9.3-7 3.1l-8.1 21.6 10 3.7 8.1-21.4c1.2-2.8-.2-5.9-3-7z"/><path class="st14" d="M448.9 284.2c0 1.3-1 2.3-2.3 2.3s-2.3-1-2.3-2.3c0-1.3 1-2.3 2.3-2.3s2.3 1.1 2.3 2.3zM443.2 298.4c0 1.3-1 2.3-2.3 2.3-1.3 0-2.3-1-2.3-2.3 0-1.3 1-2.3 2.3-2.3 1.3 0 2.3 1 2.3 2.3z"/><path class="st0" d="m434.1 302-15.5 40.5 19.1-.2 15.5-33.5z"/><path class="st7" d="M395 342.5h53.5V404H395z"/><path class="st2" d="M448.5 357.8c0 .1-12 .3-26.7.3-14.8 0-26.8-.1-26.8-.3 0-.1 12-.3 26.8-.3 14.7.1 26.7.2 26.7.3zM448.5 364.5c0 .1-12 .3-26.7.3-14.8 0-26.8-.1-26.8-.3s12-.3 26.8-.3c14.7 0 26.7.1 26.7.3zM448.5 371.1c0 .1-12 .3-26.7.3-14.8 0-26.8-.1-26.8-.3 0-.1 12-.3 26.8-.3 14.7 0 26.7.1 26.7.3zM448.5 377.7c0 .1-12 .3-26.7.3-14.8 0-26.8-.1-26.8-.3s12-.3 26.8-.3c14.7 0 26.7.2 26.7.3zM448.5 384.3c0 .1-12 .3-26.7.3-14.8 0-26.8-.1-26.8-.3s12-.3 26.8-.3c14.7.1 26.7.2 26.7.3zM448.5 391c0 .1-12 .3-26.7.3-14.8 0-26.8-.1-26.8-.3s12-.3 26.8-.3c14.7 0 26.7.1 26.7.3z"/><path class="st10" d="m363.6 308.6 35.8 2.9s1-17.4-15.7-19.2c-16.9-1.9-20.1 16.3-20.1 16.3z"/><path class="st10" d="M409.1 342.5c-.7.2-4.4-8.7-8.3-19.9-3.9-11.2-6.5-20.5-5.8-20.8.7-.2 4.4 8.7 8.3 19.9 3.9 11.3 6.5 20.6 5.8 20.8z"/></g><g id="Food"><path class="st10" d="M411.3 460.3s-.2.1-.7.2c-.5.1-1.2.2-2 .3-.5.1-.9.1-1.5.2-.5.1-1.1.1-1.8.2-1.3.1-2.7.3-4.3.3-.8 0-1.7.1-2.5.1h-2.7c-1.9 0-3.9-.2-6.1-.4-4.2-.5-8.9-1.2-13.6-2.5-4.8-1.3-9.1-3-13-4.8-1.9-.9-3.8-1.8-5.4-2.8-.8-.5-1.6-.9-2.4-1.4-.7-.5-1.5-.9-2.1-1.4-1.4-.8-2.5-1.7-3.6-2.5-.5-.4-1-.7-1.4-1.1-.4-.3-.8-.7-1.2-1-.7-.6-1.2-1-1.6-1.3-.4-.3-.5-.5-.5-.5s.2.1.6.4c.4.3 1 .7 1.6 1.3l1.2.9c.4.3.9.7 1.5 1 1.1.7 2.2 1.6 3.6 2.4.7.4 1.4.9 2.1 1.3.7.5 1.6.9 2.4 1.3 1.6 1 3.5 1.8 5.4 2.7 3.9 1.7 8.2 3.4 13 4.7 4.7 1.3 9.3 2.1 13.6 2.5 2.1.2 4.1.4 6 .4.9 0 1.9.1 2.7.1.9 0 1.7 0 2.5-.1 1.6 0 3.1-.2 4.3-.2.6-.1 1.2-.1 1.8-.1.5-.1 1-.1 1.5-.2.9-.1 1.5-.2 2.1-.2.2.2.5.2.5.2zM368.7 456.4c-7.5-1-17.3 1.9-22.9 7 7.9-1.1 15.7-3.5 22.9-7"/><path class="st10" d="M369.1 456.5c2.7-7.1-1.3-17-1.3-17-.8-1.3-.5 9.2 1.3 17M357.3 450.9c2-5.2-.9-12.5-.9-12.5-.6-.9-.4 6.8.9 12.5M379.7 459c2-5.2-.9-12.5-.9-12.5-.6-1-.4 6.7.9 12.5M357.5 451c-5.6-.7-12.9 1.4-17.1 5.2 5.9-.8 11.7-2.6 17.1-5.2M380.8 459.8c-7.9.1-17.6 4.6-22.7 10.7 8.1-2.3 15.8-5.9 22.7-10.7"/><path class="st7" d="M411.1 421.9c-3.2-4.8-9.2-7.7-15-7.1-5.8.5-11.1 4.4-13.4 9.8-1.9 4.5-1.7 9.8.2 14.3s5.3 8.3 9.3 11c10.6 7.2 25.9 6.9 35.7-1.3 3.6-3 6.6-7.2 7.2-11.9.8-5.4-1.8-11.2-6.3-14.3-4.5-3.1-10.8-3.4-15.6-.7"/><path class="st10" d="M411.1 421.9c-.6-2.6-3.3-4.5-6-4.1 1.2 1.4 2.4 2.8 3.5 4.2-1.9.2-3.7 1.6-4.3 3.4-.2.4-.2 1 .2 1.3.3.1.6 0 .9-.1 1.4-.6 2.9-1.2 4.3-1.8.3 2.4 1.2 4.7 2.6 6.7 1-2.1 1.5-4.4 1.6-6.7 1.6.7 3.2 1.4 4.7 2.1-.4-1.4-1.2-2.6-2.2-3.5 1.4-.3 2.8-.8 4-1.5.4-.2.8-.6.6-1-.1-.3-.5-.4-.8-.4-3.1-.3-6.3.4-9.1 1.9"/><path class="st10" d="M410.8 423.7c.7-4.8.3-9.7-1.2-14.3 1.1-.3 2.5-.4 3.3.5.4.5.5 1.2.5 1.9.1 4.5-.8 9-2.5 13.2"/><path class="st2" d="M387.7 440.9s-.3-.2-.7-.7c-.4-.5-1-1.3-1.6-2.4-1.1-2.1-2.1-5.5-1.5-9.2.6-3.7 2.6-6.6 4.4-8.3.9-.8 1.7-1.4 2.3-1.7.6-.3.9-.5.9-.5.1.1-1.3.8-3 2.5s-3.6 4.5-4.2 8.1c-.6 3.6.3 6.9 1.3 9 1.1 2 2.2 3.1 2.1 3.2zM392.5 444.5c0 .1-.8 0-1.6-.6-.8-.5-1.2-1.2-1-1.3.1-.1.7.4 1.3.9.7.5 1.3.9 1.3 1z"/><path class="st10" d="M191.5 367.1c-.4.1 2.8 16.3 2.8 16.3h8.3l3.7-15.7c-.1 0-6.2-2.6-14.8-.6z"/><path class="st3" d="M186.5 458.4s-12.2-34.1-10.5-43.3c1.7-9.2 5.4-11.2 8.3-14.1 2.9-2.9 5.4-5.4 6.1-8.3.7-2.9 0-14.6 0-14.6s-2.2-3.4-1.5-4.6c.7-1.2 18.7 0 18.7 0s0 1.9-1.5 4.1c0 0-.5 13.6.2 15.1s11.9 13.9 13.6 20.2c1.7 6.3-6.7 45.5-6.7 45.5h-26.7z"/><path class="st6" d="M186.5 458.4H193.7c4.6 0 11.3 0 19.7-.1l-.2.1c1-4.9 2.2-10.6 3.3-16.7 1.1-6.2 2.3-12.9 3.2-20.1.2-1.8.4-3.6.4-5.5 0-.9 0-1.9-.2-2.8-.2-.9-.6-1.8-1-2.6-1.7-3.4-4.1-6.6-6.5-9.8-1.2-1.6-2.5-3.2-3.8-4.8-.6-.8-1.3-1.6-1.9-2.4-.2-.2-.3-.4-.5-.7-.1-.3-.2-.6-.2-.8-.1-.5-.1-1.1-.1-1.6-.2-4.2-.1-8.5.1-12.8v-.2c.2-.3.4-.6.6-1 .5-.9.8-2 .9-3l.2.3c-4.1-.3-8.2-.5-12.1-.5-2 0-4-.1-5.8.2-.2 0-.5.1-.5.2-.1.1-.1.3-.1.5 0 .4.1.9.3 1.3.3.9.8 1.7 1.3 2.5v.2c.2 3.1.3 6.2.3 9.2 0 1.5 0 3-.2 4.5-.1 1.5-.8 2.9-1.6 4.1-.8 1.2-1.8 2.3-2.8 3.3l-3 3c-1 .9-2 1.8-2.9 2.8-.9 1-1.6 2.1-2.1 3.3-1.1 2.3-1.8 4.8-2.2 7.2-.2 1.2-.1 2.4 0 3.6.1 1.2.2 2.3.4 3.5.7 4.5 1.8 8.6 2.7 12.4 2 7.4 3.9 13.3 5.2 17.3.7 2 1.2 3.5 1.5 4.6.2.5.3.9.4 1.2v.1s-.1-.1-.2-.4c-.1-.3-.2-.7-.4-1.2-.4-1-.9-2.6-1.6-4.6-1.3-4-3.3-9.9-5.3-17.3-1-3.7-2.1-7.8-2.8-12.4-.2-1.1-.3-2.3-.4-3.5-.1-1.2-.1-2.4 0-3.7.4-2.4 1.1-4.9 2.2-7.3.6-1.2 1.3-2.3 2.2-3.4.9-1 1.9-2 2.9-2.9 1-.9 2-1.9 3-2.9s1.9-2.1 2.7-3.2c.8-1.2 1.4-2.5 1.5-3.9.2-1.4.2-2.9.2-4.4 0-3-.1-6.1-.3-9.2v.1c-.5-.8-1-1.7-1.3-2.6-.2-.5-.3-.9-.3-1.5 0-.3 0-.6.2-.8.3-.3.6-.3.8-.4 2-.3 3.9-.2 5.9-.2 4 .1 8 .3 12.2.5h.3v.2c-.1 1.2-.4 2.2-.9 3.3-.2.4-.4.7-.6 1v-.1c-.1 4.3-.3 8.6-.1 12.8 0 .5.1 1 .1 1.5 0 .3.1.5.2.7.1.2.3.4.4.6.6.8 1.3 1.6 1.9 2.4 1.3 1.6 2.6 3.2 3.8 4.8 2.4 3.2 4.8 6.4 6.5 9.9.4.9.8 1.8 1 2.7.2 1 .2 1.9.2 2.9 0 1.9-.2 3.7-.4 5.5-.8 7.2-2.1 14-3.2 20.2-1.2 6.2-2.3 11.8-3.4 16.7v.1h-.1c-8.5 0-15.2-.1-19.8-.1H187c-.3.1-.5.1-.5.1z"/><path class="st7" d="M211.1 454.8c2.8-9.8 5.3-23.6 6.1-34.8.1-1.3.1-2.9-.9-3.8-1.2-1.1-3.1-.5-4.7 0-4.6 1.5-9.6 1.7-14.3.8-4.6-.9-9.2-3.1-13.8-2.3-1.2.2-2.4.6-3 1.6-.8 1.1-.6 2.6-.4 3.9 1.8 11.4 5.6 24.6 8.6 34.5h22.4z"/><path class="st2" d="M214.1 417.7s-.3.4-.9 1c-.6.6-1.5 1.4-2.8 2.2-2.4 1.7-6.3 3.5-10.8 4.1-4.6.6-8.7-.3-11.5-1.3-1.4-.5-2.5-1.1-3.2-1.5-.7-.4-1.1-.7-1.1-.7 0-.1 1.6.9 4.4 1.8 2.8.9 6.9 1.7 11.3 1.1 4.5-.6 8.2-2.3 10.7-3.9 2.6-1.6 3.9-2.9 3.9-2.8z"/></g></svg>