<svg xmlns="http://www.w3.org/2000/svg" viewBox="0 0 750 500" style="enable-background:new 0 0 750 500" xml:space="preserve"><style>.st0{fill-rule:evenodd;clip-rule:evenodd}.st0,.st1{fill:#e0e0e0}.st6{fill:#263238}.st7{fill:#442fb1}.st8{fill:#fff}.st9{opacity:.2}.st10{fill:#e8505b}.st11{fill:#fafafa}.st12{fill:#455a64}.st13{fill:#ffbe9d}.st14{fill:#eb996e}.st15{opacity:.3}.st17{fill:#b78876}.st19{fill:#aa6550}</style><g id="Background_Complete"><path class="st0" d="M637.8 117.6c4.1 2.1 7.8 4.8 11.1 7.9l11.9-4.2L672 139l-8.9 9c1.4 4.3 2.2 8.8 2.3 13.4l11.4 5.4-4.6 20.4h-12.6c-2.1 4.1-4.8 7.8-7.9 11.1l4.2 11.9-17.7 11.2-9-8.9c-4.3 1.4-8.8 2.2-13.4 2.3l-5.4 11.4-20.4-4.6V209c-4.1-2.1-7.8-4.8-11.1-7.9l-11.9 4.2-11.2-17.7 8.9-9c-1.4-4.3-2.2-8.8-2.3-13.4l-11.4-5.4 4.6-20.4h12.6c2.1-4.1 4.8-7.8 7.9-11.1l-4.2-11.9 17.7-11.2 9 8.9c4.3-1.4 8.8-2.2 13.4-2.3l5.4-11.4 20.4 4.6v12.6zm-18 24c-12.1-2.7-24.1 4.9-26.8 17-2.7 12.1 4.9 24.1 17 26.8 12.1 2.7 24.1-4.9 26.8-17 2.7-12.1-4.9-24.1-17-26.8z"/><path class="st1" d="M525.5 78.5s1.5.1 3.9 1.2c2.4 1.1 5.7 3.5 7.8 7.9 1 2.2 1.7 4.8 1.6 7.6-.1 2.8-.9 5.9-2.6 8.6-.8 1.4-1.9 2.6-3.2 3.7-1.3 1.1-2.7 2-4.3 2.7-3.2 1.4-6.9 1.8-10.5 1-3.6-.8-6.8-2.8-9.1-5.4-1.2-1.3-2.1-2.8-2.7-4.3-.7-1.5-1.1-3.1-1.3-4.7-.4-3.2.2-6.3 1.3-8.9 1.1-2.6 2.9-4.7 4.7-6.2 3.7-3.1 7.8-3.8 10.4-3.8 2.6.1 4 .6 4 .6 0 .1-1.4-.3-4.1-.2-2.6.1-6.5.9-10 4-1.7 1.5-3.4 3.5-4.4 6-1 2.5-1.6 5.4-1.1 8.4.2 1.5.6 3 1.3 4.5.6 1.5 1.5 2.8 2.6 4.1 2.1 2.5 5.2 4.3 8.6 5.1 3.4.7 7 .4 10-1 1.5-.6 2.9-1.5 4.1-2.6 1.2-1 2.2-2.2 3-3.5 1.7-2.5 2.4-5.4 2.6-8.1.1-2.7-.5-5.2-1.4-7.3-1.9-4.2-5.1-6.7-7.4-7.8-2.3-1.2-3.8-1.5-3.8-1.6z"/><path class="st1" d="M538.8 60.8v-2.4c0-1.6-.1-4-.1-7l.1.1c-3.9-.8-8.9-2-15.1-3.3l.3-.1c-1.2 2.6-2.5 5.4-4 8.4l-.1.2h-.2c-3.1.1-6.5.7-9.8 1.7l-.2.1-.1-.1c-2.1-2-4.3-4.3-6.6-6.6h.4c-4.1 2.6-8.5 5.4-13 8.3l.2-.4c1 2.7 2 5.7 3.1 8.8l.1.2-.2.2c-2.1 2.3-4.1 5.1-5.7 8.2l-.1.2h-9.5l.4-.3c-1.1 4.7-2.2 9.8-3.4 15.1l-.2-.5c2.6 1.2 5.5 2.6 8.4 4l.2.1v.3c.1 3.1.7 6.5 1.7 9.8l.1.3-.2.2-6.6 6.6.1-.6c2.6 4.1 5.4 8.6 8.3 13l-.6-.2c2.8-1 5.8-2.1 8.8-3.1l.3-.1.2.2c2.3 2.1 5.1 4.1 8.1 5.7.1.2-.3-.4.3.4v9.3l-.4-.5c5.1 1.1 10.1 2.3 15.1 3.4l-.5.3c1.3-2.8 2.7-5.6 4-8.4l.1-.3h.3c3.4-.1 6.7-.7 9.8-1.7l.3-.1.2.2 6.6 6.6h-.7c4.5-2.8 8.8-5.6 13-8.2l-.2.5c-1.1-3-2.1-5.9-3.1-8.8l-.1-.2.2-.2c2.3-2.5 4.2-5.2 5.7-8.1l.1-.2h9.5l-.4.3c1.2-5.3 2.3-10.3 3.4-15.1l.2.4c-3-1.4-5.7-2.7-8.4-4l-.2-.1v-.2c-.1-3.6-.8-6.8-1.7-9.8l-.1-.2.1-.1 6.6-6.6v.3c-3.2-5.1-5.9-9.4-8.2-13.1l.3.1c-3.5 1.2-6.4 2.2-8.8 3.1h-.1l-.1-.1c-2.5-2.3-4.6-3.7-6-4.6-.7-.4-1.2-.7-1.6-1-.1-.2-.3-.3-.3-.3l.6.3c.4.2.9.5 1.6.9 1.4.9 3.6 2.2 6.1 4.5h-.2c2.4-.9 5.3-1.9 8.8-3.2l.2-.1.1.1c2.4 3.7 5.1 8 8.3 13l.1.2-.2.2c-2 2.1-4.2 4.2-6.6 6.6l.1-.3c1 3 1.6 6.4 1.8 10l-.2-.3c2.7 1.3 5.5 2.6 8.4 4l.3.1-.1.3c-1.1 4.8-2.2 9.8-3.3 15.1l-.1.3H554.9l.4-.2c-1.5 3-3.5 5.8-5.8 8.3l.1-.4c1 2.9 2.1 5.8 3.1 8.8l.1.3-.3.2c-4.2 2.7-8.6 5.4-13 8.3l-.3.2-.3-.3-6.6-6.6.5.1c-3.2 1-6.6 1.6-10 1.8l.4-.3c-1.3 2.8-2.7 5.6-4 8.4l-.2.3-.4-.1c-5-1.1-10-2.2-15.1-3.4l-.4-.1v-9.7c.5.8.1.2.3.4-3.1-1.6-5.9-3.7-8.3-5.9l.5.1c-3 1.1-6 2.1-8.8 3.1l-.4.1-.2-.3c-2.8-4.5-5.6-8.9-8.3-13l-.2-.3.3-.3 6.6-6.6-.1.5c-1.1-3.4-1.6-6.8-1.7-10l.3.4c-2.9-1.4-5.8-2.8-8.4-4l-.3-.2.1-.3c1.2-5.2 2.3-10.3 3.4-15.1l.1-.3H487.6l-.4.2c1.6-3.2 3.7-6 5.9-8.3l-.1.4c-1.1-3.1-2.1-6.1-3.1-8.8l-.1-.3.3-.2c4.6-2.9 8.9-5.6 13.1-8.2l.2-.1.2.2 6.6 6.6-.3-.1c3.4-1.1 6.8-1.6 10-1.7l-.2.2c1.5-3 2.8-5.9 4-8.4l.1-.2h.2c6.1 1.4 11.2 2.6 15 3.5h.1v.1c0 3 0 5.3-.1 6.9V60c-.2.6-.2.8-.2.8z"/><path d="M133.3 280.9c1.9 1.4 3.5 3 4.9 4.8l6.3-1.2 4.2 9.7-5.2 3.8c.3 2.3.4 4.6.1 6.9l5.3 3.6-4 9.8-6.3-1c-1.4 1.9-3 3.5-4.8 4.9l1.2 6.3-9.7 4.2-3.8-5.2c-2.3.3-4.6.4-6.9.1l-3.6 5.3-9.8-4 1-6.3c-1.9-1.4-3.5-3-4.9-4.8L91 319l-4.2-9.7 5.2-3.8c-.3-2.3-.4-4.6-.1-6.9l-5.3-3.6 4-9.8 6.3 1c1.4-1.9 3-3.5 4.8-4.9l-1.2-6.3 9.7-4.2 3.8 5.2c2.3-.3 4.6-.4 6.9-.1l3.6-5.3 9.8 4-1 6.3zm-10.9 10.6c-5.8-2.3-12.4.5-14.8 6.3-2.3 5.8.5 12.4 6.3 14.8 5.8 2.3 12.4-.5 14.8-6.3 2.3-5.9-.5-12.5-6.3-14.8z" style="fill:none"/><path class="st1" d="M122.4 291.5s1 .2 2.5 1.3c1.5 1 3.5 3 4.4 6.2.4 1.6.6 3.4.2 5.3-.4 1.9-1.2 3.9-2.7 5.5-.7.8-1.6 1.6-2.6 2.2-1 .6-2.1 1.1-3.2 1.4-2.3.6-4.9.5-7.3-.5-2.3-1-4.3-2.6-5.6-4.7-.6-1-1.1-2.1-1.4-3.2-.3-1.1-.4-2.2-.4-3.3.1-2.2.8-4.2 1.8-5.9 1-1.6 2.5-2.9 3.9-3.7 2.9-1.7 5.7-1.7 7.5-1.4 2 .3 2.9.8 2.9.8 0 .1-.9-.4-2.7-.6-1.7-.2-4.5-.1-7.2 1.6-1.3.8-2.7 2-3.6 3.6-1 1.6-1.7 3.5-1.7 5.6 0 1 .1 2.1.4 3.2.3 1.1.7 2.1 1.3 3 1.2 1.9 3 3.5 5.3 4.4 2.2.9 4.7 1 6.9.4 1.1-.3 2.1-.7 3.1-1.3.9-.6 1.8-1.2 2.4-2 1.4-1.5 2.2-3.4 2.6-5.2.4-1.8.2-3.6-.2-5.1-.8-3.1-2.7-5.1-4.1-6.1-1.6-1.1-2.6-1.4-2.5-1.5z"/><path class="st1" d="M133.3 280.9v-.4c0-.3.1-.7.2-1.2.2-1.1.4-2.7.7-4.7l.1.1c-2.5-1-5.8-2.3-9.9-3.9l.2-.1c-1.1 1.6-2.3 3.4-3.6 5.3l-.1.1h-.1c-2.1-.3-4.5-.3-6.9.1h-.1l-.1-.1c-1.2-1.6-2.4-3.4-3.8-5.2l.3.1c-3.1 1.3-6.3 2.7-9.7 4.2l.2-.3c.4 2 .8 4.1 1.2 6.3v.2l-.1.1c-1.7 1.3-3.3 3-4.8 4.9l-.1.1h-.2c-2-.3-4.1-.7-6.3-1l.3-.2c-1.2 3.1-2.6 6.4-3.9 9.8l-.1-.4c1.6 1.1 3.4 2.4 5.3 3.6l.2.1v.2c-.3 2.1-.3 4.5.1 6.8v.2l-.2.1c-1.6 1.2-3.4 2.5-5.2 3.8l.1-.4c1.3 3.1 2.7 6.4 4.2 9.7l-.4-.2c2-.4 4.1-.8 6.3-1.2h.2l.1.2c1.3 1.7 3 3.4 4.9 4.8.1.1-.1-.3.1.3V323l-.1.4-.1.8-.3 1.6c-.2 1.1-.3 2.1-.5 3.2l-.2-.4c3.3 1.3 6.6 2.7 9.8 4l-.4.1c1.2-1.8 2.4-3.5 3.6-5.3l.1-.2h.2c2.3.3 4.6.3 6.8-.1h.2l.1.2c1.3 1.8 2.5 3.5 3.8 5.2l-.4-.1c3.3-1.4 6.6-2.8 9.8-4.1l-.2.3c-.4-2.1-.8-4.2-1.1-6.3v-.2l.1-.1c1.8-1.4 3.4-3.1 4.8-4.9l.1-.1h.2c2.2.4 4.3.7 6.3 1l-.3.2c1.4-3.5 2.7-6.7 4-9.8l.1.3c-1.8-1.3-3.6-2.5-5.3-3.7l-.1-.1v-.1c.3-2.4.2-4.7-.1-6.9v-.1l.1-.1c1.9-1.4 3.6-2.6 5.2-3.7l-.1.2c-1.6-3.8-3-7-4.1-9.8l.2.1c-2.5.4-4.6.8-6.3 1.1h-.1c-1.4-1.8-2.7-3-3.6-3.8-.4-.4-.7-.6-1-.8-.2 0-.3-.1-.3-.1s.1.1.4.2c.2.2.6.4 1 .8.9.7 2.2 1.9 3.6 3.7h-.1c1.7-.3 3.8-.7 6.3-1.2h.1v.1c1.2 2.7 2.6 6 4.2 9.7l.1.1-.1.1c-1.6 1.2-3.3 2.4-5.2 3.8l.1-.2c.3 2.2.4 4.5.1 7l-.1-.2c1.7 1.2 3.4 2.4 5.3 3.6l.2.1-.1.2c-1.2 3.1-2.5 6.4-3.9 9.8l-.1.2h-.2c-2.1-.3-4.2-.7-6.3-1l.3-.1c-1.4 1.8-3 3.5-4.9 5l.1-.3 1.2 6.3v.2l-.3.2c-3.2 1.4-6.4 2.7-9.7 4.2l-.2.1-.1-.2c-1.2-1.7-2.5-3.4-3.8-5.2l.3.1c-2.3.3-4.6.4-7 .1l.3-.1c-1.2 1.7-2.4 3.5-3.6 5.3l-.1.2-.2-.1c-3.2-1.3-6.5-2.6-9.8-3.9l-.2-.1v-.3c.2-1 .3-2.1.5-3.2l.3-1.6.1-.8.1-.4V322.8c.3.6.1.2.1.3-1.9-1.4-3.6-3.1-5-4.9l.3.1c-2.2.4-4.3.8-6.3 1.1h-.3l-.1-.2c-1.4-3.4-2.8-6.7-4.2-9.7l-.1-.2.2-.1c1.8-1.3 3.6-2.6 5.2-3.8l-.1.3c-.3-2.4-.3-4.8-.1-7l.1.3c-1.8-1.3-3.6-2.5-5.3-3.6l-.2-.1.1-.2c1.4-3.4 2.7-6.7 4-9.8l.1-.2h.2c2.2.4 4.4.7 6.3 1l-.3.1c1.5-2 3.2-3.7 4.9-5l-.1.3c-.4-2.2-.8-4.4-1.1-6.3v-.2l.2-.1c3.4-1.5 6.7-2.8 9.8-4.1l.2-.1.1.2c1.3 1.8 2.6 3.6 3.7 5.2l-.2-.1c2.4-.3 4.8-.3 7-.1l-.2.1c1.3-1.9 2.6-3.7 3.7-5.3l.1-.1h.1c4 1.6 7.3 3 9.8 4h.1v.1c-.3 2-.6 3.6-.8 4.7-.1.5-.2.9-.2 1.2l-.3.3z"/><path class="st0" d="M216.9 334.1c3.3 2.5 6.2 5.3 8.6 8.5l11-2 7.3 17.1-9.1 6.6c.6 4 .6 8 .1 12.1l9.2 6.4-6.9 17.2-11.1-1.8c-2.5 3.3-5.3 6.2-8.5 8.6l2 11-17.1 7.3-6.6-9.1c-4 .6-8 .6-12.1.1l-6.4 9.2-17.2-6.9 1.8-11.1c-3.3-2.5-6.2-5.3-8.6-8.5l-11 2-7.3-17.1 9.1-6.6c-.6-4-.6-8-.1-12.1l-9.2-6.4 6.9-17.2 11.1 1.8c2.5-3.3 5.3-6.2 8.5-8.7l-2-11 17.1-7.3 6.6 9.1c4-.6 8-.6 12.1-.1l6.4-9.2 17.2 6.9-1.8 11.2zm-19.2 18.5c-10.2-4.1-21.8.8-25.9 11.1-4.1 10.2.9 21.8 11.1 25.9 10.2 4.1 21.8-.8 25.9-11.1 4.1-10.2-.9-21.8-11.1-25.9z"/></g><g id="JavaScript"><path style="fill:#ebebeb" d="M216.2 224.1H95.6V74.2l92.2.3 28.4 30.7z"/><path class="st6" d="M131.7 159.7c-.2.1-2.2-1.7-5.3-4.7-3.1-3-7.3-7.3-11.9-12.1l-.5-.5.5-.5v-.1c4.6-4.8 8.8-9.2 11.9-12.2 3.1-3.1 5.1-4.9 5.3-4.7.2.1-1.6 2.2-4.5 5.5s-7 7.7-11.6 12.5v.1-1.1c4.6 4.8 8.7 9.2 11.6 12.4 2.9 3.2 4.7 5.3 4.5 5.4zM180.1 124.8c.2-.1 2.2 1.7 5.3 4.7 3.1 3 7.3 7.3 11.9 12.1l.5.5-.5.5v.1c-4.6 4.8-8.8 9.2-11.9 12.2-3.1 3.1-5.1 4.9-5.3 4.7-.2-.1 1.6-2.2 4.5-5.5s7-7.7 11.6-12.5v-.1 1.1c-4.6-4.8-8.7-9.2-11.6-12.4-3-3.2-4.7-5.3-4.5-5.4zM141.2 165.2c-.4-.2 5.9-11.1 14-24.3 8.1-13.2 14.9-23.7 15.3-23.5.4.2-5.9 11.1-14 24.3-8.1 13.2-14.9 23.7-15.3 23.5z"/><path class="st1" d="m187.8 74.5-.1 25.1c0 3.7 3 6.6 6.6 6.5l21.8-.8-28.3-30.8z"/><path class="st7" d="M81.6 175.7h53.5v32.5H81.6z"/><path class="st8" d="m96.8 198.6 1.4-1.6c.9 1.3 2.1 2 3.5 2 1.9 0 2.9-1.2 2.9-3.4v-9.4h-6.1v-2.1h8.4v11.4c0 3.7-1.8 5.6-5.3 5.6-1.9-.1-3.8-.9-4.8-2.5zM110.3 198.9l.9-1.9c1.2 1.1 3.4 1.9 5.5 1.9 2.9 0 4.1-1.1 4.1-2.6 0-4.1-10.2-1.5-10.2-7.7 0-2.6 2-4.8 6.4-4.8 2 0 4 .5 5.4 1.5l-.8 1.9c-1.5-.9-3.1-1.4-4.6-1.4-2.9 0-4.1 1.2-4.1 2.7 0 4.1 10.2 1.5 10.2 7.7 0 2.6-2.1 4.8-6.5 4.8-2.5 0-5-.8-6.3-2.1z"/></g><g id="Angular"><path class="st7" d="M318.9 83c-2.7 1.3-4.4 4.1-4.4 7.2l.4 59.5c0 2.8 1.5 5.4 3.8 6.8l49.4 29.4 47.3-30.6c2.3-1.5 3.6-4 3.6-6.7l-.4-62.1c0-3.2-1.9-6-4.7-7.2l-46.6-20.1L318.9 83z"/><path d="m367.3 59.1.8 126.8 47.2-30.6c2.3-1.5 3.7-4 3.7-6.7l-.4-62.3c0-3.1-1.9-5.9-4.7-7.1l-46.6-20.1z" class="st9"/><path class="st8" d="m381.2 130.3-28.8.2-5.9 13.9-8 .1 24.2-55.7h7.7l25 55.4-8.1.1-6.1-14zm-2.8-6.3-11.9-27.1-11.5 27.2 23.4-.1z"/></g><g id="Screen"><path class="st6" d="M344.9 156.3h271.8v158.4H344.9z"/><path class="st1" d="M366.1 306.7c-.1 0-.3-32.4-.3-72.3 0-40 .1-72.3.3-72.3.1 0 .3 32.4.3 72.3s-.1 72.3-.3 72.3zM360.5 168.1c0 .1-2 .3-4.5.3s-4.5-.1-4.5-.3 2-.3 4.5-.3c2.5.1 4.5.2 4.5.3zM360.5 177.7c0 .1-2 .3-4.5.3s-4.5-.1-4.5-.3c0-.1 2-.3 4.5-.3s4.5.1 4.5.3zM360.5 187.2c0 .1-2 .3-4.5.3s-4.5-.1-4.5-.3c0-.1 2-.3 4.5-.3s4.5.1 4.5.3zM360.5 196.7c0 .1-2 .3-4.5.3s-4.5-.1-4.5-.3c0-.1 2-.3 4.5-.3 2.5.1 4.5.2 4.5.3zM360.5 206.3c0 .1-2 .3-4.5.3s-4.5-.1-4.5-.3c0-.1 2-.3 4.5-.3s4.5.1 4.5.3zM360.5 215.8c0 .1-2 .3-4.5.3s-4.5-.1-4.5-.3c0-.1 2-.3 4.5-.3s4.5.1 4.5.3zM360.5 225.3c0 .1-2 .3-4.5.3s-4.5-.1-4.5-.3 2-.3 4.5-.3c2.5.1 4.5.2 4.5.3zM360.5 234.9c0 .1-2 .3-4.5.3s-4.5-.1-4.5-.3 2-.3 4.5-.3 4.5.1 4.5.3zM360.5 244.4c0 .1-2 .3-4.5.3s-4.5-.1-4.5-.3 2-.3 4.5-.3 4.5.1 4.5.3zM360.5 253.9c0 .1-2 .3-4.5.3s-4.5-.1-4.5-.3 2-.3 4.5-.3c2.5.1 4.5.2 4.5.3zM360.5 263.5c0 .1-2 .3-4.5.3s-4.5-.1-4.5-.3c0-.1 2-.3 4.5-.3s4.5.1 4.5.3zM360.5 273c0 .1-2 .3-4.5.3s-4.5-.1-4.5-.3c0-.1 2-.3 4.5-.3s4.5.1 4.5.3zM360.5 282.5c0 .1-2 .3-4.5.3s-4.5-.1-4.5-.3c0-.1 2-.3 4.5-.3 2.5.1 4.5.2 4.5.3zM360.5 292.1c0 .1-2 .3-4.5.3s-4.5-.1-4.5-.3c0-.1 2-.3 4.5-.3s4.5.1 4.5.3zM360.5 301.6c0 .1-2 .3-4.5.3s-4.5-.1-4.5-.3c0-.1 2-.3 4.5-.3s4.5.1 4.5.3z"/><path class="st7" d="M396.6 167.6c0 .1-5.2.3-11.7.3-6.5 0-11.7-.1-11.7-.3 0-.1 5.2-.3 11.7-.3 6.5 0 11.7.1 11.7.3z"/><path class="st10" d="M396.6 301.6c0 .1-5.2.3-11.7.3-6.5 0-11.7-.1-11.7-.3 0-.1 5.2-.3 11.7-.3 6.5 0 11.7.1 11.7.3z"/><path class="st7" d="M429.2 187.2c0 .1-9.8.3-21.9.3-12.1 0-21.9-.1-21.9-.3 0-.1 9.8-.3 21.9-.3 12.1 0 21.9.1 21.9.3z"/><path class="st1" d="M479.7 187.2c0 .1-9.8.3-21.9.3-12.1 0-21.9-.1-21.9-.3 0-.1 9.8-.3 21.9-.3 12.1 0 21.9.1 21.9.3zM460.4 196.7c0 .1-14.4.3-32.2.3-17.8 0-32.2-.1-32.2-.3 0-.1 14.4-.3 32.2-.3 17.8.1 32.2.2 32.2.3zM460.4 206.3c0 .1-14.4.3-32.2.3-17.8 0-32.2-.1-32.2-.3 0-.1 14.4-.3 32.2-.3 17.8 0 32.2.1 32.2.3zM504.7 234.9c0 .1-14.4.3-32.2.3-17.8 0-32.2-.1-32.2-.3s14.4-.3 32.2-.3c17.8 0 32.2.1 32.2.3zM485.6 215.8c0 .1-14.4.3-32.2.3-17.8 0-32.2-.1-32.2-.3 0-.1 14.4-.3 32.2-.3 17.8 0 32.2.1 32.2.3zM564.3 215.8c0 .1-14.4.3-32.2.3-17.8 0-32.2-.1-32.2-.3 0-.1 14.4-.3 32.2-.3 17.8 0 32.2.1 32.2.3z"/><path class="st11" d="M536.9 196.7c0 .1-14.4.3-32.2.3-17.8 0-32.2-.1-32.2-.3 0-.1 14.4-.3 32.2-.3 17.8.1 32.2.2 32.2.3zM581.4 234.9c0 .1-14.4.3-32.2.3-17.8 0-32.2-.1-32.2-.3s14.4-.3 32.2-.3c17.8 0 32.2.1 32.2.3z"/><path class="st12" d="M572.6 206.3c0 .1-22.4.3-50 .3s-50-.1-50-.3c0-.1 22.4-.3 50-.3s50 .1 50 .3z"/><path class="st11" d="M396.6 177.7c0 .1-5.2.3-11.7.3-6.5 0-11.7-.1-11.7-.3 0-.1 5.2-.3 11.7-.3 6.5 0 11.7.1 11.7.3zM396.6 292.1c0 .1-5.2.3-11.7.3-6.5 0-11.7-.1-11.7-.3 0-.1 5.2-.3 11.7-.3 6.5 0 11.7.1 11.7.3zM408.2 215.8c0 .1-5.2.3-11.7.3-6.5 0-11.7-.1-11.7-.3 0-.1 5.2-.3 11.7-.3 6.5 0 11.7.1 11.7.3z"/><path class="st7" d="M595.5 215.8c0 .1-5.2.3-11.7.3-6.5 0-11.7-.1-11.7-.3 0-.1 5.2-.3 11.7-.3 6.4 0 11.7.1 11.7.3z"/><path class="st10" d="M429.2 253.9c0 .1-9.8.3-21.9.3-12.1 0-21.9-.1-21.9-.3 0-.1 9.8-.3 21.9-.3 12.1 0 21.9.1 21.9.3z"/><path class="st1" d="M479.7 253.9c0 .1-9.8.3-21.9.3-12.1 0-21.9-.1-21.9-.3 0-.1 9.8-.3 21.9-.3 12.1 0 21.9.1 21.9.3zM460.4 263.4c0 .1-14.4.3-32.2.3-17.8 0-32.2-.1-32.2-.3s14.4-.3 32.2-.3c17.8 0 32.2.2 32.2.3zM460.4 272.9c0 .1-14.4.3-32.2.3-17.8 0-32.2-.1-32.2-.3 0-.1 14.4-.3 32.2-.3 17.8.1 32.2.2 32.2.3zM485.6 282.5c0 .1-14.4.3-32.2.3-17.8 0-32.2-.1-32.2-.3 0-.1 14.4-.3 32.2-.3 17.8 0 32.2.1 32.2.3zM564.3 282.5c0 .1-14.4.3-32.2.3-17.8 0-32.2-.1-32.2-.3 0-.1 14.4-.3 32.2-.3 17.8 0 32.2.1 32.2.3z"/><path class="st11" d="M536.9 263.4c0 .1-14.4.3-32.2.3-17.8 0-32.2-.1-32.2-.3s14.4-.3 32.2-.3c17.8 0 32.2.2 32.2.3z"/><path class="st12" d="M572.6 272.9c0 .1-22.4.3-50 .3s-50-.1-50-.3c0-.1 22.4-.3 50-.3 27.6.1 50 .2 50 .3z"/><path class="st11" d="M408.2 282.5c0 .1-5.2.3-11.7.3-6.5 0-11.7-.1-11.7-.3 0-.1 5.2-.3 11.7-.3 6.5 0 11.7.1 11.7.3z"/><path class="st7" d="M595.5 282.5c0 .1-5.2.3-11.7.3-6.5 0-11.7-.1-11.7-.3 0-.1 5.2-.3 11.7-.3 6.4 0 11.7.1 11.7.3z"/></g><g id="React"><path class="st7" d="M652.6 312.5c-.2.1-1.9-2.7-5.3-7.5-1.7-2.4-3.9-5.3-6.5-8.5-2.7-3.2-5.9-6.7-9.8-10.2-2-1.7-4.1-3.4-6.5-5-2.4-1.5-5-2.9-7.8-3.5-1.4-.3-2.9-.4-4.2-.1-1.4.3-2.5 1.1-3.4 2.2-.9 1.1-1.5 2.6-1.9 4.1-.4 1.5-.6 3.2-.6 4.9 0 3.4.4 6.9 1.1 10.4.7 3.5 1.8 7.1 3 10.6 2.5 7.1 5.9 14.2 9.8 21.1 4 6.9 8.5 13.4 13.4 19.1 2.4 2.9 5 5.5 7.7 7.9 2.7 2.4 5.5 4.5 8.4 6.2 1.5.8 3 1.5 4.5 1.9 1.5.4 3.1.6 4.5.4 1.4-.2 2.7-.9 3.6-1.9 1-1 1.6-2.3 2.1-3.7.9-2.8 1-5.7.9-8.5-.1-2.8-.6-5.5-1.1-8.1-1-5.1-2.5-9.7-3.9-13.6-1.5-3.9-2.9-7.2-4.1-9.9-2.4-5.3-4-8.2-3.9-8.3.1 0 .6.6 1.4 1.9.8 1.3 2 3.3 3.4 5.9 1.4 2.6 3 5.9 4.6 9.8 1.6 3.9 3.2 8.5 4.4 13.7.6 2.6 1.1 5.4 1.3 8.4.2 2.9.2 6.1-.8 9.3-.5 1.6-1.3 3.2-2.5 4.6-1.2 1.4-3 2.3-4.9 2.6-1.9.3-3.7.1-5.5-.4-1.8-.5-3.4-1.2-5-2.1-3.2-1.7-6.1-4-8.9-6.4-2.8-2.5-5.4-5.2-8-8.1-5.1-5.8-9.6-12.4-13.7-19.5s-7.5-14.3-10-21.6c-1.3-3.6-2.3-7.3-3.1-11-.7-3.7-1.2-7.3-1.1-11 .1-1.8.3-3.6.7-5.4.5-1.8 1.2-3.5 2.4-5 1.2-1.4 2.9-2.5 4.7-2.9 1.8-.4 3.6-.3 5.2.1 3.3.8 6 2.3 8.5 3.9 2.5 1.7 4.6 3.5 6.6 5.3 3.9 3.6 7.1 7.3 9.7 10.7 2.6 3.3 4.6 6.4 6.2 8.9 1.6 2.5 2.7 4.5 3.5 5.9.7 1.6 1 2.3.9 2.4z"/><path class="st7" d="M621.8 312.4c.2.1-1.4 2.8-4 8-1.3 2.6-2.7 5.7-4.2 9.5s-3 8.1-4.1 13.1c-.5 2.5-1 5.1-1.1 7.8-.1 2.7-.1 5.6.8 8.2.4 1.3 1.1 2.6 2 3.6.9 1 2.1 1.7 3.5 1.9 1.4.3 2.9.2 4.4-.1 1.5-.3 3-.9 4.5-1.6 2.9-1.4 5.7-3.4 8.4-5.5 2.7-2.2 5.3-4.7 7.7-7.3 5-5.3 9.5-11.4 13.6-18s7.5-13.4 10-20.2c1.3-3.4 2.3-6.8 3.1-10.2.8-3.4 1.2-6.8 1.2-10 0-1.6-.2-3.2-.6-4.7-.4-1.5-1-2.9-1.8-3.9-.9-1.1-2-1.9-3.3-2.2-1.3-.4-2.7-.4-4.1-.2-2.8.4-5.4 1.6-7.7 3-2.4 1.3-4.5 2.9-6.5 4.5-3.9 3.2-7.2 6.5-9.9 9.5s-4.9 5.7-6.6 8c-3.4 4.3-5.1 6.9-5.3 6.8-.1 0 .3-.8 1-2.1.8-1.3 1.9-3.2 3.5-5.6 1.6-2.4 3.7-5.2 6.3-8.4 2.6-3.1 5.8-6.6 9.8-9.9 2-1.7 4.2-3.3 6.6-4.8 2.5-1.4 5.2-2.8 8.4-3.4 1.6-.3 3.3-.3 5 .2 1.7.5 3.3 1.5 4.5 2.9 1.2 1.4 1.9 3.1 2.3 4.8.4 1.7.6 3.5.7 5.2.1 3.5-.4 7.1-1.2 10.6-.8 3.5-1.8 7.1-3.2 10.6-2.6 7-6.1 13.9-10.2 20.7-4.2 6.7-8.8 12.9-13.9 18.4-2.5 2.7-5.2 5.3-8 7.5-2.8 2.3-5.8 4.3-9 5.8-1.6.8-3.3 1.4-5 1.7-1.7.4-3.6.5-5.3.1-1.8-.4-3.5-1.3-4.6-2.7-1.2-1.3-1.9-2.9-2.4-4.4-.9-3.1-.9-6.2-.8-9 .2-2.9.7-5.6 1.3-8.1 1.2-5.1 2.9-9.4 4.5-13.2 1.6-3.8 3.3-6.9 4.7-9.4 1.4-2.5 2.6-4.4 3.4-5.7 1-1.2 1.5-1.8 1.6-1.8z"/><path class="st7" d="M635.2 300.9c0 .2-3.2.3-8.9.8-2.8.3-6.3.7-10.3 1.4-4 .7-8.5 1.7-13.2 3.4-2.4.8-4.8 1.8-7.2 3.1-2.4 1.3-4.8 2.9-6.6 5-.9 1.1-1.6 2.3-2 3.6-.4 1.3-.3 2.7.2 4 .5 1.3 1.3 2.5 2.4 3.6 1.1 1.1 2.3 2.1 3.7 2.9 2.7 1.7 5.9 3.1 9.2 4.3 3.3 1.1 6.8 2 10.3 2.7 7.1 1.4 14.7 2.1 22.4 2.1 7.7 0 15.3-.7 22.5-2.1 3.6-.7 7-1.6 10.3-2.7 3.3-1.1 6.4-2.5 9.2-4.3 1.4-.9 2.6-1.8 3.7-2.9 1.1-1.1 1.9-2.3 2.4-3.6.5-1.3.5-2.7.2-4-.4-1.3-1.1-2.5-2-3.6-1.8-2.1-4.2-3.7-6.6-5-2.4-1.3-4.8-2.3-7.2-3.1-4.8-1.7-9.3-2.7-13.2-3.4-4-.7-7.5-1.1-10.3-1.4-5.8-.5-9-.6-9-.8 0-.1.8-.2 2.3-.2 1.5-.1 3.7-.1 6.6 0 2.9.1 6.4.4 10.5 1s8.7 1.5 13.6 3.1c2.5.8 5 1.8 7.6 3.1 2.5 1.3 5.1 3 7.3 5.4 1.1 1.2 2 2.7 2.5 4.4.5 1.7.4 3.6-.2 5.3-.6 1.7-1.6 3.2-2.9 4.5-1.2 1.3-2.6 2.4-4.1 3.3-3 1.9-6.2 3.4-9.6 4.6-3.4 1.2-7 2.1-10.6 2.9-7.3 1.5-15.1 2.2-22.9 2.2-7.9 0-15.6-.7-22.9-2.2-3.7-.7-7.2-1.7-10.6-2.9-3.4-1.2-6.7-2.7-9.6-4.6-1.5-1-2.9-2.1-4.1-3.3-1.2-1.3-2.3-2.8-2.9-4.5-.6-1.7-.7-3.6-.2-5.3.5-1.7 1.4-3.2 2.5-4.4 2.2-2.4 4.8-4.1 7.3-5.4 2.5-1.3 5.1-2.3 7.6-3.1 4.9-1.6 9.6-2.5 13.6-3.1 4.1-.6 7.6-.9 10.5-1 2.9-.1 5.1-.1 6.6 0 1.3 0 2.1.1 2.1.2z"/><circle transform="rotate(-80.758 637.718 322.296)" class="st7" cx="637.7" cy="322.3" r="8.4"/></g><g id="Device"><path class="st12" d="M491.7 441.8H208.9c-8 0-14.6-6.5-14.6-14.6v-184c0-4.3 3.5-7.8 7.8-7.8h297.4c3.7 0 6.7 3 6.7 6.7v185c.1 8.1-6.4 14.7-14.5 14.7z"/><path class="st12" d="M505.6 444.5H195.1c-7.6 0-13.7-6.1-13.7-13.7v-4.3h338v4.3c-.1 7.6-6.2 13.7-13.8 13.7z"/><path class="st1" d="M202.8 243.7h294.3v174.2H202.8z"/><path class="st6" d="m319.6 426.5 4.2 6.7h59l3.9-6.7z"/><path class="st6" d="M194.4 426.4h311.9v1H194.4zM211.5 253.8h277.6v164.1H211.5z"/><path class="st1" d="M232.8 413.1c-.1 0-.3-35-.3-78.1 0-43.1.1-78.1.3-78.1.1 0 .3 34.9.3 78.1-.1 43.1-.2 78.1-.3 78.1zM227.2 271.1c0 .1-2 .3-4.5.3s-4.5-.1-4.5-.3c0-.1 2-.3 4.5-.3s4.5.1 4.5.3zM227.5 262.2c0 .1-2 .3-4.5.3s-4.5-.1-4.5-.3c0-.1 2-.3 4.5-.3 2.5.1 4.5.2 4.5.3zM227.2 280.6c0 .1-2 .3-4.5.3s-4.5-.1-4.5-.3 2-.3 4.5-.3c2.5.1 4.5.2 4.5.3zM227.2 290.2c0 .1-2 .3-4.5.3s-4.5-.1-4.5-.3c0-.1 2-.3 4.5-.3s4.5.1 4.5.3zM227.2 299.7c0 .1-2 .3-4.5.3s-4.5-.1-4.5-.3c0-.1 2-.3 4.5-.3 2.5.1 4.5.2 4.5.3zM227.2 309.3c0 .1-2 .3-4.5.3s-4.5-.1-4.5-.3c0-.1 2-.3 4.5-.3s4.5.1 4.5.3zM227.2 318.8c0 .1-2 .3-4.5.3s-4.5-.1-4.5-.3c0-.1 2-.3 4.5-.3 2.5.1 4.5.2 4.5.3zM227.2 328.4c0 .1-2 .3-4.5.3s-4.5-.1-4.5-.3 2-.3 4.5-.3 4.5.1 4.5.3zM227.2 337.9c0 .1-2 .3-4.5.3s-4.5-.1-4.5-.3c0-.1 2-.3 4.5-.3 2.5.1 4.5.2 4.5.3zM227.2 347.5c0 .1-2 .3-4.5.3s-4.5-.1-4.5-.3c0-.1 2-.3 4.5-.3s4.5.1 4.5.3zM227.2 357c0 .1-2 .3-4.5.3s-4.5-.1-4.5-.3 2-.3 4.5-.3c2.5.1 4.5.2 4.5.3zM227.2 366.6c0 .1-2 .3-4.5.3s-4.5-.1-4.5-.3 2-.3 4.5-.3 4.5.1 4.5.3zM227.2 376.1c0 .1-2 .3-4.5.3s-4.5-.1-4.5-.3c0-.1 2-.3 4.5-.3 2.5.1 4.5.2 4.5.3zM227.2 385.7c0 .1-2 .3-4.5.3s-4.5-.1-4.5-.3c0-.1 2-.3 4.5-.3s4.5.1 4.5.3zM227.2 395.2c0 .1-2 .3-4.5.3s-4.5-.1-4.5-.3 2-.3 4.5-.3c2.5.1 4.5.2 4.5.3zM227.2 404.8c0 .1-2 .3-4.5.3s-4.5-.1-4.5-.3c0-.1 2-.3 4.5-.3s4.5.1 4.5.3z"/><path class="st7" d="M263.3 270.5c0 .1-5.2.3-11.7.3-6.5 0-11.7-.1-11.7-.3s5.2-.3 11.7-.3c6.5.1 11.7.2 11.7.3zM263.3 404.8c0 .1-5.2.3-11.7.3-6.5 0-11.7-.1-11.7-.3 0-.1 5.2-.3 11.7-.3 6.5 0 11.7.1 11.7.3zM295.9 290.2c0 .1-9.8.3-21.9.3-12.1 0-21.9-.1-21.9-.3 0-.1 9.8-.3 21.9-.3 12.1 0 21.9.1 21.9.3z"/><path class="st1" d="M346.5 290.2c0 .1-9.8.3-21.9.3-12.1 0-21.9-.1-21.9-.3 0-.1 9.8-.3 21.9-.3 12.1 0 21.9.1 21.9.3zM327.2 299.7c0 .1-14.4.3-32.3.3-17.8 0-32.3-.1-32.3-.3 0-.1 14.4-.3 32.3-.3 17.8.1 32.3.2 32.3.3zM327.2 309.3c0 .1-14.4.3-32.3.3-17.8 0-32.3-.1-32.3-.3 0-.1 14.4-.3 32.3-.3 17.8 0 32.3.1 32.3.3zM371.6 337.9c0 .1-14.4.3-32.3.3-17.8 0-32.3-.1-32.3-.3 0-.1 14.4-.3 32.3-.3 17.9.1 32.3.2 32.3.3zM352.4 318.8c0 .1-14.4.3-32.3.3-17.8 0-32.3-.1-32.3-.3 0-.1 14.4-.3 32.3-.3 17.9.1 32.3.2 32.3.3zM431.3 318.8c0 .1-14.4.3-32.3.3-17.8 0-32.3-.1-32.3-.3 0-.1 14.4-.3 32.3-.3 17.9.1 32.3.2 32.3.3z"/><path class="st11" d="M403.9 299.7c0 .1-14.4.3-32.3.3-17.8 0-32.3-.1-32.3-.3 0-.1 14.4-.3 32.3-.3 17.8.1 32.3.2 32.3.3zM448.5 337.9c0 .1-14.4.3-32.3.3-17.8 0-32.3-.1-32.3-.3 0-.1 14.4-.3 32.3-.3 17.8.1 32.3.2 32.3.3z"/><path class="st12" d="M439.5 309.3c0 .1-22.4.3-50.1.3-27.7 0-50.1-.1-50.1-.3 0-.1 22.4-.3 50.1-.3 27.7 0 50.1.1 50.1.3z"/><path class="st11" d="M263.3 280.6c0 .1-5.2.3-11.7.3-6.5 0-11.7-.1-11.7-.3s5.2-.3 11.7-.3c6.5.1 11.7.2 11.7.3zM263.3 395.2c0 .1-5.2.3-11.7.3-6.5 0-11.7-.1-11.7-.3s5.2-.3 11.7-.3c6.5.1 11.7.2 11.7.3zM274.9 318.8c0 .1-5.2.3-11.7.3-6.5 0-11.7-.1-11.7-.3 0-.1 5.2-.3 11.7-.3 6.5.1 11.7.2 11.7.3z"/><path class="st7" d="M462.5 318.8c0 .1-5.2.3-11.7.3-6.5 0-11.7-.1-11.7-.3 0-.1 5.2-.3 11.7-.3 6.4.1 11.7.2 11.7.3zM295.9 357c0 .1-9.8.3-21.9.3-12.1 0-21.9-.1-21.9-.3s9.8-.3 21.9-.3c12.1 0 21.9.1 21.9.3z"/><path class="st1" d="M346.5 357c0 .1-9.8.3-21.9.3-12.1 0-21.9-.1-21.9-.3s9.8-.3 21.9-.3c12.1 0 21.9.1 21.9.3zM327.2 366.5c0 .1-14.4.3-32.3.3-17.8 0-32.3-.1-32.3-.3 0-.1 14.4-.3 32.3-.3 17.8.1 32.3.2 32.3.3zM327.2 376.1c0 .1-14.4.3-32.3.3-17.8 0-32.3-.1-32.3-.3s14.4-.3 32.3-.3c17.8 0 32.3.1 32.3.3zM352.4 385.6c0 .1-14.4.3-32.3.3-17.8 0-32.3-.1-32.3-.3 0-.1 14.4-.3 32.3-.3s32.3.2 32.3.3zM431.3 385.6c0 .1-14.4.3-32.3.3-17.8 0-32.3-.1-32.3-.3 0-.1 14.4-.3 32.3-.3s32.3.2 32.3.3z"/><path class="st11" d="M403.9 366.5c0 .1-14.4.3-32.3.3-17.8 0-32.3-.1-32.3-.3 0-.1 14.4-.3 32.3-.3 17.8.1 32.3.2 32.3.3z"/><path class="st12" d="M439.5 376.1c0 .1-22.4.3-50.1.3-27.7 0-50.1-.1-50.1-.3s22.4-.3 50.1-.3c27.7 0 50.1.1 50.1.3z"/><path class="st11" d="M274.9 385.6c0 .1-5.2.3-11.7.3-6.5 0-11.7-.1-11.7-.3 0-.1 5.2-.3 11.7-.3 6.5 0 11.7.2 11.7.3z"/><path class="st7" d="M462.5 385.6c0 .1-5.2.3-11.7.3-6.5 0-11.7-.1-11.7-.3 0-.1 5.2-.3 11.7-.3 6.4 0 11.7.2 11.7.3z"/></g><path class="st6" d="M700.4 444.6c0 .1-145.7.3-325.4.3-179.8 0-325.4-.1-325.4-.3 0-.1 145.7-.3 325.4-.3s325.4.1 325.4.3z" id="Floor"/><g id="Character_2"><path class="st13" d="m568.7 388.1 4 12.5c1.5 5.2 5.9 9 11.2 10l26.7 5 7.3-.2-7.3-9-20-6.8c-2-.4-3.5-1.9-4-3.8l-8-17.4-10.1 6.2.2 3.5z"/><path class="st7" d="M549.6 304.2c.2-1.9-.5-3.9-1.5-5.5s-2.5-3.1-4.4-3.4c-2.1-.3-4.3 1.1-5.2 3.1-.8 2-.4 4.4.8 6.2.6.9 1.5 1.7 2.4 2.3-2.8 1.8-5 4.5-6 7.6-.4 1.1-.6 2.2-1.1 3.2-.5 1-1.2 2-2.2 2.4-.8.3-1.6.4-2.4.7-1.3.5-2.3 1.7-2.6 3-.3 1.4 0 2.8.7 4 .4.6.9 1.2.9 1.9 0 .5-.2.9-.3 1.4-.4 1.6.4 3.3 1.8 4.2 1.4.8 3.3.6 4.5-.4.5 1.2 1.2 2.3 2.3 2.9 1.1.5 2.8.1 3-1.2.6 1.2 2 1.9 3.3 1.7 1.3-.2 2.3-1.4 2.4-2.7l21.5-23.5c-3.2-8.8-15.8-8.1-17.9-7.9z"/><path class="st13" d="M545.9 312.4c-1.4.1-2.4 1.3-2.4 2.7l1.5 36.2c.1 4.3 7.8 9.3 12.4 9.2 4.6-.1 3.3-5 3.3-9.1.1-6.8.1-9.3.1-9.3s5.8-1 7.1-8.6c.6-3.8.4-10 .1-15.1-.3-4.6-3.3-10.2-7.9-9.7l-14.2 3.7z"/><path class="st6" d="M566.1 323.4c0 .5-.4 1-.9 1s-1-.4-1-.9.4-1 .9-1 .9.4 1 .9zM566.7 321.7c-.1.1-.9-.4-1.9-.4-1.1 0-1.8.5-1.9.4-.1-.1.1-.3.4-.5.3-.2.9-.5 1.6-.5.7 0 1.2.2 1.5.5.2.3.4.5.3.5zM555.8 323.4c0 .5-.4 1-.9 1s-1-.4-1-.9.4-1 .9-1 1 .4 1 .9zM556.4 321.9c-.1.1-.9-.4-1.9-.4-1.1 0-1.8.5-1.9.4-.1-.1.1-.3.4-.5.3-.2.9-.5 1.5-.5.7 0 1.2.2 1.5.5.3.2.4.5.4.5zM560.2 329.7c0-.1.6-.2 1.7-.3.3 0 .5-.1.6-.3.1-.2 0-.5-.2-.8-.3-.6-.5-1.3-.8-2-1.1-2.9-1.9-5.3-1.8-5.3.1 0 1.1 2.3 2.2 5.2.3.7.5 1.4.8 2.1.1.3.3.7.1 1.1-.1.2-.3.3-.4.4-.2.1-.3.1-.5.1-1.1-.1-1.7-.1-1.7-.2z"/><path class="st14" d="M560.9 342.2s-5.1.3-10.2-2.7c0 0 2.5 5.2 10.1 4.5l.1-1.8zM559.7 332.3c-.4-.5-1-.8-1.7-.7-.5 0-.9.3-1.2.6-.3.4-.3.9-.1 1.3.3.4.9.5 1.4.3.5-.1.9-.5 1.3-.8l.3-.3c.1-.1.2-.3 0-.4"/><path class="st6" d="M557.1 330.5c.2 0 .2 1.1 1.2 1.9 1 .8 2.2.7 2.2.8 0 .1-.3.2-.8.2s-1.2-.1-1.8-.6c-.6-.5-.9-1.2-.9-1.6-.1-.5 0-.7.1-.7z"/><path class="st7" d="M556.8 320.1c-.1.3-1.2.2-2.4.3-1.2.1-2.2.5-2.4.2-.1-.1.1-.4.5-.7.4-.3 1-.5 1.8-.6.7-.1 1.4 0 1.9.2.4.2.7.5.6.6zM566.3 318.7c-.2.2-.9 0-1.8 0s-1.6.2-1.8-.1c-.1-.1 0-.4.4-.6.3-.2.8-.4 1.4-.4.6 0 1.1.2 1.4.5.4.2.5.5.4.6z"/><path class="st13" d="M544.4 324.6c-.6-.4-1.4-.3-2 .1-1.4.8-2.1 2.7-1.6 4.2s2.2 2.6 3.8 2.4"/><path class="st7" d="M556.4 306.3c2.8.1 4.9.9 7.3 2.3 2.4 1.3 4.5 3.5 5.2 6.2.2.6.2 1.2-.1 1.7-.4.7-1.4.8-2.1.5-.7-.3-1.2-1-1.7-1.6-.4 1.4-1.7 2.5-3.2 2.4-1.4 0-2.8-1.1-3.1-2.5 0 1.5-1.5 2.7-2.9 2.6-1.5-.1-2.8-1.2-3.2-2.6-.3 1.3-.6 2.6-1.3 3.7-.8 1.1-2.2 1.8-3.5 1.4.2 1.1.4 2.3 0 3.4s-1.6 1.9-2.7 1.6c-1.1-.4-1.5-1.6-1.7-2.7-.5-2.1-.9-4.2-.8-6.4.1-2.2.6-4.3 2-6 1.4-1.8 3.4-2.9 5.6-3.4 2.2-.6 4.4-.6 6.6-.6"/><path class="st14" d="M543.9 329c0-.1-.3.1-.7-.1-.4-.1-.7-.7-.7-1.3 0-.6.4-1.1.8-1.2.4-.2.7-.1.7-.1s-.3-.2-.8-.1c-.2.1-.5.2-.7.5-.2.3-.4.6-.4 1-.1.8.4 1.5 1 1.6.5 0 .8-.3.8-.3z"/><path class="st6" d="M541 329.4s-.1 0-.3.1c-.2.1-.5.2-.8.4-.7.4-1.7 1.1-2.5 2.3-.4.6-.7 1.4-.7 2.3 0 .9.2 1.8.6 2.7.5.9 1.1 1.7 2 2.3.9.6 2 1 3.1 1 2.3 0 4.3-1.5 5.1-3.2.5-.9.6-1.8.5-2.7-.1-.9-.4-1.6-.7-2.3-.7-1.3-1.8-2-2.5-2.3-.4-.2-.7-.2-.9-.3h-.3s.4.1 1.2.4c.7.3 1.7 1.1 2.3 2.3.3.6.6 1.4.7 2.2 0 .8-.1 1.7-.5 2.5-.8 1.6-2.7 3-4.8 3-2.1 0-4-1.4-4.8-3-.9-1.6-.7-3.5 0-4.7.7-1.2 1.7-1.9 2.3-2.3.6-.5 1-.7 1-.7z"/><path class="st1" d="M547.2 305.8c-.1 0-.2-.7-.7-1.7-.5-1-1.3-2.3-2.6-3.3s-2.8-1.6-3.8-1.8c-1.1-.2-1.8-.2-1.8-.3 0-.1.7-.2 1.8-.1s2.7.6 4.1 1.7c1.4 1.1 2.2 2.5 2.6 3.6.5 1.1.5 1.9.4 1.9zM529.7 334.7s-.1 0-.3-.3c-.1-.2-.3-.6-.2-1 .1-.5.4-1 .9-1.4.5-.4 1.2-.7 1.9-1 .7-.4 1.3-1 1.3-1.9.1-.9-.3-1.8-.5-2.9-.1-.5-.2-1.1-.2-1.7 0-.6.3-1.2.7-1.7.8-.9 2.1-1.3 3.2-1.7 1.1-.4 2.3-.8 2.9-1.7.6-.9.6-2 .5-3-.1-1-.3-2-.2-3 .1-1 .3-1.8.6-2.6.6-1.5 1.6-2.5 2.3-3.1.3-.3.6-.5.8-.6.2-.1.3-.2.3-.2s-.4.3-1 .9c-.6.6-1.5 1.6-2 3-.3.7-.5 1.6-.5 2.5-.1.9.1 1.9.2 2.9s.2 2.3-.5 3.4-2 1.5-3.1 1.9c-1.1.4-2.3.7-3 1.5-.7.8-.7 1.9-.5 2.9.2 1 .6 2 .5 3 0 .5-.2 1-.5 1.4-.3.4-.7.6-1 .8-.7.4-1.4.6-1.9 1-.5.3-.8.8-.9 1.2-.2 1 .3 1.4.2 1.4zM556.9 315c-.1 0-.2-.8-.6-2-.4-1.2-1.2-2.8-2.6-4.2-1.4-1.4-3-2.2-4.2-2.6-1.2-.4-2-.5-2-.5 0-.1.8-.1 2.1.2 1.3.3 3 1.1 4.5 2.5 1.5 1.5 2.2 3.2 2.6 4.5.3 1.3.2 2.1.2 2.1z"/><path class="st1" d="M563 311.7c-.1 0-.3-1-1.3-2.4-1-1.3-2.8-2.9-5.2-3.6-2.4-.8-4.8-.7-6.4-.5-1.7.2-2.7.4-2.7.3 0-.1 1-.4 2.7-.7 1.7-.3 4.1-.4 6.7.4 2.5.8 4.4 2.5 5.4 3.9.5.7.8 1.4.9 1.8-.1.5 0 .8-.1.8z"/><path class="st6" d="M549.7 303.8s-.2.5-.8 1.1c-.6.6-1.6 1.3-2.8 1.7-1.2.4-2.4.5-3.3.4-.8-.1-1.3-.3-1.3-.4 0-.2 2.1.3 4.4-.5 2.4-.7 3.7-2.4 3.8-2.3zM555.1 444.6c-18.3-6.1-5.8-30.3-5.8-30.3l80 7.5c6.4 0 11.7 5.2 11.7 11.6 0 6.4-5.2 11.6-11.6 11.6l-74.3-.4"/><path class="st6" d="M536.4 444.6c-17.8-6-5.5-30.3-5.5-30.3l78 7.4c7.6.1 11.3 3.8 11.3 11.6 0 6.4-2.4 11.8-11.3 11.6l-72.5-.3"/><path class="st12" d="M554.5 418.4H555.4c.6 0 1.4.1 2.5.1 2.2.1 5.3.3 9.2.5 7.8.4 18.5 1 30.3 1.7 1.5.1 2.9.2 4.4.2 1.4 0 2.9.1 4.3.2s2.8.2 4.1.3c1.3.2 2.7.3 3.9.8 1.2.5 2.3 1.2 3.2 2.1.9.9 1.6 2 2 3.2.4 1.1.7 2.3.8 3.4.1 1.1.2 2.2.2 3.2 0 2.1-.4 3.9-1 5.4-.7 1.5-1.6 2.6-2.4 3.3-.9.7-1.7 1.1-2.2 1.2-.6.2-.6.1 0-.1.5-.2 1.3-.6 2.1-1.3.8-.7 1.7-1.8 2.3-3.3.6-1.5 1-3.3 1-5.3 0-1-.1-2.1-.2-3.2-.2-1.1-.4-2.2-.8-3.3-.4-1.1-1-2.2-1.9-3-.9-.9-1.9-1.5-3.1-2-1.2-.5-2.5-.6-3.8-.8-1.3-.1-2.7-.2-4.1-.3-1.4-.1-2.8-.1-4.2-.2-1.4 0-2.9-.1-4.4-.2-11.8-.7-22.5-1.3-30.3-1.8-3.9-.2-7-.4-9.2-.6-1.1-.1-1.9-.1-2.5-.2-.3 0-.5 0-.6-.1l-.5.1z"/><path class="st7" d="m582.2 420-6.4-3.1-4.5-14.9-.4-19 9.1-3.8-7.2-18.1c-1.3-2.7-4-9.7-10.8-12.1 0-1.3 0-2.6.2-3 .5-.9-16.6-1.4-17.6-1.1-.9.3.2 3.5 0 4-6.1 1.7-12 4.2-14.2 12.6-.9 3.3-.6 10.1-.1 13.5l4.8 25.1-2.7 8.2s-9.3 19.5-5.8 27.1c3.5 7.6 9.6 9.3 9.6 9.3l46.6-.1-.6-24.6z"/><path d="M535.5 390.2c.8 3.5 2.1 8.6 3.4 11.9 1 2.4 2.1 4.8 3.7 6.9 2.3 2.7 5.5 4.6 9 5.5 3.4.9 7.1.9 10.6.5l-17.6-10-4.7-16.3-4.4 1.5z" class="st15"/><path class="st6" d="M571.3 401.5s-.1-.5-.1-1.3c0-.9-.1-2.2-.2-3.7-.1-3.1-.3-7.4-.4-12.1-.1-4.7-.2-9-.3-12.1v-5.1s.1.5.1 1.3c0 .9.1 2.2.2 3.7.1 3.1.3 7.4.4 12.1.1 4.7.2 9 .3 12.1v3.7c.1.9 0 1.4 0 1.4zM554.1 383.7s-.1.1-.3.1c-.3.1-.6.2-1 .4-.9.3-2.2.8-3.8 1.4-3.4 1.2-8.2 2.8-14.1 4.9l-.2.1v-.2c-1-5.1-2.1-11.1-3.3-17.6-.2-3.2-.8-6.5-.6-10 .1-.9.4-1.7.7-2.5.3-.8.7-1.5 1.2-2.2.9-1.4 2.3-2.5 3.7-3.2 2.9-1.5 6.5-1 8.8.9 1.1 1 1.8 2.3 2.3 3.6.6 1.3 1 2.5 1.4 3.8.7 2.5 1.3 4.8 1.9 6.9 1.1 4.2 1.9 7.6 2.6 10 .3 1.1.5 2 .7 2.7.1.3.1.5.2.7-.3.1-.2.2-.2.2s0-.1-.1-.3c-.1-.2-.1-.4-.2-.7-.2-.7-.4-1.6-.8-2.7-.7-2.4-1.6-5.8-2.7-9.9-.6-2.1-1.2-4.4-1.9-6.8-.4-1.2-.8-2.5-1.4-3.7-.6-1.2-1.2-2.5-2.2-3.4-2.1-1.8-5.5-2.3-8.2-.9-1.4.7-2.6 1.7-3.5 3-.4.7-.8 1.4-1.1 2.1-.3.8-.6 1.5-.6 2.3-.3 3.4.4 6.7.5 9.9 1.2 6.5 2.3 12.5 3.2 17.6l-.3-.2c5.8-1.9 10.6-3.5 14-4.6 1.7-.5 3-1 3.9-1.3.4-.1.8-.2 1-.3.2-.1.3-.1.4-.1z"/><path class="st6" d="M540 388.4c-.1 0-.5-.7-.8-1.7-.3-1-.5-1.8-.3-1.9.1 0 .5.7.8 1.7.3 1 .5 1.8.3 1.9zM544.6 387.1c-.1 0-.4-.7-.7-1.7-.2-1-.3-1.8-.2-1.8.1 0 .4.7.7 1.7.3.9.4 1.7.2 1.8zM549.2 385.4c-.1 0-.4-.6-.7-1.4-.2-.8-.3-1.5-.2-1.5.1 0 .4.6.7 1.4.3.8.4 1.5.2 1.5zM574.3 381.6c-.1.1-.6-.6-1-1.6s-.4-1.8-.3-1.8c.1 0 .4.7.8 1.6.3.9.6 1.7.5 1.8zM577.8 379.6c-.1.1-.5-.5-.9-1.3s-.6-1.5-.5-1.5c.1-.1.5.5.9 1.3.4.7.6 1.4.5 1.5zM547.4 349.8c.1 0 .1.2.1.5h-.3c-.1-.5-.2-1.4-.3-2.4-.1-1.6-.1-2.8 0-2.9.1 0 .4 1.2.5 2.8.1 1 .1 1.9.1 2.4h-.3c.1-.3.1-.4.2-.4zM551.5 349.8c-.1 0-.3-1-.4-2.3-.1-1.3-.1-2.3.1-2.4.1 0 .3 1 .4 2.3.1 1.3.1 2.4-.1 2.4zM555.9 350.7c-.1 0-.3-1.3-.3-2.8 0-1.5.1-2.8.2-2.8s.3 1.3.3 2.8c0 1.6-.1 2.8-.2 2.8zM559.5 350.1c-.1 0-.3-1.1-.3-2.4 0-1.3.1-2.4.3-2.4s.3 1.1.3 2.4c-.1 1.4-.2 2.4-.3 2.4zM582.5 420.5c0 .1-8.7-.3-19.4-1.1-10.7-.7-19.4-1.4-19.4-1.6 0-.1 8.7.3 19.4 1.1s19.4 1.5 19.4 1.6z"/><path class="st13" d="m537.5 389.5 4.3 14c1.5 5.2 5.9 9.1 11.2 10.2l26.7 5.1 7.3-.2-2.5-6.2-24.8-9.8c-2-.4-3.5-1.9-4-3.9l-3.8-14.1-14.4 4.9z"/><path class="st12" d="m561.1 418.9.2-1.7 20.5-.8 10.1-25.3 38.3 2.6-13 28.1z"/><path class="st8" d="M606.9 407.5c-.6.9-1.8 1.2-2.8.6-.9-.6-1.2-1.8-.6-2.8.6-.9 1.8-1.2 2.8-.6.9.6 1.2 1.9.6 2.8z"/></g><g id="Character_1"><path class="st6" d="M283 236.9c16.7-6.1 8.1-31.2 8.1-31.2l-84.7 7.8c-6.6 0-12 5.3-12 11.9 0 6.6 5.3 11.9 11.9 11.9l76.7-.4"/><path class="st7" d="m173.9 306.6-.2-8.4 16.1-5.7.7 11.7-.9.4c-4 1.9-20.7 9.4-23.8 9.7-3.4.3 8.1-7.7 8.1-7.7z"/><path class="st8" d="M168.4 310.7s-3.9 3.1-3.1 3.6c.9.5 18-6.5 25.3-10.2l-.2-.3-19.9 8.3s-1.2-1.7-2.1-1.4z" style="opacity:.4"/><path class="st6" d="M190.6 303.7s-.1.1-.2.1c-.2.1-.5.2-.7.3-.7.3-1.6.7-2.7 1.2-2.3 1-5.4 2.4-8.9 3.8s-6.7 2.7-9.1 3.5c-1.1.4-2 .7-2.8 1-.3.1-.5.2-.8.3-.2.1-.3.1-.3.1s.1 0 .3-.1c.2-.1.5-.2.7-.3.7-.3 1.7-.6 2.7-1.1 2.3-.9 5.5-2.1 9-3.6 3.5-1.4 6.7-2.8 9-3.8 1.1-.5 2-.9 2.7-1.2.3-.1.5-.2.7-.3.3.2.4.1.4.1z"/><path class="st6" d="M170.6 312.4c-.1 0-.4-.6-1-1.1-.7-.5-1.4-.6-1.4-.7 0 0 .8 0 1.5.5s.9 1.3.9 1.3zM174.1 308.3s-.3-.1-.7-.4c-.4-.3-.6-.5-.6-.5s.3.1.7.4c.4.2.6.5.6.5zM175 307.2c0 .1-.3 0-.7-.1-.4-.1-.6-.3-.6-.3 0-.1.3 0 .7.1.4.1.7.2.6.3zM175.2 305.5c0 .1-.3.2-.7.4-.4.2-.8.3-.8.2 0 0 .3-.2.7-.4.4-.2.8-.3.8-.2zM175.1 304.3s-.3.4-.8.6c-.5.2-.9.3-1 .2 0-.1.4-.2.9-.4.5-.1.9-.4.9-.4z"/><path class="st6" d="M173 307.2s-.3.2-1 .4c-.3.1-.7.2-1.1.2h-.7c-.1 0-.3-.1-.4-.2-.1-.1-.1-.3 0-.4.7-.9 1.9-.7 2.4-.4.3.2.5.4.6.5.1.1.1.2.1.3 0 0-.2-.4-.8-.6-.3-.1-.6-.2-1-.2s-.9.2-1.1.5c-.1.2 0 .3.2.4h.6c.4 0 .8-.1 1.1-.1.8-.3 1.1-.4 1.1-.4z"/><path class="st6" d="M172.8 307.4s-.3-.2-.4-.6c-.1-.2-.1-.5 0-.8.1-.3.2-.7.6-.8.2-.1.4.1.5.3.1.2 0 .4 0 .5 0 .3-.1.6-.2.8-.2.3-.4.5-.5.6 0-.1.2-.3.3-.7.1-.2.1-.5.2-.7 0-.3 0-.7-.3-.6-.3.1-.4.4-.5.7-.1.3-.1.5 0 .7.2.3.3.5.3.6zM188.6 299.8s-.4.1-1.1.5c-.6.3-1.5 1-2 2s-.7 2-.6 2.7c0 .7.2 1.2.2 1.2s-.1-.1-.1-.3c-.1-.2-.1-.5-.2-.9-.1-.7 0-1.8.6-2.9.6-1 1.4-1.7 2.1-2 .3-.2.6-.3.8-.3.2 0 .3-.1.3 0zM184.5 294.1s.7 1.3 1.4 3 1.3 3.1 1.2 3.1c0 0-.7-1.3-1.4-3-.7-1.6-1.2-3-1.2-3.1zM182.6 305.6s-.9.6-2.1 1.1c-1.2.5-2.3.8-2.3.7 0-.1 1-.4 2.2-.9 1.2-.5 2.1-1 2.2-.9z"/><path class="st6" d="M185.5 304.4c.1 0 0 .2 0 .5v.5s-.2-.2-.2-.5c0-.4.2-.6.2-.5zM186.1 302.5c.1 0 0 .2-.1.4s-.2.4-.3.4c0 0 0-.2.1-.4s.2-.4.3-.4zM187.4 301.3c0 .1-.2.1-.4.3-.2.2-.3.3-.4.3-.1 0 0-.3.2-.5.3-.2.6-.2.6-.1zM188.4 300.5s0 .2-.1.3c-.1.1-.2.1-.3.1 0 0 0-.2.1-.3.1-.1.3-.1.3-.1z"/><path class="st6" d="m238.6 212.3-47.3.9c-7.6.1-13.9 5.8-14.8 13.3l-9.4 76.2h25.7l7.8-65.8H238l.6-24.6z"/><path class="st12" d="M167.4 297.9c0 .1 5.6.3 12.6.3 6.9 0 12.5-.1 12.6-.1.8-.1-5.6-.3-12.6-.3-6.9-.1-12.6 0-12.6.1zM264.6 209.9H263.7c-.6 0-1.5.1-2.7.1-2.3.1-5.7.3-9.8.5-8.3.4-19.7 1-32.3 1.7-1.6.1-3.1.2-4.7.2-1.5 0-3.1.1-4.5.2-1.5.1-2.9.2-4.4.3-1.4.2-2.9.3-4.2.8-1.3.5-2.5 1.2-3.5 2.1-1 .9-1.7 2-2.1 3.2-.4 1.2-.7 2.3-.9 3.4-.2 1.1-.2 2.2-.2 3.3 0 2.1.4 4 1.1 5.5.7 1.5 1.7 2.6 2.6 3.3.9.7 1.8 1.1 2.4 1.3.6.2.6.1 0-.1s-1.4-.6-2.3-1.3c-.9-.7-1.8-1.8-2.5-3.3-.7-1.5-1-3.3-1-5.4 0-1 .1-2.1.3-3.2.2-1.1.4-2.2.9-3.4.4-1.1 1.1-2.2 2-3 .9-.9 2.1-1.5 3.3-2 1.3-.5 2.6-.6 4.1-.8 1.4-.1 2.9-.2 4.4-.3 1.5-.1 3-.1 4.5-.2 1.5 0 3.1-.1 4.7-.2 12.6-.7 24-1.3 32.3-1.8 4.1-.2 7.4-.5 9.8-.6 1.1-.1 2-.1 2.7-.2.3 0 .5 0 .7-.1h.2z"/><path class="st17" d="m249.5 178.3-4.1 12.9c-1.6 5.3-6 9.3-11.6 10.4l-23.9 6.6-1.9-4.4-1.7-6.5 20.7-7c2-.4 3.6-2 4.2-4l8.2-17.9 10.4 6.4-.3 3.5z"/><path class="st7" d="M259.6 138c-8.7 1-11.6 4.6-15.1 9.8-1.5 2.1-2.7 4.5-3.5 6.9l-6.6 18.8 13.8 4.3-.5 15.3-6.3 18.7 53.1 4.2-.2-27.1-.4-16.4c.5-6.2 1.8-19.3.7-22.5-4.7-13.3-15.2-10.8-22.8-12.7-1.6-.4-9.2-.3-10.5 0"/><path class="st11" d="M294.5 187c0 .1-10.4.3-23.2.3-12.8 0-23.2-.1-23.2-.3 0-.1 10.4-.3 23.2-.3 12.8.1 23.2.2 23.2.3zM293.7 196.3c0 .1-10.4.3-23.2.3-12.8 0-23.2-.1-23.2-.3s10.4-.3 23.2-.3c12.8 0 23.2.2 23.2.3zM293.9 206.9c0 .1-11 .3-24.5.3-13.6 0-24.5-.1-24.5-.3s11-.3 24.5-.3c13.5.1 24.5.2 24.5.3z"/><path d="M287.5 181.1c-.7 3.6-1 7.5-2.2 10.9-.9 2.5-1.9 5.1-3.6 7.2-2.2 2.9-5.5 4.9-9 6-3.5 1.1-20.4 4.9-24 4.6l30.9-14.6 3.7-15.4 4.2 1.3z" class="st15"/><path class="st17" d="m285.7 180.6-3.4 13.1c-1.3 5.4-5.6 9.7-11.1 11l-27.2 6.4-7.5.1v-10.3l27.4-7.4c2-.5 3.5-2.2 4-4.2l2.6-11.5 15.2 2.8z"/><path class="st11" d="M294.7 149.1c0 .1-11.5.3-25.6.3-14.1 0-25.6-.1-25.6-.3s11.5-.3 25.6-.3c14.2.1 25.6.2 25.6.3zM295 158c0 .1-12.3.3-27.6.3-15.2 0-27.6-.1-27.6-.3s12.3-.3 27.6-.3 27.6.1 27.6.3zM294.3 167.6c0 .1-13 .4-29 .5-16 .1-29 .1-29 0s13-.4 29-.5c16-.2 29-.2 29 0zM293.9 177.7c0 .1-10.4.3-23.2.3-12.8 0-23.2-.1-23.2-.3 0-.1 10.4-.3 23.2-.3 12.8 0 23.2.1 23.2.3z"/><path class="st6" d="M290.3 181.6v-.2c0-.2.1-.4.1-.6.1-.6.2-1.4.4-2.4.3-2.1.8-5.2 1.3-9s1.1-8.5 1.4-13.7c.1-2.6.3-5.4-1-8-.6-1.3-1.6-2.4-2.8-3.2-1.2-.8-2.6-1.4-4.1-1.6-1.6-.5-3.4-.2-5.1.3-1.7.6-3.3 1.4-4.7 2.5-.3.2-.5.5-.7.8-.2.3-.4.6-.5 1-.3.7-.6 1.4-.8 2.1-.4 1.4-.7 2.9-.9 4.4-.5 2.9-1 5.7-1.5 8.4-1 5.4-1.9 10.4-2.7 14.8l-.2-.2c6.4 1.4 11.7 2.5 15.4 3.3 1.8.4 3.2.7 4.2.9.5.1.8.2 1.1.3.2.1.4.1.4.1h-.4c-.3-.1-.7-.1-1.1-.2-1-.2-2.4-.5-4.3-.8-3.7-.8-9-1.8-15.4-3.1h-.2v-.2c.8-4.4 1.7-9.4 2.6-14.9.5-2.7 1-5.5 1.5-8.4.3-1.4.5-2.9.9-4.4.2-.7.5-1.5.8-2.2.2-.4.3-.7.6-1 .2-.4.5-.7.8-.9 1.5-1.2 3.1-2.1 4.9-2.7 1.7-.6 3.6-.9 5.4-.3h-.1c1.6.2 3.1.8 4.3 1.7 1.3.9 2.3 2.1 3 3.4.4.7.6 1.4.8 2 .1.7.3 1.4.3 2.1 0 .4 0 .7.1 1v1c0 .7 0 1.3-.1 2-.3 5.2-1 9.9-1.6 13.7-.6 3.8-1.1 6.9-1.5 9-.2 1-.3 1.8-.5 2.4-.1.3-.1.5-.1.6.1.2 0 .3 0 .2zM247.9 192.8s.1-.5.1-1.4v-3.8c0-3.2 0-7.6-.1-12.5s-.1-9.3-.2-12.5c0-1.5-.1-2.8-.1-3.8 0-.9-.1-1.4-.1-1.4s-.1.5-.1 1.4v3.8c0 3.2 0 7.6.1 12.5s.1 9.3.2 12.5c0 1.5.1 2.8.1 3.8.1.9.1 1.4.1 1.4z"/><path class="st12" d="m264.6 213.3.5-2.3-20.6-2.1-9-25.9-42.1-.3 13.8 30z"/><path class="st8" d="M220.4 199.2c1-.6 1.3-1.9.6-2.9-.6-1-1.9-1.3-2.9-.6-1 .6-1.3 1.9-.6 2.9.6 1 1.9 1.3 2.9.6"/><path class="st6" d="M248.9 95.4c-2.2.4-4.2 2.2-4.6 4.4-.4 2.2.7 4.7 2.6 5.8.8.5 1.9.8 2.8.3.8-.4 1.3-1.3 1.5-2.2.9-2.8.6-6-.7-8.6"/><path class="st17" d="M266.3 146.5c-5 0-9-4.1-9-9.1 0-3.1.1-5.8.1-5.8s-7.2-.7-7.7-7.8-.3-23.6-.3-23.6c8-4.1 17.6-3.4 25.1 1.6l1.1.7-.3 35c-.1 5-4.1 9-9 9z"/><path class="st19" d="M257.4 131.5s4.5.1 9.1-3.2c0 0-1.9 5.3-9 5.1l-.1-1.9z"/><path class="st17" d="M273.8 110.4c.1 0 4.5-.6 4.1 4.6-.4 5.2-5.5 3-5.5 2.9 0-.2 1.4-7.5 1.4-7.5z"/><path class="st19" d="m274.1 116.2.2.2c.1.1.4.1.7.1.6-.2 1.1-1 1.2-1.9.1-.5 0-.9-.1-1.3s-.4-.7-.6-.7c-.3-.1-.5.1-.6.2-.1.1-.1.2-.1.3 0 0-.1-.1 0-.3 0-.1.1-.2.2-.3.1-.1.3-.1.5-.1.4.1.7.5.9.9.2.4.3.9.2 1.5-.1 1-.7 2-1.5 2.1-.4.1-.7-.1-.8-.2-.2-.4-.2-.5-.2-.5z"/><path class="st6" d="M254.3 103.1c1-.4 2.5-1.8 3.4-2.4.9 1.4 2.4 2.3 4 2.5 1.6.2 3.3-.4 4.4-1.5 0 .9.6 1.8 1.4 2.3.8.4 1.8.4 2.7 0 0 2.8.1 5.5.1 8.3 0 .8 0 1.6.5 2.3.5.6 1.6.8 2 .2-.1-1-.2-2.1.3-3 .4-.9 1.6-1.6 2.5-1.1.3-1.7.3-3.2.3-4.9 0-.3 0-1.2.2-1.5.3-.5.4-.1.9-.2 1.5-.3 2.7-1.8 2.8-3.3.1-1.5-.7-3.1-2-4-1.3-.9-2.9-1.2-4.4-1.1 1-.9.9-2.7 0-3.8-.9-1.1-2.4-1.5-3.8-1.4-1.4.1-2.9.9-3.1 2.2-.4-2.7-2.8-4.9-5.5-5-2.7-.1-5.3 2-5.8 4.6-1.7-.7-4-1.6-5.6-.8-1.7.8-3.1 1.9-3.4 4.7 0 0-.4 5.7 3.2 6.8 3.5 1.3 4.9.1 4.9.1zM251.3 111.6c0 .5.4 1 1 1s1-.4 1-.9-.4-1-1-1-1 .4-1 .9zM251 110.5c.1.1.9-.4 2-.4s1.9.5 2 .4c.1-.1-.1-.3-.4-.5-.3-.2-.9-.5-1.6-.5-.7 0-1.2.3-1.6.5-.3.2-.4.4-.4.5zM261.8 111.9c0 .5.4 1 1 1s1-.4 1-.9-.4-1-1-1c-.5-.1-1 .3-1 .9z"/><path class="st6" d="M261.6 110.7c.1.1.9-.4 2-.4s1.9.5 2 .4c.1-.1-.1-.3-.4-.5-.3-.2-.9-.5-1.6-.5-.7 0-1.2.3-1.6.5-.3.2-.4.4-.4.5zM257.7 118.7c0-.1-.7-.2-1.7-.3-.3 0-.5-.1-.6-.3-.1-.2.1-.5.2-.8.3-.7.5-1.4.8-2.1 1.1-3 1.9-5.4 1.8-5.5-.1 0-1.1 2.3-2.3 5.3-.3.7-.5 1.4-.8 2.1-.1.3-.3.7-.1 1.1.1.2.3.4.5.4.2.1.3.1.5.1h1.7zM260.9 119.4c-.2 0-.2 1.2-1.2 2s-2.2.7-2.3.9c0 .1.3.2.8.2s1.3-.1 1.9-.7c.6-.5.9-1.2.9-1.7.1-.4 0-.7-.1-.7zM261.3 106.5c.1.3 1.2.2 2.4.3 1.3.1 2.3.5 2.5.2.1-.1-.1-.4-.5-.7-.4-.3-1.1-.6-1.8-.6-.8-.1-1.5 0-1.9.2-.5.2-.7.4-.7.6zM251.4 107.4c.2.2.9 0 1.8 0s1.6.2 1.8-.1c.1-.1 0-.4-.4-.6-.3-.2-.9-.4-1.5-.4s-1.1.2-1.5.5c-.1.2-.2.4-.2.6z"/><path class="st12" d="M253.5 95.1s-.1 0-.3-.1c-.2 0-.5 0-.7.2-.3.2-.5.6-.3 1.1.1.5.5.9 1.1 1.2.6.2 1.3.2 1.9-.1.6-.3 1.1-1.1 1.2-1.9.1-.8-.2-1.7-.9-2.3-.7-.6-1.6-.9-2.5-.8-.9.1-1.8.6-2.4 1.2-.6.6-1 1.5-1.2 2.3-.4 1.7.1 3.2.7 4.3.6 1.1 1.5 1.8 2 2.3.6.4 1 .6 1 .6s-.4-.1-1.1-.5c-.6-.4-1.5-1.1-2.2-2.3-.7-1.1-1.2-2.8-.9-4.6.2-.9.6-1.8 1.3-2.6.7-.7 1.7-1.3 2.8-1.4 1.1-.1 2.2.2 2.9.9.8.7 1.2 1.7 1 2.7-.1.9-.7 1.8-1.4 2.2-.8.4-1.6.4-2.3.1-.7-.3-1.1-.9-1.2-1.4-.1-.6.1-1.1.5-1.3.3-.2.7-.2.9-.1 0 .2.1.3.1.3z"/></g><g id="Plants"><path class="st7" d="M86.1 426c.7-2.7-1.1-5.3-3-7.2-2-1.9-4.3-3.6-5.3-6.2-1.7-4.1.5-9.5-2.3-12.9-1.7-2-4.6-2.7-6.1-4.8-.8-1.1-1-2.5-1.3-3.9-1.6-6.8-5-13.2-9.9-18.2-.3 6.1 1.1 12.2 3.9 17.6 1.1 2.2 2.6 4.3 2.9 6.7.6 3.9-1.5 8-.5 11.8 1.1 4.4 6.1 7.3 6.4 11.9.2 3.8-3.1 7.2-2.8 11 .1 1.6.9 3.1 1.7 4.5 3 4.9 7.4 8.3 14 8.1l8.1.2-5.8-18.6z"/><path d="M86.1 426c.7-2.7-1.1-5.3-3-7.2-2-1.9-4.3-3.6-5.3-6.2-1.7-4.1.5-9.5-2.3-12.9-1.7-2-4.6-2.7-6.1-4.8-.8-1.1-1-2.5-1.3-3.9-1.6-6.8-5-13.2-9.9-18.2-.3 6.1 1.1 12.2 3.9 17.6 1.1 2.2 2.6 4.3 2.9 6.7.6 3.9-1.5 8-.5 11.8 1.1 4.4 6.1 7.3 6.4 11.9.2 3.8-3.1 7.2-2.8 11 .1 1.6.9 3.1 1.7 4.5 3 4.9 7.4 8.3 14 8.1l8.1.2-5.8-18.6z" class="st15"/><path class="st6" d="M93.3 444.9s.8.2 2.2-.1c.7-.1 1.6-.3 2.6-.7 1-.4 2.1-.9 3.2-1.8.5-.5 1-1 1.3-1.8.3-.8.3-1.6.4-2.4 0-.8 0-1.7.2-2.6.1-.9.5-1.8 1-2.6.9-1.7 2.5-3.3 3-5.6.5-2.2.1-4.7-.3-7.1-.4-2.4-.8-5.1.1-7.6s2.6-4.8 3.5-7.7c.9-2.9.4-6 .6-9 .1-1.5.4-3.1 1-4.5s1.5-2.8 2.2-4.3c1.4-3.1 1.7-6.5 2-9.9.2-1.7.4-3.4.6-5.2.2-1.7.3-3.5.9-5.2.5-1.7 1.2-3.3 1.9-5 .3-.8.7-1.7.9-2.6.2-1 .2-1.8.2-2.8.1-1.9 0-3.7-.2-5.6-.2-1.9-.6-3.7-.8-5.6v-.7l-.3.2c-1.7.9-3.2 2.2-4.3 3.7-1.1 1.5-2 3.2-2.6 4.9-1.3 3.5-1.8 7.1-2.5 10.6-.6 3.5-1.5 6.9-3.3 9.8-.9 1.4-1.9 2.8-2.9 4.2-.9 1.4-1.7 2.9-2 4.6-.5 3.4 1.4 6.4 1.1 9.4-.1 1.5-.7 2.9-1.5 4.2-.7 1.3-1.6 2.5-2.4 3.7-.8 1.2-1.6 2.4-2.1 3.7-.6 1.3-.9 2.7-1 4.1-.2 2.7.2 5.3 0 7.8-.2 2.4-1 4.7-2 6.7s-2 3.8-2.9 5.6c-.5.9-.9 1.7-1.2 2.6-.4.9-.5 1.7-.7 2.6-.3 1.7-.2 3.2 0 4.6.4 2.8 1.4 4.8 2.3 5.9.2.3.5.5.7.7.2.2.4.3.5.4.5.3.6.4.6.4s-.7-.4-1.6-1.5c-.9-1.1-1.9-3.1-2.2-5.8-.2-1.4-.2-2.9.1-4.5.2-.8.3-1.7.7-2.5.3-.8.8-1.7 1.2-2.5.9-1.7 2-3.5 3-5.5s1.9-4.3 2-6.8c.2-2.5-.2-5.1 0-7.8.1-1.3.4-2.7 1-3.9.6-1.3 1.3-2.5 2.1-3.7.8-1.2 1.7-2.4 2.4-3.7.7-1.3 1.4-2.8 1.5-4.4.4-3.2-1.5-6.2-1-9.4.2-1.6 1-3 1.9-4.4.9-1.4 2-2.7 2.9-4.2 1.8-3 2.7-6.5 3.3-10 .7-3.5 1.1-7.1 2.4-10.5.7-1.7 1.5-3.4 2.6-4.8 1.1-1.5 2.5-2.7 4.2-3.5l-.4-.2v.3c.2 1.9.6 3.7.8 5.6.2 1.8.3 3.7.2 5.5 0 .9-.1 1.8-.2 2.7-.2.9-.6 1.7-.9 2.5-.7 1.7-1.4 3.3-1.9 5.1-.6 1.7-.7 3.5-.9 5.3-.2 1.7-.4 3.5-.5 5.2-.4 3.4-.6 6.8-2 9.7-.7 1.5-1.6 2.8-2.2 4.3-.7 1.5-1 3.1-1.1 4.7-.2 3.1.3 6.2-.6 8.9-.8 2.8-2.6 5.1-3.5 7.7-.9 2.6-.5 5.4-.1 7.8.4 2.4.8 4.8.3 7s-2 3.8-2.9 5.5c-.5.9-.9 1.8-1 2.7-.1.9-.1 1.8-.2 2.6 0 .8-.1 1.7-.3 2.4-.2.7-.7 1.3-1.2 1.7-1.1.9-2.2 1.4-3.2 1.8-1 .4-1.9.6-2.6.7-.7.1-1.3.2-1.6.2-.3-.3-.5-.3-.5-.3z"/><path class="st6" d="M118.3 349.5s0 .1-.1.2c0 .2-.1.4-.2.7-.2.6-.3 1.6-.6 2.8-.3 1.2-1 2.6-1.7 4.2-.6 1.7-1.3 3.6-1.9 5.7-.6 2.2-1.1 4.6-1.7 7.1-.6 2.6-1.1 5.3-2.5 7.9-.7 1.3-1.4 2.7-2 4.1-.6 1.5-.9 3-1.1 4.6-.4 3.2-.9 6.5-1.7 9.8-1.6 6.6-3.1 13-4.5 18.7-1.4 5.7-2.7 10.9-3.7 15.3-1 4.3-1.9 7.8-2.5 10.3-.3 1.2-.5 2.1-.6 2.8-.1.3-.1.5-.2.7v.3s0-.1.1-.2c.1-.2.1-.4.2-.7.2-.7.4-1.6.7-2.8.6-2.5 1.5-6 2.6-10.3 1.1-4.3 2.4-9.5 3.9-15.2 1.4-5.8 2.9-12.1 4.5-18.7.7-3.3 1.3-6.6 1.7-9.8.2-1.6.5-3.1 1.1-4.5.6-1.4 1.3-2.7 1.9-4.1 1.4-2.6 2-5.5 2.5-8 .5-2.6 1-5 1.6-7.1.6-2.2 1.2-4.1 1.8-5.7.6-1.7 1.3-3 1.6-4.3.3-1.2.4-2.2.5-2.8.1-.3.1-.5.1-.7.2-.2.2-.3.2-.3z"/><path class="st7" d="M94.7 444.9c5.3-3.2 6.7-12.7 4.5-18.4-2.2-5.7-6.1-10.9-6.8-17.1-.5-4.7 1-9.5-.1-14.1-1.5-6.2-7.6-11-7.6-17.3 0-3.6 2-7 1.9-10.5-.2-4.4-3.6-7.8-5.7-11.7-3.2-5.9-3.5-12.9-4.6-19.5s-3.7-13.7-9.6-16.9c-.8 5.6-2.3 9.5-1.8 17.1.2 2.7 3.4 8 3.9 14 .3 3.6.5 7.2.7 10.8.2 3.5.5 7 1.7 10.3 1 2.5 2.5 4.8 3.3 7.3 1.4 4.9-.4 10.1.7 15 .9 4.2 3.8 7.7 4.5 12 .9 5.9-2.9 12.1-.9 17.8 1 2.8 3.3 5.1 4 8 .5 2.3 0 4.6.5 6.9.8 3.6 7.7 6.4 11.5 6.2"/><path class="st6" d="M68.3 324.9v.3c0 .2.1.5.1.9.1.8.3 2 .6 3.5.3 1.6 1.1 3.3 1.8 5.4.7 2.1 1.4 4.5 2 7.2.6 2.7 1.1 5.7 1.7 8.9.6 3.2 1.1 6.7 2.8 10.1.8 1.7 1.6 3.4 2.2 5.2.6 1.8 1 3.7 1.1 5.7.3 4 .8 8.1 1.6 12.3 1.7 8.3 3.3 16.3 4.7 23.5 1.5 7.2 2.9 13.7 4 19.1 1.2 5.4 2.1 9.8 2.8 12.9.3 1.5.6 2.7.8 3.5.1.4.2.7.2.9.1.2.1.3.1.3v-.3c0-.2-.1-.5-.2-.9-.2-.8-.4-2-.7-3.5-.6-3.1-1.5-7.5-2.6-12.9-1.1-5.5-2.5-11.9-3.9-19.1-1.4-7.2-3-15.1-4.7-23.5-.8-4.2-1.3-8.3-1.6-12.3-.2-2-.5-4-1.2-5.8-.7-1.8-1.5-3.5-2.3-5.2-1.6-3.3-2.2-6.8-2.8-10-.6-3.2-1.1-6.2-1.8-8.9-.6-2.7-1.3-5.1-2.1-7.2-.7-2.1-1.5-3.8-1.8-5.3-.3-1.5-.5-2.7-.6-3.5-.1-.4-.1-.7-.2-.9v-.4z"/><path class="st7" d="M662.9 418.4c-1.2 1.7-3.6 1.2-4.7.1-1.1-1.1-1.6-2.6-2-4.1-1-3.4-1.9-6.9-1.2-10.3.2-1 .6-2 1.3-2.8.7-.8 1.8-1.2 2.8-.9 1.2.3 1.9 1.5 2.5 2.6 1.6 3.3 2.4 6.9 2.4 10.5.1 1.7-.1 3.5-1.1 4.9"/><path d="M662.9 418.4c-1.2 1.7-3.6 1.2-4.7.1-1.1-1.1-1.6-2.6-2-4.1-1-3.4-1.9-6.9-1.2-10.3.2-1 .6-2 1.3-2.8.7-.8 1.8-1.2 2.8-.9 1.2.3 1.9 1.5 2.5 2.6 1.6 3.3 2.4 6.9 2.4 10.5.1 1.7-.1 3.5-1.1 4.9" class="st9"/><path class="st7" d="M658.3 427.2c-2-1-4.3-1.2-6.6-.8-1.2.2-2.4.6-3.2 1.4-.8.9-1 2.5 0 3.2.6.5 1.3.5 2 .5 1.7 0 3.7-.3 5 .7.8.6 1.3 1.6 2.3 1.9.9.3 2-.3 2.5-1.1s.5-1.9.3-2.8c0 .1-.3-2-2.3-3zM666.2 420.9c-1.3-1.6-1.6-3.9-1-5.8.6-2 1.9-3.6 3.5-5 1.8-1.6 3.9-2.8 6.2-3.6.9-.3 1.8-.6 2.8-.5.9.1 1.9.6 2.3 1.4.7 1.2 0 2.7-.6 4-1.2 2.2-2.5 4.2-4.1 6.2-1.2 1.6-2.6 3.1-4.5 3.8-1.9.7-3.8.6-4.8-.7"/><path class="st6" d="M663 444.6s-.1-.3-.1-.8c-.1-.6-.1-1.3-.2-2.2-.1-.9-.2-2-.5-3.2-.3-1.2-.6-2.4-1.2-3.7-.5-1.3-1.2-2.4-1.9-3.4-.7-.9-1.6-1.6-2.4-2-.8-.4-1.5-.6-2-.6-.5-.1-.8-.1-.8-.1h.8c.5 0 1.3.2 2.1.6.9.4 1.8 1.1 2.5 2 .8 1 1.4 2.1 2 3.4.5 1.3.9 2.6 1.1 3.8.2 1.2.3 2.3.4 3.2.1.9.1 1.7.1 2.2.1.5.1.8.1.8z"/><path class="st6" d="M662.8 443v-5.3c-.1-3.3-.4-7.7-.9-12.7-.5-4.9-1.3-9.4-1.9-12.6-.2-.8-.3-1.5-.5-2.1-.1-.6-.3-1.2-.4-1.6-.1-.4-.2-.8-.2-1-.1-.2-.1-.4-.1-.4s.1.1.1.3c.1.3.2.6.3 1 .1.4.3 1 .4 1.6.2.6.3 1.3.5 2.1.7 3.2 1.5 7.6 2 12.6.5 4.9.8 9.5.8 12.7 0 1.6 0 3-.1 3.9 0 .4 0 .8-.1 1 .2.3.1.5.1.5z"/><path class="st6" d="M662.8 434.3v-1.1c0-.7.1-1.7.3-3 .2-1.2.5-2.7 1-4.3.4-1.6 1-3.4 1.8-5.1 1.5-3.6 3.5-6.5 5.3-8.3.4-.5.9-.8 1.3-1.2.2-.2.4-.3.5-.5.2-.1.3-.2.5-.3l.9-.6c.1.1-1.3.9-3 2.7-1.7 1.8-3.7 4.7-5.2 8.2-.8 1.8-1.4 3.5-1.8 5.1-.5 1.6-.8 3.1-1 4.3-.2 1.2-.4 2.2-.4 2.9-.1.8-.2 1.2-.2 1.2z"/></g></svg>