<svg version="1.1" id="Layer_1" xmlns="http://www.w3.org/2000/svg" x="0" y="0" viewBox="0 0 500 380.3" style="enable-background:new 0 0 500 380.3" xml:space="preserve"><style>.st1,.st2{fill:#e0e0e0}.st1{opacity:.1}.st2{fill-rule:evenodd;clip-rule:evenodd}.st2,.st4,.st6{opacity:.1}.st6{fill-rule:evenodd;clip-rule:evenodd;fill:#f5f5f5}.st7,.st8{fill:#ebebeb}.st8{opacity:.1}.st9{fill:#e0e0e0}.st10{fill:#f5f5f5}.st12{display:inline;fill:#ebebeb}.st13{fill:#455a64}.st14{fill:#263238}.st15{fill:#797bf2}.st16{fill:#fff}.st17{opacity:.3}.st20{fill:#5a22c3}</style><g id="Background_Complete"><path d="M373.2 124.4c.5-1.9 1.2-3.7 2.1-5.4l-2.9-4.5 6.2-6.4 4.6 2.8c1.6-1 3.4-1.8 5.3-2.3l1.1-5.2 8.8-.1 1.3 5.2c1.9.5 3.7 1.2 5.4 2.1l4.5-2.9 6.4 6.2-2.8 4.6c1 1.6 1.8 3.4 2.3 5.3l5.2 1.1.1 8.8-5.2 1.3c-.5 1.9-1.2 3.7-2.1 5.4l2.9 4.5-6.2 6.4-4.6-2.8c-1.6 1-3.4 1.8-5.3 2.3l-1.1 5.2-8.8.1-1.3-5.2c-1.9-.5-3.7-1.2-5.4-2.1l-4.5 2.9-6.4-6.2 2.8-4.6c-1-1.6-1.8-3.4-2.3-5.3l-5.2-1.1-.1-8.8 5.2-1.3zm11.7 5c.1 5.2 4.4 9.4 9.6 9.3 5.2-.1 9.4-4.4 9.3-9.6-.1-5.2-4.4-9.4-9.6-9.3-5.2 0-9.4 4.3-9.3 9.6z" style="opacity:.1;fill:none"/><path class="st1" d="M384.9 129.4s-.1-.8.2-2.3c.3-1.5 1.2-3.7 3.4-5.4 1.1-.9 2.4-1.6 4-1.9s3.4-.3 5.1.3c.9.3 1.7.7 2.5 1.3.8.5 1.5 1.2 2.1 2 1.2 1.6 1.9 3.6 2 5.7 0 2.1-.6 4.2-1.8 5.8-.6.8-1.3 1.5-2 2.1-.8.6-1.6 1-2.4 1.4-1.7.7-3.5.7-5.1.5-1.6-.3-3-1-4.1-1.8-2.2-1.7-3.2-3.8-3.5-5.3-.5-1.6-.4-2.4-.4-2.4.1 0 0 .8.4 2.3.4 1.4 1.4 3.5 3.5 5 1.1.8 2.4 1.4 3.9 1.6 1.5.2 3.2.1 4.9-.5.8-.3 1.6-.7 2.3-1.3.7-.5 1.4-1.2 1.9-2 1.1-1.5 1.7-3.5 1.7-5.5-.1-2-.7-3.9-1.9-5.4-.6-.8-1.2-1.4-2-1.9-.7-.5-1.5-1-2.4-1.2-1.6-.6-3.4-.6-4.9-.3-1.5.3-2.8 1-3.9 1.8-2.1 1.6-3 3.7-3.4 5.2-.1 1.3 0 2.2-.1 2.2z"/><path class="st1" d="M373.2 124.4s-.1 0-.3.1c-.2.1-.6.1-1 .3-.9.2-2.2.6-3.9 1l.1-.1c0 2.3.1 5.2.2 8.8l-.1-.1c1.6.3 3.4.7 5.2 1.1h.1v.1c.5 1.7 1.2 3.5 2.3 5.2l.1.1-.1.1c-.9 1.4-1.8 3-2.8 4.6v-.2c2 1.9 4.1 4 6.4 6.1h-.3c1.4-.9 2.9-1.9 4.5-2.9l.1-.1.1.1c1.6.9 3.4 1.6 5.3 2.1h.1v.1c.4 1.6.8 3.4 1.3 5.2l-.2-.2c2.8 0 5.8-.1 8.8-.2l-.2.2c.3-1.6.7-3.4 1.1-5.2v-.1h.1c1.7-.5 3.5-1.2 5.2-2.3l.1-.1.1.1c1.4.9 3 1.8 4.6 2.8h-.3c1.9-2 4-4.2 6.2-6.4v.3c-.9-1.4-1.9-2.9-2.9-4.5l-.1-.1.1-.1c.9-1.6 1.6-3.4 2.1-5.3v-.2h.2c1.7-.4 3.5-.8 5.2-1.3l-.2.3c0-3-.1-5.9-.1-8.8l.2.2c-1.8-.4-3.5-.7-5.2-1.1h-.2v-.1c-.5-1.9-1.3-3.6-2.3-5.2l-.1-.1.1-.1c.9-1.5 1.9-3.1 2.8-4.6v.3c-2.2-2.1-4.3-4.2-6.4-6.2h.3c-1.5 1-3 2-4.5 2.9l-.1.1-.1-.1c-1.7-1-3.5-1.7-5.3-2.1h-.1v-.1c-.4-1.8-.8-3.5-1.3-5.2l.2.2c-3.1 0-6.1.1-8.8.1l.2-.2c-.4 1.8-.8 3.6-1.1 5.2v.1h-.1c-2 .6-3.7 1.3-5.3 2.3l-.1.1-.1-.1c-1.7-1-3.2-1.9-4.6-2.8h.2c-2.4 2.5-4.4 4.5-6.2 6.3v-.1c1.2 1.8 2.1 3.3 2.9 4.5-1 1.7-1.5 3.1-1.8 4-.1.4-.2.8-.3 1 .1.2 0 .3 0 .3s0-.1.1-.4c.1-.2.1-.6.3-1 .3-.9.8-2.3 1.7-4v.1l-3-4.5-.1-.1.1-.1c1.7-1.8 3.8-3.9 6.1-6.4l.1-.1.1.1c1.4.9 2.9 1.8 4.6 2.8h-.2c1.6-.9 3.3-1.8 5.3-2.3l-.1.1c.3-1.7.7-3.4 1.1-5.2v-.2h.2c2.8-.1 5.7-.1 8.8-.2h.2v.2c.4 1.7.8 3.4 1.3 5.2l-.2-.2c1.9.5 3.7 1.2 5.4 2.1h-.2c1.5-1 3-1.9 4.5-2.9l.2-.1.1.1c2.1 2 4.2 4 6.4 6.1l.1.1-.1.2c-.9 1.5-1.8 3-2.8 4.6v-.3c1 1.6 1.8 3.5 2.3 5.4l-.2-.2c1.7.4 3.5.7 5.2 1.1h.2v.2c0 2.9.1 5.9.1 8.8v.2h-.2c-1.7.4-3.5.8-5.2 1.3l.2-.2c-.5 1.9-1.2 3.8-2.1 5.4v-.3c1 1.5 2 3.1 2.9 4.5l.1.2-.1.1c-2.1 2.2-4.2 4.3-6.2 6.4l-.1.1-.2-.1c-1.6-1-3.1-1.9-4.6-2.8h.3c-1.7 1-3.6 1.8-5.4 2.3l.2-.2c-.4 1.8-.8 3.6-1.1 5.2v.2h-.2c-3.1 0-6.1.1-8.8.1h-.2v-.2c-.4-1.8-.9-3.6-1.3-5.2l.2.2c-2-.5-3.8-1.3-5.4-2.2h.2c-1.6 1-3.1 2-4.5 2.9l-.1.1-.1-.1c-2.2-2.2-4.3-4.2-6.3-6.2l-.1-.1.1-.1c1-1.6 1.9-3.1 2.8-4.6v.2c-1.1-1.8-1.8-3.6-2.3-5.3l.1.1c-1.9-.4-3.6-.8-5.2-1.1h-.1v-.1c0-3.6-.1-6.6-.1-8.9v-.1h.1c1.7-.4 3-.7 3.9-.9.4-.1.8-.2 1-.2.1.4.2.4.2.4z"/><path class="st2" d="M114.4 100c.5-2.1 1.3-4.1 2.4-6l-3.3-5 6.9-7.1 5.1 3.1c1.8-1.1 3.8-2 5.9-2.6l1.2-5.9 9.9-.2 1.4 5.8c2.1.5 4.1 1.3 6 2.4l5-3.3 7.1 6.9-3.1 5.1c1.1 1.8 2 3.8 2.6 5.9l5.9 1.2.2 9.9-5.8 1.4c-.5 2.1-1.3 4.1-2.4 6l3.3 5-6.9 7.1-5.1-3.1c-1.8 1.1-3.8 2-5.9 2.6l-1.2 5.9-9.9.2-1.4-5.8c-2.1-.5-4.1-1.3-6-2.4l-5 3.3-7.1-6.9 3.1-5.1c-1.1-1.8-2-3.8-2.6-5.9l-5.9-1.2-.2-9.9 5.8-1.4zm13.1 5.6c.1 5.9 4.9 10.5 10.8 10.4 5.9-.1 10.5-4.9 10.4-10.8s-4.9-10.5-10.8-10.4c-5.9.1-10.5 4.9-10.4 10.8zM342.5 74.4c.2-.6.4-1.2.7-1.7l-.9-1.4 2-2.1 1.5.9c.5-.3 1.1-.6 1.7-.7l.4-1.7h2.9l.4 1.7c.6.2 1.2.4 1.7.7l1.4-.9 2.1 2-.9 1.5c.3.5.6 1.1.7 1.7l1.7.4v2.9l-1.7.4c-.2.6-.4 1.2-.7 1.7l.9 1.4-2 2.1-1.5-.9c-.5.3-1.1.6-1.7.7l-.4 1.7h-2.9l-.4-1.7c-.6-.2-1.2-.4-1.7-.7l-1.4.9-2.1-2 .9-1.5c-.3-.5-.6-1.1-.7-1.7l-1.7-.4v-2.9l1.7-.4zm3.7 1.6c0 1.7 1.4 3 3.1 3s3-1.4 3-3.1-1.4-3-3.1-3c-1.6 0-3 1.4-3 3.1z"/><path d="M48.6 104c.2-.8.5-1.7.9-2.4l-1.3-2 2.8-2.8 2 1.2c.7-.4 1.5-.8 2.4-1l.5-2.3 4-.1.6 2.3c.8.2 1.7.5 2.4.9l2-1.3 2.8 2.8-1.2 2c.4.7.8 1.5 1 2.4l2.3.5.1 4-2.3.6c-.2.8-.5 1.7-.9 2.4l1.3 2-2.8 2.8-2-1.2c-.7.4-1.5.8-2.4 1l-.5 2.3-4 .1-.6-2.3c-.8-.2-1.7-.5-2.4-.9l-2 1.3-2.8-2.8 1.2-2c-.4-.7-.8-1.5-1-2.4l-2.3-.5-.1-4 2.3-.6zm5.2 2.2c0 2.3 2 4.2 4.3 4.2s4.2-2 4.2-4.3-2-4.2-4.3-4.2c-2.4 0-4.2 2-4.2 4.3z" style="opacity:.1;fill-rule:evenodd;clip-rule:evenodd;fill:#ebebeb"/><path d="M408.3 40.3c.5-1.9 1.2-3.8 2.2-5.5l-3-4.6 6.3-6.5 4.7 2.8c1.7-1 3.5-1.8 5.4-2.3l1.1-5.4 9.1-.1 1.3 5.3c1.9.5 3.8 1.2 5.5 2.2l4.6-3 6.5 6.3-2.8 4.7c1 1.7 1.8 3.5 2.3 5.4l5.4 1.1.1 9.1-5.3 1.3c-.5 1.9-1.2 3.8-2.2 5.5l3 4.6-6.3 6.5-4.7-2.8c-1.7 1-3.5 1.8-5.4 2.3l-1.1 5.4-9.1.1-1.3-5.3c-1.9-.5-3.8-1.2-5.5-2.2l-4.6 3-6.5-6.3 2.8-4.7c-1-1.7-1.8-3.5-2.3-5.4l-5.4-1.1-.1-9.1 5.3-1.3zm12 5.1c.1 5.4 4.5 9.6 9.9 9.6 5.4-.1 9.6-4.5 9.6-9.9-.1-5.4-4.5-9.6-9.9-9.6-5.4.1-9.7 4.5-9.6 9.9z" style="fill-rule:evenodd;clip-rule:evenodd;fill:#ebebeb" class="st4"/><path class="st6" d="M62.9 191.2c.4-1.8 1.1-3.4 2-5l-2.7-4.1 5.7-5.9 4.2 2.6c1.5-.9 3.2-1.6 4.9-2.1l1-4.8 8.2-.1 1.2 4.8c1.8.4 3.4 1.1 5 2l4.1-2.7 5.9 5.7-2.6 4.2c.9 1.5 1.6 3.2 2.1 4.9l4.8 1 .1 8.2-4.8 1.2c-.4 1.8-1.1 3.4-2 5l2.7 4.1-5.7 5.9-4.2-2.6c-1.5.9-3.2 1.6-4.9 2.1l-1 4.8-8.2.1-1.2-4.8c-1.8-.4-3.4-1.1-5-2l-4.1 2.7-5.9-5.7 2.6-4.2c-.9-1.5-1.6-3.2-2.1-4.9l-4.8-1-.1-8.2 4.8-1.2zm10.8 4.6c.1 4.9 4.1 8.7 8.9 8.6 4.9-.1 8.7-4.1 8.6-8.9-.1-4.9-4.1-8.7-8.9-8.6-4.8.1-8.6 4.1-8.6 8.9zM234.9 21.6c.2-.8.5-1.5.9-2.2l-1.2-1.8 2.5-2.6 1.8 1.1c.7-.4 1.4-.7 2.1-.9l.4-2.1 3.6-.1.5 2.1c.8.2 1.5.5 2.2.9l1.8-1.2 2.6 2.5-1.1 1.8c.4.7.7 1.4.9 2.1l2.1.4.1 3.6-2.1.5c-.2.8-.5 1.5-.9 2.2l1.2 1.8-2.5 2.6-1.8-1.1c-.7.4-1.4.7-2.1.9l-.4 2.1-3.6.1-.5-2.1c-.8-.2-1.5-.5-2.2-.9l-1.8 1.2-2.6-2.5 1.1-1.8c-.4-.7-.7-1.4-.9-2.1l-2.1-.4-.1-3.6 2.1-.5zm4.7 2c0 2.1 1.8 3.8 3.9 3.8 2.1 0 3.8-1.8 3.8-3.9s-1.8-3.8-3.9-3.8c-2.2.1-3.8 1.8-3.8 3.9z"/><g class="st4"><path class="st7" d="M420 271.3c4.5-2.3 9.8-2.6 14.8-1.8 2.7.4 5.5 1.2 7.3 3.3 1.8 2 2.2 5.6.1 7.3-1.2 1-3 1.2-4.6 1.2-3.9 0-8.2-.7-11.4 1.6-1.8 1.3-3 3.6-5.1 4.2s-4.4-.6-5.5-2.5-1.1-4.2-.6-6.4c-.1 0 .4-4.6 5-6.9z"/></g><path class="st8" d="M409.7 251.4c2.7 3.9 8.1 2.6 10.6.2s3.5-5.9 4.5-9.2c2.2-7.6 4.4-15.5 2.8-23.2-.5-2.3-1.3-4.6-3-6.3-1.6-1.7-4.1-2.7-6.4-2.1-2.7.7-4.4 3.4-5.6 5.9-3.6 7.4-5.4 15.6-5.5 23.8-.1 3.7.4 7.7 2.6 10.9M402.1 257c3-3.5 3.6-8.7 2.2-13.2-1.3-4.4-4.3-8.2-7.8-11.3-4.1-3.6-8.8-6.4-13.9-8.2-2-.7-4.1-1.3-6.3-1.1-2.1.2-4.3 1.3-5.3 3.2-1.5 2.8-.1 6.2 1.5 9 2.7 4.9 5.7 9.5 9.2 14 2.7 3.5 5.9 7 10.1 8.6s8.5 1.4 10.7-1.5"/><g class="st4"><path class="st9" d="M409.5 310.6c.1 0 .1-.6.2-1.8.1-1.3.3-2.9.5-4.9s.5-4.5 1.1-7.1 1.5-5.5 2.6-8.4c1.2-2.9 2.6-5.5 4.3-7.6 1.7-2.1 3.6-3.6 5.4-4.5s3.5-1.3 4.6-1.4 1.8-.2 1.8-.3c0-.1-.6-.1-1.8 0-1.2.1-2.9.4-4.8 1.2-1.9.9-4 2.4-5.7 4.6-1.8 2.1-3.3 4.8-4.5 7.8s-2 5.9-2.6 8.6c-.5 2.7-.8 5.2-.9 7.2-.2 2.1-.2 3.7-.2 4.9-.1 1.1-.1 1.7 0 1.7z"/></g><g class="st4"><path class="st9" d="M409.8 306.9v-3.2c0-2.1 0-5 .1-8.7.2-7.3.8-15.2 2-26.4 1.2-10.5 2.7-22.7 4.3-30.6.4-1.8.7-3.4 1-4.8.3-1.4.6-2.7.9-3.6.2-.9.4-1.7.6-2.3.1-.5.2-.8.1-.8 0 0-.1.3-.3.8-.2.6-.4 1.3-.7 2.3-.3 1-.6 2.2-1 3.6s-.8 3-1.1 4.8c-1.6 7.2-3.3 17.2-4.6 28.4-1.2 11.2-1.8 21.3-1.8 28.7 0 3.7 0 6.7.1 8.7.1 1 .1 1.7.1 2.4.2.4.3.7.3.7z"/></g><g class="st4"><path class="st9" d="M409.9 287.3c.1 0 0-.9 0-2.5-.1-1.6-.3-3.9-.8-6.7-.5-2.8-1.1-6.1-2.2-9.8-.5-1.7-1.5-5.6-4.1-11.6-3.4-8-8-14.6-12-18.7-.9-1.1-2-1.9-2.8-2.6-.4-.4-.8-.7-1.2-1-.4-.3-.8-.5-1.1-.8-1.3-.9-2.1-1.4-2.1-1.3-.1.2 3 2 6.8 6.1 3.9 4.1 8.3 10.6 11.7 18.6 1.9 4.3 3.2 8.2 4.1 11.4 1.1 3.6 1.8 6.9 2.3 9.7.5 2.8.8 5.1 1 6.6.2 1.7.3 2.6.4 2.6z"/></g><g class="st4"><path class="st9" d="m390.9 321.9 2 26.9h34.6l1.9-26.9z"/></g><g class="st4"><path class="st9" d="M387.6 311.2h46v10.6h-46z"/></g><g class="st4"><path class="st7" d="M387.6 347.7v3h45.2v-3z"/></g><g class="st4"><path class="st9" d="m391.8 355.9-2.1-5.2h41.4l-2.4 5.2z"/></g><g class="st4"><path class="st10" d="M428.8 330.7s0 .1-.2.2c-.1.2-.3.4-.5.7-.5.6-1.2 1.5-2 2.6l-.1.1-.1-.1c-1.3-1.8-3-4.1-5-6.8h.3c-1.5 2.1-3.1 4.4-4.9 6.9l-.2.2-.2-.2c-1.8-2.1-3.8-4.5-5.8-6.9h.3c-.1.1-.2.3-.3.4-1.8 2.2-3.5 4.4-5.2 6.5l-.2.2-.2-.2c-1.8-2.5-3.4-4.8-4.9-6.9h.3c-2.4 2.7-4.4 5.1-6 6.8l-.1.1-.1-.1c-.8-1.3-1.4-2.4-1.9-3.2-.2-.3-.4-.6-.5-.8-.1-.2-.2-.3-.1-.3 0 0 .1.1.2.3.1.2.3.5.5.8.5.8 1.1 1.8 2 3.1h-.2c1.5-1.8 3.5-4.2 5.9-6.9l.1-.2.1.2c1.5 2.1 3.1 4.4 4.9 6.9h-.3c1.6-2.1 3.4-4.2 5.2-6.5.1-.1.2-.3.3-.4l.2-.2.2.2c2 2.4 4 4.7 5.8 6.9h-.3c1.8-2.5 3.4-4.8 4.9-6.9l.1-.2.1.2c1.9 2.8 3.6 5.1 4.8 6.9h-.2c.9-1.1 1.6-1.9 2.1-2.5.2-.3.4-.5.6-.6.5-.3.6-.3.6-.3z"/></g><g class="st4"><path class="st10" d="M429.9 321.7c0 .1-8.7.2-19.4.2s-19.4-.1-19.4-.2 8.7-.2 19.4-.2 19.4.1 19.4.2z"/></g><g class="st4"><path class="st10" d="M431.6 351c0 .1-9.4.2-21 .2s-21-.1-21-.2 9.4-.2 21-.2 21 .1 21 .2z"/></g><path class="st7" d="M67.4 49.5h1.8c.6 0 1.3 0 2.1.1s1.8.1 2.8.2c2.1.2 4.5.6 7.2 1.1 2.7.6 5.6 1.4 8.5 2.5 3 1.1 5.7 2.4 8.1 3.6 2.4 1.3 4.5 2.6 6.2 3.8.9.6 1.6 1.1 2.3 1.6.7.5 1.2.9 1.7 1.3.9.7 1.4 1.2 1.3 1.2 0 0-.5-.3-1.5-1-.5-.3-1-.8-1.7-1.2-.7-.5-1.4-1-2.3-1.6-1.7-1.1-3.8-2.4-6.2-3.6-2.4-1.2-5.1-2.5-8.1-3.5-2.9-1.1-5.8-1.9-8.5-2.5-2.6-.6-5.1-1-7.1-1.2-1-.2-1.9-.2-2.8-.3-.8-.1-1.5-.1-2.1-.2-1-.2-1.7-.2-1.7-.3z"/><path class="st8" d="m48.9 160.9.5-.5c.4-.3.9-.7 1.6-1.2.7-.5 1.6-1.2 2.6-1.8 1-.7 2.2-1.5 3.5-2.3s2.8-1.7 4.4-2.6c1.6-.9 3.4-1.8 5.2-2.7 3.8-1.7 8-3.5 12.5-4.9 4.6-1.4 9-2.5 13.1-3.2 2-.3 4-.7 5.8-.8 1.8-.2 3.5-.4 5.1-.5s3-.1 4.2-.2h3.2c.8 0 1.5.1 2 .1s.7 0 .7.1h-2.7c-.9 0-1.9 0-3.2.1-1.2.1-2.6.1-4.2.2s-3.3.3-5.1.5c-1.8.2-3.7.5-5.8.9-4 .8-8.5 1.8-13 3.2-4.5 1.5-8.7 3.1-12.5 4.9-1.9.9-3.6 1.7-5.2 2.6-1.6.8-3.1 1.7-4.4 2.5-1.4.8-2.5 1.6-3.6 2.2-1.1.7-1.9 1.3-2.6 1.8-.7.5-1.2.8-1.7 1.1-.2.4-.4.5-.4.5zM120.8 214.7s0-.2.1-.5c.1-.4.2-.9.3-1.5.1-.7.3-1.5.5-2.4s.5-2 .8-3.2c.6-2.3 1.5-5.1 2.7-8.1 1.1-3 2.5-6.2 4.2-9.6 1.7-3.3 3.4-6.4 5.2-9.1 1.7-2.7 3.4-5.1 4.9-7 .7-1 1.4-1.8 2-2.6s1.1-1.4 1.6-1.9c.4-.5.8-.8 1-1.2.2-.3.4-.4.4-.4s-.1.2-.3.4c-.3.3-.6.7-1 1.2s-1 1.2-1.5 1.9c-.6.8-1.3 1.6-2 2.6-1.4 1.9-3.1 4.3-4.8 7s-3.4 5.8-5.1 9.1c-1.6 3.3-3 6.5-4.2 9.5-1.1 3-2.1 5.7-2.8 8-.4 1.2-.6 2.2-.9 3.1-.3.9-.5 1.7-.6 2.4-.2.6-.3 1.1-.4 1.5-.1.6-.1.8-.1.8zM346.7 44.1s-.2.1-.6.1c-.5.1-1 .1-1.7.2-.4 0-.8.1-1.3.2s-.9.2-1.5.3c-1.1.2-2.3.4-3.6.8-.7.2-1.3.3-2.1.5-.7.2-1.4.5-2.2.7-1.5.5-3.1 1.1-4.7 1.8-3.3 1.5-6.7 3.3-10.1 5.7s-6.3 5-8.8 7.6c-1.2 1.3-2.4 2.6-3.3 3.8-.5.6-1 1.2-1.4 1.8l-1.2 1.8c-.8 1.1-1.4 2.2-1.9 3.1-.3.5-.5.9-.8 1.3-.2.4-.4.8-.6 1.1-.3.6-.6 1.1-.8 1.6-.2.4-.3.5-.3.5s.1-.2.2-.6c.2-.4.4-.9.7-1.6.2-.4.3-.7.5-1.2.2-.4.5-.8.7-1.3.5-.9 1.1-2 1.9-3.2l1.2-1.8c.4-.6.9-1.2 1.4-1.9.9-1.3 2.1-2.6 3.3-3.9 2.5-2.6 5.4-5.3 8.8-7.7s6.9-4.2 10.2-5.7c1.7-.7 3.3-1.3 4.8-1.8.8-.2 1.5-.5 2.2-.7s1.4-.3 2.1-.5c1.3-.4 2.5-.5 3.6-.7.5-.1 1-.2 1.5-.2s.9-.1 1.3-.1c.7-.1 1.3-.1 1.7-.1.5.1.8.1.8.1zM420.2 103.6s-.1 0-.3-.1c-.2-.1-.4-.2-.8-.3-.7-.2-1.7-.6-2.9-1-.6-.2-1.3-.5-2.1-.8-.8-.3-1.6-.5-2.5-.8-1.8-.6-3.8-1.3-6.1-1.9-1.1-.3-2.3-.6-3.6-1-1.2-.3-2.6-.6-3.9-.9-2.7-.7-5.6-1.2-8.7-1.7-6.2-1-13-1.7-20.2-2-7.2-.2-14.1.1-20.3.7-3.1.4-6.1.7-8.8 1.2-1.4.2-2.7.4-4 .7-1.3.3-2.5.5-3.6.8-2.3.4-4.4 1-6.2 1.5-.9.2-1.8.4-2.5.6-.8.2-1.5.4-2.1.6-1.2.4-2.2.6-2.9.9-.3.1-.6.2-.8.2-.2 0-.3.1-.3.1s.1 0 .2-.1c.2-.1.4-.2.8-.3.7-.2 1.7-.5 2.9-.9.6-.2 1.3-.4 2.1-.7.8-.2 1.6-.4 2.5-.7 1.8-.5 3.9-1.1 6.2-1.6 1.2-.3 2.4-.5 3.6-.8 1.3-.3 2.6-.5 4-.7 2.7-.5 5.7-.8 8.8-1.2 6.2-.6 13.1-1 20.4-.8 7.2.3 14.1 1 20.3 2 3.1.6 6 1.1 8.7 1.8 1.4.3 2.7.6 3.9.9 1.2.4 2.4.7 3.6 1 2.3.6 4.3 1.3 6.1 1.9.9.3 1.7.6 2.5.8.7.3 1.4.6 2.1.8 1.2.5 2.2.9 2.8 1.1.3.1.5.2.7.3l.4.4z"/></g><g id="Robot"><path class="st13" d="m101 31.2.6 1.2-28 14.8-.6-1.1c-3.6-6.8-1-15.2 5.8-18.9l3.3-1.8c6.8-3.6 15.3-1 18.9 5.8z"/><path class="st14" d="m101.6 32.4-28 14.9-.6-1.2c-1.7-3.3-2.1-7-1-10.6 1.1-3.6 3.5-6.5 6.8-8.2l3.3-1.8c3.3-1.7 7.1-2.1 10.6-1 3.6 1.1 6.5 3.5 8.2 6.8l.7 1.1zm-28 14.8 27.9-14.8-.6-1.1c-1.7-3.3-4.7-5.7-8.2-6.8-3.6-1.1-7.3-.7-10.6 1l-3.3 1.8C75.5 29 73.1 32 72 35.5c-1.1 3.5-.7 7.3 1 10.6l.6 1.1z"/><path class="st13" d="m117.4 131-.6-1.2 28.5-13.8.6 1.2c3.4 6.9.5 15.3-6.5 18.6l-3.4 1.6c-6.9 3.5-15.3.6-18.6-6.4z"/><path class="st14" d="M146.7 127.3c-.1.2-.1.4-.2.5-1.2 3.5-3.7 6.4-7.1 8l-3.4 1.6c-3.4 1.6-7.2 1.9-10.7.6-3.5-1.2-6.4-3.7-8-7.1l-.6-1.2 28.5-13.8.6 1.2c1.6 3.3 1.9 6.9.9 10.2zm-29.3 3.7c1.6 3.3 4.5 5.9 8 7.1 3.5 1.2 7.3 1 10.6-.6l3.4-1.6c3.3-1.6 5.9-4.5 7.1-8 .1-.2.1-.4.2-.5 1-3.4.7-6.9-.8-10.1l-.6-1.2-28.5 13.8.6 1.1z"/><path transform="rotate(-34.269 95.438 129.603)" class="st13" d="M85.1 128.4h20.7v2.5H85.1z"/><path class="st14" d="M82.6 132.2c2.3-1.6 5.5-1 7.1 1.3s1 5.5-1.3 7.1-5.5 1-7.1-1.3c-1.6-2.4-1-5.5 1.3-7.1z"/><path class="st15" d="m137.8 30.1 31 58.5c4.3 8.1 1.2 18-6.8 22.3l-37 19.6c-8.1 4.3-18 1.2-22.3-6.8l-31-58.5c-4.3-8.1-1.2-18 6.8-22.3l37-19.6c8.1-4.3 18-1.2 22.3 6.8z"/><path class="st13" d="m70.8 63.6-8.7-.4-.7 5.8-6.3-.2.1-1.9h4.6l.9-5.7 9 .2z"/><path class="st14" d="m110.7 49.6 26.8 50.5c3.6 6.8 1 15.3-5.8 18.9l-2.3 1.2c-6.8 3.6-15.3 1-18.9-5.8L83.7 63.9c-3.6-6.8-1-15.3 5.8-18.9l2.3-1.2c6.8-3.6 15.3-1 18.9 5.8z"/><path class="st14" d="M114.9 48.5s-.1-.2-.3-.5c-.2-.3-.5-.8-.9-1.4-.9-1.2-2.4-3-4.8-4.5-1.2-.8-2.6-1.5-4.3-2-1.7-.5-3.6-.8-5.6-.8s-4.2.5-6.3 1.3c-.5.2-1 .5-1.6.8-.5.3-1.1.6-1.6.9-1.1.6-2.2 1.2-3.2 1.9-2.1 1.5-3.9 3.5-5.2 6-1.3 2.5-2.1 5.3-2 8.3 0 1.5.2 3 .6 4.5s1.1 2.9 1.8 4.3c1.5 2.8 3.1 5.8 4.7 8.8 6.4 12 13.4 25.3 20.8 39.1 1.9 3.4 4.8 6.2 8.2 7.7 1.7.8 3.6 1.2 5.4 1.4 1.9.2 3.7 0 5.5-.3.9-.2 1.8-.5 2.6-.8.8-.4 1.6-.7 2.4-1.2 1.6-.9 3.2-1.6 4.6-2.7 2.8-2.1 4.9-5.1 5.9-8.3 1.1-3.2 1.2-6.6.4-9.7-.2-.8-.5-1.5-.7-2.3-.3-.7-.6-1.4-1-2.1-.7-1.4-1.5-2.7-2.2-4.1-2.8-5.4-5.5-10.3-7.9-14.9-4.8-9.1-8.7-16.5-11.4-21.6-1.3-2.5-2.4-4.5-3.1-5.9-.3-.7-.6-1.2-.8-1.5.1-.2 0-.4 0-.4s.1.2.3.5c.2.4.5.9.8 1.5.7 1.4 1.8 3.3 3.2 5.8 2.7 5.1 6.7 12.4 11.5 21.5 2.4 4.5 5.1 9.5 7.9 14.9.7 1.3 1.4 2.7 2.2 4.1.4.7.7 1.4 1 2.2.3.8.6 1.5.7 2.3.8 3.2.7 6.7-.4 9.9-1.1 3.3-3.2 6.3-6.1 8.5-1.4 1.1-3.1 1.9-4.7 2.8-.8.4-1.6.8-2.5 1.2-.9.3-1.8.6-2.7.8-1.8.4-3.7.6-5.7.4-1.9-.2-3.8-.7-5.6-1.5-3.6-1.5-6.6-4.4-8.5-7.9-7.4-13.9-14.4-27.1-20.8-39.2-1.6-3-3.1-5.9-4.7-8.8-.8-1.4-1.4-2.9-1.9-4.4-.4-1.5-.6-3.1-.6-4.6 0-3.1.8-6 2.1-8.5 1.4-2.5 3.2-4.6 5.4-6.1 1.1-.8 2.2-1.4 3.3-1.9.5-.3 1.1-.6 1.6-.8.5-.3 1.1-.5 1.6-.8 2.2-.9 4.4-1.3 6.4-1.3 2.1 0 4 .3 5.7.8 1.7.6 3.1 1.3 4.3 2.1 2.4 1.6 3.9 3.4 4.7 4.6.5.6.7 1.1.9 1.5.5.2.6.4.6.4z"/><path class="st16" d="M130 107.3c0 .1-3.9-.9-8.7-2.2-4.8-1.4-8.6-2.6-8.6-2.7s3.9.9 8.7 2.2 8.6 2.6 8.6 2.7z"/><path class="st16" d="M123.2 96.2c.1 0-.7 4-2 8.8-1.2 4.8-2.3 8.7-2.5 8.7-.1 0 .7-4 2-8.8 1.2-4.9 2.4-8.8 2.5-8.7zM105.5 62.7c0 .1-3.9-.9-8.7-2.2-4.8-1.4-8.6-2.6-8.6-2.7 0-.1 3.9.9 8.7 2.2s8.7 2.5 8.6 2.7z"/><path class="st16" d="M98.8 51.5c.1 0-.7 4-2 8.8-1.2 4.8-2.3 8.7-2.5 8.7-.1 0 .7-4 2-8.8 1.2-4.8 2.3-8.7 2.5-8.7z"/><circle class="st14" cx="51.5" cy="68" r="5.1"/><path class="st14" d="M167.8 86.6s-.3.3-1 .6c-.6.4-1.5.9-2.7 1.6-2.3 1.3-5.4 3-9 4.9-3.5 1.9-6.7 3.6-9 4.8-2.3 1.2-3.8 1.9-3.9 1.8 0 0 .3-.2 1-.6s1.6-.9 2.7-1.5c2.4-1.3 5.5-3 9-4.9s6.7-3.6 9-4.8c1.1-.6 2-1 2.8-1.4.7-.3 1.1-.5 1.1-.5zM138.6 32.5s-.3.3-1 .6c-.6.4-1.5.9-2.7 1.6-2.3 1.3-5.4 3-9 4.9-3.5 1.9-6.7 3.6-9 4.8s-3.8 1.9-3.9 1.8c0 0 .3-.2 1-.6.7-.4 1.6-.9 2.7-1.5 2.4-1.3 5.5-3 9-4.9 3.5-1.9 6.7-3.6 9-4.8 1.1-.6 2-1 2.8-1.4.7-.3 1.1-.5 1.1-.5z"/><path transform="rotate(-28.613 134.048 69.788)" class="st14" d="M131.2 43.7h5.7v52.2h-5.7z"/><path class="st14" d="M149.1 100.7c.6.2.9.8.7 1.4s-.8.9-1.4.7c-.6-.2-.9-.8-.7-1.4.2-.6.8-.9 1.4-.7zM159.9 95.3c.6.2.9.8.7 1.4s-.8.9-1.4.7c-.6-.2-.9-.8-.7-1.4s.9-.9 1.4-.7zM115.5 39.3c.6.2.9.8.7 1.4-.2.6-.8.9-1.4.7s-.9-.8-.7-1.4.8-.9 1.4-.7zM126.4 33.9c.6.2.9.8.7 1.4-.2.6-.8.9-1.4.7s-.9-.8-.7-1.4.8-.9 1.4-.7z"/><path class="st16" d="M140.9 131.8c0 .1-1.1.5-2.6 1.6-.8.6-1.7 1.3-2.8 2s-2.5 1.2-3.9 1.5c-3 .5-5.7-.4-7.4-1.4-.8-.5-1.4-1-1.8-1.4s-.6-.6-.5-.7c.1-.1.9.9 2.5 1.7 1.6.9 4.3 1.7 7.1 1.2 2.9-.4 5-2.2 6.6-3.2 1.5-1 2.7-1.3 2.8-1.3zM76.5 66.9c.1-.1 7 13 15.4 29.2s15 29.4 14.9 29.4c-.1.1-7-13-15.4-29.2S76.3 67 76.5 66.9zM88.6 138.5c.1 0-.2.5-.8 1-.6.5-1.7 1-3 .9s-2.2-.8-2.8-1.4c-.5-.6-.6-1.1-.6-1.1.1 0 .3.4.9.9.5.5 1.4 1 2.5 1.1s2.1-.3 2.7-.7c.7-.4 1-.8 1.1-.7zM54.7 70.2s-.2.5-.9 1.1c-.7.5-1.9 1-3.2.8-1.4-.2-2.3-1.1-2.8-1.8s-.5-1.3-.5-1.3c.1 0 .3.5.8 1.1s1.4 1.3 2.6 1.5c1.2.2 2.3-.2 2.9-.6.7-.4 1.1-.8 1.1-.8zM73.4 36.3c.2 0-.5 1.9-.3 4.2s1.1 4 1 4.1-1.3-1.6-1.5-4.1c-.3-2.4.7-4.3.8-4.2zM163.5 107c.1.1-4.1 2.4-9.2 5s-9.4 4.7-9.4 4.5c-.1-.1 4.1-2.4 9.2-5s9.4-4.7 9.4-4.5z"/><path class="st15" d="M208.4 279h42.8v60.6h-42.8z"/><path class="st14" d="M256.6 344.8h-53.5v-.5c0-3.1 2.6-5.7 5.7-5.7h42.1c3.2 0 5.7 2.6 5.7 5.7v.5z"/><path class="st15" d="M198.2 344.8h65v9.9h-65z"/><path class="st14" d="M251 333c0 .1-9.5.3-21.2.3s-21.2-.1-21.2-.3 9.5-.3 21.2-.3 21.2.1 21.2.3zM251 325.7c0 .1-9.5.3-21.2.3s-21.2-.1-21.2-.3c0-.1 9.5-.3 21.2-.3 11.7.1 21.2.2 21.2.3zM251 318.7c0 .1-9.5.3-21.2.3s-21.2-.1-21.2-.3 9.5-.3 21.2-.3 21.2.1 21.2.3zM251 311.4c0 .1-9.5.3-21.2.3s-21.2-.1-21.2-.3c0-.1 9.5-.3 21.2-.3 11.7.1 21.2.2 21.2.3zM251 304.4c0 .1-9.5.3-21.2.3s-21.2-.1-21.2-.3 9.5-.3 21.2-.3 21.2.1 21.2.3zM251 297.1c0 .1-9.5.3-21.2.3s-21.2-.1-21.2-.3 9.5-.3 21.2-.3c11.7.1 21.2.2 21.2.3zM251 290.1c0 .1-9.5.3-21.2.3s-21.2-.1-21.2-.3 9.5-.3 21.2-.3 21.2.1 21.2.3zM251 282.9c0 .1-9.5.3-21.2.3s-21.2-.1-21.2-.3 9.5-.3 21.2-.3 21.2.1 21.2.3z"/><path d="m208.4 287.4 42.6-1.2v-6.1h-42.9z" class="st17"/><path class="st15" d="M275.5 279h42.8v60.6h-42.8z"/><path class="st14" d="M323.6 344.8h-53.5v-.5c0-3.1 2.6-5.7 5.7-5.7h42.1c3.1 0 5.7 2.6 5.7 5.7v.5z"/><path class="st15" d="M265.2 344.8h65v9.9h-65z"/><path class="st14" d="M318 333c0 .1-9.5.3-21.2.3s-21.2-.1-21.2-.3 9.5-.3 21.2-.3c11.8 0 21.2.1 21.2.3zM318 325.7c0 .1-9.5.3-21.2.3s-21.2-.1-21.2-.3c0-.1 9.5-.3 21.2-.3 11.8.1 21.2.2 21.2.3zM318 318.7c0 .1-9.5.3-21.2.3s-21.2-.1-21.2-.3 9.5-.3 21.2-.3c11.8 0 21.2.1 21.2.3zM318 311.4c0 .1-9.5.3-21.2.3s-21.2-.1-21.2-.3c0-.1 9.5-.3 21.2-.3 11.8.1 21.2.2 21.2.3zM318 304.4c0 .1-9.5.3-21.2.3s-21.2-.1-21.2-.3 9.5-.3 21.2-.3c11.8 0 21.2.1 21.2.3zM318 297.1c0 .1-9.5.3-21.2.3s-21.2-.1-21.2-.3 9.5-.3 21.2-.3c11.8.1 21.2.2 21.2.3zM318 290.1c0 .1-9.5.3-21.2.3s-21.2-.1-21.2-.3 9.5-.3 21.2-.3c11.8 0 21.2.1 21.2.3zM318 282.9c0 .1-9.5.3-21.2.3s-21.2-.1-21.2-.3 9.5-.3 21.2-.3c11.8 0 21.2.1 21.2.3z"/><path d="m275.5 287.4 42.5-1.2v-6.1h-42.9z" class="st17"/><path class="st15" d="m340.8 112.3-2 7.7-17.1-4.3c-1-.2-1.6-1.2-1.3-2.2l1.1-4.2c.2-1 1.2-1.6 2.2-1.3l17.1 4.3z"/><path d="m340.8 112.3-2 7.7-17.1-4.3c-1-.2-1.6-1.2-1.3-2.2l1.1-4.2c.2-1 1.2-1.6 2.2-1.3l17.1 4.3z" class="st17"/><path class="st15" d="m337.7 124.4-2.9 11.7-16-4c-1.6-.4-2.6-2.1-2.2-3.7l1.5-5.8c.4-1.6 2.1-2.6 3.7-2.2l15.9 4z"/><path transform="rotate(-75.83 334.56 121.249)" class="st15" d="M324.4 117.4h20.4v7.7h-20.4z"/><path class="st15" d="M345.7 190.8s31.9-1.3 29.3-31.9c-2-23.5-36.9-23.7-36.9-23.7l8.9-19.5s40.8 3.5 48.8 33.2c9.1 33.5-11.9 60.9-50.1 60.2v-18.3z"/><path transform="rotate(-77.537 340.499 125.137)" class="st14" d="M326.6 118.9h27.7v12.4h-27.7z"/><path class="st13" d="M344.2 137.1c0 .2-2.8-.2-6-1-3.3-.8-5.9-1.5-5.9-1.6s2.7.4 6 1.1c1.6.4 3.1.7 4.2 1 .4.1.9.2 1.3.3.2.2.3.2.4.2zM345.2 132.3c0 .2-2.8-.2-6-1-3.3-.8-5.9-1.5-5.9-1.6s2.7.4 6 1.1c1.6.4 3.1.7 4.2 1 .4.1.9.2 1.3.3.3.1.4.1.4.2zM346.5 127.4c0 .2-2.8-.2-6-1-3.3-.8-5.9-1.5-5.9-1.6s2.7.4 6 1.1c1.6.4 3.1.7 4.2 1 .4.1.9.2 1.3.3.3.1.4.2.4.2zM347.4 122.5c0 .2-2.8-.2-6-1-3.3-.8-5.9-1.5-5.9-1.6s2.7.4 6 1.1c1.6.4 3.1.7 4.2 1 .4.1.9.2 1.3.3.2.2.4.2.4.2zM348.6 118c0 .2-2.8-.2-6-1-3.3-.8-5.9-1.5-5.9-1.6s2.7.4 6 1.1c1.6.4 3.1.7 4.2 1 .4.1.9.2 1.3.3.3.1.4.2.4.2z"/><path class="st14" d="M352.7 209c-.1 0-.3-1-.6-2.7-.3-1.7-.7-4-1-6.6s-.4-5-.5-6.7 0-2.8 0-2.8c.1 0 .2 1 .3 2.7.2 1.7.4 4 .7 6.6.3 2.6.6 4.9.8 6.6.2 1.8.3 2.9.3 2.9zM362.6 207.4c-.1 0-1.4-4.2-2.9-9.5s-2.5-9.6-2.4-9.7c.1 0 1.4 4.2 2.9 9.5 1.4 5.4 2.5 9.7 2.4 9.7zM375.9 202.6c-.1 0-.7-1-1.7-2.7-1.1-1.8-2.4-4-3.9-6.5s-2.8-4.7-3.9-6.5c-1-1.7-1.6-2.7-1.5-2.8.1 0 .8.9 1.8 2.6 1.1 1.6 2.5 3.9 4.1 6.4 1.5 2.5 2.8 4.9 3.8 6.6.9 1.8 1.4 2.9 1.3 2.9zM387.2 193.6c-.1.1-4.1-3-8.9-7s-8.6-7.3-8.5-7.4c.1-.1 4.1 3 8.9 7 4.7 4 8.6 7.3 8.5 7.4zM394.4 181.3c-.1.1-4.8-1.7-10.5-4.1-5.7-2.4-10.4-4.4-10.3-4.6.1-.1 4.8 1.7 10.5 4.1 5.7 2.4 10.4 4.5 10.3 4.6zM397.9 168c0 .1-1.3-.1-3.4-.3-2.2-.3-5-.6-8.1-1s-5.9-.7-8.1-1c-2.1-.3-3.3-.4-3.3-.5s1.3 0 3.4.1c2.1.2 5 .4 8.1.8 3.2.4 6 .8 8.1 1.2 2.1.3 3.3.6 3.3.7zM396.3 154.2c0 .1-1.1.5-3 1-1.9.6-4.5 1.2-7.5 1.9-2.9.6-5.6 1.1-7.6 1.3-2 .3-3.2.3-3.2.3 0-.1 1.2-.3 3.1-.6s4.6-.8 7.5-1.5c2.9-.6 5.6-1.2 7.5-1.7 2-.5 3.2-.8 3.2-.7zM392.3 140.9c.1.1-4.2 2.4-9.6 5.1-5.4 2.7-9.7 4.8-9.8 4.7-.1-.1 4.2-2.4 9.6-5.1 5.3-2.7 9.7-4.8 9.8-4.7zM384 130.1c.1.1-3.5 3.3-8 7.2s-8.2 6.9-8.3 6.8c-.1-.1 3.5-3.3 8-7.2 4.5-3.8 8.2-6.9 8.3-6.8zM370.1 122.2c.1.1-2.1 4-5 8.8s-5.3 8.6-5.5 8.6c-.1-.1 2.1-4 5-8.8 3-4.9 5.4-8.7 5.5-8.6zM357.7 117.2c.1 0-1.2 4.5-3 9.9s-3.3 9.7-3.5 9.7c-.1 0 1.2-4.5 3-9.9s3.3-9.8 3.5-9.7z"/><path d="M372.7 174.5c-2.9 6.4-7.6 9.9-11.6 11.9-4.5 2.3-7.8 3.1-7.8 3.1 6.1 3.3 14.1 1.3 19.4-3.1 5.3-4.4 8.2-11.4 8.3-18.3.1-3.3-.4-6.6-1.7-9.6-1.4-3-3.6-6.1-6.6-7.5 0 0 1.2 2 1.9 5.2.9 4.6 1.1 11.6-1.9 18.3z" class="st17"/><path class="st14" d="M137.8 228.5s.4.4 1 1.1c.6.7 1.5 1.8 2.5 3.2 2 2.8 4.5 6.8 6.6 11.6s3.5 9.3 4.3 12.6c.4 1.7.6 3 .8 4 .1.9.2 1.5.2 1.5s-.2-.5-.4-1.4-.5-2.3-.9-3.9c-.9-3.3-2.3-7.8-4.4-12.5-2.1-4.7-4.6-8.8-6.5-11.6-.9-1.4-1.7-2.5-2.3-3.3-.6-.9-.9-1.3-.9-1.3zM133.6 224.9c.1-.1.6.2 1.1.6.5.4.8.9.7 1s-.6-.2-1.1-.6c-.5-.4-.8-.9-.7-1zM134.6 222c.1-.1.6.5 1.1 1.3s.8 1.5.7 1.6-.6-.5-1.1-1.3c-.6-.8-.9-1.5-.7-1.6z"/><path class="st13" d="M153.1 263.1s0-.3.2-.8c.1-.6.3-1.3.5-2.3.5-2 1.1-4.8 1.9-8.4 1.5-7.1 3.4-17 4.8-28 .7-5.5 1-10.8 2.3-15.5.6-2.3 1.5-4.5 2.7-6.3s2.6-3.3 4-4.5c2.9-2.3 5.8-3.3 7.7-3.8 1-.2 1.8-.3 2.3-.3h.8s-.3.1-.8.1c-.5.1-1.3.2-2.3.4-1.9.5-4.8 1.5-7.5 3.9-1.4 1.1-2.7 2.6-3.9 4.4-1.1 1.8-2 3.9-2.6 6.2-1.2 4.6-1.5 9.9-2.2 15.4-1.4 11-3.3 20.9-4.9 28-.8 3.5-1.5 6.4-2.1 8.4-.3.9-.5 1.7-.6 2.3-.2.5-.3.8-.3.8z"/><path class="st14" d="M154.2 183.8c.1-.1.6 1.7 2.5 3.7s5.4 4.1 9.6 4.7c4.2.6 8.1 0 10.9-.5 1.3-.2 2.4-.4 3.3-.6.8-.1 1.2-.2 1.2-.2s-.4.2-1.2.4-1.9.5-3.3.7c-2.8.5-6.7 1.2-11.1.6-4.4-.6-7.9-2.8-9.8-4.9-1-1.1-1.6-2.1-1.9-2.8-.1-.7-.2-1.1-.2-1.1zM150.4 180.6c.1-.1.6.2 1.1.7s.8 1 .7 1.1-.6-.2-1.1-.7c-.4-.5-.8-1-.7-1.1zM151.6 178.9c.1-.1.6.4 1 1.1.4.7.7 1.3.6 1.4-.1.1-.6-.4-1-1.1-.5-.7-.7-1.4-.6-1.4zM154.7 178.6c.1 0 .2.6.1 1.3-.1.7-.3 1.3-.5 1.2s-.2-.6-.1-1.3c.2-.6.4-1.2.5-1.2z"/><path class="st13" d="M164.1 217.7s0 .6-.1 1.8c-.1 1.1-.3 2.8-.5 4.8-.5 4.1-1.3 9.7-2.6 15.8s-2.7 11.6-3.8 15.6c-.6 2-1.1 3.6-1.4 4.6-.4 1.1-.6 1.7-.6 1.7s.1-.6.4-1.7c.3-1.2.8-2.8 1.3-4.7 1.1-4 2.4-9.4 3.7-15.6 1.2-6.1 2.1-11.7 2.7-15.8.3-2 .5-3.6.7-4.8.1-1.1.2-1.7.2-1.7zM181.9 194.5c0 .1-1.4.1-3.6.7s-5.2 1.9-7.7 4.2c-2.6 2.4-4.1 5.2-4.8 7.4-.8 2.2-.9 3.6-1 3.6v-1c.1-.6.2-1.6.6-2.7.7-2.2 2.2-5.2 4.8-7.6 2.6-2.4 5.7-3.7 8-4.2 1.1-.3 2.1-.4 2.7-.4h1z"/><path class="st13" d="M157.8 262.9v-.8c0-.5.1-1.2.3-2.1.3-1.8.7-4.6 2.4-7.6.8-1.5 2-2.9 2.9-4.6.5-.9.9-1.8 1-2.8.2-1 .2-2.1.1-3.2-.2-2.2-.8-4.5-.3-7 .2-1.2.9-2.4 1.6-3.4.7-1 1.6-2 2.2-3 .7-1 1.1-2.2 1.1-3.4s-.2-2.4-.5-3.6c-.6-2.3-.8-4.7-.6-7 .4-4.5 2.2-8.3 4.4-10.9 2.2-2.6 4.5-4.2 6.1-5 .8-.4 1.5-.7 2-.9s.7-.2.7-.2-.2.1-.7.3c-.4.2-1.1.5-1.9 1-1.6.9-3.9 2.5-6 5.1s-3.8 6.3-4.2 10.7c-.2 2.2 0 4.5.6 6.8.3 1.2.5 2.4.5 3.7s-.5 2.6-1.2 3.7-1.6 2.1-2.3 3c-.7 1-1.3 2-1.5 3.2-.5 2.3.1 4.6.3 6.8.1 1.1.1 2.2-.1 3.3-.2 1.1-.6 2-1.1 2.9-1 1.7-2.2 3.2-3 4.6-1.7 2.9-2.1 5.6-2.5 7.4-.1.9-.3 1.6-.3 2.1.1.6 0 .9 0 .9z"/><path class="st9" d="M183 204.9c0 .1-.9-.1-2.5.3-1.5.4-3.6 1.7-5.2 4.1-1.6 2.4-2.3 5.8-2.7 9.6s-.9 8-1.8 12.3c-1.8 8.7-4.2 16.3-6 21.8-.9 2.8-1.7 5-2.2 6.5-.3.7-.5 1.3-.6 1.8-.1.4-.2.6-.3.6 0 0 0-.2.2-.6.1-.5.3-1.1.5-1.8.5-1.6 1.2-3.8 2-6.5 1.7-5.5 4-13.2 5.8-21.8.9-4.3 1.5-8.5 1.9-12.3s1.2-7.3 2.9-9.7c1.7-2.5 3.8-3.7 5.4-4.1.8-.2 1.4-.2 1.9-.2h.7z"/><path class="st15" d="M146.3 259.3h19.4s-11.7 93.3-76.6 93l.8-18.2s44.1-2.8 56.4-74.8zM82.7 328.8l-.1 8-17.7-.3c-1 0-1.8-.9-1.8-1.9l.1-4.3c0-1 .9-1.8 1.9-1.8l17.6.3z"/><path d="m82.7 328.8-.1 8-17.7-.3c-1 0-1.8-.9-1.8-1.9l.1-4.3c0-1 .9-1.8 1.9-1.8l17.6.3z" class="st17"/><path class="st15" d="m82.5 341.3-.2 12-16.5-.3c-1.7 0-3-1.4-3-3.1l.1-5.9c0-1.7 1.4-3 3.1-3l16.5.3z"/><path transform="scale(.99995) rotate(-88.993 78.643 338.918)" class="st15" d="M68.4 335.1h20.4v7.7H68.4z"/><path transform="matrix(.9999 -.0122 .0122 .9999 -4.16 1.068)" class="st14" d="M79.2 327.6h12.4v27.7H79.2z"/><path class="st13" d="M91.6 352.2c0 .2-2.7.4-6.1.4s-6.1-.1-6.1-.3c0-.1 2.7-.3 6.1-.3h5.6c.4.2.5.2.5.2zM91.6 347.3c0 .2-2.7.4-6.1.4s-6.1-.1-6.1-.3c0-.1 2.7-.3 6.1-.3h5.6c.3.1.5.2.5.2zM91.7 342.2c0 .2-2.7.4-6.1.4s-6.1-.1-6.1-.3c0-.1 2.7-.3 6.1-.3h5.6c.4.2.5.2.5.2zM91.5 337.3c0 .2-2.7.4-6.1.4s-6.1-.1-6.1-.3c0-.1 2.7-.3 6.1-.3H91c.3.2.4.2.5.2zM91.6 332.6c0 .2-2.7.4-6.1.4s-6.1-.1-6.1-.3c0-.1 2.7-.3 6.1-.3h5.6c.4.1.5.2.5.2z"/><path class="st14" d="M98.4 351.3s0 .2.1.5v.6l-.2-.6c-.4-1.2-1.2-4.8-1.9-9.2-.4-2.7-.7-5.1-.9-6.9-.2-1.8-.2-2.9-.1-2.9s.2 1.1.5 2.8c.3 1.8.6 4.2 1 6.9.7 4.3 1.4 8 1.5 9.2h-.2c.2-.2.2-.4.2-.4zM107.6 349.6c-.1 0-1.6-4.2-3.2-9.4s-2.9-9.5-2.7-9.6c.1 0 1.6 4.2 3.2 9.4 1.7 5.2 2.9 9.5 2.7 9.6zM118.5 345c-.1.1-2.3-4-4.8-9.1s-4.4-9.2-4.3-9.3c.1-.1 2.3 4 4.8 9.1 2.5 5 4.4 9.2 4.3 9.3zM128.1 337.8c-.1.1-2.9-3.5-6.2-7.9-3.3-4.5-5.9-8.1-5.8-8.2s2.9 3.5 6.2 7.9c3.4 4.4 6 8.1 5.8 8.2zM136.5 329.8c-.1.1-3.3-3-7.2-6.9-3.9-3.9-6.9-7.1-6.8-7.2s3.3 3 7.2 6.9c3.9 3.9 6.9 7.1 6.8 7.2zM143.5 320.2c0 .1-1-.5-2.5-1.3-1.7-1-3.7-2.2-5.9-3.5s-4.3-2.5-5.9-3.5c-1.5-.9-2.4-1.5-2.4-1.5 0-.1 1 .4 2.6 1.2 1.6.8 3.7 2 6 3.3 2.3 1.4 4.4 2.6 5.8 3.6 1.4 1 2.3 1.7 2.3 1.7zM148.2 310.5c0 .1-1-.4-2.4-1.1-1.5-.7-3.5-1.7-5.8-2.8-2.3-1-4.3-2-5.8-2.6-1.5-.7-2.4-1.1-2.4-1.1 0-.1 1 .2 2.5.8 1.5.6 3.6 1.4 5.9 2.5 2.3 1.1 4.3 2.1 5.7 2.9 1.4.8 2.3 1.3 2.3 1.4zM153.8 301.1c0 .1-1.1-.1-2.8-.5s-4-.9-6.6-1.7c-2.5-.7-4.8-1.5-6.4-2.1-1.6-.6-2.6-1-2.6-1.1s1.1.2 2.7.7c1.7.5 3.9 1.2 6.5 2 2.5.7 4.8 1.4 6.5 1.8 1.7.6 2.7.9 2.7.9zM156.8 291.7c0 .1-4.2-.3-9.2-.9-5.1-.6-9.2-1.3-9.2-1.4s4.2.3 9.2.9c5.1.6 9.2 1.2 9.2 1.4zM159.9 282.4c0 .1-1 0-2.7-.1s-3.9-.3-6.5-.6c-2.5-.3-4.8-.5-6.5-.7s-2.7-.4-2.7-.5 1 0 2.7.1 3.9.3 6.5.6c2.5.3 4.8.5 6.4.7 1.8.3 2.8.4 2.8.5zM162.4 273.5c0 .1-4.3.4-9.6.6s-9.7.2-9.7 0c0-.1 4.3-.4 9.6-.6 5.4-.2 9.7-.2 9.7 0zM163.4 266.1c0 .1-1 .2-2.6.4s-3.9.3-6.4.3-4.8-.1-6.4-.3c-1.6-.2-2.6-.3-2.6-.4s1 0 2.7 0c1.6.1 3.9.1 6.4.1s4.8-.1 6.4-.2c1.5.1 2.5.1 2.5.1z"/><path class="st16" d="M147.1 262v1c0 .6 0 1.6-.1 2.8-.1 2.5-.4 6-1.2 10.4-.8 4.3-2.2 9.5-4.3 14.9-2.2 5.4-5.2 11.2-9.1 16.6-4 5.5-8.4 10.2-12.9 13.9-4.5 3.8-8.9 6.7-12.8 8.8-3.9 2.1-7.2 3.6-9.5 4.4-1.1.5-2.1.7-2.7 1-.3.1-.5.2-.7.2s-.2.1-.2.1.1 0 .2-.1c.2-.1.4-.2.7-.3.6-.3 1.5-.6 2.6-1 2.3-.9 5.5-2.4 9.4-4.6 3.8-2.2 8.2-5.1 12.6-8.9s8.9-8.4 12.8-13.9c3.9-5.5 6.9-11.1 9.1-16.5 2.2-5.4 3.6-10.5 4.4-14.8.8-4.3 1.2-7.9 1.4-10.3.1-1.2.1-2.2.2-2.8v-.7c.1-.1.1-.2.1-.2z"/><path class="st15" d="M236.9 153.3s-10.7-14.5-35.5-12.4c0 0 25.3-19.4 10.4-39.3 0 0 31.9 9.4 32.3-30.4 0 0 5.8 37 35.9 26.5 0 0 2.1 29.4 23 23.9-10.1 9.9-19.9 18.6-17.9 31.3" style="opacity:.14"/><path class="st20" d="M269.6 41.1s-.1.2-.2.6c-.2.5-.5 1-.8 1.8-.4.8-.8 1.7-1.2 2.8-.5 1.1-1 2.3-1.5 3.7s-1.1 2.9-1.7 4.6c-.6 1.7-1.1 3.5-1.7 5.3-1.1 3.8-2.1 8-3 12.5-.8 4.5-1.3 8.8-1.6 12.8-.1 2-.2 3.8-.3 5.6-.1 1.8-.1 3.4 0 4.9 0 1.5.1 2.8.1 4s.1 2.2.2 3c0 .8.1 1.4.1 1.9v.7s-.1-.2-.1-.7c-.1-.5-.1-1.1-.2-1.9s-.2-1.9-.3-3c-.1-1.2-.2-2.5-.2-4s-.1-3.1 0-4.9c0-1.8.1-3.7.2-5.6.3-4 .8-8.3 1.6-12.8s1.9-8.8 3-12.6c.6-1.9 1.1-3.7 1.8-5.4.6-1.7 1.2-3.2 1.7-4.6.5-1.4 1.1-2.6 1.6-3.7s.9-2 1.3-2.8c.4-.7.6-1.3.9-1.7.2-.3.3-.5.3-.5zM198.1 34.2c-.1.1-2.3-2.5-6-4.5s-7.1-2.3-7.1-2.5c0-.1.9-.1 2.2.2 1.4.3 3.2.8 5.1 1.8 1.9 1 3.4 2.2 4.3 3.2 1 1.1 1.5 1.8 1.5 1.8zM205.8 77.8s.2.1.4.4c.3.3.7.7 1.1 1.2 1 1 2.3 2.6 3.9 4.6 1.6 2 3.4 4.4 5.4 7.1 1.9 2.8 3.9 5.9 5.9 9.2 1.9 3.4 3.6 6.6 5.1 9.7 1.4 3 2.6 5.8 3.5 8.2.9 2.4 1.6 4.3 2 5.7.2.6.4 1.1.5 1.6.1.4.2.5.1.6 0 0-.1-.2-.2-.5-.2-.4-.3-.9-.6-1.5-.5-1.3-1.2-3.2-2.2-5.6-.9-2.3-2.2-5.1-3.6-8.1-1.5-3-3.2-6.3-5.1-9.6-1.9-3.3-3.9-6.4-5.8-9.2-1.9-2.7-3.7-5.2-5.3-7.2s-2.9-3.6-3.8-4.7c-.4-.5-.8-.9-1-1.3-.2-.5-.4-.6-.3-.6zM274.5 82.9s-.1.2-.2.5c-.2.3-.4.8-.7 1.3-.3.5-.7 1.2-1.1 2s-.9 1.7-1.3 2.7c-1 2-2 4.4-3 7.2s-1.9 5.8-2.6 9.1c-.7 3.3-1.2 6.5-1.5 9.4s-.4 5.5-.4 7.7v3c0 .9.1 1.6.1 2.2s.1 1 .1 1.4v.5s-.1-.2-.1-.5c0-.4-.1-.9-.2-1.4-.1-.6-.2-1.4-.2-2.3s-.1-1.9-.1-3c-.1-2.2 0-4.9.3-7.8s.7-6.1 1.5-9.4 1.7-6.4 2.7-9.2c1-2.7 2.1-5.2 3.1-7.2.5-1 1-1.9 1.4-2.6.4-.8.8-1.4 1.1-2 .3-.5.6-.9.8-1.2.2-.3.3-.4.3-.4zM294.2 86.8c0 .1-.8.7-2.2 1.9-1.3 1.2-3.1 2.9-4.8 5-1.7 2.1-2.9 4.2-3.8 5.7-.8 1.6-1.3 2.6-1.3 2.5-.1 0 .3-1.1 1-2.7.8-1.6 2-3.8 3.7-5.9s3.5-3.8 4.9-4.9c1.5-1.2 2.4-1.7 2.5-1.6zM210.6 112.3c0-.1 1 .5 2.4 1.5s3.3 2.7 5.2 4.7c1.8 2 3.2 4.1 4.1 5.6.9 1.5 1.3 2.6 1.3 2.6-.1 0-.6-.9-1.6-2.4s-2.4-3.5-4.2-5.5-3.6-3.6-5-4.7c-1.3-1.1-2.2-1.8-2.2-1.8zM205.6 103c-.1.1-2.1-1-4.9-1.7-2.8-.7-5.1-.7-5.1-.9 0-.1 2.4-.4 5.2.4 2.9.7 4.9 2.1 4.8 2.2z"/><path d="M185 71.7c.1-.6.4-1.1.7-1.7l-.9-1.4 1.9-2 1.4.9c.5-.3 1.1-.5 1.6-.7l.3-1.6h2.7l.4 1.6c.6.1 1.1.4 1.7.7l1.4-.9 2 1.9-.9 1.4c.3.5.5 1.1.7 1.6l1.6.3v2.7l-1.6.4c-.1.6-.4 1.1-.7 1.7l.9 1.4-1.9 2-1.3-1c-.5.3-1.1.5-1.6.7l-.3 1.6h-2.7l-.4-1.6c-.6-.1-1.1-.4-1.7-.7l-1.4.9-2-1.9.9-1.4c-.3-.5-.5-1.1-.7-1.6l-1.6-.3V72l1.5-.3zm3.6 1.5c0 1.6 1.4 2.9 3 2.9s2.9-1.4 2.9-3-1.4-2.9-3-2.9c-1.6.1-2.9 1.4-2.9 3z" style="fill-rule:evenodd;clip-rule:evenodd;fill:#797bf2"/><path d="M299.6 145.5c.1-.4.3-.8.5-1.2l-.7-1 1.4-1.4 1 .6c.4-.2.8-.4 1.2-.5l.2-1.2h2l.3 1.2c.4.1.8.3 1.2.5l1-.7 1.4 1.4-.6 1c.2.4.4.8.5 1.2l1.2.2v2l-1.2.3c-.1.4-.3.8-.5 1.2l.7 1-1.4 1.4-1-.6c-.4.2-.8.4-1.2.5l-.2 1.2h-2l-.3-1.2c-.4-.1-.8-.3-1.2-.5l-1 .7-1.4-1.4.6-1c-.2-.4-.4-.8-.5-1.2l-1.2-.2v-2l1.2-.3zm2.6 1.2c0 1.2 1 2.1 2.2 2.1s2.1-1 2.1-2.2-1-2.1-2.2-2.1c-1.1 0-2.1 1-2.1 2.2z" style="fill-rule:evenodd;clip-rule:evenodd;fill:#455a64"/><path transform="rotate(-64.591 279.425 64.809)" class="st9" d="M274.2 62.5h10.4v4.7h-10.4z"/><path class="st14" d="M275 68.5s.5.2 1.2.5c.8.3 1.8.8 3.1 1.4l-.3.1c1.1-2.5 2.7-5.8 4.4-9.4-.1-.3.2.4.1.3h-.1l-.1-.1-.3-.1-.6-.3c-.4-.2-.7-.3-1.1-.5-.7-.3-1.4-.7-2.1-1l.3-.1c-1.3 2.7-2.4 5-3.3 6.6-.4.8-.7 1.4-1 1.9 0 .4-.1.7-.2.7 0 0 .1-.2.3-.7.2-.5.5-1.2.9-2 .7-1.7 1.8-4.1 3.1-6.9l.1-.2.2.1c.7.3 1.4.6 2.1 1 .4.2.7.3 1.1.5l.6.3.3.1.1.1h.1c0-.1.2.7.1.3-1.7 3.7-3.3 7-4.5 9.4l-.1.2-.2-.1c-1.3-.7-2.4-1.2-3.1-1.6-.7-.3-1.1-.5-1.1-.5z"/><path class="st9" d="M283.4 56.1c-2.2-1-4.8-.1-5.8 2.1l7.9 3.7c.9-2.2 0-4.8-2.1-5.8z"/><path class="st14" d="M283.4 56.1s.2 0 .5.2.7.4 1.1.9.8 1.1 1 2c.2.8.1 1.9-.3 2.8l-.1.2-.2-.1c-1.2-.6-2.6-1.2-3.9-1.8-1.4-.7-2.7-1.3-3.9-1.9l-.2-.1.1-.2c.5-1 1.2-1.7 2-2 .8-.4 1.6-.5 2.2-.5s1.1.2 1.4.3c.1.1.3.2.3.2 0 .1-.7-.3-1.8-.3-.6 0-1.3.2-2 .5-.7.4-1.3 1-1.8 1.9l-.1-.3c1.2.6 2.6 1.2 3.9 1.8 1.4.7 2.7 1.3 3.9 1.9l-.3.1c.4-.9.5-1.8.4-2.6s-.5-1.4-.8-1.9c-.8-.8-1.5-1-1.4-1.1z"/><path class="st9" d="M283.5 58.6c.3-1-.1-2.1-.9-2.8"/><path class="st14" d="M282.6 55.8c.1-.1.8.3 1.1 1.2.3.9-.1 1.7-.2 1.6-.1 0 0-.7-.3-1.4-.2-.8-.7-1.3-.6-1.4zM278.6 60.4c.1-.1 1.1.4 2.3.9 1.2.6 2.3.9 2.2 1.1 0 .1-1.2 0-2.4-.6-1.3-.5-2.1-1.3-2.1-1.4zM278.1 61.5c.1-.1 1.1.4 2.3.9 1.2.6 2.3.9 2.2 1.1 0 .1-1.2 0-2.4-.6-1.3-.5-2.2-1.3-2.1-1.4zM277.6 62.6c.1-.1 1.1.4 2.3.9 1.2.6 2.3.9 2.2 1.1 0 .1-1.2 0-2.4-.6-1.3-.5-2.2-1.3-2.1-1.4zM277.1 63.7c.1-.1 1.1.4 2.3.9 1.2.6 2.3.9 2.2 1.1 0 .1-1.2 0-2.4-.6-1.3-.5-2.2-1.3-2.1-1.4zM276.5 64.8c.1-.1 1.1.4 2.3.9 1.2.6 2.3.9 2.2 1.1 0 .1-1.2 0-2.4-.6-1.3-.5-2.1-1.2-2.1-1.4zM276 65.9c.1-.1 1.1.4 2.3.9 1.2.6 2.3.9 2.2 1.1 0 .1-1.2 0-2.4-.6-1.3-.5-2.2-1.2-2.1-1.4zM275.5 67c.1-.1 1.1.4 2.3.9 1.2.6 2.3.9 2.2 1.1 0 .1-1.2 0-2.4-.6-1.3-.5-2.2-1.2-2.1-1.4z"/><path transform="rotate(-24.398 176.987 144.571)" class="st9" d="M171.8 142.2h10.4v4.7h-10.4z"/><path class="st14" d="M182.8 144.6s-.3-.4-.6-1.2c-.4-.7-.9-1.8-1.5-3l.2.1c-2.4 1.2-5.8 2.7-9.5 4.4-.1.3.2-.4.1-.3v.1l.1.1.1.3.3.6c.2.4.3.7.5 1.1l.9 2.1-.3-.1c2.7-1.2 5.1-2.2 6.8-3 .8-.3 1.5-.6 2-.8.6-.3.8-.4.9-.4 0 0-.2.1-.6.4-.5.3-1.2.6-1.9.9-1.7.8-4 1.9-6.8 3.2l-.2.1-.1-.2c-.3-.7-.6-1.4-1-2.1-.2-.4-.3-.7-.5-1.1l-.3-.6-.1-.3-.1-.1v-.1c0 .1.2-.7.1-.3 3.7-1.7 7.1-3.2 9.5-4.2l.2-.1.1.2c.6 1.4 1.1 2.5 1.4 3.2.2.7.3 1.1.3 1.1z"/><path class="st9" d="M168.4 148.7c1 2.2 3.6 3.2 5.8 2.2l-3.6-7.9c-2.2.9-3.2 3.5-2.2 5.7z"/><path class="st14" d="M168.4 148.7s-.1-.1-.3-.4c-.1-.3-.3-.8-.3-1.4 0-.6.1-1.4.5-2.2s1.1-1.5 2.1-2l.2-.1.1.2c.6 1.2 1.2 2.6 1.8 4s1.2 2.7 1.8 4l.1.2-.2.1c-1 .4-2 .5-2.8.3-.9-.2-1.5-.6-2-1s-.7-.8-.9-1.1c-.1-.4-.1-.6-.1-.6.1 0 .3.7 1.2 1.4.5.4 1.1.7 1.9.9.8.2 1.7.1 2.6-.3l-.1.3c-.6-1.2-1.2-2.6-1.8-4s-1.2-2.7-1.8-4l.3.1c-.9.4-1.5 1-1.9 1.7s-.6 1.4-.6 2c-.1 1.2.3 1.9.2 1.9z"/><path class="st9" d="M169.9 146.7c-.9.6-1.3 1.7-1.1 2.7"/><path class="st14" d="M168.8 149.4c-.1.1-.4-.7-.1-1.6.4-.9 1.2-1.2 1.2-1.1.1.1-.4.6-.7 1.3-.3.7-.3 1.4-.4 1.4zM174.8 148.5c-.1 0-.6-1-1.1-2.2-.6-1.2-1.1-2.2-1-2.3s.9.8 1.5 2c.5 1.3.7 2.4.6 2.5zM175.9 147.9c-.1 0-.6-1-1.1-2.2-.6-1.2-1.1-2.2-1-2.3s.9.8 1.5 2c.5 1.4.7 2.5.6 2.5zM177 147.4c-.1 0-.6-1-1.1-2.2-.6-1.2-1.1-2.2-1-2.3s.9.8 1.5 2c.6 1.4.8 2.5.6 2.5zM178.1 146.9c-.1 0-.6-1-1.1-2.2-.6-1.2-1.1-2.2-1-2.3s.9.8 1.5 2c.6 1.4.8 2.5.6 2.5zM179.2 146.4c-.1 0-.6-1-1.1-2.2-.6-1.2-1.1-2.2-1-2.3s.9.8 1.5 2c.6 1.4.8 2.5.6 2.5zM180.4 145.9c-.1 0-.6-1-1.1-2.2-.6-1.2-1.1-2.2-1-2.3s.9.8 1.5 2c.5 1.4.7 2.5.6 2.5zM181.5 145.4c-.1 0-.6-1-1.1-2.2-.6-1.2-1.1-2.2-1-2.3s.9.8 1.5 2c.5 1.4.7 2.5.6 2.5z"/><path class="st15" d="M201.5 22.7s12.1 12 15.1 19.4c2.9 7.1 4.8 13.7 4.8 13.7s3.1-5.5 6.6 0 20.1 71.8 22.8 96.7h10.6s-4.9-41.7-7.3-46.4c-2.3-4.7-4.3-6.2-4.3-6.2s-2.7-17.6-4.7-20.3-4.3-3.9-4.3-3.9-3.5-19.1-8.6-23-9-2-9-2-3.1-20.3-21.7-28z"/><path class="st13" d="M300.7 111.3c0 .2-3.3.7-7 2.4s-6.3 3.9-6.4 3.7c0 0 .5-.7 1.6-1.5s2.7-1.9 4.6-2.7c1.9-.9 3.7-1.4 5.1-1.7 1.2-.2 2.1-.3 2.1-.2zM300.3 109.2c0 .2-3.3 1-7.1 3.1-3.7 2.1-6.3 4.4-6.4 4.3 0 0 .5-.7 1.6-1.6s2.6-2.1 4.5-3.1 3.7-1.8 5.1-2.2c1.4-.4 2.2-.6 2.3-.5z"/><path class="st13" d="M298.2 114.3c0 .2-2.2.2-4.8.9-2.6.7-4.5 1.9-4.6 1.7-.1-.1 1.8-1.5 4.4-2.2 2.8-.7 5-.5 5-.4z"/><path class="st14" d="M274.9 152.5c-1.8-14 2.8-30.4 14-38.3l2.7 2.2s-13.9 8.3-12.9 36.2"/><path class="st13" d="M217.4 132.3c0 .2-2.6.7-5.4 2.4-2.8 1.7-4.4 3.8-4.6 3.7-.1-.1 1.4-2.4 4.3-4.2 2.9-1.7 5.7-2 5.7-1.9zM217.1 131.1c0 .1-2.4 1-5.4 2.1s-5.4 2.1-5.5 2 2.3-1.3 5.3-2.5c3-1.1 5.6-1.7 5.6-1.6z"/><path class="st14" d="m247.9 156-4.8-1.3c.7-2.8.3-6-1.3-8.5-.6-1-1.4-1.9-2.4-2.6-.5 3.2-2.5 6-5.3 7.1-2.1.9-4.6.7-6.6-.4-1.9-1-3.2-2.8-3.6-4.7-.6-3 1-6.3 3.9-8 1.1-.6 2.3-1.1 3.7-1.2-.1-.1-.2-.2-.4-.3-4.2-3.2-10.7-3.4-15.1-.4l-2.8-4.1c6.2-4.2 15-4 20.9.6 1.9 1.5 3.4 3.3 4.3 5.2 3.1 1.2 5.9 3.5 7.6 6.3 2.3 3.5 3 8.1 1.9 12.3zM233 141.2c-1.1 0-2 .2-2.8.7-1 .6-1.7 1.8-1.5 2.8.1.7.8 1.1 1.1 1.3.8.4 1.7.5 2.4.2 1.5-.6 2.5-2.6 2.3-4.6v-.2c-.5-.2-1-.2-1.5-.2z"/><path class="st20" d="M207.3 63.1s.5.2 1.3.7c.9.5 2 1.2 3.5 2.2 1.4 1 3.1 2.3 4.8 3.8s3.6 3.3 5.4 5.3c1.8 2 3.4 4 4.7 5.9s2.4 3.7 3.3 5.2c.9 1.5 1.5 2.8 1.9 3.7.4.9.6 1.4.6 1.4s-.3-.5-.8-1.3c-.4-.9-1.1-2.1-2-3.6s-2-3.2-3.3-5.1c-1.4-1.9-2.9-3.8-4.7-5.8s-3.6-3.7-5.3-5.2-3.3-2.8-4.7-3.8-2.6-1.8-3.4-2.4c-.8-.7-1.3-1-1.3-1z"/><path class="st14" d="M191.3 225h-.8c-5 0-9-4-9-9v-32.6c0-5 4-9 9-9h.8V225zM336.8 225h-.9v-50.5h.9c4.9 0 8.9 4 8.9 8.9v32.8c0 4.9-4 8.8-8.9 8.8z"/><path class="st15" d="M324 274.7H202.8c-7.8 0-14.1-6.3-14.1-14.1v-81.8c0-7.8 6.3-14.1 14.1-14.1H324c7.8 0 14.1 6.3 14.1 14.1v81.8c0 7.7-6.3 14.1-14.1 14.1z"/><path class="st14" d="M282.4 176.4c-18.9 0-34.2 15.3-34.2 34.2h68.5c-.1-18.9-15.4-34.2-34.3-34.2z"/><path class="st9" d="M310 208.9h3.7c.9 0 1.5.1 1.5.1s-.6.1-1.5.1h-8.9 1.5c.9-.1 2.2-.2 3.7-.2zM307.6 198.6c2.6-1.2 4.8-2.1 4.8-2 .1.2-2 1.2-4.6 2.4s-4.8 2.1-4.8 2c-.1-.1 2-1.2 4.6-2.4zM301.2 190.1c1.9-2.2 3.5-3.8 3.7-3.7.1.1-1.3 1.9-3.3 4-1.9 2.1-3.6 3.8-3.7 3.7-.1 0 1.4-1.8 3.3-4zM292 184.7c1-2.7 1.9-4.9 2.1-4.8.2.1-.5 2.3-1.6 5-1 2.7-2 4.8-2.1 4.8-.1-.1.6-2.3 1.6-5zM281.5 182.9c0-2.9.1-5.2.3-5.2.2 0 .3 2.3.3 5.2s-.1 5.2-.3 5.2c-.2 0-.3-2.3-.3-5.2zM271 184.9c-1-2.7-1.7-4.9-1.6-5 .2-.1 1.1 2.1 2.1 4.8s1.7 4.9 1.6 5c-.1 0-1-2.1-2.1-4.8zM262 190.5c-1.9-2.1-3.4-3.9-3.3-4s1.8 1.5 3.7 3.7c1.9 2.2 3.4 4 3.3 4s-1.8-1.6-3.7-3.7zM255.7 199c-2.6-1.2-4.7-2.3-4.6-2.4s2.2.7 4.8 2c2.6 1.2 4.7 2.3 4.6 2.4 0 .1-2.2-.8-4.8-2zM253.5 209.2h-3.7c-.9 0-1.5-.1-1.5-.1s.6-.1 1.5-.1h3.7c1.4 0 2.7.1 3.7.1h1.5-1.5c-.9.1-2.2.1-3.7.1z"/><path class="st14" d="M225.3 182.3c0 2.5-2 4.5-4.5 4.5s-4.5-2-4.5-4.5 2-4.5 4.5-4.5 4.5 2 4.5 4.5z"/><path class="st13" d="M225.3 196.1c0 2.5-2 4.5-4.5 4.5s-4.5-2-4.5-4.5 2-4.5 4.5-4.5c2.5-.1 4.5 1.9 4.5 4.5z"/><path class="st14" d="M311.4 265.2v-12.8c0-8.1-.1-19.8-.1-34.3l.2.2c-24.5 0-57.2 0-93.2.1l.3-.3v47l-.2-.2c27.2 0 50.4.1 66.9.1 8.2 0 14.8.1 19.3.1h6.5c.2.1.3.1.3.1h-6.8c-4.5 0-11 0-19.2.1-16.5 0-39.8.1-67.1.1h-.2v-47.5h.3c35.9 0 68.7 0 93.2.1h.2v.2c0 14.5-.1 26.3-.1 34.4V264.3c-.3.6-.3.9-.3.9zM316.4 281.3H210.3c-3.4 0-6.2-2.8-6.2-6.2v-.6h118.6v.6c0 3.4-2.8 6.2-6.3 6.2z"/><path d="M301.5 224.8c-.2 1.3.7 2.6 1.9 3 1.2.4 2.7-.2 3.4-1.2.7-1.1.7-2.6 0-3.7 0 .8-.2 1.7-.8 2.3-.6.6-1.4 1-2.3.9s-1.6-.8-1.7-1.6" class="st17"/><path class="st9" d="M306.8 223.7c0 1.5-1.2 2.8-2.8 2.8-1.5 0-2.8-1.2-2.8-2.8 0-1.5 1.2-2.8 2.8-2.8 1.6 0 2.8 1.2 2.8 2.8z"/><path class="st14" d="M306.8 223.7s-.1-.2-.2-.6c-.1-.4-.4-1-1-1.4s-1.5-.7-2.4-.3c-.9.3-1.7 1.3-1.6 2.4 0 1.1.8 2.1 1.6 2.4.9.3 1.8.1 2.4-.3.6-.4.9-1 1-1.4.2-.6.2-.8.2-.8s.1.2 0 .7c-.1.4-.3 1.1-1 1.6-.6.5-1.7.9-2.8.5-1.1-.3-2-1.5-2-2.8s.9-2.5 2-2.8c1.1-.4 2.2-.1 2.8.5.7.5.9 1.2 1 1.6.1.4 0 .7 0 .7z"/><path class="st14" d="M305.3 222.5c.1.1-.6.5-1.2 1.1s-.9 1.3-1.1 1.2c-.1 0 0-.9.7-1.6.7-.7 1.6-.8 1.6-.7z"/><path class="st14" d="M305.3 224.5c-.1.1-.6-.4-1.3-.9-.7-.5-1.3-.7-1.3-.8s.8-.1 1.6.4 1.1 1.3 1 1.3z"/><path d="M302.8 259c-.2 1.3.7 2.6 1.9 3 1.2.4 2.7-.2 3.4-1.2.7-1.1.7-2.6 0-3.7 0 .8-.2 1.7-.8 2.3-.6.6-1.4 1-2.3.9-.8-.1-1.6-.8-1.7-1.6" class="st17"/><circle class="st9" cx="305.3" cy="257.9" r="2.8"/><path class="st14" d="M308.1 257.9s-.1-.2-.2-.7c-.1-.4-.4-1-1-1.4s-1.5-.7-2.4-.3c-.9.3-1.7 1.3-1.6 2.4 0 1.1.8 2.1 1.6 2.4.9.3 1.8.1 2.4-.3s.9-1 1-1.4c.2-.5.2-.7.2-.7s.1.2 0 .7c-.1.4-.3 1.1-1 1.6-.6.5-1.7.9-2.8.5-1.1-.3-2-1.5-2-2.8s.9-2.5 2-2.8c1.1-.4 2.2-.1 2.8.5.7.5.9 1.2 1 1.6s0 .7 0 .7z"/><path class="st14" d="M306.6 256.7c.1.1-.6.5-1.2 1.1s-.9 1.3-1.1 1.2c-.1 0 0-.9.7-1.6s1.6-.9 1.6-.7z"/><path class="st14" d="M306.6 258.7c-.1.1-.6-.4-1.3-.9-.7-.5-1.3-.7-1.3-.8 0-.1.8-.1 1.6.4s1.1 1.3 1 1.3z"/><path d="M222.4 224.7c-.2 1.3.7 2.6 1.9 3s2.7-.2 3.4-1.2c.7-1.1.7-2.6 0-3.7 0 .8-.2 1.7-.8 2.3s-1.4 1-2.3.9c-.8-.1-1.6-.8-1.7-1.6" class="st17"/><circle class="st9" cx="225" cy="223.6" r="2.8"/><path class="st14" d="M227.7 223.6s-.1-.2-.2-.7c-.1-.4-.4-1-1-1.4s-1.5-.7-2.4-.3c-.9.3-1.7 1.3-1.6 2.4 0 1.1.8 2.1 1.6 2.4.9.3 1.8.1 2.4-.3.6-.4.9-1 1-1.4.2-.4.2-.7.2-.7s.1.2 0 .7c-.1.4-.3 1.1-1 1.6-.6.5-1.7.9-2.8.5-1.1-.3-2-1.5-2-2.8s.9-2.5 2-2.8c1.1-.4 2.2-.1 2.8.5.7.5.9 1.2 1 1.6.1.5.1.7 0 .7z"/><path class="st14" d="M226.2 222.4c.1.1-.6.5-1.2 1.1-.6.6-.9 1.3-1.1 1.2-.1 0 0-.9.7-1.6.8-.6 1.6-.8 1.6-.7z"/><path class="st14" d="M226.2 224.5c-.1.1-.6-.4-1.3-.9s-1.3-.7-1.3-.8.8-.1 1.6.4 1.2 1.2 1 1.3z"/><path d="M221.8 258.6c-.2 1.3.7 2.6 1.9 3s2.7-.2 3.4-1.2c.7-1.1.7-2.6 0-3.7 0 .8-.2 1.7-.8 2.3-.6.6-1.4 1-2.3.9-.8-.1-1.6-.8-1.7-1.6" class="st17"/><circle class="st9" cx="224.4" cy="257.5" r="2.8"/><path class="st14" d="M227.1 257.5s-.1-.2-.2-.6c-.1-.4-.4-1-1-1.4s-1.5-.7-2.4-.3c-.9.3-1.7 1.3-1.6 2.4 0 1.1.8 2.1 1.6 2.4.9.3 1.8.1 2.4-.3.6-.4.9-1 1-1.4.2-.5.2-.8.2-.8s.1.2 0 .7c-.1.4-.3 1.1-1 1.6-.6.5-1.7.9-2.8.5-1.1-.3-2-1.5-2-2.8s.9-2.5 2-2.8c1.1-.4 2.2-.1 2.8.5.7.5.9 1.2 1 1.6.1.5.1.7 0 .7z"/><path class="st14" d="M225.7 256.3c.1.1-.6.5-1.2 1.1-.6.6-.9 1.3-1.1 1.2-.1 0 0-.9.7-1.6.7-.6 1.5-.8 1.6-.7z"/><path class="st14" d="M225.7 258.4c-.1.1-.6-.4-1.3-.9s-1.3-.7-1.3-.8c0-.1.8-.1 1.6.4s1.1 1.2 1 1.3z"/><path d="M218.3 265.4c10.8 2.4 23.5 2.4 35.1 1.9 5.6-.3 11.8-.6 16.3 2.8 1 .7 2.1 1.7 3.3 1.3 1.7-.6 1.7-3.7 3.5-3.8.9 0 1.6.8 1.9 1.7.3.9.4 1.8.8 2.6.5.8 1.6 1.3 2.3.8 1.1-.9-.2-2.7.3-4.1.4-1.4 2.5-1.5 3.8-1 1.4.6 2.7 1.5 4.2 1.3 1.1-.2 1.9-.9 2.8-1.5 2.6-1.6 5.9-1.7 9-1.8 3.3-.1 6.6-.4 9.9-.4l-93.2.2z" class="st17"/><path class="st14" d="M292.8 230.1s-.2.1-.5.2-.8.2-1.5.5c-1.2.5-2.9 1.4-4.9 2.8-2 1.4-4.1 3.2-6.8 4.9-1.4.8-2.9 1.5-4.6 1.9s-3.5.3-5.3.4c-3.6 0-6.8 1.5-9.6 3s-5.3 2.8-7.3 4.2c-2 1.3-3.4 2.6-4.3 3.6-.9 1-1.4 1.6-1.4 1.5 0 0 .1-.2.3-.5s.5-.7 1-1.2c.9-1 2.3-2.4 4.3-3.7 2-1.4 4.5-2.8 7.2-4.3 1.4-.8 2.9-1.5 4.5-2.1s3.5-.9 5.3-1 3.6 0 5.2-.4 3.1-1.1 4.5-1.8c2.7-1.6 4.9-3.5 6.9-4.8 2-1.4 3.7-2.2 5-2.7.6-.2 1.1-.3 1.5-.4.3-.1.5-.1.5-.1zM269.1 238.1c0 .1-1.1-.1-2.9-.4-1.8-.4-4.2-1.1-6.8-2.1-2.6-1-4.8-2.2-6.3-3.2-1.5-.9-2.4-1.6-2.4-1.7 0-.1 1 .5 2.6 1.4s3.8 2 6.4 3c2.5 1 4.9 1.8 6.7 2.2 1.6.4 2.7.7 2.7.8z"/><path class="st15" d="M284.1 205.4c.8-.4 23.2-7.6 23.2-7.6l-21.5 12-1.7-4.4z"/><path class="st14" d="M281.8 203c-4.2 0-7.6 3.4-7.6 7.6h15.2c0-4.2-3.4-7.6-7.6-7.6zM205.3 274.4c-.1 0-.3-24.4-.3-54.5s.1-54.5.3-54.5c.1 0 .3 24.4.3 54.5s-.1 54.5-.3 54.5zM324.2 274.4c-.1 0-.3-24.4-.3-54.5s.1-54.5.3-54.5c.1 0 .3 24.4.3 54.5s-.2 54.5-.3 54.5z"/><circle class="st14" cx="200.4" cy="179" r="1.2"/><circle class="st14" cx="200.4" cy="200.9" r="1.2"/><circle class="st14" cx="200.4" cy="222.7" r="1.2"/><circle class="st14" cx="200.4" cy="244.6" r="1.2"/><circle class="st14" cx="200.4" cy="266.5" r="1.2"/><circle class="st14" cx="330.3" cy="179" r="1.2"/><circle class="st14" cx="330.3" cy="200.9" r="1.2"/><circle class="st14" cx="330.3" cy="222.7" r="1.2"/><circle class="st14" cx="330.3" cy="244.6" r="1.2"/><circle class="st14" cx="330.3" cy="266.5" r="1.2"/><path class="st13" d="M234.3 152.6h51.1v12h-51.1z"/><path class="st14" d="M238 164.7c-.1 0-.3-2.6-.3-5.8s.1-5.8.3-5.8c.1 0 .3 2.6.3 5.8-.1 3.2-.2 5.8-.3 5.8zM243.2 164.7c-.1 0-.3-2.6-.3-5.8s.1-5.8.3-5.8c.1 0 .3 2.6.3 5.8 0 3.2-.1 5.8-.3 5.8zM248.5 164.7c-.1 0-.3-2.6-.3-5.8s.1-5.8.3-5.8c.1 0 .3 2.6.3 5.8-.1 3.2-.2 5.8-.3 5.8zM253.7 164.7c-.1 0-.3-2.6-.3-5.8s.1-5.8.3-5.8c.1 0 .3 2.6.3 5.8 0 3.2-.1 5.8-.3 5.8zM259 164.7c-.1 0-.3-2.6-.3-5.8s.1-5.8.3-5.8.3 2.6.3 5.8c-.1 3.2-.2 5.8-.3 5.8zM264.2 164.7c-.1 0-.3-2.6-.3-5.8s.1-5.8.3-5.8.3 2.6.3 5.8c0 3.2-.1 5.8-.3 5.8zM269.5 164.7c-.1 0-.3-2.6-.3-5.8s.1-5.8.3-5.8c.1 0 .3 2.6.3 5.8-.1 3.2-.2 5.8-.3 5.8zM274.7 164.7c-.1 0-.3-2.6-.3-5.8s.1-5.8.3-5.8.3 2.6.3 5.8c0 3.2-.1 5.8-.3 5.8zM280 164.7c-.1 0-.3-2.6-.3-5.8s.1-5.8.3-5.8.3 2.6.3 5.8c-.1 3.2-.2 5.8-.3 5.8z"/><path d="M345.7 190.8c1.2 6.3 2.4 12.2 3.6 18.4-1.2.1-3.6 0-3.6 0v-18.4" class="st17"/><path class="st16" d="M192.1 176.4c.1 0 0 18.7-.3 41.7s-.7 41.7-.9 41.7c-.1 0 0-18.7.3-41.7.4-23 .8-41.7.9-41.7zM213.9 262.4c-.1 0-.3-9.3-.3-20.8s.1-20.8.3-20.8c.1 0 .3 9.3.3 20.8-.1 11.5-.2 20.8-.3 20.8zM312.1 168c0 .1-22.9.3-51.2.3s-51.2-.1-51.2-.3c0-.1 22.9-.3 51.2-.3 28.3.1 51.2.2 51.2.3z"/></g><path d="M462.6 355.5c0 .1-95.2.3-212.6.3s-212.6-.1-212.6-.3c0-.1 95.2-.3 212.6-.3s212.6.2 212.6.3z" style="opacity:.1;fill:#263238" id="Floor"/></svg>