<svg version="1.1" id="Layer_1" xmlns="http://www.w3.org/2000/svg" x="0" y="0" viewBox="0 0 500 375.9" style="enable-background:new 0 0 500 375.9" xml:space="preserve"><style>.st0,.st1{opacity:.12;fill:#797bf2}.st1{opacity:7.000000e-02}.st2{fill:#fba17f}.st3{fill:#f47853}.st4{fill:#797bf2}.st5{fill:#fff}.st6{fill:#5b61ce}.st7{fill:#0fd891}.st8{fill:#413657}.st9{fill:#e65143}.st10{fill:#4d53c4}.st11{fill:#a9acf7}.st12{opacity:.3;fill:#797bf2;enable-background:new}.st15{fill:#bbbef2}.st16{fill:#00b37e}.st17{opacity:.5;fill:#fff;enable-background:new}</style><g id="OBJECTS"><path class="st0" d="M147.9 332h223.4c35.1-20.4 58.7-48.4 61.6-75 6.8-62.7-47.1-82.4-130.8-64.8-47.3 9.9-68.4-27.6-77.8-62.1-15.1-55.4-83.2-73.3-122.3-31.9-.6.6-1.1 1.2-1.7 1.8-49 53.8-34.9 176.4 47.6 232z"/><path class="st1" d="m287.8 128.4 1.8-9-8.4-1.7c0-2.2-.4-4.4-1.1-6.6l6.9-4.7-5.1-7.6-6.6 4.5c-2-2-4.3-3.6-6.8-4.6l1.7-8.4-9-1.8-1.7 8.7c-1.8.1-3.7.5-5.5 1.1l-4.7-6.9-7.6 5.1 4.5 6.6c-2 2-3.6 4.3-4.6 6.8l-7.4-1.4-1.8 9 7.6 1.5c.1 2.4.7 4.7 1.6 6.9l-6.6 4.5 5.1 7.6 6.9-4.7c2 1.7 4.3 3 6.7 3.9l-1.7 8.5 9 1.8 1.8-9.2c2-.2 3.9-.7 5.8-1.5l4.5 6.6 7.6-5.1-4.7-6.9c1.2-1.4 2.3-3 3.1-4.7l8.7 1.7zm-22.6-3.6c-3.8 2.6-9.1 1.6-11.7-2.3-2.6-3.8-1.6-9.1 2.3-11.7 3.8-2.6 9.1-1.6 11.7 2.3 2.6 3.9 1.6 9.1-2.3 11.7zM240.4 86.6l.9-4.8-4.5-.9c0-1.2-.2-2.4-.6-3.5l3.7-2.5-2.7-4.1-3.6 2.4c-1.1-1.1-2.3-1.9-3.7-2.5l.9-4.5-4.8-.9-.9 4.6c-1 .1-2 .2-2.9.6l-2.5-3.7-4.1 2.7 2.4 3.6c-1.1 1.1-1.9 2.3-2.5 3.7l-3.9-.8-.9 4.8 4.1.8c.1 1.3.4 2.5.9 3.7l-3.6 2.4 2.7 4.1 3.7-2.5c1.1.9 2.3 1.6 3.6 2.1l-.9 4.5 4.8.9 1-4.9c1.1-.1 2.1-.4 3.1-.8l2.4 3.6 4.1-2.7-2.5-3.7c.7-.8 1.2-1.6 1.6-2.5l4.7.8zm-12.1-1.9c-2.1 1.4-4.9.8-6.2-1.2-1.4-2.1-.8-4.9 1.2-6.2 2.1-1.4 4.9-.8 6.2 1.2 1.4 2 .9 4.8-1.2 6.2zM66.9 148.4l1.3-6.4-6-1.2c0-1.6-.3-3.1-.8-4.7l4.9-3.3-3.6-5.4-4.7 3.2c-1.4-1.4-3.1-2.5-4.8-3.3l1.2-6L48 120l-1.2 6.2c-1.3.1-2.6.3-3.9.8l-3.3-4.9-5.4 3.6 3.2 4.7c-1.4 1.4-2.5 3.1-3.3 4.8l-5.2-1-1.3 6.4 5.4 1.1c.1 1.7.5 3.3 1.1 4.9l-4.7 3.2 3.6 5.4 4.9-3.3c1.4 1.2 3 2.2 4.7 2.8l-1.2 6 6.4 1.3 1.3-6.5c1.4-.2 2.8-.5 4.1-1.1l3.2 4.7 5.4-3.6-3.3-4.9c.9-1 1.6-2.1 2.2-3.3l6.2 1.1zm-16-2.5c-2.7 1.8-6.4 1.1-8.3-1.6-1.8-2.7-1.1-6.4 1.6-8.3 2.7-1.8 6.4-1.1 8.3 1.6 1.8 2.7 1.1 6.4-1.6 8.3zM476 198.4l1.3-6.4-6-1.2c0-1.6-.3-3.1-.8-4.7l4.9-3.3-3.6-5.4-4.7 3.2c-1.4-1.4-3.1-2.5-4.8-3.3l1.2-6-6.4-1.3-1.2 6.2c-1.3.1-2.6.3-3.9.8l-3.3-4.9-5.4 3.6 3.2 4.7c-1.4 1.4-2.5 3.1-3.3 4.8l-5.2-1-1.3 6.4 5.4 1.1c.1 1.7.5 3.3 1.1 4.9l-4.7 3.2 3.6 5.4 4.9-3.3c1.4 1.2 3 2.2 4.7 2.8l-1.2 6 6.4 1.3 1.3-6.5c1.4-.2 2.8-.5 4.1-1.1l3.2 4.7 5.4-3.6-3.3-4.9c.9-1 1.6-2.1 2.2-3.3l6.2 1.1zm-16.1-2.6c-2.7 1.8-6.4 1.1-8.3-1.6-1.8-2.7-1.1-6.4 1.6-8.3 2.7-1.8 6.4-1.1 8.3 1.6 1.9 2.8 1.2 6.5-1.6 8.3z"/><ellipse class="st0" cx="249.5" cy="337.4" rx="215.7" ry="16.8"/><path class="st2" d="M180.9 236.2c0 6.4.1 12.1.3 17.3 1.1 39.9 5.6 53 7.6 74.7 2.3 1 4.5 1.2 6.4 0l1.1-71.6.3-20.4h-15.7z"/><path class="st3" d="M180.9 236.2c0 6.4.1 12.1.3 17.3 1.7-.6 3.5-1 6.1 0 4.3 1.5 5.4 3.1 9.1 3.1l.3-20.4h-15.8z"/><path class="st4" d="M194 328.1s1.4-1.9 2.5-1.8 9.8 6.7 12.7 7.2 2.4 2.7 1.9 3.8c-.5 1.1-23.4.1-23.4.1s-.8-6.8-.1-8.9c.8-2.2 4.1.2 6.4-.4z"/><path class="st5" d="M198.8 332.8h-.3c-.2-.1-.3-.4-.2-.6 0-.1.9-1.6 2.1-2.3 1.6-.8 2.9 0 2.9.1.2.1.2.4.1.6-.1.2-.4.2-.6.1 0 0-.9-.6-2 0-1 .5-1.7 1.9-1.8 1.9 0 .1-.1.1-.2.2z"/><path class="st5" d="M197.6 331.6h-.3c-.2-.1-.3-.4-.2-.6 0-.1.9-1.6 2.1-2.3 1.6-.8 2.9 0 2.9.1.2.1.2.4.1.6-.1.2-.4.2-.6.1 0 0-.9-.6-2 0-1 .5-1.7 1.9-1.7 1.9-.1.1-.2.2-.3.2zM200.5 333.7h-.3c-.2-.1-.3-.4-.2-.6 0-.1.9-1.6 2.1-2.3 1.6-.8 2.9 0 2.9.1.2.1.2.4.1.6-.1.2-.4.2-.6.1 0 0-.9-.6-2 0-1 .5-1.7 1.9-1.7 1.9-.1.1-.2.1-.3.2z"/><path class="st2" d="m158.5 236.2.3 16.7 1.2 75.2 5.7.3c2-21.6 7.2-33.6 8.4-73 .2-5.7.3-12.1.3-19.2h-15.9z"/><path class="st3" d="m158.5 236.2.3 16.7c1.8-.1 4.1 0 6.5.9 3.4 1.2 6.3 1.7 8.7 1.6.2-5.7.3-12.1.3-19.2h-15.8z"/><path class="st4" d="M163.5 327.6s-3-.9-3.8-.8c-.8 0-6.4 6.1-8.3 6.4-3.4.6-3.5 5.8-1.4 6.1 5.9.9 16.1-1.4 16.1-1.4s1.1-6.7.7-8.8c-.5-2.3-1.7-.9-3.3-1.5z"/><path class="st5" d="M158.5 333.2c.1 0 .2 0 .3-.1.2-.1.2-.4.1-.6 0-.1-1-1.6-2.3-2.1-1.6-.7-2.8.3-2.9.3-.2.1-.2.4-.1.6.1.2.4.2.6.1 0 0 .9-.7 2-.2 1 .4 1.9 1.8 1.9 1.8.2.1.3.2.4.2z"/><path class="st5" d="M159.6 332c.1 0 .2 0 .3-.1.2-.1.2-.4.1-.6 0-.1-1-1.6-2.3-2.1-1.6-.7-2.8.3-2.9.3-.2.1-.2.4-.1.6.1.2.4.2.6.1 0 0 .9-.7 2-.2 1 .4 1.9 1.8 1.9 1.8.2.1.3.2.4.2zM156.8 334.2c.1 0 .2 0 .3-.1.2-.1.2-.4.1-.6 0-.1-1-1.6-2.3-2.1-1.6-.7-2.8.3-2.9.3-.2.1-.2.4-.1.6.1.2.4.2.6.1 0 0 .9-.7 2-.2 1 .4 1.9 1.8 1.9 1.8.3.2.3.2.4.2z"/><path class="st6" d="M147.1 246.5s.1.3.3.7c.8 1.4 3.5 4.5 11.1 2.4.2-.1.5-.1.7-.2 1.6-.4 2.9-.4 4-.3 4.4.5 7 3.4 16 .8 8.1-2.3 10.2-.3 14 .9.7.2 1.5.4 2.5.5.4.1.9.1 1.3.1 3.5-.1 6.9-2 9-3.4 1.2-.8 1.9-1.5 1.9-1.5-.2-.7-.3-1.4-.5-2.1-.7-2.9-1.4-6.5-2.1-10.4l-.6-3.6c-.5-2.9-1-6-1.4-9.1v-.1c-.2-1.3-.4-2.5-.6-3.8v-.2c-.6-4-1.1-8-1.6-11.6-.2-1.4-.4-2.7-.5-3.9-.9-6.8-1.4-11.5-1.4-11.5l-21.6.8-21.5-.8s-.3 2.4-.8 6.2c-.2 1.2-.3 2.5-.5 4-.5 3.8-1.1 8.5-1.8 13.3l-.6 3.9c-1.3 9.1-2.9 18.7-4.4 25.5-.4 1.3-.6 2.4-.9 3.4z"/><path class="st4" d="M194.1 196.7c0 1.1.9 2 2 2s2-.9 2-2-.9-2-2-2-2 .9-2 2zM189.1 204.6c0 1.1.9 2 2 2s2-.9 2-2-.9-2-2-2c-1.1-.1-2 .8-2 2zM179.2 200.5c0 1.1.9 2 2 2s2-.9 2-2-.9-2-2-2-2 .9-2 2zM194.8 212.9c0 1.1.9 2 2 2s2-.9 2-2-.9-2-2-2-2 .9-2 2z"/><circle class="st4" cx="184.5" cy="212" r="2"/><path class="st4" d="M199.2 203.7c0 1.1.8 1.9 1.8 2-.2-1.4-.4-2.7-.5-3.9-.8.3-1.3 1-1.3 1.9z"/><circle class="st4" cx="164.3" cy="223.9" r="2"/><path class="st4" d="M163.2 212.9c0 1.1.9 2 2 2s2-.9 2-2-.9-2-2-2-2 .9-2 2zM152.3 217.7c.2.1.5.2.8.2 1.1 0 2-.9 2-2s-.9-2-2-2h-.2c-.2 1.2-.4 2.5-.6 3.8zM161.2 232c0 1.1.9 2 2 2s2-.9 2-2-.9-2-2-2-2 .9-2 2z"/><circle class="st4" cx="154.6" cy="228.8" r="2"/><circle class="st4" cx="172.3" cy="236.2" r="2"/><circle class="st4" cx="174.7" cy="245.2" r="2"/><path class="st7" d="M193.1 250.5v.3c.7.2 1.5.4 2.5.5.4.1.9.1 1.3.1.1-.3.2-.6.2-.9 0-1.1-.9-2-2-2-1.1-.1-2 .9-2 2z"/><path class="st4" d="M159.2 249.3c0 .1 0 .1 0 0 1.6-.3 2.9-.3 4-.2-.1-1-1-1.9-2-1.9-1.1.1-2 1-2 2.1z"/><circle class="st4" cx="154.2" cy="239.2" r="2"/><path class="st4" d="M147.1 246.5s.1.3.3.7h.3c1.1 0 2-.9 2-2s-.8-1.9-1.8-2c-.3 1.2-.5 2.3-.8 3.3z"/><circle class="st7" cx="198.2" cy="225.7" r="2"/><path class="st7" d="M201.5 219.3c0 1 .8 1.9 1.8 2v-.1c-.2-1.3-.4-2.5-.6-3.8-.7.4-1.2 1.1-1.2 1.9zM203.9 232c0 .9.6 1.7 1.4 1.9l-.6-3.6c-.5.5-.8 1.1-.8 1.7zM191.1 232.9c0 1.1.9 2 2 2s2-.9 2-2-.9-2-2-2-2 .9-2 2z"/><path class="st4" d="M180.4 231.3c0 1.1.9 2 2 2s2-.9 2-2-.9-2-2-2-2 .9-2 2zM188 221.3c0 1.1.9 2 2 2s2-.9 2-2-.9-2-2-2-2 .9-2 2zM177.2 219.3c0 1.1.9 2 2 2s2-.9 2-2-.9-2-2-2-2 .9-2 2zM172.3 208.6c0 1.1.9 2 2 2s2-.9 2-2-.9-2-2-2-2 .9-2 2zM154.7 200.4h.4c1.1 0 2-.9 2-2s-.9-2-1.9-2c-.1 1.2-.3 2.6-.5 4zM165.3 200.5c0 1.1.9 2 2 2s2-.9 2-2-.9-2-2-2-2 .9-2 2zM157.8 207.7c0 1.1.9 2 2 2s2-.9 2-2-.9-2-2-2-2 .9-2 2z"/><circle class="st4" cx="172.3" cy="225.7" r="2"/><path class="st7" d="M198.2 239.7c0 1.1.9 2 2 2s2-.9 2-2-.9-2-2-2c-1.1-.1-2 .8-2 2z"/><circle class="st7" cx="186.5" cy="241.2" r="2"/><path class="st7" d="M205.1 246.4c0 .7.3 1.3.8 1.6 1.2-.8 1.9-1.5 1.9-1.5-.2-.7-.3-1.4-.5-2.1h-.2c-1.1-.1-2 .8-2 2z"/><path class="st4" d="M154.7 190.8c11.3 7.4 32.2 6.8 45.3 0-1.3-7.8-2.9-15.6-2.5-26 0-1.1.1-2.3.1-3.4.1-1 .1-1.9.2-2.9 1.1-17.2 4.1-31.4 2.6-33.2-.6-.8-1.7-1.7-3-2.5-.5-.3-1.1-.7-1.6-1.1-1.4-.8-2.9-1.7-4.4-2.5-3.6-1.9-7.3-3.7-9.1-4.9-1.8.8-3.3 1.2-4.8 1.2h-.2c-1.6 0-3-.4-4.8-1.2-1.7 1.1-4.9 2.7-8.2 4.4-2.4 1.3-4.8 2.6-6.7 3.9-1.2.9-2.3 1.7-2.9 2.5-.7.9-.4 4.9.2 10.7.6 5.8 1.5 13.4 2.1 21.8.2 2.3.3 4.7.4 7.1.2 10.5-1.5 18.3-2.7 26.1z"/><path class="st6" d="M162.6 182.7c9.1 0 16.9-4.2 21.9-7.7 5.3-3.8 8.6-7.6 8.6-7.6.2-.2.1-.5-.1-.6-.2-.2-.5-.1-.6.1 0 0-3.2 3.8-8.5 7.5-4.8 3.4-12.4 7.5-21.3 7.5-.2 0-.4.2-.4.4s.2.4.4.4zM172.2 185.8c7.9 0 15.8-4.5 16.2-4.7.2-.1.3-.4.2-.6-.1-.2-.4-.3-.6-.2-.1.1-9.4 5.4-17.6 4.5-.2 0-.5.2-.5.4s.2.5.4.5c.5 0 1.2.1 1.9.1zM179.2 136.6c.2 0 .4-.1.4-.4 0-.2-.1-.5-.3-.5-11.1-2.1-14.5-9.3-14.5-9.4-.1-.2-.4-.3-.6-.2-.2.1-.3.4-.2.6.1.3 3.5 7.7 15.2 9.9-.1 0 0 0 0 0z"/><path class="st2" d="M164.2 118.8c2.2 5 7.4 11.9 14.5 10.7 6.8-1.2 10.3-6.4 12.7-10.2-3.6-1.9-7.3-3.7-9.1-4.9-1.8.8-3.3 1.2-4.8 1.2h-.2c-1.6 0-3-.4-4.8-1.2-1.8 1.1-5 2.7-8.3 4.4z"/><path class="st8" d="M177.2 115.8h.1-.1zM165.9 79.3s-5.3 8.3-4.8 16.9c.6 8.6-.8 18.6 6.9 18.2 7.7-.4 21.5 3.1 25.9-3.6 4.4-6.8-28-31.5-28-31.5z"/><path class="st3" d="M188.5 94.5s2.1-2.8 3.7-.5-.7 9.3-4.5 7.6l.8-7.1z"/><path class="st9" d="M188.6 99.4c.1 0 .3-.1.3-.2.6-2.1 2.8-3 2.8-3 .2-.1.3-.3.2-.4-.1-.2-.3-.3-.4-.2-.1 0-2.5 1-3.2 3.5-.1.1 0 .3.3.3-.1 0-.1 0 0 0z"/><path class="st9" d="M190.8 98.4c.1 0 .1 0 .2-.1.2-.1.2-.3.1-.5 0 0-.4-.6-1.2-1-.2-.1-.4 0-.4.2-.1.2 0 .4.2.4.6.3.9.7.9.7 0 .2.1.3.2.3z"/><path class="st3" d="M166.6 94.5s-2.1-2.8-3.7-.5.7 9.3 4.5 7.6l-.8-7.1z"/><path class="st9" d="M166.6 99.4c-.1 0-.3-.1-.3-.2-.6-2.1-2.8-3-2.8-3-.2-.1-.3-.3-.2-.4.1-.2.3-.3.4-.2.1 0 2.5 1 3.2 3.5 0 .1-.1.3-.3.3z"/><path class="st9" d="M164.3 98.4c-.1 0-.1 0-.2-.1-.2-.1-.2-.3-.1-.5 0 0 .4-.6 1.2-1 .2-.1.4 0 .4.2.1.2 0 .4-.2.4-.6.3-.9.7-.9.7 0 .2-.1.3-.2.3z"/><path class="st2" d="M172.3 107.5v6.9s2.1 3.5 4.8 3.8c2.8.2 5.3-3 5.3-3V108l-10.1-.5z"/><path class="st3" d="M172.3 107.5v3.1c1.9 2.1 5.2 2.8 10.1 2.1V108l-10.1-.5z"/><path class="st2" d="M165 89.7c.1 2.7.4 6 .9 8.7.1.7.3 1.3.4 1.9 1.5 5.1 5.1 13.8 15.3 10.2 4.5-1.6 6.6-6.6 7.5-11.7.6-3.5.7-6.9.7-9.4s-1.4-4.9-3.7-6.1c-6-3.4-12.3-2.1-16.5-.5-2.9 1-4.7 3.9-4.6 6.9z"/><path class="st8" d="M182.1 95.5c0 .7.4 1.3.8 1.3.5 0 .8-.6.8-1.3 0-.7-.4-1.3-.8-1.3s-.8.6-.8 1.3zM171.6 95.5c0 .7.4 1.3.8 1.3.5 0 .8-.6.8-1.3 0-.7-.4-1.3-.8-1.3s-.8.6-.8 1.3zM185 91.6c-.6-.4-1.9-1-3.4-1.4-.4-.1-.8.2-.8.6 0 .3.2.6.5.6 1 .2 3.6.9 4.7 1.7.1-.2 0-.5-.1-.7-.2-.3-.5-.6-.9-.8zM170.5 91.9c.6-.4 1.9-1.2 3.3-1.6.4-.1.8.1.8.5 0 .3-.2.6-.5.7-1 .3-3.5 1.2-4.5 2.1-.1-.2 0-.5.1-.7.1-.4.4-.7.8-1z"/><path class="st3" d="M177.5 101c.3 0 .5 0 .7-.2.2-.1.4-.3.5-.8.1-1.2-.2-5-.2-5.1 0-.2-.2-.3-.4-.3s-.3.2-.3.4c0 0 .3 3.9.2 5 0 .2-.1.3-.2.3-.3.2-1 0-1.3-.1-.2-.1-.4 0-.4.2-.1.2 0 .4.2.4 0 0 .6.2 1.2.2z"/><path class="st5" d="M177.9 103c2.3 0 2.4 3.4.1 3.5h-.6c-2.3-.1-2.1-3.5.1-3.5h.4z"/><path class="st3" d="M177.8 108.5c.8 0 1.5-.4 1.5-.4.2-.1.2-.3.1-.5s-.3-.2-.5-.1c0 0-.6.4-1.2.4-.7 0-1.3-.4-1.3-.4-.2-.1-.4 0-.4.1-.1.2 0 .4.1.4.1.1.9.5 1.7.5z"/><path class="st8" d="M163.7 89.2c.1.3.4.5.8.6 0 .7 0 1.6.1 2.4.4 4.7 1.6 5.6 1.9 4.4.2-.8.2-5.2.1-6.7.9-.1 1.7-.2 1.7-.2l1.1-4.6.4 4.5c1.6.6 5.5-.3 5.5-.3l1.3-4.5.8 4.4c2.5 1.2 5.6.4 5.6.4l.7-4.7 1.6 4.7s5.3 1.9 5.3 0c0-1.1-.8-4.2-1.5-6.6-.7-2.6-2.5-4.8-4.8-6.1-6.5-3.5-13.5-1.6-15.8-.2-5 2.9-4.8 12.5-4.8 12.5z"/><path class="st8" d="M187.6 79.7s4.5 5.2 5.9 14.4 3.4 16-2.2 19.1c-6 3.3-8-2.6-7.1-4.2 1.6-2.6 6.9-8 3.5-22.2-1.1-4.5-.1-7.1-.1-7.1z"/><path class="st5" d="M165 101.7c0 .4.3.8.8.8.4 0 .8-.3.8-.8s-.3-.8-.8-.8c-.5.1-.8.4-.8.8z"/><path class="st2" d="M197.7 158.5c1.1-17.2 4.1-31.4 2.6-33.2-.6-.8-1.7-1.7-3-2.5-1.3 6.2-4.6 24.9.4 35.7zM154.8 135.9c.6 5.8 1.5 13.4 2.1 21.8 4.4-10.8 1.9-28.7.6-35-1.2.9-2.3 1.7-2.9 2.5-.7.9-.4 4.8.2 10.7z"/><path class="st2" d="M154.6 125.2s-9.5 33.9-12.2 39c-3.5 6.5-14.4 27.5-14.4 27.5h7.5s13.7-18.1 15.9-23.9l5.4-15.6-2.2-27zM200.5 125.7s9.3 33.4 12 38.4c3.5 6.5 14.4 26.8 14.4 26.8l-4.5 2.7s-16.7-20.1-18.9-26l-5.4-15.6 2.4-26.3z"/><path class="st6" d="m61.2 266.8 1.6 2.4 1.5-2-13-20.2c0-2.3.3-5.5 1.6-9.4 2.4-7.4 3.6-15.6-1.1-14.1-4.1 1.3-5.2 10.8-3.2 19.4l-5-7.8c-1.1-2.7-2.8-6.5-3.5-11.1-1.6-10.6-5-20.3-9.5-16.5s1.7 20.4 11.6 29.9l2.6 4c-7.1-7-18.8-11.5-22.1-7.8s4.7 5.9 12.4 6.8c5.9.7 9.5 2.4 11.3 3.5l12.3 19c-11.3-11.1-29.7-18.2-35-12.4-5.3 5.8 7.5 9.4 19.7 10.8 9.1 1 15 3.7 17.8 5.5zM444.8 274.1l-1.6 2.4-1.5-2 13-20.2c0-2.3-.3-5.5-1.6-9.4-2.4-7.4-3.6-15.6 1.1-14.1 4.1 1.3 5.2 10.8 3.2 19.4l5-7.8c1.1-2.7 2.8-6.5 3.5-11.1 1.6-10.6 5-20.3 9.5-16.5s-1.7 20.4-11.6 29.9l-2.6 4c7.1-7 18.8-11.5 22.1-7.8 3.3 3.7-4.7 5.9-12.4 6.8-5.9.7-9.5 2.4-11.3 3.5l-12.3 19c11.3-11.1 29.7-18.2 35-12.4 5.3 5.8-7.5 9.4-19.7 10.8-9.1 1-14.9 3.7-17.8 5.5zM107.7 228.8l12.3-1.1c-6.7-.5-23.8-6.1-26.5-20.2-3.4-17.8-9.8-17-20.7-17.9s-13.6 2.4-21.7-10.9-23.5-13.8-23.5-13.8 15.2 13.9 13.6 25.7c-1.7 11.8 8 15.6 15.5 16.4 7.5.8 6.6 10.9 10 17 1.5 2.8 7 5.3 12.6 7.3l28.4-2.5z"/><path class="st4" d="M79.5 213.4c1 5.3 4.7 11.4 9.8 16.4.2.2.4.3.6.5l1.4-.1c-.4-.4-.9-.8-1.2-1.1-4.9-4.7-8.5-10.8-9.5-15.8-1.5-8-8.3-13-21.9-16.1-7.9-1.8-11.1-11-11.2-11.1-.1-.3-.4-.4-.7-.3-.3.1-.4.4-.3.7.1.4 3.5 9.8 11.9 11.7 13.2 2.9 19.7 7.7 21.1 15.2z"/><path class="st4" d="m93.8 226.6 25.5 4.7v-.1c1.2-2.4 2.1-5 2.6-7.6 1.9-8.9 6.2-31.2 1.5-38-5.9-8.5-19.9-14-16-24.6 3.9-10.5 5.2-25.9-11.5-31.5-16.7-5.5-25.2-35-25.2-35s-9.7 20.8 2.7 40.4 6.2 21 .2 36.1c-6 15.2-11.3 23.1 10.1 39.5 5.9 4.4 8.9 10.1 10.1 16.1z"/><path class="st6" d="M93 157.2c-4.9 20.2-2.7 32.5 7 39.8 6.1 4.6 11.8 13.5 14.8 23.1 1 3 1.8 6.7 2.3 10.7l1.6.3c-.4-4.3-1.4-8.2-2.4-11.5-3.2-10.1-8.9-19-15.3-23.9-9.1-6.9-11.1-18.7-6.4-38.3 3-12.6-7.3-23.2-7.7-23.7-.3-.3-.8-.3-1.1 0-.3.3-.3.8 0 1.1 0 .3 10 10.7 7.2 22.4zM353.5 183.4c1.2 13.7-11.2 18.1-7 28 4.2 9.8.9 19.8-8.4 21.4-9.3 1.6-16.2 2.2-16.2 13.6 0 11.4-10.5 21.3-18.6 15.5-2-1.5-4.2-3-6.3-4.6-.6-.4-1.2-.8-1.7-1.3-.1-.1-.3-.2-.4-.3-8.5-6.2-11.1-17.9-5.8-27 2.2-3.7 5.3-6.6 10.1-7 14.8-1.3 4.7-12.8 10.4-21.6 6.5-10.1 17.2-5.8 21.3-13.8 5.6-11.1 21.4-16.6 22.6-2.9z"/><path class="st4" d="m339.8 195-42.7 62.3c-.6-.4-1.2-.8-1.7-1.3l42.7-62.3c.3-.5 1-.6 1.5-.3.4.4.5 1.1.2 1.6z"/><path class="st4" d="M313.7 135.1c7.7 13.5-2.9 24 6.1 32.1s10.4 20 1.5 26c-8.8 6-15.7 10-10.2 21.7 5.4 11.8-.7 26.9-11.8 24.7-2.7-.5-5.7-1.1-8.6-1.7-.8-.2-1.6-.3-2.4-.5-.2 0-.4-.1-.5-.1-11.7-2.4-20-13.2-18.8-25.1.5-4.8 2.4-9.3 7.1-12 14.6-8.4-1.2-15.4.5-27.1 1.9-13.5 15-14.2 15.4-24.3.3-14.1 14-27.2 21.7-13.7z"/><path class="st6" d="m305 153.5-14.4 84.4c-.8-.2-1.6-.3-2.4-.5l14.4-84.3c.1-.7.7-1.1 1.4-1 .7.1 1.1.7 1 1.4z"/><path class="st10" d="M163.1 272.1v-21.7h-45l-8.5 5.5 42.8-64.3h-49.1l-9.3 6h5.1L43 278.8v30.4h73.6v24.3h37.1v6l9.3-6v-24.3h9.6v6l9.3-6v-37.1h-18.8zm-45 0H98.9l10.4-15.7h8.8v15.7z"/><path class="st11" d="M153.8 278.2v-21.7h-45v21.7H89.6l53.5-80.5H94l-60.2 87.2v30.4h73.6v24.3h46.4v-24.3h18.9v-37.1h-18.9z"/><path class="st12" d="M102 290.2c25.6 5.2 48.4 12.6 70.7 17.9v7.1h-18.9v24.3h-46.4v-24.3H33.8v-24.5c10.7-4.5 31.1-8 68.2-.5z"/><path class="st10" d="M254.1 188.4c-10.1 0-19.5 2-27.8 5.8-7 2.7-20.4 12.8-20.4 12.8 1-.1 2.3-.5 3.8-1.1-12.5 12.7-19.9 31.9-19.9 56.7 0 47 26.8 74.2 64.3 74.2 7.7 0 14.9-1.1 21.5-3.3l-4.8 4.3c.3-.1 19.4-7.7 29.7-20.7 11.2-12.7 17.8-31.1 17.8-54.5 0-47-26.7-74.2-64.2-74.2zm0 110.1c-9.3 0-16.2-8.5-16.2-35.9s6.9-35.9 16.2-35.9c9.3 0 16.2 8.5 16.2 35.9s-6.9 35.9-16.2 35.9z"/><path class="st11" d="M244.8 194.4c-37.5 0-64.3 27.2-64.3 74.2 0 17.2 3.6 31.7 10 43.3 11.1 20 30.5 30.9 54.3 30.9 30.9 0 54.5-18.4 61.9-51.2 1.6-7 2.4-14.7 2.4-23-.1-47-26.8-74.2-64.3-74.2zm0 38.3c9.3 0 16.2 8.5 16.2 35.9s-6.9 35.9-16.2 35.9-16.2-8.5-16.2-35.9c-.1-27.3 6.8-35.9 16.2-35.9z"/><path class="st12" d="M283.2 301.6c7.8-3.4 15.6-6.7 23.4-9.9-7.4 32.8-31 51.2-61.9 51.2-23.8 0-43.3-10.9-54.3-30.9 29 5.1 58.2 4.8 92.8-10.4z"/><path class="st10" d="M445 272.1v-21.7h-45l-8.5 5.5 42.8-64.3h-49.1l-9.3 6h5.1l-56 81.2v30.4h73.6v24.3h37.1v6l9.3-6v-24.3h9.6v6l9.3-6v-37.1H445zm-45 0h-19.3l10.4-15.7h8.8v15.7h.1z"/><path class="st11" d="M435.7 278.2v-21.7h-45v21.7h-19.3l6.6-9.9 46.9-70.5h-49.1L315.6 285v30.4h73.6v24.3h46.4v-24.3h18.9v-37.1l-18.8-.1z"/><path class="st12" d="M454.6 278.2v37.1h-18.9v24.3h-46.4v-24.3h-73.6V288c21-8.2 41.9-15.1 62.4-19.8 4.2-1 8.5-1.9 12.6-2.6 15.4-2.9 30.5-4.3 45-4v16.6h18.9z"/><path class="st3" d="M221 194.8s-.7.2-1.7 1.1c-.9.9-.1 2-.1 2l2.2-1.3-.4-1.8z"/><path class="st2" d="M220.2 195.2s2.3 3.2 4 3.6c1.8.4-.6-4.4-.6-4.4s2.9 5.8 4.4 5.4c1.5-.4-1.1-6.1-1.1-6.1s2.6 3.6 3.7 3.4c1.2-.2-.6-4.5-.6-4.5s2.3 2.7 3.2 2.6-.1-3.8-1.3-5.5c-1.2-1.6-3 .4-3 .4s-2.4.2-2.9 1.3c0 0-2.3-.1-3.1.9.1 0-3.4.4-2.7 2.9z"/><path class="st3" d="M135.3 189.8s1.5 0 2.7.4c1.2.5 1.4 1.4 1.4 1.4h-3.6l-.5-1.8z"/><path class="st2" d="M137.1 190.5s-.8 3.8-2.3 4.9c-1.5 1.1-1.2-4.3-1.2-4.3s-.4 6.5-1.9 6.7c-1.6.2-1.4-6.1-1.4-6.1s-.9 4.3-2.1 4.6c-1.2.3-1.2-4.3-1.2-4.3s-1.1 3.4-1.9 3.7c-.9.3-1.4-3.6-.9-5.5s2.9-.8 2.9-.8 2.3-.7 3.1.1c0 0 2.1-1 3.2-.4 0-.1 3.4-1.2 3.7 1.4z"/><path class="st6" d="M59.2 309.8c2.7 8.2 15.3 7.8 8.4 18-2.2 3.3-2 6.8-.8 10.1.2.5.4 1 .7 1.5h33.6c.6-4.4-1.5-9.9-5.8-13.3-7.3-6-4.1-10.8-.3-17.6 3.9-6.8-.9-14.1-9.4-16.6s-4.9-12.7-14.3-19.1-14.2 6.6-9.9 16c3.1 6.9-5.3 11.5-2.2 21z"/><path class="st4" d="M85 339.4h1.8l-15.2-51.7c-.1-.5-.6-.7-1.1-.6s-.7.6-.6 1.1L85 339.4z"/><path class="st4" d="M43 336.4c-.3 1-.4 2-.4 3h45.7c.5-6.4-4.9-14.1-12.9-16.9-11.3-4-9.5-11.1-7.8-20.9s-7.1-16.5-18.3-15.8c-11.2.8-11.3-13.1-25.3-16.7s-14.1 14-5 23.4c6.5 6.8-1.5 16 6.3 26 6.6 8.7 21.5 2.8 17.7 17.9z"/><path class="st6" d="m69 339.4-38.4-52.7c-.4-.5-1.1-.6-1.6-.2s-.6 1.1-.2 1.6l37.4 51.3H69zM340.1 346.2c1.3-4.3 1.8-9.2 6.3-9.6 5.8-.6 13.1-3.5 11.9-12.6-1.3-9 10.4-19.7 10.4-19.7s-11.8.3-18 10.6c-6.2 10.2-8.3 7.7-16.6 8.4-8.4.7-13.3.1-15.9 13.8-.7 3.9-2.9 6.9-5.6 9.2l27.5-.1z"/><path class="st4" d="M327.2 346.2c.8-1.6 1.3-3.2 1.6-4.7 1.1-5.8 6.1-9.4 16.2-11.8 6.5-1.5 9-8.7 9.2-9 .1-.2 0-.4-.2-.5s-.4 0-.5.2c0 .1-2.5 7.1-8.6 8.5-10.5 2.4-15.6 6.2-16.8 12.4-.3 1.5-.9 3.2-1.8 4.8h.9v.1z"/><path class="st4" d="M319.7 346.2c1.3-2.6 3.2-4.9 5.8-7 16.4-12.6 12.4-18.7 7.8-30.3-4.6-11.6-9.4-12.7.1-27.7s2.1-31 2.1-31-6.5 22.7-19.4 27-11.8 16.1-8.8 24.2-7.9 12.2-12.3 18.9c-6.8 10.2-3.3 22.6.5 26h24.2v-.1z"/><path class="st6" d="M301.9 346.2c2.4-7.2 6.6-13.8 11.2-17.2 7.4-5.6 9.1-15.1 5.3-30.6-2.2-9 5.5-17 5.6-17.1.2-.2.2-.6 0-.8-.2-.2-.6-.2-.8 0-.3.3-8.3 8.5-5.9 18.2 3.6 15 2.1 24.1-4.9 29.4-4.9 3.7-9.3 10.5-11.7 18.2h1.2v-.1zM390.6 160.4c-4 11.1-13.4 18.7-13.4 18.7-5.2 2.1-18.9 6.2-23.5 5 .5-3.2.3-5.4 0-9.3 6.4.1 18.2-6.2 18.2-6.2 11.2-18 14-38.8 14-38.8 6.3 7.3 4.7 30.6 4.7 30.6z"/><path class="st2" d="m401.4 322.9-1 8.9s-2.9 1.7-7.5.8l1-10.4 7.5.7z"/><path class="st4" d="M395.1 331.5s-1.5-2.1-2.7-2.1-10.8 7.2-14 7.7-2.7 2.9-2.1 4.1c.5 1.2 25.6.4 25.6.4s.9-7.4.2-9.7c-.8-2.2-4.5.3-7-.4z"/><path class="st5" d="M389.8 336.6h.4c.2-.1.3-.4.2-.6 0-.1-1-1.8-2.3-2.5-1.7-.9-3.1 0-3.2 0-.2.1-.3.4-.1.6.1.2.4.3.6.1 0 0 1-.7 2.2 0 1.1.6 1.9 2.1 1.9 2.1.1.1.1.2.3.3z"/><path class="st5" d="M391.1 335.3h.4c.2-.1.3-.4.2-.6 0-.1-1-1.8-2.3-2.5-1.7-.9-3.1 0-3.2 0-.2.1-.3.4-.1.6.1.2.4.3.6.1 0 0 1-.7 2.2 0 1.1.6 1.9 2.1 1.9 2.1.1.2.2.3.3.3zM387.9 337.5h.4c.2-.1.3-.4.2-.6 0-.1-1-1.8-2.3-2.5-1.7-.9-3.1 0-3.2 0-.2.1-.3.4-.1.6.1.2.4.3.6.1 0 0 1-.7 2.2 0 1.1.6 1.9 2.1 1.9 2.1.1.2.2.3.3.3z"/><path class="st2" d="m439.2 311.3 5.7 6.8s-.8 3.2-4.6 5.9l-6.9-7.8 5.8-4.9z"/><path class="st4" d="M441.1 321.8s-2.5-.4-3.3.5-2.3 12.8-4.1 15.5c-1.9 2.7.2 3.9 1.5 4.4s17.9-18.2 17.9-18.2-4.7-5.8-6.9-6.8c-2.2-1.2-3 3.2-5.1 4.6z"/><path class="st5" d="M441 329.1c.1-.1.2-.2.2-.3.1-.2-.1-.5-.3-.6-.1 0-2-.6-3.4-.1-1.9.6-2.2 2.3-2.2 2.3 0 .2.1.5.4.5.2 0 .5-.1.5-.4 0 0 .2-1.2 1.5-1.6 1.1-.4 2.8.1 2.9.1.2.2.3.2.4.1z"/><path class="st5" d="M441.1 327.3c.1-.1.2-.2.2-.3.1-.2-.1-.5-.3-.6-.1 0-2-.6-3.4-.1-1.9.6-2.2 2.3-2.2 2.3 0 .2.1.5.4.5.2 0 .5-.1.5-.4 0 0 .2-1.2 1.5-1.6 1.1-.4 2.8.1 2.9.1.2.1.3.1.4.1zM440.4 331.1c.1-.1.2-.2.2-.3.1-.2-.1-.5-.3-.6-.1 0-2-.6-3.4-.1-1.9.6-2.2 2.3-2.2 2.3 0 .2.1.5.4.5.2 0 .5-.1.5-.4 0 0 .2-1.2 1.5-1.6 1.1-.4 2.8.1 2.9.1.2.2.3.2.4.1z"/><path d="m406.9 217.1 4.4 47.9s6.6 7.4 11.6 16.5c4.2 7.6 17.2 30.1 17.2 30.1l-5.9 4.5-40.5-39.2-9-60.3 22.2.5z" style="fill:#362e49"/><path class="st8" d="M432.1 316.8c.6 1.5 1.7 2.6 3.1 3.4l7.8-6.6c-.7-1.4-1.6-2.6-2.7-3.6l-8.2 6.8zM436.7 219.1s-10.4 25.6-23.9 45.5c0 0-2 19.4-5.5 29.7-1.5 4.5-4.3 25.5-4.3 25.5h-10.4l2.6-59.6L406 217l30.7 2.1z"/><path d="M391.7 319.5c-.7 1.8-.5 3.5 0 5.3l11.9.3c.5-1.7.7-3.4.5-5.2l-12.4-.4z" style="fill:#554e72"/><path class="st4" d="M437 205.6v1.1c0 6.5 0 11.5-.1 14-6.3 1.7-12.5 2.8-18.8 3.3-.3 0-.6 0-.9.1h-.5c-.3 0-.7 0-1 .1-.4 0-.7 0-1.1.1-4.3.2-8.5.1-12.8-.2-.9-.1-1.7-.2-2.6-.2h-.2c-.2 0-.4-.1-.7-.1h-.4c-5-.6-9.9-1.6-14.9-2.9V214.8c0-3 0-6.7.1-11v-1.1c0-2.8.1-5.8.1-9v-1.1c0-3.2.1-6.6.1-10 0-2.1.1-4.2.1-6.3s.1-4.2.1-6.4v-1.4c.5-19.9 1.3-38.3 2.7-40.3 1-1.4 3.2-3.1 5.8-4.8.3-.2.6-.4 1-.6 1.1-.7 10.1-3.8 11.3-4.4l9.6-.7c.1 0 9.2 3.1 9.3 3.1.4.2.8.5 1.2.7 3.4 2 6.7 4 8.6 5.8.3.3.5.5.7.8.2.2.3.4.4.6.1.2.2.5.3.8 1.2 4.2 1.8 20.7 2.1 38.7 0 1.3 0 2.6.1 3.9v8.5c.4 9 .5 17.8.4 25z"/><path class="st15" d="M409.8 127.3c-4.1 0-7.1-3.8-7.2-3.9-.2-.2-.1-.6.1-.8.2-.2.5-.2.7.1 0 0 2.8 3.5 6.4 3.5s5.8-4 5.8-4c.1-.3.4-.3.7-.2.2.1.3.5.2.7-.2.2-2.6 4.6-6.7 4.6zM392.3 163.4c-.1 0-.2 0-.2-.1-.2-.1-.3-.5-.2-.7l1.8-3.8c.1-.3.4-.4.7-.2.2.1.3.5.2.7l-1.8 3.8c-.2.2-.4.3-.5.3zM388.5 160.3c-.1 0-.1.1-.2.1-.3 0-.5-.2-.5-.5l-.4-4.3c0-.3.2-.6.5-.6s.5.2.5.5l.4 4.3c0 .2-.1.4-.3.5zM398.2 153.7c-.2 0-.5-.2-.5-.5l-.7-4.2c0-.3.1-.6.4-.6s.5.2.6.4l.7 4.2c0 .4-.1.7-.5.7.1 0 0 0 0 0zM414.4 155.3c-.1 0-.2 0-.3-.1-.2-.2-.3-.5-.2-.7l2-3.7c.1-.3.5-.3.7-.2.2.2.3.5.2.7l-2 3.7c-.1.2-.2.3-.4.3zM394.5 138.8c-.1 0-.2 0-.3-.1l-3.4-2.3c-.2-.2-.3-.5-.1-.7.2-.2.5-.3.7-.2l3.4 2.3c.2.2.3.5.1.7-.1.2-.2.3-.4.3zM409.4 173.1c-.1 0-.2 0-.2-.1-.2-.1-.3-.5-.2-.7l1.8-3.8c.1-.3.4-.4.7-.2.2.1.3.5.2.7l-1.8 3.8c-.1.2-.3.3-.5.3zM401.5 141.7c-.2 0-.3-.1-.4-.3-.1-.3-.1-.6.2-.7l3.4-2.3c.2-.2.5-.1.7.2.1.3.1.6-.2.7l-3.4 2.3c-.1.1-.2.1-.3.1zM393.5 125.8c0 .1 0 .2-.1.3-.1.2-.2.3-.4.3-.3 0-.5-.2-.5-.5l-.2-2.5c.3-.2.6-.4 1-.6l.2 3zM388.9 149.2c-.2 0-.3-.1-.4-.3-.1-.3-.1-.6.2-.7l3.4-2.3c.2-.2.5-.1.7.2.1.3.1.6-.2.7l-3.4 2.3c-.1.1-.2.1-.3.1zM416 130.6c-.1 0-.2 0-.3-.1-.2-.2-.3-.5-.1-.7l1.9-3.1c.2-.2.5-.3.7-.2.2.2.3.5.1.7l-1.9 3.1c-.1.2-.3.3-.4.3zM417.7 184.8c-.1 0-.3-.1-.4-.2l-2.8-3.1c-.2-.2-.2-.6 0-.8s.5-.2.7 0l2.8 3.1c.2.2.2.6 0 .8-.1.1-.2.2-.3.2zM407.5 184.1c-.1 0-.3-.1-.4-.2l-2.8-3.1c-.2-.2-.2-.6 0-.8s.5-.2.7 0l2.8 3.1c.2.2.2.6 0 .8 0 .2-.2.2-.3.2z"/><path class="st16" d="M400.2 205v-.4l1.7-3.9c.1-.3.4-.4.7-.3.3.1.4.4.2.7l-1.7 3.9c-.1.3-.4.4-.7.3-.1-.1-.2-.2-.2-.3z"/><path class="st15" d="M429.4 217.7v-.4l1.7-3.9c.1-.3.4-.4.7-.3.3.1.4.4.2.7l-1.7 3.9c-.1.3-.4.4-.7.3-.1-.1-.2-.2-.2-.3zM416.9 224.1c-.3 0-.7 0-1 .1l-.4-2.4c0-.3.1-.6.4-.6s.5.2.6.4l.4 2.5zM420.9 216.8c-.1-.1-.2-.2-.2-.4l-.6-4.2c0-.3.1-.6.4-.6s.5.2.6.4l.6 4.2c0 .3-.1.6-.4.6-.2.1-.3.1-.4 0zM396.6 181.5c-.1 0-.2 0-.3-.1-.2-.1-.3-.5-.2-.7l2-3.7c.1-.3.4-.3.7-.2.2.1.3.5.2.7l-2 3.7c-.1.2-.3.3-.4.3zM402.5 172.3c-.2 0-.4-.1-.4-.3l-1.8-3.8c-.1-.3 0-.6.2-.7.2-.1.6 0 .7.2l1.8 3.8c.1.3 0 .6-.2.7-.2 0-.3.1-.3.1zM386.5 171.7c-.1.1-.1.1-.2.1-.2.1-.4 0-.5-.1l-2.1-1.9v-1.4l2.7 2.4c.3.3.3.7.1.9zM402.4 132c-.2 0-.4-.1-.4-.3l-1.8-3.8c-.1-.3 0-.6.2-.7s.6 0 .7.2l1.8 3.8c.1.3 0 .6-.2.7-.1 0-.2.1-.3.1zM414.2 145.9c-.1 0-.1 0 0 0-.4-.1-.5-.3-.5-.6l.8-4.2c.1-.3.3-.5.6-.4.3.1.5.3.4.6l-.8 4.2c-.1.2-.3.4-.5.4zM407.6 149.6c-.4-.1-.5-.3-.5-.6l.8-4.2c.1-.3.3-.5.6-.4.3.1.5.3.4.6l-.8 4.2c0 .2-.2.4-.5.4zM412.3 135.7c-.2 0-.3-.1-.4-.2l-2.1-3.6c-.1-.3-.1-.6.2-.7.2-.2.5-.1.7.2l2.1 3.6c.1.3.1.6-.2.7h-.3zM392.7 172.9c-.1-.2-.2-.4-.1-.6l1.7-3.9c.1-.3.4-.4.7-.3.3.1.4.4.2.7l-1.7 3.9c-.1.3-.4.4-.7.3 0 0-.1 0-.1-.1zM405.6 161.7c-.2 0-.4-.1-.5-.3l-1.5-4c-.1-.3 0-.6.3-.7.3-.1.6 0 .7.3l1.5 4c.1.3 0 .6-.3.7h-.2z"/><path class="st16" d="M421.6 186.3c-.1 0-.2 0-.2-.1-.2-.1-.3-.5-.2-.7l1.8-3.8c.1-.3.4-.4.7-.2.2.1.3.5.2.7l-1.8 3.8c-.1.2-.3.3-.5.3z"/><path class="st15" d="M395.1 213.7c0 .1 0 .2-.1.2-.1.3-.4.4-.7.2l-3.5-2c-.2-.1-.3-.5-.2-.7.1-.3.4-.4.7-.2l3.5 2c.2.1.3.3.3.5zM385.5 216.2c0 .1 0 .2-.1.2-.1.3-.4.4-.7.2l-1.5-.9v-1.2l2 1.1c.2.2.3.4.3.6zM400.4 220.9l-1.2 2.8c-.2 0-.4-.1-.7-.1h-.4l1.4-3.1c.1-.3.4-.4.7-.3.2.1.3.4.2.7zM428.2 176.6c-.2 0-.5-.2-.5-.5l-.7-4.2c0-.3.1-.6.4-.6s.5.2.6.4l.7 4.2c0 .4-.2.6-.5.7zM428.6 145.5c-.1 0-.2 0-.3-.1-.2-.2-.3-.5-.2-.7l2-3.7c.1-.3.5-.3.7-.2.2.2.3.5.2.7l-2 3.7c-.1.2-.2.3-.4.3zM422 160.4c-.1 0-.2 0-.3-.1l-3.4-2.3c-.2-.2-.3-.5-.1-.7.2-.2.5-.3.7-.2l3.4 2.3c.2.2.3.5.1.7 0 .2-.2.3-.4.3zM386.5 185.5c-.1 0-.2 0-.2-.1-.2-.1-.3-.5-.2-.7l1.8-3.8c.1-.3.4-.4.7-.2.2.1.3.5.2.7l-1.8 3.8c-.1.2-.3.3-.5.3zM427.8 166.2c-.2 0-.3-.1-.4-.3-.1-.3-.1-.6.2-.7l3.4-2.3c.2-.2.5-.1.7.2.1.3.1.6-.2.7l-3.4 2.3c-.2.1-.2.1-.3.1zM419.6 171.6c-.1.1-.3.2-.5.1-.3-.1-.4-.4-.4-.7l1-4.1c.1-.3.3-.5.6-.4.3.1.4.4.4.7l-1 4.1c.1.2 0 .2-.1.3zM433.9 128.1l-.9 1.4c-.1.2-.3.2-.4.2s-.2 0-.3-.1c-.2-.2-.3-.5-.1-.7l1-1.6c.3.3.5.5.7.8zM394.2 198.8c-.1 0-.3-.1-.4-.2l-2.8-3.1c-.2-.2-.2-.6 0-.8s.5-.2.7 0l2.8 3.1c.2.2.2.6 0 .8 0 .2-.2.2-.3.2zM412.6 209.6c-.1 0-.3-.1-.4-.2l-2.8-3.1c-.2-.2-.2-.6 0-.8s.5-.2.7 0l2.8 3.1c.2.2.2.6 0 .8 0 .1-.1.2-.3.2zM417.7 205.3c-.1-.1-.1-.3-.1-.4l.5-4.2c0-.3.3-.5.6-.5s.5.3.4.6l-.5 4.2c0 .3-.3.5-.6.5-.1 0-.2-.1-.3-.2z"/><path class="st16" d="M407.3 217.3c-.1 0-.3-.1-.4-.2l-2.8-3.1c-.2-.2-.2-.6 0-.8s.5-.2.7 0l2.8 3.1c.2.2.2.6 0 .8-.1.1-.2.2-.3.2z"/><path class="st15" d="M437 205.6v1.1l-3.1.3c-.3 0-.5-.2-.5-.5s.2-.6.5-.6l3.1-.3zM400.5 192.3c-.1 0-.3-.1-.4-.2l-2.8-3.1c-.2-.2-.2-.6 0-.8s.5-.2.7 0l2.8 3.1c.2.2.2.6 0 .8-.1.2-.2.2-.3.2z"/><path class="st16" d="M413.8 191c0 .1-.1.3-.2.4l-3.1 2.8c-.2.2-.5.2-.7-.1-.2-.2-.2-.6.1-.8l3.1-2.8c.2-.2.5-.2.7.1 0 .1.1.3.1.4z"/><path class="st15" d="M428.4 206.1c-.1 0-.2 0-.3-.1-.2-.1-.3-.5-.2-.7l2-3.7c.1-.3.4-.3.7-.2.2.1.3.5.2.7l-2 3.7c-.1.2-.3.3-.4.3zM431.8 195.1c-.2 0-.4-.1-.4-.3l-1.8-3.8c-.1-.3 0-.6.2-.7.2-.1.6 0 .7.2l1.8 3.8c.1.3 0 .6-.2.7-.1.1-.2.1-.3.1zM426.4 152c-.2 0-.4-.1-.4-.3l-1.8-3.8c-.1-.3 0-.6.2-.7.2-.1.6 0 .7.2l1.8 3.8c.1.3 0 .6-.2.7-.2.1-.3.1-.3.1zM428.4 136.1c-.1 0-.1 0 0 0-.4-.1-.5-.3-.5-.6l.8-4.2c.1-.3.3-.5.6-.4.3.1.5.3.4.6l-.8 4.2c-.1.2-.3.4-.5.4zM421.8 139.7c-.4-.1-.5-.3-.5-.6l.8-4.2c.1-.3.3-.5.6-.4.3.1.5.3.4.6l-.8 4.2c0 .3-.2.4-.5.4zM424.8 125.1h-.3c-.2-.1-.3-.2-.3-.4l-.8-3.9c.4.2.8.5 1.2.7l.6 2.9c.1.4-.1.7-.4.7z"/><path class="st16" d="M422 195.8c-.1-.2-.2-.4-.1-.6l1.7-3.9c.1-.3.4-.4.7-.3.3.1.4.4.2.7l-1.7 3.9c-.1.3-.4.4-.7.3 0 0 0-.1-.1-.1zM386.6 203l-3.4.6v-1.1l3.2-.6c.3 0 .5.2.6.4.1.4-.1.7-.4.7z"/><path class="st15" d="m385.6 193.2-2.2.4v-1.1l2.1-.4c.3 0 .5.2.6.4 0 .4-.2.6-.5.7z"/><path class="st16" d="M435 184.6c-.2 0-.4-.1-.5-.3l-1.5-4c-.1-.3 0-.6.3-.7.3-.1.6 0 .7.3l1.5 4c.1.3 0 .6-.3.7h-.2zM436.8 172c-.9-3.9-2.1-8.2-3.3-12-.4-1.2-.7-2.3-1.1-3.3v-.1l-.3-.9v-.2c0-.2.1-.3.3-.4.2-.1.5 0 .6.3 1.2 3.3 2.6 8 3.9 12.7-.1 1.4-.1 2.6-.1 3.9z"/><path class="st8" d="M397 91.8s-5.3-1.9-4.8-6c.5-3.5 4.4-1.2 4-4-.3-2.8-1.1-5.3 2.3-6 3-.6 3 1.5 6.9-1.6 4.6-3.7 8.1 4.8 12.2 5.1 6 .4 6.8 4 7.4 6.9s-2.3 6.3-2.3 6.3l-25.7-.7z"/><path class="st3" d="M397.9 97.9s-2.2-3-3.9-.5c-1.7 2.5.7 9.8 4.8 8l-.9-7.5z"/><path class="st9" d="M397.9 103.1c-.2 0-.3-.1-.3-.3-.6-2.3-3-3.2-3-3.2-.2-.1-.3-.3-.2-.4.1-.2.3-.3.4-.2.1 0 2.7 1 3.4 3.6.1.3 0 .5-.3.5z"/><path class="st9" d="M395.5 102c-.1 0-.1 0-.2-.1-.2-.1-.2-.3-.1-.5 0 0 .4-.7 1.3-1 .2-.1.4 0 .5.2s0 .4-.2.5c-.7.3-1 .8-1 .8-.1 0-.2.1-.3.1z"/><path class="st3" d="M421 97.9s2.2-3 3.9-.5c1.7 2.5-.7 9.8-4.8 8l.9-7.5z"/><path class="st9" d="M421 103.1c.2 0 .3-.1.3-.3.6-2.3 3-3.2 3-3.2.2-.1.3-.3.2-.4-.1-.2-.3-.3-.4-.2-.1 0-2.7 1-3.4 3.6 0 .3.1.5.3.5z"/><path class="st9" d="M423.4 102c.1 0 .1 0 .2-.1.2-.1.2-.3.1-.5 0 0-.4-.7-1.3-1-.2-.1-.4 0-.5.2s0 .4.2.5c.7.3 1 .8 1 .8.1 0 .2.1.3.1z"/><path class="st2" d="M415 111.6v7.3s-2.2 3.7-5.1 3.9c-2.9.3-5.5-3.2-5.5-3.2v-7.5l10.6-.5z"/><path class="st3" d="M415 111.6v3.2c-2 2.2-5.5 2.7-10.6 2v-4.7l10.6-.5z"/><path class="st2" d="M422.6 92.9c-.1 2.8-.4 6.4-.9 9.2-.1.7-.3 1.3-.4 1.9-.1.3-.2.7-.3 1.1-1.7 5.4-5.7 13.2-15.7 9.6-4.2-1.5-6.4-5.9-7.5-10.6-.1-.3-.1-.6-.2-.8 0-.2-.1-.4-.1-.5v-.4c-.7-3.6-.8-7.3-.7-9.9.1-2.7 1.5-5.1 3.8-6.4 6.3-3.6 13-2.2 17.4-.6 2.8 1.2 4.8 4.2 4.6 7.4z"/><path class="st8" d="m421.7 102.1-1.5-.1s-.9 1.8-2.2 3.8c-1.3-2.8-7.5-.8-7.5-.8-.4.1-.8.2-1.2.2-.4 0-.8-.1-1.2-.2 0 0-6.3-2-7.6 1-.8-1.2-1.4-2.5-1.7-3.9l-1.5.3v.4c0 .2.1.3.1.5.1.3.1.5.2.8 1.1 4.7 3.3 9.1 7.5 10.6 10 3.6 14-4.2 15.7-9.6.5-1.4.8-2.7.9-3zm-6.6 7.4c-.5.5-1 .9-1.5 1.1-2.8 1.5-3.1 1.3-4.2 1.3-1.1.1-2.7-.3-4.2-1.1-.5-.3-1.2-.8-2-1.5 0 0-1.1-3.9 6-2.9 7.2-1.2 6 2.4 5.9 3.1zM415.2 98.2c0 .8-.4 1.4-.9 1.4s-.9-.6-.9-1.4.4-1.4.9-1.4.9.6.9 1.4zM404.4 98.2c0 .8-.4 1.4-.9 1.4s-.9-.6-.9-1.4.4-1.4.9-1.4.9.6.9 1.4zM418.1 94.2s-3.2-2.3-6.3-1.8l-.1 1.6s4.1.7 5.9 2c.4-.5.6-1.1.5-1.8zM400.4 94.6s3-2.6 6.1-2.5l.3 1.6s-4.1 1.1-5.8 2.6c-.4-.5-.6-1.1-.6-1.7z"/><path class="st3" d="M409.5 104.5c.6 0 1.2-.2 1.2-.3.2-.1.3-.3.2-.4-.1-.2-.3-.3-.4-.2-.3.1-1.1.3-1.4.1-.1 0-.1-.1-.2-.3-.1-1.2.2-5.2.2-5.3 0-.2-.1-.4-.3-.4-.2 0-.4.1-.4.3 0 .2-.3 4.1-.2 5.4 0 .5.3.7.5.8.3.2.5.3.8.3z"/><path class="st5" d="M409.1 107.1c-2.4 0-2.5 3.6-.1 3.7h.6c2.4-.1 2.3-3.7-.1-3.7h-.4z"/><path class="st8" d="M422.6 92.9c-.1 2.8-.4 6.3-.9 9.2l-1.5-.1s.4-2.4.5-3.9c.2-1.6.5-4.5-.9-4.8-1.3-.4-.5-3.7-2.4-5.1-1.8-1.4-6-1.8-8.7-.2-2.7 1.7-5.8-.1-7 .2-1.3.3-2.9 2-2.5 3.6.5 1.6-.9 2.6-1.3 4.3-.3 1.7.7 6.1.7 6.1l-1.5.3c-.7-3.6-.8-7.3-.7-9.9.1-2.7 1.5-5.1 3.8-6.4 6.3-3.6 13-2.2 17.4-.6 3.2 1.1 5.2 4.1 5 7.3z"/><path class="st4" d="m376.5 186.2-6.5 9.9c-.8 1.3-2.5 1.6-3.8.8L341 180.5l-10.4-6.8 9.4-14.5 6.2 4 29.4 19.2c1.3.9 1.7 2.6.9 3.8z"/><path class="st6" d="M346.3 163.3c-.3 4.9-1.5 11.3-5.2 17.2l-10.4-6.8 9.4-14.5 6.2 4.1z"/><path class="st8" d="m418.2 219.9-.5.8c-1.5 2.3-4.5 2.9-6.8 1.4l-40.6-26.4 5.9-9 40.6 26.4c2.2 1.5 2.8 4.6 1.4 6.8zM257.8 116.3c-14.5 22.6-8 52.7 14.5 67.2 22.6 14.5 52.6 8 67.2-14.5 14.5-22.6 8-52.7-14.5-67.2-22.5-14.6-52.6-8.1-67.2 14.5zm75.5 48.6c-12.3 19.1-37.8 24.6-56.9 12.3s-24.6-37.8-12.3-56.9S301.9 95.7 321 108s24.6 37.9 12.3 56.9z"/><path class="st17" d="M332.7 119.4c12.8 18.7 8 44.4-10.7 57.2-1.6 1.1-3.3 2.1-5 2.9-4.4 2.2-9.1 3.5-13.8 4-4.9.5-9.8.2-14.6-1-7.5-1.9-14.4-5.8-19.9-11.7-1.4-1.5-2.8-3.2-4-5-12.8-18.7-8-44.4 10.7-57.2 1.8-1.2 3.6-2.3 5.5-3.2 7.2-3.5 15.2-4.6 22.8-3.7 4.9.6 9.6 2.1 14 4.3 4.2 2.2 8.1 5.1 11.4 8.7 1.3 1.6 2.5 3.1 3.6 4.7z"/><path class="st17" d="m303.8 101.8-15.1 80.7c-7.5-1.9-14.4-5.8-19.9-11.7l12.3-65.4c7.1-3.4 15.1-4.5 22.7-3.6zM329.1 114.9 317 179.5c-4.4 2.2-9.1 3.5-13.8 4l14.5-77.4c4.2 2.2 8.1 5.2 11.4 8.8z"/><path class="st2" d="m402.2 198.9-1.6.6c-1.4.5-2.7 0-3.8-1-.5-.5-1.2-1.3-1.6-1.6-1.1-.7-3.6-1.6-4.4-1.4-.8.2-.1 1.6.6 2s1.8.9 2.6 1.6c.7.7-2.7 3.9-4.3 4.9-1.5 1-4.8 1.1-4.6 2.6.2 1.5 2.5.9 2.5.9s-.2 1.5 2 1.9c0 0 .1 1.3 1.5 1.6 0 0 .4 1.6 1.9 1.5s6.2-.3 12.8-8.4l-3.6-5.2zM337.8 178s3.5-2.3 5.5-2.1c2 .3-2.3 4.2-2.3 4.2s5.1-4.7 6.5-3.7-3.5 5.7-3.5 5.7 4-2.6 5.1-2-2.3 4.3-2.3 4.3 3.4-1.8 4.3-1.4c.9.4-1.6 3.8-3.5 5-1.8 1.2-2.9-1.6-2.9-1.6s-2.3-1.2-2.4-2.4c0 0-2.3-.8-2.8-2.1.1 0-3.3-1.7-1.7-3.9z"/><path class="st6" d="M401.8 198.1s22.9-15.5 30.6-24.1c0 0-.2-11.1-.8-20-.4-5.8-.1-11.5.8-17.2.5-3.2 1.2-6.3 2.1-8.1 0 0 6 2.4 8.2 23.3 1.2 11.4 1.3 20.4 1.2 25.1 0 2.4-1 4.6-2.6 6.3-5 5.3-17.5 16.8-34.6 21.3-.2-.1-4.3-3.9-4.9-6.6z"/><path class="st4" d="M99.6 65.1h-.9c-.2 0-.3-.1-.4-.2s-.1-.3 0-.4l.4-.8c.1-.2.4-.3.6-.2s.3.4.2.6l-.1.1h.1c.2 0 .4.2.4.4.2.3 0 .5-.3.5zM100 63c-.1 0-.2 0-.2-.1-.2-.1-.3-.4-.2-.6l.8-1.4c.1-.2.4-.3.6-.2s.3.4.2.6l-.8 1.4c-.1.2-.3.3-.4.3zm1.6-2.8c-.1 0-.2 0-.2-.1-.2-.1-.3-.4-.2-.6l.8-1.4c.1-.2.4-.3.6-.2s.3.4.2.6l-.8 1.4c-.1.3-.3.3-.4.3zm1.6-2.7c-.1 0-.2 0-.2-.1-.2-.1-.3-.4-.2-.6l.8-1.4c.1-.2.4-.3.6-.2s.3.4.2.6l-.8 1.4c-.1.2-.3.3-.4.3zM105.6 54.7c-.2 0-.3-.1-.4-.2l-.1-.1-.1.1c-.1.2-.4.3-.6.2s-.3-.4-.2-.6l.4-.8c.1-.1.2-.2.4-.2s.3.1.4.2l.6.7c.1.2.1.5-.2.6 0 .1-.1.1-.2.1zM110.4 63c-.2 0-.3-.1-.4-.2l-.8-1.4c-.1-.2-.1-.5.2-.6.2-.1.5-.1.6.2l.8 1.4c.1.2.1.5-.2.6h-.2zm-1.6-2.8c-.2 0-.3-.1-.4-.2l-.8-1.4c-.1-.2-.1-.5.2-.6.2-.1.5-.1.6.2l.8 1.4c.1.2.1.5-.2.6h-.2zm-1.6-2.7c-.2 0-.3-.1-.4-.2l-.8-1.4c-.1-.2-.1-.5.2-.6.2-.1.5-.1.6.2l.8 1.4c.1.2.1.5-.2.6h-.2zM111.7 65.1h-.9c-.2 0-.4-.2-.4-.4s.2-.4.4-.4h.1l-.1-.1c-.1-.2-.1-.5.2-.6.2-.1.5-.1.6.2l.4.8c.1.1.1.3 0 .4 0 .1-.2.1-.3.1zM109.2 65.1h-1.6c-.2 0-.4-.2-.4-.4s.2-.4.4-.4h1.6c.2 0 .4.2.4.4s-.2.4-.4.4zm-3.2 0h-1.6c-.2 0-.4-.2-.4-.4s.2-.4.4-.4h1.6c.2 0 .4.2.4.4s-.2.4-.4.4zm-3.2 0h-1.6c-.2 0-.4-.2-.4-.4s.2-.4.4-.4h1.6c.2 0 .4.2.4.4.1.2-.1.4-.4.4zM127.2 71c-.1 0-.1 0 0 0-.7-.1-1.3-.3-1.9-.5-.2-.1-.3-.4-.2-.6.1-.2.4-.3.6-.2.5.2 1 .4 1.6.5.2 0 .4.3.4.5-.1.1-.3.3-.5.3zm1.8 0c-.2 0-.4-.2-.4-.4s.1-.5.4-.5c.6-.1 1.1-.2 1.6-.5.2-.1.5 0 .6.2s0 .5-.2.6c-.7.3-1.3.5-2 .6zm3.2-1.5c-.1 0-.3-.1-.3-.2-.2-.2-.1-.5 0-.6.4-.4.8-.8 1.1-1.3.1-.2.4-.3.6-.1.2.1.3.4.1.6-.3.5-.8 1-1.3 1.4 0 .2-.1.2-.2.2zm-8.3 0c-.1 0-.2 0-.3-.1-.5-.4-.9-.9-1.3-1.4-.1-.2-.1-.5.1-.6s.5-.1.6.1c.3.5.7.9 1.1 1.3.2.2.2.4 0 .6.1.1 0 .1-.2.1zm10.2-3h-.1c-.2-.1-.4-.3-.3-.6.2-.5.2-1.1.2-1.6 0-.2.2-.4.4-.4s.4.2.4.4c0 .6-.1 1.3-.3 1.9.1.2-.1.3-.3.3zm-12.1 0c-.2 0-.4-.1-.4-.3-.2-.6-.3-1.3-.3-1.9 0-.2.2-.4.4-.4s.4.2.4.4c0 .6.1 1.1.2 1.6.1.2-.1.5-.3.6.1 0 .1 0 0 0zm12.1-3.5c-.2 0-.4-.1-.4-.3-.2-.5-.4-1-.7-1.5-.1-.2-.1-.5.1-.6.2-.1.5-.1.6.1.3.5.6 1.1.8 1.7.1.2-.1.5-.3.6h-.1zM122 63c-.3-.1-.5-.3-.4-.6.2-.6.4-1.2.8-1.7.1-.2.4-.3.6-.1.2.1.3.4.1.6-.3.5-.5 1-.7 1.5 0 .2-.2.3-.4.3zm10.2-3c-.1 0-.2 0-.3-.1-.4-.4-.9-.7-1.4-.9-.2-.1-.3-.4-.2-.6.1-.2.4-.3.6-.2.6.3 1.1.6 1.6 1 .2.2.2.4 0 .6-.1.2-.2.2-.3.2zm-8.3 0c-.1 0-.3-.1-.3-.2-.2-.2-.1-.5 0-.6.5-.4 1-.8 1.6-1 .2-.1.5 0 .6.2s0 .5-.2.6c-.5.2-1 .5-1.4.9 0 .1-.1.1-.3.1zm5.1-1.4c-.1 0-.1 0 0 0-.6-.1-1.2-.1-1.7 0-.2 0-.5-.1-.5-.4 0-.2.1-.5.4-.5.6-.1 1.3-.1 1.9 0 .2 0 .4.3.4.5-.1.2-.3.4-.5.4zM95.5 89.8s-.1 0 0 0c-.7-.1-1.3-.3-1.9-.5-.2-.1-.3-.4-.2-.6.1-.2.4-.3.6-.2.5.2 1 .4 1.6.5.2 0 .4.3.4.5-.1.1-.3.3-.5.3zm1.8 0c-.2 0-.4-.2-.4-.4s.1-.5.4-.5c.6-.1 1.1-.2 1.6-.5.2-.1.5 0 .6.2s0 .5-.2.6c-.7.3-1.3.5-2 .6zm3.2-1.5c-.1 0-.3-.1-.3-.2-.2-.2-.1-.5 0-.6.4-.4.8-.8 1.1-1.3.1-.2.4-.3.6-.1.2.1.3.4.1.6-.3.5-.8 1-1.3 1.4 0 .2-.1.2-.2.2zm-8.2 0c-.1 0-.2 0-.3-.1-.5-.4-.9-.9-1.3-1.4-.1-.2-.1-.5.1-.6s.5-.1.6.1c.3.5.7.9 1.1 1.3.2.2.2.4 0 .6 0 .1-.1.1-.2.1zm10.1-3c-.3-.1-.5-.3-.4-.6.2-.5.2-1.1.2-1.6 0-.2.2-.4.4-.4s.4.2.4.4c0 .6-.1 1.3-.3 1.9.1.2-.1.3-.3.3zm-12 0c-.2 0-.4-.1-.4-.3-.2-.6-.3-1.3-.3-1.9 0-.2.2-.4.4-.4s.4.2.4.4c0 .6.1 1.1.2 1.6.1.2-.1.5-.3.6zm12-3.5c-.2 0-.4-.1-.4-.3-.2-.5-.4-1-.7-1.5-.1-.2-.1-.5.1-.6s.5-.1.6.1c.3.5.6 1.1.8 1.7.1.2-.1.5-.4.6.1 0 0 0 0 0zm-12 0c-.3-.1-.5-.3-.4-.6.2-.6.4-1.2.8-1.7.1-.2.4-.3.6-.1.2.1.3.4.1.6-.3.5-.5 1-.7 1.5-.1.2-.3.3-.4.3zm10.1-3c-.1 0-.2 0-.3-.1-.4-.4-.9-.7-1.4-.9-.2-.1-.3-.4-.2-.6.1-.2.4-.3.6-.2.6.3 1.1.6 1.6 1 .2.2.2.4 0 .6-.1.2-.2.2-.3.2zm-8.2 0c-.1 0-.3-.1-.3-.2-.2-.2-.1-.5 0-.6.5-.4 1-.8 1.6-1 .2-.1.5 0 .6.2s0 .5-.2.6c-.5.2-1 .5-1.4.9-.1.1-.2.1-.3.1zm5-1.4s-.1 0 0 0c-.6-.1-1.2-.1-1.7 0-.2 0-.5-.1-.5-.4 0-.2.1-.5.4-.5.6-.1 1.3-.1 1.9 0 .2 0 .4.3.4.5-.1.2-.3.4-.5.4zM475.4 152.7h.9c.2 0 .3-.1.4-.2.1-.1.1-.3 0-.4l-.4-.8c-.1-.2-.4-.3-.6-.2s-.3.4-.2.6l.1.1h-.1c-.2 0-.4.2-.4.4-.1.3.1.5.3.5zM474.7 150.4l-.8-1.4c-.1-.2-.1-.5.2-.6.2-.1.5-.1.6.2l.8 1.4c.1.2.1.5-.2.6-.1 0-.1.1-.2.1-.2-.1-.3-.2-.4-.3zm-1.6-2.8-.8-1.4c-.1-.2-.1-.5.2-.6.2-.1.5-.1.6.2l.8 1.4c.1.2.1.5-.2.6-.1 0-.1.1-.2.1-.2-.1-.3-.2-.4-.3zm-1.6-2.8-.8-1.4c-.1-.2-.1-.5.2-.6.2-.1.5-.1.6.2l.8 1.4c.1.2.1.5-.2.6-.1 0-.1.1-.2.1-.2 0-.3-.1-.4-.3zM469.4 142.3c.2 0 .3-.1.4-.2l.1-.1.1.1c.1.2.4.3.6.2s.3-.4.2-.6l-.4-.8c-.1-.1-.2-.2-.4-.2s-.3.1-.4.2l-.4.8c-.1.2-.1.5.2.6-.2 0-.1 0 0 0zM464.4 150.5c-.2-.1-.3-.4-.2-.6l.8-1.4c.1-.2.4-.3.6-.2s.3.4.2.6l-.8 1.4c-.1.1-.2.2-.4.2-.1.1-.1.1-.2 0zm1.6-2.7c-.2-.1-.3-.4-.2-.6l.8-1.4c.1-.2.4-.3.6-.2s.3.4.2.6l-.8 1.4c-.1.1-.2.2-.4.2h-.2zm1.6-2.8c-.2-.1-.3-.4-.2-.6l.8-1.4c.1-.2.4-.3.6-.2s.3.4.2.6l-.8 1.4c-.1.1-.2.2-.4.2-.1.1-.1 0-.2 0zM463.4 152.7h.9c.2 0 .4-.2.4-.4s-.2-.4-.4-.4h-.1l.1-.1c.1-.2.1-.5-.2-.6-.2-.1-.5-.1-.6.2l-.4.8c-.1.1-.1.3 0 .4 0 .1.1.1.3.1zM465.4 152.3c0-.2.2-.4.4-.4h1.6c.2 0 .4.2.4.4s-.2.4-.4.4h-1.6c-.2 0-.4-.2-.4-.4zm3.2 0c0-.2.2-.4.4-.4h1.6c.2 0 .4.2.4.4s-.2.4-.4.4H469c-.2 0-.4-.2-.4-.4zm3.2 0c0-.2.2-.4.4-.4h1.6c.2 0 .4.2.4.4s-.2.4-.4.4h-1.6c-.2 0-.4-.2-.4-.4zM457.9 120.2h.9c.2 0 .3-.1.4-.2s.1-.3 0-.4l-.4-.8c-.1-.2-.4-.3-.6-.2-.2.1-.3.4-.2.6l.1.1h-.1c-.2 0-.4.2-.4.4-.1.3.1.5.3.5zM457.2 117.8l-.8-1.4c-.1-.2-.1-.5.2-.6.2-.1.5-.1.6.2l.8 1.4c.1.2.1.5-.2.6-.1 0-.1.1-.2.1-.2-.1-.3-.2-.4-.3zm-1.6-2.8-.8-1.4c-.1-.2-.1-.5.2-.6.2-.1.5-.1.6.2l.8 1.4c.1.2.1.5-.2.6-.1 0-.1.1-.2.1-.2 0-.3-.1-.4-.3zm-1.6-2.7-.8-1.4c-.1-.2-.1-.5.2-.6.2-.1.5-.1.6.2l.8 1.4c.1.2.1.5-.2.6-.1 0-.1.1-.2.1-.1-.1-.3-.2-.4-.3zM451.9 109.7c.2 0 .3-.1.4-.2l.1-.1.1.1c.1.2.4.3.6.2.2-.1.3-.4.2-.6l-.4-.8c-.1-.1-.2-.2-.4-.2s-.3.1-.4.2l-.4.8c-.1.2-.1.5.2.6-.1 0-.1 0 0 0zM446.9 118c-.2-.1-.3-.4-.2-.6l.8-1.4c.1-.2.4-.3.6-.2.2.1.3.4.2.6l-.8 1.4c-.1.1-.2.2-.4.2h-.2zm1.6-2.8c-.2-.1-.3-.4-.2-.6l.8-1.4c.1-.2.4-.3.6-.2.2.1.3.4.2.6l-.8 1.4c-.1.1-.2.2-.4.2 0 .1-.1 0-.2 0zm1.6-2.8c-.2-.1-.3-.4-.2-.6l.8-1.4c.1-.2.4-.3.6-.2.2.1.3.4.2.6l-.8 1.4c-.1.1-.2.2-.4.2-.1.1-.1.1-.2 0zM445.9 120.2h.9c.2 0 .4-.2.4-.4s-.2-.4-.4-.4h-.1l.1-.1c.1-.2.1-.5-.2-.6-.2-.1-.5-.1-.6.2l-.4.8c-.1.1-.1.3 0 .4 0 0 .1.1.3.1zM447.9 119.7c0-.2.2-.4.4-.4h1.6c.2 0 .4.2.4.4s-.2.4-.4.4h-1.6c-.2.1-.4-.1-.4-.4zm3.2 0c0-.2.2-.4.4-.4h1.6c.2 0 .4.2.4.4s-.2.4-.4.4h-1.6c-.2.1-.4-.1-.4-.4zm3.2 0c0-.2.2-.4.4-.4h1.6c.2 0 .4.2.4.4s-.2.4-.4.4h-1.6c-.2.1-.4-.1-.4-.4zM452.8 143.8c0-.2.1-.5.4-.5.6-.1 1.1-.2 1.6-.5.2-.1.5 0 .6.2s0 .5-.2.6c-.6.3-1.2.4-1.8.5h-.1c-.3.1-.5 0-.5-.3zm-1.4.4c-.6-.1-1.3-.3-1.8-.5-.2-.1-.3-.4-.2-.6.1-.2.4-.3.6-.2.5.2 1 .4 1.6.5.2 0 .4.3.4.5-.1.2-.3.3-.6.3zm-3.4-1.6c-.5-.4-.9-.9-1.3-1.4-.1-.2-.1-.5.1-.6s.5-.1.6.1c.3.5.7.9 1.1 1.3.2.2.2.4 0 .6-.1.1-.2.2-.3.2-.1-.1-.2-.1-.2-.2zm8.1 0c-.2-.2-.1-.5 0-.6.4-.4.8-.8 1.1-1.3.1-.2.4-.3.6-.1.2.1.3.4.1.6-.3.5-.8 1-1.3 1.4-.1.1-.2.1-.3.1.1 0-.1 0-.2-.1zm-10.2-3.2c-.2-.6-.3-1.3-.3-1.9 0-.2.2-.4.4-.4s.4.2.4.4c0 .6.1 1.1.2 1.6.1.2-.1.5-.3.6h-.1c-.1.1-.2-.1-.3-.3zm12.4.4c-.2-.1-.4-.3-.3-.6.2-.5.2-1.1.2-1.6 0-.2.2-.4.4-.4s.4.2.4.4c0 .6-.1 1.3-.3 1.9-.1.2-.2.3-.4.3zm-12.1-3.6c-.2-.1-.4-.3-.3-.6.2-.6.4-1.2.8-1.7.1-.2.4-.3.6-.1.2.1.3.4.1.6-.3.5-.5 1-.7 1.5-.1.2-.2.3-.4.3h-.1zm11.8-.3c-.2-.5-.4-1-.7-1.5-.1-.2-.1-.5.1-.6s.5-.1.6.1c.3.5.6 1.1.8 1.7.1.2-.1.5-.3.6h-.1c-.2 0-.4-.1-.4-.3zm-10.1-2.8c-.2-.2-.1-.5 0-.6.5-.4 1-.8 1.6-1 .2-.1.5 0 .6.2s0 .5-.2.6c-.5.2-1 .5-1.4.9-.1.1-.2.1-.3.1-.1 0-.2-.1-.3-.2zm8.3 0c-.4-.4-.9-.7-1.4-.9-.2-.1-.3-.4-.2-.6.1-.2.4-.3.6-.2.6.3 1.1.6 1.6 1 .2.2.2.4 0 .6-.1.1-.2.2-.3.2-.1.1-.2 0-.3-.1zm-5.2-1.7c0-.2.1-.5.4-.5.6-.1 1.3-.1 1.9 0 .2 0 .4.3.4.5s-.3.4-.5.4c-.5-.1-1.1-.1-1.7 0h-.1c-.2 0-.3-.2-.4-.4z"/></g></svg>