<svg version="1.1" id="Layer_1" xmlns="http://www.w3.org/2000/svg" x="0" y="0" viewBox="0 0 500 375" style="enable-background:new 0 0 500 375" xml:space="preserve"><style>.st0{opacity:.1;fill:#ececec}.st1{fill:#e1e1e1}.st1,.st2{opacity:.1}.st3{fill:#e1e1e1}.st4{fill:#ececec}.st6{fill:#797bf2}.st8{fill:#671cc9}.st9{fill:#555abc}.st10{fill:#9057ea}.st11{fill:#ff4f5b}.st12{fill:#fff}.st14{fill:#1a2e35}.st15{fill:#a5a9f2}.st16{fill:#375a64}.st17{fill:#ffbf9d}.st18{fill:#ff9a6c}.st19{opacity:.3}</style><g id="OBJECTS"><path class="st0" d="M316 350.3c3.3-1.9 7.6-1.9 11-.2 3.4 1.8 5.8 5.3 6.2 9.1-7.1 0-14-1.7-17.2-8.9M324.2 343.1c4.7 1.5 10.1.6 14-2.5s6-8.2 5.6-13.1c-9 1.7-17.3 5.5-19.6 15.6"/><path class="st1" d="M293.6 354.9s.1-.1.4-.2.8-.3 1.3-.4c1.1-.4 2.7-.9 4.7-1.6 4-1.4 9.4-3.4 15.3-5.9 2.9-1.3 5.7-2.6 8.2-3.8 2.5-1.3 4.6-2.5 6.4-3.6s3.2-2.1 4.1-2.8c.9-.7 1.4-1.2 1.4-1.2l-.3.3c-.2.2-.5.6-1 .9-.9.8-2.3 1.8-4 2.9-1.8 1.1-4 2.4-6.4 3.7-2.5 1.3-5.2 2.6-8.2 3.9-5.9 2.6-11.3 4.5-15.3 5.8-2 .7-3.6 1.1-4.8 1.5-.5.2-1 .3-1.3.4-.3.1-.5.2-.5.1z"/><g class="st2"><path class="st3" d="M325 354.4c0 .1-.9-.5-2.3-1.3s-3.4-1.7-5.7-2.3c-2.3-.6-4.5-.9-6.1-.9-1.6-.1-2.6 0-2.6-.1 0 0 .2-.1.7-.1.4-.1 1.1-.1 1.9-.1 1.6 0 3.8.2 6.2.8 2.4.7 4.4 1.6 5.8 2.4.7.4 1.2.8 1.6 1 .3.4.5.5.5.6z"/></g><path class="st0" d="M159.4 323.1c-1.7 4.5-1 9.9 1.9 13.7 2.8 3.9 7.7 6.2 12.5 6-1.4-8.7-4.7-17.1-14.4-19.7"/><path class="st1" d="M158 318.8c.1 0 .3 1 .8 2.5s1.3 3.6 2.5 5.8c1.2 2.2 2.4 4 3.4 5.2 1 1.3 1.7 2 1.6 2 0 0-.2-.1-.5-.5-.3-.3-.8-.8-1.3-1.4-1.1-1.2-2.4-3.1-3.5-5.2-1.2-2.2-1.9-4.3-2.4-5.9-.2-.8-.4-1.4-.5-1.9-.1-.3-.1-.6-.1-.6z"/><path class="st0" d="M20.5 147.7c-2.6 7-1.5 15.3 2.9 21.3s11.9 9.6 19.4 9.3c-2.1-13.6-7.3-26.5-22.3-30.6"/><path class="st1" d="M18.3 141s.1.4.3 1c.2.7.5 1.6.9 2.8.8 2.4 2 5.6 3.8 8.9 1.8 3.3 3.8 6.2 5.3 8.1.8 1 1.4 1.8 1.9 2.3s.7.8.7.8-.3-.3-.8-.7c-.5-.5-1.2-1.2-2-2.2-1.6-1.9-3.7-4.7-5.5-8.1-1.8-3.4-3-6.6-3.7-9-.4-1.2-.6-2.2-.7-2.9-.1-.6-.2-1-.2-1z"/><path class="st0" d="M43.9 286c-3.8 3-5.8 8-5.4 12.8.5 4.8 3.5 9.3 7.7 11.5 3.4-8.2 4.7-17-2.3-24.3"/><path class="st1" d="M45 281.7c.1 0-.2 1-.6 2.5-.3 1.6-.7 3.8-.8 6.2-.1 2.4.1 4.7.3 6.3.2 1.6.4 2.6.4 2.6s-.1-.2-.2-.7c-.1-.4-.3-1.1-.4-1.9-.3-1.6-.5-3.8-.4-6.3s.5-4.7.9-6.3c.2-.8.4-1.4.6-1.8 0-.4.1-.7.2-.6z"/><g class="st2"><path class="st4" d="M173 110.3c4.3 2.1 9.7 2 13.9-.5 4.2-2.4 7-7 7.2-11.8-8.9.4-17.5 2.9-21.1 12.3"/><path class="st3" d="M168.5 111.2c0-.1 1-.2 2.6-.5s3.7-.9 6-1.9c2.3-.9 4.2-2 5.6-2.9 1.4-.9 2.2-1.5 2.2-1.4l-.5.5c-.3.3-.9.7-1.5 1.1-1.3.9-3.3 2.1-5.6 3s-4.5 1.5-6.1 1.8c-.8.1-1.4.2-1.9.3h-.8z"/></g><path class="st0" d="M154.9 109c6.2-1.3 11.6-5.9 13.9-11.9 2.3-5.9 1.4-13-2.3-18.1-8.7 7.7-15.5 17.4-11.6 30"/><path class="st1" d="M151.2 113.6s.2-.3.6-.7c.4-.4 1-1.1 1.6-1.9 1.3-1.6 3.1-4 4.6-6.8 1.6-2.8 2.7-5.5 3.4-7.6.3-1 .6-1.8.8-2.4l.3-.9s0 .3-.2.9c-.1.6-.3 1.4-.7 2.4-.6 2-1.7 4.8-3.3 7.6-1.6 2.8-3.4 5.2-4.8 6.8-.7.8-1.3 1.4-1.7 1.8-.4.6-.6.8-.6.8z"/><g class="st2"><path class="st4" d="M212 347.1c1.3 2.6 4 4.4 6.9 4.8 2.9.3 5.9-.9 7.7-3.1-4.5-3-9.5-4.9-14.6-1.7"/><path class="st3" d="M209.5 346c.1-.1 2.1 1.1 5 1.8s5.3.7 5.3.8c0 0-.6.1-1.6.1s-2.3-.2-3.8-.5c-1.4-.4-2.7-.9-3.6-1.3-.8-.5-1.3-.9-1.3-.9z"/></g><g class="st2"><path class="st4" d="M276.4 97.5c1.8 2.3 4.8 3.6 7.7 3.3 2.9-.2 5.6-2 7-4.6-5-1.9-10.3-2.8-14.7 1.3"/><path class="st3" d="M273.8 96.9c0-.1 2.3.7 5.3.8 2.9.2 5.3-.4 5.3-.2 0 0-.6.2-1.5.4-1 .2-2.3.3-3.8.2-1.5-.1-2.8-.4-3.8-.6-1-.3-1.5-.6-1.5-.6z"/></g><g class="st2"><path class="st4" d="M443.4 118.9c4.6 1.3 9.9.1 13.5-3.1s5.5-8.2 4.8-13c-8.5 2.1-16.5 6.2-18.3 16.1"/><path class="st3" d="M439.3 120.7c0-.1.9-.4 2.4-1s3.5-1.6 5.5-3c2-1.3 3.7-2.8 4.9-3.9 1.2-1.1 1.8-1.8 1.9-1.8 0 0-.1.2-.4.6s-.7.8-1.3 1.4c-1.1 1.2-2.8 2.6-4.9 4s-4.1 2.3-5.6 2.9c-.8.3-1.4.5-1.8.6-.5.1-.7.2-.7.2z"/></g><path class="st0" d="M459.9 330.8c8.2-1.9 15.2-8.1 18.1-15.9 2.9-7.9 1.6-17.1-3.4-23.9-11.4 10.3-20.2 23.2-14.7 39.8"/><path class="st1" d="M455 336.9s.3-.4.8-.9c.5-.6 1.3-1.5 2.1-2.5.9-1.1 1.9-2.4 2.9-4 1-1.5 2.1-3.3 3.1-5.1 1-1.9 1.9-3.7 2.6-5.4.7-1.7 1.3-3.3 1.7-4.6.4-1.3.8-2.4.9-3.2.2-.8.3-1.2.4-1.2 0 0-.1.4-.2 1.2-.2.8-.4 1.9-.8 3.2-.4 1.3-.9 2.9-1.6 4.7-.7 1.7-1.6 3.6-2.6 5.5s-2.1 3.6-3.1 5.2c-1.1 1.5-2.1 2.9-3 3.9-.9 1.1-1.7 1.9-2.2 2.5-.7.4-1 .7-1 .7z"/><path class="st6" d="M365.5 243.2c-4.4-24.5-25.4-45.9-50.2-47.9-13.5-1.1-27.1 3.2-40.6 1.5-11.3-1.4-22-7-29.5-15.6-11.1-12.7-14.9-30.7-26.7-42.7-16.2-16.6-44.5-16.9-64.3-4.6-19.7 12.2-31.7 34.3-37.1 56.8l-.2 6.9c-1.2 23.4 5 50.6 18.5 71.5 13.8 21.1 22.8 29.9 47.9 45.1 21.3 12.9 63 18.6 87.9 19.2s50.5-6.8 69.2-23.2c18.6-16.6 29.5-42.5 25.1-67z" style="opacity:7.000000e-02"/><circle class="st6" cx="378" cy="328.9" r="12" style="opacity:.17"/><path class="st8" d="M293.9 236.7c.2 23.9-5 42.2-15.7 54.9s-25.3 19.1-43.8 19.3c-18.6.2-33.4-6-44.4-18.4-11-12.5-16.6-30.6-16.8-54.6l-.4-42.1c-.2-23.9 5-42.1 15.7-54.9 10.7-12.7 25.3-19.2 43.9-19.4 18.5-.2 33.3 6 44.3 18.5s16.6 30.7 16.8 54.6l.4 42.1zm-31.2-46.6c-.1-15.1-2.8-26.2-7.9-33.4S242.3 146 232.6 146c-9.7.1-17 3.8-22 11.1-4.9 7.3-7.3 18.5-7.2 33.5l.5 51.2c.1 15.2 2.8 26.4 8 33.6s12.6 10.8 22.3 10.7c9.7-.1 17-3.8 21.9-11.1 4.9-7.3 7.3-18.6 7.1-33.8l-.5-51.1z"/><path class="st9" d="M293.9 236.7c.2 23.9-5 42.2-15.7 54.9s-25.3 19.1-43.8 19.3c-18.6.2-33.4-6-44.4-18.4-11-12.5-16.6-30.6-16.8-54.6l-.4-42.1c-.2-23.9 5-42.1 15.7-54.9 10.7-12.7 25.3-19.2 43.9-19.4 18.5-.2 33.3 6 44.3 18.5s16.6 30.7 16.8 54.6l.4 42.1zm-31.2-46.6c-.1-15.1-2.8-26.2-7.9-33.4S242.3 146 232.6 146c-9.7.1-17 3.8-22 11.1-4.9 7.3-7.3 18.5-7.2 33.5l.5 51.2c.1 15.2 2.8 26.4 8 33.6s12.6 10.8 22.3 10.7c9.7-.1 17-3.8 21.9-11.1 4.9-7.3 7.3-18.6 7.1-33.8l-.5-51.1z"/><path class="st6" d="M311.6 236.5c.2 23.9-5 42.2-15.7 54.9-10.7 12.7-25.3 19.1-43.8 19.3-18.6.2-33.4-6-44.4-18.4-11-12.5-16.6-30.6-16.8-54.6l-.4-42.1c-.2-23.9 5-42.1 15.7-54.9 10.7-12.7 25.3-19.2 43.9-19.4 18.5-.2 33.3 6 44.3 18.5s16.6 30.7 16.8 54.6l.4 42.1zM280.4 190c-.1-15.1-2.8-26.2-7.9-33.4s-12.5-10.7-22.2-10.7c-9.7.1-17 3.8-22 11.1-4.9 7.3-7.3 18.5-7.2 33.5l.5 51.2c.1 15.2 2.8 26.4 8 33.6s12.6 10.8 22.3 10.7c9.7-.1 17-3.8 21.9-11.1 4.9-7.3 7.3-18.6 7.1-33.8l-.5-51.1z"/><path class="st10" d="M190.5 198.1c0 .1-4.1 1.7-9.2 3.6-5.1 1.9-9.3 3.4-9.3 3.3 0-.1 4.1-1.7 9.2-3.6 5.1-2 9.3-3.4 9.3-3.3zM191.6 214.7c0 .1-4.1 1.7-9.2 3.6-5.1 1.9-9.3 3.4-9.3 3.3 0-.1 4.1-1.7 9.2-3.6 5.1-1.9 9.2-3.4 9.3-3.3zM192.6 231.3c0 .1-4.1 1.7-9.2 3.6-5.1 1.9-9.3 3.4-9.3 3.3 0-.1 4.1-1.7 9.2-3.6s9.2-3.4 9.3-3.3zM193.6 248c0 .1-4.1 1.7-9.2 3.6-5.1 1.9-9.3 3.4-9.3 3.3 0-.1 4.1-1.7 9.2-3.6s9.3-3.4 9.3-3.3zM194.6 264.6l-.6.3c-.4.2-1 .4-1.8.7-1.5.6-3.6 1.4-5.9 2.3-2.3.9-4.4 1.6-6 2.2-.8.3-1.4.5-1.8.6-.4.1-.7.2-.7.2l.6-.3c.4-.2 1-.4 1.8-.7 1.5-.6 3.6-1.4 5.9-2.3 2.3-.9 4.4-1.6 6-2.2.8-.3 1.4-.5 1.8-.6.5-.2.7-.2.7-.2zM199.4 279.8s-.8.4-2.1.9-3.1 1.2-5.2 2c-2 .8-3.9 1.4-5.2 1.9s-2.2.7-2.2.7.8-.4 2.1-.9 3.1-1.2 5.2-2c2-.8 3.9-1.4 5.2-1.9s2.2-.7 2.2-.7zM209.5 293.8s-.7.4-1.9.8c-1.2.5-2.8 1.1-4.6 1.8-1.8.7-3.4 1.3-4.6 1.7-1.2.4-1.9.6-2 .6 0 0 .7-.4 1.9-.8 1.2-.5 2.8-1.1 4.6-1.8 1.8-.7 3.4-1.3 4.6-1.7 1.3-.4 2-.7 2-.6zM226.4 302.9s-.7.4-1.9.8c-1.2.5-2.8 1.1-4.6 1.8-1.8.7-3.4 1.3-4.6 1.7-1.2.4-1.9.6-2 .6 0 0 .7-.4 1.9-.8 1.2-.5 2.8-1.1 4.6-1.8 1.8-.7 3.4-1.3 4.6-1.7 1.3-.4 2-.6 2-.6z"/><path class="st11" d="M277.4 267.4c0 .1-5.2 2.6-11.8 5.5-6.6 2.9-11.9 5.3-11.9 5.2 0-.1 5.2-2.6 11.8-5.5 6.5-2.9 11.9-5.3 11.9-5.2zM280.9 253.2c0 .1-4.3 2.1-9.7 4.6-5.4 2.4-9.8 4.3-9.9 4.2 0-.1 4.3-2.1 9.7-4.6 5.4-2.4 9.8-4.3 9.9-4.2zM282.5 237.2c0 .1-4.3 2.1-9.7 4.6-5.4 2.4-9.8 4.3-9.9 4.2 0-.1 4.3-2.1 9.7-4.6 5.4-2.4 9.8-4.3 9.9-4.2zM284.1 221.2c0 .1-4.3 2.1-9.7 4.6-5.4 2.4-9.8 4.3-9.9 4.2 0-.1 4.3-2.1 9.7-4.6 5.4-2.4 9.8-4.3 9.9-4.2zM285.7 205.1c0 .1-4.3 2.1-9.7 4.6-5.4 2.4-9.8 4.3-9.9 4.2 0-.1 4.3-2.1 9.7-4.6 5.4-2.3 9.8-4.2 9.9-4.2zM282.5 190.9c0 .1-4.3 2.1-9.7 4.6-5.4 2.4-9.8 4.3-9.9 4.2 0-.1 4.3-2.1 9.7-4.6 5.4-2.4 9.8-4.3 9.9-4.2zM282.5 175.5c0 .1-4.3 2.1-9.7 4.6-5.4 2.4-9.8 4.3-9.9 4.2 0-.1 4.3-2.1 9.7-4.6 5.4-2.4 9.8-4.3 9.9-4.2zM280.9 161.1c0 .1-4.3 2.1-9.7 4.6-5.4 2.4-9.8 4.3-9.9 4.2 0-.1 4.3-2.1 9.7-4.6 5.4-2.4 9.8-4.3 9.9-4.2z"/><path class="st10" d="M267.1 151c0 .1-2.6 1.4-5.9 2.8-3.3 1.5-6 2.6-6 2.5s2.6-1.4 5.9-2.8c3.3-1.5 6-2.6 6-2.5zM259.8 144.8c0 .1-2.6 1.4-5.9 2.8-3.3 1.5-6 2.6-6 2.5s2.6-1.4 5.9-2.8c3.3-1.4 6-2.5 6-2.5zM191.3 177.9c0 .1-4.1 1.7-9.2 3.6-5.1 1.9-9.3 3.4-9.3 3.3 0-.1 4.1-1.7 9.2-3.6 5.1-1.9 9.3-3.4 9.3-3.3zM196.4 157.1c0 .1-4.4 1.9-10 3.9-5.5 2.1-10 3.7-10.1 3.6 0-.1 4.4-1.9 10-3.9s10.1-3.6 10.1-3.6zM209.8 136.6c0 .1-5.6 2.3-12.6 4.9-7 2.6-12.7 4.7-12.7 4.6 0-.1 5.6-2.3 12.6-4.9 7-2.6 12.7-4.7 12.7-4.6z"/><path class="st12" d="M308.6 267.7s-.1 0-.3-.1c-.2-.1-.5-.2-.8-.3-.4-.1-.8-.2-1.4-.4-.6-.1-1.2-.2-2-.2-3-.2-7.4.9-11.7 4.1-2.2 1.6-4.2 3.7-6.2 6.1s-3.9 5.2-6.2 8c-2.2 2.8-4.8 5.6-8 7.8s-7 3.8-11.1 4.5-8.2.5-11.9-.4c-3.8-.9-7.2-2.4-10.5-3.9-3.2-1.5-6.2-3-9.1-4.3a45.1 45.1 0 0 0-8.3-2.8c-2.6-.6-5-.9-7.2-.8-2.1 0-3.9.3-5.4.7-1.4.4-2.5.9-3.2 1.3-.3.2-.6.3-.8.4s-.3.1-.3.1.1-.1.3-.2.4-.3.8-.5c.7-.4 1.8-.9 3.2-1.3s3.3-.8 5.4-.8c2.1 0 4.6.2 7.2.8 2.6.6 5.4 1.5 8.3 2.8 2.9 1.2 5.9 2.8 9.2 4.2 3.2 1.5 6.7 2.9 10.4 3.8s7.8 1.1 11.8.4 7.8-2.3 10.9-4.4c3.2-2.1 5.7-4.9 8-7.7 2.2-2.8 4.2-5.5 6.2-8 2-2.4 4.1-4.6 6.3-6.2 4.4-3.2 8.9-4.3 11.9-4 .8 0 1.4.2 2 .3.6.2 1 .3 1.4.4l.8.4c.2.1.3.2.3.2zM312.9 221.3s-.5.1-1.4.4c-.9.3-2 .9-3.4 1.8-1.3.9-2.8 2.2-4.5 3.6-1.7 1.3-3.7 2.6-6 3.7-4.5 2.2-9 3-12.3 3.2-.8.1-1.6 0-2.2.1-.6 0-1.2 0-1.7-.1-.4 0-.8-.1-1-.1s-.4 0-.4-.1H283.1c.6 0 1.4 0 2.2-.1 3.2-.2 7.7-1.1 12.1-3.2 2.2-1.1 4.2-2.3 5.9-3.6 1.7-1.3 3.2-2.6 4.5-3.5s2.6-1.5 3.5-1.7c.4-.1.8-.2 1-.2.5-.2.6-.2.6-.2zM222.1 237.4s-.1 0-.4-.1c-.2-.1-.6-.1-1.1-.2-.9-.3-2.2-.8-3.7-1.6-1.5-.9-3.1-2.1-4.9-3.6-1.7-1.4-3.6-3.1-5.7-4.6-2.1-1.5-4.4-2.5-6.6-3-2.2-.5-4.2-.7-5.9-.6-1.7.1-3.1.4-4 .6-.9.2-1.4.4-1.4.4s.1-.1.4-.2c.2-.1.6-.2 1-.4.9-.3 2.3-.6 4-.7 1.7-.1 3.8 0 6 .5s4.6 1.6 6.7 3c2.2 1.5 4 3.2 5.8 4.6 1.7 1.5 3.3 2.7 4.8 3.6 1.5.9 2.7 1.4 3.6 1.7.9.4 1.4.5 1.4.6zM222.3 171.7s-.4.2-1.2.4c-.4.1-.8.3-1.4.4-.5.1-1.2.3-1.9.4-.7.1-1.5.3-2.3.4-.8.1-1.7.2-2.7.3-1.9.1-4 .1-6.1-.1-2.2-.2-4.2-.6-6-1.1-.9-.3-1.8-.5-2.6-.8s-1.5-.5-2.2-.8-1.2-.5-1.7-.8c-.5-.2-.9-.5-1.3-.7-.7-.4-1.1-.6-1.1-.6s.4.2 1.1.5c.4.2.8.4 1.3.6.5.2 1.1.5 1.8.7.7.3 1.4.5 2.2.8s1.6.5 2.5.7c1.8.4 3.8.8 6 1 2.1.2 4.2.2 6.1.1.9-.1 1.8-.1 2.6-.3.8-.1 1.6-.2 2.3-.4.7-.1 1.3-.3 1.9-.4.6-.1 1-.2 1.4-.4.8.1 1.2 0 1.3.1zM309 171.5s-.1 0-.3-.1c-.2-.1-.5-.3-.8-.5s-.8-.5-1.3-.7-1.1-.6-1.8-.8c-.3-.1-.7-.3-1-.4-.4-.1-.8-.3-1.2-.4-.8-.3-1.7-.5-2.6-.7-1.9-.4-3.9-.7-6.1-.7s-4.3.2-6.2.6c-.9.2-1.8.4-2.6.7-.4.1-.8.2-1.2.4-.4.1-.7.3-1.1.4-.7.2-1.3.6-1.8.8s-1 .5-1.3.7-.6.3-.8.5c-.2.1-.3.1-.3.1s.1-.1.3-.2c.2-.1.5-.3.8-.5s.8-.5 1.3-.7c.5-.3 1.1-.6 1.8-.9.3-.1.7-.3 1.1-.4.4-.1.8-.3 1.2-.4.8-.3 1.7-.5 2.6-.7 1.9-.4 4-.7 6.2-.6 2.2 0 4.3.3 6.2.8.9.3 1.8.5 2.6.8.4.1.8.3 1.2.4.4.2.7.3 1 .5.7.3 1.2.6 1.8.9.5.3.9.5 1.3.8.3.2.6.4.8.5.1-.3.2-.2.2-.2zM266.5 124.3s-.2.1-.5.3c-.4.2-.9.5-1.5.8-1.3.7-3.2 1.7-5.5 2.8-4.7 2.3-11.2 5.4-18.9 7.4-3.9 1-7.7 1.5-11.1 1.5-3.5.1-6.6-.2-9.1-.8-2.6-.5-4.6-1.2-5.9-1.8-.7-.3-1.2-.5-1.5-.7s-.5-.3-.5-.3.2.1.5.2c.4.1.9.4 1.5.6 1.3.5 3.4 1.2 5.9 1.7s5.6.8 9.1.7c3.4-.1 7.2-.6 11-1.6 7.7-1.9 14.2-5 18.9-7.3 2.3-1.1 4.2-2.1 5.5-2.7.6-.3 1.1-.6 1.5-.7.4-.1.6-.1.6-.1z"/><path class="st8" d="m126.9 245.4 23.2 1L149 271l-23.2-1-1.8 40.9-30.6-1.3 1.8-40.9-78.9-3.4.1-18.8 84.1-120.8 31.6 1.4-5.2 118.3zM47 241.9l49.4 2.2 3.3-74.6-.7-.3-2.8 5.3L47 241.9z"/><path class="st9" d="m126.9 245.4 23.2 1L149 271l-23.2-1-1.8 40.9-30.6-1.3 1.8-40.9-78.9-3.4.1-18.8 84.1-120.8 31.6 1.4-5.2 118.3zM47 241.9l49.4 2.2 3.3-74.6-.7-.3-2.8 5.3L47 241.9z"/><path class="st6" d="m146.4 246.2 23.2 1-1.1 24.6-23.2-1-1.8 40.9-30.6-1.3 1.8-40.9-78.9-3.4.1-18.8L120 126.5l31.6 1.4-5.2 118.3zm-80-3.5 49.4 2.2 3.3-74.6-.7-.3-2.8 5.3-49.2 67.4z"/><path class="st10" d="M36.2 250.9s-.3.2-.8.4c-.5.3-1.2.6-2.1 1-1.8.8-4.3 2-7.1 3.1-2.8 1.2-5.3 2.2-7.2 2.9-.9.3-1.7.6-2.2.8-.5.2-.8.3-.8.2 0 0 .3-.2.8-.4.6-.2 1.3-.5 2.2-.9 1.9-.8 4.4-1.8 7.1-3 2.7-1.2 5.2-2.2 7.1-3 .9-.4 1.6-.7 2.2-.9.5-.1.8-.2.8-.2zM47.6 230.1s-.4.2-1 .6c-.7.3-1.7.8-2.9 1.4-2.5 1.1-5.9 2.6-9.7 4.3-3.8 1.6-7.3 3-9.9 4-1.3.5-2.3.9-3 1.1-.7.3-1.1.4-1.1.4s.4-.2 1.1-.5c.8-.3 1.8-.7 3-1.2 2.6-1.1 6-2.5 9.8-4.1s7.2-3.1 9.8-4.2c1.2-.5 2.2-.9 3-1.3.5-.4.8-.5.9-.5zM61.4 211.5s-.4.2-1.1.6c-.7.3-1.8.8-3.1 1.4-2.6 1.1-6.2 2.6-10.2 4.3-4 1.6-7.6 3-10.3 4-1.3.5-2.4.9-3.1 1.1-.7.3-1.2.4-1.2.4s.4-.2 1.1-.5c.8-.3 1.8-.7 3.1-1.2 2.7-1.1 6.3-2.5 10.2-4.1 4-1.6 7.5-3.1 10.2-4.2 1.3-.5 2.3-.9 3.1-1.3.8-.4 1.3-.5 1.3-.5zM116.7 233s-.3.2-.8.4-1.2.6-2.1 1c-1.8.8-4.3 1.9-7.1 3s-5.3 2.1-7.2 2.8c-.9.3-1.7.6-2.2.8s-.8.3-.8.2c0 0 .3-.2.8-.4.6-.2 1.3-.5 2.2-.9 1.9-.8 4.4-1.8 7.1-2.9 2.7-1.1 5.2-2.1 7.1-2.9.9-.3 1.6-.6 2.2-.9.5-.2.8-.3.8-.2zM114.5 271.1s-.3.2-.7.4c-.5.2-1.2.6-2.1 1-1.7.8-4.2 1.9-6.9 3s-5.2 2.1-7 2.8c-.9.3-1.6.6-2.1.8-.5.2-.8.3-.8.2 0 0 .3-.2.8-.4.6-.2 1.3-.5 2.1-.9 1.8-.8 4.3-1.8 6.9-2.9 2.7-1.1 5.1-2.1 6.9-2.9.8-.3 1.5-.6 2.1-.9.5-.1.7-.2.8-.2zM114.1 284.5s-.3.2-.7.4c-.5.2-1.2.6-2.1 1-1.7.8-4.2 1.9-6.9 3s-5.2 2.1-7 2.8c-.9.3-1.6.6-2.1.8-.5.2-.8.3-.8.2 0 0 .3-.2.8-.4.6-.2 1.3-.5 2.1-.9 1.8-.8 4.3-1.8 6.9-2.9 2.7-1.1 5.1-2.1 6.9-2.9.8-.3 1.5-.6 2.1-.9.5-.1.8-.2.8-.2zM113.8 297.9s-.3.2-.7.4c-.5.2-1.2.6-2.1 1-1.7.8-4.2 1.9-6.9 3s-5.2 2.1-7 2.8c-.9.3-1.6.6-2.1.8-.5.2-.8.3-.8.2 0 0 .3-.2.8-.4.6-.2 1.3-.5 2.1-.9 1.8-.8 4.3-1.8 6.9-2.9 2.7-1.1 5.1-2.1 6.9-2.9.8-.3 1.5-.6 2.1-.9.5-.1.8-.2.8-.2zM117.1 218.8s-.3.2-.8.4-1.2.6-2.1 1c-1.8.8-4.3 1.9-7.1 3s-5.3 2.1-7.2 2.8c-.9.3-1.7.6-2.2.8s-.8.3-.8.2c0 0 .3-.2.8-.4.6-.2 1.3-.5 2.2-.9 1.9-.8 4.4-1.8 7.1-2.9 2.7-1.1 5.2-2.1 7.1-2.9.9-.3 1.6-.6 2.2-.9.5-.1.8-.2.8-.2zM117.4 204.7s-.3.2-.8.4-1.2.6-2.1 1c-1.8.8-4.3 1.9-7.1 3s-5.3 2.1-7.2 2.8c-.9.3-1.7.6-2.2.8s-.8.3-.8.2c0 0 .3-.2.8-.4.6-.2 1.3-.5 2.2-.9 1.9-.8 4.4-1.8 7.1-2.9 2.7-1.1 5.2-2.1 7.1-2.9.9-.3 1.6-.6 2.2-.9.5-.2.8-.3.8-.2zM117.8 190.5s-.2.2-.7.4-1.2.6-2 .9c-1.7.8-4.1 1.8-6.7 2.9-2.7 1.1-5.1 2-6.9 2.6-.9.3-1.6.6-2.1.7-.5.2-.8.2-.8.2s.3-.1.7-.4c.6-.2 1.2-.5 2.1-.8 1.8-.7 4.2-1.7 6.8-2.7 2.6-1.1 5-2 6.8-2.8.8-.3 1.5-.6 2.1-.8.4-.1.7-.2.7-.2zM119.4 177.3c0 .1-1.5.8-3.5 1.5s-3.6 1.2-3.6 1.1c0-.1 1.5-.8 3.5-1.5 1.9-.7 3.5-1.2 3.6-1.1zM75.2 192.3s-.4.2-1.1.6c-.7.3-1.8.8-3.1 1.4-2.6 1.1-6.2 2.6-10.2 4.3-4 1.6-7.6 3-10.3 4-1.3.5-2.4.9-3.1 1.1-.7.3-1.2.4-1.2.4s.4-.2 1.1-.5c.8-.3 1.8-.7 3.1-1.2 2.7-1.1 6.3-2.5 10.2-4.1 4-1.6 7.5-3.1 10.2-4.2 1.3-.5 2.3-.9 3.1-1.3.8-.4 1.2-.6 1.3-.5zM88.9 173s-.4.2-1.1.6c-.7.3-1.8.8-3.1 1.4-2.6 1.1-6.2 2.6-10.2 4.3-4 1.6-7.6 3-10.3 4-1.3.5-2.4.9-3.1 1.1-.7.3-1.2.4-1.2.4s.4-.2 1.1-.5c.8-.3 1.8-.7 3.1-1.2 2.7-1.1 6.3-2.5 10.2-4.1 4-1.6 7.5-3.1 10.2-4.2 1.3-.5 2.3-.9 3.1-1.3.9-.3 1.3-.5 1.3-.5zM101.7 153.8s-.4.2-1.1.6c-.7.3-1.8.8-3.1 1.4-2.6 1.1-6.2 2.6-10.2 4.3-4 1.6-7.6 3-10.3 4-1.3.5-2.4.9-3.1 1.1-.7.3-1.2.4-1.2.4s.4-.2 1.1-.5c.8-.3 1.8-.7 3.1-1.2 2.7-1.1 6.3-2.5 10.2-4.1 4-1.6 7.5-3.1 10.2-4.2 1.3-.5 2.3-.9 3.1-1.3.9-.4 1.3-.5 1.3-.5zM115 135.3s-.4.2-1.1.6c-.7.3-1.8.8-3.1 1.4-2.6 1.1-6.2 2.6-10.2 4.3-4 1.6-7.6 3-10.3 4-1.3.5-2.4.9-3.1 1.1-.7.3-1.2.4-1.2.4s.4-.2 1.1-.5c.8-.3 1.8-.7 3.1-1.2 2.7-1.1 6.3-2.5 10.2-4.1 4-1.6 7.5-3.1 10.2-4.2 1.3-.5 2.3-.9 3.1-1.3.8-.4 1.2-.6 1.3-.5z"/><path class="st12" d="M150.1 163.5s-.1.2-.4.5c-.3.3-.7.7-1.3 1.2-1.1 1-2.9 2.3-5.4 3.5a25 25 0 0 1-9.3 2.1c-1.8 0-3.7-.2-5.6-.6-1.9-.5-3.8-1.2-5.7-2.1-3.7-1.8-7.1-4-10.3-5.5-3.2-1.5-6.4-2.3-9.1-2.4-2.7-.1-4.9.5-6.2 1.2-.7.3-1.2.6-1.5.9-.3.2-.5.3-.5.3s.2-.1.5-.4c.3-.3.8-.6 1.5-.9 1.4-.7 3.5-1.4 6.3-1.3 2.7.1 6 .8 9.2 2.3 3.3 1.5 6.6 3.6 10.3 5.4 1.9.9 3.7 1.7 5.6 2.1 1.9.5 3.8.7 5.5.6 3.6-.1 6.7-.9 9.2-2s4.3-2.4 5.4-3.4c.6-.5 1-.9 1.3-1.2.4-.1.5-.3.5-.3zM140.5 129.2s-.3.2-.9.5c-.6.3-1.4.7-2.5 1.2s-2.4.9-3.9 1.4c-1.5.4-3.2.8-4.9 1.1-1.8.3-3.5.4-5 .5-1.6 0-3 0-4.1-.1-1.2-.1-2.1-.2-2.8-.3-.6-.1-1-.2-1-.2s.4 0 1 .1c.7.1 1.6.1 2.8.2 1.2.1 2.6.1 4.1 0s3.2-.2 5-.5 3.4-.7 4.9-1.1c1.5-.4 2.8-.9 3.9-1.3s2-.8 2.6-1.1c.4-.3.8-.4.8-.4zM91.1 206.4s-.2-.2-.6-.7-1-1.2-1.6-2c-1.4-1.6-3.4-3.8-5.8-6.1-1.2-1.1-2.4-2.1-3.6-2.8s-2.4-1.1-3.5-1.3c-2.1-.4-3.4.1-3.4 0 0 0 .1 0 .2-.1.2-.1.4-.1.7-.2.6-.1 1.5-.2 2.6 0s2.3.6 3.6 1.3c1.3.7 2.5 1.7 3.7 2.8 2.4 2.3 4.4 4.5 5.8 6.2.7.8 1.2 1.5 1.6 2l.3.9zM146.6 227.4s-.1.1-.3.2c-.2.1-.5.3-.8.5-.7.4-1.8 1-3.3 1.5-2.8 1.1-7.2 1.9-11.8.9-4.6-.9-8.3-3.4-10.5-5.5-1.1-1.1-1.9-2-2.4-2.7-.3-.3-.4-.6-.6-.8-.1-.2-.2-.3-.2-.3s.3.4.8 1c.5.7 1.3 1.6 2.5 2.6 2.2 2 5.8 4.4 10.4 5.3 4.5.9 8.8.2 11.6-.8 1.4-.5 2.5-1 3.3-1.4.8-.3 1.2-.5 1.3-.5zM166.8 271.4s-.1-.1-.2-.3c-.1-.2-.3-.5-.6-1-.4-.9-1.3-2.1-2.4-3.5-.3-.4-.6-.7-.9-1.1-.2-.2-.3-.4-.5-.6l-.6-.6c-.4-.4-.8-.8-1.3-1.2l-1.5-1.2c-2.1-1.6-4.6-3.3-7.6-4.5-3-1.3-6.6-2.2-10.5-2.4s-8 .4-12.1 1.9c-4.1 1.6-8 4-12.1 6.4-2.1 1.2-4.2 2.3-6.5 3.2-2.3.9-4.7 1.6-7.3 1.9-2.5.3-5.1.1-7.5-.5-2.4-.5-4.7-1.4-6.9-2.4-4.4-2-8.2-4.6-11.8-7.1-3.6-2.5-6.9-5-10.3-6.9-3.4-2-6.7-3.5-9.9-4.2-3.2-.8-6.2-.9-8.8-.6-2.6.3-4.8 1-6.4 1.9-1.7.8-2.7 1.8-3.5 2.4l-.8.8-.3.3s.1-.1.2-.3c.2-.2.4-.5.8-.8.7-.6 1.8-1.6 3.5-2.5 1.6-.9 3.8-1.6 6.5-1.9 2.6-.3 5.7-.2 8.9.5 3.2.8 6.6 2.3 10 4.2 3.4 2 6.8 4.4 10.3 6.9 3.6 2.5 7.4 5.1 11.7 7.1 2.2 1 4.4 1.8 6.8 2.3s4.9.7 7.4.4c2.5-.3 4.9-1 7.2-1.9 2.3-.9 4.4-2.1 6.5-3.2 4.1-2.3 8.1-4.7 12.2-6.4 1-.4 2.1-.8 3.1-1 .5-.1 1-.3 1.5-.4.5-.1 1-.2 1.6-.3 2.1-.3 4.1-.4 6-.3 3.9.2 7.5 1.2 10.5 2.5 3.1 1.3 5.6 3 7.7 4.6l1.5 1.2c.4.4.8.9 1.2 1.3l.6.6c.2.2.3.4.5.6.3.4.6.8.9 1.1 1.1 1.5 1.9 2.7 2.3 3.6.2.4.4.7.5 1 .4.3.4.4.4.4zM145.8 300.4s-.1 0-.4.1c-.3.1-.6.1-1 .2s-1 .2-1.6.2c-.6.1-1.4.2-2.2.2-.4 0-.8 0-1.3.1h-1.4c-1 0-2-.1-3-.2-2.1-.2-4.5-.7-6.9-1.3-2.4-.7-4.6-1.6-6.5-2.6-.9-.5-1.9-1-2.7-1.5-.4-.3-.8-.5-1.2-.7-.4-.3-.7-.5-1-.7-.7-.5-1.2-.9-1.7-1.3s-.9-.8-1.3-1.1c-.3-.3-.6-.5-.8-.7-.2-.2-.3-.3-.2-.3 0 0 .1.1.3.2.2.2.5.4.8.7.3.3.8.7 1.3 1 .5.4 1.1.8 1.8 1.3.3.2.7.5 1.1.7s.8.5 1.2.7c.8.5 1.7 1 2.7 1.4 1.9.9 4.1 1.8 6.5 2.5s4.7 1.1 6.8 1.3c1.1.1 2.1.2 3 .2h2.7c.8 0 1.5-.1 2.2-.1.6 0 1.2-.1 1.6-.2.4-.1.8-.1 1-.1h.2z"/><path class="st8" d="m428.8 245.7 23.2-2.3 2.4 24.5-23.2 2.3 4 40.8-30.4 3-4-40.8-78.6 7.7-2.6-18.6 66.3-131.5 31.5-3.1 11.4 118zm-79.6 7.8 49.2-4.8-7.3-74.4-.8-.2-2 5.7-39.1 73.7z"/><path class="st9" d="m428.8 245.7 23.2-2.3 2.4 24.5-23.2 2.3 4 40.8-30.4 3-4-40.8-78.6 7.7-2.6-18.6 66.3-131.5 31.5-3.1 11.4 118zm-79.6 7.8 49.2-4.8-7.3-74.4-.8-.2-2 5.7-39.1 73.7z"/><path class="st6" d="m448.2 243.8 23.2-2.3 2.4 24.5-23.2 2.3 4 40.8-30.4 3-4-40.8-78.6 7.7-2.6-18.6L405.2 129l31.5-3.1 11.5 117.9zm-79.7 7.8 49.2-4.8-7.3-74.4-.8-.2-2 5.7-39.1 73.7z"/><path class="st10" d="M339.8 263.9s-.2.2-.7.5-1.1.8-1.9 1.3c-1.7 1.1-4 2.5-6.6 4.1s-5 2.9-6.7 3.9c-.9.5-1.6.9-2.1 1.1-.5.3-.8.4-.8.4s.2-.2.7-.5 1.2-.7 2-1.2c1.8-1.1 4.1-2.4 6.6-4 2.5-1.5 4.8-2.9 6.6-4 .8-.5 1.5-.9 2-1.2.6-.3.9-.4.9-.4zM348.1 241.7s-.3.3-1 .7c-.6.4-1.6 1-2.7 1.8-2.3 1.5-5.5 3.4-9.1 5.6-3.6 2.1-6.8 4-9.2 5.4-1.2.7-2.2 1.2-2.8 1.6-.7.4-1.1.5-1.1.5s.3-.2 1-.6 1.6-1 2.8-1.7c2.4-1.4 5.6-3.3 9.1-5.5 3.5-2.1 6.7-4.1 9.1-5.5 1.1-.7 2.1-1.2 2.8-1.7.7-.4 1.1-.6 1.1-.6zM359.1 221.4s-.3.3-1 .7-1.6 1-2.8 1.8c-2.4 1.5-5.8 3.5-9.5 5.6-3.7 2.2-7.1 4.1-9.6 5.4-1.2.7-2.2 1.2-3 1.6-.7.4-1.1.5-1.1.5s.4-.3 1-.6c.7-.4 1.7-1 2.9-1.7 2.5-1.4 5.8-3.4 9.6-5.5 3.7-2.2 7-4.1 9.5-5.6 1.2-.7 2.2-1.3 2.9-1.7.7-.3 1.1-.6 1.1-.5zM416.9 234.8s-.2.2-.7.5-1.1.7-2 1.3c-1.7 1.1-4 2.5-6.6 4s-5 2.8-6.7 3.7c-.9.5-1.6.8-2.1 1.1-.5.2-.8.4-.8.3 0 0 .2-.2.7-.5s1.2-.7 2-1.2c1.8-1 4.1-2.4 6.7-3.8 2.6-1.5 4.9-2.9 6.6-3.9.8-.5 1.5-.9 2-1.2.7-.2.9-.3.9-.3zM420.1 272.9s-.2.2-.7.5c-.4.3-1.1.7-1.9 1.3-1.6 1-3.9 2.5-6.4 4s-4.8 2.8-6.5 3.7c-.8.5-1.5.8-2 1.1-.5.2-.8.4-.8.3 0 0 .2-.2.7-.5s1.2-.7 2-1.2c1.7-1 4-2.3 6.5-3.8s4.7-2.8 6.4-3.9c.8-.5 1.4-.8 2-1.2.4-.1.7-.3.7-.3zM421.6 286.2s-.2.2-.7.5c-.4.3-1.1.7-1.9 1.3-1.6 1-3.9 2.5-6.4 4s-4.8 2.8-6.5 3.7c-.8.5-1.5.8-2 1.1-.5.2-.8.4-.8.3 0 0 .2-.2.7-.5s1.2-.7 2-1.2c1.7-1 4-2.3 6.5-3.8s4.7-2.8 6.4-3.9c.8-.5 1.4-.8 2-1.2.5-.2.7-.3.7-.3zM423.2 299.5s-.2.2-.7.5c-.4.3-1.1.7-1.9 1.3-1.6 1-3.9 2.5-6.4 4s-4.8 2.8-6.5 3.7c-.8.5-1.5.8-2 1.1-.5.2-.8.4-.8.3 0 0 .2-.2.7-.5s1.2-.7 2-1.2c1.7-1 4-2.3 6.5-3.8s4.7-2.8 6.4-3.9c.8-.5 1.4-.8 2-1.2.4-.2.7-.3.7-.3zM415.3 220.8s-.2.2-.7.5-1.1.7-2 1.3c-1.7 1.1-4 2.5-6.6 4s-5 2.8-6.7 3.7c-.9.5-1.6.8-2.1 1.1-.5.2-.8.4-.8.3 0 0 .2-.2.7-.5s1.2-.7 2-1.2c1.8-1 4.1-2.4 6.7-3.8 2.6-1.5 4.9-2.9 6.6-3.9.8-.5 1.5-.9 2-1.2.6-.2.9-.4.9-.3zM413.7 206.7s-.2.2-.7.5-1.1.7-2 1.3c-1.7 1.1-4 2.5-6.6 4s-5 2.8-6.7 3.7c-.9.5-1.6.8-2.1 1.1-.5.2-.8.4-.8.3 0 0 .2-.2.7-.5s1.2-.7 2-1.2c1.8-1 4.1-2.4 6.7-3.8 2.6-1.5 4.9-2.9 6.6-3.9.8-.5 1.5-.9 2-1.2l.9-.3zM412 192.7s-.2.2-.7.5c-.4.3-1.1.7-1.9 1.2-1.6 1-3.8 2.4-6.3 3.8s-4.8 2.7-6.4 3.6c-.8.4-1.5.8-2 1s-.7.3-.7.3.2-.2.7-.5 1.2-.7 1.9-1.1c1.7-1 3.9-2.2 6.4-3.6 2.4-1.4 4.6-2.7 6.3-3.7.8-.4 1.4-.8 1.9-1.1.6-.3.8-.5.8-.4zM411.8 179.3c0 .1-1.4 1-3.2 2-1.8 1-3.4 1.7-3.4 1.6 0-.1 1.4-1 3.2-2 1.8-.9 3.3-1.6 3.4-1.6z"/><path class="st11" d="M370.1 200.4s-.3.3-1 .7-1.6 1-2.8 1.8c-2.4 1.5-5.8 3.5-9.5 5.6-3.7 2.2-7.1 4.1-9.6 5.4-1.2.7-2.2 1.2-3 1.6-.7.4-1.1.5-1.1.5s.4-.3 1-.6c.7-.4 1.7-1 2.9-1.7 2.5-1.4 5.8-3.4 9.6-5.5 3.7-2.2 7-4.1 9.5-5.6 1.2-.7 2.2-1.3 2.9-1.7.7-.3 1.1-.6 1.1-.5zM381 179.4s-.3.3-1 .7-1.6 1-2.8 1.8c-2.4 1.5-5.8 3.5-9.5 5.6-3.7 2.2-7.1 4.1-9.6 5.4-1.2.7-2.2 1.2-3 1.6-.7.4-1.1.5-1.1.5s.4-.3 1-.6c.7-.4 1.7-1 2.9-1.7 2.5-1.4 5.8-3.4 9.6-5.5 3.7-2.2 7-4.1 9.5-5.6 1.2-.7 2.2-1.3 2.9-1.7.7-.3 1.1-.5 1.1-.5z"/><path class="st10" d="M390.9 158.5s-.3.3-1 .7-1.6 1-2.8 1.8c-2.4 1.5-5.8 3.5-9.5 5.6-3.7 2.2-7.1 4.1-9.6 5.4-1.2.7-2.2 1.2-3 1.6-.7.4-1.1.5-1.1.5s.4-.3 1-.6c.7-.4 1.7-1 2.9-1.7 2.5-1.4 5.8-3.4 9.6-5.5 3.7-2.2 7-4.1 9.5-5.6 1.2-.7 2.2-1.3 2.9-1.7.7-.3 1.1-.5 1.1-.5zM401.5 138.3s-.3.3-1 .7-1.6 1-2.8 1.8c-2.4 1.5-5.8 3.5-9.5 5.6-3.7 2.2-7.1 4.1-9.6 5.4-1.2.7-2.2 1.2-3 1.6-.7.4-1.1.5-1.1.5s.4-.3 1-.6c.7-.4 1.7-1 2.9-1.7 2.5-1.4 5.8-3.4 9.6-5.5 3.7-2.2 7-4.1 9.5-5.6 1.2-.7 2.2-1.3 2.9-1.7.7-.3 1.1-.5 1.1-.5z"/><path class="st12" d="M440.3 161.4s-.1.2-.3.5c-.2.3-.6.8-1.1 1.4-1 1.2-2.6 2.7-4.9 4.2s-5.3 2.8-8.9 3.4c-1.8.3-3.7.4-5.7.2s-3.9-.7-5.9-1.3c-4-1.3-7.5-2.9-11-4-3.4-1.1-6.7-1.4-9.3-1.1-2.7.3-4.7 1.2-6 2-.6.4-1.1.8-1.4 1.1s-.5.4-.5.4.1-.2.4-.4c.3-.3.7-.7 1.3-1.1 1.2-.9 3.3-1.8 6-2.2 2.7-.3 6 0 9.5 1s7.1 2.7 11 3.9c2 .6 3.9 1.1 5.9 1.3 1.9.2 3.8.1 5.6-.1 3.5-.6 6.5-1.9 8.8-3.3 2.3-1.4 3.9-3 4.9-4.1.5-.6.9-1 1.1-1.3.3-.4.5-.5.5-.5zM425.9 128.7s-.3.2-.8.6c-.5.4-1.3.9-2.3 1.5s-2.2 1.3-3.7 1.9c-1.4.6-3 1.3-4.7 1.8s-3.4.9-4.9 1.2-2.9.4-4.1.5-2.1.1-2.8.1c-.7 0-1 0-1-.1 0 0 .4-.1 1-.1.7 0 1.6-.1 2.8-.2 1.2-.1 2.5-.3 4.1-.6 1.5-.3 3.2-.7 4.9-1.2 1.7-.5 3.3-1.2 4.7-1.8 1.4-.6 2.7-1.3 3.7-1.8 1-.6 1.8-1.1 2.4-1.4.3-.2.7-.4.7-.4zM387.9 212.1s-.3-.2-.7-.6c-.5-.5-1.1-1-1.9-1.7-1.6-1.4-3.9-3.3-6.6-5.2-1.3-.9-2.7-1.7-4-2.3-1.3-.5-2.6-.8-3.6-.8-2.2-.1-3.4.5-3.4.5s.1-.1.2-.1c.1-.1.4-.2.7-.3.6-.2 1.5-.4 2.6-.3 1.1 0 2.4.3 3.7.8 1.3.5 2.7 1.3 4.1 2.3 2.7 1.9 5 3.8 6.6 5.3.8.7 1.4 1.4 1.8 1.8.3.3.5.6.5.6zM445.7 225.1l-.2.2c-.2.1-.4.4-.7.6-.7.5-1.7 1.3-3 2-2.7 1.5-6.8 2.9-11.5 2.6-4.7-.3-8.7-2.2-11.1-4-1.2-.9-2.2-1.7-2.7-2.3-.3-.3-.5-.6-.7-.7-.1-.2-.2-.3-.2-.3s.3.3 1 .9c.6.6 1.5 1.4 2.8 2.2 2.5 1.7 6.4 3.5 11 3.8s8.7-1 11.4-2.4c1.3-.7 2.4-1.4 3-1.9.5-.4.9-.7.9-.7zM472 265.8s-.1-.1-.2-.3c-.2-.2-.4-.5-.7-.9-.6-.8-1.5-1.9-2.8-3.2-.3-.3-.7-.6-1.1-1-.2-.2-.4-.3-.6-.5s-.4-.3-.7-.5c-.5-.3-.9-.7-1.4-1s-1.1-.7-1.6-1c-2.3-1.3-5-2.6-8.2-3.4-3.2-.8-6.8-1.3-10.7-.9-3.9.3-7.9 1.5-11.7 3.6-3.8 2.2-7.3 5.1-11.1 8-1.9 1.4-3.9 2.9-6 4.1s-4.4 2.3-6.9 2.9-5 .8-7.5.6c-2.5-.2-4.9-.7-7.2-1.4-4.6-1.4-8.8-3.4-12.6-5.4-3.9-2-7.6-4-11.2-5.4-3.6-1.5-7.1-2.5-10.4-2.8s-6.3 0-8.8.7c-2.5.6-4.6 1.7-6.1 2.7s-2.5 2.1-3.1 2.9c-.3.4-.5.7-.7.9-.2.2-.2.3-.2.3s.1-.1.2-.3c.2-.2.4-.5.6-.9.6-.7 1.6-1.9 3.1-2.9 1.5-1.1 3.6-2.2 6.1-2.8 2.5-.7 5.6-1 8.9-.7s6.9 1.3 10.5 2.8 7.3 3.4 11.2 5.4c3.9 2 8 4 12.6 5.4 2.3.7 4.6 1.2 7.1 1.3 2.4.2 4.9 0 7.4-.6 2.4-.6 4.7-1.6 6.8-2.9 2.1-1.2 4.1-2.7 6-4.1 3.8-2.9 7.3-5.8 11.2-8 1-.5 1.9-1 2.9-1.4l1.5-.6c.5-.2 1-.3 1.5-.5 2-.6 4-.9 6-1.1 3.9-.3 7.6.1 10.8 1 3.2.9 6 2.1 8.2 3.5.6.4 1.1.7 1.6 1 .5.4 1 .7 1.4 1.1.2.2.4.3.7.5.2.2.4.4.6.5.4.3.7.7 1.1 1 1.3 1.3 2.3 2.4 2.8 3.2.3.4.5.7.7.9-.1.1 0 .2 0 .2zM455.2 297.5s-.1.1-.3.1c-.3.1-.6.2-1 .3-.4.1-1 .3-1.6.5s-1.3.4-2.1.5c-.4.1-.8.2-1.3.2-.4.1-.9.1-1.4.2-.9.1-2 .2-3 .3-2.1.1-4.5 0-7-.4s-4.8-1-6.8-1.6c-1-.4-2-.7-2.8-1.1-.4-.2-.9-.4-1.3-.6s-.8-.4-1.1-.6c-.7-.4-1.4-.8-1.9-1.1-.6-.3-1-.6-1.4-.9l-.9-.6c-.2-.1-.3-.2-.3-.2s.1 0 .3.2c.2.1.5.3.9.5s.8.5 1.4.8 1.2.7 1.9 1c.4.2.7.4 1.1.6s.8.4 1.3.5c.9.4 1.8.7 2.8 1.1 2 .6 4.3 1.2 6.7 1.6 2.4.3 4.8.4 6.9.4 1.1-.1 2.1-.1 3-.2.5-.1.9-.1 1.4-.2.4-.1.8-.1 1.2-.2.8-.1 1.5-.3 2.1-.4s1.2-.3 1.6-.4.7-.2 1-.3h.6z"/><path d="m310.5 195.7-4.9-.8-30.2-9.7-17.6-5.1c-4.1-1.4-9.5-1.9-15.3 1-8.3 4.2-31.3 25.6-31.3 25.6l16.6 17.1-7.8 34.5c8.7 24.8 25.8 27.6 25.8 27.6s11.2 1 24.5-4c15.9-6 32.5-20.2 34.6-26.3 1.3-3.7 2.3-11.3 3.1-20l25.1-10.2 6.8-34.7-29.4 5z" style="fill:#454d9b"/><path class="st14" d="m273.8 257.2-.2.2c-.2.1-.4.3-.8.6-.7.5-1.7 1.1-3 1.6-2.6 1.1-6.8 2-11.1 1-4.4-1-7.8-3.5-9.7-5.6-1-1.1-1.7-2-2.1-2.7-.2-.3-.4-.6-.5-.8s-.1-.3-.1-.3.3.4.7 1c.4.7 1.1 1.6 2.1 2.6 1.9 2.1 5.3 4.5 9.6 5.4 4.3.9 8.3.1 11-.9 1.3-.5 2.4-1.1 3-1.5.7-.4 1.1-.6 1.1-.6zM264.3 186.7s0 .1.1.2c0 .1.1.3.1.5.1.4.3 1.1.4 1.9.3 1.7.8 4.1 1 7.1.1 1.5 0 3.2-.3 5s-.9 3.6-2 5.4c-1 1.7-2.5 3.3-4.1 4.8s-3.4 2.8-5.3 4.2c-3.9 2.9-7.7 5.6-11.1 8-3.4 2.4-6.4 4.6-8.8 6.4l-.1.1-.1-.1c-2.1-1.7-3.8-3.2-4.8-4.3-.5-.6-.9-1-1.1-1.3-.1-.2-.2-.3-.2-.4l-.1-.1s.1.2.4.5c.2.3.6.7 1.2 1.3 1.1 1.1 2.7 2.5 4.9 4.2h-.1c2.4-1.9 5.4-4.1 8.8-6.5 3.4-2.4 7.2-5.1 11.1-8 1.8-1.4 3.6-2.7 5.3-4.2 1.6-1.4 3-3 4.1-4.7 1-1.7 1.6-3.5 2-5.2.3-1.7.4-3.4.3-4.9-.1-3-.6-5.4-.9-7.1-.2-.8-.3-1.4-.4-1.9 0-.2-.1-.4-.1-.5l-.2-.4z"/><path class="st15" d="M395.2 202.3c7.1-6.1 9.4-16.9 5.6-25.4-3.3-.3-6.6-.7-9.9-1 5-2.7 8.1-8.7 7.2-14.3-5.4 5.8-14.6 7.5-21.7 4-4.6-2.3-8.4-6.6-13.5-7.5-4.6-.8-9.2 1.4-13.6 2.9-4.4 1.6-9.8 2.4-13.5-.5-2.9-2.3-3.8-6.4-3.6-10.1.2-3.7 1.3-7.4 1.5-11.1.5-7.3-2.7-14.7-8.1-19.6-1.7-5.3-5.7-9.9-10.8-12-6.2-2.6-13.8-1.6-19.1 2.5-2.2 1.7-4 3.9-6.5 5.1-2.8 1.4-6 1.4-9 2.1s-6.2 2.7-6.5 5.8l-1.2 6.3c-.2.5-.4.9-.7 1.3-2.6 4.5-7.8 7.5-8.9 12.5-.6 2.8.2 5.9-.8 8.6-1.3 3.6-5.1 5.6-7 9-2.5 4.6-.8 12.7 3.2 16.1 4 3.4 12.2 7 17.3 8.1 1.4-5.3 2.6-11 3.8-16.9 2.1 2 4.3 3.9 6.5 5.8 5.7 5 11.5 10 15.5 16.5 7.5 12.3 7.7 28.5 17.1 39.3 1.9 2.1 4.1 4 6.8 4.8 2.7.8 5.9.4 7.9-1.6 2.4-2.3 2.7-6.3 5.3-8.4 3.5-2.7 8.5-.6 12.2 1.8 2.7 1.7 5.4 3.5 8.4 4.5 3.1.9 6.6.9 9.2-1s3.7-5.8 1.9-8.4c-.7-1-1.9-1.8-2.6-2.8s-1-2.7.1-3.5c1.1-.9 2.7 0 3.9.7 5.9 3.5 13.5 4.2 19.9 1.8 6.5-2.4 11.7-7.8 13.9-14.4-3.5.7-7 .3-10.2-1z"/><path class="st14" d="M389 147.8s.3.2.9.8c.5.5 1.4 1.4 2 2.7.3.7.6 1.4.8 2.3.1.9.1 1.9-.3 2.9s-1.1 1.9-2.1 2.6c-.5.3-1.1.6-1.8.6-.6.1-1.3 0-1.9-.3-2.6-1.1-3.9-4-6.7-5.4-2.7-1.4-6.2-1.5-9.5-.8-3.4.8-6.6 2.6-9.9 4.4-3.3 1.8-6.8 3.8-10.8 4.5-2 .4-4 .4-6 0-1-.2-1.9-.6-2.8-1-.9-.5-1.6-1.1-2.3-1.7-1.4-1.4-2.3-3-3-4.7s-1-3.5-1.2-5.2c-.4-3.5-.1-6.8 0-9.9.1-3.1-.1-6-.8-8.5-.3-1.3-.8-2.4-1.3-3.5s-1.1-2-1.7-2.9c-1.2-1.7-2.4-3-3.6-4-1.1-1-2.1-1.6-2.7-2-.3-.2-.6-.3-.8-.4-.2-.1-.3-.2-.3-.2s.1 0 .3.1l.8.4c.7.4 1.6 1 2.8 2 1.1.9 2.4 2.2 3.6 4 .6.9 1.2 1.8 1.7 2.9s1 2.2 1.4 3.5c.7 2.5.9 5.5.9 8.6s-.3 6.4.1 9.8c.2 1.7.6 3.5 1.2 5.1.6 1.7 1.6 3.3 2.9 4.6.7.6 1.4 1.2 2.3 1.7.8.4 1.7.8 2.7 1 1.9.4 3.9.4 5.8 0 3.9-.7 7.4-2.6 10.7-4.5 3.3-1.8 6.5-3.7 10-4.4 1.7-.4 3.4-.6 5.1-.4.8 0 1.6.2 2.4.4s1.5.5 2.2.9c2.9 1.4 4.2 4.4 6.6 5.4 1.2.5 2.5.3 3.5-.3s1.7-1.5 2.1-2.5c.4-.9.5-1.9.4-2.8-.1-.9-.4-1.6-.7-2.3-.7-1.3-1.4-2.2-2-2.7l-.6-.6c-.3-.2-.4-.2-.4-.2zM275.4 187.9s0-.1-.1-.3c0-.2-.1-.5-.2-.9-.2-.8-.7-1.9-1.7-3.1-1-1.2-2.6-2.3-4.6-3.2s-4.5-1.4-7.3-1.9c-2.7-.5-5.8-1.1-8.6-3-2.7-1.9-4.9-5-5.5-8.7s.6-7.9 3.5-10.8c2.9-3 6.9-4.4 10.3-7 .8-.7 1.6-1.4 2.2-2.2s1.1-1.8 1.3-2.8c.6-2 .5-4 .7-6 .1-1 .2-2 .6-3 .3-1 .8-1.8 1.5-2.6 1.4-1.5 3.2-2.3 5-2.8s3.6-.8 5.2-1.3c1.7-.5 3.3-1.1 4.6-2 1.3-.9 2.5-2.1 3.4-3.2 1-1.2 1.8-2.4 2.6-3.5 1.5-2.3 2.9-4.5 4.2-6.2 1.4-1.8 2.8-3.1 4.1-4 1.3-.9 2.4-1.4 3.2-1.6.8-.3 1.2-.3 1.2-.3s-.4.1-1.2.4c-.8.3-1.9.8-3.1 1.7-1.3.9-2.6 2.3-4 4s-2.7 3.9-4.2 6.3c-.8 1.2-1.6 2.4-2.6 3.6s-2.1 2.3-3.5 3.3c-1.3 1-3 1.6-4.7 2.1s-3.5.8-5.2 1.3c-1.8.5-3.5 1.3-4.8 2.7-.6.7-1.1 1.6-1.4 2.5s-.4 1.9-.5 2.9c-.2 2-.1 4.1-.7 6.1-.3 1-.8 2-1.4 2.9s-1.4 1.6-2.3 2.3c-1.7 1.3-3.6 2.3-5.3 3.4-1.8 1-3.5 2.2-4.9 3.6-2.8 2.9-3.9 6.9-3.4 10.5s2.7 6.7 5.3 8.5c2.7 1.8 5.8 2.4 8.5 3 2.7.5 5.3 1 7.3 2 2 .9 3.6 2.1 4.6 3.3s1.5 2.4 1.7 3.2c.1.4.1.7.2.8 0-.1 0 0 0 0z"/><path class="st16" d="M330.9 125.5s-.2 0-.5-.1-.8-.3-1.4-.6c-1.2-.5-2.7-1.4-4.1-2.7-1.5-1.3-2.6-2.6-3.3-3.7-.3-.5-.6-1-.8-1.3-.2-.3-.2-.5-.2-.5.1 0 .4.6 1.2 1.7.7 1 1.9 2.3 3.3 3.6 1.4 1.2 2.9 2.2 4 2.7s1.8.8 1.8.9zM354 172.9l-1.2-.3c-.8-.2-1.9-.4-3.4-.4-1.4-.1-3.1 0-5.1.1-1.9.1-4 .3-6.2.3-2.2-.1-4.3-.4-6.1-1.2-1.8-.8-3.2-1.9-4.1-3s-1.4-2.3-1.6-3.1c-.1-.4-.1-.7-.1-.9v-.3l.3 1.2c.2.8.7 1.8 1.6 2.9.9 1.1 2.3 2.1 4 2.9 1.7.7 3.8 1 6 1.1 2.2 0 4.3-.1 6.2-.3 1.9-.1 3.6-.2 5.1-.1 1.4.1 2.6.3 3.4.5.4.1.7.2.9.3l.3.3zM394.9 204.5s-.1 0-.2.1-.3.1-.6.2c-.6.1-1.4.2-2.5-.1-1-.3-2.3-1-3.3-2.1-1.1-1.1-1.9-2.7-2.7-4.5-.8-1.8-1.4-3.8-2.6-5.7-.6-1-1.4-1.8-2.2-2.7-.9-.8-1.9-1.6-2.9-2.2-4.4-2.6-10.1-3.7-16-3.4s-11.4 1.5-16.5 1.8c-5.1.5-9.8-.1-13.5-1.4-3.7-1.3-6.3-3.2-7.7-4.8-.4-.4-.7-.8-.9-1.1-.3-.3-.5-.6-.6-.9-.1-.2-.3-.4-.3-.6-.1-.1-.1-.2-.1-.2s.1.1.1.2c.1.1.2.3.4.5s.4.5.6.8c.3.3.6.7.9 1.1 1.5 1.6 4 3.5 7.7 4.7s8.3 1.8 13.4 1.3c5.1-.4 10.6-1.5 16.6-1.8 5.9-.3 11.7.8 16.1 3.4 1.1.7 2.1 1.5 3 2.3.9.9 1.7 1.8 2.2 2.8 1.3 1.9 1.9 4 2.6 5.8s1.5 3.4 2.6 4.5c1 1.1 2.2 1.8 3.2 2.1s1.9.3 2.4.2c.6-.2.8-.3.8-.3z"/><path class="st17" d="M285.6 125.5c-2.7-.1-5 1.9-5.3 4.6l-5.6 58.5c-1 8.2 9.8 25.9 18.6 26.9 8.9 1 9.8-3.3 10.9-11.1 1.9-13 2.6-17.9 2.6-17.9s11.5-.4 15.7-14.7c2.1-7.1 3.3-19.1 4-29 .6-8.9-3.8-20.4-12.7-20.6l-28.2 3.3z"/><path class="st14" d="M322.6 150.6c-.1 1-1 1.7-2.1 1.7-1-.1-1.8-1-1.7-1.9.1-1 1-1.7 2.1-1.7s1.8.9 1.7 1.9zM323.4 146.8c-.2.3-1.7-.7-3.8-.6-2 .1-3.5 1.3-3.7 1-.1-.1.1-.6.7-1.1s1.7-1 2.9-1.1c1.3-.1 2.4.3 3 .7.8.5 1 1 .9 1.1zM304.8 151.6c-.2.2-1.6-.9-3.7-.9-2-.1-3.6.9-3.8.7-.1-.1.1-.6.8-1 .7-.5 1.8-.9 3-.8 1.3 0 2.3.5 2.9 1 .7.5.9.9.8 1zM308.6 162.4c0-.1 1.3-.2 3.4-.2.5 0 1 0 1.2-.4s0-.9-.1-1.6c-.3-1.3-.7-2.7-1-4.1-1.4-5.9-2.3-10.7-2.1-10.7.2-.1 1.6 4.7 2.9 10.5.3 1.4.6 2.8.9 4.1.1.6.4 1.3 0 2.1-.2.4-.6.6-.9.6-.3.1-.6 0-.9 0-2.2 0-3.5-.2-3.4-.3z"/><path class="st18" d="M306.8 186.5s-9.9-.7-18.9-7.8c0 0 3.6 10.7 18.5 11.3l.4-3.5z"/><path class="st6" d="M305 148.1c-.3.5-2.2-.2-4.6-.5s-4.4-.1-4.6-.6c-.1-.3.4-.7 1.2-1 .9-.3 2.2-.6 3.6-.4 1.4.2 2.7.7 3.4 1.2.9.6 1.2 1.1 1 1.3zM323.1 144c-.3.5-1.8.1-3.4.1-1.7 0-3.1.5-3.5 0-.2-.2 0-.7.6-1.2s1.6-.9 2.8-.9c1.2 0 2.2.3 2.8.8.7.5.9 1 .7 1.2z"/><path class="st18" d="M303.6 166.1c.9-.6 2.1-.9 3.2-.7.6.1 1.1.3 1.5.8.5.6.5 1.4.5 2.1 0 .4 0 .9-.2 1.3s-.4.8-.8 1-.9.1-1.4.1c-.8-.1-1.5-.3-2.1-.8-.6-.4-1.1-1.1-1.2-1.9-.1-.8.4-1.6 1.1-1.8"/><path class="st14" d="M309.1 170.5c-.1.1-.4-.4-.9-1s-1.2-1.4-2.2-2-2-.8-2.8-.9c-.8-.1-1.3-.1-1.3-.3 0-.1.5-.4 1.3-.5.9-.1 2.1.1 3.3.7 1.2.7 2 1.7 2.3 2.5.4.9.5 1.5.3 1.5z"/><path class="st15" d="M273.9 184.6c4.8-1 8.6-5.1 10.2-9.7 1.7-4.6 1.6-9.7 1.1-14.6-.1-.6-.2-1.3-.7-1.7-.7-.6-1.8-.1-2.6.4-3 1.9-6 3.9-8.7 6.1-2.6 2.1-5.1 4.5-6.1 7.7-1.5 4.9 1.7 10.7 6.6 11.9"/><path class="st17" d="m384.9 183.5-22.8-36.6-6.3-12.9s-2-2.7-4.1-4.9c-3.4-3.7-6.8-.8-6.8-.8s-.5-1.4-2.3-1.4c-2.1 0-3.2 1.6-3.2 1.6s-.9-1-3.5-1.2c-.6 0-1.1.2-1.6.5-.8-.7-2.4-1.8-3.9-1.3-1.2.4-8.3 5.8-10 8.5-.9 1.3.7 3.1 2.9 2.3.9-.4 1.9-.6 2.6-1.1 1.2-.7 1.8-1.4 1.8-1.4s-1.8 3.1 0 3.7c.7.2 2.3.1 3.4-.8.7-.6 1.5-1.3 2.2-2l-.1.1c-1 1.5 1.6 3.6 2.8 2.7.6-.4 1.2-.9 1.7-1.3 2.9 2.1-1.1 4.8-2.8 4.7-2.6-.2-5.7-.2-7.8 0-1.5.1-2.8.5-3.6 1.3-1 1 0 3.1 1.4 3.3 2.5.4 5.7.9 9 1.8 3.9 1 14.1 4.3 14.1 4.3l1 .8 13.9 33.8-23.7 5-5.3 30.1 42.8-11.6c9.5-5.2 14.1-18.1 8.2-27.2z"/><path class="st18" d="M347.9 152.4s-.2 0-.5-.1c-.4-.1-.9-.3-1.5-.4-1.4-.4-3.3-1-5.6-1.7-1.2-.4-2.5-.8-3.9-1.2s-2.9-.9-4.5-1.3-3.3-.8-5-1c-.9-.1-1.8-.1-2.7-.5-.2-.1-.4-.3-.6-.5-.1-.1-.2-.2-.2-.4l-.1-.4c-.1-.5-.1-1 .1-1.5s.5-.9 1-1.1c.4-.2.9-.4 1.3-.5.9-.3 1.8-.3 2.7-.3 1.8 0 3.5.3 5.1.2.8 0 1.6-.1 2.4-.2.8-.1 1.5-.3 2.2-.5 1.4-.4 2.8-.6 4.1-.5 1.3.1 2.4.5 3.3.8.9.4 1.7.8 2.3 1.1.6.3 1.1.6 1.4.8s.5.3.5.3-.2-.1-.5-.3c-.4-.2-.8-.4-1.4-.8-.6-.3-1.4-.7-2.3-1.1-.9-.4-2-.7-3.2-.8s-2.6.2-4 .6c-.7.2-1.4.4-2.2.5l-2.4.3c-1.7.1-3.4-.2-5.1-.2-.9 0-1.8.1-2.6.3-.9.3-1.8.6-2.1 1.4-.1.4-.1.9-.1 1.3v.3c0 .1.1.2.1.2.1.1.3.3.5.4.8.4 1.7.3 2.6.5 1.8.2 3.5.7 5.1 1.1 1.6.4 3.1.9 4.5 1.3s2.7.8 3.9 1.2c2.3.7 4.2 1.4 5.6 1.8.6.2 1.1.4 1.5.5.1.4.3.4.3.4zM330.4 126.5c0 .1-1.1.7-2.7 1.9-.8.6-1.8 1.4-2.7 2.4-1 .9-2 2.1-3.2 3.1-.6.5-1.1 1-1.3 1.7-.1.3 0 .7.1.9.2.3.4.5.7.6.6.2 1.3.1 1.8 0 .6-.1 1.1-.3 1.6-.5 1.9-.8 2.8-1.8 2.8-1.7 0 0-.2.3-.6.6-.4.4-1.1.9-2.1 1.3-.5.2-1 .4-1.6.5s-1.3.2-2 0c-.3-.1-.7-.3-.9-.7-.2-.4-.3-.8-.2-1.2.2-.8.8-1.4 1.4-1.9 1.2-1 2.2-2.1 3.2-3.1 1-.9 2-1.7 2.8-2.3.8-.6 1.6-1 2.1-1.3.5-.2.7-.3.8-.3z"/><path class="st18" d="M339 129.4s-.3.4-.8 1c-.6.6-1.4 1.5-2.3 2.5-1 1.1-2.1 2.3-3.4 3.7-.7.7-1.4 1.4-2.4 1.8-.5.2-1 .4-1.6.4s-1.2-.2-1.6-.6c-.2-.2-.3-.6-.4-.9 0-.3 0-.6.1-.9.2-.6.4-1.1.7-1.5 1.2-1.3 2.4-2.5 3.4-3.7 1-1.1 2-2 2.9-2.8.4-.4.8-.7 1.2-1 .4-.2.8-.2 1.1-.2.6 0 1 0 .9.1h-.9c-.3.1-.7.1-1.1.3-.4.2-.7.6-1.1 1-.8.8-1.8 1.7-2.8 2.8s-2.1 2.4-3.4 3.7c-.3.4-.5.9-.7 1.4-.1.3-.1.5-.1.8 0 .2.1.5.3.7.3.4.9.5 1.3.5.5 0 1-.1 1.4-.4.9-.4 1.7-1.1 2.3-1.7 1.3-1.4 2.5-2.6 3.5-3.6l2.4-2.4.7-.7c.3-.3.4-.3.4-.3zM349.7 132.7s0 .2-.3.4c-.2.2-.7.4-1.2.3-.5-.1-.8-.4-1-.7s-.2-.5-.1-.5.1.1.3.3c.2.2.5.4.8.5.4.1.7 0 1-.1.3-.1.4-.2.5-.2z"/><path class="st18" d="M350.5 135.9c-.1.1-.6-.5-1.1-1.2-.5-.8-.7-1.5-.6-1.5s.4.6.9 1.3c.5.7.9 1.4.8 1.4zM352.1 148.4s-.3-.5-.7-1.4c-.3-.9-.6-2.3-.6-3.8s.3-2.9.7-3.8c.3-.9.7-1.4.7-1.4.1 0-1 2.3-1 5.2-.1 2.9 1 5.1.9 5.2zM370.8 196.5c-.1 0-.1-.7-.5-1.9-.2-.6-.5-1.2-.8-1.9-.4-.7-.9-1.4-1.5-2.1-.6-.7-1.2-1.2-1.9-1.7-.6-.5-1.2-.8-1.8-1.1-1.1-.5-1.8-.7-1.8-.7s.2 0 .5.1.8.2 1.4.4 1.2.6 1.9 1c.7.5 1.3 1 2 1.7.6.7 1.1 1.5 1.5 2.2s.6 1.4.8 2c.2.6.2 1.1.3 1.4-.1.4-.1.6-.1.6z"/><path class="st17" d="M291.3 263.5c-3-.6-5.8.7-5.8.7-3.1-1.4-6.9 1-6.9 1-1.1-.5-7.9 3.9-7.9 3.9l-8.4 4-44.9-33.3 12.7-13.2-17.8-18.5-20.9 21.5c-2.6 2.7-3.9 6.3-4.2 10.1-.5 8.2 4.1 15.8 11.4 19.5l52.9 27.1s5.6-.2 12-1.9c4.6-1.2 12.4-4.6 12.4-4.6s0 .2 1.4 2.9c2.5 4.9 6.2-.4 6.2-.4s.8 1.7 1.4 2.4c3.2 3.1 5.4-1.1 5.4-1.1s1 1.7 3.8.4c2.8-1.2-.4-9.8-.4-9.8s1 1.9 2.8-.5c1.8-2.4-2.2-9.6-5.2-10.2z"/><path class="st18" d="M284.9 264.6s.2-.1.6-.2 1-.1 1.7.1 1.5.6 2.2 1.1c.4.3.8.6 1.1 1 .4.4.6.9.9 1.4 1 1.9 1.6 3.8 2.1 5.2.2.7.3 1.2.4 1.6s.1.6.1.6c-.1 0-.3-.8-.8-2.2-.5-1.3-1.2-3.1-2.1-5.1-.2-.5-.5-.9-.8-1.3s-.7-.7-1.1-1c-.7-.6-1.5-1-2.1-1.2-1.3-.3-2.2.1-2.2 0zM290.3 283.5s-.2-.3-.4-.8c-.3-.6-.6-1.3-1-2.1-.8-1.8-2-4.3-3.2-7.1-.6-1.4-1.1-2.7-1.8-3.8-.7-1.1-1.7-1.8-2.6-2.2-.9-.4-1.7-.5-2.2-.4s-.8.2-.8.2.1-.1.2-.1c.1-.1.3-.1.6-.2.6-.1 1.4-.1 2.4.3.9.4 2 1.1 2.8 2.2s1.3 2.5 1.9 3.9c1.1 2.8 2.3 5.3 3.1 7.1.4.9.7 1.7.9 2.2 0 .5.1.8.1.8zM269.7 272.8s.2-.2.7-.4c.5-.3 1.2-.6 2-1 .4-.2.9-.4 1.4-.6s1.2-.3 1.8-.3c.6.1 1.3.3 1.9.7.6.4 1 1 1.4 1.6s.7 1.3 1 1.9.6 1.2.9 1.7c.6 1.1 1.2 2 1.6 2.9.4.8.7 1.6.9 2 .2.5.2.8.2.8-.1 0-.4-1.1-1.3-2.7-.4-.8-1-1.8-1.7-2.8-.3-.5-.6-1.1-.9-1.7s-.6-1.2-1-1.8c-.4-.6-.8-1.2-1.3-1.6s-1.1-.6-1.7-.7-1.2 0-1.7.2-1 .4-1.4.6c-.8.3-1.5.6-2.1.9-.4.2-.7.3-.7.3zM270.7 269.1s-.2.2-.6.4c-.4.2-1 .5-1.7.9-1.5.8-3.5 1.8-5.8 3-2.3 1.1-4.3 2.2-5.8 2.9-.7.4-1.4.6-1.8.8-.4.2-.7.3-.7.3s.2-.2.6-.4c.4-.2 1-.5 1.7-.9 1.5-.8 3.5-1.8 5.8-3 2.3-1.1 4.3-2.2 5.8-2.9.7-.4 1.4-.6 1.8-.8.5-.3.7-.4.7-.3zM218 239.8c0 .1-2.4-.5-5.3-.2s-5.1 1.5-5.1 1.4c0 0 .5-.4 1.4-.8.9-.4 2.2-.8 3.7-1s2.9-.1 3.8.1c1 .2 1.6.4 1.5.5z"/><path class="st15" d="M317.1 119.4c-11.1-.2-22.2 1-33 3.5-2.5.6-5.2 1.3-6.9 3.2-1.8 2-2.1 5-2.3 7.7l-.9 9.9c-.5.8-1 1.6-1.6 2.4-2.6 3.4-5.9 6.3-8.3 9.8-2.4 3.6-3.7 8.3-1.8 12.2 1.2 2.3 3.3 4 4.9 6 2.7 3.5 3.6 8 5.1 12.1 1.6 4.1 4.4 8.3 8.7 9.1 2.1.4 4.2 0 6.3.3 3.1.5 5.7 2.5 8.2 4.4s5.1 3.9 8.3 4.2c3.1.3 6.7-1.8 6.8-4.9-2.3 1.3-5.3 1.2-7.6-.2-1.8-1.2-3-3.1-4.6-4.7-3.8-3.7-10-4.9-12.7-9.5-2.1-3.7-1.3-8.3-.3-12.4.8-3.6 1.7-7.5.6-10.9.1-.6.1-1.1.1-1.7 0-3.7-1.4-7.6.3-10.8 2.3-4.3 8.7-4.8 11-9.1 1.3-2.5.9-5.7 2.3-8.1 1.4-2.3 4.1-3.3 6.7-3.9 2.6-.6 5.3-.8 7.6-2.2 2.4-1.1 4.1-4 3.1-6.4z"/><path class="st14" d="M325.5 193.9s0 .1-.1.2-.2.3-.3.5c-.3.4-.8 1-1.6 1.6-.8.6-1.8 1.2-3.2 1.7-1.3.5-3 .7-4.7.5-1.8-.1-3.7-.9-5.3-2.2-1.7-1.3-3.1-3-5-4.3-.9-.7-2-1.2-3.2-1.3-1.2-.2-2.4.2-3.5.6-1.2.5-2.3 1.1-3.7 1.3-1.3.2-2.7-.1-4-.7-1.2-.6-2.3-1.4-3.3-2.2s-2-1.6-2.9-2.5-1.7-2-2.1-3.1c-.5-1.2-.5-2.5-.2-3.6.2-1.2.7-2.2 1.1-3.3.4-1 .7-2 1.1-3 .6-2 1-3.9 1.3-5.6.5-3.5.5-6.3.4-8.3 0-1-.1-1.7-.2-2.3 0-.2 0-.4-.1-.6v-.2.2c0 .2.1.3.1.6.1.5.2 1.3.2 2.3.1 2 .2 4.8-.3 8.3-.3 1.7-.7 3.6-1.3 5.6-.3 1-.6 2-1 3s-.8 2.1-1 3.2c-.2 1.1-.2 2.3.2 3.4s1.1 2.1 2 3 1.9 1.7 2.9 2.5 2.1 1.6 3.3 2.2c1.2.6 2.5.9 3.7.7 1.3-.2 2.4-.8 3.6-1.2 1.2-.5 2.5-.8 3.7-.7 1.3.2 2.4.7 3.3 1.4 1.9 1.4 3.4 3.1 5 4.3 1.6 1.3 3.4 2 5.2 2.2 1.7.2 3.3-.1 4.6-.5 1.3-.4 2.4-1 3.1-1.6 1.7-1.1 2.2-2.1 2.2-2.1z"/><path class="st16" d="M256.1 171.8s-.2-.2-.6-.8c-.3-.5-.7-1.4-1-2.5-.3-1.2-.3-2.6.1-4.3.4-1.6 1.1-3.5 2.4-5.2s3-3.3 5-4.7c2-1.5 4.3-2.9 6.5-4.5s4.5-3.5 6.2-6c.8-1.2 1.4-2.7 1.9-4.1.4-1.5.8-3 1.1-4.6.4-1.6.8-3.1 1.4-4.6s1.6-2.8 2.7-3.8c1.2-1 2.5-1.7 3.9-2.2s2.8-.7 4.2-.8c2.8-.2 5.5.1 7.9.3 2.5.2 4.8.3 6.9.1 2.1-.2 3.9-.8 5.4-1.6 1.5-.8 2.6-1.7 3.3-2.7.7-.9 1.1-1.7 1.3-2.3l.3-.9s0 .3-.2.9-.6 1.5-1.3 2.4c-.7.9-1.8 1.9-3.3 2.7-1.5.8-3.3 1.5-5.4 1.7s-4.4.1-6.9 0c-2.5-.2-5.1-.5-7.9-.2-1.4.1-2.8.4-4.1.8a9.5 9.5 0 0 0-3.8 2.1c-1.1 1-2 2.2-2.6 3.7-.6 1.4-1 2.9-1.4 4.5s-.7 3.1-1.1 4.6c-.5 1.5-1.1 3-1.9 4.2-1.7 2.6-4 4.5-6.3 6.1s-4.5 3-6.5 4.4-3.7 3-5 4.7c-1.3 1.6-2 3.4-2.4 5s-.4 3.1-.1 4.2c.3 2.4 1.4 3.4 1.3 3.4z"/><path class="st16" d="M258.1 175.5s-.9-.6-2.1-2c-.6-.7-1.4-1.7-1.9-2.9-.2-.6-.4-1.4-.3-2.2.1-.8.4-1.6.9-2.3 1.1-1.4 3-2.1 4.9-2.5l3-.6c1-.3 2.1-.6 3-1.2.9-.6 1.6-1.5 2.2-2.6.5-1 .9-2.2 1.3-3.3.4-1.2.8-2.3 1.4-3.5.6-1.1 1.5-2.2 2.6-2.9s2.4-1.1 3.6-1.4c1.2-.3 2.4-.6 3.6-1 2.3-.7 4.1-2.3 5.5-4.1 1.4-1.7 2.4-3.6 3.4-5.4 1-1.7 2-3.3 3.1-4.6s2.4-2.3 3.6-2.9c1.2-.6 2.4-.9 3.3-1 1-.1 1.7 0 2.2.2.5.1.7.3.7.3s-.3-.1-.7-.2c-.5-.1-1.2-.2-2.2-.1a9 9 0 0 0-3.2 1c-1.2.6-2.4 1.6-3.5 2.9-1.1 1.3-2.1 2.9-3.1 4.6-1 1.7-2 3.6-3.4 5.4-.7.9-1.5 1.7-2.5 2.5-.9.7-2 1.3-3.2 1.7s-2.4.7-3.6 1-2.4.7-3.5 1.4-1.9 1.6-2.5 2.8c-.6 1.1-1 2.3-1.4 3.4-.4 1.2-.8 2.3-1.4 3.4-.6 1.1-1.3 2-2.3 2.7s-2 1-3.1 1.3c-1 .3-2.1.4-3 .6-1.9.4-3.7 1.1-4.8 2.4-.5.6-.8 1.4-.9 2.1-.1.7.1 1.5.3 2.1.5 1.3 1.2 2.2 1.8 2.9.6.7 1.1 1.2 1.5 1.6l.4.4c.3-.1.3 0 .3 0z"/><path class="st18" d="M343.7 130.6s-.1.2-.4.5-.6.8-1.1 1.4c-.9 1.1-2.3 2.7-3.9 4.3-.8.8-1.5 1.7-2.6 2-.5.2-1 .2-1.5 0s-.8-.5-.9-.9c-.4-.7-.3-1.4-.3-1.8.1-.4.1-.6.2-.6v.6c0 .4 0 1 .3 1.6.2.3.5.6.8.7.4.1.8.1 1.3 0 .9-.3 1.6-1.1 2.4-1.9 1.6-1.6 3-3.1 4-4.2s1.7-1.8 1.7-1.7z"/><path class="st18" d="M349 130.6s-.1.2-.4.5-.7.8-1.2 1.4c-.6.6-1.2 1.3-1.9 2-.4.4-.7.8-1.1 1.2s-.8.8-1.3 1.2-1.1.6-1.7.7c-.6.1-1.2-.2-1.6-.7-.2-.2-.3-.5-.3-.8s.1-.5.2-.7c.3-.4.5-.7.7-1.1.5-.6.8-1.1 1.1-1.5.3-.3.4-.5.4-.5l-.3.6c-.2.4-.6.9-1 1.6-.2.3-.5.7-.7 1.1-.2.4-.3.8 0 1.2s.8.6 1.3.5c.5 0 1-.3 1.5-.6s.9-.8 1.3-1.2.8-.8 1.1-1.2c.7-.7 1.4-1.4 1.9-2l1.3-1.3c.5-.3.7-.4.7-.4z"/><path class="st6" d="M421.6 343.4c1.2-2.6 3.7-4.5 6.5-5s5.8.5 7.8 2.5c-1.4 2.4-3.8 4-6.4 4.9-3.1 1.1-6.4-.1-7.9-2.4"/><path class="st14" d="M416.6 344.5s.7-.3 2-.6 3-.7 4.9-1 3.7-.6 5-.7c1.3-.2 2.1-.2 2.1-.2s-.8.2-2 .4c-1.4.2-3.1.5-5 .8s-3.7.6-5 .9c-1.2.3-1.9.5-2 .4z"/><path class="st6" d="M173.1 299.4c2.9 2.4 4.6 6.4 4.2 10.2-.4 3.8-2.8 7.3-6.2 9.1-2.6-6.6-3.6-13.6 2-19.3M182.8 304.4c.3 4.9 3.2 9.7 7.4 12.1 4.3 2.5 9.8 2.7 14.2.5-4.8-7.7-11.4-14.1-21.6-12.6"/><path class="st14" d="m160.6 280.2.3.3c.2.3.5.6.9 1 .7.9 1.8 2.2 3.2 3.8 2.7 3.2 6.5 7.5 11.1 12.1 2.3 2.3 4.5 4.4 6.5 6.2 2.1 1.8 4 3.4 5.7 4.7 1.7 1.2 3.1 2.2 4.1 2.8 1 .6 1.6.8 1.6.9 0 0-.2 0-.4-.2-.3-.1-.7-.3-1.2-.6-1.1-.5-2.5-1.5-4.2-2.7s-3.6-2.8-5.7-4.6c-2.1-1.8-4.3-3.9-6.6-6.2-4.5-4.5-8.3-8.9-11-12.2-1.3-1.6-2.4-3-3.1-3.9-.3-.4-.6-.8-.8-1.1-.3-.1-.4-.3-.4-.3z"/><path class="st14" d="M172.6 309.3c-.1 0 .2-1 .4-2.6s.3-3.8.1-6.2c-.3-2.4-.8-4.5-1.3-6s-.9-2.4-.9-2.4.1.2.4.6c.2.4.5 1 .8 1.7.6 1.5 1.2 3.7 1.5 6.1s.1 4.7-.2 6.3c-.1.8-.3 1.4-.4 1.9-.3.4-.4.6-.4.6z"/><path class="st6" d="M479.4 168.6c-1.7-2.3-2.2-5.4-1.3-8.1.9-2.7 3.2-4.9 5.9-5.7 1.5 2.3 1.7 5.2 1.3 8-.6 3.2-3.2 5.6-5.9 5.8"/><path class="st14" d="M478 173.5s.1-.8.4-2.1.9-3 1.5-4.8c.6-1.9 1.3-3.5 1.7-4.7.5-1.2.8-1.9.8-1.9s-.2.8-.6 2c-.5 1.3-1 3-1.6 4.8-.6 1.9-1.2 3.5-1.6 4.8-.3 1.1-.5 1.9-.6 1.9z"/><path class="st6" d="M448.7 220.3c-1.4-5.3-.1-11.3 3.5-15.5s9.3-6.5 14.7-5.9c1 5.3-.7 10.7-3.4 15.2-3.3 5.5-9.8 7.7-14.8 6.2"/><path class="st14" d="M428.2 240.9s.1-.1.3-.4c.2-.3.5-.6.9-1 .8-.9 2-2.1 3.4-3.7 2.9-3.1 7-7.2 11.5-11.8s8.7-8.7 11.7-11.7c1.5-1.5 2.7-2.6 3.6-3.5.4-.4.7-.7 1-.9.2-.2.4-.3.4-.3s-.1.1-.3.4c-.2.3-.6.6-.9 1-.9.9-2 2.1-3.5 3.6-3 3-7.1 7.2-11.6 11.8s-8.6 8.7-11.6 11.7c-1.5 1.5-2.6 2.7-3.5 3.6-.4.4-.7.7-.9 1-.4.1-.5.2-.5.2z"/><path d="M448.7 220.3c-1.4-5.3-.1-11.3 3.5-15.5s9.3-6.5 14.7-5.9c1 5.3-.7 10.7-3.4 15.2-3.3 5.5-9.8 7.7-14.8 6.2" class="st19"/><path class="st6" d="M439.2 222.4c-3-1.5-5.2-4.6-5.6-8s.9-6.9 3.4-9.1c2.8 1.7 4.6 4.7 5.5 7.9 1.1 3.6-.5 7.5-3.3 9.2"/><path d="M439.2 222.4c-3-1.5-5.2-4.6-5.6-8s.9-6.9 3.4-9.1c2.8 1.7 4.6 4.7 5.5 7.9 1.1 3.6-.5 7.5-3.3 9.2" class="st19"/><path class="st14" d="M440.3 228.3s-.1-.2-.2-.6c-.1-.4-.2-1-.4-1.8-.3-1.5-.6-3.6-.9-5.9-.3-2.3-.5-4.4-.6-6-.1-1.5-.2-2.5-.1-2.5 0 0 .2.9.4 2.5s.4 3.7.7 5.9c.3 2.3.5 4.4.8 5.9.2 1.6.4 2.5.3 2.5z"/><path class="st6" d="M309.1 303c2.1-5 6.9-8.8 12.2-9.8 5.3-1 11.1.9 14.9 4.8-8 6.1-17.2 10.3-27.1 5"/><path d="M309.1 303c2.1-5 6.9-8.8 12.2-9.8 5.3-1 11.1.9 14.9 4.8-8 6.1-17.2 10.3-27.1 5" class="st19"/><path class="st14" d="M304.6 305.4s.2-.2.6-.5 1-.7 1.8-1.2c1.6-.9 3.8-2 6.5-2.9s5.1-1.3 7-1.5c.9-.1 1.6-.1 2.2-.2h.8c0 .1-1.1.1-2.9.4s-4.3.8-6.9 1.6c-2.6.9-4.9 1.9-6.5 2.8-1.6.9-2.6 1.6-2.6 1.5z"/><path class="st6" d="M125.8 212.4c3.8-1.8 8.5-1.5 12 .7 3.6 2.2 5.9 6.3 6 10.5-7.6-.6-15-3-18-11.2"/><path d="M125.8 212.4c3.8-1.8 8.5-1.5 12 .7 3.6 2.2 5.9 6.3 6 10.5-7.6-.6-15-3-18-11.2" class="st19"/><path class="st14" d="M122 211.5h.6c.4 0 1 .1 1.6.3 1.4.3 3.3.8 5.2 1.7 2 .9 3.6 1.9 4.8 2.7.6.4 1 .8 1.3 1 .3.3.5.4.4.4 0 0-.7-.5-1.9-1.3s-2.8-1.8-4.8-2.6c-1.9-.9-3.8-1.4-5.2-1.8-1.2-.2-2-.4-2-.4z"/><path class="st6" d="M374.9 294.4c-.5-3.7 1.1-7.6 3.9-10 2.9-2.4 7-3.3 10.6-2.2-2.6 6.4-6.7 12-14.5 12.2"/><path class="st14" d="M373.1 297.4s.2-.7.9-1.8c.6-1.1 1.6-2.6 2.9-4s2.6-2.6 3.7-3.3c1-.7 1.7-1.1 1.7-1.1s-.6.5-1.6 1.3-2.3 1.9-3.5 3.3c-1.3 1.4-2.3 2.8-2.9 3.9-.8 1.1-1.2 1.8-1.2 1.7z"/><path class="st6" d="M429.6 258.3c-1.1-3.6-.4-7.7 2-10.6 2.4-2.9 6.2-4.5 10-4.2-1.4 6.8-4.3 13.1-12 14.8"/><path d="M429.6 258.3c-1.1-3.6-.4-7.7 2-10.6 2.4-2.9 6.2-4.5 10-4.2-1.4 6.8-4.3 13.1-12 14.8" class="st19"/><path class="st14" d="M428.4 261.6s.1-.8.5-2 1.1-2.8 2.1-4.5c1-1.7 2.1-3 3-3.9s1.5-1.4 1.5-1.4-.5.6-1.3 1.5-1.9 2.3-2.9 3.9-1.7 3.2-2.1 4.4c-.5 1.3-.8 2-.8 2z"/><path class="st6" d="M17.3 208.6c.8-3.7 3.6-6.8 7.1-8.2 3.5-1.3 7.7-.8 10.7 1.4-4.7 5.2-10.4 9.2-17.8 6.8"/><path class="st14" d="M14.5 210.8s.5-.6 1.4-1.5c.9-.8 2.4-1.9 4-2.8 1.7-.9 3.3-1.5 4.5-1.9s2-.5 2-.4-.7.3-1.9.7c-1.2.4-2.8 1.1-4.5 2s-3.1 1.9-4.1 2.7c-.7.8-1.3 1.3-1.4 1.2z"/></g></svg>