<svg xmlns="http://www.w3.org/2000/svg" viewBox="0 0 750 500" style="enable-background:new 0 0 750 500" xml:space="preserve"><style>.st0{stroke-width:.6756}.st0,.st1,.st4{fill:#fff;stroke:#78909c;stroke-miterlimit:10}.st4{fill:none;stroke-linecap:round}.st5{fill:#78909c}.st6,.st7{stroke:#78909c;stroke-miterlimit:10}.st6{fill:#fff;stroke-linecap:round;stroke-linejoin:round}.st7{fill:none}</style><g id="OBJECTS"><path class="st0" d="M547.9 243.9c0-.4.1-.8.1-1.2 0-6-4.8-10.8-10.8-10.8-1.4 0-2.7.3-3.9.8-1.4-8.1-8.3-14.2-16.8-14.2-8.2 0-15 5.8-16.7 13.5h-.2c-4.5 0-8.1 3.6-8.1 8.1 0 1.4.4 2.7 1 3.9h55.4zM741.1 310.2c0-.4.1-.8.1-1.2 0-6-4.8-10.8-10.8-10.8-1.4 0-2.7.3-3.9.8-1.4-8.1-8.3-14.2-16.8-14.2-8.2 0-15 5.8-16.7 13.5h-.2c-4.5 0-8.1 3.6-8.1 8.1 0 1.4.4 2.7 1 3.9h55.4z"/><path class="st1" d="M460.5 353.2c-.1-9-.4-15.3-.7-15.3-.3 0-.6 6.3-.7 15.3h1.4z"/><path class="st1" d="M461 346.3h-2.4c-.5 0-.9.4-.9.9v11.6h4.3v-11.6c-.1-.5-.5-.9-1-.9zM455.9 367.7h7.8v47.9h-7.8z"/><path class="st1" d="M463.3 355.2h-7c-1.2 0-2.3 1-2.3 2.3v8c0 1.2 1 2.3 2.3 2.3h7c1.2 0 2.3-1 2.3-2.3v-8c0-1.3-1-2.3-2.3-2.3zM505.7 387.1c-.2-9-.6-15.3-1.2-15.3-.5 0-1 6.3-1.2 15.3h2.4z"/><path class="st1" d="M528 402c-2.3-10.9-11.9-19-23.5-19-11.5 0-21.2 8.1-23.5 19h47z"/><path class="st1" d="M461.9 399.2h85.3v11.2h-85.3zM447 410.4h115.1v6.7H447zM447 417.1h115.1v27.7H447z"/><path class="st1" d="M453.5 422h102.1v22.8H453.5z"/><path class="st1" d="M473.6 403.8h7v41h-7zM459.6 434v-7.9c0-1-.8-1.8-1.8-1.8s-1.8.8-1.8 1.8v7.9h3.6zM455.9 437.2h3.7v5.7h-3.7zM465.6 434v-7.9c0-1-.8-1.8-1.8-1.8s-1.8.8-1.8 1.8v7.9h3.6zM461.9 437.2h3.7v5.7h-3.7zM471.5 434v-7.9c0-1-.8-1.8-1.8-1.8s-1.8.8-1.8 1.8v7.9h3.6zM467.8 437.2h3.7v5.7h-3.7zM541.2 434v-7.9c0-1-.8-1.8-1.8-1.8s-1.8.8-1.8 1.8v7.9h3.6zM537.5 437.2h3.7v5.7h-3.7zM547.2 434v-7.9c0-1-.8-1.8-1.8-1.8s-1.8.8-1.8 1.8v7.9h3.6zM543.5 437.2h3.7v5.7h-3.7zM553.2 434v-7.9c0-1-.8-1.8-1.8-1.8s-1.8.8-1.8 1.8v7.9h3.6zM549.5 437.2h3.7v5.7h-3.7zM483.2 426.1v18.7h3.8v-18.7c0-1-.9-1.8-1.9-1.8-1.1 0-1.9.8-1.9 1.8zM489.7 426.1v18.7h3.8v-18.7c0-1-.9-1.8-1.9-1.8-1 0-1.9.8-1.9 1.8zM496.3 426.1v18.7h3.8v-18.7c0-1-.9-1.8-1.9-1.8-1.1 0-1.9.8-1.9 1.8zM502.8 426.1v18.7h3.8v-18.7c0-1-.9-1.8-1.9-1.8-1 0-1.9.8-1.9 1.8zM509.4 426.1v18.7h3.8v-18.7c0-1-.9-1.8-1.9-1.8-1.1 0-1.9.8-1.9 1.8zM515.9 426.1v18.7h3.8v-18.7c0-1-.9-1.8-1.9-1.8-1 0-1.9.8-1.9 1.8zM522.4 426.1v18.7h3.8v-18.7c0-1-.9-1.8-1.9-1.8-1 0-1.9.8-1.9 1.8zM528.5 403.8h7v41h-7z"/><path class="st1" d="M0 444.6h750v4.5H0z"/><path d="M127.8 199.3c.1-.5.1-1 .1-1.5 0-7.6-6.1-13.7-13.7-13.7-1.8 0-3.4.3-5 1-1.7-10.2-10.6-18-21.3-18-10.4 0-19.1 7.3-21.2 17.1h-.3c-5.7 0-10.3 4.6-10.3 10.3 0 1.8.5 3.5 1.3 4.9h70.4z" style="fill:#fff;stroke:#78909c;stroke-width:.8572;stroke-miterlimit:10"/><path d="M304.6 243.9c0-.3.1-.6.1-.9 0-4.7-3.8-8.5-8.5-8.5-1.1 0-2.1.2-3.1.6-1.1-6.3-6.5-11.2-13.2-11.2-6.4 0-11.8 4.5-13.1 10.6h-.2c-3.5 0-6.3 2.8-6.3 6.3 0 1.1.3 2.1.8 3h43.5z" style="fill:#fff;stroke:#78909c;stroke-width:.5298;stroke-miterlimit:10"/><path class="st4" d="M18 464.4h60.7M135.7 473.9H218M177.3 482.6h97.8M250.9 473.9h63.2M317.5 457.5h101.4M396.3 465.3h71.1M456 458.3h90.9M105.5 460.9h98.6M56.1 473.9h49.4M452.5 474.8h123.8M519.2 465.3h94.3M595.4 454h76.2M658.5 464.4h63.3M733.8 473h-19.3M342.6 472.2h43.5M237 460.1h38.3M327 484.3h36.4M406.7 480h39.8M662 476.5h-45.9M305.8 200.2h58.3M464.5 183.2h45.1M633 244.3h27M644.3 262.5H620M674.6 279h-17.4M338.7 298.3h23.4M499.2 280.6h24.2M49.3 229.4h47.9M144.4 253h39.8M104.8 279h26.1"/><path class="st1" d="m323.4 199.4-1.6-58.9-3.2-1v61.4h6.1zM318.6 200.9v243.7h24.9V223.1l-18.8-22.2z"/><path class="st1" d="M297.9 204.9h20.8v26.3h-20.8z"/><path class="st1" d="M290.3 231.2h28.4v25.3h-28.4zM293.3 256.5h25.3v188.1h-25.3zM283.2 256.5h10.1v188.1h-10.1z"/><path class="st1" d="M295.9 259.4h2.4v4.6h-2.4zM301.6 259.4h2.4v4.6h-2.4zM307.3 259.4h2.4v4.6h-2.4zM312.9 259.4h2.4v4.6h-2.4zM295.9 269.7h2.4v4.6h-2.4zM301.6 269.7h2.4v4.6h-2.4zM307.3 269.7h2.4v4.6h-2.4zM312.9 269.7h2.4v4.6h-2.4zM295.9 279.9h2.4v4.6h-2.4zM301.6 279.9h2.4v4.6h-2.4zM307.3 279.9h2.4v4.6h-2.4zM312.9 279.9h2.4v4.6h-2.4zM295.9 290.2h2.4v4.6h-2.4zM301.6 290.2h2.4v4.6h-2.4zM307.3 290.2h2.4v4.6h-2.4zM312.9 290.2h2.4v4.6h-2.4zM295.9 300.4h2.4v4.6h-2.4zM301.6 300.4h2.4v4.6h-2.4zM307.3 300.4h2.4v4.6h-2.4zM312.9 300.4h2.4v4.6h-2.4zM295.9 310.7h2.4v4.6h-2.4zM301.6 310.7h2.4v4.6h-2.4zM307.3 310.7h2.4v4.6h-2.4zM312.9 310.7h2.4v4.6h-2.4zM295.9 321h2.4v4.6h-2.4zM301.6 321h2.4v4.6h-2.4zM307.3 321h2.4v4.6h-2.4zM312.9 321h2.4v4.6h-2.4zM295.9 331.2h2.4v4.6h-2.4zM301.6 331.2h2.4v4.6h-2.4zM307.3 331.2h2.4v4.6h-2.4zM312.9 331.2h2.4v4.6h-2.4zM295.9 341.5h2.4v4.6h-2.4zM301.6 341.5h2.4v4.6h-2.4zM307.3 341.5h2.4v4.6h-2.4zM312.9 341.5h2.4v4.6h-2.4zM295.9 351.7h2.4v4.6h-2.4zM301.6 351.7h2.4v4.6h-2.4zM307.3 351.7h2.4v4.6h-2.4zM312.9 351.7h2.4v4.6h-2.4zM295.9 362h2.4v4.6h-2.4zM301.6 362h2.4v4.6h-2.4zM307.3 362h2.4v4.6h-2.4zM312.9 362h2.4v4.6h-2.4zM295.9 372.2h2.4v4.6h-2.4zM301.6 372.2h2.4v4.6h-2.4zM307.3 372.2h2.4v4.6h-2.4zM312.9 372.2h2.4v4.6h-2.4zM295.9 382.5h2.4v4.6h-2.4zM301.6 382.5h2.4v4.6h-2.4zM307.3 382.5h2.4v4.6h-2.4zM312.9 382.5h2.4v4.6h-2.4zM295.9 392.8h2.4v4.6h-2.4zM301.6 392.8h2.4v4.6h-2.4zM307.3 392.8h2.4v4.6h-2.4zM312.9 392.8h2.4v4.6h-2.4zM295.9 403h2.4v4.6h-2.4zM301.6 403h2.4v4.6h-2.4zM307.3 403h2.4v4.6h-2.4zM312.9 403h2.4v4.6h-2.4zM295.9 413.3h2.4v4.6h-2.4zM301.6 413.3h2.4v4.6h-2.4zM307.3 413.3h2.4v4.6h-2.4zM312.9 413.3h2.4v4.6h-2.4zM295.9 423.5h2.4v4.6h-2.4zM301.6 423.5h2.4v4.6h-2.4zM307.3 423.5h2.4v4.6h-2.4zM312.9 423.5h2.4v4.6h-2.4z"/><path class="st5" d="M343.5 374.1v-1.5l-17.4-18.7 17.4-18.8v-1.4l-18.8 20.2zM343.5 426.4v-1.5l-17.4-18.7 17.4-18.7V386l-18.8 20.2zM343.5 321.7v-1.5l-17.4-18.7 17.4-18.7v-1.5l-18.8 20.2zM343.5 269.4v-1.5l-17.4-18.7 17.4-18.7V229l-18.8 20.2z"/><path class="st5" d="m343.5 326.1-22.9-24.6 22.9-24.6v-1.4l-24.3 26 24.3 26.1zM343.5 430.8l-22.9-24.6 22.9-24.6v-1.5l-24.3 26.1 24.3 26.1zM343.5 378.5l-22.9-24.6 22.9-24.6v-1.5l-24.3 26.1 24.3 26zM343.5 273.8l-22.9-24.6 22.9-24.6v-1.5l-24.3 26.1 24.3 26.1z"/><path class="st6" d="M371.3 171.1h66.8v273.6h-66.8z"/><path class="st6" d="M379.2 178.9h39v265.7h-39zM423.4 156.1l-52.1 15h52.1zM423.4 134.8v309.8h14.7V149.1z"/><path class="st6" d="M383.8 181.5H414v2.4h-30.2zM383.8 187.2H414v2.4h-30.2zM383.8 192.8H414v2.4h-30.2zM383.8 198.5H414v2.4h-30.2zM383.8 204.9H414v2.4h-30.2zM383.8 210.5H414v2.4h-30.2zM383.8 216.2H414v2.4h-30.2zM383.8 221.9H414v2.4h-30.2zM383.8 228.2H414v2.4h-30.2zM383.8 233.9H414v2.4h-30.2zM383.8 239.6H414v2.4h-30.2zM383.8 245.3H414v2.4h-30.2zM383.8 251.6H414v2.4h-30.2zM383.8 257.3H414v2.4h-30.2zM383.8 263H414v2.4h-30.2zM383.8 268.6H414v2.4h-30.2zM383.8 275H414v2.4h-30.2zM383.8 280.6H414v2.4h-30.2zM383.8 286.3H414v2.4h-30.2zM383.8 292H414v2.4h-30.2zM383.8 298.3H414v2.4h-30.2zM383.8 304H414v2.4h-30.2zM383.8 309.7H414v2.4h-30.2zM383.8 315.4H414v2.4h-30.2zM383.8 321.7H414v2.4h-30.2zM383.8 327.4H414v2.4h-30.2zM383.8 333.1H414v2.4h-30.2zM383.8 338.7H414v2.4h-30.2zM383.8 345.1H414v2.4h-30.2zM383.8 350.8H414v2.4h-30.2zM383.8 356.4H414v2.4h-30.2zM383.8 362.1H414v2.4h-30.2zM383.8 368.5H414v2.4h-30.2zM383.8 374.1H414v2.4h-30.2zM383.8 379.8H414v2.4h-30.2zM383.8 385.5H414v2.4h-30.2zM383.8 391.8H414v2.4h-30.2zM383.8 397.5H414v2.4h-30.2zM383.8 403.2H414v2.4h-30.2zM383.8 408.9H414v2.4h-30.2zM383.8 415.2H414v2.4h-30.2zM383.8 420.9H414v2.4h-30.2zM383.8 426.6H414v2.4h-30.2zM383.8 432.2H414v2.4h-30.2z"/><path class="st6" d="M371.3 180v126.4l36.4-112.7zM438.1 444.6h-66.8l52.1-43.1 14.7-104zM423.4 156.1l-44.2 7.5-7.9 7.5z"/><path class="st1" d="m101.8 311.9-8.7 132.7h17.5zM141.7 334.7l-7.3 109.9h14.5z"/><circle class="st1" cx="101.8" cy="362.4" r="13.5"/><path class="st1" d="m173.9 289.6-7.3 155h14.5z"/><circle transform="rotate(-80.706 173.839 366.184)" class="st1" cx="173.9" cy="366.2" r="11.9"/><path class="st1" d="M180.2 341.5c0 3.5-2.9 6.4-6.4 6.4-3.5 0-6.4-2.9-6.4-6.4 0-3.5 2.9-6.4 6.4-6.4 3.6 0 6.4 2.9 6.4 6.4zM157.9 361h31.9v2.4h-31.9zM85.9 356.6h31.9v2.4H85.9z"/><path class="st1" d="M164.3 338.8h19.1v2.4h-19.1zM216.8 444.6H295v-16.1l-10.1-10.6-29-3-27.3 13.3h-31.5l-7.3 16.4z"/><path class="st7" d="m197.1 428.2 27.5 16.4 30.2-18.8 23.8 9.4 16.4-6.7M252.6 444.6l26-9.4 16.4 9.4"/><path class="st7" d="m284.9 417.9-30.1 7.9-26.2 2.4-4 16.4M255.9 414.9l-1.1 10.9"/><path class="st6" d="M609.6 403.7c-17.7 0-32 12.5-32.4 28.1H642c-.4-15.6-14.8-28.1-32.4-28.1zM577.1 431.8s0 0 0 0c0 1.3 0 2.6.2 3.8.6 5.3 5.2 9.3 10.6 9.3h43.5c5.3 0 9.9-4 10.6-9.3.1-1.2.2-2.5.2-3.8 0 0 0 0 0 0h-65.1z"/><path class="st6" d="M609.6 403.7c-9.7 0-17.7 12.5-17.9 28.1h35.8c-.2-15.6-8.2-28.1-17.9-28.1zM591.7 431.8s0 0 0 0c0 1.3 0 2.6.1 3.8.4 5.3 2.9 9.3 5.8 9.3h24c3 0 5.5-4 5.8-9.3.1-1.2.1-2.5.1-3.8 0 0 0 0 0 0h-35.8z"/><path class="st6" d="M605.3 438.6h6.3v6.3h-6.3zM577.1 431.8l-6.5 12.7M591.7 431.8l-6.6 12.7M642 431.8l6.6 12.7M627.5 431.8l6.6 12.7M441 464.7v2.1h-5.9v7.4h-19.4l-1.4-2.1.9-1.3 2.7-4v-2.1z"/><path class="st6" d="M406 472.1h10.4l4.7 2h16.8l4.1-1.8h5.2c0 4-3.3 7.3-7.3 7.3h-21.3c-2.7 0-5.3-1-7.3-2.8l-5.3-4.7zM425.6 467.4h3.3v3.3h-3.3zM419.7 470.6l-4.5.2 2.7-4v-.5h1.6zM430.5 467.4h3.3v3.3h-3.3zM194.4 467.5v2.1h5.9v7.4h19.5l1.4-2-.9-1.3-2.8-4.1v-2.1z"/><path class="st6" d="M229.5 475h-10.4l-4.7 2h-16.8l-4.1-1.8h-5.2 0c0 4 3.3 7.3 7.3 7.3h21.3c2.7 0 5.3-1 7.3-2.8l5.3-4.7z"/><path transform="rotate(-180 208.217 471.91)" class="st6" d="M206.6 470.3h3.3v3.3h-3.3z"/><path class="st6" d="m215.8 473.5 4.5.2-2.8-4.1v-.4l-1.6-.1z"/><path transform="rotate(-180 203.316 471.91)" class="st6" d="M201.7 470.3h3.3v3.3h-3.3z"/><path class="st6" d="M562.7 449.2v2.1h5.9v7.4h19.5l1.4-2.1-.9-1.3-2.8-4v-2.1z"/><path class="st6" d="M597.8 456.6h-10.4l-4.7 2h-16.8l-4.1-1.8h-5.2 0c0 4 3.3 7.3 7.3 7.3h21.3c2.7 0 5.3-1 7.3-2.8l5.3-4.7z"/><path transform="rotate(-180 576.492 453.546)" class="st6" d="M574.9 451.9h3.3v3.3h-3.3z"/><path class="st6" d="m584 455.1 4.6.2-2.8-4v-.5h-1.6z"/><path transform="rotate(-180 571.591 453.546)" class="st6" d="M569.9 451.9h3.3v3.3h-3.3z"/><path class="st6" d="M687.5 444.6v-.3c0-1.7-1.4-3.2-3.2-3.2-.3 0-.7.1-1 .1v-.1c0-3.5-2.8-6.3-6.3-6.3-3.1 0-5.7 2.3-6.2 5.2-1.4.4-2.4 1.7-2.4 3.2 0 .5.1.9.3 1.3h18.8zM708.7 433.6c0 5.4-3.3 5.8-7.4 5.8-4.1 0-7.4-.4-7.4-5.8 0-5.4 6.6-13.8 7.4-13.8.1 0 7.4 8.4 7.4 13.8zM701.4 430.2v14.4M59.5 444.6v-.3c0-1.7-1.4-3.2-3.2-3.2-.3 0-.7.1-1 .1v-.1c0-3.5-2.8-6.3-6.3-6.3-3.1 0-5.7 2.3-6.2 5.2-1.4.4-2.4 1.7-2.4 3.2 0 .5.1.9.3 1.3h18.8zM173.8 444.6v-.3c0-1.7-1.4-3.2-3.2-3.2-.3 0-.7.1-1 .1v-.1c0-3.5-2.8-6.3-6.3-6.3-3.1 0-5.7 2.3-6.2 5.2-1.4.4-2.4 1.7-2.4 3.2 0 .5.1.9.3 1.3h18.8zM80.8 433.6c0 5.4-3.3 5.8-7.4 5.8s-7.4-.4-7.4-5.8c0-5.4 6.6-13.8 7.4-13.8 0 0 7.4 8.4 7.4 13.8zM73.4 430.2v14.4M365.2 433.6c0 5.4-3.3 5.8-7.4 5.8-4.1 0-7.4-.4-7.4-5.8 0-5.4 6.6-13.8 7.4-13.8 0 0 7.4 8.4 7.4 13.8zM357.8 430.2v14.4"/></g></svg>