<svg xmlns="http://www.w3.org/2000/svg" viewBox="0 0 500 500" style="enable-background:new 0 0 500 500" xml:space="preserve"><style>.st0{fill:#ebebeb}.st1{fill:#e0e0e0}.st2{opacity:.3}.st3{fill:#fff}.st6{fill:#5027bd}.st7{fill:#263238}.st8{fill:#455a64}.st9{opacity:.2}.st10{fill:#ffbe9d}.st11{fill:#eb996e}.st12{fill:#fafafa}.st14{fill:#e8505b}.st17{opacity:.5}</style><g id="Background_Complete"><path class="st0" d="M361.1 475.9c-20.5-15.4-24.3-42.7-22.7-67.1.3-4.1 0-8.4 2-11.9 2.1-3.5 6.7-5.8 10.3-4 3 1.5 4.2 5.1 5.8 8.1 2.1 4 5.4 7.3 9.3 9.5 2.6 1.4 5.7 2.4 8.4 1 3.6-1.8 4.2-6.7 4.3-10.7l.6-22.7c.1-4.1.2-8.2 1.6-12 1.4-3.8 4.3-7.3 8.2-8.2 3.9-1 8.6 1.4 9.3 5.4.3 1.7-.1 3.4-.1 5.1.1 1.7.8 3.6 2.4 4.1 1.6.5 3.3-.6 4.5-1.7 4.3-4 7.3-9.1 10.2-14.3 2.8-5.2 5.6-10.4 9.5-14.8 4-4.3 9.3-7.7 15.1-7.8 5.8-.1 11.9 3.7 13.2 9.4 1.3 5.8-2.3 11.5-6 16-5.6 6.7-12.2 12.5-19.5 17.3-1.3.9-2.7 1.8-3.3 3.3-1 2.7 1.5 5.4 4.1 6.4 3 1.1 6.3.9 9.4 1.4 3.2.5 6.5 2 7.6 5 1.5 4.2-2.1 8.4-5.6 11.2-7 5.5-15 9.7-23.4 12.5-3 1-6.2 1.8-8.7 3.9-2.5 2-4.1 5.6-2.7 8.5 1.4 2.9 5.1 4 8.2 3.5 3.1-.5 6-2.1 9-3.1 5.6-1.9 12.8-1.3 16.2 3.7 2.2 3.2 2.3 7.7 1 11.4-1.3 3.7-3.8 6.9-6.5 9.8-9.3 10.2-21 18.2-34.1 22.3-12.9 3.9-24.9 4.7-37.6-.5"/><path class="st1" d="M368 460.8c4-12.2 9.5-25.2 15.8-38.7 1.6-3.3 3.1-6.7 4.6-9.9 1.5-3.3 3.1-6.5 4.7-9.5 3.3-6.1 7-11.8 10.7-17 3.7-5.3 7.3-10.1 10.8-14.6 3.5-4.5 6.8-8.7 10-12.3 6.3-7.3 12.1-12.6 16.3-16.1 2.1-1.7 3.7-3 4.8-3.9.5-.4 1-.7 1.3-1 .3-.2.4-.3.5-.3l-.4.4c-.3.3-.7.6-1.2 1-1.1.9-2.7 2.2-4.7 4-4.1 3.5-9.8 8.9-16.1 16.2-3.1 3.7-6.4 7.8-9.9 12.3-3.4 4.5-7.1 9.4-10.7 14.6-3.6 5.3-7.3 10.9-10.6 17-1.7 3-3.2 6.2-4.7 9.5s-3.1 6.6-4.6 9.9c-6.2 13.4-11.7 26.4-15.8 38.6"/><path class="st1" d="M393.3 402.7c-.1 0-.2-.6-.3-1.7-.2-1.1-.4-2.8-.6-4.8-.4-4.1-.9-9.7-1.3-15.9-.4-6.2-.9-11.8-1.4-15.9-.2-2-.5-3.7-.6-4.8-.2-1.1-.2-1.8-.2-1.8.1 0 .2.6.5 1.7s.5 2.7.9 4.8c.6 4 1.2 9.7 1.6 15.9.4 6.1.8 11.7 1.1 15.9.1 1.9.3 3.5.4 4.8-.1 1.1 0 1.8-.1 1.8z"/><path class="st1" d="M445.8 394.7c0 .1-.7.1-2.1.2-1.3.1-3.3.2-5.7.4-4.8.4-11.4 1.1-18.7 2.2-7.3 1.1-13.8 2.4-18.5 3.5-2.4.5-4.2 1-5.5 1.3-1.3.3-2 .5-2.1.4 0-.1.7-.3 2-.7 1.3-.4 3.2-1 5.5-1.6 4.7-1.2 11.2-2.6 18.5-3.7 7.3-1.1 13.9-1.8 18.7-2 2.4-.1 4.4-.1 5.7-.1 1.5 0 2.2 0 2.2.1zM368.6 459.9l-.3-.6c-.2-.5-.5-1.2-.8-1.9-.7-1.7-1.7-4.1-2.8-7.1-2.3-6.1-5.3-14.5-8.4-23.9-3.1-9.4-6-17.9-8.2-24-1.1-3-2-5.4-2.6-7.2-.3-.8-.5-1.4-.7-2-.2-.5-.2-.7-.2-.7l.3.6c.2.5.5 1.1.8 1.9.7 1.7 1.7 4.1 2.8 7.1 2.3 6.1 5.3 14.5 8.4 23.9 3.1 9.4 6 17.9 8.2 24 1.1 3 2 5.4 2.6 7.2.3.8.5 1.4.7 2 .2.4.2.7.2.7zM438.7 439.9s-.2.1-.7.3c-.5.2-1.2.4-2 .6-1.9.5-4.4 1.3-7.5 2.2-6.3 1.8-15.1 4.4-24.7 7.3-9.6 2.9-18.4 5.4-24.8 7.1-3.2.8-5.8 1.5-7.6 1.9-.8.2-1.5.3-2.1.5-.5.1-.7.1-.7.1s.2-.1.7-.3c.5-.2 1.2-.4 2-.6 1.9-.5 4.4-1.3 7.5-2.2 6.3-1.8 15.1-4.4 24.7-7.3 9.6-2.9 18.4-5.4 24.8-7.1 3.2-.8 5.8-1.5 7.6-1.9.8-.2 1.5-.3 2.1-.5.4-.1.7-.1.7-.1z"/><circle class="st0" cx="419.1" cy="140.4" r="52.6"/><g class="st2"><path class="st3" d="M416.8 91.8c0 .2-1.2.2-3.2.4-2 .1-5 .5-8.5 1.4-1.8.4-3.6 1-5.6 1.8-2 .8-4 1.7-6.1 2.9-4.1 2.3-8.3 5.6-11.8 9.8-3.5 4.2-6 8.9-7.6 13.4-.8 2.2-1.4 4.4-1.8 6.5-.4 2.1-.7 4-.8 5.9-.2 3.6-.1 6.6.1 8.6s.3 3.2.2 3.2c-.1 0-.6-1-1.1-3.1-.5-2-.9-5-.9-8.8 0-1.9.2-3.9.5-6.1.4-2.2.9-4.5 1.7-6.9 1.5-4.7 4.1-9.7 7.8-14.2 3.7-4.4 8.2-7.8 12.6-10.2 2.2-1.2 4.4-2.1 6.5-2.8 2.1-.7 4.1-1.2 5.9-1.6 3.7-.7 6.7-.8 8.8-.6 2.1 0 3.3.3 3.3.4z"/></g><g class="st2"><path class="st3" d="M375.9 158.4c-.5.4-2.1-1-2.9-3.3-.8-2.3-.4-4.4.2-4.4.7-.1 1.3 1.6 2 3.6s1.2 3.8.7 4.1z"/></g><path class="st3" d="M434.9 133.9s-.2.5-.7 1.4c-.5.9-1.4 2-2.7 3.3-1.3 1.3-3 2.5-5.2 3.6-2.1 1-4.7 1.8-7.5 1.9-2.8.1-5.4-.4-7.6-1.2-2.2-.8-4.1-1.9-5.5-3-1.4-1.1-2.4-2.2-3-3-.6-.8-.9-1.3-.8-1.3.1-.1 1.4 1.7 4.2 3.8 1.4 1 3.2 2 5.4 2.8 2.2.7 4.7 1.2 7.3 1.1 2.6-.1 5.1-.8 7.2-1.8 2.1-1 3.8-2.1 5.1-3.3 2.6-2.4 3.7-4.4 3.8-4.3z"/><path class="st1" d="M449.9 95c-3 0-5.6 1.2-7.6 3.2-1.9-2-4.6-3.2-7.6-3.2-5.8 0-10.5 4.7-10.5 10.5 0 9.3 18.1 20.6 18.1 20.6s18.1-11.3 18.1-20.6c0-5.8-4.7-10.5-10.5-10.5zM403.5 95c-3 0-5.6 1.2-7.6 3.2-1.9-2-4.6-3.2-7.6-3.2-5.8 0-10.5 4.7-10.5 10.5 0 9.3 18.1 20.6 18.1 20.6s18.1-11.3 18.1-20.6c0-5.8-4.7-10.5-10.5-10.5z"/><circle transform="rotate(-76.014 92.34 257.842)" class="st0" cx="92.3" cy="257.9" r="43.1"/><path class="st1" d="M130.8 252.2c.6 0 1.4 1.1 1.9 3.3.5 2.2.7 5.5.2 9.5-.6 4-2 8.8-4.7 13.5-2.7 4.8-6.7 9.5-11.9 13.2-5.3 3.7-11.1 5.9-16.5 6.8-5.4.9-10.3.7-14.3-.1-4-.8-7-2.1-8.9-3.4-1.9-1.2-2.7-2.3-2.5-2.9.6-1.3 5.1-.3 12-.6 3.5-.1 7.5-.6 11.8-1.8 4.3-1.2 8.7-3.1 12.8-6 4.1-2.9 7.4-6.4 10-10.1 2.6-3.6 4.4-7.3 5.6-10.5 2.5-6.2 3.1-10.8 4.5-10.9z"/><path class="st3" d="M105.3 252.5c.1.1-.5 1.8-2.7 3.9-2.1 2.1-5.8 4.4-10.5 4.6-4.7.2-8.6-1.7-10.9-3.6-2.3-1.9-3.2-3.6-3-3.7.2-.1 1.2 1.3 3.6 2.9 2.3 1.6 6 3.2 10.3 3 4.3-.2 7.8-2.2 9.9-4 2.2-1.6 3.1-3.2 3.3-3.1zM74.7 243.8c-.7-1.4-2.4-2.3-3.9-2.1-.5 0-.9.2-1.3.5-1.2.8-1.9 2.6-1.6 4 .4 2.1 2.8 3.4 4.8 2.7 1.9-.7 2.9-3.2 2-5.1zM120 247.9c-.2 0 .1-1.4-.7-3.3-.4-.9-1.1-2-2.1-2.8-1-.8-2.4-1.3-3.9-1.3s-2.9.6-3.9 1.4c-1 .8-1.6 1.9-2 2.8-.7 1.9-.4 3.3-.6 3.3-.1.1-.8-1.3-.3-3.6.3-1.1.9-2.4 2.1-3.4 1.2-1.1 2.8-1.7 4.6-1.8 1.8 0 3.5.6 4.7 1.6 1.2 1 1.9 2.3 2.2 3.4.6 2.4 0 3.8-.1 3.7z"/><path class="st1" d="M76.5 65.9c-.3 3.7-3.6 6.4-7.3 6.1-3.7-.3-6.4-3.6-6.1-7.3.3-3.7 3.6-6.4 7.3-6.1 3.7.3 6.4 3.6 6.1 7.3z"/><path class="st1" d="M75.7 63.6c-.3.2-4.2-5.7-7.5-13.7-3.3-8-5.9-14.4-5.5-14.6.4-.2 3.6 6 6.9 14 3.3 7.9 6.5 14.1 6.1 14.3z"/><path class="st1" d="M75.7 29.1c.4.2-1.4 3.5-5.4 5.6-4 2.1-7.7 1.6-7.6 1.2 0-.4 3.4-.6 6.9-2.5 3.6-1.9 5.7-4.6 6.1-4.3zM78 35.7c.4.1-1.2 3.5-5.2 5.3-4 1.8-7.6.6-7.4.3.1-.4 3.3 0 6.8-1.6s5.4-4.3 5.8-4zM51.8 187.9c-.5 2.5-2.9 4-5.4 3.5-2.5-.5-4-2.9-3.5-5.4.5-2.5 2.9-4 5.4-3.5 2.4.6 4 3 3.5 5.4z"/><path class="st1" d="M51.5 186.3c-.4.2-2.7-4.1-4.3-9.7-1.6-5.6-2.7-10.2-2.4-10.3.4-.2 2.3 4.3 3.9 9.9 1.6 5.5 3.2 9.9 2.8 10.1z"/><path class="st1" d="M59.5 164.9c.2.3-2.5 2.9-7.1 3.7-2.2.4-4.4.2-5.8-.4-1.4-.6-2-1.4-1.9-1.5.2-.2.9.2 2.2.5 1.3.3 3.1.3 5.2-.1 4.1-.8 7.1-2.6 7.4-2.2zM66.4 186.6c-.5 2.5-2.9 4-5.4 3.5-2.5-.5-4-2.9-3.5-5.4.5-2.5 2.9-4 5.4-3.5 2.5.5 4.1 2.9 3.5 5.4z"/><path class="st1" d="M66.1 184.9c-.4.2-2.7-4.1-4.3-9.7-1.6-5.6-2.7-10.2-2.4-10.3.4-.2 2.3 4.3 3.9 9.9 1.6 5.5 3.2 10 2.8 10.1z"/><path class="st1" d="M60.5 167.9c.3.3-2.2 2.9-6.4 3.8-4.2 1-7.6-.4-7.4-.7.1-.5 3.3.1 7.1-.8 3.7-.8 6.4-2.7 6.7-2.3z"/></g><g id="Icon"><g id="XMLID_11_"><path class="st6" d="M403.6 297c-19.1 0-34.6-15.5-34.6-34.6s15.5-34.6 34.6-34.6 34.6 15.5 34.6 34.6-15.5 34.6-34.6 34.6z" id="XMLID_20_"/><g id="XMLID_12_"><path class="st3" d="M403.6 246.9c5.1 0 5.7 0 7.7.1 1.8.1 2.9.4 3.5.7.9.3 1.5.8 2.2 1.4.7.7 1.1 1.3 1.4 2.2.3.7.6 1.7.7 3.5.1 2 .1 2.6.1 7.7s0 5.7-.1 7.7c-.1 1.8-.4 2.9-.7 3.5-.3.9-.8 1.5-1.4 2.2-.7.7-1.3 1.1-2.2 1.4-.7.3-1.7.6-3.5.7-2 .1-2.6.1-7.7.1s-5.7 0-7.7-.1c-1.8-.1-2.9-.4-3.5-.7-.9-.3-1.5-.8-2.2-1.4-.7-.7-1.1-1.3-1.4-2.2-.3-.7-.6-1.7-.7-3.5-.1-2-.1-2.6-.1-7.7s0-5.7.1-7.7c.1-1.8.4-2.9.7-3.5.3-.9.8-1.5 1.4-2.2.7-.7 1.3-1.1 2.2-1.4.7-.3 1.7-.6 3.5-.7 2.1 0 2.7-.1 7.7-.1m0-3.4c-5.1 0-5.8 0-7.8.1s-3.4.4-4.6.9c-1.2.5-2.3 1.1-3.4 2.2s-1.7 2.1-2.2 3.4c-.5 1.2-.8 2.6-.9 4.6-.1 2-.1 2.7-.1 7.8s0 5.8.1 7.8.4 3.4.9 4.6c.5 1.2 1.1 2.3 2.2 3.4s2.1 1.7 3.4 2.2c1.2.5 2.6.8 4.6.9 2 .1 2.7.1 7.8.1s5.8 0 7.8-.1 3.4-.4 4.6-.9c1.2-.5 2.3-1.1 3.4-2.2s1.7-2.1 2.2-3.4c.5-1.2.8-2.6.9-4.6.1-2 .1-2.7.1-7.8s0-5.8-.1-7.8-.4-3.4-.9-4.6c-.5-1.2-1.1-2.3-2.2-3.4s-2.1-1.7-3.4-2.2c-1.2-.5-2.6-.8-4.6-.9-2-.1-2.6-.1-7.8-.1" id="XMLID_17_"/><path class="st3" d="M403.6 252.7c-5.4 0-9.7 4.4-9.7 9.7s4.4 9.7 9.7 9.7c5.4 0 9.7-4.4 9.7-9.7s-4.3-9.7-9.7-9.7m0 16.1c-3.5 0-6.3-2.8-6.3-6.3s2.8-6.3 6.3-6.3 6.3 2.8 6.3 6.3-2.8 6.3-6.3 6.3" id="XMLID_14_"/><path class="st3" d="M416 252.4c0 1.3-1 2.3-2.3 2.3-1.3 0-2.3-1-2.3-2.3 0-1.3 1-2.3 2.3-2.3 1.3 0 2.3 1 2.3 2.3" id="XMLID_13_"/></g></g></g><g id="Character"><path class="st7" d="M211 394.2s-5.1 9.9-8.8 20.3c-3.7 10.3-11.1 66.5-11.1 66.5l152.6-.4 3.4-.2s-4.7-69.5-24.5-92.1L211 394.2zM359.2 276.2c-1.9-2-4.1-3.6-5.4-6-3.2-6.2 2.3-13.7 1.1-20.6-1.6-9.7-14.2-12.5-20.6-19.9-7.8-8.9-5.3-22.4-3.4-34 2.3-13.9 3.1-28.4-.9-41.9-2.1-6.8-6.7-13.6-12.6-19.3-8-7.8-18.7-12.2-29.8-12.6-10-.4-19.3 10-27.5 15.8-17.6 12.4-26.9 25.7-30.3 49.6-4.4 30.9 6.3 62.6 24.6 87.8 14.8 20.4 35.4 37.7 60 43.6 9 2.1 18.5 2.7 27.3.1 8.9-2.6 17-8.5 20.8-16.9 4-8.3 3-19-3.3-25.7z"/><path class="st8" d="M326.8 278.5c-.1 0 .8-1.2.9-3.5.1-2.3-.9-5.7-3.5-9-1.3-1.7-2.9-3.4-4.4-5.3-1.5-2-3-4.4-3.5-7.3-.2-1.4-.2-3 .3-4.5s1.5-2.7 2-4c.6-1.3.4-2.7-.6-3.9-.9-1.2-2.2-2.2-3.2-3.6-2-2.8-2.6-6.1-2.6-9.2 0-3.1.8-6.1 1.6-8.7 1.8-5.3 4-9.9 4.7-14 .8-4.1.3-7.6-.5-9.8-.8-2.2-1.7-3.2-1.6-3.3 0 0 1 .9 1.9 3.1.9 2.2 1.5 5.8.8 10-.6 4.3-2.7 8.9-4.5 14.2-.8 2.6-1.5 5.5-1.5 8.5s.6 6.1 2.4 8.7c.9 1.3 2.1 2.2 3.2 3.5.5.7.9 1.4 1.1 2.3.1.9 0 1.8-.4 2.5-.6 1.5-1.6 2.7-2 4-.5 1.3-.5 2.7-.3 4 .4 2.7 1.8 5 3.2 6.9 1.5 2 3 3.7 4.3 5.4 2.6 3.4 3.6 7 3.3 9.4-.1 1.2-.4 2.1-.7 2.7-.2.6-.4.9-.4.9zM304.8 250.6s-.1-.2-.3-.5c-.1-.4-.4-.9-.6-1.6-.5-1.4-.9-3.5-1-6.1-.1-2.6.3-5.8 1.1-9.1.8-3.4 2.1-6.9 3.5-10.6 1.5-3.7 2.8-7.2 3.8-10.4 1-3.3 1.6-6.3 1.8-8.8.4-5.1-.7-8.3-.5-8.3 0 0 .3.7.7 2.2.3 1.4.6 3.6.5 6.2-.1 2.6-.7 5.7-1.6 9-1 3.3-2.3 6.9-3.8 10.5-1.5 3.7-2.7 7.2-3.6 10.5-.8 3.3-1.3 6.3-1.3 8.9 0 5.1 1.5 8.1 1.3 8.1z"/><path class="st6" d="M238 218.7c-1.7 1.1-40.3-.6-45.9 6.7 0 0 6 152.5 18.9 168.7l111.6-6-14.2-139.7 6.4-15.2-33.7-10-43.1-4.5z"/><path d="M201.2 328.2c4.5 1.6 9.7.5 13.8-2 4.1-2.5 7.2-6.3 9.9-10.3 7.4-11.4 11-24.9 12.4-38.4 1.3-13.5.5-27.1-.4-40.7-1.4 13.7-2.8 27.4-5.9 40.8-3.2 13.4-8.1 26.5-16.1 37.7-2.1 2.9-4.3 5.6-7.3 7.6-2.9 1.9-6.6 3-10 2.1" class="st9"/><path class="st6" d="M240.8 182.7c-3.5-3.3-6.1-7.7-6.8-12.5-.7-4.8.8-9.9 4.1-13.3 3.4-3.5 8.7-5 13.3-3.4"/><path class="st8" d="M267.3 125.7c10.2-5.9 17.6-5.7 25.6-4 12.2 2.6 24.2 9.6 30.8 20.3 6 9.8 6.6 22.2 3.7 33.3-1 3.9-3.6 7.1-6 10.3-2.5 3.2-8.4 6.2-12.4 6.6-4 .4-5-1.2-6.8-4.9-1.1-2.2-1.2-4.8-1.4-7.2-.5-10.4-1.7-21.1-5.7-30.7-4.1-9.6-11.4-18.3-21.3-21.9"/><path class="st7" d="M254.5 144.7c.9-7.9 5.8-15.2 12.8-19 5.3-2.8 11.4-3.6 17.4-3.3 8 .5 16.1 3.1 22 8.6 5.9 5.5 9.2 14 7.2 21.8-.9 3.5-2.8 6.9-2.9 10.5 0 1.6.2 3.3-.7 4.6-.9 1.2-2.5 1.5-3.9 1.2-1.4-.3-2.6-1.2-3.7-2.2-3.6-3.4-6-7.8-8.3-12.2"/><path class="st10" d="M253.1 148.3c4.6-10.4 16.4-20.8 26.5-15.8l29.9 20.5c3.1 1.5 4.5 5.1 3.2 8.4L280 239.5c.1 0-.1 0 0 0l-11.8 6.8c-10.9 6.3-25-.6-26.2-13.2-.1-.9-.1-1.6 0-2.2.2-.7.2-1.2.4-1.7 1.3-5.9 3.9-11 3.9-11 2.3-6.5 3.3-9.1 3.2-9 0 0-12.7-7.2-9-25.9 1.8-9.3 7.5-23.5 12.6-35z"/><path class="st7" d="M251.6 160.8c.2.4 2.4-.2 4.8.7 2.4.9 3.8 2.8 4.2 2.6.2-.1.1-.7-.5-1.6-.6-.8-1.7-1.9-3.2-2.4-1.5-.5-3-.5-4-.2-1 .2-1.4.7-1.3.9zM275.9 170c.2.4 2.4-.2 4.8.7 2.4.9 3.8 2.8 4.2 2.6.2-.1.1-.7-.5-1.6-.6-.8-1.7-1.9-3.2-2.4-1.5-.5-3-.5-4-.2-.9.3-1.4.7-1.3.9zM261.8 181c.1-.1-1.4-1-3.7-2.2-.6-.3-1.1-.6-1.1-1.1 0-.5.5-1.1 1.1-1.7 1.1-1.3 2.3-2.6 3.6-4.1 5-5.8 8.9-10.7 8.7-10.9-.2-.2-4.5 4.3-9.6 10.2-1.2 1.4-2.4 2.8-3.5 4.1-.5.6-1.2 1.3-1.2 2.3 0 .5.3 1 .7 1.3.4.3.7.4 1 .5 2.4 1.2 3.9 1.7 4 1.6z"/><path class="st11" d="M249.5 209.3s11.6 5.1 26 2.4c0 0-10.4 10.1-27.5 1.9l1.5-4.3z"/><path class="st7" d="M290.2 163.6c.2-.7-2.2-1.9-4.5-3.9-2.4-2-3.9-4.1-4.6-3.8-.3.2-.3.9.1 2.1.4 1.1 1.4 2.5 2.8 3.7 1.4 1.2 3 1.9 4.1 2.1 1.3.3 2 .2 2.1-.2zM264.6 149.7c-.4-.6-2.2-.2-4.4-.3-2.2-.1-3.9-.7-4.4-.2-.2.3 0 .9.8 1.5.7.6 2 1.2 3.5 1.3 1.5.1 2.8-.3 3.6-.9.8-.5 1.1-1.1.9-1.4z"/><path class="st10" d="M296.9 189.1c.5-1.3 3.1-3.9 4.5-3.6 3.7.7 9.8 3.3 6.6 12.2-4.3 12.1-15.6 5.2-15.5 4.9.2-.4 2.7-9 4.4-13.5z"/><path class="st11" d="M297.9 199.2c.1 0 .2.2.5.5s.8.6 1.6.6c1.4 0 3.2-1.6 4.1-3.8.4-1.1.6-2.2.5-3.2-.1-1-.4-1.8-1-2.2-.6-.4-1.2-.2-1.4.1-.3.3-.3.5-.4.5 0 0-.2-.3.1-.8.1-.2.4-.5.7-.6.4-.1.8-.1 1.3.1.9.4 1.4 1.6 1.5 2.7.1 1.1 0 2.4-.5 3.6-1 2.4-3 4.2-4.9 4.1-.9-.1-1.5-.6-1.8-1-.4-.3-.3-.6-.3-.6z"/><path class="st7" d="M278.7 129.8c-1.2 6.2 1.3 12.9 6.2 16.8 2.6 2.1 6.2 3.7 6.9 7 .8 3.3-1.8 6.8-1.1 10.1.9 4.7 7.4 7 7.5 11.7.1 2.1-1.1 4-1 6.1.2 2.8 2.8 4.9 5.6 5.1 2.8.2 5.4-1.3 7.3-3.3 1.9-2 3.1-4.6 4.2-7.1 2.2-5 4.3-10.1 4.6-15.6.7-11.4-8.5-31.1-19.4-34.5"/><path class="st8" d="M300.5 132.3c-.1.3-5.1-1.8-11.5-1-6.4.7-10.8 3.9-11 3.7-.1-.1.9-1 2.8-2.1s4.7-2.1 8.1-2.5c3.3-.4 6.3 0 8.4.6 2 .6 3.2 1.2 3.2 1.3zM287.3 126.6c0 .3-3 .5-5.9 2.8-2.9 2.2-3.8 5.1-4.1 5-.1 0 0-.8.5-2 .5-1.1 1.5-2.6 3-3.8 1.5-1.2 3.2-1.8 4.4-2.1 1.3-.1 2.1 0 2.1.1z"/><path class="st11" d="M263.6 193.4c2.4-.5 4.6-1.8 4.8-4.3.1-1.1-.2-2.3-1.1-2.7-.6-.3-1.8-.6-2.4-.4-2.5.6-4.8 1.3-7.4 1.3 0 0-1.2 2.4 0 4.2 1.2 1.7 3.7 2.4 6.1 1.9z"/><path class="st7" d="M260.7 193.4s.3.1.9.1c.6 0 1.4 0 2.4-.3 1-.2 2.2-.7 3-1.7.8-1 1.4-2.5 1-4-.2-.7-.8-1.2-1.4-1.4-.7-.1-1.4 0-2 .2-1.3.4-2.6.8-3.6.9-1.1.1-1.9.1-2.5.1-.6 0-.9 0-.9-.1s1.3-.1 3.4-.4c1-.1 2.2-.5 3.5-1 .7-.2 1.4-.4 2.3-.3.8.1 1.6.8 1.8 1.7.5 1.7-.2 3.4-1.1 4.5-.5.5-1 1-1.6 1.2-.6.3-1.2.4-1.7.5-1.1.2-1.9.2-2.5.1-.7.1-1-.1-1-.1z"/><path class="st6" d="M192.5 224.5s-6.6 6-9.1 12.2c-3.1 7.7-14.8 21.7-14.3 32.9.4 8.6 3.5 22.8 26.2 18.9 22.7-3.9 25.6-21.1 25.6-21.1l-12.1-37.7-16.3-5.2z"/><path d="M192.7 224.9s-7.2 6.1-9.3 11.9c-2.9 7.8-14.8 21.7-14.3 32.9.4 8.6 3.5 22.8 26.2 18.9 22.7-3.9 13.2-18.7 13.2-18.7l.4-40.1-16.2-4.9z" class="st2"/><path class="st6" d="M209.2 263.6s-20.1-13-39.6.6c-.4.3.6-2.5 2.2-6 3-6.4 7.7-15.6 7.7-15.6s10.3-19.2 15.3-19.2l14.3 4.3v35.9z"/><path class="st10" d="M181.5 258.8s-2.5 28.5-1.8 39.4c.6 10.9 10.6 40.5 31.1 25.4 20.5-15.2 27.5-102.8 27.5-102.8l-15.3-6.7-17.9 47.3s-4.3-2.4-11.1-3.1c-7.4-.8-12.1.5-12.5.5z"/><path class="st10" d="m222.7 216.4-8.3-40.3 8.4-20.2s3.3 1.5 3 5.4c-.3 3.9-4.1 13.4-4.1 13.4l10.7-14.6s3 1.3 1.4 4.9c-1.6 3.6-6.4 11.2-6.4 11.2l5.2 13.6s1.1-7 3.4-6.5 1.9 6.4 1.9 6.4l-.5 11.7s3.7 7.9 2.8 13c-.9 5.2-2.7 8.2-2.7 8.2l-14.8-6.2z"/><path class="st6" d="M325.8 241.7c-5.1-6.8-11.2-8.3-11.2-8.3l-9 17.4 12.2 43.4c9.7-5.5 20.3-9 29.2-8.4 0 0-14.2-34.9-21.2-44.1z"/><path d="M315.5 233.4c3 6.1-.4 13.4-.4 20.2 0 10.7 8.6 19.8 9.3 30.4.2 2.9-.3 5.9-2.1 8.1-1.9 2.2-5.5 3-7.7 1.1-1.2-1-1.8-2.6-2.3-4.1-2.9-8.6-5.9-17.1-8.8-25.7-1.2-3.5-2.4-7.2-2.1-10.9.7-7.2 6.9-12.4 12.7-16.7" class="st9"/><ellipse transform="rotate(-76.791 302.304 192.192)" class="st6" cx="302.3" cy="192.2" rx="15.7" ry="14.6"/><path class="st7" d="m297.6 207.2-.4-.2c-.3-.1-.7-.4-1.1-.7-.9-.7-2.3-1.9-3.3-3.7-1.1-1.8-1.8-4.4-1.8-7.2-.1-2.8.5-6 2.1-8.8 1.6-2.9 3.8-5.1 6.3-6.5 2.4-1.5 5-2 7.1-2 2.1 0 3.8.7 4.8 1.3.5.3.9.6 1.1.8.2.2.3.3.3.4 0 .1-.5-.4-1.5-.9s-2.6-1.1-4.7-1c-2 0-4.5.6-6.8 2.1-2.3 1.4-4.5 3.6-6 6.3-1.5 2.7-2.1 5.7-2 8.5 0 2.7.6 5.1 1.6 6.9 1 1.8 2.2 3 3.1 3.7.7.6 1.2.9 1.2 1z"/><path class="st7" d="M291.8 181.4c.2 0 0 1.2.7 2.2.7 1 1.9 1.2 1.9 1.4 0 .1-.3.2-.8.1s-1.2-.4-1.6-1c-.5-.6-.6-1.4-.5-1.9 0-.6.2-.9.3-.8zM291.3 186.2c.1-.2.5-.1 1.1.1.5.1.9.3.9.5s-.5.4-1.1.2c-.7-.2-1-.6-.9-.8zM288.3 198.8c.1-.2.8.1 1.6-.1.8-.1 1.4-.5 1.6-.4.2.1-.4.9-1.5 1.1-1.1.2-1.8-.4-1.7-.6z"/><path class="st6" d="M315.4 190.4s13.1-2.8 15.9-9.4c.4 4.2.3 7.3-.9 11.4l-18 8.6 3-10.6z"/><path class="st7" d="M316.7 189.4c.1 0 .2.7.3 1.7.1 1.1.1 2.6-.1 4.2-.3 1.6-.9 3.1-1.5 4-.6.9-1.2 1.3-1.2 1.3-.1-.1.4-.5.9-1.4.5-.9 1.1-2.3 1.3-3.8.3-1.6.3-3.1.3-4.1-.1-1.2-.1-1.9 0-1.9zM288 314.3s-.1.3-.3.8c-.2.5-.5 1.3-.9 2.2-.2.5-.4 1-.7 1.6l-.9 1.8c-.7 1.3-1.4 2.8-2.3 4.4-.5.8-1 1.6-1.5 2.5-.5.9-1.1 1.7-1.7 2.6-1.2 1.8-2.6 3.7-4.1 5.6-3 3.8-6.7 7.8-10.8 11.6-4.2 3.7-8.6 6.9-12.7 9.5-2.1 1.2-4.1 2.5-6 3.4-1 .5-1.9 1-2.8 1.4-.9.4-1.8.8-2.6 1.2-1.7.8-3.3 1.3-4.6 1.8-.7.3-1.3.5-1.9.7-.6.2-1.1.3-1.6.5-1 .3-1.7.5-2.3.7-.5.1-.8.2-.8.2s.3-.1.8-.3c.6-.2 1.3-.4 2.2-.8.5-.2 1-.3 1.6-.5.6-.2 1.2-.5 1.9-.7 1.4-.6 2.9-1.1 4.6-1.9.8-.4 1.7-.8 2.6-1.2.9-.4 1.8-.9 2.8-1.4 1.9-1 3.9-2.2 6-3.4 4.1-2.6 8.4-5.8 12.6-9.5 4.2-3.8 7.8-7.7 10.8-11.5 1.5-1.9 2.9-3.7 4.1-5.6.6-.9 1.2-1.7 1.7-2.6.5-.9 1-1.7 1.5-2.5 1-1.6 1.7-3.1 2.4-4.3.3-.6.7-1.2.9-1.8.3-.6.5-1.1.7-1.6.4-.9.8-1.6 1-2.1.2-.6.3-.8.3-.8zM210.3 236.8c-.2 0-.7-3.5-2.6-7.4-1.8-3.9-4.3-6.6-4.1-6.7 0 0 .7.6 1.6 1.7.9 1.1 2 2.8 3 4.8.9 2 1.5 3.9 1.8 5.3.3 1.4.3 2.3.3 2.3z"/><path class="st12" d="M288.2 291.9c-.1 0-.6-.9-1.9-2.3-1.2-1.5-3.2-3.4-6.1-5.2-2.9-1.8-6.8-3.4-11.3-3.8-4.5-.4-9.6.5-14.2 3s-8.2 6.2-10.3 10.2c-2.1 4-2.9 8.1-3 11.5-.1 3.4.5 6.2 1 8 .5 1.8 1 2.8.9 2.8 0 0-.1-.2-.3-.7-.2-.5-.5-1.2-.8-2.1-.6-1.8-1.2-4.6-1.2-8.1.1-3.5.8-7.6 3-11.7 2.1-4.1 5.8-7.9 10.5-10.4s9.9-3.5 14.4-3c4.6.4 8.5 2.1 11.4 4 2.9 1.9 4.9 3.9 6.1 5.4.6.8 1 1.4 1.3 1.8.4.3.5.6.5.6zM273.3 333.9l-1.2.3c-.4.1-.8.2-1.4.2-.5 0-1.2.1-1.9.1s-1.4 0-2.3-.1c-.8 0-1.7-.2-2.6-.3-1.8-.3-3.7-.9-5.7-1.7-1.9-.8-3.7-1.9-5.1-3-.7-.6-1.4-1.1-2-1.6-.6-.5-1.1-1.1-1.6-1.6s-.9-1-1.2-1.4c-.3-.4-.6-.8-.8-1.1-.4-.6-.6-1-.6-1 .1-.1 1 1.4 2.9 3.3.5.5 1 1 1.6 1.5.6.5 1.3 1 2 1.6 1.5 1 3.2 2 5.1 2.9 1.9.8 3.8 1.4 5.6 1.7.9.1 1.7.3 2.5.4.8.1 1.5.1 2.2.1 2.8-.1 4.5-.4 4.5-.3z"/><path class="st12" d="M267.8 309.4c.1 0-.6 1.2-1.7 3s-2.7 4.3-4.5 7c-1.8 2.7-3.6 5.1-5 6.7-.7.8-1.2 1.5-1.7 1.9-.4.4-.6.7-.7.7-.1-.1.8-1.1 2-2.8 1.3-1.7 3-4.1 4.8-6.8 1.8-2.7 3.4-5.1 4.7-7 1.2-1.7 2-2.7 2.1-2.7zM286.6 317.6c-.1.1-4.3-1.7-9.5-4.1-5.2-2.4-9.4-4.5-9.3-4.6.1-.1 4.3 1.7 9.5 4.1 5.2 2.4 9.4 4.5 9.3 4.6z"/><path class="st12" d="M265.6 281.9s0 .2.1.5c0 .4.1.9.1 1.5.1 1.4.3 3.3.6 5.6.5 4.8 1.3 11.3 2.1 18.5.8 7.2 1.6 13.7 2.1 18.5.2 2.3.4 4.2.6 5.6.1.6.1 1.1.1 1.5v.5s-.1-.2-.1-.5c-.1-.4-.1-.9-.2-1.5-.2-1.4-.4-3.3-.8-5.6-.6-4.7-1.4-11.2-2.3-18.5-.8-7.2-1.5-13.8-1.9-18.5-.2-2.4-.3-4.3-.4-5.6v-1.5c-.1-.3-.1-.5 0-.5z"/><path class="st7" d="M256.3 306.3s-.1.4-.4 1.2c-.3.7-.8 1.8-1.5 3-1.5 2.4-4.3 5.4-8.2 7.2-4 1.8-8.1 1.9-10.8 1.4-1.4-.2-2.5-.6-3.2-.8-.7-.3-1.1-.5-1.1-.5 0-.1 1.6.6 4.4 1 2.7.4 6.7.2 10.6-1.5 3.9-1.7 6.6-4.6 8.1-6.9 1.5-2.4 2-4.1 2.1-4.1z"/><path d="M233.2 319.1c-1.7-1.6-4.8-.9-5.9 1.2-1.1 2-.5 4.7 1.1 6.5 1.6 1.7 3.8 2.7 6.1 3.2 5.1 1.1 10.7.3 15.2-2.5 4.4-2.8 7.6-7.6 8.1-12.9.1-1 0-2.2-.8-2.8-1.2-.9-2.8.3-4 1.3-5.8 5.1-14.2 7.3-21.8 5.6M244.9 369.1c15.5-3.6 29.7-12.6 39.7-25 1.5-1.9 3.3-4.1 5.8-4.1 1.7 0 3.3 1.2 4 2.8.7 1.5.7 3.4.3 5-1.2 4.9-5.6 8.2-9.7 11-5.9 4-12.1 7.8-18.9 10-6.8 2.3-14.3 3-21.1.8" class="st9"/><path class="st11" d="M222.7 155.9s.1 0 .3.1c.2.1.5.2.9.5.7.5 1.5 1.7 1.8 3.3.2 1.6 0 3.5-.6 5.6-.7 2-1.4 4.2-2.2 6.4-.3 1-.7 2-1 2.9v-.2c1.4 3.8 2.6 7.2 3.5 9.6.4 1.1.7 2.1 1 2.9.2.7.3 1 .3 1.1s-.2-.3-.5-1-.7-1.7-1.1-2.8c-.9-2.4-2.2-5.7-3.7-9.6v-.2c.3-.9.7-1.9 1-2.9.8-2.3 1.5-4.4 2.2-6.4.6-2 .8-3.8.7-5.4-.2-1.5-.9-2.7-1.5-3.2-.3-.3-.6-.5-.8-.6-.2 0-.3-.1-.3-.1zM237.9 205.5c-.1 0-.6-1-1.5-2.5s-2.4-3.5-4.3-5.4c-1.9-1.9-3.9-3.3-5.5-4.2-1.5-.9-2.5-1.4-2.5-1.5 0 0 .3.1.7.2.5.2 1.1.5 1.9.9 1.6.8 3.7 2.2 5.6 4.2 2 1.9 3.4 4 4.3 5.6.4.8.8 1.4.9 1.9.3.5.4.8.4.8zM236.2 201.9c-.2 0-.8-3-2-6.6-1.2-3.6-2.4-6.4-2.3-6.5.1 0 .5.6 1 1.8.5 1.1 1.2 2.7 1.8 4.6.6 1.8 1 3.5 1.3 4.7.2 1.2.3 2 .2 2z"/><path class="st10" d="M297.3 214.7s-5.4 0-6.1 7.5c-.7 7.5-1.4 10.6-1.4 10.6s-7 9.6-7 14.5 1.6 15.2 1.6 15.2l22.8-5.8-1.6-6 14.4-26.1 8.4-27.2s-3-1.9-5.2 0c-2.1 1.9-6.1 9.1-6.1 9.1s-4.2-5.6-7-5.4c-.9.1-1.5.6-1.9 1.2-.8 1.4-.3 3.1.9 4.2l2.4 2.1-.7 7.2-12.4 11.5-1.1-12.6z"/><path class="st11" d="M303.3 237.7s.2-.5.7-1.3c.5-.8 1.3-1.9 2.4-3.1 1.1-1.2 2.6-2.6 4.1-4.1 1.6-1.5 3.3-3.2 4.6-5.3 1.4-2.1 2.2-4.3 2.5-6.5.3-2.1.2-4.1.1-5.7-.1-1.6-.3-3-.4-3.9-.1-.9-.1-1.4-.1-1.4s.1.5.3 1.4c.2.9.4 2.2.5 3.9.2 1.6.3 3.6 0 5.8-.3 2.2-1.1 4.6-2.5 6.7-1.4 2.1-3.2 3.8-4.7 5.3-1.6 1.5-3 2.8-4.2 4-1.1 1.2-2 2.2-2.5 2.9-.4.9-.7 1.3-.8 1.3zM311.8 215.3s-.3.4-1 .9c-.7.6-1.6 1.4-2.7 2.4-2.3 2-5.5 4.8-8.9 8-3.4 3.1-6.5 6.1-8.7 8.2-1.1 1-1.9 1.8-2.6 2.5-.6.6-1 .9-1 .9s.3-.4.9-1c.6-.6 1.4-1.5 2.5-2.6 2.2-2.2 5.2-5.1 8.6-8.3 3.5-3.1 6.7-5.9 9-7.8 1.2-1 2.1-1.8 2.8-2.3.7-.6 1.1-.9 1.1-.9z"/><path class="st10" d="M284.4 262.5s13.8 75.5 17.5 81c3.7 5.5 14.4 21.3 26.3 19.8 11.9-1.4 18.9-14 20.4-25.6s-9.2-52.3-9.2-52.3c-9.9-1.1-12.8.4-19.4 6.2l-12.8-35-22.8 5.9z"/><path class="st11" d="M306.1 250.2c.1.1-.5.7-1.3 1.8-1 1.2-2 2.7-3.2 4.2-2.5 3.3-4.8 5.8-4.9 5.7-.1-.1.5-.7 1.3-1.8 1-1.2 2-2.7 3.2-4.2 2.5-3.3 4.8-5.8 4.9-5.7zM331 328.9v-.8c0-.5 0-1.3-.1-2.4-.1-2.1-.4-5-1.2-8.6-.8-3.6-2.1-7.8-4-12.3-.9-2.3-2-4.6-3-7.1s-2.1-5-3.1-7.6c-4.1-10.5-7.5-20.2-10-27.1-1.2-3.5-2.1-6.3-2.8-8.3-.3-.9-.6-1.7-.7-2.3-.2-.5-.2-.8-.2-.8s.1.3.3.8c.2.6.5 1.3.8 2.2.7 2 1.7 4.8 3 8.2 2.5 6.9 6 16.6 10.1 27.1 1 2.6 2 5.2 3.1 7.6 1 2.5 2.1 4.8 3 7.1 1.8 4.5 3.1 8.8 3.9 12.4.8 3.6 1 6.6 1.1 8.7v2.4c-.1.5-.2.8-.2.8zM222.5 215.4s0 .1-.1.2c-.1.2-.1.4-.2.7-.2.6-.5 1.4-.9 2.5-.8 2.2-2 5.3-3.4 9.2-2.9 7.7-6.9 18.4-11.3 30.1-1.1 2.9-2.2 5.8-3.5 8.5-1.3 2.7-2.6 5.2-4 7.6-1.3 2.4-2.5 4.7-3.6 6.8-1.1 2.2-1.9 4.2-2.6 6.2-1.3 3.9-1.7 7.2-1.7 9.5v3.5-.2c0-.2 0-.4-.1-.7 0-.3-.1-.7-.1-1.1 0-.4-.1-1 0-1.5-.1-2.3.3-5.7 1.6-9.6.7-2 1.5-4.1 2.6-6.3s2.3-4.5 3.6-6.9c1.3-2.4 2.6-4.9 3.9-7.6 1.3-2.7 2.3-5.5 3.5-8.5 4.5-11.7 8.5-22.3 11.5-30.1 1.5-3.8 2.7-6.9 3.5-9.1.4-1 .7-1.9 1-2.5.1-.3.2-.5.3-.6-.1 0 0-.1 0-.1z"/></g><g id="Device"><path class="st8" d="m342.9 20-156.5-.1c-18.8 0-34.1 15.3-34.1 34.1l-.1 392.4c0 18.8 15.3 34.1 34.1 34.1l156.5.1c18.8 0 34.1-15.3 34.1-34.1l.1-392.4c0-18.8-15.3-34.1-34.1-34.1zm23.6 420.7c0 13.2-10.7 23.9-23.9 23.9l-156.2-.1c-13.2 0-23.9-10.7-23.9-23.9l.1-383c0-13.2 10.7-23.9 23.9-23.9h37.3c4.1 0 7.4 3.5 7.4 7.7v5.5c0 4.3 3.3 7.7 7.4 7.7h59.2c4.1 0 7.4-3.4 7.4-7.7v-5.5c0-4.3 3.3-7.7 7.4-7.7h30.3c13.2 0 23.9 10.7 23.9 23.9l-.3 383.1z"/><path class="st1" d="M361.5 71.9H173.1c-.7 0-1.2-.6-1.2-1.2v-.3c0-.7.6-1.2 1.2-1.2h188.4c.7 0 1.2.6 1.2 1.2v.3c.1.7-.5 1.2-1.2 1.2z"/><path class="st6" d="M275.2 71.9h-102c-.7 0-1.2-.6-1.2-1.2v-.3c0-.7.6-1.2 1.2-1.2h102c.7 0 1.2.6 1.2 1.2v.3c0 .7-.6 1.2-1.2 1.2z"/><path class="st7" d="M230.5 94.3v4.3h-.8l-2.1-2.6v2.6h-1v-4.3h.8l2.1 2.6v-2.6h1zM231.3 94.3c0-.3.2-.5.6-.5.4 0 .6.2.6.5s-.2.6-.6.6c-.4-.1-.6-.3-.6-.6zm.1 1h1v3.3h-1v-3.3zM233 96.9c0-1 .8-1.7 1.8-1.7.7 0 1.2.3 1.5.8l-.7.4c-.2-.3-.4-.5-.7-.5-.5 0-.9.3-.9.9s.4.9.9.9c.3 0 .6-.1.7-.5l.7.4c-.2.5-.8.8-1.5.8-1 .2-1.8-.5-1.8-1.5zM238.3 97.3l-.5.5v.8h-1V94h1v2.6l1.4-1.3h1.1l-1.4 1.4 1.5 1.9h-1.2l-.9-1.3zM244.3 96.7v1.9h-1v-1.7c0-.5-.2-.8-.7-.8-.5 0-.8.3-.8.9v1.6h-1v-3.3h.9v.4c.3-.3.6-.4 1.1-.4.9-.1 1.5.4 1.5 1.4zM248.1 96.7v1.9h-.9v-.4c-.2.3-.5.5-1 .5-.8 0-1.2-.4-1.2-1s.4-1 1.4-1h.8c0-.4-.2-.7-.8-.7-.4 0-.7.1-1 .3l-.3-.7c.4-.3.9-.4 1.4-.4 1 0 1.6.5 1.6 1.5zm-1 .8v-.3h-.7c-.4 0-.6.2-.6.4s.2.4.5.4c.4 0 .7-.2.8-.5zM254.5 96.7v1.9h-1v-1.7c0-.5-.2-.8-.6-.8-.4 0-.7.3-.7.9v1.7h-1V97c0-.5-.2-.8-.6-.8-.4 0-.7.3-.7.9v1.7h-1v-3.3h.9v.4c.2-.3.6-.4 1-.4.5 0 .9.2 1.1.5.3-.3.7-.5 1.2-.5.9-.3 1.4.2 1.4 1.2zM258.7 97.2h-2.5c.1.4.4.7.9.7.4 0 .6-.1.8-.3l.5.6c-.3.4-.8.5-1.4.5-1.1 0-1.9-.7-1.9-1.7s.8-1.7 1.8-1.7 1.7.7 1.7 1.7c.1 0 .1.1.1.2zm-2.6-.5h1.6c-.1-.4-.4-.7-.8-.7s-.7.2-.8.7zM231.1 102.7l-1.2 3.1h-.4l-1-2.5-1 2.5h-.4l-1.2-3.1h.4l1 2.6 1-2.6h.4l1 2.6 1-2.6h.4zM234 103.8v1.9h-.4v-.5c-.2.3-.5.5-1.1.5-.7 0-1.1-.4-1.1-.9s.3-.9 1.2-.9h1v-.2c0-.5-.3-.8-.9-.8-.4 0-.8.1-1 .4l-.2-.3c.3-.3.8-.4 1.3-.4.7 0 1.2.4 1.2 1.2zm-.5 1v-.5h-1c-.6 0-.8.2-.8.5 0 .4.3.6.8.6s.9-.2 1-.6zM234.7 105.4l.2-.3c.2.2.7.3 1.1.3.6 0 .8-.2.8-.5 0-.8-2-.2-2-1.4 0-.5.4-.9 1.2-.9.4 0 .8.1 1.1.3l-.2.3c-.3-.2-.6-.3-.9-.3-.6 0-.8.2-.8.5 0 .8 2 .2 2 1.4 0 .5-.5.9-1.3.9-.5.1-1-.1-1.2-.3zM239.5 101.4h.4v4.3h-.4v-4.3zM240.9 101.7c0-.2.1-.3.3-.3.2 0 .3.1.3.3 0 .2-.1.3-.3.3-.1 0-.3-.1-.3-.3zm.1 1h.4v3.1h-.4v-3.1zM245.2 102.7l-1.4 3.1h-.4l-1.4-3.1h.4l1.2 2.6 1.2-2.6h.4zM248.4 104.3h-2.6c0 .6.5 1.1 1.2 1.1.4 0 .7-.1.9-.4l.2.3c-.3.3-.7.5-1.2.5-1 0-1.6-.7-1.6-1.6 0-.9.6-1.6 1.5-1.6s1.5.6 1.5 1.6c.1 0 .1.1.1.1zm-2.6-.3h2.2c-.1-.6-.5-1-1.1-1-.6 0-1.1.4-1.1 1zM248.9 105.4c0-.2.1-.3.3-.3s.3.1.3.3c0 .2-.1.3-.3.3s-.3-.1-.3-.3zM254.4 104.6c0 .7-.5 1.2-1.5 1.2-.6 0-1.2-.2-1.5-.5l.2-.3c.3.3.7.5 1.3.5.7 0 1.1-.3 1.1-.8s-.3-.8-1.1-.8h-.3v-.3l1.1-1.4h-2.1v-.4h2.6v.3l-1.2 1.5c1-.2 1.4.3 1.4 1zM258.1 104v1.8h-.4V104c0-.6-.3-1-.9-1-.7 0-1.1.4-1.1 1.1v1.6h-.4v-4.3h.4v1.8c.2-.4.6-.6 1.2-.6.7 0 1.2.5 1.2 1.4zM263.1 103.8v1.9h-.4v-.5c-.2.3-.5.5-1.1.5-.7 0-1.1-.4-1.1-.9s.3-.9 1.2-.9h1v-.2c0-.5-.3-.8-.9-.8-.4 0-.8.1-1 .4l-.2-.3c.3-.3.8-.4 1.3-.4.7 0 1.2.4 1.2 1.2zm-.5 1v-.5h-1c-.6 0-.8.2-.8.5 0 .4.3.6.8.6s.9-.2 1-.6zM267 102.7v2.7c0 1.1-.5 1.5-1.5 1.5-.6 0-1.1-.2-1.4-.5l.2-.3c.3.3.7.4 1.2.4.8 0 1.1-.4 1.1-1.1v-.4c-.3.4-.7.6-1.2.6-.9 0-1.5-.6-1.5-1.5s.7-1.5 1.5-1.5c.5 0 1 .2 1.2.6v-.6h.4zm-.4 1.4c0-.7-.5-1.1-1.2-1.1s-1.2.5-1.2 1.1c0 .7.5 1.1 1.2 1.1.7.1 1.2-.4 1.2-1.1zM267.9 104.2c0-.9.7-1.6 1.6-1.6.9 0 1.6.6 1.6 1.6 0 .9-.7 1.6-1.6 1.6-.9 0-1.6-.7-1.6-1.6zm2.7 0c0-.7-.5-1.2-1.1-1.2s-1.1.5-1.1 1.2.5 1.2 1.1 1.2 1.1-.5 1.1-1.2zM181.2 142.6c-.1 0-.3 0-.4-.1l-4.4-4.4c-.1-.1-.1-.2-.1-.4 0-.1.1-.3.2-.4l4.4-4.3c.2-.2.5-.2.7 0 .2.2.2.5 0 .7l-4.1 4 4.1 4c.2.2.2.5 0 .7-.1.1-.3.2-.4.2zM349.6 142.6c-.1 0-.3-.1-.4-.2-.2-.2-.2-.5 0-.7l4.1-4-4.1-4c-.2-.2-.2-.5 0-.7.2-.2.5-.2.7 0l4.4 4.4c.1.1.1.2.1.4 0 .1-.1.3-.2.4l-4.4 4.3c.1 0-.1.1-.2.1z"/><path class="st3" d="M342 448.5H190.8c-9.2 0-16.7-7.5-16.7-16.7v-3.9c0-9.2 7.5-16.7 16.7-16.7H342c9.2 0 16.7 7.5 16.7 16.7v3.9c0 9.2-7.4 16.7-16.7 16.7z"/><path class="st6" d="M342 448.5s.4 0 1.1-.1c.4 0 .8 0 1.3-.1s1.1-.2 1.8-.4c1.3-.3 3-.9 4.7-2 1.7-1.1 3.5-2.6 5-4.8 1.4-2.2 2.6-4.9 2.8-8.1 0-3.2.4-6.7-.8-10.3-1.1-3.5-3.7-6.9-7.3-9-1.8-1.1-3.9-1.8-6-2.1-2.2-.3-4.5-.2-6.8-.2-37.6 0-89.5 0-146.8.1-3.5 0-7 1.1-9.8 3.3-2.8 2.1-4.9 5.1-5.9 8.3-1.4 6.5-1.4 14.3 3.1 19.4 2.2 2.5 5 4.4 8.2 5.2 1.6.5 3.2.6 4.8.6h24c24.8 0 47.2 0 66 .1 18.8 0 34 .1 44.5.1h15.2c.6-.1.9 0 .9 0h-16.3c-10.5 0-25.7 0-44.5.1-18.8 0-41.2 0-66 .1h-24c-1.6 0-3.3-.1-5-.6-3.3-.9-6.2-2.8-8.5-5.4-1.1-1.3-2-2.8-2.7-4.4-.7-1.6-1.1-3.3-1.2-5-.1-1.8-.1-3.5-.1-5.2 0-1.8.2-3.5.8-5.2 1.1-3.4 3.2-6.5 6.1-8.6 2.9-2.2 6.5-3.3 10.1-3.4 57.3 0 109.2.1 146.8.1 2.3 0 4.6-.1 6.9.2 2.2.3 4.3 1.1 6.2 2.2 3.7 2.2 6.2 5.6 7.4 9.2.6 1.8.8 3.6.8 5.4 0 1.7.1 3.4-.1 5-.2 3.2-1.4 6-2.8 8.2-1.5 2.2-3.3 3.7-5 4.8-1.7 1.1-3.4 1.7-4.7 2-.7.2-1.3.3-1.8.3-.5.1-1 .1-1.3.1-.7.1-1.1.1-1.1.1z"/><circle class="st6" cx="340.3" cy="429.6" r="11.2"/><path class="st3" d="M340 436.5c-.2 0-.3-.1-.3-.3l-1.4-5.3-5-1.8c-.1 0-.2-.2-.2-.3 0-.1.1-.3.2-.3l11.7-4.2c.1 0 .3 0 .4.1.1.1.1.2.1.4l-5.1 11.4c-.1.2-.2.3-.4.3zm-5.6-7.6 4.2 1.5c.1 0 .2.1.2.2l1.2 4.5 4.3-9.8-9.9 3.6z"/><path class="st3" d="M338.5 431c-.1 0-.2 0-.3-.1-.1-.1-.1-.4 0-.5l6.5-6c.1-.1.4-.1.5 0 .1.1.1.4 0 .5l-6.5 6c0 .1-.1.1-.2.1z"/><path class="st7" d="M215.8 426.7H214v-.5h4.1v.5h-1.8v4.6h-.5v-4.6zM221.8 427.5l-1.9 4.3c-.3.8-.7 1-1.3 1-.4 0-.7-.1-.9-.4l.2-.4c.2.2.4.3.7.3.3 0 .6-.2.8-.6l.2-.4-1.7-3.8h.5l1.4 3.3 1.4-3.3h.6zM226.4 429.4c0 1.2-.8 2-1.9 2-.6 0-1.1-.3-1.5-.8v2.1h-.5v-5.2h.5v.8c.3-.5.8-.8 1.5-.8 1.1 0 1.9.8 1.9 1.9zm-.5 0c0-.9-.6-1.5-1.4-1.5-.8 0-1.4.6-1.4 1.5s.6 1.5 1.4 1.5c.8 0 1.4-.6 1.4-1.5zM230.8 429.6h-3.2c.1.8.7 1.3 1.5 1.3.5 0 .9-.2 1.2-.5l.3.3c-.3.4-.9.6-1.5.6-1.2 0-2-.8-2-2 0-1.1.8-1.9 1.9-1.9 1.1 0 1.9.8 1.9 1.9-.1.2-.1.2-.1.3zm-3.2-.4h2.7c-.1-.8-.6-1.3-1.4-1.3-.7 0-1.2.6-1.3 1.3zM236.7 429v2.4h-.5v-.6c-.2.4-.7.6-1.3.6-.9 0-1.4-.5-1.4-1.1 0-.6.4-1.1 1.5-1.1h1.2v-.2c0-.7-.4-1-1.1-1-.5 0-1 .2-1.3.5l-.2-.4c.4-.3 1-.5 1.6-.5.9-.1 1.5.4 1.5 1.4zm-.5 1.2v-.6H235c-.7 0-1 .3-1 .7 0 .4.4.7 1 .7.5 0 1-.3 1.2-.8zM246.3 429.1v2.2h-.5v-2.2c0-.8-.4-1.2-1.1-1.2-.8 0-1.3.5-1.3 1.4v2h-.5v-2.2c0-.8-.4-1.2-1.1-1.2-.8 0-1.3.5-1.3 1.4v2h-.5v-3.8h.5v.7c.3-.5.8-.7 1.4-.7.6 0 1.1.3 1.4.8.3-.5.8-.8 1.5-.8.9 0 1.5.5 1.5 1.6zM251.1 429.6h-3.2c.1.8.7 1.3 1.5 1.3.5 0 .9-.2 1.2-.5l.3.3c-.3.4-.9.6-1.5.6-1.2 0-2-.8-2-2 0-1.1.8-1.9 1.9-1.9 1.1 0 1.9.8 1.9 1.9-.1.2-.1.2-.1.3zm-3.2-.4h2.7c-.1-.8-.6-1.3-1.4-1.3-.7 0-1.3.6-1.3 1.3zM251.6 430.9l.2-.4c.3.2.8.4 1.4.4.7 0 1-.2 1-.6 0-1-2.5-.2-2.5-1.7 0-.6.5-1.1 1.5-1.1.5 0 1 .1 1.4.4l-.2.4c-.3-.2-.7-.3-1.1-.3-.7 0-1 .3-1 .6 0 1 2.5.3 2.5 1.7 0 .7-.6 1.1-1.6 1.1-.7 0-1.3-.2-1.6-.5zM255.2 430.9l.2-.4c.3.2.8.4 1.4.4.7 0 1-.2 1-.6 0-1-2.5-.2-2.5-1.7 0-.6.5-1.1 1.5-1.1.5 0 1 .1 1.4.4l-.2.4c-.3-.2-.7-.3-1.1-.3-.7 0-1 .3-1 .6 0 1 2.5.3 2.5 1.7 0 .7-.6 1.1-1.6 1.1-.7 0-1.3-.2-1.6-.5zM262.2 429v2.4h-.5v-.6c-.2.4-.7.6-1.3.6-.9 0-1.4-.5-1.4-1.1 0-.6.4-1.1 1.5-1.1h1.2v-.2c0-.7-.4-1-1.1-1-.5 0-1 .2-1.3.5l-.2-.4c.4-.3 1-.5 1.6-.5.9-.1 1.5.4 1.5 1.4zm-.5 1.2v-.6h-1.2c-.7 0-1 .3-1 .7 0 .4.4.7 1 .7.5 0 .9-.3 1.2-.8zM267.1 427.5v3.4c0 1.3-.6 1.9-1.9 1.9-.7 0-1.4-.2-1.8-.6l.3-.4c.4.3.9.5 1.5.5 1 0 1.4-.4 1.4-1.4v-.5c-.3.5-.9.7-1.5.7-1.1 0-1.9-.8-1.9-1.9 0-1.1.8-1.9 1.9-1.9.6 0 1.2.3 1.5.8v-.7h.5zm-.5 1.8c0-.8-.6-1.4-1.5-1.4-.8 0-1.5.6-1.5 1.4 0 .8.6 1.4 1.5 1.4s1.5-.5 1.5-1.4zM271.9 429.6h-3.2c.1.8.7 1.3 1.5 1.3.5 0 .9-.2 1.2-.5l.3.3c-.3.4-.9.6-1.5.6-1.2 0-2-.8-2-2 0-1.1.8-1.9 1.9-1.9 1.1 0 1.9.8 1.9 1.9-.1.2-.1.2-.1.3zm-3.2-.4h2.7c-.1-.8-.6-1.3-1.4-1.3-.7 0-1.2.6-1.3 1.3zM272.7 431c0-.2.2-.4.4-.4s.4.2.4.4-.2.4-.4.4c-.3 0-.4-.2-.4-.4zM274.2 431c0-.2.2-.4.4-.4s.4.2.4.4-.2.4-.4.4-.4-.2-.4-.4zM275.8 431c0-.2.2-.4.4-.4s.4.2.4.4-.2.4-.4.4c-.3 0-.4-.2-.4-.4z"/><path class="st6" d="M191.1 433c-.7.9-2 1-2.8.3-.9-.7-1-2-.3-2.8l4.2-5c.5-.6 1.3-.6 1.8-.2.6.5.6 1.3.2 1.8l-3.5 4.3c-.3.2-.7.2-.9 0-.3-.2-.3-.6-.2-.9l2.7-3.3-.4-.3-2.6 3.1-.1.2c-.3.5-.2 1.2.3 1.6.5.4 1.1.4 1.6 0l.1-.1.1-.1 3.5-4.1c.6-.8.5-1.9-.3-2.5-.7-.6-1.8-.5-2.5.2l-4.4 5.2c-.7 1.1-.5 2.5.5 3.3 1 .8 2.5.8 3.4-.2l3.5-4.2-.4-.3-3.5 4z"/><path class="st14" d="M239.4 383.6c-.7 0-1.3.3-1.7.7-.4-.5-1.1-.7-1.7-.7-1.3 0-2.4 1.1-2.4 2.4 0 2.2 4.2 4.8 4.2 4.8s4.2-2.6 4.2-4.8c-.2-1.3-1.3-2.4-2.6-2.4zM228.7 383.6c-.7 0-1.3.3-1.7.7-.4-.5-1.1-.7-1.7-.7-1.3 0-2.4 1.1-2.4 2.4 0 2.2 4.2 4.8 4.2 4.8s4.2-2.6 4.2-4.8c-.2-1.3-1.3-2.4-2.6-2.4z"/><path class="st12" d="M230 347.4h-.8l-1.7-2.5v-1.6s-1.2-.1-1.1 2c.1 2.1-.1 1.5-.1 1.5s-2.6-.1-2.8.2c-.2.2-.3 2.7-.4 4.1 0 .7.4 1.4 1 1.6h.3c.6 0 4-.4 4-.4h1.4l.2-4.9zM232.3 347l-.7 5.4h-1.3l.1-5.3zM243.6 347.4h-.8l-1.7-2.5v-1.6s-1.2-.1-1.1 2c.1 2.1-.1 1.5-.1 1.5s-2.6-.1-2.8.2c-.2.2-.3 2.7-.4 4.1 0 .7.4 1.4 1 1.6h.3c.6 0 4-.4 4-.4h1.4l.2-4.9zM245.8 347l-.6 5.4h-1.4l.2-5.3z"/><path class="st7" d="M223.2 335.7h1v4.6h-1v-4.6zM228.3 338.9h-2.5c.1.4.4.7.9.7.4 0 .6-.1.8-.3l.5.6c-.3.3-.8.5-1.4.5-1.1 0-1.9-.7-1.9-1.7s.8-1.7 1.8-1.7 1.7.7 1.7 1.7c.1 0 .1.1.1.2zm-2.5-.6h1.6c-.1-.4-.4-.7-.8-.7-.5.1-.8.3-.8.7zM232.2 337l-1.4 3.3h-1l-1.4-3.3h1l.9 2.3.9-2.3h1zM232.4 336c0-.3.2-.5.6-.5.4 0 .6.2.6.5s-.2.6-.6.6c-.3-.1-.6-.3-.6-.6zm.1 1h1v3.3h-1V337zM234.4 335.7h1v4.6h-1v-4.6zM235.8 340.3h3.1v.6h-3.1v-.6zM239 341.3l.3-.7c.1.1.2.1.4.1s.4-.2.4-.5V337h1v3.3c0 .8-.4 1.2-1.2 1.2-.4 0-.7 0-.9-.2zm.9-5.3c0-.3.2-.5.6-.5.4 0 .6.2.6.5s-.2.6-.6.6c-.3-.1-.6-.3-.6-.6zM245.2 337v3.3h-.9v-.4c-.3.3-.6.4-1 .4-.8 0-1.4-.5-1.4-1.5V337h1v1.7c0 .6.2.8.7.8.4 0 .8-.3.8-.9V337h.8zM246.1 335.7h1v4.6h-1v-4.6zM247.8 336c0-.3.2-.5.6-.5.4 0 .6.2.6.5s-.2.6-.6.6c-.3-.1-.6-.3-.6-.6zm.2 1h1v3.3h-1V337zM252.7 338.4v1.9h-.9v-.4c-.2.3-.5.5-1 .5-.8 0-1.2-.4-1.2-1s.4-1 1.4-1h.8c0-.4-.2-.7-.8-.7-.4 0-.7.1-1 .3l-.3-.7c.4-.3.9-.4 1.4-.4 1.1 0 1.6.5 1.6 1.5zm-.9.8v-.3h-.7c-.4 0-.6.2-.6.4s.2.4.5.4c.4 0 .7-.2.8-.5zM223.2 379.2l.6-.7c.2.3.5.5.8.5.4 0 .6-.2.6-.7v-2h-1.5v-.8h2.5v2.8c0 1.1-.5 1.6-1.5 1.6-.7 0-1.2-.3-1.5-.7zM226.8 378.1c0-1 .8-1.7 1.8-1.7 1.1 0 1.8.7 1.8 1.7s-.8 1.7-1.8 1.7-1.8-.7-1.8-1.7zm2.6 0c0-.6-.4-.9-.8-.9-.5 0-.8.3-.8.9 0 .6.4.9.8.9.5 0 .8-.3.8-.9zM234.4 377.9v1.9h-1V378c0-.5-.2-.8-.7-.8-.5 0-.8.3-.8.9v1.6h-1v-4.6h1v1.6c.3-.3.6-.4 1.1-.4.8.1 1.4.6 1.4 1.6zM238.7 377.9v1.9h-1V378c0-.5-.2-.8-.7-.8-.5 0-.8.3-.8.9v1.6h-1v-3.3h.9v.4c.3-.3.6-.4 1.1-.4.9 0 1.5.5 1.5 1.5zM239.1 379.8h3.1v.6h-3.1v-.6zM244 375.5v4.3h-1v-3.5h-.9v-.8h1.9zM248 379v.8h-3.3v-.6l1.7-1.6c.4-.4.4-.6.4-.8 0-.3-.2-.5-.7-.5-.4 0-.7.1-.9.4l-.7-.5c.3-.5.9-.8 1.7-.8 1 0 1.6.5 1.6 1.3 0 .4-.1.8-.7 1.4l-1 .9h1.9zM239.4 383.6s.3-.1.8 0 1.3.6 1.6 1.5c.2.5.2 1 0 1.6-.2.6-.5 1.1-.9 1.6-.8 1-1.9 1.9-3.2 2.7l-.1.1-.1-.1c-.5-.3-1.1-.7-1.6-1.2-.9-.7-1.6-1.4-2.2-2.4-.3-.5-.5-1-.5-1.5s.2-1 .5-1.4c.5-.8 1.5-1.2 2.3-1.2.8 0 1.4.4 1.8.8h-.2c.5-.5 1-.6 1.3-.7.3.1.5.2.5.2s-.2 0-.5.1-.8.3-1.2.7l-.1.1-.1-.1c-.4-.4-.9-.7-1.6-.7-.7 0-1.4.3-1.9 1-.2.3-.3.7-.3 1.2 0 .4.2.8.4 1.2.5.8 1.3 1.5 2.1 2.2.5.4 1 .8 1.5 1.1h-.3c1.2-.8 2.3-1.6 3.1-2.5.4-.5.7-.9.9-1.4.2-.5.2-1 0-1.4-.3-.8-.9-1.3-1.4-1.4-.3-.1-.6-.1-.6-.1zM228.7 383.6s.3-.1.8 0 1.3.6 1.6 1.5c.2.5.2 1 0 1.6-.2.6-.5 1.1-.9 1.6-.8 1-1.9 1.9-3.2 2.7l-.1.1-.1-.1c-.5-.3-1.1-.7-1.6-1.2-.9-.7-1.6-1.4-2.2-2.4-.3-.5-.5-1-.5-1.5s.2-1 .5-1.4c.5-.8 1.5-1.2 2.3-1.2.8 0 1.4.4 1.8.8h-.2c.5-.5 1-.6 1.3-.7.3.1.5.2.5.2s-.2 0-.5.1-.8.3-1.2.7l-.1.1-.1-.1c-.4-.4-.9-.7-1.6-.7-.7 0-1.4.3-1.9 1-.2.3-.3.7-.3 1.2 0 .4.2.8.4 1.2.5.8 1.3 1.5 2.1 2.2.5.4 1 .8 1.5 1.1h-.3c1.2-.8 2.3-1.6 3.1-2.5.4-.5.7-.9.9-1.4.2-.5.2-1 0-1.4-.3-.8-.9-1.3-1.4-1.4-.4-.1-.6-.1-.6-.1z"/><circle transform="rotate(-45.001 199.905 340.37)" class="st1" cx="199.9" cy="340.4" r="16.7"/><path class="st6" d="M190.1 341.7c-.4.4-.6 1-.7 1.6-.1.6 0 1.2 0 1.8.2 2.4.2 4.9 0 7.4 1.5-.9 2.4-2.5 2.8-4.1.4-1.7.3-3.4-.1-5.1-.1-.5-.2-1-.6-1.3-.3-.4-.9-.6-1.3-.3"/><path class="st7" d="M192.9 335.8c.4-.6.4-1.5.1-2.2-.3-.7-.9-1.2-1.6-1.5-1.9-.9-4.4-.1-5.5 1.7-.4.7-.6 1.6 0 2.2.2.2.6.4.6.7 0 .3-.2.6-.5.8-.8.8-1.1 2.2-.6 3.3s1.6 1.8 2.8 1.8c1.6 0 3-1.3 4.6-1.4"/><path class="st6" d="M190.9 335.5c-1.1 1.9-1.7 5-.4 7.1l1.1-.2c1-2.5 1.4-5.9 2.3-8.5-1.2.1-2.6.9-3 1.6z"/><path class="st7" d="M192.8 334.2c0-.9.8-1.5 1.6-1.8.8-.3 1.7-.4 2.4-.9.6-.4 1.1-1.1 1.6-1.6 1.3-1.3 3.4-1.9 5.2-1.4 1.8.5 3.3 2 3.7 3.8.3 1.2.1 2.7-.9 3.5-1.1.9-2.8.7-4.2.4-1.4-.3-3.1-.6-4.3.3-.7.5-1.1 1.3-1.6 2.1-.4.8-1 1.5-1.8 1.8-.8.3-2-.2-2-1.1"/><path class="st7" d="M192.9 334.7c.1.7-.4 1.4-.9 1.9s-1.1 1-1.2 1.8c-.1.8.5 1.7.3 2.5-.1.5-.5.9-.8 1.4-.3.7-.4 1.5-.2 2.2s.6 2.3 1.1 2.9c1.4 1.6 3.6 2.9 5.7 3.4 2 .5 4.2.5 6.2.3 1.7-.1 3.7 0 5.1-2.4.7-1.2 1.1-2.8 1.5-4.2.3-1.2.6-2.4.3-3.6-.2-.7-.6-1.3-.8-2-.3-.9-.2-1.8-.3-2.7-.2-1.9-1.4-3.7-3.1-4.6-1.7-.9-3.8-1-5.6-.2"/><path d="M208.1 337.7c-.2-2.5-1.8-5.5-4.2-5.2l-7.6 1.9c-.7.1-1.3.7-1.3 1.5l.5 16.8c.1 2.4 2.1 4.3 4.5 4.3 2.4-.1 4.3-2 4.3-4.4v-2.1s3.1-.5 3.8-4.6c.3-2.2.2-5.5 0-8.2z" style="fill:#a36957"/><path class="st7" d="M206.7 340.5c0 .3-.2.5-.5.5s-.5-.2-.5-.5.2-.5.5-.5.5.2.5.5zM207.4 339.4c-.1.1-.5-.2-1-.2-.6 0-1 .3-1 .2 0 0 0-.2.2-.3.2-.1.5-.3.8-.3.4 0 .6.1.8.3.2.1.2.3.2.3zM201.3 340.5c0 .3-.2.5-.5.5s-.5-.2-.5-.5.2-.5.5-.5.5.2.5.5zM201.8 339.5c-.1.1-.5-.2-1-.2-.6 0-1 .3-1 .2 0 0 0-.2.2-.3.2-.1.5-.3.8-.3.4 0 .6.1.8.3.2.2.3.3.2.3zM203.9 343.7s.3-.1.9-.2c.1 0 .3 0 .3-.1s0-.3-.1-.4c-.1-.3-.3-.7-.4-1.1-.6-1.6-1-2.8-1-2.9.1 0 .6 1.2 1.2 2.8.1.4.3.8.4 1.1.1.2.1.3.1.6 0 .1-.1.2-.2.2h-1.2z"/><path d="M204.3 350.4s-2.8.2-5.5-1.4c0 0 1.3 2.8 5.4 2.4l.1-1z" style="fill:#7a4534"/><path class="st14" d="M203.7 345.1c-.2-.3-.6-.4-.9-.4-.2 0-.5.1-.6.3-.1.2-.2.5 0 .7.2.2.5.3.7.2.3-.1.5-.3.7-.4.1 0 .1-.1.2-.2-.1-.1-.1-.2-.1-.2"/><path class="st7" d="M202.2 344.1c.1 0 .1.6.6 1s1.2.4 1.2.5c0 0-.1.1-.4.1-.3 0-.7-.1-1-.3-.3-.3-.5-.6-.5-.9 0-.3.1-.4.1-.4zM202 337.9c-.1.2-.6.1-1.3.2-.7.1-1.2.3-1.3.1 0-.1.1-.2.3-.4.2-.1.6-.3 1-.3s.8 0 1 .1c.2.1.3.2.3.3zM207.2 337.8c-.1.1-.5 0-1 0s-.9.1-1 0c0-.1 0-.2.2-.3.2-.1.5-.2.8-.2.3 0 .6.1.8.3.2 0 .2.1.2.2z"/><path class="st7" d="M193.4 347.9c1.1.2 2.4-.1 3.2-.9.8-.8 1.3-2 1.1-3.1-.1-1-.7-2-.3-3 .5-1.3 2.2-1.6 2.7-2.9.3-.7 0-1.6.3-2.3.3-.7 1-1.1 1.7-1.3.7-.2 1.4-.4 2-.9.6-.4.9-1.3.6-1.9-3.1.4-6.1 1.1-8.9 2.2-.7.2-1.4.5-1.8 1.1-.4.6-.4 1.4-.4 2.2.2 3.7.3 7.3.5 11"/><path class="st8" d="M193.6 349.3c-.1-.1-.2-.1-.2-.2-.2-.1-.4-.3-.7-.6l-1-1c-.3-.4-.7-1-.8-1.7-.1-.7 0-1.5.5-2.2.3-.3.6-.5 1-.8.3-.3.6-.6.7-1 .3-.8.2-1.8.3-2.8.1-1 .5-2 1.2-2.8.3-.4.7-.8 1.2-1 .5-.2 1-.3 1.4-.5.5-.1.9-.3 1.3-.6s.7-.6.9-1c.5-.7.9-1.5 1.4-2.2.2-.3.5-.6.8-.9.3-.2.6-.4 1-.5.7-.2 1.4-.2 1.8.2.5.3.6.8.6 1.2 0 .4-.1.7-.2.8l-.2.2h-.1l.1-.1s.1-.1.1-.2c.1-.2.2-.4.2-.8s-.2-.8-.6-1.1c-.4-.3-1.1-.4-1.7-.1-.3.1-.6.3-.9.5-.3.2-.5.5-.8.8-.5.6-.8 1.4-1.4 2.2-.3.4-.6.7-.9 1-.4.3-.8.5-1.3.7-.5.1-1 .2-1.4.5-.4.2-.8.6-1.2.9-.7.8-1 1.8-1.1 2.7-.1 1 0 1.9-.3 2.8-.2.4-.5.8-.8 1.1-.3.3-.7.5-.9.8-.5.6-.6 1.4-.5 2 .1.7.4 1.2.7 1.6.3.4.7.8.9 1 .3.3.5.5.7.6.2.4.2.5.2.5z"/><path class="st6" d="M189.9 342c-1.2.3-2 1.5-2.5 2.6-.5 1.2-.7 2.4-1.4 3.5.9.2 1.7-.3 2.4-.8.5-.3.9-.6 1.2-1.1.8-1.3.2-3 .6-4.4"/><path class="st12" d="M190.8 341.4s-.3-.1-.6-.3c-.3-.2-.5-.4-.5-.4s.3.1.6.3c.3.2.5.3.5.4zM190.9 340.1s-.3-.2-.6-.5-.6-.5-.5-.6c0 0 .3.2.6.5s.6.6.5.6zM190.8 338s-.2-.1-.4-.3l-.3-.3s.2.1.4.3c.2.1.3.2.3.3zM191.8 336.7s-.3-.2-.5-.4l-.4-.6s.2.2.4.5c.3.2.5.4.5.5zM192.8 335.6s-.2-.2-.5-.4c-.3-.3-.4-.5-.4-.5s.2.2.5.4c.2.2.4.4.4.5z"/><path class="st7" d="M189.5 352.3v-5.1c0-.7 0-1.4.1-2 0-.6.1-1.1.2-1.6s.2-.8.2-1.1c0-.1.1-.2.1-.3v-.1s0 .1-.1.4c-.1.2-.1.6-.2 1.1-.1.4-.1 1-.2 1.6v2c0 1.4 0 2.6-.1 3.6V352.3z"/><path class="st12" d="M191.1 350.9s-.4-.3-.8-.8c-.4-.4-.7-.8-.7-.9 0 0 .3.4.8.8.4.6.7.9.7.9zM192.1 349.1s-.2-.1-.4-.3c-.2-.2-.6-.5-.9-.9-.3-.4-.6-.8-.8-1.1-.1-.1-.1-.3-.2-.4 0-.1-.1-.1 0-.1 0 0 .1.2.3.5.2.3.4.7.8 1 .3.4.7.7.9.9.2.2.3.3.3.4zM188 347.6s-.1-.1-.2-.3c-.1-.2-.2-.5-.3-.8-.1-.3-.2-.6-.2-.8 0-.2-.1-.4-.1-.4s.2.5.4 1.2c.2.6.4 1.1.4 1.1zM189.2 346.6s-.2-.8-.5-1.7c-.3-1-.4-1.8-.4-1.8s.2.8.5 1.7c.3 1 .5 1.8.4 1.8zM189.7 343.2l-.2-.4c-.1-.2-.1-.4-.1-.4 0 .1.1.2.1.4.2.2.2.4.2.4z"/><path class="st6" d="m190.4 354.1 5.1-1.4 8.8-.1 5.6 1.2s-3.8 3.4-10 3.3c-6.2-.1-9.5-3-9.5-3z"/><circle transform="rotate(-81.298 198.95 380.355)" class="st1" cx="198.9" cy="380.4" r="16.7"/><path class="st10" d="M198.4 396.4c-2.7.3-5.1-1.7-5.3-4.4l-1.5-14.8c-.4-4 2.6-7.5 6.6-7.8h.1c3.9-.1 7.2 2.9 7.5 6.7.3 3.4.6 7.1.6 8.9 0 3.8-3.8 4.5-3.8 4.5s.1.6.1 1.5c.4 2.8-1.6 5.1-4.3 5.4z"/><path class="st11" d="M202.6 389.6s-2.4.2-5-1.4c0 0 1.3 2.7 5.1 2.3l-.1-.9z"/><path class="st7" d="M204.3 378.8c0 .3-.2.5-.5.6-.3 0-.6-.2-.6-.5s.2-.5.5-.6c.3 0 .6.2.6.5zM205 377.8c-.1.1-.5-.2-1.1-.2-.6 0-1 .3-1.1.2 0 0 0-.2.2-.3.2-.1.5-.3.9-.3s.7.1.9.3c.2.2.2.3.2.3zM198.7 379c0 .3-.2.5-.5.6-.3 0-.6-.2-.6-.5s.2-.5.5-.6c.3 0 .5.2.6.5zM199.2 378c-.1.1-.5-.2-1.1-.2-.6 0-1 .3-1.1.2 0 0 0-.2.2-.3.2-.1.5-.3.9-.3s.7.1.9.3c.2.2.2.3.2.3zM201.4 382.4s.4-.1 1-.2c.2 0 .3-.1.3-.2s0-.3-.1-.4c-.1-.4-.3-.7-.5-1.1-.6-1.6-1.1-3-1.1-3 .1 0 .6 1.3 1.3 2.9.2.4.3.8.4 1.1.1.2.2.4.1.6 0 .1-.1.2-.2.2h-.3c-.5.1-.9.1-.9.1zM199.7 382.8c.1 0 .1.6.7 1.1.6.4 1.2.4 1.2.5 0 0-.2.1-.4.1-.3 0-.7-.1-1-.3-.3-.3-.5-.6-.5-.9-.1-.3-.1-.5 0-.5zM199.3 375.7c-.1.2-.6.1-1.3.2-.7.1-1.3.3-1.3.2 0-.1.1-.2.3-.4.2-.2.6-.3 1-.4.4-.1.8 0 1.1.1.1.1.2.2.2.3zM204.8 376.1c-.1.1-.5 0-1 0s-.9.1-1 0c0-.1 0-.2.2-.3.2-.1.5-.2.8-.2.3 0 .6.1.8.3.1 0 .2.1.2.2zM195.7 373c-.6.5-1 1.2-1.1 2v.1c-.1 1.1-.1 2.2-.2 3.3-.1 1.1 0 1.9-1.1 2.3-.7.2-1.3-.1-1.6-.5-.1-.1-.1-.3-.1-.5-.2-2.6-.9-3.6-.9-6.4 0-.8.3-1.5.9-1.9.6-.4 1.3-.9 1.9-.6.7.3 1.5 1.5 2 2"/><path class="st10" d="M192.9 379c-.1 0-2.7-.7-2.5 1.9.1 2.6 2.7 2 2.7 1.9.1-.1-.2-3.8-.2-3.8z"/><path class="st11" d="m192.3 381.8-.1.1c-.1 0-.2.1-.3 0-.3-.1-.5-.5-.6-1 0-.2 0-.5.1-.7.1-.2.2-.3.3-.4.1 0 .2 0 .3.1v.1s.1 0 0-.2c0-.1 0-.1-.1-.2-.1 0-.2-.1-.3-.1-.2 0-.4.2-.5.4-.1.2-.1.5-.1.7 0 .5.3 1 .7 1.1.2 0 .3 0 .4-.1.2.3.2.2.2.2z"/><path class="st7" d="M193.5 371.2c-.7-1 1.1-2.6 2.4-3 1.3-.4 3 .2 4.3.6.8.3 1.6.6 2.5.6.6 0 1.1-.3 1.7-.5.5-.2 1.1-.4 1.7-.4.6 0 1.2.3 1.4.9.2.5-.1 1.3-.6 1.4.7-.4 1.8.1 1.9.9.1.8-.7 1.6-1.5 1.5.4-.3 1 .2.9.6 0 .5-.5.8-.9 1-1.1.5-2.4.4-3.5 0s-2.2-.9-3.3-1.3c-1.1-.4-3-1.1-4.2-.7-.8.3-1.4 1.3-1.9 1.1-.5-.2-.8-.7-.9-1.2-.2-.5-.1-1 0-1.5"/><path class="st8" d="M207.1 370.7s-.1.2-.4.5c-.3.3-.7.7-1.4 1-.7.3-1.6.3-2.5-.1-.9-.4-1.7-1.2-2.6-1.9-.9-.7-1.9-1.3-3-1.4-1-.1-2 .3-2.5.9-.5.6-.6 1.3-.6 1.7 0 .2.1.4.1.5 0 .1.1.2.1.1 0 0-.1-.2-.1-.6 0-.4.1-1 .6-1.6.5-.5 1.4-.9 2.3-.8 1 .1 2 .6 2.8 1.3.9.7 1.7 1.5 2.6 1.9 1 .4 2 .3 2.7 0 .7-.3 1.2-.7 1.5-1.1.1-.2.2-.3.3-.4h.1zM192.3 378.9s.1-.1.2-.3c.1-.2.2-.5.1-1-.1-.8-.8-1.7-1-2.9-.1-.6 0-1.1.3-1.6.2-.4.6-.7 1-.9.3-.2.7-.2.9-.1.2 0 .3.1.3.1s-.1-.1-.3-.2c-.2-.1-.6-.1-1 .1-.4.1-.8.4-1.1.9-.3.5-.4 1.1-.3 1.7.1.6.3 1.2.5 1.6.2.5.4.9.5 1.3.2.9-.2 1.3-.1 1.3z"/><path class="st6" d="m189.4 394 3.6-2.5c4.1 1.1 7.4 1.1 9.8-.5l6.1 2.6s-3.8 3.4-10 3.3c-6.2 0-9.5-2.9-9.5-2.9z"/><circle transform="rotate(-45.001 197.454 101.12)" class="st1" cx="197.5" cy="101.1" r="22"/><path class="st7" d="M211.9 110.4c.3-1.8 1.2-3.4 1.5-5.2.3-1.9-.2-3.8-.7-5.7-1-3.5-2.1-7-4.5-9.7-2.4-2.7-6.3-4.3-9.7-3l-3.6 3.1c-2.5.6-4 3.1-4.9 5.5-.9 2.4-1.6 5-3.3 6.9-1.1 1.2-2.7 2.2-2.8 3.8-.2 1.5 1 3.2.3 4.5-.6 1-2 1.3-2.7 2.2-.7 1.1.4 3.9.4 3.9s7.2 9.5 23 5.4c4.3-1.1 6.3-3.6 8.6-6-1.3-1.5-1.9-3.6-1.6-5.7z"/><path class="st6" d="m184.8 119.3 7.3-2.1 12-.6 7.3 1.7s-3.7 5.2-14.6 4.8c-7-.3-9.7-2.4-9.7-2.4"/><path class="st8" d="M189.8 88.4c2.3-2.5 4.3-3.1 6.7-3.3 3.6-.3 7.5.6 10.2 3 2.5 2.2 3.7 5.5 3.8 8.8.1 1.2-.4 2.2-.8 3.3-.4 1.1-1.8 2.4-2.9 2.9-1.1.5-1.5.1-2.3-.8-.5-.5-.7-1.2-1-1.9-1-2.8-2.3-5.6-4.2-7.9s-4.7-4.1-7.7-4.2"/><path class="st7" d="M187.9 94.7c-.4-2.2.3-4.7 1.9-6.3 1.2-1.2 2.8-2 4.5-2.4 2.2-.5 4.7-.5 6.8.5 2.1 1 3.7 3.1 3.8 5.4.1 1-.2 2.1.1 3.1.1.4.3.9.2 1.3-.1.4-.6.6-1 .7-.4 0-.8-.1-1.2-.3-1.3-.6-2.3-1.6-3.3-2.6"/><path class="st10" d="m203.7 92.3-10-3.1c-3.2-.5-5.6 3.4-6 6.6-.4 3.6-.8 8-.5 10.7.6 5.5 4.7 6.4 4.7 6.4v2.8c-.1 3.9 3.6 6.9 7.4 5.9.1 0 .2 0 .3-.1 2.4-.7 4.1-2.9 4.3-5.4l1.4-21.8c.1-1-.6-1.8-1.6-2z"/><path class="st7" d="M189.4 99.4c0 .4.3.7.6.7.4 0 .7-.2.7-.6 0-.4-.3-.7-.6-.7-.4 0-.7.3-.7.6zM188.6 98.2c.1.1.6-.3 1.4-.2.7 0 1.3.4 1.4.4 0 0 0-.2-.3-.4-.2-.2-.6-.4-1.1-.4-.5 0-.9.1-1.1.3-.2.1-.3.2-.3.3zM196.9 100c0 .4.3.7.6.7.4 0 .7-.2.7-.6 0-.4-.3-.7-.6-.7-.3-.1-.6.2-.7.6zM195.9 98.7c.1.1.6-.3 1.4-.2.7 0 1.3.4 1.4.4 0 0 0-.2-.3-.4-.2-.2-.6-.4-1.1-.4-.5 0-.9.1-1.1.3-.2.1-.3.2-.3.3zM192.9 104.1s-.5-.1-1.2-.3c-.2 0-.4-.1-.4-.2s.1-.3.2-.6c.2-.5.4-.9.6-1.4.9-2 1.5-3.7 1.5-3.7-.1 0-.9 1.6-1.8 3.6-.2.5-.4 1-.6 1.4-.1.2-.2.5-.1.7 0 .1.2.3.3.3.1 0 .2.1.3.1.8.1 1.2.1 1.2.1z"/><path class="st11" d="M192 112.9s3.6.4 7.3-1.6c0 0-2 3.8-7.4 3l.1-1.4zM193.2 105.9c.3-.3.8-.5 1.2-.4.3.1.6.2.8.5.2.3.2.7 0 .9-.2.3-.6.3-1 .2-.4-.1-.6-.4-.9-.6-.1-.1-.2-.1-.2-.2 0-.2 0-.3.1-.4"/><path class="st7" d="M195.1 104.7c-.1 0-.2.8-.9 1.3s-1.6.4-1.6.5c0 .1.2.2.5.2.4 0 .9-.1 1.3-.4.4-.3.6-.8.7-1.1.1-.3.1-.5 0-.5zM195.9 96.4c.1.2.8.1 1.7.3.9.1 1.6.4 1.7.3.1-.1-.1-.3-.3-.5-.3-.2-.7-.4-1.2-.5-.5-.1-1 0-1.3.1-.4.1-.6.2-.6.3zM189 94.9c.1.2.6 0 1.3.1.6 0 1.1.2 1.3 0 .1-.1 0-.3-.2-.4-.2-.2-.6-.3-1-.3s-.8.1-1 .3c-.4 0-.5.2-.4.3z"/><path class="st10" d="M203.3 103.3c0-.4.5-1.3.9-1.4 1.1-.1 3 .1 2.9 2.8-.2 3.7-3.8 2.8-3.8 2.7-.1-.1-.1-2.7 0-4.1z"/><path class="st11" d="M204.4 106s.1 0 .2.1.3.1.5 0c.4-.1.8-.7.8-1.4 0-.3 0-.7-.1-.9-.1-.3-.3-.5-.5-.5-.2-.1-.3.1-.4.2-.1.1 0 .2-.1.2 0 0-.1-.1 0-.2 0-.1.1-.2.2-.2.1-.1.2-.1.4-.1.3 0 .5.3.6.6.1.3.2.7.2 1-.1.7-.5 1.4-1 1.6-.3.1-.5 0-.6-.1-.2-.2-.2-.3-.2-.3z"/><path class="st7" d="M193.2 88.6c.2 1.8 1.5 3.4 3.1 4.1.9.3 2 .5 2.5 1.3s.1 2 .6 2.9c.6 1.2 2.6 1.3 3.1 2.6.2.6 0 1.2.2 1.8.3.7 1.2 1.1 2 .9.8-.2 1.4-.8 1.7-1.5.3-.7.5-1.5.6-2.3.2-1.6.3-3.1-.1-4.7-.8-3.2-5-7.8-8.3-7.8"/><path class="st8" d="M199.4 87.4c0 .1-1.6-.1-3.3.7-1.7.7-2.6 2-2.7 1.9 0 0 .2-.4.6-.8.4-.5 1.1-1 2-1.4.9-.4 1.7-.5 2.4-.6.7.1 1 .2 1 .2zM195.3 87c0 .1-.8.4-1.4 1.3-.6.9-.6 1.7-.7 1.7 0 0-.1-.2 0-.6 0-.4.2-.8.5-1.3s.7-.8 1-.9c.4-.2.6-.3.6-.2z"/></g><path class="st7" d="M476.8 480.6c0 .1-99.7.3-222.7.3-123 0-222.7-.1-222.7-.3 0-.1 99.7-.3 222.7-.3 123 .1 222.7.2 222.7.3z" id="Table"/><g id="Plant"><path class="st6" d="M129.2 400.8c1.1-3.8 3.4-7.4 7-9 3.8-1.6 8.1-.7 12 .7 3.8 1.4 7.6 3.3 11.7 3.5 4.1.3 8.7-1.7 9.9-5.6 1.1-3.7-1.1-7.6-3.8-10.3-5.8-5.6-14.6-8-22.4-6.1-7.9 1.9-14.6 8-17.2 15.6"/><path d="M129.2 400.8c1.1-3.8 3.4-7.4 7-9 3.8-1.6 8.1-.7 12 .7 3.8 1.4 7.6 3.3 11.7 3.5 4.1.3 8.7-1.7 9.9-5.6 1.1-3.7-1.1-7.6-3.8-10.3-5.8-5.6-14.6-8-22.4-6.1-7.9 1.9-14.6 8-17.2 15.6" class="st17"/><path class="st6" d="M96.8 417.2c-6-5.7-5.7-15.6-2.7-23.3 3-7.7 9.5-13.6 16.8-17.5 14.1-7.6 31.8-8.1 46.4-1.5-7.2.2-14.1 4.3-17.8 10.4-3.3 5.5-4 12.1-6.7 17.8-3 6.4-8.6 11.6-15.2 14.2-6.6 2.7-14.2 2.6-20.8-.1M94 383.1c-6.6-7.8-7.5-20.4-6.5-30.6 1-10.2 3.3-20.5 1.7-30.6-1-6-3.3-11.7-4.1-17.8-.8-6 .3-12.8 5-16.7 5.4-4.5 13.8-3.4 19.4.8 5.6 4.2 8.8 10.8 11.2 17.4 5.2 14.4 7.1 30.5 2.8 45.2-4.3 14.7-14.3 27.9-29 32.4"/><path class="st7" d="M90.8 447.3v-3.5c.1-2.2.3-5.5.8-9.5s1.3-8.7 2.5-13.9c1.2-5.2 3.3-10.7 6.3-16.1 3-5.4 6.7-10 10.4-13.8 3.7-3.8 7.5-6.8 10.9-9 1.7-1.1 3.3-2 4.6-2.8 1.4-.7 2.6-1.4 3.7-1.8 1-.4 1.8-.8 2.4-1 .5-.2.8-.3.8-.3s-.3.2-.8.4c-.6.3-1.4.6-2.3 1.1-1 .5-2.2 1.2-3.6 1.9-1.4.8-2.9 1.7-4.6 2.9-3.3 2.2-7 5.2-10.7 9.1-3.7 3.8-7.3 8.4-10.2 13.8-6.1 10.7-7.8 21.9-9 29.7-.6 4-.8 7.2-1 9.4-.1 1.1-.1 1.9-.2 2.6v.8z"/><path class="st6" d="M33.6 352.2c-12.3 7.4-12.2 14.1-10.2 20.5s9.6 10.8 15.8 8.4c3.5-1.3 6.1-4.4 8.3-7.5 2.2-3.1 4.2-6.4 7.3-8.6 3.1-2.2 7.5-3.1 10.6-.9"/><path d="M33.6 352.2c-12.3 7.4-12.2 14.1-10.2 20.5s9.6 10.8 15.8 8.4c3.5-1.3 6.1-4.4 8.3-7.5 2.2-3.1 4.2-6.4 7.3-8.6 3.1-2.2 7.5-3.1 10.6-.9" class="st17"/><path class="st6" d="M24.4 360.3c3.2-4.4 11.1-5.7 16.1-3.5 5 2.2 8.7 6.6 12 11 3.3 4.4 6.5 9 11 12.1 4.5 3 10.9 4.2 15.4 1.1 3-2 4.7-5.5 5.2-9.1.5-3.6 0-7.2-.7-10.7-1.1-5.1-2.9-10.5-7-13.8-4.6-3.6-11-3.8-16.8-3.6-6.7.2-13.5.7-19.9 3.1-6.2 2.2-12.6 7.2-15.3 13.4"/><path class="st7" d="M80.6 437.5v-1.1c0-.7-.1-1.8-.1-3-.1-2.7-.2-6.5-.3-11.2-.1-4.7-.3-10.4-.7-16.6-.3-6.2-.8-13.1-1.8-20.2-.5-3.6-1-7.1-2-10.3-1-3.2-2.3-6.2-3.8-9s-3.1-5.3-4.7-7.4c-1.7-2.2-3.5-4.1-5.2-5.7-3.5-3.2-6.8-5.1-9.2-6.3-.6-.3-1.1-.5-1.6-.7-.5-.2-.9-.3-1.2-.5-.3-.1-.5-.2-.7-.3l-.2-.1s.1 0 .3.1c.2.1.4.1.8.2.3.1.8.3 1.2.4.5.2 1 .4 1.6.7 2.4 1.1 5.8 3 9.4 6.2 1.8 1.6 3.5 3.5 5.3 5.7 1.7 2.2 3.4 4.7 4.8 7.5 1.5 2.8 2.8 5.8 3.8 9.1s1.6 6.8 2.1 10.4c1 7.2 1.4 14 1.7 20.3.3 6.3.5 11.9.6 16.6.1 4.7.1 8.6.1 11.2v3.8c-.2.1-.2.2-.2.2zM85 443s-.7-1.8-1.3-5.3c-.6-3.4-1.1-8.5-.6-14.8.5-6.3 2.1-13.6 4.7-21.5 2.5-7.9 5.9-16.3 8.9-25.4 1.4-4.5 2.7-9 3.5-13.4.9-4.4 1.4-8.7 1.7-12.8.7-8.2.6-15.7.4-21.9-.2-6.2-.5-11.3-.8-14.8-.1-1.7-.2-3.1-.2-4v-1.4s0 .1.1.4c0 .3.1.6.1 1 .1 1 .2 2.3.3 4 .3 3.5.7 8.5.9 14.8.2 6.3.4 13.7-.3 22-.3 4.1-.9 8.5-1.7 12.9-.8 4.4-2.1 9-3.5 13.5-2.9 9.1-6.4 17.5-8.9 25.4-2.6 7.8-4.2 15.1-4.8 21.4-.6 6.2-.2 11.3.4 14.7.3 1.7.6 3 .8 3.9.1.4.2.8.2 1 .1.2.1.3.1.3z"/><path class="st8" d="M115.4 448.6H57.8l-1.3-11.1h58.9z"/><path class="st8" d="m64 447.3 7.2 33.3h31.3l6.7-33.3z"/><path class="st8" d="M115.4 448.6c0 .2-12.7.2-28.3.2-15.6 0-28.3-.2-28.3-.4s12.7-.2 28.3-.2c15.6 0 28.3.2 28.3.4z"/><path class="st7" d="M105.5 465c-.1.1-1.7-1.6-5.1-2.9-1.7-.7-3.8-1.2-6.2-1.2-2.4-.1-5 .5-7.6 1.4-2.6.9-5.1 1.9-7.5 2.5-2.4.5-4.6.5-6.5.2-1.8-.3-3.2-.8-4.1-1.3-.4-.3-.8-.5-1-.6l-.3-.3s.5.3 1.4.7c.9.4 2.3.9 4.1 1.1 1.8.2 4 .2 6.3-.3 2.3-.6 4.8-1.6 7.4-2.5 2.6-.9 5.3-1.5 7.8-1.4 2.4.1 4.6.7 6.3 1.4 1.7.7 2.9 1.6 3.8 2.2.4.3.7.6.9.8.2.1.3.2.3.2z"/><path class="st3" d="M105.1 467.2c-.1.1-1.6-1.5-4.9-2.9-1.6-.7-3.7-1.2-6-1.2-2.3-.1-4.8.5-7.3 1.3s-4.9 1.8-7.2 2.4c-2.3.6-4.4.8-6.2.7-1.8-.1-3.2-.6-4.1-1.1-.4-.2-.8-.4-1-.6-.2-.2-.3-.2-.3-.3 0 0 .5.3 1.4.7.9.4 2.3.8 4 .9 1.7.1 3.8-.2 6-.8 2.2-.6 4.6-1.6 7.2-2.5 2.6-.9 5.2-1.4 7.5-1.3 2.4.1 4.5.6 6.1 1.4 1.6.7 2.8 1.6 3.6 2.2.4.3.7.6.9.8l.3.3z"/><path class="st3" d="M106.1 462.8c-.1.1-1.8-1.6-5.2-3.1-1.7-.7-3.9-1.4-6.3-1.5-2.5-.2-5.1.5-7.8 1.4-2.7.9-5.2 2-7.7 2.5s-4.8.3-6.7 0c-1.9-.3-3.3-.9-4.3-1.4-.5-.3-.8-.5-1-.6l-.3-.3s.5.3 1.5.7c1 .4 2.4.9 4.2 1.2 1.8.2 4.1.3 6.5-.1 2.4-.5 4.9-1.6 7.7-2.5 2.7-.9 5.5-1.6 8-1.4 2.5.2 4.7.9 6.5 1.7 1.7.8 3 1.7 3.8 2.3.4.3.7.6.9.8.1.2.2.3.2.3z"/><path class="st7" d="M114.9 448.7c0 .1-12.7.1-28.5.1-15.7 0-28.5-.1-28.5-.1 0-.1 12.7-.1 28.5-.1s28.5.1 28.5.1z"/></g><g id="Music_Notes"><path class="st7" d="M126.6 179.8c-.8 2.4-3.4 3.6-5.8 2.7-2.4-.8-3.6-3.4-2.7-5.8.8-2.4 3.4-3.6 5.8-2.7 2.4.9 3.6 3.5 2.7 5.8z"/><path class="st7" d="M126.5 178.2c-.3.1-1.8-4.4-2.6-10.2-.8-5.8-1.4-10.4-1.2-10.5.3-.1 1.4 4.6 2.2 10.3.8 5.8 1.9 10.3 1.6 10.4z"/><path class="st7" d="M132.3 155.6c.2.2-1.5 2.1-4.5 2.7-2.9.7-5.3-.3-5.2-.5.1-.3 2.3.2 5-.5 2.7-.5 4.5-1.9 4.7-1.7zM132.7 160.3c.2.1-1.4 2.1-4.3 2.6s-5.1-.9-4.9-1.1c.1-.3 2.2.5 4.7.1 2.6-.4 4.4-1.8 4.5-1.6zM84.8 117c-3.7 2.6-8.7 1.6-11.3-2.1-2.6-3.7-1.6-8.7 2.1-11.3 3.7-2.6 8.7-1.6 11.3 2.1 2.5 3.7 1.6 8.7-2.1 11.3z"/><path class="st7" d="M86.3 114.5c-.7-.2 1.6-8.5 6.4-17.8 4.8-9.2 9-16.5 9.7-16.2.8.3-2.3 8.3-7.1 17.5-4.8 9.1-8.2 16.7-9 16.5z"/><path class="st7" d="M123 96.7c0 .7-6.8.6-13.7-3.9-3.4-2.2-5.9-5.2-6.9-7.6-1.2-2.5-.9-4.3-.5-4.3.4-.1.8 1.4 2.3 3.3 1.4 1.9 3.7 4.3 6.8 6.3 6.1 4 12.2 5.3 12 6.2zM105.4 133.3c-3.7 2.6-8.7 1.6-11.3-2.1-2.6-3.7-1.6-8.7 2.1-11.3 3.7-2.6 8.7-1.6 11.3 2.1 2.5 3.7 1.6 8.7-2.1 11.3z"/><path class="st7" d="M107 130.8c-.7-.2 1.6-8.5 6.4-17.8 4.8-9.2 9-16.5 9.7-16.2.8.3-2.3 8.3-7.1 17.5-4.9 9.1-8.3 16.7-9 16.5z"/><path class="st7" d="M120.7 101.7c.1.7-6.4 1.1-13-2.9-6.6-3.9-9.4-9.8-8.7-10.1.7-.5 4.2 4.2 10.1 7.7 6 3.6 11.7 4.5 11.6 5.3z"/><path class="st1" d="M206.5 147.8c-1.1.7-2.4.3-3.1-.7-.7-1.1-.3-2.4.7-3.1 1.1-.7 2.4-.3 3.1.7.7 1.1.4 2.5-.7 3.1z"/><path class="st1" d="M207 147.1c-.2-.1.6-2.3 2-4.8 1.5-2.5 2.7-4.4 2.9-4.4.2.1-.8 2.3-2.2 4.7-1.5 2.6-2.5 4.6-2.7 4.5z"/><path class="st1" d="M217.4 142.7c0 .2-1.9.1-3.7-1.3-.9-.7-1.5-1.5-1.8-2.2-.3-.7-.2-1.2-.1-1.2s.2.4.6 1c.4.6 1 1.2 1.8 1.8 1.6 1.3 3.2 1.7 3.2 1.9zM212 152.6c-1.1.7-2.4.3-3.1-.7-.7-1.1-.3-2.4.7-3.1 1.1-.7 2.4-.3 3.1.7.7 1.1.3 2.5-.7 3.1z"/><path class="st1" d="M212.5 151.9c-.2-.1.6-2.3 2-4.8 1.5-2.5 2.7-4.4 2.9-4.4.2.1-.8 2.3-2.2 4.7-1.5 2.6-2.5 4.6-2.7 4.5z"/><path class="st1" d="M216.7 144.1c0 .2-1.8.2-3.6-1s-2.4-2.8-2.3-2.9c.2-.1 1.1 1.2 2.7 2.3 1.6 1.1 3.2 1.4 3.2 1.6z"/><path class="st7" d="M185.7 194.8c-.5 2.5-2.9 4-5.4 3.5-2.5-.5-4-2.9-3.5-5.4.5-2.5 2.9-4 5.4-3.5 2.5.5 4 2.9 3.5 5.4z"/><path class="st7" d="M185.4 193.2c-.4.2-2.7-4.1-4.3-9.7-1.6-5.6-2.7-10.2-2.4-10.3.4-.2 2.3 4.3 3.9 9.9 1.6 5.5 3.2 9.9 2.8 10.1z"/><path class="st7" d="M193.4 171.8c.2.3-2.5 2.9-7.1 3.7-2.2.4-4.4.2-5.8-.4-1.4-.6-2-1.4-1.9-1.5.2-.2.9.2 2.2.5 1.3.3 3.1.3 5.2-.1 4.1-.8 7.1-2.6 7.4-2.2zM200.4 193.4c-.5 2.5-2.9 4-5.4 3.5-2.5-.5-4-2.9-3.5-5.4.5-2.5 2.9-4 5.4-3.5 2.4.6 4 3 3.5 5.4z"/><path class="st7" d="M200 191.8c-.4.2-2.7-4.1-4.3-9.7-1.6-5.6-2.7-10.2-2.4-10.3.4-.2 2.3 4.3 3.9 9.9 1.7 5.5 3.2 9.9 2.8 10.1z"/><path class="st7" d="M194.4 174.7c.3.3-2.2 2.9-6.4 3.8-4.2 1-7.6-.4-7.4-.7.1-.5 3.3.1 7.1-.8 3.7-.8 6.4-2.6 6.7-2.3z"/></g></svg>