<svg version="1.1" id="Layer_1" xmlns="http://www.w3.org/2000/svg" x="0" y="0" viewBox="0 0 500 500" style="enable-background:new 0 0 500 500" xml:space="preserve"><style>.st0{fill:#f5f5f5}.st1{fill:#fafafa}.st2{fill:#ebebeb}.st3{fill:#e0e0e0}.st5{display:inline;fill:#ebebeb}.st6{fill:#263238}.st7{fill:#455a64}.st8{fill:#e8505b}.st9{fill:#e4dcf9}.st12{fill:#671cc7}.st13{opacity:.3}.st14{fill:#fff}.st16{opacity:.6}.st17{fill:#ffbe9d}.st18{fill:#eb996e}</style><g id="Background_Complete"><path class="st0" d="M409.5 208.6c-13.2-19.2-44.1-23-61.5-7.4-.4-15.6-10.7-30.6-25.2-36.4-14.5-5.8-32.3-2.2-43.4 8.8 2.5-8.7-6.7-17.3-15.8-17.8-9.1-.5-17.5 4.4-25.3 9.1-7.8 4.7-16.2 9.5-25.3 8.9-9.8-.7-18-7.5-27.2-11.1-22.5-8.7-50.9 6.7-55.9 30.3-24.9-10-56.8 6.4-63.1 32.5l364.3 4.3c-2.4-10.4-11.2-19-21.6-21.2z"/><path class="st1" d="M394.9 91.4c.6-4.6-5.8-8.3-10.7-8.7-2.3-.2-4.7.2-6.9-.6-4.8-1.7-6.6-7.8-11.3-9.7-3.5-1.5-7.5-.2-10.8 1.5-3.4 1.7-6.7 3.8-10.4 4.1-3.3.2-6.8-1-9.7.6-2.1 1.2-3.2 3.6-5.2 5.1-1.9 1.4-4.4 1.7-6.8 1.8-2.4.1-4.8.2-7 1.1-2.2 1-4 3.3-3.5 5.6l82.3-.8zM77.8 53.7c.4-2.6-3.3-4.7-6-4.9-1.3-.1-2.6.1-3.9-.3-2.7-.9-3.7-4.3-6.3-5.4-1.9-.8-4.2-.1-6 .9-1.9.9-3.7 2.1-5.8 2.3-1.8.1-3.8-.6-5.4.3-1.2.7-1.8 2-2.9 2.8-1.1.8-2.5 1-3.8 1-1.3.1-2.7.1-3.9.6-1.2.6-2.2 1.8-2 3.1l46-.4z"/><path class="st2" d="M453.3 138c.7-5.3-6.7-9.6-12.3-10-2.7-.2-5.4.2-7.9-.7-5.5-1.9-7.6-9-13-11.2-4-1.7-8.6-.2-12.4 1.8s-7.7 4.4-12 4.7c-3.8.2-7.8-1.2-11.1.7-2.4 1.4-3.7 4.2-6 5.8-2.2 1.6-5.1 2-7.8 2.1-2.7.1-5.6.2-8.1 1.3s-4.6 3.8-4 6.5l94.6-1zM443.1 47.8c.5-3.7-4.7-6.8-8.6-7.1-1.9-.2-3.8.1-5.6-.5-3.8-1.3-5.4-6.3-9.1-7.9-2.8-1.2-6-.1-8.8 1.2-2.7 1.4-5.4 3.1-8.4 3.3-2.6.2-5.5-.8-7.8.5-1.7 1-2.6 2.9-4.2 4.1-1.6 1.1-3.6 1.4-5.5 1.5s-3.9.1-5.7.9c-1.8.8-3.2 2.7-2.8 4.6l66.5-.6zM92.8 136.2c.4-2.8-3.5-5-6.4-5.3-1.4-.1-2.8.1-4.2-.4-2.9-1-4-4.7-6.8-5.9-2.1-.9-4.5-.1-6.5.9s-4 2.3-6.3 2.4c-2 .1-4.1-.6-5.8.4-1.3.7-2 2.2-3.1 3.1-1.2.9-2.7 1-4.1 1.1s-2.9.1-4.2.7c-1.3.6-2.4 2-2.1 3.4l49.5-.4z"/><path class="st0" d="M195.6 93.9c.8-5.8-7.4-10.6-13.6-11.1-2.9-.2-6 .2-8.8-.8-6-2.1-8.5-9.9-14.4-12.4-4.4-1.9-9.5-.2-13.8 1.9-4.3 2.2-8.5 4.9-13.3 5.2-4.2.3-8.7-1.3-12.3.8-2.7 1.5-4.1 4.6-6.6 6.5-2.4 1.8-5.6 2.2-8.7 2.3-3 .2-6.2.2-8.9 1.5-2.8 1.3-5 4.2-4.5 7.2l104.9-1.1z"/><path class="st2" d="M27.9 302.9s-8.5 1.2-3.7 19.9 8.9 28.3 8.9 28.3.7 4.2-2.8 4.1c-3.4-.1-10.4-2.9-12.7.8-2.4 3.8-.3 8.4 5.1 13.2 5.4 4.8 16.7 15.7 17.7 16.7s1.8 3-.6 3.3c-2.3.3-18.9-1.6-19.4 6.3-.4 7.9 16.7 18.8 18.6 20.1 1.9 1.2 2.1 2.2 1.7 3.3-.4 1.1-5.9-.1-10.7-.4-4.7-.3-10.3.1-10.2 4.7.1 4.6 9.1 16.2 35.4 24.7l12.4 3.2 9.1-9.1c18.4-20.6 20.4-35.1 18.2-39.2-2.2-4-7.2-1.6-11.1 1.1s-8.1 6.5-9 5.7c-.9-.7-1.1-1.7-.1-3.7s10.3-20 6-26.7c-4.4-6.6-17.8 3.3-19.9 4.3-2.2.9-2.5-1.3-2.2-2.6.4-1.4 4.7-16.5 6.9-23.4 2.2-6.8 1.8-11.9-2.2-14-3.9-2-8.5 3.9-11.4 5.7-2.9 1.8-4.4-2.2-4.4-2.2s-1.3-10.4-6.5-28.9c-5.2-18.6-13.3-15.2-13.3-15.2"/><path class="st3" d="M67.8 454.1c-3.8-13.7-10-38-15.5-58.9s-10.5-39.8-14.1-53.5c-1.8-6.8-3.3-12.3-4.4-16.2-.5-1.9-.9-3.4-1.2-4.4-.1-.5-.2-.9-.3-1.1-.1-.3-.1-.4-.1-.4s0 .1.1.4.2.6.3 1.1c.3 1 .7 2.5 1.3 4.4 1.1 3.8 2.6 9.3 4.5 16.2 3.8 13.7 8.8 32.6 14.3 53.4 5.5 20.9 11.7 45.3 15.4 59M27.2 360.2s.3.1.8.4 1.2.8 2.1 1.3c1.8 1.1 4.2 2.8 6.9 4.7 2.6 1.9 5 3.5 6.8 4.8.8.6 1.5 1.1 2.1 1.4.5.3.8.5.7.6 0 0-.3-.1-.8-.4s-1.2-.8-2.1-1.3c-1.8-1.2-4.2-2.8-6.8-4.7-2.6-1.8-5-3.5-6.8-4.8-.8-.6-1.5-1-2.1-1.4-.5-.4-.8-.6-.8-.6zM47.7 372.8c-.1-.1 3.1-5.2 7.1-11.5s7.3-11.4 7.4-11.3c.1.1-3.1 5.2-7.1 11.5s-7.3 11.4-7.4 11.3z"/><path class="st3" d="M54.6 405.3s.2-.3.7-.7c.5-.5 1.2-1 1.9-1.7 1.6-1.4 3.9-3.4 6.3-5.7 2.4-2.3 4.5-4.4 6-6 .7-.7 1.3-1.4 1.8-1.9.4-.4.7-.7.7-.6 0 0-.2.3-.6.8s-1 1.1-1.7 1.9c-1.5 1.6-3.5 3.8-5.9 6.1-2.4 2.3-4.7 4.3-6.3 5.6-.8.7-1.5 1.2-2 1.6-.6.4-.8.6-.9.6zM33.6 397.9s.3 0 .9.2c.6.2 1.4.4 2.3.7 1.9.6 4.5 1.5 7.4 2.4 2.9 1 5.5 1.9 7.4 2.5.9.3 1.6.6 2.2.8.5.2.8.3.8.4 0 0-.3 0-.9-.2-.6-.2-1.4-.4-2.3-.7-1.9-.6-4.5-1.5-7.5-2.4-2.9-1-5.5-1.9-7.4-2.5-.9-.3-1.6-.6-2.2-.8-.4-.2-.7-.3-.7-.4zM36.1 427.4s.4.1 1.1.3c.8.2 1.7.5 2.9.9 2.5.8 5.8 1.8 9.6 3 3.7 1.2 7.1 2.3 9.5 3.2 1.2.4 2.1.7 2.9 1 .7.2 1 .4 1 .4s-.4-.1-1.1-.3c-.8-.2-1.7-.5-2.9-.9-2.5-.8-5.8-1.8-9.6-3-3.7-1.2-7.1-2.3-9.5-3.2-1.2-.4-2.1-.7-2.9-1-.6-.2-1-.4-1-.4zM62.6 435.8s.3-.3.8-.9c.6-.6 1.4-1.3 2.4-2.2 2-1.9 4.7-4.5 7.7-7.5s5.6-5.8 7.4-7.8c.9-1 1.6-1.8 2.2-2.4.5-.6.8-.9.8-.8 0 0-.2.4-.7.9-.5.6-1.2 1.4-2.1 2.5-1.8 2.1-4.4 4.9-7.4 7.9s-5.7 5.6-7.8 7.4c-1 .9-1.9 1.7-2.5 2.1l-.8.8z"/><path class="st0" d="M422.1 455.2c-20.7-11.5-28.5-37-30.9-60.6-.4-3.9-1.4-8-.1-11.7s5-6.6 8.5-5.4c2.9 1 4.5 4.2 6.4 6.8 2.5 3.4 6 6.1 9.8 7.6 2.5 1 5.5 1.4 7.6-.3 2.9-2.3 2.7-7 2.1-10.9-1-7.3-2-14.5-3.1-21.8-.5-3.9-1.1-7.9-.5-11.7.6-3.9 2.7-7.6 6-9.2 3.3-1.5 7.9 0 9.1 3.7.5 1.5.4 3.2.8 4.8.3 1.6 1.3 3.3 2.8 3.5 1.5.3 2.8-1 3.8-2.3 3.2-4.5 5.1-9.9 6.8-15.2 1.7-5.4 3.3-10.9 6.2-15.6 2.8-4.8 7.1-8.8 12.3-9.9 5.2-1 11.2 1.6 13.3 6.9 2.1 5.3-.2 11.3-2.8 16.2-4 7.3-8.9 13.9-14.6 19.6-1 1-2.1 2.1-2.4 3.6-.4 2.7 2.2 5 4.7 5.5 2.8.6 5.8-.1 8.6-.1 2.9 0 6.1.9 7.6 3.6 2 3.8-.5 8.4-3.2 11.5-5.4 6.3-11.8 11.6-18.9 15.6-2.5 1.4-5.2 2.7-7.1 5s-2.7 6-1 8.6 5.1 3 7.9 2c2.7-.9 5-2.9 7.6-4.4 4.7-2.7 11.3-3.2 15.1 1 2.5 2.8 3.3 7 2.7 10.7-.6 3.8-2.3 7.2-4.2 10.4-6.7 11.2-15.9 20.7-26.9 26.6-11.2 6.1-21.8 8.8-34 5.9"/><path class="st3" d="M425.8 439.7c1.6-12.3 4.5-25.6 7.9-39.4.9-3.4 1.7-6.8 2.6-10.2.9-3.3 1.7-6.7 2.7-9.9 2-6.4 4.4-12.4 6.8-18s4.9-10.8 7.3-15.7c2.4-4.9 4.7-9.3 6.9-13.3 4.5-8 8.8-13.9 12-17.9 1.6-2 2.8-3.5 3.7-4.5.4-.5.7-.9 1-1.1.2-.3.3-.4.4-.4 0 0-.1.2-.3.4-.2.3-.5.7-.9 1.2-.8 1-2.1 2.6-3.6 4.6-3.1 4-7.3 10-11.8 18-2.2 4-4.5 8.5-6.8 13.3-2.3 4.9-4.8 10.1-7.2 15.7-2.4 5.6-4.8 11.5-6.8 17.9-1 3.2-1.8 6.5-2.7 9.8-.8 3.4-1.7 6.8-2.6 10.2-3.4 13.8-6.3 27-7.9 39.3"/><path class="st3" d="M439.2 380.2s-.2-.6-.6-1.6c-.3-1.1-.8-2.6-1.3-4.5-1-3.8-2.3-9.1-3.7-15-1.4-5.9-2.7-11.1-3.8-14.9-.5-1.9-1-3.4-1.3-4.5s-.5-1.6-.4-1.7c0 0 .3.5.7 1.6.4 1 .9 2.5 1.5 4.4 1.2 3.8 2.6 9 4 14.9 1.3 5.8 2.6 11 3.5 15 .4 1.8.8 3.3 1.1 4.5.2 1.1.4 1.7.3 1.8zM484.8 364.3s-.6.2-1.8.5c-1.2.3-2.9.7-5 1.2-4.2 1.1-10 2.8-16.3 5s-11.9 4.5-15.9 6.2c-2 .9-3.6 1.6-4.7 2.1s-1.7.8-1.8.7c0 0 .6-.4 1.7-1s2.7-1.4 4.7-2.3c4-1.9 9.6-4.2 15.9-6.5 6.3-2.2 12.1-3.9 16.4-4.8 2.1-.5 3.9-.8 5.1-1 1 0 1.7-.1 1.7-.1zM426.3 438.7s-.2-.2-.4-.6c-.3-.5-.6-1-1-1.7-.9-1.5-2.2-3.7-3.7-6.4-3-5.4-7-13.1-11.3-21.6s-8.2-16.2-11.1-21.6c-1.4-2.7-2.6-4.9-3.5-6.5-.4-.7-.7-1.3-.9-1.8l-.3-.6s.2.2.4.6c.3.5.6 1 1 1.7.9 1.5 2.2 3.7 3.7 6.4 3 5.4 7 13.1 11.3 21.6s8.2 16.2 11.1 21.6c1.4 2.7 2.6 4.9 3.5 6.5.4.7.7 1.3.9 1.8.2.3.3.5.3.6z"/><path class="st3" d="M485.7 408.6s-.2.1-.6.4c-.5.2-1 .5-1.7.9-1.6.8-3.7 1.9-6.4 3.2-5.4 2.7-12.7 6.6-20.9 10.9-8.1 4.3-15.6 8.1-21 10.7-2.7 1.3-4.9 2.3-6.5 3-.7.3-1.3.6-1.8.8-.4.2-.6.2-.6.2s.2-.1.6-.4c.5-.2 1-.5 1.7-.9 1.6-.8 3.7-1.9 6.4-3.2 5.4-2.7 12.7-6.6 20.9-10.9 8.1-4.3 15.6-8.1 21-10.7 2.7-1.3 4.9-2.3 6.5-3 .7-.3 1.3-.6 1.8-.8l.6-.2z"/></g><path class="st6" d="M484.7 478.4c0 .1-105.5.3-235.7.3s-235.7-.1-235.7-.3c0-.1 105.5-.3 235.7-.3s235.7.1 235.7.3z" id="Floor"/><g id="Device"><path class="st7" d="M423.4 472.8H70.8c-8 0-14.6-6.5-14.6-14.6V235c0-8 6.5-14.6 14.6-14.6h352.6c8 0 14.6 6.5 14.6 14.6v223.3c-.1 8-6.6 14.5-14.6 14.5z"/><path class="st7" d="M437.4 478.6H58.7c-9.6 0-17.4-7.8-17.4-17.4v-4.7h413.6v4.7c-.1 9.6-7.9 17.4-17.5 17.4z"/><path class="st6" d="M66.5 230.4h360.2v213.2H66.5zM209.4 454.1l5.2 8.2h72.2l4.7-8.2z"/><path class="st2" d="M416.7 442.9H77.1c-1.8 0-3.3-1.5-3.3-3.3V240.9c0-1.8 1.5-3.3 3.3-3.3h339.5c1.8 0 3.3 1.5 3.3 3.3v198.7c0 1.8-1.4 3.3-3.2 3.3z"/><path class="st1" d="M419.6 443.2H73.5l.4-190.2h345.7z"/><path class="st6" d="M102.3 245.6c0 1.5-1.2 2.8-2.8 2.8-1.5 0-2.8-1.2-2.8-2.8 0-1.5 1.2-2.8 2.8-2.8 1.5 0 2.8 1.2 2.8 2.8zM85.5 245.6c0 1.5-1.2 2.8-2.8 2.8-1.5 0-2.8-1.2-2.8-2.8 0-1.5 1.2-2.8 2.8-2.8s2.8 1.2 2.8 2.8zM93.5 245.6c0 1.5-1.2 2.8-2.8 2.8-1.5 0-2.8-1.2-2.8-2.8 0-1.5 1.2-2.8 2.8-2.8s2.8 1.2 2.8 2.8zM434.6 454.1c0 .1-84.7.2-189.2.2s-189.2-.1-189.2-.2 84.7-.2 189.2-.2 189.2.1 189.2.2z"/><path class="st8" d="M383.1 334.9c-9.7 8.1-14.2 22.1-11 34.4-9-1.8-18.8 1.2-25.3 7.6-6.5 6.5-9.5 16.2-7.8 25.2-9.9-6.8-25.1-4.3-32.2 5.4-.2-6.4-.4-13.1-3.8-18.6-3.4-5.4-11-8.8-16.4-5.4 4.1-4.6 4.7-11.9 1.4-17.1-3.2-5.2-10.1-7.9-16-6.4-.2-7.7-5-62.1-9-107.9h-34c-3.9 45.1-8.6 96.9-8.7 104.3-5.9-1.6-12.8 1.1-16 6.4-3.2 5.2-2.6 12.5 1.4 17.1-5.4-3.5-13-.1-16.4 5.4-3.4 5.4-3.6 12.2-3.8 18.6-7.1-9.7-22.3-12.2-32.2-5.4 1.7-9-1.3-18.8-7.8-25.2-6.5-6.5-16.3-9.4-25.3-7.6 3.2-12.3-1.3-26.2-11-34.4-9.7-8.1-24.2-10.1-35.8-4.7v116.6h345.3v-113c-11.3-5.4-25.9-3.5-35.6 4.7z"/><path class="st9" d="M383.1 334.9c-9.7 8.1-14.2 22.1-11 34.4-9-1.8-18.8 1.2-25.3 7.6-6.5 6.5-9.5 16.2-7.8 25.2-9.9-6.8-25.1-4.3-32.2 5.4-.2-6.4-.4-13.1-3.8-18.6-3.4-5.4-11-8.8-16.4-5.4 4.1-4.6 4.7-11.9 1.4-17.1-3.2-5.2-10.1-7.9-16-6.4-.2-7.7-5-62.1-9-107.9h-34c-3.9 45.1-8.6 96.9-8.7 104.3-5.9-1.6-12.8 1.1-16 6.4-3.2 5.2-2.6 12.5 1.4 17.1-5.4-3.5-13-.1-16.4 5.4-3.4 5.4-3.6 12.2-3.8 18.6-7.1-9.7-22.3-12.2-32.2-5.4 1.7-9-1.3-18.8-7.8-25.2-6.5-6.5-16.3-9.4-25.3-7.6 3.2-12.3-1.3-26.2-11-34.4-9.7-8.1-24.2-10.1-35.8-4.7v116.6h345.3v-113c-11.3-5.4-25.9-3.5-35.6 4.7z"/><path class="st8" d="M381 419.8c-12.4-8.3-28.2-11.2-42.7-7.9-14.5 3.3-27.5 12.9-34.9 25.8-3-4.1-7-7.4-11.6-9.7.3-.9.6-1.7.8-2.6 2-8.9-1.8-18.9-9.3-24.2-5.3-3.7-12.2-4.9-18.6-3.5l-10.2-145.6h-13.4v133.8c-8.3 1.3-14.1 11.1-11.2 19-5.8.8-11 4.7-13.5 10-.8 1.7-.9 5.4-.2 9.5-10.1.1-20.1 5.1-26 13.3-7.5-12.9-20.4-22.4-34.9-25.8-14.5-3.3-30.3-.4-42.7 7.9-3.5-17-22.5-29.1-39.4-25v48.5l155.8-.2c1 .3 2.1.5 3.3.5l38.1-.4 150.1.2v-48.5c-16.9-4.1-36 7.9-39.5 24.9z"/><path d="M381 419.8c-12.4-8.3-28.2-11.2-42.7-7.9-14.5 3.3-27.5 12.9-34.9 25.8-3-4.1-7-7.4-11.6-9.7.3-.9.6-1.7.8-2.6 2-8.9-1.8-18.9-9.3-24.2-5.3-3.7-12.2-4.9-18.6-3.5l-10.2-145.6h-13.4v133.8c-8.3 1.3-14.1 11.1-11.2 19-5.8.8-11 4.7-13.5 10-.8 1.7-.9 5.4-.2 9.5-10.1.1-20.1 5.1-26 13.3-7.5-12.9-20.4-22.4-34.9-25.8-14.5-3.3-30.3-.4-42.7 7.9-3.5-17-22.5-29.1-39.4-25v48.5l155.8-.2c1 .3 2.1.5 3.3.5l38.1-.4 150.1.2v-48.5c-16.9-4.1-36 7.9-39.5 24.9z" style="fill:#d2bff7"/></g><g id="Rocket"><path class="st8" d="M233.3 206.5c-7.7 3.6-11.2 14.2-7.2 21.7 1.6 3 4.2 5.6 4.5 8.9.5 5.1-4.3 9.1-5.8 14-1.8 5.8 2.1 12.6 7.9 14.1 2.6.7 5.8.6 7.5 2.6 2.2 2.6.6 7 2.5 9.9 1.7 2.6 5.8 2.7 8.4 1 2.6-1.7 4-4.7 5.1-7.7 1-3 1.8-6.1 3.6-8.6 2-2.8 4.9-4.8 7.3-7.3 5.7-6 7.5-15 6.2-23.2s-5.3-15.7-9.7-22.7"/><path d="M233.3 206.5c-7.7 3.6-11.2 14.2-7.2 21.7 1.6 3 4.2 5.6 4.5 8.9.5 5.1-4.3 9.1-5.8 14-1.8 5.8 2.1 12.6 7.9 14.1 2.6.7 5.8.6 7.5 2.6 2.2 2.6.6 7 2.5 9.9 1.7 2.6 5.8 2.7 8.4 1 2.6-1.7 4-4.7 5.1-7.7 1-3 1.8-6.1 3.6-8.6 2-2.8 4.9-4.8 7.3-7.3 5.7-6 7.5-15 6.2-23.2s-5.3-15.7-9.7-22.7" style="fill:#bf9cf7"/><path class="st12" d="M240 210.9c-6.5 2.9-9.4 11.9-5.7 18 2.2 3.7 6.6 7.1 5.6 11.3-.7 2.9-3.8 4.6-4.7 7.4-1.2 3.7 2.4 7.7 6.3 8.2 3.9.5 7.7-1.6 10.6-4.2 10.2-9 12.7-26.6 6.3-38.6M273.6 153.6s33.4 22.1 29.8 60.4l-30.7-13.8.9-46.6z"/><path class="st6" d="m218 199.4 7.6 12.6H265l7.6-11.9z"/><path class="st8" d="M243.3 72.4c-15.6 1-27.6 14.1-27.3 29.8l2 98h54.6l1.8-98c.3-17.2-14.1-30.9-31.1-29.8z"/><path class="st9" d="M243.3 72.4c-15.6 1-27.6 14.1-27.3 29.8l2 98h54.6l1.8-98c.3-17.2-14.1-30.9-31.1-29.8z"/><path class="st12" d="M217 153.6s-33.4 22.1-29.8 60.4l30.7-13.8-.9-46.6zM216.3 98.9c11.5-10.1 47.8-9.9 57.5-1.7-2.5-36.4-30.3-50-30.3-50-28.4 19.7-27.2 51.7-27.2 51.7z"/><path class="st6" d="m243.6 47.3.3.3.9.9c.4.4.9.9 1.5 1.4.3.3.6.6 1 .9.3.3.7.7 1 1.1.7.8 1.5 1.7 2.4 2.6.8 1 1.7 2.1 2.7 3.3.5.6.9 1.3 1.4 1.9.5.7 1 1.3 1.4 2.1.9 1.5 1.9 3 2.7 4.8 1.8 3.4 3.4 7.3 4.5 11.7.6 2.2 1 4.5 1.3 6.9.2 1.2.3 2.4.4 3.6s.1 2.5.1 3.8c0 10.2-.1 21.3-.3 33-.3 23.4-.6 44.7-.9 60-.1 7.7-.2 13.9-.3 18.2 0 2.1-.1 3.8-.1 4.9V210.4 203.8c.1-4.3.1-10.5.2-18.2.2-15.4.5-36.6.8-60 .1-11.7.3-22.9.3-33 0-1.3 0-2.5-.1-3.7-.2-1.2-.3-2.4-.4-3.6-.3-2.4-.7-4.7-1.3-6.9-1.1-4.4-2.7-8.3-4.5-11.7-.8-1.7-1.8-3.3-2.7-4.7-.4-.7-1-1.4-1.4-2.1-.5-.7-.9-1.3-1.4-1.9-.9-1.2-1.8-2.3-2.6-3.3-.9-1-1.7-1.9-2.4-2.7-.4-.4-.7-.8-1-1.1s-.7-.6-1-.9l-1.5-1.5-.9-.9c0-.2-.1-.3-.1-.3z"/><ellipse transform="rotate(-77.549 243.231 120.823)" class="st1" cx="243.2" cy="120.8" rx="14.4" ry="13.4"/><path class="st6" d="M246.3 106.7h-.2c-.2 0-.4-.1-.7-.1-.1 0-.3 0-.5-.1H242.8c-.6 0-1.2.1-1.8.2-.6.2-1.4.3-2.1.6-1.4.6-3 1.5-4.4 2.8s-2.7 3.1-3.6 5.3c-.2.5-.4 1.1-.6 1.7-.1.3-.2.6-.2.9-.1.3-.1.6-.2.9l-.1.5v.5c0 .3 0 .6-.1.9v1.5l.1.5c.2 2.6 1.2 5.2 3 7.4 1.7 2.2 4.3 3.9 7.2 4.6 2.9.6 6 .2 8.5-1.1s4.5-3.3 5.8-5.5l.3-.4.2-.4c.1-.3.3-.6.4-.9l.3-.9.2-.4.1-.4c.1-.3.2-.6.2-.9.1-.3.1-.6.2-.9.1-.6.2-1.2.2-1.7.2-2.3-.3-4.5-1-6.3-.7-1.8-1.8-3.3-2.8-4.4-.5-.6-1.1-1-1.6-1.5-.6-.4-1-.7-1.5-1-.2-.1-.5-.3-.7-.4l-.6-.3c-.2-.1-.4-.2-.5-.2-.2-.1-.3-.1-.5-.1-.3-.1-.5-.1-.6-.2-.2-.1-.3-.2-.3-.2h.2c.2 0 .4.1.6.2.1 0 .3.1.5.1.2.1.4.1.6.2.2.1.4.2.6.2.2.1.5.2.7.4.5.2 1 .6 1.6 1 .5.4 1.1.9 1.7 1.4 1.1 1.1 2.2 2.6 2.9 4.5.7 1.8 1.2 4 1.1 6.4 0 .6-.1 1.2-.2 1.8-.1.3-.1.6-.2.9s-.2.6-.2.9l-.1.5-.2.4-.3.9c-.1.3-.3.6-.4.9l-.2.4-.3.4c-1.3 2.3-3.3 4.3-5.9 5.6-2.5 1.4-5.7 1.8-8.7 1.2-3-.7-5.6-2.4-7.4-4.7-1.8-2.3-2.8-5-3-7.6l-.1-.5v-1.5c0-.3 0-.6.1-1v-.5l.1-.5c.1-.3.1-.6.2-.9.1-.3.2-.6.2-.9.1-.6.4-1.1.6-1.7.9-2.2 2.2-4 3.7-5.3 1.5-1.4 3-2.3 4.5-2.8.7-.3 1.5-.5 2.1-.6.7-.1 1.3-.2 1.8-.2h2.1c.2 0 .3.1.5.1.3.1.5.1.7.1l.1.2zM229.4 118.6c0 .2-3.1.1-6.8.8-3.7.6-6.6 1.8-6.6 1.6 0-.1.7-.4 1.8-.9 1.2-.4 2.8-1 4.7-1.3s3.6-.4 4.9-.4c1.3.1 2 .2 2 .2zM273.6 118.6c0 .1-.9 0-2.5-.2-1.5-.2-3.6-.4-5.9-.6s-4.4-.2-5.9-.2-2.5 0-2.5-.1.9-.2 2.5-.3c1.5-.1 3.6-.1 6 .1 2.3.2 4.4.5 5.9.8 1.5.2 2.4.5 2.4.5zM273.9 174.7h-.6c-.4 0-1-.1-1.7-.1-1.5-.1-3.6-.3-6.1-.5-5.1-.4-12.2-.7-20-.7s-14.9.4-20 .7c-2.5.2-4.6.4-6.1.5-.7.1-1.2.1-1.7.1h-.6s.2-.1.6-.1c.4-.1 1-.1 1.6-.2 1.4-.2 3.5-.4 6.1-.7 5.1-.5 12.2-.9 20.1-.9 7.9 0 15 .4 20.1.9 2.6.2 4.6.5 6.1.6.7.1 1.2.2 1.6.2.4.1.6.2.6.2zM230.9 132.7c0 .1-.3.1-.6.5-.1.2-.2.5-.1.7.1.2.3.4.6.4s.6-.1.7-.3c.1-.2.1-.5 0-.7-.2-.4-.5-.5-.6-.6.1-.1.6-.1.9.4.2.3.3.7.1 1.1-.2.4-.7.7-1.2.7s-1-.4-1.1-.8c-.1-.5.1-.8.3-1.1.5-.5 1-.4 1-.3zM242.8 139.1c0 .1-.3.1-.6.5-.1.2-.2.5-.1.7.1.2.3.4.6.4s.6-.1.7-.3c.1-.2.1-.5 0-.7-.2-.4-.5-.5-.6-.6.1-.1.6-.1.9.4.2.3.3.7.1 1.1-.2.4-.7.7-1.2.7s-1-.4-1.1-.8c-.1-.5.1-.8.3-1.1.5-.5 1-.4 1-.3zM255.9 133.6c0 .1-.3.1-.6.5-.1.2-.2.5-.1.7.1.2.3.4.6.4s.6-.1.7-.3.1-.5 0-.7c-.2-.4-.5-.5-.5-.6s.5-.1.8.4c.2.3.3.7.1 1.1-.2.4-.7.7-1.2.7s-1-.4-1.1-.8c-.1-.5.1-.8.3-1.1.6-.5 1-.3 1-.3zM260.2 123.8c0 .1-.3.1-.6.5-.1.2-.2.5-.1.7s.3.4.6.4.6-.1.7-.3c.1-.2.1-.5 0-.7-.2-.4-.5-.5-.5-.6s.5-.1.8.4c.2.3.3.7.1 1.1-.2.4-.7.7-1.2.7s-1-.4-1.1-.8c-.1-.5.1-.8.3-1.1.5-.5 1-.3 1-.3zM226.5 122.9c0 .1-.3.1-.6.5-.1.2-.2.5-.1.7.1.2.3.4.6.4s.6-.1.7-.3c.1-.2.1-.5 0-.7-.2-.4-.5-.5-.6-.6.1-.1.6-.1.9.4.2.3.3.7.1 1.1s-.7.7-1.2.7-1-.4-1.1-.8c-.1-.5.1-.8.3-1.1.6-.5 1.1-.4 1-.3zM255.9 109.4c0-.1.3-.1.6-.5.1-.2.2-.5.1-.7s-.3-.4-.6-.4-.6.1-.7.3c-.1.2-.1.5 0 .7.2.4.5.5.6.6-.1.1-.6.1-.9-.4-.2-.3-.3-.7-.1-1.1s.7-.7 1.2-.7 1 .4 1.1.8c.1.5-.1.8-.3 1.1-.6.5-1.1.4-1 .3zM242.7 103.6c0-.1.3-.1.6-.5.1-.2.2-.5.1-.7-.1-.2-.3-.4-.6-.4s-.6.1-.7.3c-.1.2-.1.5 0 .7.2.4.5.5.6.6-.1.1-.6.1-.9-.4-.2-.3-.3-.7-.1-1.1s.7-.7 1.2-.7 1 .4 1.1.8c.1.5-.1.8-.3 1.1-.5.5-1 .4-1 .3zM229.8 109.4c0-.1.3-.1.6-.5.1-.2.2-.5.1-.7-.1-.2-.3-.4-.6-.4s-.6.1-.7.3c-.1.2-.1.5 0 .7.2.4.5.5.6.6-.1.1-.6.1-.9-.4-.2-.3-.3-.7-.1-1.1s.7-.7 1.2-.7 1 .4 1.1.8c.1.5-.1.8-.3 1.1-.6.5-1.1.4-1 .3z"/><path class="st12" d="m241.1 157.6 1.2 58.5c0 1.7 1.4 3 3.1 3 1.7 0 3-1.4 3-3 .1-10.5.5-46 .6-58.6 0-2.4-2.1-4.3-4.5-3.9-2 .3-3.4 2-3.4 4z"/><path d="m241.1 157.6 1.2 58.5c0 1.7 1.4 3 3.1 3 1.7 0 3-1.4 3-3 .1-10.5.5-46 .6-58.6 0-2.4-2.1-4.3-4.5-3.9-2 .3-3.4 2-3.4 4z" class="st13"/><path class="st14" d="M242.9 50.6c.2.2-1.8 2.1-4.6 5.4-1.4 1.6-3 3.7-4.7 6-1.6 2.4-3.3 5-4.9 7.9-1.6 2.9-2.8 5.8-3.9 8.4-1 2.7-1.8 5.1-2.4 7.2-1.2 4.2-1.7 6.8-2 6.8-.2 0-.1-2.8.8-7.1.4-2.2 1.2-4.7 2.1-7.5 1-2.7 2.3-5.7 3.9-8.7 1.6-3 3.4-5.7 5.1-8 1.8-2.3 3.5-4.3 5-5.9 3.2-3.1 5.5-4.6 5.6-4.5zM215.8 159.4c.2.2-2.6 2-6.5 5.6-.5.5-1 .9-1.5 1.4s-1 1.1-1.5 1.6c-1.1 1.1-2.1 2.4-3.2 3.7-2.1 2.7-4.3 5.9-6.2 9.4-1.8 3.5-3.3 7.1-4.3 10.4-.5 1.7-1 3.2-1.3 4.8-.2.8-.4 1.5-.5 2.2s-.2 1.4-.3 2c-.8 5.2-.7 8.5-1 8.5-.1 0-.2-.8-.3-2.3 0-.4 0-.8-.1-1.2V204c0-1.1 0-2.3.2-3.6.1-.7.2-1.4.2-2.1.1-.7.3-1.5.4-2.3.2-1.6.7-3.2 1.1-4.9 1-3.4 2.4-7.1 4.3-10.7 1.9-3.6 4.2-6.9 6.4-9.6 1.2-1.3 2.3-2.6 3.4-3.7.6-.5 1.1-1.1 1.6-1.6.6-.5 1.1-.9 1.6-1.4 1-.9 2-1.6 2.9-2.2l1.2-.9c.4-.2.7-.4 1.1-.6 1.5-.7 2.2-1.1 2.3-1z"/><path class="st8" d="M172.7 350.2c-2.7-1.5-4.2-4.8-3.7-7.8s3-5.6 6-6.2c2.7-.5 6.2.2 7.9-2 1.6-2 .4-4.6 1.1-7.8.7-3.1 3.4-4.7 6.5-4.7 3 0 5.8 2 7.4 4.6 1.5 2.6 2.5 6.7 2.1 9.7-.8 6.9-4.5 10.5-9.1 13.4-4.6 3-13.3 3.7-18.2.8"/><path class="st9" d="M172.7 350.2c-2.7-1.5-4.2-4.8-3.7-7.8s3-5.6 6-6.2c2.7-.5 6.2.2 7.9-2 1.6-2 .4-4.6 1.1-7.8.7-3.1 3.4-4.7 6.5-4.7 3 0 5.8 2 7.4 4.6 1.5 2.6 2.5 6.7 2.1 9.7-.8 6.9-4.5 10.5-9.1 13.4-4.6 3-13.3 3.7-18.2.8"/><path class="st8" d="M284.9 294.8c2.2-4.2 7.2-6.8 11.9-6.2 4.7.6 8.9 4.3 10 9 1 4.2 0 9.6 3.5 12.2 3.2 2.3 7.3.3 12.3 1.2 4.9.9 7.6 5.1 7.7 9.8.1 4.7-2.8 9.2-6.8 11.8s-10.3 4.3-15 3.9c-10.8-.9-16.6-6.4-21.4-13.4-4.8-7-6.4-20.6-2.2-28.3"/><path class="st9" d="M284.9 294.8c2.2-4.2 7.2-6.8 11.9-6.2 4.7.6 8.9 4.3 10 9 1 4.2 0 9.6 3.5 12.2 3.2 2.3 7.3.3 12.3 1.2 4.9.9 7.6 5.1 7.7 9.8.1 4.7-2.8 9.2-6.8 11.8s-10.3 4.3-15 3.9c-10.8-.9-16.6-6.4-21.4-13.4-4.8-7-6.4-20.6-2.2-28.3"/><path class="st8" d="M204.1 280.6c-1.9.8-4.1 3.5-4 6.6.1 4 4.3 7.3 8.2 6.6 3.9-.7 6.7-5.3 5.4-9-1.1-3.8-6-5.9-9.6-4.2"/><path class="st9" d="M204.1 280.6c-1.9.8-4.1 3.5-4 6.6.1 4 4.3 7.3 8.2 6.6 3.9-.7 6.7-5.3 5.4-9-1.1-3.8-6-5.9-9.6-4.2"/><path class="st8" d="M310.4 364.5c-.9.4-2 1.8-2 3.3.1 2 2.1 3.7 4.1 3.3 2-.3 3.3-2.6 2.7-4.5-.5-1.9-3-3-4.8-2.1"/><path class="st14" d="M310.4 364.5c-.9.4-2 1.8-2 3.3.1 2 2.1 3.7 4.1 3.3 2-.3 3.3-2.6 2.7-4.5-.5-1.9-3-3-4.8-2.1" style="opacity:.8"/></g><g id="Button"><path class="st12" d="M282.6 379.4h-62.2c-10.9 0-19.7-8.8-19.7-19.7v-2.8c0-10.9 8.8-19.7 19.7-19.7h62.2c10.9 0 19.7 8.8 19.7 19.7v2.8c0 10.8-8.8 19.7-19.7 19.7z"/><path class="st14" d="m231.1 361.1.7-1.5c.7.5 1.8.9 2.9.9 1.2 0 1.7-.4 1.7-.9 0-1.6-5.1-.5-5.1-3.8 0-1.5 1.2-2.7 3.7-2.7 1.1 0 2.2.3 3 .8l-.6 1.5c-.8-.5-1.7-.7-2.4-.7-1.2 0-1.7.5-1.7 1 0 1.6 5.1.5 5.1 3.7 0 1.5-1.2 2.7-3.7 2.7-1.5 0-2.9-.4-3.6-1zM241.4 354.8h-2.8v-1.7h7.6v1.7h-2.8v7.1h-2v-7.1zM252.7 360h-4.1l-.8 1.9h-2.1l3.9-8.8h2l3.9 8.8h-2.1l-.7-1.9zm-.6-1.5-1.4-3.4-1.4 3.4h2.8zM262.1 361.9l-1.7-2.4H258.5v2.4h-2v-8.8h3.8c2.3 0 3.8 1.2 3.8 3.2 0 1.3-.7 2.3-1.8 2.8l2 2.8h-2.2zm-1.9-7.1h-1.7v3.1h1.7c1.2 0 1.9-.6 1.9-1.5 0-1-.7-1.6-1.9-1.6zM267.4 354.8h-2.8v-1.7h7.6v1.7h-2.8v7.1h-2v-7.1z"/></g><g id="Character"><path class="st12" d="m405.2 458.8 11.8 4.1-.1 11.4c-5.7 1.6-6.5 4.5-6.5 4.5l11.8-.3 10.3-20.9-8.1-5.3-15.2-6.7"/><g class="st16"><path class="st14" d="m432.5 457.5-10.3 20.9-11.8.3 1.3-1.8 9.6-.7 9.5-19.8z"/></g><path class="st6" d="M416.8 469.1c.1.1.8-.3 1.7-.3.9 0 1.6.4 1.7.3s-.6-.8-1.7-.8-1.8.7-1.7.8zM417 466.2c.1.1.6-.6 1.6-.8.9-.2 1.7.2 1.8.1 0-.1-.1-.2-.4-.4-.3-.2-.9-.3-1.5-.2-.6.1-1 .5-1.2.8-.4.3-.4.5-.3.5zM416.8 462.6c.1.1.5-.6 1.3-.9s1.6-.1 1.6-.2-.1-.2-.5-.3c-.3-.1-.8-.2-1.4 0-.5.2-.9.6-1 .9-.1.3-.1.5 0 .5zM415.9 462.6c.1 0 .1-.8.4-1.6.3-.8.9-1.3.9-1.4s-.9.2-1.3 1.2c-.5 1-.1 1.9 0 1.8zM414.5 461.3c.1 0 .2-.6.3-1.6.1-.6.1-1.1.2-1.7 0-.3.1-.7 0-1.1-.1-.2-.2-.4-.4-.6-.2-.2-.6-.1-.8 0-.4.3-.5.7-.7 1-.1.4-.2.7-.2 1.1 0 .7.1 1.3.3 1.8.4 1 1 1.3 1 1.3.1-.1-.4-.5-.7-1.4-.1-.4-.2-1-.2-1.6 0-.3.1-.6.2-.9s.3-.7.5-.8c.1-.1.2-.1.2 0 .1.1.2.2.2.3.1.3 0 .6 0 .9v1.7c0 1 .1 1.6.1 1.6zM414.3 461.8s-.3-.5-1.2-.8c-.9-.3-2.4-.2-3.4 1.2 0 .1 0 .3.1.5l.3.3c.2.1.4.1.6.1h1c.6-.1 1.1-.2 1.6-.4.8-.5 1.2-.9 1-.9 0-.1-.4.2-1.3.4-.4.1-.9.2-1.5.3h-.9c-.2 0-.3 0-.4-.1s-.1 0-.1-.1.1-.2.2-.3l.3-.3c.2-.2.5-.3.8-.4.5-.2 1-.2 1.4-.1 1.1.3 1.5.7 1.5.6z"/><g class="st16"><path class="st14" d="M423.1 457.4c0 .8.7 1.4 1.4 1.4.8 0 1.4-.7 1.4-1.4 0-.8-.7-1.4-1.4-1.4-.8 0-1.4.6-1.4 1.4z"/></g><path class="st12" d="m344.5 454 .2 15.5s-15.7 5.4-15.9 8.2l30 .8.7-24.1-15-.4z"/><g class="st16"><path class="st14" d="M354 468.4c.6.2 1 .8.8 1.4s-.8 1-1.4.8-1.1-.9-.9-1.5 1-1 1.6-.7"/></g><g class="st16"><path class="st14" d="M358.8 478.5v-2.4l-28.8.2s-1.4.5-1.2 1.5l30 .7z"/></g><path class="st6" d="M344.2 469.3c0 .1.7.2 1.4.7.7.5 1.1 1.1 1.2 1.1s-.1-.9-.9-1.5-1.7-.4-1.7-.3zM341 470.5c0 .1.6.4 1.1 1s.6 1.3.8 1.3c.1 0 .3-.8-.4-1.6-.6-.7-1.5-.8-1.5-.7zM339.1 474.3c.1 0 .4-.7 0-1.5s-1-1.2-1.1-1c-.1.1.3.6.6 1.2.4.6.4 1.2.5 1.3zM344.6 465.8c.1.1.7 0 1.6 0 .8.1 1.5.4 1.5.2.1-.1-.5-.7-1.5-.7-1-.1-1.7.4-1.6.5z"/><path d="M344.6 457.1v2.7l14.8.3v-2.5z" class="st13"/><path class="st6" d="M344.6 462.7c0 .1.6.2 1.5 0 .5-.1 1-.2 1.6-.4.3-.1.6-.3.9-.4.1-.1.3-.2.5-.3.2-.1.3-.5.1-.8-.1-.2-.4-.3-.6-.4-.2 0-.4 0-.6.1-.3.1-.7.2-.9.3-.6.2-1.1.6-1.4.9-.7.6-1 1.2-.9 1.2s.4-.4 1.1-.9c.4-.3.8-.5 1.4-.7.3-.1.6-.2.9-.2.3-.1.6-.1.7.1v.2c-.1.1-.2.2-.3.2-.3.2-.5.3-.8.4-.5.2-1 .4-1.5.5-1.1.1-1.7.1-1.7.2z"/><path class="st6" d="M344.8 462.9c.1 0 .4-.5.4-1.4 0-.5 0-1-.2-1.7-.1-.3-.2-.6-.4-.9-.2-.3-.4-.7-.9-.8-.3 0-.5.2-.6.4-.1.2-.1.4-.2.5-.1.3-.1.7 0 1 .1.6.3 1.2.6 1.6.6.8 1.2 1 1.2.9.1-.1-.5-.4-.9-1.1-.2-.4-.4-.9-.4-1.4v-.9c.1-.3.2-.6.3-.5.1 0 .4.2.5.5s.3.6.4.8c.2.5.2 1.1.3 1.5 0 .9-.2 1.5-.1 1.5zM414.4 446.1l-34.6-12.9 36.3-5.1 1.9-17.7-68 6-9.6 13.8 2.5 17.3 66.2 16.9z"/><path class="st6" d="m341 458.5-3.3-63.3c.2-6.2 3.5-11.8 8.9-14.9 4.4-2.6 9.7-3.1 14.6-1.5l44.1 14.7 24.2 6.2s4.1 10.2 1.7 18.1c-2.4 7.7-10.9 12.9-18.3 10.7-9.3-2.7-51.8-21-51.8-21V459l-20.1-.5z"/><path class="st7" d="M412.2 428.7s-.1 0-.3-.1c-.2-.1-.4-.2-.8-.3-.7-.3-1.7-.7-2.9-1.2-2.5-1-6.1-2.5-10.6-4.3-9-3.7-21.3-8.8-34.9-14.4-.6-.3-1.2-.5-1.8-.7l.3-.2c0 14.3 0 27.2-.1 36.5 0 4.6 0 8.4-.1 11v4.1-4.1c0-2.6 0-6.4-.1-11 0-9.3 0-22.2-.1-36.5v-.3l.3.1c.6.2 1.2.5 1.8.7 13.6 5.7 25.9 10.8 34.9 14.5 4.4 1.9 8 3.4 10.6 4.4 1.2.5 2.2.9 2.9 1.2.3.1.6.2.7.3.1.2.2.3.2.3z"/><path class="st7" d="M371.5 428.8c0-.1 2.2.3 4.5 1.6 2.4 1.3 3.8 2.9 3.8 3-.1.1-1.7-1.4-4-2.6-2.3-1.4-4.4-1.9-4.3-2zM357.2 398.9c.1-.1 1.2 1.8 2.3 4.3 1.1 2.5 1.7 4.6 1.6 4.6s-.9-2-2-4.4c-1-2.5-2-4.4-1.9-4.5z"/><path class="st17" d="m357.3 371-7.8-1.4-8.2 8.3 1.5 5.3 9.6-3.5zM285.2 351.9l8.9-2 14.3 2.2-.6 9.1s-4.4.6-6 .1-2.9-.1-2.9-.1.9 1.8-.6 2.1c-1.5.3-3.9.9-4.4-1.2 0 0-1.1.2-1.7-1.2 0 0-1.2.4-1.7-1.6s-.2-5.1 3.8-6c.2 0 .3-.5-.1-.5l-6.3 1.2c-.1 0-4.3.2-2.7-2.1z"/><path class="st18" d="M292.8 358.3c0-.1.6-.2 1.5-.3.5 0 1-.2 1.7-.1.3 0 .7.1 1 .5.3.3.3.8.1 1.2-.4.8-1.2 1-1.8 1.1-.6.2-1.2.3-1.6.4-.9.1-1.5.1-1.5 0s.6-.1 1.5-.3c.5-.1 1-.2 1.6-.4l.9-.3c.3-.1.5-.4.7-.6.1-.3.1-.6 0-.8-.2-.2-.5-.3-.7-.4-.6 0-1.2.1-1.6.1-1.2-.1-1.8-.1-1.8-.1z"/><path class="st18" d="M294.3 356.3c0 .1-.4.3-.8.9-.4.5-.4 1.1-.5 1.1s-.3-.6.2-1.3c.4-.7 1.1-.8 1.1-.7zM296.7 359.6h.2c.2 0 .3.3.4.5.2.2.3.6.1 1-.1.4-.5.7-.9.8-.7.2-1.4.4-1.9.4-.5.1-.8 0-.8 0 0-.1.3-.1.8-.2s1.1-.3 1.9-.5c.4-.1.6-.3.7-.5.1-.3 0-.5-.1-.7-.1-.3-.2-.4-.3-.5 0-.3-.1-.3-.1-.3z"/><path class="st18" d="M297.3 361.1s.1-.2.4-.2.7.1 1 .3c.4.3.5.7.5.9 0 .3 0 .4-.1.4s-.1-.1-.2-.4c-.1-.2-.2-.5-.4-.7-.3-.2-.6-.3-.8-.3-.2 0-.3.1-.4 0z"/><path class="st17" d="m301.7 354.1-4 1.6-3.8 2.7s0 .9 2.1.6 3.8-1.5 3.8-1.5 2.8 1.8 5.3 1.4"/><path class="st18" d="M305.1 358.8s-.1.1-.4.1-.6.1-1.1 0c-1-.1-2.4-.5-3.8-1.3h.2c-1.2.8-2.9 1.5-4.7 1.6-.3 0-.6 0-.8-.1-.3-.1-.6-.3-.6-.7v-.1l.1-.1c1.4-1 2.7-1.9 3.8-2.6 1.2-.5 2.2-.8 2.9-1.1.7-.3 1.1-.4 1.1-.4s-.4.2-1.1.5-1.7.7-2.9 1.2c-1.1.8-2.4 1.7-3.8 2.7l.1-.2c0 .1.2.3.4.4.2.1.5.1.7.1 1.7-.1 3.3-.7 4.5-1.5l.1-.1.1.1c1.4.8 2.7 1.3 3.7 1.4 1 .1 1.5 0 1.5.1zM295.9 353.9c0 .1-.5.1-.9-.2-.5-.3-.7-.7-.6-.7.1-.1.4.2.8.4s.8.3.7.5z"/><path class="st12" d="m307.6 363.7 33.9 4.9c3.4 1.1 7 .8 10.2-.8l30.2-15.5-9-19.9c-1.3.5-2.8 1-3.4 1.4l-24.8 17.9-36-1.3-1.1 13.3z"/><path class="st17" d="m428.8 399.6-2.2-3.8-23.1-5.7 2.8 4.6z"/><path class="st12" d="M372.7 332.4c0 .8-3.4 25.9-3.4 31s9.8 10.7 9.8 10.7l10.7 22.8H428l-13.1-24.5-5.9-19.7c-2.2-7.4-2-11.3-7.6-16.7l-10.7-7.2-18 3.6z"/><path class="st12" d="m383.9 352.2 6.4 26.9-32.4-9.1-5.5 9.8 42.1 19.2c5.2 2.4 11.3.7 14.6-4 2-2.8 2.6-6.4 1.8-9.7l-9.4-36.9c-1.3-5.1-6.6-8-11.6-6.3-4.3 1.4-6.8 5.7-6 10.1z"/><path class="st6" d="M379.8 375.3s-.7-1.3-1-1.4l-1-.5c-.9-.5-2.1-1.3-3.6-2.4-1.4-1.1-3.1-2.6-4.2-4.7-1-2.2-1-5-.6-7.7s1-5.3 1.3-7.6c.4-2.3.6-4.5.7-6.2.1-1.8.2-3.2.2-4.2V339s0 .1.1.4c0 .3.1.7.1 1.2.1 1 .1 2.5 0 4.3s-.3 3.9-.7 6.3c-.3 2.4-.9 4.9-1.2 7.6-.4 2.7-.4 5.4.5 7.5 1 2.1 2.7 3.5 4 4.7 1.4 1.1 2.6 1.9 3.5 2.4.8.3 1.9 1.9 1.9 1.9zM392.6 330.5s-.2.3-.6.7l-1.7 1.7c-1.5 1.4-3.6 3.2-6 5.1s-4.6 3.6-6.3 4.7c-.8.6-1.5 1-2 1.3s-.7.5-.8.4c0 0 .2-.2.7-.6s1.2-.9 1.9-1.4c1.6-1.2 3.8-2.9 6.2-4.8 2.4-1.9 4.5-3.7 6-5 .7-.6 1.3-1.1 1.8-1.6.6-.3.8-.5.8-.5z"/><path class="st6" d="M383.9 352.2s.1.2.2.5c.1.4.2.9.4 1.5.3 1.3.8 3.3 1.4 5.6 1.2 4.8 2.8 11.5 4.7 19.3l.1.3-.3-.1c-2.6-.7-5.4-1.5-8.3-2.3-9.4-2.7-17.9-5.1-24.1-6.9l.2-.1c-1.7 3-3.1 5.4-4.1 7.1-.5.8-.9 1.5-1.1 1.9-.1.2-.2.4-.3.5-.1.1-.1.2-.1.2s0-.1.1-.2.2-.3.3-.5c.3-.5.6-1.1 1.1-2 1-1.7 2.3-4.2 4-7.2l.1-.1h.1c6.3 1.7 14.8 4.1 24.1 6.7 2.9.8 5.6 1.6 8.3 2.3l-.2.2c-1.8-7.7-3.4-14.5-4.5-19.3-.5-2.4-1-4.3-1.3-5.6-.1-.6-.2-1.1-.3-1.5-.5-.2-.6-.3-.5-.3zM401.6 350.5s.1.2.2.5.2.8.4 1.3c.3 1.2.8 2.9 1.3 5 1.1 4.2 2.5 10 4.2 16.4.8 3.2 1.6 6.3 2.2 9.1.6 2.8.9 5.4.6 7.6s-1.1 3.8-1.8 4.8-1.3 1.4-1.3 1.4.5-.5 1.2-1.5 1.4-2.6 1.7-4.8c.3-2.1 0-4.7-.7-7.5s-1.5-5.8-2.3-9c-1.6-6.4-3-12.2-4-16.4-.5-2.1-.9-3.8-1.2-5-.1-.6-.2-1-.3-1.4-.2-.3-.2-.5-.2-.5z"/><path d="M407.5 396.8c4.7.4 7.5-2.3 8-6 .3-2-.4-4.1-1.1-6-2.9-8.5-5.8-17.1-10.5-24.8 1.7 7.7 4 15.2 5.7 22.9.6 2.5.8 4 .7 6.6.1 2.6-1.1 5.4-2.8 7.3" class="st13"/><path class="st1" d="M368.6 358s-.8-.7-1.9-2.1-2.4-3.4-3.6-5.9c-1.1-2.4-1.8-4.8-2.2-6.5-.4-1.7-.4-2.8-.4-2.8.1 0 .3 1.1.7 2.7.4 1.7 1.2 4 2.3 6.4 1.1 2.4 2.4 4.5 3.4 5.9 1.1 1.4 1.8 2.3 1.7 2.3zM359.3 363.5c-.1 0-.6-.8-1.5-2.2-.9-1.4-2-3.3-3.2-5.5s-2.2-4.2-2.9-5.7c-.7-1.5-1.1-2.4-1-2.5.1 0 .6.9 1.3 2.3.9 1.6 1.9 3.5 3 5.6 1.2 2.1 2.2 4 3.1 5.6.8 1.5 1.3 2.4 1.2 2.4zM346.6 368.5c-.1 0-.8-3.6-1.6-8-.7-4.4-1.2-8.1-1.1-8.1s.8 3.6 1.6 8c.7 4.5 1.2 8.1 1.1 8.1zM335.2 367.7c-.1 0-.2-.9-.3-2.3-.1-1.4-.1-3.4-.1-5.5.1-2.2.2-4.1.3-5.5.2-1.4.3-2.3.4-2.3s.1.9 0 2.3-.1 3.4-.2 5.5c-.1 2.2-.1 4.1-.1 5.5.1 1.5.1 2.3 0 2.3zM323.8 351.2c.1 0 .2.8.3 2.1.1 1.3.2 3.1.1 5.2 0 2-.2 3.8-.3 5.2-.1 1.3-.3 2.1-.4 2.1-.2 0 .1-3.3.2-7.3s0-7.3.1-7.3zM314.5 352.4c.1 0 0 2.7-.3 6.1s-.7 6.1-.8 6.1c-.1 0 0-2.7.3-6.1s.6-6.1.8-6.1zM370.8 343.1c-.1 0-.8-1.6-1.8-3.5s-2-3.3-1.9-3.4 1.3 1.2 2.4 3.2c1 1.9 1.4 3.7 1.3 3.7zM388.4 370.4s-.3.1-.8.1h-2.1c-1.8-.1-4.3-.6-6.9-1.5-2.6-1-4.8-2.3-6.2-3.4-.7-.5-1.3-1-1.7-1.4-.4-.4-.6-.6-.5-.6.1-.1.9.7 2.4 1.7s3.6 2.2 6.2 3.2 5 1.4 6.8 1.7c1.7.1 2.8.1 2.8.2zM384.7 357.6c0 .1-.8 0-2.1-.2s-3-.7-4.9-1.3c-1.9-.6-3.5-1.4-4.7-2-1.1-.6-1.8-1-1.8-1.1.1-.1 2.9 1.3 6.6 2.6 3.8 1.3 7 1.8 6.9 2zM382.6 348.4c0 .1-2.5.3-5.3-.8s-4.5-3-4.4-3c.1-.1 1.9 1.5 4.6 2.6 2.7 1 5.1 1 5.1 1.2zM397.6 341.9c0 .1-.8-.5-2.3-.8-1.4-.4-3.5-.6-5.6.2-2.1.8-3.6 2.3-4.4 3.5s-1.1 2.1-1.1 2.1.1-1 .8-2.3c.7-1.3 2.3-3 4.5-3.8s4.5-.6 5.9-.1c1.5.5 2.2 1.1 2.2 1.2zM399.3 354.1c0 .1-.6.5-1.7.9-1.1.5-2.7 1-4.5 1.4s-3.5.5-4.7.4c-1.2 0-1.9-.2-1.9-.2 0-.2 3 0 6.5-.7 3.6-.6 6.3-1.9 6.3-1.8zM404.5 369.6c0 .1-3.1.6-7 .9-3.9.4-7.1.6-7.1.4 0-.1 3.1-.6 7-.9 3.9-.4 7-.6 7.1-.4zM409 390.9s-.3 0-.8-.2c-.5-.1-1.2-.4-2.1-.7-1.7-.7-4.1-1.8-6.4-3.4-2.4-1.6-4.4-3.2-5.8-4.4-1.4-1.2-2.3-2-2.2-2 0-.1 1 .6 2.5 1.7s3.5 2.7 5.9 4.2c2.4 1.6 4.6 2.8 6.3 3.5 1.5.9 2.6 1.2 2.6 1.3zM384.7 394.2c-.1 0-.2-.9-.2-2.3s.2-3.4.7-5.4c.5-2.1 1.2-3.9 1.9-5.2.6-1.3 1.1-2 1.2-1.9s-1.6 3.1-2.5 7.2c-1 4.1-.9 7.6-1.1 7.6zM372.5 387.6c-.1 0-.4-2.8.6-6.2 1-3.3 2.9-5.6 2.9-5.5.1.1-1.5 2.4-2.4 5.6-.9 3.3-.9 6.1-1.1 6.1zM365.7 371.7c.1.1-2.1 2.1-3.7 5.4-1.7 3.2-2 6.2-2.1 6.2s-.1-.8.2-1.9c.2-1.2.7-2.8 1.5-4.5s1.9-3 2.7-3.9c.8-.9 1.4-1.4 1.4-1.3zM410.7 357.7c.1.1-1 1.4-2.8 2.1-1.9.7-3.5.6-3.5.4s1.6-.2 3.3-.9c1.7-.7 2.9-1.7 3-1.6zM406.1 343.7c.1.1-.5 1.4-1.9 2.5s-2.8 1.5-2.8 1.3c-.1-.1 1.2-.7 2.5-1.7 1.3-1.1 2-2.2 2.2-2.1zM389.8 334.3c.1-.1 1.2.8 2 2.3s1 2.9.8 2.9c-.1 0-.5-1.3-1.3-2.7-.8-1.4-1.7-2.4-1.5-2.5zM414 370.9c.1.1-1.2 1-3.1 1.5s-3.4.3-3.4.2c0-.2 1.5-.2 3.3-.7 1.8-.4 3.1-1.1 3.2-1zM421 383.2c0 .1-2.4.5-5.4.7-3 .3-5.5.3-5.5.2 0-.1 2.4-.5 5.4-.7s5.5-.3 5.5-.2zM425.9 393.1c0 .1-3.6.2-8.1.1-4.4-.1-8-.3-8-.5 0-.1 3.6-.2 8.1-.1 4.4.2 8 .4 8 .5z"/><path class="st6" d="M390.5 293.9c.7 3.4 5.5 4.7 6 8.2.2 1.5-.5 2.9-.4 4.4.1 2 1.5 3.7 2.2 5.5 1.5 3.8-.2 8.4-3.3 11.1-3.1 2.7-7.3 3.8-11.4 3.9M362.9 297.4c.4 1.8-.5 3.6-1.5 5.2s-2.1 3.2-2.1 5.1c0 3.3 3.7 5.8 3.5 9.1-.1 1.8-1.3 3.4-1.2 5.1 0 1.7 1.2 3.2 2.5 4.3 1.3 1.1 2.6.7 3.8 1.9 1.3 1.3 3.2 2.5 4.9 3.1 3.8 1.4 7.6-2.1 9.3-2.9"/><path class="st6" d="M391.5 295.7c-.2-1.7-2-2.7-3.6-3.1s-3.4-.3-4.9-1c-1.3-.6-2.4-1.8-3.6-2.7-2.9-2.2-7.1-2.6-10.4-1.1s-5.7 4.9-6.1 8.5c-.2 2.5.6 5.2 2.7 6.5 2.5 1.5 5.6.6 8.3-.4 2.7-1 5.7-2.1 8.3-.8 1.6.8 2.6 2.2 3.7 3.6 1.1 1.3 2.4 2.7 4.1 3s3.7-1 3.5-2.7"/><path class="st17" d="m392.1 331.1-4-32.4c-.2-1.4-1.5-2.5-2.9-2.4l-15.3-1.4c-4.8.2-7 6.5-6.6 11.3.5 5.3 1.3 11.8 2.5 15.6 2.5 7.7 8.7 7.8 8.7 7.8s1.2 11.4 1.6 14.2"/><path class="st6" d="M365.3 312.1c.1.5.6.9 1.1.9.6-.1 1-.5.9-1.1-.1-.5-.6-.9-1.1-.9-.6.1-1 .6-.9 1.1zM365 310.1c.1.1.8-.6 1.9-.7 1.1-.2 2 .3 2.1.1 0-.1-.1-.3-.5-.5s-1-.4-1.7-.2c-.7.1-1.2.4-1.5.8-.3.2-.4.5-.3.5zM376.2 310.5c.1.5.6.9 1.1.9.6-.1 1-.5.9-1.1-.1-.5-.6-.9-1.1-.9-.5.1-.9.6-.9 1.1zM375.7 308.7c.1.1.8-.6 1.9-.7 1.1-.2 2 .3 2.1.1 0-.1-.1-.3-.5-.5s-1-.4-1.7-.2c-.7.1-1.2.4-1.5.8-.3.2-.4.4-.3.5zM373 317.4c0-.1-.7-.1-1.8 0-.3 0-.6 0-.6-.2-.1-.2 0-.5.1-.9.2-.7.3-1.5.5-2.2.7-3.2 1.1-5.8 1-5.8s-.8 2.5-1.5 5.7c-.2.8-.3 1.5-.5 2.3-.1.3-.2.7 0 1.1.1.2.3.3.5.3h.5c1.1-.2 1.8-.3 1.8-.3z"/><path class="st18" d="M374.4 329.6s5.3-.4 10.1-4.3c-.1 0-2.1 6.1-9.8 6.5l-.3-2.2zM373.9 319.9c.3-.6 1-1 1.6-1 .5 0 1 .1 1.3.5.3.3.5.9.3 1.3-.2.5-.8.7-1.4.6-.5-.1-1-.3-1.5-.6-.1-.1-.3-.2-.4-.3 0-.1 0-.3.1-.5"/><path class="st6" d="M376.3 317.6c-.2 0 0 1.2-.9 2.2s-2.2 1.1-2.1 1.2c0 .1.3.2.9.1.5-.1 1.3-.3 1.8-1 .5-.6.7-1.3.7-1.8-.1-.4-.3-.7-.4-.7zM374.7 305.7c.2.3 1.2 0 2.5-.1s2.4.1 2.5-.1c.1-.1-.2-.4-.6-.6-.5-.2-1.2-.4-1.9-.4-.8 0-1.5.3-1.9.5-.4.3-.6.6-.6.7zM364.9 306.9c.2.2.9-.2 1.8-.3.9-.2 1.7-.1 1.8-.4.1-.1-.1-.4-.5-.5-.4-.2-.9-.3-1.6-.2-.6.1-1.1.4-1.4.7-.2.3-.2.6-.1.7z"/><path class="st6" d="M392.5 323c-2.1.8-2.5-.3-4.3-1.5-1.9-1.3-3.1-3.4-3.1-5.7-.1-2 .7-4.1-.3-5.8-1.3-2.3-4.8-2.5-6.1-4.8-.7-1.3-.5-3-1.3-4.3-.8-1.2-2.2-1.7-3.7-2-1.4-.3-2.9-.4-4.1-1.1-1.3-.7-2.2-2.2-1.7-3.5 6-.2 12 .3 17.9 1.5 1.4.3 2.8.6 3.8 1.7s1.2 2.7 1.4 4.1c.8 7.1 1.6 14.3 2.4 21.4M394.9 306.1c-.2-2.6 1.6-5.3 4.1-6.2 2.5-.9 5.5.1 7 2.3 1.5 2.1 1.5 4.8.8 7.3-.8 2.9-2.9 5.7-5.9 6.1-2.8.3-5.4-1.8-6.6-4.3s-1.3-5.4-1.5-8.3"/><path class="st7" d="M398.2 316.7s.2-.2.3-.5c.2-.4.3-.9.3-1.7 0-.7-.2-1.6-.5-2.5s-.8-1.8-1.2-2.8c-.4-1-.7-2-.6-2.9 0-.9.3-1.7.4-2.4.1-.7 0-1.3-.2-1.7-.2-.4-.4-.5-.4-.5s.1.2.3.5c.1.4.2.9.1 1.6s-.4 1.5-.5 2.5c0 1 .2 2 .6 3s.9 1.9 1.2 2.8c.3.9.5 1.7.5 2.4.2 1.4-.4 2.2-.3 2.2z"/><path class="st7" d="M396.8 307.2s.4.5 1.4 1c.9.5 2.4.9 4.1.7 1.6-.2 3-1 3.7-1.8.8-.7 1.1-1.3 1.1-1.3s-.4.5-1.2 1.2c-.8.6-2.1 1.4-3.6 1.6-1.6.2-3-.1-3.9-.5-1.1-.6-1.6-1-1.6-.9zM397.4 308.3s.2.5.9 1.1c.6.6 1.6 1.4 2.9 1.9s2.5.7 3.4.6c.9 0 1.4-.2 1.4-.2 0-.1-.5 0-1.4 0s-2-.2-3.3-.7c-1.2-.5-2.2-1.2-2.8-1.8-.7-.5-1.1-.9-1.1-.9zM397.1 319.6l.1-.1c0-.1.1-.2.2-.4.1-.3.3-.8.3-1.5s-.1-1.5-.5-2.3-1.2-1.7-2.2-2.2-2.3-.8-3.3-1.7c-.5-.5-.7-1.1-.7-1.8s.2-1.4.4-2.2c.4-1.5.1-3.3-.8-4.7-.5-.7-1.1-1.3-1.9-1.7-.8-.4-1.7-.6-2.6-.6-.9-.1-1.8 0-2.6-.2-.8-.1-1.6-.3-2.3-.8-.6-.5-1-1.2-1.2-1.9-.2-.7-.4-1.5-.7-2.2-.6-1.4-1.6-2.6-2.7-3.4s-2.4-1.1-3.6-1.1-2.2.4-3 .9c-.8.6-1.2 1.2-1.5 1.8-.3.6-.4 1.1-.4 1.4v.5c.1 0-.1-.8.5-1.9.3-.6.8-1.2 1.5-1.7s1.7-.9 2.9-.9c1.1 0 2.4.4 3.5 1.1 1.1.8 2 1.9 2.6 3.3.3.7.5 1.4.7 2.2.2.8.6 1.6 1.4 2.1.7.5 1.6.8 2.4.9.9.1 1.7.1 2.6.2s1.7.2 2.4.6c.7.4 1.3 1 1.8 1.6.9 1.3 1.2 3 .8 4.4-.2.7-.4 1.5-.4 2.2 0 .8.3 1.5.8 2 1 1 2.4 1.2 3.4 1.7s1.8 1.2 2.2 2c.4.8.5 1.6.5 2.2-.2 1.5-.7 2.1-.6 2.2z"/><path class="st7" d="M393.1 297.6s.1-.1 0-.4c0-.2-.1-.6-.4-1s-.8-.7-1.5-.9c-.7-.1-1.5 0-2.3.3s-1.6.8-2.5 1.1c-.9.3-2 .5-2.9 0s-1.5-1.5-2.1-2.6-1.4-2.1-2.3-3c-1.9-1.8-4.3-2.8-6.6-2.9-1.1-.1-2.2.1-3.1.6-.9.4-1.6 1.1-2.1 1.9-.5.7-.6 1.6-.5 2.2.1.7.3 1.2.5 1.7.3.4.5.7.7.8.2.1.3.2.3.2s-.5-.3-.9-1.1c-.2-.4-.4-.9-.4-1.6 0-.6.1-1.4.6-2.1.4-.7 1.1-1.3 2-1.7.9-.4 1.9-.6 3-.5 2.2.2 4.5 1.2 6.4 2.9.9.9 1.7 1.8 2.3 2.9.6 1 1.2 2.1 2.3 2.7.5.3 1.1.4 1.7.3.5 0 1.1-.2 1.5-.4.9-.4 1.7-.8 2.5-1.1.8-.3 1.5-.4 2.2-.3.6.1 1.1.4 1.4.8.3.3.4.7.5.9-.3.2-.3.3-.3.3z"/></g></svg>