<svg xmlns="http://www.w3.org/2000/svg" viewBox="0 0 750 500" style="enable-background:new 0 0 750 500" xml:space="preserve"><style>.st0{fill:#fafafa}.st1{fill:#e0e0e0}.st2{fill:#e8505b}.st3{opacity:.3}.st4{fill:#f5f5f5}.st5{fill:#ebebeb}.st8{fill:#fff}.st9{fill:#263238}.st10{fill:#492bb7}.st11{fill:#455a64}.st12{fill:#ffbe9d}.st13{fill:#eb996e}.st14{fill:#b78876}.st15{fill:#aa6550}</style><g id="Background_Complete"><path class="st0" d="M441.4 419.3v25.4h4v2.8h-4v17h-74.3V449h5.5v-3.4h-5.5v-5h-2.4v-2.3h2.9v-18.9h73.8z"/><path class="st1" d="M386.9 419.4v44.7h-19.8v-15.4h5.5v-3.1l-5.5.1v-5h-2.5l.1-2.6 2.9-.1v-18.7z"/><path class="st1" d="M385.4 447.1c0 .2 13.4.3 30 .3s30-.1 30-.3c0-.2-13.4-.3-30-.3-16.5 0-30 .1-30 .3zM385.4 444.5c0 .2 13.4.3 30 .3s30-.1 30-.3c0-.2-13.4-.3-30-.3-16.5 0-30 .1-30 .3zM381.6 437.6c0 .2 13.4.3 30 .3s30-.1 30-.3c0-.2-13.4-.3-30-.3s-30 .1-30 .3zM381.2 456.5c0 .2 13.4.3 30 .3s30-.1 30-.3c0-.2-13.4-.3-30-.3-16.5 0-30 .1-30 .3z"/><path class="st2" d="m346.5 402.8-1.6 30.1c-.1 1.1-.9 1.9-2 1.9l-54.1.4c-1.1 0-2-.9-2-2l-.2-23.4c0-1.1.9-2 2-2h33.3c.5 0 1.1-.2 1.4-.6l5.7-5.7c.4-.4.9-.6 1.4-.6l14-.1c1.2-.1 2.1.9 2.1 2z"/><path d="m346.5 402.8-1.6 30.1c-.1 1.1-.9 1.9-2 1.9l-54.1.4c-1.1 0-2-.9-2-2l-.2-23.4c0-1.1.9-2 2-2h33.3c.5 0 1.1-.2 1.4-.6l5.7-5.7c.4-.4.9-.6 1.4-.6l14-.1c1.2-.1 2.1.9 2.1 2z" class="st3"/><path transform="matrix(-1 .00732 -.00732 -1 635.44 841.003)" class="st4" d="M286.6 404h59.1v35.3h-59.1z"/><path class="st5" d="m350.3 406.9-4.2 36.9c-.1.7-.6 1.2-1.3 1.2l-57.6.4c-.7 0-1.3-.5-1.3-1.2l-3.2-36.8c-.1-.8.5-1.4 1.3-1.4l65-.5c.8 0 1.4.7 1.3 1.4z"/><path class="st1" d="m362.4 397.2-1.6 30.1c-.1 1.1-.9 1.9-2 1.9l-54.1.4c-1.1 0-2-.9-2-2l-.2-23.4c0-1.1.9-2 2-2h33.3c.5 0 1.1-.2 1.4-.6l5.7-5.7c.4-.4.9-.6 1.4-.6l14-.1c1.2-.2 2.2.8 2.1 2z"/><path transform="matrix(-1 .00733 -.00733 -1 667.217 829.547)" class="st4" d="M302.5 398.3h59.1v35.3h-59.1z"/><path class="st1" d="m366.2 401.3-4.2 36.9c-.1.7-.6 1.2-1.3 1.2l-57.6.4c-.7 0-1.3-.5-1.3-1.2l-3.2-36.8c-.1-.8.5-1.4 1.3-1.4l65-.5c.8-.1 1.4.6 1.3 1.4z"/><path class="st5" d="m380.3 404.2-1.6 30.1c-.1 1.1-.9 1.9-2 1.9l-54.1.4c-1.1 0-2-.9-2-2l-.2-23.4c0-1.1.9-2 2-2h33.3c.5 0 1.1-.2 1.4-.6l5.7-5.7c.4-.4.9-.6 1.4-.6l14-.1c1.3-.1 2.2.8 2.1 2z"/><path transform="matrix(-1 .00732 -.00732 -1 703.126 843.49)" class="st0" d="M320.5 405.4h59.1v35.3h-59.1z"/><path class="st5" d="m384.2 408.3-4.2 36.9c-.1.7-.6 1.2-1.3 1.2l-57.6.4c-.7 0-1.3-.5-1.3-1.2l-3.2-36.8c-.1-.8.5-1.4 1.3-1.4l65-.5c.7-.1 1.3.6 1.3 1.4z"/><path class="st4" d="M316.6 413.3v51.1h73.7v-51.1h-73.7zm24 9.2c0-2.1 1.7-3.8 3.8-3.8h18.1c2.1 0 3.8 1.7 3.8 3.8 0 2.1-1.7 3.8-3.8 3.8h-18.1c-2.1 0-3.8-1.7-3.8-3.8z"/><path class="st1" d="M276.8 413.3v51.1h39.8v-51.1h-39.8zM59.4 109.8h101.4v105.8H59.4z"/><path class="st0" d="M52.5 109.8h101.4v105.8H52.5z"/><path class="st1" d="M154 215.6H52.5V109.8H154v105.8zm-101.5-.1h101.4V109.9H52.5v105.6z"/><path class="st0" d="M66.1 124h74.2v77.3H66.1z"/><path class="st1" d="M66.1 201.9c.1.1-.6.9-1.8 2.1-1.2 1.3-2.8 2.9-4.7 4.8-1.9 1.8-3.6 3.5-4.8 4.6-1.3 1.2-2.1 1.8-2.1 1.8-.1-.1.6-.9 1.8-2.1 1.2-1.3 2.9-2.9 4.7-4.8 1.9-1.8 3.6-3.5 4.9-4.6 1.2-1.2 2-1.9 2-1.8zM140.3 201.7c.1-.1.9.6 2.1 1.8 1.3 1.2 2.9 2.8 4.8 4.7 1.8 1.9 3.5 3.6 4.6 4.8 1.2 1.3 1.8 2.1 1.8 2.1-.1.1-.9-.6-2.1-1.8-1.3-1.2-2.9-2.9-4.8-4.7-1.8-1.9-3.5-3.6-4.6-4.9-1.2-1.2-1.8-2-1.8-2zM140.1 124.2c-.1-.1.6-.9 1.8-2.1 1.2-1.3 2.8-2.9 4.7-4.8 1.9-1.8 3.6-3.5 4.8-4.6 1.3-1.2 2.1-1.8 2.1-1.8.1.1-.6.9-1.8 2.1-1.2 1.3-2.9 2.9-4.7 4.8-1.9 1.8-3.6 3.5-4.9 4.6-1.1 1.2-1.9 1.9-2 1.8zM65.9 124.4c-.1.1-.9-.6-2.1-1.8-1.3-1.2-2.9-2.8-4.8-4.7-1.8-1.9-3.5-3.6-4.6-4.8-1.2-1.3-1.8-2.1-1.8-2.1.1-.1.9.6 2.1 1.8 1.3 1.2 2.9 2.9 4.8 4.7 1.8 1.9 3.5 3.6 4.6 4.9 1.2 1.2 1.9 2 1.8 2z"/><path class="st1" d="M140.1 201.4v-5.7c0-3.7 0-9-.1-15.8 0-13.5-.1-32.8-.1-55.9l.3.3h-74l.3-.3v77.3l-.3-.3c22.2.1 40.6.1 53.6.1 6.5 0 11.5.1 15 .1h5c.2.1.3.2.3.2h-5.2c-3.5 0-8.5 0-15 .1-13 0-31.5.1-53.7.1h-.3V123.7h74.6v.3c-.1 23.2-.1 42.5-.1 56.1 0 6.7-.1 12-.1 15.7v5.1c-.2.3-.2.5-.2.5z"/><path class="st5" d="M90.9 150.3h24.8v24.8H90.9z"/><path transform="matrix(1 -.00535 .00535 1 -.726 3.589)" class="st1" d="M665.6 116.1h8.6v42.7h-8.6z"/><path transform="matrix(1 -.00535 .00535 1 -.676 3.226)" class="st5" d="M591.3 116.2h22.2v23.5h-22.2z"/><path transform="matrix(1 -.00536 .00536 1 -.676 3.347)" class="st4" d="M613.4 116.1h22.2v23.5h-22.2z"/><path class="st1" d="M591.3 122.8c14.8.1 29.5 0 44.3-.2.3 0 .3-.5 0-.5-14.8-.1-29.5 0-44.3.3-.3 0-.3.4 0 .4z"/><path transform="matrix(1 -.00536 .00536 1 -.79 3.204)" class="st5" d="M577.5 139.4h40.3v19.2h-40.3z"/><path transform="matrix(1 -.00536 .00536 1 -.788 3.418)" class="st4" d="M617.6 139.2h40.3v19.2h-40.3z"/><path class="st1" d="M577.4 144.9c26.8.3 53.7 0 80.5-.4.3 0 .3-.5 0-.5-26.8-.1-53.7-.1-80.5.5-.2 0-.2.4 0 .4zM562.4 158.7h156.3v6.9H562.4z"/><path class="st1" d="M587.9 162h6.3v23.5h-6.3zM682.6 162h6.3v23.5h-6.3z"/><path transform="matrix(1 -.00535 .00535 1 -.684 3.634)" class="st5" d="M674 100.2h8.6v58.7H674z"/><path transform="matrix(1 -.00537 .00537 1 -.714 3.702)" class="st4" d="M682.7 111.1H696v47.5h-13.3z"/><path class="st1" d="M695.8 120.2c0 .1-3 .2-6.7.2s-6.7-.1-6.7-.2 3-.2 6.7-.2 6.7.1 6.7.2zM695.8 118.2c0 .1-3 .2-6.7.2s-6.7-.1-6.7-.2 3-.2 6.7-.2 6.7.1 6.7.2zM695.8 151.5c0 .1-3 .2-6.7.2s-6.7-.1-6.7-.2 3-.2 6.7-.2c3.7-.1 6.7 0 6.7.2zM695.8 149.5c0 .1-3 .2-6.7.2s-6.7-.1-6.7-.2 3-.2 6.7-.2c3.7-.1 6.7 0 6.7.2zM689.3 145.1c-.1 0-.2-4.8-.2-10.7 0-5.9.1-10.7.2-10.7s.2 4.8.2 10.7c0 5.9-.1 10.7-.2 10.7z"/><path class="st5" d="M695.9 122.7h14.5v35.9h-14.5z"/><path class="st0" d="M703.6 149.3c-1.9 0-3.2-1.4-3.2-3.2 0-1 .4-1.9 1.2-2.4l.3.5c-.6.5-1 1.2-1 2 0 1.5 1.1 2.6 2.7 2.6s2.7-1.1 2.7-2.6c0-.8-.3-1.5-1-2l.3-.5c.8.5 1.2 1.4 1.2 2.4 0 1.9-1.3 3.2-3.2 3.2zM706 142.8l-.5-.3c.4-.5.8-1.4.8-2.3 0-1.3-.5-1.9-1.2-1.9-1.9 0-.5 4.2-3 4.2-1 0-1.7-.8-1.7-2.4 0-.8.2-1.7.6-2.2l.5.3c-.4.5-.6 1.2-.6 1.9 0 1.2.5 1.8 1.2 1.8 1.9 0 .6-4.2 3-4.2 1 0 1.7.9 1.7 2.5 0 1.1-.4 2.1-.8 2.6zM706 136.9l-.5-.3c.4-.5.8-1.4.8-2.3 0-1.3-.5-1.9-1.2-1.9-1.9 0-.5 4.2-3 4.2-1 0-1.7-.8-1.7-2.4 0-.8.2-1.7.6-2.2l.5.3c-.4.5-.6 1.2-.6 1.9 0 1.2.5 1.8 1.2 1.8 1.9 0 .6-4.2 3-4.2 1 0 1.7.9 1.7 2.5 0 1.1-.4 2.1-.8 2.6z"/><path class="st1" d="M680.5 110.2c0 1.4-1.1 2.5-2.5 2.5s-2.5-1.1-2.5-2.5 1.1-2.5 2.5-2.5 2.5 1.1 2.5 2.5zM677.3 116.9h1.5v34.9h-1.5z"/><path class="st5" d="M595.1 363.6h72.6v5.6h-72.6z"/><path class="st1" d="M647.8 363.6h19.9v5.6h-19.9z"/><path class="st4" d="M585.9 369.3v25.4h-4v2.8h4v17h74.3v-15.4h-5.5v-3.4h5.5v-5h2.4v-2.3h-2.9v-18.9h-73.8z"/><path class="st1" d="M640.5 369.3v44.8h19.7v-15.5h-5.5v-3.1h5.5v-5h2.5v-2.6h-2.9v-18.6z"/><path class="st1" d="M641.9 397c0 .2-13.4.3-30 .3s-30-.1-30-.3c0-.2 13.4-.3 30-.3 16.5 0 30 .2 30 .3zM641.9 394.4c0 .2-13.4.3-30 .3s-30-.1-30-.3c0-.2 13.4-.3 30-.3 16.5.1 30 .2 30 .3zM645.8 387.5c0 .2-13.4.3-30 .3s-30-.1-30-.3c0-.2 13.4-.3 30-.3 16.5 0 30 .2 30 .3zM646.1 406.4c0 .2-13.4.3-30 .3s-30-.1-30-.3c0-.2 13.4-.3 30-.3s30 .1 30 .3z"/><path class="st4" d="M594.3 419.7v25.4h-4v2.8h4v17h74.3v-15.4h-5.5V446h5.5v-5h2.4v-2.3h-2.9v-18.9h-73.8z"/><path class="st1" d="M648.9 419.8v44.7h19.7v-15.4h-5.5V446l5.5.1v-5h2.5v-2.6l-2.9-.1v-18.7z"/><path class="st1" d="M650.3 447.5c0 .2-13.4.3-30 .3s-30-.1-30-.3c0-.2 13.4-.3 30-.3s30 .1 30 .3zM650.3 444.9c0 .2-13.4.3-30 .3s-30-.1-30-.3c0-.2 13.4-.3 30-.3s30 .1 30 .3zM654.2 438c0 .2-13.4.3-30 .3s-30-.1-30-.3c0-.2 13.4-.3 30-.3 16.5 0 30 .1 30 .3zM654.6 456.9c0 .2-13.4.3-30 .3s-30-.1-30-.3c0-.2 13.4-.3 30-.3 16.5 0 30 .1 30 .3z"/><path class="st4" d="M593.3 318.6V344h-4v2.8h4v17h74.3v-15.4h-5.5V345h5.5v-5h2.4v-2.3h-2.9v-18.9h-73.8z"/><path class="st1" d="M647.8 318.6v44.8h19.8v-15.5h-5.5v-3.1l5.5.1v-5h2.5l-.1-2.6-2.9-.1v-18.6z"/><path class="st1" d="M649.2 346.3c0 .2-13.4.3-30 .3s-30-.1-30-.3c0-.2 13.4-.3 30-.3s30 .2 30 .3zM649.2 343.7c0 .2-13.4.3-30 .3s-30-.1-30-.3c0-.2 13.4-.3 30-.3 16.6.1 30 .2 30 .3zM653.1 336.8c0 .2-13.4.3-30 .3s-30-.1-30-.3c0-.2 13.4-.3 30-.3s30 .1 30 .3zM653.5 355.7c0 .2-13.4.3-30 .3s-30-.1-30-.3c0-.2 13.4-.3 30-.3 16.5 0 30 .1 30 .3z"/><path class="st5" d="M590.3 414.1h72.6v5.6h-72.6z"/><path class="st1" d="M642.9 414.1h19.9v5.6h-19.9z"/></g><g id="Board"><path class="st8" d="M140.5 53.7h488.2v294.5H140.5z"/><path class="st9" d="M628.7 348.2c0-1.6-.1-114.1-.2-294.5l.2.2c-131.9 0-302.5 0-488.2.1l.3-.3v294.5l-.2-.2c286.4.1 485.9.2 488.1.2-2.2 0-201.7.1-488.2.2h-.2v-295h.3c185.7 0 356.3 0 488.2.1h.2v.2c-.2 180.5-.3 292.9-.3 294.5z"/><path class="st1" d="M204.4 103.7s-2.6 24 .8 37.2l32.1-1.4s-6.9-23.7-2.7-34.2l-30.2-1.6z"/><path class="st10" d="M204.1 103.7s.2 25.9 1.5 33.8l32.5-1.5s-2.9-25.5-1.8-32.3h-32.2z"/><path class="st8" d="M231.5 114.6c0 .1-4.9.6-10.9.9-6 .4-10.9.5-10.9.4 0-.1 4.9-.6 10.9-.9 6-.4 10.9-.5 10.9-.4zM231.5 120.1c0 .1-4.9.6-10.9.9-6 .4-10.9.5-10.9.4 0-.1 4.9-.6 10.9-.9 6-.4 10.9-.6 10.9-.4zM226 125.5c0 .1-2.8.4-6.2.6-3.4.2-6.2.3-6.2.1 0-.1 2.8-.4 6.2-.6 3.4-.2 6.2-.3 6.2-.1z"/><path class="st10" d="M203.6 142.5s.2 25.9 1.5 33.8l32.5-1.5s-2.9-25.5-1.8-32.3h-32.2z"/><path class="st8" d="M231 153.4c0 .1-4.9.6-10.9.9-6 .4-10.9.5-10.9.4 0-.1 4.9-.6 10.9-.9 6-.4 10.9-.6 10.9-.4zM231 158.9c0 .1-4.9.6-10.9.9-6 .4-10.9.5-10.9.4 0-.1 4.9-.6 10.9-.9 6-.4 10.9-.6 10.9-.4zM225.4 164.3c0 .1-2.8.4-6.2.6-3.4.2-6.2.3-6.2.1 0-.1 2.8-.4 6.2-.6 3.4-.2 6.2-.3 6.2-.1z"/><path class="st9" d="M203.6 186.4s.2 25.9 1.5 33.8l32.5-1.5s-2.9-25.5-1.8-32.3h-32.2z"/><path class="st8" d="M231 197.3c0 .1-4.9.6-10.9.9-6 .4-10.9.5-10.9.4 0-.1 4.9-.6 10.9-.9 6-.4 10.9-.6 10.9-.4zM231 202.8c0 .1-4.9.6-10.9.9-6 .4-10.9.5-10.9.4 0-.1 4.9-.6 10.9-.9 6-.4 10.9-.6 10.9-.4zM225.4 208.2c0 .1-2.8.4-6.2.6-3.4.2-6.2.3-6.2.1 0-.1 2.8-.4 6.2-.6 3.4-.2 6.2-.3 6.2-.1z"/><path class="st11" d="M199.8 237.8s.2 25.9 1.5 33.8l32.5-1.5s-2.9-25.5-1.8-32.3h-32.2z"/><path class="st8" d="M227.2 248.7c0 .1-4.9.6-10.9.9-6 .4-10.9.5-10.9.4 0-.1 4.9-.6 10.9-.9 6-.4 10.9-.6 10.9-.4zM227.2 254.1c0 .1-4.9.6-10.9.9-6 .4-10.9.5-10.9.4 0-.1 4.9-.6 10.9-.9 6-.3 10.9-.5 10.9-.4zM221.6 259.5c0 .1-2.8.4-6.2.6-3.4.2-6.2.3-6.2.1 0-.1 2.8-.4 6.2-.6 3.4-.2 6.2-.2 6.2-.1z"/><path class="st9" d="M242.9 238s.2 25.9 1.5 33.8l32.5-1.5s-2.9-25.5-1.8-32.3h-32.2z"/><path class="st8" d="M270.3 248.9c0 .1-4.9.6-10.9.9-6 .4-10.9.5-10.9.4 0-.1 4.9-.6 10.9-.9 6-.4 10.9-.6 10.9-.4zM270.3 254.4c0 .1-4.9.6-10.9.9-6 .4-10.9.5-10.9.4 0-.1 4.9-.6 10.9-.9 6-.4 10.9-.6 10.9-.4zM264.8 259.8c0 .1-2.8.4-6.2.6-3.4.2-6.2.3-6.2.1 0-.1 2.8-.4 6.2-.6 3.4-.2 6.1-.3 6.2-.1z"/><path class="st10" d="M278.9 239.8s.2 25.9 1.5 33.8l32.5-1.5s-2.9-25.5-1.8-32.3h-32.2z"/><path class="st8" d="M306.3 250.7c0 .1-4.9.6-10.9.9-6 .4-10.9.5-10.9.4 0-.1 4.9-.6 10.9-.9 6-.3 10.9-.5 10.9-.4zM306.3 256.2c0 .1-4.9.6-10.9.9-6 .4-10.9.5-10.9.4 0-.1 4.9-.6 10.9-.9 6-.3 10.9-.5 10.9-.4zM300.8 261.6c0 .1-2.8.4-6.2.6-3.4.2-6.2.3-6.2.1 0-.1 2.8-.4 6.2-.6 3.4-.2 6.2-.2 6.2-.1z"/><path class="st11" d="M236.8 284.2s.2 25.9 1.5 33.8l32.5-1.5s-2.9-25.5-1.8-32.3h-32.2z"/><path class="st8" d="M264.2 295.1c0 .1-4.9.6-10.9.9-6 .4-10.9.5-10.9.4 0-.1 4.9-.6 10.9-.9 6-.4 10.9-.6 10.9-.4zM264.2 300.6c0 .1-4.9.6-10.9.9-6 .4-10.9.5-10.9.4 0-.1 4.9-.6 10.9-.9 6-.4 10.9-.6 10.9-.4zM258.7 306c0 .1-2.8.4-6.2.6-3.4.2-6.2.3-6.2.1 0-.1 2.8-.4 6.2-.6 3.4-.2 6.2-.3 6.2-.1z"/><path class="st9" d="M341.2 224.6s.2 25.9 1.5 33.8l32.5-1.5s-2.9-25.5-1.8-32.3h-32.2z"/><path class="st8" d="M368.6 235.5c0 .1-4.9.6-10.9.9-6 .4-10.9.5-10.9.4 0-.1 4.9-.6 10.9-.9 6-.3 10.9-.5 10.9-.4zM368.6 241c0 .1-4.9.6-10.9.9-6 .4-10.9.5-10.9.4 0-.1 4.9-.6 10.9-.9 6-.4 10.9-.5 10.9-.4zM363.1 246.4c0 .1-2.8.4-6.2.6-3.4.2-6.2.3-6.2.1 0-.1 2.8-.4 6.2-.6 3.4-.2 6.2-.2 6.2-.1z"/><path class="st11" d="M411.8 285.5s.2 25.9 1.5 33.8l32.5-1.5s-2.9-25.5-1.8-32.3h-32.2z"/><path class="st8" d="M439.2 296.4c0 .1-4.9.6-10.9.9-6 .4-10.9.5-10.9.4 0-.1 4.9-.6 10.9-.9 6-.4 10.9-.6 10.9-.4zM439.2 301.9c0 .1-4.9.6-10.9.9-6 .4-10.9.5-10.9.4 0-.1 4.9-.6 10.9-.9 6-.4 10.9-.6 10.9-.4zM433.7 307.3c0 .1-2.8.4-6.2.6-3.4.2-6.2.3-6.2.1 0-.1 2.8-.4 6.2-.6 3.4-.2 6.2-.3 6.2-.1z"/><path class="st11" d="M451.9 286s.2 25.9 1.5 33.8l32.5-1.5s-2.9-25.5-1.8-32.3h-32.2z"/><path class="st8" d="M479.3 296.9c0 .1-4.9.6-10.9.9-6 .4-10.9.5-10.9.4 0-.1 4.9-.6 10.9-.9 6-.3 10.9-.5 10.9-.4zM479.3 302.4c0 .1-4.9.6-10.9.9-6 .4-10.9.5-10.9.4 0-.1 4.9-.6 10.9-.9 6-.3 10.9-.5 10.9-.4zM473.8 307.8c0 .1-2.8.4-6.2.6-3.4.2-6.2.3-6.2.1 0-.1 2.8-.4 6.2-.6 3.4-.2 6.2-.2 6.2-.1z"/><path class="st9" d="M492.1 286.6s.2 25.9 1.5 33.8l32.5-1.5s-2.9-25.5-1.8-32.3h-32.2z"/><path class="st8" d="M519.5 297.5c0 .1-4.9.6-10.9.9-6 .4-10.9.5-10.9.4 0-.1 4.9-.6 10.9-.9 6-.4 10.8-.6 10.9-.4zM519.5 303c0 .1-4.9.6-10.9.9-6 .4-10.9.5-10.9.4 0-.1 4.9-.6 10.9-.9 6-.4 10.9-.6 10.9-.4zM513.9 308.4c0 .1-2.8.4-6.2.6-3.4.2-6.2.3-6.2.1 0-.1 2.8-.4 6.2-.6 3.4-.2 6.2-.3 6.2-.1z"/><path class="st11" d="M540.3 285.1s.2 25.9 1.5 33.8l32.5-1.5s-2.9-25.5-1.8-32.3h-32.2z"/><path class="st8" d="M567.7 296c0 .1-4.9.6-10.9.9-6 .4-10.9.5-10.9.4 0-.1 4.9-.6 10.9-.9 6-.4 10.9-.6 10.9-.4zM567.7 301.5c0 .1-4.9.6-10.9.9-6 .4-10.9.5-10.9.4 0-.1 4.9-.6 10.9-.9 6-.4 10.9-.6 10.9-.4zM562.2 306.9c0 .1-2.8.4-6.2.6-3.4.2-6.2.3-6.2.1 0-.1 2.8-.4 6.2-.6 3.4-.2 6.2-.3 6.2-.1z"/><path class="st11" d="M575.3 288.8s.2 25.9 1.5 33.8l32.5-1.5s-2.9-25.5-1.8-32.3h-32.2z"/><path class="st8" d="M602.7 299.7c0 .1-4.9.6-10.9.9-6 .4-10.9.5-10.9.4 0-.1 4.9-.6 10.9-.9 6-.3 10.9-.5 10.9-.4zM602.7 305.2c0 .1-4.9.6-10.9.9-6 .4-10.9.5-10.9.4 0-.1 4.9-.6 10.9-.9 6-.4 10.9-.5 10.9-.4zM597.2 310.6c0 .1-2.8.4-6.2.6-3.4.2-6.2.3-6.2.1 0-.1 2.8-.4 6.2-.6 3.4-.2 6.2-.2 6.2-.1z"/><path class="st11" d="M411.6 238.4s.2 25.9 1.5 33.8l32.5-1.5s-2.9-25.5-1.8-32.3h-32.2z"/><path class="st8" d="M439 249.3c0 .1-4.9.6-10.9.9-6 .4-10.9.5-10.9.4 0-.1 4.9-.6 10.9-.9 6-.4 10.9-.6 10.9-.4zM439 254.8c0 .1-4.9.6-10.9.9-6 .4-10.9.5-10.9.4 0-.1 4.9-.6 10.9-.9 6-.4 10.9-.6 10.9-.4zM433.5 260.1c0 .1-2.8.4-6.2.6-3.4.2-6.2.3-6.2.1 0-.1 2.8-.4 6.2-.6 3.4-.1 6.2-.2 6.2-.1z"/><path class="st10" d="M454.1 238.5s.2 25.9 1.5 33.8l32.5-1.5s-2.9-25.5-1.8-32.3h-32.2z"/><path class="st8" d="M481.5 249.4c0 .1-4.9.6-10.9.9-6 .4-10.9.5-10.9.4 0-.1 4.9-.6 10.9-.9 6-.4 10.9-.6 10.9-.4zM481.5 254.9c0 .1-4.9.6-10.9.9-6 .4-10.9.5-10.9.4 0-.1 4.9-.6 10.9-.9 6-.4 10.9-.6 10.9-.4zM476 260.3c0 .1-2.8.4-6.2.6-3.4.2-6.2.3-6.2.1 0-.1 2.8-.4 6.2-.6 3.4-.2 6.2-.3 6.2-.1z"/><path class="st11" d="M537.8 238.5s.2 25.9 1.5 33.8l32.5-1.5s-2.9-25.5-1.8-32.3h-32.2z"/><path class="st8" d="M565.2 249.4c0 .1-4.9.6-10.9.9-6 .4-10.9.5-10.9.4 0-.1 4.9-.6 10.9-.9 6-.4 10.9-.5 10.9-.4zM565.2 254.9c0 .1-4.9.6-10.9.9-6 .4-10.9.5-10.9.4 0-.1 4.9-.6 10.9-.9 6-.4 10.9-.5 10.9-.4zM559.7 260.3c0 .1-2.8.4-6.2.6-3.4.2-6.2.3-6.2.1 0-.1 2.8-.4 6.2-.6 3.4-.2 6.1-.3 6.2-.1z"/><path class="st9" d="M254 186.4s.2 25.9 1.5 33.8l32.5-1.5s-2.9-25.5-1.8-32.3H254z"/><path class="st8" d="M281.4 197.3c0 .1-4.9.6-10.9.9-6 .4-10.9.5-10.9.4 0-.1 4.9-.6 10.9-.9 6-.4 10.9-.6 10.9-.4zM281.5 202.8c0 .1-4.9.6-10.9.9-6 .4-10.9.5-10.9.4 0-.1 4.9-.6 10.9-.9 6-.4 10.8-.6 10.9-.4zM275.9 208.2c0 .1-2.8.4-6.2.6-3.4.2-6.2.3-6.2.1 0-.1 2.8-.4 6.2-.6 3.4-.2 6.2-.3 6.2-.1z"/><path class="st10" d="M241.1 103.7s.2 25.9 1.5 33.8l32.5-1.5s-2.9-25.5-1.8-32.3h-32.2z"/><path class="st8" d="M268.5 114.6c0 .1-4.9.6-10.9.9-6 .4-10.9.5-10.9.4 0-.1 4.9-.6 10.9-.9 6-.4 10.9-.5 10.9-.4zM268.5 120.1c0 .1-4.9.6-10.9.9-6 .4-10.9.5-10.9.4 0-.1 4.9-.6 10.9-.9 6-.4 10.9-.6 10.9-.4zM263 125.5c0 .1-2.8.4-6.2.6-3.4.2-6.2.3-6.2.1 0-.1 2.8-.4 6.2-.6 3.4-.2 6.2-.3 6.2-.1z"/><path class="st10" d="M241.8 142.6s.2 25.9 1.5 33.8l32.5-1.5s-2.9-25.5-1.8-32.3h-32.2z"/><path class="st8" d="M269.2 153.5c0 .1-4.9.6-10.9.9-6 .4-10.9.5-10.9.4 0-.1 4.9-.6 10.9-.9 6-.4 10.9-.5 10.9-.4zM269.2 159c0 .1-4.9.6-10.9.9-6 .4-10.9.5-10.9.4 0-.1 4.9-.6 10.9-.9 6-.4 10.9-.5 10.9-.4zM263.7 164.4c0 .1-2.8.4-6.2.6-3.4.2-6.2.3-6.2.1 0-.1 2.8-.4 6.2-.6 3.4-.2 6.2-.2 6.2-.1z"/><path class="st10" d="M281.7 103.7s.2 25.9 1.5 33.8l32.5-1.5s-2.9-25.5-1.8-32.3h-32.2z"/><path class="st8" d="M309.1 114.6c0 .1-4.9.6-10.9.9-6 .4-10.9.5-10.9.4 0-.1 4.9-.6 10.9-.9 6-.4 10.8-.5 10.9-.4zM309.1 120.1c0 .1-4.9.6-10.9.9-6 .4-10.9.5-10.9.4 0-.1 4.9-.6 10.9-.9 6-.4 10.9-.6 10.9-.4zM303.5 125.5c0 .1-2.8.4-6.2.6-3.4.2-6.2.3-6.2.1 0-.1 2.8-.4 6.2-.6 3.4-.2 6.2-.3 6.2-.1z"/><path class="st10" d="M322.2 103.7s.2 25.9 1.5 33.8l32.5-1.5s-2.9-25.5-1.8-32.3h-32.2z"/><path class="st8" d="M349.6 114.6c0 .1-4.9.6-10.9.9-6 .4-10.9.5-10.9.4 0-.1 4.9-.6 10.9-.9 6-.4 10.9-.5 10.9-.4zM349.6 120.1c0 .1-4.9.6-10.9.9-6 .4-10.9.5-10.9.4 0-.1 4.9-.6 10.9-.9 6-.4 10.9-.6 10.9-.4zM344.1 125.5c0 .1-2.8.4-6.2.6-3.4.2-6.2.3-6.2.1 0-.1 2.8-.4 6.2-.6 3.4-.2 6.2-.3 6.2-.1z"/><path class="st10" d="M362.7 103.7s.2 25.9 1.5 33.8l32.5-1.5s-2.9-25.5-1.8-32.3h-32.2z"/><path class="st8" d="M390.1 114.6c0 .1-4.9.6-10.9.9-6 .4-10.9.5-10.9.4 0-.1 4.9-.6 10.9-.9 6-.4 10.9-.5 10.9-.4zM390.1 120.1c0 .1-4.9.6-10.9.9-6 .4-10.9.5-10.9.4 0-.1 4.9-.6 10.9-.9 6-.4 10.9-.6 10.9-.4zM384.6 125.5c0 .1-2.8.4-6.2.6-3.4.2-6.2.3-6.2.1 0-.1 2.8-.4 6.2-.6 3.4-.2 6.2-.3 6.2-.1z"/><path class="st10" d="M416.9 109.4s.2 25.9 1.5 33.8l32.5-1.5s-2.9-25.5-1.8-32.3h-32.2z"/><path class="st8" d="M444.3 120.3c0 .1-4.9.6-10.9.9-6 .4-10.9.5-10.9.4 0-.1 4.9-.6 10.9-.9 6-.3 10.9-.5 10.9-.4zM444.3 125.8c0 .1-4.9.6-10.9.9-6 .4-10.9.5-10.9.4 0-.1 4.9-.6 10.9-.9 6-.3 10.9-.5 10.9-.4zM438.8 131.2c0 .1-2.8.4-6.2.6-3.4.2-6.2.3-6.2.1 0-.1 2.8-.4 6.2-.6 3.4-.2 6.2-.2 6.2-.1z"/><path class="st10" d="M453.2 110s.2 25.9 1.5 33.8l32.5-1.5s-2.9-25.5-1.8-32.3h-32.2z"/><path class="st8" d="M480.6 120.9c0 .1-4.9.6-10.9.9-6 .4-10.9.5-10.9.4 0-.1 4.9-.6 10.9-.9 6-.4 10.9-.5 10.9-.4zM480.6 126.4c0 .1-4.9.6-10.9.9-6 .4-10.9.5-10.9.4 0-.1 4.9-.6 10.9-.9 6-.4 10.9-.6 10.9-.4zM475.1 131.8c0 .1-2.8.4-6.2.6-3.4.2-6.2.3-6.2.1 0-.1 2.8-.4 6.2-.6 3.4-.2 6.1-.3 6.2-.1z"/><path class="st10" d="M493.3 111.2s.2 25.9 1.5 33.8l32.5-1.5s-2.9-25.5-1.8-32.3h-32.2z"/><path class="st8" d="M520.7 122.1c0 .1-4.9.6-10.9.9-6 .4-10.9.5-10.9.4 0-.1 4.9-.6 10.9-.9 6-.4 10.8-.6 10.9-.4zM520.7 127.5c0 .1-4.9.6-10.9.9-6 .4-10.9.5-10.9.4 0-.1 4.9-.6 10.9-.9 6-.3 10.9-.5 10.9-.4zM515.1 132.9c0 .1-2.8.4-6.2.6-3.4.2-6.2.3-6.2.1 0-.1 2.8-.4 6.2-.6 3.4-.2 6.2-.2 6.2-.1z"/><path class="st10" d="M540.9 109.8s.2 25.9 1.5 33.8l32.5-1.5s-2.9-25.5-1.8-32.3h-32.2z"/><path class="st8" d="M568.3 120.7c0 .1-4.9.6-10.9.9-6 .4-10.9.5-10.9.4 0-.1 4.9-.6 10.9-.9 6-.4 10.9-.5 10.9-.4zM568.3 126.2c0 .1-4.9.6-10.9.9-6 .4-10.9.5-10.9.4 0-.1 4.9-.6 10.9-.9 6-.4 10.9-.5 10.9-.4zM562.8 131.6c0 .1-2.8.4-6.2.6-3.4.2-6.2.3-6.2.1 0-.1 2.8-.4 6.2-.6 3.4-.2 6.2-.2 6.2-.1z"/><path class="st10" d="M544.9 152.1s.2 25.9 1.5 33.8l32.5-1.5s-2.9-25.5-1.8-32.3h-32.2z"/><path class="st8" d="M572.3 163c0 .1-4.9.6-10.9.9-6 .4-10.9.5-10.9.4 0-.1 4.9-.6 10.9-.9 6-.4 10.8-.6 10.9-.4zM572.3 168.5c0 .1-4.9.6-10.9.9-6 .4-10.9.5-10.9.4 0-.1 4.9-.6 10.9-.9 6-.4 10.9-.6 10.9-.4zM566.7 173.9c0 .1-2.8.4-6.2.6-3.4.2-6.2.3-6.2.1 0-.1 2.8-.4 6.2-.6 3.4-.2 6.2-.3 6.2-.1z"/><path class="st11" d="M569.5 113.4s.2 25.9 1.5 33.8l32.5-1.5s-2.9-25.5-1.8-32.3h-32.2z"/><path class="st8" d="M596.9 124.3c0 .1-4.9.6-10.9.9-6 .4-10.9.5-10.9.4 0-.1 4.9-.6 10.9-.9 6-.3 10.9-.5 10.9-.4zM596.9 129.8c0 .1-4.9.6-10.9.9-6 .4-10.9.5-10.9.4 0-.1 4.9-.6 10.9-.9 6-.3 10.9-.5 10.9-.4zM591.3 135.2c0 .1-2.8.4-6.2.6-3.4.2-6.2.3-6.2.1 0-.1 2.8-.4 6.2-.6 3.4-.2 6.2-.2 6.2-.1z"/><path class="st11" d="M425.7 130.6s.2 25.9 1.5 33.8l32.5-1.5s-2.9-25.5-1.8-32.3h-32.2z"/><path class="st8" d="M453.1 141.5c0 .1-4.9.6-10.9.9-6 .4-10.9.5-10.9.4 0-.1 4.9-.6 10.9-.9 6-.4 10.9-.5 10.9-.4zM453.1 147c0 .1-4.9.6-10.9.9-6 .4-10.9.5-10.9.4 0-.1 4.9-.6 10.9-.9 6-.4 10.9-.5 10.9-.4zM447.6 152.4c0 .1-2.8.4-6.2.6-3.4.2-6.2.3-6.2.1 0-.1 2.8-.4 6.2-.6 3.4-.2 6.1-.2 6.2-.1z"/><path class="st10" d="M421.6 188.2s.2 25.9 1.5 33.8l32.5-1.5s-2.9-25.5-1.8-32.3h-32.2z"/><path class="st8" d="M449 199.1c0 .1-4.9.6-10.9.9-6 .4-10.9.5-10.9.4 0-.1 4.9-.6 10.9-.9 6-.4 10.9-.6 10.9-.4zM449 204.6c0 .1-4.9.6-10.9.9-6 .4-10.9.5-10.9.4 0-.1 4.9-.6 10.9-.9 6-.4 10.9-.6 10.9-.4zM443.5 209.9c0 .1-2.8.4-6.2.6-3.4.2-6.2.3-6.2.1 0-.1 2.8-.4 6.2-.6 3.4-.1 6.2-.2 6.2-.1z"/><path class="st5" d="M319.7 131.8s2.6 24-.8 37.2l-32.1-1.4s6.9-23.7 2.7-34.2l30.2-1.6z"/><path class="st11" d="M286.6 127.8s-2 27.2-3.8 32.7l29.2 3.1 4.4-4.2s3.1-24 2.7-30.8l-32.5-.8z"/><path class="st9" d="m312.8 159.2-.7 4.4 4.4-4.2z"/><path class="st8" d="M313.1 141.5c0 .1-1.3-.1-3.3-.4-2.2-.3-4.9-.7-7.9-1.1-3-.4-5.7-.7-7.9-1-2-.2-3.3-.4-3.3-.5 0-.1 1.3 0 3.3.1 2 .1 4.8.4 7.9.8 3.1.4 5.9.9 7.9 1.3 2.1.5 3.3.8 3.3.8zM311.8 147.5c0 .1-1.2 0-3.2-.1-1.9-.1-4.6-.4-7.6-.8s-5.6-.8-7.5-1.1c-1.9-.3-3.1-.6-3.1-.7 0-.1 1.2.1 3.1.3 2.1.3 4.7.6 7.6 1 2.9.4 5.5.7 7.6.9 1.9.3 3.1.5 3.1.5zM310 153.1c0 .1-4.4-.3-9.8-1.1-5.4-.7-9.8-1.4-9.8-1.6 0-.1 4.4.3 9.8 1.1 5.4.7 9.8 1.4 9.8 1.6z"/><path class="st11" d="M217.1 160.6s-2 27.2-3.8 32.7l29.2 3.1 4.4-4.2s3.1-24 2.7-30.8l-32.5-.8z"/><path class="st9" d="m243.2 192-.6 4.4 4.4-4.2z"/><path class="st8" d="M243.6 174.4c0 .1-1.3-.1-3.3-.4-2.2-.3-4.9-.7-7.9-1.1-3-.4-5.7-.7-7.9-1-2-.2-3.3-.4-3.3-.5 0-.1 1.3 0 3.3.1 2 .1 4.8.4 7.9.8 3.1.4 5.9.9 7.9 1.3 2.1.4 3.3.7 3.3.8zM242.3 180.4c0 .1-1.2 0-3.2-.1-1.9-.1-4.6-.4-7.6-.8s-5.6-.8-7.5-1.1c-1.9-.3-3.1-.6-3.1-.7 0-.1 1.2.1 3.1.3 2.1.3 4.7.6 7.6 1 2.9.4 5.5.7 7.6.9 1.9.2 3.1.4 3.1.5zM240.5 185.9c0 .1-4.4-.3-9.8-1.1-5.4-.7-9.8-1.4-9.8-1.6 0-.1 4.4.3 9.8 1.1 5.4.7 9.8 1.4 9.8 1.6z"/><path class="st10" d="M162 109h24.4v5.6H162z"/><path class="st9" d="M162 242.3h24.4v5.6H162zM162 287.4h24.4v5.6H162z"/><path class="st1" d="M255.2 76.1h84.3v5.6h-84.3zM423.1 76.1h84.3v5.6h-84.3zM548.3 76.1h40.3v5.6h-40.3z"/><path class="st9" d="M599.3 100c0 .1-98.8.3-220.7.3-121.9 0-220.8-.1-220.8-.3 0-.1 98.8-.3 220.8-.3 121.8 0 220.7.1 220.7.3zM599.3 232.7c0 .1-98.8.3-220.7.3-121.9 0-220.8-.1-220.8-.3s98.8-.3 220.8-.3c121.8 0 220.7.1 220.7.3zM599.3 323.8c0 .1-98.8.3-220.7.3-121.9 0-220.8-.1-220.8-.3s98.8-.3 220.8-.3c121.8 0 220.7.1 220.7.3zM599.3 279.4c0 .1-98.8.3-220.7.3-121.9 0-220.8-.1-220.8-.3 0-.1 98.8-.3 220.8-.3 121.8 0 220.7.1 220.7.3z"/><path class="st9" d="M195.2 325c-.1 0-.3-56.4-.3-126s.1-126 .3-126 .3 56.4.3 126-.1 126-.3 126zM399.2 326.3c-.1 0-.3-56.3-.3-125.7 0-69.5.1-125.8.3-125.8.1 0 .3 56.3.3 125.8-.1 69.4-.2 125.7-.3 125.7zM531.3 327.6c-.1 0-.3-56.3-.3-125.8s.1-125.8.3-125.8.3 56.3.3 125.8c-.1 69.5-.2 125.8-.3 125.8zM450.1 182.6s.1 0 .4.1c.3.1.7.3 1.2.5 1 .5 2.4 1.2 4.1 2.5 1.6 1.3 3.5 3.1 5.2 5.5.8 1.2 1.6 2.6 2.3 4.2.6 1.6 1.2 3.3 1.5 5.1.7 3.7.4 7.9-1.1 12.1-1.5 4.1-4.1 8.2-7.9 11.4-3.8 3.2-8.8 5.3-14.2 5.7-5.4.5-11.1-.6-16.1-3.4-5-2.8-8.9-7.2-11.1-12.1-2.3-4.9-2.9-10.3-1.8-15.2 1.1-4.8 3.5-9.1 6.7-12.1 1.6-1.5 3.3-2.8 5.2-3.7 1.8-.9 3.7-1.6 5.5-2 3.6-.8 7.1-.8 10-.6 2.9.2 5.5.6 7.5 1s3.6.7 4.7 1c.5.1.9.2 1.2.3.3.1.4.1.4.1s-.1 0-.4-.1c-.3-.1-.7-.1-1.2-.2-1.1-.2-2.6-.5-4.7-.9-2-.4-4.5-.7-7.5-.9-2.9-.1-6.3-.2-9.9.7-1.8.4-3.6 1-5.4 2-1.8.9-3.5 2.1-5.1 3.6-3.1 3-5.5 7.2-6.5 11.9s-.5 10.1 1.8 14.9c2.2 4.8 6 9.1 10.9 11.9 4.9 2.8 10.5 3.9 15.8 3.4 5.3-.4 10.2-2.5 13.9-5.6 3.8-3.1 6.4-7.1 7.8-11.2 1.5-4.1 1.7-8.2 1.1-11.8-.3-1.8-.8-3.5-1.5-5s-1.4-2.9-2.2-4.1c-1.6-2.5-3.4-4.2-5-5.5-1.6-1.3-3-2-4-2.6-.5-.2-.9-.4-1.1-.5-.3-.3-.5-.4-.5-.4zM460.7 185.7c-.1-.1 3.9-3.4 8.9-7.4s9.2-7.1 9.3-7c.1.1-3.9 3.4-8.9 7.4-5.1 4-9.3 7.1-9.3 7z"/><path class="st9" d="M476.5 186.3s-.5.1-1.3.2c-.9.1-2.1.2-3.5.3-3 .2-7.1.5-11.7.8h-.4l.1-.4c0-.1.1-.3.1-.4 1.4-4.5 3.4-8.3 5-10.9.8-1.3 1.6-2.3 2.1-3 .5-.7.9-1 .9-1s-.2.4-.7 1.1c-.5.7-1.2 1.7-1.9 3.1-1.6 2.6-3.5 6.4-4.8 10.9 0 .1-.1.3-.1.4l-.3-.3c4.6-.3 8.7-.5 11.7-.7 1.4-.1 2.6-.1 3.5-.1h1.3zM589 248.8s.3-.8.9-2.1c.6-1.4 1.3-3.4 1.9-5.9 1.2-5.1 1.7-12.6-.8-20.2-2.5-7.7-7.3-13.5-11.3-16.8-2-1.7-3.8-2.9-5-3.7-1.3-.8-2-1.2-1.9-1.2 0 0 .2.1.5.2.3.2.9.4 1.5.8 1.3.7 3.1 1.9 5.1 3.6 2 1.7 4.3 4 6.3 6.8 2.1 2.8 3.9 6.3 5.2 10.1 1.2 3.9 1.8 7.7 1.8 11.2 0 3.5-.5 6.7-1.1 9.2-.7 2.6-1.4 4.6-2 5.9-.3.7-.6 1.2-.8 1.5l-.3.6z"/><path class="st9" d="M598.2 243.1c0 .1-1 .9-2.6 2.3-.9.7-1.9 1.5-3 2.4-.6.4-1.2.9-1.8 1.4-.6.4-1.2 1.1-2.3 1.1-.5 0-1-.4-1.2-.8-.2-.4-.3-.8-.4-1.2-.2-.8-.4-1.5-.6-2.2-.3-1.4-.6-2.6-.9-3.7-.5-2.1-.8-3.4-.7-3.4.1 0 .5 1.3 1.1 3.3.3 1.1.6 2.3 1 3.7.2.7.4 1.4.6 2.2.2.7.4 1.6 1.1 1.6.7 0 1.3-.6 1.9-1 .6-.5 1.2-.9 1.8-1.4 1.1-.8 2.1-1.6 3-2.3 1.9-1.3 3-2.1 3-2zM343.3 182.3c0 .1-9.9 2.8-22.3 5.9-12.3 3.1-22.4 5.6-22.4 5.4 0-.1 9.9-2.8 22.3-5.9 12.4-3.1 22.4-5.5 22.4-5.4zM349.8 187.6c0 .1-10.9 3.3-24.5 7.1s-24.6 6.7-24.6 6.6c0-.1 10.9-3.3 24.5-7.1 13.5-3.8 24.6-6.7 24.6-6.6zM353.7 196.4c0 .1-10.4 2.8-23.4 5.9-13 3.1-23.5 5.5-23.5 5.4 0-.1 10.4-2.8 23.4-5.9 13-3.1 23.5-5.5 23.5-5.4z"/><path class="st5" d="m298.3 288 8 42 79.4-15.1-13.8-40.9z"/><path transform="rotate(-10.72 337.81 299.775)" class="st8" d="M299.5 280.8h76.6v37.9h-76.6z"/><path class="st9" d="M378.9 311.3s-.1-.2-.1-.7c-.1-.5-.2-1.1-.4-1.9-.3-1.7-.8-4.2-1.5-7.4-1.2-6.4-3-15.7-5.2-27.1l.2.2c-19.7 3.7-46.2 8.8-75.2 14.3l.2-.3c2.5 13.1 4.9 25.7 7 37.2l-.3-.2c21.9-4.1 40.7-7.6 54-10.1 6.7-1.2 12-2.2 15.6-2.9 1.8-.3 3.2-.6 4.2-.8.5-.1.8-.1 1.1-.2.3-.1.4-.1.4-.1s-.1 0-.3.1c-.3.1-.6.1-1.1.2-1 .2-2.3.5-4.1.8-3.6.7-8.9 1.7-15.5 3-13.4 2.6-32.2 6.2-54.1 10.4h-.2v-.2c-2.2-11.5-4.6-24.1-7.1-37.2v-.3h.3c29-5.5 55.5-10.5 75.2-14.2h.2v.2c2.1 11.5 3.9 20.8 5.1 27.3.6 3.2 1 5.7 1.4 7.4.1.8.3 1.5.3 1.9-.1.3-.1.6-.1.6z"/><path transform="rotate(-10.72 318.084 303.51)" class="st8" d="M307.5 292.9h21.2v21.2h-21.2z"/><path class="st9" d="M330.4 311.9s0-.1-.1-.4c-.1-.3-.1-.7-.2-1.1-.2-1-.5-2.5-.9-4.2-.7-3.7-1.7-8.8-3-15l.3.2c-6.1 1.2-13.2 2.5-20.8 4 0 .1.4-.6.2-.3V295.4l.1.4.1.7c.1.5.2.9.3 1.4.2.9.4 1.9.5 2.8.3 1.8.7 3.6 1 5.4.7 3.5 1.3 6.8 1.8 9.8l-.3-.2c6.2-1.1 11.4-2.1 15-2.7 1.8-.3 3.2-.6 4.3-.7.5-.1.8-.1 1.1-.2.5-.2.6-.2.6-.2s-.1 0-.4.1c-.3.1-.6.1-1.1.2-1 .2-2.4.5-4.2.9-3.7.7-8.9 1.8-15.1 3h-.2v-.2c-.6-3-1.2-6.3-1.9-9.8-.3-1.7-.7-3.5-1-5.4-.2-.9-.4-1.8-.5-2.8-.1-.5-.2-.9-.3-1.4l-.1-.7-.1-.4V295.1c-.2.3.3-.4.2-.3 7.6-1.4 14.7-2.8 20.8-3.9h.2v.2c1.1 6.2 2.1 11.5 2.8 15.2.3 1.8.6 3.2.7 4.2.1.4.1.8.2 1.1 0 .2.1.3 0 .3z"/><path class="st9" d="M330.4 311.9s-.1-.5-.4-1.5c-.3-.9-.8-2.4-2.2-3.5-.7-.6-1.5-1.2-2.6-1.6-1-.4-2.2-.5-3.5-.4h-.5l.2-.4c.9-1.4 1-3.3.2-5-.4-.8-1-1.6-1.8-2.1s-1.8-.7-2.8-.7c-1.1.1-2.2.5-3.1 1.1-.9.7-1.4 1.6-1.6 2.6-.4 2 .3 4.1 1.7 5.2l.2.2-.3.2c-1.4.9-2.5 2-3.1 3.2-.7 1.2-1 2.3-1.2 3.3-.3 1.9 0 3.1-.1 3.1 0 0-.1-.3-.2-.8s-.1-1.3 0-2.3c.1-1 .4-2.2 1.1-3.4.7-1.2 1.7-2.5 3.2-3.4v.4c-1.5-1.2-2.4-3.4-1.9-5.6.2-1.1.8-2.2 1.8-2.9.9-.8 2.1-1.2 3.3-1.3 1.1-.1 2.2.2 3.1.7.9.5 1.6 1.4 2 2.3.9 1.8.7 4-.3 5.4l-.2-.4c1.3-.1 2.6.1 3.7.5s2 1 2.7 1.7c1.5 1.3 1.9 2.8 2.2 3.7.1.5.2.9.2 1.1.3.5.3.6.2.6z"/><path class="st8" d="M334.4 290.4c6-1.1 12-2.3 18-3.4"/><path class="st9" d="M352.5 287c0 .1-4 1-9 2-5 .9-9 1.6-9.1 1.5 0-.1 4-1 9-2s9.1-1.7 9.1-1.5z"/><path class="st8" d="M335.2 294.6c1.2-.2 2.4-.5 3.6-.7"/><path class="st9" d="M338.9 293.9c0 .1-.8.4-1.8.6-1 .2-1.8.2-1.9.1 0-.1.8-.4 1.8-.6 1-.2 1.9-.2 1.9-.1zM368.9 295.8c0 .1-7.2 1.6-16.1 3.3-8.9 1.7-16.1 2.9-16.2 2.8 0-.1 7.2-1.6 16.1-3.3 8.9-1.7 16.1-3 16.2-2.8zM369.7 299.4c0 .1-7.2 1.6-16.2 3.3-9 1.7-16.2 3-16.3 2.8 0-.1 7.2-1.6 16.2-3.3 9-1.7 16.3-3 16.3-2.8zM370 303.7s-.4.2-1.2.3c-.9.2-2 .4-3.4.7-2.9.6-6.9 1.4-11.3 2.2-4.4.8-8.4 1.6-11.3 2.1-1.4.2-2.5.4-3.4.6-.8.1-1.3.2-1.3.1 0 0 .4-.2 1.2-.3.9-.2 2-.4 3.4-.7 2.9-.6 6.9-1.4 11.3-2.2 4.4-.8 8.4-1.6 11.3-2.1 1.4-.2 2.5-.4 3.4-.6.8-.1 1.3-.2 1.3-.1z"/><path class="st10" d="M337.2 286.3s.1 0 .2-.1l.6-.3c.5-.3 1.4-.6 2.4-1 2.2-.7 5.5-1.4 9.5-.9 2 .3 4.2.8 6.4 1.8 1.1.6 2.1 1.3 3 2.3.8 1 1.3 2.5.9 3.9s-1.4 2.5-2.5 3.4c-1.1.9-2.4 1.6-3.7 2.2-2.6 1.3-5.5 2.4-8.6 2.9-3.1.6-6.2.6-9.1-.1-1.4-.4-2.8-.9-4-1.7-1.2-.8-2.3-1.8-2.7-3.2-.5-1.3-.2-2.8.4-4 .7-1.1 1.6-2 2.6-2.8 1.9-1.4 4-2.4 5.9-3.2 3.8-1.4 7.2-1.7 9.5-1.7 1.1 0 2 .1 2.6.2.3 0 .5.1.7.1.2 0 .2 0 .2.1h-.2c-.2 0-.4 0-.7-.1-.6 0-1.5-.1-2.6-.1-2.2 0-5.6.4-9.3 1.8-1.9.8-3.8 1.8-5.7 3.2-.9.7-1.8 1.6-2.4 2.6-.6 1-.8 2.4-.4 3.6.4 1.2 1.4 2.2 2.6 2.9 1.1.7 2.5 1.2 3.9 1.6 2.8.7 5.8.7 8.8.1 3-.6 5.8-1.6 8.5-2.9 1.3-.6 2.6-1.3 3.6-2.1 1.1-.8 2-1.9 2.3-3.1.3-1.2 0-2.5-.8-3.5-.7-1-1.8-1.7-2.8-2.2-2.1-1-4.3-1.6-6.3-1.9-4-.5-7.3.1-9.4.7-1.1.3-1.9.6-2.4.9-.3.1-.5.2-.6.3-.3.3-.4.3-.4.3zM358.8 285.8c-.1-.1 2.3-2.2 5.3-4.7s5.6-4.4 5.7-4.3c.1.1-2.3 2.2-5.3 4.7-3.1 2.5-5.6 4.4-5.7 4.3z"/><path class="st10" d="M365.5 284.9c0 .1-2.8.8-6.2 1.5-.3.1-.5.1-.8.2l-.4.1.1-.4c.8-3.2 2.2-5.3 2.3-5.2.1.1-1 2.3-1.8 5.3l-.3-.3c.2-.1.5-.1.8-.2 3.4-.7 6.3-1.2 6.3-1zM354.3 289.4c0 .1-4.4.9-9.9 1.8-5.5.8-10 1.4-10 1.3 0-.1 4.4-.9 9.9-1.8s10-1.4 10-1.3zM331.7 281.4c.5 2.5-1.2 4.9-3.7 5.4s-4.9-1.2-5.4-3.7 1.2-4.9 3.7-5.4c2.5-.4 5 1.2 5.4 3.7z"/><path class="st9" d="M327.2 286.9c-.9 0-1.8-.3-2.6-.8-1-.7-1.7-1.8-1.9-3-.2-1.2 0-2.5.7-3.5s1.8-1.7 3-1.9c.3-.1.6-.1.9-.1 2.2 0 4.1 1.6 4.6 3.8.5 2.5-1.2 4.9-3.7 5.4-.4.1-.7.1-1 .1zm0-9.2c-.3 0-.6 0-.9.1-1.2.2-2.3.9-2.9 1.9-.7 1-.9 2.2-.7 3.4.2 1.2.9 2.3 1.9 2.9 1 .7 2.2.9 3.4.7 2.5-.5 4.1-2.9 3.7-5.4-.4-2.1-2.3-3.6-4.5-3.6z"/></g><g id="Plants"><path class="st10" d="M83.5 353.8c-7.7-11.7-7.4-28.9 1.8-39.5 2.8-3.3 6.8-6.2 11.2-5.8 4.4.4 8 4.2 9.4 8.4 1.4 4.2.9 8.8.1 13.2-1.1 6.1-3 12.4-7.2 17-4.4 4.6-9.8 9.7-15.3 6.7M86.9 409.9c-2.9-6.7-.8-15.3 4.9-19.9 1.8-1.4 4.1-2.6 6.3-2 2.3.6 3.8 2.9 4.1 5.2.3 2.3-.3 4.6-1.2 6.8-1.1 3.1-2.7 6.1-5.3 8.1-2.6 2-6.2 3.8-8.8 1.8M68.4 405.9c2.1-10.4-3.4-21.9-12.8-26.8-2.9-1.5-6.5-2.4-9.5-.9s-4.5 5.2-4.2 8.6c.2 3.4 1.9 6.5 3.6 9.3 2.5 4 5.6 7.9 9.8 9.9 4.4 1.9 10.1 3.5 13.1-.1M69.7 377.7c3.7-11.9-2.6-26.2-12.9-33-3.2-2.1-7.3-3.6-10.9-2.2-3.7 1.4-5.8 5.5-5.9 9.5-.1 3.9 1.4 7.7 3.1 11.3 2.4 5 5.6 9.8 10.3 12.7 4.7 2.8 12.4 5.6 16.3 1.7"/><path class="st9" d="M77.1 435.7s-.1-.2-.1-.6c-.1-.4-.1-1-.2-1.7-.1-.4-.1-.8-.2-1.2-.1-.4-.2-.9-.3-1.4-.2-1-.4-2.2-.7-3.4-.2-.6-.3-1.3-.5-2l-.6-2.1c-.4-1.5-1-3-1.5-4.6-1.2-3.2-2.7-6.7-4.6-10.1-1.9-3.5-3.9-6.6-5.9-9.4-1-1.4-2-2.7-3-3.8-.5-.6-1-1.1-1.4-1.7-.5-.5-.9-1-1.4-1.5-.9-1-1.7-1.8-2.5-2.5l-1-1c-.3-.3-.6-.6-.9-.8-.5-.5-.9-.8-1.2-1.1l-.4-.4s.2.1.5.3c.3.3.8.6 1.3 1 .3.2.6.5.9.8.3.3.7.6 1.1 1 .8.7 1.6 1.5 2.5 2.5.5.5.9 1 1.4 1.5.5.5.9 1.1 1.4 1.7 1 1.1 2 2.5 3.1 3.8 2 2.8 4.1 6 6 9.5 1.9 3.5 3.4 7 4.6 10.2.5 1.6 1.1 3.2 1.5 4.7l.6 2.1c.2.7.3 1.4.4 2 .3 1.3.5 2.4.7 3.5.1.5.2 1 .2 1.4 0 .4.1.8.1 1.2.1.7.1 1.2.2 1.7-.1.2-.1.4-.1.4z"/><path class="st9" d="M76.8 437.8v-.2c0-.2 0-.4.1-.7.1-.6.1-1.5.2-2.6.1-.6.1-1.2.2-1.9s.1-1.5.1-2.3c.1-1.6.2-3.5.2-5.5v-3.2c0-1.1-.1-2.3-.2-3.5-.1-2.4-.4-5-.7-7.7-.7-5.4-1.9-11.2-3.6-17.2-1.8-6-4-11.5-6.3-16.4-1.2-2.4-2.3-4.7-3.6-6.8-.6-1-1.2-2.1-1.8-3-.6-.9-1.2-1.8-1.7-2.7-1.1-1.8-2.2-3.2-3.1-4.6-.5-.7-.9-1.3-1.3-1.8l-1.2-1.5c-.7-.9-1.2-1.6-1.6-2.1-.2-.2-.3-.4-.4-.5-.1-.1-.1-.2-.1-.2l.2.2.5.5c.4.5 1 1.2 1.7 2 .4.4.8.9 1.2 1.5.4.5.9 1.2 1.4 1.8 1 1.3 2.1 2.8 3.2 4.5l1.8 2.7c.6.9 1.2 2 1.8 3 1.3 2.1 2.4 4.4 3.6 6.8 2.3 4.9 4.6 10.5 6.4 16.5 1.8 6 2.9 11.9 3.6 17.3.3 2.7.6 5.3.7 7.7 0 1.2.1 2.4.1 3.5v3.2c0 2.1-.1 3.9-.2 5.5-.1.8-.1 1.6-.2 2.3-.1.7-.2 1.3-.2 1.9-.1 1.1-.3 2-.3 2.6 0 .3-.1.5-.1.7-.3.1-.4.2-.4.2z"/><path class="st9" d="M96.8 322.7s0 .1-.1.2l-.3.6c-.3.6-.8 1.4-1.3 2.3-.3.5-.6 1.1-.9 1.7-.3.6-.7 1.3-1 2.1-.4.7-.8 1.5-1.2 2.4-.4.8-.8 1.8-1.2 2.7-.4 1-.9 1.9-1.3 3s-.8 2.2-1.3 3.3c-.2.6-.4 1.2-.7 1.7l-.6 1.8c-.4 1.2-.8 2.5-1.3 3.8-1.6 5.3-3.2 11.1-4.5 17.3-1.3 6.2-2.1 12.2-2.8 17.7-.6 5.5-1 10.4-1.1 14.6-.1 2.1-.1 4-.1 5.6V411.3 410.4c0-.7-.1-1.6-.1-2.7-.1-1.2-.1-2.6-.1-4.3 0-1.7 0-3.5.1-5.6.1-4.2.4-9.1 1-14.6s1.5-11.5 2.8-17.7c1.3-6.2 2.9-12.1 4.5-17.4.4-1.3.9-2.6 1.3-3.8l.6-1.8c.2-.6.5-1.2.7-1.7.5-1.1.9-2.2 1.3-3.3.4-1.1.9-2 1.3-3 .4-.9.8-1.9 1.2-2.7l1.2-2.4c.4-.7.7-1.4 1.1-2.1.3-.6.7-1.2 1-1.7.6-1 1.1-1.7 1.4-2.3.2-.2.3-.4.4-.6zM94.2 394.7s-.3.5-.8 1.4c-.6.9-1.3 2.2-2.2 3.9-.9 1.7-1.9 3.7-2.9 6s-2 4.9-2.8 7.6c-.8 2.8-1.5 5.4-2 7.9s-.8 4.7-1 6.6c-.2 1.9-.3 3.4-.3 4.5-.1 1.1-.1 1.6-.1 1.6s-.1-.6-.1-1.6c0-1.1 0-2.6.2-4.5.1-1.9.4-4.1.9-6.6s1.1-5.2 1.9-7.9c.9-2.8 1.9-5.4 2.9-7.7s2.1-4.3 3-6c.9-1.6 1.8-2.9 2.4-3.8.5-1 .9-1.4.9-1.4z"/><path class="st11" d="M62 430.4h33.7l-4 34.4H66.2z"/><path class="st9" d="m63.3 461.1 2.8 3.7h25.6l2.9-3.6z"/><path class="st0" d="M94.4 440.5c0 .1-7 .3-15.6.3s-15.6-.1-15.6-.3c0-.1 7-.3 15.6-.3 8.6.1 15.6.2 15.6.3zM94.4 442.8c0 .1-7 .3-15.6.3s-15.6-.1-15.6-.3c0-.1 7-.3 15.6-.3s15.6.2 15.6.3zM94 445c0 .1-6.7.3-15.1.3-8.3 0-15.1-.1-15.1-.3 0-.1 6.7-.3 15.1-.3 8.4.1 15.1.2 15.1.3z"/><path class="st9" d="M67.2 356.2v.3c0 .3 0 .6-.1.9-.1.9-.2 2-.3 3.4-.3 2.9-.8 6.9-1.3 11.3 0 .2 0 .3-.1.5v.1h-.1c-4.3.1-8.2.1-11 .1h-4.5H51c.8 0 2-.1 3.3-.1 2.8-.1 6.7-.2 11-.2l-.2.2c0-.2 0-.3.1-.5.5-4.4 1-8.4 1.4-11.3.2-1.4.3-2.6.5-3.4.1-.4.1-.7.1-.9v-.4zM59.5 345.9v4.9c0 3-.1 7.1-.2 11.7v.7h-.2c-4.4-.3-8.4-.3-11.3-.3-1.4 0-2.6.1-3.4.1h-1.2s.1 0 .3-.1c.2 0 .5-.1.9-.1.8-.1 2-.2 3.4-.3 2.9-.2 6.9-.2 11.4.2l-.2.2v-.5c.1-4.6.2-8.7.3-11.7.1-1.5.1-2.7.1-3.5 0-.4 0-.7.1-1v-.3z"/><path class="st9" d="M50.6 342.4s.1.3.2 1 .3 1.6.5 2.7c.4 2.3 1.1 5.4 2.1 8.9l.1.4-.3-.2c-.1-.1-.3-.1-.4-.2-3.3-1.6-6.6-2.3-9-2.6-1.2-.1-2.2-.2-2.8-.2-.7 0-1 0-1-.1h1.1c.7 0 1.7 0 2.9.1 2.4.2 5.8.9 9.1 2.6.1.1.3.1.4.2l-.2.2c-1-3.5-1.6-6.6-2-8.9-.2-1.2-.3-2.1-.4-2.7-.3-.9-.4-1.2-.3-1.2zM98.2 405.1c0 .1-1 0-2.5-.1-1.6-.1-3.7-.1-6.1.2-.5.1-1 .1-1.4.2H88v-.2c-.4-2-.7-3.8-.9-5.1-.2-1.3-.3-2.1-.3-2.1l.5 2c.3 1.3.6 3.1 1 5.1l-.2-.1c.5-.1.9-.1 1.4-.2 2.4-.3 4.6-.2 6.2-.1.8.1 1.4.1 1.9.2.3.2.6.2.6.2zM101.3 398.8c0 .1-.9-.2-2.5-.4-1.5-.2-3.7-.3-6-.1-.4 0-.7.1-1.1.1h-.2v-.2c-.2-2.1-.4-4-.5-5.3-.1-1.3-.2-2.1-.1-2.2 0 0 .2.8.3 2.1.2 1.3.4 3.2.6 5.3l-.2-.1c.3 0 .7-.1 1.1-.1 2.4-.2 4.5-.1 6.1.2.8.1 1.4.3 1.8.4.5.2.7.3.7.3zM103.6 338.9s-.1.1-.3.2c-.3.1-.6.3-1 .4-.9.4-2.1.9-3.6 1.6-3.1 1.3-7.4 3.1-12.1 5-.2.1-.4.2-.7.3l-.2.1-.1-.2c-2-4.5-3.8-8.5-5.1-11.5-.6-1.4-1.1-2.6-1.5-3.5-.2-.4-.3-.7-.4-1-.1-.2-.1-.3-.1-.3s.1.1.2.3c.1.2.3.6.4.9.4.9.9 2 1.6 3.4 1.3 3 3.2 7 5.2 11.5l-.2-.1c.2-.1.4-.2.7-.3 4.7-1.9 9-3.6 12.1-4.9 1.5-.6 2.8-1.1 3.7-1.5.4-.2.7-.3 1-.4h.4zM106.6 324.3s-.1.1-.3.2c-.2.2-.5.3-.9.6-.8.5-1.9 1.2-3.3 2.1-2.8 1.7-6.7 4.1-11 6.7l-.2.1-.1-.2c-.1-.2-.1-.3-.2-.5-1.8-4.8-3.4-9.2-4.6-12.4-.6-1.6-1-2.8-1.4-3.8-.1-.4-.3-.8-.4-1-.1-.2-.1-.4-.1-.4s.1.1.2.3c.1.3.2.6.4 1 .4.9.9 2.2 1.5 3.7 1.2 3.2 2.9 7.6 4.7 12.4.1.2.1.4.2.5l-.2-.1c4.3-2.6 8.2-4.9 11-6.6 1.4-.8 2.5-1.5 3.3-2 .4-.2.7-.4.9-.5.4 0 .5-.1.5-.1z"/><path class="st9" d="M105.6 316.6s-.2.2-.7.4c-.5.3-1.2.6-2 1.2-1.7 1-3.9 2.6-6.1 4.8l-.4.4.1-.6c.1-.6.3-1.2.4-1.9.6-3.5.1-6.7-.5-9-.3-1.1-.6-2-.9-2.6-.2-.6-.4-.9-.4-.9s.2.3.5.9c.3.6.6 1.5 1 2.6.7 2.2 1.2 5.5.6 9.1-.1.7-.2 1.3-.4 1.9l-.3-.2c2.2-2.2 4.5-3.7 6.2-4.7.9-.5 1.6-.9 2-1.1.6-.2.9-.4.9-.3zM67.1 392.1s0 .3-.2.9c-.1.6-.3 1.4-.5 2.4-.4 2-.8 4.8-.9 8v.2h-1c-3.3.2-6.4.4-8.6.5-1 0-1.9.1-2.6.1h-1s.3-.1.9-.1c.7-.1 1.5-.1 2.6-.2 2.2-.2 5.2-.4 8.6-.6h.8l-.2.2c.1-3.2.6-6 1-8 .2-1 .4-1.8.6-2.4.4-.7.5-1 .5-1zM60.5 382.6s0 .3-.1.9c-.1.6-.2 1.4-.3 2.4-.2 2-.6 4.8-1 8v.1H59c-.3 0-.7 0-1.1.1-3.4.2-6.5.6-8.7.9-1.1.1-2 .3-2.6.4-.6.1-1 .1-1 .1s.3-.1 1-.2c.6-.1 1.5-.3 2.6-.5 2.2-.4 5.3-.7 8.8-1 .4 0 .7 0 1.1-.1l-.2.1c.4-3.2.8-6 1.1-8 .2-1 .3-1.8.4-2.4 0-.5.1-.8.1-.8zM52.7 378.6s-.2.9-.4 2.4-.5 3.6-.5 6v.2h-.2c-.2 0-.4 0-.6-.1-2.5-.3-4.7-.4-6.4-.4H42s.2-.1.7-.1c.5 0 1.1-.1 1.9-.1 1.6-.1 3.9 0 6.4.3.2 0 .4.1.6.1l-.2.2c.1-2.4.3-4.5.7-6 .2-.8.3-1.4.4-1.8.1-.5.2-.8.2-.7zM97.1 388c.1 0-.6 1.5-1.5 3.4s-1.5 3.4-1.6 3.4c-.1 0 .4-1.6 1.3-3.5s1.8-3.3 1.8-3.3z"/><path class="st9" d="M101.4 392.5c0 .1-1.8.1-3.8.8-2.1.6-3.5 1.6-3.6 1.5-.1-.1 1.4-1.2 3.5-1.9 2.1-.6 3.9-.4 3.9-.4z"/><path class="st10" d="M684.7 428.3c4.2-2.2 9.1-2.4 13.7-1.7 2.5.4 5.1 1.2 6.8 3 1.7 1.9 2 5.2.1 6.8-1.2 1-2.8 1.1-4.3 1.1-3.6 0-7.6-.7-10.5 1.5-1.7 1.2-2.7 3.3-4.7 3.9-1.9.6-4.1-.5-5.1-2.3-1-1.7-1.1-3.9-.6-5.9-.1.1.4-4.2 4.6-6.4zM675.2 409.9c2.5 3.6 7.5 2.4 9.8.2 2.3-2.2 3.3-5.4 4.2-8.5 2-7 4.1-14.4 2.6-21.5-.4-2.1-1.2-4.3-2.7-5.9-1.5-1.6-3.8-2.5-5.9-2-2.5.7-4 3.1-5.2 5.4-3.3 6.8-5 14.4-5.1 22-.1 3.7.3 7.4 2.3 10.3M668.2 415.1c2.8-3.3 3.3-8.1 2.1-12.2-1.2-4.1-4-7.6-7.2-10.5-3.8-3.3-8.2-6-12.9-7.6-1.9-.7-3.8-1.2-5.8-1-2 .2-4 1.2-4.9 3-1.4 2.6-.1 5.7 1.4 8.3 2.5 4.5 5.3 8.9 8.5 12.9 2.5 3.3 5.5 6.5 9.3 8 3.9 1.5 7.9 1.3 10-1.4"/><path class="st9" d="M675 464.8s.1-.6.2-1.7c.1-1.2.3-2.7.4-4.5.2-1.9.5-4.2 1-6.6.5-2.5 1.3-5.1 2.4-7.8 1.1-2.7 2.4-5.1 4-7.1 1.5-2 3.4-3.4 5-4.2 1.7-.8 3.2-1.2 4.2-1.3 1.1-.1 1.6-.2 1.6-.2s-.6-.1-1.7 0-2.7.3-4.4 1.2c-1.8.8-3.7 2.2-5.3 4.2-1.6 2-3 4.5-4.1 7.2-1.1 2.7-1.9 5.4-2.4 7.9s-.7 4.8-.9 6.7c-.1 1.9-.2 3.5-.2 4.5.1 1.1.2 1.7.2 1.7z"/><path class="st9" d="M675.3 461.3v-3c0-1.9 0-4.7.1-8.1.2-6.8.8-14.1 1.9-24.5 1.1-9.7 2.5-21 4-28.4.3-1.7.7-3.2 1-4.5.3-1.3.5-2.5.8-3.4.2-.9.4-1.6.5-2.1.1-.5.2-.8.1-.8 0 0-.1.2-.3.7-.2.6-.4 1.2-.6 2.1-.3.9-.6 2-.9 3.4-.3 1.3-.7 2.8-1.1 4.5-1.5 6.7-3.1 16-4.2 26.3s-1.6 19.8-1.7 26.6c0 3.4 0 6.2.1 8.1.1.9.1 1.6.1 2.2.2.7.2.9.2.9z"/><path class="st9" d="M675.4 443.2v-2.3c-.1-1.5-.3-3.6-.7-6.2-.4-2.6-1.1-5.7-2-9-.4-1.5-1.4-5.2-3.8-10.7-3.1-7.4-7.4-13.5-11.1-17.3-.9-1-1.8-1.7-2.6-2.4-.4-.3-.8-.7-1.1-.9-.4-.3-.7-.5-1-.7-1.2-.8-1.9-1.3-1.9-1.2-.1.1 2.7 1.8 6.3 5.6 3.6 3.8 7.7 9.9 10.8 17.2 1.7 4 2.9 7.6 3.8 10.6 1 3.3 1.7 6.4 2.1 9 .5 2.6.7 4.7.9 6.1.1 1.3.2 2.2.3 2.2z"/></g><g id="Character_2"><path class="st9" d="M559.6 174.2c0 5.9 7.8 9.8 7.5 15.7-.1 2.5-1.8 4.8-2.2 7.3-.5 3.4 1.3 6.7 1.9 10 1.2 7-3 14.1-9.1 17.7-6.1 3.6-13.6 4.1-20.6 2.9M511.8 171.2c.1 3.2-2.1 6-4.3 8.3-2.2 2.3-4.6 4.7-5.2 7.9-1 5.6 4.3 11 3 16.5-.7 3-3.2 5.3-3.7 8.3-.5 2.9 1 5.8 2.8 8.1 1.9 2.3 4.1 2 5.7 4.5 1.7 2.6 4.5 5.2 7.2 6.8 6 3.6 13.6-1.1 16.6-1.8"/><path class="st9" d="M560.6 177.6c.2-2.9-2.4-5.2-5.1-6.4-2.7-1.1-5.6-1.6-8-3.3-2.1-1.5-3.4-3.8-5.2-5.7-4.3-4.6-11.1-6.7-17.2-5.2s-11.3 6.4-13 12.4c-1.2 4.1-.6 9 2.5 11.8 3.7 3.3 9.3 2.8 14.1 1.9 4.9-.8 10.3-1.6 14.3 1.3 2.4 1.8 3.7 4.6 5.1 7.2 1.4 2.6 3.2 5.3 6 6.4 2.8 1.1 6.6-.5 6.8-3.5"/><path class="st12" d="m549.7 176.6-25.4-7.4c-8.2-1.2-14 8.8-14.8 17-.9 9.1-1.6 20.3-.8 27.2 1.7 13.8 12.2 15.9 12.2 15.9s-.1 4-.3 8.9c-.2 8 6 14.8 14.1 15.2 8.1.4 14.9-5.8 15.4-13.8l3.7-58.1c.2-2.4-1.6-4.6-4.1-4.9z"/><path class="st9" d="M511.2 196.3c-.1.9.7 1.8 1.6 1.8 1 .1 1.8-.6 1.9-1.5.1-.9-.7-1.8-1.6-1.8-1-.2-1.8.5-1.9 1.5zM511.2 193.4c.2.2 1.6-.7 3.5-.6 1.9 0 3.3 1.1 3.5.8.1-.1-.1-.5-.7-1s-1.6-.9-2.8-1c-1.2 0-2.2.4-2.8.8-.6.5-.8.9-.7 1zM529.7 196.7c-.1.9.7 1.8 1.6 1.8 1 .1 1.8-.6 1.9-1.5.1-.9-.7-1.8-1.6-1.8-1-.1-1.8.6-1.9 1.5zM529.9 194.4c.2.2 1.6-.7 3.5-.6 1.9 0 3.3 1.1 3.5.8.1-.1-.1-.5-.7-1s-1.6-.9-2.8-1c-1.2 0-2.2.4-2.8.8-.6.5-.8.9-.7 1zM522.5 208.2c0-.1-1.2-.4-3.1-.7-.5-.1-.9-.2-1-.5-.1-.4.1-.9.4-1.4.5-1.2 1-2.4 1.6-3.6 2.2-5.2 3.8-9.5 3.5-9.5-.2-.1-2.1 4-4.3 9.2-.5 1.3-1 2.5-1.5 3.7-.2.5-.5 1.2-.3 1.9.1.4.5.6.8.7.3.1.6.1.8.1 1.9.2 3.1.3 3.1.1z"/><path class="st13" d="M520.8 229.4s9 1.1 18.4-4.1c-.2 0-5.4 9.4-18.5 7.5l.1-3.4z"/><path class="st2" d="M523.1 212.8c.7-.9 1.9-1.3 3.1-1.2.8.1 1.6.5 2.1 1.2s.5 1.6.1 2.3c-.5.7-1.6.8-2.5.5-.9-.3-1.7-.9-2.4-1.5-.2-.2-.4-.3-.5-.6-.1-.1-.1-.4.1-.7"/><path class="st9" d="M528 209.8c-.3 0-.4 2-2.2 3.4-1.8 1.4-4 1.1-4 1.4 0 .1.5.4 1.4.5.9.1 2.2-.2 3.4-1 1.1-.9 1.6-2 1.7-2.9.1-.9-.1-1.5-.3-1.4zM529.1 191.1c.2.5 2.1.3 4.3.7 2.2.3 4 1 4.3.6.1-.2-.2-.7-.9-1.2s-1.8-1-3.2-1.2c-1.3-.2-2.6 0-3.4.3-.7.1-1.2.5-1.1.8zM512.1 188c.3.4 1.6 0 3.2.1 1.6 0 2.9.4 3.2-.1.1-.2-.1-.7-.6-1.1-.6-.4-1.5-.8-2.6-.8s-2 .4-2.6.8c-.5.4-.7.8-.6 1.1z"/><path class="st9" d="M553.6 224c-3.8.6-4.1-1.3-6.8-4s-4.1-6.8-3.5-10.6c.5-3.4 2.5-6.7 1.4-10-1.4-4.3-7.3-5.8-8.7-10-.8-2.5.1-5.3-.9-7.8-.9-2.3-3.2-3.7-5.5-4.6-2.3-.9-4.7-1.6-6.6-3.1-1.9-1.6-3-4.5-1.7-6.5 10.2 1.6 20.2 4.3 29.8 8.3 2.2.9 4.5 2 5.8 4 1.3 2.2 1.2 4.9 1 7.4-1 12.3-1.9 24.7-2.9 37M563.1 196.3c.6-4.5 4.4-8.4 8.9-9.1 4.5-.7 9.3 1.9 11.2 6.1 1.8 3.9 1 8.6-.9 12.5-2.3 4.6-6.8 8.8-11.9 8.4-4.8-.4-8.6-4.7-9.8-9.4-1.2-4.7-.5-9.6.2-14.4"/><path class="st11" d="M565.2 215.2s.3-.2.7-.8c.4-.6.9-1.5 1.1-2.7.2-1.2.3-2.7 0-4.3-.2-1.6-.7-3.3-1.1-5.2-.3-1.8-.5-3.6-.1-5.1.3-1.5 1.1-2.8 1.4-4 .4-1.2.4-2.3.2-2.9-.2-.7-.5-1-.5-1s.2.4.3 1c.1.6.1 1.6-.4 2.7-.4 1.1-1.2 2.4-1.6 4-.4 1.6-.3 3.5.1 5.3.3 1.8.9 3.6 1.1 5.1.3 1.6.3 3 .1 4.2-.2 2.5-1.4 3.6-1.3 3.7z"/><path class="st11" d="M565.9 198.7s.6 1 2 2.1 3.8 2.3 6.7 2.4c2.8.1 5.3-.8 6.9-1.8 1.6-1 2.3-1.9 2.2-1.9-.1-.1-.9.7-2.5 1.5s-4 1.7-6.7 1.5c-2.7-.1-5-1.2-6.5-2.2-1.3-.8-2-1.7-2.1-1.6zM566.6 200.9c-.1 0 .2.9 1.1 2.2.8 1.3 2.3 2.9 4.3 4.1 2 1.3 4 1.9 5.5 2.2 1.5.2 2.5.2 2.5.1s-.9-.2-2.4-.5c-1.4-.3-3.4-1-5.3-2.3-1.9-1.2-3.3-2.7-4.2-3.9-1-1.2-1.5-2-1.5-1.9zM562.5 219.7s.1 0 .2-.2c.1-.1.2-.3.4-.5.3-.5.7-1.3 1-2.4.3-1.1.3-2.5-.1-4.1-.4-1.6-1.4-3.2-3.1-4.4-1.6-1.2-3.7-2.1-5-3.9-.6-.9-.9-2.1-.6-3.3.2-1.2.8-2.3 1.3-3.5 1.1-2.4 1.2-5.5.1-8.2-.6-1.3-1.5-2.6-2.7-3.6-1.2-1-2.7-1.5-4.2-1.9-1.5-.4-3-.6-4.3-1.1-1.4-.5-2.7-1.1-3.6-2.1-.9-1-1.3-2.3-1.5-3.7-.1-1.3-.2-2.7-.5-4-.6-2.6-1.8-4.9-3.5-6.6-1.7-1.7-3.8-2.7-5.7-3.1-2-.4-3.9-.1-5.3.6-1.5.7-2.5 1.7-3.2 2.6-.7.9-1 1.7-1.2 2.3-.2.6-.2.9-.2.9.1 0 .1-1.3 1.5-3 .7-.8 1.7-1.8 3.1-2.4 1.4-.6 3.2-.9 5.1-.5 1.9.4 3.9 1.4 5.5 3s2.8 3.9 3.3 6.4c.3 1.3.3 2.6.5 4 .1 1.4.5 2.9 1.6 4 1 1.1 2.4 1.8 3.8 2.3 1.4.5 2.9.7 4.4 1.1 1.4.4 2.8.9 3.9 1.8s2 2.1 2.5 3.3c1.1 2.6 1 5.4-.1 7.8-.5 1.2-1.1 2.4-1.3 3.6-.3 1.3 0 2.6.8 3.6 1.4 2 3.6 2.9 5.1 4 1.6 1.1 2.6 2.7 3 4.2.4 1.5.4 2.9.2 3.9-.4 2.2-1.3 3.1-1.2 3.1z"/><path class="st11" d="M562.8 181.3s.1-.2.2-.6c.1-.4 0-1.1-.4-1.8s-1.1-1.5-2.2-2-2.5-.5-3.9-.3c-1.5.2-3 .8-4.6 1-1.6.3-3.5.2-4.9-.9-1.4-1.2-2.1-3.1-2.8-5-.7-2-1.6-4-3-5.8-2.7-3.6-6.4-6.1-10.2-7.1-1.9-.5-3.8-.5-5.5 0-1.7.5-3.1 1.4-4.1 2.5-1 1.1-1.5 2.4-1.6 3.6-.1 1.2.1 2.2.4 3 .3.8.7 1.3 1 1.6.3.3.5.4.5.4.1-.1-.7-.6-1.3-2.1-.3-.7-.4-1.7-.2-2.8.1-1.1.7-2.3 1.6-3.3 1-1 2.3-1.9 3.9-2.3 1.6-.4 3.4-.4 5.2.1 3.6 1 7.2 3.4 9.8 6.9 1.3 1.7 2.2 3.6 2.9 5.6.7 1.9 1.4 4 3 5.3.8.6 1.8 1 2.7 1.1.9.1 1.8 0 2.7-.1 1.7-.3 3.2-.8 4.6-1.1 1.4-.3 2.7-.3 3.7.1s1.8 1.1 2.2 1.8c.4.7.5 1.3.5 1.7-.1.3-.2.5-.2.5z"/><path class="st12" d="M452.2 289s-7.6-11.9-8.9-12.9c-1.3-1-13.1-5.1-14.1-4.8-1 .3-15.2 3-13.5 4.7 1.7 1.7 11.6-.3 11.6-.3l1.3.6s-8.6 1.5-10.3 2.6c-1.6 1-1 3 .5 2.8 1.6-.2 9-1.8 9.4-1.5.4.3-8.1 2.1-9 2.7-1.2.8-1.3 3 .2 2.8.9-.1 8.9-2.3 8.9-2.3s-6.4 2.6-6.9 3.1c-.9.9-.2 2.3 1.2 2 .9-.2 5.4-2.5 6.7-2.8 0 0 1.2.3 2.3 2.7.5 1.1 2.9 8.1 7.1 7.9 3.7-.1 7.4 2.9 7.4 2.9l6.1-10.2z"/><path class="st13" d="M415.6 276c0 .1.9.5 2.6.7.8.1 1.8.2 2.9.1 1.1-.1 2.3-.3 3.5-.5.9-.2 1.8-.3 2.6-.4h-.2c3.5 1.2 6.1 2 6.2 1.8.1-.1-2.5-1.2-6-2.4h-.2c-.8.1-1.7.3-2.6.4-1.2.2-2.4.4-3.5.6-1.1.1-2 .1-2.8.1-1.5-.3-2.5-.5-2.5-.4z"/><path class="st10" d="M520.6 246s-8.1 4.9-11 10.9c-3 6-18.5 46.5-18.5 46.5l-38.9-19.3-9.8 16.7 36.7 29.2c4.9 3 10.7 4.2 16.3 3.3 8.8-1.3 13.1-1.5 16.1-9.9l9.8-27-2.1-49.5"/><path d="M509.7 269.7c-9 13-10.5 19.1-11.4 34.9-.3 5.2 0 10.9 3.1 15.1 1.1 1.5 3.4 2.8 4.8 1.6 1.4-1.2.4-3.4-.1-5.2-2.8-10.6-3.8-18.8-1.8-28.1 2-9.3 1.5-9.2 5.3-17.9" class="st3"/><path class="st9" d="M495.8 319.7c-.2 0-.1-3.9-1.5-8.4-1.3-4.5-3.5-7.7-3.4-7.8.1 0 .7.7 1.5 2.1.8 1.3 1.7 3.3 2.4 5.6s1 4.5 1.1 6c.1 1.5 0 2.5-.1 2.5z"/><path class="st10" d="m508.7 366.7-5.7 97.8h93.2s-2.8-49-6.2-69.9c-3.6-37-15.2-42.5-23.3-60.3l4.6-86.6-19.7-9.1-.8-4.5-30.6 3.7-.9 9.2s-2.8 8.1-4.4 12.3c-4.9 13-11.7 28.6-10.7 40 .5 5.2 7.5 39.5 7.5 39.5l-2.7 27.8c-.2 0-.3.1-.3.1z"/><path class="st9" d="M516 254.6s-.1.3-.2.8c-.2.5-.5 1.2-.8 2.1-.7 1.8-1.8 4.5-3.1 7.7-1.3 3.3-2.9 7.1-4.3 11.5s-2.6 9.4-3.3 14.7c-.7 5.3-.7 10.4.2 15 .8 4.6 2 8.6 2.8 12 .8 3.4 1.3 6.2 1.6 8.2.1.9.2 1.7.3 2.2.1.5.1.8.1.8s-.1-.3-.2-.8c-.1-.6-.2-1.3-.4-2.2-.4-1.9-.9-4.7-1.8-8.1-.8-3.4-2.1-7.4-2.9-12-.9-4.6-1-9.8-.2-15.1.7-5.3 1.9-10.3 3.4-14.8 1.5-4.4 3.1-8.3 4.5-11.5 1.4-3.2 2.5-5.8 3.3-7.7.4-.9.7-1.6.9-2.1-.1-.5.1-.8.1-.7z"/><path d="M512.2 344.5c-1 4.8 2.9 9.5 7.5 11.2 4.6 1.7 9.7 1.2 14.5.6 11.3-1.3 22.6-2.7 33.8-4 1.8-.2 3.9-.6 4.6-2.2.4-.9.3-1.9 0-2.9-.8-2.8-3.1-5-5.7-6.3-2.6-1.3-5.5-1.8-8.4-2.1-11.6-1.2-23.3.9-34.9 3" class="st3"/><path class="st12" d="m485.8 327.3 8.6.8 3.8 1.9s-.9-1-1.7-2c-.8-1-3.8-3.2-3.8-3.2l-6.4-.7s-3.6-.3-3.8-2.8l4.9-.5s-5.1-.4-5-2.9l3.7-.7s-1.3 0-1.2-1.4l10.2-1.1 9.8 6.9 9.4 8.4 2.1.1.7 13.6s-8.4-1-10.7-2.2c-2.3-1.1-12.4-10.3-12.4-10.3s-5.3-.5-6.8-1.7c-1.3-1-1.4-2.2-1.4-2.2z"/><path class="st13" d="M519.3 344.2h-.5c-.4 0-.9-.1-1.5-.2-1.3-.2-3.3-.4-5.8-.8-1.3-.2-2.6-.5-4.1-.9-.8-.2-1.5-.7-2.1-1.2-.7-.5-1.4-1-2.1-1.6-2.8-2.3-5.8-4.9-9.2-7.9l.1.1c-1.6-.2-3.2-.4-4.8-.8-.4-.1-.8-.2-1.2-.4l-.6-.3-.3-.2-.2-.2c-.3-.3-.6-.7-.9-1-.2-.4-.4-.8-.5-1.3v-.3h.3c2.7.2 5.6.5 8.6.8 1.2.6 2.5 1.2 3.8 1.9l-.3.4c-.4-.5-.8-.9-1.2-1.4-.2-.2-.4-.5-.6-.7-.2-.2-.4-.4-.7-.6-.9-.8-2-1.6-3-2.4h.1c-1.3-.1-2.5-.3-3.8-.4-.7-.1-1.3-.1-2-.2-.3 0-.7-.1-1-.1-.3-.1-.7-.1-1-.2-.6-.2-1.2-.5-1.7-.9s-.8-1.1-.9-1.7v-.2h.2c1.6-.2 3.3-.3 4.9-.5v.5c-1.1-.1-2.1-.3-3.1-.7-.5-.2-1-.5-1.4-.9-.4-.4-.7-1-.6-1.6v-.2h.2l3.9-.6v.5c-.4-.1-.8-.2-1.1-.5-.3-.3-.4-.7-.4-1.1v-.2h.2c3.5-.4 6.9-.8 10.1-1.2h.2c3.5 2.5 6.8 4.8 9.8 7 3.6 3.2 6.8 6 9.4 8.4h-.1c3.7.2 6.7.4 8.7.5 1 .1 1.8.1 2.3.1h.8-.8c-.5 0-1.3 0-2.3-.1-2-.1-5-.2-8.7-.4-2.7-2.3-5.8-5.1-9.5-8.3-3-2.1-6.3-4.4-9.8-6.9h.1c-3.2.4-6.6.8-10.1 1.2l.2-.2c0 .3.1.6.3.8.2.2.5.3.8.4l1.7.2-1.7.2-3.9.6.2-.2c0 .4.2.9.5 1.2.3.3.8.6 1.2.8.9.4 2 .6 3 .7v.5c-1.6.2-3.2.3-4.9.5l.2-.3c0 .6.3 1.1.7 1.4.4.4 1 .6 1.5.8.3.1.6.2.9.2.3.1.6.1 1 .1.7.1 1.3.1 2 .2 1.3.1 2.6.3 3.8.4h.2c1.1.8 2.1 1.5 3 2.4.2.2.5.4.7.7.2.2.4.5.6.7.4.5.8.9 1.2 1.4l.8.9-1-.5c-1.3-.7-2.6-1.3-3.8-1.9h.1c-3-.3-5.9-.5-8.6-.8l.2-.2c0 .4.2.8.4 1.1.2.4.5.7.8 1 .6.6 1.4.8 2.2 1.1 1.6.4 3.2.7 4.7.8h.1c3.3 3 6.3 5.6 9.1 7.9.7.6 1.4 1.1 2 1.6.7.5 1.3 1 2 1.2 1.5.5 2.8.7 4.1 1 2.5.5 4.5.7 5.8.9.7.1 1.2.2 1.5.2.2 0 .3 0 .4.1l.2-.2z"/><path class="st13" d="M499.8 325.2c0 .1-.7-.4-1.8-1.1-1-.7-2.5-1.7-4-2.9-.1-.1-.3-.2-.4-.3h.2c-1.8.1-3.4.1-4.6.1-1.2 0-1.9 0-1.9-.1s.7-.2 1.9-.2c1.2-.1 2.8-.2 4.6-.3h.1l.1.1c.1.1.3.2.4.3 1.6 1.2 2.9 2.2 3.9 3 1 .8 1.5 1.3 1.5 1.4zM498.7 320.6c0 .1-.6-.3-1.6-1s-2.3-1.6-3.7-2.7h.2c-.2 0-.4 0-.6.1-1.9.2-3.7.4-5 .4-1.3.1-2.1.1-2.1 0s.8-.2 2-.4 3-.4 5-.6c.2 0 .4 0 .6-.1h.1l.1.1c1.5 1.1 2.7 2.1 3.6 2.8.9.9 1.5 1.4 1.4 1.4z"/><path class="st10" d="M587.9 335.8c3.2-4.9 4.5-10.7 3.7-16.5l-7.4-43.8c-.8-7.3-1.9-17.3-7-22.7-3.5-3.7-7.7-6.9-11.9-6.8l-8.9 25.4 3.4 49-45.4 8.1v19.9s34.7-1.1 53.9-1.7c7.9-.2 15.2-4.3 19.6-10.9z"/><path class="st9" d="M587.9 335.8s-.1.1-.2.3c-.2.2-.4.5-.6.9-.6.8-1.5 2-2.9 3.3-1.4 1.3-3.3 2.8-5.7 4-2.5 1.2-5.5 2.2-9 2.5-13.9.5-33.2 1.1-55 1.8h-.3v-20.4h.2c16.9-3 32.5-5.8 45.4-8.1l-.2.2c-1.2-11.3-2.2-20.6-2.9-27.2-.3-3.2-.6-5.8-.8-7.5-.1-.8-.1-1.5-.2-2v-.7s0 .2.1.7c.1.5.1 1.1.2 2 .2 1.8.5 4.3.9 7.5.7 6.5 1.8 15.8 3 27.1v.2h-.2c-12.8 2.3-28.4 5.1-45.4 8.2l.2-.3v19.9l-.3-.3c21.9-.7 41.2-1.2 55-1.7 3.4-.2 6.4-1.2 8.9-2.4 2.4-1.2 4.3-2.6 5.7-3.9 1.4-1.3 2.3-2.4 3-3.2.3-.4.5-.7.7-.9.3.1.4 0 .4 0zM570.3 247.7c0 .1-1.5.7-3.8 2.1-1.1.7-2.4 1.7-3.7 2.9-1.3 1.2-2.6 2.7-3.8 4.3-1.2 1.7-2.1 3.4-2.8 5-.7 1.6-1.1 3.2-1.4 4.5-.6 2.6-.6 4.3-.7 4.3v-1.2c0-.4 0-.8.1-1.4.1-.5.1-1.1.3-1.8.2-1.3.7-2.9 1.3-4.6.7-1.7 1.6-3.4 2.8-5.1 1.2-1.7 2.5-3.2 3.9-4.4 1.3-1.2 2.7-2.2 3.8-2.8.6-.4 1.1-.6 1.6-.9.5-.3.9-.4 1.3-.6.7-.2 1.1-.4 1.1-.3zM551.7 238.4s-.3.4-1.1.8-1.9.8-3.4 1.4c-2.9 1.1-6.6 3-10.9 4.9-4.3 1.9-8.5 2.9-11.6 3-1.5.1-2.8-.1-3.6-.2-.4-.1-.7-.1-1-.2-.2-.1-.3-.1-.3-.1 0-.1 1.9.4 4.9.1 3-.2 7.1-1.3 11.4-3.1 4.3-1.9 8.1-3.7 11-4.7 1.5-.5 2.6-.8 3.4-1.2.8-.5 1.2-.7 1.2-.7z"/><path class="st10" d="m442.4 314.1-4.5-35.3-30.7 1.5 2.1 35.4z"/><path class="st12" d="M446.6 287.7c-.9.8-2.3.6-3.3.1s-1.8-1.5-2.8-2.2c-2.9-2-7.1-1.4-9.9-3.6-.4-.3-.8-.8-.6-1.2.2-.4.7-.5 1.2-.5 3.9 0 7.8.1 11.7.1"/><path class="st13" d="M443 280.4s-.5-.1-1.3-.1-2-.1-3.5-.1-3.2-.1-5.1-.1h-1.5c-.5 0-1.1-.1-1.7.4-.3.3-.3.8-.2 1.1.1.3.4.6.6.7l1.5.9c2.1.9 4.3 1.1 6.1 1.6.9.3 1.7.6 2.4 1.1.7.5 1.3 1 1.9 1.5 1.1 1 2.5 1.3 3.3 1.1.9-.2 1.1-.7 1.1-.7 0-.1-.4.3-1.1.4-.8.1-1.9-.2-3-1.2-.5-.5-1.1-1-1.8-1.6-.7-.5-1.6-.9-2.6-1.2-1.9-.6-4-.8-6-1.7-.5-.2-.9-.5-1.3-.8-.4-.3-.6-.7-.4-.9.2-.2.7-.2 1.2-.2h6.6c1.5 0 2.6 0 3.5-.1.8-.1 1.3-.1 1.3-.1z"/><path class="st8" d="M433.9 290.7s-.3.2-.9.4c-.6.2-1.4.6-2.5.9-1.1.3-2.4.6-3.9.4-.8-.1-1.5-.2-2.3-.6-.8-.3-1.5-.9-2.1-1.4-.3-.2-.7-.4-1-.4-.3 0-.7.1-.9.4-.6.5-.9 1.2-1.3 1.8-.4.6-1.1 1.2-1.8 1.2s-1.4-.3-1.8-.7c-.9-.8-1.1-1.8-1.3-2.4-.2-.6-.2-1-.2-1s.1.3.4.9c.2.6.5 1.5 1.3 2.1.4.3 1 .6 1.6.5.6 0 1.1-.5 1.5-1.1.4-.6.7-1.4 1.4-1.9.3-.3.8-.5 1.3-.5s.9.2 1.3.5c.7.5 1.3 1.1 2 1.4.7.3 1.4.5 2.2.6 1.4.2 2.7-.1 3.8-.3 1.9-.4 3.2-.9 3.2-.8zM435.4 295.9c0 .1-4.6.5-10.4.7-5.7.3-10.4.3-10.4.2 0-.1 4.6-.5 10.4-.7 5.7-.2 10.4-.3 10.4-.2zM433.2 301c0 .1-.9.3-2.3.6-1.5.3-3.5.7-5.7 1-2.2.3-4.3.6-5.8.7-1.5.1-2.4.2-2.4.1s.9-.2 2.4-.5c1.7-.3 3.6-.6 5.7-.9 2.1-.3 4.1-.6 5.7-.9 1.5 0 2.4-.1 2.4-.1z"/><path class="st0" d="m555.1 291.1-.4.4c-.3.3-.8.6-1.3 1-1.1.9-2.8 2.1-4.9 3.5-2.2 1.4-4.9 2.9-8.2 3.8-3.3.9-7.2 1.1-10.9-.4s-6.5-4-9.3-5.9c-2.7-2-5.4-3.3-7.9-3.8s-4.6-.2-5.9.3c-1.3.5-1.9 1.1-1.9 1 0 0 .5-.6 1.9-1.2 1.3-.6 3.5-1 6-.5s5.4 1.8 8.1 3.8c2.8 1.9 5.6 4.4 9.2 5.8 3.6 1.5 7.4 1.2 10.6.4 3.2-.8 5.9-2.3 8.1-3.6 2.2-1.3 3.8-2.6 5-3.4.5-.4 1-.7 1.3-.9.4-.2.5-.3.5-.3zM583.6 271.3c0 .1-1.5-.4-4-.7-1.3-.2-2.8-.3-4.4-.4-1.7 0-3.5.1-5.4.3-1.9.3-3.7.7-5.3 1.2-1.6.5-3 1.1-4.1 1.6-2.3 1.1-3.6 1.9-3.7 1.8 0 0 .3-.3.9-.7.6-.4 1.5-.9 2.6-1.5s2.5-1.2 4.2-1.7c1.6-.5 3.4-1 5.4-1.3 1.9-.3 3.8-.3 5.5-.3 1.7.1 3.2.2 4.5.5 1.3.2 2.3.5 2.9.7.6.3 1 .5.9.5zM589.3 307.6c0 .1-1.9-.4-4.6.5-1.4.4-2.9 1.2-4.6 2.2-1.7.9-3.6 2-5.9 2.5-4.5 1-8.7-.2-11.3-1.6-1.3-.7-2.3-1.5-2.9-2l-.9-.9c.1-.1 1.3 1.3 3.9 2.6 2.6 1.3 6.7 2.3 11 1.4 2.2-.5 4-1.5 5.8-2.4 1.7-.9 3.3-1.7 4.7-2.1 1.4-.4 2.7-.5 3.5-.4.8 0 1.3.2 1.3.2zM548.3 347.4c-.1 0 .6-1.3 1.2-3.5s1-5.4.4-8.8c-.6-3.4-2-6.3-3.3-8.2-1.3-1.9-2.3-2.9-2.2-3 0 0 .3.2.8.7.5.5 1.1 1.2 1.8 2.1 1.4 1.9 2.9 4.8 3.5 8.3.6 3.5.1 6.8-.6 9-.3 1.1-.7 2-1 2.6-.4.5-.6.8-.6.8zM509.9 266.5c-.1.1-.6-.8-1.6-1.3-1-.6-1.9-.5-2-.7-.1-.1 1.1-.5 2.2.2 1.3.7 1.6 1.8 1.4 1.8zM563.2 245.1c0 .1-.8-.1-2.1 0s-3.2.7-5.3 2c-1 .6-2.1 1.5-3.1 2.4-1 1-2.1 2.1-3.1 3.3-2.2 2.3-4.5 5.1-8 6.8-3.4 1.7-7.1 2-10.3 1.8-3.2-.2-6.1-.9-8.4-1.7-2.3-.7-4.1-1.4-5.4-1.9-.6-.2-1.1-.4-1.4-.6-.3-.1-.5-.2-.5-.2s.2 0 .5.1c.4.1.9.3 1.5.5 1.3.4 3.1 1.1 5.4 1.8 2.3.7 5.1 1.4 8.3 1.5 3.2.2 6.7-.2 10-1.8s5.7-4.3 7.8-6.6c1.1-1.2 2.1-2.3 3.2-3.3s2.1-1.8 3.2-2.4c2.1-1.3 4.1-1.8 5.4-1.8.7 0 1.2 0 1.6.1.5-.1.7 0 .7 0zM549.9 235.9s-.4.2-1.1.5c-.7.3-1.8.7-3.1 1.2-2.6 1-6.3 2.1-10.4 3-4.2.9-8 1.3-10.7 1.5-1.4.1-2.5.1-3.3.1-.8 0-1.2 0-1.2-.1 0 0 .4-.1 1.2-.1.8-.1 1.9-.1 3.3-.3 2.8-.3 6.5-.8 10.7-1.6 4.1-.9 7.8-2 10.4-2.8 1.3-.4 2.4-.8 3.1-1.1.7-.2 1.1-.3 1.1-.3zM468.9 321.7s-.1-.1-.1-.3c-.1-.2-.1-.5-.2-.8-.1-.7-.2-1.8.1-3.1.2-1.3.8-2.8 1.6-4.3.8-1.6 1.8-3.1 2.8-4.8 1-1.7 1.8-3.4 2.2-5.1.4-1.6.3-3.2.1-4.4-.5-2.5-1.6-3.8-1.5-3.9 0 0 .3.3.7.9.4.6.9 1.6 1.2 2.9.3 1.3.4 2.9 0 4.6-.4 1.7-1.2 3.5-2.2 5.2-1 1.7-2.1 3.3-2.8 4.8-.8 1.5-1.4 2.9-1.7 4.2-.6 2.5-.1 4.1-.2 4.1zM581.8 360s-.2-.1-.7-.4c-.4-.3-1.1-.6-2-1-1.7-.8-4.4-1.6-7.8-1.7-3.4-.2-7.5.3-11.8 1.5-4.4 1.2-9 3.1-13.9 4.8-4.9 1.7-9.9 2.9-14.4 3-4.6.1-8.6-.8-11.9-1.9-3.3-1.2-5.7-2.5-7.3-3.6-.8-.5-1.4-1-1.8-1.3-.4-.3-.6-.5-.6-.5s.9.6 2.5 1.6 4.1 2.3 7.3 3.4 7.3 1.9 11.8 1.8c4.5-.1 9.4-1.3 14.3-3s9.6-3.6 14-4.8c4.4-1.2 8.5-1.6 12-1.4 3.4.2 6.2 1.1 7.9 1.9.9.4 1.5.8 1.9 1.1.3.4.5.5.5.5zM588.8 396.8s-.9.9-2.7 2c-1.9 1.1-4.9 2.3-8.8 2.8-1.9.2-4.1.3-6.4.1-2.3-.2-4.7-.7-7.2-1.3-5-1.3-10.2-3.5-15.8-5.4-5.6-1.9-11.1-3.3-16.2-3.3-2.5 0-5 .3-7.1 1-2.2.6-4.2 1.3-6.1 1.7-3.8 1-7.2.3-9.1-.8-1-.5-1.6-1.2-1.9-1.6-.4-.4-.5-.7-.5-.7s.2.2.6.7c.4.4 1 1 2 1.5 1.9 1 5.1 1.6 8.9.6 1.9-.4 3.9-1.2 6.1-1.8 2.2-.6 4.7-1 7.3-1 5.2-.1 10.8 1.3 16.4 3.3 5.6 2 10.8 4.1 15.8 5.4 2.5.7 4.9 1.1 7.1 1.3 2.3.2 4.4.2 6.3 0 3.8-.4 6.8-1.5 8.7-2.6.5-.2.9-.5 1.2-.7.4-.2.6-.4.9-.6.3-.5.5-.6.5-.6zM593.4 426.2s-.1 0-.2-.1c-.2-.1-.4-.2-.6-.4-.5-.3-1.3-.8-2.4-1.3-2.1-1-5.3-2.1-9.5-2.5-4.2-.4-9.2-.1-14.6 1s-11.2 2.9-17.5 4.4c-3.1.7-6.2 1.3-9.2 1.7-3 .3-5.9.4-8.7.3-5.6-.2-10.5-1.1-14.6-2.2s-7.2-2.4-9.3-3.4c-1.1-.5-1.9-.9-2.4-1.2-.2-.1-.5-.2-.6-.3-.1-.1-.2-.1-.2-.1s.1 0 .2.1l.6.3c.6.3 1.4.7 2.5 1.1 2.1.9 5.3 2.2 9.3 3.2 4 1.1 9 1.9 14.5 2.1 2.8.1 5.7 0 8.6-.4 3-.3 6-.9 9.1-1.7 6.2-1.5 12-3.3 17.5-4.4 5.5-1.1 10.5-1.3 14.7-.9 4.2.5 7.5 1.6 9.6 2.7 2.2 1.2 3.2 2 3.2 2zM541.1 323.3c0 .1-1.7-.8-4.7-1.9-1.5-.5-3.2-1-5.3-1.4-2-.4-4.3-.6-6.6-.6-2.4 0-4.6.2-6.6.6-2 .4-3.8.8-5.3 1.3-2.9 1-4.6 1.9-4.7 1.8 0 0 .4-.3 1.2-.7.4-.2.9-.5 1.4-.7.6-.2 1.2-.6 2-.8 1.5-.6 3.3-1.1 5.3-1.5 2-.4 4.3-.6 6.7-.6 2.4 0 4.7.3 6.7.7 2 .4 3.8.9 5.3 1.5.7.2 1.4.6 1.9.8.6.2 1 .5 1.4.7.9.5 1.3.8 1.3.8zM593.7 457.3s-.1 0-.2-.1l-.6-.3c-.3-.2-.6-.3-1-.5s-.8-.4-1.4-.6c-2.1-.9-5.2-2-9.3-2.5-4-.5-8.9-.4-14.3.3s-11.2 1.9-17.4 2.6c-12.5 1.5-23.9.4-31.9-1.3-4-.8-7.2-1.7-9.4-2.4-1.1-.3-1.9-.6-2.5-.8-.3-.1-.5-.2-.6-.2-.1-.1-.2-.1-.2-.1h.2c.2 0 .4.1.7.2.6.2 1.4.4 2.5.7 2.2.6 5.4 1.4 9.4 2.2 8 1.5 19.4 2.6 31.7 1.1 6.2-.7 12-1.9 17.4-2.6 5.4-.7 10.3-.8 14.4-.2 4.1.5 7.3 1.6 9.3 2.6.5.2 1 .5 1.4.7.4.2.7.4 1 .6.2.1.4.3.6.4.1.2.2.2.2.2z"/></g><g id="Character_1"><path class="st9" d="m196.7 464.5 2-91.4-71-5.9s-3.8 36.6-3.7 41.5c0 2.3 10.7 25.1 10.7 25.1l-.1 30.7h62.1z"/><path class="st11" d="M172.6 384s-.2.5-.6 1.3c-.4.8-1 2-1.9 3.5-1.7 2.8-4.3 6.8-8.2 10.1-3.9 3.3-8.4 5-11.8 5.4-1.7.2-3 .2-4 .1-.5 0-.8-.1-1.1-.2-.2 0-.4-.1-.4-.1 0-.1 2.1.3 5.3-.2 3.3-.5 7.6-2.2 11.5-5.4 3.9-3.3 6.5-7.1 8.3-9.9.9-1.4 1.6-2.6 2-3.4.6-.8.8-1.2.9-1.2z"/><path class="st14" d="m146.1 233.1 32 8.3 1.1-27.9s13.5-1.5 14.3-14.9c.7-13.4-.3-44.4-.3-44.4-15.3-7.3-33.3-5.9-47.2 3.9l-2.1 1.4 2.2 73.6z"/><path class="st15" d="M179.3 213.3s-8.5.3-17.3-5.7c0 0 3.7 9.8 17.2 9.2l.1-3.5z"/><path class="st14" d="M145.1 173.5c-.2-.1-9.1-3.1-9.2 6.1-.1 9.2 9.2 7.4 9.2 7.1-.1-.2 0-13.2 0-13.2z"/><path class="st15" d="m142.3 183.2-.4.2c-.3.1-.7.2-1.2 0-1-.4-1.8-1.9-1.8-3.6 0-.8.2-1.6.5-2.3.3-.7.7-1.1 1.2-1.2.5-.1.8.2.9.4.1.3.1.4.1.5 0 0 .2-.2.1-.5 0-.2-.1-.4-.4-.6-.2-.2-.5-.3-.9-.2-.7 0-1.4.7-1.7 1.4-.4.7-.6 1.6-.6 2.6 0 1.9 1 3.6 2.3 4 .6.2 1.2 0 1.5-.2.3-.3.4-.5.4-.5z"/><path class="st9" d="M189.4 174.9c0 1-.9 1.8-1.9 1.9-1.1 0-1.9-.8-1.9-1.8s.9-1.8 1.9-1.9c1-.1 1.9.8 1.9 1.8zM189.9 173c-.2.2-1.7-.9-3.7-1-2.1-.1-3.6.9-3.8.6-.1-.1.2-.6.8-1 .7-.5 1.8-.9 3.1-.8 1.3.1 2.3.6 2.9 1.1.6.5.8 1 .7 1.1zM169.1 174.7c0 1-.9 1.8-1.9 1.9-1.1 0-1.9-.8-1.9-1.8s.9-1.8 1.9-1.9c1.1 0 1.9.8 1.9 1.8zM169.6 172.5c-.2.2-1.7-.9-3.7-1-2.1-.1-3.6.9-3.8.6-.1-.1.2-.6.8-1 .7-.5 1.8-.9 3.1-.8 1.3.1 2.3.6 2.9 1.1.6.5.8 1 .7 1.1zM176.4 188.1c0-.1 1.3-.3 3.4-.5.5 0 1-.1 1.1-.5.1-.4-.1-1-.3-1.6-.4-1.3-.9-2.7-1.4-4.1-1.9-5.8-3.3-10.6-3.1-10.7.2-.1 2 4.6 3.9 10.4.5 1.4.9 2.8 1.3 4.1.2.6.5 1.3.2 2.1-.2.4-.6.7-.9.7-.3.1-.6.1-.9.1-2 .2-3.3.1-3.3 0zM170.5 164.4c-.2.6-2.3.2-4.7.4-2.4.1-4.4.8-4.7.2-.1-.2.2-.8 1-1.3s2.1-1 3.5-1.1c1.5-.1 2.8.2 3.7.6.8.5 1.3 1 1.2 1.2zM189.4 167c-.4.5-1.8-.1-3.5-.2-1.7-.2-3.2.2-3.5-.3-.1-.2.1-.7.8-1.1.6-.4 1.7-.7 2.9-.6 1.2.1 2.2.6 2.7 1.1.6.4.8.8.6 1.1z"/><path class="st9" d="M200.2 146c.2-1.7-.3-3.5-1.6-4.5s-3.4-1.1-4.6.1c.7-2.2-1-4.9-3.3-5.1-2.2-.2-4.1 1.3-6.3 1.8-2.1.5-4.3-.1-6.2-1-2-.9-3.8-2.1-5.7-2.9-4.1-1.7-8.9-1.7-13.1 0-4.1 1.7-7.6 5.1-9.3 9.2-2.9-1-6.3.3-8.2 2.7-1.9 2.4-2.5 5.7-2.3 8.7.2 2.1.7 4.1 1.3 6.1v.5c-.2 7.4.3 16.1 3.4 16.3 5.5.3 4.6-10.1 4.6-10.1 6.9-2.3 4.8-12.5 6.5-14 1.8-1.5 5.4-4.9 19.2 2.9 5.4 3 12.7 3.3 16.7 2.5.1 0 .2 0 .4-.1h.2c1.3-.3 2.5-.7 3.7-1.4 1.3-.8 2.5-1.8 3.1-3.2.6-1.4.5-3.2-.6-4.2 1-1.2 1.8-2.7 2.1-4.3z"/><path class="st15" d="M177.5 194.5c-.4.8-.7 1.6-1.3 2.3-.6.7-1.4 1.2-2.3 1.2-.9 0-1.8-.6-2.3-1.4-.5-.8-.6-1.8-.5-2.7.1-.8.5-1.8 1.4-1.9.4 0 .7.1 1 .3 1.5.7 2.9 1.3 4.4 2"/><path class="st9" d="M175.6 198.1c0-.1-1 .2-2.4-.4-.7-.3-1.4-.9-1.7-1.7-.4-.8-.4-1.9.1-2.9.1-.2.3-.5.4-.6.2-.2.2-.2.3-.1.2.1.5.2.7.3.2.1.5.2.7.3.9.4 1.8.8 2.5 1.1 1.4.6 2.3.9 2.4.8 0-.1-.8-.6-2.1-1.3-.7-.4-1.5-.8-2.4-1.3-.2-.1-.5-.2-.7-.4-.3-.1-.4-.2-.8-.4-.2-.1-.4-.1-.7 0-.2.1-.4.2-.5.4-.2.3-.4.5-.5.8-.6 1.2-.5 2.5 0 3.6.5 1 1.4 1.6 2.2 1.9.8.3 1.5.3 1.9.2.4-.1.6-.2.6-.3z"/><path class="st11" d="M154.5 152.6c.1 0-.1-.6.1-1.6s.8-2.5 2.3-3.7c1.4-1.2 3.7-1.9 6.1-1.7 2.5.1 5.1 1.1 7.8 2.1 1.4.5 2.7 1 4 1.4 1.3.3 2.6.6 3.9.6 2.5.2 4.8-.1 6.7-.6 1.8-.5 3.3-1.1 4.2-1.6.5-.2.8-.4 1.1-.6l.4-.2s-.5.3-1.5.7c-1 .4-2.4 1-4.2 1.4-1.8.4-4.1.7-6.6.5-1.2-.1-2.5-.3-3.8-.7-1.3-.4-2.6-.8-4-1.4-2.7-1-5.4-2-7.9-2.1-2.5-.2-4.9.6-6.3 1.9-1.5 1.3-2.1 2.8-2.2 3.9-.3 1.1-.1 1.7-.1 1.7zM143.1 174.8s.1-.1.2-.3c.1-.2.3-.5.5-.8.4-.7.8-1.9 1.2-3.3.4-1.4.6-3.2.6-5.2s-.6-4.1-.9-6.3c-.4-2.2-.4-4.4.3-6.2.3-.9.8-1.7 1.4-2.3.6-.6 1.3-1 2-1.2 1.4-.4 2.6-.2 3.3.2.7.4 1 .8 1 .8s-.2-.4-.9-.9c-.7-.4-2-.8-3.5-.4-.7.2-1.5.6-2.1 1.2-.6.6-1.2 1.5-1.5 2.4-.7 1.9-.7 4.1-.3 6.4.4 2.2.9 4.3 1 6.2.1 1.9-.1 3.7-.5 5.1-.3 1.4-.8 2.5-1.1 3.3-.6.9-.8 1.3-.7 1.3z"/><path class="st11" d="M153.2 151.4v-2c0-1.3.1-3.3.9-5.6.4-1.1 1-2.3 1.9-3.3.9-1 2.2-1.9 3.7-2.2 1.5-.3 3.2-.1 4.8.4 1.6.5 3.2 1.4 4.7 2.4 1.6 1 3.1 1.9 4.7 2.7 1.6.7 3.3 1.1 4.9 1.2 1.6.1 3.1 0 4.5-.4 1.4-.3 2.6-.8 3.7-1.3 2.2-1.1 3.6-2.5 4.5-3.5.4-.5.7-.9.9-1.2.2-.3.3-.5.3-.5s-.1.1-.3.4c-.2.3-.5.7-1 1.2-.9 1-2.4 2.3-4.5 3.4-1.1.5-2.3 1-3.7 1.3-1.4.3-2.9.4-4.4.3-1.6-.1-3.2-.5-4.7-1.2-1.6-.7-3.1-1.7-4.6-2.6-1.6-1-3.1-1.9-4.8-2.4-1.7-.5-3.4-.8-5-.4-1.6.3-2.9 1.3-3.9 2.4-1 1.1-1.6 2.3-2 3.4-.8 2.3-.8 4.3-.7 5.6 0 .7 0 1.2.1 1.5v.4z"/><path class="st14" d="m213.8 269.5 40.4-45.4 5.7-8s14-17.3 15.1-19.1c1.3-2.1 2.6-2 3.4-1.5 1.2.8 1.1 2.9 0 4.7-.4.6-6.6 10.5-6.6 10.5s1-.5 3.6-1.5c2.6-.9 6.7.1 10.2 2.4 3.5 2.3 4.2 3.3 3.4 4.6-.3.6-.9.8-1.5.9-1 .2-2.5-.3-3.3-.8-6.9-4.1-8.5-1.4-8.5-1.4l-.9 1s5.1-.3 7.2 2.4c.3.4.6.9.7 1.4 1.5.9 2.5 2.7 2.4 4.5 0 1.8-1.1 3.6-2.7 4.5-.8.4-1.8.6-2.5 0-.3-.3-.5-.8-.6-1.2-.1-.2-.2-.5-.3-.7l-2.5 2.6s-6 5.6-8.3 8.4l-35.7 44.6c-4.6 6.7-11.7 12.3-18.3 7.6-7.2-5.1-6.6-14.1-.4-20.5z"/><path class="st14" d="M256.3 224.4c.9.9 2.4.8 3.5.3 1.1-.6 2-1.5 3.1-2.2 3.3-2 7.7-1.1 10.8-3.2.4-.3.9-.8.7-1.3-.2-.5-.8-.5-1.3-.6-4.2-.2-8.4-.4-12.5-.6"/><path class="st15" d="M260.6 216.8s.5-.1 1.4-.1c.9 0 2.1 0 3.7.1s3.5.1 5.5.2c.5 0 1 0 1.6.1.5.1 1.2-.1 1.8.5.3.3.3.9.1 1.2-.2.3-.4.6-.7.8-.5.3-1.1.6-1.6.9-2.3.9-4.7.9-6.6 1.4-1 .2-1.9.5-2.7 1-.8.4-1.4 1-2.1 1.5-1.3 1-2.7 1.2-3.6 1-.9-.2-1.2-.8-1.1-.8 0-.1.4.4 1.2.5.8.1 2.1-.1 3.3-1.1.6-.5 1.2-1 2.1-1.6.8-.5 1.8-.9 2.8-1.1 2-.5 4.4-.6 6.5-1.4.5-.2 1-.5 1.5-.8.4-.3.7-.7.5-.9-.2-.2-.8-.3-1.3-.3s-1.1-.1-1.6-.1c-2-.1-3.9-.2-5.5-.3-1.6-.1-2.8-.2-3.7-.3-1-.3-1.5-.4-1.5-.4zM274.8 216c.1.1.5-.9 1.8-1.5.7-.3 1.6-.4 2.5-.2 1 .2 1.9.7 2.9 1.3 1 .6 2 1.2 3 1.5 1 .3 1.9.4 2.7.3.8-.2 1.3-.7 1.5-1.1.2-.4.2-.7.1-.7l-.3.6c-.2.3-.7.8-1.4.9-.7.1-1.6 0-2.5-.3-.9-.3-1.9-.9-2.9-1.5s-2-1.1-3.1-1.3c-1-.2-2-.1-2.7.3-.7.4-1.2.8-1.4 1.2-.1.3-.2.5-.2.5zM278.9 199.4c-.1 0-.5.7-1.3 2-.8 1.4-1.8 3-2.9 4.8-1.1 1.8-2.1 3.4-3 4.7-.8 1.2-1.2 2-1.2 2s.6-.6 1.5-1.8c.8-1.2 1.9-2.8 3.1-4.7 1.1-1.9 2.1-3.6 2.8-4.9.7-1.2 1.1-2 1-2.1zM275.7 219.6s.3.1.7.1c.4.1 1.2.2 1.6.9.2.3.2.7 0 1.1-.2.4-.5.8-.9 1.2-.3.4-.7 1-.7 1.7s.4 1.3 1 1.7c.6.4 1.3.4 2 .3.6-.2 1.2-.5 1.6-.9.7-.9 1.2-1.8 1.5-2.6.3-.8.5-1.5.5-1.9 0-.5-.1-.7-.1-.7s0 .3-.1.7c-.1.5-.3 1.1-.6 1.8-.4.7-.8 1.6-1.5 2.4-.7.7-2 1.2-3 .5-.5-.3-.8-.8-.8-1.4 0-.5.3-1 .6-1.4.3-.4.7-.8.9-1.3.2-.5.2-1.1-.1-1.5-.6-.8-1.4-.8-1.8-.9-.6.2-.8.2-.8.2z"/><path class="st15" d="M279.4 226.3s-.2.2-.3.6c-.1.4 0 1.1.5 1.7.5.6 1.6.9 2.6.7 1-.2 2-1 2.6-2 .6-1 .9-2.2.8-3.2-.1-1-.5-1.9-.9-2.5-.4-.6-.9-1-1.3-1.3l-.6-.3c-.1.1.8.5 1.6 1.7.4.6.7 1.4.7 2.4.1.9-.2 2-.8 2.9-.6.9-1.4 1.6-2.3 1.8-.9.2-1.8 0-2.3-.5-.5-.5-.6-1.1-.6-1.5.2-.3.3-.5.3-.5zM268.4 228.7s-.3-.3-1-.6c-.7-.2-1.7-.4-2.8 0l.3.3c.2-.4.4-.9.6-1.5 1-2.9.6-5.4.5-5.4-.1 0 0 2.5-1 5.3-.2.5-.4 1-.6 1.4l-.2.5.5-.2c1-.4 2-.3 2.6-.1.7.2 1.1.4 1.1.3zM279.1 211.9c-.1 0-.2.9.5 1.8.6.9 1.5 1.2 1.6 1.1.1-.1-.6-.5-1.2-1.3-.7-.8-.8-1.6-.9-1.6z"/><path class="st10" d="m173.5 228.4 37.5 37.1 27.5-28.3 5.2-2.3 6.9-7 16 18-33.9 44.4c-4.4 5.7-10.6 9.8-17.6 11.5-10.7 2.6-22-.4-29.9-8.1l-28.9-28.3"/><path class="st9" d="M214.7 287.1c-.1 0-.1-1.2-.1-3.2s-.1-4.7-.6-7.7-1.3-5.6-1.9-7.5c-.6-1.9-1.1-3-1-3.1 0 0 .2.3.4.8.3.5.6 1.2.9 2.2.7 1.9 1.6 4.5 2.1 7.6.5 3 .5 5.8.5 7.8 0 1-.1 1.8-.1 2.4-.2.4-.2.7-.2.7z"/><path d="M184.9 240.6c5.9 5.7 7.4 13 10.7 20.5 3.9 8.8 10.9 17.4 13.6 26.7.8 2.8 1.1 5.8.1 8.5s-3.8 6-6.7 6.2l-6-1.6-11.7-60.3z" class="st3"/><path class="st9" d="M259.1 255.9c-.1.1-3.6-4.1-7.7-9.4-4.2-5.3-7.5-9.7-7.3-9.8.1-.1 3.6 4.1 7.7 9.4 4.1 5.4 7.4 9.7 7.3 9.8z"/><path class="st11" d="m243.7 330.4-10.9 33.4 28.9-13.1 9.4-30.6z"/><path class="st10" d="m145.4 209.1-4.2 10.2s-5.5 11.7-11.6 19.6c-6.7 8.7-8.3 36.7-8.3 36.7l6.3 85.9-2.2 4.2c-1 1.9-.5 8.9 1.7 9l71.2 3.3c1.7.1 2.9-5.9 2.8-7.7l-5.7-103.8-11.5-28.3-3.7-5.6-.1-7-24.8-7.7c-4.5-1.2-8.1-4.5-9.9-8.8z"/><path d="M129 341.4c10.8 6.9 21.7 13.8 33.8 18.3 12 4.5 25.6 6.2 38 2.7l-.4-8.9-68.1-18.9-3.3 6.8z" class="st3"/><path class="st10" d="M148.5 241.3S129 239.6 125 264c-4 24.3 2.5 77.1 4.3 77.6 0 0 34.9 14.9 71.1 18.4l25.4-4.7-3-24.2-18.7 1s-.8-4.7-7.9-6.6c-10.2-2.8-30.6-7.6-30.6-7.6s.9-24.3 1.1-31.4c.2-7.1 2.7-38-13.6-43.8"/><path class="st9" d="M183.8 238.3s.1.2.4.7c.2.5.5 1.2.9 2.1.8 1.9 1.9 4.6 3.3 7.8 1.4 3.3 3 7.3 4.9 11.6.5 1.1.9 2.2 1.4 3.4.5 1.1.9 2.4 1.2 3.6.3 1.3.3 2.6.4 4 .1 1.3.1 2.7.2 4 .6 10.9 1.2 20.8 1.5 28 .1 3.6.2 6.5.2 8.5V315.1s0-.3-.1-.8c0-.6-.1-1.3-.1-2.3-.1-2.1-.2-4.9-.4-8.5-.4-7.2-1-17.1-1.6-28-.1-1.4-.1-2.7-.2-4.1-.1-1.3-.1-2.6-.4-3.9-.3-1.3-.7-2.4-1.2-3.6-.5-1.1-.9-2.3-1.4-3.4-1.8-4.4-3.4-8.3-4.8-11.7-1.3-3.3-2.4-6-3.2-7.9-.3-.9-.6-1.6-.8-2.2-.1-.1-.2-.4-.2-.4zM179.9 225.7s0 .4-.2 1c-.2.7-.4 1.6-.8 2.9-.8 2.4-2.2 5.8-4.4 9.6l-.1.2-.2-.2c-2.8-2.3-6.6-4.3-10.7-6-3.4-1.4-6.8-2.6-9.7-4-2.9-1.4-5.5-2.9-7.4-4.4-1.9-1.5-3.2-3-4-4.2-.4-.6-.7-1-.8-1.3-.2-.3-.3-.5-.2-.5.1 0 .4.6 1.3 1.7.8 1.1 2.2 2.5 4.1 4 1.9 1.5 4.4 2.9 7.3 4.3 2.9 1.3 6.3 2.5 9.7 4 4.2 1.7 8 3.7 10.8 6.1l-.3.1c2.2-3.7 3.7-7 4.5-9.4.4-1.2.8-2.1 1-2.8-.1-.7.1-1.1.1-1.1z"/><path class="st9" d="M153.1 242.7s.5.2 1.3.5l1.6.8c.6.4 1.3.8 2 1.5 1.4 1.2 2.9 3 4.2 5.4 1.3 2.4 2.4 5.3 3.2 8.7 1.6 6.8 2 15.4 1.6 25.2-.3 9.8-.7 20.9-1.1 33.1l-.2-.2c6.2 1.4 12.8 3 19.6 4.7 3.4.8 6.9 1.7 10.5 2.7 3.7.8 6.9 3.5 8.6 6.9l-.2-.1c5.9-.3 12.3-.7 18.7-1h.2v.2c1 7.7 2 15.9 3 24.2v.2h-.2c-7.6 1.4-15.6 2.9-23.7 4.3l-1.8.3c-6.5-.7-12.9-1.6-19.2-2.9-6.3-1.3-12.4-2.7-18.3-4.3-11.9-3.3-23.2-7-33.6-11.3-.1 0-.1-.1-.2-.1l-.1-.1c-.1-.1-.1-.1-.1-.2-.1-.1-.1-.3-.2-.4-.1-.3-.2-.5-.2-.8-.1-.5-.3-1-.4-1.5-.2-1-.4-2-.6-3.1-.3-2-.6-4.1-.9-6.1-.5-4-1-7.9-1.3-11.8-.7-7.7-1.2-15-1.5-21.9-.3-6.9-.3-13.4-.1-19.5.3-6 .8-11.6 2.1-16.5s3.5-9 6.2-11.8c2.7-2.9 5.7-4.6 8.3-5.5 2.6-.9 4.7-1.2 6.1-1.3.7 0 1.2-.1 1.6 0h.5-.5c-.4 0-.9 0-1.6.1-1.4.1-3.5.4-6 1.3s-5.5 2.6-8.2 5.5c-2.7 2.9-4.8 6.9-6.1 11.8-1.3 4.9-1.7 10.4-2 16.4-.2 6-.2 12.5.1 19.4.3 6.9.8 14.2 1.6 21.9.4 3.8.8 7.8 1.4 11.7l.9 6 .6 3c.1.5.2 1 .4 1.5.1.2.1.5.2.7 0 .1.1.2.1.3 0 .1.1.1.1.1v.1l.1-.1c10.4 4.3 21.7 8 33.6 11.3 5.9 1.6 12.1 3 18.3 4.3 6.3 1.2 12.7 2.2 19.2 2.9h-.1l1.8-.3c8.1-1.5 16.1-3 23.7-4.3l-.2.3c-1-8.3-2.1-16.5-3-24.2l.3.2c-6.5.3-12.8.7-18.7 1h-.2l-.1-.2c-1.7-3.3-4.8-5.9-8.3-6.7-3.5-1-7-1.9-10.4-2.7-6.8-1.7-13.4-3.3-19.6-4.7h-.2v-.2c.4-12.2.8-23.3 1.2-33.1.5-9.8.1-18.3-1.5-25.1-.8-3.4-1.9-6.3-3.1-8.7-1.3-2.4-2.7-4.2-4.1-5.4-.7-.6-1.4-1.1-1.9-1.5-.6-.3-1.1-.7-1.5-.9-1.3.2-1.7 0-1.7 0z"/><path class="st9" d="M202.8 357.4c-.1 0 .1-5.1.5-11.4.4-6.3.9-11.3 1.1-11.3.1 0-.1 5.1-.5 11.4-.5 6.2-1 11.3-1.1 11.3zM149.8 331s0-.3.2-.8.5-1.2 1-2c1-1.6 2.8-3.7 5.2-5.4 2.4-1.7 4.7-2.9 6.5-3.7 1.7-.8 2.8-1.2 2.9-1.2 0 .1-1 .6-2.7 1.5-1.7.9-4 2.1-6.3 3.8-2.3 1.7-4.1 3.6-5.2 5.2-1.1 1.5-1.5 2.6-1.6 2.6zM178.4 365.8s-.2.1-.5.1c-.4.1-.8.1-1.4.2-1.2.2-3 .4-5.2.6-2.2.2-4.8.3-7.8.3-2.9 0-6.1-.2-9.5-.6-3.4-.4-6.5-1-9.4-1.6-2.9-.6-5.4-1.3-7.5-2-2.1-.7-3.8-1.3-4.9-1.7-.5-.2-1-.4-1.3-.5-.3-.1-.5-.2-.4-.2 0 0 .2 0 .5.1.4.1.8.3 1.4.4 1.2.4 2.9 1 5 1.6 2.1.6 4.7 1.3 7.5 1.9 2.9.6 6 1.1 9.4 1.5 3.3.4 6.5.6 9.5.6 2.9 0 5.5 0 7.7-.1s4-.3 5.2-.4c.6-.1 1-.1 1.4-.1.1-.1.3-.1.3-.1z"/><path class="st14" d="M265.9 326.8c-.7-1.1-2-.9-3.1-.1l-3.5 2.4c-1 .6-2 1-3.1 1.3l-1.5.3c-3 .5-6-.1-8.5-1.8l-.6-.4s9.7-2.2 11.2-3.5c1.5-1.3.2-3.7-1.7-3.4l-12.2 1.9c-4 .6-7.8 2.2-11.1 4.6-3.1 2.3-8.3 5.7-8.6 5.6l2.1 18.5 3.5-.9 6.3.6c4.3.4 8.5-.5 12.3-2.4 2.4-1.2 4.6-2.4 4.8-2.8.5-.9 1.5-4.6 1.5-4.6s2.4-1.5 2.5-2.5c.1-1-.2-2.9-.2-2.9s6.1-3.6 7.7-4.9c2.8-2.5 2.9-4 2.2-5z"/><path class="st15" d="M248.8 340.1c0 .1 1.9-.4 3.9-1.4 2.1-1 3.6-2.2 3.5-2.3-.1-.1-1.6.9-3.7 1.9-2 1.1-3.8 1.7-3.7 1.8zM250.1 343.7c0 .1 1 0 2.2-.6 1.1-.6 1.8-1.3 1.8-1.4-.1-.1-.9.5-2 1-1.1.6-2.1.9-2 1zM243.7 327.3s.5.5 1.5 1c1 .6 2.3 1.3 3.9 1.9 1.6.5 3.2.7 4.3.7 1.1 0 1.8-.1 1.8-.2 0-.2-2.8.2-6-.9-1.6-.5-2.9-1.2-3.9-1.7-.9-.5-1.5-.8-1.6-.8z"/><path d="M144 222.5c2.7 4.6 6.9 8 11.3 11.1 4.4 3 9.2 5.4 14 7.7 2.2 1.1 4.5 2.1 7 1.9.7-.1 1.4-.2 1.9-.7.7-.6.9-1.6 1.1-2.5.7-4.3.9-9.9.7-14.3-1.4 5-3.4 9.7-5.7 13.5 0 0-3.9-3.4-15.8-8.2-12.2-4.9-14.5-8.5-14.5-8.5z" class="st3"/><path class="st11" d="M158.6 433.8c-.1 0-.3-7.3-.4-16.2-.1-9 0-16.2.1-16.2s.3 7.3.4 16.2c.1 8.9.1 16.2-.1 16.2z"/></g><path class="st9" d="M715 464.8c0 .1-152.2.3-340 .3s-340-.1-340-.3c0-.1 152.2-.3 340-.3s340 .2 340 .3z" id="Desk"/></svg>