<svg xmlns="http://www.w3.org/2000/svg" viewBox="0 0 750 500" style="enable-background:new 0 0 750 500" xml:space="preserve"><style>.st0{opacity:.1}.st1{fill:#e0e0e0}.st2{fill:#ebebeb}.st3{fill:#fafafa}.st4{fill:#e0e0e0}.st4,.st5{opacity:.1}.st5,.st6{fill:#f5f5f5}.st7{opacity:.1;fill:#fafafa}.st8{fill:#fff}.st11{fill:#455a64}.st12{fill:#263238}.st13{fill:#797aed}.st14{opacity:.2}.st15{opacity:.3}.st16{fill:#b78876}.st17{fill:#aa6550}</style><g id="Background_Complete"><g class="st0"><path class="st1" d="M62.1 158.6h95.4v157.9H62.1z"/></g><g class="st0"><path class="st2" d="M58.9 158.6h95.4v157.9H58.9z"/></g><g class="st0"><path class="st3" d="M63 161.8h87.3v151.5H63z"/></g><g class="st0"><path class="st2" d="M79.6 181.5h53.7v112.1H79.6z"/><path class="st1" d="M79.6 254c-.1-10.5 9.3-20.7 19.7-22.2 4.9-.7 10.2.3 14.8-1.6 8.2-3.4 10.9-14.3 19.2-17.6l.4 81.1h-54V254z"/></g><g class="st0"><path class="st2" d="m187.2 64.1 10.7 33.8h-7.7l-3.4-11.6z"/></g><g class="st0"><path class="st1" d="M49.2 97.9h159.6v9.5H49.2z"/></g><g class="st0"><path class="st1" d="M71.5 105.4h7.7V120h-7.7z"/></g><g class="st0"><path class="st1" d="M171.1 105.4h7.7V120h-7.7z"/></g><g class="st0"><path class="st2" d="M54.6 53.7s-7.2 5.5-.3 12.7c.1.1.3.2.5.2l62.6-.4s5.3-6 .9-12.9l-63.7.4z"/></g><path class="st4" d="M103.5 59.4c0 .1-7.8.1-17.4.1-9.6 0-17.4-.1-17.4-.1 0-.1 7.8-.1 17.4-.1 9.6 0 17.4 0 17.4.1zM93.8 61.7c0 .1-3.7.1-8.2.1-4.5 0-8.2-.1-8.2-.1 0-.1 3.7-.1 8.2-.1 4.5-.1 8.2 0 8.2.1zM109.9 66s.1-.7.3-1.9c.2-1.2.4-2.8.4-4.6 0-1.8-.2-3.4-.4-4.6-.2-1.2-.4-1.9-.4-1.9s.1.2.2.5.2.8.4 1.4c.3 1.2.5 2.8.5 4.6 0 1.8-.2 3.4-.4 4.6-.1.6-.2 1-.3 1.4-.2.3-.3.5-.3.5zM114.6 53.2s.1.2.3.5c.1.1.2.3.3.6.1.2.2.5.3.8.2.6.4 1.3.6 2.1.2.8.3 1.7.3 2.6 0 .9-.1 1.8-.2 2.6-.2.8-.3 1.5-.6 2.1-.1.3-.2.5-.3.8l-.3.6c-.2.3-.3.5-.3.5s.3-.7.7-1.9c.2-.6.4-1.3.5-2.1.1-.8.2-1.7.2-2.6 0-.9-.1-1.8-.2-2.6-.2-.8-.3-1.5-.5-2.1-.5-1.2-.8-1.9-.8-1.9zM64.5 66.1s-.1-.1-.3-.4c-.1-.1-.2-.3-.3-.5-.1-.2-.2-.4-.3-.7-.2-.5-.4-1.2-.6-2-.2-.8-.2-1.6-.2-2.5 0-.9.1-1.8.3-2.5.2-.8.4-1.4.7-2 .1-.3.2-.5.4-.7.1-.2.2-.4.3-.5.2-.3.3-.4.3-.4s-.4.6-.8 1.7c-.2.5-.4 1.2-.6 1.9-.3.7-.4 1.5-.4 2.4 0 .9.1 1.7.2 2.5.2.7.3 1.4.5 2 .5 1 .8 1.6.8 1.7zM57.7 67.6s-.1-.2-.3-.5l-.3-.6c-.1-.2-.3-.5-.4-.8-.3-.6-.5-1.4-.7-2.2-.2-.9-.3-1.8-.4-2.8 0-1 .1-2 .2-2.8.2-.9.4-1.6.6-2.2.1-.3.2-.6.3-.8l.3-.6c.2-.3.3-.5.3-.5s-.4.7-.8 2c-.2.6-.4 1.4-.6 2.2-.1.9-.2 1.8-.2 2.8 0 1 .2 1.9.3 2.8.2.8.4 1.6.7 2.2.7 1.1 1.1 1.8 1 1.8z"/><g class="st0"><path class="st2" d="M115.1 85.2v12H91.9v-12h23.2z"/></g><g class="st0"><path class="st1" d="M40.2 91.3v.3c.2 3.6 3.3 6.4 6.9 6.4h69v-.9H99.8c-3.3 0-6-2.7-6-6s2.7-6 6-6h16.4V84l-69 .2c-4 0-7.1 3.2-7 7.1z"/></g><path class="st4" d="M115.1 91.4c0 .1-4.8.1-10.6.1-5.9 0-10.6-.1-10.6-.1 0-.1 4.8-.1 10.6-.1s10.6 0 10.6.1zM114.7 94.1c0 .1-4.5.1-10.1.1s-10.1-.1-10.1-.1c0-.1 4.5-.1 10.1-.1s10.1 0 10.1.1zM115.1 96.6c0 .1-4.1.1-9.1.1s-9.1-.1-9.1-.1c0-.1 4.1-.1 9.1-.1 5-.1 9.1 0 9.1.1zM115.1 89c0 .1-4.7.1-10.4.1-5.8 0-10.4-.1-10.4-.1s4.7-.1 10.4-.1c5.7-.1 10.4 0 10.4.1zM114.7 86.5c0 .1-4.2.1-9.3.1-5.1 0-9.3-.1-9.3-.1s4.2-.1 9.3-.1c5.2 0 9.3.1 9.3.1z"/><path class="st5" d="M48.6 84.4s-.7.6-1.5 1.7-1.6 3-1.6 5.2c0 2.1.9 4 1.7 5.1.8 1.1 1.5 1.7 1.5 1.7s-.2-.1-.5-.4L47 96.5c-.9-1.1-1.8-3-1.8-5.2s.8-4.1 1.7-5.3c.4-.6.8-1 1.1-1.3l.6-.3z"/><path class="st5" d="M46.3 84.2s-.7.6-1.5 1.7-1.6 3-1.6 5.2c0 2.1.9 4 1.7 5.1.8 1.1 1.5 1.7 1.5 1.7s-.2-.1-.5-.4l-1.2-1.2c-.9-1.1-1.8-3-1.8-5.2s.8-4.1 1.7-5.3c.4-.6.8-1 1.1-1.3.4-.2.5-.4.6-.3zM93.1 84.4s-.7.6-1.5 1.7-1.6 3-1.6 5.2c0 2.1.9 4 1.7 5.1.8 1.1 1.5 1.7 1.5 1.7s-.2-.1-.5-.4l-1.2-1.2c-.9-1.1-1.8-3-1.8-5.2s.8-4.1 1.7-5.3c.4-.6.8-1 1.1-1.3.5-.2.6-.3.6-.3z"/><path class="st5" d="M90.8 84.2s-.7.6-1.5 1.7-1.6 3-1.6 5.2c0 2.1.9 4 1.7 5.1.8 1.1 1.5 1.7 1.5 1.7s-.2-.1-.5-.4l-1.2-1.2c-.9-1.1-1.8-3-1.8-5.2s.8-4.1 1.7-5.3c.4-.6.8-1 1.1-1.3.4-.2.6-.4.6-.3z"/><g class="st0"><path class="st6" d="M56.4 93c0-1.6 0-3.2-.1-4.9 0-.4 0-.9-.2-1.3s-.5-.7-.9-.8c-.6-.3-1.6.2-2 .9-.4.7-.5 1.6-.5 2.4 0 1.3.1 2.6.2 3.8.1.6.1 1.2.5 1.8.3.5.9.9 1.5.9.6-.1 1.1-.6 1.3-1.1.3-.4.3-1.1.2-1.7z"/></g><path class="st5" d="M83.2 91.6c0 .1-5 .1-11.1.1-6.2 0-11.1-.1-11.1-.1s5-.1 11.1-.1c6.2 0 11.1.1 11.1.1z"/><g class="st0"><path class="st6" d="m51.8 83.9-.1-11.3h6.2l.2 11.3z"/></g><path class="st4" d="M57.5 74.6c0 .1-1.3.1-2.9.1-1.6 0-2.9-.1-2.9-.1s1.3-.1 2.9-.1c1.6 0 2.9 0 2.9.1zM57.5 76.3c0 .1-1.3.1-2.9.1-1.6 0-2.9-.1-2.9-.1s1.3-.1 2.9-.1c1.6 0 2.9.1 2.9.1zM57.5 78.1c0 .1-1.3.1-2.9.1-1.6 0-2.9-.1-2.9-.1 0-.1 1.3-.1 2.9-.1 1.6 0 2.9 0 2.9.1zM57.5 79.9c0 .1-1.3.1-2.9.1-1.6 0-2.9-.1-2.9-.1 0-.1 1.3-.1 2.9-.1 1.6-.1 2.9 0 2.9.1zM57.5 81.6c0 .1-1.3.1-2.9.1-1.6 0-2.9-.1-2.9-.1 0-.1 1.3-.1 2.9-.1 1.6 0 2.9 0 2.9.1z"/><g class="st0"><path class="st2" d="M51.4 72.3h68.5c.8 3.8.7 7.9 0 12.3H51.7v-.8h4.2c1.1 0 2-.9 2-2V75c0-1.1-.9-2-2-2h-4.5v-.7z"/></g><g class="st0"><path class="st3" d="M67.6 78.4H68.8c.1 0 .1.1.1.2v.1c0 .1 0 .2-.1.3-.2.5-.4 1-.7 1.3-.3.3-.6.5-1 .5H67c-.3 0-.6-.2-.8-.6-.2-.4-.3-.8-.3-1.4 0-.3 0-.7.1-1 .1-.5.4-1 .7-1.3.3-.4.7-.5 1-.5.2 0 .3 0 .4.1.3.1.5.4.7.8v.2c0 .1-.1.1-.2.1h-.1c-.1 0-.1-.1-.2-.2 0-.1-.1-.2-.1-.3-.1-.2-.3-.3-.5-.3-.1 0-.3 0-.4.1-.2.2-.4.5-.6.9-.2.4-.3.9-.3 1.3s.1.7.2 1c.1.3.3.4.6.4.2 0 .4-.1.6-.3.2-.3.4-.6.6-1.1h-.8c-.2 0-.3-.1-.3-.3v-.1c0 .2.1.1.3.1z"/></g><g class="st0"><path class="st3" d="M71.4 76.2c.1 0 .1 0 0 0 .1.3.3 1.7.8 4.3v.2c0 .1-.1.1-.2.1s-.2-.1-.2-.2l-.3-1.4h-1.4l-.7 1.4c-.1.1-.1.1-.2.1h-.1c-.1 0-.1 0-.1-.1v-.1c0-.1.1-.3.2-.5 1-2.1 1.6-3.4 1.8-3.8.1-.1.1-.2.2-.2.1.1.2.1.2.2zm-.3.9-.8 1.6h1.1l-.3-1.6z"/></g><path class="st7" d="M75.3 80.8h-2.2c-.1 0-.1-.1-.1-.3 0-.1.2-1.5.6-4.2v-.1c0-.1.1-.2.2-.2h.1c.1 0 .1.1.1.2 0 .2-.1.6-.1 1.2-.2 1.8-.4 2.8-.4 2.9H75.4c.1 0 .2.1.2.2v.1c-.1.1-.2.2-.3.2z"/><g class="st0"><path class="st3" d="M78.1 76.2c.1.3.3 1.7.8 4.3v.2c0 .1-.1.1-.2.1s-.2-.1-.2-.2l-.3-1.4h-1.4l-.7 1.4c-.1.1-.1.1-.2.1h-.1c-.1-.1-.1-.1-.1-.2v-.1c0-.1.1-.3.2-.5 1-2.1 1.6-3.4 1.8-3.8.1-.1.1-.2.2-.2.1.2.1.2.2.3zm-.3.9-.8 1.6h1.1l-.3-1.6z"/></g><path class="st7" d="M81.4 78.6c.2.4.3.8.4 1l.3.9v.1c0 .1-.1.1-.2.1s-.2-.1-.2-.2v-.1c-.1-.3-.3-.7-.6-1.5l-1.2 1.6c-.1.1-.1.1-.2.1h-.1c-.1 0-.1-.1-.1-.2v-.1s0-.1.1-.2c.4-.5.8-1.1 1.3-1.8 0-.1-.1-.3-.1-.4-.6-.9-.8-1.5-.8-1.6v-.1c0-.1.1-.1.2-.1s.2 0 .2.1l.7 1.9 1.4-1.9c.1-.1.1-.1.2-.1h.1c.1 0 .1.1.1.2v.1l-1.5 2.2zM86.5 76.1h.1c.1 0 .1.1.1.2-.3 2.7-.5 4.1-.6 4.3-.1.5-.2.8-.4 1.1-.3.4-.8.7-1.4.7-.2 0-.4-.1-.7-.2-.4-.2-.6-.4-.7-.6v-.2c0-.1.1-.1.2-.1s.1 0 .2.1c.3.4.7.6 1.1.6.3 0 .6-.1.8-.4.3-.3.4-.7.5-1.3l-.3.3c-.2.2-.5.2-.7.2h-.1c-.3 0-.6-.2-.8-.6-.2-.4-.3-.8-.3-1.4V78c0-.4.1-1 .3-1.8v-.1c0-.1.1-.2.2-.2h.1c.1 0 .1.1.1.2s0 .4-.1.9c-.1.7-.2 1.2-.2 1.4 0 .5.1.8.2 1.1.1.3.3.5.6.5h.1c.2 0 .4-.2.6-.5.2-.3.4-.7.5-1.1l.3-2.4v-.1c.1.2.2.2.3.2z"/><g class="st0"><path class="st6" d="M117.3 84.7c-.1 0-.1-2.8-.1-6.3s.1-6.3.1-6.3c.1 0 .1 2.8.1 6.3s-.1 6.3-.1 6.3z"/></g><path class="st4" d="M61.2 84.7c-.1 0-.1-2.8-.1-6.3s.1-6.3.1-6.3c.1 0 .1 2.8.1 6.3.1 3.5 0 6.3-.1 6.3z"/><path class="st5" d="M118.5 84.7c-.1 0-.1-2.8-.1-6.3s.1-6.3.1-6.3c.1 0 .1 2.8.1 6.3s-.1 6.3-.1 6.3z"/><path class="st4" d="M60.1 84.7c-.1 0-.1-2.8-.1-6.3s.1-6.3.1-6.3c.1 0 .1 2.8.1 6.3s0 6.3-.1 6.3zM100.7 74.2c1.9 1.5 4.4 3.5 7.2 5.8l.1.1h-.1c-.3.1-.6.2-1 .3-2.2.6-4.3 1.1-6.1 1.6-2.3-1-4.2-1.8-5.5-2.3-.7-.3-1.2-.5-1.6-.7-.2-.1-.3-.1-.4-.2h-.1.1c.1 0 .2.1.4.2.4.2.9.4 1.6.7 1.4.6 3.3 1.4 5.6 2.3 1.8-.5 3.9-1 6.1-1.6.3-.1.7-.2 1-.3v.1c-3-2.4-5.5-4.5-7.3-6"/><path class="st4" d="m107.2 79.1.4.4.6-.1-.3.4.3.5-.5-.1-.4.4-.1-.5-.5-.2.5-.3zM100.3 81.4l.3.2.3-.1-.1.4.2.2h-.4l-.2.3-.1-.3-.3-.2.3-.1z"/><g class="st0"><path class="st1" d="M92.6 78.3h.5l.2-.4.1.5.4.1-.3.2v.5l-.4-.3-.4.1.2-.4z"/></g><g class="st0"><path class="st1" d="M110.5 74.3h.4l.3-.3.1.4.4.1-.4.3v.4l-.3-.3-.4.1.1-.4z"/></g><g class="st0"><path class="st1" d="M100.3 74h.3l.2-.2v.3l.3.1-.2.1-.1.3-.2-.2-.2.1.1-.3z"/></g><path class="st4" d="M111.1 74.6s-2.3 0-5.2-.2c-2.9-.1-5.2-.2-5.2-.3 0 0 2.3 0 5.2.2 2.9.1 5.2.3 5.2.3z"/><g class="st0"><path class="st1" d="M113.7 72.2H44.3c-.9-2.1-1.1-4 0-5.8h69.5c.8 2.1.8 4-.1 5.8z"/></g><g class="st0"><path class="st2" d="M58.6 68h37.6v2.1H58.6z"/></g><path class="st1" d="M46.9 72.2s-.3-.2-.5-.7c-.3-.5-.6-1.2-.6-2.1-.1-.8.1-1.6.3-2.1.2-.5.4-.8.4-.8s-.1.3-.2.8-.3 1.2-.2 2.1c.1.8.3 1.5.5 2s.4.8.3.8zM48.4 72.2s-.3-.2-.5-.7c-.3-.5-.6-1.2-.6-2.1-.1-.8.1-1.6.3-2.1.2-.5.4-.8.4-.8s-.1.3-.2.8-.3 1.2-.2 2.1c.1.8.3 1.5.5 2s.4.8.3.8z"/><path class="st5" d="M110.9 72.1c-.1 0 .5-1.2.5-2.8 0-1.6-.5-2.8-.5-2.8s.7 1.2.7 2.8c.1 1.6-.6 2.8-.7 2.8zM109.6 72.1c-.1 0 .2-1.2.2-2.8 0-1.5-.3-2.8-.2-2.8.1 0 .5 1.2.5 2.8 0 1.6-.4 2.8-.5 2.8z"/><g class="st0"><path class="st1" d="M139.6 36.3h47.6v62.2h-47.3z"/></g><g class="st0"><path transform="rotate(-180 159.79 67.436)" class="st8" d="M136.1 36.7h47.4v61.6h-47.4z"/></g><path class="st4" d="M183.7 36.4v62h-47.9v-62h47.9zm-.5 61.6V36.9h-46.9V98h46.9z"/><path class="st4" d="M141 43.3v13.4c0 8.5 0 20.5.1 34.8l-.1-.1h36.3l-.1.1V43.3l.1.1c-11 0-20 0-26.3-.1h-10 9.8c6.3 0 15.4 0 26.4-.1h.1V91.6h-36.5v-.1c0-14.3 0-26.4.1-34.9V43.4c.1 0 .1-.1.1-.1zM136 98.2s.2-.4.6-1c.4-.6 1-1.5 1.7-2.4.7-.9 1.3-1.7 1.8-2.3.5-.6.8-.9.8-.9s-.2.4-.7 1c-.5.7-1.1 1.5-1.8 2.4-.7.9-1.3 1.7-1.8 2.4-.3.5-.6.8-.6.8z"/><path class="st4" d="M136.1 36.7c.1 0 1.2 1.4 2.5 3.3 1.3 1.8 2.4 3.4 2.3 3.4-.1 0-1.2-1.4-2.5-3.3s-2.4-3.4-2.3-3.4z"/><path class="st8" d="m183.5 36.7-6.3 6.9"/><path class="st4" d="M177.2 43.6c-.1 0 1.3-1.6 3-3.5s3.2-3.4 3.2-3.4-1.3 1.6-3 3.5-3.1 3.4-3.2 3.4zM183.5 98.2c-.1 0-1.4-1.4-3.1-3.2-1.6-1.8-2.9-3.3-2.9-3.4.1 0 1.4 1.4 3.1 3.2 1.6 1.9 2.9 3.4 2.9 3.4z"/><g class="st0"><path class="st1" d="M142.7 91.6s3.9-12.1 6.2-13.4c2.5-1.4 6.2-2.7 10.2-2.8 5.4 0 7.9.3 11.1 2.5 3.6 2.5 6.1 13.5 6.1 13.5"/></g><g class="st0"><path class="st1" d="M153.5 55.5c-3.3.1-4.2 4.6-3.9 7.2.1 1.2.5 2.5-.1 3.6-.4.7-1.3 1.2-1.6 2-.4 1 0 2 .3 3s.5 2.3-.3 2.9c1.9.5 3.8 1 5.8 1.1 2 .1 4-.2 5.6-1.3"/></g><path class="st4" d="M151.1 64.5c-2.2-5 .8-8.1 2.7-9.2 1.2-.7 2.5-.8 3.9-.8 1.3 0 2.6 0 3.9.3 1.3.3 2.5.9 3.4 1.9 1.6 1.7 2 4.2 1.8 6.6-.2 2.7-.9 5.5-2.3 7.9-.2.3-.4.6-.7.8-.3.2-.8.1-.9-.2"/><g class="st0"><path class="st6" d="M158.6 81.8c2.3.2 4.2-1.8 4.5-5.3l1.2-17.7-.1 1.2c0-.7-.5-1.4-1.3-1.4l-7-.7c-2.4-.2-4.6 1.6-4.7 4-.2 2.7-.3 6 .1 8 .7 4 3.8 4.6 3.8 4.6l-.2 2.9c-.3 2.2 1.4 4.2 3.7 4.4z"/></g><g class="st0"><path class="st1" d="M152.5 64.1c0 .3.2.5.5.5s.5-.2.5-.5-.2-.5-.5-.5c-.2 0-.5.2-.5.5zM151.9 63.5c.1.1.5-.2 1-.2.6 0 1 .3 1 .2 0 0 0-.2-.2-.3-.2-.1-.5-.3-.8-.3-.3 0-.6.1-.8.3-.2.2-.2.3-.2.3z"/></g><g class="st0"><path class="st1" d="M157.9 64.1c0 .3.2.5.5.5s.5-.2.5-.5-.2-.5-.5-.5-.5.2-.5.5z"/><path class="st1" d="M157.4 63.6c.1.1.5-.2 1-.2.6 0 1 .3 1 .2 0 0 0-.2-.2-.3-.2-.1-.5-.3-.8-.3-.3 0-.6.1-.8.3-.2.2-.3.3-.2.3z"/></g><path class="st4" d="M155.4 67.8s-.3-.1-.9-.2c-.1 0-.3 0-.3-.1s0-.3.1-.4c.1-.3.3-.7.4-1.1.6-1.5 1-2.8.9-2.8-.1 0-.6 1.2-1.2 2.8-.1.4-.3.7-.4 1.1-.1.2-.1.3-.1.6 0 .1.1.2.2.2h.2c.7-.1 1.1-.1 1.1-.1z"/><g class="st0"><path class="st2" d="M155 74.4s2.7.2 5.4-1.5c0 0-1.4 2.8-5.5 2.4l.1-.9z"/></g><g class="st0"><path class="st1" d="M155.6 69.1c.2-.3.6-.4.9-.4.2 0 .5.1.6.3.1.2.2.5 0 .7-.2.2-.5.3-.7.2-.3-.1-.5-.3-.7-.4-.1 0-.1-.1-.2-.2 0 0 0-.1.1-.2"/></g><g class="st0"><path class="st1" d="M157 68.2c-.1 0-.1.6-.6 1s-1.2.4-1.2.5c0 0 .1.1.4.1.3 0 .7-.1 1-.3.3-.3.5-.6.5-.9 0-.3 0-.4-.1-.4z"/></g><path class="st4" d="M157.1 62.7c.1.2.6.1 1.3.2.7.1 1.2.3 1.3.1 0-.1-.1-.2-.3-.4-.2-.1-.6-.3-.9-.3-.4 0-.8 0-1 .1-.3.1-.4.2-.4.3z"/><g class="st0"><path class="st1" d="M152.1 61.9c.1.1.5 0 .9 0 .5 0 .9.1.9-.1 0-.1 0-.2-.2-.3-.2-.1-.5-.2-.8-.2-.3 0-.6.1-.8.3 0 .1-.1.3 0 .3z"/></g><g class="st0"><path class="st1" d="M154.3 55c3.9-2.2 8.1-.7 11.3 2.5.7.7 1.3 1.5 2.2 1.9 1 .4 2.3.4 2.9 1.3.7 1-.2 2.5.3 3.7.5 1.1 1.9 1.4 2.5 2.4.4.8.2 1.8 0 2.7-.2.9-.3 1.9.4 2.6l-8.4 3.2c-.4.1-.8.2-1.2.1-1.2-.2-1.3-1.3-1.2-2.3.1-.7.2-1.4-.1-2-.3-.7-1.2-1.1-1.5-1.9-.5-1.3 1-2.7.8-4.2-.1-.9-.9-1.6-1.7-2-.8-.4-1.7-.5-2.6-.8-2-.6-3.6-2.5-4.5-4.5-.5-1-.1-2.1.8-2.7z"/></g><path class="st4" d="M694.7 172.9h35.4l-16.8-65.7-43.3-.2-14.7 65.9h28.3c0 2.6 0 5.5-.1 8.6 0 10 .1 18.1.3 18.1.1.1.3.3.3.7 0 .2 0 .5-.2.7-.2.2-.5.3-.8.1-.3-.1-.5-.4-.5-.6 0-.3.1-.5.3-.7.4-.3.7-.3.8-.4.1-.1-.4-.4-1 0-.3.2-.6.5-.6 1s.4 1.1.9 1.2c.5.2 1.2.1 1.5-.4.3-.4.3-.9.2-1.2-.2-.5-.5-.7-.7-.7.2-1.1.3-8.7.3-17.9v-8.6h6.6v282.9l-32.8 2.5h69.6l-32.8-2.5V172.9z"/><g class="st0"><path class="st1" d="M465.5 38.5h75v78.2h-75z"/></g><g class="st0"><path class="st2" d="M460.4 38.5h75v78.2h-75z"/></g><path class="st4" d="M470.5 106.6s-.5.6-1.4 1.6c-.9.9-2.1 2.2-3.5 3.5-1.4 1.4-2.6 2.6-3.6 3.4-.9.9-1.5 1.4-1.6 1.3s.5-.6 1.4-1.5c.9-.9 2.1-2.2 3.5-3.5 1.4-1.4 2.7-2.6 3.6-3.4 1-1 1.6-1.5 1.6-1.4zM525.4 106.4s.6.5 1.6 1.4c.9.9 2.2 2.1 3.5 3.5 1.4 1.4 2.6 2.6 3.4 3.6.9.9 1.4 1.5 1.3 1.6 0 0-.6-.5-1.5-1.4-.9-.9-2.2-2.1-3.5-3.5-1.4-1.4-2.6-2.7-3.4-3.6-1-1-1.5-1.5-1.4-1.6zM525.2 49.1s.5-.6 1.4-1.6c.9-.9 2.1-2.2 3.5-3.5 1.4-1.4 2.6-2.6 3.6-3.4.9-.9 1.5-1.4 1.6-1.3 0 0-.5.6-1.4 1.5-.9.9-2.1 2.2-3.5 3.5-1.4 1.4-2.7 2.6-3.6 3.4-1 1-1.5 1.5-1.6 1.4zM470.4 49.3s-.6-.5-1.6-1.4c-.9-.9-2.2-2.1-3.5-3.5-1.4-1.4-2.6-2.6-3.4-3.6-.9-.9-1.4-1.5-1.3-1.6 0 0 .6.5 1.5 1.4.9.9 2.2 2.1 3.5 3.5 1.4 1.4 2.6 2.7 3.4 3.6.9 1 1.4 1.5 1.4 1.6z"/><path class="st4" d="M525.2 106.2V90.3c0-10-.1-24.3-.1-41.4l.2.2h-54.7l.2-.2v57.2l-.2-.2c16.4 0 30.1.1 39.6.1H525c.1.2.2.2.2.2H510.3c-9.6 0-23.3.1-39.7.1h-.2V48.7H525.5v.2c0 17.1-.1 31.5-.1 41.5v15.4c-.2.3-.2.4-.2.4z"/><g class="st0"><path class="st2" d="M485 72.9s-1.2 14.2 14.2 14.2c-.1-7.6-6.3-13.6-14.2-14.2z"/><path class="st2" d="M513 72.9s-14.2-1.2-14.2 14.2c7.6 0 13.6-6.3 14.2-14.2z"/><path class="st1" d="M498.5 65.1s-11.6 10.4.6 21.9c5.7-6 5.2-15.4-.6-21.9z"/></g><g class="st0"><path class="st1" d="M359.5 88h75v78.2h-75z"/></g><g class="st0"><path class="st2" d="M354.4 88h75v78.2h-75z"/></g><g class="st0"><path class="st3" d="M364.5 98.5h54.9v57.2h-54.9z"/></g><path class="st1" d="M364.5 156.1s-.5.6-1.4 1.6c-.9.9-2.1 2.2-3.5 3.5-1.4 1.4-2.6 2.6-3.6 3.4-.9.9-1.5 1.4-1.6 1.3 0 0 .5-.6 1.4-1.5.9-.9 2.1-2.2 3.5-3.5 1.4-1.4 2.7-2.6 3.6-3.4 1-.9 1.6-1.5 1.6-1.4zM419.4 155.9s.6.5 1.6 1.4c.9.9 2.2 2.1 3.5 3.5 1.4 1.4 2.6 2.6 3.4 3.6.9.9 1.4 1.5 1.3 1.6 0 0-.6-.5-1.5-1.4s-2.2-2.1-3.5-3.5c-1.4-1.4-2.6-2.7-3.4-3.6-1-.9-1.5-1.5-1.4-1.6z"/><path class="st4" d="M419.2 98.7s.5-.6 1.4-1.6c.9-.9 2.1-2.2 3.5-3.5 1.4-1.4 2.6-2.6 3.6-3.4.9-.9 1.5-1.4 1.6-1.3 0 0-.5.6-1.4 1.5-.9.9-2.1 2.2-3.5 3.5-1.4 1.4-2.7 2.6-3.6 3.4-1 .9-1.6 1.4-1.6 1.4zM364.3 98.8s-.6-.5-1.6-1.4c-.9-.9-2.2-2.1-3.5-3.5-1.4-1.4-2.6-2.6-3.4-3.6-.9-.9-1.4-1.5-1.3-1.6 0 0 .6.5 1.5 1.4.9.9 2.2 2.1 3.5 3.5 1.4 1.4 2.6 2.7 3.4 3.6s1.5 1.6 1.4 1.6z"/><path class="st4" d="M419.2 155.7V139.8c0-10-.1-24.3-.1-41.4l.2.2h-54.7l.2-.2v57.2l-.2-.2c16.4 0 30.1.1 39.6.1H419c.1.2.2.2.2.2H404.3c-9.6 0-23.3.1-39.7.1h-.2V98.2H419.5v.2c0 17.1-.1 31.5-.1 41.5v15.4c-.2.3-.2.4-.2.4z"/><path class="st2" d="M379 122.4s-1.2 14.2 14.2 14.2c-.1-7.6-6.3-13.6-14.2-14.2z"/><path class="st2" d="M407 122.4s-14.2-1.2-14.2 14.2c7.6 0 13.6-6.3 14.2-14.2z"/><g class="st0"><path class="st1" d="M392.5 114.7s-11.6 10.4.6 21.9c5.7-6 5.2-15.5-.6-21.9z"/></g></g><g id="Device"><path class="st11" d="M625.2 451H150.4c-8 0-14.6-6.5-14.6-14.6v-304c0-8 6.5-14.6 14.6-14.6h474.8c8 0 14.6 6.5 14.6 14.6v304.1c-.1 8-6.6 14.5-14.6 14.5z"/><path class="st11" d="M644.3 458.7H133.9c-9.8 0-17.8-8-17.8-17.8v-11.4h546v11.4c0 9.8-8 17.8-17.8 17.8z"/><path class="st12" d="M149.4 131h475.5v281.4H149.4zM338.1 426.4l6.8 10.8h95.3l6.3-10.8z"/><path class="st2" d="M612.7 411.5H162.4c-1.8 0-3.3-1.5-3.3-3.3V143.8c0-1.8 1.5-3.3 3.3-3.3h450.3c1.8 0 3.3 1.5 3.3 3.3v264.4c0 1.9-1.5 3.3-3.3 3.3z"/><path class="st12" d="M196.6 151c0 2-1.6 3.6-3.6 3.6s-3.6-1.6-3.6-3.6 1.6-3.6 3.6-3.6 3.6 1.6 3.6 3.6zM174.5 151c0 2-1.6 3.6-3.6 3.6s-3.6-1.6-3.6-3.6 1.6-3.6 3.6-3.6 3.6 1.6 3.6 3.6zM185.1 151c0 2-1.6 3.6-3.6 3.6s-3.6-1.6-3.6-3.6 1.6-3.6 3.6-3.6 3.6 1.6 3.6 3.6zM635.4 426.4c0 .2-111.8.3-249.8.3s-249.8-.1-249.8-.3c0-.2 111.8-.3 249.8-.3s249.8.1 249.8.3z"/><path class="st6" d="M344.3 187.7h246.8v70.7H344.3z"/><path class="st3" d="M615.5 411.5H158.7l.5-252h456.3z"/><path class="st2" d="M344.3 187.2h246.8v70.7H344.3zM344.3 374h246.8v37.5H344.3z"/><path transform="matrix(.00557 -1 1 .00557 164.83 612.082)" class="st13" d="M361.3 184.8h57.6v76.7h-57.6z"/><path class="st13" d="m351.7 251.8 26.9-35.7 16.5 22.5 11.3-11.9 22 25.5zM402.3 211.8c0 3.3-2.7 6-6.1 6-3.3 0-6-2.7-6-6.1 0-3.3 2.7-6 6.1-6 3.3.1 6 2.8 6 6.1z"/><path d="m351.7 251.8 26.9-35.7 16.5 22.5 11.3-11.9 22 25.5zM402.3 211.8c0 3.3-2.7 6-6.1 6-3.3 0-6-2.7-6-6.1 0-3.3 2.7-6 6.1-6 3.3.1 6 2.8 6 6.1z" class="st14"/><path class="st13" d="M187.6 411.5h-28.9l.5-252h28.4z"/><path class="st8" d="m165.3 174.5 8.4 3.7 7.2-3.7-7.8-4.1z"/><path class="st8" d="m167.5 177.8-2.2 1.2 7.8 3.9 7.8-3.7-2.5-1.4-5.3 2.5z"/><path class="st8" d="m167.5 182.5-2.2 1.3 7.8 3.8 7.8-3.7-2.5-1.4-5.3 2.6z"/><path class="st12" d="M267.3 197.8v4.9h-.9l-2.5-3v3h-1.1v-4.9h.9l2.4 3v-3h1.2zM268.3 197.8c0-.3.3-.6.7-.6s.7.3.7.6c0 .4-.3.6-.7.6s-.7-.2-.7-.6zm.1 1.2h1.1v3.8h-1.1V199zM270.2 200.9c0-1.1.9-1.9 2.1-1.9.8 0 1.4.3 1.7 1l-.9.5c-.2-.4-.5-.5-.9-.5-.6 0-1 .4-1 1 0 .7.4 1 1 1 .3 0 .6-.2.9-.5l.9.5c-.3.6-.9 1-1.7 1-1.2-.2-2.1-1-2.1-2.1zM276.3 201.3l-.5.5v1h-1.1v-5.2h1.1v3l1.6-1.5h1.3l-1.6 1.6 1.7 2.2h-1.3l-1.2-1.6zM283.1 200.6v2.2H282v-2c0-.6-.3-.9-.8-.9s-.9.3-.9 1v1.9h-1.1V199h1v.4c.3-.3.7-.5 1.3-.5 1 0 1.6.5 1.6 1.7zM287.5 200.6v2.2h-1v-.5c-.2.3-.6.5-1.2.5-.9 0-1.4-.5-1.4-1.1 0-.7.5-1.1 1.6-1.1h.9c0-.5-.3-.7-.9-.7-.4 0-.8.1-1.1.4l-.4-.8c.4-.3 1-.5 1.6-.5 1.2-.1 1.9.5 1.9 1.6zm-1.1 1v-.4h-.8c-.5 0-.7.2-.7.4 0 .3.2.5.6.5.4 0 .7-.2.9-.5zM294.8 200.6v2.2h-1.1v-2c0-.6-.3-.9-.7-.9-.5 0-.8.3-.8 1v1.9h-1.1v-2c0-.6-.3-.9-.7-.9-.5 0-.8.3-.8 1v1.9h-1.1V199h1v.4c.3-.3.7-.5 1.2-.5s1 .2 1.2.6c.3-.4.8-.6 1.4-.6.9 0 1.5.5 1.5 1.7zM299.6 201.2h-2.9c.1.5.5.8 1.1.8.4 0 .7-.1.9-.4l.6.6c-.4.4-.9.6-1.6.6-1.3 0-2.2-.8-2.2-1.9 0-1.1.9-1.9 2-1.9s2 .7 2 2c.1 0 .1.1.1.2zm-2.9-.7h1.9c-.1-.5-.4-.8-.9-.8-.6 0-.9.4-1 .8zM299.7 202.8h3.5v.6h-3.5v-.6z"/><path class="st1" d="M319.8 408.1c-.1 0-.3-52.2-.3-116.6 0-64.4.1-116.6.3-116.6.1 0 .3 52.2.3 116.6 0 64.4-.1 116.6-.3 116.6z"/><path class="st13" d="M451.4 202.7c0 .9-.8 1.4-1.9 1.4-1.1 0-1.9-.5-1.9-1.4 0-.5.3-.8.7-1.1-.3-.2-.5-.5-.5-.9 0-.8.7-1.3 1.7-1.3s1.8.5 1.8 1.3c0 .4-.2.7-.5.9.3.3.6.6.6 1.1zm-1.1 0c0-.4-.3-.6-.9-.6-.5 0-.8.2-.8.6 0 .4.3.7.8.7.6-.1.9-.3.9-.7zm-1.5-1.9c0 .3.3.6.7.6.4 0 .7-.2.7-.6 0-.4-.3-.6-.7-.6-.5 0-.7.2-.7.6zM451.8 201.1c0-.4.3-.6.6-.6s.6.2.6.6c0 .4-.3.6-.6.6s-.6-.2-.6-.6zm0 2.3c0-.4.3-.6.6-.6s.6.2.6.6c0 .4-.3.6-.6.6-.3.1-.6-.2-.6-.6zM456.9 203.2v.9h-3.4v-.7l1.7-1.6c.4-.4.5-.6.5-.8 0-.4-.2-.6-.7-.6-.4 0-.7.1-.9.5l-.8-.5c.3-.5 1-.8 1.8-.8 1 0 1.7.5 1.7 1.3 0 .4-.1.8-.8 1.4l-1 1h1.9zM457.3 201.8c0-1.5.8-2.3 1.9-2.3 1.1 0 1.9.8 1.9 2.3 0 1.5-.8 2.3-1.9 2.3-1 0-1.9-.9-1.9-2.3zm2.8 0c0-1-.4-1.5-.9-1.5s-.9.4-.9 1.5c0 1 .4 1.5.9 1.5.6-.1.9-.5.9-1.5zM466.8 202v2h-.9v-.4c-.2.3-.5.5-1.1.5-.8 0-1.3-.5-1.3-1.1 0-.6.4-1 1.5-1h.8c0-.4-.3-.7-.8-.7-.4 0-.7.1-1 .3l-.4-.7c.4-.3.9-.4 1.5-.4 1.1 0 1.7.5 1.7 1.5zm-1 .9v-.4h-.7c-.5 0-.6.2-.6.4 0 .3.2.4.6.4.3.1.6-.1.7-.4zM473.6 202v2h-1v-1.8c0-.6-.3-.8-.7-.8-.5 0-.8.3-.8.9v1.7h-1v-1.8c0-.6-.2-.8-.7-.8-.4 0-.8.3-.8.9v1.7h-1v-3.5h1v.4c.3-.3.6-.5 1.1-.5.5 0 .9.2 1.1.6.3-.4.7-.6 1.3-.6.9.1 1.5.6 1.5 1.6z"/><path class="st12" d="M407.6 178.4c0 .1-13.7.3-30.5.3s-30.5-.1-30.5-.3 13.6-.3 30.5-.3c16.9.1 30.5.2 30.5.3zM407.6 271.7c0 .1-13.7.3-30.5.3s-30.5-.1-30.5-.3 13.6-.3 30.5-.3 30.5.2 30.5.3zM570.1 216.1c0 .1-28 .3-62.6.3s-62.6-.1-62.6-.3c0-.1 28-.3 62.6-.3s62.6.1 62.6.3zM572.3 226.8c0 .1-28.2.3-63 .3s-63-.1-63-.3c0-.1 28.2-.3 63-.3 34.8.1 63 .2 63 .3zM515.3 237.6c0 .1-15.6.3-34.8.3-19.2 0-34.8-.1-34.8-.3s15.6-.3 34.8-.3c19.2 0 34.8.1 34.8.3z"/><path class="st2" d="M344.3 290.7h246.8v70.7H344.3z"/><path transform="matrix(.00557 -1 1 .00557 61.803 714.535)" class="st13" d="M361.3 287.8h57.6v76.7h-57.6z"/><path class="st13" d="m351.7 354.8 26.9-35.7 16.5 22.5 11.3-11.9 22 25.5zM402.3 314.9c0 3.3-2.7 6-6.1 6-3.3 0-6-2.7-6-6.1 0-3.3 2.7-6 6.1-6 3.3 0 6 2.7 6 6.1z"/><path d="m351.7 354.8 26.9-35.7 16.5 22.5 11.3-11.9 22 25.5zM402.3 314.9c0 3.3-2.7 6-6.1 6-3.3 0-6-2.7-6-6.1 0-3.3 2.7-6 6.1-6 3.3 0 6 2.7 6 6.1z" class="st14"/><path class="st13" d="M449.3 302.5v4.5h-1v-3.7h-.9v-.8h1.9zM450.1 304.8c0-1.5.8-2.3 1.9-2.3 1.1 0 1.9.8 1.9 2.3 0 1.5-.8 2.3-1.9 2.3-1.1 0-1.9-.8-1.9-2.3zm2.8 0c0-1-.4-1.5-.9-1.5s-.9.4-.9 1.5c0 1 .4 1.5.9 1.5.6-.1.9-.5.9-1.5zM454.5 304.1c0-.4.3-.6.6-.6s.6.2.6.6c0 .4-.3.6-.6.6-.4.1-.6-.2-.6-.6zm0 2.4c0-.4.3-.6.6-.6s.6.2.6.6c0 .4-.3.6-.6.6-.4 0-.6-.3-.6-.6zM459.6 306.2v.9h-3.4v-.7l1.7-1.6c.4-.4.5-.6.5-.8 0-.4-.2-.6-.7-.6-.4 0-.7.1-.9.5l-.8-.5c.3-.5 1-.8 1.8-.8 1 0 1.7.5 1.7 1.3 0 .4-.1.8-.8 1.4l-1 1h1.9zM460 304.8c0-1.5.8-2.3 1.9-2.3 1.1 0 1.9.8 1.9 2.3 0 1.5-.8 2.3-1.9 2.3-1.1 0-1.9-.8-1.9-2.3zm2.8 0c0-1-.4-1.5-.9-1.5s-.9.4-.9 1.5c0 1 .4 1.5.9 1.5.5-.1.9-.5.9-1.5zM469.5 305.1v2h-.9v-.4c-.2.3-.5.5-1.1.5-.8 0-1.3-.5-1.3-1.1 0-.6.4-1 1.5-1h.8c0-.4-.3-.7-.8-.7-.4 0-.7.1-1 .3l-.4-.7c.4-.3.9-.4 1.5-.4 1.1-.1 1.7.4 1.7 1.5zm-1 .8v-.4h-.7c-.5 0-.6.2-.6.4 0 .3.2.4.6.4.3.1.6 0 .7-.4zM476.3 305.1v2h-1v-1.8c0-.6-.3-.8-.7-.8-.5 0-.8.3-.8.9v1.7h-1v-1.8c0-.6-.2-.8-.7-.8-.4 0-.8.3-.8.9v1.7h-1v-3.5h1v.4c.3-.3.6-.5 1.1-.5.5 0 .9.2 1.1.6.3-.4.7-.6 1.3-.6.9 0 1.5.5 1.5 1.6z"/><path class="st12" d="M570.1 319.1c0 .1-28 .3-62.6.3s-62.6-.1-62.6-.3 28-.3 62.6-.3c34.6.1 62.6.2 62.6.3zM572.3 329.9c0 .1-28.2.3-63 .3s-63-.1-63-.3 28.2-.3 63-.3 63 .1 63 .3zM515.3 340.6c0 .1-15.6.3-34.8.3-19.2 0-34.8-.1-34.8-.3 0-.1 15.6-.3 34.8-.3 19.2 0 34.8.2 34.8.3z"/><path class="st13" d="M451.7 389.4h-.7v.9h-1v-.9h-2.4v-.7l2.1-2.9h1.1l-2 2.7h1.2v-.8h1v.8h.7v.9zM452 387.4c0-.4.3-.6.6-.6s.6.2.6.6c0 .4-.3.6-.6.6-.3.1-.6-.2-.6-.6zm0 2.4c0-.4.3-.6.6-.6s.6.2.6.6c0 .4-.3.6-.6.6s-.6-.3-.6-.6zM457.1 389.5v.9h-3.4v-.7l1.7-1.6c.4-.4.5-.6.5-.8 0-.4-.2-.6-.7-.6-.4 0-.7.1-.9.5l-.8-.5c.3-.5 1-.8 1.8-.8 1 0 1.7.5 1.7 1.3 0 .4-.1.8-.8 1.4l-1 1h1.9zM457.6 388.1c0-1.5.8-2.3 1.9-2.3 1.1 0 1.9.8 1.9 2.3 0 1.5-.8 2.3-1.9 2.3-1.1 0-1.9-.8-1.9-2.3zm2.8 0c0-1-.4-1.5-.9-1.5s-.9.4-.9 1.5c0 1 .4 1.5.9 1.5.5-.1.9-.5.9-1.5zM467.8 388.6c0 1.1-.8 1.8-1.7 1.8-.4 0-.8-.1-1-.4v1.6h-1v-4.7h1v.4c.3-.3.6-.5 1.1-.5.8 0 1.6.7 1.6 1.8zm-1 0c0-.6-.4-1-.9-1s-.9.4-.9 1 .4 1 .9 1 .9-.4.9-1zM474.3 388.3v2h-1v-1.8c0-.6-.3-.8-.7-.8-.5 0-.8.3-.8.9v1.7h-1v-1.8c0-.6-.2-.8-.7-.8-.4 0-.8.3-.8.9v1.7h-1v-3.5h1v.4c.3-.3.6-.5 1.1-.5.5 0 .9.2 1.1.6.3-.4.7-.6 1.3-.6.9.1 1.5.6 1.5 1.6z"/><path class="st12" d="M570.1 402.4c0 .1-28 .3-62.6.3s-62.6-.1-62.6-.3 28-.3 62.6-.3c34.6.1 62.6.2 62.6.3z"/><path class="st13" d="m352 380.5-.2 31h76.6l.3-30.6z"/><path class="st13" d="M402.3 398.2c0 3.3-2.7 6-6.1 6-3.3 0-6-2.7-6-6.1 0-3.3 2.7-6 6.1-6 3.3 0 6 2.7 6 6.1z"/><path d="M402.3 398.2c0 3.3-2.7 6-6.1 6-3.3 0-6-2.7-6-6.1 0-3.3 2.7-6 6.1-6 3.3 0 6 2.7 6 6.1z" class="st14"/><path d="M371.7 411.5h13.6l-6.7-9.1z" class="st15"/><path class="st12" d="M290.8 297.9c0 .1-11.8.3-26.3.3s-26.3-.1-26.3-.3c0-.1 11.8-.3 26.3-.3 14.6.1 26.3.2 26.3.3z"/><path class="st1" d="M265.2 303.8c0 .1-6 .3-13.5.3-7.4 0-13.5-.1-13.5-.3s6-.3 13.5-.3 13.5.2 13.5.3z"/><path class="st12" d="M290.8 259.2c0 .1-11.8.3-26.3.3s-26.3-.1-26.3-.3c0-.1 11.8-.3 26.3-.3 14.6 0 26.3.1 26.3.3z"/><path class="st1" d="M265.2 265c0 .1-6 .3-13.5.3-7.4 0-13.5-.1-13.5-.3 0-.1 6-.3 13.5-.3 7.5.1 13.5.2 13.5.3z"/><path class="st12" d="M288.9 339.3c0 .1-11.8.3-26.3.3s-26.3-.1-26.3-.3 11.8-.3 26.3-.3c14.6 0 26.3.1 26.3.3z"/><path class="st1" d="M263.3 345.1c0 .1-6 .3-13.5.3-7.4 0-13.5-.1-13.5-.3 0-.1 6-.3 13.5-.3 7.5.1 13.5.2 13.5.3z"/><path class="st12" d="M290.8 380c0 .1-11.8.3-26.3.3s-26.3-.1-26.3-.3 11.8-.3 26.3-.3c14.6 0 26.3.1 26.3.3z"/><path class="st1" d="M265.2 385.8c0 .1-6 .3-13.5.3-7.4 0-13.5-.1-13.5-.3 0-.1 6-.3 13.5-.3 7.5.1 13.5.2 13.5.3z"/><circle transform="rotate(-21.04 215.257 381.445)" class="st1" cx="215.2" cy="381.4" r="12"/><path class="st13" d="m206.7 389.8 4.7-1.1h6.6l5.8 1.1s-3.4 3.9-9 3.6c-5.7-.3-8.1-3.6-8.1-3.6z"/><path d="m206.7 389.8 4.7-1.1h6.6l5.8 1.1s-3.4 3.9-9 3.6c-5.7-.3-8.1-3.6-8.1-3.6z" class="st15"/><path class="st16" d="M214.8 392.7c1.9 0 3.4-1.7 3.2-3.6-.1-.6-.1-1.1-.1-1.1s2.6-.4 2.6-3.1c0-2.6-.5-8.7-.5-8.7-3.1-1.3-6.6-.8-9.2 1.2l-.4.3 1 11.8c.2 1.9 1.7 3.2 3.4 3.2z"/><path class="st17" d="M218 388s-1.7.1-3.4-1c0 0 .9 1.9 3.5 1.6l-.1-.6z"/><path class="st16" d="M210.9 380.5s-1.8-.5-1.7 1.3c.1 1.8 1.9 1.4 1.9 1.3-.1 0-.2-2.6-.2-2.6z"/><path class="st17" d="M210.4 382.5c-.1.1-.2.1-.3.1-.2-.1-.4-.4-.4-.7 0-.2 0-.3.1-.5 0-.1.1-.2.2-.3.1 0 .2 0 .2.1v.1-.1s0-.1-.1-.1h-.2c-.1 0-.3.1-.3.3-.1.1-.1.3-.1.5 0 .4.2.7.5.8.2-.1.3-.1.4-.2z"/><path class="st12" d="M219.2 380.6c0 .2-.2.4-.4.4s-.4-.1-.4-.3c0-.2.2-.4.4-.4.3 0 .4.1.4.3zM219.6 380s-.3-.2-.7-.2c-.4 0-.7.2-.7.2s0-.1.2-.2c.1-.1.3-.2.6-.2s.5.1.6.2c0 .1.1.2 0 .2zM215.3 380.6c0 .2-.2.4-.4.4s-.4-.1-.4-.3c0-.2.2-.4.4-.4s.4.1.4.3zM215.7 380.1s-.3-.2-.7-.2c-.4 0-.7.2-.7.2s0-.1.2-.2c.1-.1.3-.2.6-.2s.5.1.6.2c-.1.1 0 .2 0 .2zM217.2 383.1s.2-.1.7-.1c.1 0 .2 0 .2-.1s0-.2-.1-.3c-.1-.2-.2-.5-.3-.8-.4-1.1-.8-2-.7-2.1 0 0 .4.9.9 2 .1.3.2.5.3.8 0 .1.1.2.1.4 0 .1-.1.1-.2.2H217.2zM216 383.4c.1 0 .1.4.5.7.4.3.8.3.9.3 0 0-.1.1-.3.1-.2 0-.5-.1-.7-.2-.2-.2-.3-.4-.3-.6-.2-.2-.2-.3-.1-.3zM215.7 378.5c0 .1-.4.1-.9.1-.5.1-.9.2-.9.1 0 0 0-.2.2-.3.2-.1.4-.2.7-.2.3 0 .5 0 .7.1.2.1.3.1.2.2zM219.5 378.8c-.1.1-.4 0-.7 0-.3 0-.6.1-.7 0 0 0 0-.1.1-.2s.3-.2.6-.2c.2 0 .4.1.5.2.2.1.2.2.2.2z"/><path class="st12" d="M221.4 374.6c0-.3-.1-.7-.4-.9-.3-.2-.7-.2-.9.1.1-.4-.2-.9-.7-1-.4 0-.8.3-1.2.4-.4.1-.8 0-1.2-.1-.4-.2-.8-.4-1.2-.5-.8-.3-1.8-.2-2.6.1-.8.4-1.4 1.1-1.7 1.9-.6-.2-1.2.1-1.6.6-.4.5-.4 1.1-.4 1.7l.3 1.2v.1c0 1.4.2 3.2.8 3.2 1.1 0 .8-2 .8-2 1.3-.5.8-2.5 1.1-2.8.3-.3 1-1 3.8.4 1.1.5 2.5.5 3.3.3h.1c.2-.1.5-.2.7-.3.2-.2.5-.4.6-.7.1-.3.1-.6-.2-.8.4-.3.5-.6.6-.9z"/><path class="st12" d="M227.2 381.4c-.1 0 0-1.1-.5-2.9-.5-1.8-1.7-4.4-4.4-6.5-1.3-1-3-1.8-5-2.2-1.9-.3-4.1-.3-6.2.5-1 .4-2 .9-3 1.6-.9.7-1.8 1.5-2.5 2.5-1.4 1.9-2.3 4.4-2.3 6.9s.8 5 2.3 6.9c.7 1 1.5 1.8 2.5 2.5.9.7 1.9 1.2 3 1.6 2.1.8 4.2.9 6.2.5 1.9-.3 3.6-1.2 5-2.2 2.7-2 3.9-4.7 4.4-6.5.5-1.6.4-2.7.5-2.7v.8c0 .3 0 .6-.1.9 0 .4-.1.8-.2 1.3-.4 1.8-1.6 4.6-4.3 6.7-1.4 1-3.1 1.9-5.1 2.3-2 .4-4.3.3-6.4-.5-1.1-.4-2.1-.9-3.1-1.7-1-.7-1.9-1.6-2.6-2.6-1.5-2-2.4-4.6-2.4-7.2 0-2.7.9-5.2 2.4-7.2.7-1 1.6-1.9 2.6-2.6 1-.7 2-1.3 3.1-1.7 2.2-.8 4.4-.9 6.4-.5s3.7 1.3 5.1 2.3c2.8 2.1 3.9 4.9 4.3 6.7.1.5.2.9.2 1.3.1.4.1.7.1.9v.8z"/><g id="XMLID_35_"><path class="st13" d="M226.7 393.4c-3.1 0-5.7-2.5-5.7-5.7 0-3.1 2.5-5.7 5.7-5.7 3.1 0 5.7 2.5 5.7 5.7-.1 3.2-2.6 5.7-5.7 5.7z" id="XMLID_44_"/><path class="st8" d="M226.7 384.1c-2 0-3.6 1.6-3.6 3.6s1.6 3.6 3.6 3.6 3.6-1.6 3.6-3.6c0-1.9-1.6-3.6-3.6-3.6zm0 .7c.7 0 1.3.2 1.8.6-.4.5-.9.8-1.5 1.1-.3-.6-.7-1.1-1.1-1.6.3-.1.5-.1.8-.1zm-1.4.3c.4.5.8 1.1 1.1 1.6-.7.2-1.6.3-2.6.3.2-.8.7-1.5 1.5-1.9zm-1.6 2.7c0-.1 0-.1 0 0 1.2-.1 2.2-.2 3-.5.1.1.1.3.2.4-1 .3-1.9 1-2.5 2-.5-.6-.7-1.2-.7-1.9zm3 2.9c-.7 0-1.3-.2-1.8-.6.6-.9 1.4-1.5 2.3-1.8.3.7.5 1.5.6 2.2-.4.2-.8.2-1.1.2zm1.6-.5c-.1-.7-.3-1.4-.6-2.1.6-.1 1.2-.1 1.9.1-.1.9-.6 1.6-1.3 2zm-.8-2.6c-.1-.2-.1-.3-.2-.5.7-.3 1.3-.7 1.7-1.2.4.5.7 1.1.7 1.8-.8-.2-1.5-.3-2.2-.1z" id="XMLID_36_"/></g><circle class="st1" cx="215.2" cy="340.9" r="12"/><path class="st13" d="m206.7 349.3 4.7-1.1h6.6l5.8 1.1s-3.4 3.9-9 3.6c-5.7-.3-8.1-3.6-8.1-3.6z"/><path d="m206.7 349.3 4.7-1.1h6.6l5.8 1.1s-3.4 3.9-9 3.6c-5.7-.3-8.1-3.6-8.1-3.6z" class="st15"/><path class="st16" d="M214.8 352.1c1.9 0 3.4-1.7 3.2-3.6-.1-.6-.1-1.1-.1-1.1s2.6-.4 2.6-3.1c0-2.6-.5-8.7-.5-8.7-3.1-1.3-6.6-.8-9.2 1.2l-.4.3 1 11.8c.2 1.9 1.7 3.3 3.4 3.2z"/><path class="st17" d="M218 347.5s-1.7.1-3.4-1c0 0 .9 1.9 3.5 1.6l-.1-.6z"/><path class="st16" d="M210.9 340s-1.8-.5-1.7 1.3c.1 1.8 1.9 1.4 1.9 1.3-.1-.1-.2-2.6-.2-2.6z"/><path class="st17" d="M210.4 341.9s0 .1 0 0c-.1.1-.2.1-.3.1-.2-.1-.4-.4-.4-.7 0-.2 0-.3.1-.5 0-.1.1-.2.2-.3.1 0 .2 0 .2.1v.1-.1s0-.1-.1-.1h-.2c-.1 0-.3.1-.3.3-.1.1-.1.3-.1.5 0 .4.2.7.5.8.2 0 .3 0 .4-.2 0 .1 0 0 0 0z"/><path class="st12" d="M219.2 340.1c0 .2-.2.4-.4.4s-.4-.1-.4-.3c0-.2.2-.4.4-.4.3-.1.4.1.4.3zM219.6 339.4s-.3-.2-.7-.2c-.4 0-.7.2-.7.2s0-.1.2-.2c.1-.1.3-.2.6-.2s.5.1.6.2c0 .1.1.2 0 .2zM215.3 340.1c0 .2-.2.4-.4.4s-.4-.1-.4-.3c0-.2.2-.4.4-.4.2-.1.4.1.4.3zM215.7 339.5s-.3-.2-.7-.2c-.4 0-.7.2-.7.2s0-.1.2-.2c.1-.1.3-.2.6-.2s.5.1.6.2c-.1.1 0 .2 0 .2zM217.2 342.5s.2-.1.7-.1c.1 0 .2 0 .2-.1s0-.2-.1-.3c-.1-.2-.2-.5-.3-.8-.4-1.1-.8-2-.7-2.1 0 0 .4.9.9 2 .1.3.2.5.3.8 0 .1.1.3.1.4 0 .1-.1.1-.2.2h-.2c-.5.1-.7.1-.7 0zM216 342.8c.1 0 .1.4.5.7.4.3.8.3.9.3 0 0-.1.1-.3.1-.2 0-.5-.1-.7-.2-.2-.2-.3-.4-.3-.6-.2-.2-.2-.3-.1-.3zM215.7 338c0 .1-.4.1-.9.1-.5.1-.9.2-.9.1 0 0 0-.2.2-.3.2-.1.4-.2.7-.2.3 0 .5 0 .7.1.2 0 .3.1.2.2zM219.5 338.3c-.1.1-.4 0-.7 0-.3 0-.6.1-.7 0 0 0 0-.1.1-.2s.3-.2.6-.2c.2 0 .4.1.5.2.2 0 .2.1.2.2z"/><path class="st12" d="M221.4 334c0-.3-.1-.7-.4-.9-.3-.2-.7-.2-.9.1.1-.4-.2-.9-.7-1-.4 0-.8.3-1.2.4-.4.1-.8 0-1.2-.1-.4-.2-.8-.4-1.2-.5-.8-.3-1.8-.2-2.6.1-.8.4-1.4 1.1-1.7 1.9-.6-.2-1.2.1-1.6.6-.4.5-.4 1.1-.4 1.7l.3 1.2v.1c0 1.4.2 3.2.8 3.2 1.1 0 .8-2 .8-2 1.3-.5.8-2.5 1.1-2.8.3-.3 1-1 3.8.4 1.1.5 2.5.5 3.3.3h.1c.2-.1.5-.2.7-.3.2-.2.5-.4.6-.7.1-.3.1-.6-.2-.8.4-.2.5-.5.6-.9z"/><path class="st12" d="M227.2 340.9c-.1 0 0-1.1-.5-2.9-.5-1.8-1.7-4.4-4.4-6.5-1.3-1-3-1.8-5-2.2-1.9-.3-4.1-.3-6.2.5-1 .4-2 .9-3 1.6-.9.7-1.8 1.5-2.5 2.5-1.4 1.9-2.3 4.4-2.3 6.9s.8 5 2.3 6.9c.7 1 1.5 1.8 2.5 2.5.9.7 1.9 1.2 3 1.6 2.1.8 4.2.9 6.2.5 1.9-.3 3.6-1.2 5-2.2 2.7-2 3.9-4.7 4.4-6.5.5-1.6.4-2.7.5-2.7v.8c0 .3 0 .6-.1.9 0 .4-.1.8-.2 1.3-.4 1.8-1.6 4.6-4.3 6.7-1.4 1-3.1 1.9-5.1 2.3-2 .4-4.3.3-6.4-.5-1.1-.4-2.1-.9-3.1-1.7-1-.7-1.9-1.6-2.6-2.6-1.5-2-2.4-4.6-2.4-7.2 0-2.7.9-5.2 2.4-7.2.7-1 1.6-1.9 2.6-2.6 1-.7 2-1.3 3.1-1.7 2.2-.8 4.4-.9 6.4-.5s3.7 1.3 5.1 2.3c2.8 2.1 3.9 4.9 4.3 6.7.1.5.2.9.2 1.3.1.4.1.7.1.9v.8z"/><path class="st13" d="M232.5 348.1c0 3.3-2.7 6-6 6s-6-2.7-6-6 2.7-6 6-6c3.4.1 6 2.8 6 6z"/><path class="st8" d="M223.8 350.2c.6.4 1.3.6 2.1.6 2.5 0 3.9-2.1 3.8-4 .3-.2.5-.4.7-.7-.2.1-.5.2-.8.2.3-.2.5-.4.6-.7-.3.2-.5.3-.9.3-.2-.3-.6-.4-1-.4-.9 0-1.5.8-1.3 1.6-1.1-.1-2.1-.6-2.8-1.4-.4.6-.2 1.4.4 1.8-.2 0-.4-.1-.6-.2 0 .6.4 1.2 1.1 1.3-.2.1-.4.1-.6 0 .2.5.7.9 1.3.9-.6.6-1.3.8-2 .7z" id="XMLID_34_"/><circle transform="rotate(-21.04 215.257 300.47)" class="st1" cx="215.2" cy="300.5" r="12"/><path class="st13" d="m206.7 308.8 4.7-1.1h6.6l5.8 1.1s-3.4 3.9-9 3.6c-5.7-.3-8.1-3.6-8.1-3.6z"/><path d="m206.7 308.8 4.7-1.1h6.6l5.8 1.1s-3.4 3.9-9 3.6c-5.7-.3-8.1-3.6-8.1-3.6z" class="st15"/><path class="st16" d="M214.8 311.7c1.9 0 3.4-1.7 3.2-3.6-.1-.6-.1-1.1-.1-1.1s2.6-.4 2.6-3.1-.5-8.7-.5-8.7c-3.1-1.3-6.6-.8-9.2 1.2l-.4.3 1 11.8c.2 1.9 1.7 3.2 3.4 3.2z"/><path class="st17" d="M218 307.1s-1.7.1-3.4-1c0 0 .9 1.9 3.5 1.6l-.1-.6z"/><path class="st16" d="M210.9 299.6s-1.8-.5-1.7 1.3c.1 1.8 1.9 1.4 1.9 1.3-.1-.1-.2-2.6-.2-2.6z"/><path class="st17" d="M210.4 301.5c-.1.1-.2.1-.3.1-.2-.1-.4-.4-.4-.7 0-.2 0-.3.1-.5 0-.1.1-.2.2-.3.1 0 .2 0 .2.1v.1-.1s0-.1-.1-.1h-.2c-.1 0-.3.1-.3.3-.1.1-.1.3-.1.5 0 .4.2.7.5.8.2 0 .3-.1.4-.2z"/><path class="st12" d="M219.2 299.7c0 .2-.2.4-.4.4s-.4-.1-.4-.3c0-.2.2-.4.4-.4.3-.1.4.1.4.3zM219.6 299s-.3-.2-.7-.2c-.4 0-.7.2-.7.2s0-.1.2-.2c.1-.1.3-.2.6-.2s.5.1.6.2c0 .1.1.2 0 .2zM215.3 299.7c0 .2-.2.4-.4.4s-.4-.1-.4-.3c0-.2.2-.4.4-.4.2-.1.4.1.4.3zM215.7 299.1s-.3-.2-.7-.2c-.4 0-.7.2-.7.2s0-.1.2-.2c.1-.1.3-.2.6-.2s.5.1.6.2c-.1.1 0 .2 0 .2zM217.2 302.1s.2-.1.7-.1c.1 0 .2 0 .2-.1s0-.2-.1-.3c-.1-.2-.2-.5-.3-.8-.4-1.1-.8-2-.7-2.1 0 0 .4.9.9 2 .1.3.2.5.3.8 0 .1.1.2.1.4 0 .1-.1.1-.2.2H217.2zM216 302.4c.1 0 .1.4.5.7.4.3.8.3.9.3 0 0-.1.1-.3.1-.2 0-.5-.1-.7-.2-.2-.2-.3-.4-.3-.6-.2-.2-.2-.3-.1-.3zM215.7 297.5c0 .1-.4.1-.9.1-.5.1-.9.2-.9.1 0 0 0-.2.2-.3.2-.1.4-.2.7-.2.3 0 .5 0 .7.1.2.1.3.2.2.2zM219.5 297.8c-.1.1-.4 0-.7 0-.3 0-.6.1-.7 0 0 0 0-.1.1-.2s.3-.2.6-.2c.2 0 .4.1.5.2.2.1.2.2.2.2z"/><path class="st12" d="M221.4 293.6c0-.3-.1-.7-.4-.9-.3-.2-.7-.2-.9.1.1-.4-.2-.9-.7-1-.4 0-.8.3-1.2.4-.4.1-.8 0-1.2-.1-.4-.2-.8-.4-1.2-.5-.8-.3-1.8-.2-2.6.1-.8.4-1.4 1.1-1.7 1.9-.6-.2-1.2.1-1.6.6-.4.5-.4 1.1-.4 1.7l.3 1.2v.1c0 1.4.2 3.2.8 3.2 1.1 0 .8-2 .8-2 1.3-.5.8-2.5 1.1-2.8.3-.3 1-1 3.8.4 1.1.5 2.5.5 3.3.3h.1c.2-.1.5-.2.7-.3.2-.2.5-.4.6-.7.1-.3.1-.6-.2-.8.4-.3.5-.6.6-.9z"/><path class="st12" d="M227.2 300.5c-.1 0 0-1.1-.5-2.9-.5-1.8-1.7-4.4-4.4-6.5-1.3-1-3-1.8-5-2.2-1.9-.3-4.1-.3-6.2.5-1 .4-2 .9-3 1.6-.9.7-1.8 1.5-2.5 2.5-1.4 1.9-2.3 4.4-2.3 6.9s.8 5 2.3 6.9c.7 1 1.5 1.8 2.5 2.5.9.7 1.9 1.2 3 1.6 2.1.8 4.2.9 6.2.5 1.9-.3 3.6-1.2 5-2.2 2.7-2 3.9-4.7 4.4-6.5.5-1.7.4-2.7.5-2.7v.8c0 .3 0 .6-.1.9 0 .4-.1.8-.2 1.3-.4 1.8-1.6 4.6-4.3 6.7-1.4 1-3.1 1.9-5.1 2.3-2 .4-4.3.3-6.4-.5-1.1-.4-2.1-.9-3.1-1.7-1-.7-1.9-1.6-2.6-2.6-1.5-2-2.4-4.6-2.4-7.2 0-2.7.9-5.2 2.4-7.2.7-1 1.6-1.9 2.6-2.6 1-.7 2-1.3 3.1-1.7 2.2-.8 4.4-.9 6.4-.5s3.7 1.3 5.1 2.3c2.8 2.1 3.9 4.9 4.3 6.7.1.5.2.9.2 1.3.1.4.1.7.1.9v.8z"/><g id="XMLID_28_"><path class="st13" d="M226.6 314.7c-3.4 0-6.2-2.8-6.2-6.2 0-3.4 2.8-6.2 6.2-6.2 3.4 0 6.2 2.8 6.2 6.2 0 3.4-2.8 6.2-6.2 6.2z" id="XMLID_31_"/><path class="st8" d="M225.6 312.2h1.5v-3.8h1.1l.1-1.3h-1.2v-.7c0-.3.1-.4.3-.4h.8v-1.3h-1c-1.1 0-1.6.5-1.6 1.4v1h-.8v1.3h.8v3.8z" id="XMLID_29_"/></g><circle transform="rotate(-45.001 216.369 260.162)" class="st1" cx="216.4" cy="260.2" r="12"/><path class="st13" d="m207.8 268.5 4.7-1.1h6.6l5.8 1.1s-3.4 3.9-9 3.6c-5.7-.3-8.1-3.6-8.1-3.6z"/><path d="m207.8 268.5 4.7-1.1h6.6l5.8 1.1s-3.4 3.9-9 3.6c-5.7-.3-8.1-3.6-8.1-3.6z" class="st15"/><path class="st16" d="M215.9 271.4c1.9 0 3.4-1.7 3.2-3.6-.1-.6-.1-1.1-.1-1.1s2.6-.4 2.6-3.1-.5-8.7-.5-8.7c-3.1-1.3-6.6-.8-9.2 1.2l-.4.3 1 11.8c.2 1.9 1.7 3.2 3.4 3.2z"/><path class="st17" d="M219.1 266.8s-1.7.1-3.4-1c0 0 .9 1.9 3.5 1.6l-.1-.6z"/><path class="st16" d="M212 259.3s-1.8-.5-1.7 1.3c.1 1.8 1.9 1.4 1.9 1.3-.1-.1-.2-2.6-.2-2.6z"/><path class="st17" d="M211.5 261.2c-.1.1-.2.1-.3.1-.2-.1-.4-.4-.4-.7 0-.2 0-.3.1-.5 0-.1.1-.2.2-.3.1 0 .2 0 .2.1v.1-.1s0-.1-.1-.1h-.2c-.1 0-.3.1-.3.3-.1.1-.1.3-.1.5 0 .4.2.7.5.8.2 0 .3-.1.4-.2z"/><path class="st12" d="M220.4 259.4c0 .2-.2.4-.4.4s-.4-.1-.4-.3c0-.2.2-.4.4-.4.2-.1.4.1.4.3zM220.8 258.7s-.3-.2-.7-.2c-.4 0-.7.2-.7.2s0-.1.2-.2c.1-.1.3-.2.6-.2s.5.1.6.2c-.1.1 0 .2 0 .2zM216.4 259.3c0 .2-.2.4-.4.4s-.4-.1-.4-.3c0-.2.2-.4.4-.4s.4.2.4.3zM216.8 258.8s-.3-.2-.7-.2c-.4 0-.7.2-.7.2s0-.1.2-.2c.1-.1.3-.2.6-.2s.5.1.6.2v.2zM218.3 261.8s.2-.1.7-.1c.1 0 .2 0 .2-.1s0-.2-.1-.3c-.1-.2-.2-.5-.3-.8-.4-1.1-.8-2-.7-2.1 0 0 .4.9.9 2 .1.3.2.5.3.8 0 .1.1.2.1.4 0 .1-.1.1-.2.2H218.3zM217.1 262.1c.1 0 .1.4.5.7.4.3.8.3.9.3 0 0-.1.1-.3.1-.2 0-.5-.1-.7-.2-.2-.2-.3-.4-.3-.6-.2-.2-.1-.3-.1-.3zM216.9 257.2c0 .1-.4.1-.9.1-.5.1-.9.2-.9.1 0 0 0-.2.2-.3.2-.1.4-.2.7-.2.3 0 .5 0 .7.1l.2.2zM220.6 257.5c-.1.1-.4 0-.7 0-.3 0-.6.1-.7 0 0 0 0-.1.1-.2s.3-.2.6-.2c.2 0 .4.1.5.2.2.1.2.2.2.2z"/><path class="st12" d="M222.5 253.3c0-.3-.1-.7-.4-.9-.3-.2-.7-.2-.9.1.1-.4-.2-.9-.7-1-.4 0-.8.3-1.2.4-.4.1-.8 0-1.2-.1-.4-.2-.8-.4-1.2-.5-.8-.3-1.8-.2-2.6.1-.8.4-1.4 1.1-1.7 1.9-.6-.2-1.2.1-1.6.6-.4.5-.4 1.1-.4 1.7l.3 1.2v.1c0 1.4.2 3.2.8 3.2 1.1 0 .8-2 .8-2 1.3-.5.8-2.5 1.1-2.8.3-.3 1-1 3.8.4 1.1.5 2.5.5 3.3.3h.1c.2-.1.5-.2.7-.3.2-.2.5-.4.6-.7.1-.3.1-.6-.2-.8.4-.3.6-.6.6-.9z"/><path class="st12" d="M228.3 260.2c-.1 0 0-1.1-.5-2.9-.5-1.8-1.7-4.4-4.4-6.5-1.3-1-3-1.8-5-2.2-1.9-.3-4.1-.3-6.2.5-1 .4-2 .9-3 1.6-.9.7-1.8 1.5-2.5 2.5-1.4 1.9-2.3 4.4-2.3 6.9s.8 5 2.3 6.9c.7 1 1.5 1.8 2.5 2.5.9.7 1.9 1.2 3 1.6 2.1.8 4.2.9 6.2.5 1.9-.3 3.6-1.2 5-2.2 2.7-2 3.9-4.7 4.4-6.5.5-1.7.5-2.7.5-2.7v.8c0 .3 0 .6-.1.9 0 .4-.1.8-.2 1.3-.4 1.8-1.6 4.6-4.3 6.7-1.4 1-3.1 1.9-5.1 2.3-2 .4-4.3.3-6.4-.5-1.1-.4-2.1-.9-3.1-1.7-1-.7-1.9-1.6-2.6-2.6-1.5-2-2.4-4.6-2.4-7.2 0-2.7.9-5.2 2.4-7.2.7-1 1.6-1.9 2.6-2.6 1-.7 2-1.3 3.1-1.7 2.2-.8 4.4-.9 6.4-.5s3.7 1.3 5.1 2.3c2.8 2.1 3.9 4.9 4.3 6.7.1.5.2.9.2 1.3.1.4.1.7.1.9.1.5.1.8 0 .8z"/><g id="XMLID_21_"><path class="st13" d="M227 275.1c-3.4 0-6.2-2.8-6.2-6.2 0-3.4 2.8-6.2 6.2-6.2 3.4 0 6.2 2.8 6.2 6.2 0 3.4-2.8 6.2-6.2 6.2z" id="XMLID_23_"/><path class="st8" d="M225 269.5c.1 0 .2 0 .2-.1s.1-.3.1-.3c0-.1 0-.1-.1-.2-.2-.2-.3-.5-.3-.8 0-1.1.8-2 2.1-2 1.1 0 1.8.7 1.8 1.6 0 1.2-.5 2.3-1.3 2.3-.4 0-.8-.4-.7-.8.1-.5.4-1.1.4-1.5 0-.3-.2-.6-.6-.6-.5 0-.8.5-.8 1.1 0 .4.1.7.1.7s-.5 2-.5 2.3c-.2.7 0 1.5 0 1.6 0 .1.1.1.1 0s.6-.7.8-1.4c.1-.2.3-1.2.3-1.2.1.3.6.5 1 .5 1.4 0 2.3-1.2 2.3-2.9 0-1.3-1.1-2.4-2.7-2.4-2 0-3 1.4-3 2.6-.1.6.2 1.2.8 1.5z" id="XMLID_22_"/></g><circle class="st1" cx="225.5" cy="196.1" r="29.9"/><path class="st13" d="m204.1 217 11.8-2.8 16.5-.1 14.5 2.9s-8.5 9.7-22.4 9c-14.4-.7-20.4-9-20.4-9z"/><path d="m204.1 217 11.8-2.8 16.5-.1 14.5 2.9s-8.5 9.7-22.4 9c-14.4-.7-20.4-9-20.4-9z" class="st15"/><path class="st16" d="M224.4 224.2c4.8-.1 8.5-4.2 8.1-8.9-.1-1.6-.2-2.7-.2-2.7s6.6-1.1 6.6-7.7-1.3-21.7-1.3-21.7c-7.7-3.2-16.5-2-23 3.1l-1 .8 2.4 29.6c.4 4.3 4 7.6 8.4 7.5z"/><path class="st17" d="M232.3 212.6s-4.2.3-8.6-2.5c0 0 2.1 4.7 8.7 4.1l-.1-1.6z"/><path class="st16" d="M214.5 193.9c-.1 0-4.5-1.3-4.4 3.2.2 4.5 4.7 3.4 4.7 3.3 0-.2-.3-6.5-.3-6.5z"/><path class="st17" d="M213.4 198.7s-.1.1-.2.1c-.1.1-.3.1-.6 0-.5-.2-.9-.9-1-1.7 0-.4 0-.8.2-1.1.1-.3.3-.6.6-.6.2-.1.4.1.5.2.1.1 0 .2.1.2 0 0 .1-.1 0-.3 0-.1-.1-.2-.2-.3-.1-.1-.3-.1-.4-.1-.3 0-.6.4-.8.7-.2.4-.3.8-.2 1.3.1.9.6 1.7 1.2 1.9.3.1.6 0 .7-.1.1-.1.1-.2.1-.2z"/><path class="st12" d="M235.4 194.1c0 .5-.4.9-.9 1-.5 0-1-.3-1-.8s.4-.9.9-1c.6-.1 1 .3 1 .8zM236.4 192.5c-.1.1-.8-.4-1.8-.4s-1.7.5-1.9.4c-.1-.1.1-.3.4-.5.3-.2.9-.5 1.5-.5s1.2.2 1.5.5c.3.2.4.4.3.5zM225.6 194.1c0 .5-.4.9-.9 1-.5 0-1-.3-1-.8s.4-.9.9-1c.5-.1.9.3 1 .8zM226.5 192.8c-.1.1-.8-.4-1.8-.4s-1.7.5-1.9.4c-.1-.1.1-.3.4-.5.3-.2.9-.5 1.5-.5s1.2.2 1.5.5c.2.2.3.4.3.5zM230.2 200.2c0-.1.6-.2 1.6-.3.3 0 .5-.1.5-.3.1-.2-.1-.5-.2-.8-.2-.6-.5-1.3-.8-2-1.1-2.8-1.9-5.1-1.8-5.1.1 0 1.1 2.2 2.2 5 .3.7.5 1.3.8 2 .1.3.3.6.1 1-.1.2-.3.3-.4.4-.2.1-.3.1-.4.1-.9.1-1.6.1-1.6 0zM227.2 201c.2 0 .2 1.1 1.1 1.9.9.8 2.1.6 2.1.8 0 .1-.3.2-.8.2s-1.2-.1-1.8-.6c-.6-.5-.8-1.1-.9-1.6.2-.5.3-.7.3-.7zM226.7 188.8c-.1.3-1.1.2-2.3.3-1.2.1-2.1.5-2.3.2-.1-.1.1-.4.5-.6.4-.3 1-.5 1.7-.6.7-.1 1.4 0 1.8.2.4.1.6.4.6.5zM236 189.5c-.2.2-.9 0-1.7 0-.8 0-1.5.2-1.7-.1-.1-.1 0-.3.3-.6.3-.2.8-.4 1.4-.4.6 0 1.1.2 1.4.4.3.4.4.6.3.7z"/><path class="st12" d="M240.8 179c.1-.8-.2-1.7-.9-2.2-.7-.5-1.7-.4-2.2.2.3-1.1-.6-2.4-1.8-2.4-1.1-.1-2 .8-3 1.1-1 .3-2.1.1-3.1-.3s-1.9-.9-2.9-1.3c-2.1-.7-4.4-.6-6.4.3-2 .9-3.6 2.7-4.3 4.7-1.4-.4-3.1.3-4 1.5-.9 1.2-1.1 2.8-.9 4.3.1 1 .4 2 .8 2.9v.3c.1 3.6.6 7.9 2.1 7.9 2.7 0 2-5.1 2-5.1 3.3-1.3 2-6.3 2.8-7 .8-.8 2.5-2.5 9.5.9 2.7 1.3 6.3 1.3 8.2.8H237c.6-.2 1.2-.4 1.8-.8.6-.4 1.2-.9 1.4-1.6s.2-1.6-.4-2.1c.5-.5.9-1.3 1-2.1z"/><path class="st12" d="M255.4 196.1s0-.2-.1-.5c0-.3-.1-.8-.1-1.4 0-.3 0-.7-.1-1 0-.4-.1-.8-.2-1.2-.1-.9-.3-1.9-.6-3.1-.5-2.3-1.6-5-3.3-7.9-1.7-2.9-4.2-5.9-7.6-8.4-3.4-2.5-7.6-4.7-12.5-5.5-1.2-.2-2.5-.4-3.8-.4-.6 0-1.3-.1-1.9-.1-.7 0-1.3.1-2 .1-.3 0-.7 0-1 .1l-1 .2c-.7.1-1.3.2-2 .3-1.3.4-2.7.6-4 1.2-1.3.4-2.6 1.1-3.9 1.7-.6.3-1.2.7-1.8 1.1l-1.8 1.2c-1.2.8-2.3 1.9-3.4 2.9-1 1.1-2 2.2-2.9 3.4-1.8 2.5-3.3 5.2-4.2 8.2-1 3-1.5 6.1-1.5 9.4 0 3.2.6 6.4 1.5 9.4s2.5 5.7 4.2 8.2c.9 1.3 1.9 2.3 2.9 3.4 1.1 1 2.2 2 3.4 2.9.6.4 1.2.9 1.8 1.2.6.4 1.2.8 1.8 1.1 1.3.6 2.5 1.3 3.9 1.7 1.3.5 2.6.8 4 1.2.7.1 1.3.2 2 .3l1 .2c.3 0 .7 0 1 .1.7 0 1.3.1 2 .1s1.3-.1 1.9-.1c1.3 0 2.5-.3 3.8-.4 4.9-.9 9.1-3 12.5-5.5 3.4-2.6 5.9-5.6 7.6-8.4 1.7-2.9 2.8-5.6 3.3-7.9.3-1.1.5-2.2.6-3.1.1-.5.2-.9.2-1.2 0-.4 0-.7.1-1 0-.6.1-1.1.1-1.4.1-.9.1-1.1.1-1.1v3c0 .4-.1.8-.2 1.3-.1.9-.3 2-.6 3.1-.5 2.3-1.6 5.1-3.3 8-1.7 2.9-4.2 6-7.6 8.6-3.4 2.6-7.7 4.8-12.7 5.7-1.2.2-2.5.4-3.8.5-.6 0-1.3.1-2 .1s-1.3-.1-2-.1c-.3 0-.7 0-1-.1l-1-.2c-.7-.1-1.4-.2-2-.3-1.3-.4-2.7-.6-4-1.2-1.4-.4-2.6-1.1-3.9-1.7-.6-.3-1.2-.7-1.9-1.1-.6-.4-1.2-.8-1.8-1.3-1.2-.8-2.3-1.9-3.4-2.9-1-1.1-2.1-2.2-3-3.5-1.8-2.5-3.4-5.3-4.3-8.3-1-3-1.5-6.3-1.6-9.5 0-3.3.6-6.5 1.6-9.5s2.5-5.8 4.3-8.3c.9-1.3 1.9-2.4 3-3.5 1.1-1 2.2-2.1 3.4-2.9.6-.4 1.2-.9 1.8-1.3.6-.4 1.2-.8 1.9-1.1 1.3-.6 2.6-1.3 3.9-1.7 1.3-.5 2.7-.8 4-1.2.7-.1 1.4-.2 2-.3l1-.2c.3 0 .7 0 1-.1.7 0 1.3-.1 2-.1s1.3.1 2 .1c1.3 0 2.6.3 3.8.5 5 .9 9.3 3.1 12.7 5.7 3.4 2.6 5.9 5.7 7.6 8.6 1.7 2.9 2.8 5.7 3.3 8 .3 1.1.5 2.2.6 3.1.1.5.1.9.2 1.3v2.8z"/><g id="XMLID_3_"><path class="st13" d="M251.8 235c-8.2 0-14.9-6.7-14.9-14.9s6.7-14.9 14.9-14.9 14.9 6.7 14.9 14.9c-.1 8.2-6.7 14.9-14.9 14.9z" id="XMLID_20_"/><g id="XMLID_4_"><path class="st8" d="M251.8 213.4h3.3c.8 0 1.2.2 1.5.3.4.1.7.3.9.6.3.3.5.6.6.9.1.3.2.7.3 1.5v6.6c0 .8-.2 1.2-.3 1.5-.1.4-.3.7-.6.9-.3.3-.6.5-.9.6-.3.1-.7.2-1.5.3h-6.6c-.8 0-1.2-.2-1.5-.3-.4-.1-.7-.3-.9-.6-.3-.3-.5-.6-.6-.9-.1-.3-.2-.7-.3-1.5v-6.6c0-.8.2-1.2.3-1.5.1-.4.3-.7.6-.9.3-.3.6-.5.9-.6.3-.1.7-.2 1.5-.3h3.3m0-1.4h-3.4c-.9 0-1.5.2-2 .4s-1 .5-1.4.9c-.5.5-.7.9-.9 1.4-.2.5-.3 1.1-.4 2v6.8c0 .9.2 1.5.4 2s.5 1 .9 1.4c.5.5.9.7 1.4.9.5.2 1.1.3 2 .4h6.8c.9 0 1.5-.2 2-.4s1-.5 1.4-.9c.5-.5.7-.9.9-1.4.2-.5.3-1.1.4-2v-6.8c0-.9-.2-1.5-.4-2s-.5-1-.9-1.4c-.5-.5-.9-.7-1.4-.9-.5-.2-1.1-.3-2-.4h-3.4" id="XMLID_15_"/><path class="st8" d="M251.8 215.9c-2.3 0-4.2 1.9-4.2 4.2s1.9 4.2 4.2 4.2 4.2-1.9 4.2-4.2-1.9-4.2-4.2-4.2m0 6.9c-1.5 0-2.7-1.2-2.7-2.7 0-1.5 1.2-2.7 2.7-2.7 1.5 0 2.7 1.2 2.7 2.7 0 1.5-1.2 2.7-2.7 2.7" id="XMLID_8_"/><path class="st8" d="M257.1 215.8c0 .5-.4 1-1 1-.5 0-1-.4-1-1 0-.5.4-1 1-1s1 .4 1 1" id="XMLID_5_"/></g></g></g><path class="st12" d="M700.8 458.7c0 .1-150.7.3-336.6.3-186 0-336.7-.1-336.7-.3 0-.1 150.7-.3 336.7-.3 185.9 0 336.6.1 336.6.3z" id="Floor"/><g id="Character"><path class="st13" d="m479.7 420.5-17.1 21s-27.1-10.4-30.6-6.8l39.4 34.7 28-31.6-19.7-17.3z"/><path class="st1" d="M476 449.7c.6.9.4 2.2-.5 2.8-.9.6-2.2.4-2.8-.5-.6-.9-.4-2.5.6-3 .9-.5 2.5-.2 2.9.8"/><path class="st12" d="M435 433.2c-.1.1 8.6 7.5 19.4 16.4 10.8 9 19.7 16.1 19.8 16 .1-.1-8.6-7.5-19.4-16.4-10.8-9-19.7-16.1-19.8-16zM462.1 440.7c-.2.2.7 1.1 1.1 2.6.4 1.5.2 2.7.4 2.8.2.1.9-1.3.4-3.1-.4-1.7-1.8-2.5-1.9-2.3zM456.4 438.8c-.2.1.3 1.2.3 2.6 0 1.4-.6 2.4-.4 2.6.2.2 1.3-.8 1.3-2.6.1-1.7-1-2.8-1.2-2.6zM449.7 441.7c.1.2 1.3-.5 1.7-2 .4-1.5-.1-2.7-.3-2.6-.2.1-.2 1.2-.5 2.4-.4 1.1-1.1 2-.9 2.2zM466.6 436.3c-.1.2 1.1.8 2.1 1.8 1.1 1 1.6 2.1 1.8 2.1.2 0 0-1.5-1.2-2.7-1.2-1.2-2.7-1.4-2.7-1.2zM469.7 431.3c-.1.1.6.9 2 1.7.7.4 1.6.9 2.6 1.2.5.2 1.1.3 1.7.4.3 0 .6.1 1 .1s1-.4 1-1c.1-.5-.2-.9-.5-1.2-.3-.3-.6-.4-.8-.6-.5-.3-1.1-.5-1.6-.7-1.1-.3-2.1-.4-2.9-.4-1.7 0-2.6.5-2.6.6 0 .1 1-.1 2.6 0 .8.1 1.7.2 2.7.6.5.2 1 .4 1.5.7.5.3.9.6.8.9 0 .1 0 .1-.2.2h-.7c-.6-.1-1.1-.2-1.6-.3-1-.3-1.9-.6-2.6-1-1.5-.7-2.3-1.3-2.4-1.2z"/><path class="st12" d="M469.7 431.8c0 .1 1-.3 2.2-1.5.6-.6 1.2-1.4 1.6-2.4.2-.5.4-1.1.6-1.7.1-.6.3-1.4-.4-2.1-.4-.4-1-.3-1.3-.2-.4.2-.6.4-.8.5-.5.4-.9.9-1.2 1.3-.6 1-.9 2-1 2.8-.1 1.7.5 2.7.6 2.6.2 0-.2-1 .1-2.5.1-.7.4-1.6 1-2.4.3-.4.6-.8 1-1.1.4-.4.9-.6 1-.4.2.2.3.8.1 1.3-.1.5-.3 1-.5 1.5-.4.9-.9 1.7-1.4 2.3-.8 1.4-1.6 1.9-1.6 2z"/><path class="st13" d="M542 439.4s-9.4 3.2-18.1 3c-8.2-.2-26.1 3.2-24.8 13.8 1.4 11.8 25.1 6 34.3 3 9.2-3 18.3-5.8 18.3-5.8l-9.7-14z"/><path class="st12" d="M522.2 457.2c-.1 0-.9-1.7-1.7-4-.8-2.2-1.3-4.1-1.2-4.1.1 0 .9 1.7 1.7 4 .8 2.2 1.3 4 1.2 4.1zM525.5 456.9c-.1 0-.7-1.8-1.3-4.1-.6-2.3-1-4.2-.9-4.2.1 0 .7 1.8 1.3 4.1.7 2.3 1 4.2.9 4.2zM528.5 455.3c-.1 0-.6-1.6-1.1-3.6-.5-2-.8-3.7-.7-3.7.1 0 .6 1.6 1.1 3.6.6 2 .9 3.7.7 3.7zM533.4 453.5c-.1.1-1-1.2-1.6-3-.7-1.8-.9-3.3-.8-3.3.1 0 .5 1.4 1.2 3.2.6 1.6 1.3 3 1.2 3.1zM533.9 449s.4-.2 1.2-.2c.8-.1 2-.1 3.5.3.4.1.7.2 1.1.4.4.2.7.6.8 1.1.1 1-.9 1.9-2 1.8-1.1-.1-2-.7-2.7-1.5-.8-.8-1.4-1.7-1.8-2.8-.8-2.1-.7-4.5.3-6.3.2-.2.4-.4.7-.5.3-.1.6 0 .8.2.4.3.6.8.8 1.2.2.9.3 1.7.2 2.4-.2 1.5-.8 2.6-1.3 3.2-.2.3-.5.6-.6.7-.2.1-.3.2-.3.2s.3-.3.7-1c.4-.7 1-1.7 1.1-3.2.1-.7 0-1.5-.2-2.3-.1-.4-.3-.8-.6-1-.3-.2-.7-.1-.9.3-.9 1.6-1 3.8-.2 5.9.4 1 .9 1.9 1.7 2.6.7.7 1.5 1.3 2.4 1.4.8.1 1.7-.6 1.6-1.4 0-.4-.3-.7-.6-.8-.3-.2-.7-.3-1-.4-1.4-.4-2.6-.4-3.4-.4-.8.1-1.3.1-1.3.1z"/><path class="st12" d="M550.5 451.9s-.1 0-.2.1c-.2.1-.4.2-.7.3-.7.2-1.6.6-2.7 1-2.4.8-5.8 2-10.1 3.4s-9.4 3-15.1 4.5c-2.9.7-6 1.5-9.2 1.6-1.6.1-3.3 0-5-.3-.8-.2-1.7-.4-2.5-.8s-1.6-.7-2.2-1.4c-.3-.3-.7-.5-1-.9-1.2-1.5-1.4-3.4-1.1-5.1.3-1.8 1.4-3.3 2.6-4.4 1.2-1.2 2.7-2 4.1-2.7.7-.3 1.5-.7 2.2-.9.7-.2 1.5-.5 2.2-.7 5.9-1.7 11.5-1.9 16-2.4 2.3-.2 4.3-.5 6.1-.9 1.8-.4 3.3-.7 4.5-1.1.6-.2 1.1-.4 1.6-.5.4-.2.8-.3 1.2-.5.3-.1.5-.2.7-.3.2-.1.2-.1.3-.1 0 0-.1.1-.2.1-.2.1-.4.2-.7.3-.3.1-.7.3-1.1.5-.5.2-1 .4-1.6.6-1.2.4-2.7.8-4.5 1.2-1.8.4-3.9.7-6.2.9-4.6.6-10.1.8-15.9 2.5-.7.2-1.4.5-2.2.7-.7.3-1.4.6-2.2.9-1.4.7-2.8 1.5-4 2.6-1.2 1.1-2.2 2.5-2.5 4.2-.3 1.6 0 3.4 1 4.7.2.3.6.6.9.8.6.5 1.3 1 2.1 1.3.8.3 1.6.5 2.4.7 1.6.3 3.3.4 4.9.3 3.2-.1 6.3-.8 9.1-1.5 5.8-1.5 10.9-3 15.2-4.4 4.3-1.3 7.7-2.5 10.1-3.2l2.7-.9c.3-.1.5-.2.7-.2h.3z"/><path class="st12" d="M516 461.8c-.1 0-.2-.9-.5-2.4s-.7-3.6-1.3-5.8c-.6-2.3-1.2-4.3-1.7-5.7-.5-1.5-.8-2.4-.7-2.4.1 0 .5.8 1 2.3.6 1.4 1.2 3.5 1.8 5.7.6 2.3 1 4.4 1.2 5.9.2 1.5.3 2.4.2 2.4z"/><path class="st12" d="M501.6 460.8s-.3-.3-.8-.9c-.5-.6-1.1-1.6-1.5-2.9-.2-.7-.4-1.4-.3-2.2.1-.8.3-1.6.6-2.5.7-1.7 1.9-3.3 3.5-4.7 1.6-1.4 3.5-2.2 5.2-2.8 1.7-.6 3.4-.9 4.7-1.2 1.4-.3 2.5-.4 3.3-.5.8-.1 1.2-.2 1.2-.2h-1.2c-.8.1-1.9.2-3.3.4s-3.1.5-4.8 1.1c-1.8.6-3.7 1.5-5.4 2.9-1.7 1.4-3 3.1-3.6 4.9-.3.9-.5 1.8-.6 2.6 0 .9.2 1.7.4 2.3.5 1.3 1.2 2.3 1.7 2.9.5.7.9.9.9.8zM539.7 438.3s24.9-38.6 31.2-40.6c6.3-1.9 17.5-3.4 26.9 0 9.4 3.4 36.7 15 36.7 15l17.2 5.7c15 5 26.1 17.7 29.1 33.3 0 0-21.7 17.8-38.1 14.7-16.4-3.1-61.1-23.2-61.1-23.2-4.8 2.8-12.5 4.1-16.1 5.6-10 4.3-15.4 5.5-15.4 5.5l-10.4-16z"/><path class="st11" d="M568.9 437.4c0 .1 1.1.6 3 1.5 2 1 4.4 2.2 7.2 3.5 2.8 1.4 5.4 2.6 7.3 3.4 1.9.8 3.1 1.2 3.1 1.2 0-.1-1.1-.6-3-1.5-2-1-4.4-2.2-7.2-3.5-2.8-1.4-5.4-2.6-7.3-3.4-1.9-.8-3.1-1.3-3.1-1.2zM561.6 420.6c.1 0 .5-1.3 1.3-3.5.8-2.1 2.1-5 3.9-8 1.8-3 3.7-5.5 5.2-7.2 1.5-1.7 2.5-2.7 2.5-2.8 0 0-.3.2-.8.6-.5.4-1.2 1.1-1.9 1.9-1.6 1.7-3.6 4.2-5.4 7.2-1.8 3-3 6-3.8 8.1-.4 1.1-.6 2-.8 2.6-.1.7-.2 1.1-.2 1.1zM568.2 425.9c-.1 0 .3 1.8 1.9 3.3 1.6 1.5 3.4 1.8 3.4 1.7.1-.1-1.6-.7-3-2.1-1.5-1.4-2.2-3-2.3-2.9z"/><path class="st12" d="M466.6 428.4s72.8-79.1 76.9-81.3c1.9-1 12.7-11.7 15.4-11.7 3.6 0 7.2 1.2 10 3.5l46.7 44.4 13.7 29.8-29.1 15.7-39.3-34-67.8 55.5-26.5-21.9z"/><path class="st11" d="M564.3 403.8s.2-.2.5-.6c.3-.4.8-.9 1.4-1.6 1.3-1.3 3.4-3.2 6.5-4.4 1.6-.6 3.4-1 5.3-.9 2 .1 4 .5 6.1 1.1 2.1.6 4.3 1.5 6.6 2.3 2.3.8 4.6 1.7 7.1 2.5 9.7 3.4 18.4 6.5 24.8 8.8 3.1 1.1 5.7 2 7.5 2.6l2.1.7c.5.2.7.2.7.2s-.2-.1-.7-.3c-.5-.2-1.2-.5-2-.8-1.8-.7-4.4-1.6-7.5-2.8-6.4-2.3-15.1-5.4-24.8-8.9-2.4-.9-4.8-1.7-7.1-2.5s-4.5-1.6-6.6-2.3c-2.1-.6-4.3-1-6.3-1.1-2-.1-3.9.4-5.5 1-3.2 1.3-5.3 3.2-6.5 4.6-.6.7-1.1 1.3-1.4 1.7-.1.4-.2.7-.2.7z"/><path class="st13" d="m583.6 370.3-61.3-19.5c-3.8-1.2-6.1-5.1-5.2-9l1.7-7.7 52 2.6 44-31.1c2.7-1.9 5.8-3.2 9.1-3.7l8.7-1.4 26.8-7.7 29.8 29.7c2.4 2.4 3.9 5.6 4 9.1l1.4 35.3c.2 5.3 0 10.7-.6 16l-5.7 50.3s-1.6 25.9-12.8 21.9c0 0-12.6-24.2-27-33s-34.6-15.9-34.6-15.9l3.1-48-.4-10.2-33 22.3z"/><path class="st3" d="M559.3 362.1s-.1-.4-.2-1c-.1-.7-.2-1.7-.3-2.9-.1-1.2 0-2.7.1-4.3.2-1.6.5-3.4 1-5.2 1-3.6 2.6-6.7 3.9-8.8.7-1 1.3-1.8 1.7-2.4.4-.5.7-.8.7-.8.1.1-.9 1.3-2.1 3.4-1.2 2.1-2.7 5.1-3.7 8.7-.5 1.8-.8 3.5-1 5.1-.2 1.6-.3 3.1-.2 4.3 0 2.4.2 3.9.1 3.9zM538 356.5s-.1-.3-.3-.8c-.2-.5-.3-1.4-.4-2.4-.3-2-.3-4.8.2-7.9.6-3.1 1.7-5.7 2.7-7.4.5-.9.9-1.6 1.3-2 .3-.5.5-.7.6-.7.1.1-.6 1.1-1.5 2.9-.9 1.8-1.9 4.4-2.5 7.4-.6 3-.6 5.8-.4 7.8.2 1.8.4 3 .3 3.1z"/><path class="st12" d="m514 312.9 2.4-.8c.4-.1.9-.2 1.3-.1 2.8.6 13.6 3.1 17.7 4 1.1.3 2 1 2.5 2l16.6 34.7c.4.9.2 2-.5 2.7l-40-42.5z"/><path class="st11" d="m514 312.9 18.3 36.8 21.8 5.8-18.6-36.4c-.4-.8-1.2-1.4-2-1.6l-19.5-4.6z"/><path class="st16" d="M512.4 328.9c.4-.6-3.8-20-2.6-20.6 1.2-.5 1.8-.3 2.6.8.8 1.2 5.6 12.6 5.6 12.6l2.1-.8c.6-.2 1.2-.3 1.8-.2 3.2.5 13.6 2 13.5 2.4 0 0 .2 4-3.4 3.2l5.1 1.6s1.7 3-1.4 3.5h-3.6l5.6 1.1s-.6 3.1-2.6 3.3c-2 .2-7.5-.6-7.5-.6l-1.2 2.7 5.8 11.7-9.8-3.3s-5.2-2.7-4.8-5.4c0 0-3.8-2.2-3.8-5.1.1.2-3.7-3.8-1.4-6.9z"/><path class="st17" d="M514.7 328.3c.1.1.8-.6 2.3-1.5.7-.4 1.6-.9 2.6-1.3s2.2-.7 3.4-.7c2.5 0 4.8.5 6.4.9 1.6.4 2.6.7 2.6.6 0-.1-.9-.5-2.6-1-1.6-.5-3.9-1-6.5-1.1-1.3 0-2.6.3-3.6.8-1 .4-1.9.9-2.6 1.4-1.3 1-2 1.8-2 1.9zM518.3 333.2c.1 0 .5-.8 1.5-1.7.5-.5 1.2-1 2-1.2.8-.2 1.9-.2 2.9-.1 2.1.3 4 .8 5.4 1.1 1.4.3 2.3.4 2.2.3.1-.1-.8-.3-2.1-.7-1.4-.3-3.2-.9-5.4-1.2-1.1-.1-2.1-.1-3.1.1-1 .3-1.6.9-2.1 1.4-1.1 1.1-1.4 1.9-1.3 2zM512.7 328.6c.1 0 .3-.6.8-1.7.4-1 1.1-2.5 2.3-3.6 1.2-1.1 2.7-1.6 3.8-1.9 1.1-.3 1.8-.5 1.7-.6 0-.1-.7 0-1.8.2-1.1.3-2.7.7-4.1 1.9-1.3 1.2-1.9 2.8-2.3 3.9-.3 1.1-.4 1.8-.4 1.8z"/><path class="st16" d="m572 344.6-16-16.7-13.2-4.7-4.1 1.6-9.6-1.9c-1.5-.3-2.7 1.4-1.8 2.6l.3.3c.9.5 13.4 4.5 13.4 4.5l-16-1.3s-1.7.8-.3 2.1 6.8 2.8 10.3 3.4c1.8.4 6.2 2.5 6.2 2.5s-13.3 2.3-13.2 3.3c.1 1-.1 1.5 1 1.6 1.1.1 12.4-.3 14.1.1 1.7.5 7.7 8.5 10.9 10.2 3.2 1.7 6.4 0 6.4 0l3 3.2 7.3-10.2"/><path class="st17" d="M570.9 345.3s-.1.1-.1.2c-.1.1-.2.3-.4.5-.3.5-.8 1.1-1.4 2-1.3 1.7-3.1 4.3-5.5 7.5h.2c-.9-1-1.9-2.1-3-3.2 0 0-.1-.1-.2 0-1.3.6-3 .9-4.6.6-.8-.2-1.6-.5-2.3-1-.7-.5-1.4-1.1-2.1-1.8-1.3-1.3-2.7-2.8-4-4.3-.7-.8-1.4-1.5-2.2-2.3-.4-.4-.8-.7-1.2-1.1l-.3-.2-.4-.2c-.3-.1-.6-.1-.8-.1-2.2-.2-4.5-.1-6.8-.1-1.2 0-2.3 0-3.5.1h-1.8c-.6 0-1.3.1-1.7-.1-.2-.1-.2-.3-.2-.6v-.7c0 .1 0 0 0 0 .4-.3 1.1-.5 1.6-.6 1.2-.3 2.4-.6 3.7-.9 2.5-.5 5.1-1 7.7-1.5.1 0 .2-.2.2-.3 0-.1-.1-.2-.1-.2-1.4-.7-2.7-1.3-4.2-1.9-.7-.3-1.5-.6-2.3-.7-.8-.1-1.5-.3-2.3-.5-1.5-.4-3-.8-4.5-1.3-.7-.3-1.5-.5-2.2-.9-.3-.2-.7-.4-1-.6-.3-.2-.5-.5-.5-.8 0-.3.3-.7.7-.9h-.1c5.5.4 10.9.8 16 1.3.1 0 .3-.1.3-.2s-.1-.2-.2-.3c-2.4-.8-4.8-1.6-7.2-2.3-1.2-.4-2.3-.8-3.5-1.2-.6-.2-1.1-.4-1.7-.6-.3-.1-.6-.2-.8-.3-.1-.1-.2-.1-.3-.2-.1-.1-.1-.2-.2-.3-.2-.5-.2-1 .1-1.4.3-.4.8-.7 1.3-.7l3.3.6c2.2.4 4.4.8 6.5 1.2h.1c1.4-.5 2.8-1.1 4.1-1.6h-.1c4.8 1.7 9.3 3.3 13.2 4.7h-.1c5 5.2 9 9.3 11.8 12.2 1.4 1.4 2.4 2.5 3.2 3.3l.8.8.3.3-.3-.3c-.2-.2-.5-.5-.8-.9-.7-.8-1.8-1.9-3.1-3.3-2.7-2.9-6.7-7.1-11.7-12.3h-.1c-3.9-1.4-8.3-3-13.2-4.7h-.1c-1.3.5-2.7 1-4.1 1.5h.1c-2.1-.4-4.3-.8-6.5-1.3-1.1-.2-2.2-.5-3.4-.6-.7 0-1.3.3-1.7.9-.4.5-.5 1.3-.2 1.9.1.1.2.3.3.4.1.1.3.2.5.3l.9.3c.6.2 1.1.4 1.7.6 1.2.4 2.3.8 3.5 1.2 2.4.8 4.8 1.5 7.2 2.3l.1-.5c-5.2-.4-10.6-.8-16-1.3h-.1c-.3.1-.5.3-.7.5-.2.2-.3.5-.3.8 0 .6.4.9.7 1.2.3.3.7.5 1.1.7.7.4 1.5.6 2.3.9 1.5.5 3.1.9 4.6 1.3.8.2 1.5.4 2.3.5.7.1 1.5.4 2.2.7l4.2 1.8.1-.5c-2.6.5-5.2.9-7.7 1.5-1.3.3-2.5.6-3.7.9-.6.2-1.2.3-1.8.7-.1.1-.2.1-.2.3v.8c0 .2 0 .3.1.5s.2.4.4.5c.7.3 1.3.2 1.9.2h1.8c1.2 0 2.4 0 3.5-.1 2.3 0 4.6-.1 6.7.1.3 0 .5.1.8.1l.3.1.3.2c.4.3.8.7 1.2 1l2.2 2.2c1.4 1.5 2.7 2.9 4.1 4.3.7.6 1.4 1.3 2.1 1.8.8.5 1.6.9 2.5 1.1 1.7.4 3.4 0 4.8-.7h-.2c1.1 1.1 2.1 2.2 3 3.2 0 .1.1.1.2 0 2.3-3.3 4.1-5.8 5.4-7.6.6-.9 1.1-1.5 1.4-2 .1-.2.3-.4.3-.5-.3-.1-.2-.1-.2-.1z"/><path class="st17" d="M551.2 328.5c0-.1-.9-.4-2.5-1s-3.8-1.4-6.3-2.2c-.6-.1-1.2-.3-1.9-.4-3.1-.6-5.8-1.2-7.9-1.5-2-.4-3.3-.6-3.3-.5 0 .1 1.2.4 3.2.8 2 .5 4.8 1.1 7.8 1.7.6.1 1.3.3 1.9.4 2.5.8 4.8 1.6 6.4 2.1 1.6.4 2.5.7 2.6.6z"/><path class="st13" d="m659.9 328.7-43 37.3-44.3-25.3s-14 7.4-11 19.8l39.2 31c11.3 9 27.3 9.2 38.9.6l15-11.1 34-28.5s5.6-18.1-6.7-23.7c-12.2-5.7-22.1-.1-22.1-.1z"/><path class="st12" d="M654 333.9s-.2.2-.7.5c-.5.4-1.1.9-1.9 1.7-1.7 1.5-4.2 3.6-7.4 6.4-6.4 5.6-15.7 13.6-27.1 23.4h.2c-12.6-7.2-27.7-15.9-44.3-25.4l-.1-.1-.1.1c-3.4 1.9-6.7 4.5-9 8-2.2 3.5-3.3 7.9-2.2 12.1v.1l.1.1c3.9 3.1 8 6.3 12.2 9.6 7.6 6 15 11.9 22.2 17.6 6 5.4 13.2 8.9 20.5 10.3 3.7.6 7.4.7 10.9-.1 3.5-.9 6.7-2.3 9.6-3.9 5.9-3.2 10.9-7.2 15.5-11 4.5-3.8 8.7-7.4 12.5-10.6 7.6-6.4 13.7-11.6 17.9-15.2 2.1-1.8 3.7-3.1 4.8-4.1.5-.5.9-.8 1.2-1.1.3-.2.4-.4.4-.4s-.2.1-.4.3c-.3.2-.7.6-1.3 1-1.1.9-2.7 2.3-4.8 4-4.2 3.5-10.3 8.7-18 15-3.8 3.2-8 6.7-12.6 10.5-4.6 3.7-9.6 7.7-15.5 10.9-2.9 1.6-6.1 3-9.5 3.9-3.4.8-7.1.7-10.7.1-7.2-1.4-14.4-4.9-20.3-10.2-7.2-5.7-14.6-11.6-22.2-17.6-4.2-3.3-8.3-6.6-12.2-9.6l.1.1c-.5-2-.5-4.1-.2-6.1.4-2 1.2-3.9 2.2-5.6 2.2-3.4 5.4-5.9 8.8-7.8h-.2c16.6 9.5 31.7 18.1 44.3 25.3l.1.1.1-.1c11.4-9.9 20.6-17.9 27-23.5 3.2-2.8 5.7-5 7.4-6.5.8-.7 1.5-1.3 1.9-1.7.6-.3.8-.5.8-.5zM661.9 328.1c.1.1 1.6-1.1 4.4-1.8 2.9-.7 7.1-1 11.4.3 2.2.6 4.1 1.7 5.6 2.9s2.6 2.7 3.5 3.9c.8 1.2 1.5 2.3 1.9 3 .5.7.7 1.1.8 1.1l-.6-1.2c-.4-.7-1-1.8-1.8-3.1-.8-1.2-1.9-2.7-3.5-4-1.5-1.3-3.5-2.4-5.7-3-4.5-1.3-8.8-1-11.7-.2-1.5.4-2.6.9-3.3 1.4-.4.2-.6.4-.8.5l-.2.2z"/><path class="st12" d="M615.3 322.1v1.7c.1 1.2.2 2.8.3 4.7.2 4 .4 9.5.6 15.5.2 6 .3 11.5.4 15.5.1 1.9.1 3.5.2 4.7.1 1.1.1 1.7.1 1.7s.1-.6.1-1.7v-4.7c0-4-.1-9.5-.3-15.6-.2-6.1-.5-11.6-.8-15.5-.2-2-.3-3.6-.4-4.7-.1-1-.2-1.6-.2-1.6zM619.8 306c-.1 0-.6.5-1.2 1.5-.7 1-1.5 2.4-2.1 4.1-.7 1.7-1 3.3-1.2 4.5-.2 1.2-.2 1.9-.1 1.9.2 0 .5-2.9 1.8-6.2 1.2-3.3 2.9-5.7 2.8-5.8z"/><path class="st3" d="M642 390.5c-1.6-2.1-5.3-6.8-10.6-13.8-2.9-3.8-5.5-7.2-7.5-9.8-.9-1.2-1.6-2.2-2.2-3-.5-.7-.8-1.1-.8-1.1s.4.3.9 1c.6.8 1.4 1.7 2.3 2.9 2 2.5 4.6 5.9 7.6 9.7 2.9 3.8 5.5 7.3 7.4 9.8 1.9 2.6 3 4.2 2.9 4.3zM661.1 375.8s-.4-.3-1-1c-.6-.6-1.6-1.6-2.7-2.8-2.2-2.4-5.3-5.7-8.5-9.5s-6-7.3-8-9.9c-1-1.3-1.8-2.3-2.3-3.1-.5-.7-.8-1.2-.8-1.2s.4.4.9 1.1c.6.8 1.5 1.8 2.5 3 2.1 2.5 4.9 6 8.2 9.8 3.2 3.8 6.2 7.2 8.4 9.6 1 1.2 1.9 2.1 2.6 2.9.4.6.8 1 .7 1.1zM681 358.9s-.4-.3-1.1-.9c-.7-.6-1.7-1.5-2.9-2.6-2.4-2.2-5.7-5.4-9.1-9-3.4-3.7-6.3-7.2-8.3-9.7-1-1.3-1.8-2.4-2.3-3.1-.5-.7-.8-1.2-.8-1.2s.4.4.9 1.1c.6.8 1.5 1.8 2.5 3 2.1 2.5 5 6 8.4 9.6 3.4 3.7 6.6 6.9 9 9.1 1.1 1.1 2.1 2 2.8 2.7.5.7.9 1 .9 1zM612.6 395.5c-.1 0 .3-6.3 1-14.1s1.4-14 1.5-14c.1 0-.3 6.3-1 14.1-.6 7.7-1.3 14-1.5 14zM602.7 359.7c.1.1-.9 1.1-2.3 2.8-1.4 1.7-3.4 4.1-5.4 6.9-2 2.8-3.8 5.3-5 7.2-1.2 1.9-2 3.1-2 3 0 0 .1-.3.4-.9.3-.6.7-1.4 1.3-2.3 1.2-1.9 2.9-4.6 4.9-7.3 2.1-2.8 4.1-5.2 5.6-6.8.8-.8 1.4-1.5 1.8-1.9.4-.5.7-.7.7-.7zM583.7 347.5c.1.1-.9 1-2.4 2.5s-3.4 3.6-5.5 6.1c-2 2.5-3.7 4.8-4.9 6.6-1.2 1.7-1.9 2.8-1.9 2.8s.1-.3.4-.8c.3-.5.7-1.3 1.2-2.2 1.1-1.8 2.7-4.2 4.8-6.7 2-2.5 4.1-4.6 5.6-6 .8-.7 1.4-1.3 1.9-1.7.5-.4.7-.6.8-.6zM602.9 354.9c-.1 0-.5-1.8-1.5-4.7-.5-1.4-1.2-3.1-2.2-4.9-.9-1.8-2.1-3.7-3.4-5.6-1.4-1.9-2.8-3.5-4.2-5-1.4-1.4-2.8-2.6-4-3.6-2.4-1.9-4-2.8-4-2.9l1.2.6c.4.2.8.5 1.3.8.5.3 1.1.7 1.7 1.2 1.2.9 2.6 2.1 4.1 3.5 1.4 1.4 2.9 3.1 4.3 5s2.5 3.8 3.4 5.7c.9 1.8 1.6 3.5 2.1 5 .3.7.4 1.4.6 2 .2.6.3 1.1.4 1.5.2.9.2 1.4.2 1.4zM615.4 345.8c-.1 0 .1-1.9-.1-4.9-.1-1.5-.4-3.3-.8-5.3-.5-1.9-1.1-4.1-2-6.2-.9-2.1-2-4.1-3-5.7-1.1-1.7-2.2-3.1-3.2-4.2-2-2.3-3.5-3.5-3.4-3.5 0 0 .4.3 1.1.8.3.3.7.6 1.2 1 .4.4 1 .9 1.5 1.5 1.1 1.1 2.2 2.5 3.3 4.2 1.1 1.7 2.2 3.7 3.1 5.8.9 2.2 1.5 4.3 2 6.3.4 2 .6 3.8.7 5.3.1.8 0 1.5 0 2.1 0 .6 0 1.1-.1 1.6-.2.8-.3 1.3-.3 1.2zM642.2 341.1h-1.1c-.7 0-1.7-.2-3-.3-2.5-.4-5.9-1.1-9.5-2.3-3.6-1.3-6.8-2.8-9-4-1.1-.6-2-1.2-2.5-1.6-.6-.4-.9-.6-.9-.7 0-.1 1.4.7 3.6 1.9s5.4 2.6 9 3.9c3.6 1.2 7 2 9.4 2.5 2.5.4 4 .5 4 .6zM629.4 355.6c0 .1-.8.1-2-.1-1.2-.1-2.9-.5-4.7-1-1.8-.5-3.3-1.2-4.4-1.8-1.1-.6-1.7-1-1.7-1 .1-.1 2.7 1.2 6.3 2.3 3.5 1.1 6.5 1.5 6.5 1.6zM664.1 325.5h-1.9c-1.2 0-3-.2-5.2-.4-4.3-.4-10.3-1.3-16.8-2.9-6.5-1.6-12.2-3.7-16.2-5.3-2-.8-3.6-1.6-4.7-2.1-.5-.2-.9-.5-1.3-.6-.3-.1-.4-.2-.4-.3 0 0 .2 0 .5.2.4.1.8.3 1.3.5 1.1.5 2.7 1.2 4.8 1.9 4.1 1.6 9.7 3.6 16.2 5.2 6.4 1.6 12.4 2.5 16.7 3 2.2.3 3.9.4 5.1.5.6.1 1 .1 1.4.1.3.2.5.2.5.2zM678.5 316.1c0 .1-1.1-.5-2.7-1.4-1.7-.9-4-2.1-6.7-3.2s-5.2-2-7-2.6c-1.8-.6-3-.9-2.9-1 0-.1 1.2.1 3 .6 1.9.5 4.4 1.3 7.1 2.4 2.7 1.1 5 2.4 6.7 3.4 1.5 1.1 2.5 1.8 2.5 1.8zM690.6 393.7s-.6.1-1.7.2-2.6.2-4.6.2c-1.9 0-4.2-.1-6.8-.3-2.5-.2-5.3-.6-8.2-1.2-2.9-.6-5.6-1.4-8-2.2-2.4-.8-4.6-1.6-6.3-2.4-1.8-.8-3.2-1.5-4.1-2-.9-.5-1.5-.8-1.4-.8 0 0 .6.2 1.5.7 1 .5 2.4 1.1 4.2 1.8 1.8.7 3.9 1.5 6.3 2.3 2.4.8 5.1 1.5 8 2.1 2.9.6 5.6 1 8.1 1.3 2.5.2 4.8.4 6.7.4h4.5c1.2-.1 1.8-.1 1.8-.1zM692.8 369.1l-.9.3c-.6.1-1.4.3-2.5.4-2.1.3-5 .5-8.3.4-3.2-.1-6.1-.6-8.2-1.1-1-.2-1.9-.5-2.4-.7l-.9-.3c0-.1 1.3.2 3.4.6 2.1.4 4.9.8 8.1 1 3.2.1 6.1 0 8.2-.2 2.2-.3 3.4-.5 3.5-.4zM688.4 413.8s-.3 0-.7.1c-.5 0-1.2.1-2.1.1-.9 0-2 .1-3.4.1h-4.4c-3.3-.1-7.2-.3-11.5-.7-4.3-.4-9.1-1.1-14-2-4.9-.9-9.6-2-13.8-3.2-4.2-1.2-7.9-2.4-11-3.5-1.6-.5-2.9-1.1-4.2-1.6-1.2-.5-2.3-.9-3.1-1.3-.8-.3-1.5-.6-1.9-.8-.4-.2-.7-.3-.7-.3s.2.1.7.2c.5.2 1.2.4 2 .8.9.3 1.9.7 3.1 1.2 1.2.4 2.6 1 4.2 1.5 3.1 1.1 6.8 2.2 11 3.4 4.2 1.1 8.9 2.2 13.8 3.1 4.9.9 9.7 1.5 14 2 4.3.4 8.2.7 11.5.8 1.6.1 3.1.1 4.4.1h5.4c.5-.1.7 0 .7 0zM687.9 430.3s-.3.2-.9.5c-.6.3-1.5.7-2.6 1.1-2.3.8-5.5 1.8-9.2 2.2-3.7.5-7 .4-9.4.2-1.2-.1-2.2-.2-2.8-.4-.7-.1-1-.2-1-.2 0-.1 1.5.1 3.9.3 2.4.1 5.7.1 9.3-.3 3.6-.5 6.8-1.3 9.1-2.1 2.2-.8 3.6-1.4 3.6-1.3zM685.8 443.3c.1 0-.4.7-1.2 1.6-.8.9-2.1 2.1-3.6 3.2-1.6 1.1-3.1 1.8-4.3 2.2-1.2.4-1.9.6-1.9.5-.1-.2 2.9-1 6-3.1 2.9-2.1 4.8-4.5 5-4.4z"/><path d="M613.8 397.4c9.1 5.9 21.2 5.5 31.2 1.4s18.4-11.3 26.5-18.5c6.3-5.6 12.9-11.8 15-20 .4-1.5.4-3.4-.9-4.1-1.4-.7-3 .5-4.1 1.6-10.5 10.4-22.5 19.2-34.4 28-4.7 3.4-9.4 6.9-14.6 9.3-5.3 2.4-11.2 3.7-16.9 2.6M602.1 357.5c4.6-3.2 8.1-5.7 12.7-8.9.5-.3.9-.7 1.2-1.1.3-.5.3-1.2-.2-1.5-4.6 3.5-10.4 5.4-16.1 5.4-5.8 0-11.5-2-16.1-5.6-2.2-1.7-4.1-3.7-6.5-5-2.4-1.3-5.5-1.8-7.8-.3l-1.3.7 1.7 1.1 3-1.8 29.4 17z" class="st15"/><path class="st16" d="M648.6 316.2c-8.3 1.6-16.3-4.2-17.3-12.7-.3-2.8-.6-4.8-.6-4.8s-11.8.5-14.2-11c-2.4-11.5-5.5-38.2-5.5-38.2 12.2-8.3 27.9-9.4 41.1-2.8l2 1 6.4 52.3c.8 7.7-4.4 14.7-11.9 16.2z"/><path class="st17" d="M630.7 298.7s7.3-1 14.1-7.3c0 0-2 9-13.7 10.2l-.4-2.9z"/><path class="st16" d="M654.9 259.9c.2-.1 7.4-3.9 8.7 4 1.3 7.9-6.9 7.6-7 7.3 0-.2-1.7-11.3-1.7-11.3z"/><path class="st17" d="M658.6 267.8s.2.1.4.1c.2.1.6.1 1-.1.8-.4 1.3-1.9 1.1-3.3-.1-.7-.4-1.4-.7-1.9-.3-.5-.8-.9-1.2-.9-.4 0-.7.3-.8.5-.1.2 0 .4 0 .4s-.2-.1-.2-.4c0-.2.1-.4.2-.5.2-.2.4-.3.7-.3.6-.1 1.3.4 1.6 1 .4.6.7 1.3.8 2.1.2 1.6-.4 3.2-1.5 3.7-.5.2-1 .1-1.3 0-.1-.2-.1-.3-.1-.4z"/><path class="st12" d="M616.9 267.8c.1.9 1 1.5 1.9 1.3.9-.1 1.5-.9 1.4-1.8-.1-.9-1-1.5-1.9-1.3-.9.2-1.5 1-1.4 1.8zM616.3 265.2c.2.2 1.3-1 3.1-1.3 1.8-.4 3.2.3 3.4 0 .1-.1-.2-.5-.9-.8-.6-.3-1.7-.5-2.8-.3-1.1.2-1.9.8-2.4 1.3-.4.6-.5 1-.4 1.1zM634.1 264.5c.1.9 1 1.5 1.9 1.3.9-.1 1.5-.9 1.4-1.8-.1-.9-1-1.5-1.9-1.3-.9.1-1.5.9-1.4 1.8zM633.7 262.2c.2.2 1.3-1 3.1-1.3 1.8-.4 3.2.3 3.4 0 .1-.1-.2-.5-.9-.8-.6-.3-1.7-.5-2.8-.3-1.1.2-1.9.8-2.4 1.3-.4.6-.5 1-.4 1.1zM629.8 276.5c0-.1-1.1-.1-3 0-.5 0-.9 0-1-.3-.2-.3-.1-.8 0-1.4.2-1.2.4-2.4.7-3.7.9-5.2 1.5-9.5 1.2-9.6-.2 0-1.1 4.2-2 9.4-.2 1.3-.4 2.5-.6 3.7-.1.5-.3 1.2.1 1.8.2.3.6.5.9.5h.8c1.8-.1 2.9-.3 2.9-.4zM635.3 276.7c-.3 0 .1 2-1.3 3.6-1.4 1.7-3.5 1.9-3.4 2.1 0 .1.5.3 1.4.1.9-.1 2-.6 2.9-1.7.8-1 1.1-2.2 1-3-.2-.7-.5-1.1-.6-1.1zM631.9 255.3c.3.4 2-.1 4.1-.3 2.1-.2 3.9.1 4.1-.4.1-.2-.3-.6-1.1-1-.8-.3-1.9-.6-3.2-.5-1.3.1-2.4.5-3.1 1-.6.6-.9 1-.8 1.2zM615.9 260c.4.3 1.5-.3 3-.6 1.4-.4 2.8-.3 3-.7.1-.2-.2-.6-.8-.9-.6-.3-1.6-.4-2.6-.2s-1.8.8-2.2 1.3c-.5.5-.5.9-.4 1.1z"/><path class="st12" d="M603.9 243.3c-.4-1.4-.2-3 .8-4.1 1-1.1 2.8-1.4 4-.5-.9-1.8.2-4.3 2.2-4.8 1.8-.5 3.7.6 5.6.8 1.9.1 3.7-.6 5.2-1.7 1.6-1 3-2.3 4.6-3.2 3.3-2 7.5-2.6 11.3-1.7 3.8.9 7.2 3.4 9.2 6.7 2.4-1.3 5.5-.6 7.4 1.3 2 1.8 2.9 4.5 3.1 7.2.1 1.8 0 3.6-.3 5.4 0 .1.1.3.1.4 1.1 6.3 1.8 13.9-.8 14.5-4.7 1-5.3-8.1-5.3-8.1-6.2-1.1-5.7-10.2-7.4-11.2-1.7-1-5.3-3.5-16.2 5-4.2 3.3-10.5 4.4-14 4.3h-.5c-1.1-.1-2.3-.3-3.4-.7-1.2-.5-2.4-1.2-3.1-2.3-.7-1.1-.8-2.7 0-3.7-1.1-1-2.1-2.2-2.5-3.6z"/></g><g id="Plant"><path class="st13" d="M84.7 358.8c12.7-13 32.7-18.5 50.3-13.8-15.3 10.3-32.5 15.8-50.9 15.9M101.8 298.3c-2.1-14.8 3.7-31.5 14.8-42.3.3 14.8-5.9 31.3-14.8 42.3M92.9 326.3c7.9-15.1 20.9-27.5 36.4-34.7-4.6 17.1-19.2 31-36.5 34.9"/><path class="st13" d="M91.1 331.8c9 .3 18-.1 26.7-2.4s17-6.7 22.7-13.6c-17.4 0-34.8 5.3-49.3 15M95.6 314c-4.5-17-12-28.8-25.4-38.4-1 8.3 1 16.9 5.6 23.9 4.6 6.9 11.8 12.2 19.8 14.5M61.8 343.3c-.2-9.9 6.1-19.6 15.3-23.4-.7 8.9-7.6 19-15.3 23.4M57.6 329c-1-14.2-11.1-27.4-24.6-32 3 14.2 11.3 26 24.6 32M64 354.5c-3.2-4.5-8.3-7.3-13.6-8.7s-10.9-1.5-16.4-1.6c7.4 8.2 18.6 12.8 29.6 12.3M70.4 390.8c-9.9-3.1-21-2.3-30.4 2.2-9.4 4.5-17 12.5-20.9 22.1 18.6-3.6 37-11.8 51.3-24.3M90.9 378.1c-3.1 9.2-2.5 20.2 4.4 28.1 2.7-9.3 1.1-20-4.4-28.1M103 373.1c.9 11.8 8.4 22.8 19 28 .5.3 1.1.5 1.7.3.8-.3.9-1.5.8-2.4-1.4-11.8-10.1-23.2-21.5-25.9M110.9 371.9c5.2 5.7 12.9 9 20.6 9.1s15.4-3.2 20.7-8.9c-13.2-1.5-28.3-2.4-41.3-.2"/><path class="st12" d="M112.8 267s0 .1-.1.4c-.1.3-.2.6-.4 1.1-.4 1-.9 2.4-1.6 4.2-.7 1.8-1.5 4.1-2.5 6.7-.5 1.3-1 2.7-1.5 4.2s-1.1 3.1-1.6 4.7c-2.3 6.6-4.9 14.6-7.7 23.5-2.7 8.9-5.6 18.7-8.4 29.1-2.8 10.4-5.3 20.3-7.4 29.4-2 9.1-3.8 17.3-5.1 24.2-.3 1.7-.6 3.4-.9 4.9-.3 1.6-.5 3-.7 4.4-.5 2.8-.9 5.1-1.2 7.1-.3 1.9-.5 3.4-.7 4.5-.1.5-.1.9-.2 1.2 0 .3-.1.4-.1.4v-.4c0-.3.1-.7.1-1.2.1-1.1.3-2.6.6-4.5.2-2 .6-4.3 1.1-7.1.2-1.4.5-2.9.7-4.4.3-1.6.6-3.2.9-4.9 1.2-6.9 2.9-15.1 5-24.2s4.5-19 7.3-29.4c2.8-10.4 5.7-20.2 8.5-29.1 2.8-8.9 5.4-16.8 7.8-23.5.6-1.7 1.1-3.2 1.7-4.7.6-1.5 1.1-2.9 1.6-4.2 1-2.6 1.8-4.9 2.5-6.7.7-1.8 1.3-3.2 1.7-4.2.2-.5.3-.8.4-1.1.2-.3.2-.4.2-.4z"/><path class="st12" d="m40.8 304.5.2.2c.2.2.4.4.6.7.5.6 1.3 1.5 2.3 2.6 2 2.3 4.8 5.7 7.7 10.3 2.9 4.6 6 10.4 8.1 17.3 2.2 6.9 3.5 14.7 4.8 22.9 2.7 16.4 5.9 31 8.3 41.6 1.2 5.3 2.2 9.5 2.8 12.5.3 1.5.6 2.6.8 3.4.1.4.1.7.2.9 0 .2.1.3 0 .3 0 0 0-.1-.1-.3-.1-.2-.1-.5-.2-.9-.2-.8-.5-1.9-.8-3.4-.7-3-1.7-7.3-3-12.5-2.5-10.6-5.8-25.2-8.5-41.6-1.3-8.2-2.7-16-4.8-22.8-2.1-6.9-5-12.7-7.9-17.2-2.9-4.6-5.6-8-7.6-10.4-1-1.2-1.7-2.1-2.3-2.7-.2-.3-.4-.5-.6-.7v-.2zM114.8 371.3s-.2 0-.5.1c-.4 0-.8.1-1.4.1-.3 0-.6.1-1 .1-.4.1-.7.1-1.2.2-.8.1-1.8.2-2.8.5-.5.1-1.1.2-1.6.3-.6.1-1.1.3-1.7.4-1.2.3-2.5.7-3.8 1.1-2.6.9-5.5 2.1-8.3 3.7-2.8 1.6-5.3 3.4-7.4 5.2-1 .9-2 1.8-2.9 2.7-.9.9-1.6 1.8-2.3 2.6-.7.8-1.2 1.6-1.7 2.3-.5.7-.9 1.3-1.1 1.8-.3.5-.5.9-.7 1.2-.2.3-.3.4-.3.4s0-.2.2-.4c.2-.3.4-.7.6-1.2.3-.5.6-1.2 1.1-1.9.5-.7.9-1.6 1.6-2.4.7-.8 1.4-1.8 2.2-2.7.8-1 1.8-1.9 2.9-2.8 2.1-1.8 4.7-3.7 7.5-5.3 2.9-1.6 5.7-2.8 8.4-3.7 1.4-.4 2.6-.8 3.9-1.1.6-.1 1.2-.3 1.8-.4.6-.1 1.1-.2 1.6-.3 1-.2 2-.3 2.8-.4.4 0 .8-.1 1.2-.1.4 0 .7 0 1-.1.5 0 1 0 1.4-.1.3.2.5.2.5.2zM118.5 304.8l-.9.9c-.7.6-1.6 1.4-2.7 2.3-2.3 2-5.5 4.6-9 7.6-3.5 2.9-6.8 5.6-9.1 7.5-1.1.9-2.1 1.6-2.8 2.2-.7.5-1 .8-1.1.8 0 0 .3-.4.9-.9.7-.6 1.6-1.4 2.7-2.3 2.3-2 5.5-4.6 9-7.6 3.5-2.9 6.8-5.6 9.1-7.5 1.1-.9 2.1-1.6 2.8-2.2.7-.5 1.1-.8 1.1-.8zM121.7 322.2c0 .1-6.8 2.3-15.4 4.8-8.5 2.5-15.5 4.5-15.5 4.3 0-.1 6.8-2.3 15.4-4.8 8.6-2.5 15.5-4.4 15.5-4.3zM96.3 315.3s-.3-.3-.7-1c-.5-.7-1.1-1.7-1.8-2.8-1.5-2.3-3.7-5.5-6.3-8.9-2.6-3.4-5.1-6.3-6.9-8.4-.9-1-1.6-1.8-2.2-2.5-.5-.6-.8-.9-.8-1 0 0 .3.3.9.8.6.5 1.3 1.4 2.3 2.4 1.9 2 4.5 5 7.1 8.4 2.6 3.4 4.7 6.6 6.2 9 .7 1.2 1.3 2.2 1.7 2.9.3.7.5 1.1.5 1.1zM72.4 324.9c.1 0-.6 1-1.6 2.7-1 1.6-2.4 3.9-3.9 6.4-1.4 2.5-2.7 4.9-3.5 6.6-.9 1.7-1.4 2.8-1.5 2.7-.1 0 .4-1.1 1.1-2.9.8-1.8 2-4.1 3.4-6.7 1.5-2.6 2.9-4.8 4-6.4 1.2-1.5 1.9-2.4 2-2.4z"/><path class="st12" d="M64.2 354.9c0 .1-1.3-.6-3.5-1.5-2.2-1-5.2-2.2-8.5-3.4-3.4-1.2-6.5-2.1-8.8-2.7-2.3-.6-3.7-.9-3.7-1 0 0 .4 0 1 .1.7.1 1.6.3 2.8.5 2.3.5 5.5 1.3 8.9 2.5 3.4 1.2 6.4 2.5 8.5 3.6 1.1.5 1.9 1 2.5 1.3.5.4.8.6.8.6zM70.6 390.8s-.1.1-.4.1c-.3.1-.7.2-1.2.3-1.2.3-2.7.6-4.6 1.1-3.9.9-9.2 2-15 3.9-5.7 1.9-10.6 4.4-14 6.6-1.7 1.1-3 2-3.8 2.7-.9.7-1.4 1.1-1.4 1l.3-.3c.2-.2.5-.5 1-.9.8-.7 2.1-1.7 3.8-2.8 3.3-2.2 8.2-4.8 14-6.7 5.8-1.9 11.2-3 15.1-3.8 1.9-.4 3.4-.7 4.6-.9 1-.2 1.6-.3 1.6-.3zM93.9 399.7c-.1 0-1-4.8-1.8-10.8-.9-6-1.5-10.8-1.3-10.9.1 0 1 4.8 1.8 10.8.9 6 1.5 10.8 1.3 10.9zM118.2 390.9c-.1 0-.9-1-2.2-2.6-1.3-1.6-3.1-3.9-5.2-6.3s-4-4.6-5.3-6.2c-1.4-1.6-2.2-2.6-2.2-2.6s.3.2.7.6c.4.4 1 1 1.7 1.8 1.5 1.5 3.4 3.7 5.5 6.1 2.1 2.5 3.8 4.7 5.1 6.4.6.8 1.1 1.5 1.4 2 .4.5.5.7.5.8zM54 413.4v11.9h3L67.7 459h23.6l10.3-33.3 4-.4v-11.9z"/><path class="st11" d="M103.6 425.7c0 .1-10.4.3-23.3.3s-23.3-.1-23.3-.3c0-.1 10.4-.3 23.3-.3s23.3.1 23.3.3z"/><path class="st12" d="M120.6 348.6s-.5.2-1.5.4c-1.1.3-2.5.6-4.1 1-3.5.9-8.3 2.2-13.5 3.9-5.2 1.8-9.8 3.6-13.1 5-1.6.7-2.9 1.3-3.9 1.7-.9.4-1.4.6-1.5.6 0 0 .5-.3 1.4-.8.9-.5 2.2-1.1 3.8-1.9 3.3-1.5 7.9-3.4 13.1-5.2 5.2-1.8 10.1-3 13.6-3.8 1.8-.4 3.2-.7 4.2-.8.9-.1 1.5-.2 1.5-.1z"/><path class="st3" d="M95.8 444.3c0 .1-7.3.3-16.3.3s-16.3-.1-16.3-.3 7.3-.3 16.3-.3c8.9.1 16.3.2 16.3.3zM96.7 441.6c0 .1-7.8.3-17.3.3-9.6 0-17.3-.1-17.3-.3 0-.1 7.8-.3 17.3-.3s17.3.1 17.3.3z"/></g></svg>