<svg version="1.1" id="Layer_1" xmlns="http://www.w3.org/2000/svg" x="0" y="0" viewBox="0 0 500 500" style="enable-background:new 0 0 500 500" xml:space="preserve"><style>.st2{opacity:.1;fill:#f5f5f5}.st3{fill:#e1e1e1}.st3,.st5{opacity:.1}.st6{fill:#e1e1e1}.st7{fill:#f5f5f5}.st8{fill:#fafafa}.st9{fill:#1a2e35}.st10{fill:#375a64}.st11{fill:#5b5fb5}.st12{fill:#ffbf9d}.st13{fill:#797bf2}.st14{fill:#ff9a6c}.st16{fill:#28282b}.st18{opacity:.6}.st19,.st20{fill:#fff}.st20{opacity:.6}.st21{opacity:.3}</style><path class="st2" d="M75.2 434.3c.9-3.4-1.4-6.9-3.9-9.4s-5.6-4.7-6.9-8c-2.2-5.3.7-12.3-3-16.7-2.2-2.6-6-3.5-7.9-6.3-1-1.5-1.3-3.3-1.7-5-2-8.8-6.5-17.1-12.8-23.6-.4 7.9 1.4 15.8 5.1 22.8 1.5 2.8 3.3 5.5 3.8 8.6.8 5.1-2 10.3-.7 15.3 1.5 5.7 7.9 9.5 8.2 15.3.3 5-4 9.3-3.7 14.3.1 2.1 1.1 4.1 2.2 5.9 3.9 6.4 9.5 10.7 18.1 10.5l10.5.3-7.3-24z"/><path class="st3" d="M84.6 458.7s1 .2 2.9-.1c.9-.1 2.1-.4 3.4-.9 1.3-.5 2.8-1.2 4.2-2.3.7-.6 1.4-1.3 1.7-2.3.4-1 .4-2 .5-3.1 0-1.1 0-2.2.2-3.4.2-1.2.6-2.3 1.3-3.4 1.2-2.2 3.3-4.2 3.9-7.2.7-2.9.2-6-.3-9.2-.5-3.1-1-6.6.2-9.8 1.1-3.3 3.4-6.2 4.5-9.9s.6-7.7.8-11.7c.1-2 .5-4 1.3-5.8.8-1.9 2-3.6 2.9-5.6 1.8-4 2.1-8.4 2.6-12.8.2-2.2.5-4.4.7-6.7.2-2.3.4-4.5 1.1-6.7.6-2.2 1.6-4.3 2.5-6.5.4-1.1.9-2.2 1.2-3.4.2-1.2.3-2.4.3-3.6.1-2.4 0-4.8-.3-7.2-.3-2.4-.7-4.8-1-7.2v-.4l-.1-.5-.4.2c-2.2 1.1-4.1 2.8-5.6 4.8s-2.6 4.2-3.4 6.4c-1.7 4.5-2.3 9.2-3.2 13.7-.8 4.5-1.9 8.9-4.2 12.7-1.1 1.9-2.5 3.6-3.7 5.4-1.2 1.8-2.3 3.8-2.6 6-.6 4.4 1.9 8.3 1.4 12.2-.2 1.9-.9 3.8-1.9 5.4-.9 1.7-2 3.2-3.1 4.8-1.1 1.6-2 3.2-2.8 4.8-.7 1.7-1.2 3.5-1.3 5.3-.2 3.5.3 6.9 0 10-.2 3.2-1.3 6-2.5 8.6-1.3 2.6-2.6 4.9-3.8 7.2-.6 1.1-1.1 2.2-1.6 3.3-.5 1.1-.7 2.2-.9 3.3-.3 2.2-.3 4.2 0 6 .5 3.6 1.8 6.2 3 7.6.3.4.6.7.9.9.2.3.5.4.7.6.3.4.5.5.5.5 0-.1-.9-.5-2-2-1.2-1.5-2.5-4-2.9-7.6-.2-1.8-.2-3.8.1-5.9.2-1.1.4-2.2.9-3.2.4-1.1 1-2.2 1.6-3.3 1.2-2.2 2.6-4.6 3.9-7.2 1.3-2.6 2.4-5.5 2.6-8.8.3-3.2-.2-6.6 0-10 .1-1.7.5-3.4 1.2-5.1.7-1.6 1.7-3.2 2.8-4.7 1.1-1.6 2.2-3.1 3.1-4.8 1-1.7 1.8-3.6 2-5.7.5-4.2-2-8.1-1.4-12.2.3-2 1.3-3.9 2.5-5.7 1.2-1.8 2.6-3.5 3.7-5.4 2.4-3.9 3.5-8.4 4.3-12.9.9-4.5 1.5-9.2 3.2-13.6.8-2.2 1.9-4.3 3.3-6.2 1.4-1.9 3.2-3.5 5.4-4.6l-.5-.3v.4c.3 2.4.7 4.8 1 7.2.3 2.4.4 4.8.3 7.1-.1 1.2-.1 2.4-.3 3.5-.2 1.1-.7 2.2-1.2 3.3-.9 2.2-1.8 4.3-2.5 6.6-.7 2.2-.9 4.6-1.1 6.8-.2 2.3-.5 4.5-.7 6.7-.5 4.4-.8 8.8-2.5 12.6-.9 1.9-2 3.7-2.9 5.6-.9 1.9-1.3 4-1.4 6-.2 4 .3 8-.7 11.6-1.1 3.6-3.3 6.6-4.5 9.9-1.2 3.4-.7 7-.2 10.1.5 3.1 1 6.2.4 9s-2.6 4.9-3.8 7.1c-.6 1.1-1.1 2.3-1.3 3.5-.2 1.2-.2 2.3-.2 3.4s-.1 2.1-.4 3c-.3.9-1 1.6-1.6 2.2-1.4 1.1-2.8 1.8-4.1 2.3-1.3.5-2.4.8-3.3.9-.9.2-1.6.2-2.1.2-.4.2-.7.2-.7.2z"/><path class="st3" d="M117 335.2s0 .1-.1.3c-.1.3-.1.6-.2.9-.2.8-.4 2.1-.8 3.6-.4 1.6-1.3 3.3-2.1 5.5-.8 2.1-1.7 4.6-2.4 7.4-.8 2.8-1.5 5.9-2.2 9.2-.7 3.3-1.5 6.9-3.3 10.2-.8 1.7-1.8 3.4-2.6 5.3s-1.2 3.9-1.5 6c-.5 4.1-1.2 8.4-2.2 12.7-2.1 8.6-4 16.8-5.8 24.2-1.8 7.4-3.5 14.1-4.8 19.8-1.3 5.6-2.4 10.1-3.2 13.3-.4 1.5-.6 2.7-.8 3.6-.1.4-.1.7-.2.9 0 .2-.1.3 0 .3 0 0 0-.1.1-.3.1-.2.2-.6.3-.9.2-.9.6-2.1 1-3.6.8-3.2 2-7.7 3.4-13.3 1.4-5.6 3.1-12.3 5-19.7 1.8-7.5 3.8-15.6 5.8-24.2 1-4.3 1.7-8.6 2.2-12.7.3-2.1.7-4 1.4-5.9.7-1.8 1.7-3.6 2.5-5.3 1.8-3.4 2.6-7.1 3.3-10.4.7-3.3 1.4-6.4 2.1-9.2.7-2.8 1.5-5.3 2.3-7.4.8-2.2 1.7-3.9 2-5.5.4-1.6.5-2.8.7-3.7.1-.4.1-.7.2-1-.1.1-.1-.1-.1-.1z"/><path class="st3" d="M86.5 458.7c6.8-4.1 8.7-16.4 5.8-23.9-2.9-7.4-7.9-14.2-8.7-22.1-.6-6.1 1.3-12.3-.1-18.3-2-8-9.8-14.2-9.8-22.4 0-4.6 2.6-9 2.4-13.6-.3-5.7-4.7-10.1-7.4-15.1-4.2-7.6-4.5-16.7-6-25.2-1.5-8.6-4.8-17.7-12.4-21.9-1.1 7.3-3 12.3-2.3 22.1.2 3.5 4.4 10.3 5 18.1.4 4.6.6 9.3.9 13.9.3 4.5.6 9.1 2.3 13.3 1.3 3.2 3.3 6.2 4.2 9.5 1.8 6.3-.5 13.1 1 19.5 1.2 5.4 5 10 5.8 15.5 1.1 7.7-3.8 15.7-1.2 23 1.3 3.6 4.3 6.5 5.2 10.3.7 2.9 0 6 .6 8.9 1 4.7 10 8.3 14.8 8"/><path d="M52.2 303.4v.4c0 .3.1.7.2 1.2.2 1.1.3 2.6.7 4.6.4 2 1.4 4.3 2.3 7 .9 2.7 1.8 5.8 2.6 9.3.8 3.5 1.5 7.4 2.2 11.6.7 4.1 1.5 8.7 3.6 13.1 1 2.2 2.1 4.4 2.9 6.7.8 2.3 1.2 4.8 1.5 7.4.4 5.2 1.1 10.5 2.1 15.9 2.2 10.8 4.2 21 6.1 30.4 2 9.3 3.7 17.7 5.2 24.7s2.7 12.7 3.6 16.7c.4 1.9.8 3.4 1 4.5.1.5.2.9.3 1.2.1.3.1.4.1.4s0-.1-.1-.4c-.1-.3-.1-.7-.2-1.2-.2-1.1-.5-2.6-.9-4.6-.8-4-2-9.7-3.4-16.7-1.5-7.1-3.2-15.5-5.1-24.8-1.9-9.3-3.9-19.6-6-30.4-1-5.4-1.7-10.7-2.1-15.9-.3-2.6-.7-5.2-1.5-7.5-.8-2.4-1.9-4.6-2.9-6.7-2.1-4.3-2.8-8.7-3.6-12.9-.7-4.2-1.4-8.1-2.3-11.6-.8-3.5-1.7-6.6-2.7-9.4-.9-2.7-2-5-2.4-6.9-.4-2-.6-3.5-.8-4.6-.1-.5-.2-.9-.2-1.2-.1-.1-.2-.3-.2-.3z" style="opacity:.1;fill:#ececec"/><g class="st5"><path class="st6" d="M208.5 43.9c5.8-6.8 21-2.5 31.4 3 0 0 7.2 3.4 9.8 5.1h.1l24.3-3c2-.2 4 .1 5.8 1l2 1c1 .5 1 2-.1 2.4l-17.9 7.7v.2c9.5 6.3 17.7 11.6 17.7 11.6.1.1.2.1.3.2 3.3 2.1 7.3 2.9 11.3 2.2l9.5-1.7c.5-.1 1-.1 1.4.1 1.7.7 2 2.9.6 4.1l-11 9.2c-1.7 1.4-4.1 1.8-6.1.8l-5.1-2.4-26-12.4 3 14.8c.1.6-.4 1.2-1 1.1h-1.2c-1.7-.1-3.2-1-4-2.4l-10.5-20L212 52c-4.1-1.9-5.6-5.4-3.5-8.1z"/></g><g class="st5"><path class="st7" d="m38.2 109.4 77.1-1.7s-7.1-12.3-26.9-10c-18.9 2.2-20.1-5.7-29.7-6.4s-17.6 6.8-20.5 18.1z"/></g><g class="st5"><path class="st7" d="M398.8 151.1h72.7s-6.4-11.7-25.1-10c-17.9 1.6-18.8-5.8-27.9-6.7-9.2-.9-16.7 6.1-19.7 16.7z"/></g><g class="st5"><path class="st7" d="M82.1 71.1h55.4s-4.9-8.9-19.2-7.6c-13.6 1.2-14.3-4.4-21.2-5.1-6.9-.7-12.7 4.6-15 12.7z"/></g><path class="st2" d="M398.8 187.7h36.3s-3.2-5.8-12.5-5c-8.9.8-9.4-2.9-13.9-3.3-4.6-.4-8.4 3.1-9.9 8.3z"/><g class="st5"><path class="st8" d="M380.7 87.4H417s-3.2-5.8-12.5-5c-8.9.8-9.4-2.9-13.9-3.3-4.6-.5-8.4 3-9.9 8.3z"/></g><path class="st9" d="M472.6 458.8c0 .1-100.9.3-225.4.3s-225.4-.1-225.4-.3 100.9-.3 225.4-.3 225.4.2 225.4.3zM403.5 282.5c-.2-1.4-1.4-2.5-2.8-2.5h-21.4c-1.8 0-3.1 1.6-2.8 3.4.3 1.3 1.5 2.3 2.8 2.3h21.3c1.8-.1 3.1-1.6 2.9-3.2z"/><path class="st9" d="M450.1 451.8c-.5 3.7 2 7.2 5.8 7.7 3.7.5 7.2-2 7.7-5.8.5-3.7-2-7.2-5.8-7.7-3.7-.5-7.2 2.1-7.7 5.8z"/><path class="st10" d="m455.4 452.8-4.1-8.5 2.1-1.4 4.1 8.9z"/><path class="st9" d="m417 347.2-25.8-67.3-4.9 2.5 25 66.7z"/><path class="st11" d="m438.4 451.2 38.1-15.1c1.4-.6 2.1-2.2 1.5-3.6l-37.9-95.4c-3-7.5-11.5-11.2-19-8.2l-16 6.4c-7.5 3-11.2 11.5-8.2 19l37.9 95.4c.6 1.4 2.2 2.1 3.6 1.5z"/><path class="st6" d="M434.8 450.1s-.1-.2-.2-.6c-.2-.4-.4-1-.6-1.7-.6-1.5-1.4-3.7-2.5-6.5-2.2-5.6-5.3-13.8-9.2-23.8-3.9-10.1-8.6-22-13.8-35.3-2.6-6.6-5.3-13.6-8.1-20.8-.7-1.8-1.4-3.6-2.1-5.5-.8-1.8-1-3.8-.8-5.7.5-3.9 3.2-7.5 6.9-8.9 3.7-1.5 8.2-.7 11.2 1.8 1.5 1.3 2.6 2.9 3.3 4.7.7 1.8 1.4 3.7 2.1 5.5 2.8 7.2 5.6 14.2 8.2 20.8 5.2 13.3 9.9 25.2 13.9 35.2 4 10 7.2 18.1 9.4 23.7 1.1 2.8 2 4.9 2.6 6.4.3.7.5 1.3.7 1.7l.3.6s-.1-.2-.2-.6c-.2-.4-.4-1-.6-1.7-.6-1.5-1.4-3.7-2.5-6.5-2.2-5.6-5.3-13.8-9.2-23.8-3.9-10.1-8.6-22-13.8-35.3-2.6-6.6-5.3-13.6-8.1-20.8-.7-1.8-1.4-3.6-2.1-5.5-.7-1.9-1.9-3.6-3.5-5-3.1-2.7-7.8-3.5-11.8-1.9-4 1.5-6.8 5.3-7.3 9.4-.2 2 .1 4.1.8 6 .7 1.8 1.4 3.7 2.1 5.5 2.8 7.2 5.6 14.2 8.2 20.8 5.2 13.3 9.9 25.2 13.9 35.2 4 10 7.2 18.1 9.4 23.7 1.1 2.8 2 4.9 2.6 6.4.3.7.5 1.3.7 1.7 0 .6.1.8.1.8z"/><path class="st6" d="M432.3 382.3c.1.3 5.1-1.7 11.1-4.4 6.1-2.7 10.9-5.1 10.8-5.3-.1-.3-5.1 1.7-11.1 4.4s-10.9 5.1-10.8 5.3z"/><path class="st12" d="m398.6 279.9-4.5-8.8c-.5-1-1.3-1.8-2.3-2.2l-7-2.9-18.9-25.6-1.8 19.6 12 12.4s7.5 15.9 13.7 15.1c0 0-.2-2.3-1.2-4.1-2-3.5.1-3.5.4-3.4h5.1l4.5-.1z"/><path class="st13" d="M367.8 266.4c.6.9 5.2 7.2 5.2 7.2l13.2-9.6-4.8-4.7-13.6 7.1z"/><path class="st12" d="M388.7 283.4s3.4 2 3.9 3.6v1l-4.1-.6.2-4zM393.3 285.3c-.6-.5-1.2-1.1-1.4-1.8-.2-.7 0-1.7.8-1.9.7-.2 1.4.3 2 .8.7.6 1.4 1.3 2 2 .5.6 1.1 1.3.9 2.1-.2.6-.8 1-1.4 1.1-.6 0-1.3-.3-1.7-.7s-.8-1-1.1-1.6"/><path class="st12" d="M396.8 285c-.6-.5-1.2-1.1-1.4-1.8-.2-.7 0-1.7.8-1.9.7-.2 1.4.3 2 .8.7.6 1.4 1.3 2 2 .5.6 1.1 1.3.9 2.1-.2.6-.8 1-1.4 1.1-.6 0-1.3-.3-1.7-.7s-.8-1-1.1-1.6"/><path class="st14" d="M386.3 269.9c0-.1.9-.1 1.9.8.5.5.8 1.2 1.2 1.9.4.8.8 1.7.7 2.7-.1 1.1-.7 1.9-1.1 2.6-.4.7-.7 1.4-.8 2-.3 1.2-.1 2-.1 2-.1 0-.5-.8-.2-2.1.1-.6.3-1.4.8-2.2.4-.7.9-1.5 1-2.4.1-.9-.3-1.8-.6-2.5-.4-.7-.7-1.5-1-1.9-.4-.4-.9-.7-1.2-.9-.4.1-.6.1-.6 0z"/><path style="fill:#353538" d="m243.9 179.7-14 44.8 41.3 43.1 37.8-9.9z"/><path class="st9" d="M243.9 179.7s.1.1.3.4c.2.3.5.6.9 1.1.8 1 2.1 2.5 3.7 4.4 3.2 3.8 7.9 9.4 13.7 16.3 11.7 14 28 33.5 46.6 55.7l.3.3-.4.1c-6.9 1.8-14 3.6-21.3 5.5-5.6 1.5-11.1 2.9-16.5 4.3h-.1l-.1-.1c-15.5-16.3-29.7-31.1-41.2-43.1l-.1-.1v-.1c4.3-13.7 7.9-24.9 10.4-32.7 1.2-3.9 2.2-6.9 2.8-8.9.3-1 .6-1.8.7-2.3.3-.6.3-.8.3-.8-.5 1.6-5.4 17.6-13.8 44.9v-.2c11.5 12 25.7 26.8 41.3 43l-.3-.1c5.4-1.4 10.9-2.8 16.5-4.3 7.3-1.9 14.4-3.8 21.3-5.5l-.1.4c-18.4-22.2-34.6-41.7-46.2-55.7-5.8-7-10.4-12.6-13.7-16.5-1.6-1.9-2.8-3.4-3.7-4.5-.4-.5-.7-.9-1-1.2-.1-.2-.3-.3-.3-.3z"/><path class="st16" d="M245.2 209.2c2-3.4 7.1-4.4 10.2-2 2.6 2 3.8 5.8 6.9 6.8 2.2.7 4.7-.3 7 .1 2.7.5 4.7 3 5.5 5.6.8 2.6.6 5.5.4 8.2l-13.4.2-16.6-18.9z"/><path style="fill:#1b1b1e" d="m220.4 183.8 86.9 89.5-35.4-3.6-49.5-52.3z"/><path class="st9" d="M220.4 183.8c.1 1.3.8 12.8 2.1 33.7v-.1c12.7 13.3 30 31.6 49.6 52.2l-.2-.1c8.8.9 17.8 1.8 27.2 2.7 2.8.3 5.6.6 8.2.8l-.2.4c-48.3-49.9-84.7-87.6-86.7-89.6 1.9 2 38.5 39.6 87.1 89.4l.5.5-.7-.1c-2.6-.3-5.4-.5-8.2-.8-9.3-.9-18.4-1.9-27.2-2.8h-.1l-.1-.1c-19.6-20.7-36.8-39-49.5-52.4v-.1c-1.1-20.8-1.7-32.3-1.8-33.6z"/><path class="st16" d="M254.4 219.4c-2.7 3.1-2.3 8 0 11.4 2.3 3.4 6.1 5.5 9.9 6.9 3.1 1.2 6.9 1.9 9.5-.2M249.9 214.5c.2.7-.8 1.3-1.5 1.2-.8-.1-1.5-.5-2.2-.5-2.1-.1-3.2 2.4-4.9 3.6-2 1.4-5.1.8-6.4-1.3-1.1-1.8-1.1-4.4-2.9-5.5-1-.6-2.3-.5-3.4-.3s-2.3.5-3.5.4c-1.2-.2-2.3-1.1-2.3-2.2l-.6-1-1.5-24.7 29.2 30.3zM292.3 271.5c2 .3 3.8-.7 4.1-2.6.3-2-1.2-4-3.2-4.3-1.8-.2-3.6.8-5.3.3-1.9-.6-2.7-2.9-3.2-4.8-.5-2-1.2-4.2-3.1-5-3.1-1.3-6.4 2.7-9.6 1.8-2.4-.7-3.3-3.5-5.2-5.2-1.5-1.3-3.7-1.7-5.6-1.1-1.9.6-3 1.7-3.4 3.7l14.3 15.1 20.2 2.1z"/><path class="st13" d="m268.5 422.8-3.6 20.6s-22.1 3.3-23.2 7l39.7 8.4 6.9-31.8-19.8-4.2z"/><g class="st18"><path class="st19" d="M277.6 444.3c.7.4 1.1 1.3.7 2.1-.3.7-1.3 1.1-2.1.7-.7-.4-1.2-1.5-.8-2.2.4-.7 1.6-1.1 2.2-.5"/></g><path class="st20" d="m281.5 458.8.7-3.2-38.4-6.9s-1.9.4-2 1.7l39.7 8.4z"/><path class="st9" d="M264.3 443.1c0 .2.9.5 1.7 1.3.8.8 1.2 1.7 1.4 1.7.2 0 .1-1.2-.9-2.2-.9-1-2.2-1-2.2-.8zM259.8 443.9c-.1.2.7.7 1.2 1.6.5.9.5 1.9.7 1.9.2.1.5-1-.1-2.2-.6-1.1-1.7-1.4-1.8-1.3zM256.4 448.4c.2.1.6-.8.4-2-.3-1.2-1.1-1.8-1.2-1.6-.1.1.3.8.5 1.8.2.9.1 1.8.3 1.8zM265.7 438.5c0 .2 1 .1 2.1.4 1.1.3 1.9.8 2 .7.1-.1-.5-1-1.8-1.3-1.3-.4-2.4 0-2.3.2z"/><path class="st21" d="m267.8 426.9-.6 3.7 19.5 3.9.7-3.3z"/><path class="st9" d="M266.5 434.3c0 .1.7.4 2 .4.6 0 1.4 0 2.2-.2.4-.1.8-.2 1.3-.4.2-.1.4-.2.7-.3.3-.2.5-.6.3-1-.1-.3-.5-.6-.8-.6-.3-.1-.5-.1-.8-.1-.5 0-.9.1-1.3.2-.8.2-1.5.5-2.1.8-1.1.7-1.6 1.3-1.5 1.4.1.1.6-.4 1.7-.9.5-.3 1.2-.5 2-.6.4-.1.8-.1 1.2-.1.4 0 .8.1.9.3 0 .1 0 .1-.1.2s-.3.2-.5.2c-.4.2-.8.3-1.2.4-.8.2-1.5.3-2.1.3-1.1 0-1.9-.1-1.9 0z"/><path class="st9" d="M266.7 434.7c.1 0 .6-.6.9-1.8.2-.6.3-1.4.2-2.2 0-.4-.1-.9-.3-1.3-.1-.4-.3-1-1.1-1.3-.4-.1-.8.1-.9.4-.2.2-.3.5-.4.7-.2.4-.3.9-.3 1.3-.1.9.1 1.6.4 2.2.6 1.2 1.3 1.6 1.3 1.5.1-.1-.5-.6-.9-1.7-.2-.5-.3-1.2-.2-2 0-.4.1-.8.3-1.1.2-.4.4-.7.5-.6.2 0 .5.4.6.8l.3 1.2c.1.8.1 1.5 0 2.1-.2 1-.5 1.7-.4 1.8z"/><path class="st13" d="m398.8 424.1-8.6-11.2-.4-.6-14.6 10.9 13.5 14.9-.5 15c-7.5 1.9-8.7 5.7-8.7 5.7h15.7l14.2-27.4-10.6-7.3z"/><path class="st20" d="m409.5 431.4-14.3 27.4h-15.6l1.7-2.4 12.8-.7 13.1-25.9z"/><path class="st9" d="M388.3 446.2c.1.2 1-.4 2.2-.3 1.2 0 2.1.5 2.2.4.1-.1-.7-1.1-2.2-1.1-1.4 0-2.3.9-2.2 1zM388.6 442.5c.2.1.9-.8 2.1-1.1 1.2-.3 2.2.3 2.3.2.1-.1-.1-.3-.6-.6-.4-.2-1.1-.4-1.9-.3-.8.2-1.4.6-1.7 1-.2.4-.3.7-.2.8zM388.5 437.7c.2.1.7-.8 1.8-1.2 1.1-.4 2.1 0 2.1-.2 0-.1-.2-.3-.6-.5-.4-.2-1.1-.2-1.8 0s-1.2.7-1.4 1.1c-.2.4-.2.7-.1.8zM384.3 434c.2.1.6-.8 1.6-1.5s1.9-.7 2-.9c.1-.2-1.2-.4-2.3.3-1.3.8-1.5 2-1.3 2.1zM382.2 430.7c.1.1.6-.6 1.4-1.6.4-.6.9-1.2 1.3-1.9.2-.4.5-.7.7-1.3.1-.3.1-.6-.1-1-.2-.3-.6-.5-.9-.5-.7.1-1.1.5-1.5.8-.4.3-.7.7-1 1.1-.5.8-.7 1.6-.8 2.3-.2 1.4.3 2.2.4 2.1.1 0-.1-.8.1-2.1.1-.6.4-1.3.9-2 .2-.3.5-.6.9-.9.3-.3.8-.6 1.1-.6.2 0 .2 0 .3.1.1.1.1.3 0 .4-.1.3-.4.7-.6 1.1-.4.7-.8 1.3-1.2 2-.7 1.3-1 2-1 2z"/><path class="st9" d="M381.7 431.2c.1 0 0-.8-.8-1.8-.8-.9-2.6-1.8-4.6-.8-.1.1-.3.3-.2.6 0 .2.1.4.2.5.2.2.4.4.6.5.4.3.7.5 1.1.6.7.3 1.5.5 2.1.6 1.2.1 2-.1 1.9-.2 0-.1-.7-.1-1.9-.3-.6-.1-1.2-.3-1.9-.7-.3-.2-.7-.4-1-.6-.2-.1-.3-.2-.4-.4-.1-.1-.1-.1 0-.1.1-.1.3-.1.5-.2.2 0 .4-.1.6-.1.4 0 .8 0 1.1.1.7.2 1.3.5 1.7.9.6.7.9 1.5 1 1.4z"/><path class="st20" d="M397 430.9c0 1 .8 1.9 1.9 1.9 1 0 1.9-.8 1.9-1.9 0-1-.8-1.9-1.9-1.9-1.1.1-1.9.9-1.9 1.9z"/><path class="st21" d="m376.6 424.7 3 3.3 12.6-12.5-1.7-2.3z"/><path d="M337.6 163.9c8.3-2.9 17.4-3.3 26-1.2 3.8 1 7.7 2.5 10.1 5.6 2.9 3.6 3.3 8.6 3.7 13.2.9 9.4 2.6 18.7 5.2 27.9 2.1 7.6 4.8 15 5.9 22.8 1.1 7.8.6 16.1-3.4 22.9-6.1 10.5-19.1 15.1-31.3 15.3-6.4.1-12.9-.8-18.6-3.8-5.7-3-10.4-8.1-11.8-14.4" style="fill:#ff4f5b"/><path class="st11" d="M337.6 163.9c8.3-2.9 17.4-3.3 26-1.2 3.8 1 7.7 2.5 10.1 5.6 2.9 3.6 3.3 8.6 3.7 13.2.9 9.4 2.6 18.7 5.2 27.9 2.1 7.6 4.8 15 5.9 22.8 1.1 7.8.6 16.1-3.4 22.9-6.1 10.5-19.1 15.1-31.3 15.3-6.4.1-12.9-.8-18.6-3.8-5.7-3-10.4-8.1-11.8-14.4"/><path class="st6" d="M354.3 173.5c-.1.1 1.7 1.2 3.5 3.9.9 1.3 1.8 3 2.7 5 .9 1.9 1.9 4.1 3.2 6.3 1.4 2.1 3.1 3.9 5 5s4 1.4 5.7 1.1c1.7-.3 2.9-1 3.5-1.6.3-.3.6-.6.7-.8.1-.2.2-.3.2-.3s-.3.4-1 .9c-.7.6-1.9 1.2-3.4 1.4-1.6.2-3.5-.1-5.3-1.2-1.8-1.1-3.4-2.8-4.8-4.8-1.3-2.1-2.3-4.2-3.2-6.2-.9-1.9-1.9-3.7-2.9-5-1-1.3-1.9-2.3-2.6-2.9-.8-.6-1.3-.9-1.3-.8z"/><path class="st6" d="M371.9 267.1v-3c0-1.9-.1-4.8-.3-8.2-.3-7-.9-16.6-1.7-27.1-.8-10.6-1.8-20.2-2.6-27.1-.4-3.5-.7-6.3-1-8.2-.1-.9-.2-1.6-.3-2.2-.1-.5-.1-.8-.2-.8v.8c0 .6.1 1.3.2 2.2.2 2 .5 4.8.8 8.2.7 6.9 1.6 16.5 2.4 27.1.8 10.6 1.4 20.2 1.9 27.1.2 3.4.4 6.2.5 8.2.1.9.1 1.7.2 2.2 0 .6.1.8.1.8z"/><path class="st6" d="M369.4 224.6c0 .2 3.8.1 8.5-.5s8.4-1.5 8.4-1.6c0-.2-3.8.4-8.4 1-4.7.6-8.5.9-8.5 1.1z"/><path class="st6" d="M372.5 224.5c-.1 0-.3.7-.5 1.8-.1.6-.2 1.3-.2 2 0 .4 0 .9.2 1.3.2.5.7.9 1.3.9.3 0 .6-.1.8-.4.2-.2.3-.5.3-.8 0-.5-.1-.9-.2-1.3-.2-.8-.4-1.4-.7-2-.5-.9-.9-1.4-1-1.5-.1.1.2.8.6 1.8.2.5.4 1.2.5 1.9.1.4.2.7.1 1.1 0 .3-.2.6-.5.6-.7 0-.9-.8-.9-1.5s0-1.4.1-2c.1-1.1.2-1.8.1-1.9z"/><path class="st10" d="m329.4 167.5 40.2-4.7c5.3-.6 9-5.4 8.4-10.6l-.9-7.5c-.6-5.3-5.4-9-10.6-8.4l-40.2 4.7c-5.3.6-9 5.4-8.4 10.6l.9 7.5c.6 5.3 5.3 9 10.6 8.4z"/><path class="st9" d="M365.8 136.9s-.1-.1-.4-.2c-.3-.1-.7-.2-1.2-.2-1 0-2.6.3-4.1 1.4-1.5 1.1-3.2 2.7-4.1 5-1 2.3-1.4 5-1.1 7.8.2 2.8 1.2 5.5 2.7 7.4 1.5 2 3.5 3.2 5.2 3.8 1.8.6 3.3.6 4.3.5.5-.1.9-.2 1.2-.2.3-.1.4-.1.4-.2s-.6.1-1.6.1c-1 .1-2.5 0-4.2-.7-1.7-.6-3.5-1.8-4.9-3.7-1.4-1.9-2.4-4.4-2.5-7.1-.2-2.7.1-5.4 1-7.6.9-2.2 2.5-3.7 3.9-4.8 1.4-1.1 2.9-1.5 3.8-1.5 1 .1 1.6.3 1.6.2zM342.8 139l6.2-.6c-1.6.5-3 1.6-4 3.1-.9 1.4-1.4 3.1-1.7 4.8-1.1 7.1 2.7 14.8 8.8 18.6l-5 .7c0-.1-14.3-12.9-4.3-26.6"/><path class="st9" d="M335.8 152.1c3.2.9 6.8.2 9.4-1.9 2.6-2 4.2-5.3 4.1-8.6-.1-3.1-1.5-6.2-.5-9.1.7-2 2.3-3.6 2.9-5.6.8-3-1-6.1-2.8-8.7-1.1-1.7-2.3-3.4-3.8-4.7-1.6-1.3-3.7-2.1-5.6-1.7M307.4 112c.2 2.3-1.4 4.4-2.9 6.1-1.5 1.7-3.3 3.6-3.6 5.9-.6 4.1 3.4 7.9 2.6 11.9-.4 2.2-2.2 3.9-2.5 6.1-.3 2.1.8 4.2 2.2 5.8 1.4 1.6 3.1 3 4.4 4.7 1.3 1.8 2 4 3 6.1.9 2 2.2 4.1 4.2 5.2 3 1.6 7.2.9 9.4 3.4 2.2 2.4 4.9 2.8 7.6 4.6"/><path class="st9" d="M343.1 115.6c.1-2.1-1.9-3.7-3.9-4.5-2-.8-4.1-1.1-5.9-2.2-1.5-1-2.6-2.7-3.9-4-3.2-3.3-8.2-4.6-12.7-3.4-4.4 1.2-8.1 4.9-9.2 9.4-.8 3-.2 6.6 2.1 8.5 2.7 2.3 6.8 1.8 10.3 1.1 3.5-.7 7.5-1.4 10.4.6 1.8 1.2 2.8 3.3 3.9 5.1 1.1 1.9 2.4 3.8 4.5 4.5 2 .7 4.8-.5 4.9-2.7"/><path class="st12" d="M334.8 116c1.8.2 3.2 1.8 3.1 3.6l-2.1 47.6c-.1 5.6-8.3 8.8-14.3 8.6-6.1-.1-6.3-3.1-6.4-8.5-.1-8.9-.1-12.3-.1-12.2 0 0-7.7-1.3-9.3-11.3-.8-5-.5-13.2-.1-19.8.4-6 4.4-13.4 10.4-12.7l18.8 4.7z"/><path class="st9" d="M307.6 129.7c0 .7.5 1.3 1.2 1.3s1.3-.5 1.3-1.2-.5-1.3-1.2-1.3-1.3.5-1.3 1.2zM307.5 128.2c.2.2 1.1-.6 2.5-.5 1.4 0 2.4.7 2.5.5.1-.1-.1-.4-.5-.7-.4-.3-1.2-.6-2-.6-.9 0-1.6.3-2 .6-.4.4-.6.7-.5.7zM321.4 130.1c0 .7.5 1.3 1.2 1.3s1.3-.5 1.3-1.2-.5-1.3-1.2-1.3-1.3.5-1.3 1.2zM321.1 128.5c.2.2 1.1-.6 2.5-.5 1.4 0 2.4.7 2.5.5.1-.1-.1-.4-.5-.7-.4-.3-1.2-.6-2-.6-.9 0-1.6.3-2 .6-.4.4-.6.7-.5.7zM316 138.8c0-.1-.9-.2-2.2-.4-.4 0-.7-.1-.7-.3-.1-.3.1-.6.2-1 .3-.9.7-1.8 1.1-2.7 1.5-3.8 2.5-7 2.4-7-.2-.1-1.5 3-2.9 6.8-.4.9-.7 1.8-1 2.7-.1.4-.4.9-.2 1.4.1.3.4.5.6.5.2.1.4.1.6.1 1.3 0 2.1 0 2.1-.1z"/><path class="st14" d="M315.1 155.2s6.7.4 13.4-3.6c0 0-3.3 6.9-13.3 5.9l-.1-2.3zM316.6 142.1c.5-.7 1.4-1 2.2-.9.6.1 1.2.4 1.6.8.4.5.4 1.2.1 1.6-.4.5-1.2.6-1.8.5-.7-.2-1.2-.6-1.8-1.1-.1-.1-.3-.2-.4-.4 0-.1-.1-.3.1-.5"/><path class="st9" d="M320.1 139.8c-.2 0-.2 1.5-1.5 2.6s-2.9.9-2.9 1.1c0 .1.4.3 1 .3.7 0 1.6-.2 2.4-.8.8-.7 1.1-1.5 1.2-2.1.1-.8-.1-1.2-.2-1.1zM320.5 126.1c.1.4 1.5.2 3.1.4s2.9.6 3.2.3c.1-.2-.1-.5-.7-.9-.5-.4-1.4-.7-2.3-.8-1-.1-1.9 0-2.5.3-.6.2-.9.5-.8.7zM308 124.2c.2.3 1.2 0 2.3 0 1.1-.1 2.1.2 2.3-.1.1-.2-.1-.5-.5-.8-.4-.3-1.1-.5-1.9-.5-.8 0-1.5.3-1.9.6-.3.4-.4.7-.3.8z"/><path class="st9" d="M341.8 149c-2.8.6-5.8-.3-7.8-2.2s-3.1-4.8-2.8-7.6c.3-2.5 1.6-5 .8-7.3-1.1-3.1-5.4-4-6.6-7.1-.7-1.8-.1-3.9-.8-5.6-.7-1.6-2.4-2.6-4.1-3.2-1.7-.6-3.5-1-4.9-2.1-1.4-1.1-2.3-3.2-1.4-4.7 7.5.9 14.9 2.7 21.9 5.3 1.6.6 3.4 1.3 4.3 2.8 1 1.5 1 3.5.9 5.4-.4 9-.8 18-1.3 27"/><path class="st9" d="M347.2 157.4c-.1 0 .1-1-.5-2.5-.3-.8-.9-1.6-1.7-2.4-.8-.8-1.9-1.6-3.2-2.3-1.3-.7-2.8-1.4-4.4-2.2-1.5-.9-3.1-2.1-4.2-3.9-.5-.9-.8-1.9-.8-3s.2-2.1.5-3.2c.2-1 .4-2.1.2-3.1s-.9-1.9-1.9-2.4c-.9-.6-2-.9-3.1-1.4-1-.5-2-1.1-2.6-2.2-.6-1-.7-2.1-.8-3.2v-3c0-1-.1-1.9-.4-2.8-.3-.8-.8-1.6-1.5-2.1-1.4-1-3-1.4-4.4-1.7-1.4-.4-2.8-.8-3.8-1.5s-1.6-1.7-1.8-2.5c-.2-.8-.1-1.5 0-1.9l.3-.6s-.1.2-.2.6c-.1.4-.2 1.1.1 1.8.2.8.8 1.7 1.8 2.3 1 .7 2.3 1 3.7 1.4 1.4.4 3.1.7 4.6 1.8.7.5 1.4 1.3 1.7 2.2.3.9.4 1.9.5 2.9v3c0 1 .2 2 .7 2.9.5.9 1.4 1.5 2.4 2s2.1.8 3.1 1.4c.5.3 1 .7 1.4 1.2.4.5.6 1 .7 1.6.2 1.2 0 2.3-.2 3.4s-.5 2.1-.5 3.1.3 1.9.8 2.8c1 1.7 2.5 2.9 4 3.7 1.5.9 3 1.6 4.3 2.3 1.3.7 2.4 1.5 3.3 2.4.8.9 1.4 1.8 1.7 2.6.3.8.4 1.5.4 1.9v.5c-.2 0-.2.1-.2.1zM318 164.2s-.2.1-.5.1c-.2 0-.4.1-.6.1-.2 0-.5.1-.9.1-1.3 0-3.2-.3-5.2-1.6-1-.7-1.9-1.6-2.6-2.7-.7-1.2-1.1-2.6-1.3-4.1-.3-1.5-.5-3.1-1.3-4.4-.8-1.4-2.2-2.3-3.5-3.5-1.4-1.2-2.2-2.8-2.5-4.5-.2-1.7.1-3.4.9-4.7.8-1.3 1.7-2.4 2.1-3.7.4-1.2.5-2.5.4-3.6-.2-2.2-.9-4-1.3-5.2-.4-1.2-.7-1.9-.7-1.9s.1.1.2.5c.1.3.4.8.6 1.3.5 1.2 1.2 2.9 1.4 5.2.1 1.1.1 2.5-.4 3.8-.4 1.3-1.4 2.5-2.1 3.8-.7 1.3-1.1 2.8-.8 4.4.2 1.6 1 3.1 2.3 4.2 1.2 1.1 2.8 2.1 3.6 3.6.8 1.5 1.1 3.1 1.3 4.6.3 1.5.6 2.9 1.2 4s1.5 2 2.4 2.7c1.8 1.3 3.7 1.7 4.9 1.7 1.7 0 2.4-.2 2.4-.2z"/><path class="st10" d="M347.1 116.4s.1.1.2.4c.1.3 0 .8-.4 1.2-.4.4-1 .9-1.8.9s-1.7-.3-2.5-.8c-.9-.4-1.8-.8-2.9-.9-1.1-.1-2.3.1-3.5.3-1.2.2-2.6.5-4 .5s-3-.4-4.1-1.5c-1.1-1.1-1.8-2.4-2.4-3.7-.6-1.3-1.2-2.5-1.9-3.4-1.5-2-4-2.6-5.8-2.1-1.8.5-2.9 1.7-3.5 2.6-.6.9-.7 1.5-.7 1.5s0-.2.1-.4c.1-.3.2-.7.5-1.2.5-.9 1.6-2.3 3.6-2.8 1-.3 2.1-.3 3.2.1 1.1.3 2.2 1.1 3 2.1.8 1 1.4 2.3 2 3.5.6 1.2 1.2 2.5 2.3 3.5 1 1 2.4 1.4 3.8 1.4s2.7-.3 3.9-.5c1.3-.2 2.5-.4 3.7-.3 1.2.1 2.2.5 3.1 1 .8.4 1.6.8 2.4.8.7 0 1.3-.4 1.6-.7.4-.4.5-.8.4-1.1-.2-.2-.3-.4-.3-.4z"/><path class="st9" d="M341.5 113.5c-3.3-.8-5.8-4-5.7-7.4.1-3.4 2.8-6.5 6.1-7.1 1.6-.3 3.4.1 4.4 1.4.9 1.3.9 3.1 2 4.1 1.3 1.1 3.2.6 4.8 1 2.5.5 4.2 3.3 3.9 5.9-.3 2.6-2.2 4.7-4.6 5.7-2.4 1-5.1.9-7.6.1-2.5-.7-4.7-2-6.9-3.4"/><path class="st10" d="M353.6 106.3c.1 0-.1.8-.7 1.8-.6 1.1-1.8 2.4-3.4 3.4-1.6 1-3.3 1.4-4.5 1.5-1.2.1-2-.1-2-.2s.8 0 1.9-.2c1.2-.2 2.8-.6 4.3-1.6s2.7-2.2 3.3-3.2c.7-.8 1-1.5 1.1-1.5z"/><path class="st13" d="M348.3 117.4c-.1.1-1.7-2.4-4.7-4.2-3.1-1.8-6-1.8-6-2 0-.1.7-.1 1.9 0 1.2.2 2.8.6 4.4 1.5 1.6.9 2.8 2.1 3.5 3 .6 1 .9 1.7.9 1.7z"/><path class="st12" d="m275.4 226.3-16.2-3.1 2.9 4.2-6.9 3.5-5.8-2.7s.4 1.3 1.7 3.4c1.3 2.1 3 3.8 4.1 3.9 1.6.1 1.9.2 0 0 0 0 .4 2 2.1 3.9 1.1 1.1 3.9 2.9 7.3 2l10.9-3.9-.1-11.2z"/><path class="st14" d="M259 234.4c.1.1-.8.9-2.2 1.1-1.4.2-2.5-.4-2.4-.6.1-.1 1.1.2 2.4 0 1.2 0 2.2-.6 2.2-.5zM261.2 237.9c.1.1-.6.9-1.8 1.2-1.2.3-2.2 0-2.1-.2 0-.1.9-.1 2-.3 1-.3 1.8-.8 1.9-.7zM265.2 225.6c0 .1-.6.3-1.4.8-.9.5-2 1.3-3.3 2.2-1.3.9-2.6 1.5-3.6 1.8-1 .3-1.7.2-1.7.2 0-.1.6-.2 1.5-.5s2.1-1 3.4-1.9c1.3-.9 2.4-1.7 3.4-2.1 1.1-.4 1.7-.5 1.7-.5z"/><path class="st9" d="M363.6 253.2s.6.3 1.9 2.8c4.2 7.5 5.9 25.6-10 41.8-20.6 20.9-44.8 55-44.8 55l-19 80.2-28.6-6.2 14.8-83.3 40.5-75.1 45.2-15.2z"/><path class="st9" d="M395.2 408.3 351 340.8l-13.3-58.3-34.1 16.8 17.1 59.1 54.5 68z"/><path class="st10" d="M291.8 433s0-.1.1-.4c.1-.3.1-.7.2-1.1.2-1 .6-2.5 1-4.4.9-3.8 2.2-9.4 3.7-16.2 3.2-13.7 7.6-32.5 12.5-53.3.4-1.6.8-3.2 1.1-4.7v-.1c12.5-16 23.9-30.1 32.3-40.2 4.2-5 7.6-9 10.1-11.7 1.2-1.4 2.2-2.4 2.8-3.1.3-.3.6-.6.7-.8l.3-.3s-.1.1-.2.3c-.2.2-.4.5-.7.8-.6.7-1.6 1.8-2.7 3.2-2.4 2.7-5.8 6.8-9.9 11.8-8.3 10.1-19.6 24.3-32.1 40.3v-.1c-.4 1.5-.7 3.1-1.1 4.7-5 20.8-9.4 39.6-12.7 53.3-1.6 6.8-3 12.3-3.9 16.1-.5 1.9-.8 3.4-1.1 4.4-.1.5-.2.9-.3 1.1-.1.2-.1.4-.1.4zM343.5 274.5s-.2.2-.7.4c-.5.2-1.2.5-2.1.7-1.8.4-4.4.6-7.1-.2-2.7-.8-4.8-2.3-6.1-3.6-.6-.7-1.1-1.2-1.4-1.7-.3-.4-.4-.7-.4-.7.1-.1.7.9 2 2.1 1.3 1.2 3.4 2.6 6 3.4 2.6.8 5.1.7 6.9.3 1.8-.3 2.9-.8 2.9-.7z"/><path class="st13" d="M367.8 256.6c-17.3 9.1-45.3 14.5-54.2 10.8l-.3-33.2S301 214 301 206.3c-.1-11 13.7-36.2 13.7-36.2l20.6-5.5c4.8 0 8.8 1.1 11.9 2.8 7.9 4.2 12.3 13.1 11.4 22l-5.2 33.1 14.4 34.1z"/><path d="M345.7 167.4c1.2-.2 1.6 1.8.8 2.6-.9.9-2.2.9-3.4 1.1-5.4.8-9.5 5.4-11.5 10.5s-2.1 10.6-2.5 16c-.3 5.4-.9 11-3.4 15.8-4.7-8.4-5.5-19-2-27.9 3.5-9 11.2-16.2 20.4-19.2" class="st21"/><path class="st9" d="M347.2 167.4s-3-4.9-12.9-2.8c-6.6 1.4-21.2 15.4-17.1 37.8 4.1 22.4 14.9 30.3 14.9 30.3s-10-34.3-4.4-49.3c5.4-14.9 19.5-16 19.5-16z"/><path d="M313.7 241.3c4.1 1.3 8 3 12.3 3.5 4.3.6 8.8.4 12.7-1.3 5.5-2.3 9.6-7.3 11.7-12.9 2.1-5.6 2.4-11.7 1.8-17.7-3.8 4.6-3.3 11.5-6.5 16.6-2 3.2-5.2 5.3-8.6 7-7.2 3.6-15.3 5-23.4 4.8" class="st21"/><path class="st9" d="M326 207.3s-1.3 25.2 29.5 20.2l3.1 7.3s-32.4 6.8-37-20l4.4-7.5z"/><path class="st13" d="M354.1 176c2.7 3.8 3.4 8.7 2.3 13.3l-7.7 34.3c-3.3 9.7-12.7 15.5-18.5 16.3l-54.7 5.8v-20.4l50.8-7.5 2.4-27.8c.2-3.7 2.1-10.5 4.4-13.4 2.7-3.2 6.8-7.6 13.4-6.5 4.1.6 5.8 3.4 7.6 5.9z"/><path class="st9" d="M355.7 190.6s0 .3-.1.8-.1 1.3-.3 2.2c-.3 1.9-.7 4.7-1.3 8.1-.6 3.4-1.4 7.4-2.4 11.9-.5 2.2-1.1 4.6-1.7 7-.7 2.4-1.5 4.9-2.7 7.2-1.2 2.4-2.8 4.5-4.6 6.2-1.9 1.7-3.9 3-6 4-4.2 2-8.3 2.7-11.8 3.1-3.4.4-6.2.4-8.2.4h-3s.3 0 .8-.1c.6 0 1.3-.1 2.2-.1 1.9-.1 4.7-.2 8.1-.6 3.4-.4 7.5-1.2 11.6-3.1 2-1 4.1-2.2 5.9-3.9 1.8-1.6 3.3-3.7 4.5-6.1 1.2-2.3 2-4.8 2.7-7.2.7-2.4 1.2-4.7 1.8-6.9 1-4.4 1.9-8.5 2.5-11.9.6-3.4 1.1-6.1 1.4-8 .2-.9.3-1.6.4-2.2.1-.6.2-.8.2-.8zM327.7 223.6c-.1 0-.7-1.3-1.2-3s-.9-3.1-.7-3.1c.1 0 .7 1.3 1.2 3 .5 1.6.9 3 .7 3.1z"/><path class="st9" d="M330.8 222.8c-.1.1-1.4-.7-2.8-2.2-1.4-1.4-2.1-2.8-2-2.9.1-.1 1.1 1.2 2.4 2.5 1.3 1.5 2.5 2.5 2.4 2.6z"/><path class="st9" d="M280.2 224.6s.1 0 .2-.1c.2 0 .4-.1.7-.1.6-.1 1.5-.3 2.6-.4 2.3-.4 5.6-.9 9.7-1.5 8.3-1.3 19.8-3 32.7-4.9l-.2.2c.2-1.9.4-3.9.6-5.9.7-7.2 1.3-14.1 1.7-20.4.3-3.2.8-6.1 1.7-8.8.9-2.7 2-5.1 3.6-6.9 3.2-3.5 6.9-5.4 9.5-5.7 1.3-.2 2.4-.1 3.1.1.3.1.6.2.8.2.2 0 .3.1.3.1 0 .1-1.4-.5-4.1-.1-2.6.4-6.1 2.3-9.3 5.8-1.5 1.8-2.6 4.2-3.4 6.8-.8 2.6-1.4 5.6-1.6 8.7-.3 6.3-1 13.2-1.6 20.4-.2 2-.4 4-.6 5.9v.2h-.2c-12.9 1.9-24.4 3.6-32.7 4.8-4.1.6-7.4 1-9.8 1.4-1.1.1-2 .3-2.6.3-.3 0-.5.1-.7.1-.3-.2-.4-.2-.4-.2z"/><path class="st8" d="M311.5 241.2c-.1 0-.7-4.6-1.3-10.3-.6-5.7-.9-10.4-.8-10.4.1 0 .7 4.6 1.3 10.3.6 5.7 1 10.4.8 10.4zM351.6 210.2c0 .1-1.3.1-3.5.1-2.1 0-5.1-.1-8.4-.2-3.3-.1-6.2-.3-8.4-.4-2.1-.1-3.5-.2-3.5-.3 0-.1 1.3-.1 3.5-.1 2.1 0 5.1.1 8.4.2 3.3.1 6.2.3 8.4.4s3.5.2 3.5.3zM316.9 203.7c0 .1-.9.2-2.3.3-1.4.1-3.4.2-5.5.1-2.2 0-4.1-.2-5.5-.3-1.4-.2-2.3-.3-2.3-.4 0-.1.9 0 2.3 0 1.4.1 3.3.1 5.5.2h5.5c1.4 0 2.3 0 2.3.1zM321.4 179.9c-.1.1-2.2-1-4.9-2s-5-1.6-5-1.8c0-.1 2.4.2 5.2 1.3 2.7 1.1 4.8 2.4 4.7 2.5zM361.1 242.3s-.1.1-.4.2c-.4.1-.8.3-1.3.5-1.1.5-2.8 1.1-4.9 1.8-4.2 1.5-10 3.3-16.6 4.8-6.6 1.5-12.6 2.4-17 2.9-2.2.3-4 .4-5.2.5-.6 0-1 .1-1.4.1h-.5s.2-.1.5-.1c.4 0 .8-.1 1.4-.2 1.2-.1 3-.4 5.2-.7 4.4-.6 10.4-1.6 17-3.1s12.4-3.2 16.6-4.6c2.1-.7 3.8-1.3 5-1.7.5-.2 1-.3 1.4-.5 0 .2.2.1.2.1zM357.8 182.5c0 .1-5.9.1-13.2-.2-7.3-.2-13.2-.5-13.2-.7 0-.1 5.9-.1 13.2.2 7.4.3 13.2.6 13.2.7zM287.4 244.2c-.1 0-.4-4.5-.6-10-.2-5.5-.3-10-.1-10 .1 0 .4 4.5.6 10 .2 5.5.2 10 .1 10z"/><path class="st10" d="M175.5 141.9c8.8-1.7 18.2-.7 26.5 2.8 3.7 1.5 7.4 3.7 9.4 7.2 2.4 4.1 2 9.2 1.7 14-.5 9.7-.2 19.4 1 29 1 8 2.6 16 2.5 24 0 8.1-1.8 16.4-6.9 22.7-7.8 9.7-21.7 12.4-34 10.7-6.5-.9-13-2.8-18.2-6.7-5.3-3.9-9.3-9.8-9.7-16.3"/><path class="st9" d="M190.9 154.1c-.1.1 1.5 1.5 2.9 4.5.7 1.5 1.4 3.4 2 5.5.6 2.1 1.3 4.5 2.3 6.8 1.1 2.4 2.5 4.4 4.3 5.8 1.8 1.4 3.9 2 5.6 2 1.7 0 3.1-.6 3.8-1.1.4-.3.7-.5.8-.7.2-.2.2-.3.2-.3s-.4.3-1.2.8c-.8.5-2.1.9-3.7.9s-3.5-.6-5.2-2c-1.7-1.3-3.1-3.4-4.1-5.6-1-2.3-1.7-4.6-2.3-6.7-.7-2.1-1.4-4-2.1-5.5-.8-1.5-1.6-2.6-2.2-3.3-.6-.8-1.1-1.1-1.1-1.1z"/><path class="st9" d="M194.5 251.7s.1-.3.2-.8c.1-.6.2-1.3.3-2.3.3-2 .6-4.8 1-8.4.8-7.1 1.7-16.9 2.4-27.7.8-10.8 1.3-20.7 1.5-27.8.1-3.6.2-6.4.2-8.4V173.2s-.1.3-.1.8c0 .6-.1 1.4-.1 2.3-.1 2.1-.3 4.9-.5 8.4-.4 7.1-.9 16.9-1.7 27.8-.8 10.8-1.6 20.6-2.2 27.7-.3 3.5-.6 6.3-.7 8.4-.1.9-.1 1.7-.2 2.3-.2.5-.2.8-.1.8z"/><path class="st9" d="M198.4 208.2c0 .2 3.9.7 8.7.8 4.8.1 8.7-.2 8.7-.4s-3.9-.2-8.7-.3c-4.8 0-8.7-.3-8.7-.1z"/><path class="st9" d="M201.5 208.6c-.1 0-.4.6-.8 1.8-.2.6-.4 1.3-.5 2-.1.4-.1.9 0 1.4.1.5.6 1 1.2 1.1.3.1.7 0 .9-.3.2-.2.4-.5.4-.7.1-.5 0-.9 0-1.3-.1-.8-.2-1.5-.4-2.1-.3-1.2-.7-1.8-.8-1.9-.1.1.1.8.3 2 .1.6.2 1.3.2 2 0 .4.1.8 0 1.1-.1.3-.3.5-.6.5-.7-.1-.8-1-.7-1.7.1-.8.2-1.4.4-2 .3-1.1.5-1.9.4-1.9zM166.4 144.3l41.8 1.4c5.3.2 9.7-4 9.9-9.3l.3-8.1c.2-5.3-4-9.7-9.3-9.9l-41.8-1.4c-5.3-.2-9.7 4-9.9 9.3l-.3 8.1c-.2 5.3 4 9.7 9.3 9.9z"/><path class="st10" d="M208.1 118.9s-.1-.1-.4-.2c-.3-.1-.6-.3-1.2-.4-1-.2-2.7-.1-4.4.8-1.6.9-3.6 2.2-4.9 4.4-1.4 2.1-2.1 4.9-2.3 7.8-.3 2.9.4 5.7 1.6 7.9 1.2 2.2 3 3.8 4.7 4.6 1.7.9 3.3 1.1 4.3 1.1.5 0 .9 0 1.2-.1.3 0 .4-.1.4-.1 0-.1-.6 0-1.6-.1s-2.5-.4-4.1-1.3c-1.6-.9-3.3-2.4-4.4-4.5-1.1-2.1-1.7-4.8-1.5-7.6.2-2.8.9-5.4 2.2-7.5 1.2-2.1 3.1-3.4 4.7-4.3 1.6-.9 3.1-1.1 4.1-1 1.1.3 1.6.6 1.6.5zM184.6 117.5l6.4.3c-1.7.2-3.3 1.2-4.5 2.5-1.2 1.3-1.9 2.9-2.5 4.6-2.2 7 .5 15.4 6 20.2l-5.1-.1s-12.6-15.1-.3-27.5"/><path class="st9" d="M153.5 105.5c-2.6-6.3-2.7-17.2 1.2-23 4-5.7 11.4-9.5 18.2-11 1.1-.2 2.4-.4 3.4 0 1.1.5 1.9 1.7 1.4 2.8 1.4-.9 2.8-1.7 4.4-2.1s3.4-.1 4.5 1c1.2 1.1 1.3 3.3.1 4.3 1.9-.7 4.2-.2 5.6 1.3 1.4 1.5 1.8 3.8 1 5.7-.8 1.8-2.4 3.8-3.8 5.1-1.4 1.3-1.7 2.7-1.4 4.6"/><path class="st12" d="m155.1 94-1.8 38.5c-.3 6.5 4.9 12 11.5 12 6.1 0 11.1-4.8 11.4-10.9.1-2.9.3-5.3.3-5.6 0 0 9.8-.5 11-10.1.6-4.7.9-14.4 1.2-23.2.3-9.4-6.8-17.5-16.2-18.5l-.9-.1c-10.2-.6-16.3 7.7-16.5 17.9z"/><path class="st14" d="M176.5 127.7s-6.2-.2-12.2-4.9c0 0 1.9 6.1 11.7 6.2l.5-1.3z"/><path class="st9" d="M185.1 100.8c-.1.7-.7 1.3-1.5 1.3s-1.3-.7-1.3-1.4c.1-.7.7-1.3 1.5-1.3s1.4.6 1.3 1.4zM186.1 99.1c-.2.2-1.2-.7-2.6-.9-1.5-.2-2.7.5-2.8.3-.1-.1.1-.4.7-.7.5-.3 1.3-.5 2.3-.4.9.1 1.7.5 2.1.9.2.4.4.7.3.8zM170.5 99.7c-.1.7-.7 1.3-1.5 1.3s-1.3-.7-1.3-1.4c.1-.7.7-1.3 1.5-1.3s1.4.7 1.3 1.4zM171.4 97.8c-.2.2-1.2-.7-2.6-.9-1.5-.2-2.7.5-2.8.3-.1-.1.1-.4.7-.7.5-.3 1.3-.5 2.3-.4.9.1 1.7.5 2.1.9.3.4.4.7.3.8zM175.6 109.4c0-.1.9-.1 2.5-.2.4 0 .8 0 .8-.3.1-.3 0-.7-.1-1.2-.3-1-.5-2-.8-3-1.1-4.3-1.9-7.8-1.7-7.8.2 0 1.2 3.4 2.3 7.7.3 1.1.5 2.1.8 3 .1.4.3 1 0 1.5-.1.3-.4.4-.7.5h-.7c-1.4 0-2.4-.1-2.4-.2zM171.1 110c.2 0 .1 1.6 1.3 2.9 1.3 1.3 3 1.3 3 1.5 0 .1-.4.3-1.1.2-.7-.1-1.7-.4-2.5-1.2-.8-.8-1-1.8-1-2.4 0-.7.2-1 .3-1zM172.4 92c-.2.4-1.7 0-3.4.1-1.8 0-3.2.3-3.4 0-.1-.2.2-.5.8-.9.6-.3 1.5-.6 2.6-.6s2 .3 2.6.6c.6.3.9.6.8.8zM186 94.8c-.3.3-1.3-.2-2.5-.3-1.2-.2-2.3 0-2.5-.4-.1-.2.1-.5.6-.8.5-.3 1.3-.4 2.1-.3.8.1 1.5.5 1.9.9.4.3.5.7.4.9z"/><path class="st12" d="M155.1 101.2c-.2-.1-6.4-2.7-6.9 4-.5 6.6 6.3 5.8 6.3 5.6 0-.2.6-9.6.6-9.6z"/><path class="st14" d="M152.7 108.1s-.1.1-.3.1c-.2.1-.5.1-.9 0-.7-.3-1.2-1.5-1.1-2.7 0-.6.2-1.2.4-1.6.2-.5.6-.8.9-.8.4-.1.6.2.7.4.1.2 0 .3.1.3 0 0 .2-.1.1-.4 0-.1-.1-.3-.2-.4-.1-.1-.4-.2-.6-.2-.5 0-1 .4-1.3.9-.3.5-.5 1.1-.5 1.8-.1 1.3.5 2.6 1.5 3 .5.2.9 0 1.1-.1 0-.2.1-.3.1-.3z"/><path class="st9" d="M193.8 82.4c.1 8.7-10.8 11.4-15 6.3-2-2.4-3.6-5.3-6.5-6.5-1.9-.8-4.2-.6-6.1.2h-.1c-2.8 1.2-4.7 4.3-5.4 7.3-.9 4.2-.5 8-1.9 11.8-.2.5-.4 1.1-.9 1.4-.8.5-2-.1-2.6-.9-1-1.3-1.2-2.9-1.3-4.5-.3-3.6.1-7.3 1.2-10.7 1.2-3.4 3.2-6.6 6.1-8.8 3.6-2.8 8.3-3.9 12.8-3.3 4.5.6 8.7 2.7 12 5.8 1.5 1.4 2.9 3.1 3.6 5.1"/><path class="st10" d="M187.2 77.1s.3-.1.9.1c.6.2 1.4.6 2.1 1.4.7.8 1.3 2 1.4 3.5.1 1.5-.5 3-1.6 4.3-1.1 1.3-2.5 2.1-3.8 2.5-1.3.4-2.6.5-3.7.5s-1.9-.1-2.5-.3c-.6-.1-.9-.2-.9-.3 0-.1 1.3.2 3.4.2 1 0 2.3-.2 3.5-.6 1.3-.4 2.6-1.2 3.6-2.4s1.6-2.6 1.5-3.9c0-1.3-.6-2.5-1.2-3.2-.6-.8-1.4-1.2-1.9-1.4-.5-.3-.8-.3-.8-.4zM183 73.7s.2-.1.6.2c.4.2.8.7.9 1.5.1.8-.2 1.7-.7 2.5-.5.8-1.2 1.7-2 2.4-1.7 1.5-3.6 2.3-5 2.6-1.4.3-2.3.3-2.3.2 0-.1.9-.1 2.2-.6 1.3-.4 3.1-1.2 4.7-2.7.8-.7 1.4-1.5 2-2.3.5-.8.8-1.5.7-2.2-.1-.7-.4-1.1-.7-1.4-.2-.1-.4-.1-.4-.2z"/><path class="st12" d="m154.9 168.2 3.1-22.7-44.7 9-40.7-14.1-11 11.3 43.3 22.3c3.9 1.8 8.2 2.4 12.4 1.6l37.6-7.4z"/><path class="st12" d="M72.6 140.4S57 133 56.1 132.7c-.8-.2-12.5-.8-17.9-1.1-2.1-.1-2.4 3-.3 3.3h.2c3 .2 9.6 1.7 9.6 1.7l-3 7c-.3.7-.1 1.5.5 2l9 6.7c2.4 1.1 5.2.8 7.4-.7l4 .8 7-12z"/><path class="st12" d="M44.6 144.1c.3 1.3 3.4 4 5.8 4 .5 0 1.1-.2 1.4-.5.4-.4.5-.9.3-1.4-.1-.3-.4-.5-.7-.7-1.8-1.4-3.5-2.7-5.3-4.1"/><path class="st14" d="M46.1 141.3c0-.1.9.5 2.2 1.5.7.5 1.5 1.1 2.3 1.7.4.3.9.6 1.4 1.1.2.2.4.6.4 1s-.1.7-.3 1c-.5.6-1.2.8-1.8.7-.6 0-1.2-.2-1.7-.4-1-.4-1.9-1-2.5-1.6-.6-.6-1-1.1-1.3-1.5-.2-.4-.2-.7-.2-.7s.1.2.4.6c.3.4.7.8 1.3 1.3.6.5 1.4 1 2.4 1.4.5.2 1 .3 1.6.3.5 0 1.1-.2 1.4-.6.3-.4.3-1-.1-1.3-.4-.4-.9-.7-1.3-1.1-.8-.7-1.6-1.3-2.2-1.8-1.2-.9-2-1.6-2-1.6zM57.2 148.1s-.3-.2-.7-.7c-.3-.5-.6-1.3-.7-2.2 0-.9.2-1.7.5-2.3.3-.5.6-.8.6-.7.1.1-.7 1.3-.6 3 .1 1.7 1 2.8.9 2.9z"/><path class="st12" d="M50.9 144.5c.5.7 1.4 1.1 2.3.9.8-.2 1.5-1.1 1.5-2 0-1.1-.9-2-1.8-2.8-1.3-1.2-2.6-2.3-3.9-3.5"/><path class="st14" d="M49 137.1c0-.1.7.4 1.6 1.2.5.5 1.1.9 1.7 1.4.6.6 1.3 1.1 2 1.9.3.4.5.9.6 1.4.1.5 0 1-.3 1.4-.4.8-1.3 1.2-2 1.2s-1.2-.4-1.4-.6c-.3-.3-.3-.5-.3-.5s.2.1.4.3c.3.2.7.4 1.3.4.6 0 1.2-.4 1.6-1 .4-.7.2-1.5-.3-2.3-.5-.7-1.3-1.3-1.9-1.9-.6-.5-1.1-1-1.6-1.5-.9-.8-1.4-1.3-1.4-1.4z"/><path class="st12" d="M57.6 136.5c-3.1.7-6.1 2-8.9 3.7-.2.1-.3.2-.4.4-.1.3.1.5.3.7.8.6 1.9.8 2.9.7 1-.1 2-.3 3.1-.3 1.8 0 3.4.9 5.1 1.4 1.7.5 3.8.5 5-.9"/><path class="st14" d="M64.8 142.2s0 .1-.2.2c-.1.1-.3.3-.6.5-.6.4-1.7.7-3 .5-1.3-.1-2.7-.7-4.3-1.2-.8-.2-1.6-.4-2.5-.3-.9 0-1.8.3-2.8.3-1 .1-2-.1-2.8-.7-.2-.1-.4-.3-.5-.7 0-.2 0-.4.1-.5l.3-.3c.4-.2.7-.5 1.1-.7 1.5-.8 2.9-1.4 4-1.9 1.2-.4 2.2-.7 2.9-.9.7-.2 1.1-.2 1.1-.2 0 .1-1.5.4-3.8 1.4-1.2.5-2.5 1.1-3.9 1.9-.4.2-.7.4-1.1.7-.2.1-.2.2-.2.3 0 .1.2.3.3.4.7.5 1.6.6 2.5.6.9-.1 1.9-.3 2.8-.3.9 0 1.8.1 2.7.4 1.6.5 3 1.1 4.2 1.3 1.2.2 2.2 0 2.8-.3.6-.3.9-.6.9-.5zM114 162.3c-.1 0-.7-1.7-.7-4-.1-2.3.4-4.1.5-4 .2 0 0 1.8 0 4s.3 4 .2 4z"/><path class="st13" d="m153.1 134.9-12.7 14.3s-6.8 49.4-7.3 53.2c-.5 3.9-1.8 16.3-1.8 19.7 0 3.4-2.8 27.6-2.8 27.6s53.8 11.2 62.8 0l-2.8-20.7 2.4-51.5s4-35.7-14.8-44c.1 0-11.8 7.2-23 1.4z"/><path class="st9" d="M184.8 138.6s-3.7-3.7-15.6-.6c-12.5 3.2-19.1 14.9-16 48 2.6 27.3 13.4 31.2 13.4 31.2s-5.9-41.2-4.9-58.4c1.3-21.8 23.1-16.3 23.1-16.3 3.1-1 0-3.9 0-3.9z"/><path class="st13" d="m153.1 134.9-11 3.1-24.6 15.1 7 22.3 14.5-1.6z"/><path class="st9" d="M138.8 150.4c.1 0-.5 8-1.4 17.8-.9 9.8-1.8 17.8-1.9 17.8-.1 0 .5-8 1.4-17.8.9-9.8 1.8-17.8 1.9-17.8zM189 219.7s-3.5 11.3-15.9-7.3-10.6-10.3-10.6-10.3l-2.5 3s13.6 30.7 28.9 25.9l.1-11.3z"/><path class="st21" d="m138.3 155.8-9.7 19.1 8-.9zM133.8 206.6c7.2 7.8 15.7 14.3 25 19.2 3.9 2.1 8.3 3.9 12.7 3.3 4.8-.6 9-4.1 11.3-8.4 2.3-4.3 2-6.4 2.5-11.2.6-5.3.6-12.5.9-17.3 0-.9.1-1.9.1-2.8 0-2.1 1.4-4 3.4-4.6 0 0-2.9-1.4-4.9-1.1-2 .3-3.5 1.9-4.5 3.6-5.5 9-3.1 22.3-13.6 27.9-3.4 1.8-7.4 2.3-11.2 1.6-8.6-1.4-15.1-7-21.4-12.5"/><ellipse class="st8" cx="145.7" cy="173.6" rx="4.7" ry="14.3"/><path class="st13" d="m148.2 421.9 1.1 23.5s-23.5 9-23.8 13.4l45.7-.5-.2-36.7-22.8.3z"/><g class="st18"><path class="st19" d="M163.4 443.3c.9.2 1.5 1.2 1.3 2.1-.2.9-1.2 1.5-2.1 1.3-.9-.2-1.7-1.4-1.4-2.2.3-.9 1.5-1.6 2.3-1.1"/></g><path class="st20" d="M171.2 458.3v-3.7l-43.9 1.8s-2 .9-1.8 2.3l45.7-.4z"/><path class="st9" d="M148.6 445.2c0 .2 1.1.3 2.2 1s1.7 1.6 1.9 1.5c.2 0-.1-1.4-1.5-2.2-1.3-.8-2.7-.5-2.6-.3zM143.8 447.2c0 .2.9.6 1.7 1.5.8.9 1 1.9 1.2 1.9.2 0 .4-1.3-.6-2.4-1-1.1-2.3-1.2-2.3-1zM141.1 453c.2 0 .5-1.1-.1-2.3-.6-1.2-1.6-1.7-1.7-1.5-.1.2.6.8 1 1.8.5 1 .6 2 .8 2zM148.9 439.8c.1.2 1.1-.1 2.4 0 1.3 0 2.2.5 2.4.3.1-.2-.8-1-2.3-1-1.6-.2-2.6.6-2.5.7z"/><path class="st21" d="m148.4 426.6.2 4.2 22.5-.5v-3.7z"/><path class="st9" d="M148.8 435.1c0 .1.9.2 2.3 0 .7-.1 1.5-.4 2.4-.8.4-.2.9-.4 1.3-.7.2-.1.5-.3.7-.5.2-.2.4-.8.1-1.2-.2-.3-.7-.5-1-.5-.3 0-.6.1-.9.1-.5.1-1 .3-1.4.5-.9.4-1.6.9-2.1 1.4-1 1-1.4 1.8-1.3 1.9.1.1.6-.6 1.7-1.5.5-.4 1.2-.8 2-1.2.4-.2.8-.3 1.3-.4.5-.1.9-.1 1 .1 0 .1.1.1 0 .3-.1.1-.3.3-.5.4-.4.3-.8.5-1.2.7-.8.4-1.6.7-2.2.9-1.4.3-2.2.4-2.2.5z"/><path class="st9" d="M149.1 435.4c.1 0 .5-.8.6-2.2 0-.7-.1-1.6-.3-2.5-.1-.5-.3-.9-.6-1.4-.3-.4-.6-1-1.5-1.1-.5 0-.8.3-.9.6-.1.3-.2.6-.2.8-.1.5-.1 1.1 0 1.5.2 1 .6 1.8 1 2.4.9 1.2 1.8 1.4 1.9 1.4.1-.1-.7-.5-1.4-1.7-.3-.6-.6-1.3-.7-2.1v-1.3c.1-.5.2-.9.4-.8.2 0 .6.4.8.7l.6 1.2c.3.8.4 1.6.5 2.3-.1 1.3-.4 2.2-.2 2.2z"/><path class="st13" d="m192.5 407.7 18.5 14.6s-8.6 23.7-5.5 26.7l29.6-34.8-27.8-23.9-14.8 17.4z"/><g class="st18"><path class="st19" d="M218.6 410.2c.8-.5 1.9-.3 2.5.4.5.7.4 1.9-.4 2.4-.7.5-2.1.4-2.6-.4s-.2-2.2.7-2.5"/></g><path class="st20" d="m235 414.2-2.8-2.4-27.4 34.3s-.6 2.1.6 2.9l29.6-34.8z"/><path class="st9" d="M210.3 422.7c.2.1 1-.6 2.2-1 1.2-.4 2.3-.2 2.4-.4.1-.2-1.1-.8-2.6-.3-1.6.4-2.2 1.6-2 1.7zM208.7 427.6c.1.2 1-.3 2.3-.3 1.2 0 2.1.5 2.2.3.2-.1-.7-1.1-2.2-1.1-1.6 0-2.5 1-2.3 1.1zM211.3 433.4c.2-.1-.5-1.1-1.8-1.4-1.3-.4-2.3.1-2.3.3.1.2 1 .1 2.1.4 1.1.3 1.8.8 2 .7zM206.4 418.9c.2.1.6-.9 1.5-1.8s1.8-1.4 1.8-1.6c0-.2-1.3 0-2.3 1.1-1 1-1.2 2.2-1 2.3z"/><path class="st21" d="m196.1 410.5 3.3 2.6 14.4-17.2-2.9-2.5z"/><path class="st9" d="M202.8 415.9c.1.1.7-.5 1.5-1.7.4-.6.7-1.4 1-2.3.1-.5.2-.9.3-1.5 0-.2.1-.5 0-.9 0-.3-.4-.8-.8-.8s-.8.2-1 .4c-.2.2-.4.5-.5.7-.2.5-.4.9-.5 1.4-.3.9-.3 1.8-.3 2.5.1 1.4.5 2.3.5 2.2.1 0-.1-.9 0-2.2 0-.7.2-1.5.4-2.3.1-.4.3-.8.5-1.3s.5-.8.7-.7c.1 0 .1 0 .2.2v.6c-.1.5-.1.9-.3 1.4-.2.9-.5 1.6-.8 2.2-.5 1.3-1 2-.9 2.1z"/><path class="st9" d="M203.2 415.8c.1 0-.2-.9-1.3-1.9-.5-.5-1.2-1-2.1-1.4-.4-.2-.9-.3-1.4-.5-.5-.1-1.2-.2-1.8.4-.3.3-.3.8-.1 1.1.1.3.3.5.5.7.4.4.8.7 1.2 1 .8.5 1.7.7 2.4.8 1.5.1 2.3-.4 2.2-.5 0-.1-.9.2-2.2 0-.6-.1-1.4-.4-2.1-.8-.4-.2-.7-.5-1-.9-.3-.4-.5-.8-.3-.9.1-.2.7-.2 1.1-.1.5.1.9.2 1.3.4.8.3 1.5.7 2 1.1 1 .9 1.5 1.6 1.6 1.5zM141.3 322.5s1.2-56.2 0-56.2-9.9-4.9-9.9-4.9l-10.8 83.5s-1 9.4 10.6 16 63.4 52.7 63.4 52.7l17.5-21.4s-34.1-35.6-48-47.3c-10.9-9.3-22.8-22.4-22.8-22.4z"/><path class="st9" d="m173 309.4 1.2-8.9s8.5-18 9.8-25.7c1.2-7.7.4-24.3.4-24.3h-53.9s.2 60.9 6.7 78c0 0 3.3 32.7 3.8 35.4 1 5.8 4.6 65.4 4.6 65.4l27.2-1s2.4-54.7.5-70.3c-.9-7.7-1.4-15.9-1.6-22.7-.3-8.6.2-17.3 1.3-25.9z"/><path class="st10" d="M131.9 268.3v.3c0 .2 0 .5.1.8 0 .7.1 1.7.1 3 .1 2.6.3 6.4.6 11.1.5 9.4 1.5 22.4 3 36.7 1.5 14.3 3.1 27.2 4.2 36.6.6 4.6 1 8.4 1.4 11.1.1 1.3.3 2.3.3 3 0 .3.1.6.1.8v.3s0-.1-.1-.3c0-.2-.1-.5-.1-.8-.1-.7-.3-1.7-.4-3-.4-2.7-.9-6.4-1.5-11-1.2-9.3-2.9-22.2-4.4-36.5-1.5-14.3-2.4-27.3-2.9-36.7-.2-4.7-.4-8.5-.4-11.1v-4.3zM171.7 340.4s.1.3.2.9c.1.6.2 1.5.4 2.5.3 2.2.6 5.4.9 9.4.6 7.9 1.1 19 1.3 31.1.1 12.2 0 23.2-.5 31.1-.2 4-.5 7.2-.7 9.4-.1 1.1-.2 1.9-.3 2.6-.1.6-.1.9-.1.9v-.9c0-.6.1-1.5.2-2.6.2-2.2.4-5.4.5-9.4.3-8 .5-19 .3-31.1-.2-12.2-.6-23.2-1.2-31.1-.3-4-.5-7.2-.8-9.4-.1-1.1-.2-1.9-.3-2.6.1-.5 0-.8.1-.8z"/><path class="st9" d="M182.3 137.3s8.8 2.4 10.7 15.5c1.9 13.2-1.6 16.9-1.6 16.9s1.4-24.5-9.5-27.8l.4-4.1M122.1 180.3l-45.6-.9.6 2.2 44.8.7z"/><path class="st13" d="M177.4 141.4c-1.7-.5-3.5-.2-5.1.4-3.7 1.6-10.5 6-10.9 18.6l-.8 20.4 29.2 3.8c-.1.1 2.4-39.2-12.4-43.2z"/><path class="st12" d="m123.7 184.6 37 11.1.6-14.9 22.1 3.2-1.2 24.2c-.3 7.1-5.2 13.1-12.2 14.8-3.9.9-7.9.3-11.4-1.6L119.3 199l4.4-14.4z"/><path class="st9" d="M189.7 184.7v-1.3c0-.9-.1-2.1-.1-3.7-.1-3.3-.3-7.9-.4-13.6-.1-2.9-.2-6-.3-9.4 0-.8 0-1.7-.1-2.6 0-.4-.1-.9-.1-1.3-.1-.4-.2-.9-.3-1.3-.4-1.7-1.3-3.4-2.4-4.9-2.3-2.9-6-5.1-10.1-5.2-2-.1-4.1.6-5.9 1.7-1.8 1.1-3.3 2.7-4.5 4.5-1.8 2.6-2.8 5.5-3.3 8.5-.6 3-.8 5.9-.9 8.8-.2 5.7-.3 11.1-.5 16l-.2-.2c8.7 1.2 16 2.2 21.1 2.9 2.5.4 4.5.6 5.9.8.7.1 1.2.2 1.6.2.3.1.5.1.5.1h-.5c-.4 0-.9-.1-1.5-.2-1.4-.2-3.4-.4-5.9-.7-5.1-.6-12.5-1.6-21.3-2.7h-.2v-.2c.1-4.9.2-10.3.4-16.1.1-2.9.3-5.9.9-8.9.6-3 1.6-6 3.4-8.7 1.2-1.8 2.8-3.5 4.7-4.6 1.9-1.1 4-1.8 6.1-1.7 4.3.1 8.1 2.4 10.5 5.4 1.2 1.5 2 3.3 2.5 5 .1.4.2.9.3 1.3 0 .5.1.9.1 1.3 0 .9 0 1.7.1 2.6.1 3.4.1 6.6.2 9.5.1 5.7.2 10.4.2 13.6 0 1.6 0 2.8.1 3.7v.9c-.1.4-.1.5-.1.5z"/><path class="st12" d="m124.5 185-8.9-6.6c-1.6-1.2-4.1-1-6.1-1.1-4-.4-10.5 2-10.8 2.5l2.7 2.1-17.3-.5s1.5 3.6 6.3 4c0 0 .6 3.9 5.6 4.6 0 0 1.3 3.2 4.1 4.1 0 0 .6 3.5 5 3.3l15.1 1.7 4.3-14.1z"/><path class="st14" d="M101.2 186c0 .1-2.5.1-5.5-.1s-5.4-.4-5.4-.6c0-.1 2.5-.1 5.5.1s5.4.5 5.4.6zM105.6 190.2c0 .1-2.1.3-4.8.3-2.6 0-4.8-.1-4.8-.3 0-.1 2.1-.3 4.8-.3 2.6 0 4.8.1 4.8.3zM110.2 194.1c0 .1-2.1.3-4.8.3-2.6 0-4.8-.1-4.8-.3s2.1-.3 4.8-.3c2.7 0 4.8.2 4.8.3zM163.1 203.3c-.1.1-.9-1.5-1.6-3.6-.7-2.1-1.1-3.8-1-3.9.1 0 .7 1.6 1.4 3.7.8 2 1.4 3.7 1.2 3.8zM165.8 201.8c-.1.1-1.3-1.4-2.8-3.1-1.5-1.8-2.7-3.2-2.6-3.3.1-.1 1.5 1.2 3 3s2.5 3.3 2.4 3.4z"/></svg>