<svg version="1.1" id="Layer_1" xmlns="http://www.w3.org/2000/svg" x="0" y="0" viewBox="0 0 500 500" style="enable-background:new 0 0 500 500" xml:space="preserve"><style>.st0{fill:#ebebeb}.st1{fill:#fafafa}.st2{fill:#e8505b}.st3{fill:#5027bd}.st4{fill:#263238}.st5{opacity:.3}.st6{fill:#ffbe9d}.st7{fill:#eb996e}.st8{fill:#fff}.st9{fill:#2c188c}.st11{fill:#455a64}</style><g id="Background_Complete"><path class="st0" d="M456.6 394.9c-.5-5.2-2.9-9.8-5.3-14.2-6.9-13.2-13.9-26.4-20.8-39.6-10-19.1-20.3-38.5-34.9-53.2-11.8-11.8-25.9-20-38.2-31-12.3-11.1-23.2-26.4-24.1-44.5-.4-8.3 1.3-16.6 1-24.9-.6-19.6-11.8-36.4-22.5-51.6l-13.5-19.2c-6.4-9.1-13.6-18.8-23.5-21.4-9-2.3-18.2 1.8-26.8 5.8-12.6 5.9-25.5 12.1-35.3 23-4.4 4.9-8.1 10.7-11.6 16.6-13.5 22.8-24.4 47.7-32.2 73.9-2.2 7.2-4.1 14.8-3.2 22.4.4 3.8 1.6 8 .1 11.4-.9 2-2.5 3.5-4.1 4.8-16 14.2-29.3 32.1-42.5 49.9-5 6.7-10 13.4-14.9 20.2-10.6 14.2-21.1 28.5-30 44.3-6 10.6-11.2 22.1-13.2 34.5-2.1 12.5-1 32.6 5.3 43h358c6.5-2.7 14.2-8.2 19.7-13.2 6.1-5.5 8.6-14.6 10.7-23.2 1.2-4.3 2.3-9 1.8-13.8zM444.7 91.2c2.5-.8 8-3.1 7.4-6.4-.8-4.3-2.3-4.6-2.7-5-.8-.3-.4-2.1-.3-3.7.2-5.5-2.2-12-2.2-12-3.5-8-9-13.5-18.3-14.6-2.7-.3-5.3-.2-7.9.2-.1 0-.2 0-.3.1-.6.1-1.3.2-1.9.4-2.5.7-5 1.7-7.2 3.1-7.7 4.9-9.8 12.1-9 20.7 0 0 1.1 6.7 4 11.6.8 1.4 2.2 2.8 2.1 3.2-.1.6-1.3 1.4.1 5.6 1.1 3.2 7.1 2.9 9.8 2.6.7-.1 1.4.4 1.6 1.1l1.7 6.3c.2.8 1 1.2 1.8 1.1l.8-.2c.8-.2 1.2-.9 1.1-1.7l-.3-1.5c-.2-.7.3-1.5 1.1-1.7.8-.2 1.6.3 1.8 1.1l.5 2c.2.8 1 1.2 1.8 1.1l.8-.2c.8-.2 1.3-.9 1.1-1.7l-.5-1.9c-.2-.8.3-1.5 1.1-1.7l.2-.1c.8-.2 1.6.3 1.8 1.1l.5 1.9c.2.8 1 1.2 1.8 1.1l.8-.2c.8-.2 1.3-.9 1.1-1.7l-.5-2c-.2-.8.3-1.5 1.1-1.7s1.6.3 1.8 1l.4 1.5c.2.7 1 1.2 1.8 1l.8-.2c.8-.2 1.3-.9 1.1-1.7l-1.6-6.3c-.2-.7.2-1.4.9-1.6zm-25.9-5.1c-3.6 1-7.5-1-8.6-4.5-1.1-3.5.9-7.2 4.6-8.2 3.6-1.1 7.5 1 8.6 4.5 1.1 3.5-.9 7.2-4.6 8.2zm15.4 4.3c-1.3 2-2.9.5-2.9.5.1.7-.3 1-.8 1.2-1.5.6-3.3-.4-3.8-1.9-1.2-3.5 1.5-8.5 1.7-8.6 0 0 8.1 5.5 5.8 8.8zm2.1-10c-3.7-.8-6.1-4.4-5.3-7.9.8-3.6 4.4-5.8 8.1-5 3.7.8 6.1 4.4 5.3 7.9-.7 3.6-4.4 5.8-8.1 5z"/></g><g id="Background_Simple"><path class="st0" d="M90.8 320.9c-.2 0-.3.1-.4.1l.4-.1z"/><path class="st0" d="M134 254.9c-1.3-15.7-12.2-31.5-27.8-34.1-8.6-1.4-18.8 2.3-21.5 10.6-3.3 10.2 5.7 22.2.6 31.6-4 7.4-14.1 8.5-20.8 13.5-9.5 7.1-10.7 22.3-3.8 32s18.2 14 30 12.4c11.3-2.7 24.2-11.4 30.1-21.4 8.1-13.5 14.5-28.9 13.2-44.6zM363.5 62.5c-4-8.1-13-12.7-21.9-14.2-17.3-3-29.7-2-40.8 11.6-4.3 4.8-6.7 11.9-8.4 18-2 6.9-.9 15 3.9 20.4s13.5 7.4 19.6 3.6c6.8-4.2 9.2-13.7 16.6-16.7 7.2-2.9 15.5 1.9 22.9-.3 8.7-2.6 12.1-14.3 8.1-22.4z"/><circle transform="rotate(-28.872 433.125 186.156)" class="st0" cx="433.1" cy="186.2" r="18.2"/></g><g id="Screens"><path class="st1" d="M40.9 57.5h232.5v155.1H40.9z"/><path class="st2" d="M83.3 76.1c0 .1-4.7.2-10.4.2s-10.4-.1-10.4-.2 4.7-.2 10.4-.2c5.8 0 10.4.1 10.4.2z"/><path class="st3" d="M72.9 76.5c-2.8 0-5.4 0-7.3-.1-3.2-.1-3.2-.1-3.2-.3 0-.2 0-.2 3.2-.3 2 0 4.6-.1 7.3-.1 2.8 0 5.4 0 7.3.1 3.2.1 3.2.1 3.2.3 0 .2 0 .2-3.2.3-1.9.1-4.5.1-7.3.1zm-8.1-.4c1.8.1 4.6.1 8.1.1s6.3 0 8.1-.1c-1.8-.1-4.6-.1-8.1-.1-3.5.1-6.3.1-8.1.1z"/><path class="st2" d="M83.3 195.3c0 .1-4.7.2-10.4.2s-10.4-.1-10.4-.2 4.7-.2 10.4-.2c5.8 0 10.4.1 10.4.2z"/><path class="st3" d="M72.9 195.7c-2.8 0-5.4 0-7.3-.1-3.2-.1-3.2-.1-3.2-.3s0-.2 3.2-.3c2 0 4.6-.1 7.3-.1 2.8 0 5.4 0 7.3.1 3.2.1 3.2.1 3.2.3s0 .2-3.2.3c-1.9.1-4.5.1-7.3.1zm-8.1-.4c1.8.1 4.6.1 8.1.1s6.3 0 8.1-.1c-1.8-.1-4.6-.1-8.1-.1s-6.3.1-8.1.1z"/><path class="st2" d="M112.2 93.6c0 .1-8.7.2-19.4.2s-19.4-.1-19.4-.2 8.7-.2 19.4-.2 19.4.1 19.4.2z"/><path class="st3" d="M92.8 94c-5.2 0-10.1 0-13.7-.1-5.8-.1-5.8-.1-5.8-.3 0-.2 0-.2 5.8-.3 3.7 0 8.6-.1 13.7-.1 5.2 0 10.1 0 13.7.1 5.8.1 5.8.1 5.8.3 0 .2 0 .2-5.8.3-3.6.1-8.5.1-13.7.1zm-15.1-.4c3.4.1 8.6.1 15.1.1s11.8 0 15.1-.1c-3.4 0-8.6-.1-15.1-.1s-11.8 0-15.1.1z"/><path class="st4" d="M157.2 93.6c0 .1-8.7.2-19.4.2s-19.4-.1-19.4-.2 8.7-.2 19.4-.2 19.4.1 19.4.2z"/><path class="st4" d="M137.8 94c-5.2 0-10.1 0-13.7-.1-5.8-.1-5.8-.1-5.8-.3 0-.2 0-.2 5.8-.3 3.7 0 8.6-.1 13.7-.1 5.2 0 10.1 0 13.7.1 5.8.1 5.8.1 5.8.3 0 .2 0 .2-5.8.3-3.7.1-8.5.1-13.7.1zm-15.2-.4c3.4.1 8.6.1 15.1.1s11.8 0 15.1-.1c-3.4 0-8.6-.1-15.1-.1s-11.7 0-15.1.1zM140 102.1c0 .1-12.8.2-28.6.2s-28.6-.1-28.6-.2 12.8-.2 28.6-.2c15.8-.1 28.6 0 28.6.2z"/><path class="st4" d="M111.4 102.5c-7.7 0-14.8 0-20.3-.1-8.5-.1-8.5-.1-8.5-.3 0-.2 0-.2 8.5-.3 5.4 0 12.6-.1 20.3-.1 7.6 0 14.8 0 20.3.1 8.5.1 8.5.1 8.5.3 0 .2 0 .2-8.5.3-5.5 0-12.7.1-20.3.1zm-22.4-.4c5 .1 12.7.1 22.3.1s17.3 0 22.3-.1c-5-.1-12.7-.1-22.3-.1s-17.3 0-22.3.1zM140 110.6c0 .1-12.8.2-28.6.2s-28.6-.1-28.6-.2 12.8-.2 28.6-.2c15.8-.1 28.6 0 28.6.2z"/><path class="st4" d="M111.4 110.9c-7.6 0-14.8 0-20.3-.1-8.5-.1-8.5-.1-8.5-.3 0-.2 0-.2 8.5-.3 5.4 0 12.6-.1 20.3-.1s14.8 0 20.3.1c8.5.1 8.5.1 8.5.3 0 .2 0 .2-8.5.3-5.5.1-12.7.1-20.3.1zm-22.3-.3c5 0 12.7.1 22.3.1s17.3 0 22.3-.1c-5-.1-12.7-.1-22.3-.1-9.6 0-17.4 0-22.3.1zM179.5 136c0 .1-12.8.2-28.6.2s-28.6-.1-28.6-.2 12.8-.2 28.6-.2c15.7 0 28.6.1 28.6.2z"/><path class="st4" d="M150.8 136.4c-7.7 0-14.8 0-20.3-.1-8.5-.1-8.5-.1-8.5-.3s0-.2 8.5-.3c5.4 0 12.6-.1 20.3-.1s14.8 0 20.3.1c8.5.1 8.5.1 8.5.3s0 .2-8.5.3c-5.4 0-12.6.1-20.3.1zm-22.3-.4c5 0 12.7.1 22.3.1s17.3 0 22.3-.1c-5-.1-12.7-.1-22.3-.1s-17.3 0-22.3.1zM162.4 119c0 .1-12.8.2-28.6.2s-28.6-.1-28.6-.2 12.8-.2 28.6-.2 28.6.1 28.6.2z"/><path class="st4" d="M133.8 119.4c-7.7 0-14.8 0-20.3-.1-8.5-.1-8.5-.1-8.5-.3 0-.2 0-.2 8.5-.3 5.4 0 12.6-.1 20.3-.1 7.6 0 14.8 0 20.3.1 8.5.1 8.5.1 8.5.3 0 .2 0 .2-8.5.3-5.5.1-12.7.1-20.3.1zm-22.3-.4c5 .1 12.7.1 22.3.1s17.3 0 22.3-.1c-5 0-12.7-.1-22.3-.1s-17.3.1-22.3.1zM232.4 119c0 .1-12.8.2-28.6.2s-28.6-.1-28.6-.2 12.8-.2 28.6-.2 28.6.1 28.6.2z"/><path class="st4" d="M203.8 119.4c-7.7 0-14.8 0-20.3-.1-8.5-.1-8.5-.1-8.5-.3 0-.2 0-.2 8.5-.3 5.4 0 12.6-.1 20.3-.1 7.6 0 14.8 0 20.3.1 8.5.1 8.5.1 8.5.3 0 .2 0 .2-8.5.3-5.5.1-12.6.1-20.3.1zm-22.3-.4c5 .1 12.7.1 22.3.1s17.3 0 22.3-.1c-5 0-12.7-.1-22.3-.1s-17.3.1-22.3.1zM208.1 102.1c0 .1-12.8.2-28.6.2s-28.6-.1-28.6-.2 12.8-.2 28.6-.2c15.8-.1 28.6 0 28.6.2z"/><path class="st4" d="M179.5 102.5c-7.7 0-14.8 0-20.3-.1-8.5-.1-8.5-.1-8.5-.3 0-.2 0-.2 8.5-.3 5.4 0 12.6-.1 20.3-.1 7.6 0 14.8 0 20.3.1 8.5.1 8.5.1 8.5.3 0 .2 0 .2-8.5.3-5.5 0-12.7.1-20.3.1zm-22.4-.4c5 .1 12.7.1 22.3.1s17.3 0 22.3-.1c-5-.1-12.7-.1-22.3-.1s-17.3 0-22.3.1zM247.7 136c0 .1-12.8.2-28.6.2s-28.6-.1-28.6-.2 12.8-.2 28.6-.2c15.7 0 28.6.1 28.6.2z"/><path class="st4" d="M219 136.4c-7.7 0-14.8 0-20.3-.1-8.5-.1-8.5-.1-8.5-.3s0-.2 8.5-.3c5.4 0 12.6-.1 20.3-.1s14.8 0 20.3.1c8.5.1 8.5.1 8.5.3s0 .2-8.5.3c-5.4 0-12.6.1-20.3.1zm-22.3-.4c5 0 12.7.1 22.3.1s17.3 0 22.3-.1c-5-.1-12.7-.1-22.3-.1s-17.3 0-22.3.1zM239.8 110.6c0 .1-19.9.2-44.5.2s-44.5-.1-44.5-.2 19.9-.2 44.5-.2c24.6-.1 44.5 0 44.5.2z"/><path class="st4" d="M195.3 110.9c-11.9 0-23.1 0-31.5-.1-9.7-.1-12.3-.1-12.9-.2-.2 0-.2-.1-.2-.1 0-.1 0-.1.2-.1.7-.1 3.2-.1 12.9-.2 8.4 0 19.6-.1 31.5-.1s23.1 0 31.5.1c9.8.1 12.3.1 12.9.2.2 0 .2.1.2.1s0 .1-.2.1c-.7.1-3.2.1-12.9.2-8.5.1-19.6.1-31.5.1zm-34.7-.3c8.2.1 20.8.1 34.7.1s26.5 0 34.7-.1c-8.2-.1-20.8-.1-34.7-.1-13.9 0-26.5 0-34.7.1zM83.3 85.1c0 .1-4.7.2-10.4.2s-10.4-.1-10.4-.2 4.7-.2 10.4-.2c5.8 0 10.4.1 10.4.2z"/><path class="st4" d="M72.9 85.5c-2.8 0-5.4 0-7.3-.1-3.2-.1-3.2-.1-3.2-.3 0-.2 0-.2 3.2-.3 2 0 4.6-.1 7.3-.1 2.8 0 5.4 0 7.3.1 3.2.1 3.2.1 3.2.3 0 .2 0 .2-3.2.3-1.9.1-4.5.1-7.3.1zm-8.1-.4c1.8.1 4.6.1 8.1.1s6.3 0 8.1-.1c-1.8-.1-4.6-.1-8.1-.1s-6.3.1-8.1.1zM83.3 186.9c0 .1-4.7.2-10.4.2s-10.4-.1-10.4-.2 4.7-.2 10.4-.2c5.8-.1 10.4 0 10.4.2z"/><path class="st4" d="M72.9 187.2c-2.8 0-5.4 0-7.3-.1-3.2-.1-3.2-.1-3.2-.3s0-.2 3.2-.3c2 0 4.6-.1 7.3-.1 2.8 0 5.4 0 7.3.1 3.2.1 3.2.1 3.2.3s0 .2-3.2.3c-1.9.1-4.5.1-7.3.1zm-8.1-.3c1.8.1 4.6.1 8.1.1s6.3 0 8.1-.1c-1.8 0-4.6-.1-8.1-.1s-6.3 0-8.1.1zM93.6 119c0 .1-4.7.2-10.4.2s-10.4-.1-10.4-.2 4.7-.2 10.4-.2c5.8 0 10.4.1 10.4.2z"/><path class="st4" d="M83.2 119.4c-2.8 0-5.4 0-7.3-.1-3.2-.1-3.2-.1-3.2-.3 0-.2 0-.2 3.2-.3 2 0 4.6-.1 7.3-.1 2.8 0 5.4 0 7.3.1 3.2.1 3.2.1 3.2.3 0 .2 0 .2-3.2.3-1.9.1-4.5.1-7.3.1zm-8.1-.4c1.8.1 4.6.1 8.1.1s6.3 0 8.1-.1c-1.8 0-4.6-.1-8.1-.1s-6.3.1-8.1.1zM260.1 119c0 .1-4.7.2-10.4.2s-10.4-.1-10.4-.2 4.7-.2 10.4-.2c5.8 0 10.4.1 10.4.2z"/><path class="st4" d="M249.7 119.4c-2.8 0-5.4 0-7.3-.1-3.2-.1-3.2-.1-3.2-.3 0-.2 0-.2 3.2-.3 2 0 4.6-.1 7.3-.1 2.8 0 5.4 0 7.3.1 3.2.1 3.2.1 3.2.3 0 .2 0 .2-3.2.3-1.9.1-4.5.1-7.3.1zm-8.1-.4c1.8.1 4.6.1 8.1.1s6.3 0 8.1-.1c-1.8 0-4.6-.1-8.1-.1-3.4 0-6.3.1-8.1.1z"/><path class="st2" d="M112.2 152.9c0 .1-8.7.2-19.4.2s-19.4-.1-19.4-.2 8.7-.2 19.4-.2 19.4.1 19.4.2z"/><path class="st3" d="M92.8 153.3c-5.2 0-10.1 0-13.7-.1-5.8-.1-5.8-.1-5.8-.3s0-.2 5.8-.3c3.7 0 8.6-.1 13.7-.1 5.2 0 10.1 0 13.7.1 5.8.1 5.8.1 5.8.3s0 .2-5.8.3c-3.6 0-8.5.1-13.7.1zm-15.1-.4c3.4.1 8.6.1 15.2.1 6.5 0 11.8 0 15.2-.1-3.4-.1-8.6-.1-15.2-.1s-11.9 0-15.2.1z"/><path class="st4" d="M157.2 152.9c0 .1-8.7.2-19.4.2s-19.4-.1-19.4-.2 8.7-.2 19.4-.2 19.4.1 19.4.2z"/><path class="st4" d="M137.8 153.3c-5.2 0-10.1 0-13.7-.1-5.8-.1-5.8-.1-5.8-.3s0-.2 5.8-.3c3.7 0 8.6-.1 13.7-.1 5.2 0 10.1 0 13.7.1 5.8.1 5.8.1 5.8.3s0 .2-5.8.3c-3.7 0-8.6.1-13.7.1zm-15.2-.4c3.4.1 8.6.1 15.2.1 6.5 0 11.8 0 15.2-.1-3.4-.1-8.6-.1-15.2-.1s-11.8 0-15.2.1zM140 161.4c0 .1-12.8.2-28.6.2s-28.6-.1-28.6-.2 12.8-.2 28.6-.2c15.8-.1 28.6 0 28.6.2z"/><path class="st4" d="M111.4 161.7c-7.6 0-14.8 0-20.3-.1-8.5-.1-8.5-.1-8.5-.3s0-.2 8.5-.3c5.4 0 12.6-.1 20.3-.1s14.8 0 20.3.1c8.5.1 8.5.1 8.5.3s0 .2-8.5.3c-5.5.1-12.7.1-20.3.1zm-22.3-.3c5 0 12.7.1 22.3.1s17.3 0 22.3-.1c-5-.1-12.7-.1-22.3-.1-9.6 0-17.4 0-22.3.1zM140 169.8c0 .1-12.8.2-28.6.2s-28.6-.1-28.6-.2 12.8-.2 28.6-.2 28.6.1 28.6.2z"/><path class="st4" d="M111.4 170.2c-7.7 0-14.8 0-20.3-.1-8.5-.1-8.5-.1-8.5-.3s0-.2 8.5-.3c5.4 0 12.6-.1 20.3-.1 7.6 0 14.8 0 20.3.1 8.5.1 8.5.1 8.5.3s0 .2-8.5.3c-5.5.1-12.7.1-20.3.1zm-22.4-.4c5 .1 12.7.1 22.3.1s17.3 0 22.3-.1c-5-.1-12.7-.1-22.3-.1-9.6.1-17.3.1-22.3.1zM162.4 178.3c0 .1-12.8.2-28.6.2s-28.6-.1-28.6-.2 12.8-.2 28.6-.2 28.6.1 28.6.2z"/><path class="st4" d="M133.8 178.7c-7.6 0-14.8 0-20.3-.1-8.5-.1-8.5-.1-8.5-.3s0-.2 8.5-.3c5.4 0 12.6-.1 20.3-.1s14.8 0 20.3.1c8.5.1 8.5.1 8.5.3s0 .2-8.5.3c-5.5.1-12.7.1-20.3.1zm-22.3-.4c5 .1 12.7.1 22.3.1s17.3 0 22.3-.1c-5-.1-12.7-.1-22.3-.1s-17.4.1-22.3.1zM232.4 178.3c0 .1-12.8.2-28.6.2s-28.6-.1-28.6-.2 12.8-.2 28.6-.2 28.6.1 28.6.2z"/><path class="st4" d="M203.8 178.7c-7.6 0-14.8 0-20.3-.1-8.5-.1-8.5-.1-8.5-.3s0-.2 8.5-.3c5.4 0 12.6-.1 20.3-.1s14.8 0 20.3.1c8.5.1 8.5.1 8.5.3s0 .2-8.5.3c-5.5.1-12.7.1-20.3.1zm-22.3-.4c5 .1 12.7.1 22.3.1s17.3 0 22.3-.1c-5-.1-12.7-.1-22.3-.1s-17.3.1-22.3.1zM208.1 161.4c0 .1-12.8.2-28.6.2s-28.6-.1-28.6-.2 12.8-.2 28.6-.2c15.8-.1 28.6 0 28.6.2z"/><path class="st4" d="M179.5 161.7c-7.7 0-14.8 0-20.3-.1-8.5-.1-8.5-.1-8.5-.3s0-.2 8.5-.3c5.4 0 12.6-.1 20.3-.1s14.8 0 20.3.1c8.5.1 8.5.1 8.5.3s0 .2-8.5.3c-5.5.1-12.7.1-20.3.1zm-22.4-.3c5 0 12.7.1 22.3.1s17.3 0 22.3-.1c-5-.1-12.7-.1-22.3-.1-9.6 0-17.3 0-22.3.1zM239.8 169.8c0 .1-19.9.2-44.5.2s-44.5-.1-44.5-.2 19.9-.2 44.5-.2 44.5.1 44.5.2z"/><path class="st4" d="M195.3 170.2c-11.9 0-23.1 0-31.5-.1-9.8-.1-12.3-.1-12.9-.2-.2 0-.2-.1-.2-.1s0-.1.2-.1c.7-.1 3.2-.1 12.9-.2 8.4 0 19.6-.1 31.5-.1s23 0 31.5.1c9.7.1 12.3.1 12.9.2.2 0 .2.1.2.1s0 .1-.2.1c-.7.1-3.2.1-12.9.2-8.5.1-19.6.1-31.5.1zm-34.7-.4c8.2.1 20.8.1 34.7.1s26.5 0 34.7-.1c-8.2-.1-20.8-.1-34.7-.1-14 .1-26.5.1-34.7.1zM93.6 178.3c0 .1-4.7.2-10.4.2s-10.4-.1-10.4-.2 4.7-.2 10.4-.2c5.8 0 10.4.1 10.4.2z"/><path class="st4" d="M83.2 178.7c-2.8 0-5.4 0-7.3-.1-3.2-.1-3.2-.1-3.2-.3s0-.2 3.2-.3c2 0 4.6-.1 7.3-.1 2.8 0 5.4 0 7.3.1 3.2.1 3.2.1 3.2.3s0 .2-3.2.3c-1.9.1-4.5.1-7.3.1zm-8.1-.4c1.8.1 4.6.1 8.1.1s6.3 0 8.1-.1c-1.8-.1-4.6-.1-8.1-.1s-6.3.1-8.1.1zM260.1 178.3c0 .1-4.7.2-10.4.2s-10.4-.1-10.4-.2 4.7-.2 10.4-.2c5.8 0 10.4.1 10.4.2z"/><path class="st4" d="M249.7 178.7c-2.8 0-5.4 0-7.3-.1-3.2-.1-3.2-.1-3.2-.3s0-.2 3.2-.3c2 0 4.6-.1 7.3-.1 2.8 0 5.4 0 7.3.1 3.2.1 3.2.1 3.2.3s0 .2-3.2.3c-1.9.1-4.5.1-7.3.1zm-8.1-.4c1.8.1 4.6.1 8.1.1s6.3 0 8.1-.1c-1.8-.1-4.6-.1-8.1-.1s-6.3.1-8.1.1z"/><path class="st1" d="M318.6 225.6H468v99.6H318.6z"/><path class="st2" d="M345.9 237.5c0 .1-3 .1-6.7.1s-6.7-.1-6.7-.1c0-.1 3-.1 6.7-.1s6.7 0 6.7.1z"/><path class="st3" d="M339.2 237.8h-4.7c-2 0-2-.1-2-.2s0-.2 2-.2h9.4c2 0 2 .1 2 .2s0 .2-2 .2c-1.2-.1-2.9 0-4.7 0zm-5.2-.3c1.2 0 3 .1 5.2.1s4 0 5.2-.1c-1.2 0-3-.1-5.2-.1-2.2.1-4 .1-5.2.1z"/><path class="st2" d="M345.9 314.1c0 .1-3 .1-6.7.1s-6.7-.1-6.7-.1c0-.1 3-.1 6.7-.1 3.7-.1 6.7 0 6.7.1z"/><path class="st2" d="M339.2 314.3h-4.7c-2 0-2-.1-2-.2s0-.2 2-.2h9.4c2 0 2 .1 2 .2s0 .2-2 .2h-4.7zm-5.2-.2c1.2 0 3 .1 5.2.1s4 0 5.2-.1c-1.2 0-3-.1-5.2-.1s-4 .1-5.2.1zM364.5 248.7c0 .1-5.6.1-12.5.1s-12.5-.1-12.5-.1c0-.1 5.6-.1 12.5-.1s12.5.1 12.5.1z"/><path class="st3" d="M352 249h-8.8c-3.7 0-3.7-.1-3.7-.2s0-.2 3.7-.2h17.6c3.7 0 3.7.1 3.7.2s0 .2-3.7.2H352zm-9.7-.3c2.2 0 5.5.1 9.7.1s7.6 0 9.7-.1c-2.2 0-5.5-.1-9.7-.1-4.2.1-7.6.1-9.7.1z"/><path class="st4" d="M393.4 248.7c0 .1-5.6.1-12.5.1s-12.5-.1-12.5-.1c0-.1 5.6-.1 12.5-.1s12.5.1 12.5.1z"/><path class="st4" d="M380.9 249h-8.8c-3.7 0-3.7-.1-3.7-.2s0-.2 3.7-.2h17.6c3.7 0 3.7.1 3.7.2s0 .2-3.7.2h-8.8zm-9.8-.3c2.2 0 5.5.1 9.7.1s7.6 0 9.7-.1c-2.2 0-5.5-.1-9.7-.1-4.1.1-7.5.1-9.7.1zM382.3 254.2c0 .1-8.2.1-18.4.1s-18.4-.1-18.4-.1c0-.1 8.2-.1 18.4-.1 10.2-.1 18.4 0 18.4.1z"/><path class="st4" d="M363.9 254.4h-13c-5.5 0-5.5-.1-5.5-.2s0-.2 5.5-.2h26c5.5 0 5.5.1 5.5.2s0 .2-5.5.2h-13zm-14.3-.2c3.2 0 8.2.1 14.3.1 6.2 0 11.1 0 14.3-.1-3.2 0-8.2-.1-14.3-.1-6.2 0-11.1 0-14.3.1zM382.3 259.6c0 .1-8.2.1-18.4.1s-18.4-.1-18.4-.1c0-.1 8.2-.1 18.4-.1s18.4 0 18.4.1z"/><path class="st4" d="M363.9 259.9h-13c-5.5 0-5.5-.1-5.5-.2s0-.2 5.5-.2h26c5.5 0 5.5.1 5.5.2s0 .2-5.5.2h-13zm-14.3-.3c3.2 0 8.2.1 14.3.1 6.2 0 11.1 0 14.3-.1-3.2 0-8.1-.1-14.3-.1-6.2.1-11.1.1-14.3.1zM407.7 276c0 .1-8.2.1-18.4.1s-18.4-.1-18.4-.1c0-.1 8.2-.1 18.4-.1 10.1-.1 18.4 0 18.4.1z"/><path class="st4" d="M389.3 276.2h-13c-5.5 0-5.5-.1-5.5-.2s0-.2 5.5-.2h26c5.5 0 5.5.1 5.5.2s0 .2-5.5.2h-13zm-14.4-.2c3.2 0 8.2.1 14.3.1 6.2 0 11.1 0 14.3-.1-3.2 0-8.1-.1-14.3-.1-6.1 0-11.1 0-14.3.1zM396.7 265.1c0 .1-8.2.1-18.4.1s-18.4-.1-18.4-.1c0-.1 8.2-.1 18.4-.1 10.2-.1 18.4 0 18.4.1z"/><path class="st4" d="M378.3 265.3h-13c-5.5 0-5.5-.1-5.5-.2s0-.2 5.5-.2h26c5.5 0 5.5.1 5.5.2s0 .2-5.5.2h-13zm-14.3-.2c3.2 0 8.2.1 14.3.1 6.2 0 11.1 0 14.3-.1-3.2 0-8.2-.1-14.3-.1-6.2 0-11.1 0-14.3.1zM441.7 265.1c0 .1-8.2.1-18.4.1s-18.4-.1-18.4-.1c0-.1 8.2-.1 18.4-.1 10.2-.1 18.4 0 18.4.1z"/><path class="st4" d="M423.3 265.3h-13c-5.5 0-5.5-.1-5.5-.2s0-.2 5.5-.2h26c5.5 0 5.5.1 5.5.2s0 .2-5.5.2h-13zm-14.3-.2c3.2 0 8.2.1 14.3.1 6.2 0 11.1 0 14.3-.1-3.2 0-8.1-.1-14.3-.1s-11.1 0-14.3.1zM426.1 254.2c0 .1-8.2.1-18.4.1s-18.4-.1-18.4-.1c0-.1 8.2-.1 18.4-.1 10.1-.1 18.4 0 18.4.1z"/><path class="st4" d="M407.7 254.4h-13c-5.5 0-5.5-.1-5.5-.2s0-.2 5.5-.2h26c5.5 0 5.5.1 5.5.2s0 .2-5.5.2h-13zm-14.4-.2c3.2 0 8.2.1 14.3.1 6.2 0 11.1 0 14.3-.1-3.2 0-8.2-.1-14.3-.1-6.1 0-11.1 0-14.3.1zM451.5 276c0 .1-8.2.1-18.4.1s-18.4-.1-18.4-.1c0-.1 8.2-.1 18.4-.1 10.1-.1 18.4 0 18.4.1z"/><path class="st4" d="M433.1 276.2h-13c-5.5 0-5.5-.1-5.5-.2s0-.2 5.5-.2h26c5.5 0 5.5.1 5.5.2s0 .2-5.5.2h-13zm-14.4-.2c3.2 0 8.2.1 14.3.1 6.2 0 11.1 0 14.3-.1-3.2 0-8.1-.1-14.3-.1-6.1 0-11.1 0-14.3.1zM446.4 259.6c0 .1-12.8.1-28.6.1s-28.6-.1-28.6-.1c0-.1 12.8-.1 28.6-.1s28.6 0 28.6.1z"/><path class="st4" d="M417.8 259.9h-20.2c-6.3 0-7.9-.1-8.3-.1-.1 0-.1 0-.1-.1 0 0 0-.1.1-.1.4-.1 2-.1 8.3-.1H438c6.3 0 7.9.1 8.3.1.1 0 .1 0 .1.1 0 0 0 .1-.1.1-.4.1-2.1.1-8.3.1h-20.2zm-22.3-.3c5.3 0 13.3.1 22.3.1 8.9 0 17 0 22.3-.1-5.3 0-13.3-.1-22.3-.1-8.9.1-17 .1-22.3.1zM345.9 243.3c0 .1-3 .1-6.7.1s-6.7-.1-6.7-.1c0-.1 3-.1 6.7-.1 3.7-.1 6.7 0 6.7.1z"/><path class="st4" d="M339.2 243.5h-4.7c-2 0-2-.1-2-.2s0-.2 2-.2h9.4c2 0 2 .1 2 .2s0 .2-2 .2h-4.7zm-5.2-.2c1.2 0 3 .1 5.2.1s4 0 5.2-.1c-1.2 0-3-.1-5.2-.1s-4 .1-5.2.1zM345.9 308.6c0 .1-3 .1-6.7.1s-6.7-.1-6.7-.1c0-.1 3-.1 6.7-.1s6.7.1 6.7.1z"/><path class="st4" d="M339.2 308.9h-4.7c-2 0-2-.1-2-.2s0-.2 2-.2h9.4c2 0 2 .1 2 .2s0 .2-2 .2h-4.7zm-5.2-.3c1.2 0 3 .1 5.2.1s4 0 5.2-.1c-1.2 0-3-.1-5.2-.1-2.2.1-4 .1-5.2.1zM352.5 265.1c0 .1-3 .1-6.7.1s-6.7-.1-6.7-.1c0-.1 3-.1 6.7-.1 3.7-.1 6.7 0 6.7.1z"/><path class="st4" d="M345.8 265.3h-4.7c-2 0-2-.1-2-.2s0-.2 2-.2h9.4c2 0 2 .1 2 .2s0 .2-2 .2h-4.7zm-5.2-.2c1.2 0 3 .1 5.2.1s4 0 5.2-.1c-1.2 0-3-.1-5.2-.1s-4 0-5.2.1zM459.5 265.1c0 .1-3 .1-6.7.1s-6.7-.1-6.7-.1c0-.1 3-.1 6.7-.1 3.7-.1 6.7 0 6.7.1z"/><path class="st4" d="M452.8 265.3h-4.7c-2 0-2-.1-2-.2s0-.2 2-.2h9.4c2 0 2 .1 2 .2s0 .2-2 .2h-4.7zm-5.2-.2c1.2 0 3 .1 5.2.1s4 0 5.2-.1c-1.2 0-3-.1-5.2-.1s-4 0-5.2.1z"/><path class="st2" d="M364.5 286.8c0 .1-5.6.1-12.5.1s-12.5-.1-12.5-.1c0-.1 5.6-.1 12.5-.1s12.5 0 12.5.1z"/><path class="st2" d="M352 287.1h-8.8c-3.7 0-3.7-.1-3.7-.2s0-.2 3.7-.2h17.6c3.7 0 3.7.1 3.7.2s0 .2-3.7.2H352zm-9.7-.3c2.2 0 5.5.1 9.7.1s7.6 0 9.7-.1c-2.2 0-5.5-.1-9.7-.1-4.2.1-7.6.1-9.7.1z"/><path class="st4" d="M393.4 286.8c0 .1-5.6.1-12.5.1s-12.5-.1-12.5-.1c0-.1 5.6-.1 12.5-.1s12.5 0 12.5.1z"/><path class="st4" d="M380.9 287.1h-8.8c-3.7 0-3.7-.1-3.7-.2s0-.2 3.7-.2h17.6c3.7 0 3.7.1 3.7.2s0 .2-3.7.2h-8.8zm-9.8-.3c2.2 0 5.5.1 9.7.1s7.6 0 9.7-.1c-2.2 0-5.5-.1-9.7-.1-4.1.1-7.5.1-9.7.1zM382.3 292.3c0 .1-8.2.1-18.4.1s-18.4-.1-18.4-.1c0-.1 8.2-.1 18.4-.1 10.2-.1 18.4 0 18.4.1z"/><path class="st4" d="M363.9 292.5h-13c-5.5 0-5.5-.1-5.5-.2s0-.2 5.5-.2h26c5.5 0 5.5.1 5.5.2s0 .2-5.5.2h-13zm-14.3-.2c3.2 0 8.2.1 14.3.1 6.2 0 11.1 0 14.3-.1-3.2 0-8.1-.1-14.3-.1-6.2 0-11.1 0-14.3.1zM382.3 297.7c0 .1-8.2.1-18.4.1s-18.4-.1-18.4-.1c0-.1 8.2-.1 18.4-.1s18.4 0 18.4.1z"/><path class="st4" d="M363.9 298h-13c-5.5 0-5.5-.1-5.5-.2s0-.2 5.5-.2h26c5.5 0 5.5.1 5.5.2s0 .2-5.5.2c-3.4-.1-8.1 0-13 0zm-14.3-.3c3.2 0 8.2.1 14.3.1 6.2 0 11.1 0 14.3-.1-3.2 0-8.2-.1-14.3-.1-6.2.1-11.1.1-14.3.1zM396.7 303.2c0 .1-8.2.1-18.4.1s-18.4-.1-18.4-.1 8.2-.1 18.4-.1c10.2-.1 18.4 0 18.4.1z"/><path class="st4" d="M378.3 303.4h-13c-5.5 0-5.5-.1-5.5-.2s0-.2 5.5-.2h26c5.5 0 5.5.1 5.5.2s0 .2-5.5.2h-13zm-14.3-.2c3.2 0 8.2.1 14.3.1 6.2 0 11.1 0 14.3-.1-3.2 0-8.2-.1-14.3-.1-6.2 0-11.1 0-14.3.1zM441.7 303.2c0 .1-8.2.1-18.4.1s-18.4-.1-18.4-.1 8.2-.1 18.4-.1c10.2-.1 18.4 0 18.4.1z"/><path class="st4" d="M423.3 303.4h-13c-5.5 0-5.5-.1-5.5-.2s0-.2 5.5-.2h26c5.5 0 5.5.1 5.5.2s0 .2-5.5.2h-13zm-14.3-.2c3.2 0 8.2.1 14.3.1 6.2 0 11.1 0 14.3-.1-3.2 0-8.2-.1-14.3-.1-6.2 0-11.2 0-14.3.1zM426.1 292.3c0 .1-8.2.1-18.4.1s-18.4-.1-18.4-.1c0-.1 8.2-.1 18.4-.1 10.1-.1 18.4 0 18.4.1z"/><path class="st4" d="M407.7 292.5h-13c-5.5 0-5.5-.1-5.5-.2s0-.2 5.5-.2h26c5.5 0 5.5.1 5.5.2s0 .2-5.5.2h-13zm-14.4-.2c3.2 0 8.2.1 14.3.1 6.2 0 11.1 0 14.3-.1-3.2 0-8.1-.1-14.3-.1-6.1 0-11.1 0-14.3.1zM446.4 297.7c0 .1-12.8.1-28.6.1s-28.6-.1-28.6-.1c0-.1 12.8-.1 28.6-.1s28.6 0 28.6.1z"/><path class="st4" d="M417.8 298h-20.2c-6.3 0-7.9-.1-8.3-.1-.1 0-.1 0-.1-.1 0 0 0-.1.1-.1.4-.1 2.1-.1 8.3-.1H438c6.3 0 7.9.1 8.3.1.1 0 .1 0 .1.1s0 .1-.1.1c-.4.1-2 .1-8.3.1-5.4-.1-12.5 0-20.2 0zm-22.3-.3c5.3 0 13.4.1 22.3.1 9 0 17 0 22.3-.1-5.3 0-13.4-.1-22.3-.1-8.9.1-17 .1-22.3.1zM352.5 303.2c0 .1-3 .1-6.7.1s-6.7-.1-6.7-.1 3-.1 6.7-.1c3.7-.1 6.7 0 6.7.1z"/><path class="st4" d="M345.8 303.4h-4.7c-2 0-2-.1-2-.2s0-.2 2-.2h9.4c2 0 2 .1 2 .2s0 .2-2 .2h-4.7zm-5.2-.2c1.2 0 3 .1 5.2.1s4 0 5.2-.1c-1.2 0-3-.1-5.2-.1s-4 0-5.2.1zM459.5 303.2c0 .1-3 .1-6.7.1s-6.7-.1-6.7-.1 3-.1 6.7-.1c3.7-.1 6.7 0 6.7.1z"/><path class="st4" d="M452.8 303.4h-4.7c-2 0-2-.1-2-.2s0-.2 2-.2h9.4c2 0 2 .1 2 .2s0 .2-2 .2h-4.7zm-5.2-.2c1.2 0 3 .1 5.2.1s4 0 5.2-.1c-1.2 0-3-.1-5.2-.1s-4 0-5.2.1z"/></g><path class="st4" d="M483.5 445.4c0 .1-104.5.3-233.5.3s-233.5-.1-233.5-.3c0-.1 104.5-.3 233.5-.3 128.9 0 233.5.1 233.5.3z" id="Table"/><g id="Character"><path class="st3" d="M334.9 274 311 263.7H198.3s-8.5 5.2-15.9 8.7c-4.4 2-26.3 15.8-26.3 15.8L171.3 445l177.9.5 12-160.6-26.3-10.9z"/><path class="st3" d="M156.1 288.1s-34.6 39.4-35.8 42.6c-1.2 3.2-10.4 19.7-10.4 19.7s-14.5 6.8-16.5 10.4-6 11.3-6 11.3-28.5 34.3-31.2 45.7c-3 12.6 4 27.7 4 27.7H150l6.9-29.3c.9-1.5-.1-3.1-1.8-3.5-4.9-1.4-8.7-2-12.1-5.6l.6-4.7 16.7-12.8 15.1-11.6-19.3-89.9zM349.2 368.2c-.1.4 13.3 9.9 13.3 9.9l12.3 18.7c-2.7 2.5-5.7 4.9-9.2 7l-8.3 2.9-.4 2 1.3 6.8c2.5 13.1 13.2 27 26.2 29.8l1.8-.1 61.7.3c5.3-8.5 10.4-15.3 9.5-24.3L456 406l-23.9-32-35.2-50.9s-24.3-33.5-35.7-38.2l-12 28.6v54.7z"/><path class="st4" d="M166.5 334.6s-.1-.6-.1-1.7-.2-2.7-.3-4.7c-.3-3.9-1.1-9.3-2.5-15.2-1.4-5.8-3.2-11-4.7-14.6-.7-1.8-1.4-3.3-1.8-4.3-.4-1-.7-1.6-.6-1.6 0 0 .3.5.8 1.5s1.2 2.4 2 4.2c1.6 3.6 3.4 8.8 4.9 14.7 1.4 5.9 2.1 11.3 2.3 15.3.1 2 .2 3.6.2 4.7-.2 1.1-.2 1.7-.2 1.7zM344.3 335.1v-1.9c0-.6 0-1.4.1-2.2 0-.9.1-1.9.2-2.9.2-2.2.5-4.8 1.1-7.6.6-2.8 1.3-5.9 2.3-9.1s2.2-6.1 3.5-8.7c1.2-2.6 2.5-4.9 3.6-6.8.5-.9 1.1-1.8 1.6-2.5s.9-1.3 1.3-1.8c.3-.4.6-.8.8-1.1.2-.3.3-.4.3-.4l-.2.4c-.2.3-.5.7-.8 1.2s-.7 1.1-1.2 1.9c-.4.7-1 1.6-1.5 2.5-1.1 1.9-2.3 4.2-3.5 6.8-1.2 2.6-2.4 5.5-3.4 8.7s-1.8 6.2-2.4 9-.9 5.4-1.2 7.5c-.1 1.1-.2 2.1-.3 2.9-.1.9-.1 1.6-.1 2.2s-.1 1-.1 1.4c-.1.3-.1.5-.1.5zM112.1 370.7s.2 0 .5.1.8.1 1.3.3c1.2.3 2.8.7 4.8 1.5 3.9 1.5 9.1 4.6 13.5 9.4 2.2 2.4 4 4.9 5.5 7.3s2.5 4.7 3.4 6.6 1.5 3.5 1.9 4.6c.2.5.3.9.5 1.3.1.3.1.5.1.5s-.1-.1-.2-.4c-.2-.3-.3-.7-.6-1.2-.5-1.1-1.2-2.6-2.1-4.6-.9-1.9-2-4.2-3.5-6.5-1.5-2.4-3.3-4.8-5.5-7.2-4.3-4.8-9.4-7.8-13.3-9.4-1.9-.8-3.6-1.3-4.7-1.7-1-.4-1.7-.5-1.6-.6z"/><path d="M142.9 406.7c-3.7-10.9-16.4-18.7-24.2-25.2-4.7-3.8-10.5-7.1-16.5-6-2.2.4-4.5 1.5-5.3 3.6s.8 4.9 3 4.7c-4.9 2.6-9 4.6-14 7.3-.9.5-1.9.9-2.3 2.5-.2.9-.5 1.6.3 1.3 10.6-3.3 18.7-1.8 18.7-1.8s2.3-.7 10.6-.3c9 .3 14.6.4 29.7 13.9M374.5 396.6c4.2-9.3 11.2-15.6 20.6-19.4 5.5-2.2 12.1-2.9 17 .3 2.5 1.7 4.7 4.7 3.1 8.5-2.1 4.8-8.9 3.9-10.7 4.1 0 0-7.4-1.5-14-.2s-8.3 2.7-15.8 6.8" class="st5"/><path class="st4" d="M156.8 416.1s.1-.3.2-1c0-.2.1-.3 0-.5v-.3c0-.1-.1-.2-.1-.3-.2-.4-.6-.8-1.2-1-1.1-.5-2.6-.8-4.4-1.3-.9-.2-1.8-.5-2.7-.9s-1.9-.9-2.8-1.5c-1.9-1.2-3.8-2.8-5.7-4.6-1.9-1.8-4-3.7-6.5-5.3-4.9-3.3-11.1-5.6-17.9-6.4s-13.3.1-19 1.7-10.5 4-14.3 6.2c-3.9 2.2-6.8 4.4-8.7 5.9-1 .8-1.7 1.4-2.3 1.8-.2.2-.4.3-.6.5-.1.1-.2.2-.2.1l.2-.2c.1-.1.3-.3.6-.5.5-.4 1.2-1.1 2.2-1.9 2-1.6 4.8-3.8 8.7-6.1 3.8-2.3 8.7-4.7 14.4-6.4 5.7-1.7 12.3-2.6 19.2-1.8 6.8.8 13.1 3.1 18.1 6.5 2.5 1.7 4.6 3.6 6.5 5.4s3.8 3.4 5.6 4.6c3.7 2.6 7.5 2.7 9.8 3.8.6.3 1 .7 1.2 1.1 0 .1.1.2.1.3V414.9c0 .3-.2.6-.2.7-.2.4-.2.5-.2.5z"/><path d="M139.9 414.1c-7.1 2.9-13 9.3-16.4 16.1-1.1 2.1-1.9 5.7-1.8 8.1.1 2.1.5 3.6 2.3 4.8 2 1.3 4.9 2.5 4.9 2.5 3.9-.1 16.4.1 20.3 0 5.1-.2 7.4-2.8 7.4-3.2.3-2.5 3.8-8.9 4.4-13.7 0-.2.1-.5.1-.8 1.2-8.7-6-16.3-14.7-15.3-2.3.1-4.4.6-6.5 1.5z" class="st5"/><path class="st6" d="m139.9 414.1 16.9 2.1s29.8-7.5 35.6-5.9c5.2 1.4 23.4 16.3 27 19.3.4.3.7.8.8 1.3.6 2.2-.7 4.4-2.9 5.1l-.4.1.1.6c.1.7.2 1.6.1 2.4-.4 2.7-4.2 3.2-5.3.7l.6 1.4c.2.6.3 1.2.2 1.8l-.2 1.2c-.2 1.3-1.2 2.4-2.5 2.6-1.2.3-2.5-.2-3.3-1.2-2.2-3-7-8.9-10.5-9.9-3.2-.9-8.5-1.5-11.7-1.8-1.6-.2-3.2.7-4 2.2 2.1.4 16.3 9.7 21.3 13 1.5 1 2.6 2.7 2.6 4.6 0 1.7-1 3.3-4.2 2.2-6.9-2.3-18.9-9.4-18.9-9.4s-6.3-2.5-10.9 0c-6.4 3.6-9.2 4.9-14.2 2.7-4.9-2.2-8.4-5-8.4-5l-21.6-1.1c-2.7-.1-4.7-2.5-4.5-5.1.5-6.5 3.7-16.9 18.3-23.9z"/><path class="st7" d="M182 424.3c0 .1 2.1-.3 5.5-.2 3.4.1 8.1 1 12.6 3.5s7.8 6 9.6 8.8c1.9 2.8 2.6 4.8 2.7 4.7 0 0-.1-.5-.5-1.4s-1-2.1-1.9-3.6c-1.8-2.9-5.1-6.5-9.7-9.1-4.6-2.5-9.4-3.4-12.8-3.4-1.7 0-3.1.1-4 .3-1 .2-1.5.4-1.5.4zM185.7 417.6c0 .1 2.2-.7 5.7-.4 3.5.2 8.4 1.8 12.7 5 4.3 3.3 7.4 7.2 9.6 10 1 1.4 1.9 2.5 2.6 3.4.6.8 1 1.2 1 1.2s-.3-.5-.8-1.3c-.6-.8-1.4-2-2.4-3.5-2.1-2.9-5.2-6.8-9.6-10.2-4.4-3.3-9.4-4.9-13-5-1.8-.1-3.3.1-4.2.3-.5.1-.9.2-1.1.3-.3.1-.5.2-.5.2z"/><path class="st4" d="M156.4 416s-.5-.7-1.8-1.5c-1.2-.9-3.3-1.8-6-2s-5.9.5-9.1 2.1c-3.2 1.6-6.5 3.8-9.5 6.7-2.9 2.9-5.2 6.2-6.8 9.4-.8 1.6-1.4 3.2-1.6 4.8-.1.8-.1 1.5 0 2.3.1.7.2 1.4.4 2.1.4 1.3 1.1 2.3 1.9 3s1.6 1.1 2.3 1.5c.6.3 1.1.6 1.5.8.4.2.5.3.5.3s-.2-.1-.6-.2c-.4-.2-.9-.4-1.6-.7-.7-.3-1.5-.8-2.4-1.5s-1.7-1.7-2.1-3.1c-.2-.7-.4-1.4-.5-2.1s-.1-1.6 0-2.4c.2-1.6.7-3.3 1.6-4.9 1.6-3.3 3.8-6.6 6.8-9.6s6.3-5.2 9.6-6.8c3.3-1.6 6.6-2.3 9.4-2 2.8.2 4.9 1.3 6.1 2.2.6.5 1 .9 1.3 1.2.5.2.7.4.6.4zM104.9 392.9h-1.4c-.9-.1-2.2-.1-3.9-.1-1.6 0-3.6.1-5.7.3-2.1.2-4.5.6-6.9 1.2s-4.7 1.3-6.7 2c-2 .8-3.8 1.5-5.3 2.3-1.5.7-2.6 1.3-3.4 1.8s-1.2.7-1.3.7c0 0 .4-.3 1.2-.8.8-.5 1.9-1.2 3.4-2s3.2-1.6 5.3-2.4c2-.8 4.3-1.5 6.8-2.1s4.8-.9 7-1.2c2.2-.2 4.1-.3 5.8-.2 1.6 0 3 .1 3.9.2.7.2 1.2.3 1.2.3zM108.8 442.9s-.1-.2-.2-.5-.3-.8-.4-1.5c-.3-1.3-.6-3.2-.6-5.6s.5-5.2 1.6-8.1 2.7-6 5-8.8c4.7-5.6 10.5-8.9 14.8-10.8 2.1-1 3.9-1.6 5.2-2 .6-.2 1.1-.3 1.4-.4.3-.1.5-.1.5-.1s-.2.1-.5.2c-.4.1-.8.3-1.4.5-1.2.5-3 1.2-5.1 2.2-4.2 2-9.9 5.3-14.5 10.8-2.3 2.7-3.9 5.7-5 8.6s-1.6 5.6-1.7 8c-.1 4.6 1.1 7.4.9 7.5zM357.1 409s-.2-.3-.3-.8c0-.1-.1-.3 0-.5v-.3c0-.1.1-.2.1-.3.2-.4.6-.7 1.1-1 2-.9 5.4-1 8.7-3.1 1.7-1 3.3-2.4 5-3.9s3.6-3.2 5.8-4.6c4.4-2.8 10-4.7 16-5.2s11.8.4 16.7 2c5 1.6 9.1 3.8 12.4 6 3.3 2.1 5.8 4.1 7.4 5.6.8.7 1.5 1.3 1.9 1.7l.6.6s-.2-.2-.7-.5c-.4-.4-1.1-.9-1.9-1.6-1.7-1.4-4.2-3.3-7.5-5.4s-7.5-4.2-12.4-5.8c-4.9-1.6-10.6-2.5-16.5-2s-11.4 2.4-15.8 5.1c-2.2 1.4-4 3-5.8 4.5-1.7 1.5-3.4 2.9-5.1 3.9-3.4 2.1-6.8 2.1-8.8 3-.5.2-.9.5-1.1.9 0 .1-.1.2-.1.3v.8c.2.3.3.6.3.6z"/><path d="M371.9 407.6c6.1 2.7 11.2 8.4 14 14.5.9 1.9 1.5 5 1.4 7.1-.1 1.8-.6 3.1-2.1 4.1-1.8 1.1-4.9 2.3-7 2.2-3.4-.2-5.9-1.7-9.3-1.9-4.4-.3-12.2-1.5-12.2-1.8-.2-2.2-3.1-7.9-3.5-12.1 0-.2 0-.4-.1-.7-.8-7.6 5.7-14.1 13.3-13 1.9.4 3.7.8 5.5 1.6z" class="st5"/><path class="st6" d="m371.9 407.6-14.8 1.4s-25.9-7.3-31-6.1c-4.6 1.1-20.9 13.7-24.1 16.2-.4.3-.6.7-.7 1.1-.6 1.9.5 3.9 2.4 4.5l.4.1-.1.5c-.1.6-.2 1.4-.1 2.1.3 2.4 3.6 2.9 4.7.7l-.6 1.2c-.2.5-.3 1-.2 1.6l.1 1c.1 1.2 1 2.1 2.1 2.4 1.1.3 2.2-.1 2.9-1 2-2.5 6.3-7.6 9.5-8.4 2.8-.7 7.5-1.1 10.3-1.3 1.4-.1 2.8.7 3.4 2-1.9.3-14.5 8-18.9 10.8-1.4.9-2.4 2.3-2.4 3.9-.1 1.5.8 2.9 3.6 2.1 6.1-1.9 16.8-7.8 16.8-7.8s5.6-2 9.5.3c5.5 3.3 8 4.5 12.3 2.7 4.4-1.8 7.5-4.2 7.5-4.2l18.9-.4c2.4-.1 4.2-2 4.1-4.4-.5-5.2-3-14.4-15.6-21z"/><path class="st7" d="M334.8 415.5c0 .1-1.8-.3-4.8-.3-2.9 0-7.1.6-11.1 2.7s-6.9 5.1-8.7 7.4c-1.7 2.4-2.4 4.1-2.5 4.1 0 0 .1-.4.5-1.2.3-.8.9-1.8 1.8-3.1 1.7-2.5 4.6-5.6 8.7-7.7s8.3-2.7 11.3-2.6c1.5 0 2.7.2 3.5.3.9.3 1.3.4 1.3.4zM331.7 409.6c0 .1-1.9-.6-5-.5s-7.4 1.3-11.2 4.1c-3.9 2.8-6.7 6.1-8.7 8.5-.9 1.2-1.7 2.1-2.3 2.9-.6.7-.9 1-.9 1s.2-.4.8-1.1 1.3-1.7 2.2-3c1.9-2.4 4.7-5.9 8.7-8.7 4-2.8 8.3-4 11.5-4 1.6 0 2.9.2 3.7.4.4.1.7.2 1 .3.1 0 .2.1.2.1z"/><path class="st4" d="M357.4 408.9s.1-.2.3-.4c.2-.3.6-.6 1.1-1 1.1-.8 2.9-1.7 5.3-1.8 2.4-.2 5.3.5 8.1 2 2.8 1.4 5.7 3.5 8.2 6.1s4.4 5.6 5.7 8.5c.7 1.4 1.2 2.9 1.3 4.3.2 1.4-.1 2.8-.7 3.9s-1.4 1.9-2.1 2.5-1.4 1.1-1.9 1.5c-.6.4-1 .6-1.3.8-.3.2-.5.3-.5.2 0 0 .6-.4 1.7-1.2.5-.4 1.2-.9 1.9-1.5s1.4-1.4 1.9-2.4.8-2.3.6-3.6c-.2-1.4-.7-2.7-1.4-4.1-1.3-2.8-3.2-5.7-5.7-8.3-2.5-2.6-5.3-4.6-8.1-6-2.8-1.4-5.5-2.1-7.9-2-2.3.1-4.1.9-5.2 1.6-.9.4-1.3 1-1.3.9zM403 390.1s.4-.1 1.2-.2c.8-.1 2-.1 3.4-.1 2.9 0 6.9.4 11.1 1.5 4.3 1.1 7.9 2.8 10.4 4.3 1.3.7 2.2 1.3 2.9 1.8.7.5 1 .7 1 .8-.1.1-1.5-.9-4.1-2.3-2.5-1.3-6.2-2.9-10.4-4.1-4.2-1.1-8.2-1.6-11-1.7-2.7-.1-4.5.1-4.5 0zM398.3 433.6c-.1 0 .9-2.4.9-6.5 0-4-1.5-9.8-5.4-14.7-3.9-4.9-8.8-8-12.4-9.8-1.8-.9-3.3-1.6-4.4-2s-1.6-.7-1.6-.7.2 0 .5.1.7.2 1.3.4c1.1.4 2.6 1 4.5 1.9 3.7 1.8 8.7 4.8 12.6 9.8 1.9 2.5 3.3 5.2 4.2 7.8.8 2.6 1.2 5.1 1.2 7.2s-.3 3.7-.6 4.8c-.1.6-.3 1-.4 1.3l-.4.4z"/><path class="st8" d="M169 338.9s-.1-.5-.2-1.4c-.1-1-.3-2.3-.5-3.9-.4-3.3-1-7.7-1.9-12.6s-1.9-9.3-2.7-12.5c-.4-1.5-.7-2.8-.9-3.8-.2-.9-.3-1.4-.3-1.4s.2.5.5 1.3c.3.9.7 2.1 1.1 3.7.9 3.2 1.9 7.6 2.8 12.5.9 4.9 1.5 9.4 1.8 12.7.2 1.6.3 3 .3 3.9v1.5zM410.9 395.2s-.6-.2-1.6-.7c-1-.4-2.6-1-4.5-1.6-3.8-1.1-9.5-1.9-15.5-.9-6.1 1-11.1 3.5-14.4 5.8-1.7 1.1-2.9 2.2-3.8 2.9-.8.7-1.3 1.2-1.3 1.1 0 0 .1-.1.3-.4l.9-.9c.8-.8 2-1.9 3.7-3.1 3.3-2.4 8.4-5 14.5-6s11.8-.2 15.7 1c1.9.6 3.5 1.2 4.5 1.7.5.2.9.5 1.2.6.2.4.4.4.3.5zM373.7 394.1s-.1-.1-.3-.4c-.2-.3-.4-.7-.7-1.1-.7-1.1-1.5-2.5-2.6-4.2-2.2-3.5-5.2-8.5-9.1-13.5-1.9-2.5-3.8-4.9-5.4-7.2-1.6-2.2-2.9-4.4-3.9-6.3-.9-1.9-1.5-3.5-1.8-4.6-.2-.6-.2-1-.3-1.3-.1-.3-.1-.5-.1-.5s.2.6.6 1.7 1 2.7 1.9 4.5c1 1.8 2.3 3.9 3.9 6.2 1.6 2.2 3.5 4.6 5.5 7.1 3.9 5.1 6.9 10.1 9 13.7 1.1 1.8 1.9 3.3 2.5 4.3.3.5.5.9.6 1.2.2.3.2.4.2.4zM165.7 383.5c.1.1-1.1 1.1-3 2.7-1.9 1.5-4.7 3.6-7.7 5.9s-5.8 4.3-7.8 5.8c-.9.7-1.7 1.2-2.4 1.7l-.9.6s.3-.3.8-.7c.5-.4 1.3-1.1 2.3-1.8 2-1.5 4.7-3.6 7.7-5.9 3-2.2 5.7-4.2 7.8-5.8.9-.7 1.7-1.3 2.4-1.7.5-.6.8-.8.8-.8zM144.4 411l-1.5-1.8c-1-1.1-2.5-2.7-4.6-4.4-4.1-3.4-10.8-7.2-18.9-8.6s-15.6-.3-20.8 1.1c-2.6.7-4.7 1.4-6.1 2-.7.3-1.2.5-1.6.6s-.6.2-.6.2.2-.1.5-.3c.4-.2.9-.4 1.6-.7 1.4-.6 3.4-1.4 6-2.2 5.2-1.5 12.8-2.7 21-1.3 8.2 1.4 14.9 5.3 19 8.9 2.1 1.8 3.5 3.4 4.5 4.6.5.6.8 1.1 1 1.4.4.3.6.5.5.5zM141 397.9s-.1-.2-.3-.5c-.2-.4-.5-.8-.8-1.4-.2-.3-.4-.6-.6-1-.2-.4-.5-.7-.8-1.1-.6-.8-1.1-1.8-1.9-2.7l-1.2-1.5c-.4-.5-.9-1-1.4-1.6-.9-1.1-2.1-2.2-3.2-3.4-2.4-2.2-5.2-4.5-8.4-6.5s-6.5-3.5-9.5-4.7c-1.5-.5-3-1.1-4.4-1.4-.7-.2-1.4-.4-2-.5-.7-.1-1.3-.3-1.9-.4-1.2-.3-2.3-.4-3.3-.5-.5-.1-.9-.1-1.4-.2-.4 0-.8-.1-1.1-.1-.6-.1-1.2-.1-1.6-.1s-.6-.1-.6-.1H100c.4 0 .9.1 1.4.1 1 .1 2.1.2 3.3.5.6.1 1.3.2 1.9.4.7.1 1.3.3 2.1.5 1.4.3 2.9.9 4.5 1.4 3.1 1.2 6.4 2.7 9.6 4.7s6 4.3 8.4 6.6c1.2 1.2 2.3 2.3 3.2 3.4.5.6 1 1.1 1.4 1.6s.8 1.1 1.2 1.6c.8 1 1.3 2 1.9 2.8.3.4.5.8.7 1.2.2.4.4.7.5 1l.7 1.4c.2.3.3.5.2.5zM362.7 290.1s-.1.2-.3.5c-.2.4-.5.8-.8 1.4-.4.6-.8 1.4-1.3 2.3s-1.1 1.9-1.6 3c-1.2 2.3-2.5 5-3.8 8.1s-2.5 6.6-3.6 10.3c-1.1 3.7-1.9 7.4-2.5 10.7-.6 3.3-1 6.3-1.2 8.9-.1 1.3-.2 2.4-.3 3.4-.1 1-.1 1.9-.1 2.6s-.1 1.2-.1 1.6 0 .6-.1.6V338.7c0-1 .1-2.2.2-3.4.2-2.6.5-5.6 1.1-8.9s1.4-7 2.5-10.7 2.4-7.2 3.7-10.4c1.3-3.1 2.7-5.9 3.9-8.1.6-1.1 1.2-2.1 1.7-3s1-1.6 1.4-2.2.7-1 .9-1.4c.2-.4.3-.6.3-.5z"/><path class="st2" d="M178.9 251.4s-8.2-12.8 0-22.8 58.8-20 62.4-20.7c3.6-.7 22.1-3.2 24.2-2.5s29.9 14.3 40.3 21c10.3 6.8 26.5 17.5 16.3 30.7-10.5 13.5-43.8 49.8-43.8 49.8L255.2 333s-23.5-29.9-28.9-34.6c-5.3-4.6-47.4-47-47.4-47z"/><path class="st9" d="M178.9 251.4s-8.2-12.8 0-22.8 58.8-20 62.4-20.7c3.6-.7 22.1-3.2 24.2-2.5s29.9 14.3 40.3 21c10.3 6.8 25.6 18.6 17.2 29.7-10.3 13.7-43 48.9-43 48.9l-24.8 28s-23.5-29.9-28.9-34.6c-5.3-4.6-47.4-47-47.4-47z"/><path class="st2" d="M197.1 218.1s-.9 17.7.3 23.9 22.4 41.4 34.5 49.8c12 8.4 13.1 11.7 23.4 9 10.3-2.7 15.4-11.5 20.8-17.9 5.4-6.3 17.7-17.4 20.9-27.3 3.2-9.9 6.2-30.9 6.2-30.9l-40.6-20.5c-20.1.8-42.5 6.6-65.5 13.9z"/><path d="M197.1 218.1s-.9 17.7.3 23.9 22.4 41.4 34.5 49.8c12 8.4 13.1 11.7 23.4 9 10.3-2.7 15.4-11.5 20.8-17.9 5.4-6.3 17.7-17.4 20.9-27.3 3.2-9.9 6.2-30.9 6.2-30.9l-40.6-20.5c-20.1.8-42.5 6.6-65.5 13.9z" style="fill:#1a1063"/><path class="st6" d="M249.6 147.1c-24.4.4-44.2 19.4-44.6 43-.4 21.1-.5 44.4.3 55.6 1.8 23.3 26.2 25.5 26.2 25.5l.2 14.3c0 2.4-.2 6-.2 6 11.2 7.9 13.6 11.9 23.7 9.2 10.3-2.7 15.4-11.5 20.8-17.9 4.4-5.2 13.4-13.5 18.3-21.7l.3-69.8c.5-24.3-19.8-44.3-45-44.2z"/><path class="st7" d="M204.7 222s23.6-7.7 38.3-8.1c9-.2 51.5 12.1 51.5 12.1v-4s-31.9-16.6-53.2-14.1-36.6 8.9-36.6 8.9v5.2zM231.6 271.3s15.3.3 30.9-10.6c0 0-6.6 17.5-30.8 16.9l-.1-6.3z"/><path class="st4" d="M212.6 203.6c.4.4 3-1.5 6.7-1.6s6.5 1.7 6.9 1.2c.2-.2-.3-1-1.5-1.8s-3.2-1.6-5.5-1.5-4.2.9-5.3 1.8c-1.1.9-1.5 1.7-1.3 1.9zM249.4 202.3c.4.4 3-1.6 6.7-1.7 3.7-.2 6.5 1.5 6.9 1.1.2-.2-.3-1-1.5-1.8s-3.2-1.5-5.5-1.4c-2.3.1-4.2 1-5.3 1.9-1.1.9-1.5 1.7-1.3 1.9zM235.8 227.4c0-.2-2.3-.4-6.1-.7-1 0-1.9-.2-2.1-.8-.3-.6.1-1.7.5-2.8.7-2.3 1.5-4.7 2.4-7.2 3.2-10.2 5.5-18.5 5.1-18.6s-3.4 8-6.6 18.2c-.8 2.5-1.5 4.9-2.2 7.2-.3 1.1-.8 2.3-.3 3.6.3.7 1 1.1 1.6 1.2.6.1 1.2.1 1.6.1 3.8.2 6.1 0 6.1-.2zM246.9 194.1c.6.9 4.1-.4 8.5-.9 4.4-.6 8.1-.2 8.4-1.2.1-.5-.7-1.2-2.3-1.8-1.6-.6-4-1-6.6-.6-2.6.3-4.8 1.3-6.2 2.2-1.5.9-2.1 1.8-1.8 2.3zM211.2 194.5c.5 1 3.4.8 6.6 1.5 3.3.6 5.8 1.9 6.7 1.2.4-.3.1-1.2-.9-2.3-1-1-2.8-2.1-5.1-2.6-2.2-.5-4.3-.2-5.7.4-1.2.6-1.8 1.3-1.6 1.8zM250.2 234.9c-.2.2-1-.3-2.5-.6-1.4-.4-3.5-.6-5.7.1-2.1.6-3.7 2-4.7 3-1 1.1-1.4 1.9-1.7 1.9-.2-.1-.2-1.1.7-2.5.8-1.4 2.6-3.2 5.2-3.9 2.6-.8 5.1-.3 6.6.4 1.6.6 2.3 1.5 2.1 1.6z"/><path class="st4" d="M216.1 206.7c0 1.7 1.6 3.1 3.5 3.1s3.4-1.4 3.3-3.2c0-1.7-1.6-3.1-3.5-3.1s-3.4 1.5-3.3 3.2zM252.9 205.1c0 1.7 1.6 3.1 3.5 3.1s3.4-1.4 3.3-3.2c0-1.7-1.6-3.1-3.5-3.1s-3.4 1.5-3.3 3.2z"/><path class="st7" d="M231.6 271.3s15.3.3 30.9-10.6c0 0-6.6 17.5-30.8 16.9l-.1-6.3z"/><path class="st4" d="M212.6 203.6c.4.4 3-1.5 6.7-1.6s6.5 1.7 6.9 1.2c.2-.2-.3-1-1.5-1.8s-3.2-1.6-5.5-1.5-4.2.9-5.3 1.8c-1.1.9-1.5 1.7-1.3 1.9zM249.4 202.3c.4.4 3-1.6 6.7-1.7 3.7-.2 6.5 1.5 6.9 1.1.2-.2-.3-1-1.5-1.8s-3.2-1.5-5.5-1.4c-2.3.1-4.2 1-5.3 1.9-1.1.9-1.5 1.7-1.3 1.9zM235.8 227.4c0-.2-2.3-.4-6.1-.7-1 0-1.9-.2-2.1-.8-.3-.6.1-1.7.5-2.8.7-2.3 1.5-4.7 2.4-7.2 3.2-10.2 5.5-18.5 5.1-18.6s-3.4 8-6.6 18.2c-.8 2.5-1.5 4.9-2.2 7.2-.3 1.1-.8 2.3-.3 3.6.3.7 1 1.1 1.6 1.2.6.1 1.2.1 1.6.1 3.8.2 6.1 0 6.1-.2zM246.9 194.1c.6.9 4.1-.4 8.5-.9 4.4-.6 8.1-.2 8.4-1.2.1-.5-.7-1.2-2.3-1.8-1.6-.6-4-1-6.6-.6-2.6.3-4.8 1.3-6.2 2.2-1.5.9-2.1 1.8-1.8 2.3zM211.2 194.5c.5 1 3.4.8 6.6 1.5 3.3.6 5.8 1.9 6.7 1.2.4-.3.1-1.2-.9-2.3-1-1-2.8-2.1-5.1-2.6-2.2-.5-4.3-.2-5.7.4-1.2.6-1.8 1.3-1.6 1.8zM250.2 234.9c-.2.2-1-.3-2.5-.6-1.4-.4-3.5-.6-5.7.1-2.1.6-3.7 2-4.7 3-1 1.1-1.4 1.9-1.7 1.9-.2-.1-.2-1.1.7-2.5.8-1.4 2.6-3.2 5.2-3.9 2.6-.8 5.1-.3 6.6.4 1.6.6 2.3 1.5 2.1 1.6z"/><path class="st4" d="M216.1 206.7c0 1.7 1.6 3.1 3.5 3.1s3.4-1.4 3.3-3.2c0-1.7-1.6-3.1-3.5-3.1s-3.4 1.5-3.3 3.2zM252.9 205.1c0 1.7 1.6 3.1 3.5 3.1s3.4-1.4 3.3-3.2c0-1.7-1.6-3.1-3.5-3.1s-3.4 1.5-3.3 3.2z"/><path class="st3" d="M323.9 237.9c-3.4-5-6.6-13.5-6.6-13.5l-4.3-29.5s-20.9-35.5-23.4-40.1-14.6-17.5-14.6-17.5-7.7-7.7-16.4-11.2c-3.6-1.4-7.7-1.1-11 .9-8.6 5.1-27.4 16.8-31.7 22.8-5.7 7.8-18.9 33.2-18.9 33.2s-3.7 11.9-7.2 16.2c-3.6 4.3-15.1 27.1-15.1 34.2 0 1.4.7 4.2.8 5.6.3-2.7.7-6.9 2.9-9.5 8.2-10 58.8-20 62.4-20.7s19.5 1.7 21.7 2.4c2.1.7 32.1 9.4 42.8 15.6 8 4.6 17.4 11 20 19.4l-.4-1.1c-.3-.1 2.4-2.2-1-7.2z"/><path class="st4" d="M322.2 257.1s.1-.1.3-.4c.2-.3.5-.7.8-1.2.6-1.1 1.6-2.7 1.9-5.1.2-1.2.1-2.5-.2-3.9-.4-1.4-1.1-2.8-2-4.2s-1.9-3-3.1-4.4c-.6-.7-1.4-1.4-2.1-2-.7-.7-1.5-1.4-2.4-2-6.6-5.4-15.7-10.2-26.3-13.9-5.3-1.9-11-3.6-16.9-5.3s-12-3.5-18.4-4.6c-3.2-.5-6.4-.8-9.6-.8-3.2 0-6.3.3-9.3.8-6 1-11.8 2.6-17.2 4-10.9 2.8-20.7 5.6-28.6 8.8-3.9 1.6-7.3 3.6-9.6 6.1a14 14 0 0 0-3.9 7.5c-.5 2.3-.1 4.2.2 5.4.4 1.2.8 1.7.7 1.8 0 0-.1-.1-.2-.4-.2-.3-.4-.7-.6-1.3-.4-1.2-.8-3.1-.3-5.5.4-2.3 1.6-5.2 3.9-7.7s5.7-4.6 9.7-6.2c7.9-3.3 17.7-6.1 28.6-8.9 5.5-1.4 11.2-3 17.3-4 3-.5 6.2-.8 9.4-.8s6.4.3 9.6.8c6.4 1.1 12.6 2.9 18.5 4.6 5.9 1.7 11.6 3.4 16.9 5.4 10.6 3.8 19.8 8.6 26.4 14.1l2.4 2.1c.8.7 1.5 1.3 2.1 2.1 1.3 1.5 2.3 3 3.1 4.4.9 1.5 1.7 2.9 2 4.3.4 1.4.4 2.8.2 4-.4 2.4-1.4 4-2 5.1l-1.3 1.3zM250.3 164.8s-.2.1-.5.2c-.4.1-.9.2-1.6.3-.7.1-1.5.3-2.5.6-1 .2-2.1.5-3.2.8-2.4.6-5.2 1.5-8.3 2.7s-6.4 2.6-9.8 4.3c-3.4 1.7-6.5 3.5-9.2 5.3s-5.1 3.5-7.1 5.1c-1 .7-1.8 1.5-2.6 2.1s-1.4 1.2-1.9 1.6c-.5.4-.9.8-1.2 1.1-.3.2-.4.4-.4.3 0 0 .1-.2.4-.4l1.1-1.1c.5-.5 1.1-1.1 1.9-1.7.7-.6 1.6-1.4 2.6-2.2 1.9-1.6 4.3-3.4 7-5.2 2.8-1.8 5.9-3.7 9.3-5.4 3.4-1.7 6.8-3.1 9.9-4.2 3.1-1.1 6-2 8.4-2.6 1.2-.3 2.3-.5 3.3-.8 1-.2 1.8-.4 2.5-.5.6-.1 1.2-.2 1.6-.3h.3zM269.6 153.3s-.4.2-1 .4c-.7.2-1.7.5-2.9.8-2.5.6-5.9 1.4-9.7 2.2-3.8.8-7.3 1.3-9.8 1.7-1.3.2-2.3.3-3 .4-.7.1-1.1.1-1.1.1s.4-.1 1.1-.3c.8-.1 1.8-.3 3-.5 2.5-.5 5.9-1.1 9.7-1.8 3.8-.8 7.2-1.5 9.7-2 1.2-.2 2.1-.5 2.9-.6.7-.3 1.1-.4 1.1-.4z"/><path class="st4" d="M303.8 234.4V235.3c0 .6 0 1.5-.1 2.6-.1 2.2-.6 5.5-1.9 9.3s-3.3 8.2-6.3 12.6c-2.9 4.4-6.6 9-10.5 13.6-7.9 9.3-15.1 17.6-20.3 23.8-2.6 3-4.7 5.4-6.2 7.2-.7.8-1.3 1.5-1.7 1.9-.2.2-.3.4-.5.5l-.2.2s0-.1.1-.2.2-.3.4-.5c.4-.5.9-1.2 1.6-2 1.5-1.8 3.5-4.2 6.1-7.3 5.2-6.1 12.3-14.6 20.2-23.9 4-4.6 7.6-9.1 10.5-13.5s5-8.7 6.3-12.4c1.3-3.8 1.8-7 2-9.2.1-1.1.1-2 .2-2.6v-.7c.3-.2.3-.3.3-.3z"/><path class="st4" d="M259.1 303.2H258.2c-.6 0-1.5 0-2.7-.1-2.3-.2-5.7-.8-9.6-2.2-3.9-1.5-8.3-3.8-12.7-7.2-4.4-3.4-8.6-7.8-12.5-12.8s-7.3-10-10.3-14.6-5.6-8.8-7.6-12.5c-2-3.7-3.4-6.7-4.2-8.9-.4-1.1-.7-1.9-.9-2.5-.1-.3-.2-.5-.2-.7s-.1-.2-.1-.2 0 .1.1.2l.3.6c.2.6.6 1.4 1 2.5.9 2.1 2.3 5.2 4.3 8.8s4.6 7.8 7.7 12.4c3 4.6 6.4 9.6 10.3 14.6 3.9 5 8.1 9.4 12.4 12.7 4.3 3.4 8.7 5.8 12.5 7.2 3.9 1.5 7.2 2.1 9.5 2.3 1.2.1 2.1.2 2.7.2h.7c.2.1.2.2.2.2zM248.7 323.1l-.2-.2-.5-.5c-.4-.5-1.1-1.2-1.8-2.1-1.6-1.8-3.9-4.4-6.8-7.6-5.7-6.4-13.8-15.1-22.9-24.4-9.2-9.3-17.7-17.5-24-23.4-3.1-2.9-5.7-5.2-7.4-6.9-.9-.8-1.5-1.4-2-1.9l-.5-.5-.2-.2s.1 0 .2.1.3.3.6.5c.5.4 1.2 1 2.1 1.8 1.8 1.6 4.4 3.9 7.6 6.8 6.3 5.8 14.9 14 24.1 23.3 9.2 9.4 17.2 18.1 22.8 24.5 2.8 3.2 5.1 5.9 6.6 7.7.7.9 1.3 1.6 1.8 2.1.2.2.3.4.4.6.1.2.1.3.1.3zM323.1 256.1c.1.1-12.6 14.7-28.4 32.6-15.7 17.9-28.6 32.3-28.7 32.2s12.6-14.7 28.4-32.6c15.7-17.9 28.6-32.3 28.7-32.2z"/><path d="M200.7 189.2c7-7.7 15.2-14.2 23.4-20.6 2.7-2.1 5.4-4.3 8.5-5.7 5.2-2.5 11.1-3 16.8-3.4 4.7-.3 9.4-.6 14.1-.8 1.3-.1 2.7-.1 3.8.5 1.1.6 1.9 2.1 1.2 3.3-.6 1.1-2.1 1.2-3.4 1.2-22.6.4-45.1 8.7-62.5 23.2" class="st5"/><path class="st8" d="M253.9 332c-.1.1-8.6-9.6-19-21.5-10.4-12-18.7-21.8-18.6-21.9.1-.1 8.6 9.5 19 21.5s18.7 21.8 18.6 21.9zM281 306.5c.1.1-.9 1-2.5 2.5s-3.7 3.7-6 6.1-4.4 4.6-5.8 6.3c-1.5 1.6-2.4 2.6-2.4 2.6s.2-.3.5-.8c.4-.5.9-1.2 1.6-2 1.4-1.7 3.4-4 5.7-6.4 2.3-2.4 4.5-4.5 6.2-6 .8-.7 1.5-1.3 2-1.7.4-.4.7-.6.7-.6zM273.9 292.6c.1.1-.7.9-1.9 2.2-1.3 1.4-2.9 3.1-4.7 5-1.7 1.9-3.3 3.6-4.6 5.1-1.2 1.3-1.9 2.1-2 2-.1 0 .6-.9 1.7-2.3s2.7-3.2 4.5-5.2 3.5-3.7 4.8-4.9c1.4-1.3 2.2-2 2.2-1.9zM262 257.6s-.1.1-.3.4l-1 1c-.2.2-.5.4-.7.7-.3.2-.6.5-.9.8-.7.5-1.4 1.2-2.3 1.8-.4.3-.9.6-1.4 1-.5.3-1 .6-1.6.9-1.1.7-2.3 1.2-3.6 1.8-2.6 1.1-5.6 2.1-8.9 2.7-3.3.6-6.4.7-9.3.6-1.4-.1-2.8-.2-4-.4l-1.8-.3c-.6-.1-1.1-.3-1.6-.4-1.1-.2-2-.6-2.8-.8-.4-.1-.8-.3-1.1-.4s-.6-.3-.9-.4c-.5-.2-.9-.4-1.3-.6-.3-.1-.4-.2-.4-.2s.2 0 .5.1c.4.1.8.3 1.3.5.3.1.6.2.9.4.3.1.7.2 1.1.4.8.2 1.7.6 2.8.8.5.1 1.1.2 1.6.4l1.8.3c1.2.2 2.6.3 4 .4 2.8.1 5.9-.1 9.2-.6 3.2-.6 6.2-1.5 8.8-2.6 1.3-.6 2.5-1.1 3.6-1.8.5-.3 1.1-.6 1.6-.9s1-.6 1.4-.9c.9-.6 1.7-1.2 2.3-1.7.3-.3.7-.5.9-.7.3-.2.5-.5.7-.7.4-.4.8-.7 1-.9.2-.7.4-.8.4-.7zM288.4 217.8h-.2c-.2-.1-.4-.1-.7-.2-.6-.2-1.5-.4-2.7-.8-2.3-.7-5.7-1.9-9.8-3.4-4.1-1.5-9-3.2-14.6-4.5-2.8-.7-5.8-1.2-8.9-1.5-3.1-.3-6.4-.4-9.7-.2-3.3.1-6.5.6-9.5 1.4-3 .8-6 1.6-8.8 2.3-5.6 1.5-10.6 2.9-14.8 4.1-4.2 1.2-7.5 2.2-9.9 2.9-1.1.3-2 .6-2.7.8-.3.1-.5.1-.7.2-.2 0-.2.1-.2 0 0 0 .1 0 .2-.1.2-.1.4-.1.7-.2.7-.2 1.5-.5 2.7-.9 2.3-.7 5.7-1.8 9.9-3 4.2-1.3 9.2-2.7 14.8-4.2 2.8-.7 5.7-1.5 8.8-2.3 3-.9 6.3-1.4 9.7-1.5 3.3-.1 6.6 0 9.8.3 3.1.3 6.1.9 9 1.6 5.6 1.4 10.5 3.2 14.6 4.7s7.4 2.8 9.7 3.5l2.7.9c.3.1.5.2.7.2-.2-.2-.1-.2-.1-.1z"/></g><g id="Device"><path class="st11" d="m166.6 357 10 100H342l5.1-101.7c.2-4.7-3.7-8.6-8.6-8.5L175 348.1c-5 .1-8.9 4.2-8.4 8.9z"/><ellipse class="st1" cx="260.4" cy="398.2" rx="9.1" ry="8.7"/><path d="M223.5 390c-.8-3.6-3.5-7.4-3.5-7.4-3.7-4.6-8.2-7.2-14.4-6.3-1.8.2-3.5.8-5.1 1.5-.1 0-.1.1-.2.1l-1.2.6c-1.5.9-2.9 2-4.1 3.2-4.1 4.5-4.3 9.5-2.3 15 0 0 1.9 4.2 4.6 6.8.8.8 1.9 1.4 1.9 1.7 0 .4-.6 1.1 1 3.6 1.3 1.9 5.1.7 6.8 0 .5-.2 1 0 1.2.4l2.2 3.8c.3.5.9.6 1.4.4l.5-.2c.5-.2.7-.8.4-1.3l-.5-.9c-.2-.5-.1-1 .4-1.3s1.1-.1 1.4.4l.7 1.2c.3.5.9.6 1.4.4l.5-.2c.5-.3.7-.8.4-1.3l-.7-1.1c-.3-.5-.1-1 .4-1.3l.1-.1c.5-.2 1.1-.1 1.3.4l.6 1.1c.3.5.9.6 1.3.4l.5-.2c.5-.2.7-.8.4-1.3l-.7-1.2c-.3-.5-.1-1 .4-1.3.5-.2 1.1-.1 1.3.4l.5.9c.3.4.9.6 1.3.4l.5-.2c.5-.2.7-.8.4-1.3l-2.1-3.8c-.2-.4-.1-1 .3-1.2 1.5-1 4.7-3.4 3.7-5.4-1.3-2.7-2.3-2.6-2.6-2.8-.2-.3-.1-1.6-.4-2.6z" style="fill:#e0e0e0"/><path class="st4" d="M223.5 390s.1.2.2.6c0 .2.1.5.1.8.1.3.1.7.2 1 .3.1.8.3 1.2.7.4.3.7.8 1 1.3.2.3.3.5.4.8.1.3.2.7.2 1 0 .7-.4 1.4-.9 2s-1.1 1.2-1.7 1.7c-.3.3-.7.5-1 .8-.4.2-.6.5-.5.9 0 .2.2.4.3.6s.2.4.4.6c.2.4.5.8.7 1.3.2.4.5.9.7 1.3.1.2.3.5.3.8s-.2.6-.4.8c-.3.2-.5.3-.7.4-.3.1-.6.2-.9 0-.3-.1-.6-.4-.7-.6-.1-.2-.3-.5-.4-.7-.2-.4-.8-.5-1.2-.2-.2.1-.3.4-.3.6 0 .1 0 .2.1.3l.2.4.4.8c.2.3.3.7.1 1-.1.4-.5.6-.8.7-.2.1-.6.3-1 .3s-.7-.3-.9-.6l-.5-.8c-.2-.3-.3-.5-.5-.6s-.5-.1-.7 0l.1-.3.1.2-.2.1c-.5.2-.7.7-.4 1.1l.4.8.2.4c.1.2.1.3.1.5 0 .4-.2.7-.5.9-.3.2-.5.3-.9.4s-.8 0-1.1-.2c-.2-.1-.3-.3-.4-.4l-.2-.4-.5-.8c-.1-.2-.3-.3-.6-.4-.5-.1-1 .4-.8.9.1.2.3.5.4.8.1.2.4.7.2 1.1-.1.4-.5.7-.8.8-.2.1-.3.1-.5.2s-.4.1-.6.1c-.4 0-.8-.3-1-.6l-.5-.8c-.3-.6-.7-1.1-1-1.7l-.5-.9c-.2-.3-.3-.5-.5-.6s-.5-.1-.8 0-.6.2-1 .3c-1.3.4-2.7.8-4.1.6-.7-.1-1.5-.5-1.9-1.2-.4-.6-.7-1.2-1-1.9-.1-.4-.2-.8-.1-1.3 0-.1 0-.2.1-.3v-.1l-.3-.3c-.6-.5-1.2-.9-1.8-1.5-1.1-1.1-2-2.4-2.8-3.6-.4-.6-.8-1.3-1.1-2-.2-.3-.3-.7-.5-1l-.4-1.1c-.5-1.4-.8-2.8-.9-4.3-.2-2.9.5-5.8 2.1-8 1.5-2.3 3.5-4 5.7-5.2l-.1.3-.1-.2.2-.1c.5-.2.9-.5 1.4-.7l.2-.1.1.2-.3-.1c4.2-1.9 8.7-2.2 12.2-.9 3.5 1.3 5.9 3.7 7.5 5.8 1.5 2.2 2.3 4.1 2.8 5.4.9 1.3 1 2.1 1 2.1s-.1-.2-.2-.5l-.5-1.5c-.5-1.3-1.4-3.2-2.9-5.3-1.6-2-4-4.4-7.4-5.6s-7.8-1-11.9.9l-.2.1-.1-.2.3.1c-.4.2-.9.5-1.4.7l.1-.3.1.2-.2.1c-2.1 1.2-4.1 2.9-5.5 5.1-1.5 2.2-2.2 4.9-2 7.7.1 1.4.4 2.8.9 4.2l.4 1c.2.3.3.7.5 1 .3.6.7 1.3 1.1 1.9.8 1.3 1.7 2.5 2.7 3.5.5.5 1.1 1 1.7 1.5.2.2.3.2.5.5.1.3 0 .3 0 .4v.3c0 .3 0 .7.1 1 .2.6.5 1.2.9 1.8.3.6.9.8 1.5.9 1.3.2 2.6-.1 3.9-.5l.9-.3c.3-.2.8-.2 1.2 0 .2.1.4.2.5.4.1.2.2.3.3.5l.5.9c.3.6.7 1.1 1 1.7l.5.8c.1.2.3.4.6.4.2 0 .5-.1.8-.3.3-.1.4-.3.5-.5s0-.4-.2-.7l-.2-.4c-.1-.1-.2-.3-.2-.5-.1-.4 0-.8.3-1.1.3-.3.7-.4 1.1-.4.4 0 .7.3.9.6l.5.8.2.4c.1.1.1.2.2.3.2.1.4.2.7.1.2 0 .5-.3.7-.4s.3-.3.3-.6c0-.1 0-.2-.1-.3l-.2-.4-.4-.8c-.2-.3-.2-.7-.1-1 .1-.3.5-.6.7-.7l-.1.3-.1-.2.2-.1c.4-.2.8-.2 1.1 0 .2.1.3.2.4.4.1.2.2.3.3.4l.5.8c.1.2.3.4.6.4s.5-.1.7-.2c.3-.1.5-.3.5-.5.1-.2.1-.4-.1-.7l-.4-.8-.2-.4c-.1-.2-.1-.3-.1-.5 0-.4.2-.7.5-.9.6-.4 1.5-.2 1.8.4.1.2.3.5.4.7.1.2.3.4.5.5s.4.1.6 0c.2-.1.5-.2.7-.4.2-.1.3-.3.3-.5s-.1-.4-.2-.6c-.3-.4-.5-.9-.7-1.3s-.5-.9-.7-1.3l-.3-.6c-.1-.2-.3-.4-.3-.7-.1-.3 0-.5.1-.8.1-.2.4-.4.5-.5.4-.2.7-.5 1-.7.7-.5 1.2-1.1 1.7-1.6.5-.6.8-1.2.9-1.9.1-.6-.3-1.2-.6-1.7s-.6-.9-1-1.3-.8-.5-1.2-.7c-.2-.2-.2-.4-.2-.6s0-.3-.1-.5c0-.3-.1-.6-.1-.8-.3-.4-.3-.6-.3-.6z"/><path class="st11" d="M207.1 395.5c1.2 2.1.4 4.8-1.8 6-2.3 1.2-5.1.4-6.3-1.8-1.2-2.1-.4-4.8 1.8-6 2.2-1.1 5-.3 6.3 1.8z"/><path class="st4" d="M207.1 395.5s-.2-.3-.8-.8c-.5-.5-1.4-1.1-2.6-1.2-1.2-.2-2.8.2-3.9 1.4-1.1 1.1-1.6 3.2-.6 4.8.9 1.6 2.9 2.4 4.5 2.1 1.6-.2 2.9-1.2 3.4-2.3.6-1.1.5-2.2.4-2.9-.3-.7-.5-1.1-.4-1.1l.2.2c.1.2.2.4.3.8.2.7.3 1.8-.2 3.1-.5 1.2-1.9 2.4-3.7 2.7-1.8.3-3.9-.5-5-2.4-.5-.9-.7-2-.5-2.9.1-1 .6-1.8 1.3-2.5 1.3-1.3 3-1.6 4.3-1.4s2.2.9 2.7 1.5c.2.3.4.5.5.7.1.1.1.2.1.2z"/><path class="st11" d="M220 388.8c1.2 2.1.4 4.8-1.8 6-2.3 1.2-5.1.4-6.3-1.8-1.2-2.1-.4-4.8 1.8-6 2.2-1.1 5-.4 6.3 1.8z"/><path class="st4" d="M220 388.8s-.2-.3-.8-.8c-.5-.5-1.4-1.1-2.6-1.2-1.2-.2-2.8.2-3.9 1.4-1.1 1.1-1.6 3.2-.6 4.8.9 1.6 2.9 2.4 4.5 2.1 1.6-.2 2.9-1.2 3.4-2.3.6-1.1.5-2.2.4-2.9-.3-.7-.5-1.1-.4-1.1l.2.2c.1.2.2.4.3.8.2.7.3 1.8-.2 3.1-.5 1.2-1.9 2.4-3.7 2.7-1.8.3-3.9-.5-5-2.4-.5-.9-.7-2-.5-2.9.1-1 .6-1.8 1.3-2.5 1.3-1.3 3-1.6 4.3-1.4s2.2.9 2.7 1.5c.2.3.4.5.5.7 0 .1.1.2.1.2z"/><path class="st11" d="M210.9 397.2c-.1.1-1.2 3.7.1 5.9.6.9 1.8 1.3 2.8.7.3-.2.5-.5.4-.9 0 0 1.2.7 1.8-.8 1-2.4-5.1-4.9-5.1-4.9z"/><path class="st4" d="M210.9 397.2c0-.1 1.1.3 2.7 1.2.8.5 1.7 1 2.4 2.1.1.1.2.3.2.5.1.2.1.3.1.5s0 .4-.1.5c0 .2-.1.3-.2.5-.2.3-.5.6-.9.8-.4.1-.8 0-1.2-.2l.4-.3v.2c0 .2 0 .5-.2.7-.1.2-.3.3-.5.4-.3.2-.7.3-1.1.2-.7 0-1.4-.4-1.8-1-.7-1.1-.7-2.3-.7-3.2.3-1.9.8-2.9.9-2.9 0 0 0 .3-.1.8s-.2 1.2-.2 2.1.1 2 .7 2.9c.3.4.9.7 1.4.8.3 0 .6 0 .8-.2.3-.1.4-.3.4-.5v-.1l-.2-.6.6.3c.2.1.5.2.8.1.2-.1.4-.3.6-.5.3-.5.2-1.1 0-1.5-.6-1-1.5-1.6-2.2-2.1-1.6-1-2.6-1.4-2.6-1.5z"/></g><g id="Padlock"><path class="st2" d="M383.3 116.3c-6.2-9.7-19.2-12.5-28.9-6.2-9.7 6.2-12.5 19.2-6.2 28.9l18.5 28.7 5.3-3.4-18.5-28.7c-4.4-6.8-2.4-15.8 4.4-20.2 6.8-4.4 15.8-2.4 20.2 4.4l4.1 6.4 5.6-2.9-4.5-7z"/><path class="st2" d="M383.3 116.3c-6.2-9.7-19.2-12.5-28.9-6.2-9.7 6.2-12.5 19.2-6.2 28.9l18.5 28.7 5.3-3.4-18.5-28.7c-4.4-6.8-2.4-15.8 4.4-20.2 6.8-4.4 15.8-2.4 20.2 4.4l4.1 6.4 5.6-2.9-4.5-7z"/><path class="st9" d="M383.3 116.3c-6.2-9.7-19.2-12.5-28.9-6.2-9.7 6.2-12.5 19.2-6.2 28.9l18.5 28.7 5.3-3.4-18.5-28.7c-4.4-6.8-2.4-15.8 4.4-20.2 6.8-4.4 15.8-2.4 20.2 4.4l4.1 6.4 5.6-2.9-4.5-7z"/><path class="st3" d="m414 162.1-36.7 23.7c-2.9 1.9-6.8 1-8.7-1.9l-12.8-19.8c-1.9-2.9-1-6.8 1.9-8.7l36.7-23.7c2.9-1.9 6.8-1 8.7 1.9l12.8 19.8c1.8 2.9 1 6.8-1.9 8.7z"/><path class="st4" d="M414 162.1s.5-.3 1.3-1.2c.7-.9 1.6-2.5 1.5-4.6-.1-.5-.2-1.1-.4-1.7-.2-.6-.5-1.1-.9-1.6-.7-1.1-1.5-2.3-2.4-3.6-1.7-2.6-3.6-5.6-5.8-8.9-1.1-1.7-2.2-3.4-3.4-5.2-.6-.9-1.1-1.9-1.9-2.6-.8-.7-1.8-1.3-2.9-1.5s-2.3-.2-3.3.2c-1.1.4-2 1.2-3.1 1.8-2.1 1.3-4.2 2.7-6.4 4.1-8.7 5.6-18.4 11.9-28.4 18.4-1.2.8-2.1 2-2.5 3.4s-.3 2.9.3 4.1c.3.6.7 1.2 1.1 1.8l1.2 1.8c.8 1.2 1.6 2.4 2.3 3.6 3.1 4.8 6 9.3 8.8 13.7 1.5 2 4.2 2.9 6.5 2.2 1.1-.3 2.1-1.1 3.1-1.7 1-.6 2-1.3 3-1.9 3.9-2.5 7.5-4.8 10.8-6.9 6.6-4.2 12-7.6 15.7-10 1.8-1.2 3.3-2.1 4.3-2.7.5-.3.8-.5 1.1-.7.2-.2.4-.3.4-.3s-.1.1-.4.3-.6.4-1.1.7c-1 .7-2.4 1.6-4.2 2.8-3.7 2.4-9 5.9-15.6 10.2-3.3 2.1-6.9 4.5-10.8 7-1 .6-2 1.3-3 1.9-.5.3-1 .7-1.5 1s-1.1.6-1.7.8c-2.5.8-5.4-.1-7.1-2.3-2.9-4.4-5.8-9-8.9-13.7-.8-1.2-1.5-2.4-2.3-3.6l-1.2-1.8c-.4-.6-.8-1.2-1.1-1.9-.6-1.4-.8-3-.3-4.5.4-1.5 1.4-2.8 2.7-3.7 10.1-6.5 19.7-12.7 28.5-18.3 2.2-1.4 4.3-2.8 6.4-4.1.5-.3 1-.7 1.5-1s1.1-.7 1.6-.9c1.2-.4 2.4-.5 3.6-.3 1.2.3 2.3.8 3.1 1.6.9.8 1.4 1.8 2 2.7 1.2 1.8 2.3 3.5 3.3 5.2 2.1 3.3 4 6.3 5.7 8.9.8 1.3 1.6 2.5 2.3 3.7.4.6.7 1.1.9 1.7.2.6.3 1.2.4 1.7.2 2.3-.8 3.9-1.6 4.7-.7.9-1.2 1.2-1.2 1.2z"/><path d="M387.2 152.3c-1.4-2.2-4.3-2.8-6.5-1.4s-2.8 4.3-1.4 6.5c1.2 1.8 3.4 2.5 5.3 1.9l3.8 5.9 2.2-1.4-3.8-5.9c1.3-1.5 1.6-3.8.4-5.6z" style="opacity:.5"/><path class="st1" d="M372.6 184.7c-.1.1-3.5-4.9-7.5-11.2-4-6.2-7.2-11.4-7.1-11.4.1-.1 3.5 4.9 7.5 11.2 4 6.2 7.2 11.3 7.1 11.4zM383.4 161.9s-.2.1-.6 0c-.4 0-1-.1-1.7-.4-1.4-.5-3.2-1.8-4-4s-.2-4.4.6-5.6c.4-.6.8-1.1 1.1-1.4.3-.3.5-.4.5-.4.1.1-.7.6-1.3 1.9-.6 1.2-1.1 3.3-.4 5.3s2.4 3.3 3.6 3.8c1.3.7 2.2.7 2.2.8z"/><path class="st4" d="M393.1 114.2c-.1 0 .1-3.7.5-8.1.4-4.5.9-8.1 1-8.1s-.1 3.7-.5 8.1c-.4 4.5-.8 8.1-1 8.1zM418.8 96.1c.1.1-4.8 5.5-10.9 12.1-6.2 6.6-11.2 11.9-11.3 11.8-.1-.1 4.8-5.5 10.9-12.1s11.2-11.9 11.3-11.8zM423.7 122.7c0 .1-4 0-9-.4-4.9-.4-8.9-.8-8.9-.9s4 0 9 .4c4.9.4 8.9.8 8.9.9z"/></g><path class="st0" d="M43 228c-1.3-1.7-2.9-3.1-4.7-4.3-.1 0-.1-.1-.2-.1-.4-.3-.9-.6-1.3-.9-1.8-1.1-3.8-1.8-5.8-2.3-7.2-1.5-12.4 1.4-16.8 6.8 0 0-3.2 4.5-4.2 8.9-.3 1.3-.3 2.8-.6 3-.4.3-1.5 0-3.1 3.3-1.2 2.5 2.4 5.7 4.1 7 .5.4.6 1 .3 1.5l-2.6 4.5c-.3.6-.1 1.3.4 1.6l.5.3c.5.3 1.2.2 1.5-.3l.6-1c.3-.5 1-.7 1.5-.3.6.3.7 1.1.4 1.6l-.8 1.5c-.3.6-.1 1.3.4 1.6l.5.3c.6.3 1.3.2 1.6-.4l.8-1.4c.3-.6 1-.7 1.6-.4l.2.1c.5.3.7 1.1.4 1.6l-.8 1.4c-.3.5-.1 1.3.4 1.6l.5.3c.5.3 1.3.2 1.6-.4l.8-1.5c.3-.5 1-.7 1.6-.4.5.3.7 1 .4 1.6l-.6 1.1c-.3.5-.1 1.3.4 1.6l.5.3c.5.3 1.3.2 1.6-.4l2.6-4.5c.3-.5.9-.7 1.4-.4 1.9.9 6.3 2.8 7.8.5 2-3 1.2-3.9 1.3-4.4 0-.3 1.3-1.1 2.2-2 3.2-3.1 5.5-8.1 5.5-8.1 2.8-6.4 2.8-12.6-1.9-18.5zm-26.1 15.4c-2.6-1.5-3.7-4.8-2.4-7.5s4.6-3.6 7.2-2.1c2.6 1.5 3.7 4.8 2.4 7.5-1.4 2.7-4.6 3.6-7.2 2.1zm6.4 11.2c-1.9.4-2-1.3-2-1.3-.3.4-.7.4-1.1.2-1.2-.5-1.7-2.1-1.1-3.2 1.3-2.7 5.6-4 5.8-4 0 0 1.5 7.7-1.6 8.3zm16-4.8c-1.3 2.6-4.6 3.6-7.2 2.1s-3.7-4.8-2.4-7.5c1.3-2.6 4.6-3.6 7.2-2.1 2.6 1.6 3.7 4.9 2.4 7.5z"/></svg>