<svg version="1.1" id="Layer_1" xmlns="http://www.w3.org/2000/svg" x="0" y="0" viewBox="0 0 500 500" style="enable-background:new 0 0 500 500" xml:space="preserve"><style>.st0{fill:#ebebeb}.st1{fill:#f5f5f5}.st2{fill:#e0e0e0}.st4{fill:#fafafa}.st6{display:inline;fill:#ebebeb}.st7{fill:#263238}.st8{fill:#455a64}.st9{fill:#671cc7}.st11{fill:#ffbe9d}.st12{fill:#eb996e}.st13{opacity:.3}</style><g id="Background_Complete"><path class="st0" d="m456.9 245.3-8.8 4.7s4 7.4-3.7 11.7c-4 2.2-7.4.7-9.4-.9-2.2-1.8-3.4-4.6-3.2-7.5.2-3.3 2.3-7.3 8.8-9.4L430 224.1l-8.7 4.7 6.2 11.7s-10.6 9.7-3.3 23.2c6.9 12.9 20.1 9.7 25.1 7.1 3.7-2.1 16.1-9.9 7.6-25.5z"/><path transform="rotate(-28.128 421.112 218.149)" class="st0" d="M416.1 213.4h10.1v9.4h-10.1z"/><path class="st0" d="m104.5 65.7 8.2 2.8s2.4-6.9 9.6-4.5c3.7 1.2 4.8 4.3 5 6.5.2 2.5-1 4.9-2.9 6.4-2.2 1.8-6 2.8-11.1 0l-6.4 18.5 8.1 2.8 3.7-10.8s12.4 1 16.7-11.5c4.1-12-5.6-18.5-10.2-20.1-3.6-1.3-15.9-4.6-20.7 9.9z"/><path transform="rotate(-70.938 108.27 104.35)" class="st0" d="M104.2 100h8.1v8.7h-8.1z"/><path class="st1" d="m61.8 55.5 4.8-1.4s-1.2-4 3-5.3c2.2-.7 3.7.4 4.5 1.4.9 1.1 1.2 2.6.8 4-.4 1.6-1.9 3.3-5.2 3.7l3.1 10.8 4.7-1.4-1.8-6.3s6.1-3.6 4-11c-2-7-8.8-6.8-11.5-6-2 .6-8.9 3.1-6.4 11.5z"/><path transform="rotate(-16.137 76.401 72.46)" class="st1" d="M73.9 70.1h5v4.7h-5z"/><path class="st2" d="m456.5 184.2-7.6-.2s-.2 6.4-6.9 6.4c-3.5 0-5.2-2.4-5.9-4.1-.8-2-.5-4.3.7-6.2 1.4-2.1 4.3-4 9.4-2.9l.5-17.2-7.6-.2-.3 10.1s-10.7 2.4-11 14.1c-.3 11.2 9.7 14.1 13.9 14.2 3.3-.1 14.5-.5 14.8-14z"/><path transform="rotate(-88.418 443.016 152.596) scale(.99998)" class="st2" d="M439.4 148.7h7.2v7.7h-7.2z"/><path class="st1" d="M318.6 446.2v25.3h77.8v-25.3z"/><path class="st2" d="M315.3 439.1v7.1h83.8v-7.1h-43.5z"/><path class="st2" d="M357.2 471.5h39.2v-25.3h2.7v-7.1h-43.5v6.4zM329.5 450.3h15.8v3.8h-15.8z"/><path style="fill:#fff" d="M327.4 458.8h20.3v8h-20.3z"/><path class="st2" d="M55.4 372.2c-4.5-2.8-9.7-4.6-14.9-5.1-2.4-.3-5.1-.2-7.1 1.3-.4.3-.8.8-.7 1.3.1.4.4.7.7.9 6 4.5 15.2 5.1 22 1.6M55 371.8c-3.4-2.6-6.8-5.3-9.6-8.5-2.9-3.2-5.2-7-6-11.2-.3-1.3-.3-2.7.5-3.7 7.6 5.9 13.6 13.7 15.1 23.4"/><path class="st2" d="M55.3 372.1c-.6-4.2-.8-8.5.2-12.7 1-4.1 3.2-8.1 6.7-10.5 1.3 3.1.8 6.7-.2 9.9-1.4 5-3.7 9.8-6.7 14.1M62.8 385.6c-4.6.6-8.6 3-12 6.1-3.4 3.1-5.8 7.3-6.9 11.8 4.5-.3 8.3-3.4 11.1-7 2.8-3.6 4.7-7.5 7.8-10.9M64.5 387.8c-3.7-9.1-2.4-20 3.4-27.9 2.6 9.2 1.6 19.7-3.4 27.9M74.4 399.7c-4.2-.3-8.4.7-12 2.8-3.6 2.1-6.6 5.2-8.4 9-.3.5-.5 1.1-.1 1.6.3.4.9.4 1.4.4 4-.3 7.6-2.7 10.5-5.4 2.9-2.9 5.5-6.1 8.6-8.4M74.1 399c-2.1-6.9-2.3-14.3-.4-21.3.7-2.7 2-5.6 4.5-6.9.2-.1.5-.2.7-.1s.3.3.4.5c.9 1.9 1.2 4 1.1 6.1s-.5 4.1-1 6.2c-.8 3.8-1.2 7.8-3.3 11.1-.5.8-.9 1.6-1.3 2.4s-.4 1.1-.8 1.8M100.5 402.9c-2-7.4.1-16.4 4.8-22.5.3-.4.8-.9 1.4-.9.9.1 1.1 1.2 1 2.1-.3 7.6-2.9 15.1-7.2 21.3M102.9 404.6c9 2.3 19.4.1 26.9-5.5-4.5-2.3-9.7-2.9-14.6-1.8-4.9 1.1-9.3 3.3-12.3 7.3M104.9 399.6c5.1-8.2 14.8-13.6 24.4-14.1-1.1 3.9-4.3 7-8 8.8-3.6 1.8-7.7 2.6-11.7 3.4-1.6.4-3.7.7-4.7 1.9M101 375.6c1.4-4.7 2.7-9.4 3.1-14.3s-.3-10-2.8-14.1c-4.7 9.1-5.2 19.8-.4 28.9M116.9 367.6c5.5-10 16.8-18.1 28.2-19.2-4.4 10.9-16.4 19.4-28.2 19.2"/><path class="st2" d="M113.4 369.5c8.2 1.3 15.3 6.5 23 9.7 1.6.7 3.4 1.2 5.2 1s3.5-1.4 3.9-3.2c.3-1.4-.3-3-1.4-4-1-1.1-2.4-1.7-3.8-2.3-8.4-3.5-17.4-3.6-26.2-1.5M108.7 375.3c1.9.5 2.5 1.5 4 2.8 5 4.3 11 7.4 17.4 8.9.7.2 1.5.2 1.9-.4.3-.5-.1-1.2-.4-1.6-2.7-3.3-6.5-5.6-10.5-7.1s-7.5-3.3-12.3-2.9M103.3 340.4c6.7 6.3 16.1 9.5 25.3 8.6.4 0 .9-.1 1.1-.4.6-.7-.1-1.8-.9-2.3-7.4-5.8-16.4-8.2-25.5-5.9"/><path class="st2" d="M109.7 338.1c8.9-6.6 21-8.6 31.5-5.2-4 3.9-9.5 6-15 6.6-5.6.6-11.1-.1-16.5-1.4M107.1 322.1c-.7-7.4-.3-13.3-.8-20.7 0-.6-.2-1.3-.7-1.5-.8-.3-1.4.7-1.7 1.4-2.2 6.9-1 14.7 3.2 20.6"/><path class="st2" d="M106.6 322.9c5-3.1 8.8-7.2 12.3-11.9 2.4-3.3 4.5-7.3 3.9-11.4-3.4-.1-6.6 1.8-8.9 4.4-2.2 2.6-3.5 5.8-4.5 9.1-1 3.2-1.7 6.6-2.8 9.8M118.6 319.5c11-4.1 21.3-10.1 30.2-17.8-3.6-1.5-7.7-.6-11.3.9-8.2 3.3-15 8.9-18.9 16.9M110 326.9c5.6.6 11.2 1 16.8.1 5.4-.9 10.6-3.1 15.7-5.2.4-.2.9-.4 1.1-.8.2-.5 0-1-.4-1.3s-.9-.5-1.3-.6c-5.5-1.5-11.5-.8-16.9 1-5.6 1.8-10.1 4-15 6.8M78.1 340.7c-3.8-7.7-3.6-16.6-.3-24.6 2.3 3.5 2.6 8 2.2 12.2s-1.7 8.5-1.8 12.7M62.9 333c-9.5-.2-19 3.9-25.5 10.8 4.7.7 9.6-.5 13.9-2.6s8.1-5.1 11.9-8M52.7 329.6c-4.6-.4-9.1-1-13.6.4s-8.5 4.5-10.4 8.8c4.3.5 8.8-.6 12.7-2.4 4.1-1.8 7.7-4.3 11.3-6.8M67.8 329.7c-4.2-2.7-8.5-5.5-13.3-6.7-4.9-1.1-10.5-.3-13.9 3.4 3.9 2.3 8.7 2.6 13.3 2.6s10.2-.1 14.5 1.5"/><path class="st2" d="M67.9 330c-7.1-7-9.9-19.6-7-29.2 5.6 8.5 8.1 19 7 29.2M87.5 310.1c1.3-3.1 2.3-6.4 3.5-9.6s2.7-6.3 5-8.9c2.3-2.5 5.4-4.4 8.9-4.6-2.1 9.7-8.5 18.3-17.2 23.1M84 314.2c-2.2-3.1-4.8-7.2-7.8-9.5s-7-3.7-10.7-2.8c3.7 6.7 10.8 11.4 18.5 12.3M84.7 310.3c-1.5-3.7-2.9-7.5-3.5-11.4s-.2-8.2 1.8-11.6c3.9 7.4 5.2 15.4 1.9 23.1M87.6 287.3c2.2-7.4 9-12.8 16.2-15.3.9-.3 1.9-.6 2.8-.4 1 .1 1.9.8 2.1 1.7.3 1.3-.8 2.4-1.7 3.2-5.7 4.9-12.3 8.6-19.4 10.8M87.6 281.3c.3-4.7.6-9.5 2.1-14s4.5-8.7 8.8-10.7c.7 4.8-1.4 9.6-3.9 13.7s-5.6 8-7.1 12.6M87.5 284.6c-1.8-5.4-2-12.2-5.2-16.8-2.2-3.3-5.8-5.5-7.8-8.9-1.3 3.2-.9 6.9.5 10.2 1.3 3.2 3.6 6 5.9 8.5 2.4 2.4 4.4 4.3 6.6 7"/><path class="st2" d="M87.6 442.4c-.1 0-.3-35.7-.3-79.8s.1-79.8.2-79.8.3 35.7.3 79.8c0 44-.1 79.8-.2 79.8z"/><path class="st2" d="M118.8 335.3s-.5.2-1.3.5c-1 .3-2.2.7-3.7 1.2-3.1 1.1-7.4 2.6-12.1 4.5-4.6 2-8.9 3.6-11.4 5.7-1.2 1.1-1.9 2.2-2.3 3s-.4 1.4-.5 1.3v-.4c0-.2.1-.6.3-1 .3-.9 1-2.1 2.2-3.2s3-2.2 5-3.1 4.2-1.9 6.5-2.8c4.7-1.9 9-3.4 12.1-4.4 1.6-.5 2.9-.9 3.8-1.1.9-.1 1.4-.3 1.4-.2z"/><path class="st2" d="M129 310.1s-.1.2-.4.4c-.3.3-.7.6-1.1 1.1-1.1 1-2.5 2.3-4.3 3.9-3.7 3.3-8.7 7.8-14.3 12.7-5.6 5-10.4 9.7-13.7 13.2-1.7 1.8-3 3.3-3.9 4.3-.4.5-.8.9-1 1.2-.2.3-.4.4-.4.4s.1-.2.3-.5c.2-.3.5-.7 1-1.2.9-1.1 2.1-2.6 3.8-4.4 3.3-3.6 8.1-8.4 13.6-13.4 5.6-4.9 10.7-9.4 14.4-12.6 1.8-1.6 3.3-2.8 4.4-3.8.5-.4.9-.7 1.2-1 .3-.2.4-.3.4-.3z"/><path class="st2" d="M103 333.2c-.1-.1 1-2.7 2.2-6.1s1.7-6.3 1.9-6.2c.1 0-.2 3-1.4 6.4-.6 1.7-1.2 3.2-1.7 4.3-.6 1-1 1.7-1 1.6zM87.6 354.9s-.3-.3-.9-1-1.3-1.7-2.2-2.8c-1.8-2.4-4.4-5.7-7.3-9.3-2.9-3.6-5.5-6.8-7.4-9.2-.9-1.1-1.6-2-2.2-2.8-.5-.7-.8-1-.8-1.1 0 0 .4.3.9.9.6.6 1.4 1.5 2.4 2.7 2 2.3 4.7 5.5 7.5 9.1 2.9 3.6 5.4 6.9 7.1 9.4.9 1.2 1.6 2.2 2.1 2.9.6.7.8 1.1.8 1.2z"/><path class="st2" d="M80.7 346.1c-.1.1-1.9-2.1-2.9-5.4-.7-2.3-.7-4.4-.7-5.4h.2c-.1.4-.2.6-.2.6v-.7h.2c.1 1 .2 3 .9 5.3 1.1 3.2 2.7 5.5 2.5 5.6zM71.9 334.9c-.1.1-.7-.7-2-1.2s-3.4-.6-5.6-.4c-2.2.2-4.2.6-5.6.9-1.4.4-2.3.6-2.3.6 0-.1.8-.5 2.2-.9s3.4-.9 5.7-1.1c2.2-.2 4.4 0 5.7.6 1.4.7 1.9 1.5 1.9 1.5zM69.8 332.2c0 .1-1.2-.5-3.1-1.1-1.9-.7-4.6-1.3-7.7-1.6-3.1-.2-5.8 0-7.8.4s-3.2.7-3.2.6c0 0 .3-.2.8-.3.5-.2 1.3-.4 2.3-.7 2-.5 4.8-.8 7.9-.6 3.1.2 5.9 1 7.7 1.7.9.4 1.7.7 2.2 1 .6.5.9.6.9.6zM87.5 320.8c-.1 0-1.1-3.4-2.2-7.8-1.1-4.3-1.9-7.9-1.7-7.9.1 0 1.1 3.4 2.2 7.8s1.9 7.9 1.7 7.9z"/><path class="st2" d="M87.7 320.8c-.2 0-.8-2.3-2.5-4.7-1.6-2.4-3.7-3.6-3.7-3.8 0-.1.6.2 1.4.7.8.6 1.8 1.5 2.7 2.7 1.7 2.7 2.2 5.1 2.1 5.1zM87.6 423.3c-.1 0-.2-.9-.6-2.4s-1.1-3.7-2.4-6.2c-2.5-5-7-11.4-12.7-17.9-2.8-3.2-5.6-6.3-7.9-9.2-2.3-2.9-4.3-5.7-5.7-8.2s-2.3-4.6-2.9-6c-.3-.7-.5-1.3-.6-1.7-.1-.4-.2-.6-.1-.6 0 0 .3.8.9 2.3.6 1.5 1.5 3.5 3 5.9 1.4 2.4 3.4 5.2 5.7 8 2.3 2.9 5.1 5.9 7.9 9.2 5.7 6.4 10.2 12.9 12.6 18 1.2 2.6 1.9 4.8 2.3 6.3.2.8.3 1.4.3 1.8.2.5.2.7.2.7zM115.8 391.4s-.5.3-1.5.8c-.9.5-2.3 1.4-3.8 2.5-1.5 1.2-3.3 2.7-5 4.6-1.8 1.9-3.6 4-5.5 6.4-3.7 4.7-7.2 8.8-9.3 12.1-1.1 1.6-1.8 3-2.3 4s-.8 1.5-.8 1.5 0-.2.1-.4c.1-.3.3-.7.5-1.2.5-1 1.2-2.4 2.2-4.1 2-3.4 5.5-7.6 9.2-12.2 1.9-2.3 3.7-4.5 5.5-6.4s3.6-3.4 5.2-4.6 3-1.9 4-2.4c.5-.2.9-.4 1.2-.5.1-.1.3-.1.3-.1z"/><path class="st2" d="M116.3 401.8c0 .1-1.2.2-3.1.5-1.9.2-4.6.6-7.4 1.5s-5.1 2.3-6.6 3.5-2.3 2.2-2.3 2.1c0 0 .1-.3.5-.7.3-.4.9-1 1.6-1.7 1.5-1.3 3.8-2.8 6.7-3.7 2.9-.9 5.6-1.2 7.5-1.3 1.9-.3 3.1-.3 3.1-.2zM97.7 408.1c-.2-.1 1.2-2.2 2.3-5.1 1-2.9 1.3-5.5 1.4-5.5s.1.6-.1 1.7c-.1 1-.4 2.5-.9 4s-1.3 2.8-1.8 3.6c-.4.9-.8 1.4-.9 1.3zM124.9 363.6s-.2.1-.5.3c-.4.2-.9.4-1.5.7-.6.3-1.4.6-2.3 1.1s-1.9.9-3 1.6c-.5.3-1.1.6-1.7 1-.6.3-1.2.7-1.8 1.1-1.3.8-2.5 1.7-3.9 2.7-2.6 2-5.4 4.4-8.1 7.1-2.6 2.8-4.9 5.6-6.8 8.3-.9 1.4-1.8 2.7-2.5 4-.4.6-.8 1.2-1.1 1.8-.3.6-.6 1.2-.9 1.7-.6 1.1-1 2.1-1.5 3-.4.9-.8 1.7-1 2.3-.3.6-.5 1.1-.6 1.5-.1.3-.2.5-.2.5s0-.2.2-.5c.1-.4.3-.9.5-1.5.2-.7.5-1.5.9-2.4s.8-2 1.4-3.1l.9-1.8c.3-.6.7-1.2 1.1-1.9.7-1.3 1.6-2.6 2.5-4 1.9-2.7 4.2-5.6 6.8-8.4 2.7-2.8 5.5-5.1 8.1-7.1 1.4-1 2.6-1.9 3.9-2.6.6-.4 1.2-.8 1.8-1.1.6-.3 1.2-.6 1.7-.9 1.1-.6 2.1-1.1 3-1.5s1.7-.8 2.4-1c.6-.2 1.1-.4 1.5-.6.5-.2.7-.3.7-.3z"/><path class="st2" d="M102.6 378.6s.2-.9 1.2-1.8c1-1 2.8-1.8 4.9-1.9s4 .5 5.2 1c1.3.5 2 .9 2 1s-.8-.2-2.1-.6c-1.3-.4-3.1-.9-5.1-.8s-3.7.8-4.7 1.7c-1 .7-1.3 1.5-1.4 1.4zM99.2 382.1c-.1-.1 1.1-1.9 1.4-4.6.3-2.6-.5-4.7-.3-4.8.1 0 .3.5.6 1.3.2.9.4 2.1.2 3.5s-.6 2.6-1 3.3c-.4.9-.8 1.3-.9 1.3zM62.9 428.4c.8 13.7 4.9 27.6 11.2 41.6h27.5c6-13.9 9.9-27.8 10.6-41.6H62.9z"/><path class="st4" d="M107.7 450.5c0 .1-9.1.3-20.2.3-11.2 0-20.2-.1-20.2-.3 0-.1 9.1-.3 20.2-.3 11.1.1 20.2.2 20.2.3zM107.1 455.5c0 .1-8.5.3-19 .3s-19-.1-19-.3c0-.1 8.5-.3 19-.3s19 .1 19 .3zM74.5 437.4c.1 0 .3 2.8.3 6.3s-.1 6.3-.3 6.3c-.1 0-.3-2.8-.3-6.3.1-3.5.2-6.3.3-6.3z"/><path class="st4" d="M89.3 437.4c.1 0 .3 2.9.3 6.6 0 3.6-.1 6.6-.3 6.6-.1 0-.3-2.9-.3-6.6s.1-6.6.3-6.6zM103.1 437.3c.1 0 .3 3 .3 6.7s-.1 6.7-.3 6.7c-.1 0-.3-3-.3-6.7.1-3.7.2-6.7.3-6.7z"/><path class="st4" d="M111.3 437.4c0 .1-10.6.3-23.7.3s-23.7-.1-23.7-.3c0-.1 10.6-.3 23.7-.3s23.7.1 23.7.3z"/></g><g id="Plant"><path class="st7" d="M366.7 414.9h67.2v9.2h-67.2z"/><path class="st7" d="M434 424.2h-67.4v-9.5H434v9.5zm-67.2-.2h67v-9h-67v9z"/><path class="st7" d="m372.9 421 9.7 47.7h35.8l9.3-44.6z"/><path class="st8" d="m372.9 464.2 5.2 7.1h43.5l6.1-7.1z"/><path class="st7" d="M397.8 422.4c-.1 0-.3-22.1-.4-49.4s0-49.4.1-49.4.3 22.1.4 49.4 0 49.4-.1 49.4zM412.7 367.1s0 .2-.2.5c-.2.4-.4.8-.6 1.4-.1.3-.3.7-.4 1-.1.4-.3.8-.4 1.3-.2.5-.3.9-.5 1.4s-.3 1.1-.5 1.6c-.7 2.3-1.3 5.1-1.9 8.2-.5 3.1-.9 6.6-1 10.3-.3 7.3.1 14 .5 18.8.2 2.4.4 4.3.6 5.7.1.6.1 1.1.2 1.5v.5s-.1-.2-.1-.5c-.1-.4-.2-.9-.3-1.5-.2-1.3-.5-3.3-.7-5.7-.5-4.8-1-11.5-.7-18.8.2-3.7.6-7.2 1.1-10.3.6-3.1 1.2-6 2-8.3.2-.6.3-1.1.5-1.6s.4-1 .6-1.4.3-.9.5-1.2c.2-.4.3-.7.5-1l.7-1.4c0-.3.1-.5.1-.5z"/><path class="st7" d="M411 349.2s-.1.3-.2.7c-.2.5-.4 1.2-.7 2.1-.2.4-.3.9-.5 1.5s-.3 1.1-.5 1.8c-.4 1.3-.8 2.7-1.3 4.4-.2.8-.4 1.7-.7 2.6-.2.9-.4 1.8-.6 2.8-.5 1.9-.8 4-1.2 6.2-.7 4.4-1.4 9.2-1.8 14.4-.4 5.1-.6 10-.7 14.5 0 4.5 0 8.5.2 11.8.1 1.7.2 3.2.3 4.5.1 1.3.2 2.5.2 3.4.1.9.1 1.6.2 2.2v.8s-.1-.3-.1-.7c-.1-.5-.1-1.3-.3-2.2-.1-.9-.2-2.1-.3-3.4-.1-1.3-.2-2.9-.3-4.5-.2-3.4-.3-7.4-.3-11.9s.2-9.4.6-14.5c.5-5.1 1.1-10 1.9-14.4.4-2.2.8-4.3 1.3-6.2.2-1 .4-1.9.7-2.8.2-.9.5-1.7.7-2.6.4-1.6.9-3.1 1.3-4.4l.6-1.8.6-1.5c.3-.8.6-1.5.8-2 0-.5.1-.8.1-.8zM393.5 426.3v-.3c0-.2 0-.4-.1-.8 0-.7-.1-1.7-.2-2.9-.2-2.6-.4-6.2-.7-10.8-.6-9.1-1.4-21.6-3-35.5-.8-6.9-1.7-13.5-2.6-19.4-.5-3-1-5.8-1.5-8.4s-1-5.1-1.5-7.3c-.4-2.2-.9-4.2-1.3-6s-.8-3.3-1.1-4.5c-.3-1.2-.5-2.2-.7-2.8-.1-.3-.1-.5-.2-.7 0-.2-.1-.3 0-.3 0 0 0 .1.1.2.1.2.1.4.2.7.2.7.5 1.6.8 2.8.3 1.2.7 2.7 1.2 4.5.4 1.8.9 3.8 1.4 6s1 4.7 1.5 7.3c.5 2.6 1 5.5 1.5 8.4 1 5.9 1.9 12.5 2.7 19.4 1.5 13.8 2.3 26.4 2.8 35.5.2 4.5.4 8.2.5 10.8 0 1.2.1 2.2.1 2.9v.8c.1.3.1.4.1.4z"/><path class="st9" d="M397.2 334.3c-.3-3.1-3.5-5.5-6.6-5.5s-6.1 1.9-8 4.3c-1.9 2.5-3 5.5-3.9 8.5-2.1 7.4-3.3 15.1-2.4 22.7s4 15.1 9.5 20.5c.9.9 2 1.8 3.3 1.5.7-.1 1.2-.6 1.7-1.1 10.7-9.7 16.9-24.2 16.5-38.7-.1-2.9-.5-5.9-2.1-8.3-1.5-2.3-5.2-4.9-8-3.9M373.8 309.2c-1.5 2.7-3 5.3-4.4 8-.1.2-.2.4-.5.4-.2 0-.4-.2-.5-.4l-11.7-18 2.7-1.5 14.4 11.5z"/><path d="M373.8 309.2c-1.5 2.7-3 5.3-4.4 8-.1.2-.2.4-.5.4-.2 0-.4-.2-.5-.4l-11.7-18 2.7-1.5 14.4 11.5z" style="opacity:.2"/><path class="st9" d="M397.5 323.7c-13.3-7.9-26.6-15.7-39.9-23.6-.4-.2-.8-.5-1-1-.2-.6.3-1.2.7-1.6 5.5-5.7 13.5-9 21.3-8.4 7.9.6 15.4 5.1 19.3 12s4 16.1-.4 22.6"/><path class="st7" d="M363.3 292.6s.2 0 .5-.1c.3 0 .9-.1 1.5-.1 1.3 0 3.2.1 5.5.4 2.3.4 5 1.1 7.9 2.4 2.8 1.3 5.8 3.1 8.5 5.5s4.8 5.2 6.3 7.9 2.6 5.3 3.2 7.6c.6 2.3.9 4.2 1 5.5.1.7 0 .8.1 1.2 0 .3-.3.9-.3.9s.2-.7.1-2c-.2-1.3-.5-3.2-1.1-5.4-1.3-4.4-4.2-10.4-9.5-15.2-5.3-4.8-11.6-7.1-16.1-7.9-2.3-.4-4.2-.6-5.5-.6-1.4-.1-2.1-.1-2.1-.1z"/><path class="st7" d="M392.1 307.4c0 .1-.7.4-2 .9s-3.1 1.1-5 1.8c-2 .6-3.8 1.1-5.1 1.5-1.3.3-2.2.5-2.2.4s.8-.3 2.1-.7c1.5-.5 3.2-1 5.1-1.6s3.6-1.2 5.1-1.6c1.2-.5 2-.7 2-.7zM385.8 290.5c.1 0 .4 2 .5 4.5s-.1 4.5-.2 4.5-.2-2-.2-4.5c-.2-2.5-.2-4.5-.1-4.5zM357.2 299.7c0-.1 1.1-.5 2.9-1 1.8-.6 4.3-1.3 7.2-1.9 2.8-.7 5.4-1.2 7.3-1.5s3-.5 3-.4-1.1.3-3 .7c-1.9.4-4.4 1-7.2 1.7s-5.3 1.3-7.2 1.8c-1.8.4-3 .6-3 .6z"/><path class="st9" d="M380.7 327.5c-3.4-2.6-7.1-3.1-11.4-2.9s-8.5 1.5-12.5 3.2c-6.7 2.9-13.1 7.3-17.1 13.5s-5.4 14.3-2.4 21c.3.7.7 1.4 1.4 1.7.7.3 1.5.1 2.3-.2 7.7-2.5 15.4-5 22.4-8.9s13.5-9.4 17.2-16.5c.9-1.7 1.7-3.5 1.8-5.5.2-2-.4-4-1.7-5.4"/><path class="st7" d="M380.7 326.7s-.2.1-.6.2-.9.3-1.6.6c-.4.1-.7.2-1.2.4-.4.2-.9.3-1.4.5-1 .4-2.1.8-3.3 1.4-.6.3-1.2.6-1.9.9-.7.3-1.3.7-2 1-1.4.7-2.8 1.6-4.3 2.4-2.9 1.9-6 4.1-9.1 6.7-3 2.7-5.6 5.5-7.8 8.1-1.1 1.4-2.1 2.7-3 3.9-.4.6-.9 1.2-1.3 1.8-.4.6-.7 1.2-1.1 1.8-.7 1.1-1.3 2.2-1.8 3.1-.2.5-.5.9-.7 1.3s-.4.8-.5 1.1c-.3.6-.6 1.1-.8 1.5-.2.3-.3.5-.3.5s.1-.2.2-.6c.2-.4.4-.9.7-1.6.2-.3.3-.7.5-1.1s.4-.8.7-1.3c.5-.9 1-2 1.7-3.1.3-.6.7-1.2 1.1-1.8.4-.6.8-1.2 1.3-1.9.8-1.3 1.9-2.6 2.9-4 2.2-2.7 4.8-5.5 7.9-8.2 3-2.7 6.2-4.9 9.2-6.7 1.5-.9 2.9-1.7 4.3-2.4.7-.3 1.4-.7 2-1 .7-.3 1.3-.6 1.9-.8 1.2-.6 2.3-.9 3.3-1.3.5-.2.9-.4 1.4-.5l1.2-.3c.7-.2 1.2-.3 1.6-.5.6-.1.8-.1.8-.1zM353.9 341.2c0 .1-3.7 1.3-8.4 2.7-4.7 1.4-8.5 2.4-8.5 2.2 0-.1 3.7-1.3 8.4-2.7 4.6-1.3 8.4-2.3 8.5-2.2z"/><path class="st7" d="M353.5 359.7c-.1 0-.1-1-.2-2.6 0-1.6-.1-3.8 0-6.3s.2-4.7.3-6.3c.1-1.6.3-2.6.3-2.6.1 0 .1 1 0 2.6-.1 1.8-.1 3.9-.2 6.3s-.1 4.5-.2 6.3c.2 1.6.1 2.6 0 2.6zM369.3 351.6c-.1 0-.6-4.5-.9-10.1-.4-5.6-.6-10.1-.5-10.1s.6 4.5.9 10.1c.5 5.6.7 10.1.5 10.1z"/><path class="st7" d="M349.7 331c0-.1 1-.1 2.7-.1s3.9.1 6.4.1c2.5.1 4.8.2 6.4.3 1.6.1 2.7.2 2.7.3 0 .1-1 .1-2.7.1s-3.9-.1-6.5-.1c-2.5-.1-4.8-.2-6.4-.3-1.6-.2-2.6-.3-2.6-.3zM387.6 386s0-.2-.1-.5c0-.4 0-.9-.1-1.5-.1-1.3-.1-3.3 0-5.7 0-2.4.2-5.2.5-8.4.3-3.1.8-6.6 1.4-10.2.7-3.6 1.5-7 2.3-10 .8-3.1 1.7-5.8 2.5-8 .8-2.3 1.5-4.1 2-5.3.2-.6.4-1 .6-1.4.1-.3.2-.5.2-.5s0 .2-.2.5c-.1.4-.3.9-.5 1.4-.5 1.3-1.1 3.1-1.9 5.3-.8 2.3-1.6 5-2.4 8-.8 3.1-1.6 6.4-2.2 10s-1.1 7-1.4 10.1-.5 6-.6 8.3c-.1 2.4-.1 4.3-.1 5.6v2.3z"/><path class="st7" d="M389.7 359.8s-.6.7-1.6 1.7-2.5 2.4-4.2 3.9-3.2 2.7-4.4 3.6c-1.2.9-1.9 1.4-1.9 1.4 0-.1.6-.7 1.7-1.6 1.2-1.1 2.7-2.3 4.3-3.7 1.6-1.4 3-2.7 4.3-3.8 1.1-.9 1.8-1.5 1.8-1.5zM402.3 370c-.1 0-.7-.9-1.7-2.4-1.1-1.6-2.4-3.6-3.9-5.8-1.5-2.2-2.9-4.1-4-5.7-1-1.5-1.7-2.4-1.6-2.4s.8.8 1.9 2.2c1.1 1.4 2.6 3.4 4.2 5.6s2.9 4.3 3.8 5.9c.9 1.6 1.4 2.6 1.3 2.6zM395.7 338c.1.1-4.1 2.9-9.4 6.3s-9.6 6-9.6 5.9c-.1-.1 4.1-2.9 9.4-6.3 5.2-3.4 9.5-6 9.6-5.9zM407.6 350.8c-.1.1-2.9-2.5-6.4-5.9-3.4-3.3-6.1-6.1-6-6.2s2.9 2.5 6.4 5.9c3.4 3.3 6.1 6.1 6 6.2z"/><path class="st9" d="m410.5 350.5 3.6-.3c2.6-.2 5-1 7.3-2.2 1.1-.6 2.2-1.2 3.4-1.7 4.5-1.8 9.4-1.5 14.2-1.7 7.8-.4 15.6-2.4 22.6-5.8.4-.2.8-.5 1-.9.7-1.3-.6-2.6-1.8-3.3-6.1-3.7-12.3-7.5-19.1-9.4-6.9-1.9-14.7-1.5-20.6 2.5-6.9 4.8-9.4 14.5-10.6 22.8"/><path class="st7" d="m462.7 337.5-.6-.3c-.4-.2-1-.5-1.7-.9-1.5-.8-3.6-1.9-6.3-3.2-2.7-1.3-6-2.7-9.8-3.8-3.8-1.1-8.2-1.6-12.7-1s-8.6 2.3-11.5 5c-2.9 2.6-4.7 5.8-6 8.4-1.3 2.7-2 5-2.6 6.6-.3.8-.5 1.4-.6 1.8-.2.4-.2.6-.3.6 0 0 0-.2.2-.7.1-.5.3-1.1.6-1.8.5-1.6 1.2-3.9 2.5-6.7 1.2-2.7 3-5.9 6-8.6s7.2-4.5 11.8-5.1c4.6-.6 9 0 12.8 1.1s7.1 2.6 9.8 3.9c2.7 1.3 4.8 2.5 6.3 3.4.7.4 1.2.7 1.7 1 .3.1.5.2.4.3z"/><path class="st7" d="M454.1 342.1c-.1.1-4.8-2.9-10.5-6.8s-10.3-7.1-10.3-7.2c.1-.1 4.8 2.9 10.5 6.8 5.8 3.9 10.4 7.1 10.3 7.2zM449.1 327.8c0 .1-1.5.5-3.4.6-1.9.2-3.5.1-3.5 0s1.6-.2 3.5-.4c1.8-.1 3.3-.3 3.4-.2zM428.4 325.1c.1.1-.6 1.1-1.5 2.4-1 1.3-1.8 2.3-2 2.2-.1-.1.6-1.1 1.5-2.4 1-1.2 1.9-2.2 2-2.2zM432.6 344.9c0 .1-.9-.4-2.3-1.2-1.4-.8-3.2-2-5.2-3.5-2-1.4-3.7-2.8-4.9-3.8-1.2-1-2-1.6-2-1.7s.9.5 2.2 1.4c1.4 1 3.1 2.3 5 3.7 2 1.4 3.8 2.7 5.1 3.6 1.4.9 2.2 1.4 2.1 1.5z"/><path class="st9" d="M415.8 365.8c-3.4-.9-7.5 2.4-8.2 5.9s.6 7.1 2.1 10.3c3.4 7.1 8.1 13.7 14.2 18.6 6.2 4.9 13.9 8 21.7 8-1.5-6.8.4-13.8-.4-20.7-.7-6-3.5-11.7-7.8-15.9-4.3-4.2-10-7-16-7.6-2.1-.2-4.7-.6-5.6 1.4"/><path class="st7" d="M445.7 408.6s-.2-.1-.5-.2c-.3-.2-.8-.4-1.3-.9-1.1-.8-2.3-2.4-3.4-4.5-.5-1.1-1.2-2.2-1.8-3.5-.6-1.3-1.2-2.7-1.9-4.1-.7-1.4-1.4-2.9-2.3-4.4s-2-2.9-3.1-4.3c-2.4-2.8-4.9-5.2-7.1-7.4-2.2-2.3-4.1-4.5-5.4-6.5-1.4-2-2.2-3.8-2.6-5-.2-.6-.4-1.1-.5-1.5-.1-.3-.1-.5-.1-.5s.2.7.7 1.9c.5 1.2 1.4 3 2.7 4.9 1.4 2 3.2 4.1 5.4 6.4 2.2 2.3 4.7 4.6 7.1 7.4 1.2 1.4 2.3 2.8 3.2 4.3.9 1.5 1.6 3 2.3 4.4.6 1.4 1.2 2.8 1.8 4.1.6 1.3 1.2 2.4 1.7 3.5 1 2.1 2.2 3.7 3.2 4.6 1.2 1 1.9 1.3 1.9 1.3z"/><path class="st7" d="M427.9 403c-.1 0 0-.9.3-2.3s.7-3.4 1.3-5.5c.6-2.1 1.2-4 1.7-5.4.5-1.3.9-2.2.9-2.1.1 0-.2.9-.6 2.2-.4 1.4-1 3.3-1.6 5.4s-1.1 4-1.4 5.4c-.3 1.5-.5 2.3-.6 2.3zM445 386.4c0 .1-.9-.2-2.4-.6s-3.5-.9-5.8-1.4-4.4-.9-5.9-1.2c-1.5-.3-2.4-.5-2.4-.5 0-.1 1 0 2.5.2s3.6.5 5.9 1.1c2.3.5 4.3 1.1 5.8 1.6 1.5.4 2.4.8 2.3.8zM415.2 391.3c-.1 0 .1-1 .4-2.7.3-1.6.8-3.9 1.4-6.4s1.3-4.7 1.9-6.3c.5-1.6.9-2.5 1-2.5s-.2 1-.7 2.6-1.1 3.8-1.7 6.3-1.2 4.7-1.6 6.3c-.4 1.7-.7 2.7-.7 2.7zM437.2 372c0 .1-4.3-.2-9.6-.8-5.3-.6-9.6-1.1-9.5-1.3 0-.1 4.3.2 9.6.8 5.2.6 9.5 1.2 9.5 1.3z"/><path class="st8" d="M434 424.1c0 .1-15.1.2-33.7.2s-33.7-.1-33.7-.2 15.1-.2 33.7-.2c18.6-.1 33.7 0 33.7.2zM423.5 443.5c0 .1-10.2.2-22.7.2s-22.7-.1-22.7-.2 10.2-.2 22.7-.2c12.5-.1 22.7.1 22.7.2zM423.1 446.3c0 .1-10 .2-22.3.2s-22.3-.1-22.3-.2 10-.2 22.3-.2c12.3-.1 22.3 0 22.3.2zM423.9 441.2c0 .1-10.5.2-23.5.2s-23.5-.1-23.5-.2 10.5-.2 23.5-.2 23.5.1 23.5.2z"/></g><g id="Labyrinth"><path class="st9" d="M351.5 138.5c-3.1-14.9-18.2-63.1-83.5-60.4-32.4 1.4-50.3 16.7-59.6 29.3-10.1 13.7-12.6 27.3-12.6 27.4l-.1.4h-36.2v-.5c0-.1 0-14.8 1.6-22.2l1 .2c-1.4 6.5-1.5 18.8-1.6 21.4h34.3c.5-2.4 3.4-14.8 12.7-27.4 9.4-12.8 27.6-28.4 60.4-29.8 26.8-1.1 48.2 6.2 63.6 21.7 13.9 14 19.1 30.7 20.9 39.4l-.9.5z"/><path class="st9" d="M291.5 370.2h-54.1V216.1l.6.1c51.1 9 73.3-13.6 82-27.9 10.2-16.9 12-37.3 4.8-54.5-4.5-10.6-18.5-35.3-52.7-34.7-16.7.3-39.2 5.6-51.4 29.1-7.3 14.1-7.4 28.3-7.4 28.4v.5h-67.9v-.5c-.1-5.7 0-25.1 0-25.3v-.6l8.4.9V144l49-.1c.5-2.5 3.2-15.7 12-28.7 8.9-13.1 25.8-28.7 56.3-28.7h1c22.3.2 40.7 8.1 53.2 22.7 13.5 15.7 17.6 36.5 15.6 50.1 0 .3-1.3 31.6-24.8 52.5-16.4 14.6-39.6 20.7-68.8 18.2v48h10.1v-38.2h.5c.1 0 12.3 1 27.2-2.1 13.7-2.8 32.7-9.8 45-26.8 22-30.6 22.3-47.9 22.5-60.6 0-1 0-2 .1-3l-.1-2.5h15v.5c0 .3 2.4 31.5-23.6 66.6-16.2 21.8-35.2 35.8-53.4 39.5l-.2-1c18-3.6 36.8-17.5 52.8-39.1 24.1-32.4 23.6-61.5 23.5-65.4h-13l.1 1.5c0 1 0 2-.1 3-.2 12.8-.4 30.3-22.6 61.1-12.5 17.3-31.7 24.3-45.6 27.2-13.3 2.7-24.4 2.3-27 2.1V279h-12.1v-50h.5c29.2 2.6 52.2-3.5 68.5-17.9 23.2-20.6 24.5-51.5 24.5-51.8 1.9-13.4-2.1-33.9-15.4-49.4C312.1 95.6 294 87.8 272 87.6c-30.7-.3-47.6 15.1-56.4 28.2-9.6 14.2-11.9 28.6-12 28.7l-.1.4-50.8.1v-12.6l-6.4-.7c0 3.1-.1 18.6 0 24.2h65.9c.1-2.7.8-15.5 7.4-28.3 6.8-13.2 21.4-29.1 52.2-29.7h1.2c33.9 0 47.9 24.7 52.4 35.4 7.4 17.5 5.5 38.3-4.9 55.4-7.4 12.2-24.6 30.5-60.7 30.5-6.6 0-13.8-.6-21.7-2v151.9h53.1v1.1h.3z"/><path class="st9" d="M305.5 369.7h-1v-90l.4-.1c.2-.1 23.7-6.3 46.9-25.1 21.4-17.3 46.8-49.1 46.8-102.5 0-41.9-17-75.6-49-97.4-26.5-18-58.3-24.4-77.5-24.4-28.3 0-96.7 7.2-119.2 74.1 0 .1-2.9 9.4-4.1 18.6l-1-.1c1.2-9.3 4.1-18.7 4.1-18.8 22.7-67.5 91.6-74.7 120.2-74.7 19.4 0 51.4 6.4 78.1 24.6 32.4 22 49.5 56 49.5 98.2 0 53.8-25.7 85.9-47.2 103.3-21.7 17.6-43.7 24.2-46.9 25.1l-.1 89.2z"/><path class="st9" d="M298.1 311.8h-1l.1-40.2.4-.1c.1 0 11.3-1.8 25.9-9.7 13.4-7.3 32.5-21.3 47.2-47 21-36.7 17.2-64.9 17.1-65.2-2.5-36.2-16.7-64.4-42.3-83.8-26.8-20.3-57.6-24.6-73.6-25.4-12.5-.6-34.3 1.5-54.4 9.4-27.3 10.7-45.5 28.9-53.9 54l-.9-.3c8.5-25.4 26.9-43.7 54.5-54.6 20.3-8 42.2-10.1 54.8-9.5 16.1.8 47.2 5.1 74.1 25.6 25.9 19.6 40.2 48 42.7 84.5 0 .2 3.9 28.8-17.3 65.8-14.8 25.9-34.1 40.1-47.7 47.4-13.1 7.1-23.6 9.3-25.8 9.7l.1 39.4zM298 361.1h-40.2v-1H297V329h1z"/><path class="st9" d="M257.8 361.1h-10.7v-70.7h11.2v61.8h-1v-60.8h-9.2v68.7h9.7zM188.4 123.3h-17.9v-.5c.6-18.8 8.3-31.2 14.7-38.2 5.8-6.3 11.3-9.5 13.3-10.5l-9.5-8.2.7-.8 10.7 9.2-.7.3c-.3.1-26.8 12.7-28.1 47.7H188c.8-3.5 7.1-28.8 24.3-35.4l-5.6-5.9c-2.1.6-16.1 5.8-23.9 31.6l-1-.3c8.6-28.4 24.2-32.2 24.9-32.4l.3-.1 7.1 7.4-.7.3C195 93.9 189 122.6 189 122.8l-.1.4-.5.1zM218.5 81.2l-22.3-20.7.7-.7 21.6 20.1c1-.9 4-3.3 9.2-6 5.9-3 15.7-6.7 29.5-7.6 27-1.9 46.2 3.2 54.7 8.2l7.4-12.5c-5.7-2.5-58.6-24.5-101.7.5l-.5-.9C263 35 319.7 61 320.3 61.3l.5.2-8.5 14.3-.4-.3c-8.2-5.1-27.4-10.3-54.6-8.4-25.9 1.9-38.3 13.6-38.4 13.7l-.4.4zM288.1 347.8h-1l1.5-85.2h.5c28.7-.2 68.7-41.2 80.2-73.3 16-44.9 3-76.3-10.7-94.7C345 76.2 327.9 66.7 325 65.1l-7.3 13.2c4.9 2.1 42.1 19.2 42.4 59.3l15.8.1v1l-16.8-.1v-.5c0-42.4-41.9-59-42.3-59.1l-.5-.2 8.3-15 .4.2c.2.1 19.3 9.7 34.4 29.9 13.9 18.6 27.1 50.4 10.9 95.7-6.5 18.1-19.9 37-36.8 51.7-15.6 13.7-32 21.9-43.9 22.3l-1.5 84.2zM279.7 348.3h-13.6v-.5l1.6-88-.1-5.9H280v83.3h-1v-82.3h-10.4l.1 4.9-1.6 87.5h12.6zM366.7 241c-.9-1-6.3-6.6-7.7-8l-.1-.1-.1-.1c-.2-.2-.2-.3-.1-.5l.4-.3c.1 0 .2 0 .4.2l.3.3c.5.5 1.5 1.4 3.4 3.4 2.5 2.6 4 4.1 4.4 4.6l-.9.5z"/><path transform="rotate(-51.741 332.25 50.355)" class="st9" d="M327.3 49.9h9.9v1h-9.9z"/><path class="st9" d="M331.7 152.5h-2.2v-1c1.6.1 3.6 0 5.6 0s4.1-.1 5.7 0v1c-1.6-.1-3.6 0-5.6 0h-3.5zM175.9 144.6h1V156h-1zM268.5 87.9h1v9.8h-1z"/><path transform="rotate(-66.359 364.777 213.533)" class="st9" d="M364.3 207.3h1v12.5h-1z"/><path transform="rotate(-37.383 315.2 233.111)" class="st9" d="M314.7 227.1h1v12h-1z"/><path transform="rotate(-15.528 388.415 116.356)" class="st9" d="M382.3 115.9h12.2v1h-12.2z"/><path class="st9" d="M306.3 448.2h-69.1v-52.6h1v51.6h67.1v-62.6h-67.6v-1h68.6z"/><path class="st9" d="M298 437.3h-50.9v-31h41v18.5h-30.3v-8.9h19.9v1h-18.9v6.9h28.3v-16.5h-39v29H297v-39.8h-59.3v-1H298z"/><path class="st9" d="M258.9 436.8h1v10.9h-1zM297.5 412.8h8.3v1h-8.3zM266.1 406.8h1v9.1h-1zM237.7 421.6h9.9v1h-9.9z"/></g><g id="Character"><path class="st8" d="m188.6 138.1-3.5.8-1.4 1.3 1.9.5 4.2-1.2z"/><path class="st11" d="m201.3 139.7-5.3-6.5h-5.4l-3.4 4s0 .3.2.6c-.6-.2-1.2-.1-1.9.2l3.1 8.2 5.9 5.9 7.5-2.1-.7-10.3zm-8.2 3-2.8-1.3s-.7-2-2-3.1h.3c.3 0 .6-.2 1-.4 2.4-1.2 3-1.4 3-1.4l1.5 2.8-1 3.4z"/><path class="st12" d="M197.2 137.7c-.1.1-.9-.8-1.8-2s-1.5-2.3-1.4-2.3c.1-.1.9.8 1.8 2s1.5 2.2 1.4 2.3zM193.1 142.7c0 .1-1.3-.3-3-.9h-.1v-.1c-.1-.5-.4-1.1-.6-1.6-.6-1.1-1.6-2-2.4-2.1-.8-.2-1.3.2-1.4.1l.3-.3c.2-.1.6-.3 1.1-.2 1 .1 2.1 1 2.8 2.3.3.6.5 1.2.7 1.7l-.2-.2c1.7.7 2.9 1.2 2.8 1.3z"/><path class="st8" d="m189.5 139.6 12.3-3.3c.5-.1.8-.6.6-1.1-.1-.4-.6-.7-1.1-.6l-13.1 3.6s.8.6 1.3 1.4z"/><path class="st11" d="m95 294 7.5-4 .3 2.8-3.8 14.1s-1.4-2-2.9-6.3c0 0-1.2-5.3-1.2-5.6 0-.5.1-1 .1-1"/><path class="st8" d="m156.2 441.2 1.3 30.1 16.3-.4-1.3-30.1z"/><path class="st7" d="M165.5 470c.1 0-.1-6.6-.6-14.7-.4-8.1-.9-14.7-1.1-14.7-.1 0 .1 6.6.6 14.7s1 14.7 1.1 14.7z"/><path class="st7" d="m157.4 469.2 16.3-.4.1 2.1-16.3.4zM173.4 461.3s-.1-.3-.4-.6c-.3-.4-.8-.9-1.5-1.5s-1.6-1.2-2.7-1.6c-1.1-.5-2.4-.8-3.8-.7-2.8.1-5.1 1.6-6.2 3-.6.7-.9 1.4-1.1 1.8-.2.5-.3.7-.2.7s.4-1 1.6-2.3c1.1-1.3 3.3-2.7 6-2.8 2.7-.1 4.9 1.1 6.3 2.1 1.2 1.1 1.9 2 2 1.9z"/><path d="m156.6 453.4.3 2.6h16.3l-.1-2.6z" class="st13"/><path class="st8" d="m101.5 443.3-.6 18.1s-18.2 6.9-18.3 10.3l35.5-.4.8-28.2-17.4.2z"/><path class="st2" d="M111.6 459.6c.7.2 1.2.9 1.1 1.6s-.9 1.2-1.6 1.1c-.7-.2-1.3-1.1-1.1-1.7.2-.7 1.2-1.2 1.8-.9"/><path class="st7" d="M118.1 471.2v-2.3L83.6 470s-1.1.7-1.2 1.8l35.7-.6zM100.5 461.5c0 .2.9.2 1.8.8.9.5 1.3 1.3 1.5 1.2.2 0-.1-1.1-1.2-1.7-1-.7-2.1-.5-2.1-.3zM96.8 463.1c0 .2.7.5 1.3 1.2.6.7.8 1.5 1 1.5s.3-1-.5-1.9c-.7-.9-1.8-.9-1.8-.8zM94.8 467.7c.2 0 .4-.8-.1-1.8s-1.3-1.3-1.4-1.2c-.1.1.4.6.8 1.4.5.8.5 1.6.7 1.6zM100.8 457.3c.1.2.9-.1 1.9-.1s1.8.3 1.9.2c.1-.1-.7-.8-1.8-.8-1.3-.1-2.1.5-2 .7zM100 453.3c0 .1.7.2 1.8-.1.5-.1 1.2-.3 1.9-.6.3-.2.7-.3 1-.6.2-.1.4-.2.5-.4.2-.2.3-.7.1-.9-.2-.3-.5-.4-.8-.4s-.5.1-.7.1c-.4.1-.8.2-1.1.4a5 5 0 0 0-1.6 1.1c-.8.8-1.1 1.4-1 1.5s.5-.5 1.3-1.2c.4-.3.9-.7 1.6-.9.3-.1.7-.3 1-.3.4-.1.7-.1.8 0v.2c-.1.1-.2.2-.4.3l-.9.6c-.6.3-1.2.6-1.7.7-1.1.4-1.8.4-1.8.5z"/><path d="m118.6 453.6-.1 4.1-17.5.3.1-3.8z" class="st13"/><path class="st11" d="m111.2 152.7 8.6 36.4 20.5-2.7-1.5-11.6s7.5.1 8.1-6.9c.2-2.3-1.6-12.7-3.4-22.1-1.7-9.1-10.5-14.9-19.6-13.1-9.1 1.9-14.8 10.9-12.7 20z"/><path class="st7" d="M130.1 131.4c1.8.6 1.3 1.5 1.7 2.3s1.9.7 3.4 1.3 5 3.4 5.9 5.1.4 2 .2 2.9c-.2 1 1.2 5.9 1.4 6.8.4 1.6 1.1 6.5 1.1 6.5l-1.5.8s-.8-5.3-2.5-5.3-2.2 1.8-2.2 2.3c0 .2-.9 1.2-1.1 2.5-.4 2.3-.2 5.7-.4 7.8-.3 3.3-3.9 8.2-3.9 8.2l-16 1.5s-7.2-16.4-7.7-20.7 1.2-10 3.6-13.9c.8-1.3 2.9-3.4 4.2-4.3 1.1-.8 2.4-1.5 3.6-2.2 2.7-1.4 5.8-1.9 8.9-1.8l1.3.2z"/><path class="st12" d="M142.5 162.4s0 .3-.3.6-.9.7-1.7.7-1.8-.4-2.5-1.2-1.1-1.9-1.3-3.1c-.3-2.4.1-4.5.9-5.9.4-.7.9-1.1 1.3-1.4.4-.2.6-.2.6-.2.1.1-.9.4-1.6 1.8-.6 1.3-1 3.4-.7 5.7.1 1.1.5 2.1 1.1 2.9.6.7 1.4 1.1 2.1 1.1.7 0 1.3-.2 1.6-.5.4-.3.5-.5.5-.5z"/><path class="st12" d="M140.6 160c0 .1-.3.3-.9 0-.5-.3-.9-1.1-.9-1.9 0-.9.3-1.6.7-2s.7-.6.7-.5c.1.1-.9 1-.9 2.5 0 .7.3 1.4.6 1.6.4.2.7.2.7.3z"/><path class="st7" d="m105.4 279.3-7.5 31.3v146.2l22.5.7 2-86.9 11.3-53.8 10.4 55.3 10.5 83.2 20.1-.6s-3.4-35.2-2.8-45.1c.6-9.8-3.5-40.8-3.5-40.8s.6-51.8-.4-58c-1.2-7-2.2-29.7-2.2-30.6l-60.4-.9z"/><path class="st8" d="M133.7 317.1c0 .1-1.4.3-3.6.8-2.3.5-5.4 1.2-8.7 2.2-3.4 1-6.4 2-8.5 2.9-2.2.8-3.5 1.4-3.5 1.3 0 0 .3-.2.9-.5s1.4-.7 2.5-1.1c2.1-.9 5.1-2 8.5-3s6.5-1.6 8.8-2c1.1-.2 2.1-.3 2.7-.4.5-.2.9-.2.9-.2z"/><path class="st8" d="M156.2 314.3s-.3.2-.8.4-1.3.5-2.3.8c-2 .6-4.8 1.3-7.9 1.7-3.2.4-6 .4-8.1.3-1-.1-1.9-.1-2.5-.2s-.9-.1-.9-.2 1.3 0 3.4 0c2.1 0 4.9-.1 8-.5s5.9-1 7.9-1.6c2-.3 3.2-.7 3.2-.7zM154.6 338.2c-.1.1-4.9-4.5-10.6-10.2-5.8-5.8-10.4-10.5-10.3-10.6.1-.1 4.9 4.5 10.6 10.2 5.8 5.8 10.4 10.5 10.3 10.6zM104 284.9l9.6-.3 1.2-5.1-9.4-.2zM117.9 279.5l-.9 5.4h33.8l.1-4.9zM153.8 280v4.9h12.1l-.2-4.7zM112.4 392.8c-.1 0-1.9-5.3-3.9-12s-3.5-12.1-3.4-12.2c.1 0 1.9 5.3 3.9 12s3.6 12.2 3.4 12.2zM159.3 387.9c-.1.1-2.3-3.1-4.9-7-2.6-4-4.6-7.2-4.5-7.3.1-.1 2.3 3.1 4.9 7s4.6 7.2 4.5 7.3z"/><path class="st9" d="M108 193.6s-13.1 5.5-14.7 11.2c-1.8 6.4-3.7 20.5-3.7 20.5v37.1s-2.8 12.5-2.3 17.8 6.2 14.6 6.2 14.6l9.2-4.5 2.9-13.1.5-39.8-1.1-19.7 3-24.1z"/><path class="st9" d="m108 193.6 8.7-6.9.4-5.9 22.4-3.8 2.5 5.1 10 2.7 6.7-2 1.6 3.8 8.4 25.6-6.3 37.6s3.7 20 3.3 30.4l-60.3-.8c-1.6-1.9-1.8-5.3-1.5-9.3l-.8-50.5 4.9-26z"/><path class="st7" d="M157.9 191.1s-.2.1-.5.1c-.4.1-.9.2-1.5.3-1.4.3-3.2.6-5.5 1.1-4.6.9-11 2.3-18.1 3.9-7 1.7-13.4 3.3-17.9 4.5-2.2.6-4.1 1.1-5.4 1.5-.6.2-1.1.3-1.5.4-.3.1-.5.1-.5.1s.2-.1.5-.2c.4-.1.9-.3 1.4-.5 1.3-.4 3.1-1 5.4-1.6 4.5-1.3 10.9-3 17.9-4.7 7-1.7 13.5-2.9 18.1-3.8 2.3-.4 4.2-.7 5.5-.9.6-.1 1.1-.2 1.5-.2h.6zM118.6 248.8s.4-.4 1.3-1.2 2.1-1.8 3.6-3.1c3.1-2.7 7.2-6.4 11.6-10.7 4.4-4.3 8.2-8.4 10.9-11.4 1.3-1.5 2.4-2.7 3.2-3.6.7-.8 1.2-1.3 1.2-1.3s-.3.5-1 1.4-1.7 2.2-3.1 3.7c-2.6 3.1-6.4 7.2-10.8 11.6-4.4 4.3-8.6 8-11.7 10.6-1.6 1.3-2.8 2.3-3.7 3-1 .7-1.5 1.1-1.5 1zM158.8 235.2s-.1.2-.3.4c-.3.3-.6.7-.9 1.1-.8 1-2.1 2.3-3.6 3.9-3.1 3.3-7.6 7.6-12.9 12-5.3 4.4-10.4 8-14.2 10.5-1.9 1.2-3.4 2.2-4.5 2.8-.5.3-.9.5-1.3.7-.3.2-.4.2-.5.2 0 0 .1-.1.4-.3.3-.2.7-.5 1.2-.8 1.1-.7 2.6-1.7 4.4-3 3.7-2.5 8.8-6.2 14.1-10.6s9.8-8.7 13-11.8c1.6-1.6 2.9-2.9 3.7-3.8.4-.4.7-.8 1-1 .3-.2.4-.4.4-.3zM146.9 274.9c-.1-.1 2.3-2.8 4.2-6.8s2.6-7.6 2.7-7.5c.1 0 0 .9-.3 2.3s-.9 3.4-1.9 5.4-2.1 3.7-3 4.9c-1 1.1-1.6 1.7-1.7 1.7z"/><path class="st9" d="m159 184.4 22.6-.9 11-5.3 1.2-15.4-1-10.9 9.5-2.8s7.9 20.3 7.6 27.6c-.1 2.5-.2 4.9-.4 7.1-.3 4.5-3 8.6-7 10.7l-33.9 17.8-9.6-27.9"/><path class="st7" d="M105 227.6c-.1 0-.7-2-1.3-4.5-.6-2.5-.9-4.6-.8-4.6s.7 2 1.3 4.5.9 4.6.8 4.6z"/><path class="st7" d="M104.8 220.2s0 .2.1.6c0 .5.1 1 .1 1.7.1 1.6.1 3.7.2 6.4.1 5.5.3 12.9.6 21.1.1 4.1.2 8.1-.3 11.6-.2 1.8-.7 3.4-1 5-.1.8-.2 1.5-.2 2.3-.1.7-.1 1.4-.1 2.1-.2 2.7-.2 4.9.2 6.3.1.7.4 1.2.6 1.6.2.3.4.4.4.5l-.1-.1-.3-.3c-.2-.3-.6-.8-.7-1.6-.4-1.5-.5-3.7-.3-6.4 0-.7.1-1.4.1-2.1s0-1.5.1-2.3c.3-1.6.7-3.2.9-5 .5-3.5.3-7.4.2-11.6-.2-8.2-.3-15.6-.4-21.1 0-2.6 0-4.8-.1-6.4v-2.3zM166.1 203.9c-.1 0-.5-.9-1.1-2.5s-1.4-3.7-2.1-6.1c-.8-2.4-1.4-4.6-1.9-6.2-.4-1.6-.7-2.6-.6-2.6.1 0 .4 1 .9 2.5.6 1.8 1.2 3.9 2 6.2.7 2.3 1.4 4.4 2 6.2.5 1.5.8 2.5.8 2.5zM98.2 269.3c0 .1-2.1-.7-3.8-2.8-1.7-2.1-2.1-4.3-2-4.3.2-.1.8 2 2.4 3.9 1.6 2 3.5 3 3.4 3.2zM105.3 284.6s-.4.8-1.4 1.8-2.6 2.2-4.7 2.9c-2.1.7-4.1.9-5.5.7-1.4-.1-2.2-.4-2.2-.5s.9.1 2.2.1c1.4 0 3.3-.2 5.3-.9s3.6-1.8 4.6-2.7c1.1-.7 1.7-1.4 1.7-1.4zM204.3 154.9c0 .2-2.5.5-5.4 1.5s-5.1 2.2-5.2 2c-.1-.1 2.1-1.5 5.1-2.5 2.9-1 5.5-1.1 5.5-1zM201.3 150.8c0 .1-.2.2-.3.5s.1.7.5.6c.4-.1.5-.5.3-.8-.2-.2-.4-.2-.5-.3 0-.1.4-.2.7.1.2.1.4.4.3.8 0 .4-.4.7-.8.7-.4.1-.8-.1-1-.4-.2-.3-.1-.6 0-.8.5-.5.9-.4.8-.4zM142.1 182s-.3.1-1 .3c-.8.1-1.7.3-2.7.5-2.4.4-5.5 1-8.9 1.6-3.4.6-6.5 1.2-8.9 1.7-1.1.2-2 .4-2.7.5-.6.1-1 .1-1 .1s.3-.1 1-.3c.6-.2 1.5-.4 2.7-.7 2.3-.5 5.4-1.2 8.9-1.8s6.7-1.2 9-1.5c1.2-.2 2.1-.3 2.7-.4h.9zM101.6 217.3s-.1-.3-.2-.8-.2-1.2-.3-2.2c-.1-1.8 0-4.4.2-7.2.3-2.8.7-5.3.9-7.1.3-1.8.4-2.9.5-2.9s.1 1.1-.1 3c-.2 1.8-.5 4.4-.8 7.1-.3 2.8-.4 5.3-.4 7.1.1 1.9.2 3 .2 3zM126.2 235.9c-.1-.1 3.1-6.4 7.2-14.2 4.1-7.8 7.5-14 7.6-13.9s-3.1 6.4-7.2 14.2c-4.1 7.7-7.5 14-7.6 13.9zM173.2 200.1c.1 0-.3.9-.9 2.2-.6 1.3-1.3 3.2-2 5.3s-1.2 4.1-1.5 5.5-.5 2.3-.6 2.3 0-.9.2-2.4c.2-1.4.7-3.4 1.4-5.6.7-2.1 1.5-4 2.1-5.3.8-1.2 1.3-2 1.3-2z"/><path class="st2" d="M99.8 212.2s-.5.1-1.3.3-1.9.5-3.1.8c-1.2.4-2.3.7-3 1-.8.3-1.3.4-1.3.4s.4-.2 1.2-.5c.8-.3 1.8-.7 3-1 1.2-.4 2.3-.6 3.1-.8.8-.1 1.3-.2 1.4-.2zM136.8 214.2c0 .1-7.1 2.2-15.9 4.7s-15.9 4.5-15.9 4.5c0-.1 7.1-2.2 15.9-4.7s15.9-4.5 15.9-4.5zM165.8 205.8c0 .1-6.3 2.4-14.2 5.2s-14.2 5.1-14.3 5c0-.1 6.3-2.4 14.2-5.2s14.3-5.1 14.3-5zM163.1 195.5s-.2.1-.6.2c-.5.1-1.1.3-1.8.5-1.6.4-3.9 1-6.6 1.7-5.6 1.5-13.3 3.5-21.8 5.6s-16.3 3.9-21.9 5.2c-2.8.6-5 1.1-6.7 1.4-.7.2-1.3.3-1.8.4-.4.1-.6.1-.6.1s.2-.1.6-.2c.5-.1 1.1-.2 1.8-.4 1.6-.4 3.9-.9 6.7-1.5 5.6-1.3 13.4-3.1 21.9-5.2 8.5-2.1 16.2-4.1 21.8-5.5 2.7-.7 5-1.3 6.6-1.7.7-.2 1.3-.3 1.8-.4.4-.1.6-.2.6-.2zM150.6 184c0 .1-9.5 2.5-21.2 5.4s-21.3 5.2-21.3 5.2c0-.1 9.5-2.5 21.2-5.4 11.8-2.9 21.3-5.3 21.3-5.2zM172.1 184.4v.2c0 .2 0 .4.1.5.1.5.1 1.1.2 2 .1 1.7.1 4 0 6.6-.2 2.6-.5 4.9-.8 6.5-.2.8-.3 1.5-.4 1.9 0 .2-.1.4-.1.5s-.1.2-.1.2v-.2c0-.2.1-.3.1-.5.1-.6.2-1.2.4-2 .3-1.7.6-4 .8-6.5.2-2.6.1-4.9.1-6.6 0-.7-.1-1.4-.1-2v-.5c-.3 0-.3-.1-.2-.1zM187.5 201.7v-.2c0-.2 0-.4-.1-.5-.1-.5-.2-1.2-.3-2-.3-1.7-.7-4-1.5-6.5-.7-2.5-1.6-4.7-2.3-6.3-.3-.8-.6-1.4-.8-1.8-.1-.2-.2-.3-.2-.5-.1-.1-.1-.2-.1-.2s0 .1.1.2c.1.2.2.3.3.5l.9 1.8c.7 1.6 1.6 3.8 2.4 6.3.7 2.5 1.2 4.8 1.4 6.5.1.8.2 1.5.2 2v.7c0-.1 0 0 0 0zM200.4 194s-.1-.2-.3-.7-.4-1.1-.7-1.8c-.6-1.5-1.4-3.6-2.5-5.8s-2.2-4.1-3.1-5.5c-.4-.6-.7-1.1-1-1.6-.2-.4-.4-.6-.4-.6s.2.2.4.6c.3.4.6.9 1.1 1.6.9 1.3 2 3.3 3.1 5.5s1.9 4.3 2.5 5.8c.3.8.5 1.4.6 1.8.2.5.3.7.3.7zM209 173.5s-.2 0-.6-.1c-.5-.1-1.1-.2-1.7-.3-1.4-.2-3.4-.6-5.5-.9-2.2-.3-4.1-.5-5.6-.6-.6-.1-1.2-.1-1.7-.2-.4 0-.6-.1-.6-.1h.6c.4 0 1 0 1.7.1 1.4.1 3.4.3 5.6.6 2.2.3 4.1.6 5.5.9.7.1 1.3.3 1.7.4.4.1.6.2.6.2zM206.6 159.8h-1.9c-1.1 0-2.7.1-4.4.4-1.7.3-3.2.7-4.3 1.1-.5.2-1 .3-1.3.4-.3.1-.5.2-.5.2l.4-.2c.3-.1.7-.3 1.3-.5 1.1-.4 2.6-.9 4.3-1.1 1.7-.3 3.3-.4 4.5-.3.6 0 1 0 1.4.1.3-.1.5-.1.5-.1zM127.6 231c0 .1-4.9 1.2-11 2.6-6.1 1.4-11.1 2.4-11.1 2.4 0-.1 4.9-1.2 11-2.6 6.1-1.4 11.1-2.4 11.1-2.4zM134.6 233.5c0 .1-1.6 0-3.5-.1s-3.5-.3-3.5-.3c0-.1 1.6 0 3.5.1s3.5.3 3.5.3zM166.8 221.2c0 .1-5.7 1.6-12.8 3.4-7.1 1.8-12.8 3.3-12.8 3.2s5.7-1.6 12.8-3.4c7-1.8 12.8-3.2 12.8-3.2zM118.9 247.7c0 .1-2.9.6-6.4 1.2-3.6.6-6.4 1.1-6.5 1 0-.1 2.9-.6 6.4-1.2 3.6-.6 6.5-1.1 6.5-1zM153 240c0 .1-6.5 1.1-14.6 2.4-8.1 1.3-14.6 2.3-14.6 2.2s6.5-1.1 14.6-2.4c8.1-1.3 14.6-2.2 14.6-2.2zM164.2 241s-.2 0-.4.1c-.4 0-.8.1-1.2.1-1 .1-2.4.2-4 .4s-3 .4-4 .6c-.4.1-.8.1-1.2.2-.3 0-.4.1-.4 0 0 0 .2-.1.4-.1.3-.1.7-.2 1.2-.3 1-.2 2.4-.4 4-.6 1.6-.2 3-.3 4-.4h1.2c.3-.1.4-.1.4 0zM130 260.1s-.1 0-.2.1c-.2.1-.4.2-.7.3-.6.3-1.5.6-2.6 1-2.2.8-5.4 1.7-8.9 2.5-3.5.7-6.8 1.1-9.2 1.3-1.2.1-2.1.1-2.8.1h-1.1 1.1c.7 0 1.6-.1 2.8-.2 2.4-.2 5.6-.6 9.1-1.3 3.5-.7 6.7-1.6 8.9-2.4 1.1-.4 2-.7 2.6-.9.3-.1.5-.2.7-.3.2-.1.3-.2.3-.2zM164.2 254.5s-.1.1-.4.1c-.3.1-.6.2-1.1.4-.9.3-2.2.7-3.9 1.3-3.3 1-7.9 2.3-13 3.5s-9.8 2.1-13.3 2.6c-1.7.3-3.1.5-4.1.6-.4.1-.8.1-1.1.1h-.4s.1 0 .4-.1.7-.1 1.1-.2c1-.2 2.4-.4 4-.7 3.4-.6 8.1-1.5 13.2-2.7 5.1-1.2 9.7-2.5 13.1-3.5 1.6-.5 2.9-.9 3.9-1.2.4-.1.8-.2 1.1-.3.4.1.5.1.5.1zM148.8 271.4s-.2 0-.4.1c-.4.1-.8.1-1.3.2-1.1.2-2.7.4-4.7.7-4 .5-9.5 1.1-15.6 1.5-6.1.3-11.7.3-15.7.2-2-.1-3.6-.1-4.8-.2-.5 0-.9-.1-1.3-.1h-.4 1.8c1.1 0 2.7.1 4.8.1 4 .1 9.6 0 15.7-.3s11.6-.9 15.6-1.4c2-.3 3.6-.5 4.7-.6.5-.1.9-.1 1.3-.2h.3zM164.8 269.1h-7c-1.9 0-3.7.1-4.9.2-.5 0-1 0-1.5.1h-.6s.2 0 .5-.1c.4 0 .9-.1 1.5-.1 1.3-.1 3-.2 5-.2 1.9 0 3.7 0 5 .1.6 0 1.1.1 1.5.1.3-.1.5-.1.5-.1zM105.1 229.2c0 .1-3.6.7-8 1.5s-8 1.4-8 1.3 3.6-.7 8-1.5 8-1.4 8-1.3zM104.6 244.8c0 .1-3.3.4-7.5.8-4.1.4-7.5.7-7.5.6 0-.1 3.3-.4 7.5-.8 4.1-.3 7.5-.6 7.5-.6zM105.9 257.5c0 .1-3.5.2-7.7.3-4.3.1-7.7.2-7.7.1s3.5-.2 7.7-.3c4.2-.1 7.7-.2 7.7-.1zM103 273h-.6c-.4 0-.9 0-1.5-.1-1.3-.1-3.1-.4-5-.9s-3.6-1.1-4.8-1.6c-.6-.3-1.1-.5-1.4-.7s-.5-.3-.5-.3.2.1.5.2.8.3 1.4.6c1.2.5 2.9 1.1 4.8 1.6s3.7.8 5 .9c.6.1 1.2.1 1.5.2.4.1.6.1.6.1zM103.8 277.3s-.2.2-.5.4c-.3.3-.8.6-1.5 1-1.3.8-3.1 1.9-5.1 2.9-2.1 1-4.1 1.7-5.5 2.1-.7.2-1.3.4-1.7.5-.4.1-.6.1-.6.1s.2-.1.6-.2 1-.3 1.7-.5c1.4-.5 3.4-1.2 5.5-2.2s3.9-2 5.2-2.8c.6-.4 1.1-.7 1.5-1 .2-.2.4-.3.4-.3z"/><path class="st2" d="M114.4 280.4v-.8c0-.6 0-1.3.1-2.3.1-2 .2-4.9.3-8.4.2-7.1.4-16.9.3-27.8-.1-10.8-.4-20.7-.7-27.7-.2-3.5-.3-6.4-.4-8.4 0-1-.1-1.7-.1-2.3v-.8s0 .3.1.8c0 .6.1 1.3.1 2.3.1 2 .3 4.9.5 8.4.3 7.1.7 16.9.7 27.8.1 10.8-.1 20.7-.4 27.8-.1 3.6-.2 6.4-.3 8.4 0 1-.1 1.7-.1 2.3-.1.4-.1.7-.1.7zM132.1 224.5c-.1 0-.8-5.8-1.7-13.1-.9-7.2-1.6-13.1-1.5-13.1s.8 5.8 1.7 13.1c.8 7.2 1.5 13 1.5 13.1zM130.5 236.3c-.1 0-.4-1.7-.7-3.9s-.5-3.9-.5-4 .4 1.7.7 3.9.5 4 .5 4zM134.5 257.8c-.1 0-.1-5.1-.2-11.3-.1-6.2-.1-11.3 0-11.3s.1 5.1.2 11.3c.1 6.2.1 11.3 0 11.3zM134.2 280c-.1 0-.7-4.6-1.5-10.2s-1.3-10.2-1.3-10.2c.1 0 .7 4.6 1.5 10.2.8 5.7 1.4 10.2 1.3 10.2zM154 237c-.1 0-1.6-9.4-3.4-20.9-1.8-11.6-3.3-21-3.2-21s1.6 9.4 3.4 20.9c1.8 11.6 3.2 21 3.2 21zM151.5 264.3c-.1 0-.6-4.2-1.2-9.3-.6-5.1-1-9.3-1-9.3.1 0 .6 4.2 1.2 9.3.6 5.1 1.1 9.3 1 9.3zM195.7 182.9s-1.4 1.4-4 3.2c-1.3.9-2.9 1.9-4.8 2.9s-4 1.9-6.2 2.8c-2.3.8-4.5 1.4-6.6 1.9-2.1.4-3.9.7-5.5.8-3.2.3-5.1.1-5.1.1h1.4c.9 0 2.2-.1 3.7-.2 1.6-.1 3.4-.4 5.5-.8 2-.4 4.3-1.1 6.5-1.9 2.3-.8 4.4-1.8 6.2-2.7 1.8-1 3.5-2 4.8-2.9s2.3-1.7 3-2.2c.3-.2.6-.4.8-.6.2-.3.3-.4.3-.4zM195.8 182.9v-.3c0-.2 0-.5.1-.8.1-.8.2-1.7.3-2.8.2-2.3.5-5.6.7-9.1.2-3.6.2-6.8.2-9.2V156.8v1.1c0 .7.1 1.6.1 2.8.1 2.3.1 5.6-.1 9.2-.2 3.6-.5 6.8-.7 9.2-.1 1.2-.3 2.1-.3 2.8 0 .3-.1.5-.1.7l-.2.3z"/><path class="st2" d="M204.2 156.3s.1.2.2.7c.1.5.2 1.1.4 2 .4 1.7 1.1 4.2 1.9 7.3.8 3.1 1.7 6.9 1.3 11.1-.2 2.1-.7 4.3-1.7 6.4-1.1 2.1-2.7 3.9-4.6 5.4-1.9 1.5-4 2.7-6 3.9s-3.9 2.3-5.7 3.4c-3.7 2.1-7 3.9-9.8 5.4s-5.1 2.7-6.7 3.5l-1.8.9-.6.3.6-.3c.5-.2 1.1-.6 1.8-.9 1.6-.8 3.9-2 6.7-3.5s6.1-3.4 9.8-5.5c1.8-1.1 3.7-2.2 5.7-3.4s4-2.4 5.9-3.9 3.6-3.3 4.6-5.3c1.1-2 1.5-4.2 1.7-6.3.3-4.2-.5-8-1.3-11.1s-1.5-5.6-1.9-7.3c-.4-1.8-.5-2.8-.5-2.8zM93.4 262.3v-.6c0-.5.1-1 .1-1.8.1-1.6.3-3.8.5-6.5.4-5.5 1-13.1 1.5-21.5s.8-16 1-21.5c.1-2.7.2-4.9.2-6.5 0-.7 0-1.3.1-1.8v-.6 2.4c0 1.6-.1 3.8-.1 6.5-.1 5.5-.4 13.1-.9 21.5s-1 16-1.5 21.5c-.2 2.7-.4 4.9-.6 6.5-.1.7-.1 1.3-.2 1.8 0 .4-.1.6-.1.6zM96.1 291s0-.1-.1-.2c-.1-.2-.1-.5-.2-.7-.2-.6-.4-1.5-.7-2.6-.6-2.2-1.2-5.4-1.6-8.9s-.5-6.7-.5-9c0-1.2 0-2.1.1-2.7v-1 3.7c0 2.3.1 5.5.6 9 .4 3.5 1 6.6 1.6 8.9.3 1.1.5 2 .7 2.7.1.3.1.5.2.7l-.1.1zM102.5 288v-2.7c0-1.8 0-4.3.1-7.4 0-6.2.1-14.9 0-24.4s-.2-18.2-.4-24.4c-.1-3.1-.1-5.6-.2-7.4V219v.7c0 .5 0 1.2.1 2 .1 1.8.1 4.3.2 7.4.2 6.2.4 14.9.4 24.4.1 9.5 0 18.2-.1 24.4-.1 3.1-.1 5.6-.1 7.4 0 .8 0 1.5-.1 2 .1.5.1.7.1.7zM114.8 201.3c-.1 0-.2-2.8-.4-6.3s-.3-6.3-.2-6.3c.1 0 .2 2.8.4 6.3.2 3.4.3 6.3.2 6.3zM129.6 197.1c-.1 0-.3-2.9-.6-6.4-.3-3.6-.5-6.4-.4-6.4s.3 2.9.6 6.4c.3 3.5.5 6.4.4 6.4zM145.7 193.4c-.1 0-.9-2.6-1.8-5.9-.9-3.3-1.7-5.9-1.6-5.9.1 0 .9 2.6 1.8 5.9 1 3.3 1.7 5.9 1.6 5.9zM140.4 178.8s-.1 0-.2.1c-.2 0-.4.1-.7.1-.7.1-1.6.3-2.6.5-2.2.4-5.2.9-8.5 1.6-3.3.7-6.3 1.4-8.4 1.9-1 .2-1.8.4-2.5.6-.3.1-.5.1-.7.2-.2 0-.2.1-.2 0 0 0 .1 0 .2-.1.2-.1.4-.1.7-.2.7-.2 1.6-.4 2.5-.7 2.1-.6 5.1-1.3 8.4-2s6.3-1.2 8.5-1.6c1-.1 1.9-.3 2.6-.4.3 0 .5-.1.7-.1.1.1.2.1.2.1z"/><path class="st2" d="M120.8 186.1c-.1 0-.1-1.3-.1-2.9 0-1.6.1-2.9.1-2.9.1 0 .1 1.3.1 2.9s-.1 2.9-.1 2.9zM135.5 183.5c-.1 0-.3-1.1-.6-2.6-.3-1.4-.4-2.6-.4-2.6.1 0 .3 1.1.6 2.6.3 1.4.4 2.6.4 2.6z"/></g><path class="st7" d="M473.4 471.3c0 .1-98.7.3-220.4.3s-220.4-.1-220.4-.3c0-.1 98.7-.3 220.4-.3 121.7.1 220.4.2 220.4.3z" id="Floor"/><path class="st8" d="M370.9 142.6c-1.1-1.1-2.8-1.6-4.8-1.4l-12.4-.2c-2 .1-3.9-.4-5.5-1.5-1.6-1-2.8-2.6-3.4-4.4l-.5-1.6c-1-3.2-2.1-6.6-3.3-9.8-.8-2-1.6-3.8-2.5-5.4-.5-.9-1-1.7-1.5-2.5-.5-.9-1.1-1.7-1.6-2.5-8.4-12.4-20.7-22-34.6-27-12.1-4.4-25.6-5.8-39.2-4.1-5.9.7-11.7 2.1-17.4 4l-4 1.4c-.8.3-1.7.7-2.5 1-.4.2-.9.4-1.3.6-2.4 1-4.8 2.3-7.1 3.7-4.3 2.6-8.1 5.8-11.4 9.4-1.5 1.7-2.9 3.5-4.2 5.3-1.1 1.6-2.1 3.3-3.3 5.4-1.5 2.7-2.8 5.2-4.1 7.7-.4.8-.8 1.6-1.2 2.3-.3.5-.6 1.1-.9 1.6-1.3 2.4-2.4 4.6-3.8 6.5-3.9 5.5-8.1 7.3-9.7 7.8-.5.2-.9.3-1.4.4-.2 0-.3.1-.4.1-.2 0-.4.1-.6.1-.3 0-.5.1-.8.1-.8 0-1.1.1-1.1.1-.2 0-.4.2-.3.4 0 .2.2.4.4.4h1.1c.3 0 .5-.1.9-.1.2 0 .4-.1.6-.1.1 0 .3-.1.4-.1.4-.1.9-.2 1.5-.4 1.7-.5 6.1-2.4 10.2-8.1 1.4-1.9 2.6-4.2 3.9-6.6.3-.5.6-1.1.9-1.6l1.2-2.4c1.3-2.4 2.6-4.9 4-7.6 1.2-2.1 2.2-3.8 3.2-5.3 1.2-1.8 2.6-3.6 4.1-5.2 3.2-3.5 6.9-6.6 11.2-9.2 2.2-1.4 4.6-2.6 7-3.6.4-.2.9-.4 1.3-.6.8-.3 1.6-.7 2.4-1l3.9-1.4c5.6-1.8 11.3-3.2 17.1-3.9 13.4-1.7 26.7-.3 38.6 4.1 13.7 5 25.8 14.5 34 26.6.5.7 1.1 1.6 1.6 2.4s1 1.6 1.5 2.5c.9 1.6 1.6 3.3 2.4 5.3 1.2 3.1 2.2 6.3 3.3 9.7l.5 1.6c.7 2 2.1 3.8 3.9 5 1.7 1.2 3.9 1.8 6.2 1.7l12.5.2c.9-.1 2.7 0 3.8 1.1 1.1 1 1.2 2.6 1.2 3.8 0 .6 0 1.1-.1 1.7 0 1-.1 2-.1 3-.1.6-.1 1.1-.1 1.7l-.3 3c-.7 6.2-1.9 12.5-3.7 18.7-3.5 12.5-9 24.6-16.2 35.9-4.4 7-9.2 13.1-14.2 18.4-2.4 2.5-5 5-8.4 7.7-2.8 2.2-5.9 4.4-9.3 6.4-6 3.5-12.6 6.4-20.3 9l-1.4.5c-1.2.4-2.5.8-3.8 1.2l-2.6.8c-1 .3-1.9.7-2.6 1.2-1.6 1-3 2.6-3.7 4.4-.4.9-.6 1.8-.7 2.8v2.7c0 20.4-.5 39.7-.9 58.4-.2 7.3-.4 14.5-.5 21.5 0 1.7.1 3.2.5 4.7s.9 3.1 2.3 4.2c1.3 1 3.2 1.2 4.8.4.8-.4 1.4-.9 1.9-1.5s.8-1.2 1.1-2.1c.9-2.5 1-5.1 1.1-7.5v-1.1c.1-2.7 0-5.4 0-8V326.7c.1-2.4.1-4.9.6-7.2.1-.5.3-1.1.6-1.5.3-.4.8-.7 1.3-.9.6-.3 2-.8 3-.1.7.5 1.1 1.4 1.3 2.8.1.8.1 1.6 0 2.4v1.1l-.6 46.5c-.1 1.2-.2 2.3 0 3.3.2 1.3.5 2.3 1.2 3.1.4.4.9.7 1.5.8.5.1 1 .1 1.4.1.9.1 1.8.1 2.7.1h.6c2.9 0 5.5-.1 7.5-.2l5.7-.2c1.2-.1 1.8-.1 1.8-.1.2 0 .4-.2.3-.4 0-.2-.2-.3-.4-.4 0 0-.6 0-1.8.1l-5.9.2c-2.1.1-4.8.1-7.9.1-.9 0-1.7 0-2.6-.1h-.4c-.7 0-1.5-.1-1.9-.6-.5-.6-.8-1.4-.9-2.5-.1-1-.1-2 .1-3.2l.7-46.6v-3.7c-.1-.7-.2-1.4-.4-1.9-.3-.8-.8-1.3-1.3-1.7-.6-.4-1.4-.6-2.1-.5-.6 0-1.3.2-2 .5s-1.3.7-1.7 1.3c-.5.6-.7 1.3-.8 2-.5 2.4-.6 4.9-.6 7.4v17.8c-.1 2.4-.2 4.9-1 7.2-.5 1.4-1.4 2.4-2.5 2.9-1.2.6-2.6.5-3.6-.3-1.1-.9-1.6-2.5-1.9-3.6-.3-1.3-.4-2.8-.4-4.4.1-6.8.3-13.8.5-21 .5-18.8 1-38.2 1-58.9v-2.6c.1-.8.3-1.7.6-2.4.7-1.5 1.8-2.9 3.2-3.8.7-.4 1.4-.8 2.3-1l2.6-.8c1.3-.4 2.6-.8 3.8-1.2l1.4-.5c7.8-2.6 14.5-5.6 20.6-9.1 3.4-2 6.6-4.2 9.5-6.5 3.4-2.8 6.2-5.3 8.5-7.8 5.1-5.3 9.9-11.5 14.4-18.6 7.3-11.4 12.8-23.7 16.4-36.3 1.8-6.3 3-12.7 3.7-18.9.1-1 .2-2 .3-3.1 0-.6.1-1.1.1-1.7.1-1 .1-2 .1-3 0-.6 0-1.1.1-1.7.1-1.2 0-3.3-1.5-4.8z" id="Line"/></svg>