<svg xmlns="http://www.w3.org/2000/svg" viewBox="0 0 500 500" style="enable-background:new 0 0 500 500" xml:space="preserve"><style>.st0,.st1,.st2{opacity:.1;fill:#ebebeb}.st1,.st2{fill:#fafafa}.st2{fill:#e0e0e0}.st3{fill:#f5f5f5}.st3,.st4{opacity:.1}.st5{fill:#e0e0e0}.st6{fill:#f5f5f5}.st7{fill:#ebebeb}.st8{fill:#fafafa}.st11{fill:#7879e8}.st12{fill:#263238}.st13{fill:#fff}.st14{fill:#c69481}.st15{fill:#936457}.st16{opacity:.6}.st17{fill:#455a64}.st18{opacity:.3}</style><g id="Background_Complete"><path class="st0" d="M43.5 41.3h147v264h-147z"/><path class="st1" d="M49.4 48.9h133.7v248.5H49.4z"/><path class="st2" d="m196.7 307.7-6.2-2.4V36.8h6.2z"/><path class="st3" d="M82.2 209.4c11.6-10.8 23.1-21.5 34.7-32.3 4.4-4.1 10.2-8.5 15.8-6.5 2.7 1 4.8 3.3 7.4 4.4 5.3 2.2 11.4-1 15.5-5.1s7.3-9.2 12.3-12.1c5-2.9 12.7-2.6 15.1 2.7v35.1l-50.5 21.6-50.3-7.8z"/><path class="st2" d="M49.4 189.2c12.8-5.2 25.6-.8 34.7 9.6 1.9 2.2 3.7 4.7 6.3 5.9 3.6 1.6 7.7.4 11.6 0 10.7-1.2 21.9 4.2 27.5 13.4l-42.7 21-37.5-.3v-49.6z"/><path class="st0" d="M183.1 189.4c-8.4-4.1-15.8.9-23.6 6.1-7.8 5.2-15 11.9-24.1 14-6.1 1.4-12.6.6-18.5 2.7-12 4.3-18.9 19.5-31.7 20.2-6.9.4-13.1-3.8-19.3-6.9-6.2-3.1-11-6.1-16.5-1.9v73.8h133.7v-108z"/><path class="st2" d="M49.4 120.4H186v2.6H49.4zM49.4 179.6H186v2.6H49.4zM49.4 238.8H186v2.6H49.4z"/><path transform="rotate(-90 116.238 213.1)" class="st2" d="M24.9 209.7h182.7v6.8H24.9z"/><path class="st2" d="M75.1 48.9h3.1v72.8h-3.1zM101.5 48.9h3.1v72.8h-3.1zM127.9 48.9h3.1v72.8h-3.1zM154.3 48.9h3.1v72.8h-3.1zM37.3 36.8h6.2v270.1h-6.2z"/><path class="st2" d="M37.3 34.1h159.4v7.2H37.3zM32.9 308.6h168v6.7h-168z"/><path class="st0" d="m190.5 305.3 10.4 3.3h-168l10.6-3.3z"/><g class="st4"><path class="st5" d="M192.2 382.7c1.3-.8 2.6-1.4 4-1.8l.8-4 6.7-.2 1 3.9c1.4.3 2.8.9 4.1 1.6l3.4-2.3 4.9 4.6-2.1 3.5c.8 1.3 1.4 2.6 1.8 4l4 .8.2 6.7-3.9 1c-.3 1.4-.9 2.8-1.6 4.1l2.3 3.4-4.6 4.9-3.5-2.1c-1.3.8-2.6 1.4-4 1.8l-.8 4-6.7.2-1-3.9c-1.4-.3-2.8-.9-4.1-1.6l-3.4 2.3-4.9-4.6 2.1-3.5c-.8-1.3-1.4-2.6-1.8-4l-4-.8-.2-6.7 3.9-1c.3-1.4.9-2.8 1.6-4.1l-2.3-3.4 4.6-4.9 3.5 2.1zm3.7 9c-2.7 2.9-2.6 7.5.3 10.2 2.9 2.7 7.5 2.6 10.2-.3 2.7-2.9 2.6-7.5-.3-10.2-2.9-2.7-7.5-2.6-10.2.3z"/></g><path class="st2" d="M195.9 391.7s.4-.5 1.3-1.2c.9-.6 2.6-1.4 4.7-1.1 1 .1 2.2.4 3.2 1.1 1 .7 2 1.6 2.6 2.9.3.6.5 1.3.7 2 .1.7.2 1.5.1 2.2-.2 1.5-.9 3-2 4.2-1.1 1.2-2.6 1.9-4.1 2.2-.7.1-1.5.2-2.2.1-.7-.1-1.4-.3-2.1-.6-1.3-.5-2.3-1.5-3-2.5-.7-1-1.1-2.1-1.3-3.1-.3-2.1.3-3.8.9-4.7.6-1.1 1.2-1.5 1.2-1.5s-.4.5-1 1.5c-.5 1-1.1 2.6-.8 4.6.2 1 .6 2 1.3 3 .7.9 1.7 1.8 2.9 2.3.6.3 1.3.4 1.9.5.7.1 1.4.1 2.1-.1 1.4-.2 2.8-1 3.8-2.1s1.7-2.5 1.9-3.9c.1-.7.1-1.4 0-2.1-.1-.7-.3-1.3-.6-1.9-.6-1.2-1.5-2.1-2.5-2.8-1-.7-2.1-1-3.1-1.1-2-.2-3.6.4-4.6 1-.9.6-1.3 1.1-1.3 1.1z"/><path class="st2" d="M192.2 382.7s-.1 0-.2-.1c-.2-.1-.4-.2-.7-.4-.6-.4-1.5-.9-2.6-1.5h.1c-1.2 1.3-2.7 2.9-4.6 4.9v-.1c.7 1 1.4 2.2 2.3 3.4v.2c-.7 1.2-1.2 2.6-1.6 4.1v.1h-.1c-1.2.3-2.6.7-3.9 1l.1-.1c.1 2.1.1 4.4.2 6.7l-.1-.2c1.2.2 2.6.5 4 .8h.1v.1c.4 1.3 1 2.7 1.8 4l.1.1-.1.1c-.6 1.1-1.4 2.3-2.1 3.5v-.2c1.5 1.5 3.2 3 4.9 4.6h-.2c1.1-.7 2.2-1.5 3.4-2.3l.1-.1.1.1c1.2.7 2.6 1.2 4 1.6h.1v.1c.3 1.2.7 2.6 1 3.9l-.2-.2c2.1-.1 4.4-.1 6.7-.2l-.2.2c.3-1.3.5-2.6.8-4v-.1h.1c1.3-.4 2.7-1 4-1.8l.1-.1.1.1c1.2.7 2.3 1.4 3.5 2.1h-.3c1.6-1.6 3.1-3.3 4.6-4.9v.3c-.8-1.1-1.5-2.3-2.3-3.4l-.1-.1.1-.1c.7-1.3 1.2-2.6 1.6-4v-.1h.1c1.3-.3 2.6-.7 3.9-1l-.1.2c-.1-2.3-.1-4.5-.2-6.7l.2.2c-1.4-.3-2.7-.5-4-.8h-.1v-.1c-.4-1.4-1-2.8-1.8-4l-.1-.1.1-.1c.7-1.2 1.4-2.4 2.1-3.5v.2c-1.7-1.6-3.3-3.2-4.9-4.6h.2c-1.2.8-2.3 1.5-3.4 2.2h-.2c-1.4-.7-2.7-1.3-4.1-1.6h-.1v-.1c-.4-1.4-.7-2.7-1-3.9l.1.1c-2.6.1-4.8.1-6.7.1l.1-.1c-.3 1.6-.6 2.9-.8 4-1.4.4-2.4.9-3.1 1.2-.3.2-.5.3-.7.4h-.1l.2-.2c.2-.1.4-.2.7-.4.6-.3 1.6-.8 3.1-1.3v.1c.2-1.1.5-2.4.8-4v-.1h.1c1.9-.1 4.1-.1 6.7-.2h.1v.1c.3 1.2.6 2.5 1 3.9l-.1-.1c1.4.3 2.7.8 4.1 1.6h-.2c1.1-.7 2.2-1.5 3.4-2.3l.1-.1.1.1c1.5 1.5 3.2 3 4.9 4.6l.1.1-.1.1c-.7 1.1-1.4 2.3-2.1 3.5v-.2c.8 1.2 1.4 2.6 1.8 4.1l-.1-.1c1.3.3 2.6.5 4 .8h.1v.2c.1 2.2.1 4.4.2 6.7v.2h-.2c-1.3.3-2.6.7-3.9 1l.1-.1c-.3 1.4-.9 2.8-1.6 4.1v-.2c.7 1.1 1.5 2.2 2.3 3.4l.1.1-.1.1c-1.5 1.6-3.1 3.2-4.6 4.9l-.1.1-.1-.1c-1.2-.7-2.3-1.4-3.5-2.1h.2c-1.3.8-2.7 1.4-4.1 1.8l.1-.2c-.3 1.4-.5 2.7-.8 4v.2h-.2c-2.3.1-4.6.1-6.7.2h-.2v-.2c-.3-1.4-.7-2.7-1-3.9l.1.1c-1.5-.4-2.9-.9-4.1-1.6h.2c-1.2.8-2.3 1.5-3.4 2.2l-.1.1-.1-.1c-1.7-1.6-3.3-3.2-4.9-4.6l-.1-.1.1-.1c.7-1.2 1.4-2.4 2.1-3.5v.2c-.8-1.3-1.4-2.7-1.8-4.1l.1.1c-1.4-.3-2.8-.6-4-.8h-.1v-.1c-.1-2.4-.1-4.6-.2-6.7v-.1h.1c1.4-.3 2.7-.7 3.9-1l-.1.1c.4-1.5.9-2.9 1.6-4.1v.1c-.8-1.2-1.6-2.4-2.2-3.4v-.1l.1-.1c1.9-2 3.5-3.6 4.7-4.8 1.1.7 2 1.2 2.6 1.6.3.2.5.3.7.4.1.2.2.2.2.2z"/><g class="st4"><path class="st6" d="M160.5 339.8c1.3-.8 2.8-1.5 4.3-1.9l.9-4.2 7.2-.2 1.1 4.2c1.5.4 3 .9 4.4 1.7l3.6-2.4 5.2 4.9-2.2 3.7c.8 1.3 1.5 2.8 1.9 4.3l4.2.9.2 7.2-4.2 1.1c-.4 1.5-.9 3-1.7 4.4l2.4 3.6-4.9 5.2-3.7-2.2c-1.3.8-2.8 1.5-4.3 1.9l-.9 4.2-7.2.2-1.1-4.2c-1.5-.4-3-.9-4.4-1.7l-3.6 2.4-5.2-4.9 2.2-3.7c-.8-1.3-1.5-2.8-1.9-4.3l-4.2-.9-.2-7.2 4.2-1.1c.4-1.5.9-3 1.7-4.4l-2.4-3.6 4.9-5.2 3.7 2.2zm3.9 9.5c-2.9 3.1-2.8 7.9.3 10.9 3.1 2.9 7.9 2.8 10.9-.3 2.9-3.1 2.8-7.9-.3-10.9-3.1-2.9-8-2.8-10.9.3z"/></g><path class="st3" d="M164.4 349.3s.4-.6 1.4-1.3c1-.7 2.8-1.4 5-1.2 1.1.1 2.3.5 3.4 1.2s2.1 1.7 2.8 3.1c.3.7.6 1.4.7 2.2.1.8.2 1.6.1 2.4-.2 1.6-.9 3.2-2.1 4.4-1.2 1.2-2.7 2.1-4.3 2.3-.8.1-1.6.2-2.4.1-.8-.1-1.5-.3-2.2-.6-1.4-.6-2.4-1.6-3.2-2.6-.8-1.1-1.2-2.3-1.4-3.4-.3-2.2.3-4 1-5.1.7-1.1 1.2-1.5 1.2-1.5s-.5.5-1 1.6c-.6 1-1.2 2.8-.8 4.9.2 1 .6 2.2 1.3 3.2.7 1 1.8 1.9 3.1 2.5.6.3 1.3.5 2.1.6.7.1 1.5.1 2.2-.1 1.5-.3 3-1 4.1-2.2 1.1-1.2 1.8-2.7 2-4.2.1-.8.1-1.5 0-2.2-.1-.7-.3-1.4-.7-2-.6-1.3-1.6-2.3-2.6-3-1-.7-2.2-1.1-3.2-1.2-2.1-.3-3.9.4-4.9 1.1-1.1.5-1.6 1-1.6 1z"/><path class="st3" d="M160.5 339.8s-.1 0-.2-.1c-.2-.1-.4-.2-.7-.4-.6-.4-1.6-.9-2.8-1.6h.1c-1.3 1.3-2.9 3.1-4.9 5.2v-.1c.7 1.1 1.5 2.3 2.4 3.6v.2c-.7 1.3-1.3 2.7-1.7 4.3v.1h-.1c-1.3.3-2.7.7-4.2 1.1l.1-.2c.1 2.3.1 4.6.2 7.2l-.1-.2c1.3.3 2.8.5 4.2.8h.1v.1c.4 1.4 1 2.8 1.9 4.2l.1.1-.1.1c-.7 1.2-1.4 2.4-2.2 3.7v-.2c1.6 1.5 3.4 3.2 5.2 4.9h-.3c1.1-.7 2.4-1.6 3.6-2.4l.1-.1.1.1c1.3.7 2.7 1.3 4.3 1.7h.1v.1c.3 1.3.7 2.7 1.1 4.2l-.2-.2c2.3-.1 4.7-.1 7.2-.2l-.2.2c.3-1.3.6-2.8.9-4.2v-.1h.1c1.4-.4 2.9-1 4.2-1.9l.1-.1.1.1c1.2.7 2.5 1.5 3.7 2.2h-.3c1.7-1.8 3.3-3.5 4.9-5.2v.3l-2.4-3.6-.1-.1.1-.1c.8-1.4 1.3-2.8 1.7-4.3v-.1h.1c1.4-.4 2.8-.7 4.2-1.1l-.2.2c-.1-2.4-.1-4.8-.2-7.2l.2.2c-1.4-.3-2.9-.6-4.2-.9h-.1v-.1c-.4-1.5-1.1-2.9-1.9-4.2l-.1-.1.1-.1c.8-1.3 1.5-2.5 2.2-3.7v.2c-1.8-1.7-3.5-3.4-5.2-4.9h.2c-1.3.8-2.5 1.6-3.6 2.4l-.1.1h-.1c-1.4-.8-2.9-1.3-4.3-1.7h-.1v-.1c-.4-1.5-.7-2.9-1-4.2l.1.1c-2.8.1-5.1.1-7.2.1l.1-.1c-.4 1.7-.6 3.1-.9 4.2-1.5.4-2.6.9-3.3 1.3-.3.2-.6.3-.8.4.1 0 0 .1 0 .1l.2-.2c.2-.1.4-.3.8-.4.7-.4 1.7-.9 3.3-1.4v.1c.2-1.2.5-2.6.8-4.2v-.1h.1c2-.1 4.4-.1 7.2-.2h.1v.1c.3 1.3.7 2.7 1.1 4.2l-.1-.1c1.4.3 2.9.9 4.4 1.7h-.2c1.1-.8 2.3-1.6 3.6-2.4l.1-.1.1.1c1.6 1.6 3.4 3.2 5.2 4.9l.1.1-.1.1c-.7 1.2-1.5 2.4-2.2 3.7v-.2c.8 1.3 1.5 2.8 1.9 4.3l-.2-.1c1.4.3 2.8.6 4.2.8h.2v.2c.1 2.3.1 4.7.2 7.2v.2h-.2c-1.4.3-2.8.7-4.2 1.1l.2-.2c-.4 1.5-.9 3-1.7 4.4v-.2l2.4 3.6.1.1-.1.1c-1.6 1.7-3.3 3.4-4.9 5.2l-.1.1-.2-.1c-1.2-.7-2.5-1.5-3.7-2.2h.2c-1.4.9-2.9 1.5-4.3 1.9l.2-.2c-.3 1.5-.6 2.9-.9 4.2v.2h-.2c-2.5.1-4.9.1-7.2.2h-.2v-.2c-.4-1.4-.7-2.9-1.1-4.2l.2.2c-1.6-.4-3.1-1-4.4-1.7h.2c-1.2.8-2.5 1.6-3.6 2.4l-.1.1-.1-.1c-1.8-1.7-3.6-3.4-5.2-4.9l-.1-.1.1-.1c.8-1.3 1.5-2.6 2.2-3.7v.2c-.9-1.4-1.5-2.9-1.9-4.3l.1.1c-1.5-.3-2.9-.6-4.2-.9h-.1v-.1c-.1-2.5-.1-4.9-.2-7.2v-.1h.1c1.5-.4 2.9-.7 4.2-1l-.1.1c.4-1.6 1-3.1 1.7-4.4v.1c-.9-1.3-1.7-2.5-2.4-3.6v-.1l.1-.1c2-2.1 3.7-3.8 5-5.2 1.2.7 2.1 1.3 2.7 1.7.3.2.5.3.7.4.1.1.2.1.2.2z"/><path class="st5" d="m227.3 378-1.6-6.5c-2.3-.6-4.6-1.4-6.7-2.6l-5.6 3.7-8-7.6 3.4-5.7c-1.3-2-2.2-4.3-2.9-6.6l-6.6-1.3-.3-11.1 6.5-1.6c.6-2.3 1.4-4.6 2.6-6.7l-3.7-5.6 7.6-8 5.7 3.4c2-1.3 4.3-2.2 6.6-2.9l1.3-6.6 11.1-.3 1.6 6.5c2.3.6 4.6 1.4 6.7 2.6l5.6-3.7 8 7.6-3.4 5.7c1.3 2 2.2 4.3 2.9 6.6l6.6 1.3.3 11.1-6.5 1.6c-.6 2.3-1.4 4.6-2.6 6.7l3.7 5.6-7.6 8-5.7-3.4c-2 1.3-4.3 2.2-6.6 2.9l-1.3 6.6-11.1.3zm-8.4-9.1c2.1 1.2 4.4 2 6.7 2.6l1.6 6.5 11-.3 1.3-6.5c2.3-.7 4.5-1.7 6.6-2.9l5.7 3.4 7.6-8-3.7-5.6c1.2-2.1 2-4.4 2.6-6.7l6.5-1.6-.3-11-6.5-1.3c-.7-2.3-1.7-4.5-2.9-6.6l3.4-5.7-8-7.6-5.6 3.7c-2.1-1.2-4.4-2-6.7-2.6l-1.6-6.5-11 .3-1.3 6.5c-2.3.7-4.5 1.7-6.6 2.9l-5.7-3.4-7.6 8 3.7 5.6c-1.2 2.1-2 4.4-2.6 6.7l-6.5 1.6.3 11 6.5 1.3c.7 2.3 1.7 4.5 2.9 6.6l-3.4 5.7 8 7.6 5.6-3.7zm13.4-12.3c-3.1 0-6-1.2-8.2-3.3-2.3-2.2-3.6-5.1-3.7-8.3-.1-3.2 1.1-6.2 3.3-8.5 2.2-2.3 5.1-3.6 8.3-3.7 3.2-.1 6.2 1.1 8.5 3.3 2.3 2.2 3.6 5.1 3.7 8.3.1 3.2-1.1 6.2-3.3 8.5-2.2 2.3-5.1 3.6-8.3 3.7h-.3zm-8.5-20.1c-2.2 2.3-3.3 5.3-3.2 8.5.1 3.2 1.4 6.1 3.7 8.3 2.2 2.1 5.1 3.3 8.1 3.3h.3c3.2-.1 6.1-1.4 8.3-3.7 2.2-2.3 3.3-5.3 3.3-8.4-.1-3.2-1.4-6.1-3.7-8.3-2.2-2.1-5.1-3.3-8.1-3.3h-.3c-3.3 0-6.2 1.4-8.4 3.6z"/><path class="st0" d="M223.8 336.5s.6-.9 2.2-2c1.5-1 4.3-2.2 7.7-1.9 1.7.2 3.6.7 5.3 1.8 1.7 1.1 3.3 2.7 4.3 4.8.5 1 .9 2.1 1.1 3.3.2 1.2.3 2.4.1 3.6-.3 2.5-1.4 4.9-3.2 6.9-1.8 1.9-4.2 3.2-6.7 3.6-1.2.2-2.5.3-3.6.1-1.2-.1-2.3-.5-3.4-.9-2.1-.9-3.8-2.4-5-4-1.2-1.6-1.8-3.5-2.1-5.2-.5-3.4.5-6.2 1.5-7.8.9-1.6 1.8-2.3 1.8-2.3.1.1-.7.8-1.6 2.4-.9 1.6-1.8 4.3-1.3 7.6.3 1.6.9 3.4 2.1 4.9 1.2 1.5 2.7 3 4.8 3.8 1 .4 2.1.7 3.2.9 1.1.1 2.3.1 3.5-.1 2.3-.4 4.6-1.6 6.3-3.4 1.7-1.8 2.8-4.1 3.1-6.5.2-1.2.1-2.3-.1-3.5-.2-1.1-.5-2.2-1-3.2-.9-2-2.4-3.5-4-4.6-1.6-1.1-3.4-1.6-5-1.8-3.3-.4-6 .7-7.5 1.6-1.8 1.2-2.5 2-2.5 1.9z"/><path class="st0" d="M217.8 321.9s-.1-.1-.4-.2c-.3-.2-.6-.4-1.1-.6-1-.6-2.4-1.4-4.3-2.5h.1c-1.9 2.1-4.5 4.8-7.6 8v-.2c1.1 1.7 2.4 3.5 3.7 5.5l.1.1-.1.1c-1.1 2-2 4.2-2.5 6.7v.1h-.1c-2 .5-4.2 1.1-6.5 1.7l.2-.2c.1 3.5.2 7.2.3 11l-.2-.3c2 .4 4.3.8 6.5 1.3h.2v.2c.6 2.1 1.6 4.4 2.9 6.5l.1.2-.1.2c-1.1 1.8-2.2 3.7-3.4 5.7l-.1-.4c2.5 2.4 5.2 5 8 7.6h-.4c1.7-1.2 3.6-2.4 5.6-3.7l.2-.1.2.1c2 1.1 4.2 2 6.6 2.6h.2v.2c.5 2 1.1 4.2 1.6 6.5l-.3-.3c3.5-.1 7.2-.2 11-.3l-.3.3c.4-2.1.9-4.3 1.3-6.5v-.2l.2-.1c2.2-.6 4.4-1.6 6.5-2.9l.2-.1.2.1c1.9 1.1 3.8 2.3 5.7 3.4l-.4.1c2.6-2.7 5.1-5.4 7.6-8v.4c-1.2-1.9-2.5-3.7-3.7-5.6l-.1-.2.1-.2c1.2-2.1 2-4.4 2.6-6.6v-.2h.2c2.2-.6 4.3-1.1 6.5-1.6l-.2.3c-.1-3.8-.2-7.5-.3-11l.3.3c-2.2-.4-4.4-.9-6.5-1.3h-.2l-.1-.2c-.7-2.3-1.7-4.5-2.9-6.5l-.1-.2.1-.2c1.2-2 2.3-3.9 3.4-5.7v.3c-2.8-2.7-5.5-5.2-8-7.6h.3c-2 1.3-3.8 2.5-5.6 3.7l-.1.1-.1-.1c-2.2-1.2-4.5-2.1-6.7-2.6h-.1v-.1c-.6-2.4-1.1-4.5-1.6-6.5l.2.2c-4.3.1-7.9.2-11 .2l.1-.1c-.5 2.6-1 4.8-1.4 6.5v.1h-.1c-2.3.7-4 1.4-5 2-.5.3-.9.5-1.2.6l-.2.2s.1-.1.4-.3c.3-.2.6-.4 1.2-.7 1.1-.6 2.7-1.4 5-2.1l-.1.1c.3-1.8.8-3.9 1.3-6.6v-.1h.1c3.1-.1 6.8-.2 11-.3h.2v.2c.5 2 1.1 4.1 1.7 6.5l-.2-.2c2.2.5 4.5 1.4 6.8 2.6h-.3c1.8-1.2 3.6-2.4 5.5-3.7l.2-.1.2.1c2.5 2.4 5.2 4.9 8 7.6l.2.2-.1.2c-1.1 1.9-2.2 3.8-3.4 5.7v-.3c1.2 2 2.3 4.3 3 6.7l-.2-.2c2.1.4 4.3.9 6.5 1.3h.2v.3c.1 3.6.2 7.3.3 11v.3l-.3.1c-2.1.5-4.3 1.1-6.5 1.6l.2-.2c-.6 2.3-1.4 4.6-2.6 6.8v-.3c1.2 1.8 2.5 3.7 3.7 5.6l.1.2-.2.2c-2.5 2.6-5 5.3-7.6 8l-.2.2-.2-.1c-1.9-1.1-3.8-2.3-5.7-3.4h.4c-2.1 1.3-4.4 2.3-6.7 2.9l.2-.3c-.5 2.2-.9 4.5-1.3 6.5l-.1.3h-.3c-3.8.1-7.5.2-11 .3h-.3l-.1-.3c-.6-2.2-1.1-4.4-1.6-6.5l.2.2c-2.5-.6-4.8-1.5-6.8-2.6h.3c-1.9 1.3-3.8 2.5-5.6 3.7l-.2.1-.2-.2c-2.8-2.6-5.5-5.2-8-7.6l-.2-.2.1-.2c1.2-2 2.4-4 3.4-5.7v.3c-1.3-2.2-2.3-4.5-2.9-6.7l.2.2c-2.3-.5-4.5-.9-6.5-1.3h-.2v-.2c-.1-3.9-.2-7.6-.2-11v-.2h.2c2.3-.6 4.5-1.1 6.5-1.6l-.2.2c.6-2.5 1.5-4.8 2.6-6.8v.2c-1.3-2-2.6-3.9-3.7-5.6l-.1-.1.1-.1c3.1-3.2 5.7-5.9 7.7-8l.1-.1h.1c1.8 1.1 3.2 2 4.2 2.6.5.3.8.5 1.1.7.4.1.6.1.6.2z"/><g class="st4"><path transform="matrix(1 -.00537 .00537 1 -.391 2.214)" class="st5" d="M408.3 53.9h8.1v40.2h-8.1z"/></g><g class="st4"><path transform="matrix(1 -.00535 .00535 1 -.344 1.867)" class="st7" d="M338.4 54.1h20.9v22.2h-20.9z"/></g><g class="st4"><path transform="matrix(1 -.00535 .00535 1 -.343 1.978)" class="st6" d="M359.2 53.9h20.9v22.2h-20.9z"/></g><path class="st2" d="M338.3 60.2c13.9.1 27.8 0 41.7-.2.3 0 .3-.4 0-.4-13.9-.1-27.8 0-41.7.3-.2 0-.2.3 0 .3z"/><g class="st4"><path transform="matrix(1 -.00536 .00536 1 -.45 1.846)" class="st7" d="M325.3 75.9h38V94h-38z"/></g><g class="st4"><path transform="matrix(1 -.00536 .00536 1 -.449 2.05)" class="st6" d="M363.1 75.7h38v18.1h-38z"/></g><path class="st2" d="M325.3 81c25.2.3 50.5 0 75.8-.4.3 0 .3-.4 0-.4-25.2-.1-50.5-.1-75.8.4-.3.1-.3.4 0 .4z"/><g class="st4"><path class="st5" d="M311.1 94.1h147.1v6.5H311.1z"/><path class="st5" d="M335.2 97.2h6v22.1h-6zM424.3 97.2h6v22.1h-6z"/></g><g class="st4"><path transform="matrix(1 -.00535 .00535 1 -.35 2.25)" class="st7" d="M416.2 38.9h8.1v55.2h-8.1z"/></g><g class="st4"><path transform="matrix(1 -.00537 .00537 1 -.378 2.312)" class="st6" d="M424.3 49.2h12.5V94h-12.5z"/></g><path class="st2" d="M436.7 57.8c0 .1-2.8.2-6.3.2s-6.3-.1-6.3-.2 2.8-.2 6.3-.2 6.3.1 6.3.2zM436.7 55.9c0 .1-2.8.2-6.3.2s-6.3-.1-6.3-.2 2.8-.2 6.3-.2 6.3.1 6.3.2zM436.7 87.2c0 .1-2.8.2-6.3.2s-6.3-.1-6.3-.2 2.8-.2 6.3-.2 6.3.1 6.3.2zM436.7 85.3c0 .1-2.8.2-6.3.2s-6.3-.1-6.3-.2 2.8-.2 6.3-.2 6.3.1 6.3.2zM430.6 81.2c-.1 0-.2-4.5-.2-10.1s.1-10.1.2-10.1.2 4.5.2 10.1-.1 10.1-.2 10.1z"/><g class="st4"><path class="st7" d="M436.8 60.2h13.6V94h-13.6z"/></g><g class="st4"><path class="st5" d="M422.3 48.4c0 1.3-1 2.3-2.3 2.3-1.3 0-2.3-1-2.3-2.3 0-1.3 1-2.3 2.3-2.3 1.3-.1 2.3 1 2.3 2.3z"/></g><path class="st2" d="M419.3 54.7h1.4v32.9h-1.4z"/><g class="st4"><path class="st7" d="m350.6 433 5.5 35.9h31.7l7.4-35.4z"/></g><path class="st1" d="M390.8 456c0 .1-8.1.2-18.2.2-10 0-18.2-.1-18.2-.2s8.1-.2 18.2-.2c10 0 18.2.1 18.2.2zM390.9 454.3c0 .1-8.2.2-18.3.2-10.1 0-18.3-.1-18.3-.2s8.2-.2 18.3-.2c10.1 0 18.3.1 18.3.2zM390.8 452.3c0 .1-8.2.2-18.3.2-10.1 0-18.3-.1-18.3-.2s8.2-.2 18.3-.2c10.1 0 18.3.1 18.3.2zM359.7 466.9c-.1 0-.5-2-1-4.5-.4-2.5-.7-4.6-.6-4.6.1 0 .5 2 1 4.5.4 2.5.7 4.6.6 4.6zM361.9 466.5c-.1 0-.2-2-.4-4.4-.2-2.4-.3-4.4-.2-4.4.1 0 .4 2 .6 4.4.1 2.4.1 4.4 0 4.4zM365.8 466.5c-.1 0-.5-2-.8-4.5-.3-2.5-.3-4.6-.2-4.6.1 0 .3 2 .6 4.6.2 2.4.5 4.5.4 4.5zM368.6 466.7c-.1 0-.4-2-.4-4.6-.1-2.6 0-4.6.1-4.6s.1 2.1.2 4.6c.1 2.5.2 4.6.1 4.6zM373.5 466.5c-.1 0-.3-2-.3-4.4-.1-2.4-.1-4.4 0-4.4s.3 2 .3 4.4c.1 2.4.1 4.4 0 4.4zM377 466.7c-.1 0-.2-2-.1-4.5 0-2.5.1-4.5.2-4.5s.2 2 .1 4.5c0 2.5-.1 4.5-.2 4.5zM380.4 466.2c-.1 0 0-2.1.3-4.7s.5-4.7.6-4.7c.1 0 0 2.1-.3 4.7-.2 2.6-.5 4.7-.6 4.7zM384.7 465.7c-.1 0 .1-1.8.5-4 .5-2.2 1.1-3.9 1.2-3.9.1 0-.3 1.8-.8 4s-.8 3.9-.9 3.9z"/><path class="st0" d="M381.7 362.1v.2c0 .1-.1.3-.1.5-.1.5-.3 1.1-.6 1.9-.3.8-.6 1.9-.9 3.1-.3 1.2-.8 2.6-1.1 4.1-.4 1.5-.8 3.2-1.2 5-.4 1.8-.8 3.7-1.2 5.8-.8 4.1-1.5 8.6-1.9 13.4-.5 4.8-.7 9.4-.7 13.5 0 2.1 0 4.1.1 5.9 0 1.9.1 3.6.2 5.1.1 1.6.2 3 .3 4.2.1 1.2.2 2.3.3 3.2.1.9.2 1.5.2 2v.7-.2c0-.1 0-.3-.1-.5-.1-.5-.2-1.2-.3-2-.1-.9-.3-1.9-.4-3.2-.1-1.2-.3-2.7-.4-4.2-.1-1.6-.2-3.3-.3-5.2-.1-1.9-.1-3.8-.1-5.9 0-4.2.2-8.8.7-13.6.5-4.8 1.2-9.3 2-13.4.4-2 .8-4 1.3-5.8.4-1.8.9-3.5 1.3-5s.8-2.9 1.2-4.1c.4-1.2.7-2.2 1-3.1.3-.8.5-1.5.7-1.9.1-.2.1-.4.2-.5-.3.1-.3 0-.2 0z"/><g class="st4"><path class="st7" d="M375.9 384.4c.9-2.6 2.6-4.8 4.9-6.2.8-.5 1.8-.9 2.6-.5 1.1.5 1.2 2.1.9 3.3-.6 2-1.9 3.8-3.6 4.9-1.7 1.1-3.3 1.7-5.4 1.4"/></g><g class="st4"><path class="st7" d="M374 399.4c.8-3.1 3.3-7.5 5.9-9.4.4-.3.8-.6 1.3-.7.5-.1 1.1 0 1.4.3.5.5.5 1.3.3 2.1-1 4.5-4.8 8.3-9.3 9.3"/></g><g class="st4"><path class="st7" d="M373.5 412.6c1.3-2.9 3.3-5.5 5.9-7.4.6-.4 1.3-.9 2.1-.7 1.1.2 1.6 1.6 1.5 2.7-.2 2.3-2 4.2-3.8 5.7-2 1.6-5.5 2.8-5.5 2.8"/></g><g class="st4"><path class="st7" d="M373.8 422.1c1.3-2.2 2.9-4.3 5-5.7.5-.3 1-.6 1.5-.7.6-.1 1.2.1 1.5.6.5.7 0 1.7-.5 2.5-1.9 2.5-4.2 4.3-7.2 5.3"/></g><g class="st4"><path class="st7" d="M373.5 418.2c-2.2-2.7-4.6-5.1-7.2-7.3-.4-.3-.9-.7-1.4-.5-.4.1-.6.6-.7 1 0 .4.1.8.3 1.2 1.6 3.8 5.3 6.8 9.3 7.8"/></g><g class="st4"><path class="st7" d="M373.7 405.9 368 399c-.5-.7-1.1-1.3-1.8-1.7-.7-.4-1.7-.5-2.4 0s-.9 1.4-.8 2.3c.2.8.6 1.6 1.1 2.3 1.1 1.7 2.5 3.2 4.1 4.4 1.7 1.1 3.2 1.9 5.2 1.6"/></g><g class="st4"><path class="st7" d="M374.5 391.9c-1.1-3.3-3.1-6.3-5.7-8.5-.4-.4-.9-.8-1.5-.9-1.1-.2-2.2.7-2.6 1.8-.4 1.2-.1 2.6.5 3.7s1.6 2 2.7 2.8c1.9 1.5 4 2.6 6.3 3.4"/></g><g class="st4"><path class="st7" d="M376.8 379.5c-.5-4-2.6-7.3-5-10.6-.5-.7-1.2-1.4-2.1-1.3-.5.1-1 .5-1.2 1-.2.5-.2 1.1-.2 1.6.1 4.8 3.5 9.4 8 11"/></g><g class="st4"><path class="st7" d="M378.4 373.2c-.2-2.1-.4-4.1-.2-6.2.2-2.1.8-4.1 2.1-5.8.5-.7 1.2-1.3 2.1-1.6.8-.3 1.8-.2 2.5.3.6.5.9 1.4.9 2.2 0 .8-.3 1.6-.6 2.4-1.7 3.7-4.2 7.7-6.8 8.7"/></g><path class="st2" d="M353.7 377.9v4.3c0 .9 0 1.9.1 3 .1 2.2.3 4.9.7 7.9.4 3 .9 6.2 1.6 9.5.7 3.4 1.6 6.5 2.4 9.4.9 2.8 1.7 5.4 2.6 7.5.4 1.1.8 2 1.1 2.8.3.8.6 1.5.9 2.1.2.6.4 1 .6 1.3.1.3.2.5.2.5s-.1-.1-.2-.4c-.2-.3-.4-.8-.6-1.3-.3-.6-.6-1.3-.9-2.1-.4-.8-.8-1.8-1.2-2.8-.8-2.1-1.7-4.6-2.6-7.5-.9-2.9-1.7-6-2.4-9.4-.7-3.4-1.2-6.6-1.5-9.6-.3-3-.5-5.6-.6-7.9-.1-1.1 0-2.1-.1-3v-2.3c0-.6 0-1.1.1-1.5-.2-.3-.2-.5-.2-.5z"/><g class="st4"><path class="st5" d="M354.6 394.3c0-1.9.8-3.8 2-5.3.4-.5 1-1 1.7-.9.9.1 1.3 1.2 1.3 2 .1 1.5-.5 3-1.4 4.1-.9 1.1-1.9 1.9-3.4 2.1"/></g><g class="st4"><path class="st5" d="M356.5 405c-.1-2.3.6-5.8 2-7.7.2-.3.4-.6.8-.8.3-.2.7-.3 1-.1.5.2.6.8.7 1.3.3 3.3-1.4 6.7-4.3 8.3"/></g><g class="st4"><path class="st5" d="M359 414.1c.2-2.3 1.1-4.5 2.4-6.3.3-.4.7-.9 1.2-.9.8-.1 1.4.7 1.6 1.5.4 1.6-.4 3.3-1.4 4.7-1 1.5-3.1 3.1-3.1 3.1"/></g><g class="st4"><path class="st5" d="M361.3 420.5c.4-1.8 1.1-3.5 2.2-5 .2-.3.5-.6.9-.8.4-.2.8-.2 1.1.1.5.4.4 1.2.2 1.8-.7 2.1-1.9 3.9-3.8 5.1"/></g><g class="st4"><path class="st5" d="M360.3 417.9c-2-1.3-4.2-2.5-6.5-3.4-.4-.1-.8-.3-1.1-.1-.2.2-.3.5-.2.8.1.3.3.5.4.8 1.9 2.2 5.1 3.5 8 3.3"/></g><g class="st4"><path class="st5" d="M357.8 409.4c-1.8-1.2-3.6-2.3-5.3-3.5-.5-.3-1-.7-1.6-.8-.6-.1-1.3 0-1.6.5-.4.5-.3 1.2 0 1.7s.8.9 1.2 1.3c1.1.9 2.4 1.7 3.7 2.1 1.4.4 2.6.6 3.9 0"/></g><g class="st4"><path class="st5" d="M355.3 399.8c-1.5-2-3.4-3.6-5.7-4.6-.4-.2-.8-.3-1.2-.3-.8.1-1.4 1-1.4 1.8 0 .9.5 1.8 1.2 2.4.7.6 1.5 1 2.4 1.3 1.6.6 3.3.9 5 1"/></g><g class="st4"><path class="st5" d="M354.2 390.9c-1.2-2.6-3.4-4.4-5.7-6.1-.5-.4-1.1-.7-1.7-.4-.3.2-.5.6-.6.9 0 .4.1.8.2 1.1 1.1 3.3 4.4 5.7 7.8 5.8"/></g><g class="st4"><path class="st5" d="M353.9 386.2c-.6-1.4-1.2-2.7-1.5-4.2-.3-1.4-.3-3 .2-4.4.2-.6.5-1.2 1-1.6.5-.4 1.2-.6 1.8-.3.5.2.9.8 1.1 1.3.2.6.1 1.2.1 1.7-.3 3-1.1 6.2-2.7 7.5"/></g><path class="st0" d="M393.9 377.6v.5c0 .4 0 .9.1 1.5v2.3c0 .9 0 1.9-.1 3-.1 2.3-.3 4.9-.6 7.9s-.8 6.2-1.5 9.6c-.7 3.4-1.6 6.5-2.4 9.4-.9 2.8-1.8 5.4-2.6 7.5-.4 1.1-.8 2-1.2 2.8-.3.8-.7 1.5-.9 2.1-.3.5-.5 1-.6 1.3-.1.3-.2.4-.2.4s0-.2.2-.5c.1-.3.3-.8.6-1.3.3-.6.6-1.3.9-2.1.3-.8.7-1.8 1.1-2.8.8-2.1 1.7-4.6 2.6-7.5.9-2.8 1.7-6 2.4-9.4.7-3.4 1.2-6.6 1.6-9.5.3-3 .6-5.6.7-7.9.1-1.1.1-2.1.1-3v-3.8c-.2-.3-.2-.5-.2-.5z"/><g class="st4"><path class="st7" d="M393 394c0-1.9-.8-3.8-2-5.3-.4-.5-1-1-1.7-.9-.9.1-1.3 1.2-1.3 2-.1 1.5.5 3 1.4 4.1.9 1.1 1.9 1.9 3.4 2.1"/></g><g class="st4"><path class="st7" d="M391.1 404.6c.1-2.3-.6-5.8-2-7.7-.2-.3-.4-.6-.8-.8s-.7-.3-1-.1c-.5.2-.6.8-.7 1.3-.3 3.3 1.4 6.7 4.3 8.3"/></g><g class="st4"><path class="st7" d="M388.6 413.7c-.2-2.3-1.1-4.5-2.4-6.3-.3-.4-.7-.9-1.2-.9-.8-.1-1.4.7-1.6 1.5-.4 1.6.4 3.3 1.4 4.7 1 1.5 3.1 3.1 3.1 3.1"/></g><path class="st0" d="M386.4 420.1c-.4-1.8-1.1-3.5-2.2-5-.2-.3-.5-.6-.9-.8-.4-.2-.8-.2-1.1.1-.5.4-.4 1.2-.2 1.8.7 2.1 1.9 3.9 3.8 5.1"/><g class="st4"><path class="st7" d="M387.4 417.6c2-1.3 4.2-2.5 6.5-3.4.4-.1.8-.3 1.1-.1.2.2.3.5.2.8-.1.3-.3.5-.4.8-1.9 2.2-5.1 3.5-8 3.3"/></g><g class="st4"><path class="st7" d="M389.9 409.1c1.8-1.2 3.6-2.3 5.3-3.5.5-.3 1-.7 1.6-.8.6-.1 1.3 0 1.6.5.4.5.3 1.2 0 1.7s-.8.9-1.2 1.3c-1.1.9-2.4 1.7-3.7 2.1-1.4.4-2.6.6-3.9 0"/></g><g class="st4"><path class="st7" d="M392.3 399.5c1.5-2 3.4-3.6 5.7-4.6.4-.2.8-.3 1.2-.3.8.1 1.4 1 1.4 1.8 0 .9-.5 1.8-1.2 2.4-.7.6-1.5 1-2.4 1.3-1.6.6-3.3.9-5 1"/></g><g class="st4"><path class="st7" d="M393.5 390.5c1.2-2.6 3.4-4.4 5.7-6.1.5-.4 1.1-.7 1.7-.4.3.2.5.6.6.9 0 .4-.1.8-.2 1.1-1.1 3.3-4.4 5.7-7.8 5.8"/></g><g class="st4"><path class="st7" d="M393.7 385.9c.6-1.4 1.2-2.7 1.5-4.2.3-1.4.3-3-.2-4.4-.2-.6-.5-1.2-1-1.6-.5-.4-1.2-.6-1.8-.3-.5.2-.9.8-1.1 1.3-.2.6-.1 1.2-.1 1.7.3 2.9 1.2 6.2 2.7 7.5"/></g><g class="st4"><path class="st7" d="M347 425.9v6.7c0 1.5 1.2 2.6 2.6 2.6h46c1.5 0 2.6-1.2 2.6-2.6v-6.7H347z"/></g><g class="st4"><path class="st5" d="m350.9 435.3.4 2.1 42.5 3 1-5.1z"/></g><path class="st2" d="M363.8 136.1h60v62.6h-60z"/><g class="st4"><path class="st8" d="M359.7 136.1h60v62.6h-60z"/></g><path class="st2" d="M419.8 198.6h-60.1V136h60.1v62.6zm-60 0h60v-62.5h-60v62.5z"/><g class="st4"><path class="st8" d="M367.8 144.5h43.9v45.7h-43.9z"/></g><path class="st2" d="M367.8 190.5s-.4.5-1.1 1.3l-2.8 2.8c-1.1 1.1-2.1 2.1-2.9 2.7-.7.7-1.2 1.1-1.3 1.1 0 0 .4-.5 1.1-1.3l2.8-2.8c1.1-1.1 2.1-2.1 2.9-2.7.8-.7 1.3-1.1 1.3-1.1zM411.7 190.4s.5.4 1.3 1.1l2.8 2.8c1.1 1.1 2.1 2.1 2.7 2.9.7.7 1.1 1.2 1.1 1.3 0 0-.5-.4-1.3-1.1l-2.8-2.8c-1.1-1.1-2.1-2.1-2.7-2.9-.8-.8-1.2-1.3-1.1-1.3zM411.6 144.6s.4-.5 1.1-1.3l2.8-2.8c1.1-1.1 2.1-2.1 2.9-2.7.7-.7 1.2-1.1 1.3-1.1 0 0-.4.5-1.1 1.3l-2.8 2.8c-1.1 1.1-2.1 2.1-2.9 2.7-.8.7-1.3 1.1-1.3 1.1zM367.7 144.7s-.5-.4-1.3-1.1l-2.8-2.8c-1.1-1.1-2.1-2.1-2.7-2.9-.7-.7-1.1-1.2-1.1-1.3 0 0 .5.4 1.3 1.1l2.8 2.8c1.1 1.1 2.1 2.1 2.7 2.9.7.8 1.1 1.3 1.1 1.3z"/><path class="st2" d="M411.6 190.2V177.6c0-8-.1-19.4-.1-33.1l.2.2h-43.8l.2-.2v45.7l-.2-.2c13.1 0 24 .1 31.7.1h11.9c0 .1.1.1.1.1h-12c-7.7 0-18.6.1-31.8.1h-.2V144.2h44.2v.2c0 13.7-.1 25.2-.1 33.2v12.3c-.1.2-.1.3-.1.3z"/><g class="st4"><path class="st7" d="M382.4 160H397v14.6h-14.6z"/></g></g><g id="Browser"><path class="st8" d="M413.2 342.6H86c-12.5 0-22.5-10.1-22.5-22.5v-3.4c0-12.5 10.1-22.5 22.5-22.5h327.2c12.5 0 22.5 10.1 22.5 22.5v3.4c.1 12.4-10 22.5-22.5 22.5z"/><path class="st11" d="M414.1 342.6h-64.2v-48.5h64.2c12 0 21.7 9.7 21.7 21.7v5.1c0 12-9.8 21.7-21.7 21.7z"/><path class="st12" d="M413.2 342.6s.7-.1 2.1-.1c.7-.1 1.5-.2 2.5-.4 1-.3 2.1-.5 3.4-1 2.5-1 5.5-2.6 8.2-5.4 1.4-1.4 2.6-3.1 3.7-5.1 1.1-2 1.8-4.3 2.3-6.8.5-2.5.4-5.2.3-8-.1-2.8-.7-5.7-2-8.5s-3.2-5.4-5.7-7.6c-2.5-2.2-5.6-3.9-9.1-4.8-1.7-.5-3.6-.6-5.4-.7H370c-72.6 0-173 0-283.8.1-6.9 0-13.6 3.3-17.7 8.7-2.1 2.7-3.5 5.8-4.2 9.1-.1.8-.3 1.7-.3 2.5s-.1 1.7-.1 2.5v2.5c0 .8.1 1.7.1 2.5.6 6.7 4.4 12.9 10 16.5 2.8 1.8 5.9 3 9.1 3.4.8.2 1.6.2 2.4.2.8.1 1.6 0 2.5 0h207.9c36.3 0 65.7.1 86 .1h29.5c1.1.3 1.8.3 1.8.3H381.6c-20.3 0-49.7 0-86 .1H85.2c-.8 0-1.7-.1-2.5-.2-3.3-.5-6.5-1.7-9.3-3.5-5.6-3.7-9.5-10-10.2-16.8 0-.8-.1-1.7-.1-2.6v-2.5c0-.8.1-1.7.1-2.6.1-.9.2-1.7.4-2.5.7-3.4 2.2-6.6 4.3-9.3 4.1-5.6 11.1-8.9 18.1-8.9 110.8 0 211.2 0 283.8.1h43.5c1.9.1 3.7.2 5.5.7 3.5.9 6.7 2.6 9.2 4.8 2.5 2.2 4.5 4.9 5.8 7.7 1.3 2.8 1.9 5.8 2 8.6 0 2.8.1 5.5-.3 8s-1.3 4.8-2.3 6.8c-1.1 2-2.4 3.7-3.7 5.1-2.7 2.8-5.7 4.4-8.2 5.4-1.2.5-2.4.7-3.4 1-1 .1-1.8.3-2.5.4-1.5.2-2.2.2-2.2.2z"/><path class="st13" d="M386.3 325c-5.8 0-10.5-4.7-10.5-10.5s4.7-10.5 10.5-10.5 10.5 4.7 10.5 10.5-4.7 10.5-10.5 10.5zm0-20.2c-5.3 0-9.7 4.3-9.7 9.7s4.3 9.7 9.7 9.7c5.3 0 9.7-4.3 9.7-9.7s-4.3-9.7-9.7-9.7z"/><path class="st13" d="M402.8 332.9c-.1 0-.2 0-.3-.1l-9.6-10.3c-.2-.2-.1-.4 0-.6.2-.2.4-.1.6 0l9.6 10.3c.2.2.1.4 0 .6-.1.1-.2.1-.3.1z"/></g><g id="Character"><path class="st12" d="M248.2 126.9c-1.6 12.9-1.6 26.1.1 39 .4 3.3 1.1 6.9 3.7 8.9 3.1 2.4 7.9 1.6 10.7-1.2 2.8-2.7 3.8-6.9 3.8-10.8-.1-3.9-1.1-7.8-1.8-11.6-.9-5.1-1.4-10.4-3.7-15-2.3-4.6-7-8.6-12.1-8.1M255.8 88.8c5.9-5.8 18.5-4.3 25 .7 6.6 5 10 13.2 11.4 21.3 1.4 8.1 1.1 16.4 1.7 24.7.7 8.2 2.5 16.7 7.6 23.2 2.2 2.8 4.9 5.1 6.8 8.1 3.7 5.6 4.1 13.3.8 19-3.4 5.8-10.5 9.3-17 8-6.8-1.3-12.1-7.1-14.7-13.5-2.6-6.4-3-13.5-3.6-20.4-1.7-21.5-4.6-43-8.7-64.2"/><path class="st14" d="m248.6 152.3 6.1-1.7h26.9l14.6 8.6s-25.5 11.5-35 6.9-12.7-13.1-12.7-13.1"/><path class="st14" d="m281.8 103.6.2-3.6-21.5-4.8c-6.6-.9-14.1 5.5-14.7 12.2-.7 7.4-1.3 16.5-.6 22.1 1.4 11.2 9.9 12.9 9.9 12.9l.9 24.5 24.7 1.1 1.1-64.4z"/><path class="st12" d="M249 115.3c-.1.8.5 1.4 1.3 1.5.8.1 1.5-.5 1.5-1.2 0-.8-.5-1.4-1.3-1.5-.7-.1-1.4.4-1.5 1.2zM248 111.4c.2.2 1.3-.6 2.8-.5 1.5 0 2.6.9 2.8.7.1-.1-.1-.4-.6-.8s-1.3-.7-2.2-.8c-1 0-1.8.3-2.3.7-.4.3-.6.6-.5.7zM264.1 116c-.1.8.5 1.4 1.3 1.5.8.1 1.5-.5 1.5-1.2.1-.8-.5-1.4-1.3-1.5-.8-.1-1.5.5-1.5 1.2zM263.2 112.2c.2.2 1.3-.6 2.8-.5 1.5 0 2.6.9 2.8.7.1-.1-.1-.4-.6-.8s-1.3-.7-2.2-.8c-1 0-1.8.3-2.3.7-.5.3-.6.6-.5.7zM257.2 124.3c0-.1-.9-.3-2.5-.5-.4-.1-.8-.1-.8-.4-.1-.3.1-.7.3-1.2.4-.9.8-1.9 1.3-3 1.7-4.2 3-7.7 2.9-7.8-.2-.1-1.7 3.3-3.5 7.5l-1.2 3c-.2.4-.4.9-.3 1.5.1.3.4.5.6.6.2.1.5.1.7.1 1.5.2 2.5.2 2.5.2z"/><path class="st15" d="M255.2 142.5s7.9.7 15.4-3.5c0 0-3.8 7.7-15.3 6.3l-.1-2.8zM257.8 128c.6-.7 1.6-1.1 2.5-1 .7.1 1.3.4 1.7 1 .4.6.5 1.3.1 1.8-.4.6-1.3.7-2 .4-.7-.2-1.3-.7-1.9-1.2-.2-.1-.3-.3-.4-.5-.2-.1-.2-.3 0-.5"/><path class="st12" d="M261.7 125.5c-.2 0-.3 1.6-1.8 2.8-1.5 1.1-3.2.9-3.3 1.1 0 .1.4.3 1.1.4.7 0 1.8-.2 2.7-.9.9-.7 1.3-1.7 1.4-2.3.2-.7 0-1.1-.1-1.1zM262.9 107.6c.1.4 1.7.3 3.5.5s3.2.8 3.5.4c.1-.2-.1-.6-.7-1s-1.5-.8-2.6-1c-1.1-.2-2.1 0-2.7.2-.7.3-1 .7-1 .9zM248.2 106.1c.3.4 1.3 0 2.6.1 1.3 0 2.3.3 2.6-.1.1-.2 0-.5-.5-.9-.5-.3-1.2-.6-2.1-.6-.9 0-1.6.3-2.1.6-.4.4-.6.8-.5.9z"/><path class="st11" d="M281.5 121.1c1.9-1.3 2.8-12.4 2.7-17-.1-4.6-2.5-8.6-5.7-11.9-3.5-3.5-7.6-4.8-12.5-5.3-2.8-.3-5.7-.7-8.4.1-2.7.8-4.2 1.7-5.5 4.2-.7 1.4-.9 3.3.3 4.2 1.2.8 2.8.2 4.2-.2 3.7-1.1 7.8.1 11.1 2.3 3.2 2.2 5.8 5.2 8.3 8.2 3.3 3.9 4.8 10.4 5.5 15.4"/><path class="st12" d="M243.8 95.1c1.4-4.5 10.3-10.2 19.6-6 4.3.2 8.5.9 13.1 5 8.3 7.5 5.1 26 5.1 26s-7-3.2-13.2-10.6c-5.3-6.4-8.2-11.4-9.3-14.5-8.6 2.1-11.9 9.6-13.4 12.9-1.9-2.1-4.4-4.8-1.9-12.8z"/><path class="st14" d="M279.8 119.1c.2-.1 7.4-2.5 7.4 4.9.1 7.4-7.4 6-7.4 5.8v-10.7z"/><path class="st15" d="M282.1 126.9s.1.1.3.2c.2.1.6.2 1 0 .8-.3 1.4-1.5 1.5-2.9 0-.7-.1-1.3-.4-1.8-.2-.5-.6-.9-1-1-.4-.1-.7.2-.8.4-.1.2 0 .4-.1.4 0 0-.2-.1-.1-.4 0-.1.1-.3.3-.5.2-.1.4-.2.7-.2.6 0 1.1.6 1.4 1.1.3.6.5 1.3.5 2.1 0 1.5-.8 2.9-1.9 3.2-.5.1-1 0-1.2-.2-.2-.2-.3-.4-.2-.4z"/><path class="st14" d="m199.8 284.8-15 1.7-9.1 5.7s-.2 1.9 2.4 1.6l5.1-2.2-4.1 4.5s1 1.8 3.2.5 3.6-3.1 3.6-3.1l9-.6s-6.8 6.5-5.6 8.2c1.3 1.7 2.1 1.3 3 .7 1-.6 1.5-2.8 3.8-3.5 2.2-.7 5.9-2.8 9.9-4.7 3.4-1.6 6.9-13.3 6.9-13.3l-11.5-2.2-1.6 6.7z"/><path class="st15" d="M193.9 288.6c0 .2-3.8.9-8.5 1.6h-.1l.2-.1c-3.3 3.4-6.1 6-6.2 5.9-.1-.1 2.4-3 5.7-6.4l.1-.1h.2c4.7-.6 8.6-1 8.6-.9z"/><path class="st14" d="m289.7 379-2.8-24.2-22.4 6.3 5.6 23.2z"/><path class="st11" d="m289.9 378.9 3.8 28.2 9.4 21.4c.7 1.5-.1 3.3-1.7 3.9-.9.3-1.9.2-2.6-.3-4.9-3.4-23-16.2-23.2-18.2-.2-2.4-6-29.5-6-29.5l20.3-5.5z"/><g class="st16"><path class="st13" d="M301.4 432.5 275.3 412l.2 1.2c.2 1 .7 2 1.5 2.6 2.1 1.8 8.1 6.7 21.7 16.3.8.6 1.8.7 2.7.4z"/></g><g class="st16"><path class="st13" d="M279.6 402c.8.4 1.2 1.4.8 2.2-.3.8-1.4 1.2-2.2.8-.8-.4-1.3-1.6-.9-2.3.4-.8 1.7-1.2 2.4-.6"/></g><path class="st12" d="M293.1 421.2c.2.1.6-1.5 2.1-2.6s3.1-1 3.1-1.1c0-.1-.4-.2-1-.2-.7 0-1.6.2-2.4.8-.8.6-1.4 1.4-1.6 2-.3.7-.3 1.1-.2 1.1zM295.7 424.7c.2.1.9-1 2.3-1.6 1.4-.7 2.7-.6 2.7-.8.1-.2-1.4-.5-3 .2s-2.2 2.1-2 2.2zM288.6 417c.2.1 1.3-1.5 3.4-2.7 2.1-1.2 4-1.4 4-1.6 0-.2-2.1-.2-4.3 1.1-2.2 1.2-3.2 3.1-3.1 3.2zM286.7 408.5c.1.2 1.6-.7 3.6-1.1 2-.4 3.7-.2 3.7-.3.1-.1-1.7-.7-3.8-.3-2.2.4-3.6 1.6-3.5 1.7zM285.4 400.3c.1.1 1.5-1 3.7-1.3 2.1-.3 3.8.5 3.9.3 0-.1-.3-.4-1-.6-.7-.3-1.8-.5-2.9-.3-1.2.1-2.1.6-2.8 1-.7.4-.9.8-.9.9zM288.8 397.4s0-.4-.1-1.1c-.2-.7-.5-1.6-1.3-2.6-.4-.5-.8-1.1-1.7-1.3-.4-.1-1 0-1.3.5-.3.4-.3.9-.2 1.3.3 1.8 2.1 3.3 4.2 3.2 2-.1 3.7-1.5 4.2-3.2.1-.4.2-.9-.1-1.4-.3-.4-.9-.5-1.3-.4-.8.3-1.3.8-1.7 1.3-.8.9-1.3 1.8-1.6 2.5-.3.6-.3 1-.3 1 .1.1.5-1.5 2.2-3.2.4-.4.9-.9 1.5-1.1.3-.1.6 0 .7.2.1.2.1.6 0 .9-.5 1.4-2 2.7-3.7 2.7-1.7.1-3.3-1.2-3.6-2.7-.1-.3 0-.7.1-.9.2-.2.4-.3.7-.3.6.1 1 .7 1.4 1.1 1.6 2 1.8 3.6 1.9 3.5zM237.8 240.5l-.4 6.1s-5.2 9.8-5.6 18.5c-.3 5.1-.4 12.6-.4 17.9 0 4.3 1.2 8.6 3.5 12.3l10.3 16.5-1.4 18.7 18.7 37.5 27.7-7-3.3-69.2-11.1-36.5-2.1-17.4-35.9 2.6z"/><path class="st12" d="m293.6 236.7.5 8s22.2-47.4 52.6-53.2c19.7-3.8 27.5 17.7 20.6 34.7-4.2 10.3-21.4 29.9-21.5 30.4-.5 10.5-11.3 9-11.3 9S321 286.8 317 291c-2.7 2.9-31.6 1.8-31.6 1.8l-9.1-18.8-3.7-36 21-1.3z"/><path class="st17" d="M255.1 286.4s-.1.6-.5 1.7c-.4 1.2-.9 2.7-1.6 4.6-1.3 3.9-3 9.3-4.7 15.3-1.6 6-2.9 11.5-3.7 15.5-.4 1.9-.7 3.5-1 4.7-.2 1.1-.4 1.7-.4 1.7s0-.6.2-1.8c.1-1.1.4-2.8.8-4.8.7-4 1.9-9.6 3.5-15.6s3.4-11.4 4.9-15.2c.7-1.9 1.3-3.5 1.8-4.5.4-1.1.7-1.6.7-1.6zM248.2 278.9c.1 0-.1 1.7-.4 4.5-.3 2.8-.7 6.6-.9 10.9-.2 4.3-.2 8.1-.2 10.9 0 2.8.1 4.5 0 4.5 0 0-.1-.4-.2-1.2-.1-.8-.2-1.9-.3-3.3-.2-2.8-.2-6.7 0-10.9.2-4.3.7-8.1 1.1-10.9.2-1.4.4-2.5.6-3.3l.3-1.2zM290.1 359.5v-.3c0-.3 0-.6-.1-1-.1-.9-.1-2.2-.2-3.8-.2-3.4-.5-8.1-.8-14-.6-11.9-1.4-28.1-2.3-46.1-.3-4.5-.2-8.9-1.1-13-.9-4.1-2.5-7.9-4.6-11.2-2.1-3.3-4.5-6.1-7.1-8.3-2.6-2.2-5.4-3.9-8.1-5.1-5.4-2.5-10.2-3.1-13.5-3.3-1.6-.1-2.9 0-3.8 0h-1.3s1.8-.4 5.1-.3c3.3.1 8.2.7 13.6 3.1 2.7 1.2 5.5 2.9 8.2 5.1 2.7 2.2 5.2 5.1 7.3 8.4 2.1 3.4 3.8 7.2 4.7 11.4 1 4.2.9 8.7 1.2 13.2.8 18 1.6 34.3 2.1 46.2.2 5.9.4 10.6.6 14 .1 1.6.1 2.9.1 3.8v1.2zM277.4 261.1c-.1-.1 2.5-3.5 5.9-7.7 3.4-4.1 6.3-7.4 6.4-7.3.1.1-2.5 3.5-5.9 7.7-3.4 4.2-6.2 7.4-6.4 7.3zM321.7 233.1c3.1-5 6.2-9.3 8.6-12.3 2.4-3 4-4.7 4.1-4.6.1.1-1.3 2-3.6 5.1-2.2 3.1-5.3 7.4-8.3 12.4-3 5-5.9 9.6-6.5 13.4-.6 3.8.7 6.1.6 6.1 0 0-.4-.4-.8-1.5-.4-1-.7-2.7-.4-4.7.2-2 1-4.3 2.2-6.6"/><path class="st17" d="M337.2 210c.1.1-.9 1.5-1.6 3.4-.7 2-.7 3.7-.9 3.7-.2 0-.5-1.8.3-3.9.7-2.1 2-3.3 2.2-3.2zM274.5 310.2c-.2-.1 1.2-3.3 3.1-7.3 1.9-3.9 3.5-7.1 3.7-7 .2.1-1.2 3.3-3.1 7.3-1.9 4-3.5 7.1-3.7 7zM258.8 299.5c.2-.1.9 1.5 1.6 3.4.7 1.9 1.1 3.5 1 3.6-.2.1-.9-1.5-1.6-3.4-.7-1.9-1.1-3.5-1-3.6z"/><path class="st11" d="M222.9 173.1c1.6-13.8 10.5-16.9 10.5-16.9l1.3 81.8-10.2 42.2c-1.3 5.3-6.7 8.4-12 6.8l-20.7-6.3s29.5-93.7 31.1-107.6zM309.1 166s5.1 11.6 5.1 17.8c0 6.1 6.1 45.8 0 54.2-6.1 8.4-18.1 8.1-21.6 7.8-4.7-.4-26.5-40.7-25.6-41.2l12.2-2.7s8.6.5 12.7 4 8.1-.5 8.1-.5l8.6-37.2"/><path class="st11" d="M292 156.2s14 4.8 17.1 9.8c3 5.1-14.6 70.4-14.6 70.4l-56.7 4.1s-4.5-.8-5.7-4.9c-1.2-4.1 1.2-79.4 1.2-79.4l15.8-5.6s6.8 7 11.7 8.4c4.8 1.5 31.2-2.8 31.2-2.8z"/><path class="st12" d="M236.9 174.2s0 .2.1.7c0 .5 0 1.2.1 1.9v7.1c-.1 6-.6 14.3-1.7 23.4-.6 4.5-1.2 8.9-1.9 12.8-.7 3.9-1.5 7.4-1.4 10.4 0 3 .8 5.3 1.6 6.7.8 1.5 1.5 2.1 1.5 2.1s-.2-.1-.5-.5c-.3-.3-.7-.8-1.2-1.6-.9-1.4-1.8-3.8-1.9-6.9-.1-3 .6-6.6 1.3-10.5.7-3.9 1.3-8.2 1.9-12.7 1.1-9.1 1.7-17.3 1.9-23.3.1-2.9.2-5.3.2-7.1 0-.8 0-1.4.1-1.9-.2-.4-.1-.6-.1-.6zM292 209.2c-.1.1-.6-1.1-2-2.4-.7-.7-1.6-1.3-2.7-1.9-1.1-.5-2.5-.8-3.9-1-2.9-.4-5.5-.2-7.3.4-.9.3-1.5.8-1.9 1.1l-.6.6s.1-.3.4-.7c.4-.4 1-1 1.9-1.3 1.8-.8 4.6-1 7.6-.6 1.5.2 2.9.5 4.1 1.1 1.2.6 2.1 1.4 2.8 2.1.7.7 1.1 1.4 1.3 1.9.2.3.3.6.3.7zM277.2 221.6c.1 0 .5 1.5 1.6 3.9 1 2.4 2.7 5.6 4.8 9 2.1 3.4 4.2 6.3 5.9 8.3.8 1 1.6 1.7 2.1 2.2.5.5.9.6.9.6s-.5 0-1.1-.4c-.6-.4-1.4-1.1-2.3-2.1-1.8-1.9-4-4.8-6.1-8.3-2.1-3.4-3.7-6.7-4.7-9.2-.5-1.2-.8-2.3-1-3 0-.5-.1-.9-.1-1zM298.8 172.5c-.1-.1 1.2-2.1 3.3-4.2 2.1-2.1 4.2-3.3 4.3-3.2.1.2-1.8 1.6-3.8 3.6-2.1 2.1-3.6 3.9-3.8 3.8zM231.4 158.3c.1-.1 2.4 1.3 4.4 3.8 2.1 2.5 3 5.1 2.8 5.1-.2.1-1.3-2.3-3.3-4.7-2-2.4-4-4-3.9-4.2z"/><path class="st12" d="M283.9 230.2c-.1 0-.9-1.1-2-3.2s-2.4-5-3.4-8.4c-1-3.4-1.5-6.6-1.6-8.9-.2-2.3-.1-3.8 0-3.8s.2 1.4.5 3.7c.3 2.3.8 5.4 1.8 8.8 1 3.4 2.2 6.3 3.1 8.4 1 2.1 1.7 3.4 1.6 3.4zM305 213.3c-.1.1-.8-.8-2.1-2-1.3-1.3-3.1-2.9-5.3-4.6-1.1-.8-2.2-1.6-3.2-2-1.1-.5-2.1-.6-2.9-.3-.8.2-1.4.7-1.6 1.1-.3.4-.3.7-.4.7 0 0-.1-.3.2-.8.2-.5.8-1.1 1.7-1.4.9-.4 2.1-.3 3.3.2 1.2.5 2.3 1.3 3.4 2.1 2.2 1.7 4.1 3.4 5.3 4.8 1 1.2 1.6 2.1 1.6 2.2z"/><path d="M278.6 226.2c-2.9.7-5.9-1-8.9-1.1-2.7-.1-5.4 1-8 1.7-5.7 1.6-11.9 1.2-17.4-1.1-.6-.3-1.3-.6-1.8-1.1-.5-.5-.7-1.6-.3-2.2 5.1-.1 10.2.2 15.3.1 1 0 2.1 0 3-.6.4-.3.5-.6.5-.6s3-.1 4.1-.1c2.5 0 5.3.2 7.7.2 1.1 0 4.5.1 4.4.1M295.3 204.4c4.3.8 8.4 2.8 11.7 5.7.4.3.7.7.9 1.1.2.4.2 1 0 1.4-.3.5-1 .6-1.6.5-.6-.2-1.1-.6-1.5-1-3.2-2.7-6.4-5.5-9.7-8.2" class="st18"/><path class="st12" d="M298.1 176.4c.1 0 .1 1.6.1 4.1-.1 2.6-.2 6.1-.6 10-.4 3.9-.9 7.4-1.3 9.9s-.8 4.1-.9 4.1c-.1 0 .1-1.6.4-4.1.3-2.5.7-6 1.1-9.9.4-3.9.6-7.4.8-9.9.2-2.7.3-4.2.4-4.2z"/><path class="st17" d="m253.9 204.4-5.9-12.8-20.4-1.3-.8 1.2 15.5 29.8 18.6.1z"/><path class="st17" d="m253.2 205.6-5.9-12.8-20.4-1.3 14.7 31 16.5.1c1 0 1.9-.4 2.7-1l.2-.1-7.8-15.9z"/><path class="st7" d="M237.7 197.5c.4.4 1.1.4 1.4-.1.4-.4.4-1.1-.1-1.4-.4-.4-1.1-.4-1.4.1-.3.4-.3 1 .1 1.4z"/><path class="st14" d="m277.1 206.2-7.9.5c-2-2.8-5.1-4.5-8.5-4.7l-2.8-.2-2.1 2s-13.8-.3-14.4 1.4v.8l11.7 1.5s-10-.7-10.6-.7c-.7 0-2.8-.3-2.8.8 0 1 1.1 1.8 2.8 2.2.7.1 9.4 1.4 9.4 1.4s-9.1-.7-9.6-.7c-1.1-.1-1 1.7-.4 1.9.5.2 12.5 4.5 12.5 4.5s-2.1 1.3-3.8 1c-1.7-.2-4.4-2.6-5.1-1.6-.7 1-.6 1.6-.2 1.9.3.3 4.2 2.6 5.5 3 1.3.4 14.7-.2 14.7-.2l14 .5-2.4-15.3z"/><path class="st15" d="M251.2 203.7c0-.1 2.2 0 4.9.1 2.7.2 4.8.3 4.8.4 0 .1-2.2 0-4.9-.1s-4.9-.3-4.8-.4z"/><path class="st12" d="M252 203.1s-.1-.3-.4-.8c-.3-.6-.6-1.3-1-2.1-.9-1.9-2-4.5-3.3-7.4l.1.1c-1.5-.1-3-.2-4.7-.3-4.4-.3-8.3-.6-11.3-.8-1.4-.1-2.5-.2-3.4-.3-.4 0-.7-.1-.9-.1h-.3 1.2c.9 0 2 .1 3.4.2 3 .2 6.9.4 11.3.7 1.6.1 3.2.2 4.7.3h.1v.1c1.3 2.9 2.4 5.5 3.3 7.4.4.9.7 1.6.9 2.2.2.5.3.8.3.8z"/><path class="st11" d="m330.8 271.4-13.6 17.1s13.7 18.2 11.5 21.6l-35-23.8 20.1-27.5 17 12.6z"/><g class="st16"><path class="st13" d="M307.8 279.2c-.8-.3-1.8.1-2.1.9-.3.8.1 1.8.9 2.1.8.3 2-.1 2.3-.9.2-.8-.3-2-1.1-2.1"/></g><g class="st16"><path class="st13" d="m293.8 286.3 2-2.8 33 24.2s.8 1.3 0 2.8l-35-24.2z"/></g><path class="st12" d="M317.9 288.7c-.1.2-1-.4-2.2-.4-1.2-.1-2.2.3-2.3.1-.1-.1.9-1 2.3-.8 1.5.1 2.4 1 2.2 1.1zM320.4 292.8c-.1.2-1-.1-2.1.2-1.1.3-1.8.9-2 .8-.2-.1.4-1.1 1.8-1.5 1.4-.3 2.4.4 2.3.5zM319.3 298.6c-.2-.1.2-1.1 1.3-1.7 1.1-.6 2.1-.4 2.1-.2s-.9.3-1.8.8c-.9.6-1.5 1.2-1.6 1.1zM320.6 284.5c-.2.1-.8-.7-1.8-1.3-1-.6-1.9-.9-1.9-1.1 0-.2 1.2-.3 2.3.5 1.2.7 1.5 1.8 1.4 1.9zM323.2 281c0 .1-.8-.3-1.7-1.3-.5-.5-.9-1.1-1.4-1.9l-.6-1.2c-.1-.2-.2-.5-.2-.8-.1-.3.2-.8.6-.9.4-.1.8 0 1 .2.3.2.4.4.6.6.3.4.6.8.8 1.1.4.8.7 1.5.8 2.2.3 1.3.1 2.1 0 2.1s-.1-.8-.5-2c-.2-.6-.5-1.3-.9-2-.2-.3-.5-.7-.8-1-.3-.4-.6-.6-.8-.5-.1 0-.1.1-.1.2 0 .2.1.4.2.6.2.4.3.8.5 1.2.4.7.8 1.4 1.2 1.8.8 1 1.4 1.5 1.3 1.6z"/><path class="st12" d="M322.9 281.1c-.1 0 0-.9.8-2 .4-.6.9-1.2 1.6-1.7.4-.3.8-.5 1.2-.7.4-.2 1-.5 1.7-.1.3.2.4.7.4 1-.1.3-.2.5-.3.8-.2.4-.5.8-.8 1.1-.6.6-1.4 1-2 1.2-1.3.4-2.2.1-2.1 0 0-.1.8 0 2-.5.6-.2 1.2-.6 1.7-1.2.3-.3.5-.6.7-1 .2-.4.3-.8.1-.9-.2-.1-.7-.1-1 .1-.4.2-.8.4-1.1.6-.7.5-1.2 1-1.6 1.5-1 1.1-1.2 1.8-1.3 1.8z"/><path class="st14" d="m334.5 265.6-4.3 5.4-16-11.9 2.9-4.4z"/></g><path class="st12" d="M469.3 468.9c0 .1-97.1.3-216.7.3-119.7 0-216.8-.1-216.8-.3 0-.1 97-.3 216.8-.3 119.6 0 216.7.1 216.7.3z" id="Floor"/><g id="Plant"><path class="st11" d="M116.3 392.5c4.1-2.1 8.8-2.4 13.3-1.6 2.4.4 4.9 1.1 6.6 2.9 1.6 1.8 2 5 .1 6.6-1.1.9-2.7 1.1-4.2 1.1-3.5 0-7.4-.7-10.3 1.5-1.6 1.2-2.7 3.2-4.6 3.8-1.9.6-4-.5-5-2.2-1-1.7-1-3.8-.6-5.7.1-.1.6-4.3 4.7-6.4zM107 374.5c2.5 3.5 7.3 2.4 9.5.2 2.2-2.2 3.2-5.3 4-8.3 2-6.8 3.9-14 2.5-21-.4-2.1-1.2-4.2-2.7-5.7-1.5-1.5-3.7-2.5-5.8-1.9-2.4.6-3.9 3-5 5.3-3.2 6.7-4.9 14-4.9 21.4 0 3.6.4 7.2 2.4 10M100.2 379.6c2.7-3.2 3.2-7.9 2-11.9-1.2-4-3.9-7.4-7-10.2-3.7-3.3-8-5.8-12.6-7.4-1.8-.6-3.7-1.1-5.7-1-1.9.2-3.9 1.2-4.8 2.9-1.3 2.5-.1 5.6 1.3 8.1 2.4 4.4 5.2 8.6 8.3 12.6 2.5 3.2 5.3 6.3 9.1 7.8 3.8 1.4 7.7 1.3 9.7-1.3"/><path class="st12" d="M106.8 428s.1-.6.2-1.6c.1-1.2.3-2.6.4-4.4.2-1.9.5-4.1 1-6.4.5-2.4 1.3-5 2.3-7.6 1.1-2.6 2.4-5 3.9-6.9 1.5-1.9 3.3-3.3 4.9-4.1 1.6-.8 3.1-1.1 4.1-1.3 1-.1 1.6-.2 1.6-.2s-.6-.1-1.6 0-2.6.3-4.3 1.1c-1.7.8-3.6 2.2-5.2 4.1-1.6 1.9-2.9 4.4-4 7-1 2.7-1.8 5.3-2.3 7.7-.5 2.4-.7 4.7-.9 6.5-.1 1.9-.2 3.4-.2 4.4.1 1.1.1 1.7.1 1.7z"/><path class="st12" d="M107.1 424.6v-2.8c0-1.9 0-4.5.1-7.9.2-6.6.7-13.8 1.8-23.8 1-9.5 2.4-20.5 3.9-27.6.3-1.6.6-3.1.9-4.4.3-1.3.5-2.4.8-3.3.2-.8.4-1.5.5-2.1.1-.5.2-.7.1-.7 0 0-.1.2-.3.7-.2.5-.4 1.2-.6 2-.3.9-.6 2-.9 3.3-.3 1.3-.7 2.7-1 4.4-1.5 6.5-3 15.6-4.1 25.6-1.1 10.1-1.6 19.3-1.6 25.9 0 3.3 0 6 .1 7.9.1.9.1 1.6.1 2.1.2.5.2.7.2.7z"/><path class="st12" d="M107.2 406.9v-2.2c-.1-1.4-.3-3.5-.7-6.1-.4-2.5-1-5.5-2-8.8-.4-1.5-1.4-5.1-3.7-10.4-3.1-7.3-7.2-13.2-10.8-16.9-.8-1-1.8-1.7-2.5-2.4-.4-.3-.7-.7-1.1-.9-.4-.2-.7-.5-1-.7-1.2-.8-1.9-1.2-1.9-1.2-.1.1 2.7 1.8 6.2 5.5s7.5 9.6 10.6 16.8c1.7 3.9 2.9 7.4 3.7 10.3 1 3.2 1.6 6.2 2.1 8.7.5 2.5.7 4.6.9 6 0 1.5.1 2.3.2 2.3zM90.1 438.2l1.7 24.3h31.3l1.7-24.3z"/><path class="st12" d="M87 428.6h41.5v9.6H87z"/><path class="st17" d="M87 461.5v2.7h40.9v-2.7zM90.9 468.9l-1.9-4.7h37.4l-2.3 4.7z"/><path class="st5" d="M124.2 446.1s0 .1-.1.2c-.1.2-.3.4-.5.6-.4.6-1.1 1.3-1.8 2.3l-.1.1-.1-.1c-1.1-1.6-2.7-3.7-4.5-6.2h.3c-1.3 1.9-2.8 4-4.4 6.2l-.1.2-.2-.2c-1.6-1.9-3.4-4-5.2-6.2h.3c-.1.1-.2.2-.3.4-1.6 2-3.2 4-4.7 5.8l-.2.2-.1-.2c-1.6-2.2-3.1-4.3-4.4-6.2h.3c-2.2 2.5-4 4.6-5.4 6.2l-.1.1-.1-.1c-.7-1.2-1.3-2.2-1.7-2.9-.2-.3-.3-.6-.4-.8-.1-.2-.1-.3-.1-.3l.2.2c.1.2.3.4.5.7.4.7 1 1.6 1.8 2.8h-.2c1.4-1.6 3.2-3.8 5.3-6.3l.1-.2.1.2c1.3 1.9 2.8 4 4.4 6.2h-.3c1.5-1.9 3-3.8 4.7-5.9.1-.1.2-.2.3-.4l.1-.2.2.2c1.8 2.2 3.6 4.3 5.2 6.2h-.3c1.6-2.2 3.1-4.3 4.4-6.2l.1-.2.1.2c1.8 2.5 3.3 4.6 4.4 6.2h-.2c.8-1 1.4-1.7 1.9-2.3.2-.2.4-.4.5-.6.3.4.3.3.3.3z"/><path class="st17" d="M125.3 438c0 .1-7.8.2-17.5.2s-17.5-.1-17.5-.2 7.8-.2 17.5-.2c9.6 0 17.5.1 17.5.2z"/><path class="st12" d="M126.8 464.5c0 .1-8.5.2-19 .2s-19-.1-19-.2 8.5-.2 19-.2 19 .1 19 .2z"/></g></svg>