<svg xmlns="http://www.w3.org/2000/svg" viewBox="0 0 500 500" style="enable-background:new 0 0 500 500" xml:space="preserve"><style>.st0{fill:#e0e0e0}.st0,.st1{opacity:.1}.st2{fill:#ebebeb}.st3{fill:#fafafa}.st4{fill:#e0e0e0}.st5{fill:#f5f5f5}.st6{fill:#fff}.st7{fill:none;stroke:#fbfbfb;stroke-width:.25;stroke-miterlimit:10}.st10{fill:#263238}.st11{fill:#ffbe9d}.st12{fill:#eb996e}.st13{fill:#455a64}.st14{fill:#797aed}.st15{opacity:.4}.st16{fill:#e8505b}.st19{fill:#c3c6fc}.st20{opacity:.3}</style><g id="Background_Complete"><path class="st0" d="M97 287h107.8v178.5H97z"/><g class="st1"><path class="st2" d="M93.5 287h107.8v178.5H93.5z"/></g><g class="st1"><path class="st3" d="M98 290.6h98.6v171.2H98z"/></g><g class="st1"><path class="st2" d="M116.8 312.9h60.6v126.7h-60.6z"/></g><g class="st1"><path class="st4" d="M116.8 394.7c-.1-11.8 10.5-23.4 22.2-25 5.6-.8 11.5.3 16.8-1.8 9.3-3.8 12.3-16.2 21.7-19.9l.4 91.6h-61.1v-44.9z"/></g><g class="st1"><path class="st4" d="M39.8 236.8h136.9v226.6H39.8z"/><path class="st2" d="M35.2 236.8h136.9v226.6H35.2z"/><g class="st1"><path class="st3" d="M41.1 241.3h125.2v217.4H41.1z"/></g><path class="st2" d="M64.9 269.6h77v160.9h-77z"/><path class="st4" d="M64.9 373.5c-.2-15 13.3-29.7 28.2-31.8 7.1-1 14.6.4 21.3-2.3 11.8-4.9 15.6-20.6 27.5-25.2l.5 116.3H64.9v-57z"/></g><g class="st1"><path class="st4" d="M161.7 63.4h47v68.1h-47z"/></g><g class="st1"><path class="st5" d="M159.3 63.4h47v68.1h-47z"/></g><g class="st1"><path class="st6" d="M165.2 70.8h35.3v53.3h-35.3z"/></g><path class="st0" d="M200.5 124.1v-15c0-9.4 0-22.7-.1-38.4l.1.1h-35.3l.1-.1V124l-.1-.1c10.7 0 19.6 0 25.7.1h9c.4.1.6.1.6.1H191c-6.1 0-15 0-25.8.1h-.1V70.7h35.5v.1c0 15.7 0 29.1-.1 38.5V124.1z"/><path class="st0" d="M206.4 63.4s-.3.5-.8 1.2-1.3 1.7-2.2 2.8c-.9 1.1-1.7 2-2.3 2.7-.6.7-1 1.1-1 1.1s.3-.5.9-1.2c.6-.8 1.4-1.7 2.3-2.7.9-1 1.6-2 2.3-2.7.4-.8.8-1.2.8-1.2z"/><path class="st6" d="M200.7 123.9c1.8 2.8 3.8 5.4 6.2 7.7"/><path class="st0" d="M206.8 131.6s-.4-.3-1.1-1c-.6-.6-1.5-1.6-2.3-2.6-.9-1.1-1.6-2.1-2-2.8-.5-.8-.7-1.2-.7-1.3l.9 1.2c.5.7 1.2 1.7 2.1 2.8.8 1.1 1.7 2 2.3 2.7.5.6.8 1 .8 1z"/><path class="st6" d="M159.3 131.4c2.1-2.5 4.1-5.1 6.2-7.6"/><path class="st0" d="M165.5 123.8c.1 0-1.3 1.8-3 3.9-1.7 2.1-3.1 3.8-3.2 3.7-.1 0 1.3-1.8 3-3.9 1.7-2 3.1-3.7 3.2-3.7zM159.3 63.4c.1 0 1.4 1.6 3 3.6s2.8 3.7 2.8 3.7c-.1 0-1.4-1.6-3-3.6s-2.8-3.6-2.8-3.7z"/><g class="st1"><path class="st3" d="M177.7 81.6h11.8v33.6h-11.8z"/></g><g class="st1"><path class="st4" d="M406.3 133.1h70.3V235h-70.3z"/></g><g class="st1"><path class="st5" d="M402.7 133.1H473V235h-70.3z"/></g><g class="st1"><path class="st6" d="M411.5 144.2h52.8V224h-52.8z"/></g><path class="st0" d="M464.3 224V201.7c0-14.1-.1-34-.1-57.5l.2.2h-52.8l.2-.2V224l-.2-.2c16.1 0 29.3.1 38.5.1H463.5c.5.1.8.1.8.1H450c-9.2 0-22.4 0-38.6.1h-.2V144h53.2v.2c0 23.5-.1 43.5-.1 57.6V224z"/><path class="st0" d="M473.2 133.1s-.4.7-1.3 1.8c-.8 1.1-2 2.6-3.3 4.2-1.3 1.6-2.6 3-3.5 4-.9 1-1.5 1.6-1.5 1.6s.5-.7 1.3-1.8c.9-1.1 2.1-2.6 3.4-4.1 1.3-1.6 2.4-3 3.4-4.1.9-1 1.5-1.6 1.5-1.6z"/><path class="st6" d="M464.6 223.7c2.6 4.2 5.7 8 9.2 11.5"/><path class="st0" d="M473.8 235.3s-.7-.5-1.6-1.5c-.9-1-2.2-2.3-3.5-3.9-1.3-1.6-2.3-3.1-3.1-4.3-.7-1.1-1.1-1.9-1.1-1.9s.5.6 1.3 1.7 1.9 2.6 3.1 4.2c1.3 1.6 2.5 3 3.4 4 1 1 1.5 1.6 1.5 1.7z"/><path class="st6" d="M402.7 235c3.1-3.8 6.1-7.6 9.2-11.4"/><path class="st0" d="M411.9 223.6c.1.1-1.9 2.7-4.5 5.8-2.5 3.1-4.7 5.6-4.8 5.6-.1-.1 1.9-2.7 4.5-5.8 2.6-3.2 4.7-5.7 4.8-5.6zM402.7 133.1c.1-.1 2.1 2.3 4.5 5.3s4.3 5.5 4.2 5.6c-.1.1-2.1-2.3-4.5-5.3s-4.3-5.5-4.2-5.6z"/><g class="st1"><path class="st4" d="M430.2 160.4h17.7v50.2h-17.7z"/></g><g class="st1"><path class="st4" d="M388.9 30.6h47v68.1h-47z"/></g><g class="st1"><path class="st5" d="M386.5 30.6h47v68.1h-47z"/></g><g class="st1"><path class="st6" d="M392.4 38h35.3v53.3h-35.3z"/></g><path class="st0" d="M427.7 91.3v-15c0-9.4 0-22.7-.1-38.4l.1.1h-35.3l.1-.1v53.3l-.1-.1c10.7 0 19.6 0 25.7.1h9c.3.1.6.1.6.1h-9.5c-6.1 0-15 0-25.8.1h-.1V37.9h35.5v.1c0 15.7 0 29.1-.1 38.5V91.3z"/><path class="st0" d="M433.6 30.6s-.3.5-.8 1.2-1.3 1.7-2.2 2.8c-.9 1.1-1.7 2-2.3 2.7-.6.7-1 1.1-1 1.1s.3-.5.9-1.2c.6-.8 1.4-1.7 2.3-2.7.9-1 1.6-2 2.3-2.7.4-.8.8-1.2.8-1.2z"/><path class="st6" d="M427.8 91.1c1.8 2.8 3.8 5.4 6.2 7.7"/><path class="st0" d="M434 98.8s-.4-.3-1.1-1c-.6-.6-1.5-1.6-2.3-2.6-.9-1.1-1.6-2.1-2-2.8-.5-.8-.7-1.2-.7-1.3l.9 1.2c.5.7 1.2 1.7 2.1 2.8.8 1.1 1.7 2 2.3 2.7.4.6.8 1 .8 1z"/><path class="st6" d="M386.5 98.6c2.1-2.5 4.1-5.1 6.2-7.6"/><path class="st0" d="M392.7 91c.1 0-1.3 1.8-3 3.9-1.7 2.1-3.1 3.8-3.2 3.7-.1 0 1.3-1.8 3-3.9 1.7-2.1 3.1-3.7 3.2-3.7zM386.5 30.6c.1 0 1.4 1.6 3 3.6s2.8 3.7 2.8 3.7c-.1 0-1.4-1.6-3-3.6s-2.8-3.7-2.8-3.7z"/><g class="st1"><path class="st3" d="M404.8 48.8h11.8v33.6h-11.8z"/></g></g><path class="st10" d="M467.6 463.9c0 .1-97.4.3-217.5.3-120.2 0-217.6-.1-217.6-.3 0-.1 97.4-.3 217.6-.3 120 .1 217.5.2 217.5.3z" id="Floor"/><g id="Character"><path class="st11" d="m133.2 117.2-2.9 35.7c-.5 6.1 4.2 11.3 10.3 11.5 5.7.2 10.5-4.1 11-9.8.2-2.7.4-4.9.4-5.2 0 0 9.2-.1 10.5-9 .7-4.3 1.3-13.3 1.8-21.5.5-8.8-5.8-16.5-14.4-17.7l-.9-.1c-9.4-.8-15.3 6.7-15.8 16.1z"/><path class="st12" d="M152 149.3s-5.7-.3-11.2-5c0 0 1.8 6.8 10.9 7.3l.3-2.3z"/><path class="st10" d="M161 123.5c-.1.7-.7 1.2-1.4 1.1-.7-.1-1.2-.7-1.2-1.3.1-.7.7-1.2 1.4-1.1.7 0 1.3.6 1.2 1.3z"/><path class="st10" d="M162 122.5c-.2.1-1-.7-2.4-.9-1.4-.2-2.5.4-2.6.2-.1-.1.1-.4.6-.6.5-.3 1.3-.5 2.1-.3.9.1 1.5.5 1.9.9.4.3.5.6.4.7zM147.7 122.2c-.1.7-.7 1.2-1.4 1.1-.7-.1-1.2-.7-1.2-1.3.1-.7.7-1.2 1.4-1.1.7 0 1.2.6 1.2 1.3zM148.3 121c-.2.1-1-.7-2.4-.9-1.4-.2-2.5.4-2.6.2-.1-.1.1-.4.6-.6.5-.3 1.3-.5 2.1-.3.9.1 1.5.5 1.9.9.4.3.5.6.4.7zM151.7 132.2c0-.1.9-.1 2.3-.1.4 0 .7 0 .8-.2.1-.2 0-.6-.1-1.1-.2-.9-.4-1.8-.7-2.8-.9-4-1.5-7.3-1.3-7.3.2 0 1 3.2 1.9 7.2.2 1 .4 1.9.6 2.8.1.4.2.9 0 1.4-.1.2-.4.4-.7.4h-.6c-1.3-.1-2.2-.2-2.2-.3zM149.1 118.2c-.2.4-1.5 0-3.2-.1-1.6-.1-3 .2-3.2-.1-.1-.2.2-.5.8-.8.6-.3 1.5-.5 2.4-.5 1 0 1.8.3 2.4.6.6.4.9.7.8.9zM161.4 117c-.3.3-1.2-.2-2.3-.4-1.1-.2-2.1-.1-2.3-.4-.1-.2.1-.5.6-.7.5-.2 1.2-.4 2-.2.8.1 1.4.5 1.8.9.3.3.4.6.2.8z"/><path class="st11" d="M133 124c-.1-.1-5.9-2.7-6.6 3.4-.7 6.1 5.6 5.6 5.7 5.4 0-.2.9-8.8.9-8.8z"/><path class="st12" d="M130.4 130.3s-.1.1-.3.1c-.2.1-.5.1-.8-.1-.6-.3-1.1-1.4-1-2.5 0-.6.2-1.1.5-1.5.2-.4.6-.7.9-.7.3 0 .5.2.6.4.1.2 0 .3 0 .3s.1-.1.1-.3c0-.1-.1-.3-.2-.4-.1-.1-.3-.2-.6-.2-.5 0-1 .4-1.2.8-.3.5-.5 1-.6 1.7-.1 1.2.4 2.5 1.3 2.8.4.2.8.1 1-.1.3-.2.4-.3.3-.3z"/><path class="st10" d="M129.6 123.3c1-.1 2.5 1 2.7 1.9.3.9.2 1.9.5 2.9.3.9 1.1 1.8 2 1.8.7-.1 1.2-.6 1.5-1.2.3-.6.3-1.3.3-2 0-2.9-.1-5.8.1-8.7.3-2.9 1.1-5.8 3-8.1 1.9-2.2 4.9-3.6 7.7-3 1.9.4 3.5 1.7 5.3 2.2 2.2.6 4.7.2 6.5-1.2.1 0 .2-.1.3-.2.7-.4 1-1.1.9-1.8-.1-.2-.1-.5-.3-.6-3.3-4-9.9-5.9-15-5.4s-10.3 3.4-13.1 7.7c-2.6 4.3-2.9 10.8-2.4 15.7M154.7 136.2c0 .1-.9-.1-2-.4-1-.3-1.9-.7-1.8-.8 0-.1.9.1 2 .4 1 .4 1.8.7 1.8.8z"/><path class="st12" d="M161.6 142.8s-.1.7-.7 1.7-1.7 2.1-3.2 3c-1.5.9-3 1.3-4.1 1.6-1.1.3-1.8.4-1.8.3 0-.1.6-.3 1.7-.6 1-.3 2.5-.8 3.9-1.7 1.4-.8 2.5-1.9 3.1-2.8.8-.9 1.1-1.6 1.1-1.5z"/><path class="st13" d="M133.8 105.4c.1-.1 1.6 1.2 3.8 1.9 2.3.8 4.2.5 4.2.7 0 .1-2 .6-4.4-.2-2.3-.7-3.7-2.3-3.6-2.4z"/><path class="st13" d="M153.5 109c-.1.1-.8-.8-2.4-1.6-1.6-.9-4-1.7-6.8-1.4-1.4.1-2.7.4-3.9.6-1.2.2-2.3.2-3.3.1-.9-.1-1.7-.4-2.1-.6-.5-.3-.7-.5-.7-.5 0-.1 1 .6 2.8.8.9.1 2 0 3.2-.2 1.2-.2 2.5-.5 3.9-.6 2.9-.3 5.4.6 7 1.6.8.5 1.4 1 1.7 1.3.5.3.7.5.6.5z"/><path class="st10" d="M134.3 105.8c.1-1.3.2-2.6 0-3.8-.2-1.3-.7-2.5-1.7-3.4-1.2-1.1-2.9-1.4-4.5-1-1.6.4-2.9 1.5-3.7 2.9-1.1 1.8-1.2 4.2-.1 6 1.1 1.8 3.6 2.7 5.5 1.7.7-.4 1.2-.9 1.9-1.3s1.6-.5 2.1 0"/><path class="st14" d="M134.7 104.1c.1.1-.4.9-1.2 1.9-.8.9-1.5 1.6-1.6 1.5-.1-.1.5-.9 1.2-1.8.8-1 1.5-1.7 1.6-1.6z"/><path class="st13" d="M127.2 98c.1.1-.6.4-1.2 1.4-.2.5-.5 1.1-.4 1.8.1.7.5 1.4 1.1 2 1.2 1.2 2.8 1.6 3.9 1.9 1.1.3 1.8.4 1.8.5 0 .1-.7.1-1.9-.1-1.1-.2-2.8-.6-4.2-1.9-.7-.7-1.1-1.4-1.2-2.3-.1-.8.2-1.6.5-2.1.8-1 1.6-1.2 1.6-1.2z"/><path class="st13" d="M130.6 97.5c0 .1-.6.3-1 1-.2.4-.4.9-.4 1.4 0 .6.2 1.2.5 1.8.6 1.2 1.6 2.1 2.4 2.6.8.5 1.3.7 1.3.8 0 .1-.6 0-1.5-.5-.8-.4-2-1.3-2.7-2.6-.3-.7-.5-1.4-.5-2.1 0-.7.3-1.2.6-1.6.5-.8 1.3-.8 1.3-.8z"/><path class="st11" d="m153.5 409.9-8.3 38 14.2.1 10.4-33.3z"/><path class="st14" d="m166.1 432.9-5.2 17.3s15.8 11.1 15.2 14.4l-33.9-8.9 7-27.3 16.9 4.5z"/><path class="st4" d="M150.8 446c-.7 0-1.4.6-1.4 1.3 0 .7.6 1.4 1.3 1.4.7 0 1.5-.7 1.4-1.4-.1-.7-.8-1.4-1.5-1.3"/><path d="m142.1 455.7.8-2.7 32.2 9.5s1.3 1.1.9 2.1l-33.9-8.9z" class="st15"/><path class="st10" d="M161.5 450.2c0 .2-.9 0-1.9.3-1 .3-1.6.9-1.7.8-.1-.1.4-1 1.5-1.4 1.2-.3 2.1.2 2.1.3zM164.6 452.6c0 .2-.8.3-1.5.8-.8.5-1.1 1.3-1.3 1.2-.2 0 0-1 .9-1.7 1-.6 2-.4 1.9-.3zM165.5 457.4c-.2 0-.2-.9.5-1.7.7-.8 1.5-1 1.6-.8.1.2-.6.5-1.1 1.2-.6.7-.8 1.3-1 1.3zM162.2 446.1c-.1.1-.8-.3-1.8-.5-.9-.2-1.8-.1-1.8-.2-.1-.1.8-.6 1.9-.3 1.2.2 1.8.9 1.7 1zM163.2 442.6c0 .1-.7 0-1.7-.5-.5-.2-1.1-.6-1.6-1-.3-.2-.6-.5-.8-.8-.1-.1-.3-.3-.4-.5-.1-.2-.1-.7.2-.9.2-.2.6-.2.8-.2.3.1.4.2.6.3.4.2.7.4 1 .6.6.5 1 1 1.3 1.4.6.9.7 1.6.6 1.6-.1 0-.3-.6-1-1.4-.3-.4-.7-.8-1.3-1.3l-.9-.6c-.3-.2-.6-.3-.8-.1 0 .1-.1.1 0 .2s.2.3.3.4c.2.3.5.5.8.7.5.4 1 .8 1.5 1.1.8.7 1.4.9 1.4 1z"/><path class="st10" d="M162.9 442.8c-.1 0-.2-.7 0-1.8.1-.5.3-1.2.7-1.8.2-.3.4-.6.7-.9.3-.3.6-.7 1.3-.6.3.1.5.4.6.7.1.3 0 .5 0 .7 0 .4-.2.8-.3 1.1-.3.7-.7 1.2-1.2 1.6-.9.7-1.6.7-1.6.7 0-.1.6-.3 1.4-1 .4-.4.7-.8 1-1.5.1-.3.2-.6.2-1s0-.7-.2-.7-.5.1-.7.4c-.3.3-.5.5-.7.8-.4.6-.6 1.1-.8 1.6-.3 1-.3 1.7-.4 1.7z"/><path class="st11" d="m116.2 416.4.8 38.9 13.9-3.2 2.2-34.8z"/><path class="st14" d="m133.8 435.8-1 18s18 7 18.2 10.4l-35-.6.4-28.2 17.4.4z"/><path class="st4" d="M122 452.2c-.7.2-1.2.9-1 1.6.1.7.9 1.2 1.6 1 .7-.2 1.3-1 1.1-1.7-.2-.7-1.1-1.2-1.8-.9"/><path d="m115.9 463.7.1-2.8 33.5 1.7s1.5.7 1.4 1.8l-35-.7z" class="st15"/><path class="st10" d="M133.4 453.7c0 .2-.9.2-1.7.8-.9.5-1.3 1.2-1.5 1.2-.2 0 .1-1.1 1.2-1.7 1-.7 2-.4 2-.3zM137 455.3c0 .2-.7.4-1.3 1.2-.6.7-.8 1.5-.9 1.5-.2 0-.3-1 .5-1.9.7-.9 1.7-1 1.7-.8zM139 459.7c-.2 0-.4-.8.1-1.8.4-.9 1.3-1.3 1.3-1.1.1.1-.4.6-.8 1.4-.3.8-.4 1.5-.6 1.5zM133.1 449.6c-.1.2-.9-.1-1.8 0-1 0-1.7.3-1.8.2-.1-.1.6-.7 1.8-.8 1.1-.1 1.9.4 1.8.6zM133.3 445.9c0 .1-.7.2-1.8 0-.5-.1-1.2-.3-1.8-.6-.3-.2-.7-.3-1-.6-.2-.1-.3-.2-.5-.4s-.3-.6-.1-.9c.2-.3.5-.4.8-.4.3 0 .5.1.7.1.4.1.8.2 1.1.4a5 5 0 0 1 1.6 1.1c.8.8 1.1 1.4 1 1.4-.1.1-.5-.5-1.3-1.1-.4-.3-.9-.6-1.5-.9-.3-.1-.6-.2-1-.3-.4-.1-.7-.1-.8.1v.2c.1.1.2.2.4.3.3.2.6.4.9.5.6.3 1.2.5 1.7.7.9.3 1.6.3 1.6.4z"/><path class="st10" d="M133 446.2c-.1 0-.4-.6-.4-1.7 0-.6 0-1.2.3-1.9.1-.3.3-.7.5-1.1.2-.3.5-.8 1.1-.9.3 0 .6.3.7.5.1.2.1.4.2.6.1.4 0 .8 0 1.2-.1.7-.4 1.4-.8 1.8-.7.9-1.4 1.1-1.4 1-.1-.1.5-.4 1.1-1.3.3-.4.5-1 .6-1.6v-1c0-.4-.2-.7-.3-.6-.2 0-.5.3-.6.6-.2.3-.3.6-.5.9-.2.6-.3 1.2-.4 1.7-.1 1.1 0 1.8-.1 1.8zM161.5 266.4s27.7 71.6 25.5 91.7c-2.3 20.1-16.9 85-16.9 85l-23.5-8.3 9.4-80-18.1-55.1 5.7-31.2 17.9-2.1z"/><path class="st10" d="M108.2 260.4s-.1 14.1 1.6 19.9l1.4 8.4c-1 46-.7 154.4-.7 154.4l31.4.4 9.8-179.4-43.5-3.7z"/><path class="st13" d="M152.5 280.8v.4c0 .3 0 .7-.1 1.2-.1 1.1-.2 2.7-.4 4.7-.3 4.1-.8 10.1-1.3 17.4-1.1 14.7-2.6 35-4 57.5-1.3 22.5-2.5 42.8-3.4 57.5-.4 7.3-.8 13.3-1 17.4-.1 2-.2 3.6-.3 4.7 0 .5-.1.9-.1 1.2v.4-1.6c0-1.1.1-2.7.2-4.7.2-4.1.5-10.1.9-17.4.8-14.7 1.9-35.1 3.3-57.5 1.4-22.5 2.9-42.8 4.1-57.5.6-7.3 1.1-13.3 1.5-17.4.2-2 .3-3.6.5-4.7.1-.5.1-.9.1-1.2v-.4zM127.5 285.1c0-.1 1.2-.4 3.1-1.1.9-.3 2.1-.8 3.2-1.4 1.1-.7 2.3-1.6 3.1-2.9.8-1.3 1.2-2.7 1.4-4 .2-1.3.2-2.5.1-3.5-.1-2-.2-3.3-.2-3.3s.1.3.2.9c.1.6.2 1.4.3 2.4.1 1 .1 2.2 0 3.6-.2 1.3-.5 2.9-1.4 4.2-.9 1.4-2.1 2.3-3.3 3-1.2.7-2.3 1.1-3.3 1.4-1 .3-1.8.5-2.3.6-.6.1-.9.1-.9.1zM160.4 367.1s-.3-.4-.6-1.3c-.4-.8-.9-2-1.5-3.6-1.2-3-2.8-7.2-4.3-12-1.5-4.7-2.7-9.1-3.5-12.2-.4-1.6-.7-2.9-.9-3.8-.2-.9-.3-1.4-.2-1.4 0 0 .2.5.4 1.3.3 1 .6 2.2 1 3.7.9 3.1 2.1 7.4 3.6 12.2 1.5 4.7 3 9 4.1 12 .5 1.5 1 2.7 1.3 3.6.5 1 .6 1.5.6 1.5z"/><path class="st16" d="M147.6 161.9s43.1 41 42.9 50.6c-.3 9.6-9.4 12.1-12.4 11.9-3-.2-26.8-24.3-26.8-24.3l-3.7-38.2z"/><path d="M147.6 161.9s43.1 41 42.9 50.6c-.3 9.6-9.4 12.1-12.4 11.9-3-.2-26.8-24.3-26.8-24.3l-3.7-38.2z" style="fill:#5c5fb0"/><path class="st14" d="m127.8 152.7 2.7-9.7 21.2 8.6-.5 10.1-10.2 3.5-10.4-5.7z"/><path class="st14" d="m161.5 266.4-3.6-82c-.5-9.8-3.6-21.4-10-28.8l-.1-1.3-17.6-3.4s-20.9 4.8-22.1 22.9c-.9 14.4-2.2 71.6-2.2 92.7h55.6z"/><path class="st10" d="M134.1 150.8c-.1 0 .1-1.3.5-2.8.4-1.5.8-2.7.9-2.7.1 0-.1 1.3-.5 2.8-.4 1.5-.8 2.7-.9 2.7zM142.1 147.7c.1 0 0 1.3-.3 2.8-.3 1.5-.6 2.7-.7 2.7-.1 0 0-1.3.3-2.8.2-1.5.5-2.7.7-2.7zM148.2 150.4c.1 0 0 1.1-.1 2.5s-.1 2.5-.2 2.5-.3-1.1-.2-2.5c.1-1.4.4-2.5.5-2.5z"/><path d="M117 186c7 13.5 15.4 25.5 25 37.3 2.5 3 5.1 6.1 8.6 7.9 3.5 1.8 5.6 1.2 8.9-1-3.8-1-4.8-1.3-8.1-3.5-3.2-2.1-6-5.1-8.4-8.2-8.5-10.5-16.7-21.4-25.2-31.9" style="opacity:.2"/><path class="st10" d="M125.5 214.2c.1.1-1.4 1.4-3.4 2.7-2 1.3-3.7 2.1-3.8 2-.1-.1 1.5-1.2 3.5-2.4 2-1.4 3.6-2.4 3.7-2.3zM115.9 204.7c-.1 0-.2-1.5-.2-3.4s.2-3.4.3-3.4c.1 0 .2 1.5.2 3.4s-.1 3.4-.3 3.4zM116.2 240.7c-.1.1-1.5-1.3-2.8-3.3-1.3-2.1-1.8-3.9-1.7-4 .1-.1.9 1.7 2.1 3.7 1.3 2 2.5 3.5 2.4 3.6zM137.2 235c.1.1-1.9 1.2-4.2 2.6-2.3 1.4-4.2 2.7-4.2 2.5-.1-.1 1.6-1.6 4-3 2.3-1.4 4.4-2.3 4.4-2.1zM133.4 226.9c-.1.1-1.5-.6-3.3-1.6-1.7-1-3.1-2-3-2.1.1-.1 1.5.6 3.3 1.6 1.8 1 3.1 2 3 2.1zM134.1 217.9c-.1-.1.5-1.2 1.5-2.5.9-1.3 1.8-2.3 1.9-2.2s-.5 1.2-1.5 2.5-1.8 2.3-1.9 2.2zM117.8 264.9c-.1.1-1.4-.9-2.9-2.2-1.5-1.3-2.7-2.5-2.6-2.6s1.4.9 2.9 2.2c1.5 1.3 2.7 2.5 2.6 2.6zM131.5 258.9c.1.1-.7 1.4-2 2.8s-2.6 2.2-2.7 2.1c-.1-.1 1-1.1 2.3-2.5 1.3-1.3 2.3-2.5 2.4-2.4zM110.3 209.8c.1 0 .2 1.8.1 4s-.2 4-.4 4c-.1 0-.2-1.8-.1-4s.3-4 .4-4zM113 187.6c0 .1-.9.2-2 .2s-2-.2-2-.3c0-.1.9-.2 2-.2 1.2 0 2 .2 2 .3zM116.4 163.6c.1.1-.8 1.3-2 2.7-1.2 1.4-2.3 2.5-2.4 2.4-.1-.1.8-1.3 2-2.7 1.2-1.4 2.3-2.5 2.4-2.4zM129.3 161.1c-.1 0-.4-1.3-.8-3-.4-1.6-.8-3-.6-3 .1-.1.7 1.2 1.2 2.9.3 1.7.3 3.1.2 3.1z"/><path class="st11" d="M162.8 155.9c-3 .1-3.3 0-6.7.4-.5.1-1 .1-1.5.3-.5.2-.9.6-1 1.1-.2.9.8 1.7 1.7 1.9.9.2 1.9 0 2.8.1 1.4.3 2.9.9 3.8 2 2.1 2.6 4 1.2 5.4 2.1l3.4-2.4-1.5-5-6.4-.5"/><path class="st12" d="M167.8 163.8s-.3-.2-1-.2c-.6-.1-1.6.1-2.8-.3-.6-.2-1.1-.6-1.6-1.2-.4-.5-.9-1-1.6-1.4-.7-.4-1.4-.6-2.2-.8-.8-.2-1.6 0-2.6-.1-.9-.1-1.9-.5-2.2-1.5-.2-.5 0-1 .3-1.3.3-.4.7-.6 1.1-.7.8-.2 1.5-.2 2.2-.3.7-.1 1.3-.1 1.9-.1h3.8s-.4.1-1 .1c-.7.1-1.6.1-2.8.2-.6 0-1.2.1-1.9.2s-1.4.1-2.1.3c-.7.2-1.3.8-1.1 1.5.2.7 1.1 1.2 1.9 1.2.8.1 1.7-.1 2.6.1.8.2 1.6.4 2.3.8.7.4 1.3 1 1.7 1.5.4.5.9.9 1.4 1.1 1 .5 2 .3 2.7.5.3.1.6.2.7.2.2.1.3.2.3.2z"/><path class="st10" d="m159.7 153 17-9.1c.5-.3 1.1-.1 1.4.3.4.5.2 1.3-.4 1.6l-15.5 8.1-2.5-.9z"/><path class="st14" d="M106.3 251.4s-.2.1-.6.2c-.4.1-.9.2-1.6.3-1.4.2-3.5.3-6.1-.1-2.5-.4-5.5-1.3-8.5-2.8-1.5-.8-3-1.7-4.5-2.8-.7-.6-1.5-1.1-2.1-1.9-.3-.4-.6-.8-.7-1.4-.1-.5 0-1.1.3-1.6.6-.9 1.7-1.4 2.6-1.5 1-.1 1.9 0 2.8.1 1.8.2 3.6.6 5.2 1.1 3.2 1 6 2.5 8 4.1 2.1 1.5 3.6 3 4.3 4.3.4.6.6 1.1.7 1.5.2.3.3.5.2.5-.1 0-.2-.8-1-2s-2.2-2.6-4.3-4.1c-2.1-1.5-4.8-2.9-8-3.9-1.6-.5-3.3-.9-5.1-1.1-.9-.1-1.8-.2-2.7-.1-.9.1-1.8.5-2.2 1.2-.5.7-.2 1.7.4 2.4.6.7 1.3 1.3 2 1.8 1.4 1.1 2.9 2 4.4 2.8 3 1.6 5.9 2.5 8.4 2.9 2.5.4 4.6.4 6 .3 1.4 0 2.1-.2 2.1-.2z"/><path class="st14" d="M104.1 247.6s-.1-.1-.3-.4c-.2-.3-.5-.7-.8-1.1-.7-1-1.7-2.4-2.7-4.3-1-1.9-2.1-4.3-2.4-7.1-.2-1.4-.2-2.9.2-4.5.1-.4.2-.8.3-1.1.1-.4.3-.8.5-1.1.2-.3.7-.7 1.2-.7s.9.4 1.2.8c3.4 5.6 4.8 11.5 5.1 15.8.2 2.1.1 3.9 0 5.1 0 .6-.1 1.1-.1 1.4 0 .3-.1.5-.1.5v-1.8c0-1.2 0-2.9-.2-5-.4-4.2-1.8-10-5.2-15.5-.2-.3-.5-.5-.8-.5-.3 0-.6.2-.8.5-.4.6-.6 1.4-.8 2.1-.3 1.5-.4 2.9-.2 4.3.3 2.8 1.3 5.1 2.3 7 1 1.9 1.9 3.3 2.5 4.3.3.5.5.8.7 1.2.4 0 .4.1.4.1zM79.9 271c0-.1 1.9 1 5.2 1 1.6 0 3.6-.3 5.6-1.1 2-.8 4-2.2 5.8-3.9 3.6-3.6 5.7-7.8 7.1-10.8.7-1.5 1.2-2.7 1.6-3.6.4-.9.6-1.3.6-1.3s-.1.5-.5 1.4c-.3.9-.8 2.1-1.5 3.7-1.3 3-3.3 7.3-7 11-1.8 1.8-3.9 3.2-6 4-2.1.8-4.1 1.1-5.8 1.1-1.7-.1-3-.4-3.9-.7-.4-.2-.8-.3-1-.5-.1-.2-.2-.3-.2-.3z"/><path class="st14" d="M102 286.5s-.2-.5-.3-1.4c0-.2-.1-.5-.1-.8 0-.3-.1-.6-.1-.9 0-.7-.2-1.4-.2-2.2-.1-3.3.2-7.8 1-12.8.7-5 1.7-9.4 2.5-12.6.4-1.6.7-2.9 1-3.8.3-.9.4-1.3.4-1.4 0 0 0 .5-.2 1.4-.2 1-.5 2.3-.8 3.8-.7 3.2-1.6 7.6-2.3 12.6-.7 4.9-1.2 9.4-1.1 12.7-.1 3.4.3 5.4.2 5.4z"/><path class="st6" d="M124.2 152.9s.1-.1.3-.2c.2-.2.6-.3 1.1-.5 1-.3 2.4-.6 4.2-.3 1.8.3 3.9 1 5.9 2.3 2 1.3 4 3 5.9 4.9 3.9 3.9 6.3 8.4 7.5 11.7.3.8.5 1.6.7 2.3.2.7.3 1.3.4 1.8.2 1 .2 1.5.2 1.5-.1 0-.4-2.2-1.7-5.5-1.3-3.3-3.7-7.6-7.5-11.5-1.9-1.9-3.9-3.6-5.8-4.9-1.9-1.3-3.9-2-5.7-2.3-1.7-.3-3.2-.1-4.1.1-.9.4-1.4.7-1.4.6z"/><path class="st16" d="M149 222.6s.1 23.5-3.8 24.8c-4.9 1.7-39.3 0-39.3 0v8.4s34.2-2.2 37 2.2c2.6 4.2 27.1 80.5 32.1 103.5h15.4s-8.2-39.4-11.1-49.4c-1.5-5.4-6.7-22.4-11.3-35.6-4.3-12.4-6.4-25.4-6.1-38.5l.4-17.5-2.7-45h-9.9l-.7 47.1z"/><path class="st19" d="M149 222.6s.1 23.5-3.8 24.8c-4.9 1.7-39.3 0-39.3 0v8.4s34.2-2.2 37 2.2c2.6 4.2 27.1 80.5 32.1 103.5h15.4s-8.2-39.4-11.1-49.4c-1.5-5.4-6.7-22.4-11.3-35.6-4.3-12.4-6.4-25.4-6.1-38.5l.4-17.5-2.7-45h-9.9l-.7 47.1z"/><path class="st14" d="M180.2 277.4c.9-.4 1.6-1.1 1.9-2 .3-.9.2-1.9-.3-2.8-.6-1-1.7-1.8-2-2.9-.4.3-.6.8-.7 1.3-.7-.7.1-2-.7-2.6-.4-.3-1-.2-1.4.1-1 .6-1.5 1.8-1.6 3-.2 1.8.7 3.7 2.1 4.8.7.5 1.6.9 2.3 1.5"/><path class="st10" d="m178.7 277.9-1.1 14.4c-.1 1 1.1 1.5 1.8.8.2-.2.2-.4.3-.6l1.1-14.4-2.1-.2z"/><path class="st4" d="m178.7 277.9-.4-1.2 2.9.1-.5 1.2z"/><path class="st10" d="M173.4 288.1c-.1-.4-2-14.4-2.6-19.1-.1-.8.5-1.6 1.4-1.6.7 0 1.3.5 1.4 1.2l3.3 20.1-3.5-.6z"/><path class="st16" d="M166.2 283.9h16.2s5 21.1-3.1 28.1l-5-.9-8.1-27.2z"/><path class="st19" d="M166.2 283.9h16.2s5 21.1-3.1 28.1l-5-.9-8.1-27.2z"/><path class="st10" d="M180 311s-.4.1-1.1.1c-.7 0-1.7-.3-2.8-1-1.1-.7-2.2-1.8-3.1-3.2-.9-1.4-1.7-3-2.6-4.7-1.7-3.4-2.9-6.7-3.7-9.1-.4-1.2-.6-2.2-.8-2.8-.2-.7-.2-1.1-.2-1.1s.2.4.4 1c.3.8.6 1.7 1 2.8.8 2.3 2.1 5.5 3.8 8.9.9 1.7 1.7 3.3 2.5 4.7.9 1.4 1.9 2.5 2.9 3.1 1 .7 2 1 2.7 1.1.7.2 1 .1 1 .2z"/><path class="st11" d="M183.9 202.5c.1-.9.2-1.9.6-2.7.4-.8 1.2-1.5 2.1-1.6.9 0 1.9.8 1.7 1.7-.1.5-.5.9-.8 1.4-.9 1.4-.8 3.3-.7 5 .1 1.7 0 3.7-1.4 4.7"/><path class="st14" d="M119 165.7c-6.5 5-7.5 14.4-2.2 20.7l30.8 36.8c6.7 7.9 18 10 27.1 5 7.6-4.2 12-12.6 11.1-21.2l-7.5-33-15.1 2.4 1.8 25.2-25.8-33.1c-4.9-6.5-13.9-7.7-20.2-2.8z"/><path class="st11" d="M184.2 218.3c-3.9-.7-4.6-1.3-8.4-2-1.2-.2-2.7-.9-2.2-2.1.2-.6.9-1.1 1.6-1 1.5 0 3.9.8 5.4.9.4 0 .3-.3.2-.6-2.4-.6-4.8-1-7.2-1.2-1.5-.1-2.2-2.1-1-3.1.1-.1.8-.4 1-.3 1.5.1 1.5.1 3.2.4 4.6.6 4-.3 4-.3 0-.3-5.3-.6-8-.8-.6 0-1.2-.1-1.6-.5-.5-.5-.4-1.4.1-1.9.4-.5 1.1-1 1.8-1 3-.2 12.9.4 12.9.4s1.4 1.7 1.1 5.3c-.4 3.8-2.9 7.8-2.9 7.8z"/><path class="st10" d="M170.8 229.7s-.1 0-.4.1c-.3 0-.7.1-1.2.2-1.1.1-2.6.4-4.7.5-2 .1-4.6.1-7.4-.7-2.8-.8-5.8-2.6-8.4-5.1-2.7-2.5-5.3-5.6-8.1-8.9-2.8-3.3-5.7-6.9-8.7-10.7-3-3.8-6.2-7.8-9.4-12-1.6-2.1-3.2-4.2-4.9-6.4-.4-.5-.8-1.1-1.2-1.6l-.6-.9c-.2-.3-.4-.6-.5-.9-.7-1.2-1.2-2.6-1.5-3.9-.3-1.4-.4-2.8-.3-4.2 0-.7.2-1.4.3-2.1.2-.7.3-1.3.6-2 .2-.7.6-1.3.9-1.9.4-.6.7-1.2 1.1-1.7.8-1.1 1.8-2 2.9-2.8 1.1-.8 2.3-1.4 3.5-1.9 1.2-.4 2.5-.8 3.8-.9 2.6-.3 5.1.2 7.4 1.2 2.2 1 4.1 2.6 5.5 4.4 1.4 1.8 2.8 3.6 4.1 5.3 2.6 3.4 5.1 6.6 7.3 9.5 4.4 5.8 8 10.5 10.5 13.8 1.2 1.6 2.2 2.9 2.8 3.8.3.4.6.8.7 1 .2.2.2.3.2.3l-.3-.3c-.2-.2-.4-.5-.8-1-.7-.9-1.7-2.1-2.9-3.7-2.5-3.3-6.2-7.9-10.6-13.7-2.2-2.9-4.7-6.1-7.3-9.5-1.3-1.7-2.7-3.5-4.1-5.3-1.4-1.8-3.2-3.3-5.4-4.3s-4.7-1.4-7.2-1.2c-1.3.1-2.5.4-3.7.9-1.2.5-2.3 1.1-3.4 1.9-1 .8-2 1.7-2.8 2.8-.4.5-.7 1.1-1.1 1.7-.3.6-.6 1.2-.8 1.8-.3.6-.4 1.3-.6 1.9-.1.7-.3 1.3-.3 2-.1 1.4 0 2.7.3 4.1.3 1.3.8 2.6 1.4 3.8.7 1.2 1.5 2.3 2.3 3.3 1.7 2.2 3.3 4.3 4.9 6.4 3.2 4.2 6.4 8.2 9.4 12 3 3.8 5.9 7.4 8.7 10.7 2.8 3.3 5.4 6.4 8 8.9 2.6 2.5 5.5 4.3 8.3 5.1 2.8.8 5.3.8 7.4.7 2-.1 3.6-.3 4.7-.4.5-.1.9-.1 1.2-.1h.4z"/><path class="st10" d="M167.2 213.2c-.1 0 .7-2.9-.1-6.5-.7-3.6-2.6-5.9-2.5-6 0 0 .6.5 1.2 1.5s1.3 2.5 1.7 4.3c.4 1.8.4 3.5.2 4.7-.2 1.4-.4 2.1-.5 2zM128.1 180.5c-.1.1-1.8-.7-3.9-1.8-2.1-1.1-3.8-2.2-3.7-2.3.1-.1 1.8.7 3.9 1.8 2.1 1.2 3.8 2.2 3.7 2.3zM138.6 186.8c-.1 0-.3-2.1 0-4.7s.8-4.6 1-4.6c.1 0-.2 2.1-.5 4.6-.3 2.6-.4 4.7-.5 4.7zM139.7 199.4c0 .1-1.7-.1-3.7-.8-2-.7-3.5-1.5-3.4-1.7.1-.1 1.6.5 3.6 1.2 1.9.7 3.6 1.1 3.5 1.3zM151.8 206.2c-.1 0-.1-2 .2-4.3.2-2.4.5-4.3.7-4.3.1 0 .1 2-.2 4.3-.2 2.4-.5 4.3-.7 4.3zM154.1 218.6c-.1.1-1.5-1.3-3-3.1-1.6-1.8-2.7-3.4-2.6-3.5.1-.1 1.5 1.3 3 3.1 1.5 1.9 2.7 3.4 2.6 3.5zM170.5 219.9c0 .2-1.7.3-3.8.7-2.1.4-3.8.9-3.8.7-.1-.1 1.6-.9 3.7-1.3 2.2-.3 3.9-.2 3.9-.1zM172.5 197.1c-.1-.1.5-1.6 1.5-3.4 1-1.8 1.8-3.2 2-3.1.1.1-.5 1.6-1.5 3.4-1 1.7-1.8 3.1-2 3.1zM172.7 184.2c-.1.1-1.2-.4-2.6-1.2-1.4-.8-2.4-1.5-2.4-1.6.1-.1 1.2.4 2.6 1.2 1.4.7 2.4 1.5 2.4 1.6z"/><path class="st12" d="M156.5 148.2c-2.1 1.2-3.5 4.2-4.8 6.1-.4.6-.8 1.2-.9 1.9-.1.8.2 1.5.5 2.2.4 1 .9 2.1 1.4 3.1.1.3.3.6.6.7.4.1.7-.3.9-.7.4-.9.3-2 .4-3 .1-1 .5-2.1 1.4-2.6"/><path class="st11" d="m160.3 156-2.2-1.5c-.3-.2-.7-.2-.9.1l-1 1.3.7 3.2c.9 4.1-2.2 3.6-2.2 3.6l-.3-.8-1.6-5c-.4-2.4-.2-2.7.9-4.5l2.4-3.8c.5-.8 1.5-1.2 2.4-.9 3.8 1.2 11.9 3.3 12.9 6.4 1.9 5.6 3.9 19.8 3.9 20.1l-11.1 1.7-.5-9.6s-1.7-.9-2.3-2.6c-.4-1.6-1.1-7.7-1.1-7.7"/><path class="st12" d="M168.2 157.5s-.1.2-.4.5c-.3.3-.8.7-1.5.9-.4.1-.8.1-1.2 0-.4-.1-.9-.3-1.2-.7-.7-.8-.8-1.9-1.5-2.7-.3-.4-.8-.6-1.2-.9-.4-.3-.9-.5-1.3-.6-.4-.2-.9-.4-1.2-.3-.3.1-.6.4-.9.6-1 1-1.5 1.7-1.6 1.7 0 0 .1-.2.3-.5.2-.3.5-.8 1-1.3.3-.3.5-.6 1-.7.1 0 .2-.1.4 0 .1 0 .2 0 .3.1.2.1.5.1.7.2.4.2.9.4 1.4.6.5.3.9.5 1.3 1 .7.9.8 2 1.4 2.7.6.7 1.5.8 2.1.6.7-.1 1.1-.5 1.5-.7.4-.4.6-.5.6-.5zM167.1 161c0 .1-1.5 0-3.2-.4-1.7-.4-3.1-1-3-1.1 0-.1 1.4.3 3.1.7 1.7.4 3.1.7 3.1.8z"/><path class="st12" d="M162.4 153.6c0-.1.2-.1.5 0s.7.5.8 1c.1.5-.1 1-.4 1.2-.2.2-.5.3-.5.2 0-.1.1-.2.3-.4.1-.2.3-.6.2-1-.1-.4-.3-.7-.5-.8-.3-.1-.4-.2-.4-.2z"/><path class="st13" d="M145.2 161c-.8-.6-1.8-.8-2.7-.6s-1.8.8-2.2 1.6c-.6 1-.6 2.4-1.5 3.2.5.2 1 .1 1.4-.1-.2.9-1.8 1-1.9 1.9-.1.5.4.9.8 1.2 1.1.5 2.3.4 3.4-.1 1.6-.8 2.8-2.5 3-4.3.1-.9 0-1.8.1-2.7"/><path class="st10" d="m146.3 162.1 13-6.4c.9-.4.7-1.7-.3-1.9-.2 0-.5 0-.7.1l-12.9 6.4.9 1.8z"/><path class="st4" d="m146.3 162.1-.8.9-1.4-2.5 1.3-.2z"/></g><g id="Plant"><path class="st14" d="M428.1 394.5c1-3.3 3-6.5 6.1-7.8 3.3-1.4 7.1-.6 10.4.6 3.4 1.2 6.6 2.8 10.2 3.1 3.6.2 7.6-1.5 8.6-4.9 1-3.2-.9-6.6-3.3-8.9-5.1-4.9-12.7-7-19.5-5.3-6.8 1.6-12.7 6.9-15 13.6"/><path d="M428.1 394.5c1-3.3 3-6.5 6.1-7.8 3.3-1.4 7.1-.6 10.4.6 3.4 1.2 6.6 2.8 10.2 3.1 3.6.2 7.6-1.5 8.6-4.9 1-3.2-.9-6.6-3.3-8.9-5.1-4.9-12.7-7-19.5-5.3-6.8 1.6-12.7 6.9-15 13.6" class="st20"/><path class="st14" d="M399.9 408.8c-5.2-5-5-13.6-2.4-20.3 2.6-6.7 8.3-11.9 14.6-15.3 12.3-6.6 27.7-7.1 40.4-1.3-6.2.2-12.3 3.8-15.5 9.1-2.9 4.8-3.5 10.5-5.9 15.5-2.6 5.6-7.5 10.1-13.2 12.4-5.7 2.2-12.3 2.2-18-.1M397.4 379c-5.8-6.8-6.5-17.8-5.7-26.7s2.9-17.9 1.5-26.7c-.8-5.2-2.9-10.2-3.5-15.5-.7-5.3.3-11.2 4.4-14.6 4.7-3.9 12-3 16.9.7 4.9 3.7 7.7 9.4 9.7 15.1 4.5 12.6 6.2 26.5 2.5 39.4-3.7 12.8-12.4 24.3-25.2 28.2"/><path class="st10" d="M394.6 434.9V431.8c.1-2 .3-4.8.7-8.3.4-3.5 1.1-7.6 2.2-12.1s2.9-9.3 5.5-14c2.6-4.7 5.8-8.7 9-12.1 3.2-3.3 6.5-5.9 9.5-7.9 1.4-1 2.8-1.8 4-2.5 1.2-.6 2.3-1.2 3.2-1.6.9-.4 1.6-.7 2.1-.9.5-.2.7-.3.7-.3s-.2.1-.7.4c-.5.2-1.2.6-2 1-.9.5-1.9 1-3.1 1.7-1.2.7-2.6 1.5-4 2.5-2.9 2-6.1 4.6-9.3 7.9-3.2 3.3-6.3 7.3-8.9 12-5.3 9.3-6.8 19.1-7.8 25.9-.5 3.5-.7 6.3-.9 8.2-.1.9-.1 1.7-.1 2.2-.1.8-.1 1-.1 1z"/><path class="st14" d="M344.7 352.1c-10.7 6.5-10.7 12.3-8.9 17.9 1.8 5.5 8.3 9.4 13.8 7.3 3.1-1.2 5.3-3.8 7.2-6.5 1.9-2.7 3.7-5.6 6.4-7.5s6.5-2.7 9.2-.8"/><path d="M344.7 352.1c-10.7 6.5-10.7 12.3-8.9 17.9 1.8 5.5 8.3 9.4 13.8 7.3 3.1-1.2 5.3-3.8 7.2-6.5 1.9-2.7 3.7-5.6 6.4-7.5s6.5-2.7 9.2-.8" class="st20"/><path class="st14" d="M336.7 359.1c2.8-3.9 9.7-5 14.1-3.1s7.6 5.8 10.4 9.6c2.9 3.8 5.6 7.8 9.6 10.5s9.5 3.6 13.4.9c2.6-1.8 4.1-4.8 4.6-7.9.5-3.1 0-6.3-.6-9.3-.9-4.5-2.5-9.2-6.1-12-4-3.2-9.5-3.3-14.7-3.2-5.9.2-11.8.6-17.3 2.7-5.4 2.1-11 6.5-13.4 11.8"/><path class="st10" d="M385.7 429.6V428.7c0-.7-.1-1.6-.1-2.7-.1-2.4-.2-5.9-.3-10.1-.1-4.3-.3-9.3-.6-15-.3-5.6-.6-11.8-1.4-18.3-.4-3.2-.9-6.4-1.6-9.3-.2-.7-.4-1.5-.6-2.2-.3-.7-.5-1.4-.8-2.1-.3-.7-.6-1.3-.8-2-.3-.6-.6-1.3-.9-1.9-2.5-5-5.7-9.1-8.8-12-3.1-2.9-6.1-4.7-8.2-5.7-.5-.2-1-.5-1.4-.7-.4-.2-.8-.3-1.1-.4-.3-.1-.5-.2-.7-.3-.1-.1-.2-.1-.2-.1s.1 0 .2.1c.2.1.4.1.7.2.3.1.7.2 1.1.4.4.2.9.4 1.5.6 2.2 1 5.2 2.7 8.4 5.6 3.2 2.9 6.4 7 8.9 12 .3.6.6 1.3.9 1.9.3.7.6 1.3.9 2 .3.7.5 1.4.8 2.1.2.7.4 1.5.6 2.2.7 3 1.2 6.2 1.6 9.4.8 6.5 1.1 12.7 1.4 18.3.3 5.6.4 10.7.5 15 .1 4.3.1 7.7.1 10.1V429.2c-.1.3-.1.4-.1.4zM389.5 431.2s-.6-1.6-1.2-4.6c-.6-3-1-7.4-.5-12.9s1.8-11.9 4.1-18.7c2.2-6.9 5.2-14.2 7.7-22.1 1.3-4 2.3-7.9 3.1-11.7.7-3.8 1.2-7.6 1.5-11.2.6-7.2.5-13.7.3-19.1-.2-5.4-.5-9.8-.6-12.9-.1-1.5-.2-2.7-.2-3.5v-1.2.3c0 .2.1.5.1.9.1.8.2 2 .3 3.5.2 3 .6 7.4.8 12.9.2 5.4.3 12-.2 19.2-.3 3.6-.8 7.4-1.5 11.2-.7 3.9-1.8 7.8-3.1 11.8-2.6 7.9-5.5 15.3-7.8 22.1-2.2 6.8-3.7 13.2-4.2 18.6-.5 5.4-.2 9.8.3 12.8.3 1.5.5 2.7.7 3.4.1.4.2.7.2.9.2.2.3.3.2.3z"/><path class="st10" d="M416.1 436h-50.2l-1.2-9.6h51.4z"/><path class="st10" d="m371.2 434.9 6.3 29h27.3l5.9-29z"/><path class="st13" d="M416.1 436c0 .1-11 .2-24.7.2-13.6 0-24.7-.2-24.7-.3s11-.2 24.7-.2c13.6 0 24.7.2 24.7.3zM407.4 450.3c-.1.1-1.5-1.4-4.4-2.5-1.5-.6-3.3-1-5.4-1.1-2.1-.1-4.3.4-6.6 1.2-2.3.8-4.4 1.7-6.5 2.2-2.1.5-4 .4-5.6.2-1.6-.3-2.8-.7-3.6-1.2-.4-.2-.7-.4-.9-.6-.2-.1-.3-.2-.3-.2l1.2.6c.8.4 2 .8 3.6 1 1.6.2 3.5.2 5.5-.3s4.1-1.4 6.4-2.2c2.3-.8 4.6-1.3 6.8-1.2 2.1.1 4 .6 5.5 1.2s2.6 1.4 3.3 1.9c.4.3.6.5.8.7.2.2.2.3.2.3z"/><path class="st6" d="M407.1 452.3c-.1.1-1.4-1.3-4.3-2.5-1.4-.6-3.2-1-5.2-1.1-2-.1-4.2.4-6.4 1.2-2.2.7-4.3 1.6-6.3 2.1s-3.9.7-5.4.6c-1.6-.1-2.8-.6-3.5-1-.4-.2-.7-.4-.8-.5-.2-.1-.3-.2-.3-.2l1.2.6c.8.3 2 .7 3.5.8 1.5.1 3.3-.1 5.3-.7 1.9-.5 4-1.4 6.2-2.2 2.2-.8 4.5-1.2 6.6-1.1 2.1.1 3.9.6 5.3 1.2s2.5 1.4 3.1 1.9c.3.3.6.5.7.7.2.1.3.2.3.2z"/><path class="st6" d="M407.9 448.4c-.1.1-1.5-1.4-4.5-2.7-1.5-.6-3.4-1.2-5.5-1.3-2.1-.1-4.5.4-6.8 1.2-2.4.8-4.6 1.8-6.7 2.2-2.2.4-4.2.3-5.8 0-1.6-.3-2.9-.8-3.7-1.2-.4-.2-.7-.4-.9-.6-.2-.1-.3-.2-.3-.2s.4.3 1.3.6c.8.4 2.1.8 3.7 1 1.6.2 3.6.3 5.7-.1s4.3-1.4 6.7-2.2c2.4-.8 4.8-1.4 7-1.2 2.2.2 4.1.8 5.6 1.5s2.6 1.5 3.3 2c.4.3.6.5.8.7.1.2.1.3.1.3z"/></g><g id="Blank_Canvas"><path class="st10" d="m254.5 321.1-32.7 143.2h7.7l32-143.2z"/><path class="st13" d="m250.6 321.1-32.7 143.2h7.8l31.9-143.2z"/><path class="st10" d="M338.9 312.5c0 1.3 28.4 151.5 28.4 151.5h8.3l-29-151.5h-7.7z"/><path class="st13" d="M335.4 312.5c0 1.3 28.4 151.5 28.4 151.5h8.9l-29.5-151.5h-7.8z"/><path class="st10" d="m316.6 321.1-1.9 143.2h10.5l1.5-143.2z"/><path class="st13" d="m240.5 312.5-.6 9.5 88 3 1-11.3z"/><path class="st10" d="M327.9 325h4.9l.9-11.3h-4.8z"/><path class="st13" d="m246.5 358 67.1 3.1v11.5l-69.1-3.4z"/><path class="st13" d="m313.6 321.1-1.9 143.2h10.5l1.6-143.2zM269.1 321.1c-.3 1.9 0 7.7 0 7.7l36.2 2.1v-8.3l-36.2-1.5zM300.6 48.2c.4 1 6.1 38.9 6.1 38.9l6.8-.5-5.5-38.4h-7.4z"/><path class="st10" d="m311.3 51.1-3.3-2.9 5.5 38.4 2.8-.2zM320.2 66c0 .7-.5 20.3-.5 20.3l7.2-.5V66h-6.7z"/><path class="st13" d="M318.3 66c0 .7-.5 20.3-.5 20.3l7.2-.5V66h-6.7z"/><path class="st10" d="m296.3 66.6-5.4 21.6 6.4-.5 4.9-21.1z"/><path class="st13" d="m293.5 66.6-5.3 21.6 6.4-.5 4.8-21.1z"/><path style="fill:#444c4f" d="m375.2 80.7 4.4 3.9-5.5 229.6h-6.4z"/><path class="st10" d="m230.9 92.9-18.8 218.7 155.6 2.6 7.5-233.5z"/><path class="st10" d="M230.9 92.9s.9-.1 2.6-.2c1.7-.2 4.2-.4 7.5-.7 6.6-.6 16.4-1.4 28.9-2.5 25.1-2.1 61.2-5.2 105.3-9h.2v.2c-2 63-4.6 143.9-7.4 231.8 0 .6 0 1.1-.1 1.7v.3h-.3c-55.7-.9-108.6-1.8-155.6-2.6h-.3v-.3c5.6-64.7 10.4-119.4 13.7-157.9 1.7-19.2 3-34.4 3.9-44.8.5-5.2.8-9.2 1.1-11.9.1-1.3.2-2.4.3-3 .2-.7.2-1.1.2-1.1s0 .4-.1 1c-.1.7-.1 1.7-.2 3.1-.2 2.7-.6 6.7-1 11.9-.9 10.4-2.2 25.6-3.8 44.9-3.3 38.5-8 93.1-13.5 157.8l-.2-.3c47 .8 99.9 1.6 155.6 2.5l-.3.3c0-.5 0-1.1.1-1.7 2.9-87.9 5.5-168.8 7.5-231.8l.2.2c-44.1 3.7-80.2 6.7-105.2 8.8-12.5 1-22.3 1.8-28.9 2.4-3.3.3-5.9.5-7.6.6-1.7.3-2.6.3-2.6.3z"/></g></svg>