<svg version="1.1" id="Layer_1" xmlns="http://www.w3.org/2000/svg" x="0" y="0" viewBox="0 0 512 512" style="enable-background:new 0 0 512 512" xml:space="preserve"><style>.st0{fill:#323236}.st1{fill:#797bf2}</style><path class="st0" d="M256 28.9C130.6 28.9 28.9 130.6 28.9 256S130.6 483.1 256 483.1 483.1 381.4 483.1 256 381.4 28.9 256 28.9zm0 334.6c-59.4 0-107.5-48.1-107.5-107.5S196.6 148.5 256 148.5 363.5 196.6 363.5 256 315.4 363.5 256 363.5z"/><path class="st0" d="M483.1 256c0-125.4-101.7-227.1-227.1-227.1-2.8 0-5.7.1-8.5.2-4.9 22.3-1.2 59.3 56.4 94.9 27.1 16.8 40.7 46 45.7 79.1 22.1 39.1 17.6 87.9-11.4 122.2-10.1 33.4-23.8 58.4-34.2 62.6-24.2 9.7-33.1 65.7-4.4 90.9C406.1 458 483.1 364.6 483.1 256z"/><path class="st0" d="m342 40.3-55.8 122.4c-2.6 5.8-8.8 9.2-15.1 8.2-10-1.8-20.2-1.8-30.3 0-6.3 1-12.5-2.3-15.1-8.2L170 40.3c-3.3-7.2-.2-15.7 7-18.9.5-.2.9-.4 1.4-.5 50.4-16.6 104.9-16.6 155.3 0 7.5 2.5 11.5 10.6 8.9 18.1-.2.4-.3.9-.6 1.3zM471.7 342l-122.4-55.8c-5.8-2.6-9.2-8.8-8.2-15.1 1.8-10 1.8-20.2 0-30.3-1-6.3 2.3-12.5 8.2-15.1l122.4-55.8c7.2-3.3 15.7-.2 18.9 7 .2.5.4.9.5 1.4 16.6 50.4 16.6 104.9 0 155.3-2.5 7.5-10.6 11.5-18.1 8.9-.4-.1-.9-.2-1.3-.5zM170 471.7l55.8-122.4c2.6-5.8 8.8-9.2 15.1-8.2 10 1.8 20.2 1.8 30.3 0 6.3-1 12.5 2.3 15.1 8.2l55.8 122.4c3.3 7.2.2 15.7-7 18.9-.5.2-.9.4-1.4.5-50.4 16.6-104.9 16.6-155.3 0-7.5-2.5-11.5-10.6-8.9-18.1.1-.4.2-.9.5-1.3zM40.3 170l122.4 55.8c5.8 2.6 9.2 8.8 8.2 15.1-1.8 10-1.8 20.2 0 30.3 1 6.3-2.3 12.5-8.2 15.1L40.3 342c-7.2 3.3-15.7.2-18.9-7-.2-.5-.4-.9-.5-1.4-16.6-50.4-16.6-104.9 0-155.3 2.5-7.5 10.6-11.5 18.1-8.9.4.2.9.3 1.3.6z"/><path class="st1" d="m362.8 65.1.9.5 1.6.9c4 2.3 9.2 1 11.5-3.1 2.3-4 1-9.2-3.1-11.5l-1-.5-1.6-.9c-4-2.3-9.2-.9-11.5 3.1-2.2 4.1-.9 9.2 3.2 11.5zM151.2 100.9c1.6 0 3.2-.5 4.6-1.3 1.4-.9 2.8-1.8 4.2-2.6 4-2.4 5.3-7.6 2.9-11.6s-7.6-5.3-11.6-2.9c-1.5.9-3.1 1.9-4.6 2.9-3.9 2.5-5 7.7-2.5 11.6 1.4 2.5 4.1 3.9 7 3.9zM136.3 113.9c3.6-3 4-8.3 1-11.9-3-3.6-8.3-4-11.9-1-14.3 12-26.9 26-37.3 41.5-2.6 3.9-1.6 9.1 2.3 11.7s9.1 1.6 11.7-2.3c9.6-14.2 21.1-27 34.2-38z"/><path class="st1" d="M499.1 175.7c-3.8-11.5-16-17.9-27.7-14.5-16.6-37.7-42.7-70.3-75.8-94.8-3.7-2.8-9-2.1-11.8 1.6-2.8 3.7-2.1 9 1.6 11.8.1 0 .1.1.2.1 30.7 22.7 54.9 53 70.3 87.9l-63.5 28.9c-15-34.6-42.6-62.3-77.3-77.3l34.5-75.7c2.7-5.9 2.7-12.7.1-18.6-2.6-5.9-7.5-10.4-13.6-12.4a257.8 257.8 0 0 0-160.6 0c-11.5 3.8-17.9 16-14.6 27.6-53.6 24-96.6 67-120.5 120.8-11.6-3.3-23.8 3.1-27.6 14.6a257.8 257.8 0 0 0 0 160.6c2 6.1 6.5 11 12.4 13.6 4.8 2.1 10.2 2.5 15.2 1 23.8 53.8 66.8 96.9 120.7 120.7-3.4 11.6 3.1 23.8 14.5 27.6a257.8 257.8 0 0 0 160.6 0c6.1-2 11-6.5 13.6-12.4 2.1-4.8 2.4-10.2 1-15.2 45.4-20.1 83.4-54 108.6-96.8 2.4-4 1.1-9.2-2.9-11.6s-9.2-1.1-11.6 2.9l-.1.1c-23.3 39.7-58.5 71.2-100.7 89.9l-29-63.6c34.6-15 62.3-42.6 77.2-77.3l75.7 34.5c11.4 5.2 24.9.2 30.1-11.2.3-.7.6-1.5.9-2.2 17.3-52.1 17.3-108.4.1-160.6zm-121.9 28.1-31.4 14.3c-9.4 4.2-14.7 14.2-13 24.3 1.6 9 1.6 18.3 0 27.3-1.7 10.1 3.6 20.1 13 24.3l1.4.6a99.508 99.508 0 0 1-52.6 52.6l-.6-1.4c-4.2-9.4-14.2-14.7-24.3-13-9 1.6-18.3 1.6-27.3 0-10.1-1.7-20.1 3.6-24.3 13l-.7 1.4c-23.7-10.1-42.5-29-52.6-52.7l1.4-.6c9.4-4.2 14.7-14.2 13-24.3-1.6-9-1.6-18.3 0-27.3 1.7-10.1-3.6-20.1-13-24.3l-1.4-.7c10-23.8 28.9-42.6 52.7-52.6l.6 1.4c3.6 8.1 11.6 13.3 20.5 13.3 1.3 0 2.6-.1 3.8-.3 9-1.6 18.3-1.6 27.3 0 10.1 1.7 20.1-3.6 24.3-13l.7-1.4c15.2 6.4 28.6 16.6 38.9 29.5 2.8 3.7 8.1 4.4 11.8 1.5 3.7-2.8 4.4-8.1 1.5-11.8l-.2-.2c-12-15-27.4-26.8-45.1-34.4l6.6-14.6c31 13.5 55.6 38.1 69 69.1zm-227.8 6.6-14.6-6.7c13.3-31 38-55.6 68.9-68.9l6.7 14.6c-27.4 11.7-49.3 33.6-61 61zM177.6 32c.6-1.5 1.9-2.6 3.4-3.1 48.7-16 101.3-16 150 0 1.5.5 2.8 1.7 3.4 3.1.7 1.6.7 3.3 0 4.9l-55.8 122.4c-1 2.4-3.5 3.7-6 3.4a97.4 97.4 0 0 0-33.2 0c-2.5.3-5-1-6-3.4L177.6 36.9c-.7-1.6-.7-3.4 0-4.9zm-9.8 23.9 29 63.6c-34.6 15-62.3 42.6-77.3 77.3l-63.6-29C78 117.9 117.9 78 167.8 55.9zm0 400.1c-49.9-22.1-89.7-62-111.9-111.8l19.4-8.9c4.2-1.9 6.1-6.9 4.2-11.2-1.9-4.2-6.9-6.1-11.2-4.2l-31.5 14.4c-1.5.7-3.3.7-4.9 0-1.5-.6-2.6-1.9-3.1-3.4-16-48.7-16-101.3 0-150 .5-1.5 1.7-2.8 3.1-3.4 1.6-.7 3.3-.7 4.9 0l122.4 55.8c2.3 1 3.7 3.5 3.4 6a97.4 97.4 0 0 0 0 33.2c.3 2.5-1 5-3.4 6l-33 15c-4.2 2.1-5.9 7.1-3.8 11.3 2 4 6.7 5.8 10.8 4l16.3-7.4c11.8 27.4 33.6 49.2 61 61l-6.6 14.6c-20.9-9-39.2-23.3-53-41.5-2.8-3.7-8-4.6-11.8-1.8-3.7 2.8-4.6 8-1.8 11.8 0 .1.1.1.1.2 15.5 20.4 35.9 36.5 59.4 46.7l-29 63.6zm166.6 19.1c.7 1.5.7 3.3 0 4.9-.6 1.5-1.9 2.6-3.4 3.1-48.7 16-101.3 16-150 0-1.5-.5-2.8-1.7-3.4-3.1-.7-1.6-.7-3.3 0-4.9l55.8-122.4c.9-2.1 2.9-3.4 5.2-3.5.3 0 .6 0 .8.1 11 1.9 22.2 1.9 33.2 0 2.5-.3 5 1 6 3.4l55.8 122.4zm-26.2-98-6.7-14.6c27.4-11.8 49.2-33.6 61-61l14.6 6.7c-13.3 31-37.9 55.6-68.9 68.9zm175-46.1c-.5 1.5-1.7 2.8-3.1 3.4-1.5.7-3.3.7-4.9 0l-122.4-55.8c-2.3-1-3.7-3.5-3.4-6 1.9-11 1.9-22.2 0-33.2-.3-2.5 1-5 3.4-6l122.4-55.8c.8-.4 1.6-.5 2.5-.5.8 0 1.6.2 2.4.5 1.5.6 2.6 1.9 3.1 3.4 16 48.7 16 101.3 0 150z"/><path class="st1" d="m99 306-2.9 1.3c-4.2 1.9-6.1 6.9-4.2 11.1 1.9 4.2 6.9 6.1 11.1 4.2h.1l2.9-1.3c4.2-1.9 6.1-6.9 4.2-11.1-1.9-4.2-6.9-6.1-11.2-4.2.1 0 0 0 0 0z"/></svg>