<svg version="1.1" id="Layer_1" xmlns="http://www.w3.org/2000/svg" x="0" y="0" viewBox="0 0 512 512" style="enable-background:new 0 0 512 512" xml:space="preserve"><style>.st0{fill:#323236}.st1{fill:#797bf2}</style><path class="st0" d="M119.5 145.1h273.1v68.3H119.5v-68.3zM119.5 247.5H239v68.3H119.5v-68.3zM366.9 8.5v68.3c0 9.4 7.6 17.1 17.1 17.1h59.7v-8.5L366.9 8.5z"/><path class="st1" d="M444.8 74.5 378 7.5C373.2 2.7 366.7 0 359.9 0H85.3C71.2 0 59.7 11.5 59.7 25.6v460.8c0 14.1 11.5 25.6 25.6 25.6h341.3c14.1 0 25.6-11.5 25.6-25.6V92.6c.1-6.8-2.6-13.3-7.4-18.1zm-9.6 411.9c0 4.7-3.8 8.5-8.5 8.5H85.3c-4.7 0-8.5-3.8-8.5-8.5V25.6c0-4.7 3.8-8.5 8.5-8.5h273.1v59.7c0 14.1 11.5 25.6 25.6 25.6h34.1V85.3H384c-4.7 0-8.5-3.8-8.5-8.5V29.2l57.2 57.4c1.6 1.6 2.5 3.8 2.5 6v393.8z"/><path class="st1" d="M110.9 51.2H128v17.1h-17.1V51.2zM145.1 51.2h170.7v17.1H145.1V51.2zM110.9 85.3h204.8v17.1H110.9V85.3zM392.5 136.5h-273c-4.7 0-8.5 3.8-8.5 8.5v68.3c0 4.7 3.8 8.5 8.5 8.5h273.1c4.7 0 8.5-3.8 8.5-8.5V145c0-4.6-3.9-8.5-8.6-8.5zm-8.5 68.3H128v-51.2h256v51.2zM238.9 238.9H119.5c-4.7 0-8.5 3.8-8.5 8.5v68.3c0 4.7 3.8 8.5 8.5 8.5H239c4.7 0 8.5-3.8 8.5-8.5v-68.3c0-4.6-3.9-8.5-8.6-8.5zm-8.5 68.3H128V256h102.4v51.2zM392.5 238.9H273.1c-4.7 0-8.5 3.8-8.5 8.5v68.3c0 4.7 3.8 8.5 8.5 8.5h119.5c4.7 0 8.5-3.8 8.5-8.5v-68.3c0-4.6-3.9-8.5-8.6-8.5zm-8.5 68.3H281.6V256H384v51.2zM113.3 341.3h12.3c1.3 0 2.4 1.1 2.4 2.4V356c0 1.3-1.1 2.4-2.4 2.4h-12.3c-1.3 0-2.4-1.1-2.4-2.4v-12.3c0-1.3 1.1-2.4 2.4-2.4zM145.1 341.3h102.4v17.1H145.1v-17.1zM266.9 341.3h12.3c1.3 0 2.4 1.1 2.4 2.4V356c0 1.3-1.1 2.4-2.4 2.4h-12.3c-1.3 0-2.4-1.1-2.4-2.4v-12.3c0-1.3 1.1-2.4 2.4-2.4zM298.7 341.3h102.4v17.1H298.7v-17.1zM110.9 375.5h136.5v17.1H110.9v-17.1zM110.9 409.6h136.5v17.1H110.9v-17.1zM110.9 443.7h136.5v17.1H110.9v-17.1zM264.5 409.6H401v17.1H264.5v-17.1zM264.5 443.7H401v17.1H264.5v-17.1zM264.5 375.5H401v17.1H264.5v-17.1z"/></svg>