<svg version="1.1" id="Calque_1" xmlns="http://www.w3.org/2000/svg" x="0" y="0" viewBox="-155 247 300 300" style="enable-background:new -155 247 300 300" xml:space="preserve"><style>.st2{fill:#fff}</style><path style="fill:#4c6ee5" d="M-154.6 247.4H145V547h-299.6z"/><path style="fill:#4067d3" d="M-70.1 421.4-23.3 547H145v-93L79.7 345.4l-59 78.6L-5 436.7l-37.1-.7z"/><path class="st2" d="M74.8 345.4H36.4c-10.3 0-19.8 3.5-27.2 9.5 4 7.8 6.2 16.6 6.2 26 0 26.2-21.3 47.6-47.6 47.6h-10.7c-9.9 0-19.2-2.5-27.2-7 3.5 5.8 7.7 11.1 12.6 16 15.2 14.9 35.4 23.1 56.8 23.1s41.5-8.2 56.8-23.1c15.3-14.9 23.7-34.7 23.7-55.7v-31.3c-.1-2.9-2.3-5.1-5-5.1zm-34.1 41.4c-2.7 0-5-2.2-5-5s2.2-5 5-5c2.7 0 5 2.2 5 5s-2.3 5-5 5z"/><path class="st2" d="M-41.8 333.5h-42.9c-2.7 0-5 2.2-5 5v22H-58c2.7 0 5 2.2 5 5 0 2.7-2.2 5-5 5h-31.7v1.2c0 4 .5 7.9 1.5 11.6H-58c2.7 0 5 2.2 5 5s-2.2 5-5 5h-26.5c7.8 15 23.5 25.3 41.6 25.3h10.7c20.8 0 37.7-16.9 37.7-37.7 0-26.2-21.2-47.4-47.3-47.4z"/></svg>