<svg version="1.1" id="Calque_1" xmlns="http://www.w3.org/2000/svg" x="0" y="0" viewBox="0 0 300 300" style="enable-background:new 0 0 300 300" xml:space="preserve"><style>.st2{fill:#231f20}.st3{fill:#fff}.st4{fill:#333}</style><path style="fill:#bdffbd" d="M.4.4H300V300H.4z"/><path d="M118 112c-11.1-.3-21 7.4-27.2 16.5-8.8 13-12.1 29.4-9.5 44.9 2.6 15.5 10.9 29.8 22.7 40.1 12.4 11 30.7 17.5 45.8 10.8 4.3 11.8 18.8 17.5 31.1 15 12.3-2.6 22.3-11.6 29.6-21.8 18.6-25.9 22.4-61.7 9.8-91-4.6-10.6-11.6-20.7-22.1-25.5-12.4-5.7-26.9-2.7-40.2.4 14.7-4.3 27.1-15.6 32.9-29.7 5.8-14.2 4.8-30.9-2.7-44.3 0 7.7-9.4 11-16.5 13.9-21.4 8.8-34.3 30.8-42.4 52.5-2.8 7.6-6 16.2-13.4 19.5l2.1-1.3z" style="fill:#36d639"/><path class="st2" d="M171.3 242.7c-1.4 0-2.7-.1-3.9-.3-3.1-.6-6-1.9-8.8-3.2-2.7-1.2-5.4-2.5-8.3-3-1.3-.3-2.6-.4-4-.4-3.9 0-7.8 1-11.5 2l-.5.1c-2.5.6-4.8 1.2-7.2 1.2h-.8c-1.7-.1-3.2-.6-4.7-1.1-.5-.2-1.1-.4-1.6-.5h-.2c-.3 0-.6-.1-1-.2-30.6-9.5-51.3-39.3-51.5-74.1-.1-16.1 5.3-30.4 15.1-40.3 9-9 21.1-13.8 35.1-13.8h.6c.2 0 .4.1.5.2.1-.2.2-.3.3-.4 17-11.2 34.7-17.1 51-17.1 3 0 6 .2 8.9.6 8.4-3.8 14.3-11 17.2-20.9 4.2-14.2 1.4-32.8-6.7-45.5l-.2-.2.1-.5c.1-.2.3-.3.6-.3h.2l.3.3c8.1 10.7 11.3 28 7.9 43.1-2.5 11.1-8.3 19.7-16.5 24.5 2.4.4 4.6.9 6.6 1.6 21.4 6.4 35.9 22.6 40.6 45.7 2.1 10.3 2.7 21.1 1.6 32.1-2.1 21.8-10.2 40.8-22.8 53.5-6.9 7-15.4 12.1-24.6 14.8-3.2 1-7.5 2.1-11.8 2.1zm-25.7-9c5.2 0 10.3 1.2 14.8 3.5 3.6 1.8 5.9 2.9 9.2 2.9.8 0 1.7-.1 2.6-.2 5.3-.8 12.1-2 18.2-4.9 5.3-2.5 10-6.5 14.3-10.4 7.9-7.1 14.4-16.9 18.7-28.3 6.4-16.9 7.8-36 4.2-53.8-5-24-20.9-42-41.6-47.1-2.1-.5-4.3-.9-6.9-1.2l-.3.1c-.3.1-.6.2-.8.2-.4 0-.6-.3-.7-.4 0-.1-.1-.1-.1-.2-1.8-.2-3.7-.2-5.6-.2-20 0-39.1 9-51.6 16.5l-.1.1-.3.1c-.3 0-.5-.1-.7-.3-.1.2-.3.4-.6.4-15 .8-27.6 6.4-36.4 16.3-9.1 10.2-13.6 24.5-12.6 40.3 2 32.4 22.1 60 50 68.7.7.2 1.1.4 1.3.7 1.9.3 4 .6 6.1.6.9 0 1.8-.1 2.6-.2 1.8-.3 3.5-.8 5.2-1.4.9-.3 1.8-.6 2.8-.8 2.7-.6 5.5-1 8.3-1z"/><path class="st2" d="M228.8 140.1c-4.6-22-18.5-38.8-40.3-45.3-2.6-.8-5.2-1.3-7.9-1.8 22.6-11.8 23.3-49.3 9.5-67.5-.2-.2-.5 0-.4.2 12.9 19.9 13.4 56.1-10.8 67-21-2.9-42 4.9-59.7 16.5-.4.3 0 1 .4.7 17-10.2 37.8-18.2 58-16.3-.3.4 0 .7.8.4.1-.1.3-.1.4-.2 2.4.3 4.7.7 7.1 1.2 22.4 5.5 37.3 25 41.9 47.5 3.7 17.8 2.2 37-4.2 54-4 10.7-10.2 20.8-18.8 28.4-4.3 3.9-9.1 8-14.5 10.5-5.7 2.7-12.1 4-18.3 4.9-5.1.7-7.8-.5-12.1-2.8-6.9-3.5-15.2-4.4-22.7-2.4-2.7.7-5.3 1.8-8.1 2.2-3 .4-6.1 0-9.1-.5 0-.1-.3-.4-1.1-.7-29.7-9.2-48.5-38.7-50.4-69.1-1.9-31.3 17.1-55.3 49.4-57 .4 0 .4-.6 0-.6-31.5-.3-50.6 23.6-50.4 53.7.2 33 19 63.7 51.2 73.7.6.2.9.2 1.1.2 2 .6 3.9 1.5 6.2 1.6 2.8.1 5.3-.5 7.9-1.1 5.3-1.4 10.7-2.8 16.2-1.7 5.9 1.2 11.1 5.1 17.1 6.2 5.2 1 10.9-.3 15.9-1.8 9.2-2.7 17.6-7.9 24.4-14.7 13.9-14 20.8-33.9 22.7-53.3 1.3-10.7.8-21.6-1.4-32.1z"/><path class="st2" d="m142 242.3-.2-.1c-1.4-.5-2-1.9-1.9-3.1.1-1.4.9-2.4 2.1-2.7h.1c.6 0 .9.3 1 .7.1.4-.2.8-.6 1-.5.1-.7.7-.7 1.2 0 .4.2.9.7 1.1.5.1.8.6.7 1.1-.2.5-.6.8-1.2.8z"/><path class="st2" d="M142.2 240.8c-1.4-.4-1.3-2.7.1-3.1.5-.2.3-.9-.2-.8-2.3.6-2.3 4.2-.1 4.9.6.3.9-.8.2-1zM145.4 243.3c-.3 0-.5-.1-.7-.3-.2-.2-.3-.4-.3-.7 0-2.2.1-4.3.2-6.5 0-.4.3-.7.7-.7.4 0 .7.3.8.7.1 2.2.1 4.3.2 6.5 0 .3-.1.5-.3.7-.1.2-.4.3-.6.3z"/><path class="st2" d="M145.1 235.9c-.1 2.2-.1 4.3-.2 6.5 0 .6 1 .6 1 0 0-2.2-.1-4.3-.2-6.5-.1-.4-.6-.4-.6 0zM148.5 243.4c-.3 0-.6-.2-.8-.4-1.2-1.9-1.5-4.1-.8-6.2.1-.3.4-.5.7-.5.2 0 .4.1.6.3l.1.2v.4c-.4 1.7-.1 3.4 1 4.8.2.3.2.6.1.9-.2.3-.6.5-.9.5z"/><path class="st2" d="M147.9 237c.1-.3-.4-.4-.5-.1-.7 2-.4 4 .7 5.8.3.5 1.2 0 .8-.5-1.1-1.5-1.5-3.3-1-5.2z"/><path class="st2" d="M150.6 244.5c-.4 0-.7-.2-.8-.5-1.2-2.6-1.4-5.1-.7-7.2.1-.3.4-.5.7-.5.2 0 .4.1.6.3.1.2.2.4.2.6-.4 2.4 0 4.3 1 5.9.2.3.2.6.1 1-.3.2-.7.4-1.1.4z"/><path class="st2" d="M150.1 237c.1-.4-.4-.5-.6-.2-.8 2.3-.3 4.7.7 6.9.3.6 1.3 0 .9-.6-1.2-1.7-1.4-3.9-1-6.1zM153.8 242.4c-.5 0-.9-.3-1-.8l-.6-2.4-.2-.9c-.1-.3 0-.5.1-.7.2-.2.4-.3.7-.3.4 0 .7.2.8.6l.3.9c.3.8.6 1.6.9 2.3.1.3.1.6-.1.9-.2.2-.5.4-.9.4z"/><path class="st2" d="M153.1 238c-.2-.5-.9-.3-.8.2l.9 3.3c.2.8 1.5.4 1.2-.3-.4-1.1-.8-2.1-1.3-3.2z"/><path class="st2" d="M155.9 242.6c-.4 0-.8-.2-1-.6-.6-1.2-1.3-2.3-1.8-3.5-.2-.3-.1-.6 0-.9.2-.3.5-.4.8-.4.3 0 .6.1.8.4.8 1.1 1.5 2.1 2.3 3.2.2.3.3.8.1 1.1-.3.4-.7.7-1.2.7z"/><path class="st2" d="M154.3 237.9c-.4-.5-1.1-.1-.8.5.6 1.2 1.2 2.3 1.8 3.5.4.8 1.7 0 1.2-.7-.6-1.2-1.4-2.3-2.2-3.3zM119.7 109.2c-.4 0-.8-.2-1.1-.5-.2-.3-.3-.7-.2-1.1 1.6-7.1-1.3-18.8-6.9-27.8-4.1-6.5-9.1-10.7-14-11.8l-.4-.1-.1-.6c0-.3.3-.6.6-.6 7.5.9 12 6.6 15.7 12.7 5 8.2 10.1 17.8 7.6 28.8-.1.6-.6 1-1.2 1z"/><path class="st2" d="M120.5 108.1c2.4-10.4-2.2-19.7-7.6-28.4-3.6-5.9-8-11.6-15.3-12.5-.2 0-.2.3 0 .3 13.9 3.1 24.1 27.9 21.3 40.1-.3 1.1 1.3 1.6 1.6.5zM94.4 72.7c-.4 0-.7-.3-.8-.7-.1-1.9 1-3.5 2.8-3.8h.4l.2.4.1.4-.4.2c-1 .3-1.9 1.4-1.6 2.6.1.2 0 .5-.1.7-.2.1-.4.2-.6.2z"/><path class="st2" d="M96.5 68.8c.1 0 .1-.2 0-.2-1.6.3-2.6 1.7-2.4 3.4 0 .5.7.4.6-.1-.4-1.4.5-2.7 1.8-3.1z"/><path class="st2" d="M91.5 74.1c-.8 0-1.6-.4-2.3-1-2.2-2.2-.7-5.8 0-7.3 3-7.1 8.9-12.7 16.6-15.8h.4c.4 0 .8.3.9.8.1.5-.2 1-.6 1.1-4.1 1.6-7.5 4-10.3 6.9-1.4 1.5-2.7 3.2-3.8 5-.4.7-.8 1.5-1.2 2.3-.8 1.1-1 2.1-.8 3.1.3 1.2 1.4 2.2 3.2 3.2h.3l.2.4.1.3-.3.3c-.9.4-1.7.7-2.4.7z"/><path class="st2" d="M93.4 72.8c.1-.1 0-.2-.1-.1-3.6-1.9-4.5-4.2-2.7-6.9.4-.8.8-1.6 1.2-2.3 1.1-1.8 2.4-3.5 3.8-5.1 3-3.1 6.5-5.4 10.5-7 .6-.2.3-1.2-.3-1-7.2 2.9-13.2 8.3-16.3 15.5-.9 2-1.9 5-.1 6.8 1.3 1.2 2.7 1.2 4 .1z"/><path class="st2" d="M107.5 54.3c-.2 0-.5-.1-.6-.3-.1-.2-.2-.4-.1-.6.2-.6-.1-1.1-.7-1.3-.3-.1-.5-.4-.4-.7 0-.3.3-.5.6-.5.8.1 1.3.5 1.7 1.1.4.6.4 1.3.3 1.9-.2.2-.4.4-.8.4z"/><path class="st2" d="M106.2 51.6c.9.3 1.2 1.1 1 1.9-.1.4.5.5.6.2.3-1.1-.3-2.2-1.5-2.4-.2-.1-.3.2-.1.3zM107.2 59.6l-.3-.3-.1-.1v-.4l1.4-4.6.4-.1h.2l.2.2.2.2-.1.3-1.1 4.7-.5.1z"/><path class="st2" d="M107.6 59c.4-1.5.7-2.9 1.1-4.4 0-.1-.1-.2-.2 0-.4 1.4-.8 2.9-1.2 4.3-.1.2.3.3.3.1z"/><path class="st2" d="M123.4 107c-.4 0-.7-.2-.9-.4-.2-.3-.2-.6-.1-.9C127.8 89 120.7 71 104.8 61l-.3-.2v-.5c.1-.2.3-.4.6-.4h.1l.1.1c11.1 5 18.8 15.7 20.6 28.5 4.7-30.9 27-53.1 55.5-54.6h.3c3.4-2.1 5.3-4.4 5.8-6.7.1-.6.6-1 1.1-1 .5 0 1.1.3 1.3.8.2.4.1.8-.1 1.2-.4.5-.8 1.1-1.1 1.6-.7 1.1-1.4 2.2-2.5 3.1-1.1 1-2.3 1.9-3.5 2.5-.3.3-.8.6-1.4.6-29.6 1.5-50.1 23.2-55 58v.3c0 4.2-.6 8.2-1.8 12-.2.4-.6.7-1.1.7z"/><path class="st2" d="M105.1 60.3c-.1-.1-.3.1-.1.2 15.4 9.7 23.6 27.5 17.8 45.3-.2.8 1 1.1 1.2.3 1.3-3.9 1.8-8.1 1.8-12.2h.1c4.6-32.4 23.6-56.8 55.5-58.3.6 0 1-.2 1.1-.5 1.3-.6 2.5-1.5 3.5-2.5 1.5-1.4 2.3-3.1 3.5-4.7.7-.9-1.3-1.9-1.5-.6-.6 3.1-3.5 5.4-6.1 7h-.4c-31.8 1.6-52.7 28.2-55.6 58.4-.7-13.6-8-26.7-20.8-32.4zM130.6 102.2l-.2-.4-.1-.3.3-.2c25.1-13.7 43.9-33.2 56-58.1.2-.4.5-.6.9-.6s.8.2 1 .6c.2.3.2.7.1 1.1-12.3 25.5-32.7 46.1-57.5 57.9h-.5z"/><path class="st2" d="M131 101.8c25.2-12 45.2-32.6 57.3-57.7.4-.7-.7-1.4-1.1-.6-12.3 25.3-31.6 44.8-56.2 58.3-.2-.1-.1 0 0 0z"/><path class="st2" d="M151.8 86.8c-.3 0-.6-.2-.7-.5-.5-1.8-1.1-3.6-1.6-5.4-.4-1.5-.9-3-1.3-4.5l-.1-.2.1-.2.1-.2h.6l.1.3 1.5 4.5c.6 1.8 1.2 3.5 1.8 5.3l.1.2-.2.4c0 .2-.2.3-.4.3z"/><path class="st2" d="M152 86c-1.1-3.3-2.3-6.5-3.4-9.7h-.1c1 3.3 1.9 6.6 2.9 9.9.2.3.7.2.6-.2zM164.9 79.6c-.5 0-.9-.4-.9-1 0-.5.4-.9.9-.9h.9c8.7 0 16.7-2.5 23.6-7.4l.1-.1h.5l.2.3.1.3-.3.3c-7.2 5.5-15.8 8.5-24.6 8.5h-.5z"/><path class="st2" d="M164.9 79.1c9.1.1 17.6-2.8 24.9-8.4.1 0 0-.2-.1-.1-7.4 5.2-15.7 7.7-24.8 7.5-.7 0-.7 1 0 1zM172.2 65.7c-.3 0-.5-.1-.7-.3-4.7-4.8-7-11.4-6.4-18.3v-.4h.7l.3.3v.2c-.2 6.3 2.2 12.1 6.8 16.8.3.3.4.7.2 1.1-.1.3-.5.6-.9.6z"/><path class="st2" d="M172.7 64.2c-4.6-4.7-7.1-10.5-7-17.1 0-.1-.1-.1-.1 0-.6 6.7 1.5 13.2 6.2 18 .6.5 1.4-.4.9-.9zM100.5 63.8l-.2-.4-.1-.3.3-.3.6-.5c.9-.6 1.7-1.2 2.6-1.8l.1-.1h.3c.3 0 .6.2.7.5.1.3 0 .6-.3.8-.8.5-1.7 1-2.5 1.5l-1 .6h-.5z"/><path class="st2" d="M104 60.9c-1.1.8-2.1 1.5-3.2 2.3-.1.1 0 .3.1.2l3.3-2.1c.3-.2 0-.6-.2-.4z"/><path class="st3" d="M115 182.3h-4.2l-6.8-11.9h-.1c.1 2.1.2 3.6.2 4.5v7.4h-3v-15.7h4.2l6.8 11.8h.1c-.1-2-.2-3.5-.2-4.3v-7.4h3v15.6zM128.6 182.3l-1.1-3.7h-5.7l-1.1 3.7H117l5.5-15.8h4.1l5.6 15.8h-3.6zm-1.9-6.5c-1.1-3.4-1.6-5.3-1.8-5.8-.1-.4-.2-.8-.3-1.1-.2.9-.9 3.2-2 6.8h4.1zM140.3 182.3H137v-12.9h-4.3v-2.8h11.9v2.8h-4.3v12.9zM159.7 166.6v10.2c0 1.2-.3 2.2-.8 3.1-.5.9-1.3 1.5-2.3 2-1 .5-2.1.7-3.5.7-2 0-3.6-.5-4.7-1.6-1.1-1-1.7-2.5-1.7-4.3v-10.1h3.3v9.6c0 1.2.2 2.1.7 2.7.5.6 1.3.8 2.4.8 1.1 0 1.9-.3 2.4-.9.5-.6.7-1.5.7-2.7v-9.6h3.5zM166.9 176.3v6h-3.3v-15.7h4.6c2.1 0 3.7.4 4.7 1.2 1 .8 1.5 2 1.5 3.5 0 .9-.3 1.7-.8 2.5-.5.7-1.2 1.3-2.2 1.7 2.4 3.5 3.9 5.8 4.6 6.8h-3.7l-3.8-6h-1.6zm0-2.7h1.1c1.1 0 1.8-.2 2.3-.5.5-.4.8-.9.8-1.7 0-.7-.3-1.3-.8-1.6-.5-.3-1.3-.5-2.4-.5h-1v4.3zM187.8 182.3l-1.1-3.7H181l-1.1 3.7h-3.6l5.5-15.8h4.1l5.6 15.8h-3.7zm-2-6.5c-1.1-3.4-1.6-5.3-1.8-5.8-.1-.4-.2-.8-.3-1.1-.2.9-.9 3.2-2 6.8h4.1zM193.3 182.3v-15.7h3.3v13h6.4v2.8h-9.7zM125 162.9h-3.3v-15.7h9v2.7H125v4.1h5.3v2.7H125v6.2zM148.1 155c0 2.6-.6 4.6-1.9 6-1.3 1.4-3.1 2.1-5.5 2.1s-4.3-.7-5.5-2.1c-1.3-1.4-1.9-3.4-1.9-6s.6-4.6 1.9-6c1.3-1.4 3.1-2.1 5.6-2.1 2.4 0 4.3.7 5.5 2.1 1.1 1.4 1.8 3.4 1.8 6zm-11.5 0c0 1.8.3 3.1 1 4 .7.9 1.7 1.3 3 1.3 2.7 0 4-1.8 4-5.3s-1.3-5.3-4-5.3c-1.3 0-2.3.4-3 1.3-.7 1-1 2.3-1 4zM165.6 155c0 2.6-.6 4.6-1.9 6-1.3 1.4-3.1 2.1-5.5 2.1s-4.3-.7-5.5-2.1c-1.3-1.4-1.9-3.4-1.9-6s.6-4.6 1.9-6c1.3-1.4 3.1-2.1 5.6-2.1 2.4 0 4.3.7 5.5 2.1 1.2 1.4 1.8 3.4 1.8 6zm-11.5 0c0 1.8.3 3.1 1 4 .7.9 1.7 1.3 3 1.3 2.7 0 4-1.8 4-5.3s-1.3-5.3-4-5.3c-1.3 0-2.3.4-3 1.3-.6 1-1 2.3-1 4zM181.9 154.9c0 2.6-.7 4.6-2.2 5.9-1.5 1.4-3.6 2.1-6.4 2.1h-4.5v-15.7h4.9c2.6 0 4.6.7 6 2 1.5 1.4 2.2 3.3 2.2 5.7zm-3.5.1c0-3.4-1.5-5.1-4.5-5.1h-1.8v10.2h1.4c3.3.1 4.9-1.7 4.9-5.1z"/><path d="M83.4 153.5c2.6-11.9 9.5-22.1 20-28.5.7-.4.1-1.5-.6-1.1-10.6 6.6-17.8 17.1-19.6 29.5-.1.2.1.2.2.1z"/><path d="M92.2 142c3.6-6.2 8.9-10.9 15.3-14 .5-.3.1-1-.5-.8-6.6 3.1-11.8 8.2-15.1 14.7-.1.1.2.3.3.1zM192.3 135.3c2.5 1.5 4.5 3.5 5.6 6.2.2.5.9.2.7-.3-1.2-2.8-3.3-5.1-6.1-6.3-.3-.1-.5.3-.2.4zM194.6 129.4c3.4 2.9 5.8 6.5 6.9 10.9.1.5 1 .3.8-.2-1.2-4.4-3.7-8.4-7.4-11-.3-.2-.5.1-.3.3z"/><path class="st4" d="m208.1 83.5-2.5 3.3-.9-.7 5.9-8 2.2 1.7c1 .7 1.6 1.5 1.8 2.2.2.7 0 1.5-.5 2.2-.8 1.1-1.9 1.4-3.2.9l-.4 5.3-1.1-.8.5-4.8-1.8-1.3zm.6-.8 1.3 1c.7.5 1.3.7 1.8.7s.9-.3 1.3-.8.5-1 .4-1.5c-.1-.5-.6-1-1.3-1.5l-1.2-.9-2.3 3zM215.9 95.3l-4.2-3.8 6.6-7.5 4.2 3.8-.7.8-3.4-3-2.1 2.4 3.1 2.8-.7.8-3.1-2.8-2.4 2.8 3.3 3-.6.7zM220.6 100.1l4.2-8.5-1.8 1.8-4.7 4.3-.7-.8 7.4-6.7 1.2 1.3-3.9 7.9 8.2-3.2 1.2 1.3-7.4 6.7-.8-.9 4.7-4.3c.5-.5 1.2-1 1.8-1.5l-8.8 3.4-.6-.8zM228.2 109.5l8.1-5.8.7 1-8.1 5.8-.7-1zM239.8 114.5c-.9.5-1.7.6-2.5.3s-1.6-1-2.3-2.1l-.6-1-3.3 2.1-.6-1 8.5-5.2 1.4 2.2c1.3 2.1 1.1 3.7-.6 4.7zm-4.5-3.3.6.9c.5.9 1.1 1.5 1.6 1.7.5.2 1.1.1 1.7-.2.6-.3.9-.8.9-1.3s-.2-1.2-.7-2l-.7-1.1-3.4 2zM239.8 124c-.8.4-1.5.4-2.3.1-.7-.4-1.3-1-1.8-2-.5-1.1-.8-2-.8-2.7l1-.5c0 .5.1.9.2 1.4.1.5.3.9.5 1.4.4.7.8 1.2 1.2 1.4.4.2.9.2 1.4 0 .3-.2.5-.3.7-.6.1-.2.2-.5.2-.9s0-.9-.1-1.6c-.1-1-.1-1.8.1-2.3.2-.6.7-1 1.3-1.3.7-.3 1.4-.4 2 0 .7.3 1.2.9 1.7 1.8s.7 1.8.8 2.7l-1.1.1c-.1-.9-.3-1.7-.6-2.4-.3-.6-.6-.9-1-1.1-.4-.2-.8-.2-1.2 0-.3.2-.5.3-.7.6-.1.2-.2.5-.2.9s0 .9.1 1.5c.1 1.1.1 2-.1 2.5-.3.2-.7.7-1.3 1zM250.4 130.6l-6 2.4c-1.1.4-2 .4-2.9 0-.9-.4-1.5-1.2-2-2.3-.4-1.1-.5-2.1-.1-3 .4-.9 1.1-1.5 2.1-1.9l6-2.3.4 1.1-6.1 2.4c-.8.3-1.3.8-1.5 1.3-.2.6-.2 1.3.1 2.1.3.8.8 1.3 1.4 1.6.6.3 1.3.2 2-.1l6-2.4.6 1.1zM243.1 141.1l7.7-5.6v-.1c-.7.2-1.5.5-2.4.7l-6.1 1.6-.3-1.1 9.6-2.5.5 1.7-7.1 5.2v.1l8.8 1.1.5 1.7-9.6 2.5-.3-1.1 6.2-1.6c.7-.2 1.5-.4 2.3-.5v-.1l-9.4-1.1-.4-.9zM251.5 160.4c-1.6.2-2.9-.2-3.9-1s-1.5-2.1-1.7-3.8l-.3-2.8 9.9-1 .3 3.1c.2 1.6-.1 2.8-.9 3.8-.7 1-1.8 1.6-3.4 1.7zm-.1-1.2c1.3-.1 2.2-.6 2.8-1.3.6-.7.8-1.7.7-3l-.2-1.7-7.9.8.1 1.4c.1 1.4.6 2.4 1.3 3.1.8.6 1.9.8 3.2.7zM251.6 172c-1.6 0-2.9-.4-3.8-1.3-.9-.8-1.4-2-1.4-3.4 0-1.5.5-2.6 1.4-3.4.9-.8 2.2-1.2 3.8-1.2 1.6 0 2.9.4 3.8 1.3.9.8 1.3 2 1.3 3.5s-.5 2.6-1.4 3.4c-.9.8-2.1 1.1-3.7 1.1zm0-8c-1.4 0-2.4.3-3.1.8-.7.6-1.1 1.4-1.1 2.5s.3 2 1 2.6c.7.6 1.7.9 3.1.9 1.3 0 2.4-.3 3.1-.8.7-.6 1-1.4 1.1-2.5 0-1.1-.3-2-1-2.6-.8-.6-1.8-.9-3.1-.9zM246.3 174.3l9.9 1-.1 1.2-8.9-.9-.4 4.4-1-.1.5-5.6zM248.8 191.2c-1.6-.3-2.7-1-3.5-2-.7-1-1-2.2-.7-3.6.3-1.5.9-2.5 2-3.1 1-.6 2.4-.8 4-.4 1.6.3 2.8 1 3.5 1.9.7 1 .9 2.2.7 3.7-.3 1.4-.9 2.5-2 3.1-1.1.6-2.4.8-4 .4zm1.5-7.9c-1.3-.3-2.4-.2-3.2.3-.8.4-1.3 1.2-1.5 2.3-.2 1.1 0 2 .5 2.7.6.7 1.5 1.2 2.9 1.4 1.3.3 2.4.2 3.2-.2.8-.4 1.3-1.2 1.5-2.3.2-1.1 0-2-.5-2.7-.6-.7-1.5-1.2-2.9-1.5zM246.9 194.7l-4-1.2.3-1.1 9.6 2.8-.8 2.7c-.3 1.2-.8 2-1.4 2.4-.6.4-1.4.5-2.3.3-1.3-.4-1.9-1.3-2-2.7l-5.1 1.4.4-1.3 4.7-1.2.6-2.1zm1 .3-.4 1.6c-.2.8-.2 1.4 0 1.9s.6.8 1.2 1c.6.2 1.1.1 1.5-.2.4-.3.7-.9.9-1.7l.4-1.5-3.6-1.1zM239.5 210.5c-.8-.4-1.3-.9-1.5-1.7-.2-.8-.1-1.7.4-2.7.5-1.1 1-1.9 1.5-2.4l1 .5c-.3.3-.6.7-.9 1.1-.3.4-.5.8-.7 1.3-.3.7-.4 1.3-.3 1.8.1.5.4.8.9 1 .3.1.6.2.9.2.3 0 .5-.2.8-.4.3-.2.7-.6 1.2-1.1.7-.7 1.3-1.2 1.9-1.4.6-.2 1.2-.1 1.9.2.7.3 1.2.8 1.3 1.6.2.7.1 1.5-.3 2.4-.4.9-.9 1.7-1.6 2.3l-.8-.7c.6-.6 1.1-1.3 1.4-2 .2-.6.3-1.1.2-1.5s-.4-.7-.8-.9c-.3-.1-.6-.2-.9-.2-.3 0-.5.1-.8.4-.3.2-.7.6-1.1 1-.8.8-1.4 1.3-2 1.5-.5 0-1.1 0-1.7-.3zM236.1 211.3l8.9 4.6-.5 1-8.9-4.6.5-1zM232.7 217.5l.6-1 7.7 4.6 1.6-2.8.9.5-3.8 6.5-.9-.5 1.6-2.8-7.7-4.5zM224.3 229.6l3.3 1 2.5-3.2-1.8-2.9.7-.9 5.5 9.3-.6.8-10.4-3 .8-1.1zm4.4 1.3 3.2 1c.4.1.9.3 1.4.5-.3-.3-.6-.8-.9-1.2l-1.7-2.8-2 2.5zM219.6 234.9l8.8 3.7c-.6-.4-1.2-1-1.9-1.7l-4.6-4.4.8-.8 7.2 7-1.2 1.3-8.2-3.5 3.7 8.1-1.2 1.3-7.2-7 .8-.8 4.6 4.5c.5.5 1.1 1.1 1.7 1.8l-4-8.7.7-.8zM209.4 244.2l4.3-3.6 6.4 7.7-4.3 3.6-.7-.8 3.4-2.9-2.1-2.5-3.2 2.7-.7-.8 3.2-2.7-2.4-2.8-3.4 2.9-.5-.8zM205.1 247.4l1-.7 5.2 7.3 2.6-1.9.6.8-6.2 4.4-.6-.8 2.6-1.9-5.2-7.2zM201.2 251.9l-.2-.1c-.1-.5-.3-1-.4-1.6l-.3-1.8.7-.5c.1.5.3 1 .6 1.7.2.7.5 1.2.6 1.6l-1 .7zM195.2 263.7c1-.5 1.6-1.2 1.9-2.2.2-.9.1-2-.5-3.1-.6-1.2-1.3-2-2.2-2.3-.9-.4-1.8-.3-2.8.2-.6.3-1.3.8-2 1.4l-.5-.9c.5-.5 1.2-1 2.1-1.5 1.3-.7 2.6-.8 3.7-.3 1.1.4 2 1.4 2.8 2.9.5.9.7 1.8.7 2.7 0 .9-.2 1.7-.7 2.4-.5.7-1.1 1.3-2 1.7-.9.5-1.9.7-2.7.7v-1.1c.8-.1 1.6-.2 2.2-.6zM180.6 265.3c-.6-1.5-.6-2.8-.2-4 .4-1.1 1.3-2 2.7-2.5 1.4-.5 2.6-.5 3.7.1s1.9 1.6 2.5 3.2c.6 1.5.6 2.9.2 4-.4 1.1-1.4 1.9-2.8 2.5-1.4.5-2.6.5-3.7-.1-1-.7-1.8-1.7-2.4-3.2zm7.5-2.8c-.5-1.3-1.1-2.1-1.9-2.6-.8-.5-1.7-.5-2.7-.1-1 .4-1.7 1-2 1.9-.3.9-.2 1.9.3 3.2.5 1.3 1.1 2.1 1.9 2.6.8.5 1.7.5 2.7.1 1-.4 1.7-1 2-1.9.3-.9.2-2-.3-3.2zM169 263.1l1.3-.3 7.4 6.8h.1c-.3-.9-.6-1.8-.8-2.6l-1.4-5.5 1.1-.3 2.5 9.7-1.3.3-7.4-6.8h-.1c0 .1.2.5.4 1.1.2.6.3 1.1.4 1.4l1.4 5.6-1.1.3-2.5-9.7zM161 267c-.1-.9.1-1.6.6-2.2.6-.6 1.4-1 2.5-1.1 1.2-.2 2.1-.2 2.8.1l.2 1.1c-.4-.1-.9-.2-1.4-.2-.5 0-1 0-1.5.1-.8.1-1.3.3-1.7.7-.3.3-.5.8-.4 1.3.1.3.2.6.3.8.2.2.4.4.8.5.4.1.9.3 1.6.4 1 .2 1.7.5 2.2.9.5.4.8 1 .9 1.7.1.8-.1 1.4-.6 2-.5.5-1.2.9-2.2 1-1 .1-1.9.1-2.8-.1l.2-1.1c.9.2 1.7.3 2.5.2.6-.1 1.1-.3 1.4-.6.3-.3.4-.7.4-1.2-.1-.3-.2-.6-.3-.8-.2-.2-.4-.4-.7-.5-.3-.1-.8-.3-1.5-.4-1.1-.2-1.9-.5-2.3-.9-.6-.5-.9-1-1-1.7zM153 264.9l5.6-.4.7 10-5.6.4-.1-1 4.4-.3-.2-3.2-4.2.3-.1-1 4.2-.3-.3-3.7-4.4.3v-1.1zM146.3 274c1.1 0 2-.3 2.6-1 .7-.7 1-1.7 1-3s-.3-2.3-.9-3.1c-.6-.7-1.5-1.1-2.6-1.1-.7 0-1.5.1-2.4.3v-1c.7-.2 1.6-.4 2.6-.3 1.5 0 2.6.5 3.4 1.4.8.9 1.2 2.2 1.1 3.8 0 1-.2 1.9-.6 2.7-.4.8-1 1.4-1.7 1.8-.7.4-1.6.6-2.6.6-1.1 0-2-.2-2.8-.6l.5-1c.8.3 1.6.5 2.4.5zM138.7 264.2l1.2.1-.9 8.9 3.2.4-.1 1-7.5-.9.1-1 3.2.4.8-8.9zM128.5 262.5l5.5 1.1-1.9 9.8-5.5-1.1.2-1 4.4.9.6-3.2-4.1-.8.2-1 4.1.8.7-3.6-4.4-.9.2-1zM123.4 261.1l1.1.3-2.4 8.6 3.1.9-.3 1-7.3-2.1.3-1 3.1.9 2.4-8.6zM108.1 266.3l2.3-6c.4-1.1 1-1.8 1.9-2.1.9-.4 1.9-.3 3 .1s1.9 1.1 2.3 1.9c.4.9.4 1.8 0 2.9l-2.3 6-1.1-.4 2.3-6.1c.3-.8.3-1.5 0-2-.3-.6-.8-1-1.7-1.4-.8-.3-1.5-.3-2.1-.1-.6.3-1 .8-1.3 1.6l-2.3 6.1-1-.5zM106.3 259l1.9-3.7 1 .5-4.5 8.9-2.5-1.3c-1.1-.6-1.8-1.2-2.1-1.9-.3-.7-.3-1.5.2-2.3.6-1.2 1.6-1.7 3-1.5l-.4-5.3 1.2.6.3 4.8 1.9 1.2zm-.4.9-1.4-.7c-.7-.4-1.4-.5-1.8-.4-.5.1-.9.5-1.2 1-.3.6-.3 1.1-.1 1.5.2.4.7.9 1.5 1.3l1.4.7 1.6-3.4zM93.1 246.2l-.7 3.3 3.4 2.3 2.8-1.9 1 .7-8.9 6-.8-.6 2.3-10.6.9.8zm-1 4.4-.8 3.2c-.1.4-.2.9-.4 1.5.3-.3.7-.6 1.2-.9l2.7-1.9-2.7-1.9zM81.5 243.3c1.1-1.3 2.2-1.9 3.5-2 1.3-.1 2.5.4 3.8 1.5l2.1 1.8-6.4 7.6-2.4-2c-1.2-1-1.9-2.1-2-3.4 0-1.1.4-2.3 1.4-3.5zm1 .8c-.8 1-1.2 2-1.1 2.9.1.9.6 1.8 1.6 2.7l1.3 1.1 5.1-6.1-1.1-.9c-1.1-.9-2.1-1.3-3.1-1.3-.9 0-1.8.6-2.7 1.6zM83.2 237.8l-7 7.1-.8-.8 7-7.1.8.8zM70.8 234.9c.7-.7 1.6-.9 2.4-.8.9.2 1.7.7 2.6 1.7l.8.9 2.9-2.6.8.9-7.4 6.7-1.8-2c-1.6-1.9-1.7-3.5-.3-4.8zm5.1 2.5-.7-.8c-.7-.8-1.3-1.2-1.9-1.4-.6-.1-1.1.1-1.7.5-.5.4-.7.9-.7 1.5.1.5.4 1.2 1 1.9l.9 1 3.1-2.7zM74.8 228.5l-7.8 6.2-.7-.9 7.8-6.2.7.9zM66.9 222.1c.7-.5 1.5-.6 2.2-.4.8.3 1.5.8 2.1 1.8.7 1 1.1 1.8 1.2 2.5l-.9.6c-.1-.4-.2-.9-.4-1.4-.2-.5-.4-.9-.7-1.3-.4-.6-.9-1.1-1.4-1.2-.5-.2-.9-.1-1.3.2-.3.2-.5.4-.6.7-.1.2-.1.6-.1.9 0 .4.2.9.3 1.6.3 1 .3 1.7.2 2.3-.1.6-.5 1.1-1.1 1.5-.6.4-1.3.5-2 .3s-1.3-.7-1.9-1.5c-.6-.8-1-1.7-1.1-2.6l1-.3c.2.9.5 1.7 1 2.3.4.5.7.8 1.2 1 .4.1.8.1 1.2-.2.3-.2.5-.4.6-.6.1-.2.1-.5.1-.9s-.1-.9-.3-1.5c-.3-1.1-.4-1.9-.3-2.5.1-.4.5-.9 1-1.3zM58 219.6c.6 1 1.3 1.6 2.3 1.7 1 .2 2 0 3.1-.7 1.1-.6 1.9-1.4 2.2-2.3.3-.9.2-1.8-.4-2.8-.4-.6-.9-1.3-1.5-1.9l.9-.5c.6.5 1.1 1.2 1.6 2.1.7 1.3.9 2.5.6 3.7-.4 1.2-1.3 2.1-2.7 3-.9.5-1.8.8-2.6.8-.9 0-1.7-.1-2.4-.6-.7-.4-1.3-1.1-1.8-2-.5-.9-.8-1.8-.9-2.7l1.1-.1c-.1.9.1 1.7.5 2.3zM63.7 211l-9 4.4-.5-1.1 9-4.4.5 1.1zM59 200.1l.5 1.3-5.7 8.2v.1c.9-.4 1.7-.8 2.5-1.1l5.3-2.1.4 1-9.3 3.7-.5-1.2 5.7-8.2v-.1c-.1.1-.5.2-1.1.5-.6.3-1 .5-1.3.6l-5.3 2.1-.4-1 9.2-3.8zM51.8 194.6l-.9-3.3 4.7-1.3c.3.5.6 1 .8 1.5.2.5.4 1.1.6 1.8.4 1.5.3 2.8-.3 3.8-.6 1.1-1.7 1.8-3.3 2.2-1 .3-1.9.3-2.8.1-.9-.2-1.6-.6-2.2-1.3-.6-.7-1.1-1.5-1.4-2.5-.3-1-.4-2.1-.3-3.1l1.1.2c-.1 1-.1 1.9.2 2.7.3 1.2.9 2 1.8 2.5s1.9.5 3.2.2c1.3-.4 2.2-1 2.7-1.8s.6-1.9.2-3.1c-.2-.7-.5-1.3-.8-1.9l-3 .8.6 2.2-.9.3zM53.9 178.2l.8 5.6-9.9 1.4-.8-5.6 1-.1.6 4.4 3.2-.4-.6-4.2 1-.1.6 4.2 3.6-.5-.6-4.4 1.1-.3zM53.7 176l-10 .6-.1-1.2 8.9-.6-.3-4.5 1-.1.5 5.8zM53.3 168.6h-10v-1.2h10v1.2zM53.5 161.5l-.1 1.2-8.9-.5-.2 3.2-1-.1.4-7.6 1 .1-.2 3.2 9 .5zM52.3 155.6l.2-.1c.4.2.9.4 1.5.7.6.3 1.1.6 1.6.9l-.1.9c-.5-.2-1-.4-1.7-.6-.7-.2-1.2-.4-1.6-.5l.1-1.3zM53.3 143.5c.9.2 1.5.6 1.8 1.4.4.7.4 1.6.2 2.7-.2 1.2-.6 2-1 2.6l-1.1-.2c.3-.4.5-.8.7-1.2.2-.5.3-.9.4-1.4.2-.8.1-1.4-.1-1.8-.2-.4-.6-.7-1.1-.8-.3-.1-.6-.1-.9 0-.2.1-.5.3-.7.6-.2.3-.6.7-.9 1.3-.5.9-1 1.4-1.6 1.7-.5.3-1.1.4-1.9.2-.8-.2-1.3-.6-1.6-1.2-.3-.7-.4-1.5-.2-2.4.2-1 .6-1.9 1.1-2.6l.9.6c-.5.7-.8 1.5-1 2.3-.1.6-.1 1.1.1 1.5.2.4.5.6 1 .7.3.1.6.1.9 0 .2-.1.5-.3.7-.5.2-.3.5-.7.9-1.3.6-1 1.1-1.6 1.6-1.9.6-.3 1.2-.4 1.8-.3zM58 136.6l-1.5 5.4-9.6-2.8 1.5-5.4 1 .3-1.2 4.3 3.1.9 1.1-4 1 .3-1.1 4 3.5 1 1.2-4.3 1 .3zM56.9 125.1c1.5.6 2.5 1.5 3 2.7.5 1.2.4 2.5-.2 4.1l-1 2.6-9.3-3.7 1.1-2.9c.6-1.5 1.4-2.4 2.5-2.9 1.2-.5 2.5-.5 3.9.1zm-.4 1.2c-1.2-.5-2.2-.5-3.1-.2-.9.4-1.5 1.2-2 2.4l-.6 1.6 7.4 2.9.5-1.3c.5-1.3.6-2.4.2-3.3-.4-.9-1.2-1.6-2.4-2.1zM63.7 112.1c1.4.8 2.3 1.8 2.6 3.1.3 1.2.1 2.6-.8 4.1l-1.4 2.4-8.7-5L57 114c.8-1.4 1.7-2.2 2.9-2.6 1.2-.3 2.5-.1 3.8.7zm-.6 1.1c-1.1-.6-2.2-.8-3.1-.6-.9.2-1.7.9-2.3 2.1l-.8 1.5 6.9 4 .7-1.2c.7-1.2.9-2.3.7-3.3-.2-1-.9-1.9-2.1-2.5zM70.4 102.6c1.3.9 2.1 2 2.3 3.2.3 1.2 0 2.4-.9 3.6-.9 1.2-1.9 1.9-3.1 2-1.2.1-2.5-.3-3.8-1.3-1.3-1-2.1-2-2.4-3.2-.3-1.2.1-2.4.9-3.6.8-1.2 1.9-1.8 3.1-2 1.3 0 2.6.4 3.9 1.3zm-4.7 6.6c1.1.8 2.1 1.2 3 1.1.9-.1 1.7-.5 2.3-1.4.6-.9.9-1.8.6-2.7-.2-.9-.9-1.7-2-2.5s-2.1-1.2-3-1.1c-.9.1-1.7.5-2.3 1.4-.7.9-.9 1.8-.6 2.7.3.8.9 1.7 2 2.5zM82.2 97l-3.9 4.1-7.3-6.9 3.9-4.1.8.7-3.1 3.2 2.3 2.2 2.9-3 .7.7-2.9 3 2.7 2.5 3.1-3.2.8.8zM83.8 95.5 77 88.1l.9-.8 6.8 7.3-.9.9zM86.3 80.2l4.1 5.1c.7.9 1 1.8.9 2.8-.1.9-.7 1.8-1.6 2.6-.9.8-1.9 1.1-2.8 1-.9-.1-1.8-.6-2.5-1.5l-4.1-5 .9-.7 4.1 5.1c.5.7 1.1 1 1.7 1.1.6.1 1.3-.2 2-.8.7-.5 1-1.1 1.1-1.8.1-.6-.2-1.3-.7-1.9l-4.1-5.1 1-.9z"/><path class="st2" d="M93.5 69.1c2.8-4.6 6.2-8.5 10.5-11.7.4-.3 0-1-.4-.7-4.3 3.2-8 7.4-10.5 12.1-.1.4.2.6.4.3z"/><path class="st2" d="M96.8 67.1c1.6-3.8 4.3-6.9 7.8-9 .4-.3 0-.9-.4-.6-3.6 2.3-6.2 5.5-7.8 9.5 0 .1.3.3.4.1zM104.1 60.9c-.4 2.4-.5 4.8-.8 7.1 0 .4.6.4.6 0 .2-2.4.5-4.7.6-7.1.1-.2-.3-.3-.4 0zM106 61.7c0 2.6-.2 5.1-.8 7.7-.1.4.6.6.7.2.5-2.6.8-5.3.5-7.9 0-.3-.4-.3-.4 0zM107.7 62c-.3 2.8-.3 5.7-.5 8.5 0 .5.7.5.7 0 .1-2.8.3-5.7.2-8.5.1-.3-.3-.3-.4 0zM109.8 64.1c-.3 3-.6 5.9-.8 8.9 0 .4.6.4.6 0 .3-2.9.4-5.9.5-8.9.2-.3-.2-.2-.3 0zM111.6 66.6c.1 3.1-.1 6.1-.5 9.2-.1.5.7.5.8 0 .4-3.1.4-6.1.2-9.2 0-.3-.5-.3-.5 0zM113.6 68.6c-.7 3.2-1.1 6.4-1 9.7 0 .5.7.5.8 0 0-3.2.2-6.3.8-9.5 0-.4-.6-.6-.6-.2zM115.4 70.8c-.5 3.8-1.1 7.6-1.5 11.4 0 .4.7.6.8.1.5-3.8.9-7.6 1.3-11.5.1-.3-.5-.4-.6 0zM117.8 72.2c-.7 4-1.5 8.1-2 12.2 0 .4.7.5.8.1.8-4 1.3-8.1 1.9-12.2 0-.4-.6-.5-.7-.1zM119.3 75.4c-.9 4.2-1.7 8.6-2.2 12.9-.1.5.7.6.9.1.9-4.2 1.5-8.6 2-12.9 0-.4-.7-.5-.7-.1zM120.8 77.9c-.9 4.3-1.7 8.7-2.3 13.1-.1.5.7.8.8.2.8-4.4 1.5-8.8 2-13.2.1-.4-.5-.5-.5-.1zM122 81c-.9 4.2-1.7 8.5-2.3 12.8-.1.6.8.9.9.3.9-4.2 1.5-8.5 2.2-12.8 0-.6-.7-.8-.8-.3zM123.6 83.1c-1.7 5.1-2.8 10.4-3.5 15.7-.1.7.9 1 1 .3.8-5.3 2-10.5 3.3-15.7.1-.6-.7-.9-.8-.3zM124.3 88.5c-1.2 4.4-2.3 8.9-3.4 13.4-.1.6.8.8.9.3 1.1-4.5 2.2-9 3.1-13.5.1-.4-.5-.6-.6-.2zM125.3 92.7l-4.5 15.6c-.2.6.8.9 1 .3 1.4-5.2 2.7-10.5 4.1-15.7 0-.4-.5-.5-.6-.2zM152.8 91.1c0 .5 0 .9-.1 1.4 0 .3.5.3.5 0 0-.5 0-.9-.1-1.4.1-.3-.3-.3-.3 0zM154.5 89.6c.1 1 0 1.8-.3 2.8-.1.3.4.4.5.1.4-1 .5-2 .2-3-.1-.1-.4-.1-.4.1zM156.7 88.2c.2 1.4.1 2.8-.3 4.2-.1.3.4.4.4.1.3-1.4.4-2.9.2-4.3 0-.2-.4-.2-.3 0zM159.1 87.5c-.1 1.7-.3 3.3-.4 5 0 .3.5.3.5 0 .1-1.7.2-3.3.3-5 .1-.3-.4-.3-.4 0zM160.9 85.4c-.3 2.5-.5 5-.8 7.4 0 .4.6.4.6 0 .2-2.5.4-5 .6-7.4.1-.3-.3-.3-.4 0zM162.7 83.6c-.2 2.6-.4 5.2-.5 7.8 0 .4.7.4.7 0 .2-2.6.2-5.2.3-7.8-.1-.3-.5-.3-.5 0zM164.5 83.3l-.9 7.8c0 .4.6.4.7 0 .3-2.6.4-5.2.7-7.8 0-.3-.5-.3-.5 0zM165.8 82.9c0 2.6-.3 5.2-.7 7.7-.1.5.7.7.7.2.4-2.6.6-5.3.5-7.9 0-.3-.5-.3-.5 0zM168 82.1c-.4 2.7-.6 5.5-.9 8.2-.1.5.8.5.8 0 .2-2.7.5-5.4.6-8.1 0-.3-.5-.4-.5-.1zM170.2 82.5c-.4 2.6-.6 5.2-.9 7.9 0 .5.7.5.7 0 .2-2.6.5-5.2.6-7.8 0-.3-.4-.4-.4-.1zM171.5 82.1c-.4 2.7-.6 5.5-.8 8.2 0 .5.7.5.8 0 .3-2.7.5-5.4.5-8.1.1-.3-.4-.4-.5-.1zM173.9 82.2c-.3 2.8-.7 5.7-.9 8.5 0 .4.7.5.7.1.4-2.8.6-5.7.9-8.6 0-.4-.6-.4-.7 0zM176.1 81.8c-.4 3-.8 6-1.1 8.9 0 .4.6.5.7.1.4-3 .7-6 1-9 0-.3-.6-.4-.6 0zM178.6 81.4c-.4 2.9-.8 5.9-1.2 8.8-.1.5.6.6.7.1.3-3 .7-5.9 1-8.9 0-.2-.4-.2-.5 0zM181.2 80c-.4 2.6-.8 5.2-1.1 7.8 0 .4.6.5.6.1.4-2.6.6-5.2.9-7.8 0-.2-.4-.3-.4-.1zM184.2 78.2c-.4 2.6-.9 5.2-1.2 7.9-.1.4.7.5.8.1.4-2.6.7-5.3 1-7.9 0-.3-.5-.4-.6-.1zM186 77.6c-.2 2-.5 4-.6 6 0 .5.7.5.8 0 .2-2 .3-4 .4-6 .1-.4-.5-.4-.6 0zM188.8 76.4c-.3 1.5-.6 3-.9 4.6-.1.5.7.8.8.2.3-1.6.4-3.1.6-4.7.2-.3-.4-.4-.5-.1zM191 74.7c-.3 1.1-.4 2.3-.6 3.4-.1.5.7.8.8.2.1-.6.3-1.1.4-1.7.1-.5-.7-.7-.8-.2-.1.6-.3 1.1-.4 1.7.3 0 .6.1.8.1.1-1.1.3-2.3.3-3.4.1-.4-.4-.4-.5-.1zM169.9 75.1c.1.5.2.8.1 1.3-.1.4.6.6.7.2.2-.7.1-1.3-.5-1.7-.2 0-.4.1-.3.2zM171.7 73.7c.2.7.3 1.3.1 2-.1.4.5.5.6.2.1-.8.1-1.6-.4-2.3-.1-.1-.4-.1-.3.1zM173.6 71.9c.1 1.1 0 2.1-.2 3.1-.1.4.5.5.6.2.3-1.1.2-2.2.1-3.4-.1-.2-.5-.1-.5.1zM175.4 69.8c.1 1.4-.1 2.8-.4 4.2-.1.4.5.6.6.2.3-1.4.4-2.9.3-4.3 0-.4-.5-.5-.5-.1zM177.9 66.3c-.2 2.1-.3 4.3-.5 6.4 0 .5.7.5.8 0 .1-2.1.2-4.3.3-6.4-.1-.4-.6-.4-.6 0zM179.9 63.8c-.3 2.8-.6 5.7-.8 8.5 0 .5.8.5.8 0 .2-2.8.4-5.7.6-8.5 0-.4-.5-.4-.6 0zM181.8 61.3c-.2 1.5-.3 3-.5 4.5-.1 1.3-.7 3.3-.5 4.6.1.6.5 1.1 1.1.5.1-.1.1-.3.1-.4v-.1c-.1-.5-.9-.3-.8.2.4-.2.6-.6.5-1.1 0-.2 0-.5.1-.7.1-.9.2-1.7.2-2.6.1-1.6.3-3.2.4-4.9.1-.4-.6-.4-.6 0zM183.4 60.2c-.2 3.5-.5 7.1-.7 10.6 0 .5.7.5.8 0 .3-3.5.4-7.1.5-10.6.1-.4-.5-.4-.6 0zM184.9 57c.4 4.4.4 8.7 0 13.1-.1.6.8.6.9 0 .4-4.4.3-8.8-.3-13.2-.1-.3-.7-.2-.6.1zM188 55.6c-.3 4.3-.5 8.5-.8 12.8 0 .5.8.5.8 0 .2-4.3.4-8.5.5-12.8.1-.3-.4-.3-.5 0zM189.2 51.7c.2 5.1.2 10.2-.2 15.2 0 .5.8.5.8 0 .2-5.1.2-10.2-.2-15.2.1-.3-.4-.3-.4 0zM190.9 48.9c.6 5.6.7 11.1.3 16.6 0 .5.8.5.8 0 .3-5.6.2-11.2-.6-16.7 0-.2-.5-.2-.5.1zM192.3 45.7c.8 6.9 1 13.6.7 20.5 0 .5.7.5.8 0 .4-6.9 0-13.8-1-20.6-.1-.2-.5-.1-.5.1zM193.5 42.9c1.7 6.9 2 13.7.9 20.7-.1.5.7.8.8.2 1.1-7.1.7-14.1-1.2-21.1-.1-.2-.6-.1-.5.2zM128.4 95.9c.1 1.4.4 2.5.1 3.9-.1.5.6.6.7.2.3-1.3.3-3.1-.6-4.2-.1 0-.2 0-.2.1zM129.7 92.1c-.1 1.9 0 3.8.3 5.7.1.4.7.2.6-.2-.4-1.9-.5-3.7-.4-5.6 0-.2-.5-.2-.5.1zM131.2 89.6c.2 2 .3 4.1.6 6.1 0 .3.5.2.5-.1-.1-2-.5-4-.7-6 0-.2-.5-.3-.4 0zM132.9 87.2c.4 2.6.6 5.1.6 7.7 0 .4.6.4.6 0 0-2.6-.3-5.3-.8-7.9 0-.2-.4-.1-.4.2zM134.7 82.9c.2 2.3.4 4.7.7 7 .1 1-.2 3 .7 3.7.1.1.3.2.4.1.3-.2.3-.3.3-.6 0-.2-.2-.3-.4-.4h-.1c-.4 0-.5.6-.1.7-.1 0-.9-9.6-1-10.5 0-.3-.6-.4-.5 0zM136.8 80.4c.4 3.8.9 7.6 1.3 11.3.1.5.8.4.7-.1-.6-3.8-1-7.5-1.6-11.3 0-.2-.4-.1-.4.1zM139.3 80.8c0 3.3.3 6.5.9 9.7.1.5.8.3.7-.2-.6-3.1-1-6.3-1.1-9.5 0-.4-.5-.4-.5 0zM141.1 78.4c.6 3.6 1 7.3 1.2 10.9 0 .5.7.5.7 0-.3-3.7-.8-7.4-1.5-11.1 0-.3-.5-.1-.4.2zM142.8 75.5c.5 4 1.1 8.1 1.6 12.1.1.4.7.3.7-.2-.6-4-1.3-8-1.9-12 0-.2-.4-.1-.4.1zM145.3 77.3c.5 2.6.6 5.1.6 7.7 0 .3.5.3.5 0 .1-2.6-.2-5.3-.8-7.8.1-.3-.3-.1-.3.1zM151 71.6c.5 2.1.9 4.3 1.4 6.4.1.3.5.2.5-.1-.5-2.1-1-4.2-1.6-6.3-.1-.2-.4-.1-.3 0zM151.3 64.9c.8 4.4 1.7 8.8 2.9 13.2.1.5.8.3.7-.2-1.3-4.3-2.3-8.7-3.1-13.1 0-.4-.5-.2-.5.1zM153.5 61.3c.4 5.3 1.5 10.4 3.2 15.4.2.5.9.3.7-.2-1.7-4.9-2.9-10-3.4-15.2 0-.3-.5-.3-.5 0zM155.4 59.3c1 5.6 2.1 11.1 3.2 16.7.1.5.9.3.8-.2-1.1-5.5-2.3-11.1-3.5-16.6-.1-.4-.6-.3-.5.1zM158.1 57.1c1 5.2 1.9 10.4 2.9 15.7.1.5.9.3.8-.2-1.1-5.2-2.1-10.4-3.2-15.6-.1-.3-.6-.2-.5.1zM159.9 52.8c1 5.9 2.2 11.7 3.7 17.4.1.5.9.3.7-.2-1.5-5.7-2.8-11.5-3.9-17.4-.1-.2-.6-.1-.5.2zM161.5 52.2c1.1 5.3 2.2 10.7 3.5 16 .1.5.9.3.8-.2-1.2-5.3-2.5-10.6-3.8-15.9-.1-.4-.5-.2-.5.1zM162.3 50c1.1 5.7 2.9 11.2 5.5 16.5.2.5 1 .1.7-.4-2.7-5.1-4.6-10.5-5.7-16.2 0-.4-.6-.2-.5.1zM168 45.4c-.2 5.2 1.3 10.3 4.4 14.4.3.4.9 0 .6-.4-3-4.3-4.5-8.8-4.6-14.1 0-.2-.4-.2-.4.1zM170.5 43.9c.7 5.4 2.3 10.6 4.7 15.5.3.5 1 .1.8-.4-2.5-4.8-4.1-9.8-5-15.1 0-.3-.5-.3-.5 0zM173.2 43.6c.4 4 1.5 8 2.7 11.8.2.5 1 .3.8-.2-1.1-3.9-1.9-7.8-3-11.6 0-.3-.5-.3-.5 0zM175 41.9c.9 3.7 1.8 7.3 2.7 11 .1.5.9.3.8-.2-1-3.6-2.1-7.3-3.1-10.9-.1-.3-.5-.2-.4.1zM176.9 40.8c.8 3.3 1.7 6.7 2.5 10 .1.5 1 .3.8-.2-.9-3.3-1.8-6.6-2.8-9.9-.1-.4-.6-.2-.5.1zM179.4 41.1c.5 2.3 1.1 4.5 1.6 6.8.1.4.8.2.7-.2-.6-2.2-1.2-4.5-1.8-6.7-.1-.3-.6-.2-.5.1zM181.2 40.4c.3 1.6.6 3.2 1 4.7.1.4.7.2.7-.2-.3-1.6-.8-3.1-1.2-4.7-.1-.2-.6-.1-.5.2zM182.7 39.3c.1 1.3.4 2.6 1 3.8.2.4.8.1.6-.3-.6-1.1-.9-2.3-1.1-3.5-.1-.3-.6-.2-.5 0zM184.3 38.7c.2.7.3 2.2 1.1 2.5.1.1.3 0 .4-.1V41c.1-.1.1-.2 0-.3 0 0 0-.1-.1-.1-.1-.2-.3-.2-.4-.1h-.1c-.4.2 0 .7.3.5h.1c-.1 0-.3-.1-.4-.1v-.1c.1 0 .3-.1.4-.1-.4-.2-.7-1.6-.9-2 0-.5-.5-.3-.4 0zM186.2 37.1c-.4.1-.8.7-.3 1.1.5.4 1-.1 1-.6 0-.4-.5-.4-.6 0h.1c.3-.2.1-.6-.2-.5zM189.8 32.9c.4 0 .4-.7 0-.7-.4.1-.4.7 0 .7zM155.5 225.6c1.6 1.5 3.4 2.8 5.4 3.9.4.2.7-.4.3-.6-2-1-3.8-2.2-5.4-3.7-.2-.1-.5.2-.3.4zM156.7 223.4c1.8 2.1 4.2 3.7 6.8 4.8.3.1.5-.4.2-.6-2.6-1-4.7-2.5-6.7-4.4-.2-.2-.4 0-.3.2zM164.5 231.3c.8-.5 1.4-1.1 1.8-1.9.2-.3-.3-.7-.5-.3-.4.7-1 1.3-1.6 1.8-.3.2 0 .6.3.4zM166.6 232.1c.3-.9.8-1.6 1.5-2.3.3-.3-.2-.8-.5-.5-.7.7-1.2 1.6-1.5 2.6-.1.4.4.5.5.2zM168.7 232.6c.6-.7 1-1.4 1.6-2.1.3-.4-.4-.8-.6-.4-.5.7-.9 1.4-1.3 2.2-.3.2.1.5.3.3zM170.5 232.6c.8-.7 1.5-1.4 2.2-2.1.3-.3-.2-.7-.4-.4-.7.7-1.4 1.4-2.1 2.2-.2.2.1.5.3.3zM172.9 232.7c.9-.4 1.6-1 2-1.8.2-.4-.4-.7-.6-.3-.4.8-.9 1.3-1.7 1.7-.2 0 0 .5.3.4zM175.7 232c.9-.4 1.6-.9 2-1.8.2-.4-.4-.7-.6-.3-.4.8-.9 1.3-1.6 1.7-.3 0-.1.5.2.4zM179.7 230.6c.8-.4 1.3-1.1 1.6-2 .1-.5-.6-.7-.7-.2-.2.7-.5 1.2-1.2 1.7-.3.2 0 .7.3.5zM182.6 229.8c.5-.5 1-.9 1.5-1.4.3-.3-.2-.8-.5-.5-.5.5-.9 1-1.4 1.5-.2.3.1.6.4.4zM187.5 227.7c.6-.3 1.2-.6 1.8-1 .4-.2 0-.8-.3-.6-.6.4-1.1.8-1.7 1.2-.3.2-.1.5.2.4zM192.5 225.2c.4-.5.7-.9 1.1-1.4.3-.4-.2-.8-.5-.4-.3.5-.7 1-1 1.4-.3.3.2.7.4.4zM197.2 221.3c.1-.2.2-.5.4-.7.2-.4-.4-.8-.6-.4-.1.2-.2.5-.3.7-.3.4.3.8.5.4zM200.8 217.9c.4 0 .4-.7 0-.7s-.4.7 0 .7zM205 214v-.4c0-.4-.6-.4-.6 0v.4c0 .4.6.4.6 0zM208.3 210.8v-.4c0-.5-.7-.5-.7 0v.4c-.1.5.7.5.7 0zM98.8 181.8c.2 1.3.4 2.6.7 3.9.1.4.7.2.6-.2-.3-1.3-.5-2.6-.8-3.9-.1-.2-.5-.1-.5.2zM101.6 185.3v.4-.4zM101.4 185.4c.2.4.4.7.7 1.1.2.3.7 0 .5-.3-.2-.3-.5-.7-.7-1-.3-.3-.7 0-.5.2zM104.8 187.5c32.6.6 65.2.6 97.8 1.8.5 0 .5-.8 0-.8-32.5-1.3-65.3-2.3-97.8-1.3-.2-.1-.2.3 0 .3zM203.8 183.6c.1.8.2 1.7.2 2.5 0 .4.6.3.5-.1-.1-.8-.3-1.6-.4-2.5-.1-.2-.4-.1-.3.1zM205.8 182c-.4 1.4-.6 2.9-.4 4.3 0 .5.8.5.8 0-.1-1.4-.1-2.8.2-4.2.1-.3-.5-.4-.6-.1zM106.2 189.5c32.6.8 65.2.3 97.8 1.1.4 0 .4-.7 0-.7-32.5-.8-65.3-1.9-97.8-.8-.2 0-.2.4 0 .4z"/></svg>