<svg version="1.1" id="Calque_1" xmlns="http://www.w3.org/2000/svg" x="0" y="0" viewBox="0 0 300 300" style="enable-background:new 0 0 300 300" xml:space="preserve"><style>.st3{fill-rule:evenodd;clip-rule:evenodd;fill:#fff}</style><path style="fill:#ffe7d2" d="M.4.4H300V300H.4z"/><path d="M215.8 65.4c-31.8 31.3-21.1 42.8-25 80.9-4.3 42.6-43.6 10.9-58.5 51.3-10.7 29.1 15.7 47.1 38 46.5 38.3-1 33.5-49.2 1.2-31.3-11.3 6.3 4-18.7 23.6-14.7 20.1 4 28.9 19.4 24.9 33.7-5.1 18.1-20.2 28.2-38.5 32.6-11.9 2.9-23.3 3.9-34 3.4C7.8 251.3 19 44.8 137.5 32.9c55.8-5.7 91.9 19.1 78.3 32.5z" style="fill-rule:evenodd;clip-rule:evenodd;fill:#575756"/><path d="M225.7 192.8c11 2.5 17.6-2.4 17.2-10.9-.3-5.5-.5-11.1-.8-16.6 4.7-7.5 5.2-5.3-.8-12.1 0 0 4.2-1.9 6.7-5.1 2.5-3.3-4.5-8.7-3.6-10.2.9-1.4 13.4-9.5 9-10.5s-22.1-17.5-25-26.3c-5.1-15.1-8.1-27.1-12.6-35.8-32.4 30.6-21.1 42.7-25 80.9-4.3 42.6-43.6 10.9-58.5 51.3-10.6 28.6 15 46.5 37 46.5-30.5-31.7-12.3-67 56.4-51.2z" style="fill-rule:evenodd;clip-rule:evenodd;fill:#c09162"/><path class="st3" d="M217.5 64.9c-24 22.9-16.4 18.6-22.1 44.2-12.5 55.6-87.9 90.3-113.8 44.9-5.8-10.1-10.4-30.6 1.3-45.9l5.1-5.3-1.2 5.5c-4.7 19.4.2 31.1 12.7 41.5 11.9 10 33.6 11.6 54.7-2.3 31.9-21 26.5-46.5 40-66.1 6.5-9.6 13.5-13.3 23.3-16.5z"/><path class="st3" d="M200.6 82.4c-9.4 30.6-5.2 30.4-7.1 58.7-1.7 26.5-18 34.6-38.7 44.6-36 17.3-21.9 60.3 25 54.4l7.9-1.1-6.8 4.7c-20.9 10.4-52.9-1.8-57.8-26.5-4.3-21.6 12-39.7 31.3-47.2 34.7-13.5 25.9-27.6 31.8-58.3 3.3-16.2 4.2-17.2 14.4-29.3z"/></svg>