<svg xmlns="http://www.w3.org/2000/svg" xmlns:xlink="http://www.w3.org/1999/xlink" viewBox="-155 247 300 300" style="enable-background:new -155 247 300 300" xml:space="preserve"><defs><path id="a" d="M-155 247.2h300V547h-300z"/></defs><clipPath id="b"><use xlink:href="#a" style="overflow:visible"/></clipPath><path style="clip-path:url(#b);fill:#ff1537" d="M-155 247.2h300V547h-300z"/><circle cx="86.5" cy="304.5" r="163.5" style="clip-path:url(#b);fill:#ff5072"/><g style="clip-path:url(#b)"><path d="M74.2 382.6c-16.6-7.2-32.6-34.2-48.7-34.2s-19.9 7.7-30.7 7.7c-10.7 0-14.6-7.7-30.7-7.7s-33.3 28.9-48.2 34.8c-1.1.4.5 2 3.5 5.4 13.8 15.6 22.1 57 75.3 57 54.7 0 64.7-45.5 76.9-59.1 2.3-2.5 3.3-3.6 2.6-3.9zm-46.8 10.6c-5.3 2.1-16 14.6-32.4 14.6-17.7 0-26.7-11.9-32.7-14.6-.2-.1-.2-.4 0-.5 3.3-1.5 10.2-6.6 17.4-6.6 7.1 0 9.8 1.9 14.6 1.9 4.8 0 8.9-1.9 16.1-1.9 7.1 0 14.1 5.1 17.4 6.6.1.1 0 .4-.4.5z" style="fill:#fff"/></g></svg>