<svg version="1.1" id="Calque_1" xmlns="http://www.w3.org/2000/svg" x="0" y="0" viewBox="0 0 300 300" style="enable-background:new 0 0 300 300" xml:space="preserve"><style>.st1{fill:#b8cb00}.st2{fill:#fff}.st3{fill:#231f20}.st4{fill:#333}</style><path style="fill:#fdffd2" d="M.4.4H300V300H.4z"/><circle class="st1" cx="149.9" cy="148.8" r="109"/><path d="M146.4 285.9c-3.4 0-5.7-.2-6.2-.3-1.3 0-11.3-.3-18-4.1-4.5-2.5-6.9-5-8.1-6.5h-.2c-2.9 0-8.9-.8-16.1-5.8-9.6-6.7-10.8-16.9-11-18.8-.5-2.1-3.2-15.6 2.5-32.9 6-18.2 11.8-25.4 12-25.7.4-.6 12.7-17.8 31.6-22.3 1.8-.4 3.5-.7 5.2-.9-3.1-3.2-6.2-6.4-7.5-7.9-1.9-2.2-1.9-4.2-1.6-5.5.7-2.9 3.4-5.2 8.9-7.6 6.5-2.8 13.1-3.1 14.9-3.1h.2c1.2-.1 2.1-.2 2.8-.2 2.4 0 3.8.8 4.2 2.5.6 3-2.3 4.3-10.1 7.7l-1.8.8c-1.4.6-2.1 1.2-2.4 1.5l3.5 7.7c3.8-3.7 10.1-9.1 17.3-12.9 6.4-3.4 11.6-5 15.8-5 3 0 5.1.8 6.6 1.4 3.4 1.5 6.6 5.8 10.2 10.8.4.6.8 1.2 1.2 1.7.9 1.2 1.7 2.7 2.7 4.5 1.9 3.5 4.2 7.8 8 11.3 5.3 5.1 11.7 10.4 12.8 11.3.9.6 1.5 1.6 1.4 2.7-.1 2.6-3.2 3.5-4.8 4-3.1 1-8 2.2-13.4 2.2-4.6 0-8.7-.8-12.4-2.5-10.2-4.6-13.6-23.3-14-25.4-.3-3.2-2.3-11.7-6.6-11.7-3.8.1-12.4 5.3-22.3 13.3l1.1 2.4c3.4 2.6 5 5.8 5.5 7.1 1.5 1.8 6.1 8.7 6.7 24.9 0 3.2-.2 6-.4 8.2 5-1.9 13.2-4.9 17.1-5.5 5.6-.9 11.5-.9 11.8-.9.5 0 11.1.4 19.6 12 8.6 11.7 1.7 30.4 1.4 31.2-.3.7-7 16.4-29 27.6-15.1 7.5-31 8.7-39.1 8.7z"/><path class="st2" d="M222.1 189.6s-7.2-5.9-13.1-11.6c-5.9-5.7-8.5-12.9-10.9-16.2-2.4-3.3-6.8-10-10.3-11.6-3.5-1.5-8.5-2.6-20.1 3.5-9.2 4.9-16.8 12.4-19.4 15.2l-5-11.1s-2.6-2.4 3.7-5.2c6.3-2.8 15.9-6.8 6.1-5.7 0 0-7.2-.2-14.2 2.8-7 3.1-8.9 5.9-6.3 8.9 1.9 2.2 8.8 9.2 12.3 12.7-3-.7-6.8-.8-11.4.4-18.1 4.4-30.1 21.4-30.1 21.4s-5.7 7-11.6 24.9c-5.9 17.9-2.4 31.7-2.4 31.7s.4 10.5 9.8 17 16.2 5.2 16.2 5.2 1.5 3.3 8.1 7c6.5 3.7 16.8 3.8 16.8 3.8s22.7 2.5 44.1-8.4c21.4-10.9 27.7-26.2 27.7-26.2s6.8-17.9-1.1-28.6-17.5-10.9-17.5-10.9-5.9 0-11.4.9-20.7 7-20.7 7 .9-5.2.9-12.2c-.7-17.7-6.3-23.6-6.3-23.6s-1.3-3.9-5.4-6.8l-2.2-4.9c4.1-3.4 18.6-15 25.4-15.2 8-.2 9.5 14 9.5 14s3.3 19.2 12.4 23.4c9.2 4.1 19.6 1.5 23.8.2 4.2-1.1 2.6-1.8 2.6-1.8z"/><path class="st3" d="M127.7 173.8c-18.4 6.7-30 23.2-35.8 41.3-5.1 16-8.1 39.4 6.3 51.7 14.2 12.2 35.7 4.9 46.6-7.9 13-15.3 19.3-40.3 17.6-60.1-.8-9.2-4-19.5-11.3-25.6-8.7-7.3-18-2.6-25.9 3.3-.9.7.3 1.9 1.2 1.3 7.3-5.3 15.4-9.9 23.7-3.1 4.9 4 7.7 10.2 9.3 16.2 2.9 11.1 1.5 22.9-1 33.9-4.9 21.4-17.1 46.8-42.5 46.7-27.6-.1-29.2-31.7-24-51.7 5-19.6 16.8-37.9 36.2-45.7-.1-.2-.2-.4-.4-.3z"/><path class="st3" d="M140.5 182.7c5.6 9.6 3.7 21.9 1.3 32.2-2.3 9.9-6.1 19.3-11.1 28.2-.2.3.3.6.5.3 5.5-9.7 9.5-20.1 11.6-31.1 1.9-9.8 3.4-20.9-2-29.8-.1-.1-.4 0-.3.2z"/><path class="st3" d="M143.1 181.3c2.6 13.9 2.4 27.6-.8 41.3-.1.5.6.7.7.2 3.1-13.8 3.4-27.8.4-41.6-.1-.2-.4-.1-.3.1zM94.9 241.4c-.2 5.3 0 18.9 7.5 19.5.4 0 .4-.5 0-.6-6.9-.7-7.2-14.1-7.2-19 0-.1-.3-.1-.3.1z"/><path class="st3" d="M97.5 242.3c0 6.9 3 13.2 8.4 17.4.2.2.4-.2.2-.3-5.4-4.2-8.4-10.3-8.5-17.1.1-.1-.1-.1-.1 0zM160.6 218.1c14.1-6.8 34.9-14.8 47.5-.6 12.6 14.1 3.6 34.2-8.3 45.2-19.2 17.5-58.9 28.8-81.4 11.8-.9-.6-1.8.7-.9 1.4 13.8 10.7 32.4 9.3 48.4 5.4 16.6-4.1 33.3-12.3 43.1-26.9 7.9-11.8 9.9-29.2-1.5-39.5-13.7-12.3-33.2-4.5-47.1 2.9-.2 0 0 .4.2.3z"/><path class="st3" d="M207.2 222.3c-1.9 4.2-2.8 9.2-4.1 13.6-.1.5.6.8.8.3 1.2-4.5 3.1-9.2 3.6-13.8 0-.2-.2-.2-.3-.1zM208.1 224.6c-.9 7.2-3 13.7-7 19.9-.2.3.2.5.4.3 3.8-6.1 6.2-12.9 6.8-20.1 0-.2-.2-.2-.2-.1zM119.3 271c.1 1.7.3 3.4.4 5.1 0 .3.4.2.4-.1l-.6-5.1c0-.1-.2-.1-.2.1zM123.5 271.9c-.2 1.9-.3 3.9-.4 5.8 0 .3.5.3.5 0 .1-1.9.2-3.9.2-5.8 0-.2-.3-.2-.3 0zM125.4 270.5c.2 3.4.1 6.8-.4 10.2-.1.4.6.4.6 0 .4-3.4.5-6.8 0-10.3 0-.1-.2 0-.2.1zM129.3 271.5c-.2 2.7-.4 5.3-.5 8 0 .4.5.4.6 0 .1-2.7.2-5.3.3-8-.1-.2-.4-.2-.4 0zM132.3 269.5c-.2 3.6-.4 7.2-.6 10.9 0 .3.5.3.5 0 .2-3.6.3-7.2.5-10.9 0-.3-.4-.3-.4 0zM135.4 266.7c-.3 5.1-.6 10.1-.8 15.2 0 .3.4.3.4 0 .2-5.1.5-10.1.7-15.2 0-.2-.3-.2-.3 0zM138.4 265.4c-.3 5.6-.7 11.1-.9 16.7 0 .3.5.3.5 0 .3-5.6.5-11.1.7-16.7 0-.2-.3-.2-.3 0zM141.4 263.4c-.4 6.5-.7 13-1.1 19.6 0 .3.5.3.5 0 .3-6.5.6-13 .9-19.6 0-.2-.3-.2-.3 0zM144.7 270.8c-.2 3.6-.4 7.2-.6 10.9 0 .2.3.2.3 0 .2-3.6.3-7.2.5-10.9 0-.1-.2-.1-.2 0zM148.2 271.7c-.2 3.1-.3 6.3-.5 9.4 0 .3.4.3.4 0 .2-3.1.3-6.3.5-9.4 0-.2-.4-.3-.4 0zM151.2 269.7c-.2 3.9-.5 7.7-.7 11.6 0 .4.6.4.6 0 .2-3.9.3-7.7.5-11.6 0-.3-.4-.3-.4 0zM154.2 266.9c-.2 3.6-.4 7.2-.6 10.9 0 .4.6.4.6 0 .2-3.6.3-7.2.5-10.9-.1-.2-.5-.2-.5 0zM157.8 267.1c-.3 3.4-.2 6.8.2 10.3 0 .4.7.3.6-.1-.5-3.4-.6-6.7-.3-10.1 0-.4-.5-.4-.5-.1zM162.2 267.3c-.1 1.2-.2 2.5-.2 3.7-.1.9-.5 2.4-.2 3.2.2.7 1 .9 1.2.1 0-.1 0-.2-.1-.3l-.1-.1c-.3-.3-.7.1-.4.4-.5-.5 0-3 0-3.5.1-1.2.1-2.3.2-3.5 0-.2-.4-.2-.4 0zM166.6 266.1c-.1 2.2-.2 4.4-.4 6.5 0 .4.6.4.6 0 0-2.2.1-4.4.2-6.5 0-.2-.4-.3-.4 0zM170.3 266.3c-.5 1.6-.4 3.1.2 4.6.1.4.8.1.6-.3-.8-1.3-.8-2.8-.4-4.2.1-.3-.3-.4-.4-.1zM174.9 263.6c-.8 1.1-.3 3.1 1.1 3.5.5.1.7-.6.2-.7-1.1-.3-1.7-1.5-1.1-2.5.3-.3 0-.5-.2-.3zM179.3 263.1c-.8 1 2 1 1-.2-.3-.4-.9.2-.6.5.1-.3.1-.4 0-.3-.1 0-.1.1 0 .2.2-.2-.2-.4-.4-.2zM188.5 260.1c.3-.5.5-.9.8-1.4.2-.4-.3-.7-.5-.4-.3.5-.5.9-.8 1.4-.3.4.3.8.5.4zM95.6 214.5c5.8-16.3 16.7-29.9 31.5-38.9.6-.4.1-1.3-.5-.9-15 9.2-25.8 23-31 39.8-.1 0 0 0 0 0zM143.5 169.7l-7.5-8.4c-3.3-3.6-5.7-5.3-.2-8.6 6.3-3.8 13.5-5.5 20.8-5.2.7 0 .8-1.1.1-1.1-7.9-.3-19.1 1.7-24.8 7.8-1 1.1-1.3 1.5-.8 3 .7 2 4.2 4.6 5.6 6.1 2.1 2.3 4.3 4.6 6.5 6.8.1.3.5-.1.3-.4z"/><path class="st3" d="M157.1 148c-5.4 1.8-10.4 4.4-15.1 7.7-.5.3.1 1 .6.6 4.5-3.3 9.5-5.9 14.6-8 .2 0 .1-.3-.1-.3z"/><path class="st3" d="M141.7 156.1c2.2 4.7 4.3 9.5 6.5 14.3.2.5 1 .1.8-.4-2.3-4.7-4.8-9.3-7-14-.2-.1-.4 0-.3.1zM134.7 153.5c-.3 3.2 0 6.2 1 9.3.1.4.7.2.6-.1-1-3-1.3-6-1.1-9.1-.1-.4-.5-.4-.5-.1zM137.9 150.6c-.4 4.7-.1 9.3.7 13.8.1.4.7.3.6-.1-.9-4.5-1.2-9.1-.9-13.7 0-.3-.4-.3-.4 0zM140.2 149.9c-.5 4.9-.2 9.8.7 14.6.1.4.8.3.7-.1-1-4.8-1.3-9.6-.9-14.4 0-.3-.5-.4-.5-.1z"/><path class="st3" d="M142.3 153.1c-.6 4.9-.3 9.8.7 14.6.1.5.9.3.8-.2-1.1-4.8-1.4-9.6-.9-14.4-.1-.3-.6-.3-.6 0zM144 163.2l1.2 6.9c.1.4.7.3.6-.1-.4-2.3-.9-4.6-1.3-6.9-.1-.4-.6-.3-.5.1zM149.6 168.2c8-8.3 17.5-14.5 28.3-18.4.5-.2.1-.9-.4-.7-10.8 4.1-20.3 10.4-28.2 18.9-.1.1.2.4.3.2zM178.8 149.4c14.2-2.3 18.3 14.2 24.9 23.2 5.4 7.4 12.6 13.1 19.8 18.7.6.5 1.3-.5.7-1-5.4-4.2-10.8-8.5-15.5-13.5-4.8-5.2-7.8-11.3-11.5-17.3-4.1-6.7-10.1-12.1-18.4-10.4-.3.1-.2.4 0 .3z"/><path class="st3" d="M224.3 190.2c-7.1 1.4-14.6 2.8-21.8 2.2-10.8-.9-14.9-9.9-17.6-19.1-2.2-7.6-2.1-16.6-10.4-20.1-.7-.3-1.1.9-.4 1.2 8.4 3.5 8.2 15.4 10.8 22.9 1.6 4.3 3.5 9.2 7 12.4 8.1 7.4 23.2 3.4 32.5 1 .3-.2.2-.6-.1-.5z"/><path class="st3" d="M150.3 169.6c5.8-7.9 13.9-13.4 23.5-15.6.5-.1.3-.9-.2-.8-9.8 2.3-18 7.9-23.6 16.2-.1.2.2.4.3.2zM176.1 150.2c-.4 1.9-.3 3.7.4 5.5.1.3.6.1.4-.2-.7-1.7-.8-3.5-.5-5.2.1-.3-.3-.3-.3-.1zM180 148.9c-.6 2.6-.5 5.2 0 7.8.1.3.5.2.5-.1-.6-2.5-.6-5.1-.1-7.6 0-.2-.3-.3-.4-.1zM183.3 150.6c.6 4.1.9 8.2.9 12.3 0 .4.6.4.5 0-.1-4.2-.4-8.3-1.1-12.4 0-.2-.4-.2-.3.1zM186.9 153c-1 6.1-1.2 12.2-.6 18.4 0 .4.7.3.7-.1-.7-6.1-.6-12.1.4-18.2.1-.4-.4-.4-.5-.1zM189.5 154.7c-.9 8.5-1 16.8-.1 25.3.1.5.8.3.8-.2-1-8.4-1.1-16.7-.2-25.1.1-.3-.4-.3-.5 0zM192.2 156.4c-.2 9.9-.4 19.8-.5 29.7 0 .5.7.5.7 0 .2-9.9.3-19.8.4-29.7-.1-.3-.6-.4-.6 0zM195.3 160.4c-.3 9.3-.3 18.6 0 27.9 0 .5.8.6.8 0 0-.7 0-1.3.1-2 0-.5-.7-.5-.7 0 1.1-.1 1.3-.8.5-2.3 0-.7 0-1.4-.1-2.1-.1-2.5-.1-5-.1-7.5 0-4.7 0-9.3.1-14-.1-.3-.6-.4-.6 0zM199 164.4c-.2 9.4 0 18.8.4 28.3 0 .4.6.4.6 0-.7-9.4-.9-18.9-.7-28.3 0-.2-.3-.2-.3 0zM201.8 166.8c-.3 8.1-.2 16.3.2 24.4 0 .6.9.6.9 0-.5-8.1-.7-16.3-.5-24.4 0-.4-.6-.4-.6 0zM206.1 176.9c.2 5.1.3 10.2.5 15.3 0 .6.9.6.9 0l-.9-15.3c-.1-.2-.5-.3-.5 0zM208.9 179.3c.1 4.6.3 9.2.4 13.8 0 .5.9.6.8 0-.2-4.6-.5-9.2-.7-13.8.1-.3-.5-.3-.5 0zM212.5 182.6c.1 2.4.4 4.7.6 7.1.1.6.9.4.9-.2-.3-2.3-.5-4.7-.9-6.9-.1-.4-.7-.4-.6 0zM214.5 185.8c.2 2 .3 4.1.5 6.1 0 .6.9.5.8-.1-.3-2-.5-4-.8-6.1 0-.2-.5-.2-.5.1zM219.7 189.2c.2.5.5 1 .7 1.6.2.4.8.1.6-.3-.2-.5-.5-1-.7-1.6-.2-.4-.7-.1-.6.3z"/><path class="st2" d="M118 127.5h-4.1l-6.6-11.5h-.1c.1 2 .2 3.5.2 4.4v7.2h-2.9v-15.3h4.1l6.6 11.4h.1c-.1-2-.2-3.4-.2-4.2v-7.2h2.9v15.2zM131.1 127.5l-1.1-3.6h-5.6l-1.1 3.6h-3.5l5.4-15.3h4l5.4 15.3h-3.5zm-1.8-6.3c-1-3.3-1.6-5.1-1.7-5.6-.1-.4-.2-.8-.3-1-.2.9-.9 3.1-2 6.6h4zM142.4 127.5h-3.2v-12.6h-4.1v-2.7h11.5v2.7h-4.1v12.6zM161.3 112.3v9.9c0 1.1-.3 2.1-.8 3-.5.8-1.2 1.5-2.2 2-1 .5-2.1.7-3.4.7-2 0-3.5-.5-4.6-1.5-1.1-1-1.6-2.4-1.6-4.1v-9.8h3.2v9.3c0 1.2.2 2 .7 2.6.5.5 1.3.8 2.3.8 1.1 0 1.8-.3 2.3-.8.5-.6.7-1.4.7-2.6v-9.3h3.4zM168.3 121.7v5.9h-3.2v-15.3h4.4c2.1 0 3.6.4 4.6 1.1 1 .8 1.5 1.9 1.5 3.4 0 .9-.2 1.7-.7 2.4-.5.7-1.2 1.2-2.1 1.6 2.3 3.4 3.8 5.6 4.5 6.6h-3.6l-3.6-5.9h-1.8zm0-2.7h1c1 0 1.8-.2 2.3-.5.5-.3.7-.9.7-1.6 0-.7-.2-1.2-.7-1.5s-1.3-.5-2.3-.5h-1v4.1z"/><path class="st2" d="m188.5 127.5-1.1-3.6h-5.6l-1.1 3.6h-3.5l5.4-15.3h4l5.4 15.3h-3.5zm-1.9-6.3c-1-3.3-1.6-5.1-1.7-5.6-.1-.4-.2-.8-.3-1-.2.9-.9 3.1-2 6.6h4zM193.9 127.5v-15.3h3.2v12.6h6.2v2.7h-9.4zM111.7 102h-6V85.4l.1-2.7.1-3c-1 1-1.7 1.7-2.1 2l-3.3 2.6-2.9-3.6 9.2-7.3h5V102zM139.4 87.7c0 5-.8 8.7-2.5 11.1-1.6 2.4-4.2 3.6-7.6 3.6-3.3 0-5.8-1.2-7.5-3.7-1.7-2.5-2.5-6.1-2.5-11 0-5 .8-8.8 2.4-11.2 1.6-2.4 4.1-3.6 7.5-3.6 3.3 0 5.8 1.3 7.5 3.8 1.9 2.5 2.7 6.1 2.7 11zm-13.9 0c0 3.5.3 6 .9 7.5.6 1.5 1.6 2.3 3.1 2.3 1.4 0 2.4-.8 3.1-2.3.6-1.5.9-4 .9-7.5s-.3-6-.9-7.6c-.6-1.5-1.6-2.3-3-2.3s-2.4.8-3 2.3c-.8 1.5-1.1 4.1-1.1 7.6zM162.3 87.7c0 5-.8 8.7-2.5 11.1-1.6 2.4-4.2 3.6-7.6 3.6-3.3 0-5.8-1.2-7.5-3.7-1.7-2.5-2.5-6.1-2.5-11 0-5 .8-8.8 2.4-11.2 1.6-2.4 4.1-3.6 7.5-3.6 3.3 0 5.8 1.3 7.5 3.8 1.9 2.5 2.7 6.1 2.7 11zm-14 0c0 3.5.3 6 .9 7.5.6 1.5 1.6 2.3 3.1 2.3 1.4 0 2.4-.8 3.1-2.3.6-1.5.9-4 .9-7.5s-.3-6-.9-7.6c-.6-1.5-1.6-2.3-3-2.3s-2.4.8-3 2.3c-.8 1.5-1.1 4.1-1.1 7.6zM178.5 81.9c0 3-.6 5.2-1.7 6.8-1.2 1.5-2.9 2.3-5.1 2.3-2.2 0-3.8-.8-5-2.3-1.2-1.5-1.8-3.8-1.8-6.7 0-6 2.2-8.9 6.7-8.9 2.2 0 3.9.8 5.1 2.3 1.3 1.4 1.8 3.6 1.8 6.5zm-8.6 0c0 1.7.1 2.9.4 3.7.3.8.8 1.2 1.4 1.2 1.3 0 1.9-1.6 1.9-4.9 0-3.3-.6-4.9-1.9-4.9-.7 0-1.1.4-1.4 1.2-.3.9-.4 2.1-.4 3.7zm22.1-8.5L176.1 102h-4.7l15.9-28.6h4.7zm6.6 19.9c0 3-.6 5.2-1.7 6.7-1.2 1.5-2.9 2.3-5.1 2.3-2.1 0-3.8-.8-5-2.3-1.2-1.5-1.8-3.8-1.8-6.7 0-6 2.2-8.9 6.7-8.9 2.2 0 3.9.8 5.1 2.3 1.2 1.5 1.8 3.8 1.8 6.6zm-8.7.1c0 1.7.1 2.9.4 3.7.3.8.8 1.2 1.4 1.2 1.3 0 1.9-1.6 1.9-4.9 0-3.3-.6-4.9-1.9-4.9-.7 0-1.1.4-1.4 1.2-.2.8-.4 2-.4 3.7zM80.9 112.1l2 6.1h6.3l-5.1 3.7 2 6-5.2-3.7-5.1 3.7 1.9-6-5.1-3.7h6.3zM226.4 112.1l1.9 6.1h6.4l-5.1 3.7 1.9 6-5.1-3.7-5.2 3.7 2-6-5.2-3.7h6.4z"/><path class="st4" d="m75 251.1 3.2-4.1 1.2.9-7.6 9.8-2.7-2.1c-1.2-1-1.9-1.9-2.2-2.8-.2-.9 0-1.8.7-2.8 1-1.3 2.4-1.7 4-1.1l.7-6.5 1.4 1.1-.8 6 2.1 1.6zm-.7.9-1.6-1.2c-.8-.6-1.5-.9-2.2-.9-.6 0-1.2.4-1.7 1-.5.7-.7 1.3-.5 1.9.2.6.7 1.2 1.5 1.9l1.5 1.2 3-3.9zM65.7 236.2l5.2 4.8-8.4 9.1-5.2-4.8.9-.9 4.1 3.8 2.7-2.9-3.8-3.6.9-.9 3.8 3.6L69 241l-4.1-3.8.8-1zM60 230l-5.5 10.5v.1c.6-.6 1.4-1.3 2.3-2.1l6-5.2.9 1-9.4 8.2-1.4-1.7L58 231v-.1l-10.4 3.7-1.4-1.7 9.4-8.2 1 1.1-6 5.3c-.7.6-1.5 1.2-2.3 1.9v.1l11.1-3.9.6.8zM50.8 218.1 40.5 225l-.8-1.2 10.3-6.9.8 1.2zM36.4 211.4c1.1-.6 2.1-.7 3.2-.3 1 .4 1.9 1.3 2.8 2.7l.7 1.3 4.2-2.5.7 1.3-10.7 6.2-1.6-2.8c-1.6-2.7-1.4-4.7.7-5.9zm5.6 4.3-.7-1.1c-.7-1.1-1.3-1.8-2-2.1-.7-.3-1.4-.2-2.2.2-.7.4-1.1 1-1.2 1.6-.1.7.2 1.5.8 2.5l.8 1.4 4.5-2.5zM36.8 199.6c1-.5 1.9-.5 2.8 0 .9.5 1.6 1.3 2.2 2.6.6 1.4 1 2.5 1 3.4l-1.3.6c0-.6-.1-1.1-.3-1.8-.2-.6-.4-1.2-.6-1.7-.4-.9-.9-1.5-1.4-1.8-.5-.3-1.1-.3-1.7 0-.4.2-.7.4-.8.7-.2.3-.3.7-.3 1.1 0 .5 0 1.2.1 2 .1 1.2 0 2.2-.2 2.9-.3.7-.9 1.2-1.7 1.6-.9.4-1.7.4-2.5 0s-1.5-1.2-2-2.3c-.5-1.1-.8-2.3-.9-3.4l1.3-.1c.1 1.1.3 2.1.7 3 .3.7.7 1.2 1.2 1.4.5.3 1 .3 1.5 0 .4-.2.7-.4.9-.7.2-.3.3-.6.3-1.1 0-.4 0-1.1-.1-1.9-.2-1.4-.1-2.4.2-3.1.3-.5.8-1 1.6-1.4zM23.8 191.1l7.6-2.8c1.3-.5 2.5-.5 3.6.1 1.1.5 1.9 1.5 2.4 3 .5 1.4.5 2.7.1 3.7-.5 1.1-1.4 1.8-2.7 2.3l-7.5 2.7-.5-1.4 7.6-2.8c1-.4 1.6-.9 1.9-1.6.3-.7.3-1.6-.1-2.7-.4-1-.9-1.7-1.6-2-.7-.4-1.6-.3-2.6 0l-7.6 2.8-.6-1.3zM33.1 178.2l-9.7 6.7v.1c.8-.3 1.8-.6 3-.8l7.7-1.8.3 1.3-12.1 2.8-.5-2.2 9-6.2v-.1l-10.9-1.6-.5-2.1 12.1-2.8.3 1.4-7.8 1.8c-.9.2-1.9.4-2.9.6v.1l11.7 1.7.3 1.1zM23.2 153.8c2-.2 3.7.3 4.8 1.3 1.2 1 1.8 2.6 2 4.8l.3 3.5-12.4.9-.3-3.9c-.2-2 .3-3.5 1.2-4.7 1.1-1.1 2.5-1.7 4.4-1.9zm.2 1.6c-1.6.1-2.8.6-3.6 1.5-.8.9-1.1 2.1-.9 3.8l.2 2.1 9.9-.8-.1-1.8c-.1-1.7-.7-3-1.6-3.8-1-.8-2.2-1.2-3.9-1zM23.6 139.3c2 .1 3.5.6 4.7 1.7 1.1 1.1 1.6 2.5 1.6 4.3-.1 1.9-.7 3.3-1.8 4.2-1.1 1-2.7 1.4-4.8 1.3-2-.1-3.6-.6-4.7-1.7s-1.6-2.5-1.5-4.4c.1-1.8.7-3.2 1.8-4.2 1.1-.8 2.7-1.3 4.7-1.2zm-.3 10c1.7.1 3-.3 3.9-1 .9-.7 1.4-1.7 1.4-3.1 0-1.4-.4-2.5-1.2-3.2-.8-.7-2.1-1.1-3.8-1.2-1.7-.1-3 .2-3.8.9-.9.7-1.3 1.7-1.4 3.1 0 1.4.4 2.5 1.2 3.2.8.9 2 1.3 3.7 1.3zM30.2 136.7l-12.3-1.6.2-1.5 11 1.4.7-5.5 1.3.2-.9 7zM27.6 115.5c1.9.4 3.4 1.3 4.3 2.5.9 1.3 1.1 2.8.8 4.5-.4 1.8-1.3 3.1-2.6 3.8-1.3.7-3 .9-5 .4-2-.4-3.4-1.3-4.3-2.5-.9-1.2-1.1-2.8-.7-4.6.4-1.8 1.2-3 2.6-3.8 1.3-.6 2.9-.7 4.9-.3zm-2.2 9.8c1.6.4 3 .3 4-.2s1.7-1.5 2-2.8c.3-1.4.1-2.5-.6-3.4-.7-.9-1.9-1.5-3.5-1.9-1.6-.4-2.9-.3-3.9.2s-1.6 1.4-1.9 2.8c-.3 1.4-.1 2.5.6 3.4.6.9 1.7 1.6 3.3 1.9zM30 111.3l4.9 1.6-.4 1.4-11.9-3.8 1-3.3c.5-1.5 1.1-2.5 1.9-3 .8-.5 1.7-.6 2.8-.3 1.6.5 2.4 1.7 2.4 3.4l6.4-1.6-.5 1.7-5.8 1.3-.8 2.6zm-1.1-.4.6-1.9c.3-1 .3-1.8.1-2.4-.2-.6-.8-1-1.5-1.2-.8-.3-1.4-.2-1.9.2s-.9 1.1-1.2 2.1l-.6 1.8 4.5 1.4zM39.8 91.8c1 .5 1.6 1.2 1.8 2.2.2 1 0 2.1-.5 3.4-.6 1.4-1.3 2.3-2 2.9l-1.3-.6c.4-.4.8-.8 1.2-1.3.4-.5.7-1 .9-1.6.4-.9.6-1.6.4-2.2-.1-.6-.5-1-1.1-1.3-.4-.2-.8-.3-1.1-.2-.3 0-.7.2-1.1.5-.4.3-.9.7-1.5 1.4-.9.9-1.7 1.4-2.4 1.6-.7.2-1.5.1-2.3-.3-.9-.4-1.4-1.1-1.6-2-.2-.9-.1-1.9.4-3s1.2-2.1 2.1-2.8l1 1c-.8.8-1.5 1.6-1.9 2.5-.3.7-.4 1.3-.3 1.9.1.5.4.9 1 1.2.4.2.7.3 1.1.2.3 0 .7-.2 1-.4.4-.2.8-.7 1.4-1.3 1-1 1.8-1.6 2.5-1.8.8-.5 1.5-.4 2.3 0zM44 90.9l-11-6 .7-1.3 11 6-.7 1.3zM48.4 83.3l-.8 1.2-9.5-6-2 3.5-1.1-.7 5-8 1 .7-2.1 3.4 9.5 5.9zM59.3 68.5l-4.1-1.3-3.2 3.9 2.1 3.7-.9 1.2-6.6-11.8.8-1 12.8 4.1-.9 1.2zm-5.4-1.8L50 65.4c-.5-.2-1.1-.4-1.8-.7.3.4.7 1 1.1 1.6l2.1 3.6 2.5-3.2zM65.3 62l-10.8-4.9c.7.6 1.4 1.3 2.3 2.2l5.6 5.7-1 1-8.8-9 1.6-1.5 10 4.5-4.4-10.2 1.6-1.5 8.8 8.9-1 1-5.6-5.8c-.6-.7-1.3-1.4-2-2.2l4.7 10.9-1 .9zM78.3 50.7 72.9 55l-7.8-9.8 5.5-4.4.8 1-4.4 3.5 2.5 3.2 4.1-3.3.8 1-4.1 3.3 2.9 3.6 4.3-3.5.8 1.1zM83.8 46.9l-1.2.8-6.3-9.3-3.3 2.2-.7-1.1 7.8-5.3.7 1.1-3.3 2.2 6.3 9.4zM88.8 41.3l.2.1c.2.6.3 1.2.5 2 .1.8.3 1.6.3 2.3l-.9.5c-.2-.6-.4-1.3-.7-2.2-.3-.8-.5-1.5-.7-2l1.3-.7zM96.6 26.8c-1.3.6-2 1.5-2.4 2.6-.3 1.2-.2 2.5.5 3.9.7 1.5 1.6 2.5 2.6 3 1.1.5 2.3.4 3.6-.2.8-.4 1.6-.9 2.5-1.7l.5 1.2c-.7.7-1.6 1.3-2.7 1.8-1.7.8-3.2.9-4.6.3-1.4-.6-2.5-1.8-3.4-3.7-.5-1.2-.8-2.3-.8-3.4s.3-2.1 1-2.9c.6-.9 1.5-1.6 2.6-2.1 1.2-.6 2.3-.8 3.4-.8v1.4c-1 0-2 .2-2.8.6zM114.9 25.3c.7 1.9.7 3.5.1 5-.6 1.4-1.7 2.4-3.5 3-1.7.6-3.3.5-4.6-.2-1.3-.7-2.3-2.1-3-4-.7-1.9-.7-3.6-.1-5s1.8-2.4 3.5-3c1.7-.6 3.2-.5 4.6.2 1.3.8 2.3 2.1 3 4zm-9.5 3.3c.6 1.6 1.3 2.7 2.3 3.3 1 .6 2.1.7 3.4.2 1.3-.5 2.2-1.2 2.6-2.3.4-1.1.3-2.4-.3-4s-1.3-2.7-2.3-3.3c-1-.6-2.1-.7-3.4-.2-1.3.5-2.2 1.2-2.6 2.3-.3 1.1-.2 2.4.3 4zM129.3 28.4l-1.6.4-9-8.8h-.1c.4 1.2.7 2.3.9 3.3l1.6 6.9-1.3.3-2.8-12.2 1.6-.4 9 8.7h.1c0-.1-.2-.6-.4-1.4-.2-.8-.4-1.4-.4-1.7l-1.6-7 1.3-.3 2.7 12.2zM139.3 23.7c.1 1.1-.2 2-.9 2.7-.7.7-1.8 1.1-3.1 1.3-1.5.2-2.6.1-3.5-.2l-.2-1.4c.5.2 1.1.3 1.7.3h1.8c1-.1 1.7-.4 2.1-.8.4-.4.6-1 .5-1.6-.1-.4-.2-.8-.4-1-.2-.3-.5-.5-1-.7-.4-.2-1.1-.4-2-.6-1.2-.3-2.1-.7-2.7-1.2-.6-.5-.9-1.2-1-2.1-.1-1 .1-1.8.8-2.4.7-.7 1.6-1.1 2.8-1.2 1.2-.2 2.4-.1 3.5.3l-.3 1.3c-1.1-.3-2.1-.4-3.1-.3-.8.1-1.3.3-1.7.7-.4.4-.6.9-.5 1.4.1.4.2.8.4 1 .2.3.5.5.9.7.4.2 1 .4 1.8.5 1.4.3 2.3.7 2.9 1.2.8.6 1.1 1.3 1.2 2.1zM149.3 26.6l-7 .3-.6-12.5 7-.3.1 1.3-5.5.2.2 4 5.2-.2.1 1.3-5.2.2.2 4.6 5.5-.2v1.3zM158 15.5c-1.4-.1-2.5.3-3.3 1.2-.8.9-1.3 2.1-1.4 3.7-.1 1.6.3 2.9 1 3.8.7.9 1.8 1.4 3.2 1.5.9 0 1.9-.1 3-.3l-.1 1.3c-.9.3-2 .4-3.2.3-1.9-.1-3.3-.7-4.2-1.9-1-1.2-1.4-2.8-1.3-4.8.1-1.3.3-2.4.9-3.3.5-.9 1.3-1.7 2.2-2.1.9-.5 2-.7 3.3-.6 1.3.1 2.5.4 3.4.9l-.7 1.2c-.9-.6-1.9-.8-2.8-.9zM167.1 27.9l-1.4-.2 1.5-11.1-4-.5.2-1.3 9.4 1.3-.2 1.3-3.9-.6-1.6 11.1zM179.7 30.4l-6.9-1.5 2.6-12.2 6.9 1.5-.3 1.3-5.4-1.2-.9 3.9 5.1 1.1-.3 1.3-5.1-1.1-1 4.5 5.4 1.2-.1 1.2zM186.1 32.3l-1.4-.4 3.2-10.7-3.8-1.2.4-1.2 9 2.8-.4 1.2-3.8-1.2-3.2 10.7zM205.2 26.2l-3.1 7.5c-.5 1.3-1.4 2.2-2.5 2.6-1.1.4-2.4.3-3.8-.3s-2.3-1.4-2.8-2.5-.4-2.3.1-3.6l3-7.4 1.4.6-3.1 7.5c-.4 1-.4 1.8-.1 2.6.3.7 1 1.3 2 1.8 1 .4 1.8.5 2.6.2.7-.3 1.3-.9 1.7-1.9l3.1-7.5 1.5.4zM207.3 35.4l-2.4 4.6-1.3-.7 5.8-11 3.1 1.6c1.4.7 2.2 1.5 2.6 2.4.4.9.3 1.8-.3 2.9-.8 1.5-2 2-3.8 1.7l.4 6.6-1.5-.8-.3-6-2.3-1.3zm.5-1.1 1.8 1c.9.5 1.7.7 2.3.5.6-.1 1.1-.6 1.5-1.3.4-.7.4-1.4.2-1.9-.3-.6-.9-1.1-1.8-1.6l-1.7-.9-2.3 4.2zM223.4 51.8l1-4.1-4.1-3-3.6 2.3-1.2-.9 11.3-7.2 1 .7-3.2 13.1-1.2-.9zm1.4-5.5 1-4c.1-.5.3-1.1.6-1.8-.4.4-.9.7-1.5 1.1l-3.4 2.3 3.3 2.4zM237.7 55.7c-1.4 1.5-2.8 2.3-4.4 2.4-1.6.1-3.1-.6-4.7-2l-2.6-2.3 8.2-9.3L237 47c1.5 1.3 2.3 2.7 2.4 4.3.1 1.5-.5 3-1.7 4.4zm-1.2-1c1.1-1.2 1.6-2.4 1.5-3.6-.1-1.2-.7-2.3-1.9-3.4l-1.6-1.4-6.6 7.5 1.3 1.2c1.3 1.2 2.6 1.7 3.8 1.7 1.2-.1 2.4-.7 3.5-2zM235.5 62.6l8.9-8.7 1 1.1-8.9 8.7-1-1.1zM250.8 66.5c-1 .8-2 1.1-3.1.9-1.1-.2-2.1-1-3.2-2.2l-1-1.1-3.7 3.2-1-1.1 9.4-8.1 2.1 2.5c2.2 2.4 2.3 4.4.5 5.9zm-6.3-3.2.9 1c.8 1 1.6 1.6 2.3 1.8.7.2 1.4 0 2.1-.6.6-.5.9-1.1.9-1.8s-.5-1.5-1.2-2.3l-1.1-1.3-3.9 3.2zM245.6 74.4l9.9-7.5.9 1.2-9.9 7.5-.9-1.2zM255.3 82.6c-.9.6-1.8.7-2.8.4-1-.3-1.8-1.1-2.6-2.2-.8-1.3-1.3-2.3-1.4-3.2l1.2-.8c.1.6.3 1.1.5 1.7.2.6.5 1.1.8 1.6.5.8 1.1 1.3 1.7 1.6.6.2 1.1.1 1.7-.2.4-.2.6-.5.7-.8.1-.3.2-.7.2-1.2s-.2-1.1-.4-2c-.3-1.2-.4-2.2-.2-2.9.2-.7.7-1.4 1.4-1.9.8-.5 1.6-.6 2.5-.3.9.3 1.6 1 2.3 2 .7 1.1 1.1 2.1 1.3 3.3l-1.3.3c-.2-1.1-.6-2.1-1.1-2.9-.4-.7-.9-1.1-1.4-1.3-.5-.2-1-.1-1.5.2-.4.2-.6.5-.8.8-.1.3-.2.7-.2 1.1 0 .4.1 1.1.3 1.9.3 1.4.4 2.4.3 3.1-.1.6-.5 1.2-1.2 1.7zM266.3 86c-.7-1.2-1.6-2-2.8-2.2-1.2-.3-2.5 0-3.9.7-1.4.8-2.3 1.7-2.8 2.8-.4 1.1-.3 2.3.4 3.6.4.8 1 1.6 1.9 2.4l-1.1.6c-.7-.6-1.4-1.5-2-2.6-.9-1.6-1.1-3.2-.6-4.6.5-1.4 1.6-2.6 3.4-3.6 1.1-.6 2.2-.9 3.3-1 1.1 0 2.1.2 3 .8.9.6 1.6 1.4 2.2 2.5.6 1.2 1 2.3 1 3.4h-1.4c.1-1.1-.1-2-.6-2.8zM259 96.6l11.3-5.2.6 1.3-11.3 5.2-.6-1.3zM264.5 110.3l-.6-1.6 7.4-10.1v-.1c-1.1.5-2.2.9-3.1 1.3l-6.6 2.5-.5-1.3 11.6-4.3.6 1.6-7.3 10.1v.1c.1-.1.6-.3 1.4-.6.8-.3 1.3-.5 1.7-.7l6.7-2.5.5 1.3-11.8 4.3zM273.2 117.4l1.1 4.2-5.9 1.5c-.4-.6-.7-1.2-1-1.9-.3-.6-.5-1.4-.8-2.3-.5-1.9-.3-3.4.5-4.7.8-1.3 2.2-2.2 4.2-2.7 1.3-.3 2.4-.3 3.5-.1 1.1.3 2 .8 2.7 1.7.7.8 1.3 1.9 1.6 3.2.3 1.3.4 2.6.2 3.8l-1.4-.2c.2-1.2.1-2.3-.1-3.4-.4-1.5-1.1-2.5-2.2-3.2-1.1-.6-2.4-.7-4-.3-1.6.4-2.8 1.1-3.4 2.1-.6 1-.7 2.3-.3 3.9.2.9.5 1.7.9 2.4l3.7-.9-.7-2.7 1.4-.4zM270.1 137.8l-.9-7 12.4-1.4.9 7-1.3.1-.7-5.5-4 .5.6 5.2-1.3.1-.6-5.2-4.5.5.7 5.5-1.3.2zM270.3 140.5l12.4-.5.1 1.5-11.1.4.2 5.6h-1.3l-.3-7zM270.6 149.8l12.4.2v1.5l-12.4-.3v-1.4zM270.2 158.5l.1-1.5 11.1.9.3-4 1.3.1-.7 9.5-1.3-.1.3-4-11.1-.9zM271.4 166l-.2.1c-.5-.2-1.2-.5-1.9-.9s-1.4-.8-2-1.2l.1-1.1c.6.2 1.3.5 2.1.8.8.3 1.5.5 2 .7l-.1 1.6zM269.8 181c-1.1-.3-1.8-.8-2.2-1.8-.4-.9-.5-2.1-.2-3.4.3-1.5.8-2.5 1.3-3.2l1.4.3-.9 1.5c-.3.6-.5 1.1-.6 1.7-.2 1-.2 1.7 0 2.3.2.6.7.9 1.3 1.1.4.1.8.1 1.1 0 .3-.1.6-.3.9-.7.3-.3.7-.9 1.2-1.6.7-1 1.3-1.8 2-2.1.7-.4 1.4-.4 2.3-.2.9.2 1.6.8 2 1.6.4.8.4 1.9.2 3-.3 1.2-.8 2.3-1.4 3.2l-1.1-.7c.7-.9 1.1-1.9 1.3-2.8.2-.8.2-1.4-.1-1.9-.2-.5-.6-.8-1.2-1-.4-.1-.8-.1-1.1 0-.3.1-.6.3-.9.6-.3.3-.7.8-1.1 1.5-.7 1.2-1.4 2-2.1 2.3-.6.4-1.3.5-2.1.3zM263.7 189.4l2.1-6.7 11.9 3.8-2.1 6.7-1.2-.4 1.7-5.3-3.8-1.2-1.6 5-1.2-.4 1.6-5-4.4-1.4-1.7 5.3-1.3-.4zM264.8 203.9c-1.9-.8-3.1-1.9-3.7-3.4-.6-1.5-.4-3.2.4-5.1l1.3-3.2 11.5 4.9-1.5 3.6c-.8 1.8-1.8 3-3.2 3.6-1.4.4-3 .3-4.8-.4zm.5-1.5c1.5.6 2.8.7 3.9.3 1.1-.4 1.9-1.4 2.6-2.9l.8-2-9.2-3.9-.7 1.6c-.7 1.6-.8 3-.3 4.1.4 1.2 1.4 2.1 2.9 2.8zM255.9 219.9c-1.8-1.1-2.8-2.4-3.2-3.9-.4-1.5 0-3.2 1.1-5l1.8-3 10.7 6.5-2 3.3c-1 1.7-2.2 2.7-3.7 3.1-1.5.3-3 0-4.7-1zm.8-1.4c1.4.8 2.7 1.1 3.8.8 1.1-.3 2.1-1.1 2.9-2.5l1.1-1.8-8.5-5.2-.9 1.5c-.9 1.5-1.2 2.8-.9 4 .2 1.3 1 2.3 2.5 3.2zM247.3 231.4c-1.6-1.2-2.5-2.6-2.8-4.1-.3-1.5.1-3 1.2-4.4 1.1-1.5 2.4-2.3 3.9-2.4 1.5-.1 3.1.4 4.7 1.7 1.6 1.2 2.6 2.6 2.8 4.1.3 1.5-.1 3-1.3 4.5-1.1 1.4-2.4 2.2-3.9 2.3-1.5.1-3-.4-4.6-1.7zm6-8c-1.3-1-2.6-1.5-3.7-1.5s-2.1.6-2.9 1.7c-.8 1.1-1.1 2.2-.9 3.3.3 1.1 1.1 2.2 2.4 3.2 1.3 1 2.6 1.5 3.7 1.5s2.1-.6 2.9-1.7c.8-1.1 1.1-2.2.9-3.3-.3-1.1-1.1-2.1-2.4-3.2zM232.4 238.1l4.9-5 8.8 8.8-4.9 5-.9-.9 3.9-3.9-2.9-2.9-3.7 3.7-.9-.9 3.7-3.7-3.3-3.3-3.9 3.9-.8-.8zM230.3 239.9l8.3 9.4-1.1 1-8.3-9.4 1.1-1zM226.7 259l-4.9-6.4c-.9-1.1-1.2-2.3-1-3.5.2-1.2.9-2.2 2.1-3.1 1.2-.9 2.4-1.3 3.5-1.2 1.2.1 2.2.8 3 1.9l4.9 6.4-1.2.9-5-6.5c-.6-.8-1.3-1.3-2.1-1.4-.8-.1-1.6.2-2.5.9-.8.6-1.3 1.4-1.4 2.2-.1.8.2 1.6.8 2.4l5 6.5-1.2.9z"/><path class="st1" d="M173.6 194.5c-1.8-6.3-10.2-8.3-13.5-13.3 4.7 7 3.6 20 2.9 28-1 11.3-4 22.4-7.6 33.1 1.2-3.6 4.5-7.2 6.3-10.7 2.2-4.1 4.1-8.4 5.8-12.8 2.4-6.3 8.1-17.4 6.1-24.3z"/></svg>