<svg version="1.1" id="Layer_1" xmlns="http://www.w3.org/2000/svg" x="0" y="0" viewBox="0 0 750 409.7" style="enable-background:new 0 0 750 409.7" xml:space="preserve"><style>.st0{fill:#31177a}.st1{fill:#fff}.st2{fill:#6b5ae4}.st3{fill:#4f45db}.st4{fill:#072359}.st5{fill:#786ef4}.st6{fill:#efae95}.st7{fill:#fec5a7}.st8{fill:#e08b03}.st9{fill:#efc40f}.st10{fill:#eaf3f4}.st11{fill:#efb59e}.st12{fill:#d69580}.st13{fill:#04061b}.st14{fill:#485999}.st15{fill:#01193f}.st16{fill:#1a223d}.st17{fill:#dedefc}.st18{fill:#d9f0fc}.st19{fill:#873c2d}.st20{fill:#b0614e}.st23{fill:#75281b}.st27{fill:none;stroke:#23544e;stroke-width:.785;stroke-miterlimit:10}.st28{fill:#231f20}</style><path class="st0" d="m311.4 42.1.8-16.2-117.4 30.2 2.6 14.4c.1 0 104.7-17.6 114-28.4"/><path class="st1" d="m201.5 59.4 110.3-25.8s3.2 3.9 7.3 3.3l-3.9 3.2 4.9-2.6s19.5-1.3 26.7-2.7c0 0-9.5 9.2-10.3 9.6-.8.4-86.1 31.2-86.1 31.2s-12.5-2.2-13.3-1.9c-.8.2-39.4-1.1-38.8-1.1.7-.1 3.2-13.2 3.2-13.2"/><path class="st2" d="M250.6 65s7.3 232.5 5.2 237.7c0 0-50.3 7.9-63.4-20.4 0 0-.4-221-1.3-225.4-.9-4.3 18.7 15.7 59.5 8.1"/><path class="st0" d="m250.6 65 108.2-34-2.5 251.1-100.5 20.6z"/><path class="st0" d="m361.6 46-1.8 33.7-60.9 25.1-38.5-20.9z"/><path class="st1" d="M265.9 86.2 362.3 50s3 6.1 14.6 5.4c11.5-.7 33.7-6.6 33.7-6.6l-.8 2.9-4.4 7.1s-87.1 46.3-88.7 47.6c-1.6 1.3-38.1-4.4-38.1-4.4s-19.2-9.4-12.7-15.8"/><path class="st0" d="m320.8 94.7 42.1-12.9-19.6 242.6-15.2 2.1z"/><path class="st2" d="m320.8 94.7 7.3 231.8s-52.3 13.8-68.6-21l-1.7-220.8c.1 0 21 13.4 63 10"/><path class="st3" d="m257.9 84.7 101.6-39.1 2.1.4-99.2 39s16.5 9.1 58 8.2l46.3-14.7-4.3 3.9-41.4 13s-21.3 1-36.5-1.8c-15.3-2.9-24.9-6.6-26.6-8.9"/><path class="st0" d="m435.2 103.5 76.3-46.1 9.2 255.8-69.3 24.9zM335.9 84.8s80.6-39.4 83.4-39.5l2.1 11.1-80.8 34.7-4.7-6.3z"/><path class="st0" d="m344.7 82.4 84-35.8-1.1 246.7-81.1 35c0-.1-6.3-220.2-1.8-245.9"/><path class="st2" d="m335.9 84.8-3.4 241.6 14 1.8-1.8-245.9c0 .1-5.1.2-8.8 2.5M352.4 96.8l9.7 239.1s60.4 16 89.3 2.1l-16.1-234.5c-.1 0-64.4 5.3-82.9-6.7"/><path class="st3" d="m352.4 96.8 94.5-42.7 2.6.5L357.7 97s9.6 4.4 27.6 5.5c18.1 1.1 48.6-.7 48.6-.7l73-44.1 4.6-.2-76.3 46.1s-14.9 3.6-50.9 1c-31.5-2.4-31.9-7.8-31.9-7.8"/><path class="st0" d="m520.2 56.6-1.5 24.7-61.1 33.9-9.3-17.8z"/><path class="st3" d="m419.4 45.3-1.8-.7-81.7 40.2 8.8-2.4 84-35.8-.9-.8-82 35.4-1.3.1z"/><path class="st0" d="m449.4 54.6.1 19.1-61.8 28.9s-16.9-.1-30-5.6l91.7-42.4z"/><path class="st1" d="m447.9 62.8-85.5 35.9s22.8 8.2 71.5 3l66-39.7-18.6 1.3s-2.3 1.2-2.8 1.3c-.5.2 1.1-1.6 1.1-1.6s-14.2-.6-14.9-.9c-.6-.3-2 1.3-2.6 1.6-.6.3.4-1.4.4-1.4s-10 1.2-14.6.5"/><path class="st3" d="M308.5 25 191.1 55.9s5.1 5.1 21.4 9.2c16.3 4.2 38.1-.1 38.1-.1l108.3-34-3.5.1L249.3 64s-22.7 4.9-37.5-.7c-14.9-5.6-17-7.2-17-7.2L312.2 26l-3.7-1z"/><path class="st4" d="M401.2 104c21-14.3 42.7-27.5 63.9-41.7.6-.4-.3-.9-.8-.5-21.1 14.1-42.9 27.3-63.9 41.7-.6.4.3.8.8.5M409.9 103.6c5.1-4.9 11.5-7.7 17.7-10.7 6.4-3.1 12.6-6.6 19-9.8 11.8-5.9 23.7-11.7 34.4-19.5.2-.1-.8 0-1 .1-11.7 8.6-25 14.7-37.9 21.3-6.1 3.1-12 6.4-18.1 9.3-5.4 2.6-10.7 5.3-15.1 9.5-.2.1.8-.1 1-.2M460 62.7c-4.6 4.9-11.2 7.2-17.2 10-7.8 3.6-15.5 7.2-23.3 10.5-13.8 5.9-27.6 11.4-40.5 19-.5.3.7.1.9 0 14.1-8.3 29.3-14.1 44.3-20.6 7.2-3.1 14.3-6.6 21.5-9.8 5.5-2.4 11.2-4.8 15.4-9.2.1-.3-.9-.1-1.1.1M274.7 89.3c14.6-6.6 29.5-12.4 44.1-18.9 14.8-6.6 29.5-13.3 45.2-17.2.7-.2.5-.7-.1-.5-15.5 3.8-30 10.3-44.5 16.8-14.9 6.7-30.2 12.6-45.2 19.3-.7.4 0 .7.5.5M388.3 53.6c-4.5 5.6-12.9 7.3-19.3 9.9-8.9 3.7-18 6.8-27.1 9.9-8.9 3-17.8 6-26.6 9.2-7.6 2.7-15.5 5.2-22.4 9.5-.7.4 0 1 .5.7 7.8-4.8 16.7-7.5 25.3-10.5 9.2-3.3 18.4-6.4 27.7-9.5 8.9-3 17.7-6.5 26.5-9.9 5.7-2.2 12.4-3.9 16.4-8.9.4-.6-.7-.8-1-.4"/><path class="st4" d="M367.3 55.5c-13.1 7.4-26.9 13.8-41.1 18.8-12 4.2-24.3 8.6-33.4 17.9-.5.5.4 1 .8.5 9.7-10 22.9-14 35.6-18.6 13.4-4.8 26.3-10.9 38.6-17.9.7-.4.1-1-.5-.7M208 61.9c8.7-1.3 17-4.7 25.2-7.5 9.3-3.2 18.5-6 28.1-8 18.5-4 37-7.5 55.8-9.8.3 0 1.2-.6.5-.5-18.6 2.3-37 5.6-55.2 9.7-9.1 2-18 4.4-26.8 7.4-9 3.1-18 6.9-27.4 8.3-.5 0-1 .5-.2.4M219.6 65.3c4.2.1 8.5.9 12.7.6 4.1-.3 8-2 11.7-3.7 9.7-4.2 19.8-6.8 30.1-9.1 10.2-2.3 20.4-4.5 30.5-7.5 5-1.5 10-3 14.9-4.7 2.4-.9 4.8-1.6 7.3-2.1 1.6-.4 2.9-.8 4.3-1.9.6-.5-.4-.7-.7-.4-2.1 1.7-4.6 1.6-7 2.3-2.3.6-4.4 1.6-6.7 2.4-4.8 1.6-9.6 3-14.5 4.4-9.4 2.7-18.9 4.7-28.4 6.9-8.9 2-18.1 4-26.5 7.5-4.5 1.9-9.1 4.5-14 5.1-4.4.5-8.9-.4-13.3-.6-.5.1-1.2.8-.4.8"/><path class="st4" d="M214.6 64.1c32.5-14.6 68.5-19.2 103-26.7.5-.1.9-.8.1-.6-34.7 7.5-71 12.2-103.6 26.8-.6.4 0 .7.5.5"/><path class="st1" d="m455 105.8-.6-6.5 62.5-36.5s1.4 5.8 15 2.5l-.6 9.5-76.3 31z"/><path class="st2" d="M444.6 97.5 455.8 338s15.5 6.2 30.8 3.6L470.9 95.3s-17.4 6.3-26.3 2.2"/><path class="st5" d="m538.1 61.4-67.2 33.9 15.7 246.3 57.7-32.2z"/><path class="st3" d="m445.2 97.3 72.9-41.2 2.1.5-71.9 40.8s5.7.7 12.8-1c7.1-1.7 9.2-2.5 9.2-2.5l65-32.6 2.8.1-67.2 33.9s-10.4 3.8-16.5 4c-9.1.2-9.2-2-9.2-2"/><path class="st6" d="M187.6 181.6c-17.1-18.9-14-2.1-15.2 8.4-1.8 16.4 8.5 31.1 15.3 46.1 5.4 12 11.9 24.3 23.2 31.2 2 1.2 4.2 2.2 6.5 1.8 2.8-.6 4.7-3.5 5-6.3.4-2.9-.5-5.7-1.3-8.5-1.5-4.9-30.8-69.7-33.5-72.7"/><path class="st1" d="M204.1 215.6c-7.6-16.6-15.1-32.5-16.5-34-17.1-18.9-14.1-2.1-15.2 8.4-1.4 13 4.7 24.9 10.7 36.8 6.6-4.5 13.7-7.9 21-11.2"/><path class="st4" d="M178.1 118.9c-7.2-1.5-14.9-.8-21.5 2.5s-11.9 9.2-13.9 16.3c-.7 2.5-1.2 5.4-3.4 6.8-2 1.3-4.7.8-7.1 1-3.1.2-6.2 2-7.2 4.8-.3.9-.4 2-.8 2.9-1 2.7-4.5 4.2-7.1 3-.2 5 4.2 8.9 8.4 11.7 15.8 10.2 34.9 15.3 53.7 14.3.4 0 .8 0 1.2-.2.5-.3.8-.8 1.1-1.3 1.8-3.2 3.7-6.6 3.3-10.2-.1-.7-.2-1.4-.1-2.1.2-1.6 1.4-2.8 2.4-4 1.9-2.5 2.8-5.6 3.5-8.7 1.1-4.9 1.8-9.9 2-15 .2-5.2-.1-10.7-2.8-15.2-3.2-5.3-9.8-8.3-16-7.3"/><path class="st7" d="M233.9 311.1c-.6-7.8.1-16.2 3-23.6 1.2-3.1 3-6.1 5.7-8.3.5-.4 1.1-.8 1.7-1.1-1.8-.6-3.7-1.1-5.6-1.5-21.4-8.2-43-15.7-64.8-22.7-17.5-5.6-47.7-14.1-66.6-11-3.1 8.3-6.7 16.5-10 24.6 0 .2.1.4.1.5 1 1.3 1.5 3 2.1 4.5 3.5 9.6 11.6 17.5 21.4 20.7 9.7 3.2 21.5.7 30.1-5 .5-.4 32.4 15.9 39.5 17.7 7 1.8 14.2 3.2 21.4 4 6.2.7 12.7.2 18.9.3 1.1.7 2.2 1.4 3.2 2.2 0-.4 0-.9-.1-1.3"/><path class="st6" d="M126.4 292.1c3-1.4 5-4.5 5.8-7.6 1-4 .2-8.3-1.1-12.2-.7-2.2-1.6-4.3-2.8-6.2-2.6-4.1-6.6-7.1-10.7-9.6-2.9-1.8-5.9-3.3-9.1-4.3-1.6-.5-3.3-.8-5-.8-1.5 0-2.8.7-4.2 1.1-13.7 4-27.1 9.1-40.7 13.5-13.7 4.5-27.5 9.2-40.5 15.6-2.1 1-4.1 2.1-5.7 3.7-2.3 2.4-3.3 5.8-3.4 9-.3 8.9 3.8 17.4 12.2 21.1 5 2.2 10.3 2.2 15.6 2.1 1.5-.2 2.9-.4 4.4-.6 19.8-3.6 38-8.4 53.3-13.6 7.7-2.6 15.3-5.4 22.8-8.3 1.6-.6 3.3-1.4 4.9-2 1.4-.5 2.9-.2 4.3-.9h-.1"/><path class="st8" d="M233.9 311.1c-.6-7.8.1-16.2 3-23.6 1.2-3.1 3-6.1 5.7-8.3.5-.4 1.1-.8 1.7-1.1-1.8-.6-3.7-1.1-5.6-1.5-21.4-8.2-43-15.7-64.8-22.7-17.5-5.6-47.7-14.1-66.6-11-3.1 8.3-6.7 16.5-10 24.6 0 .2.1.4.1.5 1 1.3 1.5 3 2.1 4.5 3.5 9.6 11.6 17.5 21.4 20.7 9.7 3.2 21.5.7 30.1-5 .5-.4 32.4 15.9 39.5 17.7 7 1.8 14.2 3.2 21.4 4 6.2.7 12.7.2 18.9.3 1.1.7 2.2 1.4 3.2 2.2 0-.4 0-.9-.1-1.3"/><path class="st9" d="M126.4 292.1c3-1.4 5-4.5 5.8-7.6 1-4 .2-8.3-1.1-12.2-.7-2.2-1.6-4.3-2.8-6.2-2.6-4.1-6.6-7.1-10.7-9.6-2.9-1.8-5.9-3.3-9.1-4.3-1.6-.5-3.3-.8-5-.8-1.5 0-2.8.7-4.2 1.1-13.7 4-27.1 9.1-40.7 13.5-13.7 4.5-27.5 9.2-40.5 15.6-2.1 1-4.1 2.1-5.7 3.7-2.3 2.4-3.3 5.8-3.4 9-.3 8.9 3.8 17.4 12.2 21.1 5 2.2 10.3 2.2 15.6 2.1 1.5-.2 2.9-.4 4.4-.6 19.8-3.6 38-8.4 53.3-13.6 7.7-2.6 15.3-5.4 22.8-8.3 1.6-.6 3.3-1.4 4.9-2 1.4-.5 2.9-.2 4.3-.9h-.1"/><path class="st6" d="M106 207.1c0 .5 0 1-.1 1.6-.5 8.3-2.8 16.6-6.9 23.9-4.2 7.6-7.4 13.9-7.9 22.7 16.6.2 32.2 13.2 35.4 29.6.7 3.7 1.3 8.2 4.8 9.8 4.1 1.8 8.3-2.1 10.6-5.9 4.9-7.9 7.7-17 8.2-26.3.3-4.9-.8-9.4-.9-14.2-.1-4.1 1.5-8.1 3.3-11.7 1.6-3.2 4-5.9 6.8-8 3.5-2.5 7.6-3.9 10.9-6.7 3.4-2.9 5.6-7.1 6-11.5.3-3.3-.4-6.7.4-9.9.6-2.3 1.8-4.4 2.7-6.6 1.9-4.7 1.9-10.1.1-14.9-4.8-12.8-18.6-12.8-29.4-17.5-17-7.4-39.3 6.7-43.1 23.8-1.7 7.1-.7 14.5-.9 21.8"/><path class="st1" d="M106 207.1c0 .5 0 1-.1 1.6-.5 8.3-2.8 16.6-6.9 23.9-4.2 7.6-7.4 13.9-7.9 22.7 16.6.2 32.2 13.2 35.4 29.6.7 3.7 1.3 8.2 4.8 9.8 4.1 1.8 8.3-2.1 10.6-5.9 4.9-7.9 7.7-17 8.2-26.3.3-4.9-.8-9.4-.9-14.2-.1-4.1 1.5-8.1 3.3-11.7 1.6-3.2 4-5.9 6.8-8 3.5-2.5 7.6-3.9 10.9-6.7 3.4-2.9 5.6-7.1 6-11.5.3-3.3-.4-6.7.4-9.9.6-2.3 1.8-4.4 2.7-6.6 1.9-4.7 1.9-10.1.1-14.9-4.8-12.8-18.6-12.8-29.4-17.5-17-7.4-39.3 6.7-43.1 23.8-1.7 7.1-.7 14.5-.9 21.8"/><path class="st10" d="M112 197.4c7.6-3.7 15.1-9.2 19.3-16.7 1.8-3.4 2.9-7.2 2.4-11-.3-3.1-1.6-6-3.4-8.6-11.2 3.7-21 13.4-23.5 24.2-1.1 4.8-1 9.7-.9 14.6 2.1-.7 4.1-1.6 6.1-2.5M179.4 179c-2-5.4-5.7-8.5-10-10.7.7 2 1.2 4 1.6 6 1.1 5.6 1.2 11.6-.8 17-2.1 5.6-6.7 10-12.6 11.5-3.4.8-7 .8-10.5.5-4.2-.3-8.4-.7-12.6-1.1-8.2-.8-16.5-1.5-24.8-2.1-1.2.5-2.4.9-3.7 1.3 0 1.9.1 3.8 0 5.7 0 .5 0 1-.1 1.6-.5 8.3-2.8 16.6-6.9 23.9-4.2 7.6-7.4 13.9-7.9 22.7 16.6.2 32.2 13.2 35.4 29.6.7 3.7 1.3 8.2 4.8 9.8 4.1 1.8 8.3-2.1 10.6-5.9 4.9-7.9 7.7-17 8.2-26.3.3-4.9-.8-9.4-.9-14.2-.1-4.1 1.5-8.1 3.3-11.7 1.6-3.2 4-5.9 6.8-8 3.5-2.5 7.6-3.9 10.9-6.7 3.4-2.9 5.6-7.1 6-11.5.3-3.3-.4-6.7.4-9.9.6-2.3 1.8-4.4 2.7-6.6 1.9-4.8 1.9-10.2.1-14.9"/><path class="st9" d="M175 193.1c.6-3.6 1.4-7.1 1.6-10.8.1-2.4 1-6.6.1-8.8-.4-1.1-3.1-2.3-3.1-3.3-.6 9.9-1.6 20.1-5.7 29.1-7.9-1.5-15.8-3.3-23.5-5.6-4.6-1.4-3.1-3.2-2.3-7.4.7-3.8 1.2-7.7 1.4-11.6.1-2.7 0-5.5-.6-8.1-.2-.8-1.6-7.2-2.5-7.2-1.9 0-3.7.1-5.6.5 1.2 2.1 1.9 4.7 2.1 7.2 1.9 18.2-13.6 34.1-31.1 36.1v3.9c0 .5 0 1-.1 1.6-.5 8.3-2.8 16.6-6.9 23.9-4.2 7.6-7.4 13.9-7.9 22.7 16.6.2 32.2 13.2 35.4 29.6.7 3.7 1.3 8.2 4.8 9.8 4.1 1.8 8.3-2.1 10.6-5.9 4.9-7.9 7.7-17 8.2-26.3.3-4.9-.8-9.4-.9-14.2-.1-4.1 1.5-8.1 3.3-11.7 1.6-3.2 4-5.9 6.8-8 3.5-2.5 7.6-3.9 10.9-6.7 3.4-2.9 5.6-7.1 6-11.5.2-2.6.2-5.1-.6-7.5-.6-2-1.3-3.2-1.1-5.3.3-1.5.5-3 .7-4.5"/><path class="st7" d="M156.9 153.3c-2 2.5-4.1 5.1-6.9 6.8-1.1.7-3.6 1.2-3.9 2.3-.4 1.3 1.2 4 1.9 5.1 1.4 2.2 3.3 4 5.4 5.6 2.1 1.6 4.5 3.1 7 3.9 3.1 1 5.3.6 8.2-.7 1.1-.5 2.1-1 2.9-1.9.6-.6 1.2-1.6 1-2.5-.1-.4-.9-.3-1.1-.8-.5-1.5 2.1-4.6 2.7-5.8.9-1.7 1.7-3.7 1.4-5.6-.2-1.4-1.1-2.7-1.9-3.8-1.1-1.5-2.4-2.9-3.7-4.2-1.1-1.2-2.3-2.4-3.6-3.4-1-.7-1.1-5.2-2.4-5.1-.9.1-1.8 2.2-2.2 2.9-1.1 1.9-2 4.1-3.5 5.8-.5.4-.9.9-1.3 1.4"/><path class="st6" d="M163.9 161.2c1.1 4 4.4 6.8 8.2 7.6.6-1.2 1.4-2.4 2-3.6.9-1.7 1.7-3.7 1.4-5.6-.2-1.4-1.1-2.7-1.9-3.8-1.1-1.5-2.4-2.9-3.7-4.2-1-1-2-2.1-3.1-3-2.9 3.3-4.1 8.4-2.9 12.6"/><path class="st11" d="M159.7 136.1c-.9-.4-1.8-.7-2.8-.6-1.8.1-3.4 1.4-4.1 3-.7 1.6-.4 3.6.5 5 1 1.5 2.7 2.4 4.4 2.5.6 0 1.2 0 1.7-.2 1.7-.6 2.8-3 3-4.7.5-1.9-1-4.1-2.7-5"/><path class="st6" d="M162.4 142.1c-.3-.7-.7-1.4-1.2-2-.8-.9-1.9-1.7-3.1-1.5-1.5.1-2.6 1.5-2.2 3 .7 2.6 3.4 3.2 5.7 2.5.3-.6.6-1.3.8-2"/><path class="st12" d="M158.8 138.7c.1-.1.1-.1.1-.2-.1-.5-1-.5-1.4-.5-.8 0-1.6.6-1.9 1.3 0 .1.1.2.2.1.3-.4 1.1-.9 1.7-.9.2 0 1 0 1.1.2-.1.1.1.1.2 0-.1 0-.1 0 0 0M158.3 142c.2-.6.3-1.2 0-1.7 0-.1-.2 0-.2.1.1.5 0 1.1-.2 1.5-.2.4-.3.7-.6.9-.1.1-.3.2-.4.3-.1.1 0 .3.1.3.8 0 1.1-.9 1.3-1.4"/><path class="st7" d="M169.4 133.5c-2.9 1.4-6.1 2.1-9.3 1.8-.6 4.8-1.1 10.6.4 15.2 1.4 4.1 3.9 7.8 7.4 10.4 3.3 2.4 7.9 3.7 11.4 1.7 2.1-1.2 3.5-3.3 4.7-5.4 1.8-3.4 3.1-7 4-10.8.7-3.1 1.8-7.5-.5-10.2-.9-1-2.1-1.6-3.2-2.3-3.1-2-5.5-5.1-6.6-8.6-1.8 3.5-4.8 6.5-8.3 8.2"/><path class="st12" d="M178.1 149c.2-.6.3-1.2.3-1.8.1-1.1.3-2.1.5-3.2.1-1.2.4-2.4.5-3.6 0-.2-.2-.3-.3-.1-.3.9-.4 1.9-.6 2.8-.2.8-.3 1.6-.4 2.4-.1.9-.3 1.8-.5 2.7-.1.5-.2 1.2-.5 1.5-.4.4-1.1.3-1.6.2-.4-.1-.6.6-.2.7.7.2 1.6.2 2.2-.4.4-.4.5-.8.6-1.2M177.8 154.6c-.3.1-.4.4-.7.6-.4.4-.9.6-1.5.5-.5-.1-1-.4-1.4-.8-.3-.4-.7-.9-.9-1.4-.1-.1-.3-.1-.3 0-.1.5.4 1.2.7 1.6.4.5.9.9 1.5 1.1.5.2 1.1.1 1.6 0 .2-.1.4-.2.6-.4l.3-.3c.1-.1.1-.3.3-.3.3-.2.1-.7-.2-.6"/><path class="st4" d="M185.3 141.5c.5.3.9.6 1.3 1 .1 0 .2-.1.3-.1.1-.1.2-.1.2-.2.1-.2 0-.3-.1-.5-.5-.9-1.2-1.4-2.1-1.8-.8-.4-1.6-.5-2.5-.1-.1 0-.2.1-.2.1-.1.1-.1.3-.1.5 1.1.3 2.2.5 3.2 1.1M173.6 138.3c.6 0 1.1.1 1.6.2.1-.1.2-.2.2-.3 0-.1.1-.2.1-.3 0-.2-.2-.3-.3-.4-.9-.5-1.8-.6-2.8-.5-.9.1-1.7.4-2.2 1.2-.1.1-.1.2-.1.2 0 .2 0 .4.2.5 1.1-.1 2.2-.6 3.3-.6"/><path class="st13" d="M173.4 143.6c-.3.6-1.1.8-1.7.5-.6-.3-.8-1.1-.5-1.7.3-.6 1.1-.8 1.7-.5.7.3.9 1 .5 1.7M184.1 145.9c-.3.6-1 .9-1.6.6-.5-.3-.7-1-.3-1.6.3-.6 1-.9 1.6-.6.5.3.7 1 .3 1.6"/><path class="st6" d="M169 144.2c-.7.1-1.5.5-1.6 1.2-.1.3 0 .6.1.8.5 1.3 1.9 2 3.3 2.3 1.4.4 4.8-.4 3.4-2.6-.9-1.2-3.8-1.9-5.2-1.7M180.1 146.7c-.7.1-1.4.6-1.5 1.3 0 .3 0 .6.1.8.6 1.3 2 1.9 3.4 2.1 1.5.3 4.7-.8 3.2-2.8-.9-1.1-3.8-1.6-5.2-1.4"/><path class="st14" d="M192.5 217.5c.2.1.4 0 .6-.1.2 0 .1-.3-.1-.2-.2 0-.4.1-.6.2 0 0 0 .1.1.1"/><path class="st7" d="M74.9 190c7.7-7.1 16.1-13.4 25.2-18.6 4.6-2.7 9.3-5.1 14.2-7.2 4.5-2 9.2-5 14.3-4 3.3.7 6.9 3.4 6.4 6.9-.6 3.7-3.6 7.3-5.9 10-9.4 11.2-21.5 19.8-34.2 27.1-6 3.4-12.8 8-19.4 10.1-5.6 1.8-11.9-5.7-11.1-11.1.3-1.8 1.2-3.5 2.2-5.1 2.3-3.2 5.4-5.5 8.3-8.1"/><path class="st1" d="M128.6 160.2c-5.1-1.1-9.8 2-14.3 4-4.9 2.1-9.6 4.5-14.2 7.2-4.5 2.6-8.9 5.5-13.2 8.6 1 .6 2 1.4 2.9 2.2 2.4 2.1 4.5 4.6 6.4 7.1 2.4 3.2 4.9 6.5 6.8 10 9.7-6.2 18.7-13.4 26.1-22.2 2.3-2.7 5.3-6.3 5.9-10 .5-3.5-3.1-6.2-6.4-6.9M155.4 242.7c2-11.1 4.4-24.2 6.3-33h.2c2.8 0 36.7-10.5 37.2-10.2.3.2-9.1 28.5-14.4 43.5l-29.3-.3z"/><path class="st1" d="M156.5 242.7c1-11.1 2.3-24.1 3.5-32.9h.2c2.8-.1 35.7-12.5 36.2-12.2.4.2-7 30.5-11 45.4l-28.9-.3z"/><path class="st1" d="M120.8 237.1s3.1-41.6 3.1-43.9c0-.6 35.1 16.9 37.9 17.4h.2c-.2 8.6-.9 21.3-1.6 32.2l-39.6-5.7z"/><path class="st1" d="M123.2 234.8c-.4-13.7 4.2-38.3 4.6-38.4.5-.2 33 13.9 35.7 14.5h.2c-.9 8.5-2.7 21-4.3 31.8l-36.2-7.9z"/><path class="st2" d="M118.9 238.9c1.7-12.4 2.7-43 2.7-43 9.3 4 40.5 13.9 42.6 15.2.1.1 35.4-10.3 37.2-10.2.4 0-8.5 26.8-13.9 42.1l-34.8 3.4-33.8-7.5z"/><path class="st0" d="M152.7 246.4s9.5-26.8 11.4-35.2h.2c2.8 0 36.7-10.5 37.2-10.2.3.2-8.5 26.8-13.9 42.1l-34.9 3.3z"/><path class="st4" d="M162.6 114.2c-.4-2 .7-4.1 2.4-5.2 1.7-1.2 3.7-1.6 5.8-1.8.7-.1 1.5-.1 2.2 0 .9.2 1.7.7 2.5 1.3 1.9 1.2 3.8 2.8 4.3 5 .5 2.5-1.5 5.1-3.9 5.8-4.3 1.1-12.1.2-13.3-5.1"/><path class="st7" d="M168.1 242.6c-4.7-1.1-9.5-2-14.3-3 1.6-.1 3.1 0 4.7-.2.4-.1 4.3-1.2 4.3-1.1-.7-.9-2-1.2-3.1-1.4-3.8-.8-7.6-1.5-11.4-2.3-2.4 0-4.9-1.6-7.3-1.9-2.4-.3-4.2-.9-6.4-1.8-2.5-1-4.9-2-7.2-3.2-16.6-8.6-27.1-27.6-46.3-31.5-8.3-1.7-21.6 2.4-15 13.1 1.8 2.9 4.6 5 7.4 7 10 7.1 20.7 12.9 31.6 18.3 7.6 3.7 15 7.7 22.8 10.9 3.9 1.6 8 3 12.1 4.1 4.3 1.1 8.6.9 13 .5 3.2-.3 5.3-1.7 7-4.4 0 0 0-.1.1-.1.2-.4.5-.7.9-.9.2-.1.5-.1.7-.1 2.2 0 4.4-.1 6.6-.4.4 0 .8-.1 1-.5.2-.6-.6-1-1.2-1.1"/><path class="st6" d="M50.3 285.5c3 5 4.1 11.2 2.7 16.9-1.6 6.6-12.5 12-18.3 15.2 38.3 1.4 84.8 1.4 117-.1 1-5.1 2.4-10.1 3.6-15.1.1-.4-8.6-1.3-8.5-1.8-27.1-9-42.5-19.5-71.6-20.7-7.7-.3-15.5-.1-23.1-1.3-4.6-.8-9.1-2.1-13.6-3.5 4.7 2.5 9.1 5.7 11.8 10.4"/><path class="st9" d="M90.6 281.5c-4.7-.8-9.8-1.4-15.3-1.6-7.7-.3-15.5-.1-23.1-1.3-2.8-.5-5.6-1.1-8.3-1.9-2.1-.6-4.4-2-6.5-2.3-5-.6-12.2 2.9-16.7 4.9-4.4 1.9-9.6 4.9-10.9 9.8-1.5 5.6-1.9 12.6.9 17.9 2.4 4.6 7 7.6 11.9 9.3 4.9 1.6 10.1 2 15.3 2.3 13 .9 26.1 1.7 39.1 2.6 1.7.1 3.6.2 5-.8 2.6-1.8.1-4.8 0-7.2-.1-3.7.3-7.5.9-11.1 1-7.3 3.4-14.5 7.7-20.6"/><path class="st7" d="M164.5 317.4c.3 0 .6-.1.9-.1 10.3-.8 21.1-2.2 31.4-2 9.7-.6 19.4-1.2 29.1-2.3 8.2-.9 16.6-2.2 23.9-6 2.1-1.1 4.2-2.5 5.1-4.7.6-1.5.7-3.2.7-4.8 0-2.4.1-4.9-.5-7.3-1.2-5.4-5.3-9.8-10.1-12.5-4.8-2.6-10.4-3.7-15.9-4.2-1.3-.1-2.6-.2-3.9-.2-3.5.1-7.3.6-10.3 2.5-1.5.9-2.4 2.3-4 2.9-1.8.7-4.2.7-6.1 1.1-8.2 1.7-16.2 4.5-24 7.8-3.9 1.7-45.1 22-44.6 23 .1.2 1.1 6.6 2.3 9.8 8.7.3 17.3-2.2 26-3"/><path class="st8" d="M256.3 297.7c.9-7.7-4.9-16.2-11.4-19.8-4.8-2.6-10.4-3.7-15.9-4.2-1.3-.1-2.6-.2-3.9-.2-6.4.1-12.2 3.1-18.3 4.9-7 2.1-14 3.7-21.2 5 11 6.6 17.1 19.8 17.6 32.6 0 .7.1 1.6.8 1.8.2.1.5.1.7.1 12.1 0 24.2-2 35.7-5.9 4.8-1.6 9.7-3.7 13-7.6 1.7-1.9 2.6-4.2 2.9-6.7"/><path class="st6" d="M194.5 262.4c.7 1.4 1.5 2.7 2.3 4 3.4 5.5 8.6 10.8 15 10.5 3.5-.2 7-2.2 8.7-5.3 1.8-3.1 1.9-7.1.3-10.2-2.1-4-5.6-8.2-8.2-11.9-4-5.7-9.6-10.7-14.2-15.9-4.6-5.2-6.5-11.4-10.9-16.6-.2-.1-.4-.1-.6-.2-.7-.1-1.1 0-1.5.5l-.1.1c-.1.1-.1.2-.3.3.2.7.3 1.2.3 1.3.4 1 2 2.5 1.3 3.5-2.6-2.7-4.6-6.8-6.8-9.9-.8-1.1-1.6-2.2-2.9-2.5-1 2.7 1.4 5.8.4 8.4-1.3-.3-2.5.9-2.8 2.1-.3 1.3.1 2.6.6 3.8.7 1.8 1.7 3.4 2.8 5 1.7 2.3 2.7 4.7 4.2 7.1 1.6 2.5 2.9 5.2 4.2 7.9 2.9 6 5.2 12.2 8.2 18"/><path class="st9" d="M85.2 299.1c-.6 7.3-1.1 14.8.9 21.9-3.5 1.1-7.2 1.6-10.9 1.6-.5 0-1.1 0-1.6-.3-.6-.4-.8-1.2-.9-2-.6-3.7-1.2-7.3-1.7-11-1.3-9.2-2-18.9 1.6-27.5 1.1-2.7 2.9-5.5 5.7-6.5 1.6-.6 3.4-.6 5.1-.4 2 .2 6.2.5 7.5 2.3 1.4 1.9-.5 4-1.5 5.6-3 5-3.8 10.7-4.2 16.3"/><path class="st8" d="M190.2 287.4c7.2 8.6 10.7 20.2 9.5 31.3 2.9.7 6 .9 9 .7.7 0 1.4-.2 1.9-.7.3-.4.4-1 .4-1.6 0-11.8-4.2-23.1-9.2-33.7-1.4-2.9-3.2-6.1-6.3-6.8-2.2-.5-4.5.5-6.6 1.5-1.8.8-5.6 2.2-4.4 4.5.8 1.7 4.4 3.2 5.7 4.8"/><path class="st4" d="m141.9 192.6-.9-.2c1.8-8.3 3.2-17.2 2-26.1-.3-2.1-.9-4.8-2.5-6.7l.7-.6c1.8 2.1 2.4 4.9 2.7 7.2 1.2 9-.3 18-2 26.4M168.2 200.3c-8.8-1.5-17.5-3.7-26-6.5l.3-.9c8.4 2.8 17.1 5 25.9 6.5l-.2.9z"/><path class="st4" d="M137.4 196.4c-.8 0-1.5-.3-2.2-.7-1.4-1-2-2.9-1.9-5.7.1-2.2.3-4.4.8-6.6l.9.2c-.5 2.1-.7 4.2-.8 6.4-.1 2.5.4 4.1 1.5 4.9.9.7 2.2.7 3.1.2.9-.5 1.5-1.6 2-2.6l.8.4c-.5 1.1-1.2 2.3-2.4 3-.4.4-1.1.5-1.8.5M170.5 205.2c-.5 0-1-.1-1.4-.4-.6-.3-1-1-1.1-1.6-.1-.6 0-1.2.3-1.7l.8.5c-.2.3-.2.6-.2 1 .1.4.3.8.7 1 .7.4 1.6.3 2.4-.2.8-.6 1.3-1.5 1.5-2.2.3-.8.4-1.8.4-2.7v-.2c.3-3.1.8-6.3 1.3-9.3.7-4.4 1.5-9 1.6-13.6 0-.6 0-1.2-.2-1.7l.8-.4c.3.7.3 1.4.3 2.1-.1 4.6-.9 9.2-1.6 13.7-.5 3-1 6.2-1.3 9.2v.2c-.1.9-.2 1.9-.5 2.9-.3.8-.8 2-1.9 2.7-.6.5-1.3.7-1.9.7M128.8 293.5c-1.7-1.5-2.4-3.7-3-5.7-1.6-5-3.6-10.2-6.5-14.8-5.4-8.3-14.6-14.5-25.3-17.2l.2-.9c10.9 2.7 20.4 9.2 25.9 17.6 3 4.6 5 9.9 6.6 15 .6 2 1.3 4 2.8 5.3l-.7.7zM142.3 277.9l-.2-.9c1.4-.3 2.8-.9 3.9-1.8.6-.5 1-1 1.2-1.5.3-.7.2-1.6.2-2.4-.7-7.1-3-14.1-6.7-20.1l.8-.5c3.8 6.2 6.2 13.3 6.9 20.5.1.9.2 1.9-.2 2.8-.3.6-.8 1.2-1.5 1.8-1.4 1.2-2.9 1.8-4.4 2.1"/><path class="st4" d="m141.6 293-.9-.1c2-14.5.1-29.3-5.7-42.8l.9-.4c5.7 13.7 7.7 28.6 5.7 43.3M152 287.2l-.9-.4c1.5-3.5 1.7-7.4 2-11.1.1-1.5.2-3 .4-4.5.6-4.8 2.3-11.1 7.6-13.9l.4.8c-5.1 2.7-6.6 9.4-7.1 13.1-.2 1.5-.3 3-.4 4.4-.2 4-.4 8-2 11.6M32 279.9l-.2-.9c7.2-1.9 14.3-3.6 21.6-4 8.3-.5 15.5.7 21.6 3.7l-.4.8c-5.9-2.9-13-4.1-21.2-3.6-7.2.5-14.2 2.2-21.4 4M200.5 282.1l-.5-.8c8.3-5 18.1-7.6 27.7-7.5v.9c-9.4-.1-19.1 2.5-27.2 7.4"/><path class="st4" d="M209.3 319.9c-.1 0-.3 0-.4-.1-.2-.2-.4-.5-.3-.7 0-.2.2-.4.4-.5l.3.9c.1 0 .2-.1.2-.3v-.2h-.2v-.4c-.6-11.7-3.3-23.1-8.1-33.8-2.3-5.1-4.7-7.7-7.8-8.1l.1-.9c4.5.6 7 5.2 8.6 8.6 4.8 10.8 7.5 22.3 8.2 34.1 0 .2 0 .9-.5 1.2-.2.2-.4.2-.5.2M73.9 324.1c-2-1.6-2.6-4.4-2.9-6.8-1.1-8.2-1.5-16.5-1.3-24.8.1-3 .3-6.3 1.4-9.3 1.2-3.4 3.4-6 6.1-7.1l.4.9c-2.5 1.1-4.5 3.5-5.6 6.6-1 2.9-1.2 6-1.3 9-.2 8.2.2 16.5 1.3 24.6.3 2.3.8 4.8 2.5 6.2l-.6.7zM103.4 200.3c-4.8-7.5-10.5-14.4-16.9-20.6l.7-.7c6.4 6.2 12.2 13.2 17 20.7l-.8.6zM106.5 198.7c-4.4-7.8-10-14.9-16.6-21l.6-.7c6.6 6.2 12.3 13.3 16.8 21.2l-.8.5zM195.8 220.1l-.4-.9c3.2-1.4 6.5-2.8 9.6-4.4l.4.8c-3 1.7-6.3 3.2-9.6 4.5M197.1 216l-.5-.8c2-1.3 4.2-2.4 6.5-3.3l.3.9c-2.2.8-4.3 1.9-6.3 3.2M164.3 177.7h-.2c-3.3-.1-6.9-1.5-10.8-4.2-4.3-3-6.9-6.2-7.7-9.7-.4-1.4-.3-2.5.3-3.3l.8.5c-.4.6-.4 1.4-.1 2.5.8 3.2 3.2 6.2 7.4 9.1 3.8 2.6 7.1 4 10.3 4.1 4 .1 7.6-1.9 8.9-5.1l.9.4c-1.6 3.5-5.5 5.8-9.8 5.7M74.6 211.4c-2 0-3.9-.9-5.3-2.4s-2.1-3.7-1.8-5.8l.9.1c-.2 1.8.4 3.7 1.6 5 1.2 1.3 3 2.1 4.8 2.1v.9c0 .1-.1.1-.2.1M20.5 310.2c-.6 0-1.3-.1-1.9-.3l.2-.9c1.9.5 3.9.2 5.6-.8 1.7-1 2.9-2.6 3.4-4.5s.3-4.1-.7-6.2c-.9-2.2-2.5-4-3.7-5.4l.7-.6c1.3 1.4 2.8 3.3 3.8 5.6s1.3 4.8.7 6.8c-.6 2.1-2 4-3.9 5.1-1.1.8-2.6 1.2-4.2 1.2M250.5 304.9c-3.5-.1-7-2.7-8.4-6.4-1.6-4.1-.7-8.5.4-11.5l.9.3c-1 2.8-1.9 7-.4 10.9 1.4 3.6 4.9 6.1 8.3 5.7l.1.9c-.3.1-.6.1-.9.1M211.4 272.2c-1.8 0-3.6-.8-5.1-2.2l.7-.7c1.6 1.6 3.8 2.3 5.7 1.8 2.1-.5 3.6-2.4 3.6-4.3h.9c.1 2.4-1.8 4.7-4.3 5.3-.5.1-1 .2-1.5.1M212.8 258.8c-8.8-13.6-17.3-27.6-25.3-41.6l.8-.5c8 14 16.5 28 25.3 41.6l-.8.5zM164.1 203.8c-.2 0-.4-.1-.5-.3 0-.1-.1-.1-.1-.2-2.7-.7-5.5-1.3-8.3-1.8-3.9-.7-8-1.5-11.8-2.9l.3-.9c3.8 1.3 7.8 2.1 11.7 2.8 2.8.5 5.8 1.1 8.6 1.9.6.2.7.6.7.7 0 .3-.2.5-.4.5-.1.2-.2.2-.2.2m-.3-.8.5.5c.1-.1.2-.3.1-.5-.1-.1-.2-.2-.4-.2-.1.1-.2.1-.2.2M152.7 302.4c0 2.9.1 5.8.1 8.7 0 2.2.1 4.3.1 6.5 0 2.8.4 3.4-2.6 3.8-13 1.6-25.5 5.2-37.2 11.3-2.3 1.2-6.4 4-9 3.2.1-1.2.9-2.2 1.7-3.2 7.3-8.5 15.6-16.1 24.5-22.8.3-.2.5-.4.8-.6v-.9l.5.3c.3-.4.5-.9.4-1.5-.3.1-.6.2-.9.2v-.4s-.6 0-1.2.1c-1-.8-1-2.7-1.1-4.1 2-.5 23.9-1.1 23.9-.6M195.6 159.8s2.7-4.4.2-9.3-5.4-12.1-3.7-16.9c0 0-.9 5.7 2.7 12.4s2.3 11.8.8 13.8M155.5 147.8"/><path class="st9" d="M156.8 147.7h-.2s-.2.1-.1 0H155.5s.1 0 0 0l-.1-.1V146.9c0-.1.1-.3.1-.3l.1-.1c-.1.1-.1.1 0 0l.3-.3c.2-.2.4-.3.5-.5l.3-.3c.2-.2.2-.5.2-.7 0-.3-.2-.5-.4-.5s-.9.1-1.1.2c0 0-.1 0-.1.1-.1.1-.2.1-.3.2l-.3.3c-.2.2-.4.5-.6.7-.3.5-.5 1.1-.4 1.7.1 1.3 1.2 2.5 2.6 2.3.2 0 .5-.1.6-.3.1-.1.1-.3.2-.4 0-.1.1-.1.1-.2.2-.5 0-1-.4-1.1"/><path class="st6" d="M399.4 200.9c-3.4-7-13.8-1.9-18.9 2.7-5 4.6-8.3 10.6-11.5 16.5-1.2 2.1-67.3 89.4-77.7 101.4 0 .2-.1.4-.1.6 0 .7.1 1 .7 1.3l.1.1c.1 0 .2.1.3.2.6-.2 1-.4 1.2-.5 1-.6 2.1-2.1 3.3-2.1-1.2 1.2-2.4 2.2-3.3 3.7-.2.3-.3.6-.3 1 .1.4.3.7.6.9 1.2 1.1 2.6 2 4 2.8 1.2.6 2.4 1.2 3.7 1 1.1-.2 2.1-.8 3-1.5 4.6-3.4 8.5-7.4 13-10.8 4.6-3.6 9.2-7.2 13.6-11 8.3-7 16.3-14.4 23.9-22 3.6-3.6 16.3-16.2 19.4-19.7 4.1-4.7 7.8-9.7 11.1-14.9 5.3-8.5 11-17 14-26.3 2.8-7.9 3.2-16.5-.1-23.4"/><path class="st6" d="M395.3 354c0-6.2.2-12.2 1.6-18.3 2.4-10.5 7.5-20.3 11.5-30.3-3.1-1.3-6-2.7-8.8-3.6-.3-.1-.5-.2-.7-.3-10-3.4-20.3-6.3-30.8-8.2-12.8-2.3-25.9-2.9-39-3.3-16.6-.6-33.3-.9-49.8 1.4l.6-.9c-.5.3-1 .7-1.5 1l-2.1.3-1.5.3c-1.1.5-2.2.9-3.2 1.5-3.7 2-6.4 4.9-7.7 8.4-6.4 4.2-14.5 6.4-21.5 9.3-29.3 12-51.7 31.5-78.8 44.6 3.6 9.9.8 19 8.7 17.4 16.3-3.3 39.5-8.3 55-14 18.8-6.8 37.3-14.6 55.6-22.8 6.4-.6 12.8-1.2 19.2-1.9 8.2-.8 16.4-1.6 24.6-2.5 9.1-1 14.6-.6 23.4 2.2 16.7 5.1 33.5 12.3 45.1 25.6.1-2 .1-3.9.1-5.9"/><path class="st15" d="M408.4 305.4c-3.1-1.3-6-2.7-8.8-3.6-.3-.1-.5-.2-.7-.3-10-3.4-20.3-6.3-30.8-8.2-12.8-2.3-25.9-2.9-39-3.3-16.6-.6-33.3-.9-49.8 1.4l.6-.9c-.5.3-1 .7-1.5 1l-2.1.3-1.5.3c-1.1.5-2.2.9-3.2 1.5-3.7 2-6.4 4.9-7.7 8.4-6.4 4.2-14.5 6.4-21.5 9.3-22.6 9.3-41.5 22.1-61.3 33.5 1 4.9 2.5 9.7 4.2 14.4 1.3 3.5 2.8 7 4.3 10.5 13.1-2.9 27.2-6.5 37.8-10.3 18.8-6.8 37.3-14.6 55.6-22.8 6.4-.6 12.8-1.2 19.2-1.9 8.2-.8 16.4-1.6 24.6-2.5 9.1-1 14.6-.6 23.4 2.2 16.7 5.1 33.5 12.3 45.1 25.6-.1-2-.1-3.9-.1-5.9 0-6.2.2-12.2 1.6-18.3 2.5-10.6 7.6-20.3 11.6-30.4"/><path transform="rotate(-18.656 185.187 356.471)" class="st15" d="M180.6 339.2h9.2v34.7h-9.2z"/><path class="st16" d="M404.6 139.6c.4.2.5.8.6 1.2.3 1.4.4 2.9.4 4.3.3-1.6.8-3.2 1.6-4.6.1-.2.3-.4.5-.3.1.1.1.2.1.3.2 1.7-.2 3.5-1 5 .6-1.3 1.5-2.5 2.5-3.5.2-.2.4-.4.6-.4.4-.1.8.4.9.8 0 .5-.2.9-.5 1.2-.9 1.3-3.4 3.9-5.1 2.3-.6-.6-.8-2-.9-2.8-.1-.1-.1-3.7.3-3.5"/><path class="st1" d="M355.4 175.8h-.2c-2.5-.1-32.3-12.9-32.8-12.5-.4.3 13.4 58.3 14.3 59.4.8 1 20.1 10.4 25.7 13.2-.1-2.3-4.1-40.7-7-60.1"/><path class="st1" d="M357 175.9h-.2c-2.5-.2-31.4-15-31.8-14.7-.4.3 9.4 59 10.3 60.3.8 1.1 19.4 11.8 24.8 14.9-.1-2.4-1.5-40.9-3.1-60.5"/><path class="st1" d="M386.1 159.8c-.5-.3-28.3 16.5-30.8 16.9h-.2c-.2 17.1.7 48.4 1 57.9 0 0 .1 0 .1.1.2.1.4.3.5.5.4.3.9.6 1.3.9 6.7-4.5 21.2-14.3 21.9-15.3.8-1.4 6.7-60.7 6.2-61"/><path class="st1" d="M383.3 158.1c-.5-.3-27.1 18.3-29.6 18.9h-.2c1 18.2 4.4 52.6 5 59.3.3.2.5.3.8.5 5.7-4.4 21.2-16.4 21.8-17.5.9-1.4 2.7-60.9 2.2-61.2"/><path class="st1" d="M399.4 200.9c-3.4-7-13.8-1.9-18.9 2.7-5 4.6-8.3 10.6-11.5 16.5-.2.4-2.6 3.6-6.3 8.6 5.1 3.2 10.1 6.5 14.6 10.5 3.4 3 6.7 6.5 8.8 10.6 5.2-8.3 10.7-16.6 13.6-25.6 2.6-7.8 3-16.4-.3-23.3M395.9 237.2c0-.1 0-.1-.1-.2.1.1.1.2.1.2M412.5 196.3c1.2.1 2.4.2 3.5.3-1.1-.2-2.3-.3-3.5-.3M404.7 196.1h3.7-3.7M394.5 233.5s0-.1 0 0c0-.1 0 0 0 0M408.6 196.1c1.2 0 2.4.1 3.6.1-1.1 0-2.3 0-3.6-.1"/><path class="st6" d="M412.8 325.1c2.3 2 4.6 3.9 7.2 5.6 3.1 2.1 8.6 5.8 12.4 3.4 3.3-2.1 6.2-11 8.1-14.4 2.8-5.4 5.5-10.8 8-16.4 5.1-11.5 9.5-23.4 11.9-35.7 4.6-23.4.9-48.2-20.3-62.8-12.6-8.7-30.8-11.1-45.5-8.4-2 .4-4 .9-5.7 2.1-2.4 1.7-3.6 4.6-4.4 7.4-6.1 21.5 4.4 43.4 1.3 65.1-.8 5.7-1.1 11.5-1.5 17.3-.1 1.6-.2 3.2-.6 4.7-.9 3.5-3.2 6.5-5.6 9.2-.4.4-.8.9-.9 1.4-.3 1.2.7 2.4 1.9 2.8s2.5.2 3.7.2c3.2-.1 6.5.6 9.4 2 2.6 1.3 4.9 3.2 7.2 5.1 2.3 1.9 4.6 3.8 7 5.7 2.2 2 4.3 3.9 6.4 5.7"/><path class="st1" d="M412.8 325.1c2.3 2 4.6 3.9 7.2 5.6 3.1 2.1 8.6 5.8 12.4 3.4 3.3-2.1 6.2-11 8.1-14.4 2.8-5.4 5.5-10.8 8-16.4 5.1-11.5 9.5-23.4 11.9-35.7 4.6-23.4.9-48.2-20.3-62.8-12.6-8.7-30.8-11.1-45.5-8.4-2 .4-4 .9-5.7 2.1-2.4 1.7-3.6 4.6-4.4 7.4-6.1 21.5 4.4 43.4 1.3 65.1-.8 5.7-1.1 11.5-1.5 17.3-.1 1.6-.2 3.2-.6 4.7-.9 3.5-3.2 6.5-5.6 9.2-.4.4-.8.9-.9 1.4-.3 1.2.7 2.4 1.9 2.8s2.5.2 3.7.2c3.2-.1 6.5.6 9.4 2 2.6 1.3 4.9 3.2 7.2 5.1 2.3 1.9 4.6 3.8 7 5.7 2.2 2 4.3 3.9 6.4 5.7"/><path class="st17" d="M440.1 204.8c-12.6-8.7-30.8-11.1-45.5-8.4-.2 0-.4.1-.6.1l3.6 2.4c2.4 0 4.8-.3 7.2-.4 3.7-.2 7.6.2 11.1 1.5 2.2.8 4.7 1.8 6.8 3.2 2.7 1.9 5 5.3 5.2 8.7.1 3.6-2 6.9-3.5 10.1-1.6 3.3-2.6 7-2.9 10.6-.2 1.8-.3 4-1.8 5.1-1.1.8-2.6.8-3.9.3-1.3-.5-2.4-1.3-3.6-1.9-4.4-2.5-16-4.6-17.3 2.9-.5 2.7-.5 5.8-.2 8.5.8 6.5 3.6 12.5 6.2 18.3 1.2 2.6 3 5 4.5 7.4 1.5 2.5 3.3 5.3 4.2 8.1.7 2.3 1.7 5.2 1.5 7.6-.1 2.1-1.3 4.4-3.3 5.1-1.4.5-2.9.2-4.4-.2-6.7-1.8-14.3-6.4-18.6-11.8-.5 1.8.1 4.9-.4 6.7-.3 1.4-.2 2.9-.6 4.3-.9 3.5-3.2 6.5-5.6 9.2-.4.4-.8.9-.9 1.4-.3 1.2.7 2.4 1.9 2.8 1.2.4 2.5.2 3.7.2 3.2-.1 6.5.6 9.4 2 2.6 1.3 4.9 3.2 7.2 5.1l7 5.7c2.2 1.8 4.3 3.7 6.5 5.5 2.3 2 4.6 3.9 7.2 5.6 3.1 2.1 8.6 5.8 12.4 3.4 3.3-2.1 6.2-11 8.1-14.4 2.8-5.4 5.5-10.8 8-16.4 5.1-11.5 9.5-23.4 11.9-35.7 4.4-23.1.6-48-20.5-62.6"/><path class="st1" d="m397.2 241.1-.1-.3.1.3zM395.9 237.1c-.4-1.2-.9-2.4-1.3-3.6.4 1.2.8 2.4 1.3 3.6M394.5 233.4c-.2-.6-.5-1.2-.7-1.8.2.6.4 1.2.7 1.8M397.1 240.8c-.4-1.2-.8-2.4-1.2-3.5.4 1.1.8 2.3 1.2 3.5M397.7 242.8c-.2-.6-.3-1.1-.5-1.7.6 1.8 1.1 3.7 1.6 5.6.2.7.4 1.5.6 2.2-.5-2.1-1.1-4.1-1.7-6.1M416.2 196.5h-.1.1c0 .1 0 0 0 0M404.5 196.1h.2-.2M408.4 196.1h.2-.2M412.3 196.3h.3-.3"/><path class="st4" d="M286.8 286.8c-.3-1.5-.3-3.1.1-4.6.9-3.4 3.7-6.2 7.1-7.1l.3 1c-3 .8-5.6 3.4-6.4 6.4-.8 3 .2 6.5 2.4 8.7l-.7.8c-1.4-1.5-2.4-3.3-2.8-5.2"/><path class="st9" d="M165.6 353.9c-1 .3-2.2.8-2.7.9-1.7.3-3.5.3-5.2.2-6.3-.3-11.6-2.2-15.6-7.1-2.2-2.7-4.3-5.4-6.4-8.2-.4-.6-.9-1.2-1.5-1.6-.6-.4-1.5-.5-2.1-.1-.5.3-.8.9-.9 1.5-.7 3 9 22.1 9 22.1 5.4 9.2 8.6 14.1 8.6 14.1l2 3.9-2.3.9c0 .1.1.1.1.2l1.9 4.2c8.3-3.1 16.3-6.9 24.3-10.9l-9.2-20.1z"/><path class="st7" d="M381.6 360.7c1.5.8 3.1 1.3 5 1.6 5.4.8 10.9.9 16.3-.2 7.1-1.4 13.9-5 18.6-10.5 1.5-1.8 2.8-3.8 4.1-5.8 1.7-2.8 3.2-5.6 4.3-8.6.8-2.1 1.4-4.3 1.3-6.6-.2-5-4.6-9-7.8-12.4-4.1-4.3-8.3-8.5-12.7-12.5-16-14.6-34-26.7-53.5-36-7.7-3.7-15.5-6.9-23.5-9.7-3.5-1.2-6.9-2.4-10.4-3.5l-4.8-1.5c-1.1-.3-3.3-1.5-4.3-1.3-2.5.4-4.9 1.2-7.2 2.5-5.2 3-56.1 53.1-76.9 74.2-8.6 8.7-24.9 21.6-24.7 21.8.1.1 0 .3.2.3 2.9.1 3.8 10.9 7.1 10.2 28.3-5.5 60-23.6 81.5-42.8 5.7-5.1 11-10.6 17.3-14.9 15.6 12.6 33.4 22.4 52.3 28.7.3.1 1.2 5.5 1.4 6.2.7 2.1 1.6 4.2 2.6 6.2 2.1 3.8 4.8 7.3 8 10.3 1.9 1.7 3.7 3.2 5.8 4.3"/><path class="st4" d="M433.7 334.9c.4-1.5.6-3 .4-4.2-.5-2.4-3.4-4.4-5-6.2-5.8-6.6-12-12.9-18.5-18.9-16-14.6-34-26.7-53.5-36-7.7-3.7-15.5-6.9-23.5-9.7-3.5-1.2-6.9-2.4-10.4-3.5l-4.8-1.5c-1.1-.3-3.3-1.5-4.3-1.3-2.5.4-4.9 1.2-7.2 2.6-5.2 3-56.1 53.1-76.9 74.2l-.6.6c4.6 7.3 9.7 14.4 15 21.2 18.4-8.4 36.1-20.1 49.7-32.3 5.7-5.1 11-10.6 17.3-14.9 15.6 12.6 32.5 23.2 51.5 29.5 1 7.2 4.6 13.7 9.6 18.9 5.6 5.8 11.8 9.7 19.9 10.5 5.8.6 11.7.4 17.3-1s11-4.3 14.9-8.5c4-4.3 6.4-9.8 7.9-15.5.3-1.1.8-2.5 1.2-4"/><path class="st9" d="M208.5 345.9c-.8.7-1.8 1.5-2.2 1.8-1.5.9-3.1 1.6-4.8 2.1-6 2-11.6 2.2-17.2-.9-3-1.7-6-3.4-8.9-5.3-.6-.4-1.3-.8-2-.9-.7-.1-1.5 0-2 .6-.4.5-.4 1.1-.3 1.7.4 3 16.4 17.3 16.4 17.3 8.4 6.6 13.2 10 13.2 10l3.2 2.9-1.8 1.7.1.1 3.3 3.2c6.6-5.9 12.7-12.4 18.6-19l-15.6-15.3z"/><path class="st7" d="M422.5 188.4c.5 2.1.9 4.2 1.9 6.2 1.1 2.1 2.8 3.8 1.8 6.2-.5 1.2-1.4 2.2-2.4 3.1-2.6 2.7-5.4 5.3-8.9 6.8-2.7 1.1-5.6 1.5-8.5.9-2.8-.5-5.5-2-7.4-4.1-1.1-1.2-2-2.7-2.4-4.3-.3-1.2-.2-2.5.1-3.6.5-1.3 1.2-1.4 2.6-1.7.5-.1 1-.2 1.5-.1 0-.1 0-.3.1-.4.7-1.9.2-4.1.1-6.1-.1-2.1.1-4.2 1.4-5.9.9-1.2 2.2-2 3.6-2.6 1.8-.8 3.6-1.5 5.4-2.2 1.6-.6 3.2-1.1 4.9-1.4 1.2-.2 3.5-4.3 4.7-3.6 1.1.6.3 7.2 1.5 12.8"/><path class="st6" d="M401.1 196.9c1.5 1.3 3.2 2.1 5.2 1.6 2.8-.7 5-3.3 6.7-5.6 2.4-3.2 4.3-6.9 6-10.5.9-1.9 1.7-3.8 2.5-5.8-.1-.6-.2-1-.5-1.1-1.2-.7-3.4 3.3-4.7 3.6-1.7.3-3.3.9-4.9 1.4-1.8.7-3.7 1.3-5.4 2.2-1.4.6-2.7 1.4-3.6 2.6-1.2 1.6-1.4 3.8-1.4 5.9.1 1.9.5 3.9.1 5.7"/><path class="st16" d="M399.5 143.1c-2.7.4-5.1 1.9-7 3.8-5.7 5.7-6.7 15.5-2.3 22.2 2.1-2 4.1-4.1 6.2-6.1 3.9-3.8 7.8-7.7 10.1-12.6.8-1.8 1.6-4 .1-5.5-1.7-1.8-4.9-2.1-7.1-1.8"/><path class="st7" d="M418.6 153.2c2.5 2.4 3.2 6.1 3.2 9.6.1 5.2-.8 10.4-3.2 15-2.3 4.6-6.2 8.6-11 10.6-3.9 1.7-8.9 1.8-12-1-1.9-1.7-2.8-4.2-3.4-6.6-1.5-5.8-1.8-11.9-1-17.8.3-1.7.6-3.4 1.3-4.9 1.4-3.3 4.2-5.9 7.4-7.3 5.6-2.2 14.3-1.8 18.7 2.4"/><path class="st4" d="M421.4 158.5c-.6.9-1 1.8-1.4 2.8-2.2 6.1-3 15.5-11 16.7-2.1.3-4-.2-6-.7-.9-.3-1.7-.5-2.6-.4-1.1.1-2.2.7-3.2 1.2-1.7.8-3.4 1.6-5.3 1.6.1.4.2.8.3 1.3.6 2.4-2.6 8.7-.7 10.4 3.1 2.8 17.2 2 21.1.4 4.8-2 3.7-9.2 6-13.8 2.3-4.6 3.3-9.9 3.2-15 0-1.6-.1-3.1-.4-4.5"/><path class="st12" d="M398.3 174.2c-.1-.5-.2-1.1-.3-1.6-.1-.9-.3-1.8-.3-2.8-.1-1-.3-2.1-.4-3.1 0-.2.2-.3.3-.1.3.8.3 1.6.5 2.4l.3 2.1c.1.8.2 1.6.4 2.3.1.4.1 1 .5 1.3.4.3 1.1.2 1.6.1.4-.1.6.5.2.6-.7.2-1.7.3-2.3-.3-.3-.2-.4-.5-.5-.9M399 180.2c.4 0 .5.3.8.4.6.3 1 .5 1.7.2.5-.2.9-.6 1.2-1.1.2-.5.5-1.1.6-1.6 0-.2.2-.2.3 0 .2.5-.1 1.3-.3 1.8-.3.6-.7 1.1-1.2 1.4-.4.3-1.1.4-1.6.3-.3 0-.5-.1-.7-.3-.1-.1-.3-.2-.4-.3-.1-.1-.2-.3-.3-.3-.5 0-.4-.5-.1-.5"/><path class="st4" d="M401.8 162c.1-.2.3-.3.5-.3 1.2-.4 2.3-.3 3.5.1 1.1.3 1.9.8 2.4 1.8 0 .1.1.2.1.3 0 .3-.3.5-.5.6-.7.3-1.4.1-2.2-.1-.9-.2-1.7-.5-2.5-.9-.5-.3-1.1-.6-1.2-1.1-.1-.2-.1-.3-.1-.4M390.3 163.3c0-.2.1-.3.2-.5.6-.9 1.5-1.3 2.5-1.5.9-.2 1.8-.2 2.6.3.1.1.2.1.2.2.1.2.1.5-.1.7-.4.6-1 .7-1.6.9-.7.2-1.5.3-2.2.4-.5 0-1.1 0-1.4-.3-.2-.1-.2-.1-.2-.2M403.1 169.2c.2.7.9 1.1 1.6.9.7-.2 1.1-.9.9-1.6-.2-.7-.9-1.1-1.6-.9-.7.1-1.1.9-.9 1.6M392.4 168.4c.2.7.8 1.1 1.4 1 .6-.2.9-.9.7-1.6-.2-.7-.8-1.1-1.4-1-.6.1-.9.9-.7 1.6"/><path class="st4" d="M414.3 165.2c1.8.5 3.8.7 5.8.7.2 0 .4 0 .6.1.1.1.2.3.2.5.4 3.1-2.7 6.4-1.3 9.4 2-.3 2.8-2.7 4-4.2 1.4-1.7 3.1-3.2 4.6-4.9 2.5-2.8 4.8-6.3 4.4-10-.5-3.7-3.5-6.5-6.7-8.4-4.8-2.9-10.3-4.4-15.8-4.5-2.8 0-11.8-.1-12.2 4-.2 1.6 1.3 3.8 2 5.2 3.1 6 8.2 10.5 14.4 12.1"/><path class="st6" d="M408 171.5c.7.3 1.4.8 1.3 1.6 0 .3-.1.6-.3.8-.8 1.2-2.4 1.6-3.9 1.6s-4.7-1.6-2.8-3.4c1.2-1.1 4.4-1.1 5.7-.6M391.2 174.1c-.1-1.1-.2-2.1-.3-3.2 1.3-.6 3.5-.5 4.6-.1.6.3 1.3.8 1.3 1.5 0 .3-.1.5-.3.8-.7 1.1-2.3 1.5-3.6 1.5-.5-.1-1.1-.3-1.7-.5"/><path class="st14" d="M418.5 164.7c.1 0 .3.1.4.1h.4c.2 0 .2.2.1.3-.3.1-.8.1-1-.2-.1-.1-.1-.3.1-.2"/><path class="st11" d="M420.6 164.4c.8-.2 1.7-.2 2.5.1 1.5.5 2.6 1.8 2.8 3.3.3 1.5-.3 3.1-1.5 4.1-1.1 1-2.7 1.5-4.2 1.3-.5-.1-1-.2-1.4-.5-1.3-.9-1.7-3.1-1.6-4.6.1-1.8 1.8-3.3 3.4-3.7"/><path class="st6" d="M417.1 168.9c.4-.6.9-1.1 1.5-1.5.8-.6 1.9-1 2.9-.7 1.2.4 1.9 1.8 1.3 3-1.1 2-3.5 2-5.3 1-.2-.6-.3-1.2-.4-1.8"/><path class="st12" d="M420.9 166.7v-.2c.1-.4 1-.2 1.3-.2.7.2 1.2.8 1.4 1.4 0 .1-.1.1-.1 0-.2-.4-.8-1-1.2-1.1-.2 0-.8-.2-1 0-.2.2-.4.2-.4.1M420.6 169.6c-.1-.5 0-1 .3-1.5.1-.1.2 0 .2.1-.2.4-.2.9-.1 1.3.1.3.1.7.3.9l.3.3c0 .1-.1.2-.2.2-.6-.1-.7-.8-.8-1.3"/><path class="st9" d="M353.1 177.4c2.3.1 30-11.7 38.4-15.8.1 0 4.3 57.4 4.5 57.1.1 0-35.7 18.8-35.7 18.8s-24.6-12-25.6-13.2c-1-1.2-14.7-59.1-14.3-59.4.4-.4 30.2 12.4 32.7 12.5"/><path class="st8" d="M383.1 213.2c-.9-1.9-1.9-3.8-2.8-5.8-.8-1.6-1.4-3.3-2.4-4.8-.9-1.4-2.2-2.7-3.8-3.2-2-.7-3.9 0-5.7.9-.1 0-.2.1-.3.1-2.7 1.8-2 5.4-1.3 8.3.6 2.4 1.8 4.9 1.8 7.3-.1 3.5-2.2 6.5-1.7 10.1.3 2.3 1 4.7 2 6.9 5.5-2.9 12.6-6.6 18.2-9.6-1-3.6-2.5-7-4-10.2M353.3 177.4h-.2c-2.5-.1-32.3-12.9-32.8-12.5-.4.3 13.4 58.3 14.3 59.4.8 1 20.1 10.4 25.7 13.2-.1-2.4-4.1-40.7-7-60.1"/><path class="st7" d="M372.4 208.7c.2-.4.4-.9.2-1.4-.1-.3-.2-.5-.4-.7-1.4-2-2.6-4.1-3.7-6.3-.2-.4-.4-.9-.1-1.2.4-.5 1.3-.1 1.7.4 3.9 3.7 7.6 7.6 11.4 11.3-.9-1.5-1.9-2.8-2.7-4.4-.2-.4-1.5-4.6-1.6-4.6 1.3.1 2.3 1.1 3.2 2 15.5 15.7 31 31.3 46.5 47-.2-3.2-.3-6.5-.5-9.7-.3-6.8-.7-13.8 1.5-20.2 2.2-6.5 10.9-18.6 18.3-13.8 7.3 4.7 10.4 15.5 12.5 23.8 2.5 9.8 2 20.1 1.8 30.3-.1 6.2-.1 12.6-2 18.6-1.8 6-5.8 11.6-11.7 13.8-5.6 2.1-12.1.7-17.2-2.4-5.2-3.1-9.2-7.6-13.1-12.2-8.2-9.5-16-19.4-23.3-29.6-4.9-6.8-9.6-13.7-14.2-20.7-2.3-3.5-4.7-7-6.7-10.6-1.7-3.1-1.6-5.9-.2-9.1l.3-.3z"/><path class="st1" d="M426.1 247.1c5.9-3.1 12.7-4.2 19.2-5.3 4-.7 8.1-1.3 12.2-1.7 1.5-.1 2.9-.3 4.4-.4-.3-2.7-.8-5.4-1.5-8-2.3-8.8-5.6-20.3-13.4-25.4-7.9-5.1-17.2 7.7-19.5 14.7-2.3 6.9-2 14.4-1.6 21.6l.2 4.5z"/><path transform="rotate(-36.943 237.285 340.493)" class="st4" d="M232.8 323.8h8.9v33.3h-8.9z"/><path class="st4" d="m426.1 247.7-.4-1c2.2-1 4.5-1.5 6.7-2.1 10.3-2.3 20.9-4.7 31.6-6.1l.1 1c-10.6 1.4-21.2 3.8-31.5 6.1-2.2.6-4.5 1.1-6.5 2.1"/><path class="st18" d="m246.3 345.2-.5-.9c14.5-8 27.3-19 39.7-29.6 7.8-6.7 16.7-14.3 21.1-24.4l.3-.6.5.4c19 14.8 39.1 27.4 61.4 38.4l-.5.9c-22.1-10.9-42.1-23.4-61-38.1-4.6 10-13.4 17.5-21.1 24.2-12.4 10.6-25.2 21.6-39.9 29.7M407.2 329.6c-.2 0-.3 0-.5-.1-.6-.3-.9-1-1-1.6-.9-7 2.2-14.3 7.9-18.5.3-.2.8-.3 1.1-.1.2.2.3.5.2.7l-1-.3c0 .1 0 .3.1.4.1.1.2.2.2.1-5.4 4-8.3 10.8-7.5 17.5.1.4.3.8.4.8l.5.9c-.1.2-.2.2-.4.2"/><path class="st18" d="M410.8 331.3c-1-7 1.1-14.4 5.8-19.7l.8.7c-4.5 5.1-6.5 12.1-5.5 18.8l-1.1.2z"/><path class="st18" d="M398.2 344.8c-10.2-.2-20.3-5.4-26.1-13.8l.9-.6c6.3 9.1 17.9 14.4 29 13.2 11-1.2 21.2-9 25.3-19.2l1 .4c-4.3 10.6-14.8 18.6-26.2 19.9-1.4.1-2.6.1-3.9.1"/><path class="st4" d="M441.6 295.3c-7.5-.1-14.2-5-16.5-6.9-3.5-2.8-6.5-6.1-9.8-9.7-3.1-3.4-6.2-7-9.5-11-6.7-8.2-12.9-16.8-17.6-23.3-.6-.8-1.2-1.6-1.7-2.4-4.9-6.8-11.7-18.3-15.3-26l2.7 4c3.5 7.7 8.5 14.6 13.4 21.4.6.8 1.2 1.6 1.7 2.4 4.7 6.5 10.8 15 17.5 23.2 3.2 4 6.3 7.6 9.4 11 3.3 3.6 6.3 6.8 9.7 9.6 3 2.4 13.4 10 23.2 4.9 8.3-4.3 10-14.6 10.6-21.9.1-1.3 1-8.6 1.1-9.7l.2 6.1c-.1 1.1-.1 2.4-.2 3.7-.6 7.6-2.4 18.3-11.1 22.8-2.5 1.4-5.2 1.9-7.8 1.8"/><path class="st4" d="M444.5 289.2c-3.7-.1-7.3-1.5-10-4l.7-.8c2.9 2.6 6.9 4 10.7 3.7 1.4-.1 3.2-.5 4.3-1.9l.8.6c-1 1.3-2.7 2.1-5 2.3-.5.1-1 .1-1.5.1"/><path class="st18" d="m306.2 262.7-1-.4c1.4-3.3 5.3-5.2 8.8-4.4l-.2 1c-3-.7-6.3 1-7.6 3.8"/><path transform="rotate(-36.768 233.88 343.59)" class="st4" d="M233.4 326.6h1.1v33.9h-1.1z"/><path transform="rotate(-37.148 240.701 337.917)" class="st18" d="M240.2 321.6h1.1v32.7h-1.1z"/><path class="st4" d="m239.8 350.8-.4-1c2.2-1 4.3-2.5 5.8-4.4l.8.7c-1.7 2-3.8 3.6-6.2 4.7M435.8 331.8c-15.1-16.4-31.8-31.5-49.7-44.9l.6-.8c17.9 13.4 34.7 28.5 49.8 45l-.7.7zM409.1 211.8c-4-.1-7.9-1.5-10.7-4.2-1.9-1.8-2.9-3.8-2.9-5.8 0-2.2 1.6-4.7 4.1-4.9l.1 1.1c-1.8.1-3.1 2.1-3.1 3.8 0 1.7.9 3.5 2.6 5 3.8 3.7 10 4.9 15.4 3.1 5.1-1.7 9.3-6 11.3-11.4l1 .4c-2.2 5.7-6.6 10.2-12 12-1.9.6-3.8.9-5.8.9M384.2 246.9c-3.8-5.4-8.8-10.1-14.5-13.5l.6-.9c5.8 3.5 10.9 8.3 14.8 13.8l-.9.6zM377.1 218.9c-2.4-2-4.5-4.5-6-7.3l.9-.5c1.4 2.6 3.4 5.1 5.8 7l-.7.8zM379 216.2c-2.5-2.4-4.7-5.1-6.6-8l.9-.6c1.8 2.9 4 5.5 6.4 7.8l-.7.8zM426.1 242l-.3-1c11.4-3.5 23.1-6.4 34.7-8.5l.2 1c-11.6 2.2-23.2 5-34.6 8.5M383.5 239.6c-.1-.1-.5-.3-.7-.5-.4-.3-.5-.3-.5-.4-2.7-3-5.8-5.8-9.1-8.2l.6-.9c3.4 2.4 6.5 5.2 9.2 8.3.1 0 .2.2.4.3.7.5.8.6.9.8l-1 .5.2.1m-.4-1.6z"/><path class="st4" d="m384.4 283.7-1-.2c2.7-15.3 2.6-30.7-.2-46l1-.2c2.9 15.4 3 31 .2 46.4"/><path class="st1" d="M545.8 173c10.8-3 17.9-9.9 20.9-19.2 3-9.3 14.2-16.3 29-9 4.4.2 11.7-1.6 14.4 4.2 2.7 5.8-.6 10.4-.9 16-.3 5.6 2.6 11.6 1.3 20.8-.8 6.2-4.7 9.9-1.5 11.7 0 0-4.8 3.7-6.3 3.7l-2.5-6.8-1 7.1s-.3-.9-15.2-4.4c-15.1-3.6-38.2-24.1-38.2-24.1"/><path class="st17" d="M608.2 179.8c.9-12.2-2-16-.9-20.2.5-1.7.5-6.6-3-9.2-2.3-1.7-6 0-8.5-1.2l-1.2 1.8c1.4 4.6 2.7 4.2 3.2 9 .3 3.9-.3 7.9-2.7 11-.9 1.2-2 2.3-3 3.4-1.1 1.2-2.3 2.6-2.6 4.3-.4 2-.2 4.2-1.6 5.9-.7.9-1.7 1.5-2.5 2.4-.6.7-1.1 1.4-1.5 2.3-1 1.9-1.7 3.9-2.3 5.9 15.7 3.7 16.1 4.7 16.1 4.7l1.1-7.7 2.8 7.5c1.6 0 6.9-4.1 6.9-4.1-2.9-1.6-.6-4.7.9-9.4-.3-2.3-1.3-4.3-1.2-6.4"/><path class="st19" d="M557.2 193c.9-6.1 10.2-5 15.3-2.8 5 2.2 9.1 5.9 13 9.5 1.4 1.3 74.3 50 85.3 56.4.1.1.1.3.2.4.2.5.1.8-.2 1.1l-.1.1c-.1.1-.2.1-.2.2-.5 0-.9-.1-1-.1-.9-.2-2.2-1.1-3.1-.7 1.2.6 2.4 1 3.5 2 .2.2.4.4.5.7.1.3-.1.6-.3.9-.7 1.1-1.5 2.2-2.4 3.1-.7.8-1.6 1.5-2.7 1.7-.9.2-1.8-.1-2.7-.4-4.4-1.4-8.4-3.4-12.8-4.8-4.5-1.5-8.9-3.1-13.3-4.8-8.2-3.2-16.2-6.6-24-10.4-3.7-1.8-16.7-8-19.9-9.9-4.3-2.5-8.4-5.3-12.3-8.4-6.2-5-12.7-10-17.4-16.2-3.7-5.3-6.2-11.6-5.4-17.6"/><path class="st20" d="m696.9 295.5 18.7 38.3 12.4 6.7s14 4 14 6.5c0 0-25.9-3.8-34.9-3.9-9-.2-4-7.9-4-7.9L670 295l26.9.5z"/><path class="st19" d="M696.9 295.5 670 295l7.5 9.1c8.1-.2 19.6 3.8 27 6.8l-7.6-15.4z"/><path class="st4" d="M551.5 286.1s36.8-25.1 65.6-39.7c28.8-14.6 42.7-17.2 59.3 6.8 16.6 24 25.5 45.6 25.5 45.6l-41.7-.8s-2.1-1.3-3.7-6.5-6.3-3.8-6.9-8.9c-.6-5.1-3.3-7.2-3.3-7.2s-53 60.3-75.3 59.9c-22.3-.4-31-.6-31-.6l11.5-48.6z"/><path class="st15" d="M645.1 235.7c-7.7 1.2-16.7 5-27.9 10.7-28.8 14.6-65.6 39.7-65.6 39.7l-11.5 48.7s8.8.2 31 .6c22.3.4 75.3-59.9 75.3-59.9s-10.8-25.9-1.3-39.8"/><path class="st9" d="m561.8 317.4-.5-.7 83.1-56.4.2.5s.7 1.9 1.9 2.4c.5.2 1.1.1 1.8-.3l.3-.2 16.8 27.2-.7.4-16.4-26.5c-.7.3-1.4.4-2.1.2-1.2-.4-1.9-1.7-2.2-2.4l-82.2 55.8z"/><path class="st4" d="m561.4 285.4.5 10.6s30.1-7.2 60.8-5.5c30.7 1.6 44.4 19 36.2 37.3-8.2 18.4-35.7 24.1-54.4 23.8-18.7-.3-42.4-.8-67.9-1.3-25.5-.5-44.6-7.5-40.3-37.4 2.4-16.9 11.3-28.5 11.3-28.5l53.8 1z"/><path d="M654.1 335.2c-18.8 8.8-24.6-4.5-24.6-4.5-13.4 7.5-58.6 20.3-71 20.1 17.1.3 32.9.6 46.2.9 15.8.2 38-3.9 49.4-16.5" style="fill:#331452"/><path transform="rotate(-41.83 638.503 322.629)" class="st9" d="M626.3 322.2h24.3v.8h-24.3z"/><path class="st9" d="M630.3 332.6v-.8l19.9-1.1.1.8zM629.8 329.8l-.7-.5c5-6.9 4.8-13.8 4.8-13.9h.8c0 .3.2 7.3-4.9 14.4M500.1 334.5l-.1-.8c6.5-1 12-6.8 12.1-12.6l.2-10-15.5-.3v-.8l16.3.3-.2 10.8c-.1 6.2-6 12.4-12.8 13.4"/><path class="st15" d="m561.4 285.4-53.7-1s-5.3 7-8.8 17.9c9.6 8.2 24.6 1.6 35.4-3.9 8.7-4.4 21.8-5.5 27.5-5.7l-.4-7.3z"/><path class="st9" d="m535.5 310.1-.5-.6c15.1-12 26.8-13.8 26.9-13.8l.1.8c-.1 0-11.6 1.7-26.5 13.6"/><path transform="rotate(-88.946 533.11 289.42) scale(.99997)" class="st9" d="M532.7 260.9h.8V318h-.8z"/><path class="st9" d="m616.4 350.5-.1-.8c23.7-4 35.6-14.8 38.5-22.9 1.2-3.3 1.5-8.7-1.2-14-3.5-6.8-11-11.8-22.3-14.8-26.1-7-82.5 5.2-83.1 5.3l-.6.1.1-.6c.1-.7.2-1.6-.3-2-.8-.5-3 .6-4.3 1.4l-.7.5 1-16.7h.8l-.9 15.1c1.1-.7 3.3-1.8 4.5-1 .6.4.8 1.1.7 2.2 6.1-1.3 58-11.9 82.9-5.2 11.5 3.1 19.1 8.2 22.8 15.2 2.9 5.5 2.5 11.2 1.3 14.6-3 8.5-15.1 19.6-39.1 23.6"/><path class="st4" d="m728 340.4-17.4-16.3-15.6.3s-1 21.6 5.3 22.3c1.1.1 4.2 1 7 .4 1.1-.2-.1-1.6.6-1.6.8 0 1.4.9 2.3.9 11.6.2 31.8.5 31.8.5 0-2.4-14-6.5-14-6.5"/><path transform="rotate(-88.944 678.716 292.146) scale(.99997)" class="st9" d="M678.3 272.7h.8v38.8h-.8z"/><path class="st9" d="m647.5 273.7-.8-.2 2.8-19.6.8.2zM645 267.9c0-.1-1.9-7.9-1.2-15.4l.8.1c-.7 7.4 1.1 15 1.1 15.1l-.7.2zM650.3 274.7l-.5-.7 12.2-10.3.6.7z"/><path style="fill:none;stroke:#873636;stroke-width:.828;stroke-miterlimit:10" d="m605.7 232.3 3.2 9.3"/><path class="st20" d="M594.7 150.9s6.9.8 8.4 9.3c.5 3 1.3 7.1 1.9 11.6l-.7.8s0 2.8-.1 7c-.1 4.3-1.4 10-13.4 9.9L579.5 205l-18.3-5.7s14.1-7.3 18.2-19.7c0 0-3.3-.4-3.8-4.7v-.4c-.1-3.9 7.9-2.3 7.9-2.3s1-3.3 1.9-5c2.4-4.1 11.5-5.4 9.3-16.3"/><path class="st19" d="M579.4 179.6c-1.3 3.8-3.4 7.1-5.9 9.8.5 2.7 1.7 5.6 4.3 5.7 4.5.2 7-3 10.4-2.1l2.7-3.7c-9.6-2.8-11.5-9.7-11.5-9.7"/><path class="st4" d="M594.3 167.1s2.1-3.8 3.8.1M591.8 164.5c-.1-.2 0-.4.1-.5.6-1 1.5-1.7 2.5-2.1 1-.4 1.9-.6 2.8-.2.1 0 .2.1.2.2.2.2.1.5 0 .8-.3.7-1 1-1.6 1.3-.7.4-1.6.7-2.4.9-.5.2-1.1.3-1.6 0 .1-.2.1-.3 0-.4"/><path class="st23" d="M602.5 175.7c-.3.2-.3.5-.5.7-.3.5-.6.8-1.3.9-.5.1-1.1-.1-1.5-.4-.4-.3-.9-.7-1.2-1.1-.1-.1-.3 0-.3.1.1.5.7 1.1 1.1 1.4.5.4 1.1.6 1.7.6.5 0 1.1-.2 1.5-.5.2-.2.3-.3.4-.5.1-.1.2-.3.2-.4 0-.1.1-.3.2-.4.3-.2 0-.6-.3-.4"/><path d="M591.5 171.4c-.6.4-1.1 1-1 1.7.1.3.2.5.4.7.9 1 2.5 1.1 3.9.9 1.5-.2 4.2-2.2 2.1-3.6-1.3-.9-4.3-.4-5.4.3" style="fill:#f28482"/><path d="M579 171.1c-.8.2-1.5.6-2.1 1.1-1 1-1.4 2.7-.9 4 .4 1.4 1.6 2.5 3 2.9 1.4.4 3 .1 4.1-.8.4-.3.7-.6 1-1.1.7-1.3.1-3.4-.6-4.6-.9-1.3-3-1.9-4.5-1.5" style="fill:#a55546"/><path d="M583.9 173.4c-.6-.3-1.2-.5-1.9-.6-.9-.1-2 0-2.7.7-.8.9-.8 2.4.2 3.1 1.8 1.2 3.9.2 4.9-1.5-.1-.6-.3-1.2-.5-1.7" style="fill:#9b473b"/><path class="st23" d="M579.8 173.2v-.1c-.3-.3-.9.2-1.1.4-.5.4-.7 1.2-.5 1.8 0 .1.1.1.1 0 0-.4.2-1.2.6-1.5.1-.1.6-.5.8-.5 0 .1.1 0 .1-.1 0 .1 0 .1 0 0M581.3 175.5c-.2-.5-.5-.9-.9-1.1-.1 0-.2.1-.1.2.3.2.6.7.7 1.1.1.3.2.6.1.9 0 .1-.1.2-.1.4 0 .1.1.2.2.1.5-.4.2-1.1.1-1.6"/><path class="st9" d="M577.3 189c8.6 4.2 11.8 20.4 11 29.7-.9 9.3.2 29-8.2 39.4-8.3 10.4-13 15.1-13.3 20-.3 4.9 1.5 8.9-5.3 8.8s-39.5-.7-49.7-.9c-10.2-.2-12.6-6.1-5.1-11.1 0 0 9-21.4 17-37.7 8-16.3 19-34.2 26.2-40.9 7.2-6.8 17-12.4 27.4-7.3"/><path class="st8" d="M580.1 258.1c7.8-9.8 7.4-27.8 8-37.6l-12-23.1c-8.2-6.2-19 0-25.1 14.9-10 24.6 9.5 49.4 15.7 68.4v-2.6c.5-4.9 5.1-9.6 13.4-20"/><path class="st27" d="M555 259.5c-.5.3-37.8 18.6-37.8 18.6M526.8 279.6l18.1-6.5"/><path class="st1" d="M579.4 179.6s5.2 4.3 9.5 12.4c2.1 3.9 1.6 7.3 7.1 11.3-2.4 1.6-10.6 1.3-17.9-3.7-9.1-6.3-20.9-4.6-24.8.2l-10.2-7.8 5-5.8-8.3 2.8-5.9-11.3s8.1-3.5 14.7-5.5 30.8 7.4 30.8 7.4"/><path class="st0" d="m645.8 168.6-25.2-9.4-7.8 38.1 23.9 10.7"/><path class="st5" d="m645.8 168.6-9.1 39.4-29.7-1.6 8-40.4z"/><path class="st1" d="m640.9 168.2-18.5-5.4-1.9 3.7"/><path class="st20" d="M623.8 191.4s3.1-17.1 5.9-16.6c2.8.5 1.4 12.5 1.4 12.5"/><path class="st20" d="M576.8 251.3c6.6 7.9 14.5 13 22.9 12 14.8-1.8 36.2-55.3 36.2-55.3s14.5-14.2 11.6-17.3c-.7-.8-1.7-.4-2.7.4 1.1-1.8 1.7-3.7.7-4.7-.9-.9-2.1-.5-3.2.4.3-.5.6-1.1.9-1.7 1-2.2 1.2-4.7.3-6.8-.9-2.2-3.5-3.7-5.7-3-1 .3-1.9 1.2-1.7 2.3.2.9 1.2 1.4 1.7 2.1.7.8.8 2 .6 3-.2 1-.8 1.9-1.4 2.8-.7.9-1.6 1.7-2.7 2.2-1.1.4-2.2.3-3.2-.4l-7.3 4.1-26.2 34.1c-.3-.5-16.3-25.4-30.2-28.7-6.4-1.5-22.2 28.2-10.7 32.9 5 2.1 13.2 13.2 20.1 21.6"/><path class="st28" d="M641.2 196.3c.1-.1 1.3-1.4 2.6-3.1 1.8-2.3 2.7-4.2 2.6-5.6 0-.7-.2-1.3-.7-1.7l-.7.7c.3.2.4.6.4 1 0 2.3-3.6 6.5-5 7.9l.8.8zM639.2 191.4c1.4-1.4 3.3-3.6 4.4-6.1 1.1-2.5 1.2-5 .3-7.2l-.9.4c.8 1.9.7 4.2-.3 6.4-.8 1.8-2.3 3.9-4.2 5.8l.7.7zM597.4 263.4c.1-2.7.6-5.8 1.4-5.8.1 0 .2 0 .4.2.9.7 1.4 3.6 1.5 5.2l1-.1c0-.5-.3-4.7-1.8-5.9-.3-.3-.7-.4-1.1-.4-1 .1-1.7 1.3-2.1 3.6-.3 1.6-.3 3.1-.3 3.2h1z"/><path class="st23" d="M605.5 171c0-.5-.1-1.1-.3-1.6-.3-.9-.4-1.8-.6-2.7-.3-1-.5-2-.7-3 0-.2-.3-.2-.3 0 0 .8.3 1.6.4 2.4.1.7.3 1.4.4 2.1.2.8.3 1.6.4 2.3.1.4.2 1 0 1.4-.3.4-1 .5-1.5.6-.4 0-.4.7 0 .6.8-.1 1.6-.3 2-1 .2-.4.2-.7.2-1.1"/></svg>