<svg version="1.1" id="Layer_1" xmlns="http://www.w3.org/2000/svg" xmlns:xlink="http://www.w3.org/1999/xlink" x="0" y="0" viewBox="0 0 86 86" style="enable-background:new 0 0 86 86" xml:space="preserve"><style>.st2{fill:#143f4f}.st3{fill:#d9cea8}.st4{fill:#1b4e61}.st5{fill:#f9f8dc}.st7{fill:#e97951}.st8{fill:#c99745}.st9{fill:#fcc14b}.st11{fill:#92a5ff}.st12{fill:#c76847}.st14{fill:#f0a98f}.st16{fill:#151c2c}.st18{fill:#dd4f31}.st19{fill:#faf9e4}.st21{fill:#3b53b5}.st22{fill:#357e8f}.st26{fill:#102f3a}.st28{fill:#163540}.st31{fill:#102f3b}.st37{fill:#c99746}.st43{fill:#85755c}</style><defs><circle id="SVGID_1_" cx="43" cy="43" r="43"/></defs><clipPath id="SVGID_2_"><use xlink:href="#SVGID_1_" style="overflow:visible"/></clipPath><path style="clip-path:url(#SVGID_2_);fill:#b3eaff" d="M-.1-.1h86.2v86.2H-.1z"/><defs><circle id="SVGID_3_" cx="43" cy="43" r="43"/></defs><clipPath id="SVGID_4_"><use xlink:href="#SVGID_3_" style="overflow:visible"/></clipPath><g style="clip-path:url(#SVGID_4_)"><path class="st2" d="M56.7 48.1c.1-.2.2-.3.3-.4 1 .1 1.6 1 2.2 1.7 1 1.3 2.2 2.5 3.3 3.6.7.8 1.5 1.4 2 2.3-.2 0-.4-.1-.6-.2-1-.5-2.1-1.1-3-1.8-.9-.6-1.9-1.2-3-1.3-.2 1.3-.5 2.5-.8 3.7-.3 1.7-.6 3.4-1 5.1-.2.7-.4 1.3-.5 2 0-.1-.1-.2-.1-.4.1-.6.2-1.3.4-1.9.3-1.6.5-3.2.6-4.9.1-1.2.3-2.5.3-3.7.1-1.3-.1-2.5-.1-3.8zM28.7 48.7c.3-.3.6-.4 1-.6.3.1.5.3.5.6-.3.4-.7.8-.8 1.4-1.3 3.4-2.5 7-2.5 10.7-.1 1.1.1 2.3.1 3.4.1 1.5.4 3 .6 4.6-.1-.1-.3-.2-.3-.4-.2-1.1-.5-2.1-.6-3.2-.1-.8-.3-1.6-.2-2.4 0-1.3-.1-2.7 0-4s.4-2.6.7-3.8c.3-1.3.6-2.6 1.1-3.7.2-.7.1-1.5-.1-2.2.2-.2.4-.2.5-.4z"/><path class="st3" d="M53.3 50.7c1.1-.9 2.3-1.7 3.4-2.6 0 1.3.2 2.5.1 3.8-.1 1.2-.2 2.5-.3 3.7-.1 1.6-.3 3.3-.6 4.9-.1-.1-.1-.3-.1-.5.1-1.3 0-2.6 0-3.9 0-.8 0-1.7-.1-2.5-1.1.5-2.3 1-3.5 1.5s-2.4 1.1-3.6 1.7c-.5.3-1.2.4-1.7.7-.8.5-1.8.8-2.7 1.1-.6.2-1.2.2-1.7.3-.3-.3-.6-.5-.9-.8-.4.2-.7.4-1.1.6-.6-.1-1.1-.2-1.7-.3-1.1-.3-2.1-.7-3.1-1.2-1.7-.8-3.1-2-4.6-3.1-.5-.3-.8-.8-1.2-1.2-.7.7-1.1 1.6-1.7 2.5-.1.2-.2.4-.1.5.6 1.1 1.3 2.1 1.9 3.2.8 1.3 1.7 2.5 2.7 3.7.2.2.4.6.7.6.5-.2.9-.5 1.4-.8.9-.5 1.7-1.2 2.6-1.7 0 .2.1.4.2.6.5 1.1 1.1 2.2 1.8 3.2-1 1.8-1.6 3.8-2.5 5.7 0-.6.2-1.1.4-1.7.4-1.2.8-2.5 1.3-3.7-.4-.5-.8-1.1-1.1-1.7-1.4.3-2.8.7-4.2.5-.4-.2-.6-.5-.9-.8l-2.1-2.7c-.5-.7-1-1.5-1.5-2.3-.3 1.3-.7 2.7-.8 4.1 0 .7-.2 1.4-.2 2.1 0 1.4-.1 2.9 0 4.3 0 .7.2 1.4.2 2.1-.2-.6-.3-1.2-.4-1.7-.2-1.5-.5-3-.6-4.6-.1-1.1-.2-2.3-.1-3.4 0-3.7 1.1-7.3 2.5-10.7.1-.5.5-1 .8-1.4.7 1 1.5 1.9 2.4 2.6.8.9 1.7 1.8 2.8 2.3.5.3 1.1.5 1.6.8 1.7.9 3.7 1.1 5.6 1 1.5-.1 3.1-.5 4.4-1.3.8-.4 1.6-.8 2.3-1.2 1.4-.8 2.8-1.4 4-2.3z"/><path class="st4" d="M23.5 52.5c1.5-1.2 3-2.5 4.7-3.5.2.7.3 1.5.1 2.2-.5 1.2-.8 2.5-1.1 3.7-.3 1.3-.5 2.6-.7 3.8-.1 1.3 0 2.7 0 4-.1.8.1 1.6.2 2.4.1 1.1.4 2.1.6 3.2 0 .2.2.3.3.4.1.6.3 1.2.4 1.7a31 31 0 0 0 2.1 5.8c.4.9.9 1.8 1.4 2.6.7 1.2 1.4 2.3 2.2 3.4.9 1.2 1.7 2.5 2.6 3.7.8 1.1 1.7 2.2 2.5 3.2.7-.7 1.5-1.4 2.2-2 .8-.6 1.5-1.4 2.3-2.1.5-.5 1-.9 1.3-1.5.5-.5 1-1 1.4-1.6.8-1 1.6-2 2.3-3 1-1.5 1.9-3.1 2.8-4.6.8-1.2 1.3-2.6 1.9-3.9.3-.6.5-1.2.7-1.8.3-.9.6-1.9.8-2.8.2-1.2.6-2.3.8-3.5 0 .1.1.2.1.4.2-.7.3-1.3.5-2 .4-1.7.6-3.4 1-5.1.3-1.2.6-2.5.8-3.7 1.1.1 2.1.7 3 1.3.9.7 2 1.3 3 1.8.2.1.4.2.6.2.7.9 1 2.1 1 3.2-.4 1.7-.2 3.5-.5 5.2-.3 2-.8 4-1.6 5.8-.6 1.6-1.4 3.1-2.3 4.6-.8 1.1-1.6 2.2-2.5 3.1-.6.5-1 1.2-1.6 1.6-1.3 1.2-2.7 2.4-4.2 3.3-2.6 1.8-5.4 3.3-8.1 5.1-.9.6-1.7 1.1-2.5 1.8-.6.5-1.1 1-1.7 1.5-1.2 1.4-2.4 2.8-3.5 4.3-.5.7-1 1.5-1.5 2.2.2-1.2.7-2.4 1.1-3.6.5-1.4 1.3-2.7 2.2-4-.1 0-.2-.1-.3-.1-.4.4-.6.9-.9 1.3-.7-.6-1.3-1.2-2-1.8-1-.9-2.1-1.8-3.1-2.8-1.5-1.4-3.1-2.6-4.5-4.1-3.6-3.5-6.9-7.4-8.7-12.1-.4-1-.7-2-1-3.1-.7-2.4-1.3-4.8-1.5-7.3 0-.5 0-1-.1-1.5.3-1.1 1.2-1.9 2.1-2.6.9-.8 1.9-1.4 2.8-2 1 0 1.6-.3 2.1-.7z"/><path class="st5" d="M28.2 55.2c.5-.8 1-1.7 1.7-2.5.4.4.7.9 1.2 1.2 1.4 1.2 2.9 2.3 4.6 3.1 1 .5 2 1 3.1 1.2.6.2 1.1.2 1.7.3-1.1.7-2.1 1.4-3.1 2.1-.9.6-1.7 1.2-2.6 1.7-.5.3-.9.6-1.4.8-.3-.1-.5-.4-.7-.6-1-1.2-1.9-2.4-2.7-3.7-.6-1.1-1.3-2.1-1.9-3.2-.1 0 0-.2.1-.4zM52.3 55.1c1.1-.5 2.3-.9 3.5-1.5.1.8.1 1.7.1 2.5 0 1.3.1 2.6 0 3.9 0 .2 0 .3.1.5-.6.3-1.2.7-1.8 1-1.5.7-2.9 1.5-4.3 2.2-.6.3-1.2.5-1.8.8-.3-.3-.6-.7-.9-1-.8-.7-1.5-1.6-2.3-2.4-.8-.8-1.5-1.6-2.3-2.2.6 0 1.2-.1 1.7-.3.9-.3 1.9-.6 2.7-1.1.5-.3 1.1-.4 1.7-.7 1.1-.6 2.3-1.2 3.6-1.7z"/><path class="st5" d="M28.8 57.9c.5.8.9 1.6 1.5 2.3.7.9 1.3 1.8 2.1 2.7.3.3.5.6.9.8 1.4.2 2.8-.2 4.2-.5.3.6.7 1.2 1.1 1.7-.5 1.2-.9 2.5-1.3 3.7-.2.6-.4 1.1-.4 1.7-.3.7-.5 1.4-.8 2.1-.6 1.3-.8 2.6-1.3 3.9-.4 1.5-.8 3-1 4.5-.1.5-.2 1-.1 1.5-.7-1.1-1.5-2.2-2.2-3.4-.6-.8-1-1.7-1.4-2.6-.9-1.8-1.6-3.8-2.1-5.8 0-.7-.2-1.4-.2-2.1-.1-1.4 0-2.9 0-4.3 0-.7.1-1.4.2-2.1.2-1.4.5-2.7.8-4.1z"/><path d="M40.5 58.7c.4-.2.7-.4 1.1-.6.3.3.6.5.9.8.8.7 1.6 1.5 2.3 2.2-.7 1.2-1.7 2.3-2.3 3.5.2.7.3 1.5.5 2.2.1 1.5.3 3 .5 4.5.2 2.5.5 5 .9 7.5.1.8.2 1.6.3 2.3.1.8.1 1.6.2 2.4-.4.6-.9 1-1.3 1.5-.8.7-1.4 1.5-2.3 2.1-.8.7-1.5 1.3-2.2 2-.9-1.1-1.8-2.1-2.5-3.2-.9-1.2-1.8-2.4-2.6-3.7-.1-.5 0-1 .1-1.5.2-1.5.6-3 1-4.5.5-1.3.7-2.6 1.3-3.9.3-.7.5-1.4.8-2.1.8-1.9 1.5-3.9 2.5-5.7-.7-1-1.3-2.1-1.8-3.2-.1-.2-.1-.4-.2-.6.8-.6 1.8-1.4 2.8-2z" style="fill:#039be5"/><path class="st2" d="M16.8 58.4c0-.1.1-.2.1-.2.2.5.1 1 .1 1.5.2 2.5.8 4.9 1.5 7.3.3 1 .6 2.1 1 3.1 1.9 4.7 5.1 8.6 8.7 12.1 1.4 1.5 3 2.8 4.5 4.1 1 1 2 1.9 3.1 2.8.6.6 1.3 1.2 2 1.8.3-.4.5-.9.9-1.3.1 0 .2.1.3.1-.8 1.3-1.7 2.5-2.2 4-.4 1.2-.9 2.4-1.1 3.6.5-.7 1-1.5 1.5-2.2 1.1-1.5 2.3-2.9 3.5-4.3.5-.5 1.1-1 1.7-1.5.8-.7 1.6-1.2 2.5-1.8 2.7-1.7 5.5-3.2 8.1-5.1 1.5-1 2.9-2.1 4.2-3.3.6-.5 1-1.1 1.6-1.6.9-1 1.7-2.1 2.5-3.1.9-1.4 1.7-3 2.3-4.6.8-1.9 1.3-3.8 1.6-5.8.3-1.7.1-3.5.5-5.2.1.1.2.2.4.2l-.3 1.2c0 1.2.1 2.5 0 3.7-.2 1-.3 2-.6 3-.5 1.6-.9 3.1-1.5 4.7-1.2 3.4-3 6.7-5.4 9.5-1.1 1.3-2.3 2.5-3.6 3.5-1 .8-2.2 1.5-3.3 2.1s-2.2 1.1-3.3 1.6c-1.5.8-3 1.7-4.5 2.7-.8.5-1.5 1.2-2.2 1.9-1.3 1.2-2.3 2.7-3.1 4.2-.1.2-.3.4-.3.7.1.1.3.1.4.1 2 .2 3.9.6 5.8 1 2.9.7 5.9 1.4 8.9 1.8 1.6.2 3.1.3 4.7.4.7 0 1.3-.1 2-.2s1.4-.2 2-.7c2.1-1.7 3.3-4.3 5-6.4.1-.2.4-.1.3.1-.2.8-.5 1.6-.5 2.4.3-.3.6-.6.8-1 .8-1 1.9-1.9 3-2.6.1-.1.3-.1.5 0-.1.6-.5 1-.8 1.5-1.1 1.3-2.2 2.6-3.1 4.1-.3.5-.5.9-.8 1.4-.2.3-.1.7-.1 1 .8-.4 1.6-.9 2.5-1 .6-.1 1.2-.3 1.7 0 1.3.6 2.3 1.4 3.2 2.5.5.6.7 1.3 1 2s.1 1.6-.4 2.2c-.7.7-1.7 1.1-2.7 1.4-.6.2-1.1-.1-1.7-.3-.3-.1-.3-.4-.6-.5-1.8-.7-3.6-1.3-5.5-1.6-.7-.1-1.5-.4-2.2-.5-.9-.2-1.8-.5-2.7-.7-1.4-.4-2.9-.6-4.4-1-1.2-.3-2.5-.5-3.7-.7-3.4-.6-6.8-.8-10.2-1.2-1.7-.2-3.4-.3-5.1-.3-.8 0-1.5-.1-2.3 0-1.2.1-2.4 0-3.7.1-2 .1-4 .4-6 .7-1.9.3-3.8.8-5.7 1.2-.2 0-.5.1-.7.3-.6.5-1.1 1.1-1.5 1.8-.5.8-1 1.7-1.2 2.6 1.3.4 2.7.6 4 1 2.2.7 4.3 1.4 6.4 2.3 2.7 1.1 5.2 2.4 7.7 3.7 1 .5 2 1.1 2.9 1.6.9.3 1.7.9 2.6 1.3.9.5 1.8 1 2.6 1.5 1.7 1.1 3.4 2.3 5 3.5 1.8 1.3 3.4 2.7 5.3 3.8 3.5 2.2 7.2 4.4 11.2 5.3.9.2 1.8.4 2.8.5 1.2.1 2.3.4 3.5.4 1.8.1 3.7-.1 5.5-.6 1-.3 2.1-.5 3.1-1 .6-.3 1.2-.5 1.8-.7 1.9-.8 3.4-2.2 5-3.5.6-.6 1.2-1.3 1.9-1.7.2 1.2.4 2.5.5 3.7.2 1.2.3 2.5.4 3.7-.7.2-1.2.6-1.9.9-1.8.9-3.7 1.4-5.6 1.8l-2.1.6c-2.6.9-5.4 1.3-8.2 1.4-1.1.1-2.3.1-3.4 0-2.5-.1-5-.4-7.4-1-.3 0-.6-.2-.9 0-1.7 1-3.5 1.6-5.3 2.3-2.2.8-4.4 1.3-6.6 1.8-2.6.6-5.2 1.1-7.8 1.6-2.5.5-5.1.7-7.7.9-.1 0-.3 0-.3.2.1 1 .2 1.9.3 2.9.2 1.3.4 2.6.6 3.8.2.9.5 1.8.7 2.7.3 1.4.6 2.8.6 4.3-.1 1.3-.2 2.6-.6 3.7-.4 1.1-.8 2.2-1.1 3.3-.3.9-.6 1.7-.8 2.6-.2 1-.4 2.1-.4 3.2-.1.9-.2 1.9-.2 2.8.1 1.5.1 3 .5 4.4.3 1 .6 2 .7 3 .2 1 .2 2 .4 2.9-.3.8-.4 1.7-.7 2.6-.4 1.3-.8 2.6-1.2 4-.1.4-.2.8-.4 1.2l-1.2 2.7c-.4 1-.9 2-1.7 2.7 0-.5.2-.9.3-1.3.2-1.2.6-2.3.9-3.5.6-2.4.6-4.8.9-7.2.2-1.7.3-3.4.2-5.1-.1-.6-.3-1.2-.3-1.9-.2-1.1-.1-2.3-.1-3.4 0-1.3.2-2.7.4-4 .1-.8 0-1.7 0-2.5.1-2.2-.6-4.3-.9-6.4-.5-3-.6-6-.4-9 .1-.8.1-1.6.2-2.3.1-2.1-.1-4.3-1.5-6-1.6.1-3.2.1-4.8.1-1.2 0-2.3 0-3.5-.1-2.9-.2-5.8-.6-8.6-1.2-1.6-.3-3.2-.9-4.8-1.3-1.2-.3-2.4-.6-3.6-1-1.5-.4-3-1-4.5-1.3-.9-.2-1.9-.2-2.8-.2-1.6.1-3.1.5-4.6 1.1.3-2.3.7-4.5 1-6.7.2-1 .3-2 .6-3 .3-1.2.6-2.5.9-3.7.1-.4.2-.7.2-1.1h.5c.7 1 1.6 1.9 2.4 2.8.4.4.9.8 1.3 1.2.5.6 1.1.9 1.6 1.3.6.4 1.2.9 1.9 1.2.9.4 1.6 1 2.5 1.4.7.4 1.5.5 2.1 1 .7.4 1.5.6 2.3.9 1.5.4 2.9.9 4.4 1.2.9.2 1.8.2 2.7.4 2.7.6 5.6.7 8.3 1 1.3.2 2.6.1 3.8.2 2.9 0 5.8.4 8.7.1 2.6-.1 5.1-.7 7.6-1.3 1.9-.3 3.7-.9 5.5-1.5-.1-.8-.4-1.6-.6-2.4-.4-1.1-.8-2.1-1.3-3.1-.9-1.7-2.1-3.2-3.3-4.8-.5-.6-.9-1.2-1.5-1.6-.5-.4-.9-.9-1.5-1.2l-2.4-1.8c-.8-.7-1.8-1.2-2.7-1.8-.9-.6-1.8-1.2-2.8-1.8-1.7-1-3.4-2-5.1-2.8-1.1-.6-2.2-1.2-3.3-1.7-.7-.3-1.4-.7-2.2-1-.8-.3-1.6-.7-2.4-1.1-2.2-.8-4.3-1.6-6.6-2-1.1-.2-2.1-.5-3.2-.7-.6-.1-1.2-.1-1.8-.2-.2 0-.4-.2-.4-.4 0-.4.4-.5.7-.7.7-.3 1.6-.3 2.3-.3s1.4 0 2 .2c.7.2 1.5.2 2.3.2.3-1 .4-2 .6-3 .4-2.7.4-5.3.6-8 .1-.7-.1-1.3-.2-2-.2-1-.4-2-.3-3.1 0-.2.2-.5.4-.4.5.1.6.6.7 1 .3 1.2.5 2.4.7 3.7.2 1 .7 1.9 1 2.9.3 1.2.8 2.4 1.1 3.6 1.1-.3 2-.8 3.1-1.1 1.8-.7 3.7-1 5.6-1.3 2.1-.4 4.2-.5 6.4-.7.8-.1 1.6 0 2.3-.2.3 0 .3-.4.4-.6.3-1.3.7-2.5 1.1-3.8.1-.3.1-.7.4-1-.2-.3-.5-.5-.8-.7-1.6-1.3-3.2-2.5-4.8-3.7-.8-.6-1.5-1.2-2.2-1.9-1.7-1.4-3.2-2.9-4.5-4.6-1.2-1.4-2.2-3-3.1-4.7-.8-1.4-1.6-2.8-2.2-4.3s-1-3.1-1.3-4.7-.5-3.2-.5-4.8v-1.6c.5-.6.6-1.5.6-2.3z"/><path class="st7" d="M72.4 105.6c0-.2-.1-.4-.3-.5-.2-.1-.4-.1-.6-.1-.7 0-1.3.3-2 .4.6-.3 1.2-.5 1.7-.8s1-.6 1.1-1.1c-.3.1-.6.2-.9.2 0-.3.1-.5.1-.7-.4 0-.8.1-1.2.1.5-.2 1.1-.4 1.5-.8.1-.1.1-.3.2-.4-.2.1-.4.3-.6.3s-.3-.1-.4-.2c.1-.2.2-.5.3-.7-1.3 0-2.4.7-3.6 1.1.6-.5 1.3-.7 1.9-1.2.2-.2.2-.4.1-.6-.2.4-.6.7-1.1.5 0-.2.1-.4.1-.6h-.2c-1.5.4-2.8 1.1-4 2-1 .7-2.2 1.5-2.9 2.5.2.1 5.1 1.7 7.7 2.4.2.1.5-.1.7-.1.8-.3 1.7-.6 2.2-1.3.2-.3.2-.3.2-.4z"/><path class="st4" d="M15.1 59.5c.6-.4 1.2-.6 1.7-1.1 0 .9-.1 1.7-.1 2.5v1.6c0 1.6.2 3.2.5 4.8.4 1.6.7 3.1 1.3 4.7.6 1.5 1.4 2.9 2.2 4.3.9 1.7 1.9 3.3 3.1 4.7 1.3 1.7 2.8 3.3 4.5 4.6.7.6 1.4 1.3 2.2 1.9 1.6 1.3 3.2 2.5 4.8 3.7.3.2.6.4.8.7-.2.3-.3.6-.4 1-.4 1.2-.8 2.5-1.1 3.8-.1.2-.1.6-.4.6-.8.2-1.6.2-2.3.2-2.1.2-4.3.4-6.4.7-1.9.2-3.8.6-5.6 1.3-1 .4-2 .9-3.1 1.1-.3-1.2-.8-2.4-1.1-3.6-.3-1-.7-1.9-1-2.9-.2-1.2-.4-2.5-.7-3.7-.1-.4-.3-.9-.7-1-.2-.1-.4.2-.4.4-.1 1 .1 2.1.3 3.1.1.7.3 1.3.2 2-.2 2.7-.3 5.4-.6 8-.2 1-.3 2-.6 3-.8-.1-1.5 0-2.3-.2-.7-.2-1.4-.2-2-.2-.8-.1-1.6 0-2.3.3-.3.1-.7.3-.7.7 0 .2.2.4.4.4.6.1 1.2.1 1.8.2 1.1.2 2.1.5 3.2.7 2.3.4 4.4 1.2 6.6 2 .8.4 1.6.7 2.4 1.1.7.3 1.4.7 2.2 1 1.1.5 2.2 1 3.3 1.7 1.7.9 3.4 1.8 5.1 2.8.9.6 1.8 1.2 2.8 1.8.9.6 1.9 1.1 2.7 1.8l2.4 1.8c.6.3 1 .8 1.5 1.2.6.5 1 1.1 1.5 1.6 1.2 1.5 2.3 3.1 3.3 4.8.5 1 .9 2.1 1.3 3.1.2.8.5 1.6.6 2.4-1.8.6-3.6 1.2-5.5 1.5-2.5.5-5 1.2-7.6 1.3-2.9.3-5.8-.2-8.7-.1-1.3-.1-2.6-.1-3.8-.2-2.8-.3-5.6-.4-8.3-1-.9-.2-1.8-.3-2.7-.4-1.5-.3-3-.8-4.4-1.2-.8-.3-1.6-.4-2.3-.9-.7-.4-1.4-.6-2.1-1-.9-.4-1.6-1-2.5-1.4-.7-.3-1.3-.8-1.9-1.2s-1.2-.8-1.6-1.3-.9-.8-1.3-1.2c-.8-.9-1.7-1.8-2.4-2.8h-.5c0-.4-.2-.7-.4-1-.7-1.1-1-2.3-1.6-3.4s-1.2-2.2-1.5-3.4c-.5-1.6-.9-3.2-1.2-4.9-.4-2.2-.1-4.4-.1-6.7 0-1.3.1-2.6.3-3.8.1-1.5.4-2.9.5-4.4.3-2.6 1-5.1 1.8-7.6.6-1.9 1.5-3.6 2.4-5.4.8-1.6 1.9-3.2 2.9-4.7 1.2-1.7 2.3-3.4 3.7-5 .7-.9 1.5-1.7 2.3-2.6 1.2-1.4 2.6-2.5 3.9-3.7C5 67 6.8 65.8 8.5 64.5c.9-.7 1.8-1.4 2.7-2 1-1.3 2.4-2.2 3.9-3z"/><path class="st4" d="M66 58.8c.5.4 1 .8 1.6 1 2.4 1.2 4.8 2.6 7 4.3C80 68.7 84.7 74.8 87 78.9c1 1.7 1.6 3.5 2.3 5.3 2.4 5.6 3 9.1 3.6 15.3.4 3.6.1 7.3-.8 10.8-.8 3.2-1.7 6.5-3.4 9.4-.9 1.7-1.9 3.5-3 5.1-.7.5-1.3 1.2-1.9 1.7-1.5 1.3-3.1 2.6-5 3.5-4.6 2-7.5 2.4-10.4 2.3-1.2 0-2.4-.2-3.5-.4-9.5-.9-19.1-9.8-24.4-13.1-.7-.4-3.8-2.3-5.2-2.8-3-1.6-7.2-3.9-10.7-5.3-4.8-2.1-9.7-3.1-10.4-3.3.2-.9.7-1.8 1.2-2.6.4-.7 1-1.2 1.5-1.8.2-.2.4-.3.7-.3l5.7-1.2c6.2-1 8-.7 9.7-.8 2.3-.2 15.1.8 21.3 2.2 1.5.3 2.9.6 4.4 1 .9.2 12.2 3.8 12.7 3.6 1-.3 2-.7 2.7-1.4.5-.6.7-1.5.4-2.2-.3-.7-.5-1.4-1-2-.9-1.1-2-1.9-3.2-2.5-.5-.3-1.2-.1-1.7 0-.9.2-1.6.7-2.5 1 0-1-.1-.6.9-2.4 1.5-2.6 3.7-4.3 3.9-5.5-.2 0-.4-.1-.5 0-2.6 1.8-3.2 3.1-3.8 3.6 0-.8.3-1.6.5-2.4.1-.2-.3-.3-.3-.1-1.7 2.1-2.8 4.7-5 6.4-.5.5-1.3.6-2 .7s-1.3.2-2 .2c-5.2-.3-8.5-.9-13.6-2.2-5.5-1.2-6-.9-6.3-1.1.1-.5 1.7-3.3 3.4-4.9.7-.7 1.4-1.3 2.2-1.9 1.5-1 2.9-1.9 4.5-2.7 1.8-.8 5-2.5 6.6-3.7 3.7-2.8 7-7.4 9-13 .6-1.5 1-3.1 1.5-4.7.3-1 .4-2 .6-3 .1-1.2 0-2.5 0-3.7.1-.4.4-1.2.3-1.2z"/><path class="st3" d="M54.1 61.5c.6-.3 1.2-.7 1.8-1-.1.6-.2 1.3-.4 1.9-.2 1.2-.5 2.3-.8 3.5-.2 1-.5 1.9-.8 2.8-.2.6-.4 1.2-.7 1.8-.6 1.3-1.1 2.7-1.9 3.9-.9 1.6-1.8 3.1-2.8 4.6 0-.2.1-.3.1-.5 1-2.1 1.9-4.2 2.8-6.3.6-2 1.2-3.9 1.6-5.9.2-1.4.6-2.7.6-4.1-.7.3-1.4.7-2.1 1-.9.4-1.8.9-2.7 1.3-.4.2-.9.5-1.3.3-1.1-.2-2-.9-3-1.4-.2.1-.3.3-.4.4l-1.2 1.5c-.1.5.1 1 0 1.4-.2-.7-.2-1.5-.5-2.2.6-1.2 1.6-2.3 2.3-3.5.8.8 1.5 1.6 2.3 2.4.3.3.6.6.9 1 .6-.3 1.2-.6 1.8-.8 1.6-.6 2.9-1.5 4.4-2.1z"/><path class="st5" d="M51.6 63.2c.7-.3 1.4-.7 2.1-1 0 1.4-.4 2.8-.6 4.1-.3 2-.9 4-1.6 5.9-.9 2.1-1.8 4.2-2.8 6.3-.1.1-.1.3-.1.5-.7 1-1.5 2-2.3 3-.4.6-1 1-1.4 1.6-.1-.8 0-1.6-.2-2.4-.1-.8-.2-1.6-.3-2.3-.5-2.5-.8-5-.9-7.5-.1-1.5-.4-3-.5-4.5.1-.5-.1-1 0-1.4.4-.5.8-.9 1.2-1.5.1-.1.2-.4.4-.4 1 .5 1.9 1.2 3 1.4.5.1.9-.1 1.3-.3.8-.6 1.7-1.1 2.7-1.5z"/><path class="st4" d="M84.8 133.2c.6-.3 1.2-.7 1.9-.9.3 2.8.7 5.7.8 8.5.1 3.2.1 6.3.1 9.5 0 1.4.1 2.9.2 4.3.1 1.7.1 3.4.1 5.1 0 1 .1 1.9.1 2.9 0 1.5 0 3.1.1 4.6 0 1.4.1 2.9 0 4.3-.1 1.1-.1 2.2-.3 3.3-.5 2.8-.8 5.6-1.7 8.2-.3 1-.6 2-1.1 3s-.9 2.1-1.5 3c-.2.4-.4.8-.8 1-.6.3-1.1.4-1.7.7-.2.1-.5.2-.7.3-.7.4-1.5.6-2.3.9-.8.3-1.6.6-2.4 1-2 .6-3.9 1.1-5.9 1.7-1.4.4-2.8.7-4.3 1.1-2.6.6-5.3 1-7.9 1.6-1.2.2-2.5.3-3.7.5-1.3.3-2.7.4-4.1.5-2.6.1-5.2.2-7.8 0-1 0-2-.3-3-.3-1.2-.3-2.4-.6-3.4-1.2-.8-.7-1.4-1.5-1.9-2.4-.4-.6-.6-1.3-.9-2-.5-1.1-.7-2.3-1.1-3.4-.3-1.2-.6-2.3-.9-3.5-.2-.9-.4-1.9-.6-2.8-.2-1-.2-2-.4-2.9-.1-1-.4-2-.7-3-.5-1.4-.4-2.9-.5-4.4 0-1 .1-1.9.2-2.8.1-1.1.2-2.1.4-3.2.2-.9.5-1.7.8-2.6.4-1.1.7-2.2 1.1-3.3.5-1.2.5-2.5.6-3.7 0-1.4-.3-2.9-.6-4.3-.2-.9-.5-1.8-.7-2.7-.2-1.3-.5-2.6-.6-3.8-.1-1-.3-1.9-.3-2.9 0-.2.2-.2.3-.2 2.6-.2 5.2-.4 7.7-.9 2.6-.5 5.2-1 7.8-1.6 2.2-.6 4.5-1 6.6-1.8 1.8-.7 3.6-1.4 5.3-2.3.3-.2.6 0 .9 0 2.4.6 4.9.9 7.4 1 1.1.1 2.3.1 3.4 0 2.8-.1 5.6-.5 8.2-1.4.7-.3 1.4-.5 2.1-.6 2-.6 3.9-1.2 5.7-2.1zM-12.7 139.2c1.5-.6 3-1 4.6-1.1.9.1 1.9 0 2.8.2 1.5.3 3 .9 4.5 1.3 1.2.4 2.4.7 3.6 1 1.6.4 3.2.9 4.8 1.3 2.8.7 5.7 1 8.6 1.2 1.2.1 2.3.1 3.5.1 1.6 0 3.2 0 4.8-.1 1.3 1.7 1.6 3.9 1.5 6-.1.8-.1 1.5-.2 2.3-.1 3 0 6 .4 9 .4 2.1 1 4.2.9 6.4 0 .8.2 1.7 0 2.5-.2 1.3-.3 2.6-.4 4 0 1.1-.1 2.3.1 3.4 0 .6.3 1.2.3 1.9.1 1.7 0 3.4-.2 5.1-.3 2.4-.4 4.8-.9 7.2-.2 1.2-.6 2.3-.9 3.5-.1.4-.3.9-.3 1.3-.6.5-1.3.9-2 1.2-.5.2-1.1.4-1.6.6-1 .4-2.1.4-3.2.6-1.5.2-3 .3-4.5.4-2.6.2-5.3.1-7.9 0-3.7-.4-7.4-1.1-11-2-2.3-.6-4.4-1.6-6.5-2.6-.6-.4-1.1-.9-1.2-1.5-.3-1.6-.6-3.3-.8-4.9-.1-1.4-.2-2.7-.4-4.1-.2-1.3-.3-2.6-.5-3.9-.2-1-.1-2-.2-3-.2-3.2-.1-6.5-.1-9.7 0-.5-.1-1-.1-1.5-.1-.9 0-1.8.1-2.7v-2.4c.2-2.4.1-4.9.3-7.3.2-1.7.3-3.4.5-5.2.6-2.9 1.1-5.7 1.6-8.5z"/><path class="st3" d="M30.1 182.6c.2.9.4 1.9.6 2.8.3 1.2.6 2.3.9 3.5.3 1.1.6 2.3 1.1 3.4.3.7.5 1.4.9 2 .5.9 1.1 1.7 1.9 2.4 1 .7 2.2 1 3.4 1.2 1 .1 2 .3 3 .3 2.6.2 5.2.1 7.8 0 1.4-.1 2.7-.3 4.1-.5 1.2-.2 2.5-.3 3.7-.5 2.6-.6 5.3-.9 7.9-1.6 1.4-.4 2.9-.7 4.3-1.1 2-.6 3.9-1.2 5.9-1.7-.8.6-1.7 1.2-2.5 1.9-.6.6-1.5.9-2 1.6l-.4.4c-.3-.1-.7 0-1.1.1-2.3.8-4.8 1.2-7.2 1.9-1.3.3-2.5.6-3.7.9-1 .2-1.9.5-2.9.7s-2 .6-3 .9c-2.5.6-5 1.2-7.6 1.6-1.4.2-2.8.5-4.2.5-1.2 0-2.5 0-3.7-.2-1-.2-2-.5-2.8-1-.6-.4-1-.9-1.4-1.4-.7-1-1-2.1-1.4-3.3-.4-1.4-.6-2.9-.7-4.3-.1 1.3 0 2.5 0 3.8-.1 3.4 0 6.7-.1 10.1-.1 2.8-.1 5.6-.1 8.4 0 .5 0 1-.1 1.4-.1.1-.2.2-.3.2 0 0-.1.1-.1.2-.1-.1-.3-.1-.4-.2-.2-1.3-.1-2.6-.1-3.8 0-1.8.1-3.6.1-5.4 0-4.1.1-8.3.2-12.4 0-1.4.1-2.7 0-4.1-.9 1.8-1.9 3.7-2.9 5.4-.9 1.4-1.9 2.8-3.3 3.9-.8.6-1.7.7-2.6 1-.8.3-1.7.4-2.6.5-1.5.1-3 .2-4.5.1-1.5 0-3.1-.1-4.6-.2-1.6-.2-3.2-.3-4.8-.6-2.3-.4-4.7-.7-6.9-1.4-1.7-.4-3.3-1.2-4.9-1.8-1.5-.5-2.9-1.3-4.3-2.2-.1-.7-.2-1.3-.2-2 2.1 1 4.2 1.9 6.5 2.6 3.6.9 7.3 1.6 11 2 2.6.1 5.3.3 7.9 0 1.5-.1 3-.2 4.5-.4 1-.2 2.2-.2 3.2-.6.5-.2 1.1-.4 1.6-.6.7-.3 1.4-.7 2-1.2.8-.7 1.3-1.7 1.7-2.7.4-.9.7-1.8 1.2-2.7.2-.4.3-.8.4-1.2.4-1.3.9-2.6 1.2-4 .1-.9.1-1.8.4-2.6z"/><path class="st8" d="M77.9 191.8c.8-.3 1.6-.5 2.3-.9-.4 1.1-.6 2.2-.8 3.3-.1.6-.3 1.2-.5 1.8-.3.8-.4 1.6-.6 2.4-1.1-.4-2.2-1-3.3-1.3-.8-.2-1.5-.2-2.3-.2-.2 0-.4.1-.6.3-.9.9-1.8 1.8-2.7 2.6-1.2 1.1-2.3 2.4-3.4 3.6-.9.9-2 1.6-3 2.4-.6.6-1.1 1.3-1.7 1.9-1.3 1.3-2.5 2.6-3.9 3.7-1.6 1.3-3.2 2.7-5 3.8-2.5 1.7-5.2 3.1-7.8 4.5-.3.2-.8.3-.9.8-.6 1.3-.2 2.8-.4 4.2-.2.9-.4 1.7-.6 2.5-.3 1.1-.7 2.2-.8 3.4-.1 2.2-.6 4.3-.7 6.5.1 1.9.4 3.8 1.1 5.6.4.9 1 1.8 1.7 2.5.4.5.9.8 1.4 1.1.9.6 1.6 1.5 2 2.4.3.6.5 1.3.7 1.9.3.7.7 1.3 1 2.1.2.4.4.8.7 1.2.4.5.7 1 1 1.6.9 1.4 1.9 2.7 3.1 4 .9 1.1 2 2 2.8 3.2 1.5 2.2 3.3 4.3 5.2 6.2-.1.4-.2.9-.4 1.3-.7-.8-1.5-1.6-2.3-2.4-1-1.1-2-2.2-2.9-3.4-.4-.7-.9-1.3-1.4-1.9s-1-1-1.5-1.6c-.6-.7-1.3-1.4-1.9-2.1-.6-.7-1.1-1.4-1.6-2.1-.5-.6-.8-1.4-1.3-2-1-1.2-2.1-2.3-3-3.6-1-1.4-2.1-2.7-3-4.1-.9-1.3-1.6-2.7-2.6-3.9-.9-1.1-1.9-2.1-2.7-3.2.2-1.3.4-2.6.6-3.8.2-1.1.4-2.1.6-3.2.1-1.5.2-3.1.2-4.6 0-1.4.2-2.8.1-4.2-.1-1.6-.1-3.2-.2-4.8 0-1.2-.1-2.4-.1-3.7 1-.3 2-.8 3-1.2s2.1-.7 3.2-1.3c2.1-1 4.2-2.1 6.2-3.3 1.8-1 3.7-2 5.5-3.1 2.4-1.5 4.6-3 6.9-4.6.8-.5 1.5-1.2 2.2-1.7 1.8-1.2 3.4-2.5 5-3.9.2-.1.3-.3.4-.4.6-.7 1.4-1 2-1.6.8-.7 1.6-1.3 2.5-1.9.9-.2 1.7-.5 2.5-.8z"/><path class="st5" d="M27.1 196.6c1.1-1.7 2-3.6 2.9-5.4.2 1.4.1 2.7 0 4.1-.1 4.1-.2 8.3-.2 12.4 0 1.8-.1 3.6-.1 5.4 0 1.3-.1 2.6.1 3.8-.7-.1-1.3 0-2-.1-.8-.1-1.6-.2-2.3-.4-.9-.3-1.9-.5-2.8-.8-.5-.1-.9-.4-1.4-.4-1.3-.2-2.6-.7-3.8-1.2l-2.4-.9c-1.2-.5-2.5-.9-3.7-1.5-1.7-.8-3.4-1.6-5.1-2.5-1.8-1-3.5-2-5.4-2.8-1.6-.7-3.2-1.4-4.9-2-.7-.3-1.4-.8-2.2-1.1-1.1-.5-2.2-1.1-3.1-1.8-.7-.5-1.2-1.2-1.4-2-.3-1.1-.8-2.3-.9-3.5 1.4.9 2.8 1.7 4.3 2.2 1.6.6 3.2 1.3 4.9 1.8 2.3.7 4.6 1 6.9 1.4 1.6.3 3.2.4 4.8.6 1.5.2 3.1.3 4.6.2 1.5.1 3 0 4.5-.1.9-.1 1.7-.3 2.6-.5.9-.3 1.9-.5 2.6-1 1.6-1.1 2.6-2.5 3.5-3.9zM31 196.8V193c.1 1.5.3 2.9.7 4.3.4 1.1.7 2.3 1.4 3.3.4.5.9 1 1.4 1.4.9.5 1.8.8 2.8 1 1.2.2 2.5.2 3.7.2 1.4 0 2.8-.3 4.2-.5 2.5-.4 5.1-1 7.6-1.6 1-.2 2-.7 3-.9s1.9-.5 2.9-.7c1.3-.3 2.5-.6 3.7-.9 2.4-.6 4.8-1.1 7.2-1.9.3-.1.7-.2 1.1-.1-1.6 1.4-3.3 2.7-5 3.9-.8.5-1.5 1.2-2.2 1.7-2.3 1.6-4.6 3.2-6.9 4.6-1.8 1.1-3.6 2.1-5.5 3.1-2 1.2-4.1 2.2-6.2 3.3-1 .5-2.1.8-3.2 1.3l-3 1.2c-.8.3-1.6.5-2.4.6-.8.1-1.6.4-2.4.4-1.2 0-2.3-.1-3.5.1.1-.1.2-.2.3-.2.1-.5.1-1 .1-1.4 0-2.8 0-5.6.1-8.4.1-3.3 0-6.7.1-10z"/><path class="st9" d="M72.2 197.4c.2-.2.3-.3.6-.3.8 0 1.5.1 2.3.2 1.2.2 2.2.8 3.3 1.3-1 4.5-1.8 9.1-2.7 13.6-.2 1.3-.5 2.7-.9 4-.2 1-.6 2-.7 3.1-.3 2.2-.6 4.5-1.2 6.7-.3 1.2-.5 2.5-.8 3.7-.5 2-2.4 10.6-2.9 12.9-.9 3.7-1.7 7.4-2.9 11-.3 1.7-.9 3.3-1.3 5-.4 1.5-.9 2.9-1.3 4.4-.6 2-1.1 4.1-1.7 6.2-2-1.8-3.7-3.9-5.2-6.2-.8-1.2-1.9-2.1-2.8-3.2-1.1-1.2-2.1-2.6-3.1-4-.3-.5-.6-1.1-1-1.6-.3-.3-.6-.7-.7-1.2-.3-.7-.7-1.3-1-2.1-.2-.6-.4-1.3-.7-1.9-.4-1-1.1-1.8-2-2.4-.5-.3-1-.7-1.4-1.1-.7-.8-1.3-1.6-1.7-2.5-.7-1.8-1.1-3.7-1.1-5.6.1-2.2.6-4.3.7-6.5 0-1.2.5-2.3.8-3.4.2-.8.5-1.7.6-2.5.3-1.4-.1-2.9.4-4.2.1-.4.6-.6.9-.8 2.6-1.4 5.3-2.8 7.8-4.5 1.8-1.1 3.4-2.5 5-3.8 1.4-1.2 2.7-2.4 3.9-3.7.6-.6 1.1-1.3 1.7-1.9 1-.8 2-1.5 3-2.4 1.1-1.2 2.2-2.5 3.4-3.6.9-1 1.8-1.9 2.7-2.7z"/><path class="st8" d="M-9.3 201.3c1 .7 2 1.3 3.1 1.8.7.3 1.4.8 2.2 1.1 1.6.6 3.2 1.4 4.9 2 1.9.8 3.6 1.9 5.4 2.8 1.7.9 3.4 1.7 5.1 2.5 1.2.6 2.5 1 3.7 1.5l2.4.9c1.3.4 2.5 1 3.8 1.2.5.1.9.3 1.4.4.9.3 1.9.5 2.8.8.8.2 1.6.3 2.3.4.7.1 1.3 0 2 .1.1.1.3.1.4.2-.2.4-.3.9-.3 1.4-.2 1.5-.5 2.9-.7 4.4-.1.9-.3 1.9-.5 2.8-.2 1-.8 1.9-1.2 2.9-.2.5-.2 1-.1 1.5-.6.6-1 1.3-1.7 1.9-.5.5-1.1 1-1.9 1.1-.5.1-1-.4-.8-.9.2-.8.7-1.4 1.2-2.1.6-.9 1.4-1.6 1.9-2.6.3-.7.6-1.3.7-2.1-.2-.5-.6-1-1-1.4-1.4-1.6-3-3-4.9-4.1-1.8-1-3.7-1.8-5.5-2.9-1.6-1-3.3-1.8-5-2.7l-5.1-2.4c-2-.9-4-1.8-6-2.6-2.1-.8-4.4-1.4-6.6-1.2-.7.1-1.4.3-2.2.4-.1-1.3 0-2.6 0-3.9.2-1.1.2-2.1.2-3.2z"/><path class="st9" d="M-9.3 208.4c.7-.1 1.4-.3 2.2-.4 2.3-.2 4.5.4 6.6 1.2 2 .8 4 1.7 6 2.6 1.7.7 3.4 1.5 5.1 2.4s3.3 1.8 5 2.7c1.8 1 3.7 1.8 5.5 2.9 1.8 1.1 3.5 2.5 4.9 4.1.4.4.8.9 1 1.4-.1.7-.4 1.4-.7 2.1-.5 1-1.3 1.7-1.9 2.6-.5.6-1 1.3-1.2 2.1-.1.5.3 1 .8.9.7-.1 1.3-.6 1.9-1.1.7-.6 1.1-1.3 1.7-1.9.3.6 1 .4 1.4.8.4.6.7 1.2 1 1.9.4.4.8.7 1.3 1 1.7 1.4 3.1 3 4.6 4.6.5.6 1.1 1.1 1.6 1.8.8 1.1 1.8 2.1 2.7 3.2 1 1.2 1.8 2.6 2.6 3.9.9 1.4 2 2.7 3 4.1.9 1.3 2 2.4 3 3.6.5.6.8 1.3 1.3 2s1 1.5 1.6 2.1c.6.7 1.3 1.4 1.9 2.1.5.5 1 1 1.5 1.6s.9 1.3 1.4 1.9c.9 1.2 1.8 2.3 2.9 3.4.8.7 1.6 1.5 2.3 2.4.3.6.7 1.1 1 1.6.6.9 1.3 1.7 2.1 2.5-.4 2.7-1.6 5.2-2.7 7.7-.5 1.1-.9 2.3-1.6 3.4-.2.3-.4.6-.3 1h.3c.4-.6.7-1.2 1.2-1.7.5-.6.9-1.4 1.4-2 .8-1.4 1.6-2.7 2.3-4.2.4-.9.8-1.9 1.2-2.9.5.3 1 .7 1.4 1.1.4.3.4.9.3 1.3-.3 1.2-.8 2.4-1.2 3.6-.5 1.2-.9 2.5-1.6 3.6-.5.8-.9 1.6-1.5 2.4-.5.7-1 1.4-1.5 2-1 1.1-2 2.3-3.1 3.2-.5.6-1.1 1.3-1.7 1.9-.3.1-.6.1-.8 0-.8-.3-1.4-.9-2.1-1.5-.2-.2-.5-.3-.7-.5-.4-.6-1.1-.9-1.8-1.2-.9-.3-.7-1.5-1.4-2.2-.3-.3-.5-.7-.7-1-.6-.2-1.2-.2-1.8-.3-.5-.1-1.1-.3-1.3-.9-.4-1.1-1-2.2-1.9-3.1-.9-1-1.9-1.9-2.8-2.9-1.2-1.3-2.5-2.5-3.9-3.6-.9-.7-1.9-1.4-2.9-2-.7-.4-1.3-1.1-2-1.3h-.1c-.4-.4-.8-.8-1.3-1.1-1.2-.9-2.4-1.8-3.7-2.5-.5-.3-.9-.5-1.4-.8-.7-.3-1.3-.8-2-1.1-.6-.3-1.1-.6-1.7-1-.7-.4-1.5-.9-2.2-1.3-.8-.5-1.4-1.1-2.2-1.6-.7-.5-1.4-1-2.2-1.5-.9-.6-1.6-1.4-2.3-2.1-1.1-1.1-2.3-2.2-3.4-3.3-2.4-2.5-4.6-5.3-6.7-8.1-.9-1.2-1.7-2.5-2.6-3.7-1.1-1.4-1.9-3-2.7-4.5-.4-.8-.8-1.7-1.2-2.5-.5-1-1-2-1.4-3.1-.7-1.9-1.4-3.8-1.9-5.7-.4-1.7-1-3.4-1.4-5.2-.6-2.5-1.1-5-1.5-7.6-.6-3.1-1-6.2-1-9.3z"/><path class="st8" d="M33.4 274.5c.8.3 1.4.9 2 1.3 1 .6 2 1.3 2.9 2 1.5 1 2.7 2.3 3.9 3.6.9 1 1.9 1.9 2.8 2.9.8.9 1.4 2 1.9 3.1.2.6.8.7 1.3.9l1.8.3c.2.4.4.7.7 1 .6.6.4 1.8 1.4 2.2.7.3 1.3.6 1.8 1.2 0 .5-.2 1-.2 1.5-.1.6-.2 1.2-.4 1.7-1.5-.4-2.9-1.2-4.1-2.2-.5-.4-.8-1.1-1.3-1.6-.4-.4-.9-.5-1.4-.7-1-.2-2-.7-2.7-1.4-.8-.8-1.5-1.7-2-2.7-.6-1.3-1.6-2.4-2.8-3.2-.8-.5-1.6-1.1-2.6-1.3-.7-.2-1.5.1-2.2.5-.5.3-.9.7-1.5.8 0-1.7 0-3.5.1-5.2.1-1-.1-2.1.1-3.1.3-.6.4-1.1.5-1.6zM64.6 274.5c.5.5 1.1.9 1.7 1.3-.4.9-.7 1.9-1.2 2.9-.7 1.4-1.5 2.8-2.3 4.2-.4.7-.8 1.4-1.4 2-.5.5-.8 1.1-1.2 1.7h-.3c-.1-.4.1-.7.3-1 .6-1.1 1-2.3 1.6-3.4 1.2-2.5 2.4-5 2.8-7.7z"/><path class="st3" d="m66.9 281.8 1.2-3.6c.2.1.4.1.7.2-.5.8-.5 1.6-.7 2.5-.7 2.2-1.6 4.4-2.5 6.5-.4.8-.6 1.7-1.1 2.5-1.1 1.6-2.2 3.2-3.5 4.7-.7.8-1.3 1.6-2 2.4-.5.7-1 1.5-1.4 2.2 0-.1 0-.2-.1-.3.1-1.4.2-2.7.1-4.1.6-.6 1.1-1.2 1.7-1.9 1.1-1 2.2-2.1 3.1-3.2.5-.7 1-1.4 1.5-2 .5-.8.9-1.6 1.5-2.4.6-1 1-2.3 1.5-3.5z"/><path class="st5" d="M68.7 278.4c.6.2 1.2.6 1.8.9.6.3 1.2.3 1.8.6.5.2 1 .2 1.5.3h-.3c-.3 1.1-.5 2.2-.8 3.2-.3 1.2-.8 2.3-1.2 3.5-.5 1.4-.8 2.8-1.2 4.2-.6 2.1-1.1 4.2-1.7 6.3-.3 1.2-.5 2.4-.9 3.5-.5 1.9-1 3.7-1.8 5.5-.8 2-1.9 3.8-3.1 5.5-.9 1.4-1.9 2.8-2.9 4.2-.4.5-.7 1.1-1.3 1.4-.9-.6-1.6-1.5-2.1-2.4-.4-.9-.6-1.8-.4-2.8.1-1.4.3-2.8.4-4.2.1-1.5.4-2.9.4-4.4 0-1.1.2-2.1.3-3.2.1-.5 0-1 .1-1.4 0 .1 0 .2.1.3.4-.8.8-1.5 1.4-2.2.6-.8 1.3-1.6 2-2.4 1.3-1.5 2.4-3.1 3.5-4.7.5-.8.8-1.7 1.1-2.5.9-2.1 1.8-4.3 2.5-6.5.3-1 .4-1.9.8-2.7z"/><path class="st3" d="M73.5 280.2h.3c1.4.3 2.8.8 4.1 1.4.7.3 1.4.6 1.9 1.3.1.4.3.8.2 1.2-.2.6-.3 1.1-.5 1.7-1 2.4-2.2 4.6-3.4 6.9-.5.9-.9 1.8-1.4 2.6-.6 1-1.1 2-1.4 3.1-.5 2.1-1 4.2-1.8 6.1-.4.9-.7 1.8-1.1 2.6-.4.8-.9 1.5-1.4 2.3-1 1.9-2.3 3.6-3.6 5.3-.6.8-1.3 1.6-1.9 2.4-.3.5-.7 1-1.3 1.2-.3.1-.6.3-.8.1-.9-.2-1.9-.4-2.5-1.1.6-.3.9-.9 1.3-1.4 1-1.4 1.9-2.8 2.9-4.2 1.2-1.7 2.3-3.5 3.1-5.5.7-1.8 1.3-3.6 1.8-5.5.4-1.2.6-2.3.9-3.5.6-2.1 1.1-4.2 1.7-6.3.4-1.4.7-2.8 1.2-4.2.4-1.2.9-2.3 1.2-3.5.1-.9.2-2 .5-3z"/><path class="st9" d="M34.3 283.6c.6-.4 1.4-.6 2.2-.5.9.2 1.8.7 2.6 1.3 1.2.8 2.2 1.9 2.8 3.2.5 1 1.1 2 2 2.7.8.7 1.7 1.1 2.7 1.4.5.1 1.1.2 1.4.7.4.5.7 1.2 1.3 1.6 1.2 1 2.5 1.9 4.1 2.2-.3.9-.6 1.9-.9 2.8-.8.3-1.6.7-2.3 1.1-1.9 1-4 1.7-6.1 1.8-1.7.1-3.4.2-5.1-.1-2.3-.3-4.5-1.2-6.6-2.1-.1-1.4.5-2.8 1-4.1.3-1.3.5-2.7.2-4-.2-1.4-.5-2.8-.5-4.2 0-1-.1-2.1-.1-3.1.4 0 .8-.5 1.3-.7z"/><path class="st8" d="M50.2 300c.8-.4 1.5-.8 2.3-1.1-.4 1.2-1.1 2.4-1 3.7-1.3.2-2.5.4-3.8.7-1.8.3-3.6.6-5.4.6-1 .1-2.1-.1-3.1-.1-1.1-.1-2.2 0-3.3-.1-.8-.1-1.7.1-2.5-.1 0-.4 0-.9-.2-1.3-.4-.8-.8-1.7-.9-2.6 2.1.9 4.3 1.8 6.6 2.1 1.7.3 3.4.2 5.1.1 2.2-.2 4.3-.9 6.2-1.9z"/><path class="st9" d="M47.7 303.3c1.3-.2 2.5-.5 3.8-.7.3-.1.5.2.5.4 0 .9-.4 1.7-.6 2.6.5.5.3 1.2 0 1.8-.1.3-.3.7-.6.5-.3 0-.6.1-1 .2-1 .1-1.9.1-2.9 0-2.3 0-4.6.2-6.9.4-1.9 0-3.8-.3-5.7-.5-.4-.1-.8-.1-1.2 0-.3 0-.3-.4-.4-.7-.2-.6-.1-1.1.1-1.7.2-.6 0-1.2.2-1.8.1-.2.3-.3.6-.3.8.2 1.6.1 2.5.1 1.1.1 2.2 0 3.3.1 1 0 2.1.2 3.1.1 1.6.1 3.4-.2 5.2-.5z"/><path class="st3" d="M33.1 308c.4-.1.8-.1 1.2 0 1.9.2 3.8.5 5.7.5 2.3-.2 4.6-.4 6.9-.4 1 .1 1.9.1 2.9 0 .3 0 .6-.2 1-.2.3.8.6 1.6.9 2.3-.7 0-1.3-.1-1.9-.5-1.9-.9-4.1-1.1-6.2-1-1.2 0-2.4.3-3.6.6-1.4.4-2.7.8-4.1 1.2-1 0-2-.1-3-.3v-.7c.1-.4.1-1 .2-1.5z"/><path class="st5" d="M40 309.3c1.2-.3 2.4-.6 3.6-.6 2.1-.1 4.3.2 6.2 1 .5.4 1.2.6 1.9.5.2.4.4.9.7 1.3.9 1.9 2.1 3.6 2.9 5.5l.3.9c-.5.2-1 .5-1.5.8-2.1.9-4.4 1.4-6.6 1.6-1.6.1-3.3.2-4.9.2-1 0-2 .1-3-.1l-3.6-.6c-1.4-.2-2.7-.6-4.1-.8 0-1.5.2-3 .4-4.5.2-1.2.2-2.5.5-3.7.1-.4 0-.9.2-1.3v.7c1 .2 2 .3 3 .3 1.3-.4 2.6-.8 4-1.2z"/><path class="st3" d="M54.1 318.8c.5-.2 1-.6 1.5-.8.4 1.7.4 3.4.2 5.1-.8.7-1.8 1.1-2.8 1.5-2.1.9-4.3 1.6-6.6 1.8-1.8.1-3.5.1-5.3 0-2.2-.3-4.4-.5-6.6-1.1-.8-.2-1.5-.4-2.2-.8-.4-.3-.4-.8-.4-1.2 0-1.4-.1-2.8 0-4.2 1.4.1 2.7.6 4.1.8l3.6.6c1 .2 2 .1 3 .1 1.6 0 3.3 0 4.9-.2 2.3-.1 4.5-.6 6.6-1.6z"/></g><defs><circle id="SVGID_5_" cx="43" cy="43" r="43"/></defs><clipPath id="SVGID_6_"><use xlink:href="#SVGID_5_" style="overflow:visible"/></clipPath><g style="clip-path:url(#SVGID_6_)"><path class="st11" d="M52 11.5c1.5-.3 3 0 4.4.5.4.2 1 .4 1.1.9.2 1.3-.5 2.7.1 4 .3.9 1.1 1.5 1.7 2.3.9 1.1 1.6 2.4 2.2 3.6.5 1 .8 2 1.2 3 .9 2.7.8 5.7 0 8.5-.2 1-.6 2-1.2 2.8-.6 0-1.3-.1-1.8.3-.2.6-.2 1.3-.4 1.9-.1.3-.2.7-.3 1-.2.1-.4.2-.7.3-.1 0-.2-.1-.3-.1V40c.1-.3.1-.5.2-.8v-.1c.2-.7.1-1.4.1-2.1-.1-.4-.2-.8-.4-1.1-.3-1-.8-1.9-1.2-2.8-.3-.7-.5-1.4-.6-2.1-.2-.6-.2-1.2-.3-1.9 0-.9 0-1.7.2-2.6-.1-.1-.1-.2-.2-.3-.7-.5-1.6-.3-2.4-.4-1.1-.1-2.1-.2-3.2-.4-1.4-.3-2.9-.6-4.3-1.2-1.1-.5-2.1-1.2-3.2-1.9-.7-.4-1.1-1-1.7-1.6-.2 0-.5-.1-.6.1-1 .9-2 1.9-2.8 2.9-.5.7-1 1.3-1.6 2-.3.3-.5.7-.8.9.3-1.3.7-2.5 1.3-3.7 1.1-2.2 3.1-3.8 5.2-4.9.2-.1.5-.2.7-.5 1.5-2 3.3-3.7 5.4-4.9 1.6-.5 2.9-1 4.2-1.1z"/><path class="st7" d="M40.6 20.8c.2-.2.4-.2.6-.1-.1 0-.3.1-.4.1.1.5.5.9.8 1.4 1.1 1.4 2.7 2.4 4.2 3.1 2.5 1.2 5.3 1.5 8.1 1.2.7-.1 1.3-.1 1.9-.4.1.1.1.2.2.3-.2.8-.2 1.7-.2 2.6-.1-.3-.1-.7-.1-1 0 1.9.1 3.9.8 5.8.4 1.1 1.4 2.1 1.5 3.4-1.6.2-3.1.6-4.6 1-.7.2-1 .9-1.6 1.3-.4.2-.9.2-1.3.3-.9.2-1.8 0-2.6-.2-1.1-.2-2.1-.6-2.9-1.3-.6-.5-.7-1.2-.7-1.9-.4.6-.5 1.6.1 2.2.6.7 1.4.9 2.2 1.3 1.2.4 2.4.7 3.7.6.8 0 1.6-.4 2.2-.9.4-.3.6-.7 1.1-.8.9-.3 1.9-.5 2.8-.8.6-.2 1.1-.3 1.7-.4.1.5-.1 1.1.1 1.7-.1.3-.1.5-.2.8-.3.8-.5 1.7-.9 2.5-.4.7-.8 1.3-1.3 1.9-.9 1.3-2.2 2.3-3.4 3.2-1.4 1-2.9 2.1-4.6 2.5-.4.1-.7-.2-.7-.6-.1-.8-.2-1.7-.4-2.5-.5-1.8-1.2-3.5-2.6-4.8-.3-.3-.6-.5-1-.7-.6-.3-1.1-.6-1.7-.8-.4-.1-.9-.2-1.4-.3.6-.2 1-.7 1.5-1.1.2-.2.5-.5.4-.8-.3.1-.6.3-.9.2-.5 0-1-.1-1.5 0-.3.4-.3 1-.3 1.6-1-.1-2.1 0-3.1.2-.8.2-1.6.6-2.4.9-.7.3-1.2.7-1.8 1-.1-.2-.3-.4-.3-.6-.4-1.8-.4-3.6-.3-5.3.1-1.1.4-2.1.5-3.1v-.1c.1.5.3 1.1.7 1.4.8.6 1.6 1.3 2.6 1.6 1.2.4 2.6.4 3.8-.3.2-.1.4-.4.5-.6-.3 0-.5 0-.8.2-.6.3-1.3.5-2 .5-1.3-.1-2.7-.6-3.6-1.6-.4-.4-.7-.9-1.2-1.2.5-1 1-2 1.5-2.9.2.2.4.1.6.1 1.1-.2 2.1.3 3.1.7.8.3 1.6.8 2.2 1.4.3.3.5.8 1 .8 0-.3-.1-.6-.2-.8-.4-.7-1.1-1.1-1.7-1.6.6.1 1.1.3 1.7.3.4-.1.4-.6.2-.8-.3-.6-1-.9-1.6-1.2-1-.4-2.1-.8-3.2-.7-.4 0-.9.2-1.2.4.3-.5.5-1 .8-1.4.2-.3.3-.6.4-.9.3-.2.6-.6.8-.9.5-.6 1.1-1.3 1.6-2 .9-1.2 1.8-2.2 2.8-3.1z"/><path class="st11" d="M34.2 28.9c.4-.2.8-.4 1.2-.4 1.1-.1 2.2.3 3.2.7.6.3 1.3.6 1.6 1.2.1.3.2.8-.2.8-.6 0-1.1-.2-1.7-.3-1-.4-1.9-.9-3-1.1-.3-.1-.7-.1-1.1-.2-.2-.1-.3-.3-.3-.6.3.1.3 0 .3-.1zM47 32.7c.8-.3 1.6-.2 2.3 0 .7.1 1.3.4 1.9.8.7.4 1.4.9 1.8 1.6h-1.2c-1.1-.5-2.2-.6-3.3-.8-.5-.1-1.1-.1-1.6-.2-.2-.1-.6-.2-.6-.5 0-.5.4-.7.7-.9zM30.7 36.9c.4-1.1.5-2.4 1.2-3.5-.1 1-.4 2.1-.5 3.1-.2 1.8-.1 3.6.3 5.3 0 .2.2.4.3.6.6-.4 1.2-.8 1.8-1 .8-.3 1.5-.7 2.4-.9 1-.2 2.1-.4 3.1-.2.2 0 .5.1.7.1.5.1.9.2 1.4.3.6.2 1.2.5 1.7.8.4.2.7.4 1 .7 1.3 1.3 2.1 3 2.6 4.8.3.8.4 1.7.4 2.5 0 .3.4.7.7.6 1.7-.5 3.2-1.5 4.6-2.5 1.3-1 2.5-1.9 3.4-3.2.5-.6.9-1.3 1.3-1.9.4-.8.6-1.6.9-2.5v.5c.1 0 .2.1.3.1.2-.1.5-.1.7-.3.1-.3.2-.7.3-1-.1 1.1-.3 2.1-.6 3.1-.3 1.3-.7 2.6-1.1 3.8-.1.4-.2.8-.4 1.2-.5.6-.8 1.3-1.3 1.9-1 1.2-2.1 2.4-3.2 3.5-1.4 1.4-3 2.4-4.7 3.3-1.7.9-3.5 1.3-5.4 1.4-.7.1-1.4-.1-2.1-.1-1-.1-2-.5-2.9-.8s-1.7-.7-2.6-1.2c-1.4-.8-2.7-1.7-3.6-3.1-.2-.5-.5-.9-.8-1.4-.5-1-1-2.1-1.1-3.2-.1-.8-.2-1.7-.3-2.5 0-2.1.5-4.1 1-6.1.1-.7.2-1.5.5-2.2z"/><path class="st12" d="M40.9 20.8c.1 0 .3-.1.4-.1.5.5 1 1.2 1.7 1.6 1 .6 2 1.4 3.2 1.9 1.3.7 2.8.9 4.3 1.2 1.1.1 2.1.3 3.2.4.8.1 1.7-.1 2.4.4-.6.2-1.3.3-1.9.4-2.7.3-5.6.1-8.1-1.2-1.6-.8-3.1-1.7-4.2-3.1-.5-.6-.9-.9-1-1.5zM55.8 28c0 1.9.1 3.9.8 5.8.4 1.1 1.4 2.1 1.5 3.4-1.6.2-3.1.6-4.6 1-.7.2-1 .9-1.6 1.3-.4.2-.9.2-1.3.3-.9.2-1.8 0-2.6-.2-1.1-.2-2.1-.6-2.9-1.3-.6-.5-.7-1.2-.7-1.9-.4.6-.5 1.6.1 2.2.6.7 1.4.9 2.2 1.3 1.2.4 2.4.7 3.7.6.8 0 1.6-.4 2.2-.9.4-.3.6-.7 1.1-.8.9-.3 1.9-.5 2.8-.8.6-.2 1.1-.3 1.7-.4.1.5-.1 1.1.1 1.7v-.1c-.1-.7.1-1.4.1-2.1-.1-.4-.2-.8-.4-1.1-.3-1-.8-1.9-1.2-2.8-.3-.7-.5-1.4-.6-2.1-.2-.6-.2-1.2-.3-1.9 0-.5-.1-.8-.1-1.2zm-22.3 2.3c.2.2.4.1.6.1 1.1-.2 2.1.3 3.1.7.8.3 1.6.8 2.2 1.4.3.3.5.8 1 .8 0-.3-.1-.6-.2-.8-.4-.7-1.1-1.1-1.7-1.6-1-.4-1.9-.9-3-1.1-.3-.1-.7-.1-1.1-.2-.2-.1-.3-.3-.3-.6-.2.5-.4.9-.6 1.3zm-1.6 3.1c.1.5.3 1.1.7 1.4.8.6 1.6 1.3 2.6 1.6 1.2.4 2.6.4 3.8-.3.2-.1.4-.4.5-.6-.3 0-.5 0-.8.2-.6.3-1.3.5-2 .5-1.3-.1-2.7-.6-3.6-1.6-.4-.4-.7-.9-1.2-1.2 0-.2 0-.1 0 0zm8.7.5c-.1 0-.2.2-.3.3 1 .1 2 0 2.9.5.5.2.8.6 1.4.6 0-.1.1-.2.1-.3-.1-.2-.3-.4-.5-.5-.7-.3-1.3-.7-2.1-.7-.5 0-1 0-1.5.1zm4.5.8c-.2.1-.2.4-.3.6.3-.2.5-.4.9-.5s.9-.1 1.3-.1c1.2 0 2.4.2 3.5.5.8.2 1.5.6 2.1 1.2.2.2.3.4.6.6 0-.2 0-.5-.1-.7-.3-.5-.8-.8-1.3-1.1-1.1-.5-2.2-.6-3.3-.8-.5-.1-1.1-.1-1.6-.2-.7-.1-1.3.1-1.8.5z"/><path class="st7" d="M58.4 37c.1.7.1 1.4-.1 2.1-.1-.7.1-1.4.1-2.1z"/><path d="M59.7 37.4c.5-.4 1.2-.3 1.8-.3 1.5.4 2.7 1.5 3.3 2.9.4 1 .2 2-.1 2.9-.2.9-.8 1.5-1.3 2.2-.7.9-1.6 1.8-2.8 2.1-.5.1-1.1.4-1.6.4-.6 0-1.2-.1-1.7-.2.2-.4.3-.8.4-1.2.4-1.3.8-2.6 1.1-3.8.3-1 .5-2.1.6-3.1.1-.6.1-1.3.3-1.9z" style="fill:#dc5031"/><path class="st12" d="M41 38.8c.3 0 .6-.2.9-.2.2.3-.1.6-.4.8-.5.4-.9.9-1.5 1.1-.2 0-.5-.1-.7-.1 0-.5 0-1.1.3-1.6.4-.1.9 0 1.4 0z"/><path class="st7" d="M34.6 43.3c1.4-.6 3-1.1 4.6-1 1.5 0 2.9.7 3.8 1.8.9 1.5 1.8 3.2 1.7 5 0 .2-.1.5-.4.5-.9.2-1.9.1-2.8 0-.5-.1-1-.1-1.5-.3-.4-.1-.7-.4-.9-.7-.3-.4-.2-1-.4-1.4l-1.2.9c-.4.2-.8-.2-1.1-.3-.9-.7-1.9-1.3-2.7-2.3-.2-.3-.5-.5-.7-.8.3-.8.9-1.2 1.6-1.4z"/><path class="st12" d="M37.8 45c.6.2 1.3.4 2 .5.1 0 .4 0 .4.2-.1.3-.5.4-.8.4-.6 0-1.4-.4-1.6-1.1z"/><path class="st14" d="M68.7 100.3c.4-.1.8-.1 1.2.1-.2.4-.6.7-1.1.5 0-.2.1-.4.1-.6h-.2zM72.1 101.6c0-.3-.4-.4-.6-.5-.3.1-.5.4-.3.7.3.3.7.2.9-.2.1.1.1.1 0 0zM72.4 103.4c-.1-.4-.4-.5-.8-.6h-.1c-.4.2-.3.8.1.9h.1c.3.1.5-.1.7-.3zM72.3 105.4c0-.2-.2-.3-.3-.3h-.1c-.2.1-.4.4-.2.6l.1.1c.2 0 .3 0 .5-.1v-.3z"/></g><defs><circle id="SVGID_7_" cx="43" cy="43" r="43"/></defs><clipPath id="SVGID_8_"><use xlink:href="#SVGID_7_" style="overflow:visible"/></clipPath><g style="clip-path:url(#SVGID_8_)"><path class="st16" d="M35.8 31.7c.4-.1.8.2.8.6 0 .4-.5.9-.9.7-.6-.2-.5-1.1.1-1.3z"/><path class="st12" d="M34.5 32.9c.4.2.7.4 1.1.6.5.2 1 .3 1.5.5-.8.1-1.7 0-2.4-.6-.1-.2-.1-.4-.2-.5z"/><path d="M34.2 33.6c.6.2 1 .5 1.6.7.4.1.8.1 1.2.2-1 .4-2.3 0-2.8-.9z" style="fill:#c66745"/><path class="st18" d="M42 33.9c.5.1 1 .3 1.5.5-.2 1.5-.7 2.9-1.4 4.2-.2.4-.7.3-1 .3-.7-.1-1.5 0-2.1-.3-.4-.2-.6-.6-.5-1 .3-.8.9-1.4 1.4-2 .7-.6 1.3-1.2 2.1-1.7z"/><path class="st16" d="M60.7 36.7c-.6 0-1.3-.1-1.9-.1h-.4c-1.6.1-3.1.4-4.6.6-.1-.8-.3-1.6-.9-2.1-.3-.3-.7-.6-1.1-.8-1.3-.7-2.8-1.1-4.3-1-.9.1-2 .3-2.6 1.1-1.1-.9-2.7-1.2-4.1-1.2-.1-.7-.5-1.4-1-1.9-.8-.6-1.7-1.2-2.7-1.6-.9-.4-2-.7-3-.5-.8.1-1.4.8-1.7 1.5-.2.6-.6 1.2-.5 1.8.1 1 .8 1.7 1.6 2.2.9.7 2 1.3 3.2 1.3.8 0 1.7 0 2.5-.4.7-.4 1.2-1 1.5-1.8.4 0 .9-.1 1.3 0 .5.1 1 .3 1.5.5.3.2.6.4 1 .6-.5 1-.6 2.3.1 3.3.7.8 1.8 1.1 2.8 1.5 1.5.5 3.1.7 4.5.1.8-.4 1.4-1.2 1.6-2.1 1.6-.2 3.2-.6 4.9-.6 1 0 1.9-.3 2.9 0 .2.1.3 0 .4-.1-.2-.3-.6-.3-1-.3zm-22.1-1.3c-.7.3-1.6.3-2.4.2-1-.2-1.9-.7-2.7-1.3-.7-.5-1.3-1.3-1.2-2.2.2-.8.5-1.8 1.4-2.1.6-.2 1.2-.2 1.9 0 1.2.3 2.3.9 3.3 1.6.6.4 1.1 1.1 1.2 1.8 0 .9-.6 1.7-1.5 2zm14 3.3c-.4.5-1.1.8-1.8.9-1 .1-2.1 0-3-.3-1-.2-2-.5-2.7-1.3s-.5-2-.1-2.8 1.2-1.2 2-1.3c1.5-.2 3 .1 4.3.8.7.4 1.3.9 1.7 1.6.3.9.2 1.8-.4 2.4z"/><path class="st19" d="M46.9 34.5c.3-.1.7-.1 1.1-.1-.3.1-.7.2-1 .3-.5.1-.9.4-1.4.5.2-.4.8-.6 1.3-.7zM34.2 30.6c.3-.1.7-.1 1.1-.1-.3.1-.7.2-1 .3-.5.1-.9.4-1.4.5.2-.4.8-.6 1.3-.7z"/><path d="M39.3 37.3c.3-.6.7-1.3 1.3-1.6-.3.6-.8 1.1-1.3 1.6z" style="fill:#faf8dc"/><path class="st16" d="M48.1 35.9c.3-.2.8 0 .8.4.1.5-.4.9-.9.7-.4-.2-.3-.9.1-1.1z"/><path class="st21" d="M49.5 12.6c.9-.4 1.9-.8 2.9-.9-1.6.6-3.2 1.1-4.5 2.1-1.5 1-2.6 2.5-3.7 3.9-.9 1.2-1.5 2.6-1.7 4.1h-.2c.2-.6.2-1.1.4-1.7.5-1.4 1.3-2.6 2.2-3.8 1.1-1.6 2.7-2.9 4.6-3.7zm3.5-.5c-1.8.4-3.5 1.2-4.9 2.5s-2.8 2.8-3.7 4.5c-.5 1.1-1 2.2-1.1 3.4h.2c.2-1.7.9-3.4 1.9-4.8.7-1 1.6-1.9 2.5-2.7 1.4-1.3 3.2-2.2 5.1-2.8.7-.2 1.4-.2 2.1-.4-.7-.1-1.4.1-2.1.3zm2.1.3c-1.4.3-2.7.7-4 1.3-1.8.8-3.4 2.1-4.4 3.8-.9 1.4-1.5 2.8-2 4.4-.1.6-.3 1.1-.1 1.7.1-.2.2-.5.3-.7.3-2.2 1.2-4.2 2.5-6 1-1.3 2.4-2.2 3.8-2.9 1.5-.8 3-1.3 4.7-1.5.2-.1.5 0 .5-.2-.4-.1-.9 0-1.3.1zm1.5.3c-1 .3-2.1.7-3 1.1-1.4.7-2.7 1.4-3.9 2.5-.7.7-1.3 1.6-1.9 2.4-.8 1.2-1.3 2.5-1.8 3.8-.1.5-.3 1-.2 1.5.1 0 .2 0 .2.1.1-.3.1-.6.2-1 .3-1.1.7-2.3 1.2-3.3.8-1.7 2-3.3 3.5-4.4 1.6-1.2 3.6-2 5.6-2.5.2-.1.5-.1.6-.3-.1-.1-.3.1-.5.1zm-2.7 3.6c-1 1.2-1.9 2.5-2.6 3.9-.5 1-1 2.1-1.3 3.2-.2.6-.4 1.2-.4 1.8h.3c.1-.2.1-.5.2-.7.6-1.8 1.2-3.7 2.2-5.3.5-.8.9-1.6 1.4-2.3.9-1.2 2-2.3 3.2-3.2v-.3c-1.1.8-2.1 1.8-3 2.9zm-.1-1.8c-1.4.9-2.5 2.1-3.6 3.4-1.5 2-2.8 4.2-3.1 6.7.1 0 .2 0 .2.1.5-2.9 2.1-5.6 4.2-7.7.7-.8 1.5-1.5 2.3-2.1.5-.3 1-.5 1.4-1-.5 0-.9.3-1.4.6zm1.6 1.7c-.6.8-1.2 1.6-1.8 2.5-.5.8-.9 1.6-1.2 2.5-.6 1.4-1 2.9-1.2 4.4h.3c.3-1.8.8-3.6 1.7-5.3.5-1.1 1.1-2.2 1.8-3.2.5-.8 1.1-1.5 1.8-2.2v-.3c-.6.4-1 1-1.4 1.6zm.2 1.2c-1 1.7-1.8 3.5-2.4 5.3-.3.9-.6 1.9-.7 2.9h.3c.2-.4.2-.8.3-1.2.1-1.3.7-2.4 1.1-3.6.5-1.4 1.2-2.6 2-3.8.2-.4.6-.7.5-1.2-.4.5-.8 1.1-1.1 1.6zm-3.7.2c-1 1.3-2 2.6-2.7 4.1-.5 1-.9 2.1-1 3.3h.3c.2-.7.3-1.4.6-2.1.6-1.5 1.4-3 2.3-4.3.5-.8 1.1-1.5 1.7-2.2-.4.3-.8.8-1.2 1.2zm3.7 2.1c-.4 1.1-.7 2.2-1 3.3-.2.9-.5 1.8-.5 2.8h.3c.2-.6.2-1.2.3-1.8.3-1.6.6-3.3 1.3-4.8.2-.6.6-1.1.7-1.7-.5.6-.8 1.4-1.1 2.2zm-13.8-.9c-.3.1-.5.1-.8.3-1.1.7-2.2 1.5-3.1 2.5-.7.8-1.1 1.7-1.4 2.6-.1.4-.3.9-.4 1.4.1 0 .3.1.3-.1.2-.8.4-1.7.8-2.4.5-1 1.3-1.8 2.2-2.6.7-.6 1.5-1.1 2.3-1.4-.1.3-.2.5-.4.8-.7.2-1.3.6-1.8 1.1-1.2 1-2.1 2.4-2.5 3.9.3-.2.4-.5.5-.8.7-1.7 2.1-3.1 3.7-3.9 0 .2-.1.5-.1.7.3-.5.5-1 .7-1.5.2-.6.6-1 .9-1.6-.4.1-.6.6-.9 1zm15.4-.9c0 .7.1 1.4.1 2 .1 2-.3 3.9-1 5.8-.1.2-.3.4-.5.5v.2c.2-.1.3-.1.5-.2-.1 1.4-.1 2.9.1 4.4.3 1.8 1.1 3.5 2 5-.7-2-1.7-3.9-1.8-6-.1-1.1-.1-2.3-.1-3.4.2-.1.3-.2.5-.3-.1 0-.3-.2-.3-.2.8-2.2 1.1-4.6.9-6.9 0-.4-.2-.7-.4-.9zm.8.4c.1.4.2.8.2 1.2.3 1.8.2 3.6-.2 5.3 0 .2-.2.3-.3.4.1 0 .2 0 .3-.1s.2-.2.4-.3c0 0-.1-.1-.2-.1v-.1c.4-1 .4-2.1.5-3.2s-.1-2.2-.5-3.1H58zm-1.8 3.5c-.3 1.4-.7 2.7-1.1 4 .1-.1.3-.1.3-.2.3-.5.4-1.1.6-1.7.3-1.3.5-2.7.7-4.1V19c-.2 1-.3 1.9-.5 2.8zm3.1-2.3c0 .7.2 1.3.2 2 0 .8-.3 1.7-.4 2.5-.3.2-.6.5-.9.7v.1l.3.1c.2 1.4.7 2.8.9 4.3.2 1.2.3 2.5.4 3.7.1.7 0 1.4.1 2 .1-.5.1-.9.1-1.4 0-1.6-.1-3.2-.3-4.7-.2-1.4-.6-2.8-.9-4.1.1-.1.3-.2.4-.3.2.5.3 1 .5 1.6.5 1.8.8 3.8 1 5.7.1 1.3-.1 2.7 0 4 .4-2.7.2-5.5-.3-8.2-.2-1.1-.6-2.1-1-3.2.1-.2.3-.3.5-.3h.1c.2.1.1-.2.2-.3.2-.2.5-.4.7-.6.2.3.4.6.6 1 .4.8.6 1.7.9 2.6v-.4c-.1-.6-.3-1.1-.5-1.7s-.6-1-.9-1.5c.1-.1.3-.2.4-.3v-.2c-.2.1-.4.2-.6.4.1-.6.2-1.3-.2-1.8 0 .7 0 1.4-.1 2.1-.2.3-.6.5-.8.7.3-1 .3-2 .3-3-.4-.7-.5-1.1-.7-1.5zm.6 4.7c.4.8.8 1.6.9 2.5.2 1.2.5 2.4.6 3.6s0 2.5-.2 3.7c-.1.3-.1.7-.1 1.1.3-1.4.6-2.8.5-4.2 0-1.6-.4-3.1-.7-4.7-.1-.8-.5-1.5-.9-2.2 0 .1-.1.1-.1.2zm-3.1 1.5c.1 0 .3.2.3.2-.2 2 .1 4 .6 6 .2 1 .5 2 1 2.9-.5-1.9-1.1-3.7-1.3-5.6-.2-1.2-.1-2.3-.1-3.5.2-.1.3-.3.5-.4 0 1.1 0 2.1.2 3.2l.9 4.2c.2.8.3 1.6.4 2.4 0-1.6-.4-3.1-.7-4.6-.2-1-.4-1.9-.5-2.9-.1-.8-.1-1.6-.2-2.5-.1 0-.2 0-.3.1-.3 0-.5.3-.8.5zm5.3.7c0 .7.2 1.3.2 2 .2 1.5 0 3.1-.2 4.6-.2 1.1-.6 2.1-.9 3.2.2-.2.3-.4.4-.7.4-.8.7-1.7.9-2.6.3-2.2.4-4.6-.4-6.7.1 0 .1.1 0 .2zm-.5 10.2c.4-.5.7-1.1.7-1.8-.3.6-.5 1.2-.7 1.8zm-2.5-.1c0-.5 0-1-.1-1.4-.3.4.1.9.1 1.4zm.5-1.3c-.1.5-.1.9.1 1.4.1-.5.2-1-.1-1.4zm.7.4v.9c.2-.2.3-.6 0-.9zm.5.3v.8c.1-.2.2-.4.3-.7-.1-.1-.2-.1-.3-.1z"/><path class="st18" d="M33.2 36.7c.5-.2 1.2.1 1.4.6.4.8-.2 1.9-1.1 2-.7.1-1.4-.6-1.4-1.3.1-.6.6-1.1 1.1-1.3z"/><path class="st12" d="M47 37.2c.7.2 1.5.3 2.2.3-.7.4-1.6.2-2.2-.3z"/><path class="st22" d="M59.2 38.5c0-.4-.3-.9.1-1.1 0 .4 0 .8-.1 1.1z"/><path class="st12" d="M46.9 37.8c.7 0 1.3.2 1.9.3-.6.2-1.4.2-1.9-.3z"/><path d="M41.1 38.1c.2-.1.5 0 .6.2.1.4-.6.5-.9.3-.1-.3.1-.5.3-.5z" style="fill:#af3116"/><path class="st22" d="M58.5 39.8c0-.4-.2-.9.2-1.1 0 .3 0 .7-.2 1.1zM58.9 40c0-.4-.1-.9.2-1.2.1.4 0 .8-.2 1.2z"/><path d="M59.3 40.2c.4-.4.9-.6 1.5-.6.6.1 1.2.2 1.5.7.4.4.4 1 .3 1.6-.2.7-.6 1.4-1.2 1.9-.5.3-1.2.1-1.7-.1-.4-.2-.7.1-1.1.2v-.3c.4-.2.7-.5 1.2-.4.4.1.8.5 1.3.3.6-.4 1-1 1.2-1.7.1-.4.1-.9-.2-1.2-.3-.5-1-.6-1.5-.6s-.9.2-1.3.2z" style="fill:#b03318"/><path class="st18" d="M49.3 41.3c.3-.1.7-.1 1 .1.4.3.7.8.7 1.3-.1.7-.6 1.1-1.2 1.5-.9.5-2-.3-2-1.3-.1-.8.7-1.4 1.5-1.6z"/><path d="M37.1 43.9c1-.2 2.2-.3 3.1.3.5.3 1.1.6 1.5 1.1-.2 0-.5 0-.6-.1-.5-.3-1-.7-1.6-.9s-1.3-.2-1.9-.2c-.3.1-.4-.1-.5-.2z" style="fill:#dd5133"/><path class="st26" d="M21.1 58.6c.6-.8 1.4-1.4 1.9-2.3 0 .7-.5 1.3-1 1.8-.8.8-1.6 1.8-2.2 2.7-.2.2-.3.5-.6.6.5-1 1.2-1.9 1.9-2.8z"/><path class="st21" d="M31.2 35.6h.2c0 .6-.1 1.3-.2 1.9-.1-.7-.2-1.3 0-1.9zm-.7 3.3c.2-.5.2-1.1.2-1.7-.4.5-.2 1.1-.2 1.7zm.3-.9c0 .5 0 1.1.2 1.6.1-.5.1-1.1 0-1.6h-.2zm-.6 3c.1-.6.2-1.2.2-1.8-.4.5-.3 1.2-.2 1.8zm.3-1.2c-.1.5-.1 1.1.2 1.6V40c0-.1-.1-.2-.2-.2zm6.3 1c.5 0 1 0 1.4-.2-.5 0-1 0-1.4.2zm1.6.2c.3 0 .7.1 1-.2-.3-.1-.8-.3-1 .2zm-7.4-.3c0 .6 0 1.1.3 1.7-.1-.6 0-1.2-.3-1.7zm4.3.5c.4 0 .9-.2 1.3-.4-.5 0-1 .1-1.3.4zm4.2-.2h.9c-.2-.3-.7-.4-.9 0zm1 0c.3.3.7.3 1.1.4-.3-.3-.7-.4-1.1-.4zm17.2 1.1c.3-.3.4-.7.5-1.2-.4.3-.4.8-.5 1.2zm-20.9-.6c.4 0 .8-.1 1.1-.3-.4 0-.8 0-1.1.3zm-7 1.6c.1-.6.2-1.2.2-1.9-.4.6-.3 1.3-.2 1.9zm8.3-1.8c.2.4.8.2 1.1.1-.3-.1-.7-.1-1.1-.1zm1.2.1c.2.3.7.2 1 .2-.3-.3-.6-.3-1-.2zm-4.1.6c.5-.1.9-.3 1.3-.5-.5 0-1 .1-1.3.5zm6.6-.6c.3.3.7.5 1.1.6-.3-.4-.7-.5-1.1-.6zm-8.1.8c.4-.1.9-.4 1.2-.7-.4.2-1 .3-1.2.7zm3-.1c.4 0 .8-.1 1.1-.3-.4 0-1-.2-1.1.3zm3.6-.4c.2.4.6.4 1 .4-.3-.2-.6-.4-1-.4zm-10 .1c0 .6 0 1.1.1 1.7.1-.6.1-1.1.1-1.7h-.2zm11 0c.2.4.7.4 1.1.5-.3-.3-.7-.5-1.1-.5zm-3.4.3c.5.1 1 .1 1.5 0-.6-.2-1.1-.2-1.5 0zm-5.5.9c.5-.3.9-.7 1.3-1.1-.5.3-1.1.6-1.3 1.1zm7.2-.9c.3.3.7.3 1.1.2-.4-.2-.8-.2-1.1-.2zm3.6 0c.3.3.7.7 1.1.9-.3-.4-.6-.8-1.1-.9zm-9.7 1c.5-.1 1-.5 1.4-.9-.5.2-1.1.5-1.4.9zm1.4-.2c.5-.1.9-.3 1.3-.5-.5 0-1 .1-1.3.5zm-4.1-.5c0 .5.1 1.1.3 1.6.1-.4 0-.9-.1-1.3 0-.2-.1-.2-.2-.3zm10.4.1c.2.4.7.4 1.1.5-.3-.3-.7-.5-1.1-.5zM56.7 44c.4-.5.8-1 .9-1.6-.4.4-.6 1-.9 1.6zm-24.3-.4c.5-.2.9-.6 1.2-1-.5.2-.9.5-1.2 1zm24.8.7c.4-.5.8-1 .8-1.6-.4.5-.6 1.1-.8 1.6zm-25.5-.5c.1-.3.2-.7.2-1-.3.2-.3.7-.2 1zm12.4-.4c.2.4.5.8.9 1.1-.2-.5-.5-1-.9-1.1zm-11.8 1.2c.5-.2.9-.6 1.3-1-.6.2-1 .5-1.3 1zm10.3-1.1c.4.4.9.7 1.3 1.1-.3-.5-.7-1-1.3-1.1zm.9 0c.1.5.6.8.9 1.1-.2-.4-.5-.8-.9-1.1zm-13.6 1.6c0-.5 0-1-.2-1.5-.2.5 0 1 .2 1.5zm1.3.6c0-.5 0-1-.2-1.5-.1.4 0 1 .2 1.5zm26.4-.5c.3-.4.5-.9.5-1.4-.3.3-.4.9-.5 1.4zm-27.3-1.4c0 .4 0 .9.2 1.3.1-.4.2-1-.2-1.3zm1.5 1.8c.1-.6.2-1.1.4-1.7-.5.4-.4 1.1-.4 1.7zm24.8-.7c-.2.4-.5.8-.7 1.2.5-.5.9-1 1.1-1.6-.1.1-.3.2-.4.4zm-10.9.9c0-.4-.2-.8-.5-1.2 0 .4.3.8.5 1.2zm-1.9-1c.2.5.4.9.7 1.2-.1-.5-.3-.9-.7-1.2zm.7 0c0 .4.2.8.5 1.1-.1-.4-.2-.8-.5-1.1zm-11.7 1.6c.2-.4.3-.8.4-1.2-.3.3-.3.8-.4 1.2zm23.6.3c.5-.4.8-.9 1-1.5-.4.4-.6 1-1 1.5zm-26.6.1c.1-.5.2-1 .1-1.4-.3.4-.2.9-.1 1.4zm.7.1c.1-.5.2-1 .1-1.4-.3.3-.2.9-.1 1.4zm.9-1.3c-.1.4 0 .9 0 1.3.2-.4.4-.9 0-1.3zm2.1 1.5c.2-.4.3-.8.3-1.2-.4.3-.4.8-.3 1.2zm11.8-1c0 .5.1.9.3 1.3 0-.4 0-.9-.3-1.3zm.6.1c.1.4.2.9.4 1.3-.1-.4 0-1-.4-1.3zm10.8 1.3c.3-.3.5-.7.6-1.1-.3.3-.4.7-.6 1.1zm1.6-5.5c.3-.3.5-.7.5-1.1-.3.3-.4.7-.5 1.1zm-27.4 6.1c.1-.5.1-1.1.1-1.6-.4.5-.2 1.1-.1 1.6zm24-.3c.5-.3 1-.6 1.1-1.2-.5.3-.8.7-1.1 1.2zm-22.5.4c.1-.5.1-1.1 0-1.6-.3.6-.2 1.1 0 1.6zm-2.2.2V47c-.4.4-.1.9 0 1.4zm4.3.1c.3-.4.4-.9.4-1.4-.4.4-.4.9-.4 1.4zm-1.4.5c.1-.5.1-1.1.1-1.6-.3.5-.2 1.1-.1 1.6zm1-1c.1-.5.1-1.1.1-1.6-.3.5-.2 1.1-.1 1.6zm1.2.8c.2-.4.3-.9.3-1.3-.3.3-.3.8-.3 1.3zm3.1-.1c.2-.4.3-.8.3-1.3-.3.4-.3.9-.3 1.3zm-6.7.3c0-.5 0-1.1-.2-1.6-.1.6.1 1.1.2 1.6zm.4-2.6c.2-.5.5-1 .5-1.5-.4.4-.4 1-.5 1.5zm13.2 2.4c.1-.4 0-.8-.1-1.2-.1.4 0 .8.1 1.2zm6.6 0c.6-.3 1.3-.6 1.5-1.3-.6.4-1 .9-1.5 1.3zM36 49c.2-.4.3-.8.4-1.3-.3.3-.4.8-.4 1.3zm16.8.1c.6-.4 1.2-.8 1.5-1.4-.5.3-1 .9-1.5 1.4zm2.2-.5c.6-.4 1.2-.8 1.5-1.4-.6.3-1.1.8-1.5 1.4zm-17.5.6c.2-.4.3-.8.4-1.1-.4.1-.4.6-.4 1.1zm-.5 1.4c.2-.4.3-.8.4-1.1-.4.2-.4.7-.4 1.1zm-.6-1.4c.2-.4.3-.8.4-1.1-.3.1-.4.6-.4 1.1zm9.8-1.2c0 .4.1.8.2 1.2.1-.4.1-.9-.2-1.2zm-12.6 1.5c.1-.5.1-1 .1-1.4-.2.4-.1 1-.1 1.4zm19.8.2 1.2-.9c.1-.1.1-.2.1-.4-.5.4-.9.8-1.3 1.3zm1.9-.4c.5-.2.8-.6.9-1.1-.3.3-.6.7-.9 1.1zm-24.4-.5c.1.4.2.8.4 1.2 0-.4-.1-.8-.1-1.2h-.3zm1.6 1.5c.1-.5.1-1.1 0-1.6-.3.4-.2 1.1 0 1.6zm-2.2-1.4c0 .6.2 1.1.5 1.7-.1-.7-.2-1.3-.5-1.7zm23.4 1.3c.5-.4 1.2-.6 1.4-1.3-.7.3-1 .9-1.4 1.3zm-19-.1c.2-.4.2-.8.2-1.2-.4.3-.2.8-.2 1.2zm1.8.4c.2-.4.2-.8.2-1.2-.4.3-.3.8-.2 1.2zm1.1-.1c.2-.4.5-.9.5-1.4-.4.4-.4 1-.5 1.4zm1.7-1.4v1.2c.2-.3.3-.8 0-1.2zm6 1.2c.1-.4.1-.7.1-1.1-.4.2-.1.7-.1 1.1zm4.7-.3c.5-.1 1-.3 1.4-.8-.5.1-1 .4-1.4.8zm-14.7.3c.2-.3.2-.7.2-1.1-.2.3-.1.7-.2 1.1zm10.5-1c0 .4 0 .8.1 1.2.1-.3.4-.9-.1-1.2zm-12 1.5c.2-.4.3-.9.2-1.3-.3.4-.2.9-.2 1.3zm17.1-.3c.5-.2 1-.4 1.4-.9-.6.1-1 .5-1.4.9zm-2.6.8c.4-.3.9-.6 1.2-1.2-.5.3-.8.8-1.2 1.2zm1.3.9c.4-.3.9-.6 1.2-1.2-.6.3-.9.8-1.2 1.2zm-.3 2c.5-.2 1-.5 1.3-.9-.5.1-.9.6-1.3.9zm4.6-6.8c.5-.3 1-.6 1.2-1.1-.5.2-.8.7-1.2 1.1zm1.5-1.5c.4-.4.8-.8 1-1.3-.5.3-.7.9-1 1.3zm-14.9 5.1c.1-.4.1-.9 0-1.4-.2.4 0 1 0 1.4zm-.6-1.3c-.1.5-.2.9-.2 1.4.2-.4.5-1 .2-1.4zm1.3 0v1.3c.3-.4.4-.9 0-1.3zM32 51.2c0-.5-.1-1-.2-1.5-.2.5 0 1 .2 1.5zm1.1.1c.1-.5.2-1 .1-1.5-.3.4-.2 1-.1 1.5zm1.2.4c.1-.5.2-1 .1-1.5-.2.4-.1 1-.1 1.5zm9.2-.3c.2-.5.3-1 .3-1.5-.4.4-.3 1-.3 1.5zm-1-.1c.2-.5.3-1 .3-1.5-.3.5-.3 1-.3 1.5zm9.1-.3c.5-.2 1-.5 1.3-.9-.5.1-.9.5-1.3.9zm-12.7-.7c-.1.5-.2 1-.2 1.4.3-.4.4-.8.4-1.3-.1-.1-.1-.1-.2-.1zm7.9 1.2c.3-.3.5-.7.6-1.2-.4.2-.5.7-.6 1.2zm.8-.1c.3-.3.6-.7.7-1.2-.4.4-.6.8-.7 1.2zm1.5 0c.5-.3.9-.6 1.2-1-.5.1-.9.6-1.2 1zm3.1.2c.5-.2 1-.6 1.3-1.1-.6.2-1 .7-1.3 1.1zm-21.1-1c0 .5.1 1 .5 1.4-.1-.5-.1-1-.5-1.4zm22.4.8c.5-.3 1-.7 1.3-1.2-.6.2-.9.7-1.3 1.2zm-18.6.6c.2-.4.3-.9.4-1.3-.4.4-.4.9-.4 1.3zm.7.2c.2-.4.4-.9.5-1.3-.4.3-.5.8-.5 1.3zm-3.3-1.3c0 .5 0 .9.2 1.4.1-.4.2-1.1-.2-1.4zm4 1.5c.3-.4.4-.9.5-1.5-.4.4-.4 1-.5 1.5zm.8.2c.2-.5.4-1.1.5-1.7-.4.5-.6 1.1-.5 1.7zm3.3-1.5c-.1.4-.1.8-.1 1.2.2-.4.4-.9.1-1.2zm-6.7 1.5c.1-.5.1-1 0-1.4-.3.3-.2.9 0 1.4zm7.3-.2c.2-.4.2-.8.2-1.3-.3.4-.2.9-.2 1.3zm9.5-.2c.4-.2.8-.5 1.1-.9-.5.2-.9.5-1.1.9zm-2.9.4c.4-.3.8-.6 1-1.1-.4.3-.7.7-1 1.1zm-14.5.5c.1-.4 0-.8 0-1.3-.4.3-.1.9 0 1.3zm10.6.1c.2-.4.3-.9.3-1.4-.3.5-.3 1-.3 1.4zm-.8-.1c.2-.4.3-.9.3-1.4-.2.4-.2.9-.3 1.4zm3.6-2.6c.2-.4.3-.9.3-1.4-.2.4-.3.9-.3 1.4zm-2.1 1.9c.2-.4.3-.9.3-1.4-.2.5-.2 1-.3 1.4zm-.2-1.1c.2-.4.3-.9.3-1.4-.2.4-.3.9-.3 1.4zm1.1.4c.2-.4.3-.9.3-1.4-.2.5-.3.9-.3 1.4zm-6 1c.2-.4.3-.9.3-1.4-.2.5-.2.9-.3 1.4zm6.8.2c.3-.3.6-.7.7-1.1-.5.2-.5.7-.7 1.1zm4.5-.1c.5-.2 1-.5 1.2-1-.4.2-.8.6-1.2 1zm-4.1.5c.4-.4.7-.8.9-1.3-.4.3-.6.8-.9 1.3zm-1-1.1c.4-.4.7-.8.9-1.3-.4.3-.6.8-.9 1.3zm-7.5-.1c-.1.4-.2.8-.2 1.2.2-.4.4-.8.4-1.2-.1.1-.2 0-.2 0zm.2-1.8c-.1.4-.2.8-.2 1.2.2-.4.4-.8.4-1.2h-.2zm10 2.8c.5-.2.9-.6 1.1-1-.5.1-.8.6-1.1 1zm-13.9.5c.1-.5.2-1 .2-1.5-.5.3-.3 1-.2 1.5zm16.8-.3c.5-.3 1-.6 1.2-1.1-.4.3-.8.7-1.2 1.1zm-6.1.4c.4-.3.6-.8.7-1.3-.5.3-.5.8-.7 1.3zm-3.2-2.1c.3-.4.4-.9.3-1.4-.4.3-.3.9-.3 1.4zm-9.7.8c0 .4.2.8.4 1.2 0-.4-.1-.9-.4-1.2zm3.3 1.3c.2-.4.3-.8.4-1.3-.5.3-.4.9-.4 1.3zm13.5-.2c.4-.2.9-.4 1.1-.9-.5.2-.8.5-1.1.9zm-8.4.4c.2-.4.3-.8.4-1.2-.4.3-.4.8-.4 1.2zm.9-.7c.2-.4.3-.8.4-1.2-.4.3-.4.8-.4 1.2zm-5.3.9c.1-.4.3-.8.4-1.3-.5.3-.4.9-.4 1.3zm7.7.1c.4-.4.6-.9.7-1.4-.4.4-.5.9-.7 1.4zm-1.2.6c.4-.4.6-.9.7-1.4-.4.4-.5.9-.7 1.4zm-.6-.5c.3-.4.6-.9.5-1.4-.2.4-.3.9-.5 1.4zm-5.2.1c.4-.4.4-.9.5-1.3-.5.2-.5.8-.5 1.3zm2.3-.1c.2-.4.4-.9.4-1.3-.3.4-.3.9-.4 1.3zm-.6-.8c.2-.4.4-.9.4-1.3-.3.3-.3.8-.4 1.3zm-5 1c0-.4-.1-.9-.1-1.3-.2.4-.1.8.1 1.3zm11.8.1c.4-.3.7-.7.7-1.2-.3.3-.6.7-.7 1.2zm1.1-.2c.3-.3.7-.6.8-1-.3.3-.6.7-.8 1zm-1 1.4c.3-.3.7-.6.8-1-.3.3-.6.6-.8 1zm1.8-1.5c.4-.2.7-.6 1-1-.4.3-.7.7-1 1zm-9.8.5c.2-.3.4-.7.4-1.1-.2.4-.3.7-.4 1.1zm-3.3.1v-1.2c-.3.4-.1.9 0 1.2zm3.8.4c.4-.4.6-1 .7-1.5-.3.4-.4 1-.7 1.5zm9.8-.5c.4-.2.9-.5 1.1-1-.5.3-.8.7-1.1 1zm2-.1c.5-.2 1-.5 1.2-.9-.5.2-.9.6-1.2.9zm-5.4.4c.3-.3.5-.7.6-1.1-.3.3-.5.7-.6 1.1zm.1 1c.3-.3.6-.6.7-1-.4.2-.6.6-.7 1zm-5-.9c.3-.3.5-.7.5-1.1-.3.3-.4.7-.5 1.1zm.5-1.5c.2-.4.3-.8.3-1.2-.3.4-.3.8-.3 1.2zM35 55.4c.1-.4.2-.8.1-1.2-.3.3-.1.8-.1 1.2zm5.4-.1c.3-.3.5-.7.6-1.1-.4.3-.5.7-.6 1.1zm.9-.6c.2-.3.4-.7.4-1.2-.3.3-.3.8-.4 1.2zm.8-1.7c.2-.4.4-.8.4-1.2-.4.3-.4.8-.4 1.2zm-6.4 2.6c.2-.4.4-.8.4-1.3-.5.4-.4.9-.4 1.3zm12.3-.1c.5-.2.9-.5 1.1-1-.4.2-.8.6-1.1 1zm-4.9.5c.4-.3.6-.8.7-1.3-.4.3-.6.8-.7 1.3zm.2 1.4c.4-.3.6-.8.7-1.3-.4.3-.5.9-.7 1.3zm-6.9-1.5c.2-.3.4-.7.4-1.1-.4.2-.3.7-.4 1.1zm9.6.2c.5-.3 1-.6 1.2-1.2-.6.3-.9.8-1.2 1.2zm-3.9-.1c.3-.3.6-.6.7-1-.4.3-.6.7-.7 1zm-1 1.4c.3-.3.6-.6.7-1-.4.2-.6.6-.7 1zm.8-.2c.3-.3.6-.6.7-1-.4.2-.5.6-.7 1zm-5-1c.3-.3.6-.6.5-1-.2.3-.4.7-.5 1zm1.7.2c.3-.3.6-.6.6-1-.4.2-.5.6-.6 1zm7.7.1c.5-.2 1.2-.4 1.2-1-.5.3-.8.7-1.2 1zm-6.9.1c.4-.3.6-.7.8-1.1-.5.2-.6.7-.8 1.1zm1.9-.4c.3-.3.5-.7.7-1.2-.5.2-.5.8-.7 1.2zm1.8.6c.3-.3.7-.7.7-1.1-.4.3-.6.7-.7 1.1zm-5.5-.2c.3-.2.5-.4.6-.8-.3.2-.5.5-.6.8zm2.7.2c.3-.3.6-.6.7-1.1-.4.3-.5.8-.7 1.1zm3.8.3c.4-.3.7-.6.9-1-.4.2-.7.6-.9 1zm-5.4-.1c.2-.2.4-.4.5-.6-.3 0-.4.3-.5.6zm6 .2c.4-.2.7-.4.9-.8-.3.2-.6.5-.9.8z"/><path d="M39.4 64.5c.9-.5 1.9-.5 2.8-.2.1.1.3.2.4.3-.6 0-1.3-.3-1.9-.2-.4 0-.9.2-1.3.3v-.2z" style="fill:#1688b5"/><path class="st28" d="M59.3 70.9c-.3.8-.7 1.4-1.2 2.1-1.1 1.6-2.5 2.8-4 4.1-1.4 1.2-2.8 2.4-4.1 3.7 0 0 0-.1.1-.2 1.3-1.3 2.6-2.5 4-3.8.8-.8 1.7-1.5 2.5-2.4 1-1 1.8-2.3 2.7-3.5z"/><path class="st26" d="M28 76.8c.7 2 1.7 3.9 3.1 5.5.7.9 1.6 1.8 2.2 2.8-.2-.1-.3-.2-.4-.4-.6-.8-1.3-1.5-1.9-2.2s-1.2-1.3-1.6-2.1c-.5-.9-.9-1.8-1.1-2.7-.3-.4-.3-.7-.3-.9z"/><path d="M78.1 78.2c.4-.3.7-.7 1.1-1-.1.5-.5.8-.9 1.2-2.9 3-5.6 6.2-7.7 9.8-.3.6-.6 1.2-1 1.7.1-.3.3-.6.5-.9 1-2 2.2-3.9 3.6-5.7s2.8-3.6 4.4-5.1z" style="fill:#11303b"/><path class="st16" d="M39.5 93.3c.7-.2 1.3.7 1.1 1.3-.2.6-.6 1.2-1.3 1.3-.6.1-1.1-.7-.8-1.2.2-.6.4-1.2 1-1.4z"/><path d="M68.9 94.3c.3-.4.6-.7 1-1 0 .3-.2.5-.4.7-1.5 1.7-2.8 3.5-4 5.5-.5.8-1 1.6-1.4 2.5-.3.5-.5 1-.8 1.4 0-.5.3-.9.5-1.3.8-1.7 1.8-3.3 2.9-4.9.6-1 1.3-2 2.2-2.9z" style="fill:#11313d"/><path class="st28" d="M65.9 94.7c.1-.2.2-.3.4-.4-.2.6-.5 1.2-.8 1.8-.9 1.8-1.8 3.6-2.2 5.5-.1.7-.5 1.3-.5 2 0-.3-.1-.6 0-.9.2-.7.3-1.5.5-2.2.3-1 .7-2 1.1-2.9.4-1 .9-2 1.5-2.9zM4.4 97.2c.8.4 1.6.7 2.4 1.1 1.5.8 2.7 2 3.7 3.4.3.5.6.9.8 1.4l-.6-.9c-1.1-1.6-2.6-3-4.4-3.9-.6-.3-1.4-.5-1.9-1.1z"/><path class="st26" d="M-11.7 101.6c.7-1.4 1.2-3 2.1-4.3-.1.2-.1.4-.2.6-.6 1.9-1.4 3.7-2.2 5.5-.6 1.4-1.4 2.9-1.7 4.4-.1.8-.2 1.5-.3 2.3 0 .4 0 .8-.1 1.2-.1-1 0-1.9.1-2.9.1-1.1.4-2.1.8-3.1.3-1.2.9-2.5 1.5-3.7zM3.4 99.6c.7 0 1.3.3 2 .5 1.3.5 2.5 1.3 3.6 2.3.8.7 1.5 1.5 2.3 2.2.2.2.3.4.4.6-.1 0-.2-.1-.2-.2-1.4-1.3-2.8-2.7-4.4-3.7-1.2-.7-2.5-1.1-3.7-1.7z"/><path class="st12" d="M67.5 102.2c.2-.1.5-.2.7-.2-.7.6-1.5.9-2.2 1.4.5-.5 1-.8 1.5-1.2z"/><path class="st31" d="M16.9 58.4h.2c.2 2.5.4 5 1 7.4.2 1.2.7 2.3 1 3.4.1.4.3.9.5 1.3.5 1 1 2.1 1.6 3.1.5.7.8 1.4 1.3 2.1.7.9 1.5 1.9 2.2 2.9.7.8 1.3 1.6 2 2.4.7.9 1.6 1.6 2.4 2.4.6.6 1.2 1 1.8 1.6 1.1 1.1 2.4 2.1 3.5 3.2.7.6 1.4 1.3 2.2 1.9.4.3.8.5 1.1.9.4-.5.6-1.3 1.3-1.5v.3c-.5.5-.9 1.1-1.3 1.7-1.1 1.7-1.9 3.6-2.3 5.6-.2.9-.4 1.8-.4 2.7.2-1 .7-1.8 1.1-2.7.8-1.5 1.6-3 2.7-4.3 2.1-2.6 4.6-4.9 7.5-6.6 2.1-1.4 4.4-2.4 6.5-3.9 1.3-.9 2.7-1.7 3.9-2.7.9-.7 1.8-1.5 2.5-2.4 1-1 1.9-2.2 2.7-3.4.3-.5.7-1.1.9-1.7.4-1.3 1-2.5 1.4-3.8.4-1.4.8-2.8.9-4.3.3-1.8.3-3.6.4-5.4.2.3.2.6.2 1 0 2-.2 4-.5 6-.3 1.5-.7 2.9-1.2 4.3-.4 1.1-.8 2.2-1.4 3.1-.5.9-.9 1.8-1.5 2.6-1.4 1.7-2.9 3.2-4.6 4.6-1.2 1-2.5 1.7-3.8 2.6-1.7 1.2-3.6 2-5.4 3.1-1.5.9-3 1.8-4.3 3-.9.7-1.8 1.6-2.6 2.5-1.7 1.7-2.9 3.6-3.9 5.8-.5.9-1 1.8-1.3 2.8 1.1 0 2.2-.1 3.4-.1.9 0 1.7.1 2.6.2 2.2.2 4.5.4 6.7.8 1.5.3 3.1.5 4.6.9 1.2.2 2.4.7 3.6 1.1 1.3.4 2.6.7 3.9 1.2 2.5.9 5.1 1.6 7.6 2.4 1.1.4 2.2.7 3.3 1-.8.4-1.6 0-2.3-.2-2.1-.7-4.2-1.4-6.3-2-1.5-.5-3.1-1.1-4.6-1.5-1.3-.4-2.5-.7-3.8-1.2-1.6-.4-3.2-.8-4.9-1.1-1.9-.4-3.9-.7-5.8-.9-1.3-.1-2.6-.2-3.8-.3-1.7-.2-3.4 0-5.2 0-2.4.2-4.8.2-7.2.6-1.8.2-3.5.5-5.3.8-.7.2-1.4.3-2.2.4-.2 0 .1.3.1.4-.2.5-.4 1-.7 1.5-.7 1.5-.9 3-1.3 4.6 2.1.6 4.2 1.3 6.3 2 1.8.7 3.6 1.5 5.4 2.3.1.1.3.1.5.1 2.3 0 4.5-.2 6.8-.4 2.5-.2 4.9-.4 7.4-.7h.5c-.3.2-.8.2-1.2.3-2.7.4-5.4.8-8.1 1-1.7.1-3.3.3-5 .2 1.6.7 3.2 1.5 4.7 2.4.7.4 1.3.9 2.1 1.2 1.4.1 2.8.1 4.2 0 3.2-.3 6.3-.7 9.5-.5v.2c-2.9 0-5.8.3-8.7.6-1.5.2-3.1.2-4.7 0 1.9 1.1 3.7 2.1 5.5 3.4 1.3.8 2.5 1.7 3.7 2.6 2.8 2 5.7 3.8 8.7 5.4 1 .5 1.9 1.1 3 1.4 1.2.5 2.4 1 3.6 1.2 1.2.2 2.4.5 3.7.7 1.2.2 2.4.3 3.6.3 1.6.1 3.2 0 4.8-.4.8-.2 1.7-.4 2.5-.8.9-.4 1.8-.8 2.6-1.3 1.5-.9 3.1-1.8 4.6-2.8.6-.4 1-.9 1.4-1.4.1-.1.2-.1.3-.1.1.2-.1.4-.2.6-.4.5-.8 1-1.3 1.4-1.1.8-2.3 1.5-3.5 2.2-.8.4-1.5.9-2.3 1.3-1 .4-1.9 1-2.9 1.2-2.3.7-4.8.8-7.3.6-1.5-.1-3.1-.3-4.6-.6-.9-.2-1.8-.3-2.7-.6-.7-.2-1.4-.5-2.1-.8-.6.4-1.2.6-1.9.8-2 .8-4.1 1.5-6.2 2.1-2.1.7-4.2 1.3-6.4 1.8-1.3.3-2.5.7-3.8.9-1.3.3-2.7.7-4 .9-1.1.1-2.1.3-3.2.3s-2.2.1-3.2.1c0 .5-.1 1.1 0 1.6 0 .7-.1 1.5-.1 2.2-.2 1.9.2 3.7.5 5.6.2 1 .5 2 .7 3 .4 2.2 1.2 4.4 1 6.7-.2 2.3-1.1 4.4-2 6.5-1 2.1-1.3 4.5-1.4 6.8-.1 1.7 0 3.3.2 5 .2.9.4 1.9.5 2.8.2 1.1.5 2.2.8 3.3.1.5 0 1.1 0 1.6-.3-.5-.2-1.1-.4-1.7-.3-1.1-.7-2.3-.8-3.4-.1-1.1-.5-2.2-.6-3.4-.3-2.7-.2-5.5.3-8.2.4-1.9 1.3-3.6 2-5.4.5-1.3.8-2.7.9-4 .1-1.6-.3-3.1-.7-4.6-.3-1-.3-2-.6-2.9-.3-1-.5-2-.6-3-.2-1-.3-2-.4-3.1s.1-2.1.2-3.2c0-.7 0-1.4.1-2.1-1.8 0-3.5 0-5.3-.1-.9 0-1.8-.1-2.6-.1-1.6-.1-3.2-.1-4.9-.2-1.6-.1-3.2-.5-4.8-.8-3.1-.6-6.2-1.5-9.1-2.6-1-.4-2-.9-3-1.4-1.3-.6-2.3-1.5-3.4-2.3-.7-.4-1.3-.9-1.9-1.5-1.1-1-2.2-1.8-3.1-2.9-.3-.4-.7-.8-.9-1.3.1 0 .3 0 .4.1.7.8 1.4 1.6 2.1 2.3l2.4 2.1c1 .7 2.1 1.4 3.1 2.2.9.7 2 1.1 3 1.6 2 1 4.2 1.6 6.3 2.2 2.4.7 4.8 1.2 7.2 1.5 2.8.4 5.6.2 8.3.5.6.1 1.2 0 1.9.1-.9-.2-1.7-.7-2.6-1-1-.5-2.1-1-3-1.6-.7-.4-1.3-1-2-1.5-1-.7-1.9-1.4-2.9-2.1.7.1 1.2.6 1.8 1 .8.5 1.7 1.1 2.5 1.7 1.6 1.2 3.5 2 5.4 2.9.8.3 1.5.7 2.4.7 1.5.1 3 0 4.5 0 1.1-.1 2.3-.1 3.4-.2.9-.1 1.9-.3 2.8-.4-.9-.1-1.9-.2-2.7-.5-2-.7-4-1.4-5.9-2.4-1.6-.9-3.1-1.8-4.8-2.5-1-.4-2-.8-3-1.3-.7-.4-1.4-.7-2-1.1.6 0 1.1.3 1.6.5 1.1.5 2.2 1 3.3 1.4 1.8.7 3.4 1.6 5.1 2.5 1.8 1 3.8 1.6 5.8 2.3 1.1.5 2.4.6 3.6.6 3.4-.7 6.7-1.7 10-2.6 2-.7 4-1.2 6-2 1.3-.4 2.5-.9 3.7-1.4-1.8-.8-3.5-1.8-5.2-2.8-2.2-1.3-4.2-2.6-6.3-4.1-1.5-1.1-3.1-2.2-4.7-3.3-2-1.3-4-2.4-6.1-3.6-2-1.3-4.2-2.3-6.4-3.3-.4-.2-.8-.2-1.2-.3 0 0 .1-.1.1-.2-1.3-.6-2.7-1.2-4-1.7-3.4-1.3-6.9-2.3-10.4-3.1-1.9-.5-3.8-.6-5.8-1-.9-.1-1.8-.2-2.6-.5.2-.3.6-.2.9-.2 2.1.2 4.1.4 6.2.8.3-1.1.6-2.2 1-3.3-.1 0-.2 0-.2.1.4-.3.4-1 .6-1.4.3-1 .3-2.2.4-3.3 0-.6.1-1.3-.2-1.8-.3-.7-.6-1.5-.9-2.2-.9-2-2-3.8-3.3-5.5-.2-.2-.3-.4-.4-.6.5.5 1 1 1.4 1.6 1.4 1.9 2.6 4 3.2 6.4-.1-1-.2-1.9-.3-2.9 0-.6-.2-1.2-.2-1.9l.3.9c.2.7.2 1.5.3 2.2.2 1.3.4 2.6.3 3.9-.1.7-.1 1.4-.2 2.1-.1.7-.3 1.3-.4 2 1.5-.6 3-1.2 4.6-1.4.8-.1 1.5-.2 2.3-.4.9-.3 1.9-.3 2.9-.5s2-.3 3-.5c2.6-.5 5.3-.6 7.9-.7.1-2.5.8-5 1.9-7.3.3-.6.6-1.1.9-1.6-.8-.7-1.7-1.3-2.5-2-.5-.4-1.1-.9-1.6-1.4-.9-.8-1.8-1.5-2.7-2.4-.7-.7-1.5-1.2-2.1-1.9-.8-.8-1.6-1.5-2.4-2.4-.7-.8-1.3-1.5-2-2.3-.7-.9-1.4-1.9-2.1-2.8-.4-.5-.6-1-1.1-1.4-.9-.8-1.9-1.6-2.8-2.4-.5-.5-1.1-.9-1.6-1.3-.6-.5-1.5-1.2-2.5-1.8-.4-.3-.9-.5-1.1-.9.9.5 1.9.8 2.7 1.4 1.3.9 2.6 1.9 3.7 3l1.8 1.8c-.7-1.1-1.2-2.2-1.8-3.4-.3-.5-.5-1-.6-1.6-.3-.9-.6-1.7-.8-2.6-.3-1.3-.7-2.6-.8-4-.1-1.2-.4-2.6-.2-4zM14 103.8c-.4 1.2-.6 2.4-1.1 3.6 1.5.3 3 .8 4.5 1.2.4-2.2 1-4.4 2.2-6.3-1.9.3-3.8.7-5.6 1.5z"/><path class="st12" d="M68.7 103.5c.7-.3 1.3-.7 2.1-.7-1.4.5-2.7 1.1-3.9 1.8.5-.5 1.1-.8 1.8-1.1z"/><path d="M-9.3 103.9c.1-.4.1-.8.4-1 .1.7-.2 1.3-.4 2-.6 1.8-1.4 3.5-2 5.4-.4 1.2-.7 2.4-.8 3.7-.1 1.3-.1 2.6 0 4 0 .7.2 1.3.3 2-.2-.6-.5-1.3-.6-1.9-.1-1.2-.1-2.5 0-3.7s.4-2.4.7-3.6c.6-2.6 1.8-4.7 2.4-6.9z" style="fill:#13333e"/><path class="st12" d="M67.8 106.4c.5-.6 1.1-1 1.8-1.1-.6.4-1.1.8-1.8 1.1z"/><path class="st26" d="M73 105.7c.5-.2 1-.1 1.5-.2h3.9c1.7.1 3.4.4 5 .7.4.1.9.2 1.2.4-1.4-.4-2.9-.5-4.3-.6-2.2-.2-4.5-.2-6.7-.2-.2.1-.4 0-.6-.1z"/><path class="st31" d="M71.1 107.3c2.2-.1 4.5.3 6.7.7 1.5.3 3 .8 4.4 1.3.9.3 1.8.6 2.6 1.1v.2c-.8-.5-1.8-.7-2.7-1-2.6-.9-5.3-1.4-8-1.8l-3-.3v-.2zM70 107.9c.4 0 .7.1 1.1.3 2.9.9 5.4 2.8 7.9 4.4.7.5 1.6.9 2.1 1.7-.3 0-.6-.3-.8-.5-1.8-1.2-3.7-2.2-5.6-3.4-1.3-.8-2.6-1.4-4-2.1-.2-.1-.5-.2-.7-.4zM86 128.7c.1.7.1 1.4-.2 2.1-.6 1.4-1.3 2.7-2.1 3.9-2 3.2-4.1 6.3-6 9.7-.5.8-.8 1.7-1.3 2.5 0-.3.2-.6.3-.9 1.8-4 4.2-7.7 6.6-11.4.8-1.3 1.6-2.6 2.2-4 .2-.7.3-1.3.5-1.9zM-10.6 137.4c-.6-2.3-.6-4.7-.2-7 .1 1.3.1 2.6.1 3.9.1 2.3.9 4.4 1.5 6.6.6 1.9 1.2 3.8 1.9 5.6 0 .2.1.3.1.5l-.3-.6c-1.2-3-2.3-6-3.1-9zM86.3 134.8c.5.5 0 1.2-.2 1.7-1.3 2.5-2.8 4.9-4.5 7.1-.4.6-.8 1.2-1.3 1.7.2-.5.5-.9.8-1.4 1.3-2 2.5-3.9 3.7-6 .6-.9 1.2-1.9 1.5-3.1z"/><path d="M-12.5 139.8c.1.5.1 1.1.2 1.6.7 3.4 1.6 6.8 3 9.9-.5-.5-.7-1.3-1-1.9-1-2.5-1.7-5-2.3-7.6-.1-.6-.2-1.3.1-2z" style="fill:#12313d"/><path class="st16" d="M34.8 141.9c.3-.2.8 0 1 .3.3.6.2 1.4-.3 1.8-.3.3-.8.3-1.1 0-.2-.2-.5-.4-.7-.7-.1-.3-.1-.6 0-.9.4-.2.8-.3 1.1-.5z"/><path class="st31" d="M77.8 149.3c2-.5 3.9-1.1 5.7-1.9.1.6-.6.7-1 .9-1.3.4-2.5.9-3.8 1.2-1.8.4-3.5.9-5.3 1.3-2.3.5-4.7.8-7.1 1.2-1.4.2-2.9.4-4.3.5-1.4.1-2.9.3-4.3.3-1.4.1-2.8.2-4.3 0v-.2c3.2-.1 6.4-.4 9.5-.7 2.3-.3 4.5-.6 6.8-.9 2.8-.4 5.5-1.1 8.1-1.7zM-14.5 152.3c.5-.1.9.3 1.4.4.4-.1.8.1 1.1.1 1.2.3 2.5.4 3.7.6 1.5.2 3.1.4 4.6.4 1.2.1 2.4 0 3.6.1 1.3.1 2.6.2 4 .2 1.8.1 3.7 0 5.5 0 1.2 0 2.4-.1 3.6-.1.5 0 1.1 0 1.5.3-.2.8-.1 1.7-.2 2.5-.1 1 0 2-.1 3.1 0 .2-.2.3-.3.4-.1 1.5-.1 3.1-.2 4.6-.1.9-.1 1.7-.1 2.6 0 2.9-.4 5.7-.7 8.5-.4 2.2-.7 4.4-1.8 6.4-.6 1.1-1.6 1.9-2.8 2.4.4-.1.8-.2 1.2-.4-.3.4-.8.6-1.3.7-1.5.5-3 .1-4.5 0-2.3-.2-4.7-.2-7-.5-1.4-.1-2.7-.4-4.1-.5-1.9-.2-3.9-.6-5.7-1.2-.4-.1-.9-.2-1.3-.5.4-.2.9 0 1.3.1.9.2 1.9.5 2.9.7 1.2.3 2.5.4 3.8.6 1.8.3 3.6.6 5.4.8 1.9.1 3.9.3 5.8.4.7.1 1.4.1 2 .2.7.1 1.4-.4 2-.7.9-.5 1.5-1.2 2-2 1.1-1.9 1.4-4.2 1.8-6.4.3-2.8.7-5.6.7-8.5 0-1.7.2-3.5.3-5.2 0-.7.1-1.3.2-1.9-1.2.4-2.6.6-3.8.7-1.3.2-2.6.3-3.8.3-1.7.2-3.5.3-5.2.1-1.1-.1-2.2-.1-3.3-.2-1.2-.2-2.5-.3-3.7-.4-1.3-.1-2.5-.5-3.8-.7-1.1-.2-2.2-.5-3.3-.7-.5-.2-1.1-.2-1.4-.6.2-.1.4-.2.5-.1.8.3 1.7.4 2.5.7 1.2.3 2.4.4 3.5.7s2.2.4 3.3.5 2.2.3 3.3.4c1.5.1 2.9.3 4.4.2 1.4 0 2.7-.2 4.1-.2 1.8-.1 3.6-.3 5.3-.6.5-.1 1.1-.2 1.5-.5 0-1.7.1-3.4.2-5.1v-.1c0-.1.1-.2.2-.2-1.4 0-2.8.1-4.1.1-3.1 0-6.2 0-9.2-.1-1.8-.2-3.6-.1-5.4-.2-1.3-.1-2.6-.3-3.9-.4-1.4-.1-2.8-.3-4.2-.8-.4.1-.8-.2-1.2-.3-.3-.1-.7 0-.9-.3.1-.3.1-.4.1-.4z"/><path class="st31" d="M83.2 148.3c0-.2.2-.3.4-.3v.4c.2.5.5 1.1.6 1.7.1.7.1 1.4.2 2.1.1.6.1 1.3-.1 1.9 0 1 .1 1.9.1 2.9.1 1.7.3 3.4.3 5 0 3.7.2 7.5-.3 11.2-.1 1-.2 1.9-.5 2.8-.2.3-.3.6-.4 1-.4.7-1.1 1.2-1.8 1.5-.9.5-1.9.8-2.9 1.2-2.3.7-4.5 1.6-6.9 2-1.2.3-2.4.5-3.6.7-1.7.2-3.4.4-5.1.3-1.1 0-2.3-.3-3.3-.8-.7-.3-1.2-.9-1.6-1.4-.7-.9-1.1-2-1.3-3.1-.3-1.6-.5-3.2-.8-4.8-.4-2.4-.6-4.8-.8-7.1-.2-1.4-.2-2.7-.4-4.1-.1-1.1-.1-2.3-.4-3.4-.2-.4-.2-.9-.3-1.3-.2-1.1-.4-2.2-.7-3.2h.2c.4 1.1.6 2.4.9 3.5.1.3 0 .8.4.9 1 .2 2 .2 3.1.2h5.1c2.7.1 5.4-.3 8-.8 1.5-.3 3-.5 4.5-.8 1.4-.3 2.7-.5 4.1-1 1.2-.3 2.4-.8 3.6-1.1.3-.1.7-.2.7-.5.2-.7 0-1.4-.1-2.1-.1-.7-.1-1.4-.3-2-.3-.7-.6-1.1-.6-1.5zm-.9 6.4c-1.2.4-2.5.8-3.8 1.2-1 .2-1.9.4-2.9.6-1.4.3-2.9.5-4.4.8-2.7.5-5.3.9-8 .9h-5.1c-1.1 0-2.3 0-3.4-.3.1.4.2.7.2 1.1.4 3.8.8 7.6 1.1 11.4.2 1.4.5 2.7.6 4.1.1 1.1.4 2.1.5 3.2.2 1.1.8 2.2 1.7 3 .5.5 1.2.8 1.9 1.1 1.1.4 2.3.4 3.5.4 1.4-.1 2.9-.2 4.3-.4 1.3-.2 2.5-.5 3.8-.7s2.5-.7 3.7-1c1.2-.4 2.4-.8 3.5-1.2.9-.3 1.8-.7 2.7-1.3.4-.2.5-.6.7-1 .9-1.5.8-3.3 1-4.9.3-3 .2-5.9.1-8.9 0-1.2 0-2.5-.1-3.7-.1-1.6-.1-3.3-.1-4.9-.3.2-.9.3-1.5.5zM34.9 155.9c.5.2.4.8.4 1.2-.3 2.1-1.2 4-2 5.9-.5 1.1-.9 2.3-1.4 3.4-.1.1-.2.3-.3.4.1-.5.3-.9.4-1.3.7-2.2 1.6-4.3 2.4-6.5.3-1 .7-2 .5-3.1zM-15 165.5c.4.7.5 1.5.9 2.3 1 1.8 2 3.6 2.8 5.4 1 2.1 1.9 4.3 2.8 6.4 0 .1.1.3.1.4-.5-.7-.7-1.5-1.1-2.2-1.2-2.6-2.4-5.2-3.7-7.7-.8-1.5-1.8-2.9-1.8-4.6z"/><path class="st16" d="M34.2 166.8c.7-.2 1.1.6 1 1.2-.1.4-.3.9-.7 1.1-.4.1-.7-.2-.9-.4s-.4-.5-.3-.8c.2-.5.4-1 .9-1.1z"/><path class="st31" d="M50.9 172.6c.4 1 .5 2.1.3 3.2-.2 1.5-.4 3-.5 4.5-.1 1.3-.2 2.7-.1 4h-.1c-.2-.9-.1-1.8-.1-2.7.1-1.7.1-3.4.3-5.1.1-.8.2-1.5.2-2.3 0-.5-.1-1 0-1.6zM85 181.2c.4-.1.8-.4 1.2-.4-.1.5-.7.6-1.1.8-1 .4-2 .9-3 1.2-1.6.6-3.2 1.2-4.8 1.7-2.3.7-4.6 1.2-6.9 1.9-1.4.4-2.7.5-4.1.8-1.3.2-2.6.6-4 .8s-2.8.5-4.2.7c-.1-.1-.3-.1-.4-.2 1.4-.2 2.8-.5 4.2-.7l3-.6c1.3-.3 2.7-.5 4-.8s2.5-.7 3.8-1c2.1-.6 4.2-1.1 6.3-1.8.9-.3 1.8-.7 2.7-1 1.2-.5 2.2-1.1 3.3-1.4z"/><path class="st8" d="M30.7 186.2c0-.5-.1-1 0-1.5.2.4.2.9.3 1.3.1 1.4.2 2.9.3 4.3.2 1.7.1 3.4.1 5.1 0 .9 0 1.8-.1 2.6-.2 1.8-.3 3.6-.2 5.4.2 2.8 0 5.6-.1 8.4-.1 1.1-.1 2.3-.3 3.4-.1.5 0 1-.1 1.6-.3-.3-.2-.7-.2-1 .2-2.7.3-5.3.4-8 0-1.5 0-3.1-.1-4.6-.1-1.7 0-3.3.2-4.9.1-1 .1-2 .1-3 0-1.5 0-3.1-.1-4.6-.1-1.5-.2-3-.2-4.5z"/><path d="M-13.7 185.9c1 .3 2 .6 2.9.9 1.4.5 2.9.6 4.3.8 2 .5 4.1.8 6.2 1.3 1.6.3 3.3.3 4.9.6 2.8.2 5.5.6 8.2.8 1 .1 2.1 0 3.1.1 1.9.2 3.9 0 5.8 0 1.5 0 2.9-.3 4.4-.5.6 0 1.1-.3 1.7-.2-.2.3-.6.3-.9.4-2.1.3-4.3.6-6.4.6-1.5 0-2.9.1-4.4 0-.8-.1-1.6-.1-2.4-.1-2.5-.1-4.9-.4-7.4-.7-1.5-.1-3.1-.4-4.6-.5-1.3-.1-2.6-.4-3.9-.7-1.2-.3-2.4-.4-3.6-.7-1.4-.4-3-.4-4.4-.8-.8-.2-1.6-.5-2.4-.7-.4-.1-.9-.2-1.2-.5.1.1.1 0 .1-.1z" style="fill:#14333f"/><path d="M51.9 189.2c2-.2 3.9-.5 5.9-.8.1.1.3.1.4.2-1.1.2-2.3.3-3.4.5-1.4.2-2.8.4-4.2.4-1.5.1-2.9.2-4.4.2-1.4 0-2.9-.1-4.3-.1-1.5.1-2.9.1-4.4.1-1.9-.1-3.9.1-5.8-.4.4-.1.8 0 1.2 0 .9.2 1.9.1 2.8.2h3.2c1.5.1 3.1-.1 4.6 0 2.8.1 5.6-.2 8.4-.3z" style="fill:#25424d"/><path d="M71.8 222.5c.8-1.6 1.8-3.2 2.2-4.9.1.9-.3 1.7-.6 2.4-.8 1.7-1.6 3.3-2.5 4.9-1 1.8-2.1 3.6-3 5.4-1.1 2-2.2 4.1-3.2 6.1-.3.7-.6 1.4-1.1 2 1.8-3.6 3.5-7.3 5.5-10.8.9-1.7 1.9-3.4 2.7-5.1z" style="fill:#ca994a"/><path class="st8" d="M23.8 224.2c.7-1.2 1.3-2.5 2-3.8.1.7-.3 1.3-.5 1.9-1.7 3.9-4.5 7-7 10.4-.5.6-1 1.4-1.6 1.9.2-.5.5-.8.8-1.2 2.1-3.1 4.5-6 6.3-9.2zM41.9 224.2c.6 1.8 1.7 3.3 2.9 4.8 2.1 2.5 4 5.2 5.7 8-.2-.2-.4-.3-.6-.6-1.1-1.6-2.2-3.2-3.4-4.7-1-1.3-2.3-2.5-3.2-4-.5-.8-1-1.6-1.3-2.5-.1-.3-.1-.7-.1-1zM41.5 228.8c-.2-.6-.5-1.2-.4-1.8.7 1.8 1.4 3.6 2.3 5.3 1.5 3.1 3.2 6.2 4.9 9.2-.1 0-.2-.1-.2-.1-.9-1.5-1.8-3-2.6-4.5-.9-1.6-1.9-3.2-2.6-5-.6-1-1-2-1.4-3.1zM68 235.3c1.4-2.5 2.7-5 4.1-7.4-.2.8-.6 1.6-.9 2.4-1.6 3.2-3.4 6.3-5.2 9.5-1.1 1.9-2.1 3.8-3 5.7-.5 1-.9 2.2-1.4 3.2.1-.7.5-1.4.8-2.1 1.6-4 3.6-7.6 5.6-11.3z"/><path class="st37" d="M29.1 233c.1 0 .2 0 .3-.1 0 .6-.2 1.2-.2 1.9-.3 2.3-.2 4.6 0 6.9.1.8.1 1.7.3 2.5l-.1.1c-.3-.8-.4-1.7-.5-2.5-.2-2-.4-4-.2-5.9.1-1 .4-2 .4-2.9zM14.6 261.3c1 .6 2 1.2 3.1 1.6 1.8.7 3.6 1.4 5.4 1.8 1.6.4 3.3.4 4.9.7 2 .3 3.9 1.2 5.8 1.9.8.3 1.6.6 2.3 1.1-1.3-.6-2.6-1-3.9-1.5-1.2-.4-2.5-.9-3.8-1.1-1.9-.3-3.9-.4-5.7-.9-1.8-.4-3.5-1.2-5.2-1.9-1-.3-2-1-2.9-1.7z"/><path class="st8" d="M25.8 269.7c1.2.3 2.4.2 3.7.4 3.1.3 6.1 1.5 8.8 3 .2.1.4.3.6.5-.6-.1-1.1-.4-1.6-.6-1.7-.8-3.5-1.5-5.4-1.9-1.5-.4-3-.5-4.5-.7-.6-.2-1.2-.3-1.6-.7zM40.3 272.7c.5 0 .9.4 1.3.7 1.2.9 2.3 1.9 3.3 3.1 1 1.3 1.8 2.7 2.6 4.2.3.6.6 1.1.7 1.7-.3-.4-.5-.8-.8-1.2-.9-1.7-2-3.4-3.3-4.8-.9-1-1.9-1.8-2.8-2.7-.4-.3-.8-.6-1-1z"/><path d="M67.9 278.3c.1.6-.1 1.2-.2 1.7-.5 1.8-1.3 3.5-2.1 5.3 0 2.2.6 4.3 1.5 6.3.6 1.3 1.3 2.6 2.2 3.7.3-1.2.6-2.3.9-3.5.5-2.3 1.3-4.5 1.8-6.8.3-1.3.7-2.7 1.2-4 .1-.2.1-.5.3-.6.1.7-.3 1.3-.4 1.9-.5 1.3-.8 2.7-1.2 4.1-.5 1.9-1.1 3.8-1.6 5.8-.6 2.3-1.1 4.7-1.8 7-.6 2.2-1.3 4.3-2.1 6.4-.7 1.9-1.8 3.7-3 5.4-.9 1.5-1.8 2.9-2.9 4.3-.4.6-.9 1.1-1.3 1.7-.1.2-.4.3-.6.4 1.2-1.7 2.5-3.3 3.6-5 1.2-1.9 2.5-3.7 3.4-5.7.7-1.5 1.2-3.1 1.7-4.7.7-2.1 1.2-4.1 1.7-6.2-1-1.8-2-3.8-2.8-5.8-.5-1.4-.7-2.9-.8-4.3-1 1.6-2.1 3.1-3.4 4.5l-1.8 1.8c-.6.7-1.3 1.4-1.8 2.2-.2.3-.4.7-.8.8.1-.5.4-.8.7-1.2.6-.8 1.3-1.5 2-2.2.6-.7 1.3-1.3 1.9-2 .7-.7 1.2-1.5 1.8-2.3.6-.8 1.1-1.6 1.5-2.5.6-1.4 1.3-2.8 1.7-4.2.4-.8.5-1.6.7-2.3z" style="fill:#84745b"/><path class="st37" d="M54.5 285c.4-.4.8-.9 1.2-1.2-.4.8-1 1.3-1.6 2-1 1-1.9 2.1-3.2 2.6-.3.1-.6.1-.8.1.6-.3 1.2-.6 1.7-1 .9-.8 1.8-1.6 2.7-2.5z"/><path d="M75.7 283.5c.3.1.8.1.9.5.1 1-.2 2-.6 2.9-.4 1.1-1 2.1-1.6 3.2-.5 1-1 2-1.5 3.1-.2.5-.4 1-.7 1.4-.3.6-.4 1.2-.6 1.8-.4 1-.5 2-.7 3-.3 1.3-.8 2.6-1.3 3.9-.6 1.6-1.4 3.1-2.2 4.6-1.1 2-2.4 3.8-3.6 5.6-.5.8-1.2 1.6-1.8 2.4-.5.7-.9 1.4-1.4 2h-.3c.7-.9 1.2-1.9 1.9-2.8 1.3-1.7 2.4-3.5 3.6-5.2 1-1.5 1.9-3.1 2.7-4.8.5-1 .8-2 1.2-3 .5-1.2.8-2.5 1.1-3.8.2-.9.4-1.7.7-2.5.8-2.4 1.8-4.7 2.5-7.1.4-1.3.6-2.6 1-3.9.2-.4.4-.8.7-1.3zm-.1.6c-.3.6-.4 1.3-.6 2-.4 1.3-.7 2.7-1.1 4-.3 1-.7 2-1.1 3 .4-.7.7-1.4 1.1-2.1.5-1.1 1.1-2.1 1.6-3.2.4-1.1.9-2.3.9-3.6-.1-.4-.7-.4-.8-.1z" style="fill:#85765c"/><path class="st8" d="M54.8 290.3c1.2-1.4 2.3-2.8 3.2-4.3-.2.8-.7 1.5-1.1 2.1-.7 1.1-1.5 2.2-2.4 3.1-.4.4-.8.8-1.3.8.5-.5 1.1-1.1 1.6-1.7zM40.8 290.6c1.4-.1 2.8-.1 4.1-.5 0 0-.1.1-.1.2-.9.3-1.9.5-2.9.6-1.1.2-2.3.2-3.4-.1-.2 0-.3-.2-.5-.3 1 0 1.9.1 2.8.1zM46 294c1.4-.3 2.7-.8 4-1.2-.3.4-.8.5-1.3.7-1.9.8-3.9 1.2-5.9 1.4-1.1.1-2.3 0-3.5-.1.8-.3 1.6-.2 2.5-.3 1.5.1 2.9-.2 4.2-.5z"/><path d="M57.5 296.9c1.3-.4 2.6-.4 3.9-.3 1.8.3 3.7.6 5.5 1.3.5.2 1.1.4 1.5.8-.5-.1-1-.4-1.5-.5-2.4-.8-4.9-1.4-7.5-1.3-.6 0-1.2.1-1.9 0z" style="fill:#827259"/><path d="M33 305.6c.6 0 1.1.2 1.7.3 1.2.2 2.3.2 3.5.3-.5.2-1.1.2-1.6.2-1.1-.1-2.1-.1-3.1-.4-.2-.2-.3-.3-.5-.4z" style="fill:#ca9a4b"/><path d="M50.1 305.7c.4 0 .8-.1 1.3 0-.8.4-1.7.3-2.5.3-1-.1-2 0-3-.2 1.4-.1 2.8 0 4.2-.1z" style="fill:#cd9e52"/><path class="st43" d="M33.2 308c.8 0 1.5.2 2.2.3 1 .1 2.1.2 3.1.3h3.6c2 0 4-.2 6-.2.8 0 1.6-.1 2.5-.1-.3.2-.7.2-1 .3-1.5.1-3 0-4.5.2-.8 0-1.7.1-2.5.1-.5 0-.9.2-1.3.3-1.1.4-2.1 1-3 1.6-1.3.8-2.6 1.8-3.6 3-.9 1-1.6 2.3-2.4 3.4.1-.7.6-1.4.9-2 1.1-1.6 2.5-3.1 4.1-4.1 1.3-.8 2.7-1.6 4.1-2.2-1.2 0-2.3 0-3.5-.1-1.6-.1-3.2-.1-4.8-.5 0-.2.1-.3.1-.3z"/><path d="M53 319c.8-.2 1.6-.6 2.4-1 0 .1 0 .3-.2.4-1.2.8-2.7 1-4.1 1.4-1.1.3-2.3.4-3.4.6-1.4.2-2.8.3-4.2.4-1.5.1-2.9 0-4.4 0-1 0-1.9-.2-2.9-.3-.8-.1-1.6-.2-2.5-.4-.6-.1-1.2-.4-1.8-.6v-.2c.7.1 1.4.4 2.2.5 1.1.3 2.3.4 3.4.5 1.1.2 2.1.1 3.2.2 1.5.1 2.9 0 4.4-.1 1.2-.1 2.4-.2 3.6-.4 1.5-.2 2.9-.6 4.3-1z" style="fill:#83735a"/><path class="st43" d="M54.6 320.6c.4-.2.8-.5 1.2-.6-.3.4-.9.7-1.3 1-.9.5-2 .9-3 1.3-1.1.4-2.3.7-3.5.8-1.8.2-3.7.3-5.5.3-1.5-.1-3 0-4.5-.1-1.9-.2-3.9-.5-5.7-1.1-.2-.1-.4-.2-.5-.4 1.2.4 2.3.8 3.6 1 2.5.5 5 .5 7.5.5 2.6-.1 5.2-.2 7.7-1 1.4-.4 2.8-1 4-1.7z"/></g></svg>