<svg version="1.1" id="Layer_1" xmlns="http://www.w3.org/2000/svg" xmlns:xlink="http://www.w3.org/1999/xlink" x="0" y="0" viewBox="0 0 86 86" style="enable-background:new 0 0 86 86" xml:space="preserve"><style>.st3{fill:#3695ad}.st4{fill:#46acc3}.st5{fill:#e8625b}.st6{fill:#c76847}.st7{fill:#cf5854}.st8{fill:#e87950}.st9{fill:#31869b}.st10{fill:#1b4e61}.st11{fill:#184657}.st12{fill:#c4603d}.st13{fill:#e97951}.st14{fill:#dd4f31}.st15{fill:#11303b}.st16{fill:#102f3b}.st17{fill:#163441}.st18{fill:#12323e}.st19{fill:#12313d}.st27{fill:#e6f0da}.st28{fill:#f9f7dc}.st29{fill:#af3116}.st32{fill:#247082}.st33{fill:#206e7f}.st34{fill:#206e80}.st37{fill:#c4613d}.st40{fill:#ab3e3b}.st41{fill:#ab3e3a}.st43{fill:#b75b58}.st47{fill:#348799}</style><defs><circle id="SVGID_1_" cx="43" cy="43" r="43"/></defs><clipPath id="SVGID_2_"><use xlink:href="#SVGID_1_" style="overflow:visible"/></clipPath><path style="clip-path:url(#SVGID_2_);fill:#c5d2ff" d="M0 0h86v86H0z"/><g style="clip-path:url(#SVGID_2_)"><path d="M61 61.2c.3-.2.7-.1 1.1-.1.4.3.9.3 1.3.7.4.3.8.5 1.3.8.5.3 1 .7 1.5 1 1.2.5 2.3 1.2 3.4 1.9l3.6 2.1c1.3.8 2.7 1.6 4 2.3 2.9 1.7 5.7 3.5 8.4 5.4 1.6 1.2 3.1 2.6 4.6 3.9.8.7 1.5 1.5 2.2 2.3 1.1 1.2 2.1 2.4 3.1 3.7C97 87 98.1 89 99.4 91c1.8 3.1 3.3 6.5 4.2 10 .7 2.8 1.3 5.6 1.8 8.4.4 2.2.9 4.3 1.1 6.6.2 1.6.3 3.2.7 4.7.1.4.2.8.1 1.2-.5.5-1.1.9-1.8 1.2-1.1.5-2.3.6-3.4 1-3 1.1-6.1 1.2-9.2 1.2-1.5-.1-3-.2-4.6-.4-.1-.3-.3-.5-.6-.7.1-1 0-2 .1-3 .2-2.3.8-4.7 1.8-6.8.7-1.6 1.5-3.2 2.6-4.5.6-.7 1.3-1.4 2-2.1.7-.7 1.4-1.5 1.6-2.4.1-.4.1-.8-.2-1.1-.3-.3-.7-.3-1-.2-.5.1-1 .5-1.4.9-.9.8-1.7 1.7-2.4 2.8-.7 1.1-1.1 2.3-2 3.3-.4.7-1 1.1-1.4 1.8-.1.2-.4.2-.6.1.1-.8.6-1.6.9-2.3.5-1 1-1.9 1.5-2.9.6-1.2 1.4-2.2 1.9-3.4.3-.7.8-1.3.7-2.1 0-.3-.1-.6-.4-.8-.4-.3-.9 0-1.2.2-.4.4-.7.8-1 1.3-1.1 1.7-1.9 3.7-2.7 5.6-.1.3-.3.5-.4.7-.1-1 0-2-.1-3-.1-.8-.1-1.6-.2-2.5-.1-1.2-.3-2.4-.5-3.6-.1-.5-.2-1-.5-1.3-.4-.3-1-.2-1.3.1-.4.4-.7 1-.7 1.6-.1 1.6-.2 3.3 0 4.9.2 1.4.3 2.7.5 4.1.1.7 0 1.3 0 2 0 .8-.2 1.6-.1 2.4 0 .2-.1.3-.2.4-.8-1.8-1.5-3.6-2.4-5.4-.8-1.4-1.5-2.8-2.6-4-.3-.3-.5-.7-.9-.8-.4-.1-.5.5-.5.8.8 3.5 1.6 7 2.2 10.6.2 1.3.8 2.6.9 3.9.2 2 .5 4 .4 5.9 0 .7.1 1.5 0 2.2 0 2-.6 4-1.5 5.8-.3.7-.6 1.5-1.2 2.2-.6.8-1.1 1.7-1.6 2.5-.4.7-.4 1.6-.2 2.3.7 2.1 1.5 4.1 2.3 6.1.8 2.2 1.2 4.4 1.7 6.6.3 1.2.5 2.5.7 3.7.1 1 .4 2 .5 3.1.2 2.5.4 4.9.5 7.4.2 1 .3 2.1.7 3.1.1.4.6.4.9.2.1 1.7.2 3.4.2 5.1 0 1 0 2.1-.1 3.1-.1 1.5-.3 3-.4 4.5 0 .4-.1.8-.3 1.1-.2.3-.6.4-.9.6h-.1c-.4.1-.8 0-1.1 0-.6.1-1.2.3-1.9.4l-2.7.3c-2.1.2-4.1.5-6.2.6-2.6.2-5.2.3-7.8-.2-.8-.2-1.7-.3-2.5-.5-2.4-.6-4.7-1.5-7.1-2.1-1.1-.3-2.3-.5-3.5-.7-1.3-.2-2.6-.1-4-.2-1.5 0-2.9.2-4.4.4l-3.6.6c-1.2.2-2.3.3-3.5.4h-1.4c-2.3.3-4.5 0-6.8-.2-1.2-.1-2.4-.3-3.6-.6-2-.5-4.1-.8-6.1-1.4-.8-.2-1.6-.5-2.4-.8-.9-.3-1.7-.6-2.6-.9-1.7-.5-3.3-1.3-5-1.6-.8-.2-1.5-.4-2.2-.7-.2-.1-.5-.3-.8-.2-.1.1-.2.3-.1.5.3.4.6.6 1 .9-1.1-.3-2.2-1-3.3-1.4-.4-.5-.7-1-1.3-1.2-.9-.3-1.9.4-1.9 1.4-.6-.2-1.1-.6-1.7-.5-.2-.2-.3-.4-.4-.7-.4-2.2-.6-4.4-.8-6.6.5-1 1.1-1.8 1.7-2.7.2.3.3.5.6.6.4.1.7-.1 1-.3.1.5.2.9.3 1.4.1.3.2.6.4.7.3.1.6.1.8.4.4.4.3 1 .8 1.4.4.3 1.1.1 1.3-.5.1-.6.2-1.2.1-1.7-.2-1.4-.3-2.7-.3-4.1-.2-1.2 0-2.4-.2-3.5-.1-1.5 0-3 0-4.5.1-2.5.2-5 .6-7.5.2-.9.1-1.9.3-2.8.2-1.8.6-3.7 1.3-5.4.3-.7.8-1.2 1.1-1.9.7-1.6 1.7-3.1 2.6-4.6.5-.8 1-1.5 1.6-2.2.5-.6.9-1.2 1.5-1.7 1.4-1.1 2.8-2.2 4.4-2.9.7-.3 1.5-.6 2.2-1 1.3-.6 2.6-.9 4-1.2 1.5-.3 2.9-.7 4.4-.9 1.2-.1 2.4-.3 3.5-.8-.7-.1-1.4 0-2.1-.2-.7-.1-1.5-.1-2.2-.2-1-.2-1.9-.2-2.9-.3-1.5-.3-2.9-.7-4.4-.9-.7-.1-1.4-.1-2.1-.4-.5-.2-.9-.3-1.4-.5-.7-.2-1.2-.8-1.9-1-.6-.2-1.1-.6-1.7-.9-.4-.2-.6-.5-.8-.8-.3-.5-.7-.9-1-1.5-.3-.7-.4-1.5-.6-2.2-.2-.8-.1-1.6-.1-2.4 0-.7.3-1.4.3-2.1 0-.4.2-.9.3-1.3.2-.6.1-1.3.4-1.8.3-.7.5-1.5.3-2.2-.1-.5-.7-.8-1.2-.6-.6.2-1.2.6-1.5 1.2-.3.5-.7.9-1 1.4-.2.4-.4.7-.6 1.1-.5.8-.9 1.7-1.5 2.5 0-.9.1-1.7.1-2.6-.4-2.5-.9-5-1.5-7.5-.3-1.2-.4-2.4-.9-3.5-.4-.9-.6-1.7-1.1-2.6-.6-1.4-1-2.9-2.2-3.9-.7-.6-1.9-.6-2.5.2-.4.6-.3 1.3-.2 2 .3 2.2 1.8 3.9 2.7 5.9.5.8.7 1.8 1 2.7.2.8.4 1.6.5 2.3.1.4-.2.8-.4 1.1-.6-.4-1.2-.9-1.8-1.3-.5-.4-1.2-.6-1.7-1-.8-.6-1.7-1.2-2.6-1.6-.5-.3-1.2-.4-1.8-.2.3.7.6 1.5 1.1 2 .5.5 1.1 1.1 1.6 1.5.8.8 1.6 1.5 2.3 2.4.7.8 1.2 1.6 1.5 2.6.1.3.1.8-.2 1-.2.2-.6.2-.8 0-1-.5-2-1.1-2.8-1.8-.6-.4-1.3-.7-2-1.1-.7-.4-1.5-.5-2.3-.6-.3 0-.7-.1-.9.2.1.4.2.9.3 1.3.3.5.7.9 1.2 1.2 1 .7 1.9 1.5 3 2.1.7.3 1.3.9 2 1.2.8.3 1.6.6 2.3 1-1.1.2-2.2.2-3.4.2-1.2.1-2.5 0-3.8 0-1.6-.1-3.1-.4-4.7-.5-.7-.1-1.3-.2-2-.3-.7-.2-1.5-.3-2.3-.4-1.5-.2-3-.5-4.5-.9-.3-.1-.7-.1-.9-.4.2-.3.2-.7.3-1 .4-.8.4-1.6.7-2.4.5-1.9 1.1-3.7 1.8-5.6.7-1.8 1.6-3.5 2.5-5.2 1-2 2.1-3.8 3.2-5.7 2.5-4.4 5.6-8.5 9.1-12.1 1.1-1.3 2.3-2.5 3.6-3.6 2.7-2.4 5.6-4.6 8.7-6.3 1-.6 2-1.1 3-1.5 1-.4 2-.9 3-1.3.9-.3 1.7-.7 2.6-1 1.1-.3 2.2-.6 3.3-1 2.2-.8 4.5-1.2 6.7-1.7 1.4-.4 2.8-.7 4.2-.6.3 0 .4.2.7.3.3 0 .6 0 .9.1v.3h3.7c1.7 0 3.3.4 4.9.6 1.9.2 3.7.2 5.6.3 1.6.1 3.2.2 4.8.1 1.7-.1 3.4-.4 5-.6 1.7-.4 3.4-1 5.1-1.6 1.6-.4 2.5-.8 3.4-1.2z" style="fill:#ff227d"/><path class="st3" d="M-5.4 91.2c.6-.8 1.8-.8 2.5-.2 1.2 1 1.6 2.6 2.2 3.9.4.8.7 1.7 1.1 2.6.5 1.1.6 2.3.9 3.5.6 2.5 1.1 5 1.5 7.5 0 .9-.1 1.7-.1 2.6.6-.7 1-1.6 1.5-2.5.2-.3.4-.7.6-1.1.3-.5.7-.9 1-1.4.4-.5.9-.9 1.5-1.2.5-.2 1.1.1 1.2.6.1.8-.1 1.5-.3 2.2-.2.6-.2 1.2-.4 1.8-.1.4-.2.8-.3 1.3-.1.7-.3 1.4-.3 2.1 0 .8-.1 1.6.1 2.4.1.7.2 1.5.6 2.2.2.5.6 1 1 1.5.2.3.5.6.8.8.6.3 1.1.7 1.7.9.7.2 1.2.8 1.9 1 .5.2.9.3 1.4.5.7.3 1.4.3 2.1.4 1.5.2 3 .6 4.4.9 1 .1 1.9.2 2.9.3.7.1 1.5.1 2.2.2.7.1 1.4.1 2.1.2-1.1.5-2.3.7-3.5.8-1.5.2-3 .6-4.4.9-1.3.3-2.7.6-4 1.2-.7.3-1.5.6-2.2 1-1.6.7-3.1 1.8-4.4 2.9-.6.5-1 1.2-1.5 1.7-.6.7-1.1 1.4-1.6 2.2-.9 1.5-1.8 3-2.6 4.6-.3.7-.8 1.2-1.1 1.9-.7 1.7-1.1 3.6-1.3 5.4-.1.9-.1 1.9-.3 2.8-.4 2.5-.5 5-.6 7.5v4.5c.1 1.2 0 2.4.2 3.5 0 1.4.1 2.7.3 4.1.1.6 0 1.2-.1 1.7-.2.5-.8.8-1.3.5-.5-.3-.4-1-.8-1.4-.2-.3-.6-.2-.8-.4-.3-.2-.4-.5-.4-.7-.1-.5-.2-.9-.3-1.4-.3.1-.7.4-1 .3-.3-.1-.5-.4-.6-.6-.1-.3-.2-.6-.2-.8 0 0 0-.1-.1-.2-.2-.1-.5-.2-.7-.4-.3-.3-.4-.7-.4-1.1 0-1.1-.1-2.2-.2-3.3 0-.5 0-1.1-.1-1.6-.2 0-.4 0-.7.1-.1-1.3.1-2.6.1-3.9 0-1.6.1-3.3.2-4.9 0-.9.2-1.8.2-2.6.1-2 .1-4 .3-5.9.3-2.3.3-4.7.5-7 .4-2.6.6-5.3 1.1-7.9.2-1.3.4-2.6.7-3.8.3-1.7.5-3.5 1-5.2.4-1.6.8-3.2 1.4-4.8-.9.2-1.8.3-2.6.3-.7-.4-1.5-.7-2.3-1-.7-.3-1.3-.9-2-1.2-1.1-.6-2-1.4-3-2.1-.4-.4-.9-.7-1.2-1.2-.1-.4-.2-.9-.3-1.3.2-.3.6-.2.9-.2.8.1 1.6.2 2.3.6.7.4 1.3.7 2 1.1.9.7 1.8 1.3 2.8 1.8.3.1.6.2.8 0 .3-.2.3-.7.2-1-.3-1-.8-1.8-1.5-2.6-.7-.9-1.5-1.6-2.3-2.4-.6-.5-1.1-1-1.6-1.5-.5-.6-.9-1.3-1.1-2 .6-.2 1.2-.1 1.8.2.9.5 1.8 1 2.6 1.6.5.4 1.2.6 1.7 1 .6.4 1.2.9 1.8 1.3.2-.3.5-.7.4-1.1-.1-.8-.3-1.6-.5-2.3-.3-.9-.5-1.8-1-2.7-.9-2-2.4-3.7-2.7-5.9-.1-.8-.2-1.5.2-2.1zM83.8 99c.3-.4 1-.4 1.3-.1.3.3.4.8.5 1.3.2 1.2.4 2.4.5 3.6.1.8.1 1.6.2 2.5.1 1 0 2 .1 3 .2-.2.3-.5.4-.7.9-1.9 1.6-3.9 2.7-5.6.3-.4.6-.9 1-1.3.3-.3.8-.5 1.2-.2.3.1.4.5.4.8 0 .8-.4 1.4-.7 2.1-.6 1.2-1.3 2.3-1.9 3.4-.5.9-1 1.9-1.5 2.9-.4.8-.8 1.5-.9 2.3.2.1.4.1.6-.1.4-.7 1-1.2 1.4-1.8.8-1 1.3-2.2 2-3.3.7-1 1.5-2 2.4-2.8.4-.4.9-.7 1.4-.9.3-.1.7-.1 1 .2.3.3.3.7.2 1.1-.2 1-1 1.7-1.6 2.4-.6.7-1.4 1.4-2 2.1-1.1 1.3-2 2.9-2.6 4.5-1 2.2-1.6 4.5-1.8 6.8-.1 1-.1 2-.1 3 .3.2.4.4.6.7-1.4-.2-2.7-.5-4-.8-.2 1.2-.5 2.3-.7 3.5-.3 1.5-.4 3.1-.7 4.6-.2 1-.2 2-.5 3-.3 1.1-.6 2.3-.8 3.4-.1 1.4.2 2.7.4 4.1.3 2.6.9 5.1 1.1 7.7.5 3.1.4 6.1.3 9.2 0 2.5-.3 4.9-.5 7.4.1 1.2.1 2.4.2 3.7-.3.2-.8.2-.9-.2-.4-1-.5-2.1-.7-3.1-.2-2.5-.3-4.9-.5-7.4-.1-1-.4-2-.5-3.1-.2-1.3-.4-2.5-.7-3.7-.5-2.2-1-4.5-1.7-6.6-.7-2-1.6-4-2.3-6.1-.2-.8-.3-1.6.2-2.3.5-.8 1-1.7 1.6-2.5.5-.7.8-1.4 1.2-2.2.9-1.8 1.4-3.8 1.5-5.8.1-.7 0-1.5 0-2.2 0-2-.2-4-.4-5.9-.1-1.4-.7-2.6-.9-3.9-.5-3.6-1.3-7.1-2.2-10.6-.1-.3 0-.9.5-.8.4.1.6.5.9.8 1.1 1.2 1.8 2.6 2.6 4 .9 1.8 1.6 3.6 2.4 5.4.1-.1.2-.2.2-.4 0-.8.2-1.6.1-2.4 0-.7.1-1.3 0-2-.2-1.4-.3-2.7-.5-4.1-.2-1.6-.2-3.3 0-4.9-.2-.7.1-1.2.5-1.7z"/><path class="st4" d="M-6.4 160c.2 0 .4 0 .7-.1.2.5.1 1.1.1 1.6.1 1.1.2 2.2.2 3.3 0 .4.1.8.4 1.1.2.2.5.2.7.4 0 0 0 .1.1.2-.5.8-1.1 1.6-1.6 2.4-.2-1.6-.3-3.3-.4-4.9-.2-1.4-.2-2.7-.2-4z"/><path class="st5" d="M-4.3 166.5c.1.3.1.6.2.8-.6.9-1.2 1.7-1.7 2.7.2 2.2.4 4.4.8 6.6 0 .3.2.5.4.7.6-.1 1.1.3 1.7.5 0 .4.1.7.3 1.1-.7.4-1.5.5-2.2.8-1.3.4-2.7.9-4 1.5-.5.2-1 .1-1.4.3-.5.3-.9.9-1.4 1.2 0-.6.1-1.2.1-1.8 0-.1 0-.3.2-.3.3-.1.2.3.3.4.8-3.1 2-6.1 3.5-8.9.6-1 1.1-2.1 1.7-3.1.5-.9 1-1.7 1.5-2.5z"/><path class="st6" d="M.8 285c.1 1.2.3 2.4.5 3.6.5-.3 1-.6 1.5-.7.4-.1.9-.2 1.3-.3.8-.2 1.7-.2 2.5-.3 1.2-.3 2.3-.1 3.5-.1.8 0 1.5.2 2.2.3 1.5.2 3.1.6 4.6.9.1-.9.2-1.9.2-2.8-5.4 0-10.7.3-16.3-.6zM37.7 291.3s-.1 0 0 0v.7c.1 1.4.3 2.8.5 4.3 1.4.2 2.8.2 4.2-.2 1-.3 2-.6 3.1-.8 1.4-.2 2.8-.5 4.3-.3 1.1.2 2.1.3 3.2.6.6.1 1.3.1 1.9.5.2-.8.7-1.6.8-2.4.1 0 .1-.1.2-.1-6.3 0-12.7.6-18.2-2.3z"/><path class="st7" d="M80.7 185.1c-.6.1-1.2.3-1.9.4l-2.7.3c-.4.2-.9.3-1.4.3-.9.1-1.8.4-2.7.3-.7 0-1.4.1-2.1-.1-2.6.2-5.2.3-7.8-.2-.8-.2-1.7-.3-2.5-.5-2.4-.6-4.7-1.5-7.1-2.1-1.1-.3-2.3-.5-3.5-.7-1.3-.2-2.6-.1-4-.2-1.5 0-2.9.2-4.4.4l-3.6.6c-1.2.2-2.3.3-3.5.4h-1.4c-2.3.3-4.5 0-6.8-.2-1.2-.1-2.4-.3-3.6-.6-.3 0-.6.1-1 0-1-.2-2.1-.3-3.1-.5-1.1-.3-2.2-.7-3.2-1.1-.4-.2-.9-.2-1.2-.6-.9-.3-1.7-.6-2.6-.9-1.7-.5-3.3-1.3-5-1.6-.5.2-1-.2-1.5-.1-.2 0-.3.2-.3.3.1.3.2.6.4.9-.4-.1-.8-.2-1.1-.4-.4-.2-.7-.6-1.2-.5-.4 0-.6.4-.6.8 0 .6.5 1 .9 1.4-.3-.1-.6-.2-.9-.4-.2-.3-.3-.6-.4-.9-.4-.6-.5-1.3-.7-2-.4-.5-.7-1-1.3-1.2-.9-.3-1.9.4-1.9 1.4 0 .4.1.7.3 1.1-.7.4-1.5.5-2.2.8-1.3.5-2.7.9-4 1.5-.5.2-1 .1-1.4.3-.5.3-.9.9-1.4 1.2-.1 1.3.1 2.6.1 3.9 0 1.6.1 3.1.1 4.7.1 2.3.1 4.7-.4 7-.2 1.2-.5 2.4-.9 3.5-.8 2.3-1.9 4.6-2 7-.2 2.7-.3 5.4.3 8 .3 1.1.5 2.3.5 3.4.1 1.5.1 2.9-.2 4.4-.2 1.2-.5 2.3-.8 3.5-.5 2.4-.7 4.9-.1 7.3.3 1 .6 1.9 1 2.8.9 2 1.4 4.1 1.4 6.3 0 .8 0 1.6-.2 2.4-.2 1.2-.5 2.5-.5 3.7 0 .9.2 1.8.6 2.6.5 1.1 1.1 2 1.8 3 .5.8.9 1.7 1.2 2.5.3.9.6 1.9.6 2.8.1 2.1 0 4.3.8 6.2.4.9.7 1.9 1.3 2.8.8 1.4 1.4 2.9 2.5 4.1.3.4.8.6 1.1 1 .2.6 0 1.3.2 1.9.1 1 .6 1.9 1.2 2.8.2.3.4.6.5.9.3.9.7 1.7 1.2 2.4.3.4.4.9 1 1v.2c5.6.9 10.9.6 16.3.5v-.2c.8-.3 1.2-1.1 1.4-1.8.3-.9.4-1.8.4-2.7.1-1.8.2-3.6.2-5.4 0-.3.2-.5.4-.8.9-1.4 1.4-3 1.5-4.7.2-2.1.1-4.2.1-6.4 0-1 .4-1.9.8-2.7.4-.9.8-1.8 1.2-2.6.8-1.6 1.7-3 2.3-4.7.7-1.9.8-3.9.8-5.9v-3.1c0-1.2-.2-2.5.1-3.7.9-3.4 1.7-6.9 2.6-10.3.5-2.1 1-4.3 1.5-6.4.3-1.3.5-2.7.8-4 0 3-.1 5.9-.1 8.9v5.7c0 2.4-.6 4.8-1.3 7.2-.4 1.5-1 3-1 4.6-.2 2.1.4 4.3 1.9 5.9.6.6.9 1.3 1.2 2.1.7 2.1.6 4.3.1 6.4-.3.9-.6 1.7-.7 2.6-.1.8-.2 1.6 0 2.4.2.7.6 1.4 1 2 1 1.5 1.6 3.4 1.3 5.3-.1.7-.6 1.3-.8 1.9-.3.8-.6 1.8-.2 2.7.5 1.2 1.3 2.2 2.1 3.1.4.4.4 1.1.4 1.7 0 1.2 0 2.3.4 3.4.6 1.4.7 3 1.2 4.4.1.4.4.7.7.9 5.6 2.9 11.9 2.3 18 2.3.5-.3.7-.8 1-1.2.4-.8.8-1.6 1.1-2.4.6-1.3.9-2.8 1.2-4.2.2-1.1 1-1.9 1.6-2.7.9-1.4 1.7-2.9 2.4-4.4 1.2-2.4 2-5.1 2.1-7.8.1-1.7 0-3.5.3-5.2.4-2.9 1.6-5.6 2.6-8.3.6-1.7 1-3.5 1.1-5.3.2-2 .4-4.1 1.5-5.9.9-1.4 2.1-2.6 2.9-4 1-1.7 1.7-3.5 2-5.5.2-1 .2-2.1.4-3.1.3-2.3.5-4.5.6-6.8.1-1.4.1-2.8.1-4.2 0-2.4-.2-4.8.4-7.1.6-2.2 1.3-4.3 1.7-6.5.5-2.1.9-4.3 1.1-6.5.2-2 .1-4 .3-6 .5-3.8 1.3-7.6 1.7-11.4.2.2-.2.2-.6.2z"/><path class="st5" d="M2.8 177.6c.3-.2.5 0 .8.2.7.4 1.4.6 2.2.7-.5.2-1-.2-1.5-.1-.2 0-.3.2-.3.3.1.3.2.6.4.9-.4-.1-.8-.2-1.1-.4-.4-.2-.7-.6-1.2-.5-.4 0-.6.4-.6.8 0 .6.5 1 .9 1.4-.3-.1-.6-.2-.9-.4-.2-.3-.3-.6-.4-.9-.4-.6-.5-1.3-.7-2 1.1.4 2.1 1.1 3.3 1.4-.3-.3-.7-.5-1-.9 0-.2 0-.3.1-.5zM13.4 181.1c.8.3 1.6.6 2.4.8 2 .6 4.1.9 6.1 1.4-.3 0-.6.1-1 0-1-.2-2.1-.3-3.1-.5-1.1-.3-2.1-.7-3.2-1.1-.4-.2-.9-.3-1.2-.6zM7.3 183.4c.2-.1.5-.1.7-.1.1.2.1.5 0 .8-.2.7-.2 1.4-.4 2.1-.3 1.3-.6 2.5-.7 3.8-.2 1.2-.2 2.5-.3 3.7 0 1.7-.2 3.4-.2 5.2-.1 1.1.2 2.1.3 3.2.1.8.2 1.7.6 2.4 0-1 .2-2.1.3-3.1.4-2.7 1-5.4 1.6-8 .6-2.2 1.1-4.5 1.9-6.7.2-.6.4-1.2.8-1.7.2-.3.5-.1.7 0 1.4.7 2.9 1.1 4.4 1.5 2.2.7 4.5.9 6.7 1.1 2.9.3 5.8.3 8.7.2 2.3-.2 4.7-.3 7-.8 1-.2 2-.4 2.9-.7 1.4-.4 2.8-.8 4.2-.7 1.4-.1 2.9.1 4.3.4 1.1.2 2.2.5 3.3.9.4.1.8.2 1.1.4.3.8.4 1.6.7 2.4.7 2.5 1.2 5.1 1.7 7.7.2.8.3 1.7.4 2.5.1.7.4 1.3.4 2 .2 1.4 0 2.7.3 4.1.1.4 0 .9.1 1.3.5-.8.5-1.7.8-2.6.3-1.4.6-2.7.7-4.1.2-2.2.6-4.3.6-6.4.1-1.7.1-3.5-.1-5.2 1 .1 2.1.4 3.1.5 2.7.3 5.4 0 8-.6 1.8-.4 3.6-1.1 5.3-1.6.8-.3 1.6-.6 2.4-.8-.2.5-.3 1.1-.7 1.5-.7.8-1.2 1.9-1.6 2.9-.8 2.1-1.5 4.1-2.2 6.2-.7 1.9-1.2 3.8-1.7 5.8-.7 2.4-1.2 4.8-2 7.2-.6 2-1.2 4-1.9 6-.5 1.4-.8 2.9-1 4.3-.1 1.1-.2 2.2-.2 3.3 0 1.2.2 2.4.3 3.6 0 .5.2 1 0 1.5-.3.8-.4 1.7-.9 2.5-.5.9-.8 1.8-1.2 2.8-.8 2-1.9 3.9-2.9 5.7l-.9 1.5c-.1.2-.2.3-.2.6.7-.5 1.4-1 2-1.6.6-.7 1.4-1.2 2-1.9l1.2-1.5c.5-.7.8-1.6 1.2-2.3.1-.2.3-.5.6-.4.3.2.3.6.3.8 0 1.2 0 2.4-.2 3.5-.5 3.4-2.2 6.6-4.1 9.4-.9 1.3-1.9 2.5-2.9 3.7-1 1.2-2 2.3-2.9 3.6-1.1 1.5-2.3 3-3.7 4.4-.3.4-.6.8-.9 1.3-.2.3-.1.7.1.9.8-.4 1.6-.9 2.5-1.3 1.1-.5 2-1.3 3.1-1.9.4-.2.8-.4 1.3-.4.4.1.5.6.4 1-.2 1.5-.9 2.9-1.6 4.2-.3.7-.6 1.3-1 1.9-.5.8-.8 1.6-1.4 2.3-.8.9-1.5 2-2.4 2.8-1.3 1.3-2.5 2.6-3.6 4.1-.2.3-.1.6 0 .9.2.2.5.1.7.1.8-.3 1.3-.9 1.9-1.5.4-.4 1-.7 1.4-1.1l1.2-.9c.2.2.4.4.4.8-.1.7-.5 1.2-.8 1.8-.9 1.3-1.8 2.7-3.1 3.6-1.3 1.3-2.8 2.5-4.4 3.5-.7.4-1.3 1-2.1 1.3-.5.1-1 .2-1.4-.1-.6-.4-.9-1.1-1.3-1.7-.8-1.2-1.9-2.3-2.6-3.6-.1-.2-.3-.4-.4-.6-1.1-1-1.9-2.3-2.6-3.6-.8-1.6-1.3-3.4-1.9-5.1-.7-2.3-1.2-4.7-1.6-7.1-.1-.7 0-1.4-.2-2.2-.1-.3.4-.4.6-.2.3.3.5.6.7 1 .7 1.2 1.7 2.3 2.5 3.5.5.7 1.4 1.1 2.1 1.6.4.3.9.5 1.4.7-.2-.4-.5-.7-.7-1.1-1.1-1.6-2-3.4-2.7-5.2-.8-2.1-1.8-4.2-2.3-6.4-.4-1.3-.6-2.7-.8-4 0-.3.4-.5.7-.3.6.4 1.1.8 1.5 1.3 1 .9 2 1.9 3.2 2.8.9.7 1.9 1.4 2.8 2.1.4.3.8.6 1.3.5 0-.2-.1-.4-.2-.6-.2-.3-.3-.7-.5-1-1.7-2.6-3.2-5.4-4.7-8.2-1.4-2.6-2.5-5.5-3.2-8.4-.3-1-.5-2-.3-3 .3-1.3.8-2.6 1.1-3.9.5-1.9.9-3.9.9-5.9.1-1.5 0-3-.2-4.5-.1-2.2-.8-4.2-1.4-6.3-.7-2.3-1.5-4.7-2-7.1-.3-1.5-.6-3.1-.9-4.6-.1-.5-.1-1.1-.2-1.6-.4.4-.9.7-1 1.3-.2.8-.5 1.6-.7 2.5-.2.7-.5 1.3-.7 1.9-1.1 4.3-2.5 8.6-4.2 12.6-.5 1-1 1.9-1.5 3-.3 1.1-.6 2.1-1.1 3.1-.8 1.9-1.6 3.8-2.6 5.6-.3.7-.8 1.3-1.2 2-.7 1.3-1.5 2.6-2.2 3.9-.3.6-.5 1.3-.9 1.9-.5.7-.8 1.5-.9 2.3-.1.4.5.7.8.4.8-.7 1.5-1.5 2.3-2.2.2-.2.6-.3.8 0 .2.5-.1.9-.2 1.4-.4 1.9-1.2 3.6-1.8 5.4-.9 2.3-1.8 4.6-2.9 6.9-.3.8-.7 1.5-1 2.3-.3.8-.7 1.6-.9 2.5-.1.6-.5 1.1-.6 1.6 0 .4.3.9.7.8.6-.2 1.1-.7 1.5-1.1.5-.5.9-1 1.4-1.4.3-.2.7-.2.9.1.2.4.1.9 0 1.4-.3 1.3-.2 2.6-.4 3.9-.1.5 0 1.1 0 1.7 0 1.2.1 2.5-.3 3.6-.4 1.6-1.5 3-2.5 4.2-.9.9-1.8 1.9-2.8 2.6-.4.3-.9.4-1.2.8-.4.4-.7.9-1.2 1.2-.5.2-1.1-.1-1.3-.6-.1-.4 0-.8-.1-1.2-.1-.2-.2-.4-.4-.6-.4.1-.9.2-1 .6-.2.4-.4.8-.7 1.1-.3.3-.7.5-1 .3-.3-.2-.3-.5-.5-.7-.5-.7-1-1.5-1.9-1.9-1.4-.8-2.9-1.2-4.2-2.2-.6-.5-1.2-1.1-1.5-1.9-.3-.8-.2-1.6-.3-2.4 0-1.3.2-2.7-.2-4-.3-.9-.7-1.8-1.1-2.7-.2-.3-.4-.7-.4-1.1.1-.3.4-.3.7-.2.6.2 1 .7 1.5 1.1.8.7 1.5 1.5 2.3 2.1.3.3.6.6.9.8.1.1.3 0 .4 0 .1-.2 0-.3-.1-.5-.7-1.5-1.6-2.8-2.5-4.2-.8-1.3-1.7-2.4-2.4-3.7-.5-.8-1-1.7-1.5-2.6-.5-1-.8-2.2-1-3.4-.1-.5 0-1 .1-1.5.2-.6.1-1.3.3-1.9.3-.9.5-1.8 1.1-2.5.7-.9 2-1.3 3.1-1 1.2.4 2.3 1.2 3.3 2 .3.2.7.2 1 .3.1 0 .2-.1.2-.1-.5-.8-1.1-1.6-1.7-2.4-.7-1-1.4-2-2-3l-.9-1.5c-.6-.8-1-1.8-1.5-2.7-.9-1.8-1.7-3.8-2.2-5.8-.5-2.1-.7-4.4-.5-6.6.2-1.1.3-2.3.6-3.4.4-1.9 1.4-3.6 2.3-5.3 1.2-2.2 2.3-4.3 3.1-6.7.7-1.4.9-3.4 1-5.4.1-2-.1-3.9 0-5.9.1-2.1.4-4.3.7-6.4.1-.5.2-1.1.5-1.6.7-1.3 1.9-2.3 3.1-3 .7-.3 1.4-.4 2-.7z"/><path class="st5" d="M70 186.5c2.1-.1 4.1-.4 6.2-.6-.4.2-.9.3-1.4.3-.9.1-1.8.4-2.7.3-.7 0-1.4.1-2.1 0zM1.3 276.1c1.3.4 2.6.5 3.9.6.8.1 1.7 0 2.5.3.9.3 1.9.2 2.8.2 1.3-.1 2.6-.2 3.9-.4.5-.1 1-.2 1.5-.1.2.7.4 1.5.5 2.3-.1 1.1-.2 2.1-.3 3.2-.1.6 0 1.3-.3 1.8-.8.1-1.6.1-2.4.2-1.5.4-3.1.4-4.7.4-1.1.1-2.1-.2-3.2-.1-.6 0-1.1-.1-1.7-.1-.6 0-1.2-.3-1.8-.5-.5-1.9-.6-3.8-.8-5.8.2-.7.1-1.4.1-2zM40.3 283.5c.1-.2.3-.4.5-.6.1.2.2.4.2.7.6.2 1.3.1 2 .3.8.2 1.6.6 2.4.7 1.3.2 2.5.6 3.8.6 1 0 2-.2 2.9-.5.2-.1.5.1.7.1.5.2 1.1.1 1.7.2 0 .1.1.3.1.5.4.1.9.1 1.4.1.1.3.3.6.2.9-.4 2-.9 3.9-1.7 5.8-.9.2-1.8.3-2.7.4h-1.5c-1.3 0-2.6-.1-3.9-.2-.7 0-1.4-.4-2.1-.5-1.2-.3-2.4-.7-3.7-.9-.2 0-.4-.1-.5-.2-.1-1.1-.4-2.1-.6-3.2-.2-.9-.1-1.9-.2-2.9-.1-.2.1-.4.3-.5 0-.3.1-.6.1-.9.2-.1.4 0 .6.1zM9.7 299.1c-2-.3-4.1.5-5.2 2.1h.1c-.1.3-.1.6-.2.9 0 .3-.1.6-.1.9.8-.1 1.7-.2 2.5-.1 1.3.1 2.6.3 3.9.7.6.2 1.2.4 1.6.9.1-.5.3-.9.4-1.4.1-.5.1-.9.1-1.4-.6-1.4-1.7-2.3-3.1-2.6z"/><path class="st8" d="M12.4 287.3c-.7-.1-1.5-.3-2.2-.3-1.2 0-2.3-.1-3.5.1-.8.2-1.7.1-2.5.3-.4.1-.9.2-1.3.3-.5.2-1 .5-1.5.7.2 1.4.4 2.8.5 4.2.2 1.3.4 2.6.5 3.9.2 1.2.4 2.4.5 3.5l.1.1c.3.5.7.9 1.2 1.1.1 0 .2-.1.3-.1 1.1-1.6 3.2-2.5 5.2-2.1 1.4.2 2.5 1.2 3 2.5v-.1c.8.4 1.8.7 2.6.2.1-.3.2-.6.4-.8.3-.9.3-1.8.5-2.8.3-1.7.3-3.5.5-5.3.1-1.5.2-3.1.4-4.6-1.6-.2-3.1-.6-4.7-.8z"/><path class="st5" d="M40 292.3c.6.1 1.2.3 1.8.4.5.2 1 .4 1.5.5 1 .2 2 .3 3.1.3.6 0 1.2.2 1.9.2.9.1 1.8.1 2.6 0 .4-.1.8 0 1.2.1.6.2 1.3 0 2 .1.1.2-.3.2-.4.2-1.4.1-2.7 0-4.1.1-1.1 0-2.2-.1-3.3-.3-2-.4-4-.8-6-1.4-.1 0-.2-.1-.3-.2z"/><path class="st8" d="M51.8 312.1c0-.8-.1-1.5-.1-2.3 0-.7.1-1.3.1-2 .1-1.6.5-3.1.9-4.6.3-1.1.5-2.2.8-3.3.3-1.2.8-2.4 1.2-3.7-.6-.4-1.2-.4-1.9-.5-1-.2-2.1-.4-3.2-.6-1.4-.2-2.9 0-4.3.3-1 .2-2.1.5-3.1.8-1.4.4-2.8.4-4.2.2.2 1 .3 2.1.4 3.1.2 1.7.4 3.3.4 5 .1 1.9.2 3.7.1 5.6l-.3 3.3h.1c.3.1.4.4.6.7.3.6.7 1.1 1.2 1.7.7.8 1.6 1.2 2.5 1.7.3.2.8.1.8-.3.1-.9.3-1.8.8-2.6.4-.6 1.1-.8 1.6-1.2.4-.3.9-.5 1.4-.5 1.2-1.1 2.9-.5 4.2-.8z"/><path class="st5" d="M56.4 320.9c-.8-1.5-1.7-2.9-2.4-4.3-.4-.6-.3-1.4-.5-2-.1-.6-.2-1.3-.5-1.9-.2-.4-.7-.6-1.1-.6-1.3.3-3-.2-4 .9h.1c-.5.4-1.1.8-1.4 1.3-.7 1.1-.8 2.4-.7 3.7.7.1 1.3.2 2 .4.4.1.8-.3 1.2-.4 1.3-.7 2.8-1.1 4.4-1.1.3 0 .5.1.7.3-.4.2-.9.2-1.4.3-1.4.2-2.9.5-4.2 1.1.6.2 1 .6 1.6.9.5 0 1-.3 1.5-.5 1.1-.3 2.2-.6 3.3-.4v.3c-1.4.2-2.9.4-4.3.9.4.4.9.8 1.3 1.2.1.2.4.1.5 0 1.1-.4 2.3-.6 3.5-.5 0 .1.1.2.1.3-1.2.2-2.4.4-3.6.8l.9.9c1.1-.4 2.2-.6 3.4-.5.2 0 .4.2.3.4-1.1.2-2.2.1-3.3.5.3.4.6.8 1 1.2 1.1-.3 2.2-.4 3.3-.5-.7-1-1.1-1.9-1.7-2.7z"/><path class="st9" d="M2.1 301.3c.1-.5.3-.9.7-1.1l.1.1c0 .4 0 .8.2 1.1.3.4.8.6 1.3.7 0 .3-.1.6-.1.9-.1.1-.1.2-.2.2 0 .1.1.2.1.3v1.8H3v-.6c-.2-.1-.4-.1-.6-.1-.1.3-.3.5-.3.8.1.1.2.2.3.4.3 0 .5 0 .8-.1.3 0 .7 0 1-.1v.1c0 .7.1 1.3.1 2l-.1.1c-.5 0-1 .1-1.5.2 0-.3.1-.6-.1-.8H2c-.1.3-.2.7-.1 1.1.2.1.5 0 .8.1.5.2 1.1-.1 1.6-.1h.1v1.9c0 .1-.1.2-.1.3 0-.1-.1-.2-.1-.3-.5 0-1 .2-1.5.1 0-.2.1-.5-.1-.7h-.5c-.1.1-.2.3-.3.4 0 .3.1.5.3.7.7-.2 1.5-.1 2.3-.1v.2c-.1.5-.1 1.1-.3 1.6v.1H2.8c-.1-.2-.1-.4-.1-.7H2c-.2.3-.2.6-.2 1 .2.1.4.1.6 0 .3-.1.5.1.8.1H4c-.1.6-.4 1.1-.5 1.7 0 .6.4 1.1.7 1.5 1.1 1.2 2.9 1.8 4.5 1.4.8-.3 1.7-.7 2.2-1.5.1-.5.2-1 .2-1.5.3.2.6.3 1 .3.1.1.2.3.3.5.5 0 .8-.5.8-1l-.4-.4c-.3.1-.5.3-.7.5-.3-.2-.7-.3-1.1-.3v-2.2c.2.1.4.3.5.4h.6c.1.1.3.2.4.4.2-.2.4-.3.5-.5.1-.3 0-.5-.1-.7h-.6v.3c-.4 0-.9-.1-1.2-.3.2-1.1.3-2.2.5-3.2.2-1.1.4-2.3.7-3.4.3.3.7.4 1.1.5 0 .2 0 .4.1.5h.5c.2-.3.3-.5.3-.9 0-.1-.1-.2-.2-.3-.2 0-.5 0-.6.2h-.3l-.5-.5h-.4c.1-.5.3-.9.4-1.4.6 0 1.2.1 1.8-.2.4-.3.7-.6.8-1.1.1-.3.2-.6.4-.8.6.1.5.8.4 1.3-.2.6-.1 1.2-.2 1.8-.2 1.2-.3 2.5-.4 3.7-.2 1.7-.2 3.4-.3 5.1-.2 1.8 0 3.7-.2 5.5-.3.9-.8 1.6-1.3 2.4-1.1 1.5-2.8 2.7-4.6 3-1.4.3-2.9.5-4.3.2-1-.2-1.9-.6-2.8-1.1-.6-.3-1.2-.7-1.6-1.2-.5-.8-1-1.7-1.2-2.7-.2-.7-.4-1.3-.4-2 .3-1.3.7-2.5 1-3.7.7-2.5 1.2-5.1 1.8-7.7.2-1.4.3-2.8.5-4.2z"/><path class="st6" d="M3 300.3c.3.5.7.9 1.2 1.1.2 0 .3-.1.4-.2-.1.3-.1.6-.2.9-.5-.1-1-.3-1.3-.7-.1-.3-.1-.7-.1-1.1zM12.7 301.5c.8.4 1.8.7 2.6.2-.1.5-.5.8-.8 1.1-.6.3-1.2.2-1.8.2.1-.5.1-1 0-1.5z"/><path class="st10" d="M2.2 303c.2-.1.3-.3.5-.4.1.1.2.2.4.2 0 .2.1.5.2.7-.1.1-.2.2-.3.4h-.6c-.2-.3-.2-.6-.2-.9z"/><path class="st7" d="M4.3 303c.8-.1 1.7-.2 2.5-.1 1.3.1 2.6.3 3.9.7.6.2 1.2.4 1.6.9v.1c-.6.2-1.1-.1-1.7-.2-1.1-.4-2.3-.5-3.5-.6-.9-.1-1.9 0-2.8-.1 0-.1-.1-.2-.1-.3 0-.3 0-.3.1-.4z"/><path class="st5" d="M4.2 303.5c.9.1 1.9 0 2.8.1 1.2.1 2.4.3 3.5.6.5.1 1.1.5 1.7.2v.2c-.3 1.1-.5 2.3-.7 3.4-.2 1.1-.3 2.2-.5 3.2 0 .1 0 .3-.1.4v2.6c0 .5 0 1-.2 1.5-.5.7-1.4 1.1-2.2 1.5-1.6.5-3.4-.2-4.5-1.4-.3-.4-.7-.9-.7-1.5.1-.6.4-1.1.5-1.7v-.1c1.2.3 2.4.3 3.6.6.9.2 1.7.4 2.6.7.2.1.5.1.7.1 0-.2.1-.5-.2-.6-1.1-.4-2.2-.7-3.3-1-1.1-.2-2.1-.5-3.2-.4.2-.5.2-1.1.3-1.6 1.5.2 3 .2 4.5.6.7.2 1.4.4 2.1.4 0-.2 0-.4-.2-.5-.6-.3-1.3-.5-2-.7-1.4-.3-2.9-.6-4.3-.4.1-.6 0-1.3 0-1.9 1 .1 1.9.1 2.9.3 1 .2 2.1.4 3 .8.3.1.6.2.8 0 .1-.2-.1-.4-.3-.5-.9-.4-1.8-.6-2.8-.8-.7-.2-1.5-.2-2.3-.3-.5 0-1-.1-1.5.1 0-.7-.1-1.3-.1-2 1.7-.2 3.5 0 5.2.4.6.1 1.2.4 1.9.5.3 0 .4-.4.2-.5-.4-.3-1-.4-1.5-.6-1.9-.6-3.9-.9-5.8-.4.1-.2.2-.7.1-1.3z"/><path class="st10" d="M12.3 304.4h.4c.2.1.3.3.5.5h.3c.2-.2.4-.2.6-.2 0 .1.1.2.2.3 0 .3-.1.6-.3.9h-.5c-.2-.1-.1-.3-.1-.5-.4-.1-.8-.2-1.1-.5v-.2c-.1-.2 0-.3 0-.3zM2.4 304.6c.2 0 .4 0 .6.1v.6h1.2v.4c-.3.1-.7 0-1 .1-.3.1-.5.1-.8.1-.1-.1-.2-.2-.3-.4 0-.3.1-.6.3-.9z"/><path class="st7" d="M4.2 305.1c1.9-.5 3.9-.1 5.8.4.5.2 1 .3 1.5.6.2.2.1.6-.2.5-.6-.1-1.2-.4-1.9-.5-1.7-.4-3.4-.6-5.2-.4v-.6z"/><path class="st10" d="M13 306.4c.2 0 .5-.1.6.1v.7l-.4.4c-.3 0-.5-.2-.6-.4v-.5c.2 0 .3-.2.4-.3zM1.9 307.2h.6c.2.2.1.5.1.8.5 0 1-.2 1.5-.2v.4c-.5 0-1.1.3-1.6.1-.3 0-.5 0-.8-.1 0-.3.1-.7.2-1z"/><path class="st7" d="M4.3 307.7c.5-.2 1-.2 1.5-.1.8.1 1.5.1 2.3.3.9.2 1.9.4 2.8.8.2.1.4.3.3.5-.2.2-.6 0-.8 0-1-.4-2-.6-3-.8-1-.2-1.9-.2-2.9-.3h-.1v-.4h-.1z"/><path class="st10" d="M12.2 309.4c.1-.3.3-.7.7-.6l.3.3c.1.3-.1.6-.3.9h-.6c0-.1-.1-.2-.2-.2.1-.1.1-.3.1-.4zM1.9 309.5h.5c.2.2.1.4.1.7.5 0 1-.2 1.5-.1 0 .1.1.2.1.3v.2c-.8.1-1.5-.1-2.3.1-.2-.2-.3-.5-.3-.7.3-.3.4-.4.4-.5z"/><path class="st7" d="M4.3 310c1.4-.2 2.9.1 4.3.4.7.2 1.3.4 2 .7.2.1.2.3.2.5-.7.1-1.4-.2-2.1-.4-1.5-.4-3-.5-4.5-.6v-.4s.1-.1.1-.2z"/><path class="st10" d="M12.2 311.3h.6c.1.2.2.5.1.7-.1.2-.3.4-.5.5l-.4-.4h-.6c-.2-.1-.4-.3-.5-.4 0-.1 0-.3.1-.4.4.2.8.4 1.2.3v-.3zM1.9 311.6h.7c0 .2.1.4.1.7H4c0 .1-.1.4-.1.4h-.8c-.3 0-.5-.2-.8-.1-.2.1-.4.1-.6 0 0-.3 0-.7.2-1z"/><path class="st7" d="M4 312.2c1.1-.1 2.2.2 3.2.4 1.1.3 2.2.6 3.3 1 .3.1.2.4.2.6-.2 0-.5 0-.7-.1-.8-.3-1.7-.5-2.6-.7-1.1-.4-2.4-.4-3.5-.7 0-.1.1-.3.1-.3v-.2z"/><path class="st6" d="M45.8 317.9c-.1-1.3.1-2.6.7-3.7.3-.6.9-.9 1.4-1.3-.5.1-1 .2-1.4.5-.5.4-1.2.6-1.6 1.2-.5.8-.7 1.7-.8 2.6 0 .4-.5.5-.8.3-.9-.5-1.8-.9-2.5-1.7-.4-.5-.9-1-1.2-1.7-.1-.3-.2-.6-.6-.7.2.7-.1 1.5.4 2.1.6.8 1.4 1.4 2.1 2.1.7.6 1.2 1.5 2.1 1.9.4.3.9.1 1.3.1.3 0 .6-.1.8-.1 0-.6.1-1.1.1-1.6z"/><path class="st7" d="M58.1 323.7c0-.1-.1-.2-.2-.3-1.1.1-2.2.2-3.3.5-.3-.4-.7-.7-1-1.2 1.1-.4 2.2-.3 3.3-.5.1-.2-.1-.4-.3-.4-1.2-.1-2.3.1-3.4.5l-.9-.9c1.2-.4 2.4-.6 3.6-.8 0-.1-.1-.2-.1-.3-1.2-.1-2.4.1-3.5.5-.2.1-.4.2-.5 0-.4-.4-.9-.8-1.3-1.2 1.4-.5 2.8-.7 4.3-.9v-.3c-1.1-.3-2.3.1-3.3.4-.5.1-.9.5-1.5.5-.5-.3-1-.6-1.6-.9 1.3-.7 2.7-.9 4.2-1.1.5-.1 1 0 1.4-.3-.2-.2-.4-.4-.7-.3-1.5.1-3 .4-4.4 1.1-.4.2-.7.5-1.2.4-.6-.2-1.3-.3-1.9-.4-.1.5-.2 1-.2 1.5.4-.1.8-.1 1.1-.1h.3c.4 0 .8.1 1.3.2.4.1.8.2 1 .6.2 0 .3 0 .4.1.5.5 1 .9 1.4 1.5.5.4.8 1 1.3 1.4.5.4 1.4 1.3 1.4 1.3.5.4 1 .8 1.5 1.1-.2-.4-.4-.7-.6-1.1.8-.2 1.7-.4 2.5-.5.4.2.7.1.9-.1z"/><path class="st9" d="M37.9 314.2c.2-.4.5-.9 1-.8h.1c.2.7-.1 1.5.4 2.1.6.8 1.4 1.4 2.1 2.1.7.6 1.2 1.5 2.1 1.9.4.3.9.1 1.3.1.7-.1 1.3-.2 2-.2-.4.4-.9.8-1.2 1.3-.1-.1-.3-.3-.4-.3-.4-.1-.7.2-1 .5 0 .3.2.6.4.9h.7c.7-.6 1-1.4 1.8-1.9v-.4c.4 0 .8.1 1.3.2.4.1.8.2 1 .6-.7.4-1.5.9-1.9 1.5-.2 0-.5 0-.7-.1-.3.1-.5.3-.7.6-.1.4.2.6.5.8h.5c.3-.3.4-.7.8-1 .4-.4.9-.9 1.4-1.1.2-.2.6-.2.6-.6.5.5 1 .9 1.4 1.5-.5 0-1 .3-1.4.6-.3.2-.6.6-1 .5l-.3-.3c-.4 0-.7.2-1 .5v.5c.3.2.6.5 1 .4.3-.2.4-.5.7-.7.6-.4 1.2-.9 1.9-1.2v-.4c.5.4.8 1 1.3 1.4H52c-.4.3-.8.6-1.3.9-.2.1-.3-.1-.5-.2h-.3c-.3.2-.7.4-.6.9.2.3.5.6.8.5.3-.2.5-.5.8-.6.6-.2 1.1-.7 1.6-.9v-.4c.5.4.9.9 1.4 1.3-.2.1-.3.1-.5.1-.4.3-.8.6-1.3.8l-.3-.3h-.5c-.3.2-.5.5-.5.9.2.1.3.3.5.5.2 0 .5.1.7-.2.3-.5.8-.6 1.2-.9.2-.1.5-.3.7-.4v-.5c.5.4 1 .8 1.5 1.1.8.5 1.9.5 2.8 0 .3-.2.6-.5.9-.7.7.9 1.7 1.5 2.5 2.4l.9 1.2c.3.4.6.9.8 1.4-.6.6-1.3 1.1-2.1 1.5-1.8.7-3.8 1.1-5.7.8-.9-.2-1.7-.3-2.6-.7-.9-.3-1.7-.9-2.5-1.4l-2.4-1.8c-.9-.7-1.8-1.5-2.8-2-.7-.4-1.4-.6-2.1-.9-1.2-.5-2.5-.6-3.8-1.1-1-.3-1.9-.9-2.6-1.7.1-1.3.4-2.5.6-3.8.3-1.7.1-3.3.6-4.8z"/><path class="st10" d="M12 314.2c.2-.2.4-.4.7-.5l.4.4c.1.5-.2 1-.8 1-.1-.2-.2-.3-.3-.5-.4 0-.7-.1-1-.3v-.4c.3 0 .6.1 1 .3z"/><path class="st4" d="M-1.5 319.7c-.1-1 0-1.9.2-2.9 0 .7.3 1.4.4 2 .2 1 .7 1.9 1.2 2.7.4.6 1 .9 1.6 1.2.9.5 1.8.9 2.8 1.1 1.4.3 2.9.2 4.3-.2 1.8-.4 3.5-1.5 4.6-3 .5-.8 1-1.6 1.3-2.4 0 1.1-.2 2.1-.4 3.2-.3 1.1-.6 2.2-1.2 3.1-.5.8-1.2 1.3-1.9 1.9-.5.4-1 .8-1.6 1.1-.6.3-1.3.3-1.9.4-1.7.2-3.5-.2-5-.9-.8-.4-1.5-.9-2.1-1.5-.8-.8-1.3-1.8-1.7-2.8-.2-1-.5-2-.6-3z"/><path class="st11" d="M46.8 319.3h.3v.4c-.7.5-1.1 1.3-1.8 1.9h-.7c-.2-.2-.4-.5-.4-.9.3-.2.6-.5 1-.5.2.1.3.2.4.3.3-.4.8-.8 1.2-1.2zM49.3 320.1c.2 0 .3 0 .4.1 0 .4-.4.5-.6.6-.5.3-1 .7-1.4 1.1-.3.3-.4.7-.8 1h-.5c-.2-.2-.5-.5-.5-.8.2-.3.4-.4.7-.6.2.1.4.1.7.1.6-.6 1.3-1.1 2-1.5zM49.7 322.3c.4-.3.9-.6 1.4-.6v.4c-.7.3-1.3.8-1.9 1.2-.3.2-.4.6-.7.7-.4.1-.7-.2-1-.4v-.5c.3-.3.6-.5 1-.5l.3.3c.4 0 .6-.4.9-.6z"/><path class="st4" d="M36.6 325.9c-.2-1.1-.1-2.2 0-3.3.7.8 1.6 1.4 2.6 1.7 1.2.4 2.5.6 3.8 1.1.7.3 1.5.5 2.1.9 1 .6 1.9 1.3 2.8 2l2.4 1.8c.8.5 1.6 1.1 2.5 1.4.8.3 1.7.5 2.6.7 1.9.3 3.9-.1 5.7-.8.8-.3 1.5-.9 2.1-1.5.1.4.1.9 0 1.3-.2.5-.7.8-1.1 1.1-.8.5-1.7.9-2.5 1.1-1.7.3-3.4.6-5.1.6-1.2 0-2.4-.3-3.6-.7-1.8-.5-3.4-1.4-5-2.3-1.9-1.1-4-1.8-6.2-2.4-.9-.3-1.8-.7-2.6-1.3-.3-.4-.4-.9-.5-1.4z"/><path class="st11" d="M51.9 323.2h.6v.4c-.5.3-1 .7-1.6.9-.4.1-.5.4-.8.6-.4.1-.7-.2-.8-.5-.1-.4.3-.6.6-.9h.3c.1.1.3.3.5.2.3-.1.7-.4 1.2-.7z"/><path class="st5" d="M58.1 323.7c.3.4.6.8 1 1.2-.3.2-.5.5-.9.7-.9.5-1.9.4-2.8 0-.2-.4-.4-.7-.6-1.1.8-.2 1.7-.3 2.5-.5.3 0 .6-.1.8-.3z"/><path class="st11" d="M53.4 324.6c.2 0 .3-.1.5-.1v.5c-.2.1-.5.3-.7.4-.4.3-1 .4-1.2.9-.1.3-.4.2-.7.2l-.5-.5c-.1-.4.2-.7.5-.9h.5l.3.3c.5-.2.9-.5 1.3-.8z"/><path class="st10" d="M51.7 16c1.6-.9 3.4-1.8 5.3-1.9.7-.1 1.4.2 2.1.3 1.1.4 1.9 1.4 2.9 2 .6.4 1.3 0 1.9.3.6.2 1 .7 1.2 1.3.5 1.4.8 2.9.2 4.3-.2.6-.7 1.2-1.3 1.4-1.8.2-3.6 0-5.4-.3-.4-.1-.8.1-1 .4-.7.6-1.3 1.3-2 2-.7.6-1.5 1.2-2.4 1.6-1.5.8-3.3.6-4.9.9-.8.1-1.7.2-2.5.6-.2.1-.2.3-.2.5-.1 1-.3 2-.4 3-.2.9-.5 1.8-.8 2.7-.1.8.1 1.7.4 2.5.7 1.6 1.5 3.2 2.4 4.7.6.9 1.2 1.9 1.9 2.8.7.9 1.5 1.7 2.5 2.2 1 .2 2-.2 2.8-.6 1.7-.9 3.2-2.2 5-2.8 1.1-.3 2.2-.7 3.4-.7 1 0 2.1 0 3 .5.2.1.3.2.3.4.4.8.6 1.8.7 2.7 0 1.1.2 2.1.2 3.2 0 1.9.1 3.9-.5 5.8-.4 1-.6 2.1-1.3 2.9-.8.9-1.6 1.7-2.7 2.1-1.8.6-3.7.9-5.5.9-1.2 0-2.4-.3-3.6-.7-1.7-.7-3.4-1.6-4.6-3-.8-.8-1.3-1.7-2.1-2.5-.8-.9-1.3-2-1.9-3-.6-1-1-2.2-1.5-3.3-.3-1.2-.7-2.4-.9-3.6v-.2c-.1-1.1-.4-2.2-.4-3.4-.1-2-.2-4-.2-5.9 0-.4-.3-.6-.6-.8-1.1-.5-2.4-.5-3.6 0-.8.3-1.4 1-1.7 1.8-.2.5-.5 1-.6 1.5-.8-.2-1.4-.7-1.7-1.4-.2-.3-.2-.7-.4-.9-.5-.4-1.1-.4-1.7-.6-.7-.3-1.1-1.1-1.1-1.9 0-.6.3-1.3-.1-1.8-.3-.9-.9-1-1.3-1-.6.1-1.3 0-1.8-.3-.3-.2-.5-.6-.5-1-.2-1 .4-2.1 1.3-2.5 1-.6 2.3-.5 3.2-1.2.8-.6 1-1.6 1.2-2.4.3-1.2 1-2.4 2.1-3.1 1.1-.7 2.5-.4 3.7-.7 1.1-.3 2.1-1 2.8-1.9.9-1.1 2.2-1.9 3.6-2.1 1.1-.2 2.2.1 3.3.4 1.2.4 2.6.4 3.8-.2z"/><path class="st12" d="M57.5 23.8c.3-.3.6-.5 1-.4 1.8.3 3.6.5 5.4.3-.2.2-.4.3-.6.4-1.6.2-3.3.2-4.9-.3-.6.6-1.2 1.2-1.8 1.9-.7.8-1.3 1.7-2 2.5-1.2 1.1-2.7 1.8-4.3 1.9-1.3.2-2.7-.1-4-.1-.3.8-.6 1.6-1.2 2.2.2-1 .3-2 .4-3 0-.2 0-.4.2-.5.8-.3 1.6-.5 2.5-.6 1.6-.2 3.4-.1 4.9-.9.9-.4 1.7-.9 2.4-1.6.7-.5 1.3-1.2 2-1.8z"/><path class="st13" d="M56.7 25.7c.5-.7 1.1-1.3 1.8-1.9 1.6.5 3.2.5 4.9.3.3 0 .5-.2.6-.4.2 1 .6 2.1.7 3.1.6 3 .9 6.1 1 9.2 0 1.6.3 3.2.4 4.8 0 .9 0 1.8-.1 2.6-.9-.5-2-.4-3-.5-1.2 0-2.3.4-3.4.7-1.9.5-3.4 1.8-5 2.8-.8.5-1.8.8-2.8.6-1-.5-1.9-1.3-2.5-2.2-.7-.9-1.3-1.8-1.9-2.8-.9-1.5-1.7-3.1-2.4-4.7-.4-.8-.6-1.6-.4-2.5.3-.9.6-1.8.8-2.7.6-.6.9-1.4 1.2-2.2 1.3 0 2.7.2 4 .1 1.6-.2 3.1-.8 4.3-1.9.5-.7 1.1-1.6 1.8-2.4z"/><path class="st14" d="M37.5 35c1.1-.5 2.5-.5 3.6 0 .3.2.7.4.6.8-.1 2 0 4 .2 5.9 0 1.1.3 2.2.4 3.4-1.2-.2-2.6 0-3.7-.7-.3-.2-.5-.3-.8-.5-.6-.4-1.1-1-1.5-1.6-.4-.6-.8-1.3-.9-2-.1-.7-.1-1.3-.1-2 .1-.5.3-1 .6-1.5.2-.8.8-1.5 1.6-1.8z"/><path class="st12" d="M47.8 39.6c.4.6.6 1.2.9 1.9.5 1.1 1.1 2.1 2 3 .5.6 1.1 1 1.7 1.6-.8-.2-1.4-.6-2.1-1.1-1.5-1.1-2.3-3-2.5-4.8v-.6zM37.8 43.9c.3.2.5.3.8.5 1.1.7 2.5.5 3.7.7v.2c-1 1.1-2.6 1.5-4 1.7h-1v-.4c.1-.9.4-1.8.5-2.7z"/><path class="st13" d="M38.3 47c1.5-.2 3-.6 4-1.7.2 1.2.6 2.4.9 3.6 0 1 .4 1.9.6 2.9.3 1 .6 1.9.9 2.9.6 1.8 1.4 3.6 2.5 5.1 1.6 2.1 3.7 3.7 5.8 5.2.7.6 1.5 1 2.4 1.4-3.7 1.7-7.8 2.4-11.8 2.4h-1.4c-1.3-.1-2.6-.1-3.9-.3-1.7-.2-3.4-.5-5-1.1-1.6-.5-3-1.4-4.4-2.3-.7-.5-1.4-.9-2.1-1.5-.2-.2-.3-.3-.4-.6.1-.1.2-.2.3-.2 1.7-.7 3.3-1.8 4.9-2.8 1.1-.7 2.2-1.5 3.1-2.4.5-.6 1.1-1.2 1.4-2 .4-1.3.6-2.6.7-4 .2-1.6.2-3.3.4-4.9v.4c.4 0 .8 0 1.1-.1zM59.9 46.2c1.2-.7 2.7-1.1 4-.7.6.2 1.2.6 1.5 1.3-.5.1-1.1.1-1.7.1-1 0-1.9.2-2.9.3-.8.1-1.5.5-2.3.3.3-.6.8-1 1.4-1.3z"/><path class="st12" d="M43.2 49c.5 1.1.9 2.3 1.5 3.3s1.1 2.1 1.9 3c.7.8 1.3 1.8 2.1 2.5 1.2 1.4 2.9 2.3 4.6 3 1.2.4 2.4.7 3.6.7 1.9 0 3.8-.3 5.5-.9 0 .3.1.7-.1 1-.7 1.1-1.7 1.9-2.7 2.6-1.3 1-2.7 1.7-4.2 2.4-.8-.4-1.6-.8-2.4-1.4-2.2-1.5-4.3-3.1-5.8-5.2-1.1-1.6-1.9-3.3-2.5-5.1-.3-1-.7-1.9-.9-2.9-.2-1.1-.5-2-.6-3zM-24.3 112.1l3 .6c2.4.3 4.8.8 7.2.9 1.6.2 3.2.2 4.7.3 2 .2 4 0 6 0 .9 0 1.8-.1 2.6-.2-.3 1.1-.8 2.1-1.2 3.2-.5 1.1-.8 2.2-1.4 3.3-.7 0-1.4 0-2.1-.2-1-.2-2.1-.5-3.1-.7-1.7-.3-3.4-.9-5.1-1.5-1.5-.5-2.9-.9-4.3-1.6-1.1-.6-2.1-1.2-3.2-1.7s-2.2-1.2-3.1-2.1v-.3z"/><path class="st13" d="M-24.3 112.6c.9.8 2 1.5 3.1 2.1 1.1.5 2.1 1.2 3.2 1.7 1.4.7 2.8 1.2 4.3 1.6 1.7.6 3.4 1.1 5.1 1.5 1 .2 2.1.5 3.1.7.7.1 1.4.1 2.1.2-.9 2.3-1.9 4.6-2.9 7-.4.9-.7 1.9-1 2.8-.2.6-.5 1.2-.6 1.9-.2 1-.1 2 0 3 0 1.3.2 2.6.3 3.8.1 1.8.5 3.6.6 5.5.4 3.7 1.1 7.3 1.6 11 .4 2.4.6 4.9 1.5 7.2.6 1.6 1.6 3.1 2.7 4.4 1 1.1 1.9 2.3 2.6 3.6.5 1.2 1.1 2.4 1.4 3.7.2.8.6 1.6.7 2.5.3 1.1.6 2.2.8 3.4.1.4.1.8.1 1.2 0 .2-.3.3-.4.4-.8.3-1.7 0-2.2-.7-.7-1-1.3-2.1-1.8-3.2-.8.3-1.6.5-2.3.8-1.3.5-2.6.9-3.8 1.4-1.6.7-3.3 1.3-4.9 2-1.4-1.5-2.5-3.2-3.6-4.9-1-1.7-1.7-3.6-2.7-5.3-.5-1.1-1.1-2.3-1.6-3.4-1.6-3.7-3.2-7.4-4.5-11.3-.8-2.4-1.4-4.9-1.9-7.5-.3-1.5-.4-3-.6-4.4-.3-2.1-.6-4.2-.7-6.2-.1-2.1-.4-4.3-.4-6.4 0-1.4 0-2.8.1-4.1.2-1.8.5-3.6.7-5.4.3-2.3.7-4.6 1.2-6.9.4-1.4.6-2.6.7-3.7z"/><path class="st12" d="M102.5 123.8c.9-.1 1.7-.3 2.5-.5 0 .3.1.6.1.9v.5l-2.4.9c-2.3.9-4.7 1.5-7.1 2.1-1.9.5-3.7 1.1-5.6 1.3-1.8.3-3.6.4-5.4.2v-.3c-.2-1.5-.2-2.9-.2-4.4 0-.2 0-.4.1-.6 2 0 4 .6 6 .5 1.4 0 2.8.2 4.2.1 2.5 0 5.1-.3 7.8-.7z"/><path class="st13" d="M105 124.7v-.5c.1 3-.1 6.1.3 9.1.1.9.4 1.8.6 2.7.6 2.4.9 4.9 1.1 7.4.3 3 .4 6 .2 8.9-.2 2.6-.5 5.2-.8 7.8-.7 6-2.1 11.9-4.2 17.5-.4 1-.8 2-1.1 3-.2.9-.4 1.8-.4 2.7-.6 0-1.1 0-1.7-.1-.4-.1-.8-.3-1.1-.6.1-.2.1-.4.2-.6-.8-.3-1.7-.2-2.6-.3-1.3-.2-2.5-.4-3.7-.6-1.2-.2-2.3-.6-3.4-1 .3-1.1.6-2.2.6-3.4 0-1.3-.2-2.7-.3-4-.2-1.3-.3-2.5-.5-3.8-.6-2.7-.8-5.5-1.1-8.2-.2-1.5-.3-2.9-.4-4.4v-7.8c0-2.8 0-5.7-.5-8.4-.1-.9-.4-1.7-.6-2.5-.3-1.5-.4-3.1-.5-4.6-.1-1.4-.4-2.7-.4-4.1v.3c1.8.2 3.6 0 5.4-.2 1.9-.3 3.8-.8 5.6-1.3 2.4-.6 4.8-1.2 7.1-2.1.7-.4 1.4-.7 2.2-.9z"/><path class="st12" d="M-17 128.8c.1-.2.2-.4.4-.3 1.3-.2 2.5.2 3.7.5 1.3.4 2.5.9 3.7 1.6v.3c-.8-.3-1.6-.8-2.5-1-1.6-.7-3.4-1.2-5.3-1.1zM93.6 134.1c.5-.1 1-.4 1.6-.4-.5.5-1.2.6-1.8.9-1 .3-2.1.6-3.2.7-.5 0-.9 0-1.4-.2.6-.3 1.2-.1 1.9-.3 1-.2 1.9-.5 2.9-.7zM88.3 180.2c1.1.4 2.2.8 3.4 1 1.2.2 2.5.5 3.7.6.9.1 1.8 0 2.6.3-.1.2-.1.4-.2.6.4.2.7.4 1.1.6.6.1 1.1.1 1.7.1 0 .2 0 .5-.1.7-1 .1-2.1.1-3-.5-.5-.3-.8-1-1.5-1-2-.1-4-.4-5.9-1-.7-.2-1.4-.4-2.2-.6.3-.3.4-.6.4-.8z"/><path class="st13" d="M86.8 184.9c.5-1.3 1-2.6 1.3-4 .7.2 1.5.4 2.2.6 1.9.6 3.9 1 5.9 1 .7 0 1 .7 1.5 1 .9.6 2 .6 3 .5-.1 1.3-.3 2.6-.5 3.9-.2 1.1-.4 2.3-.7 3.4-.8 2.7-2.2 5.3-4.2 7.3-1 .9-2.1 1.7-3.2 2.4-.8.3-1.8.6-2.7.5-.2 0-.4-.2-.5-.3-.5.1-1.1.2-1.6.2-.2-.2-.5-.5-.4-.8.1-.8.5-1.5.9-2.1.7-1 1.4-2.1 1.8-3.3.2-.7.2-1.4 0-2-.2-1.2-.7-2.3-.8-3.5-.4.9-.8 1.8-1.1 2.8-.3.9-.5 2-1.2 2.7-.5.5-1.3.6-1.9.3-.4-.1-.2-.6-.2-.9 0-1.5.2-3 .5-4.4.4-1.9 1.2-3.6 1.9-5.3z"/><path class="st15" d="M56 14.9c1.4-.2 2.8.2 4 .9 1.3.8 2.5 1.8 3.4 3 .6.9 1 1.9 1 3 0 .5 0 1-.1 1.4H64c.1-.7.1-1.4 0-2.1-.3-1.5-1.2-2.7-2.4-3.7-.7-.6-1.5-1.2-2.3-1.6-1-.6-2.2-.8-3.3-.9z"/><path class="st16" d="M53.4 15.8c.7-.4 1.5-.5 2.3-.5 1.5 0 3 .4 4.2 1.2.8.6 1.6 1.4 2.1 2.2.7.9 1 2 1.2 3.1 0 .6.1 1.3-.2 1.8-.2-.7-.1-1.4-.3-2.1-.2-.9-.5-1.8-1-2.5-.9-1.4-2.1-2.5-3.6-3.1-1.4-.5-2.9-.6-4.4-.3 0 .2-.2.2-.3.2z"/><path class="st16" d="M52 16.7c.8-.4 1.6-.5 2.4-.6.9-.1 1.8-.1 2.7.2 1.2.4 2.2 1 3.1 1.8.6.6 1.1 1.4 1.4 2.2.4.9.6 1.9.2 2.9-.1.1-.2.5-.4.4.1-.5.3-1 .2-1.5 0-.8-.4-1.6-.8-2.3-.3-.6-.8-1.2-1.3-1.7-1.1-.9-2.4-1.6-3.8-1.7-1.1-.1-2.2 0-3.3.2-.1.1-.3.1-.4.1zM41.9 18c1-.9 2.4-1.3 3.7-1.2.5.1 1 .1 1.5.4-1.3-.1-2.7-.2-3.9.4-.8.3-1.3 1.1-2.1 1.2.2-.3.5-.5.8-.8z"/><path class="st17" d="M51.1 17.4c1.6-.5 3.3-.7 5-.3 1.1.3 2.3.8 3.1 1.7 1.1 1.2 1.6 2.9 1.2 4.5h-.2c.1-1.3-.1-2.6-.8-3.7-.5-.8-1.2-1.5-2.1-1.8-1.6-.8-3.6-.8-5.3-.4-1.4.3-2.6 1-3.8 1.8-.6.4-1.2.9-1.9 1.2-.6.3-1.2.5-1.9.5-.8.1-1.5-.1-2.3-.1-2.7.2-5.2 2-6.1 4.6-.3.9-.9 1.7-1.8 2.2-1.5.7-3.3.1-4.9.7-.6.2-1 .6-1.6.9.3-.5.9-.7 1.4-1 .6-.3 1.2-.4 1.9-.4.8-.1 1.7.1 2.5-.2 1.1-.2 1.9-1.2 2.3-2.2.5-1.1 1.2-2.1 2.1-2.9 1.4-1.3 3.3-2 5.1-1.8 1.1.1 2.4.1 3.4-.5 1.5-1.1 2.9-2.3 4.7-2.8z"/><path class="st18" d="M50 17.3c.2-.1.4-.1.6-.2v.1c-.3.1-.5.2-.8.3-1.3.6-2.5 1.3-3.8 1.9-.8.3-1.7.6-2.6.7-1.2.1-2.4 0-3.5.4-1.6.5-3.2 1.5-4 3.1-.6 1.1-1.3 2.3-2.4 3-.9.5-2 .3-3 .6-.6.1-1.2.4-1.8.5.1-.1.2-.1.4-.2.7-.4 1.4-.6 2.2-.7.7-.1 1.4 0 2.1-.4 1.1-.7 1.8-1.8 2.5-2.9.7-1.3 1.9-2.4 3.4-2.9 1.2-.5 2.6-.6 3.9-.7.9 0 1.8-.3 2.6-.6 1.4-.7 2.7-1.6 4.2-2z"/><path class="st19" d="M44 18.7c1.6-.1 2.9-1.1 4.4-1.5h.3c-1.2.6-2.3 1.3-3.6 1.6-.9.2-1.9.1-2.8.3-.6.1-1.2.3-1.8.4.9-.7 2.3-.8 3.5-.8z"/><path class="st18" d="M63.2 17.3c1 .5 1.6 1.5 1.9 2.5.3.8.2 1.7-.1 2.5.1-1.4-.2-3-1.1-4.1-.2-.4-.6-.6-.7-.9zM48.7 19.4c1.3-1.3 3.3-1.8 5.1-1.7 1.6.1 3.2.7 4.5 1.7 1.2.9 1.5 2.6 1.1 4l-.2.1c.1-.8.2-1.7-.2-2.5-.3-1-1.2-1.6-2.1-2.1-1.7-.9-3.7-1.2-5.6-.7-1.1.3-2.1.8-2.8 1.7-.9.9-1.8 2-3.1 2.3-1.6.3-3.2-.5-4.7-.2-1.6.4-3 1.5-3.6 3.1-.3.8-.5 1.7-1.1 2.4v-.3c0-.2.2-.3.2-.5.4-.8.5-1.6.9-2.4.7-1.3 2.1-2.3 3.5-2.6 1.6-.3 3.1.5 4.6.3 1.6-.5 2.5-1.7 3.5-2.6z"/><path class="st19" d="M51.1 19.7c1.1-.6 2.5-.7 3.7-.4 1.2.3 2.1 1.1 2.8 2.1.3.4.4.9.6 1.3 0 0 .1.1.1.2-.5-.2-.6-.8-.9-1.3-.6-.9-1.5-1.7-2.5-2-1.3-.3-2.8-.2-4 .5-1.1.6-1.9 1.6-2.9 2.2-1 .6-2.2.9-3.3.7-1.5-.2-3-.4-4.4.2-1.1.5-1.6 1.6-2.2 2.6-.4.8-.9 1.5-1.5 2.2-.4.5-.9.9-1.4 1.2-.8.5-1.7.6-2.6.9-.7.2-1.4.2-2.2.1-.5-.1-1 .2-1.4.3.2-.4.5-.5.9-.6.6-.1 1.2.1 1.8.1.6 0 1.2-.2 1.8-.4 1.1-.3 2.2-.7 2.9-1.6 1.3-1.3 1.7-3.2 2.9-4.5.7-.8 1.9-1 2.9-1s2 .2 3.1.3c.8 0 1.6-.3 2.3-.6 1.2-.6 2.2-1.8 3.5-2.5z"/><path class="st15" d="M35.6 20.9c.6-.2 1.3-.3 1.9-.4v.2c-1.3.4-2.8.8-3.6 2-.6.8-.7 2-1.6 2.6.1-.3.3-.6.4-.9.3-.6.4-1.2.8-1.7.5-.8 1.2-1.5 2.1-1.8z"/><path d="M49.4 22.7c.8-.8 1.8-1.5 3-1.7.9-.1 1.8.1 2.5.5 1 .5 1.9 1.3 3.1 1.6v.2c-1.5-.3-2.6-1.6-4.1-1.9-.7-.2-1.5-.2-2.2.1-1.2.5-2 1.7-3.1 2.2-1.1.6-2.5 1-3.8.5-1.2-.4-2.6-.6-3.8-.1-.9.3-1.6 1.1-2.1 2-.5.8-.9 1.8-1.6 2.5-.7.7-1.6 1.3-2.6 1.6-.6.2-1.2.3-1.8.4-.1 0-.3-.1-.4-.1.8-.2 1.5-.4 2.3-.6.9-.3 1.7-.8 2.4-1.5.6-.6.9-1.5 1.3-2.3.4-.8 1-1.6 1.8-2.1 1-.5 2.1-.7 3.2-.5.8.1 1.6.4 2.4.5 1.3.2 2.6-.3 3.5-1.3z" style="fill:#102f3a"/><path class="st17" d="M35.4 22.4c.3-.3.6-.6 1.1-.8-.5.6-1.1 1.1-1.6 1.7-.6.8-1.1 1.7-1.9 2.3-.3.2-.7.4-1.1.4.9-.4 1.7-1.2 2.2-2.1.3-.4.7-1 1.3-1.5z"/><path class="st16" d="M49.5 24.1c1.5-.7 3-1.5 4.7-1.5v.2c-.7.1-1.3.2-2 .4-.8.3-1.5.7-2.3 1-1.1.5-2.2.9-3.4 1.2-.9.3-1.9.3-2.8.7-1 .4-2.1.9-2.9 1.7-1.4 1.2-2.4 2.8-3.9 3.9-1.3.9-3 1.2-4.6 1.1-.2 0-.4-.1-.6-.2.4-.2.8-.2 1.2-.2 1.3-.1 2.8-.3 3.9-1.1.8-.6 1.5-1.4 2.1-2.1.8-1 1.7-1.8 2.8-2.5 1-.6 2.1-1 3.2-1.3 1.6-.2 3.1-.6 4.6-1.3z"/><path class="st16" d="M53.9 24.1c.6-.3 1.2-.8 2-.8-.5.3-1.1.5-1.6.9-1 .6-2 1.2-3.2 1.4-1.2.2-2.4.2-3.5.2-1.9.2-3.8 1-5.3 2.4-.8.8-1.5 1.7-2.3 2.4-1.1 1-2.2 2.2-3.7 2.8-1.5.6-3 .6-4.5.6-.2 0-.4-.1-.6-.2 1.4-.2 2.8 0 4.1-.4.9-.3 1.7-.6 2.5-1.2.9-.7 1.7-1.5 2.5-2.3.8-.9 1.6-1.9 2.6-2.5 1.1-.9 2.5-1.5 3.9-1.7 1.5-.3 3-.1 4.4-.4 1-.3 1.9-.7 2.7-1.2z"/><path d="M55.8 24c.2-.2.4-.5.8-.5-.4.8-1.2 1.4-1.9 1.9-.8.4-1.5.9-2.4 1.1-1.5.4-3.1.2-4.6.5-1.5.2-2.9.9-4.1 1.8-1.6 1.2-2.8 2.9-4.4 4.1-1.2 1-2.6 1.7-4.2 1.9-1.2.2-2.4.2-3.6-.1.2-.2.6-.1.9-.1 1.8.2 3.6-.1 5.2-1 1-.5 1.8-1.2 2.6-2 .7-.7 1.3-1.4 2-2.1 1.1-1.1 2.5-1.9 3.9-2.4 1.3-.5 2.8-.6 4.2-.5 1 0 2 0 2.9-.5 1.1-.7 1.9-1.4 2.7-2.1z" style="fill:#11313d"/><path d="M42.2 25c.6-.1 1.2-.1 1.8-.1-.3.2-.6.2-.9.3-.7.1-1.3.3-1.9.7-.7.4-1.2 1-1.6 1.7-.6.8-1.3 1.4-2 2.1-1.2 1.1-2.7 2-4.3 2.3-.6.1-1.3.2-1.9 0 .3-.1.6-.2.9-.2 1.6-.2 3.2-.7 4.5-1.7 1-.8 1.9-1.6 2.6-2.7.7-1.1 1.6-2.1 2.8-2.4z" style="fill:#11303c"/><path d="M35.1 28.2c.4-.3.7-.7 1-1.1v.3c-.4.6-1 1-1.6 1.3-1 .4-2.2.6-3.3.5-.7 0-1.4-.1-2.1.2-.4.1-.7.4-1.1.5.4-.6 1.2-.9 1.9-.9.8-.1 1.6.1 2.4 0 1-.1 1.9-.3 2.8-.8z" style="fill:#24404b"/><path class="st16" d="M44.2 29.3c.5-.2.9-.5 1.5-.6-.8.6-1.7 1-2.5 1.7-1 .9-1.6 2.2-2.7 2.9-.6.2-1 .8-1.6.8.4-.3.9-.6 1.4-.9.3-.1.5-.4.7-.6l.9-1.2c.5-.9 1.4-1.6 2.3-2.1z"/><path d="M31.5 31c.3 0 .6-.2 1-.2.1 0 .3.1.4.1-.7.1-1.3.4-2 .4-.2 0-.3-.1-.5-.2.3-.2.7-.1 1.1-.1z" style="fill:#2b4651"/><path class="st10" d="M53.6 33.3c1.6-.7 3.4-.9 5.1-.4.6.1 1.4.3 1.6.9.1.2-.1.4-.2.6-.7-.5-1.6-.8-2.5-.9-.3-.1-.7-.1-1 0-1.1.1-2.1.2-3.1.6-.4.1-.7.1-1.1 0 .3-.4.7-.6 1.2-.8z"/><path d="M64.3 34.3c-.2-.7.4-1.4 1.1-1.5.1.2.1.3.1.5-.4.2-.8.5-1.1.8l-.1.2z" style="fill:#1d5062"/><path d="M56.6 33.5c.3-.1.7-.1 1 0h-1z" style="fill:#3d6372"/><path class="st16" d="M64.5 34.2c.3-.3.7-.7 1.1-.8.5-.1 1 .1 1.4.3-.7-.1-1.6-.1-2.1.5-.3.6-.2 1.4-.2 2.1.1.9.1 1.8.5 2.5.4.6.9 1.3 1.6 1.5-.5.1-1-.1-1.3-.5-.9-1-1.3-2.3-1.3-3.7h-1.1c-.3 0-.6.1-.9.1-.4.1-.8.1-1.2.2-.2 1.2-.4 2.5-1.2 3.5-.6.8-1.5 1.4-2.5 1.4-1.1.1-2.3-.2-3.3-.7-.6-.3-1-.9-1.4-1.5-.3-.4-.4-.8-.5-1.2-.1-.7-.2-1.4-.1-2.1l-1.5-.3c-1.6-.3-3.2-.6-4.8-.7v-.2c.2 0 .4 0 .6.1.7.1 1.4.2 2.1.2-1-.1-1.9-.4-2.9-.3l-.2.2c-1.6-.1-3.2-.2-4.9-.1-.2 0-.4-.1-.6-.2.2-.4.7-.5 1.1-.5.8 0 1.6 0 2.4.1 1.7.2 3.4.3 5.1.6.8.1 1.5.2 2.3.4.5.1 1 .3 1.5.3.3-.5.7-1 1.3-1.3 1-.4 2.1-.5 3.1-.6h1c.9.1 1.7.4 2.5.9l.6.6c.2.3.2.7.3 1 1-.3 2.1-.3 3.2-.3 0-.5.1-1 .3-1.5z"/><path class="st4" d="M64.9 34.2c.5-.6 1.4-.7 2.1-.5.6.4.8 1.1.8 1.8 0 1.3 0 2.6-.4 3.9-.1.4-.2.8-.5 1-.8-.2-1.3-.8-1.6-1.5-.4-.8-.4-1.7-.5-2.5-.2-.8-.3-1.6.1-2.2zM54.1 34.3c1.1-.4 2.3-.5 3.5-.4 1 .1 2.2.3 2.7 1.3.4.5.3 1.2.2 1.7 0 .8-.4 1.4-.6 2.1-.4.8-1 1.5-1.9 1.8-.8.2-1.7.3-2.6 0-1.3-.2-2.4-1.2-2.9-2.4-.4-.8-.4-1.7-.2-2.6l-.3.2.1-.3.3-.3h.1l.1-.1c.3-.4.8-.8 1.5-1z"/><path class="st27" d="M55.2 34.6c.5-.4 1.2-.3 1.8-.3.5 0 1.1.1 1.6.4-.5-.1-1-.2-1.5-.2-.6 0-1.2.1-1.9.1zM66.7 34.7c.4.2.4.7.4 1.1-.1.9-.2 1.9-.5 2.8.2-1.3.4-2.6.1-3.9z"/><path class="st28" d="M61.4 36.2c.6-.5 1.5-.3 2.2-.3-.3.1-.6.1-1 .1-.4.1-.8.3-1.2.2z"/><path class="st14" d="M62.2 36.3c.3-.1.6-.1.9-.1.5.8 1 1.6 1.4 2.3.5.7.9 1.4 1.1 2.2.1.4.1.8-.2 1.2-.3.4-.8.6-1.2.8-.5.2-1.1.2-1.7.3-.2 0-.6.1-.6-.2-.1-.6 0-1.2 0-1.9.1-1.6 0-3.1.3-4.6z"/><path class="st29" d="M37.6 38c.2-.8.9-1.4 1.7-1.4.5-.1 1.1.2 1.5.5.2.1.2.3.2.5-.6-.1-1.1-.7-1.7-.5-.7 0-1.4.6-1.5 1.4-.2 1.2.3 2.7 1.5 3.2.5.2 1.2.2 1.7 0 .1 0 .2.1.2.2-1.1.9-2.8.1-3.3-1.1-.4-.9-.6-1.9-.3-2.8z"/><path class="st28" d="M63.8 38.8c.6.5.8 1.3.9 2-.2-.7-.6-1.3-.9-2z"/><path d="M54.5 39.9c.8.4 1.6.4 2.5.5-.4.2-.8.1-1.2.1-.5 0-1-.1-1.3-.6z" style="fill:#b6dcd3"/><path class="st14" d="M51.5 42c.3-.6 1-1 1.7-.8.6.1 1.1.7 1.2 1.3-.4-.1-.8-.3-1.1-.4.2.5.7.6 1.1.6 0 .5-.2 1.1-.6 1.4-.6.4-1.4.5-2 .1-.6-.6-.7-1.5-.3-2.2z"/><path class="st29" d="M62.7 41.8c.2 0 .5.1.5.3-.1.5-1.2.5-.9-.1.1-.1.2-.2.4-.2z"/><path class="st12" d="M59.8 46.7c.8-.4 1.5-.8 2.4-.9.9-.1 1.9 0 2.6.7-.4.2-.9 0-1.3-.1-.6 0-1.2 0-1.8.1-.8.1-1.6.5-2.4.7 0-.3.3-.4.5-.5z"/><path d="M44 33.4c.3-1.1.3-2.3.7-3.5.1.6 0 1.2-.1 1.8-.1.5-.2.9-.3 1.4l-.3.3zm-.4-1.7c-.1.7-.2 1.3-.2 2 .2-.5.3-1.1.4-1.6.1-.7.3-1.3.4-2-.4.5-.5 1.1-.6 1.6zm-.9 1.8c.2-.5.2-1.1.4-1.6.1-.4.3-.8.2-1.3-.4.9-.5 1.9-.6 2.9zm-.5-1.3c-.1.5-.3 1.1-.2 1.6.2-.8.4-1.5.5-2.3-.2.2-.3.4-.3.7zm.7 3.2c-.1.3-.2.6-.1.9.1.8.1 1.5.3 2.3 0-.6-.1-1.2-.1-1.9-.1-.4-.1-.8-.1-1.3zm.5 0c-.1.7 0 1.3.1 2 .1.5.2 1 .5 1.4-.2-.8-.3-1.5-.4-2.3 0-.4 0-.8-.2-1.1zm-1.3 1.2c0 .8.1 1.5.2 2.3.1-.6 0-1.2 0-1.8 0-.5.1-1-.1-1.5-.1.3-.1.6-.1 1zm1.2 2.3c-.1.6.2 1.2.3 1.7.2.5.3 1.1.7 1.5-.3-1-.6-2.1-1-3.2zm1.3-.1c.1.6.4 1.2.7 1.8.3.6.6 1.2 1.1 1.7-.1-.3-.2-.5-.3-.7-.6-.9-1-1.9-1.5-2.8zm-1.9 2c.2.6.3 1.2.6 1.8-.2-1.1-.5-2.2-.8-3.3-.1.6.1 1 .2 1.5zm1.3-1.3c.1.6.4 1.1.6 1.7.2.5.4.9.7 1.3-.3-.7-.7-1.4-.9-2.2-.1-.2-.1-.6-.4-.8zm-1.6 1.9c-.1.8.1 1.5.2 2.2.2.6.3 1.3.6 1.9-.1-.6-.3-1.2-.4-1.8-.2-.7-.3-1.5-.4-2.3zm1.7 1.4c.2.6.5 1.2.8 1.8.2.4.4.8.7 1-.4-.8-.7-1.5-1-2.3-.1-.2-.2-.5-.5-.5zm-.7.2c0 .4.1.8.3 1.2.2.5.3 1 .7 1.4-.2-.5-.4-.9-.5-1.4-.2-.4-.2-.8-.5-1.2zm2.7.1c.5 1 1.2 2.1 2.1 2.9-.5-.7-1-1.4-1.4-2.2-.3-.3-.4-.7-.7-.7zm-.7-.1c0 .5.3 1 .5 1.4.3.5.5.9.9 1.3-.2-.4-.5-.8-.7-1.3-.2-.4-.4-.9-.7-1.4zm17.2.6c.3 0 .5 0 .8-.1-.2-.1-.5-.2-.8.1zm1.9-.2c.4.3.8.5 1.2.6-.4-.2-.8-.5-1.2-.6zm-17.1 0c.1.5.3.9.6 1.3.4.6.8 1.2 1.3 1.7-.3-.6-.7-1.1-1-1.6-.3-.5-.6-1-.9-1.4zm13.3.6c.6-.1 1.2-.3 1.8-.3-.6-.1-1.3-.1-1.8.3zm2.9-.2c.5.1.9.2 1.4.3-.3-.2-.7-.4-1.1-.5-.2.1-.2.2-.3.2zm-4.6.5c-.2.1-.3.2-.4.4.6-.3 1.3-.5 1.9-.9-.5.2-1 .3-1.5.5zm2.9 0c.3.1.7-.1 1-.2-.3 0-.7 0-1 .2zm1.2-.1c.4.2.9.3 1.4.5-.4-.3-.9-.6-1.4-.5zm-3.3.8c.7-.1 1.3-.5 2-.7-.7.2-1.6.2-2 .7zm5.5-.7c.3.4.7.7 1 1-.2-.4-.5-.9-1-1zm-3.9.8c.5-.1 1-.2 1.4-.4-.5 0-1.1-.1-1.4.4zm-3.8.9c.4-.1.7-.4 1-.6.3-.3.7-.4 1-.7-.8.3-1.5.7-2 1.3zm5.4-1.1c.4 0 .7.1 1.1.2-.1-.1-.3-.3-.5-.3s-.5-.2-.6.1zm1.8-.2c.3.4.7.6 1.1.9-.3-.4-.6-.9-1.1-.9zm-5.6 1c-.2.1-.4.3-.5.4.4-.1.8-.3 1.1-.5.4-.2.8-.4 1.1-.6-.5.1-1.1.4-1.7.7zm-3.2.6c.7-.3 1.3-.9 1.9-1.2-.7.2-1.4.6-1.9 1.2zm8.2-1.1c.5.3 1 .5 1.4.8-.3-.5-.8-.9-1.4-.8zm1.8.5c.2.4.4.7.6 1 .1-.4-.1-.9-.6-1zm-.5.4c.2.3.5.7.8.9-.3-.3-.4-.8-.8-.9zm-22.1.1c0 .8.3 1.7.6 2.4l-.6-2.4zm.8 0c.1.6.3 1.2.5 1.8.1.2.2.5.4.7-.3-.7-.5-1.4-.7-2.2.1-.2 0-.3-.2-.3zm3.3.1c.1.5.4.9.6 1.3.2.4.4.8.8 1.1-.3-.6-.6-1.1-.9-1.7-.1-.2-.2-.6-.5-.7zm-2.2.1c.1.5.3 1 .5 1.5.1.3.3.7.5.9-.2-.6-.5-1.2-.7-1.7 0-.3 0-.6-.3-.7zm.9 0c.1.5.4.9.6 1.4.2.3.4.7.7 1-.2-.6-.5-1.2-.8-1.7-.2-.3-.2-.6-.5-.7zm9.2.9h.2c.3-.2.7-.5.9-.8-.4.1-.8.4-1.1.8zm-6.7-.5c.2.7.6 1.2.8 1.9 0-.6-.3-1.1-.5-1.6 0-.2-.1-.3-.3-.3zm5.6.7c-.2.3-.4.5-.3.9.5-.5.8-1.2 1.1-1.7-.4.2-.6.5-.8.8zm2.2.4c.4-.3.9-.6 1-1.1-.5.2-.8.6-1 1.1zm-3.4 0c.3-.3.6-.6.8-.9-.4.1-.6.5-.8.9zm2.1.1c-.2.1-.3.3-.3.5.5-.4 1-.8 1.4-1.2-.5.1-.8.4-1.1.7zm2.7-.7c-.4.3-.7.7-.8 1.2.4-.4.8-.8 1.1-1.2h-.3zm-8.1.1c.1.6.4 1.2.6 1.7 0-.5-.2-1-.3-1.4-.1-.2-.2-.2-.3-.3zm1 0c.1.6.4 1.1.5 1.6 0-.5-.1-1.2-.5-1.6zm13.2 0c0 .7.2 1.3.1 2 .3-.3.2-.8.2-1.2-.1-.3 0-.7-.3-.8zm-1.9.1c.1.6.2 1.2.4 1.8.1-.5 0-1.1-.1-1.6 0 0-.2-.1-.3-.2zm2.7 0c.2.6.3 1.1.3 1.7.2-.5.1-1 0-1.4 0-.2-.1-.2-.3-.3zm.8 0c.1.6.1 1.3.2 1.9.1-.5.1-1 0-1.5.1-.2-.1-.3-.2-.4zm-2.4.8c.1.4.1.7.1 1.1.1-.6.2-1.4-.2-1.9 0 .3.1.6.1.8zm-1.9-.6c0 .6.2 1.1.2 1.7.1-.5.2-1.2-.2-1.7zm-9.3.2v1.8c.3-.5.2-1.2.2-1.7 0-.1-.1-.1-.2-.1zm14.4-.1c-.1.7 0 1.3.1 2 .1-.7.1-1.4-.1-2zm-13.4.8c-.2.3-.4.6-.3 1 .4-.4.6-1.1.8-1.6-.2.1-.3.4-.5.6zm7.4-.6c.1.6.3 1.2.3 1.7.1-.5.1-1-.1-1.5 0-.1-.1-.2-.2-.2zm-.9.1c.1.5.2 1.1.4 1.6-.1-.6 0-1.3-.4-1.6zm-.9.1c0 .4.2.8.3 1.2.1.3.1.6.3.9 0-.4-.1-.8-.2-1.2-.1-.4-.1-.7-.4-.9zm-3.3 1.6c.3-.1.4-.4.6-.6.2-.3.5-.5.6-.9-.6.3-.9.9-1.2 1.5zm2.3-1c-.2.3-.3.7-.3 1.1.3-.4.5-.9.6-1.3-.1 0-.2 0-.3.2zm-2.8.4c-.3.3-.6.6-.6 1 .3-.2.5-.6.8-.9.2-.3.4-.5.6-.8-.4.2-.6.5-.8.7zm-1 .2c-.2.3-.5.5-.4.9.5-.3.7-.9 1-1.4-.3.1-.5.3-.6.5zm-9.4-.3c-.1.8.4 1.6.8 2.3l-.3-.9c-.2-.5-.3-1-.5-1.4zm1.7-.1c-.1.6.3 1.2.6 1.7-.1-.5-.3-1.1-.6-1.7zm3 .1c0 .6.2 1.2.3 1.9.1-.5 0-1.1-.1-1.6 0-.1-.1-.3-.2-.3zm7.1.8c.4-.2.6-.5.9-.8-.5 0-.7.5-.9.8zm2-.9c-.1.5-.2 1.1.1 1.6 0-.4.1-.8.1-1.2 0-.1-.1-.3-.2-.4zm-10.1.2c.1.6.2 1.2.4 1.7 0-.5-.1-1.1-.2-1.6-.1 0-.2-.1-.2-.1zm-.9.3c0 .5.2 1 .4 1.5-.1-.5-.1-1.1-.4-1.5zm3 0c0 .5 0 1.1.1 1.6.3-.5.1-1.1.2-1.6h-.3zm-4.8 0c.1.5.3 1 .6 1.4-.2-.5-.4-.9-.6-1.4zm19.6.1c.1.5.1 1.1.3 1.6.1-.3.1-.6.1-.9-.1-.3-.1-.7-.4-.7zm-1.8 0c0 .7.2 1.3.3 1.9.1-.2.1-.5.1-.7-.2-.4-.1-.9-.4-1.2zm1.1 1.8c.1-.6 0-1.2-.2-1.8 0 .7.1 1.2.2 1.8zm1.6-1.7c.1.5.1 1 .2 1.5.1-.5.2-1.1-.2-1.5zm-3.6.1c0 .6.1 1.2.2 1.8.1-.5.1-1 0-1.6l-.2-.2zm-1.9.2c.1.6.2 1.1.3 1.7.2-.5.1-1 0-1.5-.1-.2-.2-.2-.3-.2zm1.1 0c.1.5.1 1 .2 1.6.1-.5.1-1 0-1.5-.1-.1-.2-.1-.2-.1zm-10.3.3-.3 1.5c.3-.6.4-1.2.6-1.8-.2.1-.3.2-.3.3zm.6 1.1c.3-.4.7-.8.9-1.2-.5.2-.7.7-.9 1.2zm3-.2c.5-.2.8-.6 1-1-.4.2-.8.5-1 1zm4.9-1.1c.1.5.1 1 .2 1.5.2-.4.1-.7.1-1.1-.1-.2-.2-.4-.3-.4zm-6.2 1.7c.2-.2.4-.5.6-.7.2-.2.4-.4.5-.7-.5.2-.9.7-1.1 1.4zm2.3.1.9-1.5c-.5.3-.7.9-.9 1.5zm-3 .2c.2-.5.6-.9.7-1.5-.5.3-.7.9-.7 1.5zm4.2-1c-.2.5-.3 1-.3 1.5.3-.6.4-1.2.6-1.8-.1 0-.2.1-.3.3zm1.9-.5c0 .6.1 1.2.1 1.8.1-.6.2-1.3-.1-1.8zm-1.1.6c0 .5-.1 1 .1 1.5.1-.5.1-1 .1-1.5h-.2zm-11.4 0c.1.5.3 1 .5 1.4-.1-.4-.1-1-.5-1.4zm1.5 1.7c0-.6 0-1.1-.1-1.7-.1.6 0 1.1.1 1.7zm.8-1.3c0 .5 0 1 .2 1.4.1-.6.1-1.1 0-1.7-.1.1-.2.2-.2.3zm.9 1.5c.1-.5.2-1 .2-1.6-.2.5-.2 1.1-.2 1.6zm4.4.5c.1-.7.4-1.3.5-1.9-.5.5-.6 1.3-.5 1.9zm10.9-1.9c0 .7 0 1.4-.1 2.1.2-.5.3-1.1.3-1.7 0-.1 0-.3-.2-.4zm.9 0c0 .7-.1 1.4 0 2 .2-.5.2-1.1.2-1.7 0-.1-.2-.2-.2-.3zm-13.9.5c-.2.5-.4 1-.4 1.6.3-.6.5-1.3.8-1.9-.2 0-.3.1-.4.3zm12.1-.5c-.1.7 0 1.3 0 2 .2-.2.2-.5.2-.8.1-.4.1-.8-.2-1.2zm2.5.1c0 .7 0 1.5-.1 2.2.2-.5.3-1 .3-1.5 0-.3 0-.5-.2-.7zm-6.9 0c-.1.6-.1 1.1 0 1.7.1-.5.3-1.2 0-1.7zm3.5.8c0 .4-.1.8 0 1.2.2-.6.3-1.3.2-1.9-.3.1-.2.5-.2.7zm-12.9 1.2c.2-.6.3-1.2.3-1.8-.4.5-.3 1.2-.3 1.8zm4.6 0c.2-.6.4-1.2.5-1.8-.5.5-.5 1.2-.5 1.8zm5.5-1.8v1.9c.3-.5.2-1 .2-1.5.1-.2 0-.3-.2-.4zm1 .1c0 .6 0 1.1-.1 1.7h.2c.1-.6.2-1.1.2-1.7h-.3zm.8-.1v1.7c.3-.4.3-1 .2-1.5.1-.1 0-.1-.2-.2zm-3.7.1c-.1.4 0 .8 0 1.2 0 .2 0 .4.2.6 0-.6.2-1.3-.2-1.8zm-5.5 2c.1-.3.2-.7.3-1.1.1-.2.3-.5.2-.7-.4.4-.5 1.1-.5 1.8zm3 0c.2-.5.2-1.1.3-1.7-.5.4-.4 1.1-.3 1.7zm-5-1.2c-.2.5-.2 1.1-.3 1.6.2-.6.4-1.2.4-1.8 0 .1-.1.2-.1.2zm1.3.6c-.1.5-.2 1-.2 1.6.2-.7.3-1.5.6-2.2-.3.1-.4.3-.4.6zM57 53c-.1.5-.1 1 .1 1.5v-1.6l-.1.1zm-10.4.1c.1.5.4 1 .5 1.5 0-.5-.2-1.1-.5-1.5zm1.1.5c.1.6.1 1.3.4 1.8 0-.6-.1-1.2-.2-1.9-.1 0-.2 0-.2.1zm10 0c-.1.5-.1 1 .1 1.4 0-.4.1-.8 0-1.2 0-.1-.1-.2-.1-.2zm-8.9.3c0 .6 0 1.1.1 1.7v-1.9c-.1.1-.1.2-.1.2zm4.7-.1c-.1.5-.2 1.1 0 1.6.1-.5.2-1.1.2-1.6-.1.1-.2 0-.2 0zm-3.9.5c-.1.6-.2 1.3 0 1.9.1-.6.1-1.3.2-1.9h-.2zm4.8 1.9c-.1-.7-.1-1.4-.1-2.1-.2.7-.2 1.5.1 2.1zm4.2-.3c.1-.6.3-1.2.1-1.8-.2.6-.1 1.2-.1 1.8zm.5-.3c.3-.4.4-1.1.2-1.5-.1.5-.1 1-.2 1.5zm.6.1c.1-.5.2-1 .1-1.5-.1.5-.1 1-.1 1.5zm2-.9c0 .4-.1.8-.2 1.1.4-.5.5-1.2.3-1.8-.1.2 0 .5-.1.7zm-1.1-.4c0 .6-.1 1.2-.2 1.8.4-.5.4-1.1.4-1.7 0-.1-.1-.1-.2-.1zm2.4 0c-.1.6-.1 1.2-.4 1.8.4-.6.5-1.2.6-1.9 0 0-.1.1-.2.1zm1.6 1.8c.3-.6.6-1.3.4-1.9-.2.6-.3 1.3-.4 1.9zm-.7-1.2c0 .4-.2.8-.2 1.3.4-.5.5-1.2.5-1.9-.3.1-.3.4-.3.6zm1.8-.5c-.1.6-.3 1.3-.3 1.9.4-.5.5-1.2.5-1.9h-.2zm-10.5 1.6c0-.5.1-1 .1-1.6-.4.5-.2 1.1-.1 1.6zM56 55c0 .4 0 .8.1 1.1.1-.5.1-1 .1-1.5-.1.1-.2.2-.2.4zm-4.9.2c-.1.5-.1 1.1 0 1.6.1-.7.1-1.3.2-2 0 .2-.2.3-.2.4zm5.9-.1c.1.4 0 1 .3 1.3 0-.4 0-.9-.1-1.3H57zm-6.7.6c.1.5.1 1 .2 1.4.1-.7 0-1.3 0-2-.3.1-.2.4-.2.6zm2.5 1.2v-1.7c-.4.5-.2 1.2 0 1.7zm-4.5-1.1c.1.6.3 1.2.7 1.7-.1-.4-.3-.8-.4-1.2-.1-.3-.1-.5-.3-.5zm3.4.6c0 .5 0 1 .1 1.4 0-.7.1-1.4.1-2.2-.2.3-.2.6-.2.8zm6.2-.4c0 .3.1.7.1 1 .2-.3.1-.7.1-1-.1-.1-.2 0-.2 0zm-4.6 0c0 .6 0 1.2.2 1.7 0-.5 0-1.1-.1-1.6.1 0 0-.1-.1-.1zm5.7.6c.3-.1.2-.4.2-.6-.2.1-.2.4-.2.6zm-4.1-.2c.1.4.1.8.3 1.1 0-.4-.1-.8-.1-1.1h-.2zm.8 0c0 .3.1.7.3.9 0-.3 0-.6-.1-1-.1.1-.2.1-.2.1zm1.2.9c0-.3.1-.7-.1-1-.2.3-.1.7.1 1zm2.7-.8-.3 1.5c.3-.4.4-1 .4-1.5h-.1zm1.7 1.5c.3-.5.5-1 .5-1.5-.4.4-.4 1-.5 1.5zm1.2-1.5c-.2.5-.3 1.1-.4 1.7.4-.5.5-1.1.6-1.7h-.2zm-13.1 0c0 .2-.1.4 0 .6.1.5.3 1 .6 1.4-.3-.7-.4-1.4-.6-2zM60.2 58c.3-.4.5-1 .4-1.5-.2.5-.3 1-.4 1.5zm3.2-.8c-.1.4-.2.7-.4 1.1.4-.4.6-1 .7-1.6-.2 0-.3.3-.3.5zm1 0c-.2.4-.4.8-.6 1.1.2-.1.3-.2.4-.3.3-.4.6-.9.6-1.4-.2.1-.3.4-.4.6zm-10 1.1c0-.5-.1-1-.2-1.6-.3.5 0 1.1.2 1.6zm4.1.1c.4-.4.6-1 .5-1.6-.2.6-.4 1.1-.5 1.6zm-.5-1.3c0 .4-.1.9 0 1.3.2-.4.2-.9.2-1.3H58zm6.2 1.7c.5-.3.8-.8 1-1.2.1-.2.1-.4.2-.6l-1.2 1.8zm-7.1-1.3v1.1c.3-.4.1-.9.2-1.4-.1.1-.2.2-.2.3zm-6.8 0c-.1.5.2 1 .5 1.4-.1-.5-.2-1-.5-1.4zm5.8-.1c-.2.4-.1.9.2 1.3 0-.4-.1-.9-.2-1.3zm-3.8.6c0 .5.1 1 .3 1.4-.1-.6-.1-1.2-.2-1.8-.1.1-.2.2-.1.4zm-1.1.3c.1.4.3.8.5 1.2-.2-.6-.3-1.2-.4-1.7-.2 0-.2.3-.1.5zm1.7-.5c0 .5.3 1 .5 1.5 0-.5-.2-1-.3-1.6-.1 0-.2.1-.2.1zm2.3 0c-.1.4.2.8.4 1.1-.1-.4-.2-.7-.4-1.1zm-1.2.7c.1.2.2.5.4.7 0-.2-.1-.5-.2-.7 0-.1-.2 0-.2 0zm4.9 1.4c.4-.4.8-.9.7-1.5-.3.4-.5 1-.7 1.5zm.7.2c.3-.3.6-.7.8-1.1.1-.1 0-.3 0-.5-.3.5-.5 1-.8 1.6zm2.7-1.4c-.3.5-.7 1-.9 1.5.4-.4.8-.9 1.1-1.5h-.2zm-1 .1c-.3.4-.5.8-.7 1.3.4-.4.8-.8 1-1.4-.2 0-.3.1-.3.1zm1.7.2c-.2.4-.5.7-.7 1.1.5-.3.9-.8 1-1.3-.1 0-.2.1-.3.2zm-4.6-.2c-.2.4-.3.9-.5 1.3v.2c.3-.4.6-.8.6-1.2 0-.1-.1-.2-.1-.3zm-1.2 1.6c.1-.5.4-1 .3-1.5-.3.5-.3 1-.3 1.5zm-.9-1.2c0 .4.1.9.2 1.3.1-.5 0-.9 0-1.4 0 .1-.1.1-.2.1zm-1.3.2c.2.5.4 1.1 1 1.2-.3-.4-.5-.8-.8-1.2-.1-.1-.2 0-.2 0zm-.8.1c.1.6.6 1 1.1 1.3-.4-.4-.8-.9-1.1-1.3zm-1 .1c0 .4.3.8.6 1.1-.1-.3-.3-.7-.4-1-.1 0-.2-.1-.2-.1zm.7.5c.1.2.3.4.5.6l-.3-.6h-.2zm4.1.9c.3-.2.6-.4.8-.8-.4 0-.6.5-.8.8zm.8 0c.3-.2.6-.4.7-.8-.3.2-.6.5-.7.8zm-2-.3c0 .2.1.4.2.5.1-.2.1-.4.1-.5 0-.1-.2 0-.3 0z" style="fill:#223f4a"/><path class="st32" d="M64.3 62.6h.2c.1.2.1.3 0 .5-.8 1.3-1.9 2.3-3.1 3.2-.7.5-1.3.9-2 1.4-.9.7-2 1.2-3 1.7-1.1.5-2.1 1-3.2 1.3-.8.2-1.7.5-2.5.7-2 .3-4 .8-6 .9-1.5.2-2.9.1-4.4.1-1.2 0-2.3-.2-3.4-.4-1.2-.2-2.4-.5-3.5-.8-1.1-.4-2.2-.9-3.2-1.5-.6-.4-1.3-.6-1.9-1.1-.7-.6-1.6-1.1-2.2-1.8-.6-.5-1-1.2-1.5-1.8-.3-.3-.5-.7-.8-1.1-.1-.1-.1-.2-.1-.4.1 0 .3.1.4.1.1.6.7.9 1 1.4.6.8 1.2 1.6 2 2.2.5.4 1 .7 1.4 1.1.6.5 1.3.8 1.9 1.2 1 .5 1.9 1 2.9 1.4 1.9.5 3.8.9 5.7 1.2 1.9.2 3.9.1 5.8-.1.6-.1 1.2-.1 1.7-.1 1.4-.2 2.7-.6 4.1-.7.9-.1 1.7-.5 2.6-.7.8-.2 1.4-.5 2.1-.8 1-.4 1.9-.9 2.9-1.4.8-.4 1.5-.9 2.2-1.4.9-.6 1.9-1.3 2.6-2.1.4-.8.9-1.4 1.3-2.2zM26.4 81.1c.1 0 .3-.1.4-.1-.2.2-.5.3-.8.4-2 .9-4 1.9-5.8 3.1-1.2.7-2.3 1.5-3.3 2.5-.5.4-1 .9-1.5 1.3.7-.7 1.3-1.5 2-2.1 1.3-1.1 2.7-2 4.2-2.8 1.5-.9 3.2-1.6 4.8-2.3zM70.1 81.2c.7.9 1.3 1.8 2 2.6 1.4 1.8 2.8 3.6 3.9 5.6.5.9 1 1.8 1.3 2.8-.9-2.2-2.3-4.2-3.7-6.1-1.2-1.6-2.5-3.1-3.5-4.9z"/><path class="st33" d="M7.4 97.2c.1-.3.1-.6.4-.8-.7 2.7-1.4 5.5-2.4 8.1-.2.6-.6 1.2-.9 1.8-.6 1.1-1.3 2.1-2.1 3.1-.6.8-1.4 1.5-1.9 2.4-.5.8-1 1.6-1.5 2.3h-.3c.1-.6.4-1.2.8-1.8.2-.2.2-.5.2-.7h-1.4c-.5 0-1.1.2-1.6.1-.5 0-1-.2-1.5-.4s-1-.1-1.5 0c-.7.1-1.3.6-2 .6-1.8 0-3.5-.4-5.3-.7-2.1-.5-4.3-.8-6.4-1.4-1.1-.2-2.1-.5-3.2-.9-.3-.1-.6-.2-.7-.5.9.2 1.7.5 2.6.7 2.8.6 5.7 1.2 8.5 1.9 1.3.3 2.6.5 3.9.6.5 0 1.1 0 1.6-.3.8-.4 1.9-.6 2.8-.3.7.2 1.4.4 2.1.3.8-.1 1.5-.2 2.3-.1-.6-1.7-1.6-3.2-2.6-4.6-.4-.6-1.3-.8-1.6-1.5.7.4 1.4.7 1.9 1.3 1 1.3 1.8 2.6 2.4 4.1.1-1.9.2-3.9-.1-5.8-.1-1.1-.2-2.2-.5-3.3-.3-1.1-.6-2.3-1-3.4-.1-.2 0-.4 0-.6.6 1.2 1.1 2.5 1.4 3.9.4 1.5.5 3.1.7 4.7.1 1.4 0 2.8 0 4.2 0 .4-.1.8-.3 1.2.5-1 1.3-1.8 2-2.6 1-1.2 1.9-2.6 2.6-4 1.1-2.3 1.8-4.9 2.6-7.6z"/><path class="st34" d="M84.4 101.9c.6 1.3.8 2.8 1 4.2.2 1 .2 2.1.4 3.1.1.9 0 1.8.2 2.7.7-2.1 1.9-4 3-5.9.5-.9 1-1.8 1.6-2.6-1.2 2.8-2.9 5.3-4.1 8.1-.3.7-.5 1.4-.5 2.2 0 1.8-.3 3.5-.6 5.3 1-1.6 2.2-3.2 3.3-4.7 1.5-2 2.7-4.1 4.1-6.1.4-.6.8-1.3 1.3-1.8-.1.5-.4.9-.6 1.3-1.2 1.9-2.3 3.9-3.6 5.7-1.4 1.8-2.9 3.6-4.1 5.5-.3.5-.5 1-.6 1.6.4.1.8.3 1.2.2.6-.1 1.3-.4 1.9-.1.8.5 1.6 1 2.6 1.3 1.3.4 2.6.5 3.9.4 1.5 0 2.9-.3 4.4-.5 2.5-.4 4.9-1.1 7.2-2.2.3-.1.6-.3 1-.3-.5.5-1.2.7-1.8 1-2 1-4.1 1.4-6.3 1.7-2.6.3-5.3 1-8 .4-1.1-.2-2.1-.8-3-1.4-.5-.3-1.2 0-1.7.1-.4.1-.8-.1-1.2-.2l-.3 1.8c0 .5.1 1.1.1 1.6H85v-.3h-.1v-.3c0-1.2-.4-2.3-.8-3.4-.6-1.8-1.2-3.6-2-5.4-.6-1.6-1.4-3.2-2.2-4.7-.2-.5-.7-1-.6-1.7.1.2.1.3.2.5.5.8 1 1.7 1.4 2.5.5 1 1 2 1.4 3 .9 2 1.7 4.1 2.4 6.2.1.4.2.9.4 1.3.2-1 .1-2 .3-2.9.8-3.6.9-7.3.5-10.9-.1-1.6-.4-3.3-.7-4.9-.7-.4-.8-.9-.8-1.4z"/><path class="st32" d="M99.5 109.4c.2-.3.4-.5.7-.7-1 1.6-2.2 3-3.5 4.3-.9.9-1.7 1.9-2.5 2.9-.2.2-.3.4-.5.5.6-.6 1-1.4 1.6-2 1.3-1.8 2.8-3.3 4.2-5z"/><path class="st33" d="M-2.1 118.5c0-.7 0-1.4.4-2 0 .6-.1 1.2-.1 1.8 0 .3-.1.6.1.9-.1 1 .3 1.9.9 2.7.9 1.1 2 2 3.2 2.7 1.4.8 3 1.2 4.5 1.5 1.4.3 2.7.6 4.1.7.5 0 .9-.1 1.4-.1-.2.3-.6.3-1 .4-1.1.1-2.2-.1-3.3-.3-1.9-.3-3.8-.6-5.5-1.5-1.1-.6-2.2-1.3-3.1-2.3-.6-.6-1-1.3-1.3-2.1-.3-.8-.3-1.6-.3-2.4z"/><path class="st34" d="M61.1 118.6c1-.2 2-.4 3-.7v.2c-2.1.6-4.3 1-6.5 1.5-5.1 1.1-10.2 2.4-15.1 4-1.4.5-2.8.9-4.2 1.3-.7.2-1.3.6-1.9.8.1-.2.2-.4.4-.5.9-.6 1.9-.9 2.9-1.2 2.2-.7 4.3-1.4 6.5-2.1 2.3-.7 4.6-1.3 7-1.8 2.6-.5 5.3-1 7.9-1.5zM66.6 123.9c1.1-.5 2.2-1 3.2-1.7-.5.6-1.2.9-1.9 1.3-1.3.7-2.6 1.3-4 1.7-1.9.6-3.8 1.3-5.7 1.8-2.3.6-4.6 1-7 1.2l-3 .3c-.4 0-.8.1-1.2 0 2.1-.4 4.3-.5 6.4-.9 2.5-.5 5-1 7.5-1.8 2-.6 3.9-1.1 5.7-1.9z"/><path d="M81 132.5c.1-.1.1-.3.2-.4-.1 1.2-.7 2.2-1.1 3.2-1 2.2-1.6 4.6-1.3 7-.3-.3-.3-.8-.3-1.2-.1-2 .3-4.1 1.2-5.9.4-.8 1-1.7 1.3-2.7z" style="fill:#206f80"/><path d="M2 134.8c.3-.5.5-1 1-1.4.1.3-.3.6-.4.9-1.9 3.8-3 7.8-4.2 11.9-.5 1.9-1.1 3.8-1.4 5.8-.2-.3-.1-.6 0-.9.4-2.2 1-4.3 1.6-6.4.9-3.4 1.8-6.8 3.4-9.9z" style="fill:#216f81"/><path class="st33" d="M12.8 140c.3-1 .6-2.1 1.2-3-.8 2.3-1.3 4.6-1.8 7-.6 2.5-2.8 13.4-3.4 16.3-.6 2.5-1.1 4.9-1.9 7.4l-2.1 6c-.3.7-.5 1.6-1.1 2.2.5-1 .9-2 1.2-3.1.8-2.4 1.6-4.8 2.2-7.3.5-2.1.9-4.2 1.4-6.3.6-2.6 1-5.3 1.6-7.9.8-3.7 1.7-7.5 2.7-11.3z"/><path class="st32" d="M67 151c.5.8.9 1.7 1.1 2.6.5 1.6.5 3.4.5 5v5.2c0 1.1.1 2.2-.1 3.4-.1-.6 0-1.2-.1-1.8-.2-2.7-.2-5.4-.3-8.1 0-1.6-.2-3.2-.7-4.7 0-.6-.3-1-.4-1.6zM24.1 156.3c.2-.4.2-.8.5-1.2-.3 1.8-1.1 3.4-2.1 4.8-1.5 2.3-3.1 4.6-4.4 7-.3.5-.5 1-.9 1.4.9-1.8 1.9-3.5 3-5.2.8-1.3 1.6-2.5 2.5-3.8.5-.9 1-1.9 1.4-3z"/><path class="st34" d="M78.3 160.9c0-.3-.1-.7.1-1 .6 2.3.2 4.6-.1 6.9-.4 3-1.1 5.9-1.5 8.9-.2.9-.2 1.8-.3 2.7-.1-.4-.1-.8-.1-1.2.2-2.7.7-5.4 1.2-8 .3-1.6.5-3.1.7-4.7 0-1.3.1-2.5 0-3.6z"/><path class="st33" d="M55.5 174.3c1.8-.3 3.7-.4 5.5-.4 1 0 2 .1 3 .1v.3c-1 .1-2 0-2.9 0-2.6.1-5.2.4-7.8.9-1 .2-2 .5-3 1-.3.1-.6.4-.9.4.1-.5.6-.7 1-.9 1.5-.7 3.3-1.1 5.1-1.4z"/><path class="st37" d="M-1.3 174.9c.3.2.4.5.6.8.3.6.6 1.2.9 1.9.1.2.1.4.1.6-.6-1.1-1.2-2.2-1.6-3.3zM-2.1 175.6c.4 0 .5.3.7.6.5.6.8 1.2 1.2 1.8-.4-.3-.7-.6-1-1-.2-.5-.7-.9-.9-1.4z"/><path d="M88.2 177.6c.1-.3.1-.6.4-.8.6.1 1.3.3 1.9.4 1.5.5 3.1.7 4.6 1 1 .2 2 .3 3 .5.4-.4.7-.9 1.2-1.1.7-.3 1.4-.1 2.1 0 .4.1 1 0 1.3.5.1.1 0 .3 0 .5v-.2c-.8-.3-1.7-.5-2.6-.4-.3 0-.5.3-.6.6-.4 1-.5 2.1-.7 3.2 0 .3 0 .8.4.9.8.4 1.7.3 2.6.2 0 .3-.3.6-.6.6-.9.1-1.8.1-2.6-.2-.5-.2-.8-.8-1.2-1.1-.7-.2-1.4-.1-2.2-.2-2.4-.3-4.7-1-6.9-1.8-.3-.1-.6-.3-.6-.7.2-.6.4-1.3.5-1.9z" style="fill:#f9f8dc"/><path d="M99.6 178.5c.1-.3.3-.6.6-.6.9-.1 1.8 0 2.6.4v.2c-.3 1.5-.4 3-.8 4.5-.8 0-1.8.1-2.6-.2-.4-.1-.4-.6-.4-.9 0-1.3.2-2.4.6-3.4z" style="fill:#143f4e"/><path class="st40" d="M10.3 181.5c.1-.3.1-.7.3-.9.3-.1.2.3.2.5-.2 1-.5 2-.7 3-.4 1.9-.8 3.7-1 5.6h-.2c0-1.1.2-2.1.4-3.1.2-1.7.5-3.5 1-5.1zM58.3 187.3c0-.6-.2-1.1-.1-1.7.3-.1.4.2.4.5.2 1.4.2 2.9.3 4.3v6.3h-.3c-.1-3.1 0-6.3-.3-9.4z"/><path class="st37" d="M88.9 188.9c.1-.3.2-.7.5-.9-.2.8-.5 1.5-1 2.1.1-.5.3-.9.5-1.2zM89.2 189.2c.2-.3.3-.6.7-.7-.2.7-.6 1.2-1.1 1.7 0-.4.3-.7.4-1z"/><path class="st41" d="M67.6 192.6c.1-.3.1-.7.5-.7.1.5-.2 1-.3 1.5-.7 2.1-1.4 4.2-2 6.3-.3 1-.6 2.1-.7 3.1h-.2c.2-2 .8-3.9 1.4-5.9.3-1.5.7-2.9 1.3-4.3z"/><path class="st37" d="M96 194h.2c-.2.8-.6 1.6-1 2.4-.7 1.3-1.6 2.3-2.5 3.4-.5.5-1 1.2-1.7 1.4 1.3-1.1 2.4-2.5 3.3-3.9.7-1 1.2-2.1 1.7-3.3z"/><path class="st12" d="M92.3 195.8c.3-.6.4-1.2.7-1.8v.9c.2-.3.5-.6.8-.8-.1.4-.4.7-.7 1-.3.3-.4.7-.6 1.1-.9 1.6-1.9 3.1-3.1 4.4-.1.2-.3.3-.5.4.4-.6.9-1.1 1.3-1.7.7-1.1 1.4-2.3 2.1-3.5z"/><path class="st37" d="M95.1 198.4c1.1-1.4 1.5-3.2 2.8-4.4-.4.7-.8 1.3-1.2 2-.4.9-.9 1.7-1.6 2.4z"/><path class="st40" d="M33 206.2c.1-.7.2-1.5.5-2.2.1.1.1.3.1.5-.3 1.5-.3 3-.4 4.5 0 1.4-.3 2.8-.4 4.2-.2 2.1-.9 4.2-1.3 6.3-.1.6-.2 1.3-.3 1.9 0 .2-.1.2-.3.3 0-1.4.2-2.7.4-4.1.2-1.2.5-2.4.8-3.6.2-1.2.4-2.3.5-3.5.4-1.5.2-2.9.4-4.3zM74.9 218.5c.4-1.3.5-2.7 1.1-4-.1 1.1-.4 2.1-.5 3.2-.3 1.7-1 3.3-1.8 4.9l-3.3 6c-1 1.9-2 3.8-2.9 5.8-.2.5-.4 1-.8 1.3 0-.4.2-.7.4-1 1.6-3.6 3.3-7.2 5.2-10.7 1-1.8 2-3.6 2.6-5.5zM-12.8 217.8h.2c.4 1.3.8 2.6 1 3.9.4 1.9.8 3.8 1.3 5.6 1 3.5 3.1 6.6 5 9.7.5.8 1.1 1.6 1.6 2.4.1.1.2.3.2.5-.5-.5-.9-1.1-1.3-1.6-1.3-1.8-2.5-3.7-3.7-5.5-.9-1.5-1.7-3-2.2-4.6-.6-2-1.1-4-1.5-6.1 0-1.5-.3-2.9-.6-4.3zM29 224.1c.3-.5.4-1 .7-1.4-.1.8-.5 1.5-.8 2.2-.9 1.9-2.3 3.4-3.6 5-1.4 1.7-2.7 3.4-4 5.2-.8 1.1-1.5 2.3-2.3 3.4-.1.2-.2.1-.4.1 2.1-3.7 4.5-7.1 7.1-10.4 1.3-1.2 2.4-2.6 3.3-4.1zM.5 229.7c-.1-.3-.2-.7 0-1 .6 1.8 1.4 3.6 2.2 5.4.8 2 1.6 3.9 2.3 6 .4 1.3.9 2.7 1.1 4.1.1.4.2.8 0 1.1-.2-.5-.3-1-.4-1.5-.5-1.8-1.1-3.5-1.7-5.2-.8-2.1-1.7-4.1-2.6-6.2-.3-1-.6-1.9-.9-2.7z"/><path d="M32.3 236.7c-.1-.5-.3-.9-.2-1.4.5 1.8 1.1 3.6 2 5.3.8 1.6 1.7 3.1 2.7 4.6 1.2 1.7 2.3 3.4 3.6 5-.3-.1-.5-.3-.7-.6-1-1.2-1.9-2.5-2.8-3.7-.9-1.3-1.8-2.5-2.5-3.9-.9-1.7-1.7-3.4-2.1-5.3z" style="fill:#ac413e"/><path class="st41" d="M66 241.7c.1-.1.2-.2.4-.2-.3.9-.9 1.5-1.5 2.2-2.9 3.3-5.8 6.7-8.6 10.1H56c2.2-2.9 4.6-5.7 7-8.5 1-1.2 2.1-2.3 3-3.6z"/><path class="st40" d="M23.9 243.1c.1-.2.2-.6.5-.6-.1 1-.6 1.9-1.1 2.8-1.8 2.9-3.7 5.7-5.2 8.7-.3.6-.5 1.2-.9 1.7-.1-.4.2-.7.3-1 .7-1.7 1.5-3.2 2.4-4.8.9-1.5 1.7-3 2.6-4.5.6-.8 1.1-1.5 1.4-2.3zM-11.5 243.9c.1 2.2.8 4.4 1.9 6.4 1.6 2.7 4 4.8 6.1 7.1.2.3.6.6.5 1-.4-.3-.6-.7-.9-1-.9-.9-1.9-1.8-2.8-2.8-1.1-1.2-2.3-2.4-3.1-3.8-1-1.8-1.7-3.9-1.8-5.9-.1-.3 0-.7.1-1z"/><path class="st41" d="M68 248.1c.2-.3.4-.7.7-.9-.1.7-.5 1.2-.9 1.8-1.8 2.4-4.1 4.4-6.2 6.5-1 1-2 2-3 3.1-.2.2-.3.4-.6.3 2.2-2.7 4.7-5 7.1-7.5 1-1.1 2-2.1 2.9-3.3z"/><path class="st40" d="M-1.8 250.3c.5 0 .7.5.9.8.9 1.5 1.7 3 2.4 4.5.6 1.4 1.3 2.9 1.4 4.5h-.3c-.2-1.5-.8-2.8-1.5-4.2-.6-1.2-1.2-2.4-1.9-3.6-.3-.5-.5-1-.8-1.5 0-.1-.1-.3-.2-.5z"/><path class="st41" d="M39 255.1h.3c.4.5.9.9 1.3 1.4 1.3 1.4 2.4 3.1 3.4 4.7.7 1.3 1.3 2.6 1.7 4.1h-.2c-.4-1.5-1.1-2.9-1.9-4.2-.9-1.5-2-3-3.2-4.3-.6-.6-1.1-1.1-1.4-1.7z"/><path class="st40" d="M64.6 263.2c0 .1.1.2.1.2-.5 1.2-1.4 2.3-2.3 3.3-1 1.1-2.1 2.1-3.2 3.1-1.6 1.4-3.1 2.9-4.7 4.3-.2.2-.4.5-.8.5.8-1 1.8-1.8 2.7-2.7 1.2-1.2 2.4-2.3 3.7-3.5 1.1-1.1 2.2-2.2 3.2-3.4.4-.6.8-1.2 1.3-1.8z"/><path class="st41" d="M54.3 266.6c.5-.5.8-1.2 1.4-1.6 0 .4-.3.6-.5.9-1.8 2.4-3.5 4.8-5.3 7.2-.2.2-.3.6-.7.5 1.8-2.4 3.4-4.7 5.1-7zM39.5 269.7c.7.4 1 1.1 1.5 1.7.8 1.4 1.6 2.7 2.3 4.2H43c-.9-1.6-1.8-3.2-2.8-4.8-.3-.4-.7-.7-.7-1.1z"/><path class="st43" d="M4.5 277v-.1.1c.2 1.2.1 2.4.1 3.6 0 1.5.1 3 0 4.5v.1-.1c-.1-1.1-.1-2.1-.1-3.2 0-.9-.1-1.8 0-2.7-.1-.7-.1-1.4 0-2.2zM16.1 281.3c.2-1.3.3-2.7.4-4 .1.9 0 1.7-.1 2.6-.1 1.2-.3 2.4-.5 3.7-.1.5-.1 1.1-.4 1.6.4-1.4.4-2.7.6-3.9z"/><path class="st40" d="M19.2 275.4c-.2 0-.4 0-.5.1-.6.3-1.1.7-1.8.8-1 .2-1.9.5-2.9.6-.8.1-1.5 0-2.3.1-1.2.1-2.5.1-3.7 0-1.6-.1-3.1-.5-4.7-.7-1.1-.1-2.1-.3-3.1-.4-.9-.1-1.9-.2-2.8-.5-.2-.1-.5-.2-.8-.1-.1.2 0 .3.2.4.3.2.7.2 1 .3.2 3 1.9 5.6 3 8.4-.2 0-.4 0-.6.1.4.5 1.2.4 1.8.7l.1-.1c.2 0 .4.1.6.1.7.2 1.5 0 2.2.3 1.4.2 2.9.4 4.3.4 1.3 0 2.5 0 3.8-.1 1.3-.1 2.7 0 3.9-.4.3-.2.7-.2.8-.6-.5.1-1 .2-1.4.3.7-1.8 1.2-3.6 1.3-5.5 0-.9.2-1.8.1-2.8-.2.4-.2.8-.2 1.2-.3 2.4-.4 4.9-1.3 7.1-.8.3-1.6.4-2.4.4-1.2.1-2.5.1-3.7.1.2-1.3.3-2.6.4-3.9.1-1.4.2-2.7.2-4.1 1.2 0 2.4 0 3.6-.1 0 2.6-.3 5.2-.6 7.8.3-.9.3-1.9.4-2.8.2-1.7.4-3.3.3-5 .3 0 .7-.1 1-.2 1-.3 2-.4 2.9-1 .4-.2.9-.4.9-.9zM.9 284.6c-.5-1.5-1.2-3-1.7-4.6-.5-1.3-.8-2.6-1.1-3.9l1.8.3c-.1 1.1.2 2.3.3 3.4.3 1.7.9 3.4 1.5 5-.3-.1-.6-.2-.8-.2zm.9.1c-.7-1.8-1.1-3.6-1.4-5.5-.2-.9-.2-1.9-.4-2.8.5.1 1 .2 1.5.2.1 1.9.3 3.8.7 5.7.1.7.3 1.4.6 2.1h.1c-.2-.4-.3-.9-.4-1.4-.3-1.9-.6-3.8-.8-5.7v-.7c.5.1 1 .1 1.5.2 0 1.9 0 3.8.2 5.7.1.8.1 1.7.2 2.5-.7 0-1.3-.1-1.8-.3zm1.7.4c0-.9 0-1.8-.1-2.6 0-.9-.1-1.8-.1-2.6V277c.4 0 .8.1 1.2.1-.1.7 0 1.5-.1 2.2-.1.9 0 1.8 0 2.7 0 1.1 0 2.1.1 3.2-.4 0-.7-.1-1-.1zm1 .1c.1-1.5 0-3 0-4.5 0-1.2.1-2.4 0-3.6 1.1.1 2.2.4 3.3.4-.2 2.1-.4 4.3-.7 6.4-.1.5-.2 1-.2 1.4.2-.4.3-1 .4-1.5.3-1.6.5-3.2.6-4.8v-1.5c.5 0 .9 0 1.4.1-.2 1.7-.4 3.4-.7 5.2-.1.9-.3 1.9-.4 2.8-1.2-.1-2.4-.3-3.7-.4zm5.7.3H8.4c.3-1.7.6-3.5.9-5.2.1-.9.3-1.9.3-2.8h1.2c-.2 2.7-.3 5.4-.6 8z"/><path class="st43" d="M12.6 277.9c.2.4.1.9.1 1.4-.1 2.1-.2 4.1-.5 6.2 0-1 .2-2.1.2-3.1 0-1.6.1-3.1.2-4.5zM36 283.7c-.1-.6-.2-1.1-.1-1.7.2 1.8.5 3.7 1 5.4.2.9.5 1.9.7 2.8-.4-1.4-.8-2.7-1.1-4.1-.2-.7-.4-1.5-.5-2.4z"/><path d="M36.9 282.3c.6 2.8.8 5.6 1.7 8.3.1.1.1.3.2.4-.1 0-.1-.1-.2-.1-.5-.9-.7-2-1-3-.3-1.4-.5-2.8-.7-4.2 0-.4-.1-.9 0-1.4z" style="fill:#b55552"/><path d="M39.9 288.6c-.4-1.7-.7-3.6-.4-5.3.2 1.3.2 2.7.4 4 .2 1.4.5 2.8.7 4.2-.3-1-.5-2-.7-2.9z" style="fill:#b55451"/><path class="st43" d="M40.5 283.4c.1 0 .3.1.4.1-.1 0-.2-.1-.3-.1.2 1.3.2 2.6.4 3.9.2 1.7.5 3.3.8 4.9-.3-.4-.3-1-.5-1.5-.5-2.3-.6-4.8-.8-7.3z"/><path d="m43 284 .1.1c.2 1.8.2 3.6.3 5.4.1 1.1.1 2.3.3 3.4-.2 0-.3-.1-.5-.1.1 0 .3 0 .4.1-.4-2.9-.6-5.9-.6-8.9z" style="fill:#b65755"/><path class="st43" d="M49.7 285.3h.1c-.2 2.7-.5 5.3-.9 8 .1-1.5.4-2.9.5-4.3.2-1.2.2-2.4.3-3.7z"/><path class="st40" d="M57.9 284.6c-.7 0-1.3.3-1.9.3-.8.1-1.6 0-2.3-.1-1.5-.1-3.1-.1-4.6-.4-1.4-.2-2.9-.3-4.3-.6-1.7-.4-3.4-.6-5-1.2-1.5-.3-3-1-4.4-1.6-.3-.2-.4.3-.2.4.9.6 2 .9 3 1.3.1.6.1 1.2.2 1.8.1 1.7.4 3.4.8 5 .2.7.3 1.5.6 2.1 0-.2-.1-.5-.2-.7-.7-2.7-1-5.5-1.3-8.3.8.2 1.5.4 2.3.7.1 0 .3.1.4.1l.9.3c.1 3.1.5 6.1 1.1 9.1-.9-.2-1.8-.2-2.6-.5-.6-.2-1.2-.4-1.8-.7-.4-.2-.9-.3-1.3-.2.1.1.2.3.4.3.8.3 1.5.7 2.4 1 1.7.6 3.5.8 5.4 1l1.8.3c0 .1 0 .2.1.3v-.3c2.3.3 4.7.3 7 .1.6-.1 1.3-.2 1.6-.8-.4 0-.8.1-1.1.1.4-.7.8-1.5 1.1-2.3.8-1.9 1.6-3.8 2-5.9.6-.1 1.3-.2 1.6-.8-.6 0-1.2.2-1.7.2zm-14.7 8.3s-.1 0-.2-.1c-.1-.3-.2-.6-.2-1-.3-1.7-.5-3.3-.7-5-.1-.7 0-1.3-.1-2v-1c.4.1.7.2 1.1.2 0 3 .1 6 .6 8.9h-.5zm.5.1c-.2-1.1-.2-2.3-.3-3.4-.1-1.8-.1-3.6-.3-5.4.5.1 1 .2 1.6.3 0 .2 0 .3.1.5-.1.4 0 .9 0 1.3.1 2.3 0 4.6.1 6.9-.5-.1-.8-.2-1.2-.2zm1.2.1v-5.3c0-1.1.1-2.2-.1-3.3.5.1.9.2 1.4.2.1 2.9-.1 5.8-.1 8.6-.4-.1-.8-.2-1.2-.2zm1.3.3c0-2.9.2-5.8.1-8.7.5.1 1.1.1 1.6.2 0 1.9-.2 3.7-.3 5.5-.1 1-.3 2-.3 3.1-.4 0-.7-.1-1.1-.1zm1.2.1c.2-1.6.5-3.2.6-4.8.1-1.3.3-2.6.2-3.8 1.1.2 2.3.3 3.4.4 0 1-.2 2-.3 3-.2 1.7-.4 3.5-.8 5.2-1 0-2.1.1-3.1 0zm3.2.1c.3-1.2.5-2.4.7-3.5.2-1.6.5-3.1.6-4.7.6 0 1.1 0 1.7.1-.3 2.8-.7 5.6-1.5 8.2-.6-.1-1.1-.1-1.5-.1zm4.2-.7c-.1.2-.2.5-.5.6-.8.1-1.6.2-2.3.1.5-1.5.8-2.9 1.1-4.4.2-1.3.5-2.5.6-3.8.7.1 1.4.1 2 .1-.4 1.6-.7 3.2-1.2 4.8-.3.9-.7 1.8-.9 2.7 1-2.4 1.8-4.9 2.3-7.5.5 0 1.1-.1 1.6-.2-.7 2.6-1.5 5.2-2.7 7.6z"/><path class="st28" d="M4.3 302.6c2.4-.5 4.8-.1 7.1.6.9.3 1.7.7 2.4 1.3.2.1.2.4.1.6-.2.1-.4-.1-.6-.2-.7-.6-1.5-.9-2.3-1.2-2.1-.6-4.4-1-6.6-.6-.6.1-1.2.3-1.8.2.4-.5 1.1-.6 1.7-.7zM3.9 304.7c2.4-.5 4.8-.1 7.1.6.9.3 1.7.7 2.4 1.3.2.1.2.4.1.6-.2.1-.4-.1-.6-.2-.7-.6-1.5-.9-2.3-1.2-2.1-.6-4.4-1-6.6-.6-.6.1-1.2.3-1.8.2.4-.6 1.1-.6 1.7-.7zM3.5 307.1c2.4-.5 4.8-.1 7.1.6.9.3 1.7.7 2.4 1.3.2.1.2.4.1.6-.2.1-.4-.1-.6-.2-.7-.6-1.5-.9-2.3-1.2-2.1-.6-4.4-1-6.6-.6-.6.1-1.2.3-1.8.2.4-.5 1.1-.5 1.7-.7zM3.3 309.5c2.4-.5 4.8-.1 7.1.6.9.3 1.7.7 2.4 1.3.2.1.2.4.1.6-.2.1-.4-.1-.6-.2-.7-.6-1.5-.9-2.3-1.2-2.1-.6-4.4-1-6.6-.6-.6.1-1.2.3-1.8.2.5-.5 1.2-.6 1.7-.7zM2.3 311.8c1.1-.3 2.3-.2 3.5-.1 2.2.1 4.4.7 6.3 1.9.2.1.4.3.4.5-.1.1-.2.3-.4.3-.4-.1-.7-.4-1.1-.5-.8-.4-1.7-.8-2.6-1-1.2-.3-2.5-.4-3.7-.6-.8-.1-1.7 0-2.5-.1.1-.1.1-.3.1-.4z"/><path class="st11" d="M37.4 316.3c.3.1.5.4.7.6.8.8 1.6 1.5 2.4 2.2.9.6 1.9 1.2 3 1.4.2.1.6 0 .6.3-.9 0-1.8-.3-2.6-.7-.9-.4-1.7-1.1-2.5-1.8-.6-.6-1.2-1.2-1.6-2z"/><path class="st16" d="M-1.3 316.7c.1 0 .2 0 .2-.1.1.4.1.8.3 1.2.3.8.3 1.6.8 2.3.5.7.9 1.6 1.7 2 .6.3 1.2.7 1.8.9.6-.7 1.5-1.2 2.5-1.3.7 0 1.4.2 2.1.4.5.2.9.6 1.1 1.2 1.4-.3 2.6-1.1 3.6-2.1.9-.8 1.5-1.9 2.1-3h.2c-.2.9-.7 1.7-1.3 2.4-.3.4-.6.7-.9 1-.4.5-1 .9-1.5 1.3-.6.5-1.3.6-2 .8-1.8.4-3.6.5-5.4 0-.6-.2-1.3-.4-1.9-.8-.5-.3-1.2-.6-1.5-1.2-.6-.8-1.3-1.6-1.4-2.7-.1-.8-.5-1.5-.5-2.3z"/><path class="st47" d="M-1.3 319.7c.3.1.4.4.5.7l.9 1.5c.3.5.5 1 1 1.4.6.5 1.3.9 2 1.3.8.4 1.7.6 2.6.7 1 .1 2 .1 3-.1.9-.1 1.7-.4 2.5-.9.6-.3 1-.9 1.5-1.3.6-.5 1-1.3 1.6-1.9 0 .5-.3.9-.5 1.3s-.6.8-.9 1.1c-.4.4-.7.8-1.2 1.1-1.9 1.2-4.3 1.6-6.5 1.2-1-.2-2.1-.5-2.9-1.1-.8-.5-1.7-1-2.2-1.9-.5-1-1.3-1.9-1.4-3.1z"/><path class="st28" d="M54.2 319.9c.6 0 1.2-.1 1.8.1.2.1.5.2.6.5-.1.1-.1.2-.2.3-1-.4-2.1-.2-3.1 0-1.5.3-3 1-4.2 2-.3.2-.7.7-1.2.5.1-.6.6-1 1-1.3.6-.5 1.3-.9 2-1.2 1.1-.4 2.1-.8 3.3-.9zM52.5 317.6c.6-.1 1.3-.3 1.9-.2.3 0 .5.2.7.4 0 .1-.1.2-.1.4-1.1-.3-2.2.1-3.2.5-1.6.6-3 1.5-4.1 2.8-.3.3-.6.8-1.1.7 0-.6.5-1.1.8-1.5.5-.6 1.2-1.1 1.9-1.6 1-.6 2-1.2 3.2-1.5zM51.3 315.8c.7-.2 1.3-.4 2-.2.3.1.6.2.7.5 0 .1-.1.3-.2.4-1.2-.4-2.3.1-3.4.5-1.6.6-3.2 1.7-4.3 3.2-.3.3-.6 1-1.2.8 0-.7.5-1.3.9-1.8.6-.7 1.3-1.3 2-1.8 1.1-.7 2.3-1.4 3.5-1.6zM53.2 322c1.1-.4 2.3-.7 3.4-.6.3 0 .7.1.8.4.1.2 0 .3-.1.5-.6-.5-1.4-.4-2.1-.3-1.4.3-2.8.7-4 1.6-.4.2-.7.6-1.1.8-.1.1-.4 0-.4-.2.1-.3.4-.5.6-.7 1-.6 1.9-1.2 2.9-1.5z"/><path class="st11" d="M36.5 322.6c.3 0 .6.3.8.5.5.4 1.1.9 1.7 1.1 1.3.4 2.6.6 3.9 1 .7.2 1.5.4 2.1.8 1.9 1 3.4 2.6 5.3 3.8.9.6 1.8 1.3 2.9 1.6 1 .3 2 .4 3 .6 1.2.1 2.4.1 3.6-.3 0-.5.1-1 .4-1.4.5-.7 1.1-1.5 1.9-1.8.2-.1.3 0 .4.2.2.2.4.4.5.7.1.2.1.5.1.8-.8.8-1.8 1.4-2.9 1.8-1.6.7-3.3.7-5 .4-.9-.2-1.9-.3-2.7-.7-2.2-1.1-4.2-2.7-6.2-4.2-.7-.5-1.4-.9-2.1-1.3-.8-.3-1.6-.6-2.4-.8-1-.3-2.1-.5-3.1-.8-.6-.2-1-.6-1.5-.9-.2-.5-.6-.7-.7-1.1z"/><path class="st28" d="M52.9 324.3c1.1-.7 2.4-1.2 3.7-1.3.5 0 1.2-.1 1.6.3.1.1.3.4.1.5-.5-.1-1-.3-1.6-.2-1.8.2-3.4 1-4.9 2-.2.1-.4.1-.5.1.2-.6.9-1 1.6-1.4z"/><path d="M8.5 323.4c.3-.2 0 .3 0 0z" style="fill:#4a6169"/><path class="st47" d="M37.1 325.2c.4-.3.7.2 1.1.4.6.3 1.3.5 2 .8 1.2.4 2.6.3 3.8.8 1.7.7 3 2.1 4.6 3.1 1.2.8 2.5 1.3 3.8 1.8 2.3.8 4.8 1.1 7.1.4 1-.2 1.9-.6 2.7-1.2.2-.2.4-.3.7-.4-.1.4-.5.5-.8.7-1.7 1.1-3.8 1.6-5.9 1.6-1.4-.1-2.7-.4-4-.8-1.8-.6-3.5-1.4-5.1-2.5-1-.6-1.9-1.4-3-2-.9-.5-1.9-.6-2.9-.7-1-.1-2-.5-3-.9-.5-.3-.9-.7-1.1-1.1z"/><path d="M61.2 330.5c.1.1.1.1 0 0z" style="fill:#596f77"/></g></svg>