<svg version="1.1" id="Layer_1" xmlns="http://www.w3.org/2000/svg" xmlns:xlink="http://www.w3.org/1999/xlink" x="0" y="0" viewBox="0 0 86 86" style="enable-background:new 0 0 86 86" xml:space="preserve"><style>.st2{fill:#f4a187}.st3{fill:#38bc9c}.st4{fill:#34977f}.st5{fill:#f6f7db}.st9{fill:#e289a9}.st10{fill:#c4698b}.st11{fill:#ee9dba}.st13{fill:#92a5ff}.st14{fill:#c4603d}.st15{fill:#e97951}.st16{fill:#eaa992}.st18{fill:#3b53b5}.st19{fill:#151c2c}.st20{fill:#d3826c}.st22{fill:#f26ba2}.st23{fill:#dad1af}.st24{fill:#d4c9a2}.st26{fill:#d5c9a2}.st28{fill:#c4688a}</style><defs><circle id="SVGID_1_" cx="43" cy="43" r="43"/></defs><clipPath id="SVGID_2_"><use xlink:href="#SVGID_1_" style="overflow:visible"/></clipPath><path style="clip-path:url(#SVGID_2_);fill:#c5d2ff" d="M.4 0H86v85.6H.4z"/><g style="clip-path:url(#SVGID_2_)"><path class="st2" d="M44.3 17.9c1.7-.1 3.3-.5 5-.4h1.3c1.5.2 2.9 1.1 4.1 2.1.5.4 1.1.7 1.5 1.2.7.3 1.1.9 1.4 1.6.3.9.5 1.9.8 2.8.3 1 .3 2 .5 2.9.2 1.3.4 2.7.4 4 0 1.4-.1 2.8-.3 4.2-.3 1.4-.3 2.9-.6 4.3-.4 1.7-.8 3.5-1.4 5.2-.5 1.6-.9 3.2-1.5 4.7-.1.5-.4.9-.4 1.4-.1 1.5.1 2.9.1 4.4 0 .8.2 1.6.3 2.4 0 .2 0 .5-.2.7-.5.5-1.2.9-1.9 1.3s-1.4.8-2.1 1.1c-1.2.5-2.3 1.2-3.6 1.5-.1.2-.1.4-.3.5-2.2 1-4.7 1.4-7.1 1.3-.7 0-1.4-.1-2-.3-.2-.1-.2-.3-.2-.5-.8-.2-1.7-.3-2.5-.7-.1-.1-.1-.2-.1-.3-1.8-.7-3.5-1.7-5.1-2.9-.9-.6-1.7-1.3-2.4-2.1-.5-.6-.9-1.1-1.3-1.7-.1-.2-.2-.5-.2-.7.7-1 1.5-2 2.2-3.1.9-1.5 1.5-3.1 1.8-4.8.4-2.1.7-4.2 1-6.3.1-.5 0-.9 0-1.4 0-.7.1-1.3.1-2 0-.3 0-.6.2-.7.3-.2.6.1.8.2.7.1 1.5.1 2.2 0 .3 0 .4-.4.5-.7.1-.6.3-1.2.5-1.9.5-1.8.9-3.6 1.7-5.3.4-1.2.7-2.3 1-3.5.5-1.6.7-3.2.8-4.8.1-1.1.3-2.1.4-3.2.1-.3.3-.6.3-1 .5.3 1.1.2 1.7.3.9.3 1.8.2 2.6.2z"/><path class="st3" d="M13.8 297.1c.8-.2 1.7-.6 2.5-.4.4 0 .6.5.7.8-1.1.7-2.3 1.4-3.5 1.9v-.3c.4-.3.8-.4 1.2-.7.2-.1.1-.3.1-.5-.6.1-1.2.4-1.8.6L9.7 300c-.3.2-.7.2-1.1.2 1.1-.7 2.4-1.1 3.5-1.8v-.3c-.4-.1-.8.1-1.1.2-2.2.8-4.4 1.7-6.6 2.5-.4.2-.9.2-1.4.3.3-.3 1-.4.9-1-.6.1-1.2.4-1.8.6-.6.3-1.3.5-1.9.8-.5.2-1.1.5-1.7.5 1.3-1 2.8-1.6 4.2-2.2l.1-.2c1.5-.3 2.9-.7 4.4-.9 2.3-.6 4.4-1.2 6.6-1.6z"/><path class="st4" d="M13.5 299.4c1.2-.5 2.4-1.1 3.5-1.9.1.4 0 .9.2 1.3-.1.5-.6.8-1 1.1-.8.6-1.5 1.2-2.3 1.8-1.4.9-2.9 1.9-4.5 2.5-1.1.4-2.2.8-3.3 1.1-1.1.3-2.3.2-3.4.2-1.5-.1-3.1-.2-4.6-.5-.5-.1-1-.3-1.4-.6.3-.6.6-1.3.9-1.9.1-.3.3-.6.6-.9 1.4-1.1 3.1-1.7 4.8-2l-.1.1c-1.4.7-2.9 1.2-4.2 2.2.6 0 1.1-.3 1.7-.5.7-.2 1.3-.5 1.9-.8.6-.2 1.2-.5 1.8-.6.1.6-.6.7-.9 1 .5 0 .9-.1 1.4-.3 2.2-.8 4.4-1.7 6.6-2.5.4-.1.7-.3 1.1-.2v.3c-1.1.7-2.4 1.1-3.5 1.8.4 0 .7-.1 1.1-.2l3.3-1.5c.6-.2 1.2-.5 1.8-.6 0 .2.1.4-.1.5-.4.3-.8.5-1.2.7-.1.1-.1.3-.2.4zM53.1 298.2c.6-.1 1.3-.2 1.9-.1 1.5.1 3 .2 4.5.1 1.8-.1 3.5-.3 5.3.2-.4.2-.8.1-1.3.2.6.1 1.1.3 1.7.5.1.3.3.7.2 1-.1.6 0 1.1 0 1.7-1.1.3-2.2.7-3.3.8-2.4.4-4.9.1-7.3-.3-1-.2-2.1-.5-3.1-.9 0-.5.1-1.1.1-1.6.1-.1.1-.2.2-.3.6-.2 1.3-.1 1.9-.1 2.4.1 4.8 0 7.1-.3-1.6-.1-3.3-.1-4.9-.1-1.1 0-2.2 0-3.3.1h-1.1v-.3c.7 0 1.4-.1 2.2-.2-.3-.3-.5-.4-.8-.4z"/><path class="st3" d="M51.7 298.6c.4-.4 1-.4 1.5-.5.2.1.5.2.7.3-.8.2-1.5.2-2.2.2zM64.8 298.3c.3.1.4.4.5.7-.6-.2-1.1-.4-1.7-.5.4-.1.8 0 1.2-.2zM17.2 298.8c.5 2.1 1.3 4.2 2 6.2-1.1.4-2.1.9-3.1 1.2-.9.2-1.7.6-2.6.6-1.4.1-2.8.5-4.2 1-.9.4-1.8.7-2.5 1.2-1 .6-2 1.1-2.8 1.9-.6.6-1.2 1.1-1.8 1.7-.6.6-1.1 1.3-1.6 2-.4.6-.7 1.2-1.2 1.7-.7.8-1.5 1.4-2.2 2.2-.7.6-1.3 1.3-2.1 1.8-.8.6-1.6 1.2-2.4 1.7-.8.4-1.5.9-2.4 1.2-.9.3-1.7.8-2.6 1-1.3.4-2.7.5-4 .4.1-.7.1-1.4.5-2 .6-.9 1.4-1.6 2.1-2.3.7-.6 1.3-1.3 2-1.9.7-.7 1.3-1.4 2-2.2 1-1 1.9-2 2.6-3.2.9-2.1 1.8-4.2 2.8-6.2.4-.8.7-1.7 1.1-2.5.5.2.9.5 1.4.6 1.5.4 3.1.4 4.6.5 1.1 0 2.3.1 3.4-.2 1.1-.3 2.2-.7 3.3-1.1 1.6-.6 3.1-1.6 4.5-2.5.8-.5 1.5-1.2 2.3-1.8.3-.3.8-.5.9-1zM51.7 299c.4.1.7.1 1.1 0 1.1-.1 2.2-.1 3.3-.1 1.6 0 3.3 0 4.9.1-2.4.3-4.8.4-7.1.3-.6-.1-1.3-.1-1.9.1-.1.1-.1.2-.2.3v.1c-.1-.2-.2-.5-.1-.8z"/><path class="st3" d="M11.1 300.5c.6-.5 1.4-.9 2.2-1-.7.3-1.4.8-2.2 1zM7.4 301.4c.7-.3 1.5-.6 2.2-.8-.5.6-1.4.7-2.2.8zM3.8 301.5c.6-.2 1.3-.4 2-.4-.8.3-1.6.5-2.5.8-.4.2-.9.1-1.3.1.6-.1 1.2-.3 1.8-.5zM51.7 301.3c1 .4 2 .7 3.1.9 2.4.5 4.9.7 7.3.3 1.1-.1 2.2-.5 3.3-.8.1 1.1.2 2.3.2 3.4.1 1.5.7 2.8.9 4.3.3.9.7 1.8 1 2.7.8 1.5 1.5 3.1 1.9 4.8 0 0-.1 0-.1.1-.4.8-.9 1.7-1.5 2.4-.5.6-1.1.9-1.8 1.3-1.1.7-2.4.8-3.7 1-2.5.4-5.1-.9-6.6-2.9-.7-1-1.2-2-1.6-3.1-.4-.9-.9-1.7-1.2-2.7-.3-.8-.7-1.6-.9-2.5-.2-1-.4-1.9-.6-2.9h-.2c.1-.9.1-1.8.2-2.7.2-1.1.2-2.4.3-3.6zM-.7 302.3c.7-.2 1.4-.4 2.1-.5 0 .1.1.2.1.4-.7 0-1.5.4-2.2.1z"/><path class="st4" d="M16.1 306.2c1.1-.3 2.1-.8 3.1-1.2 0 .2.1.3.1.5-.9.5-2 .8-2.9 1.2-.7.2-1.3.7-2 .9-2 1-3.9 2-5.8 3.2-3.4 2-6.5 4.3-9.5 6.8-1.3 1-2.4 2.2-3.7 3.1-.8.6-1.6 1.2-2.5 1.7-.8.5-1.6 1-2.5 1.3-1.1.4-2.2 1.1-3.5 1.2-.8.2-1.6.2-2.4.1-.2 0-.5-.1-.7-.2v-.2c1.3.1 2.7-.1 4-.4.9-.3 1.7-.7 2.6-1 .9-.3 1.6-.8 2.4-1.2.9-.5 1.6-1.1 2.4-1.7.8-.5 1.4-1.2 2.1-1.8.7-.7 1.5-1.4 2.2-2.2.5-.5.8-1.1 1.2-1.7.5-.7 1-1.4 1.6-2 .5-.6 1.2-1.2 1.8-1.7.8-.8 1.8-1.3 2.8-1.9.8-.5 1.7-.8 2.5-1.2 1.3-.5 2.8-.9 4.2-1 .7-.1 1.6-.4 2.5-.6z"/><path class="st5" d="M16.4 306.7c1-.4 2-.7 2.9-1.2.4.9.5 1.8.8 2.8.2.7.4 1.5.5 2.3.1.6-.2 1.1-.6 1.5-.5.5-1.1.8-1.7 1.1-2.1 1.2-4.2 2.4-6.4 3.4-1 .4-2 .8-2.9 1.2-1.7.8-3.5 1.4-5.2 2.3-1.2.5-2.3 1.1-3.4 1.7-1.1.5-2 1.2-3 1.7-1.8 1-3.7 1.9-5.7 2.7-1.4.5-2.8.6-4.2 1-.5.1-1 0-1.4.1-.7.1-1.5.1-2.1-.4-.5-.5-.5-1.2-.4-1.8.2.1.4.2.7.2.8 0 1.6 0 2.4-.1 1.2-.2 2.3-.8 3.5-1.2.9-.3 1.7-.8 2.5-1.3.9-.5 1.7-1.1 2.5-1.7 1.3-.9 2.4-2.1 3.7-3.1 3-2.5 6.2-4.8 9.5-6.8 1.9-1.1 3.8-2.2 5.8-3.2.9-.5 1.5-1 2.2-1.2z"/><path class="st4" d="M51.2 307.6h.2c.2 1 .4 1.9.6 2.9.2.9.6 1.6.9 2.5.3.9.9 1.8 1.2 2.7.4 1.1 1 2.1 1.6 3.1 1.5 2 4.1 3.4 6.6 2.9 1.3-.2 2.6-.3 3.7-1 .6-.4 1.3-.8 1.8-1.3.6-.7 1.1-1.6 1.5-2.4 0 0 .1 0 .1-.1.3 1.2.6 2.5.3 3.7-.6.9-1.4 1.7-2.3 2.2-.7.3-1.3.8-2.1 1-2.2.6-4.5.6-6.7-.2-1.1-.3-2-1-2.7-1.8-.6-.8-1.2-1.6-1.6-2.5-.3-.7-.5-1.5-.7-2.2-.3-1-.5-2.2-1-3.2-.7-1.4-1.1-2.8-1.5-4.3 0-.7.1-1.3.1-2z"/><path class="st5" d="M51.2 309.6c.3 1.5.8 2.9 1.5 4.3.5 1 .7 2.1 1 3.2.2.7.5 1.5.7 2.2.4.9 1 1.8 1.6 2.5.7.8 1.6 1.5 2.7 1.8 2.1.8 4.5.8 6.7.2.7-.2 1.4-.6 2.1-1 1-.5 1.7-1.3 2.3-2.2.1.4 0 .8-.1 1.2-.1.6-.2 1.2-.3 1.9-.1.5-.6.9-1 1.2-.8.5-1.5 1-2.4 1.3-1.9.6-3.9.7-5.8.4-1-.3-2.1-.4-3-.9-.6-.3-1.4-.5-1.9-1.1-.3-.3-.7-.6-1-.9-.8-1.3-1.6-2.5-2-4-.3-1.2-.8-2.3-1-3.5-.1-.7-.1-1.5-.2-2.3-.1-1.1.1-2.2.1-3.3-.2-.3-.1-.7 0-1z"/><path class="st3" d="M54.3 317.5c.4.1-.2.4 0 0zM58 322.7c.1-.1.4 0 .3.2-.1 0-.4-.1-.3-.2z"/><path d="M25.6 56.2c.3-.1.5-.2.8-.2.2 0 .3.2.4.4.5.9 1.2 1.7 1.9 2.4.7.8 1.4 1.5 2.3 2.1.7.4 1.3.9 2 1.3 2 1.1 4.2 2 6.5 2.2 1.2.2 2.3.1 3.5 0 2.2-.1 4.4-.7 6.4-1.5 1-.4 1.9-1 2.8-1.5 1.3-.7 2.7-1.5 3.6-2.7.4.2.7.5 1 .8.6.5 1.2.9 1.8 1.4 1.5 1.3 3.3 2.2 4.9 3.3 1.9 1.1 3.8 2.4 5.7 3.6 1.4 1 2.8 1.9 4.2 2.9 2.3 1.6 4.4 3.5 6.4 5.5 1.6 1.7 3.1 3.3 4.5 5.1l2.1 3c1.3 1.7 2.2 3.7 3.1 5.6.8 1.6 1.6 3.3 2.3 5 .5 1.2 1 2.5 1.3 3.8.2.6.3 1.4.1 2-.2.2-.4.3-.6.3-1.6-.4-3.2-.7-4.8-.8-1.8-.1-3.7.1-5.5.3-.9.1-1.9.3-2.8.5-2.2.6-4.5 1.3-6.5 2.4-1.1.6-2.1 1.4-3.1 2.1.1 2.6.6 5.2 1.2 7.7 0 .1.1.3.1.4-.4 2.5-.5 5-.7 7.6v3.9c.1 1.1.5 2.2.6 3.4.1 1.2.2 2.4.2 3.6 0 1.1-.5 2-.9 3s-.9 1.9-1.1 3c-.2 1.2-.3 2.4-.2 3.5.1 1 .3 2.1.6 3.1.5 1.4.9 2.8 1.2 4.2.1 1.1.4 2.2.4 3.3v1.1c-1 .5-2 .7-3 1.1-1 .4-2 .8-3.1 1.1-2.1.6-4.2 1.1-6.3 1.7-1.3.3-2.5.6-3.8.9-1.1.2-2.2.6-3.3.7-1.3.1-2.6.5-3.9.6-1.5 0-2.9.3-4.4.3-1.1 0-2.2.1-3.3.1h-5.1c-2.8-.2-5.7-.2-8.5-.3-3.9-.4-7.8-.7-11.8-1-1.7-.2-3.4-.4-5.1-.7-2.1-.2-4.2-.9-6.4-.9-.3-1.5-.3-2.9-.4-4.4-.1-1.5-.2-3.1-.3-4.6-.2-2.7-.2-5.4-.2-8.1-.1-2.2 0-4.4 0-6.7 0-4.2.2-8.4.5-12.6.4-3.7.9-7.4 1.8-11-.4-.5-1-.9-1.5-1.5-1.2-1.3-2.2-2.8-3.3-4.3-.6.1-1.1.3-1.7.3-1.6.1-3.2.1-4.8.2-.8.1-1.6 0-2.4 0-.8-.1-1.6-.1-2.4-.3-.4-.1-.9-.1-1.3-.2-.3-.1-.3-.4-.2-.6.1-.9.2-1.8.4-2.7.4-2 1-3.9 1.4-5.8.6-2.3 1.3-4.5 2.3-6.7.6-1.5 1.6-2.8 2.4-4.2 1-1.7 2.3-3.2 3.4-4.8.4-.6.9-1.2 1.4-1.8.8-.9 1.5-1.8 2.3-2.6.9-.9 1.7-1.8 2.6-2.6 1.2-1 2.4-2 3.6-2.9 1.9-1.5 3.8-2.9 5.7-4.3 1.5-1.1 3-2 4.5-3 1.4-.9 2.9-1.7 4.3-2.7.7-.5 1.3-.9 2-1.3.6-.5 1.3-1.1 2.2-1.5z" style="fill:#ff227d"/><path d="M70.4 121.2c.1-2.5.2-5.1.7-7.6.1.6.3 1.1.3 1.7.3.7.4 1.6.6 2.4.6 2.5 1.1 5.1 1.7 7.6.6 2.5.9 5 1.1 7.5.1 1.3.1 2.7.1 4.1 0 1.6-.1 3.2-.1 4.8-.1 1.5-.2 3.1-.4 4.6-.1 1.1-.3 2.3-.4 3.4 0 .8-.1 1.6-.3 2.3h-.3v.4c-.7.5-1.4.7-2.1 1v-1.1c0-1.1-.2-2.2-.4-3.3-.3-1.4-.8-2.8-1.2-4.2-.3-1-.5-2-.6-3.1-.2-1.2-.1-2.4.2-3.5.2-1 .7-2 1.1-3 .4-1 .9-1.9.9-3 0-1.2 0-2.4-.2-3.6-.1-1.1-.6-2.2-.6-3.4-.1-1.4-.2-2.7-.1-4z" style="fill:#d5caa3"/><path d="M71.3 153.3c.7-.3 1.5-.6 2.1-1l.1-.1c.2 1.1.2 2.2.2 3.2v5.3c.1 1.6.1 3.1.3 4.7.5 5.4.6 10.8.6 16.2.1 6.1-.4 12.2-.8 18.2 0 .9-.1 1.8-.2 2.7-.4.4-1 .5-1.5.6-.8.1-1.7-.1-2.3-.8-.3-.5-.2-1.1-.2-1.6 0-1 .4-2 .8-2.9.3-.8.5-1.7.9-2.5.5-1.1.8-2.3 1-3.5.2-.9.4-1.8.4-2.7-.7.6-1.2 1.3-2 1.8-.8.6-1.8 1.2-2.9 1.1-.4-.1-.9-.1-1.2-.3-.4-.3-.3-.8-.2-1.2.3-1.2 1.1-2.3 1.5-3.5.3-.7.5-1.5.7-2.2.5-1.4.8-2.8 1.4-4.1.8-1.8 1.6-3.6 1.8-5.5.3-2.3-.2-4.7-.3-7-.1-1.4-.2-2.8-.3-4.3-.1-1.9-.3-3.8-.3-5.7 0-.8.2-1.5.1-2.3-.1-.7-.1-1.5.2-2.2-.8.3-1.6.7-2.3 1.1-1.1.5-2.1 1-3.2 1.4-1.2.4-2.3.9-3.5 1.3-.7.3-1.5.5-2.2.8-1.1.4-2.1 1-3.2 1.3-2.1.8-4.3 1.1-6.5 1.5-2.2.4-4.4.4-6.6.9-2.9.5-5.8.2-8.7.1-1.2-.1-2.5-.1-3.7-.3-1.5-.1-3.1-.3-4.6-.4-.8-.1-1.7-.3-2.5-.3-1.3 0-2.6 0-3.9-.1-1.3-.1-2.5-.3-3.8-.5-2.3-.4-4.6-.7-6.9-1.3-1-.2-1.9-.6-2.9-.9-1-.2-2-.5-3-.7-1 4.7-1.5 9.4-1.9 14.1 0 .8.1 1.7.1 2.5 0 .4-.4.6-.4 1-.1.4 0 .9-.3 1.2-.1 0-.2-.1-.3-.1-.1-1.5.1-3 0-4.5-.1-.3-.3-.5-.3-.8 0-.4-.1-.8-.3-1.2.6-2.4 1-4.9 1.7-7.3.5-1.9.6-3.9 1.2-5.9 2.2 0 4.2.7 6.4.9 1.7.3 3.4.5 5.1.7 3.9.3 7.8.6 11.8 1 2.8.2 5.7.2 8.5.3h5.1c1.1 0 2.2-.1 3.3-.1 1.5-.1 2.9-.3 4.4-.3 1.3-.1 2.6-.5 3.9-.6 1.1-.1 2.2-.5 3.3-.7 1.3-.2 2.5-.6 3.8-.9 2.1-.5 4.2-1 6.3-1.7 1-.3 2-.8 3.1-1.1 1.1-.1 2.2-.3 3.1-.8z" style="fill:#c4698a"/><path class="st9" d="M68.9 154.9c.7-.4 1.5-.8 2.3-1.1-.2.7-.3 1.5-.2 2.2.1.8-.1 1.5-.1 2.3 0 1.9.1 3.8.3 5.7 0 1.4.2 2.8.3 4.3.2 2.3.6 4.7.3 7-.2 1.9-1.1 3.7-1.8 5.5-.6 1.3-.9 2.8-1.4 4.1-.2.7-.4 1.5-.7 2.2-.4 1.2-1.2 2.3-1.5 3.5-.1.4-.2.9.2 1.2.4.2.8.3 1.2.3 1.1.1 2.1-.5 2.9-1.1.7-.5 1.3-1.3 2-1.8 0 .9-.2 1.8-.4 2.7-.2 1.2-.6 2.3-1 3.5-.3.8-.6 1.7-.9 2.5-.4.9-.7 1.9-.8 2.9 0 .5-.1 1.1.2 1.6.5.7 1.4.9 2.3.8.5-.1 1.1-.2 1.5-.6-.1.5-.2.9-.2 1.4 0 2.9-.2 5.8-.5 8.7-.3 3-.7 6-1.1 8.9-.3 2.2-.7 4.4-.9 6.6-.2 2.4 0 4.9-.1 7.3 0 4.5-.5 9.1-1.1 13.5-.3 2-.3 4.1-.2 6.1.1 1.2.2 2.4.6 3.5.4 1.4.4 2.9.3 4.3-.1 1.8-.1 3.6-.3 5.4-.2 1.8-.3 3.6-.4 5.5-.1 1.7-.2 3.4-.6 5.1-.3 1.5-.8 3-1.3 4.5-.3 1.2-.8 2.3-.9 3.5 0 .7-.4 1.4-.6 2.1-.2.5-.2 1-.1 1.5s.4.8.6 1.3c.2.4.2.9.1 1.3-.1-.1-.1-.3-.1-.4-1.4.6-3 .6-4.5.6-1.1-.1-2.1.1-3.2.1-1.4.1-2.8 0-4.3 0s-3-.4-4.5-.5v.4c-.2-1.2.4-2.4.8-3.5.3-.6.4-1.3.2-2-.4-1.6-1.3-3-2-4.6-.3-.6-.4-1.2-.6-1.8-.5-1.4-.6-2.9-.7-4.3-.1-2 0-4 .1-6 .1-1.8 0-3.6-.2-5.4-.2-2.1-.3-4.2-.3-6.3 0-1.4.1-2.7.1-4.1 0-1.9.3-3.9-.2-5.7-.2-1.1-.6-2.2-.9-3.3-.4-1.1-.5-2.3-.9-3.5-.5-1.7-1-3.3-1.5-5-.5-1.9-1-3.8-1.3-5.7-.3-1.7-.4-3.4-.8-5.1-.2-.9-.4-1.8-.5-2.7-.3-2.4-.8-4.8-1.2-7.2-.2-1.3-.6-2.6-.8-4-.3-2.1-.6-4.1-.9-6.2-.3-1.6-.6-3.2-.9-4.7-.3-2.3-1.1-4.6-1.4-6.9-.5.9-1.2 1.6-1.7 2.5-1.6 2.4-3.3 4.7-4.6 7.3-.9 1.8-1.9 3.6-2.8 5.4-.9 2-1.9 3.9-2.9 5.7-1.1 1.9-2 3.9-3 5.9-.8 1.7-1.7 3.4-2.4 5.1-.8 2-1.7 4-2.6 6-.5 1.2-1.1 2.4-1.7 3.6-.2.5-.6.8-.8 1.3 0 .3.1.7.2 1 .2 1.3-.7 2.7-.2 4 .4 1.1.8 2.3.9 3.5.3 3 .1 6.1.3 9.1.1 1.1 0 2.3-.1 3.4-.1 1.5-.2 2.9-.4 4.4-.3 1.7-.1 3.5.1 5.3.1 1.1.2 2.2.4 3.2.2 1.4.2 2.8.3 4.2.1 1.6.5 3.3.4 4.9 0 1.7-.6 3.3-.5 4.9 0 .8.1 1.6.2 2.4.2.9.1 1.8.1 2.7-1 .6-2 1.3-2.9 2.1-.9.6-1.6 1.4-2.5 1.9-1.2.7-2.6 1.4-4 1.3-.7 0-1.3-.1-2-.2-.9-.1-1.7-.3-2.6-.5-.8-.2-1.6-.2-2.4-.2-.6 0-1.1-.1-1.7.2-.2-.5-.2-.9-.4-1.4-.4-1-.9-2-1.1-3-.1-.6-.1-1.2 0-1.9.1-1.2.1-2.4-.2-3.6-.2-.8-.6-1.5-.7-2.3-.3-1.6.3-3.2 0-4.7-.2-1.6-.3-3.2-.5-4.8-.2-1-.2-2.1-.6-3.1-.7-2.6-1.3-5.2-1.8-7.9-.9-4.3-1.6-8.6-2-13-.3-2.2-.5-4.5-.6-6.8-.2-2.7-.2-5.4-.2-8.1.1-2.8.1-5.7.3-8.5.4-5 .9-10 1.4-15 .3-2.6.6-5.1 1-7.7.4-2.7 1-5.3 1.5-8 .2-.7.3-1.5.5-2.2v.3c.5.2 1 .5 1.4.8.8.6 1.9.6 2.8.3.6-.2 1.2-.6 1.3-1.3.2-1.1 0-2.3-.6-3.3-.4-.7-.6-1.5-.9-2.3-.3-.9-.2-1.8 0-2.7.2-.6.4-1.3.6-1.9.4.7.7 1.4 1.4 1.8.4.3 1 .4 1.4.1.4-.3.4-.8.5-1.3 0-1.1.1-2.2-.2-3.2-.6-2.3-1-4.6-1.6-6.8-.1-.5-.2-1-.5-1.5 0 .8.3 1.6.4 2.4.4 1.7.7 3.3 1 5 .1.7.3 1.4.3 2.2 0 .2 0 .4-.2.5-.1-.2-.1-.4-.2-.6-.2-.1-.3-.1-.5-.2-.2-.4-.2-.9-.6-1.2 0 .3.1.5.1.8-.3-.3-.4-.8-.5-1.2-.4-1-.6-2-1.1-2.9.7-2.5 1.4-4.9 1.9-7.4.2.4.3.8.3 1.2 0 .3.2.5.3.8 0 1.5-.2 3 0 4.5.1 0 .2.1.3.1.3-.3.2-.8.3-1.2 0-.4.4-.6.4-1 0-.8-.1-1.7-.1-2.5.4-4.7.9-9.5 1.9-14.1 1 .2 2 .5 3 .7 1 .2 1.9.7 2.9.9 2.3.6 4.6.9 6.9 1.3 1.3.2 2.5.4 3.8.5 1.3.1 2.6.1 3.9.1.9 0 1.7.2 2.5.3 1.5.1 3.1.2 4.6.4 1.2.2 2.5.2 3.7.3 2.9.2 5.8.4 8.7-.1 2.2-.5 4.4-.5 6.6-.9 2.2-.4 4.4-.7 6.5-1.5 1.1-.4 2.2-.9 3.2-1.3.7-.3 1.5-.5 2.2-.8 1.2-.5 2.3-1 3.5-1.3 1.1-.5 2.2-1.1 3.2-1.6z"/><path class="st10" d="M-.1 172.8c.3.4.4 1 .5 1.5.6 2.3 1 4.6 1.6 6.8.3 1 .2 2.1.2 3.2 0 .4-.1 1-.5 1.3-.4.3-1 .1-1.4-.1-.7-.4-1-1.1-1.4-1.8-.3.6-.4 1.3-.6 1.9-.2.9-.3 1.8 0 2.7.3.8.5 1.6.9 2.3.5 1 .8 2.2.6 3.3-.1.7-.7 1.1-1.3 1.3-.9.3-2 .3-2.8-.3-.4-.3-.9-.6-1.4-.8v-.3c.2-1 .5-2.1.7-3.1.7 0 1.4.1 2.2.1.4 0 .7.3 1 .6.1-.1.2-.1.4-.2-.1-.7-.4-1.2-.5-1.9-.1-.4-.3-.9-.4-1.3-.2 0-.3 0-.5-.1-.1-.1-.1-.3-.1-.5 0-.5-.1-.9-.2-1.3 0-.3-.3-.4-.5-.6.5-2 1.2-4 1.8-6.1.2-.7.3-1.3.5-2 .5.9.7 2 1.1 2.9.2.4.2.9.5 1.2 0-.3-.1-.6-.1-.8.4.3.4.8.6 1.2.1.1.3.1.5.2.1.2.1.4.2.6.2-.1.2-.3.2-.5 0-.7-.2-1.5-.3-2.2-.4-1.7-.7-3.3-1-5-.3-.6-.5-1.4-.5-2.2z"/><path class="st9" d="M-3.8 185.5c.2.2.4.3.5.6.1.4.2.9.2 1.3 0 .2 0 .3.1.5.2 0 .3.1.5.1.2.4.3.9.4 1.3.2.6.5 1.2.5 1.9-.1.1-.3.1-.4.2-.3-.3-.6-.6-1-.6-.7-.1-1.4-.1-2.2-.1.5-1.8.9-3.5 1.4-5.2z"/><path class="st10" d="M12.7 293.2c1-.7 1.9-1.4 2.9-2.1 0 .4-.1.9 0 1.3 0 0 .1.1.2.1-.8.6-1.6 1.1-2.4 1.6-1.3.9-2.5 1.9-4 2.5-.9.4-1.8.5-2.7.4-1.3 0-2.6-.2-3.9-.2-.8 0-1.5-.2-2.3-.1-.9.1-1.7.4-2.6.3.1-.5 0-1-.2-1.4.5-.3 1.1-.2 1.7-.2.8.1 1.6.1 2.4.2.9.2 1.7.4 2.6.5.7.1 1.3.1 2 .2 1.4.1 2.8-.5 4-1.3.7-.4 1.4-1.1 2.3-1.8z"/><path class="st11" d="M15.8 292.6c.4.1.7.3.9.7.4.8.6 1.7.5 2.5 0 .8-.1 1.6-.5 2.3-.4.5-.9.9-1.5 1.1-2 .8-4 1.7-6.1 2.3-1.2.4-2.5.6-3.8.8-2 .3-4 .6-6 .4-.8-.1-1.7-.1-2.3-.6-.2-.1-.3-.4-.3-.7-.1-.9 0-1.8 0-2.6 0-.4 0-.8.2-1.1.2-.3.6-.5.9-.7.9.1 1.7-.2 2.6-.3.8-.1 1.5.1 2.3.1 1.3 0 2.6.3 3.9.2.9 0 1.9-.1 2.7-.4 1.5-.5 2.7-1.6 4-2.5.9-.3 1.7-.9 2.5-1.5z"/><path class="st10" d="M62.3 293.3c1.5 0 3.1-.1 4.5-.6 0 .1.1.3.1.4l.2.2c-.2.4-.6.4-1 .6-2.6.7-5.3 1.2-8.1 1.1-1-.1-2 0-3.1-.2-1.5-.2-3 .1-4.4-.4-.1-.3-.2-.7-.3-1v-.4c1.5.1 3 .5 4.5.5 1.4 0 2.8.1 4.3 0 1.2 0 2.2-.2 3.3-.2z"/><path class="st11" d="M67.2 293.2c.2-.1.5-.2.7 0 .4.3.5.8.5 1.3-.1 1.3-.2 2.5-.5 3.8-.2.8-.9 1.3-1.7 1.5-.8.2-1.5.4-2.3.3-.8-.1-1.7.2-2.5.2-1.1.1-2.1.2-3.2.2h-1.4c-.9.1-1.9-.2-2.8-.2-1-.1-2-.4-3-.5-.5-.1-1.1 0-1.5-.5-.5-.5-.4-1.3-.5-2-.1-.8.2-1.7.6-2.4.2-.4.6-.6 1-.6 1.4.4 3 .2 4.4.4 1 .1 2 .1 3.1.2 2.7.1 5.5-.4 8.1-1.1.3-.1.8-.2 1-.6z"/><path class="st2" d="M32.6 31.1c1.2-.6 2.6-.8 3.9-.6.3 0 .7.1.7.5 0 1 0 2-.1 3.1 0 1.2-.1 2.5-.1 3.7v1.6c0 .2-.2.4-.4.5-.8.2-1.5 0-2.3-.2-.6-.2-1.1-.6-1.6-1.1-.4-.4-.8-.9-1.1-1.4-.5-1.1-.7-2.4-.5-3.6.1-1 .6-2 1.5-2.5z"/><path d="M51 30.7c.2 0 .3.1.4.2.7 1 1.2 2 1.5 3.2.1.5.2 1.1-.3 1.5-.8.2-1.7.4-2.5.1-.3-.2-.2-.6-.2-.9.2-1.3.2-2.6.7-3.8.1-.2.3-.3.4-.3z" style="opacity:.26;fill:#c76847"/><path class="st13" d="M31.5 37.1c.3.5.7 1 1.1 1.4-.3.1-.6.3-.9.4-.2-.5-.2-1.2-.2-1.8zM48.1 13.3c.5-.2.9-.4 1.5-.5.8-.1 1.5.1 2.3.3.6.2 1.2.6 1.7 1.1.6.5.8 1.3 1.4 1.9.6.6 1.5.8 2.1 1.4.7.7 1 1.6.9 2.6 0 .8 0 1.7-.1 2.5-.8-1.2-2-2.1-3.1-2.9-.7-.4-1.4-.9-2.2-1.2-.8-.3-1.7-.5-2.5-.6-.9-.1-1.8.2-2.6.3-1.2.1-2.5.4-3.7.4-1.1 0-2.2-.1-3.2-.5 0 .7.1 1.5.2 2.2.1 1.1 0 2.1-.1 3.2-.1 1.6-.6 3-1.1 4.5-.4 1.3-.5 2.6-.8 3.9-.2 1.2.1 2.4.4 3.6.2.8.5 1.5.9 2.2.2.3.3.6.6.8.4.3.9.6 1.5.5.9-.1 1.6-.7 2.4-1.1 1.9-1 3.9-1.6 6-1.7 1.7 0 3.4.1 4.9 1 .7.5 1.3 1 1.8 1.7.2.2.3.4.5.5.3 0 .6-.1.7-.4.3-.4.3-.9.4-1.4.2-1.1.5-2.2.4-3.4 0-.1.1-.2.2-.3.2 1.3 0 2.7 0 4 0 .9-.1 1.7-.1 2.6 0 2.7-.1 5.4-.7 8-.2.8-.5 1.6-.8 2.4-.3.9-.9 1.8-1.6 2.5-.7.6-1.4 1.3-2.2 1.8-.8.6-1.8.9-2.8 1.1-1.5.4-3.1.2-4.6 0-1.9-.3-3.4-1.6-4.7-2.9-.7-.8-1.4-1.7-1.9-2.7-.3-.7-.8-1.4-1.1-2.1-.8-2.1-1.3-4.2-1.6-6.4-.3-1.5-.3-3-.4-4.5 0-1.2.1-2.5.1-3.7.1-1 .1-2 .1-3.1 0-.4-.4-.5-.7-.5-1.3-.2-2.7 0-3.9.6-.9.5-1.4 1.4-1.7 2.4-.1-.3-.2-.6-.2-.9-.2-1.3-.4-2.7-.4-4.1 0-1.3.1-2.7.5-4 .3-1.6 1-3.2 2-4.5 1.2-1.5 2.8-2.7 4.6-3.3.6-.2 1.2-.3 1.8-.2.4-.4.6-.9 1.1-1.2.5-.4 1-.9 1.6-1.2.8-.4 1.6-.6 2.5-.5.6 0 1.2.2 1.7.2.8.1 1.4-.1 2-.4zM50 38.2c-1.1.1-2.2.6-3.1 1.2-.5.4-1 .9-1.5 1.3-.2.2-.3.4-.3.6.2.2.4.4.7.4 1.3.3 2.6.3 3.9-.2.4-.1.6-.5.9-.8.3 0 .5.4.8.6 1 .6 2.2.4 3.3.3.5-.1 1-.3 1.2-.8.2-.3.2-.7 0-1-.4-.5-.8-.9-1.4-1.2-.7-.3-1.4-.5-2.2-.6-.8-.1-1.6.1-2.3.2z"/><path class="st14" d="M82.5 100.3c1.7-.3 3.5-.3 5.2-.2 1.4 0 2.8.2 4.2.4.2.1.6 0 .7.3.2.6.3 1.2.4 1.8-1 0-1.9-.3-2.9-.4-2.7-.4-5.4-.2-8.2 0-2.3.1-4.6.6-6.8 1.2-1 .3-2 .5-3 .9-.6.3-1.2.7-1.8.9.8-.8 1.8-1.5 2.8-2 .9-.5 1.9-.9 2.8-1.2.8-.3 1.7-.5 2.5-.8 1.3-.6 2.7-.7 4.1-.9z"/><path class="st15" d="M81.9 102.1c2.7-.2 5.5-.3 8.2 0 1 .1 1.9.3 2.9.4.2 1.1.4 2.2.5 3.3.3 1.7.4 3.4.6 5.1.1.7.2 1.5.2 2.2.1 1.8.3 3.6.5 5.5l.3 2.7c.1 1.2.1 2.4.2 3.6v4.6c.1 1.7 0 3.4 0 5.1v4.7c-.1 2.3-.4 4.7-.6 7-.2 2.6-.6 5.2-.9 7.9-.2 1.5-.3 3-.4 4.5-.3 2.7-.8 5.5-1.3 8.2-.2 1.5-.6 2.9-.9 4.3-.4 2.2-1.2 4.3-1.6 6.5-.2 1.1-.3 2.3-.6 3.5-.6 2.5-1.2 5.1-1.9 7.6-.7 2-2.4 3.4-3.7 4.9-.4.5-.8.9-1.3 1.2-.5-.2-1-.3-1.5-.1 0-.2-.1-.5-.1-.7-.6.7-1.2 1.5-1.9 2.1-.2-.1-.4-.3-.7-.3-.3 0-.4.3-.6.4-.1-.2-.2-.4-.3-.5-.5.6-1 1.2-1.5 1.7-.5-.2-1-.5-1.5-.5-.4 0-.5.5-.3.8.2.2.4.3.7.5-.4.1-.8.1-1.1-.2-.3-.4-.1-1 0-1.4-.2.2-.3.5-.5.7-.5-.3-1-.6-1.6-.7-.3.2-.5.6-.3 1s.7.5 1.1.6c-.3 0-.6.1-.9.1-.3-.1-.7-.3-.8-.7 0-.5.1-1 .2-1.5.7-2.1 2.1-4 2.4-6.2.3-2 .6-4 1-6-.8.6-1.4 1.3-2.1 2-.6.6-1.1 1.3-1.9 1.9-.4.3-.9.7-1.4.7-.4 0-.7-.2-1-.4h.8c.5 0 .8-.6.5-1-.1-.3-.5-.5-.8-.6.6-1.2 1.2-2.5 1.9-3.6l1.2-1.8c.4-.7 1-1.4 1.5-2.1.8-1 1.4-2.2 1.9-3.3.4-.7.6-1.5.7-2.2 0-1.4 0-2.9-.3-4.3-.3-1.3-.6-2.6-.7-3.9-.2-2.7-.6-5.4-.8-8.1-.1-1.2-.1-2.4-.1-3.6 0-1.2-.2-2.5-.1-3.7 0-2 .2-4 .3-6 .3-4.1.2-8.2 0-12.4-.1-2.2-.3-4.3-.7-6.4-.8-3.9-1.5-7.8-2.3-11.7-.3-1.4-.4-2.8-.5-4.2-.1-1.2-.3-2.3-.4-3.5.2-.2.3-.4.5-.5.6-.2 1.2-.6 1.8-.9 1-.4 2-.7 3-.9 2.4-.9 4.7-1.3 7-1.4z"/><path class="st14" d="M-2.3 104c.7-.1 1.3-.2 2-.3.2 0 .4.1.5.3.6.9 1.4 1.8 2.2 2.6.6.5 1 1.1 1.6 1.5.5.4 1 .8 1.2 1.4.1.4-.1.8-.2 1.2-.2.5-.3 1.1-.5 1.7-.4 1.7-1 3.4-1.2 5.1-.6 3.6-.7 7.2-.7 10.9-.1 4.6.1 9.3-.7 13.9-.2 1.4-.5 2.8-.6 4.2 0 .3-.1.5-.2.8-.2-1.1 0-2.3-.1-3.4-.1-1.7 0-3.4-.4-5-.3-1.1-.5-2.1-.8-3.2-.3-.8-.5-1.7-.8-2.6-.2-.8-.5-1.6-.3-2.5.2-1 .6-2 1.1-2.9.4-.9.4-1.9.5-2.8l.3-4.8c.1-1.7.5-3.4.8-5.1.3-1.5.7-3 1.2-4.5.1-.3-.2-.4-.3-.6-1.1-1-1.8-2.2-2.8-3.2-.3-.3-.6-.7-.9-1-.4 0-.8.2-1.2.3-2.1.4-4.2.3-6.2.1-1.1-.2-2.2-.2-3.3-.4-.2 0-.4-.1-.6-.3.1-.5.2-1 .2-1.5.9 0 1.9.2 2.8.4.8.1 1.7.2 2.5.2 1.6-.2 3.3-.2 4.9-.5z"/><path class="st15" d="m-12.8 105.3.6.3c1.1.2 2.2.3 3.3.4 2.1.3 4.2.3 6.2-.1l1.2-.3c.4.3.6.7.9 1 1 1 1.8 2.2 2.8 3.2.1.2.4.3.3.6-.4 1.5-.9 3-1.2 4.5-.3 1.7-.6 3.4-.8 5.1l-.3 4.8c-.1.9-.1 1.9-.5 2.8-.5.9-.9 1.9-1.1 2.9-.2.8.1 1.7.3 2.5.3.8.5 1.7.8 2.6.3 1 .5 2.1.8 3.2.4 1.6.3 3.3.4 5 .1 1.1-.1 2.3.1 3.4-.4 2-.7 4-1 6-.3 1.8-.6 3.5-.8 5.3-.1.9-.3 1.8-.3 2.7 0 1.5 0 3 .5 4.3.4 1 .9 2 1.2 3.1.3 1.1.6 2.1 1 3.2.6 1.7.8 3.5.9 5.3 0 1.3.1 2.6-.1 3.8-.6-.1-1.3 0-1.7.5-.3.4 0 .9.2 1.3-.9-.5-1.6-1.3-1.9-2.2-.3-.8-.4-1.6-.8-2.3-.3-.7-.5-1.4-.9-2-.3 2.7-.6 5.5-.4 8.2.3 1.7.9 3.3 1.3 5 .1.5.4 1 .3 1.5 0 .1-.2.2-.3.3-.2-.4-.5-1-1-1.1-.5-.1-1 .2-1.2.6-.3-.2-.7-.3-1.1-.4-.5-.3-1.1-.4-1.6 0-1.6-.7-3.1-1.7-4.1-3.1-.8-.9-1.6-1.9-2.1-3-.5-.9-1-1.8-1.3-2.8-.3-1.2-.7-2.5-.8-3.8-.2-1.3-.2-2.6-.3-3.8-.3-2.7-.8-5.3-1-8-.2-2.3-.7-4.6-.8-6.9-.3-3-.4-6-.4-9.1-.2-4.1.1-8.2.4-12.2.2-2.7.5-5.3.8-8 .2-1.6.4-3.3.6-4.9.2-2.3.7-4.5 1-6.8.4-2.4.7-4.8 1-7.2.5-1.7.7-3.6.9-5.4z"/><path class="st16" d="M.9 181.5c.4-.5 1.1-.6 1.7-.5-.1.7-.3 1.5-1 1.9l-.1-.1c0-.2-.2-.1-.3 0H1c-.1-.4-.4-.9-.1-1.3z"/><path d="M1.3 182.8c.1-.1.3-.2.3 0l-.1.1c0-.1-.1-.1-.2-.1z" style="fill:#ea8763"/><path class="st16" d="M67.7 188.1c0-.6.3-1.1.6-1.6.3.2.6.3.8.6.2.4-.1 1-.5 1h-.9zM-6.4 190.3c.5-.4 1.1-.3 1.6 0-.5.4-1.1.3-1.6 0zM-3.7 190.8c.2-.4.7-.6 1.2-.6.5.1.8.6 1 1.1-.5 0-1.1.2-1.5-.1-.3-.2-.5-.3-.7-.4zM80.6 194.8c.5-.2 1-.1 1.5.1-.2.2-.5.4-.8.4-.3-.1-.6-.3-.7-.5zM77.4 196.4c.2-.2.3-.4.6-.4s.5.1.7.3c-.3.2-.6.4-.9.4-.2-.2-.3-.3-.4-.3zM71.4 196.7c.6 0 1.1.4 1.6.7-.2.4-.5.7-.8.9-.4-.1-.9-.2-1.1-.6-.2-.3 0-.7.3-1zM73.8 197.8c-.2-.3-.1-.8.3-.8.5.1 1 .4 1.5.5-.3.3-.7.6-1.2.8-.2-.1-.4-.3-.6-.5z"/><path class="st18" d="M48.3 13.9c1-.6 2.3-.8 3.4-.4.8.3 1.4.9 1.9 1.5-.8-.4-1.5-1.2-2.5-1.4-.9-.2-1.9.1-2.8.3zM43.4 14c.7-.1 1.4.1 2 .3-.6 0-1.3-.1-1.9-.1-.7.1-1.3.5-1.9.8.4-.5 1.1-.9 1.8-1z"/><path class="st18" d="M49 14.3c.8-.1 1.7-.1 2.5.1.6.2 1.1.5 1.6.9-.6-.2-1.2-.6-1.8-.7-.5-.2-1.1-.2-1.7-.2-.7 0-1.3.3-2 .4-.8.2-1.6.2-2.5.1-1.1-.1-2.3.1-3.3.6-.7.4-1.3.8-2 1.3.3-.4.7-.8 1.1-1 .9-.6 1.9-1 3-1 .8-.1 1.5.1 2.3.1 1-.2 1.9-.4 2.8-.6z"/><path class="st18" d="M47.2 15.4c1.2-.1 2.3-.4 3.5-.2.7.1 1.4.3 2 .7-.6-.2-1.1-.4-1.7-.5-1.7-.3-3.4.4-5.1.2-1.3-.1-2.6-.1-3.7.4-.5.2-.9.5-1.4.6 1-.9 2.3-1.3 3.6-1.3.9 0 1.8.2 2.8.1zM53.8 15.4c.5.5 1.1 1.1 1.7 1.5.9.6 2 1.3 2.1 2.5-.3-.9-1-1.6-1.7-2.1-.6-.4-1.1-.8-1.6-1.2-.3-.1-.4-.4-.5-.7z"/><path class="st18" d="M48.3 16.1c1.1-.4 2.3-.4 3.4 0 .3.1.6.2.8.5-.7-.1-1.4-.5-2.2-.5-.7-.1-1.4.1-2 0zM42.8 16.4c.8-.4 1.8-.4 2.7-.3l-2.7.3zM44.6 16.7c.7-.1 1.4-.4 2.2-.3-.7.3-1.4.4-2.2.6-.9.1-1.8.3-2.7 0 1-.1 1.9-.1 2.7-.3z"/><path class="st18" d="M47.5 16.7c.7-.2 1.4-.3 2.2-.2.5.1.9.3 1.4.4-.9-.1-1.7-.3-2.6-.2-1.1.1-2.1.5-3.2.7-.9.2-1.8.3-2.7.2-.7-.1-1.5-.1-2.1-.4 1.1 0 2.1.3 3.2.2 1.2 0 2.5-.3 3.8-.7zM53.2 16.4c.9.2 1.6 1 2.2 1.6-.7-.6-1.5-1.1-2.2-1.6zM39.4 16.5c.2.2.4.5.6.8.2.3.5.5.5.9-.6-.4-1-1-1.1-1.7zM52.7 17.1c.3 0 .5 0 .8.2.7.4 1.4.9 1.8 1.6-.5-.3-.9-.7-1.3-1-.5-.3-.9-.5-1.3-.8zM38 17.3c.1-.1.3-.1.4-.1-.4.3-.8.5-1.2.8-.9.7-1.7 1.5-2.2 2.6-.4.9-.8 1.8-1 2.8 0-.9.4-1.7.7-2.5.7-1.5 1.9-2.8 3.3-3.6z"/><path class="st18" d="M47.3 17.5c1.3-.3 2.6-.3 3.8.1-1.4-.2-2.9-.2-4.2.3-1.7.5-3.6.7-5.3.3-.2-.1-.5-.2-.7-.3.6 0 1.2.2 1.8.2 1.5.2 3-.2 4.6-.6zM38.7 17.6c.2-.1.4-.2.6-.2-.9.6-1.8 1.3-2.4 2.2-.6.9-1 2-1.1 3-.1.7-.1 1.5-.3 2.2-.1-2 .5-4.1 1.7-5.8.4-.4.9-.9 1.5-1.4zM33.3 22.1c.7-1.9 1.9-3.6 3.6-4.7-.4.4-.9.8-1.3 1.2-.7.7-1.3 1.6-1.7 2.6-.7 1.3-1 2.8-1.2 4.2-.2-1.1.2-2.2.6-3.3zM51.8 17.7c1.3 0 2.5.9 3.4 1.8-.7-.5-1.4-1-2.2-1.4-.4-.1-.8-.3-1.2-.4zM39.1 19.5c.3-.4.4-.9.8-1.3-.3.7-.8 1.3-1.1 2-.7 1.4-.9 3-1.2 4.5-.1-.6-.1-1.2.1-1.8.3-1.1.7-2.3 1.4-3.4zM55.8 18.4c.6.1 1 .5 1.3 1 .3.4.5.9.5 1.4-.4-1-1-1.8-1.8-2.4zM39.1 21.8c.3-.9.5-1.8.9-2.6-.1.6-.3 1.1-.5 1.6-.2.8-.5 1.6-.6 2.4-.1.6-.1 1.2-.3 1.8-.1-1.1.2-2.2.5-3.2zM55.5 19.2c.5.1.9.5 1.2.9.2.3.4.7.5 1.1-.4-.7-1.1-1.3-1.7-2zM33.1 20.8c.3-.4.6-.9.9-1.3-.4.8-.9 1.5-1.3 2.3-.7 1.4-.9 3-1.1 4.6-.1-2 .5-4 1.5-5.6zM34.4 24.4c.3-1.6.7-3.2 1.6-4.5-.6 1.6-1.3 3.2-1.4 5-.1 1-.1 2-.2 3-.2-1.2-.1-2.4 0-3.5z"/><path class="st18" d="M36.8 22.2c.2-.7.5-1.3.9-1.9-.5 1-.7 2.1-1 3.1-.1.4-.2.8-.4 1.1 0-.8.3-1.5.5-2.3zM40 21.7c0-.3.1-.5.1-.8.2.9 0 1.8-.2 2.7-.1.6-.3 1.2-.5 1.8.2-1.3.5-2.5.6-3.7zM37 28.3c-.2-1.2.2-2.4.5-3.6 0 .6-.2 1.2-.3 1.7 0 .7-.1 1.3-.2 1.9zM33.5 26.2c0-.5-.1-1 .2-1.4 0 1.1 0 2.1.1 3.2.1.8.2 1.5.2 2.3-.3-1.3-.6-2.7-.5-4.1zM38 27.2c.1-.7.3-1.3.5-2 0 1.2-.4 2.3-.6 3.4-.1-.5 0-1 .1-1.4zM36 28.5c-.2-1.1-.1-2.3.4-3.3 0 .6-.2 1.1-.2 1.7-.1.5-.1 1.1-.2 1.6zM35 26.6c0-.4.1-.7.3-1.1-.1.5-.2 1-.2 1.5v1.6c-.1-.7-.1-1.4-.1-2zM32.9 29.3c-.1-1.2-.3-2.5.1-3.7 0 1.3 0 2.5-.1 3.7zM38.5 28.4c.2-.8.4-1.6.8-2.4-.2 1.4-.8 2.7-.9 4.1-.1-.5 0-1.1.1-1.7zM31.3 31.6c-.2-1.7-.6-3.4-.3-5.1.1.9.1 1.8.2 2.7 0 .9.1 1.7.1 2.4zM32.1 29.7c-.2-1-.4-2.1-.1-3.2-.1 1.1.1 2.2.1 3.2z"/><path class="st13" d="M44.2 27.9c1.2-.4 2.6-.4 3.8.1.4.2.8.7.7 1.1-.1.3-.4.2-.6.2-1.4-.1-2.8-.2-4.1.1-.7.1-1.4.3-2.1.1.2-.3.3-.7.6-.9.5-.3 1.1-.5 1.7-.7z"/><path class="st18" d="M45.6 28.2c-.2-.1-.3-.2-.4-.4.7.2 1.3.7 1.7 1.3-.4-.3-.9-.6-1.3-.9zM46.3 27.8c.7.2 1 .8 1.2 1.4-.5-.4-.9-.9-1.2-1.4zM44.4 28c.7.1 1.3.4 1.6 1-.5-.3-1.2-.6-1.6-1zM47.4 28c.5.3.6.9.7 1.4-.3-.4-.6-.9-.7-1.4z"/><path class="st13" d="M54.3 28.4c1.2-.4 2.6-.4 3.7.1.6.3 1.3.9 1.2 1.6-.4-.1-.9-.1-1.3-.2-.6-.1-1.1-.2-1.7-.3.5-.3 1-.7 1.4-1.1-.7.1-1.2.6-1.6 1.1-.7-.1-1.5 0-2.2.1.2-.3.5-.8.5-1.3z"/><path class="st18" d="M43.6 28.2c.7-.1 1.4.4 1.8.9-.6-.3-1.3-.5-1.8-.9zM54.8 29.6c.2-.6.6-1.1 1.2-1.3-.3.4-.7.9-1.2 1.3zM42.9 28.6c.6-.3 1.3.1 1.8.5-.7-.1-1.3-.3-1.8-.5zM48 28.3c.4.2.5.6.4 1-.2-.3-.3-.6-.4-1zM54.2 29.7c0-.6.3-1.2 1-1.4-.4.5-.7.9-1 1.4zM55.5 29.6c.3-.6.7-1.1 1.3-1.2-.4.4-.8.8-1.3 1.2z"/><path class="st13" d="M53.6 29.6c0-.5.3-1 .7-1.2 0 .5-.3.9-.5 1.4 0 0-.2-.1-.2-.2z"/><path class="st18" d="M56.1 29.8c.4-.6.9-1 1.6-1.1-.4.4-.9.8-1.4 1.1h-.2zM35.7 30.2c-.3-.5-.3-1.1-.1-1.6.2.5.1 1.1.1 1.6zM36.7 30.3c-.2-.5-.2-1.2.1-1.7 0 .6 0 1.2-.1 1.7zM42.5 28.8c.5 0 1 .1 1.5.4-.4 0-.7-.1-1.1-.1l-.2.2c.2 0 .4.1.6.1-.3 0-.7 0-1-.1.1 0 .2-.1.3-.1-.1-.2-.1-.3-.1-.4zM56.9 29.7c.3-.4.8-.7 1.3-.8-.3.4-.8.6-1.3.8zM37.6 31c-.2-.6-.3-1.4.1-1.9 0 .6 0 1.3-.1 1.9zM57.7 29.8c.3-.3.7-.4 1.1-.4-.2.3-.6.5-1.1.4zM32 30c.1.4.2.8.2 1.2-.2-.3-.3-.8-.2-1.2z"/><path class="st19" d="M45.8 31.1c.6 0 .4 1.2-.2 1.1-.4-.2-.3-1 .2-1.1zM56.2 31.3c.2-.1.5 0 .5.3.1.4-.2 1-.6.8-.5-.2-.4-.9.1-1.1z"/><path class="st18" d="M38.1 33.3c-.1-.4-.3-.9 0-1.3.1.4.1.9 0 1.3z"/><path class="st20" d="M34.4 32.6c.8-.4 1.8-.5 2.6-.2v.2c-.9 0-1.8 0-2.6.6-.6.5-.7 1.4-.6 2.1 0 .5.2 1.1.6 1.5.5.2.7-.4 1.2-.5.5-.2 1.1.1 1.4.5-.1 0-.2 0-.2.1-.3-.2-.6-.4-.9-.3-.5 0-.7.7-1.3.7-.4 0-.7-.3-.9-.7-.4-.7-.4-1.5-.3-2.2 0-.7.3-1.4 1-1.8zM44.7 32.8c.7.1 1.4.1 2.1.1-.7.3-1.5.4-2.1-.1zM55.3 32.8c.6.1 1.2.1 1.8 0-.5.4-1.2.4-1.8.3v-.3z"/><path class="st18" d="M37.5 32.8c.4.2.1.7.1 1-.1-.3-.2-.6-.1-1z"/><path class="st20" d="M44.7 33.4c.6.1 1.2 0 1.8.1-.5.3-1.2.4-1.8.2v-.3zM55 33.7c.7-.1 1.4-.1 2.2-.1-.4.4-1 .4-1.5.4-.3-.1-.5-.2-.7-.3z"/><path class="st18" d="M38 33.8c.3.4.3.9.2 1.4-.3-.4-.2-.9-.2-1.4zM37.5 35.3c-.1-.5-.2-1 .2-1.4 0 .5 0 .9-.2 1.4z"/><path d="M50.5 34.9c.3-.2.8 0 .7.4-.2.3-.6.2-.9.2 0-.2 0-.5.2-.6z" style="fill:#cc7a66"/><path class="st18" d="M37.6 37.4c-.1-.6-.1-1.2.2-1.8 0 .6-.1 1.2-.2 1.8zM38.2 35.7c.3.4.2 1 .2 1.5-.1-.5-.2-1-.2-1.5zM38.8 36.2c0-.1.1-.2.2-.3.2.5.4 1 .3 1.5-.2-.4-.4-.8-.5-1.2zM49.6 36.7c.4-.1.7-.1 1.1-.2-.3.3-.7.3-1.1.4-.1 0-.1-.1 0-.2zM52 36.6c.5.1 1 .2 1.4.5-.4-.1-.9-.2-1.3-.3 0-.1-.1-.2-.1-.2zM47.6 37.3c.2-.4.7-.4 1.1-.4-.4.1-.8.3-1.1.4zM53.8 36.9c.6 0 1.1.3 1.6.7-.6-.1-1.1-.3-1.6-.7zM51.6 37.2c.4-.3.9 0 1.3.3-.5-.1-.9-.2-1.3-.3zM48.3 37.6c.3-.2.7-.3 1-.4-.3.3-.8.5-1.2.7.1-.1.1-.3.2-.3zM53.3 37.4c.6-.1 1.1.3 1.5.7-.5-.3-1-.5-1.5-.7zM59.2 38.6c-.2-.4-.3-1 0-1.4 0 .5.1 1 0 1.4zM38.3 37.4c.2.4.3.8.3 1.3-.2-.4-.4-.8-.3-1.3zM39.1 37.4c.3.4.5.8.5 1.3-.3-.4-.5-.8-.5-1.3zM45.6 38.1c.3-.3.7-.6 1.2-.7-.3.4-.7.7-1.2.7zM49.1 38.2c.3-.4.9-.5 1.4-.6-.4.3-.9.5-1.4.6zM51.7 37.5c.3 0 .6.2.7.4-.3-.1-.6-.1-.7-.4zM46.6 38.4c0-.5.6-.6 1-.8-.3.3-.7.6-1 .8zM52.8 37.8c.4-.3.8.2 1.2.4-.4-.1-.8-.3-1.2-.4zM46.7 38.9c.4-.4.9-.7 1.4-.9-.3.5-.8.8-1.4.9zM56 38.1c.5.2.9.7 1.2 1.2-.5-.4-.9-.8-1.2-1.2zM55.3 38.3c.6 0 .9.5 1.1 1-.4-.3-.8-.7-1.1-1zM45 39.3c0-.4.5-.6.8-.8-.1.4-.4.7-.8.8zM42.9 39.9c0-.4.4-.7.8-.9-.2.3-.5.6-.8.9zM38.6 39.2h.2c0 .5 0 .9-.2 1.4v-1.4zM39.5 40.3c0-.5.1-1 .4-1.3 0 .5-.2.9-.4 1.3zM58.7 39.1c.4.3.3.9.3 1.4-.1-.5-.2-1-.3-1.4zM40.6 40c.1-.3.3-.8.7-.8-.1.3-.4.6-.7.8zM43.6 40.3c.2-.5.7-.8 1.1-1.1-.4.4-.7.8-1.1 1.1zM37.9 41.4c-.1-.6-.3-1.3.1-1.9 0 .6 0 1.2-.1 1.9zM56.4 39.6c.5.2.7.8.8 1.3-.2-.5-.5-.9-.8-1.3zM57.1 39.5c.5.1.7.6.8 1.1-.3-.4-.5-.7-.8-1.1zM58.2 39.7c.1.1.3.1.3.3.1.4.1.8.1 1.1-.2-.5-.3-1-.4-1.4z"/><path class="st20" d="M50.6 39.9c.7-.1 1.4-.1 2.2 0 .4.1.8.2 1.1.4-.9 0-1.7-.3-2.6-.2-.9 0-1.7.3-2.5.5v-.2c.6-.1 1.2-.4 1.8-.5z"/><path class="st18" d="M55.9 39.8c.1 0 .2.1.3.1.2.4.3.7.4 1.1-.3-.4-.4-.8-.7-1.2zM41.5 41.4c.1-.6.4-1.1.8-1.5-.2.5-.4 1.1-.8 1.5zM43.6 41.4c.2-.6.7-1 1.2-1.3-.4.5-.8.9-1.2 1.3zM40.7 41.4c0-.5.2-1 .6-1.3-.1.5-.3.9-.6 1.3zM42.2 42c-.1-.7.5-1.2 1-1.6-.3.5-.7 1-1 1.6zM39.6 41.9c-.1-.5-.1-1.1.3-1.4-.1.4-.2.9-.3 1.4zM38.6 42.7c0-.5-.3-1.1.1-1.6.1.5.1 1.1-.1 1.6zM57.8 41.3h.2c.1.4.2.8.1 1.2-.2-.4-.2-.8-.3-1.2zM56.9 41.4h.3c.1.4.2.8.2 1.2-.2-.4-.3-.8-.5-1.2zM58.8 41.3c.1 0 .2.1.2.1 0 .4 0 .9-.1 1.3-.1-.4-.1-.9-.1-1.4zM43.9 42.6c.1-.5.2-1 .7-1.3-.2.5-.4.9-.7 1.3zM56.7 42.7c-.3-.4-.5-.9-.5-1.4.5.3.4.9.5 1.4zM55.6 41.6c.4.1.4.7.4 1-.3-.3-.4-.7-.4-1zM42.7 43.2c0-.5 0-1.2.5-1.4-.2.4-.3.9-.5 1.4zM45.2 42s.1.1.2.1c-.3.4-.5.8-.7 1.1 0-.4.3-.8.5-1.2zM51.2 41.9c.4.1.4.5.5.9-.3-.2-.4-.5-.5-.9zM52.9 42.1c.5.2.6.8.6 1.3-.2-.5-.5-.9-.6-1.3zM55 42c.3.3.4.8.4 1.2-.3-.4-.4-.8-.4-1.2zM48.2 43.3c.1-.4.1-.9.6-1-.2.4-.3.7-.6 1zM49.8 43.1c.1-.3.2-.7.6-.9-.2.4-.4.7-.6.9zM54.5 43.5c-.2-.4-.5-.8-.4-1.3.2.3.3.8.4 1.3zM58.3 42.4h.3c0 .5.1 1-.1 1.5-.2-.5-.2-1-.2-1.5zM45.5 43.6c.1-.4.2-1 .7-1.2-.3.4-.5.8-.7 1.2zM39.1 42.9c0-.2.1-.3.1-.5.2.7.2 1.4.4 2.1-.3-.5-.4-1.1-.5-1.6zM42 44c0-.5-.2-1.1.3-1.5L42 44zM47.1 43.7c0-.4.1-1 .5-1.2-.1.4-.3.8-.5 1.2zM38 42.7c.1 0 .2-.1.2-.1 0 .5.1 1 .1 1.5-.3-.4-.3-.9-.3-1.4zM50.5 43.9c0-.5 0-.9.2-1.3.1.4-.1.9-.2 1.3zM46.6 42.7c0 .6-.4 1-.6 1.6.1-.6.3-1.2.6-1.6zM43.7 44.3c-.1-.5-.2-1.1.2-1.4 0 .5-.1 1-.2 1.4zM51.4 44.3c-.2-.4-.3-.9-.2-1.4.2.4.3.9.2 1.4zM48.8 43.3c.1 0 .2 0 .3-.1 0 .4-.1.7-.2 1.1-.1-.3-.1-.7-.1-1zM56.9 43.1c.2.1.3.2.3.3.1.4 0 .7 0 1.1-.2-.5-.3-1-.3-1.4zM57.7 43.1c.3.5.2 1 0 1.5v-1.5zM55.9 43.3c.4.3.3 1 .3 1.4h-.1c-.1-.4-.2-.9-.2-1.4zM47.7 45c0-.5-.1-1.1.3-1.5 0 .6-.1 1.1-.3 1.5zM53 43.6c.3.4.4.9.4 1.4-.1-.4-.4-.9-.4-1.4zM53.9 43.6c.3.2.3.6.4.9-.2-.3-.4-.6-.4-.9zM44.5 43.7h.2c-.1.4-.2.8-.3 1.3 0-.4 0-.8.1-1.3zM49.6 45.2c-.1-.5-.1-1 .2-1.4.1.4 0 .9-.2 1.4zM54.9 43.9h.3c.1.5.2.9.1 1.4-.2-.5-.3-1-.4-1.4zM59 43.8c.1.1.2.2.2.4 0 .4 0 .8-.1 1.2-.1-.6-.2-1.1-.1-1.6zM45.1 45.3c0-.4-.2-1 .3-1.2-.1.4-.1.8-.3 1.2zM46.3 45.4c-.1-.5.1-1 .3-1.4.1.5-.2 1-.3 1.4zM41.3 45.4c-.1-.4-.1-.8 0-1.2.2.3.1.8 0 1.2zM50.6 45.5c-.2-.4-.2-1 .1-1.3 0 .4 0 .9-.1 1.3zM58.3 44.3h.2c0 .5 0 1.1-.1 1.6-.1-.5-.1-1.1-.1-1.6zM38.6 44.4h.2c.1.5.2 1 .2 1.5-.2-.5-.4-1-.4-1.5zM47 46c0-.6-.1-1.2.3-1.7-.1.6-.2 1.1-.3 1.7zM56.6 44.5c.4.4.3 1 .1 1.5-.1-.5-.1-1-.1-1.5zM51.3 44.7c.4.3.2.8.2 1.2-.2-.4-.3-.8-.2-1.2zM43.6 44.7c.3.4.1 1 .1 1.5-.2-.5-.2-1-.1-1.5zM48.3 45.1c0-.1.2-.2.3-.3-.1.5-.3 1.1-.4 1.6-.1-.4-.1-.9.1-1.3zM54.1 44.8c.1 0 .3.1.3.2.1.3.1.7.1 1.1-.2-.4-.3-.8-.4-1.3zM55.5 44.8c.1.1.2.2.2.3 0 .4 0 .8-.1 1.1 0-.5-.1-.9-.1-1.4zM52.9 46.2c-.2-.5-.4-.9-.3-1.4.3.4.4 1 .3 1.4zM57.5 45c.1.1.2.2.2.4 0 .4-.1.9-.2 1.3-.1-.6-.1-1.2 0-1.7zM42.6 45.1c.2.5.1 1 .1 1.5-.2-.4-.2-1-.1-1.5zM48.9 47.1c-.1-.6-.2-1.2.2-1.7 0 .6-.1 1.2-.2 1.7zM41.7 45.5c.2.5.1 1 .1 1.5-.2-.5-.2-1-.1-1.5zM51.8 45.6h.2c0 .4.2 1-.1 1.4 0-.5 0-.9-.1-1.4zM44.3 45.6c.3.4.3 1.1.2 1.6-.1-.5-.2-1.1-.2-1.6zM45.4 47c-.2-.4-.3-1 0-1.4V47zM46.3 47.1c-.1-.4-.4-1.1 0-1.4.1.5.1 1 0 1.4zM50.7 47.4c-.2-.5-.2-1.1.1-1.5 0 .5-.1 1-.1 1.5zM53.5 45.8c.3.4.3 1 .1 1.5 0-.5-.2-1-.1-1.5zM54.9 46.3c.1 0 .2-.1.2-.1 0 .6.1 1.2-.3 1.7 0-.6 0-1.1.1-1.6zM56.7 46.4h.2c0 .5-.1.9-.2 1.4-.1-.5-.1-1 0-1.4zM51.4 47.9c-.1-.5-.2-1-.1-1.5.1.5.1 1 .1 1.5zM58.6 46.5h.2c0 .4.1.8-.2 1.1v-1.1zM38.9 46.5c.3.5.3 1 .4 1.6-.3-.5-.4-1.1-.4-1.6zM43.4 46.5c.3.5.3 1.1.3 1.7-.3-.6-.5-1.1-.3-1.7zM55.9 46.5c.2.3.1.6.1.9 0 .3-.1.6-.3.9 0-.6.1-1.2.2-1.8zM58 47.8c0-.5-.1-1 .2-1.4.1.5 0 1-.2 1.4zM39.7 46.7c.4.3.3.9.5 1.4-.4-.4-.6-.9-.5-1.4z"/><path class="st20" d="M34.6 47c.4.5.6 1.1.9 1.6 1 1.6 2.2 3.2 3.7 4.4 1.4 1.2 3.2 2 5 2.7-.7-.1-1.4-.4-2.1-.7-1.3-.4-2.4-1.2-3.4-2.1-1.4-1.2-2.5-2.8-3.4-4.5-.2-.4-.5-.9-.7-1.4z"/><path class="st18" d="M42.6 47c.2.4.2.9.2 1.3-.4-.3-.4-.8-.2-1.3zM46.8 47.1c.4.3.3.9.3 1.4-.2-.5-.3-1-.3-1.4zM48.1 47c.2.4.2.9.2 1.4-.2-.4-.3-.9-.2-1.4zM54.2 47s.1.1.1.2c0 .5-.1 1-.3 1.5.1-.5.2-1.1.2-1.7zM52.9 47.1c.4.4.2 1.1.1 1.6-.2-.5-.2-1.1-.1-1.6zM45.1 47.4c.3.3.2.9.2 1.3-.2-.4-.2-.9-.2-1.3zM42 49.1c-.2-.5-.4-1.1-.1-1.6.1.5.1 1 .1 1.6zM49.1 48.8c-.2-.4-.3-1-.1-1.4.2.4.1 1 .1 1.4zM51.9 47.7l.1-.1c.2.5.1 1 0 1.5-.1-.5-.2-1-.1-1.4zM49.9 49c-.2-.5-.3-1-.1-1.5.2.5.2 1 .1 1.5zM57 47.7c0 .1.1.2.2.2-.1.4-.1.7-.3 1-.1-.3 0-.7.1-1.2zM44.3 48.1c.1 0 .2 0 .2-.1.1.4.2.8.2 1.3-.3-.4-.3-.8-.4-1.2zM50.5 48h.3c0 .4 0 .8-.1 1.2-.1-.4-.2-.8-.2-1.2zM40.9 48.1s.1.1.2.1c.2.4.2.9.1 1.3-.2-.5-.3-1-.3-1.4zM57.7 49.7c0-.5.1-1.1.4-1.5.2.5-.1 1.1-.4 1.5zM55 48.4h.2c0 .5-.2 1-.4 1.5.1-.6.1-1 .2-1.5zM47.8 49.8c-.2-.4-.5-.9-.3-1.4.2.5.3 1 .3 1.4zM56.1 48.4c.1.6-.1 1.2-.5 1.7.1-.6.2-1.1.5-1.7zM40.5 50c-.3-.5-.5-1-.4-1.5.3.5.4 1 .4 1.5zM53.4 48.6c.1 0 .2.1.2.1-.1.4-.3.9-.5 1.3.1-.5.2-.9.3-1.4zM45.7 48.8c.3.3.3.9.4 1.3-.2-.4-.4-.8-.4-1.3zM43.7 48.9c.1 0 .2.1.2.1.2.4.2.9.2 1.3-.2-.4-.3-.9-.4-1.4zM39.6 49c.3.5.6 1 .8 1.6-.4-.5-.8-1-.8-1.6zM42.7 49c.3.4.4.9.4 1.4-.3-.5-.4-1-.4-1.4zM48.4 49.4c0-.2 0-.3.1-.4.1.5.2 1.1.1 1.6-.2-.4-.2-.8-.2-1.2zM54.1 49.2c.1 0 .2-.1.3-.2-.2.5-.3 1-.7 1.4.1-.4.2-.8.4-1.2zM49.5 50.5c-.1-.5-.3-.9-.2-1.4.2.4.3.9.2 1.4zM51.2 49.3c.4.3.3.9.2 1.3-.2-.4-.2-.9-.2-1.3zM52.4 49.3h.2c0 .5 0 1-.2 1.5v-1.5zM46.7 49.3c.4.3.4.9.4 1.4-.2-.4-.3-.9-.4-1.4zM56.8 49.4c.1 0 .2 0 .3.1-.1.4-.3.8-.5 1.1 0-.4.1-.8.2-1.2zM41.6 49.5c.4.3.5.9.6 1.4-.3-.5-.6-.9-.6-1.4zM50.2 49.6h.2v1.3c-.1-.4-.2-.8-.2-1.3zM45 49.7h.2l.3 1.2c-.2-.3-.3-.7-.5-1.2zM57.3 51.3c.2-.4.3-.9.6-1.3 0 .4-.2.8-.4 1.2-.1 0-.2.1-.2.1zM41 50.1c.3.3.4.7.5 1.2-.3-.3-.6-.7-.5-1.2zM54.1 51.5c.1-.5.2-1 .5-1.4.1.6-.2 1.1-.5 1.4zM44.5 50.6c0-.1.1-.2.1-.3.2.5.4 1 .5 1.5-.2-.4-.5-.8-.6-1.2zM44 51.7c-.3-.2-.8-.8-.4-1.2.1.5.3.8.4 1.2zM46.9 52c-.1-.5-.4-1-.3-1.5.2.5.3 1 .3 1.5zM47.6 50.5c.5.3.3 1 .4 1.5-.2-.5-.4-1-.4-1.5zM55.6 50.8c.1-.1.2-.2.3-.2-.2.5-.4 1-.8 1.3.1-.3.3-.7.5-1.1zM51.7 50.7c.4.3.1 1 0 1.4-.1-.5-.1-1 0-1.4zM49.5 50.9c.4.3.3.8.2 1.2-.1-.4-.2-.8-.2-1.2zM53.2 50.9c0 .5-.2 1.1-.4 1.5 0-.5.2-1 .4-1.5zM55.8 52.3c.1-.5.2-1 .7-1.3-.1.5-.3.9-.7 1.3zM43.2 52.5c-.3-.4-.7-.9-.5-1.4.2.4.4.9.5 1.4zM48.6 51.1c.4.2.2.8.3 1.2-.2-.4-.3-.8-.3-1.2zM50.8 51.3h.2c0 .5 0 1.1-.3 1.6.1-.5.1-1 .1-1.6zM41 51.6c.4.3.5.8.7 1.2-.4-.3-.6-.8-.7-1.2zM41.7 51.8h.2c.3.4.4.8.6 1.2-.4-.2-.6-.7-.8-1.2zM44.4 51.8c.3.4.5.8.6 1.3-.3-.4-.7-.8-.6-1.3zM52.2 51.8c.2.5-.1 1-.3 1.5 0-.5.1-1.1.3-1.5zM53.4 52.1c.3.4-.1.9-.3 1.3 0-.5.1-.9.3-1.3zM54 53.5c.1-.5.2-1.1.6-1.5 0 .6-.3 1.1-.6 1.5zM56.1 53.2c.2-.4.4-.8.8-1.2 0 .5-.4 1-.8 1.2zM47.6 52.4c.3.3.4.8.5 1.2-.4-.4-.5-.8-.5-1.2zM49.9 53.8c0-.4-.1-.9.1-1.3.1.4.1.8-.1 1.3zM46 53.8c-.3-.4-.6-.7-.6-1.2.2.3.4.7.6 1.2zM43.6 52.6c.3.4.5.9.7 1.3-.3-.3-.7-.8-.7-1.3zM54.8 53.8c.2-.4.3-1 .8-1.2-.1.5-.4.9-.8 1.2zM49 52.8h.2c0 .5 0 .9-.2 1.4v-1.4zM46.6 52.9c.2-.2.3.1.3.2.1.3.2.6.2.9-.2-.3-.4-.7-.5-1.1zM50.9 54.6c0-.5 0-1 .2-1.5.2.5 0 1-.2 1.5zM42.9 53.3c.5.1.5.6.7 1-.3-.2-.6-.6-.7-1zM45 53.5c.3.4.5.8.6 1.2-.3-.3-.6-.7-.6-1.2zM51.8 54.9c0-.5 0-.9.4-1.3 0 .5-.1.9-.4 1.3zM48.3 55.1c0-.4-.2-.9 0-1.3.1.4.1.8 0 1.3zM52.8 55c.1-.4.1-1 .6-1.2-.1.5-.3.9-.6 1.2zM46.8 55c-.3-.2-.7-.6-.6-1 .2.3.4.6.6 1zM53.6 55.2c0-.4.2-.9.5-1.1.1.4-.2.8-.5 1.1zM49.6 54.3c.3 0 .3.4.3.6 0 .2-.1.4-.2.6-.1-.4-.1-.8-.1-1.2zM44.5 54.4c.3.3.5.7.8 1.1-.4-.3-.9-.6-.8-1.1zM50.7 56.2c-.2-.4-.2-.9.1-1.3 0 .5-.1.9-.1 1.3zM48.9 56.3c-.1-.3-.5-.8-.1-1.1 0 .4.1.8.1 1.1zM51.4 56.2c0-.4 0-.8.3-1.1 0 .5 0 .9-.3 1.1zM52.3 56.1c0-.3.1-.6.3-.8.3-.1.1.3.1.4l-.4.4zM49.7 55.7h.2c.1.3.1.6.1.9-.3-.2-.3-.6-.3-.9z"/><path class="st20" d="M40.2 55.9c1.8.9 3.7 1.6 5.7 1.8 1.1.1 2.2.2 3.4.2-.5.1-1.1.1-1.7.1-1.2 0-2.4-.1-3.5-.4-1.3-.4-2.7-.9-3.9-1.7z"/><path class="st22" d="M24.8 56.7c.3.1.4.4.5.6.2.4.5.8.8 1.2.3.4.6.9 1 1.2.5.5 1 .9 1.5 1.3.8.9 1.9 1.5 2.9 2.2.9.6 1.9 1 2.8 1.5 1 .6 2.1.9 3.2 1.2 1.3.4 2.6.5 3.9.6.6 0 1.2 0 1.7-.1 1.1-.2 2.3-.3 3.4-.6 1.2-.3 2.4-.8 3.6-1.2 2.1-1 3.9-2.4 5.6-3.9.4-.3.8-.9 1.4-.9-1.8 1.6-3.7 3.2-5.9 4.4-.9.6-1.9.9-2.9 1.3-1.7.7-3.6.9-5.4 1.2-1 .1-2.1 0-3.2 0-1.6-.1-3.2-.6-4.8-1.2-1-.4-1.9-1-2.9-1.4-1.2-.7-2.3-1.4-3.3-2.2-.7-.8-1.7-1.4-2.4-2.2-.4-1-1.3-1.9-1.5-3zM46.9 69.8c.7-.1 1.3-.2 2-.2-.9.2-1.8.3-2.6.4-1.6.2-3.3.4-4.9.4-.6 0-1.2.1-1.8.1.6-.2 1.3-.3 1.9-.3 1.7 0 3.5-.2 5.4-.4zM56 78.9c2-.1 3.9-.9 5.8-1.4-.5.3-1.1.5-1.7.7-.7.2-1.3.4-2 .6-1.2.3-2.4.4-3.6.4-.7 0-1.5.1-2.2.1 1.3-.3 2.5-.3 3.7-.4z"/><path class="st23" d="m31.9 87.9 2.4.6c1.7.2 3.5.3 5.2.1-1 .3-2.1.2-3.2.2-1.5 0-3.1-.1-4.4-.9zM16.5 88.2c1 .2 1.9.4 2.8.9 1.1.6 2.3 1 3.5 1.6 1.3.6 2.6 1.2 4 1.5-.5.1-1.1-.1-1.6-.3-1.6-.6-3.1-1.3-4.7-1.9-.6-.3-1.2-.6-1.9-.9-.7-.4-1.5-.5-2.1-.9z"/><path class="st24" d="M-1.7 89.6c0-.3 0-.5.2-.7.1.9.1 1.7.2 2.6.2 2.7-.1 5.4.4 8.1.1 1 .3 2 .5 3 .1.5.3.9.5 1.4-.7 0-.9-.8-1.1-1.3-.5.1-.9.2-1.4.2-2.1.1-4.2.3-6.3.1-.5 0-1.1 0-1.6-.1-.8-.1-1.7 0-2.5-.3v-.3c.5 0 1.1.1 1.6.1 2 .1 4 .3 6 .2 1.4-.1 2.8 0 4.3-.2-.1-.3-.1-.6-.2-.9-1.1 0-2.2-.2-3.3-.2-1.8 0-3.7-.1-5.5-.4 1.4-.1 2.8.1 4.2.1 1.5 0 3.1.1 4.6.4-.1-.4-.1-.9-.2-1.3-1.4-.2-2.9-.4-4.3-.6-.6-.1-1.2-.2-1.7-.5h.7c1.8.2 3.5.4 5.3.8-.4-2.4-.2-4.8-.2-7.3-.1-1-.2-1.9-.2-2.9zM68.1 92.5c.1-.6.2-1.3.5-1.8.3.3.2.7.1 1-.4 2.3-.3 4.7 0 7 .1.6.1 1.3.3 1.9.2-.5.4-1 .6-1.4.4-.9 1-1.8 1.6-2.6.4-.5.8-1 1.4-1.2-.2.4-.6.6-.8 1-1.2 1.5-2.1 3.2-2.7 4.9-.1.5.1 1 .1 1.5.9-1.8 2.2-3.3 3.6-4.7.2-.2.4-.3.6-.4-1.1 1.4-2.3 2.6-3.3 4.1-.3.5-.7 1-.9 1.6 1-.8 2.1-1.6 3.2-2.3.6-.4 1.3-.6 1.9-1 1.3-.6 2.6-1.2 4-1.5 2-.5 3.9-.8 5.9-.9 2.3-.2 4.6 0 6.9.4.6.1 1.2.3 1.8.5v.3c-1.5-.4-3.1-.6-4.7-.8-1.3-.1-2.6-.2-3.9 0-2 .1-3.9.4-5.8.9-2 .5-3.9 1.3-5.8 2.3-1.2.8-2.3 1.6-3.4 2.5.2.6.4 1.3.4 2h-.3c-.2-.4-.3-.7-.4-1.1-.2-.4-.5-.7-.7-1.1-.6-1.2-1-2.5-1.5-3.8-.5-1-.6-2.1-.9-3.1-.3-1.1-.3-2.2-.4-3.3h.2c.2.9.3 1.8.5 2.7l.6 2.4c.1.6.5 1.2.7 1.7.3.8.5 1.5.8 2.3-.1-1.7-.4-3.3-.5-4.9 0-1.9.1-3.5.3-5.1z"/><path d="M34.5 100c2.9-.8 5.9-1 8.8-1.7-.6.3-1.2.4-1.8.6-2.6.6-5.3.9-7.9 1.5-.4.1-.7.1-1.1 0 .7-.1 1.4-.2 2-.4z" style="fill:#d6cba7"/><path class="st24" d="M19.8 107.7c1.3-.3 2.6-.5 3.9-.8v.3c-.9.3-1.9.5-2.9.7-3 .7-5.9 1.5-8.9 2.3-1.4.4-2.9.8-4.4.6-.7-.1-1.3-.2-1.9-.6-.2-.1-.2-.4-.2-.6.8.6 1.9.8 2.9.7 1.1 0 2.2-.3 3.2-.6 2.7-.7 5.5-1.4 8.3-2zM44.9 109.3c.9-.1 1.9.1 2.8.1 1.8 0 3.5.3 5.3.8 3.2.9 6.3 2.1 9.5 3.2 1 .3 1.9.7 3 .7v.3c-.9.1-1.8-.2-2.6-.4-2.2-.7-4.4-1.3-6.6-2.1-1.6-.5-3.1-1.1-4.7-1.5-1.6-.4-3.2-.5-4.8-.7-.7-.1-1.3-.1-1.9-.4z"/><path class="st26" d="M68.7 110.7c.5-.1 1-.4 1.5-.5 0 0 .1.1.1.2-.3.3-.8.4-1.2.5-2.5.9-5.2 1.2-7.9.9-.7-.1-1.5-.2-2.1-.5.7 0 1.4.1 2 .2 1.5.1 3 .1 4.4-.1 1.2-.1 2.2-.4 3.2-.7z"/><path class="st24" d="M69 112.4c.6-.1 1.1-.4 1.6-.5 0 .1 0 .2.1.3-.8.5-1.8.7-2.7.9-1.1.1-2.1.3-3.2.2-.2 0-.3-.1-.5-.3 1.6 0 3.2-.2 4.7-.6z"/><path d="M9.7 130c2.2 0 4.4-.6 6.7-.5-1.6.3-3.2.4-4.7.6-1.5.3-3 .1-4.6 0-.2 0-.4-.1-.7-.1 1.1-.1 2.2 0 3.3 0z" style="fill:#d7cda9"/><path class="st24" d="M50.2 131.4c.2.1.4.1.5.3.6.9 1.2 1.8 1.6 2.8.9 2.1 2.1 4.1 3.5 6h-.3c-1-1.3-1.9-2.6-2.7-4-.4-.8-.8-1.7-1.2-2.6-.5-.8-1.1-1.6-1.4-2.5zM70.6 134.5c.5-.5.8-1.1 1.4-1.4-.1.7-.7 1.2-1.1 1.7-1.1 1.4-2.4 2.5-3.8 3.5-.8.6-1.6 1.1-2.5 1.5-.8.4-1.6.8-2.5 1v-.2c1.7-.6 3.3-1.6 4.8-2.7 1.3-1.1 2.6-2.1 3.7-3.4zM30.8 134.3c.1-.3.3-.5.6-.7-.4 1.3-1.2 2.4-1.8 3.5-.7 1.3-1.5 2.5-2.2 3.8-1 1.8-2 3.5-2.7 5.4h-.2c.5-1.6 1.2-3.1 2-4.5 1-2 2.1-3.9 3.3-5.8.3-.6.6-1.1 1-1.7zM68.9 140.5c.2-.2.4-.3.7-.3-.5 1-1.4 1.7-2.2 2.4-1.1.9-2.3 1.7-3.5 2.4-1.2.6-2.3 1.3-3.6 1.7.1-.1.1-.3.2-.3 3.1-1.5 6-3.5 8.4-5.9zM46.5 146.9c0-.3 0-.6.2-.8.1.6.2 1.3.2 1.9-.2 2.1.4 4.2 1.6 5.9.1.2.2.3.2.5-.5-.2-.7-.6-.9-1-.7-1.1-1.1-2.3-1.3-3.5-.3-1.1 0-2.1 0-3z"/><path class="st26" d="M69.8 151.5c.9-.3 1.8-.4 2.7-.7.1-.1.3 0 .4 0-.5.5-1.3.6-2 .7-1.1.3-2.1.6-3.2.8-1.2.3-2.3.7-3.5.9-2.4.6-4.7 1.3-7.1 1.8-1.3.3-2.6.5-3.9.8-2.3.4-4.7.7-7 1-2.6.4-5.3.4-8 .6-1.4.1-2.8.2-4.2.2-1.4.1-2.8 0-4.2.1-1.4 0-2.8-.1-4.3-.2-2.1-.1-4.1-.6-6.2-.8-1.2-.1-2.5-.3-3.7-.4-1.4-.1-2.9-.3-4.3-.4-1.3-.2-2.7-.4-4-.5-1.4-.1-2.9-.3-4.3-.2.2-.1.3-.3.5-.3 1.3-.1 2.5.1 3.8.1 1.2.1 2.4.2 3.6.4.9.1 1.9.2 2.8.3 1.2.2 2.5.2 3.8.4 1.2.2 2.4.2 3.6.4 1.5.2 2.9.5 4.4.6 1.5.1 3 .2 4.5.2 1.2 0 2.4.1 3.6 0 2.8-.1 5.6-.3 8.4-.5 2.3-.1 4.5-.5 6.8-.7 1.5-.2 2.9-.4 4.4-.7 1.3-.3 2.6-.4 3.8-.8 2.3-.5 4.5-1.1 6.8-1.7.8-.2 1.6-.4 2.3-.6 1.3-.3 2.6-.5 3.7-.8z"/><path class="st10" d="M59.5 157.9c.2 0 .4-.1.5.1.5.9 1.2 1.7 1.9 2.4 1.3 1.2 2.6 2.3 4 3.4 1.6 1.1 2.9 2.4 4.6 3.4.8.6 1.8.9 2.7 1.3.2.1.3.2.4.3-.1.1-.2.2-.3.2-.6-.1-1.1-.4-1.7-.5-.7-.2-1.3-.7-1.9-1-1.2-.7-2.2-1.6-3.3-2.4-1.3-.9-2.5-1.9-3.6-2.9-.8-.7-1.6-1.4-2.3-2.3-.4-.6-1-1.2-1-2zM15.9 159.9c.2-.3.6-.4 1-.4v.2c-.5.4-.7.9-1 1.4-.9 1.4-2 2.5-3.1 3.7-1.4 1.3-2.7 2.7-4.3 3.8-.9.7-1.9 1.4-2.9 1.9-.8.4-1.5.8-2.3 1.2-.4.2-.8.4-1.3.4v-.4c.4-.3.9-.5 1.4-.7 1-.5 2-1 2.9-1.6 1.1-.8 2.2-1.5 3.2-2.4 1.7-1.5 3.3-3.1 4.8-4.8.6-.7 1-1.5 1.6-2.3z"/><path class="st28" d="M34.4 161.1c.1 0 .2 0 .2.1.2.9.2 1.8.3 2.8.1 3-.1 6 0 9 0 1.6-.1 3.1-.1 4.7 0 2-.3 3.9-.3 5.9 0 1.2-.2 2.4.3 3.6.3.9 1.1 1.5 2 1.9-.2.7 0 1.4 0 2.1 0 1.7 0 3.5-.4 5.2-.1 0-.2.1-.2.1.2-2.4.2-4.7.2-7.1-.8-.5-1.6-1.1-1.9-1.9-.5-1.2-.4-2.6-.3-3.9 0-1.6.2-3.3.2-4.9 0-2.5.1-5.1.1-7.6-.1-3.5 0-6.8-.1-10z"/><path class="st14" d="M-12.7 181.1c.3.4.5.9.7 1.4.3.9.5 1.8.8 2.6.3 1 .7 1.9 1.2 2.7-.3-.4-.8-.6-1-1.1-.5-1.2-.9-2.4-1.2-3.6-.1-.6-.5-1.3-.5-2zM-10.2 181.4c.5.6.6 1.4.8 2.2.2 1 .5 2.1.9 3 .5 1.3.9 2.6 1.9 3.6-.5-.1-1-.5-1.3-1-.6-1.2-1.1-2.5-1.5-3.9-.2-.8-.3-1.6-.5-2.3-.1-.5-.3-1-.3-1.6zM-6.8 184.6c-.1-.3-.1-.6 0-.9.3.9.5 1.8.8 2.6.4 1.6 1.1 3.1 2.1 4.4-.2-.2-.5-.4-.8-.5-1.2-1.7-1.7-3.7-2.1-5.6zM83 190.5c.3-.5.6-1 1-1.4 0 .3-.2.6-.4.9-.6 1.1-1.4 2-2.1 3-.4.5-.8 1.1-1.4 1.5.2-.5.6-.9.8-1.4.8-.9 1.5-1.7 2.1-2.6z"/><path d="M79.5 191.1c.3-.6.5-1.2.8-1.7.1.5-.2.9-.3 1.4-.5 1.3-1.2 2.6-2 3.7-.3.5-.6 1-1 1.3.8-1.6 1.7-3.1 2.5-4.7z" style="fill:#c5613f"/><path d="M75.9 191.3c.1-.3.2-.6.5-.8 0 .9-.5 1.6-.8 2.4-.4 1.1-1 2-1.6 3-.3.5-.6 1-1 1.4 1-1.9 2-3.9 2.9-6z" style="fill:#c46240"/><path class="st10" d="M38.2 193.5c-.1-.1-.1-.3-.1-.4.6.1.9.5 1.4.9.8.6 1.6 1.2 2.4 1.7 1.2.9 2.4 1.8 3.7 2.6 1.2.7 2.5 1.2 3.7 1.9 1.4.8 2.9 1.6 4.3 2.5.4.3.9.5 1.2.9.1.1.1.2.1.4-1.9-1.1-3.8-2.2-5.8-3.2-1.3-.7-2.7-1.2-4-1.9-1-.6-1.9-1.2-2.8-1.9-1.3-1.3-2.9-2.2-4.1-3.5zM32.4 195.3c.7-.5 1.4-1.1 2.2-1.5-.1.3-.3.5-.5.7-.8.6-1.5 1.3-2.3 1.9-1 .8-1.9 1.6-3 2.4-1.3 1-2.5 2.1-3.9 3-1.4 1-2.7 2.1-4.1 3.1-2.6 1.8-5.4 3.2-8.2 4.5-.7.3-1.3.6-2 .8v-.3c3.5-1.8 7-3.6 10.2-5.9 1.3-.9 2.6-2 3.9-2.9.8-.5 1.5-1.2 2.3-1.8 1-.8 2-1.4 2.9-2.2.8-.6 1.6-1.2 2.5-1.8z"/><path class="st28" d="M33.8 198.3c.2-.3.4-.7.7-1 0 .5-.3.9-.5 1.4-1.2 2-2.7 3.9-4.1 5.8-1 1.3-2 2.5-3.1 3.7-1.1 1.3-2.4 2.6-3.7 3.7-1.4 1.2-2.7 2.3-4.3 3.3-1.6 1.1-3.3 2-4.7 3.3-1.1.9-2.1 1.9-3 2.9-.1.2-.4.3-.6.3 1-1.4 2.2-2.6 3.4-3.7 1.3-1.2 2.9-2.2 4.4-3.1 1.8-1.1 3.4-2.5 4.9-3.8 1.3-1.2 2.6-2.5 3.7-3.8 1.1-1.3 2.2-2.5 3.1-3.9 1.4-1.8 2.7-3.4 3.8-5.1z"/><path class="st10" d="M38.5 198.5c-.2-.2-.3-.4-.3-.7.8.3 1.2 1 1.7 1.6 1.3 1.5 2.9 2.7 4.2 4.2 1.2 1.4 2.5 2.8 3.9 4 1.4 1.1 2.9 2.2 4.3 3.2.2.1.4.3.3.5-.2 0-.3-.1-.4-.2-1.7-1.1-3.3-2.2-4.9-3.4-1.4-1.1-2.6-2.5-3.8-3.9-1-1.2-2.3-2.2-3.3-3.4-.7-.4-1.2-1.2-1.7-1.9zM23.4 217.2c.4-.4.7-.9 1.3-1.1-.3.8-1 1.4-1.5 2.2-1.1 1.5-2.3 3-3.4 4.6-2.5 3.1-5.8 5.4-8.7 8.1-.5.4-.9 1-1.5 1.3 0-.2 0-.4.1-.5 1.1-1.3 2.3-2.4 3.5-3.5 1.7-1.5 3.4-3.1 4.9-4.7 1-1.1 1.8-2.3 2.8-3.5.9-.9 1.6-2 2.5-2.9z"/><path class="st28" d="M69.9 232.8c.1.1.3.1.3.3.1.7.1 1.4 0 2.2-.2 2.3-.7 4.5-1.6 6.6-1.4 3.5-2.9 6.9-4 10.5-.2.5-.2 1-.6 1.3.2-.8.4-1.7.7-2.5.5-1.6 1-3.2 1.6-4.7.7-2 1.5-4 2.2-6 .6-1.7 1-3.6 1.2-5.4 0-.7.1-1.5.2-2.3zM14.2 237.9c.1-.2.3-.2.5-.3-.3.8-.6 1.6-1.1 2.4-1.1 1.6-2.5 3-3.7 4.4-1.4 1.6-2.8 3.1-4 4.9-.3.4-.4.8-.8 1.1 0-.6.3-1 .6-1.5 1.1-1.6 2.3-3.2 3.5-4.6 1.3-1.6 2.8-3 4-4.7.4-.5.6-1.1 1-1.7z"/><path class="st10" d="M13.3 243.2c.1-.3.3-.7.7-.8.1.6-.2 1.2-.4 1.8-.6 1.8-1.5 3.6-2.4 5.2-.9 1.7-1.9 3.3-2.8 5-.3.5-.6 1.1-1.1 1.5 0-.1-.1-.2-.1-.2.7-1.2 1.3-2.4 1.9-3.6.9-1.8 1.9-3.6 2.8-5.4.5-1.1.9-2.3 1.4-3.5z"/><path d="M-9.8 245.7c.2.1.3.2.3.4.6 2 .8 4 1.5 6 .7 1.6 1.6 3.2 2.3 4.8 1.3 2.9 2.2 5.9 3.5 8.8.1.3.3.5.1.8-.3-.3-.4-.6-.6-1-.9-1.9-1.7-3.9-2.5-5.8-.5-1.1-1-2.3-1.5-3.4s-1-2.1-1.5-3.2c-.7-1.5-.9-3.1-1.2-4.8-.1-.8-.4-1.7-.4-2.6z" style="fill:#c4688b"/><path class="st28" d="M47.8 250.8c0-.1.1-.2.1-.2.3.2.6.4.7.7.4 1 .7 2 1.1 3 .6 1.4 1.3 2.7 2.3 3.8 1 1.1 2.1 2.3 3 3.6.3.4.6.9.7 1.4-.4 0-.5-.4-.7-.6-.9-1.3-2.1-2.3-3.2-3.4-1.4-1.3-2.3-3-3-4.8-.3-1.3-.5-2.5-1-3.5zM69.1 257.3c.2-.7.2-1.4.5-2.1.2.6.1 1.3.1 1.9-.2 1.8-.7 3.6-1.4 5.3-.7 1.8-1.5 3.6-2.2 5.3-.2.5-.4 1-.7 1.5-.1.2-.3.2-.4.3.1-.6.4-1.1.6-1.6.7-1.7 1.2-3.5 1.9-5.2.6-1.8 1.3-3.6 1.6-5.4zM48 257.6c-.2-.6-.4-1.3-.3-1.9.5.7.7 1.5 1.1 2.2.6 1.5 1.3 3 2.1 4.4.8 1.5 1.6 2.9 2.4 4.4.1.2.2.4.2.6-.2 0-.4-.1-.5-.3-2.2-2.9-3.9-6-5-9.4zM13.2 267.9c.7-2 1.1-4 1.4-6.1.1 1.1 0 2.1-.2 3.2-.1.9-.3 1.7-.6 2.6-.4 1.2-.8 2.3-1.3 3.4-1 2.1-1.8 4.3-2.5 6.5h-.3c.6-2.4 1.4-4.9 2.5-7.1.5-.8.7-1.7 1-2.5zM70.1 262.9c.1-.2.2-.3.3-.4 0 .8-.2 1.6-.4 2.3-.6 1.6-1.2 3.2-2 4.7-.7 1.2-1.4 2.4-2 3.6-.3.5-.5 1.1-1.1 1.3.1-.3.4-.6.5-.9.6-1.3 1.2-2.7 1.9-3.9 1.1-2.1 2.1-4.4 2.8-6.7zM-5.1 274.7c.6 1 .9 2.1 1.2 3.2.4 1.2.8 2.4 1.5 3.5.9 1.6 2 3.2 2.9 4.8.2.3.4.6.3 1-.3-.4-.6-.9-.9-1.3l-2.4-3.6c-1.1-1.7-1.7-3.7-2.2-5.6-.1-.7-.4-1.3-.4-2zM49.6 282c.5.8.9 1.6 1.4 2.4.3.4.5.8.7 1.2.8 1.7 2.1 3 3.2 4.5.2.3.5.6.4 1-1.1-1.3-2.4-2.4-3.3-3.9-.5-.7-.8-1.6-1.3-2.4-.3-.4-.5-.9-.7-1.4-.1-.4-.4-.9-.4-1.4zM66.4 283.4h.2c-.1.9-.5 1.8-.8 2.7-.5 1.4-1.4 2.7-2.3 3.9-.2.3-.5.5-.7.8-.1 0-.2 0-.2-.1 1.2-1.5 2.2-3.2 2.8-5 .3-.8.6-1.6 1-2.3zM-4.3 284.3c.2.3.3.6.6.8.6.6.7 1.4 1.2 2.1.7 1.1 1.4 2.2 2.2 3.2l.9 1.2c-.5-.1-.7-.5-1-.8-1.2-1.5-2.5-3-3.2-4.8-.3-.6-.9-1-.7-1.7zM13.8 291.1c.6-.5 1.3-1 1.8-1.6-.4.9-1 1.8-1.9 2.3-1.2.7-2.5 1.2-3.7 1.9-1 .5-2.1 1-3.3 1.2-.7.2-1.5.5-2.2.3.1-.4.6-.4.9-.5 1-.3 2.1-.6 3-1 1-.4 2-1 3-1.4.8-.3 1.7-.7 2.4-1.2zM13 297.5c1.3-.7 2.6-1.5 3.9-2.3 0 .5-.6.8-.9 1.1-1.1.7-2.2 1.5-3.5 1.7 0-.3.2-.4.5-.5zM63.7 296.7c1.1-.6 2.3-.9 3.5-1.3v.2c-1.1.5-2.2 1-3.4 1.2 0 .1-.1 0-.1-.1z"/><path d="M49.8 297.4c.6-.1 1.1.2 1.7.2.8.1 1.7.1 2.5 0-.2.2-.4.3-.6.3-1.2.2-2.5.2-3.6-.2v-.3z" style="fill:#c5688b"/><path d="M-2.8 299.9c.7 0 1.3.1 2 .2.8.1 1.7.1 2.5.1v.2c-1.5 0-3 .1-4.5-.2v-.3z" style="fill:#c5698b"/></g></svg>