<svg version="1.1" id="Layer_1" xmlns="http://www.w3.org/2000/svg" xmlns:xlink="http://www.w3.org/1999/xlink" x="0" y="0" viewBox="0 0 86 86" style="enable-background:new 0 0 86 86" xml:space="preserve"><style>.st2{fill:#8269b2}.st3{fill:#f9f8dc}.st5{fill:#d3826c}.st6{fill:#1b4e61}.st7{fill:#3367db}.st8{fill:#e1ddbd}.st10{fill:#5c478e}.st11{fill:#143f4e}.st13{fill:#e188a8}.st14{fill:#f4a187}.st15{fill:#e97951}.st16{fill:#c4603d}.st17{opacity:.49;fill:#c76847;enable-background:new}.st18{fill:#151c2c}.st19{opacity:.26;fill:#c76847;enable-background:new}.st21{fill:#fc9dc2}.st23{fill:#c56543}.st24{fill:#102f3b}.st26{fill:#102f3a}.st30{fill:#aea079}.st35{fill:#afa079}.st36{fill:#ab3e3b}.st37{fill:#ab3e3a}</style><defs><circle id="SVGID_1_" cx="43" cy="43" r="43"/></defs><clipPath id="SVGID_2_"><use xlink:href="#SVGID_1_" style="overflow:visible"/></clipPath><path style="clip-path:url(#SVGID_2_);fill:#d7c7ff" d="M0 0h86v86H0z"/><defs><circle id="SVGID_3_" cx="43" cy="43" r="43"/></defs><clipPath id="SVGID_4_"><use xlink:href="#SVGID_3_" style="overflow:visible"/></clipPath><g style="clip-path:url(#SVGID_4_)"><path class="st2" d="M50.5 18c2-.2 4.1-.2 6 .3 1.1.3 2.3.8 3.2 1.5.7.5 1.4 1.1 1.8 2 .8.1 1.7.3 2.4.7 1.5.9 2.8 2 3.7 3.5 1 1.7 2 3.5 2.5 5.5.2 1.1.5 2.2.5 3.3.1 1.5.2 3 .2 4.5-.1 1.7-.3 3.4-.8 5-.4 1.3-.9 2.6-1.4 3.9-.6 2-1.3 4.1-1.3 6.3 0 1 .4 2.1 1.1 2.8 1 1 2.5 1.4 3.6 2.4 1.5 1.1 2.9 2.6 2.9 4.5-.1.7-.2 1.4-.5 2-.4 1-1.1 1.9-1.4 3-.4 1-.2 2.1.3 3.1.6 1.1 1.2 2.2 1.6 3.4.1.7-.2 1.4-.5 2.1-.3.6-.9.9-1.5 1.2-.5.2-1 .3-1.5.4-.5-.1-1.1-.3-1.6-.6-.6-.4-1.2-.7-1.7-1.2-.7-.8-1.5-1.5-2.1-2.4-.7-1-1.4-2.1-1.8-3.2-.7-1.6-1.1-3.3-1.3-5-.1.4-.2.7-.2 1.1 0 1.9 0 3.8.4 5.6.2.9.5 1.8.7 2.7.2.8.3 1.6.7 2.3.7 1.3 1.6 2.5 2.7 3.5.3.3.7.6 1 1 .1.1.2.4 0 .5-.6.3-1.2.3-1.8.3-1-.1-1.8-.5-2.7-1-1-.5-1.8-1.2-2.6-2-.5-.5-1-1-1.4-1.6-.3-.6-.7-1.1-1-1.7-.5-1-.9-2-1.2-3.1-.8-2.1-1.4-4.2-1.6-6.4 0-.3-.1-.6-.2-1 0 .7-.1 1.3-.1 2-.1 2.3.1 4.6.6 6.8.2.8.5 1.7.7 2.5.5 2 1.5 3.9 2.9 5.4.4 1.1 1.3 1.9 2.1 2.8.3.3.4.7.3 1.1-.1.3-.4.4-.7.5-1.8.2-3.6-.4-5.1-1.4-2.9-1.8-5.2-4.6-6.2-7.8-.4-1.1-.7-2.3-.9-3.5-.2-1.5-.3-3-.1-4.5.1-1 .3-2 .6-2.9.6-.1.9-.7 1.3-1 .6-.5 1.2-1.1 1.8-1.6.9-.7 1.9-1.4 2.8-2.3 1.4-1.2 2.7-2.5 3.8-3.9 1-1.2 1.8-2.7 2.6-4.1.6-1 1.1-2.1 1.5-3.2.1-.4.5-.5.9-.7 1.7-.8 3.1-2.3 3.7-4 .3-.8.8-1.5.7-2.4-.4.7-.7 1.5-1.2 2.2-.2.2-.6.3-.8.5-.5.4-.9.8-1.6 1-.5.1-1.1.2-1.6.3-.1 0-.2 0-.3.2-.3 1.3-.9 2.4-1.5 3.5-.5 1.1-1.2 2.1-1.8 3.1-.3.5-.8 1-1.2 1.5s-.8 1.1-1.3 1.4c-.7.4-1.3.9-2 1.3-.4.3-.9.3-1.4.5-.6.2-1.2.6-1.9.8.9-1.7 1.7-3.3 2.7-4.9-2.6-.5-5.2-.7-7.8-.9-2.9-.3-5.8-.4-8.8-.4-.6 0-1.2-.1-1.9 0-.1.2-.1.5-.1.7-.2-.2-.5-.4-.6-.7-.2-.8-.7-1.6-1-2.4-.2-.7-.6-1.5-.7-2.2-.1-.6-.1-1.1-.1-1.7 0-.5-.3-1.1-.2-1.6.1-.8.2-1.6.4-2.4.1-.2 0-.5-.2-.6-.2 0-.4.1-.6.2-.1 0-.2-.1-.3-.1 0-.3.1-.7 0-1-.2-.3-.4-.5-.7-.8-.5-.5-.7-1.2-1.3-1.5.1-1.1.6-2 .7-3.1-.7.9-1 2.1-1.2 3.2-.3 1.1-.4 2.3-.1 3.5.1.3.2.6.2.9-.1.4-.4.7-.6 1-.7 1.1-1.4 2.3-1.8 3.5-.3.9-.7 1.8-1.1 2.8-.5 1.3-.8 2.6-1.3 3.9l-.3.9c.9-1.4 1.3-3 2.1-4.4 1.2-2.1 2.9-4 4-6.2.2.2.4.3.5.5.1.3.1.6 0 .9-.1 1.1-.1 2.3-.1 3.4s.2 2.2.6 3.2c.4 1.1.7 2.2 1.1 3.2.3.8.6 1.7.8 2.6.2.7.3 1.4.2 2.1-.3 1.7-.8 3.4-1.5 5-1 1.9-2 3.7-3.5 5.2-.9.9-1.8 1.8-2.9 2.3-.4.2-.8 0-1.2-.1.3-1.3 1.3-2.1 2-3.1 1-1.6 1.7-3.2 2.4-4.9.7-1.8 1.1-3.6 1.4-5.5h-.3c-.4 1-.9 1.9-1.4 2.8l-1.5 2.7c-.5.9-1 1.7-1.6 2.5-.5.6-.9 1.2-1.3 1.8-1 1.3-2 2.6-3.3 3.6-.4 0-.9-.2-1.3-.3.3-.5.7-1 1-1.6 1.1-1.4 2.5-2.7 3.4-4.3l-.6.6c-1.1 1.3-2.3 2.4-3.4 3.6-.4.4-.9.7-1.4.9-.4-.3-.8-.7-1.3-.8-.1-.1-.2-.3-.3-.4-.1-.2-.2-.3-.2-.5.1-.2.3-.3.4-.4 1.3-.9 2.3-2.1 3.4-3.2.6-.8 1.2-1.6 1.7-2.4s.8-1.6 1.3-2.4c.5-1 1.3-1.7 1.9-2.6 1.1-1.6 1.9-3.3 2.7-5.1.3-.7.7-1.4.6-2.2-.5 1.1-1 2.2-1.6 3.2-.9 1.4-1.9 2.7-3 4-.8.9-1.6 1.8-2.5 2.5-.8.8-1.7 1.4-2.6 2-1 .1-2 .1-2.9 0-.1-.1-.2-.2-.3-.2.2-.5.5-.8.8-1.3 1-1.6 2-3.2 2.6-5 .3-.9.6-1.9.8-2.9.5-.5 1-.9 1.5-1.5 1.2-1.5 2.5-3 3.3-4.8.2-.5.5-.9.6-1.4-.4.7-.9 1.3-1.3 2-1.3 1.8-2.7 3.6-4.6 4.8-.9.6-1.9 1-2.8 1.5-.6.3-1.3.4-2 .1-.1 0-.1-.1-.2-.1.3-.5.8-.9 1.3-1.3 1.2-1.1 2.6-2 3.8-3.1 1.4-1.3 2.7-2.8 3.8-4.4 1.2-1.8 2-3.9 2.9-5.9.8-1.9 1.7-3.8 2.6-5.6.9-2 2-3.9 3.2-5.8 1-1.5 1.9-3.1 3-4.4 1-1.3 2.2-2.5 3.5-3.6 3.1-2.7 6.8-4.5 10.6-4.9z"/><path class="st3" d="M45.9 30.2c1 0 2.1-.2 3.1-.1-1.7.1-3.4 0-5.1.2l-1.8.3c1.2-.5 2.5-.4 3.8-.4z"/><path d="M39 31.6c.1-.1.3-.1.4-.1.1.3-.6.4-.4.1z" style="fill:#fff"/><path class="st5" d="M52.3 61.3c-.8.3-1.7.4-2.4.7-1 .4-2.1.2-3.2.2-1 0-1.8-.3-2.7-.6-.8-.2-1.6-.6-2.4-1-.4-.2-.7-.5-1-.7-.5-.4-1-.7-1.5-1-.7-.6-1.4-1.3-1.9-2-.2-.3-.4-.5-.7-.8v-.3c-.2-.2-.5-.4-.6-.7 0-.1 0-.1-.1-.2.2 1.3.4 2.6.5 3.9.9.8 2 1.5 3 2.2 2.7 1.6 5.8 2.2 8.9 2.6.9.1 1.9.3 2.8 0 .5-.8.9-1.6 1.3-2.3.1 0 0 0 0 0z"/><path class="st6" d="M36.6 55c.6-.1 1.2 0 1.9 0 2.9 0 5.9.1 8.8.4 2.6.2 5.2.4 7.8.9-.9 1.6-1.8 3.3-2.7 4.9-.8.3-1.7.4-2.4.7-1 .4-2.1.2-3.2.2-1 0-1.8-.3-2.7-.6-.8-.2-1.6-.6-2.4-1-.4-.2-.7-.5-1-.7-.5-.4-1-.7-1.5-1-.7-.6-1.4-1.3-1.9-2-.2-.3-.4-.5-.7-.8v-.3c-.1-.2-.1-.4 0-.7z"/><path class="st7" d="M20.5 56.8c.4-.1.9-.3 1.3-.6-.3 1-.5 1.9-.8 2.9-.9.4-1.8-.1-2.7-.3-.8-.2-1.6-.6-2-1.4.1 0 .2-.1.3-.2.5.1.9.2 1.4.2.9 0 1.7-.3 2.5-.6z"/><path class="st8" d="m16.1 56.7.1.1c.1 0 .1.1.2.1 0 .1.1.2.1.3-.1 0-.2.1-.3.2-.1-.3-.1-.5-.1-.7z"/><path d="M16.2 57.3c.1 0 .2-.1.3-.2l.1.1c-.1 0-.2.1-.3.2.4.8 1.2 1.1 2 1.4.9.2 1.8.7 2.7.3-.5 1.8-1.6 3.4-2.6 5-.3.4-.6.8-.8 1.3.1.1.2.2.3.2h-.4c.1.2.1.4.3.6 1 1 2.5 1.5 3.9 1.4.5 0 1-.1 1.3-.4s.5-.6.8-.9c-.5.9-1.1 1.7-1.7 2.4-1 1.2-2.1 2.3-3.4 3.2-.2.1-.3.2-.4.4 0 .2.1.4.2.5-.1.2-.3.3-.3.5 0 .7 0 1.4.3 2.1.1.4.4.6.8.8.8.4 1.5.8 2.4 1.1.2.1.5.1.7 0 .6-.2 1.1-.6 1.6-1 .1.6.2 1.2.7 1.6.7.7 1.7.7 2.6.4.8-.3 1.6-.7 2.3-1.3 1-.7 1.8-1.6 2.6-2.4 1.1-1.1 1.9-2.4 2.7-3.7.8-1.2 1.4-2.5 2.1-3.8.4-.7.6-1.4 1-2.1 1.4.9 2.9 1.6 4.5 2 1.7.4 3.4.8 5.1.8 0 .8 0 1.6-.1 2.4-.3 2.3-.2 4.6.6 6.8.4 1 .6 2 1 3 .9 2.5 2.2 4.9 4.2 6.7.7.5 1.3 1.2 2 1.6 1.1.6 2.2 1.2 3.4 1.1.9 0 1.6-.4 2.3-.8v-.2c.3-.1.6-.2.7-.5.1-.4 0-.8-.3-1.1-.7-.9-1.7-1.7-2.1-2.8-.1-.6-.2-1.1-.2-1.7.6.5 1.2 1 1.9 1.4 1.2.8 2.8 1 4.2.7.4-.1.8-.1 1.2-.2-.1 0-.2-.1-.4-.1.6 0 1.3-.1 1.8-.3.2-.1.1-.4 0-.5-.3-.4-.7-.7-1-1-1.1-1-2-2.2-2.7-3.5.6.4 1.2.8 1.9 1.1.7.3 1.4.5 2.2.5 1 0 2 0 2.9-.4.5-.2 1.2-.4 1.5-1 .6-.3 1.2-.6 1.5-1.2.3-.7.6-1.4.5-2.1 0-.9-.3-1.8-.4-2.6-.1-.7-.1-1.5-.1-2.2.5.5 1.1.8 1.6 1.3 1.2 1 2.3 2.1 3.2 3.3.5.8 1.2 1.5 1.7 2.3.7 1 1.4 2 1.9 3.1.8 1.4 1.4 2.9 2 4.5.4 1.2 1 2.4 1.4 3.6.3 1 .6 2 1.1 3 .4.8.9 1.6 1.3 2.4.5 1 1 2 1.4 3.1.7 2.1 1 4.2 1.6 6.3.2.8.5 1.6.5 2.4 0 .4.1.8.1 1.2-.1.3-.1.5-.2.8l-.6-1.2c-.3-.5-.8-.6-1.3-.9 0 .5 0 1 .2 1.5.6 1.3.9 2.8 1.3 4.3.2.7 0 1.5-.2 2.2-.1.7-.3 1.5-.5 2.2-.3-.8-.4-1.7-.7-2.5-.2-.7-.6-1.3-.9-2-.1-.4-.6-.7-1-.8-.3-.1-.6.1-.6.4-.1.9.2 1.7.3 2.5.5 2.5.9 5.1.5 7.7-.1.6-.4 1.2-.6 1.8.1-1.9 0-3.9-.9-5.6-.5-1.2-1.3-2.3-2.3-3.1-.8-.7-1.9-1-3-1.3-1-.3-2-.2-3-.1.3-.7.8-1.3 1.1-1.9.6-1.1 1-2.3 1.5-3.4.4-.7 1-1.3 1.5-1.8.9-.8 1.9-1.4 2.9-2.2.4-.3.8-.6 1.3-.8.4-.2.9-.2 1.3-.4 0-.2-.2-.4-.4-.4-1.8.1-3.7.3-5.4.9.2-.8.6-1.6.8-2.3.5-1.4.8-2.9 1-4.3.1-1.2.3-2.5 0-3.8-.2.1-.4.2-.4.5-.1 1.1-.4 2.2-.6 3.3-.1-.8 0-1.7-.1-2.6s-.2-1.9-.5-2.8c-.2-.7-.5-1.4-.6-2.2 0-.6-.3-1.2-.3-1.9 0-.4-.1-.7-.2-1-.3.6-.2 1.4-.2 2 0 2-.6 4-1 6-.5 2.2-.9 4.5-1.5 6.7-.5 2.2-1.2 4.3-1.9 6.4-.3.9-.8 1.8-1.1 2.7-.9 2.1-2.3 4-3.7 5.8-1.1 1.3-2.1 2.6-3.3 3.7-1.6 1.3-3.2 2.5-4.8 3.6-1.4 1-2.8 2-4.3 2.8l-3.3 1.8c-.6.3-1.1.8-1.7 1-.4.2-.9.3-1.1.6v.2c.3.1.7.1 1 .1.7 0 1.4-.3 2.1-.5 2.2-.7 4.4-1.6 6.5-2.6l1.2-.6c-.3.9-.9 1.7-1.3 2.5-.5 1.1-1.1 2.3-1.5 3.5-.2.7-.5 1.3-.7 1.9-.3 1.6-.3 3.3-.4 5v1c.1-.3.1-.5.2-.8.1.8 0 1.6.1 2.4.1 1 .1 1.9.1 2.9s-.5 1.9-.9 2.8c-.6 1.3-1.1 2.6-1.8 3.8-1.1 1.8-2.2 3.7-3.4 5.4-.9 1.2-1.8 2.4-2.8 3.6-2 2.5-4 4.9-6.3 7.2-.8.7-1.5 1.6-2.2 2.4-.3.3-.5.6-.6.9.6-.1 1.1-.6 1.6-.9 1.6-1 3-2.4 4.4-3.6 1.2-1.1 2.5-2.2 3.8-3.2 1.7-1.6 3.4-3.3 5-5.1 1-1.1 2-2.2 2.9-3.4.8-1 1.6-2.1 2.5-3.1.4-.4 1-.4 1.5-.4.8 0 1.7-.1 2.4-.4 1.5-.7 2.6-2 3.3-3.4.5-1 .9-2 1.8-2.7.4-.4.9-.7 1.3-1.1.6-.6.9-1.3 1.5-1.8-.5 2-1.1 4.1-1.5 6.1-.2 1.2-.8 2.3-1.1 3.5-.3 1.1-.9 2.1-1.2 3.1-.4 1.1-1 2.2-1.6 3.3-.3.7-.7 1.3-1.2 1.9-1.2 1.8-2.6 3.4-4.2 4.9-.6.6-1.3 1.2-2 1.8-1.5 1.3-3 2.5-4.6 3.6-1.5 1-2.9 2.1-4.4 3-1.2.7-2.4 1.4-3.5 2.2-.7.5-1.3 1.2-2 1.8-.6.5-1.1 1.1-1.7 1.6-.3.3-.6.5-.9.8.4-.1.7-.3 1.1-.5.4-.3.9-.2 1.4-.4.6-.2 1.2-.4 1.7-.7l4.2-2.1c.9-.5 1.8-1.1 2.8-1.6 2.4-1.4 5-2.8 7.1-4.7.3-.3.7-.4 1.1-.6-1.3 1.2-2.8 2.4-4.3 3.3-1.7 1.1-3.5 2.2-5.2 3.2-1.9 1-3.7 2.1-5.8 2.9-2.8 1.2-5.7 1.8-8.6 2.6-1.2.3-2.5.5-3.7.9-2.4.6-4.7 1.5-7.1 2.2-1 .3-2 .7-3 .5-.4 0-.7-.5-1.1-.4-2.3.1-4.6-.1-6.9-.3-.8-.1-1.6-.2-2.3-.3.2 0 .4-.1.5-.1-.2-.2-.4-.4-.7-.5-.6-.3-1.1-.7-1.7-1-.9-.4-1.6-.9-2.5-1.4-.7-.4-1.5-.8-2.2-1.3-.9-.7-1.8-1.4-2.8-2.1-1.1-.9-2.3-1.6-3.4-2.5-.4-.3-.8-.8-1.1-1.2-4.3-4.5-8.2-9.4-12-14.3-.3-.4-.5-.7-.8-1.1.7 0 1.3.1 2 .1 1.1-.1 2.2-.2 3.3-.4 3.7-.9 7.4-2.3 10.6-4.5 1.3-1 2.7-2 3.7-3.4.4-.6 1.2-1 1.3-1.9.2-2.2.1-4.5-.4-6.6-.3-1.1-.7-2.1-1.1-3.2-.4-1-.5-2.1-.5-3.2 0-.7 0-1.3.2-2 .5-1.3.9-2.6.9-3.9 0-1.4-.4-2.8-1-4.1-.2-.5-.5-.8-.9-1.2-.6-.7-1.2-1.5-1.3-2.5.5.5.9 1.1 1.5 1.5 1.2 1.1 2.3 2.2 3.7 3.1 1.6 1 3.3 2.1 5.2 2.8 1 .3 2.1.4 3.1.7.9.2 1.7.5 2.7.3s2-.1 3-.3c.6-.1 1.3-.2 1.9-.5-1.2-.1-2.5-.1-3.7-.3-1.7-.3-3.4-.7-4.9-1.3-1.1-.5-2.3-1-3.4-1.6-1.5-.9-3-1.9-4.1-3.3-.9-1.1-1.8-2.2-2.4-3.5-.5-.8-.9-1.5-1.3-2.3-1-1.8-1.5-3.9-1.4-6-.1-4.4 1.6-8.6 1.6-13.1 0-1.2 0-2.3-.1-3.5 0-1.2-.2-2.3-.4-3.4-.3-1.4-.9-2.6-1.4-3.9-.3-.7-.7-1.4-1.1-2 0 .7.1 1.5.1 2.2 0 1.2 0 2.3.1 3.5.1 3-.1 6.1-.2 9.1-.4-.9-.7-1.7-1.1-2.6-.9-1.8-1.8-3.7-3.1-5.3-.5-.6-1.2-1-1.6-1.6-.2-.3-.5-.6-.9-.5-.3.1-.2.5-.1.7.3.9.7 1.7 1.1 2.6.8 2.1 1.7 4.2 2.6 6.4.7 1.7 1.3 3.5 1.5 5.4.1 1.6.4 3.2.4 4.8-.5-1.5-1.1-2.9-2-4.1-1-1.4-2.1-2.6-3.5-3.5-1-.3-2.1-.5-3.1-.9 0 .2.1.4.1.6.3.1.6.2.8.4.2.1.3.4.4.6.1 0 .2-.1.2-.1l1.2 1.2c.3.3.3.9.6 1.2.6.8 1.1 1.5 1.6 2.3.7 1.1 1.1 2.3 1.5 3.5.4 1 .8 2 1.1 3.1.3.9.5 1.9.7 2.8.2.6.4 1.1.4 1.8 0 .8.2 1.7.3 2.5.2.9.3 1.8.4 2.6.2.8.3 1.7.8 2.4.3.6 1 1 1.1 1.7.2 1.1.5 2.3.4 3.4-.1 1.4-.5 2.7-.3 4.1.5 1.3 1.4 2.6 1.5 4-1 1.5-2.5 2.6-3.9 3.7-1.5 1-3 1.9-4.5 2.7-1.7 1-3.4 1.7-5.2 2.3-1.1.4-2.3.8-3.5 1-1.2.3-2.4.6-3.6.7-.9.1-1.9.1-2.8-.1-.2 0-.2-.2-.3-.4-.1-.5-.2-1-.1-1.5 0-.7.4-1.3.4-2 0-1.7-1-3.4-2.5-4.4-.6-.4-1.4-.7-2.1-.9-.4-.1-.9-.5-.9-1-.1-.9.3-1.8.8-2.6.4-.7.8-1.4 1-2.2.1-.3.2-.6.4-.9 1-1 2.2-1.8 3.4-2.5 1.1-.6 2.3-1 3.4-1.4 1.3-.5 2.7-.9 4-1.5.5-.3 1-.6 1.3-1 .3-.5.1-1.2-.5-1.4-1.2-.3-2.4-.1-3.6.2-2.1.7-4.3 1.5-6.5 1.6-.9.1-1.8.3-2.6.1-.5-.1-1.2-.2-1.6-.6-.7-.7-1.5-1.3-2.3-1.8-.6-.4-1-1.1-1.3-1.8-.6-1.5-.9-3.2-.9-4.9.1-3.5.3-7 .6-10.4.2-2.5.6-5 .9-7.5.1-1 .3-2 .3-3.1 1.3-4 3.4-7.7 5.4-11.5 1.1-2 2.4-3.9 3.7-5.7 2.3-3.3 5-6.3 7.9-9.1 2.5-2.4 5.3-4.5 8.4-6.2 2.2-1.2 4.5-2.1 6.9-2.9 1.9-.6 3.7-1.1 5.5-2 .8-.9 1.8-1.4 2.8-2z" style="fill:#6e8bf4"/><path class="st7" d="M36.2 58.7c.9.9 2 1.6 3.1 2.3 2.7 1.6 5.8 2.2 8.9 2.6 1 .1 1.9.3 2.9 0-.6 1.4-1.3 2.9-1.6 4.5-.3 1-.5 1.9-.6 2.9-.2 1.5-.1 3 .1 4.5.2 1.2.6 2.3.9 3.5 1 3.3 3.3 6 6.2 7.8 1.5 1 3.3 1.6 5.1 1.4v.2c-.7.4-1.5.8-2.3.8-1.2.1-2.4-.5-3.4-1.1-.8-.4-1.4-1-2-1.6-2-1.8-3.3-4.2-4.2-6.7-.4-1-.6-2-1-3-.7-2.2-.9-4.5-.6-6.8.1-.8.2-1.6.1-2.4-1.7 0-3.5-.4-5.1-.8-1.6-.5-3.1-1.1-4.5-2-.4.7-.6 1.4-1 2.1-.7 1.3-1.4 2.6-2.1 3.8-.8 1.3-1.7 2.6-2.7 3.7-.8.8-1.6 1.7-2.6 2.4-.7.5-1.5.9-2.3 1.3-.8.3-1.9.3-2.6-.4-.4-.4-.6-1-.7-1.6-.5.3-1 .7-1.6 1-.2.1-.5.1-.7 0-.8-.3-1.6-.7-2.4-1.1-.3-.1-.6-.4-.8-.8-.3-.7-.3-1.4-.3-2.1 0-.2.2-.4.3-.5.1.1.2.3.3.4.2.5.6.8 1 1.2.2.2.5.4.7.3.7-.3 1.1-.9 1.7-1.4-.3.6-.7 1-1 1.6.4.1.9.3 1.3.3 1.3-1 2.3-2.4 3.3-3.6.5-.6.8-1.2 1.3-1.8-.2.6-.5 1.1-.7 1.7-.2.7-.6 1.4-.8 2.1-.2.4-.5.9-.5 1.4 0 .6.4 1.1.9 1.2.6.2 1.3.1 1.8-.2 1.3-.6 2.3-1.6 3.2-2.6 1.3-1.5 2.1-3.3 3-5 .3-.6.5-1.2.8-1.9.6-1.5.7-3.1 1-4.7 0-.9 0-1.9.2-2.9zM24.2 64.4c.4-.3.7-.7 1.1-.9 0 .1-.1.2-.1.3-.5.8-.8 1.6-1.3 2.4-.3.3-.5.6-.8.9-.4.3-.9.4-1.3.4-1.4.1-2.9-.4-3.9-1.4-.2-.2-.2-.4-.3-.6h.4c1 .1 2 .2 2.9 0 1.2 0 2.3-.4 3.3-1.1z"/><path class="st10" d="M50.4 21.1c.5 0 .9-.1 1.4 0-2.4.7-4.7 1.6-6.7 3-1.7 1-3.2 2.3-4.5 3.7-.4.4-.7 1-1.1 1.4.5-1.7 1.5-3.3 2.9-4.6 1.4-1.4 3.1-2.5 5-3.1.9-.2 2-.3 3-.4zm11.4 1.2c-.1 1-.8 1.8-1.5 2.4-1.6 1.2-3.5 1.8-5.4 2.3-2.1.7-4.3 1.2-6.5 1.4-1.4.1-2.7.3-4.1.6-.9.1-1.7.5-2.5.8s-1.5.7-2.2 1.1c-.3.2-.5.4-.6.7.1-.1.3-.1.4-.1.9-.3 1.7-.7 2.7-1 1.2-.4 2.6-.4 3.9-.4 1 0 2.1-.2 3.1-.1.2 0 .4.1.7.1 1.1-.1 2.3-.2 3.4-.5.9-.1 1.9-.3 2.7-.7 1-.5 2.1-.8 3.1-1.3.7-.3 1.1-.9 1.8-1.2.2.3.3.6.5.9.4.4.8.9 1.1 1.3.4.7.5 1.6.9 2.3v-.7c.5.7.9 1.5.9 2.3.1.6.3 1.2.4 1.9.2 1.2.4 2.4.5 3.5 0 .3.2.5.4.7.1-.1.3 0 .3-.2.3-1.1.1-2.3-.1-3.4-.3-1.3-.6-2.7-1.2-4-.5-1-1.1-1.8-1.5-2.8-.3-.8-.6-1.6-.8-2.4s-.4-1.6-.3-2.4c0-.2 0-.7-.1-1.1zm2.7 4.4c0 .4.1.8.2 1.1.7 1.5 1.8 2.9 2.3 4.5l.6 1.8c.4 1.5.5 3.2.5 4.8.2-.6.2-1.2.3-1.9.1-.8 0-1.5-.1-2.3-.3-1.8-.8-3.7-1.8-5.2-.6-1.1-1.3-2-2-2.8zm-29.7 6.2c-.4.9-.6 1.8-.6 2.8h.1c.1-.3.1-.5.4-.7.4-.3 1-.1 1.5-.1.2-.7.2-1.5.4-2.2.4-1.6.9-3.2 1.6-4.7.2-.4.4-.8.5-1.2-1.8 1.7-2.9 3.9-3.9 6.1zm.1 19.8c-.2-.7-.6-1.5-.7-2.2-.1-.6-.1-1.1-.1-1.7 0-.5-.3-1.1-.2-1.6.1-.8.2-1.6.4-2.4 0-.2 0-.5-.2-.6-.2 0-.4.1-.6.2-.1 0-.2-.1-.3-.1 0-.3.1-.7 0-1-.2-.3-.4-.5-.7-.8-.5-.5-.7-1.2-1.3-1.5.1-1.1.6-2 .7-3.1-.7.9-1 2.1-1.2 3.2-.3 1.1-.4 2.3-.1 3.5.1.3.2.6.2.9-.1.4-.4.7-.6 1-.7 1.1-1.4 2.3-1.8 3.5-.3.9-.7 1.8-1.1 2.8-.5 1.3-.8 2.6-1.3 3.9l-.3.9c.9-1.4 1.3-3 2.1-4.4 1.2-2.1 2.9-4 4-6.2.2.2.4.3.5.5.1.3.1.6 0 .9-.1 1.1-.1 2.3-.1 3.4s.2 2.2.6 3.2c.4 1.1.7 2.2 1.1 3.2.3.8.6 1.7.8 2.6.2.7.3 1.4.2 2.1-.3 1.7-.8 3.4-1.5 5-1 1.9-2 3.7-3.5 5.2-.9.9-1.8 1.7-2.9 2.3-.4.2-.8 0-1.2-.1.3-1.3 1.3-2.1 2-3.1 1-1.5 1.7-3.2 2.4-4.9.7-1.8 1.1-3.6 1.4-5.5h-.3c-.4 1-.9 1.9-1.4 2.8l-1.5 2.7c-.5.9-1 1.7-1.6 2.5-.2.6-.5 1.1-.7 1.7-.3.7-.6 1.4-.8 2.1-.2.4-.5.9-.5 1.4 0 .6.4 1.1.9 1.2.6.2 1.3.1 1.8-.2 1.3-.6 2.3-1.6 3.2-2.6 1.3-1.5 2.1-3.3 3-5 .3-.6.5-1.2.8-1.9.6-1.5.7-3.1 1-4.7.2-1 .2-2 .4-3l.1.1c-.1-1.3-.3-2.6-.5-3.9 0-.9-.4-1.6-.6-2.3zm33.8-7.8c-.4.7-.7 1.5-1.2 2.2-.2.2-.6.3-.8.5-.5.4-.9.9-1.6 1-.5.1-1.1.2-1.6.3-.1 0-.2 0-.3.2-.3 1.3-.9 2.4-1.5 3.5-.5 1.1-1.2 2.1-1.8 3.1-.3.5-.8 1-1.2 1.5s-.8 1.1-1.3 1.4c-.7.4-1.3.8-2 1.3-.4.3-.9.3-1.4.5-.6.2-1.2.6-1.8.8-.5.8-.9 1.6-1.4 2.4-.6 1.4-1.3 2.9-1.6 4.5.6-.1.9-.7 1.3-1 .6-.5 1.2-1.1 1.8-1.6.9-.7 1.9-1.4 2.8-2.3 1.4-1.2 2.7-2.5 3.8-3.9 1-1.3 1.8-2.7 2.6-4.1.6-1 1.1-2.1 1.5-3.2.1-.4.5-.5.9-.7 1.7-.8 3.1-2.3 3.7-4 .7-.8 1.1-1.6 1.1-2.4zm-41.6 3.6c-.4.7-.9 1.3-1.3 2-1.3 1.8-2.7 3.6-4.6 4.8-.9.6-1.9 1-2.8 1.5-.6.3-1.3.4-2 .1 0 .1.1.2.1.3l.1.1c.5.1.9.2 1.4.2.9-.1 1.7-.4 2.5-.7.4-.1.9-.3 1.3-.6.5-.5 1-.9 1.5-1.5 1.2-1.5 2.5-3 3.3-4.8.2-.4.4-.9.5-1.4zm3.4 5.4c-.5 1.1-1 2.2-1.6 3.2-.9 1.4-1.9 2.7-3 4-.8.9-1.6 1.8-2.5 2.5-.8.8-1.7 1.4-2.6 2 1.2-.1 2.4-.6 3.4-1.2.4-.3.7-.7 1.1-.9 0 .1-.1.2-.1.3.5-1 1.3-1.7 1.9-2.6 1.1-1.6 1.9-3.3 2.7-5.1.4-.7.8-1.4.7-2.2zm33.8 3.6c-.3 2.3-.1 4.7 1.2 6.7.9 1.4 2.5 2.2 3.7 3.3.5.5.9 1.1 1.3 1.8.3.6.7 1.3.8 2 .1.7.2 1.4.2 2.1.1-.6.1-1.2.2-1.8.1-.8.3-1.6.3-2.4.1-.9 0-1.8-.3-2.7-.3-.5-.7-1-1.2-1.5-.7-.7-1.7-1.1-2.4-1.7-1.4-.9-2.4-2.4-2.8-4-.2-.9-.4-1.7-.5-2.6 0-.5 0-1-.1-1.6-.3.7-.3 1.6-.4 2.4zm10.2 8.6c-.4 1-1.1 1.9-1.4 3-.4 1-.2 2.1.3 3.1.6 1.1 1.2 2.2 1.6 3.4 0-.9-.3-1.8-.4-2.6-.1-.7-.1-1.5-.1-2.2 0-.9.3-1.8.4-2.7.4-1.2.4-2.5.2-3.8-.3.5-.3 1.2-.6 1.8zm-11.7.7c-.1.4-.2.7-.2 1.1 0 1.9 0 3.8.4 5.6.2.9.5 1.8.7 2.7v-.3c1.2 1.1 2.4 2.2 4 2.7 1.2.5 2.5.7 3.8.5-.5-.1-1.1-.3-1.6-.6-.6-.4-1.2-.7-1.7-1.2-.7-.8-1.5-1.5-2.1-2.4-.7-1-1.4-2.1-1.8-3.2-.8-1.5-1.2-3.1-1.5-4.9zm-7.3.4c0 .7-.1 1.3-.1 2-.1 2.3.1 4.6.6 6.8.2.8.5 1.7.7 2.5.5 2 1.5 3.9 2.9 5.4-.1-.6-.2-1.1-.2-1.7-.1-.9 0-1.9.1-2.8-.3-.6-.7-1.1-1-1.7-.5-1-.9-2-1.2-3.1-.8-2.1-1.4-4.2-1.6-6.4 0-.4-.1-.7-.2-1zM25 69.5c-1.1 1.3-2.3 2.4-3.4 3.6-.4.4-.9.7-1.4.9-.4-.3-.8-.7-1.3-.8.2.5.6.8 1 1.2.2.2.5.4.7.3.7-.3 1.1-.9 1.7-1.4 1.1-1.4 2.5-2.7 3.4-4.3-.3.1-.5.3-.7.5z"/><path class="st7" d="M63.6 76c1.2 1.1 2.4 2.2 4 2.7 1.2.5 2.5.7 3.8.5.5-.1 1-.2 1.5-.4-.4.5-1 .7-1.5 1-.9.4-2 .4-2.9.4-.8 0-1.5-.2-2.2-.5s-1.2-.7-1.9-1.1c-.3-.7-.5-1.5-.7-2.3 0-.1-.1-.2-.1-.3zM59.3 82.2c-.1-.9 0-1.9.1-2.8.4.6.9 1.1 1.4 1.6.8.7 1.7 1.5 2.6 2 .8.4 1.7.9 2.7 1 .1 0 .2.1.4.1-.4.1-.8.2-1.2.2-1.4.3-2.9.1-4.2-.7-.6-.4-1.2-.9-1.8-1.4z"/><path class="st11" d="M4.7 83.5c.5.6.8 1.3 1.1 2 .5 1.3 1.1 2.5 1.4 3.9.3 1.1.4 2.3.4 3.4.1 1.2.1 2.3.1 3.5 0 4.4-1.6 8.6-1.6 13.1 0 2.1.4 4.2 1.4 6 .4.8.8 1.6 1.3 2.3.7 1.2 1.5 2.4 2.4 3.5 1.1 1.4 2.6 2.4 4.1 3.3 1.1.7 2.3 1.1 3.4 1.6 1.6.7 3.3 1.1 4.9 1.3 1.2.2 2.5.2 3.7.3-.6.3-1.2.4-1.9.5-1 .2-2 .2-3 .3-.9.1-1.8-.2-2.7-.3-1-.2-2.1-.4-3.1-.7-1.8-.7-3.5-1.7-5.2-2.8-1.4-.9-2.5-2-3.7-3.1l-1.5-1.5c.2.9.7 1.7 1.3 2.5l.9 1.2c.6 1.3 1 2.7 1 4.1 0 1.4-.4 2.7-.9 3.9-.3.6-.2 1.3-.2 2 0 1.1.2 2.2.5 3.2.4 1.1.8 2.1 1.1 3.2.5 2.2.6 4.4.4 6.6-.1.8-.9 1.2-1.3 1.9-1 1.3-2.3 2.4-3.7 3.4-3.2 2.2-6.8 3.5-10.6 4.5-1.1.3-2.2.4-3.3.4-.7 0-1.3-.1-2-.1.3.4.5.8.8 1.1 3.8 4.9 7.7 9.8 12 14.3.4.4.7.8 1.1 1.2 1.1.9 2.3 1.6 3.4 2.5.9.7 1.8 1.4 2.8 2.1.7.5 1.4.9 2.2 1.3.8.5 1.6 1 2.5 1.4.6.3 1.1.7 1.7 1 .3.1.5.3.7.5-.2 0-.4.1-.5.1-2-.4-4-.8-6-1.4-1.4-.4-2.8-.9-4.1-1.3-.9-.3-1.8-.7-2.7-1.1-1.8-.6-3.6-1.4-5.1-2.5-1.9-1.1-3.7-2.3-5.5-3.5-1-.8-2-1.5-2.9-2.3l-1.8-1.5c-.7-.6-1.3-1.3-2-2-.6-.6-.9-1.3-1.5-2v-.7c-.3-.5-.8-.8-1-1.4-.2-.6-.2-1.2-.2-1.7s0-1.1-.1-1.6c-.1-.7 0-1.4-.1-2.1-.2-1.5-.3-3.1-.5-4.6-.3-1.6-.2-3.2-.9-4.7-.9-.2-1.8-.8-2.4-1.6-.7-.9-.2-2.2-.9-3.2-.6-.9-1.6-1.6-2.6-1.9-.6-.2-1.1-.5-1.5-1-.5-.8-.9-1.8-.9-2.8 0-1.3.7-2.5 1.2-3.6.4-.9.1-2.1-.5-2.9-.7-1.1-2-1.5-2.7-2.6-.2-.5-.3-1-.4-1.5-.2-1.5 0-3 0-4.5 0-1-.1-2.1 0-3.1.2-2.6.4-5.1.9-7.6.1-1 .3-2 .5-3l-.2.1c0-.3.1-.7.1-1 .6-2.7 1.2-5.5 1.8-8.2.3-1.2.6-2.4 1-3.5.1 1-.2 2-.3 3.1-.3 2.5-.7 5-.9 7.5-.3 3.5-.5 6.9-.6 10.4 0 1.7.3 3.3.9 4.9.3.7.7 1.3 1.3 1.8.8.6 1.6 1.2 2.3 1.8.4.4 1 .5 1.6.6.9.2 1.8 0 2.6-.1 2.3-.2 4.4-1 6.5-1.6 1.2-.3 2.4-.5 3.6-.2.6.2.8.9.5 1.4-.3.4-.8.7-1.3 1-1.3.7-2.6 1.1-4 1.5-1.2.4-2.3.8-3.4 1.4-1.3.6-2.4 1.5-3.4 2.5-.2.2-.3.6-.4.9-.2.8-.6 1.5-1 2.2-.5.8-.9 1.7-.8 2.6.1.5.5.8.9 1 .7.2 1.5.5 2.1.9 1.5.9 2.4 2.6 2.5 4.4 0 .7-.3 1.3-.4 2 0 .5 0 1 .1 1.5.1.1.1.3.3.4.9.2 1.9.2 2.8.1 1.2-.2 2.4-.5 3.6-.7s2.3-.6 3.5-1c1.8-.7 3.6-1.4 5.2-2.3 1.5-.9 3.1-1.7 4.5-2.7s3-2.1 3.9-3.7c-.1-1.5-1-2.7-1.5-4-.3-1.4.2-2.7.3-4.1.1-1.2-.2-2.3-.4-3.4-.1-.7-.8-1.1-1.1-1.7-.5-.7-.6-1.6-.8-2.4-.2-.9-.3-1.8-.4-2.6-.1-.8-.3-1.7-.3-2.5 0-.6-.2-1.2-.4-1.8-.3-.9-.5-1.9-.7-2.8-.3-1-.7-2.1-1.1-3.1-.5-1.2-.9-2.4-1.5-3.5-.5-.8-1-1.6-1.6-2.3-.3-.4-.3-.9-.6-1.2l-1.2-1.2c-.1 0-.2.1-.2.1-.1-.2-.2-.5-.4-.6-.3-.1-.5-.3-.8-.4 0-.2-.1-.4-.1-.6 1 .4 2.1.7 3.1.9 1.4.9 2.6 2.1 3.5 3.5.8 1.3 1.5 2.7 2 4.1-.1-1.6-.3-3.2-.4-4.8-.2-1.9-.9-3.6-1.5-5.4-.8-2.1-1.7-4.2-2.6-6.4-.4-.8-.7-1.7-1.1-2.6-.1-.2-.2-.6.1-.7.4-.1.7.3.9.5.4.6 1.1 1 1.6 1.6 1.3 1.6 2.2 3.4 3.1 5.3.4.9.7 1.7 1.1 2.6.2-3 .3-6.1.2-9.1-.1-1.2-.1-2.3-.1-3.5.4-.6.3-1.3.3-2.1zM81.9 86c.1.3.2.7.2 1 0 .6.3 1.2.3 1.9 0 .8.3 1.5.6 2.2.3.9.3 1.8.5 2.8.1.8 0 1.7.1 2.6.3-1.1.5-2.2.6-3.3 0-.3.2-.4.4-.5.3 1.2.1 2.5 0 3.8-.2 1.5-.5 2.9-1 4.3-.2.8-.6 1.5-.8 2.3 1.7-.6 3.6-.8 5.4-.9.2 0 .4.1.4.4-.4.2-.9.2-1.3.4-.5.2-.9.5-1.3.8-1 .7-2 1.3-2.9 2.2-.6.6-1.2 1.1-1.5 1.8-.5 1.1-.9 2.3-1.5 3.4-.4.7-.8 1.3-1.1 1.9 1-.1 2-.2 3 .1 1 .3 2.1.6 3 1.3 1 .9 1.7 2 2.3 3.1.8 1.7 1 3.7.9 5.6.2-.6.5-1.1.6-1.8.3-2.6 0-5.2-.5-7.7-.1-.8-.5-1.7-.3-2.5 0-.3.3-.5.6-.4.4.1.8.4 1 .8.3.7.6 1.3.9 2 .3.8.4 1.7.7 2.5.2-.7.4-1.5.5-2.2s.3-1.5.2-2.2c-.3-1.4-.6-2.9-1.3-4.3-.2-.5-.2-1-.2-1.5.4.3 1 .4 1.3.9.3.4.4.8.6 1.2.1-.3.1-.5.2-.8.2 1.4.6 2.8.5 4.2-.1 1.2-.2 2.4-.4 3.5-.2 1.2-.6 2.3-1 3.5-.4 1.1-.9 2.3-1.5 3.3-.4.7-.6 1.5-1 2.2-.8 1.5-1.9 2.8-3.4 3.6.1-1.2.4-2.4.5-3.6.2-2 .2-4.2-.8-6-.5-.9-1-1.9-1.9-2.5-1.5-.9-3.2-1.3-4.9-1.4-.5.6-.9 1.3-1.4 1.9-.7.9-1.5 1.8-2.3 2.5-.7.7-1.5 1.3-2.3 2-.6.6-1.2 1.1-1.9 1.6-2.4 2.1-4.1 4.8-6 7.4-.4.4-.8.8-1 1.4-.8 1.7-1.4 3.4-1.9 5.2-.3 2 .1 4 .6 5.9.4-1 1.5-1.5 2.4-2.2 1.3-1 2.6-1.9 4-2.8 1-.6 2-1.1 3-1.6.9-.4 1.8-.7 2.7-1 .9-.3 1.8-.4 2.6-.8.7-.3 1.3-.6 2-.7-.1.9-.1 1.9-.2 2.9.1.2.2.4.2.5-.1 0-.2-.1-.2-.1 0 1.2 0 2.5-.2 3.7 0-.2 0-.3-.1-.5-.2.9-.4 1.8-.7 2.7-.4 1.5-.6 3-1.1 4.4-.5 1.8-1.2 3.5-1.8 5.2-.2.6-.6 1.1-.7 1.6-.2 1-.5 1.9-.9 2.8-.1.3-.3.7-.6 1-.4.6-.5 1.3-.9 1.9-.4.9-.9 1.8-1.6 2.4-.7.8-1.1 1.8-1.9 2.5-.6.5-1 1.2-1.5 1.8-.3.4-.7.8-.9 1.2-.4.4-.8.8-1.2 1.1-.4.2-.8.3-1.1.6-2.1 1.9-4.6 3.3-7.1 4.7-1 .5-1.9 1.1-2.8 1.6l-4.2 2.1c-.5.3-1.1.5-1.7.7-.4.2-1 .1-1.4.4-.3.2-.7.4-1.1.5.3-.3.6-.6.9-.8.6-.5 1.2-1 1.7-1.6.7-.6 1.3-1.3 2-1.8 1.1-.8 2.3-1.5 3.5-2.2 1.5-.9 2.9-2 4.4-3 1.6-1.1 3.1-2.4 4.6-3.6.7-.6 1.3-1.1 2-1.8 1.5-1.5 3-3.1 4.2-4.9.5-.6.9-1.2 1.2-1.9.5-1.1 1.1-2.1 1.6-3.3.4-1.1.9-2 1.2-3.1.3-1.2.9-2.3 1.1-3.5.4-2.1.9-4.1 1.5-6.1-.6.5-.9 1.3-1.5 1.8-.4.4-.9.7-1.3 1.1-.8.7-1.3 1.8-1.8 2.7-.7 1.4-1.8 2.7-3.3 3.4-.8.3-1.6.5-2.4.4-.5 0-1.1-.1-1.5.4-.9 1-1.7 2.1-2.5 3.1-.9 1.2-1.9 2.3-2.9 3.4-1.6 1.8-3.2 3.5-5 5.1-1.3 1.1-2.5 2.1-3.8 3.2-1.5 1.2-2.8 2.5-4.4 3.6-.5.3-1 .7-1.6.9l.6-.9c.8-.8 1.4-1.7 2.2-2.4 2.2-2.3 4.3-4.7 6.3-7.2 1-1.2 1.9-2.4 2.8-3.6 1.3-1.7 2.3-3.5 3.4-5.4.7-1.2 1.3-2.5 1.8-3.8.4-.9.9-1.8.9-2.8s0-1.9-.1-2.9c-.1-.8 0-1.6-.1-2.4-.1.3-.1.5-.2.8v-1c.1-1.7.1-3.3.4-5 .1-.7.5-1.3.7-1.9.4-1.2.9-2.3 1.5-3.5.4-.9 1-1.6 1.3-2.5l-1.2.6c-2.1 1.1-4.3 1.9-6.5 2.6-.7.2-1.3.6-2.1.5-.3 0-.7 0-1-.1v-.2c.3-.4.8-.4 1.1-.6.6-.2 1.1-.7 1.7-1l3.3-1.8c1.5-.8 2.9-1.8 4.3-2.8 1.6-1.2 3.3-2.4 4.8-3.6 1.2-1.1 2.2-2.5 3.3-3.7 1.4-1.8 2.8-3.6 3.7-5.8.4-.9.8-1.8 1.1-2.7.7-2.1 1.4-4.3 1.9-6.4.5-2.2 1-4.5 1.5-6.7.4-2 1.1-4 1-6 0-.4-.1-1.2.2-1.8z"/><path class="st6" d="M76.8 115.8c.5-.6.9-1.3 1.4-1.9 1.7.1 3.4.5 4.9 1.4.9.6 1.4 1.6 1.9 2.5 1 1.8 1 4 .8 6-.1 1.2-.4 2.4-.5 3.6-.2.1-.5.2-.7.3-1.1 1.2-2.4 2.3-3.6 3.4-.7.6-1.5 1.1-2.1 1.8-.7.1-1.4.4-2 .7-.9.3-1.8.5-2.6.8-.9.2-1.9.6-2.7 1-1 .5-2 1-3 1.6-1.4.9-2.7 1.8-4 2.8-.9.6-1.9 1.1-2.4 2.2-.5-1.9-.9-3.9-.6-5.9.5-1.8 1.1-3.5 1.9-5.2.2-.5.7-.9 1-1.4 1.9-2.5 3.6-5.3 6-7.4.6-.5 1.3-1.1 1.9-1.6.7-.7 1.6-1.3 2.3-2l2.1-2.7z"/><path class="st11" d="M-.1 128.8c.7-.1 1.4-.1 2.2 0 .3 0 .6.2.6.5s-.2.5-.4.7c-1.3 1-2.8 1.7-4.2 2.4-3 1.4-6.1 2.9-9.3 3.7-.7.2-1.4.2-2.1.4-.6.1-1.1.4-1.7.4-.2-.2-.1-.5-.1-.7-.1-.4.3-.6.6-.8.9-.6 1.9-1.1 2.8-1.7 2.6-1.4 5.3-2.4 7.9-3.6 1-.7 2.3-1.2 3.7-1.3z"/><path class="st8" d="M78.6 136.1c.1 0 .2.1.2.1.1.1.3.3.3.4.1 1.3-.1 2.6-.1 3.9-.2 2.4-.4 4.8-.7 7.1-.2 1.2-.4 2.4-.8 3.5-.3 1.1-.8 2.1-1.3 3.1-.8 1.9-1.8 3.8-2.9 5.6-1.1 1.7-2.1 3.4-3.3 5.1-1.2 1.6-2.5 3.2-3.9 4.7-1.1 1.2-2.5 2.2-3.8 3.2-1.5 1-2.9 2.1-4.4 3.2-1.7 1.2-3.4 2.4-5.3 3.3-1.9.9-3.8 1.7-5.7 2.6-1.7.9-3.5 1.7-5.4 2.1-1.8.4-3.7.7-5.4 1.6-1 .5-2.1 1-3 1.6-.8.5-1.4 1.2-2.2 1.7-1.1.6-2.4.9-3.6 1.2-.7.2-1.4.3-2 .3-1.5.1-3 .1-4.5-.2-1.2-.1-2.3-.3-3.5-.7-1.7-.4-3.3-1-4.8-1.8-.9-.4-1.7-1.1-2.6-1.6-.9-.6-1.8-1.2-2.8-1.6-1-.5-2.1-.9-3.1-1.3-.8-.4-1.6-.9-2.4-1.3-1-.6-2-1.4-3.1-2-2.3-1.4-4.4-2.9-6.5-4.6.2 1.2.7 2.4 1.2 3.6.7 1.7 1.4 3.4 2.3 4.9.2.4.4.7.6 1.1.3.7.9 1.1 1.1 1.8.1.3-.1.7-.4.7-.5.2-1.1 0-1.5-.3-1.3-.8-2.5-1.9-3.6-3.1-1.2-1.4-2.3-2.9-3.3-4.4-.5-.8-.8-1.6-1.2-2.4-.2 1.5-.4 3.1-.5 4.6-.1 1.8.3 3.7 1.3 5.3.5.7 1 1.4 1.7 2.1 1.5 1.4 2.7 3.1 3.5 5 .7 1.7.6 3.6.2 5.4-.2.9-.4 1.8-.8 2.6-.2.4-.3.8-.3 1.2-.1 1.5-.2 3-.1 4.4 0 1 .1 1.9.4 2.9.4 1.3.7 2.6 1 3.9.2 1 .3 2 .7 3 .7 1.6.9 3.3.9 4.9 0 .9.5 1.7.8 2.5.3.7.5 1.5.5 2.2 0 .8.4 1.5.3 2.3-.1 1.2-.8 2.3-1.3 3.4-.4.7-.4 1.6-.6 2.4-.1.8-.2 1.7.2 2.5.7 1.5 2.1 2.6 3.2 3.7.7.6 1.3 1.4 1.7 2.3.4.9.5 1.9.2 2.8-.2.6-.6 1.1-.9 1.6-.2 0-.3.1-.5.1-.2.3-.3.6-.6.8-.3.4-.5.8-.8 1.2h-.2c.4-1.1 1.1-2.2 1-3.4 0-.5 0-1-.1-1.5-.3-1-.6-2-1.2-2.9-1-1.7-2.5-3.1-3.7-4.7-.4-.6-.7-1.2-.7-1.9 0-1.3.1-2.5.7-3.7.3-.8.9-1.7.8-2.6-.1-1.2-.6-2.4-1.3-3.3-.5-.6-1.1-1.2-1.5-1.9-.7-1-1.2-2.1-1.3-3.2-.1-1.1 0-2.3-.1-3.4-.1-.9-.6-1.7-1.1-2.5-1.1-1.9-2.1-3.8-2.6-6-.3-1-.2-2-.2-3 0-1.2.3-2.3.7-3.4.4-1.2 1-2.3 1.2-3.5.2-1 .1-2 .1-3 0-1.9-.9-3.7-1.8-5.4-.6-1.2-1.4-2.3-1.8-3.6-.3-.9-.6-1.9-.7-2.9-.3-2.4-.2-4.8-.2-7.1.1-1.6.1-3.3.2-4.9.2-2.6.7-5.2.7-7.8.5.6.9 1.4 1.5 2 .7.6 1.2 1.4 2 2 .6.5 1.3.9 1.8 1.5.9.8 2 1.6 2.9 2.3 1.8 1.2 3.6 2.4 5.5 3.5 1.5 1.2 3.3 1.9 5.1 2.5.9.4 1.8.8 2.7 1.1 1.4.4 2.7.9 4.1 1.3 2 .6 4 1 6 1.4.8.1 1.6.2 2.3.3 2.3.2 4.6.4 6.9.3.4-.1.7.4 1.1.4 1 .2 2.1-.2 3-.5 2.4-.7 4.7-1.6 7.1-2.2 1.2-.4 2.5-.6 3.7-.9 2.9-.7 5.9-1.4 8.6-2.6 2-.8 3.9-1.9 5.8-2.9 1.8-1 3.5-2.1 5.2-3.2 1.5-1 3-2.1 4.3-3.3.4-.4.8-.7 1.2-1.1 1.2-1.1 2.3-2.4 3.4-3.6 1.1-1.3 2.1-2.7 2.9-4.3.5-1.1 1-2.1 1.6-3.2.8-1.8 1.4-3.7 2.1-5.6.7-2.3 1.4-4.6 1.8-6.9.4-1.1.6-2.3.8-3.5.8-.9.9-2.2.9-3.4z"/><path class="st3" d="M79.1 136.6c.8.9 1.6 1.7 2.2 2.7 1.2 1.5 2.8 2.6 4 4.1.6.8 1.3 1.7 1.6 2.6.2 1 0 2 0 3 0 2.7-.3 5.4-.6 8.1 0 1.5 0 3.1.4 4.6.2.8.4 1.7.4 2.5 0 1.3-.1 2.6-.3 3.9-.3 2.1-.9 4.3-.9 6.5 0 1.3 0 2.6.2 3.9.3 2.3-.5 4.5-1.1 6.6-.3 1.1-.8 2.3-1.1 3.4-.7 2.5-.6 5.2-1.5 7.7-.6 1.7-1.7 3.2-2.3 5-.7 2-1.3 4.1-2 6.1-.7 1.8-1.5 3.7-2.1 5.5-.7 2.4-1.1 4.9-2.3 7.1-.8 1.8-2.1 3.3-3 5-1 1.7-1.9 3.5-2.6 5.4-.3.7-.5 1.5-.8 2.2-.4 1-.7 2.1-1 3.1-.5 1.9-1.6 3.5-2.7 5.1-1 1.3-1.9 2.8-2.4 4.4-.3.9-.4 1.8-.7 2.7-.4 1.8-1.2 3.5-2 5.2-.9 1.8-2 3.6-3.2 5.3-.9 1.3-1.5 2.7-2.3 4-.6 1-.7 2.1-1.1 3.2-.3.9-.7 1.8-1.1 2.7-.7 1.4-1.6 2.8-2.4 4.1-.4.6-.8 1.3-.9 2.1-.1.9-.4 1.7-.6 2.6-.6 2.1-1.7 4-3 5.7-.2.3-.4.6-.6.8-1 .3-1.9.8-2.9 1.1-2.9.9-5.9 1.7-9 1.7-1.4 0-2.8-.1-4.2-.4 0-1.1.4-2.2.6-3.2.4-1.5 1-2.9 1.4-4.4.8-3.3 1.2-6.6 2.3-9.8.6-1.6 1.6-2.9 2.2-4.5.7-1.5 1-3.1 1.1-4.7s-.3-3.2-.1-4.8c.2-1.5.4-3.1 1.1-4.5.5-1.3 1.2-2.5 1.3-3.9.1-1.7-.4-3.5-1.6-4.7-.6-.6-1.3-1.2-1.4-2-.2-.8.1-1.6.4-2.4.7-1.8 1.6-3.5 2.7-5.1.6-.8 1.1-1.7 1.4-2.7.4-1.2.3-2.6 0-3.8-.2-.9-.6-1.8-1.3-2.5-.6-.5-1.3-1.1-1.4-1.9 0-.8.2-1.5.4-2.3.5-2 1.6-3.7 2.5-5.5.6-1.1 1.1-2.2 1.3-3.4.2-1.3.1-2.7.2-4 .1-1.2 0-2.4.4-3.5.2-.7.9-1.2 1.5-1.6 3.2-2.4 6.8-4.2 10.1-6.5 2.2-1.5 4.6-2.6 6.5-4.5.4-.5.8-1 .8-1.7 0-.4-.4-.7-.7-.6-.6.1-1.2.5-1.8.7-3.3 1.8-6.5 3.9-9.8 5.7-1.1.6-2.2 1.2-3.4 1.8-.8.4-1.6.7-2.5.7.4-.8 1.1-1.3 1.7-1.9 1.6-1.4 3.4-2.8 5.1-4.1 1.4-1 2.8-2 4.1-3.2.9-.8 1.7-1.7 2.3-2.8.3-.6.6-1.2.6-1.9 0-.3-.2-.6-.5-.6-.4.1-.7.4-1.1.6-3.4 2.4-6.6 5-10.1 7.3-1.3.8-2.7 1.4-4.2 1.8-.5.1-1 .2-1.5.1-.3-.1-.4-.5-.4-.8-.1-.8-.3-1.7-.1-2.5.1-.3.1-.7-.1-.9-.6.6-.8 1.4-1 2.1-.4 1.3-.7 2.7-1 4-.4 1.7-.7 3.5-.8 5.3-.1 1.3 0 2.6.1 3.8.1 1.9 0 3.9-.2 5.8-.1 1.7-.8 3.3-1.5 4.9-.9 2.6-1.7 5.2-1.8 7.9 0 2.1.2 4.1.5 6.1.2 1.4.2 2.9.2 4.3 0 1.2-.1 2.5-.2 3.7-.1 1.7-.3 3.4-.3 5-.1 2.2-.2 4.4-.4 6.6-.2 2 .3 4 .4 5.9.2 1.3.1 2.7 0 4.1-.1 1-.4 2.1-.7 3.1-.5 1.9-1.4 3.7-1.8 5.6-.5 2.1-1.1 4.2-1 6.3.1 1.8.1 3.7-.7 5.4-.6 1.3-1 2.7-1.1 4.1-.3 1.7-.2 3.5-.4 5.3-.1.5 0 1 .1 1.4.1.3-.2.4-.3.6-1 1-2.3 1.4-3.6 1.9-1.8.5-3.7.7-5.6.8-1.6.2-3.2-.1-4.8-.4-.8-.2-1.7-.3-2.5-.6-.2-.1-.5-.2-.7-.2-.6-1.3-1-2.7-1.5-4-.3-.7-.8-1.4-.8-2.2-.2-1.7-.4-3.4-.9-5-.3-.9-.6-1.9-.7-2.9-.1-1.1-.1-2.1-.2-3.2s-.5-2.3-1.1-3.2c-.5-.8-.9-1.7-1.2-2.6-.7-1.6-.9-3.3-1.3-5-.2-1-.4-2-1-2.8-.4-.7-.9-1.3-1.3-2-.4-.9-.9-1.7-1-2.7-.1-1.4.1-2.8.7-4.1h.2c.3-.4.5-.9.8-1.2.2-.3.4-.5.6-.8.2 0 .3-.1.5-.1.3-.6.6-1.1.9-1.6.3-.9.2-1.9-.2-2.8-.4-.9-1-1.6-1.7-2.3-1.2-1.1-2.6-2.1-3.2-3.7-.4-.8-.3-1.6-.2-2.5.1-.8.1-1.7.6-2.4.5-1.1 1.2-2.2 1.3-3.4.1-.8-.3-1.5-.3-2.3s-.2-1.5-.5-2.2c-.3-.8-.8-1.6-.8-2.5-.1-1.7-.3-3.4-.9-4.9-.4-1-.5-2-.7-3-.3-1.3-.7-2.6-1-3.9-.3-.9-.3-1.9-.4-2.9 0-1.5 0-3 .1-4.4 0-.4.2-.8.3-1.2.4-.8.6-1.7.8-2.6.4-1.8.5-3.7-.2-5.4-.8-1.9-2-3.5-3.5-5-.6-.6-1.2-1.3-1.7-2.1-1-1.6-1.4-3.4-1.3-5.3 0-1.6.3-3.1.5-4.6l1.2 2.4c1 1.6 2.1 3 3.3 4.4 1 1.2 2.2 2.3 3.6 3.1.4.3 1 .5 1.5.3.3-.1.5-.4.4-.7-.2-.7-.8-1.2-1.1-1.8-.2-.4-.3-.8-.6-1.1-1-1.6-1.6-3.3-2.3-4.9-.5-1.2-1-2.3-1.2-3.6 2 1.7 4.2 3.2 6.5 4.6 1.1.6 2 1.3 3.1 2 .8.5 1.6.9 2.4 1.3 1 .5 2.1.8 3.1 1.3 1 .4 1.9 1.1 2.8 1.6s1.7 1.1 2.6 1.6c1.5.8 3.1 1.4 4.8 1.8 1.1.3 2.3.5 3.5.7 1.5.2 3 .2 4.5.2.7 0 1.4-.1 2-.3 1.2-.3 2.5-.6 3.6-1.2.8-.4 1.4-1.2 2.2-1.7.9-.6 2-1.1 3-1.6 1.7-.8 3.6-1.2 5.4-1.6 1.9-.4 3.6-1.2 5.4-2.1 1.9-.9 3.8-1.8 5.7-2.6s3.6-2.1 5.3-3.3c1.5-1 2.9-2.2 4.4-3.2 1.3-1 2.7-2 3.8-3.2 1.4-1.5 2.7-3.1 3.9-4.7l3.3-5.1c1-1.8 2.1-3.6 2.9-5.6.5-1 .9-2 1.3-3.1s.6-2.3.8-3.5c.3-2.4.6-4.8.7-7.1-.5-1.4-.4-2.7-.5-4.1z"/><path class="st6" d="M7.3 139.5c.3-.3.5-.7.8-1 .2 1.1.7 2.1.9 3.1.2.6.3 1.3.6 1.9.1.3.2.6.2 1-.1.5-.1 1.1-.3 1.6-.4.7-.8 1.5-1.3 2.1-.6.9-1.5 1.4-2.3 2.1-1.5 1.3-3.2 2.2-4.9 3.1-1.1.6-2.3 1-3.4 1.4-1.9.6-3.9 1.1-5.9 1.2-.8.1-1.5.1-2.3.1-.5 0-.7-.5-1-.9-1-1.4-1.9-2.9-2.8-4.4-.4-.6-.6-1.4-1-2 1.1.1 2.2.1 3.2-.1 2.6-.4 5.2-1.1 7.7-2.1 1.7-.6 3.4-1.5 5-2.4 2.4-1.3 4.8-2.8 6.8-4.7zM77.7 142.1c.3-.9.5-1.8.7-2.7 0 .2 0 .3.1.5-.2 1.2-.4 2.4-.8 3.5-.4 2.3-1.1 4.6-1.8 6.9-.7 1.9-1.3 3.8-2.1 5.6-.5 1.1-1 2.1-1.6 3.2-.8 1.6-1.8 3-2.9 4.3-1.1 1.2-2.2 2.4-3.4 3.6.2-.5.6-.9.9-1.2.5-.6.9-1.3 1.5-1.8.8-.7 1.2-1.7 1.9-2.5.8-.6 1.2-1.5 1.6-2.4.3-.6.4-1.3.9-1.9.2-.3.4-.6.6-1 .4-.9.7-1.8.9-2.8.1-.6.5-1.1.7-1.6.6-1.7 1.3-3.4 1.8-5.2.3-1.6.5-3.1 1-4.5z"/><path class="st8" d="M79.5 141.9c.1-.6.1-1.3.3-1.9.1.9.2 1.8.5 2.7.4 1.2.9 2.3 1.5 3.4 1 1.9 1.6 3.9 2 6 .1.3.1.7.1 1-1.5-1.6-2.5-3.5-3.3-5.4-.7-1.8-1.1-3.8-1.1-5.8z"/><path class="st11" d="M67.5 152.7c.5-.7.8-1.6 1.6-2.1.2.5 0 1-.2 1.5-.3.5-.5 1-.7 1.5-.5 1-1.1 2-1.7 3-.8 1.4-1.8 2.7-2.8 3.9-.9 1.1-1.9 2.3-2.9 3.3-1.2 1.1-2.5 2.2-3.8 3.2-1 .8-2.1 1.3-3.2 1.9-.3.2-.7.4-1.1.3-.2 0-.3-.3-.2-.5.2-.4.5-.6.8-1 .7-.9 1.6-1.7 2.4-2.4 1.5-1.3 2.8-2.8 4.2-4.1.7-.6 1.4-1.3 2.1-1.9 2.2-1.9 3.9-4.2 5.5-6.6zM21.1 156.2c.1-.3.4-.6.7-.5.3.2.4.6.5.9.9 2.5 1.5 5 2.2 7.5.7 2 1.2 4.1 1.7 6.2.6 2.2 1.1 4.4 1.4 6.7.2 1.5.5 2.9.5 4.4 0 .2-.1.3-.1.5-.6-.8-1-1.6-1.6-2.4-1.7-2.7-3.2-5.6-3.8-8.7-.3-1.4-.5-2.7-.7-4.1-.4-2.6-.9-5.1-.9-7.8 0-.9-.1-1.8.1-2.7z"/><path class="st8" d="M-14.6 165z"/><path class="st11" d="M33.1 171.6c.1-.2.2-.3.3-.5-.2 1.2-.2 2.4-.2 3.7-.1 1.4-.5 2.8-1 4.1-.5 1-.9 2-1.7 2.7-.6.7-1.6 1-2.4 1.2-.2.1-.3-.2-.4-.3.6-.7 1.4-1.3 1.9-2.1 1.3-1.9 1.7-4.1 2.5-6.2.2-.8.6-1.7 1-2.6z"/><path class="st8" d="M53.4 182.3c.3-.2.7-.5 1.1-.6.3 0 .5.3.5.6 0 .7-.3 1.3-.6 1.9-.6 1.1-1.4 2-2.3 2.8-1.3 1.1-2.7 2.2-4.1 3.2-1.8 1.3-3.5 2.6-5.1 4.1-.6.6-1.3 1.1-1.7 1.9.9.1 1.7-.3 2.5-.7 1.1-.5 2.2-1.2 3.4-1.8 3.3-1.8 6.5-3.9 9.8-5.7.6-.3 1.1-.6 1.8-.7.4-.1.8.2.7.6 0 .7-.4 1.2-.8 1.7-1.9 1.9-4.3 3-6.5 4.5-3.3 2.2-6.9 4-10.1 6.5-.6.5-1.3.9-1.5 1.6-.4 1.1-.3 2.4-.4 3.5-.1 1.3 0 2.7-.2 4-.2 1.2-.7 2.3-1.3 3.4-.9 1.8-2 3.5-2.5 5.5-.2.8-.4 1.5-.4 2.3.1.8.8 1.4 1.4 1.9.7.6 1 1.6 1.3 2.5.3 1.2.4 2.6 0 3.8-.3 1-.8 1.9-1.4 2.7-1.1 1.6-2 3.3-2.7 5.1-.2.8-.5 1.6-.4 2.4.2.8.9 1.4 1.4 2 1.2 1.2 1.7 3 1.6 4.7 0 1.4-.7 2.7-1.3 3.9-.6 1.4-.9 3-1.1 4.5-.1 1.6.2 3.2.1 4.8 0 1.6-.4 3.2-1.1 4.7-.6 1.5-1.6 2.9-2.2 4.5-1.1 3.2-1.5 6.6-2.3 9.8-.4 1.5-1 2.9-1.4 4.4-.3 1.1-.7 2.1-.6 3.2 1.4.3 2.8.4 4.2.4 3.1-.1 6.1-.9 9-1.7 1-.3 1.9-.8 2.9-1.1-.1.2-.4.5-.3.8-1.4.9-3 1.2-4.5 1.7-3.1.9-6.4 1.5-9.7 1-.5-.1-1.1-.2-1.6-.3 0 .5-.1 1 .1 1.5.1.5.4.9.5 1.5.1.7.2 1.4.2 2.2-.1 1-.2 2-.8 2.9-.1.1-.2.2-.2.4-.2-.1-.5-.3-.6-.5.2-.7.1-1.4.2-2.1 0-1.2 0-2.4-.5-3.5-.9 1.3-2.5 1.9-4 2.4-1.7.5-3.4.7-5.1.8-2.5.2-4.9-.2-7.3-.8-.6-.2-1.3-.4-1.8-.9.1-.1.2-.2.3-.2.3 0 .5.1.7.2.8.3 1.6.4 2.5.6 1.6.3 3.2.5 4.8.4 1.9-.1 3.8-.3 5.6-.8 1.3-.5 2.6-.9 3.6-1.9.2-.2.4-.4.3-.6-.1-.5-.1-1-.1-1.4.2-1.7.1-3.5.4-5.3.1-1.4.6-2.8 1.1-4.1.8-1.7.8-3.6.7-5.4-.1-2.2.5-4.3 1-6.3.5-1.9 1.3-3.7 1.8-5.6.3-1 .6-2 .7-3.1.1-1.3.2-2.7 0-4.1-.2-2-.6-3.9-.4-5.9.2-2.2.3-4.4.4-6.6.1-1.7.2-3.4.3-5 .1-1.2.3-2.5.2-3.7 0-1.4 0-2.9-.2-4.3-.2-2-.5-4.1-.5-6.1.1-2.7.9-5.3 1.8-7.9.6-1.6 1.4-3.2 1.5-4.9.2-1.9.3-3.9.2-5.8-.1-1.3-.2-2.5-.1-3.8.1-1.8.4-3.6.8-5.3.3-1.4.6-2.7 1-4 .2-.7.4-1.6 1-2.1.2.3.2.6.1.9-.2.8 0 1.7.1 2.5.1.3.1.7.4.8.5.1 1 0 1.5-.1 1.5-.4 2.9-.9 4.2-1.8 3.4-2.5 6.6-5.2 10-7.5zM29.6 195.6c.4-.1.7.4.5.7-.3.5-.9.8-1.4 1.1-1.9 1.1-4 1.8-6.2 2.4-1.5.4-3 .6-4.6.7-2.7.1-5.4 0-8-.5-1-.2-2-.4-3-.7-.7-.2-1.5-.5-2-1.1-.2-.2-.5-.5-.3-.9.2-.3.6-.3.9-.3 1.4 0 2.7-.1 4.1.1 2.6.3 5.3.2 7.9.2 2.2-.1 4.5 0 6.7-.4 1.3-.3 2.7-.5 4-1 .4-.1.9-.2 1.4-.3zM31.1 200.9c.2 0 .5-.1.6.2.2.2 0 .5-.1.7-.6.9-1.6 1.4-2.5 2-2.9 1.6-6 2.5-9.2 3-1.5.2-3 .1-4.5.1-2.1 0-4.1-.2-6.1-.5-1-.1-1.9-.2-2.9-.5-.3-.1-.6-.3-.5-.7.2-.4.6-.4 1-.5.5-.2 1.1-.1 1.6-.1 2.7 0 5.4-.1 8-.4 2.2-.2 4.3-.6 6.4-1 2-.4 4-1 6-1.5.8-.4 1.5-.7 2.2-.8z"/><path class="st3" d="M42.9 284.3c.3.4.3 1 .3 1.5-.1 1.5-.7 2.9-1.6 4.1-.9 1.3-2.1 2.2-3.4 3-.3.2-.6.3-.9.3 0 0-.1 0-.2.1-1 .7-2.3.9-3.5 1.3-1.6.5-3.4.4-5 .3-.5 0-1-.1-1.5-.3.6-.8.7-1.9.8-2.9.1-.7 0-1.4-.2-2.2-.1-.5-.4-1-.5-1.5s-.1-1-.1-1.5c.5.1 1.1.2 1.6.3 3.3.5 6.6-.1 9.7-1 1.5-.3 3.1-.6 4.5-1.5zM21.9 291.4c1.5-.5 3-1.1 4-2.4.5 1.1.4 2.4.5 3.5 0 .7 0 1.4-.2 2.1-.6.7-1.4 1.3-2.3 1.5-1.2.3-2.3.7-3.4.9-1 .1-2.1.3-3.1.3-.8 0-1.6.1-2.4.2-1.7.3-3.4-.1-5.1-.3-.5-.1-.9-.3-1.4-.5s-.8-.7-.9-1.2c-.2-.9-.5-1.7-.5-2.6 0-.8 0-1.7.6-2.4.4.5 1.1.7 1.8.9 2.4.6 4.8 1.1 7.3.8 1.6-.1 3.4-.3 5.1-.8z"/><path d="M33.5 294.6c1.2-.4 2.5-.6 3.5-1.3 0 0 .1 0 .2-.1-.1.7-.4 1.4-.7 2-.3.7-.5 1.5-.8 2.2-.9 2.3-1.5 4.7-1.8 7.1-.2 1.3-.2 2.6-.1 3.9.1 2.2.3 4.3.9 6.4-.7 0-1.4-.3-2.1-.4-1.1-.2-2.3-.3-3.4-.1-1 .1-2.1.3-3.1.7-.9.4-1.9.7-2.8 1.2 0-.5-.2-1-.2-1.5s0-1.1-.2-1.6c-.1 2.5-.7 4.9-1 7.4-.2 1.5-.4 2.9-.8 4.4-.2.8-.1 1.5-.2 2.3-.6-.1-1.2-.4-1.8-.5-.7-.2-1.4-.5-2.2-.6-1.2-.2-2.5-.2-3.8-.2-1.1 0-2.2.2-3.4.2.3-1.1.8-2.2 1.2-3.3.4-1.3 1-2.5 1.4-3.8.3-1.1.5-2.2.5-3.3 0-1.3 0-2.6-.3-3.9-.5-2.2-1-4.3-1.4-6.5-.3-1.4-.5-2.9-.8-4.4-.2-.9-.3-1.9-.5-2.8-.1-.3-.2-.7 0-1 1.7.3 3.4.7 5.1.3.8-.1 1.6-.2 2.4-.2 1 0 2.1-.2 3.1-.3 1.2-.1 2.3-.6 3.4-.9.9-.2 1.7-.8 2.3-1.5.2.2.4.3.6.5.1-.1.2-.2.2-.4l1.5.3c1.8.2 3.5.2 5.1-.3z" style="fill:#df7d4d"/><path class="st13" d="M29 314.5c1.1-.2 2.3-.1 3.4.1.7.1 1.4.4 2.1.4.4.7.5 1.5.6 2.2.1 1 .2 2.1-.1 3.1-.5 1.7-1.8 3.1-3.1 4.3-.8.7-1.5 1.5-2.3 2.1-.4.3-.8.7-1.3 1-.7.2-1.2-.3-1.7-.7-.5-.5-.8-1-1.2-1.5-.7-1-1.5-2-1.8-3.3-.6-1.9-.4-3.9-.5-5.8.9-.5 1.9-.8 2.8-1.2 1-.4 2.1-.6 3.1-.7zM9.7 326.2c1.1 0 2.2-.2 3.4-.2 1.3 0 2.5 0 3.8.2.8.1 1.4.5 2.2.6.6.1 1.2.4 1.8.5.1.1.2.2.3.4 0 1.1-.3 2.2-.6 3.3-.3 1-.8 2.1-1.7 2.7-1.2.6-2.7.8-3.9.3-1.2-.4-2.3-1-3.3-1.7-.6-.5-1.3-.8-1.8-1.4-.4-.4-.9-.8-1.1-1.3-.2-.4.1-.9.2-1.3 0-.8.2-1.5.7-2.1z"/><path class="st5" d="M57.4 28.2c.7-.4 1.4-.8 2.2-1.2 0 .2-.1.3-.2.4-.8.7-1.7 1.2-2.7 1.7-1.5.8-3.1 1.2-4.7 1.5-2.3.4-4.6.6-6.8.9-2.4.3-4.8.6-7 1.7-.4.2-.7.5-1.1.5.4-.6.8-1 1.2-1.5.2-.2.4-.5.8-.7.5-.2 1-.5 1.5-.8 1.4-.6 2.9-.7 4.4-.7.8-.1 1.5 0 2.3 0 1.6-.1 3.2-.1 4.7-.4 1-.2 2.1-.3 3.1-.6.7-.2 1.6-.3 2.3-.8z"/><path class="st14" d="M65.1 38.8c0-1.6-.2-3.1-.5-4.7-.4-2.1-1.2-4.2-2.5-5.9-.5-.6-1.1-1.1-1.4-1.8-.3.3-.7.5-1.1.7 0 .2-.1.3-.2.4-.8.6-1.7 1.2-2.7 1.7-1.5.8-3.1 1.2-4.7 1.5-2.3.4-4.6.6-6.8.9-2.4.3-4.8.6-7 1.7-.4.2-.7.5-1.1.5-.2.3-.4.7-.6 1l.1.1c-.3.4-.6.7-.7 1.2-.4 1.2-.8 2.4-1.1 3.6-.2.9-.1 1.8-.1 2.6v.3c-.2.6-.4 1.3-.7 1.9h.1c-.2 3.1-.2 6.4 1.1 9.2.5 1 1 2 1.7 2.8.6.7 1.1 1.4 1.8 2 .4.3.7.6 1 1 .4.3.8.5 1.2.9.5.4 1.2.6 1.8.9.9.4 1.8.6 2.8.8 1 .3 2.1.3 3.2.1.7 0 1.4-.1 2-.3.8-.2 1.6-.3 2.4-.7 1.5-.6 3-1.2 4.3-2.3s2.3-2.5 3.3-4c1.1-1.7 2-3.6 2.6-5.5.1-.2.2-.4.2-.6 0-.1-.1-.2-.1-.2.1-.2.3-.4.4-.6.3-1 .6-2.1.8-3.1.3-1.3.6-2.6.6-4-.1-.7 0-1.4-.1-2.1z"/><path class="st14" d="M34.6 42.3c0-.9-.1-1.8.1-2.6.3-1.2.7-2.4 1.1-3.6.1-.4.5-.8.7-1.2l-.1-.1c-.3-.2-.6-.2-.9-.2-.8 0-1.6.2-2.2.7-.6.5-1.2 1.2-1.4 2-.6 1.3-.7 2.8-.4 4.2.3 1.3 1.2 2.6 2.5 3.1.2-.6.4-1.3.7-1.9-.1-.2-.1-.3-.1-.4zM65.1 38.8c.4-.1.8.1 1.2.2.9.5 1.8 1 2.3 1.9.7 1 .9 2.3.6 3.5-.5 1.7-1.7 3.2-3.3 4-.6.3-1.4.5-2.1.5l-.1-.1c0-.1-.1-.2-.1-.2.1-.2.3-.4.4-.6.3-1 .6-2.1.8-3.1.3-1.3.6-2.6.6-4-.3-.7-.2-1.4-.3-2.1z"/><path class="st15" d="M78 113.9c1.3-.3 2.7-.4 3.9.2 1.5.7 2.6 2.1 3.3 3.6.6 1.3 1 2.8 1 4.3 0 1.6-.2 3.1-.5 4.6-.1.4-.3.7-.6 1.1-.6.9-1.6 1.6-2.4 2.3-1.4 1.2-2.8 2.3-4.3 3.4-1 .7-2 1.5-3 2.1-.1 1-.3 2-.6 3-.7 2.1-1.8 4.1-3.4 5.6-.2.3-.5.6-.9.7-.2.1-.3 0-.4-.1-.6.8-1.3 1.6-2.3 2.1-.4.2-1 .3-1.4-.1-.6.5-1.2 1.1-2.1 1.2-.2 0-.5 0-.6-.3-.1-.4.1-.8.3-1.1s.4-.7.6-1c-.4.5-.9 1-1.5 1.2-.4.1-.8.3-1.2.1-.3-.6.1-1.3.3-1.8.8-2 1.7-4 1.9-6.1.2-1.1.5-2.1.5-3.2-.6 1.3-.9 2.7-1.2 4.1-.2.8-.3 1.7-.8 2.4-.2.3-.8.5-1.1.3-.4-1-.4-2-.5-3-.2-2.7.3-5.6 1.4-8.1.6-1.5 1.6-2.9 2.6-4.2 1.5-1.8 3-3.6 4.8-5.2 2-1.8 4.1-3.6 6-5.5.9-1 1.6-1.8 2.2-2.6zM10 147.6c.5.9.8 1.9 1.2 2.9.3.9.7 1.7 1 2.5 1.2 3.7 2.6 7.3 4.2 10.9.7 2.2 1.9 4.2 3 6.3.5.9 1.1 1.7 1.9 2.3.7.5 1.6.6 2.3 1.1 1.4.9 2.3 2.4 2.9 3.9l1.5 3.6c.2.4.4.7.4 1.1-.4.4-1 .3-1.5.2-.7-.2-1.1-.9-1.5-1.5-.5-1-1.2-2-1.7-3.1.1.8.5 1.6.8 2.4.4 1 .9 1.9 1.4 2.9.6.3 1.3.6 1.9.7-.1.8-.1 1.6-.5 2.4-.3.3-.8.5-1.2.6-.6.2-1 .6-1.6.7-.8.1-1.6 0-2.4-.3-.4.1-.9.2-1.3.2-.8-.1-1.6-.4-2.3-.8-.2-.2-.5-.1-.7 0-1.1.1-2.2-.3-3.2-.9-1-.5-1.9-1.4-2.6-2.2-1.3-1.3-2.4-3-3.8-4.2-1.6-1.3-2.9-2.8-4.4-4.2-1.2-1.1-2.2-2.3-3.3-3.5-2.2-2.4-4.2-4.9-6.1-7.5-.5-.8-1.2-1.5-1.6-2.4-1.1-1.4-2-3-3-4.5 1.1 0 2.2-.1 3.3-.3 1.4-.1 2.7-.3 4.1-.6 1-.3 2-.6 3-1 2-.9 4-1.8 5.7-3.2 1.6-1.4 3.1-2.8 4.1-4.5z"/><path class="st2" d="M40 34.7c.5-.2 1.1-.3 1.6-.4 1-.1 2.1-.1 3.1.3.8.3 1.7.5 2.1 1.2.2.3.2.6.1 1-.4-.1-.8-.1-1.2-.2-1.2-.3-2.4-.9-3.6-1.2-.7-.2-1.5-.3-2.2-.4.1-.1.1-.3.1-.3z"/><path class="st3" d="M38 35.9c.1-.3.1-.6.3-.8 0 .4-.1.7-.2 1-.2.7-.2 1.5-.3 2.2 0-.8.1-1.6.2-2.4z"/><path class="st7" d="M38.2 34.9c.4-.9 1.2-1.7 2.1-1.8.8-.1 1.6-.1 2.4-.1 1 .1 2 .4 3.1.6.7.2 1.5.4 2.1.9s1.3 1 1.5 1.7c.5 1.2.3 2.5-.2 3.6 1.2-.2 2.4 0 3.5.6.1-.8.4-1.6.7-2.4.4-.9 1.2-1.4 2.1-1.7 1.5-.4 3.1-.4 4.7 0 .9.3 1.8.5 2.5 1.1.5.4.9.9 1.2 1.4.6-.3 1.2-.6 1.9-.6.4 0 .5.4.4.7h-.3c0-.1-.1-.2-.2-.3-.6 0-1.1.3-1.7.5.4 1.3.2 2.8-.6 4-.8 1.1-1.6 2.3-2.8 3-.8.6-1.8.9-2.7.8-1.3-.1-2.6-.3-3.7-1.1-.6-.5-1.2-1-1.4-1.8-.3-1.1-.3-2.2-.3-3.3-1.1-.7-2.4-.7-3.7-.6-.4.7-.9 1.4-1.5 2-.7.8-1.6 1.3-2.6 1.7-1 .3-2.1.3-3.1 0-1.3-.3-2.6-.8-3.4-1.9-.9-1.4-.9-3.2-.8-4.8 0-.6.2-1.3.4-1.9-.5-.4-1.2-.7-1.8-.8-.2 0-.4-.1-.6-.2.3-.4.9-.4 1.3-.2.6.5 1 .6 1.5.9zm2.5-1.3c-.5.1-1.1.2-1.5.6-.9 1-1.1 2.3-1.1 3.6-.1 1.4.1 2.8.7 4.1.4.8 1.3 1.1 2.2 1.5.7.2 1.3.4 2 .5 1.2.2 2.3-.4 3.2-1 1.4-1.1 2.5-2.6 2.9-4.3.3-1.1-.2-2.3-1-3.1-.3-.3-.7-.5-1.1-.6-.8-.4-1.6-.6-2.5-.8-1.2-.4-2.5-.7-3.8-.5zm15.7 3.1c-.9.2-2 .5-2.4 1.4-.8 1.4-1 3.1-.9 4.7.1.9.2 1.8.9 2.4 1 1.1 2.5 1.5 3.9 1.6 1 .1 2-.3 2.8-1 .6-.5 1.3-1.1 1.8-1.7.4-.5.9-1.1 1.1-1.8.2-.6.3-1.2.2-1.8 0-1.1-.6-2.1-1.5-2.7-1.8-1.1-3.9-1.5-5.9-1.1z"/><path class="st16" d="M42.6 36.9c.6-.2 1.3.1 1.7.6-.3-.1-.7-.2-1-.2-.4-.1-.8.1-1.1.2 0-.3.1-.6.4-.6z"/><path class="st2" d="M55.7 37.5c.5-.5 1.2-.6 1.9-.7 1.4-.2 3 .3 3.9 1.4.4.4.9.7.9 1.3-.6-.3-1.1-.7-1.8-.9-1.4-.5-2.9-.4-4.3-.5-.3 0-.8-.2-.6-.6z"/><path class="st17" d="M35.1 37c.2-.1.3.1.4.1-.4.3-.9.5-1.3.9-.5.6-.7 1.5-.5 2.2.1.5.3.9.5 1.4-.3-.1-.5-.2-.6-.5-.4-.9-.4-1.9 0-2.7.3-.7.8-1.2 1.5-1.4z"/><path class="st18" d="M43 37.8c.3-.2.6.1.6.4 0 .3-.2.9-.6.8-.6-.1-.4-.9 0-1.2z"/><path class="st16" d="M57.3 40c.2-.2.5-.5.8-.5.5 0 1.1.2 1.4.6-.4 0-.8-.2-1.2-.2-.3 0-.7.1-1 .1z"/><path class="st18" d="M58.2 40.3c.3-.1.6.1.6.4 0 .3-.1.7-.4.8-.3.1-.6-.1-.6-.4-.1-.3.1-.7.4-.8z"/><path class="st19" d="M50 40.6c.1-.2.4 0 .6 0 .2.1.4.1.5.3 0 .7 0 1.4-.1 2.1-.1.9 0 1.8-.3 2.6-.2.3-.6.2-.9.2-.5-.1-1.1 0-1.6-.3-.3-.2-.3-.6-.2-.9.4-1.3 1.3-2.3 1.8-3.5.1-.3.1-.4.2-.5z"/><path class="st17" d="M65.4 41.7c.1-.3.5-.2.7-.2.5.2.9.7 1.1 1.2.2.7.1 1.5-.2 2.2-.4.9-1.3 1.4-2.3 1.5v-.3c1.4-.2 2.5-1.8 2.1-3.2-.2-.5-.7-1-1.4-1.2z"/><path d="M49.5 45c0-.6 0-1.2.3-1.7.1.6-.1 1.1-.3 1.7z" style="fill:#e99679"/><path class="st21" d="M39.5 44.2c.6-.1 1.2 0 1.6.5.6.8.1 2.1-.9 2.4-.7.2-1.5-.2-1.7-.9-.2-.8.2-1.8 1-2zM57 47.8c.6-.1 1.4.1 1.7.7.5.7.1 1.8-.6 2.2-.8.4-2-.1-2.2-1-.2-.8.4-1.6 1.1-1.9z"/><path d="M44.5 49.1c.7-.2 1.4-.5 2.2-.7.4-.1.8 0 1.1.1 0 0 0 .1.1.2h.1c.2 0 .4 0 .6.1h.2c1 0 1.7.7 2.3 1.4-1.5 1.5-4.2 1.7-5.7.3-.4-.5-.8-.9-.9-1.4z" style="fill:#ff2453"/><path class="st21" d="M48.6 49.1h.4c.4.1.8.3 1.1.6-.5-.3-.9-.5-1.5-.6zM45.9 49.7c.8.1 1.6.3 2.4.4-.8 0-1.6-.2-2.4-.4z"/><path class="st5" d="M46.1 52.2c.9-.3 1.9 0 2.6.6-.4 0-.8-.1-1.2-.2-.5-.2-1-.3-1.4-.4zM43.8 57.4c.7.4 1.5.9 2.4.9.7.1 1.2-.3 1.9-.4-.3.3-.6.7-1.1.8-1.2.2-2.6-.2-3.2-1.3z"/><path class="st23" d="M42.5 58.6c.9.4 1.8.9 2.7 1 .9.2 1.8.3 2.7.3-1.1 0-2.3.1-3.4-.3-.7-.2-1.4-.5-2-1z"/><path class="st10" d="M33.3 61.4c.1-.8.1-1.7.2-2.5.1.8.2 1.6.1 2.4-.2 1.7-.4 3.3-.9 4.9s-1.2 3.1-2 4.6c-.3.6-.6 1.1-1 1.6.3-.6.7-1.2.9-1.9 1.3-2.8 2.3-5.9 2.7-9.1z"/><path class="st24" d="M14.4 80.3c.3.2.3.6.4.9.5 2.5 0 5-.6 7.5s-1.2 5-2.3 7.4c-.1.2-.2.5-.4.6 0-.1 0-.2.1-.3 1-2.2 1.5-4.5 2.1-6.8.6-2.6 1.1-5.2.9-7.8-.1-.5-.2-1-.2-1.5z"/><path d="M75.1 87.7c-.2-1.3-.4-2.7-.1-4 0 1.3.2 2.6.5 3.9.6 3.2 1.1 6.4 1.4 9.7.1 1.3.2 2.6.2 3.8-.1.3-.2.5-.3.8 0-.3.1-.7.2-1-.1-2.6-.4-5.1-.8-7.7-.4-1.8-.8-3.6-1.1-5.5z" style="fill:#11313c"/><path class="st24" d="M81.6 86.8c.2 1.2.4 2.5.5 3.7 0 1 .2 2.1.2 3.1 0 3.3-.1 6.6-.6 9.8.6-.7 1.2-1.3 1.9-1.8.7-.6 1.5-1.1 2.4-1.4 1-.4 2.1-.6 3.2-.7.2 0 .3.1.5.3-1.4.2-2.7.5-4 1.1-1.2.6-2.2 1.4-3.2 2.3-.3.4-.7.7-1 1.1-.2.7-.4 1.5-.6 2.2.5-.8 1.2-1.4 1.9-1.9 1.4-1.2 3.1-2.1 4.9-2.3.7-.1 1.5-.2 2.1.1v.2c-.7-.3-1.4-.1-2.1 0-2 .4-3.8 1.4-5.3 2.7-.7.6-1.4 1.3-1.9 2.1-.3.8-.5 1.7-.8 2.6 1.2-.3 2.6-.3 3.8 0 1.2.3 2.3.9 3.3 1.6.7.5 1.2 1.3 1.6 2 1 1.9 1.7 4 1.4 6.2-.2 1.1-.5 2.3-1.1 3.3.1-.3.2-.6.3-1 .2-1 .6-2 .6-3 .1-1.5-.3-3.1-1-4.5-.3-.7-.7-1.4-1.2-2.1-.6-.7-1.4-1.1-2.2-1.5-.9-.4-1.9-.9-2.9-1-.9-.1-1.8-.1-2.7.1-.5 1.1-.9 2.2-1.5 3.3 1.2-.2 2.5-.1 3.7.4 1.1.4 2.1 1.2 2.8 2.2 1.2 1.7 1.8 3.7 2 5.8.1 1.4-.1 2.8-.4 4.1-.1.4-.1.8-.5 1.1.1-.6.3-1.1.4-1.7.2-1.1.3-2.2.2-3.3-.2-2.1-.9-4.2-2.1-5.9-.7-1-1.7-1.6-2.8-2-1.1-.5-2.4-.5-3.5-.3-.2.3-.3.6-.7.6.6-1 .9-2.2 1.4-3.3.6-1.3 1-2.7 1.4-4.1.3-1 .5-1.9.7-2.9.2-1.3.4-2.6.5-3.8.1-1.4.2-2.7.2-4.1 0-1.2.1-2.5 0-3.7-.1-1.4 0-2.7-.2-4.1.4-.5.3-1.1.4-1.6z"/><path class="st26" d="M-12.4 121.9c1.8-.6 3.5-1 5.3-1.7v.2c-2.2.8-4.4 1.5-6.5 2.2-2 .7-4.2.9-6.4.8-.4 0-.8 0-1.2-.3 1.2-.1 2.5 0 3.7-.1 1.7-.1 3.4-.6 5.1-1.1z"/><path class="st24" d="M67 123.6c1-.5 1.9-1.2 2.8-1.8-.4.5-1 .8-1.5 1.3-1.3 1.1-2.8 2.1-4.4 2.7-1.4.6-2.8 1.3-4.2 1.8-.7.2-1.4.6-2.2.5 2-.8 4.1-1.7 6-2.8 1.3-.5 2.5-1 3.5-1.7z"/><path class="st26" d="M-13.1 127.1c.7-.3 1.4-.5 2.1-.9v.2c-3.1 1.5-6.3 3.1-9.6 4.1-1.4.5-2.9.6-4.4.4-.4-.1-.8-.3-1.1-.6.1 0 .3.1.4.1.7.3 1.5.2 2.2.2s1.5-.1 2.2-.3c1.3-.4 2.6-.8 3.9-1.3 1.3-.5 2.8-1.2 4.3-1.9z"/><path class="st16" d="M75.2 129.7c.5 1.1.4 2.3.5 3.5.1.8.1 1.7-.2 2.5-.1-.2-.1-.3-.1-.5.1-1.1 0-2.2 0-3.3 0-.8-.2-1.5-.2-2.2z"/><path d="M-1 130.7c.4-.2.7-.4 1.1-.5-.8.6-1.8.9-2.7 1.4-1.8.8-3.6 1.6-5.5 2.2-1.2.4-2.3.7-3.5 1-.3 0-.7.2-1-.1 1.3-.2 2.5-.7 3.7-1.1 2.8-.8 5.3-1.9 7.9-2.9z" style="fill:#12313d"/><path class="st24" d="M57.6 132.3c.1-.1.3-.1.4-.1-.1.2-.2.4-.4.5-1.7 1.6-3.6 3-5.5 4.4-1.5 1.1-3.1 2.1-4.6 3.1-1.3.9-2.6 1.6-3.7 2.6.5-1 1.5-1.6 2.3-2.3 1.7-1.3 3.4-2.3 5.2-3.5 2.1-1.4 4.3-3 6.3-4.7z"/><path class="st23" d="M64.5 136.3c.3-1.1.4-2.3.9-3.4 0 .6-.1 1.1-.3 1.6-.1.7-.2 1.3-.6 1.8z"/><path d="m-1.3 136 3.9-2.7v.1c-1 .8-2.1 1.6-3.1 2.3-1.1.8-2.3 1.6-3.7 2.2-1.3.6-2.7 1-4 1.4-.8.2-1.7.5-2.6.4.2 0 .4-.1.6-.1 1.3-.2 2.6-.7 3.8-1.1 1.8-.7 3.6-1.5 5.1-2.5z" style="fill:#153440"/><path class="st16" d="M67.7 137.8c.1-.4.2-.7.4-1 .1.5-.1 1-.2 1.6-.4 1.9-1.3 3.7-2.2 5.4-.3.5-.6 1-1 1.4.2-.8.6-1.6 1-2.4.8-1.6 1.5-3.3 2-5z"/><path class="st26" d="M5.9 137.3s.1 0 .2.1c-.7.8-1.6 1.4-2.5 2-1.5 1-3.1 1.9-4.7 2.6-3.1 1.4-6.3 2.4-9.6 2.9-.6.1-1.2.2-1.7 0 2.1-.4 4.1-.7 6.2-1.3 3.9-1.1 7.7-2.9 11.1-5.2.3-.2.6-.5.9-.7 0 0 .1-.1.1-.2H6l-.1-.2z"/><path class="st16" d="M70.7 138.1h.2c-.3 1.9-1 3.7-2.1 5.2-.7 1-1.3 2.1-2.2 2.9.4-.8 1-1.5 1.4-2.3 1-1.9 2.1-3.8 2.7-5.8zM72.9 139.4h.2c-.1.8-.5 1.5-.9 2.2-.5 1-1.2 2-1.9 2.9.7-1.7 1.8-3.3 2.6-5.1z"/><path class="st24" d="M-13.7 141.7c.3 0 .7-.1 1-.2v.2c-1.1.4-2.2.5-3.4.7-1.4.2-2.8.4-4.2.2-1-.1-2-.3-2.9-.7.5-.1 1.1.1 1.6.2 1.5.2 3 .2 4.4.1 1.2-.2 2.4-.3 3.5-.5z"/><path d="M57.5 154.5c1.4-1.9 2.7-4 3.7-6.2.1.6-.3 1-.5 1.5-1 1.9-2.2 3.8-3.5 5.5-1.7 2.1-3.6 4.1-5.5 6-.7.7-1.4 1.5-2.3 2.1-.1.1-.3.2-.5.2 1.6-1.3 3-2.9 4.4-4.4 1.5-1.4 3-3 4.2-4.7z" style="fill:#13333e"/><path class="st24" d="M25.6 145.7c-2.5-.7-4.8-2-6.9-3.4-1.5-1-2.8-2.2-4.1-3.4-1.5-1.4-2.9-2.9-4-4.6-.5-.8-1.1-1.6-1.4-2.5-.1-.2 0-.4 0-.5.5-1.9.3-3.9-.2-5.8.6 1.1 1.6 1.8 2.5 2.7 1 1.1 2.1 2.2 3.3 3 1.9 1.3 4 2.2 6.1 3.1 1 .4 2.1.8 3.1 1.3v-.2c-1.1-.6-2.3-1-3.4-1.5-1.9-.8-3.7-1.7-5.4-2.8-1.2-.8-2.2-1.7-3.3-2.7l.1-.1c-.8-.7-1.7-1.4-2.4-2.3-.2-.3-.5-.6-.7-.8-.3-.6-.6-1.3-1-1.9-.4-.7-1-1.4-1.4-2.1-.6-.9-.9-2-1.1-3-.3-2.1-.4-4.2-.9-6.3-.1-.5-.1-1-.2-1.5 0-1.5 0-3 .3-4.4.2-1.1.4-2.2.7-3.2 1.1-3.6 1.5-7.3 1.4-11-.1-1.2-.2-2.4-.6-3.5-.2-.5-.3-1.1-.7-1.5 0 .6.3 1.2.4 1.8.2 1.2.4 2.5.5 3.7 0 3.6-.4 7.2-1.4 10.6-.3 1-.4 2-.6 3-.1-2.9-.5-5.8-1.4-8.5-.5-1.4-1.1-2.8-1.8-4.1C.3 92.1-.3 91-1.1 90c-.2-.3-.4-.5-.8-.7.2.4.5.8.8 1.2.7 1.2 1.3 2.4 1.9 3.7.6 1.3 1.3 2.7 1.7 4.2.8 2.9 1.3 5.9 1.4 9-.1.8 0 1.7.1 2.5-.2-.8-.5-1.6-.7-2.4-.4-1.2-1-2.3-1.6-3.3-.6-.9-1.2-1.9-2.2-2.6-.6-.4-1.2-.9-1.9-1.1s-1.5-.7-2.3-.5c.5.1 1 .2 1.5.4.5.3 1.1.3 1.5.7.7.5 1.4 1 1.9 1.7.9 1.2 1.6 2.5 2.2 3.8.7 1.8 1.2 3.7 1.6 5.6.3 1.6.4 3.2.6 4.8.1.7.2 1.4.2 2.2 0 .7-.3 1.5-.6 2.1-.7 1.3-1.9 2.3-2.8 3.5.5-.2.8-.6 1.2-.9 1.1-1.1 2.4-2.4 2.6-4.1.5 1.6 1.7 2.8 2.5 4.3.9 1.7 1.2 3.7 1.1 5.6-.1 1.4-.7 2.7-1.6 3.7-1.5 1.6-3.3 2.9-4.9 4.4.2 0 .3-.1.5-.2 1-.7 2-1.5 3-2.3.8-.7 1.7-1.3 2.3-2.3-.4 1.4 0 2.8.6 4.1C8 138.3 7 139.2 6 140c-2.3 1.9-4.9 3.4-7.5 4.7-2.2 1.1-4.5 1.9-6.9 2.6-1.1.3-2.2.5-3.4.7-1.3.2-2.6.5-4 .5-.6-.3-1.3-.4-2-.6 0 .1 0 .3.1.4.4.2.9.3 1.4.4.5 1 .9 2 1.4 2.9 1.1 1.8 2.4 3.7 4 5.1.4.5 1.1.4 1.7.4 2.5-.2 4.9-.5 7.3-1.1 2.3-.6 4.6-1.7 6.5-3.1 2.1-1.6 4.1-3.5 5.5-5.8.3-.7.4-1.5.4-2.3 0-1.2 0-2.4-.2-3.5-.2-1.2-.5-2.4-.9-3.5s-1-2.2-1.1-3.4c-.1-.9.3-1.7.5-2.6.3 1 .9 1.9 1.5 2.8 1.6 2.4 3.7 4.3 5.9 6.1 1.4 1.2 3 2.2 4.6 3.1 1.6.9 3.3 1.7 5.1 2-.1 0-.2-.1-.3-.1zm-36.1 11.2c-.3-.4-.6-.8-.9-1.1-.6-.7-1.2-1.5-1.8-2.3-.6-.9-1.2-1.7-1.7-2.7-.3-.6-.7-1.3-1-1.9h1.1c.4 1.1 1 2.1 1.6 3.1.6 1.1 1.3 2.1 2 3.1.1.2.3.4.4.6l.9 1.2c-.1-.1-.3 0-.6 0zm.9-.1c-.4-.6-.9-1.1-1.4-1.7-.6-.8-1.2-1.7-1.7-2.6-.1-.2-.6-1.1-.8-1.3-.4-.7-.8-1.5-1.2-2.3.4 0 .9-.1 1.3-.1.1.2.1.4.2.6.2.4.4.9.7 1.3.2.4 1 1.9 1.2 2.2.3.5.6.9.9 1.4.6.8 1.2 1.7 1.8 2.4-.3 0-.6.1-1 .1zm1.3-.1c-.5-.6-1.1-1.1-1.5-1.8-.8-1.1-1.5-2.3-2.1-3.5-.5-.9-1-1.8-1.4-2.8.4-.1.8-.1 1.3-.2.9 2.1 2 4.1 3.2 6 .4.7.9 1.4 1.4 2.1-.4.1-.6.1-.9.2zm1-.2c-1.7-2.6-3.2-5.3-4.6-8.1.4-.1.7-.2 1.1-.3.1.1.1.3.2.4 1 2 1.9 4.1 3.1 6 .4.6.7 1.3 1.2 1.8-.4.2-.7.2-1 .2zm1.2-.1c-.6-.6-.9-1.3-1.3-1.9-1.3-2-2.2-4.2-3.2-6.3.4-.1.8-.2 1.2-.2.1.3.3.7.4 1 .2.5.4.9.6 1.4.3.6.5 1.2.8 1.7.7 1.5 1.6 2.8 2.5 4.2-.4 0-.7.1-1 .1zm1-.2c-.6-.9-1.2-1.8-1.7-2.8-.7-1.4-1.4-2.8-2-4.2-.2-.5-.4-.9-.7-1.4.4-.1.9-.2 1.3-.4.1.3.3.7.4 1 .4.9.8 1.8 1.2 2.6.4.9.9 1.8 1.4 2.7.4.7.8 1.5 1.4 2.1-.4.3-.8.4-1.3.4zm1.4-.2c-1.5-2.3-2.7-4.7-3.8-7.2-.2-.4-.4-.8-.6-1.3.4-.2.9-.3 1.3-.4.1.4.3.8.4 1.2.1.3.3.6.4.9l.6 1.2c.4.9.9 1.9 1.4 2.8.1.2.2.4.3.7.3.6.6 1.3 1.1 1.8-.3.2-.7.3-1.1.3zm1.3-.2c-.2-.4-.5-.8-.7-1.2l-.9-1.8c-.1-.2-.1-.3-.2-.5 0-.1-.1-.2-.1-.2 0-.1-.2-.4-.2-.4-.1-.2-.2-.5-.3-.7v-.1h-.1c-.1-.3-.3-.6-.4-.9-.2-.4-.4-.8-.5-1.2-.1-.3-.2-.5-.3-.8-.1-.2-.2-.5-.3-.7.4-.1.7-.3 1.1-.4 1.3 3 2.6 6 4.2 8.9-.7-.2-1-.1-1.3 0zm1.1-.3c-1.1-2.2-2.3-4.4-3.2-6.7-.3-.7-.6-1.5-1-2.2.4-.2.9-.4 1.3-.5.1.3.2.5.3.8.9 2.2 1.9 4.2 2.9 6.4.2.5.5 1 .7 1.6 0 .1.1.2.1.3-.4.1-.7.2-1.1.3zm1.2-.4c0-.1-.1-.2-.1-.3-.2-.4-.5-.9-.6-1.3-1-2.3-2.1-4.6-3.1-6.9-.1-.2-.1-.3-.2-.5.4-.1.7-.3 1.1-.4 1 2.3 2.1 4.5 3.2 6.8.4.7.6 1.5 1.1 2.1-.5.2-.9.3-1.4.5zm1.4-.6c-.3-.8-.8-1.6-1.2-2.4-.6-1.2-1.2-2.4-1.7-3.7-.4-1-.8-1.9-1.3-2.9.4-.2.8-.4 1.2-.5.7 2 1.7 3.9 2.6 5.9.4.9 1.3 2.9 1.3 3-.3.3-.6.4-.9.6zm1-.6c-.3-.9-.7-1.7-1-2.5-.8-2.1-1.8-4.1-2.7-6.1 0-.1-.1-.2-.1-.3.3-.2.6-.3 1-.5.2.9.7 1.7 1.1 2.5.7 1.6 1.4 3.1 2.1 4.7.2.4.3.7.5 1.1.1.1.1.3.2.4-.5.3-.8.6-1.1.7zm1.1-.7L1.6 149c-.6-1.6-1.4-3.1-2.1-4.6.4-.2.8-.5 1.2-.7.3 1.2.9 2.3 1.3 3.3.6 1.4 1.1 2.8 1.7 4.2.1.3.2.5.3.8.1.2.1.4.2.6-.2.2-.5.4-.8.6zm1-.7c-.1-.4-.3-.8-.4-1.2-.4-1-.8-2.1-1.2-3.1-.7-1.5-1.3-3-2-4.5.3-.2.7-.4 1-.6.5 1.2 1.1 2.3 1.6 3.5.2.4.4.9.6 1.3.3.8.7 1.6 1 2.4.2.5.3.9.4 1.4-.3.3-.6.6-1 .8zm1.1-.9c0-.1-.1-.3-.1-.4-.4-.8-.7-1.7-1-2.5-.2-.4-.7-1.7-.8-1.9-.4-1.1-.9-2.1-1.4-3.1-.1-.2-.3-.4-.3-.6.4-.2.7-.4 1.1-.7.4 1 .9 1.9 1.3 2.8.5 1.1 1.1 2.2 1.6 3.4.1.3.2.5.3.8.1.2.1.3.2.5.1.1.1.3.2.4 0 .1.1.3.1.4l-1.2.9zm1.2-1c-.2-.8-.6-1.6-.9-2.4-.2-.4-.3-.7-.5-1.1-.7-1.4-1.2-2.8-1.9-4.1l-.3-.6c.3-.2.7-.5 1-.7v.2h.1c.3.7.7 1.4 1.1 2.1.7 1.4 1.2 2.9 1.8 4.4.1.2.4 1.3.5 1.5-.3.2-.6.4-.9.7zm.9-.9c-.5-2-1.2-3.9-2.1-5.7-.4-.8-.9-1.6-1.3-2.4.3-.2.7-.5 1-.7.1.2.9 1.7 1.1 2.3.5 1 1 2.1 1.4 3.2.1.4.3.8.4 1.2.1.4.3.7.4 1.1-.2.4-.5.7-.9 1zm1.1-1.2c-.1-.3-.2-.5-.3-.8-.1-.2-.2-.4-.2-.5-.5-1.2-1-2.5-1.5-3.7-.4-.9-.8-1.8-1.3-2.6.3-.3.7-.5 1-.8.5.7.8 1.6 1.2 2.4.8 1.7 1.4 3.5 1.8 5.3l-.7.7zm1-1.5c-.1.2-.3.5-.4.7 0-.2-.1-.3-.1-.5-.1-.4-.2-.9-.4-1.3-.3-1-.6-2-1.1-3-.4-1-.8-1.9-1.4-2.8.3-.4.7-.7 1.1-1 .9 2.1 1.7 4.2 2.1 6.5.2.4.3.9.2 1.4zm.3-2.4c0 .5 0 1-.1 1.5-.4-2.4-1.1-4.7-2.1-6.9 0-.2-.3-.3-.1-.5.4-.4.7-.8 1-1.3.9 2.4 1.3 4.8 1.3 7.2z"/><path class="st26" d="M13.6 149.1c.4.5.5 1 .8 1.6 1.1 2.3 2 4.6 2.6 7.1l1.8 6c.1.4.3.7.3 1.1-.3-.3-.4-.7-.5-1.1-.8-2.1-1.4-4.3-2.1-6.5-.7-2.3-1.6-4.6-2.6-6.8-.1-.4-.3-.9-.3-1.4z"/><path class="st24" d="M46.7 156.4c.7-.9 1.3-1.9 1.8-3l-.3.9c-.7 1.6-1.7 3-2.8 4.4-1.1 1.5-2.1 3.1-3 4.7-1.3 2.4-2.5 4.8-3.6 7.3-.4.8-.6 1.6-1.1 2.4-.1-.4.2-.7.3-1.1.8-2.1 1.8-4.2 2.8-6.3 1-2 1.9-3.9 3.2-5.7l2.7-3.6zM63.3 159.1c1-1.2 2-2.5 2.9-3.9 0 .5-.3 1-.6 1.4-.8 1.3-1.8 2.6-2.9 3.7-2.2 2.4-4.8 4.4-7.4 6.4-.8.6-1.5 1.2-2.4 1.6.3-.3.6-.6 1-.8 1.6-1.2 3.2-2.5 4.7-3.8 1.7-1.5 3.3-2.9 4.7-4.6z"/><path class="st26" d="M22.4 161.2c-.1-.8-.4-1.5-.2-2.3.2 1 .5 2 .7 3 .7 2.9 1.6 5.7 2.3 8.6.2.9.5 1.9.4 2.9-.2-.5-.2-1.1-.3-1.6-.5-2.4-1.4-4.7-2.1-7.1-.2-1.1-.5-2.3-.8-3.5z"/><path class="st24" d="M-13.5 161.1c-.1-.2-.1-.4 0-.7.4.9 1 1.5 1.6 2.2 1.4 1.5 2.8 2.9 4.4 4.2 1.7 1.3 3.4 2.5 5.2 3.7.5.3.9.6 1.3.9v.2c-.7-.5-1.5-1-2.3-1.5-1.7-1-3.3-2.2-4.8-3.4s-2.9-2.6-4.1-4c-.5-.4-1-1-1.3-1.6z"/><path class="st30" d="M-14.3 166.4c.2.1.3.2.3.4.5 1.9 1.3 3.8 2 5.6 1.2 3 2.7 6 4.5 8.6.2.2.3.4.3.7-1-1.2-1.8-2.5-2.6-3.8-1.1-1.9-2.1-3.8-2.9-5.8-.6-1.4-1.1-2.9-1.5-4.4 0-.4-.1-.8-.1-1.3z"/><path class="st24" d="M50.1 169c.4-.3.6-.7 1-.9 0 .4-.3.6-.5.9-1.3 1.3-2.7 2.5-4.2 3.6-1.7 1.4-3.4 2.8-5.3 3.9-1.3.8-2.7 1.4-4.1 2.2-.4.2-.8.5-1.2.7.4-.6 1.1-1 1.7-1.4 1.5-.9 3.1-1.7 4.6-2.8 2.8-1.9 5.5-4 8-6.2z"/><path d="M18.7 169.1c.1-.2.5-.3.7-.1.5.7 1 1.5 1.2 2.3.1.4.1.8-.2 1.1-.5.7-1 1.5-1.7 2.1-.7.9-1.8 1.4-2.3 2.5-.6 1.4-2 2.2-3.4 2.6-.9.2-1.8-.2-2.7-.1-.4 0-.8.2-1.2.4-.3.2-.7.1-.9-.1-.6-.5-1.3-1-1.7-1.6-.1-.1-.1-.3 0-.5.3-.1.6-.2 1-.2.7-.1 1.3-.4 1.9-.7.7-.5 1-1.5 1.7-2 .8-.7 1.8-1 2.7-1.3.8-.2 1.5-.6 2.2-1.1.7-.7 1.3-1.4 2-2.2.3-.3.5-.7.7-1.1z" style="fill:#c4688a"/><path d="M14.3 173.8c2.1-.7 3.6-2.6 4.9-4.4-.1.9-.7 1.6-1.2 2.2-.7.7-1.4 1.5-2.3 2-.6.4-1.4.6-2.1.9-1 .4-1.9 1-2.6 1.8-.4.5-1 .9-1.6 1.2s-1.3.4-2 .4c.8-.4 1.7-.6 2.5-1.2.6-.6 1-1.4 1.8-1.8.8-.5 1.7-.8 2.6-1.1z" style="fill:#e289a9"/><path class="st16" d="M18.8 174.6c.6-.7 1.1-1.4 1.7-2.1-.4 1-1 1.9-1.7 2.7-.5.7-.9 1.5-1.2 2.3-.3.7-.7 1.4-1.3 1.9-.6.6-1.3 1.1-2.1 1.3-1.4.4-2.9-.2-4.3.3l-.6-.9c.4-.2.7-.3 1.2-.4.9-.1 1.8.3 2.7.1 1.4-.4 2.8-1.2 3.4-2.6.3-1.2 1.4-1.8 2.2-2.6z"/><path class="st23" d="M23.2 176.3c.3.6.6 1.1.7 1.8.1.5.2 1 .2 1.4-.3-1-.6-2.1-.9-3.2z"/><path d="M8.6 178.8c.1-.1.3 0 .2.2 0 .1-.3-.1-.2-.2z" style="fill:#e7c2d0"/><path d="M9.1 179.1c.3-.2 0 .4 0 0z" style="fill:#d79ab1"/><path class="st35" d="M53.1 183c.1-.1.3-.2.5-.2-.2.5-.6.8-1 1.2-1.5 1.4-3 2.8-4.5 4.1-1.2 1.1-2.4 2.1-3.7 3.1-1.5 1.1-3.1 2.1-4.7 3.1-1.4.8-2.7 1.6-4 2.6-.4.2-.3.8-.3 1.1-.1 2 0 4 0 6.1.5-.8 1-1.6 1.7-2.2 1.4-1.2 3-2.3 4.6-3.3 4.1-2.5 8.1-5.2 12.1-8 .3-.3.6-.5 1-.7v.3c-1.3 1.2-2.8 2.2-4.2 3.2-1.8 1.3-3.5 2.6-5.3 3.8-1.7 1.2-3.4 2.2-5.1 3.3-1.1.8-2.2 1.5-3.2 2.5-.5.5-.9 1-1.3 1.6-.1.2-.3.3-.3.5-.2 2.5-.5 5-1.3 7.5-.3 1.2-.6 2.3-1 3.5-.8 2.6-.8 5.4-.7 8.1.2 2.3.3 4.5.3 6.8-.1 2.9-.6 5.8-.8 8.7-.1 1.6-.2 3.1-.1 4.7.1-1.4.1-2.7.4-4.1 0-.3.2-.7 0-1.1.2-1.7.7-3.5 1.3-5.1.8-2.2 1.7-4.3 2.7-6.4.9-1.7 2-3.4 2.9-5.1 1.2-2.2 2.1-4.6 3-6.9.2-.5.3-1 .7-1.4.1.7-.2 1.4-.4 2.1-.6 1.9-1.3 3.7-2.1 5.5-1 2-2.2 3.8-3.3 5.8-1.3 2.4-2.4 4.8-3.3 7.3-.3.8-.6 1.5-.7 2.3-.2 1.1-.4 2.3-.6 3.4-.2 1.2-.2 2.5-.3 3.8 0 .5-.3 1-.2 1.5.3 1.7.5 3.5.5 5.2.4-1 .7-2 1.2-3 .9-1.6 1.8-3.3 2.7-4.9 1.1-2.2 2.3-4.3 3.4-6.4.1-.2.3-.3.4-.5 0 1-.6 1.8-.9 2.7-1 1.9-1.9 3.9-2.9 5.7-1.2 2.2-2.6 4.4-3.5 6.7-.2.5-.4 1-.4 1.5 0 2-.2 4-.8 5.9-.7 2.6-2.2 5-2.7 7.7-.4 2.2-.1 4.5-.1 6.7-.2 3.1-2 5.9-2.1 9.1-.1 1.5-.2 2.9-.3 4.4-.1.6.4 1.1.6 1.7.4 1.7.6 3.5 0 5.2-.1.3-.3.9-.8.6.6-1.7.7-3.5.3-5.3-.1-.5-.3-.9-.5-1.4-.3-.5-.2-1-.2-1.5 0-1.1.1-2.2.1-3.3.1-.8.1-1.7.3-2.5.5-2.5 1.7-4.8 1.8-7.4 0-2-.2-4 0-6.1-1.1 2.2-2.2 4.5-3.1 6.8-.2.5-.4 1-.8 1.3 0-.4.2-.8.4-1.2 1.2-3.2 2.6-6.2 4.1-9.3l.9-2.4c.8-1.8 1.5-3.6 1.9-5.5.2-1.3.3-2.6.4-3.9 0-.9-.3-1.7-.3-2.5-.2-1.5-.2-3-.2-4.5-.3 1.7-.8 3.4-1.6 5-.8 1.7-1.6 3.4-2.5 5l-2.1 3.6c-.2.3-.4.5-.7.7.1-.5.5-.8.7-1.3.7-1.2 1.4-2.4 2-3.6.9-1.8 1.8-3.6 2.5-5.4.7-1.9 1.2-3.8 1.5-5.7.1-.6 0-1.2.1-1.8 0-2.5.3-4.9.6-7.4.2-1.2.3-2.4.4-3.6.1-3-.3-6-.4-9 0-1.4.1-2.9.2-4.3-.7 1.6-1.4 3.2-2.2 4.8-1.5 3-3.2 5.9-5 8.7-.1.2-.3.5-.5.6.1-.6.5-1 .8-1.6 2-3.6 4-7.1 5.7-10.9.8-1.8 1.7-3.6 2.2-5.5.4-1.8 1.1-3.6 1.4-5.4.2-1.2.4-2.4.5-3.5.1-2.6-.1-5.3.2-8h-.4c.1-.5.5-.8.6-1.3.1-.8.3-1.6.5-2.4.3-1.2.5-2.4.8-3.5.2-.7.4-1.5.5-2.2h.2c.1 1.2-.4 2.3-.6 3.5l-.9 4.5c1.3-1 2.8-1.9 4.2-2.8 1.5-.9 3-1.8 4.4-2.8 1.9-1.3 3.6-2.9 5.3-4.3 1-.5 2.2-1.6 3.4-2.7z"/><path class="st23" d="M25.8 183c.1.1.2.1.3.2.7.2.7 1.2.7 1.8h-.2c-.1-.5-.3-1.1-.5-1.5 0 .5-.1.9-.3 1.3 0-.6.1-1.2 0-1.8z"/><path class="st16" d="M22.5 183.6c.5.6 1.1 1.1 1.8 1.6s1.4 1 2.2 1.3c-.2.1-.4.2-.7.1-1-.4-1.8-1-2.4-1.8-.4-.4-.8-.7-.9-1.2zM15.8 184.2c1.2.6 2.3 1.4 3.1 2.4-.4-.2-.8-.5-1.2-.8-.7-.5-1.5-.9-1.9-1.6zM19.8 184.9c.9.4 1.6 1.1 2.5 1.7.2.1.3.3.5.5-.6-.2-1-.5-1.5-.8-.7-.4-1.1-.9-1.5-1.4z"/><path class="st30" d="M-13.6 190.5c.7.6 1.2 1.5 1.7 2.3 1.1 1.7 2.4 3.3 3.6 4.9 1.1 1.6 2.2 3.2 3.2 4.8 1.2 2 2.4 4.1 3.3 6.2h-.3c-2.4-4.8-5.6-9.2-8.7-13.6-1.1-1.4-1.9-3-2.8-4.6zM77.8 203.5c1.2-1.7 2.4-3.3 3.7-4.9-.2.8-.7 1.4-1.1 2.1-1.2 1.8-2.4 3.6-3.7 5.4-2.1 2.9-4.7 5.5-7.3 8-1 .9-1.9 1.8-3 2.5 0-.1 0-.2-.1-.3 1.3-1 2.4-2.2 3.5-3.3 1.3-1.4 2.7-2.8 3.9-4.2 1.5-1.6 2.8-3.4 4.1-5.3zM75.8 213c.4-.6.7-1.3 1.2-1.8-.1.7-.5 1.3-.8 2-.9 1.6-1.9 3.3-3 4.8-1.3 1.7-2.8 3.4-4.3 5-2.3 2.5-4.7 5-7.3 7.1-.1.1-.3.1-.5.1.7-.8 1.6-1.4 2.3-2.2 2.7-2.6 5.2-5.3 7.6-8.1 1.8-2.1 3.4-4.5 4.8-6.9zM-10.7 216c1.4 1.5 2.5 3.2 3.9 4.8 1.3 1.5 2.7 3.1 4 4.5 1.2 1.3 2.6 2.6 3.8 3.9.1.2.4.4.1.5-2.7-2.4-5.2-4.9-7.6-7.6-1.1-1.2-2.1-2.5-3-3.9-.4-.6-.9-1.4-1.2-2.2zM-7.1 226.9c.7.1 1.1.7 1.5 1.2 1.2 1.5 2.3 3 3.5 4.4 1.4 1.8 2.9 3.6 4.3 5.5.3.5.7.9.8 1.5-.4-.2-.6-.7-.9-1-2.2-2.8-4.7-5.4-6.7-8.3-.9-1.1-1.6-2.3-2.5-3.3zM67.8 231.1c.4-.6.7-1.3 1.2-1.8-.3 1.2-.9 2.2-1.5 3.2-1.5 2.5-3.5 4.7-5.5 6.8-3.6 3.9-7.3 7.8-10.4 12-.3.4-.7.9-1.1 1.3.2-.6.6-.9.9-1.4 2-2.9 4.3-5.6 6.7-8.2 2-2.3 4.1-4.5 6-6.8 1.4-1.6 2.6-3.3 3.7-5.1z"/><path class="st35" d="M-2.2 244.6c.2.1.4.2.5.4.9 1.6 1.6 3.2 2.4 4.9.7 1.7 1.5 3.4 2.1 5.1 1 3.1 2 6.2 2.8 9.3.1.5.3 1 .4 1.5.1.2.1.6-.2.5-.3-.8-.5-1.6-.7-2.4-1.1-3.9-2.4-7.8-4-11.6-.8-1.8-1.5-3.6-2.3-5.4-.5-.7-.9-1.4-1-2.3z"/><path class="st30" d="M-1.3 259.4c.6.1.9.6 1.2 1 1.8 2.5 3.5 5.2 4.8 8 1.5 3.1 3 6.3 4.6 9.4.1.3.4.6.2.9-.7-1-1.2-2.2-1.8-3.3-1.7-3.3-3.3-6.7-5.1-9.9-.8-1.4-1.7-2.8-2.5-4.2-.5-.6-.9-1.3-1.4-1.9zM42.1 278.7c.4-1 .6-2.1.9-3.1h.2c-.2 1.7-.8 3.3-1.4 4.9-.6 1.5-1.2 3-2.2 4.3-.4.4-.8.9-1.3 1.1l1.2-1.8c1.2-1.7 1.9-3.6 2.6-5.4zM36.7 277.6c.1-.2.2-.5.3-.7.1.5 0 .9-.1 1.4-.3 1.7-.8 3.4-1.4 5.1-.3 1-.7 2-1.3 2.8-.2.3-.4.5-.7.7.2-.6.5-1 .8-1.6 1.1-2.4 1.9-5.1 2.4-7.7zM18.4 277.7c.3.5.3 1.1.4 1.7.4 2.1.7 4.1.9 6.2.1 2.1.4 4.2 0 6.2h-.2c0-1.5 0-2.9-.2-4.4-.2-2-.3-4.1-.6-6.1-.1-1.2-.4-2.4-.3-3.6zM11.2 285.1c.4.2.5.7.6 1.1.6 1.6 1.3 3.2 2 4.8.2.4.4.8.5 1.3-1-.9-1.5-2.1-2-3.3-.4-1-.7-1.9-1-2.9 0-.4 0-.7-.1-1z"/><path class="st36" d="M28.1 316c1-.3 2-.3 3-.2.6.1 1.3 0 1.9.3v.2c-1.2.1-2.3-.2-3.5-.1-.8.1-1.6.2-2.4.5-.5.1-1 .3-1.5.4.7-.6 1.6-.8 2.5-1.1zM28.4 317.8c1.4-.4 2.9-.3 4.3-.1.1 0 .2.1.3.1 0 .2-.2.2-.3.2-.7.1-1.3-.1-2 0-1.2 0-2.4.2-3.5.5-.5.1-.9.4-1.4.4.7-.7 1.7-.9 2.6-1.1z"/><path class="st37" d="M11.1 327.4c.5-.3 1.1-.2 1.7-.2 1-.1 1.9.1 2.9.1.8.1 1.7.1 2.4.5.4.2.9.4 1.3.6-.5 0-.9-.2-1.3-.3-1.1-.4-2.4-.4-3.6-.5s-2.3.1-3.4-.2zM11.5 328.7c.1-.1.3-.2.5-.2 1.2-.1 2.4-.1 3.5.1s2.3.4 3.2 1.1c-.7 0-1.3-.4-1.9-.5-1.2-.3-2.4-.4-3.6-.4-.6-.1-1.1-.1-1.7-.1z"/><path class="st19" d="M63.2 49.2c-.2.2-.4.4-.5.6-.7 1.2-1.6 2.3-2.5 3.4-1.1 1.1-2.2 2.2-3.5 3.2-.8.6-1.6 1.1-2.4 1.5-1.3.8-2.7 1.4-4.2 1.6l-1.5.3c-2 .1-3.9-.4-5.7-1.1-1.5-.8-3.1-1.6-4.2-2.9-.8-.9-1.5-1.9-2.1-2.9-1.1-2-1.7-4.2-2-6.5-.1-1.3-.1-2.5-.1-3.8-.2.6-.4 1.3-.7 1.9h.1c-.2 3.1-.2 6.4 1.1 9.2.5 1 1 2 1.7 2.8.6.7 1.1 1.4 1.8 2 .4.3.7.6 1 1 .4.3.8.5 1.2.9.5.4 1.2.6 1.8.9.9.4 1.8.6 2.8.8 1 .3 2.1.3 3.2.1.7 0 1.4-.1 2-.3.8-.2 1.6-.3 2.4-.7 1.5-.6 3-1.2 4.3-2.3s2.3-2.5 3.3-4c1.1-1.7 2-3.6 2.6-5.5.1-.1.1-.2.1-.2z"/></g></svg>