<svg xmlns="http://www.w3.org/2000/svg" xmlns:xlink="http://www.w3.org/1999/xlink" viewBox="-49 141 512 512" style="enable-background:new -49 141 512 512" xml:space="preserve"><defs><path id="a" d="M-49 141h512v512H-49z"/></defs><clipPath id="b"><use xlink:href="#a" style="overflow:visible"/></clipPath><path d="M-124.4 771.8s89.6-215.9 294.9-242.7c205.3-26.8 184.1-186 184.1-186S319 76.9 702.5 127.1 870.7 846 870.7 846L234.1 987.2l-358.5-215.4z" style="opacity:.75;clip-path:url(#b);fill:#4a00e0;enable-background:new"/><defs><path id="c" d="M-49 141h512v512H-49z"/></defs><clipPath id="d"><use xlink:href="#c" style="overflow:visible"/></clipPath><path d="M158.2 1572.5s-414-277.4-389.1-415.9-62-346.9 310.1-605.6 462.3 105.7 462.3 105.7-239.4 828.6-264.8 816.7c-25.3-11.8-118.5 99.1-118.5 99.1z" style="opacity:.75;clip-path:url(#d);fill:#4a00e0;enable-background:new"/><defs><path id="e" d="M-49 141h512v512H-49z"/></defs><clipPath id="f"><use xlink:href="#e" style="overflow:visible"/></clipPath><path d="M-238.4 824.3s222-252.8 416.9-280.4 447.2-67.8 438-259.6 282.6 625.6 282.6 625.6-848.2 140.7-854.2 140.9c-6 .3-283.3-226.5-283.3-226.5z" style="opacity:.75;clip-path:url(#f);fill:#4a00e0;enable-background:new"/></svg>