<svg version="1.1" id="Layer_1" xmlns="http://www.w3.org/2000/svg" x="0" y="0" viewBox="0 0 1000 323.7" style="enable-background:new 0 0 1000 323.7" xml:space="preserve"><style>.st0{fill:#fff}</style><path class="st0" d="M403 5.7 352.3 319h81.1L484 5.7zM647.4 131.3c-28.3-14.3-45.7-24-45.7-38.7.3-13.3 14.7-27 46.7-27 26.3-.7 45.7 5.7 60.3 12L716 81l11-67.7C711 7 685.7 0 654.4 0c-80 0-136.3 42.7-136.7 103.7-.7 45 40.3 70 71 85 31.3 15.3 42 25.3 42 39-.3 21-25.3 30.7-48.6 30.7-32.3 0-49.7-5-76-16.7l-10.7-5L484 307c19 8.7 54 16.3 90.3 16.7 85 0 140.3-42 141-107 .4-35.7-21.3-63-67.9-85.4zM934.7 5.7H872c-19.3 0-34 5.7-42.3 26L709.4 319h85s14-38.7 17-47h104c2.3 11 9.7 47 9.7 47h75L934.7 5.7zM834.7 208c6.7-18 32.3-87.7 32.3-87.7-.3.7 6.7-18.3 10.7-30l5.7 27s15.3 75 18.7 90.7h-67.4zM284.7 5.7l-79.3 213.6-8.7-43.3-28.4-144c-4.7-20-19-25.7-36.7-26.3H1.3L0 12c31.8 8.1 60.2 19.8 85.1 34.4l72.2 272.2H243l127.3-313h-85.6z"/></svg>