<svg version="1.1" id="Layer_1" xmlns="http://www.w3.org/2000/svg" x="0" y="0" viewBox="0 0 2500 2500" style="enable-background:new 0 0 2500 2500" xml:space="preserve"><style>.st1{fill:#fff}</style><path d="M0 0h2500v2500H0V0z" style="fill:none"/><path class="st1" d="M1889.6 1337.6h127.8l-46.1-223.7z"/><path class="st1" d="M2141.5 419h-1783C179.8 419 35 563.9 35 742.5v1014.9c0 178.7 144.9 323.5 323.5 323.5h1782.9c178.7 0 323.5-144.9 323.5-323.5V742.5c.1-178.6-144.7-323.5-323.4-323.5zM594.3 1549.1l-135.2-519.4c-87.8-52.7-162.8-68.3-162.8-68.3l2.9-10.1h245.3c67.5 0 73.8 53.8 73.8 53.8l52.4 268.9 17.6 88.5 148.4-411.2h167.5l-247.6 597.9H594.3zm373.2 0 97.3-597.8h155.7l-97.3 597.8H967.5zm427.3 10.3c-106.2 0-175.7-33.8-175.7-33.8l23.1-134.2c63.7 51.2 256.8 65.7 256.8-15.4s-215.3-83-215.3-237.5c0-164.2 183.4-197.9 260.7-197.9 71.5 0 140 26.1 140 26.1l-22.2 128.4c-66.6-36.7-218.2-45.4-218.2 22.2s217.2 82.1 217.2 237.5c0 149.6-160.2 204.6-266.4 204.6zm666-10.3-18.2-88.8h-197.9l-32.4 88.8H1650l232.1-553.3s14.1-44.6 71.9-44.6h125.1l124.6 597.9h-142.9z"/></svg>