<svg version="1.1" id="Layer_1" xmlns="http://www.w3.org/2000/svg" x="0" y="0" viewBox="0 0 192.8 192.8" style="enable-background:new 0 0 192.8 192.8" xml:space="preserve"><style>.st0,.st2,.st4{fill:#9ea176}.st2,.st4{fill-rule:evenodd;clip-rule:evenodd}.st4{fill:#fff}</style><path class="st0" d="M60.4 58.8H60c-.3 0-.5-.2-.5-.5s.2-.5.5-.5h.4c.3 0 .5.2.5.5.1.2-.2.5-.5.5zm-16.5-21c-.3 0-.5-.2-.5-.5v-.2c0-.3.2-.5.5-.5s.5.2.5.5v.2c0 .3-.3.5-.5.5z"/><path d="M158.9 81v-.8c1-19.5-1.8-41.7-8.5-66.4-36.6-11.9-72.7-11.9-108.2-.2C30.1 58.7 30.9 96.8 44.8 128c.2.3.3.5.4.9 0 0 1.2 2.4 3.7 7.2h-.1c.3.6.8 1.3 1.1 2 10.3 18.3 25.7 34 46.2 47.1 34.4-21.9 54.7-51.1 60.9-87.5.1-.4.1-.9.2-1.2h-.1l1.8-15.5z" style="fill-rule:evenodd;clip-rule:evenodd;fill:#c6232d"/><path class="st2" d="M170.1 15.5c-49.4-20.7-98.5-20.7-147.5.2-22 81.4 2.6 140.4 73.9 177.1 71.2-36.9 95.7-96.1 73.6-177.3zm-16.3-.6c4.1 1.4 8 2.8 11.8 4.5v.1c5.8 22.2 8.1 42.6 6.7 61.5h-60.5c-4.7-2.8-9.8-4.1-15.5-4.1l-1.1.1c-5.3 0-10.2 1.3-14.5 4H51.6c-2 .1-3.7.7-4.9 2-1.3 1.1-2 2.5-2.1 4.1h-3.1c-2.8 2.9-2.8 5.7 0 8.6h3.1c.1 1.6.8 3 2.1 4.3 1.4 1.2 3 1.9 4.8 1.9.1 0 .2 0 .3.1l14.3-.8c-.4 2.2-.7 4.4-.6 6.6 0 1.5.1 2.8.2 4-5.3 7.1-12 12.8-20.3 17.2l-2.5 1.3c-1.9.9-4.2 1.8-6.7 2.8C18.1 102.4 15 64.5 27.1 19.4c3.7-1.6 7.5-3.1 11.4-4.4l3.9-1.3C77.9 1.9 114 2 150.6 13.9l3.2 1zM87 108c0 .8.1 1.5.2 2.1l-12.9 7.5c-1.3-2.9-1.9-6.1-1.9-9.5 0-3.5.6-6.7 1.9-9.6l12.9 7.5c-.1.6-.2 1.3-.2 2zm9.2-4h.1c.5 0 1 .1 1.5.3.2.1.6.3 1.1.7l.2.2c.6.6 1 1.3 1.1 2.2l-.1 1.4c-.2.7-.5 1.3-1.1 2-.1 0-.2.1-.2.2-.5.4-.9.6-1.3.8-.4.1-.9.2-1.3.2l-1.2-.2c-.5-.2-1-.4-1.4-.8-.1-.1-.2-.1-.2-.2-.6-.6-1-1.3-1.1-2l-.1-.8.1-.6c.1-.8.5-1.6 1.1-2.2 0-.1.1-.2.2-.2.4-.4.8-.6 1.2-.8.3 0 .8-.2 1.4-.2zm-2.7-4.9c-1.3.4-2.5 1.1-3.5 2.1l-12.9-7.5c.7-1 1.5-1.8 2.3-2.6 3.9-4 8.6-6.3 14.1-6.9v14.9zm-14.1 25.8c-.8-.8-1.6-1.7-2.4-2.7l12.9-7.5c1 .9 2.2 1.6 3.5 2.1v14.9c-5.4-.5-10-2.8-14-6.8zm-7.7 1.6c.5.7 1.4 1.7 2.7 3.1 6.1 6 13.3 9 21.9 9 8.5 0 15.8-3 21.8-9 6-6.1 9.1-13.4 9.1-21.9 0-1.2-.1-2.3-.2-3.4l12.5-2.7c2.5-.7 3.8-2.1 4-4.1l26.8-1.8c-7.4 38.9-32.1 69.4-74 91.3-.1 0-.2.1-.2.1l-.4-.2c-25.1-13.4-43.9-29.6-56.4-48.7 1.9-.3 4.2-.7 7-1.3l2.6-.7c6.8-2.1 14.4-5.3 22.8-9.7zm27.3 5.4V117c1.4-.5 2.6-1.2 3.6-2.1l13 7.5c-.5.6-1.2 1.5-2.3 2.6-4 4-8.8 6.3-14.3 6.9zm16.6-38.2-12.9 7.5c-1.1-1-2.4-1.8-3.7-2.1V84.2c5.5.5 10.3 2.8 14.3 6.9 1.1 1.1 1.9 1.9 2.3 2.6zm2.8 4.7c1 2.4 1.7 4.9 1.9 7.5l.1 2.1c0 3.5-.7 6.8-2 9.7l-12.9-7.6.2-.6.1-1.6c0-.5-.1-1.2-.2-2.1l12.8-7.4z"/><path class="st2" d="m105.5 109.5 14.7-3.6c-.2-2.6-.8-5.1-1.9-7.5l-12.9 7.5c.1.9.2 1.6.2 2.1l-.1 1.5zm-2.8-8.4 12.9-7.5c-.5-.6-1.2-1.5-2.3-2.6-4.1-4.1-8.9-6.3-14.3-6.9V99c1.3.4 2.6 1.1 3.7 2.1zm-3.8 3.9c-.5-.4-.9-.6-1.1-.7-.5-.2-1-.3-1.5-.3h-.1c-.6.1-1.1.2-1.3.3-.4.1-.8.4-1.2.8-.1 0-.2.1-.2.2-.6.6-1 1.4-1.1 2.2l-.1.6.1.8c.1.7.4 1.3 1.1 2 0 .1.1.1.2.2.4.4.9.6 1.4.8l1.2.2c.4 0 .9-.1 1.3-.2.4-.2.9-.4 1.3-.8.1-.1.1-.2.2-.2.5-.6.9-1.3 1.1-2l.1-1.4c-.2-.9-.5-1.6-1.1-2.2l-.3-.3zm-8.9-3.8c1-1 2.1-1.7 3.5-2.1V84.2c-5.5.6-10.1 2.9-14.1 6.9-.7.6-1.5 1.5-2.3 2.6l12.9 7.5zm-3 6.8c0-.8.1-1.4.2-2l-12.9-7.5c-1.3 2.9-1.9 6.1-1.9 9.6 0 3.4.6 6.6 1.9 9.5l12.9-7.5c-.1-.7-.2-1.4-.2-2.1z"/><path d="M161.1 95.8v.1c-6.5 37.4-28.1 67.8-64.8 91.1 41.9-21.9 66.6-52.4 74.1-91.6l-9.3.4zM46 136.3l-6.7 1.8c12.6 19.1 31.4 35.3 56.4 48.7-22-14.1-38.5-30.9-49.7-50.5zM165.6 19.4c-3.8-1.6-7.7-3.1-11.8-4.5 7 23.9 9.9 46.1 8.8 66.6l9.6-.1c1.4-19.1-.8-39.7-6.6-61.9v-.1zM38.3 14.9c-3.9 1.3-7.7 2.8-11.4 4.4-12 45-8.9 83.1 9.4 114.1l6.7-2.7C27.2 98.6 25.6 60 38.3 14.9z" style="fill-rule:evenodd;clip-rule:evenodd;fill:#355170"/><path class="st4" d="m53.8 31.4-9.9 1.3c.6 1.2.6 2.7-.1 4.4v.2c-2.3 7.4-4.9 14.3-8 20.9H43l1.2-5.4H51l1 5.4h8c-2.5-8.4-4.5-17.4-6.2-26.8zm-3.6 17h-4.5l2.9-8.6 1.6 8.6z"/><path class="st0" d="M60 58.8h-8c-.3 0-.5-.2-.5-.4l-.9-4.9h-5.9l-1.1 5c-.1.2-.3.4-.5.4H36c-.2 0-.4-.1-.5-.2-.1-.2-.1-.3 0-.5 3-6.4 5.6-13.2 8-20.8v-.3c.6-1.5.7-2.8.1-3.9-.1-.2-.1-.3 0-.5s.2-.3.4-.3l9.9-1.3c.3 0 .6.2.6.4 1.7 9.5 3.8 18.5 6.2 26.8 0 .2 0 .3-.1.5-.3-.1-.4 0-.6 0zm-7.5-1.1h6.8C57 49.8 55 41.1 53.4 32l-8.7 1.2c.4 1.2.3 2.6-.3 4.1v.2c-2.3 7.4-4.8 14-7.7 20.2h5.9l1.1-5c.1-.2.3-.4.5-.4H51c.3 0 .5.2.5.4l1 5zM50.2 49h-4.5c-.2 0-.3-.1-.4-.2-.1-.1-.1-.3-.1-.5l2.9-8.6c.1-.2.3-.4.5-.4s.4.2.5.4l1.6 8.6c0 .2 0 .3-.1.4 0 .2-.2.3-.4.3zm-3.7-1.1h3.1l-1.1-6-2 6z"/><path class="st4" d="M68 58.2c-1.3-10.6.7-15.5 6-14.7l.4-4.8c-2.1-.9-4.4.3-6.9 3.7l.2-3.2-6.4.3c.6 6.5.3 12.8-.8 18.8l7.5-.1z"/><path class="st0" d="M68 58.8h-7.5c-.2 0-.3-.1-.4-.2-.1-.1-.1-.3-.1-.4 1.1-5.9 1.4-12.2.8-18.6 0-.1 0-.3.1-.4.1-.1.2-.2.4-.2l6.4-.3c.2 0 .3.1.4.2.1.1.2.3.2.4l-.1 1.6c2.2-2.5 4.4-3.4 6.5-2.5.2.1.4.3.3.5l-.4 4.8c0 .1-.1.3-.2.4-.1.1-.3.1-.4.1-1.6-.3-2.8 0-3.8.9-1.9 1.8-2.5 6.3-1.6 13.1 0 .2 0 .3-.1.4-.2.1-.4.2-.5.2zm-6.9-1.1h6.3c-.8-7-.1-11.4 2-13.4 1-1 2.4-1.4 4.1-1.3l.3-3.9c-1.8-.5-3.7.7-5.9 3.6-.1.2-.4.3-.6.2-.2-.1-.4-.3-.4-.5l.1-2.6-5.2.2c.5 6.1.3 12.1-.7 17.7z"/><path class="st4" d="M145.7 58.2h7.5c-1.6-7.9-2.8-16.4-3.5-25.4l-7.1-1.3c2 8.8 3 17.7 3.1 26.7z"/><path class="st0" d="M153.2 58.8h-7.5c-.3 0-.5-.2-.5-.5 0-8.9-1.1-17.9-3-26.6 0-.2 0-.4.1-.5.1-.1.3-.2.5-.2l7.1 1.3c.2 0 .4.2.4.5.7 8.9 1.9 17.4 3.5 25.3 0 .2 0 .3-.1.4-.2.2-.4.3-.5.3zm-7-1.1h6.3c-1.5-7.7-2.7-15.9-3.3-24.4l-5.9-1.1c1.8 8.4 2.8 16.9 2.9 25.5z"/><path class="st4" d="m106.5 54.6-1.8-2c-4.1 3.2-7 2.6-8.7-1.5 2.3-1 5.8-2.4 10.4-4.2 0-2.2-.7-4.3-2.1-6.3-1.5-2-3.4-3-6.1-3-2.6-.1-4.9 1-7 3-2 2-3 4.5-3 7.5 0 2.8 1 5.3 3 7.4 1.5 1.4 3.1 2.4 4.8 2.8h4.9c1.8-.4 3.4-1.4 4.8-2.8l.8-.9zm-8.7-13.4c2 .5 2.7 1.9 2.1 4l-4.9 2c-.5-3.3.5-5.4 2.8-6z"/><path class="st0" d="M98.5 59c-.8 0-1.5-.1-2.6-.3-1.8-.4-3.5-1.5-5.1-3-2.1-2.2-3.1-4.8-3.1-7.8 0-3.1 1-5.7 3.1-7.8 2.2-2.2 4.7-3.2 7.4-3.2 2.8.1 4.9 1.1 6.5 3.2 1.5 2.1 2.2 4.3 2.2 6.6 0 .2-.1.4-.3.5-1.6.6-3 1.2-4.4 1.8-2.3.9-4.1 1.7-5.5 2.3.7 1.5 1.6 2.4 2.6 2.6 1.3.4 3-.3 5-1.8.2-.2.5-.1.7.1l1.8 2c.2.2.2.5 0 .7l-.8.8c-1.5 1.5-3.2 2.5-5.1 3-1 .3-1.7.3-2.4.3zm-2.3-1.3c1 .2 1.7.3 2.4.3.6 0 1.3-.1 2.3-.3 1.6-.4 3.2-1.3 4.6-2.7l.4-.4-1.2-1.3c-2.1 1.6-4 2.1-5.6 1.7-1.5-.4-2.7-1.7-3.5-3.7-.1-.3 0-.6.3-.7 1.5-.6 3.5-1.4 6.1-2.5 1.2-.5 2.6-1 4-1.6-.1-2-.7-3.8-2-5.6-1.3-1.8-3.2-2.7-5.6-2.8-2.5 0-4.6.9-6.6 2.9-1.9 1.9-2.8 4.3-2.8 7.1 0 2.7.9 5 2.8 7 1.2 1.3 2.7 2.2 4.4 2.6zm10.2-10.9zm-11.4 1c-.1 0-.2 0-.3-.1-.1-.1-.2-.2-.3-.4-.5-3.7.6-5.9 3.2-6.7h.3c1.1.3 1.9.8 2.4 1.6s.5 1.8.1 3.1c0 .2-.2.3-.3.3l-4.9 2c-.1.2-.2.2-.2.2zm2.8-6.1c-1.8.6-2.6 2.1-2.4 4.7l4-1.7c.2-.8.2-1.5-.1-2-.2-.4-.7-.7-1.5-1zm2.1 3.5z"/><path class="st4" d="M125.5 58.2c-.9-4.7-1.2-9.8-1.1-15.3-2.8-5.3-6.6-5.9-11.3-1.8l-.5-2.7-6-.1c1.5 5.5 1.7 12.1.9 19.9h7c-.7-4.2-.9-8.9-.5-13.9 1.6-2.4 3-2.4 4.2 0 .3 4.6.3 9.2 0 13.9h7.3z"/><path class="st0" d="M125.5 58.8H117.9c-.1 0-.1-.1-.2-.1-.1-.1-.1-.1-.1-.2v-.2c.3-4.5.3-9.1 0-13.7-.5-.9-1-1.4-1.4-1.4-.5 0-1.1.5-1.7 1.5-.3 5-.1 9.6.5 13.6V58.6c0 .1-.1.2-.1.2-.1.1-.1.1-.2.1h-7.5c-.1 0-.1-.1-.2-.1-.1-.1-.1-.1-.1-.2v-.2c.8-7.8.5-14.4-.9-19.7 0-.2 0-.3.1-.5.1-.1.3-.2.4-.2l6 .1c.3 0 .5.2.5.4l.4 1.8c2.2-1.8 4.3-2.5 6.2-2.2 2 .4 3.7 1.9 5.2 4.7 0 .1.1.2.1.3-.1 5.7.2 10.6 1.1 15.2.1.1-.1.4-.5.5.1 0 .1 0 0 0zm-6.8-1.1h6.1c-.8-4.4-1.1-9.2-1-14.6-1.3-2.4-2.7-3.7-4.4-4-1.7-.3-3.8.5-6 2.5-.1.1-.3.2-.5.1s-.3-.2-.4-.4L112 39l-4.9-.1c1.3 5.2 1.5 11.5.8 18.8h5.8c-.6-4-.8-8.5-.4-13.4 0-.1 0-.2.1-.3.9-1.4 1.8-2.1 2.8-2.1.9 0 1.7.7 2.4 2.1 0 .1.1.1.1.2.3 4.6.3 9.1 0 13.5z"/><path class="st4" d="M86.9 42.7v-3.8c-5.6-2-9.8-1-12.7 3.2l-.2.2c-1.3 2.3-.8 4.2 1.6 5.9 5.2 2 7.4 3.7 6.7 4.8l-.1.3c-2 2.1-5 1.5-9-1.8l-.1 5.3c1.5.7 2.8 1.2 3.9 1.5 2.1.5 4.1.5 5.9 0 1.7-.6 3.3-1.7 4.8-3.4 2.5-4.2.3-7.7-6.6-10.5-2.1-.9-2.1-1.8-.1-2.7 1.4-.3 3.3 0 5.9 1z"/><path class="st0" d="M80 59.2c-1 0-2.1-.1-3.2-.4-1.2-.4-2.5-.9-3.9-1.5-.2-.1-.3-.3-.3-.5l.1-5.3c0-.2.1-.4.3-.5.2-.1.4-.1.6.1 3.7 3.1 6.4 3.8 8.3 1.9 0-.1 0-.2.1-.2.1-.1.1-.2 0-.3-.2-.5-1.2-1.7-6.4-3.7 0 0-.1 0-.1-.1-1.3-.9-2.1-1.9-2.4-3-.3-1.1-.1-2.3.7-3.6 0 0 0-.1.1-.1l.1-.1c3-4.4 7.5-5.5 13.3-3.4.2.1.4.3.4.5v3.8c0 .2-.1.3-.2.4-.1.1-.3.1-.5.1-2.3-.9-4.1-1.2-5.5-1-1 .4-1.2.7-1.2.8 0 0 0 .3 1.3.9 4.3 1.7 6.8 3.7 7.6 6.1.5 1.6.3 3.3-.8 5.2 0 0 0 .1-.1.1-1.6 1.7-3.3 2.9-5 3.5-1.3.1-2.3.3-3.3.3zm-2.9-1.5c2 .5 3.9.5 5.6 0 1.6-.6 3.1-1.6 4.6-3.2.9-1.5 1.1-2.9.7-4.2-.7-2-3-3.8-7-5.4-.9-.4-2-1-2-1.9 0-.9 1.1-1.5 1.9-1.8h.1c1.4-.3 3.2 0 5.4.7v-2.6c-5.2-1.8-9-.8-11.7 3.1 0 0 0 .1-.1.1l-.1.1c-1.1 2-.7 3.6 1.4 5 5.7 2.3 6.8 3.6 7 4.4.1.4.1.8-.2 1.2 0 .1-.1.2-.1.3-2.1 2.2-5.1 1.8-8.9-1.1l-.1 3.9c1.2.7 2.4 1.1 3.5 1.4z"/><path class="st4" d="M126.9 39.7c0 1.2 0 2.8.1 5.1 5-3.1 7.9-3.1 8.7.4-7.4 1.5-10.6 4.2-9.8 8.1.6 2.6 1.6 4.3 3.1 5 1.8.9 3.9.9 6.2 0l1.8-1.1 1.3 1.2h6v-.1c-1.4-3.8-2.1-8.4-2.1-13.9-1.5-4.6-6.6-6.1-15.3-4.7zm9.3 9 .3 5.3c-2.7 1.2-4.1.5-4.5-2 .5-2.4 1.9-3.4 4-3.2h.2z"/><path class="st0" d="M131.9 59.4c-1.1 0-2.2-.2-3.1-.7-1.6-.8-2.7-2.6-3.4-5.4-.3-1.5-.1-2.8.7-4 1.4-2.1 4.3-3.6 8.9-4.6-.3-.8-.7-1.3-1.2-1.5-1.3-.5-3.5.1-6.5 2-.2.1-.4.1-.5 0-.2-.1-.3-.3-.3-.5l-.2-5.1c0-.1 0-.3.2-.4.1-.1.2-.2.4-.2 8.9-1.5 14.2.2 15.8 5v.2c.1 5.5.7 10 2.1 13.8.1.2 0 .3-.1.5-.1.1-.3.2-.4.2h-6c-.1 0-.3-.1-.4-.1l-1-.9-1.4.9s-.1 0-.1.1c-1.2.5-2.4.7-3.5.7zm.9-17.4c.5 0 1 .1 1.4.3 1 .4 1.7 1.4 2 2.8 0 .1 0 .3-.1.4-.1.1-.2.2-.3.2-4.6.9-7.6 2.4-8.8 4.2-.6.9-.8 2-.5 3.2.5 2.4 1.5 4 2.8 4.6 1.7.8 3.6.8 5.8 0l1.7-1.1c.2-.1.5-.1.7.1l1.1 1.1h5c-1.2-3.7-1.9-8.1-1.9-13.3-.7-2.1-2.2-3.4-4.6-4.2-2.4-.7-5.6-.8-9.6-.1l.1 3.7c2.1-1.3 3.9-1.9 5.2-1.9zm1.4 13c-.5 0-.9-.1-1.3-.3-.8-.5-1.3-1.4-1.5-2.7v-.2c.8-3.3 2.9-3.8 4.6-3.6h.1c.3 0 .5.2.6.5l.3 5.3c0 .2-.1.4-.3.5-1 .3-1.8.5-2.5.5zm-1.7-3.1c.1 1 .4 1.6.9 1.8.5.3 1.3.2 2.4-.2l-.2-4.4c-1.6 0-2.6.9-3.1 2.8z"/><path d="M96.3 139.1c-4.3 0-8.4-.8-12.1-2.3-3.7-1.5-7.1-3.8-10.2-6.9-1.2-1.2-1.9-2.1-2.4-2.7-8.1 4.2-15.5 7.4-22.1 9.3-.5.1-.9.3-1.4.4-.2.1-.4.1-.7.2-.3.1-.6-.1-.7-.4-.1-.3.1-.6.4-.7.2-.1.5-.1.7-.2.5-.1.9-.2 1.3-.4 6.6-2 14.1-5.1 22.3-9.4.2-.1.5-.1.7.2.5.6 1.3 1.6 2.6 3 6 6 13 8.9 21.5 8.9 8.3 0 15.5-3 21.4-8.9 5.9-6 8.9-13.2 8.9-21.5 0-1.2-.1-2.3-.2-3.4 0-.3.2-.5.4-.6l12.5-2.7c2.2-.6 3.4-1.8 3.6-3.6 0-.3.2-.5.5-.5l16.7-1.2c.3 0 .6.2.6.5s-.2.6-.5.6L144 98c-.3 1.5-1.3 3.2-4.4 4.1l-12 2.6c.1 1 .1 2 .1 3 0 8.6-3.1 16.1-9.2 22.2-6.1 6.1-13.6 9.2-22.2 9.2zm2.7-6.7c-.1 0-.3 0-.4-.1-.1-.1-.2-.3-.2-.4V117c0-.2.2-.4.4-.5a9.4 9.4 0 0 0 3.5-2c.2-.2.4-.2.6-.1l13 7.5c.1.1.2.2.3.4 0 .2 0 .3-.1.4-.5.6-1.3 1.5-2.3 2.7-4.2 4-9.1 6.4-14.8 7zm.5-15.1v13.9c5.1-.7 9.6-2.9 13.4-6.7.8-.9 1.4-1.6 1.9-2.1l-12.1-6.9c-.9.8-2 1.4-3.2 1.8zm-6 15.1c-.1 0-.1 0 0 0-5.5-.6-10.4-3-14.5-7-.9-.9-1.7-1.8-2.4-2.7-.1-.1-.1-.3-.1-.4 0-.2.1-.3.3-.4l12.9-7.5c.2-.1.5-.1.6.1 1 .9 2.1 1.5 3.3 2 .2.1.4.3.4.5v14.9c0 .2-.1.3-.2.4-.1 0-.2.1-.3.1zm-15.6-10c.6.7 1.2 1.5 1.9 2.1 3.7 3.7 8.2 6 13.1 6.6v-13.9c-1.1-.4-2.1-1-3-1.8l-12 7zm-34.1 7.8c-.2 0-.4-.1-.5-.3-.1-.3 0-.6.3-.7.2-.1.6-.3.9-.5.3-.2.6-.4.9-.5 8-4.3 14.6-9.9 19.6-16.6-.1-1.1-.2-2.3-.2-3.9 0-2 .2-4 .5-6l-13.6.7c-.1 0-.2 0-.3-.1-1.9-.1-3.6-.8-5.1-2.1-1.3-1.2-2-2.6-2.3-4.1h-2.6c-.1 0-.3-.1-.4-.2-1.5-1.5-2.3-3.1-2.3-4.7s.8-3.1 2.2-4.7c.1-.1.2-.2.4-.2H44c.3-1.6 1-2.9 2.3-3.9 1.4-1.4 3.1-2.1 5.3-2.1h29c4.3-2.6 9.2-4 14.6-4.1l1.1-.1c5.8 0 11 1.4 15.7 4.1h49.6c.3 0 .5.2.5.5s-.2.5-.5.5h-49.7c-.1 0-.2 0-.3-.1-4.6-2.7-9.5-4.1-15.2-4.1l-1.1.1c-5.2.1-10 1.5-14.2 4-.1.1-.2.1-.3.1H51.6c-1.9.1-3.4.7-4.6 1.8-1.1 1-1.8 2.2-2 3.7 0 .3-.3.5-.5.5h-2.9c-2.4 2.6-2.4 5 0 7.5h2.9c.3 0 .5.2.5.5.1 1.4.8 2.8 2 3.9 1.3 1.1 2.8 1.7 4.4 1.8h.4l14.2-.7c.2 0 .3.1.4.2s.2.3.1.5c-.4 2.1-.6 4.3-.6 6.4 0 1.7.1 2.9.2 4 0 .1 0 .3-.1.4-2.6 3.5-5.6 6.7-9 9.6-3.3 2.8-7.1 5.4-11.2 7.6-.3.1-.6.3-.9.5-.3.2-.7.4-1 .5.1.3 0 .3-.1.3zm74.5-11.9c-.1 0-.2 0-.3-.1l-12.9-7.6c-.2-.1-.3-.4-.3-.6l.2-.6.1-1.5c0-.4-.1-.9-.2-1.6 0-.1 0-.3-.1-.4 0-.2.1-.4.3-.5l12.9-7.5c.1-.1.3-.1.4 0 .1 0 .3.2.3.3 1.1 2.4 1.7 5 1.9 7.7l.1 2.1c0 3.5-.7 6.8-2 9.9-.1.1-.2.3-.3.3 0 .1 0 .1-.1.1zm-12.3-8.4 12 7c1.1-2.8 1.7-5.8 1.7-8.9l-.1-2.1c-.2-2.3-.7-4.6-1.6-6.8l-12.1 7v.1c.1.7.2 1.2.2 1.7l-.1 1.6v.4zm-31.7 8.2h-.2c-.1 0-.3-.2-.3-.3-1.3-3-2-6.2-2-9.7 0-3.6.6-6.8 2-9.8.1-.1.2-.3.3-.3h.4l12.9 7.5c.2.1.3.3.3.6-.1.6-.2 1.3-.2 1.9 0 .8.1 1.4.2 2 0 .2-.1.5-.3.6L74.6 118c-.1 0-.2.1-.3.1zm.3-18.9c-1.1 2.7-1.6 5.6-1.6 8.8 0 3.1.6 6.1 1.6 8.7l12-7c-.1-.5-.1-1.1-.1-1.8 0-.6 0-1.2.1-1.8l-12-6.9zm21.7 13.2-1.3-.2h-.1c-.6-.2-1.1-.5-1.6-.9-.2-.1-.2-.2-.3-.3-.7-.7-1.1-1.5-1.1-2.2l-.1-.8v-.1l.1-.6c.1-.9.5-1.8 1.2-2.4.1-.2.2-.3.4-.4.4-.3.8-.6 1.2-.8.3-.1.8-.2 1.4-.3h.1c.7 0 1.2.1 1.7.3.3.1.8.4 1.3.8l.2.2c.7.7 1.1 1.5 1.3 2.5v.1l-.1 1.4v.1c-.2.7-.6 1.5-1.2 2.2l-.2.2-.1.1c-.6.4-1 .7-1.5.9h-.1c-.2.2-.7.2-1.2.2zm-1.1-1.2 1.1.1c.4 0 .7 0 1.1-.1.3-.1.7-.3 1.1-.7l.3-.3c.4-.6.7-1.1.8-1.6v-1.3c-.1-.7-.5-1.3-1-1.9l-.2-.2c-.6-.5-.9-.6-.9-.6h-.1c-.3-.1-.8-.2-1.3-.2H96c-.6 0-.9.1-1.1.2h-.1c-.2.1-.5.3-1 .6h-.1l-.1.1c-.5.5-.9 1.1-.9 1.8v.5l.1.7c0 .5.3 1.1.9 1.6l.1.1s.1 0 .1.1c.5.7.9 1 1.3 1.1zm-.3-6.9zm-4.9-2.6c-.1 0-.2 0-.3-.1l-12.9-7.5c-.1-.1-.2-.2-.3-.4 0-.2 0-.3.1-.4.7-1 1.5-1.9 2.4-2.7 4-4.1 8.9-6.4 14.4-7 .2 0 .3 0 .4.1.1.1.2.3.2.4V99c0 .2-.2.4-.4.5-1.3.4-2.4 1.1-3.3 2 0 .2-.2.2-.3.2zm-12.1-8.2 12 7c.9-.8 1.9-1.4 3-1.9V84.8c-5 .7-9.4 2.9-13.1 6.6-.7.7-1.3 1.4-1.9 2.1zm15.6 5.6zm9.2 2.6c-.1 0-.3 0-.4-.1-1.1-1-2.3-1.7-3.5-2-.2-.1-.4-.3-.4-.5V84.2c0-.2.1-.3.2-.4.1-.1.3-.2.4-.1 5.6.6 10.6 2.9 14.7 7 1.1 1.1 1.9 2 2.3 2.7.1.1.1.3.1.4 0 .2-.1.3-.3.4l-12.9 7.5h-.2zm-3.2-3.1c1.1.4 2.2 1 3.2 1.9l12.1-7c-.5-.6-1.1-1.2-1.9-2.1-3.8-3.8-8.3-6-13.4-6.6v13.8z" style="fill:#fff"/></svg>