<svg version="1.1" id="Layer_1" xmlns="http://www.w3.org/2000/svg" x="0" y="0" viewBox="0 0 192.8 192.8" style="enable-background:new 0 0 192.8 192.8" xml:space="preserve"><style>.st0,.st1,.st2,.st3,.st4,.st5,.st6{fill-rule:evenodd;clip-rule:evenodd;fill:#1d1d1b}.st1,.st2,.st3,.st4,.st5,.st6{fill:#e1b800}.st2,.st3,.st4,.st5,.st6{fill:#004995}.st3,.st4,.st5,.st6{fill:#a3244a}.st4,.st5,.st6{fill:#fff}.st5,.st6{fill:#db2f34}.st6{fill:#ffde00}</style><path class="st0" d="M123.2 2c-8.8 6.1-17.4 9-26.8 9-9.5 0-18-2.9-26.8-9L67.3.4 65 1.9C55 8.5 46.9 9.7 34.5 9.7c-4.3 0-8.9-.8-13.3-2.3l-2.9-1L16.4 9c-1 1.4-1.7 2.2-2.3 3-.8 1-1.6 2-2.6 3.5L10 17.9l1.7 2.3c7.6 10.1 10.4 20.4 10.4 30.2 0 18.2-9.9 34.2-17.8 42.3l-2.8 2.9 2.9 2.9c1.5 1.5 4.3 4.4 6.6 6.8 0 .1-.1 1.3-.1 1.3v.2c-.1 1.8-.1 3.5-.1 5.2 0 18.5 5.5 33.8 16.2 45.7 12.5 13.7 32 21.9 55.1 23.2 5.7 5.2 11.6 9.6 11.8 9.8l2.5 1.8 2.5-1.8c.3-.2 6.1-4.5 11.8-9.7 23.1-1.3 42.6-9.5 55.1-23.2 10.8-11.9 16.2-27.2 16.2-45.7 0-1.7 0-3.5-.1-5.2v-.2s-.1-1.1-.1-1.2c2.1-2.2 4.9-5.2 6.6-6.8l2.9-2.9-2.8-2.9c-7.8-8.1-17.8-24.2-17.8-42.3 0-9.7 2.9-20.1 10.4-30.2l1.7-2.3-1.5-2.4c-.9-1.5-1.7-2.5-2.6-3.5-.7-.8-1.4-1.7-2.3-3l-1.8-2.5-2.9 1c-4.4 1.5-9 2.3-13.3 2.3-12.4 0-20.5-1.2-30.5-7.8L125.6.7 123.2 2z"/><path class="st1" d="M96.4 187.2s-6.6-4.9-12.6-10.5c-39-1.6-71.3-23.5-68.8-69.8.1-1.2 0-1.1.2-3.2-2.2-2.4-5.9-6.2-7.9-8.2C21.3 81 37.7 47.8 15 17.7c1.5-2.4 2.6-3.2 4.8-6.3C24.3 13 29.4 14 34.4 14c13 0 21.9-1.3 32.8-8.5 8.6 6 18 9.7 29.2 9.7s20.6-3.7 29.2-9.7c10.9 7.2 19.8 8.5 32.8 8.5 5.1 0 10.1-1 14.6-2.6 2.2 3.2 3.3 3.9 4.8 6.3-22.7 30.1-6.3 63.3 7.7 77.9-2 2-5.7 5.8-7.9 8.2.2 2.1.1 2 .2 3.2 2.5 46.3-29.8 68.2-68.8 69.8-6 5.5-12.6 10.4-12.6 10.4z"/><path class="st0" d="M22.4 104.2h-.6l-.2 2-.2 1.3c-.9 17.8 3.5 32.3 13.2 42.9 11.1 12.2 29.1 19.1 52 20.1h.4c6.9 0 13.4.1 18.9 0 23-1 41-7.9 52.1-20.1 9.7-10.6 14.1-25 13.2-42.9l-.2-1.3-.2-2H22.4z"/><path class="st2" d="M23 105.4c-.1.4-.1.9-.1.9l-.2 1.2c-.1 1.5-.1 3-.1 4.4 0 15.5 4.4 28.1 13 37.6 2.1 2.3 4.4 4.3 6.9 6.2v-50.3H23zM170.1 107.6l-.2-1.2s-.1-.5-.1-.9h-19.6v50.3c2.5-1.9 4.9-4 6.9-6.2 8.7-9.5 13-22.1 13-37.6.1-1.5 0-2.9 0-4.4z"/><path class="st3" d="M64.1 105.4H42.6v50.3c6 4.4 13.2 7.8 21.5 10.1v-60.4zM128.7 105.4v60.4c8.3-2.3 15.6-5.7 21.5-10.1v-50.3h-21.5z"/><path class="st2" d="M75.7 136.4c0-7.5 4-14 9.9-17.6v-13.4H64.1v60.4c6.5 1.8 13.7 2.9 21.5 3.3V154c-5.9-3.6-9.9-10.1-9.9-17.6zM107.2 105.4v13.4c5.9 3.6 9.9 10.2 9.9 17.6 0 7.5-4 14-9.9 17.6v15.1c7.8-.4 15-1.5 21.5-3.3v-60.4h-21.5z"/><path class="st3" d="M107.2 118.8v-13.4H85.7v13.4c3.1-1.9 6.8-3 10.8-3 3.8 0 7.5 1.1 10.7 3zM85.6 154v15.1c.4 0 .8 0 1.1.1h.4c6.9 0 13.4.1 18.9 0 .4 0 .8 0 1.2-.1V154c-3.1 1.9-6.8 3-10.8 3-4 .1-7.7-1.1-10.8-3z"/><path class="st1" d="M85.8 140.2c-3.7-3.4-3.7-10.3-2.7-14.9.3-1.3.6-2.5 1-4-4.4 3.6-7.2 9-7.2 15.1 0 2.6.5 5 1.4 7.3.3 0 .7.1 1 .1 2.9 0 5.3-1.4 6.5-3.6zM105.9 141.6c-.6 3.3-4.1 5.7-7.4 7.7-3.4 2-8.9 3.1-13 3.3 3.1 2.1 6.8 3.3 10.9 3.3 7.4 0 13.8-4.1 17.1-10.1-.6-4.8-5.2-5.4-7.6-4.2z"/><path class="st1" d="M84 151.5c4.1 0 10.3-1 13.9-3.1 4.6-2.8 8.2-5.7 6.5-9.8-.9-2.1-3.7-4.5-7.5-1.8-.2 3.1-4 5.7-6.7 5.4-1.4-.2-2.5-.6-3.5-1.2-1.5 2.6-4.2 4.1-7.4 4.1h-.5c1.3 2.4 3 4.6 5.2 6.4zM96.3 124.3c3.2-1.3 7.7.4 11.1 2.3 3.2 1.8 6.6 5.1 8.4 8.7-.6-10.2-9-18.2-19.3-18.3-3 1.9-2.6 5.7-.2 7.3z"/><path class="st1" d="M95.8 136.7c-4-2.9-3.7-7.5-2-10.2.4-.7.9-1.2 1.5-1.6-2.3-1.9-2.8-5.4-.5-7.9-3.4.3-6.5 1.4-9.1 3.2-.9 3.7-1.9 7-1.9 10.8.1 5.2 2.2 9.3 6.7 9.9 2 .3 5-1.9 5.3-4.2z"/><path class="st1" d="M115.8 138.2c-1.1-4-5.1-8.5-8.9-10.6-4.7-2.6-9.9-4.1-12.1-.5-1.5 2.3-1.7 6.1 1.6 8.6 4.5-3.1 8.1-.1 9.1 2.4.3.8.5 1.5.5 2.3 2.6-.9 6.9-.3 8.3 3.8.8-1.9 1.3-3.9 1.5-6z"/><path class="st0" d="M78.6 81.7H65v19.2h4.2V93h5.7v-4h-5.7v-3.1h9.7v-4.1h-.3v-.1zM86.5 91.3c0 6 3.3 9.9 8.4 9.9 3.3 0 5.7-1.5 7.1-4.3l.1-.2-3.5-2.1-.1.2c-1 1.7-1.9 2.3-3.5 2.3-2.5 0-4.2-2.3-4.2-5.7 0-3.5 1.6-5.7 4.2-5.7 1.5 0 2.6.6 3.3 1.9l.1.2 3.8-1.8-.1-.2c-1.4-2.8-3.8-4.3-7-4.3-5.1-.1-8.6 4-8.6 9.8zM125.3 90.5c1.2-.8 1.8-2.1 1.8-3.6 0-3.2-2.3-5.2-6.1-5.2H112.2v19.2h8.7c4.3 0 6.9-2.3 6.9-6.3 0-1.8-.9-3.3-2.5-4.1zm-9.1-4.9h4.6c1.9 0 2.1.9 2.1 1.6 0 1.1-.6 1.6-1.9 1.6h-4.8v-3.2zm4.8 11.3h-4.8v-4.5h4.8c1.7 0 2.5.7 2.5 2.2 0 1.5-.8 2.3-2.5 2.3zM125.3 13.2c-9.3 5.6-18.8 8.3-29 8.4-10.2 0-19.7-2.7-29-8.4l-.2-.2-.3.2c-10.6 6-19.9 7.1-32.4 7.1-3 0-6.1-.3-9.2-.9l-1.3-.3.7 1.2c12.8 22 8.3 43.2 2.2 57.2l-.4.9h140l-.4-.9c-6.1-13.9-10.6-35.2 2.2-57.2l.7-1.2-1.3.3c-3.1.6-6.2.9-9.2.9-12.5 0-21.8-1.2-32.4-7.1l-.3-.2-.4.2z"/><path class="st4" d="M53.4 19.8c-5.9 1.4-11.9 1.8-19 1.8-2.7 0-5.4-.3-8.2-.7 3.3 5.9 5.4 11.7 6.6 17.3h20.7c-.1-.3-.1-10.2-.1-18.4zM95.8 38.1V22.8c-7.4-.1-14.4-1.6-21.3-4.6v19.9h21.3zM33.4 59.2c-1 6.7-2.9 12.8-5.1 18h25.2v-18H33.4zM74.5 77.2h21.3v-18H74.5v18z"/><path class="st5" d="M74.5 38.1V18.2c-2.5-1.1-4.9-2.3-7.4-3.8-4.7 2.6-9.1 4.3-13.6 5.4v18.3H32.8c.9 4.1 1.2 8.1 1.2 12 0 3.1-.2 6.1-.7 9h20.1v18h21v-18h21.3v-21H74.5z"/><path class="st6" d="M125.7 14.4c0 .1 0 .1 0 0v62.7h7.4V17.9c-2.5-.9-4.9-2.1-7.4-3.5zM110.9 20.9v56.3h7.4V18.3c-2.5 1-4.9 1.9-7.4 2.6zM97 22.8v54.4h6.5V22.3c-2.1.3-4.3.5-6.5.5zM140.4 20.1v57.1h7.4v-56c-2.5-.3-5-.6-7.4-1.1zM158.7 50.2c0-9.2 2.1-19.1 7.8-29.3-2.8.5-5.5.7-8.2.7h-3.1v55.6h9.3c-3.1-7.4-5.8-16.7-5.8-27z"/><path class="st5" d="M147.8 21.2v56h7.4V21.6c-2.6-.1-5-.2-7.4-.4zM103.5 22.3v54.8h7.4V20.9c-2.5.6-4.9 1.1-7.4 1.4zM118.3 18.3v58.9h7.4V14.5c-2.5 1.4-5 2.7-7.4 3.8zM133 17.9v59.3h7.4V20.1c-2.5-.6-4.9-1.3-7.4-2.2z"/></svg>