<svg version="1.1" id="Layer_1" xmlns="http://www.w3.org/2000/svg" x="0" y="0" viewBox="0 0 192.8 192.8" style="enable-background:new 0 0 192.8 192.8" xml:space="preserve"><style>.st0{fill:#dba111}.st1{fill:#034694}.st2{fill:#fff}.st4{fill:#ed1c24}</style><path class="st0" d="M192.8 96.4c0 53.2-43.2 96.4-96.4 96.4S0 149.6 0 96.4 43.2 0 96.4 0s96.4 43.2 96.4 96.4"/><path class="st1" d="M189.6 96.4c0 51.5-41.7 93.2-93.2 93.2S3.2 147.9 3.2 96.4 44.9 3.2 96.4 3.2s93.2 41.7 93.2 93.2"/><path class="st0" d="M162.8 96.4c0 36.7-29.7 66.4-66.4 66.4S30 133.1 30 96.4 59.7 30 96.4 30s66.4 29.7 66.4 66.4"/><path class="st2" d="M160.8 96.4c0 35.6-28.8 64.4-64.4 64.4C60.8 160.8 32 132 32 96.4 32 60.8 60.8 32 96.4 32c35.6 0 64.4 28.8 64.4 64.4"/><path class="st0" d="M41.2 152c.7.7 2.5 2.3 2.5 2.3l1.7-1.8-5-4.8-.6.7-6.7 7.1 2.6 2.4s2.2-2.3 2.9-3.1l2.2 2.1 1.7-1.8-2.2-2.1c.3-.4.5-.6.9-1m12.1 8c-.2-1.4-1-2.5-2.1-3.4-1.1-.8-2.5-1.1-3.9-.9-1.5.2-2.8 1.1-3.7 2.4-.9 1.3-1.3 2.8-1 4.3.2 1.3 1 2.5 2.1 3.4 1.1.8 2.5 1.1 3.9.9 1.5-.2 2.8-1.1 3.7-2.4.7-1 1.1-2.2 1.1-3.4 0-.3 0-.6-.1-.9m-7.2 3.8c-1.2-.8-.2-2.6.5-3.5.7-1 2-2.4 3.2-1.6 1.2.9.1 2.8-.5 3.5-.6.7-2 2.4-3.2 1.6zm15.1-1.1c-2.7-1.4-5.8-.2-7.2 2.6-.7 1.4-.9 3-.4 4.4.4 1.3 1.4 2.4 2.6 3 1.2.6 2.7.8 4 .3 1.4-.5 2.6-1.5 3.3-2.9 1.3-2.9.4-6-2.3-7.4m-3 7.9c-.3.1-.6.1-1-.1-.5-.3-.7-.8-.7-1.3 0-.8.4-1.6.7-2.2.5-1.1 1.6-2.7 2.9-2.1.3.2.5.4.6.7.2.6 0 1.7-.6 2.9-.5 1.1-1.3 1.9-1.9 2.1zm8.6-4-.5 1.4s1.3.4 1.7.6l-2.7 7.8 3.3 1.2s2.2-6.4 2.7-7.8l1.7.6.8-2.3-6.6-2.3-.4.8m13.8 3.1-4.5-.9-.2.9-2 9.5 4.6 1c1.5.3 2.4-.1 3-.4.7-.5 1.2-1.2 1.4-2.1.1-.2.1-.5.1-.7 0-.6-.2-1.2-.6-1.7.5-.4.9-1 1-1.7 0-.2.1-.4.1-.6-.1-1.3-.8-2.9-2.9-3.3m-1.3 7.3c0 .2-.1.5-.3.6-.2.1-.4.1-.8 0 0 0-.2 0-.4-.1.1-.7.2-1.1.4-1.8.2 0 .4.1.4.1.6.1.7.6.7.9.1.1 0 .2 0 .3zm-.3-5.1c.4.1.7.2.8.4.1.1.1.2.1.3v.3c-.1.3-.1.7-.9.5 0 0-.1 0-.2-.1 0-.6.1-.9.2-1.4zm9.9-.7-4.9 10 2.8.2 1.1-2.2c.6 0 1.2.1 1.8.1l.8 2.4 3.5.3-4.1-12.8-1 2m11 8-.3-8.1-3.5.1.4 10.7 7.1-.3-.1-2.6c-.1.1-2.6.2-3.6.2m9.6-1c-.2-1.4-1.3-8-1.3-8l-.9.1-2.6.4 1.7 10.6 7-1.1-.4-2.5c0-.1-2.5.3-3.5.5m20.2-7.1c0 .9-.6 1.7-1.4 2-.5.2-.9.2-1.4 0-.7-.3-1.3-1-1.7-2-.4-1.1-.5-2.1-.2-2.7.2-.5.6-.8 1.2-1.1.7-.3 1.3 0 2.1.5l.8.5 1.3-2.1-.8-.5c-1.4-.9-3.2-1.1-4.7-.5-1.4.6-2.5 1.6-3.1 3-.6 1.4-.6 2.9 0 4.4 1.1 2.8 4.3 4.2 7.1 3.1 2-.8 3.1-2.3 3.3-4.4l.1-.9-2.6-.2v.9m8.3-2.9c-.7-1.3-4-7.1-4-7.1l-.8.5-2.3 1.3 5.2 9.3 6.2-3.4-1.2-2.2c-.1-.2-2.3 1.1-3.1 1.6m6.8-14.4-.8.6-1.3 1 4.3 5.9c.2.3.2.4.2.5 0 .3-.4.6-.6.8-.2.1-.5.2-.8.2-.2 0-.4-.2-.6-.4l-4.3-5.8-2.8 2.1 4.3 5.8c.6.9 1.4 1.4 2.3 1.5 1 .2 2.2-.2 3.3-1 2.2-1.6 2.2-3.8 1.2-5.1l-4.4-6.1m13-2.2c-.7-.7-1.5-1-2.3-.9 0-.7-.3-1.3-.8-1.8-.9-.9-2.9-1.6-4.7.1l-3.3 3.2 7.4 7.7 3.4-3.3c1.1-1 1.3-2 1.3-2.7 0-.8-.4-1.6-1-2.3m-5.6-.2c.1.1.2.3.2.4 0 .2-.1.4-.3.6l-.2.2c-.4-.4-.6-.6-1-1.1.7-.7 1-.4 1.3-.1zm1.7 2.6c.6-.6 1.2-.1 1.3.1.2.2.3.4.3.6 0 .2-.2.4-.4.7l-.3.3-1.3-1.3c.3-.2.4-.4.4-.4z"/><path class="st2" d="M41.2 151c.3.3 2.5 2.4 2.5 2.4l.7-.8-4-3.8-.2.2-6.2 6.5 1.5 1.5s2.7-2.8 2.9-3.1l2.2 2.1.7-.8-2.2-2.1c.3-.3 1.8-1.9 2.1-2.1m9.6 6.2c-1-.7-2.2-1-3.3-.8-1.3.2-2.4 1-3.2 2.1-.8 1.1-1.1 2.5-.9 3.7.2 1.2.9 2.2 1.8 2.9 1 .7 2.2 1 3.4.8 1.3-.2 2.4-1 3.2-2.1.6-.9 1-2 1-3 0-.3 0-.5-.1-.8-.3-1-.9-2.1-1.9-2.8m-.9 5.4c-.7.9-2.4 3-4.2 1.8-1.7-1.2-.4-3.6.3-4.5.7-.9 2.4-3 4.1-1.8 1.8 1.2.4 3.5-.2 4.5zm11 .7c-2.3-1.2-5.1-.2-6.3 2.3-.6 1.2-.8 2.6-.4 3.8.4 1.1 1.2 2 2.3 2.6 1.1.6 2.3.7 3.4.3 1.2-.4 2.2-1.3 2.9-2.6 1.2-2.4.4-5.2-1.9-6.4m-4 7.8c-1.9-1-.9-3.5-.4-4.5s1.9-3.3 3.8-2.4c.5.3.8.6 1 1.1.4 1.1-.2 2.6-.6 3.4-.4.8-1.2 2.1-2.4 2.5-.4.2-.9.2-1.4-.1zm10.5-4.3-.3.8 1.7.6c-.1.4-2.7 7.8-2.7 7.8l2 .7s2.6-7.4 2.7-7.8l1.7.6.3-1-5.3-1.9-.1.2m13 3.6-3.8-.8-.1.2-1.9 8.9 3.9.8c1 .2 1.8.1 2.4-.3.6-.4.9-.9 1.1-1.6 0-.2.1-.4.1-.6 0-.8-.4-1.4-1.1-1.9.8-.2 1.4-.8 1.5-1.7v-.5c.2-.9-.3-2.2-2.1-2.5m-1.3.7c.6.1 1.1.4 1.3.7.1.2.2.4.2.7v.4c-.2 1.2-1.2 1.2-1.7 1 0 0-.6-.1-.9-.2.1-.4.5-2.5.6-2.8.1.2.5.2.5.2zm-.3 4c1.1.2 1.3 1.1 1.3 1.6v.4c-.1.5-.3.9-.6 1.1-.3.2-.8.3-1.4.1 0 0-.7-.1-1.1-.2l.7-3.2c.3 0 1.1.2 1.1.2zm10.7-3.6-4.4 9.1 1.3.1s.9-2 1.1-2.2l2.7.2.8 2.4 2.2.2-3.4-10.3-.3.5m-.5 3.7c.2.7.6 2 .8 2.4-.4 0-1.4-.1-1.9-.1l1.1-2.3zm10.2 4.7-.3-8.1h-.2l-1.9.1.4 9.3 5.7-.2-.1-1.2c-.1 0-3.2.1-3.6.1m9.7-.9c-.1-.4-1.3-8-1.3-8h-.2l-1.9.3 1.4 9.2 5.6-.9-.2-1.1c.1-.1-3 .4-3.4.5m21.5-7.9c0 1.2-.7 2.2-1.8 2.7-.6.3-1.3.2-1.9 0-.9-.4-1.6-1.2-2.1-2.4-.5-1.3-.6-2.4-.2-3.3.3-.6.8-1.1 1.6-1.4 1-.4 2 .1 2.7.5l.2.1.6-.9-.2-.1c-1.2-.8-2.7-1-4.1-.4-1.2.5-2.2 1.4-2.7 2.6-.5 1.2-.5 2.6 0 3.9 1 2.5 3.7 3.7 6.2 2.7 1.8-.7 2.7-2 2.8-3.8v-.2l-1.1-.1v.1m7.3-2c-.2-.4-4-7.1-4-7.1l-.2.1-1.7.9 4.5 8.1 4.9-2.8-.6-1c.2.1-2.6 1.6-2.9 1.8m7-14.3-.2.1-.8.6 3.9 5.3c.3.4.4.7.3 1.1-.1.6-.7 1.1-.9 1.3-.4.3-.8.4-1.3.3-.4-.1-.8-.3-1-.6l-3.9-5.3-1.7 1.3 3.8 5.2c.5.7 1.1 1.1 1.9 1.2 1.1.2 2.2-.5 2.8-.9 1.9-1.4 1.9-3.1 1.1-4.1l-4-5.5m12.6-2.7c-.7-.7-1.6-.9-2.6-.5.1-.2.1-.4.1-.7 0-.6-.2-1.1-.7-1.5-.6-.6-2.1-1.4-3.7.2l-2.8 2.7 6.5 6.7 2.9-2.8c.7-.7 1.1-1.4 1.1-2.2 0-.7-.3-1.3-.8-1.9m-4.2-.3c0 .5-.3.9-.6 1.1l-.7.7c-.3-.3-1.8-1.8-2-2.1l.4-.4c.9-.9 1.6-.9 2.3-.2.5.3.6.7.6.9zm1.8 4.9c-.3-.3-2-2.1-2.3-2.4l.8-.8c1.1-1.1 2.3.1 2.3.1.4.4.5.7.5 1.1 0 .4-.2.8-.6 1.2.1 0-.5.6-.7.8z"/><path class="st0" d="M53.6 32.9 49.7 34l.4 1.4c.5 1.7.1 3.5-1.3 4.6-.7.6-1.6.9-2.5.9-1.4-.1-3-1-4.3-2.5-1.5-1.7-2.2-3.3-2.1-4.7.1-1 .6-1.9 1.5-2.7 1-.9 2.4-.9 4.2-.5l1.3.3.9-3.7-1.3-.3c-2.9-.7-5.9 0-8 1.9-4.2 3.7-4.5 9.7-.8 14 3.5 4 9.5 4.4 13.5 1 2.8-2.5 3.8-5.7 2.9-9.2l-.5-1.6m10.6-19.5-4 1.9s2.2 4.7 3 6.3c-1.1.5-2.2 1.1-3.4 1.6l-3-6.3-5.2 2.5 8 16.9 5.2-2.5s-2.5-5.2-3.3-6.9c1.1-.5 2.2-1.1 3.4-1.6l3.3 6.9 5.2-2.5-8-16.9-1.2.6m17.7 10.4c-.3-1.3-.5-2.5-.8-3.8l5.9-1.2-.8-3.8-5.9 1.2c-.2-1.2-.4-2.1-.7-3.3l6.3-1.3-.7-3.6-1.4.3-10.6 2.1L77 28.7l12-2.4-.8-3.8c.1 0-4.6 1-6.3 1.3M99 7.5l-5.8-.1v1.4l-.4 17.3 12.2.3.1-4.1s-4.7-.1-6.4-.1L99 7.5m18.8 9.5c-1.5-1.1-1.9-1.5-1.8-2.2.1-.3.4-1.3 1.5-1 .7.2 1.3.5 1.6 1.9l.3 1.6 3.8-1.3-.2-1.2c-.5-2.4-2.5-4.4-5-5-1.8-.4-3.6-.2-5.1.7-1.3.8-2.3 2.1-2.7 3.6-1 3.8 1.6 5.7 3.3 6.9 1.8 1.3 2.2 1.7 1.9 2.8-.1.3-.3.6-.6.8-.4.2-.8.3-1.2.2-.9-.2-1.3-.7-1.7-1.9l-.5-1.4-3.8 1.6.4 1.2c.7 2.4 2.4 3.9 5.3 4.6 3.2.8 7-.7 8-4.5 1-4.1-1.7-6.1-3.5-7.4m13.9 10 5.4 2.7 1.7-3.4s-3.9-2-5.4-2.7c.5-1.1 1-1.9 1.5-3l5.7 2.9 1.7-3.4-10.9-5.5-.6 1.2-7.8 15.4 11 5.5 1.7-3.4-5.8-2.9c.6-1.1 1.2-2.3 1.8-3.4m21.7 1.7-17.5 9 3.3 2.9s2.9-1.5 3.9-2.1l2.7 2.3c-.4 1.1-1.4 4.2-1.4 4.2l4.6 4 7.5-22-3.1 1.7"/><path class="st2" d="m52.9 34-2.1.6.2.5c.7 2.1.1 4.2-1.5 5.6-.9.8-2 1.2-3.2 1.1-1.7-.1-3.5-1.1-4.9-2.8-1.7-1.9-2.5-3.8-2.4-5.4.1-1.3.7-2.4 1.8-3.4 1.5-1.3 3.3-1.1 5-.7l.4.1.5-1.9-.4-.1c-2.6-.6-5.3 0-7.2 1.7-3.8 3.3-4.1 8.8-.7 12.7 3.1 3.6 8.6 4 12.2.9 2.6-2.3 3.4-5 2.6-8.2l-.3-.7m11.6-19.8-3.1 1.5 3 6.3c-.7.3-4.4 2.1-5.1 2.4-.3-.7-3-6.3-3-6.3l-3.6 1.7L60 35l3.6-1.7-3.3-6.9c.7-.3 4.4-2.1 5.1-2.4.4.7 3.3 6.9 3.3 6.9l3.6-1.7L65 14l-.5.2m16.7 10.7c-.1-.7-1-4.9-1.1-5.6l5.9-1.2-.4-1.9-5.9 1.2c-.1-.7-.9-4.4-1-5.1.8-.2 6.3-1.3 6.3-1.3l-.4-1.9-10.1 2 3.3 16.5L88 25.5l-.4-1.9-6.4 1.3M98.1 8.5l-3.9-.1v.5l-.3 16.4 10.3.2v-2.2l-6.4-.1c0-1 .3-14.7.3-14.7m19.6 4.4c1.2.3 2 1.1 2.3 2.6l.1.5 2.1-.7-.1-.4c-.4-2-2.1-3.7-4.3-4.3-1.6-.4-3.1-.2-4.4.6-1.1.7-2 1.8-2.3 3.1-.8 3.2 1.3 4.7 3 5.9 1.7 1.2 2.7 2.1 2.3 3.8-.1.6-.5 1.1-1 1.3-.6.3-1.2.4-1.9.3-1.2-.3-1.9-1-2.4-2.5l-.2-.5-2.1.9.1.4c.6 2 2.1 3.3 4.6 3.9 2.7.7 6-.6 6.8-3.8.8-3.4-1.4-5-3.2-6.4-1.5-1.1-2.5-1.9-2.1-3.1.4-1 1.3-2 2.7-1.6m16.8 6.4 5.7 2.9.9-1.8-9.2-4.7-.2.4-7.4 14.6 9.3 4.7.9-1.8-5.8-2.9c.3-.7 2.3-4.5 2.6-5.1.7.4 5.4 2.7 5.4 2.7l.9-1.8s-4.7-2.4-5.4-2.7l2.3-4.5m19.3 10.2-16.2 8.4 1.8 1.6 3.9-2.1 3.7 3.2c-.2.5-1.4 4.2-1.4 4.2l3.1 2.7L155 29l-1.2.5m-8.6 7c.8-.4 2.7-1.4 3.9-2-.4 1.3-1.2 3.4-1.5 4.2-.8-.8-1.6-1.5-2.4-2.2z"/><path d="M142.5 93.9c-1.3-3.5-5.9-5.1-10.3-3.4-1.8.7-3.3 1.8-4.3 3.2 2.9-8.2 14.5-9.9 14.5-17.5 0-12.7-18.1-9.2-15.5 0 0-4.2 6.6-4.9 6.6 0S122 84.4 122 92.7c0 9.2 9.2 10 8.2 18.4-.2 1.4-1.7 3.3-4 3.3-14 0-9-17.3-13.9-22.6l.3-3.6c2.8 1.7 10.4-2.3 5.4-8.5 0 3.1-6.4 2.9-6.4-2.9 0-7.8 7.3-3.7 7.7-2-.3-2.8-.5-4.7 0-6.3-3.9 1.3-4.3-1-3.8-1.9.6-1 1.3-2.2 2.9-2.2.8 0 1.3.1 1.6.3.5.3.8-.4.8.3.4-.6.3.2.7-.5.4-.6 1-1.4 2-2.3v-1.4l1.1.4 1.1-1.8c-1.2-2.5-2.8-1.3-4-4.3-1-.3-16.5 1.4-16-4.7-1.3 0-4.2.7-2.4 3.2-1.4.2-2.5-1.5-4.6 3 2.7-.5 1.3 2.5 1.3 3.4 0 5.6-7.4 5.5-7.4 2.9-1.8 1.7-.8 5.6 1.9 6.5 0 0-1 4.1-3.6 6.7-3.8-.2-9.9-.8-13.3-4.1-1.5-1.4-2.7-2.2-3.7-2.6v-1.8c1.5-.7 3.1-2 4.8-4.2 1.3-1.6 2-3.7 1.8-5.9 0-.3-.1-.5-.1-.8 0-.1 0-.2-.1-.2 0-.2-.1-.4-.1-.5 0-.1 0-.2-.1-.3-.1-.2-.1-.3-.2-.5 0-.1 0-.1-.1-.2-.1-.2-.2-.4-.3-.7 0-.1-.1-.2-.1-.2-.1-.1-.2-.3-.2-.4-.1-.1-.1-.2-.2-.3-.1-.1-.1-.2-.2-.3l-.3-.3-.2-.2c-.4-.4-.8-.8-1.2-1.1l-.1-.1c-.2-.1-.3-.2-.5-.3-1.7-1-3.6-1.5-5.5-1.3-4.9.4-8.5 4.5-8.1 9.1.3 3.6 3 6.5 6.5 7.4-1.2.7-2.2 1.1-2.5 1.1l.1.1s.1.1.2.1l.2.1c.1.1.2.1.3.1.2.1.5.2.7.2h.1c.1 0 .2.1.3.1h.1c.1 0 .3 0 .4.1v1.1h-.2c-1.6.3-2.6.7-3.1 2.2-.5 1.4 0 1.9.8 2.9-.6 1.1-2.3 1.5-.1 4-.2.9 0 2.4 1.4 2.9.4.2.8.2 1.2.3v18.6c-1.4.7-2 1.6-2.4 2.5 0 0-1.1-2.4-1 2.4 1.2-1 .8 1.1.8 1.1-1.7 2.2.5 2.1.5 2.1 1.5-1.5 1.2.7 1.2.7 0 2.6 1 3.6 1.1 3.6v14.2h-1.2v3.9h2.2c-1.2.5-2 1.7-1.9 3 .1 1.7 1.7 2.9 3.4 2.8 1.8-.1 3.1-1.6 2.9-3.3-.1-1.2-.9-2.1-1.9-2.5h2v-3.9h-1.2v-12.6c.2.1.5.2.8.3h.5c-.3-1.7.7-2.8.7-2.8.5-.8 1.2-1.4 2.1-1.8 2.5-1.3 5.9-.9 6.9 1.1 6.5-1.7 12-8.2 12-8.2l3.2 5.4c-6.7 2.3-21.4 15-11.2 19.4 0 1.3-.2 10.8-6.3 10.1-8.8-1.1-11 2.6-9.3 6.7-.8 3.5 1.9 4.7 1.9 4.7-.4-2 .6-3.7 4.2-3.6 0 3.6 2.3 4.3 2.3 4.3 0-3.1 2.2-4.3 4.1-4.3 0 2.6 3 3.5 3 3.5s-.8-3 2.6-3.5c8.5-1.5.5-10.3 13.5-12.7 0 0-6.5-1-6.5-4.5 0-3.2 5.9-5.4 7.9-5.4 4.1 7.9 8.6 8 9.8 8 1.8 2 1.2 8.9-1.4 8.8-9.7-.5-9.3 5.4-8.2 6.6-.1 2.3 1.7 3.6 1.7 3.6 0-2.4 2.3-3.1 5.3-3-.2 3 1.7 3.4 1.7 3.4.1-3 2.3-3.5 3.9-3.4-.1 2.1 2 2.7 2 2.7s-.2-2.7 2.6-2.7c5.3 0-2.4-11.5 8-22.8-9.2 4.2-14-6.4-14-8.4 4.7 5.5 20 6.6 20-2.8 0-9-9.9-12.4-5.3-15.8 2.7-2 8 2 5 6.2 4.1-1.7 6.5-5.9 5.2-9.4m-58.7.3c-3.5 2-5.8 4.6-8.9 5.7-.5.2-.9.2-1.2.2V82.5c.8.1 3 .4 5.5 1.4 2.5 1.4 2.5 4.2-.7 4.9 2 3.8 8.9 2 10.4-1.2.7-.1 1.4 1.3 2 2.5-.8.5-2.8 1.6-7.1 4.1zM122.5 65c-.4.5-.8 1-1.1 1.5.9 1.5 2.6 2.4 4.3 2.2 2.5-.2 4.3-2.5 4.1-5v-.3c-.3 1.3-1.8 2.4-3.7 2.6-1.4.2-2.8-.2-3.6-1z" style="fill:#d1d3d4"/><path class="st1" d="M66.8 128.1zM66.7 47zm-1.3 80.7h2.2c-.3.1-.5.3-.7.4.2-.1.4-.1.7-.1 1.1 0 2 .9 2 2s-.9 2-2 2c-.9 0-1.6-.6-1.9-1.4v.2c.1 1.7 1.7 2.9 3.4 2.8 1.8-.1 3.1-1.6 2.9-3.3-.1-1.2-.9-2.1-1.9-2.5h2v-3.9h-1.2v-12.6c-1.2-.6-1.8-2-1.6-3.3.7 0 1.4.2 1.9.5-.7 1.5 1 3.1 1 3.1-.3-1.7.7-2.7.7-2.7.5-.8 1.2-1.4 2.1-1.8 2.5-1.3 5.9-.9 6.9 1.1 6.5-1.7 12-8.2 12-8.2l3.2 5.4c7.4 0 4.9-5.6 4.4-6.1 1.7 0 4.1 1.3 4.1 4.1 0 6.9-19.9 7.8-19.9 16.2 0 3.5 3.5 4.8 3.5 4.8 0 7.6-5.2 12.1-8.8 12.1-5.7 0-10.1-1.2-10.1 5.1h2c-1.9 1.9-.1 4.7-.1 4.7-.4-2 .6-3.6 4.2-3.6h2.3c-1.4 1.4-.6 3.6.1 4.3 0-3.1 2.2-4.3 4.1-4.3h1.6c-.4.4.3 2.5 1.3 3.5 0 0-.8-3 2.6-3.5 8.5-1.5.5-10.3 13.5-12.7 0 0-6.5-1-6.5-4.5 0-3.2 5.9-5.4 7.9-5.4 1.6-.2 3.1-.2 4.4.1.5 5.1 6.4 4.9 7.7 4.9 5 5-1.3 12.9-1.3 12.9-7.6 0-10.6 1.1-10.6 5.5h1.4c-.8.8-.4 3 .2 3.6 0-2.5 2.3-3.1 5.3-3h1.6c-.8.8-.6 2.6.2 3.4 0-3 2.3-3.5 3.9-3.4h1.3c-.5.5 0 2.1.7 2.7 0 0-.2-2.7 2.6-2.7 5.3 0-2.4-11.5 8-22.8-9.2 4.2-14.1-6.4-14.1-8.4 4.7 5.5 20 6.6 20-2.8 0-7.6-7.1-11.2-6.5-14.2.2-2.3 2.2-4.1 4.5-4.1 2.5 0 4.5 2 4.5 4.5 0 1.8-1.1 3.5-2.8 4.2 4.3-1.6 6.8-5.8 5.4-9.3-1.3-3.5-5.9-5.1-10.3-3.4-1.8.7-3.3 1.8-4.3 3.2 2.9-8.2 14.5-9.9 14.5-17.5 0-12.7-18.1-9.2-15.5 0v-.4c.5-5.2 9.7-6.2 9.7.5 0 5.8-11.9 9-11.9 16.7 0 8 8.8 10 8.8 18.4 0 1-.5 5.3-6.4 5.3-5.6 0-8.3-3.1-9.9-7.2-2.9-5.5-1.8-14.2-5-17.6l.3-3.5c2.8 1.7 10.4-2.3 5.4-8.6 0 3.1-6.4 2.9-6.4-2.9 0-7.8 7.3-3.7 7.7-2-.4-2.8-.5-4.7 0-6.3-3.9 1.3-4.3-1-3.8-1.9.6-1 1.3-2.2 2.9-2.2 2.2 0 2.1.8 2 2 .8-1.3 1.1-2.2 3.1-4.2v-1.4l1.1.4 1.1-1.8c-1.2-2.5-2.8-1.3-4-4.3-1-.3-14-1.5-13.5-7.6-1.2 0-4.3 4-2.2 6.1h-2.7c-1.4.2-4.8-.8-7 3.6 5.3-5.3 8.8 7.4-1 7.4-1.4 0-2.7-.6-2.8-1.6-1 4.3 5.2 5.6 5.2 5.6 0 1.3-3.1 8.2-4.6 9.7 1 1 1.3 7.1-3.4 7.1 1.7-4.6-3.3-8.4-8.1-11-.9-.3-1.7-.7-2.5-1.2-3-1.4-5.4-2.1-5.4-2.1v-3.6c1.5-.7 3.1-2 4.8-4.2 1.3-1.6 2-3.7 1.8-5.9 0-.3-.1-.5-.1-.8v-.2c0-.2-.1-.4-.1-.5-.1-.3-.2-.5-.3-.8 0-.1-.1-.1-.1-.2l-.3-.6c0-.1-.1-.2-.1-.3-.1-.1-.2-.3-.2-.4-.1-.1-.1-.2-.2-.3-.1-.1-.1-.2-.2-.3l-.3-.3-.2-.2-.7-.7-.1-.1c-.1-.1-.3-.2-.4-.3l-.1-.1c-.2-.1-.3-.2-.5-.3-1.7-1-3.6-1.5-5.5-1.3-.4 0-.9.1-1.3.2-2.8 1.1-4.9 4.4-4.9 8.3 0 3.7 1.8 6.8 4.4 8.1h.1c-1.2.7-2.2 1.1-2.5 1.1l.1.1s.1.1.2.1.2.1.2.1c.1 0 .2.1.3.1.3.1.5.2.8.3h.1c.1 0 .2.1.3.1h.1c.1 0 .3.1.4.1.9.1 2-.2 2-.2v2.1c-.2 0-1.6-.5-2-.9h-.2c-1.6.3-2.6.7-3.1 2.2-.5 1.4 0 1.9.8 2.9-.6 1.1-2.3 1.5-.1 4-.2.9 0 2.4 1.4 2.9.4.2.8.2 1.2.3.8 0 2 .7 2 2.4v16c.7 0 1.5.1 2.3.2V79.7c.8.1 3 .4 5.5 1.4h.1c.2 0 .5.1.7.1 1.7.5 2.7 2 2.3 3.3-.4 1.3-2.1 1.9-3.8 1.4 2 3.8 8.9 2 10.4-1.2.7-.1 1.4 1.3 2 2.5 0 0 1.7.7 6 .7 0 0-17.4 11.1-22.5 11.1-2.2 0-6.9 0-6.9 1.6-1.3 0-3.2 2.2-3.2 3.5 1.2-1 2.3-1 2.3-1 1.1 0 1.7.3 1.7.3-.4.4-2.1 2.3-2.1 3.9 1.5-1.5 2.1-1.5 2.1-1.5s1.5-.2 2.1.3c-.4.4-1 1.7-1 3.2 0 0 .9-1.7 2-1.7v16.7c0 .5-2.3 1-3.3 1m1.1-48.2c-.4 0-.6-.5-.6-.7 0-.2.2-.8.6-.8 1 0 3.1.5 3.1.7-.1.1-2.1.8-3.1.8zm-.6-2.7c-.6 0-.8-.8-.8-1.1 0-.3.3-1 .9-1 1.4.1 4.2 1.1 4.1 1.4 0 .2-2.8.8-4.2.7zm-.3-3.6c-.6-.2-.7-1.1-.6-1.4.1-.3.6-1.1 1.2-.9 1.5.4 4.2 2 4.2 2.3-.1.4-3.3.4-4.8 0zm4.6-9.9c.3-.6.2-1.5 0-2.3h-.1c-1.8 0-3.3-1.5-3.3-3.3 0-.3 0-.6.1-.9.4-1.4 1.7-2.4 3.1-2.4 1.8 0 3.3 1.5 3.3 3.3.2 2.1-1.3 4-3.1 5.6z"/><path class="st4" d="M118.7 63.7c.9 1.5 2.6 2.4 4.3 2.2 2.5-.2 4.3-2.5 4.1-5v-.3c-.3 1.3-1.8 2.4-3.7 2.6-1.5.1-2.8-.3-3.6-1-.4.5-.8 1.1-1.1 1.5"/><path class="st2" d="m112.6 55.3 1.6.1-.8 1.1c0-.1-1.1.3-.8-1.2m-3.8 0h2.3s-.1 1.8 1.6 2l-.4.6c0-.1-4.4-1.2-3.5-2.6z"/><path d="M70 70.9c.1-.3-2.7-1.9-4.2-2.3-.6-.2-1.1.6-1.2.9-.1.3 0 1.2.6 1.4 1.5.3 4.7.3 4.8 0m-.3 2.7c0-.3-2.7-1.3-4.1-1.4-.6 0-.9.7-.9 1 0 .3.2 1.1.8 1.1 1.4.2 4.2-.4 4.2-.7zm-3.1-8.3v1.1c.4.4 1.9.9 2 .9v-2.1c.1 0-1 .2-2 .1zm-.5 10.3c-.4 0-.6.6-.6.8 0 .2.2.8.6.7 1 0 3-.7 3-.9 0-.2-2-.6-3-.6zM64 103.3c-1.7 2.2-.5 4.2-.5 4.2 0-1.5 1.7-3.5 2.1-3.9 0 0-.6-.3-1.6-.3zm5.3 4.6c-.3 1.6.7 3.2 2.4 3.6.1 0 .2 0 .4.1h.2s-1.7-1.6-1-3.1c-.5-.4-1.2-.6-2-.6zm-3-44.6c-2.6-1.2-4.4-4.4-4.4-8.1 0-3.9 2-7.2 4.9-8.3-4.2.9-7.2 4.7-6.8 8.9.2 3.7 2.8 6.5 6.3 7.5zm27.1-9c2.7-.5 3.6 1.9 3.6 2.8 0 3.3-2.6 4.6-4.7 4.6 9.9 0 6.5-12.7 1.1-7.4zm-6.5 28.2c4.7 0 4.4-6.1 3.4-7.1 1.5-1.5 4.6-8.4 4.6-9.7 0 0-6.2-1.3-5.2-5.6h-.1c-1.7 1.8-.7 5.5 2 6.4 0 0-1 4.1-3.6 6.7-2.5-.1-6.1-.4-9.2-1.6 4.8 2.4 9.8 6.3 8.1 10.9zM68.6 53.1c1.2-.1 2.3.8 2.4 1.9.1 1.2-.8 2.2-2 2.3-1.2.1-2.3-.8-2.4-1.9 0 1.8 1.5 3.3 3.3 3.3h.1c.2.8.2 1.6 0 2.3 1.8-1.5 3.2-3.4 3.2-5.5.5-1.7-.5-3.5-2.3-4-1.7-.5-3.5.5-4 2.3-.1.3-.1.6-.1.9.2-1 .9-1.5 1.8-1.6zm34.5-2.4c-2.1-2.1 1-6.1 2.2-6.1-1.3 0-6.7 3.6-4.9 6.1h2.7zM75.8 86c1.7.5 3.4-.1 3.8-1.4.4-1.3-.7-2.8-2.3-3.3-.2-.1-.5-.1-.7-.1 2.4 1.4 2.3 4.1-.8 4.8zm-4.9-17.9s2.4.8 5.4 2.1c-.6-.4-1.1-.8-1.7-1.3-1.5-1.4-2.7-2.2-3.7-2.6v1.8zm.9 31c5 0 22.5-11.1 22.5-11.1-4.3 0-6-.7-6-.7-1 .5-3 1.5-7.2 4-3.5 2-5.8 4.6-8.9 5.7-.5.2-.9.2-1.2.2-.7-.1-1.5-.2-2.3-.2V81c0-1.7-1.2-2.4-2-2.4v18.6c-1.4.7-2 1.6-2.4 2.5 0 0-2.6-.3-2.5 4.5 0-1.3 1.9-3.5 3.2-3.5-.1-1.6 4.7-1.6 6.8-1.6zm43.5 25.8c-1.3 0-7.1.2-7.7-4.9-1.3-.3-2.8-.3-4.4-.1 4.1 7.9 8.6 8 9.8 8 1.8 2 1.2 8.9-1.4 8.8-9.7-.5-9.3 5.4-8.2 6.6 0-4.4 3-5.5 10.6-5.5 0 0 6.3-7.9 1.3-12.9zm2 19H116c-.1 2.1 2 2.7 2 2.7-.7-.6-1.2-2.2-.7-2.7zm-12.3 3c-.6-.6-1-2.8-.2-3.6h-1.4c-.1 2.3 1.6 3.6 1.6 3.6zm28.9-73.5c0-6.8-9.3-5.7-9.7-.5.4-3.8 6.6-4.4 6.6.4 0 4.9-11.5 8.1-11.5 16.5 0 9.2 9.2 10 8.2 18.4-.2 1.5-1.7 3.3-4 3.3-4.8 0-7.4-2-8.9-4.9 1.5 4.1 4.2 7.2 9.9 7.2 5.8 0 6.4-4.3 6.4-5.3 0-8.4-8.8-10.4-8.8-18.4 0-7.7 11.8-10.9 11.8-16.7zM65.6 106c0 2.6 1.1 3.6 1.1 3.6 0-1.6.6-2.9 1-3.2-.6-.6-2.1-.4-2.1-.4zm67-14.3c-2.3 0-4.3 1.8-4.5 4.1.1-.6.5-1.1 1.2-1.6 2.7-2 8 2 5 6.2 1.7-.7 2.8-2.3 2.8-4.2-.1-2.5-2.1-4.5-4.5-4.5zm-20.7 52.2h-1.6c-.2 3 1.8 3.4 1.8 3.4-.8-.7-.9-2.6-.2-3.4zM67.5 128c-.2 0-.5.1-.7.1-.8.6-1.2 1.5-1.2 2.4.3.8 1 1.4 1.9 1.4 1.1 0 2-.9 2-2 0-1-.9-1.9-2-1.9zm11.1 14.5h-2.3c0 3.6 2.3 4.3 2.3 4.3-.6-.6-1.5-2.8 0-4.3zm7-23c0-8.3 19.9-9.3 19.9-16.2 0-2.8-2.4-4.1-4.1-4.1.5.5 3.1 6.1-4.4 6.1-6.7 2.3-21.4 15-11.2 19.4 0 1.3-.2 10.8-6.3 10.1-8.8-1.1-11 2.6-9.3 6.7 0-6.2 4.4-5.1 10.1-5.1 3.6 0 8.8-4.5 8.8-12.1 0 0-3.5-1.3-3.5-4.8zm-16.9 5.1v-16.7c-1.1 0-2 1.7-2 1.7v14.3-.1h-1.2v1.8c.9 0 3.2-.5 3.2-1zm3.4 21.5s-1.8-2.8.1-4.7h-2c-.8 3.6 1.9 4.7 1.9 4.7zm12.3-3.5h-1.6c0 2.6 3 3.5 3 3.5-1.1-1-1.9-3.1-1.4-3.5z" style="fill:#6a7ab5"/><path class="st2" d="m28.9 114.8-.1-.3v-.4c-.2-1.2-.5-3.4-2.2-3.8-.5-.1-.9-.1-1.5.2.1-.5.1-1 0-1.5-.6-1.7-2.9-1.6-4.1-1.6h-.4l-.4-.1c-1.2-.2-3.4-.6-4.3.9-.2.4-.3.9-.3 1.4-.5-.3-.9-.4-1.4-.4-1.8.1-2.5 2.2-2.8 3.4l-.1.3-.2.3c-.6 1.1-1.7 3-.5 4.4.3.4.7.6 1.3.7-.4.3-.7.7-.8 1.2-.5 1.7 1.4 3 2.4 3.7l.3.2.2.3c.8.9 2.4 2.5 4 1.8.4-.2.8-.5 1.1-1 .2.5.5.9.9 1.2 1.5 1 3.3-.4 4.3-1.1l.3-.2.3-.2c1.1-.5 3.1-1.5 3-3.3 0-.5-.2-.9-.6-1.3.5 0 1-.2 1.4-.5 1.3-1 .6-3.2.2-4.3"/><path class="st4" d="M21.2 116.2c9.9 5.9 6.9-.6 6.7-1.5-.3-1-.4-8.1-6.7 1.5m-.7 1.5c-2.5 11.3 2.7 6.4 3.5 5.9.9-.6 7.6-2.8-3.5-5.9m-1.6-.1c-11.5 1.1-5.2 4.5-4.5 5.2.8.6 5.1 6.3 4.5-5.2m-.3-1.6c-4.6-10.6-5.9-3.6-6.3-2.7-.4.9-4.5 6.8 6.3 2.7"/><path class="st2" d="m182.6 113.2-.2-.3-.1-.3c-.4-1.2-1-3.3-2.8-3.4-.5 0-.9.1-1.4.4 0-.5-.1-1-.3-1.4-.9-1.5-3.1-1.1-4.3-.9l-.4.1h-.4c-1.2 0-3.5 0-4.1 1.6-.2.4-.2.9-.1 1.5-.5-.2-1-.3-1.4-.2-1.7.4-2 2.6-2.2 3.8l-.1.4-.1.3c-.4 1.2-1.1 3.3.3 4.4.4.3.8.5 1.4.5-.4.4-.6.9-.6 1.3-.2 1.8 1.9 2.7 3 3.3l.3.2.3.2c1 .7 2.8 2.1 4.3 1.1.4-.3.7-.6.9-1.2.3.5.6.8 1.1 1 1.6.7 3.2-.9 4-1.8l.2-.3.3-.2c1-.7 2.8-2 2.4-3.7-.1-.5-.4-.9-.8-1.2.5-.1 1-.4 1.3-.7 1.2-1.4.1-3.4-.5-4.5"/><path class="st4" d="M173.8 115.2c-8.6-7.6-1.6-6.7-.6-6.8 1-.1 7.8-2.2.6 6.8m-1.2 1c-9.9 5.9-6.9-.6-6.7-1.5.3-1 .4-8.1 6.7 1.5m.6 1.5c2.5 11.3-2.7 6.4-3.5 5.9-.8-.6-7.6-2.8 3.5-5.9m1.6-.1c11.5 1.1 5.2 4.5 4.5 5.2-.7.6-5 6.3-4.5-5.2m.4-1.6c4.6-10.6 5.9-3.6 6.3-2.7.4.9 4.5 6.8-6.3 2.7"/><path class="st2" d="M177.4 116.3c0-.1 0-.2-.1-.3.9-.7 1.9-1.4 1.9-1.4l-.1-.2-2.3.4c-.6-.9-1.5-1.5-2.6-1.6-.2-.7-.5-1.4-.7-2.1h-.2s-.2 1.1-.3 2.2c-.7.2-1.3.6-1.7 1.1-.2.3-.4.6-.6 1h-2.3v.2s1.1.5 2.1 1v.3c.1.9.5 1.7 1.2 2.3l-.8 2.4.2.1s.9-1 1.8-1.8c.4.1.9.2 1.4.2.5 0 .9-.2 1.3-.4 1 .7 2 1.5 2 1.5l.2-.2s-.6-1.2-1.2-2.2c.6-.7.9-1.6.8-2.5"/><path class="st4" d="M173.8 114.6c-.5 0-1 .3-1.4.7-.7.9-.6 2.1.3 2.9s2.1.6 2.9-.3c.3-.4.5-1 .5-1.5-.2-1.1-1.2-1.9-2.3-1.8m-153.9.6c8.6-7.6 1.6-6.7.6-6.8-.9-.1-7.8-2.2-.6 6.8"/><path class="st2" d="M23.2 116.7c1-.5 2.1-1 2.1-1l-.1-.2h-2.3c-.1-.4-.3-.7-.6-1-.5-.5-1.1-.9-1.7-1.1l-.3-2.2h-.2s-.3 1.1-.7 2.1c-1.1.1-2 .7-2.6 1.6l-2.3-.4-.1.2s1 .7 1.9 1.4c0 .1 0 .2-.1.3-.1.9.2 1.8.8 2.5-.6 1-1.2 2.2-1.2 2.2l.2.2s1.1-.8 2-1.5c.4.2.8.3 1.3.4.5 0 .9 0 1.4-.2l1.8 1.8.2-.1-.8-2.4c.7-.6 1.1-1.4 1.2-2.3.1-.2.1-.3.1-.3"/><path class="st4" d="M21.3 115.3c-.3-.4-.8-.7-1.4-.7-1.1-.1-2.1.7-2.2 1.8 0 .5.1 1.1.5 1.5.7.9 2 1 2.9.2.4-.3.7-.8.7-1.4.1-.4-.1-1-.5-1.4"/><path class="st2" d="M21.2 67.2c-4.8-.9-9.5 2.4-10.3 7.2-.9 4.8 2.4 9.5 7.2 10.3 4.8.9 9.5-2.4 10.3-7.2.9-4.8-2.3-9.5-7.2-10.3"/><path class="st4" d="M23.2 73.9c-.1-.1-.3-.2-.4-.2-.7-.5-2.2-1.4-2.2-1.5-.2-.1-.4-.3-.6-.4-.6-.4-1.1-.8-1.7-1.1l-.6-.3c-.9-.4-1.7-.7-2.6-.8-.7.5-1.4 1.2-1.9 2 2.2.8 4.4 2.1 8.9 4.9.2-.6 1.1-2.5 1.1-2.6m-2 4.8c.1-.2.5-1.2.6-1.6-4.6-2.9-6.8-4.1-9-4.9-.3.6-.6 1.3-.8 2 1.3 1.7 4.7 3.4 9.2 4.5m-.5-7.3c1.7-1 3.7-.7 5.2-.2-.6-.7-1.3-1.4-2-1.9-1.4-.3-3.4-.3-5 .9.5.4 1.1.8 1.8 1.2"/><path class="st4" d="M13.8 79.7c.2.2.5.3.7.5.5.3 1.1.5 1.6.7.2.1.5.2.7.3.9.3 2.9.8 3 .8l1.1-2.6c-3.4-.9-7.2-2.3-9-4.3-.1.9-.1 1.8.1 2.6.4.8 1 1.4 1.8 2m6.2 3-.7-.2-2.1-.6c.4.8.9 1.4 1.5 1.8.8.1 1.6.1 2.4 0-.7-.5-1.1-1-1.1-1m7.2-9-.6-1.5c-1.4-.6-3.4-1.2-5.2-.3l2.5 1.6c.5 0 1-.1 1.4 0h.7c.4 0 .8.1 1.2.2m-1.3.4c-.1 4.1-2 7.2-3.7 9.2 2.6-.9 4.7-3.1 5.2-6 .2-1 .2-1.9 0-2.9l-1.5-.3m-7.7-4.2c1.2-1 2.5-1.4 3.8-1.4-.3-.1-.7-.2-1-.2-1.7-.3-3.5 0-5.1.8.8.1 1.6.4 2.3.8"/><path class="st4" d="M23.9 74.2c-.6 1.2-.9 2-1.2 2.7l-.3.6c-.1.3-.6 1.4-.6 1.4l-.3.6-1.1 2.7c.3.4.7.7 1 1 1.6-1.9 3.7-5 3.7-9.1-.3 0-.8 0-1.2.1m-7.6 7.4c-.6-.2-1.1-.4-1.6-.7.2.6.5 1.1.8 1.6.6.4 1.2.7 1.9.9-.5-.5-.9-1.1-1.1-1.8m-2.4-1.1c-.4-.2-.7-.5-1-.7.4.6.8 1.2 1.3 1.8-.1-.4-.2-.7-.3-1.1"/><path class="st2" d="M164.4 77.5c.9 4.8 5.5 8.1 10.3 7.2 4.8-.9 8.1-5.5 7.2-10.3-.9-4.8-5.5-8.1-10.3-7.2-4.9.8-8.1 5.5-7.2 10.3"/><path class="st4" d="m169.6 73.9.4-.2c.9-.6 1.9-1.2 2.8-1.9.6-.4 1.1-.8 1.7-1.1l.6-.3c.8-.4 1.7-.7 2.6-.8.7.5 1.4 1.2 1.9 2-2.2.8-4.4 2.1-8.9 4.9-.2-.6-1.1-2.5-1.1-2.6m2 4.8c-.1-.2-.5-1.2-.6-1.6 4.6-2.9 6.8-4.1 9-4.9.3.6.6 1.3.8 2-1.3 1.7-4.7 3.4-9.2 4.5m.5-7.3c-1.7-1-3.7-.7-5.2-.2.6-.7 1.3-1.4 2-1.9 1.4-.3 3.4-.3 5 .9l-1.8 1.2"/><path class="st4" d="M179 79.7c-.2.2-.5.3-.7.5-.5.3-1.1.5-1.6.7-.2.1-.5.2-.7.3-.9.3-2.8.8-3 .8 0-.1-.8-1.9-1.1-2.6 3.4-.9 7.2-2.3 9-4.3.1.9.1 1.8-.1 2.6-.4.8-1 1.4-1.8 2m-6.2 3 .7-.2 2.1-.6c-.4.8-.9 1.4-1.5 1.8-.8.1-1.6.1-2.4 0 .6-.5 1.1-1 1.1-1m-7.2-9c.2-.5.4-1 .7-1.5 1.4-.6 3.4-1.2 5.2-.3l-2.5 1.6c-.5 0-1-.1-1.4 0h-.7c-.4 0-.8.1-1.3.2m1.3.4c.1 4.1 2 7.2 3.7 9.2-2.6-.9-4.7-3.1-5.2-6-.2-1-.2-1.9 0-2.9l1.5-.3m7.7-4.2c-1.2-1-2.5-1.4-3.8-1.4.3-.1.7-.2 1-.2 1.7-.3 3.5 0 5.1.8-.8.1-1.6.4-2.3.8"/><path class="st4" d="m168.9 74.2 1.2 2.7.3.6c.1.3.6 1.4.6 1.4l.3.6 1.1 2.7c-.3.4-.6.7-1 1-1.6-1.9-3.7-5-3.7-9.1.3 0 .8 0 1.2.1m7.6 7.4c.6-.2 1.1-.4 1.6-.7-.2.6-.4 1.1-.8 1.6-.6.4-1.2.7-1.9.9.5-.5.9-1.1 1.1-1.8m2.4-1.1c.4-.2.7-.5 1-.7-.4.6-.8 1.2-1.3 1.8.1-.4.2-.7.3-1.1"/></svg>