<svg version="1.1" id="Layer_1" xmlns="http://www.w3.org/2000/svg" x="0" y="0" viewBox="0 0 192.8 192.8" style="enable-background:new 0 0 192.8 192.8" xml:space="preserve"><style>.st0,.st1{fill-rule:evenodd;clip-rule:evenodd;fill:#001c71}.st1{fill:#fff}</style><path class="st0" d="M183.2 112.6c-.6 1.1-1.1 2.2-1.5 3.4l10.1 3.8-.2.6c-16.1 38.9-46.4 62.6-89 66.1l-6.2 5.9-6.2-5.9c-42.6-3.5-72.9-27.2-89-66.1l-.2-.6 10-3.8c-.4-1.2-.9-2.3-1.5-3.4l-6.2 2.8-.3-.2c-2.3-1.5-2.6-4.3-2.3-6.8.2-1.7 1.6-2.7 3.1-3.3 5.2-2.2 10.3-4.5 15.6-6.6 1.2-.5 2.4-.5 3.5 0 .8.4 1.6.9 2.3 1.4h.1c5 5.5 5 11.4 5.7 18.3l.1.5-5.1 1.8c9.4 18 23.9 31.9 43.2 38.8 8.7 3.1 17.9 4.6 27.1 4.6s18.4-1.5 27.1-4.6c19.3-6.9 33.8-20.8 43.2-38.8l-5.1-1.8.1-.5c.8-6.9.7-12.9 5.7-18.3h.1c.7-.5 1.5-1 2.3-1.4 1.1-.6 2.3-.5 3.5 0 5.2 2.1 10.4 4.4 15.6 6.6 1.5.6 2.9 1.6 3.1 3.3.3 2.5 0 5.3-2.3 6.8l-.3.2-6.1-2.8z"/><path class="st1" d="m96.4 191.6 6-5.7c45.7-3.7 74-30.3 88.7-65.8l-10-3.8c.5-1.6 1.1-3.1 2-4.5l6.3 2.8c1.6-1 2.4-3 2-6.3-.2-1.2-1-2.1-2.8-2.9L173 98.8c-1.1-.4-2.1-.4-3 0-.7.4-1.5.8-2.2 1.3-4.9 5.4-4.8 11.2-5.6 18l5.3 1.8c-15.2 29.8-42.1 43.6-71.1 44.3-29.1-.7-55.9-14.5-71.1-44.3l5.3-1.8c-.8-6.7-.7-12.6-5.6-18-.7-.5-1.5-.9-2.2-1.3-.9-.4-1.9-.4-3 0l-15.6 6.6c-1.7.7-2.6 1.7-2.8 2.9-.3 3.3.4 5.2 2 6.3l6.3-2.8c.9 1.4 1.6 2.9 2 4.5l-10 3.8c14.7 35.5 43 62.1 88.7 65.8l6 5.7z"/><path class="st0" d="M169 101.6c-4.1 4.5-4.3 9.8-4.9 15.4 1.4.5 2.9 1 4.3 1.5l2.1-4.8c.1-.3-.3-.4-.6-.1-1 .9-1.9 2.3-2.9 2.6h-2.1c.1-.6.1-1 .2-1.6 1 .3 1.8.4 2 .2.7-.8 1.5-1.6 2.1-2.4.4-.3.8-.4 1.4-.2 2.9 1.1 5.8 2.3 8.8 3.4.5-1.6 1.2-3.1 2-4.5-2.5-1.1-5-2.1-7.5-3.2-.5-.2-.5-.7-.5-1.6.3-1.8 1.1-4.2 0-5.5-.6-.6-1.6-.8-2.5-.4-.7.5-1.3.8-1.9 1.2zm-145.2 0c4.1 4.5 4.3 9.8 4.9 15.4-1.4.5-2.9 1-4.3 1.5l-2.1-4.8c-.1-.3.3-.4.6-.1 1 .9 1.9 2.3 2.9 2.6h2.1c-.1-.6-.1-1-.2-1.6-1 .3-1.8.4-2 .2-.7-.8-1.5-1.6-2.1-2.4-.4-.3-.8-.4-1.4-.2-2.9 1.1-5.8 2.3-8.8 3.4-.5-1.6-1.2-3.1-2-4.5 2.5-1.1 5-2.1 7.5-3.2.5-.2.5-.7.5-1.6-.3-1.8-1.1-4.2 0-5.5.6-.6 1.6-.8 2.5-.4.7.5 1.3.8 1.9 1.2zm-20.1 11c-.8-1.1-.8-2.7-.6-4 .1-.7 1.1-1.2 1.7-1.5 4.1-1.8 8.3-3.6 12.4-5.3.1 1.5.2 3.1.3 4.6 0 .2-.1.3-.2.3-4.7 2-8.9 3.8-13.6 5.9zm19.1 6.5.9 1.8c9.6 18.8 24.8 33.4 44.8 40.5 9 3.2 18.4 4.7 27.9 4.7s18.9-1.5 27.9-4.7c20-7.2 35.2-21.7 44.8-40.5l.9-1.8c.6-1.5 1.3-2.9 1.9-4.4.1-.2.3-.3.5-.2 2.2.9 4.3 1.9 6.5 2.8 3.3 1.2 6.6 2.5 9.8 3.7-16 37.1-45.3 59.7-86.5 63-.2 0-.4 0-.6.1-1.7 1.6-3.5 3.3-5.2 4.9-1.7-1.6-3.5-3.3-5.2-4.9-.2 0-.4 0-.6-.1-41.2-3.3-70.5-25.9-86.5-63 3.3-1.2 6.6-2.5 9.8-3.7 2.2-.9 4.3-1.9 6.5-2.8.2-.1.4 0 .5.2.6 1.5 1.2 3 1.9 4.4zm166.2-6.5c.8-1.1.8-2.7.6-4-.1-.7-1.1-1.2-1.7-1.5-4.1-1.8-8.3-3.6-12.4-5.3-.1 1.5-.2 3.1-.3 4.6 0 .2.1.3.2.3 4.7 2 9 3.8 13.6 5.9z"/><path class="st0" d="M104.4 161.5c-2.5 2.6-5.1 5.2-7.6 7.8l-.4.4-.4-.4c-2.5-2.6-5.1-5.2-7.6-7.8-14.9-1.6-29.3-7.2-41.1-16.6-10.2-8.2-18.2-19.4-21.5-32.1-3.2-12.4-1.2-25.4 2.4-37.5 1.5-5.1 3.8-9.9 5.2-15.1 1-3.8 1.9-8.1 1.3-12-1.1-7.7-7.7-14.8-13.3-19.8l-.5-.4.5-.4C31 18.6 40.6 9.7 50.2.8l.4-.4.4.4c6.2 6.7 17.4 8.3 26.1 7.4 6.6-.6 13.6-2.7 18.9-6.7l.4-.3.4.3c5.3 4 12.3 6.1 18.9 6.8 8.6.8 19.9-.8 26.1-7.4l.4-.4.4.4c9.6 8.9 19.2 17.8 28.9 26.7l.5.4-.5.4c-5.6 5-12.2 12.1-13.3 19.8-.6 3.9.3 8.2 1.3 12 1.3 5.2 3.7 10 5.2 15.1 3.6 12.1 5.7 25.1 2.4 37.5-3.3 12.8-11.3 23.9-21.5 32.1-11.8 9.5-26.2 15-41.2 16.6z"/><path class="st1" d="M96.4 2c12.4 9.5 36 9.7 45.8-.7 9.6 8.9 19.2 17.8 28.9 26.7-7.2 6.4-12.4 13.2-13.5 20.2-.5 3.8.4 7.9 1.3 12.3 1.5 5.2 3.6 10 5.2 15.1 3.8 12.8 4.9 25.2 2.4 37.2-7.3 23.6-29.9 44.9-62.3 48.4-2.6 2.7-5.2 5.3-7.8 8-2.6-2.7-5.2-5.3-7.8-8-32.4-3.4-55-24.8-62.3-48.4-2.5-12-1.4-24.3 2.4-37.2 1.6-5.1 3.7-9.9 5.2-15.1 1-4.3 1.8-8.4 1.3-12.3-1.1-7-6.3-13.7-13.5-20.2C31.4 19 41 10.1 50.6 1.2 60.3 11.7 84 11.4 96.4 2z"/><path class="st0" d="M96.4 5.6c-5.6 3.6-12.4 5.6-18.9 6.2-8.9.8-19.7-.7-26.9-6.5-8.2 7.5-16.3 15.1-24.5 22.6 5.6 5.4 11 12.1 12.1 19.7.7 4.5-.3 9.1-1.4 13.4-1.4 5.2-3.7 10.1-5.2 15.2-3.4 11.4-5.5 23.8-2.4 35.6 3.1 12 10.7 22.5 20.3 30.3 11.3 9.1 25.1 14.4 39.4 15.9l1.1.1.8.8c1.9 1.9 3.8 3.9 5.6 5.8 1.9-1.9 3.8-3.9 5.6-5.8l.8-.8 1.1-.1c14.3-1.5 28.2-6.8 39.4-15.9 9.6-7.7 17.2-18.2 20.3-30.3 3.1-11.8 1-24.1-2.4-35.6-1.5-5.1-3.9-10-5.2-15.2-1.1-4.3-2.1-9-1.4-13.4 1.1-7.6 6.5-14.4 12.1-19.7-8.2-7.5-16.3-15.1-24.5-22.6-7.2 5.9-18 7.4-26.9 6.5-6.5-.6-13.4-2.6-18.9-6.2z"/><path class="st1" d="M134.4 46.3c1.3.9 2.4 1.9 3.5 2.9-.5.5-.9 1-1.4 1.6-.6-1.4-1.4-2.8-2.5-4-1.1 1.2-1.9 2.6-2.5 4-.5-.5-.9-1-1.4-1.6 1-1 2.2-2 3.5-2.9l.3-.3.1.1.1-.1.3.3zm-75.1 0c1.3.9 2.4 1.9 3.5 2.9-.5.5-.9 1-1.4 1.6-.6-1.4-1.4-2.8-2.5-4-1.1 1.2-1.9 2.6-2.5 4-.5-.5-.9-1-1.4-1.6 1-1 2.2-2 3.5-2.9l.3-.3.1.1.1-.1.3.3zM48.1 25.9c1.4-1.9 1.2-3.8.3-5.8-1.3 1.9-1.5 4-.3 5.8zm1.5-1.1c2.2-1.1 2.8-2.6 3-4.8-2.1 1.1-3.1 2.6-3 4.8zM48.1 28c2.2-.5 3.1-1.5 3.5-3.3-1.6.4-3 1.1-3.5 3.3zm-.9 1.4c.9-2.2.4-3.8-.8-5.6-.9 2.2-.7 4 .8 5.6zm-.5 2.3c-1.9-1-3.2-2.9-2.6-5 2 1 2.9 2.8 2.6 5zm.5 1.1c2.2-1.4 2.4-2.5 2.6-4.7-2.1 1.3-2.8 2.5-2.6 4.7zm.3 2.7c-2.1-.6-3.6-2.3-3.4-4.4 2.1.5 3.3 2.1 3.4 4.4zm1.1-2.8c-.8 2.4-.4 4.4 1 5.8.7-2.2.5-4.2-1-5.8zm-.2 5.3c-2.5-.1-4.2-1-4.7-3.1 2.2-.1 3.8 1 4.7 3.1zm2 3.5c-2.5-.1-4.2-1-4.7-3.1 2.2-.1 3.7 1 4.7 3.1zm-.2-3.6c-.4 2.3.6 4.1 2.6 5-.1-2.6-.8-4.3-2.6-5zm7.3 7.2c-2.1 0-3.9-1.4-4.3-3.3 2.4 0 4 1.5 4.3 3.3zm-5.3-1.7c-1.5-1.5-3.3-2-5.5-1 1.6 1.6 3.4 2 5.5 1zm2.8 1.3c-1.9-1-3.8-.8-5.5.8 2 1 3.8.8 5.5-.8zm3.4 1.1c-2-.8-3.8-.6-5.4 1.2 2 .9 3.9.5 5.4-1.2zm11.2-19.9c-1.4-1.9-1.2-3.8-.3-5.8 1.2 1.9 1.4 4 .3 5.8zm-1.5-1.1c-2.2-1.1-2.8-2.6-3-4.8 2.1 1.1 3.1 2.6 3 4.8zm1.5 3.2c-2.2-.5-3.1-1.5-3.5-3.3 1.6.4 3 1.1 3.5 3.3zm.9 1.4c-.9-2.2-.4-3.8.8-5.6.9 2.2.7 4-.8 5.6zm.5 2.3c1.9-1 3.2-2.9 2.6-5-2 1-2.9 2.8-2.6 5zm-.5 1.1c-2.2-1.4-2.4-2.5-2.6-4.7 2.1 1.3 2.8 2.5 2.6 4.7zm-.3 2.7c2.1-.6 3.6-2.3 3.4-4.4-2.1.5-3.3 2.1-3.4 4.4zm-1.1-2.8c.8 2.4.4 4.4-1 5.8-.7-2.2-.5-4.2 1-5.8zm.1 5.3c2.5-.1 4.2-1 4.7-3.1-2.2-.1-3.7 1-4.7 3.1zm-1.9 3.5c2.5-.1 4.2-1 4.7-3.1-2.2-.1-3.7 1-4.7 3.1zm.1-3.6c.4 2.3-.6 4.1-2.6 5 .2-2.6.8-4.3 2.6-5zm-7.2 7.2c2.1 0 3.9-1.4 4.3-3.3-2.4 0-4.1 1.5-4.3 3.3zm5.3-1.7c1.5-1.5 3.3-2 5.5-1-1.6 1.6-3.5 2-5.5 1zm-2.8 1.3c1.9-1 3.8-.8 5.5.8-2 1-3.9.8-5.5-.8zm-3.4 1.1c2-.8 3.8-.6 5.4 1.2-2.1.9-3.9.5-5.4-1.2zm63.9-19.9c1.4-1.9 1.2-3.8.3-5.8-1.3 1.9-1.5 4-.3 5.8zm1.4-1.1c2.2-1.1 2.8-2.6 3-4.8-2 1.1-3.1 2.6-3 4.8zm-1.4 3.2c2.2-.5 3.1-1.5 3.5-3.3-1.6.4-3 1.1-3.5 3.3zm-.9 1.4c.9-2.2.4-3.8-.8-5.6-.9 2.2-.7 4 .8 5.6zm-.5 2.3c-1.9-1-3.2-2.9-2.6-5 2 1 2.9 2.8 2.6 5zm.4 1.1c2.2-1.4 2.4-2.5 2.6-4.7-2 1.3-2.7 2.5-2.6 4.7zm.4 2.7c-2.1-.6-3.6-2.3-3.4-4.4 2.1.5 3.3 2.1 3.4 4.4zm1-2.8c-.8 2.4-.4 4.4 1 5.8.8-2.2.6-4.2-1-5.8zm-.1 5.3c-2.5-.1-4.2-1-4.7-3.1 2.2-.1 3.8 1 4.7 3.1zm2 3.5c-2.5-.1-4.2-1-4.7-3.1 2.1-.1 3.7 1 4.7 3.1zm-.2-3.6c-.4 2.3.6 4.1 2.6 5-.1-2.6-.8-4.3-2.6-5zm7.3 7.2c-2.1 0-3.9-1.4-4.3-3.3 2.4 0 4 1.5 4.3 3.3zm-5.3-1.7c-1.5-1.5-3.3-2-5.5-1 1.6 1.6 3.4 2 5.5 1zm2.8 1.3c-1.9-1-3.8-.8-5.5.8 2 1 3.8.8 5.5-.8zm3.4 1.1c-2-.8-3.8-.6-5.4 1.2 2 .9 3.9.5 5.4-1.2zm11.1-19.9c-1.4-1.9-1.2-3.8-.3-5.8 1.3 1.9 1.5 4 .3 5.8zm-1.4-1.1c-2.2-1.1-2.8-2.6-3-4.8 2.1 1.1 3.1 2.6 3 4.8zm1.4 3.2c-2.2-.5-3.1-1.5-3.5-3.3 1.7.4 3 1.1 3.5 3.3zm1 1.4c-.9-2.2-.4-3.8.8-5.6.8 2.2.7 4-.8 5.6zm.5 2.3c1.9-1 3.2-2.9 2.6-5-2 1-2.9 2.8-2.6 5zm-.5 1.1c-2.2-1.4-2.4-2.5-2.6-4.7 2.1 1.3 2.7 2.5 2.6 4.7zm-.3 2.7c2.1-.6 3.6-2.3 3.4-4.4-2.1.5-3.3 2.1-3.4 4.4zm-1.1-2.8c.8 2.4.4 4.4-1 5.8-.8-2.2-.6-4.2 1-5.8zm.1 5.3c2.5-.1 4.2-1 4.7-3.1-2.2-.1-3.7 1-4.7 3.1zm-1.9 3.5c2.5-.1 4.2-1 4.7-3.1-2.2-.1-3.8 1-4.7 3.1zm.1-3.6c.4 2.3-.6 4.1-2.6 5 .2-2.6.8-4.3 2.6-5zm-7.2 7.2c2.1 0 3.9-1.4 4.3-3.3-2.5 0-4.1 1.5-4.3 3.3zm5.2-1.7c1.5-1.5 3.3-2 5.5-1-1.5 1.6-3.4 2-5.5 1zm-2.7 1.3c1.9-1 3.8-.8 5.5.8-2 1-3.9.8-5.5-.8zm-3.4 1.1c2-.8 3.8-.6 5.4 1.2-2.1.9-3.9.5-5.4-1.2zM95.8 16.7c.3-.5.9-.6 1.5-.6.8 0 1.3.4 1.6 1.1.2.6 0 1.4.3 2 4.8 10 9.5 20 14.3 30 .2.4.5.7.9 1 1.3.8 2.7 1.5 3.1 3 .2 1.2-.9 2.1-1.8 2.6 0 12.3-.2 24.6-.1 36.8.4.3 1 .8 1 1.8l-.1 8.8c-.5 1.4-2.2 1.1-3.3 1.1 0-.7 0-1.6-.1-2.3-.4-.4-1.1-.6-1.6-.8-10.4-3.5-20.2-7.1-32-11.3-.6-.2-1.2-.7-1.1-1.4 0-2-.1-3.9 0-5.9 0-.7.8-1 1.3-1.4 0-8.3 0-16.7-.1-25-.7-.4-1.5-.8-1.8-1.6-.5-1.4.5-2.8 1.6-3.7.6-.5 1.4-.8 1.8-1.6 4.4-9.3 8.9-18.6 13.3-27.9.4-.9.9-1.7 1.2-2.6-.2-.7-.3-1.5.1-2.1zM84.7 48.4c4.2-8.8 8.4-17.5 12.5-26.3.6 1.1 1.1 2.3 1.7 3.4-1 .2-2.4-.1-2.5.8-.2.4 1.9.1 3 .3.2.3.3.8.5 1.1-.7.3-2 .3-1.9.8-.2.4 1.7.2 2.6.3.3.7.5 1.4.8 2.1-1.4.1-2.4.1-3.9.4-.5.1-.1.4.7.5 1.4.2 2.5.2 3.9.7.4.4.5 1.2.7 1.6-1.4.1-4-.2-3.9.3 1.3 1.2 3.1.1 4.5 1 .4.6.6 1.5 1 2.2-1.3 0-3.3-.4-4.8.3-.9.9 4.3.3 5.9 1.7.5.7.8 1.5 1.1 2.2-2.7-.2-5.3-.3-8-.2-.6 0-.7.4-.2.4 3 .4 6.1.4 9 1.4.4.9.9 1.8 1.3 2.7-2.4-.3-4.8-.8-7.2-.5-.4.1-.2.4.2.5 2.5.5 5.1.6 7.6 1.5.3.2.5.4.6.6-4.2-.6-8.5-1.1-12.7-1.2-4.3.2-8.4.6-12.5 1.4zM109.8 93l3.1.9v6.4l-3.1-1.2V93zm-5.5-1.6 3.6 1.1v5.9l-3.6-1.2v-5.8zm-5.7-1.9 3.6 1.1v5.8L98.6 95v-5.5zm-5.4-1.9 3.4 1.1v5.7l-3.4-1.2v-5.6zm-5.4-1.9 3.6 1.3v5.7l-3.5-1.2-.1-5.8zm-5.3-2 3.3 1.3.1 5.9-3.3-1.1-.1-6.1zm18-26.9c4.1.4 8.3.7 12.2 2v1.4c-2.5-.6-5.1-1.2-7.7-.8-.5.1-.7.4-.4.5 2.8.3 5.7.4 8.1 2V64c-1.9-.5-3.9-.8-5.9-1.1-2.3-.5-4.2-.5-6.7-.5l.4-5.6zm-5.8 0c1.5-.2 3.1-.1 4.6-.1-.2 2.4-.2 4.9-.4 7.3h-3.8c-.1-2.4-.2-4.8-.4-7.2zm-10.4-2.1c7.1-1.3 14.4-1.3 21.6-.7 2.3.3 4.7.5 6.8 1.5v1.8c-3.7-.5-8.4-1.3-12.1-1.4-.4-.5-.7-.6-1.6-.6-1.8 0-3.7-.1-5.5.1-.3 0-.5.3-.5.6.1 2.2.2 4.5.4 6.7-2.1.2-4.2.4-6.2.7-.7.1-1.4.1-1.9.6v.1l.1.1c2.7-.1 5.4-.3 8.2-.4 0 .3.1.6.1.9 0 .3.3.5.6.5 1.6 0 3.1-.1 4.7 0 .4 0 .9.1 1.3-.2.1-.4.2-.9.2-1.3 1.8 0 3.6.2 5.4.5 2.4.4 4.9.8 7.1 1.9v1.6c-2.6-.5-5.1-1-7.8-.9-.5.1-.8.1-1 .4v.1l.1.1c2.8.4 6 .6 8.5 2.1l.1 1.7c-5.7-1.2-11.4-1.9-17.2-1.5-2.4.2-4.6 0-6.9.8-.3.1 0 .5.5.6 4.8-.2 9.2-.2 14 .2 3.3.4 6.7.8 9.8 2.1v2c-4.5-1-9.1-1.3-13.7-1.1-.5.1-.4.5-.1.5 4.7.3 9.3.6 13.7 2.4v2c-2.3-.3-4.3-.5-6.6-.3-.6.2-.5.5 0 .6 2.4.1 4.5.3 6.7 1.2v2.7c-3.2-1.1-6.6-.9-9.9-.7-.6.1-.8.4-.8.6v.1h.1c3.6 0 7.3.1 10.7 1.4v2.5c-1.9-.4-3.9-.6-5.9-.6-1 0-1.5.7-.8.9 1.3.1 2.2 0 3.4.1 1.1.1 2.2.5 3.3.8 0 1.3.1 3 0 4.2l-27.3-9.1c-1.1-.5-2.8-1.2-3.2-2.6-.3-3.5-.2-6.3-.3-9.8 0-4.9-.1-9.7-.1-14.6-.3-1.3 1.1-1.7 2-1.9zm-.1-3.8c8.7-1.7 17.8-2 26.5.3 1.3.4 2.6.5 3.2 1.9.1.3 0 1-.3 1-1 0-1.9-.6-2.8-.9-5-1.4-10.4-1.8-15.6-1.7-4.5.1-9 .6-13.3 2-.4.1-.8.3-1.3.2-.5-.2-.9-.8-.6-1.2 1.2-1.1 2.7-1.3 4.2-1.6zM47.8 106.9c.6 1.5.5 3.2.5 4.7v11.5c0 1.6-.2 3.2-.4 4.7 0 0 0 .1.1.1 4.4 0 8.7-.1 13.1.1 0 0 .1 0 .1-.1.2-1 .6-2.3.9-3.3.1-.4-.1-.9-.7-.5-1.1.8-2.5 1.5-3.8 1.5h-1.7c-2.5 0-2.9-.9-2.9-3.5v-4.5c0-.1.1-.1.1-.1 2.1 0 4.2 0 6.3.3h.1c.2-.9.5-1.7.7-2.6.1-.2 0-.3-.2-.2-2.2.3-4.6.2-6.9.2 0-2.1 0-4.1.1-6.2 0-.1 0-.1.1-.1 2.7-.1 5.3-.1 6.4 1.6.1.2.4.1.4 0 .4-1.2.7-2.4 1-3.7 0 0 0-.1-.1-.1-4.3.1-8.7.1-13 0-.2.1-.2.1-.2.2zm81.8 6.1c0-.1 0-.1.1-.1 1.5 0 2.9 0 4.3-.1.1 0 .2 0 .2.1 0 .9-.1 1.9-.1 2.5 1.5-1.6 3.6-2.9 5.5-2.9 2.9 0 4.8 1.4 4.8 5.3v5.3c0 1.7.2 3.5.6 4.6 0 .1 0 .1-.1.1-1.6-.1-3.2-.1-4.8 0-.1 0-.2-.1-.1-.1.2-1.5.4-3 .4-4.5v-4.8c0-1.2-.4-3-2.7-3-1.5 0-3.3 1.3-3.4 3.5v4c0 1.7.2 3.4.6 4.8 0 .1 0 .1-.1.1-1.6-.1-3.1-.1-4.7 0-.1 0-.1 0-.1-.1.3-1.8.3-3.7.4-5.6v-4c-.1-1.6-.4-3.8-.8-5.1zm-8.5-.5c-5.3.2-8.1 3.3-8.2 8.1 0 4.9 2.7 7.8 7.8 7.7 4.9-.1 7.9-3.2 8-8.3.2-3.9-2.4-7.6-7.6-7.5zm-.5 1.8c3.1-.1 3.7 3.5 3.8 6.1.1 2.8-.3 6.3-3.6 6.3-2.9 0-3.5-3.5-3.5-6.3 0-2 .1-6 3.3-6.1zm-16.7-4c.1 1 .1 1.8.1 2.7 0 0 0 .1-.1.1-.6 0-1.1 0-1.7-.1 0 0-.1 0-.1.1l-.5 2c-.1.3 0 .3.3.3.6-.1 1.3-.1 1.9-.2.1 0 .1.1.1.2v8.3c0 3.5 1.8 4.8 4.2 4.8 1.2 0 2.4-.3 3.6-.6.1 0 .1 0 .1-.1l.6-2c.1-.3-.2-.5-.4-.4-.4.3-1.1.6-1.9.6-1.8 0-2.3-1.3-2.3-3.4v-5.2c0-.6.1-1.8.1-2 0 0 0-.1.1-.1 1.3 0 2.6 0 3.9.1 0 0 .1 0 .1-.1l.6-2.1c.1-.2 0-.4-.3-.3-.5.1-1 .2-1.5.2H108s-.1 0-.1-.1c0-1.3.1-2.7.3-4.1 0-.4-.2-.5-.6-.3-1 .7-2.4 1.3-3.7 1.7zM90.3 113c-.1 0-.1.1 0 0 .3 1.1.6 3.5.6 5.2v5.1c-.1 1.5-.1 3.2-.3 4.6 0 .1 0 .1.1.1 1.6-.1 3.2-.1 4.8 0 0 0 .1 0 .1-.1-.5-1.3-.6-2.9-.6-4.6v-3c0-2.4 1.3-4 2.7-4 .7 0 1 .4 1.4.9.1.2.4.2.5 0l1.2-4.2c0-.1 0-.1-.1-.2-.3-.2-.8-.2-1.3-.2-2.2 0-3.4 2-4.7 3.8 0-1.1 0-2.3.1-3.4l-.1-.1c-1.7.1-3 .1-4.4.1zm-10.4 7.2s-.1 0 0 0c0 3.2 1.7 5.7 5.1 5.7 1.2 0 2.2-.3 3.2-1 .2-.2.6-.1.5.4l-.6 2.3-.1.1c-1.5.5-3.2.9-4.7.9-4.2 0-7.8-3-7.6-8 .2-5.1 3.2-7.8 7.4-7.8 3 0 6 1.5 6 5.8 0 .5 0 1.3-.3 1.6-.1.1-.1.1-.2.1l-8.7-.1zm0-1.9c.1-1.9.6-3.9 2.9-3.9 1.4 0 2.4 1 2.4 2.3-.1 2.2-2.3 1.3-5.3 1.6zM61 112.9c.9 1.2 1.5 2.4 2 3.7 1 2.9 2 5.9 2.9 8.8.3.8.5 1.7.6 2.5 0 .1 0 .1.1.1 1.1-.1 2.3-.1 3.5-.1 0 0 .1 0 .1-.1.2-.8.4-1.6.7-2.5l3.6-8.4c.6-1.3 1.3-2.7 2.1-3.8.2-.3.2-.5-.3-.4-1.2.1-2.5.2-3.7.1-.1 0-.1 0-.1.1.1 1.6-.3 3.2-.9 4.6l-2.3 6.2-2.3-7.8c-.2-1-.4-2-.6-3.1 0 0 0-.1-.1-.1-1.7.2-3.5.2-5.3.2zM82.2 137.6c-.1 0-.1 0-.1.1l-.3.9c-.1.1.1.2.1.1.5-.2 1.7-.5 2-.5.4 0 .7.2.6 1.4v6.2c0 .9 0 1.7-.2 2.5h.1c.6 0 1.2-.1 1.8 0 0 0 .1 0 0 0-.2-.7-.3-1.5-.3-2.5v-6.2c.1-.9.1-1.8.2-2.6 0-.1-.1-.2-.2-.1-.9.1-3.2.7-3.7.7zm22.1 1.7c0-1.5 1.3-2.8 3.3-2.9 1.8 0 3 1.3 3 2.7 0 1.5-1.4 2.4-2.2 2.8 1.5.8 2.5 1.8 2.6 3.3 0 1.7-1.4 3.4-3.9 3.3-1.9 0-3.4-1.1-3.4-3 0-1.4 1.1-2.5 2.6-3.3-1.1-.6-2-1.3-2-2.9zm2.9 3.4c1.2.6 2.4 1.4 2.4 2.8 0 1.2-1.1 2.2-2.4 2.2-.9 0-2.2-.7-2.2-2.2.1-1.6 1.3-2.3 2.2-2.8zm.5-1.2c1.1-.6 1.8-1.4 1.8-2.2 0-1.1-.7-2-1.9-2-.9 0-1.9.8-1.8 1.9-.1 1 .9 1.7 1.9 2.3zm-19.3-2.2c0-1.5 1.3-2.8 3.3-2.9 1.8 0 3 1.3 3 2.7 0 1.5-1.4 2.4-2.2 2.8 1.5.8 2.5 1.8 2.6 3.3 0 1.7-1.4 3.4-3.9 3.3-1.9 0-3.4-1.1-3.4-3 0-1.4 1.1-2.5 2.6-3.3-1.1-.6-2-1.3-2-2.9zm2.9 3.4c1.2.6 2.4 1.4 2.4 2.8 0 1.2-1.1 2.2-2.4 2.2-.9 0-2.2-.7-2.2-2.2 0-1.6 1.2-2.3 2.2-2.8zm.4-1.2c1.1-.6 1.8-1.4 1.8-2.2 0-1.1-.7-2-1.9-2-.9 0-1.9.8-1.8 1.9 0 1 1 1.7 1.9 2.3zm4.9-4.5s0 .1 0 0c-.1.7-.3 1.2-.4 1.8v.1h.1s.1 0 .1-.1c.5-.4 1.1-.4 1.6-.4h4.1l-5.9 9.9c0 .1-.1.1 0 .2l.1.1.1.1c.6-.1 1.3 0 2 0 .1 0 .1 0 .1-.1.2-2.7 3.8-8.8 5.1-10.3v-.2c-.1-.3-.1-.6-.2-.9 0-.1 0-.1-.1-.1-2.2.1-4.4.1-6.6 0 0-.1 0-.1-.1-.1zM18 138.7l7.6-4.8-.9-1.4-4.9 3.1 3.1-6-1.3-2-7.6 4.8.9 1.4 5.9-3.7-3.8 7 1 1.6zm5 6.9 1.1-.8-.8-1.1 5.2-3.8.8 1.1 1.1-.8-2.7-3.8-1.1.8.8 1.1-5.2 3.8-.8-1.1-1.1.8 2.7 3.8zm6.2 7.2 1.1-1-2.7-2.9 5.6-5-1.2-1.4-6.7 6 3.9 4.3zm14.7 3.9 1.2-1.4c-.2-.4-.5-.8-.7-1.1-.3-.4-.7-.8-1.1-1.2-.7-.6-1.6-1.1-2.5-1.1-.8 0-1.5.2-2 .9-.4.4-.6.9-.6 1.5s.2 1.2.5 1.7c.2.3.4.6.6.8.2.3.4.6.6.8.2.2.3.5.3.8 0 .3 0 .5-.2.7-.1.2-.3.3-.6.3-.2 0-.4 0-.6-.1-.2-.1-.4-.2-.5-.3-.2-.1-.3-.2-.4-.3-.4-.4-.8-.8-1.1-1.3-.3-.5-.5-1.1-.6-1.7l-1.3 1.5c.2.4.5.8.7 1.2.4.5.8.9 1.3 1.3.8.6 1.7 1.1 2.7 1.2.9 0 1.6-.3 2.1-1 .3-.4.6-.9.6-1.4 0-.6-.2-1.1-.5-1.6-.2-.3-.3-.5-.5-.8-.2-.2-.4-.5-.6-.7-.2-.3-.5-.7-.5-1-.1-.3 0-.5.2-.8.1-.2.3-.3.5-.3h.6c.2.1.4.1.5.2.2.1.3.2.5.3.4.4.8.8 1 1.3.1.7.3 1.1.4 1.6zm5.2 11.3 2.2-9.2-1.9-1.2-7.3 6 1.6 1 1.5-1.3 2.9 1.8-.5 1.9 1.5 1zm-.8-4.3-2.2-1.4 3.3-2.8-1.1 4.2zm12.7 1.9.6-1.3-6.5-3.2-.6 1.3 2.4 1.2-3.3 6.8 1.7.8 3.3-6.8 2.4 1.2zm3.7 9.4.5-1.2-1.3-.5 2.3-6 1.3.5.5-1.2-4.4-1.7-.5 1.2 1.3.5-2.3 6-1.3-.5-.5 1.2 4.4 1.7zm11.4-3.8.5-1.8c-.4-.3-.7-.5-1.1-.7-.5-.3-1-.4-1.5-.6-.9-.2-1.9-.3-2.8.1-.8.3-1.3.9-1.5 1.7-.1.5-.2 1.1 0 1.6.2.6.7 1 1.2 1.3.3.2.6.4.9.5.3.2.6.3.9.5.2.1.5.3.6.6.1.2.2.5.1.7-.1.2-.2.4-.4.5-.2.1-.3.2-.5.2h-.6c-.2 0-.4-.1-.5-.1-.6-.2-1.1-.4-1.6-.8s-.9-.8-1.2-1.3l-.5 1.9c.4.3.8.6 1.2.8.5.3 1.1.5 1.7.7 1 .3 2 .3 2.9-.1.8-.3 1.3-.9 1.5-1.8.1-.5.2-1 0-1.5s-.6-.9-1.1-1.2c-.3-.2-.5-.3-.8-.5-.3-.1-.5-.3-.8-.4-.3-.2-.7-.4-.9-.7-.2-.2-.2-.5-.1-.8.1-.2.2-.4.3-.5.2-.1.3-.2.5-.2h.6c.2 0 .4.1.6.1.5.1 1 .4 1.5.7.2.4.6.7.9 1.1zm13.6 9 1.3-8.9-1.7-.2-.8 5.8-2.6-6.2-2.3-.3-1.3 8.9 1.7.2 1-6.8 2.9 7.4 1.8.1zm8.4.3v-1.3h-1.4l.1-6.4h1.4v-1.3l-4.7-.1v1.3h1.4l-.1 6.4h-1.4v1.3l4.7.1zm9.2-7.7-.2-1.8c-.4-.1-.9-.2-1.3-.3-.5-.1-1.1-.1-1.6 0-.9.1-1.9.4-2.6 1.1-.6.6-.9 1.3-.8 2.1.1.5.2 1.1.6 1.5.4.4 1 .7 1.6.8.3.1.7.1 1 .2.4 0 .7.1 1 .1.3 0 .6.1.8.3.2.2.3.4.4.6 0 .2 0 .5-.1.6-.1.2-.3.3-.4.4-.2.1-.4.2-.6.2-.2 0-.4.1-.5.1-.6.1-1.2 0-1.7-.2-.6-.2-1.1-.4-1.6-.7l.2 1.9c.5.1.9.2 1.4.3.6.1 1.2.1 1.8 0 1-.1 2-.4 2.7-1.1.6-.6.9-1.3.8-2.2-.1-.5-.2-1-.6-1.4-.4-.4-.9-.6-1.5-.8-.3-.1-.6-.1-.9-.2-.3 0-.6-.1-.9-.1-.3 0-.8-.1-1.1-.3-.2-.1-.4-.4-.4-.7 0-.2 0-.4.1-.6.1-.2.2-.3.4-.4.2-.1.4-.2.5-.2.2 0 .4-.1.6-.1.5-.1 1.1 0 1.6.1.5.4.9.6 1.3.8zm8.7 5.4-.2-1.3-1.4.3-1.2-6.3 1.4-.3-.2-1.3-4.6.9.2 1.3 1.4-.3 1.2 6.3-1.4.3.2 1.3 4.6-.9zm14-8.7c-.4-1.2-1.1-2.3-2.2-2.9-1.1-.6-2.2-.6-3.3-.2-1.1.4-2.1 1.1-2.5 2.2-.5 1.2-.4 2.4.1 3.6.4 1.2 1.1 2.3 2.2 2.9 1.1.6 2.2.6 3.3.2 1.1-.4 2.1-1.1 2.5-2.2.4-1.2.3-2.4-.1-3.6zm-1.7 3.2c-.1.3-.3.6-.5.8-.2.2-.5.4-.8.5-.3.1-.6.1-.9.1-.3 0-.6-.1-.9-.3-.3-.2-.6-.5-.8-.8-.3-.4-.5-.9-.7-1.3-.2-.5-.3-1-.3-1.5 0-.4 0-.8.1-1.1.1-.3.3-.6.5-.8.2-.2.5-.4.8-.4.3-.1.6-.1.9-.1.3 0 .6.1.9.3.3.2.6.5.8.8.3.4.5.9.7 1.3.2.4.3.9.3 1.4.1.3 0 .7-.1 1.1zm2.7-8.5 3.8 8.1 1.7-.8-1.3-2.8 1.4-.7c.5-.2.9-.5 1.2-.9.3-.3.5-.7.6-1.2.1-.4.1-.7.1-1.1 0-.4-.2-.8-.3-1.1-.2-.4-.4-.8-.8-1.1-.3-.3-.6-.4-1-.5-.3-.1-.7-.1-1 0-.4.1-.9.2-1.3.4l-3.1 1.7zm5.5.5c.1.2.2.5.2.7 0 .2 0 .4-.1.7-.1.2-.3.4-.5.6-.3.2-.6.3-.8.5l-.7.3-1.3-2.9.5-.2c.3-.1.5-.2.8-.4.2-.1.5-.1.7-.1.2 0 .5.1.7.2.2.2.4.4.5.6zm8.9-6.6-.8-1.2-6.1 3.8.8 1.2 2.3-1.4 4 6.4 1.6-1-4-6.4 2.2-1.4zm10 1.9-.8-1-1.1.9-3.9-5 1.1-.9-.8-1-3.7 2.9.8 1 1.1-.9 3.9 5-1.1.9.8 1 3.7-2.9zm9.1-8.3-6.2-6.5-1.6 1.6 2 5-4.9-2.2-1.6 1.6 6.2 6.5 1.2-1.2-4.9-5 4.7 2.2.9-.9-2-4.8 4.9 5 1.3-1.3zm.1-14.3-1.2 1.5 4.5 3.5c.4.3.9.8 1 1.3.1.5-.1 1-.4 1.4-.3.4-.7.7-1.3.7-.5 0-1.1-.3-1.5-.6l-4.5-3.5-1.2 1.5 4.6 3.6c.7.6 1.6 1 2.5.8 1-.1 1.8-.8 2.4-1.6.6-.8 1.1-1.7 1-2.7-.1-1-.7-1.7-1.4-2.3l-4.5-3.6zm14.1-5-7.6-4.8-1.2 1.9 3.1 4.4-5.3-.9-1.2 1.9 7.6 4.8.9-1.5-5.9-3.7 5.1 1 .7-1.1-3.1-4.2 5.9 3.7 1-1.5z"/></svg>