<svg version="1.1" id="Layer_1" xmlns="http://www.w3.org/2000/svg" x="0" y="0" viewBox="0 0 192.8 192.8" style="enable-background:new 0 0 192.8 192.8" xml:space="preserve"><style>.st2,.st3{fill-rule:evenodd;clip-rule:evenodd;fill:#fff}.st3{fill:#e20613}.st4{fill:none;stroke:#fad383;stroke-width:2.6968;stroke-miterlimit:2.6131}</style><path style="fill-rule:evenodd;clip-rule:evenodd;fill:#812b75;stroke:#fad383;stroke-width:2.6968;stroke-miterlimit:2.6131" d="m150.7 72.8 9.2-2.9-63.5 119.5L32.9 69.9 44 72.8h106.7z"/><path style="fill-rule:evenodd;clip-rule:evenodd;fill:#fff;stroke:#fad383;stroke-width:2.6968;stroke-miterlimit:2.6131" d="M96.4 131.6 32 67.5 96.4 3.4l64.4 64.1-64.4 64.1z"/><path class="st2" d="m88.8 144.6 1.6-5.9 1.6 5.9h-3.2zm5 6.3h4.8L93 134.4h-5.1l-5.6 16.5H87l.7-2.7H93l.8 2.7zM108.6 144.2l4 1.3c-.3 1.3-.7 2.3-1.3 3.1-.6.8-1.3 1.5-2.2 1.9-.9.4-2 .6-3.3.6-1.6 0-3-.3-4-.8s-1.9-1.4-2.7-2.8c-.7-1.3-1.1-3-1.1-5 0-2.7.7-4.8 2-6.3s3.2-2.2 5.6-2.2c1.9 0 3.3.4 4.4 1.3 1.1.8 1.9 2.1 2.4 3.9l-4.1 1c-.1-.5-.3-.9-.5-1.1-.3-.4-.6-.7-.9-.9-.4-.2-.8-.3-1.2-.3-1 0-1.8.5-2.4 1.4-.4.7-.6 1.8-.6 3.2 0 1.8.3 3.1.8 3.7.5.7 1.2 1 2.1 1 .9 0 1.5-.3 2-.8.4-.4.7-1.2 1-2.2z"/><path class="st3" d="M92.4 153.6h11.4v3.6h-6.7v2.9h5.7v3.3h-5.7v6.7h-4.7v-16.5zM77.1 59.8c1.6 0 2.9-1.3 2.9-2.8 0-1.6-1.3-2.8-2.9-2.8-1.6 0-2.9 1.3-2.9 2.8.1 1.5 1.4 2.8 2.9 2.8z"/><path class="st4" d="m75.1 59 3.7-4.4M77.4 57l-2.3-2.2"/><path class="st3" d="M96.4 25.7s19.2 11.9 5.7 47.5c0 0 8.1-13.8 10.8-16.1l1.9 2.6S104.3 68 103.3 75c0 0 8.9-9.5 17.4-9.5 8.5 0 13.4 3.4 13.4 11 0 0 .6 9.3-11.5 9.3 0 0-6.7-.2-8.7 1.8 0 0-.5-5.2.9-6.7s.6-2.8-1-2.8c0 0-11.7 2.5-11.6 17.2 0 0 1 2 3.9 2 0 0-1.4 1.9-4.8 1.9 0 0 .4 5.4 2.9 6.6 0 0-2-.3-2.8-1 0 0-.5 7.8-4.9 7.8s-4.9-7.8-4.9-7.8c-.8.6-2.8 1-2.8 1 2.5-1.1 2.9-6.6 2.9-6.6-3.5 0-4.8-1.9-4.8-1.9 2.9 0 3.9-2 3.9-2C90.7 80.6 79 78.1 79 78.1c-1.6 0-2.3 1.3-1 2.8 1.4 1.5.9 6.7.9 6.7-2-2-8.7-1.8-8.7-1.8-12.1 0-11.5-9.3-11.5-9.3 0-7.6 4.9-11 13.4-11S89.5 75 89.5 75C88.5 68 78 59.7 78 59.7l1.9-2.6c2.7 2.3 10.8 16.1 10.8 16.1-13.6-35.6 5.7-47.5 5.7-47.5z"/><path class="st3" d="M115.7 59.8c-1.6 0-2.9-1.3-2.9-2.8 0-1.6 1.3-2.8 2.9-2.8 1.6 0 2.9 1.3 2.9 2.8-.1 1.5-1.4 2.8-2.9 2.8z"/><path class="st4" d="m117.7 59-3.7-4.4m1.4 2.4 2.3-2.2"/></svg>