<svg version="1.1" id="Layer_1" xmlns="http://www.w3.org/2000/svg" x="0" y="0" viewBox="0 0 192.8 192.8" style="enable-background:new 0 0 192.8 192.8" xml:space="preserve"><style>.st0,.st1,.st3{fill-rule:evenodd;clip-rule:evenodd;fill:#1d1d1b}.st1,.st3{fill:#fff}.st3{fill:#f4bc00}.st4,.st6{fill:#1d1c1a}.st6{fill-rule:evenodd;clip-rule:evenodd}</style><path class="st0" d="M138.1 150.2V77.6L119 46.2v136.3l19.1-32.3z"/><path class="st1" d="M144.2 124.1v-20.4h-10.4v59.6l10.4-39.2zM118.9 181.6V46.2l-14.7-7.8v151l14.7-7.8z"/><path d="M103.7 189V38.8H88.9V189h14.8zm.8.9H88.1V38h16.5v151.9h-.1z" style="fill:#fff"/><path class="st0" d="M73.6 182.5V46.2L54.5 77.6v72.6l19.1 32.3z"/><path class="st1" d="M88.4 189.5V38.4l-14.7 7.8-.1 135.4 14.8 7.9zM58.8 160.7v-54.3H48.3l.1 22 10.4 32.3z"/><path class="st0" d="M104.1 189.5V38.4H88.5v151l15.6.1z"/><path class="st3" d="m76.3 23.5-10.5 7.8 3.5-13-8.8-7h11.3L76.2 0l4.4 11.3h11.3l-8.8 7 3.5 13-10.4-7.8h.1zM118.1 23.5l-10.5 7.8 3.5-13-8.7-7h11.3L118.1 0l4.3 11.3h11.4l-8.8 7 3.5 13-10.5-7.8h.1z"/><path class="st4" d="M96.4 187.9c12.1 0 23.1-8.2 31.2-21.3 8.3-13.5 13.4-32.1 13.4-52.4 0-20.3-5.1-38.9-13.4-52.4-8.1-13.1-19.1-21.3-31.2-21.3-12.1 0-23.1 8.2-31.2 21.3-8.2 13.5-13.4 32.1-13.4 52.4 0 20.3 5.1 38.9 13.4 52.4 8.1 13.1 19.1 21.3 31.2 21.3zm0 3.4c-13.4 0-25.4-8.8-34.1-23-8.6-14-13.9-33.2-13.9-54.1 0-21 5.3-40.2 13.9-54.1C71 46 83 37.1 96.4 37.1c13.4 0 25.4 8.8 34.1 23 8.6 14 13.9 33.2 13.9 54.1 0 21-5.3 40.2-13.9 54.1-8.7 14.2-20.7 23-34.1 23z"/><path class="st1" d="m141.7 91.8 2 20.3c-50.1-25.3-95-.1-95-.1.7-23.7 7.4-36.2 7.4-36.2s39.6 15.5 81 0l4.6 16z"/><path class="st4" d="M142.6 91.6v.2l2 20.3.2 1.6-1.4-.7c-49.8-25.2-94.1-.2-94.2-.2l-1.3.7V112c.7-23.9 7.5-36.5 7.5-36.6l.4-.7.7.3c.1 0 39.3 15.4 80.4 0l.9-.3.3.9 4.5 16zm-1.7.4-4.3-15c-38.1 13.9-74.4 2-80 0-1.3 2.8-6.1 14.2-6.9 33.6 7.8-3.9 48.1-21.8 93.1.1L140.9 92z"/><path d="M96.4 189.3c12.5 0 23.9-8.3 32.2-21.7 8.5-13.6 13.7-32.5 13.7-53.4s-5.2-39.8-13.7-53.4c-8.3-13.4-19.7-21.7-32.2-21.7-12.5 0-23.9 8.3-32.2 21.7-8.5 13.6-13.7 32.5-13.7 53.4s5.2 39.8 13.7 53.4c8.3 13.4 19.7 21.7 32.2 21.7zm0 3.5c-13.8 0-26.2-8.9-35.2-23.3-8.8-14.2-14.2-33.8-14.2-55.3s5.4-41.1 14.2-55.3c8.9-14.4 21.4-23.3 35.2-23.3 13.8 0 26.2 8.9 35.2 23.3 8.8 14.2 14.2 33.7 14.2 55.3 0 21.5-5.4 41.1-14.2 55.3-9 14.4-21.4 23.3-35.2 23.3z" style="fill:#f4bc00"/><path class="st6" d="M59 96.6v3.3c0 1.2.6 1.6 1.5 1.6 1.3 0 1.6-.8 1.6-1.7V83l1.4.2v16.5c0 2.3-1.5 3-2.9 3-2.3 0-2.9-1.5-2.9-2.5v-3.6H59zM76.1 85.4v10c0 2-.9 3.8-3.6 3.8s-3.4-1.7-3.4-3.6V84.3l1.4.2v10.7c0 2.2.9 2.8 2.1 2.8 1.2 0 2.2-.6 2.2-2.7v-10l1.3.1zM85.5 86.7l1.5.3-3.6 10.6-.6.1-3.6-11.8 1.5.2 2.8 10.1h-.8l2.8-9.5zM95 97.2h-5.2v-10h5.1v1.2h-3.7v2.4h3.3V92h-3.3v4H95v1.2zM104.8 87.2l1.3-.1v10.3l-1.5-.2-4.7-8.1v8.1h-1.3v-10h1.6l4.5 8.1h.1v-8.1zM108.4 86.7s3.3 0 7.7-1.3v1.2l-3 .7v10.5l-1.4-.2v-10l-3.4.3v-1.2h.1zM125.5 83.5v11.9c0 2-.9 3.8-3.6 3.8s-3.4-1.7-3.4-3.6V85l1.4-.2v10.4c0 2.2.9 2.8 2.1 2.8 1.2 0 2.2-.6 2.2-2.7V83.7l1.3-.2zM132.6 87.8c0-2.9-.6-4.6-1.4-4.6-.6 0-1.6-.4-1.6 2.4 0 1.6.4 3.4.8 3.7l1.9 2.5c.9.6 1.7 2.9 1.7 5.8 0 4.4-1.5 3.9-2.7 3.9-1.3 0-1.8-1-2.1-1.8-.6-1.4-.5-3-.5-4.7h1.1c0 3.4.7 5.2 1.6 5.2.7 0 1.8.4 1.8-2.2 0-1.9-.1-4.3-1.2-5l-1.7-2.2c-.5-.3-1.5-1.6-1.5-4.8 0-2.9.7-4 2.4-4 2.4 0 2.5 3.9 2.6 5.9h-1.2v-.1z"/><path class="st3" d="M98.9 104.2v2.4h2.5v-2.1l4.4.8v2.2h2.4l.6-1.6 4.1 1.5-3.1 8.7-1.6 4.5H84.4l-1.4-4.1-3-9.1 4.1-1.5.5 1.6h2.5v-2.2l4.4-.8v2.1h2.4v-2.4h5z"/><path class="st4" d="M99.6 104.2v1.8h1.2v-1.5c0-.4.4-.7.8-.6l4.4.9c.3.1.5.4.5.6v1.5h1.4l.4-1.2c.1-.3.5-.5.8-.4l4.1 1.5c.3.1.5.5.4.8l-3.1 8.7-1.6 4.5c-.1.2-.4.4-.6.4H84.4c-.2 0-.6-.2-.6-.4l-1.3-4.1-3-9.2c-.1-.3.1-.7.4-.8l4.1-1.5c.3-.1.7.1.8.4l.4 1.2h1.4v-1.5c0-.3.3-.6.5-.6l4.4-.9c.4-.1.8.3.8.6v1.5h1.2v-1.8c0-.3.3-.7.7-.7h5c.1.1.4.5.4.8zm-1.3.6h-3.7v1.8c0 .3-.3.7-.7.7h-2.5c-.3 0-.7-.3-.7-.7v-1.4l-3.1.6v1.6c0 .3-.3.7-.7.7h-2.5c-.2 0-.5-.2-.6-.4l-.4-1-2.9 1 2.8 8.6 1.2 3.6h22.9l1.4-4.1 2.9-8.1-2.8-1-.4 1c-.1.2-.4.4-.6.4h-2.5c-.3 0-.7-.3-.7-.7v-1.6l-3.1-.6v1.4c0 .3-.3.7-.7.7h-2.5c-.3 0-.7-.3-.7-.7v-1.8h.6z"/><path class="st6" d="M96.3 123.3c6.6 0 12.3-1.2 12.3-2.7 0-1.5-5.7-2.7-12.3-2.7-6.6 0-12.3 1.2-12.3 2.7 0 1.5 5.7 2.7 12.3 2.7zM84.5 113.7c.7 0 1.2-.6 1.2-1.2s-.6-1.2-1.2-1.2c-.7 0-1.2.6-1.2 1.2s.5 1.2 1.2 1.2zM90.2 112.4c.7 0 1.2-.6 1.2-1.2 0-.7-.6-1.2-1.2-1.2-.7 0-1.2.6-1.2 1.2-.1.6.5 1.2 1.2 1.2z"/><path class="st0" d="M96.4 112c.7 0 1.2-.6 1.2-1.2 0-.7-.6-1.2-1.2-1.2-.7 0-1.2.6-1.2 1.2s.5 1.2 1.2 1.2z"/><path class="st6" d="M103.1 112.4c.7 0 1.2-.6 1.2-1.2 0-.7-.6-1.2-1.2-1.2-.7 0-1.2.6-1.2 1.2s.5 1.2 1.2 1.2zM108.6 113.4c.7 0 1.2-.6 1.2-1.2 0-.7-.6-1.2-1.2-1.2-.7 0-1.2.6-1.2 1.2 0 .7.5 1.2 1.2 1.2z"/><path class="st4" d="M109.3 117.1s-9.3-3.6-20.1-1.4l-.3-1.3c11.2-2.2 20.8 1.5 20.8 1.5l-.4 1.2zM83.1 116.3s1-.7 2.6-1l.2 1.3c-1.3.2-2.1.8-2.1.8l-.7-1.1z"/><path class="st3" d="M96.1 125.8s-4.1 4.9-13.1 7.8c0 0 3.2 7.7 1 28.9 0 0 4.9 1 12.2 7 7.3-6 12.2-7 12.2-7-2.2-21.2 1-28.9 1-28.9-9-2.9-13.1-7.8-13.1-7.8h-.2z"/><path class="st4" d="M96.2 126.7c-1.2 1.2-5.2 5-12.4 7.4.7 2.2 2.6 10.5.9 28 1.5.4 5.7 2 11.5 6.6 5.7-4.6 10-6.2 11.5-6.6-1.7-17.5.2-25.8.9-28-7.2-2.5-11.2-6.2-12.4-7.4zm.6 43.3c-.1.1-.3.2-.5.2s-.4-.1-.5-.2c-7.1-5.8-11.8-6.7-11.8-6.7-.3-.1-.5-.4-.5-.7 2.2-21.1-1-28.6-1-28.6-.1-.3.1-.8.4-.9 8.8-2.8 12.8-7.6 12.8-7.6.1-.1.4-.2.5-.2h.2c.1 0 .4.1.5.2 0 0 3.9 4.8 12.8 7.6.3.1.5.5.4.9 0 0-3.1 7.6-1 28.6 0 .3-.2.6-.5.7 0-.1-4.8.9-11.8 6.7z"/><path class="st6" d="M91.8 135.1s1.2.9 3.6 1.6c0 0 3 .9 4.2 3.5 0 0 .7 2.9.6 8.3 0 0 .1 2 1.7 2.2 0 0 1.2.5.7-1.9-1-4.6-.7-2.8-.7-3.3 0 0-.4-2.9 1.3-3.5 0 0 1.8-.3 2.3 1.1 0 0 .6 1.9-.7 2.6 0 0-1.6-1.1-.9-2.9 0 0-1.3.4-1 1.9 0 0 .1 1.8.7 3.7 0 0 .6 1.7-.4 4 0 0 .1.7-1.5 2.3 0 0-1.1 1.5-1.5 3.3v1.3s-1.5.4-1.7 1.2v2.2l-2 .1s-.3-1.6.6-3.1c0 0 1-.7.3-2.2 0 0-1.2-1.5-1.5-3.2 0 0-1 0-2.2.7l-2.5.1s-1.5 0-1.9.6h-1.6l-.1-1.2s.5-.9 1.6-.9c0 0 .7.3 3-.4 0 0-.2-2.9 1.6-4.4l-.1-1.7-1.7-1.7-1.6-.8s-.2 1.1.8 2.1l-.1 1.2-1.5-.1s-1.3-1.6-.3-3.8c0 0-1.6.1-2.8.8l-.1-1s3.3-2.2 6.2 0l.7-.3-1.6-2v-3.8s-.7-.7-.7-2.8h.8v.2z"/><path class="st6" d="M89.7 143s.2-.2.5-.7c0 0 .2 0 .8.8l-1.3-.1z"/></svg>