<svg version="1.1" id="Layer_1" xmlns="http://www.w3.org/2000/svg" x="0" y="0" viewBox="0 0 192.8 192.8" style="enable-background:new 0 0 192.8 192.8" xml:space="preserve"><style>.st1{fill:#ffdc00}.st2{fill:#1d1d1b}.st4{fill:#e3032e}</style><ellipse id="kreis_x5F_hintergrund_x5F_weiß_1_" cx="96.9" cy="96.5" rx="48.4" ry="48.5" style="fill:#fff"/><path id="banner_x5F_oben_x5F_gelb_1_" class="st1" d="M118.4 53.4c-6.5-3.1-13.8-5-21.5-5-7.9 0-15.5 1.7-22.1 5.1 0 0-1.5 1.2-2.3-.7L64.7 32s-.5-1.2.9-1.7c0 0 14.2-6.7 30.1-7 0 0 16.2-.2 31 6.9 0 0 2.3.8 1.5 2.7l-7.6 19.3c-.1 0-.7 1.9-2.2 1.2z"/><path id="banner_x5F_oben_x5F_kontur_1_" class="st2" d="M126.7 30.2c-14.8-7.1-31-6.9-31-6.9-15.8.2-30.1 7-30.1 7-1.4.5-.9 1.7-.9 1.7l7.8 20.8c.8 1.9 2.3.7 2.3.7 6.6-3.4 14.2-5.1 22.1-5.1 7.7 0 15 1.9 21.5 5 1.5.7 2.1-1.3 2.1-1.3l7.6-19.3c.9-1.8-1.4-2.6-1.4-2.6zm.5 3.1-7.4 17.8s-.6 1.8-2 1.2c-6.3-2.9-13.4-4.7-20.9-4.7-7.7 0-15 1.6-21.4 4.7 0 0-1.5 1.1-2.3-.7l-7.5-19.2s-.5-1.1.8-1.5c0 0 13.8-6.2 29.2-6.4 0 0 15.7-.2 30.1 6.3 0 0 2.2.7 1.4 2.5z"/><path id="banner_x5F_gelb_x5F_unten_1_" class="st1" d="M84.2 142.6c4.1 1 8.3 1.7 12.7 1.7 5.3 0 10.5-1.1 15.3-2.7 0 0 13.9-5.3 26.1-7.3 0 0 17.2-3.6 31.7-.5 0 0 2.7.5 2 3.3l-5.8 20.6s-.7 3.1-2.8 2.4c0 0-5.8-1.6-13.6-1 0 0-4.7.3-10.2 2.2 0 0-15.5 5.1-20.6 6.1 0 0-11.1 2.2-19.9 2.2 0 0-11.3 0-21.1-1.7 0 0-9.4-1.8-16.8-4.6 0 0-8.5-3.4-18.6-3.8 0 0-6.7-.4-11 1.1 0 0-2.1.9-3.1-1.9L22 137s-.7-2.1 1.6-2.9c0 0 3.6-1.2 9.6-1.4 0 0 9-.2 16.6 1 0 0 15.5 2.2 22.4 4.8.1-.1 10.7 3.7 12 4.1z"/><path id="banner_x5F_unten_x5F_kontur_1_" class="st2" d="M170 133.8c-14.6-3.1-31.7.5-31.7.5-12.2 2-26.1 7.3-26.1 7.3-4.8 1.6-9.9 2.7-15.3 2.7-4.4 0-8.6-.6-12.7-1.7-1.4-.3-11.9-4.2-11.9-4.2-6.9-2.6-22.4-4.8-22.4-4.8-7.6-1.2-16.6-1-16.6-1-6 .2-9.6 1.4-9.6 1.4-2.3.8-1.6 2.9-1.6 2.9l6.5 21.7c.9 2.7 3.1 1.9 3.1 1.9 4.3-1.6 11-1.1 11-1.1 10.1.4 18.6 3.8 18.6 3.8 7.4 2.7 16.8 4.6 16.8 4.6 9.8 1.7 21.1 1.7 21.1 1.7 8.8 0 19.9-2.2 19.9-2.2 5.2-1 20.6-6.1 20.6-6.1 5.5-1.9 10.2-2.2 10.2-2.2 7.8-.7 13.6 1 13.6 1 2 .8 2.8-2.4 2.8-2.4l5.8-20.6c.6-2.7-2.1-3.2-2.1-3.2zm.7 5-5.7 18.7s-.4 1.9-2.5 1.2c0 0-5.9-1.3-13.7-.7 0 0-4.7.6-10.2 2.3 0 0-15.3 5.1-20.5 6 0 0-11 2-19.7 2 0 0-11.2 0-20.9-1.6 0 0-9-2.3-16.3-4.8 0 0-8.6-3.3-18.5-3.6 0 0-7-.4-11.2 1.1 0 0-1.2.7-1.9-1.4l-6-19.9s-.9-2.2 0-2.8c0 0 3.5-1.3 9.5-1.5 0 0 9-.2 16.6.9 0 0 15.6 2.5 22.4 4.9 0 0 10.3 3.6 11.7 3.9 4 .9 8.2 1.8 12.5 1.8 5.3 0 10.4-1 15.1-2.5 0 0 14-5.5 26-7.3 0 0 17-3.9 31.5-1.1 0 .1 3.2.5 1.8 4.4z"/><path id="ring_x5F_schwarz_1_" class="st2" d="M96.9 47.9c-26.7 0-48.4 21.7-48.4 48.5s21.7 48.5 48.4 48.5 48.4-21.7 48.4-48.5-21.6-48.5-48.4-48.5zm0 94.2c-25.3 0-45.8-20.4-45.8-45.6 0-25.2 20.5-45.6 45.8-45.6 25.3 0 45.9 20.4 45.9 45.6 0 25.1-20.6 45.6-45.9 45.6z"/><path id="R_3_" class="st2" d="M136.4 100.1c-.8-.9-.7-1.9-.7-1.9 3.1 0 3.3-4.5 3.3-4.5 0-5.2-4.1-4.8-4.1-4.8h-10.7v15.2h3.3v-5.9h3.4l4.3 5.9h4l-2.8-4zm-2.2-4.8h-6.6V92h7s1.5-.1 1.5 1.7c0-.1-.1 1.6-1.9 1.6z"/><path id="E_4_" class="st2" d="M90.3 106.3H103v3h-9.7v3.1h9.7v3h-9.7v3h9.7v3H90.3z"/><path id="A_3_" class="st2" d="M82.4 89h-3.7l-7 15.2H75l1.1-2.6h9.2l1.5 2.5h3.7L82.4 89zm-4.1 9.6 2.6-5.6 2.9 5.6h-5.5z"/><path id="B_6_" class="st2" d="M68.9 96.6c1.2-.8 1.1-3.3 1.1-3.3 0-4.6-3.7-4.2-3.7-4.2H55.2v15.2h11.4c3.6 0 3.7-4.2 3.7-4.2.1-2.9-1.4-3.5-1.4-3.5zm-10.8-4.5h7.4S67 92 67 93.6c0 0 .1 1.5-1.5 1.5h-7.4v-3zm8.1 9h-8v-3h8s1.6-.1 1.6 1.5c-.1 0 0 1.5-1.6 1.5z"/><path id="R_2_" class="st2" d="M101.3 135c-.8-.9-.7-1.9-.7-1.9 3.1 0 3.3-4.5 3.3-4.5 0-5.2-4.1-4.8-4.1-4.8H89.1V139h3.3v-5.9h3.4l4.3 5.9h4l-2.8-4zm-2.2-4.8h-6.6v-3.3h7s1.5-.1 1.5 1.7c0-.1-.1 1.6-1.9 1.6z"/><path id="E_3_" class="st2" d="M107.5 89h12.7v3h-9.7v3.1h9.7v3h-9.7l-.1 3h9.8v3.1h-12.7z"/><path id="Y_1_" class="st2" d="M87 89h4.4l5.4 5.6 5-5.6h4.5l-7.8 9.3-.1 5.9h-3.3v-5.9z"/><path id="A_2_" class="st2" d="M97.9 71.6h-3.7l-7 15.2h3.3l1.1-2.6h9.2l1.5 2.5h3.7l-8.1-15.1zm-4.1 9.6 2.6-5.6 2.9 5.6h-5.5z"/><path id="B_5_" class="st2" d="M102.8 61.9c1.2-.8 1.1-3.3 1.1-3.3 0-4.5-3.7-4.1-3.7-4.1H89v14.8h11.4c3.6 0 3.7-4.1 3.7-4.1.1-2.7-1.3-3.3-1.3-3.3zM92 57.5h7.4s1.5-.1 1.5 1.5c0 0 .1 1.5-1.5 1.5H92v-3zm8 8.8h-8v-2.9h8s1.6-.1 1.6 1.5c0-.1.1 1.4-1.6 1.4z"/><g id="Leverkusen_1_"><path class="st2" d="M34.4 138.5h3.1l.1 12 7.3-.1v2.6l-10.4.1-.1-14.6zM54.3 143.4c.7.4 1.3 1 1.7 1.8.4.7.6 1.5.6 2.3 0 .5 0 1.2-.1 2.2l-7.9-.8c-.1 1.1.2 1.9.9 2.4.4.3.9.5 1.5.6.6.1 1.2-.1 1.6-.3.2-.2.5-.4.7-.7l2.9.3c-.1.6-.6 1.2-1.2 1.8-1.1 1-2.5 1.3-4.2 1.2-1.4-.1-2.7-.7-3.7-1.7s-1.4-2.5-1.2-4.5c.2-1.9.8-3.3 1.9-4.2 1.1-.9 2.4-1.3 4-1.1 1 0 1.8.3 2.5.7zm-4.4 2c-.4.4-.7.9-.9 1.6l4.9.5c0-.8-.2-1.3-.6-1.8-.4-.4-1-.7-1.6-.7-.8-.1-1.4 0-1.8.4zM67.5 146.4l2.9.8-6.7 9.4-2.9-.8-.8-11.5 3.1.9v8.3l4.4-7.1zM79.9 150.2c.6.5 1.1 1.2 1.4 2 .3.7.3 1.5.2 2.4-.1.5-.2 1.2-.5 2.1l-7.6-2.1c-.2 1.1-.1 1.9.5 2.5.3.4.8.6 1.4.8.6.2 1.2.1 1.6-.1.3-.1.5-.3.8-.6l2.8.8c-.2.6-.8 1.1-1.5 1.6-1.2.8-2.7.9-4.3.5-1.4-.4-2.5-1.1-3.3-2.3-.8-1.1-1-2.7-.5-4.6.5-1.8 1.3-3.1 2.6-3.8 1.2-.7 2.6-.9 4.1-.4.9.2 1.7.6 2.3 1.2zm-4.7 1.2c-.5.3-.9.8-1.2 1.4l4.7 1.3c.1-.7.1-1.4-.3-1.9-.3-.5-.8-.8-1.5-1-.6-.1-1.2-.1-1.7.2zM91.7 152h.2l-.4 2.9c-.2 0-.3-.1-.5-.1-.1 0-.2 0-.3-.1-1.1-.2-1.9.1-2.4.8-.3.4-.5 1-.6 1.9l-.7 5.1-2.8-.4 1.6-10.7 2.7.4-.3 1.9c.5-.7 1-1.1 1.3-1.3.6-.4 1.3-.5 2.1-.4h.1zM95 148.8l2.8-.1.4 7.9 3.4-4.3 3.5-.2-3.7 4.2 4.4 6.5-3.4.2-2.9-4.5-1.1 1.3.2 3.4-2.8.1-.8-14.5zM111.4 150.7l1.7 6.3c.2.6.3 1 .6 1.3.4.5.9.6 1.7.4.9-.2 1.5-.8 1.6-1.6.1-.5 0-1-.2-1.7l-1.5-5.7 2.8-.7 2.8 10.5-2.7.7-.4-1.5s-.1.2-.1.3c-.1.2-.1.4-.3.5-.3.5-.7.9-1 1.1-.4.2-.8.4-1.3.6-1.5.4-2.7.1-3.6-.8-.5-.5-.9-1.4-1.2-2.6l-1.7-6.3 2.8-.8zM125.8 154.1c.2.5.4.8.7.9.4.3 1.1.3 2 0 .5-.1.9-.3 1.2-.6.3-.2.4-.5.3-.8-.1-.3-.3-.5-.6-.6-.3-.1-1.3-.1-3.1-.1-1.3 0-2.2-.1-2.8-.4-.6-.3-1-.9-1.2-1.7-.3-1-.1-1.9.5-2.8.6-.9 1.6-1.5 2.9-1.9 1.3-.3 2.4-.4 3.4-.1 1 .3 1.7 1.1 2.1 2.3l-2.7.7c-.1-.3-.3-.6-.5-.8-.4-.3-1-.3-1.7-.2-.6.2-1 .4-1.2.6-.2.3-.3.5-.2.8.1.3.3.5.6.6.3.1 1.3.1 3.1 0 1.2 0 2.1.1 2.8.5.7.4 1.1 1 1.3 1.8.3 1 .1 2-.5 2.8-.6.9-1.7 1.5-3.3 1.9-1.7.4-3 .4-3.9-.1-1-.5-1.6-1.3-1.9-2.3l2.7-.5z"/><path d="M142.9 143.4c.8.3 1.4.9 1.9 1.6.4.6.7 1.4.9 2.2.1.5.1 1.2.1 2.2h-7.9c0 1.1.4 1.8 1.1 2.3.4.3 1 .4 1.6.4.6 0 1.2-.2 1.6-.5.2-.2.4-.4.6-.7h2.9c-.1.6-.4 1.3-1.1 2-1 1.1-2.3 1.6-4.1 1.6-1.4 0-2.7-.4-3.8-1.3-1.1-.9-1.7-2.3-1.7-4.3 0-1.9.5-3.3 1.5-4.3s2.3-1.5 3.9-1.5c.8-.2 1.7 0 2.5.3zm-4.3 2.5c-.4.4-.7 1-.8 1.7h4.9c-.1-.8-.3-1.3-.8-1.7-.5-.4-1-.6-1.7-.6-.6-.1-1.2.1-1.6.6z" style="fill:#1d1d1b;stroke:#00151d;stroke-width:.3082;stroke-miterlimit:10"/><path class="st2" d="M157.9 142.5c.7.6 1.1 1.6 1.1 2.9v7.3h-2.9v-6.6c0-.6-.1-1-.2-1.3-.3-.6-.8-.8-1.6-.8-1 0-1.6.4-2 1.2-.2.4-.3 1-.3 1.7v5.9h-2.8V142h2.7v1.6c.4-.6.7-1 1-1.2.6-.4 1.3-.7 2.2-.7 1.2-.1 2.1.2 2.8.8z"/></g><path class="st2" d="m74.2 37.7-.5-1.7c.9-.3 1.4-.5 1.8-.7.5-.3.9-.6 1.1-1 .2-.3.2-.6.2-1 0-.2 0-.4-.1-.5l2.3-.7 4.1 12.4-2.8.8-2.8-8.6-3.3 1zM84.7 32.3c.6-1 1.6-1.6 2.8-1.8 1.9-.4 3.4.2 4.4 1.8.6.9 1 2.1 1.3 3.7.3 1.5.3 2.8.1 3.9-.4 2.1-1.6 3.3-3.5 3.6-.9.2-1.8.1-2.7-.4-.9-.4-1.4-1.1-1.7-2.2l2.5-.5c.1.4.3.6.6.8.3.2.7.2 1.1.2.8-.1 1.3-.7 1.5-1.7.1-.5.1-1.3-.1-2.2-.2.3-.4.6-.6.8-.4.4-1 .6-1.6.7-1 .2-1.9 0-2.8-.5-.9-.5-1.5-1.5-1.7-2.8-.4-1.2-.2-2.4.4-3.4zm5.1 4.2c.5-.5.7-1.1.5-2-.1-.7-.4-1.2-.8-1.6-.4-.4-.9-.5-1.5-.4-.4.1-.8.3-1 .6-.4.5-.5 1.1-.4 2 .1.7.4 1.3.8 1.6.4.3.9.4 1.5.3.3-.1.6-.2.9-.5zM104.8 32c.6 1.2.7 2.9.5 5-.2 2.1-.7 3.7-1.4 4.8-.8 1.1-1.9 1.5-3.6 1.4-1.6-.1-2.7-.8-3.3-2-.6-1.2-.7-2.8-.5-5 .2-2.1.7-3.7 1.4-4.8.8-1.1 1.9-1.6 3.6-1.4 1.6.1 2.7.8 3.3 2zm-5.7 7.8c.2.8.6 1.2 1.4 1.3.7.1 1.3-.3 1.6-1 .3-.8.5-1.9.6-3.3.1-1.5.1-2.7 0-3.4-.2-.8-.6-1.2-1.4-1.2-.7-.1-1.3.3-1.6 1-.3.7-.5 1.8-.7 3.4 0 1.3 0 2.4.1 3.2zM115.3 42.5l-1.4-.3-.6 2.7-2.4-.6.6-2.7-5-1.2.5-2.2 6.4-6.6 2.8.6-1.8 7.9 1.4.3-.5 2.1zm-3.4-2.8 1.3-5.5-4.4 4.7 3.1.8z"/><g id="löwe_x5F_links_x5F_rot_1_"><path id="löwe_x5F_hintergrund_x5F_rot_3_" class="st4" d="M59.7 47.8s-.4-2.8 2.5-4.9c0 0 1.9.6 3.1-.4 0 0 1.3-1.3 2.3-1.3 0 0 1.6-.4 2.1-2.7 0 0 .4-2-1.2-2.2 0 0-1.8-.4-2.3-2.5 0 0-.4-1.5 1.1-2.9 0 0 1.5-1.3.5-2.4 0 0-.9-1.3-3.7 0 0 0-2.1-2.2-4.4-.2 0 0-2.7-1.1-4.9 3.9 0 0-3.7-1-7-1.3 0 0-.9-1.8-5.3-1.9 0 0-.4-.2-.5-1.3 0 0-.5-1.3-2.2-1.8 0 0-1.6-.3-1.6-1.2 0 0-.1-1.1-1.9-.9 0 0-2.9.2-2 3.1 0 0-1.4-.1-2.4.2 0 0-1.8.6-2-.1 0 0-.9-2.1-1.8-1.5 0 0-3.4 1.7-2.4 3.6 0 0 1.3 1.6.8 2.1 0 0-1.3 1.8-2 1.1 0 0-1.3-2-1.9-1.5 0 0-2.8 2-1.7 3.5 0 0 .7 1.2 1.3 1.6 0 0 .5.3.3 2 0 0-.4 2-.2 2.7 0 0 .1.7-.4.7 0 0-1.5.1-1.9-.4 0 0-1-1.4-1.6-.1 0 0-1.7 3.8 3 4.7 0 0-.4 3.1-.3 4.2 0 0 .1 1.2-1.8.8 0 0-1.6-.8-1.9.5 0 0-.8 3.1 3.9 3.3 0 0 .5-.1.6 1 0 0 0 1.2.4 1.7 0 0 .7 1.4-.1 1.6 0 0-.6.3-1.4.1 0 0-1.5-.6-1.5.6 0 0-.2 3 2.6 3.5 0 0 .6.1 1.5-.1 0 0 .8-.3.7.6 0 0 .3 4.8-1.3 4.9 0 0-.5.1-1.7 0 0 0 1.7 3.4 4.2 3.8 0 0 .4 2.4-2 5.5 0 0-3.3 5.3-3.6 6 0 0-1.4 3.1-2.7 4.3 0 0-2.5 3.6-2.1 8.1 0 0-8.9 1.4-10.1-9.4 0 0-.3-4.7 4.4-11.5 0 0 3.6-3.9 3.6-11.1 0 0 .1-4-.7-5.9 0 0 4.5-4.3.8-8.6 0 0-2.5-3-5.4-3 0 0-2.9-.5-6.9 2.9 0 0 3.4 3.6 3 5.6 0 0 .7 3.2 5 3.1 0 0 3.1 7.2-1.9 14.5 0 0-5.7 7.7-5.7 13.8 0 0 .2 14.9 15.9 14.3 0 0 1.6 2.6 3.3 3.1 0 0 .9 3.8-1.7 7.4 0 0-2 2.4-3.3 3.1 0 0-2.3 1.3 1.7 4.5 0 0 10.6 6.8 12.3 14.5 0 0 7.2-1.1 14.7 0 0 0 2.2-1.6 1.7-4 0 0 4.8-2.9-.1-7.1 0 0-1.7-1.3-4.4-1.2 0 0-1.6.3-3.5-1.6 0 0-1.2-.7-1.8-1.1 0 0-5.3-3.4-3.7-4.8 0 0 11.4-5.2 11.2-11.3 0 0 .5-7-7.4-7.4 0 0-.2-5.9 3.9-9 0 0 5.6-4.1 7.4-8.7 0 0 3.6-1.4 8.2-10.2 0 0 4.4-8.3 4.9-9.3 0 0 3.1-.7 4.9-2.1 0 0 1.8 1.7 4.1.5 0 0 1-.3 1-2.1 0 0 1.7.9 2.2-.4 0 0 .9-1.5-1.3-4.8 0 0 .9-2.7-1.8-4.1 0 0-4.7-.8-7.7 2.6-.1.4-1 1.5-2 .7z"/><path class="st2" d="M71.1 49s.9-2.7-1.8-4.1c0 0-4.7-.8-7.7 2.6 0 0-.9 1.1-1.9.3 0 0-.4-2.8 2.5-4.9 0 0 1.9.6 3.1-.4 0 0 1.3-1.3 2.3-1.3 0 0 1.6-.4 2.1-2.7 0 0 .4-2-1.2-2.2 0 0-1.8-.4-2.3-2.5 0 0-.4-1.5 1.1-2.9 0 0 1.5-1.3.5-2.4 0 0-.9-1.3-3.7 0 0 0-2.1-2.2-4.4-.2 0 0-2.7-1.1-4.9 3.9 0 0-3.7-1-7-1.3 0 0-.9-1.8-5.3-1.9 0 0-.4-.2-.5-1.3 0 0-.5-1.3-2.2-1.8 0 0-1.6-.3-1.6-1.2 0 0-.1-1.1-1.9-.9 0 0-2.9.2-2 3.1 0 0-1.4-.1-2.4.2 0 0-1.8.6-2-.1 0 0-.9-2.1-1.8-1.5 0 0-3.4 1.7-2.4 3.6 0 0 1.3 1.6.8 2.1 0 0-1.3 1.8-2 1.1 0 0-1.3-2-1.9-1.5 0 0-2.8 2-1.7 3.5 0 0 .7 1.2 1.3 1.6 0 0 .5.3.3 2 0 0-.4 2-.2 2.7 0 0 .1.7-.4.7 0 0-1.5.1-1.9-.4 0 0-1-1.4-1.6-.1 0 0-1.7 3.8 3 4.7 0 0-.4 3.1-.3 4.2 0 0 .1 1.2-1.8.8 0 0-1.6-.8-1.9.5 0 0-.8 3.1 3.9 3.3 0 0 .5-.1.6 1 0 0 0 1.2.4 1.7 0 0 .7 1.4-.1 1.6 0 0-.6.3-1.4.1 0 0-1.5-.6-1.5.6 0 0-.2 3 2.6 3.5 0 0 .6.1 1.5-.1 0 0 .8-.3.7.6 0 0 .3 4.8-1.3 4.9 0 0-.5.1-1.7 0 0 0 1.7 3.4 4.2 3.8 0 0 .4 2.4-2 5.5 0 0-3.3 5.3-3.6 6 0 0-1.4 3.1-2.7 4.3 0 0-2.5 3.6-2.1 8.1 0 0-8.9 1.4-10.1-9.4 0 0-.3-4.7 4.4-11.5 0 0 3.6-3.9 3.6-11.1 0 0 .1-4-.7-5.9 0 0 4.5-4.3.8-8.6 0 0-2.5-3-5.4-3 0 0-2.9-.5-6.9 2.9 0 0 3.4 3.6 3 5.6 0 0 .7 3.2 5 3.1 0 0 3.1 7.2-1.9 14.5 0 0-5.7 7.7-5.7 13.8 0 0 .2 14.9 15.9 14.3 0 0 1.6 2.6 3.3 3.1 0 0 .9 3.8-1.7 7.4 0 0-2 2.4-3.3 3.1 0 0-2.3 1.3 1.7 4.5 0 0 10.6 6.8 12.3 14.5 0 0 7.2-1.1 14.7 0 0 0 2.2-1.6 1.7-4 0 0 4.8-2.9-.1-7.1 0 0-1.7-1.3-4.4-1.2 0 0-1.6.3-3.5-1.6 0 0-1.2-.7-1.8-1.1 0 0-5.3-3.4-3.7-4.8 0 0 11.4-5.2 11.2-11.3 0 0 .5-7-7.4-7.4 0 0-.2-5.9 3.9-9 0 0 5.6-4.1 7.4-8.7 0 0 3.6-1.4 8.2-10.2 0 0 4.4-8.3 4.9-9.3 0 0 3.1-.7 4.9-2.1 0 0 1.8 1.7 4.1.5 0 0 1-.3 1-2.1 0 0 1.7.9 2.2-.4-.1.4.8-1.1-1.4-4.4zM56 31.8s1-2.2 2.5-2.4c0 0-.2 1.6.6 1.7 0 0 .8.2.8-1 0 0 .3-1.9 2-1.6 0 0 .9.1.4 1.2 0 0-1 2.1.1 2.4 0 0 .9.4 1-1.4 0 0 .1-1.7 2.2-1.7 0 0 1.9.1 1 1.1 0 0-2.3 1.6-1.7 3.9 0 0 .4 1.8 2.1 3 0 0 1.9.3 1.4 1.5 0 0-.5 1.3-1.6 1.7 0 0-1.3.5-1.8 1.1 0 0-.6.7-1.7.4 0 0-1.2.2-1.3-.6 0 0-.8-.1-.9.8 0 0 0 .6-1 1.4 0 0-2.1 2.6-2.2 4.7 0 0-.6 1.7-1.9 2.6 0 0-3.4 2.3-3.3 3.1 0 0-2.1 2.4-2.3.6 0 0-.4-3.9-1-4.7 0 0-.7-1 .5-1.2 0 0 3.1-.3 4.1-3.2 0-.1.5-1.6-1.1-1.5 0 0-4.7 1.3-5.3 0 0 0-.5-1.5 1.1-1.8 0 0 1.6-.2 3 0 0 0 3.5.6 4.4-1.2 0 0 .4-1.6.2-2.2 0 0-.1-1.7.7-2.2 0 0 .7-.5.6-1.6 0 0 .2-1.7-.7-2.1.1.2-1.2.2-.9-.8zM42.6 30c3.6-.2 4.3 1.3 4.3 1.3.5.9 2.5.9 2.5.9 1.1 0 2.3.3 2.3.3.3.5 3.9 1.2 3.9 1.2.7.1.7 1.2.7 1.2 0 .9-.3 1.3-.3 1.3-1.2.7-.8 4.1-.8 4.1-.2 1.3-3.2.8-3.2.8-2.4-.3-4.6 0-4.6 0-.9.1-.9 2.3-.9 2.3-.1 1.5.6 1.7.6 1.7 1.7.6 4.8 0 4.8 0 1.6-.6.6 1 .6 1-2.1 2.1-8.2 1.7-8.2 1.7h-1.8c-1.1 0-2.2-1.1-2.2-1.1-1.2-1.4-4.8-2.8-4.8-2.8-2.2-1.1-2.8-2.7-2.8-2.7-.5-1.8.7-4.5.7-4.5.5-1.5-.2-1.8-.2-1.8-1.2-.6-1.4-2.1-1.4-2.1 0-2 2.7-1.8 2.7-1.8 1.1 0 2.6-.7 2.6-.7 1.2-.9 2.4-.6 2.4-.6.6.2 3.1.3 3.1.3zM22.8 69.4c1.1 0 1.7-1.4 1.7-1.4.9-2.8.1-5.2.1-5.2-.5-1.1-1.4-.7-1.4-.7-.5.2-1.5 0-1.5 0-1.6-.3-1.8-2.1-1.8-2.1-.2-.8 1.3-.2 1.3-.2 1.1 0 1.7-.7 1.7-.7.9-.6 0-2.2 0-2.2-.5-.9-.5-1.9-.5-1.9-.1-1.2-.7-1.2-.7-1.2C18.6 53.7 18 52 18 52c-.5-1.4 1-.6 1-.6.6.2 1.7-.2 1.7-.2 1-.5.9-1.1.9-1.1-.2-.8.5-4.9.5-4.9-4.1-.7-3.3-3-3.3-3 0-1.2 1.3-.2 1.3-.2.9.5 1.9.3 1.9.3 1.2 0 1-1.4 1-1.4-.2-.9.3-3.7.3-3.7.1-1.8-1.5-2.9-1.5-2.9-.8-.8.7-1.9.7-1.9.5-.8 1-.1 1-.1l1 .9c.6.6 1.6-.3 1.6-.3l1.4-1.3c.7-.7-.8-2.7-.8-2.7-.7-1.1 1.3-2 1.3-2 .5-.7 1.2.7 1.2.7.9.9 2.2.7 2.2.7 1.3-.7 4.3-.5 4.3-.5.1-.7-.6-1.5-.6-1.5-.4-1.2 1.3-1.5 1.3-1.5.9-.3 1.3 1 1.3 1 .6.8 1.5 1.2 1.5 1.2 1 .1 2.1.8 2.1.8.9.8-.2.8-.2.8h-2.4c-1.3 0-2.4 1-2.4 1-.4.5-3.1.5-3.1.5-1.3.2-2.3 1.5-2.3 1.5-1.1 1.7 1.2 3.6 1.2 3.6 1.1 1.3-.2 2.9-.2 2.9-.7 1-.5 3.8-.5 3.8.2 2.3 4.8 3.9 4.8 3.9 1.4.3 3.4 2 3.4 2 .9 1.1 2.7 1.2 2.7 1.2h5c1.7.2 2.1 4.2 2.1 4.2.3 1.9 1.4 3.4 1.4 3.4 1.2 1.5 3 1.1 3 1.1 1-.3 1.1.8 1.1.8.2 1.2-.8 2.1-.8 2.1-1.3 1.1-3.1.1-3.1.1-1-.3-.5 1.3-.5 1.3.3.4.1 2.4.1 2.4 0 .6-.3.9-.3.9-.2.1-.5.4-.5.4-.6 2.1.7 2.6.7 2.6.7.2.6.9.6.9.1 1.8-2.3 1.6-2.3 1.6-1.5.1-1.5-2.1-1.5-2.1.1-.4-.4-2.2-.4-2.2-.9-2.1-2.3-1.7-2.3-1.7-2.3.2-1.9 1.5-1.9 1.5.1.7-.2 2.3-.2 2.3C42.1 71.9 44 73 44 73c.7.3.4.7.4.7-1.2 1.9-3.3.8-3.3.8-2.6-1.6-1.9-5.2-1.9-5.2.3-1.9-.6-3.2-.6-3.2-1.2-1.5-2.6.1-2.6.1-1.9 2-.7 6.8-.7 6.8.4 1.6-1.4 1.1-1.4 1.1C32.7 74 32 72 32 72c-.6-1.2-.2-2.5-.2-2.5.2-.2.5-2.7.5-2.7.1-2.4-1.7-2.1-1.8-2.1-.8-.1-1.9 1.6-1.9 1.6-.5.7-.5 1.6-.5 1.6.1.9-.5 1.8-.5 1.8-.7 1.7-2 1.7-2 1.7-2.3 0-2.8-2-2.8-2zM3.1 92.7S1 87.9 2 83.2c0 0 1.9-5.7 4.5-8.7 0 0 6.2-7.4 2.3-17.1 0 0-3.9.3-4.5-2.4 0 0 .1-2.4-2.6-5.2 0 0 2.2-2.1 5.5-2 0 0 5-.2 6.1 5.8 0 0 .4 1.8-2.2 4 0 0 2.1 8.5-.8 14.1 0 0-2 3.8-3.4 5.5 0 0-3.1 4.9-2.9 9.8 0 0-.1 6 4.9 8.8 0 0 1.5 1.3 6 1.4L16 100s-8 1.5-12.9-7.3zm28 39.6s-1.2.5-1.5-.5c0 0-2-5.3-6-8.5 0 0-6.3-5.3-6.8-5.4 0 0-2.3-1.4-.9-2.8 0 0 3.3-2.5 3.9-4.2 0 0 1.5-2.7 1.1-5.5 0 0 2 1 2 3.8 0 0-.2 3.1-2.5 4.3 0 0-1.9 1-1.4 3 0 0 .6 1.3 2.5 2.7 0 0 6.6 4.1 10.7 11.8.1-.2.6.7-1.1 1.3zM45.7 78c-1.1 2-3 3.8-3 3.8-.5.5-2.7 2.3-2.7 2.3-5.2 3.7-5.4 10.4-5.4 10.4-1-.3-2.5.1-2.5.1-1.6.5-1.2 1-1.2 1 .2 1.1 1.3.7 1.3.7 6.2-1.3 8.3 1.8 8.3 1.8 3.3 4.4.8 7.4.8 7.4-2 3.3-9 6.8-9 6.8-2.3 1.4-1.3 2.9-1.3 2.9.5 1.6 5.3 5.1 5.3 5.1 1.7 1.7 4.6 1.8 4.6 1.8 2.8.3 4.1 1.4 4.1 1.4 3 2.3 1.4 4.2 1.4 4.2-.7 1-1.2.2-1.2.2l-1.6-1.9c-.8-.9-1.6-.2-1.6-.2-.6.7 2.1 3.1 2.1 3.1 1.1 1 .4 2.2.4 2.2-.5 1.3-2 1-2 1-1.5 0-1.9-1.2-1.9-1.2-.9-2-1.8-2.9-1.8-2.9-.8-1.3-1.4-.7-1.4-.7-.9.7.4 1.4.4 1.4 1.2.6 1.5 2.4 1.5 2.4.1 1.4-2.8 1-2.8 1-2.5-.1-3.5-2.4-3.5-2.4-3.5-7.2-8.7-10.2-8.7-10.2-1.3-.5-3.7-2.8-3.7-2.8-1.2-2 1.3-3 1.3-3 2.3-2 2-4.9 2-4.9-.2-3.8-2.1-4.5-2.1-4.5-4-2.9-5.4-5.6-5.4-5.6-1.8-6 1-9.5 1-9.5 1.2-1.3 3.2-5 3.2-5 .3-1.3 3.1-5.6 3.1-5.6 1.5-1.9 2.3-5 2.3-5 .2-.9.9-1.2.9-1.2 2.1-1.1 2.1-4 2.1-4 .1-1.5 1.2-2.3 1.2-2.3 1.7-1 .7 2.1.7 2.1-1 3.3.4 5.5.4 5.5 1.9 2.6 4.1 1.7 4.1 1.7 2.1-.6 1.2-1.7 1.2-1.7-1.5-3.9.2-5.8.2-5.8 1.4-1.6 1.5.6 1.5.6-.2.7.2 3.9.2 3.9 1 4.4 6.8 5.2 6.8 5.2.7-.1.4.4.4.4zm25.1-24.6s-2.5-2.5-2.8-2.6c0 0-1.4-.5-1 .6 0 0 .8 1 1.5 1.5 0 0 1.2 1 .6 1.9 0 0-.7 1.3-2.3.6 0 0-1.5-1.1-2.3-.7 0 0-2.3 1.2-3.4 1.4 0 0-1.8.3-2.3 1.8 0 0-6.8 15.7-12.3 18 0 0-2.6.6-2.1-.6 0 0 0-.7.6-.8 0-.1 1.2-.9 0-1.9 0 0-2.2-1.4-1.6-5.8 0 0 0-.9.9-1 0 0 1-.2 1.3 1.1 0 0 .3 1.4.2 1.9 0 0 .3 2.7 2.1 2.8 0 0 2.1.3 3.1-.9 0 0 1.2-1.2.9-2.5 0 0-.2-.4-.7-.6 0 0-.6-.2-.5-1.1 0 0 .1-1.1.4-1.4 0 0 .7-1 .6-2.7 0 0 2.1.4 3.2-1.5 0 0 1.1-1.1.8-3.9 0 0-.5-1.9-1.8-.9 0 0-1.5 1.1-1.8-.3 0 0-.2-.4 1.3-1.4 0 0 2.6-2 3.3-2.9 0 0 8.5-7.1 11.6-5.7 0 0 2.4.6 2.2 2.5 0 0-.1.3-.7.2 0 0-1.6-.7-1.8-.1 0 0-.5.9.6.8 0 0 2.7.4 3 3.2.3.1.2 1.8-.8 1z"/><path class="st2" d="M41.4 34.7s0-2.4 1.3-2.8c0 0 1.6-.2 2.6 1.7 0 0-1.3 2.3-3.9 1.1z"/></g><g id="löwe_x5F_rechts_x5F_rot_1_"><path id="löwe_x5F_hintergrund_x5F_rot_2_" class="st4" d="M133 47.8s.4-2.8-2.5-4.9c0 0-1.9.6-3.1-.4 0 0-1.3-1.3-2.3-1.3 0 0-1.6-.4-2.1-2.7 0 0-.4-2 1.2-2.2 0 0 1.8-.4 2.3-2.5 0 0 .4-1.5-1.1-2.9 0 0-1.5-1.3-.5-2.4 0 0 .9-1.3 3.7 0 0 0 2.1-2.2 4.4-.2 0 0 2.7-1.1 4.9 3.9 0 0 3.7-1 7-1.3 0 0 .9-1.8 5.3-1.9 0 0 .4-.2.5-1.3 0 0 .5-1.3 2.2-1.8 0 0 1.6-.3 1.6-1.2 0 0 .1-1.1 1.9-.9 0 0 2.9.2 2 3.1 0 0 1.4-.1 2.4.2 0 0 1.8.6 2-.1 0 0 .9-2.1 1.8-1.5 0 0 3.4 1.7 2.4 3.6 0 0-1.3 1.6-.8 2.1 0 0 1.3 1.8 2 1.1 0 0 1.3-2 1.9-1.5 0 0 2.8 2 1.7 3.5 0 0-.7 1.2-1.3 1.6 0 0-.5.3-.3 2 0 0 .4 2 .2 2.7 0 0-.1.7.4.7 0 0 1.5.1 1.9-.4 0 0 1-1.4 1.6-.1 0 0 1.7 3.8-3 4.7 0 0 .4 3.1.3 4.2 0 0-.1 1.2 1.8.8 0 0 1.6-.8 1.9.5 0 0 .8 3.1-3.9 3.3 0 0-.5-.1-.6 1 0 0 0 1.2-.4 1.7 0 0-.7 1.4.1 1.6 0 0 .6.3 1.4.1 0 0 1.5-.6 1.5.6 0 0 .2 3-2.6 3.5 0 0-.6.1-1.5-.1 0 0-.8-.3-.7.6 0 0-.3 4.8 1.3 4.9 0 0 .5.1 1.7 0 0 0-1.7 3.4-4.2 3.8 0 0-.4 2.4 2 5.5 0 0 3.3 5.3 3.6 6 0 0 1.4 3.1 2.7 4.3 0 0 2.5 3.6 2.1 8.1 0 0 8.9 1.4 10.1-9.4 0 0 .3-4.7-4.4-11.5 0 0-3.6-3.9-3.6-11.1 0 0-.1-4 .7-5.9 0 0-4.5-4.3-.8-8.6 0 0 2.5-3 5.4-3 0 0 2.9-.5 6.9 2.9 0 0-3.4 3.6-3 5.6 0 0-.7 3.2-5 3.1 0 0-3.1 7.2 1.9 14.5 0 0 5.7 7.7 5.7 13.8 0 0-.2 14.9-15.9 14.3 0 0-1.6 2.6-3.3 3.1 0 0-.9 3.8 1.7 7.4 0 0 2 2.4 3.3 3.1 0 0 2.3 1.3-1.7 4.5 0 0-10.6 6.8-12.3 14.5 0 0-7.2-1.1-14.7 0 0 0-2.2-1.6-1.7-4 0 0-4.8-2.9.1-7.1 0 0 1.7-1.3 4.4-1.2 0 0 1.6.3 3.5-1.6 0 0 1.2-.7 1.8-1.1 0 0 5.3-3.4 3.7-4.8 0 0-11.4-5.2-11.2-11.3 0 0-.5-7 7.4-7.4 0 0 .2-5.9-3.9-9 0 0-5.6-4.1-7.4-8.7 0 0-3.6-1.4-8.2-10.2 0 0-4.4-8.3-4.9-9.3 0 0-3.1-.7-4.9-2.1 0 0-1.8 1.7-4.1.5 0 0-1-.3-1-2.1 0 0-1.7.9-2.2-.4 0 0-.9-1.5 1.3-4.8 0 0-.9-2.7 1.8-4.1 0 0 4.7-.8 7.7 2.6.2.4 1.1 1.5 2 .7z"/><path class="st2" d="M120.3 53.8c.5 1.2 2.2.4 2.2.4 0 1.8 1 2.1 1 2.1 2.2 1.2 4.1-.5 4.1-.5 1.8 1.3 4.9 2.1 4.9 2.1.4 1 4.9 9.3 4.9 9.3 4.7 8.8 8.2 10.2 8.2 10.2 1.8 4.6 7.4 8.7 7.4 8.7 4.1 3.1 3.9 9 3.9 9-7.9.4-7.4 7.4-7.4 7.4-.2 6.1 11.2 11.3 11.2 11.3 1.6 1.3-3.7 4.8-3.7 4.8-.6.3-1.8 1.1-1.8 1.1-1.9 1.9-3.5 1.6-3.5 1.6-2.7-.2-4.4 1.2-4.4 1.2-4.9 4.2-.1 7.1-.1 7.1-.5 2.4 1.7 4 1.7 4 7.4-1.1 14.7 0 14.7 0 1.8-7.6 12.3-14.5 12.3-14.5 4-3.2 1.7-4.5 1.7-4.5-1.3-.7-3.3-3.1-3.3-3.1-2.7-3.6-1.7-7.4-1.7-7.4 1.7-.6 3.3-3.1 3.3-3.1 15.7.7 15.9-14.3 15.9-14.3 0-6.1-5.7-13.8-5.7-13.8-5-7.3-1.9-14.5-1.9-14.5 4.3.1 5-3.1 5-3.1-.4-1.9 3-5.6 3-5.6-4-3.4-6.9-2.9-6.9-2.9-2.9 0-5.4 3-5.4 3-3.7 4.4.8 8.6.8 8.6-.8 1.9-.7 5.9-.7 5.9 0 7.2 3.6 11.1 3.6 11.1 4.7 6.8 4.4 11.5 4.4 11.5-1.2 10.7-10.1 9.4-10.1 9.4.3-4.4-2.1-8.1-2.1-8.1-1.3-1.2-2.7-4.3-2.7-4.3-.2-.7-3.6-6-3.6-6-2.4-3.2-2-5.5-2-5.5 2.6-.4 4.2-3.8 4.2-3.8-1.3.1-1.7 0-1.7 0-1.7-.2-1.3-4.9-1.3-4.9-.1-.9.7-.6.7-.6.9.2 1.5.1 1.5.1 2.8-.5 2.6-3.5 2.6-3.5 0-1.2-1.5-.6-1.5-.6-.8.2-1.4-.1-1.4-.1-.8-.2-.1-1.6-.1-1.6.5-.5.4-1.7.4-1.7 0-1.1.6-1 .6-1 4.8-.2 3.9-3.3 3.9-3.3-.3-1.3-1.9-.5-1.9-.5-1.9.4-1.8-.8-1.8-.8.1-1-.3-4.2-.3-4.2 4.7-.9 3-4.7 3-4.7-.6-1.3-1.6.1-1.6.1-.4.5-1.9.4-1.9.4-.6 0-.4-.7-.4-.7.1-.7-.2-2.7-.2-2.7-.2-1.8.3-2 .3-2 .6-.4 1.3-1.6 1.3-1.6 1.1-1.4-1.7-3.5-1.7-3.5-.6-.6-1.9 1.5-1.9 1.5-.7.7-2-1.1-2-1.1-.5-.5.8-2.1.8-2.1 1-1.9-2.4-3.6-2.4-3.6-.9-.6-1.8 1.5-1.8 1.5-.2.7-2 .1-2 .1-.9-.3-2.4-.2-2.4-.2 1-2.9-2-3.1-2-3.1-1.8-.2-1.9.9-1.9.9 0 .9-1.6 1.2-1.6 1.2-1.8.4-2.2 1.8-2.2 1.8-.1 1.1-.5 1.3-.5 1.3-4.4.1-5.3 1.9-5.3 1.9-3.3.3-7 1.3-7 1.3-2.2-5-4.9-3.9-4.9-3.9-2.2-2.1-4.4.2-4.4.2-2.7-1.3-3.7 0-3.7 0-1.1 1.1.5 2.4.5 2.4 1.5 1.3 1.1 2.9 1.1 2.9-.5 2.1-2.3 2.5-2.3 2.5-1.6.2-1.2 2.2-1.2 2.2.6 2.2 2.1 2.7 2.1 2.7 1 .1 2.3 1.3 2.3 1.3 1.2 1.1 3.1.4 3.1.4 2.9 2.1 2.5 4.9 2.5 4.9-1 .8-1.9-.3-1.9-.3-3-3.4-7.7-2.6-7.7-2.6-2.7 1.4-1.8 4.1-1.8 4.1-2.2 2.9-1.4 4.4-1.4 4.4zm15.4-21c-.9.4-.7 2.1-.7 2.1-.1 1.1.6 1.6.6 1.6.7.4.7 2.2.7 2.2-.3.6.2 2.2.2 2.2.9 1.8 4.4 1.2 4.4 1.2 1.5-.2 3 0 3 0 1.6.3 1.1 1.8 1.1 1.8-.7 1.3-5.3 0-5.3 0-1.6-.2-1.1 1.3-1.1 1.5 1 2.9 4.1 3.2 4.1 3.2 1.3.2.5 1.2.5 1.2-.6.8-1 4.7-1 4.7-.3 1.8-2.3-.6-2.3-.6.1-.8-3.3-3.1-3.3-3.1-1.4-.9-1.9-2.6-1.9-2.6-.1-2.1-2.2-4.7-2.2-4.7-.9-.8-1-1.4-1-1.4 0-.9-.9-.8-.9-.8-.2.8-1.3.6-1.3.6-1.2.2-1.7-.4-1.7-.4-.6-.6-1.8-1.1-1.8-1.1-1.1-.5-1.6-1.7-1.6-1.7-.6-1.1 1.4-1.5 1.4-1.5 1.7-1.2 2.1-3 2.1-3 .6-2.4-1.7-3.9-1.7-3.9-.9-1 1-1.1 1-1.1 2.1 0 2.2 1.7 2.2 1.7.2 1.8 1 1.4 1 1.4 1.1-.2.1-2.4.1-2.4-.5-1.1.4-1.2.4-1.2 1.7-.2 2 1.6 2 1.6 0 1.2.8 1 .8 1 .8-.1.6-1.7.6-1.7 1.6.2 2.5 2.4 2.5 2.4.5.8-.9.8-.9.8zm17.6-3.1s1.1-.3 2.4.6c0 0 1.5.6 2.6.7 0 0 2.7-.2 2.7 1.8 0 0-.2 1.5-1.4 2.1 0 0-.7.3-.2 1.8 0 0 1.3 2.7.7 4.5 0 0-.6 1.6-2.8 2.7 0 0-3.6 1.4-4.8 2.8 0 0-1.1 1.1-2.2 1.1h-1.8s-6.2.4-8.3-1.7c0 0-.9-1.7.6-1 0 0 3.1.7 4.8 0 0 0 .7-.2.6-1.7 0 0 0-2.2-.9-2.3 0 0-2.1-.3-4.6 0 0 0-3 .5-3.2-.8 0 0 .4-3.4-.8-4.1 0 0-.4-.4-.3-1.3 0 0 0-1.1.7-1.2 0 0 3.6-.7 3.9-1.2 0 0 1.2-.3 2.3-.3 0 0 2 0 2.5-.9 0 0 .7-1.5 4.3-1.3 0 0 2.5-.1 3.2-.3zm13.8 41.8s-1.3 0-2-1.7c0 0-.6-.9-.5-1.8 0 0 0-1-.5-1.6 0 0-1-1.7-1.9-1.6-.1 0-1.9-.3-1.8 2.1 0 0 .3 2.5.5 2.7 0 0 .3 1.2-.2 2.5 0 0-.7 2-1.8 2.1 0 0-1.9.5-1.4-1.1 0 0 1.1-4.9-.7-6.8 0 0-1.3-1.6-2.6-.1 0 0-.9 1.3-.6 3.2 0 0 .7 3.7-1.9 5.2 0 0-2.1 1.1-3.3-.8 0 0-.3-.4.4-.7 0 0 1.9-1.1 1.6-4.5 0 0-.3-1.6-.2-2.3 0 0 .4-1.3-1.9-1.5 0 0-1.4-.4-2.3 1.7 0 0-.5 1.9-.4 2.2 0 0 0 2.1-1.5 2.1 0 0-2.4.1-2.3-1.6 0 0-.1-.7.6-.9 0 0 1.3-.5.7-2.6 0 0-.2-.4-.5-.4 0 0-.3-.3-.3-.9 0 0-.2-2 .1-2.4 0 0 .6-1.6-.5-1.3 0 0-1.7 1-3.1-.1 0 0-1-.9-.8-2.1 0 0 0-1.1 1.1-.8 0 0 1.8.5 3-1.1 0 0 1-1.6 1.4-3.4 0 0 .4-4 2.1-4.2h5s1.8-.1 2.7-1.2c0 0 2-1.7 3.4-2 0 0 4.5-1.6 4.8-3.9 0 0 .2-2.7-.5-3.8 0 0-1.3-1.6-.2-2.9 0 0 2.3-1.9 1.2-3.6 0 0-1-1.3-2.3-1.5 0 0-2.7.1-3.1-.5 0 0-1.1-1-2.4-1h-2.4s-1 0-.2-.8c0 0 1.1-.8 2.1-.8 0 0 .9-.3 1.5-1.2 0 0 .5-1.3 1.3-1 0 0 1.7.3 1.3 1.5 0 0-.7.8-.6 1.5 0 0 2.9-.2 4.3.5 0 0 1.3.3 2.2-.7 0 0 .7-1.3 1.2-.7 0 0 2 1 1.3 2 0 0-1.5 2-.8 2.7l1.4 1.3s.9.9 1.6.3l1-.9s.5-.7 1 .1c0 0 1.5 1.1.7 1.9 0 0-1.7 1.1-1.5 2.9 0 0 .4 2.8.3 3.7 0 0-.1 1.3 1 1.4 0 0 1 .1 1.9-.3 0 0 1.3-1 1.3.2 0 0 .8 2.3-3.3 3 0 0 .7 4.1.5 4.9 0 0-.1.7.9 1.1 0 0 1 .5 1.7.2 0 0 1.5-.8 1 .6 0 0-.6 1.7-3.7 1.8 0 0-.6 0-.7 1.2 0 0 0 1-.5 1.8 0 0-.9 1.7 0 2.2 0 0 .6.7 1.7.7 0 0 1.5-.6 1.3.2 0 0-.2 1.8-1.8 2.1 0 0-1 .2-1.5 0 0 0-1-.4-1.4.7 0 0-.8 2.5.1 5.2 0 0 .6 1.3 1.7 1.4-.1.1-.7 2.1-3 2.2zm9.7 28.5 1.1-2.7c4.5-.1 6-1.4 6-1.4 5-2.8 4.9-8.8 4.9-8.8.2-4.9-2.9-9.8-2.9-9.8-1.3-1.6-3.4-5.5-3.4-5.5-2.9-5.6-.8-14.1-.8-14.1-2.6-2.3-2.2-4-2.2-4 1-6.1 6.1-5.8 6.1-5.8 3.3 0 5.5 2 5.5 2-2.7 2.7-2.6 5.2-2.6 5.2-.7 2.7-4.5 2.4-4.5 2.4-3.9 9.7 2.3 17.1 2.3 17.1 2.6 3 4.5 8.7 4.5 8.7 1.1 4.6-1.1 9.5-1.1 9.5-4.9 8.7-12.9 7.2-12.9 7.2zm-16.3 30.8c4.1-7.7 10.7-11.8 10.7-11.8 1.9-1.4 2.5-2.7 2.5-2.7.5-2.1-1.4-3-1.4-3-2.2-1.2-2.5-4.3-2.5-4.3 0-2.8 2-3.8 2-3.8-.4 2.8 1.1 5.5 1.1 5.5.6 1.7 3.9 4.2 3.9 4.2 1.3 1.4-.9 2.8-.9 2.8-.5.1-6.8 5.4-6.8 5.4-4 3.2-6 8.5-6 8.5-.3 1-1.5.5-1.5.5-1.7-.4-1.1-1.3-1.1-1.3zm-12.9-53.5s5.8-.8 6.8-5.2c0 0 .4-3.2.2-3.9 0 0 0-2.2 1.5-.6 0 0 1.7 1.9.2 5.8 0 0-1 1.1 1.2 1.7 0 0 2.1 1 4.1-1.7 0 0 1.4-2.1.4-5.5 0 0-1-3.1.7-2.1 0 0 1.1.8 1.2 2.3 0 0-.1 2.9 2.1 4 0 0 .8.4.9 1.2 0 0 .8 3.1 2.3 5 0 0 2.8 4.4 3.1 5.6 0 0 2 3.7 3.2 5 0 0 2.8 3.5 1 9.5 0 0-1.3 2.7-5.4 5.6 0 0-1.8.8-2.1 4.5 0 0-.3 2.9 2 4.9 0 0 2.5 1 1.3 3 0 0-2.4 2.2-3.7 2.8 0 0-5.2 3-8.7 10.2 0 0-1 2.3-3.5 2.4 0 0-2.9.4-2.8-1 0 0 .3-1.8 1.5-2.4 0 0 1.3-.7.4-1.4 0 0-.6-.6-1.4.7 0 0-.9.9-1.8 2.9 0 0-.4 1.2-1.9 1.2 0 0-1.5.2-2-1 0 0-.7-1.2.4-2.2 0 0 2.7-2.4 2.1-3.1 0 0-.8-.7-1.6.2l-1.6 1.9s-.5.8-1.2-.2c0 0-1.6-1.9 1.4-4.2 0 0 1.3-1.1 4.1-1.4 0 0 2.9-.2 4.6-1.8 0 0 4.8-3.6 5.3-5.1 0 0 1.1-1.4-1.3-2.9 0 0-7.1-3.5-9-6.8 0 0-2.5-3 .8-7.4 0 0 2.1-3.1 8.3-1.8 0 0 1 .4 1.3-.7 0 0 .4-.5-1.2-1 0 0-1.4-.4-2.5-.1 0 0-.2-6.7-5.4-10.4 0 0-2.2-1.8-2.7-2.3 0 0-1.9-1.8-3-3.8-.1.3-.5-.2.4-.4zm-26.7-24.8c.4-2.9 3-3.2 3-3.2 1.1.1.6-.8.6-.8-.2-.5-1.8.1-1.8.1-.6.1-.7-.2-.7-.2-.1-1.8 2.2-2.5 2.2-2.5 3.1-1.4 11.6 5.7 11.6 5.7.8.9 3.3 2.9 3.3 2.9 1.5 1.1 1.3 1.4 1.3 1.4-.3 1.4-1.8.3-1.8.3-1.3-1-1.8.9-1.8.9-.3 2.8.8 3.9.8 3.9 1.1 1.8 3.2 1.5 3.2 1.5-.1 1.7.6 2.7.6 2.7.3.2.4 1.4.4 1.4.1.9-.5 1.1-.5 1.1-.5.2-.7.6-.7.6-.3 1.2.9 2.5.9 2.5 1 1.3 3.1.9 3.1.9 1.7 0 2.1-2.8 2.1-2.8-.1-.6.2-1.9.2-1.9.3-1.2 1.3-1.1 1.3-1.1 1 .1.9 1 .9 1 .6 4.4-1.6 5.8-1.6 5.8-1.1 1 0 1.8 0 1.9.6.1.6.8.6.8.6 1.2-2.1.6-2.1.6-5.5-2.3-12.3-18-12.3-18-.5-1.5-2.3-1.8-2.3-1.8-1.1-.3-3.4-1.4-3.4-1.4-.8-.4-2.3.7-2.3.7-1.5.7-2.3-.6-2.3-.6-.6-.9.6-1.9.6-1.9.8-.4 1.5-1.5 1.5-1.5.4-1.1-1-.6-1-.6-.4.1-2.8 2.6-2.8 2.6-.8.7-.8-1-.8-1z"/><path class="st2" d="M151.4 34.7s0-2.4-1.3-2.8c0 0-1.6-.2-2.6 1.7-.1 0 1.2 2.3 3.9 1.1z"/></g></svg>