<svg version="1.1" id="Layer_1" xmlns="http://www.w3.org/2000/svg" x="0" y="0" viewBox="0 0 192.8 192.8" style="enable-background:new 0 0 192.8 192.8" xml:space="preserve"><style>.st0,.st1,.st2,.st3,.st4{fill-rule:evenodd;clip-rule:evenodd;fill:#fff}.st1,.st2,.st3,.st4{fill:#ce1329}.st2,.st3,.st4{fill:#d10a10}.st3,.st4{fill:#009982}.st4{fill:#fff047}</style><path class="st0" d="M29 153.4c-.4-.3-.8-.7-1-1.1 0-.1-.1-.3-.3-.6-.2-.5-.4-1-.6-1.3-.3-.7-.2-1.5.1-2.2.7-1.3 2.3-1.7 3.5-1.1.5.2.9.5 1.4.7-.3-.5-.6-1.1-.6-1.8-.1-.5 0-1 .1-1.5.4-1.5 1.4-2.4 2.8-2.8.1 0 .1 0 .2-.1l-.3-.3c-.3-.3-.7-.5-1.2-.7-.3-.1-.6-.3-.9-.6-.7-.7-.9-1.6-.6-2.5-.5-.4-1-.9-1.4-1.4l-.2-.2c-1-1.3-1.6-2.7-2-4.2-.4-1.6-.5-3.3-.4-5V123.8c0-.4-.1-.9-.2-1.4-.1-.6-.2-1.1-.3-1.4v-.1s0-.1-.1-.2c-.2-.3-.2-.7-.2-1.1 0-.7.3-1.3.7-1.7.1-.2.3-.3.4-.4.6-.5 1.4-.7 2.1-.5h.2c.3.1.7.2 1 .3 0-.2.1-.3.1-.5.4-1.4.9-2.7 1.5-4 0 0-.1-.1-.1-.2-.5-.6-.9-1.2-1.3-2-.3-.7-.5-1.4-.7-2.2-.2-.8-.3-1.5-.3-2.2 0-.7.1-1.3.2-2.1.2-.8.3-1.4.5-1.9.1-.4.3-.8.3-1.3v-.9c0-.2 0-.4-.1-.6v-.1c-.1-.2-.1-.4-.1-.5-.1-.6 0-1 .3-1.6.1-.1.2-.3.2-.4.2-.3.4-.4.6-.6.3-.2.6-.3.9-.4 1.2-.3 2 .2 2.4.5l.3.3c.4.3.7.6 1 1 .4.4.7.8.9 1.2.2.2.3.5.4.7h.2v-1.2c0-.4 0-.7-.1-1.1-.1-.3-.1-.5-.3-.9-.4-.6-.5-1.2-.5-1.7 0-.8.4-1.4.6-1.7.5-.6 1.3-1 2.1-1s1.4.4 1.7.5c.2.1.3.2.5.3v-.6c-.5-5.4-.7-11.1-.7-16.8 0-5.1.2-10.1.5-15h-6.8c-1.4 0-2.6-1.2-2.6-2.6V45c0-1.4 1.2-2.6 2.6-2.6h1c0-.2 0-.3-.1-.6v-.9c0-.3.1-.4.1-.6v-.1c0-.2.1-.3.1-.4 0-.1.1-.2.1-.3 0-.1.1-.1.1-.2.1-.2.2-.4.4-.6.1-.2.2-.3.4-.5l.3-.3c.1-.1.2-.2.4-.3.1-.1.3-.2.4-.3.2-.1.3-.2.5-.2.2-.1.4-.2.6-.2.1 0 .3-.1.5-.1h.9c.2 0 .3 0 .5.1v-.1c0-.1 0-.2-.1-.4 0-.1 0-.2-.1-.2 0-.1 0-.1-.1-.3v-.1c-.1-.1-.1-.2-.1-.3-.1-.1-.1-.2-.1-.3 0-.1-.1-.1-.1-.2l-.1-.1s-.1-.1-.2-.1c-.9-.6-1.4-1.8-1-2.9.5-1.5 1-1.7 2-1.8h2.1c-.1-.2-.1-.4-.1-.5V28.7c0-.2 0-.4.1-.7v-.1c.1-.3.1-.5.2-.8.1-.3.2-.5.4-.8.2-.3.3-.5.5-.6l.7-.7c.2-.2.4-.3.6-.4.2-.1.3-.1.5-.2s.4-.1.5-.2c.1 0 .2-.1.4-.1V23.8c.1-.4.2-.7.4-1.2v-.1c.2-.4.3-.7.7-1.1l.4-.4c.1-.1.2-.2.3-.2.2-.2.5-.3.7-.4.1 0 .1 0 .2-.1.8-.2 1.7 0 2.4.6.3.2.5.5.6.8.1.2.2.4.3.5.2.3.3.6.4.9 0 .1.1.3.1.5 0 .1 0 .1.1.2 0 .1.1.3.1.4h.1c.2 0 .4.1.5.1.1 0 .2.1.3.1.2.1.5.2.7.4.1.1.2.2.4.3.1.1.2.2.4.3.2.2.4.4.6.7.2.3.4.6.5.9.1.2.1.4.2.5 0 .1 0 .2.1.3V28.7s.1-.1.2-.1c.1-.1.2-.1.3-.2l.3-.2c.4-.3.8-.6 1.1-.9.4-.4.9-.8 1.5-1.3.4-.3.3-.2.3-.2.5-.4.9-.7 1.6-1.1.2-.1.4-.2.5-.3v-.2c0-.2 0-.4.1-.6 0-.1.1-.3.1-.4v-.1l.3-.6c.1-.2.3-.5.5-.7l.1-.1c.5-.6 1.2-1 2-1h.1c.9 0 1.9.5 2.3 1.4H73c.1-.2.2-.4.2-.6l.3-.6c0-.1.1-.1.1-.2.1-.2.2-.3.4-.5s.3-.4.5-.6c.3-.3.6-.5.9-.6.3-.2.6-.3.8-.4.1 0 .2-.1.3-.1.1 0 .1 0 .2-.1.1 0 .3-.1.5-.1h.1c.4 0 .8-.1 1.2 0 .5.1.9.2 1.4.4.3.1.5.2.7.4.3.2.5.4.7.6.2.2.4.4.5.6l.3.6c0 .1.1.1.1.2v.1h.3c.1-1.4.8-2.3 1.8-2.9.1-.1.3-.2.4-.2 0-.1-.1-.2-.1-.3.5-.1.4-.5.4-.8-.1-.3-.1-.6-.2-1.1-.1-.5-.1-.9-.1-1.4v-.2c0-.8-.1-1.3 0-2.2 0-.4 0-.7.1-1 0-.3.1-.5.1-.8v-.2c.3-1.5 1-2.1 2.6-2.1.7 0 1.4.2 1.9.8l.4.4.1.1c.1 0 .1.1.2.1s.1.1.2.1c0 0 .1 0 .1.1v-.9c0-.2.1-.4.1-.6 0-.1.1-.2.1-.3 0 0 0-.1.1-.1.1-.2.1-.3.3-.6.1-.2.3-.4.4-.7.1-.2.3-.3.4-.4.1-.1.2-.2.4-.3.1-.1.2-.2.3-.2.1-.1.2-.1.3-.2.1-.2.2-.3.3-.3.1-.1.2-.1.4-.2s.3-.1.5-.1c0-.1.1-.3.1-.4.1-.3.2-.5.3-.7 0 0 0-.1.1-.1l.1-.1c.2-.4.3-.6.6-1 .9-1.1 2.5-1.4 3.7-.5.6.5.8.9 1.1 1.4.4.7.5 1.1.6 1.6.2.1.4.1.5.2.1 0 .1.1.2.1.5.2.8.5 1.2.9.3.3.6.7.8 1.1 0 .1.1.1.1.2.3.7.5 1.3.4 2.1v.1c.2-.1.4-.2.5-.3l.2-.2c.5-.6 1.2-1 2.1-1 .1 0 .3 0 .6.1.7.2 1.3.5 1.8 1.3.2.3.3.6.3.9.2 1.3.2 2.6.1 3.9-.1 1.3-.3 2.7-.6 4v.2c.3.1.5.3.8.5.8.6 1.3 1.5 1.4 2.6h.3v-.1c.1-.3.2-.5.4-.7.1-.2.2-.3.3-.5 0-.1.1-.1.2-.2.2-.3.5-.5.7-.6.2-.2.5-.3.7-.4.5-.2.9-.3 1.4-.4h1.2c.2 0 .3 0 .4.1h.2c.1 0 .3.1.6.2s.6.2.8.4c.2.1.5.3.7.5l.2.2c.2.2.4.4.5.6.1.1.2.2.3.4l.1.1c.2.3.3.5.4.7l.3.6H124.3c.4-.8 1.3-1.4 2.3-1.4h.1c.7 0 1.4.3 1.9.9l.2.2c.2.2.3.4.5.6l.3.6c.1.2.1.3.1.4 0 .2.1.4.1.6v.2c.1.1.3.1.5.3.7.4 1.1.7 1.6 1.1l.3.2c.7.5 1.1.9 1.5 1.3.3.3.6.6 1 .9h.1c.2.2 0 0 .3.2.1.1.2.1.3.2l.2.1v-.7c0-.2.1-.4.1-.6.1-.2.1-.4.2-.5.1-.3.3-.6.5-.9.2-.3.4-.5.6-.7l.3-.3c.2-.1.3-.2.4-.3.3-.2.5-.3.7-.4.2-.1.4-.2.7-.2H139.4c0-.1 0-.3.1-.4.1-.5.2-.8.5-1.4 0 0 0-.1.1-.1.1-.2.2-.3.3-.5.1-.2.3-.4.4-.5.6-.7 1.6-1.1 2.6-.9.5.1.9.4 1.3.7.1.1.2.2.4.3l.1.1c.4.4.5.7.7 1.1v.1c.2.5.3.8.4 1.2V24.3c.1 0 .2 0 .4.1s.4.1.5.2c.2.1.3.1.5.2s.5.2.7.4c.3.2.5.4.7.6l.1.1.4.4c0 .1.1.1.1.2.2.3.3.5.4.8.1.3.2.5.2.8.1.3.1.5.1.8v.8c0 .2 0 .3-.1.6h2.1c.9.2 1.4.3 1.8 1.3.5 0 .5 0 0 0 .1.2.1.3.2.5.3 1.1-.1 2.3-1 2.9-.1 0-.1.1-.1.1l-.1.1c-.1 0-.1.1-.1.1-.1.1-.1.1-.1.2 0 0-.1.1-.1.2 0 0 0 .1-.1.1-.1.1-.1.2-.1.3v.1s0 .1-.1.3c0 .1 0 .1-.1.2 0 .2-.1.3-.1.4v.1c.2 0 .3-.1.5-.1H154.3c.1 0 .3.1.4.1.1 0 .1 0 .2.1.2.1.3.1.5.2s.3.2.4.2c.2.1.3.2.4.3l.3.3c.1.1.1.2.2.2l.2.2c.1.1.2.3.3.4 0 .1.1.1.1.2.2.3.2.5.3.8 0 .1 0 .1.1.2 0 .2.1.3.1.6 0 .2.1.5.1.7v.1c0 .2 0 .4-.1.6h.9c1.4 0 2.6 1.2 2.6 2.6V58c0 1.4-1.2 2.6-2.6 2.6h-7.2c.3 5.1.4 10.3.4 15.5 0 5.7-.3 11.3-.8 16.6v.5c.1-.1.3-.2.4-.2.2-.1.8-.5 1.7-.5.8 0 1.6.4 2.1 1 .2.3.6.9.6 1.7 0 .5-.1 1-.5 1.7-.2.4-.2.5-.3.9-.1.3-.1.6-.1 1.1v1.2h.2c.1-.2.3-.5.4-.7l.9-1.2c.3-.4.6-.7 1-1l.3-.3c.4-.3 1.2-.8 2.4-.5.3.1.6.2.9.4.3.2.4.3.6.6.1.1.2.2.2.4.3.5.4 1 .3 1.6 0 .2-.1.4-.1.5v.1c0 .2-.1.4-.1.6v.9c0 .4.2.8.3 1.3.2.5.4 1.1.5 1.9.1.8.2 1.4.2 2.1 0 .7-.1 1.4-.3 2.2-.2.9-.4 1.6-.7 2.2-.3.7-.7 1.3-1.3 2 0 .1-.1.1-.1.2.5 1.3 1.1 2.6 1.5 4 0 .2.1.3.1.5.3-.1.7-.3 1-.3h.2c.8-.2 1.5 0 2.1.5.2.1.3.3.4.4.4.5.7 1 .7 1.8 0 .3-.1.7-.2 1.1 0 .1-.1.2-.1.2v.1c-.1.3-.2.8-.3 1.4-.1.5-.2 1.1-.2 1.4V127.4c.1 1.7 0 3.4-.4 5-.4 1.5-1 2.9-2 4.2l-.2.2c-.4.5-.9 1-1.4 1.4.2.9 0 1.8-.6 2.5-.3.3-.6.5-.9.6-.4.2-.8.4-1.2.7l-.3.3c.1 0 .1 0 .2.1 1.3.4 2.4 1.3 2.8 2.8.1.5.2 1.1.1 1.5-.1.8-.4 1.5-.9 2.1.3-.1.5-.3.8-.5.4-.3.8-.5 1.3-.6 1.4-.2 2.8.8 3 2.2.2 1.2-.2 2-.6 2.7-.1.1-.1.1-.1.2-.2.6-.5 1.2-1.1 1.6 0 .4-.1.7-.3 1.1-1 1.8-2.1 3.5-3.5 4.9-.6.7-1.3 1.3-2.1 1.9.9.8 2 1.6 3 2.4.5.4 1.1.8 1.7 1.3.2.1.3.3.5.4h.1c1 .2 1.6.6 2.2 1l.1.1c.3.2.6.4.8.7.8 1.2.6 2.8-.6 3.6-2 1.4-4.4 2.3-7.1 2.8-2.8.5-5.8.6-8.9.2-2.7-.3-5.2-.9-7.6-1.6-1.1-.4-2.2-.7-3.3-1.2 0 .1-.1.3-.1.4-.6 1.3-1.3 2.6-2.1 3.8-.8 1.2-1.7 2.3-2.6 3.5-.1.2-.5.7-1.2 1.5-1.3 1.7-2.6 3.3-4.1 4.7-.9.9-2 1.7-3.3 2.4-.1.3-.2.7-.4.9-.7 1-1.8 1.7-3.1 2.2-1.1.4-2.5.6-3.8.6-1.7 0-3.3-.4-4.9-.8-.2 0-.4-.1-.9-.2-2.4-.6-4.8-1.1-7.4-1.5-2.6-.4-5.2-.7-8-.8-2.8-.1-5.6.1-8.2.4-2.7.3-5.2.8-7.6 1.4-.1 0-.4.1-1 .2-2.9.7-6.3 1.5-9.7.2 0 0-.1 0-.2-.1-1-.3-2-.6-2.7-1.9-.1-.1-.1-.3-.2-.4-.1 0-.2-.1-.3-.1-1-.4-1.9-1.1-2.7-1.9-.7-.6-1.3-1.4-1.9-2-1.6-1.8-3.1-3.8-4.6-5.9-1.5-2.1-2.8-4.2-4-6.3-.1-.2-.2-.3-.3-.5-1 .4-2.1.8-3.2 1.1-2.4.8-4.9 1.3-7.8 1.6-1.4.1-2.9.2-4.4.2-1.5 0-3-.1-4.4-.4-1.3-.3-2.5-.6-3.7-1.1-1.2-.4-2.3-1-3.3-1.6-.2-.1-.4-.3-.6-.5-.9-1.1-.8-2.7.3-3.7.6-.5 1.2-.8 1.8-1 .1 0 .2-.1.4-.2s.5-.2.7-.2c.1-.2.3-.3.5-.5 1.3-.9 2.5-1.8 3.7-2.8.4-.3.7-.6 1.1-.9-.7-.6-1.4-1.2-2-1.8-1.4-1.4-2.5-3-3.5-4.9-.4-.9-.5-1.3-.6-1.7zm21.4-24.7c0 1.1-.2 2.3-.5 3.5-.3 1.2-.9 2.4-1.7 3.5-.3.4-.5.7-.8 1l-.3.3c0 .1.1.1.1.2.6 1.3 0 2.9-1.3 3.4-.4.2-.7.4-1 .6l-.3.3c1.5.3 2.7 1.1 3 3.5v.8c0 .2 0 .3-.1.4 1.1-.4 2.2-.9 3.3-1.4 1.8-.8 3.6-1.7 5.2-2.7-2.1-4.1-4-8.7-5.6-13.4zm86.7 14c1.6.9 3.3 1.8 5.1 2.6 1.2.5 2.4 1.1 3.6 1.5-.1-.2-.1-.5-.1-.8v-.8c.2-2.4 1.4-3.2 3-3.5l-.3-.3c-.3-.2-.6-.5-1-.6-1.3-.6-1.9-2.1-1.3-3.4 0-.1.1-.1.1-.2-.3-.4-.2-.3-.3-.3-.3-.3-.5-.7-.8-1-.8-1.1-1.3-2.3-1.7-3.5-.3-1.2-.5-2.5-.5-3.7-1.8 4.8-3.7 9.5-5.8 14zm-83.2-82c1.3.7 2.6 1.3 3.9 1.9 1.8.7 3.7 1.3 5.7 1.7 2.1.4 4.2.6 6.6.6 4.1-.1 7.6-.8 10.8-1.9 1.7-.6 3.3-1.4 4.9-2.2H53.9v-.1zm53.4 0c1.8 1 3.8 2 6 2.7 3.1 1.1 6.5 1.8 10 1.9 2.3.1 4.5-.2 6.5-.7 2.1-.5 4.1-1.2 6-1.8 1.6-.5 3-1.2 4.2-2 .1 0 .1-.1.2-.1h-32.9z"/><path class="st0" d="m46.3 61.5-.9 13.8s.9 25.2 3.5 35.5 11.1 32.7 12.4 35.5c1.2 2.8 14.7 21.6 14.7 21.6s10.4-2.5 20.1-2.5c11.1 0 20.9 2.7 20.9 2.7l10.7-14.3s12-18.7 15.9-38.5c3.9-19.8 3.9-51.6 3.9-51.6s-17.2 6.3-23 6.3c-5.8 0-27.5-9.9-27.5-9.9s-13 9.3-27.7 9.3-23-7.9-23-7.9z"/><path class="st1" d="M45.2 58.9c.5.1 1.3-.1 1.9 0 .6.2 1.6 1.4 2.2 1.8 2.2 1.7 4.8 3.1 7.6 4.2 3.8 1.5 8.2 2.5 13.3 2.4 8.8-.2 15.3-3.1 20.7-6.8.6-.4 1.6-1.4 2.3-1.6.9-.2 2.6 0 3.6 0s2.7-.1 3.4.1c.8.2 1.6 1.1 2.4 1.7 5.1 3.7 12.4 6.9 20.7 7.2 5.2.2 9.4-1.3 13.4-2.6 3.6-1.2 6.2-2.9 8.8-5.2.3-.3.8-.8 1-.9.6-.2 1.4.1 1.9 0 .7 11.1.7 22.7-.3 33.4-.9 10.4-3 20.2-5.7 29-4.8 15.4-11.2 29.1-20.2 40.5-.6.8-1.1 1.5-1.9 2.4-.5.7-1.6 2.1-2.2 2.2-1 .1-2.4-.8-3.4-.8 0-.3.4-.7.8-1 9.9-11.5 17.5-25.2 22.8-41.6 4-12.5 6.7-26.4 7.2-42.6.2-5.2.4-10.7-.1-16-.9.3-1.7.9-2.6 1.4-5.7 3.2-14 6-23.4 4.7-9.5-1.3-16.8-5.3-22.7-10-2.9 2.4-6.3 4.4-10.2 6.1-3.8 1.7-7.7 3.3-12.6 3.7-5.4.4-10.4.1-14.7-1.2-4.1-1.2-7.7-3.2-11.1-5.2-2.3 39.4 7.4 69.6 23 92.3 2 2.9 4 5.5 6.3 8.1.3.3.8.7.7 1-1-.1-2.4.9-3.4.7-.5-.1-1.6-1.5-2.2-2.2-9.7-11.9-17-26.4-21.9-42.9-2.6-8.8-4.7-18.6-5.6-29-.9-10.7-1-22.3-.1-33.2.2 0 .2-.1.3-.1z"/><path class="st2" d="M96.7 62.8c5.7 4.3 12.6 8.4 21.6 9.6 10 1.3 19.1-1.3 25.6-4.7 1.2 32.4-5.9 58.6-17.5 79.2-3.3 5.9-7.1 11.6-11.7 16.6-.5.5-1.5 1.9-2 2-.3.1-1.3-.2-1.4-.3-.3-.2-.1-.1.1-.3.7-.9 2-2.2 2.6-2.9 14.8-17.1 24-40.1 27.3-68.6-29.8-.4-59.5-.3-89.3-.3 3 26.6 11.2 48.2 24.2 65 1.6 2.1 3.2 4.3 5.2 6.1.2.2.6.4.5.8-.5 0-.9.2-1.4.2-.5 0-1.4-1.3-1.9-1.9-9.4-10.7-16.7-24-21.4-39.1-2.6-8.1-4.8-16.8-6.1-26.2-1.3-9.5-1.8-19.9-1.3-30.6 6.5 3.3 15.5 6.4 25.2 4.9 8.8-1.4 15.9-5.1 21.7-9.5z"/><path class="st3" d="M48.7 150.5c3.7-1.4 7.1-3.2 10-5-.3-.3-.3-1-.8-1.3-3.7 2.3-8.1 4.3-13 5.8-2.3.7-5.2 1.4-7.9 1.3-2.8-.1-5.2-.8-7.2-1.9.2.6.5 1.2.8 1.7 5 3.1 13 1.3 18.1-.6zm64.3 35.9c-6-1.4-12.2-2.7-19.6-2.4-3.7.2-7.4.8-10.8 1.5-3.9.8-8.5 2.6-12.5 1.7.3.5 1 .6 1.5.8 3 1.1 6.4.1 9.2-.6 4.9-1.1 10.5-2.1 16.4-1.8 5.8.2 11.1 1.2 15.9 2.4 1.8.4 3.5 1 5.2 1 1.9 0 4.1-.6 4.7-1.6-3.4 1.1-7.1-.3-10-1zm11.6-13.6c-9.9-1.9-18.8-5.3-30.9-4.7-5.4.3-10.4 1.1-15.4 2.2-4.9 1.1-9.8 2.7-14.8 2.7-2.7 0-5.1-.6-6.4-1.8-.2-.2-.4-.7-.8-.7 2.4 4.1 5.3 8.3 8.4 11.9 1 1.2 2.3 2.6 3.6 3.2 3.1 1.4 7.1 0 9.9-.7 5.5-1.4 11.2-2.4 18-2.4 6.6 0 12.5 1.2 17.8 2.6 1.9.5 3.8 1.2 5.5 1.3 3.6.3 5.8-1.1 7.6-2.7 1.8-1.7 3.3-3.9 5-6 1.7-2.2 3.4-4.4 4.4-6.7-.8.4-1.2 1-1.8 1.3-2.9 1.5-6.8 1.1-10.1.5zm38.2-4.3c-3.4 2-8.9 2.5-13.8 1.7-4.5-.7-8.8-2.3-12.3-3.9-1.2 5.9-9.5 3.8-14.7 2.7-2.9-.6-5.7-1.5-8.6-2.1-5.8-1.2-12.4-2.4-19.4-2.1-5.7.3-11.2 1.1-16.7 2.4-2.5.6-5.1 1.2-7.7 1.8-4.9 1.1-12.6 1.9-13.4-3-6.4 3.1-18.7 6.4-26.2 2.1-.5.3-1.2.5-1.6.8 1.8 1.1 3.9 1.9 6.2 2.4 2.5.5 5.1.4 8 .2 5.3-.4 9.5-2.2 13.4-3.8 1.3 3.8 6.5 4 11.2 3.3 3-.4 5.9-1.3 8.5-1.9 5.8-1.3 11.7-2.3 18.1-2.6 10.6-.5 18.8 1.8 27.1 3.9 5.7 1.4 14 2.9 16.2-2.4 3.7 1.7 8.2 3.3 13.2 3.9 5.5.6 10.8-.1 14.2-2.6-.6-.4-1.1-.7-1.7-.8zm-32.2.2c2-.1 4.5-.8 4.5-2.9 0-2.1-1.9-3.4-3.3-4.5s-3.4-2.3-5.1-2.9c-2 3-4.3 5.7-6.5 8.6 1.4.3 3.1.7 4.9 1 1.8.4 3.8.8 5.5.7zm-71.5-6c-.6.7-1.5 1.9-1.3 3.2.2 1.9 2.6 2.4 4.4 2.5 3.8.3 7.5-1.1 10.5-1.6-2.1-2.7-4.4-5.7-6.5-8.6-2.3 1.2-5.3 2.5-7.1 4.5zm77.3 1.7c5.2 2.6 11.9 5.2 20.1 4.7 2-.1 3.4-.8 4.8-1.5-2.5-2-5.3-3.7-7.2-6.3 3.2-1.7 5.6-4.2 7.2-7.4-4.7 2-11 .8-15.3-.6-4.5-1.5-8.5-3.8-12.3-5.8 0 0 0-.1-.1-.1-1.9 3.4-4 6.6-6 9.8 3.5 1.8 7.1 3.5 8.8 7.2zM31.6 153.3c1.6 3.3 4.2 5.8 7.2 7.7-2.1 2.4-4.7 4.3-7.3 6.2 3.4 1.9 9.1 1.8 13.4 1 4.4-.8 8.3-2.4 11.6-4 1.7-3.6 5.3-5.3 8.8-7.2-2-3.2-4.1-6.5-6-9.9-2.8 1.6-5.9 3.2-9.4 4.7-5.1 1.9-12.2 4.1-18.3 1.5zm123.2 0c3 .1 5.4-.6 7.7-1.6.2-.6.7-1.2.6-1.9-3.7 2.9-10.8 2.1-15.2.6-4.7-1.5-9-3.6-12.8-5.8-.3.4-.5.9-.7 1.4 3.9 2.1 7.9 4.3 12.7 5.8 2.2.6 5 1.4 7.7 1.5z"/><path class="st2" d="M58.4 95.7c.9 0 1.5.1 2 .5L61 95h-4.4c.2.6.3 1.2.3 2v3.6c0 .7-.1 1.4-.3 2h1.8c-.2-.6-.3-1.2-.3-2V99c.8 0 1.4.1 1.9.4l.7-1.1h-2.5v-2.6h.2zm76 6.1h-.3v-3.2c1.1.2 1.8.9 1.8 1.8.1.8-.5 1.4-1.5 1.4zm-.2-6.2c.9 0 1.5.5 1.5 1.2 0 .8-.6 1.4-1.5 1.5v-2.7zm1.7 2.8c.7-.3 1.1-.9 1.1-1.6 0-.6-.4-1.2-1-1.6-.4-.2-1.1-.3-2-.3h-1.3c.2.6.3 1.2.3 2v3.6c0 .7-.1 1.4-.3 2h1.6c2 0 3-.8 3-2.1 0-.8-.5-1.4-1.4-2zm-4.7-3.5h-1.8c.2.6.3 1.2.3 2v2.6c0 .7 0 1.2-.5 1.6-.4.3-.8.5-1.3.5-.6 0-1.2-.3-1.5-.7-.2-.3-.2-.7-.2-1.3v-2.7c0-.7.1-1.4.3-2h-1.8c.2.6.3 1.2.3 2v3c0 .5 0 1 .3 1.4.2.3.4.5.7.7.5.3 1.1.5 1.6.5.7 0 1.5-.3 2.3-.9v.8h1.4c-.2-.6-.3-1.2-.3-2v-3.6c-.1-.7 0-1.3.2-1.9zm-10 2c0-.7.1-1.4.3-2h-1.8c.2.6.3 1.2.3 2v3.6c0 .7-.1 1.4-.3 2h3.8c.2-.4.4-.9.6-1.4-.8.4-1.8.6-3 .7v-4.9h.1zm-8.1 1.8c0-1.9 1.1-3 2.8-3 .8 0 1.5.2 2.1.6V95c-.7-.2-1.3-.2-1.9-.2-1.2 0-2.2.3-3 .9-.9.7-1.4 1.8-1.4 3s.5 2.2 1.4 2.9c.7.5 1.5.8 2.5.8.8 0 1.6-.2 2.6-.5v-1.3c-.8.6-1.6.9-2.4.9-1.6.1-2.7-1-2.7-2.8zm-7.6-1.8c0-.7.1-1.4.3-2H104c.2.6.3 1.2.3 2v3.6c0 .7-.1 1.4-.3 2h3.8c.2-.4.4-.9.6-1.4-.8.4-1.8.6-3 .7v-4.9h.1zm-5.5 0c0-.7.1-1.4.3-2h-1.8c.2.6.3 1.2.3 2v3.6c0 .7-.1 1.4-.3 2h3.8c.2-.4.4-.9.6-1.4-.8.4-1.8.6-3 .7v-4.9h.1zm-7.4 2.3 1-2.1.9 2.1h-1.9zm1-4.5-3 5.9c-.4.7-.7 1.3-1.1 1.8h1.8v-.2c0-.3.1-.7.3-1.1l.5-1h2.8l.5 1.2c.1.2.2.5.2.8v.3h2c-.5-.6-.8-1.1-1-1.6l-3-6.1zm-7.3 7.1H86v-3.2c1.1.2 1.8.9 1.8 1.8.1.8-.5 1.4-1.5 1.4zm-.2-6.2c.9 0 1.5.5 1.5 1.2 0 .8-.6 1.4-1.5 1.5v-2.7zm1.6 2.8c.7-.3 1.1-.9 1.1-1.6 0-.6-.4-1.2-1-1.6-.4-.2-1.1-.3-1.9-.3h-1.3c.2.6.3 1.2.3 2v3.6c0 .7-.1 1.4-.3 2h1.6c1.9 0 3-.8 3-2.1-.1-.8-.5-1.4-1.5-2zm-10.3-2.2c.6-.3 1.4-.4 2.4-.5v4.7c0 .7-.1 1.4-.3 2h1.8c-.2-.6-.3-1.2-.3-2v-4.7c.9 0 1.5.1 2.1.4l.5-1.3h-5.8l-.4 1.4zm-3.7 5.4c-.8 0-1.4-.4-1.9-1.1-.4-.6-.6-1.3-.6-2 0-1.6.9-2.8 2.2-2.8.8 0 1.5.4 2 1.3.3.5.5 1.2.5 1.9 0 1.6-1 2.7-2.2 2.7zm-.1-6.8c-1.1 0-2.1.5-2.8 1.4-.5.7-.8 1.5-.8 2.4 0 1.2.4 2.3 1.2 3 .7.6 1.4.9 2.3.9.9 0 1.7-.3 2.4-1s1.1-1.7 1.1-2.9c0-1.1-.4-2.1-1.1-2.8-.5-.6-1.3-1-2.3-1zm-8 6.8c-.8 0-1.4-.4-1.9-1.1-.4-.6-.6-1.3-.6-2 0-1.6.9-2.8 2.2-2.8.8 0 1.5.4 2 1.3.3.5.5 1.2.5 1.9 0 1.6-.9 2.7-2.2 2.7zm0-6.8c-1.1 0-2.1.5-2.8 1.4-.5.7-.8 1.5-.8 2.4 0 1.2.4 2.3 1.2 3 .7.6 1.4.9 2.3.9.9 0 1.7-.3 2.4-1s1.1-1.7 1.1-2.9c0-1.1-.4-2.1-1.1-2.8-.6-.6-1.4-1-2.3-1z"/><path class="st4" d="M35.7 108.5s-.1.5-.6 1.3-.6 1.4-.6 1.4l-.5-1.3-.3-3 1-3.6 1 1v4.2zM37.8 136.9s-1.8 0-2.4-.2c-.6-.2-1-4.1-1-4.1l1.7-6.2 3-6.5 2 3.5 2.4 3.4.9 3.8-.8 3.5-1.2 2.7s-1.6-.1-2.2-.1c-.6 0-2.4.2-2.4.2z"/><path class="st2" d="M42.8 100.1c0 1.5-.5 2.3-.6 3.8 0 .2-.1.4 0 .6 0 0-.1.1-.1 0-.1-.3-.3-.4-.4-.6-.2-.3-.3-.5-.4-.8-.1-.3-.2-.5-.2-.9-.1-.5-.1-1-.1-1.4-.1-.5 0-1.2 0-1.8 0-.7 0-1.4-.2-2.3-.1-.6-.3-.9-.5-1.4-.1-.2-.3-.5-.2-.5.1-.1.3.1.4.1 1.7 1 2.4 2.7 2.4 4.8-.1.3-.1.3-.1.4zM34 98.8c1.6 1.2 2.3 2.9 2.5 5.1.1 1 0 1.6-.2 2.7-.1.2-.1.4-.2.6-.1.5-.2.9-.4 1.3 0 .1-.1.1-.1 0 0-.8.1-1.5-.1-2.5-.1-.7-.3-1.3-.6-1.8 0 0-.1.1-.1.2-.3.8-.5 1.5-.6 2.6-.2 1.6-.1 2.8.3 4.1 0 .1-.1.2-.2.1-.8-.9-1.2-1.8-1.5-3.1-.3-1.2-.2-2 0-3.2.3-1.4.8-2.1.9-3.4.1-1 .1-1.7-.2-2.6 0-.1 0-.1.1-.1.1-.2.3 0 .4 0z"/><path class="st2" d="M39.5 103.2c2.7 2.9 2.6 5.7 3.1 9.5.1.6.1 1.1.2 1.6.7-.7 1.6-1.1 2.6-1 0 .1 0 .1-.1.2-.9 1.5-.9 3.6-.4 5.3.2 1 .6 1.9 1 2.8.2.6.5 1.2.7 1.9.5 1.4.7 3 .7 4.5 0 2.1-.4 4.3-1.7 6-.3.5-.7.9-1 1.3-.5.4-1 .9-1.6 1.2-.3.1-.6.3-.9.3.5-1.1 1.2-2.3 1.3-3.6.1-.8.2-1.6.1-2.4-.1-1.8-.8-3.4-1.8-4.9-.9-1.2-1.8-2.4-2.3-3.7-.4 1.6-1 3.3-1.9 4.7-.3.5-.7 1-.9 1.5-.8 1.2-1.4 2.5-1.7 4-.2 1.5-.1 3.1.7 4.3 0 .1-.1 0-.1.1-1.4-.2-2.6-1.2-3.5-2.3-1.7-2.2-2.2-4.9-2-7.6 0-1.1.1-2.1 0-3.2-.1-1.4-.3-2.8-.9-4l.1-.1c.7.2 1.4.5 2 1 .7.5 1.2 1 1.7 1.7-.1-3.1 1.1-6.2 2.4-9 .5-1.2 1.1-2.3 1.6-3.4 1-2.2 1.9-4.6 1.8-7.2v-.2c.3 0 .5.4.8.7z"/><path class="st4" d="M39.7 108.8c.5 2.8 1 5.7 1.9 8.3.4 1.3.9 2.5 1.4 3.8.7 1.7 1.5 3.3 2.1 5.1.7 2.2.6 4.7-.2 6.8-.3.5-.5 1.1-.8 1.5 0-.3.2-.6.2-.9.6-2.6.4-4.3-.4-6.9-.3-.9-.6-1.4-1-2.3-.4-.8-.7-1.3-1.2-2.1-.1-.1-.1-.2-.2-.3-.3-.4-.5-.7-.7-1.1-.3-.5-.4-.8-.6-1.4-.5-1.2-.8-2.2-.8-3.3 0-.1-.1 0-.1 0-.9 1-1.4 2.2-1.7 3.4-.2 1-.5 2-.7 3-.5 1.6-1.2 3.1-1.9 4.5-1 2.3-1.7 5-1.2 7.6v-.1h-.1c-.6-.6-1-1.3-1.3-2.1-.4-.8-.5-1.7-.7-2.7-.2-1.8 0-3.6.4-5.4.4.3.7.7 1 1.1.2.3.3.6.5.8h.1c.1-2.3.9-4.3 1.7-6.4.4-.9.8-1.9 1.2-2.8.5-1 1-2 1.4-2.9.8-1.6 1.4-3.4 1.7-5.2z"/><path class="st2" d="M39.6 126.6c1.9 1.6 2.5 4.3 2.2 6.7-.2.8-.4 1.5-.7 2.2-.3.5-.6 1-1.1 1.3 0-.1-.2-.1-.1-.2.3-.7.5-1.5.5-2.2 0-1.1-.2-2.2-.8-3-.1-.1-.1-.2-.2-.2-.1.8-.6 1.5-1 2.3-.2.4-.4.8-.5 1.3-.1.5-.1 1.1-.1 1.6.1.2.1.4.1.5-.3 0-.4-.2-.6-.4-.2-.2-.3-.4-.5-.6-.5-.9-.5-1.6-.4-2.6 0-.4.1-.6.2-1 .3-1.1.7-1.6 1.3-2.6.6-1 1.2-1.4 1.4-2.4 0-.2.1-.6.1-.6.1-.3.1-.2.2-.1z"/><path class="st3" d="M101.9 33.9c0 .3.2.5.4.7.3.2.4.2.8.2s.5 0 .8-.2c.2-.2.4-.4.5-.7 0-.5-.4-1.1-.2-1.6l.5-.5-.1-.1c-.5.1-1 .1-1.5.1s-1 0-1.5-.1c0 0-.1 0-.1.1s.3.4.5.5c.3.5-.2 1.1-.1 1.6zm-7.5 4.8c0 .2-.1.4-.1.5l-.5-.5c-.5-.6-1.3-1.4-1.7-1.9v-.1c.8-.9.8-.9 2.3-2.6.3 1.5.4 3.1 0 4.6h5.1c0-.1 0-.1-.1-.2-.1-.9-.2-1.9-.1-2.9.1.1.3.1.4.2.2.1.5.2.7.3 0 .3-.2.8.2.9.4 0 .5-.5.7-.7.4.1.7.1 1.1.2v2.1h.6-.6v.6l-.4-.4c-.4-.2-1-.3-1.4 0-.2.2-.5.4-.6.7 0 .2-.1.3-.1.5h-.1c-.2-.3-.3-.6-.3-1 0-.2-.1-.3-.1-.5h-5v.2zm-1.7 3.1c-.8.7-1.6.8-2.6.6-.7-.2-1-.3-1.5-.9-.1-.2-.2-.3-.1-.5.5-.6 1.4-1.6 2-2.2.3-.3.5-.6.5-.6.2.2.3.4.5.6.7.8 1.4 1.5 2 2.2-.3.3-.5.6-.8.8zm-5.2-2.5c-.1-.2-.1-.4-.2-.6-.3-1.3-.3-2.6-.1-3.9 0-.2.1-.4.1-.6.8.8 1.5 1.7 2.4 2.6-.5.6-1.1 1.3-1.7 1.9-.1.2-.3.4-.5.6zm3.6-8.9c1.1.1 1.9.9 2.5 1.8-.2.4-2.1 2.5-2.7 3.2-.9-1.1-1.9-2.1-2.8-3.2.6-1.1 1.7-2 3-1.8zm4.3-3.9c-.7-.6-1.1-1-1.8-1.6-.6-.7-.9-1.1-1.5-1.8-.3-.4-.5-.7-.7-1-.4-.6-.6-1.2-1-2.1-.7-1.6-1.1-2.5-1.2-4.3 0-.6-.1-1 0-1.5 0-.1.1-.1.1-.2h.2c.6.3 1.2.5 2.1.6.9.1 1.4.2 2.3.1 1.4-.2 2.5-.6 3.2-1.7.2.3.6.6.8.8 1.6 1.1 4 1 5.8.5.7-.2.6-.2 1-.3.2.6.1 1.2 0 2-.1 1.4-.4 2.2-.9 3.5-.1.3-.2.4-.3.7-.3.7-.6 1.3-.9 1.8-.3.5-.7 1.1-1.2 1.7-1.4 1.8-2.7 2.8-4.4 3.9h-.1c-.5-.3-1-.6-1.5-1.1zm4.9 5.8c.6-1.1 1.7-2 3-1.8.8.1 1.4.5 1.9 1.1.1.1.2.3.3.4.1.2.3.5.4.7 0 .1.1.3.2.5-.4 0-.8 0-1.1.2-.1.2.2.2.3.3.2.1.4.4.5.6 0 .3-.3.6-.6.8-1.1.6-2.6.6-3.8.4-.2-.1-.4-.1-.6-.2-.3-.1-.5-.3-.8-.5 0-.1-.1-.3-.1-.4.1-.5.6-.7 1-.8.1 0 .1-.1 0-.1-.3-.3-.7-.3-1.1-.3.3-.5.4-.7.5-.9zm6.5 3.2c.1.3 0 .6.1.8V36.6c0 .6-.1 1.2-.1 1.8 0 .1-.1.2-.1.3-.1.4-.2.8-.3 1.1l-.1.2c-.1-.1 0-.2 0-.2-.1-.4-.4-.8-.8-1-.5-.2-1 0-1.4.3-.1.2-.3.3-.4.5v-3c.3 0 .7-.1 1-.1.2.2.2.7.7.6.1 0 .2-.1.2-.2.1-.1.1-.3.1-.5-.1-.3.3-.2.5-.4.1-.1.3-.3.6-.5zm-1.7 6c-.3.6-.9 1-1.6 1.2-.1-.3-.1-.7 0-1 0-.6.2-1.2.8-1.6.2-.2.7-.2.8.1.3.3.2.9 0 1.3zm-2.6 1.1c-.2 0-.4-.1-.6-.2-.3-.2-.6-.4-.7-.7-.1-.1-.1-.2-.1-.3-.2-.3-.2-.7-.1-1.1 0 0 0-.1.1-.2 0-.1.1-.2.2-.3.1.1.2-.1.3 0 .1 0 .1.1.2 0 .1.1.2.1.3.2.1.2.3.4.3.6.1.3.2.6.3 1-.2.4-.2.7-.2 1zM98 45v-6.2h.1c.4 1.8 1.5 3.8 3.3 4.7.3.1.5.2.8.3.3 0 .7.1 1.1.1 1.9 0 3.5-1.7 4.2-3.3.3-.6.5-1.2.6-1.8.2-1 .3-2.1.2-3.1-.1-.5-.1-1-.3-1.4-.3-1.1-.7-2.2-1.4-3.1-.1-.1-.2-.2-.3-.4-.4-.4-.9-.8-1.4-1.1-1-.5-2.1-.6-3.2-.2-.8.3-1.5.8-2.1 1.5-.5.6-.9 1.4-1.2 2.1-.1.5-.3.9-.4 1.3h-.1v-4.9l1.5-1.2c1.9-1.6 3.5-3.5 4.8-5.6.1 0 .1 0 .1.1v.4c0 .3.1.5.2.8l.2.4s.3.6.6.9c.2.3.4.4.6.6.4.4.7.5 1.1.9l.7.7c.3.4.5.7.6 1.2 0 .2.1.2 0 .4 0 .2-.1.4-.1.6.1 0 .5.1.7 0 0 0 .2-.1.3-.2l.2-.2c.1-.1.2-.2.2-.4.1-.1.1-.2.1-.3v-.4c0-.1-.1-.2-.1-.3.4.1.6.3 1.1.3.5.1.9.1 1.4.1-.4.5-.7.8-1.1 1.4-.2.3-.3.4-.5.7-.2.4-.3.7-.5 1.1-.1.3-.2.4-.2.7-.1.5-.2.8-.3 1.3 0 .3-.1.5-.1.9v.8c0 .4.1.6.1.9.1.5.2.9.4 1.4.1.2.1.4.2.6.1.3.2.5.4.9.1.2.2.4.4.6.3.5.5.7.9 1.1.2.2.3.3.6.5s.4.4.7.6c.3.2.5.3.8.5.2.1.3.2.6.3.3.2.5.2.9.3.5.2.8.3 1.3.4.6.1.9.1 1.5.1h1.1c.5 0 .7 0 1.2-.1.3-.1.5-.1.9-.2.7-.2 1.1-.3 1.9-.5 1.2-.4 1.5-.6 2.7-.9.8-.3 1.3-.4 2.1-.5.4-.1.6-.1 1-.1.6-.1 1-.1 1.7 0s1.1.1 1.7.3c.7.2 1.5.7 1.7.8 0-.2 0-.5-.1-.7 0-.2-.1-.3-.2-.4-.1-.1-.1-.2-.2-.4-.1-.1-.2-.2-.3-.4-.1-.1-.2-.2-.4-.3-.2-.1-.3-.2-.5-.3-.4-.2-.7-.2-1-.3.3-.2.6-.4 1-.6.9-.5 1.4-.7 2.3-1l1.5-.5c.6-.2.9-.3 1.4-.4.5-.1.7-.2 1.2-.2.3 0 .5-.1.9-.1h1.2c.5 0 .7.1 1.2.2.3.1.5.2.8.3.4.2.6.3.9.5.1.1.2.2.4.3.2.2.2.3.4.5.1.1.1.2.2.4l.2.4c.1.3.1.5.1.8v.5c-.1.2-.1.4-.2.6-.1.2-.3.4-.4.5-.2.2-.3.3-.6.4-.2.1-.3.1-.4.2-.3.1-.5.2-.8.2-.3 0-.5 0-.8-.1-.2-.1-.3-.1-.5-.2-.1-.1-.2-.1-.3-.2.1-.1.2-.2.4-.3.1-.1.1-.2.2-.3.1-.1.1-.2.1-.4v-.3c0-.1 0-.2-.1-.3-.1-.1-.1-.2-.2-.3-.1-.2-.2-.3-.4-.4-.1-.1-.2-.1-.4-.1h-.4c-.1 0-.2 0-.4.1-.1 0-.2.1-.3.1-.1.1-.2.1-.3.3-.1.1-.1.2-.2.3 0 .1-.1.2-.1.3-.1.3-.1.4 0 .7 0 .2.1.3.1.5.1.1.1.2.2.3.1.2.2.3.3.4.1.2.2.2.4.4.2.1.3.2.4.3.4.2.6.3 1 .4.2.1.3.1.5.1h1.2c.3 0 .4 0 .7-.1.2-.1.4-.1.6-.2.2-.1.3-.1.5-.3.2-.1.3-.2.5-.3l.4-.4c.1-.2.2-.3.3-.5.1-.2.2-.3.3-.6.1-.2.1-.3.1-.5.1-.3.1-.4.1-.7v-.5c0-.4-.1-.6-.2-.9-.1-.2-.1-.3-.2-.4-.2-.3-.3-.5-.5-.7l-.5-.5c-.2-.2-.3-.2-.5-.4-.2-.1-.3-.2-.5-.3-.3-.2-.6-.3-.9-.4-.3-.1-.4-.1-.7-.2-.3-.1-.5-.1-.8-.1-.5-.1-.8-.1-1.4-.1-.5 0-.8 0-1.2.1-.4 0-.7.1-1.1.1-.4.1-.6.1-1 .2l-1.5.5c-1 .3-1.5.6-2.4 1-.7.3-1 .5-1.7.8-.4.2-.7.4-1 .6 0-.2.1-.3.1-.5v-.3c0-.2-.1-.3-.2-.5-.1-.1-.1-.1-.3-.2-.1-.1-.2-.1-.3-.1-.2-.1-.5-.1-.5-.1v.1c.1.2 0 .4 0 .6 0 .2-.1.3-.1.4-.1.1-.1.2-.2.3l-.3.3c-.2.2-.3.3-.5.4-.2.2-.4.3-.6.4-.6.3-.9.5-1.6.7-.9.4-1.5.6-2.4.8.2-.3.4-.6.6-1 .1-.2.2-.3.2-.6.1-.3.1-.5.1-.8v-1.1c-.1-.4-.1-.6-.3-1-.1-.2-.1-.3-.2-.5s-.2-.3-.3-.5c-.1-.2-.2-.3-.4-.4-.3-.3-.6-.5-1-.7-.2-.1-.3-.1-.4-.2-.5-.2-.8-.3-1.3-.3h-.6c-.2 0-.4 0-.6.1-.2.1-.3.1-.5.2-.3.1-.4.2-.6.3-.1.1-.2.1-.3.2l-.3.3c-.1.2-.2.4-.2.6v.3c0 .3.1.4.2.6.1.2.2.4.4.5.1.1.2.2.3.2.1.1.2.1.3.1.2.1.3.1.5.1h.4c.2 0 .3-.1.4-.1.1-.1.2-.1.3-.2.1-.1.2-.2.2-.3.1-.1.1-.2.1-.3v-.6c0-.1-.1-.2-.1-.3-.1-.1-.1-.2-.2-.2-.1-.1-.3-.2-.5-.3 0 0 0-.1.1-.1.1-.1.2-.1.3-.1h.6c.4.1.6.2.9.4.2.1.3.2.5.4l.5.5c.1.1.2.2.2.4.1.2.1.3.2.5 0 .2.1.3.1.5v.8c0 .2-.1.3-.1.5-.2.6-.4.9-.8 1.3-.1.1-.2.2-.4.3-.2.1-.3.2-.5.3-.3.1-.4.2-.7.2h-1.1c-.3 0-.5-.1-.8-.1-.3-.1-.4-.2-.7-.3-.3-.2-.5-.3-.7-.5-.2-.2-.3-.4-.4-.7-.1-.1-.1-.2-.1-.3-.1-.3 0-.5.1-.8-.1 0-.2 0-.4.1-.1 0-.2.1-.3.1-.2.1-.2.2-.3.3-.1.1-.2.2-.3.4-.1.2-.1.4-.2.6-.2-.1-.5-.2-.7-.4-.2-.1-.3-.2-.4-.4-.1-.2-.2-.3-.3-.4-.4-.6-.5-1.1-.7-1.8 0-.2 0-.3-.1-.4v-.8c0-.2.1-.4.1-.6.1-.3.1-.5.3-.8.1-.3.2-.4.4-.6l.3-.3.3-.3c.1-.1.2-.1.4-.2s.3-.1.4-.1h.3c.2 0 .3 0 .6.1s.5.2.7.4l.1-.1c.1-.2.1-.4.1-.7v-.5c0-.3-.1-.5-.2-.7-.1-.1-.1-.2-.2-.3-.1-.2-.2-.3-.4-.4-.1-.1-.2-.2-.3-.2-.2-.2-.5-.2-.7-.3 0 0 0-.1.1-.2.1-.2.2-.3.4-.5.4-.3.6-.5 1-.8.3-.2.5-.3.8-.4.3-.1.4-.1.7-.2.4-.1.6-.2 1-.2.5-.1.7-.1 1.2 0 .3 0 .4 0 .7.1.4.1.6.1 1 .3.4.2.5.3.8.5.2.1.3.2.4.3.2.2.3.3.5.6s.3.4.4.7c.1.3.2.5.2.9v.8c0 .2 0 .3-.1.4-.1.2-.1.4-.2.6 0 0 .3.1.6.1.2 0 .3 0 .4-.1.2-.1.3-.1.5-.2s.3-.2.5-.4c.3-.2.4-.4.6-.7.1-.2.1-.3.2-.4.1-.3.2-.5.3-.7.2.2.3.3.4.5.1.2.2.3.3.5.2.3.2.5.3.9.1.4.1.7.2 1.1v.7c0 .6-.1 1-.1 1.4h.1c.2 0 .4 0 .5-.1.2-.1.3-.2.4-.3.2-.1.3-.2.4-.4.2-.2.2-.3.4-.5.1-.2.1-.3.2-.4.2-.4.3-.8.4-1.1l.6.6.5.5c.4.3.6.5 1 .6.1-.2.2-.3.2-.5.1-.3.1-.6.2-.9v-.6c.1.1.2.1.2.1.3.2.5.4.8.5.1.1.2.1.4.2s.3.1.5.2c.6.2 1.1.2 1.7.2h12.2c-.2.5-.3.8-.5 1.4-.1.3-.1.5-.2.9 0 .3-.1.5-.1.8v1.2c0 .4.1.6.2 1 .1.6.2.9.4 1.4.1.2.1.4.2.6.1.3.2.4.3.6.1.2.2.3.3.5.1.2.2.3.4.4.2.2.3.2.4.4.2.1.3.2.5.3.3.2.5.2.8.3.2 0 .3.1.5.1h.6c.2 0 .4-.1.6-.1l.4-.2c.2-.1.3-.2.5-.3l.3-.3c.1-.1.1-.2.2-.3.1-.1.1-.2.1-.4s.1-.3.1-.5c0-.3 0-.4-.1-.7-.1-.2-.1-.3-.2-.4-.1-.2-.2-.3-.3-.5l-.3-.3c-.1-.1-.2-.1-.4-.2s-.3-.1-.5-.1c-.3 0-.4 0-.7.1-.1.1-.2.1-.3.3v.1c.2.1.3.1.5.2s.3.1.4.3c.1.1.2.2.3.4 0 .1.1.2.1.3v.5c0 .1-.1.2-.1.3l-.2.2c-.1.1-.1.1-.3.2-.2.1-.3.1-.5.1h-.4c-.2 0-.3-.1-.4-.1-.2-.1-.3-.1-.5-.3-.3-.2-.4-.5-.6-.8-.1-.2-.2-.3-.3-.5-.2-.3-.2-.5-.4-.8-.1-.3-.1-.4-.2-.7-.1-.3-.1-.8-.1-.8s-.1-.7-.1-1.2c0-.6 0-1 .2-1.6.1-.3.1-.5.2-.8.1-.3.2-.5.3-.7.2-.4.4-.7.7-1 .3-.3.5-.5.8-.7h-7.5c-.2-.2-.2-.3-.4-.5-.1-.2-.1-.3-.2-.5-.1-.3-.1-.6-.1-.9 0-.4 0-.6.1-1 0-.2.1-.3.1-.5.1-.3.2-.4.3-.6.1-.2.2-.2.3-.4.2-.1.3-.2.4-.2.1-.1.2-.1.4-.1h.3c.1 0 .2 0 .3.1.1 0 .1.1.2.2s.2.2.2.3c.1.2 0 .3 0 .5 0 .1-.1.2-.2.3-.1.1-.2.1-.4.2-.2 0-.3-.1-.5-.2l-.2-.1c0 .2.1.3.2.5s.2.3.3.4c.1.1.2.1.3.1.2.1.3.1.4.1.3 0 .4 0 .6-.1.2-.1.3-.2.5-.4.1-.1.2-.2.2-.3.1-.2.1-.4.1-.5v-.6c-.1-.3-.1-.4-.3-.7l-.3-.3-.3-.3c-.2-.1-.3-.2-.5-.3-.2-.1-.3-.1-.6-.1s-.5 0-.8.1c-.2.1-.3.1-.5.2-.3.1-.5.3-.7.5.1-.5.1-1 .1-1.6 0-.5 0-.9-.1-1.4-.1-.3-.1-.5-.2-.8-.1-.2-.1-.4-.3-.5-.1-.1-.2-.2-.3-.2-.2.2-.3.3-.4.6-.2.3-.2.6-.3.9-.1.3-.1.5-.1.8v.7c0 .6.1 1 .2 1.5-.1 0-.2-.1-.3-.2-.2-.1-.3-.2-.5-.3-.1-.1-.2-.1-.4-.1-.3-.1-.5-.1-.8-.1h-.3c-.3.1-.4.1-.7.3-.1.1-.2.1-.3.3-.2.2-.3.4-.5.7-.1.2-.1.3-.1.4 0 .3 0 .5.1.9.1.3.2.5.4.7.1.1.1.1.3.2.1.1.2.1.3.1.2.1.3.1.5.1s.3 0 .4-.1l.4-.2.2-.2c.1-.1.1-.2.1-.3v-.5h-.1s-.1.1-.1.2c-.1.1-.1.1-.2.1-.2.1-.3 0-.5 0-.1 0-.1-.1-.2-.1l-.2-.2c-.1-.1-.1-.2-.1-.4s.1-.3.2-.4c.1-.2.3-.2.5-.2h.4c.2 0 .4.1.6.2.1.1.2.1.3.3.1.1.2.2.2.3.1.1.1.2.2.4.1.3.2.6.2.9v.7c0 .2 0 .4-.1.6 0 .2-.1.3-.1.5-.1.3-.2.5-.4.7h-5.3s.2-.2.4-.3l.3-.3c.1-.1.2-.2.2-.3.1-.2.2-.3.2-.6v-.1s-.1.1-.2.1-.1 0-.2.1c-.2.1-.3.1-.6.2-.4.1-.7.1-1.1 0-.2 0-.3 0-.5-.1-.3-.1-.5-.2-.8-.3-.4-.2-.6-.3-.9-.6-1.2-.8-1.6-1.5-2.7-2.3-.6-.5-.9-.7-1.6-1.1-.3-.2-.5-.3-.9-.5-.7-.3-1.2-.5-1.8-.6.1-.1.2-.1.3-.2.1-.1.1-.1.2-.3.1-.1.1-.2.2-.4.1-.1.1-.2.1-.4v-.3c0-.1 0-.2-.1-.3-.1-.2-.1-.3-.3-.5l-.1-.1h-.1s-.1.3-.2.4c-.1.2-.2.3-.4.4-.3.2-.5.3-.8.4-.2.1-.3.1-.5.1-.6.1-.9.1-1.5.1h-2.1c-.5 0-.8 0-1.3.1-.7.1-1.2.2-1.8.4.1-.3.2-.6.2-.9v-.8c0-.2-.1-.3-.1-.4-.1-.3-.2-.5-.4-.8-.2-.2-.2-.4-.5-.5-.3-.3-.5-.4-.9-.5-.2-.1-.4-.1-.6-.1-.5-.1-.8 0-1.2.2-.3.1-.4.2-.6.4-.2.2-.3.3-.3.6-.1.1-.1.2-.1.4v.4c0 .3.1.4.3.6l.2.2c.1.1.1.1.2.1.1.1.2.1.3.1h.4c.1 0 .2 0 .3-.1.1 0 .2-.1.2-.1l.3-.3c.1-.1.1-.2.1-.3.1-.2.1-.3.1-.5s-.1-.3-.1-.5h.1s.3.2.4.3l.2.2c.1.2.1.3.2.4.1.2.1.4.1.6v.3c0 .1 0 .2-.1.4s-.1.3-.2.4c-.1.2-.2.3-.3.5l-.3.3c-.2.1-.3.2-.4.3l-.6.3c-.2.1-.3.1-.6.2-.4.1-.6.1-1 .2-.6 0-.9 0-1.5-.1-.4-.1-.7-.2-1-.4 0 0 .2-.1.3-.2.1-.1.2-.1.2-.3.1-.2.2-.3.2-.5V25c0-.2-.1-.4-.3-.5l-.2-.2c-.1.1-.1.2-.2.4l-.3.3c-.1.1-.2.2-.3.2-.1.1-.2.1-.4.2s-.3.1-.5.1h-.5c-.3 0-.4 0-.6-.1-.2 0-.3-.1-.6-.2l-.4-.2c-.2-.1-.3-.2-.5-.3-.2-.2-.3-.3-.4-.5-.1-.1-.1-.2-.2-.4s-.1-.2-.1-.4v-.3c.1 0 .4.2.7.2.5 0 1.3-.3 1.3-1.2 0-1-1-1.3-1.7-1.3s-1.1.3-1.1.3l-.4.4s-.1 0-.1-.1v-.1c.3-.8.7-1.7 1-2.5l.3-1c.5-2.3.7-4.7.4-7h-.1c-.4.5-.9.8-1.6 1.2-1.3.8-2.3.9-3.8 1h-.3c-.4 0-.6 0-.9-.1-.3-.1-.5-.2-.7-.3-.4-.2-.6-.3-.9-.6-.6-.6-.8-1.6-.5-2.1.2-.5.5-.8 1.1-.8.5 0 .9.2 1.1.6.2.3.1.6 0 .9 0 .1-.2.2-.1.3.4 0 .7-.2 1-.5.4-.5.4-1.1.1-1.7-.2-.5-.4-.7-.9-.9-.8-.4-1.5-.1-2.1.3.1-.3.1-.6.1-1 0-.3 0-.5-.1-.8-.1-.6-.1-.9-.4-1.4-.1-.3-.2-.5-.4-.6.2-.3.1-.1 0 .2-.2.5-.3.8-.4 1.3-.1.3-.1.6 0 .9 0 .4.1.6.1.9-.1-.1-.2-.1-.4-.2s-.3-.1-.5-.2h-.5c-.3 0-.4 0-.7.1-.1 0-.2.1-.3.2-.1.1-.2.1-.3.2l-.3.3c-.2.2-.2.3-.3.6-.2.1-.2.2-.3.4v.4c0 .2 0 .3.1.4.1.2.1.3.2.4.1.1.1.2.3.3.1.1.2.1.3.2.2.1.1.1.4.1l.1-.1c0-.1-.1-.1-.1-.2s-.1-.1-.1-.2V10c0-.1 0-.2.1-.4s.2-.4.4-.5c.1-.1.2-.1.3-.1h.5c.2 0 .3.1.5.2.2.2.3.3.4.6.1.1.1.2.1.4v.5c0 .3-.1.4-.2.6-.1.3-.2.4-.4.6l-.3.3c-.2.2-.4.3-.7.4-.3.1-.5.2-.8.2-.4.1-.6.1-1 .1-.7 0-1.2 0-1.9-.2-.2-.1-.3-.1-.5-.2-.5-.2-.9-.3-1.4-.6-.3-.1-.4-.2-.7-.4-.2-.1-.3-.2-.5-.4l-.5-.5v.1c-.1.5-.1.9-.2 1.6-.1.8 0 1.3 0 2.1 0 .5 0 .8.1 1.3.1.7.2 1.1.3 1.8.2.8.4 1.3.6 2.1.2.6.3 1 .6 1.6 0 0-.1 0-.1.1l-.4-.4s-.5-.3-1.1-.3c-.7 0-1.6.3-1.6 1.3 0 .9.8 1.2 1.3 1.2.4 0 .7-.2.7-.2.1.1 0 .2 0 .3 0 .2 0 .3-.1.4-.1.2-.1.3-.2.4-.1.2-.2.4-.4.5-.2.2-.3.2-.5.3-.1.1-.2.1-.4.2s-.3.1-.6.2c-.2.1-.4.1-.6.1h-.5c-.2 0-.3 0-.5-.1l-.4-.2c-.1-.1-.2-.1-.3-.2l-.3-.3c-.1-.1-.1-.2-.2-.4l-.2.2c-.1.2-.2.3-.3.5v.5c0 .2.1.3.2.5.1.1.1.2.2.3.1.1.3.2.3.2-.3.2-.6.3-1 .4-.6.2-.9.2-1.5.1-.4 0-.6-.1-1-.2-.2-.1-.4-.1-.6-.2l-.6-.3c-.2-.1-.3-.2-.4-.3l-.3-.3c-.1-.2-.2-.3-.3-.5l-.2-.4c0-.1-.1-.2-.1-.4v-.3c0-.3 0-.4.1-.6.1-.2.1-.3.2-.4l.2-.2c.1-.1.4-.3.4-.3h.1c-.1.2-.1.3-.1.5s0 .3.1.5c0 .1.1.2.1.3l.3.3c.1.1.1.1.2.1.1.1.2.1.3.1h.4c.1 0 .2 0 .3-.1.1 0 .2-.1.2-.1l.2-.2c.2-.2.3-.4.3-.6v-.4c0-.2 0-.2-.1-.4l-.3-.6c-.2-.2-.4-.3-.6-.4-.4-.2-.7-.2-1.2-.2-.2 0-.4.1-.6.1-.4.1-.6.2-.9.5l-.5.5c-.2.3-.3.5-.4.8 0 .2-.1.2-.1.4v.8c0 .4.1.6.2.9-.6-.2-1.1-.3-1.8-.4-.5-.1-.8-.1-1.3-.1h-2.1c-.6 0-.9 0-1.5-.1-.2 0-.3 0-.5-.1-.3-.1-.5-.2-.8-.4-.2-.1-.2-.2-.4-.4l-.2-.4H67c0 .1-.1.1-.1.1-.1.2-.2.3-.3.5 0 .1-.1.2-.1.3v.3c0 .1 0 .2.1.4l.2.4c.1.1.1.2.2.3.1.1.2.1.3.2-.6.2-1.1.4-1.8.6-.4.2-.6.3-.9.5-.7.4-1 .6-1.6 1.1-1.1.8-1.6 1.5-2.7 2.3-.3.2-.5.4-.9.6-.3.1-.5.2-.8.3-.2 0-.3.1-.5.1-.4.1-.7.1-1.1 0-.2-.1-.3-.1-.6-.2-.1 0-.1 0-.2-.1-.1 0-.2-.1-.2-.1v.1c0 .3.1.4.2.6.1.1.1.2.2.3l.3.3c.1.1.4.3.4.3h-5.3c-.2-.2-.3-.4-.4-.7-.1-.2-.1-.3-.1-.5s-.1-.4-.1-.6V30c0-.4.1-.6.2-.9l.2-.4c.1-.1.1-.2.2-.3l.3-.3c.2-.1.3-.2.6-.2h.4c.2 0 .4.1.5.2.1.1.2.2.2.4s0 .3-.1.4c0 .1-.1.2-.2.2-.1.1-.1.1-.2.1-.2.1-.3.1-.5 0-.1 0-.1 0-.2-.1s-.1-.2-.1-.2h-.1v.5c0 .1.1.2.1.3l.2.2c.1.1.2.1.4.2.2 0 .2.1.4.1s.3-.1.5-.1c.1 0 .2-.1.3-.1.1-.1.2-.1.3-.2.2-.2.3-.4.4-.7.1-.3.1-.5.1-.9 0-.2-.1-.3-.1-.4-.1-.3-.2-.4-.5-.7l-.3-.3c-.2-.2-.4-.2-.7-.3h-.3c-.3 0-.5 0-.8.1-.2 0-.2.1-.4.1-.2.1-.3.2-.5.3-.1.1-.2.2-.3.2.1-.5.2-.9.2-1.5V25c0-.3 0-.5-.1-.8-.1-.4-.1-.6-.3-.9-.1-.2-.2-.4-.4-.6 0 0-.2.1-.3.2-.2.2-.2.3-.3.5-.1.3-.2.5-.2.8-.1.5-.1.8-.1 1.4 0 .6 0 1 .1 1.6-.2-.2-.4-.3-.7-.5-.2-.1-.3-.1-.5-.2-.3-.1-.5-.1-.8-.1-.2 0-.4.1-.6.1-.2.1-.3.1-.5.3l-.3.3-.3.3c-.2.2-.2.4-.3.7-.1.2 0 .4 0 .6 0 .2 0 .3.1.5.1.1.1.2.2.3.1.2.3.3.5.4.2.1.4.1.6.1.2 0 .3 0 .4-.1.1 0 .2-.1.3-.1.2-.1.2-.2.3-.4.1-.2.2-.3.2-.5 0-.1-.2 0-.2.1-.2.1-.3.2-.5.2s-.2-.1-.4-.2c-.1-.1-.1-.2-.2-.3-.1-.2-.1-.3 0-.5 0-.2.1-.2.2-.3l.2-.2c.1-.1.2-.1.3-.1h.3c.1 0 .2 0 .4.1s.3.1.4.2c.1.1.2.2.3.4.2.2.2.4.3.6.1.2.1.3.1.5.1.4.1.6.1 1s0 .6-.1.9c-.1.2-.1.3-.2.5s-.2.4-.4.5h-7.5c.3.2.5.4.8.7.3.4.5.6.7 1 .1.3.2.4.3.7.1.3.2.5.2.8.1.6.2 1 .2 1.6 0 .5-.1 1.2-.1 1.2s-.1.5-.1.8c-.1.3-.1.4-.2.7-.1.3-.2.5-.4.8-.1.2-.1.3-.3.5-.2.3-.3.5-.6.8-.2.1-.3.2-.5.3-.2.1-.3.1-.4.1h-.4c-.2 0-.3 0-.5-.1-.1-.1-.2-.1-.3-.2l-.2-.2c-.1-.1-.1-.2-.1-.3V41c0-.1 0-.2.1-.3.1-.2.1-.3.3-.4.1-.1.2-.2.4-.3.2-.1.3-.1.5-.2v-.1l-.3-.3c-.2-.1-.4-.1-.7-.1-.2 0-.3 0-.5.1-.1.1-.2.1-.4.2-.1.1-.2.1-.3.3-.2.2-.2.3-.3.5-.1.2-.1.3-.2.4-.1.3-.1.4-.1.7 0 .2 0 .3.1.5 0 .2.1.3.1.4.1.1.1.2.2.3l.3.3c.2.1.3.2.5.3.1.1.2.1.4.2s.3.1.6.1h.7c.2 0 .3 0 .5-.1.3-.1.5-.2.8-.3.2-.1.3-.2.5-.3.2-.1.3-.2.4-.4.2-.2.2-.3.4-.4.1-.2.2-.3.3-.5l.3-.6c.1-.2.2-.4.2-.6.2-.5.3-.9.4-1.4.1-.4.1-.6.2-1v-1.2c0-.3 0-.5-.1-.8 0-.4-.1-.6-.2-.9-.1-.5-.2-.8-.5-1.4h12.2c.6 0 1 0 1.7-.2.2-.1.3-.1.5-.2.1-.1.2-.1.4-.2.3-.2.5-.3.8-.5l.2-.1v.6c0 .4.1.6.2.9.1.2.1.4.2.5.4-.2.6-.3 1-.6l.5-.5.6-.6c.1.4.2.7.4 1.1.1.2.1.3.2.4.1.2.2.3.4.5.1.2.2.3.4.4.1.1.2.2.4.3.2.1.4.1.5.1h.1c0-.5-.1-.9-.1-1.4v-.7c0-.4.1-.7.2-1.1.1-.4.2-.6.3-.9.1-.2.1-.3.3-.5.1-.2.2-.4.4-.5.1.2.1.4.3.7.1.2.1.3.2.4.2.3.3.5.6.7.2.2.3.3.5.4.2.1.3.2.5.2.2.1.3.1.4.1.2 0 .6-.1.6-.1-.1-.2-.1-.4-.2-.6 0-.2-.1-.3-.1-.4v-.8c0-.3.1-.5.2-.9.1-.3.2-.5.4-.7.2-.2.3-.4.5-.6.2-.1.2-.2.4-.3.3-.2.5-.3.8-.5.4-.2.6-.2 1-.3.3-.1.4-.1.7-.1H74c.4.1.6.1 1 .2.3.1.4.1.7.2.3.1.5.2.8.4.4.2.7.4 1 .8.2.2.3.3.4.5 0 .1.1.1.1.2-.2.1-.4.2-.7.3-.1.1-.2.1-.3.2-.2.1-.2.2-.3.4-.1.1-.1.2-.2.3-.1.3-.2.4-.2.7v.5c0 .3 0 .5.1.7 0 0 0 .1.1.1.2-.2.4-.3.7-.4.2-.1.3-.1.6-.1h.3c.2 0 .3 0 .4.1l.4.2.3.3.3.3c.2.2.3.4.4.6.2.3.2.5.3.8.1.2.1.4.1.6v.8c0 .2 0 .3-.1.4-.1.7-.3 1.2-.7 1.8-.1.2-.2.3-.3.4-.1.2-.2.3-.4.4-.3.2-.5.3-.7.4-.1-.2-.1-.4-.2-.6-.1-.2-.2-.3-.3-.4l-.3-.3c-.1-.1-.2-.1-.3-.1.9.6.8.6.7.6.1.3.1.5.1.8 0 .1-.1.2-.1.3-.1.3-.2.4-.4.7-.2.2-.4.3-.7.5-.3.1-.4.2-.7.3-.3.1-.5.1-.8.1H74c-.3-.1-.5-.1-.7-.2-.2-.1-.3-.2-.5-.3-.2-.1-.2-.2-.4-.3-.4-.4-.6-.7-.8-1.3-.1-.2-.1-.3-.1-.5 0-.3-.1-.5 0-.8 0-.2 0-.3.1-.5s.1-.3.2-.5l.2-.4.5-.5c.2-.2.3-.2.5-.4.3-.2.6-.3.9-.4h.6c.1 0 .2 0 .3.1 0 0 .1 0 .1.1-.2.1-.3.1-.5.3l-.2.2c-.1.1-.1.2-.1.3v.6c0 .1.1.2.1.3.1.1.1.2.2.3.1.1.2.1.3.2.2.1.2.1.4.1h.4c.2 0 .3 0 .5-.1.1 0 .2-.1.3-.1.1-.1.2-.1.3-.2.2-.2.3-.3.4-.5.1-.2.2-.4.2-.6v-.3c0-.3-.1-.4-.2-.6-.1-.1-.1-.2-.3-.3-.1-.1-.2-.2-.3-.2-.2-.2-.4-.2-.6-.3-.2-.1-.3-.1-.5-.2s-.4-.1-.6-.1h-.6c-.5 0-.8.1-1.3.3-.2.1-.3.1-.4.2-.4.2-.7.4-1 .7-.2.1-.2.2-.4.4-.1.2-.2.3-.3.5-.1.2-.2.3-.2.5-.2.4-.2.6-.3 1-.1.4-.1.7 0 1.1 0 .3.1.5.1.8.1.2.1.4.2.6.2.4.4.6.6 1-.8-.2-1.5-.4-2.4-.8-.6-.3-1-.4-1.6-.7-.2-.1-.4-.2-.6-.4-.2-.1-.3-.2-.5-.4l-.3-.3c-.1-.1-.1-.2-.2-.3-.1-.2-.1-.3-.1-.4 0-.2-.1-.4 0-.6v-.1s-.3 0-.5.1c-.1 0-.2.1-.3.1-.1.1-.2.1-.3.2-.1.2-.2.3-.2.5v.3c0 .2 0 .3.1.5-.3-.2-.6-.4-1-.6-.6-.3-1-.5-1.7-.8-.9-.4-1.5-.6-2.4-1-.6-.2-.9-.4-1.5-.5-.4-.1-.6-.2-1-.2-.4-.1-.6-.1-1.1-.1-.5 0-.8-.1-1.2-.1-.5 0-.8 0-1.4.1-.3 0-.5 0-.8.1-.3.1-.4.1-.7.2-.4.1-.6.2-.9.4-.2.1-.3.2-.5.3-.2.1-.3.2-.5.4l-.5.5c-.2.3-.3.4-.5.7-.1.2-.1.3-.2.4-.1.4-.2.6-.2.9v.5c0 .3 0 .4.1.7 0 .2.1.3.1.5.1.2.1.4.3.6.1.2.2.3.3.5l.4.4c.2.1.3.2.5.3.2.1.3.2.5.3.2.1.3.2.6.2.3.1.4.1.7.1h1.2c.2 0 .3-.1.5-.1.4-.1.7-.2 1-.4.2-.1.3-.2.4-.3.2-.1.2-.2.4-.4.1-.2.2-.2.3-.4.1-.1.1-.2.2-.3.1-.2.1-.3.1-.5v-.7c0-.1 0-.2-.1-.3 0-.1-.1-.2-.2-.3l-.3-.3c-.1-.1-.1-.1-.2-.1-.1-.1-.2-.1-.4-.1h-.4c-.2 0-.3 0-.4.1-.2.1-.3.2-.4.4-.1.1-.1.2-.2.3-.1.1-.1.2-.1.3v.3c0 .2 0 .2.1.4.1.1.1.2.2.3.1.1.2.2.4.3-.1.1-.2.1-.3.2-.2.1-.3.1-.5.2-.3.1-.5.1-.8.1-.3 0-.5 0-.8-.2-.2-.1-.3-.1-.4-.2-.2-.1-.4-.2-.6-.4-.2-.2-.3-.3-.4-.5-.1-.2-.2-.4-.2-.6v-.5c0-.3 0-.5.1-.8 0-.2.1-.2.2-.4l.2-.4c.1-.2.2-.3.4-.5.1-.1.2-.2.4-.3.3-.2.5-.4.9-.5.3-.1.5-.2.8-.3.4-.1.7-.2 1.2-.2H55c.4 0 .5 0 .9.1.5.1.7.1 1.2.2.6.1.9.2 1.4.4l1.5.5c.9.4 1.4.6 2.3 1 .4.2.7.4 1 .6-.4.1-.6.2-1 .3-.2.1-.3.1-.5.3-.2.1-.3.2-.4.3-.1.1-.2.2-.3.4-.1.1-.2.2-.2.4l-.2.4c-.1.3-.1.5-.1.7.2-.1 1-.6 1.7-.8.6-.2 1-.3 1.7-.3.6-.1 1 0 1.7 0 .4 0 .6.1 1 .1.8.1 1.3.2 2.1.5 1.1.4 1.5.5 2.7.9.7.2 1.1.4 1.9.5.3.1.5.1.9.2.5.1.7.1 1.2.1h1.1c.6 0 .9 0 1.5-.1.5-.1.8-.2 1.3-.4.3-.1.5-.2.9-.3.2-.1.3-.2.6-.3.3-.2.5-.3.8-.5.3-.2.4-.3.7-.6.2-.2.4-.3.6-.5.4-.4.6-.7.9-1.1.2-.2.3-.4.4-.6.2-.3.3-.5.4-.9.1-.2.1-.4.2-.6.2-.5.3-.8.4-1.4.1-.4.1-.6.1-.9v-.8c0-.3 0-.5-.1-.9-.1-.5-.1-.8-.3-1.3-.1-.3-.1-.5-.2-.7-.2-.5-.3-.7-.5-1.1-.2-.3-.3-.5-.5-.7-.4-.6-.8-.9-1.2-1.4.5 0 .8 0 1.4-.1.4-.1.7-.2 1.1-.3 0 .1-.1.2-.1.3v.4c0 .1 0 .2.1.3.1.2.1.3.2.4l.2.2c.1.1.3.2.3.2.2.1.6 0 .7 0-.1-.2-.1-.3-.1-.6v-.4c.1-.5.3-.8.6-1.2.2-.3.4-.4.7-.7.4-.4.7-.5 1.1-.9.3-.2.4-.4.6-.6.3-.3.6-.9.6-.9s.1-.3.2-.4c.1-.3.1-.5.2-.8v-.4l.1-.1c.3.5.4.7.7 1.2.3.4.4.7.7 1.1.2.3.4.5.6.8.3.4.5.6.8.9l1 1c.4.4.7.6 1.2 1 .4.3.7.5 1.1.8v4.8h-.1s-.1-.4-.2-.7c-.1-.3-.2-.5-.3-.7l-.5-1c-.2-.4-.4-.7-.7-1l-.5-.5c-.3-.3-.5-.5-.8-.7-.4-.2-.7-.4-1.2-.4H91c-.1 0-.2 0-.3.1-.4.1-.6.1-1 .3-.4.2-.6.4-1 .7-.2.2-.4.3-.6.5-.2.2-.3.4-.5.7-.1.2-.2.3-.3.6-.2.3-.3.5-.4.8-.2.5-.3.8-.4 1.3-.1.4-.2.7-.2 1.1-.1.4-.1.6-.1 1s0 .7.1 1.1c0 .3 0 .5.1.9 0 .2.1.3.1.4 0 .2.1.3.1.5.1.3.2.5.3.8.1.3.2.5.3.7.4.8.7 1.3 1.5 2 .2.2.3.3.6.4.3.2.5.3.9.4.2.1.3.1.6.2.2 0 .3.1.5.1h.9c.2 0 .3-.1.5-.1.2-.1.4-.1.6-.2.3-.2.5-.3.8-.5.2-.2.3-.3.5-.4.3-.2.4-.4.6-.7.3-.3.4-.6.6-.9l.5-1c.2-.4.3-.8.4-1.2.1 0 0 4 0 6.2H36.3v13.1h122.8V45H98zm-.8-21.5c-.2-.2-.2-.7-.2-1 .1 0 .3.1.4.1.1.3.1.6 0 .9v.1c.1 0 .1-.1.2-.1l.1-.1c.1.5.2 1 .4 1.5 0 .1.1.1.1.2H98c0-.1-.1-.1-.2-.1s-.3-.1-.4 0v.1h-.1c-.1 0-.2 0-.2.1v.1h.1c.1-.1.2-.1.3-.1 0 0-.1 0-.1.1v.1l.1.1v-.1c.1-.1.3-.1.5-.1h1.1l.1.1h.1c.1-.1.1-.1.1-.2v-.1c-.1-.1-.3-.1-.4-.1-.1 0-.2 0-.3-.1-.1-.1-.1-.2-.2-.3-.1-.4-.2-.9-.2-1.3.1.1.2.1.3.1h.2c-.1-.1-.1-.1-.2-.1-.3-.3-.4-.7-.3-1.2.1 0 .1-.1.3.1.1.1.1.2.2.3.1.2.1.4.1.6 0 0 0-.1.1-.1.1-.4 0-.9-.2-1.3-.2-.3-.5-.5-.7-.7.5.3 1.1.7 1.3 1 .1.2.2.3.3.6.2.5.2.8.1 1.2v.1s.1 0 .1-.1l.3-.6c.2-.5.1-1.1-.3-1.6-.3-.3-.7-.6-1.1-.8h.2c.2 0 .4-.1.6-.3.2-.1.1-.3.2-.5.2-.3.3-.4.5-.7.1-.3.2-.4.3-.7.1-.4.3-.6.4-.9 0-.2 0-.3.1-.5s.3-.3.4-.6c.2-.4.2-.7.2-1.1 0-.2-.1-.4-.1-.5 0-.2-.1-.3-.2-.4h-.1v.3c0 .1-.1.3-.1.4-.1.4-.3.8-.6 1.2v-.3c0-.2 0-.2-.1-.4 0-.1 0-.2-.1-.3-.1-.2-.4-.5-.4-.4h-.1c.1.1.1.3.1.5-.1.4-.4.8-.7 1.1-.4.5-.9.8-1.3 1.2l-.2.2c-.2.2-.3.4-.4.6-.1.2-.1.5-.2.7 0 .1 0 .1-.1.2l-.1.1c-.1 0-.1-.1-.1-.1-.1-.5.1-.9.4-1.3.2-.2.4-.5.6-.7.1-.2.1-.4 0-.6 0-.1-.1-.1-.2-.2h.2c.1 0 .3 0 .4-.1.1 0 .2-.1.2-.2v-.1c-.1.1-.2.1-.3.1-.2 0-.5-.1-.7-.2-.2 0-.3-.1-.5-.1s-.4-.1-.5.1v.1h-.3c0-.1 0-.1-.1-.2h-.2c0 .1.1.1.1.2-.1 0-.3.1-.4.2 0 0-.1.1 0 .1.1-.1.3-.1.4-.1v.2h-.2c0 .1.1.1.1.1 0 .1-.1.2-.1.2-.1-.1-.1-.1-.2-.1-.2 0-.3.1-.4.1h-.1v.1h.2c.1 0 .2-.1.3-.1h.1l-.1.1c-.1.1-.3.1-.4.3v.2c0 .1.1.1.2.1 0-.1.1-.2.2-.2 0-.1.1-.1 0-.2l.1-.1c0 .1.1.1.1.2.1.1.2.1.3 0 .1 0 .2-.2.2-.3-.1.1-.1.1-.2.1l-.1-.1c-.1 0-.2-.1-.2 0 .1-.1.1-.2.2-.3.1 0 .3 0 .4-.1.2 0 .4 0 .5.1v.1c.1.2 0 .4-.2.5-.5.5-1.1.8-1.5 1.4-.1.1-.1.2-.2.3-.2.4-.3 1.1 0 1.5.2.5.7.8 1.2 1 0 0 .1 0 .1.1 0 .3-.1.8-.2 1.1.2 0 .3-.1.5-.2 0 .2-.1.4-.2.6-.2.5-.4.7-.6 1.1 0 .1-.1.1-.2.2-.2.1-.4-.1-.6-.1-.1 0-.1 0-.2.1v.1c-.1 0-.2 0-.3.1 0 0-.1.1 0 .1 0 0 0 .1.1.1.1-.1.2-.1.2-.2h.1s-.1 0-.1.1c0 0-.1.1 0 .1 0 .1.1.1.2.1 0-.1.1-.1.1-.2.2-.1.4-.1.6-.1h.5c.1 0 .2 0 .3.1v.1h.1c.1 0 .1-.1.1-.2s-.1-.1-.1-.1h-.5v-.1c.2-.4.5-.7.8-1 .1-.2.2-.4.2-.6-.1.4 0 .5.1.5z"/><path class="st0" d="M61 86.4c-.5.6-1.1 1-1.8 1.3-.9.3-2 .5-3 .4-.1-2.7 0-5.4 0-8 0-1.4 0-2.9 1.1-3.8 0-.1-.1-.2-.1-.3h-3.9c-.1.1-.2.2-.2.3.3.3.6.6.7 1.1.2.8.2 1.7.2 2.5 0 2.4 0 4.8-.1 7.1 0 .9-.2 1.8-1 2.4 0 .1 0 .2.1.2 2.4 0 4.8.1 7.2 0 .4-1 .8-2 1.1-3.1-.1 0-.2-.1-.3-.1zm45-5.8c0 .1-.1.2-.1.3-.2.6-.8 1.2-1.4 1.5-.4.2-1 .3-1.5.3 0 0-.1 0-.1-.1.1-1.7 0-3.3.1-5 1.1 0 2.2.2 2.7 1.2.4.6.4 1.2.3 1.8zm2.1-2.1c-.7-1.6-2.4-2.5-4.2-2.5H100c-.1.1-.1.2-.2.3l.3.3c.4.6.5 1.3.5 1.9 0 2.7-.1 5.5-.1 8.2 0 .9-.2 1.8-.7 2.6-.1.1.1.2.1.3h3.5c.1-.1.1-.2.1-.2-.4-.4-.6-.9-.7-1.4-.2-1.3-.1-2.4-.1-3.7v-.1c1.9-.1 3.9-.6 4.8-2.5.4-.8.6-1.4.5-2.3.3-.3.2-.8.1-.9zm-14.9 3.6c-.3.1-.6.3-1 .2v-4.6c.1 0-.1-.1 0-.1.3 0 .6 0 .8.1.7.1 1.2.4 1.6 1 .4.6.4 1.5.1 2.2-.1.1-.2.3-.3.4-.2.2-.3.4-.7.6-.1 0-.3 0-.5.2zm3.6 4.8c-.8-1.2-1.6-2.5-2.3-3.8.4-.3.8-.5 1.3-.8.8-.6 1.4-1.6 1.5-2.6v-.6c-.1-1.2-1-2.3-2.1-2.7-.6-.3-1.3-.4-2-.4h-3.9c-.1.1-.1.2-.2.3.2.1.2.2.3.3.4.5.5 1.2.5 1.8v7.7c0 .5-.1.9-.1 1.4-.1.5-.2 1-.4 1.4-.1.3-.4.4-.5.6.1 0 .1.1.2.2h3.2c.3-.1.8.2.8-.2-.4-.5-.7-1-.8-1.6 0 0 0-2.7-.1-4l.1-.1c.5.9.9 1.7 1.4 2.5.7 1.3 1.6 2.7 3 3.3 0 0 0 .1.1 0 .6.3 1.5.4 2.2.2 0-.1.1-.1.1-.2-1.1-.7-1.6-1.8-2.3-2.7zm20.2-.2c-.4.9-1.4 1.9-2.5 1.8-.9-.1-1.8-.8-2.2-1.6-.6-.8-.8-1.8-.9-2.8-.2-1-.1-2 0-3 0-.3.2-.7.3-1.1 0-.2.1-.4.2-.7.4-.9 1.3-1.7 2.3-1.8.9-.1 1.7.4 2.2 1 1.1 1.4 1.3 3.2 1.3 4.9-.1 1.2-.2 2.3-.7 3.3zm-1.2-10.6c-.7-.2-1.4-.2-2.1-.1l-1.2.3c-.8.3-1.5 1-2.1 1.6-.3.4-.5.8-.7 1.2-.3.8-.6 1.6-.7 2.5-.1.8-.1 1.7 0 2.5.2.9.4 1.8.8 2.6.4.7.9 1.5 1.7 2.1.5.4 1 .7 1.6.9.4.1.7.2 1.1.2 1.8.2 3.4-.6 4.6-2 1.9-2.6 2-6.7.3-9.5-.8-1-2-2-3.3-2.3zm14 9.4c-.1.1 0 .2-.1.3-.3 1.2-1.1 2.5-2.5 2.6-.6 0-1.2-.1-1.6-.5-.5-.4-.9-.9-1.2-1.5-.3-.5-.4-1-.5-1.6-.1-.3-.1-.6-.2-1-.2-.9-.1-1.9 0-2.9.2-.8.3-1.6.8-2.3 0 0 .1.1.1 0h-.1c.3-.4.6-.7 1.1-1 .3-.2.8-.3 1.2-.3 0-.1.1 0 .1 0h.3c.8.2 1.5.8 1.9 1.5 0 .1.1.1.1.1.9 2.1 1.1 4.5.6 6.6zm1.3-7.5c-.6-.8-1.4-1.4-2.3-1.8-.1 0-.2-.1-.3-.1-1.9-.6-4.1-.1-5.4 1.3-.2.2-.3.4-.5.5-.3.4-.4.8-.6 1.2-.7 1.6-.9 3.7-.6 5.5.3 1.2.7 2.4 1.5 3.4.9 1.3 2.4 2 4 2 1.5.1 2.8-.6 3.9-1.6.8-.9 1.3-2 1.6-3.1.3-1.6.3-3.2-.1-4.8-.2-.9-.6-1.7-1.2-2.5zm10.3 8.5s-.1 0 0 0c-1.2 1.4-3 1.8-4.8 1.7-.1-.4 0-.8 0-1.3 0-2.1-.1-4.3 0-6.4 0-1.4-.1-3.1 1.1-4.1 0-.1 0-.2-.1-.3h-4.1c-.1 0-.1.2-.2.3.1 0 .1 0 .1.1.7.4.8 1.2.8 1.9.1 1.1 0 2.1 0 3.2v5.2c-.1.6-.1 1.4-.4 2-.1.4-.3.7-.6.9 0 .1.1.2.1.3h7.3c.4-.8.6-1.7.9-2.5 0-.2.1-.4.2-.6-.2-.3-.2-.4-.3-.4zM83.6 88c-.1 0-.2 0-.3-.1v-4.4c0-.1 0-.2.1-.3 1.1 0 2.3.2 3 1 .1 0 .2-.1.2-.1v-2.5c-.1-.3.2-.8-.2-.8-.3.3-.6.6-1 .7-.7.2-1.4.3-2.1.3-.1-1.4 0-2.8 0-4.2v-.1c1.4 0 2.9.1 3.9 1.2.1 0 .2-.1.2-.1-.1-.9-.1-1.7-.2-2.6H80l-.1.3c.2.1.4.3.5.5.7 1.2.4 2.6.4 3.9 0 2 0 4.1-.1 6.1-.1.9-.3 1.8-1 2.5l-.1.1c.1.1 0 .2.1.2 2.5 0 5 .1 7.5.1.3-1 .8-2.1 1.1-3.1-.1-.1-.1-.1-.2-.1-1.1 1.2-2.8 1.6-4.5 1.5zm-8.3-12.1c0 .1-.1.2-.1.3.2.1.4.3.5.5.3.8 0 1.7-.2 2.4L73.1 86c-.3-.7-.5-1.5-.7-2.2 0-.1-1.1-3.4-1.7-5.1-.2-.8-.4-1.9.4-2.6 0-.1-.1-.2-.1-.3h-4.2s-.1.1-.1.2c-.1.2.2.2.3.3 1 .9 1.2 2.3 1.6 3.5 1.1 3.3 2.2 6.4 3.3 9.6h1.7c.2.1.1-.2.2-.2l.3-.9 3-8.4c.5-1.4.9-2.9 2.3-3.8 0-.1 0-.2-.1-.3-1.5.1-2.7.1-4 .1zm-9.9 12.9c-.3-.5-.4-1.1-.5-1.7v-6.4c0-1.6-.1-3.3.8-4.6l-.1-.2h-3.8l-.1.3.2.2c.1.1.1.2.2.3.6 1.2.3 2.6.4 3.9v4.9c0 .6 0 1.5-.2 2.1-.1.6-.3 1.3-.9 1.7 0 .1.1.2.1.3h4.1c.1-.1.2-.2.2-.3-.1-.1-.3-.3-.4-.5zM90.8 171.1c-1.6.2-3.3.3-4.8.6-.1.6-.1 1.3-.1 2 .1.1.2.1.3.2.1-.1.1-.3.2-.4.4-.8 1.3-1 2.1-1.1.1.7.2 1.5.2 2.2.1 1.2.3 2.5.2 3.7-.1.4-.2.9-.6 1.2 0 .1.1.2.1.2 1-.1 2.1-.2 3.1-.3-.2-.4-.7-.8-.7-1.3-.1-.3-.1-.6-.1-1v-.1c-.2-1.6-.3-3.1-.4-4.7.1-.1-.1-.1 0-.2.6-.1 1.1.1 1.6.2l.4.3c.1.2.3.2.4.4.1.1.2 0 .3-.1l-.6-1.9c-.6 0-1.1.1-1.6.1zm14.2 3.5c-.2.2-.6.3-.9.2-.2-.1-.3-.1-.4-.2-.2-.1-.2-.4-.3-.6 0-.4.1-.9.4-1.1.2-.2.6-.3.9-.2.3.1.5.3.7.6.1.4.1.9-.4 1.3zm-.1 3.3c0 .5-.4.9-.8 1.1-.4.2-.8 0-1.2-.2-.1-.2-.3-.3-.3-.5-.2-.4-.1-.9.1-1.3s.7-.8 1.2-.8c.4.1.8.2.9.6.1.4.2.7.1 1.1zm1-5.9c-.2-.1-.3-.2-.5-.3-.8-.5-1.8-.3-2.5.3-.6.5-1 1.4-.7 2.2.1.5.5.8.8 1.1-.1.1-.3.1-.4.2-.2.2-.4.2-.6.5-.7.6-1 1.7-.7 2.6.2.6.6 1.1 1.2 1.3.6.3 1.5.4 2.2.1.9-.3 1.6-1.1 1.7-2 .1-.8-.3-1.7-1-2.2-.1 0-.1 0-.2-.1.7-.3 1.4-1 1.5-1.7.1-.8-.2-1.5-.8-2zM95 174.5c-.4-.1-.8 0-1 .3-.2.2-.3.6-.1.9.1.3.5.6.8.5.4 0 .7-.2.8-.6 0-.3.2-.7-.1-.9l-.4-.2zm24.8 3.4c.2-.3.3-.7.3-1.1 0-.5-.1-1-.4-1.4-.1-.1-.2-.2-.2-.3l-.3-.3c-.8-.7-2.2-.8-3.2-.3-.1 0-.2.2-.4.2-.2.2-.4.3-.6.5-.1.2-.3.3-.4.4.4.5.8 1 1.2 1.4.1 0 .2 0 .3-.1v-.5c.1-.5.5-1 1-1 .4-.1.7 0 1 .3 0 .1.2.1.2.2.3.7 0 1.6-.5 2.2-1.3 1.3-3 2.3-4.7 3-.2.1-.6.2-.8.3.1.1 0 .3.1.3 2.1.5 4.1 1 6.2 1.5.4-.5.7-1 1.1-1.6v-.1c-.1 0 0-.2-.1-.1-.3.2-.7.2-1 .3-.6.1-1.2-.1-1.8-.2-.3-.1-.6 0-.8-.2v-.1c1.5-.8 2.9-1.8 3.8-3.3zm-8-1.9-.3.3c-.3.2-.8.3-1.1.1-.2-.1-.3-.2-.5-.3 0-.1 0 0-.1 0-.1-.3-.3-.5-.2-.8 0-.4.2-.8.5-1 .3-.3.9-.4 1.3-.2.2.1.4.2.5.4 0 .1.1.2.1.3.2.2.1.8-.2 1.2zm1.8 0c.2-1-.1-2-.8-2.6-.4-.3-.9-.6-1.4-.7h-.1c-.9-.1-1.8.2-2.4.9-.1.2-.3.3-.3.5-.4.8-.4 1.7.1 2.4.6.8 1.6 1.2 2.6.9-.2.4-.7.7-1 1.1-.8.7-1.7 1.3-2.7 1.5-.2 0-.4.1-.6 0 0 .1 0 .2.1.3.7.2 1.4.3 2.1.4.4 0 .7-.3 1.1-.4 1-.6 1.9-1.4 2.5-2.3.2-.5.6-1.2.8-2zm-35.2 3.3c-.2.3-.5.6-.8.9-.3.2-.7.5-1.1.7-.4.1-.9.4-1.3.4-.2-.5-.3-1-.4-1.5v-.1c-.1-.4-.1-.7-.3-1.1-.1-.1.1-.1.2-.2.7-.2 1.6-.2 2.2.4.1.1.2-.1.3-.1-.2-.9-.4-1.7-.7-2.6-.1-.1-.2-.1-.3-.1-.1.5-.6.9-1 1.2-.3.1-.7.3-1 .4-.1 0 0-.2-.1-.3-.2-.7-.3-1.3-.5-1.9 0-.3.3-.3.5-.3.9-.3 2-.3 2.9.1.2.1.1-.1.3-.2-.2-.5-.5-1-.7-1.5-1.7.3-3.4.8-5.1 1.2-.1 0-.3 0-.3.2-.1.2.3.2.4.4.3.2.4.5.6.8.2.3.2.7.4 1.1.1.7.4 1.5.6 2.2.1.6.3 1.2.3 1.8v.5c0 .4-.1.7-.4 1 0 .1.1.2.2.2 1.7-.4 3.5-.9 5.2-1.3.1-.1.3 0 .4-.1v-2c-.4-.1-.4-.2-.5-.2zm4.8-3.8c-.7-.2-1.6-.2-2-.9-.1-.3-.1-.8.1-1.1.3-.4.8-.5 1.4-.5.4 0 .7.2 1.1.5l.3.3c.1-.1.2-.2.2-.3-.1-.5-.3-1-.4-1.5h-1.3c-.8 0-1.5.1-2.1.5-.4.3-.7.8-.9 1.3-.1.5-.1 1 .1 1.4.4.9 1.5 1.3 2.4 1.5.6.2 1.3.3 1.7.8.3.3.3.8.2 1.2-.1.5-.7.8-1.1 1h-.4c-.8 0-1.4-.5-1.9-1-.1.1-.2.1-.2.2l.6 1.8.1.1c.9-.3 1.9 0 2.8-.3.5-.2.9-.5 1.2-.9.6-.7.7-1.8.3-2.6-.4-.8-1.3-1.2-2.2-1.5zm16.6 2.3c.1-2.2.2-4.5.3-6.7-.3 0-.5-.1-.8-.1-.6.5-1.1 1-1.7 1.5-.2 0-.1.2-.1.3h.1c.6.3.9 1 .8 1.6.1.8-.1 1.8-.1 2.7 0 .1 0 .3-.1.4-.1.7-.3 1.3-1 1.6 0 .1.1.2.1.2 1 .1 1.9.1 2.9.2.1 0 .1-.1.2-.2-.4-.3-.5-.8-.6-1.3 0 .1.1-.1 0-.2z"/><path class="st1" d="M89 134.3c-.3-3.3 1.4-6 3.4-7.6.1 0 .1 0 .1.1-.9 1.9-2 3.5-1.9 6.4.2 3.1 1.7 5.6 3.6 7.2.6.5 1.5.8 1.9 1.5-3.5-1.1-6.7-3.4-7.1-7.6zm6.9 16.4c.6.4 1.1 1 2 1-.7-1.3-1.3-2.8-1.3-4.7-1.6-.3-2.9-.8-4.2-1.4-.1 2.1-.6 3.8-1.3 5.3 1.1 0 1.8-.8 2.4-1.1-.7 2.6-2.2 5.5-3.6 7.9-.4.6-1 2-1.7 2.2-1.2.4-2.6-1.1-4-.2-.1.1 0 .5-.1.6-1.2-.4-2.6.6-1.6 1.5.5-.5 1.2-1.1 2.2-.8-.8.2-1.5 1.8-.1 1.9.1-.2.1-.5.3-.7 2-.9 6.2-.9 8.4-.2.2.1.1.5.3.6.5-.2.9-.9.8-1.5-.4-1.2-2.8-.4-3.8-.9.1-.9.8-1.5 1.3-2.1 1.6-2.2 3.6-4.2 4-7.4zm6.1-12.3h-.2c0 .1 0 .2.1.2 1.8 1.6 4.4 3.2 6.1 5.4 2.2 2.8 3.9 7 2.6 11.3.8-.7 1.3-1.7 1.7-2.7.4-1.1.8-2.4.8-3.8.1-6.9-6.1-8.5-11.1-10.4zm9.1-4.3c0-.1-.1-.2-.1-.2-1.5.9-3.1 1.6-5.2 1.9.8.3 2.8.7 3.8.3.8-.4 1-1.6 1.5-2zm-5-1.2c.1 1.5-.9 1.8-1.7 2.4 2.2-.1 4.1-.9 5.6-1.9 1.5-.9 3-2 3.7-3.8h-.1c-2.2 1.5-4.5 2.8-7.5 3.3zm1-3c0 .5 0 1-.2 1.4-.2.4-.8.7-.6 1 2.1-.5 4-1.4 5.6-2.6 1.5-1.1 3.1-2.4 3.6-4.5h-.1c-2.4 1.9-5.1 3.6-8.3 4.7zm.4-2.9c.3 1-.3 1.8-.4 2.3 3.3-1.4 6.4-3.4 8.6-6.1.7-.8 1.7-1.9 1.5-3.2-2.8 2.8-5.9 5.3-9.7 7zm0-2.9c.3.7.2 1.7-.1 2.2 4-2.2 7.9-4.9 10.6-8.4.9-1.2 1.9-2.5 2-4.2h-.1c-3.4 4.1-7.5 7.6-12.4 10.4zm-4.8-1c-.6.5-1.4 1-1.6 1.8.8-.1 1.3-.8 2-1.3 3.4-2.5 6.6-4.6 9.1-7.9 1.3-1.7 3.4-4.8 1.4-6.9h-.1v.2c0 2.3-1 4-2.1 5.6-2.4 3.5-5.7 5.8-8.7 8.5zm10.3-3.7c1.6-1 3.1-2.5 4.6-4.1 1.6-1.7 4-4 2.9-7-.1 0-.1-.1-.2-.1-1.5 4.1-3.7 7.2-6.4 10-.3.3-.8.6-.9 1.2zm-19.3-4v-.6c.8.1 1.5.2 2.2.4-.6.3-1.7.7-2.2.2zm-3 1.9c.2-.4.2-.9.3-1.3.6 0 1.2 0 1.6.2-.1 1-1.2.8-1.9 1.1zm15.2 43.1c-.3-.1-.5-.4-.6-.7-1.3-2.4-1.4-5.6-1.9-8.8.6.4 1.7 1 2.7.6-1.8-1.5-3.2-3.9-2.7-7.3-1.9-1.7-4.2-3.5-5.4-5.9-.4-.8-.8-1.9-.5-2.9.9 2.8 2.5 4.6 4.6 6.5 2.2 2 4.8 4.1 4.4 8.5.6-.3.6-1.2.7-1.8.4-5.6-3.8-7.7-6.5-10.2-.9-.8-1.8-1.8-2-3 .9.6 1.8 1.6 3 2.4 2 1.2 4.6 1.6 6.5.4.6-.3 1.3-.7 1.4-1.3-2 .1-3.6-.2-5-.6-1-.3-2-.6-2.6-1.3 1.7-.2 3-.6 3.5-2-1.1 0-2.6.2-3.3-.3 2-.3 3.9-.7 4.4-2.5-1.4 0-2.9.8-4.3.3 1.9-.7 4.3-.8 4.7-3-1.4.1-3.1 1.3-4.7 1 1.9-.9 4.8-1.3 4.7-3.9-1.1.1-2.5 1.4-3.7 1.2 5.2-3.2 10.4-7.2 13.8-12.5 1.5-2.3 4.2-6.8 1.5-9.5h-.2c0 .1-.1.1-.1.2-.3 3.7-1.7 7.1-3.4 9.7-1.6 2.6-3.6 4.8-5.8 6.7-2.3 1.9-5 3.4-7.2 5.3-1.3 1-1.9 2.1-2.5 3.8-.6 1.6-1.3 3.1-2.4 3.8-.4.2-1 .7-1.5.3.5-.5 1-.7 1.3-1.1.6-.8 1-2.1 1.4-3.4.4-1.2.9-2.4 1.5-3.4 2.2-3.7 6.9-6.2 9.8-9.6 1.5-1.7 3.2-3.8 3.3-6.4.1-2.1-.7-3-2.2-3.3.1.7.6 1.3.5 2.5-.2 2.3-2.1 4.9-3.4 6.5-1.5 1.8-3.2 3.3-5 4.9-1.7 1.4-3.7 3-4.8 5.1-.5 1-1 2.6-1.3 3.7-.2.7-.5 3.5-1.5 3.4-.6 0-.8-1.3-.8-2.2.1-4.7 4.5-6.8 6-9.9.1-.3.3-.9.3-1.3.2-1.6-.7-2.2-1.4-2.9 2 .3 4.7.1 4.5-1.9-.3.1-.5.5-1 .6-2.9.9-7.9-3.5-10.1-.9-.3.1.1.5-.1.6-.5 0-1.1 0-1.5.1-.1-.4-.3-.8-.4-1.2-.3.1-.7.1-1 .2.2.3.5.6.5 1.1-1.1.3-2.1.7-2.3 1.9.7-.2 1.6-.6 2.4-.6 0 .5-.1.9-.3 1.3-.2.2-1-.1-1 .2-.1.5.6.3.7.7-.2.4-.5.8-.8 1.1-1-1.2-2.2-.1-3.3.2-.3.1-.5 0-.7.1.9 1.5 2.5 0 3.8-.1-.4.8-2.3 1.1-2.6 2.1-.2.7.1 1.6 1.1 1.6-.3-.9.9-1.3 1.2-2 .1-.2-.1-.6 0-.8.1-.3.6-.3.8-.6.2 1.9 3.3 1.8 3.4-.2-.4.2-.6.5-1 .5-.5-.1-.9-1.2-2-.8.4-.4.7-1.1 1.1-1.5 1.6-.2 4.2-1 4.8.8.1.4.1 1.1-.1 1.6-.5 1.2-2 2.3-3.1 3.1-3.3 2.6-7.6 5.5-7.9 10.8-.3 4.8 2.2 7.5 5.1 9.3 2.8 1.7 5.9 2.4 9.5 3 .6 1.4.8 3.7.2 5.2.8-.1 1.2-1 1.7-1.2.4 2.8 1 5.2 1.9 7.4.3.7.8 1.4.8 2.2-1.4.4-4.2-1.7-4.5.3-1.3-.3-2.1.9-1.3 1.6.4-.5.9-.9 1.8-.8-.6.3-1.1 1.7.1 1.7l.3-.6c1.1-1.1 6-1 8.1-.6.5.1.8.7 1 .8.4-.3 1-.6.8-1.3-.3-1.2-2.8-.2-3.9-.8z"/><path class="st0" d="M46.1 48.5c1 0 1.5 1.2 1.7 2.4.2 1.2.1 3.6-1.6 3.5-.9-.1-1.4-1.2-1.6-2.4-.1-.7-.1-1.4-.1-1.8.2-.9.7-1.7 1.6-1.7zm-1.6 0c-.3.3-.6.8-.9 1.6-.6 1.8.4 4.7 2.1 5 2.2.4 3.4-1.4 3.4-3.3 0-1-.3-2.3-1-3.1-.9-1.1-2.6-1.3-3.6-.2zm96.3.1c1 0 1.5 1.2 1.7 2.4.2 1.2.1 3.6-1.6 3.5-.9 0-1.4-1.2-1.6-2.4-.1-.7-.1-1.4-.1-1.8.2-1 .7-1.8 1.6-1.7zm-1.7-.1c-.3.3-.6.8-.9 1.6-.6 1.8.4 4.7 2.1 5 2.2.4 3.4-1.4 3.4-3.3 0-1-.3-2.3-1-3.1-.8-1.1-2.5-1.3-3.6-.2zm-87.2-.6h-2.4l-.1.2c.1 0 .2.1.3.2l.2.2c.1.1.1.3.2.5 0 .2 0 .4.1.6V53.5c.1.6.4 1.2.9 1.4.3.2.8.2 1.2.2.5 0 .8-.2 1.1-.4.2-.1.4-.3.6-.4 0 0 .2-.2.2-.1v.7h1.7l.1-.2s-.2-.1-.3-.2c-.1-.1-.2-.4-.3-.5-.1-.4-.1-1.5-.1-2.5v-2.3c0-.2 0-.4.1-.5.1-.2.2-.3.3-.5l.2-.1c0-.1 0-.1-.1-.1l-.1-.1h-2.1l-.1.1v.1s.1 0 .1.1l.1.1.2.2c.1.1.1.3.1.6v4s-1 1-1.8 1-.9-.4-1-1c-.1-.6 0-3.6 0-3.6.1-.5.1-.8.3-1.1.1-.1.2-.2.4-.3.1 0 0-.1 0-.2 0 .1 0 0 0 0zm5.5.1h-1.1s0 .1-.1.2v.2c0 .2-.1.6-.1.8-.1.2-.1.4-.2.5-.1.1-.2.2-.2.3 0 0 .1.2.2.2.4-.2.7-.4.9-.8.3-.5.5-.9.6-1.4zm2.9 0H58s0 .1-.1.1v.1s.1 0 .1.1c.1.1.2.2.2.3.1.1.1.2.1.3 0 .2 0 .3.1.5v1.9c0 .7.1 1.8-.1 2.5 0 .2-.1.4-.1.4 0 .1-.1.1-.1.2-.1.1-.2.2-.2.3-.1 0-.1.1-.1.1v.1c0 .1.1.1.1.1h3.7l.5-1.5s0-.1-.1-.1h-.1l-.2.2c-.3.2-.7.4-1 .5-.3.1-.6.1-.8.1h-.2c-.1-.2 0-3 0-3.3V49.1c0-.2.1-.4.2-.5.1-.1.2-.3.4-.4V48zm55.6 0h-2.2s0 .1-.1.1v.1s.1 0 .1.1c.1.1.2.2.2.3.1.1.1.2.1.3 0 .2 0 .3.1.5v1.9c0 .7.1 1.8-.1 2.5 0 .2-.1.4-.1.4 0 .1-.1.1-.1.2-.1.1-.2.2-.2.3-.1 0-.1.1-.1.1v.2h3.7l.5-1.5s0-.1-.1-.1h-.1l-.2.2c-.3.2-.7.4-1 .5-.3.1-.6.1-.8.1h-.2v-5.1c0-.2.1-.4.2-.5.1-.1.2-.3.4-.4V48zm-51.2 0h-2.2s0 .1-.1.1v.1s.1 0 .1.1c.1.1.2.2.2.3.1.1.1.2.1.3v2.4c0 .7.1 1.8-.1 2.5 0 .2-.1.4-.1.4 0 .1-.1.1-.1.2-.1.1-.2.2-.2.3-.1 0-.1.1-.1.1v.1c0 .1.1.1.1.1H66l.5-1.5s0-.1-.1-.1h-.1c0 .1-.1.1-.2.2-.3.2-.7.4-1 .5-.3.1-.6.1-.8.1h-.2v-5.1c0-.2.1-.4.2-.5.1-.1.2-.3.4-.4.1-.1.1-.1 0-.2zm71.5 0H134s0 .1-.1.1v.1s.1 0 .1.1c.1.1.2.2.2.3.1.1.1.2.1.3 0 .2 0 .3.1.5v1.9c0 .7.1 1.8-.1 2.5 0 .2-.1.4-.1.4 0 .1-.1.1-.1.2-.1.1-.2.2-.2.3-.1 0-.1.1-.1.1v.1c0 .1.1.1.1.1h3.7l.5-1.5s0-.1-.1-.1h-.1c0 .1-.1.1-.2.2-.3.2-.7.4-1 .5-.3.1-.6.1-.8.1h-.2c-.1-.2 0-3 0-3.3V49.1c0-.2.1-.4.2-.5.1-.1.2-.3.4-.4-.1 0-.1-.1-.1-.2 0 .1 0 0 0 0zm-65.7 0h-1.9s.2.2.3.5c.1.1.1.2.1.3.1.2.1.3.2.5v4.1c0 .2-.1.5-.1.7-.1.2-.1.4-.2.5 0 .1-.1.1-.1.2 0 0-.1 0-.1.1v.1c0 .1.1.2.1.2h2l.1-.1V55c-.1 0-.1-.1-.2-.1-.1-.1-.2-.2-.2-.3-.1-.2-.1-.5-.2-.7v-3.7l.3.3c.2.2.4.6.7 1 .1.2.3.4.4.5.2.3.5.7.7.9.1.1.5.7.8 1.2.1.2.2.3.3.4 0 .1.1.2.1.3 0 .1.1.1.1.2h1.5c0-.1.1-.2.1-.2-.1-.1-.1-.2-.2-.2 0 0 0-.1-.1-.1-.1-.2-.1-.6-.2-1v-3.8s0-.4.1-.7c0-.2.1-.3.2-.5l.2-.2.1-.1-.1-.2h-1.9s-.2.2-.1.2.4.2.5.5c.1.2.1.8.1 1v3.5c-.6-.8-2.9-3.9-3-4.6-.3-.2-.4-.6-.4-.6zm75.6.1h-1.9s.2.2.3.5c.1.1.1.2.1.3.1.2.1.3.2.5v4.1c0 .2-.1.5-.1.7-.1.2-.1.4-.2.5 0 .1-.1.1-.1.2 0 0-.1 0-.1.1v.1c0 .1.1.2.1.2h2s0-.1.1-.1v-.1c-.1 0-.1-.1-.2-.1-.1-.1-.2-.2-.2-.3-.1-.2-.1-.5-.1-.7v-3.7l.3.3c.2.3.4.6.7 1 .1.2.3.4.4.6.2.3.5.6.7.9.1.1.5.7.8 1.2.1.2.2.3.3.4.1.1.1.2.1.3 0 .1.1.1.1.2h1.5c0-.1.1-.2.1-.2-.1-.1-.1-.2-.2-.2 0 0 0-.1-.1-.1-.1-.2-.1-.6-.1-1V49.8s0-.4.1-.7c0-.2.1-.3.2-.5l.2-.2.1-.1-.1-.2h-1.9s-.2.2-.1.2.4.2.5.5c.1.2.1.8.1 1v3.5c-.6-.8-2.9-3.9-3-4.6-.6-.2-.6-.6-.6-.6zM79.4 48H75.8s-.2.2-.1.2c0 0 .2.1.3.3.1.2.1.4.2.7v3.4c0 .5 0 .8-.1 1.2-.1.3-.2.6-.4.8l-.2.2v.1s0 .1.1.1h3.9l.5-1.5-.1-.1h-.1s-.1.1-.3.2c-.5.3-.9.4-1.4.5-.1 0-.8.1-.8.1v-2.5s.4 0 .7.1c.4.1.5.2.8.5h.1l.1-.1v-1.9s-.1 0-.1-.1h-.1c0 .1-.2.2-.3.3-.2.1-.4.2-.5.3-.2.1-.4.1-.7.2v-2.2h.2c.3 0 .8.1 1.2.2.2.1.3.1.5.2.1 0 .1.1.2.1s.2 0 .2-.1l-.2-1.2zm75.9.2H151.7s-.2.2-.1.2c0 0 .2.1.3.3.1.2.1.4.2.7v3.4c0 .5 0 .8-.1 1.2-.1.3-.2.6-.4.8l-.2.2v.1s0 .1.1.1h3.9l.5-1.5-.1-.1h-.1s-.1.1-.3.2c-.5.3-.9.4-1.4.5-.1 0-.8.1-.8.1v-2.5s.4 0 .7.1c.4.1.5.2.8.5h.1l.1-.1v-1.9s-.1 0-.1-.1h-.1c0 .1-.2.2-.3.3-.2.1-.4.2-.5.3-.2.1-.4.1-.7.2V49h.2c.3 0 .8.1 1.2.2.2.1.3.1.5.2.1 0 .1.1.2.1s.2 0 .2-.1l-.2-1.2zM91 48.1H87.4s-.2.2-.1.2c0 0 .2.1.3.3.1.2.1.4.2.7v3.4c0 .5 0 .8-.1 1.2-.1.3-.2.6-.4.8l-.2.2v.1s0 .1.1.1h3.9l.5-1.5-.1-.1h-.1s-.1.1-.3.2c-.5.3-.9.4-1.4.5-.1 0-.8.1-.8.1v-2.5s.4 0 .7.1c.4.1.5.2.8.5h.1l.1-.1v-1.9s-.1 0-.1-.1h-.1c0 .1-.2.2-.3.3-.2.1-.4.2-.5.3-.2.1-.4.1-.7.2v-2.2h.2c.3 0 .8.1 1.2.2.2.1.3.1.5.2.1 0 .1.1.2.1s.2 0 .2-.1l-.2-1.2zm-8.4-.1h-2.5c-.1 0-.2.1-.1.1.1.1.2.1.2.2.1.1.3.3.4.5.2.2.4.7.5 1 .2.4.4 1 .6 1.6.6 1.7 1.4 3.6 1.4 3.6h.8l.7-1.8.7-1.8.4-1.1c.2-.4.3-.9.6-1.3.1-.2.3-.4.4-.5.1-.1.2-.1.2-.2v-.2s0-.1-.1-.1h-2s-.1 0-.1.1c0 0 .2.2.2.3 0 .1.1.2.1.3 0 .1.1.3 0 .4-.1.4-1.4 4.5-1.4 4.5l-1.2-3.8s-.2-1.2.3-1.6c.5-.3-.1-.2-.1-.2zm11 .9v2.4s.2 0 .5-.1c.6-.2 1-.6 1-1.1 0-.5-.3-1-.8-1.1-.3-.2-.5-.2-.7-.1zm-1.5-.9s-.1.1 0 0c-.1.1-.1.2-.1.2.1.1.2.1.2.2.1.1.2.4.2.6v3.2c0 .5 0 1.1-.1 1.6 0 .2-.1.4-.2.6 0 .1-.2.3-.3.3h-.1s0 .1.1.2h2s.1 0 .1-.1-.1-.1-.1-.1c-.2-.2-.3-.3-.3-.5v-2.4h.1l.1.2c.1.1.3.6.6 1.1.1.1.3.5.6.9.3.3.5.5.5.6.1.1.4.3.8.4.5.1 1 .1 1.1 0 .1-.1.1-.2.1-.2-.1-.1-.3-.1-.5-.2-.1-.1-.2-.2-.4-.3-.1-.2-.3-.4-.5-.6-.1-.1-.6-.9-.9-1.5l-.4-.8v-.1c.1 0 .2-.1.4-.2s.5-.3.7-.6c.1-.2.2-.4.3-.5v-.7c0-.2-.1-.5-.2-.7l-.6-.6c-.3-.2-.9-.3-1.3-.4h-.3c-.5.5-1.1.5-1.6.4zm8.4 0H98.2c-.1 0-.2.1-.2.2.2.1.4.2.6.4.3.4.5 1.1.6 1.6.2.6.5 1.5.7 2.3.4 1.3.8 2.4.8 2.4h.6l.5-1.6.8-2.3 1.3 4h.7l.8-2.3.8-2.3.3-.8s0-.1.1-.3c.1-.3.4-.8.7-.9.1-.1.2-.1.3-.1 0-.1-.2-.1-.2-.2-.2-.1-.5 0-.7 0h-1.4l-.1.2s.2 0 .3.2c.2.2.2.4.2.7-.2.9-1.1 3.6-1.1 3.6l-1.5-4.7h-.2l-1.5 4.7-.9-3.2s-.1-.5 0-.9c0-.1.1-.2.1-.2l.3-.2c-.3-.2-.4-.3-.4-.3zm8.4 1.8-1.2 3h2.3l-1.1-3zm-3.6 5.1.1.2h2.3c.1 0 .1-.2.1-.2-.1 0-.2-.1-.3-.2-.1-.1-.2-.4-.2-.5 0-.1 0-.3.1-.4l.1-.2h2.8l.2.5v.2c0 .1 0 .2-.1.4 0 .1-.2.2-.3.3h-.1l.1.2h2.6s.1 0 .1-.1c0 0 .1-.1 0-.1s-.2 0-.2-.1c-.1-.1-.2-.2-.3-.2-.1-.1-.3-.4-.4-.5-.1-.2-.2-.5-.3-.7-.2-.5-.5-1.2-.8-1.9-.3-.8-.7-1.6-.9-2.3-.3-.6-.5-1.1-.5-1.1s-.7-.1-.7 0c0 0-.5 1.3-1 2.5-.4.9-1 2.6-1.6 3.5-.1.1-.5.6-.8.7zm23.9-5.1-1.2 3h2.3l-1.1-3zm-3.7 5.1.1.2h2.3c.1 0 .1-.2.1-.2-.1 0-.2-.1-.3-.2-.1-.1-.2-.4-.2-.5 0-.1 0-.3.1-.4l.1-.2h2.8l.2.5v.2c0 .1 0 .2-.1.4 0 .1-.2.2-.3.3h-.1l.1.2h2.6s.1 0 .1-.1c0 0 .1-.1 0-.1s-.2 0-.2-.1c-.1-.1-.2-.2-.3-.2-.1-.1-.3-.4-.4-.5-.1-.2-.2-.5-.3-.7-.2-.5-.5-1.2-.8-1.9-.3-.8-.7-1.6-.9-2.3-.3-.6-.5-1.1-.5-1.1s-.7-.1-.7 0c0 0-.5 1.3-1 2.5-.4.9-1 2.6-1.6 3.5 0 .2-.5.7-.8.7zm-7.4-6.8c-.1 0-.1.2-.1.2.1.1.3.1.4.2.1.1.2.3.2.5v4.2c0 .3-.1.8-.2 1.2-.1.1-.1.2-.2.3-.1.1-.3.1-.2.1 0 .1.1.3.1.3h2.2l.1-.1.1-.2c-.1-.1-.2-.1-.4-.3-.1-.2-.2-.4-.2-.6V51.5l2.8 3.6h1.8l.1-.1v-.1c-.1-.1-.3-.2-.4-.2-.1 0-.1-.1-.2-.1-.6-.5-1.2-1.1-1.6-1.7l-1.4-1.8c0-.1.6-.6 1.1-1.2.5-.5 1.1-1 1.1-1 .3-.3.6-.5 1-.5 0 0-.1-.2-.2-.2h-2.3s-.2.1-.1.2c0 .1.1.1.1.3-.1.3-.3.7-.7 1-.4.5-1.1 1.2-1.1 1.3v-1.6c0-.2.2-.7.5-.9.1-.1.1-.1.2-.1v-.1c0-.1 0-.1-.1-.1h-1.8c-.3-.1-.5-.1-.6-.1zm-78.6 6.7c0 .1 0 .2.1.2.8 0 1.5.1 2.2 0 .1-.1.1-.2.1-.2-.3-.1-.4-.3-.5-.6 0-.2-.1-.4-.1-.6v-1.8c.2-.4.4-.8.6-1.3.3-.5.6-1.2 1-1.6l.5-.5c.2-.1.3-.2.5-.3V48l-.1-.1h-2.1c-.1.1-.1.1-.1.2.2.2.2.4.3.5 0 .3-.7 1.8-.9 2l-.6-.9c-.1-.3-.4-.7-.4-1v-.3c.1-.2.3-.3.5-.4 0-.1 0-.1-.1-.2h-2.8c-.1.1-.1.2-.1.3.3.1.5.2.7.4.4.3.6.8.9 1.2 0 0 1 1.7 1.1 1.9v1.7c0 .2 0 .3-.1.5 0 .1-.1.2-.1.3-.1.2-.3.5-.5.7z"/><path class="st4" d="M157.6 108.5s.1.5.6 1.3.6 1.4.6 1.4l.5-1.3.3-3-1-3.6-1 1v4.2zM155.5 136.9s1.8 0 2.4-.2c.6-.2 1-4.1 1-4.1l-1.7-6.2-3-6.5-2 3.5-2.4 3.4-.9 3.8.8 3.5 1.2 2.7s1.6-.1 2.2-.1c.6 0 2.4.2 2.4.2z"/><path class="st2" d="M150.5 100.1c0 1.5.5 2.3.6 3.8 0 .2.1.4 0 .6 0 0 .1.1.1 0 .1-.3.3-.4.4-.6.2-.3.3-.5.4-.8.1-.3.2-.5.2-.9.1-.5.1-1 .1-1.4.1-.5 0-1.2 0-1.8 0-.7 0-1.4.2-2.3.1-.6.3-.9.5-1.4.1-.2.3-.5.2-.5-.1-.1-.3.1-.4.1-1.7 1-2.4 2.7-2.4 4.8.1.3.1.3.1.4zM159.3 98.8c-1.6 1.2-2.3 2.9-2.5 5.1-.1 1 0 1.6.2 2.7.1.2.1.4.2.6.1.5.2.9.4 1.3 0 .1.1.1.1 0 0-.8-.1-1.5.1-2.5.1-.7.3-1.3.6-1.8 0 0 .1.1.1.2.3.8.5 1.5.6 2.6.2 1.6.1 2.8-.3 4.1 0 .1.1.2.2.1.8-.9 1.2-1.8 1.5-3.1.3-1.2.2-2 0-3.2-.3-1.4-.8-2.1-.9-3.4-.1-1-.1-1.7.2-2.6 0-.1 0-.1-.1-.1-.1-.2-.3 0-.4 0z"/><path class="st2" d="M153.8 103.2c-2.7 2.9-2.6 5.7-3.1 9.5-.1.6-.1 1.1-.2 1.6-.7-.7-1.6-1.1-2.6-1 0 .1 0 .1.1.2.9 1.5.9 3.6.4 5.3-.2 1-.6 1.9-1 2.8-.2.6-.5 1.2-.7 1.9-.5 1.4-.7 3-.8 4.5 0 2.1.4 4.3 1.7 6 .3.5.7.9 1 1.3.5.4 1 .9 1.6 1.2.3.1.6.3.9.3-.5-1.1-1.2-2.3-1.3-3.6-.1-.8-.2-1.6-.1-2.4.1-1.8.8-3.4 1.8-4.9.9-1.2 1.8-2.4 2.3-3.7.4 1.6 1 3.3 1.9 4.7.3.5.7 1 .9 1.5.8 1.2 1.4 2.5 1.7 4 .2 1.5.1 3.1-.7 4.3 0 .1.1 0 .1.1 1.4-.2 2.6-1.2 3.5-2.3 1.7-2.2 2.2-4.9 2-7.6 0-1.1-.1-2.1 0-3.2.1-1.4.3-2.8.9-4l-.1-.1c-.7.2-1.4.5-2 1-.7.5-1.2 1-1.7 1.7.1-3.1-1.1-6.2-2.4-9-.5-1.2-1.1-2.3-1.6-3.4-1-2.2-1.9-4.6-1.8-7.2v-.2c-.2 0-.4.4-.7.7z"/><path class="st4" d="M153.6 108.8c-.5 2.8-1 5.7-1.9 8.3-.4 1.3-.9 2.5-1.4 3.8-.7 1.7-1.5 3.3-2.1 5.1-.7 2.2-.6 4.7.2 6.8.2.5.5 1.1.8 1.5 0-.3-.2-.6-.2-.9-.6-2.6-.4-4.3.4-6.9.3-.9.6-1.4 1-2.3.4-.8.7-1.3 1.2-2.1.1-.1.1-.2.2-.3.3-.4.5-.7.7-1.1.3-.5.4-.8.6-1.4.5-1.2.8-2.2.8-3.3 0-.1.1 0 .1 0 .9 1 1.4 2.2 1.7 3.4.2 1 .5 2 .7 3 .5 1.6 1.2 3.1 1.9 4.5 1 2.3 1.7 5 1.2 7.6v-.1h.1c.6-.6 1-1.3 1.3-2.1.4-.8.5-1.7.7-2.7.3-1.8 0-3.6-.4-5.4-.4.3-.7.7-1 1.1-.2.3-.3.6-.5.8h-.1c-.1-2.3-.9-4.3-1.7-6.4-.4-.9-.8-1.9-1.2-2.8-.5-1-1-2-1.4-2.9-.8-1.6-1.5-3.4-1.7-5.2z"/><path class="st2" d="M153.7 126.6c-1.9 1.6-2.5 4.3-2.2 6.7.2.8.4 1.5.7 2.2.3.5.6 1 1.1 1.3 0-.1.2-.1.1-.2-.3-.7-.5-1.5-.5-2.2 0-1.1.2-2.2.8-3 .1-.1.1-.2.2-.2.1.8.6 1.5 1 2.3.2.4.4.8.5 1.3.1.5.1 1.1.1 1.6-.1.2-.1.4-.1.5.3 0 .4-.2.6-.4.2-.2.3-.4.5-.6.5-.9.5-1.6.4-2.6 0-.4-.1-.6-.2-1-.3-1.1-.7-1.6-1.3-2.6-.6-1-1.2-1.4-1.4-2.4 0-.2-.1-.6-.1-.6-.1-.3-.2-.2-.2-.1z"/><path class="st3" d="M148.8 145.4c.1-1.4 1.7-1.3 3.2-1.4v-1.9h4.2c0 .7-.1 1.5.1 2 1.3-.2 2.9-.1 3.1 1 .4 1.8-1.5 2.2-3.2 2v2.9c-1.5 0-2.9-.1-4.1-.3-.2-.7 0-1.7-.1-2.5-1.8.1-3.3-.4-3.2-1.8zm-104.3 0c-.1-1.4-1.7-1.3-3.2-1.4v-1.9h-4.2c0 .7.1 1.5-.1 2-1.3-.2-2.9-.1-3.1 1-.4 1.8 1.5 2.2 3.2 2v2.9c1.5 0 2.9-.1 4.1-.3.2-.7 0-1.7.1-2.5 1.8.1 3.3-.4 3.2-1.8zm-7.4-4.3c1.3-.1 3-.1 4.4 0 .5-1.3 1.6-2.2 2.9-2.8-.4-.5-1.3-.5-2.1-.7-2-.4-4.6-.4-6.5 0-.7.1-1.4.2-1.9.6 1.3.6 2.4 1.6 3.2 2.9zm119.1 0c-1.3-.1-3-.1-4.4 0-.5-1.3-1.6-2.2-2.9-2.8.4-.5 1.3-.5 2.1-.7 2-.4 4.6-.4 6.5 0 .7.1 1.4.2 1.9.6-1.4.6-2.4 1.6-3.2 2.9z"/></svg>