<svg version="1.1" id="Layer_1" xmlns="http://www.w3.org/2000/svg" x="0" y="0" viewBox="0 0 192.8 192.8" style="enable-background:new 0 0 192.8 192.8" xml:space="preserve"><style>.st0,.st1,.st2,.st4,.st5,.st6{fill-rule:evenodd;clip-rule:evenodd;fill:#fff}.st1,.st2,.st4,.st5,.st6{fill:#195f94}.st2,.st4,.st5,.st6{fill:#f8c710}.st4,.st5,.st6{fill:#1d1d1b}.st5,.st6{fill:#e12722}.st6{fill:#362882}</style><path class="st0" d="M31.2 124.2c0 35.8 29 64.9 64.9 64.9 35.8 0 64.9-29 64.9-64.9 0-35.8-29-64.9-64.9-64.9-35.9.1-64.9 29.1-64.9 64.9z"/><path class="st1" d="M144.3 153.7c-12.5-12.3-65.4-65.5-76.9-76.8-11.1 5.5-17.7 15.7-23.1 26.7 12.8 12.7 66.6 61.8 76.5 71.5 7.9-3.9 17.2-10.3 23.5-21.4z"/><path class="st1" d="M143.9 154C131.4 141.7 78.5 88.6 67 77.2c-11.1 5.5-17.7 15.7-23.1 26.7 12.8 12.7 66.6 61.8 76.5 71.5 7.9-3.8 17.2-10.2 23.5-21.4z"/><path class="st2" d="M96.4 56.3c-37.8 0-68.5 30.5-68.5 67.9 0 37.5 30.7 68 68.5 68s68.5-30.5 68.5-68c0-37.4-30.7-67.9-68.5-67.9zm-.2 127.4c-32.7 0-59.3-26.5-59.3-59.3 0-32.7 26.5-59.3 59.3-59.3 32.7 0 59.3 26.5 59.3 59.3 0 32.7-26.5 59.3-59.3 59.3z"/><path class="st1" d="M27.3 124.2c0 37.8 31 68.6 69.1 68.6 38.1 0 69.1-30.8 69.1-68.6s-31-68.5-69.1-68.5c-38.1 0-69.1 30.7-69.1 68.5zm1.2 0c0-37.1 30.5-67.3 67.9-67.3 37.4 0 67.9 30.2 67.9 67.3 0 37.1-30.4 67.4-67.9 67.4-37.4 0-67.9-30.2-67.9-67.4z"/><path class="st1" d="M36.3 124.4c0 33 26.9 59.9 59.9 59.9s59.9-26.9 59.9-59.9-26.9-59.9-59.9-59.9-59.9 26.8-59.9 59.9zm1.2 0c0-32.4 26.3-58.7 58.7-58.7 32.4 0 58.7 26.3 58.7 58.7 0 32.4-26.3 58.7-58.7 58.7-32.4 0-58.7-26.4-58.7-58.7z"/><path class="st2" d="M151.9 124.2c0-19.1-10.2-37-26.7-47-1.8 1.7-10 9.5-10 9.5l-4.8 4.6-.3.3-.4-.1c-4.2-1.7-8.7-2.6-13.4-2.6-4.1 0-10 .9-14 2.9l-.3.2-.3-.3c-4-3.8-5.8-5.6-14.5-14.2-16.5 10.1-26.3 27.5-26.3 46.7 0 12 4.1 23.6 11.3 33l5.5-5.2c-5.9-8-9.1-17.7-9.1-27.9 0-13.9 6.1-27 16.8-36.1l.6-.5.6.5c3 2.6 5.4 4.9 7.9 7.4l.5.6-.5.4c-8.5 6.9-13.7 17.6-13.7 27.8 0 16 11 30.1 26.7 34.1l.5.1v13.2h7.4v-12.2h1c8.9 0 17.4-3.3 23.9-9.2-.7-.7-4.9-4.8-5.5-5.4-5 4.5-11.5 7.1-18.4 7.1h-1.1V143h6.7v-7.8h-6.9v-5.9h8.6v-7.4H87.2v28.5l-.8-.3c-10.7-4.1-17.8-14.4-17.8-25.8 0-9.3 4.1-17.3 11.5-22.5l.4-.3.4.4c3.2 3.2 7.8 7.6 15.1 14.3.7-.7 15.6-15 15.6-15l.4.3c1.3.8 2.4 1.8 3.5 2.8.6-.6 4.8-4.6 5.6-5.3-1-1-2.1-1.9-3.2-2.8l-.6-.4 8.8-8.6.7.6c11.1 9.1 17.4 22.5 17.4 36.6 0 10.2-3.5 20.2-9.7 28.3l5.6 5.3c7.5-9.7 11.8-21.5 11.8-33.8zm-56.1-19.9-6-5.6-.5-.5c2.1-.8 5-1 7-1 2.1 0 4.1.2 6.1.7-1.8 1.8-6.6 6.4-6.6 6.4z"/><path d="m125.4 75.9-.4-.2-.3.3-8.9 8.5-1.5 1.5v-.1s-4 3.9-4.5 4.3c-4.3-1.7-8.8-2.5-13.4-2.5-5 0-10.4 1.1-14.2 2.9-3.8-3.6-5.8-5.5-14.6-14.3l-.3-.3-.4.2c-17 10.3-27.2 28.3-27.2 48 0 12.7 4.5 25 12.3 34.8l.4-.4 6.5-6.1.4-.4c-6.1-8-9.5-17.7-9.5-28 0-13.5 5.9-26.2 16.2-35 2.8 2.4 4.9 4.5 7.3 6.8-8.4 7.2-13.6 17.9-13.6 28.3 0 16.4 11.1 30.8 27.1 35.1v13.5h9.8v-12.2c9.3 0 18.2-3.6 25-10l.5-.4-7.2-7.1-.4.4c-4.8 4.6-11.2 7.1-17.9 7.1V144h6.7v-10.2h-6.9v-3.5h8.6v-9.8H86.1V148.4c-9.7-4.1-16.2-13.8-16.2-24.3 0-8.7 3.8-16.2 10.6-21.2 3.2 3.2 7.9 7.7 15.2 14.3l.4.4s15.1-14.5 15.7-15.1c1.2.8 2.4 1.8 3.4 2.8l.4.4 7.3-6.9-.4-.4c-1-1-2.1-2-3.2-2.9.8-.8 6.4-6.2 7.1-6.8 10.7 8.9 16.8 21.8 16.8 35.5 0 10.3-3.6 20.4-10.1 28.4l.3.2.2.2.4.4 6 5.7.5.4c8.1-9.9 12.8-22.4 12.8-35.4-.2-19.6-10.8-38.1-27.9-48.2zm14.8 81.9-5.6-5.3c6.2-8.1 9.7-18.1 9.7-28.3 0-14.1-6.4-27.4-17.4-36.6l-.7-.6-8.8 8.6.6.4c1.1.9 2.2 1.8 3.2 2.8-.7.7-4.9 4.7-5.6 5.3-1.1-1-2.3-2-3.5-2.8l-.4-.3s-14.9 14.3-15.6 15c-7.3-6.6-11.9-11.1-15.1-14.3l-.4-.4-.4.3c-7.4 5.2-11.5 13.2-11.5 22.5 0 11.3 7.2 21.7 17.8 25.8l.8.3v-28.5h16.5v7.4h-8.6v5.9h6.9v7.8h-6.7v8.9h1.1c6.8 0 13.3-2.5 18.4-7.1.6.6 4.8 4.7 5.5 5.4-6.6 5.9-15 9.2-23.9 9.2h-1v12.2h-7.4v-13.2l-.5-.1c-15.7-4-26.7-18.1-26.7-34.1 0-10.2 5.3-20.8 13.7-27.8l.4-.2-.5-.5c-2.6-2.5-4.9-4.8-7.9-7.4l-.6-.5-.6.5c-10.7 9.1-16.8 22.2-16.8 36.1 0 10.2 3.2 19.9 9.1 27.9l-5.5 5.2c-7.2-9.4-11.3-21-11.3-33 0-19.1 9.8-36.6 26.2-46.7 8.7 8.7 10.6 10.4 14.5 14.2l.4.2.4-.2c4.1-2 10-2.9 14-2.9 4.6 0 9.1.9 13.4 2.6l.4.1.3-.3 4.8-4.6s8.2-7.8 10-9.5c16.5 10 26.7 28 26.7 47-.1 12.3-4.4 24.1-11.8 33.6z" style="fill:#195f94"/><path class="st1" d="m89.2 97.6-.9.3 1.2 1.1 6.4 6 8-7.6-1.1-.2c-2.1-.5-4.2-.7-6.3-.7-1.4.1-4.8.2-7.3 1.1zm7.2.2c1.6 0 3.3.2 4.9.5-1.2 1.1-4.9 4.6-5.5 5.2-.7-.6-4.9-4.6-5.3-5 2.2-.7 4.8-.7 5.9-.7z"/><path class="st4" d="M130.3 53.6c0-.1-.1-.1-.2-.2-11.5-5.1-22.8-7.7-33.7-7.7-10.9.1-22.3 2.6-33.7 7.7-.1 0-.1.1-.2.2v.2l.8 1.6-.1 2.3c0 .1 0 .2.1.3l1.8 1.2.9 1.9c.1.1.2.2.4.1 10.3-4.7 20.1-6.9 30-6.8 9.9-.1 19.7 2.1 30 6.8.1.1.3 0 .4-.1l.9-1.9 1.8-1.3c.1-.1.1-.2.1-.3l-.2-2.1.8-1.7c.1-.1.1-.2.1-.2z"/><path class="st1" d="M62.6 53.3c-.1 0-.2.1-.2.2v.4s.7 1.5.7 1.6c0 .1-.1 2.3-.1 2.3 0 .1.1.3.2.4 0 0 1.7 1.1 1.7 1.2 0 .1.9 1.9.9 1.9.1.2.4.3.6.2 10.3-4.7 20.1-6.9 30-6.8 9.9-.1 19.7 2.1 29.9 6.8.2.1.5 0 .6-.2 0 0 .9-1.8.9-1.9.1 0 1.7-1.2 1.7-1.2.1-.1.2-.2.2-.4 0 0-.2-2-.2-2.1 0-.1.8-1.7.8-1.7v-.4c0-.1-.1-.2-.2-.2-11.5-5.1-22.8-7.7-33.7-7.7-10.9-.1-22.3 2.5-33.8 7.6zm3.5 7.7-.9-1.9-1.8-1.2-.1-.1.1-2.4-.8-1.6v-.1s0-.1.1-.1c11.4-5.1 22.8-7.6 33.7-7.7 10.9.1 22.2 2.6 33.6 7.7 0 0 .1 0 .1.1v.1l-.8 1.7.2 2.2s0 .1-.1.1l-1.8 1.3-.9 2c0 .1-.1.1-.2.1-10.3-4.7-20.1-6.9-30.1-6.8-10-.1-19.8 2.1-30.1 6.8 0-.1-.1-.1-.2-.2z"/><path class="st5" d="M126.7 56.4c.2.4.7 1.6.9 2.1.4-.3 1.2-.9 1.4-1 0-.2-.1-1.3-.1-1.7-.5.1-1.8.5-2.2.6z"/><path class="st1" d="m128.8 55.6-2.3.7 1 2.4 1.6-1.1-.1-2h-.2zm-.4.5s.2-.1.4-.1c0 .3.1 1.3.1 1.5-.1.1-1 .7-1.2.8-.1-.2-.7-1.5-.8-1.7.3-.2 1.5-.5 1.5-.5z"/><path class="st2" d="M126 56.1c0-.1.1-.1.2-.2l2.7-.8c.3-.7.6-1.2.6-1.3-11.3-4.9-22.4-7.5-33.2-7.5-10.8.1-21.9 2.6-33.2 7.5.1.1.3.6.6 1.3l2.7.9c.1 0 .1.1.2.2v.2l-1.1 2.5c.4.9.7 1.5.8 1.7 10.3-4.6 20.1-6.8 30-6.7 9.9-.1 19.7 2.1 30 6.7.1-.1.4-.8.8-1.6l-1.1-2.6v-.3z"/><path class="st1" d="M63.2 53.7H63l.7 1.5 2.8 1s.1 0 .1.1v.1l-1.1 2.5.9 1.9.1-.1c10.2-4.6 20-6.8 29.9-6.7 9.9-.1 19.7 2.1 29.9 6.7l.1.1.9-1.8-1.1-2.6v-.2s0-.1.1-.1l2.8-.9.7-1.5-.1-.1c-11.3-5-22.5-7.5-33.2-7.6-10.8.2-22 2.7-33.3 7.7zm33.2-7.3c10.6.1 21.7 2.6 33 7.5-.1.2-.5 1-.5 1.1-.1 0-2.7.8-2.7.8-.1 0-.2.1-.3.2v.4s1 2.4 1.1 2.5c-.1.1-.7 1.4-.7 1.4-10.2-4.6-20-6.8-29.9-6.7-9.9-.1-19.7 2-29.9 6.7 0-.1-.6-1.4-.7-1.5.1-.1 1.1-2.4 1.1-2.4V56c0-.1-.1-.2-.3-.2 0 0-2.6-.9-2.7-.9 0-.1-.5-1-.5-1.1 11.2-4.8 22.4-7.3 33-7.4z"/><path class="st4" d="M87.1 48.5c-1.1 0-2.1.9-2.1 2s.9 2.1 2.1 2.1c1.2 0 2.1-.9 2.1-2.1-.1-1.1-1-2-2.1-2z"/><path class="st1" d="M84.8 50.5c0 1.2 1 2.2 2.2 2.2 1.2 0 2.2-1 2.2-2.2 0-1.2-1-2.2-2.2-2.2-1.1 0-2.2 1-2.2 2.2zm.3 0c0-1 .9-1.9 1.9-1.9 1.1 0 1.9.8 1.9 1.9 0 1.1-.9 1.9-1.9 1.9-1 0-1.9-.9-1.9-1.9z"/><path class="st4" d="M123.4 53.2c-1 0-1.9.8-1.9 1.9 0 1 .8 1.9 1.9 1.9 1 0 1.9-.8 1.9-1.9 0-1.1-.9-1.9-1.9-1.9z"/><path class="st1" d="M121.3 55.1c0 1.1.9 2 2 2s2-.9 2-2-.9-2-2-2c-1 0-2 .9-2 2zm.3 0c0-.9.8-1.7 1.7-1.7.9 0 1.7.8 1.7 1.7 0 1-.8 1.7-1.7 1.7-.9 0-1.7-.8-1.7-1.7z"/><path class="st4" d="M105.7 48.5c-1.1 0-2.1.9-2.1 2 0 1.2.9 2.1 2.1 2.1 1.1 0 2.1-.9 2.1-2.1 0-1.1-.9-2-2.1-2z"/><path class="st1" d="M103.5 50.5c0 1.2 1 2.2 2.2 2.2 1.2 0 2.2-1 2.2-2.2 0-1.2-1-2.2-2.2-2.2-1.2 0-2.2 1-2.2 2.2zm.3 0c0-1 .9-1.9 1.9-1.9 1 0 1.9.9 1.9 1.9 0 1.1-.9 1.9-1.9 1.9-1 0-1.9-.8-1.9-1.9z"/><path class="st0" d="M87.1 49c-.8 0-1.5.7-1.5 1.4 0 .8.7 1.5 1.5 1.5s1.5-.7 1.5-1.5c0-.7-.7-1.4-1.5-1.4z"/><path class="st1" d="M85.4 50.5c0 .9.7 1.6 1.6 1.6.9 0 1.7-.7 1.7-1.6 0-.9-.8-1.6-1.7-1.6-.8 0-1.6.7-1.6 1.6zm.3 0c0-.7.6-1.3 1.3-1.3.7 0 1.4.6 1.4 1.3 0 .7-.6 1.3-1.4 1.3-.7 0-1.3-.6-1.3-1.3z"/><path class="st0" d="M123.4 53.8c-.7 0-1.3.6-1.3 1.3 0 .7.6 1.3 1.3 1.3.7 0 1.3-.6 1.3-1.3 0-.7-.6-1.3-1.3-1.3z"/><path class="st1" d="M121.9 55.1c0 .8.7 1.5 1.5 1.5s1.4-.6 1.4-1.5c0-.8-.6-1.4-1.4-1.4-.8-.1-1.5.6-1.5 1.4zm.3 0c0-.6.5-1.1 1.2-1.1.6 0 1.1.5 1.1 1.1 0 .6-.5 1.2-1.1 1.2-.6-.1-1.2-.6-1.2-1.2z"/><path class="st0" d="M105.7 49c-.8 0-1.5.6-1.5 1.4 0 .8.6 1.5 1.5 1.5.8 0 1.5-.6 1.5-1.5 0-.7-.7-1.4-1.5-1.4z"/><path class="st1" d="M104.1 50.5c0 .9.7 1.6 1.6 1.6.9 0 1.6-.7 1.6-1.6 0-.9-.7-1.6-1.6-1.6-.9 0-1.6.7-1.6 1.6zm.3 0c0-.7.6-1.3 1.3-1.3.7 0 1.3.6 1.3 1.3 0 .7-.6 1.3-1.3 1.3-.7 0-1.3-.5-1.3-1.3z"/><path class="st4" d="m83.6 50.8-6-.8c-.1 0-.2 0-.2.1l-5 3.7c-.1.1-.1.2-.1.3 0 .1.1.2.2.2l6 .8c.1 0 .2 0 .2-.1l5-3.7c.1-.1.1-.2.1-.3.1-.1 0-.2-.2-.2z"/><path class="st1" d="m77.3 49.9-5 3.7c-.1.1-.2.3-.2.5s.2.3.4.3l6 .8c.1 0 .2 0 .3-.1l5-3.7c.1-.1.2-.3.2-.5s-.2-.3-.4-.3l-6-.8c-.1 0-.2 0-.3.1zm1.3 5.1-6-.8c-.1 0-.1 0-.1-.1s0-.1.1-.1l5-3.7h.1l6 .8c.1 0 .1.1.1.1s0 .1-.1.1l-5 3.7h-.1z"/><path class="st4" d="m120.5 53.8-5-3.7c-.1 0-.1-.1-.2-.1l-6 .8c-.1 0-.2.1-.2.2s0 .2.1.3l5 3.7c.1 0 .1.1.2.1l6-.8c.1 0 .2-.1.2-.2.1-.1 0-.2-.1-.3z"/><path class="st1" d="m115.3 49.9-6 .8c-.2 0-.3.2-.4.3 0 .2 0 .4.2.5l5 3.7c.1.1.2.1.3.1l6-.8c.2 0 .3-.2.4-.3 0-.2 0-.4-.2-.5l-5-3.7c0-.1-.2-.1-.3-.1zm-1.1 5.1-5-3.7-.1-.1c0-.1.1-.1.1-.1l6-.8h.1l5 3.7.1.1c0 .1-.1.1-.1.1l-6 .8h-.1z"/><path class="st6" d="M78.6 54.6c.2-.1 3.4-2.6 4.3-3.2-1.1-.1-5-.7-5.2-.7-.2.1-3.4 2.6-4.3 3.2 1 .1 5 .6 5.2.7z"/><path class="st1" d="M77.6 50.5 73 53.9l5.6.8 4.6-3.5-5.6-.7zm.1.2c.1 0 4.2.6 4.8.7-.4.3-3.9 2.9-4 3-.1 0-4.2-.6-4.8-.7.5-.4 3.9-2.9 4-3z"/><path class="st6" d="M110.1 51.3c.9.7 4.1 3.1 4.3 3.2.2 0 4.2-.6 5.2-.7-.9-.7-4.1-3.1-4.3-3.2-.2 0-4.1.6-5.2.7z"/><path class="st1" d="m115.3 50.5-5.6.8 4.6 3.5 5.7-.8-4.7-3.5zm-2 .5s1.9-.3 2-.3c.1.1 3.5 2.6 4 3-.6.1-4.7.7-4.8.7-.1-.1-3.6-2.7-4-3 .5 0 2.8-.4 2.8-.4z"/><path class="st4" d="m101.8 49.7-5.3-2.2h-.2L91 49.7c-.1 0-.2.1-.2.3 0 .1.1.2.2.3l5.3 2.4h.2l5.3-2.4c.1 0 .2-.2.2-.3 0-.1-.1-.2-.2-.3z"/><path class="st1" d="m96.2 47.4-5.3 2.2c-.2.1-.3.2-.3.4s.1.3.3.4l5.3 2.4c.1.1.2.1.4 0l5.3-2.4c.2-.1.3-.2.3-.4s-.1-.3-.3-.4l-5.3-2.2c-.2-.1-.3-.1-.4 0zm.1 5.1L91 50.1c-.1 0-.1-.1-.1-.1 0-.1 0-.1.1-.1l5.3-2.2h.1l5.3 2.2c.1 0 .1.1.1.1 0 .1 0 .1-.1.1l-5.3 2.4c0 .1-.1.1-.1 0zm5.6-2.9z"/><path class="st5" d="M91.8 50c.9.4 4.4 2 4.6 2.1.2-.1 3.7-1.7 4.6-2.1-.9-.4-4.4-1.8-4.6-1.9-.2.1-3.7 1.5-4.6 1.9z"/><path class="st1" d="m96.3 48-4.9 2 5 2.3 5-2.3-5.1-2zm.1.3c.1 0 3.7 1.6 4.2 1.8-.5.2-4.1 1.9-4.2 1.9-.1-.1-3.7-1.7-4.2-1.9.5-.3 4.1-1.8 4.2-1.8z"/><path class="st1" d="M142.4 39.6c.6-.5.9-1.3.9-2.1 0-.2 0-.5-.1-.7-.2-1-1-1.8-2-2.2.6-.6.8-1.4.8-2.1 0-.6-.2-1.1-.4-1.6-.5-1-1.5-1.7-2.5-1.7.3-.5.5-1.1.5-1.6 0-.7-.2-1.4-.6-1.9-.7-1.2-2-1.7-3.2-1.4.1-.2.1-.5.1-.7 0-.8-.3-1.5-.9-2.1-1-.9-2.5-1.2-3.8-.8v-.2c0-.9-.5-1.8-1.3-2.3-.9-.6-2.3-.8-3.6-.1-.5-1.2-1.5-2-2.7-2.2-1.3-.1-2.5.5-3.2 1.5-.4-.5-1.1-.9-2-.9.1-.3.1-.5.1-.8 0-.9-.4-1.7-1.1-2.4-.8-.7-2.1-1.1-3.6-.4-.1-1.9-1.1-2.7-1.7-3-1.1-.5-2.4-.4-3.4.3-.3-1.1-1-1.9-2.1-2.2-1.1-.3-2.2-.1-3.1.6-.2-.6-.8-1.2-1.5-1.5-1-.4-2-.3-2.8.3-.2-1-.8-1.6-1.8-1.7V4.1h1.8V1.7h-1.8V0H95v1.7h-1.8v2.4H95v1.6c-1 .1-1.6.8-1.8 1.7-.8-.6-1.8-.7-2.8-.2-.8.3-1.3.9-1.5 1.5-.9-.7-2-1-3.1-.6-1.1.3-1.8 1.2-2.1 2.2-1-.7-2.3-.8-3.5-.2-1.1.6-1.7 1.6-1.7 2.9v.1c-1.4-.6-2.8-.2-3.6.5-.7.6-1.1 1.5-1.1 2.3 0 .3.1.6.1.8-.9 0-1.6.4-2 .9-.8-1-1.9-1.6-3.2-1.5-.7.1-1.7.9-2.3 2.1-1.3-.8-2.7-.6-3.6.1-.8.6-1.3 1.4-1.3 2.3v.3c-1.3-.4-2.8-.2-3.8.8-.6.6-1 1.3-1 2.1 0 .2 0 .5.1.7-1.3-.3-2.5.2-3.2 1.4-.3.5-.6 1.2-.6 1.9 0 .5.1 1.1.5 1.6-1.1 0-2 .8-2.5 1.7-.2.4-.4 1-.4 1.6 0 .7.2 1.4.8 2.1-1 .3-1.7 1.1-2 2.1-.1.3-.1.5-.1.8 0 .8.3 1.5.9 2.1-1.1 1.5-1.7 3.1-1.7 4.6 0 .8.2 1.6.6 2.4 1.1 2 3.5 3.1 6.6 2.9.5.4.9.6 1.3.8.3.2.6.3 1 .6.5.2 1 .3 1.6.3.7 0 1.4.1 2.2.5l.1.1.1-.1c11.6-5.2 23.1-7.9 34.3-8 11.2.1 22.7 2.7 34.2 8l.1.1.1-.1c.7-.4 1.5-.4 2.2-.5.6 0 1.1-.1 1.6-.3.4-.3.7-.5 1.1-.6.4-.2.8-.4 1.3-.8 3.1.2 5.5-.9 6.6-2.9.4-.7.6-1.5.6-2.4 0-1.6-.6-3.2-1.7-4.8zm-18.2-13.9c.1-.2.1-.4.1-.6 0-.2 0-.3-.1-.5 4.3 1.6 7.1 4 8.8 8-2.5-1.4-4.8-2.3-7.4-3.1-.1-1.3-1-2.5-2.1-3 .3-.1.5-.4.7-.8zm-24.1-10.1c0-.2 0-.4-.1-.5 4.8.7 14.1 3.1 16.2 11.3-5.1-2.4-8.9-3.9-16-1.8-.2-.6-.6-1.1-1.1-1.5.6-.5.9-1.2 1-2v-.4c0-1-.4-2-1.1-2.9.8-.8 1.1-1.5 1.1-2.2zm-7.3-.5c0 .2-.1.4-.1.6 0 .7.3 1.4 1.1 2.2-.7.9-1.1 2-1.1 2.9v.4c.1.8.4 1.4 1 1.9-.5.4-.9.9-1.1 1.5-7.1-2-11-.6-16 1.8 2.1-8.3 11.4-10.7 16.2-11.3zm-24.2 9.6c0 .2-.1.3-.1.5s0 .4.1.6c.1.3.4.6.7.9-1.2.5-2 1.7-2.2 3-2.6.7-4.9 1.6-7.4 3 1.8-4 4.6-6.4 8.9-8z"/><path class="st1" d="m123.9 24.7.1.4c0 .2 0 .3-.1.5-.1.3-.3.5-.6.8l-.4.3.5.2c1.1.5 1.9 1.5 2 2.7v.2l.2.1c2.8.8 5.1 1.7 7.3 3l.8.4-.3-.8c-1.7-3.9-4.5-6.5-9-8.1l-.5-.2v.5zm.5 1.1c.1-.2.1-.4.1-.7 3.7 1.4 6.2 3.6 7.8 6.8-2-1.1-4-1.9-6.5-2.6-.2-1.2-.9-2.2-1.9-2.8.3-.2.4-.4.5-.7zM99.7 15.1v.5c0 .7-.3 1.3-1 1.9l-.2.2.2.2c.7.9 1.1 1.8 1.1 2.7v.3c-.1.7-.4 1.3-.9 1.8l-.2.3.3.2c.4.3.8.8 1 1.3l.1.3.3-.1c7-2 10.8-.6 15.8 1.8l.6.3-.2-.6c-2.1-8.2-11.2-10.7-16.5-11.5l-.4-.1v.5zm.7.5v-.2c5 .8 13.1 3.1 15.4 10.3-4.7-2.2-8.6-3.5-15.4-1.6-.2-.4-.5-.8-.8-1.1.5-.6.8-1.2.9-1.9v-.4c0-1-.4-2-1-2.9.5-.7.9-1.4.9-2.2zM92.7 14.8c-5.2.7-14.3 3.2-16.5 11.5l-.2.6.6-.3c5-2.4 8.8-3.8 15.8-1.8l.3.1.1-.3c.2-.5.5-1 1-1.3l.3-.2-.3-.2c-.4-.6-.8-1.2-.8-1.9v-.3c0-.9.4-1.9 1.1-2.8l.2-.2-.3-.2c-.7-.6-1-1.3-1-1.9l.1-.9-.4.1zm-.3.6v.2c0 .8.3 1.5 1 2.2-.7.9-1 1.9-1 2.9v.4c.1.7.4 1.3.9 1.9-.3.3-.6.7-.8 1.1-6.8-1.9-10.6-.6-15.4 1.6 2.3-7.1 10.4-9.5 15.3-10.3z"/><path class="st1" d="m99.9 15.1.1.5c0 .7-.3 1.4-1 2.1l-.1.1.1.1c.7.9 1.1 1.9 1.1 2.8v.3c-.1.7-.4 1.3-.9 1.9l-.3.1.1.1c.5.4.9 1 1.1 1.7v.1h.1c7-2 10.7-.6 15.9 1.9l.3.1-.1-.3c-1.9-8.4-11.1-11-16.4-11.7h-.2l.2.2zm.3.5v-.4c5.2.8 13.9 3.3 15.9 11.2-5-2.4-8.8-3.7-15.7-1.8-.2-.6-.6-1.2-1-1.6.5-.6.8-1.2.9-1.9v-.4c0-1-.4-2-1.1-2.9.7-.7 1-1.4 1-2.2zM92.7 14.9c-5.3.8-14.5 3.3-16.4 11.8l-.1.3.3-.1c5.2-2.5 8.9-3.9 15.9-1.9h.1v-.1c.2-.7.6-1.3 1.1-1.7l.1-.1-.1-.1c-.6-.5-.9-1.1-1-1.9v-.4c0-.9.4-2 1.1-2.8l.1-.1-.1-.1c-.7-.7-1-1.3-1-2l.1-.7-.1-.1zm-.1.3v.4c0 .8.3 1.5 1 2.2-.7.9-1.1 2-1.1 2.9v.4c.1.7.4 1.4.9 1.9-.5.4-.9 1-1.1 1.6-6.9-1.9-10.7-.5-15.7 1.8 2.1-7.9 10.8-10.4 16-11.2zM124 24.7l.1.4c0 .2 0 .4-.1.5-.1.3-.3.6-.7.8l-.2.2.2.1c1.2.5 2 1.7 2.1 3v.3h.1c2.9.8 5.2 1.8 7.5 3.2l.4.2-.2-.4c-1.6-4.1-4.5-6.8-9.1-8.5l-.2-.1.1.3zm.3 1.1c.1-.2.1-.4.1-.6V25c4.2 1.6 6.9 4.1 8.5 7.8-2.2-1.3-4.4-2.2-7.1-3v-.1c-.1-1.3-.9-2.6-2.1-3.1.3-.3.5-.5.6-.8z"/><path class="st2" d="m141.8 39.8-.2-.2.2-.2c.7-.5 1-1.4.8-2.4-.2-.8-.8-1.7-2-1.9l-.6-.1.5-.4c1.2-1 1.1-2.4.7-3.2-.5-.9-1.4-1.6-2.6-1.3l-1.1.3.8-.8c1-1 .9-2.4.3-3.4-.5-.8-1.6-1.6-3.1-1l-.6.2.3-.6c.4-1 .2-2-.5-2.7-.9-.9-2.4-1.1-3.6-.5l-.6.3.2-.6c.3-1-.1-1.9-.9-2.4-.8-.6-2.1-.7-3.2.1l-.3.2-.1-.4c-.4-1.2-1.3-2-2.4-2.1-1.2-.1-2.3.5-2.9 1.6l-.3.5-.2-.5c-.2-.5-1-1.1-2-.9l-.6.1.2-.5c.4-1.1.2-2.2-.7-3-.7-.6-2-1-3.3-.2l-.5.3v-.5c0-1.4-.5-2.4-1.4-2.9-1-.5-2.2-.3-3.2.4l-.4.3-.1-.5a2.567 2.567 0 0 0-4.6-1.3l-.5.6v-.8c0-.6-.5-1.2-1.3-1.6-.4-.2-1.5-.5-2.5.5l-.5.5v-.9c0-1.1-.6-1.7-1.6-1.7h-.3V3.5h1.8V2.3h-1.8V.6h-1.2v1.7h-1.8v1.2h1.8v2.7h-.3c-1 0-1.6.7-1.6 1.7v.7l-.5-.5c-1-1-2.1-.7-2.6-.5-.8.3-1.3 1-1.3 1.6v.8l-.5-.6c-.7-.9-1.8-1.2-2.8-.9-1 .3-1.7 1.1-1.8 2.2l-.1.6-.4-.3c-.8-.8-2.1-.9-3.2-.4s-1.6 1.6-1.4 2.9l.1.6-.5-.4c-1.4-.8-2.6-.4-3.3.2-.9.8-1.1 1.9-.6 3l.2.5-.6-.1c-1.1-.2-1.8.4-2.1.9l-.2.5-.3-.5c-.6-1.1-1.7-1.7-2.9-1.6-1.1.1-2 .9-2.4 2.1l-.1.4-.3-.2c-1.2-.9-2.5-.6-3.2-.1-.9.6-1.2 1.5-1 2.5l.2.6-.6-.3c-1.2-.6-2.6-.4-3.6.5-.8.7-1 1.7-.6 2.7l.3.6-.6-.2c-1.4-.6-2.5.1-3.1 1-.6.9-.8 2.4.3 3.4l.8.8-1.1-.3c-1.1-.3-2.1.4-2.6 1.3s-.6 2.3.7 3.3l.5.4-.6.1c-1 .2-1.7.9-2 1.8-.2.9.1 1.9.8 2.4l.2.2-.2.2c-1.8 2.3-2.3 4.7-1.3 6.6 1 1.8 3.2 2.8 6.1 2.6h.1l.1.1c.5.4.9.6 1.3.8.3.2.7.3 1.1.6.3.2.8.2 1.3.2.7 0 1.5.1 2.3.5 11.6-5.2 23.2-7.9 34.4-8 11.2.1 22.8 2.7 34.3 8 .8-.4 1.6-.5 2.3-.5.5 0 1-.1 1.3-.2.4-.3.8-.5 1.1-.7.4-.2.8-.4 1.3-.8l.1-.1h.1c2.9.2 5.1-.7 6.1-2.6 1-1.8.6-4.2-1.2-6.5zm-19.2-13.4c.4-.2.8-.4 1-.9.1-.3.1-.7-.2-1.2l-.3-.6.7.2c5.3 1.8 8.5 4.7 10.2 9.7.7 1.9 1.1 4.1 1.3 6.7v.4l-.1.1c-2.4 2-2.6 4.2-.7 6.6l.4.5h-.6c-2.4 0-2.6-.1-3.4-1.5l-.4-.8.2-.1c.8-.6 1.2-1.5 1.2-2.5 0-1.7-1.4-3.2-3.2-3.2-1.6 0-3 1.3-3.2 2.9v.2l-.2.1c-1.3.6-2.3.7-3 .4-.7-.3-1.2-1-1.6-2.3l-.1-.3h.3c2.4-.3 4-1.3 4.4-2.7.5-1.5-.4-3.3-2.4-5.1l-.4-.3.5-.2c1.3-.4 2-1.4 1.9-2.6-.1-1.1-.9-2.4-2.3-2.8l-.9-.2.9-.5zm5.7 21.7c-1.5-.6-2.7-1.1-3.9-1.6l-.9-.3 3-.8h.2l.1.1c.3.2.6.4 1.1.5h.2l.9 2.4-.7-.3zm-55.1-3.4.2-.6c.4-1 .8-2 .9-3.2v-.2l.7-.1h.1l.1.1c1.1 1.1 1.7 1.6 3 2.2l.8.4-.8.2c-1.7.4-3.1.7-4.4 1.1l-.6.1zm10.1-2.3.5-.6c.5-.6.7-.8.9-1.6l.1-.2h.2c.7.1 1.4 0 1.9-.1h.2l2.2 1.8-.7.1c-1.4.1-2.8.3-4.5.6h-.8zm11.3-1h-.8l.9-.9c.6-.6.9-1 1.3-1.8l.2-.4.1.1c.1-.2.1-.3.1-.3l.3.6c.4.7.7 1.1 1.1 1.6l1 1.1-1.7-.1h-1.6l-.9.1zm9.1.3 2.1-1.7.1-.1h.2c.5.2 1.2.2 1.9.1h.2l.1.2c.2.8.3 1 .9 1.6l.6.6-.8-.1-4.5-.6h-.8zm9.8 1.6.8-.4c1.4-.6 2-1.2 3.2-2.3l.1-.1.8.2v.2c.1 1.3.5 2.2 1 3.4l.2.6-.6-.2c-1.8-.5-3.3-.9-4.7-1.2l-.8-.2zM98.4 17.9l-.2-.2.2-.2c1.2-1 1.2-1.9.9-2.7l-.1-.4.4.1c5 .6 15.5 3.1 17.3 12.6.3 1.4.3 2.9.2 4.5v.2l-.2.1c-.9.4-2.8 1.2-3.3 2.9-.4 1.3-.1 2.9 1.1 4.7l.1.2-.1.2c-.8 1-2.3 1.1-3.3.7-1-.4-1.6-1.2-1.6-2.1v-.2c.8-1.3.8-2.6-.1-3.5-1.1-1.1-3-1.5-4.3-.8-1.2.7-1.6 2.2-1.1 4.2l.1.2-.2.1c-1.5.8-3.2 1.5-4.9-.2l-.6-.3.5-.1c1.9-.6 2.8-2.4 2.9-3.9.1-1.6-.7-3-2.1-3.6l-.2-.1v-.2c0-1.1-.3-1.5-1.3-1.6l-.9-.1.8-.4c.8-.4 1.3-1.2 1.4-2.2 0-.3 0-.5-.1-.7-.2-.7-.6-1.3-1.2-1.6l-.4-.2.4-.3c.6-.5 1-1.1 1-1.8.2-1.2-.3-2.3-1.1-3.3zm-5.3-3.5.4-.1-.1.4c-.3.9-.2 1.8.9 2.7l.2.2-.2.2c-.8.9-1.2 2.1-1.1 3.1.1.7.4 1.3 1 1.8l.4.3-.4.2c-.6.3-1 .9-1.2 1.6v.9c0 1 .5 1.8 1.4 2.2l.8.4-.9.1c-.8.1-1.3.4-1.3 1.6v.2l-.2.1c-1.4.6-2.2 2-2 3.6.1 1.5 1 3.3 2.9 3.8l.5.1-.3.3c-1.6 1.6-3.3 1-4.9.2l-.2-.1.1-.2c.5-2 .1-3.5-1.1-4.2-1.3-.7-3.2-.4-4.3.8-.9.9-1 2.2-.2 3.5v.2c0 .9-.6 1.7-1.6 2.1-1.1.4-2.5.3-3.4-.7l-.3-.1.1-.2c1.1-1.9 1.5-3.5 1.1-4.8-.6-1.8-2.5-2.5-3.4-2.9l-.2-.1v-.2c-.2-1.7-.1-3.2.2-4.5 1.8-9.3 12.4-11.8 17.3-12.5zM69 23.9l.7-.2-.3.6c-.2.5-.3.9-.2 1.2.1.4.5.7 1 .9l.9.4-1 .2c-1.3.3-2.3 1.4-2.4 2.8-.1 1.2.6 2.2 1.9 2.7l.5.2-.4.3c-2 1.8-2.8 3.6-2.4 5 .4 1.4 2 2.4 4.4 2.7h.3l.1.3c-.4 1.3-.9 2-1.6 2.3-.8.3-1.7.2-3-.4l-.1-.1v-.2c-.2-1.7-1.5-2.9-3.2-2.9-1.7 0-3.2 1.4-3.2 3.2 0 1 .4 1.9 1.2 2.4l.2.2-.4.9c-.7 1.4-.9 1.5-3.3 1.5h-.6l.4-.5c1.9-2.4 1.7-4.6-.7-6.6l-.1-.1v-.4c.2-2.5.7-4.7 1.3-6.6 1.5-5.1 4.7-8 10-9.8zm-4.7 24-.6.3.9-2.3h.2c.5-.1.8-.2 1.1-.5l.1-.1 3.1.8-.9.3c-1.3.4-2.6.9-3.9 1.5z"/><path class="st1" d="M95.6.6v1.6h-1.8v1.5h1.8v2.4h-.1c-1.1 0-1.7.7-1.7 1.8v.4c-.1-.1-.2-.3-.2-.3-1.1-1-2.3-.7-2.7-.5-.8.3-1.4 1-1.4 1.7v.4c-.1-.2-.3-.3-.3-.3-.8-.9-1.9-1.2-3-.9-1 .3-1.8 1.2-1.9 2.3v.3l-.2-.2c-.8-.8-2.2-1-3.3-.4-1 .5-1.5 1.4-1.5 2.5v.8c-.1-.1-.3-.2-.3-.2-1.4-.9-2.8-.4-3.5.2-.6.5-.9 1.3-.9 2 0 .4.1.7.2 1.1 0 0 .1.1.1.3-.1 0-.3-.1-.3-.1-1.2-.2-2 .5-2.2 1 0 0-.1.1-.1.2-.1-.1-.1-.2-.1-.2-.6-1.1-1.8-1.8-3-1.7-1.2.1-2.1.9-2.5 2.2 0 0 0 .1-.1.2-.1-.1-.2-.1-.2-.1-1.2-.9-2.6-.6-3.4-.1-.7.5-1.1 1.2-1.1 2 0 .2 0 .4.1.7 0 0 0 .2.1.3-.1-.1-.3-.1-.3-.1-1.2-.6-2.8-.4-3.8.5-.5.5-.8 1.1-.8 1.8 0 .4.1.7.2 1.1 0 0 .1.2.1.3-.2-.1-.3-.1-.3-.1-1.5-.6-2.7.2-3.2 1-.3.5-.5 1.1-.5 1.7 0 .7.2 1.3.8 1.9l.4.4c-.3-.1-.5-.2-.5-.2-1.2-.3-2.3.4-2.8 1.4-.2.4-.3.9-.3 1.4 0 .7.3 1.5 1 2.1l.2.2c-.2 0-.3.1-.3.1-1.1.2-1.8.9-2.1 2 .1.2.1.4.1.6 0 .8.3 1.5.9 1.9 0 0 .1 0 .1.1s-.1.1-.1.1c-1.2 1.5-1.8 3.1-1.8 4.6 0 .8.2 1.5.5 2.2 1 1.9 3.3 2.9 6.3 2.7h.1c.5.4.9.6 1.3.8.3.1.6.3 1.1.6.4.2.9.2 1.4.3.8 0 1.5.1 2.2.5h.2c11.6-5.2 23.1-7.9 34.3-8 11.2.1 22.7 2.7 34.3 8h.2c.7-.4 1.4-.4 2.2-.5.5 0 1-.1 1.4-.2.4-.3.8-.5 1.1-.7.4-.2.8-.4 1.3-.8h.1c3 .2 5.3-.8 6.3-2.7.4-.7.5-1.4.5-2.2 0-1.5-.6-3.1-1.8-4.6 0 0 0-.1-.1-.1.1 0 .1-.1.1-.1.6-.4.9-1.1.9-1.9 0-.2 0-.4-.1-.6-.2-.8-.8-1.8-2.1-2 0 0-.2 0-.3-.1l.2-.2c.8-.6 1-1.4 1-2.1 0-.5-.1-1-.3-1.4-.5-.9-1.5-1.7-2.8-1.4 0 0-.3.1-.5.2l.4-.4c.6-.5.8-1.2.8-1.9 0-.6-.2-1.2-.5-1.7-.6-.9-1.7-1.7-3.3-1.1 0 0-.2.1-.3.1.1-.2.1-.3.1-.3.1-.4.2-.7.2-1.1 0-.7-.3-1.3-.8-1.8-1-.9-2.6-1.1-3.8-.5 0 0-.1.1-.3.1 0-.2.1-.3.1-.3.1-.2.1-.4.1-.7 0-.8-.4-1.5-1.1-2-.9-.6-2.2-.8-3.4.1 0 0-.1.1-.2.1 0-.1-.1-.2-.1-.2-.4-1.3-1.3-2.1-2.5-2.2-1.2-.1-2.4.5-3.1 1.7 0 0-.1.1-.1.2-.1-.1-.1-.2-.1-.2-.2-.5-1.1-1.2-2.2-1 0 0-.1 0-.3.1.1-.1.1-.3.1-.3.2-.4.2-.7.2-1.1 0-.8-.3-1.5-.9-2-.8-.7-2.1-1.1-3.5-.2 0 0-.1.1-.2.1V13c0-1.4-.5-2.4-1.5-2.9s-2.3-.3-3.3.5l-.2.2v-.3c-.1-1.1-.8-2-1.9-2.3-1.1-.3-2.3 0-3 .9 0 0-.1.2-.3.3V9c0-.6-.6-1.3-1.4-1.7-.5-.2-1.6-.5-2.7.5l-.2.2v-.3c0-1.1-.7-1.8-1.7-1.9h-.1V3.4h1.8V2.1h-1.8V.4h-1.5v.2zm.2 1.9h.1V.8h.9v1.7h1.8v.9h-1.8v3h.4c.9 0 1.4.6 1.4 1.6v1l.7-.7c.9-.9 2-.6 2.4-.4.7.3 1.2.9 1.2 1.4v1.2l.8-1c.7-.8 1.7-1.1 2.7-.8.9.3 1.6 1.1 1.7 2.1l.1.8.6-.5c.9-.7 2.1-.9 3-.4.9.5 1.4 1.4 1.3 2.8v.8l.7-.4c1.3-.8 2.5-.4 3.2.2.8.7 1.1 1.8.6 2.8l-.3.8.8-.2c1-.2 1.7.4 1.9.8l.4.8.4-.7c.6-1 1.7-1.6 2.8-1.5 1.1.1 1.9.8 2.3 2l.2.6.5-.4c1.1-.8 2.3-.6 3.1-.1.8.5 1.1 1.4.9 2.3l-.3.9.9-.4c1.1-.5 2.6-.3 3.4.5.7.7.9 1.6.5 2.5l-.4.9 1-.4c1.4-.5 2.4.2 2.9 1 .6.9.7 2.2-.3 3.2l-1.3 1.2 1.7-.5c1.1-.3 2 .4 2.4 1.2.4.8.5 2.1-.6 3.1l-.8.6 1 .2c1.1.2 1.7 1 1.9 1.8.2.9-.1 1.7-.7 2.2l-.4.3.3.4c1.7 2.2 2.2 4.7 1.2 6.5-.9 1.8-3.1 2.7-6 2.5h-.2l-.1.1c-.5.4-.8.6-1.2.8-.3.2-.7.3-1.1.7-.3.1-.7.2-1.2.2-.6 0-1.4.1-2.3.5-11.6-5.2-23.1-7.9-34.3-8-11.2.1-22.8 2.7-34.4 8-.8-.4-1.7-.5-2.3-.5-.5 0-.9-.1-1.3-.2-.4-.3-.7-.5-1.1-.6-.4-.2-.8-.4-1.3-.8l-.2-.4h-.2c-2.9.2-5-.7-6-2.5s-.5-4.2 1.3-6.4l.3-.4-.4-.2c-.7-.5-.9-1.4-.7-2.2.2-.9.9-1.6 1.9-1.7l1-.2-.8-.6c-1.2-.9-1.1-2.2-.6-3.1.4-.8 1.3-1.5 2.4-1.2l1.7.5-1.3-1.2c-1-.9-.8-2.3-.3-3.2.5-.8 1.5-1.5 2.9-.9l1 .4-.4-.9c-.4-1-.2-1.9.5-2.6.9-.8 2.3-1 3.4-.5l.9.4-.3-1c-.2-.9.1-1.8.9-2.3.7-.5 1.9-.7 3 .1l.5.4.2-.6c.4-1.2 1.2-1.9 2.3-2 1.1-.1 2.2.5 2.7 1.5l.4.7.4-.8c.2-.4.9-1 1.9-.8l.8.2-.3-.8c-.4-1-.2-2.1.6-2.8.7-.6 1.9-1 3.2-.2l.8.5-.1-.9c-.2-1.2.3-2.2 1.3-2.7s2.2-.4 3 .4l.7.6.1-.9c.1-1 .7-1.8 1.7-2.1 1-.3 2 0 2.7.8l.8 1V9.4c0-.5.5-1.1 1.2-1.4.4-.2 1.4-.5 2.4.4l.6.6V7.9c0-1 .5-1.5 1.4-1.6h.4v-3h-1.8v-.9c.3.1 1.7.1 1.7.1z"/><path class="st1" d="m126.6 45.2-3.6 1 1.3.5c1.1.4 2.4.9 3.9 1.6l1 .4-1.1-2.8h-.2c-.4-.1-.7-.2-1-.4l-.3-.3zm0 .3h.1c.3.3.6.4 1.1.5h.1c.1.1.6 1.5.8 2-.2-.1-.3-.1-.3-.1-1.5-.7-2.7-1.2-3.9-1.6l-.4-.2c.6-.1 2.5-.6 2.5-.6zM75.2 40.4l-.9.2v.3c-.1 1.2-.5 2.2-.9 3.2l-.4.8.9-.3c1.3-.4 2.8-.7 4.4-1.1l1.2-.3-1.1-.5c-1.2-.6-1.8-1.1-2.9-2.2l-.3-.1zm-.1.3s.1 0 0 0h.1c1.1 1.1 1.8 1.6 3 2.2l.4.2c-.2 0-.4.1-.4.1-1.7.4-3.1.7-4.5 1.1 0 0-.1 0-.3.1.1-.1.1-.3.1-.3.4-1 .8-2 .9-3.3v-.1c.3.1.7 0 .7 0zM87.1 39.7h-.2c-.5.2-1.1.2-1.8.1h-.4l-.1.4c-.2.7-.3.9-.8 1.5l-.8.9 1.2-.2c1.6-.2 3.1-.4 4.5-.6l1.1-.1-2.7-2zm-.1.3c.2.1 1.5 1.2 1.9 1.5h-.3c-1.4.1-2.9.3-4.5.6 0 0-.2 0-.4.1l.3-.3c.6-.6.7-.9.9-1.7v-.1h.1c.8.1 1.4.1 2-.1zM96.3 38.1v.1l-.1-.1-.3.5c-.4.8-.7 1.1-1.3 1.7l-1.1 1.2 1.1-.1 1-.1h1.6l2 .1-1.2-1.2c-.4-.5-.8-.8-1.1-1.5l-.4-.9-.2.3zm.2.4c.1.1.1.3.1.3.4.7.7 1.1 1.2 1.6l.8.8c-.4 0-1.3-.1-1.3-.1h-1.6l-1 .1h-.4l.6-.6c.6-.6 1-1 1.4-1.8 0 0 0-.1.1-.2l.1.1v-.2zM105.8 39.8l-2.5 2.1 1 .1c1.5.2 2.9.4 4.5.6l1.2.2-.8-.9c-.5-.6-.6-.8-.8-1.6l-.1-.4h-.4c-.7.1-1.3 0-1.8-.1h-.3zm.1.3h.1c.6.2 1.2.2 2 .1h.1v.1c.2.8.3 1.1.9 1.7l.3.3c-.2 0-.4-.1-.4-.1l-4.5-.6h-.3c.4-.3 1.8-1.5 1.8-1.5zM117.4 40.4l-.1.1c-1.2 1.1-1.8 1.7-3.1 2.3l-1.2.5 1.3.3c1.4.3 2.9.7 4.7 1.2l.9.3-.4-.9c-.5-1.2-.9-2.1-1-3.4v-.3l-1.1-.1zm-3.1 2.7c1.4-.6 2-1.2 3.2-2.3l.1-.1c.1 0 .5.1.6.1v.1c.1 1.3.5 2.3 1 3.5 0 0 .1.1.1.3-.1 0-.3-.1-.3-.1-1.8-.5-3.3-.9-4.7-1.2 0 0-.2 0-.4-.1.2-.2.4-.2.4-.2z"/><path class="st5" d="M85.2 40.6c-.1.4-.3.7-.5 1 1.1-.2 2.1-.3 3.1-.4-.4-.3-.8-.7-.9-.8-.5.2-1 .2-1.7.2z"/><path class="st1" d="M86.9 40.3c-.5.1-1.1.2-1.7.1h-.1v.1c-.1.4-.3.7-.4 1l-.2.3 3.8-.5-.3-.2-1.1-.8zm0 .3c.1.1.3.3.6.5-.5.1-2 .3-2.5.3.1-.2.2-.4.3-.7.6.1 1.1 0 1.6-.1z"/><path class="st5" d="M75 41.2c-.1 1-.4 1.8-.7 2.6 1-.3 2-.5 3.1-.8-.8-.5-1.5-1-2.4-1.8z"/><path class="st1" d="M75 41h-.2v.1c-.1 1.1-.4 2-.7 2.6l-.1.3 3.8-1-.3-.2c-.8-.5-1.4-1-2.3-1.8H75zm.1.4c.7.7 1.3 1.2 1.9 1.6-.5.1-2.1.5-2.5.6.2-.6.5-1.3.6-2.2z"/><path class="st5" d="M76.4 27.1c-.2.9-.3 1.8-.3 2.9 0 .5 0 .9.1 1.4 1 .4 3 1.3 3.6 3.2.1.4.2.8.2 1.3 0 1.1-.4 2.4-1.2 3.7.6.6 1.7.7 2.6.4.4-.1 1.2-.5 1.2-1.5-.4-.7-.6-1.4-.6-2 0-.8.3-1.5.9-2.1 1.3-1.3 3.5-1.7 5-.9.7.4 1.6 1.2 1.6 3.1 0 .4-.1 1-.2 1.5 1.4.7 2.6 1 3.7.1-1.6-.7-2.7-2.3-2.9-4.2v-.3c0-1.6.8-3.1 2.2-3.8 0-1 .4-1.6 1.1-1.9-.7-.6-1.1-1.4-1.1-2.4v-.1c0-.2 0-.4.1-.6-7-1.9-10.8-.4-16 2.2z"/><path class="st1" d="m76.3 26.9-.1.1c-.1 1-.2 1.9-.2 2.9l.1 1.5h.1c.8.3 2.9 1.2 3.5 3.1.1.4.2.8.2 1.2 0 1.1-.4 2.3-1.2 3.7l-.1.1.1.1c.7.6 1.8.8 2.7.4.3-.1 1.3-.6 1.3-1.6-.4-.7-.6-1.3-.6-1.9 0-.8.3-1.5.8-2 1.2-1.3 3.4-1.6 4.8-.8.7.4 1.6 1.2 1.6 3 0 .4-.1.9-.2 1.5v.1l.1.1c1.2.7 2.6 1.1 3.9.1l.2-.2-.3-.2c-1.6-.7-2.6-2.3-2.8-4.1v-.3c0-1.6.8-2.9 2.2-3.6h.1V30c0-1 .4-1.5 1-1.8l.2-.1-.2-.2c-.7-.6-1.1-1.4-1.1-2.3v-.1l.1-.7h-.1c-7-1.9-10.7-.5-16.1 2.1zm16-1.7v.6c0 .9.4 1.7 1 2.3-.6.3-1 .9-1 1.8-1.4.8-2.3 2.2-2.3 3.9v.3c.1 1.8 1.2 3.4 2.7 4.2-1 .6-2 .4-3.2-.2.1-.5.2-1 .2-1.4 0-2-1.1-2.9-1.7-3.2-1.6-.9-3.9-.5-5.2.9-.6.6-.9 1.4-.9 2.2 0 .6.2 1.3.6 2 0 .9-.8 1.2-1.1 1.3-.8.3-1.8.2-2.3-.3.8-1.4 1.2-2.6 1.2-3.7 0-.5-.1-.9-.2-1.3-.7-2-2.7-2.9-3.6-3.2 0-.2-.1-1.3-.1-1.3 0-.9.1-1.9.3-2.8 5-2.7 8.7-4.1 15.6-2.1z"/><path class="st5" d="M106.1 40.6c-.1.1-.5.4-.9.8 1 .1 2.1.3 3.1.4-.2-.3-.3-.6-.5-1-.6-.1-1.2-.1-1.7-.2z"/><path class="st1" d="m106 40.4-1.2 1 3.8.5-.2-.3c-.2-.3-.3-.6-.4-1v-.1h-.1c-.6 0-1.2 0-1.7-.1h-.2zm-.1.5s.2-.1.2-.2c.5.1 1 .2 1.6.1.1.3.2.5.3.7-.4-.1-2-.3-2.5-.3.2-.1.4-.3.4-.3z"/><path class="st5" d="M126.5 46.3c-.1 0-.6.1-1.1.3.7.3 1.5.6 2.4 1-.2-.4-.3-.7-.3-.8-.3-.2-.7-.3-1-.5z"/><path class="st1" d="m126.5 45.8-1.5.4 3.2 1.3-.1-.3-.3-.9h-.1c-.4-.1-.7-.2-1-.4l-.2-.1zm-.3.4s.3-.1.4-.1c.3.2.6.3.9.4 0 .1.1.2.2.4-.4-.2-1.2-.5-1.7-.7 0 .1.2 0 .2 0z"/><path class="st5" d="M123.7 32.8c1.6 1.5 2.4 3 2.4 4.4 0 .3 0 .7-.1 1-.5 1.5-2.1 2.6-4.6 3 .3.9.7 1.4 1.2 1.6.6.2 1.4.1 2.4-.3.2-1.8 1.8-3.2 3.7-3.2 2.1 0 3.8 1.7 3.8 3.7 0 1-.5 2-1.2 2.7l.2.4c.5 1.1.6 1.2 2.3 1.2-.7-1-1.1-2.1-1.1-3 0-1.4.7-2.6 2.1-3.8v-.1c-.2-2.6-.7-4.8-1.4-6.7-2.6-1.6-5-2.5-7.8-3.3-.1.9-.8 1.9-1.9 2.4z"/><path class="st1" d="M125.5 30.2c-.1 1.1-.7 2-1.8 2.5l-.2.1.2.2c1.5 1.5 2.4 3 2.4 4.3 0 .3 0 .6-.1.9-.5 1.5-2.1 2.5-4.4 2.9h-.2l.1.2c.3.9.7 1.5 1.3 1.7.6.3 1.4.2 2.5-.3h.1v-.1c.2-1.8 1.8-3.1 3.6-3.1 2 0 3.6 1.6 3.6 3.6 0 1-.4 1.9-1.2 2.6l-.1.1.3.5c.6 1.1.7 1.2 2.4 1.3h.3l-.2-.2c-.7-1-1.1-2-1.1-2.9 0-1.3.7-2.6 2-3.7v-.2c-.3-2.7-.7-4.9-1.4-6.8v-.1c-2.5-1.5-4.8-2.5-7.8-3.3l-.2-.1-.1-.1zm.2.2c2.9.8 5.1 1.8 7.5 3.2.7 1.9 1.1 4 1.4 6.7v.1c-1.4 1.2-2.1 2.5-2.1 3.9 0 .9.3 1.9 1 2.9-1.3 0-1.4-.2-1.9-1.1 0 0-.1-.2-.2-.3.8-.8 1.2-1.7 1.2-2.8 0-2.1-1.8-3.9-3.9-3.9-1.9 0-3.5 1.4-3.8 3.3-1 .4-1.7.5-2.2.3-.4-.2-.7-.6-1-1.4 2.4-.4 4-1.5 4.5-3.1.1-.3.2-.7.2-1 0-1.4-.8-2.9-2.3-4.4.9-.5 1.5-1.4 1.6-2.4z"/><path class="st5" d="M100.4 25c0 .2.1.4.1.6v.1c0 1-.4 1.8-1.1 2.4.8.3 1.1.9 1.2 1.9 1.4.7 2.3 2.1 2.3 3.8v.3c-.1 1.9-1.2 3.5-2.9 4.2 1.1.8 2.2.6 3.7-.1-.1-.6-.2-1.1-.2-1.5 0-1.9 1-2.8 1.7-3.1 1.5-.8 3.7-.4 5 .9.6.6.9 1.3.9 2.1 0 .6-.2 1.3-.6 2 0 1 .9 1.4 1.2 1.5.8.3 1.9.2 2.6-.4-.8-1.4-1.2-2.6-1.2-3.7 0-.5.1-.9.2-1.3.6-1.9 2.6-2.8 3.6-3.2 0-.5.1-1 .1-1.4 0-1-.1-2-.3-2.8-5.4-2.8-9.2-4.3-16.3-2.3z"/><path class="st1" d="M100.3 24.9h-.1l.1.7v.1c0 .9-.4 1.7-1.1 2.3l-.2.1.2.1c.7.3 1 .8 1.1 1.7v.1h.1c1.4.7 2.2 2 2.2 3.6v.3c-.1 1.8-1.2 3.4-2.8 4.1l-.2.1.2.2c1.2.9 2.4.6 3.9-.1l.1-.1V38c-.1-.6-.2-1.1-.2-1.5 0-1.8.9-2.6 1.6-3 1.5-.8 3.6-.4 4.8.8.5.6.8 1.3.8 2 0 .6-.2 1.3-.6 1.9 0 1.1.9 1.5 1.3 1.7.8.3 2 .3 2.7-.4l.1-.1-.1-.1c-.8-1.4-1.2-2.6-1.2-3.7 0-.4.1-.9.2-1.2.6-1.9 2.6-2.8 3.5-3.1h.1l.1-1.5c0-1-.1-2-.3-2.9v-.1h-.1c-5.4-2.5-9.1-3.9-16.2-1.9zm16 2.3c.2.9.3 1.8.3 2.7 0 0-.1 1.2-.1 1.3-.9.4-2.9 1.3-3.6 3.3-.1.4-.2.9-.2 1.3 0 1.1.4 2.3 1.2 3.7-.7.5-1.6.5-2.3.3-.3-.1-1.1-.5-1.1-1.4.4-.7.6-1.4.6-2 0-.8-.3-1.6-.9-2.2-1.3-1.4-3.6-1.8-5.2-.9-.6.4-1.7 1.3-1.7 3.3 0 .4.1.9.2 1.4-1.3.6-2.3.9-3.2.2 1.6-.8 2.6-2.4 2.7-4.2v-.3c0-1.7-.8-3.1-2.3-3.9-.1-.9-.4-1.5-1-1.8.7-.6 1-1.4 1-2.3v-.5c6.7-2 10.4-.6 15.6 2z"/><path class="st5" d="M117.7 41.1c-.9.9-1.6 1.4-2.5 1.9 1 .2 2.2.5 3.4.9-.4-.9-.7-1.8-.8-2.8 0 .1 0 .1-.1 0z"/><path class="st1" d="M117.6 41c-1 .9-1.6 1.4-2.5 1.9l-.3.2.4.1c1 .2 2.1.5 3.4.9l.3.1-.1-.3c-.3-.8-.6-1.7-.8-2.8V41h-.4zm.1.4c.1.9.4 1.7.7 2.4-1-.3-1.9-.5-2.8-.7.7-.5 1.3-1 2.1-1.7z"/><path class="st5" d="M96.5 39.4c-.1 0-.1 0 0 0-.4.5-.7.9-1.1 1.3h2.1c-.4-.4-.7-.8-1-1.3z"/><path class="st1" d="M96.3 39.3c-.3.5-.6.9-1 1.3l-.3.3h2.9l-.3-.3c-.4-.4-.7-.8-1-1.3l-.1-.2-.2.2zm.1.3c.2.4.5.7.7 1h-1.5c.4-.3.6-.6.8-1z"/><path class="st4" d="M70.3 24.2c0 1 .8 1.9 1.9 1.9 1 0 1.9-.8 1.9-1.9 0-1-.8-1.9-1.9-1.9-1.1 0-1.9.8-1.9 1.9z"/><path class="st1" d="M70.1 24.2c0 1.1.9 2 2 2s2-.9 2-2-.9-2-2-2c-1.1-.1-2 .9-2 2zm.3 0c0-.9.8-1.7 1.7-1.7 1 0 1.7.8 1.7 1.7 0 1-.8 1.7-1.7 1.7-.9 0-1.7-.8-1.7-1.7z"/><path class="st4" d="M96.5 27.8c1.1 0 2.1-.9 2.1-2.1 0-1.1-.9-2.1-2.1-2.1-1.1 0-2 .9-2 2.1 0 1.2.9 2.1 2 2.1z"/><path class="st1" d="M94.3 25.8c0 1.2 1 2.2 2.2 2.2 1.2 0 2.2-1 2.2-2.2 0-1.2-1-2.2-2.2-2.2-1.2 0-2.2 1-2.2 2.2zm.3 0c0-1 .9-1.9 1.9-1.9 1.1 0 1.9.9 1.9 1.9 0 1.1-.9 1.9-1.9 1.9-1 0-1.9-.9-1.9-1.9z"/><path class="st4" d="M96.5 22.2c1.1 0 1.9-.8 1.9-1.9 0-1.1-.8-1.9-1.9-1.9-1 0-1.9.8-1.9 1.9 0 1 .9 1.9 1.9 1.9z"/><path class="st1" d="M94.5 20.3c0 1.1.9 2 2 2s2-.9 2-2-.9-2-2-2-2 .9-2 2zm.3 0c0-1 .8-1.7 1.7-1.7 1 0 1.7.8 1.7 1.7 0 1-.8 1.7-1.7 1.7-1 0-1.7-.7-1.7-1.7z"/><path class="st4" d="M77.8 14.3c-1 0-1.9.9-1.9 1.9 0 1 .8 1.9 1.9 1.9 1 0 1.9-.8 1.9-1.9-.1-1-.9-1.9-1.9-1.9z"/><path class="st1" d="M75.7 16.2c0 1.1.9 2 2 2s2-.9 2-2-.9-2-2-2c-1 0-2 .9-2 2zm.3 0c0-.9.8-1.7 1.7-1.7.9 0 1.7.8 1.7 1.7 0 .9-.8 1.7-1.7 1.7-.9 0-1.7-.8-1.7-1.7z"/><path class="st4" d="M73.2 29.7c0-1.1-.8-1.9-1.9-1.9-1.1 0-1.9.8-1.9 1.9 0 1 .8 1.9 1.9 1.9 1.1 0 1.9-.9 1.9-1.9z"/><path class="st1" d="M69.3 29.7c0 1.1.9 2 2 2s2-.9 2-2-.9-2-2-2c-1.1-.1-2 .8-2 2zm.3 0c0-1 .8-1.7 1.7-1.7 1 0 1.7.8 1.7 1.7 0 1-.8 1.7-1.7 1.7-1 0-1.7-.7-1.7-1.7z"/><path class="st4" d="M74.3 22.1c1 0 1.9-.8 1.9-1.9 0-1-.8-1.9-1.9-1.9-1 0-1.9.8-1.9 1.9.1 1 .9 1.9 1.9 1.9z"/><path class="st1" d="M72.3 20.2c0 1.1.9 2 2 2s2-.9 2-2-.9-2-2-2-2 .9-2 2zm.3 0c0-.9.8-1.7 1.7-1.7 1 0 1.7.8 1.7 1.7 0 1-.8 1.7-1.7 1.7-.9 0-1.7-.8-1.7-1.7z"/><path class="st4" d="M136.1 32.8c0 1.1.9 2.1 2.1 2.1 1.1 0 2.1-.9 2.1-2.1 0-1.1-.9-2.1-2.1-2.1-1.2 0-2.1 1-2.1 2.1z"/><path class="st1" d="M135.9 32.8c0 1.2 1 2.2 2.2 2.2 1.2 0 2.2-1 2.2-2.2 0-1.2-1-2.2-2.2-2.2-1.2 0-2.2 1-2.2 2.2zm.3 0c0-1.1.9-1.9 1.9-1.9 1.1 0 1.9.9 1.9 1.9 0 1.1-.9 1.9-1.9 1.9-1 0-1.9-.9-1.9-1.9z"/><path class="st4" d="M138 27.9c0-1.1-.9-2.1-2.1-2.1-1.1 0-2.1.9-2.1 2.1 0 1.1.9 2 2.1 2 1.2.1 2.1-.8 2.1-2z"/><path class="st1" d="M133.8 27.9c0 1.2 1 2.2 2.2 2.2 1.2 0 2.2-1 2.2-2.2 0-1.2-1-2.2-2.2-2.2-1.2 0-2.2 1-2.2 2.2zm.3 0c0-1.1.9-1.9 1.9-1.9 1.1 0 1.9.9 1.9 1.9 0 1-.9 1.9-1.9 1.9-1.1 0-1.9-.8-1.9-1.9z"/><path class="st4" d="M127.9 19.5c-1 0-1.9.9-1.9 1.9 0 1 .8 1.9 1.9 1.9 1 0 1.9-.8 1.9-1.9 0-1.1-.8-1.9-1.9-1.9z"/><path class="st1" d="M125.9 21.4c0 1.1.9 2 2 2s2-.9 2-2-.9-2-2-2c-1.1-.1-2 .9-2 2zm.3 0c0-.9.8-1.7 1.7-1.7.9 0 1.7.8 1.7 1.7 0 .9-.8 1.7-1.7 1.7-.9 0-1.7-.8-1.7-1.7z"/><path class="st4" d="M123.4 17.6c-1 0-1.9.8-1.9 1.9 0 1 .9 1.9 1.9 1.9 1 0 1.9-.9 1.9-1.9 0-1.1-.9-1.9-1.9-1.9z"/><path class="st1" d="M121.3 19.5c0 1.1.9 2 2 2s2-.9 2-2-.9-2-2-2c-1 0-2 .9-2 2zm.3 0c0-.9.8-1.7 1.7-1.7 1 0 1.7.8 1.7 1.7 0 .9-.8 1.7-1.7 1.7-.9 0-1.7-.8-1.7-1.7z"/><path class="st4" d="M134.6 24.1c0-1.1-.9-2.1-2.1-2.1-1.1 0-2 .9-2 2.1 0 1.1.9 2.1 2 2.1 1.2 0 2.1-.9 2.1-2.1z"/><path class="st1" d="M130.4 24.1c0 1.2 1 2.2 2.2 2.2 1.2 0 2.2-1 2.2-2.2 0-1.2-1-2.2-2.2-2.2-1.3 0-2.2 1-2.2 2.2zm.3 0c0-1.1.8-1.9 1.9-1.9 1.1 0 1.9.9 1.9 1.9 0 1.1-.9 1.9-1.9 1.9-1.1 0-1.9-.8-1.9-1.9z"/><path class="st4" d="M119 24.1c0 1 .8 1.9 1.9 1.9 1 0 1.9-.8 1.9-1.9 0-1-.8-1.9-1.9-1.9-1.1.1-1.9.9-1.9 1.9z"/><path class="st1" d="M118.8 24.1c0 1.1.9 2 2 2s2-.9 2-2-.9-2-2-2-2 .9-2 2zm.3 0c0-1 .8-1.7 1.7-1.7.9 0 1.7.8 1.7 1.7 0 1-.8 1.7-1.7 1.7-.9.1-1.7-.7-1.7-1.7z"/><path class="st4" d="M137.3 38.1c0 1.1.9 2.1 2.1 2.1 1.1 0 2.1-.9 2.1-2.1 0-1.1-.9-2.1-2.1-2.1-1.2 0-2.1.9-2.1 2.1z"/><path class="st1" d="M137.1 38.1c0 1.2 1 2.2 2.2 2.2 1.2 0 2.2-1 2.2-2.2 0-1.2-1-2.2-2.2-2.2-1.2 0-2.2 1-2.2 2.2zm.3 0c0-1.1.9-1.9 1.9-1.9 1.1 0 1.9.9 1.9 1.9 0 1.1-.9 1.9-1.9 1.9-1 0-1.9-.9-1.9-1.9z"/><path class="st4" d="M116.9 16.2c0-1-.9-1.9-1.9-1.9-1 0-1.9.8-1.9 1.9 0 1 .8 1.9 1.9 1.9 1.1-.1 1.9-.9 1.9-1.9z"/><path class="st1" d="M113 16.2c0 1.1.9 2 2 2s2-.9 2-2-.9-2-2-2c-1.1-.1-2 .8-2 2zm.3 0c0-1 .8-1.7 1.7-1.7.9 0 1.7.8 1.7 1.7 0 .9-.8 1.7-1.7 1.7-.9 0-1.7-.8-1.7-1.7z"/><path class="st4" d="M121.4 27.8c-1.1 0-1.9.8-1.9 1.9 0 1 .8 1.9 1.9 1.9 1 0 1.9-.8 1.9-1.9 0-1.1-.8-1.9-1.9-1.9z"/><path class="st1" d="M119.4 29.7c0 1.1.9 2 2 2s2-.9 2-2-.9-2-2-2c-1.1-.1-2 .8-2 2zm.3 0c0-1 .8-1.7 1.7-1.7 1 0 1.7.8 1.7 1.7 0 1-.8 1.7-1.7 1.7-1 0-1.7-.8-1.7-1.7z"/><path class="st4" d="M118.5 21.9c1 0 1.9-.8 1.9-1.9 0-1-.8-1.9-1.9-1.9-1.1 0-1.9.8-1.9 1.9 0 1.1.8 1.9 1.9 1.9z"/><path class="st1" d="M116.4 20c0 1.1.9 2 2 2s2-.9 2-2-.9-2-2-2-2 .9-2 2zm.3 0c0-1 .8-1.7 1.7-1.7 1 0 1.7.8 1.7 1.7 0 .9-.8 1.7-1.7 1.7-.9 0-1.7-.7-1.7-1.7z"/><path class="st0" d="M72.1 25.5c.7 0 1.3-.6 1.3-1.3 0-.7-.6-1.3-1.3-1.3-.7 0-1.3.6-1.3 1.3.1.7.6 1.3 1.3 1.3z"/><path class="st1" d="M70.7 24.2c0 .8.6 1.5 1.4 1.5.8 0 1.5-.7 1.5-1.5s-.6-1.4-1.5-1.4c-.8-.1-1.4.6-1.4 1.4zm.3 0c0-.6.5-1.1 1.1-1.1.6 0 1.2.5 1.2 1.1 0 .6-.5 1.2-1.2 1.2-.6-.1-1.1-.6-1.1-1.2z"/><path class="st0" d="M96.5 27.2c.8 0 1.5-.6 1.5-1.5 0-.8-.7-1.5-1.5-1.5s-1.4.7-1.4 1.5c-.1.9.6 1.5 1.4 1.5z"/><path class="st1" d="M94.9 25.8c0 .9.7 1.6 1.6 1.6.9 0 1.6-.7 1.6-1.6 0-.9-.7-1.6-1.6-1.6-.9-.1-1.6.7-1.6 1.6zm.3 0c0-.7.6-1.3 1.3-1.3.7 0 1.3.6 1.3 1.3 0 .7-.6 1.3-1.3 1.3-.7 0-1.3-.6-1.3-1.3z"/><path class="st0" d="M96.5 21.6c.7 0 1.3-.6 1.3-1.3 0-.7-.6-1.3-1.3-1.3-.7 0-1.3.6-1.3 1.3 0 .7.6 1.3 1.3 1.3z"/><path class="st1" d="M95.1 20.3c0 .8.6 1.4 1.4 1.4.8 0 1.5-.6 1.5-1.4 0-.8-.6-1.5-1.5-1.5-.8.1-1.4.7-1.4 1.5zm.3 0c0-.6.5-1.2 1.1-1.2.6 0 1.2.5 1.2 1.2 0 .6-.5 1.1-1.2 1.1-.6 0-1.1-.5-1.1-1.1zM76.3 16.2c0 .8.7 1.4 1.5 1.4s1.4-.6 1.4-1.4c0-.8-.6-1.5-1.4-1.5-.8 0-1.5.7-1.5 1.5zm.3 0c0-.6.5-1.2 1.2-1.2.6 0 1.1.5 1.1 1.2 0 .6-.5 1.1-1.1 1.1-.7 0-1.2-.5-1.2-1.1z"/><path class="st0" d="M72.6 29.7c0-.7-.6-1.3-1.3-1.3-.7 0-1.3.6-1.3 1.3 0 .7.6 1.3 1.3 1.3.8 0 1.3-.6 1.3-1.3z"/><path class="st1" d="M69.9 29.7c0 .8.6 1.4 1.5 1.4.8 0 1.5-.6 1.5-1.4 0-.8-.6-1.5-1.5-1.5s-1.5.7-1.5 1.5zm.3 0c0-.6.5-1.2 1.2-1.2.6 0 1.2.5 1.2 1.2 0 .6-.5 1.1-1.2 1.1s-1.2-.5-1.2-1.1z"/><path class="st0" d="M74.3 21.5c.7 0 1.3-.6 1.3-1.3 0-.7-.6-1.3-1.3-1.3-.7 0-1.3.6-1.3 1.3 0 .7.6 1.3 1.3 1.3z"/><path class="st1" d="M72.9 20.2c0 .8.6 1.5 1.4 1.5.8 0 1.5-.7 1.5-1.5s-.6-1.4-1.5-1.4c-.8 0-1.4.6-1.4 1.4zm.3 0c0-.6.5-1.1 1.1-1.1.6 0 1.2.5 1.2 1.1 0 .6-.5 1.2-1.2 1.2-.6-.1-1.1-.6-1.1-1.2z"/><path class="st0" d="M138.1 34.3c.8 0 1.5-.7 1.5-1.5s-.6-1.5-1.5-1.5c-.8 0-1.5.7-1.5 1.5s.7 1.5 1.5 1.5z"/><path class="st1" d="M136.5 32.8c0 .9.8 1.6 1.6 1.6.9 0 1.6-.7 1.6-1.6 0-.9-.7-1.6-1.6-1.6-.9 0-1.6.7-1.6 1.6zm.3 0c0-.7.6-1.3 1.3-1.3.7 0 1.3.6 1.3 1.3 0 .7-.6 1.3-1.3 1.3-.7 0-1.3-.6-1.3-1.3z"/><path class="st0" d="M137.5 27.9c0-.8-.6-1.5-1.5-1.5-.8 0-1.5.6-1.5 1.5 0 .8.7 1.4 1.5 1.4.8.1 1.5-.6 1.5-1.4z"/><path class="st1" d="M134.4 27.9c0 .9.7 1.6 1.6 1.6.9 0 1.6-.7 1.6-1.6 0-.9-.7-1.6-1.6-1.6-.9 0-1.6.7-1.6 1.6zm.3 0c0-.7.6-1.3 1.3-1.3.7 0 1.3.6 1.3 1.3 0 .7-.6 1.3-1.3 1.3-.7 0-1.3-.5-1.3-1.3z"/><path class="st0" d="M127.9 20.1c-.7 0-1.3.6-1.3 1.3 0 .7.6 1.3 1.3 1.3.7 0 1.3-.6 1.3-1.3 0-.7-.6-1.3-1.3-1.3z"/><path class="st1" d="M126.5 21.4c0 .8.7 1.4 1.5 1.4s1.4-.6 1.4-1.4c0-.8-.6-1.5-1.4-1.5-.9 0-1.5.7-1.5 1.5zm.3 0c0-.6.5-1.2 1.2-1.2.6 0 1.1.5 1.1 1.2 0 .6-.5 1.1-1.1 1.1-.7 0-1.2-.5-1.2-1.1z"/><path class="st0" d="M123.4 18.2c-.7 0-1.3.6-1.3 1.3 0 .7.6 1.3 1.3 1.3.7 0 1.3-.6 1.3-1.3 0-.7-.6-1.3-1.3-1.3z"/><path class="st1" d="M121.9 19.5c0 .8.7 1.5 1.5 1.5s1.5-.7 1.5-1.5-.7-1.4-1.5-1.4-1.5.6-1.5 1.4zm.3 0c0-.6.5-1.1 1.2-1.1.6 0 1.2.5 1.2 1.1 0 .6-.5 1.2-1.2 1.2-.6-.1-1.2-.6-1.2-1.2z"/><path class="st0" d="M132.6 22.7c-.8 0-1.4.6-1.4 1.5 0 .8.6 1.5 1.4 1.5.8 0 1.5-.7 1.5-1.5-.1-.9-.7-1.5-1.5-1.5z"/><path class="st1" d="M131 24.1c0 .9.7 1.6 1.6 1.6.9 0 1.6-.7 1.6-1.6 0-.9-.7-1.6-1.6-1.6-.9 0-1.6.7-1.6 1.6zm.3 0c0-.7.6-1.3 1.3-1.3.7 0 1.3.6 1.3 1.3 0 .7-.6 1.3-1.3 1.3-.8.1-1.3-.5-1.3-1.3z"/><path class="st0" d="M120.9 25.4c.7 0 1.3-.6 1.3-1.3 0-.7-.6-1.3-1.3-1.3-.7 0-1.3.6-1.3 1.3 0 .8.5 1.3 1.3 1.3z"/><path class="st1" d="M119.4 24.1c0 .8.7 1.5 1.5 1.5s1.4-.7 1.4-1.5-.6-1.4-1.4-1.4c-.9 0-1.5.6-1.5 1.4zm.3 0c0-.6.5-1.1 1.2-1.1.6 0 1.1.5 1.1 1.1 0 .6-.5 1.2-1.1 1.2-.7 0-1.2-.5-1.2-1.2z"/><path class="st0" d="M137.9 38.1c0 .8.7 1.5 1.5 1.5s1.5-.7 1.5-1.5-.6-1.5-1.5-1.5-1.5.7-1.5 1.5z"/><path class="st1" d="M137.7 38.1c0 .9.8 1.6 1.6 1.6.9 0 1.6-.7 1.6-1.6 0-.9-.7-1.6-1.6-1.6-.8 0-1.6.7-1.6 1.6zm.3 0c0-.7.6-1.3 1.3-1.3.7 0 1.3.6 1.3 1.3 0 .7-.6 1.3-1.3 1.3-.7 0-1.3-.6-1.3-1.3zM113.6 16.2c0 .8.6 1.4 1.4 1.4.8 0 1.5-.6 1.5-1.4 0-.8-.7-1.5-1.5-1.5s-1.4.7-1.4 1.5zm.3 0c0-.6.5-1.2 1.1-1.2.6 0 1.2.5 1.2 1.2 0 .6-.5 1.1-1.2 1.1-.6 0-1.1-.5-1.1-1.1z"/><path class="st0" d="M121.4 28.4c-.7 0-1.3.6-1.3 1.3 0 .7.6 1.3 1.3 1.3.7 0 1.3-.6 1.3-1.3 0-.8-.6-1.3-1.3-1.3z"/><path class="st1" d="M119.9 29.7c0 .8.7 1.5 1.5 1.5s1.5-.7 1.5-1.5-.6-1.4-1.5-1.4c-.8-.1-1.5.6-1.5 1.4zm.3 0c0-.6.5-1.1 1.2-1.1.6 0 1.2.5 1.2 1.1 0 .6-.5 1.2-1.2 1.2-.6-.1-1.2-.6-1.2-1.2z"/><path class="st0" d="M118.5 21.3c.7 0 1.3-.6 1.3-1.3 0-.7-.6-1.3-1.3-1.3-.7 0-1.3.6-1.3 1.3 0 .7.5 1.3 1.3 1.3z"/><path class="st1" d="M117 20c0 .8.6 1.4 1.5 1.4.8 0 1.5-.6 1.5-1.4 0-.8-.7-1.5-1.5-1.5-.8.1-1.5.7-1.5 1.5zm.3 0c0-.6.5-1.2 1.2-1.2.6 0 1.2.5 1.2 1.2 0 .6-.5 1.1-1.2 1.1s-1.2-.5-1.2-1.1z"/><path class="st0" d="M96.6 30.9c-1.3 0-2.4 1.1-2.4 2.3 0 1.3 1.1 2.3 2.4 2.3 1.3 0 2.3-1.1 2.3-2.3.1-1.3-1-2.3-2.3-2.3z"/><path class="st1" d="M96.6 30.1c-1.7 0-3.2 1.4-3.2 3.1 0 1.7 1.4 3.1 3.2 3.1 1.7 0 3.1-1.4 3.1-3.1 0-1.7-1.4-3.1-3.1-3.1zm0 5.3c-1.2 0-2.2-1-2.2-2.1 0-1.2 1-2.2 2.2-2.2 1.2 0 2.1 1 2.1 2.2.1 1.1-.9 2.1-2.1 2.1z"/><path class="st0" d="M119.1 33.7c-1.3 0-2.4 1.1-2.4 2.3 0 1.3 1.1 2.3 2.4 2.3 1.3 0 2.3-1.1 2.3-2.3 0-1.2-1-2.3-2.3-2.3z"/><path class="st1" d="M119.1 32.9c-1.7 0-3.2 1.4-3.2 3.1 0 1.7 1.4 3.1 3.2 3.1 1.7 0 3.1-1.4 3.1-3.1 0-1.7-1.4-3.1-3.1-3.1zm0 5.3c-1.2 0-2.2-1-2.2-2.1 0-1.2 1-2.1 2.2-2.1 1.2 0 2.1 1 2.1 2.1 0 1.2-.9 2.1-2.1 2.1z"/><path class="st0" d="M138.9 42.3c-1.3 0-2.4 1.1-2.4 2.3 0 1.3 1.1 2.3 2.4 2.3 1.3 0 2.3-1.1 2.3-2.3 0-1.2-1-2.3-2.3-2.3z"/><path class="st1" d="M138.9 41.5c-1.7 0-3.2 1.4-3.2 3.1 0 1.7 1.4 3.1 3.2 3.1 1.7 0 3.1-1.4 3.1-3.1 0-1.7-1.4-3.1-3.1-3.1zm0 5.3c-1.2 0-2.2-1-2.2-2.2 0-1.2 1-2.1 2.2-2.1 1.2 0 2.2 1 2.2 2.1-.1 1.3-1 2.2-2.2 2.2z"/><path class="st0" d="M73.9 33.8c-1.3 0-2.4 1.1-2.4 2.3 0 1.3 1.1 2.3 2.4 2.3 1.3 0 2.3-1.1 2.3-2.3 0-1.2-1.1-2.3-2.3-2.3z"/><path class="st1" d="M73.9 33.1c-1.7 0-3.2 1.4-3.2 3.1 0 1.7 1.4 3.1 3.2 3.1 1.7 0 3.1-1.4 3.1-3.1 0-1.7-1.4-3.1-3.1-3.1zm0 5.2c-1.2 0-2.2-1-2.2-2.1 0-1.2 1-2.1 2.2-2.1 1.2 0 2.1 1 2.1 2.1 0 1.2-1 2.1-2.1 2.1z"/></svg>