<svg version="1.1" id="Layer_1" xmlns="http://www.w3.org/2000/svg" x="0" y="0" viewBox="0 0 192.8 192.8" style="enable-background:new 0 0 192.8 192.8" xml:space="preserve"><style>.st1{fill:#1d1c1a}.st3,.st4,.st5{fill-rule:evenodd;clip-rule:evenodd;fill:#1d1c1a}.st4,.st5{fill:#e21a1f}.st5{fill:#1d1d1b}</style><path d="M96.4 185.1c28.9 0 53.1-39.7 53.1-88.7S125.3 7.7 96.4 7.7c-28.9 0-53.1 39.7-53.1 88.7s24.2 88.7 53.1 88.7z" style="fill-rule:evenodd;clip-rule:evenodd;fill:#fff"/><path class="st1" d="M96.4 180.3c12.7 0 24.6-9.1 33.4-23.8 9.2-15.3 14.9-36.6 14.9-60.1 0-23.6-5.7-44.8-14.9-60.1-8.8-14.7-20.7-23.8-33.4-23.8S71.8 21.6 63 36.3c-9.2 15.3-14.9 36.6-14.9 60.1 0 23.6 5.7 44.8 14.9 60.1 8.8 14.7 20.7 23.8 33.4 23.8zm0 9.6c-16.3 0-31.1-10.9-41.6-28.5-10-16.8-16.3-39.8-16.3-65.1 0-25.3 6.3-48.3 16.3-65C65.3 13.8 80.1 2.9 96.4 2.9s31.1 10.9 41.6 28.5c10 16.8 16.3 39.8 16.3 65 0 25.3-6.3 48.3-16.3 65.1-10.5 17.5-25.3 28.4-41.6 28.4z"/><path d="M96.4 183.4c13.9 0 26.7-9.7 36-25.3 9.4-15.8 15.3-37.6 15.3-61.7s-5.9-45.9-15.3-61.7c-9.3-15.6-22.1-25.3-36-25.3-13.9 0-26.7 9.7-36 25.3C51 50.5 45.1 72.3 45.1 96.4s5.9 45.9 15.3 61.7c9.3 15.7 22.1 25.3 36 25.3zm0 3.5c-15.2 0-29-10.3-38.9-27-9.7-16.3-15.8-38.7-15.8-63.5 0-24.7 6.1-47.2 15.8-63.5 10-16.7 23.8-27 38.9-27 15.2 0 29 10.3 38.9 27 9.7 16.3 15.8 38.7 15.8 63.5 0 24.7-6.1 47.2-15.8 63.5-9.9 16.6-23.7 27-38.9 27z" style="fill:#e21a1f"/><path class="st3" d="M87.5 145.4V49h-8.9v93l8.9 3.4z"/><path class="st4" d="M78.6 142V49l-8.9 5.5v84.1l8.9 3.4z"/><path class="st3" d="M69.6 138.6V54.5l-8.8 6.8v70.4l8.8 6.9z"/><path class="st4" d="M60.7 131.7V61.3L51.8 75v43l8.9 13.7z"/><path class="st3" d="M51.8 119.4V73l-4.1 10.3v27.8l4.1 8.3z"/><path class="st1" d="M115.3 51v92.7h-3.5V49.3h3.5V51zM127.6 57.5v79.7h-3.4V55.8h3.4v1.7z"/><path class="st1" d="M98.1 100.9h48.3v3.4h-50v-3.4h1.7zM98.1 88.5h48.3V92h-50v-3.5h1.7z"/><path class="st4" d="M146.7 91.9h-22.5V56.5l-8.9-5.5v40.9H96.4V46.2l-8.9 1.4v97.8h8.9v-44.6h18.9V142l8.9-3.4v-37.8h22.5v-8.9z"/><path class="st1" d="M99.8 47.5v99.8h-3.4V45.8h3.4v1.7z"/><path class="st1" d="M96.4 144.1c13.2 0 25.1-5.3 33.8-14 8.6-8.6 14-20.6 14-33.8 0-13.2-5.3-25.1-14-33.8-8.6-8.6-20.6-14-33.8-14-13.2 0-25.1 5.3-33.8 14-8.6 8.6-14 20.6-14 33.8 0 13.2 5.3 25.1 14 33.8 8.7 8.7 20.6 14 33.8 14zm0 3.5c-14.1 0-26.9-5.7-36.2-15-9.3-9.3-15-22.1-15-36.2 0-14.1 5.7-26.9 15-36.2 9.3-9.3 22.1-15 36.2-15 14.1 0 26.9 5.7 36.2 15 9.3 9.3 15 22.1 15 36.2 0 14.1-5.7 26.9-15 36.2-9.3 9.2-22.1 15-36.2 15z"/><path class="st5" d="m71.5 148.5.5.2c3.1 1.1 4.4 0 4.9-1.1l2.6.9-5.3 14.7L71 162l3.6-10.1-3.8-1.4.7-2zM86.6 156.5c-1.4-.2-2-1.3-1.9-2.2.2-1.1 1.1-1.8 2.6-1.6 1.1.2 1.8 1 1.7 2.2-.3 1.2-1.1 1.8-2.4 1.6zm5.1 5.5c.3-2-.5-3.1-2-4.1 1.5-.4 2.2-1.5 2.4-2.8.3-2.1-1.3-4.3-4.8-4.8-3-.4-5.5.8-5.9 3.4-.2 1.4.4 2.5 1.6 3.3-2.7.7-3.1 2.7-3.2 3.5-.3 2.1.8 4.9 5.2 5.6 4.6.7 6.4-2.1 6.7-4.1zm-3.5-.4c-.2 1.1-1 2.3-2.8 2.1-1.5-.2-2.3-1.3-2.1-2.8.3-1.7 1.5-2.2 2.7-2 2 .2 2.4 1.6 2.2 2.7zM98.1 156.1c-.2-2.2 1.3-2.8 2.2-2.8 1.7-.1 2.7.9 2.8 2.7.2 1.8-1.1 2.7-2.3 2.8-1.2 0-2.5-.4-2.7-2.7zm-2.4 7c.5 2.4 2.7 3.8 5.6 3.6 3.1-.3 6-2.5 5.5-8.5-.2-2.2-.8-8-6.7-7.5-3.3.3-5.7 2.3-5.4 6.1.2 2.6 2.3 4.7 5.6 4.4 1.2-.1 2.5-.5 3.1-1.6h.1c.2 3.3-1.1 4.4-2.5 4.6-1 .1-1.8-.3-2.1-1.4l-3.2.3zM112.5 153.7c-.7-2.1.6-3 1.5-3.3 1.6-.6 2.8.2 3.4 1.9.6 1.7-.4 2.9-1.5 3.3-1.3.4-2.6.3-3.4-1.9zm-.6 7.5c1.1 2.3 3.6 3 6.3 2.1 2.9-1 5.3-3.9 3.3-9.6-.7-2.1-2.7-7.5-8.3-5.6-3.2 1.1-5 3.6-3.7 7.2.8 2.5 3.4 4 6.5 2.9 1.1-.4 2.3-1.1 2.7-2.3h.1c1 3.1.1 4.6-1.3 5-1 .3-1.8.1-2.4-.8l-3.2 1.1zM97.2 22.2c-4.8.1-9 3.8-8.9 8.4.1 4.5 4.4 8.1 9.2 8 2.4 0 4.6-.9 6.1-2.3l2.4 2.2c-2.2 2-5.2 3.2-8.5 3.3-6.9.1-12.6-4.9-12.7-11.1-.1-6.3 5.3-11.5 12.3-11.6 3.3-.1 6.3 1 8.5 3l-2.3 2.3c-1.5-1.5-3.7-2.3-6.1-2.2zM111.5 23 106 42.1l2.7.7 3.5-11 2.7 13.1h1.3l3.5-8.2 4.2 12.4 4 2.7-6.2-21.2-2.5-1.5-2.7 7.2-2.4-11.9-2.6-1.4zM86.5 42.2 81.2 23l-4.6 2.7-13.1 26.7 5.3-3.4 3.4-6.9 9.4-3.6 1.4 4.6 3.5-.9zm-12.6-4.3L79 27.5l1.8 7.6-6.9 2.8z"/></svg>