<svg version="1.1" id="Layer_1" xmlns="http://www.w3.org/2000/svg" x="0" y="0" viewBox="0 0 192.8 192.8" style="enable-background:new 0 0 192.8 192.8" xml:space="preserve"><style>.st0{fill:#332d84}.st0,.st1{fill-rule:evenodd;clip-rule:evenodd}.st1,.st3{fill:#fff}</style><path class="st0" d="M96.4 192.8c53.2 0 96.4-43.2 96.4-96.4S149.6 0 96.4 0 0 43.2 0 96.4s43.2 96.4 96.4 96.4z"/><path class="st1" d="M84.8 13.6s6.9 86.8-60.4 136.7l19.3 13.4 51.5-107V13.8l-10.4-.2zM107.3 13.6s-6.9 86.8 60.4 136.7l-19.3 13.4-51.5-107V13.8l10.4-.2z"/><path d="m102.3 120.8 4.5 1.2 6.5 2 8.1 5.1 7.7 14.7v32.8l31.5-20.8-3.1-6.2s-52.7-41.1-52.7-116.8V12.2H87.4v20.5c0 75.8-52.7 116.8-52.7 116.8l-3.1 6.2L63 176.6v-32.8l7.7-14.7 8.1-5.1 6.5-2 4.5-1.2h12.5z" style="fill-rule:evenodd;clip-rule:evenodd;fill:#c3251f"/><path class="st3" d="M68.9 99.2h54.3v2.3H68.9v-2.3z"/><path class="st1" d="M95.9 121.3c-28.2 0-29.2 29-29.2 29 0 12.8 5.7 25.2 5.7 25.2l-12 .2v-18.9c0-38.1 35.6-37.4 35.6-37.4h.6s35.6-.8 35.6 37.4v18.9l-12-.2s5.7-12.4 5.7-25.2c0 0-.8-29-29.1-29h-.9z"/><path class="st3" d="M96.3 177c22.3 0 42.4-9 57-23.6 14.6-14.6 23.6-34.8 23.6-57 0-22.3-9-42.4-23.6-57-14.6-14.6-34.8-23.6-57-23.6-22.3 0-42.4 9-57 23.6-14.6 14.6-23.6 34.7-23.6 57 0 22.3 9 42.4 23.6 57C53.9 168 74 177 96.3 177zm0 14.2c-26.2 0-49.9-10.6-67-27.8-17.2-17.2-27.8-40.9-27.8-67 0-26.2 10.6-49.9 27.8-67 17.2-17.2 40.9-27.8 67-27.8s49.9 10.6 67 27.8c17.2 17.2 27.8 40.9 27.8 67 0 26.2-10.6 49.9-27.8 67-17.1 17.2-40.8 27.8-67 27.8z"/><path class="st0" d="M5.8 97.2v-.6c0-.7.1-1.1.3-1.4.2-.3.5-.4.9-.4s.7.1.9.4c.1.3.2.8.2 1.5v.5H5.8zm4.5 0v-1c0-.9 0-1.5-.1-1.9-.1-.4-.3-.7-.5-1-.3-.4-.7-.7-1.1-.9-.5-.2-1-.3-1.6-.3-.6 0-1.1.1-1.5.3-.5.3-.9.6-1.2.9-.3.3-.5.7-.6 1.2-.1.5-.2 1.3-.2 2.4v2.9h10.1v-2.6h-3.3zM7.9 80.8l-.6-.3c-.2-.1-.4-.2-.7-.3.4 0 .7 0 .9-.1H8l3.5-.4-.5 2.7-3.1-1.6zm6.7 3.3-1.7-.8.7-3.9 1.9-.2.5-2.7-10.6 1.7-.6 3.4 9.3 5.2.5-2.7zM11.4 64.8l.2-.5c.2-.6.5-.9.8-1.1.3-.2.7-.2 1.1 0 .4.2.7.4.7.7.1.3 0 .8-.2 1.3l-.2.5-2.4-.9zm7.5 2.9-3.7-1.4 4.5-.7 1.1-2.9-4.8 1c.1-.7 0-1.4-.3-1.9s-.8-.9-1.6-1.2c-.5-.2-1-.3-1.4-.2-.5 0-.9.2-1.3.4-.3.2-.6.5-.9.9-.3.4-.6 1.1-1 2.2l-1 2.7 9.4 3.6 1-2.5zM24.1 56.3l-8.8-5 1.4-2.5 8.8 5.1-1.4 2.4zM27.7 44.7c.6 0 1.2-.1 1.6-.3.4-.2.8-.4 1-.7.2-.3.3-.6.3-.9 0-.3-.1-.6-.4-.8-.3-.2-.5-.3-.8-.2-.3 0-.7.3-1.3.7-.8.6-1.5.9-2.1 1-.6.1-1.2-.2-1.8-.6-.8-.6-1.2-1.4-1.2-2.2-.1-.9.2-1.7.9-2.5.3-.4.7-.8 1.2-1.1.4-.3.9-.5 1.4-.7l1 1.9c-.4.1-.8.2-1.1.4-.3.2-.6.4-.8.6-.2.3-.3.5-.3.8 0 .3.1.5.3.6.2.2.4.2.6.2.2 0 .6-.2 1-.5 0 0 .1 0 .1-.1.9-.7 1.7-1.1 2.2-1.1.3 0 .7 0 1 .1.3.1.7.3 1 .6.8.7 1.3 1.5 1.4 2.4.1 1-.3 1.9-1 2.8-.4.5-.9 1-1.5 1.3-.5.3-1.2.5-1.9.6l-.8-2.3zM45.9 26.9c.6.2 1.1.2 1.6.2s.9-.2 1.2-.4c.3-.2.5-.5.6-.8.1-.3 0-.6-.1-.8-.2-.3-.4-.4-.7-.5-.3 0-.8.1-1.5.3-1 .3-1.7.4-2.3.3-.6-.1-1.1-.5-1.5-1.1-.5-.8-.7-1.6-.5-2.5.2-.9.7-1.6 1.6-2.2.5-.3.9-.5 1.4-.7.5-.2 1-.2 1.6-.2l.4 2.1h-1.1c-.3.1-.7.2-.9.4-.3.2-.5.4-.5.7-.1.2-.1.5.1.7.1.2.3.3.6.4.2 0 .6-.1 1.1-.2h.1c1.1-.4 1.9-.5 2.4-.4.3.1.7.2 1 .4.3.2.6.5.8.9.6.9.8 1.8.6 2.7-.2.9-.8 1.7-1.8 2.4-.6.4-1.2.7-1.8.8-.6.1-1.3.1-2 0l-.4-2.5zM59.8 14.5c0-.2-.1-.4-.1-.7 0-.2-.1-.5-.1-.7.2.3.4.5.5.7.1.2.2.3.3.4l2.3 2.6-2.4 1.2-.5-3.5zm1 7.4-.3-1.9 3.6-1.6 1.2 1.5 2.5-1.1-7.3-7.9-3.2 1.4 1 10.7 2.5-1.1zM74.4 16.8 71.9 7l2.7-.7 2.5 9.8-2.7.7zM85.1 14.5l-.8-10.1 2.7-.2 4.2 4.9c.1.1.2.3.4.6s.4.7.6 1.1c-.1-.4-.2-.8-.2-1.1 0-.3-.1-.6-.1-.9l-.4-5 2.6-.2.8 10.1-2.6.3-4.2-5c-.1-.1-.2-.3-.4-.6s-.4-.7-.6-1.1c.1.4.2.8.2 1.1.1.3.1.6.1.9l.4 5-2.7.2zM104.4 14.3l.8-7.7-2.2-.3.2-2.3 7.3.8-.2 2.4-2.3-.3-.9 7.7-2.7-.3zM115.7 13.7l.5-2.2 4.6 1.2-.6 2.2-4.5-1.2zM133.5 18.5l.9-1.9 4.9 2.3c0 .1-.1.1-.1.2s-.1.2-.2.3c-.8 1.6-1.8 2.6-3 3.1s-2.6.3-4.1-.4c-.7-.4-1.3-.8-1.8-1.3s-.8-1.1-1.1-1.8c-.2-.6-.3-1.3-.3-2s.2-1.4.5-2c.3-.7.7-1.3 1.2-1.7.5-.5 1.1-.8 1.8-1 .7-.2 1.4-.3 2.1-.3.7.1 1.4.2 2.1.6.9.4 1.6 1 2.1 1.7s.8 1.5 1 2.4h-2.7c-.1-.5-.3-.9-.5-1.2-.2-.3-.6-.6-1-.8-.7-.4-1.5-.4-2.1-.1-.7.3-1.2.9-1.6 1.7-.4.9-.5 1.7-.3 2.4s.7 1.2 1.4 1.6c.6.3 1.2.4 1.8.3.6-.1 1-.4 1.3-.9l-2.3-1.2zM143 28.3l6.1-8.1 4.9 3.7-1.3 1.8-2.8-2.1-1 1.4 2.6 1.9-1.3 1.8-2.6-2-1.1 1.4 2.9 2.1L148 32l-5-3.7zM161.4 33.5l.4.4c.4.4.6.8.7 1.2 0 .3-.2.7-.5 1-.3.3-.6.4-1 .4-.3-.1-.7-.3-1.1-.7l-.4-.4 1.9-1.9zm-5.8 5.5 2.9-2.7-1.3 4.4 2.1 2.3 1.1-4.8c.6.4 1.2.6 1.9.5.6-.1 1.2-.4 1.8-.9.4-.4.6-.8.8-1.2.2-.4.2-.9.2-1.3s-.2-.8-.4-1.2c-.2-.4-.7-1-1.5-1.8l-2-2.1-7.3 7 1.7 1.8zM169.7 58.1l-1.4-2.2 3.4-2.8c.2-.2.5-.4.8-.6.3-.2.6-.5 1-.7-.4.2-.9.3-1.6.5-.1 0-.2.1-.3.1l-4.8 1.3-1-1.6 3.3-3.7.2-.2c.4-.5.8-.9 1.2-1.2-.3.2-.7.4-1 .5-.3.2-.7.3-1 .5l-4 1.8-1.4-2.2 9.4-4 1.4 2.3-3.6 4.1-.1.1c-.3.4-.6.7-.9.9.2-.1.3-.2.6-.2.2-.1.5-.2.8-.2l5.2-1.4 1.4 2.3-7.6 6.6zM180.6 65.7c.2 0 .4 0 .7-.1.2 0 .5 0 .7-.1-.3.2-.6.4-.7.5-.2.1-.3.2-.4.3l-2.8 2.1-.9-2.6 3.4-.1zm-7.4.4 1.9-.1 1.3 3.7-1.5 1.1.9 2.6 8.3-6.7-1.2-3.3-10.7.1 1 2.6zM177.3 80.1l9.9-1.8.5 2.7-9.9 1.9-.5-2.8zM178.9 90.9l10.1-.1v2.7l-5.2 3.8c-.1.1-.3.2-.6.4s-.7.4-1.1.6c.4-.1.8-.1 1.1-.1h5.9v2.7l-10.1.1v-2.7l5.2-3.8c.1-.1.3-.2.6-.4s.7-.4 1.1-.6c-.4.1-.8.1-1.1.1h-5.9v-2.7zM70.4 185.7l2-7.5-2-.5 1.7-1.9 3.4.9-2.7 9.7-2.4-.7zM86.9 183.3c-.2-.3-.3-.7-.3-1.2s.2-.8.5-1.1c.3-.3.7-.4 1.2-.3.5 0 .8.2 1.1.5.2.3.3.7.3 1.2s-.2.8-.5 1.1c-.3.2-.7.4-1.2.3-.5 0-.9-.2-1.1-.5zm-1.7 5.4 2.8.3 1.6-2c.8-1 1.3-1.8 1.6-2.4.3-.6.5-1.3.6-1.9.1-1.1-.2-2-.8-2.8-.6-.7-1.5-1.1-2.7-1.3-1.2-.1-2.1.1-2.9.7-.8.6-1.2 1.5-1.3 2.6-.1.9.1 1.7.6 2.4s1.2 1 2 1.1h.6c.2 0 .3 0 .5-.1l-2.6 3.4zM100.6 189.3l3.2-8-4.3.3-.1-2.2 7.7-.6v.5l-3.7 9.8-2.8.2zM116.9 179.5c.1-.5.3-.9.8-1 .4-.1.8.1 1.1.5.3.4.6 1.2.9 2.3.3 1.1.4 1.9.3 2.4-.1.5-.3.9-.8 1-.4.1-.8-.1-1.2-.5-.3-.4-.6-1.2-.9-2.3-.2-1.1-.3-1.9-.2-2.4zm3.3-2.3c-.9-.7-1.9-1-3.1-.7-1.2.3-1.9 1-2.4 2.1-.4 1.1-.4 2.4 0 4s1.1 2.7 2 3.5c.9.7 1.9 1 3.1.7 1.2-.3 1.9-1 2.4-2 .4-1.1.4-2.4 0-3.9-.4-1.8-1.1-3-2-3.7z"/><path class="st1" d="M104.6 154.5H76.4s-.9 1 0 1.7c0 0 1.5-.4 1.5 1.9 0 0 .9 7.5 6.4 7.5h.7s1.5 3.7 3.1 0h15.6s1.6 3.7 3.2 0c0 0 10 1.4 10-11.1 0 0 1.8-15.6-12.5-15.6v15.6h.2zM84.5 141.1c.6 0 1.2-.5 1.2-1.2 0-.6-.5-1.2-1.2-1.2-.6 0-1.2.5-1.2 1.2.1.7.6 1.2 1.2 1.2zM95.1 141.3c-.6 0-1.2-.5-1.2-1.2s.5-1.2 1.2-1.2c.6 0 1.2.5 1.2 1.2s-.6 1.2-1.2 1.2z"/><path class="st1" d="M89.6 149c-1.2 0-1.1-.8-1.1-.8 0-5-3.8-7.2-3.8-7.2l1-.8 2.4 2.4c0-1 1.4-1.4 1.4-1.4v-1.5s-3.4-3.1.1-7.7c.3-.4.8 0 .8 0 3.6 4.6.1 7.7.1 7.7v1.5s1.3.4 1.3 1.4l2.6-2.7.8.9s-3.7 2.4-3.8 7.4c0 0 .1.8-1.1.8h-.7z"/></svg>