<svg version="1.1" id="Layer_1" xmlns="http://www.w3.org/2000/svg" x="0" y="0" viewBox="0 0 192.8 192.8" style="enable-background:new 0 0 192.8 192.8" xml:space="preserve"><style>.st0{fill:#fff}.st1{fill:#1d1d1b}.st2{fill:#982181}.st3{fill:#e30d1b}.st4{fill:#fde600}.st5{fill:#187543}.st6{fill:#fac700}.st7{fill:#fddc00}</style><path class="st0" d="M176.2 100.1h-43.5c-.4 2.1-.9 4.1-1.4 6.1h44.9l6.1-3-6.1-3.1z"/><path class="st1" d="m43.8 100-.1.1h.4c-.1-.2-.2-.2-.3-.1zM29.7 100.1v-1.3c.3.6.5 1 .5 1.3h2v-.1l.1-.1s.4-.3.6-.4c.2-.1.2-.3.1.4v.2h7.3c1.4-2.3 1.7-6.3 1.9-6.7.2-.4.5-4.7 1.1-6.2.6-1.5-.1-1-.1-1-.5.2-1.3 2.3-1.6 2.7-.2.4-.3 0-.3 0 1-1.5 2.1-6.2 2.3-7 .2-.8 1.4-4 1.9-4.6.5-.5.4-.7.3-.7-.1-.1-.8 0-1.5.6-.7.7-1 .4-1 .4-.2-.2 1.9-4.7 1.9-4.7 2.8-6.6 4-7.5 4.4-8.3.4-.8 0-.8 0-.8s-3.2 1.7-3.9 2.3c-.7.7-.5 0-.5 0 3.2-2.3 6.4-6.4 8.5-10.5 2.1-4.1 4.6-6.5 5-6.9.4-.4.4-.9.4-.9s.2-.7-6.5 2.6-9.6 6.7-10.1 7.3c-.5.6-.5.4-.5.4.1-.5.1-5 0-6.3-.1-1.3-.8.3-.9.5-.1.2-2 4.2-5.3 8.4-3.2 4.2-2.7 11.1-2.7 11.1s.3 1.2-.2.8c-.6-.4-1.5-4-1.9-5.1-.3-1-.6-.4-.7 0 0 .4-.3 3.6-1.9 10.1-1.6 6.4-1.6 8.5-1.7 9.5 0 1-.4.4-.6.1-.1-.2-1.5-2.1-2.4-3.5-.8-1.1-.9.2-.9.2-1 9.4 0 14.1.7 15.9h6.2v.3zm10.4-29.6c.4-.7.9-.5 2.4-1.7 0 0-2.1 2-2.5 2.5 0 .1-.4-.1.1-.8z"/><path class="st0" d="M96.4 158.3s-1.1-.5-3-1.8v27.1l3 6.1 3-6.1v-27.1c-1.9 1.3-3 1.8-3 1.8z"/><path class="st1" d="m93.4 162.6-1.6.1c-.2 0-5.8-5-6.9-6.1-1.1-1.1-2.1.2-2.1.2l-2.3 2.3c-.9 1-1.3-.3-1.3-.3-2.3-4.5-3.3-4.1-6.3-5.9-2.9-1.8-4.4-3.7-5-4.3-.5-.6-.7.1-.7.1 0 1.5.2 2.6.4 3.5-.8.3-1.4.8-1.7 1.6l-.2-.2c-3.9-11-11.7-16.9-11.7-16.9s1 7.1 1.9 9.1c.8 1.9.5 2.2.5 2.2-1.3-1.3-3.1-2.3-3.1-2.3 1.9-13-6.3-23.1-6.3-23.1 3.1-.1 3.2.4 4.3.5 1.1.1.2-.8.2-.8-5.9-5.7-8.7-5.3-9.9-5.2-1.2.1-1-.1-1-.1 0-.4 1.1-1.1 1.7-1.5.6.8 1.6 1.3 2.7 1.3 1.9 0 3.4-1.5 3.4-3.4S46.9 110 45 110c-1.4 0-2.7.9-3.2 2.1.1-.5.2-.9.2-.9.6-1.6 1-4.1 1.1-5H30.8c0 .7-.1 1.5-.1 1.5 0 .1-.2.7-.5.1-.3-.5-1-1.1-1-1.1v-.5h-8c-.9 9.2 2.2 14.8 4.9 17.9-.4-.2-.9-.3-1.4-.3-1.9 0-3.4 1.5-3.4 3.4s1.5 3.4 3.4 3.4c1.3 0 2.4-.7 3-1.8 0 0 .1-.2 1.1.3 1.2.6 2.5 1.7 3.3 2.2.2.1.3.2.3.3.2.3-.2.4-.2.4-.5.1.7 2.3 1 2.9.3.6-.6.3-.6.3-2.8-.8-7-2-7.4-2.3-.4-.3-.6-.6-1.1-.7-.4-.1.1.9.2 1 0 .1 1.8 1.4 5.8 7.1 4 5.7 8.4 9.4 9.7 9.9 1.3.5.7.7.7.7-2.4.5-6.4-.2-7.4-.3-.9-.1-.4.3-.4.3 8.5 7.4 15.5 9.3 15.5 9.3 3.3 1.2 2.9 1 3.3 1.3.4.3 1.3.9 2.1 1.5s-.9.4-.9.4c-3 0-3.3 3.6-3.5 4.2-.2.5-3.8 5.4-4.4 5.6-.5.3-.6.6-.5.8.3.7 2.4.8 2.4.8 3.6-.1 6.9-3.3 7.4-3.7.5-.4.9-.4 1.2-.1.3.2 8.8.5 9.5.4.7 0 .2.7.2.7 0 .4-6.5 5-7 5.2-.5.2-.3.6-.3.6.3.1 1.2-.2 1.2-.2 7.7-2.9 9.4-1.4 12.2-1.3 2.8.1 5.2-1.5 5.2-1.5.7-.2.5.6.5.6-.1 1.5 1.4 2.2 1.5 2.3.1.1.4.1.5.5 0 .4-.3.4-.3.4-1.1.2-8.8 8.2-9.4 8.9-.6.7-.1.8-.1.8 3.2-.4 5.1-1.6 8.3-1.9 3.1-.3 6.3-4.4 6.5-4.5.1-.1.6-.3.8-.1.2.2.8.2.8.2.9 0 2-.9 2.7-1.5.7-.6.4.3.4.3s-2.8 10.8-2.9 11.4c0 .6.6.7.9-.1v-.1c.5-.9 3.5-3.9 4.3-3.1.8.8.9-.4.9-.4 0-2.2.3-3.5.8-5 .2-.5.4-.7.5-.8v-20.2h.4zm-51.8-49.8c0 .2-.1.4-.1.6 0 .5.1 1 .4 1.5-.4.5-1.2.8-1.2.8.2-.6.6-1.9.9-2.9zM31.4 130c-.2-.3-1.7-1.1-2.5-1.6s-.7-.9-.7-.9v-.4c0-.5-.1-1-.3-1.4.7.6 1.3 1.1 1.7 1.3 1.4.6 2.2 3.7 1.8 3zm.9-18.6c-.2-.8.8-1.1.8-1.1.2 1.4-.8 1.1-.8 1.1zm14.1 11.1c-.5 1.4-.2 4.2-.2 5-.6-.9-1.7-1.5-2.8-1.5-1.2 0-2.2.6-2.8 1.5 1.2-5.9 5.8-5 5.8-5zm-1.5 18.2c-.3-.4-1.9-1.6-2.1-1.9-.2-.2-.4 0-.8-1.5s-.8-3.1-1.3-4.8c0 0 0-.6.1-.9.6.8 1.6 1.3 2.7 1.3h.1v.2c-.1.8.1 3 .6 4.3.5 1.3 1.1 3 1.1 3.3-.1.2-.1.4-.4 0zm2 2.4c-.1-.2-1.6-4.2-2.2-6.6-.4-1.6-.5-3-.5-3.7.7-.2 1.3-.5 1.8-1.1v.3c-.1 3.1 1.1 9.7 1.4 10.7.3 1.1-.4.6-.5.4zm42.8 29.6c-.4.1-2.8 2.6-3.7 3.7-.8 1-1.6 1.5-2.9 1-1.2-.4-.9-5.3-.9-6.3 0-.9 7.3 1 7.3 1 .4.1.6.4.2.6zm-.7-4c-.4-.1-3.9-1.2-5-1.3-1-.1-.7-.7-.7-.7s1.2-2.6 1.9-2.5c.7.1 4.5 4.1 4.5 4.1.8.6-.3.6-.7.4z"/><path class="st1" d="M98.8 156.9v26.6c-.1.2-1.4 2.7-2.1 4.3v-29.6c-.2.1-.3.2-.3.2s-.1-.1-.3-.2v29.6c-.8-1.6-2.1-4.1-2.1-4.3v-26.6l-.6-.4v27.1l3 6.1 3-6.1v-27.1l-.6.4zM60.4 103.4c0-.2-.1-.4-.1-.6l.1.6zM149 100l.1.1h-.4c.1-.2.2-.2.3-.1zM169.2 100.1c.6-1.8 1.7-6.4.7-15.9 0 0-.1-1.3-.9-.2-.9 1.3-2.2 3.2-2.4 3.5-.1.2-.5.8-.6-.1 0-1-.1-3-1.7-9.5-1.6-6.4-1.8-9.7-1.9-10.1 0-.4-.3-1-.7 0-.3 1-1.3 4.6-1.9 5.1-.6.4-.2-.8-.2-.8s.5-6.9-2.7-11.1c-3.2-4.2-5.2-8.2-5.3-8.4-.1-.2-.8-1.8-.9-.5-.1 1.3-.1 5.7 0 6.3 0 0-.1.2-.5-.4-.5-.6-3.4-4-10.1-7.3-6.7-3.3-6.5-2.6-6.5-2.6s0 .5.4.9 2.9 2.8 5 6.9c2.1 4.1 5.3 8.2 8.5 10.5 0 0 .2.7-.5 0s-3.9-2.3-3.9-2.3-.4 0 0 .8 1.5 1.7 4.4 8.3c0 0 2.1 4.5 1.9 4.7 0 0-.3.2-1-.4-.7-.7-1.4-.7-1.5-.6-.1.1-.2.2.3.7.5.5 1.7 3.8 1.9 4.6.2.8 1.3 5.5 2.3 7 0 0-.1.3-.3 0-.2-.4-1-2.5-1.6-2.7 0 0-.7-.5-.1 1s.9 5.7 1.1 6.2c.2.4.5 4.4 1.9 6.7h7.3v-.2c-.1-.8-.1-.5.1-.4.2.1.6.4.6.4l.1.1v.1h2c.1-.3.2-.8.5-1.3v1.3h6.2v-.3zm-16.4-28.7c-.4-.5-2.5-2.5-2.5-2.5 1.5 1.1 2 1 2.4 1.7.5.6.1.8.1.8z"/><path class="st1" d="M99.4 182.8c.1.1.3.3.5.8.5 1.5.8 2.8.8 5 0 0 .1 1.2.9.4.8-.8 3.8 2.2 4.3 3.1v.1c.3.8 1 .7.9.1 0-.6-2.9-11.4-2.9-11.4s-.3-.9.4-.3c.7.6 1.8 1.5 2.7 1.5 0 0 .6 0 .8-.2.2-.3.6-.1.8.1.1.1 3.3 4.2 6.5 4.5 3.1.3 5 1.5 8.3 1.9 0 0 .5-.1-.1-.8-.6-.7-8.3-8.7-9.4-8.9 0 0-.4 0-.3-.4.1-.4.3-.4.5-.5.1-.1 1.6-.8 1.5-2.3 0 0-.2-.8.5-.6 0 0 2.4 1.6 5.2 1.5 2.8-.1 4.4-1.6 12.2 1.3 0 0 .9.4 1.2.2 0 0 .2-.3-.3-.6-.5-.2-6.9-4.8-7-5.2 0 0-.4-.7.2-.7.7 0 9.2-.2 9.5-.4.3-.3.7-.3 1.2.1s3.8 3.6 7.4 3.7c0 0 2.1-.1 2.4-.8.1-.2 0-.5-.5-.8-.6-.2-4.2-5.1-4.4-5.6-.2-.5-.4-4.2-3.5-4.2 0 0-1.7.2-.9-.4.8-.6 1.7-1.1 2.1-1.5.4-.3-.1-.1 3.3-1.3 0 0 7-1.9 15.5-9.3 0 0 .5-.5-.4-.3-.9.1-4.9.9-7.4.3 0 0-.6-.2.7-.7 1.3-.5 5.7-4.2 9.7-9.9 4-5.7 5.7-6.9 5.8-7.1 0-.1.6-1.1.2-1-.4.1-.6.4-1.1.7-.4.2-4.6 1.5-7.4 2.3 0 0-.9.3-.6-.3.3-.6 1.5-2.7 1-2.9 0 0-.5 0-.2-.4l.3-.3c.7-.4 2.1-1.5 3.3-2.2 1-.5 1.1-.3 1.1-.3.6 1.1 1.7 1.8 3 1.8 1.9 0 3.4-1.5 3.4-3.4s-1.5-3.4-3.4-3.4c-.5 0-1 .1-1.4.3 2.8-3.1 5.9-8.7 4.9-17.9h-8v.5s-.7.6-1 1.1c-.3.5-.5 0-.5-.1s0-.9-.1-1.5h-12.3c.1.9.5 3.3 1.1 5 0 0 .1.4.2.9-.5-1.2-1.7-2.1-3.2-2.1-1.9 0-3.4 1.5-3.4 3.4s1.5 3.4 3.4 3.4c1.1 0 2-.5 2.7-1.3.6.4 1.7 1.1 1.7 1.5 0 0 .1.2-1 .1-1.2-.1-4-.5-9.9 5.2 0 0-.9.9.2.8 1.1-.1 1.2-.7 4.3-.5 0 0-8.2 10.1-6.3 23.1 0 0-1.8 1-3.1 2.3 0 0-.3-.3.5-2.2.8-1.9 1.9-9.1 1.9-9.1s-7.8 6-11.7 16.9l-.2.2c-.3-.8-.9-1.3-1.7-1.6.2-.9.4-2.1.4-3.5 0 0-.2-.8-.7-.1-.5.6-2 2.5-5 4.3-2.9 1.8-4 1.3-6.3 5.9 0 0-.4 1.3-1.3.3l-2.3-2.3s-1-1.4-2.1-.2c-1.1 1.1-6.7 6.1-6.9 6.1l-1.6-.1v20.2h.4zm52.8-67.1s-.8-.3-1.2-.8c.2-.5.4-1 .4-1.5 0-.2 0-.4-.1-.6.2 1 .6 2.3.9 2.9zm10.9 11.4c.4-.3 1-.7 1.7-1.3-.2.4-.3.9-.3 1.4v.4s.1.4-.7.9c-.8.5-2.3 1.3-2.5 1.6-.3.6.5-2.5 1.8-3zm-3.4-16.9s1.1.3.8 1.1c0 .1-1 .4-.8-1.1zm-7.5 17.3c-.6-.9-1.7-1.5-2.8-1.5-1.2 0-2.2.6-2.8 1.5.1-.7.3-3.6-.2-5 0 0 4.6-.9 5.8 5zm-4.6 13.1c0-.3.6-2 1.1-3.3.5-1.3.7-3.5.6-4.3v-.2h.1c1.1 0 2.1-.5 2.7-1.3.1.4.1.9.1.9-.4 1.7-.9 3.3-1.3 4.8s-.6 1.2-.8 1.5c-.2.2-1.8 1.5-2.1 1.9-.4.5-.4.3-.4 0zm-2.2 2.1c.3-1 1.6-7.6 1.4-10.7v-.3c.5.5 1.1.9 1.8 1.1 0 .7-.1 2.1-.5 3.7-.6 2.4-2.1 6.3-2.2 6.6-.1.2-.8.7-.5-.4zm-42.1 29.4s7.3-1.9 7.3-1c0 .9.3 5.8-.9 6.3-1.2.4-2 0-2.9-1-.8-1-3.3-3.5-3.7-3.7-.4-.2-.2-.5.2-.6zm-.3-3.8s3.8-4 4.5-4.1c.7-.1 1.9 2.5 1.9 2.5s.3.6-.7.7c-1 .1-4.6 1.1-5 1.3-.3.2-1.4.2-.7-.4z"/><path class="st0" d="M135.6 54.9c3.7 82.5-39.2 103.4-39.2 103.4s-43-20.9-39.2-103.4h78.4z"/><path class="st2" d="M68.4 54.9H57.2c-1.4 31.6 4 54.1 11.2 69.9V54.9zM90.8 154.6V54.9H79.6v88.4c4.2 5.3 8.1 8.9 11.2 11.3zM102 154.6c3-2.4 7-6 11.2-11.3V54.9H102v99.7zM135.6 54.9h-11.2v69.9c7.3-15.8 12.7-38.3 11.2-69.9z"/><path class="st1" d="M135.9 54.9v-.3h-79v.3c-3.7 81.7 39 103.5 39.4 103.7l.1.1.1-.1c.5-.2 43.1-21.9 39.4-103.7zM96.4 158c-1.3-.7-13.5-7.5-23.9-26l62.9-76.3c.1 3.1.2 6.1.2 9 0 71.3-36.8 92-39.2 93.3z"/><path class="st1" d="M176.2 100.1h-43.5c0 .2-.1.4-.1.6h43.5c.2.1 2.7 1.4 4.3 2.1h-48.2c0 .2-.1.4-.1.6h48.4c-1.6.8-4.1 2.1-4.3 2.1h-44.6c-.1.2-.1.4-.2.6h44.9l6.1-3-6.2-3z"/><path class="st0" d="M16.6 100.1h43.5c.4 2.1.9 4.1 1.4 6.1H16.6l-6.1-3 6.1-3.1z"/><path class="st1" d="M16.6 100.1h43.5c0 .2.1.4.1.6H16.7c-.2.1-2.7 1.4-4.3 2.1h48.2c0 .2.1.4.1.6H12.5c1.6.8 4.1 2.1 4.3 2.1h44.6c.1.2.1.4.2.6h-45l-6.1-3 6.1-3z"/><path class="st0" d="M107.4 127.7c0 6-4.9 10.9-10.9 10.9s-10.9-4.9-10.9-10.9 4.9-10.9 10.9-10.9c6-.1 10.9 4.8 10.9 10.9z"/><path class="st1" d="M107.8 127.7c0 3.1-1.3 6-3.3 8-2.1 2.1-4.9 3.3-8 3.3-3.1 0-6-1.3-8-3.3-2.1-2.1-3.3-4.9-3.3-8 0-3.1 1.3-6 3.3-8 2.1-2.1 4.9-3.3 8-3.3 3.1 0 6 1.3 8 3.3 2 2 3.3 4.8 3.3 8zm-.9 0c0-2.9-1.2-5.5-3.1-7.4-1.9-1.9-4.5-3.1-7.4-3.1-2.9 0-5.5 1.2-7.4 3.1-1.9 1.9-3.1 4.5-3.1 7.4 0 2.9 1.2 5.5 3.1 7.4 1.9 1.9 4.5 3.1 7.4 3.1 2.9 0 5.5-1.2 7.4-3.1 1.9-1.9 3.1-4.6 3.1-7.4z"/><path class="st1" d="M103.7 131.9c-.1-.2-.2-.4-.3-.8l-.2-1.6c-.1-.6-.3-1-.6-1.3-.3-.2-.9-.4-1.7-.5.9-.2 1.6-.5 2.1-.9s.7-.8.7-1.3-.2-1-.7-1.4c-.4-.4-1.1-.7-2-.9-.3-.1-.6-.1-.9-.2l.8-4h-1.8l-.7 3.8h-4l-.7-3.8h-1.8l.8 3.8h-4.1v9.5h2.7v-4.1h2.5l1.6 7.8h1.8l1.6-7.6c.2 0 .4.1.6.1.5.2.8.6.9 1.2l.2 1.2c.1.7.3 1.1.5 1.3h3.2v-.3c-.2.3-.4.2-.5 0zm-7.6-7.5c.8 0 1.5 0 2.1.1l-.5 2.6H95.3l-.5-2.7h1.3zm-4.7 2.7v-2.7H93l.6 2.7h-2.2zm5.1 6.2-.9-4.8h1.8l-.9 4.8zm3.2-6.5c-.1 0-.3.1-.4.1l.5-2.2c.7.2 1 .5 1 1s-.4.9-1.1 1.1z"/><path class="st3" d="M57.4 55.2H135l-10.7 12.9H69l.7 9.3c.9 13.2 1.9 28.1 10 44.8l-7.6 9.2c-8-14.4-14.9-35.8-14.9-66.7 0-3 .1-6.2.2-9.5z"/><path class="st3" d="M80.2 121.8c-1-2-1.9-4-2.7-6 0-.4 1.3-2 2.1-2.1.8-.1 2.2-.9 3.2-1.5l.6-.3c.7-.4 1.9-.2 1.9-.2 2.2-.2 3.2-1.7 3.2-1.7l.2-.4-.5-.1s-2.2-.3-3.5-1.1c-1.3-.8-2.8-.7-2.9-.7l-.7.1-1.7.1c-1.1 0-2.8-.2-3.3-.6l-1-.5c.7-.7 2.2-1.3 2.9-1.3l.7.2c.4.1.9.3 2.3.3 2 0 2.5-.3 4-1.1l.5-.3c1.7-.9 2.8-.7 2.8-.7 3.7 0 4.7-.7 4.8-.8l.7-.5h-.9c-.5 0-1.4-.2-3.2-1.1-1.9-1-3.2-1.2-4.6-1.2-.8 0-1.4.1-2.1.3-.7.2-1.5.3-2.4.3-1.6 0-3.3-.7-4.6-1.3l-.1-.1c-.4-.2-.8-.3-1.2-.4 1.2-.3 2.6-.6 4.3-.6 1.3 0 1.6.1 2 .3.4.1.8.3 2 .3 2.4.1 4.6-1 6.4-2 1.4-.8 2.3-.8 4.3-.8h.8c2.6-.1 4.2-.8 4.3-.9l.7-.4-1.1-.2c-.9-.2-3.4-.7-4.4-1.4-1.2-.8-3-1.3-3-1.3-1.4-.5-4.2-.1-5.2.2-.8.3-2.9.5-3.6.5-.7 0-2.5-.3-3.8-.9-1-.5-3.1-.7-4.7-.7l1-.4c1.8-.7 4.6-1.7 6.2-1.6l1.2.3c.9.2 2.1.5 3.5.5 1.3 0 2.4-.2 3.3-.3l1.8-.3c1.7-.1 4.1-1.8 4.2-1.8.1-.1.9-.8 5.8-.8 5.4-.1 6.4-1.1 6.5-1.2l.4-.5h-.7c-1.2 0-5.3-1.3-7.2-2.4-2-1-3.8-1.1-5.4-1.1-1.6 0-3.5.4-3.5.4s-1.3.4-4.8.4c-3.3 0-4.7-.5-6.5-1.2l-.7-.2c-1.1-.4-3.3-.8-5.2-1 1.3-.1 2.7-.3 3.9-.4l3.2-.3c.9 0 2.6.1 3.7.5s3.4.4 3.5.4c6.7-.2 8.9-1.4 10.9-2.5l1.4-.7c2.5-1.1 6-.9 6-.9 6.6-.2 8.5-1.5 8.6-1.5l.5-.4L110 73c-.5-.1-3-.9-4.5-1.9-1.7-1.1-5.9-1.3-5.9-1.3-1.8 0-3.3.1-4.4.4-1.6.5-6.4.6-6.5.6-.1 0-4.7.4-7.3-1.1-.7-.4-1.7-.6-2.9-.8h45.3l-43.6 52.9z"/><path class="st4" d="M70 68.8c2.2 0 8.9.1 11.1 1.4 2.8 1.5 7.4 1.1 7.6 1.1.2 0 4.9-.1 6.6-.6 1-.3 2.5-.4 4.1-.4.5 0 4.2.3 5.7 1.3 1.7 1.1 4.3 1.9 4.6 1.9 0 0 2.5.6 3.8.9-1 .4-3.2 1-7.5 1.1-.1 0-3.7-.3-6.3.9l-1.4.8c-1.9 1.1-4 2.2-10.6 2.4 0 0-2.2 0-3.3-.4-1.1-.4-3-.6-3.9-.6l-3.2.3c-2.4.3-5.6.6-7 .6 0-.7-.1-1.4-.1-2.1 0 0-.6-8.1-.7-8.7.2.1.3.1.5.1zM70.5 80.2c1.1.1 6.3.7 8.1 1.4l.6.2c1.8.7 3.3 1.3 6.7 1.3 3.7 0 4.9-.4 5-.4 0 0 1.8-.4 3.4-.4 1.5 0 3.3.1 5.1 1.1 1.5.8 4.7 1.9 6.5 2.3-.8.3-2.3.6-5.3.6-5.3.1-6.1.9-6.2 1 0-.1-2.4 1.6-3.9 1.7l-1.9.3c-.9.2-1.9.3-3.2.3-1.4 0-2.5-.3-3.4-.5l-1.3-.3c-1.8-.1-4.6 1-6.4 1.7l-1 .4c-1 .4-1.6.5-1.9.5-.4-4-.7-7.7-.9-11.2zM78 92.6c1.4.6 3.3.9 4 .9.7 0 2.8-.2 3.8-.5.8-.3 3.5-.7 4.8-.2 0 0 1.8.5 2.9 1.3.9.6 2.7 1.1 3.9 1.3-.7.2-1.7.4-3.1.5h-.8c-2 0-3 0-4.6.9-1.8.9-3.9 2-6.1 1.9-1.1 0-1.5-.1-1.9-.3-.4-.1-.9-.3-2.2-.3-1.8 0-3.4.4-4.6.6l-1.4.3c-.5-2.4-.8-4.8-1.1-7.1 1.1-.1 5-.1 6.4.7zM75.4 100.2l.1.1c1.3.6 3.1 1.3 4.9 1.3 1 0 1.8-.2 2.6-.3.7-.1 1.3-.3 2-.3 1.4 0 2.5.3 4.4 1.2.9.5 1.7.7 2.4.9-.7.2-1.7.3-3.4.3 0 0-1.2-.3-3.1.7l-.5.3c-1.4.8-1.9 1-3.7 1.1-1.3 0-1.7-.1-2-.3l-.8-.2c-.9-.1-2.9.8-3.7 1.7-.7-2.4-1.2-4.7-1.6-7 .3 0 1.5.1 2.4.5zM75.8 107.8c.7.4 2.5.6 3.6.6l1.8-.1.7-.1s1.4 0 2.6.7c1 .6 2.4.9 3.2 1-.4.4-1.1 1-2.3 1.1 0 0-1.3-.2-2.2.3l-.6.3c-.9.5-2.3 1.3-3 1.4-.7.1-1.8 1.1-2.3 2-1-2.6-1.9-5.2-2.6-7.7l1.1.5z"/><path class="st5" d="M93.4 163.6c-.3 0-1.1 0-1.1.9 0 1-.1 8.6.2 9.5.2.9.5 1.3.9 1.4v-11.8zM93.1 181l.1-4.5s-1-.7-2.7 3c-1.7 3.8-3.3 9.9-3.4 10.9 0 0 1.9-2.4 4.1-2.2-.2 0 .1-5.6 1.9-7.2zM78.1 174.5s-.5 1.2 0 2.1l1.4.8c.7.4 4.4 3.1 4.6 3.2.3.2 1 .7 1.3.7.4 0 1.2-.6 1.5-.9.3-.3 4.1-4.3 4.4-4.8 0 0 .2 0 .1-.3s-.4-1.4-.4-1.6c0-.2 0-1-.1-.9-.1 0-.4.5-1 1-.6.4-3.1 3-3.2 3.2-.1.2-1.2 1.8-2.8 1.7 0 0-.7 0-2.2-1.2-1.3-1.1-3.1-2.8-3.6-3zM78.3 180.7s-.5.1-.1-.3c1-.6 1.6-1.5 1.9-1.3.3.1 1.1.8 1.3 1 .2.2 1.3.7 1.4.9.1.2.7.4-.1 1-.8.6-1.1 1.2-1.2 1.3-.1.1-.3.3-.4.3-.1 0-.1-.2-.1-.5s0-.6-.2-1c-.3-.4-.7-1.2-1.2-1.3-.7-.1-1.3-.1-1.3-.1zM71.2 187s3-3.1 4.1-4.2l.1-.1c1-1 2.4-1.7 2.9-1.5.4.1 1.9.1 1.8 2.1-.1 1.8-2.4 2.4-2.8 2.6 0 0 2.4-1.3 2.5-2.8.1-1.5-2.4-1.4-3.1-.9-.8.4-2.8 2.1-2.6 3.1 0 0 .1.6.9.6 0 0 .7 0 0 .2-.9.2-1.8.6-3.8.9z"/><path class="st5" d="M78 183.2c.1.1-.1.4-.6.8-.5.3-.9.5-1 .4-.1-.1.1-.4.7-.8.5-.4.8-.5.9-.4zM74.8 185.3s0 .1.9 0 .3-.3.1-.3c-.2 0-.4-.2-.4-.6 0-.4-.1-.4-.3 0-.2.4-.5.5-.3.9zM91 168.4s.1-4 .2-4.4c0 0 .3-.5-.4-1s-4.6-3.2-6.4-5.3c0 0-.3-.8-.9 0-.6.7-3.2 2.7-3.2 2.7s-.4.2-.1.8c.3.6.5.5.7.5.1-.2 3.2-1.8 10.1 6.7z"/><path class="st5" d="M84.2 163.7s-.4-1.1-2.7-1.1c-2.3 0-2.2 1.4-2.4 1.8-.1.4-.9 2.2-1 3.5-.1 1.3-.6 3.4.4 5.1.7 1.2 1.6 1.1 2.9 2.6 0 0 0-.8-.3-1.6s0-7.3 3.1-10.3zM62 175.9s3.2-1 4.6-.9c1.5.1 3.1.4 4.7.5 1.6 0 3.5-.7 4.2-1 .6-.3 1.2-.8 1.5-.9.2-.1.1-1.8.1-1.8s.3-.7-.6-.6c-.9.1-4.4.1-8.7 2.8 0 0-.6.7-1.1.7 0 0-.4-.5.1-.9s3.8-3 9.3-3.3c0 0 1.6-.1.3-.5-1.3-.3-1.4-.7-2.3-.6-.9 0-3.9.4-7 2.8-3.2 2.3-4.6 3.2-5.1 3.7z"/><path class="st3" d="M70.5 154.9c0 1.2-.9 2.1-2.1 2.1-1.2 0-2.1-.9-2.1-2.1 0-1.2.9-2.1 2.1-2.1 1.1 0 2.1.9 2.1 2.1zM46 129.5c0 1.4-1.2 2.6-2.6 2.6-1.4 0-2.6-1.2-2.6-2.6 0-1.4 1.2-2.6 2.6-2.6 1.4 0 2.6 1.1 2.6 2.6zM27.4 127.2c0 1.4-1.2 2.6-2.6 2.6-1.4 0-2.6-1.2-2.6-2.6 0-1.4 1.2-2.6 2.6-2.6 1.5 0 2.6 1.1 2.6 2.6z"/><path class="st5" d="M90.8 171.5s-1.7-.6-3.7-.9c-2.1-.3-4.2-.3-4.3-.9-.1-.6.2-1.1.2-1.1s.4-.3 1-.1c.6.1 5.3 1.3 5.8 1.5.5.2 1.1.1 1.1.6-.1.4.1.8-.1.9zM68.2 150.5s2.5 2.6 4.9 3.8c2.4 1.2 3.4 1.8 4.9 4.8 0 0 1 2.5 1 3 0 0-1.5-.4-2.4-.8-.9-.3-1.4-.9-2.5-1.5-1.2-.6-2.2-1-3.2-1.4-1.5-.6-.9-.9-.1-1.4.6-.3 0-2.1 1.6.3.4.6 3.7 3 4.9 3.4 0 0 .5.3.6-.1.1-.4-.2-.4-.6-.7-.4-.3-4-2.1-5.7-5.2-.9-2.8-3.2-3.1-3.2-3.1s-.1.5-.2-1.1zM35.4 152s6.1.2 7.2.1c1.2-.1 1.1.8 1.4 1.2.3.4 1.6 2.5 1.7 2.6 0 0 .1.4-.8-.3s-3.2-2.7-4.8-2.7c-.1 0-.9 0-.9.2 0 0 0 .1.4.3.4.2 2 .9 2.6 1.4.6.5 1.9.9 3.8 2.5 2 1.6 2.7 2.1 2.5 2.2-.1.1-.1 0-.9-.3-.7-.3-4.1-1.6-5.7-2.7-1.5-1.2-4.8-2.8-6.5-4.5zM26.8 134.4s2.2 2.7 2.9 3.6c.7 1 3.8 5.1 4.7 6.2.9 1.1 5 5.6 11.8 7.8 0 0 1.7.6 0-.5-1.7-1-3.8-3.6-3.9-3.7-.1-.1-2.6-2-3.4-2.4-.7-.4-5.4-4.3-7.9-7.4 0 0-1.1-1.1-.7-1.4 0 0 .4-.3 1 .4s3.1 3.9 5.1 5.4c2 1.5 2.4 2.1 2.7 2.3 0 0 .9.4-.2-.8-1-1.2-3.7-5.2-4.1-5.9-.4-.7-.1-1.1-1.2-1.6-1-.4-3.1-.9-3.4-1.1-.4 0-2.6-.5-3.4-.9zM50.1 144.6s.7 1.7 1 2.9c.3 1.2 1.6 1.6 4 6.1 0 0 .4.9 1.4 1.4 1 .5 2 .6 2.5.9 0 0 1 .6-.1-.4-1.2-1-3.4-4-5.4-5.8 0 0-.7-.6-.3-.9 0 0 .4-.3.9.3s3.8 4 4.1 4.4c0 0 .7.7.2-.2-.6-1-.8-2.2-1.3-3-.5-.8-1.3-1.8-2.8-2.7-1.6-1.1-3.9-2.6-4.2-3zM31.3 99.9s2.3-2.5 3.7-3.8c1.4-1.3 5.9-7.1 6.9-10.6s1.6-5.9 2-6.7c.4-.8-1.8 1.3-2.2 2-.4.6-2.8 4-5.6 5.4 0 0-.9.2-1.4 2.5-.5 2.3-1.5 5.9-1.6 6.3 0 0 .4-.1.9-.9.4-.7 3.5-4.4 3.9-5.3.4-.9 2.5-4 2.8-6.2 0 0 .2-.4.6-.3.4.1 0 .4-.2.7-.1.3-.4 1.9-.8 2.7-.4.8-2.5 4.9-5.6 8.5-2.1 2.4-1.7 1.7-1.7 1.7s-.1-.2-.3.4c-.2.6 0 .1 0 .1s-.4.6-.7 1.8c-.3 1.3-1.5 1.7-.7 1.7zM161.5 99.9s-2.3-2.5-3.7-3.8c-1.4-1.3-5.9-7.1-6.9-10.6s-1.6-5.9-2-6.7c-.4-.8 1.8 1.3 2.2 2 .4.6 2.8 4 5.6 5.4 0 0 .9.2 1.4 2.5.5 2.3 1.5 5.9 1.6 6.3 0 0-.4-.1-.9-.9-.4-.7-3.5-4.4-3.9-5.3-.4-.9-2.5-4-2.8-6.2 0 0-.2-.4-.6-.3-.4.1 0 .4.2.7.1.3.4 1.9.8 2.7.4.8 2.5 4.9 5.6 8.5 2.1 2.4 1.7 1.7 1.7 1.7s.1-.2.3.4c.2.6 0 .1 0 .1s.3.6.6 1.9c.4 1.2 1.6 1.6.8 1.6z"/><path class="st3" d="M47.5 113.4c0 1.4-1.2 2.6-2.6 2.6-1.4 0-2.6-1.2-2.6-2.6 0-1.4 1.2-2.6 2.6-2.6 1.5 0 2.6 1.1 2.6 2.6z"/><path class="st5" d="M77.1 163s-3-2.3-6.4-3.6c-3.3-1.3-5.6-2.1-6.2-2.4 0 0 1.1 2.1 1.7 3.2.6 1.1 2.8 4.2 4.5 5.6 1.7 1.4 5 2.8 5.7 2.9.6 0 .7 0 .7-.4s.1-2.7.7-3.8c.6-1.2-.7-1.5-.7-1.5zm-.5 4.6c-.1.1-.4.1-.5 0-.2-.3-3.2-2.4-4.5-3.3-1.9-1.4-4.3-4-4.4-4.2-.1-.1-.1-.4 0-.5.1-.1.4-.1.5 0 0 0 2.4 2.7 4.3 4.1 3.3 2.4 4.5 3.3 4.6 3.5.2.1.2.3 0 .4zM72 168.2c-.7-.3-2.4-1.8-2.4-1.8s-.9.2-5.9 0-8.7-2-10.6-2.1c-1.9-.1-2.7 2.3-3 3.7-.3 1.4-3.5 5.1-4 5.5-.6.4.1.6.1.6 3.5 0 6.7-3 7.5-3.5.8-.6 1.2-.4 2-.3.8.2 9.6.3 10.3.4.7 0 1-.1 1.5-.4.4-.3 3.7-1.6 4.4-1.7.5-.1.1-.4.1-.4zm-5.3.5c-2-.8-5.3-1.3-9.5-1.5-2.5-.1-3.7.6-4.8 1.3l-.3.2c-1 .6-1.5 2.2-1.5 2.2-.1.2-.3.3-.4.2-.2-.1-.3-.3-.2-.4 0-.1.5-1.9 1.8-2.6l.3-.2c1.1-.7 2.4-1.5 5.2-1.4 4.3.2 7.6.7 9.7 1.6.2.1.3.3.2.5-.1.1-.3.2-.5.1zM65.6 161.6c-1.1-1.5-1.3-1.8-6.1-4.4-4.9-2.7-14-3.6-14-3.6 7.5 10.3 13.1 11.6 22.7 11.6-.2-.2-1.5-2.1-2.6-3.6zm-1.1 2h-.2c-1 0-2.8-.1-6-1.5-3.4-1.5-7.6-5.2-7.8-5.4-.1-.1-.2-.4 0-.5.1-.1.4-.2.5 0 0 0 4.3 3.8 7.6 5.3 3.1 1.4 4.7 1.4 5.7 1.5h.2c.2 0 .4.2.3.4.1.1-.1.2-.3.2zM65.4 156c-3.2-10.2-10.2-16.7-10.2-16.7.6 1.5 2.4 9.1 2.8 9.9.4.8 2.1 5 3.1 6.6 1 1.5 1.3 1.5 1.7 1.8.4.3.7.3.3-.2-.4-.5-.6-1.6-.6-1.8 0-.3.3-.6 1.6.1 1.4.6 1.3.3 1.3.3zm-3.3-2.7c-.4-.7-1.2-2.7-1.6-3.6-.4-.9-1.3-3.2-1.6-3.8-.3-.6-.7-1.9-.9-2.1-.1-.2-.3-.4-.2-.7 0 0 .2-.1.6.7 0 0 2.4 4.8 2.7 5.6.3.9 1.3 2.9 1.3 3.8 0 .1.1.9-.3.1zM46.2 143.5c-6-7.2-12.4-9.8-12.4-9.8 3.5 7 6.1 10.2 11.3 15.4 5.2 5.2 9 4.9 9 4.9-2.9-4-1.9-3.2-7.9-10.5zm2.9 6.8c-.2.1-.4-.1-.4-.2-.7-2.4-3.6-5.5-5.1-7.2l-.4-.5c-1.5-1.6-4.3-4.1-4.3-4.2-.1-.1-.2-.4 0-.5.1-.1.4-.2.5 0 .1.1 2.9 2.6 4.4 4.2l.4.5c1.7 1.8 4.5 4.9 5.2 7.5 0 .2-.1.4-.3.4zM47.1 124.7s-1 13.7 1.7 19.5c0 0-.3-1.5-.1-1.7 0 0 2.4 1.2 3.2 2 0 0 .4.9.4-.9.1-1.8.8-10.5-5.2-18.9zm3.1 15.2c-.2 0-.4-.2-.4-.4-.1-7.5-1.1-8.5-1.1-8.6-.1-.1-.2-.3-.1-.5.1-.1.3-.2.5-.1s1.3 1.2 1.4 9.2c0 .3-.1.4-.3.4z"/><path class="st5" d="M42.1 117.9c-2.6 0-4.1 2.4-4.9 4.1-.8 1.6-.6 4.4-.6 5.2 0 .8-.1 2.5-.3 3.8-.3 1.3-.1 2.6-.1 2.6 1.3.5 4.4 3.2 4.4 3.2s.2-.7-.5-3.3c-.7-2.6-.6-5-.6-5 .4-7 5.9-6.8 6.2-6.9.3-.1 1.2-.3 1.9-.1.8.2 1.6.1 1.6.1-.8-.6-4.5-3.7-7.1-3.7zm2.5 2.7s-1.8-.7-3.5.1c-2 .9-2.8 4.2-2.8 4.2-.2.7-.2 4.5-.2 5.9 0 .2-.1.3-.3.3-.2 0-.3-.1-.3-.3 0-.5 0-5.2.2-6.1.3-1.2 1.4-3.8 3.1-4.6 1.9-.9 3.9-.2 3.9-.1.2.1.2.2.2.4s-.1.3-.3.2zM26.9 100.1c-.1-.2-.1-.3-.2-.4-.1-.6-.9-3.4-1-3.7-.1-.4-.6-2.8-.6-3.2 0-.3-.1-1.1 0-1.2 0 0 .3-.2.5 1 .2 1.3.7 3.5.8 4 .1.5.7 2.6.9 3.2 0 .1 0 .1.1.2h1.2c0-7.8-4.9-14.6-4.9-14.6s-.8 7.5.5 14.6h2.7v.1zM37.2 100.1c.4-.5.9-1.2 1.1-1.7.3-.9.8-1.8.9-2.2.1-.5.5-1.2.7-1.1.2.1.3.3-.3 1.6-.5 1.1-1.3 2.9-1.7 3.5h1.6c1.4-2.8 1.7-4.7 1.7-5.1.1-.7.7-4.4.7-4.4-.2.9-2.8 4-6.5 7.7-.6.6-1.1 1.2-1.5 1.9h3.3v-.2zM26.2 106.1c.5 1.1 1.1 2 1.7 2.9 0-.3-.2.9.3-2.9h-2zM28.5 111.7c.1-.6-.6-.7-.6-.7-2.1-2.2-2.9-3.8-3.1-4.8h-2.7c-.3 1.4-.2 3.4-.2 3.4.1 11.9 8 16.4 8 16.4-1.7-3.9-1.4-13.7-1.4-14.3zm-1 6.9c-.2.1-.4 0-.4 0-.4-.4-1.6-1.9-2.5-4.2-.6-1.5-.6-3.7-.6-4.5 0-.7.3-.9.3-.9.2 0 .1.5.1.5.1 2.2.6 3.7 1.1 5.2.5 1.5 1.8 3.2 1.9 3.4 0 .2.2.4.1.5zM37.1 106.1c-.3.5-.7 1.2-1.6 2.3-1.3 1.8-1.3 2.6-1.8 3.5-.4.9-.1 1.3-.1 1.3 1.1 1.6 1.6 4.5 1.6 4.5.3.1.6-1 .7-1.4.1-.4.7-2.7 1.1-3.5.4-.9.9-2.7 1.1-3.2.2-.5.5-1 .8-1.1.3 0 .3.5.1.9-.1.3-.9 2.5-1.1 3.1-.2.6-.7 1.9-.9 2.5-.1.6-1 2.6-1.2 3.4-.2.9-.2 1.1-.1 1.6s.2 1.9.2 1.9c.1-1 .7-1.9 2.1-4 1.3-2.1 2.5-5.1 2.8-6.1.3-.9.1-1.5.6-3 .2-.8.5-1.9.7-2.8h-5v.1zM35.6 106.1H32c-.1.5-.1.9-.1 1-.1.6-.6 1-.3 2.3.3 1.3 2.6-1.6 2.6-1.6.5-.5 1-1.1 1.4-1.7zM32.5 74.7c-.8-1.7-1.7-4.5-1.7-4.5-.1.3-.6 3.7-.8 5.1-.1 1.4-1.6 6.2-2 8.8-.3 2.6-.1 5.7.3 6.3.4.6 1.8 4.2 2.2 5.7.3 1.5.4 1 .4 1 0-.8 1.1-3.6 1.6-4.9.5-1.3 1.5-5.5 1.8-9.4.3-3.8-1-6.4-1.8-8.1zm-1.9 4.8c-.4 1.7-.3 4.9-.3 5.5 0 .6.2 5.2.3 5.5.1.3.4.8.1 1-.3.2-.5-.8-.5-.8-.7-1.9-.5-7.5-.5-8.4 0-1 .4-3.9.8-5.1.3-1.2.7-.8.7-.8.4.1-.2.4-.6 3.1zM38.6 74.5c-1.6 1.7-2.3 4.7-2.5 6.3-.2 1.5-.4 4.4-.4 4.4.2-.2 1.2-.8 2.4-1.9 1.2-1.1 4.1-4.4 5.4-7.9 1.2-3.5 4-8.8 4-8.8-5.5 3.5-7.3 6.2-8.9 7.9zm3.9-.9c-.7 1-3.5 5.7-3.5 5.7s-1.4 2.8-1.7 2.1c0 0-.2-.1.2-.9s1.6-2.4 2.2-3.6c.6-1.2 2.6-3.8 2.7-4.3.1-.4.6-1 .8-.9.2.2-.1 1-.7 1.9zM42.9 59.4s-.6.2-.7 2.2c-.1 1.9-1.2 6.3-1.4 7.1 0 0 6.1-4.2 10.1-9.6 1.5-2.3 3.3-6.3 5.5-9.1 0 .1-10.2 3.7-13.5 9.4zm9.3-4.5c-.7.3-2.3 1.4-3.3 2.5s-3.2 3.8-3.5 4.5c-.3.5-.7.7-.7.7s-.4.2.2-.9c.6-1.2 2.6-3.7 3.6-4.7 1-1.1 2.5-2 3.4-2.4.9-.4 1.1-.4 1.2-.2-.1-.2-.2.2-.9.5zM41.1 54.4c-.2.6-3.1 5.3-4.7 7.6s-2.3 5.3-2.4 8c0 2.7 1 8.1 1 8.1.3 1 .4.3.4.3.1-1.2 2.2-5.1 2.2-5.1 4.6-9.7 3.5-18.9 3.5-18.9zm-2.5 10.3c-.1.6-1.1 3.1-1.2 3.5-.1.4-.7 2.8-.9 3.1-.2.3-.4 1.3-.7 1.2-.3 0-.1-.5 0-.8.1-.3 1.2-3.8 1.3-4.4.1-.6 1.6-4.9 1.9-6.3.3-1.3.5-1 .5-1 .6-.7-.8 4.2-.9 4.7z"/><path class="st5" d="M34.9 120.5c-.3-4.6-5-11.6-5-11.6-2.2 12.1 3.7 23.9 5.1 24 .7-5.7.4-7.5-.1-12.4zm-2.2 4.5c-.2-.2-.3-1.2-.4-1.9-.1-.7-.3-2.3-.3-2.8s-.1-.9-.2-2.4c-.1-1.6.3-1.3.3-1.3.5.5.3 1.7.3 1.9 0 .2.3 2.2.3 2.5 0 .3.3 2.8.3 3 .1.2-.1 1.2-.3 1zM99.4 163.6c.3 0 1.1 0 1.1.9 0 1 .1 8.6-.2 9.5-.2.9-.5 1.3-.9 1.4v-11.8zM99.7 181l-.1-4.5s1-.7 2.7 3c1.7 3.8 3.3 9.9 3.4 10.9 0 0-1.9-2.4-4.1-2.2.2 0-.1-5.6-1.9-7.2zM114.7 174.5s.5 1.2 0 2.1l-1.4.8c-.7.4-4.4 3.1-4.6 3.2-.3.2-1 .7-1.3.7-.4 0-1.2-.6-1.5-.9-.3-.3-4.1-4.3-4.4-4.8 0 0-.2 0-.1-.3s.4-1.4.4-1.6c0-.2 0-1 .1-.9.1 0 .4.5 1 1 .6.4 3.1 3 3.2 3.2.1.2 1.2 1.8 2.8 1.7 0 0 .7 0 2.2-1.2 1.3-1.1 3.1-2.8 3.6-3zM114.5 180.7s.5.1.1-.3c-1-.6-1.6-1.5-1.9-1.3-.3.1-1.1.8-1.3 1-.2.2-1.3.7-1.4.9-.1.2-.7.4.1 1 .8.6 1.1 1.2 1.2 1.3.1.1.3.3.4.3.1 0 .1-.2.1-.5s0-.6.2-1c.3-.4.7-1.2 1.2-1.3.7-.1 1.3-.1 1.3-.1z"/><path class="st5" d="M121.6 187s-3-3.1-4.1-4.2l-.1-.1c-1-1-2.4-1.7-2.9-1.5-.4.1-1.9.1-1.8 2.1.1 1.8 2.4 2.4 2.8 2.6 0 0-2.4-1.3-2.5-2.8-.1-1.5 2.4-1.4 3.1-.9.8.4 2.8 2.1 2.6 3.1 0 0-.1.6-.9.6 0 0-.7 0 0 .2.9.2 1.8.6 3.8.9z"/><path class="st5" d="M114.8 183.2c-.1.1.1.4.6.8.5.3.9.5 1 .4.1-.1-.1-.4-.7-.8-.5-.4-.8-.5-.9-.4zM118 185.3s0 .1-.9 0-.3-.3-.1-.3c.2 0 .4-.2.4-.6 0-.4.1-.4.3 0 .2.4.5.5.3.9zM101.8 168.4s-.1-4-.2-4.4c0 0-.3-.5.4-1s4.6-3.2 6.4-5.3c0 0 .3-.8.9 0 .6.7 3.2 2.7 3.2 2.7s.4.2.1.8c-.3.6-.5.5-.7.5-.1-.2-3.2-1.8-10.1 6.7z"/><path class="st5" d="M108.6 163.7s.4-1.1 2.7-1.1c2.3 0 2.2 1.4 2.4 1.8.1.4.9 2.2 1 3.5.1 1.3.6 3.4-.4 5.1-.7 1.2-1.6 1.1-2.9 2.6 0 0 0-.8.3-1.6s0-7.3-3.1-10.3zM130.8 175.9s-3.2-1-4.6-.9c-1.5.1-3.1.4-4.7.5-1.6 0-3.5-.7-4.2-1-.6-.3-1.2-.8-1.5-.9-.2-.1-.1-1.8-.1-1.8s-.3-.7.6-.6c.9.1 4.4.1 8.7 2.8 0 0 .6.7 1.1.7 0 0 .4-.5-.1-.9s-3.8-3-9.3-3.3c0 0-1.6-.1-.3-.5 1.3-.3 1.4-.7 2.3-.6.9 0 3.9.4 7 2.8 3.2 2.3 4.6 3.2 5.1 3.7z"/><path class="st3" d="M122.4 154.9c0 1.2.9 2.1 2.1 2.1 1.2 0 2.1-.9 2.1-2.1 0-1.2-.9-2.1-2.1-2.1-1.2 0-2.1.9-2.1 2.1zM146.8 129.5c0 1.4 1.2 2.6 2.6 2.6 1.4 0 2.6-1.2 2.6-2.6 0-1.4-1.2-2.6-2.6-2.6-1.4 0-2.6 1.1-2.6 2.6zM165.4 127.2c0 1.4 1.2 2.6 2.6 2.6 1.4 0 2.6-1.2 2.6-2.6 0-1.4-1.2-2.6-2.6-2.6-1.5 0-2.6 1.1-2.6 2.6z"/><path class="st5" d="M102 171.5s1.7-.6 3.7-.9c2.1-.3 4.2-.3 4.3-.9.1-.6-.2-1.1-.2-1.1s-.4-.3-1-.1c-.6.1-5.3 1.3-5.8 1.5-.5.2-1.1.1-1.1.6.1.4-.1.8.1.9zM124.6 150.5s-2.5 2.6-4.9 3.8c-2.4 1.2-3.4 1.8-4.9 4.8 0 0-1 2.5-1 3 0 0 1.5-.4 2.4-.8.9-.3 1.4-.9 2.5-1.5 1.2-.6 2.2-1 3.2-1.4 1.5-.6.9-.9.1-1.4-.6-.3 0-2.1-1.6.3-.4.6-3.7 3-4.9 3.4 0 0-.5.3-.6-.1-.1-.4.2-.4.6-.7.4-.3 4-2.1 5.7-5.2.9-2.8 3.2-3.1 3.2-3.1s.1.5.2-1.1zM157.4 152s-6.1.2-7.2.1c-1.2-.1-1.1.8-1.4 1.2-.3.4-1.6 2.5-1.7 2.6 0 0-.1.4.8-.3s3.2-2.7 4.8-2.7c.1 0 .9 0 .9.2 0 0 0 .1-.4.3-.4.2-2 .9-2.6 1.4-.6.5-1.9.9-3.8 2.5-2 1.6-2.7 2.1-2.5 2.2.1.1.1 0 .9-.3.7-.3 4.1-1.6 5.7-2.7 1.5-1.2 4.8-2.8 6.5-4.5zM166 134.4s-2.2 2.7-2.9 3.6c-.7 1-3.8 5.1-4.7 6.2-.9 1.1-5 5.6-11.8 7.8 0 0-1.7.6 0-.5 1.7-1 3.8-3.6 3.9-3.7.1-.1 2.6-2 3.4-2.4.7-.4 5.4-4.3 7.9-7.4 0 0 1.1-1.1.7-1.4 0 0-.4-.3-1 .4s-3.1 3.9-5.1 5.4c-2 1.5-2.4 2.1-2.7 2.3 0 0-.9.4.2-.8 1-1.2 3.7-5.2 4.1-5.9.4-.7.1-1.1 1.2-1.6 1-.4 3.1-.9 3.4-1.1.4 0 2.6-.5 3.4-.9zM142.7 144.6s-.7 1.7-1 2.9c-.3 1.2-1.6 1.6-4 6.1 0 0-.4.9-1.4 1.4-1 .5-2 .6-2.5.9 0 0-1 .6.1-.4 1.2-1 3.4-4 5.4-5.8 0 0 .7-.6.3-.9 0 0-.4-.3-.9.3s-3.8 4-4.1 4.4c0 0-.7.7-.2-.2.6-1 .8-2.2 1.3-3 .5-.8 1.3-1.8 2.8-2.7 1.6-1.1 3.9-2.6 4.2-3z"/><path class="st3" d="M145.3 113.4c0 1.4 1.2 2.6 2.6 2.6 1.4 0 2.6-1.2 2.6-2.6 0-1.4-1.2-2.6-2.6-2.6-1.5 0-2.6 1.1-2.6 2.6z"/><path class="st5" d="M115.1 164.4c.6 1.1.7 3.4.7 3.8 0 .4 0 .5.7.4.6 0 4-1.5 5.7-2.9 1.7-1.4 3.8-4.4 4.5-5.6.6-1.1 1.7-3.2 1.7-3.2-.6.2-2.9 1.1-6.2 2.4-3.3 1.3-6.4 3.6-6.4 3.6s-1.4.4-.7 1.5zm1 2.7c.2-.2 1.3-1.1 4.6-3.5 1.9-1.3 4.3-4 4.3-4.1.1-.1.4-.2.5 0 .1.1.2.4 0 .5-.1.1-2.5 2.8-4.4 4.2-1.3.9-4.3 3.1-4.5 3.3-.1.1-.4.2-.5 0-.1 0-.1-.2 0-.4zM121 168.6c.6.1 3.9 1.4 4.4 1.7.4.3.8.4 1.5.4s9.5-.2 10.3-.4c.8-.2 1.2-.3 2 .3s4 3.6 7.5 3.5c0 0 .7-.2.1-.6-.6-.4-3.7-4-4-5.5-.3-1.4-1-3.8-3-3.7-1.9.1-5.6 1.8-10.6 2.1-5 .2-5.9 0-5.9 0s-1.7 1.5-2.4 1.8c-.1 0-.5.3.1.4zm4.6-.1c-.1-.2 0-.4.2-.5 2.1-.8 5.4-1.3 9.7-1.6 2.8-.1 4.1.7 5.2 1.4l.3.2c1.3.8 1.8 2.6 1.8 2.6.1.2-.1.4-.2.4-.2.1-.4-.1-.4-.2 0 0-.5-1.6-1.5-2.2l-.3-.2c-1.1-.7-2.2-1.4-4.8-1.3-4.2.2-7.5.7-9.5 1.5-.2.2-.4.1-.5-.1z"/><path class="st5" d="M124.6 165.2c9.6 0 15.2-1.2 22.7-11.6 0 0-9.1.9-14 3.6s-5 2.9-6.1 4.4-2.4 3.4-2.6 3.6zm3.3-1.9c0-.2.1-.4.3-.4h.2c1 0 2.6-.1 5.7-1.5 3.3-1.5 7.6-5.2 7.6-5.3.1-.1.4-.1.5 0 .1.1.1.4 0 .5-.2.2-4.4 3.9-7.8 5.4-3.2 1.4-5 1.5-6 1.5h-.2c-.1.1-.3 0-.3-.2zM128.7 155.7c1.4-.6 1.6-.3 1.6-.1 0 .3-.3 1.3-.6 1.8-.4.5-.1.5.3.2s.7-.2 1.7-1.8c1-1.5 2.7-5.8 3.1-6.6.4-.8 2.2-8.5 2.8-9.9 0 0-7 6.4-10.2 16.7 0 0-.1.3 1.3-.3zm1.7-2.4c0-1 1-3 1.3-3.8.3-.9 2.7-5.6 2.7-5.6.4-.9.6-.7.6-.7.1.3-.1.6-.2.7-.1.2-.5 1.5-.9 2.1-.3.6-1.2 2.9-1.6 3.8-.4.9-1.2 2.9-1.6 3.6-.4.7-.3-.1-.3-.1zM138.7 154s3.8.3 9-4.9 7.8-8.3 11.3-15.4c0 0-6.4 2.5-12.4 9.8-6 7.3-5 6.5-7.9 10.5zm4.8-4.1c.7-2.6 3.6-5.6 5.2-7.5l.4-.5c1.5-1.6 4.3-4.1 4.4-4.2.1-.1.4-.1.5 0 .1.1.1.4 0 .5 0 0-2.9 2.5-4.3 4.2l-.4.5c-1.5 1.7-4.4 4.8-5.1 7.2-.1.2-.3.3-.4.2-.3 0-.4-.2-.3-.4zM140.4 143.6c0 1.8.4.9.4.9.8-.8 3.2-2 3.2-2 .2.2-.1 1.7-.1 1.7 2.7-5.9 1.7-19.5 1.7-19.5-5.9 8.4-5.2 17.1-5.2 18.9zm1.9-4c.1-7.9 1.2-9 1.4-9.2.2-.1.3 0 .5.1.1.1.1.4-.1.5 0 0-1 1.1-1.1 8.6 0 .2-.2.4-.4.4-.2-.1-.3-.2-.3-.4z"/><path class="st5" d="M143.6 121.5s.8.1 1.6-.1 1.7 0 1.9.1c.3.1 5.8-.1 6.2 6.9 0 0 .1 2.4-.6 5s-.5 3.3-.5 3.3 3.2-2.8 4.4-3.2c0 0 .1-1.3-.1-2.6-.3-1.3-.4-3-.3-3.8 0-.8.2-3.5-.6-5.2-.8-1.6-2.3-4.1-4.9-4.1-2.6.1-6.3 3.2-7.1 3.7zm4.2-1.1c-.1-.2 0-.3.2-.4.1 0 2-.8 3.9.1 1.8.8 2.8 3.4 3.1 4.6.2.9.2 5.6.2 6.1 0 .2-.1.3-.3.3-.2 0-.3-.1-.3-.3 0-1.4 0-5.3-.2-5.9 0 0-.9-3.3-2.8-4.2-1.6-.8-3.4-.1-3.5-.1-.1.1-.2 0-.3-.2zM165.9 100.1c.1-.2.1-.3.2-.4.1-.6.9-3.4 1-3.7.1-.4.6-2.8.6-3.2 0-.3.1-1.1 0-1.2 0 0-.3-.2-.5 1-.2 1.3-.7 3.5-.8 4-.1.5-.7 2.6-.9 3.2 0 .1 0 .1-.1.2h-1.2c0-7.8 4.9-14.6 4.9-14.6s.8 7.5-.5 14.6h-2.7v.1zM155.6 100.1c-.4-.5-.9-1.2-1.1-1.7-.3-.9-.8-1.8-.9-2.2-.1-.5-.5-1.2-.7-1.1-.2.1-.3.3.3 1.6.5 1.1 1.3 2.9 1.7 3.5h-1.6c-1.4-2.8-1.7-4.7-1.7-5.1-.1-.7-.7-4.4-.7-4.4.2.9 2.8 4 6.5 7.7.6.6 1.1 1.2 1.5 1.9h-3.3v-.2zM166.6 106.1c-.5 1.1-1.1 2-1.7 2.9 0-.3.2.9-.3-2.9h2zM162.8 126s7.9-4.6 8-16.4c0 0 0-2-.2-3.4h-2.7c-.2 1-1 2.6-3.1 4.8 0 0-.6.1-.6.7.1.6.4 10.4-1.4 14.3zm2.7-7.9c.1-.1 1.5-1.9 1.9-3.4.5-1.5 1-3 1.1-5.2 0 0-.1-.5.1-.5 0 0 .3.1.3.9 0 .7-.1 3-.6 4.5-.9 2.3-2.2 3.8-2.5 4.2 0 0-.3.1-.4 0-.2-.1 0-.3.1-.5zM155.7 106.1c.3.5.7 1.2 1.6 2.3 1.3 1.8 1.3 2.6 1.8 3.5.4.9.1 1.3.1 1.3-1.1 1.6-1.6 4.5-1.6 4.5-.3.1-.6-1-.7-1.4-.1-.4-.7-2.7-1.1-3.5-.4-.9-.9-2.7-1.1-3.2-.2-.5-.5-1-.8-1.1-.3 0-.3.5-.1.9.1.3.9 2.5 1.1 3.1.2.6.7 1.9.9 2.5.1.6 1 2.6 1.2 3.4.2.9.2 1.1.1 1.6s-.2 1.9-.2 1.9c-.1-1-.7-1.9-2.1-4-1.3-2.1-2.5-5.1-2.8-6.1-.3-.9-.1-1.5-.6-3-.2-.8-.5-1.9-.7-2.8h5v.1zM157.2 106.1h3.7c.1.5.1.9.1 1 .1.6.6 1 .3 2.3-.3 1.3-2.6-1.6-2.6-1.6-.6-.5-1.1-1.1-1.5-1.7zM158.5 82.8c.3 3.8 1.3 8 1.8 9.4.5 1.3 1.6 4.1 1.6 4.9 0 0 .1.5.4-1 .3-1.5 1.8-5.1 2.2-5.7.4-.6.6-3.7.3-6.3-.3-2.6-1.8-7.4-2-8.8-.1-1.4-.6-4.7-.8-5.1 0 0-.9 2.8-1.7 4.5-.8 1.7-2.1 4.3-1.8 8.1zm3.1-6.4s.3-.4.7.8c.3 1.2.8 4.1.8 5.1s.2 6.6-.5 8.4c0 0-.2 1-.5.8-.3-.2 0-.7.1-1 .1-.3.4-4.9.3-5.5 0-.6.1-3.8-.3-5.5-.4-2.7-1-3-.6-3.1zM145.4 66.5s2.8 5.2 4 8.8c1.2 3.5 4.2 6.8 5.4 7.9 1.2 1.1 2.1 1.7 2.4 1.9 0 0-.2-2.8-.4-4.4-.2-1.5-.9-4.6-2.5-6.3-1.7-1.6-3.5-4.3-8.9-7.9zm4.2 5.3c.2-.1.7.4.8.9.1.4 2.2 3.1 2.7 4.3s1.8 2.8 2.2 3.6c.4.8.2.9.2.9-.3.7-1.7-2.1-1.7-2.1s-2.8-4.7-3.5-5.7c-.6-1-.9-1.8-.7-1.9zM136.4 50.1c2.2 2.7 4 6.8 5.5 9.1 4 5.4 10.1 9.6 10.1 9.6-.2-.8-1.3-5.2-1.4-7.1-.1-1.9-.7-2.2-.7-2.2-3.3-5.8-13.5-9.4-13.5-9.4zm3.4 4.1c.1-.2.3-.2 1.2.2.9.4 2.4 1.3 3.4 2.4 1 1.1 3 3.6 3.6 4.7.6 1.2.2.9.2.9s-.5-.2-.7-.7c-.2-.7-2.5-3.4-3.5-4.5s-2.5-2.2-3.3-2.5c-.8-.1-.9-.5-.9-.5zM155.2 73.3s2.1 3.9 2.2 5.1c0 0 .1.7.4-.3 0 0 1.1-5.4 1-8.1-.1-2.7-.8-5.7-2.4-8-1.6-2.3-4.5-7-4.7-7.6 0 0-1.1 9.2 3.5 18.9zm-1.9-13.2s.2-.3.5 1 1.8 5.7 1.9 6.3c.1.6 1.2 4.1 1.3 4.4.1.3.3.8 0 .8s-.6-1-.7-1.2c-.2-.3-.8-2.7-.9-3.1-.1-.4-1-3-1.2-3.5-.1-.6-1.5-5.5-.9-4.7z"/><path class="st5" d="M157.9 132.9c1.4-.1 7.2-11.9 5.1-24 0 0-4.7 7-5 11.6-.6 4.9-.9 6.7-.1 12.4zm1.9-8.9c.1-.2.3-2.7.3-3 0-.3.3-2.2.3-2.5 0-.2-.2-1.4.3-1.9 0 0 .4-.3.3 1.3-.1 1.6-.2 1.9-.2 2.4s-.2 2.1-.3 2.8c-.1.7-.1 1.7-.4 1.9-.2.2-.4-.8-.3-1z"/><path class="st4" d="M99.5 14c0 .1.1.2.3.3h.4c5.7.3 9.7 1.8 11.6 4.6 1.4 2 1.7 4.7.7 8 0 .2 0 .3.2.4.2 0 .3 0 .4-.2.4-1.4.6-2.7.6-3.9 0-1.8-.5-3.3-1.4-4.6-2-2.8-6-4.4-11.7-4.8 8.6-3.1 15 4.6 15.1 4.7 0 .1.1.1.2.1s6.4.9 9.7 5.7c2 2.8 2.6 6.4 1.7 10.7-.9.1-1.5.8-1.5.8l-.3.3c.2-1.2.5-3.8-.2-6.9-1-4.1-4.3-7.6-6.8-8.3-.1 0-.6-.2-.9 0-.3.3-.1.9-.1 1.1.4 1.1.5 5.2-1.7 7.4-.1-.2-.4-.5-1-.5h-1.3l-.1-.1c-.3-.3-.9-.8-1.6-.9h-.3c.1-.4.2-1.3.2-2.9 0-4.1-1.5-6.7-4.9-8.6-3.1-1.7-6.6-1.8-7.7-1.8.3-.3.4-.5.4-.6z"/><path class="st4" d="M106.9 31.6c0-.3.1-.5.2-.7l.3-.1c.2 0 .8.4 1.2.8.6.4 1.1.9 1.6 1 .2 0 .4 0 .6-.1.4-.4.4-1.5.2-3.1 0-.4 0-.6.1-.7.2-.2.5-.2.8-.2.5 0 1 .5 1.2.7l.3.2c.2.1.3.1 1.6.1.2 0 .4 0 .4.1.1.2-.1.8-.3.9-.3.3-1.1 1.4-1.3 2.3-.1.4 0 .7.1.9.3.3.7.3 1 .3l.7-.2 1.4-.4c.8-.1 1.1.5 1.1.6v.1c0 .6-.9 1-.9 1-.1 0-.9.2-.9.7v.1c0 .2.1.3.1.5 0 .4-.1.7-.3 1-.2.2-.4.3-.6.4-1 .1-2.7-2-3-2.5-.1-.3-.4-.5-.7-.7l-.1-.1h-.1c-.3-.1-.7-.2-1.1-.1-.6.3-2.8.6-3.5.6-.3 0-.6-.1-.8-.3-.1-.1-.2-.3-.1-.5 0-.4.4-.8.6-1.1l.3-.3v-.6l-.1-.6zM91.1 31.8l-.2-.2c-.2-.4-.4-.8-.2-1.1.1-.3.4-.5.7-.6.4-.1.9 0 1.5.3.5.3.9.5 1.2.2.3-.2.2-.6.1-.9v-.2l-.2-.6c-.2-.6-.5-1.5-.4-2.2 0-.2.1-.3.2-.4.2-.1.4-.2.7-.2.3 0 .5 0 .7.1l1.1.4h.2l1.1-.4c.2 0 .5-.1.7-.1.3 0 .5.1.7.2.1.1.2.2.2.4 0 .7-.2 1.6-.4 2.2l-.2.6v.2c-.1.3-.2.7.1.9.3.2.8 0 1.2-.2.6-.3 1.1-.4 1.5-.3.3.1.5.3.6.6.2.4 0 .7-.2 1.2l-.2.2c-.2.2-.3.4-.3 1l.4.9c.1.2.2.3.2.6 0 .4-.2.7-.9.7-1 0-1.9-.5-2.7-1-.7-.4-1.3-.8-2-.8-.6 0-1.3.4-2 .8-.8.5-1.7 1.1-2.7 1-.8 0-.9-.3-.9-.7 0-.3.1-.4.2-.6l.4-.9c.1-.8-.1-.9-.2-1.1zM94.9 13.2c.4.2.9.3 1.4.3.5 0 1-.1 1.4-.3 0 .2-.1.5-.1.7 0 .5.1.9.1 1 0 .1 1.3 6.5 1.3 8.4v.7c0 .3-.1.7-.3.9-.1.2-.3.2-.6.2-.4 0-.8.1-.9.1 0 0-.9.3-1 .3-.2-.1-1-.3-1-.3-.1 0-.4-.1-.9-.1-.3 0-.4-.1-.6-.2-.2-.2-.3-.6-.3-.9v-.7c0-1.9 1.3-8.3 1.3-8.4 0-.1.1-.6.1-1 .1-.3.1-.5.1-.7zM99.1 13c.1.2 0 .4 0 .5 0 0-.3.5-.4 1.4v.3c0 .5.1 1 .3 1.6l.5 1.5c.5 1.4.9 2.6.9 4.7 0 1.3-.3 2.1-.5 2.7-.1-.3-.1-1.1-.1-1.8v-.7c0-2-1.3-8.3-1.4-8.5 0-.3-.1-.6-.1-.9 0-.4.1-.8.2-1l.1-.1c.3.1.5.2.5.3zM92.9 9.4c0-1.9 1.5-3.4 3.4-3.4s3.4 1.5 3.4 3.4-1.5 3.4-3.4 3.4c-1.9.1-3.4-1.5-3.4-3.4zM93.5 13c.1-.1.3-.2.6-.2.1 0 .1 0 .1.1.1.2.2.6.2 1 0 .3 0 .7-.1.9-.1.3-1.4 6.6-1.4 8.5v.7c0 .7 0 1.5-.1 1.8-.3-.5-.5-1.4-.5-2.7 0-2.1.4-3.3.9-4.7l.5-1.5c.2-.6.3-1.2.3-1.6v-.4c-.1-.9-.5-1.4-.5-1.5v-.2c-.1-.1-.1-.1 0-.2zM80.1 35.4c-.3.5-2 2.5-3 2.5-.2 0-.4-.1-.6-.4-.3-.4-.4-.9-.3-1.4.1-.6-.7-.8-.9-.8 0 0-.9-.4-.9-1v-.1c0-.1.3-.7 1.1-.6l1.4.4.6.2c.3 0 .8 0 1-.3.2-.2.2-.5.1-.9-.2-1-1-2-1.3-2.3-.2-.2-.4-.7-.3-.9.1-.1.3-.1.4-.1 1.3 0 1.4 0 1.6-.1l.3-.2c.3-.2.7-.7 1.2-.7.3 0 .6 0 .8.2.1.1.2.3.1.6-.2 1.7-.2 2.8.2 3.2.2.1.4.2.6.1.5-.1 1.1-.6 1.6-1 .4-.3 1-.8 1.2-.8l.3.1c.1.1.2.4.2.7l-.1.5v.6l.3.3c.2.3.6.7.6 1.1 0 .2 0 .4-.1.5-.2.2-.4.3-.8.3-.7 0-2.8-.3-3.5-.6-.4-.1-.7-.1-1.1.1h-.1l-.1.1c-.1.2-.3.5-.5.7z"/><path class="st4" d="M66.9 24.2c3.4-4.7 9.7-5.7 9.7-5.7.1 0 .1 0 .2-.1s6.6-7.8 15.1-4.7c-5.6.3-9.7 2-11.7 4.8-.9 1.3-1.4 2.9-1.4 4.6 0 1.2.2 2.5.6 3.9 0 .2.2.2.4.2s.2-.2.2-.4c-1-3.3-.8-6 .7-8 1.9-2.7 5.9-4.3 11.6-4.6h.4c.2-.1.3-.2.3-.3.1.1.2.4.2.7-1.1 0-4.6 0-7.7 1.8-3.4 1.9-4.9 4.6-4.9 8.6 0 1.6.1 2.4.2 2.9h-.3c-.7.1-1.3.6-1.6.9l-.1.1h-1.3c-.6 0-.9.3-1 .5-2.2-2.2-2.1-6.3-1.7-7.4.1-.2.3-.8-.1-1.1-.3-.3-.8-.1-.9 0-2.5.8-5.9 4.2-6.8 8.3-.7 3.1-.4 5.7-.2 6.9l-.3-.3S66 35 65 35c-.7-4.3-.1-7.9 1.9-10.8zM117.3 54.7l-.3.2h-.4c-9-4.9-19.8-4.9-20.2-4.9-.5 0-11.2.1-20.2 4.9h-.4l-.3-.2v-.4l.2-.3c9.4-5.1 20.2-5.1 20.7-5.1s11.3 0 20.7 5.1c.3.1.3.5.2.7z"/><path class="st4" d="M116.3 52.9c-9.2-4.6-19.5-4.6-19.9-4.6-.5 0-10.7 0-19.9 4.6-.2-3.3-2.6-6.2-3.3-7.2 10.6-4.5 22.7-4.5 23.3-4.5.5 0 12.7.1 23.3 4.5-.9 1-3.2 4-3.5 7.2z"/><path class="st4" d="M121.6 45.4c-.1.3-.4.4-.7.3-10.9-5-24-5-24.5-5-.6 0-13.6.1-24.5 5h-.4l-.3-.3c-.1-.3 0-.6.3-.7 11.2-5.1 24.4-5.1 25-5.1.6 0 13.7 0 25 5.1.1.2.2.5.1.7z"/><path class="st3" d="M73.7 43.2c.6-.6.9-1.3 1-1.6.5.1 1.6.4 2.9.3-1.3.3-2.6.8-3.9 1.3zM80 41.2c1-.6 1.8-1.5 2.2-2.8.5.6 2.3 1.4 3.3 1.6-1.7.3-3.6.7-5.5 1.2zM87.2 39.8c.5-.3 1.1-.7 1.7-1.6.1-.1.1-.2.2-.2l.3.2.3.2c.3.2.9.6 1.8.8-1.3.2-2.7.3-4.3.6zM94 39.1c.9-.3 1.7-.9 2.3-1.8.6.9 1.4 1.5 2.3 1.8-1.3-.1-2.1-.1-2.2-.1-.1 0-1 0-2.4.1zM101.2 39.3c.9-.2 1.5-.6 1.8-.8l.3-.2.3-.2c.1 0 .2.1.2.2.6.8 1.1 1.3 1.6 1.5-1.6-.3-3-.4-4.2-.5zM107.2 40c1.1-.2 2.8-1 3.2-1.6.4 1.2 1.1 2.1 2.1 2.7-1.8-.4-3.6-.8-5.3-1.1zM115.2 41.8c1.2 0 2.2-.2 2.7-.3.1.3.4.9.9 1.5l-3.6-1.2z"/><path class="st4" d="m134.7 40.6-.4.1c-.6 0-.7-.4-.7-.6-.1-.3-.6-.8-1.2-.6-.9.1-2 .9-2.3 1.2 0 0-1 .8-1.9.6h-.2c-.2-.1-.5-.3-.6-.8-.1-.7-.8-1.6-1-1.6-.2 0-.3 0-.3.3s.2.5.2.5.8 1 .4 1.9l-.4.5c-.6.9-1.5 2.2-4.3 2.1-3.3-.1-3.8-2.7-3.8-2.8 0-.1-.1-.2-.1-.2-.1 0-.2-.1-.2 0 0 0-2.9.9-5-.2-1-.5-1.6-1.3-2-2.4 0-.2-.1-.5-.4-.6-.3-.1-.6.2-.7.3-.4.5-2.5 1.5-3.3 1.4-.7 0-1.5-.2-2.5-1.6 0 0-.3-.4-.7-.4l-.7.4s-.2.2-.3.2c-.3.2-1.1.8-2.6.8-1.4-.1-2.6-.8-3.4-2.2h-.1v-.1H96v.1h-.1c-.8 1.3-2 2.1-3.4 2.2-1.5.1-2.3-.6-2.6-.8l-.3-.2-.7-.4c-.4 0-.7.4-.7.4-1 1.4-1.8 1.6-2.5 1.6-.8 0-2.9-.9-3.3-1.4-.1-.1-.4-.5-.7-.3-.2.1-.3.3-.4.6-.3 1.1-1 1.9-2 2.4-2.1 1.1-5 .2-5 .2h-.2c-.1 0-.1.1-.1.2s-.6 2.7-3.8 2.8c-2.8.1-3.7-1.2-4.3-2.1l-.4-.5c-.4-.9.4-1.9.4-1.9s.2-.2.2-.5-.1-.3-.3-.3c-.2 0-.9.9-1 1.6-.1.5-.4.7-.6.8H64c-.9.3-1.9-.6-1.9-.6-.3-.2-1.4-1.1-2.3-1.2-.6-.1-1 .4-1.2.6 0 .2-.1.6-.7.6l-.4-.1c-.1-.1-.1-.4-.1-.5.2-2.2 2.8-2.1 2.9-2.1l2.1.2c.1 0 .2 0 .3-.1.1-.1.1-.2.1-.3-.1-.7-.2-1.9 0-2.2.1-.1.1-.1.3-.1.2.1.6.2 1.2 0 .9-.3 1.4.5 1.5.5.2.3 1.1 1.2 2.5 1.4.4 0 .8.3 1 .7.3.4.3 1 .2 1.2-.1.2-.2.3-.5.4-1.2.1-2-1.2-2.3-1.7l-.1-.2c-.2-.3-.5-.7-1.3-.7-.5 0-1 .2-1.4.5l-.3.8c0 .7.5 1 .7 1 .2 0 .3-.1.3-.2 0-.2-.1-.3-.2-.4 0 0-.3-.1-.3-.4l.2-.4c.2-.2.6-.4.9-.4.5 0 .6.1.8.4l.1.1c.3.4.7 1.1 1.4 1.6-.6.1-.9.2-.9.3-.1 0-.2.1-.3.2-.1.2 0 .4.1.6.2.3.2.4.2.6 0 .6 1.6 1.9 3.4 1.9 2 0 3.5-1.2 3.7-2.9 0 0 .1-.9.1-1.1.3.6 2.1 1.5 3.8 1.4 1 0 1.8-.4 2.4-1 .6-.6.8-1.5.8-2.5v-1c0-.7.1-.9.2-1 .1 0 .2.1.3.5.3 1.1 2.8 3.2 4.2 3.1 1.3-.1 2-.6 2.7-1.7.2-.4.4-.8.5-.8.1 0 .2.1.2.1.1.2 1.5 1.9 3.2 1.8 1.6-.1 3.4-1.5 3.7-4.2v-.3h.2v.3c.3 2.6 2.1 4.1 3.7 4.2 1.7.1 3.2-1.6 3.2-1.8 0 0 .1-.1.2-.1.1.1.3.4.5.8.7 1.1 1.4 1.5 2.7 1.7 1.4.1 3.8-2 4.2-3.1.1-.4.3-.5.3-.5 0 .1.2.3.2 1v1c0 1.1.3 1.9.8 2.5.6.6 1.4 1 2.4 1 1.7.1 3.5-.8 3.8-1.4 0 .3.1 1.1.1 1.1.2 1.7 1.7 2.9 3.7 2.9 1.7 0 3.4-1.3 3.4-1.9 0-.2 0-.3.2-.6.2-.2.2-.5.1-.6-.1-.1-.2-.2-.3-.2-.1 0-.4-.2-.9-.3.7-.5 1.1-1.2 1.4-1.6l.1-.1c.2-.3.3-.4.8-.4.4 0 .7.1.9.4l.2.4c0 .4-.2.4-.3.4-.2 0-.3.2-.2.4 0 .2.2.3.3.2.2-.1.7-.3.7-1l-.3-.8c-.3-.3-.8-.5-1.4-.5-.8 0-1.1.4-1.3.7l-.1.2c-.3.5-1.1 1.8-2.3 1.7-.4-.1-.5-.2-.5-.4-.1-.2 0-.7.2-1.2.2-.4.6-.6 1-.7 1.4-.1 2.3-1.1 2.5-1.4 0 0 .6-.8 1.5-.5.6.2 1 .1 1.2 0 .2-.1.2-.1.3.1.3.3.2 1.5 0 2.2 0 .1 0 .2.1.3.1.1.2.1.3.1 0 0 2-.2 2.1-.2.1 0 2.7-.1 2.9 2.1.4.1.4.3.3.5z"/><path class="st3" d="M86.3 21.8c1.6-.1 3.2-1.1 4.6-1.3.4 0 1.2-.3 1.2-.1-.2.8-.3 1.7-.3 2.8 0 2.5.9 3.5 1.2 3.8.1.6.3 1.3.4 1.8l.2.6.1.3v.2c-.2-.1-.5-.2-.5-.2-.7-.4-1.4-.5-1.9-.4-.5.1-.8.5-1 .9-.3.7 0 1.2.2 1.7l.3.3c.1.1.2.2.2.6l-.2.5c-.2.2-.4.5-.4 1 0 .6.3 1.3 1.5 1.3s2.1-.6 3-1.1c.3-.2.6-.4.9-.5v.1c-.2 2.3-1.8 3.5-3.2 3.6-1.3.1-2.6-1.3-2.7-1.5-.1-.3-.4-.4-.8-.4-.1 0-.5 0-.9 1.1-.6.9-1.1 1.2-2.3 1.4-1 .1-3.3-1.7-3.5-2.6-.1-.2-.1-.3-.2-.4.8.3 2.9.6 3.6.6.5 0 .9-.2 1.2-.5.2-.3.3-.6.3-1-.1-.6-.5-1.1-.8-1.4l-.2-.2v-.2l.1-.7c0-.3-.1-.8-.4-1.1l-.8-.3c-.4 0-.9.4-1.5.9-.5.4-1 .8-1.4.9-.1-.1-.3-.4 0-2.6.1-.6 0-1-.3-1.2-.1-.1-.2-.1-.3-.2v-.1s-.2-.4-.2-2.9c0-1.1.1-2.2.4-3.1 2.1-1.5 3.4-.3 4.4-.4zM67.1 40.5s.5-.3 1.2-.2c1 0 1.8 0 2.1-.8.1-.4.1-1.1-.3-1.7-.2-.4-.7-.9-1.5-.9-.4 0-.7-.2-1-.3-.1-.3-.4-1.6-.4-3.4 0-1.1.1-2.4.4-3.8.1-.5.3-1.1.5-1.6 1.9-.2 3.2.2 3.2.2s1.7-1.8 2.8-2.3c.3 1.6.9 3.4 2.3 4.5h.1c.1.3.3.6.4.8.2.3 1 1.2 1.2 2.1v.4c-.1.1-.4.1-.5.1l-.4-.1-1.5-.4c-1-.1-1.6.6-1.7 1v.3c0 1 1.2 1.5 1.3 1.6.2.1.4.2.5.2 0 .2-.1.4-.1.5 0 .5.1 1 .4 1.3.3.4.6.6 1 .6 1.2.1 2.8-1.8 3.4-2.5v.9c.1 1.1-.2 1.9-.7 2.5-.5.5-1.1.8-2 .8-1.6.1-3.1-.8-3.3-1.1 0-.1-.1-.3-.3-.3-.3-.1-.6 0-.5 0-.3 0-.3 0-.5 1.6s-1.7 2.4-3.1 2.4c-1.4 0-2.6-1-2.8-1.2v-.1c.1-.5.1-.7-.2-1.1zM110.9 22c.2.9.4 1.9.4 3.1 0 2.5-.2 2.9-.2 2.9v.1c-.1.1-.2.1-.3.2-.2.3-.3.6-.3 1.2.3 2.2.1 2.6 0 2.6-.3-.1-.9-.5-1.4-.9-.6-.5-1.1-.9-1.5-.9l-.8.3c-.3.3-.4.8-.4 1.1l.1.7v.2l-.2.2c-.3.3-.7.8-.8 1.4 0 .4.1.7.3 1 .3.3.7.5 1.2.5.7 0 2.9-.3 3.6-.6-.1.1-.1.3-.2.4-.3.9-2.5 2.7-3.5 2.6-1.1-.1-1.7-.4-2.3-1.4-.5-1.1-.8-1.1-.9-1.1-.4 0-.7.2-.8.4-.1.2-1.3 1.6-2.7 1.5-1.4-.1-2.9-1.3-3.2-3.6v-.1c.3.1.6.3.9.5.9.5 1.8 1.2 3 1.1 1.2 0 1.5-.7 1.5-1.3 0-.5-.2-.8-.4-1l-.2-.5c0-.4.1-.4.2-.6l.3-.3c.2-.4.6-1 .2-1.7-.2-.5-.6-.8-1-.9-.6-.2-1.3-.1-1.9.4 0 0-.3.1-.5.2v-.2l.1-.3.2-.6c.1-.5.3-1.1.4-1.8.3-.3 1.2-1.3 1.2-3.8 0-1.1-.1-2-.3-2.8 0-.1.8.1 1.2.1 1.3.2 3 1.3 4.6 1.3.8.3 2.1-.9 4.4.4zM125.2 41.3v.1c-.1.3-1.3 1.2-2.8 1.2-1.4 0-3-.7-3.1-2.4-.2-1.6-.2-1.6-.5-1.6.1 0-.2-.1-.5 0l-.3.3c-.1.3-1.6 1.1-3.3 1.1-.8 0-1.5-.3-2-.8-.5-.6-.7-1.4-.7-2.5v-.9c.5.8 2.2 2.6 3.4 2.5.4 0 .8-.2 1-.6.3-.4.4-.8.4-1.3 0-.2 0-.3-.1-.5 0-.1.3-.2.5-.2.1 0 1.3-.5 1.3-1.6v-.3c-.1-.4-.7-1.1-1.7-1l-1.5.4-.4.1c-.1 0-.4 0-.5-.1 0-.1-.1-.2 0-.4.2-.8.9-1.8 1.2-2.1.1-.2.3-.5.4-.8h.1c1.4-1.1 2-2.9 2.3-4.5 1.1.5 2.8 2.3 2.8 2.3s1.3-.4 3.2-.2c.2.5.4 1 .5 1.6.3 1.4.4 2.7.4 3.8 0 1.9-.3 3.2-.4 3.4-.3.1-.6.3-1 .3-.8.1-1.2.6-1.5.9-.4.6-.4 1.3-.3 1.7.3.7 1.1.8 2.1.8.8-.1 1.2.2 1.2.2-.2.7-.2.9-.2 1.1z"/><path class="st1" d="M135.4 40c-.2-2.2-2.4-2.6-3.5-2.6 0 0-1.2.1-1.7.2 0-.3.1-.6.1-1 0-.5-.1-1-.3-1.3-.4-.4-.7-.3-1-.3-.2.1-.4.1-.9 0h-.1c.3-1.3.4-2.6.4-3.8 0-2.8-.7-5.3-2.2-7.3-3.4-4.8-9.3-5.8-10-5.9-.5-.6-7.4-8.3-16.4-4.5.1-.2.1-.5-.1-.8-.1-.2-.3-.3-.6-.4.8-.7 1.3-1.8 1.3-2.9 0-2.1-1.7-3.8-3.7-4V2h1.5v-.6h-1.5V0H96v1.4h-1.5V2H96v3.4c-2.1.2-3.7 1.9-3.7 4 0 1.1.5 2.2 1.3 2.9-.2.1-.5.2-.6.4-.2.3-.2.5-.1.8-9-3.8-15.9 3.9-16.4 4.5-.7.1-6.7 1.1-10 5.9-1.5 2.1-2.2 4.5-2.2 7.3 0 1.2.1 2.5.4 3.8h-.1c-.4.1-.7.1-.9 0-.3-.1-.6-.2-1 .3-.3.3-.3.8-.3 1.3 0 .4 0 .7.1 1-.5 0-1.7-.2-1.7-.2-1.1-.1-3.3.4-3.5 2.6 0 0-.1.6.2 1 .1.2.4.3.8.3 1 0 1.3-.7 1.3-1.1 0 .1.2-.3.5-.2.6.1 1.6.7 2 1 .1.1 1.6 1.4 2.9.4l.3.3.3.4c.6.9 1.7 2.5 4.8 2.4h.4c-.3.3-.4.8-.2 1.2l.6.6h.8c.2-.1.3-.1.5-.2.6.7 3.2 3.9 3.3 7.2-.2.1-.3.2-.5.2l-.5.7.2.8.7.5.8-.1c8.9-4.8 19.8-4.9 19.9-4.9s11 .1 19.9 4.9l.8.1.7-.5.1-.8-.5-.7c-.2-.1-.3-.2-.5-.2.1-3.3 2.7-6.5 3.3-7.2.2.1.3.1.5.2.6.3 1.2 0 1.5-.5.2-.4.1-.9-.2-1.2h.2c3.1.1 4.2-1.5 4.8-2.4l.3-.4.3-.3c1.3.9 2.9-.4 2.9-.4.4-.3 1.3-1 2-1 .3-.1.5.3.5.2 0 .4.4 1.1 1.3 1.1.4 0 .7-.2.8-.3.4-.5.3-1 .3-1.1zM99.5 14c0 .1.1.2.3.3h.4c5.7.3 9.7 1.8 11.6 4.6 1.4 2 1.7 4.7.7 8 0 .2 0 .3.2.4.2 0 .3 0 .4-.2.4-1.4.6-2.7.6-3.9 0-1.8-.5-3.3-1.4-4.6-2-2.8-6-4.4-11.7-4.8 8.6-3.1 15 4.6 15.1 4.7 0 .1.1.1.2.1s6.4.9 9.7 5.7c2 2.8 2.6 6.4 1.7 10.7-.9.1-1.5.8-1.5.8l-.3.3c.2-1.2.5-3.8-.2-6.9-1-4.1-4.3-7.6-6.8-8.3-.1 0-.6-.2-.9 0-.3.3-.1.9-.1 1.1.4 1.1.5 5.2-1.7 7.4-.1-.2-.4-.5-1-.5h-1.3l-.1-.1c-.3-.3-.9-.8-1.6-.9h-.3c.1-.4.2-1.3.2-2.9 0-4.1-1.5-6.7-4.9-8.6-3.1-1.7-6.6-1.8-7.7-1.8.3-.3.4-.5.4-.6zm22.7 25.5c.3.7 1.1.8 2.1.8.8-.1 1.2.2 1.2.2-.2.3-.3.6-.3.8v.1c-.1.3-1.3 1.2-2.8 1.2-1.4 0-3-.7-3.1-2.4-.2-1.6-.2-1.6-.5-1.6.1 0-.2-.1-.5 0l-.3.3c-.1.3-1.6 1.1-3.3 1.1-.8 0-1.5-.3-2-.8-.5-.6-.7-1.4-.7-2.5v-.9c.5.8 2.2 2.6 3.4 2.5.4 0 .8-.2 1-.6.3-.4.4-.8.4-1.3 0-.2 0-.3-.1-.5 0-.1.3-.2.4-.2.1 0 1.3-.6 1.3-1.6v-.3c-.1-.4-.7-1.1-1.7-1l-1.5.4-.4.1c-.2 0-.5 0-.5-.1s-.1-.2 0-.4c.2-.8.9-1.8 1.2-2.1.1-.2.3-.5.4-.8h.1c1.3-1.1 1.9-2.7 2.2-4.2 1.1.5 2.7 2.2 2.7 2.2.1.1.2.1.3.1 0 0 1.3-.4 3.1-.2h.1c.2.4.3.8.4 1.3.3 1.4.4 2.7.4 3.8 0 1.9-.3 3.2-.4 3.4-.3.1-.6.3-1 .3-.8.1-1.2.6-1.5.9-.2.9-.3 1.7-.1 2zm-55.1 1s.5-.3 1.2-.2c1 0 1.8 0 2.1-.8.1-.4.1-1.1-.3-1.7-.2-.4-.7-.9-1.5-.9-.4 0-.7-.2-1-.3-.1-.3-.4-1.6-.4-3.4 0-1.1.1-2.4.4-3.8.1-.4.2-.9.4-1.3h.1c1.8-.2 3 .2 3.1.2.1 0 .2 0 .3-.1 0 0 1.6-1.7 2.7-2.2.3 1.5.9 3.1 2.2 4.2h.1c.1.3.3.6.4.8.2.3 1 1.2 1.2 2.1v.4c-.1.1-.4.1-.5.1l-.4-.1-1.5-.4c-1-.1-1.6.6-1.7 1v.3c0 1 1.2 1.5 1.3 1.6.2.1.4.2.5.2 0 .2-.1.4-.1.5 0 .5.1 1 .4 1.3.3.4.6.6 1 .6 1.2.1 2.8-1.8 3.4-2.5v.9c.1 1.1-.2 1.9-.7 2.5-.5.5-1.1.8-2 .8-1.6.1-3.1-.8-3.3-1.1 0-.1-.1-.3-.3-.3-.3-.1-.6 0-.5 0-.3 0-.3 0-.5 1.6s-1.7 2.4-3.1 2.4c-1.4 0-2.6-1-2.8-1.2v-.1c.1-.5.1-.7-.2-1.1zm7.3-18.6c-.2.4-.3 1.2-.3 2.1 0 .4 0 .9.1 1.4h-.1c-1 .5-2.5 1.9-2.8 2.2-.4-.1-1.5-.3-2.9-.2 1.3-3 3.8-5.4 5.8-6 0 0 .2-.1.3-.1 0 .2 0 .3-.1.6zm5.7 13.5c-.3.5-2 2.5-3 2.5-.2 0-.4-.1-.6-.4-.3-.4-.4-.9-.3-1.4.1-.6-.7-.8-.9-.8 0 0-.9-.4-.9-1v-.1c0-.1.3-.7 1.1-.6l1.4.4.6.2c.3 0 .8 0 1-.3.2-.2.2-.5.1-.9-.2-1-1-2-1.3-2.3-.2-.2-.4-.7-.3-.9.1-.1.3-.1.4-.1 1.3 0 1.4 0 1.6-.1l.3-.2c.3-.2.7-.7 1.2-.7.3 0 .6 0 .8.2.1.1.2.3.1.6-.2 1.7-.2 2.8.2 3.2.2.1.4.2.6.1.5-.1 1.1-.6 1.6-1 .4-.3 1-.8 1.2-.8l.3.1c.1.1.2.4.2.7l-.1.5v.6l.3.3c.2.3.6.7.6 1.1 0 .2 0 .4-.1.5-.2.2-.4.3-.8.3-.7 0-2.8-.3-3.5-.6-.4-.1-.7-.1-1.1.1h-.1l-.1.1c-.1.2-.3.5-.5.7zm5.6.3c.5 0 .9-.2 1.2-.5.2-.3.3-.6.3-1-.1-.6-.5-1.1-.8-1.4l-.2-.2v-.2l.1-.7c0-.3-.1-.8-.4-1.1l-.8-.3c-.4 0-.9.4-1.5.9-.5.4-1 .8-1.4.9-.1-.1-.3-.4 0-2.6.1-.6 0-1-.3-1.2-.1-.1-.2-.1-.3-.2V28s-.2-.4-.2-2.9c0-1 .1-1.9.3-2.7l.2-.1c1.5-.9 2.5-.6 3.4-.3l1 .2c1 0 1.9-.4 2.8-.8l1.8-.6.5-.1.5-.1c-.1.7-.2 1.5-.2 2.5 0 2.5.9 3.5 1.2 3.8.1.6.3 1.3.4 1.8l.2.6.1.3v.2c-.2-.1-.5-.2-.5-.2-.7-.4-1.4-.5-1.9-.4-.5.1-.8.5-1 .9-.3.7 0 1.2.2 1.7l.3.3c.1.1.2.2.2.6l-.2.5c-.2.2-.4.5-.4 1 0 .6.3 1.3 1.5 1.3s2.1-.6 3-1.1c.3-.2.6-.4.9-.5v.1c-.2 2.3-1.8 3.5-3.2 3.6-1.3.1-2.6-1.3-2.7-1.5-.1-.3-.4-.4-.8-.4-.1 0-.5 0-.9 1.1-.6.9-1.1 1.2-2.3 1.4-1 .1-3.3-1.7-3.5-2.6-.1-.2-.1-.3-.2-.4.7.2 2.9.5 3.6.5zm8.6-1.8c-.8.5-1.7 1.1-2.7 1-.8 0-.9-.3-.9-.7 0-.3.1-.4.2-.6l.4-.9c0-.6-.1-.8-.3-1l-.2-.2c-.2-.4-.4-.8-.2-1.1.1-.3.4-.5.7-.6.4-.1.9 0 1.5.3.5.3.9.5 1.2.2.3-.2.2-.6.1-.9v-.2l-.2-.6c-.2-.6-.5-1.5-.4-2.2 0-.2.1-.3.2-.4.2-.1.4-.2.7-.2.3 0 .5 0 .7.1l1.1.4h.2l1.1-.4c.2 0 .5-.1.7-.1.3 0 .5.1.7.2.1.1.2.2.2.4 0 .7-.2 1.6-.4 2.2l-.2.6v.2c-.1.3-.2.7.1.9.3.2.8 0 1.2-.2.6-.3 1.1-.4 1.5-.3.3.1.5.3.6.6.2.4 0 .7-.2 1.2l-.2.2c-.2.2-.3.4-.3 1l.4.9c.1.2.2.3.2.6 0 .4-.2.7-.9.7-1 0-1.9-.5-2.7-1-.7-.4-1.3-.8-2-.8-.5-.1-1.2.3-1.9.7zm.6-20.7c.4.2.9.3 1.4.3.5 0 1-.1 1.4-.3 0 .2-.1.5-.1.7 0 .5.1.9.1 1 0 .1 1.3 6.5 1.3 8.4v.7c0 .3-.1.7-.3.9-.1.2-.3.2-.6.2-.4 0-.8.1-.9.1 0 0-.9.3-1 .3-.2-.1-1-.3-1-.3-.1 0-.4-.1-.9-.1-.3 0-.4-.1-.6-.2-.2-.2-.3-.6-.3-.9v-.7c0-1.9 1.3-8.3 1.3-8.4 0-.1.1-.6.1-1 .1-.3.1-.5.1-.7zm3 21.2c.9.5 1.8 1.2 3 1.1 1.2 0 1.5-.7 1.5-1.3 0-.5-.2-.8-.4-1l-.2-.5c0-.4.1-.4.2-.6l.3-.3c.2-.4.6-1 .2-1.7-.2-.5-.6-.8-1-.9-.6-.2-1.3-.1-2 .4 0 0-.3.1-.5.2v-.2l.1-.3.2-.6c.1-.5.3-1.1.4-1.8.3-.3 1.2-1.3 1.2-3.8 0-1-.1-1.8-.2-2.5l.5.1.5.1 1.8.6c.9.4 1.9.7 2.8.8l1-.2c.8-.2 1.9-.5 3.4.3l.2.1c.2.8.3 1.7.3 2.7 0 2.5-.2 2.9-.2 2.9v.1c-.1.1-.2.1-.3.2-.2.2-.3.5-.3.9v.3c.1.9.1 1.4.1 1.8 0 .7-.1.8-.2.9-.3-.1-.9-.5-1.4-.9-.6-.5-1.1-.9-1.5-.9l-.8.3c-.3.3-.4.8-.4 1.1l.1.7v.2l-.2.2c-.3.3-.7.8-.8 1.4v.2c0 .3.1.6.3.8.3.3.7.5 1.2.5.7 0 2.9-.3 3.6-.6-.1.1-.1.3-.2.4-.3.9-2.5 2.7-3.5 2.6-1.1-.1-1.7-.4-2.3-1.4-.5-1.1-.8-1.1-.9-1.1-.4 0-.7.2-.8.4-.1.2-1.3 1.6-2.7 1.5-1.4-.1-2.9-1.3-3.2-3.6v-.1c.5.1.8.3 1.1.5zm12.5.1c-.6.3-2.8.6-3.5.6-.3 0-.6-.1-.8-.3-.1-.1-.2-.3-.1-.5 0-.4.4-.8.6-1.1l.3-.3v-.6l-.1-.5c0-.3.1-.5.2-.7l.3-.1c.2 0 .8.4 1.2.8.6.4 1.1.9 1.6 1 .2 0 .4 0 .6-.1.4-.4.4-1.5.2-3.1 0-.4 0-.6.1-.7.2-.2.5-.2.8-.2.5 0 1 .5 1.2.7l.3.2c.2.1.3.1 1.6.1.2 0 .4 0 .4.1.1.2-.1.8-.3.9-.3.3-1.1 1.4-1.3 2.3-.1.4 0 .7.1.9.3.3.7.3 1 .3l.7-.2 1.4-.4c.8-.1 1.1.5 1.1.6v.1c0 .6-.9 1-.9 1-.1 0-.9.2-.9.7v.1c0 .2.1.3.1.5 0 .4-.1.7-.3 1-.2.2-.4.3-.6.4-1 .1-2.7-2-3-2.5-.1-.3-.4-.5-.7-.7l-.1-.1h-.1c-.3-.3-.7-.3-1.1-.2zm7.8-12.6c-.1-.2-.1-.4-.1-.4s.2 0 .3.1c2 .6 4.5 3 5.8 6-1.4-.1-2.5.1-2.9.2-.3-.3-1.8-1.8-2.8-2.2h-.1c.1-.5.1-.9.1-1.4 0-1.1-.1-1.9-.3-2.3zm-11.5-5c2.1 1.2 3.4 2.7 4.1 4.6-1.6-.8-2.7-.5-3.5-.2l-.8.2c-.9 0-1.8-.4-2.7-.7l-1.9-.6-.5-.1c-.4-.1-.6-.1-.8-.1-.2-.6-.3-1.2-.6-1.8l-.5-1.5c-.2-.6-.2-1.1-.2-1.5.9 0 4.4.1 7.4 1.7zM99.1 13c.1.2 0 .4 0 .5 0 0-.3.5-.4 1.4v.3c0 .5.1 1 .3 1.6l.5 1.5c.5 1.4.9 2.6.9 4.7 0 1.3-.3 2.1-.5 2.7-.1-.3-.1-1.1-.1-1.8v-.7c0-2-1.3-8.3-1.4-8.5 0-.3-.1-.6-.1-.9 0-.4.1-.8.2-1l.1-.1c.3.1.5.2.5.3zm-6.2-3.6c0-1.9 1.5-3.4 3.4-3.4s3.4 1.5 3.4 3.4-1.5 3.4-3.4 3.4c-1.9.1-3.4-1.5-3.4-3.4zm.6 3.6c.1-.1.3-.2.6-.2.1 0 .1 0 .1.1.1.2.2.6.2 1 0 .3 0 .7-.1.9-.1.3-1.4 6.6-1.4 8.5v.7c0 .7 0 1.5-.1 1.8-.3-.5-.5-1.4-.5-2.7 0-2.1.4-3.3.9-4.7l.5-1.5c.2-.6.3-1.2.3-1.6v-.4c-.1-.9-.5-1.4-.5-1.5v-.2c-.1-.1-.1-.1 0-.2zm-.4 3.8-.5 1.5-.6 1.8c-.2-.1-.4 0-.8.1l-.5.1-1.9.6c-.9.3-1.8.7-2.7.7l-.8-.2c-.8-.2-2-.5-3.5.2.6-2 1.9-3.4 4.1-4.6 3-1.7 6.5-1.7 7.4-1.7.1.3 0 .8-.2 1.5zm-26.2 7.4c3.4-4.7 9.7-5.7 9.7-5.7.1 0 .1 0 .2-.1s6.6-7.8 15.1-4.7c-5.6.3-9.7 2-11.7 4.8-.9 1.3-1.4 2.9-1.4 4.6 0 1.2.2 2.5.6 3.9 0 .2.2.2.4.2s.2-.2.2-.4c-1-3.3-.8-6 .7-8 1.9-2.7 5.9-4.3 11.6-4.6h.4c.2-.1.3-.2.3-.3.1.1.2.4.2.7-1.1 0-4.6 0-7.7 1.8-3.4 1.9-4.9 4.6-4.9 8.6 0 1.6.1 2.4.2 2.9h-.3c-.7.1-1.3.6-1.6.9l-.1.1h-1.3c-.6 0-.9.3-1 .5-2.2-2.2-2.1-6.3-1.7-7.4.1-.2.3-.8-.1-1.1-.3-.3-.8-.1-.9 0-2.5.8-5.9 4.2-6.8 8.3-.7 3.1-.4 5.7-.2 6.9l-.3-.3S66 35 65 35c-.7-4.3-.1-7.9 1.9-10.8zM117.1 54c.2.1.3.4.2.7l-.3.2h-.4c-9-4.9-19.8-4.9-20.2-4.9-.5 0-11.2.1-20.2 4.9h-.4l-.3-.2v-.4l.2-.3c9.4-5.1 20.2-5.1 20.7-5.1s11.3.1 20.7 5.1zm-.8-1.1c-9.2-4.6-19.5-4.6-19.9-4.6-.5 0-10.7 0-19.9 4.6-.2-3.3-2.6-6.2-3.3-7.2 10.6-4.5 22.7-4.5 23.3-4.5.5 0 12.7.1 23.3 4.5-.9 1-3.2 4-3.5 7.2zm5.3-7.5c-.1.3-.4.4-.7.3-10.9-5-24-5-24.5-5-.6 0-13.6.1-24.5 5h-.4l-.3-.3c-.1-.3 0-.6.3-.7 11.2-5.1 24.4-5.1 25-5.1.6 0 13.7 0 25 5.1.1.2.2.5.1.7zm-47.9-2.2c.6-.6.9-1.3 1-1.6.5.1 1.6.4 2.9.3-1.3.3-2.6.8-3.9 1.3zm6.3-2c1-.6 1.8-1.5 2.2-2.8.5.6 2.3 1.4 3.3 1.6-1.7.3-3.6.7-5.5 1.2zm7.2-1.4c.5-.3 1.1-.7 1.7-1.6.1-.1.1-.2.2-.2l.3.2.3.2c.3.2.9.6 1.8.8-1.3.2-2.7.3-4.3.6zm6.8-.7c.9-.3 1.7-.9 2.3-1.8.6.9 1.4 1.5 2.3 1.8-1.3-.1-2.1-.1-2.2-.1-.1 0-1 0-2.4.1zm7.2.2c.9-.2 1.5-.6 1.8-.8l.3-.2.3-.2c.1 0 .2.1.2.2.6.8 1.1 1.3 1.6 1.5-1.6-.3-3-.4-4.2-.5zm6 .7c1.1-.2 2.8-1 3.2-1.6.4 1.2 1.1 2.1 2.1 2.7-1.8-.4-3.6-.8-5.3-1.1zm8 1.8c1.2 0 2.2-.2 2.7-.3.1.3.4.9.9 1.5l-3.6-1.2zm19.5-1.2-.4.1c-.6 0-.7-.4-.7-.6-.1-.3-.6-.8-1.2-.6-.9.1-2 .9-2.3 1.2 0 0-1 .8-1.9.6h-.2c-.2-.1-.5-.3-.6-.8-.1-.7-.8-1.6-1-1.6-.2 0-.3 0-.3.3s.2.5.2.5.8 1 .4 1.9l-.4.5c-.6.9-1.5 2.2-4.3 2.1-3.3-.1-3.8-2.7-3.8-2.8 0-.1-.1-.2-.1-.2-.1 0-.2-.1-.2 0 0 0-2.9.9-5-.2-1-.5-1.6-1.3-2-2.4 0-.2-.1-.5-.4-.6-.3-.1-.6.2-.7.3-.4.5-2.5 1.5-3.3 1.4-.7 0-1.5-.2-2.5-1.6 0 0-.3-.4-.7-.4l-.7.4s-.2.2-.3.2c-.3.2-1.1.8-2.6.8-1.4-.1-2.6-.8-3.4-2.2h-.1v-.1H96v.1h-.1c-.8 1.3-2 2.1-3.4 2.2-1.5.1-2.3-.6-2.6-.8l-.3-.2-.7-.4c-.4 0-.7.4-.7.4-1 1.4-1.8 1.6-2.5 1.6-.8 0-2.9-.9-3.3-1.4-.1-.1-.4-.5-.7-.3-.2.1-.3.3-.4.6-.3 1.1-1 1.9-2 2.4-2.1 1.1-5 .2-5 .2h-.2c-.1 0-.1.1-.1.2s-.6 2.7-3.8 2.8c-2.8.1-3.7-1.2-4.3-2.1l-.4-.5c-.4-.9.4-1.9.4-1.9s.2-.2.2-.5-.1-.3-.3-.3c-.2 0-.9.9-1 1.6-.1.5-.4.7-.6.8H64c-.9.3-1.9-.6-1.9-.6-.3-.2-1.4-1.1-2.3-1.2-.6-.1-1 .4-1.2.6 0 .2-.1.6-.7.6l-.4-.1c-.1-.1-.1-.4-.1-.5.2-2.2 2.8-2.1 2.9-2.1l2.1.2c.1 0 .2 0 .3-.1.1-.1.1-.2.1-.3-.1-.7-.2-1.9 0-2.2.1-.1.1-.1.3-.1.2.1.6.2 1.2 0 .9-.3 1.4.5 1.5.5.2.3 1.1 1.2 2.5 1.4.4 0 .8.3 1 .7.3.4.3 1 .2 1.2-.1.2-.2.3-.5.4-1.2.1-2-1.2-2.3-1.7l-.1-.2c-.2-.3-.5-.7-1.3-.7-.5 0-1 .2-1.4.5l-.3.8c0 .7.5 1 .7 1 .2 0 .3-.1.3-.2 0-.2-.1-.3-.2-.4 0 0-.3-.1-.3-.4l.2-.4c.2-.2.6-.4.9-.4.5 0 .6.1.8.4l.1.1c.3.4.7 1.1 1.4 1.6-.6.1-.9.2-.9.3-.1 0-.2.1-.3.2-.1.2 0 .4.1.6.2.3.2.4.2.6 0 .6 1.6 1.9 3.4 1.9 2 0 3.5-1.2 3.7-2.9 0 0 .1-.9.1-1.1.3.6 2.1 1.5 3.8 1.4 1 0 1.8-.4 2.4-1 .6-.6.8-1.5.8-2.5v-1c0-.7.1-.9.2-1 .1 0 .2.1.3.5.3 1.1 2.8 3.2 4.2 3.1 1.3-.1 2-.6 2.7-1.7.2-.4.4-.8.5-.8.1 0 .2.1.2.1.1.2 1.5 1.9 3.2 1.8 1.6-.1 3.4-1.5 3.7-4.2v-.3h.2v.3c.3 2.6 2.1 4.1 3.7 4.2 1.7.1 3.2-1.6 3.2-1.8 0 0 .1-.1.2-.1.1.1.3.4.5.8.7 1.1 1.4 1.5 2.7 1.7 1.4.1 3.8-2 4.2-3.1.1-.4.3-.5.3-.5 0 .1.2.3.2 1v1c0 1.1.3 1.9.8 2.5.6.6 1.4 1 2.4 1 1.7.1 3.5-.8 3.8-1.4 0 .3.1 1.1.1 1.1.2 1.7 1.7 2.9 3.7 2.9 1.7 0 3.4-1.3 3.4-1.9 0-.2 0-.3.2-.6.2-.2.2-.5.1-.6-.1-.1-.2-.2-.3-.2-.1 0-.4-.2-.9-.3.7-.5 1.1-1.2 1.4-1.6l.1-.1c.2-.3.3-.4.8-.4.4 0 .7.1.9.4l.2.4c0 .4-.2.4-.3.4-.2 0-.3.2-.2.4 0 .2.2.3.3.2.2-.1.7-.3.7-1l-.3-.8c-.3-.3-.8-.5-1.4-.5-.8 0-1.1.4-1.3.7l-.1.2c-.3.5-1.1 1.8-2.3 1.7-.4-.1-.5-.2-.5-.4-.1-.2 0-.7.2-1.2.2-.4.6-.6 1-.7 1.4-.1 2.3-1.1 2.5-1.4 0 0 .6-.8 1.5-.5.6.2 1 .1 1.2 0 .2-.1.2-.1.3.1.3.3.2 1.5 0 2.2 0 .1 0 .2.1.3.1.1.2.1.3.1 0 0 2-.2 2.1-.2.1 0 2.7-.1 2.9 2.1.4.1.4.3.3.5z"/><path class="st4" d="M96.3 32.9s2.2 1 2.8 1.3c.5.2 1.6.5 1.6-.2s-.6-.7-.7-1.3c0-.3.5-.8.6-1.5.1-.5 0-1.2-.8-.8-.7.3-1.5.8-1.8.7-.3-.1-1.2-.1-.6-2 .6-1.5.9-2.6-.3-2.5-.3 0-.6.4-.8.4-.2 0-.5-.4-.8-.4-1.2 0-.9 1-.3 2.5.6 1.9-.3 1.9-.6 2-.3.1-1.1-.4-1.8-.7-.8-.4-.9.3-.8.8.1.7.6 1.2.6 1.5-.1.6-.7.5-.7 1.3 0 .7 1.1.4 1.6.2.6-.2 2.8-1.3 2.8-1.3z"/><path class="st1" d="M94.5 26.7c-.3.5-.1 1.3.4 2.6.3.8.2 1.2.1 1.4-.1.2-.2.2-.4.2s-.7-.2-1-.4l-.7-.3c-.5-.2-.8-.1-.9 0-.4.3-.3.9-.3 1.1l.4 1.1.2.4-.2.3c-.2.2-.4.4-.4.9 0 .3.2.5.3.6.5.4 1.5 0 1.7-.1 0 0 2.4-1.1 2.6-1.2.2.1 2.6 1.2 2.6 1.2.2.1 1.2.5 1.7.1.1-.1.3-.3.3-.6 0-.5-.3-.8-.4-.9 0 0-.2-.3-.2-.4l.2-.3.4-1.1V31c0-.3-.1-.6-.3-.8-.2-.1-.5-.2-.9 0l-.7.3c-.3.2-.8.4-.9.4-.2-.1-.4-.1-.5-.3-.1-.2-.2-.6.1-1.4.5-1.2.7-2.1.4-2.5-.2-.3-.5-.4-1-.4l-.7.3-.2.1-.1-.1-.7-.3c-.4 0-.7.1-.9.4zm.2 4.7c.2-.1.6-.1.9-.5.2-.4.2-1-.1-1.9-.2-.5-.7-1.7-.4-2 .1-.1.3-.1.5-.1l.3.2.5.2.5-.2.3-.2c.2 0 .4 0 .5.1.2.3-.2 1.5-.4 2-.3.9-.3 1.5-.1 1.9.2.4.6.5.8.5.4.1.7-.1 1.4-.4l.6-.3c.2-.1.3-.1.3-.1.1 0 .1.2.1.6l-.6 1.5c0 .1.4.8.4.8.2.1.3.2.3.5v.1c-.2.1-.7 0-1.2-.2l-2.8-1.3s-.1.1-.1.3c-.1-.1-.1-.3-.1-.3l-2.8 1.3c-.5.2-1 .3-1.2.2V34c0-.3.1-.4.3-.5l.4-.7c0-.1-.2-.7-.2-.7l-.4-.9c0-.3 0-.5.1-.6 0 0 .1 0 .3.1l.6.3c.6.3 1 .5 1.3.4zm5-1.3z"/><path class="st4" d="M96.3 9.4s.9-.2 2.2.3c1.3.5 1.7.3 1.8-.4.1-.8-1-.9-1-.9L97.5 8s-.7-.1-.7-.9V5.9s0-.8-.5-.8-.5.8-.5.8v1.2c0 .7-.7.9-.7.9l-1.8.4s-1.2.1-1 .9c.2.7.6.8 1.8.4 1.3-.4 2.2-.3 2.2-.3z"/><path class="st1" d="M95.5 6v1.2c0 .5-.4.5-.5.6l-1.8.4s-.7.1-1.1.5l-.2.7c.1.3.2.6.5.8.4.2.9.1 1.7-.2 1.2-.4 2.1-.3 2.1-.3s.9-.1 2.1.3c.9.3 1.4.3 1.7.2.3-.2.4-.5.5-.8l-.2-.8c-.4-.5-1-.5-1.1-.6l-1.8-.4c-.1 0-.5-.1-.5-.6V6c0-.5-.3-1.1-.8-1.1-.4 0-.6.5-.6 1.1zm-2.9 3c.2-.2.6-.3.7-.3l1.8-.4c.3 0 .9-.4.9-1.1V6s0-.5.2-.5.2.5.2.5v1.2c0 .8.6 1.1 1 1.1l1.8.4c.2 0 .6.1.8.3l.1.3c-.1.2-.1.3-.2.4-.2.1-.6 0-1.2-.2-1.3-.5-2.2-.3-2.3-.3-.1 0-1-.1-2.3.3-.7.2-1.1.3-1.2.2-.1 0-.1-.1-.2-.4-.2 0-.1-.3-.1-.3z"/><path class="st4" d="M65.8 41.8s-1.1-1-1.9-.2c-.6.6 0 1.6.2 1.8.2.2 1 .7 1.7 0 .8-.6 0-1.6 0-1.6z"/><path class="st1" d="M63.7 41.4c-.8.8-.2 1.9.2 2.3.2.2.6.5 1.1.5.4 0 .7-.2 1.1-.5.7-.7.3-1.7 0-2-.5-.5-1.6-1.1-2.4-.3zm.6 1.9-.3-.7c-.1-.3 0-.6.2-.8.6-.6 1.4.1 1.5.2.1.1.3.4.3.7 0 .2-.1.4-.2.5-.2.2-.4.3-.6.3-.5.1-.8-.1-.9-.2z"/><path class="st4" d="M74.5 38.7c0 .5-.4.8-.8.8-.5 0-.8-.4-.8-.8 0-.5.4-.8.8-.8.5-.1.8.3.8.8z"/><path class="st1" d="M72.5 38.7c0 .6.5 1.1 1.1 1.1.6 0 1.1-.5 1.1-1.1 0-.6-.5-1.1-1.1-1.1-.5-.1-1.1.4-1.1 1.1zm.6 0c0-.3.2-.5.5-.5s.5.2.5.5-.2.5-.5.5c-.2 0-.5-.2-.5-.5z"/><path class="st4" d="M89.8 34.6c0 .5-.4.8-.8.8-.5 0-.8-.4-.8-.8 0-.5.4-.8.8-.8s.8.3.8.8z"/><path class="st1" d="M87.8 34.6c0 .6.5 1.1 1.1 1.1.6 0 1.1-.5 1.1-1.1s-.5-1.1-1.1-1.1c-.6 0-1.1.5-1.1 1.1zm.6 0c0-.3.2-.5.5-.5s.5.2.5.5-.2.5-.5.5c-.3.1-.5-.2-.5-.5z"/><path class="st4" d="M62.3 40.9s-2.8-2.3-3.1-.5c0 0 0 .7 1 .7 1 .1 2.1-.2 2.1-.2z"/><path class="st1" d="M59.6 39.5c-.2.1-.5.3-.6.9 0 .4.3 1.1 1.3 1.1l2.8-.3-.6-.4c-.2-.3-1.9-1.7-2.9-1.3zm-.1.9c.1-.3.2-.3.3-.4.4-.1 1.1.2 1.7.7-.6.1-1.2.1-1.2.1-.7.1-.8-.3-.8-.4z"/><path class="st4" d="M76.6 35.8s-.1-.2-.6-.4c-.4-.2-.6-1-.2-1.2.4-.1.7-.3 1.2-.1.5.2 1.1.8 2 .3.9-.5.2-1.6.2-1.6s-.5-1.1-.9-1.3c-.4-.2-.3-1 0-1.1.3-.1 1.1-.1 1.4-.3.3-.2 1-.9 1.4-.8.3 0 .4.9.3 1.2-.1.3-.3 1.9.6 2.2.9.3 1.7-.4 1.7-.4s.8-.8 1.1-.5c.3.3.1.9.1 1.4 0 .4.6.9.5 1.2-.1.3-.6.5-1.2.5s-2.3-.2-2.9 0c-.6.2-1.9.9-3.1 1.8 0 0-.7.5-1.1.5-.5 0-.8-.3-.7-1 .2-.1.3-.2.2-.4z"/><path class="st1" d="m79.9 29.6-.3.2-.8.2h-.6c-.3.1-.5.4-.5.7 0 .4.1.8.4 1 .2.1.6.8.8 1.2.1.2.3.5.2.9 0 .1-.1.3-.3.4-.6.3-1 .1-1.4-.1l-.4-.2c-.6-.2-1-.1-1.4.1-.3.1-.5.4-.5.7 0 .4.2.9.6 1l.5.3v.4c0 .4.1.6.2.7.1.1.4.3.8.3.4.1 1.1-.4 1.3-.6 1-.8 2.3-1.4 3-1.8.4-.2 1.4-.1 2 0h.7c.6 0 1.4-.2 1.5-.7.1-.3-.1-.6-.3-.8l-.1-.5v-.4c0-.4.1-.9-.3-1.2-.5-.4-1.3.3-1.6.5 0 0-.7.6-1.4.3l-.2-.2c-.2-.5-.1-1.3-.1-1.5.1-.3.1-.9-.1-1.3-.1-.2-.3-.3-.4-.3-.4-.1-.8.2-1.3.7zm-1.1 1 1.1-.3.3-.2c.2-.2.7-.5.9-.6.1.1.1.3.1.5v.3c0 .1-.1.5-.1.9s.1.8.2 1.1l.7.6c1 .3 1.9-.4 2-.5.3-.3.7-.5.8-.5.1.1.1.4.1.6v.6l.4.8.2.3c0 .1-.4.3-1 .3h-.7c-.8-.1-1.8-.1-2.3.1-.3.1-1.8.8-3.2 1.8-.3.2-.7.5-.9.4-.2 0-.3 0-.4-.1-.1-.1-.1-.3-.1-.5 0 0 .1-.2-.1-.5v-.1l-.7-.5c-.1-.1-.3-.3-.3-.5v-.1c.4-.2.7-.2 1-.1l.3.2c.4.2 1.1.6 1.9.1.3-.2.5-.4.6-.7v-.3c0-.5-.2-.9-.3-.9-.1-.2-.5-1.2-1.1-1.5-.1-.1-.1-.3-.1-.3 0-.2.1-.3.1-.3.2-.1.6-.1.6-.1zM76.3 36z"/><path class="st4" d="M126.8 41.8s1.1-1 1.9-.2c.6.6 0 1.6-.2 1.8-.2.2-1 .7-1.7 0-.8-.6 0-1.6 0-1.6z"/><path class="st1" d="M126.6 41.6c-.4.4-.8 1.3-.1 2.1.3.3.7.5 1.1.5.5 0 .9-.2 1.1-.5.4-.4 1-1.5.2-2.3-.8-.8-1.9-.2-2.3.2zm1 2c-.2 0-.4-.1-.6-.3-.2-.2-.2-.3-.2-.5 0-.3.2-.6.3-.7.1-.1.9-.8 1.5-.2.2.2.3.5.2.8l-.4.6c-.2.1-.5.3-.8.3z"/><path class="st4" d="M118.1 38.7c0 .5.4.8.8.8.5 0 .8-.4.8-.8 0-.5-.4-.8-.8-.8-.5-.1-.8.3-.8.8z"/><path class="st1" d="M118.9 37.5c-.6 0-1.1.5-1.1 1.1 0 .6.5 1.1 1.1 1.1.6 0 1.1-.5 1.1-1.1.1-.6-.5-1.1-1.1-1.1zm0 1.7c-.3 0-.5-.2-.5-.5s.2-.5.5-.5.5.2.5.5c.1.3-.2.5-.5.5z"/><path class="st4" d="M102.8 34.6c0 .5.4.8.8.8.5 0 .8-.4.8-.8 0-.5-.4-.8-.8-.8s-.8.3-.8.8z"/><path class="st1" d="M103.7 33.5c-.6 0-1.1.5-1.1 1.1s.5 1.1 1.1 1.1c.6 0 1.1-.5 1.1-1.1s-.5-1.1-1.1-1.1zm0 1.7c-.3 0-.5-.2-.5-.5s.2-.5.5-.5.5.2.5.5-.2.5-.5.5z"/><path class="st4" d="M130.3 40.9s2.8-2.3 3.1-.5c0 0 0 .7-1 .7-1 .1-2.1-.2-2.1-.2z"/><path class="st1" d="m130.1 40.7-.6.4 2.8.3c1 0 1.3-.7 1.3-1.1-.1-.6-.4-.8-.6-.9-1-.3-2.7 1.1-2.9 1.3zm2.2.2s-.7-.1-1.2-.1c.6-.4 1.3-.8 1.7-.7 0 0 .2.1.3.4 0 0-.1.4-.8.4z"/><path class="st4" d="M116 35.8s.1-.2.6-.4c.4-.2.6-1 .2-1.2-.4-.1-.7-.3-1.2-.1-.5.2-1.1.8-2 .3-.9-.5-.2-1.6-.2-1.6s.5-1.1.9-1.3c.4-.2.3-1 0-1.1-.3-.1-1.1-.1-1.4-.3-.3-.2-1-.9-1.4-.8-.3 0-.4.9-.3 1.2.1.3.3 1.9-.6 2.2-.9.3-1.7-.4-1.7-.4s-.8-.8-1.1-.5c-.3.3-.1.9-.1 1.4 0 .4-.6.9-.5 1.2.1.3.6.5 1.2.5s2.3-.2 2.9 0c.6.2 1.9.9 3.1 1.8 0 0 .7.5 1.1.5.5 0 .8-.3.7-1-.2-.1-.3-.2-.2-.4z"/><path class="st1" d="M111.4 28.9c-.1 0-.3.1-.4.3-.2.4-.2 1-.1 1.3.1.2.2 1-.1 1.5l-.3.3c-.7.2-1.4-.3-1.4-.3-.2-.2-1-1-1.6-.5-.4.3-.3.8-.3 1.2v.4l-.3.5c-.2.3-.4.5-.3.8.2.5.9.7 1.5.7h.7c.7-.1 1.7-.1 2 0 .8.3 2 1 3 1.8.2.1.9.6 1.3.6s.6-.2.8-.3c.1-.1.2-.3.2-.7v-.4l.5-.3c.4-.2.6-.7.6-1 0-.3-.2-.6-.5-.7-.4-.1-.8-.3-1.4-.1l-.4.2c-.4.2-.8.4-1.4.1-.2-.1-.3-.2-.3-.4-.1-.3.1-.7.2-.9.2-.4.6-1.1.8-1.2.3-.2.5-.6.4-1 0-.4-.2-.6-.5-.7l-.5-.1-.8-.2-.3-.2c-.3-.5-.7-.8-1.1-.7zm2.8 1.7s.1.1.1.3c0 .1 0 .2-.1.3-.5.3-1 1.3-1.1 1.5 0 .1-.3.5-.3.9v.3c.1.3.3.6.6.7.8.5 1.5.1 1.9-.1l.3-.2c.4-.1.6-.1 1 .1v.1c0 .2-.1.4-.3.5l-.7.5v.1c-.1.2-.1.5-.1.5 0 .2 0 .4-.1.5-.1.1-.2.1-.4.1-.1 0-.5-.2-.9-.4-1.3-1.1-2.9-1.7-3.2-1.8-.5-.2-1.5-.1-2.3-.1h-.7c-.6 0-.9-.2-1-.3l.2-.3.4-.8v-.6c0-.3-.1-.5.1-.6.1 0 .5.2.8.5 0 0 .9.8 2 .5l.7-.6c.2-.3.2-.7.2-1.1 0-.4-.1-.7-.1-.9v-.3c0-.2 0-.5.1-.5.2 0 .7.4.9.6l.3.2 1.1.3c.2.1.6.1.6.1zm2.1 5.4z"/><path class="st4" d="M97.1 32c0 .4-.4.8-.8.8s-.8-.4-.8-.8.4-.8.8-.8.8.3.8.8z"/><path class="st7" d="M96.3 31.2V29v2.2zM97.1 32s1.3.4 2.3.4l-2.3-.4zM95.5 32s-1.3.4-2.3.4l2.3-.4z"/><path class="st1" d="M99.4 32.1c-.7 0-1.6-.2-2-.3-.1-.4-.4-.7-.7-.8v-2c0-.2-.1-.3-.3-.3-.2 0-.3.1-.3.3v2c-.4.1-.7.4-.7.8-.4.1-1.3.3-2 .3-.2 0-.3.1-.3.3 0 .2.1.3.3.3.7 0 1.6-.2 2-.3.2.4.5.7 1 .7s.9-.3 1-.7c.5.1 1.3.3 2 .3.2 0 .3-.1.3-.3 0-.2-.2-.3-.3-.3zm-3.1.4c-.3 0-.5-.2-.5-.5s.2-.5.5-.5.5.2.5.5-.2.5-.5.5zM84.5 33.4c0-.3-.5-.2-.4-.2l-.8.2-.8.2h-.9c-.2-.2-.5-.3-.8-.3-.1-1-.4-1.6-.4-1.6-.1-.1-.3-.2-.4-.1-.1.1-.2.3-.1.4 0 0 .3.5.3 1.4-.3.1-.5.4-.6.7-.2.1-1.5.6-2.5 1.3-.1.1-.2.3-.1.4.1.1.3.2.4.1.8-.6 1.8-1 2.2-1.1.2.4.6.6 1.1.6.6 0 1.2-.5 1.2-1v-.1h.7l1-.2.6-.1c-.1-.2.4-.3.3-.6z"/><path class="st4" d="M80.8 34.6c-.3 0-.6-.2-.6-.4s.3-.4.6-.4.6.2.6.4c0 .3-.3.4-.6.4z"/><path class="st1" d="m108.4 33.8.6.1 1 .2h.7v.1c0 .6.5 1 1.2 1 .5 0 .9-.3 1.1-.6.4.2 1.4.6 2.2 1.1.1.1.3.1.4-.1.1-.1.1-.3-.1-.4-1-.7-2.3-1.2-2.5-1.3-.1-.3-.3-.5-.6-.7.1-.9.3-1.4.3-1.4.1-.1 0-.3-.1-.4-.1-.1-.3 0-.4.1 0 0-.3.6-.4 1.6-.3 0-.6.1-.8.3h-.9l-.8-.2-.8-.2c.2 0-.3-.1-.4.2-.1.5.4.6.3.6z"/><path class="st4" d="M111.2 34.2c0-.2.3-.4.6-.4s.6.2.6.4-.3.4-.6.4-.6-.1-.6-.4z"/><path class="st1" d="m96.3 41.7-5.1 2.6v.5l5.1 2.8h.2l5.1-2.8v-.5l-5.1-2.6h-.2z"/><path d="m96.4 42.3 4.4 2.2c-.8.4-4.1 2.3-4.4 2.5-.2-.1-3.6-2-4.4-2.5l4.4-2.2z" style="fill:#2e9a3c"/><path class="st1" d="m73.4 46.7-2.1 3.7 4.4 1.3 3.6-4.8-5.9-.3v.1z"/><path class="st3" d="M73.8 47.2c.3 0 3.6.2 4.4.3-.5.7-2.5 3.3-2.8 3.6-.3-.1-2.7-.9-3.3-1 .3-.6 1.5-2.7 1.7-2.9z"/><path class="st1" d="m87.3 43.9-6.1.9c-1 .1-1.6 1.2-1.4 2.3.1.6.4 1.1.8 1.4.4.3.8.4 1.2.3l6.1-.9c.4-.1.8-.3 1.1-.7.3-.4.4-.8.4-1.3v-.3c-.1-.6-.4-1.1-.8-1.4-.5-.3-.9-.4-1.3-.3z"/><path class="st4" d="M80.9 48c-.3-.2-.5-.6-.6-1-.1-.8.3-1.5.9-1.6l6.1-.9c.3 0 .5 0 .8.2.3.2.5.6.6 1 .1.4 0 .9-.3 1.2-.2.2-.4.4-.7.4l-6.1.9c-.2 0-.5 0-.7-.2z"/><path class="st1" d="m119.4 46.6-5.9.3 3.6 4.8 4.4-1.3-2.1-3.7v-.1z"/><path class="st3" d="M120.6 50c-.5.2-3 .9-3.3 1-.2-.3-2.2-2.9-2.8-3.6.9-.1 4.1-.3 4.4-.3.3.3 1.5 2.4 1.7 2.9z"/><path class="st1" d="M104.3 44.2c-.4.3-.7.8-.8 1.4v.3c0 .5.1.9.4 1.3.3.4.7.6 1.1.7l6.1.9c.4.1.9-.1 1.2-.3.4-.3.7-.8.8-1.4.2-1.1-.5-2.1-1.4-2.3l-6.1-.9c-.5-.1-.9 0-1.3.3z"/><path class="st4" d="m111.1 48.2-6.1-.9c-.3 0-.5-.2-.7-.4-.2-.3-.3-.7-.3-1.2.1-.4.3-.8.6-1 .2-.2.5-.2.8-.2l6.1.9c.6.1 1.1.8.9 1.6-.1.4-.3.8-.6 1-.1.2-.4.2-.7.2z"/><path class="st1" d="m96.3 42.4-3.7 1.9v.5l3.7 2.1h.3l3.7-2.1v-.5l-3.7-1.9h-.3zm.1.6c.2.1 2.4 1.2 3.1 1.6-.7.4-2.8 1.6-3.1 1.7-.2-.1-2.4-1.3-3.1-1.7.7-.4 2.9-1.5 3.1-1.6zM73.7 47.5 72.2 50l3.1 1 2.6-3.4-4.2-.3v.2zm.4.4c.3 0 2 .1 2.7.2-.4.6-1.5 1.9-1.7 2.2-.3-.1-1.5-.5-2-.6.3-.5.9-1.5 1-1.8zM86.8 44.6l-4.8.7c-.8.1-1.3.8-1.2 1.5 0 .3.2.6.5.8.3.2.7.3 1.1.3l4.8-.7c.4-.1.8-.3 1-.6.2-.2.3-.5.3-.8v-.2c0-.3-.2-.6-.5-.8-.3-.1-.8-.2-1.2-.2zm-5.1 2.6c-.2-.1-.3-.3-.3-.4-.1-.4.3-.8.7-.9l4.8-.7c.2 0 .5 0 .7.2.2.1.3.3.3.4 0 .2 0 .4-.1.5-.1.2-.4.3-.6.3l-4.8.7c-.3.1-.5.1-.7-.1zm6.8-1.5zM119 47.3l-4.2.3 2.6 3.4 3.1-1-1.5-2.6v-.1zm.7 2.4c-.5.1-1.7.5-2 .6-.2-.2-1.2-1.6-1.7-2.2.7 0 2.4-.2 2.7-.2.1.3.7 1.3 1 1.8zM104.8 44.9c-.3.2-.5.5-.5.8v.2c0 .3.1.5.3.8.2.3.6.5 1 .6l4.8.7c.4.1.8 0 1.1-.3.3-.2.5-.5.5-.8.1-.7-.4-1.4-1.2-1.5l-4.8-.7c-.4-.1-.8 0-1.2.2zm5.6 2.5-4.8-.7c-.2 0-.5-.2-.6-.3-.1-.2-.2-.3-.1-.5 0-.2.1-.3.3-.4.2-.1.4-.2.7-.2l4.8.7c.5.1.8.5.7.9 0 .2-.1.3-.3.4-.2.1-.4.1-.7.1zm-6.1-1.7zM94.6 23.5c0 1 .8 1.8 1.8 1.8s1.8-.8 1.8-1.8-.8-1.8-1.8-1.8-1.8.8-1.8 1.8z"/><path class="st4" d="M95.2 23.5c0-.7.5-1.2 1.2-1.2s1.2.5 1.2 1.2-.5 1.2-1.2 1.2c-.7-.1-1.2-.6-1.2-1.2z"/><path class="st1" d="M94.8 20.2c0 .9.7 1.6 1.6 1.6s1.6-.7 1.6-1.6c0-.9-.7-1.6-1.6-1.6s-1.6.7-1.6 1.6z"/><path class="st4" d="M95.4 20.2c0-.5.4-1 1-1 .5 0 1 .4 1 1 0 .5-.4 1-1 1-.5 0-1-.5-1-1z"/><path class="st1" d="M95 17.4c0 .8.6 1.4 1.4 1.4.8 0 1.4-.6 1.4-1.4 0-.8-.6-1.4-1.4-1.4-.8 0-1.4.6-1.4 1.4z"/><path class="st4" d="M95.6 17.4c0-.4.3-.8.8-.8.4 0 .8.3.8.8s-.3.8-.8.8c-.4 0-.8-.4-.8-.8z"/><path class="st1" d="M95.2 15c0 .6.5 1.2 1.2 1.2.6 0 1.2-.5 1.2-1.2 0-.6-.5-1.2-1.2-1.2-.6.1-1.2.6-1.2 1.2z"/><path class="st4" d="M95.8 15c0-.3.3-.6.6-.6s.6.3.6.6-.3.6-.6.6-.6-.3-.6-.6zM76.5 18.5c0 .4-.4.8-.8.8s-.8-.4-.8-.8.4-.8.8-.8c.5 0 .8.3.8.8z"/><path class="st1" d="M74.7 18.5c0 .6.5 1.1 1.1 1.1.6 0 1.1-.5 1.1-1.1 0-.6-.5-1.1-1.1-1.1-.6 0-1.1.5-1.1 1.1zm.6 0c0-.3.2-.5.5-.5s.5.2.5.5-.2.5-.5.5c-.3-.1-.5-.3-.5-.5z"/><path class="st4" d="M74.9 18.7c0 .5-.4.9-.9.9s-.9-.4-.9-.9.4-.9.9-.9.9.4.9.9z"/><path class="st1" d="M72.8 18.7c0 .7.5 1.2 1.2 1.2s1.2-.5 1.2-1.2-.5-1.2-1.2-1.2-1.2.5-1.2 1.2zm.6 0c0-.3.3-.6.6-.6s.6.3.6.6-.3.6-.6.6-.6-.3-.6-.6z"/><path class="st4" d="M73.1 19.4c0 .6-.5 1-1 1s-1-.5-1-1c0-.6.5-1 1-1s1 .5 1 1z"/><path class="st1" d="M70.8 19.4c0 .7.6 1.3 1.3 1.3.7 0 1.3-.6 1.3-1.3 0-.7-.6-1.3-1.3-1.3-.7 0-1.3.6-1.3 1.3zm.6 0c0-.4.3-.7.7-.7.4 0 .7.3.7.7 0 .4-.3.7-.7.7-.4.1-.7-.3-.7-.7z"/><path class="st4" d="M71.4 20.6c0 .6-.5 1.2-1.2 1.2-.6 0-1.2-.5-1.2-1.2 0-.6.5-1.2 1.2-1.2s1.2.5 1.2 1.2z"/><path class="st1" d="M68.8 20.6c0 .8.7 1.5 1.5 1.5s1.5-.7 1.5-1.5-.7-1.5-1.5-1.5c-.9 0-1.5.7-1.5 1.5zm.6 0c0-.5.4-.9.9-.9s.9.4.9.9-.4.9-.9.9c-.5-.1-.9-.5-.9-.9z"/><path class="st4" d="M69.7 22.2c0 .7-.6 1.3-1.3 1.3-.7 0-1.3-.6-1.3-1.3 0-.7.6-1.3 1.3-1.3.7 0 1.3.5 1.3 1.3z"/><path class="st1" d="M66.8 22.2c0 .9.7 1.6 1.6 1.6.9 0 1.6-.7 1.6-1.6 0-.9-.7-1.6-1.6-1.6-.9 0-1.6.7-1.6 1.6zm.6 0c0-.5.4-1 1-1 .5 0 1 .4 1 1s-.4 1-1 1c-.6-.1-1-.5-1-1z"/><path class="st4" d="M68.2 24.4c0 .8-.6 1.4-1.4 1.4-.8 0-1.4-.6-1.4-1.4S66 23 66.8 23c.8 0 1.4.6 1.4 1.4z"/><path class="st1" d="M65.1 24.4c0 .9.8 1.7 1.7 1.7.9 0 1.7-.8 1.7-1.7s-.8-1.7-1.7-1.7c-.9 0-1.7.7-1.7 1.7zm.6 0c0-.6.5-1.1 1.1-1.1.6 0 1.1.5 1.1 1.1s-.5 1.1-1.1 1.1c-.6 0-1.1-.5-1.1-1.1z"/><path class="st4" d="M67.1 27c0 .8-.7 1.5-1.5 1.5s-1.5-.7-1.5-1.5.7-1.5 1.5-1.5 1.5.6 1.5 1.5z"/><path class="st1" d="M63.7 27c0 1 .8 1.8 1.8 1.8s1.8-.8 1.8-1.8-.8-1.8-1.8-1.8c-.9 0-1.8.8-1.8 1.8zm.6 0c0-.7.6-1.2 1.2-1.2.7 0 1.2.6 1.2 1.2 0 .7-.6 1.2-1.2 1.2s-1.2-.5-1.2-1.2z"/><path class="st4" d="M66.5 30.1c0 .9-.7 1.7-1.7 1.7-.9 0-1.7-.7-1.7-1.7 0-.9.7-1.7 1.7-1.7.9.1 1.7.8 1.7 1.7z"/><path class="st1" d="M62.9 30.1c0 1.1.9 1.9 1.9 1.9 1.1 0 1.9-.9 1.9-1.9 0-1.1-.9-1.9-1.9-1.9-1.1 0-1.9.9-1.9 1.9zm.6 0c0-.7.6-1.4 1.4-1.4.7 0 1.4.6 1.4 1.4 0 .7-.6 1.4-1.4 1.4-.8 0-1.4-.6-1.4-1.4z"/><path class="st4" d="M66.3 33.5c0 1-.8 1.8-1.8 1.8s-1.8-.8-1.8-1.8.8-1.8 1.8-1.8c1 .1 1.8.9 1.8 1.8z"/><path class="st1" d="M62.4 33.5c0 1.1.9 2.1 2.1 2.1 1.1 0 2.1-.9 2.1-2.1s-.9-2.1-2.1-2.1c-1.1.1-2.1 1-2.1 2.1zm.6 0c0-.8.7-1.5 1.5-1.5s1.5.7 1.5 1.5-.7 1.5-1.5 1.5-1.5-.6-1.5-1.5z"/><path class="st4" d="M76.8 29.1c-.8-.6-.9-1.7-.3-2.5.6-.8 1.7-.9 2.5-.3.8.6.9 1.7.3 2.5-.6.8-1.7.9-2.5.3z"/><path class="st1" d="M77.7 25.7c-.6.1-1 .3-1.4.8-.3.4-.5.8-.5 1.3v.2c.1.6.3 1 .8 1.4.4.3 1 .5 1.5.4.6-.1 1-.3 1.4-.8.3-.4.5-1 .4-1.5-.1-.6-.3-1-.8-1.4-.3-.3-.8-.5-1.4-.4zm-.7 3.2c-.3-.2-.5-.6-.5-1s.1-.8.3-1.1c.2-.3.6-.5 1-.5s.8.1 1.1.3c.3.2.5.6.5 1s-.1.8-.3 1.1c-.2.3-.6.5-1 .5s-.8-.1-1.1-.3zm-.3.4z"/><path class="st4" d="M76.3 25.2c-.6-.7-.4-1.8.3-2.3.7-.6 1.8-.4 2.3.3.6.7.4 1.8-.3 2.3-.7.5-1.8.4-2.3-.3z"/><path class="st1" d="M76.4 22.6c-.4.3-.7.8-.7 1.3-.1.5.1 1 .4 1.4.7.8 1.9 1 2.8.3.4-.3.7-.8.7-1.3.1-.5-.1-1-.4-1.4-.8-.8-2-.9-2.8-.3zm-.2 1.6c0-.4.2-.8.5-1.1.6-.5 1.4-.4 1.9.2.2.3.3.6.3 1s-.2.7-.5.9c-.6.5-1.4.4-1.9-.2-.2-.2-.3-.5-.3-.8z"/><path class="st4" d="M76.5 21.4c-.3-.8.1-1.7.9-2 .8-.3 1.7.1 2 .9.3.8-.1 1.7-.9 2-.8.3-1.7-.1-2-.9z"/><path class="st1" d="M77.3 19.1c-.5.2-.8.5-1 1-.1.2-.2.5-.2.7 0 .2 0 .5.1.7.4.9 1.4 1.4 2.4 1 .5-.2.8-.5 1-1 .2-.5.2-1 0-1.4-.2-.5-.5-.8-1-1-.4-.2-.9-.2-1.3 0zm-.5 2.2c-.1-.3-.1-.6 0-1 .1-.3.4-.5.7-.7.3-.1.6-.1 1 0 .3.1.5.4.7.7.1.3.1.6 0 1-.1.3-.4.5-.7.7-.7.2-1.5-.1-1.7-.7zm-.6.2z"/><path class="st4" d="M77.8 18c-.1-.8.5-1.5 1.3-1.5.8-.1 1.5.5 1.5 1.3.1.8-.5 1.5-1.3 1.5-.8.1-1.5-.5-1.5-1.3z"/><path class="st1" d="M79.1 16.2c-.9.1-1.6.8-1.6 1.7v.1c.1 1 .9 1.7 1.8 1.6 1-.1 1.7-.9 1.6-1.8 0-.5-.2-.9-.6-1.2-.3-.3-.8-.4-1.2-.4zm-1 1.8c0-.6.4-1.2 1.1-1.2.3 0 .6.1.8.3.2.2.4.5.4.8 0 .6-.4 1.2-1.1 1.2-.7 0-1.2-.5-1.2-1.1zm-.6 0z"/><path class="st4" d="M79.7 15.4c.2-.7.9-1.2 1.6-1 .7.2 1.2.9 1 1.6-.2.7-.9 1.2-1.6 1-.7-.2-1.2-.9-1-1.6z"/><path class="st1" d="M80.1 14.3c-.4.2-.6.6-.7 1v.3c0 .3.1.6.3.9.2.4.6.6 1 .7.9.2 1.7-.4 1.9-1.2.1-.4 0-.9-.2-1.2-.2-.4-.6-.6-1-.7-.5-.1-1 0-1.3.2zm.7 2.4c-.3-.1-.5-.2-.6-.4-.2-.3-.3-.5-.2-.8.1-.3.2-.5.4-.6.2-.1.5-.2.8-.1.3.1.5.2.6.4.1.2.2.5.1.8-.1.5-.6.8-1.1.7zm-1.4-1.3z"/><path class="st4" d="M82 13.8c.3-.6 1-.9 1.6-.6.6.3.9 1 .6 1.6-.3.6-1 .9-1.6.6-.6-.3-.9-1-.6-1.6z"/><path class="st1" d="M81.7 13.6c-.3.8 0 1.6.7 2 .8.3 1.6 0 2-.7.3-.8 0-1.6-.7-2-.7-.4-1.6 0-2 .7zm1.8-.2c.5.2.7.7.4 1.2-.2.5-.7.7-1.2.4-.3-.2-.5-.5-.5-.8 0-.1 0-.3.1-.4.2-.4.7-.6 1.2-.4z"/><path class="st4" d="M84.4 12.7c.3-.5 1-.6 1.5-.3s.6 1 .3 1.5-1 .6-1.5.3-.7-1-.3-1.5z"/><path class="st1" d="M84.1 12.6c-.4.6-.3 1.5.4 1.9.3.2.7.3 1 .2.4-.1.7-.3.9-.6.4-.6.3-1.5-.4-1.9-.6-.4-1.5-.3-1.9.4zm1.6.1c.4.2.5.7.2 1.1-.1.2-.3.3-.5.3s-.4 0-.6-.1c-.2-.2-.4-.4-.4-.7 0-.2 0-.3.1-.4.4-.4.8-.5 1.2-.2z"/><path class="st4" d="M86.6 12.2c.3-.4 1-.5 1.4-.1.4.4.5 1 .1 1.4-.4.4-1 .5-1.4.1-.4-.4-.4-1-.1-1.4z"/><path class="st1" d="M86.4 12c-.5.5-.4 1.3.1 1.8s1.3.4 1.8-.1.4-1.3-.1-1.8c-.6-.5-1.4-.5-1.8.1zm.5 1.3c-.3-.2-.3-.7-.1-1 .2-.3.7-.3 1-.1.3.2.3.7.1 1-.3.3-.7.4-1 .1z"/><path class="st4" d="M90.5 11.9c.3-.3.8-.2 1.1.1.3.3.2.8-.1 1.1-.3.3-.8.2-1.1-.1-.2-.4-.2-.8.1-1.1z"/><path class="st1" d="M90.3 11.7c-.4.4-.5 1-.1 1.5.4.4 1 .5 1.5.1.4-.4.5-1 .1-1.5-.4-.4-1-.5-1.5-.1zm1 .5c.2.2.1.5 0 .6-.2.2-.5.1-.6 0-.1-.1-.1-.2-.1-.3 0-.1.1-.3.2-.3.1-.2.4-.2.5 0zM93.4 50.7v3.9h.6v-3.9h-.6zM96.4 50.6h-.3v4.1h.6v-4.1h-.3zM98.8 50.7v3.9h.6v-3.9h-.6z"/><path class="st0" d="M94 50.7v3.9h2.1v-4.1c-.4.1-1.1.1-2.1.2zM98.8 50.7v3.9h-2.1v-4.1c.4.1 1.1.1 2.1.2z"/><path class="st4" d="M95.7 64.1v1.1h-2.5l.3-1.1h2.2z"/><path class="st1" d="M95.9 64.1v1.3h-3l.1-.3.3-1.1.1-.2H96v.3h-.1zm-.4.9v-.7h-1.7l-.3.7h2z"/><path class="st4" d="M96.8 58.6v-.3h.8v.3h.7v.6H98v.4l1.1 3.6h-1.9c-.1-.5-.7-.5-.7-.5s-.6 0-.7.5h-1.9l1.1-3.6v-.4h-.3v-.6h.7v-.3h.6v.3h.8z"/><path class="st1" d="M96.5 58.4v-.3h1.2v.2h.7v1H98.1v.1l1.1 3.6.1.3h-2.4v-.2c-.1-.3-.4-.4-.5-.4-.1 0-.4 0-.5.4v.2h-2.4l.1-.3 1.1-3.6v-.1H94.4v-1H95v-.2h1.2v.2h.3v.1zm.5.2v.3h-1.2v-.2h-.3v.2h-.7v.1H95.1V59.6l-1 3.3h1.5c.2-.5.8-.5.8-.5s.6 0 .8.5h1.5l-1-3.3V59h.3v-.1h-.7v-.2H97v-.1z"/><path class="st4" d="M97.1 64.1v1.1h2.5l-.3-1.1h-2.2z"/><path class="st1" d="M97.4 64.3v.7h1.9l-.2-.7h-1.7zm-.5.9v-1.3H99.5l.1.2.3 1.1.1.3h-3v-.3h-.1zM95 61.8h1.2v-1.1H95v1.1zM97.8 61.8h-1.1v-1.1h1.1v1.1z"/><path class="st4" d="M62.8 64.1v1.1h-2.5l.3-1.1h2.2z"/><path class="st1" d="M63.1 64.1v1.3H60l.1-.3.3-1.1.1-.2H63.1v.3zm-.5.9v-.7h-1.7l-.2.7h1.9z"/><path class="st4" d="M63.9 58.6v-.3h.8v.3h.7v.6h-.3v.4l1.1 3.6h-1.9c-.1-.5-.7-.5-.7-.5s-.6 0-.7.5H61l1.1-3.6v-.4h-.3v-.6h.7v-.3h.8v.3h.6z"/><path class="st1" d="M63.7 58.4v-.3H65v.2h.7v1H65.4v.1l1.1 3.6.1.3h-2.4v-.2c-.1-.3-.4-.4-.5-.4-.1 0-.4 0-.5.4v.2h-2.4l.1-.3 1.1-3.6v-.1H61.7v-1h.7v-.2h1.2v.2h.1v.1zm.5.2v.3H63.1v-.2h-.3v.2h-.7v.1H62h.2V59.6l-1 3.3h1.5c.2-.5.8-.5.8-.5s.6 0 .8.5h1.5l-1-3.3V59H65.1v-.1h-.7v-.2h-.2v-.1z"/><path class="st4" d="M64.3 64.1v1.1h2.5l-.3-1.1h-2.2z"/><path class="st1" d="M64.5 64.3v.7h1.9l-.2-.7h-1.7zm-.5.9v-1.3H66.6l.1.2.3 1.1.1.3H64v-.3zM62.1 61.8h1.2v-1.1h-1.2v1.1zM65 61.8h-1.2v-1.1H65v1.1z"/><path class="st4" d="M65 97v1.1h-2.5l.3-1.1H65z"/><path class="st1" d="M65.3 97v1.3H62.2l.1-.3.3-1.1.1-.2H65.3v.3zm-.5.9v-.7h-1.7l-.2.7h1.9z"/><path class="st4" d="M66.1 91.6v-.3h.8v.3h.7v.6h-.3v.4l1.1 3.6h-1.9c-.1-.5-.7-.5-.7-.5s-.6 0-.7.5h-1.9l1.1-3.6v-.4H64v-.6h.7v-.3h.8v.3h.6z"/><path class="st1" d="M65.9 91.3V91h1.2v.2h.7v1H67.5v.1l1.1 3.6.1.3h-2.4V96c-.1-.3-.4-.4-.5-.4-.1 0-.4 0-.5.4v.2h-2.4l.1-.3 1.1-3.6v-.1H63.8v-1h.7V91h1.2v.2h.2v.1zm.5.2v.3H65.3v-.2H65v.2h-.7v.2H64.6V92.6l-1 3.3h1.5c.2-.5.8-.5.8-.5s.6 0 .8.5h1.5l-1-3.3V92H67.5v-.1h-.7v-.2h-.4v-.2z"/><path class="st4" d="M66.5 97v1.1H69l-.3-1.1h-2.2z"/><path class="st1" d="M66.7 97.3v.7h1.9l-.2-.7h-1.7zm-.4.9v-1.4H68.9l.1.2.3 1.1.1.3h-3.1v-.2zM64.4 94.8h1.1v-1.1h-1.1v1.1zM67.2 94.8H66v-1.1h1.2v1.1z"/><path class="st4" d="M74.4 126.9v1.1h-2.5l.3-1.1h2.2z"/><path class="st1" d="M74.6 126.9v1.3h-3l.1-.3.3-1.1.1-.2H74.7v.3h-.1zm-.5.9v-.7h-1.7l-.2.7h1.9z"/><path class="st4" d="M77 122v-.6h-.7v-.3h-.8v.3h-.7v-.3H74v.3h-.7v.6h.3v.4l-1.1 3.6h1.9c.1-.5.7-.5.7-.5s.6 0 .7.5h.9l.8-.9-.8-2.7v-.4h.3z"/><path class="st1" d="M76.7 121.8v-.1H76v-.2h-.3v.2H74.6v-.2h-.3v.2h-.7v.1H73.9V122.4l-1 3.3h1.5c.2-.5.8-.5.8-.5s.6 0 .8.5h.6l.6-.8-.8-2.6v-.5h.3zm.5-.4v.8H76.9v.1l.8 2.6v.1l-.1.1-.8.9-.1.1h-1.2v-.2c-.1-.3-.4-.4-.5-.4-.1 0-.4 0-.5.4v.2h-2.4l.1-.3 1.1-3.6v-.1H73V121.2h.7v-.2H75v.2h.3v-.2h1.2v.2h.7v.2z"/><path class="st4" d="M76 126.9h-.2v.2l.2-.2z"/><path class="st1" d="M75.8 126.6h.7l-.3.4-.2.2-.4.5v-1.1h.2zM73.7 124.6h1.1v-1.1h-1.1v1.1zM76.5 124.6h-1.2v-1.1h1.2v1.1z"/><path class="st4" d="M129.6 59.6v-.4h.3v-.6h-.7v-.3h-.8v.3h-.7v-.3h-.8v.3h-.7v.6h.3v.4l-1.1 3.6h1.9c.1-.5.7-.5.7-.5s.4 0 .6.3l1.5-1.8-.5-1.6z"/><path class="st1" d="M129.4 59.6V59H129.7v-.1h-.7v-.2h-.3v.2H127.6v-.2h-.3v.2h-.7v.1H126.9V59.6l-1 3.3h1.5c.2-.5.8-.5.8-.5s.3 0 .5.2l1.2-1.5-.5-1.5zm.5-.1v.1l.5 1.6v.1l-.1.1-1.5 1.8-.2.2-.2-.3c-.1-.2-.3-.2-.4-.2-.1 0-.4.1-.5.4v.2h-2.4l.1-.3 1.1-3.6v-.1H126v-1h.7v-.2h1.2v.2h.3v-.2h1.2v.2h.7v1h-.2z"/><path class="st4" d="M127.3 64.1h-2.2l-.3 1.1h2l.5-.7v-.4z"/><path class="st1" d="M127.1 64.3h-1.7l-.2.7h1.5l.4-.5v-.2zm-1.9-.5h2.2v.2h.2v.6l-.1.1-.5.7-.1.1h-2.4l.1-.3.3-1.1.1-.2h.2v-.1zM129.5 61.8h-1.2v-1.1h1.2v1.1zM126.6 61.8h1.2v-1.1h-1.2v1.1zM88.4 13.4c.4.5 1.2.5 1.6 0 .5-.4.5-1.2 0-1.6-.2-.2-.5-.3-.8-.3-.3 0-.6.1-.8.3-.2.2-.3.5-.3.8 0 .3.1.5.3.8z"/><path class="st4" d="M88.9 12.2c.2-.2.6-.2.8 0 .2.2.2.6 0 .8-.2.2-.6.2-.8 0-.1-.1-.2-.2-.2-.4s.1-.3.2-.4zM116.1 18.5c0 .4.4.8.8.8s.8-.4.8-.8-.4-.8-.8-.8c-.5 0-.8.3-.8.8z"/><path class="st1" d="M116.8 17.4c-.6 0-1.1.5-1.1 1.1 0 .6.5 1.1 1.1 1.1.6 0 1.1-.5 1.1-1.1 0-.6-.5-1.1-1.1-1.1zm0 1.5c-.3 0-.5-.2-.5-.5s.2-.5.5-.5.5.2.5.5-.2.5-.5.5z"/><path class="st4" d="M117.7 18.7c0 .5.4.9.9.9s.9-.4.9-.9-.4-.9-.9-.9-.9.4-.9.9z"/><path class="st1" d="M118.6 17.5c-.7 0-1.2.5-1.2 1.2s.5 1.2 1.2 1.2 1.2-.5 1.2-1.2-.5-1.2-1.2-1.2zm0 1.8c-.3 0-.6-.3-.6-.6s.3-.6.6-.6.6.3.6.6-.3.6-.6.6z"/><path class="st4" d="M119.5 19.4c0 .6.5 1 1 1 .6 0 1-.5 1-1 0-.6-.5-1-1-1-.6 0-1 .5-1 1z"/><path class="st1" d="M120.5 18.1c-.7 0-1.3.6-1.3 1.3 0 .7.6 1.3 1.3 1.3.7 0 1.3-.6 1.3-1.3 0-.7-.6-1.3-1.3-1.3zm0 2.1c-.4 0-.7-.3-.7-.7 0-.4.3-.7.7-.7.4 0 .7.3.7.7 0 .3-.3.7-.7.7z"/><path class="st4" d="M121.2 20.6c0 .6.5 1.2 1.2 1.2.6 0 1.2-.5 1.2-1.2 0-.6-.5-1.2-1.2-1.2s-1.2.5-1.2 1.2z"/><path class="st1" d="M122.4 19.1c-.8 0-1.5.7-1.5 1.5s.7 1.5 1.5 1.5 1.5-.7 1.5-1.5c-.1-.8-.7-1.5-1.5-1.5zm0 2.3c-.5 0-.9-.4-.9-.9s.4-.9.9-.9.9.4.9.9c-.1.5-.5.9-.9.9z"/><path class="st4" d="M122.9 22.2c0 .7.6 1.3 1.3 1.3.7 0 1.3-.6 1.3-1.3 0-.7-.6-1.3-1.3-1.3-.7 0-1.3.5-1.3 1.3z"/><path class="st1" d="M124.2 20.6c-.9 0-1.6.7-1.6 1.6 0 .9.7 1.6 1.6 1.6.9 0 1.6-.7 1.6-1.6 0-.9-.7-1.6-1.6-1.6zm0 2.5c-.5 0-1-.4-1-1s.4-1 1-1c.5 0 1 .4 1 1s-.4 1-1 1z"/><path class="st4" d="M124.4 24.4c0 .8.6 1.4 1.4 1.4.8 0 1.4-.6 1.4-1.4s-.6-1.4-1.4-1.4c-.8 0-1.4.6-1.4 1.4z"/><path class="st1" d="M125.8 22.7c-.9 0-1.7.8-1.7 1.7s.8 1.7 1.7 1.7c.9 0 1.7-.8 1.7-1.7s-.8-1.7-1.7-1.7zm0 2.8c-.6 0-1.1-.5-1.1-1.1s.5-1.1 1.1-1.1c.6 0 1.1.5 1.1 1.1s-.5 1.1-1.1 1.1z"/><path class="st4" d="M125.5 27c0 .8.7 1.5 1.5 1.5s1.5-.7 1.5-1.5-.7-1.5-1.5-1.5-1.5.6-1.5 1.5z"/><path class="st1" d="M127 25.2c-1 0-1.8.8-1.8 1.8s.8 1.8 1.8 1.8 1.8-.8 1.8-1.8c.1-1-.8-1.8-1.8-1.8zm0 3c-.7 0-1.2-.6-1.2-1.2 0-.7.6-1.2 1.2-1.2.7 0 1.2.6 1.2 1.2.1.7-.5 1.2-1.2 1.2z"/><path class="st4" d="M126.1 30.1c0 .9.7 1.7 1.7 1.7.9 0 1.7-.7 1.7-1.7 0-.9-.7-1.7-1.7-1.7-.9.1-1.7.8-1.7 1.7z"/><path class="st1" d="M127.8 28.2c-1.1 0-1.9.9-1.9 1.9 0 1.1.9 1.9 1.9 1.9 1.1 0 1.9-.9 1.9-1.9 0-1-.8-1.9-1.9-1.9zm0 3.3c-.7 0-1.4-.6-1.4-1.4 0-.7.6-1.4 1.4-1.4.7 0 1.4.6 1.4 1.4-.1.8-.7 1.4-1.4 1.4z"/><path class="st4" d="M126.3 33.5c0 1 .8 1.8 1.8 1.8s1.8-.8 1.8-1.8-.8-1.8-1.8-1.8c-1 .1-1.8.9-1.8 1.8z"/><path class="st1" d="M128.1 31.5c-1.1 0-2.1.9-2.1 2.1s.9 2.1 2.1 2.1c1.1 0 2.1-.9 2.1-2.1s-1-2.1-2.1-2.1zm0 3.5c-.8 0-1.5-.7-1.5-1.5s.7-1.5 1.5-1.5 1.5.7 1.5 1.5c0 .9-.7 1.5-1.5 1.5z"/><path class="st4" d="M115.8 29.1c.8-.6.9-1.7.3-2.5-.6-.8-1.7-.9-2.5-.3-.8.6-.9 1.7-.3 2.5.6.8 1.7.9 2.5.3z"/><path class="st1" d="M113.4 26.1c-.4.3-.7.8-.8 1.4-.1.6.1 1.1.4 1.5.3.4.8.7 1.4.8.5.1 1.1-.1 1.5-.4.4-.3.7-.8.8-1.4v-.2c0-.5-.2-.9-.5-1.3s-.8-.7-1.4-.8c-.5-.1-1 .1-1.4.4zm1.1 3.1c-.4 0-.7-.2-1-.5-.2-.3-.4-.7-.3-1.1 0-.4.2-.7.5-1 .3-.2.7-.4 1.1-.3.4 0 .7.2 1 .5.2.3.4.7.3 1.1 0 .4-.2.7-.5 1-.3.2-.7.3-1.1.3zm1.4.1z"/><path class="st4" d="M116.3 25.2c.6-.7.4-1.8-.3-2.3-.7-.6-1.8-.4-2.3.3-.6.7-.4 1.8.3 2.3.7.5 1.8.4 2.3-.3z"/><path class="st1" d="M113.5 23c-.3.4-.5.9-.4 1.4.1.5.3 1 .7 1.3.8.7 2.1.5 2.8-.3.3-.4.5-.9.4-1.4-.1-.5-.3-1-.7-1.3-.9-.7-2.1-.6-2.8.3zm2.6 2c-.5.6-1.3.7-1.9.2-.3-.2-.5-.5-.5-.9s.1-.7.3-1c.5-.6 1.3-.7 1.9-.2.3.3.5.7.5 1.1 0 .3-.1.6-.3.8z"/><path class="st4" d="M116.1 21.4c.3-.8-.1-1.7-.9-2-.8-.3-1.7.1-2 .9-.3.8.1 1.7.9 2 .8.3 1.7-.1 2-.9z"/><path class="st1" d="M113.9 19.1c-.5.2-.8.6-1 1-.2.5-.2 1 0 1.4.2.5.6.8 1 1 .9.4 2-.1 2.4-1 .1-.2.1-.4.1-.7 0-.2-.1-.5-.2-.7-.2-.5-.6-.8-1-1-.3-.2-.8-.2-1.3 0zm.3 2.9c-.3-.1-.6-.4-.7-.7-.1-.3-.1-.6 0-1 .1-.3.4-.6.7-.7.3-.1.6-.1 1 0 .3.1.6.4.7.7.1.3.1.6 0 1-.3.6-1.1.9-1.7.7zm2.2-.5z"/><path class="st4" d="M114.8 18c.1-.8-.5-1.5-1.3-1.5-.8-.1-1.5.5-1.5 1.3-.1.8.5 1.5 1.3 1.5.8.1 1.5-.5 1.5-1.3z"/><path class="st1" d="M112.3 16.6c-.3.3-.6.7-.6 1.2-.1 1 .7 1.8 1.6 1.8 1 .1 1.8-.7 1.8-1.6v-.1c0-.9-.7-1.7-1.6-1.7-.4 0-.9.1-1.2.4zm1 2.5c-.6 0-1.1-.6-1.1-1.2 0-.3.2-.6.4-.8.2-.2.5-.3.8-.3.6 0 1.1.6 1.1 1.2s-.5 1.1-1.2 1.1zm1.8-1.1z"/><path class="st4" d="M112.9 15.4c-.2-.7-.9-1.2-1.6-1-.7.2-1.2.9-1 1.6.2.7.9 1.2 1.6 1 .7-.2 1.2-.9 1-1.6z"/><path class="st1" d="M111.3 14.1c-.4.1-.8.3-1 .7-.2.4-.3.8-.2 1.2.2.9 1 1.4 1.9 1.2.4-.1.8-.3 1-.7.2-.3.3-.6.3-.9v-.3c-.1-.4-.3-.8-.7-1-.4-.2-.9-.3-1.3-.2zm-.7 1.8c-.1-.3 0-.5.1-.8.1-.2.4-.4.6-.4.3-.1.5 0 .8.1.2.1.4.4.4.6.1.3 0 .5-.1.8-.1.2-.4.4-.6.4-.5.2-1-.1-1.2-.7zm2.6-.5z"/><path class="st4" d="M110.6 13.8c-.3-.6-1-.9-1.6-.6-.6.3-.9 1-.6 1.6.3.6 1 .9 1.6.6.6-.3.9-1 .6-1.6z"/><path class="st1" d="M108.9 12.9c-.8.3-1.1 1.2-.7 2 .3.8 1.2 1.1 2 .7.8-.3 1.1-1.2.7-2-.4-.7-1.3-1.1-2-.7zm1.4 1c.1.1.1.2.1.4 0 .3-.2.7-.5.8-.5.2-1 0-1.2-.4-.2-.5 0-1 .4-1.2.5-.3 1-.1 1.2.4z"/><path class="st4" d="M108.2 12.7c-.3-.5-1-.6-1.5-.3s-.6 1-.3 1.5 1 .6 1.5.3.7-1 .3-1.5z"/><path class="st1" d="M106.6 12.2c-.6.4-.8 1.3-.4 1.9.2.3.5.5.9.6.4.1.7 0 1-.2.6-.4.8-1.3.4-1.9-.4-.7-1.3-.8-1.9-.4zm1.4.7c.1.1.1.3.1.4 0 .3-.1.5-.4.7-.2.1-.4.2-.6.1-.2 0-.4-.2-.5-.3-.2-.4-.1-.9.2-1.1.5-.3.9-.2 1.2.2z"/><path class="st4" d="M106 12.2c-.3-.4-1-.5-1.4-.1-.4.4-.5 1-.1 1.4.4.4 1 .5 1.4.1.4-.4.4-1 .1-1.4z"/><path class="st1" d="M104.4 11.8c-.5.5-.6 1.3-.1 1.8s1.3.6 1.8.1.6-1.3.1-1.8c-.4-.5-1.2-.5-1.8-.1zm.3 1.4c-.2-.3-.2-.7.1-1 .3-.2.7-.2 1 .1.2.3.2.7-.1 1-.3.3-.7.2-1-.1z"/><path class="st4" d="M102.1 11.9c-.3-.3-.8-.2-1.1.1-.3.3-.2.8.1 1.1.3.3.8.2 1.1-.1.2-.4.2-.8-.1-1.1z"/><path class="st1" d="M100.8 11.8c-.4.4-.3 1.1.1 1.5.4.4 1.1.3 1.5-.1.4-.4.3-1.1-.1-1.5-.5-.4-1.1-.3-1.5.1zm1.1.3c.1.1.2.2.2.3 0 .1 0 .2-.1.3-.2.2-.4.2-.6 0-.2-.2-.2-.4 0-.6 0-.1.3-.1.5 0z"/><path class="st1" d="M104.5 12.5c0-.3-.1-.6-.3-.8-.2-.2-.5-.3-.8-.3-.3 0-.6.1-.8.3-.4.5-.4 1.2 0 1.6.5.4 1.2.4 1.6 0 .2-.2.3-.4.3-.8z"/><path class="st4" d="M103.9 12.5c0 .1-.1.3-.2.4-.2.2-.6.2-.8 0-.2-.2-.2-.6 0-.8.2-.2.6-.2.8 0 .1.2.2.3.2.4z"/></svg>