<svg version="1.1" id="Layer_1" xmlns="http://www.w3.org/2000/svg" x="0" y="0" viewBox="0 0 192.8 192.8" style="enable-background:new 0 0 192.8 192.8" xml:space="preserve"><style>.st0,.st2,.st3{fill-rule:evenodd;clip-rule:evenodd;fill:#fff}.st2,.st3{fill:#e20613}.st3{fill:#d6b36a}</style><path class="st0" d="M96.4 2.7c51.6 0 93.7 42.1 93.7 93.7s-42.1 93.7-93.7 93.7S2.7 148 2.7 96.4 44.8 2.7 96.4 2.7z"/><path d="M30.2 162.6 162.6 30.4c16.9 16.9 27.5 40.3 27.5 66 0 51.6-42.1 93.7-93.7 93.7-25.8 0-49.3-10.4-66.2-27.5z" style="fill-rule:evenodd;clip-rule:evenodd;fill:#312782"/><path class="st0" d="M117.7 120.7c9.1 0 16.6 7.5 16.6 16.8 0 9.1-7.5 16.6-16.6 16.6-9.3 0-16.8-7.5-16.8-16.6 0-9.3 7.5-16.8 16.8-16.8zm16.3-8.6c-4.7-3-10.3-4.7-16.3-4.7-16.5 0-30 13.6-30 30 0 16.5 13.6 30 30 30 6.1 0 11.6-1.8 16.3-4.8v.7h21.9v-14.4h-7.6V63.1h-33.2v14.4H134v34.6z"/><path class="st2" d="m162.6 30.2-10 10V21.3c3.5 2.8 6.9 5.7 10 8.9zM115.1 4.5c-4-.8-8-1.3-12-1.7H89.7c-4.1.4-8.2 1-12.1 1.7v35.7h37.5V4.5zM40.2 21.6c-7.1 5.3-13.4 11.6-18.8 18.6h18.8V21.6zM40.2 40.2h37.4v37.4H40.2V40.2zM115.1 63.1h14.6l22.9-22.9h-37.5v22.9zM115.1 77.6l-37.5 37.5V77.6h37.5zM4.6 115.1c-1.2-6.1-1.8-12.3-1.8-18.8 0-6.4.6-12.7 1.8-18.8h35.6V115H4.6v.1zM77.6 115.1l-37.4 37.4H21.7c2.5 3.5 5.4 6.9 8.5 10l10-10v-37.4h37.4z"/><path class="st3" d="m96.4 5 4.7.1 4.6.4 4.6.6 4.5.8 4.4 1 4.3 1.2 4.2 1.4 4.1 1.6 4 1.8 3.9 2 3.8 2.2 3.7 2.4 3.6 2.6 3.5 2.7 3.3 2.9 3.2 3 3 3.2 2.9 3.3 2.7 3.5 2.6 3.6 2.4 3.7 2.2 3.8 2 3.9 1.8 4 1.6 4.1 1.4 4.2 1.2 4.3 1 4.4.8 4.5.6 4.6.4 4.6.1 4.7-.1 4.7-.4 4.6-.6 4.6-.8 4.5-1 4.4-1.2 4.3-1.4 4.2-1.6 4.1-1.8 4-2 3.9-2.2 3.8-2.4 3.7-2.6 3.6-2.7 3.5-2.9 3.3-3 3.2-3.2 3-3.3 2.9-3.5 2.7-3.6 2.6-3.7 2.4-3.8 2.2-3.9 2-4 1.8-4.1 1.6-4.2 1.4-4.3 1.2-4.4 1-4.5.8-4.6.6-4.6.4-4.7.1-4.7-.1-4.6-.4-4.6-.6-4.5-.8-4.4-1-4.3-1.2-4.2-1.4-4.1-1.6-4-1.8-3.9-2-3.8-2.2-3.7-2.4-3.6-2.6-3.5-2.7L35 164l-3.2-3-3-3.2-2.9-3.3-2.7-3.5-2.6-3.6-2.4-3.7-2.2-3.8-2-3.9-1.8-4-1.6-4.1-1.4-4.2-1.2-4.3-1-4.4-1-4.7-.6-4.6-.4-4.6v-4.7l.1-4.7.4-4.6.5-4.6.8-4.5 1-4.4L9 69.3l1.4-4.2L12 61l1.8-4 2-3.9 2.2-3.8 2.4-3.7L23 42l2.7-3.5 2.9-3.3 3-3.2 3.2-3 3.3-2.9 3.5-2.7 3.6-2.6 3.7-2.4 3.8-2.2 3.9-2 4-1.8 4.1-1.6 4.2-1.4 4.3-1.2 4.4-1L82.5 6l4.6-.6 4.6-.4h4.7zm0-4.6 4.9.1 4.9.4 4.8.6 4.7.8 4.6 1.1 4.5 1.3 4.5 1.5 4.4 1.7 4.2 1.9 4.1 2.1 4 2.3 3.9 2.5 3.8 2.7 3.6 2.9 3.5 3 3.3 3.2 3.2 3.3 3 3.5 2.9 3.6 2.7 3.8 2.5 3.9 2.3 4 2.1 4.1 1.9 4.3 1.7 4.4 1.5 4.5 1.3 4.5 1.1 4.6.8 4.7.6 4.8.4 4.9.1 4.9-.1 4.9-.4 4.9-.6 4.8-.8 4.7-1.1 4.6-1.3 4.5-1.5 4.5-1.7 4.4-1.9 4.2-2.1 4.1-2.3 4-2.5 3.9-2.7 3.8-2.9 3.6-3 3.5-3.2 3.3-3.3 3.2-3.5 3-3.6 2.9-3.8 2.7-3.9 2.5-4 2.3-4.1 2.1-4.2 1.9-4.4 1.7-4.5 1.5-4.5 1.3-4.6 1.1-4.7.8-4.8.6-4.9.4-4.9.1-4.9-.1-4.9-.4-4.8-.6-4.7-.8-4.6-1.1-4.5-1.3-4.5-1.5-4.4-1.7-4.3-1.9-4.1-2.1-4-2.3-3.9-2.5-3.8-2.7-3.6-2.9-3.5-3-3.3-3.2-3.2-3.3-3-3.5-2.9-3.6-2.7-3.8-2.5-3.9-2.3-4-2.1-4.1-1.9-4.2-1.7-4.4-1.5-4.5-1.3-4.5-1.1-4.6-.9-4.6-.6-4.8-.4-4.9-.1-4.9.1-4.9.4-4.9.6-4.8.8-4.7 1.1-4.6L4.7 68l1.5-4.5 1.7-4.4 1.9-4.3 2.1-4.1 2.3-4 2.5-3.9 2.7-3.8 2.9-3.6 3-3.5 3.2-3.3 3.3-3.2 3.5-3 3.6-2.9 3.8-2.7 3.9-2.5 4-2.3 4.1-2.1L59 8l4.4-1.7 4.5-1.5 4.5-1.3L77 2.4l4.7-.8 4.8-.6 4.9-.4 5-.2z"/><path class="st3" d="M117.7 122.4h.8l.8.1.7.1.7.1.7.2.7.2.7.2.7.3.7.3.6.3.6.4.6.4.6.4.6.4.5.5.5.5.5.5.5.6.4.6.4.6.4.6.4.6.3.7.3.7.3.7.2.7.2.7.2.7.1.7.1.8.1.8v1.6l-.1.8-.1.7-.1.7-.2.7-.2.7-.2.7-.3.7-.3.7-.3.6-.4.6-.4.6-.4.6-.4.6-.5.5-.5.5-.5.5-.5.5-.6.4-.6.4-.6.4-.6.4-.6.3-.7.3-.7.3-.7.2-.7.2-.7.2-.7.1-.7.1-.8.1h-1.6l-.8-.1-.8-.1-.7-.1-.7-.2-.7-.2-.7-.2-.7-.3-.7-.3-.7-.3-.6-.4-.6-.4-.6-.4-.6-.5-.6-.5-.5-.5-.5-.5-.4-.5-.4-.6-.4-.6-.4-.6-.4-.6-.4-.6-.3-.7-.3-.7-.2-.7-.2-.7-.2-.7-.1-.7-.1-.7-.1-.8v-1.6l.1-.8.1-.8.1-.7.2-.7.2-.7.2-.7.3-.7.3-.7.3-.7.4-.6.4-.6.4-.6.4-.6.5-.5.5-.5.5-.5.5-.5.6-.4.6-.4.6-.4.6-.4.7-.3.7-.3.7-.3.7-.2.7-.2.7-.2.7-.1.8-.1.8-.1h.9zm8-15.7-.6-.1-.6-.1-.6-.1-.6-.1-.6-.1-.6-.1-.6-.1-.6-.1-.6-.1h-4.6l-1.6.1-1.6.2-1.6.3-1.5.4-1.5.4-1.5.5-1.4.6-1.4.6-1.4.7-1.3.8-1.3.8-1.2.9-1.2.9-1.2 1-1.1 1.1-1.1 1.1-1 1.2-.9 1.2-.9 1.2-.8 1.3-.8 1.3-.7 1.4-.6 1.4-.6 1.4-.5 1.5-.4 1.5-.4 1.5-.3 1.6-.2 1.6-.1 1.6v3.2l.1 1.6.2 1.6.3 1.6.4 1.5.4 1.5.5 1.5.6 1.4.6 1.4.7 1.4.8 1.3.8 1.3.9 1.2.9 1.2 1 1.2 1.1 1.1L96 161l1.2 1 1.2.9 1.2.9 1.3.8 1.3.8 1.4.7 1.4.6 1.4.6 1.5.5 1.5.4 1.5.4 1.6.3 1.6.2 1.6.1h4.6l.6-.1.6-.1.6-.1.6-.1.6-.1.6-.1.6-.1.6-.1.6-.1.5-.2.5-.2.5-.2.5-.2.5-.2.5-.2.5-.2.5-.2.5-.2.5-.2.5-.2.5-.2.5-.3.5-.3.4-.2.4.1h23.7v-17.7H150V61.4h-36.5v17.7h18.9v30.1l-.3-.2-.5-.2-.5-.2-.5-.2-.5-.2-.5-.2-.5-.2-.5-.2-.5-.2-.5-.2-.5-.2-.5-.2-.9-.1zm-8 12.3h.9l.9.1.9.1.9.2.9.2.9.2.8.3.8.3.8.4.8.4.8.4.7.5.7.5.7.5.7.6.6.6.6.6.6.7.5.7.5.7.5.7.4.8.4.8.4.8.3.8.3.9.2.9.2.9.2.9.1.9.1.9v1.9l-.1.9-.1.9-.2.9-.2.9-.2.9-.3.8-.3.8-.4.8-.4.8-.4.8-.5.7-.5.7-.5.7-.6.7-.6.6-.6.6-.7.6-.7.5-.7.5-.7.5-.8.4-.8.4-.8.4-.8.3-.8.3-.9.2-.9.2-.9.2-.9.1-.9.1h-1.9l-.9-.1-.9-.1-.9-.2-.9-.2-.9-.2-.9-.3-.8-.3-.8-.4-.8-.4-.8-.4-.7-.5-.7-.5-.7-.5-.7-.6-.6-.6-.6-.6-.6-.7-.5-.7-.5-.7-.5-.7-.4-.8-.4-.8-.4-.8-.3-.8-.3-.8-.2-.9-.2-.9-.2-.9-.1-.9-.1-.9v-1.9l.1-.9.1-.9.2-.9.2-.9.2-.9.3-.9.3-.8.4-.8.4-.8.4-.8.5-.7.5-.7.5-.7.6-.7.6-.6.6-.6.7-.6.7-.5.7-.5.7-.5.8-.4.8-.4.8-.4.8-.3.9-.3.9-.2.9-.2.9-.2.9-.1.9-.1h1zm18-3.9-3-1.9-.4-.3-.4-.2-.4-.2-.4-.2-.4-.2-.4-.2-.5-.2-.5-.2-.5-.2-.5-.2-.5-.2-.5-.2-.5-.2-.5-.2-.5-.1-.5-.1-.5-.1-.5-.1-.5-.1-.5-.1-.5-.1-.5-.1-.5-.1-.5-.1-.5-.1-.5-.1h-4l-1.4.1-1.4.2-1.4.3-1.4.3-1.3.4-1.3.4-1.3.5-1.3.6-1.2.6-1.2.7-1.2.7-1.1.8-1.1.8-1 .9-1 .9-.9 1-.9 1-.8 1.1-.8 1.1-.7 1.2-.7 1.2-.6 1.2-.6 1.3-.5 1.3-.4 1.3-.4 1.3-.3 1.4-.3 1.4-.2 1.4-.1 1.4v2.8l.1 1.4.2 1.4.3 1.4.3 1.4.4 1.3.4 1.3.5 1.3.6 1.3.6 1.2.7 1.2.7 1.2.8 1.1.8 1.1.9 1 .9 1 1 .9 1 .9 1.1.8 1.1.8 1.2.7 1.2.7 1.2.6 1.3.6 1.3.5 1.3.4 1.3.4 1.4.3 1.4.3 1.4.2 1.4.1h4l.5-.1.5-.1.5-.1.5-.1.5-.1.5-.1.5-.1.5-.1.5-.1.5-.1.5-.1.5-.2.5-.2.5-.2.5-.2.5-.2.5-.2.5-.2.5-.2.5-.2.4-.2.4-.2.4-.2.4-.2.4-.3.4-.3 3-1.9v2.1h18.6v-11.1h-7.6V64.7h-29.8v11.1h18.9v39.3h-.1z"/><path class="st3" d="M75.9 79.3h-34v34.2H76V79.3h-.1zM165 30.1l-8.4 8.4-5.7 5.7-20.5 20.5h-16.9V41.9H79.3V76h39.9l-37.5 37.5-5.7 5.7-31.7 31.7-5.7 5.7-8.4 8.4-1.7-1.8-.6-.6-.6-.6-.6-.6-.6-.6-.6-.6-.6-.6-.5-.6-.5-.6-.5-.6-.5-.7-.5-.7-.5-.7-.5-.7-.5-.7-2.4-3.3h20.1v-34.1H3.2l-.4-1.9-.1-.6-.1-.6-.1-.6-.1-.6-.1-.6-.1-.6-.1-.6-.1-.6v-.6l-.1-.6-.1-.6-.1-.6-.1-.6-.1-.6-.1-.6-.1-.6-.1-.6V88l.1-.6.1-.6.1-.6.1-.6.1-.6.1-.6.1-.6.1-.7.1-.6.1-.5.1-.6.1-.6.1-.6.1-.6V79l.1-.6.1-.6.4-1.9h35.3v-34H18.1l2.6-3.3.5-.7.5-.7.5-.7.5-.7.5-.6.5-.6.6-.6.6-.6.6-.6.6-.6.6-.6.6-.6.6-.6.6-.6.6-.6.6-.6.6-.6.6-.6.6-.6.6-.6.6-.6.6-.6.6-.6.6-.6.6-.5.7-.5.7-.5.7-.5.7-.5.7-.5 3.3-2.5v20.3H76V3.1l2-.4.7-.1.7-.1.8-.1.8-.2.8-.1.8-.1.8-.1.8-.1.8-.1.8-.1.8-.1.8-.1.6-.1.8-.1.9-.1h13.6l.8.1.8.1.8.1.8.1.8.1.8.1.8.1.8.1.8.1.8.1.8.1.8.1.8.1.8.1.8.1 2.1.4v35.4h34.1V17.9l3.4 2.7.7.5.7.5.7.5.7.5.6.5.6.6.6.6.6.6.6.6.6.6.6.6.6.6.6.6.6.6 1.3 1.6zm-4.8.1-6 6V24.8l.5.4.6.5.6.5.6.5.6.5.6.5.6.6.6.6.6.6.7.7zM79.4 5.9l.7-.1.7-.1.7-.1.7-.1.7-.1.8-.1.9-.3.8-.1.8-.1.8-.1.8-.1.8-.1.8-.1.7-.1h13.3l.7.1.7.1.7.1.7.1.7.1.7.1.7.1.7.1.7.1.7.1.7.1.7.1.7.1.7.1h.1v32.7h-34l.1-32.5zM32.5 30.3l.6-.6.6-.6.6-.6.6-.5.6-.5.6-.5.6-.5.6-.5.6-.5.6-.5v13.6H24.9l.4-.5.5-.6.5-.6.5-.6.5-.6.5-.6.5-.6.6-.6.6-.6.6-.6.6-.6.6-.6.6-.6.6-.6zm9.4 11.6H76V76H41.9V41.9zm74.9 19.5V41.9h31.7L129 61.4h-12.2zM5.4 109.7l-.1-.6-.1-.6v-.5l-.1-.6-.1-.5v-.6l-.1-.6-.1-.6-.1-.6V87.7l.1-.6.1-.1.1-.6v-.5l.1-.6.1-.6.1-.6.1-.6V83l.1-.6.1-.6.1-.6.1-.6.1-.6.1-.6v-.1h32.6v34.2H6l-.1-.3-.1-.6-.1-.6-.1-.6-.1-.6-.1-.6v-.5zm36.5 7.1h31.7l-31.7 31.7v-31.7zM26 155.4l-.5-.6-.4-.5h11.2l-6 6-.5-.5-.5-.6-.5-.6-.5-.6-.5-.6-.5-.6-.5-.6-.8-.8zm53.3-44.3V79.3h31.8l-31.8 31.8z"/></svg>