<svg version="1.1" id="Layer_1" xmlns="http://www.w3.org/2000/svg" x="0" y="0" viewBox="0 0 192.8 192.8" style="enable-background:new 0 0 192.8 192.8" xml:space="preserve"><style>.st0,.st2,.st3,.st4,.st5{fill-rule:evenodd;clip-rule:evenodd;fill:#1d1d1b}.st2,.st3,.st4,.st5{fill:#ffcb00}.st3,.st4,.st5{fill:#fff}.st4,.st5{fill:#e32213}.st5{fill:#868686}</style><path class="st0" d="M96.4 192.8c38.2-39.6 58.2-87.6 60-144H36.3c1.9 56.4 21.9 104.4 60.1 144z"/><path d="M96.4 192.1c37.8-39.4 57.7-87 59.5-142.8h-119c1.9 55.9 21.7 103.5 59.5 142.8z" style="fill-rule:evenodd;clip-rule:evenodd;fill:#312782"/><path class="st0" d="M151.9 53.2c-2.6 51.7-21.1 96.1-55.5 133.2C62 149.3 43.5 104.9 40.9 53.2h111z"/><path class="st2" d="M96.4 185.7c34-36.8 52.3-80.8 55-132H41.5c2.6 51.2 21 95.2 54.9 132z"/><path class="st0" d="M148.8 56.1c-3.1 48.6-20.6 90.6-52.4 126-31.9-35.4-49.3-77.4-52.4-126h104.8z"/><path class="st3" d="M96.4 181.4c31.5-35.1 48.8-76.7 51.9-124.8H44.5c3.2 48.1 20.5 89.7 51.9 124.8z"/><path class="st0" d="M146.2 58.6c-3.4 46-20 86-49.8 119.8C66.6 144.5 50 104.6 46.6 58.6h99.6z"/><path class="st4" d="M96.4 177.7c29.4-33.6 45.8-73.1 49.2-118.6H47.1c3.5 45.4 19.9 85 49.3 118.6z"/><path class="st0" d="M130 19.3c0-.7-.2-1.3-.8-1.8-.5-.5-1.1-.8-1.8-.7h-.5c.1-.3.1-.5.2-.8 0-.7-.3-1.3-.8-1.8s-1.1-.8-1.8-.8c-.6 0-1.2.2-1.7.6-.1-.4-.4-.8-.7-1.1-.5-.5-1.1-.7-1.8-.7s-1.3.2-1.8.7c-.1.2-.2.3-.3.4-.1-.2-.2-.4-.4-.5-.5-.5-1.1-.8-1.8-.7-.6 0-1.2.2-1.6.5-.1-.1-.2-.3-.3-.4-.6-.6-1.2-.8-2-.8v-.2c0-.8-.3-1.4-.8-1.9-.6-.5-1.2-.8-2-.8-.4 0-.7 0-1 .2-.1-.5-.4-.9-.7-1.3-.6-.6-1.2-.8-2-.8-.6 0-1.2.2-1.6.6-.1-.4-.4-.7-.6-.9-.5-.5-1.1-.8-1.8-.8h-.1c-.8 0-1.4.3-1.9.8-.2.2-.3.4-.4.5-.1-.4-.4-.8-.7-1.1-.3-.4-.5-.6-.8-.7V3.7H99V1.2h-1.3V0h-2.5v1.2h-1.3v2.5h1.3V5c-.3.1-.5.3-.8.5-.3.3-.5.7-.6 1.1-.2-.2-.3-.4-.4-.5-.5-.5-1.2-.8-1.9-.8h-.6c-.1 0-.2.1-.4.1-.4.1-.7.4-1 .7-.3.3-.5.6-.6.9-.4-.3-.9-.5-1.4-.6h-.2c-.7 0-1.4.3-1.9.8l-.3.3c-.2.3-.4.6-.4 1-.2-.1-.4-.1-.6-.1h-.4c-.8 0-1.4.3-1.9.8-.6.5-.8 1.2-.8 1.9v.2c-.8 0-1.4.3-2 .8l-.4.4c-.5-.4-1-.6-1.6-.5-.7 0-1.3.2-1.8.7-.1.1-.2.2-.3.4 0 .1-.1.1-.1.2-.1-.1-.1-.2-.2-.2 0-.1-.1-.1-.1-.2-.5-.5-1.1-.7-1.8-.7s-1.3.2-1.8.7c-.3.4-.6.7-.7 1.1-.5-.4-1-.6-1.6-.6-.7 0-1.3.2-1.8.8-.5.5-.8 1.1-.8 1.8 0 .3.1.6.2.8-.2 0-.3-.1-.5 0-.7 0-1.3.2-1.8.7-.5.5-.7 1.1-.7 1.8 0 .3.1.5.1.8-.2.1-.4.3-.6.5-.5.5-.7 1.1-.7 1.8s.2 1.3.7 1.8l.1.1c-.2.1-.3.2-.4.4-.5.5-.8 1.1-.8 1.8s.2 1.3.8 1.8c.4.4.9.6 1.4.7-.1.1-.2.2-.4.3-1.2.8-1.7 1.6-1.5 2.2.1.6.9 1.2 2.3 1.5h.1l.1-.1c.5-.7 1-1.1 1.3-1 .2.1.5.5.6 1.2-.4.5-.5 1-.5 1.6 0 .6.2 1.1.6 1.5.5.5 1 .7 1.7.7.2 0 .5 0 .7-.1l3.3 3.7c-.1 0-.1.1-.2.1s-.1.1-.1.1c-.3.5-.3 1-.2 1.4.2.4.5.6 1 .8h.2c.3-.1.5-.2.7-.4l.2.6-1.7 2.2V45.6c.1 0 .1.1.1.1l2.6.6.5 1.4c-.2.1-.5.2-.7.3-.1 0-.1.1-.1.1-.2.3-.3.5-.3.8-.1.6.3 1.1 1 1.4h.2c.3-.1.5-.2.8-.3.2 0 .3.1.5.2 5.6 2.4 12.3 3.5 20.1 3.6 7.8-.1 14.5-1.2 20.1-3.6.2-.1.3-.2.5-.2.3.1.5.2.7.3h.2c.8-.4 1.1-.9 1-1.4-.1-.2-.1-.5-.2-.8l-.1-.1c-.2-.1-.5-.2-.7-.3l.5-1.4 2.6-.6c.1 0 .1-.1.1-.1 0-.1 0-.1.1-.2 0-.1 0-.1-.1-.1l-1.7-2.2.2-.6c.3.1.5.2.8.4h.2c.5-.2.8-.5 1-.8.1-.4.1-.8-.2-1.4 0-.1-.1-.1-.1-.1-.1 0-.1-.1-.2-.1l3.3-3.7c.2.1.4.1.7.1.6 0 1.2-.2 1.6-.7.4-.4.6-.9.7-1.5 0-.6-.2-1.1-.6-1.6.1-.8.4-1.1.6-1.2.3 0 .7.3 1.3 1l.1.1h.1c1.4-.4 2.2-.9 2.3-1.5.2-.6-.3-1.4-1.5-2.2-.1-.1-.3-.2-.4-.3.5-.1 1-.3 1.4-.7.5-.5.8-1.1.8-1.8s-.2-1.3-.8-1.8l-.4-.4.1-.1c.5-.5.8-1.1.8-1.8s-.2-1.3-.8-1.8c-.2-.2-.4-.4-.6-.5-.1-.2-.1-.5-.1-.8zm-14.1-1.5c5.5.3 8.6 3.1 9.3 8.6-2.5-3.9-5.7-5.7-9.6-5.4-.1-.2-.3-.5-.5-.7-.1-.1-.2-.2-.3-.2.1-.1.2-.1.2-.2.6-.6.9-1.3.9-2.1zm-24-2c-3.2.4-5.8 1.7-7.8 3.7.9-4.2 3.7-6.6 8.4-7.2-.4 1.1-.6 2.3-.6 3.5zm9.1 0v-.9c-.1-.7-.2-1.4-.4-2.1-.1-.2-.1-.3-.2-.5 4.7.6 7.5 2.9 8.4 7.2-2-2-4.6-3.3-7.8-3.7zm-24 2c0 .8.2 1.4.8 2l.2.2c-.1.1-.2.2-.3.2-.2.2-.4.5-.5.7-3.4-.2-6.3 1.2-8.7 4.2l-.9 1.2c.1-.9.3-1.7.5-2.5 1.3-3.7 4.2-5.7 8.9-6z"/><path class="st4" d="M76.5 49.6c-.1 0-.1 0-.1.1 0-.1 0-.1.1-.1 5.5 2.4 12.1 3.6 19.9 3.6 7.8 0 14.4-1.2 19.9-3.5h.1l-.1-.1c-5.5-2.3-12.2-3.5-19.9-3.5-7.8 0-14.4 1.2-19.9 3.5z"/><path class="st2" d="M96.4 44.2c-1.8 0-3.5.1-5.2.2-4.1.3-7.9 1-11.4 2-1.4.4-2.8.9-4.1 1.4-.2.1-.3.1-.5.2-.3.1-.5.2-.8.3-.1.2-.2.4-.2.5 0 .4.2.6.6.9.2-.1.5-.3.7-.4.2-.1.4-.2.6-.2 5.6-2.3 12.3-3.5 20.1-3.5 7.8 0 14.5 1.2 20.1 3.5.2.1.4.2.6.2.3.1.5.2.7.4.4-.3.6-.6.6-.9 0-.2-.1-.4-.2-.5-.2-.1-.5-.2-.8-.3-.1-.1-.3-.1-.5-.2-1.3-.6-2.7-1-4.1-1.4-3.5-1-7.3-1.7-11.4-2-1.3-.2-3-.2-4.8-.2z"/><path class="st2" d="m119 43 .2-.6c-1.4-.6-2.9-1.2-4.5-1.6-3.6-1.1-7.5-1.8-11.8-2.1-2.1-.2-4.2-.3-6.4-.3s-4.4.1-6.4.3c-4.3.4-8.2 1.1-11.8 2.1-1.6.4-3.1 1-4.5 1.6l.2.6 2.5.9.1.1s0 .1.1.1c0 .1 0 .1-.1.1L75 46l.5 1.3c.1 0 .1-.1.2-.1 1.3-.6 2.7-1.1 4.2-1.5 3.5-1 7.3-1.7 11.4-2 1.7-.2 3.4-.2 5.2-.2 1.8 0 3.5 0 5.2.2 4.2.3 8 .9 11.5 2 1.4.4 2.8.9 4.2 1.5.1 0 .2.1.2.1l.4-1.3-1.6-1.8-.1-.1c0-.1 0-.1.1-.1 0-.1 0-.1.1-.1l2.5-.9z"/><path class="st0" d="M114.3 42.5c.5 1 .2 1.8-.7 2.5 0 .1-.1.1-.1.1h-.1c-3.5-1-7.3-1.7-11.5-2h-.1l-.1-.1c-.4-.8-.2-1.7.5-2.5l.1-.1h.1c4.3.4 8.2 1 11.8 2.1 0-.1 0-.1.1 0-.1 0-.1 0 0 0zM78.6 42.5l.1-.1c3.6-1.1 7.5-1.7 11.7-2.1h.1l.1.1c.7.8.9 1.7.5 2.5 0 0 0 .1-.1.1h-.1c-4.2.3-8 1-11.5 2h-.1s-.1 0-.1-.1c-.9-.6-1.1-1.4-.6-2.4zM95.4 39.9h2c.4 0 .8.2 1.1.5.3.3.5.7.5 1.1 0 .4-.2.8-.5 1.1-.3.4-.7.5-1.1.5h-2c-.4 0-.8-.2-1.1-.5-.3-.3-.5-.7-.5-1.1 0-.4.2-.8.5-1.1.3-.3.7-.5 1.1-.5z"/><path class="st4" d="M113.4 44.6c.6-.5.8-1.1.5-1.7-3.5-1-7.3-1.7-11.4-2.1-.5.6-.6 1.2-.4 1.8 4.1.3 7.8 1 11.3 2zM79 42.9c-.3.6-.1 1.2.5 1.7 3.5-1 7.2-1.7 11.3-2 .2-.6.1-1.2-.4-1.8-4.1.4-7.9 1-11.4 2.1z"/><path class="st3" d="M97.4 40.4h-2c-.3 0-.6.1-.8.3-.2.2-.3.5-.3.8 0 .3.1.5.3.7.2.2.5.4.8.4h2c.3 0 .6-.1.8-.4.2-.2.3-.5.3-.7 0-.3-.1-.6-.3-.8-.2-.2-.4-.3-.8-.3zM118.3 45.8l2.2-.5-1.4-1.9-2.1.8 1.3 1.6zM72.4 45.3l2.2.5 1.3-1.6-2.1-.8-1.4 1.9z"/><path class="st2" d="M120.4 40.8c-.1 0-.1-.1-.2-.1s-.1 0-.2-.1c-.2-.1-.4-.2-.6-.2-6.4-2.6-14.2-3.9-23.1-4-9 .1-16.6 1.4-23.1 4-.2.1-.4.2-.6.2-.1 0-.1 0-.2.1-.1 0-.1.1-.2.1-.2.1-.3.1-.4.2-.2.4-.2.7-.1.9.1.2.3.4.6.5.3-.1.6-.3.8-.4.1 0 .1-.1.1-.1 1.5-.6 3.1-1.2 4.8-1.7 3.6-1.1 7.6-1.8 11.9-2.1 2.1-.2 4.2-.2 6.5-.3 2.2 0 4.4.1 6.4.3 4.3.4 8.3 1.1 11.9 2.1 1.7.5 3.2 1.1 4.8 1.7l.1.1c.3.1.6.2.9.4.3-.1.5-.3.5-.5.1-.2.1-.5-.1-.9-.1-.1-.3-.1-.5-.2z"/><path class="st2" d="M120.3 40.2s.1 0 .2.1h.1l3-3.3c-5.2 1.7-9.1.3-11.9-4-4.7 3.2-9.7 2.6-15.2-1.8-5.5 4.4-10.5 5-15.2 1.8-2.8 4.3-6.7 5.7-11.9 4l3 3.3c.1 0 .1 0 .2-.1.1 0 .2-.1.2-.1l-.6-.6c-.1 0-.1-.1-.1-.1v-.1l.1-.1h.1c3.9.4 6.9-1 9-4 0-.1.1-.1.1-.1h.2c4.2 2.4 9.1 1.8 14.6-1.9l.1-.1s.1 0 .1.1c5.5 3.6 10.4 4.2 14.6 1.9.1 0 .1-.1.2 0 0 0 .1 0 .1.1 2.1 3 5.1 4.4 9 4h.1l.1.1v.1l-.1.1-.4.5c.1.1.2.2.3.2z"/><path class="st4" d="m119.5 39.8.3-.3h-1c.3.1.5.3.7.3zM113.7 37.9c-.9-.6-1.8-1.4-2.5-2.4-1.1.6-2.3 1.1-3.5 1.2 2.1.4 4.1.7 6 1.2zM73 39.6l.3.3c.2-.1.5-.2.7-.3h-1zM85.2 36.7c-1.2-.2-2.4-.6-3.5-1.2-.7 1-1.5 1.8-2.4 2.4 1.8-.5 3.8-.9 5.9-1.2zM91.4 36.1c1.7-.1 3.3-.2 5.1-.2 1.7 0 3.4.1 5 .2-1.7-.5-3.3-1.4-5-2.5-1.8 1.1-3.5 1.9-5.1 2.5zM125.3 28.9v-1.4c-2.5-4.2-5.6-6.3-9.5-6.1.1.3.1.5.1.8 0 .8-.3 1.4-.8 1.9-.1.1-.2.2-.4.3v.8c.1.2.3.3.5.5 0 0 .1.1.1.2-.1.9-.3 1.6-.8 2.3 1.1-.7 1.8-.9 2.1-.6l.1.1c.8 1 .8 2 0 2.9-.1 0-.1 0-.1.1h-.1c-.7-.2-1.2 0-1.5.5.3.4.8.5 1.5.4h.1l.1.1c.4 1.1.2 2.1-.6 3 0 0-.1 0-.1.1 0 0-.1 0-.1.1-1.5-.1-2.7-.8-3.7-2h-.2c2.7 4.1 6.6 5.3 11.6 3.6-.1-.1-.2-.1-.3-.2-.4-.3-.5-.7-.6-1.1-1 .6-2.2.8-3.7.4 0 0-.1 0-.1-.1-.9-1-1.1-2-.5-2.9 0-.1.1-.1.1-.1.1-.1.1 0 .2 0 .8.4 1.7.4 2.5.1-.5-.8-1.3-1.3-2.4-1.6-.1 0-.1 0-.1-.1s-.1-.1-.1-.1c-.1-1.1.2-1.8 1-2.2h.1c1.3-.1 2.3.2 3.1.9.7.6 1.2 1.6 1.4 2.9.1-.1.3-.1.4-.1.1-1.6.3-2.7.7-3.4zM111 32.8c-.3-.1-.5-.3-.8-.5-.7 1-1.8 1.5-3.2 1.6h-.1c-1.2-.4-1.7-1.2-1.6-2.6 0-.1 0-.1.1-.2.1 0 .1-.1.2-.1.8 0 1.4-.3 1.8-.8-.5-.5-1.2-.7-1.9-.6h-.1c-.1 0-.1-.1-.1-.1l-.1-.1c-.1-1.3.2-2.3 1.1-2.9 0 0 .1-.1.2-.1.8.1 1.6.5 2.5 1.4-.4-.9-.4-1.7-.3-2.3 0 0 0-.1.1-.1.1-.2.2-.3.3-.4.1-1.7.1-3.2-.1-4.5-2-2.3-4.7-3.7-8-4.2 0 .7-.1 1.5-.1 2.2-.1.6-.2 1.2-.3 1.9-.1.2-.1.4-.2.6-.3 1.1-.6 2.3-1.1 3.5 0 .1.1.2.1.4s.1.3.1.5c0 .4-.1.8-.2 1.2.4-.2.9-.3 1.2-.4.6-.1 1.1-.2 1.5-.1.1 0 .1.1.1.1.8 1 .8 1.9 0 2.7l-.1.1h-.1c-.4-.1-.8-.1-1.2.1-.2.1-.4.1-.5.2.1 0 .1.1.2.1.5.3 1 .4 1.5.4h.1l.1.1c.5.9.3 1.8-.6 2.7l-.1.1c-1.5.2-2.8-.4-3.9-1.8-.2.1-.3.2-.5.2 5 3.8 9.7 4.5 14 1.7zM84.1 20.2c-.1.1-.1.2-.2.2-.1.9-.2 1.8-.2 2.9 0 .5 0 1 .1 1.6l.4.4s0 .1.1.1c.1.7.1 1.5-.3 2.3.8-.8 1.7-1.3 2.4-1.4.1 0 .2 0 .2.1.8.6 1.2 1.5 1 2.9 0 0 0 .1-.1.1l-.1.1h-.1c-.8-.1-1.4.1-1.9.6.4.6 1 .9 1.9.8.1 0 .1 0 .2.1 0 .1.1.1.1.2.1 1.4-.4 2.2-1.6 2.6h-.1c-1.4-.1-2.5-.6-3.2-1.6-.2.2-.5.4-.8.5 4.3 2.8 9 2.2 14-1.8-.2-.1-.4-.1-.5-.2-1.1 1.4-2.4 2-3.8 1.8-.1 0-.1 0-.2-.1-.9-.8-1.1-1.7-.6-2.7l.1-.1s.1-.1.1 0c.6 0 1.2-.1 1.8-.5-.6-.4-1.2-.5-1.8-.4h-.1c-.1 0-.1-.1-.1-.1-.8-.8-.8-1.8 0-2.7 0-.1.1-.1.2-.1.7-.1 1.5 0 2.7.5-.3-.6-.3-1.3 0-2-1.2-3-1.7-5.8-1.7-8.2-3.4.6-5.9 1.9-7.9 4.1zM76.9 22.2c-.1-.3 0-.6.1-.8-3.8-.1-7 1.9-9.4 6.1v1.4c.4.6.6 1.8.5 3.4.1 0 .3 0 .4.1.2-1.3.7-2.2 1.4-2.9.8-.7 1.8-1 3.1-.9h.1c.8.4 1.2 1.1 1.1 2.2-.1 0-.1.1-.1.1l-.1.1c-1.1.3-1.9.8-2.4 1.6.8.3 1.7.2 2.6-.1 0 0 .1-.1.2 0 0 0 .1 0 .1.1.6.9.4 1.8-.6 2.9 0 0-.1 0-.1.1-1.5.4-2.7.2-3.7-.4-.1.4-.3.8-.6 1.1l-.2.2c5 1.8 8.9.6 11.6-3.6-.1 0-.1 0-.2-.1-.9 1.2-2.2 1.9-3.7 2 0-.1-.1-.1-.1-.1s-.1 0-.1-.1c-.9-.8-1.1-1.8-.6-3 0-.1.1-.1.1-.1s.1-.1.1 0c.7.1 1.2-.1 1.5-.4-.3-.5-.8-.6-1.5-.5h-.1s-.1 0-.1-.1c-.8-.9-.8-1.8 0-2.9l.1-.1c.4-.3 1.1-.1 2.2.6-.4-.7-.7-1.5-.8-2.3v-.2c.1-.2.3-.4.5-.5l.1-.8c-.1-.1-.3-.2-.4-.3-.8-.4-1-1-1-1.8z"/><path class="st2" d="M110.8 16.5c-.2-.1-.4-.2-.6-.4-.5-.5-.8-1.2-.8-1.9V14c-.8 0-1.4-.3-1.9-.8-.4-.4-.6-.8-.8-1.3-.3.1-.6.2-1 .2-.8 0-1.4-.3-1.9-.8-.3-.3-.5-.6-.6-.9-.5.4-1.1.5-1.7.6-.2 0-.5 0-.6-.1-.5-.1-.9-.4-1.3-.8-.3-.3-.5-.6-.7-1.1-.1 0-.2 0-.2.1.6.8 1.1 1.7 1.4 2.5 0 .1.1.2.1.2 5.2.6 8.3 3.2 9.1 8 0 .1 0 .3.1.4.2 1.2.2 2.7.1 4.2.6-.4 1.3-.3 2 .3l.1.1v.1c-.1 1 0 1.8.4 2.4.5-.7.6-1.4.4-2.1-.1-.1-.1-.1-.1-.2l.1-.1s.1-.1.2-.1c-.6-.1-1.1-.4-1.5-.8-.6-.6-.8-1.2-.8-1.9 0-.8.3-1.4.8-2l.2-.2c-.1-.1-.2-.2-.3-.2-.5-.5-.8-1.2-.8-2 .2-.4.3-.8.6-1.2zM118.2 16c-.1.1-.2.2-.3.4-.5.5-1.1.8-1.8.8h-.3c0 .1 0 .1.1.2 6.2.3 9.5 3.7 9.9 10.1v.9c.3-.2.7-.4 1.1-.3-.3-.5-.5-.9-.5-1.5 0-.7.2-1.3.8-1.8 0-.1.1-.1.1-.1-.2-.1-.3-.2-.4-.3-.5-.5-.7-1.1-.7-1.8 0-.3 0-.5.1-.8-.2-.2-.4-.3-.6-.5-.5-.5-.7-1.1-.7-1.8 0-.3.1-.6.1-.9-.2 0-.4.1-.5.1-.7 0-1.3-.2-1.8-.8-.4-.4-.6-.7-.7-1.2-.5.4-1 .6-1.7.6s-1.3-.2-1.8-.8c-.2-.2-.3-.3-.4-.5zM125.7 29.1c0 .1 0 .1 0 0-.4.6-.5 1.7-.5 3.2.4 0 .7.1 1.1.3.2-.8.5-1.3 1-1.4.4-.1 1 .3 1.7 1.1 1-.3 1.6-.6 1.7-1.1.1-.5-.4-1-1.3-1.7-.4-.3-.8-.5-1.1-.7-.3-.2-.5-.3-.7-.4-.9-.2-1.5 0-1.9.7zM121.9 32.6v.1s0 .1-.1.1l-.1.1c-1 .4-2 .4-3 .1-.3.6-.1 1.3.5 2 1.4.3 2.5.1 3.4-.6 0-.6.2-1.1.7-1.5.2-.1.3-.3.5-.4-.2-1.2-.7-2.1-1.3-2.7-.7-.6-1.6-.9-2.7-.8-.5.3-.8.8-.7 1.5 1.4.4 2.3 1.1 2.8 2.1z"/><path class="st2" d="M111.2 25.2c-.6-.4-1.2-.4-1.7.1-.1.1-.2.2-.3.4-.2 1 .1 2.2.9 3.6h.1c.4-.4.9-.6 1.5-.6s1.1.2 1.5.6c.9-.9 1.5-2 1.6-3.2-.1-.2-.3-.3-.4-.4-.5-.5-1-.5-1.4-.2.2.9 0 1.8-.7 2.7l-.1.1h-.1c-.1 0-.1-.1-.1-.1-.8-.9-1-1.8-.8-3zM109.9 31.9c-.2-.4-.4-.8-.4-1.2 0-.4.1-.8.3-1.1-1.2-1.6-2.2-2.4-3.2-2.6-.6.5-.9 1.1-.8 2.1.9-.1 1.6.2 2.2.9l.1.1v.1c-.5.8-1.2 1.2-2.2 1.3 0 .9.4 1.5 1.2 1.8 1.2-.1 2.1-.5 2.8-1.4zM113.8 30.7c0 .6-.2 1.1-.6 1.5-.1.1-.3.3-.5.4.8 1 1.8 1.6 3.1 1.7.6-.7.8-1.4.5-2.2-.9.1-1.6-.2-1.9-.8v-.2c.4-.8 1.1-1.1 2-.9.5-.6.5-1.4-.1-2.1-.4-.2-1.4.3-2.9 1.5.3.3.4.7.4 1.1zM98.5 3.2V1.7h-1.3V.5h-1.5v1.2h-1.3v1.6h1.3v1.5c.2-.1.5-.1.8-.1h.1c.2 0 .4 0 .6.1h.1V3.2h1.2zM94.2 9.1l-.2-.2c-.2.4-.4.8-.7 1.1-.5.5-1.2.8-2 .8-.6 0-1.1-.2-1.5-.5 0 0-.1 0-.1-.1v.1c-.1.3-.4.6-.6.9-.5.5-1.1.8-1.8.8h-.2c-.4 0-.6-.1-1-.2l-.3.6c-.1.2-.2.3-.3.5-.1 0-.1.1-.2.1-.5.5-1.2.8-1.9.8v.2c0 .4-.1.7-.2 1 0 .1-.1.1-.1.2-.1.3-.3.5-.6.8-.2.2-.3.3-.5.4.2.4.4.9.4 1.4 0 .5-.1.9-.3 1.2-.1.2-.2.4-.4.6-.1.1-.1.1-.1.2-.1.1-.2.2-.3.2.1.1.2.1.3.2.5.5.8 1.2.8 2 0 .7-.2 1.3-.7 1.9l-.1.1c-.4.4-.9.6-1.5.8.1 0 .1.1.2.1l.1.1v.2c-.2.7-.1 1.4.4 2.1.4-.6.5-1.4.4-2.4V25c0-.1.1-.1.1-.1.8-.6 1.4-.6 2-.3 0-.3 0-.5-.1-.8 0-1.2 0-2.4.2-3.5 0-.1.1-.3.1-.4 0-.1 0-.2.1-.2.1-.3.1-.6.2-.9.1-.5.4-1.1.6-1.6 1.4-3.1 4.1-4.8 8.3-5.3.3-1.1.8-2 1.5-2.8zM93.8 10.4c-.3.5-.6 1.1-.8 1.7-.4 1.2-.6 2.5-.7 3.9-.1 2.2.4 4.7 1.3 7.4.1-.5.3-.9.6-1.3-.4-.5-.6-1.1-.6-1.8s.3-1.4.8-1.9l.4-.4c-.2-.1-.3-.3-.4-.4-.5-.5-.8-1.2-.8-1.9 0-.8.3-1.4.8-1.9l.2-.2-.2-.2c-.5-.6-.8-1.2-.8-2 0-.3.1-.7.2-1zM99.2 11.9v.2c-.1.5-.4.9-.8 1.3l-.2.2c.1 0 .1.1.2.2.5.5.8 1.2.8 1.9 0 .3-.1.6-.1.9 0 .1 0 .1-.1.2-.1.3-.4.6-.6.8l-.4.4c.1.1.3.2.4.4.5.5.8 1.1.8 1.8v.1c0 .4-.1.8-.2 1.2-.1.2-.3.4-.4.6.4.4.5.8.6 1.3.3-.8.5-1.6.7-2.4 0-.1.1-.3.1-.5.3-1 .4-2 .5-3 0-.5.1-1.1.1-1.6v-.2c-.1-1.3-.3-2.5-.7-3.6V12c0-.1-.1-.2-.1-.3-.2-.5-.4-1-.7-1.5.1.3.2.7.2 1.1-.1.3-.1.4-.1.6zM68.4 18.5c-.2 0-.4 0-.5-.1.1.2.2.5.2.9 0 .7-.3 1.3-.8 1.8-.2.2-.4.3-.6.5 0 .1.1.2.1.4v.8c-.1.3-.2.6-.3.8-.1.2-.2.4-.4.6-.1.1-.3.2-.4.3l.1.1c.5.5.7 1.1.7 1.8 0 .5-.1.9-.4 1.4-.1.1-.1.1-.1.2.4 0 .8.1 1.1.3v-1c.1-1.5.3-2.8.7-3.9.1-.3.2-.6.4-.9.1-.3.3-.6.4-.8 0 0 0-.1.1-.1.4-.6.8-1.1 1.2-1.6.2-.2.4-.4.7-.6.5-.5 1.2-.9 1.9-1.2l.9-.3c.6-.3 1.4-.4 2.1-.5.5-.1 1-.1 1.6-.2h.1c0-.1 0-.1.1-.2h-.4c-.3 0-.6-.1-.8-.2-.4-.1-.6-.4-.9-.6-.1-.1-.2-.2-.3-.4-.1.2-.2.4-.4.5-.4.4-.9.6-1.5.7h-.8c-.4-.1-.8-.3-1.2-.6-.1.4-.3.8-.6 1.2-.2.2-.4.4-.6.5-.6.3-1 .4-1.4.4z"/><path class="st2" d="M83.7 25.6c-.1-.1-.2-.2-.3-.4-.5-.5-1.1-.5-1.7-.1.2 1.2-.1 2.2-.7 2.9l-.1.1h-.1c-.1 0-.1-.1-.1-.1-.7-.9-.9-1.8-.7-2.7-.5-.3-1-.3-1.5.2-.1.1-.3.2-.4.4.1 1.2.7 2.3 1.6 3.2.4-.4.9-.6 1.5-.6s1.1.2 1.5.6h.1c.8-1.3 1.1-2.5.9-3.5zM76.5 28.1c-.6.7-.6 1.4-.1 2.1.9-.2 1.6.1 2 .9v.2c-.3.6-.9.8-1.8.8-.3.8-.1 1.5.5 2.2 1.3-.1 2.4-.7 3.2-1.7-.2-.1-.4-.2-.5-.4-.4-.4-.6-.9-.6-1.5 0-.4.1-.8.3-1.1-1.6-1.2-2.6-1.7-3-1.5zM84.9 30.1c0-.1 0-.1.1-.1.6-.6 1.3-.9 2.2-.9.1-.9-.2-1.6-.8-2.1-1 .2-2.1 1.1-3.3 2.6.2.3.3.7.3 1.1 0 .4-.1.8-.4 1.2.6.9 1.5 1.3 2.8 1.4.9-.3 1.2-.9 1.2-1.8-1-.1-1.7-.5-2.2-1.3.1 0 0 0 .1-.1zM65.3 28.5c-.2.1-.5.2-.7.4-.4.2-.7.4-1.1.7-.9.7-1.4 1.3-1.3 1.7.1.4.7.8 1.7 1.1.7-.8 1.2-1.2 1.7-1.1.4 0 .8.5 1 1.4.3-.2.7-.3 1-.3.1-1.5-.1-2.6-.5-3.1v-.1c-.3-.8-.9-1-1.8-.7zM69 32.6c.2.1.3.2.5.4.4.4.7.9.7 1.5.9.7 2 .9 3.4.6.7-.7.9-1.4.6-2-1.1.4-2 .3-3-.1-.1 0-.1-.1-.1-.1v-.1c-.1-.1-.1-.1 0-.1.5-1 1.4-1.7 2.7-2 .1-.8-.2-1.2-.7-1.5-1.1-.1-2 .2-2.7.8-.7.5-1.2 1.4-1.4 2.6zM98.9 24.6h-.1c-.5-.4-1-.4-1.6 0v.2c0 .2 0 .5-.1.8-.1.3-.2.6-.5 1l-.1.1h-.1c-.1 0-.1-.1-.2-.1v-.1c-.4-.6-.6-1.3-.5-1.9-.6-.3-1.1-.3-1.7 0h-.1c-.4 1.1-.1 1.9 1 2.6h.1c.3-.2.7-.4 1.1-.4h.3c.5 0 .9.2 1.4.5h.1c.8-.5 1.2-1.2 1.1-2v-.2c0-.2-.1-.3-.1-.5zM101.8 26.5c-.3 0-.6 0-1 .1-.7.1-1.6.5-2.6 1 .2.4.4.8.4 1.3s-.2.9-.4 1.3c-.1.1-.1.2-.2.2h-.1c.9 1.2 2 1.8 3.3 1.7.6-.6.8-1.2.5-1.8-.7 0-1.3-.2-1.9-.5-.1-.1-.3-.2-.4-.3-.1 0-.1-.1-.1-.1v-.2c0-.1.1-.1.1-.1.5-.4.9-.6 1.4-.6.3-.1.6-.1.9 0 .6-.6.6-1.3.1-2zM91.1 30.3c-.3.6-.1 1.3.5 1.8 1.2.1 2.4-.4 3.3-1.7h-.1c-.4-.4-.6-.9-.6-1.5 0-.5.1-.9.4-1.3-1.6-.8-2.8-1.2-3.6-1.1-.5.7-.5 1.4 0 1.9.8-.1 1.5.1 2.3.7 0 0 0 .1.1.1v.2l-.1.1c-.6.5-1.4.8-2.2.8z"/><path class="st5" d="M110.2 12.2c.4-.4.9-.7 1.5-.8v-.2c0-.6-.2-1.2-.7-1.6-.5-.5-1-.7-1.6-.7-.4 0-.8.1-1.1.3-.2.1-.4.2-.5.4-.5.4-.7 1-.7 1.6v.2c.1.5.3.9.7 1.3.4.5.9.7 1.6.7h.1c.1-.4.3-.9.7-1.2zM111.9 11.9c-.5.1-1 .3-1.4.6-.4.4-.5.8-.6 1.2 0 .1-.1.3-.1.4 0 .6.2 1.2.7 1.6l.4.4.2-.2c.5-.6 1.2-.8 2-.8.3 0 .6.1.8.1.1 0 .1 0 .1.1.2-.4.3-.7.3-1.2 0-.4-.1-.7-.2-1-.1-.2-.2-.4-.4-.6-.5-.4-1-.6-1.6-.6 0-.1-.1-.1-.2 0z"/><path class="st5" d="M113.8 15.7c-.2-.1-.5-.1-.7-.1-.6 0-1.2.2-1.6.6l-.3.3c-.3.4-.4.8-.4 1.3 0 .6.2 1.2.7 1.6l.4.4c.4-.2.8-.4 1.3-.4.4 0 .9.1 1.2.3.1-.1.2-.2.4-.3.4-.5.6-1 .6-1.6v-.2c-.1-.2-.1-.5-.2-.7-.1-.2-.2-.5-.4-.7-.2-.2-.4-.3-.6-.4-.2-.1-.3-.1-.4-.1zM118.5 13.9c-.1.2-.2.5-.1.8 0 .2 0 .5.1.7.1.3.3.5.5.8.4.4.8.6 1.4.6.6 0 1.1-.2 1.5-.6 0-.1.1-.1.1-.1V16c0-.6.2-1.1.5-1.5-.1-.5-.3-.9-.6-1.2-.4-.4-.9-.6-1.5-.6s-1.1.2-1.4.6c-.3.1-.5.4-.5.6zM117.8 14.7c0-.3.1-.6.2-.9-.1-.3-.3-.5-.5-.7-.4-.4-.9-.6-1.5-.6-.5 0-1 .2-1.4.5.1.3.2.7.2 1.1 0 .5-.1 1-.4 1.4.2.1.4.2.5.4.2.2.4.4.5.7h.5c.6 0 1.1-.2 1.5-.6.2-.2.3-.4.4-.6.1-.2 0-.4 0-.7zM126 14.5c-.4-.4-.9-.6-1.4-.6-.6 0-1.1.2-1.5.6l-.2.2c-.3.4-.4.8-.4 1.3v.1c0 .5.2.9.6 1.3.4.4.9.6 1.5.6.3 0 .6-.1.8-.2l.3-.3c.2-.2.5-.4.7-.5.2-.3.2-.7.2-1.1 0-.5-.2-1-.6-1.4zM125.7 18.2c-.2.3-.3.7-.3 1.1 0 .6.2 1.1.6 1.5.2.1.3.2.5.4.1-.2.2-.4.4-.5.5-.5 1.1-.8 1.8-.8.2 0 .5.1.7.1.1-.2.1-.4.1-.6 0-.6-.2-1.1-.6-1.5-.4-.4-.9-.6-1.5-.6-.3 0-.6.1-.9.2-.2.1-.4.2-.6.4 0 .1-.1.2-.2.3z"/><path class="st5" d="M130.1 20.9c-.2-.2-.4-.4-.7-.5-.2-.1-.5-.2-.8-.2-.6 0-1.1.2-1.5.6-.2.2-.3.4-.4.6-.1.3-.2.5-.2.8 0 .6.2 1 .6 1.4.2.1.3.3.5.4.4-.3.8-.4 1.3-.4.3 0 .6.1.9.2.1-.1.1-.2.2-.2.4-.4.6-.9.6-1.4.1-.4-.1-.9-.5-1.3zM127.8 24.7l-.3.3c-.4.4-.6.9-.6 1.4 0 .6.2 1.1.6 1.5.1.1.2.2.3.2.2.1.5.2.8.3.1 0 .3.1.4.1.5 0 1-.2 1.4-.6.4-.4.6-.9.6-1.5s-.2-1-.6-1.4c-.2-.2-.4-.3-.6-.4-.3-.1-.6-.2-.9-.2-.4 0-.8.1-1.1.3zM124.2 33c-.2.1-.3.2-.5.3-.4.4-.6.8-.6 1.4 0 .4.2.9.6 1.2.1.1.3.3.5.4h.1l.1.1v.1c.2.1.4.1.5.1.5 0 .9-.2 1.3-.5.3-.4.5-.8.5-1.2 0-.5-.2-1-.5-1.4-.4-.3-.8-.5-1.3-.5-.2-.2-.4-.2-.7 0zM115.5 22.2c0-.4-.1-.7-.2-.9-.1-.2-.3-.5-.5-.7-.2-.1-.3-.3-.5-.4-.4-.2-.7-.3-1.1-.3-.4 0-.8.1-1.2.3-.1.1-.3.2-.4.4-.5.4-.7 1-.7 1.6 0 .6.2 1.1.7 1.6.4.5.9.7 1.6.7.5 0 .9-.1 1.2-.3.1-.1.3-.2.4-.4.4-.4.7-.9.7-1.6zM113 29.7c0-.1-.1-.1-.1-.2-.4-.3-.7-.5-1.2-.5s-.8.2-1.1.5c-.1.1-.2.2-.2.3-.2.2-.3.6-.3.9 0 .4.1.7.4 1 0 .1.1.1.1.1.3.4.6.5 1.1.5.2 0 .4 0 .6-.1.2-.1.4-.2.6-.4.3-.3.5-.7.5-1.1-.1-.3-.2-.7-.4-1zM101.7 5.7h-.3c-.6 0-1.2.2-1.6.7-.3.2-.5.6-.5.9 0 .1-.1.2-.1.3V8c0 .2 0 .4.1.6.1.4.3.7.6 1 .4.3.7.5 1.1.6.1 0 .3.1.5.1.6 0 1.1-.2 1.5-.5 0-.2-.1-.3-.1-.5 0-.7.2-1.4.7-1.9-.1-.4-.3-.7-.6-.9-.3-.5-.7-.7-1.3-.8zM91.4 5.7h-.3c-.1 0-.2.1-.4.1-.4.1-.7.3-.9.6-.3.3-.5.6-.6.9.5.5.7 1.1.8 1.9 0 .2 0 .4-.1.5.2.2.4.3.6.4.2.1.5.2.8.2.6 0 1.2-.2 1.6-.6.3-.3.5-.7.6-1.1.1-.2.1-.4.1-.6 0-.2 0-.3-.1-.4-.1-.4-.3-.8-.6-1.2-.4-.5-.9-.7-1.5-.7zM96.4 5.2c-.3 0-.5 0-.8.1-.1 0-.1 0-.1.1-.3.1-.5.3-.7.5-.5.4-.7 1-.6 1.6 0 .1 0 .3.1.5 0 .2.1.3.1.4.1.2.2.4.3.5l.1.1.1.1c.4-.2.8-.4 1.2-.4h.4c.5 0 1 .1 1.5.4l.1-.1.1-.1c.1-.1.2-.3.3-.4.1-.2.1-.3.2-.5 0-.2 0-.4.1-.5v-.3c-.1-.5-.3-1-.6-1.3-.2-.2-.5-.4-.7-.5-.2-.1-.3-.1-.5-.1-.3-.1-.4-.1-.6-.1zM96.4 9.2c-.2 0-.3 0-.4.1-.4.1-.6.2-1 .4l-.2.2c-.5.4-.7 1-.6 1.6 0 .6.2 1.2.6 1.6l.2.2c.4-.2.9-.4 1.4-.4h.1c.5 0 .9.1 1.4.4.1-.1.2-.1.2-.2.2-.3.4-.6.5-.9 0-.1.1-.3.1-.4v-.3c0-.6-.2-1.2-.6-1.6-.1-.1-.2-.1-.2-.2-.5-.3-.9-.5-1.5-.5zM87.2 6.9c-.5 0-1 .2-1.4.5-.1.1-.2.1-.2.2-.4.3-.6.7-.6 1.2.2.1.4.2.5.4.5.5.8 1.2.8 1.9v.1c.3.1.6.2.9.2.3 0 .5 0 .8-.1.3-.1.6-.3.8-.5.2-.2.3-.4.4-.6.1-.2.2-.3.2-.5.1-.2.1-.4.1-.5 0-.6-.2-1.1-.7-1.6-.5-.5-1-.7-1.6-.7zM98.1 14.1c-.1-.1-.2-.2-.4-.3-.4-.2-.8-.4-1.2-.4h-.4c-.4 0-.6.2-.9.4-.2.1-.3.2-.4.3-.5.5-.7 1-.6 1.6 0 .6.2 1.2.6 1.6.2.2.4.4.7.5.2.1.4.2.6.2h.4c.3 0 .6-.1.9-.2.3-.1.5-.3.7-.5.1-.1.3-.3.4-.5.1-.1.1-.2.1-.3.1-.2.2-.5.2-.8-.1-.6-.3-1.1-.7-1.6zM96 18.4c-.2 0-.4-.1-.6-.1-.2.1-.4.2-.6.4-.5.5-.7 1-.6 1.6 0 .6.2 1.1.6 1.6.3.3.7.5 1.1.6.2 0 .3 0 .5.1h.1c.6 0 1.2-.2 1.6-.7l.3-.3c.2-.4.4-.8.4-1.3V20c-.1-.5-.3-1-.6-1.3-.2-.2-.4-.3-.6-.4-.3.1-.7.2-1 .2h-.1c-.2 0-.4 0-.5-.1zM107.4 9.2c.2-.2.3-.3.5-.4-.1-.5-.3-.9-.6-1.2-.5-.5-1-.7-1.6-.7-.6 0-1.2.2-1.6.6-.5.5-.7 1-.7 1.6 0 .2 0 .4.1.5.1.4.3.8.6 1.1.4.4 1 .6 1.6.6.3 0 .6-.1.9-.2V11c0-.6.3-1.3.8-1.8zM73.6 13c-.3-.3-.7-.4-1.1-.4-.6 0-1.1.2-1.5.6-.3.4-.5.7-.6 1.2v.1c.4.4.5.9.5 1.5v.1l.1.1c.1.1.3.2.5.4.3.2.6.2 1 .3h.4c.4-.1.8-.3 1.1-.6.2-.2.4-.5.5-.8.1-.2.1-.4.1-.7 0-.3-.1-.6-.2-.8s-.2-.5-.5-.6c-.1-.2-.2-.3-.3-.4zM70 14.7l-.2-.2c-.4-.4-.9-.6-1.4-.6-.6 0-1.1.2-1.5.6-.4.4-.6.9-.6 1.5 0 .4.1.8.3 1.1l.1.1c.2.1.4.2.5.4l.3.3c.2.1.3.1.5.1h.4c.3 0 .6-.1.9-.2.2-.1.4-.2.5-.4.4-.4.6-.8.6-1.3V16c0-.5-.1-.9-.4-1.3zM66.1 17.4c-.2-.1-.4-.1-.7-.1-.6 0-1 .2-1.4.6-.4.4-.6.9-.6 1.5 0 .2 0 .4.1.6.2-.1.3-.1.5-.1h.2c.3 0 .5 0 .7.1.4.1.8.3 1.1.7.2.2.3.4.4.5.2-.1.4-.2.5-.4.4-.4.6-.9.6-1.5v-.4c-.1-.3-.1-.5-.3-.7-.1-.1-.2-.2-.3-.4-.2-.2-.4-.3-.6-.4h-.2zM74.8 13.8c.1.3.2.6.2.9 0 .2 0 .5-.1.7.1.2.2.4.4.6.2.2.5.4.8.5 0 0 .1 0 .1.1h1c.1-.2.3-.5.5-.7.2-.2.4-.3.5-.4-.2-.4-.4-.9-.4-1.4 0-.4.1-.7.2-1.1-.1-.1-.2-.2-.3-.2-.3-.2-.7-.3-1.1-.3-.6 0-1.1.2-1.5.6l-.2.2c.1.2 0 .4-.1.5zM85.1 9.6c-.2-.2-.3-.4-.5-.4-.3-.2-.6-.2-1-.3h-.1c-.6 0-1.2.2-1.6.7-.4.4-.6.9-.7 1.5V11.4c.6.1 1.1.4 1.5.8.4.4.6.8.8 1.3h.1c.6 0 1.2-.2 1.6-.7l.3-.3c0-.1.1-.1.1-.2.1-.2.2-.5.2-.8v-.2c0-.8-.3-1.3-.7-1.7zM80.9 11.9h-.2c-.6 0-1.2.2-1.6.6l-.3.3c-.1.1-.1.2-.2.3-.2.3-.2.6-.2 1s.1.8.3 1.2c0 0 .1 0 .1-.1.3-.1.6-.1.9-.1.2 0 .4 0 .5.1.3 0 .5.1.7.2.2.2.5.3.7.5l.2.2c.2-.1.3-.2.5-.4.1-.1.3-.3.4-.5.1-.1.2-.3.2-.4.1-.2.1-.5.1-.7v-.4c-.1-.4-.3-.8-.6-1.2-.5-.4-.9-.6-1.5-.6z"/><path class="st5" d="M78.8 15.8c-.3.1-.5.3-.6.5-.2.2-.4.4-.5.7-.1.2-.1.4-.2.7v.2c0 .6.2 1.2.7 1.6l.3.3c.4-.2.8-.3 1.2-.3.2 0 .5.1.8.1.2 0 .3.1.5.2.1-.1.2-.1.2-.2s.1-.1.1-.1c.1-.1.2-.2.3-.4.2-.4.4-.8.4-1.2 0-.5-.1-.9-.4-1.3-.1-.1-.2-.2-.2-.3-.1-.1-.3-.3-.5-.4-.3-.2-.7-.3-1.1-.3h-.1c-.3 0-.5 0-.8.1l-.1.1zM80.9 20.3c-.3-.2-.6-.3-.9-.3h-.3c-.4 0-.8.1-1.1.3-.2.1-.4.3-.5.4-.2.2-.4.4-.5.7-.1.3-.2.6-.2.9 0 .6.2 1.1.7 1.6l.4.4c.4.2.8.3 1.2.3.5 0 1-.2 1.4-.5l.2-.2c.5-.4.7-.9.7-1.6 0-.6-.2-1.2-.7-1.6-.1-.2-.3-.3-.4-.4zM79.9 29.7c-.2.4-.3.7-.3 1 0 .4.1.8.4 1.1.2.2.4.4.6.4.2.1.4.1.6.1.5 0 .9-.2 1.2-.5l.1-.1c.2-.3.4-.6.4-1s-.1-.7-.3-.9c-.1-.1-.1-.2-.2-.3-.3-.3-.7-.5-1.2-.5s-.8.2-1.2.5c0 .1-.1.1-.1.2zM65.7 20.9c-.2-.2-.4-.4-.6-.4-.2-.1-.5-.2-.8-.2-.2 0-.3.1-.4.1-.1 0-.2.1-.4.1-.2.1-.5.3-.6.5-.4.4-.6.9-.6 1.5s.2 1 .6 1.4l.2.2c.3-.2.6-.2.9-.2.5 0 .9.1 1.3.4.2-.1.4-.3.5-.4l.2-.2c.2-.3.3-.6.4-.9v-.3c0-.2 0-.4-.1-.6 0-.1-.1-.1-.1-.2-.2-.4-.3-.6-.5-.8zM65 24.7c-.3-.2-.7-.3-1.1-.3h-.3c-.2 0-.4.1-.6.2-.2.1-.4.2-.6.4-.4.4-.6.9-.6 1.4 0 .6.2 1.1.6 1.5.4.4.9.6 1.5.6.1 0 .3 0 .5-.1s.5-.2.7-.3c.1-.1.2-.2.3-.2 0-.1.1-.1.2-.2.3-.4.4-.8.4-1.3 0-.6-.2-1-.6-1.4-.2-.1-.3-.2-.4-.3zM68.6 33c-.2-.1-.5-.2-.8-.2-.5 0-.9.1-1.3.5s-.5.8-.5 1.4c0 .4.2.9.5 1.2.4.3.8.5 1.3.5.2 0 .4 0 .5-.1v-.1l.1-.1h.1c.2-.1.3-.2.5-.4.4-.4.6-.8.6-1.2 0-.5-.2-1-.6-1.4 0 0-.2 0-.4-.1zM98.7 24v-.2c0-.5-.2-1-.5-1.4-.5.5-1.1.7-1.8.7h-.1c-.2 0-.4 0-.5-.1-.5-.1-.9-.3-1.3-.6-.4.4-.5.9-.5 1.4v.2c.6-.3 1.3-.2 2 .3l.1.1v.1c-.1.5-.1.9.2 1.4.2-.5.3-.9.2-1.4v-.1c0-.1.1-.1.1-.1.8-.5 1.5-.6 2.1-.3zM97.6 30c.3-.3.5-.7.5-1.1 0-.5-.2-.8-.5-1.2-.4-.3-.7-.5-1.2-.5-.2 0-.3 0-.5.1-.3.1-.5.2-.7.4-.3.3-.5.7-.5 1.2s.1.9.5 1.1l.2.2c.3.2.6.4 1 .4s.7-.1 1-.4c.1 0 .1-.1.2-.2z"/><path class="st0" d="M128.4 74.9c-.2-.4-.4-.6-.5-.9l-.1-.1c-.1 0-.1 0-.2.1-.1 0-.1.1-.1.1-.4.8-.9 1.3-1.6 1.5-.1.1-.2.1-.2.1-.8.5-1.8.6-2.8.5-1.4-.2-2.6 0-3.7.5h.1l-.6.3c-4.5 2.3-6.7 6.5-6.3 12.7v.1c.2 5.6 1.5 10.9 4 15.8 1.2 2.6 1.5 5.4.5 8.3-.1.5-.2.9-.4 1.1-.2.1-.4 0-.8-.2-.8-.8-1.3-1.7-1.6-2.8-.3-1.1-.8-2.1-1.5-3.1-.7-1.1-1.7-1.9-2.8-2.5-1.1-.6-2.3-1-3.5-1.2-1.2-.3-2.3-.8-3.3-1.5-.7-.5-1.2-1.1-1.7-1.8.1 0 .2 0 .4.1.1 0 .1 0 .2-.1.1 0 .1-.1.1-.1 0-.1 0-.1-.1-.2-.2-.4-.5-.7-.7-1.1.7 0 1.5 0 2.2.1h.2s.1 0 .1-.1l.1-.1v-.2c-.1 0-.1-.1-.1-.1-.4-.2-.6-.5-.8-.9 1.2 0 2.5 0 3.8-.1 1-.1 1.9-.2 2.9-.6 0-.1.1-.1.1-.1.1-.1.1-.2.1-.2-.1 0-.1-.1-.2-.1-.1-.1-.3-.2-.5-.4-1-.6-1.7-1.4-2.1-2.4-.2-.2-.2-.5-.3-.8.9-.1 1.8-.4 2.5-.9s1.3-1 1.7-1.6l.1-.1c0-.1-.1-.2-.1-.2-1-.8-1.4-1.9-1.2-3.2.2-1.1.2-2.3.2-3.4 0-.9.1-1.7.2-2.6.2-1.3.2-2.6-.1-3.8-.2-1.2-.7-2.2-1.3-3.2.2-.2.4-.2.5-.2 0 .1 0 .1.1.1v.2h.1c.6.1 1.2-.1 1.6-.5-.1.1-.1.1 0 .2 0 .1 0 .1.1.1h.1c.5-.1.6-.2.7-.5.1-.2 0-.5-.3-.8 1.5-2.4 1.5-5.2-.2-8.5.1-.1.2-.1.3-.2.2-.2.4-.4.4-.8 0-.2 0-.4-.1-.5l.5-.4.3.3c0 .1.1.1.1.1.1 0 .2 0 .2-.1l.3-.2v-.1c.1-.1.1-.1.1-.2l-.1-.1-.3-.2.2-.2V62.7l-.3-.4c-.1-.1-.1-.1-.2-.1 0-.1-.1 0-.2.1l-.2.2-.3-.3-.1-.1c-.1 0-.1 0-.2.1l-.3.2v.2l.3.3-.5.5c-.1-.1-.2-.1-.3-.1h-.1c-.4 0-.6.1-.8.3-.1.1-.2.2-.3.4-2.7-1.6-5.2-1.9-7.3-.9-.1 0-.1 0-.1-.1h-.1c-.3-.4-.5-.5-.8-.4-.2 0-.5.2-.5.6-.1.1-.1.1 0 .2l.1.1h.2v-.1c-.5.3-.7.9-.6 1.5-.1.1-.1.1 0 .1l.1.1c0 .2-.1.2-.2.4l-.3.3c-.1-.1-.2-.1-.3-.1-1.1-.4-2.2-.5-3.5-.4-.9.1-1.6.5-1.9 1.3l-.1.1.1.1c.1.4.3.6.5.8-.1.2-.1.4 0 .7-.2-.1-.4-.2-.5-.4l-.1-.1-.2-.2h-.1c-1.5-.4-2.7 0-3.6 1.1-.8.9-1.8 1.4-2.9 1.6h-.2c-.1 0-.1 0-.1.1-.1.1-.1.1-.1.2.1.9.5 1.6 1.3 2.1-.2.7-.1 1.3.2 1.7.3.5.8.7 1.6.7 1 .1 1.9-.3 2.6-1.1.7-.9 1.6-.9 2.5-.1 0 .1.1.2.1.3.2 1.2-.3 2.1-1.5 2.4-.8.2-1.7.4-2.6.3-.4 0-.7 0-1.1-.1-.8-1.2-1.9-1.8-3.2-1.9-1.2-.1-2.3-.5-3.3-1.2h.1c-.5-.5-.8-.9-.9-1.5 0-.1-.1-.1-.1-.2h-.1c-.1 0-.1 0-.2.1s-.1.1-.1.2c-.2 1.3 0 2.5.6 3.6.2.4.4.7.8 1 1.1.8 2.3 1.1 3.7.7.2-.1.5-.1.8-.1.1 1 .1 2.1 0 3.2v.3c-.1.3-.2.7-.4.9-.1.1-.1.1-.1.2s0 .1.1.1c.1.1.1.1.2.1.9.2 1.9.3 2.9.4 1.4.1 2.6 0 3.8-.4.2 0 .5-.1.7-.2.1 1.1-.3 1.9-1.2 2.5-.3.2-.7.5-1 .8-1.1-.6-2.3-.8-3.6-.8-.5 0-.9-.1-1.2-.3-.3-.3-.5-.7-.5-1.3 0 0 0-.1-.1-.1.1.1 0 .1 0 .1h-.2c-.6.5-1 1.1-1.1 1.8-.9-.8-1.7-1.7-2.3-2.7-.4-.6-.5-1.2-.4-1.9 0 0 0-.1-.1-.2 0-.1-.1-.1-.1-.1h-.1c-1.2.7-2 1.8-2.4 3.1v.4c-.6-.4-1.3-.8-1.9-1-1.3-.4-2.5-.4-3.5.5v.1h-.1c-.1.1-.1.1-.1.2s0 .1.1.1c0 .1.1.1.1.1.8.3 1.5 1 2 1.8.2.3.3.6.4 1-.9.4-1.9.7-2.9 1.1-1.4.5-2.3.2-2.7-.8-.5-1.1-.5-2.2.1-3.3.5-1 1.1-2.1 1.8-3.1.6-1 1-2.1 1.2-3.4.2-.8.2-1.6.4-2.4 0-.2 0-.5.1-.7v-.1l-.1-.1-.1-.1c-.1 0-.1.1-.1.1-.6.6-1.3 1.2-1.9 1.7.4-.5.6-1 .9-1.5.5-1 .8-2.1 1-3.3.2-1.5-.2-2.7-.9-3.8-.7-1.2-1.8-1.9-3.1-2.2-.1-.1-.3-.1-.5-.2.4-1.4 0-2.4-.9-3.1-1-.8-2.3-1.1-3.8-.9-.4.1-.6.2-.7.5l-.1.1c0 .1.1.1.1.2s0 .1.1.1c1.2.3 1.8 1.2 1.8 2.4 0 .3 0 .5-.1.8-.9-.5-2-.7-3.2-.5-1 .2-1.7.7-2 1.6-.1 0-.1.1 0 .2 0 .1 0 .1.1.1h.2c1.2-.2 2 0 2.5.8-1.1.5-1.5 1.5-1.5 2.9v.1c.1.4.1.8.1 1.2-.5-.1-1-.3-1.4-.8-.1 0-.1-.1-.1-.1-.1 0-.2 0-.2.1l-.1.1c-.2 1.3.3 2.4 1.5 3.1h-.1c.5.4 1 .6 1.5.8 0 1.2-.3 2.3-.8 3.2-.5.9-.8 1.8-1 2.9v.1c-.2 1.1-.2 2.1-.2 3.2 0 .1 0 .1.1.2.1 0 .1 0 .2.1 0 0 .1 0 .1-.1.1 0 .1 0 .1-.1.4-.9 1.1-1.8 1.9-2.4h.1c-.1.7-.2 1.5-.4 2.2-.4 1.2-.5 2.4-.4 3.7 0 .9.3 1.8.8 2.5.1.1.1.1.2.1h.2c.1 0 .1-.1.1-.1.3-.8.7-1.6 1.2-2.3-.1.7-.1 1.4-.3 2v.2c0 .1 0 .1.1.2l.1.1h.1c.6-.1 1.1-.3 1.7-.6 0 .9 0 1.7-.2 2.6-.2.9-.5 1.7-1 2.3v.2c0 .1 0 .1.1.1.1.1.1.1.2.1 1 .1 2 .2 3.1.4H71c.9.2 1.9.2 2.9.2h1.3c-.8.6-1.5 1.3-2.2 1.9-.1.1-.3.2-.4.3-.1.1-.1.1-.1.2 0 0 0 .1.1.1.1.1.1.1.2.1.8.3 1.7.5 2.7.6 1 .1 1.9.1 2.7.1.6 0 1-.1 1.4-.1.4 1.4 1.2 2.2 2.6 2.5.8.2 1.7.2 2.4.1-.1.2-.2.4-.2.5-.9.1-1.9.2-2.8.4-.9.1-1.9.1-2.9.1 0 0-.1 0-.2.1s-.1.1-.1.2v.2c.6.9 1.5 1.5 2.6 1.9 0 0-.2 0-.9.1-.6.1-1.5 0-2.7-.1-.6-.1-1.2-.2-1.7-.2-.5-.6-1.1-1.2-1.7-1.8-.9-.9-2.1-1.4-3.5-1.3-1 .1-2 .1-3 .1-.8-.7-1.7-1.3-2.6-1.8-1-.5-2-.7-3.2-.7-.1-.1-.1 0-.1.1l-.1.1c0 .1 0 .1.1.2 0 .1.1.1.1.1.9.5 1.4 1.3 1.5 2.4.2.7.2 1.5.2 2.2-.8-.2-1.5-.4-2.4-.4h-.1c-.7-.1-1.4-.1-2.1-.1-.1 0-.1 0-.1.1-.1.1-.1.1-.1.2-.1 0-.1.1-.1.1 0 .1.1.1.1.1.9.8 1.7 1.6 2.5 2.5.5.6 1.2 1 1.9 1.3-.7 1.2-.5 2.2.6 3.2.6.5 1.4.7 2.2.7.1 1.1-.4 1.9-1.5 2.4-.2.1-.4.2-.5.3l-.1.1c0 .1 0 .1.1.2 0 .1.1.1.1.1 1.3.6 2.4.5 3.5-.3.5-.4.9-.8 1.2-1.1-.1.3-.2.6-.2.9-.1.1-.1.2-.1.4l-.1.1c0 .1.1.1.1.2h.1c1.4.2 2.7-.1 3.7-.9.3-.2.7-.5 1-.8-.1.6-.4 1.1-.8 1.6l-.1.1c0 .1 0 .1.1.2l.1.1c1.2.3 2.3.1 3.3-.8h.1c.8-.7 1.5-1.7 1.9-2.8.2.7.2 1.5-.1 2.2v.2c0 .1.1.1.1.1h.1c1.1-.2 2.2-.8 3.3-1.6.7-.5 1.2-1.2 1.7-1.8.5.1.9.1 1.1.4.2.2.2.6.2 1 0 .1 0 .1.1.1 0 .1.1.1.1.2h.1s.1 0 .1-.1c.5-.6 1-1.3 1.5-2.1 1 .6 1.6 1.4 1.7 2.5v.5c0 .1 0 .1.1.2.1 0 .1 0 .1.1h.2c1.1-.5 1.9-1.5 2.5-2.8.7.1 1.2.6 1.7 1.3.5.9 1.2 1.6 2 2.2-.8.1-1.5.2-2.3.3-1.2.2-2.5.3-3.7.4-1.4.1-2.5.7-3.4 1.7h-.1c-.8 1-1.3 2.2-1.4 3.5V120.8c.1.1.1.1.2.1h.2c.1-.1.1-.1.1-.2.3-.8.9-1.3 1.8-1.5h.1c-.4.6-.7 1.3-1.1 2-.5 1.1-1.3 2.1-2.2 2.8-.8.6-1.7 1.2-2.6 1.6l-.1.1c-.1.1-.1.1 0 .2l.1.1c.8.5 1.8.7 2.8.8.7 0 1.4 0 2.1-.1-.4.3-.8.5-1.3.7h.1c-.4.1-.8.3-1.2.4l.1-.1c-.1.1-.1.1-.2.1v.1c-.1.1-.1.1-.1.2s.1.1.1.1c.6.7 1.6 1.1 2.7 1.2.4.1.9 0 1.4-.1-.1.5-.4 1-.9 1.4-.1.1-.1.1-.1.2s0 .1.1.1c.1.1.1.1.2.1 1.4.2 2.6-.1 3.7-.8.4-.2.7-.5 1.1-.7-.2.6-.6 1.2-1 1.7-.7.8-1.7 1.5-2.7 1.9-.3.1-.6.2-1 .1-1.1-.1-2.2-.2-3.4-.5-.5-.2-1-.2-1.5-.2-.5-.8-1.2-1.5-1.9-2.1-1-.8-2.1-1.4-3.3-1.5-1.1-.2-2.3-.2-3.4-.3-1.3-.1-2.5.1-3.5.5h-.1c-.2.1-.4.1-.5.3-.1 0-.1.1-.1.1 0 .1 0 .1.1.1 0 .1 0 .1.1.2.9.4 1.8 1 2.8 1.8.4.4.7.9.8 1.5v.1c-.8.6-1.7 1.4-2.4 2.2-.2.3-.4.6-.5 1 0 .1 0 .1.1.2 0 0 .1 0 .1.1h.2c1.3-.3 2.3-.2 3.2.3.8.5 1.2.9 1.4 1 .1.1.2.5.6 1 .2.4.3 1.2 0 2.4-.1.6-.4 1.2-.8 1.6l-.1.1c0 .1.1.2.1.2 0 .1.1.1.1.1 1.1 0 2.2-.1 3.4-.2 1.1-.1 2.1-.5 3.2-1 .3.4.6.9.9 1.5 0 .1.1.1.1.1h.2c.5-.6.9-1.4 1.2-2.2 1.2.2 2.1.9 2.8 1.8.1.2.1.2.2.3l.1.1c0 .1.1.1.1.1l.1-.1c.5-.5.8-1.2.8-2 .7.1 1.3.3 1.8.7.1.1.1.1.2.1 0 0 .1 0 .1-.1.8-.5 1.2-1.3.9-2.4 1.2-.2 2.1.2 2.7 1.2.1.1.1.2.1.4v.1c.1.1.1.1.2.1h.1c1.2-.4 1.9-1.4 2.3-2.9.4-1.7-.1-2.7-1.5-3.1-.6-.2-1.3-.3-1.9-.3.1-.7.2-1.4.6-2.1.6-.9 1.3-1.7 2-2.3.6.6.9 1.2 1 2 0 .1 0 .1.1.2h.4c.5-.5 1-1.2 1.5-1.9.6-.9 1-2 1-3.1.7.5 1.3 1 1.9 1.6.1.1.2.2.3.4 0 .1.1.1.1.1h.1c.1-.1.1-.1.2-.1 0 0 0-.1.1-.1 0-.4 0-.9.1-1.4.2-1.5-.2-2.6-1.3-3.4-.4-.3-.8-.7-1.2-1.2-.4-.6-.6-1.4-.7-2.1.3-.1.6-.1 1 0 .9.1 1.8.2 2.7.2-.1.9.1 1.8.5 2.6 0 0 .1 0 .1.1h.1c.1 0 .1 0 .1-.1.5-.6 1.2-1.1 1.9-1.7-.1.8-.2 1.6-.1 2.5.1 1.1.1 2.2-.3 3.2-.2.6-.4 1.2-.8 1.6-.1 0-.1.1-.1.1 0 .1.1.1.1.2l.1.1c.9-.1 1.8-.5 2.4-1.4.4-.5.6-.9.9-1.5.1 1.2.1 2.5 0 3.7 0 1.1-.4 2.2-.9 3.3-.4.5-.8 1-1.3 1.5-.1.1-.1.1-.1.2v.2c.1 0 .1 0 .2.1h.1c1.1-.5 2.2-1 3.3-1.6 1.1-.6 2.1-1.4 3-2.3.6-.7 1.2-1.5 1.8-2.3.5.7.7 1.6.7 2.6 0 .9-.2 1.9-.3 2.8v.1c-.1.5-.3.9-.8 1.3v.1c-.9.8-2 1.4-3.1 1.7-1.1.3-2.1.4-3.3.2-1.2-.2-2.5-.2-3.8-.2h-.1c-.4-.1-.7.1-.9.2-.1 0-.1 0-.1.1-.1.1-.4.2-.9.4-.7.2-1.5.8-2.3 1.6-.9.8-1.5 1.5-1.8 2.1-.3.4-.5.7-.5.7s-.1 0-.1.1c-.1.1-.1.2-.1.2 0 .1.1.1.1.2l.1.1c1.2.1 2.4.2 3.6.1h.2c-.2.8-.3 1.7-.2 2.6.1 1.2.7 2.1 1.8 2.8 0 .1 0 .1.1.1s.1 0 .2-.1l.1-.1c.4-1.2 1.1-2.1 2.3-2.4h-.1.1c.8.7 1.6 1.4 2.5 2 1 .7 2.1 1.2 3.3 1.4.1.1.3.1.4.1.1 0 .2 0 .2-.1.1-.1.1-.1.1-.2 0 0 0-.1-.1-.2-.8-.9-.7-1.9.1-2.9.7-.9 1.4-1.8 2.1-2.8.1 0 .1-.1.2-.1.8.1 1.4.6 1.8 1.5.1.2.1.5.1.8 0 .1.1.2.1.2H114.9c1.1-.8 1.8-1.8 2.3-3 .4-1.2 1.2-1.9 2.2-1.9.2.1.2.2.2.4 0 .1.1.1.1.2l.1.1c.1 0 .1 0 .2-.1l.1-.1c.2-1.3-.2-2.1-1.3-2.6h1.2l.1-.1v-.1c-.2-1-.9-1.6-1.8-1.9.1-.3.1-.7.1-1 0-.1 0-.2-.1-.5-.1 0-.1-.1-.1-.1 0-.1-.1-.1-.1-.1-.1 0-.1 0-.1.1-.4.2-.8.4-1.3.6-.3-.2-.4-.5-.4-.7 0-.3.2-.6.7-.9.8-.6 1.7-1 2.7-1.3 1.3-.4 2.3-1.1 3-2.3.3-.5.5-1.2.6-1.9 0-.1 0-.1-.1-.2l-.1-.1c-.1 0-.1 0-.2.1l-1.8.6c.5-.5.9-1 1.3-1.5.2-.4.2-.8.2-1.3 0-.1 0-.1-.1-.1 0-.1-.1-.1-.1-.1-.1 0-.1 0-.1.1-.5.1-1.2.2-1.8.2.2-.7.2-1.4.1-2.1-.1-.6-.3-1.2-.5-1.8l-.1-.1c-.1-.1-.1-.1-.2 0h-.2c-.1.1-.1.1-.1.2-.2 1.2-1 1.8-2.4 2.1-1.3.2-2.4.1-3.4-.5h-.1v-.2c-.1-1.2.1-2.3.4-3.4.4-1.1 1-1.9 2.1-2.5.5-.3.9-.3 1.2 0 .1 1.1 0 2.2-.4 3.2l-.1.1c-.1.4-.4.8-.8 1.1-.1 0-.1.1-.1.1l-.1.1c0 .1.1.1.1.2l.1.1c1.5.2 2.7-.1 3.6-1 .1-.1.1-.2.2-.2.8.5 1.2 1.4 1.2 2.5v.7c0 .1 0 .1.1.1 0 .1.1.1.1.1h.1c1.3-.3 1.9-1.4 1.9-3-.1-.6-.1-1.2-.2-1.8.7.2 1.3.7 1.7 1.4.1.1.1.1.2.1h.1c.1-.1.1-.1.1-.2.5-1.1.4-2.2-.2-3.3-.3-.5-.6-.9-1-1.2.8-.4 1.3-1.1 1.4-2.2.1-1.3.1-2.5.2-3.8.1-.4 0-.7-.2-1 0-.1 0-.1-.1-.1-.1-.1-.2-.1-.2-.1-.1 0-.1.1-.1.1-.7 1-1.5 1.8-2.4 2.4h-.1c-.5.3-1 .6-1.5.8h-.1c.5-2.7.2-5.7-1.1-9.1v-.1c-2.6-4.8-4.1-10.3-4.4-16.6.1-3.4.7-5.8 1.8-7.2 1-1.3 2.5-1.8 4.5-1.2.5 1 .4 1.9-.4 2.7v-.1c-.9.8-1.8 1.7-2.5 2.6-.7.9-.9 1.9-.6 3.3.2.9.7 1.7 1.5 2.3.1.1.2.1.2.1.1 0 .1 0 .2-.1s.1-.1.1-.2c0-1 .4-1.8 1.2-2.4.7-.5 1.4-.7 2-.5.2 1.2.2 2.3-.1 3.5-.4 1.2-.3 2.4.2 3.7 0 .1 0 .1.1.1h.2l.1-.1c.1-.5.4-1 .6-1.4.6.8 1.3 1.6 1.9 2.4.5.7.8 1.5 1 2.3 0 .1.1.1.1.1.1 0 .1 0 .1.1.1 0 .1 0 .2-.1.1 0 .1 0 .1-.1.1-.3.2-.6.4-.8.3-.5.5-1.1.6-1.7.1-.5.1-.9.1-1.4.8.1 1.5-.3 2-1.1.5-.7.7-1.5.7-2.4-.1-.2-.1-.4-.1-.6 0-.1 0-.1-.1-.2-.1 0-.1-.1-.1-.1-.1 0-.2 0-.2.1-.8.6-1.7.5-2.8-.2-.2-.1-.3-.3-.3-.6-.1-1.1-.1-2.3 0-3.5V86h2.1c1.2 0 2.1-.5 2.7-1.6v-.1c0-.1 0-.1-.1-.2s-.1-.1-.2-.1c-1.2.1-2.2-.3-3.1-1.2-.1-.2-.3-.4-.3-.6.8-.5 1.4-1.4 1.7-2.5.1-.7.2-1.5.2-2.4 0 0 0-.1-.1-.1-.1-.1-.1-.1-.2-.1s-.1.1-.1.1c-.6.6-1.3 1.1-2.1 1.4.4-1.6.4-2.6-.1-3.7zm-18.8-7.3c.3-.4.5-.8.8-1.2.7 1.6.9 3.1.6 4.6-.1-1.3-.6-2.4-1.4-3.4zm-1.5-3.1c-.4.2-.8.5-1.2.8-.6-.6-1.3-1.1-2.1-1.4 1.2 0 2.2.2 3.3.6z"/><path class="st2" d="M128 75.1c-.1-.1-.2-.3-.2-.4-.4.7-1 1.2-1.7 1.5-.1.1-.2.1-.2.1h.1c-.9.5-2 .6-3.1.5-1.3-.2-2.4 0-3.5.5-.2.1-.4.1-.5.2l-.1.1c-4.4 2.1-6.4 6.2-6.1 12.3.2 5.5 1.6 10.7 3.9 15.6 1.3 2.7 1.5 5.6.6 8.7-.1.7-.3 1.2-.6 1.4-.4.2-.8.1-1.4-.3-.9-.8-1.5-1.9-1.8-3.1-.3-1.1-.8-2-1.4-2.9-.7-1-1.5-1.8-2.6-2.3-1.1-.5-2.2-1-3.4-1.2-1.3-.3-2.5-.8-3.5-1.6-.9-.6-1.6-1.5-2.1-2.4-.4-.1-.7-.3-1.1-.4-.8-.4-1.5-1-2.2-1.6v.8c0 .1 0 .2-.1.2H96.7c-.4-.2-.7-.5-1-.7-1.2-.1-2.4.1-3.4.5-1.2.5-2.4.7-3.7.7-1.2 0-2.4.1-3.6.2-.2 0-.4 0-.7.1-1 .1-2 .2-2.9.4-.8.1-1.6.1-2.4.1.5.6 1.2 1 2 1.4.3.1.6.2.9.2 0 .1.1.1.1.1l.1.1v.1l-.1.1-.1.1c-.4.1-.6.2-1 .2-1.3.1-2.5.1-3.7-.1-.6-.1-1.2-.2-1.8-.2-.1 0-.1-.1-.2-.1-.5-.6-1.1-1.3-1.7-1.8-.9-.8-1.9-1.2-3.2-1.2h-.1c-.9.1-1.9.1-2.8.1h-.2c-.1 0-.2 0-.2-.1-.8-.7-1.6-1.3-2.5-1.7-.7-.4-1.4-.6-2.1-.6.6.5 1 1.3 1.1 2.2.1.9.2 1.8.2 2.7 0 .1 0 .1-.1.1l-.1.1h-.1c-.9-.4-1.8-.5-2.6-.5-.5-.1-1-.1-1.4-.1.7.6 1.4 1.4 2 2.1.5.6 1.2 1 2 1.2l.1.1c0 .1 0 .1.1.1v.1l-.1.1c-.7 1-.6 2 .4 2.8.6.5 1.2.7 2.1.6.1-.1.1 0 .1 0 .1.1.1.1.1.2.2 1.4-.4 2.4-1.7 3.1h-.1c.9.4 1.8.2 2.5-.4.9-.7 1.5-1.4 1.8-2 0-.1.1-.1.1-.2.1-.1.1-.1.1 0 .1 0 .1.1.1.1l.1.1c-.1.8-.2 1.6-.4 2.3 1.2.1 2.2-.2 3.1-.9.4-.2.6-.5.9-.7 1.3-1.1 2.2-2.3 2.8-3.7-.3 1.4-.9 2.7-1.9 3.9-.1.6-.3 1.2-.7 1.8.9.2 1.8-.1 2.5-.7v-.1c.8-.7 1.4-1.5 1.8-2.6.1-.2.1-.4.2-.5.1 0 .1-.1.2-.1.1-.1.1-.1.2 0l.1.1c.4.9.5 1.8.3 2.7.9-.2 1.8-.7 2.7-1.4.6-.5 1.2-1.1 1.6-1.8l.1-.1.1-.1c.7 0 1.2.2 1.6.5.2.2.3.4.4.8.4-.5.7-1.1 1.1-1.7 0-.1.1-.1.1-.1.1-.1.1-.1.2 0 1.4.7 2.1 1.7 2.1 3v.1c.8-.5 1.5-1.3 1.9-2.4v.1-.1l.1-.1.1-.1h.1c.9.1 1.6.6 2.1 1.5.6 1 1.4 1.9 2.4 2.5h.1v.1c1.1.6 2.2.9 3.6 1 1.2.1 2.4.2 3.6.2 1 .1 2.1.1 3.3.1.3-1.6-.1-3.3-1.4-5 1.7 1.7 2.3 3.5 1.9 5.2v.1l-.3 1.8c-.4 1.2-1.1 2.2-2.1 2.9-.9.6-1.4 1.4-1.6 2.4v.2c-.1.7 0 1.5.3 2.1.6-.6 1.4-1.3 2.2-1.8l.1-.1c.1 0 .1 0 .2.1v.2l.1.1c-.2.9-.3 1.9-.2 2.9.2 1.2.1 2.3-.3 3.5-.1.4-.3.9-.5 1.2.5-.2 1-.5 1.4-1.1.5-.7.9-1.5 1.2-2.5 0-.2.1-.5.2-.7l.1-.1c.1-.1.1-.1.1 0h.1s0 .1.1.1.1.1.1.2c-.2.6-.2 1.2-.2 1.8v3.8c-.1 1.2-.4 2.4-1 3.5-.1.2-.3.4-.5.7.7-.3 1.4-.7 2.1-1.1 1.1-.6 2.1-1.3 2.9-2.2.7-.8 1.3-1.6 1.9-2.5l.1-.1c.1-.1.1-.1.2 0 .1 0 .1 0 .1.1.7.9 1.1 1.9 1 3.2-.1 1-.2 1.9-.4 2.9-.1.6-.3 1.2-.9 1.7h-.1c-1 .9-2.1 1.5-3.2 1.8-1.1.3-2.2.4-3.5.2-1.2-.2-2.5-.2-3.8-.2-.2-.1-.4 0-.6.1-.1.1-.5.2-1.1.5-.6.2-1.4.7-2.2 1.5-.8.7-1.4 1.4-1.7 1.9-.2.2-.3.4-.4.6 1 .1 2 .1 3 0 .2 0 .4-.1.6-.1.1-.1.2-.1.2 0l.1.1c.1.1.1.2.1.2-.4.9-.4 1.9-.4 2.9 0 .9.5 1.7 1.2 2.3.4-1.2 1.3-2 2.5-2.4v-.1c.1 0 .2 0 .2-.1h.1c.1 0 .1.1.2.1.8.7 1.7 1.4 2.5 2 .9.6 1.9 1.1 2.9 1.3-.6-1-.5-2 .4-3.1.7-.9 1.5-1.8 2.1-2.8.1-.1.1-.2.2-.3 0-.1 0-.1.1-.1l.1-.1c1.1.1 1.9.7 2.3 1.8.1.1.1.3.2.6.8-.7 1.5-1.5 1.8-2.6.5-1.5 1.5-2.2 2.7-2.2.1 0 .2 0 .3.1-.1-.6-.5-1.1-1.3-1.3h-.1l-.1-.1c-.1 0-.1 0-.1-.1l-.1-.1c0-.1 0-.2.1-.2.3-.5.8-.6 1.5-.5-.3-.7-.8-1.1-1.6-1.2-.1 0-.1 0-.1-.1-.1-.1-.1-.1-.1-.2v-.1c.2-.4.2-.7.2-1.1-.3.2-.8.4-1.2.5h-.1c-.1 0-.1 0-.1-.1-.5-.4-.8-.8-.7-1.2 0-.4.3-.8.9-1.3.9-.6 1.9-1.1 2.9-1.4 1.2-.3 2.1-1 2.7-2 .2-.4.4-.8.5-1.3-.8.3-1.5.5-2.3.6-.1 0-.1 0-.1-.1l-.1-.1v-.1c-.1-.1-.1-.1 0-.1 0-.1.1-.1.1-.2.7-.6 1.2-1.2 1.7-2 .1-.2.2-.4.2-.7-.6.1-1.2.2-2 .1-.1 0-.1 0-.1-.1v-.1h-.1c-.1-.1-.1-.1 0-.2.2-.7.2-1.4.1-2.2 0-.3-.1-.6-.2-1-.4.9-1.2 1.5-2.5 1.8-1.4.2-2.6.1-3.7-.6h.1c-.2-.1-.3-.2-.3-.6v-.1c-.1-1.2 0-2.4.4-3.5h.1c.4-1.2 1.1-2.1 2.2-2.8.8-.5 1.5-.4 1.9.2v.1c.1 1.2 0 2.4-.5 3.5-.2.4-.3.7-.6 1 1 .1 1.8-.3 2.6-.9.1-.2.2-.3.3-.4l.1-.1c.1-.1.1-.1.2 0v.1c1.1.6 1.6 1.5 1.5 2.9v.4c.8-.4 1.3-1.2 1.2-2.4v-.1c-.1-.7-.2-1.4-.4-2.1 0 0 0-.1.1-.1 0-.1.1-.1.1-.1l.1-.1h.1c.9.2 1.7.6 2.2 1.4.2-.8.1-1.7-.4-2.4-.3-.6-.8-1.1-1.4-1.4l-.1-.1c-.1-.1-.1-.1-.1-.2s.1-.1.1-.1c.1-.1.1-.1.2-.1 1-.2 1.5-.8 1.6-1.9.1-1.2.1-2.5.2-3.7v-.3c-.6.8-1.4 1.5-2.2 2.1-.5.4-1.1.7-1.7.9-.2.1-.4.1-.5.1h-.1l-.1-.1c-.1-.1-.1-.1-.1-.2.6-2.7.3-5.8-.9-9.3v.1c-2.7-4.9-4.1-10.5-4.4-16.8.1-3.5.7-6 1.8-7.5 1.2-1.5 2.9-2 5.1-1.4.1 0 .1.1.2.1.7 1.3.6 2.4-.5 3.4-.9.8-1.7 1.6-2.4 2.5-.6.7-.8 1.7-.5 2.9.1.7.5 1.3 1 1.8.1-.9.6-1.7 1.4-2.3.9-.7 1.8-.8 2.6-.5h.1c0 .1 0 .1.1.1.3 1.3.3 2.6-.1 3.8-.2.8-.3 1.8-.1 2.7.2-.4.4-.7.6-1.1l.1-.1c.1-.1.1-.1.2 0 .1 0 .2.2.6.6.4.4.9 1.1 1.6 2.1.4.5.7 1.2.9 1.8.1-.1.1-.2.2-.2v-.1c.3-.4.4-.9.5-1.5.1-.5.1-1.1.1-1.6 0-.1 0-.1.1-.2 0-.1.1-.1.1-.1.1-.1.1-.1.1 0 .7.1 1.3-.2 1.8-.9.4-.6.6-1.3.6-2.1v-.2c-.9.5-1.9.3-3-.5-.4-.2-.5-.5-.5-.9-.1-1.2-.1-2.4 0-3.5.1-.4.1-.7 0-1.1-.1-.1-.1-.1 0-.1l.1-.1c0-.1 0-.1.1-.1h2.5c.9 0 1.6-.3 2-1-1.2 0-2.2-.5-3-1.4-.2-.3-.4-.6-.5-.9v-.2l.1-.1h.1-.1c.7-.5 1.3-1.2 1.5-2.2.2-.5.2-1.1.2-1.7-.7.6-1.5 1-2.5 1.3-.1 0-.2 0-.2-.1-.1-.1-.1-.1-.1-.2-.1 0-.1-.1 0-.2.4 0 .5-1 .1-2.1z"/><path class="st2" d="M87.1 85.6H87c-.1-.1-.3-.2-.4-.4-.9-.8-1.7-1.8-2.3-2.7-.4-.5-.5-1.1-.5-1.7-.9.6-1.5 1.5-1.7 2.5-.1.1-.1.2-.1.3.3 2 1.1 3.6 2.3 4.8-1.4-1.1-2.4-2.5-2.9-4.1-.1-.1-.1-.2-.1-.3-.6-.4-1.3-.8-1.9-1-1.1-.4-2-.4-2.8.1.7.4 1.4 1 1.8 1.8.2.4.4.8.5 1.3v.2c-.1.1-.1.1-.2.1-1 .4-2.1.9-3.2 1.2-1.7.5-2.8.2-3.3-1-.6-1.2-.6-2.5.2-3.7.5-1 1.1-2.1 1.7-3.1.5-1 .9-2.1 1.1-3.2l.3-2.4v-.1c-.8.7-1.6 1.4-2.5 2-.1.1-.2.1-.3.2-.1.1-.1.1-.2.1 0 0-.1 0-.1-.1-.1-.1-.1-.1-.1-.2s0-.1.1-.1c.7-.8 1.3-1.8 1.8-2.7.5-1 .8-2 .9-3.1.1-1.3-.2-2.5-.8-3.5-.7-1-1.6-1.7-2.8-1.9-.2-.1-.5-.2-.8-.4l-.1-.1v-.1c.3-1.3.1-2.2-.7-2.8-.9-.7-2.1-1-3.4-.8-.1 0-.1 0-.2.1 1.2.5 1.8 1.4 1.8 2.8.1.5-.1.9-.2 1.3l-.1.1H67.5c-.9-.6-1.9-.8-3.1-.6-.6.2-1.1.4-1.5.9 1.3-.1 2.2.3 2.7 1.3l.1.1.3-.1-.1.1c-1.1.5-1.5 1.3-1.5 2.6V71l-.1.1h-.2c-.6 0-1.2-.2-1.7-.6 0 .9.5 1.6 1.3 2.1.5.3 1 .6 1.6.7 0 0 .1 0 .1.1.1.1.1.1.1.2-.1 1.3-.3 2.5-.8 3.6v.1c-.4.8-.8 1.8-.9 2.7-.1.7-.2 1.5-.2 2.3.4-.6 1-1.3 1.7-1.8.1-.2.4-.2.5-.4.1-.1.1-.1.2 0 .1 0 .1.1.2.1v.1c-.1 1-.2 1.9-.5 2.8-.3 1.2-.5 2.4-.4 3.6 0 .7.2 1.3.5 1.8.4-.9.9-1.7 1.6-2.5 0-.1.1-.2.3-.2.1-.1.1 0 .2.1l.1.1c0 .1 0 .2-.1.2v.1c0 .9-.1 1.7-.2 2.5.5-.2 1-.4 1.4-.7h.2s.1 0 .1.1c.1.1.1.1.1.2.1 1.1 0 2.1-.2 3.1-.1.8-.4 1.5-.8 2.1l2.7.3c1 .2 1.9.2 2.9.2.6 0 1.2 0 1.9.1.1 0 .1 0 .1.1.1.1.1.1.1.2-.1.1-.1.1-.1.2-.9.8-1.8 1.5-2.7 2.3v.1c.6.2 1.4.3 2.2.4 1 .1 1.9.1 2.6.1.7-.1 1.2-.1 1.6-.1.9-.1 1.8-.4 2.5-.9.9-.6 1.8-1.4 2.6-2.4s1.6-1.9 2.2-2.9c.7-.9 1.4-1.9 2.1-2.9 0 0 0-.1.1-.1-.1-.1-.2-.3-.3-.4v-.2c0-.1 0-.1.1-.2s.1-.1.2-.1h1.3c1.2-.2 2.2-.6 3-1.5-1-.5-2.1-.7-3.2-.7H90c-.6 0-1.2-.1-1.5-.5-.3-.3-.5-.7-.6-1.2-.4.5-.6 1-.6 1.7 0 .1 0 .1-.1.2.1.2 0 .2-.1.2zM105.3 116.7c.1-.5.2-1 .3-1.4-1.1.1-2.2 0-3.3-.1-1.2 0-2.4-.1-3.7-.2-1.4-.1-2.6-.4-3.8-1.1v-.1c-1 .1-1.9.1-2.9.4-1.2.2-2.5.3-3.8.4-1.2.2-2.3.7-3.1 1.6-.8.9-1.2 1.9-1.3 3.1v.2c.4-.5.9-.9 1.7-1.1.2-.1.4-.2.7-.2h.2l.1.1.1.1v.2c-.5.8-1 1.7-1.4 2.5-.6 1.2-1.4 2.2-2.4 3-.7.5-1.4 1-2.3 1.5.6.3 1.4.4 2.1.5 1 .1 1.9-.1 2.9-.2h.1c.1 0 .1.1.1.1l.1.1v.1c-.1.1-.1.1-.1.2-.6.6-1.2 1-2 1.4l-.9.3c.5.4 1.3.7 2.2.8.5.1 1 0 1.6-.1h.1c.1 0 .1.1.1.1l.1.1c-.1.6-.3 1.2-.7 1.7 1 0 2-.2 2.9-.8.5-.4 1.2-.7 2.1-1.3 1.2-.6 2.3-1.5 3.5-2.6-1.1 1.4-2.2 2.5-3.5 3.5-.4.6-.9 1.3-1.5 2-.8.8-1.8 1.5-2.9 2-.4.2-.8.2-1.2.2-1.2-.1-2.3-.2-3.5-.5-.5-.2-1-.2-1.5-.2-.1 0-.1 0-.1-.1l-.1-.1c-.5-.8-1.1-1.5-1.9-2.1-1-.8-2-1.3-3.1-1.4-1.1-.2-2.3-.2-3.4-.3-1.2-.1-2.3.1-3.3.5-.1 0-.1 0-.1.1.8.4 1.7 1 2.5 1.7.5.5.8 1.1.9 1.8 0 .1 0 .2.1.2 0 .1 0 .1-.1.2v.1c-.9.6-1.8 1.4-2.5 2.2-.1.1-.1.2-.2.3 1.2-.3 2.3-.2 3.1.5.9.6 1.4 1 1.5 1.2 0 .1.2.5.6 1h-.1c.4.5.4 1.5.2 2.8-.1.5-.3 1-.6 1.4.9-.1 1.8-.1 2.8-.2 1.1-.1 2.2-.4 3.2-1.1.1-.1.1-.1.2-.1l.1.1c.4.4.6.9.9 1.5.4-.5.7-1.2.9-1.9 0-.1.1-.1.1-.1.1-.1.1-.1.2-.1 1.4.3 2.4 1 3.3 2v.1c.4-.5.5-1 .5-1.7 0-.1 0-.1.1-.1 0-.1.1-.1.1-.1l.1-.1c.8 0 1.6.2 2.3.7.5-.4.7-1.1.5-1.9v-.4c.1-.1.1-.1.2-.1 1.5-.2 2.6.2 3.4 1.5 0 .1.1.2.1.3.9-.4 1.5-1.2 1.8-2.4.3-1.3-.1-2.2-1.2-2.5-.7-.2-1.4-.3-2.1-.4-.1 0-.1 0-.1-.1-.1-.1-.1-.1-.1-.2 0-.9.2-1.8.7-2.5.6-1 1.4-1.8 2.3-2.5 0-.1.1-.1.1-.1.1 0 .1 0 .1.1l.1.1c.5.5.9 1.2 1.1 1.9.4-.4.8-1 1.2-1.5.6-1 1-2.1.9-3.4 0-.1 0-.1.1-.2.1 0 .1-.1.2-.1s.1 0 .2.1c.8.6 1.6 1.2 2.3 1.9.1-.2.1-.5.1-.8.1-1.3-.2-2.3-1.1-2.9-.5-.3-.9-.8-1.2-1.3-.5-.7-.7-1.5-.9-2.4v-.1c0-.1 0-.1.1-.1l.1-.1c.4-.2.9-.2 1.5-.2.9.1 1.8.2 2.7.2.2-1 .8-1.9 1.8-2.5h-.1c.9-.6 1.5-1.5 1.8-2.6zM106.9 74.6c-.2.1-.4.4-.4.6-.1.1 0 .4.1.6 0 .3.1.6.3.9.1.3.3.6.5.9v.2l-.1.1-.1.1c-.9-.1-1.6-.3-2.2-.7v3.1c0 1.2 0 2.3-.1 3.5v2.7c.1 1-.1 2.1-.3 3 0 .1 0 .1-.1.1-.1.1-.1.1-.2.1 0 0-.1 0-.1-.1l-.1-.1c-.1-.6-.3-1.2-.5-1.8-.2.2-.5.5-.6.7-.8 1-1.5 1.9-2.2 2.9-.7 1-1.1 2.1-1.1 3.3 0 1.3.1 2.5.5 3.7.1.5.4 1 .6 1.5.7 0 1.4 0 2.1.1-.3-.3-.5-.7-.7-1-.3-.6-.5-1.2-.4-2 .1-1.2.2-2.3.4-3.4.2-1.2.8-2.2 1.7-3.2.7-.8 1.5-1.6 2.2-2.3l.1-.1c.1-.1.1-.1.2 0l.1.1c.1.1.1.1.1.2-.2 1.1-.3 2.3-.3 3.5v.1c-.1.7 0 1.5.2 2.2.9 0 1.7-.2 2.4-.8.6-.4 1.1-.9 1.4-1.3-1-.9-1.4-2.1-1.2-3.5.1-1.1.2-2.2.2-3.4 0-.9.1-1.7.2-2.6v-.1c.2-1.2.2-2.4-.1-3.6-.2-1.1-.6-2.1-1.2-3.1-.1-.1-.1-.2-.1-.2-.1 0-.1-.1-.1-.1-.3-.4-.6-.7-.9-1-.2.1-.2.1-.2.2z"/><path class="st2" d="M103.1 75.2c-.1.1-.1.2-.1.3v3.8c0 1.3-.2 2.5-.7 3.7-.4 1.2-1 2.3-1.7 3.4-.7 1-1.2 2.1-1.7 3.3-.5 1.1-1 2.3-1.5 3.4-.4 1.1-.6 2.3-.5 3.5.1.7.1 1.4.1 2.1.7.8 1.5 1.5 2.4 1.9.3.1.7.3 1.1.4.1.1.2.1.3.1-.2-.4-.4-.6-.6-1-.4-.6-.6-1.2-.8-1.8h.1c-.3-1-.5-2.3-.5-3.7.1-1.3.5-2.5 1.2-3.6.7-1 1.5-2 2.2-3 .3-.4.6-.7 1-1h.1c0-.1 0-.1.1-.1s.1 0 .2.1l.1.1c.2.4.2.8.4 1.2.1-.6.1-1.2.1-1.9v-2.7c.1-1.2.1-2.3.1-3.5v-3.4c-.1-.2-.3-.4-.4-.5-.4-.4-.7-.8-1-1.1z"/><path class="st2" d="M102.6 75.6v-.7c-.4-.3-.8-.6-1.2-.8v3.5c0 .6-.1 1.2-.2 1.8v-.1c-.4 1.2-1 2.2-2.1 2.9l-.1.1s-.1 0-.1-.1c-.1-.2-.2-.2-.2-.2-.2-.3-.5-.4-.9-.2-.5.1-1 .2-1.5.4.1 1.4-.4 2.4-1.4 3.1-.4.2-.7.5-1.1.9l-.2.2c-.9.9-2 1.5-3.3 1.6h-.9c.1.1.1.1.1.2.3.2.7.4 1.1.4.1 0 .2.1.2.1V89c-.5.6-1.2 1-2.1 1.4.9.6 1.9.8 3.1.5.2-.1.2-.1.4-.1 2.4-1.6 4.2-3.5 5.4-5.7-1.2 2.6-2.8 4.7-4.9 6.3-.5.7-.7 1.5-.7 2.4v.6c.1.3.2.5.3.8.4-.3.8-.7 1.3-1 .1-.1.1-.1.2-.1s.1.1.1.1c.1.1.1.1.1.2-.1 1.1.2 2.1.6 3.1.3.7.8 1.4 1.3 1.9.1.2.4.4.6.5v-1c-.1-.7-.1-1.4-.1-2.2-.1-1.3.1-2.5.5-3.7.4-1.2.9-2.3 1.5-3.4.5-1.2 1.1-2.3 1.8-3.4s1.2-2.2 1.7-3.3c.4-1.2.6-2.4.6-3.6.1-1.2.1-2.5.1-3.7z"/><path class="st2" d="M92.3 91.3c-.1 0-.2 0-.3.1-1.4.4-2.7.1-3.8-.9-.1-.1-.2.1-.3.2-.1.2-.4.5-.6.9-.6.9-1.4 1.8-2.2 2.9-.8 1-1.7 1.8-2.7 2.4-.8.5-1.6.8-2.5.9.3 1.1 1 1.8 2.1 2.1 1 .1 1.9.1 2.8 0l.1-.1c1.2-.3 2.3-.8 3.2-1.6.9-.8 1.7-1.7 2.3-2.6.5-.6.8-1.3 1.2-2 0-.8.2-1.6.7-2.3z"/><path class="st2" d="M88.5 98.7c-1 .8-2.1 1.4-3.5 1.7-.1.1-.2.3-.4.5h.2c1.2-.2 2.4-.2 3.7-.2 1.2 0 2.4-.2 3.5-.6 1-.4 2-.6 3.1-.6-.4-.5-.7-1-1-1.6-.4-.9-.7-1.9-.7-2.8-.3.2-.7.5-1.1.8-.1.1-.1.1-.2.1 0 0-.1 0-.1-.1-.3-.4-.5-.7-.5-1.1-.2.4-.5.9-.9 1.4-.4.8-1.2 1.7-2.1 2.5zM104.1 90.7c-.7.8-1.3 1.8-1.5 2.9-.2 1.1-.4 2.2-.4 3.3v.1c0 .6.1 1.1.3 1.7h.2c1.2 0 2.5 0 3.7-.1.8-.1 1.6-.2 2.3-.4h-.1c-1.1-.6-1.8-1.5-2.3-2.6-.2-.4-.4-.7-.5-1.1-.2-.8-.3-1.7-.2-2.6 0-1 .1-2 .2-2.9l-1.7 1.7zM106.2 74.6c.1-.2.2-.3.4-.4.1 0 .2-.1.3-.2.1-.1.3-.2.4-.3l.3-.3c0-.1.1-.1.1-.1.1-.1.2-.2.3-.2.1-.1.1-.1.2-.1h-.2c-.1 0-.3 0-.4.1h-.2c-.2 0-.3 0-.4.1h-.1c-.6.1-1.2.1-1.5 0-.2-.1-.4-.1-.6-.3 0-.1-.1-.1-.2-.1-.1-.2-.3-.4-.4-.7-.1-.2-.1-.6-.2-.9V71c-.1-1.1-.6-1.9-1.8-2.3l-.1-.1-.1-.1c-.2-.9-.8-1.5-1.6-1.9-.2-.1-.2-.1-.4-.1l-.1-.1c-1-.3-2.1-.4-3.3-.3-.7.1-1.2.4-1.5.9.3.7 1.1 1.2 2.2 1.3.5.1.8.4.7.9v.1l-.1.1c-1.4.5-2.6.2-3.7-.9 0-.1-.1-.1-.1-.1-1.3-.3-2.3 0-3.2.9-.9 1-2 1.5-3.2 1.7.1.7.5 1.2 1.1 1.5.1 0 .1.1.1.1v.2c-.1.6-.1 1.2.2 1.5.2.3.6.5 1.2.5h.1c.9.1 1.6-.2 2.1-.9.9-1.1 2-1.2 3.2-.2.2.2.3.4.3.7.2 1.5-.4 2.5-1.8 3-.9.2-1.8.4-2.7.3-.4 0-.8 0-1.2-.1h-1.2c-.1-.1-.1-.1-.2 0 .2 1.1.2 2.3 0 3.5.1.3.1.6-.1.9.8.2 1.7.3 2.5.4 1.2.1 2.5 0 3.6-.4.4-.1.7-.2 1-.3.5-.2 1.1-.3 1.7-.4.6-.2 1.1-.1 1.4.3.8-.6 1.4-1.4 1.6-2.4.1-.5.2-1.1.2-1.6v-3.9c.1-.2.2-.2.5-.1.1 0 .2.1.5.2.3.2.7.4 1.2.8s.9.8 1.3 1.4c.2.2.3.4.5.5.5.4 1.1.7 1.8.9-.2-.4-.5-.9-.6-1.4v-.1c-.1-.3-.1-.5-.1-.8.1-.2.2-.4.3-.5z"/><path class="st2" d="m88.6 77.1.1-.1c.1 0 .3 0 .5.1h.7c-.7-.9-1.6-1.4-2.7-1.5-1.3-.1-2.5-.5-3.5-1.4-.2-.2-.5-.4-.6-.7.1.8.2 1.5.6 2.3.1.4.3.6.7.8.9.7 2 .9 3.3.6.2-.1.5-.1.8-.1V77c0 .1.1.1.1.1zM89.4 88.5c-.1.4-.4.9-.9 1.4.6-.1 1.1-.4 1.4-.9l-.5-.5zM105.7 68.8c0-.1 0-.1-.1-.1-1.3-.4-2.1-1.1-2.4-2-.9 0-1.6-.4-2.1-1.1 0 .1 0 .2-.1.2 2.6 1.9 4.6 4.2 6.1 6.7.2 0 .3 0 .5-.1-.1-.2 0-.5 0-.8-1.2-.6-1.9-1.6-1.9-2.8z"/><path class="st2" d="M105 72.4c.4.2.9.3 1.7.2-1.4-2.5-3.4-4.6-5.9-6.5l-.1.1c.8.4 1.4 1.1 1.7 2 1.3.6 1.9 1.5 2 2.7.1.7.3 1.2.6 1.5zM110.6 65.6c-.3 0-.5-.1-.7-.3-.2-.2-.4-.5-.3-.8-2.7-1.6-5.1-1.8-7.2-.8v.1l-.1.1c.1 0 .1.1.2.1.1.1.1.1.1.2.4-.2.8-.3 1.2-.4h.1c1.6-.4 3.2-.2 4.8.6.1 0 .1.1.1.1v.1l-.1.1c-.6.3-1.2.6-1.6 1.1-.2.2-.5.5-.6.9v.1c0 .1 0 .2.1.3l.4-.4c-.1-.1-.1-.1 0-.1 0 0 0-.1.1-.1.1-.1.1-.1.1 0 .5.1.9.3 1.1.6.2.3.2.7.1 1.2 0 .1 0 .1-.1.1-.1.1-.1.1-.2 0-.1 0-.2.1-.4.2.1.1.1.1.2.1.5-.3.9-.7 1.3-1.2.4-.4.7-1 1-1.7.1 0 .1 0 .1-.1s.2-.1.2 0l.1.1c1.1 2.4 1.3 4.5.5 6.6-.2.4-.4.9-.7 1.3.1.1.1.1.1.2.1 0 .1.1.1.2.1-.1.1-.1.2-.1l.1-.1c1.6-2.2 1.5-5-.3-8.3zM107.9 73.8s-.1 0 0 0c.1.5.2.9.4 1.3.2-.1.3-.1.4-.1-.3-.4-.6-.8-.8-1.2zM107.5 74.1h-.1c.1.1.2.1.2.2-.1 0-.1-.1-.1-.2zM110.2 74.1h-.1c-.1 0-.2 0-.3.1-.3.1-.5.2-.6.4.3-.1.7-.2 1-.5zM102.1 64.4c0-.1 0-.1.1-.2l-.1.1c-.2.2-.4.5-.4.9.2-.1.3-.3.4-.5v-.3z"/><path class="st2" d="M111.4 64.6c0-.1 0-.2-.1-.2l-.1-.1-.3-.4h-.1c0-.1-.1-.1-.2-.1-.2 0-.4.1-.5.2-.1.1-.2.2-.2.4v.1c0 .2 0 .4.2.5.1.1.2.2.4.2H110.8c.1-.1.2-.1.3-.1.2-.2.2-.4.3-.5zM109.4 75c0 .1 0 .1 0 0l.1.1c.4.1.8-.1 1.1-.4h.1c.2-.2.3-.4.5-.4h.1-.1l-.1-.1h-.1c-.1.1-.3.1-.4.2l-.1.1c-.5.3-.8.4-1.1.5zM101.9 63.3c0 .1 0 .1 0 0 0 .2-.1.3-.4.6-.4.2-.5.6-.5 1l.1.1c.1 0 .1-.1.2-.3.1-.1.2-.4.4-.7 0-.1 0-.1.1-.1.1-.1.1-.2.2-.3 0-.1 0-.1-.1-.3.1.1.1.1 0 0z"/><path class="st4" d="M105.3 66.6c.3-.2.6-.2.8-.1.1-.3.3-.5.5-.8-.7-.8-1.7-1.4-2.7-1.5h-.1c-.5.1-1 .2-1.4.5-.1.1-.1.2-.1.2-.1.4-.4.6-.7.8.4.4.9.7 1.6.6.1-.1.1 0 .2 0 0 0 0 .1.1.1.1.5.4 1 1 1.4 0-.5.2-.9.8-1.2zM109.4 67.9c-.4.5-.9.7-1.3 1 .1.3 0 .6-.4.9-.5.3-.8.4-1.2.4.2.5.7.9 1.4 1.2l.1.1v.1c0 .3-.1.6-.1.8h1c.1.1.1.1.1.2v.1l-.1.1c-.2.2-.5.4-.8.6.1.4.3.6.6.9.1-.3.4-.5.8-.6.1-.1.2-.1.3-.1.3-.5.5-1 .8-1.5.1-1.5-.3-2.9-1.2-4.2z"/><path class="st2" d="M108 67.9c.1-.3.1-.5-.1-.7-.2-.2-.4-.3-.7-.4-.1.1-.2.3-.4.5l.4.4c.2.2.2.3.2.4.2-.1.4-.2.6-.2zM106.1 67.3c-.1-.2-.1-.4-.1-.5-.2-.1-.4-.1-.5.1-.3.2-.5.5-.5.8.2 0 .3 0 .4.2.2-.2.4-.4.7-.6zM107.7 69c-.1-.1-.3-.1-.5-.1-.2.2-.5.3-.7.4.1.1.1.3 0 .5.3.1.5 0 .9-.2.2-.3.3-.4.3-.6zM106.8 67.9c-.1-.1-.3-.3-.4-.3-.3.2-.6.4-.7.6v.1c.1.1.3.4.4.6h.1c.2 0 .5-.2.8-.5 0-.1-.1-.3-.2-.5z"/></svg>