<svg xmlns="http://www.w3.org/2000/svg" xmlns:xlink="http://www.w3.org/1999/xlink" viewBox="0 0 500 327.7" style="enable-background:new 0 0 500 327.7" xml:space="preserve"><style>.st1{fill:#513e84}.st3{fill:#efefef}.st5{fill:#f7f7f7}.st6{fill:#fff}.st8{fill:#6957aa}.st9{fill:#5d4495}</style><g id="OBJECTS"><ellipse cx="250.6" cy="321.3" rx="128.4" ry="6.3" style="opacity:.3;fill:#6957aa"/><path class="st1" d="M180.1 7c.5-2.1 2.6-3.3 4.6-2.8 2.1.5 3.3 2.6 2.8 4.6-.1.5-.3.9-.6 1.3l65.8 84.5-1.2 1-65.8-84.5c-.8.5-1.8.7-2.8.4-2-.4-3.3-2.5-2.8-4.5zM326.9 7c-.5-2.1-2.6-3.3-4.6-2.8-2.1.5-3.3 2.6-2.8 4.6.1.5.3.9.6 1.3l-65.8 84.5 1.2 1 65.8-84.5c.8.5 1.8.7 2.8.4 2.1-.4 3.3-2.5 2.8-4.5z"/><path d="M340.4 245.3H174.2c-12.7 0-30.6-10.3-30.6-23v-106c0-12.7 17.9-23 30.6-23h166.2c12.7 0 23 10.3 23 23v106c0 12.8-10.3 23-23 23z" style="fill:#beb7ed"/><path class="st3" d="M348.1 170.8H316c-1.1 0-1.9-.9-1.9-1.9 0-1.1.9-1.9 1.9-1.9h32.1c1.1 0 1.9.9 1.9 1.9 0 1.1-.8 1.9-1.9 1.9zM348.1 178.2H316c-1.1 0-1.9-.9-1.9-1.9 0-1.1.9-1.9 1.9-1.9h32.1c1.1 0 1.9.9 1.9 1.9 0 1.1-.8 1.9-1.9 1.9zM348.1 185.6H316c-1.1 0-1.9-.9-1.9-1.9 0-1.1.9-1.9 1.9-1.9h32.1c1.1 0 1.9.9 1.9 1.9 0 1.1-.8 1.9-1.9 1.9zM348.1 193H316c-1.1 0-1.9-.9-1.9-1.9 0-1.1.9-1.9 1.9-1.9h32.1c1.1 0 1.9.9 1.9 1.9 0 1.1-.8 1.9-1.9 1.9zM348.1 200.4H316c-1.1 0-1.9-.9-1.9-1.9 0-1.1.9-1.9 1.9-1.9h32.1c1.1 0 1.9.9 1.9 1.9 0 1.1-.8 1.9-1.9 1.9zM348.1 207.8H316c-1.1 0-1.9-.9-1.9-1.9 0-1.1.9-1.9 1.9-1.9h32.1c1.1 0 1.9.9 1.9 1.9 0 1.1-.8 1.9-1.9 1.9z"/><circle class="st3" cx="332.1" cy="125.8" r="10.5"/><path class="st3" d="M329.5 135.1c-.9-.2-1.4-1.1-1.1-2l4.3-15.4c.2-.9 1.1-1.4 2-1.1.9.2 1.4 1.1 1.1 2l-4.3 15.4c-.3.8-1.2 1.3-2 1.1zM326.7 120.4c-3 3-3 7.8 0 10.8.6.6 1.2 1 1.8 1.3l4-14.3c-2.1-.1-4.2.6-5.8 2.2zM337.5 120.4c-.6-.6-1.2-1-1.8-1.3l-4 14.3c2.1.1 4.2-.6 5.8-2.2 2.9-3 2.9-7.8 0-10.8z"/><circle class="st3" cx="332.1" cy="150.4" r="10.5"/><path class="st3" d="M323.7 155.1c-.4-.8-.2-1.8.6-2.2l14-7.8c.8-.4 1.8-.2 2.2.6.4.8.2 1.8-.6 2.2l-14 7.8c-.8.5-1.8.2-2.2-.6zM332.1 142.8c-4.2 0-7.6 3.4-7.7 7.6 0 .8.1 1.5.3 2.2l13-7.2c-1.3-1.6-3.3-2.6-5.6-2.6zM339.7 150.5c0-.8-.1-1.5-.3-2.2l-13 7.2c1.4 1.6 3.4 2.6 5.7 2.6 4.1 0 7.6-3.4 7.6-7.6zM338.9 112.8l.1.2M156.9 207.2v-89.8c0-5.9 4.8-10.7 10.7-10.7h131c5.9 0 10.7 4.8 10.7 10.7v89.8c0 5.9-4.8 10.7-10.7 10.7h-131c-5.9 0-10.7-4.8-10.7-10.7z"/><defs><path id="SVGID_1_" d="M156.9 207.2v-89.8c0-5.9 4.8-10.7 10.7-10.7h131c5.9 0 10.7 4.8 10.7 10.7v89.8c0 5.9-4.8 10.7-10.7 10.7h-131c-5.9 0-10.7-4.8-10.7-10.7z"/></defs><clipPath id="SVGID_2_"><use xlink:href="#SVGID_1_" style="overflow:visible"/></clipPath><g style="clip-path:url(#SVGID_2_)"><path class="st5" d="M172.8 128.8h25.8v-3.7h-41.5v7.1h15.7z"/><path class="st6" d="M203.1 116h25.8v-3.8h-41.5v7.2h15.7z"/><path style="fill:#f4f4f4" d="M255.4 144.1h25.8v-3.8h-41.5v7.2h15.7z"/><path class="st6" d="M178 132.2h8.3v8H178zM215.4 178.9h12.7V191h-12.7z"/><path class="st5" d="M253.5 159.7h8.3v8h-8.3zM212.7 182.9h8.3v8h-8.3zM164.2 189.9h14.3v13.7h-14.3zM283.3 117.2h12.8v12.3h-12.8z"/><path class="st6" d="M169.7 155.4h67.2v4h-67.2z"/><path class="st5" d="M210.5 194.2h67.2v4h-67.2zM163.6 209.1v3.9h70v1.7h-70v2.7h94.6v-8.3z"/><path class="st6" d="M218.3 122.9h67.2v4h-67.2zM166.2 183.8v2.5H194v1h-27.8v1.8h37.5v-5.3zM238.5 206v2.5h44.7v1.1h-44.7v1.7H299V206zM211.3 108.3v5.2h91.2v2.1h-91.2v3.6h123.3v-10.9zM289.1 157.4h-2.6v-2.5h-2.3v2.5h-2.6v2.3h2.6v2.4h2.3v-2.4h2.6z"/><path class="st5" d="M173.7 146.2h-3.6v-3.4h-3.4v3.4h-3.6v3.2h3.6v3.5h3.4v-3.5h3.6z"/><path class="st6" d="M285.4 165.2h-7v-6.7h-6.6v6.7h-7v6.2h7v6.7h6.6v-6.7h7zM253.5 147.9h-3.3v-3.2h-3.1v3.2h-3.3v3h3.3v3.2h3.1v-3.2h3.3z"/><path class="st5" d="M322.4 188.2h-16.1v-15.4h-15v15.4h-16.1v14.3h16.1v15.4h15v-15.4h16.1z"/><path class="st6" d="M308.7 164.2h-2.4v-2.3h-2.2v2.3h-2.4v2.1h2.4v2.3h2.2v-2.3h2.4zM274.9 141.2h-4.1v-4H267v4h-4.1v3.6h4.1v4h3.8v-4h4.1zM201.3 175.1h-3.8v-3.6h-3.4v3.6h-3.8v3.3h3.8v3.6h3.4v-3.6h3.8zM222.5 201.6h-5.2v-5h-4.9v5h-5.2v4.6h5.2v5h4.9v-5h5.2zM197.3 142.1h-2.5v-2.4h-2.4v2.4h-2.6v2.3h2.6v2.5h2.4v-2.5h2.5zM295.5 198.9h-4.6v-4.4h-4.2v4.4h-4.6v4.1h4.6v4.4h4.2V203h4.6zM188.9 203h-3.6v-3.4H182v3.4h-3.5v3.2h3.5v3.4h3.3v-3.4h3.6zM247.3 184h-2.6v-2.5h-2.4v2.5h-2.6v2.3h2.6v2.4h2.4v-2.4h2.6zM177.5 172.4h-2.6v-2.5h-2.4v2.5h-2.6v2.2h2.6v2.5h2.4v-2.5h2.6z"/><path class="st5" d="M293.2 151.1v-3.5h17.9v-18.2h-32V160h32v-8.9z"/><path class="st6" d="M168.7 127.2v-3.5h18v-18.3h-32.1v30.7h32.1v-8.9zM278.4 191v-2.5h12.7v-13h-22.7v21.8h22.7V191zM288.6 143.7v-1.8h9.6v-9.8H281v16.4h17.2v-4.8z"/><path class="st5" d="M163.9 165.6v-2.4h12.2v-12.3h-21.8v20.8h21.8v-6.1zM271.6 174.8v2.5h27.8v1.1h-27.8v1.7h37.6v-5.3z"/><path class="st6" d="M194 134v3.5h21.8v3.1H194v3.5h34.3V134z"/><path class="st5" d="M202.6 165.9v3h34.1v2.7h-34.1v3h53.5v-8.7z"/></g><path class="st3" d="M200.3 254.3h-20.7c-3.1 0-5.6-2.5-5.6-5.6v-3h31.9v3c0 3.1-2.5 5.6-5.6 5.6zM182 254.3l-25 66.3h6.9l34.1-66.3zM306.7 254.3h20.7c3.1 0 5.6-2.5 5.6-5.6v-3h-31.9v3c0 3.1 2.5 5.6 5.6 5.6zM325.1 254.3l24.9 66.3h-6.9l-34-66.3z"/><path class="st1" d="M200.3 255h-20.7c-3.5 0-6.3-2.8-6.3-6.3v-3c0-.4.3-.7.7-.7h31.9c.4 0 .7.3.7.7v3c0 3.4-2.8 6.3-6.3 6.3zm-25.6-8.7v2.3c0 2.7 2.2 4.9 4.9 4.9h20.7c2.7 0 4.9-2.2 4.9-4.9v-2.3h-30.5z"/><path class="st1" d="M163.9 321.3H157c-.2 0-.4-.1-.6-.3-.1-.2-.2-.4-.1-.6l24.9-66.4c.1-.3.4-.5.7-.5h16c.2 0 .5.1.6.3.1.2.1.5 0 .7l-34 66.4c-.1.3-.3.4-.6.4zm-5.9-1.4h5.5l33.3-65h-14.4l-24.4 65zM327.4 255h-20.7c-3.5 0-6.3-2.8-6.3-6.3v-3c0-.4.3-.7.7-.7H333c.4 0 .7.3.7.7v3c0 3.4-2.8 6.3-6.3 6.3zm-25.6-8.7v2.3c0 2.7 2.2 4.9 4.9 4.9h20.7c2.7 0 4.9-2.2 4.9-4.9v-2.3h-30.5z"/><path class="st1" d="M350 321.3h-6.9c-.3 0-.5-.1-.6-.4l-34-66.4c-.1-.2-.1-.5 0-.7.1-.2.4-.3.6-.3h16c.3 0 .6.2.7.5l24.9 66.4c.1.2.1.5-.1.6-.1.2-.3.3-.6.3zm-6.5-1.4h5.5l-24.4-65h-14.4l33.3 65zM340.4 246H174.2c-12.3 0-31.3-10.2-31.3-23.7v-106c0-13.5 19-23.7 31.3-23.7h166.2c13 0 23.7 10.6 23.7 23.7v106c0 13.1-10.6 23.7-23.7 23.7zM174.2 94.2c-6.2 0-13.7 2.5-19.7 6.6-6.6 4.5-10.2 10.1-10.2 15.7v106c0 5.6 3.6 11.1 10.2 15.7 5.9 4.1 13.5 6.6 19.7 6.6h166.2c12.3 0 22.3-10 22.3-22.3v-106c0-12.3-10-22.3-22.3-22.3H174.2z"/><path class="st1" d="M340.9 222.5H166.2c-7.6 0-13.9-6.2-13.9-13.9V116c0-7.6 6.2-13.9 13.9-13.9h174.7c7.6 0 13.9 6.2 13.9 13.9v92.7c0 7.6-6.3 13.8-13.9 13.8zm-174.7-119c-6.9 0-12.5 5.6-12.5 12.5v92.7c0 6.9 5.6 12.5 12.5 12.5h174.7c6.9 0 12.5-5.6 12.5-12.5V116c0-6.9-5.6-12.5-12.5-12.5H166.2z"/><path class="st1" d="M348.1 171.5H316c-1.4 0-2.6-1.2-2.6-2.6 0-1.4 1.2-2.6 2.6-2.6h32.1c1.4 0 2.6 1.2 2.6 2.6 0 1.5-1.1 2.6-2.6 2.6zm-32.1-3.8c-.7 0-1.2.5-1.2 1.2s.5 1.2 1.2 1.2h32.1c.7 0 1.2-.5 1.2-1.2s-.5-1.2-1.2-1.2H316zM348.1 178.9H316c-1.4 0-2.6-1.2-2.6-2.6 0-1.4 1.2-2.6 2.6-2.6h32.1c1.4 0 2.6 1.2 2.6 2.6 0 1.5-1.1 2.6-2.6 2.6zm-32.1-3.8c-.7 0-1.2.5-1.2 1.2s.5 1.2 1.2 1.2h32.1c.7 0 1.2-.5 1.2-1.2s-.5-1.2-1.2-1.2H316zM348.1 186.3H316c-1.4 0-2.6-1.2-2.6-2.6 0-1.4 1.2-2.6 2.6-2.6h32.1c1.4 0 2.6 1.2 2.6 2.6 0 1.5-1.1 2.6-2.6 2.6zm-32.1-3.8c-.7 0-1.2.5-1.2 1.2s.5 1.2 1.2 1.2h32.1c.7 0 1.2-.5 1.2-1.2s-.5-1.2-1.2-1.2H316zM348.1 193.7H316c-1.4 0-2.6-1.2-2.6-2.6 0-1.4 1.2-2.6 2.6-2.6h32.1c1.4 0 2.6 1.2 2.6 2.6 0 1.5-1.1 2.6-2.6 2.6zm-32.1-3.8c-.7 0-1.2.5-1.2 1.2s.5 1.2 1.2 1.2h32.1c.7 0 1.2-.5 1.2-1.2s-.5-1.2-1.2-1.2H316zM348.1 201.1H316c-1.4 0-2.6-1.2-2.6-2.6 0-1.4 1.2-2.6 2.6-2.6h32.1c1.4 0 2.6 1.2 2.6 2.6 0 1.5-1.1 2.6-2.6 2.6zm-32.1-3.8c-.7 0-1.2.5-1.2 1.2s.5 1.2 1.2 1.2h32.1c.7 0 1.2-.5 1.2-1.2s-.5-1.2-1.2-1.2H316zM348.1 208.5H316c-1.4 0-2.6-1.2-2.6-2.6s1.2-2.6 2.6-2.6h32.1c1.4 0 2.6 1.2 2.6 2.6s-1.1 2.6-2.6 2.6zm-32.1-3.8c-.7 0-1.2.5-1.2 1.2s.5 1.2 1.2 1.2h32.1c.7 0 1.2-.5 1.2-1.2s-.5-1.2-1.2-1.2H316zM332.1 136.9c-6.2 0-11.2-5-11.2-11.2 0-6.2 5-11.2 11.2-11.2s11.2 5 11.2 11.2c-.1 6.2-5.1 11.2-11.2 11.2zm0-20.9c-5.4 0-9.7 4.4-9.7 9.7 0 5.4 4.4 9.7 9.7 9.7 5.4 0 9.8-4.4 9.8-9.7-.1-5.3-4.4-9.7-9.8-9.7z"/><path class="st1" d="M329.9 135.8c-.2 0-.4 0-.6-.1-.6-.2-1.1-.6-1.4-1.1-.3-.5-.4-1.2-.2-1.8l4.3-15.4c.3-1.2 1.6-2 2.9-1.6.6.2 1.1.6 1.4 1.1.3.5.4 1.2.2 1.8l-4.3 15.4c-.2.6-.6 1.1-1.1 1.4-.4.2-.8.3-1.2.3zm4.3-18.7c-.2 0-.3 0-.4.1-.2.1-.4.3-.4.6l-4.3 15.4c-.1.2 0 .5.1.7.1.2.3.4.6.4.2.1.5 0 .7-.1.2-.1.4-.3.4-.6l4.3-15.4c.1-.2 0-.5-.1-.7-.1-.2-.3-.4-.6-.4-.1.1-.2 0-.3 0z"/><path class="st1" d="M328.5 133.2c-.1 0-.2 0-.3-.1-.7-.4-1.4-.9-2-1.5-1.6-1.6-2.4-3.7-2.4-5.9s.9-4.3 2.4-5.9c1.7-1.7 4-2.6 6.4-2.4.2 0 .4.1.5.3.1.2.2.4.1.6l-4 14.3c-.1.2-.2.4-.4.5-.1.1-.2.1-.3.1zm3.1-14.3c-1.7.1-3.2.8-4.4 2-1.3 1.3-2 3-2 4.9 0 1.8.7 3.6 2 4.9.3.3.6.5.9.8l3.5-12.6zm-4.9 1.5zM332.1 134.1h-.5c-.2 0-.4-.1-.5-.3-.1-.2-.2-.4-.1-.6l4-14.3c.1-.2.2-.4.4-.5.2-.1.4-.1.6 0 .7.4 1.4.9 2 1.5 1.6 1.6 2.4 3.7 2.4 5.9s-.9 4.3-2.4 5.9c-1.6 1.5-3.7 2.4-5.9 2.4zm4-14-3.5 12.5c1.7-.1 3.2-.8 4.4-2 1.3-1.3 2-3 2-4.9 0-1.8-.7-3.6-2-4.9-.3-.2-.6-.4-.9-.7zM332.1 161.6c-2.9 0-5.8-1.1-7.9-3.3-2.1-2.1-3.2-4.9-3.2-7.9s1.2-5.8 3.3-7.9c2.1-2.1 4.9-3.2 7.8-3.2h.1c3 0 5.8 1.2 7.9 3.3 2.1 2.1 3.2 4.9 3.2 7.9s-1.2 5.8-3.3 7.9c-2.2 2.1-5.1 3.2-7.9 3.2zm0-20.9c-2.6 0-5 1-6.9 2.8-1.9 1.8-2.9 4.3-2.9 6.9 0 2.6 1 5.1 2.8 6.9 1.8 1.9 4.3 2.9 6.9 2.9 2.6.1 5.1-1 6.9-2.8 1.9-1.8 2.9-4.3 2.9-6.9 0-2.6-1-5.1-2.8-6.9-1.8-1.9-4.3-2.9-6.9-2.9z"/><path class="st1" d="M325.1 156.6c-.8 0-1.6-.4-2-1.2-.6-1.1-.2-2.5.9-3.2l14-7.8c1.1-.6 2.5-.2 3.2.9.3.5.4 1.2.2 1.8-.2.6-.6 1.1-1.1 1.4l-14 7.8c-.5.2-.8.3-1.2.3zm-.8-1.8c.2.4.8.6 1.2.4l14-7.8c.2-.1.4-.3.4-.5.1-.2 0-.5-.1-.7-.2-.4-.8-.6-1.2-.4l-14 7.8c-.4.2-.6.7-.3 1.2z"/><path class="st1" d="M324.8 153.3c-.1 0-.2 0-.3-.1-.2-.1-.3-.2-.4-.4-.2-.8-.4-1.6-.4-2.4 0-2.2.9-4.3 2.5-5.9 1.6-1.6 3.6-2.4 5.8-2.4 2.4 0 4.6 1 6.2 2.8.1.2.2.4.2.6 0 .2-.2.4-.4.5l-13 7.2c0 .1-.1.1-.2.1zm7.3-9.8c-1.8 0-3.6.7-4.9 2-1.3 1.3-2 3-2.1 4.9 0 .4 0 .8.1 1.2l11.4-6.3c-1.2-1.2-2.8-1.8-4.5-1.8zM332.1 158.7c-2.4 0-4.7-1-6.2-2.8-.1-.2-.2-.4-.2-.6 0-.2.2-.4.4-.5l13-7.2c.2-.1.4-.1.6 0 .2.1.3.2.4.4.2.8.4 1.6.4 2.4-.1 4.6-3.8 8.3-8.4 8.3zm-4.6-3.1c1.2 1.1 2.9 1.7 4.5 1.7 3.8 0 6.9-3.1 6.9-6.9 0-.4 0-.8-.1-1.2l-11.3 6.4zm12.2-5.1zM339 113.7c-.3 0-.5-.1-.6-.4l-.1-.2c-.2-.3 0-.8.3-.9.3-.2.8 0 .9.3l.1.2c.2.3 0 .8-.3.9-.1.1-.2.1-.3.1zM220.3 238.8c-2.8 0-5.1-2.3-5.1-5.1s2.3-5.1 5.1-5.1 5.1 2.3 5.1 5.1-2.3 5.1-5.1 5.1zm0-8.8c-2 0-3.7 1.6-3.7 3.7 0 2 1.6 3.7 3.7 3.7 2 0 3.7-1.6 3.7-3.7s-1.7-3.7-3.7-3.7z"/><path class="st1" d="M220.3 237c-1.8 0-3.3-1.5-3.3-3.3 0-1.8 1.5-3.3 3.3-3.3 1.8 0 3.3 1.5 3.3 3.3 0 1.8-1.5 3.3-3.3 3.3zm0-5.3c-1.1 0-1.9.9-1.9 1.9 0 1.1.9 1.9 1.9 1.9 1.1 0 1.9-.9 1.9-1.9 0-1-.9-1.9-1.9-1.9zM238.8 238.8c-2.8 0-5.1-2.3-5.1-5.1s2.3-5.1 5.1-5.1 5.1 2.3 5.1 5.1-2.3 5.1-5.1 5.1zm0-8.8c-2 0-3.7 1.6-3.7 3.7 0 2 1.6 3.7 3.7 3.7 2 0 3.7-1.6 3.7-3.7s-1.7-3.7-3.7-3.7z"/><path class="st1" d="M238.8 237c-1.8 0-3.3-1.5-3.3-3.3 0-1.8 1.5-3.3 3.3-3.3 1.8 0 3.3 1.5 3.3 3.3 0 1.8-1.5 3.3-3.3 3.3zm0-5.3c-1.1 0-1.9.9-1.9 1.9 0 1.1.9 1.9 1.9 1.9 1.1 0 1.9-.9 1.9-1.9 0-1-.8-1.9-1.9-1.9zM257.3 238.8c-2.8 0-5.1-2.3-5.1-5.1s2.3-5.1 5.1-5.1 5.1 2.3 5.1 5.1-2.3 5.1-5.1 5.1zm0-8.8c-2 0-3.7 1.6-3.7 3.7 0 2 1.6 3.7 3.7 3.7 2 0 3.7-1.6 3.7-3.7s-1.6-3.7-3.7-3.7z"/><path class="st1" d="M257.3 237c-1.8 0-3.3-1.5-3.3-3.3 0-1.8 1.5-3.3 3.3-3.3 1.8 0 3.3 1.5 3.3 3.3.1 1.8-1.4 3.3-3.3 3.3zm0-5.3c-1.1 0-1.9.9-1.9 1.9 0 1.1.9 1.9 1.9 1.9s1.9-.9 1.9-1.9c.1-1-.8-1.9-1.9-1.9zM275.9 238.8c-2.8 0-5.1-2.3-5.1-5.1s2.3-5.1 5.1-5.1 5.1 2.3 5.1 5.1-2.3 5.1-5.1 5.1zm0-8.8c-2 0-3.7 1.6-3.7 3.7 0 2 1.6 3.7 3.7 3.7 2 0 3.7-1.6 3.7-3.7-.1-2.1-1.7-3.7-3.7-3.7z"/><path class="st1" d="M275.9 237c-1.8 0-3.3-1.5-3.3-3.3 0-1.8 1.5-3.3 3.3-3.3 1.8 0 3.3 1.5 3.3 3.3 0 1.8-1.5 3.3-3.3 3.3zm0-5.3c-1.1 0-1.9.9-1.9 1.9 0 1.1.9 1.9 1.9 1.9 1.1 0 1.9-.9 1.9-1.9 0-1-.9-1.9-1.9-1.9zM294.4 238.8c-2.8 0-5.1-2.3-5.1-5.1s2.3-5.1 5.1-5.1 5.1 2.3 5.1 5.1-2.3 5.1-5.1 5.1zm0-8.8c-2 0-3.7 1.6-3.7 3.7 0 2 1.6 3.7 3.7 3.7 2 0 3.7-1.6 3.7-3.7s-1.7-3.7-3.7-3.7z"/><path class="st1" d="M294.4 237c-1.8 0-3.3-1.5-3.3-3.3 0-1.8 1.5-3.3 3.3-3.3 1.8 0 3.3 1.5 3.3 3.3 0 1.8-1.5 3.3-3.3 3.3zm0-5.3c-1.1 0-1.9.9-1.9 1.9 0 1.1.9 1.9 1.9 1.9 1.1 0 1.9-.9 1.9-1.9 0-1-.8-1.9-1.9-1.9zM298.6 218.7h-131c-6.3 0-11.4-5.1-11.4-11.4v-89.8c0-6.3 5.1-11.4 11.4-11.4h131c6.3 0 11.4 5.1 11.4 11.4v89.8c.1 6.2-5 11.4-11.4 11.4zm-131-111.3c-5.5 0-10 4.5-10 10v89.8c0 5.5 4.5 10 10 10h131c5.5 0 10-4.5 10-10v-89.8c0-5.5-4.5-10-10-10h-131zM326.9 98.1H321c-.4 0-.7-.3-.7-.7 0-.4.3-.7.7-.7h5.9c.4 0 .7.3.7.7 0 .4-.3.7-.7.7zM316.1 98.1h-27.4c-.4 0-.7-.3-.7-.7 0-.4.3-.7.7-.7h27.4c.4 0 .7.3.7.7 0 .4-.3.7-.7.7zM182.7 272.9c-.1 0-.2 0-.3-.1-.4-.2-.5-.6-.3-.9l1.8-3.9c.2-.4.6-.5.9-.3.4.2.5.6.3.9l-1.8 3.9c-.1.2-.3.4-.6.4zM169.8 300.4c-.1 0-.2 0-.3-.1-.4-.2-.5-.6-.3-.9l11.7-25c.2-.4.6-.5.9-.3.4.2.5.6.3.9l-11.7 25c-.1.2-.3.4-.6.4zM324.3 272.9c-.3 0-.5-.1-.6-.4l-1.9-3.9c-.2-.4 0-.8.3-.9.4-.2.8 0 .9.3l1.9 3.9c.2.4 0 .8-.3.9-.1 0-.2.1-.3.1zM337.3 300.4c-.3 0-.5-.1-.6-.4L325 275c-.2-.4 0-.8.3-.9.4-.2.8 0 .9.3l11.7 25c.2.4 0 .8-.3.9-.1.1-.2.1-.3.1z"/><path class="st8" d="m123.3 155.1 2.1 9.2 9.1 2.1-9.1 2-2.1 9.2-2.1-9.2-9.2-2 9.2-2.1zM401.7 237.9l2.1 9.1 9.1 2.1-9.1 2.1-2.1 9.2-2.1-9.2-9.1-2.1 9.1-2.1zM393.9 162.9l2.1 9.2 9.2 2-9.2 2.1-2.1 9.2-2-9.2-9.2-2.1 9.2-2zM103.5 237l2 9.2 9.2 2.1-9.2 2-2 9.2-2.1-9.2-9.2-2 9.2-2.1zM127.9 103l1 4.6 4.6 1-4.6 1.1-1 4.6-1.1-4.6-4.6-1.1 4.6-1zM64.4 193.7l1.1 4.6 4.6 1-4.6 1-1.1 4.6-1-4.6-4.6-1 4.6-1zM435.6 164.5l1 4.6 4.6 1-4.6 1-1 4.6-1.1-4.6-4.6-1 4.6-1z"/><g id="XMLID_39_"><g id="XMLID_92_"><path id="XMLID_102_" class="st9" d="M211.8 155.6h-.1l.7-.7 2.8-2.8H210l-5.1 5.2v-5.2h-3.5v13.8h3.5v-5.2l10.3 10.3v-5.1l-6.9-6.9z"/><path id="XMLID_99_" class="st9" d="M221.1 152.1c-1.9 0-3.5.7-4.9 2-1.3 1.3-2 3-2 4.9 0 1.9.7 3.5 2 4.9 1.3 1.3 3 2 4.9 2 1.9 0 3.5-.7 4.8-2 1.4-1.3 2-3 2-4.9 0-1.9-.7-3.5-2-4.8-1.3-1.4-2.9-2.1-4.8-2.1zm2.4 9.3c-.7.7-1.5 1-2.4 1-.9 0-1.8-.3-2.4-1-.7-.7-1-1.5-1-2.4 0-.9.3-1.7 1-2.4s1.5-1 2.4-1c.9 0 1.7.3 2.4 1s1 1.5 1 2.4c0 .9-.3 1.8-1 2.4z"/><path id="XMLID_98_" class="st9" d="M235.9 152.1h-10.3l3.4 3.4v10.4l3.4-3.4v-6.9h3.4c.9 0 1.7.3 2.4 1s1 1.5 1 2.4c0 .9-.3 1.8-1 2.4-.7.7-1.5 1-2.4 1h-1.7l-3.4 3.4h5.2c1.9 0 3.5-.7 4.8-2 1.4-1.3 2-3 2-4.9 0-1.9-.7-3.5-2-4.8-1.3-1.3-2.9-2-4.8-2z"/><path id="XMLID_97_" class="st9" d="M243.8 159c0 1.9.7 3.5 2 4.9 1.3 1.3 3 2 4.9 2h6.9v-3.4h-6.9c-.9 0-1.8-.3-2.4-1-.2-.2-.4-.5-.6-.7h9.9v-3.4h-13.8v1.6z"/><path id="XMLID_96_" class="st9" d="M245.5 155.5h12v-3.4h-15.4z"/><path id="XMLID_93_" class="st9" d="M272.3 159c0-1.9-.7-3.5-2-4.8-1.3-1.4-3-2-4.9-2h-6.9V166h3.4v-5.2l10.3 10.3v-5.2l-5.2-5.2h5.2V159zm-10.3-1.7v-1.7h3.4c.9 0 1.7.3 2.4 1 .2.2.4.5.6.7H262z"/></g></g></g></svg>