<svg xmlns="http://www.w3.org/2000/svg" viewBox="0 0 500 422.7" style="enable-background:new 0 0 500 422.7" xml:space="preserve"><style>.st0{fill:#917fd3}.st1{fill:#988bd8}.st2{fill:#7158b7}.st3{fill:#5d4394}.st4{fill:#fdf3ff}.st6{fill:#513e84}</style><g id="OBJECTS"><path class="st0" d="M459.7 179.1c-.6-5.2-4.8-9.5-10-10.2-2.3-.3-4.5.1-6.4 1 0-.4.1-.7.1-1.1 0-12.8-10.3-23.1-23.1-23.1-4.9 0-9.4 1.5-13.2 4.1-3.8-15.7-18.5-27.1-35.7-25.8-16.3 1.2-29.6 14.3-31.2 30.6-.5 5.1.1 9.9 1.7 14.4-.5-.1-1-.1-1.5-.1-2.3 0-4.3.7-6.1 1.8v-.6c0-12.1-9.8-22-22-22-12.1 0-22 9.8-22 22 0 1.2.1 2.3.3 3.5h-36.9c-5.1 0-9.2 4.1-9.2 9.2s4.1 9.2 9.2 9.2h198.4v-.7c4.9-1.9 8.2-6.7 7.6-12.2z"/><path class="st1" d="M32.7 344.2s54.7-103.9 120-102.8c93.8 1.6 152.4 91.4 152.4 91.4L32.7 344.2z"/><path class="st1" d="M169.6 344.2S247 212 312.2 213.1C406 214.7 454.8 342 454.8 342l-285.2 2.2z"/><path class="st2" d="M467.3 361.6c0 23-102.8 22.8-218.8 38.5-181.2 24.5-215.8-55.9-215.8-55.9 8.7-21.8 119.4-50.4 227.2-50.4s207.4 44.8 207.4 67.8z"/><path class="st0" d="M263.8 104.5h-35.7c1-3.7.9-7.9-1.3-12.3-2.4-4.8-6.8-8.4-12.1-9.5-3.3-.7-6.4-.4-9.2.5v-.6c0-17.4-14.1-31.5-31.5-31.5-15.4 0-28.2 11-30.9 25.6-1.3-.2-2.6-.4-3.9-.4-11 0-20 8.6-20.6 19.5H70.1c-6 0-11.2 4.6-11.4 10.6-.2 6.2 4.8 11.3 10.9 11.3h194.3c3.7 0 6.6-3 6.6-6.6-.1-3.6-3-6.6-6.7-6.6zM396.5 65.3h-21.3c.6-2.2.5-4.7-.8-7.3-1.4-2.9-4.1-5-7.2-5.7-2-.4-3.8-.2-5.5.3v-.3c0-10.3-8.4-18.7-18.7-18.7-9.1 0-16.8 6.6-18.4 15.2-.8-.1-1.5-.2-2.3-.2-6.6 0-11.9 5.1-12.3 11.6h-28.9c-3.6 0-6.7 2.7-6.8 6.3-.1 3.7 2.8 6.7 6.5 6.7h115.6c2.2 0 3.9-1.8 3.9-3.9.1-2.2-1.6-4-3.8-4z"/><path class="st3" d="M74.1 320.6c18.1 21.4 71.4 62.4 207.9 44 68.7-9.3 132.8-13 173.6-19.3-29.5-23.2-109.9-51.5-195.6-51.5-70.6 0-142.3 12.2-185.9 26.8z"/><path class="st4" d="M350.3 134.8c.5-2.6-1.7-5.6-2.9-8l-2.7-5.7c-.1-.3-.4-1.1-.5-.9.2-.6.9-1.4 1.2-1.9 1.5-2.8 3.6-5.3 3.6-8.5v-7c0-1.3.4-3.4 0-4.7-.4-1.5-2-2.9-2.9-4.2-.8-1.1-1.6-2.2-2.5-3.3-.5-.6-1-1.9-1.2-1.3.3-1.5 2.5-4 3.2-5.2 1.1-1.8 2.2-3.6 3.3-5.5.5-.8-.6-1.2-1.1-1.2h-81.2c.1-.1.1-.3.1-.4V28.8c.7-.8-.1-2.4-1.4-2.1-11.3 2-21.6 7.5-32.8 10.1-.5.1-.8.5-.9.9-.1.1-.2.3-.2.4v39.5H157c-.5 0-1.4.5-1.4 1.1 0 5.5-.1 10.9-.1 16.4 0 1.7-.1 2 1 3.2 1.5 1.6 3.7 3 5.6 4.3v.1c-2 1-3.9 2.1-5.9 3.1-.3.2-.7.5-.7.9 0 5.9-.1 11.8-.1 17.7l-.1 12.1c0 1.9-.5 4.5 0 6.4.5 2.2 2.8 4.5 4 6.3.1.2.4.5.6.7-.4.4-.5.8-.1 1.1l-.1.1c-1.2 1.2-2.3 2.9-3.3 4.3-1.4 2-1.1 3.4-1.1 5.9 0 3.4 0 6.8-.1 10.2 0 .7.6.9 1.2.9l64.8 2.1 12.4.4v161.4c-.9.6-.6 2.4.7 2.4l30.8 1.5c.9 0 1.3-.7 1.3-1.4.1-.1.1-.3.1-.5V175.5c19.2.6 38.3 1.2 57.5 1.8 7.8.2 15.5.5 23.3.7h.7c.3 0 .6-.2.8-.4.3-.2.4-.5.3-.9-1.7-7.7-3.3-15.5-5-23.2-.1-.6-.3-2.2-.4-1.9.3-1.6 1.3-3.4 1.9-4.8 1.5-3.8 3.9-8 4.7-12z"/><path class="st3" d="M350.3 134.8c.5-2.6-1.7-5.6-2.9-8l-2.7-5.7c-.1-.3-.4-1.1-.5-.9.2-.6.9-1.4 1.2-1.9 1.5-2.8 3.6-5.3 3.6-8.5v-7c0-1.3.4-3.4 0-4.7-.4-1.5-2-2.9-2.9-4.2-.8-1.1-1.6-2.2-2.5-3.3-.5-.6-1-1.9-1.2-1.3.3-1.5 2.5-4 3.2-5.2 1.1-1.8 2.2-3.6 3.3-5.5.5-.8-.6-1.2-1.1-1.2h-81.2c.1-.1.1-.3.1-.4V28.8c.7-.8-.1-2.4-1.4-2.1-11.3 2-21.6 7.5-32.8 10.1-.5.1-.8.5-.9.9-.1.1-.2.3-.2.4v39.5H157c-.5 0-1.4.5-1.4 1.1 0 5.5-.1 10.9-.1 16.4 0 1.7-.1 2 1 3.2 1.5 1.6 3.7 3 5.6 4.3v.1c-2 1-3.9 2.1-5.9 3.1-.3.2-.7.5-.7.9 0 5.9-.1 11.8-.1 17.7l-.1 12.1c0 1.9-.5 4.5 0 6.4.5 2.2 2.8 4.5 4 6.3.1.2.4.5.6.7-.4.4-.5.8-.1 1.1l-.1.1c-1.2 1.2-2.3 2.9-3.3 4.3-1.4 2-1.1 3.4-1.1 5.9 0 3.4 0 6.8-.1 10.2 0 .7.6.9 1.2.9l64.8 2.1 12.4.4v161.4c-.9.6-.6 2.4.7 2.4l30.8 1.5c.9 0 1.3-.7 1.3-1.4.1-.1.1-.3.1-.5V175.5c19.2.6 38.3 1.2 57.5 1.8 7.8.2 15.5.5 23.3.7h.7c.3 0 .6-.2.8-.4.3-.2.4-.5.3-.9-1.7-7.7-3.3-15.5-5-23.2-.1-.6-.3-2.2-.4-1.9.3-1.6 1.3-3.4 1.9-4.8 1.5-3.8 3.9-8 4.7-12zM234 39.1c10.3-2.5 19.8-7.4 30.2-9.6V77.4H234V39.1zm29.8 298c-5.8-.3-11.7-.6-17.5-.9.5-.1.9-.5.9-1.2v-36.3c0-1.7-2.6-1.7-2.6 0V335c0 .6.4 1 .8 1.2-3.1-.2-6.2-.3-9.2-.5V174.6c9.2.3 18.4.6 27.7.9v161.6zM341.5 154c-9.6.7-19.1 1-28.7.8-.8 0-2.7 1.2-1 1.3 10 .2 20-.1 30-.9.9 4 1.7 8 2.6 12-41.7.8-83.3 1-125 .8-1.5 0-1.9 1.9-.2 1.9 41.9.3 83.7 0 125.6-.8.5 2.3 1 4.6 1.5 7l-63.1-2c-34.3-1.1-68.6-2.2-102.8-3.3-7.5-.2-15.1-.5-22.6-.7 0-3.9.2-7.8.1-11.7-.1-2-.2-1.3 1.1-3 1.2-1.5 2.3-2.9 3.5-4.4 10.3.5 20.7.8 31.1 1 1.4 0 1.9-1.8.2-1.8-10.4-.2-20.7-.5-31.1-1-1.3-1.9-2.5-3.8-3.8-5.6-1.1-1.5-.9-.7-.8-2.6.1-4.6.1-9.2.1-13.8 9.9-.5 19.8-1 29.8-1.4 1.5-.1 1.9-2 .2-1.9-10 .5-20 1-30 1.4v-.4c0-5.5.1-11 .1-16.5v-1.5h.1c1.8-.3 3.9-1.8 5.6-2.9.6.2 1.2.2 2 .2.6 0 1.1-.4 1.3-.8 13.7.2 27.5.4 41.2.5 1 0 2.7-1.4 1-1.5l-44-.6-.1-.1c-2-1.6-4-3.4-6.2-4.8-.2-.1-.6-.4-.8-.6-.2-.8 0-2 0-2.8 0-4.7.1-9.4.1-14.1h187.6c-2 3.3-3.9 6.5-5.9 9.8-.1.2-.1.6.1.8 2 2.6 4.8 5.4 6.2 8.3.1.3.2.3.2.3.1.5 0 1.2 0 1.8v6.7c0 3.9-.1 4.7-1.9 8.1-.9 1.7-2.3 3.3-2.5 5-10.8-.2-21.5.1-32.2.9-1.3.1-2.1 1.6-.3 1.5 10.9-.8 21.8-1 32.7-.8 1 3.6 3.5 7.6 5.2 11 .2.4.5.9.6 1.3v.1c-.1 1.3-1.2 3.1-1.7 4.4-1.5 3.9-3.1 7.8-4.6 11.7-.9 1.5-.8 2.1-.5 3.7z"/><path class="st3" d="M338.9 87.3c-21.5-.5-43-.4-64.5.3-1.3 0-2 1.6-.3 1.5 21.3-.7 42.6-.8 63.9-.3 1 0 2.6-1.5.9-1.5zM188.3 85c-8.2-.2-16.3-.4-24.5-.5-1.5 0-1.9 1.8-.2 1.9 8.2.2 16.3.4 24.5.5 1.5 0 1.9-1.9.2-1.9zM198.3 160.7c-10.2-.2-20.4-.4-30.6-.5-1 0-2.7 1.5-.9 1.6 10.2.2 20.4.4 30.6.5 1 0 2.6-1.6.9-1.6zM334.4 161h1.7c.5 0 1.3-.4 1.4-1 .1-.7-.7-.8-1.2-.8h-1.7c-.5 0-1.3.4-1.4 1-.1.7.7.8 1.2.8zM171.5 142.6c-2.8-.2-5.5-.3-8.3-.5-.5 0-1.4 0-1.8.5-.3.3-.4.7.2.7l8.3.5c.5 0 1.4 0 1.8-.5.3-.3.5-.7-.2-.7zM334.1 114.1c-4.2-.2-8.4-.3-12.7-.5-.9 0-2.7 1.2-1 1.3 4.2.2 8.4.3 12.7.5.9.1 2.7-1.2 1-1.3zM330.1 98.9h-14.8c-.5 0-2.9 1-1.6 1h14.8c.5 0 2.8-1 1.6-1zM257.6 251.7c-.2-.7-.1-1.3.3-2 .9-1.4-1.3-2.7-2.3-1.3-.8 1.2-1 2.6-.6 4 .6 1.6 3.1 1 2.6-.7zM256.2 287.6v3.3c-.1.1-.1.2-.1.3v30.4c0 1.1 2 .8 2-.1v-29.3c.4-.2.7-.6.7-1.1v-3.5c0-1.7-2.6-1.7-2.6 0z"/><path d="M256.9 329.1c-1.7 0-1.7 2.6 0 2.6s1.7-2.6 0-2.6z" style="fill:#fcae30"/><path class="st3" d="M257.5 215.2c-.2-9.9-.4-19.8-.5-29.7 0-1-2-.6-2 .2.2 9.9.4 19.8.5 29.7 0 1 2 .6 2-.2zM246.4 259.9v-67c0-.6-2-.2-2 .5v67c0 .7 2 .3 2-.5zM251.9 262.2v-29c0-1-2-.8-2 .2v29c0 1 2 .7 2-.2zM243.7 45.6c-.7 0-2.1 1.1-.8 1.1.7 0 2.1-1.1.8-1.1zM247.8 42.3v25.5c0 .4 2 .1 2-.5V41.8c0-.4-2-.1-2 .5zM243 52.5v19.3c0 .9 2 .6 2-.2V52.3c0-.9-2-.6-2 .2zM260.2 37.3v18.6c0 1 2 .7 2-.2V37.1c.1-1-2-.7-2 .2zM245.7 286.3v-14.5c0-1-2-.7-2 .2v14.5c0 1 2 .7 2-.2zM242.2 189v-11.7c0-.9-2-.6-2 .2v11.7c0 .9 2 .6 2-.2zM130.4 317.1v8.6c0 .7 1.5.4 1.5-.2V317c0-.7-1.5-.4-1.5.1z"/><path class="st4" d="M122.5 324.5h21.7v-71.9c25.4-1.7 45.5-22.9 45.5-48.8 0-6.1-5-11.1-11.1-11.1s-11.1 5-11.1 11.1c0 13.6-10.2 24.8-23.3 26.4v-30.5c0-6-4.8-10.8-10.8-10.8-6 0-10.8 4.8-10.8 10.8v55.6c-11.2-3.2-19.4-13.5-19.4-25.7 0-6.1-5-11.1-11.1-11.1s-11.1 5-11.1 11.1c0 24.5 18.1 44.8 41.7 48.3v46.6z"/><path class="st3" d="M121.4 278.2c.9.8 0 6.4 0 7.6v29.4c0 2.9-.3 6.2-.1 9.3h2.3c-.3-3.7 0-7.6 0-11.3v-35.1c0-.5-.3-1-.8-1.1-21.7-3.7-41.6-22.9-40.8-46.2.2-5.8 3.5-11 9.9-11 6.9 0 9.2 5.3 10 11 .5 3.7.9 7.1 2.5 10.6 3.5 7.5 9.9 12.6 17.7 15.1.7.2 1.4-.4 1.4-1.1V204c0-4.7-.1-9.8 4.8-12.6 7-4.1 13.9 1.6 14.6 8.7.1 1.3 0 2.8 0 4.1v26c0 .8.7 1.2 1.4 1.1 8.4-1.4 15.8-5.9 20.2-13.3 1.8-3.1 3.1-6.5 3.6-10.1.8-4.9.2-9.8 5.3-12.8 7-4.1 14.3 1.3 15 8.6-.5 25.1-19.3 45.4-44.4 47.6-.6.1-1.1.5-1.1 1.1v69.1c0 .9.1 1.8 0 2.8h2.4c.3-3.9-.2-8.1-.2-11.8V264c0-2.8-.9-7.3 0-9.9.2-.5.2-.7.2-.8.1 0 .1 0 .3-.1 1.4-.8 6.7-.6 8.9-1.2 6.7-1.9 12.9-5.3 18.2-9.7 11.5-9.5 17.6-23.5 17.9-38.3-.9-9.7-11.6-16.3-20-9.5-3.9 3.2-4.1 7-4.6 11.6s-2 8.9-4.6 12.7c-3.8 5.3-8.4 6.8-13.7 9.7-2.6 1.4-2 2.2-2.6.5-.4-1.3 0-3.5 0-4.8v-15.5c0-6.9 1.1-15-5.9-19.1-8.3-4.8-17.4 1.5-18 10.4-.4 6.3 0 12.7 0 19v29c0 1.5.8 5.8 0 7.1.6-1-3.9-2.8-5.6-3.9-4.8-3.1-8.5-7.9-10.3-13.4-1.8-5.4-.3-11.3-4.2-15.9-3.1-3.6-8-5-12.5-3.8-11.8 3.2-9.5 17.6-6.8 26.6 3.7 11.9 11.9 22.2 22.7 28.4 2.4 1.4 5 2.6 7.6 3.6 1.8.7 4 1.6 5.9 1.8-1.8-.2 4.3.6 3.4-.3z"/><path class="st3" d="M136.2 210.1v35.4c0 .6 1.2.4 1.2-.1V210c0-.6-1.2-.4-1.2.1zM138.3 260.6v9.4c0 .3 1.2.1 1.2-.3v-9.4c0-.3-1.2-.1-1.2.3zM136.2 286.2V311c0 .3 1.2.1 1.2-.3v-24.8c0-.3-1.2-.1-1.2.3zM130.6 227.2v36.7c0 .7 1.3.5 1.3-.1v-36.7c0-.7-1.3-.5-1.3.1zM130.6 273.4v6.4c0 .4 1.2.1 1.2-.3v-6.4c.1-.4-1.2-.2-1.2.3zM128.5 197.7v8.1c0 .6 1.2.4 1.2-.1v-8.1c0-.6-1.2-.4-1.2.1zM115 261.3c-10.1-8.2-18.8-19.1-18.1-32.7 0-.2-1.2-.1-1.2.3-.7 13.7 8.1 24.7 18.2 32.9.2.2 1.4-.3 1.1-.5zM104.5 260.2c-2.7-2.2-4.8-4.9-6.4-8-.2-.5-1.4-.1-1.2.3 1.5 3.2 3.7 5.9 6.5 8.2.3.3 1.5-.2 1.1-.5zM95.9 258c-7-7.7-10.6-17.6-10.1-28 0-.7-1.2-.5-1.3.1-.5 10.5 3.2 20.7 10.3 28.4.4.5 1.5 0 1.1-.5zM173.6 205.4c-1.6 7.4-4.8 14.2-9.5 20.2-.1.1 1 .1 1.2-.2 4.7-6 7.9-12.8 9.5-20.2 0-.3-1.2-.1-1.2.2zM153.3 232.5c-1.4 1.8-3.4 2.6-5.7 2.3-.6-.1-1.3.8-.4.9 2.7.4 5.4-.7 7.1-2.8.6-.7-.6-.9-1-.4zM180.9 197.9c0-.3-1.3 0-1.2.3.5 4.5-.3 8.8-2.5 12.7-.1.2 1 .1 1.2-.2 2.2-3.9 3-8.2 2.5-12.8zM183.4 212.6c-5.2 16-19.2 28.2-35.8 31.1-.6.1-1 .9-.1.8 17.2-2.9 31.8-15.4 37.2-32 .1-.5-1.2-.4-1.3.1zM127.8 303.5v16.1c0 .3 1.5.1 1.5-.4v-16.1c0-.3-1.5-.1-1.5.4z"/><path class="st4" d="M187.9 340.7c0 1.7-1.6 3-2.8 3.9-.4.3-.5 1.2 0 1.6 2.6 2.1 6.4 5.1 5.4 9-1.3 5.3-8.3 1.6-11.1-.1-.5-.3-1-.2-1.3.2l-47.8 11.6c-.5.1-.8.5-.8 1-.1.1-.1.3-.1.4-.2 4.6-4.3 8-8.9 6.8-2.8-.7-5.1-3.2-4-6.3.9-2.5 3.3-3.9 5.4-5.1.9-.6.6-2-.5-2.1-2.1-.1-4.2-.6-6-1.8-2.8-1.9-3.5-5.4-.4-7.4 3.9-2.6 8.3.4 11.3 3.4-.7.7-.2 2.2 1 1.9l49.2-12c.5.2 1.1.1 1.3-.5.3-.3.3-.7.3-1 .7-2.3 2.2-4.3 4.5-5.4 1.7-.8 5.3-1.4 5.3 1.9z"/><path class="st6" d="M175.9 343.5 128.7 355c-4.1-4.3-12-9.2-16.7-2.8-4 5.4 1.3 9.7 6.4 11.1-2.2 1.6-4.1 3.5-4.4 6.3-.4 3.2 1.8 5.9 4.7 7.2 6 2.6 12.3-1.7 12.9-7.9l47.1-11.5c.1 0 .1 0 .2-.1 3.9 2.3 10.4 5 13.2.1 2.6-4.6-1-9-4.4-12 1.6-1.4 2.7-3.2 2.5-5.5-.2-2.2-1.9-3.6-4-4-4.8-.7-9 3.3-10.3 7.6zm12-2.8c0 1.7-1.6 3-2.8 3.9-.4.3-.5 1.2 0 1.6 2.6 2.1 6.4 5.1 5.4 9-1.3 5.3-8.3 1.6-11.1-.1-.5-.3-1-.2-1.3.2l-47.8 11.6c-.5.1-.8.5-.8 1-.1.1-.1.3-.1.4-.2 4.6-4.3 8-8.9 6.8-2.8-.7-5.1-3.2-4-6.3.9-2.5 3.3-3.9 5.4-5.1.9-.6.6-2-.5-2.1-2.1-.1-4.2-.6-6-1.8-2.8-1.9-3.5-5.4-.4-7.4 3.9-2.6 8.3.4 11.3 3.4-.7.7-.2 2.2 1 1.9l49.2-12c.5.2 1.1.1 1.3-.5.3-.3.3-.7.3-1 .7-2.3 2.2-4.3 4.5-5.4 1.7-.8 5.3-1.4 5.3 1.9z"/><path class="st3" d="m127.6 361.8 32.2-7.9c.7-.2 0-1.7-.6-1.5l-32.2 7.9c-.6.2.1 1.7.6 1.5zM165.5 353l5.4-1.3c.3-.1-.3-1.6-.8-1.5l-5.4 1.3c-.2.1.4 1.6.8 1.5zM182.7 258.5c0-2.3 1.9-4.2 4.2-4.2s4.2 1.9 4.2 4.2c0 5.2 3.9 9.5 8.9 10.1V257c0-2.3 1.9-4.1 4.1-4.1 2.3 0 4.1 1.9 4.1 4.1v21.3c4.3-1.2 7.4-5.1 7.4-9.8 0-2.3 1.9-4.2 4.2-4.2 2.3 0 4.2 1.9 4.2 4.2 0 9.4-6.9 17.1-15.9 18.5v18c0 2.3-1.9 4.1-4.1 4.1-2.3 0-4.1-1.9-4.1-4.1v-27.7c-9.6-.8-17.2-8.9-17.2-18.8zM397.3 293.4c0-2.1 1.7-3.8 3.8-3.8s3.8 1.7 3.8 3.8c0 4.7 3.5 8.5 8 9.1V292c0-2.1 1.7-3.7 3.7-3.7 2.1 0 3.7 1.7 3.7 3.7v19.1c3.8-1.1 6.7-4.6 6.7-8.8 0-2.1 1.7-3.8 3.8-3.8 2.1 0 3.8 1.7 3.8 3.8 0 8.4-6.2 15.4-14.3 16.6V335c0 2.1-1.7 3.7-3.7 3.7-2.1 0-3.7-1.7-3.7-3.7v-24.9c-8.7-.6-15.6-7.8-15.6-16.7z"/><path class="st4" d="M412.4 239.5c-5 0-9.1 4.1-9.1 9.1v.5c0 7.8-6.4 14.2-14.2 14.2h-5.3v-48.8c0-5.8-4.7-10.4-10.4-10.4-5.8 0-10.4 4.7-10.4 10.4v27c-5.5-.3-9.8-4.8-9.8-10.3v-1.4c0-5-4.1-9.1-9.1-9.1s-9.1 4.1-9.1 9.1v1.4c0 15.6 12.5 28.2 28 28.5v24h-5.8c-7.8 0-14.2-6.4-14.2-14.2 0-5-4.1-9.1-9.1-9.1s-9.1 4.1-9.1 9.1c0 17.8 14.5 32.4 32.4 32.4h5.8v20h20.8v-40.4h5.3c17.8 0 32.4-14.5 32.4-32.4v-.5c0-5-4.1-9.1-9.1-9.1z"/><path class="st3" d="M412.8 238.5c-.1-.1-.3-.1-.5-.1s-.3 0-.5.1c-3.9.5-7.3 2.4-8.9 6.3-1 2.5-.5 5.2-1.2 7.8-1.7 6-7 9.3-13 9.6-1.3.1-3.5-.5-4 0 0-.5.1-1.1.1-1.4.3-3.9 0-7.9 0-11.7V220c0-6.6 0-13.7-7.6-16.4-8.2-3-15.1 3.6-15.4 11.6-.1 4 0 8 0 12 0 3 1.4 10.6 0 13.4v.1h-.2c-1.1.3-5.9-4.5-6.3-5.1-1.8-3.2-.6-6.6-1.9-9.8-1.5-3.8-5.3-6.3-9.4-6.3-12.2 0-11.1 15-7.9 22.8 2 4.7 5.1 8.9 9.2 12 2 1.6 4.1 2.8 6.5 3.8 1.7.7 3.5 1.3 5.3 1.7 0 0 5.1.7 4.4.2.3.3.4.9.4 2.7v6c0 4.1 1 9.8 0 13.8-.6 0-1.4-.1-1.9-.1-3.4-.4-6.3.1-9.5-1.8-8.2-4.8-3.8-14.6-10.8-19.6-9.3-6.6-16.8 3.5-15.7 12.2 1.4 11.7 9.1 22 19.9 26.7 5 2.2 10.2 2.7 15.6 2.8h2.6c.2 1.4-.1 3.4-.1 4.7 0 3.9-.7 9.3-.4 14.3h2.5c-.3-6.6 0-13.4 0-20 0-.6-.5-1.1-1.1-1.1-7.6 0-14.8-.3-21.6-4.3-9.1-5.4-18.8-19-14.3-29.9.6-3.4 2.9-5.1 6.9-5.2 4.9.5 7.6 3.1 8 8 .4 1.6.3 3.2.8 4.9 1 2.8 2.7 5.3 5.1 7.1 4.5 3.5 9.7 3.2 15.1 3.2.6 0 1.1-.5 1.1-1.1v-24c0-.6-.5-1-1.1-1.1-13.5-.7-29.9-13.5-26.9-28.9.8-4.3 3.5-7.4 8-8 5.6-.8 7.2 4.9 8 8.7.3 1.6.1 3.1.7 4.6 1.6 4.4 5.4 6.8 9.9 7.4.7.1 1.3-.3 1.3-1v-23c0-6.1 1.5-13.3 9.4-13.3 7.3 0 9.4 6.6 9.4 12.5v45.7c0 .6.5 1.1 1.1 1.1 5.3 0 10.3.2 14.7-3.3 2.5-2 4.4-4.8 5.3-7.9 1.5-5.5.2-11.7 8.6-12.6 17 1.7 3.8 26.3-2.5 31.9-7.6 6.7-16.4 7.9-26.1 7.9-.6 0-1.1.5-1.1 1.1v40.4h2.5c.5-6.7-.3-14-.3-20.5v-14.7c0-1.1-.3-2.8-.1-4 .5.3 2-.1 3-.1 13-.1 25-6.3 31.1-18.2 4.3-8.4 6.8-23.8-6.2-25.5z"/><path class="st3" d="M377.4 248.6v32c0 .4 1.4.1 1.4-.4v-32c-.1-.3-1.4-.1-1.4.4zM370.8 260.7v9.2c0 .6 1.4.3 1.4-.2v-9.2c0-.5-1.4-.3-1.4.2zM371.5 286.7v20.9c0 .2 1.4 0 1.4-.4v-20.9c0-.2-1.4 0-1.4.4zM375.3 211.2V226c0 .3 1.4.1 1.4-.4v-14.8c-.1-.2-1.4 0-1.4.4zM368.9 218.9v4.2c0 .6 1.4.4 1.4-.1v-4.2c0-.7-1.4-.4-1.4.1zM410.2 252.2c-1.8 4.2-3.7 8.7-7 12-4.6 4.6-10.3 4.7-16.4 4.4-.6 0-1.4.9-.5.9 5.3.3 10.7.4 15.3-2.7 5-3.4 7.6-9.2 9.9-14.6.3-.5-1.1-.5-1.3 0zM413.7 259.4c-1.1 2.9-2.9 5.4-5.2 7.4-.3.3 1 .2 1.2-.1 2.3-2.1 4.1-4.6 5.3-7.6.2-.2-1.2 0-1.3.3zM378.8 321.8V302c0-.7-1.4-.6-1.4.1v19.8h1.4zM378.1 292.5v2.8c0 .7 1.4.5 1.4-.1v-2.8c0-.7-1.4-.5-1.4.1zM355.2 288.7c-9.8-1.3-17.1-8.8-18.3-18.6-.1-.5-1.4-.2-1.4.4 1.3 10 8.9 17.6 18.9 19 .4 0 1.6-.7.8-.8zM353.8 294.1c-1.2 0-2.4-.2-3.5-.7-.6-.3-1.6.6-.8 1 1.3.6 2.8.8 4.2.8.8-.1 1-1.1.1-1.1zM352.6 250.7c-3-.1-6.8-5.2-8.4-7.4-2.6-3.5-4.1-7.4-3.5-11.8.1-.5-1.3-.2-1.4.2-.7 4.7 1 8.9 3.9 12.6 2 2.6 5.2 7.1 8.8 7.2.6-.1 1.6-.8.6-.8zM353.6 242.4c-2.2-.4-3.9-2.2-4.2-4.4 0-.2-1.4 0-1.4.4.3 2.3 2.2 4.2 4.5 4.6.3.1.7 0 1-.2 0-.1.4-.3.1-.4zM366.8 237v12.7c0 .3 1.4.1 1.4-.4v-12.7c0-.3-1.4-.1-1.4.4zM377.7 233.7v4.9c0 .6 1.4.3 1.4-.2v-4.9c0-.6-1.4-.3-1.4.2z"/><path class="st2" d="M78.6 298.2c-1.7 0-3.1 1.4-3.1 3.1v.2c0 2.7-2.2 4.9-4.9 4.9h-1.8v-16.7c0-2-1.6-3.6-3.6-3.6s-3.6 1.6-3.6 3.6v9.2c-1.9-.1-3.4-1.6-3.4-3.5v-.5c0-1.7-1.4-3.1-3.1-3.1-1.7 0-3.1 1.4-3.1 3.1v.5c0 5.3 4.3 9.7 9.6 9.8v8.2h-2c-2.7 0-4.9-2.2-4.9-4.9 0-1.7-1.4-3.1-3.1-3.1-1.7 0-3.1 1.4-3.1 3.1 0 6.1 5 11.1 11.1 11.1h2v7.6c0 2 1.6 3.6 3.6 3.6s3.6-1.6 3.6-3.6v-14.6h1.8c6.1 0 11.1-5 11.1-11.1v-.2c0-1.7-1.4-3.1-3.1-3.1z"/><path class="st4" d="M410.4 357.8c-1.4-.2-2.9-.2-4.4.3-.2 0-.4.1-.6.2.8-2.2 1.3-4.6 1.9-6.9.1-.4-.3-.8-.7-.6-1.7.9-3.3 2-4.8 3.2-.3-3.6-2.6-7-4.2-10.1-.2-.3-.6-.4-.9-.1-1.5 2.4-2.6 5-3.3 7.7-.3-.5-.7-1-1.1-1.4-.8-.9-2.6-2.7-4-2.4-1.5.3-.8 2.8-.7 3.8.1 1.9.4 3.8.9 5.7-2 .2-3.8.7-5.6 1.5-1.9.9-2.5 1.5-.8 3 3.7 3.3 7.9 6.6 13.1 6.6.1.1.1.1.2.1.1.1.3.1.5.1.3 0 .5-.1.8-.3 5.8-1.1 10.9-4.5 15.7-7.9 1.9-1.5-.5-2.3-2-2.5z"/><path class="st6" d="M410.4 357.8c-1.4-.2-2.9-.2-4.4.3-.2 0-.4.1-.6.2.8-2.2 1.3-4.6 1.9-6.9.1-.4-.3-.8-.7-.6-1.7.9-3.3 2-4.8 3.2-.3-3.6-2.6-7-4.2-10.1-.2-.3-.6-.4-.9-.1-1.5 2.4-2.6 5-3.3 7.7-.3-.5-.7-1-1.1-1.4-.8-.9-2.6-2.7-4-2.4-1.5.3-.8 2.8-.7 3.8.1 1.9.4 3.8.9 5.7-2 .2-3.8.7-5.6 1.5-1.9.9-2.5 1.5-.8 3 3.7 3.3 7.9 6.6 13.1 6.6.1.1.1.1.2.1.1.1.3.1.5.1.3 0 .5-.1.8-.3 5.8-1.1 10.9-4.5 15.7-7.9 1.9-1.5-.5-2.3-2-2.5zm-25.4 5.1c-.8-.6-1.8-1.3-2.4-2.1-.4-.4-.5-.3-.2-.8.2-.3.9-.5 1.2-.6 1.6-.7 3.4-1.2 5.2-1.3 0 .1 0 .1.1.2.7 2.4 1.8 4.7 3.3 6.7-2.2-1.1-4.2-2.6-5.8-4.6-.1-.1-.5 0-.4.1 1.8 2.2 4 3.8 6.5 4.9.5.6 1 1.2 1.5 1.7-3.4-.2-6.4-2-9-4.2zm10.6 3.8c-1.6-4.3-3-8.6-4.4-13-.1-.2-.5-.1-.4.1 1.4 4.4 2.9 8.8 4.5 13.2 0 .1.1.1.2.1l-.1.1c-.4-.4-.9-.8-1.3-1.2 0 0 0-.1-.1-.1-1.6-1.8-2.9-3.9-3.7-6.2-.3-.7-.5-1.4-.6-2.1 0-.1 0-.1-.1-.2-.2-.9-.4-1.9-.6-2.9-.1-.9-.2-1.7-.3-2.6 0-.5-.1-1.1-.1-1.6 0-.6-.3-1.1.3-1.2 1.4-.4 3.3 2.3 3.9 3.3.9 1.4 1.5 3.1 1.9 4.7.3 1.2.6 2.6.8 3.9v.2c.4 1.8.5 3.7.1 5.5zm1.2-7.8V357c0-.8 0-1.6.1-2.3.1-1.5.2-3.1.4-4.6 0-.2-.4-.2-.4 0-.2 1.8-.4 3.6-.5 5.4 0 .8-.1 1.6-.1 2.4 0 .4-.1.9 0 1.3-.3-1.5-.7-2.9-1.2-4.2-.3-.7-.6-1.5-.9-2.2.5-2.7 1.5-5.3 2.9-7.7 1.6 3 3.7 6.3 3.7 9.7-1.5 1.3-2.8 2.8-4 4.4v-.3zm-.3 8.3c.1-.5.2-1.1.3-1.7 2.2-2.6 4.3-5.3 6.1-8.2.1-.2-.3-.2-.4-.1-1.7 2.7-3.6 5.2-5.7 7.6.1-1.3 0-2.6-.2-3.9 1.4-2.1 3-3.9 4.8-5.5.1 0 .2-.1.3-.3 1.3-1.1 2.8-2.2 4.3-3.1-.5 2.2-1 4.5-1.9 6.6-.2.1-.3.3-.4.5v.3c-.2.5-.5.9-.8 1.4-.9 1.4-2.1 2.6-3.4 3.7-.6.5-1.1.9-1.7 1.4 0 .2-.8.9-1.3 1.3zm14.8-7.3c-.4.3-.7.5-1.1.8-1 .7-2 1.3-2.9 2-2.7 1.7-5.6 3.3-8.7 4.2l.1-.1c.8-.6 1.6-1.3 2.4-2 2.2-1.6 4.5-3.1 6.8-4.4.2-.1-.2-.1-.3-.1-1.9 1.1-3.7 2.2-5.5 3.5.3-.3.6-.6.9-1 .7-.9 1.3-1.9 1.8-2.9.1-.1.2-.1.2-.2v-.2c.6-.5 2.9-.7 3.4-.7.9 0 2.6-.1 3.3.5.1 0 .3.1.4.1-.3 0-.6.3-.8.5z"/><path class="st4" d="M100.2 369.5c-1.4-.2-2.9-.2-4.4.3-.2 0-.4.1-.6.2.8-2.2 1.3-4.6 1.9-6.9.1-.4-.3-.8-.7-.6-1.7.9-3.3 2-4.8 3.2-.3-3.6-2.6-7-4.2-10.1-.2-.3-.6-.4-.9-.1-1.5 2.4-2.6 5-3.3 7.7-.3-.5-.7-1-1.1-1.4-.8-.9-2.6-2.7-4-2.4-1.5.3-.8 2.8-.7 3.8.1 1.9.4 3.8.9 5.7-2 .2-3.8.7-5.6 1.5-1.9.9-2.5 1.5-.8 3 3.7 3.3 7.9 6.6 13.1 6.6.1.1.1.1.2.1.1.1.3.1.5.1.3 0 .5-.1.8-.3 5.8-1.1 10.9-4.5 15.7-7.9 2-1.5-.5-2.3-2-2.5z"/><path class="st3" d="M100.2 369.5c-1.4-.2-2.9-.2-4.4.3-.2 0-.4.1-.6.2.8-2.2 1.3-4.6 1.9-6.9.1-.4-.3-.8-.7-.6-1.7.9-3.3 2-4.8 3.2-.3-3.6-2.6-7-4.2-10.1-.2-.3-.6-.4-.9-.1-1.5 2.4-2.6 5-3.3 7.7-.3-.5-.7-1-1.1-1.4-.8-.9-2.6-2.7-4-2.4-1.5.3-.8 2.8-.7 3.8.1 1.9.4 3.8.9 5.7-2 .2-3.8.7-5.6 1.5-1.9.9-2.5 1.5-.8 3 3.7 3.3 7.9 6.6 13.1 6.6.1.1.1.1.2.1.1.1.3.1.5.1.3 0 .5-.1.8-.3 5.8-1.1 10.9-4.5 15.7-7.9 2-1.5-.5-2.3-2-2.5zm-25.4 5.1c-.8-.6-1.8-1.3-2.4-2.1-.4-.4-.5-.3-.2-.8.2-.3.9-.5 1.2-.6 1.6-.7 3.4-1.2 5.2-1.3 0 .1 0 .1.1.2.7 2.4 1.8 4.7 3.3 6.7-2.2-1.1-4.2-2.6-5.8-4.6-.1-.1-.5 0-.4.1 1.8 2.2 4 3.8 6.5 4.9.5.6 1 1.2 1.5 1.7-3.4-.3-6.3-2.1-9-4.2zm10.6 3.8c-1.6-4.3-3-8.6-4.4-13-.1-.2-.5-.1-.4.1 1.4 4.4 2.9 8.8 4.5 13.2 0 .1.1.1.2.1l-.1.1c-.4-.4-.9-.8-1.3-1.2 0 0 0-.1-.1-.1-1.6-1.8-2.9-3.9-3.7-6.2-.3-.7-.5-1.4-.6-2.1 0-.1 0-.1-.1-.2-.2-.9-.4-1.9-.6-2.9-.1-.9-.2-1.7-.3-2.6 0-.5-.1-1.1-.1-1.6 0-.6-.3-1.1.3-1.2 1.4-.4 3.3 2.3 3.9 3.3.9 1.4 1.5 3.1 1.9 4.7.3 1.2.6 2.6.8 3.9v.2c.5 1.8.5 3.7.1 5.5zm1.3-7.8v-1.9c0-.8 0-1.6.1-2.3.1-1.5.2-3.1.4-4.6 0-.2-.4-.2-.4 0-.2 1.8-.4 3.6-.5 5.4 0 .8-.1 1.6-.1 2.4 0 .4-.1.9 0 1.3-.3-1.5-.7-2.9-1.2-4.2-.3-.7-.6-1.5-.9-2.2.5-2.7 1.5-5.3 2.9-7.7 1.6 3 3.7 6.3 3.7 9.7-1.5 1.3-2.8 2.8-4 4.4v-.3zm-.4 8.3c.1-.5.2-1.1.3-1.7 2.2-2.6 4.3-5.3 6.1-8.2.1-.2-.3-.2-.4-.1-1.7 2.7-3.6 5.2-5.7 7.6.1-1.3 0-2.6-.2-3.9 1.4-2.1 3-3.9 4.8-5.5.1 0 .2-.1.3-.3 1.3-1.1 2.8-2.2 4.3-3.1-.5 2.2-1 4.5-1.9 6.6-.2.1-.3.3-.4.5v.3c-.2.5-.5.9-.8 1.4-.9 1.4-2.1 2.6-3.4 3.7-.6.5-1.1.9-1.7 1.4 0 .1-.7.8-1.3 1.3zm14.8-7.4c-.4.3-.7.5-1.1.8-1 .7-2 1.3-2.9 2-2.7 1.7-5.6 3.3-8.7 4.2l.1-.1c.8-.6 1.6-1.3 2.4-2 2.2-1.6 4.5-3.1 6.8-4.4.2-.1-.2-.1-.3-.1-1.9 1.1-3.7 2.2-5.5 3.5.3-.3.6-.6.9-1 .7-.9 1.3-1.9 1.8-2.9.1-.1.2-.1.2-.2v-.2c.6-.5 2.9-.7 3.4-.7.9 0 2.6-.1 3.3.5.1 0 .3.1.4.1-.2.1-.5.3-.8.5z"/><path class="st4" d="M276.7 331.8c-2.3-.5-4.7-.4-7 .2-.3.1-.6.1-1 .2 1.4-3.5 2.3-7.3 3.4-11 .2-.6-.4-1.3-1.1-1-2.8 1.4-5.5 3-7.9 4.9-.3-5.8-3.8-11.3-6.2-16.4-.3-.5-1-.6-1.4-.1-2.6 3.8-4.5 7.9-5.7 12.3-.5-.8-1.1-1.6-1.7-2.3-1.3-1.5-4.1-4.5-6.3-4.1-2.4.5-1.5 4.4-1.4 6.1.1 3.1.5 6.2 1.1 9.2-3.2.2-6.2.9-9.1 2.1-3.1 1.3-4.1 2.2-1.5 4.7 5.8 5.6 12.3 11 20.7 11.3.1.1.2.1.3.2.2.2.5.2.8.1.4 0 .9-.2 1.3-.4 9.4-1.6 17.8-6.7 25.6-12 3.3-2.1-.5-3.5-2.9-4z"/><path class="st6" d="M276.7 331.8c-2.3-.5-4.7-.4-7 .2-.3.1-.6.1-1 .2 1.4-3.5 2.3-7.3 3.4-11 .2-.6-.4-1.3-1.1-1-2.8 1.4-5.5 3-7.9 4.9-.3-5.8-3.8-11.3-6.2-16.4-.3-.5-1-.6-1.4-.1-2.6 3.8-4.5 7.9-5.7 12.3-.5-.8-1.1-1.6-1.7-2.3-1.3-1.5-4.1-4.5-6.3-4.1-2.4.5-1.5 4.4-1.4 6.1.1 3.1.5 6.2 1.1 9.2-3.2.2-6.2.9-9.1 2.1-3.1 1.3-4.1 2.2-1.5 4.7 5.8 5.6 12.3 11 20.7 11.3.1.1.2.1.3.2.2.2.5.2.8.1.4 0 .9-.2 1.3-.4 9.4-1.6 17.8-6.7 25.6-12 3.3-2.1-.5-3.5-2.9-4zm-41.1 7c-1.2-1.1-2.8-2.2-3.8-3.5-.5-.7-.8-.5-.2-1.3.3-.4 1.4-.7 1.9-.9 2.7-1.1 5.5-1.7 8.4-1.9 0 .1 0 .2.1.3 1 3.9 2.6 7.7 4.9 11-3.5-1.9-6.6-4.4-9-7.6-.1-.2-.8 0-.6.2 2.7 3.6 6.2 6.4 10.2 8.3.7 1 1.5 1.9 2.3 2.8-5.4-.7-10.1-3.8-14.2-7.4zm16.8 6.7c-2.3-7-4.4-14.1-6.4-21.2-.1-.3-.7-.2-.6.1 2 7.2 4.2 14.4 6.5 21.5 0 .1.2.2.3.2-.1 0-.1.1-.1.1-.7-.6-1.3-1.3-2-2 0-.1 0-.1-.1-.1h-.1c-2.5-3-4.4-6.5-5.7-10.2-.4-1.1-.7-2.2-.9-3.4 0-.1 0-.2-.1-.3-.3-1.5-.6-3.1-.8-4.6-.2-1.4-.3-2.8-.4-4.2 0-.9-.1-1.7-.1-2.6 0-.9-.4-1.7.6-2 2.2-.6 5.2 3.9 6.2 5.5 1.4 2.4 2.3 5 2.9 7.6.4 2 .9 4.2 1.2 6.3v.3c.3 3 .3 6.1-.4 9zm2.4-12.5v-.6c0-.8 0-1.6.1-2.4.1-1.2.1-2.5.3-3.7.2-2.5.5-5 .9-7.4.1-.3-.6-.3-.6 0-.5 2.9-.8 5.8-1 8.7-.1 1.3-.2 2.5-.2 3.8 0 .6-.2 1.4-.1 2.2-.4-2.4-1-4.8-1.7-6.9-.4-1.2-.9-2.4-1.4-3.5 1-4.4 2.7-8.5 5.1-12.3 2.5 4.9 5.7 10.2 5.5 15.8-2.4 2-4.7 4.3-6.7 6.8-.2-.3-.2-.4-.2-.5zm-1 13.3c.3-.9.4-1.8.6-2.7 3.7-4 7.1-8.3 10.2-12.8.2-.3-.4-.4-.6-.2-2.8 4.3-6 8.3-9.5 12 .2-2.1.2-4.2-.1-6.3 2.3-3.2 5-6.1 8-8.6.2 0 .4-.2.5-.4 2.2-1.8 4.6-3.4 7.1-4.7-1 3.5-1.8 7.2-3.4 10.6-.3.2-.5.5-.6.8v.4c-.4.7-.8 1.5-1.3 2.2-1.6 2.2-3.5 4-5.6 5.7-.9.7-1.9 1.4-2.8 2.1-.3.1-1.5 1.2-2.5 1.9zm24.2-11.1-1.8 1.2c-1.6 1-3.2 2.1-4.8 3-4.5 2.7-9.2 5-14.2 6.3.1 0 .1-.1.2-.1 1.4-1 2.7-2 3.9-3.1 3.6-2.5 7.4-4.7 11.2-6.8.3-.2-.3-.2-.5-.1-3.1 1.6-6.1 3.4-9.1 5.3l1.5-1.5c1.3-1.4 2.2-2.9 3.1-4.5.1-.1.3-.2.3-.4v-.4c1.1-.8 4.6-1 5.4-1 1.5 0 4.1 0 5.3 1 .2.1.5.1.7.2-.3.3-.8.6-1.2.9z"/><path class="st4" d="M255 328.1c-1.9.3-3.6 1-5.2 2.1-.2.1-.4.3-.6.4.1-3-.3-6.1-.5-9.1 0-.5-.7-.9-1.1-.4-1.7 1.8-3.3 3.8-4.6 5.8-1.8-4.3-5.9-7.4-9.2-10.5-.3-.3-.9-.2-1.1.3-.9 3.5-1.2 7.1-.9 10.7-.6-.5-1.2-.9-1.9-1.3-1.4-.8-4.3-2.2-5.8-1.3-1.6 1 .1 3.7.6 4.9 1 2.3 2.1 4.5 3.4 6.6-2.3 1-4.4 2.4-6.2 4.1-1.9 1.8-2.5 2.8.2 4 5.9 2.6 12.2 4.8 18.6 2.8h.3c.2.1.4 0 .6-.1.3-.1.6-.4.9-.6 6.6-3.8 11.5-9.9 15.8-16 2-2.7-1.3-2.7-3.3-2.4z"/><path class="st6" d="M255 328.1c-1.9.3-3.6 1-5.2 2.1-.2.1-.4.3-.6.4.1-3-.3-6.1-.5-9.1 0-.5-.7-.9-1.1-.4-1.7 1.8-3.3 3.8-4.6 5.8-1.8-4.3-5.9-7.4-9.2-10.5-.3-.3-.9-.2-1.1.3-.9 3.5-1.2 7.1-.9 10.7-.6-.5-1.2-.9-1.9-1.3-1.4-.8-4.3-2.2-5.8-1.3-1.6 1 .1 3.7.6 4.9 1 2.3 2.1 4.5 3.4 6.6-2.3 1-4.4 2.4-6.2 4.1-1.9 1.8-2.5 2.8.2 4 5.9 2.6 12.2 4.8 18.6 2.8h.3c.2.1.4 0 .6-.1.3-.1.6-.4.9-.6 6.6-3.8 11.5-9.9 15.8-16 2-2.7-1.3-2.7-3.3-2.4zm-28.7 16.5c-1.2-.5-2.7-.9-3.8-1.6-.6-.4-.7-.1-.5-.9.1-.4.9-.9 1.2-1.2 1.7-1.6 3.7-2.8 5.8-3.7 0 .1.1.1.1.2 1.8 2.7 4.1 5 6.7 6.9-3.1-.4-6.1-1.5-8.8-3.2-.2-.1-.6.2-.4.3 3 1.9 6.4 3 9.9 3.4.8.5 1.6 1 2.5 1.4-4.3.9-8.7-.1-12.7-1.6zm14.3.4c-3.6-4.6-7.2-9.3-10.6-14-.1-.2-.6.1-.5.2 3.5 4.8 7.1 9.6 10.8 14.2.1.1.2.1.3 0l-.1.1c-.7-.3-1.4-.6-2-1 0 0 0-.1-.1-.1h-.1c-2.7-1.5-5.1-3.6-7-6.1-.6-.7-1.1-1.5-1.6-2.3 0-.1-.1-.2-.1-.2-.7-1.1-1.3-2.1-1.9-3.2-.5-1-1-2-1.4-3-.3-.6-.5-1.3-.8-1.9-.3-.7-.8-1.2-.1-1.7 1.5-1 5 1.5 6.1 2.4 1.7 1.4 3.1 3.1 4.2 4.9.9 1.4 1.8 2.9 2.6 4.4 0 .1.1.2.1.2 1.2 2.4 2 4.7 2.2 7.1zm-1.6-10c-.1-.2-.1-.3-.2-.5l-.6-1.8c-.3-.9-.6-1.9-.8-2.9-.5-1.9-1-3.9-1.4-5.8-.1-.3-.5-.1-.5.2.5 2.3 1 4.5 1.6 6.8.3 1 .6 1.9.9 2.9.1.5.3 1.1.5 1.6-1-1.7-2.1-3.3-3.2-4.7-.6-.8-1.3-1.6-2-2.3-.5-3.6-.3-7.1.4-10.6 3.2 3 7.1 6.1 8.4 10.3-1.3 2.2-2.3 4.5-3.1 6.9.1 0 0-.1 0-.1zm2.9 10.2c0-.7-.2-1.5-.3-2.2 1.7-4 3.1-8.2 4.1-12.4.1-.3-.4-.2-.5 0-1 4-2.2 7.8-3.8 11.6-.4-1.6-1-3.2-1.8-4.7.8-3.1 2.1-6 3.6-8.7.1-.1.2-.2.3-.4 1.2-1.9 2.5-3.8 4-5.5.3 2.9.6 5.9.4 8.8-.1.2-.2.5-.2.8 0 .1 0 .2.1.3-.1.7-.2 1.3-.4 2-.6 2.1-1.5 4-2.6 5.8l-1.5 2.4c-.2.2-.8 1.4-1.4 2.2zm15-15c-.3.5-.7.9-1 1.3-.9 1.2-1.8 2.4-2.8 3.6-2.6 3.2-5.5 6.2-8.9 8.6l.1-.1c.7-1.1 1.5-2.2 2.1-3.4 2-2.8 4.2-5.6 6.5-8.2.2-.2-.3 0-.4.1-1.9 2.1-3.6 4.2-5.3 6.5.2-.5.5-1 .7-1.5.5-1.4.9-2.8 1.1-4.2.1-.1.1-.2.1-.4V332.2c.6-.9 3.2-2 3.8-2.3 1.1-.4 3.1-1.1 4.2-.7h.6c-.2.3-.5.7-.8 1z"/><path class="st4" d="M349.3 311.4c-1.2 8-5.7 15.3-12.5 19.9-.2-.1-.5 0-.7.2-2-.8-3-3.3-4.2-5.1-1-1.4-2.2-2.3-3.8-3-.3-.1-.6-.3-.9-.4 8.2-2 15.7-6 22.1-11.6zM285.6 315.3c-.3-4.2-.2-9.5 2.1-13.3.3.9.2 2.7.3 3.4.1.9.3 1.8.5 2.6.5 2 1.2 3.9 2.2 5.7 1.8 2.9 4.5 5.1 7.7 6.1-2.6 2.2-4.7 4.7-6.4 7.6-4.2-2.6-6.1-7.4-6.4-12.1zM335.3 344.2c-.9 1.3-2.4 3.9-4 4.6-1.6.7-2.2-.8-3.6-.6-2.8.4-2.5 4.2-3.4 6.1-1.6 3.4-5.1 6.1-7.9 8.6-1 .8-4.2 4.3-5.3 3.3-.1-.1-.2-.9-.3-1.1-.2-.3-.5-.6-.8-.8-1.6-1.1-3.7-.5-4.9.9-.8 1-1.2 2.2-1.6 3.4-.5 1.6-.9 1.9-2.7 2-1 .1-2.2 0-3.2-.1-2.1 0-4.2 0-6.2-.1-1.2-.1-4-.7-4.8-2 .1-.1.1-.2.1-.3.1-.6.2-1.3.3-1.9.2-.2.2-.4.1-.6 1-3.4 2.9-6.4 3.3-9.9.5-4.5-1.5-9-1.5-13.5.1-8.6 4.2-16.9 11-22.2.2-.2.2-.3.2-.5 1.6-1.3 3.5-2 5.5-2.1 2.1-.1 3.7.8 5.6 1.6 3.3 1.4 6.9-.1 10.2 1 1.7.6 2.4 2.4 3.8 3.4 1.8 1.2 3.9 1.5 5.2 3.2 1.9 2.4 2.9 5.8 6.3 6.3 3 3.3.7 8.1-1.4 11.3z"/><path class="st6" d="M350.7 309.9c.1-.6-.7-.8-1.1-.4-6.7 6.3-15 10.7-24 12.7l-.3-.3c-.7-.7-1.1-1.5-1.9-2.1-1.1-.9-2.5-1.2-3.9-1.3-1.9-.1-3.8.2-5.7 0-2-.3-3.7-1.5-5.6-2-3.2-.7-6.5.2-9 2.3h-.1c-4.4-1.2-7.5-4.7-8.9-8.9-.7-2.1-1-4.3-1.2-6.5-.1-1.1 0-2.2-1.1-2.8-.3-.2-.7 0-.8.2-3.1 4.2-3.3 11.1-2.6 16.1.6 4.7 2.8 9.1 6.9 11.7-2 3.7-3.2 7.7-3.5 11.9-.2 2-.1 4 .2 6 .4 2.8 1.4 5.5 1.3 8.4-.1 3.9-2.3 7.3-3.4 10.9-1 1.4-.8 3.3.5 4.5 2 2 5.8 1.6 8.3 1.6 2 0 4 .1 6 .1 1 0 2.1.1 2.9-.7.8-.9.9-2.3 1.3-3.3s.9-1.9 1.8-2.5c.5-.3.9-.4 1.6-.3 1.1.2 1.1.6 1.5 1.7.7 2.3 2.6.8 3.9-.2 2.9-2.3 5.8-4.7 8.3-7.4 2.3-2.4 3.5-4.6 4.3-7.7.1-.4.2-1 .4-1.3 2-2.4 1.5-.5 2.3-.1.3.1.5.4.8.4 1.3.3 2.3-.8 3.1-1.6 3.7-3.7 9.1-11.6 5-16.6 0-.1 0-.2-.1-.3 7.3-5.2 12-13.3 12.8-22.2zm-65.1 5.4c-.3-4.2-.2-9.5 2.1-13.3.3.9.2 2.7.3 3.4.1.9.3 1.8.5 2.6.5 2 1.2 3.9 2.2 5.7 1.8 2.9 4.5 5.1 7.7 6.1-2.6 2.2-4.7 4.7-6.4 7.6-4.2-2.6-6.1-7.4-6.4-12.1zm49.7 28.9c-.9 1.3-2.4 3.9-4 4.6-1.6.7-2.2-.8-3.6-.6-2.8.4-2.5 4.2-3.4 6.1-1.6 3.4-5.1 6.1-7.9 8.6-1 .8-4.2 4.3-5.3 3.3-.1-.1-.2-.9-.3-1.1-.2-.3-.5-.6-.8-.8-1.6-1.1-3.7-.5-4.9.9-.8 1-1.2 2.2-1.6 3.4-.3.9-.6 1.4-1.1 1.7-.1-.1-.3-.1-.5-.1-.7-.1-1.3-.3-2-.4v-1.3c0-.6.1 0-.1-.9 0-.3-.8-.1-.8.2v1c-1.1 1.7-2 2-2.7.7-.7-.8-.6-1-.5-2 0-.3-.7-.1-.8.1-.3 1.1-.9 3.2-2.7 2.6-1.5-.5-.7-2-.4-3 .1-.3-.7-.1-.8 0-.3.4-.3.8-.6 1.1-1.5 1.9-2.7 1.6-3.5-.1-.1-.1-.2-.1-.4-.1v-.1c.1-.6.2-1.3.3-1.9.2-.2.2-.4.1-.6 1-3.4 2.9-6.4 3.3-9.9.5-4.5-1.5-9-1.5-13.5.1-8.6 4.2-16.9 11-22.2.2-.2.2-.3.2-.5 1.6-1.3 3.5-2 5.5-2.1 2.1-.1 3.7.8 5.6 1.6 3.3 1.4 6.9-.1 10.2 1 1.7.6 2.4 2.4 3.8 3.4 1.8 1.2 3.9 1.5 5.2 3.2 1.9 2.4 2.9 5.8 6.3 6.3 3.1 3.4.8 8.2-1.3 11.4zm1.5-12.9c-.2-.1-.5 0-.7.2-2-.8-3-3.3-4.2-5.1-1-1.4-2.2-2.3-3.8-3-.3-.1-.6-.3-.9-.4 8.2-2.1 15.7-6 22.1-11.6-1.2 8.1-5.8 15.3-12.5 19.9z"/><path class="st3" d="M324.1 335.8c-.2-4.4-3.6-8-8.1-8-4.4 0-8.2 3.7-8.2 8.2 0 4.4 3.7 8.2 8.2 8.2 4.5 0 7.9-3.6 8.1-8v-.4zm-6.5 2.8c.5-.9.9-2 .9-3.1 0-.2 0-.3-.1-.4 0-.2.1-.4.1-.6 0 1.6-.3 3.1-1.2 4.5.2-.1.2-.3.3-.4zm-1.7-9.8c.3 0 .6 0 .9.1-.1.2-.1.3.1.5l.1.1c-.1.1-.1.1-.1.2-.3-.4-.7-.8-1.2-.9h.2zm.3 9.5c0 .1-.1.2-.1.3-.2.3-.4.5-.6.7.3-.4.5-.7.7-1zm-5.9-4.3c0 .1-.1.2-.1.3-.1.1-.2.2-.2.4v.1h-.2c.2-.4.4-.6.5-.8 0-.1 0-.1 0 0zm-.9-1c.6-1.2 1.5-2.3 2.6-3-1 .9-1.9 2.1-2.6 3zm3.1-1.5.3-.3v.3c-.1 0-.1.1-.2.1 0-.1 0-.1-.1-.1zm.8 10.4c-.2-.1-.4-.1-.5-.3.1-.1.1-.2.2-.3h.4c0 .1 0 .3-.1.4v.2zm2.1 1.1c1.8-1 3.3-3.6 3.9-5.2 1-2.9.5-6.1-1.1-8.6.7.3 1.4.6 2 1.1v.2c1.2 4.1.6 8.4-1.8 11.9 0 .1-.1.1-.1.2-.7.3-1.5.4-2.4.4h-.5zm4.2-1c1.9-3.2 2.5-7 1.7-10.6 1 1.2 1.7 2.9 1.7 4.6-.1 2.5-1.4 4.7-3.4 6z"/><path class="st3" d="M315 346.9c-5.5-1.4-9-6.2-8.7-11.9 0-.4-.8-.2-.8.1-.4 5.9 3.3 10.9 9 12.3.3.1.9-.4.5-.5zM320.8 353.4c-1.1 1.2-1.9 2.7-2.8 4-1.3 1.9-2.8 3.2-4.7 4.5-.3.2.5.1.6 0 1.4-1 2.9-1.9 4-3.3 1.4-1.7 2.2-3.7 3.7-5.3.1-.1-.6 0-.8.1zM325.8 347.6c-.2 0-.4 0-.6.2-.3.3-.6.5-.9.8-.1.1-.1.2.1.3.2 0 .4 0 .6-.2.3-.3.6-.5.9-.8.1-.2 0-.3-.1-.3zM335.1 341.4c-.5 2.1-1.7 3.8-3.4 5.1-.4.3.4.3.6.1 1.8-1.3 3-3.2 3.6-5.3.1-.3-.7-.1-.8.1zM299.3 359.3c-.7-1.5-.9-2.9-1-4.5 0-1 .3-2.3-.3-3.3s-2-1.1-3-.7c-1.6.7-2.1 2.4-2.3 3.9-.5 3.1-1.2 5.9-2.8 8.6-.1 0-.3 0-.4.1-1 .6-.5 1.6.5 1.9 2.2.6 4.4-.6 6.5-.4 1.3.1 2.7 1.5 3.9.1 1.4-1.7-.5-4.2-1.1-5.7zM290.9 322.9c-2.1-1.7-3.2-4.3-2.8-7 0-.2-.8-.1-.8.1-.4 2.8.6 5.4 2.8 7.2.2.1.9-.2.8-.3zM335.7 327.9c-2-.9-2.4-4.1-4.9-4.2-.2 0-.9.3-.5.3 2.2.1 2.8 3.4 4.7 4.2.3.1 1-.2.7-.3zM306.6 344.7c-1.3-1.8-2.1-3.8-2.4-5.9 0-.3-.8-.1-.8.2.3 2.2 1.2 4.3 2.5 6.1.2.2.9-.1.7-.4zM298.2 346.5l-.3-.3c-.2-.2-.9.1-.7.3l.3.3c.1.2.9-.1.7-.3zM302.2 358.8c-1-1.2-1.6-2.7-1.6-4.3 0-.4-.8-.3-.8 0 0 1.7.6 3.3 1.7 4.6.2.4.9 0 .7-.3zM298.3 325c-4.2 4.4-7 9.7-8.2 15.7 0 .1.8 0 .8-.2 1.1-5.9 3.9-11.3 8.1-15.6.2-.1-.5 0-.7.1zM310.5 320.7c-1.5-1-3.3-1.4-5.1-1.2-.2 0-.9.4-.4.3 1.7-.2 3.3.2 4.7 1.2.2.1.9-.3.8-.3zM344.2 319.9c-1 1.2-1.9 2.4-2.9 3.7-.2.3.6.2.7 0 1-1.2 1.9-2.4 2.9-3.7.3-.2-.5-.2-.7 0zM336.9 322.2l-.5.5c-.3.3.5.3.6.1l.5-.5c.3-.3-.4-.3-.6-.1z"/><path id="XMLID_40_" class="st3" d="m263.1 111.4 1.8-1.7 7.6-7.7H258.4l-14.2 14.1V102h-9.1v37.4h9.1v-14.1l28.3 28.2v-14.1l-18.8-18.6z"/></g></svg>