<svg version="1.1" id="bffbd0e8-c318-47ff-a00e-27da9c50196d" xmlns="http://www.w3.org/2000/svg" x="0" y="0" viewBox="0 0 834.6 583.6" style="enable-background:new 0 0 834.6 583.6" xml:space="preserve"><style>.st0{fill:#65657c}.st2{fill:#55536e}.st3{fill:#a0616a}.st4{fill:#797bf2}.st6{opacity:.2;enable-background:new}</style><path class="st0" d="M0 559.4h606.1v2H0z"/><path style="fill:#819bc1" d="M176.2 535h34.9l22.3-195.3L274.5 535H298V302.1l-112-33.5z"/><path class="st2" d="m287.4 563.9 32.7 6c4.5.6 8.7-2.5 9.5-7 .6-3.5-1-7-4.1-8.9l-12.9-7.6-14.6-21.2-25.3 4.9v17c0 8.5 6.3 15.7 14.7 16.8zM198.1 583.6c9.6-.2 17.2-8.2 17-17.8 0-.5 0-1-.1-1.5l-3.6-32.6h-31.1v34.5c0 9.6 7.8 17.4 17.4 17.4h.4z"/><circle class="st3" cx="235.7" cy="60.3" r="30.4"/><path class="st3" d="M208.1 123.1h55.6c-7.7-13.9-12.5-27.7-9.8-41.7h-36.8c.7 10.4-3.7 25.7-9 41.7z"/><path class="st4" d="M188.5 273.5C221.1 299 257.2 311.9 298 307c-17.2-60.5-22.3-120.6-5.7-179.8L258 111.6l-46.6-2.5-28 8.2c-8.1 2.4-13.6 9.9-13.5 18.4 1 50.6 5.6 97.9 18.6 137.8z"/><path class="st3" d="M302 355.1c7 .4 13-5 13.4-12.1.1-1.1 0-2.2-.2-3.2l-5.7-28h-13.9l-5.4 28.1c-1.3 6.9 3.2 13.6 10.1 14.9.5.2 1.1.3 1.7.3zM208 313.8c5.9-3.9 7.5-11.8 3.6-17.7-.6-.9-1.3-1.7-2.1-2.4l-21.2-19.1-11.2 8.3 12.4 25.8c3 6.3 10.7 9 17 6l1.5-.9z"/><path class="st4" d="m178.7 289 13.1-12.3-14.8-66.2 7.8-93.6c-16.9 5.3-35 19.5-38 37l-10.7 62.3 42.6 72.8zM291.5 311.9l21.2 2.5-5-157.8c-.5-14.4-9.3-27.2-22.6-32.7l-7.6-3.2 2 74 12 117.2z"/><path d="M206.6 45c2.9-5.5 6.6-16.5 12.6-18.6 3.3-1.1 6.7-1.8 10.1-2.2l10 3.9-5.5-4.3c1.1-.1 2.1-.1 3.2-.2l6.8 2.6-3.5-2.7c6.3-.1 12.8.6 17.7 4.4 4.2 3.3 8.3 15.7 9 21 .7 5 .5 10.2-.7 15.1l-1.7 1.6c-.6-1.4-1.1-2.8-1.3-4.3-1.2-5.6-4.8-10.3-9.7-13.2l-.1-.1c-2.9-1.6-6.4-1.5-9.7-1.4l-15.7.6c-3.8.1-7.8.4-10.8 2.7-2 1.6-3.2 4-4.3 6.2-1.5 2.9-4.3 14.1-4.3 14.1s-1.6-2.1-2.4-.5c-1.2-4.1-2-8.3-2.2-12.5-.3-4.1.6-8.4 2.5-12.2z" style="fill:#ff227d"/><path class="st6" d="m178.3 175-10.7 42.5 24.2 60.3-18.4-57zM283.5 197l8.2 91.1-13.9-90.4z"/><circle class="st0" cx="584.7" cy="334.8" r="9.8"/><circle class="st0" cx="625.7" cy="334.8" r="9.8"/><circle class="st0" cx="666.7" cy="334.8" r="9.8"/><path class="st0" d="M827.4 0H522c-4 0-7.2 3.2-7.2 7.2v41.6h2.9V7.2c0-2.4 1.9-4.3 4.3-4.3h305.5c2.4 0 4.3 1.9 4.3 4.3v244.2c0 2.4-1.9 4.3-4.3 4.3h-42.3v2.9h42.3c4 0 7.2-3.2 7.2-7.2V7.2c-.1-4-3.3-7.2-7.3-7.2z"/><path class="st0" d="M778.4 46H473c-4 0-7.2 3.2-7.2 7.2v244.2c0 4 3.2 7.2 7.2 7.2h305.5c4 0 7.2-3.2 7.2-7.2V53.2c-.1-4-3.3-7.2-7.3-7.2zm4.4 251.4c0 2.4-1.9 4.3-4.3 4.3H473c-2.4 0-4.3-1.9-4.3-4.3V53.2c0-2.4 1.9-4.3 4.3-4.3h305.5c2.4 0 4.3 1.9 4.3 4.3v244.2z"/><path class="st4" d="M625.7 246.7c-39.5 0-71.5-32-71.5-71.5s32-71.5 71.5-71.5 71.5 32 71.5 71.5c-.1 39.5-32 71.5-71.5 71.5z"/><path d="M653.9 168.2h-21.1v-21.1c0-3.9-3.2-7-7.1-7-3.9 0-7 3.2-7 7v21.1h-21.1c-3.9 0-7 3.2-7 7.1 0 3.9 3.2 7 7 7h21.1v21.1c0 3.9 3.2 7 7.1 7 3.9 0 7-3.2 7-7v-21.1h21.1c3.9 0 7.1-3.1 7.1-7s-3.2-7.1-7.1-7.1z" style="fill:#fff"/><path class="st0" d="M108.4 499.7c-1.6-10-4.6-19.8-9-28.9l-.6-1.3-4.8 5.3 3.5-7.9-.2-.5c-3.1-6.2-6.6-12.2-10.4-18l-.7-1.1-.9 1 .7-1.3-.3-.5c-4.7-7-8.3-11.5-8.3-11.5l-1-1.3-.7 1.5c-.1.3-12 27.7-13.6 54.8v.4l8 9.7-8.2-5.1v1.9c0 3.2.2 6.4.6 9.5.4 2.7.8 5.4 1.3 8 .8 0 1.5.3 2.2.7-.6-2.9-1.1-5.9-1.5-8.9-.3-2.4-.5-4.9-.6-7.4l15.8 9.9-15.6-18.9c1.4-22.9 10.3-46 12.7-52.1 1.3 1.7 3.8 5.1 6.9 9.6l-5.5 12.2 7.8-8.6c3.4 5.3 6.5 10.7 9.3 16.3L86.9 486l11.4-12.6c4 8.5 6.7 17.6 8.2 26.9 2 15 1.6 29.5-1.1 40.7-2.6 10.7-7.1 17.3-12.5 18.1-1.1.2-2.2.1-3.3-.2-.9.6-1.9.9-3 .9h-.3c1.7.9 3.5 1.4 5.4 1.5.5 0 .9 0 1.4-.1 6.3-.9 11.3-7.9 14.2-19.6 2.8-11.8 3.2-26.6 1.1-41.9z"/><path class="st0" d="M90.8 560.2c-8.2 0-20.1-4.5-31.9-12.8-1.7-1.2-3.4-2.6-5-4l-1.3-1.2 5-1.4-6.6-.2-.3-.3c-12.5-13-20.2-31.5-20.3-31.6l-.6-1.5 1.6.1c.2 0 3.9.2 9.5 1h.4l1.2.2c4.6.7 9.1 1.7 13.6 2.9l.5.1 1.5 3.7-.2-3.3 1.4.4c6.5 1.9 12.7 4.7 18.3 8.5 17.9 12.5 27.8 28.2 22.6 35.7-1.8 2.5-5.1 3.7-9.4 3.7zm-34.1-17.1c1.1.9 2.2 1.8 3.4 2.6 16.4 11.5 34 15.8 38.5 9.5 4.4-6.3-5.7-21.4-22.1-32.9-5.1-3.4-10.6-6-16.4-7.8l.9 12.9-5.8-14.4c-3.8-1-7.8-1.9-11.7-2.5l.6 9.4-4-9.9c-3.1-.4-5.6-.7-7.1-.8 2.1 4.6 8.9 18.7 18.9 29.2l18.3.7-13.5 4z"/></svg>