<svg version="1.1" id="Layer_1" xmlns="http://www.w3.org/2000/svg" x="0" y="0" viewBox="0 0 898.2 629.9" style="enable-background:new 0 0 898.2 629.9" xml:space="preserve"><style>.st0{fill:#65657c}.st1{fill:#fff}.st2{fill:#2f2e41}.st3{fill:#ffb8b8}.st5{fill:#575a89}.st6{opacity:.3;enable-background:new}.st7{fill:#ff227d}.st8{fill:#48485b}.st9{fill:#797bf2}.st10{fill:#a0616a}</style><g id="Group_45" transform="translate(-191 -152.079)"><path id="Path_941" class="st0" d="M790.8 759.7s7.3-24.6-20.5-38.6l20.5 38.6z"/><path id="Path_942" class="st0" d="M791.7 759.8s2.9-24.2 35.2-25.8l-35.2 25.8z"/><path id="Path_943" class="st0" d="M1043.8 766.8c-5.1 21.1-274.8 19.4-274.4 0 5.2-21.1 274.8-19.4 274.4 0z"/><circle id="Ellipse_182" class="st1" cx="284.1" cy="208" r="4.4"/><circle id="Ellipse_183" class="st1" cx="300.6" cy="208" r="4.4"/><circle id="Ellipse_184" class="st1" cx="317.2" cy="208" r="4.4"/><path id="Rectangle_266" class="st1" d="M273.5 218.3h552.9v3.1H273.5z"/><path id="Path_953" class="st2" d="M986.3 659.2s-3.2-10.8 2-7.3 20.4 8.9 14.9 17.4-38.2 55.5-43.5 46.2c-2.9-5.2 7.3-49.1 7.3-49.1s7.3-1.7 8.3 0 11-7.2 11-7.2z"/><path id="Path_954" class="st3" d="m939.3 382.4-1 17.6-12.7 25.4 42.1-2-2.9-26.4 2-10.8-27.5-3.8z"/><path id="Path_955" d="M934.4 412.8s6.8 7.8 24.5-1l13.7 66.5 2 59.7-58.7-2 1-60.6 17.5-62.6z" style="fill:#d1d1d1"/><path id="Path_956" class="st3" d="M901.6 539.4s6.3 31 18.1 23.5-2.5-29.3-2.5-29.3l-15.6 5.8z"/><path id="Path_957" class="st3" d="m959.9 706.2-1 16.6 15.6 4.9v-22.5l-14.6 1z"/><path id="Path_958" class="st2" d="M908 532.1v97.8l55.7 47.9 13.7-23.5-39.1-32.3 9.8-24.5 41.1-26.4V533l-81.2-.9z"/><path id="Path_959" class="st2" d="m949.1 592.7 5.9 49.9 2 66.5h25.4s8.8-58.7-1-73.3l7.8-64.5-7.8-25.4-32.3 46.8z"/><path id="Path_960" class="st2" d="M971.6 721.8s1-3.9-5.9-3.9c-6.8 0-9.8 1-9.8 2-.2 1.6-.6 3.3-1 4.9 0 0-17.6 44 0 42.1s20.5-10.8 20.5-10.8l2-28.4s-2-2.4-2.9-2.2-2.9-3.7-2.9-3.7z"/><circle id="Ellipse_187" class="st3" cx="955" cy="370.7" r="21.5"/><path id="Path_961" class="st5" d="m958.9 418.6-6.8-7.8 13.2-16.6 5.3 5.8 31.3 13.7-8.8 86.1s-1 25.4 4.9 43c0 0-12.7 15.6-32.3 11.7l-25.4 4.9c0 .1-2.9-126.1 18.6-140.8z"/><path id="Path_962" class="st5" d="m937.4 413.7 1.1-16.3-5 6.5-26.5 19.6 2.9 108.6 8.8 4.9 14.7-116.4 4-6.9z"/><path id="Path_963" class="st5" d="m913.9 422.5-6.8 1s-4.9 8.8-4.9 9.8-2 51.8-2 51.8-3.4 51.3 2.4 61.1l17.3-18.6-6.1-17.1v-88z"/><path id="Path_964" class="st6" d="m954.5 638.2 1.3 32.7-4.1-3.5 2.8-29.2z"/><path id="Path_965" class="st6" d="m987 651.3-1.4.7-1.5 43.9 3.5-4.5-.6-40.1z"/><path id="Path_967" class="st3" d="M1015.6 543.8s-4.9 31.3 8.8 28.4c13.7-2.9 7.8-28.4 7.8-28.4h-16.6z"/><path id="Path_968" class="st5" d="M993.1 413.7h8.8s5.9 2.9 6.8 11.7 14.7 47.9 14.7 47.9 15.6 64.5 14.7 73.4h-24.5l2-17.6-26.4-70.4 3.9-45z"/><path id="Path_978" class="st7" d="m936.7 350-4.1-1.6s8.6-9.4 20.5-8.6l-3.4-3.7s8.2-3.3 15.7 5.3c3.9 4.5 8.5 9.9 11.3 15.9h4.4l-1.8 4 6.4 4-6.6-.7c.4 2.2.5 4.5.2 6.7s-1.4 4.3-3.2 5.7c0 0-5.1-10.5-5.1-12.2v4.1s-4.1-3.7-4.1-6.2l-2.2 2.9-1.1-4.5-13.8 4.5 2.2-3.7-8.6 1.2 3.4-4.5s-9.7 5.3-10.1 9.9c-.4 3.1-1.5 6.1-3.2 8.8 0 0-7.6-21.1 3.2-27.3z"/><path id="Rectangle_246" class="st8" d="M191.3 152.4h635.6v407.1H191.3z"/><path id="Rectangle_264" class="st9" d="M191 152.1h635.6v27H191z"/><path id="Rectangle_247" class="st0" d="M210 200.9h599.3v155.2H210z"/><path id="Rectangle_259" class="st0" d="M210.4 381.5h599.3v155.2H210.4z"/><g id="Group_31" transform="translate(412.34 235.194)"><path id="Rectangle_250" class="st8" d="M0 0h324.3v14.5H0z"/><path id="Rectangle_251" class="st8" d="M0 36.1h115.6v14.5H0z"/><path id="Rectangle_252" class="st8" d="M0 72.3h230.4v14.5H0z"/></g><g id="Group_30" transform="translate(282.246 224.353)"><path id="Path_944" class="st8" d="M108.3 54.2c0 10.5-3 20.8-8.8 29.6-1.2 1.9-2.5 3.6-4 5.3-3.4 4-7.3 7.4-11.6 10.3-1.2.8-2.4 1.5-3.6 2.2-6.5 3.6-13.7 5.8-21 6.5-1.7.2-3.4.2-5.1.2-4.7 0-9.4-.6-14-1.8-2.6-.7-5.1-1.6-7.6-2.6-1.3-.5-2.5-1.1-3.7-1.8-2.9-1.5-5.6-3.3-8.2-5.3-1.2-.9-2.3-1.9-3.4-2.9-21.9-20.3-23.2-54.6-2.9-76.5S69-5.9 91 14.4c11 10.3 17.3 24.7 17.3 39.8z"/><path id="Path_945" class="st3" d="M41 59.1s4.9 13.7 1.1 21.4 6 16.4 6 16.4 25.8-13.1 22.5-19.7-8.7-15.4-7.6-20.9l-22 2.8z"/><circle id="Ellipse_185" class="st3" cx="50.6" cy="46.7" r="17.5"/><path id="Path_946" class="st5" d="M40.2 106.5c-2.6-.7-5.1-1.6-7.6-2.6l.5-13.3 4.9-11c1.1.9 2.3 1.6 3.5 2.3.3.2.6.3.9.5 4.6 2.2 12.2 4.2 19.5-1.3 2.7-2.1 5-4.7 6.7-7.6l13.7 7.7.7 8.4.8 9.8c-1.2.8-2.4 1.5-3.6 2.2-6.5 3.6-13.7 5.8-21 6.5-1.7.2-3.4.2-5.1.2-4.7 0-9.4-.6-13.9-1.8z"/><path id="Path_947" class="st5" d="m43.6 71.4-.7 7.2-.4 3.8L42 88l-1.8 18.5c-2.6-.7-5.1-1.6-7.6-2.6-1.3-.5-2.5-1.1-3.7-1.8-2.9-1.5-5.6-3.3-8.2-5.3l-1.9-9 .1-.1 24.7-16.3z"/><path id="Path_948" class="st5" d="M80.3 101.6c-6.5 3.6-13.7 5.8-21 6.5.4-6.7 1-13.1 1.6-18.8.3-2.9.7-5.7 1.1-8.2 1.2-8 2.5-13.5 3.4-14.2l6.1 4 24.7 8.8-.5 9.5c-3.4 4-7.3 7.4-11.6 10.3-1.3.7-2.5 1.4-3.8 2.1z"/><path id="Path_949" class="st5" d="M20.8 96.8c-1.2-.9-2.3-1.9-3.4-2.9l.9-6.1.7-.1 3.1-.4 6.8 14.8c-2.8-1.5-5.5-3.3-8.1-5.3z"/><path id="Path_950" class="st5" d="M99.5 83.8c-1.2 1.9-2.5 3.6-4 5.3-3.4 4-7.3 7.4-11.6 10.3-1.2.8-2.4 1.5-3.6 2.2l-.6-2.8 3.5-9.1 4.2-11.1 8.8 1.1c1.1 1.2 2.3 2.6 3.3 4.1z"/><path id="Path_951" class="st7" d="M67.3 30.9c-2.7-4.3-6.8-7.5-11.6-8.9l-3.6 2.9 1.4-3.3c-1.2-.2-2.3-.2-3.5-.2l-3.2 4.1 1.3-4c-5.6.7-10.7 3.7-14 8.3-4.1 5.9-4.8 14.1-.8 20 1.1-3.4 2.4-6.6 3.5-9.9.9.1 1.7.1 2.6 0l1.3-3.1.4 3c4.2-.4 10.3-1.2 14.3-1.9l-.4-2.3 2.3 1.9c1.2-.3 1.9-.5 1.9-.7 2.9 4.7 5.8 7.7 8.8 12.5 1.1-6.8 3.1-12.3-.7-18.4z"/><ellipse id="Ellipse_186" class="st3" cx="66.4" cy="46.2" rx="1.2" ry="2.4"/></g><path id="Path_952" class="st9" d="M387.9 458.3c0 10.5-3 20.8-8.8 29.6-1.2 1.9-2.5 3.6-4 5.3-3.4 4-7.3 7.5-11.6 10.3-1.2.8-2.4 1.5-3.6 2.2-6.5 3.6-13.7 5.8-21.1 6.5-1.7.2-3.4.2-5.1.2-4.7 0-9.4-.6-14-1.8-2.6-.7-5.1-1.6-7.6-2.6-1.3-.5-2.5-1.1-3.7-1.8-2.9-1.5-5.6-3.3-8.2-5.3-1.2-.9-2.3-1.9-3.4-2.9-22-20.3-23.3-54.6-2.9-76.6 20.3-22 54.6-23.3 76.6-2.9 11.2 10.4 17.4 24.8 17.4 39.8z"/><g id="Group_32" transform="translate(308.446 433.045)"><path id="Rectangle_273" class="st1" d="M22 0h6.6v50.6H22z"/><path id="Rectangle_274" class="st1" d="M0 22h50.6v6.6H0z"/></g><g id="Group_33" transform="translate(404.209 415.88)"><path id="Rectangle_250-2" class="st8" d="M0 0h324.3v14.5H0z"/><path id="Rectangle_251-2" class="st8" d="M0 36.1h115.6v14.5H0z"/><path id="Rectangle_252-2" class="st8" d="M0 72.3h230.4v14.5H0z"/></g><g id="Group_29" transform="translate(977.818 567.536)"><path id="Path_966" class="st8" d="M111.4 55.7c0 17.4-8.1 33.8-22 44.4-1 .8-2 1.5-3 2.2-.3.2-.5.3-.8.5-1 .6-2 1.2-3 1.7l-1.2.6c-.1 0-.2.1-.2.1-.5.3-1 .5-1.5.8-2.3 1.1-4.6 2-7 2.8-3.8 1.2-7.7 2-11.7 2.4-1.7.2-3.5.2-5.3.2-4.9 0-9.7-.6-14.4-1.9-2.4-.6-4.8-1.4-7.1-2.4-.2-.1-.5-.2-.7-.3-1.1-.5-2.2-1-3.3-1.6l-.5-.2c-1.2-.6-2.3-1.3-3.4-2-1.7-1.1-3.4-2.2-4.9-3.5-.8-.6-1.6-1.3-2.4-2-.4-.3-.8-.7-1.2-1.1-1.5-1.4-2.9-2.9-4.3-4.4-.5-.6-1.1-1.2-1.6-1.9-19-23.9-14.9-58.9 9.2-78C45.2-7.1 80.3-3 99.4 21.1c7.8 9.9 12 22 12 34.6z"/><circle id="Ellipse_188" class="st7" cx="73.1" cy="72.3" r="8.3"/><path id="Path_969" class="st7" d="M75.4 64.2c4.6 0 8.3 3.7 8.3 8.4 0 1.4-.3 2.7-1 4 2.9-3.6 2.3-8.9-1.3-11.7-3.6-2.9-8.9-2.3-11.7 1.3-.3.4-.6.8-.8 1.2 1.6-2 4-3.2 6.5-3.2z"/><circle id="Ellipse_189" class="st7" cx="57.5" cy="47.8" r="24.5"/><path id="Path_970" class="st7" d="M38.2 32.6c8.8-9.9 23.8-11 34-2.6l-.6-.6c-10.1-9-25.6-8.2-34.6 1.9s-8.2 25.6 1.9 34.6l.1.1c.2.2.4.4.6.5-9.5-9-10.1-24.1-1.4-33.9z"/><circle id="Ellipse_190" class="st10" cx="57.3" cy="56.3" r="15.8"/><path id="Path_971" class="st10" d="M46.1 61.3s2.1 19.1-1.2 21.2 19.1 5 19.1 5-3.3-20.8 5-26.2H46.1z"/><path id="Path_972" class="st9" d="M85.5 97.5v6c-1 .6-2 1.2-3 1.7l-1.2.6v.1h-.2c-.5.3-1 .5-1.5.8-2.3 1.1-4.6 2-7 2.8-3.8 1.2-7.7 2-11.7 2.4-1.7.2-3.5.2-5.3.2-4.9 0-9.7-.6-14.4-1.9-2.4-.6-4.8-1.4-7.1-2.4-.2-.1-.5-.2-.7-.3-1.1-.5-2.2-1-3.3-1.6l-.5-.2c-1.2-.6-2.3-1.3-3.4-2-1.7-1.1-3.4-2.2-4.9-3.5-.8-.6-1.6-1.3-2.4-2-.4-.3-.8-.7-1.2-1.1-1.5-1.4-2.9-2.9-4.3-4.4.2-1.3.5-2.5.9-3.7.1-.3.2-.6.4-.9 1.8-3.4 5-4.2 9.1-4.4 2.3-.1 4.8 0 7.4 0 1.4 0 2.8-.1 4.3-.2 9.1-.8 7.5-6.2 7.9-9.1.4-2.8 2.9-.4 3.1-.2 5.2 2.4 10.9 3.4 16.6 2.9 1-.1 2-.2 2.9-.2 2.6 0 2 .7 1.1 1.3-.4.3-.9.5-1.4.8 0 0-.4 2.5-.8 6.2-.4 3.6 6.5 5.3 7 5.4 2.5-.7 5.1-.6 7.6.2 3.2 1.2 5.4 3.7 6 6.7z"/><path id="Path_973" class="st2" d="M34.4 106c0 .7-.1 1.3-.1 1.9-.2-.1-.5-.2-.7-.3-1.1-.5-2.2-1-3.3-1.6l-.5-.2c-1.2-.6-2.3-1.3-3.4-2 0-.6.1-1.2.2-1.8.9-6.2 0-12.4-2.6-18.1l-.3-.6s2.9-2.5 7.1 0c.3.2.5.4.7.6 2.6 3.3 3.2 15 2.9 22.1z"/><path id="Path_974" class="st2" d="M79.7 106v.8c-2.3 1.1-4.6 2-7 2.8l-.1-3.5L72 92c0-.4.1-.8.3-1.2.4-.8 1.2-1.2 2-1.2h5.1c.3 0 .4.5.5 1.4.3 2.6.1 8.3-.2 15z"/><path id="Path_975" class="st7" d="M43.8 36.6v15.8h3.7l4.7-5-.6 5h16.2l-1-5 2 5h2.6V36.6H43.8z"/><ellipse id="Ellipse_191" class="st10" cx="41.3" cy="53" rx="1.2" ry="2.3"/><ellipse id="Ellipse_192" class="st10" cx="73.3" cy="53" rx="1.2" ry="2.3"/><path id="Path_976" d="M89.4 100.8c-1 .8-2 1.5-3 2.2-.3.2-.5.3-.8.5-1 .6-2 1.2-3 1.7l-1.2.6V94.1s1.6 1.3 4.2 3.4c1.1 1 2.4 2.1 3.8 3.3z" style="fill:#671cc9"/></g><circle id="Ellipse_194" class="st1" cx="233" cy="165.5" r="4.5"/><circle id="Ellipse_195" class="st1" cx="250" cy="165.5" r="4.5"/><circle id="Ellipse_246" class="st1" cx="216" cy="165.5" r="4.5"/></g></svg>