<svg version="1.1" id="ba9aa534-a335-424f-8f2e-8246f5cf478e" xmlns="http://www.w3.org/2000/svg" x="0" y="0" viewBox="0 0 865 779.1" style="enable-background:new 0 0 865 779.1" xml:space="preserve"><style>.st1{fill:none;stroke:#65657c;stroke-miterlimit:10}.st2{fill:#797bf2}.st3{fill:#57b894}.st5{fill:#3f3d56}.st6{fill:#ffc1c7}.st11{fill:#676fce}</style><path d="M444.1 27.5h382.7c21.1 0 38.1 17.1 38.1 38.1v517.7c0 21.1-17.1 38.1-38.1 38.1H444.1c-21.1 0-38.1-17.1-38.1-38.1V65.6c0-21 17.1-38.1 38.1-38.1z" style="opacity:.1;fill:#f2f2f2"/><path class="st1" d="M422.1.5h382.7c21.1 0 38.1 17.1 38.1 38.1v517.7c0 21.1-17.1 38.1-38.1 38.1H422.1c-21.1 0-38.1-17.1-38.1-38.1V38.6c0-21 17.1-38.1 38.1-38.1z"/><path class="st1" d="M407.5 62h408v471.1h-408z"/><circle class="st1" cx="613.5" cy="31" r="10"/><circle class="st1" cx="613.5" cy="563.5" r="22"/><path class="st2" d="M601 113.6c-37 0-67 30-67 67s70.2 173.5 70.2 173.5S668 217.6 668 180.6s-30-67-67-67zm0 111.7c-19.4 0-35.1-15.7-35.1-35.1S581.6 155 601 155s35.1 15.7 35.1 35.1-15.7 35.1-35.1 35.2z"/><ellipse class="st2" cx="601" cy="400.5" rx="67" ry="22"/><path class="st1" d="M361.9 96c-8.7.5-16.4 5.9-19.8 13.9-5 12 1.4 26 11 34.8s21.9 13.7 33 20.3c15 8.8 28.5 21 36 36.7s8.3 35.2-.5 50.1c-8.2 13.9-23.1 22.3-37.3 29.9"/><ellipse class="st3" cx="374.5" cy="97" rx="17.5" ry="8.5"/><ellipse class="st3" cx="388.5" cy="153" rx="17.5" ry="8.5"/><ellipse class="st3" cx="356.5" cy="162" rx="17.5" ry="8.5"/><ellipse class="st3" cx="406.5" cy="209" rx="17.5" ry="8.5"/><ellipse class="st3" cx="441.5" cy="209" rx="17.5" ry="8.5"/><path style="fill:none;stroke:#3f3d56;stroke-miterlimit:10" d="M47.5 778.6H406"/><path class="st1" d="M34.3 605.3c-8.1.5-15.2 5.5-18.4 12.9-4.6 11.1 1.3 24.2 10.2 32.4s20.4 12.8 30.8 18.9c14 8.2 26.5 19.6 33.5 34.2s7.7 32.7-.5 46.7c-7.6 13-21.5 20.7-34.7 27.9"/><ellipse class="st3" cx="46.1" cy="606.3" rx="16.3" ry="7.9"/><ellipse class="st3" cx="59.1" cy="658.4" rx="16.3" ry="7.9"/><ellipse class="st3" cx="29.3" cy="666.8" rx="16.3" ry="7.9"/><ellipse class="st3" cx="75.9" cy="710.6" rx="16.3" ry="7.9"/><ellipse class="st3" cx="108.5" cy="710.6" rx="16.3" ry="7.9"/><path class="st1" d="M73.9 637.3c6.6.4 12.4 4.5 15.1 10.5 3.8 9.1-1.1 19.8-8.4 26.4S64 684.6 55.5 689.6c-11.4 6.7-21.7 16-27.4 27.9s-6.3 26.7.4 38.1c6.2 10.6 17.6 16.9 28.4 22.8"/><ellipse class="st3" cx="64.3" cy="638.1" rx="13.3" ry="6.5"/><ellipse class="st3" cx="53.6" cy="680.7" rx="13.3" ry="6.5"/><ellipse class="st3" cx="77.9" cy="687.5" rx="13.3" ry="6.5"/><ellipse class="st3" cx="39.9" cy="723.3" rx="13.3" ry="6.5"/><ellipse class="st3" cx="13.3" cy="723.3" rx="13.3" ry="6.5"/><path class="st5" d="M129.8 737.5s9.3 4.7 15.8 5.6 10.2-5.7 8.8-8 4.2-.4 7.9 8c0 0 15.8 18.6 25.1 19.6s9.4 13.5 4.7 14c-5.1.5-14 3.7-25.1 0s-21.4-14-26.1-14-20.5-7.4-15.8-11.2 4.7-14 4.7-14zM221.6 758.5c4.8.4 9.5.1 14.2-.9 6.4-1.6 7.4-9 5.2-10.7s3.8-2 10.3 4.4c0 0 21.6 11.4 30.6 8.8s13.7 9.1 9.5 11.2c-7.2 3.9-15.2 6.2-23.3 6.6-11.8.7-25.1-2.3-29.4-.5s-21.8.7-18.8-4.5 1.7-14.4 1.7-14.4z"/><circle class="st6" cx="205.8" cy="278" r="36.3"/><path class="st6" d="M177.4 292.5s5.6 39.1-7.4 44.7 66.1 3.7 66.1 3.7-11.2-35.4-8.4-44.7-50.3-3.7-50.3-3.7z"/><path d="M164.4 515s-2.8 70.8-5.6 78.2-5.6 57.7-5.6 57.7L129 742.2l22.3 7.4s30.7-54 34.5-60.5 33.5-110.8 33.5-110.8-2.8 64.3-2.8 85.7 5.6 99.6 5.6 99.6l17.7-1.9 23.3-98.7s33.5-133.2 11.2-148.1c-22.4-14.8-109.9.1-109.9.1z" style="fill:#55536e"/><path class="st6" d="M300.3 537.4s.9 54-10.2 45.6 0-50.3 0-50.3l10.2 4.7zM145.7 518.8s.9 54-10.2 45.6 0-50.3 0-50.3l10.2 4.7z"/><path class="st2" d="M282.6 361.4S264 340 248.1 342.8s-102.4 1.9-102.4 1.9-28.9 36.3-21.4 43.8S156 528.1 156 528.1s64.3-8.4 86.6-8.4 31.7-3.7 31.7-3.7-29.8-59.6-15.8-86.6c14-27 34.5-55.9 34.5-55.9l-10.4-12.1z"/><path d="m277 367.9 15.8 5.6s9.3 32.6 9.3 58.7.9 39.1 4.7 48.4c3.7 9.3 15.8 53.1 9.3 62.4-3.6 5.3-8 10-13 14l-21.4-1.9s-.9-30.7-6.5-33.5-13-20.5-13-20.5-17.7-56.8-6.5-75.4c11.1-18.7 21.3-57.8 21.3-57.8z" style="fill:#7479e2"/><path class="st5" d="M217.4 402.4s9.3-41-8.4-39.1-41.9 2.8-48.4 2.8-43.8-4.7-49.4 19.6-13 54 2.8 72.6c0 0 5.6 81.9 27 87.5s78.2 12.1 98.7-14.9 12.1-56.8 12.1-56.8h-9.3l-25.1-71.7z"/><path class="st5" d="m248.2 475.9 7.4-50.3-3.7 52.2z"/><path d="M123.4 464.8s15.8 7.4 48.4 2.8v14l-48.4-3.7v-13.1z" style="opacity:.1;enable-background:new"/><path class="st5" d="m208.6 362.8 24.2-13-20.5 17.6z"/><path d="M260.3 349.3s18.6 6.5 18.6 0-16.8-12.1-27-15.8c-10.2-3.7-58.7-9.3-66.1-12.1s-42.8-7.4-45.6 3.7-3.7 34.5 10.2 37.2 50.3-4.7 68.9-2.8 41-10.2 41-10.2z" style="fill:#671cc9"/><path class="st11" d="M260.3 349.3s18.6 6.5 18.6 0-16.8-12.1-27-15.8c-10.2-3.7-58.7-9.3-66.1-12.1s-42.8-7.4-45.6 3.7-3.7 34.5 10.2 37.2 50.3-4.7 68.9-2.8 41-10.2 41-10.2z"/><path class="st5" d="m130.4 370.2 6.3-13.3 1.1 16.1z"/><ellipse class="st11" cx="199.5" cy="276" rx="34" ry="39.5"/><ellipse class="st11" cx="205.5" cy="255" rx="34" ry="21.5"/><ellipse class="st6" cx="232" cy="287.5" rx="3.5" ry="6"/><path class="st11" d="M227.1 249.6c3.6-2 6.6-5.5 8.9-10.3.2 1.1.3 2.2.2 3.3 1.5-.2 2.9-.6 4.3-1.3l-.3 3.5c2.6-1.6 4.9-3.5 7-5.6.6 5.1-.3 10.2-2.5 14.9-1.9 3.7-4.4 6-6.9 8.4"/></svg>