<svg version="1.1" id="e66cdcae-b662-46fb-b424-18ba1a805fb0" xmlns="http://www.w3.org/2000/svg" x="0" y="0" viewBox="0 0 832.5 677.8" style="enable-background:new 0 0 832.5 677.8" xml:space="preserve"><style>.st0{fill:#671cc9}.st1{fill:none;stroke:#3f3d56;stroke-miterlimit:10}.st3{fill:#f86b75}.st4{fill:#fad375}.st5{fill:#8bcc55}.st6{fill:#f2f2f2}.st7{fill:#79758c}.st8{fill:#3f3d56}.st9{fill:#a0616a}.st10{fill:#55536e}</style><ellipse class="st0" cx="667" cy="643.8" rx="151" ry="34"/><ellipse class="st1" cx="681" cy="633.8" rx="151" ry="34"/><circle class="st0" cx="436.5" cy="304.3" r="30"/><circle class="st0" cx="557.5" cy="304.3" r="30"/><circle cx="678.5" cy="304.3" r="30" style="fill:#7105ff"/><circle class="st3" cx="12.5" cy="20.3" r="3"/><circle class="st4" cx="21.5" cy="20.3" r="3"/><circle class="st5" cx="30.5" cy="20.3" r="3"/><path class="st0" d="M67 66.8h206v64H67z"/><path class="st1" d="M.5 10.3h364v216H.5zM.5 26.7h364"/><circle class="st1" cx="13.5" cy="18.3" r="3"/><circle class="st1" cx="22.5" cy="18.3" r="3"/><circle class="st1" cx="31.5" cy="18.3" r="3"/><path class="st1" d="M79.5 54.3h206v64h-206z"/><path class="st6" d="M41 158.8h276v8.3H41zM41 178.7h276v8.3H41zM41 198.6h276v8.3H41z"/><path class="st1" d="M44 154.8h276v8.3H44zM44 174.7h276v8.3H44zM44 194.6h276v8.3H44z"/><circle class="st3" cx="96.5" cy="394.3" r="3"/><circle class="st4" cx="105.5" cy="394.3" r="3"/><circle class="st5" cx="114.5" cy="394.3" r="3"/><path class="st0" d="M151 440.8h206v64H151z"/><path class="st1" d="M448.5 428.3v172h-364v-216h296M84.5 400.7H381"/><circle class="st1" cx="97.5" cy="392.3" r="3"/><circle class="st1" cx="106.5" cy="392.3" r="3"/><circle class="st1" cx="115.5" cy="392.3" r="3"/><path class="st1" d="M163.5 428.3h206v64h-206z"/><circle class="st3" cx="392.5" cy="221.3" r="3"/><circle class="st4" cx="401.5" cy="221.3" r="3"/><circle class="st5" cx="410.5" cy="221.3" r="3"/><path class="st1" d="M380.5 211.3h364v216h-364zM380.5 227.7h364"/><circle class="st1" cx="393.5" cy="219.3" r="3"/><circle class="st1" cx="402.5" cy="219.3" r="3"/><circle class="st1" cx="411.5" cy="219.3" r="3"/><circle class="st1" cx="441.5" cy="299.3" r="30"/><circle class="st1" cx="562.5" cy="299.3" r="30"/><circle class="st1" cx="683.5" cy="299.3" r="30"/><path class="st6" d="M396 354.8h82v8h-82zM518 354.8h82v8h-82zM640 354.8h82v8h-82z"/><path class="st1" d="M400 351.8h82v8h-82zM522 351.8h82v8h-82zM644 351.8h82v8h-82z"/><path class="st6" d="M98 529.8h63v54H98zM214.5 530.3h63v54h-63zM331 530.8h63v54h-63z"/><path class="st1" d="M107 519.8h63v54h-63zM223.5 520.3h63v54h-63zM340 520.8h63v54h-63z"/><path class="st7" d="M600.8 204.5 572.7 220l30-10.5z"/><ellipse transform="rotate(-17.992 608.611 204.786)" class="st8" cx="608.6" cy="204.8" rx="7.8" ry="15.8"/><ellipse transform="rotate(-17.992 633.017 192.758)" class="st8" cx="633" cy="192.8" rx="5.9" ry="11.1"/><path class="st8" d="M610.4 195.7 629 189l3.9 10.9-18 12.2z"/><path class="st9" d="m608.6 236 5-11s12-32 1-26-15 22-15 22l-3 10 12 5zM745.6 402s-17 33-22 34-5-30-5-30 10-9 14-8 13 4 13 4z"/><path class="st10" d="M720.6 610s9 5 5 16-6 8-8 17-20 8-21 4-3-20 2-26 22-11 22-11zM631.6 610s-9 5-5 16 6 8 8 17 20 8 21 4 3-20-2-26-22-11-22-11z"/><path class="st8" d="M715.6 410s8 5 10 36-1 66-2 74 1 20 3 26-5 52-5 52c3 6.3 3 13.7 0 20-5 11-20 22-24 11-.2-3.8-1.2-7.6-3-11-3-6 2-30 2-30s-4-38-3-48-12-69-14-79-1-18-2-15-19 86-19 86 2 53 1 60 4 21 1 26-9 23-20 12-9-15-10-20 0-11 0-19-8-53-4-60 2-16 1-32-2-93 8-107 80 18 80 18z"/><circle class="st9" cx="691.1" cy="198.5" r="24"/><path class="st9" d="M706.6 208s-1 36 4 42-43-5-43-5 11-23 4-38 35 1 35 1z"/><path class="st10" d="M715.6 246s-2-8-14-10-26.2-4-30.6 0-6.4 9-9.4 9h-14l-22 39s11 13 8 37-8 68-8 68c8 10.7 15 22.1 21 34 10 20 79 18 75-17 0 0-5-9-3-17s8-62 8-62l23-61s-32-16-34-20z"/><path class="st10" d="M742.6 265h7s4 23 3 37-1 47-1 47 4 8 3 15-3 26-3 26-1 27-20 13c0 0-6-3-3-16s-2-27-2-27 3-9 2-15-5-25-5-25l19-55zM652.6 248l-5-3s-7-3-17 0-15 2-19 1-1-11-1-11-8-14-16-6-8 24-8 24-5 10 13 16 26 15 26 15h20l7-36z"/><path class="st8" d="M689.5 227.1c-.1-1.8-1.2-3.4-2.9-4.1-1.1-.4-2.3-.6-3.4-.7-3.4-.4-6.9-1.7-8.9-4.3-2.6-3.5-1.9-8.3-4-12.1-1-1.5-2.1-2.9-3.2-4.2-3.7-4.9-4.3-11.3-4.7-17.3-.2-1.2 0-2.5.4-3.6.6-1 1.4-2 2.3-2.8 1.5-1.7 2.3-4 2.3-6.2-.1-4.7 6.5-7.8 11.3-9.4s9.8-1.9 14.8-1.9c2.9 0 5.9 0 8.5 1 1.5.7 3 1.5 4.3 2.5 5.6 4.1 10.8 9.1 12.6 15.4.7 2.9 1.1 5.9 1 8.8.1.9 0 1.9-.4 2.7-.7 1.3-2.2 2.1-3.3 3.2-1.9 2.1-1.6 5.2-1.8 7.9-.6 5.8-3.9 10.9-8.9 13.8-1 .5-2 1.2-2.8 1.9-.6.8-1.1 1.7-1.5 2.7-2.1 4-7.1 6.6-11.7 6.7z"/><path class="st7" d="M192.6 10.7 179.3 18l14.2-5z"/><ellipse transform="rotate(-17.992 196.303 10.806)" class="st8" cx="196.3" cy="10.8" rx="3.7" ry="7.5"/><ellipse transform="rotate(-17.992 207.888 5.097)" class="st8" cx="207.9" cy="5.1" rx="2.8" ry="5.3"/><path class="st8" d="m197.1 6.5 8.9-3.2 1.9 5.2-8.6 5.8z"/><path class="st7" d="m282.6 382.7-13.3 7.3 14.2-5z"/><ellipse transform="rotate(-17.992 286.32 382.832)" class="st8" cx="286.3" cy="382.8" rx="3.7" ry="7.5"/><ellipse transform="rotate(-17.992 297.906 377.122)" class="st8" cx="297.9" cy="377.1" rx="2.8" ry="5.3"/><path class="st8" d="m287.1 378.5 8.9-3.2 1.9 5.2-8.6 5.8z"/></svg>