<svg version="1.1" id="d0a49112-1639-4682-9529-9d2abcda4fd6" xmlns="http://www.w3.org/2000/svg" x="0" y="0" viewBox="0 0 907 730" style="enable-background:new 0 0 907 730" xml:space="preserve"><style>.st1{opacity:.2;fill:#3b73ed;enable-background:new}.st3{fill:#65657c}.st5{fill:#797bf2}.st6{fill:#fff}.st18{fill:#3b73ed}</style><circle cx="423.1" cy="365" r="363" style="fill:none;stroke:#64ffda;stroke-width:4;stroke-miterlimit:10;stroke-dasharray:12.07,15.09"/><path class="st1" d="M76.2 109.9h382v243h-382z"/><linearGradient id="SVGID_1_" gradientUnits="userSpaceOnUse" x1="219" y1="93.8" x2="219" y2="-155" gradientTransform="translate(0 230)"><stop offset="0" style="stop-color:gray;stop-opacity:.25"/><stop offset=".54" style="stop-color:gray;stop-opacity:.12"/><stop offset="1" style="stop-color:gray;stop-opacity:.1"/></linearGradient><path style="fill:url(#SVGID_1_)" d="M0 75h438v248.8H0z"/><path class="st3" d="M4.7 111.2h427.5V318H4.7z"/><linearGradient id="SVGID_2_" gradientUnits="userSpaceOnUse" x1="33.9" y1="-23.05" x2="182.3" y2="-23.05" gradientTransform="translate(0 230)"><stop offset="0" style="stop-color:gray;stop-opacity:.25"/><stop offset=".54" style="stop-color:gray;stop-opacity:.12"/><stop offset="1" style="stop-color:gray;stop-opacity:.1"/></linearGradient><path style="fill:url(#SVGID_2_)" d="M33.9 128.7h148.4v156.5H33.9z"/><path class="st5" d="M38.5 132.2h140.2v149.5H38.5z"/><path class="st6" d="M147.8 191.2c-1.1-8.9-2.6-17.8-6-26.1s-8.9-15.9-16.5-20.7c-2.7-1.8-5.8-2.9-9.1-3.1-6-.2-11.4 3.8-14.5 8.9-1 1.8-1.9 3.6-2.7 5.5-5.8 1-10.2 5.8-10.6 11.8-16.6 7.1-24.4 26.3-17.3 42.9 4 9.3 12.1 16.3 21.9 18.9v5.6c-14.4 3.8-24.5 16.8-24.5 31.7v15.2h65.4v-15.2c0-14.9-10.1-27.9-24.5-31.7v-5.6c14.4-3.7 24.5-16.8 24.5-31.7v-.2l3.7 8.2c3.5 7.8 7.1 16.2 5.7 24.6 6.7-11.5 6.1-25.7 4.5-39z"/><path class="st5" d="M4.7 79.6h427.5v31.5H4.7z"/><path style="fill:#e0e0e0" d="M236 176h162.4v10.5H236z"/><path style="fill:#f5f5f5" d="M236 220.4h162.4v10.5H236z"/><path class="st1" d="M234.8 198.2h95.8v10.5h-95.8z"/><path style="opacity:.2;fill:#69f0ae;enable-background:new" d="M234.8 242.6h65.4v10.5h-65.4z"/><path style="fill:#69f0ae" d="M311.9 242.6h65.4v10.5h-65.4z"/><path style="opacity:.2;fill:#ff6e40;enable-background:new" d="M667.4 136.7h215.5v100.5H667.4z"/><linearGradient id="SVGID_3_" gradientUnits="userSpaceOnUse" x1="749.05" y1="-8.2" x2="749.05" y2="-117.4" gradientTransform="translate(0 230)"><stop offset="0" style="stop-color:gray;stop-opacity:.25"/><stop offset=".54" style="stop-color:gray;stop-opacity:.12"/><stop offset="1" style="stop-color:gray;stop-opacity:.1"/></linearGradient><path style="fill:url(#SVGID_3_)" d="M633.5 112.6h231.1v109.2H633.5z"/><path class="st3" d="M642 115.2h215.5v100.5H642z"/><path style="opacity:.3;fill:#ff6e40;enable-background:new" d="M674.6 137.2h125.7v11.9H674.6z"/><path style="fill:#ff6e40" d="M674.6 164.5h65.2v11.9h-65.2z"/><path class="st1" d="M404.2 557.4H907v135.3H404.2z"/><linearGradient id="SVGID_4_" gradientUnits="userSpaceOnUse" x1="628.35" y1="441.9" x2="628.35" y2="297.9" gradientTransform="translate(0 230)"><stop offset="0" style="stop-color:gray;stop-opacity:.25"/><stop offset=".54" style="stop-color:gray;stop-opacity:.12"/><stop offset="1" style="stop-color:gray;stop-opacity:.1"/></linearGradient><path style="fill:url(#SVGID_4_)" d="M373.3 527.9h510.1v144H373.3z"/><path class="st3" d="M377 532.8h502.8v134.3H377z"/><linearGradient id="SVGID_5_" gradientUnits="userSpaceOnUse" x1="499.8" y1="420.2" x2="499.8" y2="319.6" gradientTransform="translate(0 230)"><stop offset="0" style="stop-color:gray;stop-opacity:.25"/><stop offset=".54" style="stop-color:gray;stop-opacity:.12"/><stop offset="1" style="stop-color:gray;stop-opacity:.1"/></linearGradient><circle cx="499.8" cy="599.9" r="50.3" style="fill:url(#SVGID_5_)"/><circle class="st5" cx="499.8" cy="599.9" r="44.7"/><g style="opacity:.2"><path class="st18" d="M587.8 566.4h79.6v14h-79.6zM587.8 593h219.3v14H587.8zM587.8 619.5h219.3v14H587.8z"/></g><path class="st6" d="m529.2 582-9.9-7.5-25.8 33.9-14.5-11-7.5 9.8 19.4 14.8.1-.1 4.9 3.8z"/></svg>