<svg version="1.1" id="a43d4114-cd98-41f6-b9a0-b0700c71b140" xmlns="http://www.w3.org/2000/svg" x="0" y="0" viewBox="0 0 722 628.5" style="enable-background:new 0 0 722 628.5" xml:space="preserve"><style>.st0{fill:#e6e6e6}.st1{fill:#671cc9}.st2{fill:#fff}.st3{fill:#2f2e41}.st4{fill:#9f616a}</style><ellipse class="st0" cx="325" cy="618.5" rx="199" ry="10"/><circle class="st0" cx="98.8" cy="98.8" r="98.8"/><circle class="st1" cx="98.8" cy="98.8" r="82.3"/><circle class="st0" cx="361" cy="98.8" r="98.8"/><circle class="st2" cx="361" cy="98.8" r="82.3"/><circle class="st0" cx="623.2" cy="98.8" r="98.8"/><circle class="st2" cx="623.2" cy="98.8" r="82.3"/><path class="st2" d="m91.1 132.6-24-30.9 14-10.8 11.3 14.6L130.8 65l12.8 12.2z"/><path class="st3" d="M273.7 118.9c-6.5-15.7-7.5-30.4 1.6-43.6.7-18.2 16-32.4 34.2-31.7.3 0 .7 0 1 .1l6 .4c12.6.8 23.5 8.7 28.3 20.4 11.1 27.6 11.5 64.2 8.7 103.5H272c4.8-18.5 7.3-35.7 1.7-49.1z"/><path class="st4" d="m168.5 166.9-21.5-9.7c-8.3-3.7-12-13.4-8.2-21.7.3-.7.7-1.4 1.1-2.1 4.9-7.7 15-9.9 22.7-5.1 1.5.9 2.8 2.1 3.9 3.5l10 12.2 46.4 41.2 30.8-20.6 14 23.7-50 30.2-49.2-51.6z"/><path class="st1" d="m265.3 195.4-17-32.5 66.2-29.5.6 6.2c1.1 11.7-4.1 23-13.6 29.8l-36.2 26z"/><path class="st4" d="m351.1 131.4-67.6 55.9-3.9-5.4 18.6-33.4 8.5-3.9c2-8.7-3.2-20.3-10.1-32.6l32.6-4.7c1.8 10.6 8.9 18.7 21.9 24.1z"/><path class="st3" d="M432.7 517.3 421.4 534l-89.7-50.9 12.4-61.3z"/><path class="st3" d="m314.3 596.9-18.2-8.2-4.7-213.5-17.5-116.1 67.9-12.8 14 30.3c34.3 47.1-15.7 191.4-41.5 320.3z"/><path class="st3" d="m315.7 594 3.7 8.1c2.5 5.4.1 11.9-5.3 14.4-.9.4-2 .7-3 .9l-49.5 7.1c-5 .7-9.8-2.4-11.2-7.3-1.3-4.5.6-9.3 4.7-11.6l41.6-20.8 19 9.2zM430.3 514.1l8.9-.7c6-.4 11.2 4 11.6 10 .1 1 0 2.1-.2 3.1L440 575.4c-1.1 5-5.7 8.4-10.7 8-4.6-.4-8.4-3.8-9.2-8.4l-4.9-46.2 15.1-14.7z"/><circle class="st4" cx="308.4" cy="91.8" r="31.1"/><path class="st1" d="m340.3 251-67.6 14-1.6-45c-9.8-10.4 13-51.8 21-71.4l10.1-3.1-17.1 31.1 59.8-48.9 11.6 3.1 3.1 56.7-19.3 63.5z"/><path class="st4" d="m344.9 278.1-14.6 18.5c-5.6 7.1-15.9 8.3-23.1 2.7-.6-.5-1.2-1-1.7-1.6-6.2-6.6-6-17 .6-23.2 1.3-1.2 2.8-2.2 4.4-3l14.3-6.7L376 230l-12.4-34.9 26.4-7.8 17.1 55.9-62.2 34.9z"/><path class="st3" d="M347.6 161.7h-56.3c2.1-10.6 7.8-20.3 23.3-27.2 11.3-21.6 16.1-41.2 0-54.3-18.4-4.2-25.6-12-23.3-22.6l33-5.4c27.2 24.2 27.5 65.4 23.3 109.5z"/><path class="st1" d="m396.2 191.2-35.7 8.5-12.5-71.4 6.2 1c11.6 1.8 21.3 9.6 25.6 20.5l16.4 41.4z"/></svg>