<svg version="1.1" id="b4f08fc7-2376-4427-aaee-2fcb33ba957a" xmlns="http://www.w3.org/2000/svg" x="0" y="0" viewBox="0 0 920.7 698" style="enable-background:new 0 0 920.7 698" xml:space="preserve"><style>.st0{opacity:.1;fill:#e6e6e6}.st1{fill:#797bf2}.st2{fill:#55536e}.st3{fill:#a0616a}.st4{fill:#2f2e41}.st5{fill:#819bc1}</style><path class="st0" d="m892.5 652.9 3.7-9c4.4-1.2 9-2.1 13.5-2.8l-.3 4.4 1.9-4.6c5.6-.8 9.4-1 9.4-1s-7.6 18.3-20.1 31.3l-12.5.5 9.3 2.7c-1.5 1.4-3.2 2.7-4.9 3.9-17.2 12-35 16.2-39.9 9.2s5.1-22.3 22.3-34.3c5.6-3.7 11.6-6.5 18.1-8.4l-.5 8.1z"/><path class="st0" d="m860.1 611.5-4.6-13.3c3.7-5.6 7.7-10.9 12-16l3.9 5.1-2.4-6.8c5.4-6.3 9.3-10.1 9.3-10.1s9.2 27.2 8.1 53.3l-13.2 12.4 12.7-6c-.3 3-.8 6-1.6 8.9-7.2 29.5-22.7 51.1-34.6 48.2s-15.7-29.2-8.5-58.7c2.5-9.3 6.4-18.2 11.6-26.4l7.3 9.4z"/><ellipse class="st0" cx="760.5" cy="690.3" rx="148.4" ry="7.7"/><path class="st0" d="M261.3 119H156.4v1.9h104.9c10.8 0 19.5 8.7 19.5 19.5s-8.7 19.5-19.5 19.5H102.6c-10.8 0-19.5-8.7-19.5-19.5 0-10.7 8.7-19.5 19.5-19.5h5.9V119h-5.9c-11.8 0-21.4 9.6-21.4 21.4 0 11.8 9.6 21.4 21.4 21.4h158.7c11.8 0 21.4-9.6 21.4-21.4 0-11.8-9.6-21.4-21.4-21.4z"/><path class="st1" d="M261.3 185.1H156.4v1.9h104.9c10.8 0 19.5 8.7 19.5 19.5S272 226 261.3 226H102.6c-10.8 0-19.5-8.7-19.5-19.5s8.7-19.5 19.5-19.5h5.9v-1.9h-5.9c-11.8 0-21.4 9.6-21.4 21.4 0 11.8 9.6 21.4 21.4 21.4h158.7c11.8 0 21.4-9.6 21.4-21.4-.1-11.8-9.6-21.4-21.4-21.4z"/><path class="st0" d="M261.3 251.2H156.4v1.9h104.9c10.8 0 19.5 8.7 19.5 19.5S272 292 261.3 292H102.6c-10.8 0-19.5-8.7-19.5-19.5s8.7-19.5 19.5-19.5h5.9v-1.9h-5.9c-11.8 0-21.4 9.6-21.4 21.4 0 11.8 9.6 21.4 21.4 21.4h158.7c11.8 0 21.4-9.6 21.4-21.4-.1-11.7-9.6-21.3-21.4-21.3z"/><path id="bcf0cfa3-66a2-4303-bdd5-8030f4bfd15a" class="st2" d="M120.4 114c-3.1.1-5.7 2.6-5.6 5.8.1 3.1 2.5 5.5 5.6 5.6h25c3.1 0 5.7-2.5 5.8-5.6 0-3.1-2.5-5.7-5.6-5.8h-25.2z"/><path id="ec7ee251-c029-4a40-a2db-c56bfeeebca2" class="st2" d="M120.4 181c-3.1.1-5.7 2.6-5.6 5.8.1 3.1 2.5 5.6 5.6 5.6h25c3.1.1 5.7-2.5 5.8-5.6.1-3.1-2.5-5.7-5.6-5.8h-25.2z"/><path id="a580efb3-72c6-475f-9d34-6093d6a0cbd0" class="st2" d="M120.4 246.1c-3.1.1-5.7 2.6-5.6 5.8.1 3.1 2.5 5.6 5.6 5.6h25c3.1.1 5.7-2.5 5.8-5.6.1-3.1-2.5-5.7-5.6-5.8h-25.2z"/><path id="fe8fe944-e2e2-4630-bb61-cdb395efd789" class="st0" d="M110.5 134.7c-3.1.1-5.7 2.6-5.6 5.8.1 3.1 2.5 5.6 5.6 5.6h142.8c3.1.1 5.7-2.5 5.8-5.6.1-3.1-2.5-5.7-5.6-5.8h-143z"/><path class="st0" d="M261.3 56.8H156.4v1.9h104.9c10.8 0 19.5 8.7 19.5 19.5s-8.7 19.5-19.5 19.5H102.6c-10.8 0-19.5-8.7-19.5-19.5 0-10.7 8.7-19.4 19.5-19.5h5.9v-1.9h-5.9c-11.8 0-21.4 9.6-21.4 21.4 0 11.8 9.6 21.4 21.4 21.4h158.7c11.8 0 21.4-9.6 21.4-21.4-.1-11.8-9.6-21.4-21.4-21.4z"/><path id="bcfa29a8-6865-4c73-8c61-6a785352b808" class="st2" d="M120.4 51.7c-3.1.1-5.7 2.6-5.6 5.8.1 3.1 2.5 5.6 5.6 5.6h25c3.1.1 5.7-2.5 5.8-5.6.1-3.1-2.5-5.7-5.6-5.8h-25.2z"/><path id="e794b9a0-7aca-4299-a24e-8f26dee3f545" class="st0" d="M110.5 72.5c-3.1.1-5.7 2.6-5.6 5.8.1 3.1 2.5 5.5 5.6 5.6h142.8c3.1.1 5.7-2.4 5.8-5.6.1-3.1-2.4-5.7-5.6-5.8h-143z"/><path id="bf86555d-9ede-426e-830a-ea26134fbb4f" class="st1" d="M110.5 200.8c-3.1.1-5.7 2.6-5.6 5.8.1 3.1 2.5 5.6 5.6 5.6h142.8c3.1.1 5.7-2.5 5.8-5.6.1-3.1-2.5-5.7-5.6-5.8h-143z"/><path id="bd15929f-7f71-4330-8805-c384166b6a45" class="st0" d="M110.5 266.9c-3.1.1-5.7 2.6-5.6 5.8.1 3.1 2.5 5.6 5.6 5.6h142.8c3.1.1 5.7-2.5 5.8-5.6.1-3.1-2.5-5.7-5.6-5.8h-143z"/><path class="st1" d="m325.2 207-21.5-12.5v24.9l21.5-12.4-21.5-12.5v24.9z"/><path class="st0" d="M343.9 342.8H7.2c-2.4 0-4.3-1.9-4.3-4.3V7.2c0-2.4 1.9-4.3 4.3-4.3h349.5c2.4 0 4.3 1.9 4.3 4.3v196.2h2.9V7.2c0-4-3.2-7.2-7.2-7.2H7.2C3.2 0 0 3.2 0 7.2v331.3c0 4 3.2 7.2 7.2 7.2h336.7v-2.9z"/><path class="st1" d="M652.8 198.6H351c-3.9 0-7.1 2.5-7.1 5.5v65.3h316v-65.3c0-3-3.2-5.5-7.1-5.5z"/><path class="st0" d="M654.6 196.7H349.2c-4 0-7.2 3.2-7.2 7.2V448c0 4 3.2 7.2 7.2 7.2h305.5c4 0 7.2-3.2 7.2-7.2V203.8c-.1-3.9-3.3-7.1-7.3-7.1zM659 448c0 2.4-1.9 4.3-4.3 4.3H349.2c-2.4 0-4.3-1.9-4.3-4.3V203.8c0-2.4 1.9-4.3 4.3-4.3h305.5c2.4 0 4.3 1.9 4.3 4.3V448z"/><path class="st0" d="M581.2 305.2H476.4v1.9h104.9c10.8 0 19.5 8.7 19.5 19.5S592 346 581.2 346H422.6c-10.8 0-19.5-8.7-19.5-19.5s8.7-19.5 19.5-19.5h5.9v-1.9h-5.9c-11.8 0-21.4 9.6-21.4 21.4 0 11.8 9.6 21.4 21.4 21.4h158.7c11.8 0 21.4-9.6 21.4-21.4-.1-11.8-9.7-21.3-21.5-21.3zM581.2 371.2H476.4v1.9h104.9c10.8 0 19.5 8.7 19.5 19.4 0 10.8-8.7 19.5-19.4 19.5H422.6c-10.8 0-19.5-8.7-19.5-19.5s8.7-19.5 19.5-19.5h5.9v-1.9h-5.9c-11.8 0-21.4 9.6-21.4 21.4s9.6 21.4 21.4 21.4h158.7c11.8 0 21.4-9.6 21.4-21.4-.1-11.7-9.7-21.3-21.5-21.3z"/><path id="f0e892c8-c763-4555-99cb-2aee4aa2c1bd" class="st2" d="M440.3 301.1c-3.1.1-5.7 2.6-5.6 5.8.1 3.1 2.5 5.6 5.6 5.6h25c3.1.1 5.7-2.5 5.8-5.6.1-3.1-2.5-5.7-5.6-5.8h-25.2z"/><path id="b030a2e8-ef2c-42ed-9562-f4777aec2710" class="st2" d="M440.3 366.2c-3.1.1-5.7 2.6-5.6 5.8.1 3.1 2.5 5.6 5.6 5.6h25c3.1.1 5.7-2.5 5.8-5.6.1-3.1-2.5-5.7-5.6-5.8h-25.2z"/><path id="b7b74475-3363-467c-a0a1-8003b6263e2a" class="st0" d="M430.4 320.9c-3.1.1-5.7 2.6-5.6 5.8.1 3.1 2.5 5.6 5.6 5.6h142.8c3.1.1 5.7-2.5 5.8-5.6.1-3.1-2.5-5.7-5.6-5.8h-143z"/><path id="ef56dfc7-cfad-4aec-8de6-97ba4c392594" class="st0" d="M430.4 386.9c-3.1.1-5.7 2.6-5.6 5.8.1 3.1 2.5 5.6 5.6 5.6h142.8c3.1.1 5.7-2.5 5.8-5.6.1-3.1-2.5-5.7-5.6-5.8h-143z"/><circle class="st2" cx="385.9" cy="234" r="20.6"/><path id="b00574f6-7832-428e-9f30-d233874666a9" class="st2" d="M422.9 217.7c-2.8 0-5.1 2.4-5 5.2 0 2.8 2.3 5 5 5h128c2.8 0 5.1-2.2 5.2-5 0-2.8-2.2-5.1-5-5.2H422.9z"/><path id="a75f2174-018f-4ccd-a38d-4db47ce7fed4" class="st2" d="M422.9 240.1c-2.8 0-5.1 2.4-5 5.2 0 2.8 2.3 5 5 5h210.4c2.8 0 5.1-2.2 5.2-5 0-2.8-2.2-5.1-5-5.2H422.9z"/><path class="st3" d="m828.1 260-42.1 4.8c.6-12.9-.5-25-4.8-35.4l34.5-12.4c-3.1 12.8 2.7 27.5 12.4 43z"/><path class="st3" d="m833.2 403.8 13.6 24.4c3.4 6.1 1.2 13.8-4.9 17.2-.1 0-.1.1-.2.1-6.1 3.3-13.8 1-17.2-5.1-.8-1.5-1.3-3.1-1.5-4.8l-2.2-23.3-7.6-88.9-12.9-58.5 26.8-7.6 12.5 65.7-6.4 80.8z"/><path class="st2" d="m855.9 663.2-17.2-1-38.3-170.5L719 663.1l-17.2-1 49.8-264.3 1-47.9 62.2-3.8c23.3 25.6 36.4 52 38.3 79.5l2.8 237.6z"/><path class="st4" d="M717.5 693.1c-3.3 1.5-6.4-10.9-8.7-7.9-7.9 10.3-26.2 7.1-26.2 5.9-2.5-.8-3.9-3.5-3.1-6.1 0-.1 0-.1.1-.2.6-1.5 1.8-2.6 3.3-3l8.2-2 12.9-22.6 13.1-.9c5.9 7.6 8.1 17.4 5.8 26.7-1.2 4.9-3 9.1-5.4 10.1zM853.6 693.1c-3.3 1.5-6.4-10.9-8.7-7.9-9.1 11.8-26.8 7.8-26.2 5.9-2.5-.8-3.9-3.5-3.1-6.1 0-.1 0-.1.1-.2.6-1.5 1.8-2.6 3.3-3l8.2-2 12.9-22.6 14-1.8.4.6c5.5 8.8 6.9 19.6 3.9 29.5-1.3 3.8-2.9 6.7-4.8 7.6z"/><circle class="st3" cx="789.8" cy="208.3" r="29.7"/><path class="st5" d="m816.6 351-64.2 3.8-5.7-36.4c-5.9-16.4 1.5-31.4 13.4-46l24.9-27.8 34.5-1c9.5 3.1 16.3 11.4 17.5 21.3 2.5 20.4-1.2 41-10.7 59.2l-9.7 26.9z"/><path class="st3" d="m746.7 432.4 4.6 27.5c1.1 6.9-3.5 13.4-10.4 14.6h-.2c-6.9 1-13.4-3.7-14.4-10.6-.3-1.7-.2-3.4.3-5l5.8-22.7 23-86.2 7.7-59.4 27.8 1.9-10.5 66.1-33.7 73.8z"/><path d="M825.4 322.8h-.7c-12.9-11.2-24.2-23.8-15.1-39.5-7.7-19.6-16.3-39.9-15.8-52.4.5-9.3-2.4-18.4-8.4-25.6-8.2-9.6-10-13.8-25-10.2-.2-15.7 12.3-28.5 27.9-28.7h1.4l9.3.3c7.1.3 30 3.2 34.9 7.9 5 5 7.5 12.1 6.5 19.1-.9 7.8 1.5 14.7 8.1 20.5 12.6 13 17.8 26.5 10.6 40.8-5.4 15.2-5.1 27.6 8.8 33.6 4.8 17.2-24.6 34.2-42.5 34.2z" style="fill:#ff227d"/><path class="st5" d="M793.6 302.2c-11.9-9.1-23.7-9.8-35.4-1l3.2-36.4c-.2-10.7 8.2-19.6 18.8-20.1 10.9-.5 20.2 7.9 20.7 18.8v1.3l-7.3 37.4z"/><ellipse class="st3" cx="790.3" cy="214.1" rx="3.8" ry="7.2"/></svg>