<svg data-name="Layer 1" xmlns="http://www.w3.org/2000/svg" width="920.657" height="698"><path d="m892.472 652.934 3.663-9.022a122.56 122.56 0 0 1 13.519-2.842l-.301 4.387 1.875-4.62c5.642-.8 9.43-.972 9.43-.972s-7.61 18.279-20.076 31.335l-12.486.457 9.282 2.674a49.585 49.585 0 0 1-4.857 3.904c-17.171 12.024-35.019 16.164-39.863 9.246s5.149-22.274 22.32-34.298a65.28 65.28 0 0 1 18.052-8.37Z" fill="#e6e6e6"/><path d="m860.075 611.541-4.646-13.33a177.676 177.676 0 0 1 12.002-16.03l3.87 5.064-2.379-6.824c5.38-6.271 9.338-10.083 9.338-10.083s9.206 27.186 8.126 53.333l-13.16 12.446 12.667-5.97a71.883 71.883 0 0 1-1.553 8.899c-7.192 29.526-22.666 51.112-34.561 48.215s-15.708-29.182-8.516-58.708a94.634 94.634 0 0 1 11.648-26.388Z" fill="#e6e6e6"/><ellipse cx="760.462" cy="690.339" rx="148.434" ry="7.661" fill="#e6e6e6"/><path d="M261.287 119.05h-104.86v1.915h104.86a19.466 19.466 0 1 1 0 38.93H102.615a19.466 19.466 0 0 1 0-38.93h5.93v-1.916h-5.93a21.38 21.38 0 0 0 0 42.762h158.672a21.38 21.38 0 0 0 0-42.762Z" fill="#e6e6e6"/><path d="M261.287 185.126h-104.86v1.916h104.86a19.466 19.466 0 0 1 0 38.93H102.615a19.466 19.466 0 1 1 0-38.93h5.93v-1.916h-5.93a21.38 21.38 0 0 0 0 42.762h158.672a21.38 21.38 0 0 0 0-42.762Z" fill="#671cc9"/><path d="M261.287 251.203h-104.86v1.916h104.86a19.466 19.466 0 1 1 0 38.93H102.615a19.466 19.466 0 1 1 0-38.93h5.93v-1.916h-5.93a21.38 21.38 0 0 0 0 42.762h158.672a21.38 21.38 0 0 0 0-42.762Z" fill="#e6e6e6"/><path data-name="Path 40" d="M120.38 113.99a5.695 5.695 0 0 0 0 11.388h24.981a5.695 5.695 0 0 0 .187-11.389h-.187ZM120.38 181.024a5.695 5.695 0 0 0 0 11.388h24.981a5.695 5.695 0 0 0 .187-11.388q-.093-.002-.187 0ZM120.38 246.143a5.695 5.695 0 0 0 0 11.389h24.981a5.695 5.695 0 0 0 .187-11.389h-.187Z" fill="#3f3d56"/><path data-name="Path 40" d="M110.473 134.736a5.695 5.695 0 0 0 0 11.388h142.77a5.695 5.695 0 1 0 .187-11.388q-.094-.002-.187 0Z" fill="#e6e6e6"/><path d="M261.287 56.803h-104.86v1.915h104.86a19.466 19.466 0 0 1 0 38.931H102.615a19.466 19.466 0 0 1 0-38.93h5.93v-1.916h-5.93a21.38 21.38 0 0 0 0 42.762h158.672a21.38 21.38 0 0 0 0-42.762Z" fill="#e6e6e6"/><path data-name="Path 40" d="M120.38 51.743a5.695 5.695 0 0 0 0 11.388h24.981a5.695 5.695 0 0 0 .187-11.388q-.093-.002-.187 0Z" fill="#3f3d56"/><path data-name="Path 40" d="M110.473 72.49a5.695 5.695 0 0 0 0 11.388h142.77a5.695 5.695 0 1 0 .187-11.388q-.094-.002-.187 0Z" fill="#e6e6e6"/><path data-name="Path 40" d="M110.473 200.813a5.695 5.695 0 0 0 0 11.388h142.77a5.695 5.695 0 1 0 .187-11.388q-.094-.002-.187 0Z" fill="#671cc9"/><path data-name="Path 40" d="M110.473 266.89a5.695 5.695 0 0 0 0 11.388h142.77a5.695 5.695 0 1 0 .187-11.388q-.094-.002-.187 0Z" fill="#e6e6e6"/><path fill="#671cc9" d="m325.216 206.951-21.547-12.44v24.88l21.547-12.44-21.547-12.44v24.88l21.547-12.44z"/><path d="M343.89 342.834H7.182a4.314 4.314 0 0 1-4.31-4.31V7.183a4.314 4.314 0 0 1 4.31-4.31H356.72a4.314 4.314 0 0 1 4.31 4.31V203.36h2.872V7.182A7.19 7.19 0 0 0 356.72 0H7.182A7.19 7.19 0 0 0 0 7.182v331.343a7.19 7.19 0 0 0 7.182 7.182H343.89Z" fill="#e6e6e6"/><path d="M652.814 198.571H350.986c-3.917 0-7.096 2.48-7.096 5.537v65.329h316.02v-65.33c0-3.055-3.179-5.536-7.096-5.536Z" fill="#671cc9"/><path d="M654.643 196.656H349.157a7.185 7.185 0 0 0-7.183 7.182v244.198a7.185 7.185 0 0 0 7.183 7.182h305.486a7.185 7.185 0 0 0 7.182-7.182V203.838a7.185 7.185 0 0 0-7.182-7.182Zm4.31 251.38a4.316 4.316 0 0 1-4.31 4.31H349.157a4.316 4.316 0 0 1-4.31-4.31V203.838a4.316 4.316 0 0 1 4.31-4.309h305.486a4.316 4.316 0 0 1 4.31 4.31Z" fill="#e6e6e6"/><path d="M581.236 305.171h-104.86v1.916h104.86a19.466 19.466 0 1 1 0 38.93H422.564a19.466 19.466 0 1 1 0-38.93h5.93v-1.916h-5.93a21.38 21.38 0 0 0 0 42.762h158.672a21.38 21.38 0 0 0 0-42.762ZM581.236 371.248h-104.86v1.916h104.86a19.466 19.466 0 1 1 0 38.93H422.564a19.466 19.466 0 1 1 0-38.93h5.93v-1.916h-5.93a21.38 21.38 0 1 0 0 42.762h158.672a21.38 21.38 0 0 0 0-42.762Z" fill="#e6e6e6"/><path data-name="Path 40" d="M440.33 301.07a5.695 5.695 0 0 0 0 11.388h24.98a5.695 5.695 0 0 0 .187-11.389h-.187ZM440.33 366.189a5.695 5.695 0 0 0 0 11.388h24.98a5.695 5.695 0 0 0 .187-11.388q-.093-.002-.187 0Z" fill="#3f3d56"/><path data-name="Path 40" d="M430.421 320.858a5.695 5.695 0 0 0 0 11.388h142.77a5.695 5.695 0 1 0 .187-11.388h-.187ZM430.421 386.935a5.695 5.695 0 0 0 0 11.388h142.77a5.695 5.695 0 1 0 .187-11.388h-.187Z" fill="#e6e6e6"/><circle cx="385.946" cy="234.004" r="20.601" fill="#fff"/><path data-name="Path 40" d="M422.894 217.742a5.105 5.105 0 0 0 0 10.207h127.97a5.105 5.105 0 1 0 .167-10.207q-.084-.002-.168 0ZM422.894 240.059a5.105 5.105 0 0 0 0 10.208h210.372a5.105 5.105 0 1 0 .167-10.208h-.167Z" fill="#fff"/><path d="m828.118 260.027-42.136 4.788c.575-12.942-.52-25.015-4.789-35.432l34.475-12.45c-3.089 12.889 2.713 27.59 12.45 43.094Z" fill="#a0616a"/><path d="m833.2 403.754 13.648 24.365a12.66 12.66 0 0 1-4.858 17.232l-.164.09a12.66 12.66 0 0 1-18.626-9.934l-2.22-23.284-7.561-88.878-12.898-58.46 26.78-7.603 12.464 65.74Z" fill="#a0616a"/><path d="m855.89 663.193-17.238-.958-38.306-170.46-81.399 171.418-17.237-.958 49.797-264.308.957-47.882 62.247-3.83c23.264 25.584 36.44 52.044 38.305 79.483Z" fill="#2f2e41"/><path d="M717.549 693.122c-3.263 1.49-6.4-10.933-8.748-7.87-7.887 10.282-26.249 7.056-26.166 5.869a4.812 4.812 0 0 1-3.11-6.054q.036-.11.076-.217a4.812 4.812 0 0 1 3.339-2.98l8.187-2.046 12.855-22.608 13.124-.886a31.353 31.353 0 0 1 5.799 26.747c-1.191 4.86-3.03 8.984-5.356 10.045ZM853.61 693.122c-3.262 1.49-6.398-10.932-8.748-7.87-9.085 11.84-26.778 7.753-26.166 5.869a4.812 4.812 0 0 1-3.109-6.054q.035-.11.076-.217a4.812 4.812 0 0 1 3.339-2.98l8.187-2.046 12.855-22.608 14.01-1.773.354.579a36.123 36.123 0 0 1 3.87 29.537c-1.164 3.734-2.75 6.688-4.667 7.563Z" fill="#2f2e41"/><circle cx="789.812" cy="208.315" r="29.687" fill="#a0616a"/><path d="m816.626 351.003-64.162 3.83-5.746-36.39c-5.948-16.358 1.487-31.385 13.407-45.966l24.899-27.772 34.475-.958a25.75 25.75 0 0 1 17.52 21.306 101.92 101.92 0 0 1-10.66 59.206Z" fill="#e6e6e6"/><path d="m746.718 432.402 4.592 27.547a12.66 12.66 0 0 1-10.407 14.57l-.184.029a12.66 12.66 0 0 1-14.162-15.655l5.797-22.66 22.983-86.188 7.661-59.373 27.772 1.915-10.534 66.077Z" fill="#a0616a"/><path d="M825.413 322.752h-.687c-12.949-11.22-24.202-23.799-15.114-39.546-7.708-19.562-16.3-39.877-15.78-52.444a36.856 36.856 0 0 0-8.373-25.624c-8.19-9.567-10.013-13.84-24.971-10.222a28.343 28.343 0 0 1 27.947-28.734q.712-.01 1.423.016l9.346.34c7.149.26 29.996 3.182 34.901 7.9a22.76 22.76 0 0 1 6.516 19.137c-.917 7.8 1.544 14.687 8.118 20.462 12.588 13.016 17.78 26.522 10.643 40.844-5.387 15.161-5.13 27.641 8.765 33.64 4.513 17.32-24.837 34.231-42.734 34.231Z" fill="#2f2e41"/><path d="M793.643 302.163c-11.887-9.093-23.702-9.812-35.433-.957l3.204-36.365a19.772 19.772 0 0 1 18.828-20.09 19.772 19.772 0 0 1 20.69 18.809q.03.634.02 1.27Z" fill="#e6e6e6"/><ellipse cx="790.291" cy="214.061" rx="3.831" ry="7.182" fill="#a0616a"/></svg>