<svg version="1.1" id="ef501d01-dc5e-4abd-bb12-134d43e6f423" xmlns="http://www.w3.org/2000/svg" x="0" y="0" viewBox="0 0 991.5 622.8" style="enable-background:new 0 0 991.5 622.8" xml:space="preserve"><style>.st1{fill:#fff}.st2{fill:none;stroke:#3f3d56;stroke-miterlimit:10}.st3{fill:#797bf2}.st4{fill:#57b894}.st7{fill:#55536e}.st8{fill:#c8dbfb}.st9{opacity:.1;enable-background:new}.st10{fill:#e62965}.st11{fill:#fbbebe}.st14{fill:none;stroke:#f2f2f2;stroke-miterlimit:10}.st15{fill:#46455b}</style><path d="M162 23h690.7c17.1 0 31 13.9 31 31v465.2c0 17.1-13.9 31-31 31H162c-17.1 0-31-13.9-31-31V54c0-17.2 13.9-31 31-31z" style="fill:#f2f2f2"/><path class="st1" d="M273.5 134.5H768c7.1 0 12.9 5.8 12.9 12.9v17.4c0 7.1-5.8 12.9-12.9 12.9H273.5c-7.1 0-12.9-5.8-12.9-12.9v-17.4c0-7.2 5.8-12.9 12.9-12.9z"/><path class="st2" d="M185.3.5H876c17.1 0 31 13.9 31 31v465.2c0 17.1-13.9 31-31 31H185.3c-17.1 0-31-13.9-31-31V31.5c0-17.1 13.9-31 31-31zM154.8 41.1h752.7"/><circle class="st3" cx="180.3" cy="24.3" r="10.4"/><circle class="st3" cx="209.6" cy="24.7" r="10.4"/><circle class="st3" cx="239" cy="25.1" r="10.4"/><circle class="st2" cx="182.9" cy="20.8" r="10.4"/><circle class="st2" cx="212.2" cy="21.2" r="10.4"/><circle class="st2" cx="241.6" cy="21.7" r="10.4"/><path class="st2" d="M283 125.8h494.5c7.1 0 12.9 5.8 12.9 12.9v17.4c0 7.1-5.8 12.9-12.9 12.9H283c-7.1 0-12.9-5.8-12.9-12.9v-17.4c0-7.1 5.8-12.9 12.9-12.9z"/><circle class="st2" cx="759.4" cy="141" r="6.9"/><path class="st2" d="m764.5 146.3 12 12.5"/><path class="st3" d="M290.9 144.8h77.8c4.3 0 7.8 3.5 7.8 7.8s-3.5 7.8-7.8 7.8h-77.8c-4.3 0-7.8-3.5-7.8-7.8s3.5-7.8 7.8-7.8z"/><path class="st2" d="M293.5 140.5h77.8c4.3 0 7.8 3.5 7.8 7.8s-3.5 7.8-7.8 7.8h-77.8c-4.3 0-7.8-3.5-7.8-7.8s3.5-7.8 7.8-7.8z"/><path class="st3" d="M257.2 237.3H335c4.3 0 7.8 3.5 7.8 7.8s-3.5 7.8-7.8 7.8h-77.8c-4.3 0-7.8-3.5-7.8-7.8s3.5-7.8 7.8-7.8z"/><path class="st1" d="M257.2 286.6H335c4.3 0 7.8 3.5 7.8 7.8s-3.5 7.8-7.8 7.8h-77.8c-4.3 0-7.8-3.5-7.8-7.8 0-4.4 3.5-7.8 7.8-7.8zM257.2 335.8H335c4.3 0 7.8 3.5 7.8 7.8s-3.5 7.8-7.8 7.8h-77.8c-4.3 0-7.8-3.5-7.8-7.8s3.5-7.8 7.8-7.8zM257.2 385.1H335c4.3 0 7.8 3.5 7.8 7.8s-3.5 7.8-7.8 7.8h-77.8c-4.3 0-7.8-3.5-7.8-7.8s3.5-7.8 7.8-7.8zM257.2 434.3H335c4.3 0 7.8 3.5 7.8 7.8s-3.5 7.8-7.8 7.8h-77.8c-4.3 0-7.8-3.5-7.8-7.8s3.5-7.8 7.8-7.8z"/><path class="st2" d="M261.5 232.1h77.8c4.3 0 7.8 3.5 7.8 7.8s-3.5 7.8-7.8 7.8h-77.8c-4.3 0-7.8-3.5-7.8-7.8s3.5-7.8 7.8-7.8zM261.5 281.4h77.8c4.3 0 7.8 3.5 7.8 7.8s-3.5 7.8-7.8 7.8h-77.8c-4.3 0-7.8-3.5-7.8-7.8s3.5-7.8 7.8-7.8zM261.5 330.6h77.8c4.3 0 7.8 3.5 7.8 7.8s-3.5 7.8-7.8 7.8h-77.8c-4.3 0-7.8-3.5-7.8-7.8s3.5-7.8 7.8-7.8zM261.5 379.9h77.8c4.3 0 7.8 3.5 7.8 7.8s-3.5 7.8-7.8 7.8h-77.8c-4.3 0-7.8-3.5-7.8-7.8s3.5-7.8 7.8-7.8zM261.5 429.2h77.8c4.3 0 7.8 3.5 7.8 7.8s-3.5 7.8-7.8 7.8h-77.8c-4.3 0-7.8-3.5-7.8-7.8 0-4.4 3.5-7.8 7.8-7.8z"/><path class="st4" d="M758.1 237.3h40.4c2.2 0 4 1.8 4 4v7.5c0 2.2-1.8 4-4 4h-40.4c-2.2 0-4-1.8-4-4v-7.5c0-2.2 1.8-4 4-4z"/><path class="st1" d="M758.1 286.6h40.4c2.2 0 4 1.8 4 4v7.5c0 2.2-1.8 4-4 4h-40.4c-2.2 0-4-1.8-4-4v-7.5c0-2.2 1.8-4 4-4zM758.1 335.8h40.4c2.2 0 4 1.8 4 4v7.5c0 2.2-1.8 4-4 4h-40.4c-2.2 0-4-1.8-4-4v-7.5c0-2.2 1.8-4 4-4zM758.1 385.1h40.4c2.2 0 4 1.8 4 4v7.5c0 2.2-1.8 4-4 4h-40.4c-2.2 0-4-1.8-4-4v-7.5c0-2.2 1.8-4 4-4zM758.1 434.3h40.4c2.2 0 4 1.8 4 4v7.5c0 2.2-1.8 4-4 4h-40.4c-2.2 0-4-1.8-4-4v-7.5c0-2.2 1.8-4 4-4z"/><path class="st2" d="M762.4 232.1h40.4c2.2 0 4 1.8 4 4v7.5c0 2.2-1.8 4-4 4h-40.4c-2.2 0-4-1.8-4-4v-7.5c0-2.2 1.8-4 4-4zM762.4 281.4h40.4c2.2 0 4 1.8 4 4v7.5c0 2.2-1.8 4-4 4h-40.4c-2.2 0-4-1.8-4-4v-7.5c0-2.2 1.8-4 4-4zM762.4 330.6h40.4c2.2 0 4 1.8 4 4v7.5c0 2.2-1.8 4-4 4h-40.4c-2.2 0-4-1.8-4-4v-7.5c0-2.2 1.8-4 4-4zM762.4 379.9h40.4c2.2 0 4 1.8 4 4v7.5c0 2.2-1.8 4-4 4h-40.4c-2.2 0-4-1.8-4-4v-7.5c0-2.2 1.8-4 4-4zM762.4 429.2h40.4c2.2 0 4 1.8 4 4v7.5c0 2.2-1.8 4-4 4h-40.4c-2.2 0-4-1.8-4-4v-7.5c0-2.3 1.8-4 4-4z"/><path style="fill:#2f2e41" d="M154.9 317.9h47.5v62.3h-47.5z"/><path d="M117.5 585.1s13.3 0 17.3 4.3 2.5 14.5 6.8 16 14.2 13.9 5.6 15.4c-6 1.1-18.1 1.6-24.8 1.7-2.9.1-5.8-.9-8.2-2.6-1.6-1.2-3.3-2.4-5-3.4-4.6-2.8 0-21.3 0-21.3l8.3-10.1z" style="fill:#575a89"/><path class="st7" d="M117.5 585.1s13.3 0 17.3 4.3 2.5 14.5 6.8 16 14.2 13.9 5.6 15.4c-6 1.1-18.1 1.6-24.8 1.7-2.9.1-5.8-.9-8.2-2.6-1.6-1.2-3.3-2.4-5-3.4-4.6-2.8 0-21.3 0-21.3l8.3-10.1z"/><path class="st8" d="M168.6 464.9c0 3.4-2.8 19.7-2.8 19.7l-28.7 109.8s-21-5.2-22.8-4.9c-.4.1-.3-1.7.1-4.6.9-6.1 3.1-17 4.9-25.7 1.5-7.1 2.6-12.8 2.6-13.4 0-.8.7-13.5 1.5-28.3 1.1-21.2 2.5-46.7 2.5-46.7l-4.6-67.2 1.2-26.5 7.4-31.8 49 13.3 2.3 15.6.2 1s-4.6 71.5-7.1 73.7-5.7 12.6-5.7 16z"/><path class="st7" d="M108.8 570.6s-18.5-.3-20.4 1.9c-1.3 1.5-8.3 16.2-12.6 25.3-3.7 7.6-1.1 16.8 6 21.5 3.3 2.1 7.3 3 11.2 2.5 16.7-1.5 15.7-12 15.7-12l4.9-16-1.2-21-3.6-2.2z"/><path class="st9" d="M114.5 584.8c.9-6.1 3.1-17 4.9-25.7-.7 10.4-3.3 26.6-4.1 26.1-.3-.2-.5-.3-.8-.4zM137.5 448.8c.3 1.9-3.1 7.4-5.2 14.2s-8 49.3-8 49.3-.3 2-.7 5.1c1.1-21.2 2.5-46.7 2.5-46.7l-4.6-67.2 1.2-26.5 7.4-31.8 49 13.3 2.3 15.6-47.3-18.1s-.9 16.7-.9 20 4 71 4.3 72.8z"/><path class="st8" d="M85.4 312.5s-14.8 19.7-10.5 41.3c4.3 21.6 9.9 75.9 13.9 81.1s0 15.1 0 15.1-7.1 93.1-6.5 96.2 1.9 17.6 3.4 20 .6 10.5.6 10.5 25.3 7.7 26.2 8.3 4.3-21.3 4.3-30.5 4.6-42.2 4.6-42.2 5.9-42.6 8-49.3 5.6-12.3 5.2-14.2-4.3-69.4-4.3-72.8.9-20 .9-20l50.1 19.2s11.2-52 5.5-57.2-101.4-5.5-101.4-5.5z"/><ellipse class="st7" cx="127.5" cy="120.1" rx="38.2" ry="15"/><path class="st10" d="M105.4 73c-4.7 4-8.1 9.3-9.8 15.2-.6 2.3-.9 4.9.6 6.8.6.5 1.1 1.1 1.5 1.8.3 1 .3 2 0 3 0 1.9.6 3.8 1.5 5.4l5.1 11.2c.6-1 .6-2.2 1.1-3.1 1.1-1.9 3.8-2.1 6.1-2.2l7.1-.2c1.9.1 3.8-.2 5.6-1 2.1-1 3.3-3.1 5-4.7 2.1-2 4.9-3.2 7.8-3.4-1 1.5-2.3 2.9-3.7 4.1 4-.4 7.7-2.3 10.4-5.3v3.3c1.2.4 2.2-1.3 3.5-1.2 1.5.2 1.2 2.2 1.1 3.7 0 2.7 2.2 4.9 4.9 5 1.6-6.6 3.1-13.4 2.5-20.2s-3.8-13.7-9.8-17.4c-2.5-1.4-5.1-2.4-7.9-2.9-5.7-1.2-11.7-1.1-17.5-1-3.4-.1-6.7.2-10 1-3.2.9-6.3 2.7-8 5.4"/><path class="st11" d="M111 115.8s-1.5 12.6-3.7 12.6 9.3 20.7 9.3 20.7l30.8 2.5 18.5-11.7-8.9-15.1s-14.5-2.5-12.6-10.8-33.4 1.8-33.4 1.8z"/><path class="st9" d="M111 115.8s-1.5 12.6-3.7 12.6 9.3 20.7 9.3 20.7l30.8 2.5 18.5-11.7-8.9-15.1s-14.5-2.5-12.6-10.8-33.4 1.8-33.4 1.8z"/><circle class="st11" cx="127.6" cy="101.6" r="26.8"/><path d="M130.1 142.9s18.5.9 24.4-19.7c0 0 18.2 3.7 19.7 12.3s24.1 176.4 16.7 183.8-82.6 0-99.3 0-26.2 3.4-26.2 3.4l22.5-105.2 2.5-71.9 4.3-19.1s12.7-3.8 14.2-.4 5.8 20.2 21.2 16.8z" style="fill:#819bc1"/><path class="st7" d="M109.7 123.2s-7.7-3.1-13.2 0-21.6 1.9-23.7 5.2c-2.1 3.3-21 22.5-20.4 25s15.1 54.6 17.9 56.4-3.7 110.4-12 123.4-9.9 51.5-5.9 57.1.6-3.4 8.9-6.8 16.3-23.7 16.3-23.7 5.2-59.2 8.6-72.2 32.4-58.9 30.2-88.2-17.6-58.6-14.2-62.6 10.2-9 7.5-13.6zM149.7 122.4s12.5-6 20.2.8c7.7 6.8 38.2 17.6 37.9 24.4s-21.9 58-21.9 58 .9 42.2 5.2 54.3c4.3 12.1 32.1 111.6 21.9 118.7-10.2 7.1-22.5 10.8-30.8 12.3s.6-16.3 1.5-25.3 12.3-41-3.1-60.1-43.2-77.1-41.3-108.9 5.2-41.6 5.2-41.6 10.1-30.4 5.2-32.6z"/><path class="st7" d="M58.6 151.6h-5.4s-4.7 21.3-10 24.4-8 7.4-8 9.9-3.7 5.9-7.1 9.3-10.5 11.1-9.6 15.7-.6 30.5 7.4 30.5 24.7-2.5 27.1-6.2S72.1 205 72.1 205l-13.5-53.4z"/><path class="st10" d="M105.7 61.9c-4.5 4.1-7.7 9.3-9.2 15.2-.6 2.3-.9 4.9.5 6.8.5.5 1 1.1 1.4 1.8.2 1 .2 2 0 3 0 1.9.5 3.8 1.4 5.4l4.8 11.2c.5-1 .5-2.2 1.1-3.1 1.1-1.9 3.6-2.1 5.8-2.2l6.7-.2c1.8.1 3.6-.2 5.3-1 2-1 3.1-3.1 4.7-4.7 2-2 4.6-3.2 7.4-3.4-1 1.5-2.1 2.9-3.5 4.1 3.8-.4 7.3-2.3 9.8-5.3v3.3c1.1.4 2.1-1.3 3.3-1.2 1.4.2 1.2 2.2 1.1 3.7 0 2.6 2 4.8 4.6 5 1.5-6.6 2.9-13.4 2.4-20.2s-3.6-13.7-9.3-17.4c-2.3-1.4-4.9-2.4-7.5-2.9-5.4-1.2-11-1.1-16.6-1-3.2-.1-6.4.2-9.4 1-3.1.8-5.8 2.7-7.5 5.4"/><path class="st3" d="M73.9 136.8h77.8c4.3 0 7.8 3.5 7.8 7.8s-3.5 7.8-7.8 7.8H73.9c-4.3 0-7.8-3.5-7.8-7.8s3.5-7.8 7.8-7.8z"/><path class="st14" d="M76.5 132.5h77.8c4.3 0 7.8 3.5 7.8 7.8s-3.5 7.8-7.8 7.8H76.5c-4.3 0-7.8-3.5-7.8-7.8s3.5-7.8 7.8-7.8z"/><path class="st11" d="M46.5 183s12.6-14.5 10.8-19.1 4-38.9 14.8-35.5c10.8 3.4 6.2 37.6 6.2 37.6l-16.7 28.4-8.6-3.1-6.5-8.3z"/><path class="st7" d="m50.2 173.8-23.7 29s-11.4 30.5 4 30.5 27.4-20 27.4-20l12.6-30.5s-8.9 12.6-15.7 5.9c-3.9-4-5.7-9.5-4.6-14.9z"/><path class="st4" d="M132.1 329.3h40.4c2.2 0 4 1.8 4 4v7.5c0 2.2-1.8 4-4 4h-40.4c-2.2 0-4-1.8-4-4v-7.5c0-2.2 1.8-4 4-4z"/><path class="st14" d="M136.4 324.1h40.4c2.2 0 4 1.8 4 4v7.5c0 2.2-1.8 4-4 4h-40.4c-2.2 0-4-1.8-4-4v-7.5c0-2.2 1.8-4 4-4z"/><path class="st11" d="M170.5 309.8s-22.5 31.7-8.6 38.2 31.5-22.5 31.5-22.5l-22.9-15.7z"/><path class="st7" d="m195.5 142.9 12.3 4.6s7.4 36.7 9.9 45.3 5.9 82-2.5 96.8-24.4 44.7-24.4 44.7-14.8-21.9-25-20.4c0 0 14.2-12.3 16.3-18.8s8.6-25 8.9-35.5-1-51.3-8.4-58.5 12.9-58.2 12.9-58.2z"/><path class="st2" d="M0 622.3h253"/><path class="st15" d="M802.1 460.4c0 59 37 106.7 82.7 106.7"/><path class="st3" d="M884.8 567c0-59.6 41.3-107.9 92.3-107.9"/><path class="st3" d="M832.1 465.7c0 56 23.6 101.3 52.7 101.3"/><path class="st15" d="M884.8 567c0-76.2 47.7-137.8 106.7-137.8"/><path d="M867.4 567.8s11.7-.4 15.3-2.9 18-5.5 18.9-1.5 17.6 20.1 4.4 20.2-30.8-2.1-34.3-4.2c-3.6-2.2-4.3-11.6-4.3-11.6z" style="fill:#a8a8a8"/><path d="M906.2 582.2c-13.2.1-30.8-2.1-34.3-4.2-2.7-1.6-3.8-7.5-4.1-10.2h-.4s.7 9.5 4.3 11.6 21.1 4.3 34.3 4.2c3.8 0 5.1-1.4 5.1-3.4-.6 1.2-2.1 2-4.9 2z" style="opacity:.2;enable-background:new"/><path class="st2" d="M801.5 583.8h176"/></svg>