<svg version="1.1" id="OBJECTS" xmlns="http://www.w3.org/2000/svg" x="0" y="0" viewBox="0 0 500 369.9" style="enable-background:new 0 0 500 369.9" xml:space="preserve"><style>.st0{fill:#c8dbfb}.st1{fill:none;stroke:#c8dbfb;stroke-linecap:round;stroke-linejoin:round}.st3{fill:#7105ff}.st4{fill:#5193f4}.st5{fill:none;stroke:#0b43a4;stroke-linecap:round;stroke-linejoin:round;stroke-miterlimit:10}.st6{fill:#00ad9f}.st7{fill:none;stroke:#00ad9f;stroke-linecap:round;stroke-linejoin:round;stroke-miterlimit:10}.st8{fill:#0056ec}.st9{fill:#52d2bc}.st10{opacity:.2;fill:#5275a0}.st11{fill:#7ee8d4}.st12{fill:#4a49ca}.st13,.st14{fill:none;stroke:#0b43a4;stroke-linecap:round;stroke-linejoin:round;stroke-miterlimit:10;stroke-dasharray:4}.st14{stroke:#c8dbfb}.st15{fill:#0b43a4}.st16{fill:#fff}.st17{fill:#e62965}.st18{fill:#0c2340}.st19{fill:#ffb9a3}.st20{fill:#5b07e0}.st21{fill:#d32966}</style><ellipse class="st0" cx="180.8" cy="348.2" rx="38.6" ry="3.6"/><ellipse class="st0" cx="379.4" cy="348.2" rx="38.6" ry="3.6"/><path class="st1" d="M461 94c-.1-.7-.2-1.3-.4-2"/><path d="M459.7 88.2C452.8 64.7 430.8 66.9 411 67c-21.4 0-352.5.7-352.5.7-33.3.1-30.1 48.1-4 48.1 15 0 20.7 28.1-5.2 28.2-15.5 0-16 19.7-5.6 23.7" style="fill:none;stroke:#c8dbfb;stroke-linecap:round;stroke-linejoin:round;stroke-dasharray:3.9929,3.9929"/><path class="st1" d="M45.6 168.1c.6.1 1.3.2 2 .2"/><path class="st3" d="M51.6 167.4c.4 2.6-1.3 5.1-3.9 5.5-2.6.4-5.1-1.3-5.5-3.9-.4-2.6 1.3-5.1 3.9-5.5 2.6-.5 5.1 1.3 5.5 3.9zM465.7 96.2c-.5 2.6-3 4.3-5.6 3.9-2.6-.5-4.3-3-3.9-5.6s3-4.3 5.6-3.9c2.7.5 4.4 3 3.9 5.6z"/><path class="st4" d="M100.4 132.4c-.7 3.9-1.7 7.7-2.9 11.4-2.6 8.1-6.3 15.9-10 23.6-1.9 4-9.8 13.3-14 15.1.5-10.5.5-22.7-.7-33.3-1.2-10.2 2.5-17.9-1.5-27.4-.5-1.2-1-2.4-1.6-3.6-2-4.5-4-9-4.6-13.9-.8-6.2 1.1-13.2 6.4-16.4 3.8-2.3 8.8-2.2 12.9-.4 4.1 1.8 7.4 5.1 9.9 8.8 7.1 10.4 8.3 23.8 6.1 36.1z"/><path class="st5" d="M81.8 98.4c7.8 11.1 8.5 23.9 9.2 37.5.7 13.5-2.6 27.2-9.3 39"/><path class="st6" d="M81.5 302.4c-5.5-4.8-11-9.8-15.1-15.9-3.5-5.3-5.8-11.3-8.9-16.9-2-3.6-4.3-7.1-5.5-11.1-1.2-4-.9-8.7 1.9-11.7 2.9-3.1 8-3.6 12-2s7 5 9.4 8.6c3.1 4.8 5.2 10.3 6 15.9.8 5.1.6 10.4 1.4 15.5.7 4.8 2.3 9.4 4.4 13.7 1.8 4 6.5 11 7.7 15.1-3.3 1.7-10.9-9.1-13.3-11.2z"/><path class="st7" d="M62.3 252.1c5.2 2.3 7.3 8.5 8.4 14.1 1.2 6.4 1 13.3 3.9 19 5.5 10.9 12.7 23.3 18 27"/><path class="st8" d="M54.5 287.5c-4.6-1.8-10.6-2.5-13.6 1.4-2.4 3.3-1.2 8 .5 11.7 1.4 3.2 3.2 6.4 6.2 8.1 2.1 1.2 4.5 1.5 6.8 1.8 6.5.8 13.1 1.2 19.7 1.1 7.6 0 16.9 3.1 23.2 7.9-7.9-15.1-27.5-26-42.8-32z"/><path class="st5" d="M46.5 297.3c5.8.2 11.6.7 17.2 2.3 5.7 1.7 27.6 11.7 31 16"/><path class="st9" d="M104.2 256.5c-5.9-9.3-16.1-15.8-27-17.2-8.1-1.1-16.4.4-24.3-1.3-8.4-1.8-15.9-7.1-20.3-14.5-4.4-7.3-5.5-16.5-3-24.7 1.9-6.2 6.1-12.1 12.3-14.1 3.4-1.1 7.1-.9 10.5-.1 3.2.8 6.1 2.1 8.8 3.8 6.2 3.9 11.2 10 15 16.4 3.4 5.9 11.9 15 17.7 20.9 3.4 3.5 5.8 5.8 5.8 5.8 4 5 2.2 19.2 4.5 25z"/><path class="st7" d="M40.1 202.7c19.4 8.7 40.5 20.2 54.2 36.4"/><path class="st10" d="M96.2 236.9s-28.9-23.4-34.9-48.5c6.2 3.9 11.2 10 15 16.4 3.4 5.9 11.9 15 17.7 20.9.6 3.2 1.4 6.9 2.2 11.2zM97.5 143.8c-2.6 8.1-6.3 15.9-10 23.6-1.9 4-9.8 13.3-14 15.1.5-10.5.5-22.7-.7-33.3-1.2-10.2 2.5-17.9-1.5-27.4-.5-1.2-1-2.4-1.6-3.6.4.1.7.3 1.1.4 6.6 2.8 9.6 9.8 10.2 16.5.5 5.6-.5 11.2-1.3 16.7-.3 2.6-.6 5.2-.1 7.7v.1c.7 3 5.1 2.8 5.6-.2l1.8-9.3c.5-2.8 1.1-5.7 3.4-7.6.9-.8 2.1-1.3 3.2-1.2 2 0 3.1 1.1 3.9 2.5z"/><path class="st11" d="M96.2 231.1c-4.6-23.8-7-27.5-5-33.4 2.6-7.6 1.1-15.3 3.5-22.9 2.4-7.7 4.1-15.9 2.1-23.7-.6-2.5-1.9-5.1-4.8-5.2-1.2 0-2.3.4-3.2 1.2-2.3 1.9-2.9 4.9-3.4 7.6l-1.7 9.3c-.6 3-4.9 3.2-5.6.2v-.1c-.6-2.5-.3-5.1.1-7.7.7-5.6 1.8-11.1 1.3-16.7-.6-6.8-3.6-13.7-10.2-16.5-2.3-1-5-1.2-7.4-.6-6.9 1.8-8.7 8.5-7.6 14.2.7 4 2.6 7.7 4.3 11.5 4.2 9.1 1.1 17.4 1.7 27.4 1.5 27.5 35.9 55.4 35.9 55.4z"/><path class="st7" d="M65.5 129.7c3.4 16.9 6.8 34 13.4 50 1.9 4.7 2.9 10.8 14 23.6"/><path class="st4" d="M197.8 134.1c-3.5-4-6.8-8.1-10.2-12-2.2-2.6-4.5-5-7-7.4-1.2-1.2-2.5-2.3-3.8-3.4-7.9-6.5-16.8-12-26.2-16-5.7-2.4-11.7-4.5-16.6-8.3-4.8-3.9-8.3-10.3-6.7-16.3 1.2-4.3 4.8-7.7 9.1-9.2 4.2-1.5 8.9-1.4 13.2-.5 12.2 2.6 22.4 11.4 29.3 21.8.1.2.3.4.4.6 5.1 7.8 8.6 16.4 11.7 25.2 1 2.8 1.9 5.7 2.9 8.5 1.4 4 5.7 12.8 3.9 17z"/><path class="st5" d="M142 71.1c13.3 2.5 22.7 11.4 32.6 20.6s17 21.4 20.4 34.5"/><path class="st10" d="M187.6 122.1c-.1 1.4-.1 2.8.2 4.2-3.3-.8-5.6-5.9-7.2-11.6-1.5-5.5-2.2-11.4-2.5-14.1-.4-5.8-.1-11.6 1.1-17.3 5.1 7.8 8.6 16.4 11.7 25.2-1.1 3.2-2 6.3-2.7 9.6-.2 1.2-.5 2.6-.6 4z"/><path class="st9" d="M210.7 74c-1.1 5-4.1 9.3-6.8 13.7-1.4 2.3-2.7 4.7-3.9 7.1-3.9 7.7-6.9 15.8-8.9 24.2-.6 2.8-1 5.4-.5 8.2-6.6-1.5-9.2-20.1-9.6-25.7-.8-10 .9-20.2 5-29.4 1.8-4 4.1-8 7.7-10.5 3.6-2.6 8.6-3.5 12.4-1.2 2.3 1.3 3.7 3.6 4.4 6.1.7 2.4.8 5.1.2 7.5z"/><path class="st7" d="M188.1 121.7c-4.1-10.2-1.6-31.9 4.9-45.6 2-4.1 4.8-8 8.7-10.3"/><path class="st10" d="M210.7 74c-1.1 5-4.1 9.3-6.8 13.7-1.4 2.3-2.7 4.7-3.9 7.1-1.8-3-3-6.4-3.4-9.8-.6-5.8 1.7-12 6.4-15.5 2.2-1.6 4.8-2.5 7.5-2.9.7 2.3.8 5 .2 7.4z"/><path class="st6" d="M248.6 117.4c-.3 1.9-.9 3.7-1.7 5.5-2.9 6.3-9 11.7-18.2 16.1 0 0-.5-10-.6-12.6-.4-11.4-12.8-17.7-20.7-26.1-4-4.2-7-9.6-7.6-15.4-.6-5.8 1.7-12 6.4-15.5 4-2.9 9.1-3.5 14-3.1 7.9.6 15.8 3.9 20.7 10.1.2.2.4.5.6.7 3 4.1 4.5 9.1 5.7 14 1.9 8.7 2.8 17.6 1.4 26.3z"/><path class="st7" d="M209.6 75.6c8.6 4.4 17.2 9.8 22.2 18.1 7 11.5 5.4 26.5.1 38.9"/><path class="st9" d="M392.1 191.1c5.5-9 2.7-20.6 4.6-30.9 1.5-8 5.9-15.3 12.2-20.4 4-3.2 9.6-5.4 14.1-3 1 .5 2.1 1.2 3.1.7.6-.3.8-1 .9-1.7 1.1-5.6-1.5-11.7.6-17 1.2-2.8 3.6-5 6.2-6.6 5-3.2 10.8-5 16.8-5.3 1.6-.1 3.2 0 4.6.7 2.5 1.3 3.7 4.4 3.4 7.3-.3 2.8-1.9 5.3-3.6 7.6-5.7 7.5-14.2 14-15.3 23.4-.1 1.2-.1 2.4.4 3.5.5 1 1.5 1.8 2.1 2.8 1.8 3.2-1.6 6.9-5 8.5-3 1.5-6.4 2.4-9.7 2.7-2.3.2-4.9.3-6.5 2-2.9 3.2.4 8.2-.2 12.5-.4 2.7-2.3 4.8-4.2 6.6-3.6 3.4-7.5 6.5-11.7 9.2-3.4 2.2-7 4.1-10 6.8s-5.4 6.3-5.6 10.3"/><path class="st7" d="M399.3 182.3c.9-4.4 2.9-8.4 4.9-12.4 3.1-6.2 6.3-12.5 11.1-17.6 3.6-3.9 8-6.9 11.7-10.7 2.6-2.7 4.8-5.8 6.6-9.1.9-1.8 1.8-3.7 3-5.3 1.5-1.9 3.6-3.2 5.4-4.9 2.4-2.2 4.4-4.9 5.7-7.9"/><path class="st4" d="M470.6 197.3c-1.2 4.7-3.1 9.4-6.2 13.2-2.2 2.6-4.9 4.6-7.8 6.3-1.5.9-3.1 1.6-4.7 2.3-6.3 2.6-13 4.1-19.8 4.4-9.9.4-20-1.8-29.5 1-4.4 1.3-8.4 3.6-11.6 6.8-2.1 1.9-3.8 4.2-5.2 6.6l1.3-8.2c2.4-8.8 4.8-17.8 9.7-25.5 3.1-5 7.2-9.4 11.6-13.4 7-6.4 14.7-12.1 23.2-16.2 6.9-3.3 14.5-5.7 22.1-4.8 7.6.9 15 5.7 17.4 13 1.4 4.7.7 9.8-.5 14.5z"/><path class="st5" d="M393.4 223.4c7.3-10.7 18.1-19 30.4-23.1 7.7-2.6 15.8-3.5 23.5-5.8 7.8-2.2 15.5-6 20.1-12.7"/><path class="st9" d="M398.2 302.2c.4-11 6.1-21.2 13.1-29.8 5.8-7.2 12.7-13.7 21.3-17 2.7-1 5.7-1.7 8.5-1s5.3 3.1 5.4 6c0 2.4-1.6 4.6-3.3 6.3-5.7 5.7-13 9.3-19.8 13.4-11.8 7.1-23 16.6-27.7 29.6"/><path class="st7" d="M402.5 292.5c7.2-16.1 25.8-30.4 38.1-32.2"/><path class="st6" d="M393.7 311c-.1-1.8 5.9-6.7 7.3-7.9 7.5-6.8 16.5-11.8 25.9-14.8 3.8-1.2 7.9-2.1 11.7-1.1 3.8.9 7.3 4.1 7.7 8.2.4 4-2.3 7.9-5.7 9.9-3.4 1.9-7.4 2.2-11.3 2-5.9-.3-11.7-1.8-17.6-1.8s-14.3.5-18 5.5z"/><path class="st7" d="M399.8 305.3c12.1-6.6 30.4-10.8 43.7-9.2"/><path class="st10" d="M248.6 117.4c-.3 1.9-.9 3.7-1.7 5.5-4.2-9-8-20.8-8.9-35.2-.2-3.9.8-7.9 2.9-11.3.2.2.4.5.6.7 3 4.1 4.5 9.1 5.7 14 1.9 8.7 2.8 17.6 1.4 26.3z"/><path class="st11" d="M290.5 116.9c9-3.2 18.4-5.8 26.7-10.7 2.5-1.5 4.9-3.2 6.6-5.5 1.8-2.3 2.8-5.2 2.5-8.1-.4-2.9-2.3-5.7-1.6-8.6.4-1.9 1.8-3.4 2.9-5 2.6-3.8 3.4-8.8 2-13.3-1.4-4.8-5-8.6-7-13.1-1.7-3.7-2.3-7.9-1.7-11.9-7.6.1-14.5 4.2-22 5.6-5.7 1.1-11.6.5-17.3 1.8-10.3 2.4-18.7 11.4-20.3 21.9-4.8-.8-9.9.9-13.3 4.4-3.5 3.8-5.5 9.1-5.2 14.3 2.3 37.4 23.8 57 23.8 57s20.4-27.6 23.9-28.8z"/><path class="st7" d="M270.2 116.6c-.9-9.2 2.3-18.4 6-26.9 3.6-8.3 7.8-16.4 13.3-23.5 5.6-7.1 12.7-13.2 21-16.7"/><path class="st7" d="M278.3 55.2c-.9 8.2-.3 18.1 1.9 26.2M281.7 78.4c9.4-6 23.9-9.7 35-9.1M258.7 80c11.3 4.8 11.8 21.4 12.1 26.1M273.9 95.5c8.7-6.2 21.2-8.1 30.4-5.8M297.5 51c-2.6 3.2-3.3 7-3 9.7M297 58.3c4-2 9.3-2.5 15-1.1"/><path class="st12" d="M74.3 76.4c1.1-.1 8.3-5.4 11.1-7.2.8-.5 1.6-1 2.1-1.8s.8-1.8.4-2.6c-.5-1.1-1.3-2.1-3.4-2.1-3.6 0-4.9 1.2-6.6 3-5.8 5.9-3.6 10.7-3.6 10.7zM106.8 98.1c3.2 1.4 6.5 2.8 10 2.4 1.3-.2 2.8-.8 3.2-2 .4-1.1-.1-2.3-1-3.1-.9-.8-2-1.1-3.1-1.4-4.2-1-10.1-.5-14.3.7 0 0 3.3 2.5 5.2 3.4zM127.6 51.4c-1.4-.9-3-2.1-3-3.7 0-1.7 1.7-2.9 3.4-3 1.7 0 3.2.9 4.5 2 5.3 4.7 4.7 10 4.7 10s-8-4.3-9.6-5.3zM131.8 37.2c-1.2-.5-2.5-1.2-3.2-2.3-.4-.6-.6-1.3-.3-1.9.4-1 1-2 3.6-1.5 8.2 1.5 10 7.1 10 7.1s-7.9-.5-10.1-1.4zM156 49.7c3.3-.3 6.7-1.9 8.8-4.5.8-1 1.5-2.1 1.8-3.3.3-1.2 0-2.6-1-3.5-1.2-1-3-.8-4.3 0-1.3.8-2.1 2.2-2.8 3.6-.8 1.9-2.5 7.7-2.5 7.7z"/><path class="st5" d="M96.9 170.3c-8-7.1-16-14.1-24-21.2-4.3-3.8-8.6-7.6-11.3-12.6-5.8-10.8-2.5-24.8 5.4-34.1 7.9-9.4 19.4-14.9 30.9-19 11.6-4 23.6-6.9 34.6-12.2 6.9-3.3 13.9-8.3 15.7-15.8 1.1-4.5.2-9.4-2.5-13.2-2.7-3.7-7.2-6.1-11.8-6.4"/><path class="st5" d="M161.6 42c-2.2 6.7-10.7 10.8-14.6 16.6M131 49.7c1.7 1.8 3.7 3.2 5.2 5.2 3.1 4.1 3.4 10.8-1.2 15M87.8 87.4c7.1 5.4 16.4 9.1 25.3 9.4M71.6 97.3c-3.3-9.6.3-21.1 8.4-27.2"/><path class="st12" d="M330 56.7c-.4-1.2-.4-2.6.5-3.5.7-.7 1.9-1 2.8-.6 7 3.1 6.3 14.1 6.3 14.1s-6.7-1-9.6-10zM329.9 77.3c-4.5 8.2 11.6 7.6 17.4 2.8 0-.1-13.5-9.9-17.4-2.8zM350.3 57.4c-1.1-1.5-1.5-3.7-.3-5.2.9-1.1 2.4-1.4 3.8-1.1 1.4.3 3.4 1.5 4.3 2.6 5.3 6.6 2.8 13.1 2.8 13.1s-8.8-7-10.6-9.4zM414.5 77.7c-.4-1.3-.3-2.8.7-3.7.6-.6 1.5-.8 2.4-.7.8.1 1.6.4 2.4.7 1.6.8 2.9 2.1 3.7 3.7 2 4.1.6 9.2.6 9.2s-8.8-6-9.8-9.2zM394.3 92.8c-2.9-2.5-7.2-3.3-10.7-1.7-.9.4-1.7.9-2.3 1.7-1.3 1.8-.8 4.3.5 6.1 1.3 1.7 3.3 2.8 5.3 3.7 3.6 1.6 9.2 2 13 2.9 0 0 0-7.6-5.8-12.7z"/><path class="st5" d="M335.1 58.5c2.4 7.8 9.1 13.7 16.6 16.8 7.5 3.2 15.7 4 23.9 4.5 8.1.5 16.3.8 24.2 2.9 7.7 2.1 15.3 6.4 18.6 13.6 4 8.8.5 19.3-5.2 27.1-5.6 7.9-13.2 14.2-18.6 22.2-2.5 3.7-4.6 8-4.1 12.4.7 5.9 5.6 10.2 10.2 13.9"/><path class="st5" d="M353.8 55.6c5.4 6 9.7 15.3 10.7 23.2M335.7 78.6c3.1.8 6.2 1.6 9.4 1.6s6.9-1.8 9.2-4M419.8 78.2c2.9 2.8 4.6 6.7 4.8 10.7.1 4-2.1 8.9-4.7 11.9M389.6 96.4c5.8 5.3 10.8 9.6 17.2 14.1 2.9 2.1 8.7 4.7 11.3 4"/><path class="st10" d="M456.5 216.8c-1.5.9-3.1 1.6-4.7 2.3-6.3 2.6-13 4.1-19.8 4.4-9.9.4-20-1.8-29.5 1-4.4 1.3-8.4 3.6-11.6 6.8-.3.2-.7.3-1 .5-.8-6.7 15.9-15.4 21-17.7 9.1-4.1 19.4-5.9 29.4-5.1 4.4.4 8.9 1.2 12.5 3.7 1.4 1.1 2.8 2.5 3.7 4.1z"/><path class="st9" d="M440.2 213c4.4.3 8.9 1.2 12.5 3.7s6.2 6.9 5.3 11.3c-1 5-6.2 8.3-11.2 8.9s-10.2-.8-15.2-1.8c-11.1-2.3-22.5-2.8-33.8-1.5-2.8.3-5.5.9-7.9 2.3-.8-6.7 15.9-15.4 21-17.7 9.1-4.2 19.3-6 29.3-5.2z"/><path class="st7" d="M394.2 231.6c8.3-7.3 29.5-12.2 44.6-10.6 4.5.5 9.1 1.8 12.6 4.8"/><path class="st13" d="m378.8 149.8 80.9-.2c9.5 0 17.2 7.7 17.2 17.2v0c0 9.5-7.7 17.2-17.2 17.2l-55.3.1M134 209.2l-56.6.1c-5.4 0-9.7 4.4-9.7 9.7h0c0 5.4 4.4 9.7 9.7 9.7h16.5"/><path class="st14" d="M43.7 253c-19.4 0-19.8 28.9 4.9 28.9 24.7-.1 348.1-.7 363.4-.7 15.3 0 16.9-23.8-2-23.8-37.5.1-38.8-17.8-17.9-17.9"/><path class="st3" d="M48.3 252.2c.4 2.6-1.3 5.1-3.9 5.5-2.6.4-5.1-1.3-5.5-3.9-.4-2.6 1.3-5.1 3.9-5.5 2.5-.5 5 1.3 5.5 3.9z"/><path class="st15" d="M401.3 239.6c.4 2.6-1.3 5.1-3.9 5.5-2.6.4-5.1-1.3-5.5-3.9-.4-2.6 1.3-5.1 3.9-5.5 2.6-.5 5.1 1.3 5.5 3.9z"/><path class="st10" d="m406.6 323.2-300.9.6c-4 0-7.3-3.2-7.3-7.3L98 117.2c0-4 3.2-7.3 7.3-7.3l300.9-.6c4 0 7.3 3.2 7.3 7.3l.4 199.3c-.1 4-3.3 7.2-7.3 7.3z"/><path class="st16" d="m400.7 319.3-300.9.7c-4 0-7.3-3.2-7.3-7.3l-.4-199.3c0-4 3.2-7.3 7.3-7.3l300.9-.6c4 0 7.3 3.2 7.3 7.3l.4 199.3c-.1 4-3.3 7.2-7.3 7.2z"/><path class="st3" d="m399.7 105.5-299.6.6c-4.4 0-7.9 3.6-7.9 7.9v6.9l315.4-.7v-6.9c.1-4.3-3.5-7.8-7.9-7.8z"/><path class="st0" d="m100.5 320 45.3-.1-.4-199.1-53.2.1.4 191.2c0 4.3 3.5 7.9 7.9 7.9z"/><path class="st3" d="M400.3 107.5c2.9 0 5.3 2.4 5.3 5.3l.4 199.3c0 1.4-.5 2.7-1.5 3.7s-2.3 1.5-3.7 1.6l-301 .6c-2.9 0-5.3-2.4-5.3-5.3l-.4-199.3c0-1.4.5-2.7 1.5-3.7s2.3-1.5 3.7-1.6l301-.6m0-2-300.9.6c-4 0-7.3 3.3-7.3 7.3l.4 199.3c0 4 3.3 7.3 7.3 7.3l300.9-.6c4 0 7.3-3.3 7.3-7.3l-.4-199.3c0-4.1-3.3-7.3-7.3-7.3z"/><path class="st16" d="m138.1 304.8-34.9.1c-1.5 0-2.8-1.2-2.8-2.8v-.3c0-1.5 1.2-2.8 2.8-2.8l34.9-.1c1.5 0 2.8 1.2 2.8 2.8v.3c0 1.5-1.2 2.7-2.8 2.8zM133.9 169.7l-29.7.1c-2.8 0-5.1-2.3-5.1-5.1V135c0-2.8 2.3-5.1 5.1-5.1l29.7-.1c2.8 0 5.1 2.3 5.1 5.1l.1 29.7c-.1 2.8-2.3 5.1-5.2 5.1z"/><path class="st0" d="m261.1 258.7-103.5.2c-2 0-3.6-1.6-3.6-3.6v-.5c0-2 1.6-3.6 3.6-3.6l103.5-.2c2 0 3.6 1.6 3.6 3.6v.5c0 1.9-1.6 3.6-3.6 3.6zM255.1 140.8l-81.8.2c-2 0-3.6-1.6-3.6-3.6v-.5c0-2 1.6-3.6 3.6-3.6l81.8-.2c2 0 3.6 1.6 3.6 3.6v.5c0 1.9-1.6 3.6-3.6 3.6zM384.4 223.5l-109 .2c-2 0-3.6-1.6-3.6-3.6v-.5c0-2 1.6-3.6 3.6-3.6l109-.2c2 0 3.6 1.6 3.6 3.6v.5c0 1.9-1.6 3.6-3.6 3.6zM261.1 274.6l-103.5.2c-2 0-3.6-1.6-3.6-3.6v-.5c0-2 1.6-3.6 3.6-3.6l103.5-.2c2 0 3.6 1.6 3.6 3.6v.5c.1 2-1.6 3.6-3.6 3.6zM261.1 290.6l-103.5.2c-2 0-3.6-1.6-3.6-3.6v-.5c0-2 1.6-3.6 3.6-3.6l103.5-.2c2 0 3.6 1.6 3.6 3.6v.5c.1 2-1.5 3.6-3.6 3.6zM382.2 301.1l-104.3.2c-3.3 0-6-2.7-6-6l-.1-44.8c0-3.3 2.7-6 6-6l104.3-.2c3.3 0 6 2.7 6 6l.1 44.8c0 3.2-2.7 5.9-6 6zM109.5 113.3c0 1.4-1.1 2.6-2.5 2.6s-2.6-1.1-2.6-2.5 1.1-2.6 2.5-2.6 2.6 1.1 2.6 2.5z"/><circle class="st0" cx="117.8" cy="113.3" r="2.5"/><path class="st0" d="M131.1 113.3c0 1.4-1.1 2.6-2.5 2.6s-2.6-1.1-2.6-2.5 1.1-2.6 2.5-2.6c1.5 0 2.6 1.1 2.6 2.5z"/><circle transform="rotate(-84.28 158.346 137.1) scale(.99998)" class="st0" cx="158.3" cy="137.1" r="7.4"/><path class="st16" d="m136 175.9-32.6.1c-.8 0-1.4-.6-1.4-1.4v-.2c0-.8.6-1.4 1.4-1.4H136c.8 0 1.4.6 1.4 1.4v.2c0 .7-.6 1.3-1.4 1.3zM136 182.2l-32.6.1c-.8 0-1.4-.6-1.4-1.4v-.2c0-.8.6-1.4 1.4-1.4l32.6-.1c.8 0 1.4.6 1.4 1.4v.2c0 .7-.6 1.4-1.4 1.4z"/><path class="st0" d="m173.4 195.3-9.2.1.1 38.7h-8c-2.8 0-5.1-2.3-5.1-5.1l-.1-71.5c0-2.8 2.3-5.1 5.1-5.2h17.1l.1 43z"/><path class="st0" d="M233.3 152.2v1c2.8 0 5 2.2 5 5l.1 69.7c0 2.8-2.2 5-5 5l-76.3.2c-2.8 0-5-2.2-5-5l-.1-69.7c0-2.8 2.2-5 5-5l76.3-.2v-1m0 0-76.3.2c-3.3 0-6 2.7-6 6l.1 69.7c0 3.3 2.7 6 6 6l76.3-.2c3.3 0 6-2.7 6-6l-.1-69.7c0-3.3-2.7-6-6-6zM360.6 209.6l-101.7-23c-3.2-.7-5.3-4-4.5-7.2l11.4-50.6c.7-3.2 4-5.3 7.2-4.5l101.7 23c3.2.7 5.3 4 4.5 7.2l-11.4 50.6c-.7 3.2-3.9 5.2-7.2 4.5z"/><path class="st3" d="M163.8 347.3h-14.3l-3.5-18.1h21.2z"/><path class="st17" d="M150 329.2c0 1.5-.3 4 .7 4s.6-2.4 1.7-2.3c.7 0-.3 7.9 2.4 8.1 1.9.1 1.5-3.8 1.7-6.3.1-1.7 2.3-1.4 2.3-.2s-.1 2.1 0 3.5c.1 2.4 3.7 1.7 3.6-1.4s0-5.3 0-5.3l-12.4-.1z"/><path class="st18" d="M146.6 340.1c-.3 0-.6 0-.8-.1-1-.2-1.8-.8-2.2-1.6-1.5-3.1 2.4-8.8 2.5-9.1l.2 1c0 .1-3.4 5-2.1 7.8.3.7.9 1.1 1.7 1.2.2 0 .5.1.7.1 5.1 0 13.9-9.6 14-9.7.4-.4 1 0 .8.3-.4.6-9.3 10.1-14.8 10.1z"/><path class="st10" d="M296.1 92.2c-20.2-.8-48.1 14.2-38.2 50.8-.2 3.1 1.6 5.3 3.6 4.7 2-.6.2-6.5.2-6.5 3.4-27.2 9.7-31.9 20.4-31.8l25.1-.1c6.2.9 17.5 5.3 19.2 27l6.2 1.2c.5-15.7-3.3-44.1-36.5-45.3z"/><path class="st17" d="M296.1 89c-20.2-.8-48.1 14.2-38.2 50.8l3.8-1.8c3.4-27.2 9.7-31.9 20.4-31.8l25.1-.1c6.2.9 17.8 6.4 19.5 28.2h5.9c.5-15.7-3.3-44-36.5-45.3z"/><path class="st19" d="m292 89.6-3 6.6s.4 3.7 4 3.6c3.6-.1 4.1-1.8 4.1-1.8l.5-7.6-5.6-.8z"/><path class="st19" d="M307.5 84.1c-3.4 6.1-4.9 7.9-9.4 8.8-5.8 1.2-12.3-2.7-9.3-12.4 2.5-7.9 6.2-6.7 9.9-6.4 3.6.4 12.5 3.4 8.8 10z"/><path class="st3" d="M293.8 79.3c-.9-.5-2.1-.1-2.8.7-.7.8-1.1 1.9-.8 2.9-1.4 0-2.6 1.4-2.5 2.8-1-2.2-.4-4.6-.6-6.8-.2-2.3.1-4.8 1.5-6.5.6-.7 1.4-1.3 2.2-1.7 3.2-1.7 7.1-1.7 10.3-.1.7.3 2.3 1.4 4.6.8 4.4-1.1 7 1.9 4.3 4.7.9.3 1.8.7 2.2 1.5.1.2.1.5 0 .7-.1.1-.3.2-.4.3-.7.3-1.6.3-2.3.2.3.3 1.9.4 2.4 1.3 1.3 2.5-3.9 1.3-4.7 1 .9.2 3.3 2.1 2.5 3.4-.2.3-3.4 2.1-6.8-1.8-.8-.9-1.8-1.8-2.9-2.1-.9-.2-1.9.1-2.8.4-.6.2-2.3 1.2-2.8.6-.2-.8.5-1.8-.6-2.3z"/><path class="st19" d="M327.3 134.3c-.9 3.1-1.8 3.4-.7 3.9s2-1.2 2-1.2l5 1s-1.1-3.3-1.9-3.7c-.8-.4-4.4 0-4.4 0zM261.8 138c.7 1.6.8 1.6 1.7 3.6 1.7 3.7-2.3 9.7-4.9 3.2-.7-1.8-.7-5-.7-5l3.9-1.8z"/><path class="st3" d="M301 71.3c3.4.2 7.4-2 10.1.8.5.5 1.5-.2 1.1-.8-2.5-4-7.5-1.1-11.2-1.2-.8 0-.7 1.1 0 1.2z"/><path class="st3" d="M302.5 68.7c-2.3.3-4.5-.8-6.8-.5-2.1.3-4.1 1.3-5.6 2.8-.7.7.2 1.8 1.1 1.4 2-1.2 3.8-2.4 6.3-2.2 1.9.1 3.5.7 5.3 0 .6-.3.6-1.6-.3-1.5zM288.9 72.1c-1.9 1.1-2.9 2.6-3.1 4.9-.1 1.6-.1 4.9 1.6 5.5.5.2 1.1-.5.8-1-.8-1.1-1-3.2-.9-4.5.1-1.8.8-3 2.1-4.1.5-.4 0-1.1-.5-.8zM314.6 77.8c-.5-.9-1.3-1.7-2.2-2.1-.9-.4-2.2-.6-3 .2-.3.3-.2.9.3 1 .7.2 1.4 0 2.2.2.8.2 1.4.6 1.9 1.3.4.5 1.1-.1.8-.6z"/><path class="st20" d="M203.1 230.5c10.6 3.9 19.8 16.1 17.7 24.9-2.4 10-9.3 14.3-9.3 14.3l-2.2-4s5.5-8.6 5-12.7c-.8-6.5-9-10.9-9-10.9l-2.2-11.6z"/><path class="st18" d="M177 343.2s-6.5 2.6-8.1 4.1h12.9v-4.1H177zM205.5 342.9s1.8 2.1 2.2 4.3h-8.8c.2-1.5.8-2.9 1.6-4.3h5z"/><path class="st21" d="M206.1 343.1h-6c.1-7.1-1.3-31.2-2.8-49.3-.8-10.6-1.6-19.1-2.1-20.8l3.2-.7 12.1-2.7c2.1 9.6-2.7 53.2-4.4 73.5z"/><path d="M184 272.7c-4.7 7.4-5.9 60.7-7.9 70.6l5.7.3s6.5-33.6 20.5-71.5l-18.3.6z" style="fill:#009790"/><path class="st10" d="M204.7 272.2c-2.8 7.5-5.2 14.8-7.4 21.7-.8-10.6-1.6-19.1-2.1-20.8l3.2-.7 6.3-.2z"/><path class="st17" d="M184 272.7c-4.7 7.4-5.9 60.7-7.9 70.6l5.7.3s6.5-33.6 20.5-71.5l-18.3.6z"/><path class="st19" d="M187.5 213.1S183.9 227 193 227l-.5 3.6 6.9.8-1.5-5s1.4-8.7 1.5-10.3c.1-3-8.1-8.2-11.9-3z"/><path transform="translate(-.4 .323)" class="st18" d="M162.3 197.5h2.7v11.3h-2.7z"/><path class="st3" d="M171.4 197.5H156c-1.1 0-2-.9-2-1.9v-.4c0-1.1.9-2 2-2h15.4c1.1 0 2 .9 2 1.9v.4c-.1 1.2-1 2-2 2z"/><path class="st19" d="M161.6 211.9c-.1-2.6-2.2-1.9-1-6.1.7-2.6 6.1.4 5.4 2.2-.7 1.8-1.4 4.6-1.4 4.6l-3-.7z"/><path class="st8" d="M193.1 229.8c-13.6.9-14.5 5.5-20.6 4.8-9-1.1-7.4-17.8-6.3-23.8h-5.4s-9.7 38.2 21 31.1c-1.2 6.7 6.5 17.6-.9 30.9 11.7 3.2 22.5 3.9 31.8-.1-1.6-2.2 3.3-24.4-6.4-40.4-2-3.1-12.2-2.6-13.2-2.5z"/><path class="st3" d="M193.1 229.8c-13.6.9-14.5 5.5-20.6 4.8-9-1.1-7.4-17.8-6.3-23.8h-5.4s-9.7 38.2 21 31.1c-1.2 6.7 6.5 17.6-.9 30.9 11.7 3.2 22.5 3.9 31.8-.1-1.6-2.2 3.3-24.4-6.4-40.4-2-3.1-12.2-2.6-13.2-2.5z"/><path class="st17" d="M191.2 215.8c.9.2 1.9.4 2.4 1.2.3.5.3 1.1.3 1.7.2-.6.8-1 1.5-1 .6.1 1.2.6 1.2 1.3 0 .3-.1.6-.2.8-.3.7-.6 1.3-1 1.9 1.1.4 2 3.7 2.6 4.7 1.9-.5 6-2.1 6.4-8.7.2-3.1-.8-6.8-4.1-8.8-2.4-1.5-6.3-1.5-9-.8-2.2.6-5.7 2.8-4.1 5.3.7 1.3 2.5 2 4 2.4z"/><path class="st17" d="M202.9 211.6c1.3-.4 2.9-.2 3.6.9.6.8.5 1.9.7 2.9.1.5.3 1 .6 1.3.4.4 1.1.5 1.7.5 1.5.1 3-.1 4.4.1 1.4.2 2.9 1.1 3.3 2.4.2.7.1 1.6.4 2.3.4 1.1 1.6 1.7 2.6 2.4 2.2 1.4 4 3.2 5.4 5.3.8 1.3 1.5 2.8 1.6 4.4.1 1.6 1.2 3.6.9 5.2-.3 1.7-2 3.9-5.2 5-5.6 1.8-7.4 2.6-12.7-.6-.6-.4-1.9-1.7-2.5-2.2-.5-.4-.8-.9-.9-1.5-.4-1.5.1-3.2.9-4.6s1.9-2.6 2.7-4c.5-.8.9-1.8.8-2.7 0-.4-.1-.7-.4-1-.2-.2-.6-.3-.9-.4-1.2-.2-2.5 0-3.5-.5s-1.6-1.8-1.3-2.8c.2-.7.8-1.3.9-2.1.2-1.1-.4-2.1-1.4-2.8s-2.1-.9-3.2-1c-.5-.1-1.1-.2-1.6-.5-.5-.4-.8-1.1-.8-1.7.2-2.1 1.9-3.7 3.9-4.3z"/><path class="st17" d="M201.9 217.2c6.7 1.5-1.8 7.8 1.8 10.9 1 .9 2.2.6 3.4.8 4.6.6 2.1 3.7 1.8 6.2 0 .4.6.4.6.1.4-1.7 1.9-3.7 1.1-5.5-.7-1.6-2.4-1.4-3.9-1.4-1.8-.1-3.8 0-3.1-3.6.1-.8.8-1.6 1.1-2.3.4-.9.6-1.7.4-2.6-.3-1.6-1.7-2.5-3.2-2.8-.2-.2-.3.1 0 .2zM188 208.9c5.2-2.6 10.4-2.1 14.8 1.8.3.3.7-.1.4-.4-3.9-4.3-10.7-5.1-15.4-1.6-.1.1 0 .3.2.2z"/><path class="st19" d="m362.6 225.2-2.2 4.6 5.5 2.2.6-5.2z"/><path class="st19" d="M366 210.5c-12.5 5.4-7.4 18.6.2 17.1 3.7-.8 5.6-12.7 5.6-12.7l-5.8-4.4z"/><path class="st3" d="M370.1 208.6c-.4-.8-.8-1.6-1.5-2.1s-1.7-.7-2.4-.1c-.8.8-.3 2.2.5 3-.7.1-1.6-.4-2.1.1-.4.4-.3 1.1 0 1.6.6 1.2 1.5 2.2 2.6 2.9-.6.4-1.4 1.1-1 1.7.1.2.3.3.4.5.2.4 0 .9-.2 1.3-.4.7-.8 1.3-1.3 1.9.4-.6 1.5-.3 1.8.3.3.7 0 1.5-.4 2-.3.3-.6.6-1 .6-.3.1-1.9 4.8-.7 5.7 1.5 1.1 6.4.1 7.1-1.1.7.8 1.8 1.4 2.8 1.2 1-.2 1.8-1.5 1.3-2.4 1.1.4 2.5 0 3.3-.9.8-.9.9-2.3.3-3.4.6-.2.7-1 .6-1.6-.3-1.3-1.3-2.3-2.6-2.7.6 0 1.1-.6 1.2-1.3 0-.6-.3-1.2-.7-1.7-1.2-1.4-2.6-1.8-4.3-2.1-2-.2-2.9-2-3.7-3.4z"/><path class="st18" d="M358.4 342.3s-7.3 3.5-8.3 4.6c0 0 14.4.6 15.5 0 1.1-.7-2.3-4.6-2.3-4.6h-4.9zM385.6 338.3s-6.4 4.9-7.2 6.2c0 0 15.2-2.3 15.2-3.2 0-1-3.2-4-3.2-4l-4.8 1z"/><path class="st21" d="M365.5 274.6c-.3 1.5-10.3 41 18.4 64.7l8.3-1.9s-9.7-9.1-14.2-25.3c-4.3-15.4-.9-16.9 1.7-25.4 2.9-9.4.7-16.2.7-16.2l-14.9 4.1z"/><path class="st17" d="M351.8 274.4c-4.5 10.8-12.3 47.8 4.7 68.6h8.5s-6.7-7.3-7.4-24.3c-.7-17 3.6-24.4 6.6-30.1 3-5.6 5.9-15.1 5.9-15.1l-18.3.9z"/><path class="st20" d="M345.8 207.2c-2.3 7.9-3 22.6 8.3 28.5l7.6-1.8s-13.6-7.1-10.7-25.2l-5.2-1.5z"/><path class="st3" d="m325 203.1 5.9-.7s-.7 24.6 27.7 26.7c21.7 1.6 23.4 42.3 23.4 42.3-7 4.7-18.7 6.1-33.8 5.1 0 0 1-29.1-1.4-37 0 0-23.7-7.5-21.8-36.4z"/><path class="st19" d="M317.8 198.6c-1 1.2 3.2 2.6 7.2 4.5l5.1-.6s.1-1 0-2.1-.6-1.7-1.2-.8c-.6.9-3.2 1.2-4.4.4-1.2-.8-5.7-2.5-6.7-1.4zM345.8 207.2c-1.9-1.9-1.4-1.7-1.4-1.7l5.8 1.3s1.3-2.8 2.3-2.9c1.1-.1-.8 1.9-.4 2.7.4.7-1.2 2.2-1.2 2.2l-5.1-1.6z"/><path class="st12" d="M373.3 211.3c1.2.3 2.4.4 3.4 1.2 1 .8 1.4 2.2.7 3.3-.3.5.5.9.8.5.9-1.2.7-2.8-.2-3.9-1-1.3-3-1.8-4.6-1.6-.3 0-.4.4-.1.5zM378.5 222c.8.5 1.4 1.2 1.1 2.2-.3.9-1.2 1.4-1.9 1.9-.4.2 0 .8.3.6 1.1-.6 2.2-1.4 2.4-2.7.1-1.1-.6-2-1.6-2.5-.3-.3-.6.3-.3.5zM365.4 227.9c2.7 1.6 6.4 1.4 8.6-.9.3-.3-.1-.8-.4-.6-2.4 1.8-5.1 2.3-7.9 1.1-.3 0-.5.3-.3.4z"/><path class="st12" d="M378.9 213c1.5 1.4 0 3.4-1 4.7-.2.3.1.6.4.4.9-.8 1.7-1.7 1.9-3 .1-.9-.3-1.8-1.1-2.3-.2 0-.3.2-.2.2z"/><path class="st15" d="m209.7 30.4-2.3-5.8L230 16z"/><path class="st4" d="M210.9 26.8 230 16l-13.3 13.6zM202.2 22.3 230 16l-22.6 8.6z"/><path class="st8" d="m210.9 26.8-1.2 3.6 3.5-2.5z"/><path class="st14" d="M207.1 29.6c-5.9-1-13.9 5-10.5 11.2 1.2 2.1 7.2 1.2 6.8-1.1-.2-1.1-1.6-1.6-2.7-1.5-6.6.8-6.9 6.3-6.6 7.7 1.5 7.3 12.7 4.8 16.4 3.8"/></svg>