<svg version="1.1" id="ada2c66c-0b07-40f7-a84b-c9b183e7e59f" xmlns="http://www.w3.org/2000/svg" x="0" y="0" viewBox="0 0 898 831.1" style="enable-background:new 0 0 898 831.1" xml:space="preserve"><style>.st0{fill:#797bf2}.st1{fill:#65657c}.st3{fill:#ff227d}.st4{fill:#a0616a}.st5{fill:#d0cde1}.st6{fill:#2f2e41}</style><path class="st0" d="M710.5 26.5s26.5-20.1 82.6 7.4 96.3 4.2 96.3 4.2l-6.4 92.1s-57.2 22.2-110.1-9.5-69.9 0-69.9 0l7.5-94.2zM761.3 446.7c0 126.8-77.2 240.8-194.8 288-10.5 4.2-21.2 7.8-32.1 10.9-54.4 15.1-111.9 15.1-166.3 0-7.4-2.1-14.8-4.4-22-7-16.4-5.9-32.3-13.2-47.4-21.8C204.5 663.6 141 562.6 141 446.7c-.1-165.7 130.2-302.2 295.7-309.8 4.8-.2 9.6-.3 14.4-.3 5.3 0 10.6.1 15.8.4 165 8.4 294.4 144.6 294.4 309.7z"/><path class="st1" d="M841.3 137.9c-20.4 0-44.7-4.1-68-18.1-21.4-12.8-39.1-17.1-52.7-12.6-7.1 2.2-13.1 7.3-16.4 13.9l-2.8 6.6 11-108.9.3-.3c.9-.9 23.6-21.4 82.9 7.6 58.1 28.5 100.4 4.8 100.8 4.5l1.7-1-.1 2-6.8 98-.6.2c-.5.2-21.2 8.1-49.3 8.1zm-109.5-34.6c12.1 0 26.3 4.9 42.5 14.6 51.8 31.1 108.2 12.5 114.8 10.2l6.5-94.8C887 37.4 847 53.7 794.5 28c-54.5-26.7-77.4-10.5-80.2-8.3l-9.7 96.2c3.8-5.1 9.1-9 15.2-10.9 3.9-1.1 7.9-1.7 12-1.7zM444.8 755.8c-29.9 0-59.7-4-88.5-12-8-2.2-15.9-4.7-23.4-7.5-17.5-6.3-34.3-14-50.5-23.2-158.9-89.8-214.8-291.4-125-450.2 32.7-57.8 82-104.4 141.6-133.7 40.7-20.1 85.1-31.5 130.4-33.5 10.2-.5 21.1-.5 32.2.1 182.2 9.4 322.3 164.7 312.9 346.9-6.6 128.6-87.4 241.7-207 289.6-11.2 4.5-22.6 8.4-34.2 11.6-28.7 7.9-58.6 12-88.5 11.9zm0-658.4c-5.2 0-10.3.1-15.3.3-45 2-89.2 13.3-129.6 33.3-162.6 80.1-229.5 277-149.4 439.6 37.5 76.2 103.2 134.9 183.1 163.7 7.5 2.7 15.3 5.2 23.3 7.4 57.6 15.9 118.4 15.9 176 0 11.5-3.2 22.9-7 34-11.5 168.3-67.4 250-258.5 182.6-426.7-47.6-118.9-160-199.2-287.9-205.7-5.7-.3-11.4-.4-16.8-.4z"/><path style="fill:#3f3d56" d="M0 827.5h484.4v2.1H0z"/><path class="st1" d="m82.7 829.2-1.1-.4c-.2-.1-25.1-9.6-36.7-31.2-11.7-21.6-6-47.6-5.9-47.8l.3-1.2 1.1.4c.2.1 25.1 9.6 36.7 31.2C88.7 801.8 83 827.8 83 828l-.3 1.2zm-36-32.6c9.8 18.3 29.5 27.6 34.5 29.7.9-5.3 3.9-26.9-5.9-45.1-9.8-18.2-29.5-27.6-34.5-29.7-.9 5.3-3.9 26.9 5.9 45.1z"/><path class="st0" d="M53.8 790c20.9 12.6 29 37.6 29 37.6s-25.9 4.6-46.8-8S7 782 7 782s25.8-4.5 46.8 8z"/><circle class="st3" cx="362.5" cy="154.6" r="99.1"/><circle class="st4" cx="383.1" cy="182.2" r="70.2"/><path class="st4" d="M327.2 197.8s-10.4 83.2-48.1 100.1 104 7.8 104 7.8 0-75.4 5.2-78-61.1-29.9-61.1-29.9zM311.6 747.7l-5.2 27.3s-72.8 42.9-37.7 54.6 78-50.7 78-50.7l-7.8-31.2h-27.3zM362.3 542.3l57.2 61.1 157.3-109.2s-36.4-28.6-48.1-28.6-166.4 76.7-166.4 76.7zM671.7 221.2s16.9-118.3 46.8-109.2-16.9 126.1-16.9 126.1l-29.9-16.9z"/><path class="st5" d="M461.1 283.6s-56.7-9.1-77.8 0-84.6 16.3-92.5 6.2c-7.9-10.1-78.1 23.7-78.1 38s152.1 230.1 152.1 230.1 157.3-44.2 178.1-91c0 0-18.2-13-18.2-23.4 0-10.4-9.1-20.8-9.1-20.8s10.4-26-7.8-49.4c-18.1-23.4-46.7-89.7-46.7-89.7z"/><path class="st5" d="m444.2 287.5 16.9-3.9s41.6 10.4 70.2 45.5 78 46.8 78 46.8l59.8-162.5 49.4 16.9s-39 206.7-83.2 209.3-153.4-45.5-153.4-45.5l-37.7-106.6zM233.6 314.8s-27.3 1.3-27.3 24.7 3.9 104 27.3 139.1 44.2 114.4 45.5 115.7 26 165.1 26 165.1l41.6-3.9-7.8-204.1-40.3-104-65-132.6z"/><path class="st6" d="M692.8 641.2c-33.4 41.5-76.9 73.7-126.3 93.5l-6.6-14.3-25.5 25.2c-54.4 15.1-111.9 15.1-166.3 0l-10.9-7 58.5-67.6s1.3-33.8 0-39-18.4-52.4-18.4-52.4c59.3-3.8 144.1-79 163.7-97.1 2.7-2.5 4.2-3.9 4.2-3.9 109.2 15.6 124.8 143 124.8 143l2.8 19.6z"/><ellipse class="st4" cx="312.5" cy="184.7" rx="6.4" ry="13.2"/><circle class="st3" cx="272.2" cy="60.3" r="41.3"/><path class="st3" d="M228.8 41.3c0-21 15.7-38.6 36.5-41-22.6-2.7-43.2 13.5-45.8 36.2s13.5 43.2 36.2 45.8c3.2.4 6.4.4 9.6 0-20.7-2.4-36.5-20.1-36.5-41z"/><path class="st6" d="M699.9 24.3h14.8v155.6h-14.8z"/><path class="st3" d="M298.7 121.7s19.1 40.2 42.3 41.3c23.3 1.1 110.1-15.9 110.1-15.9l-28.6-59.3-76.2 9.5-47.6 24.4z"/></svg>