<svg version="1.1" id="a97f4f18-b594-445c-bff7-5523e3bdff5d" xmlns="http://www.w3.org/2000/svg" x="0" y="0" viewBox="0 0 1046 638.6" style="enable-background:new 0 0 1046 638.6" xml:space="preserve"><style>.st0{fill:#65657c}.st1{fill:#797bf2}.st2{fill:#2f2e41}.st4{fill:#f2f2f2}.st5{fill:#ffb8b8}.st7{fill:#55536e}.st8{fill:#819bc1}</style><path class="st0" d="M161.2 554.6c8.6 31.7 37.9 51.3 37.9 51.3s15.5-31.7 6.9-63.4-37.9-51.3-37.9-51.3-15.4 31.8-6.9 63.4z"/><path class="st1" d="M173.8 547.8c23.5 22.9 26.4 58 26.4 58s-35.2-1.9-58.7-24.8-26.4-58-26.4-58 35.2 2 58.7 24.8z"/><path class="st2" d="M113.5 636h827.6v2.6H113.5z"/><path d="M210.7 637.3h-33.2v-33.2h33.2v33.2zm-30.6-2.5h28.1v-28.1h-28.1v28.1z" style="fill:#3f3d56"/><path class="st0" d="M0 25.3h281.4v281.4H0z"/><path class="st1" d="M281.4 95.3v6.5c-4.3-2.8-7.8-6.8-10-11.4-4.2-8.8-3.6-14.8-3.5-25 .1-10.2.3-19.7-6.2-26-7.1-6.8-18.4-5.9-29.4-5-1.3.1-2.6.2-3.8.3-11 .8-23.3-1.9-29.2-9.5h7.4c5.4 3.7 13.8 5 21.4 4.4 1.2-.1 2.5-.2 3.8-.3 11.5-1 24.6-2.1 33.4 6.4 8 7.8 7.9 18.9 7.7 29.7-.1 8-.2 16.2 3 22.7 1.3 2.8 3.2 5.2 5.4 7.2zM281.4 140v7.6c-1.2-1.6-2.6-3.1-4.1-4.5-8.7-7.7-21.3-9.4-33.4-11.1-1.6-.2-3.1-.4-4.7-.6-19.7-2.8-31.9-9.6-37.3-20.6-3.7-7.7-3.6-16.5-3.5-25 .1-10.2.3-19.7-6.2-26-7.1-6.8-18.4-5.9-29.4-5-1.3.1-2.6.2-3.8.3-14.1 1.1-30.4-3.8-32.6-17.1-.8-4.5.4-8.7 2.1-12.7h5.6c-1.9 4-3.3 7.9-2.6 11.9 1.7 10.1 15.3 13.7 27.2 12.8 1.2-.1 2.5-.2 3.8-.3 11.5-1 24.6-2.1 33.4 6.4 8 7.8 7.9 18.9 7.7 29.7-.1 9.6-.7 15.1 3 22.7 4.6 9.4 15.5 15.3 33.4 17.8 1.5.2 3.1.4 4.6.6 12.9 1.7 26.2 3.6 36.1 12.3.2.3.5.6.7.8zM281.2 267.7v10.4c-6.1-6.5-11.2-15.4-15.2-26.6l-2.4-7.2c-4.4-13.3-8.9-27-19.8-35.8-11.6-9.4-28.1-11.4-44.1-13.4-2.1-.3-4.1-.5-6.1-.8-26-3.4-42.1-11.6-49.2-25-5-9.3-4.8-20-4.6-30.4.2-12.3.4-23.9-8.1-31.5-9.3-8.3-24.3-7.1-38.8-6-1.7.1-3.4.3-5.1.4-18.7 1.3-40.1-4.6-43-20.7-1.4-7.9 2.2-14.8 5.8-21.6 2-3.9 4-7.5 5-11.3 2.1-7.8-.5-16.5-6.2-22.7h8.3c4.8 7 6.4 15.8 4.4 24.1-1.2 4.4-3.3 8.6-5.4 12.6-3.2 6.1-6.3 11.9-5.2 17.9 2.2 12.2 20.2 16.6 35.9 15.6 1.6-.1 3.3-.3 5-.4 15.2-1.2 32.5-2.5 44 7.7 10.6 9.4 10.4 22.9 10.2 36-.1 9.6-.3 19.6 3.9 27.6 6.1 11.4 20.5 18.5 44.1 21.6 2 .3 4 .5 6.1.8 17 2.1 34.6 4.3 47.7 14.9 12.3 9.9 17.1 24.5 21.7 38.6.8 2.4 1.6 4.8 2.4 7.1 2.1 6.4 5.1 12.4 8.7 18.1zM-.2 139.2c7.7 9.4 24.1 12.8 38.8 11.8 1.7-.1 3.4-.3 5.1-.4 14.5-1.1 29.4-2.3 38.8 6 8.5 7.6 8.3 19.2 8.1 31.5-.2 10.4-.3 21.1 4.6 30.4 7.1 13.4 23.2 21.6 49.2 25 2 .3 4.1.5 6.1.8 16 2 32.6 4.1 44.1 13.4 10.8 8.8 15.4 22.5 19.8 35.8l2.4 7.2c.8 2.2 1.6 4.3 2.4 6.3h7.3c-1.3-2.8-2.4-5.5-3.3-8.2-.8-2.4-1.6-4.7-2.4-7.1-4.6-14.1-9.5-28.7-21.7-38.6-13.1-10.6-30.7-12.8-47.7-14.9-2-.3-4.1-.5-6.1-.8-23.6-3.1-38.1-10.2-44.1-21.6-4.2-8-4.1-17.9-3.9-27.6.2-13.1.4-26.6-10.2-36-11.5-10.3-28.8-8.9-44-7.7-1.7.1-3.4.3-5 .4-15.7 1.1-33.6-3.3-35.9-15.6-1.1-5.9 2-11.7 5.2-17.9 2.1-4 4.3-8.1 5.4-12.6 3.3-12.1-2.1-25.5-13-32.8v8.3c6 6.1 8.7 15.1 6.6 23.1-1 3.8-2.9 7.5-5 11.3-.5 1-1.1 2.1-1.6 3.1v27.4zM124.5 306.7h-7c-.4-1.1-.7-2.2-1.1-3.3-4.4-13.3-8.9-27-19.8-35.8-11.6-9.4-28.1-11.4-44.1-13.4-2.1-.3-4.1-.5-6.1-.8-22.9-3-38.2-9.8-46.3-20.5V216c.5 3.4 1.6 6.6 3.1 9.7 6.1 11.4 20.5 18.5 44.1 21.6 2 .3 4 .5 6.1.8 15.5 1.9 35.5 5 47.7 14.9 12.3 9.9 17.1 24.5 21.7 38.6.5 1.7 1.1 3.4 1.7 5.1z"/><path class="st0" d="M381.4 25.3h281.4v281.4H381.4z"/><path class="st1" d="M516.9 45.9c0 49.6-40.2 89.9-89.9 89.9-16.1 0-31.9-4.3-45.8-12.5V25.5h133.3c1.6 6.7 2.4 13.5 2.4 20.4z"/><circle class="st1" cx="590" cy="101.6" r="54.2"/><circle class="st1" cx="467.9" cy="216.9" r="39"/><path class="st1" d="M662.9 260.6v46.1h-55.8c-6.6-20.5 4.8-42.5 25.3-49 10.1-3.2 21.1-2.2 30.5 2.9z"/><circle class="st1" cx="566.2" cy="215.2" r="10.2"/><path class="st0" d="M764.6 25.3H1046v281.4H764.6z"/><path class="st1" d="M901.9 25.3v115.3H764.6v6.8h144.1V25.3h-6.8zM1034.4 306.7l11.6-16.6v-11.8l-19.9 28.3h8.3v.1zm-47.3-121.3-62.4 88.7 46.4 32.6h11.8l-48.7-34.2 54.6-77.7 57.3 40.3v-8.3l-59-41.4zM883.3 174.2l-36 36 36 36 36-36-36-36zm-26.4 35.9 26.4-26.4 26.4 26.4-26.4 26.4-26.4-26.4z"/><circle class="st4" cx="137.9" cy="25.5" r="25.5"/><circle class="st4" cx="532.6" cy="25.5" r="25.5"/><circle class="st4" cx="909.3" cy="25.5" r="25.5"/><circle transform="rotate(-57.508 506.405 150.08)" class="st5" cx="506.4" cy="150.1" r="24.3"/><path class="st5" d="M493.6 161.6s6.4 33.2 3.8 39.6 35.8-2.6 35.8-2.6-7.7-33.2-6.4-40.9-33.2 3.9-33.2 3.9zM451.5 276.5 454 311l12.7 54.1 3.9 14.9 6.4-23-6.4-52.4-2.1-23.6zM585.6 271.4v35.8s-3.8 46-11.5 57.5-10.2-46-10.2-46l6-42.1 15.7-5.2z"/><path d="M471.9 382.5s-6.4 7.7-1.3 85.6-2.6 134.1 14 134.1c0 0-5.1 16.6 8.9 17.9s20.4 2.6 21.7-1.3 3.8-21.7 0-21.7c0 0 0 5.1 2.6-15.3s2.6-117.5 8.9-130.3l20.4 47.3s0 21.7 3.8 31.9 10.2 69 10.2 69l-1.3 8.9s30.7 5.1 31.9 0 1.3-12.8 0-15.3-1.3-2.6 1.3-7.7 2.6-8.9 1.3-12.8S593 486 593 486s-2.6-100.9-17.9-106-103.2 2.5-103.2 2.5z" style="fill:#c8dbfb"/><path class="st7" d="m488.5 609.8-10.2 17.9s-16-5.7-12.8 8.9c27.5 1.9 46.6-.6 46.6-.6s6.4 2.6 7.7-1.3-3.2-17.2-7-17.2-24.3-7.7-24.3-7.7zM562.6 604.7s-10.2 23-6.4 24.3 38.3 6.4 40.9 7.7 15.3 2.6 16.6-5.1-6.4-10.2-6.4-10.2-14-2.6-17.9-15.3-26.8-1.4-26.8-1.4z"/><path class="st8" d="M535.8 194.8s-34.5-6.4-42.1 0-39.7 19.1-39.7 25.5 16.6 69 16.6 69-8.9 94.5 0 97.1 24.3-5.1 42.1 3.8c17.8 8.9 69-7.7 69-7.7s-19.2-81.7-14-97.1 8.9-67.7 8.9-67.7-21.7-22.9-40.8-22.9z"/><path class="st8" d="m463 216.5-9 2.5s-19.2 60-11.5 62.6 29.4 7.7 31.9 7.7-11.4-72.8-11.4-72.8zM556.2 210.1l20.4 7.7s26.8 49.8 20.4 56.2-34.5 12.8-34.5 12.8l-6.3-76.7z"/><path d="M505.7 120.1c-2-.4-4.1-.3-6.1.3-1.6.7-3 1.7-4.3 2.8-2.3 1.8-4.8 3.5-7.4 4.9-2.1 1.1-4.3 2.2-5.7 4-.7.9-1.2 2-1.6 3.1-2.5 6.4-3.2 13.3-1.9 20 .1 1 .4 1.9.9 2.7 1.3 2.4 4.3 3.4 6.7 4.7 4.7 2.4 8.2 6.5 12.1 10.2 1.4 1.4 3 2.7 4.8 3.7 5.5 3 12.2 2 18.4 1 1.8 0 3.3-1.5 3.3-3.3l4.9-21.9c.9-3.2 1.3-6.6 1.2-9.9-.3-5.3-3.2-12.7-7.1-16.4-4.7-4.6-12.3-5.3-18.2-5.9z" style="fill:#e62965"/><circle class="st1" cx="341.3" cy="608" r="10.1"/><path class="st2" d="M341.3 637.1c-16.1 0-29.1-13-29.1-29.1s13-29.1 29.1-29.1 29.1 13 29.1 29.1c0 16-13 29.1-29.1 29.1zm0-56c-14.8 0-26.9 12-26.9 26.9s12 26.9 26.9 26.9c14.8 0 26.9-12 26.9-26.9 0-14.9-12.1-26.9-26.9-26.9z"/><circle class="st1" cx="831.7" cy="609.2" r="10.1"/><path class="st2" d="M831.7 638.4c-16.1 0-29.1-13-29.1-29.1s13-29.1 29.1-29.1 29.1 13 29.1 29.1c0 16-13 29-29.1 29.1zm0-56c-14.8 0-26.9 12-26.9 26.9s12 26.9 26.9 26.9 26.9-12 26.9-26.9c0-14.9-12-26.9-26.9-26.9z"/><circle class="st1" cx="831.7" cy="553.1" r="10.1"/><path class="st2" d="M831.7 582.2c-16.1 0-29.1-13-29.1-29.1s13-29.1 29.1-29.1 29.1 13 29.1 29.1c0 16-13 29-29.1 29.1zm0-56c-14.8 0-26.9 12-26.9 26.9s12 26.9 26.9 26.9 26.9-12 26.9-26.9c0-14.9-12-26.9-26.9-26.9z"/></svg>