<svg version="1.1" id="a0abe8dc-3e6b-48ed-b282-1465f1104096" xmlns="http://www.w3.org/2000/svg" x="0" y="0" viewBox="0 0 886.1 718.4" style="enable-background:new 0 0 886.1 718.4" xml:space="preserve"><style>.st0{fill:#e6e6e6}.st1{fill:#fff}.st2{fill:#e2e2e2}.st3{fill:#671cc9}.st4{fill:#a0616a}.st5{fill:#2f2e41}.st6{fill:#575a89}.st7{opacity:.2;enable-background:new}</style><ellipse class="st0" cx="638.5" cy="698.4" rx="94.6" ry="20"/><path class="st0" d="M191.2 0H63.7L0 110.4l63.7 110.4h127.5l63.7-110.4z"/><path class="st1" d="M70.9 208.4H184l56.6-98-56.6-98H70.9l-56.6 98 56.6 98z"/><circle class="st2" cx="69.5" cy="81.1" r="5.2"/><circle class="st2" cx="69.5" cy="110.4" r="5.2"/><circle class="st2" cx="69.5" cy="139.6" r="5.2"/><path class="st2" d="M91.4 77h99.2v8.4H91.4zM91.4 106.2h99.2v8.4H91.4zM91.4 135.4h99.2v8.4H91.4z"/><path class="st0" d="M822.4 0H694.9l-63.7 110.4 63.7 110.4h127.5l63.7-110.4z"/><path class="st1" d="M702.1 208.4h113.2l56.6-98-56.6-98H702.1l-56.6 98 56.6 98z"/><circle class="st2" cx="700.7" cy="81.1" r="5.2"/><circle class="st2" cx="700.7" cy="110.4" r="5.2"/><circle class="st2" cx="700.7" cy="139.6" r="5.2"/><path class="st2" d="M722.6 77h99.2v8.4h-99.2zM722.6 106.2h99.2v8.4h-99.2zM722.6 135.4h99.2v8.4h-99.2z"/><path class="st0" d="M503.7 1.1H377.5l-63.1 109.3 63.1 109.3h126.2l63.1-109.3z"/><path class="st1" d="M384.6 207.4h112.1l56-97-56-97H384.6l-56 97 56 97z"/><circle class="st3" cx="383.2" cy="81.4" r="5.2"/><circle class="st3" cx="383.2" cy="110.4" r="5.2"/><circle class="st3" cx="383.2" cy="139.3" r="5.2"/><path class="st3" d="M405 77.3h98.2v8.3H405zM405 106.2h98.2v8.3H405zM405 135.2h98.2v8.3H405z"/><path class="st4" d="M618.4 192.3s10.3 38.6 19.1 41.1-46.8 10.6-46.8 10.6l-1.2-34.6 28.9-17.1zM573 432.9l10.3 22 11.7-11.7-7.3-17.7zM700.9 419.7l-2.9 20.5-8.9-5.8v-22.1zM574.5 641.6l-4.4 35.3 23.5 1.5-3-36.8zM703.8 641.6l4.4 35.3-23.5 1.5 3-36.8z"/><path class="st5" d="M584.8 421.1s-10.3 27.9-8.8 39.7-11.8 72-7.4 77.9c4.4 5.9 4.4 13.2 1.5 17.6-2.9 4.4-4.4-1.5-2.9 5.9 1.5 7.4-1.5 44.1 0 50s-4.4 7.4-1.5 13.2c2.9 5.9 7.4 23.5 7.4 23.5l19.1-1.5 2.9-16.2s8.8-1.5 7.4-10.3 7.4-67.6 7.4-67.6l25-82.3 35.3 75s1.5 52.9 5.9 58.8c4.4 5.9-4.4 22.1 0 27.9 4.4 5.9 8.8 16.2 8.8 16.2H707v-11.8s13.2-7.4 0-29.4l-2.9-126.4-8.8-60.3H584.8zM596.5 672.5s-10.3-4.4-14.7-1.5c-4.4 2.9-7.4-1.5-7.4-1.5s-5.9-2.9-7.4 1.5c-1.1 3.1-2.6 6.1-4.4 8.8 0 0-8.8 16.2-2.9 20.6 5.9 4.4 10.3 7.4 10.3 10.3s27.9 4.4 27.9 0-1.4-38.2-1.4-38.2zM681.8 672.5s10.3-4.4 14.7-1.5c4.4 2.9 7.4-1.5 7.4-1.5s5.9-2.9 7.4 1.5c1.1 3.1 2.6 6.1 4.4 8.8 0 0 8.8 16.2 2.9 20.6-5.9 4.4-10.3 7.4-10.3 10.3s-27.9 4.4-27.9 0 1.4-38.2 1.4-38.2z"/><path class="st6" d="M672.2 241S631 224.8 609 230.7c-22.1 5.9-58.8 32.3-57.3 38.2s15.4 74.2 15.4 74.2 0 41.2 7.4 54.4c7.4 13.2 8.8 23.5 8.8 23.5l-1.5 14.7s38.2 2.9 58.8-5.9S695 427 695 427s-17.6-73.5-26.5-85.3c-8.8-11.7 3.7-100.7 3.7-100.7z"/><path class="st6" d="m564.2 265.3-13.2 4.4s-11.8 17.6-11.8 29.4-1.5 85.3 4.4 95.6c5.9 10.3 11.8 30.9 20.6 32.3l10.3 13.2 17.6-11.8-5.9-13.2-22-149.9zM652.4 243.2l14.6-4.1 6 2.6s22.1 22.1 29.4 44.1c7.4 22.1 8.8 107.3 8.8 107.3s1.5 4.4 0 5.9-2.9 2.9-2.9 5.9c0 2.9-2.9 8.8-2.9 8.8l-1.5 11.8-14.7-1.5s-27.9-82.3-27.9-101.4-8.9-79.4-8.9-79.4zM648.3 233.5s.4-7.2-4-8.7c-4.4-1.5-10.3-8.8-22.1-5.9s-42.6 7.4-44.1 10.3-5.9 4.4-4.4 7.4 4.4 0 1.5 2.9c-2.9 2.9-4.4 1.5-2.9 2.9 1.5 1.5 1.5 8.8 1.5 8.8s22.1 14.7 27.9 13.2c5.9-1.5 41-32.3 41-32.3l5.6 1.4z"/><path class="st7" d="m573.7 329.7-1.5 50.1 11.7 35.3zM675.1 307.9l13.3 48.3-3.1 37z"/><circle class="st4" cx="602.8" cy="189.6" r="31.2"/><path class="st5" d="M576.2 187.4c2.2 5.6 4.4 11.3 6.6 16.9 2.7 6.9 5.8 14.3 12.2 18.2 7.8 4.8 18.3 2.4 25.9-2.7 13.5-9.2 20.4-27.2 16.5-43.1s-18.4-28.6-34.7-30.4l-.3 5.6-6.9-5.8c-1.8 3.7-7.7 4.5-10.5 1.5 1.8 3.8-.3 8.4-3.3 11.3-3.7 3.6-14.4 7.8-13.9 14.2.2 4.1 6.7 9.9 8.4 14.3z"/></svg>