<svg version="1.1" id="b4b2b9fe-f942-49b6-919a-816d625fc7ce" xmlns="http://www.w3.org/2000/svg" x="0" y="0" viewBox="0 0 1055.5 670.2" style="enable-background:new 0 0 1055.5 670.2" xml:space="preserve"><style>.st0{opacity:.1;fill:#f2f2f2}.st1{fill:#797bf2}.st2{fill:#65657c}.st3{fill:#ffb9b9}.st5{fill:#2f2e41}.st6{opacity:.1;enable-background:new}</style><path class="st0" d="M0 119.2v296h476v-296H0zm374.3 206.6c0 6.6-5.4 12-12 12h-58c-6.6 0-12-5.4-12-12v-3c0-6.6 5.4-12 12-12h58c6.6 0 12 5.4 12 12v3z"/><path transform="rotate(-21.14 697.853 174.148)" class="st1" d="M682.3 159.3h30.9v29.8h-30.9z"/><path class="st2" d="M712.4 180.3 682 192.1l-11.3-29.3 30.3-11.7 11.4 29.2zM683 190l27.3-10.6-10.2-26.4-27.3 10.6L683 190z"/><path transform="rotate(-18.968 247.542 538.252)" class="st1" d="M232.6 522.8h29.8v30.9h-29.8z"/><path class="st2" d="m240.8 552.6-10.6-30.8 29.7-10.2 10.6 30.8-29.7 10.2zm-8.6-29.8 9.5 27.7 26.7-9.2-9.5-27.7-26.7 9.2zM515.5 386.7h-478v-298h478v298zm-476-2h474v-294h-474v294z"/><path class="st0" d="M540 374.2h476v296H540z"/><path class="st2" d="M1055.5 641.7h-478v-298h478v298zm-476-2h474v-294h-474v294zM160.8 257.8h208c6.6 0 12 5.4 12 12v3c0 6.6-5.4 12-12 12h-208c-6.6 0-12-5.4-12-12v-3c0-6.6 5.3-12 12-12zM160.8 151.8h208c6.6 0 12 5.4 12 12v3c0 6.6-5.4 12-12 12h-208c-6.6 0-12-5.4-12-12v-3c0-6.6 5.3-12 12-12zM160.8 204.8h208c6.6 0 12 5.4 12 12v3c0 6.6-5.4 12-12 12h-208c-6.6 0-12-5.4-12-12v-3c0-6.6 5.3-12 12-12zM178 90l-1.3-.5c-.3-.1-28-10.7-41-34.8-13-24.1-6.6-53.1-6.6-53.4l.3-1.3 1.3.5c.3.1 28 10.7 41 34.8 13 24.1 6.6 53.1 6.6 53.4L178 90zm-40.1-36.4c11 20.4 32.9 30.8 38.4 33.2 1.1-5.9 4.4-30-6.6-50.3-11-20.3-32.9-30.8-38.4-33.2-1.1 5.9-4.4 29.9 6.6 50.3z"/><path class="st1" d="M145.7 46.2C169 60.2 178 88.1 178 88.1s-28.8 5.1-52.2-8.9-32.2-41.9-32.2-41.9 28.8-5.1 52.1 8.9z"/><path class="st3" d="M782.4 578.2s-40.6 21.1-25.6 40.6 40.6-22.6 40.6-25.6-15-15-15-15z"/><path d="M827.5 524s-27.1 33.1-34.6 37.6-13.5 9-13.5 10.5-6 9-6 9l24.1 21.1s27.1-36.1 30.1-36.1-.1-42.1-.1-42.1z" style="fill:#6a70db"/><path class="st5" d="M917.9 640.7h-87.7l6.6-42 5.4-33.9 3.4-21.2 33.1-12.1 8 12.4 25.1 38.8 1.6 15.9 4.4 41.7z"/><path class="st5" d="M935.8 581.2s-.6 5.2-2.4 13.5c-.5 2.1-1 4.5-1.7 7-.6 2.2-1.2 4.5-1.9 6.9-2.2 7.7-4.9 15.2-8 22.6-1.3 3-2.6 6.1-4.1 9.1-.1.1-.1.3-.2.4H806.9c4.5-18 9-34.1 12-45 2.5-9 4.1-14.5 4.1-14.5l19.2-16.3 21.4-18.2 23.1-2.6 14.3-1.6 9.8-1.1 1.6-.2 3.9-.5 19.5 40.5z"/><circle class="st3" cx="849.1" cy="299.3" r="34.6"/><path class="st3" d="m877.4 301 18.1 38.7-50.8 35.2s6-41.9-5.3-52.5 38-21.4 38-21.4z"/><path class="st1" d="M838.1 378.1s24.1-49.6 43.6-49.6 70.7 34.6 69.2 42.1-1.5 9-1.5 13.5 10.5 4.5 1.5 7.5-10.5 6-10.5 6l7.5 192.5s-33.1 12-45.1 7.5-24.1-34.6-24.1-34.6 3 40.6-9 39.1-57.1-4.5-58.7-10.5 9-138.4 9-138.4l18.1-75.1z"/><path class="st3" d="M954 640.7h-30.4c-.8-3.1-1.4-6.3-1.7-9.5-.8-7.3-.9-14.6-.3-21.9.3-4.3.7-7.1.7-7.1l9.5-.6 16.1-.9s.6 2.4 1.5 6.2c1.8 7.8 4.6 21.9 4.6 33.8z"/><path class="st1" d="m916.3 366.1 43.6 111.3s6 12 0 21.1 3 63.2-3 75.2-6 33.1-6 33.1l-34.6 3-7.5-132.3-39.1-84.2c-.1-.1 3-34.7 46.6-27.2z"/><path class="st6" d="M905 362.3s27.1 7.5 36.1 34.6L905 362.3z"/><path d="M871.8 315c-3.4-.2-6.7.9-10 1.4-12 1.6-24.4-7.1-27-18.9-.2-1.6-.7-3.1-1.4-4.5-1.8-3-6-3.6-9.5-2.9s-6.7 2.3-10.2 2.5c-5.4.3-10.6-3.1-13.5-7.7s-3.7-10.3-3.3-15.7l2.6 2.7c1.1-2.2 1.5-4.7 1.2-7.2 2.8-.7 5.8 0 7.9 2 2.3.2.6-4.3 2.3-5.8.7-.7 1.8-.5 2.8-.5 4.9 0 8.8-3.7 12.7-6.7 6.7-5.2 14.5-8.8 22.8-10.4 5.5-1.1 11.4-1.2 16.6.8 4.3 1.7 7.9 4.8 11.2 8 8.2 7.9 15.4 17.1 18.9 28 2.8 8.9 2.8 18.4.2 27.3-1.4 4.6-5.5 20.5-11.6 20.9-7.8.5-3.2-12.7-12.7-13.3z" style="fill:#ff227d"/><path class="st6" d="m869.3 425.7 35.5 51.9 11.3 120.7z"/><path class="st2" d="M706 596.2h58c6.6 0 12 5.4 12 12v3c0 6.6-5.4 12-12 12h-58c-6.6 0-12-5.4-12-12v-3c0-6.7 5.4-12 12-12z"/></svg>