<svg version="1.1" id="e8345542-4160-463b-841e-d6381701a249" xmlns="http://www.w3.org/2000/svg" x="0" y="0" viewBox="0 0 1014.9 616.5" style="enable-background:new 0 0 1014.9 616.5" xml:space="preserve"><style>.st2{fill:#65657c}.st3{fill:#671cc9}.st4{fill:#797bf2}.st5{fill:#4e4e63}.st6{opacity:.5}</style><g style="opacity:.1"><linearGradient id="SVGID_1_" gradientUnits="userSpaceOnUse" x1="223" y1="249.67" x2="223" y2="616" gradientTransform="matrix(1 0 0 -1 0 616)"><stop offset="0" style="stop-color:gray;stop-opacity:.25"/><stop offset=".54" style="stop-color:gray;stop-opacity:.12"/><stop offset="1" style="stop-color:gray;stop-opacity:.1"/></linearGradient><path style="fill:url(#SVGID_1_)" d="M0 0h446v366.3H0z"/></g><path class="st2" d="M5.2 6.9h434.7v353.3H5.2z"/><path class="st3" d="M5.2 6.9h434.7v78.8H5.2z"/><path class="st4" d="M5.2 6.9h434.7v78.8H5.2z"/><path class="st5" d="M39.8 114.3h365.5v45.9H39.8zM39.8 194.9h266.7v15.6H39.8zM39.8 221.7H213v15.6H39.8zM39.8 248.6h228.6v15.6H39.8zM39.8 275.4h266.7V291H39.8zM39.8 302.2H129v15.6H39.8z"/><g class="st6"><linearGradient id="SVGID_2_" gradientUnits="userSpaceOnUse" x1="829" y1="134.25" x2="829" y2="500.58" gradientTransform="rotate(180 810.46 250.29)"><stop offset="0" style="stop-color:gray;stop-opacity:.25"/><stop offset=".54" style="stop-color:gray;stop-opacity:.12"/><stop offset="1" style="stop-color:gray;stop-opacity:.1"/></linearGradient><path style="opacity:.1;fill:url(#SVGID_2_)" d="M568.9 0h446v366.3h-446z"/></g><path class="st2" d="M575 6.9h434.7v353.3H575z"/><path class="st3" d="M575 6.9h434.7v78.8H575z"/><path class="st4" d="M575 6.9h434.7v78.8H575z"/><path class="st5" d="M609.6 114.3h365.5v45.9H609.6zM708.4 194.9h266.7v15.6H708.4zM801.9 221.7h173.2v15.6H801.9zM746.5 248.5h228.6v15.6H746.5zM708.4 275.4h266.7V291H708.4zM885.9 302.2h89.2v15.6h-89.2z"/><g class="st6"><linearGradient id="SVGID_3_" gradientUnits="userSpaceOnUse" x1="508" y1="-.51" x2="508" y2="456.17" gradientTransform="matrix(1 0 0 -1 0 616)"><stop offset="0" style="stop-color:gray;stop-opacity:.25"/><stop offset=".54" style="stop-color:gray;stop-opacity:.12"/><stop offset="1" style="stop-color:gray;stop-opacity:.1"/></linearGradient><path style="opacity:.1;fill:url(#SVGID_3_)" d="M230 159.8h556v456.7H230z"/></g><path class="st2" d="M236.5 168.5h542V609h-542z"/><path class="st4" d="M236.5 168.5h542v98.2h-542z"/><path class="st5" d="M279.7 302.3h455.6v57.2H279.7zM279.7 402.7h332.5v19.4H279.7zM279.7 436.2h215.9v19.4H279.7zM279.7 469.7h285v19.4h-285zM279.7 503.1h332.5v19.4H279.7zM279.7 536.6h111.2V556H279.7z"/><path style="fill:#69f0ae" d="M303.4 321.8H433v17.3H303.4z"/></svg>