<svg version="1.1" id="Layer_1" xmlns="http://www.w3.org/2000/svg" x="0" y="0" viewBox="0 0 804.7 610.3" style="enable-background:new 0 0 804.7 610.3" xml:space="preserve"><style>.st1{fill:#a0616a}.st3{fill:#2f2e41}.st4{fill:#575a89}.st5{fill:#797bf2}.st7{fill:#fff}.st8{opacity:.1;fill:#e6e6e6}</style><ellipse id="Ellipse_218" cx="717.4" cy="592.7" rx="76.3" ry="17.6" style="fill:#e6e6e6"/><path id="Path_1092" class="st1" d="M716.4 143.1v23l12 30 19-34v-26l-31 7z"/><path id="Path_1093" class="st1" d="m662.9 321.6-3 22s-7 24 3 24 10-26 10-26l2-15-12-5z"/><path id="Path_1094" class="st1" d="m783.9 318.6-3 22s-7 24 3 24 10-26 10-26l2-15-12-5z"/><path id="Path_1095" d="m691.4 296.1-4.7 1.3s-12.3 79.7-13.3 121.7-3 148-3 148h32l21-180 10 180h34s14-236 5-255-81-16-81-16z" style="fill:#55536e"/><path id="Path_1096" class="st3" d="m672.4 565.1-9 14s-25 21-3 20 31-11 31-11v3l12-4-2-22h-29z"/><path id="Path_1097" class="st3" d="m764.4 565.1 9 14s25 21 3 20-31-11-31-11v3l-12-4 2-22h29z"/><circle id="Ellipse_219" class="st1" cx="728.9" cy="126.6" r="22"/><path id="Path_1098" class="st4" d="m727.4 181.1-11-22.5-5 11.5-2 99 46-103-8-8.8-20 23.8z"/><path id="Path_1099" class="st5" d="M788.4 186.1 752 162.3s-2.5 22.8-25.5 20.8-12.3-19.3-12.3-19.3l-36.8 20.3 14 78-6 45s54-6 66 3c7 5.3 15.3 8.8 24 10l-2-77 15-57z"/><path id="Path_1100" class="st5" d="m777.4 190.1 6.9-6.7 5.1 3.7s5 6 9 24 2 98 2 98l-22-3 1-33-9-44 7-39z"/><path id="Path_1101" class="st5" d="m684.4 183.1-3.8-.8-3.2 1.8s-9 12-9 23-9 105-9 105l20 9 14-71-9-67z"/><path id="Path_1102" class="st4" d="M803.4 311.1s-20-12-27-4 4 16 4 16 31 12 23-12z"/><path id="Path_1103" class="st4" d="M681.4 317.1s-20-12-27-4 4 16 4 16 31 12 23-12z"/><path id="Path_1104" class="st5" d="M748.2 110.5s5.8-11-6.9-12c0 0-11.5-7-20.7 1 0 0-8.1-2-10.4 4 0 0-1.2-3 2.3-5 0 0-8.1-2-8.1 8 0 0-3.5 10 0 19s4.6 10 4.6 10-5.7-18.9 8.1-19.9 29.3-9.6 30.4 1.4c1.2 11 3.5 14 3.5 14s10.4-16-2.8-20.5z"/><path id="Path_1105" d="M268.3 524.3h-.1c-5.1 0-10.3-.2-15.4-.5l.1-1.3c5.1.3 10.2.5 15.3.5h.1v1.3zm15.5-.5-.1-1.3c5.1-.3 10.3-.8 15.4-1.4l.2 1.3c-5.1.7-10.3 1.1-15.5 1.4zm-46.5-1.3c-5.1-.6-10.3-1.4-15.4-2.3l.2-1.3c5 .9 10.2 1.7 15.3 2.3l-.1 1.3zm77.3-2.4-.2-1.3c5-.9 10.1-2 15.1-3.2l.3 1.3c-5 1.2-10.1 2.3-15.2 3.2zm-107.8-3.2c-5-1.2-10-2.6-15-4.2l.4-1.2c4.9 1.5 9.9 2.9 14.9 4.1l-.3 1.3zm138-4.2-.4-1.2c4.9-1.5 9.8-3.2 14.6-5l.5 1.2c-4.9 1.8-9.8 3.5-14.7 5zm-167.7-5c-4.8-1.8-9.7-3.8-14.4-5.9l.5-1.2c4.7 2.1 9.5 4.1 14.3 5.9l-.4 1.2zm196.7-6-.5-1.2c4.7-2.1 9.3-4.4 13.9-6.8l.6 1.1c-4.6 2.5-9.3 4.8-14 6.9zm-225.1-6.8c-4.6-2.4-9.1-5-13.5-7.6l.7-1.1c4.4 2.7 8.9 5.2 13.5 7.6l-.7 1.1zm252.5-7.7-.7-1.1c4.4-2.7 8.7-5.5 13-8.4l.7 1.1c-4.2 2.9-8.6 5.8-13 8.4zm-279-8.3c-4.2-2.9-8.5-6-12.5-9.2l.8-1c4 3.2 8.2 6.2 12.5 9.2l-.8 1zm304.5-9.3-.8-1c4-3.2 8-6.5 11.9-9.9l.9 1c-3.9 3.4-7.9 6.7-12 9.9zm-329-9.9c-3.9-3.4-7.7-7-11.3-10.6l.9-.9c3.6 3.6 7.4 7.2 11.3 10.6l-.9.9zM450 449l-.9-.9c3.6-3.6 7.2-7.4 10.6-11.3l1 .9c-3.5 3.8-7.1 7.6-10.7 11.3zM75.7 437.8c-3.4-3.9-6.8-7.9-10-11.9l1-.8c3.2 4 6.5 8 9.9 11.9l-.9.8zm394.9-12-1-.8c3.2-4 6.3-8.2 9.2-12.4l1.1.7c-3 4.2-6.1 8.4-9.3 12.5zm-414-12.4c-2.9-4.2-5.8-8.6-8.4-13l1.1-.7c2.7 4.4 5.5 8.7 8.4 13l-1.1.7zm431.6-13.2-1.1-.7c2.7-4.4 5.2-8.9 7.6-13.5l1.1.6c-2.3 4.7-4.9 9.2-7.6 13.6zM40.5 386.8c-2.4-4.6-4.7-9.2-6.8-13.9l1.2-.5c2.1 4.7 4.4 9.3 6.8 13.9l-1.2.5zm462.2-14.1-1.2-.5c2.1-4.7 4.1-9.5 5.9-14.3l1.2.5c-1.8 4.8-3.8 9.6-5.9 14.3zm-475-14.1c-1.8-4.8-3.5-9.8-5.1-14.7l1.2-.4c1.5 4.9 3.2 9.8 5.1 14.6l-1.2.5zm486-15-1.2-.4c1.5-4.9 2.9-9.9 4.1-14.9l1.3.3c-1.2 5.1-2.6 10.1-4.2 15zM18.5 328.9c-1.2-5-2.3-10.1-3.3-15.2l1.3-.2c.9 5 2 10.1 3.2 15.1l-1.2.3zm502.6-15.4-1.3-.2c.9-5 1.7-10.2 2.3-15.3l1.3.2c-.6 5.1-1.3 10.2-2.3 15.3zM12.9 298.4c-.6-5.1-1.1-10.3-1.4-15.5l1.3-.1c.3 5.1.8 10.3 1.4 15.4l-1.3.2zm511.9-15.7-1.3-.1c.3-5.1.5-10.3.5-15.4v-.5h1.3v.5c0 5.1-.1 10.3-.5 15.5zM12.3 267.4H11v-.3c0-5.1.1-10.2.4-15.2l1.3.1c-.3 5-.4 10.1-.4 15.2v.2zm511.2-16.2c-.3-5.1-.8-10.3-1.4-15.4l1.3-.2c.6 5.1 1.1 10.3 1.4 15.5l-1.3.1zM14.1 236.6l-1.3-.2c.6-5.1 1.4-10.3 2.3-15.4l1.3.2c-.9 5.2-1.7 10.3-2.3 15.4zm505.7-16.1c-.9-5.1-2-10.1-3.3-15.1l1.3-.3c1.2 5 2.3 10.1 3.3 15.2l-1.3.2zM19.6 206.2l-1.3-.3c1.2-5 2.6-10 4.1-15l1.2.4c-1.4 4.9-2.8 9.9-4 14.9zm492.7-15.7c-1.5-4.9-3.2-9.8-5.1-14.6l1.2-.5c1.8 4.8 3.6 9.8 5.1 14.7l-1.2.4zM28.8 176.7l-1.2-.5c1.8-4.8 3.8-9.7 5.9-14.4l1.2.5c-2.1 4.8-4.1 9.6-5.9 14.4zm472.5-15c-2.1-4.7-4.4-9.3-6.8-13.9l1.1-.6c2.4 4.6 4.7 9.2 6.8 13.9l-1.1.6zM41.4 148.5l-1.1-.6c2.4-4.6 5-9.1 7.6-13.5l1.1.6c-2.6 4.4-5.2 8.9-7.6 13.5zm445.5-14.1c-2.7-4.4-5.5-8.7-8.4-12.9l1.1-.7c2.9 4.2 5.8 8.6 8.5 13l-1.2.6zM57.4 122l-1.1-.7c2.9-4.2 6-8.5 9.2-12.5l1 .8c-3.1 4-6.2 8.2-9.1 12.4zm411.9-13c-3.2-4-6.5-8-9.9-11.8l1-.9c3.4 3.8 6.8 7.9 10 11.9l-1.1.8zM76.5 97.7l-1-.9c3.4-3.9 7-7.7 10.6-11.3l.9.9c-3.6 3.6-7.1 7.4-10.5 11.3zM448.8 86c-3.6-3.6-7.4-7.2-11.3-10.6l.9-1c3.9 3.4 7.7 7 11.3 10.6l-.9 1zM98.3 75.8l-.9-1c3.8-3.4 7.9-6.8 11.9-10l.8 1c-4 3.3-8 6.6-11.8 10zm327.4-10.3c-4-3.2-8.2-6.2-12.5-9.2l.7-1.1c4.3 2.9 8.5 6 12.5 9.2l-.7 1.1zm-303.1-8.8-.7-1.1c4.2-2.9 8.6-5.8 13-8.5l.7 1.1c-4.5 2.8-8.8 5.6-13 8.5zM400.2 48c-4.4-2.7-8.9-5.2-13.5-7.6l.6-1.1c4.6 2.4 9.1 5 13.5 7.6l-.6 1.1zM149 40.7l-.6-1.1c4.6-2.4 9.2-4.7 13.9-6.8l.5 1.2c-4.6 2-9.3 4.3-13.8 6.7zm223.8-7.1c-4.7-2.1-9.5-4.1-14.3-5.9l.5-1.2c4.8 1.8 9.7 3.8 14.4 5.9l-.6 1.2zM177.1 28l-.5-1.2c4.8-1.8 9.8-3.5 14.7-5.1l.4 1.2c-4.9 1.5-9.8 3.3-14.6 5.1zm166.8-5.3c-4.9-1.5-9.9-2.9-14.9-4.1l.3-1.3c5 1.2 10 2.6 15 4.1l-.4 1.3zm-137.4-3.9-.3-1.3c5-1.2 10.1-2.3 15.2-3.3l.2 1.3c-5 .9-10.1 2-15.1 3.3zm107.4-3.4c-5-.9-10.2-1.7-15.3-2.3l.2-1.3c5.1.6 10.3 1.4 15.4 2.3l-.3 1.3zm-77-2.2-.2-1.3c5.1-.6 10.3-1.1 15.5-1.4l.1 1.3c-5.1.3-10.3.8-15.4 1.4zm46.3-1.5c-5-.3-10-.4-15-.4h-.4V10h.4c5 0 10.1.1 15.1.4l-.1 1.3z" style="fill:#65657c"/><path id="Rectangle_316" class="st5" d="M374.8 430.3h152.8v114.6H374.8z"/><path id="Rectangle_317" class="st7" d="M393.9 460.8h114.6v7.6H393.9z"/><path id="Rectangle_318" class="st7" d="M393.9 483.7h114.6v7.6H393.9z"/><path id="Rectangle_319" class="st7" d="M393.9 506.7h114.6v7.6H393.9z"/><path class="st8" d="M8 0v80.1h106.7V0H8zm93.4 58.7H21.3v-5.3h80.1v5.3zm0-16H21.3v-5.3h80.1v5.3zm0-16H21.3v-5.3h80.1v5.3z"/><path id="Rectangle_324" class="st5" d="M53.4 41.4h106.7v80.1H53.4z"/><path id="Rectangle_325" class="st7" d="M66.7 62.7h80.1V68H66.7z"/><path id="Rectangle_326" class="st7" d="M66.7 78.7h80.1V84H66.7z"/><path id="Rectangle_327" class="st7" d="M66.7 94.7h80.1v5.3H66.7z"/><path id="Subtraction_1" class="st8" d="M414 376H123V158h291v218zM126 161v212h285V161H126z"/><g id="Group_41" transform="translate(-9.234 -16.468)"><circle id="Ellipse_220" class="st5" cx="277.6" cy="283.9" r="55.4"/><path id="Path_1106" class="st7" d="M300.7 279.2h-18.8v-18.8c0-2.4-2-4.4-4.4-4.4-2.4 0-4.4 2-4.4 4.4v18.8h-18.8c-2.4 0-4.4 2-4.4 4.4 0 2.4 2 4.4 4.4 4.4h18.8v18.8c0 2.4 2 4.4 4.4 4.4 2.4 0 4.4-2 4.4-4.4V288h18.8c2.4 0 4.4-2 4.4-4.4 0-2.4-2-4.4-4.4-4.4z"/></g><path class="st8" d="M0 411v80.1h106.7V411H0zm93.4 58.7H13.3v-5.3h80.1v5.3zm0-16H13.3v-5.3h80.1v5.3zm0-16H13.3v-5.3h80.1v5.3z"/></svg>