<svg version="1.1" id="b4f74b74-9f48-4ac7-9642-0389d8d43dd0" xmlns="http://www.w3.org/2000/svg" x="0" y="0" viewBox="0 0 810 677.1" style="enable-background:new 0 0 810 677.1" xml:space="preserve"><style>.st0{opacity:.1;fill:#f2f2f2}.st1{fill:#3f3d56}.st2{opacity:.1;enable-background:new}.st5{fill:#ff227d}.st6{fill:#797bf2}.st7{fill:#fbbebe}.st8{fill:#55536e}.st9{fill:#2f2e41}.st10{fill:#ffb9b9}</style><path class="st0" d="M653.4 661.1 108 166.1 193.3 0 793 657.1z"/><circle class="st0" cx="405" cy="107.1" r="33"/><circle class="st1" cx="550" cy="175.1" r="11"/><circle class="st1" cx="550" cy="262.1" r="11"/><circle class="st1" cx="660" cy="284.1" r="11"/><ellipse class="st0" cx="405" cy="657.1" rx="405" ry="20"/><path class="st1" d="M641.9 332.2c-4.6-7.6-20.6-7.4-20.6-7.4-14.6 21.7-49.7-1.4-49.7-1.4-26.1 11.7-42-25.5-42-25.5-35.1-5.2-29.7-42.1-29.7-42.1-17.5-3.5-12.6-35.1-12.6-35.1s9.7-7.9 4.9-13.8c-3-3.7-3.2-14.3-3-21.5-22.8-6.9-46.5-10.4-70.3-10.4-133.1 0-241 107.9-241 241s107.9 241 241 241 241-107.9 241-241c0-28.9-5.2-57.6-15.3-84.7-1.1 1.5-2.1 1.9-2.7.9z"/><path class="st2" d="M641.9 332.2c-4.6-7.6-20.6-7.4-20.6-7.4-14.6 21.7-49.7-1.4-49.7-1.4-26.1 11.7-42-25.5-42-25.5-35.1-5.2-29.7-42.1-29.7-42.1-17.5-3.5-12.6-35.1-12.6-35.1s9.7-7.9 4.9-13.8c-3-3.7-3.2-14.3-3-21.5-22.8-6.9-46.5-10.4-70.3-10.4-133.1 0-241 107.9-241 241s107.9 241 241 241 241-107.9 241-241c0-28.9-5.2-57.6-15.3-84.7-1.1 1.5-2.1 1.9-2.7.9z"/><path class="st1" d="M627.6 331.3c-4.4-7.2-19.6-7-19.6-7-13.9 20.6-47.3-1.3-47.3-1.3-24.8 11.1-39.9-24.3-39.9-24.3-33.4-5-28.2-40-28.2-40-16.6-3.3-11.9-33.4-11.9-33.4s9.2-7.6 4.7-13.1c-2.9-3.5-3.1-13.6-2.8-20.5-21.7-6.6-44.2-9.9-66.8-9.9-126.8 0-229.4 102.6-229.4 229.2S289 640.2 415.6 640.2 644.8 537.6 644.8 411c0-27.5-4.9-54.8-14.6-80.5-1.1 1.3-2 1.7-2.6.8z"/><path d="M388.3 317.3s-39.5-25.2-77.3 0c-13.2 8.8-19.8 21.3-22.8 33.9-5.3 22.4.5 46 14.8 64L388.4 523c6 7.7 15.8 11.2 25.3 9.2.2 0 .4-.1.6-.1 6.8-1.7 12.6-6.1 16.1-12.2l59.4-104.2c11-19 15.5-41 12.8-62.8-2.8-21.4-13.1-44-42.3-51.8-.2 0-34.3-14.3-72 16.2z" style="fill:#671cc9"/><path d="M388.3 317.3s-39.5-25.2-77.3 0c-13.2 8.8-19.8 21.3-22.8 33.9-5.3 22.4.5 46 14.8 64L388.4 523c6 7.7 15.8 11.2 25.3 9.2.2 0 .4-.1.6-.1 6.8-1.7 12.6-6.1 16.1-12.2l59.4-104.2c11-19 15.5-41 12.8-62.8-2.8-21.4-13.1-44-42.3-51.8-.2 0-34.3-14.3-72 16.2z" style="fill:#b21664"/><path class="st5" d="M388.7 323.4s-37.1-23.6-72.5 0c-12.4 8.3-18.6 20-21.4 31.8-5 21 .5 43.1 13.9 60.1l80.1 101.1c5.6 7.2 14.8 10.5 23.7 8.6.2 0 .3-.1.5-.1 6.4-1.6 11.9-5.7 15.1-11.5l55.7-97.8c10.3-17.8 14.5-38.5 12-58.9-2.6-20.1-12.3-41.3-39.7-48.6 0 .1-32-13.4-67.4 15.3z"/><path class="st2" d="M390.1 363.8s-18-11.5-35.3 0c-5.3 3.6-9.1 9.2-10.4 15.5-2.3 10.3.2 21 6.8 29.2 0 0 46.2 54.4 50.5 53.4.1 0 .2 0 .3-.1 3.1-.7 34.4-53.1 34.4-53.1 5-8.7 7.1-18.7 5.9-28.7-1.3-9.8-6-20.1-19.3-23.6-.1.1-15.7-6.5-32.9 7.4zM277.4 449.8l5.1 8.4 10.1 16.9 3.4 11.8-6.8 10.1 8.5 20.2L301 529l-6.7 6.7 13.5 10.1M525.2 375.6v13.5l-8.5 21.9-5 11.8 8.4 15.2 3.4 10.1 13.5 5.1 5 8.4v20.2M611.1 389.1l-13.5 8.4s-6.7 3.4-6.7 5.1v13.5M550.5 341.9l3.3 16.9-3.3 11.8M563.9 493.6l-10.1 15.2-11.8 10.1v6.7l6.8 8.5v10.1l-5.1 10.1M467.9 207.1H451l-13.5 11.8-21.9 11.8-10.1 8.4v3.4l-21.9 11.8-6.7 11.8M285.9 235.8l-15.2 30.3-5.1 11.8-11.8 15.2s-8.4 15.2-10.1 16.9-13.5 5.1-13.5 5.1l16.9 16.9M218.4 352l-3.3 21.9 3.3 13.5V411l-10.1 43.8 10.1 11.8 11.8 15.2M243.7 362.1l10.1 5.1 6.8 21.9 13.5-3.4 6.7 11.8M429.1 581.2l27-3.3 11.8-11.8h16.8M265.6 545.8l10.1 11.8 16.9 5.1 11.8 3.4 3.4 18.5M464.5 488.5l11.8-8.4 5.1-13.5 10.1-1.6 5-16.9"/><path class="st6" d="M161.8 65.1H190c18.6 0 33.6 15 33.6 33.6v61.8h-95.4V98.7c0-18.6 15.1-33.6 33.6-33.6z"/><path class="st7" d="M190.8 595.2s-3 19-8 22 26 10 26 10l5-30-23-2z"/><path class="st8" d="m227.8 378.2 11 13-5 45-4 89s8 77 0 79-44 1-43-4 2-9 4-16-2-32-2-32l5-28-18-121 52-25z"/><path class="st9" d="M191.8 614.2s-11-2-12 0-20 23-23 23-25 20-2 21 61-17 61-17-5.6-25.4-5.3-24.2-18.7 2.2-18.7-2.8z"/><path class="st7" d="M179.8 568.2s28 31 29 34 16 0 16 0l6-20-5-7-28-23-18 16z"/><path class="st9" d="m219.8 591.2-14.5 13.6s18.5 28.4 18.5 31.4 1 28 11 24 11-44 11-44-1-41-7-44-19.2-2.1-19.2-2.1 8.2 20.1.2 21.1z"/><path class="st8" d="M136.8 289.2s-5 16-6 20-7 15-7 32 2 37 0 39-34 114-20 126 60 52 63 57 4 17 10 15 29-22 30-26-13-11-13-11-28-41-35-40-6-5-5-8 3-5 0-5-1-8 0-12 24-58 24-58l61-27s-3-73-25-93l-5-12s-56-4-72 3z"/><path class="st7" d="M161.8 131.2s5 35-7 37-22 1-22 2 30 32 30 32l28-2 25-27s-23-4-23-18-1-24-1-24h-30z"/><path class="st2" d="M161.8 131.2s5 35-7 37-22 1-22 2 30 32 30 32l28-2 25-27s-23-4-23-18-1-24-1-24h-30z"/><circle class="st7" cx="177.3" cy="114.7" r="31"/><path class="st6" d="M149.8 165.2s-39 5-42 18 20 94 23 101 2 12 2 12c9.2-6.8 20.8-9.4 32-7 19 4 46 2 46 2s9-37 11-41 10-26 10-32 12-31 12-31-6-18-28-17c0 0-9.6-4.3-12.3-1.1s-17.7 17.1-36.7 11.1-17-15-17-15z"/><path class="st6" d="M118.8 182.2h-11l-6 79s22 6 25 2-8-81-8-81zM224.8 182.2l19 5s14 51 15 52 2 7 2 7 0 1 2 4 5 1 3 5-5 2-3 6 1 15 1 15-5-19-23-14l-12-54-4-26zM201.5 107.1h-48.2l-10.9-25h67.3z"/><ellipse transform="rotate(-16.158 145.24 119.254)" class="st10" cx="145.2" cy="119.2" rx="2.4" ry="6.5"/><ellipse transform="rotate(-73.841 209.856 119.248)" class="st10" cx="209.9" cy="119.2" rx="6.5" ry="2.4"/><circle class="st1" cx="204" cy="234.1" r="18"/><circle class="st2" cx="204" cy="234.1" r="18"/><circle class="st1" cx="204" cy="234.1" r="16.2"/><path class="st2" d="M203.3 224.9s-4.1-2.6-8.1 0c-1.2.8-2.1 2.1-2.4 3.5-.5 2.3 0 4.8 1.5 6.7l8.9 11.3c.6.8 1.7 1.2 2.6 1h.1c.7-.2 1.3-.6 1.7-1.3l6.2-10.9c1.1-2 1.6-4.3 1.3-6.6-.1-2.6-1.9-4.8-4.4-5.4.1 0-3.5-1.5-7.4 1.7z"/><path class="st5" d="M203.3 225.5s-3.9-2.5-7.6 0c-1.1.8-2 2-2.2 3.3-.5 2.2 0 4.5 1.5 6.3l8.4 10.6c.6.8 1.5 1.1 2.5.9h.1c.7-.2 1.2-.6 1.6-1.2l5.8-10.2c1.1-1.9 1.5-4 1.3-6.2-.1-2.4-1.8-4.5-4.2-5.1-.1.1-3.5-1.3-7.2 1.6z"/><path class="st2" d="M203.5 229.8c-1.1-.7-2.6-.7-3.7 0-.6.4-.9 1-1.1 1.6-.2 1.1 0 2.2.7 3.1 0 0 4.8 5.7 5.3 5.6.3-.1 3.6-5.6 3.6-5.6.5-.9.7-2 .6-3-.1-1.2-.9-2.2-2-2.5-1.2-.4-2.5-.1-3.4.8z"/><circle class="st1" cx="188" cy="244.1" r="18"/><circle class="st2" cx="188" cy="244.1" r="18"/><circle class="st1" cx="188" cy="244.1" r="16.2"/><path class="st2" d="M187.3 234.9s-4.1-2.6-8.1 0c-1.2.8-2.1 2.1-2.4 3.5-.5 2.3 0 4.8 1.5 6.7l8.9 11.3c.6.8 1.7 1.2 2.6 1h.1c.7-.2 1.3-.6 1.7-1.3l6.2-10.9c1.1-2 1.6-4.3 1.3-6.6-.1-2.6-1.9-4.8-4.4-5.4.1 0-3.5-1.5-7.4 1.7z"/><path class="st5" d="M187.3 235.5s-3.9-2.5-7.6 0c-1.1.8-2 2-2.2 3.3-.5 2.2 0 4.5 1.5 6.3l8.4 10.6c.6.8 1.5 1.1 2.5.9h.1c.7-.2 1.2-.6 1.6-1.2l5.8-10.2c1.1-1.9 1.5-4 1.3-6.2-.1-2.4-1.8-4.5-4.2-5.1-.1.1-3.5-1.3-7.2 1.6z"/><path class="st2" d="M187.5 239.8c-1.1-.7-2.6-.7-3.7 0-.6.4-.9 1-1.1 1.6-.2 1.1 0 2.2.7 3.1 0 0 4.8 5.7 5.3 5.6.3-.1 3.6-5.6 3.6-5.6.5-.9.7-2 .6-3-.1-1.2-.9-2.2-2-2.5-1.2-.4-2.5-.1-3.4.8z"/><path class="st1" d="M174.3 199.1c-.4-.7-2-.7-2-.7-1.4 2.1-4.7-.1-4.7-.1-2.5 1.1-4-2.4-4-2.4-3.3-.5-2.8-4-2.8-4-1.7-.3-1.2-3.3-1.2-3.3s.9-.8.5-1.3c-.3-.6-.4-1.4-.3-2.1-12.1-3.7-25 3.2-28.7 15.3s3.2 25 15.3 28.7c12.1 3.7 25-3.2 28.7-15.3 1.5-4.8 1.3-10-.5-14.8-.2 0-.3.1-.3 0z"/><path class="st2" d="M174.3 199.1c-.4-.7-2-.7-2-.7-1.4 2.1-4.7-.1-4.7-.1-2.5 1.1-4-2.4-4-2.4-3.3-.5-2.8-4-2.8-4-1.7-.3-1.2-3.3-1.2-3.3s.9-.8.5-1.3c-.3-.6-.4-1.4-.3-2.1-12.1-3.7-25 3.2-28.7 15.3s3.2 25 15.3 28.7c12.1 3.7 25-3.2 28.7-15.3 1.5-4.8 1.3-10-.5-14.8-.2 0-.3.1-.3 0z"/><path class="st1" d="M172.9 199c-.4-.7-1.9-.7-1.9-.7-1.3 2-4.5-.1-4.5-.1-2.4 1.1-3.8-2.3-3.8-2.3-3.2-.5-2.7-3.8-2.7-3.8-1.6-.3-1.1-3.2-1.1-3.2s.9-.7.4-1.2c-.3-.6-.4-1.3-.3-2-11.5-3.5-23.8 3-27.3 14.5s3 23.8 14.5 27.3 23.8-3 27.3-14.5c1.4-4.6 1.2-9.5-.4-14 0 0-.1.1-.2 0z"/><path class="st2" d="M150.1 197.7s-3.8-2.4-7.4 0c-1.1.8-1.9 1.9-2.2 3.2-.5 2.1 0 4.4 1.4 6.1l8.1 10.3c.6.7 1.5 1.1 2.4.9h.1c.7-.2 1.2-.6 1.5-1.2l5.7-9.9c1-1.8 1.5-3.9 1.2-6-.1-2.4-1.8-4.4-4-4.9 0-.1-3.2-1.5-6.8 1.5z"/><path class="st2" d="M150.1 197.7s-3.8-2.4-7.4 0c-1.1.8-1.9 1.9-2.2 3.2-.5 2.1 0 4.4 1.4 6.1l8.1 10.3c.6.7 1.5 1.1 2.4.9h.1c.7-.2 1.2-.6 1.5-1.2l5.7-9.9c1-1.8 1.5-3.9 1.2-6-.1-2.4-1.8-4.4-4-4.9 0-.1-3.2-1.5-6.8 1.5z"/><path class="st5" d="M150.1 198.2s-3.5-2.3-6.9 0c-1 .7-1.8 1.8-2 3-.5 2 0 4.1 1.3 5.7l7.6 9.7c.5.7 1.4 1 2.3.8.6-.2 1.1-.5 1.4-1.1l5.3-9.3c1-1.7 1.4-3.7 1.1-5.6-.1-2.2-1.6-4.1-3.8-4.6.1 0-2.9-1.3-6.3 1.4z"/><path class="st2" d="M150.2 202.1c-1-.6-2.3-.6-3.4 0-.5.3-.9.9-1 1.5-.2 1 0 2 .6 2.8 0 0 4.4 5.2 4.8 5.1 1.2-1.6 2.3-3.3 3.3-5.1.5-.8.7-1.8.6-2.7-.1-1.1-.8-2-1.8-2.3-1-.4-2.2-.1-3.1.7zM139.5 210.3l.5.8.9 1.6.4 1.1-.7 1 .8 1.9.3 1.2-.6.6 1.3 1M163.1 203.2v1.3l-.8 2.1-.5 1.1.8 1.5.4.9 1.3.5.4.8v2M171.3 204.5l-1.3.8s-.6.3-.6.5v1.3M165.5 200l.4 1.6-.4 1.1M166.8 214.5l-.9 1.4-1.2 1v.6l.7.8v1l-.5 1M157.7 187.1h-1.6l-1.3 1.2-2.1 1.1-1 .8v.3l-2.1 1.1-.6 1.2M140.3 189.9l-1.4 2.9-.5 1.1-1.1 1.4s-.8 1.4-1 1.6c-.4.2-.8.4-1.3.5l1.6 1.6M133.9 201l-.4 2.1.4 1.2v2.3l-1 4.2 1 1.1 1.1 1.5M136.3 201.9l.9.5.7 2.1 1.3-.3.6 1.1M154 222.8l2.5-.3 1.2-1.1h1.6M138.4 219.5l.9 1.1 1.6.5 1.2.3.3 1.8M157.3 214l1.2-.8.5-1.3.9-.2.5-1.6"/><path class="st6" d="m104.8 253.2-3 8s-2 26 10 25 19-16 19-16-7-19-15-17-11 0-11 0z"/><path class="st7" d="M114.8 258.2s-6 18 1 18 20-11 21-20 19-43 6-40-19 28-19 28l-9 14zM257.8 259.2l6.2 10.4s2.8 19.6-11.2 19.6-34-19-34-19-10-4-16-3-39 0-25-17 38 0 38 0l25 12 13-7 4 4z"/><path class="st6" d="m249.3 245.7-10 16s23 3 25 8-9-26-9-26l-6 2z"/></svg>