<svg version="1.1" id="Layer_1" xmlns="http://www.w3.org/2000/svg" x="0" y="0" viewBox="0 0 961.1 805.5" style="enable-background:new 0 0 961.1 805.5" xml:space="preserve"><style>.st1{fill:none;stroke:#535461;stroke-width:2;stroke-miterlimit:10}.st2{fill:#797bf2}.st3{fill:#671cc9}.st6{fill:#fff}.st7{fill:#e1e3ff}.st9{fill:#575988}.st10{opacity:5.000000e-02;enable-background:new}.st11{fill:#67647e}.st12{fill:#f7c4a7}.st13{opacity:.1;enable-background:new}.st14{fill:#e6e6f0}.st15{fill:#ff227d}</style><path d="M97.4 24.1c-36.1 6.5-77.6 18-92.3 53.4-13.3 32.5 2.4 69 12.9 102.6 10.4 33.1 15.8 67.6 16 102.3.3 48.8-9.2 100.3 10.1 144.7 21.8 50.1 75.8 79 94.7 130.3 7.9 21.5 8.9 45 12.7 67.8 8.4 50.4 31.3 97.9 64.9 134.8 22.3 24.5 51.4 45.1 83.6 45.5 24.4.4 47.5-10.7 70.2-20.4 26.4-11.3 53.5-21 81.1-29.1 11.6-3.4 23.6-6.5 35.6-5.5 23.2 2 42.5 19 64.5 27 59.6 21.6 121.2-25.3 184-30.3 53.9-4.3 108 22.8 160.9 11.5 7.8-1.7 16.1-4.7 20.2-11.9 6.8-11.9-1.6-28.4 4.4-40.8s22.3-13.7 31.8-23.1c9.7-9.6 10.5-26.1 5.6-39.1s-14.5-23.4-23.7-33.5c-45.4-50.2-87.3-103.5-125.2-159.6-38.7-57.2-74.9-124.5-64-193.8 3.8-23.9 13-46.4 17.2-70.2 4.2-23.8 2.5-50.7-12.9-68.6-9.2-10.7-22.1-16.9-34.6-22.8-116.7-55-241.6-111.4-367.8-90.5-20.5 3.4-40.9 8.8-61.7 9.6-30.1 1.1-58.4-12.4-87.8-8-33.3 4.9-67.1 11.8-100.4 17.7z" style="opacity:.1;fill:#e1e3ff"/><path class="st1" d="M189.6 170.8s-41.1-22.6-53.3-57.2c-5-14.5-14.6-27.1-27.4-35.7-6.1-4-12.5-7.5-19.2-10.4"/><path class="st2" d="M81.9 45.8c3.9 3.9 8.1 22.3 8.1 22.3s-18.4-4.3-22.3-8.2c-3.7-4.1-3.4-10.4.7-14.1 3.9-3.4 9.7-3.4 13.5 0zM115.1 55.9c1.1 5.4-5.3 23.1-5.3 23.1S96.7 65.4 95.6 60c-.9-5.5 2.8-10.6 8.3-11.5 5-.8 9.9 2.4 11.2 7.4z"/><path class="st3" d="M151.4 93.4c-1.7 5.2-16.3 17.3-16.3 17.3s-4.4-18.3-2.7-23.6c1.7-5.2 7.4-8.1 12.7-6.3 5.3 1.7 8.1 7.4 6.3 12.6zM172.5 128c-.8 5.4-13.1 19.8-13.1 19.8s-7.5-17.3-6.6-22.8c.6-5.5 5.5-9.5 11-8.9 5.5.6 9.5 5.5 8.9 11-.1.3-.1.6-.2.9z"/><path class="st2" d="M95.7 94.5c5.5-.1 21.4-10.2 21.4-10.2s-16.1-9.8-21.6-9.7c-5.5.1-9.9 4.6-9.9 10.1s4.5 9.9 10.1 9.8zM120.8 134.7c5.2-1.7 17.3-16.2 17.3-16.2s-18.3-4.5-23.6-2.8c-5.2 1.9-7.8 7.7-5.9 12.8 1.9 4.9 7.2 7.6 12.2 6.2z"/><path class="st3" d="M150.6 170.3c5.5-.8 19.8-13 19.8-13s-17.3-7.6-22.7-6.8c-5.5.6-9.5 5.5-8.9 11s5.5 9.5 11 8.9c.3 0 .5 0 .8-.1z"/><path class="st1" d="M152.6 308.9s-41.1-22.6-53.3-57.2c-5-14.5-14.6-27.1-27.4-35.7-6.1-4-12.5-7.5-19.2-10.4"/><path class="st2" d="M44.9 183.8c3.9 3.9 8.1 22.3 8.1 22.3s-18.4-4.3-22.3-8.2c-3.7-4.1-3.4-10.4.7-14.1 3.9-3.4 9.7-3.4 13.5 0zM78.1 193.9c1.1 5.4-5.3 23.1-5.3 23.1s-13.1-13.6-14.2-19c-.9-5.5 2.8-10.6 8.3-11.5 5-.8 9.9 2.4 11.2 7.4zM114.4 231.4c-1.7 5.2-16.3 17.3-16.3 17.3s-4.4-18.3-2.7-23.6c1.7-5.2 7.4-8.1 12.7-6.3s8.1 7.4 6.3 12.6z"/><path class="st3" d="M135.5 266c-.8 5.5-13.1 19.8-13.1 19.8s-7.5-17.3-6.6-22.8c.6-5.5 5.5-9.5 11-8.9 5.5.6 9.5 5.5 8.9 11-.1.3-.1.6-.2.9z"/><path class="st2" d="M58.7 232.5c5.5-.1 21.4-10.2 21.4-10.2s-16.1-9.8-21.6-9.7c-5.5.1-9.9 4.6-9.9 10.1s4.5 9.9 10.1 9.8zM83.8 272.7c5.2-1.7 17.4-16.2 17.4-16.2s-18.3-4.5-23.6-2.8c-5.3 1.5-8.4 7-6.9 12.4s7 8.4 12.4 6.9c.2-.2.5-.2.7-.3zM113.6 308.3c5.5-.8 19.8-13 19.8-13s-17.3-7.6-22.7-6.8c-5.5.6-9.5 5.5-8.9 11s5.5 9.5 11 8.9c.3 0 .5 0 .8-.1z"/><path class="st2" d="M629.4 0H164.8c-23.5 0-42.6 19-42.6 42.5v643.7c0 23.5 19.1 42.5 42.6 42.5h464.6c23.5 0 42.6-19 42.6-42.5V42.5C672 19 652.9 0 629.4 0z"/><path d="M148.8 8.7h496.7c11 0 20 9 20 20v673.4c0 11-9 20-20 20H148.8c-11 0-20-9-20-20V28.7c0-11 8.9-20 20-20z" style="fill:#65657c"/><path style="fill:#f1f1f4" d="M156 76.2h482.2v578.5H156z"/><circle class="st6" cx="395" cy="41.5" r="6.5"/><circle class="st6" cx="395" cy="687.3" r="19.6"/><path class="st2" d="M226 151.4h70.3c6.5 0 11.9 5.3 11.9 11.9v70.3c0 6.5-5.3 11.9-11.9 11.9H226c-6.5 0-11.9-5.3-11.9-11.9v-70.3c0-6.6 5.3-11.9 11.9-11.9z"/><path class="st7" d="M568.3 245.4H498c-6.5 0-11.8-5.3-11.8-11.9v-70.3c0-6.5 5.3-11.9 11.8-11.9h70.3c6.5 0 11.8 5.3 11.8 11.9v70.3c0 6.6-5.3 11.9-11.8 11.9z"/><path class="st2" d="M362 151.4h70.3c6.5 0 11.9 5.3 11.9 11.9v70.3c0 6.5-5.3 11.9-11.9 11.9H362c-6.5 0-11.9-5.3-11.9-11.9v-70.3c0-6.6 5.3-11.9 11.9-11.9zM226 317.4h70.3c6.5 0 11.9 5.3 11.9 11.9v70.3c0 6.5-5.3 11.9-11.9 11.9H226c-6.5 0-11.9-5.3-11.9-11.9v-70.3c0-6.6 5.3-11.9 11.9-11.9z"/><path class="st7" d="M568.3 411.4H498c-6.5 0-11.8-5.3-11.8-11.9v-70.3c0-6.5 5.3-11.9 11.8-11.9h70.3c6.5 0 11.8 5.3 11.8 11.9v70.3c0 6.6-5.3 11.9-11.8 11.9zM362 317.4h70.3c6.5 0 11.9 5.3 11.9 11.9v70.3c0 6.5-5.3 11.9-11.9 11.9H362c-6.5 0-11.9-5.3-11.9-11.9v-70.3c0-6.6 5.3-11.9 11.9-11.9z"/><path class="st2" d="M226 483.4h70.3c6.5 0 11.9 5.3 11.9 11.9v70.3c0 6.5-5.3 11.8-11.9 11.8H226c-6.5 0-11.9-5.3-11.9-11.8v-70.3c0-6.6 5.3-11.9 11.9-11.9zM568.3 577.4H498c-6.5 0-11.8-5.3-11.8-11.8v-70.3c0-6.5 5.3-11.8 11.8-11.8h70.3c6.5 0 11.8 5.3 11.8 11.8v70.3c0 6.5-5.3 11.8-11.8 11.8zM362 483.4h70.3c6.5 0 11.9 5.3 11.9 11.9v70.3c0 6.5-5.3 11.8-11.9 11.8H362c-6.5 0-11.9-5.3-11.9-11.8v-70.3c0-6.6 5.3-11.9 11.9-11.9z"/><linearGradient id="SVGID_1_" gradientUnits="userSpaceOnUse" x1="802.251" y1="6.247" x2="802.251" y2="558.327" gradientTransform="matrix(1 0 0 -1 -119.47 758.73)"><stop offset="0" style="stop-color:gray;stop-opacity:.25"/><stop offset=".54" style="stop-color:gray;stop-opacity:.12"/><stop offset="1" style="stop-color:gray;stop-opacity:.1"/></linearGradient><path d="M790 277.9c-.2-1.1-.6-2.1-1.2-3-.7-.8-1.5-1.6-2.3-2.3-4.7-4.4-2.2-12.4-4-18.6-2-6.6-9-11.6-15.1-15-1-.6-2-1-3.1-1.3-1.4-.2-2.8-.3-4.2-.3-2.2-.1-4.3-.6-6.3-1.4-2.9-1.2-5.5-3-8.4-4-.6-.2-1.2-.3-1.8-.3-3.2-.3-3.3 3.7-6.8 6-1.4 1-2.8 2.4-2.8 4.1 0 2.4 2.4 3.9 4.5 4.9 2.1 1 2.6.8 3.1.8h.2c.3 0 .6.3 1.4 1.2-13.3 2.1-23.1 13.5-23.2 26.9 0 3.8.8 7.5 2.3 11-.1.6-.2 1.3-.3 2-1.1 6.5-3 14.2-6.3 20.7l-4.5 1c0 .1 0 .3.1.4l-1 .7-4.2 3c-8.3-13.7-16.7-30.7-17.1-43.5 0 0-1 .7-2.7 1.8v-9.1l-.5-.1.5-1 3.9-7.4c1.5-2.8 2.3-5.9 2.3-9 .2-11.6-.2-40.2-8.2-44.9-10.1-6-12.1 19.9-17.5 33.2-4 9.9-2 24.3-.8 30.9.1.5.2.9.3 1.2-3.3 1.2-6.5 2.7-9.6 4.4 2.1.8 3.7 7.5 4.6 12.3l.3 1.5c-2 .6-4.1 1.1-6.2 1.5l17.4 37.9c-3.7 4.3-11.5 11.8-17.4 7.9-8.1-5.3-33-2.7-33-2.7s-14.2-37.8-13.6-49.1l-2 1v-10.3c-.5.3-.9.6-1.5.8l.5-.9.8-1.4c1.5-2.6 2.3-5.5 2.6-8.5.8-11.6 2.1-41.5-7.1-45.2-11.5-4.6-14.8 28.6-14.8 28.6l2.4 30.1v.7c-5.4.5-9.9.5-9.9.5 1.4 1.4 1.8 8.8 2 13.5v1.3c-2.8.5-5.2.5-6.7-.2l18.2 49.2s1.3 12 24.9 17.3c13.9 3.1 23.5 6 29.2 7.9-9.6 22.8-43 105-33.2 125 0 0 5.2-2 10.6-3.8 1.2 17.2 3.4 43.3 6 60.1-2.8 8.8-5 16.2-5.7 20.4-.1.3-.1.7-.2 1-2 16-18.2 46.5 6.1 72.4 0 0 16.8 10 18.2 21.9 1.1 10.1 18.9 35.1 24.6 42.9-4.5 7.8-17.2 28.2-28.6 33.5-14.2 6.7-2.7 16 10.8 14s58-33.9 58-33.9-.3-20.9-4.5-22.4l-4-8.4c2.2-.3 4.4-1 6.6-1.8 18.2-7.3 43.1-20.6 43.1-20.6s.5-15.6-6.6-21.3c-3.6-11.2-20.4-21.2-20.4-21.2s-12.1-31.2-41.8-39.9c0 0-4.8-6.8-4.6-14.5 1.9-3.7 3.3-6.1 3.3-6.1l15.3-36.4c4-3.5 7.3-7.7 10-12.3.2-.4.4-.8.7-1.3 9.3 1.1 16.5 2.2 16.5 2.2l-.7-31.9c-6.1-65.8 12.8-85.1 12.8-85.1s27-32.6 29.7-55.8c2.5-21.5-15.7-22.5-18.5-22.6-.5-3.2-.4-6.4.3-9.6l.3.2c.6.5 1.3.8 2 .8H754.1c.7 0 1.3-.2 1.9-.6 7.1-3.7 12.5-10.4 20.3-12.3 1.6-.4 3.3-.6 4.9-1.1 3.6-1.3 6.5-4 8-7.5 1.3-3.2 1.7-7 .8-10.7zm-99 352c1.3 4.7 22.9 20.6 22.9 20.6l.8 5.7c-5.5 5.2-11.3 10.2-17.4 14.8l-7.7-15.8s-11.5-36.5-21.6-40.5c-1.9-.7-2.5-3-2.2-6.2 6.7 4.8 24.1 17.7 25.2 21.4z" style="fill:url(#SVGID_1_)"/><path class="st9" d="M650.8 360.6s-45.8 106.1-34.7 129c0 0 18.3-7.2 21-5.9 2.7 1.3 28.8-136.9 28.8-136.9l-15.1 13.8z"/><path class="st10" d="M650.8 360.6s-45.8 106.1-34.7 129c0 0 18.3-7.2 21-5.9 2.7 1.3 28.8-136.9 28.8-136.9l-15.1 13.8z"/><path class="st9" d="M675.7 698.4s-15.7 29.5-29.5 36-2.6 15.7 10.5 13.8 56.3-33.4 56.3-33.4-.3-20.6-4.4-22.1-32.9 5.7-32.9 5.7zM716.9 650.6s-22.3 22.3-32.1 24.2c-9.8 2 8.5 15.1 26.2 7.9 17.7-7.2 41.9-20.3 41.9-20.3s.7-21-10.5-22.9-25.5 11.1-25.5 11.1z"/><path class="st11" d="M625.3 468.6s4.6 79.9 10.5 91c5.9 11.1 28.2 45.2 28.2 45.2s25.5 18.3 26.8 22.9c1.3 4.6 22.3 20.3 22.3 20.3l1.3 9.2s34.7-2 32.7-13.8-20.3-22.9-20.3-22.9-11.8-30.8-40.6-39.3c0 0-9.2-13.1-1.3-23.6 0 0 19.7-49.1 30.8-55s-4.6-39.9-4.6-39.9l-85.8 5.9z"/><path class="st10" d="M625.3 468.6s4.6 79.9 10.5 91c5.9 11.1 28.2 45.2 28.2 45.2s25.5 18.3 26.8 22.9c1.3 4.6 22.3 20.3 22.3 20.3l1.3 9.2s34.7-2 32.7-13.8-20.3-22.9-20.3-22.9-11.8-30.8-40.6-39.3c0 0-9.2-13.1-1.3-23.6 0 0 19.7-49.1 30.8-55s-4.6-39.9-4.6-39.9l-85.8 5.9z"/><path class="st11" d="m689.4 652.6 21 43.9c-3.3 11.1-34.7 7.2-34.7 7.2s-24.2-32.7-25.5-44.5c-1.3-11.8-17.7-21.6-17.7-21.6-23.6-25.5-7.9-55.7-5.9-71.4 0-.3.1-.6.1-1 1.7-10.5 12.3-40.9 20.6-63.6 5.6-15.3 10.1-27.1 10.1-27.1s43.9 2 53 17.7c4.2 7.2 2.3 14.7-1 20.7-2.6 4.5-5.8 8.6-9.7 12.1l-14.9 35.9s-26.2 47.8-16.3 51.8 20.9 39.9 20.9 39.9z"/><path class="st12" d="M611.2 264.3c-.2 2.9-1.1 5.8-2.5 8.3l-.7 1.4-3.7 6.6h-11.8l-.3-3.1-2.4-29.6s3.3-32.7 14.4-28.2c9.1 3.7 7.9 33.2 7 44.6z"/><path class="st13" d="m608 274-3.7 6.6h-11.8l-.3-3.1c5.6-.4 12.1-1.4 15.8-3.5z"/><path class="st14" d="M608.9 274.1v15.1l-24.2 6.5s0-1.6-.1-3.8c-.1-4.6-.6-11.9-1.9-13.3 0 .1 19.6.1 26.2-4.5z"/><path class="st13" d="M608.9 283v6.2l-24.2 6.5s0-1.6-.1-3.8c8.1-1.3 19.7-6.7 24.3-8.9z"/><path class="st12" d="M750.2 307.8c-4.8 13.8 1.4 20 1.4 20s-58.9 3.9-44.5-6.5c8.4-6.1 12.1-19.6 13.8-29.8.7-4.2 1.1-8.5 1.3-12.7 0 0 47.1-.7 37.3 12.4-3.9 5-7 10.6-9.3 16.6z"/><path class="st13" d="M759.5 291.1c-4.8 6.5-6.4 7.4-8 12.1-1.5.2-3 .4-4.5.4-11.2 0-22.2-2.3-26.2-12.1.7-4.2 1.1-8.5 1.3-12.8.1 0 47.2-.7 37.4 12.4z"/><circle class="st12" cx="745.8" cy="278.7" r="26.8"/><path class="st9" d="M610.9 283.3s-25.5 13.1-32.7 9.8l17.7 48.5s1.3 11.8 24.2 17c22.9 5.2 34 9.8 34 9.8l42.6-50.4-21.6 5.9s-11.1 15.7-19 10.5-32.1-2.6-32.1-2.6-13.8-37.4-13.1-48.5z"/><path class="st10" d="M610.9 283.3s-25.5 13.1-32.7 9.8l17.7 48.5s1.3 11.8 24.2 17c22.9 5.2 34 9.8 34 9.8l42.6-50.4-21.6 5.9s-11.1 15.7-19 10.5-32.1-2.6-32.1-2.6-13.8-37.4-13.1-48.5z"/><path class="st13" d="M710.4 314.2s34.6-9.9 38.3 8.5c0 0-16-7.8-38.9 6-1.7 1-3.4 2.1-5 3.3-20.2 14.1-34.3 36-39.9 60.8l-14.6 64.1-1.3 17.2s-21 4.1-24.9-2.1-1.3-26.9 4.6-33.8 15-36.6 15-36.6l5.7-17.2c4.8-14.5 12.4-27.8 22.4-39.3l1.4-1.7c8.6-10.4 19.6-18.5 31.9-23.9 3.3-1.3 5.8-3.1 5.3-5.3z"/><path class="st14" d="M710.4 312.9s34.6-9.9 38.3 8.5c0 0-16-7.8-38.9 6-1.7 1-3.4 2.1-5 3.3-20.2 14.1-34.3 36-39.9 60.8l-14.6 64.1-1.3 17.2s-21 4.1-24.9-2.1-1.3-26.9 4.6-33.8 15.1-36.5 15.1-36.5l5.7-17.2c4.8-14.5 12.4-27.8 22.4-39.3l1.4-1.7c8.6-10.4 19.6-18.5 31.9-23.9 3.2-1.4 5.7-3.2 5.2-5.4z"/><path class="st13" d="m623.3 444.9.3 11.3 9.2-5.9s16.3-59.4 27.8-75.6c1.3-1.9 2-4.8 3.3-5.2l46.8-45.2v-10.5s-23.9 17.7-25.9 21c-.8 1.4-13.4 8.3-21 19-6.8 9.9-12.8 20.3-18 31.1l-15.7 35.4-6.8 24.6z"/><path class="st15" d="M710.7 313.1v10.1l-47.5 45.5c-1.3.5-1.9 3.3-3.3 5.2-11.5 16.2-27.8 75.6-27.8 75.6l-9.2 5.9-.3-11.3 6.8-24.7 15.7-35.4c5.2-10.8 11.2-21.2 18-31.1 7.6-10.7 20.1-17.6 21-19 1.7-2.8 20.2-16.3 25.2-20l1.4-.8z"/><path class="st13" d="M736.8 250.2c-2.1-1-4.4-2.5-4.4-4.9 0-1.7 1.3-3.1 2.7-4 3.7-2.5 3.4-7.2 7.8-5.7 2.9 1 5.4 2.8 8.2 4 2 .8 4 1.3 6.2 1.4 1.3 0 2.7.1 4 .3 1.1.3 2.1.7 3 1.3 6 3.3 10.4 8.9 12.4 15.4 1.8 6.1 1.6 13.3 6.2 17.6.8.7 1.6 1.4 2.3 2.2.6.9 1 1.9 1.2 3 .8 3.6.5 7.4-.9 10.9s-4.3 6.1-7.8 7.4c-1.6.5-3.2.7-4.8 1.1-7.5 1.9-12.8 8.5-19.7 12.1-.5.3-1.2.5-1.8.6-.7-.1-1.4-.4-1.9-.8-2.7-1.9-4.8-4.8-4.8-8.1.2-2 .8-4 1.8-5.8 1.4-3.4 2.5-6.9 3.3-10.5.2-.8.3-1.7.1-2.5-.5-1.6-2.3-2.3-3.5-3.5-2.3-2.1-2.6-5.8-1.7-8.9s2.7-5.7 4-8.6c.5-.9.7-1.8.8-2.8 0-3.8-5.2-5.9-7.4-8.4-3.1-3.5-1.2-.8-5.3-2.8z"/><path class="st15" d="M737.5 250.2c-2.1-1-4.4-2.5-4.4-4.9 0-1.7 1.3-3.1 2.7-4 3.7-2.5 3.4-7.2 7.8-5.7 2.9 1 5.4 2.8 8.2 4 2 .8 4 1.3 6.2 1.4 1.3.1 5.7-2 7-1.7 1.1.3 2.1.7 3 1.3 6 3.3 10.4 8.9 12.4 15.4 1.8 6.1.5 13.7 5.1 18 .8.7-.3 3 .3 3.8.6.9 1 1.9 1.2 3 .8 3.6.5 7.4-.9 10.9s-4.3 6.1-7.8 7.4c-1.6.5-3.2.7-4.8 1.1-7.5 1.9-12.8 8.5-19.7 12.1-.5.3-1.2.5-1.8.6-.7-.1-1.4-.4-1.9-.8-2.7-1.9-4.8-4.8-4.8-8.1.2-2 .8-4 1.8-5.8 1.4-3.4 2.5-6.9 3.3-10.5.2-.8.3-1.7.1-2.5-.5-1.6-2.3-2.3-3.5-3.5-2.3-2.1-2.6-5.8-1.7-8.9s2.7-5.7 4-8.6c.5-.9.7-1.8.8-2.8 0-3.8-5.2-5.9-7.4-8.4-3-3.5-1.2-.8-5.2-2.8z"/><path class="st13" d="M709.4 512.9c-12-1.4-27.1-2.8-33.8-1.7-10.7 1.8-25.7-7.8-28.4-9.5 5.6-15.3 10.1-27.1 10.1-27.1s43.9 2 53 17.7c4.3 7.1 2.4 14.6-.9 20.6z"/><path class="st9" d="M766.7 343.5c-2.6 22.9-28.8 55-28.8 55s-18.3 19-12.4 83.8l.7 31.4s-38.6-5.9-50.4-3.9c-11.8 2-28.8-9.8-28.8-9.8s-6.6-113.3 21.6-136.8c3.5-5.4 7.2-10.5 11.3-15.5 7.6-9.1 17.8-19.5 27.5-22 1.2-.3 2.5-.5 3.8-.6 0 0 29.5-16.4 37.3-3.9-.1.1 20.8-.6 18.2 22.3z"/><path class="st13" d="M647.2 465.7s10.5-4.6 28.2-3.3c17.7 1.3 49.2-14.4 49.2-14.4"/><path class="st10" d="M666.2 611.7s.7 2-7.9 4.6-11.1 5.2-11.1 5.2"/><path class="st2" d="M675.6 259h-70.3c-6.5 0-11.8-5.3-11.8-11.9v-70.3c0-6.5 5.3-11.9 11.8-11.9h70.3c6.5 0 11.8 5.3 11.8 11.9v70.3c.1 6.6-5.2 11.9-11.8 11.9z"/><path class="st12" d="M692.2 249.7c0 3.1-.8 6.1-2.2 8.9l-3.8 7.3-2.6 5-16.4 1.3s-.3-1.4-.8-3.6c-1.2-6.5-3.2-20.7.8-30.5 5.2-13.1 7.2-38.6 17-32.7 7.8 4.6 8.2 32.8 8 44.3z"/><path class="st13" d="M686.2 265.6v.2l-2.6 5-16.4 1.3s-.3-1.4-.8-3.6c5.9-2.2 13.6-4.3 19.8-2.9z"/><path class="st14" d="M686.2 266.9v11.8l-23.6 12.4s-.3-2.1-.8-4.9c-.9-4.7-2.4-11.3-4.5-12.1.1 0 17.1-9.8 28.9-7.2z"/><path class="st10" d="M749.9 374c-5.8 5.1-13.5 7.6-21.2 6.8-41.5-4.2-42.6-18.9-42.6-18.9l-6.4-14.1c7.6-9.1 17.8-19.5 27.5-22 6.9 11.1 13 19.1 13 19.1s30.8-23.6 40-1.3c5.3 12.9-2.7 23.6-10.3 30.4z"/><path class="st13" d="M686.2 274.1v4.6l-23.6 12.4s-.3-2.1-.8-4.9c10.2-3.2 20.2-9.4 24.4-12.1z"/><path class="st9" d="M688.8 274.1s-17.7 12.4-32.7 15.1l30.8 68.1s1.1 14.6 42.6 18.9c7.7.8 15.4-1.7 21.2-6.8 7.6-6.7 15.6-17.5 10.2-30.4-9.2-22.3-40 1.3-40 1.3s-31.5-41.3-32.1-66.2z"/><path class="st2" d="M793.4 714.3H944c1.5 0 2.7 1.2 2.7 2.7v8.7c0 1.5-1.2 2.7-2.7 2.7H793.4c-1.5 0-2.7-1.2-2.7-2.7V717c0-1.5 1.2-2.7 2.7-2.7z"/><path class="st3" d="M776.4 700.3H927c1.5 0 2.7 1.2 2.7 2.7v8.7c0 1.5-1.2 2.7-2.7 2.7H776.4c-1.5 0-2.7-1.2-2.7-2.7V703c0-1.5 1.2-2.7 2.7-2.7z"/><path class="st2" d="M776.4 700.3H927c1.5 0 2.7 1.2 2.7 2.7v8.7c0 1.5-1.2 2.7-2.7 2.7H776.4c-1.5 0-2.7-1.2-2.7-2.7V703c0-1.5 1.2-2.7 2.7-2.7z"/></svg>