<svg version="1.1" id="ff6c2c6f-bb99-48ca-bf0f-ae1c98c215e0" xmlns="http://www.w3.org/2000/svg" x="0" y="0" viewBox="0 0 989 781.4" style="enable-background:new 0 0 989 781.4" xml:space="preserve"><style>.st0{fill:#f2f2f2}.st1{fill:#3f3d56}.st2{opacity:.1;enable-background:new}.st3{fill:none;stroke:#3f3d56;stroke-width:2;stroke-miterlimit:10}.st4{fill:#671cc9}.st6{fill:#2f2e41}.st7{fill:#fbbebe}</style><path class="st0" d="M490.5 203.9c45.6-8 98.6-6.6 155.7 0-11.6-65.7-12.1-130.1 0-192.9H490.5c-11.5 63.8-11.5 129.1 0 192.9z"/><path class="st1" d="M537 0h54.2v17.8H537z"/><path class="st2" d="M369.3 584.9c45.6-8 98.6-6.6 155.7 0-11.6-65.7-12.1-130.1 0-192.9H369.3c-11.5 63.7-11.5 129.1 0 192.9z"/><path class="st0" d="M362.3 575.9c45.6-8 98.6-6.6 155.7 0-11.6-65.7-12.1-130.1 0-192.9H362.3c-11.5 63.7-11.5 129.1 0 192.9z"/><path class="st1" d="M408.8 371.9H463v17.8h-54.2z"/><path class="st3" d="M228.5 260.9S288.9 90.1 423.4 88.6"/><path class="st1" d="M435.5 88.9c-5.7 2-12.8 5.4-17.3 9.1l3.7-9.4-3.2-9.6c4.2 3.9 11.2 7.7 16.8 9.9z"/><path class="st3" d="M233.5 325.9S228 463.3 306.6 482"/><path class="st1" d="M318.5 483.9c-6 1.2-13.5 3.6-18.4 6.6l4.9-8.8-1.9-9.9c3.8 4.5 10.1 9.1 15.4 12.1z"/><path class="st3" d="M249.5 280.9s424.6-70.8 497.5 16.8"/><path class="st1" d="M753.5 307.9c-4.9-3.6-11.8-7.5-17.4-9l9.8-2.4 6-8.1c-.7 5.8.2 13.6 1.6 19.5z"/><ellipse class="st0" cx="494.5" cy="748.4" rx="494.5" ry="33"/><path class="st2" d="M928.8 502.5c-40.4 22.6-80.6 57.1-120.7 98.3-32.5-58.3-72.7-108.5-121.8-149.6L807 352.9c49.1 42.2 90.4 92.8 121.8 149.6z"/><path class="st0" d="M930.8 494.5c-40.4 22.6-80.6 57.1-120.7 98.3-32.5-58.3-72.7-108.5-121.8-149.6L809 344.9c49.1 42.2 90.4 92.8 121.8 149.6z"/><path transform="rotate(-39.152 750.53 389.638)" class="st1" d="M723.5 380.8h54.2v17.8h-54.2z"/><path transform="rotate(-39.152 792.045 441.191)" class="st4" d="M744.1 434.7h96v13h-96z"/><linearGradient id="SVGID_1_" gradientUnits="userSpaceOnUse" x1="955.284" y1="-33.904" x2="955.284" y2="294.566" gradientTransform="matrix(.9992 -.0403 -.0403 -.9992 -99.705 761.724)"><stop offset="0" style="stop-color:gray;stop-opacity:.25"/><stop offset=".54" style="stop-color:gray;stop-opacity:.12"/><stop offset="1" style="stop-color:gray;stop-opacity:.1"/></linearGradient><path d="M938.7 735.7c-.6-.9-1.3-1.7-2.2-2.4-4.4-4.1-6.4-10.2-7.5-16.1-1.1-5.9-1.4-12-3.1-17.8-.9-3-2.1-5.9-3.5-8.7-1-2.1-2.3-6.3-4.1-7.8-.4-.3-.8-.5-1.3-.6-.9-1.8-2.1-3.5-3.6-4.8-2.9-2.6-6.3-4.7-8.3-8-.5-1.2-1.2-2.3-1.9-3.3-1.3-1.4-3.3-2-4.5-3.5-1.5-1.9-1.2-4.7-1-7.2s0-5.4-2.1-6.7c-1.3-.8-2.9-.7-4.3-1.4-2-1-2.8-3.5-2.8-5.8s.7-4.4.9-6.7c.6-7.2-4.2-14.3-2.3-21.2.7-2.6 2.3-4.9 3.4-7.4.4-.8.7-1.7 1-2.5 3.1 1.2 6.4 2 9.7 2.3-5.5-12.3-4.1-26.7-6.7-40l.3-.5c2.6-3.4 4.1-7.6 4.2-11.8 0-5-2.3-9.6-3.3-14.4-.9-4.1-.8-8.4-2-12.5-.8-2.5-1.9-4.9-3.2-7.2-1.2-2.3-2.6-4.6-3.9-6.8-1.3-4.2-2.6-8.5-3.8-12.7-1.8-6-3.7-12-7.2-17.1-1.3-1.9-1.7-5.7-3.6-6.8-1.6-.8-3.4-1.1-5.2-.9-2.8-1.6-5.2-3.8-5.6-6.9 0-.7 0-1.3.2-2h.3c4.4-.4 6.6-4.3 8.9-7.7 3.7-5.5 2.3-13 0-19.2-.6-2-1.6-3.8-3-5.3-3.2-3-8.3-2.3-12.4-3.8-1.3-.6-2.7-1.1-4.1-1.5-2.8-.6-5.6.3-8.2 1.5s-4.9 2.9-7.5 3.9-5.9 1.8-6.5 4.5c-.2.9-.1 1.9.2 2.7.6 1.7 1.7 3.3 3.1 4.5-4.3 8.9-.6 19.5 8.3 23.8.8.4 1.7.7 2.6 1 .8 1.2 1.5 2.5 2.1 3.7 1.2 2.2 2.1 4.9 1.7 7.3-.7.8-1.4 1.6-2 2.4-2.9 4-4.5 8.7-6 13.4-2 6-3.6 12.1-4.8 18.3-2.4 5.2-5.4 10.1-7.2 15.6-3.2 0-6.3-.4-9.4-1.3l-8.4-1.9c-2.9-.7-6-1.4-8.3-3.3-1.2-1-2.2-2.3-3.4-3.3s-3.7-2.2-5.1-1.3c-.2.2-.5.3-.7.5-1.2-2.5-4.3 3.9-5.7 1.5-2.1-3.4-9.3.5-13.2-.1-2.4-.4-4.8.2-6.8 1.6-2.3 1.6-3.7 5-2 7.3.4.5.9 1 1.4 1.4 1.2 1.3 2.2 2.8 3.1 4.3 3.1 4.4 10.2.5 15.5 1.5-.1.3 3.8-8.1 3.7-7.7-.7 2.1-2.2 4.6-1.8 6.8l37.5 12.8c2.4 1 5 1.5 7.6 1.7 1 0 2-.1 3-.4v2c.1 13.2-2 26.3-2.4 39.5-.1 2.4 0 5 1.5 6.9 1.7 2.1 4.7 2.5 7.3 2 .6-.1 1.2-.2 1.9-.4.9 3.3 1.5 6.7 1.9 10.1l2.5 17.8c.3 1.8.5 3.7.4 5.5-.3 4.2-2.5 7.9-4.1 11.8s-2.5 8.5-.5 12.1c.7 1.1 1.6 2.1 2.2 3.2.7 1.8 1.1 3.7 1 5.7.2 5.4.3 10.8.4 16.2-.4-.1-.9 0-1.3.3-2.1 1.6-1.8 9.3-2 11.7-.2 4 0 8.1-.2 12.1-.3 5.5-1.2 10.9-2.7 16.1-.4 1.7-1.1 3.3-2.3 4.6-1.2 1-2.6 1.7-4.1 2.1-5 1.6-10.2 2.3-15.4 2.1-2.1-.1-4.3-.3-6.3.5s-3.5 3-2.8 5c.6 1.7 2.5 2.5 4.1 3.1 3.8 1.3 7.5 3 11 5 1.4.9 2.8 1.7 4.3 2.4 1.4.5 2.9.9 4.4 1.1l17.7 3c3.6.6 8 1 10.3-2 1.3-1.6 1.4-3.8 1.4-5.9-.1-4-.9-8.1-.4-12.1.4-2.4 1-4.7 1.9-6.9l5.3-15.5c1.8-5.3 3.6-10.6 4.3-16.1.3-2 .2-4.3-1.3-5.5-.4-.3-.8-.5-1.3-.7-.1-4.8-.7-9.6-.4-14.5l.3-3.6c.9.9 1.8 1.9 2.5 2.9 1.7 2.7 2.3 6.2 5 8 2.2 1.5 5.5 1.4 7.1 3.6.5.8.9 1.8 1.1 2.7.9 2.4 2.3 4.5 4 6.4.6 2.2 1.4 4.3 2.5 6.3l4.4 9.3c1.5 3.3 3.2 6.6 5 9.8 1.4 2 2.5 4.2 3.3 6.5 1.4 4.9-.9 10.4-4.5 14s-8.4 5.7-13.2 7.7c-.5.2-1 .4-1.3.8-.4.5-.6 1.1-.6 1.7 0 2.3 1.9 4.3 4.1 5 2.2.6 4.6.7 6.8.3 12.8-1.6 25.5-4.7 36.8-10.9 1.7-.8 3.2-2 4.4-3.4 1.2-1.6 1.5-3.6.8-5.4z" style="fill:url(#SVGID_1_)"/><path class="st6" d="M884.6 511.5c2.1 3.3 4.1 6.6 6 10.1 1.3 2.3 2.4 4.7 3.2 7.2 1.2 4 1.1 8.3 2 12.4 1 4.8 3.3 9.4 3.3 14.3-.2 4.3-1.6 8.4-4.2 11.8-2.6 3.4-5.5 6.4-8.8 9.1-7.6-19.6-11.8-40.3-12.5-61.2-.1-2.9-.1-5.9.9-8.6.7-1.7 3.8-6.3 5.8-4.5.7.7.9 3.7 1.4 4.7.9 1.5 1.8 3.1 2.9 4.7z"/><path class="st2" d="M884.6 511.5c2.1 3.3 4.1 6.6 6 10.1 1.3 2.3 2.4 4.7 3.2 7.2 1.2 4 1.1 8.3 2 12.4 1 4.8 3.3 9.4 3.3 14.3-.2 4.3-1.6 8.4-4.2 11.8-2.6 3.4-5.5 6.4-8.8 9.1-7.6-19.6-11.8-40.3-12.5-61.2-.1-2.9-.1-5.9.9-8.6.7-1.7 3.8-6.3 5.8-4.5.7.7.9 3.7 1.4 4.7.9 1.5 1.8 3.1 2.9 4.7z"/><path class="st7" d="M777.3 522.4c-3.9-.6-8.3-.3-11.3 2.2-1.8 1.6-3 3.8-3.2 6.2-.3 2.8 1.3 6.1 4.1 6.3.7 0 1.3 0 2-.1 1.8 0 3.5.1 5.2.4 6.9.7 13.7-2.1 18.2-7.4 2.4-2.9-.8-4.3-3.6-4.9-3.8-.8-7.5-2-11.4-2.7z"/><path class="st1" d="m844.2 612.7 2.5 17.6c.3 1.8.4 3.7.4 5.5-.3 4.2-2.5 7.9-4.1 11.7s-2.6 8.4-.5 12c.7 1.1 1.6 2.1 2.2 3.2.7 1.8 1.1 3.7 1 5.6l.7 25c7.7.5 15.5.5 23.2-.1.3 0 .6-.1.8-.3.2-.3.3-.6.3-.9.3-5.8-.7-11.7-.3-17.6.1-2.1.4-4.3.5-6.4.1-8.7-4.2-17.2-2.9-25.9.4-2.2.9-4.3 1.6-6.4 4.1-14.9 3.2-30.8 2.3-46.2 0-.3-.1-.5-.2-.7-.1-.1-.3-.2-.5-.3-8.9-2.7-18.5-.8-25.8 4.9-1.1.9-3.8 1.7-4.6 2.8-1 1.5.3 2.9.9 4.5 1.2 3.9 2 8 2.5 12z"/><path class="st2" d="m844.2 612.7 2.5 17.6c.3 1.8.4 3.7.4 5.5-.3 4.2-2.5 7.9-4.1 11.7s-2.6 8.4-.5 12c.7 1.1 1.6 2.1 2.2 3.2.7 1.8 1.1 3.7 1 5.6l.7 25c7.7.5 15.5.5 23.2-.1.3 0 .6-.1.8-.3.2-.3.3-.6.3-.9.3-5.8-.7-11.7-.3-17.6.1-2.1.4-4.3.5-6.4.1-8.7-4.2-17.2-2.9-25.9.4-2.2.9-4.3 1.6-6.4 4.1-14.9 3.2-30.8 2.3-46.2 0-.3-.1-.5-.2-.7-.1-.1-.3-.2-.5-.3-8.9-2.7-18.5-.8-25.8 4.9-1.1.9-3.8 1.7-4.6 2.8-1 1.5.3 2.9.9 4.5 1.2 3.9 2 8 2.5 12z"/><path class="st1" d="M890.5 607.4c-1.2 2.4-2.7 4.7-3.4 7.3-1.8 6.9 2.9 14 2.3 21.1-.2 2.2-.9 4.4-.9 6.6s.8 4.7 2.8 5.7c1.3.7 3 .6 4.3 1.4 2.1 1.3 2.3 4.2 2.1 6.7-.2 2.5-.6 5.2 1 7.1 1.2 1.5 3.2 2.1 4.5 3.5.8 1 1.4 2.1 1.9 3.3 1.9 3.3 5.4 5.4 8.3 7.9 2.9 2.6 5.3 6.5 4 10.1-.9 2.7-3.6 4.3-6.1 5.6-4.6 2.3-9.5 4-14.6 5.1-.5.2-1.1.2-1.7.1-.6-.2-1.1-.5-1.5-1-3-2.9-6-5.9-7.4-9.8-.2-.9-.6-1.8-1.1-2.7-1.6-2.2-4.8-2.1-7.1-3.6-2.6-1.8-3.2-5.3-4.9-7.9s-4.2-4.2-6-6.6c-3.1-3.9-3.8-9.1-6-13.5-1-1.8-2-3.7-2.9-5.6-.7-2.3-1.2-4.8-1.4-7.2-1.4-11.7-5-23.4-2.7-35 .5-2.5 1.3-5 1.6-7.6.5-4.5-.3-9.2.3-13.7 0-1.1.6-2.2 1.5-2.9.5-.2 1.1-.4 1.7-.4 5.9-.3 11.9-.2 17.8.4 3 .3 6.4.9 8.2 3.3 1.5 2.1 1.5 4.9 1.9 7.5.6 3.1 2.2 4.8 3.9 7.3 1.7 2.5.9 5-.4 7.5z"/><path class="st6" d="M867.5 688.7c1.6 0 3.3-.1 4.5.9 1.5 1.2 1.5 3.5 1.3 5.5-.7 5.5-2.5 10.8-4.3 16l-5.3 15.6c-.8 2.2-1.5 4.5-1.9 6.9-.5 4 .3 8 .4 12 0 2-.1 4.2-1.4 5.8-2.3 2.9-6.7 2.6-10.3 2l-17.7-3c-1.5-.2-3-.6-4.4-1.1-1.5-.7-2.9-1.5-4.3-2.4-3.5-2-7.2-3.7-11-5-1.7-.6-3.5-1.4-4.1-3.1-.7-2 .9-4.2 2.8-5 2-.8 4.2-.6 6.3-.5 5.2.2 10.4-.5 15.4-2.1 1.5-.4 2.9-1.1 4.1-2.1 1.1-1.3 1.9-2.9 2.3-4.6 1.5-5.2 2.4-10.6 2.7-16 .2-4 .1-8 .2-12 .1-2.4-.1-10 2-11.6 1.6-1.2 8.1 2.1 10.3 2.6 4.1 1 8.2 1.4 12.4 1.2zM925.8 699.8c1.7 5.7 2 11.8 3.1 17.7s3.1 11.9 7.5 16c.9.7 1.6 1.5 2.2 2.4.8 1.7.5 3.8-.8 5.2-1.2 1.4-2.7 2.6-4.4 3.4-11.3 6.2-24 9.3-36.8 10.8-2.3.4-4.6.4-6.8-.2-2.2-.7-4.1-2.7-4.1-5 0-.6.2-1.2.6-1.7.4-.4.8-.6 1.3-.8 4.7-1.9 9.5-4 13.2-7.6s5.9-9 4.5-13.9c-.8-2.3-2-4.4-3.3-6.4-1.8-3.1-3.5-6.4-5-9.7l-4.4-9.2c-1.3-2.7-2.6-5.5-2.8-8.5 5.5.3 11-.6 16.2-2.6 2.4-1 4.7-2.3 6.7-4 1.7-1.4 3.3-4.1 5.5-2.2 1.8 1.5 3 5.6 4.1 7.8 1.4 2.7 2.6 5.6 3.5 8.5z"/><path class="st7" d="M861.3 470.6c.4 3.8 4.2 6.4 7.7 7.9l-22.5 7.2c1.5-2.8.3-6.2-1.2-9-1.2-2.2-2.5-4.4-4-6.4-.2-.3-.5-.7-.3-1.1.1-.2.4-.4.6-.5 4.6-2.1 9.4-4.2 14.4-4.9 1.5-.2 4.2-.8 5.3.7s-.2 4.4 0 6.1z"/><path class="st2" d="M861.3 470.6c.4 3.8 4.2 6.4 7.7 7.9l-22.5 7.2c1.5-2.8.3-6.2-1.2-9-1.2-2.2-2.5-4.4-4-6.4-.2-.3-.5-.7-.3-1.1.1-.2.4-.4.6-.5 4.6-2.1 9.4-4.2 14.4-4.9 1.5-.2 4.2-.8 5.3.7s-.2 4.4 0 6.1z"/><circle class="st7" cx="848.3" cy="456.1" r="17.6"/><path class="st6" d="M833 601.1c1.7 2 4.7 2.4 7.3 2 6.2-1 11.2-5.5 17.2-7.2 7.4-2 15.2.6 22.2 3.7s13.9 6.9 21.5 7.5c-6.9-15.4-3-33.8-9.5-49.3-1.6-3.8-3.9-7.4-4.2-11.5-.5-5.1 2.1-10 2.5-15.1.4-4.5-1-9-2.3-13.3-1.6-5.3-3.2-10.6-4.8-15.8-1.8-5.9-3.7-11.9-7.1-17-1.3-1.9-1.7-5.7-3.6-6.8-4.3-2.5-10.8.7-15.4.8s-8.9 3.5-11.6 7.2c-2.9 4-4.5 8.6-6 13.3-2.4 6.9-4.2 14-5.3 21.2-.2 1.1-.3 2.2-.4 3.3-1 10.3.5 20.6.5 30.9v.1c.1 13.1-2 26.1-2.4 39.2-.1 2.4-.1 5 1.4 6.8z"/><path class="st2" d="M833.9 555c3.5-.9 6.6-3.1 9.3-5.5 2.3-2.1 4.4-4.4 6.1-7 2.2-3.5 4-7.2 5.3-11.2 3.7-10.4 6.1-21.3 7-32.3.3-3 .3-6.2-1.5-8.6-2.1-2.7-5.7-3.5-8.8-2.1-2.4 1.2-3.9 3.5-5.3 5.7-2.8 4.4-5.6 8.9-7.5 13.8-.8 2.2-1.4 4.4-2.2 6.6-.8 2.2-1.7 4.3-2.7 6.3-.2 1.1-.3 2.2-.4 3.3-.8 10.4.6 20.7.7 31z"/><path class="st6" d="M860.1 488.6c1.8 2.4 1.7 5.6 1.5 8.6-.9 11-3.3 21.9-7 32.3-1.3 3.9-3.1 7.7-5.3 11.2-1.8 2.6-3.8 4.9-6.1 6.9-3.4 3.1-7.5 5.9-12.2 5.9-2.6-.1-5.1-.7-7.6-1.7L785.9 539c-.4-2.1 1.1-4.6 1.8-6.7l2-5.9c.6-1.6 1.2-3.4 2.7-4.3 1.5-.9 3.8.3 5.1 1.3s2.2 2.3 3.4 3.3c2.3 1.9 5.4 2.6 8.3 3.3l8.4 1.9c3.1.8 6.2 1.2 9.4 1.2 2.3-7.2 6.8-13.5 9.3-20.6.8-2.2 1.4-4.4 2.2-6.6 1.8-4.9 4.6-9.4 7.5-13.8 1.4-2.2 2.9-4.6 5.3-5.7 3.1-1.3 6.7-.4 8.8 2.2zM853.9 460.1c-.1-1.2-.5-2.3-1.1-3.3-.6-1-1.8-1.6-3-1.3-1.8.5-2.3 3.3-4.2 3.4-1.2.1-2.1-1.2-2.5-2.4s-.6-2.5-1.5-3.4c-.6-.5-1.4-.8-2.2-1-4.3-1.4-8.7-3.9-10.1-8.1-.3-.9-.4-1.8-.2-2.7.7-2.7 4-3.5 6.5-4.5s5-2.6 7.5-3.9 5.4-2.2 8.2-1.5c1.4.4 2.8 1 4.1 1.5 4.1 1.4 9.2.8 12.4 3.8 1.4 1.5 2.4 3.3 3 5.3 2.2 6.2 3.7 13.6 0 19.1-2.3 3.4-4.5 7.2-8.9 7.6-5.2.4-7.2-4.3-8-8.6z"/><g style="opacity:.1"><path d="M846.1 454.3c-.4-1.2-.6-2.5-1.5-3.4-.6-.5-1.4-.8-2.2-1-4.3-1.4-8.7-3.9-10.1-8.1-.3-.9-.4-1.8-.2-2.7.1-.4.3-.8.5-1.2-1.6.7-3 1.6-3.5 3.3-.2.9-.1 1.8.2 2.7 1.4 4.3 5.8 6.8 10.1 8.1.8.2 1.5.5 2.2 1 .9.8 1.1 2.2 1.5 3.4s1.3 2.5 2.5 2.4 1.8-1.2 2.6-2.2c-1 0-1.8-1.2-2.1-2.3zM864.8 466.5c-5.1.5-7.2-4.2-8-8.5-.1-1.2-.4-2.3-1-3.3s-1.8-1.6-3-1.3c-1 .3-1.6 1.2-2.2 2 .9.1 1.8.6 2.3 1.4.6 1 .9 2.1 1.1 3.3.8 4.3 2.8 9 8 8.5 2-.2 3.9-1.2 5.3-2.7-.9.3-1.7.5-2.5.6z"/></g><path class="st0" d="M253.9 382.8c-45.6-8-98.6-6.6-155.7 0 11.6-65.7 12.1-130.1 0-192.9h155.7c11.5 63.7 11.5 129.1 0 192.9z"/><path class="st1" d="M153.3 178.9h54.2v17.8h-54.2z"/><path class="st4" d="M388 433.4h96v13h-96zM388 460.4h96v13h-96zM516 43.4h96v13h-96zM516 70.4h96v13h-96zM132 225.4h96v13h-96zM127.6 721.3l19.1-11.3c-2.6-4.4-5.9-8.4-9.8-11.7l-36.1 11.2 28.3-16.6c-22.3-12.2-50.2-4-62.4 18.2-3.7 6.8-5.7 14.4-5.7 22.1 0 25.4 20.6 26.3 46 26.3s46-.9 46-26.3c0-6.4-1.3-12.8-3.9-18.7l-21.5 6.8z"/><path class="st2" d="M132.4 746c-2-2-4.3-3.8-6.8-5.3-3.5-2.3-7.1-4.7-11.2-5.4-3.6-.7-7.3-.1-11-.3-6.4-.4-12.4-3.1-16.8-7.7-2.6-2.7-4.7-6-7.8-8.1-3.4-2.2-7.7-2.7-11.7-2.2-1.2.2-2.3.4-3.5.7-1.8 5-2.7 10.3-2.7 15.6 0 25.4 20.6 26.3 46 26.3 12.3 0 23.5-.2 31.8-3.3l-1.3-2.5c-1.3-2.9-3-5.4-5-7.8z"/><path class="st4" d="m597.7 684.6-25.4-14.9c3.4-5.9 7.8-11.1 13-15.5l47.9 14.9-37.5-22.1c29.5-16.2 66.6-5.4 82.8 24.2 4.9 9 7.5 19.1 7.5 29.3 0 33.7-27.3 34.8-61 34.8s-61-1.2-61-34.8c0-8.5 1.7-17 5.2-24.8l28.5 8.9z"/><path class="st2" d="M591.3 717.4c2.7-2.7 5.7-5.1 9-7.1 4.6-3.1 9.4-6.2 14.8-7.2 4.8-.9 9.7-.1 14.5-.4 8.4-.5 16.4-4.2 22.3-10.2 3.5-3.6 6.2-8 10.4-10.7 4.5-3 10.2-3.6 15.5-2.8 1.5.2 3.1.5 4.6.9 2.4 6.6 3.6 13.6 3.6 20.7 0 33.7-27.3 34.8-61 34.8-16.3 0-31.2-.3-42.2-4.4l1.8-3.4c1.8-3.7 4.1-7.1 6.7-10.2z"/></svg>