<svg version="1.1" id="Calque_1" xmlns="http://www.w3.org/2000/svg" x="0" y="0" viewBox="0 0 595.3 343.4" style="enable-background:new 0 0 595.3 343.4" xml:space="preserve"><style>.st0{opacity:5.000000e-002}.st1{fill:#010202}.st2{opacity:5.000000e-002;fill:none;stroke:#010202;stroke-miterlimit:10}</style><g id="XMLID_28_" class="st0"><path id="XMLID_40_" class="st1" d="m399.4 298.6 1.5-.7-.9-2.1 6.2 2.4-.9-2.2-4.2-1.6 1.6-4.2-2.2.9-1.2 3.1-.9-2.1-1.5.6z"/></g><g id="XMLID_32_" class="st0"><path id="XMLID_33_" class="st1" d="m497.2 300.5 3.5-1.5-2.2-5 14.7 5.7-2.3-5.1-9.8-3.9 3.7-9.8-4.9 2.2-2.9 7.3-2.2-5.1-3.5 1.5z"/></g><g id="XMLID_30_" class="st0"><path id="XMLID_31_" class="st1" d="m304.4 64.8 2.2-.9-1.4-3.2 9.4 3.6-1.5-3.2-6.2-2.5 2.3-6.3-3.1 1.4-1.9 4.6-1.4-3.2-2.2 1z"/></g><g id="XMLID_34_" class="st0"><path id="XMLID_35_" class="st1" d="m486.9 45.7 2.5-1.1-1.6-3.7 10.7 4.2-1.6-3.7-7.2-2.9 2.8-7.1-3.7 1.6-2.1 5.3-1.6-3.7-2.5 1.1z"/></g><circle id="XMLID_14_" class="st2" cx="516.2" cy="183.9" r="7.2"/><circle id="XMLID_81_" class="st2" cx="513.2" cy="103.6" r="4.1"/><circle id="XMLID_80_" class="st2" cx="379.6" cy="24.2" r="4.7"/><circle id="XMLID_82_" class="st2" cx="473.1" cy="120" r="7.2"/><circle id="XMLID_83_" class="st2" cx="384.1" cy="310.2" r="13.3"/><path id="XMLID_84_" class="st2" d="m456.6 241.2-6.1 3.2c-.6.3-1.4.1-1.8-.5l-3.2-6.1c-.3-.6-.1-1.4.5-1.8l6.1-3.2c.6-.3 1.4-.1 1.8.5l3.2 6.1c.4.7.1 1.5-.5 1.8z"/><path id="XMLID_85_" class="st2" d="m251.7 90.9-5-1.4c-.6-.2-1-.8-.8-1.4l1.4-5c.2-.6.8-1 1.4-.8l5 1.4c.6.2 1 .8.8 1.4l-1.4 5c-.2.6-.8 1-1.4.8z"/><path id="XMLID_86_" class="st2" d="M441.2 62.4 430 71.7c-.6.5-1.4.4-1.9-.2l-9.3-11.3c-.5-.6-.4-1.4.2-1.9l11.3-9.3c.6-.5 1.4-.4 1.9.2l9.3 11.3c.4.6.3 1.4-.3 1.9z"/><path id="XMLID_87_" class="st2" d="M551 225.1h-1.6c-.7 0-1.3-.6-1.3-1.3v-1.6c0-.7.6-1.3 1.3-1.3h1.6c.7 0 1.3.6 1.3 1.3v1.6c.1.7-.5 1.3-1.3 1.3z"/><path id="XMLID_88_" class="st2" d="m579.2 75-12 2.6c-.7.2-1.4-.3-1.6-1l-2.6-12c-.2-.7.3-1.4 1-1.6l12-2.6c.7-.2 1.4.3 1.6 1l2.6 12c.1.8-.3 1.5-1 1.6z"/></svg>