<svg version="1.1" id="OBJECTS" xmlns="http://www.w3.org/2000/svg" x="0" y="0" viewBox="0 0 160 160" style="enable-background:new 0 0 160 160" xml:space="preserve"><style>.st2{fill:#ffa981}.st3{fill:#1c202d}</style><path d="m74.3 45.2 3.7 6.4 1.7 2.9 9.9 17.2h16.1L79.2 26.5l-7.6 13.9 2.7 4.8zm28.2 26.4h-9.6" style="fill:#e58e6c"/><path d="m61.6 85.7 5.3-9.1 1.2-2.1 1.7-2.9 9.9-17.2-8.1-14-25.9 45.3h15.9zm11.6-42.4 1.1 1.9 3.7 6.4-4.8-8.3z" style="fill:#f4b9a2"/><path class="st2" d="M61.6 85.7h52.7l-8.6-14.1h-36l-8.1 14.1zm6.5-11.2-4.8 8.3 3.5-6.2 1.3-2.1z"/><path class="st3" d="M38.8 116.4V91.7h6.7v9.9h6.2v-9.9h6.7V111h.1l-.1.2v5.2h-6.7v-9.6h-6.2v9.8l-6.7-.2zM79.4 116.4H59.7V91.7h6.7l.1 19.6h6.1V91.8h.1v-.2h6.7v24.8zM87.3 116.5h-6.7V91.7h16.2c1 0 1.7.2 2.3.7.6.4 1 1.2 1.2 2.2v8.2c-.2.9-.5 1.6-.9 2s-1 .7-1.7.9v.1H95l5.2 10.9h-6.9l-5.1-10.8v-4.3h4.9V97H87l.3 19.5zM104.9 116.5c-2 0-3.1-.8-3.5-2.5V94.5c.2-1.1.6-1.8 1.2-2.2.6-.4 1.4-.7 2.3-.7h12.7c1 0 1.7.2 2.3.7.6.4 1 1.2 1.2 2.2V114c-.4 1.6-1.6 2.5-3.5 2.5h-12.7zm3.6-5.4h5.5V97h-5.5v14.1z"/><path class="st2" d="M41 132.6v.7h-7.1V123h6.9v.7h-6.2v4.1h5.5v.7h-5.5v4.2H41zM52.2 122.9v10.3h-.6l-7-9v9h-.8v-10.3h.6l7 9v-9h.8zM57.7 123.6H54v-.7h8.2v.7h-3.7v9.7h-.8v-9.7zM71.2 132.6v.7h-7.1V123H71v.7h-6.2v4.1h5.5v.7h-5.5v4.2h6.4zM81.1 133.3l-2.5-3.5c-.4 0-.7.1-1 .1h-3v3.4H74V123h3.7c1.3 0 2.3.3 3.1.9.7.6 1.1 1.5 1.1 2.6 0 .8-.2 1.5-.6 2.1-.4.6-1 .9-1.8 1.2l2.6 3.6h-1zm-3.4-4.1c1.1 0 1.9-.2 2.5-.7.6-.5.9-1.2.9-2.1s-.3-1.6-.9-2.1c-.6-.5-1.4-.7-2.5-.7h-3v5.6h3zM91.4 123.9c.7.6 1.1 1.5 1.1 2.6s-.4 1.9-1.1 2.5c-.7.6-1.8.9-3.1.9h-3v3.4h-.8V123h3.7c1.4-.1 2.4.2 3.2.9zm-.6 4.6c.6-.5.9-1.2.9-2.1s-.3-1.6-.9-2.1c-.6-.5-1.4-.7-2.5-.7h-3v5.6h3c1.1 0 2-.2 2.5-.7zM102.2 133.3l-2.5-3.5c-.4 0-.7.1-1 .1h-3v3.4H95V123h3.7c1.3 0 2.3.3 3.1.9.7.6 1.1 1.5 1.1 2.6 0 .8-.2 1.5-.6 2.1-.4.6-1 .9-1.8 1.2l2.6 3.6h-.9zm-3.5-4.1c1.1 0 1.9-.2 2.5-.7.6-.5.9-1.2.9-2.1s-.3-1.6-.9-2.1c-.6-.5-1.4-.7-2.5-.7h-3v5.6h3zM105.7 122.9h.8v10.3h-.8v-10.3zM110.6 133c-.7-.3-1.2-.6-1.6-1l.3-.6c.4.4.9.7 1.5.9.6.2 1.3.4 1.9.4 1 0 1.7-.2 2.2-.6.5-.4.8-.9.8-1.5 0-.5-.1-.8-.4-1.1-.3-.3-.6-.5-1-.6-.4-.1-.9-.3-1.6-.5-.8-.2-1.4-.4-1.8-.5-.5-.2-.8-.5-1.2-.8s-.5-.9-.5-1.5c0-.5.1-1 .4-1.4.3-.4.7-.8 1.2-1 .5-.2 1.2-.4 2-.4.6 0 1.1.1 1.7.3.6.2 1 .4 1.4.7l-.3.6c-.4-.3-.9-.5-1.4-.7-.5-.1-1-.2-1.5-.2-1 0-1.7.2-2.2.6-.5.4-.7.9-.7 1.5 0 .5.1.8.4 1.1s.6.5 1 .6c.4.1.9.3 1.6.5.8.2 1.4.4 1.8.5s.8.4 1.2.8c.3.4.5.8.5 1.5 0 .5-.1 1-.4 1.4-.3.4-.7.7-1.2 1-.6.2-1.3.4-2.1.4-.6 0-1.3-.2-2-.4zM126.2 132.6v.7H119V123h6.9v.7h-6.2v4.1h5.5v.7h-5.5v4.2h6.5z"/></svg>