<svg version="1.1" id="OBJECTS" xmlns="http://www.w3.org/2000/svg" x="0" y="0" viewBox="0 0 160 160" style="enable-background:new 0 0 160 160" xml:space="preserve"><style>.st2{fill:#ff227d}.st4{fill:#fff}</style><path d="m74.3 45.2 3.7 6.4 1.7 2.9 9.9 17.2h16.1L79.2 26.5l-7.6 13.9 2.7 4.8zm28.2 26.4h-9.6" style="fill:#d81a71"/><path d="m61.6 85.7 5.3-9.1 1.2-2.1 1.7-2.9 9.9-17.2-8.1-14-25.9 45.3h15.9zm11.6-42.4 1.1 1.9 3.7 6.4-4.8-8.3z" style="fill:#ef3f8f"/><path class="st2" d="M61.6 85.7h52.7l-8.6-14.1h-36l-8.1 14.1zm6.5-11.2-4.8 8.3 3.5-6.2 1.3-2.1z"/><g style="opacity:.4"><path class="st4" d="M38.8 116.4V91.7h6.7v9.9h6.2v-9.9h6.7V111h.1l-.1.2v5.2h-6.7v-9.6h-6.2v9.8l-6.7-.2zM79.4 116.4H59.7V91.7h6.7l.1 19.6h6.1V91.8h.1v-.2h6.7v24.8zM87.3 116.5h-6.7V91.7h16.2c1 0 1.7.2 2.3.7.6.4 1 1.2 1.2 2.2v8.2c-.2.9-.5 1.6-.9 2s-1 .7-1.7.9v.1H95l5.2 10.9h-6.9l-5.1-10.8v-4.3h4.9V97H87l.3 19.5zM104.9 116.5c-2 0-3.1-.8-3.5-2.5V94.5c.2-1.1.6-1.8 1.2-2.2.6-.4 1.4-.7 2.3-.7h12.7c1 0 1.7.2 2.3.7.6.4 1 1.2 1.2 2.2V114c-.4 1.6-1.6 2.5-3.5 2.5h-12.7zm3.6-5.4h5.5V97h-5.5v14.1z"/></g><path class="st2" d="M71.1 123.6c.8.6 1.2 1.5 1.2 2.7 0 1.1-.4 2-1.2 2.6-.8.6-1.9 1-3.2 1h-3.1v3.5H64v-10.7h3.8c1.4-.1 2.5.3 3.3.9zm-.6 4.8c.6-.5.9-1.2.9-2.1s-.3-1.6-.9-2.1-1.4-.8-2.6-.8h-3.1v5.8h3.1c1.1 0 2-.3 2.6-.8zM82.3 133.3l-2.5-3.6c-.3.1-.8.1-1 .1h-3.1v3.5h-.8v-10.7h3.8c1.4 0 2.4.3 3.2 1s1.2 1.5 1.2 2.7c0 .8-.2 1.6-.6 2.1-.4.5-1 1-1.9 1.2l2.7 3.8-1-.1zm-3.6-4.1c1.2 0 2-.3 2.6-.8s.9-1.2.9-2.1-.3-1.6-.9-2.1-1.4-.8-2.6-.8h-3.1v5.8h3.1zM87.5 132.7c-.8-.5-1.5-1.1-2-1.9-.5-.8-.8-1.7-.8-2.7s.3-1.9.8-2.7c.5-.8 1.2-1.5 2-1.9.8-.5 1.8-.7 2.8-.7s2 .2 2.8.7 1.5 1.1 2 1.9.8 1.8.8 2.8-.3 2-.8 2.8-1.2 1.4-2 1.9-1.8.7-2.8.7c-1-.2-1.9-.4-2.8-.9zm5.3-.6c.8-.4 1.3-1 1.7-1.7.4-.7.6-1.5.6-2.4 0-.9-.2-1.7-.6-2.4-.4-.7-1-1.3-1.7-1.7-.8-.4-1.5-.6-2.4-.6s-1.7.2-2.5.6-1.3 1-1.7 1.7c-.4.7-.6 1.5-.6 2.4 0 .9.2 1.7.6 2.4s1 1.3 1.7 1.7c.8.4 1.5.6 2.5.6.8 0 1.7-.2 2.4-.6z"/></svg>