<svg version="1.1" id="OBJECTS" xmlns="http://www.w3.org/2000/svg" x="0" y="0" viewBox="0 0 160 160" style="enable-background:new 0 0 160 160" xml:space="preserve"><style>.st2{fill:#671cc9}.st3{opacity:.4;fill:#fff}</style><path d="m74.3 45.2 3.7 6.4 1.7 2.9 9.9 17.2h16.1L79.2 26.5l-7.6 13.9 2.7 4.8zm28.2 26.4h-9.6" style="fill:#612faf"/><path d="m61.6 85.7 5.3-9.1 1.2-2.1 1.7-2.9 9.9-17.2-8.1-14-25.9 45.3h15.9zm11.6-42.4 1.1 1.9 3.7 6.4-4.8-8.3z" style="fill:#6630ce"/><path class="st2" d="M61.6 85.7h52.7l-8.6-14.1h-36l-8.1 14.1zm6.5-11.2-4.8 8.3 3.5-6.2 1.3-2.1z"/><path class="st3" d="M38.8 116.4V91.7h6.7v9.9h6.2v-9.9h6.7V111h.1l-.1.2v5.2h-6.7v-9.6h-6.2v9.8l-6.7-.2zM79.4 116.4H59.7V91.7h6.7l.1 19.6h6.1V91.8h.1v-.2h6.7v24.8zM87.3 116.5h-6.7V91.7h16.2c1 0 1.7.2 2.3.7.6.4 1 1.2 1.2 2.2v8.2c-.2.9-.5 1.6-.9 2s-1 .7-1.7.9v.1H95l5.2 10.9h-6.9l-5.1-10.8v-4.3h4.9V97H87l.3 19.5zM104.9 116.5c-2 0-3.1-.8-3.5-2.5V94.5c.2-1.1.6-1.8 1.2-2.2.6-.4 1.4-.7 2.3-.7h12.7c1 0 1.7.2 2.3.7.6.4 1 1.2 1.2 2.2V114c-.4 1.6-1.6 2.5-3.5 2.5h-12.7zm3.6-5.4h5.5V97h-5.5v14.1z"/><path class="st2" d="M48.8 132.9c-.7-.3-1.2-.6-1.6-1l.3-.6c.4.4.9.7 1.5 1s1.3.4 2 .4c1 0 1.8-.2 2.3-.6.5-.4.8-.9.8-1.5 0-.5-.1-.8-.4-1.1-.3-.3-.6-.5-1-.6-.4-.2-.9-.3-1.6-.5-.8-.2-1.4-.4-1.8-.6-.5-.2-.9-.5-1.2-.8-.3-.4-.5-.9-.5-1.5 0-.5.1-1 .4-1.4.3-.4.7-.8 1.2-1 .6-.2 1.2-.4 2.1-.4.6 0 1.1.1 1.7.3.6.2 1 .4 1.5.7l-.3.6c-.4-.3-.9-.5-1.4-.7-.5-.1-1-.2-1.5-.2-1 0-1.7.2-2.2.6s-.7.9-.7 1.5c0 .5.1.8.4 1.1.3.3.6.5 1 .6.4.2.9.3 1.6.5.8.2 1.4.4 1.8.6s.9.5 1.2.8c.3.4.5.9.5 1.5 0 .5-.1 1-.4 1.4-.3.4-.7.8-1.3 1-.6.3-1.3.4-2.1.4-.9-.1-1.6-.2-2.3-.5zM59.2 123.5h-3.8v-.7h8.3v.7h-3.8v9.8h-.8l.1-9.8zM71.6 130.3h-6.1l-1.3 2.9h-.8l4.8-10.5h.8l4.8 10.5H73l-1.4-2.9zm-.3-.6-2.8-6-2.7 6h5.5zM82.9 133.3l-2.5-3.5c-.4.1-.7.1-1 .1h-3v3.4h-.8v-10.5h3.8c1.3 0 2.4.3 3.1.9s1.1 1.5 1.1 2.6c0 .8-.2 1.5-.6 2.1s-1 1-1.8 1.2l2.6 3.7h-.9zm-3.5-4.1c1.1 0 2-.2 2.6-.7s.9-1.2.9-2.1-.3-1.6-.9-2.1-1.4-.7-2.6-.7h-3v5.7h3v-.1zM88.3 123.5h-3.8v-.7h8.3v.7H89v9.8h-.8v-9.8h.1zM101.9 132.6v.7h-7.2v-10.5h7v.7h-6.2v4.1h5.6v.7h-5.6v4.3h6.4zM112 133.3l-2.5-3.5c-.4.1-.7.1-1 .1h-3v3.4h-.8v-10.5h3.8c1.3 0 2.4.3 3.1.9s1.1 1.5 1.1 2.6c0 .8-.2 1.5-.6 2.1s-1 1-1.8 1.2l2.6 3.7h-.9zm-3.5-4.1c1.1 0 2-.2 2.6-.7s.9-1.2.9-2.1-.3-1.6-.9-2.1-1.4-.7-2.6-.7h-3v5.7h3v-.1z"/></svg>