<svg version="1.1" id="Layer_1" xmlns="http://www.w3.org/2000/svg" x="0" y="0" viewBox="0 0 110 110" style="enable-background:new 0 0 110 110" xml:space="preserve"><style>.st2{fill:#57ddb0}.st3{fill:none;stroke:#5e67d3;stroke-linecap:round;stroke-linejoin:round;stroke-miterlimit:10}.st7{fill:#f9b946}</style><path d="M77.2 17.8c5.1 4.3 7.2 12 7.9 19 .7 7 0 13.3-.9 20.8-.8 7.5-1.7 16.1-6.3 20.5-4.7 4.3-13.2 4.3-21 3.4-7.8-1-14.9-2.9-19.8-7.1-4.9-4.2-7.6-10.8-10.7-17.9-3.2-7.1-6.8-14.6-5.2-20.7 1.6-6.1 8.5-10.8 15.3-14.6 6.7-3.8 13.3-6.7 20.5-7.7 7.2-1.1 15.1-.1 20.2 4.3z" style="fill:#434349"/><path d="m64.2 70.8-16.4-6.9c-1.2-.5-1.7-1.9-1.3-3.1l7.7-18.4c.5-1.2 1.9-1.7 3.1-1.3L73.6 48c1.2.5 1.7 1.9 1.3 3.1l-7.7 18.4c-.5 1.2-1.9 1.8-3 1.3z" style="fill:#c9cff7"/><path class="st2" d="m79.4 33.7 1.6-2.9 8.1-1.5 1.2 5.5-7.7 1.4z"/><path class="st3" d="M64.9 45c1.2-3.5 9.2-11.3 15.9-11.4"/><path d="m60.6 59.8-16.4 6.7c-1.2.5-2.6-.1-3.1-1.3l-7.5-18.5c-.5-1.2.1-2.6 1.3-3.1L51.3 37c1.2-.5 2.6.1 3.1 1.3l7.5 18.5c.5 1.2-.2 2.6-1.3 3z" style="fill:#e1e4ff"/><path class="st2" d="m27.9 30.4-1.5-2.9-8.2-1.5-1.1 5.5 7.7 1.4z"/><path class="st3" d="M42.4 41.7c-1.1-3.5-9.2-11.3-15.8-11.4"/><path d="M30.8 43c0-13.4 10.9-24.3 24.3-24.3S79.3 29.6 79.3 43" style="fill:none;stroke:#5e67d3;stroke-width:2;stroke-linecap:round;stroke-linejoin:round;stroke-miterlimit:10"/><path d="M80.8 49.1H29.3c-1.7 0-3.1-1.4-3.1-3.1 0-1.7 1.4-3.1 3.1-3.1h51.6c1.7 0 3.1 1.4 3.1 3.1 0 1.8-1.4 3.1-3.2 3.1z" style="fill:#c5c8ff"/><path class="st3" d="M80.8 49.1H29.3c-1.7 0-3.1-1.4-3.1-3.1h0c0-1.7 1.4-3.1 3.1-3.1h51.6c1.7 0 3.1 1.4 3.1 3.1h0c0 1.8-1.4 3.1-3.2 3.1zM68.6 76.4H41.5c-3.8 0-7-2.7-7.7-6.4L30 49.1h50.2l-3.8 20.8c-.7 3.8-3.9 6.5-7.8 6.5zM37.7 49.1l4.7 27.3M49.1 49.1l2.4 27.3M72.7 49.1l-4.8 27.3M61.1 49.1l-2.2 27.3M31.4 56.8h47.4M32.9 65.5h44.3M34.4 72h41.3"/><path class="st7" d="m31.4 11.9.2 1.1c.2 1.1 1 1.9 2.1 2.1l1.1.2-1.1.2c-1.1.2-1.9 1-2.1 2.1l-.2 1.1-.2-1.1c-.2-1.1-1-1.9-2.1-2.1l-1.1-.2 1.1-.2c1.1-.2 1.9-1 2.1-2.1l.2-1.1zM89.6 60.1l.2 1.1c.2 1.1 1 1.9 2.1 2.1l1.1.2-1.1.2c-1.1.2-1.9 1-2.1 2.1l-.2 1.2-.2-1.1c-.2-1.1-1-1.9-2.1-2.1l-1.1-.2 1.1-.2c1.1-.2 1.9-1 2.1-2.1l.2-1.2z"/></svg>