<svg version="1.1" id="Layer_1" xmlns="http://www.w3.org/2000/svg" x="0" y="0" viewBox="0 0 110 110" style="enable-background:new 0 0 110 110" xml:space="preserve"><style>.st1{fill:#e5d7ff}.st2{fill:none;stroke:#62428c;stroke-linecap:round;stroke-linejoin:round;stroke-miterlimit:10}.st3{fill:#baa8e5}.st5{opacity:.45;stroke-miterlimit:10;enable-background:new}.st5,.st7{fill:none;stroke:#62428c;stroke-linecap:round;stroke-linejoin:round}.st9{fill:#62428c}</style><path d="M77.2 22.8c5.1 4.3 7.2 12 7.9 19 .7 7 0 13.3-.9 20.8-.8 7.5-1.7 16.1-6.3 20.5-4.7 4.3-13.2 4.3-21 3.4-7.8-1-14.9-2.9-19.8-7.1-4.9-4.2-7.6-10.8-10.7-17.9-3.2-7.1-6.8-14.6-5.2-20.7 1.6-6.1 8.5-10.8 15.3-14.6 6.7-3.8 13.3-6.7 20.5-7.7 7.2-1 15.1 0 20.2 4.3z" style="fill:#f2f4f8"/><path class="st1" d="M86.7 40.5H48.9v33.3h37.8zM98.1 40.5H86.7v33.3h18V40.5z"/><path class="st2" d="M48.9 45.8h55.8"/><path class="st3" d="M93.4 40.5h4.7v33.3h-4.7zM64.6 40.5h6.5v33.3h-6.5zM56.5 73.8h-7.6v-28z"/><path class="st2" d="M48.9 40.5h37.8v33.3H48.9zM86.7 40.5h18v33.3h-18z"/><path style="fill:#fff" d="M73.1 52.2H83v13.3h-9.9z"/><path class="st2" d="M73.1 52.2H83v13.3h-9.9z"/><path class="st5" d="M75.4 55.2h1.8M75.4 56.8h4"/><path style="fill:none;stroke:#57ddb0;stroke-linecap:round;stroke-linejoin:round;stroke-miterlimit:10" d="M75.4 62.5h5.5"/><path class="st2" d="M42.1 69.2c.2 2.5-1.7 4.6-4.1 4.6H9.4c-2.5 0-4.5-2.3-4.1-4.8l.5-3.3 4.9-33 .6-3.9h26.9l.4 3.9 3.3 33 .2 3.5z"/><path class="st1" d="M46.8 73.8H38c2.5 0 4.4-2.1 4.1-4.6l-.3-3.5-3.3-33-.4-3.9h5l.8 3.9 6.4 33 .6 3.1c.5 2.6-1.5 5-4.1 5z"/><path class="st2" d="M46.8 73.8H38c2.5 0 4.4-2.1 4.1-4.6l-.3-3.5-3.3-33-.4-3.9h5l.8 3.9 6.4 33 .6 3.1c.5 2.6-1.5 5-4.1 5zM29.8 31.7v-7.6c0-3.3-2.7-6-6-6h0c-3.3 0-6 2.7-6 6v7.6"/><path class="st5" d="M36.3 28.6v-4.5c0-3.3-2.7-6-6-6h0c-3.3 0-6 2.7-6 6v4.7"/><path class="st7" d="M5.6 67.1h1"/><path style="fill:none;stroke:#62428c;stroke-linecap:round;stroke-linejoin:round;stroke-dasharray:2.0167,4.0333" d="M10.6 67.1h28.3"/><path class="st7" d="M40.9 67.1h1"/><path class="st9" d="m86.7 27.1.3 1.3c.2 1.3 1.2 2.3 2.5 2.5l1.3.3-1.3.3c-1.3.2-2.3 1.2-2.5 2.5l-.3 1.3-.2-1.3c-.2-1.3-1.2-2.3-2.5-2.5l-1.3-.3 1.3-.3c1.3-.2 2.3-1.2 2.5-2.5l.2-1.3zM41.9 83.8l.3 1.3c.2 1.3 1.2 2.3 2.5 2.5l1.3.3-1.3.3c-1.3.2-2.3 1.2-2.5 2.5l-.3 1.3-.3-1.3c-.2-1.3-1.2-2.3-2.5-2.5l-1.3-.3 1.3-.3c1.3-.2 2.3-1.2 2.5-2.5l.3-1.3z"/></svg>