<svg version="1.1" id="Layer_1" xmlns="http://www.w3.org/2000/svg" x="0" y="0" viewBox="0 0 110 110" style="enable-background:new 0 0 110 110" xml:space="preserve"><style>.st2,.st3{fill:none;stroke:#62428c;stroke-linecap:round;stroke-linejoin:round;stroke-miterlimit:10}.st3{opacity:.25}.st5{fill:#e5d7ff}.st6{fill:#fff}.st8{fill:#62428c}</style><path d="M70.2 20.8c5.1 4.3 7.2 12 7.9 19 .7 7 0 13.3-.9 20.8-.8 7.5-1.7 16.1-6.3 20.5-4.7 4.3-13.2 4.3-21 3.4-7.8-1-14.9-2.9-19.8-7.1-4.9-4.2-7.6-10.8-10.7-17.9-3.2-7.1-6.8-14.6-5.2-20.7 1.6-6.1 8.5-10.8 15.3-14.6 6.7-3.8 13.3-6.7 20.5-7.7 7.2-1.1 15.1-.1 20.2 4.3z" style="fill:#f2f4f8"/><path d="M97 67.6H74c-1 0-1.8-.8-1.8-1.8v-4.6c0-1 .8-1.8 1.8-1.8h23c1 0 1.8.8 1.8 1.8v4.6c0 1-.8 1.8-1.8 1.8z" style="opacity:.67;fill:#62428c"/><path class="st2" d="M101.2 74.3H69.5c-1.6 0-3-1.3-3-3V25.9c0-1.6 1.3-3 3-3h31.7c1.6 0 3 1.3 3 3v45.5c-.1 1.6-1.4 2.9-3 2.9z"/><path class="st3" d="M73 32.2h25.1M73 37h25.1"/><path style="opacity:.45;fill:none;stroke:#62428c;stroke-linecap:round;stroke-linejoin:round;stroke-miterlimit:10" d="M73 41.9h25.1"/><path class="st3" d="M78.2 46.7h14.7"/><path class="st5" d="M56.1 65S43.6 74.4 39 75.6c-4.5 1.1-24.8 0-24.8 0V59.9h4s6.6-11.3 8.4-11.9c1.8-.6 13.2-1.8 14.2-.4 1 1.5-1.2 5.4-4.9 6.3-3.7.9 3.9 1 3.9 1l2.9 2.3"/><path class="st6" d="M70.4 65H36.6c-1.6 0-2.9-1.3-2.9-2.9V41.7c0-1.6 1.3-2.9 2.9-2.9h33.8c1.6 0 2.9 1.3 2.9 2.9v20.4c0 1.7-1.3 2.9-2.9 2.9z"/><path class="st2" d="M70.4 65H36.6c-1.6 0-2.9-1.3-2.9-2.9V41.7c0-1.6 1.3-2.9 2.9-2.9h33.8c1.6 0 2.9 1.3 2.9 2.9v20.4c0 1.7-1.3 2.9-2.9 2.9zM38.3 43.8h3.4M38.3 45.9h7.9"/><g style="opacity:.45"><path class="st2" d="M42.4 55.2H48M50.8 55.2h5.5M59.1 55.2h5.6"/></g><path class="st8" d="M33.8 57.7h39.5v3.5H33.8z"/><path d="M69.8 45c0 .9-.7 1.6-1.6 1.6-.9 0-1.6-.7-1.6-1.6 0-.9.7-1.6 1.6-1.6.9 0 1.6.7 1.6 1.6z" style="fill:#57ddb0"/><path class="st5" d="M7.3 78.2h5.5c.8 0 1.4-.6 1.4-1.4v-5c0-.8-.6-1.4-1.4-1.4H7.3c-.8 0-1.4.6-1.4 1.4v5c0 .8.6 1.4 1.4 1.4z"/><path class="st2" d="M8.2 78.2H12c1.3 0 2.3-1 2.3-2.3V60.4c0-1.3-1-2.3-2.3-2.3H8.2c-1.3 0-2.3 1-2.3 2.3v15.5c0 1.3 1 2.3 2.3 2.3z"/><path class="st5" d="M31.1 47.3s7.8-.5 9-.1c1.2.4 1 1.7.3 3s-3 3.6-5.3 3.9c-2.3.4-3.2.5-3.2.5"/><path class="st2" d="M56.1 65S43.6 74.4 39 75.6c-4.5 1.1-24.8 0-24.8 0V59.9h4s6.6-11.3 8.4-11.9c1.8-.6 13.2-1.8 14.2-.4 1 1.5-1.2 5.4-4.9 6.3-3.7.9-4.5 1.3-4.5 1.3l-.7 2.4s3.8 2.6 1.7 10.5"/><path class="st6" d="M33.8 45.2c-.5 0-7-3.7-7-7v-7l7-3.2 7 3.2v7c0 3.5-6.6 7-7 7z"/><path class="st2" d="M33.8 45.2h0c-.5 0-7-3.7-7-7v-7l7-3.2 7 3.2v7c0 3.5-6.6 7-7 7z"/><path class="st5" d="M33.8 42.6c-.4 0-4.9-2.5-4.9-4.9v-4.9l4.9-2.2 4.9 2.2v4.9c-.1 2.4-4.6 4.9-4.9 4.9z"/><path class="st2" d="M33.8 42.6h0c-.4 0-4.9-2.5-4.9-4.9v-4.9l4.9-2.2 4.9 2.2v4.9c-.1 2.4-4.6 4.9-4.9 4.9z"/><path style="opacity:.71;fill:none;stroke:#fff;stroke-linecap:round;stroke-linejoin:round;stroke-miterlimit:10" d="M77 63.5h17.1"/><path class="st8" d="m20.4 21.1.2 1.3c.2 1.3 1.2 2.2 2.5 2.5l1.3.2-1.3.2c-1.3.2-2.2 1.2-2.5 2.5l-.2 1.3-.2-1.3c-.2-1.3-1.2-2.2-2.5-2.5l-1.3-.2 1.3-.2c1.3-.2 2.2-1.2 2.5-2.5l.2-1.3zM85.3 80.9l.2 1.3c.2 1.3 1.2 2.2 2.5 2.5l1.3.2-1.3.2c-1.3.2-2.2 1.2-2.5 2.5l-.2 1.3-.2-1.3c-.2-1.3-1.2-2.2-2.5-2.5l-1.3-.2 1.3-.2c1.3-.2 2.2-1.2 2.5-2.5l.2-1.3z"/></svg>