<svg version="1.1" id="Layer_1" xmlns="http://www.w3.org/2000/svg" x="0" y="0" viewBox="0 0 195.1 163.6" style="enable-background:new 0 0 195.1 163.6" xml:space="preserve"><style>.st15,.st16,.st24{opacity:.1;fill:#8bbcff;enable-background:new}.st16,.st24{opacity:.25}.st24{fill:#fff}</style><linearGradient id="SVGID_1_" gradientUnits="userSpaceOnUse" x1="0" y1="71.384" x2="195" y2="71.384"><stop offset="0" style="stop-color:#fff"/><stop offset="1" style="stop-color:#d8e0ff"/></linearGradient><path d="M0 0v142.7c17.6-10.7 35.8-21 56.6-25 8.8-1.7 18.1-2.3 27.9-1.2 5.2.5 10.5 1.5 16 3 35.9 9.8 58.5 28.5 94.5 11.7V0H0z" style="fill:url(#SVGID_1_)"/><path d="M195.1 15.9v116.3c-36.1 16.8-58.7-1.9-94.6-11.7-5.5-1.5-10.8-2.5-16-3-9.8-1.1-19.1-.5-27.9 1.2-20.8 4-39.1 14.4-56.7 25.1V15.9c0-4.6 1.9-8.8 5-11.7C7.8 1.4 11.7-.2 16-.2h163c8.9 0 16.1 7.3 16.1 16.1z" style="fill:none"/><linearGradient id="SVGID_2_" gradientUnits="userSpaceOnUse" x1="42.489" y1="309.589" x2="90.965" y2="26.578" gradientTransform="matrix(1 0 0 -1 0 166)"><stop offset="0" style="stop-color:#fff"/><stop offset="1" style="stop-color:#d8e0ff"/></linearGradient><path d="M109.2-.2c0 23-18.7 41.7-41.7 41.7S25.8 22.8 25.8-.2H16c-4.2 0-8.1 1.7-11 4.5 2.3 32.5 29.4 58.3 62.5 58.3 34.6 0 62.7-28.1 62.7-62.7l-21-.1z" style="fill:url(#SVGID_2_)"/><linearGradient id="SVGID_3_" gradientUnits="userSpaceOnUse" x1="57.779" y1="115.466" x2="73.105" y2="19.228" gradientTransform="matrix(1 0 0 -1 0 166)"><stop offset="0" style="stop-color:#ff7570"/><stop offset="1" style="stop-color:#fbb"/></linearGradient><path d="M84.6 117.4c-9.8-1.1-19.1-.5-27.9 1.2-2.1-5.9-4.9-13.8-6.6-17.3-.2-.5-.4-.9-.6-1.2l2-3.6 5.3-9.6 3.8 2.6 1.5 1.1 5.4 3.8s.4.5 1 1.3c1.6 2.1 4.8 6.4 8 10.8 3.3 4.4 6.5 8.8 8.1 10.9z" style="fill:url(#SVGID_3_)"/><linearGradient id="SVGID_4_" gradientUnits="userSpaceOnUse" x1="87.496" y1="62.14" x2="161.991" y2="251.406" gradientTransform="matrix(1 0 0 -1 0 166)"><stop offset="0" style="stop-color:#fff"/><stop offset="1" style="stop-color:#ddc4ff"/></linearGradient><path d="M147.2 44.3v58.1c0 2.3-1.9 4.2-4.2 4.2H55.7c-2.3 0-4.2-1.9-4.2-4.2V44.3h95.7z" style="fill:url(#SVGID_4_)"/><linearGradient id="SVGID_5_" gradientUnits="userSpaceOnUse" x1="92.605" y1="99.342" x2="101.159" y2="132.847" gradientTransform="matrix(1 0 0 -1 0 166)"><stop offset="0" style="stop-color:#ff227d"/><stop offset="1" style="stop-color:#ff967d"/></linearGradient><path d="M147.2 36.7v7.6H51.5v-7.6c0-2.3 1.9-4.2 4.2-4.2H143c2.3 0 4.2 1.8 4.2 4.2z" style="fill:url(#SVGID_5_)"/><linearGradient id="SVGID_6_" gradientUnits="userSpaceOnUse" x1="67.33" y1="156.787" x2="67.567" y2="124.47" gradientTransform="matrix(1 0 0 -1 0 166)"><stop offset="0" style="stop-color:#2a1f31"/><stop offset="1" style="stop-color:#6a517f"/></linearGradient><path d="M67.5 27.6c-1 0-1.8.8-1.8 1.8v5.9c0 1 .8 1.8 1.8 1.8s1.8-.8 1.8-1.8v-5.9c0-1-.8-1.8-1.8-1.8z" style="fill:url(#SVGID_6_)"/><linearGradient id="SVGID_7_" gradientUnits="userSpaceOnUse" x1="78.029" y1="156.866" x2="78.267" y2="124.549" gradientTransform="matrix(1 0 0 -1 0 166)"><stop offset="0" style="stop-color:#2a1f31"/><stop offset="1" style="stop-color:#6a517f"/></linearGradient><path d="M78.2 27.6c-1 0-1.8.8-1.8 1.8v5.9c0 1 .8 1.8 1.8 1.8s1.8-.8 1.8-1.8v-5.9c-.1-1-.9-1.8-1.8-1.8z" style="fill:url(#SVGID_7_)"/><linearGradient id="SVGID_8_" gradientUnits="userSpaceOnUse" x1="88.629" y1="156.944" x2="88.866" y2="124.627" gradientTransform="matrix(1 0 0 -1 0 166)"><stop offset="0" style="stop-color:#2a1f31"/><stop offset="1" style="stop-color:#6a517f"/></linearGradient><path d="M88.8 27.6c-1 0-1.8.8-1.8 1.8v5.9c0 1 .8 1.8 1.8 1.8s1.8-.8 1.8-1.8v-5.9c-.1-1-.9-1.8-1.8-1.8z" style="fill:url(#SVGID_8_)"/><linearGradient id="SVGID_9_" gradientUnits="userSpaceOnUse" x1="99.228" y1="157.022" x2="99.466" y2="124.705" gradientTransform="matrix(1 0 0 -1 0 166)"><stop offset="0" style="stop-color:#2a1f31"/><stop offset="1" style="stop-color:#6a517f"/></linearGradient><path d="M99.4 27.6c-1 0-1.8.8-1.8 1.8v5.9c0 1 .8 1.8 1.8 1.8s1.8-.8 1.8-1.8v-5.9c-.1-1-.9-1.8-1.8-1.8z" style="fill:url(#SVGID_9_)"/><linearGradient id="SVGID_10_" gradientUnits="userSpaceOnUse" x1="109.828" y1="157.1" x2="110.065" y2="124.783" gradientTransform="matrix(1 0 0 -1 0 166)"><stop offset="0" style="stop-color:#2a1f31"/><stop offset="1" style="stop-color:#6a517f"/></linearGradient><path d="M110 27.6c-1 0-1.8.8-1.8 1.8v5.9c0 1 .8 1.8 1.8 1.8s1.8-.8 1.8-1.8v-5.9c-.1-1-.9-1.8-1.8-1.8z" style="fill:url(#SVGID_10_)"/><linearGradient id="SVGID_11_" gradientUnits="userSpaceOnUse" x1="120.427" y1="157.178" x2="120.665" y2="124.861" gradientTransform="matrix(1 0 0 -1 0 166)"><stop offset="0" style="stop-color:#2a1f31"/><stop offset="1" style="stop-color:#6a517f"/></linearGradient><path d="M120.6 27.6c-1 0-1.8.8-1.8 1.8v5.9c0 1 .8 1.8 1.8 1.8s1.8-.8 1.8-1.8v-5.9c0-1-.8-1.8-1.8-1.8z" style="fill:url(#SVGID_11_)"/><linearGradient id="SVGID_12_" gradientUnits="userSpaceOnUse" x1="131.026" y1="157.256" x2="131.264" y2="124.939" gradientTransform="matrix(1 0 0 -1 0 166)"><stop offset="0" style="stop-color:#2a1f31"/><stop offset="1" style="stop-color:#6a517f"/></linearGradient><path d="M131.2 27.6c-1 0-1.8.8-1.8 1.8v5.9c0 1 .8 1.8 1.8 1.8s1.8-.8 1.8-1.8v-5.9c0-1-.8-1.8-1.8-1.8z" style="fill:url(#SVGID_12_)"/><linearGradient id="SVGID_13_" gradientUnits="userSpaceOnUse" x1="98.076" y1="139.139" x2="72.947" y2="117.753" gradientTransform="matrix(1 0 0 -1 0 166)"><stop offset="0" style="stop-color:#2a1f31"/><stop offset="1" style="stop-color:#6a517f"/></linearGradient><path d="M79.2 49.4H61.4c-.6 0-1.1.5-1.1 1.1 0 .6.5 1.1 1.1 1.1h17.8c.6 0 1.1-.5 1.1-1.1 0-.6-.5-1.1-1.1-1.1z" style="opacity:.45;fill:url(#SVGID_13_);enable-background:new"/><linearGradient id="SVGID_14_" gradientUnits="userSpaceOnUse" x1="130.601" y1="161.614" x2="129.71" y2="127.396" gradientTransform="matrix(1 0 0 -1 0 166)"><stop offset="0" style="stop-color:#2a1f31"/><stop offset="1" style="stop-color:#6a517f"/></linearGradient><path d="M138.3 49.4h-17.8c-.6 0-1.1.5-1.1 1.1 0 .6.5 1.1 1.1 1.1h17.8c.6 0 1.1-.5 1.1-1.1 0-.6-.5-1.1-1.1-1.1z" style="opacity:.45;fill:url(#SVGID_14_);enable-background:new"/><path class="st15" d="M66.8 64.3h-5.5c-1 0-1.8-.8-1.8-1.8v-4.1c0-1 .8-1.8 1.8-1.8h5.5c1 0 1.8.8 1.8 1.8v4.1c-.1 1-.9 1.8-1.8 1.8zM78.5 64.3H73c-1 0-1.8-.8-1.8-1.8v-4.1c0-1 .8-1.8 1.8-1.8h5.5c1 0 1.8.8 1.8 1.8v4.1c0 1-.8 1.8-1.8 1.8z"/><path class="st16" d="M90.3 64.3h-5.5c-1 0-1.8-.8-1.8-1.8v-4.1c0-1 .8-1.8 1.8-1.8h5.5c1 0 1.8.8 1.8 1.8v4.1c0 1-.8 1.8-1.8 1.8zM102.1 64.3h-5.5c-1 0-1.8-.8-1.8-1.8v-4.1c0-1 .8-1.8 1.8-1.8h5.5c1 0 1.8.8 1.8 1.8v4.1c-.1 1-.8 1.8-1.8 1.8zM113.9 64.3h-5.5c-1 0-1.8-.8-1.8-1.8v-4.1c0-1 .8-1.8 1.8-1.8h5.5c1 0 1.8.8 1.8 1.8v4.1c-.1 1-.9 1.8-1.8 1.8zM125.6 64.3h-5.5c-1 0-1.8-.8-1.8-1.8v-4.1c0-1 .8-1.8 1.8-1.8h5.5c1 0 1.8.8 1.8 1.8v4.1c0 1-.8 1.8-1.8 1.8zM137.4 64.3h-5.5c-1 0-1.8-.8-1.8-1.8v-4.1c0-1 .8-1.8 1.8-1.8h5.5c1 0 1.8.8 1.8 1.8v4.1c0 1-.8 1.8-1.8 1.8zM66.8 75.6h-5.5c-1 0-1.8-.8-1.8-1.8v-4.1c0-1 .8-1.8 1.8-1.8h5.5c1 0 1.8.8 1.8 1.8v4.1c-.1 1-.9 1.8-1.8 1.8zM78.5 75.6H73c-1 0-1.8-.8-1.8-1.8v-4.1c0-1 .8-1.8 1.8-1.8h5.5c1 0 1.8.8 1.8 1.8v4.1c0 1-.8 1.8-1.8 1.8zM90.3 75.6h-5.5c-1 0-1.8-.8-1.8-1.8v-4.1c0-1 .8-1.8 1.8-1.8h5.5c1 0 1.8.8 1.8 1.8v4.1c0 1-.8 1.8-1.8 1.8zM102.1 75.6h-5.5c-1 0-1.8-.8-1.8-1.8v-4.1c0-1 .8-1.8 1.8-1.8h5.5c1 0 1.8.8 1.8 1.8v4.1c-.1 1-.8 1.8-1.8 1.8zM113.9 75.6h-5.5c-1 0-1.8-.8-1.8-1.8v-4.1c0-1 .8-1.8 1.8-1.8h5.5c1 0 1.8.8 1.8 1.8v4.1c-.1 1-.9 1.8-1.8 1.8zM125.6 75.6h-5.5c-1 0-1.8-.8-1.8-1.8v-4.1c0-1 .8-1.8 1.8-1.8h5.5c1 0 1.8.8 1.8 1.8v4.1c0 1-.8 1.8-1.8 1.8zM137.4 75.6h-5.5c-1 0-1.8-.8-1.8-1.8v-4.1c0-1 .8-1.8 1.8-1.8h5.5c1 0 1.8.8 1.8 1.8v4.1c0 1-.8 1.8-1.8 1.8zM66.8 86.9h-5.5c-1 0-1.8-.8-1.8-1.8V81c0-1 .8-1.8 1.8-1.8h5.5c1 0 1.8.8 1.8 1.8v4.1c-.1 1.1-.9 1.8-1.8 1.8zM78.5 86.9H73c-1 0-1.8-.8-1.8-1.8V81c0-1 .8-1.8 1.8-1.8h5.5c1 0 1.8.8 1.8 1.8v4.1c0 1.1-.8 1.8-1.8 1.8zM90.3 86.9h-5.5c-1 0-1.8-.8-1.8-1.8V81c0-1 .8-1.8 1.8-1.8h5.5c1 0 1.8.8 1.8 1.8v4.1c0 1.1-.8 1.8-1.8 1.8zM102.1 86.9h-5.5c-1 0-1.8-.8-1.8-1.8V81c0-1 .8-1.8 1.8-1.8h5.5c1 0 1.8.8 1.8 1.8v4.1c-.1 1.1-.8 1.8-1.8 1.8zM113.9 86.9h-5.5c-1 0-1.8-.8-1.8-1.8V81c0-1 .8-1.8 1.8-1.8h5.5c1 0 1.8.8 1.8 1.8v4.1c-.1 1.1-.9 1.8-1.8 1.8zM125.6 86.9h-5.5c-1 0-1.8-.8-1.8-1.8V81c0-1 .8-1.8 1.8-1.8h5.5c1 0 1.8.8 1.8 1.8v4.1c0 1.1-.8 1.8-1.8 1.8zM137.4 86.9h-5.5c-1 0-1.8-.8-1.8-1.8V81c0-1 .8-1.8 1.8-1.8h5.5c1 0 1.8.8 1.8 1.8v4.1c0 1.1-.8 1.8-1.8 1.8zM66.8 98.3h-5.5c-1 0-1.8-.8-1.8-1.8v-4.1c0-1 .8-1.8 1.8-1.8h5.5c1 0 1.8.8 1.8 1.8v4.1c-.1 1-.9 1.8-1.8 1.8zM78.5 98.3H73c-1 0-1.8-.8-1.8-1.8v-4.1c0-1 .8-1.8 1.8-1.8h5.5c1 0 1.8.8 1.8 1.8v4.1c0 1-.8 1.8-1.8 1.8zM90.3 98.3h-5.5c-1 0-1.8-.8-1.8-1.8v-4.1c0-1 .8-1.8 1.8-1.8h5.5c1 0 1.8.8 1.8 1.8v4.1c0 1-.8 1.8-1.8 1.8zM102.1 98.3h-5.5c-1 0-1.8-.8-1.8-1.8v-4.1c0-1 .8-1.8 1.8-1.8h5.5c1 0 1.8.8 1.8 1.8v4.1c-.1 1-.8 1.8-1.8 1.8zM113.9 98.3h-5.5c-1 0-1.8-.8-1.8-1.8v-4.1c0-1 .8-1.8 1.8-1.8h5.5c1 0 1.8.8 1.8 1.8v4.1c-.1 1-.9 1.8-1.8 1.8zM125.6 98.3h-5.5c-1 0-1.8-.8-1.8-1.8v-4.1c0-1 .8-1.8 1.8-1.8h5.5c1 0 1.8.8 1.8 1.8v4.1c0 1-.8 1.8-1.8 1.8z"/><path class="st15" d="M137.4 98.3h-5.5c-1 0-1.8-.8-1.8-1.8v-4.1c0-1 .8-1.8 1.8-1.8h5.5c1 0 1.8.8 1.8 1.8v4.1c0 1-.8 1.8-1.8 1.8z"/><linearGradient id="SVGID_15_" gradientUnits="userSpaceOnUse" x1="105.168" y1="82.9" x2="117.094" y2="82.9" gradientTransform="matrix(1 0 0 -1 0 166)"><stop offset="0" style="stop-color:#ff6d79"/><stop offset="1" style="stop-color:#ff8b88"/></linearGradient><circle cx="111.1" cy="83.1" r="5.5" style="fill:none;stroke:url(#SVGID_15_);stroke-linecap:round;stroke-linejoin:round;stroke-miterlimit:10"/><linearGradient id="SVGID_16_" gradientUnits="userSpaceOnUse" x1="108.049" y1="83" x2="114.262" y2="83" gradientTransform="matrix(1 0 0 -1 0 166)"><stop offset="0" style="stop-color:#ff6d79"/><stop offset="1" style="stop-color:#ff8b88"/></linearGradient><path style="fill:none;stroke:url(#SVGID_16_);stroke-linecap:round;stroke-linejoin:round;stroke-miterlimit:10" d="m108.5 82.9 1.8 1.8 3.5-3.4"/><linearGradient id="SVGID_17_" gradientUnits="userSpaceOnUse" x1="4.008" y1="-11.941" x2="51.764" y2="88.916" gradientTransform="matrix(1 0 0 -1 0 166)"><stop offset="0" style="stop-color:#ff7570"/><stop offset="1" style="stop-color:#fbb"/></linearGradient><path d="M56.8 92.8c-2.8 2.2-5.9 9.5-8.3 9.3-2.4-.2-3.6-3.8-4.3-4.8s-3.8-4.4-4-6.7c-.3-2.2 0-2.8 0-2.8s-3.1-1.4-3.5-4c-.3-2.6 1-4.5 1-4.5s-2-1.5-1.6-3.7 9-7.6 9-7.6c1.6-1.7 5-3.1 8.2-3.7 1.3-.3 2.6-.4 3.6-.4.9 0 1.6.2 2.1.4.3.2.5.4.7.6.7 1.6-2.6 4.5-2.9 4.8h.1c.2-.1.6-.4 1.1-.6h.1c1.1-.5 2.6-.9 3.6-.3.4.2.7.5.9 1 1.2 2.4-2.8 5.7-4.3 6.8l-.1.1c.1-.1.3-.2.4-.3.1 0 .2-.1.3-.2.2-.1.5-.3.8-.5 1.1-.6 2.5-1.2 3.5-1.1.2 0 .3 0 .5.1.4.1.8.4 1 .9.9 2.7-5.7 8.3-6.5 9 .1 0 .1-.1.3-.2h.1c.4-.3 1.1-.7 1.8-1 1.2-.6 2.7-1.2 3.6-1 .4.1.7.3.8.7.7 2.4-5.1 7.5-8 9.7z" style="fill:url(#SVGID_17_)"/><linearGradient id="SVGID_18_" gradientUnits="userSpaceOnUse" x1="56.162" y1="94.091" x2="57.385" y2="96.673" gradientTransform="matrix(1 0 0 -1 0 166)"><stop offset="0" style="stop-color:#ff7570"/><stop offset="1" style="stop-color:#fbb"/></linearGradient><path d="M56.8 69.7c.2-.1.6-.4 1.1-.6l-1.1.6z" style="fill:url(#SVGID_18_)"/><linearGradient id="SVGID_19_" gradientUnits="userSpaceOnUse" x1="81.337" y1="72.483" x2="41.773" y2="102.899" gradientTransform="matrix(1 0 0 -1 0 166)"><stop offset="0" style="stop-color:#ff7570"/><stop offset="1" style="stop-color:#fbb"/></linearGradient><path d="M56.8 69.8c-6.5 3.3-11.9 6.8-12.8 6.9s-1.6-1.4 1.5-2.1c3.1-.8 11.7-5.4 11.9-8.5.1-1-.1-1.7-.4-2.2.9 0 1.6.2 2.1.4 2.4 1.3-1.9 5.1-2.3 5.5z" style="fill:url(#SVGID_19_)"/><linearGradient id="SVGID_20_" gradientUnits="userSpaceOnUse" x1="83.53" y1="65.923" x2="43.934" y2="96.363" gradientTransform="matrix(1 0 0 -1 0 166)"><stop offset="0" style="stop-color:#ff7570"/><stop offset="1" style="stop-color:#fbb"/></linearGradient><path d="M58.3 76.6s-.1 0 0 0c-2.2 1.2-7.7 4.4-9.7 6-2.1 1.7-4.5 2.1-4.3 1.4.2-.8 1.9-2.4 5.5-3.7 3.6-1.3 10.6-6.3 11.5-7.8.6-.9.8-2.6.3-3.5.4.2.7.5.9 1 1.2 2.2-2.8 5.5-4.2 6.6z" style="fill:url(#SVGID_20_)"/><linearGradient id="SVGID_21_" gradientUnits="userSpaceOnUse" x1="80.053" y1="64.851" x2="48.833" y2="88.852" gradientTransform="matrix(1 0 0 -1 0 166)"><stop offset="0" style="stop-color:#ff7570"/><stop offset="1" style="stop-color:#fbb"/></linearGradient><path d="M58.2 84.7c.1 0 .1-.1.3-.2-1.7 1.2-3.4 2.3-4.3 2.7-2 1-3.5 3.5-4.9 3.7s-1.9-.3-.5-2 7.7-4.1 9.6-5.4 4.5-4.2 5.4-5.6c.7-1.2.7-2.3.1-3.2.4.1.8.4 1 .9.7 2.7-5.9 8.3-6.7 9.1z" style="fill:url(#SVGID_21_)"/><path class="st24" d="M59.7 64.9c-.3 1.9-4.4 2.7-4.8 2.7-.5 0-1.4-1.6-1.6-3.4 1.3-.3 2.6-.4 3.6-.4.9 0 1.6.2 2.1.4.4.3.6.5.7.7zM59 73.1c-1.2.3-2.1-2-2.2-3.4.2-.1.6-.4 1.1-.6h.1c1.1-.5 2.6-.9 3.6-.3.5 2.2-1.5 4-2.6 4.3zM61.5 78.8c-1.2.3-2.1-2.3-2-2.8 0-.1.1-.2.1-.2 1.1-.6 2.5-1.2 3.5-1.1 1.2 1.9-.4 3.8-1.6 4.1zM64.1 84c-.4 1.3-1.9 1.9-2.3 1.8-.4-.1-1.4-1.8-1.5-2.2v-.2c1.2-.6 2.7-1.2 3.6-1 .3.3.5.8.2 1.6z"/><linearGradient id="SVGID_22_" gradientUnits="userSpaceOnUse" x1="252.851" y1="180.089" x2="252.317" y2="157.901" gradientTransform="scale(1 -1) rotate(-27.964 -315.93 226.249)"><stop offset="0" style="stop-color:#ffe392"/><stop offset="1" style="stop-color:#ff8b88"/></linearGradient><path d="m167.9 87.5-2.7 5.2-10.4-5.5 2.7-5.2c1.5-2.9 5.1-3.9 7.9-2.4.6.3 1.1.7 1.6 1.2 1.7 1.8 2.1 4.4.9 6.7z" style="fill:url(#SVGID_22_)"/><linearGradient id="SVGID_23_" gradientUnits="userSpaceOnUse" x1="240.808" y1="180.386" x2="240.273" y2="158.195" gradientTransform="scale(1 -1) rotate(-27.964 -315.93 226.249)"><stop offset="0" style="stop-color:#ffe392"/><stop offset="1" style="stop-color:#ff8b88"/></linearGradient><path d="m154 84.8-4 .5-3.2.4-.5-3.6c-.3-2 1.1-3.8 3.1-4 1.5-.2 2.9.6 3.6 1.8.2.4.4.8.4 1.2l.6 3.7z" style="fill:url(#SVGID_23_)"/><linearGradient id="SVGID_24_" gradientUnits="userSpaceOnUse" x1="264.824" y1="179.809" x2="264.289" y2="157.614" gradientTransform="scale(1 -1) rotate(-27.964 -315.93 226.249)"><stop offset="0" style="stop-color:#ffe392"/><stop offset="1" style="stop-color:#ff8b88"/></linearGradient><path d="m174 96.8-1.2.6-2.1 1-2-4.1-1.2-2.3 3.2-1.6c1.7-.8 3.8-.2 4.7 1.5l.1.1c1 1.8.3 4-1.5 4.8z" style="fill:url(#SVGID_24_)"/><linearGradient id="SVGID_25_" gradientUnits="userSpaceOnUse" x1="253.107" y1="190.24" x2="256.494" y2="152.931" gradientTransform="scale(1 -1) rotate(-27.964 -315.93 226.249)"><stop offset="0" style="stop-color:#ffe392"/><stop offset="1" style="stop-color:#ff8b88"/></linearGradient><path d="m167.9 87.5-2.7 5.2-6.9-3.7 2.7-5.2c1.2-2.3 3.7-3.4 6-3 1.7 1.8 2.1 4.4.9 6.7z" style="fill:url(#SVGID_25_)"/><linearGradient id="SVGID_26_" gradientUnits="userSpaceOnUse" x1="241.16" y1="189.155" x2="244.546" y2="151.847" gradientTransform="scale(1 -1) rotate(-27.964 -315.93 226.249)"><stop offset="0" style="stop-color:#ffe392"/><stop offset="1" style="stop-color:#ff8b88"/></linearGradient><path d="m153.6 81.2.5 3.6-4 .5-.2-1.3c-.3-2 1.1-3.8 3.1-4h.2c.2.4.3.8.4 1.2z" style="fill:url(#SVGID_26_)"/><linearGradient id="SVGID_27_" gradientUnits="userSpaceOnUse" x1="246.201" y1="189.613" x2="249.587" y2="152.305" gradientTransform="scale(1 -1) rotate(-27.964 -315.93 226.249)"><stop offset="0" style="stop-color:#ffe392"/><stop offset="1" style="stop-color:#ff8b88"/></linearGradient><path style="fill:url(#SVGID_27_)" d="m157.5 86.6-2.6.4 2.1-3.9z"/><linearGradient id="SVGID_28_" gradientUnits="userSpaceOnUse" x1="264.894" y1="191.31" x2="268.28" y2="154.001" gradientTransform="scale(1 -1) rotate(-27.964 -315.93 226.249)"><stop offset="0" style="stop-color:#ffe392"/><stop offset="1" style="stop-color:#ff8b88"/></linearGradient><path d="m174 96.8-1.2.6-1.8-3.6 3.2-1.6c.4-.2.8-.3 1.3-.3l.1.1c.9 1.8.2 4-1.6 4.8z" style="fill:url(#SVGID_28_)"/><linearGradient id="SVGID_29_" gradientUnits="userSpaceOnUse" x1="281.45" y1="263.932" x2="281.628" y2="237.378" gradientTransform="scale(1 -1) rotate(-53.978 -152.872 214.866)"><stop offset="0" style="stop-color:#2a1f31"/><stop offset="1" style="stop-color:#6a517f"/></linearGradient><path d="M131.6 115.3c-.5-.7-.4-1.6.3-2.1l4.5-3.7c.7-.6 1.7-.4 2.2.3l.4.6c.5.7.3 1.7-.4 2.2l-4.9 3.1c-.8.5-1.7.3-2.1-.4z" style="fill:url(#SVGID_29_)"/><linearGradient id="SVGID_30_" gradientUnits="userSpaceOnUse" x1="-121.309" y1="57.954" x2="-121.131" y2="31.399" gradientTransform="rotate(-178.015 17.44 88.485)"><stop offset="0" style="stop-color:#2a1f31"/><stop offset="1" style="stop-color:#6a517f"/></linearGradient><path d="M154.9 127.7c.8 0 1.5-.6 1.6-1.4l.6-5.8c.1-.9-.6-1.6-1.5-1.7h-.7c-.9 0-1.6.7-1.6 1.6l.2 5.8c-.1.8.6 1.5 1.4 1.5z" style="fill:url(#SVGID_30_)"/><linearGradient id="SVGID_31_" gradientUnits="userSpaceOnUse" x1="259.161" y1="96.199" x2="248.824" y2="192.798" gradientTransform="scale(1 -1) rotate(-27.964 -315.93 226.249)"><stop offset="0" style="stop-color:#671cc9"/><stop offset="1" style="stop-color:#6766c9"/></linearGradient><circle cx="153.6" cy="102" r="19.5" style="fill:url(#SVGID_31_)"/><linearGradient id="SVGID_32_" gradientUnits="userSpaceOnUse" x1="253.75" y1="188.704" x2="251.968" y2="133.573" gradientTransform="scale(1 -1) rotate(-27.964 -315.93 226.249)"><stop offset="0" style="stop-color:#fff"/><stop offset="1" style="stop-color:#ddc4ff"/></linearGradient><circle cx="153.6" cy="102" r="15.6" style="fill:url(#SVGID_32_)"/><linearGradient id="SVGID_33_" gradientUnits="userSpaceOnUse" x1="252.552" y1="170.209" x2="253.314" y2="111.271" gradientTransform="scale(1 -1) rotate(-27.964 -315.93 226.249)"><stop offset="0" style="stop-color:#fff"/><stop offset="1" style="stop-color:#ddc4ff"/></linearGradient><path d="M165.4 108.2c-3.4 6.5-11.5 9-18 5.5-6.5-3.4-9-11.5-5.5-18 3.4-6.5 11.5-9 18-5.5 6.4 3.5 8.9 11.5 5.5 18z" style="fill:url(#SVGID_33_)"/><linearGradient id="SVGID_34_" gradientUnits="userSpaceOnUse" x1="252.918" y1="154.376" x2="252.362" y2="159.573" gradientTransform="scale(1 -1) rotate(-27.964 -315.93 226.249)"><stop offset="0" style="stop-color:#2a1f31"/><stop offset="1" style="stop-color:#6a517f"/></linearGradient><path d="M155 102.8c-.4.8-1.4 1.1-2.2.7s-1.1-1.4-.7-2.2c.4-.8 1.4-1.1 2.2-.7.9.4 1.2 1.4.7 2.2z" style="fill:url(#SVGID_34_)"/><linearGradient id="SVGID_35_" gradientUnits="userSpaceOnUse" x1="253.247" y1="156.053" x2="252.115" y2="166.627" gradientTransform="scale(1 -1) rotate(-27.964 -315.93 226.249)"><stop offset="0" style="stop-color:#2a1f31"/><stop offset="1" style="stop-color:#6a517f"/></linearGradient><path style="fill:none;stroke:url(#SVGID_35_);stroke-linecap:round;stroke-linejoin:round;stroke-miterlimit:10" d="m153.6 102 4.5-8.6"/><linearGradient id="SVGID_36_" gradientUnits="userSpaceOnUse" x1="-74.885" y1="567.163" x2="-75.555" y2="573.427" gradientTransform="scale(-1 1) rotate(10.3 2468.929 -100.161)"><stop offset="0" style="stop-color:#2a1f31"/><stop offset="1" style="stop-color:#6a517f"/></linearGradient><path style="fill:none;stroke:url(#SVGID_36_);stroke-linecap:round;stroke-linejoin:round;stroke-miterlimit:10" d="m153.6 102 1 5.2"/><linearGradient id="SVGID_37_" gradientUnits="userSpaceOnUse" x1="252.889" y1="168.049" x2="252.501" y2="171.668" gradientTransform="scale(1 -1) rotate(-27.964 -315.93 226.249)"><stop offset="0" style="stop-color:#2a1f31"/><stop offset="1" style="stop-color:#6a517f"/></linearGradient><path style="opacity:.25;fill:none;stroke:url(#SVGID_37_);stroke-linecap:round;stroke-linejoin:round;stroke-miterlimit:10;enable-background:new" d="m160.5 89-1.3 2.4"/><linearGradient id="SVGID_38_" gradientUnits="userSpaceOnUse" x1="-130.492" y1="81.356" x2="-130.879" y2="84.974" gradientTransform="scale(1 -1) rotate(62.036 154.34 220.296)"><stop offset="0" style="stop-color:#2a1f31"/><stop offset="1" style="stop-color:#6a517f"/></linearGradient><path style="opacity:.25;fill:none;stroke:url(#SVGID_38_);stroke-linecap:round;stroke-linejoin:round;stroke-miterlimit:10;enable-background:new" d="m140.6 95.1 2.4 1.3"/><linearGradient id="SVGID_39_" gradientUnits="userSpaceOnUse" x1="-217.179" y1="464.725" x2="-217.566" y2="468.344" gradientTransform="scale(-1 1) rotate(-27.964 -890.687 149.577)"><stop offset="0" style="stop-color:#2a1f31"/><stop offset="1" style="stop-color:#6a517f"/></linearGradient><path style="opacity:.25;fill:none;stroke:url(#SVGID_39_);stroke-linecap:round;stroke-linejoin:round;stroke-miterlimit:10;enable-background:new" d="m146.7 115 1.3-2.4"/><linearGradient id="SVGID_40_" gradientUnits="userSpaceOnUse" x1="166.202" y1="551.418" x2="165.815" y2="555.037" gradientTransform="scale(-1 1) rotate(62.036 370.323 55.155)"><stop offset="0" style="stop-color:#2a1f31"/><stop offset="1" style="stop-color:#6a517f"/></linearGradient><path style="opacity:.25;fill:none;stroke:url(#SVGID_40_);stroke-linecap:round;stroke-linejoin:round;stroke-miterlimit:10;enable-background:new" d="m166.6 108.9-2.4-1.3"/></svg>