<svg version="1.1" id="Layer_1" xmlns="http://www.w3.org/2000/svg" xmlns:xlink="http://www.w3.org/1999/xlink" x="0" y="0" viewBox="0 0 198 190.3" style="enable-background:new 0 0 198 190.3" xml:space="preserve"><style>.st10{fill:#797bf2}.st11{fill:#fff;stroke:#797bf2;stroke-width:1.1014;stroke-linejoin:round;stroke-miterlimit:10}</style><defs><path id="SVGID_1_" d="M0 0h198v190.3H0z"/></defs><clipPath id="SVGID_2_"><use xlink:href="#SVGID_1_" style="overflow:visible"/></clipPath><g style="clip-path:url(#SVGID_2_)"><path d="M198-45.7H0V131c54.2 2.2 126.7 22.4 198 38.7V-45.7z" style="opacity:.59;fill:#121214;enable-background:new"/><defs><path id="SVGID_3_" d="M198-45.7H0V131c54.2 2.2 126.7 22.4 198 38.7V-45.7z"/></defs><clipPath id="SVGID_4_"><use xlink:href="#SVGID_3_" style="overflow:visible"/></clipPath><path d="M34.6 89c-2 0-4 .2-6 .6-4-9.4-13.3-15.9-24.2-15.9-14.5 0-26.3 11.8-26.3 26.3v1.4h-.5c-13.5 0-24.4 10.9-24.4 24.4s10.9 24.5 24.4 24.5h57c16.9 0 30.6-13.7 30.6-30.6S51.5 89 34.6 89z" style="opacity:.59;clip-path:url(#SVGID_4_);fill:#3a3a3f;enable-background:new"/><defs><path id="SVGID_5_" d="M198-45.7H0V131c54.2 2.2 126.7 22.4 198 38.7V-45.7z"/></defs><clipPath id="SVGID_6_"><use xlink:href="#SVGID_5_" style="overflow:visible"/></clipPath><path d="M231.6 9c-2 0-4 .2-6 .6-4-9.4-13.3-15.9-24.2-15.9-14.5 0-26.3 11.8-26.3 26.3v1.4h-.5c-13.5 0-24.4 10.9-24.4 24.4s10.9 24.4 24.4 24.4h57c16.9 0 30.6-13.7 30.6-30.6S248.5 9 231.6 9z" style="opacity:.59;clip-path:url(#SVGID_6_);fill:#3a3a3f;enable-background:new"/><defs><path id="SVGID_7_" d="M198-45.7H0V131c54.2 2.2 126.7 22.4 198 38.7V-45.7z"/></defs><clipPath id="SVGID_8_"><use xlink:href="#SVGID_7_" style="overflow:visible"/></clipPath><circle cx="30.1" cy="-5.7" r="4" style="clip-path:url(#SVGID_8_);fill:#2189ff"/><defs><path id="SVGID_9_" d="M198-45.7H0V131c54.2 2.2 126.7 22.4 198 38.7V-45.7z"/></defs><clipPath id="SVGID_10_"><use xlink:href="#SVGID_9_" style="overflow:visible"/></clipPath><circle cx="135.6" cy="-18.2" r="1.5" style="clip-path:url(#SVGID_10_);fill:#fff"/><defs><path id="SVGID_11_" d="M198-45.7H0V131c54.2 2.2 126.7 22.4 198 38.7V-45.7z"/></defs><clipPath id="SVGID_12_"><use xlink:href="#SVGID_11_" style="overflow:visible"/></clipPath><circle cx="94.6" cy="107.8" r="1.5" style="opacity:.59;clip-path:url(#SVGID_12_);fill:#3a3a3f;enable-background:new"/><defs><path id="SVGID_13_" d="M198-45.7H0V131c54.2 2.2 126.7 22.4 198 38.7V-45.7z"/></defs><clipPath id="SVGID_14_"><use xlink:href="#SVGID_13_" style="overflow:visible"/></clipPath><g style="clip-path:url(#SVGID_14_)"><path d="m139.5 76.8-18.7 9.4-20.3-5.2-18.7 9.4-20.3-5.2-5.4-51 20.3 5.2L95.1 30l20.3 5.2 18.7-9.4c2.4 8.6 5.4 51 5.4 51z" style="fill:#f5f6f7;stroke:#797bf2;stroke-width:1.5;stroke-linejoin:round;stroke-miterlimit:10"/><g style="opacity:.59"><path class="st10" d="M77.2 49.6c-3.6-3.6-9 .6-11 .9-2.1.2-4.7 1.9-5.4 2s-1.8 3 2.5 3.2c4.2.3 5 .9 5.1 2.3.1 1.4 1.2 4.7 3.4 5.9 2.2 1.1 4.5 3 5.9 2.8 1.4-.1 2.8.4 2.8.4s.1.7-1.3 1.5-2.5 2.4-1 3.6c1.5 1.3 2.9 1.1 3.7 1.7.8.6 0 0 .4 3.5s.5 4.9 1.3 5.4c.8.6 1.5.6 1.5.6s-2.2-1.1-1.7-2.6c.6-1.5 2.3-4.4 3.5-6 1.3-1.5 4.5-3.3 3-5.2-1.6-1.9-.9-2-3-2.5s-4-1.3-5.4-1.9c-1.5-.6-2 1.6-3.6-1-1.7-2.6-.4-3.5 1-3.6s3.9-2.5 4.4-4.7c.4-2.1-.3-2.8-2.5-3.2s-3 4.5-4.7 1.2c-1.8-3.2 3-2.5 1.1-4.3zM79.4 46.6c2.2 1.1 2.8.4 3.7 2.4.9 2 2.1 6.7 3.3 4.5 1.1-2.2.4-2.1 2.4-3.7s.3-4.2 1.5-5.7c1.3-1.5-1.6-2-5.7-.8-4 1.1-5.2 3.3-5.2 3.3zM94.8 52.7c-1.3.8 2.4 2.5 1.1 3.4-1.3.8-2.9-1.1-2 .9s.1.7 2.1.4c2.1-.2 4.2-.4 3.5.3-.6.8-.7.1-2.7 1s-4 1.8-3.8 3.9c.2 2.1 1 2.7 3.7 2.4 2.8-.3 4.2-.4 3.7 1.7-.4 2.1-1 3.6.5 4.9s1.7 2.6 2.4 2.5c.7-.1 2.4-3.7 2.3-5.1s-.8-1.3-.3-2.8c.6-1.5 3.8-3.2 2.4-3.7-1.5-.6 1.3-1.5 1.1-2.2-.1-.7-3-1.8-3-1.8s4.2.3 5 .9c.8.6.9 2 2.4 2.5 1.5.6.8.6 1.3-.8.6-1.5.6-1.5 2.8-.3 2.2 1.1 2.5 3.9 3 2.5.6-1.5-.8-1.3-.3-2.8.6-1.5 3.9-2.5 2.3-4.4-1.6-2 .6-1.5 2-1.6s1.8-2.3 1-3.6.6-.8 2.6-1.7c2-.9 3.2-2.5 2.7-1-.6 1.5 1 2.7 1.5 1.3.6-1.5 1.3-1.5 2.5-3 1.3-1.5-.2-2.1-1.6-2-1.4.1-1.8 2.3-6.2.6-4.4-1.6-2.8-.4-6.4-.7-3.5-.3-.9-1.6-3.9-.8s-3.7 1.6-7.7 3.4c-4 1.8-3.8 3.2-5.4 2-1.5-1.3-.8-1.3-2.2-1.1-1.4.1-.8-1.3-2.7 1s.1 3.1-.9 4.3c-.6.6-2.8-.5-2.8-.5zM120.5 64.6c2.2 1.1 1.4-.1 4.2.3 2.8.4 6.4 1.4 4.2.3s-2.1-.4-4.3-.9c-2.1-.6-4.1.3-4.1.3zM125.6 66.8c-1.4.1-1.4.1-2.6 1.7-1.3 1.5-2.5 3-.3 3.5 2.1.4.7-.1 2.8-.3 2.1-.2 3.5.3 4.3.9s.3-3.5.3-3.5 1.3-.8-.1-1.4c-1.5-.6-1.6-2-2.3-1.8-.7.2-2.1.9-2.1.9z"/></g><path class="st11" d="M81.7 90.7c-3-27.6-5.4-51.1-5.4-51.1M115.6 35.4l5.4 51.1M95.5 29.9l5.4 51.1"/></g></g></svg>