<svg version="1.1" id="Layer_1" xmlns="http://www.w3.org/2000/svg" xmlns:xlink="http://www.w3.org/1999/xlink" x="0" y="0" viewBox="0 0 198 190.3" style="enable-background:new 0 0 198 190.3" xml:space="preserve"><style>.st11{fill:#671cc9}.st12{fill:#814ffc}</style><defs><path id="SVGID_1_" d="M0 0h198v190.3H0z"/></defs><clipPath id="SVGID_2_"><use xlink:href="#SVGID_1_" style="overflow:visible"/></clipPath><path d="M198-45.7H0v222.1c42.7 8.8 84 15 119.5 13.7 23.9-.9 50.6-5.3 78.5-11.5V-45.7z" style="opacity:.75;clip-path:url(#SVGID_2_);fill:#671cc9;enable-background:new"/><defs><path id="SVGID_3_" d="M0 0h198v190.3H0z"/></defs><clipPath id="SVGID_4_"><use xlink:href="#SVGID_3_" style="overflow:visible"/></clipPath><g style="clip-path:url(#SVGID_4_)"><defs><path id="SVGID_5_" d="M0 0h198v190.3H0z"/></defs><clipPath id="SVGID_6_"><use xlink:href="#SVGID_5_" style="overflow:visible"/></clipPath><path d="M198-45.7H0v222.1c42.7 8.8 84 15 119.5 13.7 23.9-.9 50.6-5.3 78.5-11.5V-45.7z" style="clip-path:url(#SVGID_6_);fill:none"/><defs><path id="SVGID_7_" d="M0 0h198v190.3H0z"/></defs><clipPath id="SVGID_8_"><use xlink:href="#SVGID_7_" style="overflow:visible"/></clipPath><path d="M26.4 102.6c-2.2 0-4.4.2-6.5.6C15.5 93 5.4 85.9-6.4 85.9c-15.8 0-28.6 12.8-28.6 28.6v1.6h-.6c-14.7 0-26.6 11.9-26.6 26.6s11.9 26.6 26.6 26.6h62c18.4 0 33.3-14.9 33.3-33.3s-14.9-33.4-33.3-33.4z" style="clip-path:url(#SVGID_8_);fill:#fff"/><defs><path id="SVGID_9_" d="M0 0h198v190.3H0z"/></defs><clipPath id="SVGID_10_"><use xlink:href="#SVGID_9_" style="overflow:visible"/></clipPath><path d="M198-45.7H0v222.1c42.7 8.8 84 15 119.5 13.7 23.9-.9 50.6-5.3 78.5-11.5V-45.7z" style="clip-path:url(#SVGID_10_);fill:none"/><defs><path id="SVGID_11_" d="M0 0h198v190.3H0z"/></defs><clipPath id="SVGID_12_"><use xlink:href="#SVGID_11_" style="overflow:visible"/></clipPath><path d="M239.4-23.4c-2.2 0-4.4.2-6.5.6-4.4-10.2-14.5-17.3-26.3-17.3-15.8 0-28.6 12.8-28.6 28.6v1.6h-.6c-14.7 0-26.6 11.9-26.6 26.6s11.9 26.6 26.6 26.6h62c18.4 0 33.3-14.9 33.3-33.3s-14.9-33.4-33.3-33.4z" style="clip-path:url(#SVGID_12_);fill:#fff"/><defs><path id="SVGID_13_" d="M0 0h198v190.3H0z"/></defs><clipPath id="SVGID_14_"><use xlink:href="#SVGID_13_" style="overflow:visible"/></clipPath><path d="M198-45.7H0v222.1c42.7 8.8 84 15 119.5 13.7 23.9-.9 50.6-5.3 78.5-11.5V-45.7z" style="clip-path:url(#SVGID_14_);fill:none"/><defs><path id="SVGID_15_" d="M0 0h198v190.3H0z"/></defs><clipPath id="SVGID_16_"><use xlink:href="#SVGID_15_" style="overflow:visible"/></clipPath><path d="M160.9 133.3c-1.5 0-2.8.4-4.1 1-.5-8.4-7.5-15-15.9-15-8.8 0-16 7.2-16 16s7.2 16 16 16h20c5 0 9-4 9-9s-4-9-9-9z" style="clip-path:url(#SVGID_16_);fill:#fff"/><defs><path id="SVGID_17_" d="M0 0h198v190.3H0z"/></defs><clipPath id="SVGID_18_"><use xlink:href="#SVGID_17_" style="overflow:visible"/></clipPath><path d="M198-45.7H0v222.1c42.7 8.8 84 15 119.5 13.7 23.9-.9 50.6-5.3 78.5-11.5V-45.7z" style="clip-path:url(#SVGID_18_);fill:none"/><defs><path id="SVGID_19_" d="M0 0h198v190.3H0z"/></defs><clipPath id="SVGID_20_"><use xlink:href="#SVGID_19_" style="overflow:visible"/></clipPath><g style="clip-path:url(#SVGID_20_)"><path d="M68.6 70.4c35.1-5.9 52.6-8.8 60.2-10.1 7.5-1.3 24.9 1.1 26 7.8 1.1 6.8-14.1 9.8-22.5 11.2-8.3 1.4-46.6 6.4-53.1 7.5s-26.4 0-31-6.7c-4.7-6.7-12.5-21.7-12.5-21.7S44.4 55.6 50 61c5.4 5.5 15.4 9.9 18.6 9.4z" style="fill:#fff;stroke:#2189ff;stroke-width:.8542;stroke-linejoin:round;stroke-miterlimit:10"/><path class="st11" d="M37.4 81.4c.2 1.3 12.6.4 14.7 0s3.6-1.7 3.4-3.1c-.2-1.3-2.1-2.2-4.2-1.8-2 .4-14.1 3.5-13.9 4.9z"/><path class="st12" d="M145.5 61.5c-.3.1-8.9 1.5-8.9 1.5l3.1 3.4 12.4-2.1M124.2 68.7c.1 1 1.2 1.7 2.2 1.6s1.7-1.2 1.6-2.2-1.2-1.7-2.2-1.6c-1 .1-1.8 1.1-1.6 2.2zM116.2 70c.1 1 1.2 1.7 2.2 1.6s1.7-1.2 1.6-2.2-1.2-1.7-2.2-1.6c-1.1.2-1.7 1.1-1.6 2.2zM108.2 71.3c.1 1 1.2 1.7 2.2 1.6s1.7-1.2 1.6-2.2-1.2-1.7-2.2-1.6c-1 .2-1.8 1.2-1.6 2.2zM100.2 72.7c.1 1 1.2 1.7 2.2 1.6s1.7-1.2 1.6-2.2-1.2-1.7-2.2-1.6c-1.1.2-1.8 1.1-1.6 2.2zM92.2 74c.1 1 1.2 1.7 2.2 1.6s1.7-1.2 1.6-2.2-1.2-1.7-2.2-1.6c-1 .2-1.8 1.2-1.6 2.2zM84.2 75.4c.1 1 1.2 1.7 2.2 1.6s1.7-1.2 1.6-2.2-1.2-1.7-2.2-1.6c-1.1.1-1.8 1.1-1.6 2.2zM76.2 76.7c.1 1 1.2 1.7 2.2 1.6s1.7-1.2 1.6-2.2-1.2-1.7-2.2-1.6c-1.1.2-1.8 1.1-1.6 2.2zM54.7 84.5c7.9 2.8 19.7 3.2 24.4 2.5 6.5-1.1 44.8-6.1 53.1-7.5s23.7-4.5 22.5-11.2c0-.1-.1-.3-.1-.4L54.7 84.5z"/><path class="st11" d="M84.9 87c.2 1.3 24.7-1.6 28.9-2.4 4.2-.7 8.9-2.5 8.6-3.8-.2-1.3-5.3-1.7-9.5-1-4.1.8-28.3 5.9-28 7.2z"/><path d="M68.6 70.4c35.1-5.9 52.6-8.8 60.2-10.1 7.5-1.3 24.9 1.1 26 7.8 1.1 6.8-14.1 9.8-22.5 11.2-8.3 1.4-46.6 6.4-53.1 7.5s-26.4 0-31-6.7c-4.7-6.7-12.5-21.7-12.5-21.7S44.4 55.6 50 61c5.4 5.5 15.4 9.9 18.6 9.4z" style="fill:none;stroke:#671cc9;stroke-width:1.5;stroke-linejoin:round;stroke-miterlimit:10"/></g><defs><path id="SVGID_21_" d="M0 0h198v190.3H0z"/></defs><clipPath id="SVGID_22_"><use xlink:href="#SVGID_21_" style="overflow:visible"/></clipPath><path d="M198-45.7H0v222.1c42.7 8.8 84 15 119.5 13.7 23.9-.9 50.6-5.3 78.5-11.5V-45.7z" style="clip-path:url(#SVGID_22_);fill:none"/><defs><path id="SVGID_23_" d="M0 0h198v190.3H0z"/></defs><clipPath id="SVGID_24_"><use xlink:href="#SVGID_23_" style="overflow:visible"/></clipPath><circle cx="40.9" cy="-5.7" r="4" style="clip-path:url(#SVGID_24_);fill:#2189ff"/><defs><path id="SVGID_25_" d="M0 0h198v190.3H0z"/></defs><clipPath id="SVGID_26_"><use xlink:href="#SVGID_25_" style="overflow:visible"/></clipPath><path d="M198-45.7H0v222.1c42.7 8.8 84 15 119.5 13.7 23.9-.9 50.6-5.3 78.5-11.5V-45.7z" style="clip-path:url(#SVGID_26_);fill:none"/><defs><path id="SVGID_27_" d="M0 0h198v190.3H0z"/></defs><clipPath id="SVGID_28_"><use xlink:href="#SVGID_27_" style="overflow:visible"/></clipPath><circle cx="168.9" cy="111.3" r="4" style="clip-path:url(#SVGID_28_);fill:#671cc9"/><defs><path id="SVGID_29_" d="M0 0h198v190.3H0z"/></defs><clipPath id="SVGID_30_"><use xlink:href="#SVGID_29_" style="overflow:visible"/></clipPath><path d="M198-45.7H0v222.1c42.7 8.8 84 15 119.5 13.7 23.9-.9 50.6-5.3 78.5-11.5V-45.7z" style="clip-path:url(#SVGID_30_);fill:none"/><defs><path id="SVGID_31_" d="M0 0h198v190.3H0z"/></defs><clipPath id="SVGID_32_"><use xlink:href="#SVGID_31_" style="overflow:visible"/></clipPath><circle cx="146.4" cy="-18.2" r="1.5" style="clip-path:url(#SVGID_32_);fill:#fff"/><defs><path id="SVGID_33_" d="M0 0h198v190.3H0z"/></defs><clipPath id="SVGID_34_"><use xlink:href="#SVGID_33_" style="overflow:visible"/></clipPath><path d="M198-45.7H0v222.1c42.7 8.8 84 15 119.5 13.7 23.9-.9 50.6-5.3 78.5-11.5V-45.7z" style="clip-path:url(#SVGID_34_);fill:none"/><defs><path id="SVGID_35_" d="M0 0h198v190.3H0z"/></defs><clipPath id="SVGID_36_"><use xlink:href="#SVGID_35_" style="overflow:visible"/></clipPath><circle cx="83.4" cy="156.8" r="1.5" style="clip-path:url(#SVGID_36_);fill:#fff"/></g></svg>