<svg version="1.1" id="Layer_1" xmlns="http://www.w3.org/2000/svg" x="0" y="0" viewBox="0 0 110 110" style="enable-background:new 0 0 110 110" xml:space="preserve"><style>.st1{fill:#894ee5}.st12{opacity:.25}.st13{fill:#fff}.st20,.st33{opacity:.45;fill:#fff}.st33{opacity:.25}</style><path d="M77.2 17.8c5.1 4.3 7.2 12 7.9 19 .7 7 0 13.3-.9 20.8-.8 7.5-1.7 16.1-6.3 20.5-4.7 4.3-13.2 4.3-21 3.4-7.8-1-14.9-2.9-19.8-7.1s-7.6-10.8-10.7-17.9c-3.2-7.1-6.8-14.6-5.2-20.7 1.6-6.1 8.5-10.8 15.3-14.6 6.7-3.8 13.3-6.7 20.5-7.7 7.2-1.1 15.1-.1 20.2 4.3z" style="fill:#f2f4f8"/><path class="st1" d="M4.6 16.1c-.3 0-.6.3-.6.6s.3.6.6.6.6-.3.6-.6c0-.4-.2-.6-.6-.6zM9.5 16.1c-.3 0-.6.3-.6.6s.3.6.6.6.6-.3.6-.6c0-.4-.3-.6-.6-.6zM14.4 16.1c-.3 0-.6.3-.6.6s.3.6.6.6.6-.3.6-.6c-.1-.4-.3-.6-.6-.6zM19.2 16.1c-.3 0-.6.3-.6.6s.3.6.6.6.6-.3.6-.6c0-.4-.3-.6-.6-.6zM24.1 16.1c-.3 0-.6.3-.6.6s.3.6.6.6.6-.3.6-.6c0-.4-.3-.6-.6-.6zM28.9 16.1c-.3 0-.6.3-.6.6s.3.6.6.6.6-.3.6-.6c0-.4-.2-.6-.6-.6zM33.8 17.2c.3 0 .6-.3.6-.6s-.3-.6-.6-.6-.6.3-.6.6c0 .4.3.6.6.6zM4.6 20.3c-.3 0-.6.3-.6.6s.3.6.6.6.6-.3.6-.6-.2-.6-.6-.6zM9.5 20.3c-.3 0-.6.3-.6.6s.3.6.6.6.6-.3.6-.6-.3-.6-.6-.6zM14.4 20.3c-.3 0-.6.3-.6.6s.3.6.6.6.6-.3.6-.6c-.1-.3-.3-.6-.6-.6zM19.2 20.3c-.3 0-.6.3-.6.6s.3.6.6.6.6-.3.6-.6-.3-.6-.6-.6zM24.1 20.3c-.3 0-.6.3-.6.6s.3.6.6.6.6-.3.6-.6-.3-.6-.6-.6zM28.9 20.3c-.3 0-.6.3-.6.6s.3.6.6.6.6-.3.6-.6-.2-.6-.6-.6zM33.8 20.3c-.3 0-.6.3-.6.6s.3.6.6.6.6-.3.6-.6-.3-.6-.6-.6zM4.6 24.5c-.3 0-.6.3-.6.6s.3.6.6.6.6-.3.6-.6-.2-.6-.6-.6z"/><circle class="st1" cx="9.5" cy="25.1" r=".6"/><path class="st1" d="M14.4 24.5c-.3 0-.6.3-.6.6s.3.6.6.6.6-.3.6-.6-.3-.6-.6-.6zM19.2 24.5c-.3 0-.6.3-.6.6s.3.6.6.6.6-.3.6-.6-.3-.6-.6-.6zM24.1 24.5c-.3 0-.6.3-.6.6s.3.6.6.6.6-.3.6-.6-.3-.6-.6-.6zM28.9 24.5c-.3 0-.6.3-.6.6s.3.6.6.6.6-.3.6-.6-.2-.6-.6-.6z"/><circle class="st1" cx="33.8" cy="25.1" r=".6"/><path class="st1" d="M4.6 28.8c-.3 0-.6.3-.6.6s.3.6.6.6.6-.3.6-.6c0-.4-.2-.6-.6-.6zM9.5 28.8c-.3 0-.6.3-.6.6s.3.6.6.6.6-.3.6-.6c0-.4-.3-.6-.6-.6zM14.4 28.8c-.3 0-.6.3-.6.6s.3.6.6.6.6-.3.6-.6c-.1-.4-.3-.6-.6-.6zM19.2 28.8c-.3 0-.6.3-.6.6s.3.6.6.6.6-.3.6-.6c0-.4-.3-.6-.6-.6zM24.1 28.8c-.3 0-.6.3-.6.6s.3.6.6.6.6-.3.6-.6c0-.4-.3-.6-.6-.6zM28.9 28.8c-.3 0-.6.3-.6.6s.3.6.6.6.6-.3.6-.6c0-.4-.2-.6-.6-.6zM33.8 28.8c-.3 0-.6.3-.6.6s.3.6.6.6.6-.3.6-.6c0-.4-.3-.6-.6-.6zM4.6 33c-.3 0-.6.3-.6.6s.3.6.6.6.6-.3.6-.6-.2-.6-.6-.6zM9.5 33c-.3 0-.6.3-.6.6s.3.6.6.6.6-.3.6-.6-.3-.6-.6-.6zM14.4 33c-.3 0-.6.3-.6.6s.3.6.6.6.6-.3.6-.6c-.1-.3-.3-.6-.6-.6zM19.2 33c-.3 0-.6.3-.6.6s.3.6.6.6.6-.3.6-.6-.3-.6-.6-.6zM24.1 33c-.3 0-.6.3-.6.6s.3.6.6.6.6-.3.6-.6-.3-.6-.6-.6zM28.9 33c-.3 0-.6.3-.6.6s.3.6.6.6.6-.3.6-.6-.2-.6-.6-.6zM33.8 33c-.3 0-.6.3-.6.6s.3.6.6.6.6-.3.6-.6-.3-.6-.6-.6zM4.6 37.2c-.3 0-.6.3-.6.6s.3.6.6.6.6-.3.6-.6-.2-.6-.6-.6zM9.5 37.2c-.3 0-.6.3-.6.6s.3.6.6.6.6-.3.6-.6-.3-.6-.6-.6zM14.4 37.2c-.3 0-.6.3-.6.6s.3.6.6.6.6-.3.6-.6c-.1-.3-.3-.6-.6-.6zM19.2 37.2c-.3 0-.6.3-.6.6s.3.6.6.6.6-.3.6-.6-.3-.6-.6-.6zM24.1 37.2c-.3 0-.6.3-.6.6s.3.6.6.6.6-.3.6-.6-.3-.6-.6-.6zM28.9 37.2c-.3 0-.6.3-.6.6s.3.6.6.6.6-.3.6-.6-.2-.6-.6-.6zM33.8 37.2c-.3 0-.6.3-.6.6s.3.6.6.6.6-.3.6-.6-.3-.6-.6-.6zM4.6 41.5c-.3 0-.6.3-.6.6s.3.6.6.6.6-.3.6-.6c0-.4-.2-.6-.6-.6z"/><circle class="st1" cx="9.5" cy="42" r=".6"/><path class="st1" d="M14.4 41.5c-.3 0-.6.3-.6.6s.3.6.6.6.6-.3.6-.6c-.1-.4-.3-.6-.6-.6zM19.2 41.5c-.3 0-.6.3-.6.6s.3.6.6.6.6-.3.6-.6c0-.4-.3-.6-.6-.6zM24.1 41.5c-.3 0-.6.3-.6.6s.3.6.6.6.6-.3.6-.6c0-.4-.3-.6-.6-.6zM28.9 41.5c-.3 0-.6.3-.6.6s.3.6.6.6.6-.3.6-.6c0-.4-.2-.6-.6-.6z"/><circle class="st1" cx="33.8" cy="42" r=".6"/><path class="st1" d="M4.6 45.7c-.3 0-.6.3-.6.6s.3.6.6.6.6-.3.6-.6-.2-.6-.6-.6z"/><circle class="st1" cx="9.5" cy="46.3" r=".6"/><path class="st1" d="M14.4 45.7c-.3 0-.6.3-.6.6s.3.6.6.6.6-.3.6-.6c-.1-.3-.3-.6-.6-.6zM19.2 45.7c-.3 0-.6.3-.6.6s.3.6.6.6.6-.3.6-.6-.3-.6-.6-.6zM24.1 45.7c-.3 0-.6.3-.6.6s.3.6.6.6.6-.3.6-.6-.3-.6-.6-.6zM28.9 45.7c-.3 0-.6.3-.6.6s.3.6.6.6.6-.3.6-.6-.2-.6-.6-.6z"/><circle class="st1" cx="33.8" cy="46.3" r=".6"/><path class="st1" d="M66.5 51.6c-.3 0-.6.3-.6.6s.3.6.6.6.6-.3.6-.6-.3-.6-.6-.6zM71.4 51.6c-.3 0-.6.3-.6.6s.3.6.6.6.6-.3.6-.6c-.1-.3-.3-.6-.6-.6zM76.2 51.6c-.3 0-.6.3-.6.6s.3.6.6.6.6-.3.6-.6-.3-.6-.6-.6zM81.1 51.6c-.3 0-.6.3-.6.6s.3.6.6.6.6-.3.6-.6-.3-.6-.6-.6zM85.9 51.6c-.3 0-.6.3-.6.6s.3.6.6.6.6-.3.6-.6-.2-.6-.6-.6zM90.8 51.6c-.3 0-.6.3-.6.6s.3.6.6.6.6-.3.6-.6-.3-.6-.6-.6zM95.7 52.8c.3 0 .6-.3.6-.6s-.3-.6-.6-.6-.6.3-.6.6.2.6.6.6zM66.5 55.8c-.3 0-.6.3-.6.6s.3.6.6.6.6-.3.6-.6-.3-.6-.6-.6zM71.4 55.8c-.3 0-.6.3-.6.6s.3.6.6.6.6-.3.6-.6c-.1-.3-.3-.6-.6-.6zM76.2 55.8c-.3 0-.6.3-.6.6s.3.6.6.6.6-.3.6-.6-.3-.6-.6-.6zM81.1 55.8c-.3 0-.6.3-.6.6s.3.6.6.6.6-.3.6-.6-.3-.6-.6-.6zM85.9 55.8c-.3 0-.6.3-.6.6s.3.6.6.6.6-.3.6-.6-.2-.6-.6-.6zM90.8 55.8c-.3 0-.6.3-.6.6s.3.6.6.6.6-.3.6-.6-.3-.6-.6-.6zM95.7 55.8c-.3 0-.6.3-.6.6s.3.6.6.6.6-.3.6-.6c-.1-.3-.3-.6-.6-.6zM66.5 60.1c-.3 0-.6.3-.6.6s.3.6.6.6.6-.3.6-.6c0-.4-.3-.6-.6-.6zM71.4 60.1c-.3 0-.6.3-.6.6s.3.6.6.6.6-.3.6-.6c-.1-.4-.3-.6-.6-.6zM76.2 60.1c-.3 0-.6.3-.6.6s.3.6.6.6.6-.3.6-.6c0-.4-.3-.6-.6-.6zM81.1 60.1c-.3 0-.6.3-.6.6s.3.6.6.6.6-.3.6-.6c0-.4-.3-.6-.6-.6zM85.9 60.1c-.3 0-.6.3-.6.6s.3.6.6.6.6-.3.6-.6c0-.4-.2-.6-.6-.6zM90.8 60.1c-.3 0-.6.3-.6.6s.3.6.6.6.6-.3.6-.6c0-.4-.3-.6-.6-.6zM95.7 60.1c-.3 0-.6.3-.6.6s.3.6.6.6.6-.3.6-.6c-.1-.4-.3-.6-.6-.6zM66.5 64.3c-.3 0-.6.3-.6.6s.3.6.6.6.6-.3.6-.6-.3-.6-.6-.6zM71.4 64.3c-.3 0-.6.3-.6.6s.3.6.6.6.6-.3.6-.6c-.1-.3-.3-.6-.6-.6zM76.2 64.3c-.3 0-.6.3-.6.6s.3.6.6.6.6-.3.6-.6-.3-.6-.6-.6zM81.1 64.3c-.3 0-.6.3-.6.6s.3.6.6.6.6-.3.6-.6-.3-.6-.6-.6zM85.9 64.3c-.3 0-.6.3-.6.6s.3.6.6.6.6-.3.6-.6-.2-.6-.6-.6zM90.8 64.3c-.3 0-.6.3-.6.6s.3.6.6.6.6-.3.6-.6-.3-.6-.6-.6zM95.7 64.3c-.3 0-.6.3-.6.6s.3.6.6.6.6-.3.6-.6c-.1-.3-.3-.6-.6-.6zM66.5 68.5c-.3 0-.6.3-.6.6s.3.6.6.6.6-.3.6-.6-.3-.6-.6-.6zM71.4 68.5c-.3 0-.6.3-.6.6s.3.6.6.6.6-.3.6-.6c-.1-.3-.3-.6-.6-.6zM76.2 68.5c-.3 0-.6.3-.6.6s.3.6.6.6.6-.3.6-.6-.3-.6-.6-.6zM81.1 68.5c-.3 0-.6.3-.6.6s.3.6.6.6.6-.3.6-.6-.3-.6-.6-.6zM85.9 68.5c-.3 0-.6.3-.6.6s.3.6.6.6.6-.3.6-.6-.2-.6-.6-.6zM90.8 68.5c-.3 0-.6.3-.6.6s.3.6.6.6.6-.3.6-.6-.3-.6-.6-.6zM95.7 68.5c-.3 0-.6.3-.6.6s.3.6.6.6.6-.3.6-.6c-.1-.3-.3-.6-.6-.6zM66.5 72.8c-.3 0-.6.3-.6.6s.3.6.6.6.6-.3.6-.6c0-.4-.3-.6-.6-.6z"/><circle class="st1" cx="71.4" cy="73.4" r=".6"/><path class="st1" d="M76.2 72.8c-.3 0-.6.3-.6.6s.3.6.6.6.6-.3.6-.6c0-.4-.3-.6-.6-.6zM81.1 72.8c-.3 0-.6.3-.6.6s.3.6.6.6.6-.3.6-.6c0-.4-.3-.6-.6-.6zM85.9 72.8c-.3 0-.6.3-.6.6s.3.6.6.6.6-.3.6-.6c0-.4-.2-.6-.6-.6zM90.8 72.8c-.3 0-.6.3-.6.6s.3.6.6.6.6-.3.6-.6c0-.4-.3-.6-.6-.6z"/><circle class="st1" cx="95.7" cy="73.4" r=".6"/><path class="st1" d="M66.5 77c-.3 0-.6.3-.6.6s.3.6.6.6.6-.3.6-.6-.3-.6-.6-.6z"/><circle class="st1" cx="71.4" cy="77.6" r=".6"/><path class="st1" d="M76.2 77c-.3 0-.6.3-.6.6s.3.6.6.6.6-.3.6-.6-.3-.6-.6-.6zM81.1 77c-.3 0-.6.3-.6.6s.3.6.6.6.6-.3.6-.6-.3-.6-.6-.6zM85.9 77c-.3 0-.6.3-.6.6s.3.6.6.6.6-.3.6-.6-.2-.6-.6-.6zM90.8 77c-.3 0-.6.3-.6.6s.3.6.6.6.6-.3.6-.6-.3-.6-.6-.6z"/><circle class="st1" cx="95.7" cy="77.6" r=".6"/><path class="st1" d="M66.5 81.2c-.3 0-.6.3-.6.6s.3.6.6.6.6-.3.6-.6-.3-.6-.6-.6z"/><circle class="st1" cx="71.4" cy="81.8" r=".6"/><path class="st1" d="M76.2 81.2c-.3 0-.6.3-.6.6s.3.6.6.6.6-.3.6-.6-.3-.6-.6-.6zM81.1 81.2c-.3 0-.6.3-.6.6s.3.6.6.6.6-.3.6-.6-.3-.6-.6-.6zM85.9 81.2c-.3 0-.6.3-.6.6s.3.6.6.6.6-.3.6-.6-.2-.6-.6-.6zM90.8 81.2c-.3 0-.6.3-.6.6s.3.6.6.6.6-.3.6-.6-.3-.6-.6-.6z"/><circle class="st1" cx="95.7" cy="81.8" r=".6"/><path class="st1" d="M96.5 48.3c0 9.4-3.2 18-8.6 24.9-.3.4-.6.8-.9 1.1-.8.9-1.6 1.8-2.4 2.6-.9.9-1.9 1.8-2.9 2.6-.9.7-1.9 1.5-2.8 2.1-.3.2-.5.4-.8.5-1.2.7-2.3 1.4-3.6 2.1-.1 0-.1.1-.2.1-.9.4-1.7.8-2.6 1.2-2.3 1-4.6 1.7-7.1 2.2l-1.2.2c-2.1.4-4.3.6-6.6.7H56c-.8 0-1.5 0-2.3-.1-4.4-.2-8.6-1.2-12.5-2.7-2.1-.8-4.2-1.8-6.1-3-.7-.4-1.4-.8-2-1.3-.2-.1-.3-.2-.5-.3-.6-.4-1.2-.9-1.8-1.3L29 78.4c-1.2-1.1-2.3-2.2-3.4-3.4-4.5-5.2-7.8-11.5-9.2-18.5-.6-2.7-.8-5.4-.8-8.3 0-8.1 2.4-15.6 6.5-22C29.2 15.2 41.8 7.8 56 7.8c16.1 0 29.9 9.3 36.5 22.9 2.6 5.3 4 11.3 4 17.6z"/><linearGradient id="SVGID_1_" gradientUnits="userSpaceOnUse" x1="26.546" y1="73.62" x2="59.799" y2="10.388"><stop offset="0" style="stop-color:#fff;stop-opacity:0"/><stop offset="1" style="stop-color:#fff"/></linearGradient><path d="M60 65.9c-3 8.4-16 13.2-26.9 15.8-.2-.1-.3-.2-.5-.3-.6-.4-1.2-.9-1.8-1.3L29 78.6c-1.2-1.1-2.3-2.2-3.4-3.4-4.5-5.2-7.8-11.5-9.2-18.5-.6-2.7-.8-5.4-.8-8.3 0-8.1 2.4-15.6 6.5-22 2.8.1 5.2 2.1 5.6 5.8 3.8-4.1 18-1.2 15.9 10.9C49 40.9 65.4 51 60 65.9z" style="fill:url(#SVGID_1_)"/><linearGradient id="SVGID_2_" gradientUnits="userSpaceOnUse" x1="58.224" y1="86.945" x2="52.94" y2="-18.498"><stop offset="0" style="stop-color:#fff;stop-opacity:0"/><stop offset="1" style="stop-color:#fff"/></linearGradient><path d="M96.5 48.3c0 9.4-3.2 18-8.6 24.9-.3.4-.6.8-.9 1.1-.8.9-1.6 1.8-2.4 2.6-.9.9-1.9 1.8-2.9 2.6-.9.7-1.9 1.5-2.8 2.1-.3.2-.5.4-.8.5-1.2.7-2.3 1.4-3.6 2.1-.1 0-.1.1-.2.1-.9.4-1.7.8-2.6 1.2-2.3 1-4.6 1.7-7.1 2.2l-1.2.2c-2.1.4-4.3.6-6.6.7H56c-.8 0-1.5 0-2.3-.1-4.4-.2-8.6-1.2-12.5-2.7-2.1-.8-4.2-1.8-6.1-3-.9-.5-1.7-1.1-2.5-1.6-.6-.4-1.2-.9-1.8-1.3L29 78.4c-1.2-1.1-2.3-2.2-3.4-3.4-4.5-5.2-7.8-11.5-9.2-18.5 2.6-4.1 8.3-2.5 8.7 3.7 0-11.9 18.3-18.4 22.2-7.1.6-6.9 10.3-7.9 10.9 2 .7-8.3 14-15.3 19.4-6.6-.8-10 8.7-10.4 10.7-5-1.1-5.5.6-10.6 4.2-12.9 2.6 5.4 4 11.4 4 17.7z" style="fill:url(#SVGID_2_)"/><linearGradient id="SVGID_3_" gradientUnits="userSpaceOnUse" x1="33.44" y1="94.696" x2="33.44" y2="62.419"><stop offset="0" style="stop-color:#671cc9"/><stop offset="1" style="stop-color:#6766c9"/></linearGradient><path d="M41.2 49.3V86c-1.9-.8-3.8-1.7-5.6-2.7-.2-.1-.3-.2-.5-.3-.7-.4-1.5-.9-2.2-1.4-.1-.1-.2-.1-.3-.2-.4-.3-.9-.6-1.3-1-.2-.1-.3-.3-.5-.4-.5-.4-1.1-.9-1.6-1.3-.1-.1-.2-.1-.2-.2-.4-.3-.7-.6-1-1l-1.7-1.7c-.2-.2-.4-.5-.7-.7V49.3h15.6z" style="fill:url(#SVGID_3_)"/><linearGradient id="SVGID_4_" gradientUnits="userSpaceOnUse" x1="43.264" y1="62.513" x2="106.209" y2="118.451"><stop offset="0" style="stop-color:#671cc9"/><stop offset="1" style="stop-color:#6766c9"/></linearGradient><path d="M56.9 49.3v39.4h-.8c-.8 0-1.5 0-2.3-.1-4.4-.2-8.6-1.2-12.5-2.7V49.3h15.6z" style="fill:url(#SVGID_4_)"/><linearGradient id="SVGID_5_" gradientUnits="userSpaceOnUse" x1="32.089" y1="43.37" x2="36.999" y2="67.569"><stop offset="0" style="stop-color:#671cc9"/><stop offset="1" style="stop-color:#6766c9"/></linearGradient><path style="fill:url(#SVGID_5_)" d="M25.1 46.3h16.1v4.9H25.1z"/><linearGradient id="SVGID_6_" gradientUnits="userSpaceOnUse" x1="48.227" y1="43.37" x2="53.137" y2="67.569"><stop offset="0" style="stop-color:#671cc9"/><stop offset="1" style="stop-color:#6766c9"/></linearGradient><path style="fill:url(#SVGID_6_)" d="M41.3 46.3h16.1v4.9H41.3z"/><path style="opacity:.15" d="M25.1 50.1h32.3v1.1H25.1z"/><linearGradient id="SVGID_7_" gradientUnits="userSpaceOnUse" x1="48.528" y1="35.717" x2=".458" y2="64.231"><stop offset="0" style="stop-color:#671cc9"/><stop offset="1" style="stop-color:#6766c9"/></linearGradient><path style="fill:url(#SVGID_7_)" d="M29.2 40.9h12.1v5.3H29.2z"/><linearGradient id="SVGID_8_" gradientUnits="userSpaceOnUse" x1="45.515" y1="25.398" x2="48.272" y2="53.827"><stop offset="0" style="stop-color:#671cc9"/><stop offset="1" style="stop-color:#6766c9"/></linearGradient><path style="fill:url(#SVGID_8_)" d="M41.3 40.9h12.1v5.3H41.3z"/><linearGradient id="SVGID_9_" gradientUnits="userSpaceOnUse" x1="42.394" y1="33.688" x2="40.671" y2="43.796"><stop offset="0" style="stop-color:#671cc9"/><stop offset="1" style="stop-color:#6766c9"/></linearGradient><path style="fill:url(#SVGID_9_)" d="M29.8 39.8h23v1.1h-23z"/><g class="st12"><path class="st13" d="M26.2 52.6h14.4v1.7H26.2zM26.2 55.5h14.4v1.7H26.2zM26.2 58.4h14.4v1.7H26.2zM26.2 61.3h14.4V63H26.2zM26.2 64.2h14.4v1.7H26.2zM26.2 67.1h14.4v1.7H26.2zM26.2 70h14.4v1.7H26.2zM26.2 72.9h14.4v1.7H26.2zM40.6 75.8v1.7H28l-1.7-1.7h14.3zM40.6 78.7v1.7h-9.3c-.2-.1-.3-.3-.5-.4-.5-.4-1.1-.9-1.6-1.3h11.4zM40.6 81.6v1.7h-5c-.2-.1-.3-.2-.5-.3-.7-.4-1.5-.9-2.2-1.4h7.7z"/></g><g class="st12"><path class="st13" d="M41.9 52.6h14.4v1.7H41.9zM41.9 55.5h14.4v1.7H41.9zM41.9 58.4h14.4v1.7H41.9zM41.9 61.3h14.4V63H41.9zM41.9 64.2h14.4v1.7H41.9zM41.9 67.1h14.4v1.7H41.9zM41.9 70h14.4v1.7H41.9zM41.9 72.9h14.4v1.7H41.9zM41.9 75.8h14.4v1.7H41.9zM41.9 78.7h14.4v1.7H41.9zM41.9 81.6h14.4v1.7H41.9z"/></g><linearGradient id="SVGID_10_" gradientUnits="userSpaceOnUse" x1="78.424" y1="42.599" x2="72.565" y2="84.761"><stop offset="0" style="stop-color:#ff227d"/><stop offset="1" style="stop-color:#ff967d"/></linearGradient><path d="M78.9 62.7v19.1c-.3.2-.5.4-.8.5-.1.1-.2.1-.3.2-.4.3-.8.5-1.2.7-.2.1-.5.3-.7.4-.1.1-.3.2-.4.2-.3.2-.6.3-.9.5h-4.7V62.7h9z" style="fill:url(#SVGID_10_)"/><linearGradient id="SVGID_11_" gradientUnits="userSpaceOnUse" x1="83.532" y1="58.777" x2="83.176" y2="87.136"><stop offset="0" style="stop-color:#ff227d"/><stop offset="1" style="stop-color:#ff967d"/></linearGradient><path d="M88 62.7v10.6c-.3.4-.6.8-.9 1.1-.1.1-.2.2-.3.4-.3.4-.7.8-1.1 1.2l-.7.7-.4.4-.1.1c-.5.5-.9.9-1.4 1.3-.4.4-.8.7-1.2 1-.1 0-.1.1-.2.1-.2.1-.4.3-.5.4-.2.1-.4.3-.5.4-.6.4-1.2.9-1.8 1.3v-19H88z" style="fill:url(#SVGID_11_)"/><linearGradient id="SVGID_12_" gradientUnits="userSpaceOnUse" x1="75.554" y1="46.097" x2="73.889" y2="65.508"><stop offset="0" style="stop-color:#ff227d"/><stop offset="1" style="stop-color:#ff967d"/></linearGradient><path style="fill:url(#SVGID_12_)" d="M69.5 60.9h9.4v2.9h-9.4z"/><linearGradient id="SVGID_13_" gradientUnits="userSpaceOnUse" x1="83.491" y1="55.85" x2="83.664" y2="70.38"><stop offset="0" style="stop-color:#ff227d"/><stop offset="1" style="stop-color:#ff967d"/></linearGradient><path style="fill:url(#SVGID_13_)" d="M78.9 60.9h9.4v2.9h-9.4z"/><linearGradient id="SVGID_14_" gradientUnits="userSpaceOnUse" x1="75.413" y1="51.935" x2="75.284" y2="67.097"><stop offset="0" style="stop-color:#ff227d"/><stop offset="1" style="stop-color:#ff967d"/></linearGradient><path style="fill:url(#SVGID_14_)" d="M71.8 57.8h7v3.1h-7z"/><linearGradient id="SVGID_15_" gradientUnits="userSpaceOnUse" x1="82.298" y1="48.435" x2="82.427" y2="65.622"><stop offset="0" style="stop-color:#ff227d"/><stop offset="1" style="stop-color:#ff967d"/></linearGradient><path style="fill:url(#SVGID_15_)" d="M78.9 57.8h7v3.1h-7z"/><path class="st20" d="M72 67h-1.2v-2c0-.3.3-.6.6-.6s.6.3.6.6v2zM74 67h-1.2v-2c0-.3.3-.6.6-.6s.6.3.6.6v2zM75.9 67h-1.2v-2c0-.3.3-.6.6-.6s.6.3.6.6v2zM77.8 67h-1.2v-2c0-.3.3-.6.6-.6s.6.3.6.6v2zM72 70.4h-1.2v-2c0-.3.3-.6.6-.6s.6.3.6.6v2zM74 70.4h-1.2v-2c0-.3.3-.6.6-.6s.6.3.6.6v2zM75.9 70.4h-1.2v-2c0-.3.3-.6.6-.6s.6.3.6.6v2zM77.8 70.4h-1.2v-2c0-.3.3-.6.6-.6s.6.3.6.6v2zM72 73.7h-1.2v-2c0-.3.3-.6.6-.6s.6.3.6.6v2zM74 73.7h-1.2v-2c0-.3.3-.6.6-.6s.6.3.6.6v2zM75.9 73.7h-1.2v-2c0-.3.3-.6.6-.6s.6.3.6.6v2zM77.8 73.7h-1.2v-2c0-.3.3-.6.6-.6s.6.3.6.6v2zM72 77.1h-1.2v-2c0-.3.3-.6.6-.6s.6.3.6.6v2zM74 77.1h-1.2v-2c0-.3.3-.6.6-.6s.6.3.6.6v2zM75.9 77.1h-1.2v-2c0-.3.3-.6.6-.6s.6.3.6.6v2zM77.8 77.1h-1.2v-2c0-.3.3-.6.6-.6s.6.3.6.6v2zM72 80.5h-1.2v-2c0-.3.3-.6.6-.6s.6.3.6.6v2zM74 80.5h-1.2v-2c0-.3.3-.6.6-.6s.6.3.6.6v2zM75.9 80.5h-1.2v-2c0-.3.3-.6.6-.6s.6.3.6.6v2zM77.8 80.5h-1.2v-2c0-.3.3-.6.6-.6s.6.3.6.6v2zM72 83.8h-1.2v-2c0-.3.3-.6.6-.6s.6.3.6.6v2zM74 83.8h-1.2v-2c0-.3.3-.6.6-.6s.6.3.6.6v2zM75.9 81.8v1.8c-.1.1-.3.2-.4.2h-.8v-2c0-.3.3-.6.6-.6s.6.3.6.6zM77.8 81.8v.7c-.4.3-.8.5-1.2.7v-1.4c0-.3.3-.6.6-.6s.6.3.6.6zM81.2 67H80v-2c0-.3.3-.6.6-.6s.6.3.6.6v2zM83.1 67h-1.2v-2c0-.3.3-.6.6-.6s.6.3.6.6v2zM85 67h-1.2v-2c0-.3.3-.6.6-.6s.6.3.6.6v2zM86.9 67h-1.2v-2.2c0-.2.2-.4.4-.4h.3c.2 0 .4.2.4.4V67zM81.2 70.4H80v-2c0-.3.3-.6.6-.6s.6.3.6.6v2zM83.1 70.4h-1.2v-2c0-.3.3-.6.6-.6s.6.3.6.6v2zM85 70.4h-1.2v-2c0-.3.3-.6.6-.6s.6.3.6.6v2zM86.9 70.4h-1.2v-2.2c0-.2.2-.4.4-.4h.3c.2 0 .4.2.4.4v2.2zM81.2 73.7H80v-2c0-.3.3-.6.6-.6s.6.3.6.6v2zM83.1 73.7h-1.2v-2c0-.3.3-.6.6-.6s.6.3.6.6v2zM85 73.7h-1.2v-2c0-.3.3-.6.6-.6s.6.3.6.6v2zM86.9 73.7h-1.2v-2.2c0-.2.2-.4.4-.4h.3c.2 0 .4.2.4.4v2.2zM81.2 77.1H80v-2c0-.3.3-.6.6-.6s.6.3.6.6v2zM83.1 77.1h-1.2v-2c0-.3.3-.6.6-.6s.6.3.6.6v2zM85 75.1v1.6l-.4.4-.1.1h-.7v-2c0-.3.3-.6.6-.6.3-.1.6.1.6.5zM86.7 74.7c-.3.4-.7.8-1.1 1.2v-.8c0-.3.3-.6.6-.6s.4.1.5.2zM81.2 78.4V80c-.2.1-.4.3-.5.4H80v-2c0-.3.3-.6.6-.6s.6.3.6.6zM83.1 78.4c-.4.4-.8.7-1.2 1.1v-1.1c0-.3.3-.6.6-.6s.6.3.6.6z"/><linearGradient id="SVGID_16_" gradientUnits="userSpaceOnUse" x1="77.623" y1="38.21" x2="76.417" y2="58.066"><stop offset="0" style="stop-color:#ff696f"/><stop offset="1" style="stop-color:#ffa1c1"/></linearGradient><path style="fill:url(#SVGID_16_)" d="M78.9 40.2v17.6H74l.1-.5.6-2.1.3-1 .3-1 .3-1 .2-1 .3-1.1.3-1 .3-1 .3-1 .2-1.1.3-1 .6-2 .3-1z"/><linearGradient id="SVGID_17_" gradientUnits="userSpaceOnUse" x1="76.201" y1="38.013" x2="83.609" y2="66.743"><stop offset="0" style="stop-color:#ff696f"/><stop offset="1" style="stop-color:#ffa1c1"/></linearGradient><path style="fill:url(#SVGID_17_)" d="M83.7 57.8h-4.8V40.2l.5 1.8.2 1 .6 2 .3 1 .3 1.1.3 1 .2 1 .3 1 .3 1.1.3 1 .3 1 .2 1 .3 1 .3 1.1.3 1z"/><linearGradient id="SVGID_18_" gradientUnits="userSpaceOnUse" x1="78.093" y1="42.469" x2="79.638" y2="42.469"><stop offset="0" style="stop-color:#ff227d"/><stop offset="1" style="stop-color:#ff967d"/></linearGradient><path style="fill:url(#SVGID_18_)" d="M79.6 43h-1.5l.3-1h1z"/><linearGradient id="SVGID_19_" gradientUnits="userSpaceOnUse" x1="77.527" y1="44.514" x2="80.203" y2="44.514"><stop offset="0" style="stop-color:#ff227d"/><stop offset="1" style="stop-color:#ff967d"/></linearGradient><path style="fill:url(#SVGID_19_)" d="M80.2 45h-2.7l.3-1h2.1z"/><linearGradient id="SVGID_20_" gradientUnits="userSpaceOnUse" x1="76.962" y1="46.558" x2="80.769" y2="46.558"><stop offset="0" style="stop-color:#ff227d"/><stop offset="1" style="stop-color:#ff967d"/></linearGradient><path style="fill:url(#SVGID_20_)" d="M80.8 47.1H77l.2-1.1h3.3z"/><linearGradient id="SVGID_21_" gradientUnits="userSpaceOnUse" x1="76.396" y1="48.603" x2="81.334" y2="48.603"><stop offset="0" style="stop-color:#ff227d"/><stop offset="1" style="stop-color:#ff967d"/></linearGradient><path style="fill:url(#SVGID_21_)" d="M81.3 49.1h-4.9l.3-1h4.4z"/><linearGradient id="SVGID_22_" gradientUnits="userSpaceOnUse" x1="75.831" y1="50.648" x2="81.899" y2="50.648"><stop offset="0" style="stop-color:#ff227d"/><stop offset="1" style="stop-color:#ff967d"/></linearGradient><path style="fill:url(#SVGID_22_)" d="M81.9 51.2h-6.1l.3-1.1h5.5z"/><linearGradient id="SVGID_23_" gradientUnits="userSpaceOnUse" x1="75.268" y1="52.691" x2="82.462" y2="52.691"><stop offset="0" style="stop-color:#ff227d"/><stop offset="1" style="stop-color:#ff967d"/></linearGradient><path style="fill:url(#SVGID_23_)" d="M82.5 53.2h-7.2l.3-1h6.6z"/><linearGradient id="SVGID_24_" gradientUnits="userSpaceOnUse" x1="74.703" y1="54.736" x2="83.028" y2="54.736"><stop offset="0" style="stop-color:#ff227d"/><stop offset="1" style="stop-color:#ff967d"/></linearGradient><path style="fill:url(#SVGID_24_)" d="M83 55.2h-8.3l.3-1h7.7z"/><linearGradient id="SVGID_25_" gradientUnits="userSpaceOnUse" x1="74.137" y1="56.781" x2="83.593" y2="56.781"><stop offset="0" style="stop-color:#ff227d"/><stop offset="1" style="stop-color:#ff967d"/></linearGradient><path style="fill:url(#SVGID_25_)" d="M83.6 57.3h-9.5l.3-1h8.9z"/><linearGradient id="SVGID_26_" gradientUnits="userSpaceOnUse" x1="58.243" y1="28.404" x2="59.449" y2="80.609"><stop offset="0" style="stop-color:#c7ffab"/><stop offset="1" style="stop-color:#83cfd3"/></linearGradient><path d="M64.6 87.9V49.2l-1.2 4.3-.7 2.5-.7 2.5-.6 2.5-.7 2.5-.7 2.4-.7 2.5-.7 2.5-.6 2.4-.7 2.5-.4 1.6-.2.9-.1.2-.6 2.2-.7 2.3-.1.2-.7 2.5-.7 2.5-.2.6c.8 0 1.5.1 2.3.1h.8c2.2 0 4.5-.3 6.6-.7l1.3-.3z" style="fill:url(#SVGID_26_)"/><linearGradient id="SVGID_27_" gradientUnits="userSpaceOnUse" x1="70.488" y1="102.009" x2="66.793" y2="44.125"><stop offset="0" style="stop-color:#c7ffab"/><stop offset="1" style="stop-color:#83cfd3"/></linearGradient><path d="M74.3 84.4c-.9.4-1.7.8-2.6 1.2-2.3 1-4.6 1.7-7.1 2.2V49.3l1.2 4.3.7 2.5 1.4 4.9.7 2.5.7 2.5.5 2 .1.5.2.7.5 1.8.2.8.5 1.6.3 1 .4 1.4.3 1.2.3 1.3.4 1.4.3 1.1.4 1.6.2.9.4 1.1z" style="fill:url(#SVGID_27_)"/><path class="st33" d="M66.5 56.1h-3.7l.6-2.5h2.4zM67.8 61h-6.4l.7-2.5h5.1zM69.2 65.9H60l.7-2.4h7.8zM70.6 70.9H58.7l.7-2.5h10.5zM71.9 75.8H57.3l.7-2.5h13.3zM73.3 80.7H56l.6-2.5h16zM74.3 84.4c-.9.4-1.7.8-2.6 1.2H54.6l.7-2.5H74l.3 1.3z"/><path class="st12" d="M63.5 88.1c-2.1.4-4.3.6-6.6.7h-.8c-.8 0-1.5 0-2.3-.1l.2-.6h9.5z"/><path class="st13" d="M50.5 3.8c0 .3.3.6.6.6s.6-.3.6-.6-.3-.6-.6-.6-.6.3-.6.6zM55.4 3.8c0 .3.3.6.6.6s.6-.3.6-.6-.3-.6-.6-.6c-.4 0-.6.3-.6.6zM60.2 3.8c0 .3.3.6.6.6s.6-.3.6-.6-.3-.6-.6-.6-.6.3-.6.6zM65.1 3.8c0 .3.3.6.6.6s.6-.3.6-.6-.3-.6-.6-.6c-.4 0-.6.3-.6.6zM69.9 3.8c0 .3.3.6.6.6s.6-.3.6-.6-.3-.6-.6-.6-.6.3-.6.6zM74.8 3.8c0 .3.3.6.6.6s.6-.3.6-.6-.3-.6-.6-.6-.6.3-.6.6zM79.7 3.8c0 .3.3.6.6.6s.6-.3.6-.6-.3-.6-.6-.6c-.4 0-.6.3-.6.6z"/><circle class="st13" cx="51.1" cy="8" r=".6"/><path class="st13" d="M55.4 8c0 .3.3.6.6.6s.6-.3.6-.6-.3-.6-.6-.6c-.4 0-.6.3-.6.6zM60.2 8c0 .3.3.6.6.6s.6-.3.6-.6-.3-.6-.6-.6-.6.3-.6.6zM65.1 8c0 .3.3.6.6.6s.6-.3.6-.6-.3-.6-.6-.6c-.4 0-.6.3-.6.6z"/><circle class="st13" cx="70.5" cy="8" r=".6"/><circle class="st13" cx="75.4" cy="8" r=".6"/><path class="st13" d="M79.7 8c0 .3.3.6.6.6s.6-.3.6-.6-.3-.6-.6-.6c-.4 0-.6.3-.6.6z"/><circle class="st13" cx="51.1" cy="12.3" r=".6"/><path class="st13" d="M55.4 12.3c0 .3.3.6.6.6s.6-.3.6-.6-.3-.6-.6-.6c-.4 0-.6.2-.6.6zM60.2 12.3c0 .3.3.6.6.6s.6-.3.6-.6-.3-.6-.6-.6-.6.2-.6.6zM65.1 12.3c0 .3.3.6.6.6s.6-.3.6-.6-.3-.6-.6-.6c-.4 0-.6.2-.6.6z"/><circle class="st13" cx="70.5" cy="12.3" r=".6"/><circle class="st13" cx="75.4" cy="12.3" r=".6"/><path class="st13" d="M79.7 12.3c0 .3.3.6.6.6s.6-.3.6-.6-.3-.6-.6-.6c-.4 0-.6.2-.6.6zM50.5 16.5c0 .3.3.6.6.6s.6-.3.6-.6-.3-.6-.6-.6-.6.3-.6.6zM55.4 16.5c0 .3.3.6.6.6s.6-.3.6-.6-.3-.6-.6-.6c-.4 0-.6.3-.6.6zM60.2 16.5c0 .3.3.6.6.6s.6-.3.6-.6-.3-.6-.6-.6-.6.3-.6.6zM65.1 16.5c0 .3.3.6.6.6s.6-.3.6-.6-.3-.6-.6-.6c-.4 0-.6.3-.6.6zM69.9 16.5c0 .3.3.6.6.6s.6-.3.6-.6-.3-.6-.6-.6-.6.3-.6.6zM74.8 16.5c0 .3.3.6.6.6s.6-.3.6-.6-.3-.6-.6-.6-.6.3-.6.6zM79.7 16.5c0 .3.3.6.6.6s.6-.3.6-.6-.3-.6-.6-.6c-.4 0-.6.3-.6.6zM50.5 20.7c0 .3.3.6.6.6s.6-.3.6-.6-.3-.6-.6-.6c-.3.1-.6.3-.6.6zM55.4 20.7c0 .3.3.6.6.6s.6-.3.6-.6-.3-.6-.6-.6c-.4.1-.6.3-.6.6zM60.2 20.7c0 .3.3.6.6.6s.6-.3.6-.6-.3-.6-.6-.6c-.3.1-.6.3-.6.6zM65.1 20.7c0 .3.3.6.6.6s.6-.3.6-.6-.3-.6-.6-.6c-.4.1-.6.3-.6.6zM69.9 20.7c0 .3.3.6.6.6s.6-.3.6-.6-.3-.6-.6-.6c-.3.1-.6.3-.6.6zM74.8 20.7c0 .3.3.6.6.6s.6-.3.6-.6-.3-.6-.6-.6c-.3.1-.6.3-.6.6zM79.7 20.7c0 .3.3.6.6.6s.6-.3.6-.6-.3-.6-.6-.6c-.4.1-.6.3-.6.6zM50.5 25c0 .3.3.6.6.6s.6-.3.6-.6-.3-.6-.6-.6-.6.2-.6.6zM55.4 25c0 .3.3.6.6.6s.6-.3.6-.6-.3-.6-.6-.6c-.4 0-.6.2-.6.6zM60.2 25c0 .3.3.6.6.6s.6-.3.6-.6-.3-.6-.6-.6-.6.2-.6.6zM65.1 25c0 .3.3.6.6.6s.6-.3.6-.6-.3-.6-.6-.6c-.4 0-.6.2-.6.6zM69.9 25c0 .3.3.6.6.6s.6-.3.6-.6-.3-.6-.6-.6-.6.2-.6.6zM74.8 25c0 .3.3.6.6.6s.6-.3.6-.6-.3-.6-.6-.6-.6.2-.6.6zM79.7 25c0 .3.3.6.6.6s.6-.3.6-.6-.3-.6-.6-.6c-.4 0-.6.2-.6.6zM50.5 29.2c0 .3.3.6.6.6s.6-.3.6-.6-.3-.6-.6-.6-.6.3-.6.6zM55.4 29.2c0 .3.3.6.6.6s.6-.3.6-.6-.3-.6-.6-.6c-.4 0-.6.3-.6.6zM60.2 29.2c0 .3.3.6.6.6s.6-.3.6-.6-.3-.6-.6-.6-.6.3-.6.6zM65.1 29.2c0 .3.3.6.6.6s.6-.3.6-.6-.3-.6-.6-.6c-.4 0-.6.3-.6.6zM69.9 29.2c0 .3.3.6.6.6s.6-.3.6-.6-.3-.6-.6-.6-.6.3-.6.6zM74.8 29.2c0 .3.3.6.6.6s.6-.3.6-.6-.3-.6-.6-.6-.6.3-.6.6zM79.7 29.2c0 .3.3.6.6.6s.6-.3.6-.6-.3-.6-.6-.6c-.4 0-.6.3-.6.6z"/><circle class="st13" cx="51.1" cy="33.4" r=".6"/><path class="st13" d="M55.4 33.4c0 .3.3.6.6.6s.6-.3.6-.6-.3-.6-.6-.6c-.4.1-.6.3-.6.6zM60.2 33.4c0 .3.3.6.6.6s.6-.3.6-.6-.3-.6-.6-.6c-.3.1-.6.3-.6.6zM65.1 33.4c0 .3.3.6.6.6s.6-.3.6-.6-.3-.6-.6-.6c-.4.1-.6.3-.6.6z"/><circle class="st13" cx="70.5" cy="33.4" r=".6"/><circle class="st13" cx="75.4" cy="33.4" r=".6"/><path class="st13" d="M79.7 33.4c0 .3.3.6.6.6s.6-.3.6-.6-.3-.6-.6-.6c-.4.1-.6.3-.6.6z"/><linearGradient id="SVGID_28_" gradientUnits="userSpaceOnUse" x1="21.654" y1="12.762" x2="22.802" y2="52.964"><stop offset="0" style="stop-color:#ff227d"/><stop offset="1" style="stop-color:#ff967d"/></linearGradient><path d="M22 16c-5 0-8.8 3.2-8.1 9.8.7 6.6 6.1 8.1 8.1 12 2-3.9 7.4-5.5 8.1-12C30.8 19.2 27 16 22 16zm0 12.1c-1.5 0-2.7-1.2-2.7-2.7 0-1.5 1.2-2.7 2.7-2.7 1.5 0 2.7 1.2 2.7 2.7 0 1.4-1.2 2.7-2.7 2.7z" style="fill:url(#SVGID_28_)"/></svg>