<svg version="1.1" id="Layer_1" xmlns="http://www.w3.org/2000/svg" x="0" y="0" viewBox="0 0 110 110" style="enable-background:new 0 0 110 110" xml:space="preserve"><style>.st0{fill:#797bf2}.st2{opacity:.59;fill:#3a3a3f;enable-background:new}.st11{opacity:.25}.st12{fill:#fff}.st19,.st32{opacity:.45;fill:#fff;enable-background:new}.st32{opacity:.25}</style><path class="st0" d="M4.6 16.1c-.3 0-.6.3-.6.6s.3.6.6.6.6-.3.6-.6c0-.4-.2-.6-.6-.6zM9.5 16.1c-.3 0-.6.3-.6.6s.3.6.6.6.6-.3.6-.6c0-.4-.3-.6-.6-.6zM14.4 16.1c-.3 0-.6.3-.6.6s.3.6.6.6.6-.3.6-.6c-.1-.4-.3-.6-.6-.6zM19.2 16.1c-.3 0-.6.3-.6.6s.3.6.6.6.6-.3.6-.6c0-.4-.3-.6-.6-.6zM24.1 16.1c-.3 0-.6.3-.6.6s.3.6.6.6.6-.3.6-.6c0-.4-.3-.6-.6-.6zM28.9 16.1c-.3 0-.6.3-.6.6s.3.6.6.6.6-.3.6-.6c0-.4-.2-.6-.6-.6zM33.8 17.2c.3 0 .6-.3.6-.6s-.3-.6-.6-.6-.6.3-.6.6c0 .4.3.6.6.6zM4.6 20.3c-.3 0-.6.3-.6.6s.3.6.6.6.6-.3.6-.6-.2-.6-.6-.6zM9.5 20.3c-.3 0-.6.3-.6.6s.3.6.6.6.6-.3.6-.6-.3-.6-.6-.6zM14.4 20.3c-.3 0-.6.3-.6.6s.3.6.6.6.6-.3.6-.6c-.1-.3-.3-.6-.6-.6zM19.2 20.3c-.3 0-.6.3-.6.6s.3.6.6.6.6-.3.6-.6-.3-.6-.6-.6zM24.1 20.3c-.3 0-.6.3-.6.6s.3.6.6.6.6-.3.6-.6-.3-.6-.6-.6zM28.9 20.3c-.3 0-.6.3-.6.6s.3.6.6.6.6-.3.6-.6-.2-.6-.6-.6zM33.8 20.3c-.3 0-.6.3-.6.6s.3.6.6.6.6-.3.6-.6-.3-.6-.6-.6zM4.6 24.5c-.3 0-.6.3-.6.6s.3.6.6.6.6-.3.6-.6-.2-.6-.6-.6z"/><circle class="st0" cx="9.5" cy="25.1" r=".6"/><path class="st0" d="M14.4 24.5c-.3 0-.6.3-.6.6s.3.6.6.6.6-.3.6-.6-.3-.6-.6-.6zM19.2 24.5c-.3 0-.6.3-.6.6s.3.6.6.6.6-.3.6-.6-.3-.6-.6-.6zM24.1 24.5c-.3 0-.6.3-.6.6s.3.6.6.6.6-.3.6-.6-.3-.6-.6-.6zM28.9 24.5c-.3 0-.6.3-.6.6s.3.6.6.6.6-.3.6-.6-.2-.6-.6-.6z"/><circle class="st0" cx="33.8" cy="25.1" r=".6"/><path class="st0" d="M4.6 28.8c-.3 0-.6.3-.6.6s.3.6.6.6.6-.3.6-.6c0-.4-.2-.6-.6-.6zM9.5 28.8c-.3 0-.6.3-.6.6s.3.6.6.6.6-.3.6-.6c0-.4-.3-.6-.6-.6zM14.4 28.8c-.3 0-.6.3-.6.6s.3.6.6.6.6-.3.6-.6c-.1-.4-.3-.6-.6-.6zM19.2 28.8c-.3 0-.6.3-.6.6s.3.6.6.6.6-.3.6-.6c0-.4-.3-.6-.6-.6zM24.1 28.8c-.3 0-.6.3-.6.6s.3.6.6.6.6-.3.6-.6c0-.4-.3-.6-.6-.6zM28.9 28.8c-.3 0-.6.3-.6.6s.3.6.6.6.6-.3.6-.6c0-.4-.2-.6-.6-.6zM33.8 28.8c-.3 0-.6.3-.6.6s.3.6.6.6.6-.3.6-.6c0-.4-.3-.6-.6-.6zM4.6 33c-.3 0-.6.3-.6.6s.3.6.6.6.6-.3.6-.6-.2-.6-.6-.6zM9.5 33c-.3 0-.6.3-.6.6s.3.6.6.6.6-.3.6-.6-.3-.6-.6-.6zM14.4 33c-.3 0-.6.3-.6.6s.3.6.6.6.6-.3.6-.6c-.1-.3-.3-.6-.6-.6zM19.2 33c-.3 0-.6.3-.6.6s.3.6.6.6.6-.3.6-.6-.3-.6-.6-.6zM24.1 33c-.3 0-.6.3-.6.6s.3.6.6.6.6-.3.6-.6-.3-.6-.6-.6zM28.9 33c-.3 0-.6.3-.6.6s.3.6.6.6.6-.3.6-.6-.2-.6-.6-.6zM33.8 33c-.3 0-.6.3-.6.6s.3.6.6.6.6-.3.6-.6-.3-.6-.6-.6zM4.6 37.2c-.3 0-.6.3-.6.6s.3.6.6.6.6-.3.6-.6-.2-.6-.6-.6zM9.5 37.2c-.3 0-.6.3-.6.6s.3.6.6.6.6-.3.6-.6-.3-.6-.6-.6zM14.4 37.2c-.3 0-.6.3-.6.6s.3.6.6.6.6-.3.6-.6c-.1-.3-.3-.6-.6-.6zM19.2 37.2c-.3 0-.6.3-.6.6s.3.6.6.6.6-.3.6-.6-.3-.6-.6-.6zM24.1 37.2c-.3 0-.6.3-.6.6s.3.6.6.6.6-.3.6-.6-.3-.6-.6-.6zM28.9 37.2c-.3 0-.6.3-.6.6s.3.6.6.6.6-.3.6-.6-.2-.6-.6-.6zM33.8 37.2c-.3 0-.6.3-.6.6s.3.6.6.6.6-.3.6-.6-.3-.6-.6-.6zM4.6 41.5c-.3 0-.6.3-.6.6s.3.6.6.6.6-.3.6-.6c0-.4-.2-.6-.6-.6z"/><circle class="st0" cx="9.5" cy="42" r=".6"/><path class="st0" d="M14.4 41.5c-.3 0-.6.3-.6.6s.3.6.6.6.6-.3.6-.6c-.1-.4-.3-.6-.6-.6zM19.2 41.5c-.3 0-.6.3-.6.6s.3.6.6.6.6-.3.6-.6c0-.4-.3-.6-.6-.6zM24.1 41.5c-.3 0-.6.3-.6.6s.3.6.6.6.6-.3.6-.6c0-.4-.3-.6-.6-.6zM28.9 41.5c-.3 0-.6.3-.6.6s.3.6.6.6.6-.3.6-.6c0-.4-.2-.6-.6-.6z"/><circle class="st0" cx="33.8" cy="42" r=".6"/><path class="st0" d="M4.6 45.7c-.3 0-.6.3-.6.6s.3.6.6.6.6-.3.6-.6-.2-.6-.6-.6z"/><circle class="st0" cx="9.5" cy="46.3" r=".6"/><path class="st0" d="M14.4 45.7c-.3 0-.6.3-.6.6s.3.6.6.6.6-.3.6-.6c-.1-.3-.3-.6-.6-.6zM19.2 45.7c-.3 0-.6.3-.6.6s.3.6.6.6.6-.3.6-.6-.3-.6-.6-.6zM24.1 45.7c-.3 0-.6.3-.6.6s.3.6.6.6.6-.3.6-.6-.3-.6-.6-.6zM28.9 45.7c-.3 0-.6.3-.6.6s.3.6.6.6.6-.3.6-.6-.2-.6-.6-.6z"/><circle class="st0" cx="33.8" cy="46.3" r=".6"/><path class="st0" d="M66.5 51.6c-.3 0-.6.3-.6.6s.3.6.6.6.6-.3.6-.6-.3-.6-.6-.6zM71.4 51.6c-.3 0-.6.3-.6.6s.3.6.6.6.6-.3.6-.6c-.1-.3-.3-.6-.6-.6zM76.2 51.6c-.3 0-.6.3-.6.6s.3.6.6.6.6-.3.6-.6-.3-.6-.6-.6zM81.1 51.6c-.3 0-.6.3-.6.6s.3.6.6.6.6-.3.6-.6-.3-.6-.6-.6zM85.9 51.6c-.3 0-.6.3-.6.6s.3.6.6.6.6-.3.6-.6-.2-.6-.6-.6zM90.8 51.6c-.3 0-.6.3-.6.6s.3.6.6.6.6-.3.6-.6-.3-.6-.6-.6zM95.7 52.8c.3 0 .6-.3.6-.6s-.3-.6-.6-.6-.6.3-.6.6.2.6.6.6zM66.5 55.8c-.3 0-.6.3-.6.6s.3.6.6.6.6-.3.6-.6-.3-.6-.6-.6zM71.4 55.8c-.3 0-.6.3-.6.6s.3.6.6.6.6-.3.6-.6c-.1-.3-.3-.6-.6-.6zM76.2 55.8c-.3 0-.6.3-.6.6s.3.6.6.6.6-.3.6-.6-.3-.6-.6-.6zM81.1 55.8c-.3 0-.6.3-.6.6s.3.6.6.6.6-.3.6-.6-.3-.6-.6-.6zM85.9 55.8c-.3 0-.6.3-.6.6s.3.6.6.6.6-.3.6-.6-.2-.6-.6-.6zM90.8 55.8c-.3 0-.6.3-.6.6s.3.6.6.6.6-.3.6-.6-.3-.6-.6-.6zM95.7 55.8c-.3 0-.6.3-.6.6s.3.6.6.6.6-.3.6-.6c-.1-.3-.3-.6-.6-.6zM66.5 60.1c-.3 0-.6.3-.6.6s.3.6.6.6.6-.3.6-.6c0-.4-.3-.6-.6-.6zM71.4 60.1c-.3 0-.6.3-.6.6s.3.6.6.6.6-.3.6-.6c-.1-.4-.3-.6-.6-.6zM76.2 60.1c-.3 0-.6.3-.6.6s.3.6.6.6.6-.3.6-.6c0-.4-.3-.6-.6-.6zM81.1 60.1c-.3 0-.6.3-.6.6s.3.6.6.6.6-.3.6-.6c0-.4-.3-.6-.6-.6zM85.9 60.1c-.3 0-.6.3-.6.6s.3.6.6.6.6-.3.6-.6c0-.4-.2-.6-.6-.6zM90.8 60.1c-.3 0-.6.3-.6.6s.3.6.6.6.6-.3.6-.6c0-.4-.3-.6-.6-.6zM95.7 60.1c-.3 0-.6.3-.6.6s.3.6.6.6.6-.3.6-.6c-.1-.4-.3-.6-.6-.6zM66.5 64.3c-.3 0-.6.3-.6.6s.3.6.6.6.6-.3.6-.6-.3-.6-.6-.6zM71.4 64.3c-.3 0-.6.3-.6.6s.3.6.6.6.6-.3.6-.6c-.1-.3-.3-.6-.6-.6zM76.2 64.3c-.3 0-.6.3-.6.6s.3.6.6.6.6-.3.6-.6-.3-.6-.6-.6zM81.1 64.3c-.3 0-.6.3-.6.6s.3.6.6.6.6-.3.6-.6-.3-.6-.6-.6zM85.9 64.3c-.3 0-.6.3-.6.6s.3.6.6.6.6-.3.6-.6-.2-.6-.6-.6zM90.8 64.3c-.3 0-.6.3-.6.6s.3.6.6.6.6-.3.6-.6-.3-.6-.6-.6zM95.7 64.3c-.3 0-.6.3-.6.6s.3.6.6.6.6-.3.6-.6c-.1-.3-.3-.6-.6-.6zM66.5 68.5c-.3 0-.6.3-.6.6s.3.6.6.6.6-.3.6-.6-.3-.6-.6-.6zM71.4 68.5c-.3 0-.6.3-.6.6s.3.6.6.6.6-.3.6-.6c-.1-.3-.3-.6-.6-.6zM76.2 68.5c-.3 0-.6.3-.6.6s.3.6.6.6.6-.3.6-.6-.3-.6-.6-.6zM81.1 68.5c-.3 0-.6.3-.6.6s.3.6.6.6.6-.3.6-.6-.3-.6-.6-.6zM85.9 68.5c-.3 0-.6.3-.6.6s.3.6.6.6.6-.3.6-.6-.2-.6-.6-.6zM90.8 68.5c-.3 0-.6.3-.6.6s.3.6.6.6.6-.3.6-.6-.3-.6-.6-.6zM95.7 68.5c-.3 0-.6.3-.6.6s.3.6.6.6.6-.3.6-.6c-.1-.3-.3-.6-.6-.6zM66.5 72.8c-.3 0-.6.3-.6.6s.3.6.6.6.6-.3.6-.6c0-.4-.3-.6-.6-.6z"/><circle class="st0" cx="71.4" cy="73.4" r=".6"/><path class="st0" d="M76.2 72.8c-.3 0-.6.3-.6.6s.3.6.6.6.6-.3.6-.6c0-.4-.3-.6-.6-.6zM81.1 72.8c-.3 0-.6.3-.6.6s.3.6.6.6.6-.3.6-.6c0-.4-.3-.6-.6-.6zM85.9 72.8c-.3 0-.6.3-.6.6s.3.6.6.6.6-.3.6-.6c0-.4-.2-.6-.6-.6zM90.8 72.8c-.3 0-.6.3-.6.6s.3.6.6.6.6-.3.6-.6c0-.4-.3-.6-.6-.6z"/><circle class="st0" cx="95.7" cy="73.4" r=".6"/><path class="st0" d="M66.5 77c-.3 0-.6.3-.6.6s.3.6.6.6.6-.3.6-.6-.3-.6-.6-.6z"/><circle class="st0" cx="71.4" cy="77.6" r=".6"/><path class="st0" d="M76.2 77c-.3 0-.6.3-.6.6s.3.6.6.6.6-.3.6-.6-.3-.6-.6-.6zM81.1 77c-.3 0-.6.3-.6.6s.3.6.6.6.6-.3.6-.6-.3-.6-.6-.6zM85.9 77c-.3 0-.6.3-.6.6s.3.6.6.6.6-.3.6-.6-.2-.6-.6-.6zM90.8 77c-.3 0-.6.3-.6.6s.3.6.6.6.6-.3.6-.6-.3-.6-.6-.6z"/><circle class="st0" cx="95.7" cy="77.6" r=".6"/><path class="st0" d="M66.5 81.2c-.3 0-.6.3-.6.6s.3.6.6.6.6-.3.6-.6-.3-.6-.6-.6z"/><circle class="st0" cx="71.4" cy="81.8" r=".6"/><path class="st0" d="M76.2 81.2c-.3 0-.6.3-.6.6s.3.6.6.6.6-.3.6-.6-.3-.6-.6-.6zM81.1 81.2c-.3 0-.6.3-.6.6s.3.6.6.6.6-.3.6-.6-.3-.6-.6-.6zM85.9 81.2c-.3 0-.6.3-.6.6s.3.6.6.6.6-.3.6-.6-.2-.6-.6-.6zM90.8 81.2c-.3 0-.6.3-.6.6s.3.6.6.6.6-.3.6-.6-.3-.6-.6-.6z"/><circle class="st0" cx="95.7" cy="81.8" r=".6"/><path d="M96.5 48.3c0 9.4-3.2 18-8.6 24.9-.3.4-.6.8-.9 1.1-.8.9-1.6 1.8-2.4 2.6-.9.9-1.9 1.8-2.9 2.6-.9.7-1.9 1.5-2.8 2.1-.3.2-.5.4-.8.5-1.2.7-2.3 1.4-3.6 2.1-.1 0-.1.1-.2.1-.9.4-1.7.8-2.6 1.2-2.3 1-4.6 1.7-7.1 2.2l-1.2.2c-2.1.4-4.3.6-6.6.7H56c-.8 0-1.5 0-2.3-.1-4.4-.2-8.6-1.2-12.5-2.7-2.1-.8-4.2-1.8-6.1-3-.7-.4-1.4-.8-2-1.3-.2-.1-.3-.2-.5-.3-.6-.4-1.2-.9-1.8-1.3L29 78.4c-1.2-1.1-2.3-2.2-3.4-3.4-4.5-5.2-7.8-11.5-9.2-18.5-.6-2.7-.8-5.4-.8-8.3 0-8.1 2.4-15.6 6.5-22C29.2 15.2 41.8 7.8 56 7.8c16.1 0 29.9 9.3 36.5 22.9 2.6 5.3 4 11.3 4 17.6z" style="opacity:.59;fill:#121214;enable-background:new"/><path class="st2" d="M60 65.9c-3 8.4-16 13.2-26.9 15.8-.2-.1-.3-.2-.5-.3-.6-.4-1.2-.9-1.8-1.3L29 78.6c-1.2-1.1-2.3-2.2-3.4-3.4-4.5-5.2-7.8-11.5-9.2-18.5-.6-2.7-.8-5.4-.8-8.3 0-8.1 2.4-15.6 6.5-22 2.8.1 5.2 2.1 5.6 5.8 3.8-4.1 18-1.2 15.9 10.9C49 40.9 65.4 51 60 65.9z"/><path class="st2" d="M96.5 48.3c0 9.4-3.2 18-8.6 24.9-.3.4-.6.8-.9 1.1-.8.9-1.6 1.8-2.4 2.6-.9.9-1.9 1.8-2.9 2.6-.9.7-1.9 1.5-2.8 2.1-.3.2-.5.4-.8.5-1.2.7-2.3 1.4-3.6 2.1-.1 0-.1.1-.2.1-.9.4-1.7.8-2.6 1.2-2.3 1-4.6 1.7-7.1 2.2l-1.2.2c-2.1.4-4.3.6-6.6.7H56c-.8 0-1.5 0-2.3-.1-4.4-.2-8.6-1.2-12.5-2.7-2.1-.8-4.2-1.8-6.1-3-.9-.5-1.7-1.1-2.5-1.6-.6-.4-1.2-.9-1.8-1.3L29 78.4c-1.2-1.1-2.3-2.2-3.4-3.4-4.5-5.2-7.8-11.5-9.2-18.5 2.6-4.1 8.3-2.5 8.7 3.7 0-11.9 18.3-18.4 22.2-7.1.6-6.9 10.3-7.9 10.9 2 .7-8.3 14-15.3 19.4-6.6-.8-10 8.7-10.4 10.7-5-1.1-5.5.6-10.6 4.2-12.9 2.6 5.4 4 11.4 4 17.7z"/><linearGradient id="SVGID_1_" gradientUnits="userSpaceOnUse" x1="33.4" y1="17.304" x2="33.4" y2="49.581" gradientTransform="matrix(1 0 0 -1 0 112)"><stop offset="0" style="stop-color:#797bf2"/><stop offset="1" style="stop-color:#7961f2"/></linearGradient><path d="M41.2 49.3V86c-1.9-.8-3.8-1.7-5.6-2.7-.2-.1-.3-.2-.5-.3-.7-.4-1.5-.9-2.2-1.4-.1-.1-.2-.1-.3-.2-.4-.3-.9-.6-1.3-1-.2-.1-.3-.3-.5-.4-.5-.4-1.1-.9-1.6-1.3-.1-.1-.2-.1-.2-.2-.4-.3-.7-.6-1-1l-1.7-1.7c-.2-.2-.4-.5-.7-.7V49.3h15.6z" style="fill:url(#SVGID_1_)"/><linearGradient id="SVGID_2_" gradientUnits="userSpaceOnUse" x1="43.313" y1="49.542" x2="106.258" y2="-6.396" gradientTransform="matrix(1 0 0 -1 0 112)"><stop offset="0" style="stop-color:#797bf2"/><stop offset="1" style="stop-color:#7961f2"/></linearGradient><path d="M56.9 49.3v39.4h-.8c-.8 0-1.5 0-2.3-.1-4.4-.2-8.6-1.2-12.5-2.7V49.3h15.6z" style="fill:url(#SVGID_2_)"/><linearGradient id="SVGID_3_" gradientUnits="userSpaceOnUse" x1="32.059" y1="68.624" x2="36.969" y2="44.425" gradientTransform="matrix(1 0 0 -1 0 112)"><stop offset="0" style="stop-color:#797bf2"/><stop offset="1" style="stop-color:#7961f2"/></linearGradient><path style="fill:url(#SVGID_3_)" d="M25.1 46.3h16.1v4.9H25.1z"/><linearGradient id="SVGID_4_" gradientUnits="userSpaceOnUse" x1="48.257" y1="68.636" x2="53.167" y2="44.437" gradientTransform="matrix(1 0 0 -1 0 112)"><stop offset="0" style="stop-color:#797bf2"/><stop offset="1" style="stop-color:#7961f2"/></linearGradient><path style="fill:url(#SVGID_4_)" d="M41.3 46.3h16.1v4.9H41.3z"/><path style="opacity:.15;enable-background:new" d="M25.1 50.1h32.3v1.1H25.1z"/><linearGradient id="SVGID_5_" gradientUnits="userSpaceOnUse" x1="48.509" y1="76.315" x2=".439" y2="47.8" gradientTransform="matrix(1 0 0 -1 0 112)"><stop offset="0" style="stop-color:#797bf2"/><stop offset="1" style="stop-color:#7961f2"/></linearGradient><path style="fill:url(#SVGID_5_)" d="M29.2 40.9h12.1v5.3H29.2z"/><linearGradient id="SVGID_6_" gradientUnits="userSpaceOnUse" x1="45.589" y1="86.609" x2="48.346" y2="58.181" gradientTransform="matrix(1 0 0 -1 0 112)"><stop offset="0" style="stop-color:#797bf2"/><stop offset="1" style="stop-color:#7961f2"/></linearGradient><path style="fill:url(#SVGID_6_)" d="M41.3 40.9h12.1v5.3H41.3z"/><linearGradient id="SVGID_7_" gradientUnits="userSpaceOnUse" x1="42.434" y1="78.305" x2="40.711" y2="68.197" gradientTransform="matrix(1 0 0 -1 0 112)"><stop offset="0" style="stop-color:#797bf2"/><stop offset="1" style="stop-color:#7961f2"/></linearGradient><path style="fill:url(#SVGID_7_)" d="M29.8 39.8h23v1.1h-23z"/><g class="st11"><path class="st12" d="M26.2 52.6h14.4v1.7H26.2zM26.2 55.5h14.4v1.7H26.2zM26.2 58.4h14.4v1.7H26.2zM26.2 61.3h14.4V63H26.2zM26.2 64.2h14.4v1.7H26.2zM26.2 67.1h14.4v1.7H26.2zM26.2 70h14.4v1.7H26.2zM26.2 72.9h14.4v1.7H26.2zM40.6 75.8v1.7H28l-1.7-1.7h14.3zM40.6 78.7v1.7h-9.3c-.2-.1-.3-.3-.5-.4-.5-.4-1.1-.9-1.6-1.3h11.4zM40.6 81.6v1.7h-5c-.2-.1-.3-.2-.5-.3-.7-.4-1.5-.9-2.2-1.4h7.7z"/></g><g class="st11"><path class="st12" d="M41.9 52.6h14.4v1.7H41.9zM41.9 55.5h14.4v1.7H41.9zM41.9 58.4h14.4v1.7H41.9zM41.9 61.3h14.4V63H41.9zM41.9 64.2h14.4v1.7H41.9zM41.9 67.1h14.4v1.7H41.9zM41.9 70h14.4v1.7H41.9zM41.9 72.9h14.4v1.7H41.9zM41.9 75.8h14.4v1.7H41.9zM41.9 78.7h14.4v1.7H41.9zM41.9 81.6h14.4v1.7H41.9z"/></g><linearGradient id="SVGID_8_" gradientUnits="userSpaceOnUse" x1="78.519" y1="69.387" x2="72.659" y2="27.226" gradientTransform="matrix(1 0 0 -1 0 112)"><stop offset="0" style="stop-color:#ff227d"/><stop offset="1" style="stop-color:#ff967d"/></linearGradient><path d="M78.9 62.7v19.1c-.3.2-.5.4-.8.5-.1.1-.2.1-.3.2-.4.3-.8.5-1.2.7-.2.1-.5.3-.7.4-.1.1-.3.2-.4.2-.3.2-.6.3-.9.5h-4.7V62.7h9z" style="fill:url(#SVGID_8_)"/><linearGradient id="SVGID_9_" gradientUnits="userSpaceOnUse" x1="83.566" y1="53.222" x2="83.21" y2="24.863" gradientTransform="matrix(1 0 0 -1 0 112)"><stop offset="0" style="stop-color:#ff227d"/><stop offset="1" style="stop-color:#ff967d"/></linearGradient><path d="M88 62.7v10.6c-.3.4-.6.8-.9 1.1-.1.1-.2.2-.3.4-.3.4-.7.8-1.1 1.2l-.7.7-.4.4-.1.1c-.5.5-.9.9-1.4 1.3-.4.4-.8.7-1.2 1-.1 0-.1.1-.2.1-.2.1-.4.3-.5.4-.2.1-.4.3-.5.4-.6.4-1.2.9-1.8 1.3v-19H88z" style="fill:url(#SVGID_9_)"/><linearGradient id="SVGID_10_" gradientUnits="userSpaceOnUse" x1="75.594" y1="65.9" x2="73.929" y2="46.488" gradientTransform="matrix(1 0 0 -1 0 112)"><stop offset="0" style="stop-color:#ff227d"/><stop offset="1" style="stop-color:#ff967d"/></linearGradient><path style="fill:url(#SVGID_10_)" d="M69.5 60.9h9.4v2.9h-9.4z"/><linearGradient id="SVGID_11_" gradientUnits="userSpaceOnUse" x1="83.523" y1="56.151" x2="83.695" y2="41.62" gradientTransform="matrix(1 0 0 -1 0 112)"><stop offset="0" style="stop-color:#ff227d"/><stop offset="1" style="stop-color:#ff967d"/></linearGradient><path style="fill:url(#SVGID_11_)" d="M78.9 60.9h9.4v2.9h-9.4z"/><linearGradient id="SVGID_12_" gradientUnits="userSpaceOnUse" x1="75.363" y1="60.065" x2="75.234" y2="44.903" gradientTransform="matrix(1 0 0 -1 0 112)"><stop offset="0" style="stop-color:#ff227d"/><stop offset="1" style="stop-color:#ff967d"/></linearGradient><path style="fill:url(#SVGID_12_)" d="M71.8 57.8h7v3.1h-7z"/><linearGradient id="SVGID_13_" gradientUnits="userSpaceOnUse" x1="82.318" y1="63.565" x2="82.447" y2="46.378" gradientTransform="matrix(1 0 0 -1 0 112)"><stop offset="0" style="stop-color:#ff227d"/><stop offset="1" style="stop-color:#ff967d"/></linearGradient><path style="fill:url(#SVGID_13_)" d="M78.9 57.8h7v3.1h-7z"/><path class="st19" d="M72 67h-1.2v-2c0-.3.3-.6.6-.6s.6.3.6.6v2zM74 67h-1.2v-2c0-.3.3-.6.6-.6s.6.3.6.6v2zM75.9 67h-1.2v-2c0-.3.3-.6.6-.6s.6.3.6.6v2zM77.8 67h-1.2v-2c0-.3.3-.6.6-.6s.6.3.6.6v2zM72 70.4h-1.2v-2c0-.3.3-.6.6-.6s.6.3.6.6v2zM74 70.4h-1.2v-2c0-.3.3-.6.6-.6s.6.3.6.6v2zM75.9 70.4h-1.2v-2c0-.3.3-.6.6-.6s.6.3.6.6v2zM77.8 70.4h-1.2v-2c0-.3.3-.6.6-.6s.6.3.6.6v2zM72 73.7h-1.2v-2c0-.3.3-.6.6-.6s.6.3.6.6v2zM74 73.7h-1.2v-2c0-.3.3-.6.6-.6s.6.3.6.6v2zM75.9 73.7h-1.2v-2c0-.3.3-.6.6-.6s.6.3.6.6v2zM77.8 73.7h-1.2v-2c0-.3.3-.6.6-.6s.6.3.6.6v2zM72 77.1h-1.2v-2c0-.3.3-.6.6-.6s.6.3.6.6v2zM74 77.1h-1.2v-2c0-.3.3-.6.6-.6s.6.3.6.6v2zM75.9 77.1h-1.2v-2c0-.3.3-.6.6-.6s.6.3.6.6v2zM77.8 77.1h-1.2v-2c0-.3.3-.6.6-.6s.6.3.6.6v2zM72 80.5h-1.2v-2c0-.3.3-.6.6-.6s.6.3.6.6v2zM74 80.5h-1.2v-2c0-.3.3-.6.6-.6s.6.3.6.6v2zM75.9 80.5h-1.2v-2c0-.3.3-.6.6-.6s.6.3.6.6v2zM77.8 80.5h-1.2v-2c0-.3.3-.6.6-.6s.6.3.6.6v2zM72 83.8h-1.2v-2c0-.3.3-.6.6-.6s.6.3.6.6v2zM74 83.8h-1.2v-2c0-.3.3-.6.6-.6s.6.3.6.6v2zM75.9 81.8v1.8c-.1.1-.3.2-.4.2h-.8v-2c0-.3.3-.6.6-.6s.6.3.6.6zM77.8 81.8v.7c-.4.3-.8.5-1.2.7v-1.4c0-.3.3-.6.6-.6s.6.3.6.6zM81.2 67H80v-2c0-.3.3-.6.6-.6s.6.3.6.6v2zM83.1 67h-1.2v-2c0-.3.3-.6.6-.6s.6.3.6.6v2zM85 67h-1.2v-2c0-.3.3-.6.6-.6s.6.3.6.6v2zM86.9 67h-1.2v-2.2c0-.2.2-.4.4-.4h.3c.2 0 .4.2.4.4l.1 2.2zM81.2 70.4H80v-2c0-.3.3-.6.6-.6s.6.3.6.6v2zM83.1 70.4h-1.2v-2c0-.3.3-.6.6-.6s.6.3.6.6v2zM85 70.4h-1.2v-2c0-.3.3-.6.6-.6s.6.3.6.6v2zM86.9 70.4h-1.2v-2.2c0-.2.2-.4.4-.4h.3c.2 0 .4.2.4.4l.1 2.2zM81.2 73.7H80v-2c0-.3.3-.6.6-.6s.6.3.6.6v2zM83.1 73.7h-1.2v-2c0-.3.3-.6.6-.6s.6.3.6.6v2zM85 73.7h-1.2v-2c0-.3.3-.6.6-.6s.6.3.6.6v2zM86.9 73.7h-1.2v-2.2c0-.2.2-.4.4-.4h.3c.2 0 .4.2.4.4l.1 2.2zM81.2 77.1H80v-2c0-.3.3-.6.6-.6s.6.3.6.6v2zM83.1 77.1h-1.2v-2c0-.3.3-.6.6-.6s.6.3.6.6v2zM85 75.1v1.6l-.4.4-.1.1h-.7v-2c0-.3.3-.6.6-.6.3-.1.6.1.6.5zM86.7 74.7c-.3.4-.7.8-1.1 1.2v-.8c0-.3.3-.6.6-.6s.4.1.5.2zM81.2 78.4V80c-.2.1-.4.3-.5.4H80v-2c0-.3.3-.6.6-.6s.6.3.6.6zM83.1 78.4c-.4.4-.8.7-1.2 1.1v-1.1c0-.3.3-.6.6-.6s.6.3.6.6z"/><linearGradient id="SVGID_14_" gradientUnits="userSpaceOnUse" x1="77.64" y1="73.789" x2="76.434" y2="53.932" gradientTransform="matrix(1 0 0 -1 0 112)"><stop offset="0" style="stop-color:#ff696f"/><stop offset="1" style="stop-color:#ffa1c1"/></linearGradient><path style="fill:url(#SVGID_14_)" d="M78.9 40.2v17.6H74l.1-.5.6-2.1.3-1 .3-1 .3-1 .2-1 .3-1.1.3-1 .3-1 .3-1 .2-1.1.3-1 .6-2 .3-1z"/><linearGradient id="SVGID_15_" gradientUnits="userSpaceOnUse" x1="76.211" y1="73.99" x2="83.62" y2="45.26" gradientTransform="matrix(1 0 0 -1 0 112)"><stop offset="0" style="stop-color:#ff696f"/><stop offset="1" style="stop-color:#ffa1c1"/></linearGradient><path style="fill:url(#SVGID_15_)" d="M83.7 57.8h-4.8V40.2l.5 1.8.2 1 .6 2 .3 1 .3 1.1.3 1 .2 1 .3 1 .3 1.1.3 1 .3 1 .2 1 .3 1 .3 1.1.3 1z"/><linearGradient id="SVGID_16_" gradientUnits="userSpaceOnUse" x1="78.093" y1="69.5" x2="79.638" y2="69.5" gradientTransform="matrix(1 0 0 -1 0 112)"><stop offset="0" style="stop-color:#ff227d"/><stop offset="1" style="stop-color:#ff967d"/></linearGradient><path style="fill:url(#SVGID_16_)" d="M79.6 43h-1.5l.3-1h1z"/><linearGradient id="SVGID_17_" gradientUnits="userSpaceOnUse" x1="77.527" y1="67.5" x2="80.203" y2="67.5" gradientTransform="matrix(1 0 0 -1 0 112)"><stop offset="0" style="stop-color:#ff227d"/><stop offset="1" style="stop-color:#ff967d"/></linearGradient><path style="fill:url(#SVGID_17_)" d="M80.2 45h-2.7l.3-1h2.1z"/><linearGradient id="SVGID_18_" gradientUnits="userSpaceOnUse" x1="76.962" y1="65.45" x2="80.769" y2="65.45" gradientTransform="matrix(1 0 0 -1 0 112)"><stop offset="0" style="stop-color:#ff227d"/><stop offset="1" style="stop-color:#ff967d"/></linearGradient><path style="fill:url(#SVGID_18_)" d="M80.8 47.1H77l.2-1.1h3.3z"/><linearGradient id="SVGID_19_" gradientUnits="userSpaceOnUse" x1="76.4" y1="63.4" x2="81.338" y2="63.4" gradientTransform="matrix(1 0 0 -1 0 112)"><stop offset="0" style="stop-color:#ff227d"/><stop offset="1" style="stop-color:#ff967d"/></linearGradient><path style="fill:url(#SVGID_19_)" d="M81.3 49.1h-4.9l.3-1h4.4z"/><linearGradient id="SVGID_20_" gradientUnits="userSpaceOnUse" x1="75.831" y1="61.35" x2="81.899" y2="61.35" gradientTransform="matrix(1 0 0 -1 0 112)"><stop offset="0" style="stop-color:#ff227d"/><stop offset="1" style="stop-color:#ff967d"/></linearGradient><path style="fill:url(#SVGID_20_)" d="M81.9 51.2h-6.1l.3-1.1h5.5z"/><linearGradient id="SVGID_21_" gradientUnits="userSpaceOnUse" x1="75.268" y1="59.3" x2="82.468" y2="59.3" gradientTransform="matrix(1 0 0 -1 0 112)"><stop offset="0" style="stop-color:#ff227d"/><stop offset="1" style="stop-color:#ff967d"/></linearGradient><path style="fill:url(#SVGID_21_)" d="M82.5 53.2h-7.2l.3-1h6.6z"/><linearGradient id="SVGID_22_" gradientUnits="userSpaceOnUse" x1="74.7" y1="57.3" x2="83.025" y2="57.3" gradientTransform="matrix(1 0 0 -1 0 112)"><stop offset="0" style="stop-color:#ff227d"/><stop offset="1" style="stop-color:#ff967d"/></linearGradient><path style="fill:url(#SVGID_22_)" d="M83 55.2h-8.3l.3-1h7.7z"/><linearGradient id="SVGID_23_" gradientUnits="userSpaceOnUse" x1="74.137" y1="55.2" x2="83.593" y2="55.2" gradientTransform="matrix(1 0 0 -1 0 112)"><stop offset="0" style="stop-color:#ff227d"/><stop offset="1" style="stop-color:#ff967d"/></linearGradient><path style="fill:url(#SVGID_23_)" d="M83.6 57.3h-9.5l.3-1h8.9z"/><linearGradient id="SVGID_24_" gradientUnits="userSpaceOnUse" x1="58.162" y1="83.594" x2="59.368" y2="31.389" gradientTransform="matrix(1 0 0 -1 0 112)"><stop offset="0" style="stop-color:#c7ffab"/><stop offset="1" style="stop-color:#83cfd3"/></linearGradient><path d="M64.6 87.9V49.2l-1.2 4.3-.7 2.5-.7 2.5-.6 2.5-.7 2.5-.7 2.4-.7 2.5-.7 2.5-.6 2.4-.7 2.5-.4 1.6-.2.9-.1.2-.6 2.2-.7 2.3-.1.2-.7 2.5-.7 2.5-.2.6c.8 0 1.5.1 2.3.1h.8c2.2 0 4.5-.3 6.6-.7l1.3-.3z" style="fill:url(#SVGID_24_)"/><linearGradient id="SVGID_25_" gradientUnits="userSpaceOnUse" x1="70.466" y1="9.989" x2="66.771" y2="67.874" gradientTransform="matrix(1 0 0 -1 0 112)"><stop offset="0" style="stop-color:#c7ffab"/><stop offset="1" style="stop-color:#83cfd3"/></linearGradient><path d="M74.3 84.4c-.9.4-1.7.8-2.6 1.2-2.3 1-4.6 1.7-7.1 2.2V49.3l1.2 4.3.7 2.5 1.4 4.9.7 2.5.7 2.5.5 2 .1.5.2.7.5 1.8.2.8.5 1.6.3 1 .4 1.4.3 1.2.3 1.3.4 1.4.3 1.1.4 1.6.2.9.4 1.1z" style="fill:url(#SVGID_25_)"/><path class="st32" d="M66.5 56.1h-3.7l.6-2.5h2.4zM67.8 61h-6.4l.7-2.5h5.1zM69.2 65.9H60l.7-2.4h7.8zM70.6 70.9H58.7l.7-2.5h10.5zM71.9 75.8H57.3l.7-2.5h13.3zM73.3 80.7H56l.6-2.5h16zM74.3 84.4c-.9.4-1.7.8-2.6 1.2H54.6l.7-2.5H74l.3 1.3z"/><path d="M63.5 88.1c-2.1.4-4.3.6-6.6.7h-.8c-.8 0-1.5 0-2.3-.1l.2-.6h9.5z" style="opacity:.25;enable-background:new"/><linearGradient id="SVGID_26_" gradientUnits="userSpaceOnUse" x1="21.671" y1="99.239" x2="22.819" y2="59.037" gradientTransform="matrix(1 0 0 -1 0 112)"><stop offset="0" style="stop-color:#ff227d"/><stop offset="1" style="stop-color:#ff967d"/></linearGradient><path d="M22 16c-5 0-8.8 3.2-8.1 9.8s6.1 8.1 8.1 12c2-3.9 7.4-5.5 8.1-12C30.8 19.2 27 16 22 16zm0 12.1c-1.5 0-2.7-1.2-2.7-2.7s1.2-2.7 2.7-2.7 2.7 1.2 2.7 2.7c0 1.4-1.2 2.7-2.7 2.7z" style="fill:url(#SVGID_26_)"/></svg>