<svg version="1.1" id="Layer_1" xmlns="http://www.w3.org/2000/svg" x="0" y="0" viewBox="0 0 110 110" style="enable-background:new 0 0 110 110" xml:space="preserve"><style>.st0{fill:#894ee5}.st5{fill:#fff}.st24,.st5,.st8{opacity:.15}.st24{fill:none;stroke:#000;stroke-linecap:round;stroke-linejoin:round;stroke-miterlimit:10}.st26{fill:#fff}</style><path class="st0" d="M14.8 7.1c-.3 0-.6.3-.6.6s.3.6.6.6.6-.3.6-.6-.2-.6-.6-.6z"/><circle class="st0" cx="19.7" cy="7.7" r=".6"/><path class="st0" d="M24.5 7.1c-.3 0-.6.3-.6.6s.3.6.6.6.6-.3.6-.6-.3-.6-.6-.6zM29.3 7.1c-.3 0-.6.3-.6.6s.3.6.6.6.6-.3.6-.6-.2-.6-.6-.6zM34.2 7.1c-.3 0-.6.3-.6.6s.3.6.6.6.6-.3.6-.6-.3-.6-.6-.6zM39 7.1c-.3 0-.6.3-.6.6s.3.6.6.6.6-.3.6-.6-.3-.6-.6-.6zM43.8 8.3c.3 0 .6-.3.6-.6s-.3-.6-.6-.6-.6.3-.6.6c.1.3.3.6.6.6zM14.8 11.3c-.3 0-.6.3-.6.6s.3.6.6.6.6-.3.6-.6-.2-.6-.6-.6zM19.7 11.3c-.3 0-.6.3-.6.6s.3.6.6.6.6-.3.6-.6-.3-.6-.6-.6zM24.5 11.3c-.3 0-.6.3-.6.6s.3.6.6.6.6-.3.6-.6-.3-.6-.6-.6zM29.3 11.3c-.3 0-.6.3-.6.6s.3.6.6.6.6-.3.6-.6-.2-.6-.6-.6zM34.2 11.3c-.3 0-.6.3-.6.6s.3.6.6.6.6-.3.6-.6-.3-.6-.6-.6zM39 11.3c-.3 0-.6.3-.6.6s.3.6.6.6.6-.3.6-.6-.3-.6-.6-.6zM43.8 11.3c-.3 0-.6.3-.6.6s.3.6.6.6.6-.3.6-.6-.2-.6-.6-.6zM14.8 15.5c-.3 0-.6.3-.6.6s.3.6.6.6.6-.3.6-.6-.2-.6-.6-.6zM19.7 15.5c-.3 0-.6.3-.6.6s.3.6.6.6.6-.3.6-.6-.3-.6-.6-.6zM24.5 15.5c-.3 0-.6.3-.6.6s.3.6.6.6.6-.3.6-.6-.3-.6-.6-.6zM29.3 15.5c-.3 0-.6.3-.6.6s.3.6.6.6.6-.3.6-.6-.2-.6-.6-.6zM34.2 15.5c-.3 0-.6.3-.6.6s.3.6.6.6.6-.3.6-.6-.3-.6-.6-.6zM39 15.5c-.3 0-.6.3-.6.6s.3.6.6.6.6-.3.6-.6-.3-.6-.6-.6zM43.8 15.5c-.3 0-.6.3-.6.6s.3.6.6.6.6-.3.6-.6-.2-.6-.6-.6zM14.8 19.7c-.3 0-.6.3-.6.6s.3.6.6.6.6-.3.6-.6-.2-.6-.6-.6zM19.7 19.7c-.3 0-.6.3-.6.6s.3.6.6.6.6-.3.6-.6-.3-.6-.6-.6zM24.5 19.7c-.3 0-.6.3-.6.6s.3.6.6.6.6-.3.6-.6-.3-.6-.6-.6zM29.3 19.7c-.3 0-.6.3-.6.6s.3.6.6.6.6-.3.6-.6-.2-.6-.6-.6zM34.2 19.7c-.3 0-.6.3-.6.6s.3.6.6.6.6-.3.6-.6-.3-.6-.6-.6zM39 19.7c-.3 0-.6.3-.6.6s.3.6.6.6.6-.3.6-.6-.3-.6-.6-.6zM43.8 19.7c-.3 0-.6.3-.6.6s.3.6.6.6.6-.3.6-.6-.2-.6-.6-.6zM14.8 23.9c-.3 0-.6.3-.6.6s.3.6.6.6.6-.3.6-.6-.2-.6-.6-.6zM19.7 23.9c-.3 0-.6.3-.6.6s.3.6.6.6.6-.3.6-.6-.3-.6-.6-.6zM24.5 23.9c-.3 0-.6.3-.6.6s.3.6.6.6.6-.3.6-.6-.3-.6-.6-.6zM29.3 23.9c-.3 0-.6.3-.6.6s.3.6.6.6.6-.3.6-.6-.2-.6-.6-.6zM34.2 23.9c-.3 0-.6.3-.6.6s.3.6.6.6.6-.3.6-.6-.3-.6-.6-.6zM39 23.9c-.3 0-.6.3-.6.6s.3.6.6.6.6-.3.6-.6-.3-.6-.6-.6zM43.8 23.9c-.3 0-.6.3-.6.6s.3.6.6.6.6-.3.6-.6-.2-.6-.6-.6zM14.8 28.2c-.3 0-.6.3-.6.6s.3.6.6.6.6-.3.6-.6c0-.4-.2-.6-.6-.6z"/><circle class="st0" cx="19.7" cy="28.7" r=".6"/><path class="st0" d="M24.5 28.2c-.3 0-.6.3-.6.6s.3.6.6.6.6-.3.6-.6c0-.4-.3-.6-.6-.6zM29.3 28.2c-.3 0-.6.3-.6.6s.3.6.6.6.6-.3.6-.6c0-.4-.2-.6-.6-.6zM34.2 28.2c-.3 0-.6.3-.6.6s.3.6.6.6.6-.3.6-.6c0-.4-.3-.6-.6-.6zM39 28.2c-.3 0-.6.3-.6.6s.3.6.6.6.6-.3.6-.6c0-.4-.3-.6-.6-.6zM43.8 28.2c-.3 0-.6.3-.6.6s.3.6.6.6.6-.3.6-.6c0-.4-.2-.6-.6-.6zM14.8 32.4c-.3 0-.6.3-.6.6s.3.6.6.6.6-.3.6-.6-.2-.6-.6-.6z"/><circle class="st0" cx="19.7" cy="33" r=".6"/><path class="st0" d="M24.5 32.4c-.3 0-.6.3-.6.6s.3.6.6.6.6-.3.6-.6-.3-.6-.6-.6zM29.3 32.4c-.3 0-.6.3-.6.6s.3.6.6.6.6-.3.6-.6-.2-.6-.6-.6zM34.2 32.4c-.3 0-.6.3-.6.6s.3.6.6.6.6-.3.6-.6-.3-.6-.6-.6zM39 32.4c-.3 0-.6.3-.6.6s.3.6.6.6.6-.3.6-.6-.3-.6-.6-.6zM43.8 32.4c-.3 0-.6.3-.6.6s.3.6.6.6.6-.3.6-.6-.2-.6-.6-.6zM14.8 36.6c-.3 0-.6.3-.6.6s.3.6.6.6.6-.3.6-.6-.2-.6-.6-.6z"/><circle class="st0" cx="19.7" cy="37.2" r=".6"/><path class="st0" d="M24.5 36.6c-.3 0-.6.3-.6.6s.3.6.6.6.6-.3.6-.6-.3-.6-.6-.6zM29.3 36.6c-.3 0-.6.3-.6.6s.3.6.6.6.6-.3.6-.6-.2-.6-.6-.6zM34.2 36.6c-.3 0-.6.3-.6.6s.3.6.6.6.6-.3.6-.6-.3-.6-.6-.6zM39 36.6c-.3 0-.6.3-.6.6s.3.6.6.6.6-.3.6-.6-.3-.6-.6-.6zM43.8 36.6c-.3 0-.6.3-.6.6s.3.6.6.6.6-.3.6-.6-.2-.6-.6-.6zM70.5 58.8c-.3 0-.6.3-.6.6s.3.6.6.6.6-.3.6-.6c0-.4-.3-.6-.6-.6zM75.3 58.8c-.3 0-.6.3-.6.6s.3.6.6.6.6-.3.6-.6c0-.4-.2-.6-.6-.6zM80.2 58.8c-.3 0-.6.3-.6.6s.3.6.6.6.6-.3.6-.6c0-.4-.3-.6-.6-.6zM85 58.8c-.3 0-.6.3-.6.6s.3.6.6.6.6-.3.6-.6c0-.4-.3-.6-.6-.6zM89.8 58.8c-.3 0-.6.3-.6.6s.3.6.6.6.6-.3.6-.6c0-.4-.2-.6-.6-.6zM94.7 58.8c-.3 0-.6.3-.6.6s.3.6.6.6.6-.3.6-.6c0-.4-.3-.6-.6-.6zM99.5 59.9c.3 0 .6-.3.6-.6s-.3-.6-.6-.6-.6.3-.6.6.3.6.6.6zM70.5 63c-.3 0-.6.3-.6.6s.3.6.6.6.6-.3.6-.6c0-.4-.3-.6-.6-.6zM75.3 63c-.3 0-.6.3-.6.6s.3.6.6.6.6-.3.6-.6c0-.4-.2-.6-.6-.6zM80.2 63c-.3 0-.6.3-.6.6s.3.6.6.6.6-.3.6-.6c0-.4-.3-.6-.6-.6zM85 63c-.3 0-.6.3-.6.6s.3.6.6.6.6-.3.6-.6c0-.4-.3-.6-.6-.6zM89.8 63c-.3 0-.6.3-.6.6s.3.6.6.6.6-.3.6-.6c0-.4-.2-.6-.6-.6zM94.7 63c-.3 0-.6.3-.6.6s.3.6.6.6.6-.3.6-.6c0-.4-.3-.6-.6-.6zM99.5 63c-.3 0-.6.3-.6.6s.3.6.6.6.6-.3.6-.6c0-.4-.3-.6-.6-.6zM70.5 67.2c-.3 0-.6.3-.6.6s.3.6.6.6.6-.3.6-.6c0-.4-.3-.6-.6-.6zM75.3 67.2c-.3 0-.6.3-.6.6s.3.6.6.6.6-.3.6-.6c0-.4-.2-.6-.6-.6zM80.2 67.2c-.3 0-.6.3-.6.6s.3.6.6.6.6-.3.6-.6c0-.4-.3-.6-.6-.6zM85 67.2c-.3 0-.6.3-.6.6s.3.6.6.6.6-.3.6-.6c0-.4-.3-.6-.6-.6zM89.8 67.2c-.3 0-.6.3-.6.6s.3.6.6.6.6-.3.6-.6c0-.4-.2-.6-.6-.6zM94.7 67.2c-.3 0-.6.3-.6.6s.3.6.6.6.6-.3.6-.6c0-.4-.3-.6-.6-.6zM99.5 67.2c-.3 0-.6.3-.6.6s.3.6.6.6.6-.3.6-.6c0-.4-.3-.6-.6-.6zM70.5 71.4c-.3 0-.6.3-.6.6s.3.6.6.6.6-.3.6-.6c0-.4-.3-.6-.6-.6zM75.3 71.4c-.3 0-.6.3-.6.6s.3.6.6.6.6-.3.6-.6c0-.4-.2-.6-.6-.6zM80.2 71.4c-.3 0-.6.3-.6.6s.3.6.6.6.6-.3.6-.6c0-.4-.3-.6-.6-.6zM85 71.4c-.3 0-.6.3-.6.6s.3.6.6.6.6-.3.6-.6c0-.4-.3-.6-.6-.6zM89.8 71.4c-.3 0-.6.3-.6.6s.3.6.6.6.6-.3.6-.6c0-.4-.2-.6-.6-.6zM94.7 71.4c-.3 0-.6.3-.6.6s.3.6.6.6.6-.3.6-.6c0-.4-.3-.6-.6-.6zM99.5 71.4c-.3 0-.6.3-.6.6s.3.6.6.6.6-.3.6-.6c0-.4-.3-.6-.6-.6zM70.5 75.6c-.3 0-.6.3-.6.6s.3.6.6.6.6-.3.6-.6-.3-.6-.6-.6zM75.3 75.6c-.3 0-.6.3-.6.6s.3.6.6.6.6-.3.6-.6-.2-.6-.6-.6zM80.2 75.6c-.3 0-.6.3-.6.6s.3.6.6.6.6-.3.6-.6-.3-.6-.6-.6zM85 75.6c-.3 0-.6.3-.6.6s.3.6.6.6.6-.3.6-.6-.3-.6-.6-.6zM89.8 75.6c-.3 0-.6.3-.6.6s.3.6.6.6.6-.3.6-.6-.2-.6-.6-.6zM94.7 75.6c-.3 0-.6.3-.6.6s.3.6.6.6.6-.3.6-.6-.3-.6-.6-.6zM99.5 75.6c-.3 0-.6.3-.6.6s.3.6.6.6.6-.3.6-.6-.3-.6-.6-.6zM70.5 79.8c-.3 0-.6.3-.6.6s.3.6.6.6.6-.3.6-.6-.3-.6-.6-.6zM75.3 79.8c-.3 0-.6.3-.6.6s.3.6.6.6.6-.3.6-.6-.2-.6-.6-.6zM80.2 79.8c-.3 0-.6.3-.6.6s.3.6.6.6.6-.3.6-.6-.3-.6-.6-.6zM85 79.8c-.3 0-.6.3-.6.6s.3.6.6.6.6-.3.6-.6-.3-.6-.6-.6zM89.8 79.8c-.3 0-.6.3-.6.6s.3.6.6.6.6-.3.6-.6-.2-.6-.6-.6zM94.7 79.8c-.3 0-.6.3-.6.6s.3.6.6.6.6-.3.6-.6-.3-.6-.6-.6zM99.5 79.8c-.3 0-.6.3-.6.6s.3.6.6.6.6-.3.6-.6-.3-.6-.6-.6zM70.5 84c-.3 0-.6.3-.6.6s.3.6.6.6.6-.3.6-.6-.3-.6-.6-.6zM75.3 84c-.3 0-.6.3-.6.6s.3.6.6.6.6-.3.6-.6-.2-.6-.6-.6zM80.2 84c-.3 0-.6.3-.6.6s.3.6.6.6.6-.3.6-.6-.3-.6-.6-.6zM85 84c-.3 0-.6.3-.6.6s.3.6.6.6.6-.3.6-.6-.3-.6-.6-.6zM89.8 84c-.3 0-.6.3-.6.6s.3.6.6.6.6-.3.6-.6-.2-.6-.6-.6zM94.7 84c-.3 0-.6.3-.6.6s.3.6.6.6.6-.3.6-.6-.3-.6-.6-.6zM99.5 84c-.3 0-.6.3-.6.6s.3.6.6.6.6-.3.6-.6-.3-.6-.6-.6zM70.5 88.2c-.3 0-.6.3-.6.6s.3.6.6.6.6-.3.6-.6-.3-.6-.6-.6zM75.3 88.2c-.3 0-.6.3-.6.6s.3.6.6.6.6-.3.6-.6-.2-.6-.6-.6zM80.2 88.2c-.3 0-.6.3-.6.6s.3.6.6.6.6-.3.6-.6-.3-.6-.6-.6zM85 88.2c-.3 0-.6.3-.6.6s.3.6.6.6.6-.3.6-.6-.3-.6-.6-.6zM89.8 88.2c-.3 0-.6.3-.6.6s.3.6.6.6.6-.3.6-.6-.2-.6-.6-.6zM94.7 88.2c-.3 0-.6.3-.6.6s.3.6.6.6.6-.3.6-.6-.3-.6-.6-.6zM99.5 88.2c-.3 0-.6.3-.6.6s.3.6.6.6.6-.3.6-.6-.3-.6-.6-.6z"/><path class="st0" d="M96.9 48.2c0 3-.3 5.9-1 8.8-.1.5-.2 1-.4 1.5-.1.4-.2.8-.3 1.1-.1.4-.3.9-.4 1.3v.1c-.1.3-.2.7-.3 1-.1.2-.2.5-.3.7-.1.2-.1.3-.2.5s-.2.4-.2.6c-.1.4-.3.7-.5 1.1-.5 1.2-1.1 2.3-1.7 3.4-.9 1.6-2 3.2-3.2 4.7-.1.1-.2.3-.3.4-.2.2-.4.5-.6.7-.8.9-1.6 1.8-2.4 2.6-.9.9-1.9 1.8-2.9 2.6-.8.6-1.5 1.2-2.3 1.8h-.1c-.1.1-.3.2-.4.3-.1.1-.3.2-.4.3-.1.1-.3.2-.4.3-1.1.7-2.3 1.4-3.5 2-.1 0-.1.1-.2.1-.9.4-1.7.8-2.6 1.2-.9.4-1.8.7-2.8 1l-3 .9-1.2.3-1.2.2c-.8.2-1.7.3-2.5.4-1.3.2-2.7.2-4 .3H54.5c-.2 0-.5 0-.7-.1h-1.6c-.3 0-.6-.1-.9-.1-.3 0-.6-.1-.9-.1-.3 0-.5-.1-.8-.1-.1 0-.2 0-.3-.1-.4-.1-.7-.1-1.1-.2H48c-.3-.1-.5-.1-.8-.2H47c-.2-.1-.4-.1-.6-.2-.2-.2-.4-.3-.6-.3h-.1c-.1 0-.2-.1-.3-.1-.2 0-.3-.1-.5-.1-.4-.1-.8-.2-1.2-.4-.1 0-.3-.1-.4-.1-.2-.1-.3-.1-.5-.2l-.9-.3-2.7-1.2c-.5-.2-.9-.4-1.4-.7-.1-.1-.2-.1-.3-.2-.1 0-.1-.1-.2-.1-.2-.1-.5-.3-.7-.4-.2-.1-.3-.2-.5-.3-.1-.1-.2-.1-.3-.2-.7-.4-1.4-.8-2-1.3-.2-.1-.3-.2-.5-.3-.6-.4-1.2-.9-1.8-1.3l-1.8-1.5c-.2-.1-.3-.3-.5-.4-.7-.6-1.3-1.2-1.9-1.9-.3-.3-.5-.5-.7-.8l-.3-.3c-.3-.4-.7-.8-1-1.2-.5-.6-1-1.2-1.4-1.9-.2-.2-.3-.5-.5-.7-.1-.2-.2-.3-.3-.5-.2-.2-.3-.5-.5-.7-.1-.2-.3-.4-.4-.6-.1-.2-.3-.4-.4-.7-.2-.3-.3-.5-.4-.8-.5-.8-.9-1.7-1.3-2.6-1.1-2.6-2.1-5.4-2.7-8.2 0-.2-.1-.4-.1-.6-.1-.2-.1-.5-.1-.8-.3-1.4-.4-2.8-.6-4.2v-.6c-.1-.9-.1-1.8-.1-2.7 0-3.2.4-6.3 1.1-9.2.7-3 1.7-5.9 3.1-8.6.7-1.4 1.5-2.8 2.3-4.1C30 15.3 42.5 7.9 56.7 7.9c10.8 0 20.7 4.3 27.9 11.2 3.4 3.3 6.3 7.2 8.4 11.5.3.6.5 1.1.8 1.7 2 5 3.1 10.3 3.1 15.9z"/><linearGradient id="SVGID_1_" gradientUnits="userSpaceOnUse" x1="61.164" y1="90.18" x2="57.281" y2="23.012"><stop offset="0" style="stop-color:#fff;stop-opacity:0"/><stop offset="1" style="stop-color:#fff"/></linearGradient><path d="M95.3 59.6c-.1.4-.3.9-.4 1.3v.1c-.1.3-.2.7-.3 1-.1.2-.2.5-.3.7-.1.2-.1.3-.2.5s-.2.4-.2.6c-.1.4-.3.7-.5 1.1-.5 1.2-1.1 2.3-1.7 3.4-.9 1.6-2 3.2-3.2 4.7-.1.1-.2.3-.3.4-.2.2-.4.5-.6.7-.8.9-1.6 1.8-2.4 2.6-.9.9-1.9 1.8-2.9 2.6-.8.6-1.5 1.2-2.3 1.8h-.1c-.1.1-.3.2-.4.3-.1.1-.3.2-.4.3-.1.1-.3.2-.4.3-1.1.7-2.3 1.4-3.5 2-.1 0-.1.1-.2.1-.9.4-1.7.8-2.6 1.2-.9.4-1.8.7-2.8 1l-3 .9-1.2.3-1.2.2c-.8.2-1.7.3-2.5.4-1.3.2-2.7.2-4 .3H54.6c-.2 0-.5 0-.7-.1h-1.6c-.3 0-.6-.1-.9-.1-.3 0-.6-.1-.9-.1-.3 0-.5-.1-.8-.1-.1 0-.2 0-.3-.1-.4-.1-.7-.1-1.1-.2h-.2c-.3-.1-.5-.1-.8-.2h-.2c-.2-.1-.4-.1-.6-.2-.3-.2-.5-.3-.7-.3l-5.6-4.8-.9-.8-1.2-1-.6-.4-3.5-3-7.2-6.1-2.8-2.3h-.1c3-2 5.6-3.9 8-5.5 9.9-6.7 15.7-9.4 23.2-4.1.9.7 2 1.2 3 1.7 1.2.5 2.4.9 3.7 1.2.8.2 1.6.3 2.5.5.4.1.7.1 1.1.1 3.3.4 6.8.3 10.1 0 .7-.1 1.4-.1 2-.2 1.2-.2 2.4-.3 3.6-.5 3.4-.6 6.4-1.2 8.6-1.7.9-.2 1.9-.3 2.9-.4 1-.2 1.9-.2 2.7-.1z" style="fill:url(#SVGID_1_)"/><linearGradient id="SVGID_2_" gradientUnits="userSpaceOnUse" x1="58.392" y1="62.594" x2="64.732" y2="93.093"><stop offset="0" style="stop-color:#c7ffab"/><stop offset="1" style="stop-color:#83cfd3"/></linearGradient><path d="M96 57c-.1.5-.2 1-.4 1.5-.1.4-.2.8-.3 1.1-.1.4-.3.9-.4 1.3v.1c-.1.3-.2.7-.3 1-.1.2-.2.5-.3.7-.1.2-.1.3-.2.5s-.2.4-.2.6c-.1.4-.3.7-.5 1.1-.5 1.2-1.1 2.3-1.7 3.4-.9 1.6-2 3.2-3.2 4.7-.1.1-.2.3-.3.4-.2.2-.4.5-.6.7-.8.9-1.6 1.8-2.4 2.6-.9.9-1.9 1.8-2.9 2.6-.8.6-1.5 1.2-2.3 1.8h-.1c-.1.1-.3.2-.4.3-.1.1-.3.2-.4.3-.1.1-.3.2-.4.3-1.1.7-2.3 1.4-3.5 2-.1 0-.1.1-.2.1-.9.4-1.7.8-2.6 1.2-.9.4-1.8.7-2.8 1l-3 .9-1.2.3-1.2.2c-.8.2-1.7.3-2.5.4-1.3.2-2.7.2-4 .3h-5.5c-.3 0-.6-.1-.9-.1-.3 0-.6-.1-.9-.1-.3 0-.5-.1-.8-.1-.1 0-.2 0-.3-.1-.4-.1-.7-.1-1.1-.2H48c-.3-.1-.5-.1-.8-.2H47c-.2-.1-.4-.1-.6-.2-.2-.3-.4-.4-.6-.4h-.1c-.1 0-.2-.1-.3-.1-.2 0-.3-.1-.5-.1-.4-.1-.8-.2-1.2-.4-.1 0-.3-.1-.4-.1-.2-.1-.3-.1-.5-.2l-.9-.3-2.7-1.2c-.5-.2-.9-.4-1.4-.7-.1-.1-.2-.1-.3-.2-.1 0-.1-.1-.2-.1-.2-.1-.5-.3-.7-.4-.2-.1-.3-.2-.5-.3-.1-.1-.2-.1-.3-.2-.7-.4-1.4-.8-2-1.3-.2-.1-.3-.2-.5-.3-.6-.4-1.2-.9-1.8-1.3l-1.8-1.5c-.2-.1-.3-.3-.5-.4-.7-.6-1.3-1.2-1.9-1.9-.3-.3-.5-.5-.7-.8l-.3-.3c-.3-.4-.7-.8-1-1.2-.5-.6-1-1.2-1.4-1.9-.2-.2-.3-.5-.5-.7-.1-.2-.2-.3-.3-.5-.2-.2-.3-.5-.5-.7-.1-.2-.3-.4-.4-.6-.1-.2-.3-.4-.4-.7-.2-.3-.3-.5-.4-.8-.5-.8-.9-1.7-1.3-2.6 4.3-2 8-2.8 11.9-2.2 3.9.6 8 2.6 13 6.2 4.4 3.1 8.7 4.8 12.7 5.1 1 .1 1.9.1 2.9 0 .3 0 .5 0 .8-.1 4.4-.5 8.3-2.7 11.7-6.1l.4-.4.3-.3c.4-.4.8-.9 1.1-1.3.2-.2.4-.4.5-.7.7-1 1.5-2.1 2.1-3.2.2-.3.4-.7.6-1.1 5.6-9.9 11.6-9.6 17.9-4.1z" style="fill:url(#SVGID_2_)"/><linearGradient id="SVGID_3_" gradientUnits="userSpaceOnUse" x1="56.686" y1="50.798" x2="63.083" y2="98.661"><stop offset="0" style="stop-color:#c7ffab"/><stop offset="1" style="stop-color:#83cfd3"/></linearGradient><path d="M94.9 61c-.1.3-.2.7-.3 1-.1.2-.2.5-.3.7-.1.2-.1.3-.2.5s-.2.4-.2.6c-.1.4-.3.7-.5 1.1-.5 1.2-1.1 2.3-1.7 3.4-.9 1.6-2 3.2-3.2 4.7-.1.1-.2.3-.3.4-.2.2-.4.5-.6.7-.8.9-1.6 1.8-2.4 2.6-.9.9-1.9 1.8-2.9 2.6-.8.6-1.5 1.2-2.3 1.8h-.1c-.1.1-.3.2-.4.3-.1.1-.3.2-.4.3-.1.1-.3.2-.4.3-1.1.7-2.3 1.4-3.5 2-.1 0-.1.1-.2.1-.9.4-1.7.8-2.6 1.2-.9.4-1.8.7-2.8 1l-3 .9-1.2.3-1.2.2c-.8.2-1.7.3-2.5.4-1.3.2-2.7.2-4 .3h-5.5c-.3 0-.6-.1-.9-.1-.3 0-.6-.1-.9-.1-.3 0-.5-.1-.8-.1-.1 0-.2 0-.3-.1-.4-.1-.7-.1-1.1-.2H48c-.3-.1-.5-.1-.8-.2H47c-.2-.1-.4-.1-.6-.2-.2-.3-.4-.4-.6-.4h-.1c-.1 0-.2-.1-.3-.1-.2 0-.3-.1-.5-.1-.4-.1-.8-.2-1.2-.4-.1 0-.3-.1-.4-.1-.2-.1-.3-.1-.5-.2l-.9-.3-2.7-1.2c-.5-.2-.9-.4-1.4-.7-.1-.1-.2-.1-.3-.2-.1 0-.1-.1-.2-.1-.2-.1-.5-.3-.7-.4-.2-.1-.3-.2-.5-.3-.1-.1-.2-.1-.3-.2-.7-.4-1.4-.8-2-1.3-.2-.1-.3-.2-.5-.3-.6-.4-1.2-.9-1.8-1.3l-1.8-1.5c-.2-.1-.3-.3-.5-.4-.7-.6-1.3-1.2-1.9-1.9-.3-.3-.5-.5-.7-.8l-.3-.3c-.3-.4-.7-.8-1-1.2-.5-.6-1-1.2-1.4-1.9-.2-.2-.3-.5-.5-.7-.1-.2-.2-.3-.3-.5-.2-.2-.3-.5-.5-.7-.1-.2-.3-.4-.4-.6.6-.2 1.2-.4 1.7-.6 6.7-2.1 12.5-.5 21 5.5 1.9 1.3 3.8 2.4 5.6 3.2 1 .4 1.9.8 2.9 1.1 2.2.7 4.3.9 6.3.9.7 0 1.4-.1 2.1-.2 2.2-.3 4.2-1 6.1-2.1.2-.1.5-.3.7-.4 1.1-.7 2.2-1.5 3.3-2.5 1-.9 1.9-1.9 2.8-3 1.1-1.4 2.2-2.9 3.1-4.6.1-.2.2-.3.3-.5.1-.3.3-.5.4-.8.8-1.4 1.7-2.6 2.5-3.6 3.6-4.1 7.5-4.3 11.5-2.1 1 .3 1.7.8 2.4 1.4z" style="fill:url(#SVGID_3_)"/><linearGradient id="SVGID_4_" gradientUnits="userSpaceOnUse" x1="55.362" y1="25.649" x2="58.78" y2="87.853"><stop offset="0" style="stop-color:#c7ffab"/><stop offset="1" style="stop-color:#83cfd3"/></linearGradient><path d="M91.6 68.2c0 .1 0 .1 0 0-1 1.7-2 3.2-3.2 4.7-.1.1-.2.3-.3.4-.2.2-.4.5-.6.7-.8.9-1.6 1.8-2.4 2.6-.9.9-1.9 1.8-2.9 2.6-.8.6-1.5 1.2-2.3 1.8h-.1c-.1.1-.3.2-.4.3-.1.1-.3.2-.4.3-.1.1-.3.2-.4.3-1.1.7-2.3 1.4-3.5 2-.1 0-.1.1-.2.1-.9.4-1.7.8-2.6 1.2-.9.4-1.8.7-2.8 1l-3 .9-1.2.3-1.2.2c-.8.2-1.7.3-2.5.4-1.3.2-2.7.2-4 .3h-5.5c-.3 0-.6-.1-.9-.1-.3 0-.6-.1-.9-.1-.4-.1-.7-.1-1.1-.2-.4-.1-.7-.1-1.1-.2-.3-.1-.7-.1-1-.2h-.2c-.2-.1-.4-.1-.6-.2-.1-.2-.3-.3-.5-.3h-.1c-.1 0-.2-.1-.3-.1-.2 0-.3-.1-.5-.1-.4-.1-.8-.2-1.2-.4-.1 0-.3-.1-.4-.1-.2-.1-.3-.1-.5-.2l-.9-.3-2.7-1.2c-.5-.2-.9-.4-1.4-.7-.1-.1-.2-.1-.3-.2-.1 0-.1-.1-.2-.1-.2-.1-.5-.3-.7-.4-.2-.1-.3-.2-.5-.3-.1-.1-.2-.1-.3-.2-.7-.4-1.4-.8-2-1.3-.2-.1-.3-.2-.5-.3-.6-.4-1.2-.9-1.8-1.3l-1.8-1.5c-.2-.1-.3-.3-.5-.4-.7-.6-1.3-1.2-1.9-1.9-.3-.3-.5-.5-.7-.8l-.3-.3c-.3-.4-.7-.8-1-1.2-.5-.6-1-1.2-1.4-1.9 1-.4 1.9-.7 2.8-.8 1.8-.3 3.4-.2 5.1.2 3.5.9 7 3.1 11.4 5.7.2.1.3.2.5.3.4.2.9.4 1.4.5.1 0 .1 0 .2.1 1.3.3 2.6.3 4 0 .1 0 .3-.1.4-.1.1 0 .3-.1.4-.1.1 0 .3-.1.4-.1.3-.1.6-.2.8-.2.1 0 .2-.1.3-.1.2-.1.4-.1.6-.2l.9-.3c.3-.1.6-.2.8-.3.1 0 .1 0 .2-.1.2-.1.5-.2.7-.3.6-.3 1.2-.6 1.9-.9.3-.2.6-.3.9-.5.5-.3 1-.6 1.6-.8.3-.2.7-.3 1-.5.3-.1.5-.3.8-.4.4-.2.8-.4 1.1-.6.9-.5 1.9-1 2.8-1.5.2-.1.4-.2.7-.4.1-.1.2-.1.3-.1.2-.1.5-.2.7-.4.7-.4 1.5-.7 2.2-1.1.3-.1.5-.2.8-.3.1 0 .1-.1.2-.1.2-.1.5-.2.7-.3.3-.1.5-.2.8-.3.1 0 .2-.1.3-.1l.9-.3c.1 0 .2-.1.2-.1l.9-.3c.4-.1.8-.3 1.2-.4.2 0 .4-.1.5-.1.8-.2 1.6-.4 2.4-.5.3 0 .5-.1.8-.1.2 0 .5-.1.7-.1.2 0 .5 0 .7-.1h1.4c2.3 0 4.5.4 6.8 1.4 1.2-.2 2.4.4 3.5 1.1z" style="fill:url(#SVGID_4_)"/><path class="st5" d="M88.2 66.4c-.2.2-.7.2-1.3.1-4.8-1.2-10.7-.1-17.9 2.9-7.2 3.1-12.7 9.3-18.9 9.8-6.2.5-8.3-1.6-12.8-4.8-2.4-1.7-4-2.8-5.4-3.3 3.5.9 7 3.1 11.4 5.7 10.6 6.2 28-17.6 44.9-10.4z"/><linearGradient id="SVGID_5_" gradientUnits="userSpaceOnUse" x1="67.386" y1="97.974" x2="58.019" y2="73.757"><stop offset="0" style="stop-color:#5399a5"/><stop offset="1" style="stop-color:#83cfd3"/></linearGradient><path d="M88.1 73.4c-.2.2-.4.5-.6.7-.8.9-1.6 1.8-2.4 2.6-.9.9-1.9 1.8-2.9 2.6-.8.6-1.5 1.2-2.3 1.8h-.1c-.1.1-.3.2-.4.3-.1.1-.3.2-.4.3-.1.1-.3.2-.4.3-1.1.7-2.3 1.4-3.5 2-.1 0-.1.1-.2.1-.9.4-1.7.8-2.6 1.2-.9.4-1.8.7-2.8 1l-3 .9-1.2.3-1.2.2c-.8.2-1.7.3-2.5.4-1.3.2-2.7.2-4 .3h-5.5c-.3 0-.6-.1-.9-.1-.3 0-.6-.1-.9-.1-.4-.1-.7-.1-1.1-.2-.4-.1-.7-.1-1.1-.2-.3-.1-.7-.1-1-.2h-.2c-.2-.1-.4-.1-.6-.2-.1-.3-.3-.4-.5-.4h-.1c-.1 0-.2-.1-.3-.1-.2 0-.3-.1-.5-.1-.4-.1-.8-.2-1.2-.4-.1 0-.3-.1-.4-.1-.2-.1-.3-.1-.5-.2l-.9-.3-2.7-1.2c-.5-.2-.9-.4-1.4-.7-.1-.1-.2-.1-.3-.2-.1 0-.1-.1-.2-.1-.2-.1-.5-.3-.7-.4-.2-.1-.3-.2-.5-.3-.1-.1-.2-.1-.3-.2-.7-.4-1.4-.8-2-1.3-.2-.1-.3-.2-.5-.3-.6-.4-1.2-.9-1.8-1.3l-1.8-1.5c-.2-.1-.3-.3-.5-.4 1.9.1 3.7.6 5.5 1.4.9.4 1.8.8 2.7 1.4.1.1.3.2.4.2.4.2.8.5 1.2.7.3.2.6.4 1 .6l3 1.8c2.1 1.2 4.4 1.3 6.9.7.9-.2 1.7-.5 2.6-.8.4-.2.9-.4 1.4-.6 1.3-.6 2.6-1.2 4-1.9.5-.2.9-.5 1.4-.8.8-.4 1.6-.9 2.5-1.4 3.2-1.8 6.6-3.7 10.1-5 .9-.4 1.9-.7 2.8-1 2.6-.7 5.2-1.1 7.8-1 .5 0 1.1.1 1.6.2.3 0 .6.1.9.2 1.2.1 2.1.4 3.1.8z" style="fill:url(#SVGID_5_)"/><linearGradient id="SVGID_6_" gradientUnits="userSpaceOnUse" x1="66.088" y1="93.67" x2="66.249" y2="64.908"><stop offset="0" style="stop-color:#8b69c5"/><stop offset="1" style="stop-color:#47457d"/></linearGradient><path d="M75.1 84s-.1 0 0 0c-.1.1-.2.1-.2.1-.9.4-1.7.8-2.6 1.2-.1 0-.2.1-.2.1-.8.3-1.7.7-2.5.9-.2-2.5-.6-6.7-.7-9.9v-.7c-.1.2-.4.6-.7 1.1-1.5 2.5-4.9 8.3-6.6 11.2-1.3.2-2.7.2-4 .3h-.3c.3-.9 1.2-4.3 2.3-8.1l.3-1.2c.5-1.7 1.1-3.4 1.6-5 .1-.2.1-.4.2-.6l.6-1.8c.4-1 .7-1.8 1-2.5.2-.4.3-.7.5-.9v-.1c.1-.1.1-.2.2-.3l6.7-.5 3.2-.2.8-.1c0 .2.1.5.1 1s.1 1.2.1 2v2.8c.1 3.8.2 8.2.2 11.2z" style="fill:url(#SVGID_6_)"/><path class="st8" d="M74.9 70.3c-2.8-1.9-7.4-1.1-11.6-1 .2-.4.3-.7.5-.9v-.1c.1-.1.1-.2.2-.3l6.7-.5 3.2-.2.8-.1c0 .2.1.5.1 1 0 .7 0 1.3.1 2.1zM72 85.4c-.8.3-1.7.7-2.5.9-.2-2.5-.6-6.7-.7-9.9v-.7c2-3.8 3-4.4 3.1-2.3.1 1.9-.5 8 .1 12z"/><linearGradient id="SVGID_7_" gradientUnits="userSpaceOnUse" x1="71.328" y1="27.866" x2="69.615" y2="38.061"><stop offset="0" style="stop-color:#8b69c5"/><stop offset="1" style="stop-color:#47457d"/></linearGradient><path d="M74.4 40.1c-.2 1.6-1.1 3.4-2.6 3.3-2.6-.2-3.4-1.9-3.4-1.9L66.7 39c-.6-.1-1-.4-1.3-.7-.9-1-.8-2.6 0-3.8.2.4.9.7 1 .8-.1 0-.4-.3-.2-1.1.8 1 7.8-.2 7.4 3.7.7-.1.9 1 .8 2.2z" style="fill:url(#SVGID_7_)"/><path class="st8" d="M74.4 40.1c-.2 1.6-1.1 3.4-2.6 3.3-2.6-.2-3.4-1.9-3.4-1.9L66.7 39c-.6-.1-1-.4-1.3-.7 1.7.8 4.4.1 5.5 1 1.2.8 1.9 2.2 3.5.8z"/><linearGradient id="SVGID_8_" gradientUnits="userSpaceOnUse" x1="67.275" y1="43.936" x2="74.017" y2="39.132"><stop offset=".004" style="stop-color:#ffc7d7"/><stop offset="1" style="stop-color:#ff97ab"/></linearGradient><path d="M72.3 45.7c-.8-.2-2.7.1-2.7.1l-.2-1.8s-1.7.7-2.3.2c-.5-.6-.9-3.2-.3-5.3.9.8 2.1.2 2.3.3.1.1.2 1.1.5 1 .3-.1.2-.7.5-.8.3 0 .9.4.8.9 0 .5-.4 1.1-.7.9-.3-.2-.5-.3-.5 0 .3 1.2 1.4 1.8 1.9 1.9.2.1.3.1.3.1s.1.9.4 2.5z" style="fill:url(#SVGID_8_)"/><linearGradient id="SVGID_9_" gradientUnits="userSpaceOnUse" x1="71.053" y1="48.151" x2="70.497" y2="41.789"><stop offset=".004" style="stop-color:#ffc7d7"/><stop offset="1" style="stop-color:#ff97ab"/></linearGradient><path d="M72.3 45.7c-.8-.2-2.7.1-2.7.1l-.2-1.8c.9-.2 1.6-.8 2.3-.8.2.1.3.1.3.1s0 .8.3 2.4z" style="fill:url(#SVGID_9_)"/><linearGradient id="SVGID_10_" gradientUnits="userSpaceOnUse" x1="70.307" y1="41.787" x2="71.592" y2="49.441"><stop offset="0" style="stop-color:#8b69c5"/><stop offset="1" style="stop-color:#cbb3ff"/></linearGradient><path d="M69 46.1c.2-.5.1-.9.8-1.1.7-.2 2.2-.3 2.6.1.5.4.8 1.6.8 1.6l-4.2-.6z" style="fill:url(#SVGID_10_)"/><linearGradient id="SVGID_11_" gradientUnits="userSpaceOnUse" x1="73.601" y1="88.564" x2="67.26" y2="42.122"><stop offset="0" style="stop-color:#ff227d"/><stop offset="1" style="stop-color:#ff967d"/></linearGradient><path d="M75.9 57.5c0 .6-.1 1.2-.1 1.8v.9c0 .6-.1 1.2-.1 1.8 0 .4 0 .8-.1 1.1 0 .7-.1 1.3-.1 1.8v1.4c.1 2 .1 2.4-2.5 1.7s-7.6.7-8.9.5c-.1 0-.2 0-.3-.1-1-.4-1.3-1.5-.4-3.3 0-.1.1-.2.1-.2.2-.3.4-.9.6-1.5.1-.4.2-.8.4-1.2.2-.6.3-1.1.5-1.8.1-.3.2-.6.2-1 .1-.6.3-1.2.4-1.8.4-1.8.8-3.4.9-4l-.1-1.9-.3-4c.9-1.1 3.1-2.7 6-2.3 2.8.4 3.8 1.4 4 4.5.1 1.5 0 4.5-.2 7.6z" style="fill:url(#SVGID_11_)"/><path class="st5" d="M75.6 63.1c0 .7-.1 1.3-.1 1.8-4.3-.8-8.7 0-12.2.2 0-.1.1-.2.1-.2.2-.3.4-.9.6-1.5 4.7-.9 9.4-.6 11.6-.3zM75.8 60.2c0 .6-.1 1.2-.1 1.8-4-.7-7.9-.1-11.2.2.2-.6.3-1.1.5-1.8 4.3-.8 8.6-.5 10.8-.2zM75.9 57.5c0 .6-.1 1.2-.1 1.8-3.7-.7-7.5-.2-10.6.2.1-.6.3-1.2.4-1.8 4.2-.7 8.2-.4 10.3-.2z"/><path class="st8" d="M65.2 62.9c-1.7 2.4-1.8 4.3-1.3 5.5-1.1-.4-1.3-1.6-.3-3.5 1.1-2 2.6-9.7 3-11.2l-.1-1.9 2.4-1.4c.2 5.4-1.7 9.7-3.7 12.5z"/><linearGradient id="SVGID_12_" gradientUnits="userSpaceOnUse" x1="49.985" y1="67.978" x2="63.866" y2="59.362"><stop offset=".004" style="stop-color:#ffc7d7"/><stop offset="1" style="stop-color:#ff97ab"/></linearGradient><path d="M55.3 63.7c-.9-.2-1.9.1-2.1.4s.5.2.7.5c.3.3-.7 1.3-1.6 1.3s-.8.2-.3.5c.5.2 1.2 0 1.2 0s-.5.2-1 .3c-.5 0 .4.6 1.5.6 1.2 0 1.6-1.1 2.3-2l-.7-1.6z" style="fill:url(#SVGID_12_)"/><linearGradient id="SVGID_13_" gradientUnits="userSpaceOnUse" x1="66.476" y1="89.532" x2="60.136" y2="43.098"><stop offset="0" style="stop-color:#ff227d"/><stop offset="1" style="stop-color:#ff967d"/></linearGradient><path d="M66.7 47.5c1.7-.2 2.2.9 2 3.4-.3 2.5-2.9 7.7-4 8.8-1.1 1.1-7.8 5.8-8.7 5.9-.9.1-.9-1.6-.6-2.3s6.4-5.7 6.4-5.7 3.3-10 4.9-10.1z" style="fill:url(#SVGID_13_)"/><linearGradient id="SVGID_14_" gradientUnits="userSpaceOnUse" x1="79.737" y1="69.533" x2="91.346" y2="80.971"><stop offset="0" style="stop-color:#c7ffab"/><stop offset="1" style="stop-color:#83cfd3"/></linearGradient><path d="M91.6 68.3c-.9 1.6-2 3.2-3.2 4.7-.3.4-.6.8-.9 1.1-.8.9-1.6 1.8-2.4 2.6-.9.9-1.9 1.8-2.9 2.6-.8.6-1.5 1.2-2.3 1.8h-.1c-.1.1-.3.2-.4.3-.1.1-.3.2-.4.3-.2-3.9 2-3.6 2-3.6s-2.1-3 .2-5.1c2.2-2 4-.1 4.2.1-.1-.2-.7-1.7.4-2.5 1.2-.8 2.3.3 2.3.3s1.3-2.2 3.5-2.6z" style="fill:url(#SVGID_14_)"/><linearGradient id="SVGID_15_" gradientUnits="userSpaceOnUse" x1="34.851" y1="74.755" x2="37.079" y2="84.094"><stop offset="0" style="stop-color:#c7ffab"/><stop offset="1" style="stop-color:#83cfd3"/></linearGradient><path d="M37.8 83.8c-.1-.1-.2-.1-.3-.2-.4-.2-.9-.5-1.3-.8-.8-3.3-3.3-6.8-2.3-8.1 1.1-1.5 2.9.9 3.6 5.2.1.9.2 1.6.3 2.2v1.7z" style="fill:url(#SVGID_15_)"/><linearGradient id="SVGID_16_" gradientUnits="userSpaceOnUse" x1="35.068" y1="76.528" x2="46.257" y2="87.553"><stop offset="0" style="stop-color:#c7ffab"/><stop offset="1" style="stop-color:#83cfd3"/></linearGradient><path d="M39.7 83.3c-.2.4-.3.8-.5 1.2-.5-.2-.9-.4-1.4-.7-.1-.1-.2-.1-.3-.2.1-.4.2-.9.2-1.4.4-2.5.5-4.9 1.6-5.3 1.8-.6 2.1 2.4.4 6.4z" style="fill:url(#SVGID_16_)"/><linearGradient id="SVGID_17_" gradientUnits="userSpaceOnUse" x1="51.954" y1="81.312" x2="59.986" y2="89.225"><stop offset="0" style="stop-color:#c7ffab"/><stop offset="1" style="stop-color:#83cfd3"/></linearGradient><path d="M53.6 88.4c-.4 0-.8-.1-1.3-.1H52c.1-.4.2-.8.4-1.2.2-.6.5-1.3.8-2.1 1.7-4 4-5.9 4.7-4.2.8 1.4-2.9 4.4-4.3 7.6z" style="fill:url(#SVGID_17_)"/><linearGradient id="SVGID_18_" gradientUnits="userSpaceOnUse" x1="51.936" y1="81.221" x2="50.994" y2="87.903"><stop offset="0" style="stop-color:#c7ffab"/><stop offset="1" style="stop-color:#83cfd3"/></linearGradient><path d="M52.4 87c0 .4-.1.8-.1 1.3H52c-.6-.1-1.1-.1-1.7-.2 0-.2 0-.3-.1-.5-.6-4.3.4-7.1 1.9-6.1 1 .6.6 3 .3 5.5z" style="fill:url(#SVGID_18_)"/><linearGradient id="SVGID_19_" gradientUnits="userSpaceOnUse" x1="68.816" y1="75.797" x2="68.816" y2="75.797"><stop offset="0" style="stop-color:#c7ffab"/><stop offset="1" style="stop-color:#83cfd3"/></linearGradient><linearGradient id="SVGID_20_" gradientUnits="userSpaceOnUse" x1="37.148" y1="64.697" x2="31.323" y2="29.4"><stop offset="0" style="stop-color:#fff;stop-opacity:0"/><stop offset="1" style="stop-color:#fff"/></linearGradient><path d="M43.6 50.8c-4.4.1-16.7.1-27.1 0-.1-.9-.1-1.8-.1-2.7 0-3.2.4-6.3 1.1-9.2.7-3 1.7-5.9 3.1-8.6 2.7.1 5.4 2.1 5.4 4.8 2.4-2.3 8.2-5.1 11.7-.8 3.6 4.4.6 8.8.6 8.8s3.5-2.9 5.4-1.2c1.9 1.7.9 4 .9 4.1.2-.2 4.1-4 7-.3 3 4.1.2 5-8 5.1z" style="fill:url(#SVGID_20_)"/><linearGradient id="SVGID_21_" gradientUnits="userSpaceOnUse" x1="84.233" y1="41.247" x2="80.769" y2="20.256"><stop offset="0" style="stop-color:#fff;stop-opacity:0"/><stop offset="1" style="stop-color:#fff"/></linearGradient><path d="M93.7 32.4H78.1c-5.9-.1-7.9-.7-5.8-3.4 2.1-2.7 4.9 0 5 .2 0-.1-.7-1.8.6-3 1.4-1.3 3.9.8 3.9.8s-2.1-3.2.5-6.3c.7-.8 1.4-1.3 2.2-1.5 3.4 3.3 6.3 7.2 8.4 11.5.3.6.6 1.1.8 1.7z" style="fill:url(#SVGID_21_)"/><path class="st24" d="M31 29.7c.1-2.2 2.3-.2 2.3-.2s-.6-2.6 2.1-1.8M44.7 35.4c1.7-1.5 1.8 1.5 1.8 1.5s1.4-2.3 2.7.2M28.5 39.7c.6-2.1 2.3.3 2.3.3s0-2.6 2.4-1.3"/><circle cx="60" cy="22.7" r="5.1" style="fill:#fefec6"/><path class="st26" d="M78.2 16.6c0 .3.3.6.6.6s.6-.3.6-.6-.3-.6-.6-.6-.6.3-.6.6zM83 16.6c0 .3.3.6.6.6s.6-.3.6-.6-.3-.6-.6-.6-.6.3-.6.6zM87.9 16.6c0 .3.3.6.6.6s.6-.3.6-.6-.3-.6-.6-.6c-.4 0-.6.3-.6.6zM92.7 16.6c0 .3.3.6.6.6s.6-.3.6-.6-.3-.6-.6-.6-.6.3-.6.6z"/><circle class="st26" cx="98.1" cy="16.6" r=".6"/><circle class="st26" cx="102.9" cy="16.6" r=".6"/><path class="st26" d="M107.2 16.6c0 .3.3.6.6.6s.6-.3.6-.6-.3-.6-.6-.6-.6.3-.6.6zM78.2 20.8c0 .3.3.6.6.6s.6-.3.6-.6-.3-.6-.6-.6c-.3.1-.6.3-.6.6zM83 20.8c0 .3.3.6.6.6s.6-.3.6-.6-.3-.6-.6-.6c-.3.1-.6.3-.6.6zM87.9 20.8c0 .3.3.6.6.6s.6-.3.6-.6-.3-.6-.6-.6c-.4.1-.6.3-.6.6zM92.7 20.8c0 .3.3.6.6.6s.6-.3.6-.6-.3-.6-.6-.6c-.3.1-.6.3-.6.6zM97.5 20.8c0 .3.3.6.6.6s.6-.3.6-.6-.3-.6-.6-.6c-.3.1-.6.3-.6.6zM102.4 20.8c0 .3.3.6.6.6s.6-.3.6-.6-.3-.6-.6-.6c-.4.1-.6.3-.6.6zM107.2 20.8c0 .3.3.6.6.6s.6-.3.6-.6-.3-.6-.6-.6c-.3.1-.6.3-.6.6zM78.2 25c0 .3.3.6.6.6s.6-.3.6-.6-.3-.6-.6-.6c-.3.1-.6.3-.6.6zM83 25c0 .3.3.6.6.6s.6-.3.6-.6-.3-.6-.6-.6c-.3.1-.6.3-.6.6zM87.9 25c0 .3.3.6.6.6s.6-.3.6-.6-.3-.6-.6-.6c-.4.1-.6.3-.6.6zM92.7 25c0 .3.3.6.6.6s.6-.3.6-.6-.3-.6-.6-.6c-.3.1-.6.3-.6.6zM97.5 25c0 .3.3.6.6.6s.6-.3.6-.6-.3-.6-.6-.6c-.3.1-.6.3-.6.6zM102.4 25c0 .3.3.6.6.6s.6-.3.6-.6-.3-.6-.6-.6c-.4.1-.6.3-.6.6zM107.2 25c0 .3.3.6.6.6s.6-.3.6-.6-.3-.6-.6-.6c-.3.1-.6.3-.6.6zM78.2 29.3c0 .3.3.6.6.6s.6-.3.6-.6-.3-.6-.6-.6-.6.2-.6.6zM83 29.3c0 .3.3.6.6.6s.6-.3.6-.6-.3-.6-.6-.6-.6.2-.6.6zM87.9 29.3c0 .3.3.6.6.6s.6-.3.6-.6-.3-.6-.6-.6c-.4 0-.6.2-.6.6zM92.7 29.3c0 .3.3.6.6.6s.6-.3.6-.6-.3-.6-.6-.6-.6.2-.6.6zM97.5 29.3c0 .3.3.6.6.6s.6-.3.6-.6-.3-.6-.6-.6-.6.2-.6.6zM102.4 29.3c0 .3.3.6.6.6s.6-.3.6-.6-.3-.6-.6-.6c-.4 0-.6.2-.6.6zM107.2 29.3c0 .3.3.6.6.6s.6-.3.6-.6-.3-.6-.6-.6-.6.2-.6.6zM78.2 33.5c0 .3.3.6.6.6s.6-.3.6-.6-.3-.6-.6-.6-.6.2-.6.6zM83 33.5c0 .3.3.6.6.6s.6-.3.6-.6-.3-.6-.6-.6-.6.2-.6.6zM87.9 33.5c0 .3.3.6.6.6s.6-.3.6-.6-.3-.6-.6-.6c-.4 0-.6.2-.6.6zM92.7 33.5c0 .3.3.6.6.6s.6-.3.6-.6-.3-.6-.6-.6-.6.2-.6.6z"/><circle class="st26" cx="98.1" cy="33.5" r=".6"/><circle class="st26" cx="102.9" cy="33.5" r=".6"/><path class="st26" d="M107.2 33.5c0 .3.3.6.6.6s.6-.3.6-.6-.3-.6-.6-.6-.6.2-.6.6zM78.2 37.7c0 .3.3.6.6.6s.6-.3.6-.6-.3-.6-.6-.6-.6.3-.6.6zM83 37.7c0 .3.3.6.6.6s.6-.3.6-.6-.3-.6-.6-.6-.6.3-.6.6zM87.9 37.7c0 .3.3.6.6.6s.6-.3.6-.6-.3-.6-.6-.6c-.4 0-.6.3-.6.6zM92.7 37.7c0 .3.3.6.6.6s.6-.3.6-.6-.3-.6-.6-.6-.6.3-.6.6z"/><circle class="st26" cx="98.1" cy="37.7" r=".6"/><circle class="st26" cx="102.9" cy="37.7" r=".6"/><path class="st26" d="M107.2 37.7c0 .3.3.6.6.6s.6-.3.6-.6-.3-.6-.6-.6-.6.3-.6.6zM78.2 41.9c0 .3.3.6.6.6s.6-.3.6-.6-.3-.6-.6-.6-.6.3-.6.6zM83 41.9c0 .3.3.6.6.6s.6-.3.6-.6-.3-.6-.6-.6-.6.3-.6.6zM87.9 41.9c0 .3.3.6.6.6s.6-.3.6-.6-.3-.6-.6-.6c-.4 0-.6.3-.6.6zM92.7 41.9c0 .3.3.6.6.6s.6-.3.6-.6-.3-.6-.6-.6-.6.3-.6.6z"/><circle class="st26" cx="98.1" cy="41.9" r=".6"/><circle class="st26" cx="102.9" cy="41.9" r=".6"/><path class="st26" d="M107.2 41.9c0 .3.3.6.6.6s.6-.3.6-.6-.3-.6-.6-.6-.6.3-.6.6zM78.2 46.1c0 .3.3.6.6.6s.6-.3.6-.6-.3-.6-.6-.6-.6.3-.6.6zM83 46.1c0 .3.3.6.6.6s.6-.3.6-.6-.3-.6-.6-.6-.6.3-.6.6zM87.9 46.1c0 .3.3.6.6.6s.6-.3.6-.6-.3-.6-.6-.6c-.4 0-.6.3-.6.6zM92.7 46.1c0 .3.3.6.6.6s.6-.3.6-.6-.3-.6-.6-.6-.6.3-.6.6zM97.5 46.1c0 .3.3.6.6.6s.6-.3.6-.6-.3-.6-.6-.6-.6.3-.6.6zM102.4 46.1c0 .3.3.6.6.6s.6-.3.6-.6-.3-.6-.6-.6c-.4 0-.6.3-.6.6zM107.2 46.1c0 .3.3.6.6.6s.6-.3.6-.6-.3-.6-.6-.6-.6.3-.6.6z"/></svg>