<svg version="1.1" id="Layer_1" xmlns="http://www.w3.org/2000/svg" xmlns:xlink="http://www.w3.org/1999/xlink" x="0" y="0" viewBox="0 0 178 199" style="enable-background:new 0 0 178 199" xml:space="preserve"><style>.st1{fill:none}.st10,.st11,.st5,.st9{fill:#fff;stroke:#5b60c1;stroke-width:.5;stroke-linecap:round;stroke-linejoin:round;stroke-miterlimit:10}.st10,.st11,.st9{fill:#fefefe}.st10,.st11{fill:none;stroke:#3f02a8}.st11{fill:#dcdffb;stroke:#5b60c1}.st12{fill:#ff227d}.st13{fill:none;stroke:#ff227d;stroke-width:10;stroke-linecap:round;stroke-linejoin:round;stroke-miterlimit:10}.st14{fill:#797bf2}.st15{fill:#faf3e1}.st16{fill:none;stroke:#ff57a4;stroke-width:.5;stroke-miterlimit:10}</style><defs><path id="SVGID_1_" d="M0 0h178v199H0z"/></defs><clipPath id="SVGID_2_"><use xlink:href="#SVGID_1_" style="overflow:visible"/></clipPath><g style="clip-path:url(#SVGID_2_)"><path class="st1" d="M0 0h178v199H0z"/><image style="overflow:visible;opacity:.1;enable-background:new" width="940" height="321" xlink:href="331B3DCC.png" transform="translate(-406.957 -32.718) scale(.9987)"/><path d="M409.6 96.7c-6.1 0-11.9.7-17.5 1.9-7.2-38.9-52.8-68.9-107.9-68.8-50.8.1-93.4 25.6-105.3 60.1-5.7-1-11.8-1.6-18-1.6-21.1 0-40.1 6.5-53.5 16.9-18-13.5-43.2-21.9-71-21.9-8.5 0-16.7.8-24.5 2.3-6.7-11.8-22.6-20-41.2-20-24.6 0-44.5 14.6-44.5 32.7 0 .6 0 1.3.1 1.9-6.4-1.8-13.2-3-20.3-3.6-12.4-27.1-47.5-46.7-88.7-46.6-51.6.1-93.3 30.7-93.3 68.5v1.8c-6-1.8-12.5-2.7-19.4-2.7-28.5 0-51.5 16.9-51.5 37.8 0 20.8 23.2 37.7 51.6 37.6 22.3 0 41.3-10.4 48.4-24.9 16.8 11.6 39.4 18.7 64.3 18.7 1.5 0 2.9 0 4.3-.1 14.1 19.6 42.3 32.9 74.6 32.8 24.1 0 45.7-7.4 61.1-19.3 18.2 17.4 46.9 28.7 79.2 28.6 38.4 0 71.6-16 88.1-39.3 10.8 4.5 23.2 7 36.5 7 24.6 0 46.4-8.9 59.8-22.4 17.9 9.4 39.9 14.9 63.6 14.9 28.7 0 54.8-8.2 74.2-21.6 11.1 11.9 29.8 19.7 51 19.6 34.1 0 61.6-20.3 61.6-45.2-.1-25-27.7-45.1-61.8-45.1z" style="opacity:.1;fill:#babef7"/><image style="overflow:visible;opacity:.1;enable-background:new" width="852" height="246" xlink:href="331B3DC3.png" transform="translate(-340.963 36.248) scale(.9986)"/><path d="M-202.7 102.8c19.2-.3 37 4.4 51 12.4 5.9-4.9 14.5-8 24.1-8.2 18-.3 32.9 9.9 33.9 22.9 12.5-17.8 37.6-30.1 66.8-30.6 36.2-.6 67.2 17.2 76.1 41.8 11.8.5 22.5 4 30.8 9.5 4.6-1.2 9.5-1.9 14.6-2h.5c10.7-19.5 36.4-33.4 66.9-33.9 28.5-.5 53.7 11 66.4 28.2 2.5-.7 5.1-1.2 7.8-1.5 0-.4-.1-.8-.1-1.2-.5-17.9 18.9-32.8 43.4-33.2 11.9-.2 22.8 3.1 31 8.5 14.4-9.6 33.3-15.5 54.3-15.9 46-.7 84.1 25.9 85.1 59.6s-35.5 61.6-81.5 62.3c-32.7.5-61.5-12.8-75.7-32.7-6.5 14.2-24.6 24.6-46.3 25-11.4.2-22-2.5-30.6-7-13 9.5-30.8 15.5-50.6 15.9-17.4.3-33.5-3.9-46.3-11-6.6 2.8-14.2 4.5-22.3 4.6-9.7.2-18.8-1.9-26.4-5.5-6.9 2.8-14.8 4.4-23.1 4.5-13.7.2-26.3-3.6-35.7-9.9-10.4 4.1-22.3 6.5-34.9 6.8-34.2.6-63.7-15.3-74.4-37.7-4.2 1.5-8.9 2.4-13.9 2.5-4.1.1-8-.4-11.6-1.3-8.5 24.9-39 43.7-75.8 44.3-44.2.7-80.8-24.9-81.7-57.2-1-32.5 34-59.3 78.2-60z" style="opacity:.1;fill:#dcdffb"/><image style="overflow:visible;opacity:.1;enable-background:new" width="874" height="299" xlink:href="331B3DC4.png" transform="translate(-362.957 62.282) scale(.9986)"/><path d="M-247.8 189.6c5.6-.1 11 .3 16.1 1.3 4.8-35.9 45.3-64.5 95.9-65.8 46.6-1.2 86.9 21.2 99.4 52.6 5.2-1.1 10.7-1.8 16.4-1.9 19.4-.5 37.1 5 49.9 14.2 16-12.8 38.7-21.1 64.3-21.8 7.8-.2 15.3.3 22.6 1.5 5.6-11 19.9-18.9 36.9-19.4 22.6-.6 41.5 12.4 42.3 28.9v1.7c5.8-1.8 12-3.1 18.5-3.8 10.2-25.2 41.4-44 79.3-45 47.4-1.2 87.1 25.9 88.7 60.6v1.7c5.4-1.8 11.4-2.8 17.7-3 26.1-.7 48 14.3 49 33.4.9 19.1-19.5 35.2-45.7 35.8-20.5.5-38.4-8.6-45.6-21.7-14.9 11.1-35.3 18.1-58.2 18.7h-4c-12.1 18.3-37.3 31.2-67 32-22.1.6-42.3-5.7-56.9-16.2-15.9 16.4-41.7 27.5-71.3 28.2-35.2.9-66.4-12.9-82.6-33.9-9.7 4.4-21 7-33.2 7.3-22.6.6-43-7-55.9-19.1-16 9.1-35.9 14.7-57.7 15.2-26.4.7-50.7-6.2-69.1-18-9.7 11.2-26.5 18.8-45.9 19.3-31.3.8-57.5-17.1-58.6-40-1-22.8 23.5-42 54.7-42.8z" style="opacity:.1;fill:#fff"/><path class="st1" d="M0 0h178v199H0z"/><path class="st5" d="M144.9 172.7h-112c-2.2 0-4-1.8-4-4v-112c0-2.2 1.8-4 4-4h112c2.2 0 4 1.8 4 4v112c0 2.2-1.7 4-4 4z"/><path class="st5" d="M144.9 168.7h-112c-2.2 0-4-1.8-4-4v-108c0-2.2 1.8-4 4-4h112c2.2 0 4 1.8 4 4v108c0 2.2-1.7 4-4 4z"/><image style="overflow:visible;opacity:.4;enable-background:new" width="182" height="173" xlink:href="331B3DC7.png" transform="translate(0 26.3)"/><path d="m148.9 143.3-21.3 21.3H32.9c-2.2 0-4-1.8-4-4v-104c0-2.2 1.8-4 4-4h112c2.2 0 4 1.8 4 4v86.7z" style="fill:#fefefe"/><path d="m148.9 143.3-21.3 21.3H32.9c-2.2 0-4-1.8-4-4v-104c0-2.2 1.8-4 4-4h112c2.2 0 4 1.8 4 4v86.7z" style="fill:none;stroke:#5b60c1;stroke-width:.5;stroke-linecap:round;stroke-linejoin:round;stroke-miterlimit:10"/><path d="M148.9 66.7h-120v-10c0-2.2 1.8-4 4-4h112c2.2 0 4 1.8 4 4v10z" style="fill:#797bf2;stroke:#5b60c1;stroke-width:.5;stroke-linecap:round;stroke-linejoin:round;stroke-miterlimit:10"/><circle class="st9" cx="50.9" cy="59.7" r="2"/><path class="st10" d="M50.9 49.3v10"/><path class="st11" d="M50.9 59.8c-.3 0-.5-.2-.5-.5v-10c0-.3.2-.5.5-.5s.5.2.5.5v10c0 .2-.2.5-.5.5z"/><circle class="st9" cx="126.9" cy="59.7" r="2"/><path class="st10" d="M126.9 49.3v10"/><path class="st11" d="M126.9 59.8c-.3 0-.5-.2-.5-.5v-10c0-.3.2-.5.5-.5s.5.2.5.5v10c0 .2-.2.5-.5.5z"/><path class="st1" d="M0 0h178v199H0z"/><path class="st12" d="M72.3 83.2c-.4-.2-.8-.3-1-.6l.3-.5c.2.2.5.4.9.6.4.1.8.2 1.2.2.6 0 1-.1 1.3-.3.3-.2.4-.5.4-.8s-.1-.5-.2-.6c-.2-.1-.3-.3-.6-.3s-.5-.2-.9-.3c-.5-.1-.9-.2-1.1-.3-.3-.1-.5-.3-.7-.5s-.3-.5-.3-.9c0-.3.1-.6.3-.9.2-.3.4-.5.8-.6.3-.2.8-.2 1.3-.2.4 0 .7 0 1.1.1.3.1.6.2.9.4l-.2.5c-.3-.2-.5-.3-.8-.4s-.6-.1-.9-.1c-.6 0-1 .1-1.2.3s-.4.5-.4.8.1.5.2.6c.2.2.3.3.6.4.2.1.5.2.9.3.5.1.8.2 1.1.3.3.1.5.3.7.5s.3.5.3.9c0 .3-.1.6-.3.9-.2.3-.4.5-.8.6-.4.2-.8.2-1.3.2-.7-.1-1.2-.2-1.6-.3zM90.9 82.8v.6h-4.5V77h4.3v.6H87v2.2h3.3v.6H87v2.3h3.9v.1zM105.7 77.6c.5.4.7.9.7 1.6s-.2 1.2-.7 1.6-1.1.6-1.9.6h-1.7v2h-.7V77h2.4c.8 0 1.4.2 1.9.6zm-.5 2.8c.3-.3.5-.7.5-1.2s-.2-.9-.5-1.2-.8-.4-1.4-.4h-1.7v3.1h1.7c.6.1 1.1-.1 1.4-.3z"/><path class="st1" d="M0 0h178v199H0z"/><path class="st13" d="M78.5 148H41.7M135.3 135.6H41.7M135.3 123.1H56.9"/><path class="st14" d="M92.3 98.5c.3.3.4.6.4 1 0 .3-.1.5-.2.7s-.3.4-.6.5-.6.2-1 .2-.7-.1-1-.2-.6-.3-.8-.5l.2-.4c.2.2.4.3.7.4.3.1.6.2.9.2.4 0 .7-.1.9-.3.2-.2.3-.4.3-.7 0-.3-.1-.5-.3-.7-.2-.2-.6-.3-1-.3h-.3V98l1.4-1.7h-2.5V96h3.1v.4l-1.4 1.7c.5 0 .9.1 1.2.4zM87.1 108.4v4.9h-.5v-4.5h-1.2v-.4h1.7zM89.2 113.1c-.3-.2-.5-.5-.7-.9s-.2-.8-.2-1.3.1-1 .2-1.3c.2-.4.4-.7.7-.9.3-.2.6-.3 1-.3s.7.1 1 .3c.3.2.5.5.7.9s.3.8.3 1.3-.1 1-.3 1.3c-.2.4-.4.7-.7.9-.3.2-.6.3-1 .3-.3 0-.7-.1-1-.3zm1.8-.4c.2-.2.4-.4.5-.7.1-.3.2-.7.2-1.1s-.1-.8-.2-1.1c-.1-.3-.3-.5-.5-.7s-.5-.2-.8-.2-.5.1-.8.2c-.2.2-.4.4-.5.7-.1.3-.2.7-.2 1.1s.1.8.2 1.1c.1.3.3.5.5.7s.5.2.8.2c.3 0 .6-.1.8-.2z"/><path class="st15" d="M87.4 120.9v4.9h-.5v-4.5h-1.2v-.4h1.7zM92 120.9v.4l-2.1 4.5h-.5l2-4.5h-2.5v.9h-.5v-1.4l3.6.1zM88.5 137.8v.4H85v-.4l2-2c.3-.3.4-.5.5-.7s.1-.4.1-.6c0-.3-.1-.5-.3-.7-.2-.2-.5-.2-.9-.2-.6 0-1 .2-1.3.5l-.4-.3c.2-.2.4-.4.7-.5.3-.1.6-.2 1-.2.5 0 .9.1 1.2.4.3.2.4.6.4 1 0 .3-.1.5-.2.7s-.3.5-.6.8l-1.7 1.6h3v.2zM93.1 136.9h-1v1.3h-.5v-1.3h-2.8v-.4l2.6-3.2h.6l-2.5 3.2h2.1v-1.1h.5v1.1h1v.4z"/><path class="st14" d="M105.7 99.6h-1v1.3h-.5v-1.3h-2.8v-.4L104 96h.6l-2.5 3.2h2.1V98h.5v1.1h1v.5zM102.5 108.2v5.1h-.5v-4.6h-1.2v-.5h1.7zM105.1 108.2v5.1h-.5v-4.6h-1.2v-.5h1.7z"/><path class="st15" d="M101.6 120.9v4.9h-.5v-4.5h-1.2v-.4h1.7zM106.3 123.7c.2.2.2.5.2.7 0 .3-.1.5-.2.7-.2.2-.4.4-.7.5s-.6.2-1 .2c-.6 0-1-.1-1.4-.4s-.5-.6-.5-1c0-.3.1-.5.2-.7.2-.2.4-.4.7-.5-.3-.1-.4-.2-.6-.4-.1-.2-.2-.4-.2-.7 0-.4.2-.7.5-.9s.7-.4 1.2-.4c.3 0 .6.1.9.2s.5.3.6.5.2.4.2.7c0 .3-.1.5-.2.7s-.3.3-.6.4c.5 0 .7.2.9.4zm-.7 1.4c.2-.2.4-.4.4-.7s-.1-.5-.4-.7-.6-.3-1-.3-.8.1-1 .3-.4.4-.4.7c0 .3.1.5.4.7s.6.3 1 .3.8-.1 1-.3zm-1.9-2.3c.2.2.5.2.9.2s.7-.1.9-.2c.2-.2.3-.4.3-.6 0-.3-.1-.5-.3-.7-.2-.2-.5-.2-.9-.2s-.7.1-.9.2c-.2.2-.3.4-.3.6 0 .3.1.5.3.7zM103.1 137.8v.5h-3.6v-.4l2.1-2.1c.3-.3.4-.5.5-.7s.1-.4.1-.6c0-.3-.1-.5-.3-.7-.2-.2-.5-.3-.9-.3-.6 0-1.1.2-1.4.6l-.4-.3c.2-.2.5-.4.8-.5s.7-.2 1-.2c.5 0 .9.1 1.2.4.3.2.5.6.5 1 0 .3-.1.5-.2.8-.1.2-.3.5-.7.8l-1.7 1.7h3zM106.7 135.6c.3.3.5.6.5 1.1 0 .3-.1.6-.2.8s-.3.4-.6.5c-.3.1-.6.2-1 .2s-.7-.1-1-.2c-.3-.1-.6-.3-.8-.5l.3-.4c.2.2.4.3.7.4.3.1.6.2.9.2.4 0 .7-.1 1-.3s.3-.4.3-.8c0-.3-.1-.6-.4-.8s-.7-.3-1.3-.3H104l.3-2.6h2.8v.5h-2.3l-.2 1.6h.7c.5.2 1 .3 1.4.6z"/><path class="st14" d="M121 98.4c.3.3.5.6.5 1.1 0 .3-.1.5-.2.8-.1.2-.3.4-.6.5-.3.1-.6.2-1 .2s-.7-.1-1-.2-.6-.3-.8-.5l.2-.4c.2.2.4.3.6.4.3.1.6.2.9.2.4 0 .7-.1.9-.3s.3-.4.3-.7c0-.3-.1-.6-.4-.8-.3-.2-.7-.3-1.3-.3h-1l.3-2.5h2.7v.4H119l-.2 1.6h.6c.7.1 1.2.2 1.6.5zM116.2 108.4v4.9h-.5v-4.5h-1.2v-.4h1.7zM120.7 112.9v.4h-3.4v-.3l2-2c.3-.3.4-.5.5-.7s.1-.4.1-.6c0-.3-.1-.5-.3-.7-.2-.2-.5-.2-.9-.2-.6 0-1 .2-1.3.5l-.4-.3c.2-.2.4-.4.7-.5.3-.1.6-.2 1-.2.5 0 .9.1 1.2.4.3.2.4.6.4 1 0 .3-.1.5-.2.7s-.3.5-.6.8l-1.7 1.6 2.9.1z"/><path class="st15" d="M116 120.9v4.9h-.5v-4.5h-1.2v-.4h1.7zM120.2 121.5c.3.4.5 1 .5 1.8 0 .5-.1 1-.3 1.4s-.4.7-.8.9c-.3.2-.7.3-1.2.3s-.9-.1-1.2-.3l.2-.4c.2.2.6.2 1 .2.5 0 1-.2 1.3-.5s.5-.8.5-1.5v-.4c-.1.3-.3.5-.6.6-.3.1-.6.2-.9.2s-.6-.1-.9-.2-.4-.3-.6-.5c-.1-.2-.2-.5-.2-.8s.1-.6.2-.8.3-.4.6-.5c.3-.1.5-.2.9-.2.7 0 1.2.2 1.5.7zm-.8 1.7c.2-.1.3-.2.4-.4.1-.2.2-.3.2-.5s0-.4-.2-.5c-.1-.2-.2-.3-.4-.4-.2-.1-.4-.1-.7-.1-.4 0-.6.1-.9.3s-.3.5-.3.8.1.6.3.8c.2.2.5.3.9.3.3-.1.6-.2.7-.3zM117.3 137.8v.4h-3.4v-.4l2-2c.3-.3.4-.5.5-.7s.1-.4.1-.6c0-.3-.1-.5-.3-.7-.2-.2-.5-.2-.9-.2-.6 0-1 .2-1.3.5l-.4-.3c.2-.2.4-.4.7-.5.3-.1.6-.2 1-.2.5 0 .9.1 1.2.4.3.2.4.6.4 1 0 .3-.1.5-.2.7s-.3.5-.6.8l-1.7 1.6h2.9v.2zM120.8 135.5c.2.1.4.3.6.5s.2.5.2.8-.1.6-.2.8-.3.4-.6.5c-.3.1-.5.2-.9.2-.6 0-1.1-.2-1.5-.6s-.5-1-.5-1.8c0-.5.1-1 .3-1.4.2-.4.4-.7.8-.9.3-.2.7-.3 1.2-.3s.9.1 1.2.3l-.2.4c-.2-.2-.6-.2-1-.2-.5 0-1 .2-1.3.5s-.5.8-.5 1.5v.4c.1-.3.3-.5.6-.6.3-.1.6-.2.9-.2.4-.1.7-.1.9.1zm0 2c.2-.2.3-.5.3-.8s-.1-.6-.3-.8c-.2-.2-.5-.3-.9-.3-.2 0-.5 0-.7.1s-.3.2-.4.4-.2.3-.2.5.1.4.2.5c.1.2.2.3.4.4.2.1.4.1.7.1.4.2.6.1.9-.1z"/><path class="st14" d="M135.2 98.1c.2.1.4.3.6.5s.2.5.2.8-.1.6-.2.8-.3.4-.6.5-.5.2-.9.2c-.6 0-1.1-.2-1.5-.6s-.5-1-.5-1.8c0-.5.1-1 .3-1.4s.4-.7.8-.9c.3-.2.7-.3 1.2-.3s.9.1 1.2.3l-.2.4c-.2-.2-.6-.2-1-.2-.5 0-1 .2-1.3.5s-.5.8-.5 1.5v.4c.1-.3.3-.5.6-.6s.6-.2.9-.2c.4-.1.7 0 .9.1zm0 2.1c.2-.2.3-.5.3-.8s-.1-.6-.3-.8c-.2-.2-.5-.3-.9-.3-.2 0-.5 0-.7.1s-.3.2-.4.4c-.1.2-.2.3-.2.5s.1.4.2.5c.1.2.2.3.4.4s.4.1.7.1c.4.2.7.1.9-.1zM130.6 108.4v4.9h-.5v-4.5h-1.2v-.4h1.7zM134.6 110.9c.3.3.4.6.4 1 0 .3-.1.5-.2.7-.1.2-.3.4-.6.5s-.6.2-1 .2-.7-.1-1-.2-.6-.3-.8-.5l.2-.4c.2.2.4.3.7.4s.6.2.9.2c.4 0 .7-.1.9-.3.2-.2.3-.4.3-.7 0-.3-.1-.5-.3-.7s-.6-.3-1-.3h-.3v-.4l1.4-1.7h-2.5v-.4h3.2v.4l-1.4 1.7c.4.1.8.3 1.1.5z"/><path class="st15" d="M131.5 125.3v.4h-3.4v-.4l2-2c.3-.3.4-.5.5-.7s.1-.4.1-.6c0-.3-.1-.5-.3-.7s-.5-.2-.9-.2c-.6 0-1 .2-1.3.5l-.4-.3c.2-.2.4-.4.7-.5s.6-.2 1-.2c.5 0 .9.1 1.2.4.3.2.4.6.4 1 0 .3-.1.5-.2.7-.1.2-.3.5-.6.8l-1.7 1.6h2.9v.2zM133 125.5c-.3-.2-.5-.5-.7-.9s-.2-.8-.2-1.3.1-1 .2-1.3c.2-.4.4-.7.7-.9.3-.2.6-.3 1-.3s.7.1 1 .3c.3.2.5.5.7.9s.3.8.3 1.3-.1 1-.3 1.3c-.2.4-.4.7-.7.9-.3.2-.6.3-1 .3s-.7-.1-1-.3zm1.8-.4c.2-.2.4-.4.5-.7.1-.3.2-.7.2-1.1s-.1-.8-.2-1.1c-.1-.3-.3-.5-.5-.7s-.5-.2-.8-.2-.5.1-.8.2-.4.4-.5.7c-.1.3-.2.7-.2 1.1s.1.8.2 1.1c.1.3.3.5.5.7s.5.2.8.2c.3.1.6 0 .8-.2zM131.7 137.8v.4h-3.4v-.4l2-2c.3-.3.4-.5.5-.7s.1-.4.1-.6c0-.3-.1-.5-.3-.7s-.5-.2-.9-.2c-.6 0-1 .2-1.3.5l-.4-.3c.2-.2.4-.4.7-.5s.6-.2 1-.2c.5 0 .9.1 1.2.4.3.2.4.6.4 1 0 .3-.1.5-.2.7-.1.2-.3.5-.6.8l-1.7 1.6h2.9v.2zM135.8 133.3v.4l-2.1 4.5h-.5l2-4.5h-2.5v.9h-.5v-1.4h3.6v.1z"/><path class="st14" d="M49.7 108.4v.4l-2.1 4.5h-.5l2-4.5h-2.5v.9h-.5v-1.4l3.6.1zM44 120.9v4.9h-.5v-4.5h-1.2v-.4H44zM49.4 124.5h-1v1.3h-.5v-1.3h-2.8v-.4l2.6-3.2h.6l-2.5 3.2h2.1V123h.5v1.1h1v.4z"/><path class="st15" d="M46.3 137.8v.4h-3.4v-.4l2-2c.3-.3.4-.5.5-.7s.1-.4.1-.6c0-.3-.1-.5-.3-.7s-.5-.2-.9-.2c-.6 0-1 .2-1.3.5l-.4-.3c.2-.2.4-.4.7-.5s.6-.2 1-.2c.5 0 .9.1 1.2.4.3.2.4.6.4 1 0 .3-.1.5-.2.7-.1.2-.3.5-.6.8l-1.7 1.6h2.9v.2zM48.3 133.3v4.9h-.5v-4.5h-1.2v-.4h1.7zM45.4 150.2v.4H42v-.4l2-2c.3-.3.4-.5.5-.7s.1-.4.1-.6c0-.3-.1-.5-.3-.7s-.5-.2-.9-.2c-.6 0-1 .2-1.3.5l-.4-.3c.2-.2.4-.4.7-.5s.6-.2 1-.2c.5 0 .9.1 1.2.4.3.2.4.6.4 1 0 .3-.1.5-.2.7-.1.2-.3.5-.6.8l-1.7 1.6h2.9v.2zM49.5 148.6c.2.2.2.5.2.7 0 .3-.1.5-.2.7-.2.2-.4.4-.7.5s-.6.2-1 .2c-.6 0-1.1-.1-1.4-.4s-.5-.6-.5-1c0-.3.1-.5.2-.7.2-.2.4-.4.7-.5-.3-.1-.4-.2-.6-.4-.1-.2-.2-.4-.2-.7 0-.4.2-.7.5-.9s.7-.4 1.2-.4c.3 0 .6.1.9.2.3.1.5.3.6.5s.2.4.2.7-.1.5-.2.7c-.1.2-.3.3-.6.4.5 0 .8.2.9.4zm-.6 1.4c.2-.2.4-.4.4-.7s-.1-.5-.4-.7c-.2-.2-.6-.3-1-.3s-.8.1-1 .3-.4.4-.4.7.1.5.4.7.6.3 1 .3.7-.1 1-.3zm-1.9-2.3c.2.2.5.2.9.2s.7-.1.9-.2c.2-.2.3-.4.3-.6 0-.3-.1-.5-.3-.7s-.5-.2-.9-.2-.7.1-.9.2c-.2.2-.3.4-.3.6 0 .3.1.5.3.7z"/><path class="st14" d="M62.8 96v4.9h-.5v-4.5h-1.2V96h1.7zM63.9 111.2c.2.2.2.5.2.7 0 .3-.1.5-.2.7-.2.2-.4.4-.7.5s-.6.2-1 .2c-.6 0-1.1-.1-1.4-.4s-.5-.6-.5-1c0-.3.1-.5.2-.7.2-.2.4-.4.7-.5-.3-.1-.4-.2-.6-.4-.1-.2-.2-.4-.2-.7 0-.4.2-.7.5-.9.3-.2.7-.4 1.2-.4.3 0 .6.1.9.2.3.1.5.3.6.5s.2.4.2.7c0 .3-.1.5-.2.7-.1.2-.3.3-.6.4.5.1.8.2.9.4zm-.6 1.5c.2-.2.4-.4.4-.7s-.1-.5-.4-.7c-.2-.2-.6-.3-1-.3s-.8.1-1 .3c-.2.2-.4.4-.4.7 0 .3.1.5.4.7s.6.3 1 .3.8-.2 1-.3zm-1.9-2.4c.2.2.5.2.9.2s.7-.1.9-.2c.2-.2.3-.4.3-.6 0-.3-.1-.5-.3-.7s-.5-.2-.9-.2-.7.1-.9.2c-.2.2-.3.4-.3.6 0 .4.1.6.3.7z"/><path class="st15" d="M58.7 120.9v4.9h-.5v-4.5H57v-.4h1.7zM62.7 123.3c.3.3.5.6.5 1.1 0 .3-.1.5-.2.8-.1.2-.3.4-.6.5s-.6.2-1 .2-.7-.1-1-.2-.6-.3-.8-.5l.2-.4c.2.2.4.3.6.4.3.1.6.2.9.2.4 0 .7-.1.9-.3.2-.2.3-.4.3-.7 0-.3-.1-.6-.4-.8-.3-.2-.7-.3-1.3-.3h-1l.3-2.5H63v.4h-2.2l-.2 1.6h.6c.7.1 1.2.2 1.5.5zM60 137.8v.4h-3.4v-.4l2-2c.3-.3.4-.5.5-.7s.1-.4.1-.6c0-.3-.1-.5-.3-.7s-.5-.2-.9-.2c-.6 0-1 .2-1.3.5l-.4-.3c.2-.2.4-.4.7-.5s.6-.2 1-.2c.5 0 .9.1 1.2.4.3.2.4.6.4 1 0 .3-.1.5-.2.7-.1.2-.3.5-.6.8l-1.7 1.6H60v.2zM64 137.8v.4h-3.4v-.4l2-2c.3-.3.4-.5.5-.7s.1-.4.1-.6c0-.3-.1-.5-.3-.7s-.5-.2-.9-.2c-.6 0-1 .2-1.3.5l-.4-.3c.2-.2.4-.4.7-.5s.6-.2 1-.2c.5 0 .9.1 1.2.4.3.2.4.6.4 1 0 .3-.1.5-.2.7-.1.2-.3.5-.6.8l-1.7 1.6H64v.2zM59.8 150.2v.4h-3.4v-.4l2-2c.3-.3.4-.5.5-.7s.1-.4.1-.6c0-.3-.1-.5-.3-.7s-.5-.2-.9-.2c-.6 0-1 .2-1.3.5l-.4-.3c.2-.2.4-.4.7-.5s.6-.2 1-.2c.5 0 .9.1 1.2.4.3.2.4.6.4 1 0 .3-.1.5-.2.7-.1.2-.3.5-.6.8l-1.7 1.6h2.9v.2zM63.5 146.4c.3.4.5 1 .5 1.8 0 .5-.1 1-.3 1.4s-.4.7-.8.9c-.3.2-.7.3-1.2.3s-.9-.1-1.2-.3l.2-.4c.2.2.6.2 1 .2.5 0 1-.2 1.3-.5s.5-.8.5-1.5v-.4c-.1.3-.3.5-.6.6s-.6.2-.9.2c-.3 0-.6-.1-.9-.2-.3-.1-.4-.3-.6-.5-.1-.2-.2-.5-.2-.8s.1-.6.2-.8c.1-.2.3-.4.6-.5s.5-.2.9-.2c.6 0 1.1.2 1.5.7zm-.8 1.7c.2-.1.3-.2.4-.4.1-.2.2-.3.2-.5s-.1-.4-.2-.5c-.1-.2-.2-.3-.4-.4-.2-.1-.4-.1-.7-.1-.4 0-.6.1-.9.3s-.3.5-.3.8.1.6.3.8.5.3.9.3c.3-.1.5-.2.7-.3z"/><path class="st14" d="M78.4 100.4v.4H75v-.4l2-2c.3-.3.4-.5.5-.7s.1-.4.1-.6c0-.3-.1-.5-.3-.7-.2-.2-.5-.2-.9-.2-.6 0-1 .2-1.3.5l-.4-.3c.2-.2.4-.4.7-.5.3-.1.6-.2 1-.2.5 0 .9.1 1.2.4.3.2.4.6.4 1 0 .3-.1.5-.2.7s-.3.5-.6.8l-1.7 1.6h2.9v.2zM77.9 109c.3.4.5 1 .5 1.8 0 .5-.1 1-.3 1.4-.2.4-.4.7-.8.9-.3.2-.7.3-1.2.3s-.9-.1-1.2-.3l.2-.4c.2.2.6.2 1 .2.5 0 1-.2 1.3-.5s.5-.8.5-1.5v-.4c-.1.3-.3.5-.6.6-.3.1-.6.2-.9.2s-.6-.1-.9-.2-.4-.3-.6-.5c-.1-.2-.2-.5-.2-.8s.1-.6.2-.8c.1-.2.3-.4.6-.5.3-.1.5-.2.9-.2.7.1 1.2.3 1.5.7zm-.8 1.8c.2-.1.3-.2.4-.4.1-.2.2-.3.2-.5s-.1-.4-.2-.5c-.1-.2-.2-.3-.4-.4-.2-.1-.4-.1-.7-.1-.4 0-.6.1-.9.3s-.3.5-.3.8.1.6.3.8c.2.2.5.3.9.3.3-.2.5-.2.7-.3z"/><path class="st15" d="M72.9 120.9v4.9h-.5v-4.5h-1.2v-.4h1.7zM77 123c.2.1.4.3.6.5s.2.5.2.8-.1.6-.2.8c-.1.2-.3.4-.6.5-.3.1-.5.2-.9.2-.6 0-1.1-.2-1.5-.6-.3-.4-.5-1-.5-1.8 0-.5.1-1 .3-1.4s.4-.7.8-.9c.3-.2.7-.3 1.2-.3s.9.1 1.2.3l-.2.4c-.2-.2-.6-.2-1-.2-.5 0-1 .2-1.3.5s-.5.8-.5 1.5v.4c.1-.3.3-.5.6-.6.3-.1.6-.2.9-.2.4-.1.6 0 .9.1zm0 2.1c.2-.2.3-.5.3-.8s-.1-.6-.3-.8c-.2-.2-.5-.3-.9-.3-.2 0-.5 0-.7.1s-.3.2-.4.4c-.1.2-.2.3-.2.5s0 .4.2.5c.1.2.2.3.4.4.2.1.4.1.7.1.4.2.6.1.9-.1zM74.4 137.8v.4H71v-.4l2-2c.3-.3.4-.5.5-.7s.1-.4.1-.6c0-.3-.1-.5-.3-.7-.2-.2-.5-.2-.9-.2-.6 0-1 .2-1.3.5l-.4-.3c.2-.2.4-.4.7-.5.3-.1.6-.2 1-.2.5 0 .9.1 1.2.4.3.2.4.6.4 1 0 .3-.1.5-.2.7s-.3.5-.6.8l-1.7 1.6h2.9v.2zM77.8 135.8c.3.3.4.6.4 1 0 .3-.1.5-.2.7s-.3.4-.6.5c-.3.1-.6.2-1 .2s-.7-.1-1-.2c-.3-.1-.6-.3-.8-.5l.2-.4c.2.2.4.3.7.4.3.1.6.2.9.2.4 0 .7-.1.9-.3.2-.2.3-.4.3-.7s-.1-.5-.3-.7c-.2-.2-.6-.3-1-.3H76v-.4l1.4-1.7h-2.5v-.4H78v.4l-1.4 1.7c.6.1 1 .3 1.2.5zM73.5 148.3c.3.3.4.6.4 1 0 .3-.1.5-.2.7s-.3.4-.6.5c-.3.1-.6.2-1 .2s-.7-.1-1-.2c-.3-.1-.6-.3-.8-.5l.2-.4c.2.2.4.3.7.4.3.1.6.2.9.2.4 0 .7-.1.9-.3.2-.2.3-.4.3-.7s-.1-.5-.3-.7c-.2-.2-.6-.3-1-.3h-.4v-.4l1.4-1.7h-2.5v-.4h3.1v.4l-1.4 1.7c.7.1 1.1.2 1.3.5zM75.6 150.4c-.3-.2-.5-.5-.7-.9s-.2-.8-.2-1.3.1-1 .2-1.3c.2-.4.4-.7.7-.9.3-.2.6-.3 1-.3s.7.1 1 .3.5.5.7.9.3.8.3 1.3-.1 1-.3 1.3c-.2.4-.4.7-.7.9-.3.2-.6.3-1 .3s-.7-.1-1-.3zm1.7-.4c.2-.2.4-.4.5-.7s.2-.7.2-1.1-.1-.8-.2-1.1-.3-.5-.5-.7-.5-.2-.8-.2-.5.1-.8.2c-.2.2-.4.4-.5.7s-.2.7-.2 1.1.1.8.2 1.1.3.5.5.7.5.2.8.2.6 0 .8-.2z"/><path class="st1" d="M0 0h178v199H0z"/><path class="st11" d="M148.9 143.3h-17.3c-2.2 0-4 1.8-4 4v17.3l21.3-21.3z"/><path class="st1" d="M0 0h178v199H0z"/><path id="XMLID_7_" class="st1" d="M0 0h178v190H0z"/><path class="st1" d="M0 0h178v199H0z"/><path transform="rotate(-27.893 17.229 182.696)" class="st16" d="M12.2 177.7h10v10h-10z"/><circle class="st16" cx="161.2" cy="87.9" r="4.1"/><path class="st16" d="m43.6 24.7 20.3 5.7-13.6-16.9z"/><path class="st1" d="M0 0h178v199H0z"/><path class="st1" d="M0 0h178v199H0z"/></g></svg>