<svg version="1.1" id="Layer_1" xmlns="http://www.w3.org/2000/svg" xmlns:xlink="http://www.w3.org/1999/xlink" x="0" y="0" viewBox="0 0 178 199" style="enable-background:new 0 0 178 199" xml:space="preserve"><style>.st5{opacity:.3}.st5,.st9{fill:#525dea}.st10,.st11,.st12,.st13,.st14,.st16{fill:#dcdffb;stroke:#3f02a8;stroke-width:.5;stroke-linecap:round;stroke-linejoin:round;stroke-miterlimit:10}.st11,.st12,.st13,.st14,.st16{fill:#525dea}.st12,.st13,.st14,.st16{fill:#ff227d;stroke:#671cc9}.st13,.st14,.st16{fill:none;stroke:#3f02a8}.st14,.st16{fill:#ff57a4}.st16{stroke:#671cc9}.st17{fill:#3f02a8}.st18{fill:#dcdffb;stroke-linecap:round;stroke-linejoin:round}.st18,.st19,.st20,.st25{stroke:#671cc9;stroke-width:.5;stroke-miterlimit:10}.st19{fill:none;stroke-linecap:round;stroke-linejoin:round}.st20,.st25{fill:#844bdd}.st25{stroke-linecap:round;stroke-linejoin:round}.st27{opacity:.3}.st28{opacity:.1;fill:#4d4c4d}.st30,.st36{fill:#4b28c4;stroke:#3f02a8;stroke-width:.5;stroke-miterlimit:10}.st36{fill:none;stroke:#ff57a4}</style><defs><path id="SVGID_1_" d="M0 0h178v198.5H0z"/></defs><clipPath id="SVGID_2_"><use xlink:href="#SVGID_1_" style="overflow:visible"/></clipPath><g style="clip-path:url(#SVGID_2_)"><image style="overflow:visible;opacity:.2" width="940" height="320" xlink:href="790CE984.png" transform="translate(-207 -32.7)"/><path d="M610.3 96.7c-6.1 0-11.9.7-17.5 1.9-7.2-38.9-52.8-68.9-107.9-68.8-50.8.1-93.4 25.6-105.3 60.1-5.7-1-11.8-1.6-18-1.6-21.1 0-40.1 6.5-53.5 16.9C290 91.7 264.8 83.3 237 83.3c-8.5 0-16.7.8-24.5 2.3-6.7-11.8-22.6-20-41.2-20-24.6 0-44.5 14.6-44.5 32.7 0 .6 0 1.3.1 1.9-6.4-1.8-13.2-3-20.3-3.6-12.4-27.2-47.5-56.7-88.7-56.7-51.6.1-93.3 40.7-93.3 78.4v1.8c-6-1.8-12.5-2.7-19.4-2.7-28.5 0-51.5 16.9-51.5 37.8 0 20.8 23.2 37.7 51.6 37.6 22.3 0 41.3-10.4 48.4-24.9 16.8 11.6 39.4 18.7 64.3 18.7 1.5 0 2.9 0 4.3-.1 14.1 19.6 42.3 32.9 74.6 32.8 24.1 0 45.7-7.4 61.1-19.3 18.2 17.4 46.9 28.7 79.2 28.6 38.4 0 71.6-16 88.1-39.3 10.8 4.5 23.2 7 36.5 7 24.6 0 46.4-8.9 59.8-22.4 17.9 9.4 39.9 14.9 63.6 14.9 28.7 0 54.8-8.2 74.2-21.6 11.1 11.9 29.8 19.7 51 19.6 34.1 0 61.6-20.3 61.6-45.2 0-24.8-27.7-44.9-61.7-44.9z" style="fill:#babef7"/><image style="overflow:visible;opacity:.2" width="851" height="245" xlink:href="790CE98A.png" transform="translate(-140.422 36.576)"/><path d="M-2.1 102.8c19.2-.3 37 4.4 51 12.4 5.9-4.9 14.5-8 24.1-8.2 18-.2 33 10 34 23 12.5-17.8 37.6-30.1 66.8-30.6 36.2-.6 67.2 17.2 76.1 41.8 11.8.5 22.5 4 30.8 9.5 4.6-1.2 9.5-1.9 14.6-2h.5c10.7-19.5 36.4-33.4 66.9-33.9 28.5-.5 53.7 11 66.4 28.2 2.5-.7 5.1-1.2 7.8-1.5 0-.4-.1-.8-.1-1.2-.5-17.9 18.9-32.8 43.4-33.2 11.9-.2 22.8 3.1 31 8.5 14.4-9.6 33.3-15.5 54.3-15.9 46-.7 84.1 25.9 85.1 59.6s-35.5 61.6-81.5 62.3c-32.7.5-61.5-12.8-75.7-32.7-6.5 14.2-24.6 24.6-46.3 25-11.4.2-22-2.5-30.6-7-13 9.5-30.8 15.5-50.6 15.9-17.4.3-33.5-3.9-46.3-11-6.6 2.8-14.2 4.5-22.3 4.6-9.7.2-18.8-1.9-26.4-5.5-6.9 2.8-14.8 4.4-23.1 4.5-13.7.2-26.3-3.6-35.7-9.9-10.4 4.1-22.3 6.5-34.9 6.8-34.2.6-63.7-15.3-74.4-37.7-4.2 1.5-8.9 2.4-13.9 2.5-4.1.1-8-.4-11.6-1.3-8.5 24.9-39 43.7-75.8 44.3-44.2.7-80.8-24.9-81.7-57.2-1-32.6 34-59.4 78.1-60.1z" style="fill:#dcdffb"/><image style="overflow:visible;opacity:.2" width="873" height="298" xlink:href="790CE98B.png" transform="translate(-162.8 63.71)"/><path d="M-47.5 190.7c5.6-.1 11 .3 16.1 1.3 4.8-35.9 45.3-64.5 95.9-65.8 46.6-1.2 86.9 21.2 99.4 52.6 5.2-1.1 10.7-1.8 16.4-1.9 19.4-.5 37.1 5 49.9 14.2 16-12.8 38.7-21.1 64.3-21.8 7.8-.2 15.3.3 22.6 1.5 5.6-11 19.9-18.9 36.9-19.4 22.6-.6 41.5 12.4 42.3 28.9v1.7c5.8-1.8 12-3.1 18.5-3.8 10.2-25.2 41.4-44 79.3-45 47.4-1.2 87.1 25.9 88.7 60.6v1.7c5.4-1.8 11.4-2.8 17.7-3 26.1-.7 48 14.3 49 33.4.9 19.1-19.5 35.2-45.7 35.8-20.5.5-38.4-8.6-45.6-21.7-14.9 11.1-35.3 18.1-58.2 18.7h-4c-12.1 18.3-37.3 31.2-67 32-22.1.6-42.3-5.7-56.9-16.2-15.9 16.4-41.7 27.5-71.3 28.2-35.2.9-66.4-12.9-82.6-33.9-9.7 4.4-21 7-33.2 7.3-22.6.6-43-7-55.9-19.1-16 9.1-35.9 14.7-57.7 15.2-26.4.7-50.7-6.2-69.1-18-9.7 11.2-26.5 18.8-45.9 19.3-31.3.8-57.5-17.1-58.6-40-1.1-22.8 23.4-42 54.7-42.8z" style="fill:#fff"/><path d="M27.5 141.9c-1.4 0-1.4 1-2.8 1s-1.4-1-2.8-1-1.4 1-2.8 1-1.4-1-2.8-1-1.4 1-2.8 1-1.4-1-2.8-1-1.4 1-2.8 1-1.4-1-2.8-1v2.5h22.5c.7 0 1.3-.6 1.3-1.3-.1-.7-.7-1.2-1.4-1.2z" style="fill:#7cbfd9;stroke:#3f02a8;stroke-width:.5;stroke-miterlimit:10"/><path class="st5" d="M4.7 143.2h22.8c.7 0 1.3.2 1.3.6 0 .4-.6.8-1.3.8H4.7v-1.4z"/><path d="M5 141.9h-62.5c-.7 0-1.3.6-1.3 1.3 0 .7.6 1.3 1.3 1.3H5v-2.6z" style="fill:#bbbac5;stroke:#3f02a8;stroke-width:.5;stroke-miterlimit:10"/><path class="st5" d="M5.3 143.2h-62.8c-.7 0-1.3.3-1.3.7 0 0 .4.7 1.3.7H5.3v-1.4z"/><path d="M31 163h-92c-2.2 0-4-1.8-4-4V67c0-2.2 1.8-4 4-4h92c2.2 0 4 1.8 4 4v92c0 2.2-1.8 4-4 4z" style="fill:#fefefe;stroke:#671cc9;stroke-width:.5;stroke-linecap:round;stroke-linejoin:round;stroke-miterlimit:10"/><g style="opacity:.4"><path class="st9" d="M7.8 114.4H1.4V111H.3v-2.3h-1v-2.4h-1.4V104h-.3v2.3h-1.5v2.4h-1v2.3H-6v8.3h-9.9v-4.6h-1v-6.2h-1.3v-1.6h-.7v-.9H-25v.9h-.7v1.6H-27v6.2h-1.2v14.2h-.9v13l44.1-.2v-26.3H7.8zM27.5 125.1v-1.9h-.9v-3.3h-.9v-1.5h-.5v-4.1h-.1v4.1h-.5v1.5h-.9v1.8h-6.2v20.2h11.1v-16.8zM-32.5 109.1H-38v2.8h-2.4v2.5h-3v10.1H-48v-7.7l-6.8 3.8v7.7l-2.5 1.2v12.2l27 .2v-30h-2.2z"/></g><path class="st10" d="M-23.8 135.4h-14.3l2-45h10.3zM-38.1 135.4h14.3v6.3h-14.3z"/><path class="st11" d="M-27.4 90.4h-7.1v-1.3c0-.7.8-1.3 1.8-1.3h3.6c1 0 1.8.6 1.8 1.3v1.3z"/><path transform="rotate(-180 -32.365 140.422)" class="st11" d="M-34.5 139.2h4.3v2.5h-4.3z"/><path class="st10" d="M-30.9 75.4v12.5M-31.9 79.5h0c0 .3.3.5.7.5h.5c.4 0 .7-.2.7-.5h0c0-.3-.3-.5-.7-.5h-.5c-.4 0-.7.3-.7.5zM-31.8 90.4l5.1 45h-11.4z"/><path transform="rotate(-180 -25.223 138.547)" class="st10" d="M-26.7 135.4h2.9v6.3h-2.9z"/><path class="st10" d="m-25.8 90.4-.9 45h2.9zM-31.8 90.4h-4.3l-2 45z"/><path class="st10" d="m-26.7 135.4-5.1-45h6z"/><path class="st5" d="m-23.4 135.4-2-45H-27v-1c0-.8-1-1.5-2.1-1.5h-1.8c-.2 0-.4.1-.4.3v2.3h-.5c-.1 0-.2 0-.3.1-.1.1-.1.1-.1.2l5.1 45v6.2c0 .1.2.3.4.3h2.9c.2 0 .4-.1.4-.3v-6.6z"/><path class="st12" d="M-14.3 93.8H-16v-8c0-.4.3-.8.7-.8h.3c.4 0 .8.3.8.8v8z"/><path class="st12" d="M-16.9 88.1V90h3.5v-1.9c0-.9-.8-1.5-1.8-1.5h0c-.9 0-1.7.7-1.7 1.5z"/><path class="st12" d="M-17.3 89.9v2.4h4.4v-2.4c0-1.1-1-1.9-2.2-1.9h0c-1.3 0-2.2.8-2.2 1.9z"/><path class="st12" d="M-17.8 91.6v2.8h5.3v-2.8c0-1.3-1.2-2.3-2.6-2.3h0c-1.5 0-2.7 1-2.7 2.3z"/><path class="st12" d="M-18.4 93.6V97h6.5v-3.5c0-1.6-1.4-2.8-3.2-2.8h0c-1.8.1-3.3 1.2-3.3 2.9zM-19.6 141.7h8.9v-39.3l.6-1.2h-10l.5 1.2z"/><path class="st12" d="M-12.2 134.2v3.7h-5.9v-3.7h-4.4v7.5h14.7v-7.5zM-19 95.7v4.3h7.6v-4.3c0-1.8-1.7-3.3-3.8-3.3h0c-2.1 0-3.8 1.5-3.8 3.3z"/><path class="st13" d="M-16.6 99.9v-4.3c0-.7.7-1.3 1.5-1.3s1.5.6 1.5 1.3v4.3h-3z"/><path class="st12" d="M-12.2 130.4h3.7v3.8h-3.7zM-21.8 130.4h3.7v3.8h-3.7zM-12.2 130.4h2.9v-1.2H-12.2zM-19.6 101.2h8.9v-1.3h-8.9zM-18.1 129.2H-21v1.2h2.9zM-18.1 126.2h-2.8l.6.5v2.5h2.2M-12.2 129.2h2.2v-2.5l.6-.5h-2.8"/><path class="st14" d="M-22.5 140.4h14.7"/><path class="st12" d="M-17.3 137.9h4.4v3.8h-4.4z"/><path d="M-14.4 141.7h-1.5v-1.9c0-.3.3-.6.6-.6h.2c.3 0 .6.3.6.6v1.9z" style="fill:#c59852;stroke:#3f02a8;stroke-width:.5;stroke-linecap:round;stroke-linejoin:round;stroke-miterlimit:10"/><path class="st16" d="M-15.1 80v5"/><path class="st14" d="M-19.3 133.2v-.5M-20.5 133.2v-.5M-19.3 131.9v-.5M-20.5 131.9v-.5M-9.7 133.2v-.5M-11 133.2v-.5M-9.7 131.9v-.5M-11 131.9v-.5M-8.9 135.7v-.5M-10 135.7v-.5M-11.1 135.7v-.5M-8.9 137.5v-.5M-10 137.5v-.5M-11.1 137.5v-.5M-8.9 139.4v-.5M-10 139.4v-.5M-11.1 139.4v-.5M-13.7 136.9v-.5M-15.1 136.9v-.5M-16.6 136.9v-.5M-13.7 133.9v-.5M-15.1 133.9v-.5M-16.6 133.9v-.5M-13.7 135.4v-.5M-15.1 135.4v-.5M-16.6 135.4v-.5M-13.7 132.4v-.5M-15.1 132.4v-.5M-16.6 132.4v-.5M-13.7 130.9v-.5M-15.1 130.9v-.5M-16.6 130.9v-.5M-13.7 129.5v-.5M-15.1 129.5v-.5M-16.6 129.5v-.5M-13.7 128v-.5M-15.1 128v-.5M-12.2 128v-.5M-16.6 128v-.5M-18.1 128v-.5M-13.7 125v-.5M-15.1 125v-.5M-12.2 125v-.5M-16.6 125v-.5M-18.1 125v-.5M-13.7 126.5v-.5M-15.1 126.5v-.5M-16.6 126.5v-.5M-13.7 123.5v-.5M-15.1 123.5v-.5M-12.2 123.5v-.5M-16.6 123.5v-.5M-18.1 123.5v-.5M-13.7 122v-.5M-15.1 122v-.5M-12.2 122v-.5M-16.6 122v-.5M-18.1 122v-.5M-13.7 120.5v-.5M-15.1 120.5v-.5M-12.2 120.5v-.5M-16.6 120.5v-.5M-18.1 120.5v-.5M-13.7 119v-.5M-15.1 119v-.5M-12.2 119v-.5M-16.6 119v-.5M-18.1 119v-.5M-13.7 116v-.5M-15.1 116v-.5M-12.2 116v-.5M-16.6 116v-.5M-18.1 116v-.5M-13.7 117.5v-.5M-15.1 117.5v-.5M-12.2 117.5v-.5M-16.6 117.5v-.5M-18.1 117.5v-.5M-13.7 114.6v-.5M-15.1 114.6v-.5M-12.2 114.6v-.5M-16.6 114.6v-.5M-18.1 114.6v-.5M-13.7 113.1v-.5M-15.1 113.1v-.5M-12.2 113.1v-.5M-16.6 113.1v-.5M-18.1 113.1v-.5M-13.7 110.1v-.5M-15.1 110.1v-.5M-12.2 110.1v-.5M-16.6 110.1v-.5M-18.1 110.1v-.5M-13.7 111.6v-.5M-15.1 111.6v-.5M-12.2 111.6v-.5M-16.6 111.6v-.5M-18.1 111.6v-.5M-13.7 108.6v-.5M-15.1 108.6v-.5M-12.2 108.6v-.5M-16.6 108.6v-.5M-18.1 108.6v-.5M-13.7 107.1v-.5M-15.1 107.1v-.5M-12.2 107.1v-.5M-16.6 107.1v-.5M-18.1 107.1v-.5M-13.7 105.6v-.5M-15.1 105.6v-.5M-12.2 105.6v-.5M-16.6 105.6v-.5M-18.1 105.6v-.5M-13.7 104.1v-.5M-15.1 104.1v-.5M-12.2 104.1v-.5M-16.6 104.1v-.5M-18.1 104.1v-.5M-13.7 102.6v-.5M-15.1 102.6v-.5M-12.2 102.6v-.5M-16.6 102.6v-.5M-18.1 102.6v-.5M-19.1 135.7v-.5M-20.2 135.7v-.5M-21.3 135.7v-.5M-19.1 137.5v-.5M-20.2 137.5v-.5M-21.3 137.5v-.5M-19.1 139.4v-.5M-20.2 139.4v-.5M-21.3 139.4v-.5"/><path class="st17" d="m-15.1 93.2-.6 1.3h1.1zM-12.4 94.6l-1.6-.1v1z"/><path class="st17" d="m-13.4 93.7-1.6.6.9.7zM-17.9 94.6l1.6-.1v1z"/><path class="st17" d="m-16.9 93.7 1.6.6-.9.7zM-14.7 92.2l-.4-.9-.4.9h.8zM-13.4 91.8l-1.2.5c.3.1.6.1.8.3l.4-.8zM-16.9 91.8l.4.7c.2-.1.5-.2.8-.3l-1.2-.4zM-14.8 90.8l-.4-.8-.4.8h.8zM-13.7 90.4l-1 .4c.3 0 .5.1.7.2l.3-.6zM-16.6 90.4l.3.6c.2-.1.4-.2.7-.2l-1-.4zM-14.9 89.2l-.3-.6-.3.6h.3c.1-.1.2-.1.3 0zM-14.1 88.9l-.7.3c.2 0 .4.1.5.2l.2-.5z"/><path class="st17" d="m-16.2 88.9.2.5c.1-.1.3-.1.5-.2l-.7-.3zM-14.9 87.7l-.2-.5-.2.5c.1 0 .1.1.2.1 0 .1.1-.1.2-.1zM-14.2 87.5l-.7.3c.2 0 .3.1.4.1l.3-.4zM-16.1 87.5l.2.4c.1-.1.3-.1.4-.1l-.6-.3z"/><path class="st14" d="M-17.8 98.9v-.5M-17.8 97.4v-.5M-12.5 98.9v-.5M-12.5 97.4v-.5M-15.1 98.9v-.5M-15.1 97.4v-.5"/><path class="st5" d="M-7.8 133.9h-.4v-3.5c0-.1-.1-.3-.3-.3H-9v-1c0-.1-.1-.3-.3-.3h-.4v-2.1l.5-.4c.1-.1.1-.2.1-.3 0-.1-.2-.2-.3-.2h-1v-23.5l.6-1.2v-.2c-.1-.1-.1-.1-.2-.1h-.3v-1c0-.1-.1-.3-.3-.3h-.4v-4c0-.7-.2-1.3-.6-1.8v-.3c0-.6-.2-1.2-.6-1.7v-.2c0-.5-.2-1-.4-1.4v-.4c0-.5-.2-.9-.4-1.2V88c0-.6-.3-1.2-.9-1.5v-.9c0-.5-.4-.9-.9-1V80c0-.1-.1-.3-.3-.3v62.1h7.4c.2 0 .3-.1.3-.3V134c-.1 0-.2-.1-.4-.1z"/><path class="st18" d="m17.4 109.9-1.6-.1v1.2z"/><path class="st18" d="m16.5 108.6-1.4.7.8.8z"/><path class="st10" d="m14.7 107.6-.8 2h1.5zM11.9 109.9l1.7-.1v1.2z"/><path class="st10" d="m12.8 108.6 1.4.7-.8.8z"/><path class="st18" d="m14.7 107.6-.8 2h1.5zM11.9 109.9l1.7-.1v1.2z"/><path class="st18" d="m12.8 108.6 1.4.7-.8.8z"/><path class="st17" d="M14.7 112.1c-1.4 0-1.7-.8-1.8-.9v-.2c0-1 .8-1.8 1.8-1.8s1.8.8 1.8 1.8c-.1.3-.3 1.1-1.8 1.1z"/><path class="st19" d="M14.7 112.1c-1.4 0-1.7-.8-1.8-.9v-.2c0-1 .8-1.8 1.8-1.8s1.8.8 1.8 1.8v0h0c-.1.3-.3 1.1-1.8 1.1z"/><path class="st18" d="M10.5 112.3 8.8 114v-7.1h1.3zM12.5 114.4l-2-2.1-1.7 1.7 3.1 4.7z"/><path transform="rotate(45.001 19.013 119.968)" class="st18" d="M17.8 118.1h2.5v3.7h-2.5z"/><path class="st20" d="M19.5 120.4c.2-.2.6-.2.9 0l.4.4-.9.9-.4-.4c-.3-.3-.3-.7 0-.9z"/><path class="st18" d="M9.7 135.6h10v7.5h-10z"/><path class="st10" d="M12.2 137.9v5.2"/><path class="st18" d="M17.2 137.9v5.2M14.7 137.9v5.2"/><path class="st20" d="M9.2 134.4h11v1.2h-11z"/><path class="st18" d="M9.7 133.1h10v1.3h-10z"/><path class="st20" d="M9.2 131.9h11v1.2h-11z"/><path class="st18" d="M18.5 131.9H11l.9-13.2.6-4.3h4.7zM14.7 113.6h0c-.7 0-1.3-.6-1.3-1.2v-1.3c0-.7.6-1.3 1.3-1.3h0c.7 0 1.3.6 1.3 1.3v1.3c-.1.6-.6 1.2-1.3 1.2z"/><path class="st20" d="M14.7 114.8c-.3 0-.5-.2-.5-.5v-.8h1v.8c0 .3-.2.5-.5.5z"/><path class="st18" d="m11.9 119.7 5.3-5.3M17.6 119.5l-6.2 6.2M17.9 124.8l-6.9 6.9M16.3 126.4v5.5"/><path style="fill:#844bdd;stroke:#671cc9;stroke-width:.5;stroke-linejoin:round;stroke-miterlimit:10" d="m17.2 114.4 1.8 3.8-1.4 1.4z"/><path class="st18" d="M7.6 103.9h3.8v.8H7.6zM9.5 104.9v3.2"/><path class="st20" d="M10.7 106.2c0 .3-.3.6-.6.6H8.8v-1.3h1.3c.3.1.6.4.6.7z"/><path class="st18" d="M8.6 104.9h1.7M8.8 103.9s-1.1-.7-.3-1.8c.6-.8.4-1.7.3-2 0 0 1.6.3 2 1.9.3 1.4-.6 1.8-.6 1.8H8.8z"/><path class="st5" d="m21.4 119.3-1.8-1.8c-.1-.1-.3-.1-.4 0l-.2.2-1.6-3.5c0-.1-.1-.1-.2-.1h-1.8v-.5c.4-.3.7-.8.7-1.3v-.3c.4-.3.5-.7.5-.8v-.4l.9-.6c.1-.1.1-.2.1-.3 0-.1-.1-.2-.2-.2l-1.1-.1.4-.8c0-.1 0-.2-.1-.3-.1-.1-.2-.1-.3-.1l-1.1.5-.5-1.3c0-.1-.2-.2-.3-.2-.1 0 0 36 0 36h5.1c.1 0 .3-.1.3-.3v-7.3h.2c.1 0 .2-.1.2-.3v-1.2c0-.1-.1-.2-.3-.2h-.2v-.8h.3c.1 0 .2-.1.2-.3v-1.2c0-.1 0-.1-.1-.2 0 0-.1-.1-.2-.1h-1.5L18 122l.4.4c.1.1.3.1.4 0l.7-.7.3.3c.1.1.3.1.4 0l.9-.9c.1-.1.1-.3 0-.4l-.3-.3.7-.7c0-.1 0-.3-.1-.4z"/><path style="fill:#525dea;stroke:#3f02a8;stroke-width:.5;stroke-miterlimit:10" d="M-35.6 153.7h3.7v-2.5l-.3-6.2h-3l-.4 6.2z"/><path class="st11" d="M-35.6 151.2h3.7V150h-3.6z"/><defs><path id="XMLID_6_" d="M-56.2 143.7h82.5v1.3h-82.5z"/></defs><use xlink:href="#XMLID_6_" style="overflow:visible;fill:#844bdd"/><clipPath id="XMLID_8_"><use xlink:href="#XMLID_6_" style="overflow:visible"/></clipPath><path style="opacity:.3;clip-path:url(#XMLID_8_);fill:#525dea" d="M-56.2 144.3h82.5v.6h-82.5z"/><use xlink:href="#XMLID_6_" style="overflow:visible;fill:none;stroke:#671cc9;stroke-width:.5;stroke-miterlimit:10"/><path class="st13" d="M-35 128.2s-7.8 11.8-18.8 15.5"/><path class="st14" d="M-41.4 143.7v-8M-37.1 143.7V131M-49.9 143.7V142M-45.7 143.7v-4.4"/><path class="st13" d="M-32.3 128.2s7.3 11.8 17.5 15.5"/><path class="st14" d="M-26.4 143.7v-8M-30.3 143.7V131M-18.4 143.7V142M-22.4 143.7v-4.4"/><path class="st19" d="M3.4 128.2s-7.3 11.8-17.5 15.5M-2.6 143.7v-8"/><path class="st16" d="M1.4 143.7V131"/><path class="st14" d="M-10.5 143.7V142M-6.6 143.7v-4.4"/><path class="st10" d="M-35 125.6h2.5V145H-35z"/><path transform="rotate(-180 -33.747 126.183)" class="st11" d="M-35.2 125.6h3v1.3h-3z"/><path class="st20" d="M6.4 153.7H2.6v-2.5L3 145h3l.4 6.2z"/><path class="st20" d="M6.4 151.2H2.6l.1-1.2h3.6z"/><path class="st19" d="M5.7 128.2s7.8 11.8 18.8 15.5"/><path class="st16" d="M12.1 143.7v-8"/><path class="st19" d="M7.9 143.7V131"/><path class="st14" d="M20.7 143.7V142"/><path class="st16" d="M16.4 143.7v-4.4"/><path class="st18" d="M3.2 125.6h2.5V145H3.2z"/><path class="st20" d="M3 125.6h3v1.3H3z"/><path class="st5" d="M6.6 151.2v-.5l-.4-5.7c0-.1-.1-.2-.2-.2v-17.7c.1 0 .3-.1.3-.3v-1.3c0-.1-.1-.3-.3-.3H4.5V154h1.9c.1 0 .3-.1.3-.3l-.1-2.5zM-32.1 151.2v-.5l-.3-5.7c0-.1-.1-.2-.2-.2v-17.7c.1 0 .3-.1.3-.3v-1.3c0-.1-.1-.3-.3-.3h-1.5V154h1.9c.1 0 .3-.1.3-.3l-.2-2.5c.1 0 .1 0 0 0 .1 0 .1 0 0 0z"/><path d="M229 163h-92c-2.2 0-4-1.8-4-4V67c0-2.2 1.8-4 4-4h92c2.2 0 4 1.8 4 4v92c0 2.2-1.8 4-4 4z" style="fill:#fefefe;stroke:#3f02a8;stroke-width:.5;stroke-linecap:round;stroke-linejoin:round;stroke-miterlimit:10"/><path class="st11" d="M149.8 141.6h5l3.8-12.5h-4.4z"/><path class="st11" d="M158.2 130.4h-4.5l.5-1.3h4.4z"/><path class="st25" d="M162.3 90.4h-2.5l-2.5 22.5-2.2 13.7h4l1.5-13.7z"/><path class="st13" d="m154.8 141.6-3.6-3.8h4.7l-3.4-3.8h4.4l-3.2-3.6M149.8 141.6l6.1-3.8M151.2 137.8l5.7-3.8M152.5 134l5.7-3.6"/><path class="st25" d="m159.1 126.6-3.4-3.9h3.8l-3.2-3.8h3.5l-2.9-3.5M154.9 126.6l4.6-3.9M155.7 122.7l4.1-3.8M156.3 118.9l4-3.5M160.5 112.9 158 107h3l-2.4-5.6h2.8l-2.2-5.5h2.7l-2.1-5.5M157.3 112.9l3.7-5.9M158 107l3.4-5.6M158.6 101.4l3.3-5.5M159.2 95.9l3.1-5.5"/><path class="st11" d="M174.8 141.6h-5l-3.7-12.5h4.4z"/><path class="st11" d="M166.5 130.4h4.4l-.4-1.3h-4.4z"/><path class="st25" d="M162.4 90.4h2.5l2.4 22.5 2.3 13.7h-4l-1.5-13.7z"/><path class="st13" d="m169.8 141.6 3.7-3.8h-4.7l3.4-3.8h-4.5l3.2-3.6M174.8 141.6l-6-3.8M173.5 137.8l-5.8-3.8M172.2 134l-5.7-3.6"/><path class="st25" d="m165.6 126.6 3.3-3.9h-3.7l3.1-3.8h-3.5l3-3.5M169.8 126.6l-4.6-3.9M168.9 122.7l-4.1-3.8M168.3 118.9l-3.9-3.5M164.1 112.9l2.6-5.9h-3l2.4-5.6h-2.9l2.3-5.5h-2.7l2.1-5.5M167.3 112.9l-3.6-5.9M166.7 107l-3.5-5.6M166.1 101.4l-3.3-5.5M165.5 95.9l-3.1-5.5"/><path class="st11" d="M166.5 130.4h-8.3l.4-1.3h7.5z"/><path class="st25" d="M159.8 87.9h5v2.5h-5z"/><path class="st11" d="M166.5 130.4h4.4l-.4-1.3h-4.4zM154.2 126.6h16.3v2.5h-16.3z"/><path class="st25" d="M156.9 112.9h10.8v2.5h-10.8zM161.6 80.4h1.5v7.5h-1.5z"/><path class="st11" d="M162.3 80.4h0c-.1 0-.3-.1-.3-.3v-4.5c0-.1.1-.3.3-.3h0c.1 0 .3.1.3.3v4.5c0 .2-.2.3-.3.3z"/><path class="st25" d="M156.9 114.1h10.9"/><path class="st11" d="M167.2 132.9s-1.4-1.3-4.9-1.3-4.9 1.3-4.9 1.3l.8-2.5h8.3l.7 2.5z"/><path class="st5" d="M169.7 141.9 167 133c-.3-.2-1.7-1.1-4.7-1.1v-5.5h2.9l-1.1-10.8h-1.8v-3h1.5l-1.5-22V75.1c.3 0 .5.2.5.5v4.5h.5v7.5h1.8v2.5l2.5 22.5h.4v2.7l1.8 11h.9v2.7l4.4 12.8h-5.4z" style="opacity:.1"/><path class="st10" d="M182.8 115.9h10v28.5h-10z"/><path class="st11" d="M184.7 140.6h6.3v2.5h-6.3z"/><path class="st10" d="M210.3 117.1h-17.5v5.3s1.9-3.9 8.7-3.9c6.8 0 8.8 3.9 8.8 3.9v-5.3zM210.3 115.9h10v28.5h-10z"/><path class="st11" d="M189.7 140.6h-3.8V135c0-1 .8-1.9 1.9-1.9h0c1 0 1.9.8 1.9 1.9v5.6zM213.5 140.6h3.8V135c0-1-.8-1.9-1.9-1.9h0c-1 0-1.9.8-1.9 1.9v5.6zM212.2 140.6h6.3v2.5h-6.3z"/><path class="st10" d="M182.3 129.3h10.5v1.3h-10.5z"/><path transform="rotate(180 215.58 129.928)" class="st10" d="M210.3 129.3h10.5v1.3h-10.5z"/><path class="st10" d="M185.3 121.1h5v3.8h-5z"/><path transform="rotate(180 215.325 122.982)" class="st10" d="M212.8 121.1h5v3.8h-5z"/><path class="st10" d="M182.8 115.9h37.5v1.3h-37.5zM182.3 112.1h38.5v1.3h-38.5zM182.3 107.1h38.5v1.3h-38.5zM182.8 113.4h37.5v2.5h-37.5z"/><path class="st10" d="M182.8 108.4h37.5v3.8h-37.5zM186.2 110.8v-1.1M189.6 110.8v-1.1M193 110.8v-1.1M196.5 110.8v-1.1M199.9 110.8v-1.1M203.3 110.8v-1.1M206.7 110.8v-1.1M210.1 110.8v-1.1M213.5 110.8v-1.1M216.9 110.8v-1.1"/><g class="st27"><path class="st9" d="M210.1 144.4v-22c-.1-.2-.6-1-1.7-1.8-1.2-.9-3.3-1.9-6.8-1.9h-.3v-11.8h19.8v1.8h-.5v3.3h.5v1.8h-.5v15.5h.5v1.8h-.5v13.6h-10.5z"/></g><path class="st25" d="M225.5 141.9h-85c-.7 0-1.2.6-1.2 1.3 0 .7.6 1.3 1.2 1.3h85c.7 0 1.3-.6 1.3-1.3-.1-.8-.7-1.3-1.3-1.3z"/><path class="st5" d="M225.5 143.2h-85c-.7 0-1.2.3-1.2.7 0 .4.6.7 1.2.7h85c.7 0 1.3-.3 1.3-.7-.1-.4-.7-.7-1.3-.7z"/><path class="st10" d="M151.3 130.6h21.6v2.5h-21.6z"/><path class="st12" d="m200.8 129.3-42 .1-1.9-3.5 45.9-.1z"/><path class="st12" d="m145.1 129.4 3.4-6.3h6.9l3.4 6.3z"/><path class="st12" d="m149.7 125.9.5-.5c.5-.5 1.1-.7 1.7-.7h0c.6 0 1.3.3 1.7.7l.5.5h-4.4z"/><path class="st10" d="M145.1 136.9h13.7v5h-13.7z"/><path class="st18" d="M145.1 133.1h13.7v3.8h-13.7zM145.1 130.6h13.8v2.5h-13.8z"/><path class="st10" d="M148.5 133.1v-1"/><path class="st18" d="M152 133.1v-1M155.4 133.1v-1M149.3 136.9h-1.5v-1.8c0-.4.3-.8.7-.8h0c.4 0 .8.3.8.7v1.9z"/><path class="st10" d="m148.5 134.4.1 2.5M147.8 135.6h1.5"/><path class="st18" d="M154.2 141.9h-4.5v-1.3c0-1.2 1-2.3 2.2-2.3h0c1.2 0 2.3 1 2.3 2.2v1.4zM152 139.4v2.5M149.7 125.9h4.5v3.5h-4.5zM152.7 136.9h-1.5v-1.8c0-.4.3-.8.7-.8h0c.4 0 .8.3.8.7v1.9zM152 134.4v2.5M151.2 135.6h1.5M156.1 136.9h-1.5v-1.8c0-.4.3-.8.7-.8h0c.4 0 .8.3.8.7v1.9zM155.4 134.4v2.5M154.6 135.6h1.5"/><path class="st18" d="M152.7 129.4h-1.5v-1.8c0-.4.3-.8.7-.8h0c.4 0 .8.3.8.7v1.9zM152 126.9v2.5M151.2 128.1h1.5"/><path class="st14" d="M145.1 129.4v-1.3"/><path class="st16" d="M158.8 130.6v-2.5"/><path class="st14" d="M200.8 129.3v-1.2"/><path transform="translate(-.157 .187)" class="st18" d="M158.8 136.9h14.1v5h-14.1z"/><path transform="translate(-.152 .187)" class="st18" d="M158.8 133.1h14.1v3.8h-14.1z"/><path class="st18" d="M162.5 133.1v-1M165.9 133.1v-1M169.3 133.1v-1M164.7 141.9h-4.5v-1.3c0-1.2 1-2.3 2.2-2.3h0c1.2 0 2.3 1 2.3 2.2v1.4zM162.5 139.4v2.5M171.6 141.9h-4.5v-1.3c0-1.2 1-2.3 2.2-2.3h0c1.2 0 2.3 1 2.3 2.2v1.4zM169.3 139.4v2.5M163.2 136.9h-1.5v-1.8c0-.4.3-.8.7-.8h0c.4 0 .8.3.8.7v1.9zM162.5 134.4v2.5M161.7 135.6h1.5M166.6 136.9h-1.5v-1.8c0-.4.3-.8.7-.8h0c.4 0 .8.3.8.7v1.9zM165.9 134.4v2.5M165.1 135.6h1.5M170.1 136.9h-1.5v-1.8c0-.4.3-.8.7-.8h0c.4 0 .8.3.8.7v1.9zM169.3 134.4v2.5M168.6 135.6h1.5"/><path transform="translate(-.157 .218)" class="st10" d="M186.7 136.8h14.1v5h-14.1z"/><path transform="translate(-.152 .218)" class="st10" d="M186.7 133.1h14.1v3.8h-14.1z"/><path transform="translate(-.148 .217)" class="st10" d="M185.9 130.5h14.9v2.6h-14.9z"/><path class="st10" d="M193.7 133.1v-1M197.1 133.1v-1M194.5 136.8H193V135c0-.4.3-.8.7-.8h0c.4 0 .8.3.8.7v1.9zM193.7 134.3v2.5M193 135.6h1.5M199.4 141.8h-4.5v-1.3c0-1.2 1-2.3 2.2-2.3h0c1.2 0 2.3 1 2.3 2.2v1.4zM197.1 139.3v2.5M192.6 141.8h-4.5v-1.3c0-1.2 1-2.3 2.2-2.3h0c1.2 0 2.3 1 2.3 2.2v1.4zM190.3 139.3v2.5M197.9 136.8h-1.5V135c0-.4.3-.8.7-.8h0c.4 0 .8.3.8.7v1.9zM197.1 134.3v2.5M196.4 135.6h1.5M173 136.8h13.8v5H173z"/><path class="st18" d="M173 133.1h13.8v3.8H173zM173 130.6h13.8v2.5H173zM176.4 133.1v-1"/><path class="st10" d="M179.8 133.1v-1M183.2 133.1v-1M177.2 136.8h-1.5V135c0-.4.3-.8.7-.8h0c.4 0 .8.3.8.7v1.9zM176.4 134.4v2.5M175.7 135.6h1.5M182.1 141.8h-4.5v-1.3c0-1.2 1-2.3 2.2-2.3h0c1.2 0 2.3 1 2.3 2.2v1.4zM179.8 139.3v2.5M180.6 136.8h-1.5V135c0-.4.3-.8.7-.8h0c.4 0 .8.3.8.7v1.9zM179.8 134.3v2.5M179.1 135.6h1.5M184 136.8h-1.5V135c0-.4.3-.8.7-.8h0c.4 0 .8.3.8.7v1.9zM183.2 134.3v2.5M182.5 135.6h1.5"/><path class="st12" d="M175.5 128.1h0v-4c0-1.3.6-2.6 1.6-3.1h0c1.7-1 3.9-1 5.6 0h0c1 .5 1.6 1.8 1.6 3.1v4h0-8.8z"/><path class="st12" d="m175.1 124.6 4.7-2.5 4.8 2.5z"/><path class="st18" d="M175.1 124.6h9.5v3.5h-9.5z"/><path class="st10" d="M180.6 128.1h-1.5v-1.8c0-.4.3-.8.7-.8h0c.4 0 .8.3.8.7v1.9zM179.8 125.6v2.5M179.1 126.9h1.5"/><path class="st18" d="M177.8 128.1h-1.5v-1.8c0-.4.3-.8.7-.8h0c.4 0 .8.3.8.7v1.9zM177.1 125.6v2.5M176.3 126.9h1.5"/><path class="st10" d="M183.3 128.1h-1.5v-1.8c0-.4.3-.8.7-.8h0c.4 0 .8.3.8.7v1.9zM182.6 125.6v2.5M181.8 126.9h1.5"/><path class="st16" d="m175.5 124.6-.1-2.8"/><path class="st14" d="M184.2 124.6v-2.8M179.8 120.2v-2.8M200.8 129.3l3.5-6.2h6.8l3.5 6.2z"/><path class="st14" d="m205.5 125.8.5-.5c.5-.5 1.1-.7 1.7-.7h0c.6 0 1.3.3 1.7.7l.5.5h-4.4z"/><path class="st10" d="M200.8 136.8h13.8v5h-13.8z"/><path class="st10" d="M200.8 133.1h13.8v3.8h-13.8zM200.8 130.6h13.8v2.5h-13.8z"/><path class="st18" d="M144.8 129.3h70v1.3h-70z"/><path class="st10" d="M204.3 133.1v-1M207.7 133.1v-1M211.1 133.1v-1M205.1 136.8h-1.5V135c0-.4.3-.8.7-.8h0c.4 0 .8.3.8.7v1.9zM204.3 134.3v2.5M203.6 135.6h1.5M210 141.8h-4.5v-1.3c0-1.2 1-2.3 2.2-2.3h0c1.2 0 2.3 1 2.3 2.2v1.4zM207.7 139.3v2.5M205.5 125.8h4.5v3.5h-4.5zM208.5 136.8H207V135c0-.4.3-.8.7-.8h0c.4 0 .8.3.8.7v1.9zM207.7 134.3v2.5M207 135.6h1.5M211.9 136.8h-1.5V135c0-.4.3-.8.7-.8h0c.4 0 .8.3.8.7v1.9zM211.1 134.3v2.5M210.4 135.6h1.5"/><path class="st10" d="M208.5 129.3H207v-1.8c0-.4.3-.8.7-.8h0c.4 0 .8.3.8.7v1.9zM207.7 126.8v2.5M207 128.1h1.5"/><path class="st14" d="M214.6 129.3v-1.2"/><path class="st10" d="M173 128.1h13.8v1.3H173zM190.3 133.1v-1M191.1 136.8h-1.5V135c0-.4.3-.8.7-.8h0c.4 0 .8.3.8.7v1.9zM190.3 134.3v2.5M189.6 135.6h1.5"/><path class="st28" d="M214.8 129.1v-1c0-.1-.1-.2-.3-.2-.1 0-.2.1-.2.3v.3l-3-5.4c0-.1-.1-.1-.2-.1h-3.4v19.3H214.6c.1 0 .2-.1.2-.3v-11c.1 0 .2-.1.2-.3v-1.3c.1-.2 0-.3-.2-.3z"/><path class="st18" d="M158.8 131.1v-1.7"/><path class="st10" d="M186.7 130.9v-1.6M200.8 130.9v-1.7"/><path class="st28" d="M187 128.1c0-.1-.1-.2-.3-.2h-1.9V124.6l-.2-.1V122c0-.1-.1-.2-.3-.2-.1 0-.2.1-.2.3v.2c-.3-.5-.7-1-1.2-1.3-.8-.5-1.7-.7-2.7-.8v-2.6c0-.1-.1-.2-.3-.2v25h7.1v-14.3zM172.7 142.1h-6.8v-16.5h8.9v2.3h-1.9c-.1 0-.2.1-.2.2v14z"/><path class="st28" d="M187 142.1h6.8v-16.5h-8.9v2.3h1.9c.1 0 .3.1.3.2l-.1 14z"/><path class="st10" d="M173 131v-1.7"/><path class="st28" d="M159.1 129.1v-1c0-.1-.1-.2-.3-.2-.1 0-.2.1-.2.3v.3l-3-5.4c0-.1-.1-.1-.2-.1H152v19.3H158.9c.1 0 .3-.1.2-.3v-11c.1 0 .3-.1.2-.3v-1.3c0-.2-.1-.3-.2-.3z"/><path class="st18" d="m181.2 129.9-18.7 16.2 18.7 2.5 18.8-2.5z"/><path class="st18" d="M181.2 149.8v-15l-12.5 12.7zM181.2 149.8v-15l12.5 12.7z"/><path class="st10" d="m172.7 148.2 8.5-8.4M177 148.9l4.2-4.1"/><path class="st18" d="m172.7 148.2 8.5-8.4M177 148.9l4.2-4.1M176.9 139.2l.1 9.7M172.5 143.7l.2 4.5M189.7 148.2l-8.5-8.4M185.4 148.9l-4.2-4.1M185.6 139.2l-.2 9.7"/><path class="st10" d="m189.9 143.7-.2 4.5"/><image style="overflow:visible;opacity:.4" width="182" height="182" xlink:href="790CE98D.png" transform="translate(0 24.3)"/><defs><path id="XMLID_58_" d="m101 152.2-9.1-11.3 1-1 9.6 9.5z"/></defs><clipPath id="XMLID_9_"><use xlink:href="#XMLID_58_" style="overflow:visible"/></clipPath><defs><path id="XMLID_57_" d="M113 150.5h21v1.5h-21z"/></defs><clipPath id="XMLID_10_"><use xlink:href="#XMLID_57_" style="overflow:visible"/></clipPath><defs><path id="XMLID_56_" d="m76.9 152.2 9.2-11.3-1.1-1-9.5 9.5z"/></defs><clipPath id="XMLID_11_"><use xlink:href="#XMLID_56_" style="overflow:visible"/></clipPath><defs><path id="XMLID_55_" d="M44 150.5h21v1.5H44z"/></defs><clipPath id="XMLID_12_"><use xlink:href="#XMLID_55_" style="overflow:visible"/></clipPath><path d="M145 173.3H33c-2.2 0-4-1.8-4-4v-112c0-2.2 1.8-4 4-4h112c2.2 0 4 1.8 4 4v112c0 2.2-1.8 4-4 4z" style="fill:#fff;stroke:#ff57a4;stroke-width:.5;stroke-miterlimit:10"/><path class="st19" d="M51.5 105.5c0 20.7 16.8 37.5 37.5 37.5s37.5-16.8 37.5-37.5S109.7 68 89 68s-37.5 16.8-37.5 37.5zm5 0C56.5 87.6 71 73 89 73s32.5 14.6 32.5 32.5c0 18-14.6 32.5-32.5 32.5s-32.5-14.5-32.5-32.5z"/><path class="st19" d="m51.5 105.5 5.3-4.6L53 95l6.4-3-2-6.7 7-1v-7.1l7 1 2-6.8 6.4 2.9 3.8-5.9L89 73l5.3-4.6 3.8 5.9 6.5-2.9 2 6.8 6.9-1 .1 7.1 6.9 1-1.9 6.7 6.4 3-3.8 5.9 5.3 4.6-5.3 4.7 3.8 5.9-6.4 3 1.9 6.7-6.9 1-.1 7.1-6.9-1-2 6.8-6.5-3-3.8 6-5.3-4.6-5.4 4.6-3.8-6-6.4 3-2-6.8-7 1v-7.1l-7-1 2-6.7-6.4-3 3.8-5.9zM89 73v65M121.4 105.5H56.5M111.9 82.5 66 128.4M111.9 128.4 66 82.5M101.3 75.5l-24.7 60M119 117.8 59 93.1M118.9 93 59 118M101.5 135.5l-25-60"/><path class="st30" d="M82.4 69.3h2.5c.7 0 1.3-.6 1.3-1.3 0-.7-.6-1.3-1.3-1.3h-2.5c-.7 0-1.3.6-1.3 1.3.1.7.6 1.3 1.3 1.3zM71.6 73h2.5c.7 0 1.3-.6 1.3-1.3 0-.7-.6-1.3-1.3-1.3h-2.5c-.7 0-1.3.6-1.3 1.3 0 .8.6 1.3 1.3 1.3zM63.1 78.5h2.5c.7 0 1.3-.6 1.3-1.3 0-.7-.6-1.3-1.3-1.3h-2.5c-.7 0-1.3.6-1.3 1.3.1.7.6 1.3 1.3 1.3zM56.1 86.7h2.5c.7 0 1.3-.6 1.3-1.3 0-.7-.6-1.3-1.3-1.3h-2.5c-.7 0-1.3.6-1.3 1.3 0 .7.6 1.3 1.3 1.3zM51 96.5h3.8c.3 0 .6-.3.6-.6v-1.3c0-.3-.3-.6-.6-.6H51c-.3 0-.6.3-.6.6v1.3c0 .3.3.6.6.6zM50.2 106.8h2.5c.7 0 1.3-.6 1.3-1.3 0-.7-.6-1.3-1.3-1.3h-2.5c-.7 0-1.3.6-1.3 1.3.1.7.6 1.3 1.3 1.3zM51.7 117h2.5c.7 0 1.3-.6 1.3-1.3 0-.7-.6-1.3-1.3-1.3h-2.5c-.7 0-1.3.6-1.3 1.3.1.8.6 1.3 1.3 1.3zM56 126.7h2.5c.7 0 1.3-.6 1.3-1.3 0-.7-.6-1.3-1.3-1.3H56c-.7 0-1.3.6-1.3 1.3 0 .8.6 1.3 1.3 1.3zM62.8 135.1h2.5c.7 0 1.3-.6 1.3-1.3 0-.7-.6-1.3-1.3-1.3h-2.5c-.7 0-1.3.6-1.3 1.3 0 .7.6 1.3 1.3 1.3zM71.8 140.8h2.5c.7 0 1.3-.6 1.3-1.3 0-.7-.6-1.3-1.3-1.3h-2.5c-.7 0-1.3.6-1.3 1.3.1.7.6 1.3 1.3 1.3zM82.3 143.9h2.5c.7 0 1.3-.6 1.3-1.3 0-.7-.6-1.3-1.3-1.3h-2.5c-.7 0-1.3.6-1.3 1.3 0 .7.6 1.3 1.3 1.3z"/><path class="st25" d="M82.4 69.3h2.5c.7 0 1.3-.6 1.3-1.3h0c0-.7-.6-1.3-1.3-1.3h-2.5c-.7 0-1.3.6-1.3 1.3h0c.1.7.6 1.3 1.3 1.3zM71.6 73h2.5c.7 0 1.3-.6 1.3-1.3h0c0-.7-.6-1.3-1.3-1.3h-2.5c-.7 0-1.3.6-1.3 1.3h0c0 .8.6 1.3 1.3 1.3zM63.1 78.5h2.5c.7 0 1.3-.6 1.3-1.3h0c0-.7-.6-1.3-1.3-1.3h-2.5c-.7 0-1.3.6-1.3 1.3h0c.1.7.6 1.3 1.3 1.3zM56.1 86.7h2.5c.7 0 1.3-.6 1.3-1.3h0c0-.7-.6-1.3-1.3-1.3h-2.5c-.7 0-1.3.6-1.3 1.3h0c0 .7.6 1.3 1.3 1.3zM51 96.5h3.8c.3 0 .6-.3.6-.6v-1.3c0-.3-.3-.6-.6-.6H51c-.3 0-.6.3-.6.6v1.3c0 .3.3.6.6.6zM50.2 106.8h2.5c.7 0 1.3-.6 1.3-1.3h0c0-.7-.6-1.3-1.3-1.3h-2.5c-.7 0-1.3.6-1.3 1.3h0c.1.7.6 1.3 1.3 1.3zM51.7 117h2.5c.7 0 1.3-.6 1.3-1.3h0c0-.7-.6-1.3-1.3-1.3h-2.5c-.7 0-1.3.6-1.3 1.3h0c.1.8.6 1.3 1.3 1.3zM56 126.7h2.5c.7 0 1.3-.6 1.3-1.3h0c0-.7-.6-1.3-1.3-1.3H56c-.7 0-1.3.6-1.3 1.3h0c0 .8.6 1.3 1.3 1.3zM62.8 135.1h2.5c.7 0 1.3-.6 1.3-1.3h0c0-.7-.6-1.3-1.3-1.3h-2.5c-.7 0-1.3.6-1.3 1.3h0c0 .7.6 1.3 1.3 1.3z"/><path class="st30" d="M71.8 140.8h2.5c.7 0 1.3-.6 1.3-1.3 0-.7-.6-1.3-1.3-1.3h-2.5c-.7 0-1.3.6-1.3 1.3.1.7.6 1.3 1.3 1.3z"/><path class="st25" d="M82.3 143.9h2.5c.7 0 1.3-.6 1.3-1.3h0c0-.7-.6-1.3-1.3-1.3h-2.5c-.7 0-1.3.6-1.3 1.3h0c0 .7.6 1.3 1.3 1.3zM95.5 69.3H93c-.7 0-1.3-.6-1.3-1.3h0c0-.7.6-1.3 1.3-1.3h2.5c.7 0 1.3.6 1.3 1.3h0c0 .7-.6 1.3-1.3 1.3zM106.4 73h-2.5c-.7 0-1.3-.6-1.3-1.3h0c0-.7.6-1.3 1.3-1.3h2.5c.7 0 1.3.6 1.3 1.3h0c-.1.8-.6 1.3-1.3 1.3zM114.8 78.5h-2.5c-.7 0-1.3-.6-1.3-1.3h0c0-.7.6-1.3 1.3-1.3h2.5c.7 0 1.3.6 1.3 1.3h0c0 .7-.6 1.3-1.3 1.3zM121.9 86.7h-2.5c-.7 0-1.3-.6-1.3-1.3h0c0-.7.6-1.3 1.3-1.3h2.5c.7 0 1.3.6 1.3 1.3h0c-.1.7-.6 1.3-1.3 1.3zM126.9 96.5h-3.8c-.3 0-.6-.3-.6-.6v-1.3c0-.3.3-.6.6-.6h3.8c.3 0 .6.3.6.6v1.3c0 .3-.2.6-.6.6zM127.7 106.8h-2.5c-.7 0-1.3-.6-1.3-1.3h0c0-.7.6-1.3 1.3-1.3h2.5c.7 0 1.3.6 1.3 1.3h0c0 .7-.6 1.3-1.3 1.3zM126.2 117h-2.5c-.7 0-1.3-.6-1.3-1.3h0c0-.7.6-1.3 1.3-1.3h2.5c.7 0 1.3.6 1.3 1.3h0c0 .8-.6 1.3-1.3 1.3zM122 126.7h-2.5c-.7 0-1.3-.6-1.3-1.3h0c0-.7.6-1.3 1.3-1.3h2.5c.7 0 1.3.6 1.3 1.3h0c0 .8-.6 1.3-1.3 1.3zM115.2 135.1h-2.5c-.7 0-1.3-.6-1.3-1.3h0c0-.7.6-1.3 1.3-1.3h2.5c.7 0 1.3.6 1.3 1.3h0c0 .7-.6 1.3-1.3 1.3z"/><path class="st30" d="M106.2 140.8h-2.5c-.7 0-1.3-.6-1.3-1.3 0-.7.6-1.3 1.3-1.3h2.5c.7 0 1.3.6 1.3 1.3-.1.7-.7 1.3-1.3 1.3z"/><path class="st25" d="M95.7 143.9h-2.5c-.7 0-1.3-.6-1.3-1.3h0c0-.7.6-1.3 1.3-1.3h2.5c.7 0 1.3.6 1.3 1.3h0c-.1.7-.6 1.3-1.3 1.3z"/><path class="st12" d="M82.2 97.4h13.6v55.5H82.2z"/><path class="st19" d="M93.5 152.9v-45.1M91.3 152.9v-45.1M89 152.9v-45.1M86.7 152.9v-45.1M84.4 152.9v-45.1"/><path class="st12" d="M81.2 102.7h15.6v10.2H81.2zM83.9 88.7h10.2v3.4H83.9z"/><path class="st12" d="M83.2 102.7h11.6v10.2H83.2zM82.2 119h13.6v1.7H82.2zM82.2 127.5h13.6v1.7H82.2zM82.2 135.2h13.6v1.7H82.2zM82.2 143.7h13.6v1.7H82.2z"/><path class="st18" d="M84.9 107.8c0 2.3 1.8 4.1 4.1 4.1s4.1-1.8 4.1-4.1-1.8-4.1-4.1-4.1c-2.3.1-4.1 1.9-4.1 4.1z"/><path class="st19" d="M89 105.1v2.7h-1.4"/><path class="st16" d="M91.5 91.1v-1.4M89 91.1v-1.4M86.4 91.1v-1.4M95.8 97.4v-1.5M82.2 97.4v-1.5M81.2 102.7v-1.5M96.8 102.7v-1.5M83.9 88.7v-1.5M94.1 88.7v-1.5M89 75.1v-1.5M91.5 101v-1.4M89 101v-1.4M94.1 101v-1.4M86.4 101v-1.4M83.9 101v-1.4"/><path class="st25" d="M82.2 97.4h13.6s-1.7-2.7-1.7-5.3H83.9c0 2.7-1.7 5.3-1.7 5.3zM83.9 88.7h10.2C91.3 84 89 75.1 89 75.1s-2.3 8.9-5.1 13.6z"/><g class="st27"><path class="st5" d="M89 153.2v-80s.3.1.3.3V75c.8 2.7 2.7 9.3 4.5 12.6v-.4s.1-.3.3-.3c.2 0 .3.3.3.3v5.3s.1 2 1.1 3.8V96s0-.3.3-.3.3.3.3.3v6.5h1v10.8h-1v40H89z"/></g><path class="st25" d="M140 150.3H38c-.8 0-1.5.7-1.5 1.5s.7 1.5 1.5 1.5h102c.8 0 1.5-.7 1.5-1.5s-.7-1.5-1.5-1.5z"/><path class="st5" d="M140 152H38c-.8 0-1.5.4-1.5.8 0 .5.7.8 1.5.8h102c.8 0 1.5-.4 1.5-.8 0-.5-.7-.8-1.5-.8z"/><path class="st25" d="M75.5 131.9h27v3h-27z"/><path class="st5" d="M75.5 133.4h27v1.8h-27z"/><defs><path id="XMLID_54_" d="m101 152.2-9.1-11.3 1-1 9.6 9.5z"/></defs><use xlink:href="#XMLID_54_" style="overflow:visible;fill:#844bdd"/><clipPath id="XMLID_13_"><use xlink:href="#XMLID_54_" style="overflow:visible"/></clipPath><path style="opacity:.3;clip-path:url(#XMLID_13_);fill:#525dea" d="m91.9 140.4-.4.4 9.9 12 .6-1.3z"/><use xlink:href="#XMLID_54_" style="overflow:visible;fill:none;stroke:#671cc9;stroke-width:.5;stroke-linecap:round;stroke-linejoin:round;stroke-miterlimit:10"/><path class="st12" d="M102.5 130.2h9V149h-9z"/><path class="st18" d="M101 149h12v10.5h-12z"/><g class="st27"><path class="st5" d="M107 159.8v-38.9s.2 0 .3.2l2.1 4.3.3-1.2s.1-.2.3-.2c.1 0 .2.2.2.2l1.5 6v18.5h1.5v11.1H107z"/></g><path class="st19" d="M102.5 139.6h9v1.7h-9zM102.5 134.7h9v1.7h-9zM102.5 144.3h9v1.7h-9zM104.4 148.2v-1.4M107 148.2v-1.4M109.5 148.2v-1.4M104.4 143.5v-1.4M107 143.5v-1.4M109.5 143.5v-1.4M104.4 138.7v-1.4M107 138.7v-1.4M109.5 138.7v-1.4M104.4 133.8v-1.4M107 133.8v-1.4M109.5 133.8v-1.4"/><defs><path id="XMLID_53_" d="M113 150.5h21v1.5h-21z"/></defs><use xlink:href="#XMLID_53_" style="overflow:visible;fill:#844bdd"/><clipPath id="XMLID_14_"><use xlink:href="#XMLID_53_" style="overflow:visible"/></clipPath><path style="opacity:.3;clip-path:url(#XMLID_14_);fill:#525dea" d="M113 151.2h21v.8h-21z"/><use xlink:href="#XMLID_53_" style="overflow:visible;fill:none;stroke:#671cc9;stroke-width:.5;stroke-linecap:round;stroke-linejoin:round;stroke-miterlimit:10"/><path class="st18" d="M134 149h6v10.5h-6z"/><g class="st27"><path class="st5" d="M137 148.7h3.3v11.1H137z"/></g><path class="st19" d="M111.5 131.9s9.4 14.1 22.5 18.6M119.1 150.5v-9.7M116.6 150.5v-12.3"/><path class="st14" d="M121.7 150.5v-7.4"/><path class="st19" d="M114 150.5v-15.2M129.4 150.5v-2.1M126.8 150.5v-3.6M131.9 150.5v-.8M124.3 150.5v-5.3M121.7 150.5v-7.4"/><path class="st25" d="M111.5 130.2h-9l4.5-9z"/><path class="st25" d="M105.5 130.2h-3l1.5-6zM111.5 130.2h-3l1.5-6z"/><defs><path id="XMLID_52_" d="m76.9 152.2 9.2-11.3-1.1-1-9.5 9.5z"/></defs><use xlink:href="#XMLID_52_" style="overflow:visible;fill:#844bdd"/><clipPath id="XMLID_15_"><use xlink:href="#XMLID_52_" style="overflow:visible"/></clipPath><path style="opacity:.3;clip-path:url(#XMLID_15_);fill:#525dea" d="m86.1 140.4.4.4-9.9 12-.7-1.3z"/><use xlink:href="#XMLID_52_" style="overflow:visible;fill:none;stroke:#671cc9;stroke-width:.5;stroke-linecap:round;stroke-linejoin:round;stroke-miterlimit:10"/><path class="st12" d="M66.5 130.2h9V149h-9z"/><path class="st18" d="M65 149h12v10.5H65z"/><path class="st12" d="M66.5 139.6h9v1.7h-9zM66.5 134.7h9v1.7h-9zM66.5 144.3h9v1.7h-9z"/><path class="st25" d="M68.4 148.2v-1.4M71 148.2v-1.4M73.5 148.2v-1.4M68.4 143.5v-1.4M71 143.5v-1.4M73.5 143.5v-1.4M68.4 138.7v-1.4M71 138.7v-1.4M73.5 138.7v-1.4M68.4 133.8v-1.4M71 133.8v-1.4M73.5 133.8v-1.4"/><defs><path id="XMLID_51_" d="M44 150.5h21v1.5H44z"/></defs><use xlink:href="#XMLID_51_" style="overflow:visible;fill:#844bdd"/><clipPath id="XMLID_16_"><use xlink:href="#XMLID_51_" style="overflow:visible"/></clipPath><path style="opacity:.3;clip-path:url(#XMLID_16_);fill:#525dea" d="M44 151.2h21v.8H44z"/><use xlink:href="#XMLID_51_" style="overflow:visible;fill:none;stroke:#671cc9;stroke-width:.5;stroke-linecap:round;stroke-linejoin:round;stroke-miterlimit:10"/><path class="st18" d="M38 149h6v10.5h-6z"/><g class="st27"><path class="st5" d="M41 148.7h3.3v11.1H41z"/></g><path class="st19" d="M66.5 131.9S57.1 146 44 150.5M58.8 150.5v-9.7M61.4 150.5v-12.3"/><path class="st14" d="M56.3 150.5v-7.4"/><path class="st19" d="M63.9 150.5v-15.2M48.6 150.5v-2.1M51.1 150.5v-3.6M46 150.5v-.8M53.7 150.5v-5.3M56.3 150.5v-7.4"/><path class="st25" d="M75.5 130.2h-9l4.5-9z"/><path class="st25" d="M69.5 130.2h-3l1.5-6zM75.5 130.2h-3l1.5-6z"/><g class="st27"><path class="st5" d="M71 159.8v-38.9s.2 0 .3.2l2.1 4.3.3-1.2s.1-.2.3-.2c.1 0 .2.2.2.2l1.5 6v18.5h1.5v11.1H71z"/></g><defs><path id="XMLID_50_" d="m101 152.2-9.1-11.3 1-1 9.6 9.5z"/></defs><clipPath id="XMLID_17_"><use xlink:href="#XMLID_50_" style="overflow:visible"/></clipPath><defs><path id="XMLID_49_" d="M113 150.5h21v1.5h-21z"/></defs><clipPath id="XMLID_18_"><use xlink:href="#XMLID_49_" style="overflow:visible"/></clipPath><defs><path id="XMLID_48_" d="m76.9 152.2 9.2-11.3-1.1-1-9.5 9.5z"/></defs><clipPath id="XMLID_19_"><use xlink:href="#XMLID_48_" style="overflow:visible"/></clipPath><defs><path id="XMLID_47_" d="M44 150.5h21v1.5H44z"/></defs><clipPath id="XMLID_20_"><use xlink:href="#XMLID_47_" style="overflow:visible"/></clipPath><path id="XMLID_1_" style="fill:none" d="M0 0h178v190H0z"/><path transform="rotate(-30 33.5 21.932)" class="st36" d="M28.5 16.9h10v10h-10z"/><path class="st36" d="m80.4 198.5 4.1-14.1-13.2 4.8zM130.3 41c0 1.9-1.5 3.4-3.4 3.4s-3.4-1.5-3.4-3.4 1.5-3.4 3.4-3.4 3.4 1.5 3.4 3.4z"/></g></svg>