<svg version="1.1" id="Layer_1" xmlns="http://www.w3.org/2000/svg" x="0" y="0" viewBox="0 0 110 110" style="enable-background:new 0 0 110 110" xml:space="preserve"><style>.st0{fill:#671cc9}.st2{fill:#ff227d}.st3,.st4{fill:#413456}.st4{fill-rule:evenodd;clip-rule:evenodd}</style><path class="st0" d="m17.5 58 3.4-8.9-6.1-.2 11.8-11.8-3.4 8.9 6.1.2L17.5 58z"/><path d="M68.3 53c.2.5.3 1.1.3 1.7v.6c.1.5.1 1 0 1.5.4 1.6 0 3.4-1.2 4.5-.1 1.3-.7 2.6-1.9 3.4-1.3 2.6-2.6 5.2-3 8.2 0 .4-.1.8-.2 1.1.3.2.5.4.7.6.2-.1.4-.1.6-.1.4 0 .9.2 1.2.5.3.3.4.7.5 1.2.1.6-.1 1.2-.5 1.6-.4.5-.9.8-1.5 1-.5.2-1 0-1.4-.2-.5.2-1.1.3-1.7.1-.2.1-.5.2-.8.3-1.6.2-3.2.1-4.7-.1-2.3 0-4.7.1-7 .3-.8.1-1.3-.4-1.5-.9-1.3-.4-2-2.3-.5-3 .8-.4 1.7-.6 2.6-.6-.3-.6-.4-1.2-.3-1.9v-.3c-.2-.2-.3-.4-.5-.6-.5-.8-.7-2-.5-3-.1-.1-.1-.2-.1-.4-.3-.3-.5-.6-.8-.9-.3-.4-.4-.9-.5-1.4-.1-.1-.2-.2-.4-.3-.5-.5-.9-1.2-1.1-2-.5-.3-.9-.8-1.2-1.3-.4-.6-.6-1.3-.6-1.9-.4-.5-.7-1-.9-1.6-.3-.9-.2-2 .2-2.9-.3-.9-.3-1.9-.1-2.7 0-.1 0-.1.1-.2-4.8 3.9-7.8 9.9-7.8 16.6 0 11.8 9.6 21.5 21.5 21.5 11.8 0 21.5-9.6 21.5-21.5-.3-6.9-3.5-13-8.5-16.9z" style="fill:#eae3ff"/><path class="st0" d="M89.3 55.4h-2.7v-1.9c-.9-.1-1.8-.3-2.4-.6l-.3-.2.7-2.8.5.2c.3.1 1.3.6 2.4.6.5 0 1.2-.1 1.2-.7 0-.3-.1-.6-1.5-1.1-2.1-.7-3.1-1.9-3.1-3.5 0-1.5.9-2.7 2.5-3.3v-2.4h2.7V42c.7.1 1.4.2 2 .5l.3.1-.7 2.7-.4-.2c-.6-.3-1.3-.5-2-.5s-1.1.2-1.1.6c0 .4.3.6 1.7 1.1 2 .7 3 1.9 3 3.5s-1 2.8-2.6 3.4v2.2z"/><path class="st2" d="m55 30.8-5.4-8.3h2.9v-9.7h4.9v9.7h2.9L55 30.8zM55 88c-4 0-7.3-3.3-7.3-7.3v-1.8h14.7v1.8c0 4-3.3 7.3-7.4 7.3z"/><ellipse class="st0" cx="55" cy="58.8" rx="5.4" ry="8.2"/><path class="st3" d="M62.8 75H47.2v-.4c0-3.6-1.2-7.1-3.4-9.9-2.3-2.9-3.4-6.5-3.1-10.1.6-7 6.3-12.6 13.3-13.1 4-.3 7.9 1.1 10.8 3.8 2.9 2.7 4.6 6.5 4.6 10.5 0 3.3-1.1 6.5-3.2 9-2.2 2.7-3.4 6.2-3.4 9.8v.4zM48 74.2h13.9c.1-3.7 1.3-7.2 3.5-9.9 1.9-2.4 3-5.4 3-8.5 0-3.7-1.6-7.3-4.3-9.9-2.8-2.6-6.4-3.9-10.2-3.6-6.6.5-12 5.8-12.5 12.4-.3 3.5.8 6.9 2.9 9.6 2.4 2.7 3.6 6.2 3.7 9.9zM55 88.4c-4.3 0-7.8-3.5-7.8-7.8v-2.3h15.6v2.3c0 4.3-3.5 7.8-7.8 7.8zm-7-9.3v1.5c0 3.8 3.1 7 7 7 3.8 0 7-3.1 7-7v-1.5H48z"/><path class="st3" d="m55 67.7-.2-.1c-3.5-1.5-5.7-5-5.7-8.8 0-3.8 2.3-7.3 5.7-8.8h.2l.2.1c3.5 1.5 5.7 5 5.7 8.8 0 3.8-2.3 7.3-5.7 8.8H55zm0-16.8c-3.1 1.4-5.1 4.6-5.1 8 0 3.4 2 6.5 5.1 8 3.1-1.4 5.1-4.6 5.1-8 0-3.5-2-6.6-5.1-8z"/><path class="st3" d="M54.6 50.4h.8v23.9h-.8z"/><path transform="rotate(-41.123 52.653 57.802)" class="st3" d="M52.2 54.2h.8v7.2h-.8z"/><path class="st3" d="M63.3 79.1H46.7c-1.4 0-2.5-1.1-2.5-2.5s1.1-2.5 2.5-2.5h16.7c1.4 0 2.5 1.1 2.5 2.5-.1 1.4-1.2 2.5-2.6 2.5zM46.7 75c-.9 0-1.6.7-1.6 1.6 0 .9.7 1.6 1.6 1.6h16.7c.9 0 1.6-.7 1.6-1.6 0-.9-.7-1.6-1.6-1.6H46.7zM22.1 60.8c-7.3 0-13.3-5.9-13.3-13.3 0-7.3 5.9-13.3 13.3-13.3 7.3 0 13.3 5.9 13.3 13.3-.1 7.4-6 13.3-13.3 13.3zm0-25.7c-6.9 0-12.4 5.6-12.4 12.4 0 6.9 5.6 12.4 12.4 12.4 6.9 0 12.4-5.6 12.4-12.4 0-6.8-5.6-12.4-12.4-12.4z"/><path class="st3" d="m17.5 58 3.4-8.9-6.1-.2 11.8-11.8-3.4 8.9 6.1.2L17.5 58zm-.8-9.9 5.4.2-2.4 6.4 7.7-7.7-5.4-.2 2.4-6.4-7.7 7.7zM89.3 55.4h-2.7v-1.9c-.9-.1-1.8-.3-2.4-.6l-.3-.2.7-2.8.5.2c.3.1 1.3.6 2.4.6.5 0 1.2-.1 1.2-.7 0-.3-.1-.6-1.5-1.1-2.1-.7-3.1-1.9-3.1-3.5 0-1.5.9-2.7 2.5-3.3v-2.4h2.7V42c.7.1 1.4.2 2 .5l.3.1-.7 2.7-.4-.2c-.6-.3-1.3-.5-2-.5s-1.1.2-1.1.6c0 .4.3.6 1.7 1.1 2 .7 3 1.9 3 3.5s-1 2.8-2.6 3.4v2.2zm-1.9-.9h1.1v-2l.3-.1c1.5-.4 2.3-1.3 2.3-2.7 0-1.3-.7-2.1-2.4-2.7-1.2-.4-2.2-.8-2.2-1.9 0-.7.6-1.4 1.9-1.4.7 0 1.3.1 1.9.3l.3-1.1c-.5-.2-1.1-.3-1.7-.3h-.4v-2.1h-1.1v2.2l-.3.1c-1.4.4-2.2 1.3-2.2 2.6 0 1.2.8 2.1 2.6 2.7 1 .4 2 .8 2 1.9 0 .7-.5 1.5-2.1 1.5-1 0-1.8-.3-2.3-.5l-.3 1.1c.5.2 1.3.4 2.2.4h.4v2z"/><path class="st3" d="M87.9 60.8c-7.3 0-13.3-5.9-13.3-13.3 0-7.3 5.9-13.3 13.3-13.3 7.3 0 13.3 5.9 13.3 13.3s-5.9 13.3-13.3 13.3zm0-25.7c-6.9 0-12.4 5.6-12.4 12.4 0 6.9 5.6 12.4 12.4 12.4 6.9 0 12.4-5.6 12.4-12.4.1-6.8-5.5-12.4-12.4-12.4zM55 34.8c-7.3 0-13.3-5.9-13.3-13.3 0-7.3 5.9-13.3 13.3-13.3 7.3 0 13.3 5.9 13.3 13.3s-6 13.3-13.3 13.3zm0-25.7c-6.9 0-12.4 5.6-12.4 12.4C42.6 28.4 48.1 34 55 34s12.4-5.6 12.4-12.4c0-6.9-5.5-12.5-12.4-12.5z"/><path class="st3" d="m55 30.8-5.4-8.3h2.9v-9.7h4.9v9.7h2.9L55 30.8zm-3.9-7.5 3.9 6 3.9-6h-2.2v-9.7h-3.3v9.7h-2.3z"/><path class="st4" d="m87.5 78.5-1.6-.5c-.1.4-.3.9-.5 1.3s-.3.8-.5 1.3l1.5.7c.2-.4.4-.9.6-1.3.2-.6.4-1.1.5-1.5zM88.8 73.5l-1.6-.3-.1.7-.2.7c-.1.4-.2.9-.3 1.3l1.6.4c.1-.5.2-.9.3-1.4l.2-.7.1-.7zM89.4 68.4l-1.7-.1c0 .5 0 .9-.1 1.4 0 .5-.1.9-.1 1.4l1.7.2c.1-.5.1-.9.1-1.4 0-.5.1-1 .1-1.5zM79.4 91.5l-1.2-1.2c-.6.6-1.3 1.3-2 1.9l1.1 1.3c.8-.7 1.4-1.3 2.1-2zM82.8 87.6l-1.3-1c-.3.4-.6.7-.8 1.1-.3.4-.6.7-.9 1l1.3 1.1c.3-.4.6-.7.9-1.1.2-.4.5-.7.8-1.1zM85.5 83.2l-1.5-.7c-.2.4-.4.8-.7 1.2l-.3.5-.4.6 1.4.9.4-.6.4-.6c.2-.4.5-.8.7-1.3zM66.5 99.7l-.6-1.6-1.3.4-1.3.4.4 1.6 1.4-.4c.5-.1.9-.3 1.4-.4zM71.2 97.6l-.8-1.4-1.2.6-1.2.5.6 1.6 1.3-.6zM75.5 94.9l-1-1.3-1.1.8c-.4.3-.8.5-1.1.7l.9 1.4c.4-.3.8-.5 1.2-.8l1.1-.8zM51.3 101.5l.2-1.7-1.4-.2c-.4-.1-.9-.2-1.3-.2l-.3 1.6c.5.1.9.2 1.4.2l1.4.3zM56.4 101.6V100h-2.8v1.6l1.4.1zM61.5 101l-.3-1.6c-.4.1-.9.2-1.3.2l-1.4.2.2 1.7 1.4-.2c.5-.1.9-.2 1.4-.3zM36.8 96.5l.9-1.4c-.4-.2-.8-.5-1.1-.7l-1.1-.8-1 1.3 1.2.8c.3.3.7.5 1.1.8zM41.4 98.9l.6-1.6-1.2-.5-1.2-.7-.8 1.5 1.3.7zM46.2 100.5l.4-1.6-1.3-.4-1.3-.4-.5 1.6 1.3.4zM26 85.7l1.4-.9-.4-.6-.3-.6c-.2-.4-.5-.8-.7-1.2l-1.5.8c.2.4.5.8.7 1.3l.4.6.4.6zM29 89.8l1.3-1.1c-.3-.3-.6-.7-.9-1-.3-.4-.6-.7-.8-1.1l-1.3 1c.3.4.6.8.9 1.1.2.4.5.7.8 1.1zM32.7 93.4l1.1-1.3c-.7-.6-1.4-1.2-2-1.9l-1.2 1.2c.6.7 1.3 1.4 2.1 2zM20.8 71.3l1.7-.2c-.1-.4-.1-.9-.1-1.4 0-.5-.1-.9-.1-1.4l-1.7.1c0 .5 0 1 .1 1.4 0 .5.1 1 .1 1.5zM21.8 76.3l1.6-.4c-.1-.4-.2-.9-.3-1.3l-.2-.7-.1-.7-1.6.3.1.7.2.7c.1.5.2 1 .3 1.4zM23.5 81.1l1.5-.7c-.2-.4-.4-.8-.5-1.3l-.3-.6-.2-.6-1.6.5.2.7.3.7c.2.5.4.9.6 1.3zM20.6 66.1l1.7.1c0-.5 0-.9.1-1.4 0-.5.1-.9.1-1.4l-1.7-.2c-.1.5-.1.9-.1 1.4 0 .5-.1 1-.1 1.5zM89.2 63.3l-1.7.2c.1.4.1.9.1 1.4 0 .5.1.9.1 1.4l1.7-.1c0-.5 0-1-.1-1.4 0-.6-.1-1.1-.1-1.5z"/></svg>