<svg version="1.1" id="Layer_1" xmlns="http://www.w3.org/2000/svg" x="0" y="0" viewBox="0 0 110 110" style="enable-background:new 0 0 110 110" xml:space="preserve"><style>.st2{fill:#ff227d}.st3{fill:#797bf2}.st4,.st5{fill:#6a6377}.st5{fill-rule:evenodd;clip-rule:evenodd}.st6{fill:#9da1ea}</style><path d="M56 87.9c-.4 0-.7-.1-1-.2-1.7.1-3.4.1-5.1.1-.3 0-.5 0-.7-.1-.3.2-.7.3-1.1.4-1.3.2-2.5.2-3.8.2 3.2 1.9 6.9 2.9 10.8 2.9 4.3 0 8.2-1.3 11.6-3.4-3.6.2-7.2.1-10.7.1z" style="fill:#eae3ff"/><path d="M66.9 83.1c.6 0 1.2-.1 1.8-.1h.8c.8 0 1.3.5 1.5 1.1 3.4-3.8 5.4-8.8 5.4-14.2 0-11.8-9.6-21.4-21.4-21.4S33.7 58 33.7 69.8c0 5.2 1.9 10 4.9 13.7.3-.2.7-.2 1.1-.2.7.1 1.3.1 2 .2v-19h-5.1l17.7-15 17.7 15h-5.1v18.6z" style="fill:#d2d4ff"/><path class="st2" d="M61.4 22.3c-.3-.2-.4-.4-.4-.6 0-.3.2-.5.4-.7 0 0 .1 0 .1-.1.1 0 .1-.1.2-.1.9-.6 1.3-1.7.8-2.7-.2-.4-.4-.8-.7-1.2-.4-.7-1.1-1-1.8-.9-.4 0-.8.2-1.2.4-.3.1-.5.2-.8 0-.2-.1-.3-.3-.4-.6v-.4c0-1-.7-1.7-1.6-1.9-.4-.1-.7-.1-1.1-.1h-.1c-1.6 0-2.3.7-2.4 2.3 0 .3-.1.6-.4.7-.2.1-.5.1-.8-.1-.3-.2-.7-.3-1.1-.4-.7 0-1.4.3-2 1-.5.6-1 1.6-.8 2.5.2.8.7 1.2 1.2 1.5.3.2.4.4.4.6 0 .3-.2.5-.4.7l-.1.1-.1.1c-1 .6-1.3 1.7-.8 2.8.1.1.1.2.2.3.1.1.1.2.2.4.3.6.8 1.1 1.4 1.2.6.2 1.3.1 1.9-.3.2-.2.5-.2.7-.1.2.1.4.4.4.7v.4c0 1 .7 1.7 1.6 1.9.4.1.7.1 1.1.1h.1c1.6 0 2.3-.7 2.4-2.3 0-.3.1-.6.4-.7.2-.1.5-.1.8.1.2.1.5.2.7.3.1 0 .2.1.3.1l.4.1.1-.2h.2c.8-.2 1.4-1 1.6-1.4.5-.7.7-1.5.5-2.1-.1-.7-.6-1.1-1.1-1.4zM55 19c3.3 0 3.3 5.2 0 5.2-3.4 0-3.4-5.2 0-5.2z" id="cGZn9b.tif_5_"/><path class="st3" d="M96.9 51.8H82.5c-1.7-.2-3-1.7-3-3.5 0-1.9 1.6-3.5 3.5-3.5.8-1.8 2.6-3 4.6-3 2.7 0 5 2.2 5 4.9h.6c2.1 0 3.9 1.7 3.9 3.9 0 .3 0 .7-.1 1l-.1.2zM49.1 47.3h10.5v7.2l-5.1-4.4-5.4 4.2z"/><circle class="st3" cx="54.3" cy="63.7" r="3.7"/><path class="st2" d="M45 73.4h18.6v9.4H45z"/><ellipse class="st3" cx="22.1" cy="48.5" rx="4.7" ry="7.2"/><path class="st4" d="M22.1 60.8c-7.3 0-13.2-5.9-13.2-13.2 0-7.3 5.9-13.2 13.2-13.2 7.3 0 13.2 5.9 13.2 13.2.1 7.3-5.9 13.2-13.2 13.2zm0-25.6c-6.8 0-12.4 5.6-12.4 12.4 0 6.8 5.6 12.4 12.4 12.4 6.8 0 12.4-5.6 12.4-12.4 0-6.8-5.5-12.4-12.4-12.4zM87.9 60.8c-7.3 0-13.2-5.9-13.2-13.2 0-7.3 5.9-13.2 13.2-13.2 7.3 0 13.2 5.9 13.2 13.2 0 7.3-5.9 13.2-13.2 13.2zm0-25.6c-6.8 0-12.4 5.6-12.4 12.4C75.5 54.4 81 60 87.9 60c6.8 0 12.4-5.6 12.4-12.4 0-6.8-5.6-12.4-12.4-12.4zM55 34.9c-7.3 0-13.2-5.9-13.2-13.2 0-7.3 5.9-13.2 13.2-13.2 7.3 0 13.2 5.9 13.2 13.2 0 7.3-5.9 13.2-13.2 13.2zm0-25.6c-6.8 0-12.4 5.6-12.4 12.4S48.2 34.1 55 34.1c6.8 0 12.4-5.6 12.4-12.4S61.8 9.3 55 9.3z"/><path class="st5" d="m87.4 78.4-1.6-.5c-.1.4-.3.9-.5 1.3s-.3.8-.5 1.3l1.5.7c.2-.4.4-.9.5-1.3.3-.6.5-1 .6-1.5zM88.7 73.5l-1.6-.3-.1.6-.2.7c-.1.4-.2.9-.3 1.3l1.6.4c.1-.5.2-.9.3-1.4l.2-.7.1-.6zM89.3 68.4l-1.7-.1c0 .5 0 .9-.1 1.4 0 .5-.1.9-.1 1.4l1.6.2c.1-.5.1-.9.1-1.4.1-.5.2-1 .2-1.5zM79.4 91.4l-1.2-1.2c-.6.6-1.3 1.3-2 1.8l1.1 1.3c.7-.6 1.4-1.2 2.1-1.9zM82.7 87.5l-1.3-1c-.3.4-.6.7-.8 1.1-.3.4-.6.7-.9 1l1.3 1.1c.3-.4.6-.7.9-1.1.2-.3.5-.7.8-1.1zM85.4 83.2l-1.5-.8c-.2.4-.4.8-.7 1.2l-.3.6-.4.6 1.4.9.4-.6.4-.6c.2-.5.5-.9.7-1.3zM66.5 99.6l-.6-1.6-1.3.4-1.3.4.4 1.6 1.4-.4c.5-.1.9-.3 1.4-.4zM71.2 97.5l-.8-1.5-1.2.7-1.3.5.7 1.5 1.3-.5zM75.5 94.8l-1-1.3-1.1.8c-.4.3-.8.5-1.1.7l.9 1.4c.4-.3.8-.5 1.2-.8l1.1-.8zM51.3 101.3l.2-1.7-1.3-.2c-.4-.1-.9-.2-1.3-.2l-.3 1.6c.5.1.9.2 1.4.2l1.3.3zM56.4 101.5v-1.6h-2.8v1.6H55zM61.5 100.9l-.3-1.6c-.4.1-.9.2-1.3.2l-1.3.2.2 1.7 1.4-.2c.4-.1.8-.2 1.3-.3zM36.9 96.4l.9-1.4c-.4-.2-.8-.5-1.1-.7l-1.1-.8-1 1.3 1.2.8c.3.3.7.5 1.1.8zM41.4 98.7l.7-1.5-1.3-.5-1.2-.7-.8 1.5 1.3.7zM46.2 100.4l.5-1.6-1.4-.4-1.2-.4-.6 1.6 1.4.4zM26 85.6l1.4-.9-.4-.6-.3-.6c-.2-.4-.5-.8-.7-1.2l-1.5.8c.2.4.5.8.7 1.3l.4.6.4.6zM29.1 89.7l1.3-1.1c-.3-.3-.6-.7-.9-1-.3-.4-.6-.7-.8-1.1l-1.3 1c.3.4.6.8.9 1.1.2.4.5.8.8 1.1zM32.7 93.3l1.1-1.3c-.7-.6-1.3-1.2-2-1.8l-1.2 1.2c.7.6 1.4 1.3 2.1 1.9zM20.9 71.2l1.6-.2c-.1-.4-.1-.9-.1-1.4 0-.5-.1-.9-.1-1.4l-1.7.1c0 .5 0 1 .1 1.4.1.6.2 1.1.2 1.5zM21.9 76.3l1.6-.4c-.1-.4-.2-.9-.3-1.3l-.2-.8-.1-.7-1.6.3.1.7.2.7.3 1.5zM23.6 81.1l1.5-.7c-.2-.4-.4-.8-.5-1.3l-.2-.6-.2-.6-1.6.5.2.7.3.7c.1.4.3.8.5 1.3zM20.7 66.1l1.7.1c0-.5 0-.9.1-1.4 0-.5.1-.9.1-1.4l-1.6-.2c-.1.5-.1.9-.1 1.4-.1.5-.2 1-.2 1.5zM89.1 63.3l-1.6.2c.1.4.1.9.1 1.4 0 .5.1.9.1 1.4l1.7-.1c0-.5 0-1-.1-1.4-.1-.6-.2-1.1-.2-1.5z"/><path class="st4" d="M66.9 83.6H41.7V64.4h-5.1l17.7-15 17.7 15h-5.1v19.2zm-24.4-.8h23.6V63.6h3.7L54.3 50.5 38.9 63.6h3.7v19.2z"/><path class="st6" d="M54.3 67.7c-2.2 0-4-1.8-4-4s1.8-4 4-4 4 1.8 4 4c.1 2.2-1.7 4-4 4zm0-7.3c-1.8 0-3.2 1.4-3.2 3.2 0 1.8 1.4 3.2 3.2 3.2 1.8 0 3.2-1.4 3.2-3.2 0-1.7-1.4-3.2-3.2-3.2z"/><path class="st6" d="M53.9 60h.8v7.2h-.8z"/><path class="st6" d="M50.7 63.2h7.2v.8h-7.2z"/><path class="st4" d="M64 83.6H44.6V70.5H64v13.1zm-18.6-.8h17.8V71.3H45.4v11.5z"/><path class="st4" d="M45 73.4h18.6v.8H45zM60 54.5h-.8v-9.9h-9.7v9.9h-.8V43.7H60z"/><path class="st4" d="M49.1 46.9h10.5v.8H49.1zM71.3 88.4h-34v-5.6h34v5.6zm-33.1-.8h32.3v-3.9H38.2v3.9z"/><path class="st6" d="m22.1 55.9-.1-.1a8.13 8.13 0 0 1-4.8-7.4c0-3.2 1.9-6.1 4.8-7.4l.2-.1.2.1c2.9 1.3 4.8 4.2 4.8 7.4s-1.9 6.1-4.8 7.4l-.3.1zm0-14.1C19.6 43 18 45.6 18 48.4s1.6 5.4 4.2 6.6c2.5-1.2 4.2-3.8 4.2-6.6-.1-2.8-1.7-5.4-4.3-6.6z"/><path class="st6" d="M21.7 41.3h.8v14.1h-.8z"/><path transform="rotate(-41.123 20.177 47.514)" class="st6" d="M19.8 44.5h.8v6h-.8z"/><path class="st2" d="M55.2 29.9H55c-.4 0-.7 0-1.1-.1-.9-.2-1.6-.9-1.6-1.9v-.4c0-.3-.2-.6-.4-.7-.2-.1-.5-.1-.7.1-.6.4-1.3.5-1.9.3-.5-.2-1-.6-1.3-1.2-.1-.1-.1-.3-.2-.4-.1-.1-.1-.2-.2-.3-.5-1-.2-2.2.8-2.8l.1-.1.1-.1c.3-.2.4-.4.4-.7 0-.2-.2-.5-.4-.6-.5-.3-1-.7-1.2-1.5-.2-.9.2-1.9.8-2.5.6-.7 1.3-1.1 2-1 .4 0 .8.2 1.1.4.3.2.6.2.8.1.2-.1.3-.4.4-.7.1-1.6.8-2.3 2.4-2.3h.1c.4 0 .7 0 1.1.1.9.2 1.5.9 1.6 1.9v.4c0 .3.2.5.4.6.2.1.5.1.8 0 .4-.2.8-.4 1.2-.4.7-.1 1.3.2 1.8.9.2.4.5.8.7 1.2.5 1 .2 2.1-.8 2.7-.1 0-.1.1-.2.1 0 0-.1 0-.1.1-.3.2-.4.4-.4.7 0 .2.2.5.4.6.5.3 1 .7 1.2 1.5.1.6-.1 1.3-.5 2.1-.2.3-.8 1.2-1.6 1.4h-.2l-.1.2-.4-.1c-.1 0-.2-.1-.3-.1-.2-.1-.5-.2-.7-.3-.3-.2-.6-.2-.8-.1-.2.1-.3.4-.4.7-.1 1.5-.9 2.2-2.5 2.2zm-3.5-4c.2 0 .4.1.6.2.5.2.8.7.8 1.3v.5c0 .6.4 1.1 1 1.2.3.1.6.1.9.1h.1c1.1 0 1.5-.4 1.6-1.5 0-.6.3-1.1.8-1.4.5-.3 1.1-.2 1.6.1l.6.3h.5c.3-.1.8-.5 1.1-1 .3-.5.5-1.1.4-1.5-.1-.4-.3-.7-.8-1-.5-.3-.8-.8-.8-1.3s.3-1.1.8-1.4l.1-.1s.1 0 .1-.1c.6-.4.8-1.1.5-1.6-.2-.4-.4-.8-.6-1.1-.3-.4-.6-.6-1-.5-.3 0-.6.1-.9.3-.5.3-1.1.3-1.5 0-.4-.2-.7-.7-.8-1.2v-.5c0-.6-.4-1-.9-1.1-.3-.1-.6-.1-.9-.1h-.1c-1.2 0-1.5.4-1.6 1.5 0 .6-.3 1.1-.8 1.4-.5.3-1.1.3-1.6 0-.2-.1-.5-.3-.7-.3-.4 0-.9.3-1.3.7-.5.6-.7 1.3-.6 1.7.1.4.3.7.8.9.5.3.8.8.8 1.3s-.3 1.1-.8 1.4l-.2.1c-.6.4-.8 1.1-.5 1.7.1.1.1.2.2.3.1.1.2.3.3.5.2.4.5.7.9.8.4.1.8 0 1.2-.2.1-.3.4-.4.7-.4zm3.3-1c-.8 0-1.6-.3-2.2-.9-.6-.6-1-1.4-1-2.3 0-.8.3-1.6.9-2.3.6-.6 1.4-1 2.3-1 .9 0 1.6.3 2.3.9.6.6 1 1.4 1 2.3 0 .8-.3 1.6-.9 2.3-.7.6-1.5 1-2.4 1zm0-5.6c-.6 0-1.2.3-1.7.7-.5.5-.7 1.1-.7 1.7 0 .6.3 1.2.7 1.7.5.5 1 .7 1.7.7.6 0 1.2-.3 1.7-.7.5-.5.7-1.1.7-1.7 0-.6-.3-1.2-.7-1.7-.5-.5-1.1-.7-1.7-.7z" id="cGZn9b.tif_10_"/><path class="st3" d="M96.9 51.8H82.5c-1.7-.2-3-1.7-3-3.5 0-1.9 1.6-3.5 3.5-3.5.8-1.8 2.6-3 4.6-3 2.7 0 5 2.2 5 4.9h.6c2.1 0 3.9 1.7 3.9 3.9 0 .3 0 .7-.1 1l-.1.2zM82.6 51h13.7v-.5c0-1.7-1.4-3.1-3.1-3.1-.3 0-.6 0-.9.1l-.6.2.1-.6v-.4c0-2.3-1.9-4.2-4.2-4.2-1.8 0-3.4 1.1-4 2.8l-.1.3H83c-1.5 0-2.7 1.2-2.7 2.7 0 1.3.9 2.5 2.3 2.7z"/></svg>