<svg version="1.1" id="OBJECT" xmlns="http://www.w3.org/2000/svg" x="0" y="0" viewBox="0 0 95 95" style="enable-background:new 0 0 95 95" xml:space="preserve"><style>.st0{fill:#e9edff}.st1{fill:#671cc9}.st2{fill:#6c6fc3}.st3{fill:#531aad}</style><circle transform="rotate(-76.638 45.596 40.26)" class="st0" cx="45.6" cy="40.3" r="5"/><circle class="st0" cx="33.2" cy="17.4" r="3.5"/><path class="st0" d="M55.1 14.4c0 1-.9 1.9-1.9 1.9-1 0-1.9-.9-1.9-1.9s.9-1.9 1.9-1.9c1 0 1.9.8 1.9 1.9z"/><path class="st1" d="M87.3 41.7H7.7c-1.3 0-2.4 1.1-2.4 2.4v3.7c0 1.3 1.1 2.4 2.4 2.4h79.5c1.3 0 2.4-1.1 2.4-2.4v-3.7c.1-1.3-1-2.4-2.3-2.4zM26.5 88.8h42.1c5.7 0 10.5-4 11.6-9.6H14.9c1 5.6 5.9 9.6 11.6 9.6z"/><path class="st2" d="m9.2 50.3 5.6 29h65.3l5.6-29H9.2zm6.9 10.9-1-6.2h9.1c2 0 3.6 1.5 3.8 3.5l.6 5.9h-8.8c-1.8 0-3.4-1.3-3.7-3.2zm5.7 15.3c-1.9 0-3.5-1.4-3.8-3.2l-.8-5h8.3c2 0 3.6 1.5 3.8 3.5l.5 4.8h-8zm10.7-21.4h8.8c2.1 0 3.8 1.7 3.8 3.8l.1 5.6h-8.5c-2 0-3.7-1.5-3.8-3.5l-.4-5.9zm5.1 21.4c-2 0-3.7-1.5-3.8-3.5l-.3-4.7h8c2.1 0 3.8 1.7 3.8 3.8l.1 4.5h-7.8zM61.2 73c-.1 2-1.8 3.5-3.8 3.5h-7.7l.1-4.5c0-2.1 1.7-3.8 3.8-3.8h8l-.4 4.8zm.9-12.1c-.1 2-1.8 3.5-3.8 3.5h-8.5l.1-5.6c0-2.1 1.7-3.8 3.8-3.8h8.8l-.4 5.9zM77 73.3c-.3 1.9-1.9 3.2-3.8 3.2h-8l.5-4.8c.2-2 1.8-3.5 3.8-3.5h8.3l-.8 5.1zm1.9-12.1c-.3 1.9-1.9 3.2-3.8 3.2h-8.8l.6-5.9c.2-2 1.8-3.5 3.8-3.5h9.1l-.9 6.2z"/><path class="st3" d="m40.3 51.7 2.8 2.4c.8.6 1.7 1 2.7 1 1.2 0 2.4-.5 3.2-1.5l2.7-3.3H39.2c.3.5.6 1 1.1 1.4z"/><path class="st2" d="M41.1 46.9 75.2 6.3c.9-1 2.4-1.2 3.4-.3l2.8 2.4c1 .9 1.2 2.4.3 3.4l-34 40.6c-.9 1-2.4 1.2-3.4.3l-2.8-2.4c-1.1-.8-1.2-2.3-.4-3.4z"/><path class="st3" d="M49.2 47.4c-.8.9-2.1 1-3.1.3-.9-.8-1-2.1-.3-3.1.8-.9 2.1-1 3.1-.3.9.8 1 2.2.3 3.1z"/></svg>