<svg version="1.1" id="Layer_1" xmlns="http://www.w3.org/2000/svg" x="0" y="0" viewBox="0 0 2735.9 1798.2" style="enable-background:new 0 0 2735.9 1798.2" xml:space="preserve"><style>.st0{fill:#ff227d}.st1{fill:#f7a491}.st2{fill:#571db2}.st3{fill:#355389}.st4{fill:#671cc9}.st5{fill:#f47458}.st6{fill:#f7cc7f}.st7{fill:#184655}.st8{fill:#b75742}.st9{fill:#9bc1f9}.st10{fill:#09af80}.st11{fill:#06d6a0}.st12{fill:#466eb6}.st13{fill:#86b1f2}.st14{fill:#fae0b2}.st15{fill:#f48c7f}.st16{fill:#13375b}.st17{fill:#3c8f7c}.st18{fill:#50bfa5}.st19{fill:#f8a492}.st23{fill:#899dad}.st25{fill:#96d9c9}</style><path class="st0" d="M2542.2 949.4c5.2-23.6 19.9-50.3 46.4-53 32.9-3.3 66 33.8 82.5 58.2 11.8 17.4 18.9 38.9 15 59.6-6.2 32.3-40.5 55.1-73.3 52.4-26.1-2.1-49.3-18.3-63.6-39.8-14.1-21.2-12.4-53-7-77.4z"/><path class="st1" d="m2637.6 1062.3 26.1-13.2s27.6 67.4 31.1 87.1c1.2 7.1-3.8 80.7-5.9 95.6.7 28.7-9.5 35.2-14.9 44 0 0-11.7 6-12.1 5.1-.6-1.1.6-2.5 2.4-3.8.7-.5 1.6-.7 2.4-1.2.7-.5 1.4-1.4 2.1-1.9 1.6-1.1 2.7-1.4 2.7-1.4s.7-1.9 1.9-3.9c.8-1.4 2.1-3 2.3-3.4 1-2.5-.2-1.6-.2-1.6-1.2 1.9-7.8 9.9-7.8 9.9s-12.5 9.7-12.7 8.7c-.1-.5.3-2.1 2.3-4.7.5-.7 2.1-1.6 2.8-2.4.6-.6 1.1-1.5 1.8-2.2.8-.8 1.9-1.3 2.7-2.1 1.2-1.2 1.7-2.8 2.4-3.8 3.1-4 4.2-7 2.9-5.8-1.9 1.9-4.8 9.7-13.5 15.9-1.5 1-2.5 1.4-2.6.8-.1-.5-.1-2.3 1-3.9.8-1.1 2.3-1.7 3.3-3.1.6-.8.9-1.9 1.5-2.8 2.4-3.5 3.5-1.7 5.7-15.2-1.2.6-2.4 1.4-2.9 1.8-1 .8-5.5 8.7-7.2 7-1.6-1.7 7.8-19.8 7.8-19.8l7.9-10.3c-1.8-69.8-3.9-86.6-4.4-87.1l-28.9-82.3zM2591 1290l-16.8 154.1s8.2 32.6 7.2 41.8c-1 9.3-18.3 130.7-18.3 130.7l.8 6.7.4 19.8-64.6.5s13.6-6.3 32.7-18.6c1.4-.9 6-3.9 6.8-9.7 5.1-37.4-6.3-162.2-6.3-162.2l-7.9-162.5 66-.6z"/><path class="st2" d="m2569.5 1603.9-34.8-2.1s-2-139.4-6.8-169.6c-4.8-30.3-7.5-131.4-2.7-170.3 4.1-33.5 19.5-87.4 19.5-87.4l53.8 11.4 10.9 2.8-29.2 254.1s2.7 17.2 4.1 34.8c1.4 17.5-14.8 126.3-14.8 126.3z"/><path class="st1" d="M2641.9 1318.4c3.6.9 9.2 133.2 12.2 139.1 19 37.2 23.5 150.2 23.5 150.2l7.8 15.8-1.8 15.2s-14.2 8.3-24.2 2.7l1.5-15.3 1.2-20.4-48-140.8-26.3-143.6 54.1-2.9z"/><path class="st3" d="M2564.7 1648.2H2498c-2.5-.2-3.1-2.3-2.2-3.6 1.8-2.6 14.8-8.9 23.5-13.1 15.3 1.7 42.2-4.6 44.6-8.3 1.5 7.4 2.2 24.7.8 25zM2685.5 1623.4s-5.5 11.8-11.9 11.3-12.5-8.6-12.5-8.6-2.4 11.5-1.3 17.8c1.1 6.3 10.2 12.8 16.5 10 6.3-3 14.8-17.6 9.2-30.5z"/><path class="st4" d="M2613.6 1157.7s1.5 12.3 3.1 14.8c4.2 6.6 15.8 27.5 22.3 43.7 5.8 14.6 7.7 26.7 10 40.2 7 42.2 4.8 171 4.8 171s12.6 27.8 17.7 64.8 8.8 98.1 8.8 98.1l-26 6.9-52.8-164.1s-25.1-143.7-33.3-162.7c-8.1-19-23.5-96.2-23.5-96.2l68.9-16.5z"/><path class="st5" d="M2653.6 1392.4z"/><path class="st1" d="M2387.4 886.8c.6-5.5 15.7-9.9 20.2-11.2 4.5-1.3 1.6-.2 6.5 1.3.6.2 15.6 23 15.6 23 4.7 7.4 48 73.6 62.6 83.6 14.9 10.3 74.2 28.2 74.2 28.2l2.7 37.9s-81.9-28.1-99.5-43.1c-14.5-12.5-43.5-72.5-57.3-94.6-3.5-4.7-25.6-19.6-25-25.1z"/><path class="st6" d="M2596.4 1000.7c36.5.5 50.5-5.1 78.8 61.4 4.9 11.6 7.7 19.9 7.8 20.1 0 0-24.9 11.2-33.8 14.8 0 0-8.8-26.8-12.4-23.7-8.1 7-21.9 87.7-19.9 98.7 0 0-41.4 8.9-72.2 2.5 0 0-4.7-80-6.2-83.6-1.5-3.6-10.9-19.3-3.2-37.1 1.4-3.2 4.8-12.7 2.4-13.3-18.7-5.1-46.9-19.1-46.9-19.1l13.3-33.8s41.3 9.4 55.3 11.2c12.2 1.5 24.5 1.9 36.8 2 0-.1.1-.1.2-.1z"/><path class="st1" d="M2595 971.8s1 23.1 3.9 31.6-6.2 39.3-24.6 43.8-.3-36.6-.6-45.6c-.3-8.9-6.2-35.4-6.2-35.4l27.5 5.6z"/><path class="st5" d="M2570.3 979.5c-1.4-7.3-2.8-13.3-2.8-13.3l27.4 5.6s.2 4.7.7 10.7c-10.2 4.7-19 2.6-25.3-3z"/><path class="st1" d="M2589.4 908.7s10.8 3 17 13.6c6.2 10.6 9.3 41.1-13.6 54.1s-39.1-7.8-38.4-27.3c.7-19.5 6.2-45.3 35-40.4z"/><path class="st1" d="M2549.7 942.8c1.7 4.8 5.3 7.9 8.1 6.9s3.7-5.6 2.1-10.4c-1.7-4.8-5.3-7.9-8.1-6.9-2.9.9-3.8 5.6-2.1 10.4z"/><path class="st0" d="M2586.2 907.9s12.3 31.9 24.4 35.3c12.1 3.4 11.1 19.1 11.1 19.1s1.5-36.2-9.5-45.1c-11-8.9-26-9.3-26-9.3z"/><path class="st1" d="M2605.4 949.4c-1.9 5-.6 10 2.7 11.3 3.4 1.3 7.6-1.8 9.5-6.7 1.9-5 .6-10-2.7-11.3-3.4-1.3-7.6 1.8-9.5 6.7z"/><path class="st7" d="m2320.3 786 92.3 110.7.1.1c1.7 2.1 5 2.3 7.3.6 2.3-1.8 2.8-4.8 1.1-6.9 0 0-.1-.1-.1-.2l-97.5-106.8c-.7-.8-2-.8-2.8-.1-.9.7-1 1.8-.4 2.6z"/><path class="st5" d="m2398.2 878.8 13.9 17.6.1.1c1.8 2.2 4.9 2.7 7.3 1.2-.3.5-.7 1-1.2 1.3-2.4 1.9-5.8 1.5-7.7-.9l-.1-.1-14.5-18.3c.7-.3 1.4-.6 2.2-.9z"/><path class="st1" d="M2398.7 870.9s-14.9 13.2-11.1 18.7c4.1 6.1 9.4 9.4 9.7 7.5.3-1.8-3.2-10.7-3.2-10.7s4.7-6 5.6-9.2c.9-3.1 1.6-6.5-1-6.3z"/><path class="st1" d="M2405.6 878s9.4 4 9.9 2.9c.5-1.2-1.4-3.9-1.4-3.9s-12.6-9.6-13.1-6.1c-.4 3.4 4.6 7.1 4.6 7.1zM2389.1 875.6s8.1-9.2 8.4-6.1c.4 3.7-6.4 14.4-9.7 14.4-3.3 0-3.3-3.2 1.3-8.3zM1696.3 610.2c-8.7-3.5-12.1-9.4-21.5-11.5-.6 8.6-18.2 56.7-19.7 59.1-6.2 9.8-16.1 13-16.1 13s33.7 46.2 37.2 42.4c3.4-3.8-1.1-4.1-.8-19 0-1.3-5.5-19.7 4.3-42.1 8.4-19.3 13.9-30.5 16.6-41.9z"/><path class="st3" d="m1637.6 671.4 38.9 47.1c1.6 1.6 3.4.9 3.7-.4.8-2.7-2.5-15.5-4.8-24-10.1-9.9-21.4-32.6-20.3-36.3-5.7 3.1-18.1 12.5-17.5 13.6z"/><path class="st2" d="m1601.2 399.6 32.2 51.6s86.2 38.2 101.9 66.9c15.6 28.7-55.3 140.8-55.3 140.8s-8.5-1.7-14.7-4.1c-4.8-1.8-10.2-6.3-10.2-6.3l31.7-110.8-102.2-45.8 16.6-92.3z"/><path class="st8" d="M877.6 1073.3 783 872.2c-55.5 26.1-79.4 92.3-53.3 147.9 26.2 55.4 92.4 79.3 147.9 53.2z"/><path class="st5" d="m795.5 1052 19.8-69.2-62.3 29.3c9.2 18 24.1 31.9 42.5 39.9zM826.3 989.2l-19.2 67c16.5 4.6 33.9 4.2 50.1-1.1l-30.9-65.9zM812 970.8c-22.7-10.3-42.7-19.1-63.4-26.7-6.5 18.5-6.6 38.2-.3 56.6l63.7-29.9zM753.5 932.8c19 7 37.4 15 57.7 24.2l-27.1-57.6c-12.9 8.2-23.5 19.8-30.6 33.4z"/><path class="st6" d="M827.1 1023.5c2.6.4 5.1-1.7 5.5-4.7.5-3-1.6-11.6-4.2-11.8-2.6-.2-4.7 7.3-5.1 10.4-.5 3 1.3 5.7 3.8 6.1zM842.9 1050.2c2.5-.8 3.8-3.7 2.9-6.7-.9-2.9-6.5-9.7-9-8.8-2.4 1-1 8.6-.1 11.5.9 3 3.7 4.8 6.2 4zM778.9 1041.7c2.3 1.2 5.3 0 6.7-2.7 1.4-2.7 2.1-11.5-.3-12.5s-6.7 5.5-8.1 8.2c-1.3 2.7-.6 5.8 1.7 7zM778.4 1016.2c1 2.4 4.1 3.4 6.9 2.3 2.8-1.2 9.1-7.4 7.9-9.7-1.2-2.3-8.7-.2-11.5 1-2.9 1.1-4.3 4-3.3 6.4zM757.3 985.2c1 2.4 4.1 3.4 6.9 2.3 2.8-1.2 9.1-7.4 7.9-9.7-1.2-2.3-8.7-.2-11.5 1-2.9 1.1-4.3 4-3.3 6.4zM778.6 972.1c-.5 2.6 1.4 5.2 4.4 5.8 3 .6 11.7-.9 12-3.5s-7.1-5.1-10-5.7c-3-.7-5.9.9-6.4 3.4zM767.7 927.8c-1.5 2.2-.7 5.3 1.8 7 2.5 1.7 11.1 3.6 12.5 1.3 1.3-2.3-4.6-7.4-7.1-9.1-2.5-1.7-5.7-1.4-7.2.8zM786.5 929c-2.3 1.2-3 4.4-1.6 7.1 1.4 2.7 8.3 8.3 10.5 6.9 2.2-1.4-.7-8.7-2.1-11.4-1.5-2.7-4.5-3.8-6.8-2.6z"/><ellipse class="st9" cx="1419.6" cy="1439.8" rx="997.4" ry="118.3"/><path class="st10" d="M1600.7 1407.1s126.5-78.7 141.9-106.3c15.5-27.6-3.6-34.3-5.6-48.3-2.5-17.8 1.7-23.9 20.7-37.6 19.1-13.7 55.6-24.1 66.6-50.1 11-26-11.5-104.6-11.5-104.6l-18.7-8 19.3-12s25.7-140 8.4-164.3c0 0-37 31-59.6 66.9-22.6 35.9-37.9 36.4-37.9 36.4l18.1 17.7-20.4-12.2s-31.9 36.7-32.6 74.3c-.7 37.6-8.5 43.9-8.5 43.9l22.9 15.3-27.5-6.8s-16.2 34.3-34.9 47.2c-24.4 16.8-55.5 40.1-56.7 94.2-1.1 54.2 16 154.3 16 154.3z"/><path class="st11" d="M1734 1390.2s174.4-50.6 201.9-79.2 7.5-44.2 10.1-62.4c3.3-23.2 10.2-29.3 37.1-39.2 26.9-9.9 73-9.1 94.8-37.5 21.7-28.4 22.6-135 22.6-135l-36.7-15.6 44.2-9.2s72.9-137.3 61.1-174.2c0 0-62.1-2.9-100.7 33.4l-38.7 36.4 18.9 35.1-29.9-23.1s-47.9 22.4-61.6 69.1c-13.7 46.7-25 51.6-25 51.6l21.4 27.8-29.7-18.8s-20.9 45.6-57 45.8-89.1 4.1-109.1 71.3c-19.8 67.2-23.7 223.7-23.7 223.7z"/><path class="st10" d="M1935.9 1311c27.5-28.6 7.5-44.2 10.1-62.4 3.3-23.2 10.2-29.3 37.1-39.2 26.9-9.9 73-9.1 94.8-37.5 21.7-28.4 22.6-135 22.6-135l-36.7-15.6 44.2-9.2s72.9-137.3 61.1-174.2c0 0-63.6 83.8-122.1 130-58.5 46.2-5.4 91.1-59.8 144.2-54.4 53-55.8 20.4-123.8 65.3S1734 1390.3 1734 1390.3s174.4-50.7 201.9-79.3z"/><path class="st11" d="M1854.4 1507.1s212.6-28.8 247.4-48.4c34.8-19.6 11.8-31.8 16-45 5.4-16.8 14.1-20.9 47-26.8 32.9-6 88.8-6.3 116.7-25.9 27.9-19.7 40.3-92 40.3-92l-36-14.7 41.3-5.3s-11.8-53.9 84.3-124.1c0 0-74.4-5-123.1 19.7l-48.7 24.7 20.5 26.5-34.4-18.2s-59 14.1-78.4 47.5c-19.4 33.4-33.3 36.4-33.3 36.4l24 21.3-34.5-15.1s-28 32.3-71.3 30.8c-43.2-1.5-107.3-1.1-135.4 46.9-27.9 47.8-42.4 161.7-42.4 161.7z"/><path class="st12" d="M784 1565v.9c0 43.2 283.4 78.3 633 78.3s632.9-35.1 632.9-78.3v-.9H784z"/><path class="st3" d="M512 1424.8c0 .8-.1 1.5-.1 2.3 0 106.4 406.4 192.6 907.6 192.6 501.3 0 907.6-86.2 907.6-192.6 0-.8 0-1.5-.1-2.3H512z"/><path class="st12" d="M2248.2 1419.2c0 36.5-373.9 66.1-835.1 66.1-271.4 0-512.6-10.2-665.1-26.1-8.7-.9-17-1.8-25.1-2.8-72.8-8.4-121.5-18.3-138.3-28.9h-.1c-4.3-2.7-6.5-5.5-6.5-8.2 0-7.3 15-14.4 42.8-20.9 21.3-5 50-9.8 85.2-14.2 147.8-18.6 409.2-30.9 707-30.9 461.3-.1 835.2 29.4 835.2 65.9z"/><path class="st11" d="M1534.4 1430.8s-53.1-70.8-46.4-95.4c6.7-24.6 21.5-22.4 29.7-29 10.5-8.4 3.7-19.2 1.4-38.3-2.4-19.1 3.3-42.5 11.4-63.6 8.1-21.1 41.8-55.4 41.8-55.4l17.5 18.1-7.4-29.5s47.9-82.2 69.2-85.1c0 0 18.1 37.1 10.7 70.6s-7.5 33.6-7.5 33.6l-17 8.9 16.5-2.7s9.5 43.3-9.8 64.5c-19.3 21.2-14 28.9-14 28.9l4.3 7.3s-12.6 19.6-3.1 41.6c9.6 22-3.3 57.7-31 88.3-27.6 30.7-66.3 37.2-66.3 37.2z"/><path class="st7" d="M1621.6 1308c25.6 18.5 22.7 66-6.3 106.2-29.1 40.2-73.3 57.8-98.9 39.3-25.6-18.5-22.7-66 6.3-106.2 29.1-40.2 73.3-57.8 98.9-39.3z"/><path class="st11" d="M832.9 1518.1s33.5-229.4 12.9-289.3c-20.6-59.9-50.1-18.9-50.1-18.9s-17.8-127.4-52.5-138.7c-34.6-11.3-33.3 49.2-33.3 49.2s-67-126.4-91.4-111.3c-45.4 28.2 21 170.3 21 170.3s-37.2-48.6-54.5-18.2c-26.1 46 77.9 125.1 77.9 125.1l170 231.8z"/><path class="st10" d="M616.1 1297.1c-14.6-37.3 20.3-23.7 20.3-23.7s-77.5-66.1-51.4-112.1c17.3-30.5 54.5 18.2 54.5 18.2s-66.4-142.1-21-170.3l213 506.4c-25.9-18.1-192.9-160.8-215.4-218.5z"/><path class="st13" d="M1779.4 1175.9c-20.5-10-29.9-34.4-21.2-55.6 22.6-55.6 34.1-114.7 34.1-175.6 0-285.6-255.5-507.1-541.9-461.1-38 6.1-64.1-36-43.1-67.2 6.7-9.9 17.2-16.7 29-18.5 29.4-4.8 59.4-7.2 89.1-7.2 72.5 0 143.2 13.9 210 41.3 68.1 27.9 129.2 68.6 181.5 121 159 159 204.7 395.7 121.7 600-9.5 23.7-36.8 33.8-59.2 22.9z"/><path class="st12" d="M1196.4 1127.3c-115.6-74-169.3-213.3-137.7-344.1 5.7-23.4 30.3-36.3 52.7-28.3 19.3 7 30.3 27.3 25.5 47.3-17.3 71.7-1.1 146.1 44.6 204.1 83 105.5 233 120.8 335.1 41 7.1-5.5 15.9-8.6 24.9-8.6 18.3 0 29 12.5 29.2 12.6.2.3 12.1 11.7 10.9 30.3-.8 11.3-6.3 21.8-15.2 28.8-109.5 85.7-257.5 88.9-370 16.9z"/><path class="st6" d="M2204.3 1385.5s-15.8 94.6-139.8 81.1c-126.6-13.9-167.6 29.6-275.1 24.9-86.7-3.8-198.8-121.9-154.8-268.5 43.9-146.7 550.2-198.9 569.7 162.5z"/><path class="st5" d="M2204.1 1379.2c.7 7.2-.2 14.5-2.7 21.3-9.3 25.6-41 82.2-137.5 71.7-126.6-13.9-167 24.9-274.5 19.5-86.6-4.3-199.8-112-157.5-243.8 41.8-130.6 540-184.5 572.2 131.3z"/><path class="st14" d="M1631.8 1247.9c44.2-120.3 487.6-169.5 562.7 87.2 4.2 14.4 7.3 29.2 9.6 44.1-6.4-93.3-56.9-167.9-154.6-209.3-143.8-59.9-327-22.9-392.9 40.1-11.2 10.4-20.5 23.3-24.8 37.9z"/><path class="st15" d="M1734.2 1441.6s-79.6-39.1-82.5-108c-2.8-69 58-127.8 109.6-139.7 51.5-11.9-10.1 14.9-32.1 101.9s47.2 147.3 5 145.8zM2145 1382.6c23.6-.7 41.6-21.8 38-45.2-2.9-19.1-14.3-43.2-45.1-70.4-74.4-65.6-297-119.8-316.2-71-19.2 48.7 99.1 61 115.2 131.7 12.4 54.8 147.7 56.8 208.1 54.9zM2138.3 1410.9c13.7 2.8 20 19 11.6 30.2-10.2 13.6-29.1 26.8-64 23-67.2-7.4-143.5-1.3-204.8 6.4-61.4 7.7-109.9 8.7-107.7-11.8 2.2-20.5 117.8-52.5 142.2-69.9 22.9-16.4 166.2 10.6 222.7 22.1z"/><path class="st1" d="m1288.5 906.9-15.2 46-44.2-67.1v-.1s-16.5-8.7-20.6-9.6c-3.7-.8-15.6-2.1-17.5-.1-.1-.1-.2-.2-.4-.3-1.6-.4-4.6 4.9-5 6.2-.4 1.3 2.7 8.9 3 9.5.3.6-.9.9-2.3.3-1.4-.6-5.9-5.9-5.9-5.9s-.3-8.5-3-8.5-.4 10.6-.4 10.6l2.6 3.6-3.9-2.4s-2.6-5.7-3.3-5.4c-.7.3-1.7 3.2-.3 6.2s4.6 6.3 4.6 6.3l5.9 3.2s-6.9-.7-8.9-2.3c-2-1.6-2.9.6-1.3 2.4 1.6 1.9 10.6 5.2 16.3 5.9s23.7.6 26.2.1c2.1-.4 6-.9 7.9.2 2.4 7.5 23.1 88.5 49.7 98.4 0 0 12.4-1.4 27-33.2 14.6-31.8 22.5-50.9 22.5-50.9l-33.5-13.1zm-82.8-17.8c-2 .7-9.2 1-11 .3-1.9-.7-4.6-8-4.6-8s.9-2.1 1.1-3.8c2.1 2.3 11 1.5 12.9 2.8 2.1 1.4 3.6 8 1.6 8.7zM1449.4 919.9s7.9 19.1 22.5 50.9c14.6 31.8 27 33.2 27 33.2 26.6-9.9 47.3-90.9 49.7-98.4 1.9-1.1 5.8-.6 7.9-.2 2.6.4 20.5.6 26.2-.1 5.7-.7 14.8-4 16.3-5.9 1.6-1.9.7-4-1.3-2.4s-8.9 2.3-8.9 2.3l5.9-3.2s3.2-3.3 4.6-6.3c1.4-3 .4-5.9-.3-6.2-.7-.3-3.3 5.4-3.3 5.4l-3.9 2.4 2.6-3.6s2.3-10.6-.4-10.6-3 8.5-3 8.5-4.4 5.3-5.9 5.9c-1.4.6-2.6.3-2.3-.3.3-.6 3.4-8.2 3-9.5-.4-1.3-3.4-6.6-5-6.2-.2 0-.3.2-.4.3-1.9-2-13.8-.6-17.5.1-4.2.9-20.6 9.6-20.6 9.6v.1l-44.2 67.1-15.2-46-33.5 13.1zm118-39.6c2-1.3 10.9-.5 12.9-2.8.2 1.6 1.1 3.8 1.1 3.8s-2.7 7.3-4.6 8c-1.9.7-9 .4-11-.3-1.9-.6-.5-7.2 1.6-8.7z"/><path class="st16" d="M1375.4 1037.1s-20-10.8-47.3-19.4c-36.6-11.5-86.1-19.6-114.6 3.3-16.8 13.5 154.1 34.7 154.1 34.7l7.8-18.6z"/><path class="st16" d="M1560.5 1035.7s-15.9-24.2-57.8-24.4c-16.3-.1-39 2.8-59.7 6.5-36.9 6.6-71.8 18.3-71.8 18.3l-3.6 19.5 192.9-19.9z"/><path class="st16" d="m1321.5 1065.6 73.8 37.6 59.1-45.6-18.4-42.2-105.7 4.9z"/><path class="st4" d="M1342.3 801c-8-17.1-7.9-49.3-1.1-68 5.6-15.2 18.4-23.6 34.7-25.1 19-1.7 31 2.2 45.5 12.1 15.2 10.3 33.3 21.5 50.9 26.2 22.9 6.2 46.6 10.8 67.4 22.1 13.8 7.5 26.5 18.4 31.8 33.1 7.6 21.1-1.9 45.1-16.9 61.7-22.6 25.1-57.9 38.2-91.4 33.9-26.1-3.4-50.5-17.2-67.3-37.4-7.6-9.1-13.3-15.8-22.4-23.3-11.6-9.5-24.7-21.5-31.2-35.3z"/><path class="st11" d="M1441.2 825s-29-3.4-57.7-4.8c-25.6-1.3-53 3-54.9 4.8-7.3 7.3-11 70.9-7.2 82.7 3.8 11.8 21.9 42.6 18.2 62.5-3.8 19.8-11.4 47.5-11.4 47.5s24.1 14.3 54.8 14.6c18.4.2 44-3 60-14.5 0 0-8.8-24.8-7.5-44.3 1.3-19.4 11.8-52.3 17.3-64.2 5.4-11.7-1.9-82.1-11.6-84.3z"/><path class="st11" d="m1340 830.5-10.9-5.8s-12.5 3.3-19.1 12.5c-5.4 7.5-30.4 76.4-30.4 76.4s32.9 13.5 43.5 13.1l16.9-42.2v-54zM1429.5 830.5l11.9-5.5s7.5 1.7 16.9 13c5.9 7.1 31.6 75.7 31.6 75.7s-32.9 13.5-43.5 13.1l-16.9-42.2v-54.1z"/><path class="st1" d="M1397 783.7s1.5 28.5 3.2 37.5c1.7 9.4 3.5 52.5-16.1 57.2-19.5 4.8-13.8-48.9-14.1-58.4-.3-9.5-4.2-42.1-4.2-42.1l31.2 5.8z"/><path class="st5" d="M1365.7 778s.8 6.6 1.7 14.7c7.2 5.6 17.1 7.2 28.6.6.5-.3 1-.6 1.4-.9-.3-5.1-.5-8.8-.5-8.8l-31.2-5.6z"/><path class="st1" d="M1389 717s11.4 3.2 18 14.5 9.9 43.6-14.4 57.4c-24.3 13.8-41.5-8.3-40.8-29 .8-20.7 6.6-48 37.2-42.9z"/><path class="st1" d="M1346.8 753.2c1.8 5.1 5.6 8.4 8.6 7.4s3.9-6 2.2-11.1c-1.8-5.1-5.6-8.4-8.6-7.4s-4 6-2.2 11.1z"/><path class="st4" d="M1385.6 716.2s13.1 33.8 25.9 37.4c12.8 3.6 11.8 20.3 11.8 20.3s1.6-38.5-10.1-47.9c-11.7-9.4-27.6-9.8-27.6-9.8z"/><path class="st1" d="M1406 760.3c-2 5.3-.7 10.7 2.9 12 3.6 1.3 8.1-1.9 10.1-7.2 2-5.3.7-10.7-2.9-12-3.6-1.3-8.1 1.9-10.1 7.2zM1258.7 1080.6s-8.5-7.2-18.6-10.1c-10.2-2.9-10.1 4.6-12.9 16.1-2.8 11.5-7.4 19-13.1 30.1-5.8 11.1.6 36.7 3.7 37 7.6.9 11.3-15.2 18.7-28.9 7.4-13.7 27.4-18 33.3-18.5 1-.1 27.1-3.8 61.9-2.9-7.1-14-17.4-25.5-28-37.8-26.7 8.6-45 15-45 15z"/><path class="st3" d="M1565.9 1048.6c-3.2-18-18.2-25.6-35.5-25.4-40 .3-153.3 24.2-220.8 44.1 3.8 14.5.5 23.9 5.1 38.9 71.2-2.6 204.9-11.3 243.9-32.9 5.9-3.4 8.9-16 7.3-24.7z"/><path class="st1" d="M1517.8 1126.4c-4.9-11.5-9.8-19.1-11.7-30.8-2.2-13.8-.9-21.5-17.9-15.3-9.8 3.6-20.5 3.4-30.1-.7-6.3-2.7-14-6-22.8-9.7-5.9 11.9-9.7 24.6-10.9 38.1 21 2.5 36.2 4.9 37 5 3.4.4 26.1 5.6 32.3 19.9 6.3 14.3 8.9 31.9 16.3 30.3 4.4-.9 12.7-25.2 7.8-36.8z"/><path class="st13" d="M1253.8 1012.1c-15.7-.7-43 1.8-47.4 19.5-2.1 8.6-1.6 20.7 1.8 28.9 4.2 10.2 14.2 15.9 24.1 20.4 18.9 8.4 136.9 23 197.6 30.3 7.4-12.9 13.6-27.2 13.4-39.9-58.3-24.7-159.3-57.9-189.5-59.2z"/><path class="st17" d="m921.5 1417-.3-1.7c-.8-3.6.6-7.4 3.5-9.7 0 0 .1 0 .1-.1 2.6-2 4-5 3.9-8.2v-1.7c-.1-3.2-1.8-6.2-4.4-8-.1 0-.1-.1-.2 0-3-2.1-4.5-5.9-3.9-9.5l.2-1.7c.5-3.7 3-6.8 6.6-8h.1c3-1 5.5-3.4 6.5-6.4l.5-1.6c1-3 .5-6.4-1.3-9l-.1-.1c-2.2-3.1-2.3-7.1-.5-10.3l.8-1.5c1.8-3.3 5.2-5.3 8.9-5.2h.2c3.2.1 6.3-1.3 8.3-3.8l1-1.3c2-2.5 2.6-5.9 1.8-9v-.2c-.9-3.5.3-7.4 3.1-9.8l1.2-1.1c2.8-2.5 6.7-3.3 10.2-1.9h.2c3 1.2 6.3.9 9-.7l1.5-.9c2.7-1.7 4.4-4.6 4.7-7.8.1-.1.1-.1 0-.2.3-3.7 2.8-6.9 6.3-8.2l1.5-.6c3.5-1.4 7.4-.8 10.2 1.7l.1.1c2.4 2.2 5.6 3.1 8.8 2.5l1.7-.4c3.2-.7 5.8-2.8 7.2-5.7l.1-.1c1.6-3.4 5-5.5 8.8-5.6l1.6-.1c3.7-.1 7.2 1.9 9 5.1v.2c1.6 2.8 4.3 4.8 7.5 5.2l1.6.2c3.3.5 6.4-.6 8.7-2.9l.1-.1c2.7-2.6 6.6-3.4 10.1-2.3l1.6.6c3.5 1.2 6.2 4.1 6.7 7.8v.2c.5 3.1 2.4 6 5.2 7.5l1.5.8c2.8 1.5 6.2 1.6 9.1.2h.1c3.4-1.6 7.4-1 10.3 1.3l1.3 1c3 2.3 4.4 6.1 3.6 9.8v.1c-.7 3.1.1 6.5 2.3 8.8l1.1 1.3c2.1 2.4 5.3 3.6 8.5 3.3h.2c3.7-.3 7.3 1.6 9.2 4.8l.9 1.4c1.9 3.2 2.1 7.2.1 10.4l-.1.1c-1.6 2.7-2 6.1-.8 9.1l.6 1.5c1.2 3 3.7 5.2 6.8 6.1h.2c3.6 1 6.3 4 7 7.6l.3 1.7c.3 1.8.2 3.8-.4 5.5l-18.6 3.5-173 32.7-28 5.2c-.3-.8-.5-1.4-.6-1.9z"/><path class="st18" d="M950 1413.4c-8.3-44.2 21.7-86.9 67-95.4 45.2-8.5 88.5 20.3 96.9 64.4l-163.9 31z"/><path class="st6" d="M1088.4 1358.2c4.1-2 9-.3 11 3.8s.3 9-3.8 11-20.6 4.9-22.6.9c-1.9-4.2 11.4-13.8 15.4-15.7zM1053.7 1341.2c1-4.4 5.4-7.2 9.8-6.2s7.2 5.4 6.2 9.8-9 19.2-13.4 18.2c-4.4-1.1-3.6-17.4-2.6-21.8zM1012.6 1345.6c-1.8-4.1.1-9 4.2-10.8 4.1-1.8 9 .1 10.8 4.2 1.8 4.1 4.2 20.8 0 22.6-4.1 1.8-13.2-11.8-15-16zM982.7 1367.3c-3.3-3.1-3.6-8.2-.5-11.6 3.1-3.4 8.2-3.6 11.6-.5 3.3 3.1 12.2 17.3 9.2 20.6-3.2 3.4-17-5.4-20.3-8.5zM967.3 1400.6c-4.4-1-7.2-5.4-6.2-9.8s5.4-7.2 9.8-6.2 19.2 8.9 18.2 13.3-17.4 3.7-21.8 2.7z"/><path class="st4" d="M1148.7 1325.5c-284.9-116.6-380.9-471.2-196-715.7 15.6-20.6 45-23 63.8-6.3.2.3 13 10.3 14.8 28.7 1.1 10.9-2 21.8-8.6 30.6-150.7 199.4-70.8 487.4 159.3 581.6 83.4 34.1 172 37.2 253.9 12.2 4.2-1.3 8.5-1.9 12.8-1.9 29.1 0 39.7 25.5 39.8 25.6 11.2 24-1.5 52.5-26.9 60.2-100 30.3-210.3 27-312.9-15z"/><path class="st6" d="M1510.6 1278.6c-71.7-14.4-79.1 18.9-172.7 17.1-79.1-1.5-89.3 34.8-90.5 46.1h.1c-1.6 6.9-4.2 12-4.2 12-4.6 10.4-14.1 46.9 54.9 85.5 81.8 45.7 71.3 78.1 140.5 101.9 60.4 20.8 119.3-11.9 149.4-64.9 32.5-57.1 23.2-138.9-32.7-178.6-13.4-9.5-28.8-15.9-44.8-19.1z"/><path class="st16" d="M1174 1332.5h-.1c-.1.3 11.4 7.8 35.9 13 12.1 2 14.9 3.5 42.3 4.5h1.3c5 .2 5.1 7.6.1 7.9-3.7.2-7.3.5-11 .7-.2 0-46.9 2.7-74.9-10.5-4.4-1.8-6.5-6.8-4.7-11.1 1.8-4.2 6.8-6.3 11.1-4.5z"/><path class="st19" d="M1761.1 355.1c.1-1.2-33.1-6.5-33.1-6.5-3.7-.5-23.8-7.2-23.8-7.2s-51.7-21.8-54.7-22.8l-40-38.4-23.1 21.3s48.9 42.8 51.9 44.5c2.9 1.6 77.8 12.1 82.6 13.8 0 0 6.1 3.7 10 5.9 3.9 2.2 8.6 2.9 9.9 3.1 2.9.6 10 .3 10 .3s10.2-13.2 10.3-14z"/><path class="st5" d="M1758.6 353.2s-6.5 12.2-9.1 13.7c-2.6 1.5-7.2.8-7.2.8l16.3-14.5z"/><path class="st1" d="M1820.9 626.1c-9.4.6-15-3.2-24.4-1.1 3.1 8 8.2 59 7.8 61.8-1.3 11.5-8.9 18.7-8.9 18.7s50.4 27.1 51.9 22.1c1.4-4.9-2.8-3.3-8.9-16.8-.5-1.2-13.5-15.4-14.4-39.8-.7-21-.6-33.6-3.1-44.9z"/><path class="st3" d="m1794.5 706.6 55.5 25.6c2.1.8 3.4-.7 3.2-2-.5-2.8-9-12.8-14.7-19.6-13.4-4.6-33.4-20.1-34-24-3.9 5.4-11 19.2-10 20z"/><path class="st4" d="M1600.7 396.7c-1 12.9-58.1 3.3-58.1 3.3-2.2-.4-3.6 18.3-3.6 19.3-.2 11.2-5.4 35.9 18.6 57.5 13.9 12.6 186.7 55.8 190.5 57.4 14.9 52 32 91.1 53.6 140.5 0 0 5.6 1.8 12.9 1.6 4.6-.1 14.1-1.4 14.1-1.4s-21.4-167.3-38.5-191.3c-7.3-10.2-98.6-30.8-153.7-57.1-25.2-11.9-35.8-29.9-35.8-29.8zM1497.1 189c-23.1 6.3-38.6 26.9-36.5 50.1-11.9 5.9-21.4 16.8-25.3 29.2-7.7 24.5-.9 59.2 25.6 60.8 16.9 11.3 47.1 15 62 1.4 23.4 7.4 43.8-13.8 45.7-43 17.7-8.6 30.2-26.9 29.7-46.3-.1-4.7-.6-11.8-.2-12.9-.4 1.4 27.4-28.6-8.2-59.5-36.3-31.6-85.2-16.3-92.8 20.2z"/><path class="st3" d="M1605.7 328c10-1.9 23.1-13.3 26.6-28.8.1-.4-36.2-39.3-46.8-44.6-.9-.5-2.2-1.1-3.3-1 5.6 16.2-1.9 37.4 1.6 54.4.2-.7 20.6 20.2 21.9 20z"/><path class="st12" d="M1545.4 254.7s-20 4-27.8 7.9c-17.9 9.2-.2 57.6 1.4 61.7 2.8 7.3 28.2 58.6 20.1 91 0 0 37.1 8.7 64.5-.3 0 0 2.5-77.7 3.5-81.2s7.6-15.1.1-31.6c-.5-1.2-15.1-34.7-25.1-48.6-19-.1-36.7 1.1-36.7 1.1z"/><path class="st1" d="M1546.5 224.4s-.4 22.6-1.2 30.5c-.8 8.3 7.7 33.4 25 35.8s.2-28.4-.4-36.6c-.6-8.3 1.1-37.4 1.1-37.4l-24.5 7.7z"/><path class="st5" d="M1546.3 231.6c.2.1.4.2.5.3 9.8 4.3 17.8 2.6 23.4-2.1.3-7.2.7-13.1.7-13.1l-24.5 7.8c.1-.1 0 2.9-.1 7.1z"/><path class="st1" d="M1545.4 165.9s-9.5 3.8-14.2 14.2c-4.6 10.4-4.5 38.7 17.6 48.4 22.1 9.8 34.9-11 32.4-28.8-2.5-17.9-10-41.1-35.8-33.8z"/><path class="st1" d="M1585 191.5c.7 4.6-.9 8.7-3.5 9.2-2.7.4-5.4-3-6.2-7.6-.7-4.6.9-8.7 3.5-9.2 2.8-.5 5.5 2.9 6.2 7.6z"/><path class="st4" d="M1548.3 164.8s-8.2 30.5-18.8 34.8c-10.7 4.3-8.3 18.6-8.3 18.6s-4.9-33.2 4.3-42.4c9.2-9.2 22.8-11 22.8-11z"/><path class="st1" d="M1534.8 204.8c2.2 4.4 1.6 9.2-1.4 10.7-2.9 1.5-7.1-.9-9.3-5.3-2.2-4.4-1.6-9.2 1.4-10.7 3-1.4 7.1.9 9.3 5.3z"/><path class="st11" d="M747.9 1459.2c-8.7-.9-17-1.8-25.1-2.8-72.8-8.4-121.5-18.3-138.3-28.9h.3-.4c-5.9 0-82.9 0-84.6-31-1.1-21.1 34.5-12.2 35.6-12-1.4-.7-84.5-43.9-69.8-74.7 7.9-16.6 86.4 18.7 87.4 19.2-.4-.6-21.2-29 1.1-36.6 22.5-7.7 85.1 26.2 116.7 47.5 11.7 7.8 20.1 19.7 35.2 44.2 16.7 27 32.7 57.1 41.9 75.1z"/><path class="st10" d="M584.5 1427.5h.3-.3c-6 0-99.8-5.3-101.5-36.3-1.1-21.1 28.3-17.6 29.4-17.4-1.4-.7-61.4-33.3-46.8-64l155.2 88.5 102 58.1c-72.8-8.4-121.5-18.3-138.3-28.9z"/><path class="st8" d="M681.3 1181.4c-66 106.8-45.7 239 45.3 295.1 91 56.1 218.2 15 284.1-91.8.9-1.6-328.4-204.9-329.4-203.3z"/><path style="fill:#fffc97" d="m862.7 1286.7-2.9-1.8 1 5.9z"/><path style="fill:#ffffe9" d="m860.8 1290.8 1.9-4.1-2.9-1.8 1 5.9z"/><path class="st6" d="m871.4 1302 29.4 164.9c41-16.1 76.6-45.7 101.2-84.3L871.4 1302zM685.8 1401.7c14 21.8 32.2 39.6 54.1 53.2 9.5 5.9 19.7 10.8 30.3 14.8l80.9-177.7-165.3 109.7zM656.7 1283.6c-2.6 36.4 4.7 72.6 20.6 103.5L832.5 1284l-175.8-.4zM687 1188.2c-14.7 24.6-24.2 50.9-28.4 78.5l156.2.3-127.8-78.8zM786.3 1474.7c31.7 8.3 65.4 7.6 98.3-2.2L857.3 1319l-71 155.7z"/><path class="st14" d="m1010.9 1384.3 2.7-4.5-153.8-94.8v-.1c-8.4-5.2-166.3-102.7-175.4-108.3-20.2 31.2-31.7 64.7-35.4 98.5-4.7 44 4.1 87.6 25.4 124 14.6 25.1 35.1 46.9 61.1 62.9 12.5 7.7 25.7 13.7 39.2 18.1 38.8 12.5 80.6 11.4 119.6-1.8 46-15.5 88-47.7 116.6-94zm-342.3-126c4.1-20.3 11.2-39.8 21.4-58.4l95 58.6-116.4-.2zm12.1 116.4c-11.3-25.3-16.9-53.7-16-82.6l140 .3-124 82.3zm309.4 10.5c-21.3 30.7-50 54.8-82.9 69.8l-24.3-136 107.2 66.2zm-245.8 62.5c-18.5-11.4-34.2-26.1-46.8-43.7l133.6-88.7-65.3 143.5c-7.5-3.2-14.6-6.9-21.5-11.1zm54 21.1 55.4-121.7 21.3 119.3c-25.7 6.6-51.7 7.4-76.7 2.4z"/><path class="st9" d="m2241.1 1372.7-47.4 23c35.2 7.3 54.4 15.2 54.4 23.5 0 36.5-373.9 66.1-835.1 66.1-449.8 0-816.6-28.1-834.4-63.4l-105.5-19.6c-33.1 11.8-51 24.4-51 37.4 0 65.3 446.5 118.3 997.4 118.3 550.8 0 997.4-53 997.4-118.3.1-24.8-64.9-48-175.8-67z"/><path class="st17" d="M659.7 1447c-2.9-1.8-80.1-23.3-81.1-25.1l-88.3-16.4c21.9 17.7 164.3 41.6 169.4 41.5z"/><path class="st7" d="M2143.1 1447.4c0 24-30.6 43.4-68.3 43.4-37.7 0-68.3-19.4-68.3-43.4s30.6-43.4 68.3-43.4c37.7-.1 68.3 19.4 68.3 43.4zM1957.2 1397.3s-.1 98.9-91.6 123.6c-91.6 24.7-242.2-30-257.2-50.5-12.3-16.8-12.4-35.1-10.4-54.9 1.7-17.1 6-7.1 63.9-28.2 57.8-21.2 65-3.1 120.9-35.3 55.9-32.3 172-21.4 174.4 45.3z"/><path class="st17" d="M1629.5 1449.4c-12.4-4.2-22.4-13.2-28.3-24.9 0-.1-.1-.1-.1-.2-7.8-15.3-5.9-35.4 51.9-56.6 57.8-21.2 69.5-13.4 125.5-45.7 56-32.3 177 7.3 179.4 74 0 0 0 5-1.3 10.1-15.3 29.6-42.7 58.9-91.9 70.7-67.8 16.3-164.7-3.7-235.2-27.4z"/><path class="st6" d="M1937.8 1419.1c9.9-13.7 10.9-31.9 2.2-46.4-26.5-43.9-114-67.3-156.8-42.7-36.2 20.9-54.5 25.5-77.7 31.5-23.2 5.9-117 25.3-96 64.5 11.3 21.2 50.4 23.5 71 28.9 20.2 5.3 40.6 9.7 61.3 12.9 20.5 3.2 46 8.8 66.7 5.6 14.9-2.2 86.6 4.9 129.3-54.3z"/><path class="st8" d="M1802.5 1353c-41.5 7-71.2 35.8-66.4 64.4 4.8 28.6 42.3 46.2 83.8 39.2s71.2-35.8 66.4-64.4c-4.7-28.6-42.3-46.1-83.8-39.2z"/><path class="st4" d="M379.8 927.6c-9.6 9.4-21.2 5.7-34.6 5.4-9-.2-18 12.3-20 23-5.2 27.1-21.6 10.2-41.4 16.6-47.6 15.5-29.7 93.5-.5 100.9 9.9 2.5 28 10.7 32.8 13.9 14.4 9.7 42.3 1.1 63.6-10.5 21.3-11.7 8.9-22.3 16.5-32.9 7.6-10.7 25.4-.8 35.6-24.3 11.1-25.5 13.1-49.5 6.9-65.3-10.3-26.2-38.3-35.4-50.5-31.6-3.6 1.1-6.3 2.8-8.4 4.8z"/><path class="st1" d="M473.1 1519.7c-4.7 21.5-12.2 40.3-13.2 42.5-.5 1.1-4.9 4.8-5.4 5.9 1.4 26.4 17.6 42.7 33 54.4-3-13.4-10.1-28.9-9-31.8 1.7-4.7 8.6-25.9 22.5-52.5-13.1-2-17.5-10.1-27.9-18.5z"/><path class="st2" d="m413.7 1205.7-82 62.3 55.8 53.6c15.2 14.5 96.6 75.5 97.9 78.8 1 2.5-14.5 94.3-23.2 128.2 8.7 8.9 27.7 17.5 39 20.4 21.8-54.8 49.3-145.9 49.3-158.5.1-14.3-136.8-184.8-136.8-184.8z"/><path class="st1" d="M183.7 1329.9c2.7 2.6 20.5 37.3 27.2 55.8 9.9-6.2 15.9-13.7 27-17.9-8.7-12.6-25.8-43.1-27.2-50.3-3.3-17.2-7.2-19.7-7.2-19.7s-57.6 19.5-61.4 24.9c-3.8 5.6 30.8-3.3 41.6 7.2z"/><path class="st4" d="M211.4 1321.4c4.5 0-.4-20.2-1.4-24.8-1.2-5.2-4.2-6.8-4.9-7-2-.5-66 21.1-76.9 28.9-.7.5-2 2.2-2.2 2.6-5.9 11 46.8 13.2 54.4 8.3 6.8-4.3 10.9-8.1 31-8zM431 1224.3l-71.4-29.2c.3.1-.4 2.9-.5 3.1-6.7 26.1-42.5 16.1-57.3 61.4-10.4 32.1-25.7 152-25.7 152s-10.8-20.6-44.5-58.5c-2.6-2.9-35.8 19.8-35.8 19.8 24.7 65.4 85.2 118.5 93.4 114.8 55.4-25.4 122-226 121.9-226 6.3-12.2 19.9-37.4 19.9-37.4z"/><path class="st1" d="M427.6 1029.6s5.9-5.9 13.4-14.7c17.7-21 47.4-57.7 49.2-63.1 2.2-6.6-2.7-101-3.2-106.9-.6-6-20.8-22.3-17.6-27 3.2-4.7 31.2-8.5 35.9-7.6 4.7.9 13.8.1 17.6 3.9.5.5-10.6 24.8-10.4 28.3 1.3 23.5 12 95.5 12 116.2 0 14.9-70.5 95.5-70.5 95.5l-26.4-24.6z"/><path d="M505.2 810.3c-4.7-.9-32.7 2.9-35.9 7.6-1 1.4.2 3.9 2.3 6.8 8.9.7 18.2 2.3 27.4 2.3 6.8 0 13.4-1.2 19.9-2.9 2.1-5.7 4.1-9.8 3.9-10-3.7-3.7-12.9-2.9-17.6-3.8z" style="fill:#f47257"/><path class="st1" d="M311.9 1044s-89.8 2.2-109.5 3.9c-19.7 1.6-91.2-4.3-94-4.7-2.8-.3-21.1-31.3-24.1-28-3 3.3 10.2 15.4 6.1 18.5-4.1 3.1-48.1-3.9-47.5-.6 1.1 6.1 26.8 5.3 26.7 8.2 0 2.9-26.9-1.6-28.7 3.2-1.8 4.9 25.8 2 26.9 4.2 1.1 2.2-25.6 6.2-22.9 10.7 1.5 2.5 23.7-4.1 23.6-.8-.1 3.4-16.3 11-14.3 13.7 2 2.7 12.7-8.2 22.1-8.3 9.4-.1 16.1-5 31.1-.9s66.1 24.7 98.1 23.2 102.7-4.7 102.7-4.7l3.7-37.6z"/><path class="st3" d="M443.7 1129.3c1.2-14.8 12.3-28.6 2.3-55.3-.6-15 22.9-33 26.3-39.4 0 0-16.8-20.1-30.4-23.8 0 0-27.4 19.9-40.3 26.7-.2 0-4.6 2-6.5 1.9-12.5-.1-56.3-1.4-64.5 1l4.2 59.2c2.4 3.9 13.8 9.3 17.2 101.5.3 8 67.5 30.8 79.2 23.2.3-.2 3.8-20.9 6.9-45.7 1.9-16.9 4.6-37.2 5.6-49.3z"/><path class="st3" d="M353.3 1041.9c-8.1-3.9-67.1-3.7-67.1-3.7s-5 41.9 1.6 51.6c0 0 49.1 6.6 47.6 10.9l17.9-58.8z"/><path class="st4" d="M459.6 1562.8c-1.5-4.2-18.6 8.4-22.7 11-4.5 2.9-5 6.2-4.9 7 .2 2 40.8 55.8 53 63.4 1.1.7 3.6.8 4.3.6 7-2.4-2.8-45.6-11.5-54.3-5.6-5.7-11.4-8.8-18.2-27.7z"/><path class="st1" d="M469.8 818.6c-2.7 3.9 11.9 16.5 15.9 23.4l9.1-12.5c-4.4-.8-21.9-15.4-25-10.9zM387.7 1004.8s-5.1 22.1-9.4 29.8c-4.3 7.7-1 39.1 16 46.7 17 7.6 6.8-35.3 8.7-43.9 1.9-8.6 12.3-33.1 12.3-33.1l-27.6.5z"/><path class="st5" d="M410.2 1016.7c2.7-6.8 5.1-12.4 5.1-12.4l-27.5.5s-1 4.5-2.6 10.2c9 6.4 17.9 5.9 25 1.7z"/><path class="st1" d="M404.3 944.9s-11 1-18.8 10.1c-7.9 9.2-16.3 38.1 3.5 54.7s39.2-.6 42-19.6c2.7-19 2-44.8-26.7-45.2z"/><path class="st1" d="M436.6 984.8c-2.5 4.3-6.5 6.7-9 5.3-2.5-1.4-2.6-6.1-.1-10.4 2.5-4.3 6.5-6.7 9-5.3 2.5 1.4 2.6 6.1.1 10.4zM381.6 981.4c.9 5.1-1.2 9.8-4.6 10.4-3.5.6-7-3.1-8-8.2-.9-5.1 1.2-9.8 4.6-10.4 3.5-.7 7.1 3 8 8.2z"/><ellipse class="st14" cx="501" cy="731.9" rx="144.3" ry="93"/><ellipse class="st6" cx="475.5" cy="727.6" rx="73.4" ry="57.2"/><path class="st1" d="M469.8 818.6c-2.7 3.9 11.9 16.5 15.9 23.4l9.1-12.5c-4.4-.8-21.9-15.4-25-10.9z"/><path class="st10" d="M821.3 704.9c-5.8 19.5-30.7 29.2-55.6 21.9-25-7.4-40.5-29.2-34.8-48.6 5.8-19.5 30.7-29.2 55.6-21.9 25 7.3 40.6 29.1 34.8 48.6z"/><path class="st7" d="M817 700.7c0 5.8-4.7 10.5-10.5 10.5s-10.5-4.7-10.5-10.5 4.7-10.5 10.5-10.5 10.5 4.7 10.5 10.5z"/><path class="st10" d="M1997.3 799.4c16.2 12.3 16.6 39 .8 59.8-15.7 20.8-41.6 27.7-57.8 15.4-16.2-12.3-16.6-39-.8-59.8 15.8-20.7 41.6-27.6 57.8-15.4z"/><path class="st7" d="M1991.9 802c5.5 2.1 8.2 8.1 6.2 13.6-2.1 5.5-8.1 8.2-13.6 6.2-5.5-2.1-8.2-8.1-6.2-13.6 2.1-5.5 8.1-8.2 13.6-6.2zM2078.3 697.8c0 6.8-6.4 12.2-14.3 12.2s-14.3-5.5-14.3-12.2c0-6.8 6.4-12.2 14.3-12.2 7.9-.1 14.3 5.4 14.3 12.2zM1675.1 978.7c0 6.8-6.4 12.2-14.3 12.2s-14.3-5.5-14.3-12.2c0-6.8 6.4-12.2 14.3-12.2s14.3 5.5 14.3 12.2zM935.9 1228.2c0 9-7.3 16.3-16.3 16.3s-16.3-7.3-16.3-16.3 7.3-16.3 16.3-16.3 16.3 7.3 16.3 16.3z"/><path class="st6" d="M986.7 913.8c9.4-7.5 13.7-24.1 14.2-34.4.7-13.4-3.3-27.2-11.1-39.1-7.8-11.7-18.9-20.7-31.4-25.4-9.6-3.6-20.7-4.8-30.8-1.9-4.5 1.3-10.5 3.3-12.9 7.5-2.8 4.8-1.9 11.2 1.1 15.7 4.6 7 13.5 9.2 19.8 5l32 48.8s-.1 0-.1.1c-6.3 4.2-7.7 13.3-3.1 20.2 3.4 5.1 10.1 8.5 16.3 6.7 2.2-.6 4.2-1.7 6-3.2z"/><path class="st14" d="M966.3 909.1c-3.9-5.9-2.8-13.5 2.4-17 0 0 .1 0 .1-.1.5-.3.9-.9 1-1.5.1-.6 0-1.2-.3-1.7l-32-48.8c-.3-.5-.9-.9-1.5-1-.6-.1-1.3 0-1.8.4-5.3 3.5-12.7 1.5-16.6-4.4-2.7-4.1-3.1-9.5-1-13.3 1.9-3.4 7.1-5.2 11.5-6.5 8.9-2.5 19.3-1.9 29.4 1.9 12 4.5 22.8 13.2 30.3 24.5 7.6 11.4 11.4 24.8 10.7 37.7-.5 9.2-4.4 25.5-13.3 32.7-1.6 1.3-3.4 2.3-5.2 2.8-5.4 1.6-11-1.6-13.7-5.7z"/><path class="st14" d="M909.6 916.8c-13-6.9-20.2-17.8-21.5-32.4 17.3-16.2 36.8-29.1 58.5-38.7 13 6.9 20.2 17.8 21.5 32.4-17.3 16.2-36.8 29.1-58.5 38.7z"/><path class="st6" d="M951.7 855.2S935.3 826.3 934 827c-4.8 2.4 17.7 28.2 17.7 28.2zM953.6 855.1s-6.5-32.6-7.9-32.4c-5.3.8 7.9 32.4 7.9 32.4zM955.9 855.7s5.9-32.7 4.5-33c-5.3-1.2-4.5 33-4.5 33zM957.9 857.6s20.3-26.3 19.2-27.2c-4-3.5-19.2 27.2-19.2 27.2zM958.8 859.5s27.6-18.5 26.8-19.8c-2.7-4.5-26.8 19.8-26.8 19.8zM960.2 867.6s23.1 23.9 22 25c-3.6 3.8-22-25-22-25zM960.9 865.4s30.2 13.8 29.7 15.2c-2 4.9-29.7-15.2-29.7-15.2zM960.6 862.6s33.2-1.7 33.3-.2c.5 5.3-33.3.2-33.3.2zM959.5 860.8s30.9-12.1 31.5-10.8c2.2 4.9-31.5 10.8-31.5 10.8zM2322.8 1440.7c15.1-5.2 27.9-23.9 33.1-36.6 6.8-16.4 8.1-35.5 3.7-53.7-4.4-18.1-14.3-34.4-27.8-45.8-10.4-8.8-23.7-15.3-37.6-16.2-6.2-.4-14.6-.5-19.4 3.6-5.6 4.8-7.4 13.1-5.7 20.1 2.6 10.8 12.7 17.6 22.5 15.2h.1l18 75.2h-.2c-9.8 2.4-15.6 13.1-12.9 23.9 1.9 8 8.8 15.2 17.3 15.6 3 .2 6-.3 8.9-1.3z"/><path class="st14" d="M2299.5 1425.7c-2.2-9.1 2.6-18.1 10.7-20.1h.2c.8-.2 1.5-.7 1.9-1.4.4-.7.6-1.5.4-2.3l-18-75.2c-.2-.8-.7-1.5-1.4-1.9s-1.6-.5-2.4-.3c-8.1 2-16.5-3.8-18.7-12.9-1.5-6.3.4-13.3 4.7-17 3.9-3.3 11.3-3.3 17.2-2.9 12.2.8 24.9 6.3 35.8 15.5 13 11 22.5 26.6 26.8 44.1 4.3 17.6 3.1 36-3.5 51.8-4.7 11.3-16.9 29.9-31.3 34.8-2.6.9-5.3 1.3-7.8 1.2-7.6-.6-13.1-7.1-14.6-13.4z"/><path class="st14" d="M2225.2 1409.9c-5.8-6.4-9.9-13.3-12.1-20.6-4.8-15.4 3.9-31.7 19.1-36.9 23-7.9 46.7-12.8 71.1-14.7 13.1 14.5 17.2 31.2 12.3 50.1-28.9 12.4-59 19.7-90.4 22.1z"/><path class="st6" d="M2305.4 1351.9s-7.5-43.4-9.5-43.2c-7 .9 9.5 43.2 9.5 43.2zM2307.9 1352.6s6.6-43.6 4.6-44c-7-1.4-4.6 44-4.6 44zM2310.3 1354.4s22.1-38.1 20.4-39.2c-5.9-3.9-20.4 39.2-20.4 39.2zM2312.1 1357.6s37.2-23.7 36.2-25.4c-3.5-6.1-36.2 25.4-36.2 25.4zM2312.3 1360.4s42.7-10.7 42.3-12.6c-1.3-6.9-42.3 12.6-42.3 12.6zM2310.4 1371.1s18.1 40.2 16.3 41.1c-6.3 3.2-16.3-41.1-16.3-41.1zM2312.3 1368.7s31.5 30.8 30.2 32.3c-4.7 5.2-30.2-32.3-30.2-32.3zM2313.1 1365.1s42.2 12.7 41.7 14.7c-1.7 6.8-41.7-14.7-41.7-14.7zM2312.6 1362.3s44-1.3 44.2.7c.5 7.1-44.2-.7-44.2-.7zM1904.1 926.6c-17.7-9.4-48.6-7.4-65.1-1.8-21.8 6.7-39.3 20.7-48.6 36.8-9.3 16-10.3 32.7-5.3 46.5 3.8 10.7 11.2 20.6 21.2 27.3 4.5 3 10.4 6.9 16 6.4 6.5-.6 12.4-5.1 15.5-10.4 4.8-8.3 2.7-18.3-6.3-21.9h-.1c12.2-19.8 27.6-38.5 45.9-55.5.1 0 .1.1.1.1 9.9 5.2 23.7 4.4 32.5-1.8 6.4-4.6 8.9-12.6 2.7-19.4-2.2-2.5-5.1-4.6-8.5-6.3z"/><path class="st14" d="M1906.9 950.1c-7.3 5.4-19.1 6.1-27.3 1.8-.1 0-.1-.1-.2-.1-.8-.4-1.8-.6-2.8-.6-1 .1-1.9.4-2.4 1 0-.1-13.9 12.9-25 27-11.6 13.9-20.6 29.1-20.5 29-.4.6-.5 1.4-.2 2 .3.7.8 1.2 1.6 1.4 7.4 2.9 9.3 11.3 5.2 18.4-2.8 4.9-8.1 8.5-13.1 9-4.6.4-9.8-3-14.1-6-8.7-6-16-15-19.9-26.3-4.6-13.4-3.5-29.4 5.6-44.8 9-15.4 25.9-28.7 46.8-35.1 14.7-5 44.6-7.3 61.4 1.5 3.1 1.5 5.6 3.3 7.4 5.3 5.3 6.1 2.6 12.8-2.5 16.5z"/><path class="st14" d="M1919.5 1001.9c-7 14.7-18.2 23.5-32.6 29.1-18.2-12.6-37.5-24.2-58.5-35.4 1.4-15.3 10.7-29.2 29.2-38.6 28.4 6.5 49.5 23.2 61.9 44.9z"/><path class="st6" d="M1838.3 985.9c-.9-.4-24.5 32.9-21.9 34 4.9 2.5 21.1-34.2 21.9-34zM1836.8 984.1c-1-.8-35.8 26.6-33.4 28.4 3.7 3.5 32.4-28.9 33.4-28.4zM1836.2 981.6s-11.7 3.1-22.8 7.7c-11.1 4.4-21.6 10.1-21.2 10.8 1.4 2.6 11.6-3 22.3-8.2 10.6-5.3 21.7-10.3 21.7-10.3zM1837.3 978.5s-12-1.3-24.4-1.1c-12.3.1-24.9 1.7-25 2.6-.4 3.1 11.9 1.3 24.3.3 12.5-1.2 25.1-1.8 25.1-1.8zM1839.3 976.7s-10.6-4.3-22.2-7.2c-11.4-3.1-23.6-4.8-24.1-4-1.9 3 10.2 4.5 22.2 6.7 12.1 1.9 24.1 4.4 24.1 4.5zM1849.4 971.1c-.7-.2 20-34.5 23.1-33.5 7.4 2-24.1 33-23.1 33.5zM1845.9 971.4c-.1 0-.3-37 2.3-37.2 8.8-.4-2.8 37.2-2.3 37.2zM1842.3 973.2c.7-.4-25.5-30.8-24.1-31.5 8.1-4.2 24.6 31.4 24.1 31.5zM1840.6 975.3c.9-.8-38.5-21.6-37.9-22.3 6-6.3 38.8 21.7 37.9 22.3zM1894.8 532.2c0 8.8-6.1 15.8-13.6 15.8s-13.6-7.1-13.6-15.8 13.4-38.1 13.4-38.1 13.8 29.3 13.8 38.1zM1913.6 758.6c0 5.9-4.1 10.8-9.3 10.8-5.1 0-9.3-4.8-9.3-10.8 0-5.9 9.1-25.8 9.1-25.8s9.5 19.9 9.5 25.8z"/><path class="st11" d="M1759 358.2 1593.3 473c-6.8 4.7-16 4.1-22.1-1.5-.1-.1-.2-.2-.3-.2-7-6.6-14.8-15.9-22.1-26.4-7.2-10.5-13.2-21.1-16.9-30-.1-.1-.1-.2-.2-.4-3.1-7.7-.5-16.5 6.3-21.2l165.7-114.9c10.2-7.1 24.2-4.5 31.3 5.7 1.8 2.6 5.5 3 7.9.9l32-29.5 30.4 43.9-38.8 19.6c-2.9 1.4-3.8 5.1-2 7.7 7.2 10.3 4.7 24.4-5.5 31.5z"/><path class="st17" d="M1790.3 277.5c-9.2-13.3-12.5-22.7-12.6-25.7 2.8 1.1 10.4 7.5 19.6 20.8 9.2 13.3 12.5 22.7 12.6 25.7-2.8-1.1-10.4-7.5-19.6-20.8z"/><path class="st6" d="M1764.7 326.8zM1764.7 326.8c-1.8-2.6-.9-6.3 2-7.7l38.8-19.6-4.1-6c-17.7 3-46.2 18.5-46.4 28.2-.2 11-7.4 37.9-47.3 36.7-37.3-1.1-96.3-9.3-103.9-10.4l-65.5 45.4c-6.8 4.7-9.5 13.5-6.3 21.2 0 .1.1.2.2.4 3.7 8.9 9.6 19.5 16.9 30 7.2 10.5 15.1 19.8 22.1 26.4.1.1.2.2.3.2 6.1 5.7 15.3 6.3 22.1 1.5L1759 358.2c10.2-7.1 12.7-21.2 5.7-31.4z"/><path class="st23" d="M1710.6 394.5c.2-.1.3-.3.4-.5l-1 .7c.2-.1.4-.1.6-.2zM1652.9 311c-.2.1-.3.3-.4.6l1.1-.8c-.3 0-.5.1-.7.2z"/><path d="M1613.7 442c-3.6 2.5-16.3-9.8-28.5-27.4s-19.1-33.9-15.6-36.3c3.6-2.5 16.3 9.8 28.5 27.4s19.1 33.8 15.6 36.3z" style="fill:#ebeced"/><path class="st14" d="M1703.2 334.2c-12.9-18.6-22.7-34.1-22-34.6L1565.4 380c-3.6 2.5 4 19.6 16.8 38.2 12.9 18.6 26.2 31.7 29.7 29.2l115.8-80.3c-.6.4-11.6-14.3-24.5-32.9z"/><path class="st7" d="M1799.5 271.1c-9.9-14.3-20.7-23.9-24.2-21.5-3.5 2.4 1.7 15.9 11.5 30.2 9.9 14.3 20.7 23.9 24.2 21.5 3.6-2.4-1.6-16-11.5-30.2zm-9.2 6.4c-9.2-13.3-12.5-22.7-12.6-25.7 2.8 1.1 10.4 7.5 19.6 20.8 9.2 13.3 12.5 22.7 12.6 25.7-2.8-1.1-10.4-7.5-19.6-20.8z"/><path class="st7" d="M1767 256.9c-.2.5 1.2 25.6 27.8 47.3 1.7 1.4 4 1.8 6.2 1.1 3.8-1.2 9.5-3.2 10.5-4.3 1.5-1.7-5.4-2.7-5.4-2.7L1796 288l-12.4-18.9-6.7-14.6-1-5.1c-.1-.1-6.3 1-8.9 7.5z"/><path class="st6" d="M1852.7 364.2c-12.9-28.7-28.9-70.2-44.8-71.3-1.1-.1-2.3 0-3.6.1l4.1 7.2c4.6 9.4 8.1 15.4 13.4 31.2 5.3 15.8 6.7 32.5 5.1 49.1-.4 4.5.2 9.3 3.3 13.4 8.8 11.8 35.4-1 22.5-29.7z"/><path class="st7" d="M790.8 1284.5c-21.8 41.7 6 88.8 6.1 89.2 10.4 18.5 27.4 34.5 51.7 45.4 7 3.1 14.2 5.5 21.8 7l3-14.1c-6.3.5-24.7-3.8-38.4-12.6-12-7.3-22.3-17.6-29.4-30.2-12.8-21.8-17.1-53.4-5-77-2.9-3-6.3-5.7-9.8-7.7z"/><path class="st3" d="M1393.5 1403c0-67.1-70.4-121.5-157.1-121.5-63.1 0-117.5 28.8-142.5 70.3-129.7 5.6-229.7 42-229.7 86 0 20.6 20.4 35 36.4 43.9 29.6 16.5 63.7 25.2 96.8 31.4 41.2 7.7 82.8 12.8 124.6 15.6 40.1 2.7 81.1 4.8 121.2 1.4 32-2.7 63.8-10.4 91.9-26.4 23.4-13.3 42.4-33.2 51.6-58.7 4.8-13.5 6.8-27.8 6.8-42z"/><path class="st12" d="M933.1 1410.1s178.6-14.8 195.7-20.8c17.1-6 12.8-45.5 79.5-59.1 66.7-13.6 107.2 8.6 115.3 43.7 8.1 35.1-39.3 63.8-56.5 40.2-17.2-23.7-22.2-50.7-60.9-45.8-38.7 4.9-68.1 38.3-68.1 38.3l-205 3.5z"/><path class="st17" d="m944.4 1404.3-11.9 6.1c-1.6.8-1.9 3-.5 4.2l8.9 8c1.5 1.3 1 3.7-.9 4.3l-11.5 3.7c-2 .7-2.4 3.3-.7 4.5l15.8 10.9.6.4-19.2 10.9c-1.6.9-1.7 3-.4 4.2l12.2 10.2c1.4 1.2 1.1 3.5-.6 4.3l-16.8 7.6c-1.1.5-1.7 1.7-1.5 2.8l1.8 9c.4 1.7-1.1 3.3-2.9 3-56.2-9.1-68.7-52.5-69.5-55.3 0-.1 0-.2-.1-.3-1-6.1-1.1-11.8-.6-17 4.8-48.5 69.1-56.4 93.4-57.7 2.6-.1 3.7 3.3 1.5 4.7l-2.6 1.7c-1.8 1.2-1.5 3.9.6 4.6 1.9.6 2.4 3.1.9 4.4l-5.6 4.7c-1.3 1.1-1.2 3 .1 4l9.7 7.4c1.7 1.5 1.5 3.8-.2 4.7z"/><path class="st5" d="M1576.7 1558.3c2.7 2.7 2 1.2 4.5 3.9-62.9 36.5-98.4 50.1-110.6 30.2-7.6-3.7 7.8-27.9 16.8-33.6 24.4-15.3 69.9-3.5 89.3-.5zM1514.8 1400.3c8.5 30.2 10.2 46-5.4 72.8.3.1.6.2.9.2 7.4 1.9 14.8 2.3 22.5.9 2-.4 9.8.2 13.6-.3.9-.1 1.6-.3 1.9-.6 21.4-18.1 23.8-39.3 22.1-67.3.1-5-32.3-15.7-55.6-5.7z"/><path class="st5" d="M1515.8 1399.9c-16-7.6-42.1 6.6-54.6 14.2 16.1 18.5 18.7 35.4 13.1 59.4 7 1.4 30.8 5 35.9-.2.2-.2.3-.3.4-.5 16.3-19.3 18.7-36.7 16.6-49.5-2.1-13-9.7-22.9-11.4-23.4zM1607.9 1424c-14.7-22.1-38.4-19.1-38.8-18.6-.2 0-.4 0-.7.1 2.3 37.5-6.1 48.8-23.8 67.4.6.3 1.1.6 1.7.9 5.5 2.9 17.8 7 23.3 4.3 11.2-5.2 18.8-11.2 24.6-18.6 6.6-8.4 15.7-29.4 14.5-33.8-.1-.4-.3-1-.8-1.7zM1644 1504.7c-2.7 41.7-33.7 46.9-60.4 57-1.9.7-3.9 1-5.6.9-3.8-.2-6.4-2.5-4.7-6.6 5.3-12.7 13.9-26.5 14-45.3v-.1c19.8 6.8 36.9 2 56.7-5.9z"/><path class="st5" d="M1608.8 1425.8c-11.2 31.8-13.1 33.4-42.1 50.5 1.9 5.8 11.9 22.3 17.4 21.1 7-1.8 13.6-3.9 19.8-6.6 18.4-7.9 30.4-20.7 31-22.7 1.9-4.2-7.9-29.9-26.1-42.3z"/><path class="st5" d="M1635 1468.2c-21.4 20.5-21.4 16.7-50.2 26.1-1 .3-1.7 1.5-1.9 3.1-.7 4.6 1.6 12.7 5.7 13.9 23 7.9 49.4 4.9 55.1-2.9 7.1-9.6.1-31.5-8.7-40.2z"/><path class="st8" d="M1578.4 1559c-22.3-2.8-61.1-10.6-83.5-.5-3.7 1.7-9.1 4.8-12.7 6.9-9.5-5.3.9-30.6 39.6-26.4 14.6 1.5 43.4 15.2 56.6 20zM1396.5 1502.6c-21 14.4-29 24.4-62.7 24.3 48.3-8.1 41.9-28.5 59.6-24.6.9.2 1.8.2 3.1.3zM1369.8 1537.2c14-6.5 26.5-11.9 36.9-29.2 4.5-7.4 7.7-5.7 13.5-6.3-11.5 18.4-28.1 31-50.4 35.5zM1522.8 1502.8c2.9-8.9 14.7-22.1 22.7-27.9 1.3.8 5.8 3.7 7.2 4.6-9.3 4.2-24.1 15.8-29.9 23.3zM1518 1476.1c-3.8 8.4-9.3 23.8-8.1 32.2-4-4.7-.6-25.1 2.6-33.8 1.3.3 4 1.3 5.5 1.6zM1533.3 1473.5c-5.6 6.7-16.8 25-18.7 32.9-1.8-5.6 1.6-13.7 4.2-19.3 5-13.2 10-14.3 14.5-13.6z"/><path class="st8" d="M1615 1506.2c-9.8-5.8-11-12.9-7.2-19.4 1.4-2.4 3-3.8 3-3.8-21.2-5.9-.7-23.4-18.6-25.2-15.4-1.1-20.6-38.7-22.1-52.6v-.3s0 .1-.1.4c-.1.4-.4 1.1-.7 2.1-2.3 6.7-10 25.3-24.7 28.4-7.5 1.6-15-4.3-21.3-11.7-8.3-10-14.6-23.4-14.7-23.5-2.3 24.5-22.4 41.5-38.4 51.2l-.8 28.1c4.6 10.2 26.3 11.4 34.1 7 15.2 2.6 21.6-.3 29.9-.5 3.1-.1 7.4.4 10.9 0 6.4 2.6 9.1-.7 16.3-1.4 3 5.4 13.9 10.7 20 13.1-.1 4.3 1.6 9.5 5 12.3 0 17.8-8.3 30.4-14.3 44.6-2 4.2.8 6.4 5.1 6.5 17.7-11.5 54.9-45.6 38.6-55.3z"/><path class="st5" d="M1481.3 1477.1c-55.3 60.2-226.6 9.3-227.7 8.7 2.2-1.4 95.4-45.1 104.7-47.7 4.4 24.3 42.5 9.3 30.9-10.4 24-6.8 46.2-12.7 75.6-15.3 1-.1 2.3.4 2.9 1 22.9 26.5 19.9 58.3 13.6 63.7z"/><path class="st7" d="M1394 1436.4c2.2 12.2-5.1 24-16.3 26.4s-22.1-5.5-24.4-17.7c-2.2-12.2 5.1-24 16.3-26.4s22.2 5.5 24.4 17.7z"/><path class="st5" d="M1203.4 1485.9c22-21.8 56-46.8 83.9-35.1 16.5 6.7 26.2 26.3 26.2 26.2 1.5 2.6 4.6 3.4 7 1.8 2.4-1.6 3.2-5.1 1.5-7.8-13.1-20.7-29.7-33.6-52.9-31.2-30.2 3.2-62.7 33.7-81.7 58.9-1.2 1.6 1 3.6 2.2 2.1 0 0 8.9-10.1 13.8-14.9z"/><path class="st10" d="m2296.8 947.6.6.7c1.4 1.5 1.9 3.7 1.2 5.7v.1c-.6 1.7-.5 3.6.5 5.1l.5.8c1 1.5 2.6 2.4 4.4 2.6h.1c2.1.1 3.9 1.5 4.7 3.4l.4.9c.8 1.9.5 4.1-.8 5.7-1.2 1.4-1.7 3.2-1.3 5l.2.9c.4 1.8 1.6 3.2 3.2 3.9h.1c1.9.8 3.2 2.7 3.3 4.8v1c.1 2.1-.9 4.1-2.8 5.1l-.1.1c-1.6.9-2.6 2.4-2.9 4.2l-.1.9c-.2 1.8.5 3.6 1.7 4.8l.1.1c1.5 1.4 2 3.7 1.4 5.6l-.3.9c-.6 2-2.3 3.5-4.3 3.9h-.1c-1.8.3-3.3 1.4-4.1 3l-.4.9c-.8 1.6-.8 3.5 0 5.1v.1c.9 1.9.6 4.1-.6 5.8l-.6.7c-1.3 1.7-3.3 2.5-5.4 2.1h-.1c-1.8-.3-3.6.2-4.9 1.4l-.7.7c-1.3 1.3-2 3-1.8 4.8v.1c.2 2.1-.8 4.1-2.6 5.2l-.8.5c-1.8 1.1-4 1.2-5.8.2l-.1-.1c-1.6-.9-3.5-1.1-5.1-.3l-.9.4c-1.7.7-2.9 2.2-3.3 3.9v.1c-.5 2-2.1 3.6-4.2 4l-.9.2c-2 .5-4.2-.2-5.5-1.8l-.1-.1c-1.2-1.4-2.9-2.2-4.7-2.1h-1c-1.8.1-3.5 1-4.4 2.6-1.2 1.8-3.3 2.6-5.3 2.4l-.9-.1c-2.1-.2-3.9-1.6-4.6-3.6-.6-1.7-1.9-3.1-3.7-3.6l-.9-.3c-1.7-.5-3.6-.2-5 .9l-.1.1c-1.7 1.2-4 1.3-5.8.4l-.8-.4c-1.9-1-3.1-2.9-3.1-5v-.1c0-1.8-.8-3.5-2.2-4.6l-.7-.6c-1.5-1.1-3.3-1.4-5-.9l-.1.1c-2 .6-4.2-.1-5.6-1.6l-.6-.7c-.7-.8-1.2-1.7-1.4-2.7l7.9-7.1 73.5-65.9L2296 947c.3.2.6.4.8.6z"/><path class="st11" d="M2284.1 957.6c16.8 18.8 14.8 48-4.4 65.2-19.2 17.2-48.3 15.9-65.2-2.7l69.6-62.5z"/><path class="st6" d="M2233.8 1024.3c-1.4 2.1-4.2 2.7-6.4 1.4-2.1-1.4-2.7-4.2-1.4-6.4 1.4-2.1 8.4-8.3 10.6-7 2.2 1.4-1.4 9.9-2.8 12zM2255.4 1022.4c.8 2.4-.5 5-2.9 5.8-2.4.8-5-.5-5.8-2.9-.8-2.4-1.2-11.8 1.2-12.6 2.3-.8 6.7 7.3 7.5 9.7zM2274.1 1009.9c2.1 1.5 2.6 4.3 1.1 6.4-1.5 2.1-4.3 2.6-6.4 1.1-2.1-1.5-8-8.7-6.6-10.8 1.5-2.1 9.8 1.8 11.9 3.3zM2281.9 989.2c2.5.5 4.1 2.9 3.6 5.4-.5 2.5-2.9 4.1-5.4 3.6-2.5-.5-10.9-4.7-10.4-7.2s9.7-2.3 12.2-1.8zM2279.6 968.8c2.4-.8 5 .5 5.8 2.9.8 2.4-.5 5-2.9 5.8-2.4.8-11.8 1.3-12.6-1.1-.8-2.4 7.3-6.8 9.7-7.6z"/><path class="st7" d="M2309.1 1394.7c6.3 27.1-23.1 57-65.6 66.9-42.5 9.9-82.1-4-88.4-31-6.3-27.1 23.1-57 65.6-66.9 42.5-10 82.1 3.9 88.4 31z"/><path class="st19" d="M1714.4 378.8c-2-1.6-5.1-3.5-6-5.6-.9-2.1 12.4 1.2 11.6-.9-.7-2.1-7.5-4.8-10-4.8s-13.8-.3-13.8-.3l-31.5-8.6s-64.3-17.7-68.3-18.9l-54.5-49.9-26.5 20.3s59.4 55.1 63.5 57.2c3.4 1.8 109.9 14.6 109.9 14.6s11.4 12 17.9 12.7c6.6.7 18.1-12.8 18.1-12.8s-8.4-1.5-10.4-3z"/><path class="st13" d="M1541.1 273.4c-5.7-7.9-13.8-13.8-24.1-10.9-6.4 1.8-11.5 7.2-13.6 13.4-2.5 7.4-.3 19.2 3.7 25.5 9.2 14.4 21.1 26.8 32.8 39.4 12.4-9.3 28.4-22.1 31.4-31.8-.2 0-22.7-25.2-30.2-35.6z"/><path class="st19" d="M1750.9 369s-1.4-8.1-.2-10.7c1.1-2.5 1.7-1.2 2-.1.3 1 .8 4.5.8 4.5s-.9-6.6-.2-8.6 2.4-2.3 3.1-1.6c.7.6 1.9 6.7 1.9 6.7s-2.5-9.5-.9-10.8c1.6-1.3 7 7.5 5.8 11.9-1.2 4.4-12.3 8.7-12.3 8.7z"/><path class="st17" d="M2294.6 833.2c-16.7 18.7-48.6 15.8-74.9-1.8-26.1-17.7-40.8-46.3-29.8-68.8 10.9-22.4 48.6-28 80.4-6.5 32 21.5 41 58.5 24.3 77.1z"/><path class="st18" d="M2288.5 825.7c-13.1 16.9-40.5 15.8-63.5 1.1-22.9-14.8-36-39.4-27.2-58.8 8.7-19.3 39.8-24.6 67.1-7.4 27.3 17.2 36.7 48.3 23.6 65.1z"/><path class="st25" d="M2217.4 810.2c-2.2.7-5-.5-6.4-2.6-1.4-2.1-.7-4.4 1.4-5.2 2.2-.8 11.5-1 12.8 1.2 1.4 2.3-5.7 5.9-7.8 6.6zM2238.3 823.5c-.4 2.1-2.8 3-5.3 2.1-2.5-.9-4.2-3.4-3.8-5.5.4-2.1 4.3-8.7 6.8-7.8 2.7 1 2.8 9.1 2.3 11.2zM2260.5 827.6c1.1 2.4.1 4.6-2.2 4.9s-4.9-1.3-6-3.6c-1-2.3-2.8-11-.5-11.4 2.3-.4 7.7 7.8 8.7 10.1zM2278.3 819.5c1.9 2.1 2.1 4.9.4 6.1-1.7 1.2-4.6.5-6.5-1.6-1.9-2.1-7.2-10.7-5.5-12 1.7-1.3 9.8 5.3 11.6 7.5zM2284.3 800.5c2.6 1 4.6 3.7 4.4 6-.2 2.3-2.5 3.3-5.1 2.3-2.6-1.1-11.7-6.7-11.6-8.9.2-2.5 9.7-.5 12.3.6zM2205.4 779.9c-2.7-.3-4.6 1.2-4.3 3.4s2.7 4.2 5.3 4.6c2.6.3 11.9-.5 11.7-2.7-.3-2.3-10.1-5-12.7-5.3zM2215.6 765.9c-2.1-1.9-5.3-2.4-7.1-1.1-1.8 1.3-1.5 3.8.6 5.7 2.1 1.8 11.3 7.3 13.1 6.1 1.9-1.2-4.4-8.8-6.6-10.7zM2236.1 760c-.6-2.3-3.4-4.4-6.1-4.6-2.8-.2-4.4 1.5-3.8 3.8.7 2.3 5.6 10.7 8.2 10.9 2.7.3 2.3-7.8 1.7-10.1zM2260.4 767.8c.6-2-1.1-4.7-3.8-6-2.7-1.3-5.5-.7-6.1 1.3-.6 2-.1 10.4 2.6 11.7 2.7 1.3 6.7-5 7.3-7zM2279.2 783.4c1.9-1 2-3.6 0-5.9-1.9-2.3-5.1-3.3-7-2.2-1.9 1-6.8 6.9-4.9 9.1 2 2.2 10 0 11.9-1z"/></svg>