<svg height="512pt" viewBox="-24 0 512 512.001" width="512pt" xmlns="http://www.w3.org/2000/svg"><path d="M166.004 103.195c-8.184 5.54-19.395 13.125-19.395 28.578 0 5.524 4.477 10 10 10s10-4.476 10-10c0-4.402 3.067-6.914 10.602-12.011 8.187-5.54 19.398-13.125 19.398-28.582s-11.21-23.04-19.398-28.578c-7.535-5.098-10.602-7.61-10.602-12.012s3.067-6.914 10.602-12.012c8.187-5.539 19.398-13.121 19.398-28.578 0-5.52-4.48-10-10-10-5.523 0-10 4.48-10 10 0 4.402-3.07 6.914-10.605 12.012-8.184 5.539-19.395 13.12-19.395 28.578 0 15.457 11.207 23.039 19.395 28.578 7.535 5.098 10.605 7.61 10.605 12.016 0 4.402-3.07 6.914-10.605 12.011zM234.988 103.195c-8.183 5.54-19.394 13.121-19.394 28.578 0 5.524 4.476 10 10 10s10-4.476 10-10c0-4.402 3.066-6.914 10.601-12.011 8.188-5.54 19.399-13.125 19.399-28.582s-11.211-23.04-19.399-28.578c-7.535-5.098-10.605-7.61-10.605-12.012s3.07-6.914 10.605-12.012c8.188-5.539 19.399-13.125 19.399-28.578 0-5.523-4.48-10-10-10-5.524 0-10 4.477-10 10 0 4.398-3.07 6.914-10.606 12.012-8.187 5.539-19.398 13.12-19.398 28.578 0 15.453 11.21 23.039 19.398 28.574 7.535 5.102 10.606 7.613 10.606 12.016 0 4.406-3.067 6.918-10.606 12.015zM303.973 103.195c-8.184 5.54-19.395 13.125-19.395 28.578 0 5.524 4.477 10 10 10s10-4.476 10-10c0-4.402 3.07-6.914 10.606-12.011 8.183-5.54 19.394-13.125 19.394-28.582s-11.21-23.04-19.394-28.578c-7.536-5.098-10.606-7.61-10.606-12.012s3.07-6.914 10.606-12.012c8.183-5.539 19.394-13.121 19.394-28.578 0-5.52-4.48-10-10-10-5.523 0-10 4.48-10 10 0 4.402-3.07 6.914-10.605 12.012-8.184 5.539-19.395 13.12-19.395 28.578 0 15.457 11.211 23.039 19.395 28.578 7.535 5.098 10.605 7.61 10.605 12.016 0 4.402-3.07 6.914-10.605 12.011zM453.414 229.445h-36.582a186.421 186.421 0 0 0 2.223-21.71c11.52-4.024 19.808-14.993 19.808-27.868 0-16.273-13.242-29.515-29.52-29.515H54.07c-16.277 0-29.515 13.242-29.515 29.515 0 12.875 8.285 23.844 19.804 27.867a187.978 187.978 0 0 0 2.223 21.707H10c-5.523 0-10 4.48-10 10 0 5.524 4.477 10 10 10h40.957c13.777 49.684 47.531 91.141 92.035 115.137l-23.66 44.406-.043.079L75.098 492H59.883c-5.524 0-10 4.48-10 10 0 5.523 4.476 10 10 10h42.433c5.524 0 10-4.477 10-10 0-5.52-4.476-10-10-10h-4.558l36.351-68.215h197.578L368.036 492h-6.937c-5.52 0-10 4.48-10 10 0 5.523 4.48 10 10 10h42.433c5.524 0 10-4.477 10-10 0-5.52-4.476-10-10-10H390.7L346.5 409.059l-.035-.07-24.203-45.419c43.593-24.14 76.61-65.133 90.195-114.125h40.957c5.52 0 10-4.48 10-10 0-5.523-4.476-10-10-10zm-308.648 174.34 16.336-30.664c21.808 8.895 45.64 13.809 70.605 13.809 25.711 0 50.227-5.203 72.559-14.61l16.765 31.465zm86.941-36.855c-89.027 0-162.062-69.793-167.25-157.543h334.5c-5.187 87.75-78.219 157.543-167.25 157.543zm177.637-177.543H54.07c-5.246 0-9.515-4.27-9.515-9.52 0-5.246 4.27-9.515 9.515-9.515h355.274c5.25 0 9.52 4.27 9.52 9.515 0 5.25-4.27 9.52-9.52 9.52zm0 0"/><path d="M231.707 349.332c51.938 0 99.465-26.363 127.14-70.52 2.934-4.68 1.52-10.851-3.163-13.785-4.68-2.933-10.852-1.515-13.782 3.164-23.996 38.282-65.187 61.141-110.195 61.141-5.523 0-10 4.477-10 10 0 5.52 4.477 10 10 10zM357.238 240.754c1.63 3.902 5.633 6.422 9.86 6.152 4.007-.258 7.527-2.965 8.832-6.761 1.398-4.067-.075-8.758-3.559-11.282-3.219-2.336-7.625-2.547-11.039-.508-4.195 2.508-5.973 7.883-4.094 12.399zm0 0"/></svg>