<svg height="512pt" viewBox="-62 0 512 512" width="512pt" xmlns="http://www.w3.org/2000/svg"><path d="M384.742 277.777a12.047 12.047 0 0 0-9.87-2.851c-2.704-13.215-13.892-23.363-27.599-24.516.075-.129.16-.246.235-.375 10.625-18.71 2.117-43.105.308-47.793-7.23-18.816-21.726-29.804-31.796-35.469 7.687-19.503.55-40.53-1.032-44.718-4.468-11.723-12.129-21.723-22.77-29.723a77.326 77.326 0 0 0-12.144-7.488c2.653-12.274 4.75-28.711-3.09-46.574-8.886-20.243-25.785-31.211-38.402-36.852a16.508 16.508 0 0 0-14.805.71c-4.52 2.567-7.472 6.99-8.09 12.134-.292 2.386-.652 4.71-1.078 6.968-6.652-7.359-16.261-11.937-26.82-11.937-19.93 0-36.144 16.215-36.144 36.145 0 11.117 5.085 21.144 13.093 27.804-6.363 1.438-13.02 2.438-19.867 3.465-23.59 3.535-47.984 7.191-67.105 29.723-4.575 5.394-18.5 21.816-17.41 44.761.402 8.516 2.882 16.989 7.246 24.903-7.364 3.933-13.743 8.586-19.348 14.097-9.692 9.536-15.473 20.243-16.719 30.961-1.316 11.336 1.969 21.485 6.586 29.746-12.086 2.434-21.637 11.954-24.105 24.028-3.532-.567-7.125.453-9.871 2.851a12.08 12.08 0 0 0-3.997 11.004L29.48 476.137C32.727 496.918 50.352 512 71.383 512h246.144c21.032 0 38.657-15.082 41.903-35.863l29.304-187.36a12.064 12.064 0 0 0-3.992-11zM187.79 24.301c9.988 0 18.535 6.992 20.633 16.558-2.73 5.786-6.113 10.766-10.3 15.16-3.985 4.169-8.47 7.544-13.65 10.286-10.132-1.59-17.824-10.41-17.824-20.867.004-11.657 9.485-21.137 21.141-21.137zM46.441 222.887c.844-7.285 5.11-14.89 12.332-21.996 6.176-6.075 13.594-10.918 22.672-14.813 7.79-3.332 17.024-6.066 29.063-8.601 4.055-.856 6.652-4.832 5.797-8.887-.856-4.059-4.84-6.652-8.887-5.797-10.227 2.152-18.66 4.477-26.035 7.18-2.965-5.067-5.672-11.72-6.04-19.489-.808-17.043 9.852-29.617 13.876-34.355 15.465-18.227 36.066-21.313 57.875-24.582 14.027-2.102 28.531-4.277 41.828-10.676.082-.035.16-.074.238-.11.031-.015.059-.03.086-.042.043-.024.086-.043.129-.067 7.523-3.68 13.938-8.343 19.602-14.27 5.82-6.109 10.566-13.343 14.101-21.5l.082-.194.035-.09c3.618-8.383 6.106-17.977 7.387-28.535.02-.145.07-.583.598-.883.23-.133.715-.313 1.285-.059 10.2 4.559 23.816 13.32 30.777 29.18 6.875 15.664 3.828 30.465 1.2 41.601-17.532 23.114-37.887 40.547-60.536 51.805-20.21 10.05-40.933 14.793-60.316 18.418-4.074.762-6.762 4.684-5.996 8.754a7.503 7.503 0 0 0 8.754 5.996c20.449-3.824 42.382-8.863 64.238-19.73 23.586-11.723 44.805-29.438 63.144-52.704a62.192 62.192 0 0 1 9.47 5.883c8.343 6.274 14.32 14.04 17.757 23.055.777 2.059 7.39 20.535.387 35.578a30.78 30.78 0 0 1-1.746 3.215c-18.934 30.387-93.192 36.36-152.86 41.156-1.39.11-2.816.223-4.265.332-26.32 2.043-62.371 4.84-84.871 31.985a73.093 73.093 0 0 0-4.797 6.566c-4.13-6.453-7.383-14.547-6.364-23.324zm-2.23 42.41h10.594c.011 0 .023.004.035.004.012 0 .02-.004.027-.004h203.961a7.5 7.5 0 0 0 7.5-7.5 7.5 7.5 0 0 0-7.5-7.504H68.324c.168-.215.324-.438.492-.648.04-.051.079-.098.118-.145a6.18 6.18 0 0 1 .242-.3c18.422-22.227 49.492-24.637 74.457-26.575 1.465-.113 2.906-.227 4.308-.34 62.832-5.05 133.594-10.746 160.356-42.64 8.039 4.437 19.8 13.128 25.515 27.988 3.083 7.992 6.688 24.351.645 34.996-1.781 3.137-4.336 5.656-7.781 7.664H292.46a7.503 7.503 0 1 0 0 15.004h36.101c.008 0 .012.004.02.004.012 0 .02-.004.027-.004h16.063c8.723 0 15.816 7.098 15.816 15.816v1.797c-.765.692-1.5 1.383-2.218 2.055-4.41 4.137-7.325 6.867-13.743 6.867-6.39 0-9.257-2.719-13.601-6.84-5.149-4.879-11.551-10.957-23.926-10.957s-18.781 6.078-23.93 10.957c-4.343 4.121-7.21 6.84-13.601 6.84s-9.258-2.719-13.602-6.84c-5.148-4.879-11.555-10.957-23.926-10.957-12.375 0-18.78 6.078-23.93 10.957-4.343 4.121-7.21 6.84-13.6 6.84-6.388 0-9.259-2.719-13.599-6.836-5.144-4.883-11.55-10.957-23.925-10.957-12.371 0-18.778 6.074-23.926 10.957-4.34 4.117-7.207 6.836-13.598 6.836-6.386 0-9.254-2.719-13.593-6.836-5.149-4.883-11.551-10.957-23.926-10.957-12.371 0-18.778 6.074-23.926 10.957-4.34 4.117-7.211 6.84-13.598 6.84-6.41 0-9.316-2.734-13.718-6.867-.715-.668-1.446-1.356-2.207-2.043v-1.813c0-8.718 7.093-15.816 15.816-15.816zm300.394 208.52v.003c-2.097 13.426-13.488 23.172-27.078 23.172h-11.25l15.848-169.215a7.508 7.508 0 0 0-6.773-8.172 7.502 7.502 0 0 0-8.168 6.774l-15.977 170.613h-37.105l7.773-169.57a7.503 7.503 0 0 0-7.152-7.84c-4.13-.184-7.649 3.012-7.836 7.152l-7.809 170.258h-37.121l-.035-169.918c0-4.14-3.36-7.5-7.504-7.5s-7.504 3.36-7.504 7.504l.04 169.914h-37.122l-7.805-170.258a7.5 7.5 0 0 0-7.84-7.152 7.508 7.508 0 0 0-7.152 7.84l7.774 169.57H97.707L81.375 322.594a7.503 7.503 0 1 0-14.941 1.398l16.203 173h-11.25c-13.59 0-24.98-9.746-27.078-23.176l-28.47-181.824c1.477 1.086 2.895 2.418 4.49 3.914 5.187 4.871 11.64 10.934 23.991 10.934 12.371 0 18.778-6.078 23.926-10.957 4.344-4.121 7.211-6.84 13.598-6.84s9.258 2.719 13.597 6.84c5.145 4.879 11.551 10.957 23.922 10.957 12.375 0 18.778-6.078 23.926-10.957 4.344-4.121 7.211-6.84 13.598-6.84 6.39 0 9.258 2.719 13.597 6.84 5.149 4.879 11.555 10.957 23.926 10.957 12.375 0 18.781-6.074 23.93-10.957 4.344-4.117 7.21-6.84 13.601-6.84 6.387 0 9.258 2.723 13.602 6.84 5.145 4.879 11.55 10.957 23.926 10.957s18.781-6.074 23.93-10.957c4.34-4.117 7.21-6.84 13.601-6.84s9.258 2.723 13.602 6.84c5.148 4.879 11.55 10.957 23.925 10.957 12.352 0 18.813-6.063 24.008-10.93 1.602-1.5 3.028-2.84 4.512-3.926zm0 0"/></svg>