<svg xmlns="http://www.w3.org/2000/svg" viewBox="0 0 512 512" style="enable-background:new 0 0 512 512" xml:space="preserve"><path d="M492.1 213.064c-.72-78.9-106.336-142.944-236.052-142.944C125.892 70.12 20 134.612 20 213.88c0 2.208 1.788 4 4 4h464.1c.028.004.06 0 .08 0a4.004 4.004 0 0 0 3.92-4.816zm-464-3.184c3.704-71.828 106.58-131.76 227.948-131.76S480.296 138.052 484 209.88H28.1zM480 369.88c-2.212 0-4 1.792-4 4v33.976c0 14.836-12.04 26.024-28 26.024H64.084C48.076 433.88 36 422.692 36 407.856V373.88c0-2.208-1.788-4-4-4s-4 1.792-4 4v33.976c0 19.396 15.512 34.024 36.084 34.024H448c20.524 0 36-14.628 36-34.024V373.88c0-2.208-1.788-4-4-4zM216.732 338.708c-.772-2.072-3.092-3.128-5.144-2.352l-62.22 23.176-21.564-22.212a4 4 0 1 0-5.74 5.572l23.384 24.088a4.003 4.003 0 0 0 2.872 1.216c.468 0 .94-.084 1.392-.256l64.664-24.088a4.002 4.002 0 0 0 2.356-5.144z"/><path d="M430.152 338.704c-.772-2.072-3.088-3.128-5.144-2.352L334.4 370.104l-31.824-32.788a4 4 0 1 0-5.74 5.572l33.644 34.664a4.003 4.003 0 0 0 2.872 1.216c.468 0 .94-.08 1.388-.256l93.056-34.664a4.002 4.002 0 0 0 2.356-5.144zM23.96 334.004c-2.184 0-3.96-1.792-3.96-4.292 0-2.204 1.756-4 3.92-4 2.212 0 4-1.792 4-4s-1.788-4-4-4c-6.572 0-11.92 5.38-11.92 12.292 0 6.616 5.368 12 11.96 12 2.212 0 4-1.792 4-4s-1.788-4-4-4zM486.668 317.88c-2.212 0-4 1.792-4 4s1.788 4 4 4c2.092 0 5.332 3.608 5.332 6.228 0 .704 0 1.772-3.9 1.772-2.212 0-4 1.792-4 4s1.788 4 4 4c11.04 0 11.9-7.48 11.9-10.064 0-6.772-6.852-13.936-13.332-13.936zM495.996 244.164c-9.388 0-14.612 4.66-19.216 8.772-4.308 3.844-8.02 7.16-15.224 7.16-7.012 0-10.304-3.044-14.472-6.9-4.576-4.232-9.76-9.028-19.908-9.028-10.144 0-15.32 4.8-19.888 9.032-4.156 3.856-7.44 6.9-14.444 6.9-7 0-10.28-3.044-14.428-6.896-4.564-4.232-9.732-9.032-19.876-9.032-10.148 0-15.316 4.796-19.88 9.032-4.148 3.852-7.428 6.896-14.432 6.896-7 0-10.272-3.044-14.416-6.896-4.556-4.236-9.724-9.036-19.864-9.036-10.144 0-15.312 4.796-19.872 9.032-4.148 3.852-7.42 6.896-14.424 6.896-6.988 0-10.264-3.04-14.404-6.892-4.552-4.236-9.716-9.036-19.852-9.036-10.148 0-15.316 4.796-19.876 9.032-4.148 3.852-7.424 6.896-14.428 6.896-7 0-10.276-3.044-14.42-6.896-4.56-4.236-9.728-9.036-19.872-9.036-10.148 0-15.316 4.796-19.876 9.032-4.148 3.852-7.424 6.896-14.428 6.896-7 0-10.276-3.044-14.42-6.896-4.56-4.236-9.724-9.036-19.868-9.036-10.156 0-15.276 4.804-19.792 9.048-4.092 3.844-7.324 6.88-14.316 6.88-7.172 0-10.808-3.304-15.016-7.132-4.532-4.128-9.672-8.8-19.084-8.8-2.212 0-4 1.792-4 4v23.72c0 2.208 1.788 4 4 4 6.316 0 9.576 2.964 13.7 6.716 4.752 4.316 10.136 9.212 20.4 9.212 10.152 0 15.292-4.804 19.832-9.044 4.124-3.848 7.376-6.888 14.372-6.888 6.996 0 10.264 3.04 14.396 6.892 4.548 4.236 9.7 9.04 19.848 9.04s15.312-4.8 19.864-9.036c4.144-3.852 7.412-6.896 14.416-6.896 7 0 10.276 3.044 14.416 6.896 4.556 4.236 9.72 9.036 19.868 9.036 10.148 0 15.312-4.8 19.872-9.036 4.144-3.852 7.42-6.896 14.424-6.896 6.988 0 10.264 3.044 14.404 6.896 4.552 4.236 9.712 9.036 19.848 9.036 10.144 0 15.312-4.8 19.872-9.036 4.148-3.852 7.42-6.896 14.424-6.896 6.996 0 10.272 3.044 14.412 6.896 4.556 4.236 9.72 9.036 19.864 9.036 10.148 0 15.316-4.8 19.876-9.036 4.148-3.852 7.424-6.896 14.428-6.896 7.004 0 10.276 3.044 14.424 6.896 4.56 4.236 9.724 9.036 19.864 9.036 10.148 0 15.316-4.8 19.876-9.036 4.148-3.852 7.424-6.896 14.428-6.896 7.016 0 10.32 3.048 14.504 6.908 4.588 4.228 9.788 9.024 19.932 9.024 10.252 0 15.72-4.88 20.544-9.176 4.22-3.768 7.552-6.744 13.888-6.744 2.212 0 4-1.792 4-4v-23.72c0-2.208-1.788-4-4-4zM492 268.18c-6.96 1.096-11.308 4.98-15.216 8.468-4.308 3.844-8.02 7.16-15.224 7.16-7.02 0-10.324-3.048-14.508-6.908-4.588-4.228-9.788-9.024-19.928-9.024-10.148 0-15.316 4.8-19.876 9.036-4.148 3.852-7.424 6.896-14.428 6.896-6.996 0-10.272-3.044-14.416-6.896-4.56-4.236-9.724-9.036-19.872-9.036s-15.312 4.8-19.872 9.036c-4.148 3.852-7.424 6.896-14.432 6.896-7 0-10.276-3.044-14.416-6.896-4.556-4.236-9.72-9.036-19.86-9.036-10.144 0-15.312 4.8-19.872 9.036-4.148 3.852-7.42 6.896-14.424 6.896-6.988 0-10.264-3.044-14.404-6.896-4.552-4.236-9.712-9.036-19.848-9.036-10.148 0-15.312 4.8-19.872 9.036-4.144 3.852-7.424 6.896-14.424 6.896s-10.276-3.044-14.416-6.896c-4.556-4.236-9.72-9.036-19.864-9.036-10.148 0-15.312 4.8-19.864 9.036-4.144 3.852-7.412 6.896-14.416 6.896-6.996 0-10.264-3.04-14.396-6.892-4.548-4.236-9.7-9.04-19.848-9.04-10.152 0-15.292 4.804-19.832 9.044-4.124 3.848-7.376 6.888-14.372 6.888-7.172 0-10.808-3.304-15.016-7.132-3.844-3.5-8.132-7.396-15.084-8.496v-15.56c3.9.972 6.548 3.384 9.704 6.248 4.752 4.316 10.136 9.212 20.4 9.212 10.156 0 15.276-4.804 19.792-9.048 4.092-3.844 7.324-6.88 14.316-6.88 7 0 10.276 3.044 14.42 6.896 4.56 4.236 9.724 9.036 19.868 9.036 10.148 0 15.316-4.796 19.876-9.032 4.148-3.852 7.424-6.896 14.428-6.896 7.004 0 10.276 3.044 14.424 6.896 4.56 4.232 9.724 9.032 19.868 9.032 10.148 0 15.316-4.796 19.876-9.032 4.148-3.852 7.424-6.896 14.428-6.896 6.992 0 10.264 3.044 14.408 6.896 4.552 4.236 9.716 9.036 19.848 9.036 10.144 0 15.312-4.8 19.872-9.036 4.148-3.852 7.42-6.896 14.424-6.896 7 0 10.272 3.044 14.416 6.896 4.556 4.236 9.724 9.036 19.864 9.036 10.148 0 15.316-4.796 19.88-9.032 4.148-3.852 7.428-6.896 14.432-6.896 7 0 10.28 3.044 14.428 6.896 4.564 4.232 9.732 9.032 19.876 9.032 10.144 0 15.316-4.796 19.884-9.032 4.156-3.856 7.44-6.9 14.448-6.9 7.012 0 10.304 3.044 14.472 6.9 4.576 4.232 9.76 9.028 19.908 9.028 10.256 0 15.724-4.88 20.552-9.188 3.232-2.884 5.948-5.304 9.888-6.28v15.564zM263.664 164.316c-2.212 0-4 1.792-4 4a3.617 3.617 0 0 1-3.616 3.616 3.617 3.617 0 0 1 0-7.232c2.212 0 4-1.792 4-4s-1.788-4-4-4c-6.4 0-11.612 5.212-11.612 11.616s5.208 11.616 11.612 11.616 11.616-5.212 11.616-11.616c0-2.208-1.788-4-4-4zM367.972 131.952c-2.212 0-4 1.792-4 4a3.62 3.62 0 0 1-3.612 3.616 3.617 3.617 0 0 1-3.616-3.616 3.617 3.617 0 0 1 3.616-3.612c2.212 0 4-1.792 4-4s-1.788-4-4-4c-6.404 0-11.616 5.208-11.616 11.612s5.208 11.616 11.616 11.616c6.4 0 11.612-5.208 11.612-11.616 0-2.208-1.788-4-4-4zM135.772 164.256c-2.212 0-4 1.792-4 4a3.617 3.617 0 0 1-3.616 3.616 3.617 3.617 0 0 1-3.616-3.616 3.617 3.617 0 0 1 3.616-3.616c2.212 0 4-1.792 4-4s-1.788-4-4-4c-6.404 0-11.616 5.212-11.616 11.616s5.208 11.616 11.616 11.616 11.616-5.212 11.616-11.616c0-2.208-1.788-4-4-4zM199.628 116.076c-2.212 0-4 1.792-4 4a3.617 3.617 0 0 1-3.612 3.616c-1.996 0-3.616-1.624-3.616-3.616s1.62-3.616 3.616-3.616c2.212 0 4-1.792 4-4s-1.788-4-4-4c-6.404 0-11.616 5.208-11.616 11.616 0 6.404 5.208 11.616 11.616 11.616 6.4 0 11.612-5.212 11.612-11.616 0-2.208-1.788-4-4-4z"/><circle cx="244.08" cy="120.08" r="4"/><circle cx="144" cy="128.34" r="4"/><circle cx="187.66" cy="172.34" r="4"/><circle cx="300.32" cy="144.43" r="4"/><circle cx="308.16" cy="159.98" r="4"/><circle cx="380.08" cy="188.07" r="4"/><circle cx="412.12" cy="152.07" r="4"/><circle cx="80" cy="184.05" r="4"/><path d="M492 333.88H20c-11.028 0-20 8.972-20 20v4c0 11.028 8.972 20 20 20h472c11.028 0 20-8.972 20-20v-4c0-11.028-8.972-20-20-20zm12 24c0 6.616-5.384 12-12 12H20c-6.616 0-12-5.384-12-12v-4c0-6.616 5.384-12 12-12h472c6.616 0 12 5.384 12 12v4zM492 281.88H20c-11.028 0-20 8.972-20 20v4c0 11.028 8.972 20 20 20h472c11.028 0 20-8.972 20-20v-4c0-11.028-8.972-20-20-20zm12 24c0 6.616-5.384 12-12 12H20c-6.616 0-12-5.384-12-12v-4c0-6.616 5.384-12 12-12h472c6.616 0 12 5.384 12 12v4zM466.672 209.88c-2.212 0-4 1.792-4 4s1.788 4 4 4c5.34 0 9.328 6.556 9.328 12.42v3.632c0 7.376-7.78 7.948-10.164 7.948H46.264c-1.712 0-10.264-.384-10.264-7.948V230.3c0-6.036 5.484-12.42 10.668-12.42 2.212 0 4-1.792 4-4s-1.788-4-4-4C36.156 209.88 28 220.86 28 230.3v3.632c0 9.388 7.512 15.948 18.264 15.948h419.572c10.864 0 18.164-6.408 18.164-15.948V230.3c0-9.86-6.96-20.42-17.328-20.42z"/></svg>