<svg xmlns="http://www.w3.org/2000/svg" viewBox="0 0 377.8 377.8" style="enable-background:new 0 0 377.8 377.8" xml:space="preserve"><path d="M369.6 204.4c-.3-1.6-1.8-5.2-7.9-5.2H348c-3.1 0-5.6 2.5-5.6 5.6 0 3.1 2.5 5.6 5.6 5.6h.2c-12.4 6.8-32.9 16.7-51.6 25.1h-23.3c-3.1 0-5.6 2.5-5.6 5.6s2.5 5.6 5.6 5.6h12.8l-6.3 8.2H97l-5.7-8.2h147.4c3.1 0 5.6-2.5 5.6-5.6s-2.5-5.6-5.6-5.6h-158c-18.6-8.4-39-18.3-51.3-25.1h290.9c2.5 0 4.6-1.6 5.3-3.8.4-.9.6-1.9.6-2.9-.1-1.2-2.5-30.1-22.1-43.8-6.2-4.3-13.4-6.6-21.4-6.8-1.5-4.2-5.5-13.9-14.1-22.9-10.3-10.7-29.2-22.4-60.9-17-15.4 2.6-26.3 10.2-34.1 20-3-2.5-8.7-6.5-16.9-9-11.1-3.4-29.3-4.8-52.9 7.9-48.5 26.2-54.9 64.6-55.2 66.2 0 .3-.1.6-.1.9H16.1c-6.1 0-7.6 3.7-7.9 5.2-1.1 4.9 3.2 8.4 12.5 13.8 5.5 3.2 13.3 7.3 23 12.1 16.5 8.1 33.4 15.7 33.5 15.8.1 0 .2.1.3.1l12.1 17.4c1 1.5 2.8 2.4 4.6 2.4h188.5c1.7 0 3.4-.8 4.4-2.2l13.7-18c3.3-1.5 18.3-8.3 33.1-15.5 9.8-4.8 17.6-8.9 23.2-12.1 9.3-5.4 13.6-8.9 12.5-13.8zm-215.2-5.3h-72c2.3-7.3 6-14.1 11.1-20.2 3.7 2.1 8.8 5.3 11.7 8.5 1.3 1.4 2.2 3.2 2.8 5.4.6 2.5 2.9 4.2 5.4 4.2.5 0 .9-.1 1.4-.2 3-.8 4.8-3.8 4.1-6.8-1-4.1-2.9-7.6-5.4-10.3-3.2-3.5-7.9-6.7-11.8-9.1 2.1-1.8 4.4-3.6 6.8-5.2 4.7 2.4 12.3 7 15.8 11.5 1.5 1.9 3.4 5.8 4.4 13.7.3 2.8 2.8 4.9 5.5 4.9h.7c3.1-.4 5.3-3.2 4.9-6.2-1-8.4-3.3-14.9-6.6-19.3-3.5-4.4-8.9-8.4-13.5-11.2 2.9-1.4 5.6-2.5 8.2-3.3 10.3 16.1 21.7 19.6 28.6 20-1.7 9.8-2.1 18.4-2.1 23.6zm4.4-34.6c-2.5.2-10.3-.1-18.7-10.8 11.8-.1 18.4 5.5 18.8 5.9.3.3.7.5 1 .7-.4 1.4-.8 2.8-1.1 4.2zm57.3 34.6h-30.5c0-.5-.1-1.1-.1-1.7-.2-3-.3-6.4-.2-10.2 4.2-2.5 16.4-8 25.6-5.4 7.2 2 11.1 4.4 13 5.8-3 3.9-5.6 7.8-7.8 11.5zm.5-36.7c8.2 2.4 15.6 8.2 19.5 11.7-1.7 1.6-3.3 3.3-4.9 5-3-2.3-8.2-5.4-17.2-8-9.9-2.8-20.5.2-27.4 3.1.5-2.5 1.1-5.1 1.9-7.5.2-.2.4-.3.6-.5 3-2 19-6.2 27.5-3.8zM197.5 152c2.5-2.3 5.5-4.2 9-5.5 25.2-9.5 39.6 7.9 44.5 15.6-2.2 1.4-4.4 3-6.6 4.7-4.3-4.1-13.7-11.9-24.9-15.1-6.4-1.9-14.8-1.3-22 .3zm100.1 17c10.8 7.5 15 22.2 16.5 30.2H304c-1.3-10.2-7.4-25.7-23.6-25.7-9.2 0-19.3 4.7-29.8 13.9-2.3 2-2.5 5.6-.5 7.9 2 2.3 5.6 2.6 7.9.5 8.3-7.3 16-11.1 22.4-11.1 8.6 0 11.4 9.4 12.3 14.5h-63.3c10.1-14.5 25.5-29.2 39.2-33 11.8-3.4 21.5-2.4 29 2.8zm-88.1-44.8c41.9-7.1 57.2 19.4 61.6 29.8-1.8.3-3.7.8-5.6 1.3-1.6.4-3.1 1-4.7 1.6-2.4-3.5-7-9.3-13.7-14.3-9.6-7.1-22.1-16.3-42.8-7.4-29.4 12.6-27.9 47-29.2 63.9h-9.6c.2-16.4 3.6-68.1 44-74.9zm-100.4 17.7c35.1-19 54.9-2.4 58.2.6-1.2 2.2-2.4 4.5-3.4 6.9-6.8-4.6-26.5-14.4-55.5 2.8-.3.2-.6.4-.9.5-19.6 11.9-31.9 27.5-36.7 46.4h-11c1.1-5.2 9.3-35.6 49.3-57.2z"/></svg>