<svg xmlns="http://www.w3.org/2000/svg" data-name="Layer 3" viewBox="0 0 64 64" width="512" height="512"><path d="M20 18a9 9 0 1 0-9-9 9.01 9.01 0 0 0 9 9Zm-6.92-8H19v5.92A7 7 0 0 1 13.08 10ZM21 15.92V10h5.92A7 7 0 0 1 21 15.92ZM26.92 8H21V2.08A7 7 0 0 1 26.92 8ZM19 2.08V8h-5.92A7 7 0 0 1 19 2.08ZM8 18a1 1 0 0 0 1-1v-1a1 1 0 0 0-2 0v1a1 1 0 0 0 1 1Z"/><path d="M1 24h5.852a17.121 17.121 0 0 0 .659 7H2a1 1 0 0 0-1 1v7a19.025 19.025 0 0 0 17 18.893V63a1 1 0 0 0 1 1h26a1 1 0 0 0 1-1v-5.107A19.025 19.025 0 0 0 63 39a1 1 0 0 0-2 0 17.019 17.019 0 0 1-17 17H20a16.9 16.9 0 0 1-6.57-1.323c1.633-2.168 7.055-8.02 18.67-9.182A35.507 35.507 0 0 0 39.3 44a1 1 0 0 0-.6-1.9 33.518 33.518 0 0 1-6.8 1.4c-12.961 1.3-18.7 7.982-20.293 10.26A17 17 0 0 1 3 39v-6h50.682a39.38 39.38 0 0 1-11.094 7.6 1 1 0 1 0 .825 1.822A40.292 40.292 0 0 0 56.458 33H61v2a1 1 0 0 0 2 0v-3a1 1 0 0 0-1-1h-9.866A8.2 8.2 0 0 0 55 24.773v-3.286C56.672 20.147 63 14.7 63 9a1 1 0 0 0-2 0c0 3.845-3.771 7.827-6 9.846V11a1 1 0 0 0-1.707-.707l-6.822 6.822a4.479 4.479 0 0 0-5.362 5.333 588.075 588.075 0 0 0-9.5 8.552h-.656a15.854 15.854 0 0 0-4.245-8.707A1 1 0 0 0 25.4 22.2c-3.371 2.528-4.157 6.853-4.341 8.8h-3.645L9 22.586V20a1 1 0 0 0-2 0v2H1a1 1 0 0 0 0 2Zm43 34v4H20v-4Zm.54-38.809a2.5 2.5 0 1 1-1.349 3.269 2.49 2.49 0 0 1 1.349-3.269ZM42 24.326a4.5 4.5 0 0 0 7.651-4.554 4.444 4.444 0 0 0-1.3-1.719L53 13.414v11.359A6.234 6.234 0 0 1 46.773 31H34.567A640.87 640.87 0 0 1 42 24.326Zm-16.1.074a13.571 13.571 0 0 1 3.04 6.6h-5.868a11.269 11.269 0 0 1 2.828-6.6ZM9.642 31a13.876 13.876 0 0 1-.87-5.814L14.586 31Z"/><path d="M33.063 18.583a3.208 3.208 0 0 0 .342.018 3.471 3.471 0 0 0 2.2-.806c2.137-1.476 5.07-3.236 7.907-4.938 2.881-1.729 5.861-3.517 8.055-5.035a1 1 0 0 0 .211-1.447L50.2 4.4a8.443 8.443 0 0 1 9.242.429 1 1 0 1 0 1.109-1.664 10.477 10.477 0 0 0-11.608-.335l-1.162-1.455a1 1 0 0 0-1.432-.135l-5 4.286a1 1 0 1 0 1.3 1.519l4.214-3.612L49.54 6.78c-2.029 1.347-4.58 2.877-7.057 4.363-2.881 1.729-5.861 3.517-8.055 5.035-.028.02-.055.04-.081.062a1.417 1.417 0 0 1-1.075.355.729.729 0 0 1-.479-.2.77.77 0 0 1-.055-.573 1.415 1.415 0 0 1 .733-.939.979.979 0 0 0 .178-.122l5.833-5a1 1 0 1 0-1.3-1.519l-5.758 4.936a3.41 3.41 0 0 0-1.638 2.222 2.5 2.5 0 0 0 2.278 3.187ZM11 38a1 1 0 0 0 0 2h1a1 1 0 0 0 0-2ZM15 38a1 1 0 0 0 0 2h1a1 1 0 0 0 0-2Z"/></svg>