<svg viewBox="0 -21 512 512" xmlns="http://www.w3.org/2000/svg"><path d="M490.152 240.305H472.38c-1.664-27.024-8.246-53.106-19.637-77.625-1.738-3.754-6.191-5.38-9.945-3.64a7.49 7.49 0 0 0-3.64 9.948c10.464 22.535 16.57 46.492 18.21 71.317h-343.07c-4.137 0-7.488 3.351-7.488 7.488s3.351 7.488 7.488 7.488h375.855c3.79 0 6.868 3.082 6.868 6.871v9.141c0 3.789-3.079 6.871-6.868 6.871H21.848c-3.79 0-6.868-3.082-6.868-6.871v-9.14c0-3.79 3.079-6.872 6.868-6.872h57.539c4.136 0 7.492-3.351 7.492-7.488s-3.356-7.488-7.492-7.488H54.633c3.3-49.754 24.637-96.04 60.597-131.047 34.657-33.735 79.438-53.594 127.297-56.742.028 0 .055.004.082 0 2.04-.133 4.055-.235 6.047-.309.399-.012.793-.031 1.192-.043.71-.023 1.418-.039 2.117-.055 1.344-.023 2.687-.046 4.035-.046 1.79 0 3.578.035 5.363.082l1.582.046c1.375.047 2.746.118 4.118.192.726.039 1.453.078 2.183.125 61.488 4.039 118.059 36.015 153.262 87.289a7.49 7.49 0 0 0 12.347-8.48 216.972 216.972 0 0 0-148.152-92.028 36.464 36.464 0 0 0 5.832-19.77c0-4.07-1.816-11.574-13.98-16.05C272.48 1.234 264.469 0 256 0c-8.473 0-16.484 1.234-22.559 3.469-12.164 4.476-13.976 11.98-13.976 16.05 0 7.13 2.09 13.942 5.8 19.727-45.245 6.402-87.21 26.887-120.484 59.277-38.87 37.84-61.836 87.95-65.16 141.778H21.848C9.8 240.305 0 250.105 0 262.152v9.141c0 12.05 9.8 21.852 21.848 21.852h80.683a92.804 92.804 0 0 0-11.5 9.285l-.148.14c-.23.215-.45.446-.649.692l-35.558 43.18c-4.461-2.833-9.742-3.864-14.953-2.864a20.538 20.538 0 0 0-13.235 8.711L12.504 372.91c-6.395 9.434-3.926 22.32 5.5 28.723l95.691 65.008c3.47 2.355 7.477 3.582 11.582 3.582 1.305 0 2.621-.125 3.934-.375a20.539 20.539 0 0 0 13.23-8.711l13.985-20.621c6.394-9.434 3.93-22.32-5.496-28.723l-.547-.371c6.66-7.559 15.539-12.977 25.199-15.211 20.356-4.715 44.309-1.68 60.555 1.012 20.097 3.328 41.207 2.191 61.047-3.29l27.578-7.62c18.37-5.079 35.277-13.63 50.254-25.418.113-.09.222-.18.332-.278l47.347-41.933c8.07-6.176 9.828-16.871 7.043-25.54h60.414c12.047 0 21.848-9.8 21.848-21.847v-9.145c0-12.047-9.8-21.847-21.848-21.847zM256 14.98c12.613 0 20.172 3.122 21.555 4.856a21.564 21.564 0 0 1-9.543 17.59c-1.473-.078-2.926-.14-4.375-.196-.489-.015-.977-.039-1.465-.05-2.09-.063-4.152-.094-6.172-.094-1.434 0-2.895.02-4.367.05-.711.012-1.426.032-2.14.055-.852.028-1.712.055-2.571.09-.98.043-1.961.086-2.938.14a21.559 21.559 0 0 1-9.539-17.585c1.383-1.734 8.942-4.856 21.555-4.856zm53.71 281.778a24.705 24.705 0 0 0-1.98-3.613h71.84l-31.062 20.558-44.278 12.809-1.503.035c8.523-7.106 11.632-19.238 6.984-29.79zm-81.218-3.613-10.808 2.253-8.356-2.253zm-84.465 138.964-13.98 20.621a5.67 5.67 0 0 1-3.652 2.407 5.673 5.673 0 0 1-4.282-.887l-95.691-65.008a5.71 5.71 0 0 1-1.516-7.922l13.985-20.625a5.656 5.656 0 0 1 3.648-2.402 5.653 5.653 0 0 1 4.281.887l5.168 3.507c0 .004.004.004.004.004l90.52 61.493a5.715 5.715 0 0 1 1.515 7.925zm269.477-125.254c-.18.13-.352.27-.52.418l-47.398 41.985a127.102 127.102 0 0 1-44.813 22.613l-27.578 7.621c-17.757 4.91-36.64 5.93-54.605 2.953-17.508-2.898-43.43-6.144-66.387-.828-13.297 3.078-25.437 10.719-34.27 21.344l-70.792-48.09 34.359-41.726c12.996-12.27 29.477-19.555 45.258-20h.305c4.894-.082 10.074 1.359 15.554 2.894 1.102.305 2.2.613 3.301.91l49.594 13.38a7.489 7.489 0 0 0 3.48.097l64.953-13.543c2.946-.61 6.04-.012 8.489 1.648a10.054 10.054 0 0 1 3.57 4.266c2.226 5.05.129 10.98-4.848 13.543l-22.16 11.734a7.49 7.49 0 0 0-3.742 8.5c.875 3.364 3.934 5.653 7.41 5.606l32.871-.711a7.55 7.55 0 0 0 1.918-.293l46.317-13.399a7.503 7.503 0 0 0 2.054-.949l46.727-30.93c3.922-2.421 9.14-4.414 11.918-.316 2.164 3.188 2.215 8.926-.965 11.273zm0 0"/></svg>