<svg xmlns="http://www.w3.org/2000/svg" viewBox="0 0 395.522 395.522" style="enable-background:new 0 0 395.522 395.522" xml:space="preserve"><path d="M136.34 139.121c-15.508-.044-28.116 12.492-28.16 28v.08c0 15.477 12.523 28.036 28 28.08 15.508.044 28.116-12.492 28.16-28 .044-15.508-12.492-28.116-28-28.16zm-.001 40.319c-6.671.044-12.115-5.328-12.159-12v-.159c0-6.641 5.36-12.036 12-12.08v.08c6.671-.044 12.115 5.329 12.159 12 .044 6.671-5.328 12.115-12 12.159zM161.94 258.641c-15.508-.088-28.151 12.412-28.24 27.92-.088 15.508 12.412 28.151 27.92 28.24 15.508.088 28.151-12.412 28.24-27.92v-.159c0-15.447-12.475-27.993-27.92-28.081zm11.92 28.08c-.043 6.578-5.342 11.913-11.92 12v-.08c-6.671.088-12.15-5.249-12.238-11.92-.088-6.671 5.249-12.15 11.92-12.238 6.671-.088 12.15 5.249 12.238 11.92v.318z"/><circle cx="247.14" cy="93.201" r="14.16"/><circle cx="116.1" cy="230.401" r="14.16"/><circle cx="238.74" cy="286.721" r="14.16"/><path d="M349.86 182.081a8 8 0 0 0-9.634-5.931l-.046.011-32 8-39.2 9.44-37.84 9.12-41.28 9.84V57.921a8 8 0 0 0-8-8C86.425 49.906 9.048 127.259 9.033 222.693c-.015 95.435 77.338 172.812 172.773 172.827h.055c95.125.42 172.579-76.353 172.999-171.478a172.322 172.322 0 0 0-5-41.961zm-85.04 28.96a10.88 10.88 0 0 1-7.76 11.04 11.52 11.52 0 0 1-14.56-5.68l22.32-5.36zm-83.178 19.892a8.008 8.008 0 0 0 2.058-.212l42.88-10.56a30.72 30.72 0 0 0 26.32 17.92c15.508 0 28.08-12.572 28.08-28.08a26.69 26.69 0 0 0 0-3.2l22.8-5.52c0 1.52.64 3.04.8 4.48s0 2.48.48 3.76c.499 4.249.766 8.522.8 12.8 0 68.329-55.391 123.72-123.72 123.72S58.42 290.649 58.42 222.321c-.402-65.173 50.368-119.215 115.44-122.88v123.28a8 8 0 0 0 7.782 8.212zm.473 148.602C95.516 379.455 25.38 309.189 25.46 222.59c.077-83.278 65.241-151.968 148.4-156.43v17.12c-74.435 3.072-132.836 64.951-131.6 139.44 0 77.165 62.555 139.72 139.72 139.72S321.7 299.885 321.7 222.72c0-3.6 0-7.28-.56-10.96v-2.64c0-3.68-.88-7.36-1.52-11.12l16.64-4a153.903 153.903 0 0 1 2.8 28.88c-.08 86.599-70.347 156.736-156.945 156.655z"/><path d="m386.271 132.446-.011-.045C367.796 54.612 298.209-.228 218.26.001a8 8 0 0 0-8 8v164.8a8 8 0 0 0 8 8l.24.64h1.84l50.88-12.24 37.84-9.12 39.28-10 32-8a8 8 0 0 0 5.931-9.635zm-75.531 10.675a28.079 28.079 0 0 0-28.24-9.04 26.958 26.958 0 0 0-20.64 20.64l-35.6 8.56.24-113.2a123.116 123.116 0 0 1 76 30.88c23.44 19.6 33.92 48.4 33.92 56l-25.68 6.16zm41.36-10.32a126.482 126.482 0 0 0-47.36-69.52 144.723 144.723 0 0 0-78.32-29.52l.08-16.96c66.434 3.213 123.534 48.173 142.24 112l-16.64 4z"/></svg>