<svg height="512" width="512" xmlns="http://www.w3.org/2000/svg"><path d="M437.02 74.98C388.667 26.629 324.38 0 256 0c-55.203 0-107.775 17.295-152.036 50.016a7.5 7.5 0 1 0 8.917 12.062C154.542 31.279 204.031 15 256 15c132.888 0 241 108.112 241 241S388.888 497 256 497 15 388.888 15 256c0-64.987 25.48-125.916 71.746-171.563A7.5 7.5 0 0 0 76.211 73.76C27.065 122.247 0 186.969 0 256c0 68.38 26.629 132.668 74.98 181.02C123.333 485.371 187.62 512 256 512s132.667-26.629 181.02-74.98C485.371 388.668 512 324.38 512 256s-26.629-132.668-74.98-181.02z"/><path d="M88.281 172.094c-16.733 33.108-23.202 70.028-18.702 106.961 2.826 23.196 9.824 45.298 20.783 65.734 1.987 30.17 15.339 59.246 38.697 80.641a7.497 7.497 0 0 0 10.597-.465 7.5 7.5 0 0 0-.465-10.596c-31.151-28.51-41.926-72.677-28.286-111.86l13.371 7.328c-13.266 39.609 5.473 86.51 42.587 106.015 36.55 20.806 85.704 11.208 112.232-21.165l13.38 7.333c-9.03 11.375-20.279 20.664-32.902 27.41-27.986 15.259-63.522 16.618-92.677 3.19a7.496 7.496 0 0 0-9.922 3.748 7.5 7.5 0 0 0 3.748 9.922c32.638 15.021 72.357 13.897 103.998-2.632 4.554-.223 9.14-.604 13.66-1.155 27.088-3.302 53.331-12.598 76.384-26.967 7.46 9.319 17.257 20.521 30.369 19.545 9.87-.402 18.962-7.434 21.906-16.913l8.853-27.563a12.5 12.5 0 0 1 6.934-7.648c6.792-3.546 29.484-10.923 34.119-17.193 4.34-4.834 6.539-11.069 6.189-17.557s-3.204-12.45-8.038-16.791l-3.853-3.458a65.974 65.974 0 0 0-17.958-11.521c8.968-26.448 11.934-54.883 8.541-82.734-4.287-35.186-18.375-68.263-40.74-95.655-21.753-26.642-50.339-46.818-82.669-58.352a7.5 7.5 0 0 0-5.04 14.129c62.097 22.149 105.61 76.443 113.56 141.692 3.144 25.802.359 52.145-8.024 76.611-10.296-1.822-21.034-1.15-31.37 2.169-12.026-11.889-20.558-26.854-24.782-43.543a7.5 7.5 0 0 0-14.542 3.679c5.325 21.04 16.572 39.733 32.524 54.061a7.501 7.501 0 0 0 7.816 1.376c18.076-7.3 38.312-3.646 52.663 9.249 7.197 4.564 10.434 14.471 1.329 18.949l-25.687 11.124a27.496 27.496 0 0 0-15.254 16.826l-8.853 27.563a9.343 9.343 0 0 1-1.996 3.439c-3.435 3.825-9.341 4.142-13.165.708l-3.853-3.459c-14.525-13.042-20.249-33.555-14.581-52.26a7.502 7.502 0 0 0-2.263-7.841c-16.437-14.257-36.672-23.104-58.517-25.584-38.623-4.386-92.506-16.657-129.873-50.209-14.859-13.342-27.766-28.505-38.28-44.765 50.324-21.865 89.018-64.759 105.62-117.029 17.158 8.682 33.488 19.823 48.24 33.07 15.976 14.344 29.617 33.106 40.78 55.993.024.052.052.103.077.154 5.29 10.865 10.029 22.649 14.183 35.349 1.288 3.937 5.521 6.089 9.46 4.796a7.499 7.499 0 0 0 4.796-9.46c-3.587-10.966-7.599-21.308-12.017-31.022 10.706-6.306 25.533-13.447 28.581-26.764a37.387 37.387 0 0 0-16.888-43.238L302.6 105.821c-15.355-9.02-34.66-7.225-48.095 3.841-14.156-8.226-28.988-14.868-44.105-19.738a173.299 173.299 0 0 1 24.439-4.779 172.327 172.327 0 0 1 45.899.539 7.492 7.492 0 0 0 8.511-6.329 7.5 7.5 0 0 0-6.33-8.511c-16.462-2.42-33.249-2.617-49.895-.59a187.284 187.284 0 0 0-49.33 12.987 193.08 193.08 0 0 0-4.841-.809c-36.307-5.532-67.452.599-81.282 16.001-12.662 14.107-16.03 41.822-9.29 73.661zm49.438 145.111 53.203 29.158-45.349 28.808a75.49 75.49 0 0 1-7.451-17.226c-3.949-13.527-4.067-27.454-.403-40.74zm16.777 70.069 43.456-27.605 1.289 51.473a75.118 75.118 0 0 1-25.169-8.445 75.091 75.091 0 0 1-19.576-15.423zm59.766 24.527-1.337-53.379 52.707 28.886c-13.186 14.438-31.782 23.376-51.37 24.493zm-55.773-122.263c40.314 36.197 97.407 49.318 138.202 53.951 17.277 1.962 33.374 8.535 46.835 19.087-2.965 13.513-1.507 27.494 3.807 39.927-17.287 10.899-36.045 18.494-55.991 22.664a119.58 119.58 0 0 0 18.451-21.436 7.5 7.5 0 0 0-2.62-10.762l-26.451-14.497h-.001l-39.036-21.394-131.038-71.816c-3.706-2.136-8.843-.39-10.474 3.566a119.83 119.83 0 0 0-7.573 23.775 172.376 172.376 0 0 1-8.131-35.364c-3.431-28.164.07-56.318 10.135-82.473 12.11 35.092 34.427 68.322 63.885 94.772zm136.516-170.783 50.461 29.638a22.434 22.434 0 0 1 10.133 25.943c-1.701 8.454-14.564 13.377-20.856 17.611-11.334-21.455-24.918-39.349-40.632-53.458a240.063 240.063 0 0 0-25.78-20.144c8.167-4.428 18.327-4.493 26.674.41zm-186.27-10.3c8.466-9.429 32.731-16.544 67.861-11.193 15.328 2.336 30.655 6.738 45.529 12.976-15.157 49.59-51.835 90.256-99.648 110.396-7.701-14.008-13.655-28.649-17.588-43.509-9.092-34.352-4.619-59.241 3.846-68.67z"/><path d="M146.175 152.823c9.612 8.636 24.507 7.878 33.186-1.786 8.634-9.225 7.787-24.942-1.786-33.187-9.643-8.656-24.529-7.856-33.186 1.786-8.633 9.226-7.787 24.943 1.786 33.187zm9.376-23.165c3.139-3.496 8.527-3.77 12.003-.646 3.463 2.982 3.769 8.667.646 12.003-3.131 3.487-8.516 3.777-12.003.646-3.463-2.982-3.769-8.667-.646-12.003z"/></svg>