<svg width="32" height="32" viewBox="0 0 32 32" fill="none" xmlns="http://www.w3.org/2000/svg">
<ellipse cx="16" cy="15.9477" rx="16" ry="15.9477" fill="#BEF9DC"/>
<path d="M26 15.1129C26 15.0825 25.9705 14.9611 25.941 14.87L23.3742 9.31464C23.3152 9.1325 23.1087 8.98071 22.9022 8.98071H17.0901V7.61463C17.0901 7.25034 16.8245 6.97713 16.4705 6.97713C16.1165 6.97713 15.8509 7.21999 15.8509 7.55392V8.95035H10.1273C9.95031 8.95035 9.74379 9.1325 9.65528 9.31464L7.05901 14.8397C7.0295 14.9307 7 15.0825 7 15.0825C7 16.904 8.41615 18.3611 10.1863 18.3611C11.9565 18.3611 13.3727 16.904 13.3727 15.0825C13.3727 15.0522 13.3727 14.9307 13.3137 14.8397L11.1599 10.195H15.8509V23.6433H10.8649C10.5109 23.6433 10.2453 23.9165 10.2453 24.2808C10.2453 24.6451 10.5109 24.9183 10.8649 24.9183H22.0761C22.4301 24.9183 22.6957 24.6451 22.6957 24.2808C22.6957 23.9165 22.4301 23.6433 22.0761 23.6433H17.0901V10.195H21.7811L19.6273 14.8397C19.5683 14.9307 19.5683 15.0825 19.5683 15.0825C19.5683 16.904 20.9845 18.3611 22.7547 18.3611C24.5248 18.3915 26 16.9343 26 15.1129ZM10.1863 11.045L11.7795 14.4754H8.59317L10.1863 11.045ZM10.1863 17.1165C9.33075 17.1165 8.59317 16.5397 8.32764 15.7504H12.0155C11.7795 16.5397 11.0419 17.1165 10.1863 17.1165ZM24.4068 14.4754H21.191L22.7842 11.045L24.4068 14.4754ZM22.7842 17.1165C21.9286 17.1165 21.191 16.5397 20.9255 15.7504H24.6134C24.4068 16.5397 23.6398 17.1165 22.7842 17.1165Z" fill="#00A353"/>
</svg>
