<svg xmlns="http://www.w3.org/2000/svg" width="150.463" height="150.463" viewBox="0 0 150.463 150.463">
  <g id="icon-firma" transform="translate(-471 -147)">
    <circle id="Ellipse_7" data-name="Ellipse 7" cx="75.231" cy="75.231" r="75.231" transform="translate(471 147)" fill="#cde1fa"/>
    <g id="factory" transform="translate(505 166.112)">
      <path id="Pfad_20" data-name="Pfad 20" d="M46.968,16.342a4.046,4.046,0,0,1-.459-.9l.166-.152s.322.134.885.364c.266.106.591.236.963.383a11.3,11.3,0,0,0,1.195.392,3.539,3.539,0,0,0,.648.155c.112.015.218.046.329.066s.22.011.329.025a6.778,6.778,0,0,0,1.295-.012c.207-.076.437-.1.662-.194a5.075,5.075,0,0,0,.667-.348c.1-.07.207-.142.32-.214a1.261,1.261,0,0,0,.366-.253l.788-.662c.007-.01-.046.068-.02.031l.005-.006.013-.012.026-.022.052-.046.1-.093.207-.181.39-.37c.245-.253.554-.45.8-.693s.571-.406.831-.65c.278-.219.6-.384.918-.6a3.941,3.941,0,0,1,2.121-.444c.173.019.341.046.506.076s.31.1.459.155a4.361,4.361,0,0,1,.814.386,5.608,5.608,0,0,1,1.2.936,5.368,5.368,0,0,1,.715.905,4.253,4.253,0,0,1,.351.663c.06.165.091.255.091.255l-.165.154s-.355-.12-.9-.348c-.265-.106-.587-.239-.957-.387s-.749-.309-1.164-.449a5.773,5.773,0,0,0-.635-.207c-.11-.027-.217-.07-.327-.1a2.886,2.886,0,0,1-.329-.086,6.842,6.842,0,0,0-1.474-.347,3.221,3.221,0,0,0-.846.137,2.393,2.393,0,0,0-.772.471,3.31,3.31,0,0,0-.6.716l-.216.432-.1.218-.048.108-.024.056-.012.025-.006.013,0,.008c.021-.032-.033.05-.03.046l-.425.937a4.8,4.8,0,0,1-.72.943,5.654,5.654,0,0,1-.935.771,6.721,6.721,0,0,1-1.1.534,4.416,4.416,0,0,1-2.3.08,3.926,3.926,0,0,1-.964-.329,5.59,5.59,0,0,1-.8-.437,6.216,6.216,0,0,1-1.171-.992A5.677,5.677,0,0,1,46.968,16.342ZM80.91,69.473V88.761H0V69.473H5.511V47.805l15.531-10.9v10.9l15.529-10.9v10.9L52.1,36.908V58.327h5.359l2.91-37.888h8.882L71.8,58.327h5.976V69.474H80.91v0ZM25.363,61.143H13.152V72.416H25.363Zm21.041,0H34.193V72.416H46.4Zm21.3,0H55.5V72.416H67.709Z" transform="translate(0 0)" fill="#fff"/>
    </g>
  </g>
</svg>
