<svg xmlns="http://www.w3.org/2000/svg" width="150.002" height="150" viewBox="0 0 150.002 150">
    <defs>
        <style>
            .cls-1{clip-path:url(#clip-path)}.cls-2{fill:#fff}.cls-3{fill:#cde1fa}
        </style>
    </defs>
    <g id="Gruppe_maskieren_1" class="cls-1" data-name="Gruppe maskieren 1">
        <g id="Ebene_2" data-name="Ebene 2">
            <g id="Capa_1" data-name="Capa 1">
                <path id="Pfad_301" d="M49.555 114.953L27.2 127.151a19.81 19.81 0 0 0-3.595 2.576 74.943 74.943 0 0 0 96.225.255 20.011 20.011 0 0 0-3.938-2.661l-23.915-11.972a9.169 9.169 0 0 1-5.038-8.179v-9.4a34.391 34.391 0 0 0 2.263-2.83 54.793 54.793 0 0 0 7.444-15.029A7.5 7.5 0 0 0 102 72.754v-10.1a7.529 7.529 0 0 0-2.518-5.661v-14.35S102.307 20 71.883 20 44.289 42.643 44.289 42.643v14.438a7.529 7.529 0 0 0-2.518 5.661v10.019a7.613 7.613 0 0 0 3.48 6.34 50.037 50.037 0 0 0 9.085 18.764v9.169a9.113 9.113 0 0 1-4.783 7.924z" class="cls-2" data-name="Pfad 301" transform="translate(3.151 2.662)"/>
                <path id="Pfad_302" d="M76.415-.005a74.943 74.943 0 0 0-49.668 132.344 19.557 19.557 0 0 1 3.538-2.518l22.387-12.226a9.085 9.085 0 0 0 4.755-8.009v-9.169a49.726 49.726 0 0 1-9.059-18.794 7.444 7.444 0 0 1-3.48-6.312V65.292a7.529 7.529 0 0 1 2.518-5.668V45.283S44.431 22.641 75 22.641s27.6 22.642 27.6 22.642v14.438a7.5 7.5 0 0 1 2.49 5.661V75.4a7.5 7.5 0 0 1-5.322 7.161 56.01 56.01 0 0 1-7.448 15.03 25.845 25.845 0 0 1-2.263 2.83v9.4A9.169 9.169 0 0 0 95.1 118l23.966 11.965a20.746 20.746 0 0 1 3.934 2.621A75 75 0 0 0 76.415-.005z" class="cls-3" data-name="Pfad 302" transform="translate(.035 .02)"/>
            </g>
        </g>
    </g>
</svg>
