<svg width="32" height="32" viewBox="0 0 32 32" fill="none" xmlns="http://www.w3.org/2000/svg">
<circle cx="16" cy="16" r="16" fill="#FFDCDA"/>
<path d="M23.6668 10.1667C23.6668 11.5474 20.6821 12.6667 17.0002 12.6667C13.3183 12.6667 10.3335 11.5474 10.3335 10.1667M23.6668 10.1667C23.6668 8.78595 20.6821 7.66666 17.0002 7.66666C13.3183 7.66666 10.3335 8.78595 10.3335 10.1667M23.6668 10.1667V21.8333C23.6668 23.2141 20.6821 24.3333 17.0002 24.3333C13.3183 24.3333 10.3335 23.2141 10.3335 21.8333V10.1667M23.6668 14.0555C23.6668 15.4362 20.6821 16.5555 17.0002 16.5555C13.3183 16.5555 10.3335 15.4362 10.3335 14.0555M23.6668 17.9417C23.6668 19.3224 20.6821 20.4417 17.0002 20.4417C13.3183 20.4417 10.3335 19.3224 10.3335 17.9417" stroke="#D94339" stroke-width="1.5" stroke-linecap="round" stroke-linejoin="round"/>
</svg>
