<svg width="32" height="32" viewBox="0 0 32 32" fill="none" xmlns="http://www.w3.org/2000/svg">
<circle cx="16" cy="16" r="16" fill="#BEF9DC"/>
<path d="M13.1201 15.4038H19.0376V16.81H13.1201V15.4038ZM13.1201 18.0588H19.0376V19.465H13.1201V18.0588ZM13.1201 12.7038H19.0376V14.11H13.1201V12.7038Z" fill="#00A353"/>
<path d="M19.7576 8.125L17.8451 7.315L16.0901 8.125L14.2113 7.315L12.4451 8.125L9.76758 7V25L12.4451 23.875L14.2113 24.6512L16.0901 23.875L17.8451 24.6512L19.7576 23.875L22.2326 25V7L19.7576 8.125ZM20.8151 22.8737L19.7801 22.4125L17.8788 23.1888L16.1126 22.3787L14.2226 23.155L12.4788 22.3787L11.1851 22.9075V9.0925L12.4788 9.62125L14.2226 8.845L16.1126 9.62125L17.8788 8.845L19.7801 9.62125L20.8151 9.16V22.8737Z" fill="#00A353"/>
</svg>
