<svg width="32" height="32" viewBox="0 0 32 32" fill="none" xmlns="http://www.w3.org/2000/svg">
<circle cx="16" cy="16" r="16" fill="#BEF9DC"/>
<path d="M17.9971 16.2012L17.7945 16.8042H14L14.2026 16.2012H17.9971ZM16.1505 20L14.0781 17.8784L14.0724 17.4023H15.0999C15.3565 17.4023 15.5736 17.369 15.7511 17.3022C15.9286 17.2355 16.0637 17.1387 16.1563 17.0117C16.2489 16.8831 16.2952 16.7269 16.2952 16.543C16.2952 16.2695 16.1987 16.0522 16.0058 15.8911C15.8128 15.73 15.5109 15.6494 15.0999 15.6494H14L14.2113 15H15.0999C15.5784 15 15.973 15.0643 16.2836 15.1929C16.5943 15.3215 16.8259 15.4997 16.9783 15.7275C17.1307 15.9554 17.2069 16.2183 17.2069 16.5161C17.2069 16.7814 17.1442 17.0215 17.0188 17.2363C16.8934 17.4512 16.6937 17.6261 16.4197 17.7612C16.1457 17.8963 15.7858 17.9753 15.3401 17.998L15.314 18.0029L17.2069 19.9585V20H16.1505ZM18 15L17.7945 15.6079L14.7612 15.5933L14.9667 15H18Z" fill="#00A353"/>
<path d="M19.7576 8.125L17.8451 7.315L16.0901 8.125L14.2113 7.315L12.4451 8.125L9.76758 7V25L12.4451 23.875L14.2113 24.6512L16.0901 23.875L17.8451 24.6512L19.7576 23.875L22.2326 25V7L19.7576 8.125ZM20.8151 22.8737L19.7801 22.4125L17.8788 23.1888L16.1126 22.3787L14.2226 23.155L12.4788 22.3787L11.1851 22.9075V9.0925L12.4788 9.62125L14.2226 8.845L16.1126 9.62125L17.8788 8.845L19.7801 9.62125L20.8151 9.16V22.8737Z" fill="#00A353"/>
<path d="M12.415 12.7833C12.4425 12.5862 12.6375 12.3784 12.7875 12.3763C12.7979 12.3764 12.8085 12.3721 12.8156 12.3633C12.8226 12.3589 12.8296 12.3545 12.8333 12.3411C12.8876 12.2163 12.8613 12.1172 12.7754 12.0351C12.6758 11.9393 12.514 12.031 12.4325 12.1149C12.227 12.3271 12.0155 12.6962 12.0204 13.0508C11.9818 13.288 11.9848 13.5438 12.0337 13.7555C12.0665 13.8906 12.1665 13.9595 12.2709 13.9701C12.3753 13.9807 12.5908 14.0245 12.6861 13.9452C12.7815 13.8659 12.7909 13.709 12.8035 13.5746C12.8163 13.4267 12.852 13.1491 12.7563 13.0309C12.6605 12.9172 12.3797 13.034 12.415 12.7833Z" fill="#00A353"/>
<path d="M13.5654 12.8013C13.5929 12.6043 13.7879 12.3965 13.9379 12.3943C13.9483 12.3945 13.9588 12.3902 13.966 12.3813C13.973 12.377 13.98 12.3726 13.9837 12.3592C14.038 12.2344 14.0117 12.1353 13.9258 12.0531C13.8262 11.9573 13.6644 12.049 13.5829 12.133C13.3774 12.3452 13.1659 12.7143 13.1708 13.0688C13.1322 13.3061 13.1352 13.5619 13.1841 13.7735C13.2169 13.9087 13.3169 13.9775 13.4213 13.9882C13.5257 13.9988 13.7412 14.0425 13.8365 13.9633C13.9319 13.884 13.9413 13.7271 13.9539 13.5927C13.9667 13.4448 14.0024 13.1672 13.9067 13.049C13.8108 12.9353 13.5266 13.052 13.5654 12.8013Z" fill="#00A353"/>
<path d="M19.5881 13.207C19.5637 13.4044 19.372 13.6153 19.2221 13.6198C19.2116 13.6198 19.2012 13.6242 19.1942 13.6332C19.1872 13.6377 19.1803 13.6422 19.1768 13.6557C19.1245 13.7813 19.1524 13.88 19.2395 13.9607C19.3406 14.055 19.5009 13.9607 19.5811 13.8755C19.7833 13.6601 19.9889 13.2878 19.9785 12.9333C20.0133 12.6955 20.0063 12.4398 19.9541 12.2289C19.9192 12.0943 19.8181 12.027 19.7136 12.018C19.609 12.0091 19.3929 11.9687 19.2988 12.0494C19.2047 12.1302 19.1977 12.2872 19.1872 12.4218C19.1768 12.5699 19.1454 12.8481 19.243 12.9647C19.3406 13.0769 19.6194 12.9557 19.5881 13.207Z" fill="#00A353"/>
<path d="M18.4377 13.207C18.4133 13.4044 18.2216 13.6153 18.0717 13.6198C18.0612 13.6198 18.0508 13.6242 18.0438 13.6332C18.0368 13.6377 18.0299 13.6422 18.0264 13.6557C17.9741 13.7813 18.002 13.88 18.0891 13.9607C18.1902 14.055 18.3505 13.9607 18.4307 13.8755C18.6329 13.6601 18.8385 13.2877 18.8281 12.9333C18.8629 12.6955 18.856 12.4398 18.8037 12.2289C18.7688 12.0943 18.6677 12.027 18.5632 12.018C18.4586 12.0091 18.2425 11.9687 18.1484 12.0494C18.0543 12.1302 18.0473 12.2872 18.0368 12.4218C18.0264 12.5699 17.995 12.8481 18.0926 12.9647C18.1902 13.0769 18.4725 12.9557 18.4377 13.207Z" fill="#00A353"/>
</svg>
