<svg width="32" height="32" viewBox="0 0 32 32" fill="none" xmlns="http://www.w3.org/2000/svg">
<circle cx="16" cy="16" r="16" fill="#FFDCDA"/>
<g clip-path="url(#clip0_257_19502)">
<path d="M16.6925 14.1879C17.0008 14.2821 17.3279 14.3333 17.6667 14.3333C19.5075 14.3333 21 12.8408 21 11C21 9.15916 19.5075 7.66666 17.6667 7.66666C16.745 7.66666 15.9108 8.04082 15.3075 8.64541C14.9992 8.55124 14.6725 8.49999 14.3333 8.49999C12.4925 8.49999 11 9.99249 11 11.8333C11 13.6742 12.4925 15.1667 14.3333 15.1667C15.255 15.1667 16.0892 14.7925 16.6925 14.1879ZM17.6667 9.33332C18.5858 9.33332 19.3333 10.0808 19.3333 11C19.3333 11.9192 18.5858 12.6667 17.6667 12.6667C16.7475 12.6667 16 11.9192 16 11C16 10.0808 16.7479 9.33332 17.6667 9.33332ZM12.6667 11.8333C12.6667 10.9142 13.4142 10.1667 14.3333 10.1667C14.37 10.1667 14.4038 10.175 14.44 10.1775C14.3729 10.4408 14.3333 10.7154 14.3333 11C14.3333 11.8662 14.6667 12.6529 15.2083 13.2454C14.9533 13.4042 14.6554 13.5 14.3333 13.5C13.4146 13.5 12.6667 12.7525 12.6667 11.8333Z" fill="#D94339"/>
<path d="M18.5002 16C16.0202 16 13.9948 16.7971 13.1252 17.9904C12.6877 17.6096 12.3493 17.235 12.1668 16.9992C11.3393 15.8979 9.76934 15.6738 8.66684 16.5C7.56434 17.3267 7.33976 18.8971 8.16726 20C8.29976 20.1771 11.4714 24.3333 16.0002 24.3333H24.3335V19.3333C24.3335 17.4329 21.8256 16 18.5002 16ZM9.50018 19C9.22434 18.6325 9.29934 18.1087 9.66559 17.8333C9.81559 17.7208 9.99184 17.6671 10.166 17.6671C10.4193 17.6671 10.6689 17.7812 10.831 17.9967C10.8531 18.0267 13.0943 21 16.0002 21H19.3335V20.1667V19.3333H16.0002C15.4881 19.3333 14.9752 19.1729 14.496 18.9325C14.966 18.3221 16.4273 17.6667 18.5002 17.6667C21.0435 17.6667 22.6668 18.6537 22.6668 19.3333V22.6667H21.8335H16.0002C12.2948 22.6667 9.61226 19.1496 9.50018 19Z" fill="#D94339"/>
</g>
<defs>
<clipPath id="clip0_257_19502">
<rect width="20" height="20" fill="white" transform="translate(6 6)"/>
</clipPath>
</defs>
</svg>
