<svg width="32" height="32" viewBox="0 0 32 32" fill="none" xmlns="http://www.w3.org/2000/svg">
  <rect width="32" height="32" rx="16" fill="#FFDCDA" />
  <g clip-path="url(#clip0_257_40392)">
    <path
      d="M9 9L9.20429 9.06844C10.2219 9.41067 10.7307 9.58178 11.0213 9.98933C11.3127 10.3969 11.3127 10.9382 11.3127 12.0201V14.0556C11.3127 16.2551 11.3127 17.3557 11.9903 18.0386C12.6672 18.7222 13.758 18.7222 15.9381 18.7222H22.1053"
      stroke="#D94339" stroke-width="1.5" stroke-linecap="round" />
    <path
      d="M13.2403 20.6641C13.547 20.6641 13.8411 20.787 14.058 21.0058C14.2749 21.2246 14.3967 21.5213 14.3967 21.8307C14.3967 22.1401 14.2749 22.4369 14.058 22.6557C13.8411 22.8745 13.547 22.9974 13.2403 22.9974C12.9337 22.9974 12.6395 22.8745 12.4227 22.6557C12.2058 22.4369 12.084 22.1401 12.084 21.8307C12.084 21.5213 12.2058 21.2246 12.4227 21.0058C12.6395 20.787 12.9337 20.6641 13.2403 20.6641ZM20.1784 20.6641C20.4851 20.6641 20.7792 20.787 20.9961 21.0058C21.2129 21.2246 21.3348 21.5213 21.3348 21.8307C21.3348 22.1401 21.2129 22.4369 20.9961 22.6557C20.7792 22.8745 20.4851 22.9974 20.1784 22.9974C19.8717 22.9974 19.5776 22.8745 19.3608 22.6557C19.1439 22.4369 19.0221 22.1401 19.0221 21.8307C19.0221 21.5213 19.1439 21.2246 19.3608 21.0058C19.5776 20.787 19.8717 20.6641 20.1784 20.6641Z"
      stroke="#D94339" />
    <path
      d="M11.3125 11.3359H20.1393C21.7235 11.3359 22.516 11.3359 22.8583 11.8602C23.2013 12.3852 22.8891 13.1194 22.2647 14.5886L21.9347 15.3664C21.6433 16.0524 21.4976 16.3946 21.2085 16.5875C20.9187 16.7804 20.5486 16.7804 19.8094 16.7804H11.3125"
      stroke="#D94339" stroke-width="1.5" />
  </g>
  <defs>
    <clipPath id="clip0_257_40392">
      <rect width="16" height="16" fill="white" transform="translate(8 8)" />
    </clipPath>
  </defs>
</svg>