<svg width="166" height="157" viewBox="0 0 166 157" fill="none" xmlns="http://www.w3.org/2000/svg">
<path d="M24.0781 156.828C23.2344 156.828 22.3906 156.547 21.6875 155.844C20.1406 154.578 20 152.188 21.2656 150.5L35.3281 134.047L34.4844 133.344C16.7656 119.141 6.64062 97.9062 6.64062 75.2656C6.64062 66.5469 8.1875 57.9688 11 49.8125L11.2812 49.1094L10.7188 48.6875C3.96875 43.4844 0.03125 35.6094 0.03125 27.1719C0.03125 12.2656 12.125 0.171875 27.0313 0.171875C34.4844 0.171875 41.375 3.125 46.4375 8.32812L47 8.89063L47.7031 8.60938C58.25 3.125 70.0625 0.312501 82.0156 0.312501C94.1094 0.312501 106.344 3.40625 117.312 9.17187L118.016 9.59375L118.578 9.03125C123.641 3.54687 130.812 0.312501 138.406 0.312501C153.312 0.312501 165.406 12.4062 165.406 27.3125C165.406 36.3125 160.906 44.75 153.453 49.8125L152.75 50.2344L153.031 50.9375C155.703 58.8125 157.109 66.9688 157.109 75.5469C157.109 98.3281 146.984 119.562 129.266 133.766L128.422 134.328L142.203 150.781C142.906 151.484 143.188 152.469 143.047 153.453C142.906 154.438 142.484 155.422 141.641 156.125C140.938 156.688 140.094 156.969 139.109 156.969C137.984 156.969 137 156.547 136.156 155.703L121.812 138.828L121.109 139.25C109.156 146.562 95.5156 150.5 81.5938 150.5C67.5312 150.5 53.8906 146.562 42.0781 139.25L41.375 138.828L26.8906 155.844C26.1875 156.266 25.0625 156.828 24.0781 156.828ZM81.875 7.625C44.6094 7.625 14.375 37.8594 14.375 75.125C14.375 112.391 44.6094 142.625 81.875 142.625C119.141 142.625 149.375 112.391 149.375 75.125C149.375 37.8594 119 7.625 81.875 7.625ZM138.125 7.625C133.344 7.625 128.844 9.3125 125.328 12.5469L124.344 13.3906L125.328 14.0937C135.312 21.2656 143.469 30.8281 148.953 41.7969L149.516 42.9219L150.5 42.0781C155 38.4219 157.531 32.9375 157.531 27.1719C157.531 16.3438 148.812 7.625 138.125 7.625ZM27.1719 7.625C16.4844 7.625 7.76562 16.3438 7.76562 27.0312C7.76562 32.375 9.875 37.2969 13.6719 40.9531L14.6562 41.9375L15.2188 40.8125C20.8438 29.9844 29.1406 20.4219 39.2656 13.5312L40.3906 12.8281L39.4062 11.9844C35.8906 9.17187 31.5312 7.625 27.1719 7.625Z" fill="#0071CA"/>
</svg>
