<svg width="33" height="32" viewBox="0 0 33 32" fill="none" xmlns="http://www.w3.org/2000/svg">
  <rect x="0.5" width="32" height="32" rx="16" fill="white" />
  <path
    d="M9.75 21.3135C9.75 21.7277 10.0858 22.0635 10.5 22.0635L17.25 22.0635C17.6642 22.0635 18 21.7277 18 21.3135C18 20.8993 17.6642 20.5635 17.25 20.5635L11.25 20.5635L11.25 14.5635C11.25 14.1493 10.9142 13.8135 10.5 13.8135C10.0858 13.8135 9.75 14.1493 9.75 14.5635L9.75 21.3135ZM22.5637 9.99977C22.5637 9.58555 22.2279 9.24977 21.8137 9.24977L15.0637 9.24977C14.6495 9.24977 14.3137 9.58556 14.3137 9.99977C14.3137 10.414 14.6495 10.7498 15.0637 10.7498H21.0637V16.7498C21.0637 17.164 21.3995 17.4998 21.8137 17.4998C22.2279 17.4998 22.5637 17.164 22.5637 16.7498L22.5637 9.99977ZM11.0303 21.8438L22.344 10.5301L21.2834 9.46944L9.96967 20.7831L11.0303 21.8438Z"
    fill="#888787" />
</svg>